<?xml version="1.0" encoding="utf-8" standalone="no"?>
<!DOCTYPE svg PUBLIC "-//W3C//DTD SVG 1.1//EN"
  "http://www.w3.org/Graphics/SVG/1.1/DTD/svg11.dtd">
<svg height="383.471875pt" version="1.1" viewBox="0 0 421.086875 383.471875" width="421.086875pt" xmlns="http://www.w3.org/2000/svg" xmlns:xlink="http://www.w3.org/1999/xlink">
 <metadata>
  <rdf:RDF xmlns:cc="http://creativecommons.org/ns#" xmlns:dc="http://purl.org/dc/elements/1.1/" xmlns:rdf="http://www.w3.org/1999/02/22-rdf-syntax-ns#">
   <cc:Work>
    <dc:type rdf:resource="http://purl.org/dc/dcmitype/StillImage"/>
    <dc:date>2021-06-11T14:39:38.023665</dc:date>
    <dc:format>image/svg+xml</dc:format>
    <dc:creator>
     <cc:Agent>
      <dc:title>Matplotlib v3.4.2, https://matplotlib.org/</dc:title>
     </cc:Agent>
    </dc:creator>
   </cc:Work>
  </rdf:RDF>
 </metadata>
 <defs>
  <style type="text/css">*{stroke-linecap:butt;stroke-linejoin:round;}</style>
 </defs>
 <g id="figure_1">
  <g id="patch_1">
   <path d="M 0 383.471875 
L 421.086875 383.471875 
L 421.086875 0 
L 0 0 
z
" style="fill:#ffffff;"/>
  </g>
  <g id="axes_1">
   <g id="patch_2">
    <path d="M 63.336875 339.84 
L 398.136875 339.84 
L 398.136875 7.2 
L 63.336875 7.2 
z
" style="fill:#ffffff;"/>
   </g>
   <g id="matplotlib.axis_1">
    <g id="xtick_1">
     <g id="line2d_1">
      <path clip-path="url(#pc5f54e4edf)" d="M 93.773239 339.84 
L 93.773239 7.2 
" style="fill:none;stroke:#000000;stroke-dasharray:0.5,0.825;stroke-dashoffset:0;stroke-width:0.5;"/>
     </g>
     <g id="line2d_2">
      <defs>
       <path d="M 0 0 
L 0 3.5 
" id="m767ba6a4da" style="stroke:#000000;stroke-width:0.8;"/>
      </defs>
      <g>
       <use style="stroke:#000000;stroke-width:0.8;" x="93.773239" xlink:href="#m767ba6a4da" y="339.84"/>
      </g>
     </g>
     <g id="text_1">
      <!-- 0.000 -->
      <g transform="translate(78.023239 356.56125)scale(0.14 -0.14)">
       <defs>
        <path d="M 231 2094 
Q 231 2819 450 3342 
Q 669 3866 1031 4122 
Q 1313 4325 1613 4325 
Q 2100 4325 2488 3828 
Q 2972 3213 2972 2159 
Q 2972 1422 2759 906 
Q 2547 391 2217 158 
Q 1888 -75 1581 -75 
Q 975 -75 572 641 
Q 231 1244 231 2094 
z
M 844 2016 
Q 844 1141 1059 588 
Q 1238 122 1591 122 
Q 1759 122 1940 273 
Q 2122 425 2216 781 
Q 2359 1319 2359 2297 
Q 2359 3022 2209 3506 
Q 2097 3866 1919 4016 
Q 1791 4119 1609 4119 
Q 1397 4119 1231 3928 
Q 1006 3669 925 3112 
Q 844 2556 844 2016 
z
" id="TimesNewRomanPSMT-30" transform="scale(0.015625)"/>
        <path d="M 800 606 
Q 947 606 1047 504 
Q 1147 403 1147 259 
Q 1147 116 1045 14 
Q 944 -88 800 -88 
Q 656 -88 554 14 
Q 453 116 453 259 
Q 453 406 554 506 
Q 656 606 800 606 
z
" id="TimesNewRomanPSMT-2e" transform="scale(0.015625)"/>
       </defs>
       <use xlink:href="#TimesNewRomanPSMT-30"/>
       <use x="50" xlink:href="#TimesNewRomanPSMT-2e"/>
       <use x="75" xlink:href="#TimesNewRomanPSMT-30"/>
       <use x="125" xlink:href="#TimesNewRomanPSMT-30"/>
       <use x="175" xlink:href="#TimesNewRomanPSMT-30"/>
      </g>
     </g>
    </g>
    <g id="xtick_2">
     <g id="line2d_3">
      <path clip-path="url(#pc5f54e4edf)" d="M 154.645966 339.84 
L 154.645966 7.2 
" style="fill:none;stroke:#000000;stroke-dasharray:0.5,0.825;stroke-dashoffset:0;stroke-width:0.5;"/>
     </g>
     <g id="line2d_4">
      <g>
       <use style="stroke:#000000;stroke-width:0.8;" x="154.645966" xlink:href="#m767ba6a4da" y="339.84"/>
      </g>
     </g>
     <g id="text_2">
      <!-- 0.001 -->
      <g transform="translate(138.895966 356.56125)scale(0.14 -0.14)">
       <defs>
        <path d="M 750 3822 
L 1781 4325 
L 1884 4325 
L 1884 747 
Q 1884 391 1914 303 
Q 1944 216 2037 169 
Q 2131 122 2419 116 
L 2419 0 
L 825 0 
L 825 116 
Q 1125 122 1212 167 
Q 1300 213 1334 289 
Q 1369 366 1369 747 
L 1369 3034 
Q 1369 3497 1338 3628 
Q 1316 3728 1258 3775 
Q 1200 3822 1119 3822 
Q 1003 3822 797 3725 
L 750 3822 
z
" id="TimesNewRomanPSMT-31" transform="scale(0.015625)"/>
       </defs>
       <use xlink:href="#TimesNewRomanPSMT-30"/>
       <use x="50" xlink:href="#TimesNewRomanPSMT-2e"/>
       <use x="75" xlink:href="#TimesNewRomanPSMT-30"/>
       <use x="125" xlink:href="#TimesNewRomanPSMT-30"/>
       <use x="175" xlink:href="#TimesNewRomanPSMT-31"/>
      </g>
     </g>
    </g>
    <g id="xtick_3">
     <g id="line2d_5">
      <path clip-path="url(#pc5f54e4edf)" d="M 215.518693 339.84 
L 215.518693 7.2 
" style="fill:none;stroke:#000000;stroke-dasharray:0.5,0.825;stroke-dashoffset:0;stroke-width:0.5;"/>
     </g>
     <g id="line2d_6">
      <g>
       <use style="stroke:#000000;stroke-width:0.8;" x="215.518693" xlink:href="#m767ba6a4da" y="339.84"/>
      </g>
     </g>
     <g id="text_3">
      <!-- 0.002 -->
      <g transform="translate(199.768693 356.56125)scale(0.14 -0.14)">
       <defs>
        <path d="M 2934 816 
L 2638 0 
L 138 0 
L 138 116 
Q 1241 1122 1691 1759 
Q 2141 2397 2141 2925 
Q 2141 3328 1894 3587 
Q 1647 3847 1303 3847 
Q 991 3847 742 3664 
Q 494 3481 375 3128 
L 259 3128 
Q 338 3706 661 4015 
Q 984 4325 1469 4325 
Q 1984 4325 2329 3994 
Q 2675 3663 2675 3213 
Q 2675 2891 2525 2569 
Q 2294 2063 1775 1497 
Q 997 647 803 472 
L 1909 472 
Q 2247 472 2383 497 
Q 2519 522 2628 598 
Q 2738 675 2819 816 
L 2934 816 
z
" id="TimesNewRomanPSMT-32" transform="scale(0.015625)"/>
       </defs>
       <use xlink:href="#TimesNewRomanPSMT-30"/>
       <use x="50" xlink:href="#TimesNewRomanPSMT-2e"/>
       <use x="75" xlink:href="#TimesNewRomanPSMT-30"/>
       <use x="125" xlink:href="#TimesNewRomanPSMT-30"/>
       <use x="175" xlink:href="#TimesNewRomanPSMT-32"/>
      </g>
     </g>
    </g>
    <g id="xtick_4">
     <g id="line2d_7">
      <path clip-path="url(#pc5f54e4edf)" d="M 276.39142 339.84 
L 276.39142 7.2 
" style="fill:none;stroke:#000000;stroke-dasharray:0.5,0.825;stroke-dashoffset:0;stroke-width:0.5;"/>
     </g>
     <g id="line2d_8">
      <g>
       <use style="stroke:#000000;stroke-width:0.8;" x="276.39142" xlink:href="#m767ba6a4da" y="339.84"/>
      </g>
     </g>
     <g id="text_4">
      <!-- 0.003 -->
      <g transform="translate(260.64142 356.56125)scale(0.14 -0.14)">
       <defs>
        <path d="M 325 3431 
Q 506 3859 782 4092 
Q 1059 4325 1472 4325 
Q 1981 4325 2253 3994 
Q 2459 3747 2459 3466 
Q 2459 3003 1878 2509 
Q 2269 2356 2469 2072 
Q 2669 1788 2669 1403 
Q 2669 853 2319 450 
Q 1863 -75 997 -75 
Q 569 -75 414 31 
Q 259 138 259 259 
Q 259 350 332 419 
Q 406 488 509 488 
Q 588 488 669 463 
Q 722 447 909 348 
Q 1097 250 1169 231 
Q 1284 197 1416 197 
Q 1734 197 1970 444 
Q 2206 691 2206 1028 
Q 2206 1275 2097 1509 
Q 2016 1684 1919 1775 
Q 1784 1900 1550 2001 
Q 1316 2103 1072 2103 
L 972 2103 
L 972 2197 
Q 1219 2228 1467 2375 
Q 1716 2522 1828 2728 
Q 1941 2934 1941 3181 
Q 1941 3503 1739 3701 
Q 1538 3900 1238 3900 
Q 753 3900 428 3381 
L 325 3431 
z
" id="TimesNewRomanPSMT-33" transform="scale(0.015625)"/>
       </defs>
       <use xlink:href="#TimesNewRomanPSMT-30"/>
       <use x="50" xlink:href="#TimesNewRomanPSMT-2e"/>
       <use x="75" xlink:href="#TimesNewRomanPSMT-30"/>
       <use x="125" xlink:href="#TimesNewRomanPSMT-30"/>
       <use x="175" xlink:href="#TimesNewRomanPSMT-33"/>
      </g>
     </g>
    </g>
    <g id="xtick_5">
     <g id="line2d_9">
      <path clip-path="url(#pc5f54e4edf)" d="M 337.264148 339.84 
L 337.264148 7.2 
" style="fill:none;stroke:#000000;stroke-dasharray:0.5,0.825;stroke-dashoffset:0;stroke-width:0.5;"/>
     </g>
     <g id="line2d_10">
      <g>
       <use style="stroke:#000000;stroke-width:0.8;" x="337.264148" xlink:href="#m767ba6a4da" y="339.84"/>
      </g>
     </g>
     <g id="text_5">
      <!-- 0.004 -->
      <g transform="translate(321.514148 356.56125)scale(0.14 -0.14)">
       <defs>
        <path d="M 2978 1563 
L 2978 1119 
L 2409 1119 
L 2409 0 
L 1894 0 
L 1894 1119 
L 100 1119 
L 100 1519 
L 2066 4325 
L 2409 4325 
L 2409 1563 
L 2978 1563 
z
M 1894 1563 
L 1894 3666 
L 406 1563 
L 1894 1563 
z
" id="TimesNewRomanPSMT-34" transform="scale(0.015625)"/>
       </defs>
       <use xlink:href="#TimesNewRomanPSMT-30"/>
       <use x="50" xlink:href="#TimesNewRomanPSMT-2e"/>
       <use x="75" xlink:href="#TimesNewRomanPSMT-30"/>
       <use x="125" xlink:href="#TimesNewRomanPSMT-30"/>
       <use x="175" xlink:href="#TimesNewRomanPSMT-34"/>
      </g>
     </g>
    </g>
    <g id="xtick_6">
     <g id="line2d_11">
      <path clip-path="url(#pc5f54e4edf)" d="M 398.136875 339.84 
L 398.136875 7.2 
" style="fill:none;stroke:#000000;stroke-dasharray:0.5,0.825;stroke-dashoffset:0;stroke-width:0.5;"/>
     </g>
     <g id="line2d_12">
      <g>
       <use style="stroke:#000000;stroke-width:0.8;" x="398.136875" xlink:href="#m767ba6a4da" y="339.84"/>
      </g>
     </g>
     <g id="text_6">
      <!-- 0.005 -->
      <g transform="translate(382.386875 356.56125)scale(0.14 -0.14)">
       <defs>
        <path d="M 2778 4238 
L 2534 3706 
L 1259 3706 
L 981 3138 
Q 1809 3016 2294 2522 
Q 2709 2097 2709 1522 
Q 2709 1188 2573 903 
Q 2438 619 2231 419 
Q 2025 219 1772 97 
Q 1413 -75 1034 -75 
Q 653 -75 479 54 
Q 306 184 306 341 
Q 306 428 378 495 
Q 450 563 559 563 
Q 641 563 702 538 
Q 763 513 909 409 
Q 1144 247 1384 247 
Q 1750 247 2026 523 
Q 2303 800 2303 1197 
Q 2303 1581 2056 1914 
Q 1809 2247 1375 2428 
Q 1034 2569 447 2591 
L 1259 4238 
L 2778 4238 
z
" id="TimesNewRomanPSMT-35" transform="scale(0.015625)"/>
       </defs>
       <use xlink:href="#TimesNewRomanPSMT-30"/>
       <use x="50" xlink:href="#TimesNewRomanPSMT-2e"/>
       <use x="75" xlink:href="#TimesNewRomanPSMT-30"/>
       <use x="125" xlink:href="#TimesNewRomanPSMT-30"/>
       <use x="175" xlink:href="#TimesNewRomanPSMT-35"/>
      </g>
     </g>
    </g>
    <g id="text_7">
     <!-- Time (sec) -->
     <g transform="translate(200.858906 373.277188)scale(0.14 -0.14)">
      <defs>
       <path d="M 3703 4238 
L 3750 3244 
L 3631 3244 
Q 3597 3506 3538 3619 
Q 3441 3800 3280 3886 
Q 3119 3972 2856 3972 
L 2259 3972 
L 2259 734 
Q 2259 344 2344 247 
Q 2463 116 2709 116 
L 2856 116 
L 2856 0 
L 1059 0 
L 1059 116 
L 1209 116 
Q 1478 116 1591 278 
Q 1659 378 1659 734 
L 1659 3972 
L 1150 3972 
Q 853 3972 728 3928 
Q 566 3869 450 3700 
Q 334 3531 313 3244 
L 194 3244 
L 244 4238 
L 3703 4238 
z
" id="TimesNewRomanPSMT-54" transform="scale(0.015625)"/>
       <path d="M 928 4444 
Q 1059 4444 1151 4351 
Q 1244 4259 1244 4128 
Q 1244 3997 1151 3903 
Q 1059 3809 928 3809 
Q 797 3809 703 3903 
Q 609 3997 609 4128 
Q 609 4259 701 4351 
Q 794 4444 928 4444 
z
M 1188 2947 
L 1188 647 
Q 1188 378 1227 289 
Q 1266 200 1342 156 
Q 1419 113 1622 113 
L 1622 0 
L 231 0 
L 231 113 
Q 441 113 512 153 
Q 584 194 626 287 
Q 669 381 669 647 
L 669 1750 
Q 669 2216 641 2353 
Q 619 2453 572 2492 
Q 525 2531 444 2531 
Q 356 2531 231 2484 
L 188 2597 
L 1050 2947 
L 1188 2947 
z
" id="TimesNewRomanPSMT-69" transform="scale(0.015625)"/>
       <path d="M 1050 2338 
Q 1363 2650 1419 2697 
Q 1559 2816 1721 2881 
Q 1884 2947 2044 2947 
Q 2313 2947 2506 2790 
Q 2700 2634 2766 2338 
Q 3088 2713 3309 2830 
Q 3531 2947 3766 2947 
Q 3994 2947 4170 2830 
Q 4347 2713 4450 2447 
Q 4519 2266 4519 1878 
L 4519 647 
Q 4519 378 4559 278 
Q 4591 209 4675 161 
Q 4759 113 4950 113 
L 4950 0 
L 3538 0 
L 3538 113 
L 3597 113 
Q 3781 113 3884 184 
Q 3956 234 3988 344 
Q 4000 397 4000 647 
L 4000 1878 
Q 4000 2228 3916 2372 
Q 3794 2572 3525 2572 
Q 3359 2572 3192 2489 
Q 3025 2406 2788 2181 
L 2781 2147 
L 2788 2013 
L 2788 647 
Q 2788 353 2820 281 
Q 2853 209 2943 161 
Q 3034 113 3253 113 
L 3253 0 
L 1806 0 
L 1806 113 
Q 2044 113 2133 169 
Q 2222 225 2256 338 
Q 2272 391 2272 647 
L 2272 1878 
Q 2272 2228 2169 2381 
Q 2031 2581 1784 2581 
Q 1616 2581 1450 2491 
Q 1191 2353 1050 2181 
L 1050 647 
Q 1050 366 1089 281 
Q 1128 197 1204 155 
Q 1281 113 1516 113 
L 1516 0 
L 100 0 
L 100 113 
Q 297 113 375 155 
Q 453 197 493 289 
Q 534 381 534 647 
L 534 1741 
Q 534 2213 506 2350 
Q 484 2453 437 2492 
Q 391 2531 309 2531 
Q 222 2531 100 2484 
L 53 2597 
L 916 2947 
L 1050 2947 
L 1050 2338 
z
" id="TimesNewRomanPSMT-6d" transform="scale(0.015625)"/>
       <path d="M 681 1784 
Q 678 1147 991 784 
Q 1303 422 1725 422 
Q 2006 422 2214 576 
Q 2422 731 2563 1106 
L 2659 1044 
Q 2594 616 2278 264 
Q 1963 -88 1488 -88 
Q 972 -88 605 314 
Q 238 716 238 1394 
Q 238 2128 614 2539 
Q 991 2950 1559 2950 
Q 2041 2950 2350 2633 
Q 2659 2316 2659 1784 
L 681 1784 
z
M 681 1966 
L 2006 1966 
Q 1991 2241 1941 2353 
Q 1863 2528 1708 2628 
Q 1553 2728 1384 2728 
Q 1125 2728 920 2526 
Q 716 2325 681 1966 
z
" id="TimesNewRomanPSMT-65" transform="scale(0.015625)"/>
       <path id="TimesNewRomanPSMT-20" transform="scale(0.015625)"/>
       <path d="M 1988 -1253 
L 1988 -1369 
Q 1516 -1131 1200 -813 
Q 750 -359 506 256 
Q 263 872 263 1534 
Q 263 2503 741 3301 
Q 1219 4100 1988 4444 
L 1988 4313 
Q 1603 4100 1356 3731 
Q 1109 3363 987 2797 
Q 866 2231 866 1616 
Q 866 947 969 400 
Q 1050 -31 1165 -292 
Q 1281 -553 1476 -793 
Q 1672 -1034 1988 -1253 
z
" id="TimesNewRomanPSMT-28" transform="scale(0.015625)"/>
       <path d="M 2050 2947 
L 2050 1972 
L 1947 1972 
Q 1828 2431 1642 2597 
Q 1456 2763 1169 2763 
Q 950 2763 815 2647 
Q 681 2531 681 2391 
Q 681 2216 781 2091 
Q 878 1963 1175 1819 
L 1631 1597 
Q 2266 1288 2266 781 
Q 2266 391 1970 151 
Q 1675 -88 1309 -88 
Q 1047 -88 709 6 
Q 606 38 541 38 
Q 469 38 428 -44 
L 325 -44 
L 325 978 
L 428 978 
Q 516 541 762 319 
Q 1009 97 1316 97 
Q 1531 97 1667 223 
Q 1803 350 1803 528 
Q 1803 744 1651 891 
Q 1500 1038 1047 1263 
Q 594 1488 453 1669 
Q 313 1847 313 2119 
Q 313 2472 555 2709 
Q 797 2947 1181 2947 
Q 1350 2947 1591 2875 
Q 1750 2828 1803 2828 
Q 1853 2828 1881 2850 
Q 1909 2872 1947 2947 
L 2050 2947 
z
" id="TimesNewRomanPSMT-73" transform="scale(0.015625)"/>
       <path d="M 2631 1088 
Q 2516 522 2178 217 
Q 1841 -88 1431 -88 
Q 944 -88 581 321 
Q 219 731 219 1428 
Q 219 2103 620 2525 
Q 1022 2947 1584 2947 
Q 2006 2947 2278 2723 
Q 2550 2500 2550 2259 
Q 2550 2141 2473 2067 
Q 2397 1994 2259 1994 
Q 2075 1994 1981 2113 
Q 1928 2178 1911 2362 
Q 1894 2547 1784 2644 
Q 1675 2738 1481 2738 
Q 1169 2738 978 2506 
Q 725 2200 725 1697 
Q 725 1184 976 792 
Q 1228 400 1656 400 
Q 1963 400 2206 609 
Q 2378 753 2541 1131 
L 2631 1088 
z
" id="TimesNewRomanPSMT-63" transform="scale(0.015625)"/>
       <path d="M 144 4313 
L 144 4444 
Q 619 4209 934 3891 
Q 1381 3434 1625 2820 
Q 1869 2206 1869 1541 
Q 1869 572 1392 -226 
Q 916 -1025 144 -1369 
L 144 -1253 
Q 528 -1038 776 -670 
Q 1025 -303 1145 264 
Q 1266 831 1266 1447 
Q 1266 2113 1163 2663 
Q 1084 3094 967 3353 
Q 850 3613 656 3853 
Q 463 4094 144 4313 
z
" id="TimesNewRomanPSMT-29" transform="scale(0.015625)"/>
      </defs>
      <use xlink:href="#TimesNewRomanPSMT-54"/>
      <use x="57.583984" xlink:href="#TimesNewRomanPSMT-69"/>
      <use x="85.367188" xlink:href="#TimesNewRomanPSMT-6d"/>
      <use x="163.150391" xlink:href="#TimesNewRomanPSMT-65"/>
      <use x="207.535156" xlink:href="#TimesNewRomanPSMT-20"/>
      <use x="232.535156" xlink:href="#TimesNewRomanPSMT-28"/>
      <use x="265.835938" xlink:href="#TimesNewRomanPSMT-73"/>
      <use x="304.751953" xlink:href="#TimesNewRomanPSMT-65"/>
      <use x="349.136719" xlink:href="#TimesNewRomanPSMT-63"/>
      <use x="393.521484" xlink:href="#TimesNewRomanPSMT-29"/>
     </g>
    </g>
   </g>
   <g id="matplotlib.axis_2">
    <g id="ytick_1">
     <g id="line2d_13">
      <path clip-path="url(#pc5f54e4edf)" d="M 63.336875 304.323813 
L 398.136875 304.323813 
" style="fill:none;stroke:#000000;stroke-dasharray:0.5,0.825;stroke-dashoffset:0;stroke-width:0.5;"/>
     </g>
     <g id="line2d_14">
      <defs>
       <path d="M 0 0 
L -3.5 0 
" id="m48c13f5357" style="stroke:#000000;stroke-width:0.8;"/>
      </defs>
      <g>
       <use style="stroke:#000000;stroke-width:0.8;" x="63.336875" xlink:href="#m48c13f5357" y="304.323813"/>
      </g>
     </g>
     <g id="text_8">
      <!-- −0.06 -->
      <g transform="translate(23.942188 309.184438)scale(0.14 -0.14)">
       <defs>
        <path d="M 3484 2000 
L 116 2000 
L 116 2256 
L 3484 2256 
L 3484 2000 
z
" id="TimesNewRomanPSMT-2212" transform="scale(0.015625)"/>
        <path d="M 2869 4325 
L 2869 4209 
Q 2456 4169 2195 4045 
Q 1934 3922 1679 3669 
Q 1425 3416 1258 3105 
Q 1091 2794 978 2366 
Q 1428 2675 1881 2675 
Q 2316 2675 2634 2325 
Q 2953 1975 2953 1425 
Q 2953 894 2631 456 
Q 2244 -75 1606 -75 
Q 1172 -75 869 213 
Q 275 772 275 1663 
Q 275 2231 503 2743 
Q 731 3256 1154 3653 
Q 1578 4050 1965 4187 
Q 2353 4325 2688 4325 
L 2869 4325 
z
M 925 2138 
Q 869 1716 869 1456 
Q 869 1156 980 804 
Q 1091 453 1309 247 
Q 1469 100 1697 100 
Q 1969 100 2183 356 
Q 2397 613 2397 1088 
Q 2397 1622 2184 2012 
Q 1972 2403 1581 2403 
Q 1463 2403 1327 2353 
Q 1191 2303 925 2138 
z
" id="TimesNewRomanPSMT-36" transform="scale(0.015625)"/>
       </defs>
       <use xlink:href="#TimesNewRomanPSMT-2212"/>
       <use x="56.396484" xlink:href="#TimesNewRomanPSMT-30"/>
       <use x="106.396484" xlink:href="#TimesNewRomanPSMT-2e"/>
       <use x="131.396484" xlink:href="#TimesNewRomanPSMT-30"/>
       <use x="181.396484" xlink:href="#TimesNewRomanPSMT-36"/>
      </g>
     </g>
    </g>
    <g id="ytick_2">
     <g id="line2d_15">
      <path clip-path="url(#pc5f54e4edf)" d="M 63.336875 254.755041 
L 398.136875 254.755041 
" style="fill:none;stroke:#000000;stroke-dasharray:0.5,0.825;stroke-dashoffset:0;stroke-width:0.5;"/>
     </g>
     <g id="line2d_16">
      <g>
       <use style="stroke:#000000;stroke-width:0.8;" x="63.336875" xlink:href="#m48c13f5357" y="254.755041"/>
      </g>
     </g>
     <g id="text_9">
      <!-- −0.04 -->
      <g transform="translate(23.942188 259.615666)scale(0.14 -0.14)">
       <use xlink:href="#TimesNewRomanPSMT-2212"/>
       <use x="56.396484" xlink:href="#TimesNewRomanPSMT-30"/>
       <use x="106.396484" xlink:href="#TimesNewRomanPSMT-2e"/>
       <use x="131.396484" xlink:href="#TimesNewRomanPSMT-30"/>
       <use x="181.396484" xlink:href="#TimesNewRomanPSMT-34"/>
      </g>
     </g>
    </g>
    <g id="ytick_3">
     <g id="line2d_17">
      <path clip-path="url(#pc5f54e4edf)" d="M 63.336875 205.186268 
L 398.136875 205.186268 
" style="fill:none;stroke:#000000;stroke-dasharray:0.5,0.825;stroke-dashoffset:0;stroke-width:0.5;"/>
     </g>
     <g id="line2d_18">
      <g>
       <use style="stroke:#000000;stroke-width:0.8;" x="63.336875" xlink:href="#m48c13f5357" y="205.186268"/>
      </g>
     </g>
     <g id="text_10">
      <!-- −0.02 -->
      <g transform="translate(23.942188 210.046893)scale(0.14 -0.14)">
       <use xlink:href="#TimesNewRomanPSMT-2212"/>
       <use x="56.396484" xlink:href="#TimesNewRomanPSMT-30"/>
       <use x="106.396484" xlink:href="#TimesNewRomanPSMT-2e"/>
       <use x="131.396484" xlink:href="#TimesNewRomanPSMT-30"/>
       <use x="181.396484" xlink:href="#TimesNewRomanPSMT-32"/>
      </g>
     </g>
    </g>
    <g id="ytick_4">
     <g id="line2d_19">
      <path clip-path="url(#pc5f54e4edf)" d="M 63.336875 155.617495 
L 398.136875 155.617495 
" style="fill:none;stroke:#000000;stroke-dasharray:0.5,0.825;stroke-dashoffset:0;stroke-width:0.5;"/>
     </g>
     <g id="line2d_20">
      <g>
       <use style="stroke:#000000;stroke-width:0.8;" x="63.336875" xlink:href="#m48c13f5357" y="155.617495"/>
      </g>
     </g>
     <g id="text_11">
      <!-- 0.00 -->
      <g transform="translate(31.836875 160.47812)scale(0.14 -0.14)">
       <use xlink:href="#TimesNewRomanPSMT-30"/>
       <use x="50" xlink:href="#TimesNewRomanPSMT-2e"/>
       <use x="75" xlink:href="#TimesNewRomanPSMT-30"/>
       <use x="125" xlink:href="#TimesNewRomanPSMT-30"/>
      </g>
     </g>
    </g>
    <g id="ytick_5">
     <g id="line2d_21">
      <path clip-path="url(#pc5f54e4edf)" d="M 63.336875 106.048723 
L 398.136875 106.048723 
" style="fill:none;stroke:#000000;stroke-dasharray:0.5,0.825;stroke-dashoffset:0;stroke-width:0.5;"/>
     </g>
     <g id="line2d_22">
      <g>
       <use style="stroke:#000000;stroke-width:0.8;" x="63.336875" xlink:href="#m48c13f5357" y="106.048723"/>
      </g>
     </g>
     <g id="text_12">
      <!-- 0.02 -->
      <g transform="translate(31.836875 110.909348)scale(0.14 -0.14)">
       <use xlink:href="#TimesNewRomanPSMT-30"/>
       <use x="50" xlink:href="#TimesNewRomanPSMT-2e"/>
       <use x="75" xlink:href="#TimesNewRomanPSMT-30"/>
       <use x="125" xlink:href="#TimesNewRomanPSMT-32"/>
      </g>
     </g>
    </g>
    <g id="ytick_6">
     <g id="line2d_23">
      <path clip-path="url(#pc5f54e4edf)" d="M 63.336875 56.47995 
L 398.136875 56.47995 
" style="fill:none;stroke:#000000;stroke-dasharray:0.5,0.825;stroke-dashoffset:0;stroke-width:0.5;"/>
     </g>
     <g id="line2d_24">
      <g>
       <use style="stroke:#000000;stroke-width:0.8;" x="63.336875" xlink:href="#m48c13f5357" y="56.47995"/>
      </g>
     </g>
     <g id="text_13">
      <!-- 0.04 -->
      <g transform="translate(31.836875 61.340575)scale(0.14 -0.14)">
       <use xlink:href="#TimesNewRomanPSMT-30"/>
       <use x="50" xlink:href="#TimesNewRomanPSMT-2e"/>
       <use x="75" xlink:href="#TimesNewRomanPSMT-30"/>
       <use x="125" xlink:href="#TimesNewRomanPSMT-34"/>
      </g>
     </g>
    </g>
    <g id="text_14">
     <!-- Volatage (V) -->
     <g transform="translate(16.92125 209.352344)rotate(-90)scale(0.14 -0.14)">
      <defs>
       <path d="M 4544 4238 
L 4544 4122 
Q 4319 4081 4203 3978 
Q 4038 3825 3909 3509 
L 2431 -97 
L 2316 -97 
L 728 3556 
Q 606 3838 556 3900 
Q 478 3997 364 4051 
Q 250 4106 56 4122 
L 56 4238 
L 1788 4238 
L 1788 4122 
Q 1494 4094 1406 4022 
Q 1319 3950 1319 3838 
Q 1319 3681 1463 3350 
L 2541 866 
L 3541 3319 
Q 3688 3681 3688 3822 
Q 3688 3913 3597 3995 
Q 3506 4078 3291 4113 
Q 3275 4116 3238 4122 
L 3238 4238 
L 4544 4238 
z
" id="TimesNewRomanPSMT-56" transform="scale(0.015625)"/>
       <path d="M 1600 2947 
Q 2250 2947 2644 2453 
Q 2978 2031 2978 1484 
Q 2978 1100 2793 706 
Q 2609 313 2286 112 
Q 1963 -88 1566 -88 
Q 919 -88 538 428 
Q 216 863 216 1403 
Q 216 1797 411 2186 
Q 606 2575 925 2761 
Q 1244 2947 1600 2947 
z
M 1503 2744 
Q 1338 2744 1170 2645 
Q 1003 2547 900 2300 
Q 797 2053 797 1666 
Q 797 1041 1045 587 
Q 1294 134 1700 134 
Q 2003 134 2200 384 
Q 2397 634 2397 1244 
Q 2397 2006 2069 2444 
Q 1847 2744 1503 2744 
z
" id="TimesNewRomanPSMT-6f" transform="scale(0.015625)"/>
       <path d="M 1184 4444 
L 1184 647 
Q 1184 378 1223 290 
Q 1263 203 1344 158 
Q 1425 113 1647 113 
L 1647 0 
L 244 0 
L 244 113 
Q 441 113 512 153 
Q 584 194 625 287 
Q 666 381 666 647 
L 666 3247 
Q 666 3731 644 3842 
Q 622 3953 573 3993 
Q 525 4034 450 4034 
Q 369 4034 244 3984 
L 191 4094 
L 1044 4444 
L 1184 4444 
z
" id="TimesNewRomanPSMT-6c" transform="scale(0.015625)"/>
       <path d="M 1822 413 
Q 1381 72 1269 19 
Q 1100 -59 909 -59 
Q 613 -59 420 144 
Q 228 347 228 678 
Q 228 888 322 1041 
Q 450 1253 767 1440 
Q 1084 1628 1822 1897 
L 1822 2009 
Q 1822 2438 1686 2597 
Q 1550 2756 1291 2756 
Q 1094 2756 978 2650 
Q 859 2544 859 2406 
L 866 2225 
Q 866 2081 792 2003 
Q 719 1925 600 1925 
Q 484 1925 411 2006 
Q 338 2088 338 2228 
Q 338 2497 613 2722 
Q 888 2947 1384 2947 
Q 1766 2947 2009 2819 
Q 2194 2722 2281 2516 
Q 2338 2381 2338 1966 
L 2338 994 
Q 2338 584 2353 492 
Q 2369 400 2405 369 
Q 2441 338 2488 338 
Q 2538 338 2575 359 
Q 2641 400 2828 588 
L 2828 413 
Q 2478 -56 2159 -56 
Q 2006 -56 1915 50 
Q 1825 156 1822 413 
z
M 1822 616 
L 1822 1706 
Q 1350 1519 1213 1441 
Q 966 1303 859 1153 
Q 753 1003 753 825 
Q 753 600 887 451 
Q 1022 303 1197 303 
Q 1434 303 1822 616 
z
" id="TimesNewRomanPSMT-61" transform="scale(0.015625)"/>
       <path d="M 1031 3803 
L 1031 2863 
L 1700 2863 
L 1700 2644 
L 1031 2644 
L 1031 788 
Q 1031 509 1111 412 
Q 1191 316 1316 316 
Q 1419 316 1516 380 
Q 1613 444 1666 569 
L 1788 569 
Q 1678 263 1478 108 
Q 1278 -47 1066 -47 
Q 922 -47 784 33 
Q 647 113 581 261 
Q 516 409 516 719 
L 516 2644 
L 63 2644 
L 63 2747 
Q 234 2816 414 2980 
Q 594 3144 734 3369 
Q 806 3488 934 3803 
L 1031 3803 
z
" id="TimesNewRomanPSMT-74" transform="scale(0.015625)"/>
       <path d="M 966 1044 
Q 703 1172 562 1401 
Q 422 1631 422 1909 
Q 422 2334 742 2640 
Q 1063 2947 1563 2947 
Q 1972 2947 2272 2747 
L 2878 2747 
Q 3013 2747 3034 2739 
Q 3056 2731 3066 2713 
Q 3084 2684 3084 2613 
Q 3084 2531 3069 2500 
Q 3059 2484 3036 2475 
Q 3013 2466 2878 2466 
L 2506 2466 
Q 2681 2241 2681 1891 
Q 2681 1491 2375 1206 
Q 2069 922 1553 922 
Q 1341 922 1119 984 
Q 981 866 932 777 
Q 884 688 884 625 
Q 884 572 936 522 
Q 988 472 1138 450 
Q 1225 438 1575 428 
Q 2219 413 2409 384 
Q 2700 344 2873 169 
Q 3047 -6 3047 -263 
Q 3047 -616 2716 -925 
Q 2228 -1381 1444 -1381 
Q 841 -1381 425 -1109 
Q 191 -953 191 -784 
Q 191 -709 225 -634 
Q 278 -519 444 -313 
Q 466 -284 763 25 
Q 600 122 533 198 
Q 466 275 466 372 
Q 466 481 555 628 
Q 644 775 966 1044 
z
M 1509 2797 
Q 1278 2797 1122 2612 
Q 966 2428 966 2047 
Q 966 1553 1178 1281 
Q 1341 1075 1591 1075 
Q 1828 1075 1981 1253 
Q 2134 1431 2134 1813 
Q 2134 2309 1919 2591 
Q 1759 2797 1509 2797 
z
M 934 0 
Q 788 -159 713 -296 
Q 638 -434 638 -550 
Q 638 -700 819 -813 
Q 1131 -1006 1722 -1006 
Q 2284 -1006 2551 -807 
Q 2819 -609 2819 -384 
Q 2819 -222 2659 -153 
Q 2497 -84 2016 -72 
Q 1313 -53 934 0 
z
" id="TimesNewRomanPSMT-67" transform="scale(0.015625)"/>
      </defs>
      <use xlink:href="#TimesNewRomanPSMT-56"/>
      <use x="59.341797" xlink:href="#TimesNewRomanPSMT-6f"/>
      <use x="109.341797" xlink:href="#TimesNewRomanPSMT-6c"/>
      <use x="137.125" xlink:href="#TimesNewRomanPSMT-61"/>
      <use x="181.509766" xlink:href="#TimesNewRomanPSMT-74"/>
      <use x="209.292969" xlink:href="#TimesNewRomanPSMT-61"/>
      <use x="253.677734" xlink:href="#TimesNewRomanPSMT-67"/>
      <use x="303.677734" xlink:href="#TimesNewRomanPSMT-65"/>
      <use x="348.0625" xlink:href="#TimesNewRomanPSMT-20"/>
      <use x="373.0625" xlink:href="#TimesNewRomanPSMT-28"/>
      <use x="406.363281" xlink:href="#TimesNewRomanPSMT-56"/>
      <use x="478.580078" xlink:href="#TimesNewRomanPSMT-29"/>
     </g>
    </g>
   </g>
   <g id="LineCollection_1">
    <path clip-path="url(#pc5f54e4edf)" d="M 78.555057 155.617495 
L 382.918693 155.617495 
" style="fill:none;stroke:#1f77b4;stroke-width:1.5;"/>
   </g>
   <g id="line2d_25">
    <path clip-path="url(#pc5f54e4edf)" d="M 78.555057 155.628525 
L 78.737675 155.597544 
L 110.574111 155.690486 
L 110.726293 155.690486 
L 112.76553 155.783427 
L 112.917711 155.783427 
L 113.76993 155.845388 
L 113.922111 155.938329 
L 114.10473 155.907349 
L 114.256911 155.938329 
L 114.34822 155.938329 
L 114.378657 155.96931 
L 114.926511 156.031271 
L 115.078693 156.093232 
L 115.656984 156.124212 
L 115.77873 156.217154 
L 115.870039 156.217154 
L 115.900475 156.248134 
L 116.35702 156.341076 
L 116.539639 156.372056 
L 116.630948 156.372056 
L 116.752693 156.403037 
L 116.874439 156.372056 
L 116.996184 156.464998 
L 117.635348 156.557939 
L 117.817966 156.58892 
L 118.36582 156.681861 
L 118.548439 156.712841 
L 119.004984 156.805783 
L 119.187602 156.836763 
L 119.674584 156.898724 
L 119.79633 156.929705 
L 120.861602 157.022646 
L 121.04422 157.053627 
L 121.957311 157.146568 
L 122.170366 157.208529 
L 122.505166 157.301471 
L 122.748657 157.425393 
L 122.870402 157.456373 
L 123.083457 157.549315 
L 123.296511 157.673236 
L 123.326948 157.611275 
L 123.38782 157.704217 
L 123.661748 157.797158 
L 124.118293 158.106963 
L 124.270475 158.199905 
L 124.453093 158.354807 
L 124.574839 158.447748 
L 126.187966 160.244616 
L 128.044584 164.27208 
L 130.327311 171.583474 
L 132.244802 178.925848 
L 134.618839 185.834495 
L 136.231966 188.870583 
L 136.475457 188.963524 
L 136.718948 189.056466 
L 137.266802 188.963524 
L 138.666875 187.383519 
L 138.940802 186.732929 
L 140.158257 182.674486 
L 140.706111 180.010165 
L 141.527893 175.301131 
L 142.13662 171.242688 
L 143.719311 159.19128 
L 145.849857 138.65122 
L 151.693639 74.459662 
L 153.672002 57.358433 
L 154.28073 53.29999 
L 155.741675 46.360364 
L 155.985166 45.616827 
L 156.502584 44.34663 
L 157.385239 43.603096 
L 157.750475 43.696042 
L 158.511384 45.461928 
L 159.54622 50.078019 
L 161.159348 62.284335 
L 162.437675 76.380447 
L 163.929057 97.509139 
L 165.755239 129.01629 
L 168.67713 187.662344 
L 172.055566 254.177443 
L 173.668693 280.232032 
L 175.007893 297.735999 
L 176.255784 310.499963 
L 177.412366 319.019589 
L 178.782002 324.131366 
L 179.482039 324.72 
L 179.695093 324.658049 
L 179.786402 324.658049 
L 179.816839 324.627061 
L 180.882111 322.210591 
L 181.551711 319.050574 
L 182.64742 311.7082 
L 183.834439 299.842672 
L 185.630184 276.638291 
L 187.791166 241.971128 
L 188.734693 224.869904 
L 192.387057 152.74734 
L 195.03502 106.214654 
L 196.587275 82.700465 
L 197.71342 68.232585 
L 198.38302 61.385898 
L 200.81793 42.456821 
L 201.974511 37.097195 
L 202.948475 34.432873 
L 203.252839 33.968173 
L 203.49633 33.720324 
L 204.348548 32.97679 
L 204.592039 33.069737 
L 204.683348 33.1317 
L 204.926839 33.379539 
L 205.596439 34.216012 
L 206.205166 35.734058 
L 206.539966 36.66347 
L 207.453057 39.761516 
L 209.674911 51.627044 
L 211.227166 61.788647 
L 211.896766 66.373753 
L 212.292439 68.945134 
L 215.031711 89.237347 
L 217.22313 106.214654 
L 218.044911 111.88408 
L 218.775384 116.964884 
L 220.784184 129.914724 
L 221.392911 133.539441 
L 221.788584 135.553172 
L 222.366875 138.899064 
L 224.649602 149.959096 
L 224.893093 151.043413 
L 227.784548 163.280704 
L 228.575893 166.750518 
L 229.002002 168.950132 
L 231.497784 182.178798 
L 232.045639 185.741554 
L 232.471748 188.467836 
L 235.728439 215.854583 
L 236.489348 222.51539 
L 239.867784 249.158602 
L 241.754839 258.204901 
L 242.33313 260.125693 
L 243.459275 262.170405 
L 244.25062 262.82099 
L 244.707166 262.728054 
L 245.194148 262.077466 
L 245.498511 261.210008 
L 246.776839 255.540579 
L 247.93342 247.795456 
L 250.794439 220.62558 
L 254.690293 174.371717 
L 258.06873 137.721805 
L 258.64702 132.85787 
L 259.438366 126.630793 
L 260.868875 117.212726 
L 261.568911 113.588009 
L 262.75593 109.219761 
L 263.455966 107.391913 
L 263.638584 107.051127 
L 264.490802 105.533086 
L 264.612548 105.440142 
L 264.886475 105.130337 
L 265.708257 104.417789 
L 265.830002 104.417789 
L 266.01262 104.386806 
L 266.164802 104.448769 
L 266.195239 104.417789 
L 266.34742 104.417789 
L 266.530039 104.448769 
L 267.047457 104.541708 
L 268.44753 106.12171 
L 269.056257 107.113088 
L 269.299748 107.515832 
L 269.604111 108.104464 
L 269.78673 108.445249 
L 270.760693 110.675844 
L 271.12593 111.760161 
L 271.217239 111.977024 
L 272.008584 114.734287 
L 272.556439 116.717041 
L 272.952111 118.173121 
L 273.652148 120.651559 
L 274.200002 122.417447 
L 274.413057 123.099018 
L 276.14793 128.055895 
L 276.239239 128.241778 
L 276.543602 129.04727 
L 277.091457 130.410412 
L 277.761057 132.114338 
L 278.582839 134.035128 
L 278.948075 134.809639 
L 280.043784 136.792391 
L 280.378584 137.257099 
L 280.591639 137.566902 
L 281.41342 139.022985 
L 281.50473 139.115927 
L 281.778657 139.518673 
L 282.022148 139.92142 
L 282.904802 141.470444 
L 283.330911 142.059074 
L 283.878766 142.926527 
L 284.670111 143.886922 
L 285.035348 144.38261 
L 285.157093 144.47555 
L 285.309275 144.630453 
L 285.76582 144.940257 
L 285.978875 145.033199 
L 286.283239 145.188102 
L 286.465857 145.157121 
L 286.496293 145.250063 
L 286.587602 145.188102 
L 286.739784 145.250063 
L 286.77022 145.219082 
L 287.226766 145.126141 
L 287.561566 144.909278 
L 287.652875 144.909278 
L 287.683311 144.878297 
L 287.835493 144.785356 
L 289.235566 143.205351 
L 289.813857 142.275936 
L 289.935602 141.997113 
L 291.305239 138.992006 
L 291.518293 138.372396 
L 291.579166 138.279454 
L 292.066148 137.133175 
L 292.157457 136.885332 
L 292.46182 136.01788 
L 292.88793 134.747679 
L 293.192293 133.942187 
L 293.496657 132.91983 
L 294.927166 128.210797 
L 295.47502 126.44491 
L 295.56633 126.228046 
L 297.088148 121.921759 
L 298.396911 119.505282 
L 299.005639 119.040574 
L 299.096948 118.947633 
L 299.431748 118.76175 
L 299.644802 118.823711 
L 299.766548 118.916652 
L 300.953566 120.279794 
L 301.410111 121.457052 
L 302.444948 124.926866 
L 303.84502 132.579046 
L 305.640766 146.148497 
L 308.349602 171.98622 
L 311.271493 203.493368 
L 311.788911 208.605153 
L 312.945493 219.262439 
L 314.162948 229.424032 
L 314.436875 231.344822 
L 315.258657 236.456602 
L 315.928257 239.647594 
L 316.32393 241.413479 
L 317.724002 245.409961 
L 317.754439 245.378983 
L 317.784875 245.440947 
L 318.058802 245.750747 
L 318.089239 245.719771 
L 318.150111 245.781732 
L 318.363166 245.843696 
L 318.941457 245.750747 
L 320.371966 242.652701 
L 320.767639 241.196618 
L 321.132875 239.740533 
L 321.985093 235.806014 
L 322.776439 231.282861 
L 323.628657 225.241672 
L 324.572184 217.775373 
L 326.124439 204.577685 
L 327.646257 191.28706 
L 328.772402 180.908598 
L 329.198511 177.128979 
L 331.207311 159.717948 
L 331.694293 155.473622 
L 335.377093 126.351968 
L 338.298984 109.157798 
L 341.43393 96.858546 
L 344.35582 88.245974 
L 344.508002 87.93617 
L 344.994984 86.789889 
L 346.151566 84.683219 
L 346.851602 84.12557 
L 347.277711 84.063607 
L 347.308148 84.001651 
L 347.338584 84.09459 
L 347.399457 84.063607 
L 347.977748 84.12557 
L 348.12993 84.218512 
L 348.282111 84.311451 
L 348.616911 84.528319 
L 348.647348 84.466355 
L 348.70822 84.528319 
L 349.651748 85.643616 
L 351.204002 89.051467 
L 353.973711 97.849924 
L 355.952075 106.338579 
L 356.591239 109.59153 
L 357.017348 111.760161 
L 358.17393 118.142138 
L 359.300075 124.431178 
L 359.84793 127.591188 
L 360.608839 132.021397 
L 362.10022 140.448088 
L 363.713348 149.184584 
L 364.139457 151.446159 
L 365.174293 157.084607 
L 366.696111 165.356396 
L 367.183093 168.082679 
L 369.13102 178.554083 
L 370.104984 183.820764 
L 370.500657 185.896456 
L 373.300802 200.70513 
L 373.757348 203.183568 
L 374.640002 207.892599 
L 375.066111 210.092213 
L 377.074911 219.758124 
L 377.196657 220.253812 
L 377.957566 223.599706 
L 378.353239 225.117748 
L 378.688039 226.480889 
L 379.357639 228.742464 
L 380.392475 231.561686 
L 381.214257 232.98679 
L 381.914293 233.575419 
L 381.94473 233.544439 
L 381.975166 233.6064 
L 382.127348 233.668361 
L 382.736075 233.575419 
L 382.918693 233.482475 
L 382.918693 233.482475 
" style="fill:none;stroke:#0000ff;stroke-linecap:square;stroke-width:1.5;"/>
   </g>
   <g id="line2d_26">
    <path clip-path="url(#pc5f54e4edf)" d="M 78.555057 155.551569 
L 78.828984 155.58255 
L 78.981166 155.567059 
L 79.19422 155.567059 
L 79.468148 155.536079 
L 79.650766 155.567059 
L 79.924693 155.551569 
L 80.19862 155.567059 
L 84.55102 155.660001 
L 84.703202 155.690981 
L 84.855384 155.690981 
L 85.159748 155.660001 
L 85.433675 155.675491 
L 100.651857 155.783923 
L 101.199711 155.954315 
L 101.321457 155.985296 
L 101.595384 156.109218 
L 102.508475 156.697847 
L 103.63462 157.983537 
L 105.704293 162.444726 
L 107.98702 169.771611 
L 110.452366 178.151832 
L 110.817602 179.143208 
L 111.608948 181.218898 
L 112.00462 181.993412 
L 112.369857 182.767923 
L 113.00902 183.82126 
L 113.830802 184.50283 
L 114.378657 184.657733 
L 114.68302 184.564791 
L 116.052657 183.015767 
L 116.600511 181.652625 
L 117.330984 179.545954 
L 118.183202 176.15359 
L 119.218039 171.475538 
L 120.03982 167.200231 
L 121.47033 158.572166 
L 122.444293 151.973323 
L 124.605275 136.32818 
L 126.705384 123.145984 
L 128.805493 112.008498 
L 129.627275 108.368291 
L 131.301275 103.597299 
L 131.970875 102.001804 
L 132.670911 100.220427 
L 133.249202 99.275522 
L 133.43182 98.950227 
L 133.979675 98.082773 
L 134.618839 97.587086 
L 134.831893 97.370225 
L 135.471057 96.564732 
L 135.653675 96.471788 
L 135.836293 96.394339 
L 137.236366 95.805708 
L 137.510293 95.929627 
L 138.332075 96.456295 
L 139.032111 98.129242 
L 139.732148 100.204936 
L 140.310439 102.327097 
L 141.071348 105.301228 
L 141.862693 108.956923 
L 144.14542 123.579711 
L 145.667239 135.212883 
L 147.949966 155.923335 
L 153.51982 208.714075 
L 154.341602 214.894684 
L 155.893857 224.436673 
L 156.806948 228.541589 
L 158.237457 232.553557 
L 159.485348 233.668854 
L 159.759275 233.699837 
L 160.459311 233.219637 
L 161.037602 232.491601 
L 161.615893 231.066496 
L 162.407239 228.75845 
L 163.350766 224.452165 
L 164.507348 217.357635 
L 165.511748 209.98428 
L 166.394402 202.425037 
L 171.112039 160.198641 
L 172.999093 146.64468 
L 175.190511 134.996018 
L 175.920984 132.780914 
L 176.742766 130.968556 
L 177.503675 130.348946 
L 177.838475 130.302475 
L 178.142839 130.5813 
L 179.360293 132.641502 
L 180.182075 134.562293 
L 181.338657 137.784262 
L 182.525675 143.066434 
L 184.838839 155.412157 
L 185.721493 159.950798 
L 186.391093 163.110807 
L 186.908511 165.341402 
L 187.42593 167.633957 
L 188.521639 171.940245 
L 189.43473 175.208686 
L 190.043457 177.052024 
L 190.43913 177.903988 
L 190.804366 178.399675 
L 191.77833 179.236148 
L 192.660984 179.809288 
L 192.934911 180.041641 
L 193.330584 180.119091 
L 193.543639 180.02615 
L 194.061057 179.638895 
L 194.213239 179.545954 
L 194.882839 178.724971 
L 195.46113 177.795555 
L 196.46553 176.076139 
L 197.13513 174.387703 
L 197.774293 172.466913 
L 199.326548 165.697677 
L 200.270075 159.795895 
L 201.944075 147.992331 
L 203.557202 135.708569 
L 205.292075 121.62794 
L 206.296475 115.245961 
L 208.883566 100.127488 
L 210.10102 94.489037 
L 211.257602 90.771379 
L 211.805457 89.67157 
L 212.322875 89.082946 
L 213.11422 88.432353 
L 213.418584 88.401372 
L 213.78382 88.494316 
L 213.966439 88.525297 
L 214.757784 89.051965 
L 215.640439 90.600987 
L 216.523093 93.141389 
L 218.349275 100.019051 
L 219.47542 105.177304 
L 222.458184 119.350875 
L 226.84102 141.083683 
L 227.571493 144.522517 
L 232.95873 169.69416 
L 234.784911 180.537328 
L 237.676366 197.514633 
L 238.31553 200.566211 
L 238.924257 203.091117 
L 239.593857 205.368188 
L 240.56782 208.140939 
L 241.23742 209.829375 
L 241.846148 211.099577 
L 243.824511 213.934291 
L 243.976693 214.120172 
L 244.737602 215.096057 
L 244.889784 215.297433 
L 246.533348 216.815474 
L 247.35513 217.109791 
L 247.537748 217.140766 
L 249.090002 217.032335 
L 249.69873 216.846454 
L 250.063966 216.75351 
L 250.307457 216.645079 
L 253.929384 216.72253 
L 254.142439 216.846454 
L 255.39033 217.605476 
L 255.938184 218.00822 
L 256.72953 218.534888 
L 258.829639 220.517642 
L 259.590548 220.780978 
L 260.290584 220.672546 
L 260.838439 220.285285 
L 262.116766 218.132144 
L 262.390693 217.357635 
L 263.577711 212.741543 
L 264.490802 208.078978 
L 265.67782 200.147974 
L 266.408293 193.765995 
L 268.295348 173.458289 
L 270.578075 143.019964 
L 272.830366 109.344179 
L 276.360984 58.845994 
L 277.700184 43.804967 
L 278.461093 36.803381 
L 279.556802 29.259626 
L 280.195966 26.00668 
L 280.83513 23.869024 
L 281.322111 22.738241 
L 281.869966 22.335493 
L 282.143893 22.443924 
L 282.448257 22.707256 
L 283.026548 23.776085 
L 283.42222 25.077268 
L 284.609239 30.979052 
L 285.76582 39.359268 
L 286.800657 48.684391 
L 287.805057 59.419128 
L 290.605202 94.969235 
L 293.587966 134.438369 
L 295.079348 152.035284 
L 297.544693 178.430656 
L 300.040475 201.526608 
L 301.714475 214.275072 
L 303.358039 224.436673 
L 304.027639 227.271384 
L 304.910293 229.625906 
L 305.94513 231.515713 
L 306.158184 231.748064 
L 306.645166 232.383169 
L 306.94953 232.754932 
L 307.558257 232.940818 
L 308.28873 232.832381 
L 310.20622 230.725711 
L 310.906257 229.471001 
L 312.336766 225.536482 
L 313.249857 221.896276 
L 314.041202 217.791359 
L 317.084839 198.536989 
L 321.711166 166.348268 
L 324.237384 152.794306 
L 324.815675 150.331357 
L 326.70273 143.097415 
L 328.254984 139.441717 
L 329.594184 137.598379 
L 330.324657 137.102692 
L 330.62902 136.947789 
L 332.120402 137.025239 
L 332.30302 137.102692 
L 332.485639 137.211123 
L 334.372693 138.279949 
L 334.585748 138.465833 
L 335.285784 139.023482 
L 335.894511 139.457208 
L 336.198875 139.612111 
L 337.172839 139.519169 
L 337.446766 139.379756 
L 337.568511 139.317796 
L 338.177239 138.88407 
L 339.820802 137.05622 
L 341.860039 133.756798 
L 342.194839 133.090718 
L 342.529639 132.393658 
L 343.68622 129.744827 
L 344.234075 128.706981 
L 344.842802 127.715605 
L 345.147166 127.436781 
L 345.847202 126.879132 
L 348.190802 125.810305 
L 348.616911 125.903247 
L 348.829966 126.027169 
L 349.073457 126.12011 
L 350.412657 127.638154 
L 351.173566 129.001295 
L 352.695384 133.168171 
L 354.643311 140.495054 
L 356.530366 149.649787 
L 357.230402 152.964698 
L 357.900002 156.124708 
L 358.873966 160.957664 
L 360.243602 166.751014 
L 361.156693 169.895533 
L 362.708948 175.022803 
L 363.348111 176.928103 
L 363.743784 177.981438 
L 364.017711 178.601049 
L 364.839493 180.397916 
L 366.026511 182.566549 
L 366.635239 183.294591 
L 367.21353 183.464984 
L 368.400548 183.356552 
L 369.22233 182.814394 
L 369.89193 181.606156 
L 371.078948 178.306734 
L 371.90073 175.766335 
L 372.265966 174.774958 
L 373.361675 171.274165 
L 373.970402 169.05906 
L 376.131384 160.957664 
L 378.140184 152.252148 
L 378.688039 149.913121 
L 380.148984 143.732515 
L 382.736075 133.648367 
L 382.918693 133.013268 
L 382.918693 133.013268 
" style="fill:none;stroke:#ff0000;stroke-linecap:square;stroke-width:1.5;"/>
   </g>
   <g id="line2d_27">
    <path clip-path="url(#pc5f54e4edf)" d="M 127.983711 164.086196 
" style="fill:none;stroke:#ffffff;stroke-linecap:square;stroke-width:1.5;"/>
    <defs>
     <path d="M 0 -5 
L -1.12257 -1.545085 
L -4.755283 -1.545085 
L -1.816356 0.59017 
L -2.938926 4.045085 
L -0 1.90983 
L 2.938926 4.045085 
L 1.816356 0.59017 
L 4.755283 -1.545085 
L 1.12257 -1.545085 
z
" id="mcf21b3ac67" style="stroke:#ffffff;stroke-linejoin:bevel;"/>
    </defs>
    <g clip-path="url(#pc5f54e4edf)">
     <use style="fill:#0000ff;stroke:#ffffff;stroke-linejoin:bevel;" x="127.983711" xlink:href="#mcf21b3ac67" y="164.086196"/>
    </g>
   </g>
   <g id="line2d_28">
    <path clip-path="url(#pc5f54e4edf)" d="M 105.64342 162.289824 
" style="fill:none;stroke:#ffffff;stroke-linecap:square;stroke-width:1.5;"/>
    <defs>
     <path d="M 0 -5 
L -1.12257 -1.545085 
L -4.755283 -1.545085 
L -1.816356 0.59017 
L -2.938926 4.045085 
L -0 1.90983 
L 2.938926 4.045085 
L 1.816356 0.59017 
L 4.755283 -1.545085 
L 1.12257 -1.545085 
z
" id="m578d3b7756" style="stroke:#ffffff;stroke-linejoin:bevel;"/>
    </defs>
    <g clip-path="url(#pc5f54e4edf)">
     <use style="fill:#ff0000;stroke:#ffffff;stroke-linejoin:bevel;" x="105.64342" xlink:href="#m578d3b7756" y="162.289824"/>
    </g>
   </g>
   <g id="patch_3">
    <path d="M 63.336875 339.84 
L 63.336875 7.2 
" style="fill:none;stroke:#000000;stroke-linecap:square;stroke-linejoin:miter;stroke-width:0.8;"/>
   </g>
   <g id="patch_4">
    <path d="M 398.136875 339.84 
L 398.136875 7.2 
" style="fill:none;stroke:#000000;stroke-linecap:square;stroke-linejoin:miter;stroke-width:0.8;"/>
   </g>
   <g id="patch_5">
    <path d="M 63.336875 339.84 
L 398.136875 339.84 
" style="fill:none;stroke:#000000;stroke-linecap:square;stroke-linejoin:miter;stroke-width:0.8;"/>
   </g>
   <g id="patch_6">
    <path d="M 63.336875 7.2 
L 398.136875 7.2 
" style="fill:none;stroke:#000000;stroke-linecap:square;stroke-linejoin:miter;stroke-width:0.8;"/>
   </g>
   <g id="text_15">
    <g id="patch_7">
     <path d="M 75.036875 331.242688 
L 166.79375 331.242688 
L 166.79375 293.760312 
L 75.036875 293.760312 
z
" style="fill:#ffffff;stroke:#000000;stroke-linejoin:miter;stroke-width:0.75;"/>
    </g>
    <!-- Auto_00056 -->
    <g transform="translate(80.076875 308.521562)scale(0.14 -0.14)">
     <defs>
      <path d="M 2928 1419 
L 1288 1419 
L 1000 750 
Q 894 503 894 381 
Q 894 284 986 211 
Q 1078 138 1384 116 
L 1384 0 
L 50 0 
L 50 116 
Q 316 163 394 238 
Q 553 388 747 847 
L 2238 4334 
L 2347 4334 
L 3822 809 
Q 4000 384 4145 257 
Q 4291 131 4550 116 
L 4550 0 
L 2878 0 
L 2878 116 
Q 3131 128 3220 200 
Q 3309 272 3309 375 
Q 3309 513 3184 809 
L 2928 1419 
z
M 2841 1650 
L 2122 3363 
L 1384 1650 
L 2841 1650 
z
" id="TimesNewRomanPSMT-41" transform="scale(0.015625)"/>
      <path d="M 2709 2863 
L 2709 1128 
Q 2709 631 2732 520 
Q 2756 409 2807 365 
Q 2859 322 2928 322 
Q 3025 322 3147 375 
L 3191 266 
L 2334 -88 
L 2194 -88 
L 2194 519 
Q 1825 119 1631 15 
Q 1438 -88 1222 -88 
Q 981 -88 804 51 
Q 628 191 559 409 
Q 491 628 491 1028 
L 491 2306 
Q 491 2509 447 2587 
Q 403 2666 317 2708 
Q 231 2750 6 2747 
L 6 2863 
L 1009 2863 
L 1009 947 
Q 1009 547 1148 422 
Q 1288 297 1484 297 
Q 1619 297 1789 381 
Q 1959 466 2194 703 
L 2194 2325 
Q 2194 2569 2105 2655 
Q 2016 2741 1734 2747 
L 1734 2863 
L 2709 2863 
z
" id="TimesNewRomanPSMT-75" transform="scale(0.015625)"/>
      <path d="M 3256 -1381 
L -53 -1381 
L -53 -1119 
L 3256 -1119 
L 3256 -1381 
z
" id="TimesNewRomanPSMT-5f" transform="scale(0.015625)"/>
     </defs>
     <use xlink:href="#TimesNewRomanPSMT-41"/>
     <use x="72.216797" xlink:href="#TimesNewRomanPSMT-75"/>
     <use x="122.216797" xlink:href="#TimesNewRomanPSMT-74"/>
     <use x="150" xlink:href="#TimesNewRomanPSMT-6f"/>
     <use x="200" xlink:href="#TimesNewRomanPSMT-5f"/>
     <use x="250" xlink:href="#TimesNewRomanPSMT-30"/>
     <use x="300" xlink:href="#TimesNewRomanPSMT-30"/>
     <use x="350" xlink:href="#TimesNewRomanPSMT-30"/>
     <use x="400" xlink:href="#TimesNewRomanPSMT-35"/>
     <use x="450" xlink:href="#TimesNewRomanPSMT-36"/>
    </g>
    <!-- Vs: 272.34m/s -->
    <g transform="translate(80.076875 323.208)scale(0.14 -0.14)">
     <defs>
      <path d="M 903 2950 
Q 1047 2950 1148 2848 
Q 1250 2747 1250 2603 
Q 1250 2459 1148 2357 
Q 1047 2256 903 2256 
Q 759 2256 657 2357 
Q 556 2459 556 2603 
Q 556 2747 657 2848 
Q 759 2950 903 2950 
z
M 897 609 
Q 1044 609 1145 506 
Q 1247 403 1247 259 
Q 1247 116 1144 14 
Q 1041 -88 897 -88 
Q 753 -88 651 14 
Q 550 116 550 259 
Q 550 403 651 506 
Q 753 609 897 609 
z
" id="TimesNewRomanPSMT-3a" transform="scale(0.015625)"/>
      <path d="M 644 4238 
L 2916 4238 
L 2916 4119 
L 1503 -88 
L 1153 -88 
L 2419 3728 
L 1253 3728 
Q 900 3728 750 3644 
Q 488 3500 328 3200 
L 238 3234 
L 644 4238 
z
" id="TimesNewRomanPSMT-37" transform="scale(0.015625)"/>
      <path d="M 1794 4444 
L 259 -88 
L 9 -88 
L 1544 4444 
L 1794 4444 
z
" id="TimesNewRomanPSMT-2f" transform="scale(0.015625)"/>
     </defs>
     <use xlink:href="#TimesNewRomanPSMT-56"/>
     <use x="72.216797" xlink:href="#TimesNewRomanPSMT-73"/>
     <use x="111.132812" xlink:href="#TimesNewRomanPSMT-3a"/>
     <use x="138.916016" xlink:href="#TimesNewRomanPSMT-20"/>
     <use x="163.916016" xlink:href="#TimesNewRomanPSMT-32"/>
     <use x="213.916016" xlink:href="#TimesNewRomanPSMT-37"/>
     <use x="263.916016" xlink:href="#TimesNewRomanPSMT-32"/>
     <use x="313.916016" xlink:href="#TimesNewRomanPSMT-2e"/>
     <use x="338.916016" xlink:href="#TimesNewRomanPSMT-33"/>
     <use x="388.916016" xlink:href="#TimesNewRomanPSMT-34"/>
     <use x="438.916016" xlink:href="#TimesNewRomanPSMT-6d"/>
     <use x="516.699219" xlink:href="#TimesNewRomanPSMT-2f"/>
     <use x="544.482422" xlink:href="#TimesNewRomanPSMT-73"/>
    </g>
   </g>
  </g>
 </g>
 <defs>
  <clipPath id="pc5f54e4edf">
   <rect height="332.64" width="334.8" x="63.336875" y="7.2"/>
  </clipPath>
 </defs>
</svg>
