<?xml version="1.0" encoding="utf-8" standalone="no"?>
<!DOCTYPE svg PUBLIC "-//W3C//DTD SVG 1.1//EN"
  "http://www.w3.org/Graphics/SVG/1.1/DTD/svg11.dtd">
<svg height="383.471875pt" version="1.1" viewBox="0 0 421.086875 383.471875" width="421.086875pt" xmlns="http://www.w3.org/2000/svg" xmlns:xlink="http://www.w3.org/1999/xlink">
 <metadata>
  <rdf:RDF xmlns:cc="http://creativecommons.org/ns#" xmlns:dc="http://purl.org/dc/elements/1.1/" xmlns:rdf="http://www.w3.org/1999/02/22-rdf-syntax-ns#">
   <cc:Work>
    <dc:type rdf:resource="http://purl.org/dc/dcmitype/StillImage"/>
    <dc:date>2021-06-11T14:39:39.354079</dc:date>
    <dc:format>image/svg+xml</dc:format>
    <dc:creator>
     <cc:Agent>
      <dc:title>Matplotlib v3.4.2, https://matplotlib.org/</dc:title>
     </cc:Agent>
    </dc:creator>
   </cc:Work>
  </rdf:RDF>
 </metadata>
 <defs>
  <style type="text/css">*{stroke-linecap:butt;stroke-linejoin:round;}</style>
 </defs>
 <g id="figure_1">
  <g id="patch_1">
   <path d="M 0 383.471875 
L 421.086875 383.471875 
L 421.086875 0 
L 0 0 
z
" style="fill:#ffffff;"/>
  </g>
  <g id="axes_1">
   <g id="patch_2">
    <path d="M 63.336875 339.84 
L 398.136875 339.84 
L 398.136875 7.2 
L 63.336875 7.2 
z
" style="fill:#ffffff;"/>
   </g>
   <g id="matplotlib.axis_1">
    <g id="xtick_1">
     <g id="line2d_1">
      <path clip-path="url(#p9cdda84b0e)" d="M 93.773239 339.84 
L 93.773239 7.2 
" style="fill:none;stroke:#000000;stroke-dasharray:0.5,0.825;stroke-dashoffset:0;stroke-width:0.5;"/>
     </g>
     <g id="line2d_2">
      <defs>
       <path d="M 0 0 
L 0 3.5 
" id="mf56901a93d" style="stroke:#000000;stroke-width:0.8;"/>
      </defs>
      <g>
       <use style="stroke:#000000;stroke-width:0.8;" x="93.773239" xlink:href="#mf56901a93d" y="339.84"/>
      </g>
     </g>
     <g id="text_1">
      <!-- 0.000 -->
      <g transform="translate(78.023239 356.56125)scale(0.14 -0.14)">
       <defs>
        <path d="M 231 2094 
Q 231 2819 450 3342 
Q 669 3866 1031 4122 
Q 1313 4325 1613 4325 
Q 2100 4325 2488 3828 
Q 2972 3213 2972 2159 
Q 2972 1422 2759 906 
Q 2547 391 2217 158 
Q 1888 -75 1581 -75 
Q 975 -75 572 641 
Q 231 1244 231 2094 
z
M 844 2016 
Q 844 1141 1059 588 
Q 1238 122 1591 122 
Q 1759 122 1940 273 
Q 2122 425 2216 781 
Q 2359 1319 2359 2297 
Q 2359 3022 2209 3506 
Q 2097 3866 1919 4016 
Q 1791 4119 1609 4119 
Q 1397 4119 1231 3928 
Q 1006 3669 925 3112 
Q 844 2556 844 2016 
z
" id="TimesNewRomanPSMT-30" transform="scale(0.015625)"/>
        <path d="M 800 606 
Q 947 606 1047 504 
Q 1147 403 1147 259 
Q 1147 116 1045 14 
Q 944 -88 800 -88 
Q 656 -88 554 14 
Q 453 116 453 259 
Q 453 406 554 506 
Q 656 606 800 606 
z
" id="TimesNewRomanPSMT-2e" transform="scale(0.015625)"/>
       </defs>
       <use xlink:href="#TimesNewRomanPSMT-30"/>
       <use x="50" xlink:href="#TimesNewRomanPSMT-2e"/>
       <use x="75" xlink:href="#TimesNewRomanPSMT-30"/>
       <use x="125" xlink:href="#TimesNewRomanPSMT-30"/>
       <use x="175" xlink:href="#TimesNewRomanPSMT-30"/>
      </g>
     </g>
    </g>
    <g id="xtick_2">
     <g id="line2d_3">
      <path clip-path="url(#p9cdda84b0e)" d="M 154.645966 339.84 
L 154.645966 7.2 
" style="fill:none;stroke:#000000;stroke-dasharray:0.5,0.825;stroke-dashoffset:0;stroke-width:0.5;"/>
     </g>
     <g id="line2d_4">
      <g>
       <use style="stroke:#000000;stroke-width:0.8;" x="154.645966" xlink:href="#mf56901a93d" y="339.84"/>
      </g>
     </g>
     <g id="text_2">
      <!-- 0.001 -->
      <g transform="translate(138.895966 356.56125)scale(0.14 -0.14)">
       <defs>
        <path d="M 750 3822 
L 1781 4325 
L 1884 4325 
L 1884 747 
Q 1884 391 1914 303 
Q 1944 216 2037 169 
Q 2131 122 2419 116 
L 2419 0 
L 825 0 
L 825 116 
Q 1125 122 1212 167 
Q 1300 213 1334 289 
Q 1369 366 1369 747 
L 1369 3034 
Q 1369 3497 1338 3628 
Q 1316 3728 1258 3775 
Q 1200 3822 1119 3822 
Q 1003 3822 797 3725 
L 750 3822 
z
" id="TimesNewRomanPSMT-31" transform="scale(0.015625)"/>
       </defs>
       <use xlink:href="#TimesNewRomanPSMT-30"/>
       <use x="50" xlink:href="#TimesNewRomanPSMT-2e"/>
       <use x="75" xlink:href="#TimesNewRomanPSMT-30"/>
       <use x="125" xlink:href="#TimesNewRomanPSMT-30"/>
       <use x="175" xlink:href="#TimesNewRomanPSMT-31"/>
      </g>
     </g>
    </g>
    <g id="xtick_3">
     <g id="line2d_5">
      <path clip-path="url(#p9cdda84b0e)" d="M 215.518693 339.84 
L 215.518693 7.2 
" style="fill:none;stroke:#000000;stroke-dasharray:0.5,0.825;stroke-dashoffset:0;stroke-width:0.5;"/>
     </g>
     <g id="line2d_6">
      <g>
       <use style="stroke:#000000;stroke-width:0.8;" x="215.518693" xlink:href="#mf56901a93d" y="339.84"/>
      </g>
     </g>
     <g id="text_3">
      <!-- 0.002 -->
      <g transform="translate(199.768693 356.56125)scale(0.14 -0.14)">
       <defs>
        <path d="M 2934 816 
L 2638 0 
L 138 0 
L 138 116 
Q 1241 1122 1691 1759 
Q 2141 2397 2141 2925 
Q 2141 3328 1894 3587 
Q 1647 3847 1303 3847 
Q 991 3847 742 3664 
Q 494 3481 375 3128 
L 259 3128 
Q 338 3706 661 4015 
Q 984 4325 1469 4325 
Q 1984 4325 2329 3994 
Q 2675 3663 2675 3213 
Q 2675 2891 2525 2569 
Q 2294 2063 1775 1497 
Q 997 647 803 472 
L 1909 472 
Q 2247 472 2383 497 
Q 2519 522 2628 598 
Q 2738 675 2819 816 
L 2934 816 
z
" id="TimesNewRomanPSMT-32" transform="scale(0.015625)"/>
       </defs>
       <use xlink:href="#TimesNewRomanPSMT-30"/>
       <use x="50" xlink:href="#TimesNewRomanPSMT-2e"/>
       <use x="75" xlink:href="#TimesNewRomanPSMT-30"/>
       <use x="125" xlink:href="#TimesNewRomanPSMT-30"/>
       <use x="175" xlink:href="#TimesNewRomanPSMT-32"/>
      </g>
     </g>
    </g>
    <g id="xtick_4">
     <g id="line2d_7">
      <path clip-path="url(#p9cdda84b0e)" d="M 276.39142 339.84 
L 276.39142 7.2 
" style="fill:none;stroke:#000000;stroke-dasharray:0.5,0.825;stroke-dashoffset:0;stroke-width:0.5;"/>
     </g>
     <g id="line2d_8">
      <g>
       <use style="stroke:#000000;stroke-width:0.8;" x="276.39142" xlink:href="#mf56901a93d" y="339.84"/>
      </g>
     </g>
     <g id="text_4">
      <!-- 0.003 -->
      <g transform="translate(260.64142 356.56125)scale(0.14 -0.14)">
       <defs>
        <path d="M 325 3431 
Q 506 3859 782 4092 
Q 1059 4325 1472 4325 
Q 1981 4325 2253 3994 
Q 2459 3747 2459 3466 
Q 2459 3003 1878 2509 
Q 2269 2356 2469 2072 
Q 2669 1788 2669 1403 
Q 2669 853 2319 450 
Q 1863 -75 997 -75 
Q 569 -75 414 31 
Q 259 138 259 259 
Q 259 350 332 419 
Q 406 488 509 488 
Q 588 488 669 463 
Q 722 447 909 348 
Q 1097 250 1169 231 
Q 1284 197 1416 197 
Q 1734 197 1970 444 
Q 2206 691 2206 1028 
Q 2206 1275 2097 1509 
Q 2016 1684 1919 1775 
Q 1784 1900 1550 2001 
Q 1316 2103 1072 2103 
L 972 2103 
L 972 2197 
Q 1219 2228 1467 2375 
Q 1716 2522 1828 2728 
Q 1941 2934 1941 3181 
Q 1941 3503 1739 3701 
Q 1538 3900 1238 3900 
Q 753 3900 428 3381 
L 325 3431 
z
" id="TimesNewRomanPSMT-33" transform="scale(0.015625)"/>
       </defs>
       <use xlink:href="#TimesNewRomanPSMT-30"/>
       <use x="50" xlink:href="#TimesNewRomanPSMT-2e"/>
       <use x="75" xlink:href="#TimesNewRomanPSMT-30"/>
       <use x="125" xlink:href="#TimesNewRomanPSMT-30"/>
       <use x="175" xlink:href="#TimesNewRomanPSMT-33"/>
      </g>
     </g>
    </g>
    <g id="xtick_5">
     <g id="line2d_9">
      <path clip-path="url(#p9cdda84b0e)" d="M 337.264148 339.84 
L 337.264148 7.2 
" style="fill:none;stroke:#000000;stroke-dasharray:0.5,0.825;stroke-dashoffset:0;stroke-width:0.5;"/>
     </g>
     <g id="line2d_10">
      <g>
       <use style="stroke:#000000;stroke-width:0.8;" x="337.264148" xlink:href="#mf56901a93d" y="339.84"/>
      </g>
     </g>
     <g id="text_5">
      <!-- 0.004 -->
      <g transform="translate(321.514148 356.56125)scale(0.14 -0.14)">
       <defs>
        <path d="M 2978 1563 
L 2978 1119 
L 2409 1119 
L 2409 0 
L 1894 0 
L 1894 1119 
L 100 1119 
L 100 1519 
L 2066 4325 
L 2409 4325 
L 2409 1563 
L 2978 1563 
z
M 1894 1563 
L 1894 3666 
L 406 1563 
L 1894 1563 
z
" id="TimesNewRomanPSMT-34" transform="scale(0.015625)"/>
       </defs>
       <use xlink:href="#TimesNewRomanPSMT-30"/>
       <use x="50" xlink:href="#TimesNewRomanPSMT-2e"/>
       <use x="75" xlink:href="#TimesNewRomanPSMT-30"/>
       <use x="125" xlink:href="#TimesNewRomanPSMT-30"/>
       <use x="175" xlink:href="#TimesNewRomanPSMT-34"/>
      </g>
     </g>
    </g>
    <g id="xtick_6">
     <g id="line2d_11">
      <path clip-path="url(#p9cdda84b0e)" d="M 398.136875 339.84 
L 398.136875 7.2 
" style="fill:none;stroke:#000000;stroke-dasharray:0.5,0.825;stroke-dashoffset:0;stroke-width:0.5;"/>
     </g>
     <g id="line2d_12">
      <g>
       <use style="stroke:#000000;stroke-width:0.8;" x="398.136875" xlink:href="#mf56901a93d" y="339.84"/>
      </g>
     </g>
     <g id="text_6">
      <!-- 0.005 -->
      <g transform="translate(382.386875 356.56125)scale(0.14 -0.14)">
       <defs>
        <path d="M 2778 4238 
L 2534 3706 
L 1259 3706 
L 981 3138 
Q 1809 3016 2294 2522 
Q 2709 2097 2709 1522 
Q 2709 1188 2573 903 
Q 2438 619 2231 419 
Q 2025 219 1772 97 
Q 1413 -75 1034 -75 
Q 653 -75 479 54 
Q 306 184 306 341 
Q 306 428 378 495 
Q 450 563 559 563 
Q 641 563 702 538 
Q 763 513 909 409 
Q 1144 247 1384 247 
Q 1750 247 2026 523 
Q 2303 800 2303 1197 
Q 2303 1581 2056 1914 
Q 1809 2247 1375 2428 
Q 1034 2569 447 2591 
L 1259 4238 
L 2778 4238 
z
" id="TimesNewRomanPSMT-35" transform="scale(0.015625)"/>
       </defs>
       <use xlink:href="#TimesNewRomanPSMT-30"/>
       <use x="50" xlink:href="#TimesNewRomanPSMT-2e"/>
       <use x="75" xlink:href="#TimesNewRomanPSMT-30"/>
       <use x="125" xlink:href="#TimesNewRomanPSMT-30"/>
       <use x="175" xlink:href="#TimesNewRomanPSMT-35"/>
      </g>
     </g>
    </g>
    <g id="text_7">
     <!-- Time (sec) -->
     <g transform="translate(200.858906 373.277188)scale(0.14 -0.14)">
      <defs>
       <path d="M 3703 4238 
L 3750 3244 
L 3631 3244 
Q 3597 3506 3538 3619 
Q 3441 3800 3280 3886 
Q 3119 3972 2856 3972 
L 2259 3972 
L 2259 734 
Q 2259 344 2344 247 
Q 2463 116 2709 116 
L 2856 116 
L 2856 0 
L 1059 0 
L 1059 116 
L 1209 116 
Q 1478 116 1591 278 
Q 1659 378 1659 734 
L 1659 3972 
L 1150 3972 
Q 853 3972 728 3928 
Q 566 3869 450 3700 
Q 334 3531 313 3244 
L 194 3244 
L 244 4238 
L 3703 4238 
z
" id="TimesNewRomanPSMT-54" transform="scale(0.015625)"/>
       <path d="M 928 4444 
Q 1059 4444 1151 4351 
Q 1244 4259 1244 4128 
Q 1244 3997 1151 3903 
Q 1059 3809 928 3809 
Q 797 3809 703 3903 
Q 609 3997 609 4128 
Q 609 4259 701 4351 
Q 794 4444 928 4444 
z
M 1188 2947 
L 1188 647 
Q 1188 378 1227 289 
Q 1266 200 1342 156 
Q 1419 113 1622 113 
L 1622 0 
L 231 0 
L 231 113 
Q 441 113 512 153 
Q 584 194 626 287 
Q 669 381 669 647 
L 669 1750 
Q 669 2216 641 2353 
Q 619 2453 572 2492 
Q 525 2531 444 2531 
Q 356 2531 231 2484 
L 188 2597 
L 1050 2947 
L 1188 2947 
z
" id="TimesNewRomanPSMT-69" transform="scale(0.015625)"/>
       <path d="M 1050 2338 
Q 1363 2650 1419 2697 
Q 1559 2816 1721 2881 
Q 1884 2947 2044 2947 
Q 2313 2947 2506 2790 
Q 2700 2634 2766 2338 
Q 3088 2713 3309 2830 
Q 3531 2947 3766 2947 
Q 3994 2947 4170 2830 
Q 4347 2713 4450 2447 
Q 4519 2266 4519 1878 
L 4519 647 
Q 4519 378 4559 278 
Q 4591 209 4675 161 
Q 4759 113 4950 113 
L 4950 0 
L 3538 0 
L 3538 113 
L 3597 113 
Q 3781 113 3884 184 
Q 3956 234 3988 344 
Q 4000 397 4000 647 
L 4000 1878 
Q 4000 2228 3916 2372 
Q 3794 2572 3525 2572 
Q 3359 2572 3192 2489 
Q 3025 2406 2788 2181 
L 2781 2147 
L 2788 2013 
L 2788 647 
Q 2788 353 2820 281 
Q 2853 209 2943 161 
Q 3034 113 3253 113 
L 3253 0 
L 1806 0 
L 1806 113 
Q 2044 113 2133 169 
Q 2222 225 2256 338 
Q 2272 391 2272 647 
L 2272 1878 
Q 2272 2228 2169 2381 
Q 2031 2581 1784 2581 
Q 1616 2581 1450 2491 
Q 1191 2353 1050 2181 
L 1050 647 
Q 1050 366 1089 281 
Q 1128 197 1204 155 
Q 1281 113 1516 113 
L 1516 0 
L 100 0 
L 100 113 
Q 297 113 375 155 
Q 453 197 493 289 
Q 534 381 534 647 
L 534 1741 
Q 534 2213 506 2350 
Q 484 2453 437 2492 
Q 391 2531 309 2531 
Q 222 2531 100 2484 
L 53 2597 
L 916 2947 
L 1050 2947 
L 1050 2338 
z
" id="TimesNewRomanPSMT-6d" transform="scale(0.015625)"/>
       <path d="M 681 1784 
Q 678 1147 991 784 
Q 1303 422 1725 422 
Q 2006 422 2214 576 
Q 2422 731 2563 1106 
L 2659 1044 
Q 2594 616 2278 264 
Q 1963 -88 1488 -88 
Q 972 -88 605 314 
Q 238 716 238 1394 
Q 238 2128 614 2539 
Q 991 2950 1559 2950 
Q 2041 2950 2350 2633 
Q 2659 2316 2659 1784 
L 681 1784 
z
M 681 1966 
L 2006 1966 
Q 1991 2241 1941 2353 
Q 1863 2528 1708 2628 
Q 1553 2728 1384 2728 
Q 1125 2728 920 2526 
Q 716 2325 681 1966 
z
" id="TimesNewRomanPSMT-65" transform="scale(0.015625)"/>
       <path id="TimesNewRomanPSMT-20" transform="scale(0.015625)"/>
       <path d="M 1988 -1253 
L 1988 -1369 
Q 1516 -1131 1200 -813 
Q 750 -359 506 256 
Q 263 872 263 1534 
Q 263 2503 741 3301 
Q 1219 4100 1988 4444 
L 1988 4313 
Q 1603 4100 1356 3731 
Q 1109 3363 987 2797 
Q 866 2231 866 1616 
Q 866 947 969 400 
Q 1050 -31 1165 -292 
Q 1281 -553 1476 -793 
Q 1672 -1034 1988 -1253 
z
" id="TimesNewRomanPSMT-28" transform="scale(0.015625)"/>
       <path d="M 2050 2947 
L 2050 1972 
L 1947 1972 
Q 1828 2431 1642 2597 
Q 1456 2763 1169 2763 
Q 950 2763 815 2647 
Q 681 2531 681 2391 
Q 681 2216 781 2091 
Q 878 1963 1175 1819 
L 1631 1597 
Q 2266 1288 2266 781 
Q 2266 391 1970 151 
Q 1675 -88 1309 -88 
Q 1047 -88 709 6 
Q 606 38 541 38 
Q 469 38 428 -44 
L 325 -44 
L 325 978 
L 428 978 
Q 516 541 762 319 
Q 1009 97 1316 97 
Q 1531 97 1667 223 
Q 1803 350 1803 528 
Q 1803 744 1651 891 
Q 1500 1038 1047 1263 
Q 594 1488 453 1669 
Q 313 1847 313 2119 
Q 313 2472 555 2709 
Q 797 2947 1181 2947 
Q 1350 2947 1591 2875 
Q 1750 2828 1803 2828 
Q 1853 2828 1881 2850 
Q 1909 2872 1947 2947 
L 2050 2947 
z
" id="TimesNewRomanPSMT-73" transform="scale(0.015625)"/>
       <path d="M 2631 1088 
Q 2516 522 2178 217 
Q 1841 -88 1431 -88 
Q 944 -88 581 321 
Q 219 731 219 1428 
Q 219 2103 620 2525 
Q 1022 2947 1584 2947 
Q 2006 2947 2278 2723 
Q 2550 2500 2550 2259 
Q 2550 2141 2473 2067 
Q 2397 1994 2259 1994 
Q 2075 1994 1981 2113 
Q 1928 2178 1911 2362 
Q 1894 2547 1784 2644 
Q 1675 2738 1481 2738 
Q 1169 2738 978 2506 
Q 725 2200 725 1697 
Q 725 1184 976 792 
Q 1228 400 1656 400 
Q 1963 400 2206 609 
Q 2378 753 2541 1131 
L 2631 1088 
z
" id="TimesNewRomanPSMT-63" transform="scale(0.015625)"/>
       <path d="M 144 4313 
L 144 4444 
Q 619 4209 934 3891 
Q 1381 3434 1625 2820 
Q 1869 2206 1869 1541 
Q 1869 572 1392 -226 
Q 916 -1025 144 -1369 
L 144 -1253 
Q 528 -1038 776 -670 
Q 1025 -303 1145 264 
Q 1266 831 1266 1447 
Q 1266 2113 1163 2663 
Q 1084 3094 967 3353 
Q 850 3613 656 3853 
Q 463 4094 144 4313 
z
" id="TimesNewRomanPSMT-29" transform="scale(0.015625)"/>
      </defs>
      <use xlink:href="#TimesNewRomanPSMT-54"/>
      <use x="57.583984" xlink:href="#TimesNewRomanPSMT-69"/>
      <use x="85.367188" xlink:href="#TimesNewRomanPSMT-6d"/>
      <use x="163.150391" xlink:href="#TimesNewRomanPSMT-65"/>
      <use x="207.535156" xlink:href="#TimesNewRomanPSMT-20"/>
      <use x="232.535156" xlink:href="#TimesNewRomanPSMT-28"/>
      <use x="265.835938" xlink:href="#TimesNewRomanPSMT-73"/>
      <use x="304.751953" xlink:href="#TimesNewRomanPSMT-65"/>
      <use x="349.136719" xlink:href="#TimesNewRomanPSMT-63"/>
      <use x="393.521484" xlink:href="#TimesNewRomanPSMT-29"/>
     </g>
    </g>
   </g>
   <g id="matplotlib.axis_2">
    <g id="ytick_1">
     <g id="line2d_13">
      <path clip-path="url(#p9cdda84b0e)" d="M 63.336875 282.972819 
L 398.136875 282.972819 
" style="fill:none;stroke:#000000;stroke-dasharray:0.5,0.825;stroke-dashoffset:0;stroke-width:0.5;"/>
     </g>
     <g id="line2d_14">
      <defs>
       <path d="M 0 0 
L -3.5 0 
" id="mde6a838b5c" style="stroke:#000000;stroke-width:0.8;"/>
      </defs>
      <g>
       <use style="stroke:#000000;stroke-width:0.8;" x="63.336875" xlink:href="#mde6a838b5c" y="282.972819"/>
      </g>
     </g>
     <g id="text_8">
      <!-- −0.04 -->
      <g transform="translate(23.942188 287.833444)scale(0.14 -0.14)">
       <defs>
        <path d="M 3484 2000 
L 116 2000 
L 116 2256 
L 3484 2256 
L 3484 2000 
z
" id="TimesNewRomanPSMT-2212" transform="scale(0.015625)"/>
       </defs>
       <use xlink:href="#TimesNewRomanPSMT-2212"/>
       <use x="56.396484" xlink:href="#TimesNewRomanPSMT-30"/>
       <use x="106.396484" xlink:href="#TimesNewRomanPSMT-2e"/>
       <use x="131.396484" xlink:href="#TimesNewRomanPSMT-30"/>
       <use x="181.396484" xlink:href="#TimesNewRomanPSMT-34"/>
      </g>
     </g>
    </g>
    <g id="ytick_2">
     <g id="line2d_15">
      <path clip-path="url(#p9cdda84b0e)" d="M 63.336875 218.391932 
L 398.136875 218.391932 
" style="fill:none;stroke:#000000;stroke-dasharray:0.5,0.825;stroke-dashoffset:0;stroke-width:0.5;"/>
     </g>
     <g id="line2d_16">
      <g>
       <use style="stroke:#000000;stroke-width:0.8;" x="63.336875" xlink:href="#mde6a838b5c" y="218.391932"/>
      </g>
     </g>
     <g id="text_9">
      <!-- −0.02 -->
      <g transform="translate(23.942188 223.252557)scale(0.14 -0.14)">
       <use xlink:href="#TimesNewRomanPSMT-2212"/>
       <use x="56.396484" xlink:href="#TimesNewRomanPSMT-30"/>
       <use x="106.396484" xlink:href="#TimesNewRomanPSMT-2e"/>
       <use x="131.396484" xlink:href="#TimesNewRomanPSMT-30"/>
       <use x="181.396484" xlink:href="#TimesNewRomanPSMT-32"/>
      </g>
     </g>
    </g>
    <g id="ytick_3">
     <g id="line2d_17">
      <path clip-path="url(#p9cdda84b0e)" d="M 63.336875 153.811045 
L 398.136875 153.811045 
" style="fill:none;stroke:#000000;stroke-dasharray:0.5,0.825;stroke-dashoffset:0;stroke-width:0.5;"/>
     </g>
     <g id="line2d_18">
      <g>
       <use style="stroke:#000000;stroke-width:0.8;" x="63.336875" xlink:href="#mde6a838b5c" y="153.811045"/>
      </g>
     </g>
     <g id="text_10">
      <!-- 0.00 -->
      <g transform="translate(31.836875 158.67167)scale(0.14 -0.14)">
       <use xlink:href="#TimesNewRomanPSMT-30"/>
       <use x="50" xlink:href="#TimesNewRomanPSMT-2e"/>
       <use x="75" xlink:href="#TimesNewRomanPSMT-30"/>
       <use x="125" xlink:href="#TimesNewRomanPSMT-30"/>
      </g>
     </g>
    </g>
    <g id="ytick_4">
     <g id="line2d_19">
      <path clip-path="url(#p9cdda84b0e)" d="M 63.336875 89.230158 
L 398.136875 89.230158 
" style="fill:none;stroke:#000000;stroke-dasharray:0.5,0.825;stroke-dashoffset:0;stroke-width:0.5;"/>
     </g>
     <g id="line2d_20">
      <g>
       <use style="stroke:#000000;stroke-width:0.8;" x="63.336875" xlink:href="#mde6a838b5c" y="89.230158"/>
      </g>
     </g>
     <g id="text_11">
      <!-- 0.02 -->
      <g transform="translate(31.836875 94.090783)scale(0.14 -0.14)">
       <use xlink:href="#TimesNewRomanPSMT-30"/>
       <use x="50" xlink:href="#TimesNewRomanPSMT-2e"/>
       <use x="75" xlink:href="#TimesNewRomanPSMT-30"/>
       <use x="125" xlink:href="#TimesNewRomanPSMT-32"/>
      </g>
     </g>
    </g>
    <g id="ytick_5">
     <g id="line2d_21">
      <path clip-path="url(#p9cdda84b0e)" d="M 63.336875 24.649271 
L 398.136875 24.649271 
" style="fill:none;stroke:#000000;stroke-dasharray:0.5,0.825;stroke-dashoffset:0;stroke-width:0.5;"/>
     </g>
     <g id="line2d_22">
      <g>
       <use style="stroke:#000000;stroke-width:0.8;" x="63.336875" xlink:href="#mde6a838b5c" y="24.649271"/>
      </g>
     </g>
     <g id="text_12">
      <!-- 0.04 -->
      <g transform="translate(31.836875 29.509896)scale(0.14 -0.14)">
       <use xlink:href="#TimesNewRomanPSMT-30"/>
       <use x="50" xlink:href="#TimesNewRomanPSMT-2e"/>
       <use x="75" xlink:href="#TimesNewRomanPSMT-30"/>
       <use x="125" xlink:href="#TimesNewRomanPSMT-34"/>
      </g>
     </g>
    </g>
    <g id="text_13">
     <!-- Volatage (V) -->
     <g transform="translate(16.92125 209.352344)rotate(-90)scale(0.14 -0.14)">
      <defs>
       <path d="M 4544 4238 
L 4544 4122 
Q 4319 4081 4203 3978 
Q 4038 3825 3909 3509 
L 2431 -97 
L 2316 -97 
L 728 3556 
Q 606 3838 556 3900 
Q 478 3997 364 4051 
Q 250 4106 56 4122 
L 56 4238 
L 1788 4238 
L 1788 4122 
Q 1494 4094 1406 4022 
Q 1319 3950 1319 3838 
Q 1319 3681 1463 3350 
L 2541 866 
L 3541 3319 
Q 3688 3681 3688 3822 
Q 3688 3913 3597 3995 
Q 3506 4078 3291 4113 
Q 3275 4116 3238 4122 
L 3238 4238 
L 4544 4238 
z
" id="TimesNewRomanPSMT-56" transform="scale(0.015625)"/>
       <path d="M 1600 2947 
Q 2250 2947 2644 2453 
Q 2978 2031 2978 1484 
Q 2978 1100 2793 706 
Q 2609 313 2286 112 
Q 1963 -88 1566 -88 
Q 919 -88 538 428 
Q 216 863 216 1403 
Q 216 1797 411 2186 
Q 606 2575 925 2761 
Q 1244 2947 1600 2947 
z
M 1503 2744 
Q 1338 2744 1170 2645 
Q 1003 2547 900 2300 
Q 797 2053 797 1666 
Q 797 1041 1045 587 
Q 1294 134 1700 134 
Q 2003 134 2200 384 
Q 2397 634 2397 1244 
Q 2397 2006 2069 2444 
Q 1847 2744 1503 2744 
z
" id="TimesNewRomanPSMT-6f" transform="scale(0.015625)"/>
       <path d="M 1184 4444 
L 1184 647 
Q 1184 378 1223 290 
Q 1263 203 1344 158 
Q 1425 113 1647 113 
L 1647 0 
L 244 0 
L 244 113 
Q 441 113 512 153 
Q 584 194 625 287 
Q 666 381 666 647 
L 666 3247 
Q 666 3731 644 3842 
Q 622 3953 573 3993 
Q 525 4034 450 4034 
Q 369 4034 244 3984 
L 191 4094 
L 1044 4444 
L 1184 4444 
z
" id="TimesNewRomanPSMT-6c" transform="scale(0.015625)"/>
       <path d="M 1822 413 
Q 1381 72 1269 19 
Q 1100 -59 909 -59 
Q 613 -59 420 144 
Q 228 347 228 678 
Q 228 888 322 1041 
Q 450 1253 767 1440 
Q 1084 1628 1822 1897 
L 1822 2009 
Q 1822 2438 1686 2597 
Q 1550 2756 1291 2756 
Q 1094 2756 978 2650 
Q 859 2544 859 2406 
L 866 2225 
Q 866 2081 792 2003 
Q 719 1925 600 1925 
Q 484 1925 411 2006 
Q 338 2088 338 2228 
Q 338 2497 613 2722 
Q 888 2947 1384 2947 
Q 1766 2947 2009 2819 
Q 2194 2722 2281 2516 
Q 2338 2381 2338 1966 
L 2338 994 
Q 2338 584 2353 492 
Q 2369 400 2405 369 
Q 2441 338 2488 338 
Q 2538 338 2575 359 
Q 2641 400 2828 588 
L 2828 413 
Q 2478 -56 2159 -56 
Q 2006 -56 1915 50 
Q 1825 156 1822 413 
z
M 1822 616 
L 1822 1706 
Q 1350 1519 1213 1441 
Q 966 1303 859 1153 
Q 753 1003 753 825 
Q 753 600 887 451 
Q 1022 303 1197 303 
Q 1434 303 1822 616 
z
" id="TimesNewRomanPSMT-61" transform="scale(0.015625)"/>
       <path d="M 1031 3803 
L 1031 2863 
L 1700 2863 
L 1700 2644 
L 1031 2644 
L 1031 788 
Q 1031 509 1111 412 
Q 1191 316 1316 316 
Q 1419 316 1516 380 
Q 1613 444 1666 569 
L 1788 569 
Q 1678 263 1478 108 
Q 1278 -47 1066 -47 
Q 922 -47 784 33 
Q 647 113 581 261 
Q 516 409 516 719 
L 516 2644 
L 63 2644 
L 63 2747 
Q 234 2816 414 2980 
Q 594 3144 734 3369 
Q 806 3488 934 3803 
L 1031 3803 
z
" id="TimesNewRomanPSMT-74" transform="scale(0.015625)"/>
       <path d="M 966 1044 
Q 703 1172 562 1401 
Q 422 1631 422 1909 
Q 422 2334 742 2640 
Q 1063 2947 1563 2947 
Q 1972 2947 2272 2747 
L 2878 2747 
Q 3013 2747 3034 2739 
Q 3056 2731 3066 2713 
Q 3084 2684 3084 2613 
Q 3084 2531 3069 2500 
Q 3059 2484 3036 2475 
Q 3013 2466 2878 2466 
L 2506 2466 
Q 2681 2241 2681 1891 
Q 2681 1491 2375 1206 
Q 2069 922 1553 922 
Q 1341 922 1119 984 
Q 981 866 932 777 
Q 884 688 884 625 
Q 884 572 936 522 
Q 988 472 1138 450 
Q 1225 438 1575 428 
Q 2219 413 2409 384 
Q 2700 344 2873 169 
Q 3047 -6 3047 -263 
Q 3047 -616 2716 -925 
Q 2228 -1381 1444 -1381 
Q 841 -1381 425 -1109 
Q 191 -953 191 -784 
Q 191 -709 225 -634 
Q 278 -519 444 -313 
Q 466 -284 763 25 
Q 600 122 533 198 
Q 466 275 466 372 
Q 466 481 555 628 
Q 644 775 966 1044 
z
M 1509 2797 
Q 1278 2797 1122 2612 
Q 966 2428 966 2047 
Q 966 1553 1178 1281 
Q 1341 1075 1591 1075 
Q 1828 1075 1981 1253 
Q 2134 1431 2134 1813 
Q 2134 2309 1919 2591 
Q 1759 2797 1509 2797 
z
M 934 0 
Q 788 -159 713 -296 
Q 638 -434 638 -550 
Q 638 -700 819 -813 
Q 1131 -1006 1722 -1006 
Q 2284 -1006 2551 -807 
Q 2819 -609 2819 -384 
Q 2819 -222 2659 -153 
Q 2497 -84 2016 -72 
Q 1313 -53 934 0 
z
" id="TimesNewRomanPSMT-67" transform="scale(0.015625)"/>
      </defs>
      <use xlink:href="#TimesNewRomanPSMT-56"/>
      <use x="59.341797" xlink:href="#TimesNewRomanPSMT-6f"/>
      <use x="109.341797" xlink:href="#TimesNewRomanPSMT-6c"/>
      <use x="137.125" xlink:href="#TimesNewRomanPSMT-61"/>
      <use x="181.509766" xlink:href="#TimesNewRomanPSMT-74"/>
      <use x="209.292969" xlink:href="#TimesNewRomanPSMT-61"/>
      <use x="253.677734" xlink:href="#TimesNewRomanPSMT-67"/>
      <use x="303.677734" xlink:href="#TimesNewRomanPSMT-65"/>
      <use x="348.0625" xlink:href="#TimesNewRomanPSMT-20"/>
      <use x="373.0625" xlink:href="#TimesNewRomanPSMT-28"/>
      <use x="406.363281" xlink:href="#TimesNewRomanPSMT-56"/>
      <use x="478.580078" xlink:href="#TimesNewRomanPSMT-29"/>
     </g>
    </g>
   </g>
   <g id="LineCollection_1">
    <path clip-path="url(#p9cdda84b0e)" d="M 78.555057 153.811045 
L 382.918693 153.811045 
" style="fill:none;stroke:#1f77b4;stroke-width:1.5;"/>
   </g>
   <g id="line2d_23">
    <path clip-path="url(#p9cdda84b0e)" d="M 78.555057 153.782468 
L 78.676802 153.822831 
L 78.737675 153.782468 
L 78.768111 153.822831 
L 78.85942 153.822831 
L 78.889857 153.742105 
L 78.981166 153.782468 
L 85.129311 153.822831 
L 85.159748 153.903557 
L 85.251057 153.863194 
L 85.342366 153.863194 
L 85.464111 153.822831 
L 85.64673 153.903557 
L 85.829348 153.822831 
L 85.98153 153.863194 
L 86.103275 153.822831 
L 86.22502 153.822831 
L 87.807711 153.863194 
L 87.929457 153.94392 
L 88.051202 153.863194 
L 93.92542 153.782468 
L 94.01673 153.782468 
L 94.138475 153.782468 
L 101.96062 153.701742 
L 102.082366 153.701742 
L 111.061093 153.782468 
L 111.182839 153.782468 
L 111.791566 153.863194 
L 111.913311 153.863194 
L 112.582911 153.94392 
L 112.704657 153.94392 
L 113.069893 154.024646 
L 113.191639 154.105372 
L 113.222075 154.024646 
L 113.282948 154.105372 
L 113.648184 154.145736 
L 113.67862 154.226462 
L 113.709057 154.105372 
L 113.76993 154.186099 
L 113.800366 154.145736 
L 113.861239 154.226462 
L 114.135166 154.266825 
L 114.165602 154.347551 
L 114.226475 154.307188 
L 114.256911 154.266825 
L 114.317784 154.347551 
L 114.68302 154.428277 
L 114.865639 154.509003 
L 115.291748 154.589729 
L 115.413493 154.670455 
L 115.535239 154.670455 
L 115.809166 154.751181 
L 115.991784 154.831907 
L 116.44833 154.912634 
L 116.570075 154.99336 
L 116.600511 154.952997 
L 116.722257 154.952997 
L 116.813566 155.033723 
L 116.844002 154.99336 
L 117.239675 155.074086 
L 117.422293 155.154812 
L 117.513602 155.154812 
L 117.604911 155.235538 
L 117.635348 155.195175 
L 117.665784 155.154812 
L 117.69622 155.195175 
L 117.726657 155.316264 
L 117.817966 155.235538 
L 117.848402 155.195175 
L 117.909275 155.275901 
L 118.213639 155.316264 
L 118.335384 155.39699 
L 118.578875 155.477716 
L 118.731057 155.518079 
L 119.065857 155.598805 
L 119.248475 155.679532 
L 119.46153 155.760258 
L 119.644148 155.92171 
L 119.674584 155.840984 
L 119.70502 155.962073 
L 119.735457 155.92171 
L 119.948511 156.083162 
L 119.978948 156.042799 
L 120.03982 156.123525 
L 120.252875 156.163888 
L 120.405057 156.32534 
L 120.46593 156.365704 
L 120.618111 156.527156 
L 120.739857 156.607882 
L 120.922475 156.809697 
L 122.109493 158.504945 
L 122.352984 159.029665 
L 122.535602 159.433296 
L 124.179166 164.075047 
L 126.73582 174.690531 
L 128.105457 181.43116 
L 128.257639 182.117332 
L 129.17073 186.395816 
L 130.814293 192.490637 
L 132.031748 195.43714 
L 132.123057 195.517866 
L 132.336111 195.638955 
L 132.42742 195.679318 
L 132.549166 195.760045 
L 133.036148 195.679318 
L 133.705748 194.670242 
L 133.979675 194.024433 
L 134.131857 193.701529 
L 134.43622 192.934631 
L 135.075384 190.956841 
L 136.11022 186.395816 
L 137.510293 176.426141 
L 139.823457 153.94392 
L 142.927966 111.320535 
L 146.549893 60.099816 
L 148.284766 40.685196 
L 149.380475 31.48242 
L 149.654402 29.544984 
L 149.958766 27.60756 
L 151.297966 22.723627 
L 151.358839 22.683267 
L 151.51102 22.562185 
L 151.784948 22.36036 
L 151.906693 22.36036 
L 152.332802 22.441086 
L 152.94153 23.409806 
L 153.51982 25.2665 
L 153.672002 25.912309 
L 154.493784 30.836598 
L 155.102511 35.599448 
L 156.076475 45.609486 
L 158.085275 73.581082 
L 160.489748 120.281133 
L 166.698766 257.878779 
L 169.133675 297.959305 
L 170.35113 311.19838 
L 171.081602 316.970294 
L 171.964257 322.136768 
L 173.02953 324.67964 
L 173.303457 324.639271 
L 173.577384 324.19529 
L 173.881748 323.630198 
L 174.673093 321.248777 
L 176.134039 312.974351 
L 177.534111 300.946161 
L 178.995057 284.316589 
L 179.999457 271.279326 
L 181.490839 250.048353 
L 187.578111 154.87227 
L 190.926111 111.885618 
L 191.504402 105.508255 
L 192.752293 91.865543 
L 194.213239 79.31263 
L 196.678584 60.584176 
L 197.896039 53.157367 
L 198.169966 52.148291 
L 198.656948 50.130141 
L 199.539602 47.022189 
L 199.630911 46.739648 
L 199.996148 45.48839 
L 200.574439 43.631693 
L 200.939675 43.026244 
L 201.15273 42.58225 
L 201.304911 42.259352 
L 201.548402 41.734629 
L 201.761457 41.452088 
L 201.944075 41.331002 
L 202.06582 41.411731 
L 202.765857 41.331002 
L 202.948475 41.250276 
L 203.131093 41.290632 
L 203.283275 41.452088 
L 203.374584 41.532817 
L 203.557202 41.734629 
L 203.709384 41.815355 
L 203.952875 41.976811 
L 204.07462 41.936441 
L 204.318111 42.138266 
L 204.348548 42.097897 
L 204.40942 42.178623 
L 204.50073 42.259352 
L 205.018148 43.349155 
L 205.444257 44.07569 
L 206.692148 47.102915 
L 206.935639 47.587269 
L 208.122657 51.018132 
L 210.070584 59.211832 
L 210.801057 62.561968 
L 210.983675 63.288497 
L 213.11422 75.114875 
L 213.936002 80.806066 
L 214.149057 82.501311 
L 214.605602 86.214715 
L 216.614402 105.871523 
L 219.414548 136.749259 
L 222.24513 171.824753 
L 226.536657 227.28359 
L 229.306366 259.08968 
L 229.641166 262.03618 
L 230.706439 270.916058 
L 231.710839 276.889781 
L 233.415275 283.226787 
L 234.267493 284.195493 
L 234.63273 284.114764 
L 234.96753 283.509328 
L 235.21102 283.024975 
L 236.124111 280.320647 
L 236.519784 278.302494 
L 238.132911 266.879743 
L 239.046002 258.766769 
L 241.480911 231.763886 
L 242.059202 224.216001 
L 242.941857 212.389623 
L 246.35073 165.729932 
L 249.759602 117.576808 
L 252.224948 92.592078 
L 253.016293 87.183428 
L 253.898948 82.057324 
L 254.477239 79.554814 
L 255.39033 76.366133 
L 256.577348 73.500353 
L 256.607784 73.540719 
L 256.63822 73.500353 
L 256.820839 73.298534 
L 257.155639 73.217815 
L 257.186075 73.137085 
L 257.277384 73.177452 
L 257.794802 73.258171 
L 258.281784 73.742531 
L 258.433966 73.823257 
L 258.677457 73.984706 
L 258.860075 74.065436 
L 259.07313 74.186525 
L 259.164439 74.267254 
L 259.803602 74.953426 
L 259.925348 75.034146 
L 260.838439 76.366133 
L 261.08193 76.931213 
L 261.142802 77.011939 
L 262.208075 80.119894 
L 263.577711 86.012903 
L 265.586511 97.233829 
L 267.564875 111.078357 
L 270.060657 130.048991 
L 270.943311 136.62817 
L 271.491166 140.745201 
L 272.13033 145.669494 
L 272.495566 148.414181 
L 273.226039 153.338474 
L 274.078257 158.262767 
L 274.443493 160.119468 
L 274.80873 161.855079 
L 277.213202 170.97713 
L 277.974111 173.23746 
L 278.217602 174.004359 
L 279.130693 176.183963 
L 279.191566 176.264689 
L 279.465493 176.708683 
L 280.865566 178.444295 
L 280.896002 178.403931 
L 280.926439 178.525021 
L 280.956875 178.484657 
L 281.16993 178.767199 
L 281.626475 179.211192 
L 281.74822 179.291918 
L 281.930839 179.372644 
L 282.204766 179.45337 
L 282.326511 179.534096 
L 282.356948 179.493734 
L 282.50913 179.57446 
L 282.661311 179.614822 
L 283.148293 179.534096 
L 283.391784 179.372644 
L 283.42222 179.413008 
L 283.483093 179.332282 
L 283.635275 179.211192 
L 283.787457 179.130466 
L 284.061384 178.928651 
L 284.09182 178.969015 
L 284.122257 178.888288 
L 284.791857 178.161753 
L 284.883166 178.081027 
L 285.76582 176.749047 
L 286.070184 176.224327 
L 286.161493 176.1436 
L 286.465857 175.578518 
L 286.86153 174.811619 
L 287.044148 174.407989 
L 287.43982 173.641091 
L 287.470257 173.641091 
L 287.683311 173.197098 
L 287.987675 172.672378 
L 288.170293 172.389836 
L 289.174693 171.219308 
L 289.752984 171.138582 
L 289.905166 171.098218 
L 290.026911 171.098218 
L 290.057348 171.017492 
L 290.11822 171.057856 
L 290.148657 171.138582 
L 290.20953 171.098218 
L 290.300839 171.098218 
L 290.909566 171.784391 
L 290.940002 171.744027 
L 291.000875 171.824753 
L 291.670475 172.874192 
L 292.005275 173.802543 
L 292.12702 174.125447 
L 294.409748 180.462447 
L 294.774984 181.471524 
L 296.81422 186.637995 
L 296.844657 186.597632 
L 296.875093 186.678356 
L 297.331639 187.445255 
L 297.636002 187.969975 
L 297.666439 187.969975 
L 297.81862 188.131427 
L 298.15342 188.413969 
L 298.275166 188.454332 
L 298.427348 188.575421 
L 298.91433 189.059778 
L 300.010039 189.140504 
L 300.16222 189.180867 
L 300.283966 189.100141 
L 300.770948 188.615784 
L 300.862257 188.575421 
L 301.014439 188.454332 
L 301.136184 188.413969 
L 301.288366 188.29288 
L 301.410111 188.252516 
L 301.623166 187.969975 
L 302.079711 187.243439 
L 302.26233 186.960899 
L 302.810184 186.395816 
L 302.901493 186.315089 
L 303.662402 185.144561 
L 303.93633 184.700569 
L 304.240693 184.135486 
L 306.158184 178.767199 
L 307.52782 172.874192 
L 311.028002 153.742105 
L 315.136911 127.223578 
L 315.349966 125.972323 
L 315.836948 122.985458 
L 316.65873 119.272057 
L 317.23702 116.769547 
L 317.32833 116.487006 
L 317.845748 114.832121 
L 318.180548 113.621229 
L 318.728402 111.885618 
L 319.489311 109.584924 
L 319.884984 108.414395 
L 320.067602 108.010764 
L 320.706766 106.557694 
L 320.737202 106.557694 
L 320.980693 106.032975 
L 321.285057 105.508255 
L 322.959057 103.449736 
L 323.050366 103.369016 
L 324.420002 101.673762 
L 324.511311 101.673762 
L 324.846111 101.350857 
L 324.876548 101.391223 
L 324.906984 101.310494 
L 325.089602 101.229774 
L 325.211348 101.229774 
L 325.485275 101.310494 
L 325.880948 101.673762 
L 326.002693 101.754491 
L 326.580984 102.682844 
L 327.28102 104.257 
L 327.37233 104.499175 
L 327.70713 105.387166 
L 328.315857 107.284229 
L 329.95942 114.267038 
L 331.96822 125.487967 
L 332.63782 129.201368 
L 334.372693 138.969227 
L 335.285784 144.29715 
L 337.233711 154.065009 
L 337.720693 156.406067 
L 338.146802 158.504945 
L 338.298984 159.191117 
L 339.303384 163.953957 
L 341.403493 171.905479 
L 341.464366 172.066931 
L 341.707857 172.874192 
L 341.829602 173.156734 
L 342.073093 173.883269 
L 342.468766 175.013434 
L 343.44273 177.354492 
L 343.503602 177.435218 
L 343.929711 178.282841 
L 344.477566 179.170829 
L 344.660184 179.372644 
L 345.299348 180.058816 
L 345.45153 180.139542 
L 345.847202 180.502809 
L 345.877639 180.462447 
L 345.938511 180.543173 
L 346.334184 180.906441 
L 346.45593 180.987167 
L 347.216839 181.834792 
L 347.36902 181.915516 
L 347.551639 182.117332 
L 347.673384 182.157696 
L 347.79513 182.278784 
L 347.825566 182.23842 
L 347.886439 182.319147 
L 348.069057 182.359511 
L 348.221239 182.4806 
L 348.37342 182.440236 
L 348.921275 182.399875 
L 349.04302 182.278784 
L 349.164766 182.278784 
L 349.560439 182.278784 
L 349.621311 182.117332 
L 349.682184 182.157696 
L 349.986548 182.076968 
L 350.169166 181.875153 
L 350.260475 181.95588 
L 350.321348 181.834792 
L 350.38222 181.875153 
L 350.564839 181.754064 
L 350.71702 181.794428 
L 350.930075 181.713701 
L 351.112693 181.632976 
L 351.295311 181.552248 
L 351.47793 181.350433 
L 351.782293 181.108256 
L 351.904039 181.027529 
L 355.038984 176.991224 
L 355.06942 177.031587 
L 355.099857 176.991224 
L 355.282475 176.789409 
L 355.373784 176.708683 
L 355.678148 176.466505 
L 355.799893 176.466505 
L 355.952075 176.305053 
L 356.07382 176.305053 
L 356.317311 176.103237 
L 356.378184 176.1436 
L 356.40862 176.103237 
L 356.621675 175.982148 
L 356.652111 176.022511 
L 356.712984 175.941785 
L 356.956475 175.901421 
L 357.07822 175.820696 
L 357.230402 175.780333 
L 357.352148 175.699606 
L 357.626075 175.61888 
L 357.778257 175.578518 
L 357.808693 175.61888 
L 357.869566 175.538154 
L 358.113057 175.457428 
L 358.326111 175.295976 
L 358.356548 175.33634 
L 358.41742 175.255612 
L 358.539166 175.174886 
L 358.691348 175.053798 
L 358.873966 174.973072 
L 359.17833 174.730893 
L 359.300075 174.650167 
L 359.665311 174.327263 
L 359.726184 174.246537 
L 359.908802 174.165811 
L 360.030548 174.085085 
L 360.213166 173.963995 
L 360.274039 174.004359 
L 360.304475 173.923632 
L 362.069784 171.421123 
L 362.43502 170.73495 
L 362.800257 170.089143 
L 363.43942 168.676436 
L 363.743784 168.111353 
L 364.20033 167.183002 
L 364.474257 166.658282 
L 364.809057 166.052837 
L 367.000475 163.308149 
L 367.12222 163.227423 
L 367.45702 162.864155 
L 367.487457 162.904518 
L 367.54833 162.823793 
L 367.730948 162.621977 
L 367.88313 162.541251 
L 368.004875 162.460525 
L 368.12662 162.420162 
L 368.278802 162.25871 
L 368.370111 162.339436 
L 368.400548 162.299073 
L 368.644039 162.13762 
L 368.704911 162.056894 
L 369.009275 161.774353 
L 369.039711 161.814716 
L 369.100584 161.73399 
L 369.283202 161.653264 
L 369.435384 161.532174 
L 369.46582 161.612901 
L 369.526693 161.532174 
L 369.709311 161.451448 
L 370.13542 161.047818 
L 370.257166 160.967092 
L 370.683275 160.563461 
L 370.713711 160.603825 
L 370.774584 160.523098 
L 372.022475 159.029665 
L 372.14422 158.948939 
L 372.387711 158.585672 
L 374.335639 155.840984 
L 374.670439 155.235538 
L 374.944366 154.751181 
L 375.187857 154.186099 
L 375.218293 154.186099 
L 375.553093 153.298111 
L 376.192257 151.845041 
L 376.25313 151.764315 
L 381.94473 136.385992 
L 382.340402 135.255826 
L 382.918693 133.641304 
L 382.918693 133.641304 
" style="fill:none;stroke:#0000ff;stroke-linecap:square;stroke-width:1.5;"/>
   </g>
   <g id="line2d_24">
    <path clip-path="url(#p9cdda84b0e)" d="M 78.555057 153.847452 
L 78.768111 153.827271 
L 87.290293 153.928179 
L 87.472911 153.928179 
L 95.964657 154.008905 
L 96.116839 154.029086 
L 97.94302 154.109812 
L 98.095202 154.129994 
L 99.61702 154.21072 
L 99.799639 154.291446 
L 100.28662 154.372172 
L 100.469239 154.452898 
L 100.682293 154.553806 
L 101.656257 155.320704 
L 102.660657 156.793955 
L 102.96502 157.419583 
L 103.178075 157.883758 
L 103.573748 158.872653 
L 103.999857 160.144089 
L 104.517275 161.819156 
L 106.40433 169.750496 
L 107.65222 175.784773 
L 108.139202 178.166193 
L 109.08273 182.60613 
L 110.726293 188.721131 
L 111.76113 191.223641 
L 111.822002 191.304367 
L 112.278548 191.970357 
L 112.43073 192.172173 
L 112.704657 192.474896 
L 112.948148 192.555622 
L 113.069893 192.575803 
L 114.165602 191.728179 
L 114.530839 191.08237 
L 115.383057 188.519316 
L 116.417893 183.978473 
L 117.422293 178.105649 
L 119.552839 161.778793 
L 122.13993 138.529673 
L 125.15313 111.52679 
L 126.644511 102.344198 
L 127.222802 99.599504 
L 128.07502 95.66411 
L 128.379384 94.594486 
L 128.83593 92.939604 
L 129.048984 92.27361 
L 129.566402 90.941632 
L 129.931639 90.437094 
L 130.50993 89.932556 
L 130.84473 89.650015 
L 131.331711 89.750922 
L 131.666511 89.851827 
L 131.879566 89.730744 
L 132.031748 89.62983 
L 132.275239 89.387655 
L 132.85353 89.468381 
L 133.066584 89.670193 
L 133.249202 89.771107 
L 133.705748 89.952741 
L 133.888366 90.03346 
L 135.075384 91.425989 
L 135.227566 91.446167 
L 135.471057 91.547081 
L 136.688511 93.02033 
L 136.77982 93.060693 
L 137.44942 94.13031 
L 138.423384 96.309919 
L 138.849493 98.085893 
L 140.310439 105.391609 
L 143.23233 123.474254 
L 144.723711 135.159358 
L 145.423748 140.245103 
L 147.097748 153.242007 
L 150.810984 184.301377 
L 152.819784 198.145905 
L 154.28073 205.310347 
L 155.163384 208.377939 
L 155.650366 209.366834 
L 156.593893 210.436452 
L 156.898257 210.517181 
L 157.354802 210.416273 
L 158.237457 209.730101 
L 159.363602 207.73213 
L 159.789711 206.985417 
L 160.581057 205.169076 
L 160.794111 204.725083 
L 162.346366 200.305328 
L 163.350766 196.591927 
L 164.933457 189.750389 
L 165.511748 187.449695 
L 167.794475 178.79182 
L 169.25542 177.036028 
L 169.620657 177.177298 
L 169.772839 177.197479 
L 170.077202 177.419476 
L 170.533748 177.843289 
L 170.838111 178.408371 
L 172.02513 181.859413 
L 172.451239 183.635388 
L 174.186111 192.212536 
L 175.464439 199.578793 
L 176.499275 206.420331 
L 179.05593 224.260801 
L 179.695093 227.772387 
L 180.516875 231.082157 
L 181.06473 232.414138 
L 181.947384 234.452472 
L 182.73873 235.320278 
L 183.043093 235.401007 
L 183.286584 235.158822 
L 183.40833 234.95701 
L 183.65182 234.452472 
L 184.32142 232.39396 
L 185.021457 229.164915 
L 186.025857 221.818833 
L 186.99982 211.768439 
L 188.00422 199.235707 
L 189.982584 170.174308 
L 194.517602 93.908314 
L 195.613311 78.852898 
L 196.922075 64.503835 
L 198.687384 50.195132 
L 200.117893 41.436353 
L 201.578839 36.068066 
L 201.791893 35.805697 
L 202.278875 35.341528 
L 202.49193 35.240617 
L 202.674548 35.240617 
L 202.857166 35.341528 
L 203.100657 35.603885 
L 203.526766 36.209334 
L 204.226802 37.319311 
L 204.50073 38.066031 
L 205.809493 44.584664 
L 215.062148 117.33907 
L 215.944802 123.898066 
L 219.47542 151.102765 
L 220.90593 160.749535 
L 221.91033 167.389258 
L 222.82342 173.2419 
L 223.219093 175.542595 
L 223.858257 179.397266 
L 226.414911 194.028873 
L 227.023639 196.874468 
L 227.632366 199.518249 
L 228.301966 202.121666 
L 229.671602 206.299242 
L 229.915093 206.783598 
L 230.18902 207.3285 
L 230.584693 208.014671 
L 230.889057 208.519206 
L 232.410875 210.718999 
L 232.95873 211.56662 
L 233.53702 212.515152 
L 234.20662 213.9884 
L 234.450111 214.47276 
L 235.058839 215.804738 
L 235.271893 216.268919 
L 236.276293 218.024709 
L 237.919857 220.02268 
L 238.924257 220.567581 
L 239.106875 220.567581 
L 239.593857 220.466677 
L 239.98953 220.325406 
L 241.359166 220.426311 
L 241.724402 220.547397 
L 242.089639 220.628126 
L 242.272257 220.688674 
L 242.759239 220.910664 
L 242.850548 220.930849 
L 243.094039 221.07212 
L 243.550584 221.455565 
L 243.794075 221.839018 
L 243.946257 222.061018 
L 244.58542 223.090269 
L 244.828911 223.594807 
L 247.202948 228.075109 
L 247.446439 228.357651 
L 248.176911 229.144727 
L 248.298657 229.245635 
L 248.724766 229.427269 
L 248.907384 229.366727 
L 249.242184 229.26582 
L 249.516111 229.164915 
L 250.155275 228.620011 
L 250.977057 227.348575 
L 251.920584 225.229511 
L 252.742366 222.161922 
L 255.177275 206.985417 
L 255.96862 200.426417 
L 258.525275 173.928072 
L 260.473202 149.387335 
L 266.134366 75.785302 
L 267.504002 61.577507 
L 268.386657 54.39289 
L 269.330184 48.298065 
L 269.908475 45.472655 
L 270.425893 43.858129 
L 271.36942 42.223429 
L 271.552039 42.162888 
L 272.221639 42.243601 
L 272.46513 42.485786 
L 272.647748 42.727967 
L 272.921675 43.252677 
L 274.078257 46.602814 
L 274.626111 49.206231 
L 275.47833 54.31216 
L 276.026184 58.227377 
L 278.278475 77.03656 
L 279.06982 84.786267 
L 282.17433 116.773987 
L 283.665711 132.354126 
L 287.044148 164.866567 
L 290.970439 197.762456 
L 293.040111 210.779541 
L 294.014075 215.360751 
L 294.501057 216.854177 
L 295.596766 219.457601 
L 297.453384 221.738113 
L 297.879493 221.839018 
L 298.031675 221.839018 
L 298.427348 221.677562 
L 298.518657 221.617021 
L 298.640402 221.536295 
L 299.431748 220.668489 
L 299.675239 220.385948 
L 300.131784 219.598871 
L 300.801384 218.024709 
L 301.714475 215.300203 
L 302.901493 211.001537 
L 304.17982 203.63528 
L 306.18862 188.17623 
L 307.740875 176.713122 
L 309.414875 165.31056 
L 310.906257 157.984666 
L 315.56302 139.902018 
L 316.99353 135.542808 
L 318.089239 132.333945 
L 318.637093 130.901057 
L 319.215384 129.508529 
L 321.315493 123.635706 
L 321.650293 122.868808 
L 321.863348 122.424815 
L 322.167711 121.657917 
L 322.68513 120.305754 
L 322.92862 119.801216 
L 323.415602 118.812321 
L 323.628657 118.368328 
L 324.480875 116.390538 
L 324.724366 115.906181 
L 326.915784 110.376443 
L 327.37233 109.589363 
L 328.133239 108.317927 
L 328.71153 107.369395 
L 329.076766 106.885039 
L 329.746366 106.178685 
L 330.811639 105.573243 
L 330.96382 105.553058 
L 331.481239 105.613599 
L 331.63342 105.694329 
L 332.424766 106.340138 
L 333.855275 108.418835 
L 334.616184 110.134265 
L 335.042293 111.385519 
L 335.620584 113.222038 
L 336.168439 115.280554 
L 336.442366 116.269449 
L 336.959784 118.166512 
L 337.65982 120.870837 
L 338.75553 125.674041 
L 339.790366 131.001964 
L 343.199239 152.010934 
L 344.934111 164.240939 
L 346.486366 176.67276 
L 347.734257 185.714084 
L 349.195202 195.562669 
L 350.534402 203.736188 
L 351.356184 208.075219 
L 352.604075 214.129677 
L 353.851966 218.670518 
L 355.343348 222.323371 
L 356.134693 223.655358 
L 356.469493 223.917712 
L 356.865166 223.816804 
L 357.139093 223.614992 
L 357.260839 223.514088 
L 357.595639 223.191183 
L 359.056584 220.042858 
L 360.791457 211.465713 
L 361.978475 203.716006 
L 363.408984 193.524335 
L 365.904766 172.959359 
L 367.426584 159.962455 
L 372.722511 115.240191 
L 373.757348 108.479379 
L 375.24873 100.225135 
L 376.618366 95.220116 
L 378.414111 90.739817 
L 379.083711 90.013282 
L 379.296766 89.932556 
L 379.448948 89.872011 
L 379.631566 89.892193 
L 379.783748 89.892193 
L 380.118548 90.013282 
L 380.240293 90.03346 
L 381.062075 90.699454 
L 381.822984 91.869986 
L 382.340402 92.959788 
L 382.52302 93.383597 
L 382.918693 94.453215 
L 382.918693 94.453215 
" style="fill:none;stroke:#ff0000;stroke-linecap:square;stroke-width:1.5;"/>
   </g>
   <g id="line2d_25">
    <path clip-path="url(#p9cdda84b0e)" d="M 123.661748 162.420162 
" style="fill:none;stroke:#ffffff;stroke-linecap:square;stroke-width:1.5;"/>
    <defs>
     <path d="M 0 -5 
L -1.12257 -1.545085 
L -4.755283 -1.545085 
L -1.816356 0.59017 
L -2.938926 4.045085 
L -0 1.90983 
L 2.938926 4.045085 
L 1.816356 0.59017 
L 4.755283 -1.545085 
L 1.12257 -1.545085 
z
" id="m882a040a7f" style="stroke:#ffffff;stroke-linejoin:bevel;"/>
    </defs>
    <g clip-path="url(#p9cdda84b0e)">
     <use style="fill:#0000ff;stroke:#ffffff;stroke-linejoin:bevel;" x="123.661748" xlink:href="#m882a040a7f" y="162.420162"/>
    </g>
   </g>
   <g id="line2d_26">
    <path clip-path="url(#p9cdda84b0e)" d="M 103.878111 159.76064 
" style="fill:none;stroke:#ffffff;stroke-linecap:square;stroke-width:1.5;"/>
    <defs>
     <path d="M 0 -5 
L -1.12257 -1.545085 
L -4.755283 -1.545085 
L -1.816356 0.59017 
L -2.938926 4.045085 
L -0 1.90983 
L 2.938926 4.045085 
L 1.816356 0.59017 
L 4.755283 -1.545085 
L 1.12257 -1.545085 
z
" id="m169b9bcc86" style="stroke:#ffffff;stroke-linejoin:bevel;"/>
    </defs>
    <g clip-path="url(#p9cdda84b0e)">
     <use style="fill:#ff0000;stroke:#ffffff;stroke-linejoin:bevel;" x="103.878111" xlink:href="#m169b9bcc86" y="159.76064"/>
    </g>
   </g>
   <g id="patch_3">
    <path d="M 63.336875 339.84 
L 63.336875 7.2 
" style="fill:none;stroke:#000000;stroke-linecap:square;stroke-linejoin:miter;stroke-width:0.8;"/>
   </g>
   <g id="patch_4">
    <path d="M 398.136875 339.84 
L 398.136875 7.2 
" style="fill:none;stroke:#000000;stroke-linecap:square;stroke-linejoin:miter;stroke-width:0.8;"/>
   </g>
   <g id="patch_5">
    <path d="M 63.336875 339.84 
L 398.136875 339.84 
" style="fill:none;stroke:#000000;stroke-linecap:square;stroke-linejoin:miter;stroke-width:0.8;"/>
   </g>
   <g id="patch_6">
    <path d="M 63.336875 7.2 
L 398.136875 7.2 
" style="fill:none;stroke:#000000;stroke-linecap:square;stroke-linejoin:miter;stroke-width:0.8;"/>
   </g>
   <g id="text_14">
    <g id="patch_7">
     <path d="M 75.036875 331.242688 
L 166.79375 331.242688 
L 166.79375 293.760312 
L 75.036875 293.760312 
z
" style="fill:#ffffff;stroke:#000000;stroke-linejoin:miter;stroke-width:0.75;"/>
    </g>
    <!-- Auto_00171 -->
    <g transform="translate(80.076875 308.521563)scale(0.14 -0.14)">
     <defs>
      <path d="M 2928 1419 
L 1288 1419 
L 1000 750 
Q 894 503 894 381 
Q 894 284 986 211 
Q 1078 138 1384 116 
L 1384 0 
L 50 0 
L 50 116 
Q 316 163 394 238 
Q 553 388 747 847 
L 2238 4334 
L 2347 4334 
L 3822 809 
Q 4000 384 4145 257 
Q 4291 131 4550 116 
L 4550 0 
L 2878 0 
L 2878 116 
Q 3131 128 3220 200 
Q 3309 272 3309 375 
Q 3309 513 3184 809 
L 2928 1419 
z
M 2841 1650 
L 2122 3363 
L 1384 1650 
L 2841 1650 
z
" id="TimesNewRomanPSMT-41" transform="scale(0.015625)"/>
      <path d="M 2709 2863 
L 2709 1128 
Q 2709 631 2732 520 
Q 2756 409 2807 365 
Q 2859 322 2928 322 
Q 3025 322 3147 375 
L 3191 266 
L 2334 -88 
L 2194 -88 
L 2194 519 
Q 1825 119 1631 15 
Q 1438 -88 1222 -88 
Q 981 -88 804 51 
Q 628 191 559 409 
Q 491 628 491 1028 
L 491 2306 
Q 491 2509 447 2587 
Q 403 2666 317 2708 
Q 231 2750 6 2747 
L 6 2863 
L 1009 2863 
L 1009 947 
Q 1009 547 1148 422 
Q 1288 297 1484 297 
Q 1619 297 1789 381 
Q 1959 466 2194 703 
L 2194 2325 
Q 2194 2569 2105 2655 
Q 2016 2741 1734 2747 
L 1734 2863 
L 2709 2863 
z
" id="TimesNewRomanPSMT-75" transform="scale(0.015625)"/>
      <path d="M 3256 -1381 
L -53 -1381 
L -53 -1119 
L 3256 -1119 
L 3256 -1381 
z
" id="TimesNewRomanPSMT-5f" transform="scale(0.015625)"/>
      <path d="M 644 4238 
L 2916 4238 
L 2916 4119 
L 1503 -88 
L 1153 -88 
L 2419 3728 
L 1253 3728 
Q 900 3728 750 3644 
Q 488 3500 328 3200 
L 238 3234 
L 644 4238 
z
" id="TimesNewRomanPSMT-37" transform="scale(0.015625)"/>
     </defs>
     <use xlink:href="#TimesNewRomanPSMT-41"/>
     <use x="72.216797" xlink:href="#TimesNewRomanPSMT-75"/>
     <use x="122.216797" xlink:href="#TimesNewRomanPSMT-74"/>
     <use x="150" xlink:href="#TimesNewRomanPSMT-6f"/>
     <use x="200" xlink:href="#TimesNewRomanPSMT-5f"/>
     <use x="250" xlink:href="#TimesNewRomanPSMT-30"/>
     <use x="300" xlink:href="#TimesNewRomanPSMT-30"/>
     <use x="350" xlink:href="#TimesNewRomanPSMT-31"/>
     <use x="400" xlink:href="#TimesNewRomanPSMT-37"/>
     <use x="450" xlink:href="#TimesNewRomanPSMT-31"/>
    </g>
    <!-- Vs: 307.47m/s -->
    <g transform="translate(80.076875 323.208)scale(0.14 -0.14)">
     <defs>
      <path d="M 903 2950 
Q 1047 2950 1148 2848 
Q 1250 2747 1250 2603 
Q 1250 2459 1148 2357 
Q 1047 2256 903 2256 
Q 759 2256 657 2357 
Q 556 2459 556 2603 
Q 556 2747 657 2848 
Q 759 2950 903 2950 
z
M 897 609 
Q 1044 609 1145 506 
Q 1247 403 1247 259 
Q 1247 116 1144 14 
Q 1041 -88 897 -88 
Q 753 -88 651 14 
Q 550 116 550 259 
Q 550 403 651 506 
Q 753 609 897 609 
z
" id="TimesNewRomanPSMT-3a" transform="scale(0.015625)"/>
      <path d="M 1794 4444 
L 259 -88 
L 9 -88 
L 1544 4444 
L 1794 4444 
z
" id="TimesNewRomanPSMT-2f" transform="scale(0.015625)"/>
     </defs>
     <use xlink:href="#TimesNewRomanPSMT-56"/>
     <use x="72.216797" xlink:href="#TimesNewRomanPSMT-73"/>
     <use x="111.132812" xlink:href="#TimesNewRomanPSMT-3a"/>
     <use x="138.916016" xlink:href="#TimesNewRomanPSMT-20"/>
     <use x="163.916016" xlink:href="#TimesNewRomanPSMT-33"/>
     <use x="213.916016" xlink:href="#TimesNewRomanPSMT-30"/>
     <use x="263.916016" xlink:href="#TimesNewRomanPSMT-37"/>
     <use x="313.916016" xlink:href="#TimesNewRomanPSMT-2e"/>
     <use x="338.916016" xlink:href="#TimesNewRomanPSMT-34"/>
     <use x="388.916016" xlink:href="#TimesNewRomanPSMT-37"/>
     <use x="438.916016" xlink:href="#TimesNewRomanPSMT-6d"/>
     <use x="516.699219" xlink:href="#TimesNewRomanPSMT-2f"/>
     <use x="544.482422" xlink:href="#TimesNewRomanPSMT-73"/>
    </g>
   </g>
  </g>
 </g>
 <defs>
  <clipPath id="p9cdda84b0e">
   <rect height="332.64" width="334.8" x="63.336875" y="7.2"/>
  </clipPath>
 </defs>
</svg>
