<?xml version="1.0" encoding="utf-8" standalone="no"?>
<!DOCTYPE svg PUBLIC "-//W3C//DTD SVG 1.1//EN"
  "http://www.w3.org/Graphics/SVG/1.1/DTD/svg11.dtd">
<svg height="383.471875pt" version="1.1" viewBox="0 0 421.086875 383.471875" width="421.086875pt" xmlns="http://www.w3.org/2000/svg" xmlns:xlink="http://www.w3.org/1999/xlink">
 <metadata>
  <rdf:RDF xmlns:cc="http://creativecommons.org/ns#" xmlns:dc="http://purl.org/dc/elements/1.1/" xmlns:rdf="http://www.w3.org/1999/02/22-rdf-syntax-ns#">
   <cc:Work>
    <dc:type rdf:resource="http://purl.org/dc/dcmitype/StillImage"/>
    <dc:date>2021-06-11T14:39:38.514202</dc:date>
    <dc:format>image/svg+xml</dc:format>
    <dc:creator>
     <cc:Agent>
      <dc:title>Matplotlib v3.4.2, https://matplotlib.org/</dc:title>
     </cc:Agent>
    </dc:creator>
   </cc:Work>
  </rdf:RDF>
 </metadata>
 <defs>
  <style type="text/css">*{stroke-linecap:butt;stroke-linejoin:round;}</style>
 </defs>
 <g id="figure_1">
  <g id="patch_1">
   <path d="M 0 383.471875 
L 421.086875 383.471875 
L 421.086875 0 
L 0 0 
z
" style="fill:#ffffff;"/>
  </g>
  <g id="axes_1">
   <g id="patch_2">
    <path d="M 63.336875 339.84 
L 398.136875 339.84 
L 398.136875 7.2 
L 63.336875 7.2 
z
" style="fill:#ffffff;"/>
   </g>
   <g id="matplotlib.axis_1">
    <g id="xtick_1">
     <g id="line2d_1">
      <path clip-path="url(#p174e7b1f1b)" d="M 93.773239 339.84 
L 93.773239 7.2 
" style="fill:none;stroke:#000000;stroke-dasharray:0.5,0.825;stroke-dashoffset:0;stroke-width:0.5;"/>
     </g>
     <g id="line2d_2">
      <defs>
       <path d="M 0 0 
L 0 3.5 
" id="md822700984" style="stroke:#000000;stroke-width:0.8;"/>
      </defs>
      <g>
       <use style="stroke:#000000;stroke-width:0.8;" x="93.773239" xlink:href="#md822700984" y="339.84"/>
      </g>
     </g>
     <g id="text_1">
      <!-- 0.000 -->
      <g transform="translate(78.023239 356.56125)scale(0.14 -0.14)">
       <defs>
        <path d="M 231 2094 
Q 231 2819 450 3342 
Q 669 3866 1031 4122 
Q 1313 4325 1613 4325 
Q 2100 4325 2488 3828 
Q 2972 3213 2972 2159 
Q 2972 1422 2759 906 
Q 2547 391 2217 158 
Q 1888 -75 1581 -75 
Q 975 -75 572 641 
Q 231 1244 231 2094 
z
M 844 2016 
Q 844 1141 1059 588 
Q 1238 122 1591 122 
Q 1759 122 1940 273 
Q 2122 425 2216 781 
Q 2359 1319 2359 2297 
Q 2359 3022 2209 3506 
Q 2097 3866 1919 4016 
Q 1791 4119 1609 4119 
Q 1397 4119 1231 3928 
Q 1006 3669 925 3112 
Q 844 2556 844 2016 
z
" id="TimesNewRomanPSMT-30" transform="scale(0.015625)"/>
        <path d="M 800 606 
Q 947 606 1047 504 
Q 1147 403 1147 259 
Q 1147 116 1045 14 
Q 944 -88 800 -88 
Q 656 -88 554 14 
Q 453 116 453 259 
Q 453 406 554 506 
Q 656 606 800 606 
z
" id="TimesNewRomanPSMT-2e" transform="scale(0.015625)"/>
       </defs>
       <use xlink:href="#TimesNewRomanPSMT-30"/>
       <use x="50" xlink:href="#TimesNewRomanPSMT-2e"/>
       <use x="75" xlink:href="#TimesNewRomanPSMT-30"/>
       <use x="125" xlink:href="#TimesNewRomanPSMT-30"/>
       <use x="175" xlink:href="#TimesNewRomanPSMT-30"/>
      </g>
     </g>
    </g>
    <g id="xtick_2">
     <g id="line2d_3">
      <path clip-path="url(#p174e7b1f1b)" d="M 154.645966 339.84 
L 154.645966 7.2 
" style="fill:none;stroke:#000000;stroke-dasharray:0.5,0.825;stroke-dashoffset:0;stroke-width:0.5;"/>
     </g>
     <g id="line2d_4">
      <g>
       <use style="stroke:#000000;stroke-width:0.8;" x="154.645966" xlink:href="#md822700984" y="339.84"/>
      </g>
     </g>
     <g id="text_2">
      <!-- 0.001 -->
      <g transform="translate(138.895966 356.56125)scale(0.14 -0.14)">
       <defs>
        <path d="M 750 3822 
L 1781 4325 
L 1884 4325 
L 1884 747 
Q 1884 391 1914 303 
Q 1944 216 2037 169 
Q 2131 122 2419 116 
L 2419 0 
L 825 0 
L 825 116 
Q 1125 122 1212 167 
Q 1300 213 1334 289 
Q 1369 366 1369 747 
L 1369 3034 
Q 1369 3497 1338 3628 
Q 1316 3728 1258 3775 
Q 1200 3822 1119 3822 
Q 1003 3822 797 3725 
L 750 3822 
z
" id="TimesNewRomanPSMT-31" transform="scale(0.015625)"/>
       </defs>
       <use xlink:href="#TimesNewRomanPSMT-30"/>
       <use x="50" xlink:href="#TimesNewRomanPSMT-2e"/>
       <use x="75" xlink:href="#TimesNewRomanPSMT-30"/>
       <use x="125" xlink:href="#TimesNewRomanPSMT-30"/>
       <use x="175" xlink:href="#TimesNewRomanPSMT-31"/>
      </g>
     </g>
    </g>
    <g id="xtick_3">
     <g id="line2d_5">
      <path clip-path="url(#p174e7b1f1b)" d="M 215.518693 339.84 
L 215.518693 7.2 
" style="fill:none;stroke:#000000;stroke-dasharray:0.5,0.825;stroke-dashoffset:0;stroke-width:0.5;"/>
     </g>
     <g id="line2d_6">
      <g>
       <use style="stroke:#000000;stroke-width:0.8;" x="215.518693" xlink:href="#md822700984" y="339.84"/>
      </g>
     </g>
     <g id="text_3">
      <!-- 0.002 -->
      <g transform="translate(199.768693 356.56125)scale(0.14 -0.14)">
       <defs>
        <path d="M 2934 816 
L 2638 0 
L 138 0 
L 138 116 
Q 1241 1122 1691 1759 
Q 2141 2397 2141 2925 
Q 2141 3328 1894 3587 
Q 1647 3847 1303 3847 
Q 991 3847 742 3664 
Q 494 3481 375 3128 
L 259 3128 
Q 338 3706 661 4015 
Q 984 4325 1469 4325 
Q 1984 4325 2329 3994 
Q 2675 3663 2675 3213 
Q 2675 2891 2525 2569 
Q 2294 2063 1775 1497 
Q 997 647 803 472 
L 1909 472 
Q 2247 472 2383 497 
Q 2519 522 2628 598 
Q 2738 675 2819 816 
L 2934 816 
z
" id="TimesNewRomanPSMT-32" transform="scale(0.015625)"/>
       </defs>
       <use xlink:href="#TimesNewRomanPSMT-30"/>
       <use x="50" xlink:href="#TimesNewRomanPSMT-2e"/>
       <use x="75" xlink:href="#TimesNewRomanPSMT-30"/>
       <use x="125" xlink:href="#TimesNewRomanPSMT-30"/>
       <use x="175" xlink:href="#TimesNewRomanPSMT-32"/>
      </g>
     </g>
    </g>
    <g id="xtick_4">
     <g id="line2d_7">
      <path clip-path="url(#p174e7b1f1b)" d="M 276.39142 339.84 
L 276.39142 7.2 
" style="fill:none;stroke:#000000;stroke-dasharray:0.5,0.825;stroke-dashoffset:0;stroke-width:0.5;"/>
     </g>
     <g id="line2d_8">
      <g>
       <use style="stroke:#000000;stroke-width:0.8;" x="276.39142" xlink:href="#md822700984" y="339.84"/>
      </g>
     </g>
     <g id="text_4">
      <!-- 0.003 -->
      <g transform="translate(260.64142 356.56125)scale(0.14 -0.14)">
       <defs>
        <path d="M 325 3431 
Q 506 3859 782 4092 
Q 1059 4325 1472 4325 
Q 1981 4325 2253 3994 
Q 2459 3747 2459 3466 
Q 2459 3003 1878 2509 
Q 2269 2356 2469 2072 
Q 2669 1788 2669 1403 
Q 2669 853 2319 450 
Q 1863 -75 997 -75 
Q 569 -75 414 31 
Q 259 138 259 259 
Q 259 350 332 419 
Q 406 488 509 488 
Q 588 488 669 463 
Q 722 447 909 348 
Q 1097 250 1169 231 
Q 1284 197 1416 197 
Q 1734 197 1970 444 
Q 2206 691 2206 1028 
Q 2206 1275 2097 1509 
Q 2016 1684 1919 1775 
Q 1784 1900 1550 2001 
Q 1316 2103 1072 2103 
L 972 2103 
L 972 2197 
Q 1219 2228 1467 2375 
Q 1716 2522 1828 2728 
Q 1941 2934 1941 3181 
Q 1941 3503 1739 3701 
Q 1538 3900 1238 3900 
Q 753 3900 428 3381 
L 325 3431 
z
" id="TimesNewRomanPSMT-33" transform="scale(0.015625)"/>
       </defs>
       <use xlink:href="#TimesNewRomanPSMT-30"/>
       <use x="50" xlink:href="#TimesNewRomanPSMT-2e"/>
       <use x="75" xlink:href="#TimesNewRomanPSMT-30"/>
       <use x="125" xlink:href="#TimesNewRomanPSMT-30"/>
       <use x="175" xlink:href="#TimesNewRomanPSMT-33"/>
      </g>
     </g>
    </g>
    <g id="xtick_5">
     <g id="line2d_9">
      <path clip-path="url(#p174e7b1f1b)" d="M 337.264148 339.84 
L 337.264148 7.2 
" style="fill:none;stroke:#000000;stroke-dasharray:0.5,0.825;stroke-dashoffset:0;stroke-width:0.5;"/>
     </g>
     <g id="line2d_10">
      <g>
       <use style="stroke:#000000;stroke-width:0.8;" x="337.264148" xlink:href="#md822700984" y="339.84"/>
      </g>
     </g>
     <g id="text_5">
      <!-- 0.004 -->
      <g transform="translate(321.514148 356.56125)scale(0.14 -0.14)">
       <defs>
        <path d="M 2978 1563 
L 2978 1119 
L 2409 1119 
L 2409 0 
L 1894 0 
L 1894 1119 
L 100 1119 
L 100 1519 
L 2066 4325 
L 2409 4325 
L 2409 1563 
L 2978 1563 
z
M 1894 1563 
L 1894 3666 
L 406 1563 
L 1894 1563 
z
" id="TimesNewRomanPSMT-34" transform="scale(0.015625)"/>
       </defs>
       <use xlink:href="#TimesNewRomanPSMT-30"/>
       <use x="50" xlink:href="#TimesNewRomanPSMT-2e"/>
       <use x="75" xlink:href="#TimesNewRomanPSMT-30"/>
       <use x="125" xlink:href="#TimesNewRomanPSMT-30"/>
       <use x="175" xlink:href="#TimesNewRomanPSMT-34"/>
      </g>
     </g>
    </g>
    <g id="xtick_6">
     <g id="line2d_11">
      <path clip-path="url(#p174e7b1f1b)" d="M 398.136875 339.84 
L 398.136875 7.2 
" style="fill:none;stroke:#000000;stroke-dasharray:0.5,0.825;stroke-dashoffset:0;stroke-width:0.5;"/>
     </g>
     <g id="line2d_12">
      <g>
       <use style="stroke:#000000;stroke-width:0.8;" x="398.136875" xlink:href="#md822700984" y="339.84"/>
      </g>
     </g>
     <g id="text_6">
      <!-- 0.005 -->
      <g transform="translate(382.386875 356.56125)scale(0.14 -0.14)">
       <defs>
        <path d="M 2778 4238 
L 2534 3706 
L 1259 3706 
L 981 3138 
Q 1809 3016 2294 2522 
Q 2709 2097 2709 1522 
Q 2709 1188 2573 903 
Q 2438 619 2231 419 
Q 2025 219 1772 97 
Q 1413 -75 1034 -75 
Q 653 -75 479 54 
Q 306 184 306 341 
Q 306 428 378 495 
Q 450 563 559 563 
Q 641 563 702 538 
Q 763 513 909 409 
Q 1144 247 1384 247 
Q 1750 247 2026 523 
Q 2303 800 2303 1197 
Q 2303 1581 2056 1914 
Q 1809 2247 1375 2428 
Q 1034 2569 447 2591 
L 1259 4238 
L 2778 4238 
z
" id="TimesNewRomanPSMT-35" transform="scale(0.015625)"/>
       </defs>
       <use xlink:href="#TimesNewRomanPSMT-30"/>
       <use x="50" xlink:href="#TimesNewRomanPSMT-2e"/>
       <use x="75" xlink:href="#TimesNewRomanPSMT-30"/>
       <use x="125" xlink:href="#TimesNewRomanPSMT-30"/>
       <use x="175" xlink:href="#TimesNewRomanPSMT-35"/>
      </g>
     </g>
    </g>
    <g id="text_7">
     <!-- Time (sec) -->
     <g transform="translate(200.858906 373.277188)scale(0.14 -0.14)">
      <defs>
       <path d="M 3703 4238 
L 3750 3244 
L 3631 3244 
Q 3597 3506 3538 3619 
Q 3441 3800 3280 3886 
Q 3119 3972 2856 3972 
L 2259 3972 
L 2259 734 
Q 2259 344 2344 247 
Q 2463 116 2709 116 
L 2856 116 
L 2856 0 
L 1059 0 
L 1059 116 
L 1209 116 
Q 1478 116 1591 278 
Q 1659 378 1659 734 
L 1659 3972 
L 1150 3972 
Q 853 3972 728 3928 
Q 566 3869 450 3700 
Q 334 3531 313 3244 
L 194 3244 
L 244 4238 
L 3703 4238 
z
" id="TimesNewRomanPSMT-54" transform="scale(0.015625)"/>
       <path d="M 928 4444 
Q 1059 4444 1151 4351 
Q 1244 4259 1244 4128 
Q 1244 3997 1151 3903 
Q 1059 3809 928 3809 
Q 797 3809 703 3903 
Q 609 3997 609 4128 
Q 609 4259 701 4351 
Q 794 4444 928 4444 
z
M 1188 2947 
L 1188 647 
Q 1188 378 1227 289 
Q 1266 200 1342 156 
Q 1419 113 1622 113 
L 1622 0 
L 231 0 
L 231 113 
Q 441 113 512 153 
Q 584 194 626 287 
Q 669 381 669 647 
L 669 1750 
Q 669 2216 641 2353 
Q 619 2453 572 2492 
Q 525 2531 444 2531 
Q 356 2531 231 2484 
L 188 2597 
L 1050 2947 
L 1188 2947 
z
" id="TimesNewRomanPSMT-69" transform="scale(0.015625)"/>
       <path d="M 1050 2338 
Q 1363 2650 1419 2697 
Q 1559 2816 1721 2881 
Q 1884 2947 2044 2947 
Q 2313 2947 2506 2790 
Q 2700 2634 2766 2338 
Q 3088 2713 3309 2830 
Q 3531 2947 3766 2947 
Q 3994 2947 4170 2830 
Q 4347 2713 4450 2447 
Q 4519 2266 4519 1878 
L 4519 647 
Q 4519 378 4559 278 
Q 4591 209 4675 161 
Q 4759 113 4950 113 
L 4950 0 
L 3538 0 
L 3538 113 
L 3597 113 
Q 3781 113 3884 184 
Q 3956 234 3988 344 
Q 4000 397 4000 647 
L 4000 1878 
Q 4000 2228 3916 2372 
Q 3794 2572 3525 2572 
Q 3359 2572 3192 2489 
Q 3025 2406 2788 2181 
L 2781 2147 
L 2788 2013 
L 2788 647 
Q 2788 353 2820 281 
Q 2853 209 2943 161 
Q 3034 113 3253 113 
L 3253 0 
L 1806 0 
L 1806 113 
Q 2044 113 2133 169 
Q 2222 225 2256 338 
Q 2272 391 2272 647 
L 2272 1878 
Q 2272 2228 2169 2381 
Q 2031 2581 1784 2581 
Q 1616 2581 1450 2491 
Q 1191 2353 1050 2181 
L 1050 647 
Q 1050 366 1089 281 
Q 1128 197 1204 155 
Q 1281 113 1516 113 
L 1516 0 
L 100 0 
L 100 113 
Q 297 113 375 155 
Q 453 197 493 289 
Q 534 381 534 647 
L 534 1741 
Q 534 2213 506 2350 
Q 484 2453 437 2492 
Q 391 2531 309 2531 
Q 222 2531 100 2484 
L 53 2597 
L 916 2947 
L 1050 2947 
L 1050 2338 
z
" id="TimesNewRomanPSMT-6d" transform="scale(0.015625)"/>
       <path d="M 681 1784 
Q 678 1147 991 784 
Q 1303 422 1725 422 
Q 2006 422 2214 576 
Q 2422 731 2563 1106 
L 2659 1044 
Q 2594 616 2278 264 
Q 1963 -88 1488 -88 
Q 972 -88 605 314 
Q 238 716 238 1394 
Q 238 2128 614 2539 
Q 991 2950 1559 2950 
Q 2041 2950 2350 2633 
Q 2659 2316 2659 1784 
L 681 1784 
z
M 681 1966 
L 2006 1966 
Q 1991 2241 1941 2353 
Q 1863 2528 1708 2628 
Q 1553 2728 1384 2728 
Q 1125 2728 920 2526 
Q 716 2325 681 1966 
z
" id="TimesNewRomanPSMT-65" transform="scale(0.015625)"/>
       <path id="TimesNewRomanPSMT-20" transform="scale(0.015625)"/>
       <path d="M 1988 -1253 
L 1988 -1369 
Q 1516 -1131 1200 -813 
Q 750 -359 506 256 
Q 263 872 263 1534 
Q 263 2503 741 3301 
Q 1219 4100 1988 4444 
L 1988 4313 
Q 1603 4100 1356 3731 
Q 1109 3363 987 2797 
Q 866 2231 866 1616 
Q 866 947 969 400 
Q 1050 -31 1165 -292 
Q 1281 -553 1476 -793 
Q 1672 -1034 1988 -1253 
z
" id="TimesNewRomanPSMT-28" transform="scale(0.015625)"/>
       <path d="M 2050 2947 
L 2050 1972 
L 1947 1972 
Q 1828 2431 1642 2597 
Q 1456 2763 1169 2763 
Q 950 2763 815 2647 
Q 681 2531 681 2391 
Q 681 2216 781 2091 
Q 878 1963 1175 1819 
L 1631 1597 
Q 2266 1288 2266 781 
Q 2266 391 1970 151 
Q 1675 -88 1309 -88 
Q 1047 -88 709 6 
Q 606 38 541 38 
Q 469 38 428 -44 
L 325 -44 
L 325 978 
L 428 978 
Q 516 541 762 319 
Q 1009 97 1316 97 
Q 1531 97 1667 223 
Q 1803 350 1803 528 
Q 1803 744 1651 891 
Q 1500 1038 1047 1263 
Q 594 1488 453 1669 
Q 313 1847 313 2119 
Q 313 2472 555 2709 
Q 797 2947 1181 2947 
Q 1350 2947 1591 2875 
Q 1750 2828 1803 2828 
Q 1853 2828 1881 2850 
Q 1909 2872 1947 2947 
L 2050 2947 
z
" id="TimesNewRomanPSMT-73" transform="scale(0.015625)"/>
       <path d="M 2631 1088 
Q 2516 522 2178 217 
Q 1841 -88 1431 -88 
Q 944 -88 581 321 
Q 219 731 219 1428 
Q 219 2103 620 2525 
Q 1022 2947 1584 2947 
Q 2006 2947 2278 2723 
Q 2550 2500 2550 2259 
Q 2550 2141 2473 2067 
Q 2397 1994 2259 1994 
Q 2075 1994 1981 2113 
Q 1928 2178 1911 2362 
Q 1894 2547 1784 2644 
Q 1675 2738 1481 2738 
Q 1169 2738 978 2506 
Q 725 2200 725 1697 
Q 725 1184 976 792 
Q 1228 400 1656 400 
Q 1963 400 2206 609 
Q 2378 753 2541 1131 
L 2631 1088 
z
" id="TimesNewRomanPSMT-63" transform="scale(0.015625)"/>
       <path d="M 144 4313 
L 144 4444 
Q 619 4209 934 3891 
Q 1381 3434 1625 2820 
Q 1869 2206 1869 1541 
Q 1869 572 1392 -226 
Q 916 -1025 144 -1369 
L 144 -1253 
Q 528 -1038 776 -670 
Q 1025 -303 1145 264 
Q 1266 831 1266 1447 
Q 1266 2113 1163 2663 
Q 1084 3094 967 3353 
Q 850 3613 656 3853 
Q 463 4094 144 4313 
z
" id="TimesNewRomanPSMT-29" transform="scale(0.015625)"/>
      </defs>
      <use xlink:href="#TimesNewRomanPSMT-54"/>
      <use x="57.583984" xlink:href="#TimesNewRomanPSMT-69"/>
      <use x="85.367188" xlink:href="#TimesNewRomanPSMT-6d"/>
      <use x="163.150391" xlink:href="#TimesNewRomanPSMT-65"/>
      <use x="207.535156" xlink:href="#TimesNewRomanPSMT-20"/>
      <use x="232.535156" xlink:href="#TimesNewRomanPSMT-28"/>
      <use x="265.835938" xlink:href="#TimesNewRomanPSMT-73"/>
      <use x="304.751953" xlink:href="#TimesNewRomanPSMT-65"/>
      <use x="349.136719" xlink:href="#TimesNewRomanPSMT-63"/>
      <use x="393.521484" xlink:href="#TimesNewRomanPSMT-29"/>
     </g>
    </g>
   </g>
   <g id="matplotlib.axis_2">
    <g id="ytick_1">
     <g id="line2d_13">
      <path clip-path="url(#p174e7b1f1b)" d="M 63.336875 330.0422 
L 398.136875 330.0422 
" style="fill:none;stroke:#000000;stroke-dasharray:0.5,0.825;stroke-dashoffset:0;stroke-width:0.5;"/>
     </g>
     <g id="line2d_14">
      <defs>
       <path d="M 0 0 
L -3.5 0 
" id="me2fcd55ae7" style="stroke:#000000;stroke-width:0.8;"/>
      </defs>
      <g>
       <use style="stroke:#000000;stroke-width:0.8;" x="63.336875" xlink:href="#me2fcd55ae7" y="330.0422"/>
      </g>
     </g>
     <g id="text_8">
      <!-- −0.06 -->
      <g transform="translate(23.942188 334.902825)scale(0.14 -0.14)">
       <defs>
        <path d="M 3484 2000 
L 116 2000 
L 116 2256 
L 3484 2256 
L 3484 2000 
z
" id="TimesNewRomanPSMT-2212" transform="scale(0.015625)"/>
        <path d="M 2869 4325 
L 2869 4209 
Q 2456 4169 2195 4045 
Q 1934 3922 1679 3669 
Q 1425 3416 1258 3105 
Q 1091 2794 978 2366 
Q 1428 2675 1881 2675 
Q 2316 2675 2634 2325 
Q 2953 1975 2953 1425 
Q 2953 894 2631 456 
Q 2244 -75 1606 -75 
Q 1172 -75 869 213 
Q 275 772 275 1663 
Q 275 2231 503 2743 
Q 731 3256 1154 3653 
Q 1578 4050 1965 4187 
Q 2353 4325 2688 4325 
L 2869 4325 
z
M 925 2138 
Q 869 1716 869 1456 
Q 869 1156 980 804 
Q 1091 453 1309 247 
Q 1469 100 1697 100 
Q 1969 100 2183 356 
Q 2397 613 2397 1088 
Q 2397 1622 2184 2012 
Q 1972 2403 1581 2403 
Q 1463 2403 1327 2353 
Q 1191 2303 925 2138 
z
" id="TimesNewRomanPSMT-36" transform="scale(0.015625)"/>
       </defs>
       <use xlink:href="#TimesNewRomanPSMT-2212"/>
       <use x="56.396484" xlink:href="#TimesNewRomanPSMT-30"/>
       <use x="106.396484" xlink:href="#TimesNewRomanPSMT-2e"/>
       <use x="131.396484" xlink:href="#TimesNewRomanPSMT-30"/>
       <use x="181.396484" xlink:href="#TimesNewRomanPSMT-36"/>
      </g>
     </g>
    </g>
    <g id="ytick_2">
     <g id="line2d_15">
      <path clip-path="url(#p174e7b1f1b)" d="M 63.336875 271.384091 
L 398.136875 271.384091 
" style="fill:none;stroke:#000000;stroke-dasharray:0.5,0.825;stroke-dashoffset:0;stroke-width:0.5;"/>
     </g>
     <g id="line2d_16">
      <g>
       <use style="stroke:#000000;stroke-width:0.8;" x="63.336875" xlink:href="#me2fcd55ae7" y="271.384091"/>
      </g>
     </g>
     <g id="text_9">
      <!-- −0.04 -->
      <g transform="translate(23.942188 276.244716)scale(0.14 -0.14)">
       <use xlink:href="#TimesNewRomanPSMT-2212"/>
       <use x="56.396484" xlink:href="#TimesNewRomanPSMT-30"/>
       <use x="106.396484" xlink:href="#TimesNewRomanPSMT-2e"/>
       <use x="131.396484" xlink:href="#TimesNewRomanPSMT-30"/>
       <use x="181.396484" xlink:href="#TimesNewRomanPSMT-34"/>
      </g>
     </g>
    </g>
    <g id="ytick_3">
     <g id="line2d_17">
      <path clip-path="url(#p174e7b1f1b)" d="M 63.336875 212.725983 
L 398.136875 212.725983 
" style="fill:none;stroke:#000000;stroke-dasharray:0.5,0.825;stroke-dashoffset:0;stroke-width:0.5;"/>
     </g>
     <g id="line2d_18">
      <g>
       <use style="stroke:#000000;stroke-width:0.8;" x="63.336875" xlink:href="#me2fcd55ae7" y="212.725983"/>
      </g>
     </g>
     <g id="text_10">
      <!-- −0.02 -->
      <g transform="translate(23.942188 217.586608)scale(0.14 -0.14)">
       <use xlink:href="#TimesNewRomanPSMT-2212"/>
       <use x="56.396484" xlink:href="#TimesNewRomanPSMT-30"/>
       <use x="106.396484" xlink:href="#TimesNewRomanPSMT-2e"/>
       <use x="131.396484" xlink:href="#TimesNewRomanPSMT-30"/>
       <use x="181.396484" xlink:href="#TimesNewRomanPSMT-32"/>
      </g>
     </g>
    </g>
    <g id="ytick_4">
     <g id="line2d_19">
      <path clip-path="url(#p174e7b1f1b)" d="M 63.336875 154.067874 
L 398.136875 154.067874 
" style="fill:none;stroke:#000000;stroke-dasharray:0.5,0.825;stroke-dashoffset:0;stroke-width:0.5;"/>
     </g>
     <g id="line2d_20">
      <g>
       <use style="stroke:#000000;stroke-width:0.8;" x="63.336875" xlink:href="#me2fcd55ae7" y="154.067874"/>
      </g>
     </g>
     <g id="text_11">
      <!-- 0.00 -->
      <g transform="translate(31.836875 158.928499)scale(0.14 -0.14)">
       <use xlink:href="#TimesNewRomanPSMT-30"/>
       <use x="50" xlink:href="#TimesNewRomanPSMT-2e"/>
       <use x="75" xlink:href="#TimesNewRomanPSMT-30"/>
       <use x="125" xlink:href="#TimesNewRomanPSMT-30"/>
      </g>
     </g>
    </g>
    <g id="ytick_5">
     <g id="line2d_21">
      <path clip-path="url(#p174e7b1f1b)" d="M 63.336875 95.409766 
L 398.136875 95.409766 
" style="fill:none;stroke:#000000;stroke-dasharray:0.5,0.825;stroke-dashoffset:0;stroke-width:0.5;"/>
     </g>
     <g id="line2d_22">
      <g>
       <use style="stroke:#000000;stroke-width:0.8;" x="63.336875" xlink:href="#me2fcd55ae7" y="95.409766"/>
      </g>
     </g>
     <g id="text_12">
      <!-- 0.02 -->
      <g transform="translate(31.836875 100.270391)scale(0.14 -0.14)">
       <use xlink:href="#TimesNewRomanPSMT-30"/>
       <use x="50" xlink:href="#TimesNewRomanPSMT-2e"/>
       <use x="75" xlink:href="#TimesNewRomanPSMT-30"/>
       <use x="125" xlink:href="#TimesNewRomanPSMT-32"/>
      </g>
     </g>
    </g>
    <g id="ytick_6">
     <g id="line2d_23">
      <path clip-path="url(#p174e7b1f1b)" d="M 63.336875 36.751657 
L 398.136875 36.751657 
" style="fill:none;stroke:#000000;stroke-dasharray:0.5,0.825;stroke-dashoffset:0;stroke-width:0.5;"/>
     </g>
     <g id="line2d_24">
      <g>
       <use style="stroke:#000000;stroke-width:0.8;" x="63.336875" xlink:href="#me2fcd55ae7" y="36.751657"/>
      </g>
     </g>
     <g id="text_13">
      <!-- 0.04 -->
      <g transform="translate(31.836875 41.612282)scale(0.14 -0.14)">
       <use xlink:href="#TimesNewRomanPSMT-30"/>
       <use x="50" xlink:href="#TimesNewRomanPSMT-2e"/>
       <use x="75" xlink:href="#TimesNewRomanPSMT-30"/>
       <use x="125" xlink:href="#TimesNewRomanPSMT-34"/>
      </g>
     </g>
    </g>
    <g id="text_14">
     <!-- Volatage (V) -->
     <g transform="translate(16.92125 209.352344)rotate(-90)scale(0.14 -0.14)">
      <defs>
       <path d="M 4544 4238 
L 4544 4122 
Q 4319 4081 4203 3978 
Q 4038 3825 3909 3509 
L 2431 -97 
L 2316 -97 
L 728 3556 
Q 606 3838 556 3900 
Q 478 3997 364 4051 
Q 250 4106 56 4122 
L 56 4238 
L 1788 4238 
L 1788 4122 
Q 1494 4094 1406 4022 
Q 1319 3950 1319 3838 
Q 1319 3681 1463 3350 
L 2541 866 
L 3541 3319 
Q 3688 3681 3688 3822 
Q 3688 3913 3597 3995 
Q 3506 4078 3291 4113 
Q 3275 4116 3238 4122 
L 3238 4238 
L 4544 4238 
z
" id="TimesNewRomanPSMT-56" transform="scale(0.015625)"/>
       <path d="M 1600 2947 
Q 2250 2947 2644 2453 
Q 2978 2031 2978 1484 
Q 2978 1100 2793 706 
Q 2609 313 2286 112 
Q 1963 -88 1566 -88 
Q 919 -88 538 428 
Q 216 863 216 1403 
Q 216 1797 411 2186 
Q 606 2575 925 2761 
Q 1244 2947 1600 2947 
z
M 1503 2744 
Q 1338 2744 1170 2645 
Q 1003 2547 900 2300 
Q 797 2053 797 1666 
Q 797 1041 1045 587 
Q 1294 134 1700 134 
Q 2003 134 2200 384 
Q 2397 634 2397 1244 
Q 2397 2006 2069 2444 
Q 1847 2744 1503 2744 
z
" id="TimesNewRomanPSMT-6f" transform="scale(0.015625)"/>
       <path d="M 1184 4444 
L 1184 647 
Q 1184 378 1223 290 
Q 1263 203 1344 158 
Q 1425 113 1647 113 
L 1647 0 
L 244 0 
L 244 113 
Q 441 113 512 153 
Q 584 194 625 287 
Q 666 381 666 647 
L 666 3247 
Q 666 3731 644 3842 
Q 622 3953 573 3993 
Q 525 4034 450 4034 
Q 369 4034 244 3984 
L 191 4094 
L 1044 4444 
L 1184 4444 
z
" id="TimesNewRomanPSMT-6c" transform="scale(0.015625)"/>
       <path d="M 1822 413 
Q 1381 72 1269 19 
Q 1100 -59 909 -59 
Q 613 -59 420 144 
Q 228 347 228 678 
Q 228 888 322 1041 
Q 450 1253 767 1440 
Q 1084 1628 1822 1897 
L 1822 2009 
Q 1822 2438 1686 2597 
Q 1550 2756 1291 2756 
Q 1094 2756 978 2650 
Q 859 2544 859 2406 
L 866 2225 
Q 866 2081 792 2003 
Q 719 1925 600 1925 
Q 484 1925 411 2006 
Q 338 2088 338 2228 
Q 338 2497 613 2722 
Q 888 2947 1384 2947 
Q 1766 2947 2009 2819 
Q 2194 2722 2281 2516 
Q 2338 2381 2338 1966 
L 2338 994 
Q 2338 584 2353 492 
Q 2369 400 2405 369 
Q 2441 338 2488 338 
Q 2538 338 2575 359 
Q 2641 400 2828 588 
L 2828 413 
Q 2478 -56 2159 -56 
Q 2006 -56 1915 50 
Q 1825 156 1822 413 
z
M 1822 616 
L 1822 1706 
Q 1350 1519 1213 1441 
Q 966 1303 859 1153 
Q 753 1003 753 825 
Q 753 600 887 451 
Q 1022 303 1197 303 
Q 1434 303 1822 616 
z
" id="TimesNewRomanPSMT-61" transform="scale(0.015625)"/>
       <path d="M 1031 3803 
L 1031 2863 
L 1700 2863 
L 1700 2644 
L 1031 2644 
L 1031 788 
Q 1031 509 1111 412 
Q 1191 316 1316 316 
Q 1419 316 1516 380 
Q 1613 444 1666 569 
L 1788 569 
Q 1678 263 1478 108 
Q 1278 -47 1066 -47 
Q 922 -47 784 33 
Q 647 113 581 261 
Q 516 409 516 719 
L 516 2644 
L 63 2644 
L 63 2747 
Q 234 2816 414 2980 
Q 594 3144 734 3369 
Q 806 3488 934 3803 
L 1031 3803 
z
" id="TimesNewRomanPSMT-74" transform="scale(0.015625)"/>
       <path d="M 966 1044 
Q 703 1172 562 1401 
Q 422 1631 422 1909 
Q 422 2334 742 2640 
Q 1063 2947 1563 2947 
Q 1972 2947 2272 2747 
L 2878 2747 
Q 3013 2747 3034 2739 
Q 3056 2731 3066 2713 
Q 3084 2684 3084 2613 
Q 3084 2531 3069 2500 
Q 3059 2484 3036 2475 
Q 3013 2466 2878 2466 
L 2506 2466 
Q 2681 2241 2681 1891 
Q 2681 1491 2375 1206 
Q 2069 922 1553 922 
Q 1341 922 1119 984 
Q 981 866 932 777 
Q 884 688 884 625 
Q 884 572 936 522 
Q 988 472 1138 450 
Q 1225 438 1575 428 
Q 2219 413 2409 384 
Q 2700 344 2873 169 
Q 3047 -6 3047 -263 
Q 3047 -616 2716 -925 
Q 2228 -1381 1444 -1381 
Q 841 -1381 425 -1109 
Q 191 -953 191 -784 
Q 191 -709 225 -634 
Q 278 -519 444 -313 
Q 466 -284 763 25 
Q 600 122 533 198 
Q 466 275 466 372 
Q 466 481 555 628 
Q 644 775 966 1044 
z
M 1509 2797 
Q 1278 2797 1122 2612 
Q 966 2428 966 2047 
Q 966 1553 1178 1281 
Q 1341 1075 1591 1075 
Q 1828 1075 1981 1253 
Q 2134 1431 2134 1813 
Q 2134 2309 1919 2591 
Q 1759 2797 1509 2797 
z
M 934 0 
Q 788 -159 713 -296 
Q 638 -434 638 -550 
Q 638 -700 819 -813 
Q 1131 -1006 1722 -1006 
Q 2284 -1006 2551 -807 
Q 2819 -609 2819 -384 
Q 2819 -222 2659 -153 
Q 2497 -84 2016 -72 
Q 1313 -53 934 0 
z
" id="TimesNewRomanPSMT-67" transform="scale(0.015625)"/>
      </defs>
      <use xlink:href="#TimesNewRomanPSMT-56"/>
      <use x="59.341797" xlink:href="#TimesNewRomanPSMT-6f"/>
      <use x="109.341797" xlink:href="#TimesNewRomanPSMT-6c"/>
      <use x="137.125" xlink:href="#TimesNewRomanPSMT-61"/>
      <use x="181.509766" xlink:href="#TimesNewRomanPSMT-74"/>
      <use x="209.292969" xlink:href="#TimesNewRomanPSMT-61"/>
      <use x="253.677734" xlink:href="#TimesNewRomanPSMT-67"/>
      <use x="303.677734" xlink:href="#TimesNewRomanPSMT-65"/>
      <use x="348.0625" xlink:href="#TimesNewRomanPSMT-20"/>
      <use x="373.0625" xlink:href="#TimesNewRomanPSMT-28"/>
      <use x="406.363281" xlink:href="#TimesNewRomanPSMT-56"/>
      <use x="478.580078" xlink:href="#TimesNewRomanPSMT-29"/>
     </g>
    </g>
   </g>
   <g id="LineCollection_1">
    <path clip-path="url(#p174e7b1f1b)" d="M 78.555057 154.067874 
L 382.918693 154.067874 
" style="fill:none;stroke:#1f77b4;stroke-width:1.5;"/>
   </g>
   <g id="line2d_25">
    <path clip-path="url(#p174e7b1f1b)" d="M 78.555057 154.171552 
L 78.676802 154.09823 
L 86.255457 154.061569 
L 86.285893 153.951585 
L 86.377202 154.024907 
L 102.143239 154.061569 
L 102.173675 154.171552 
L 102.234548 154.134891 
L 102.264984 154.061569 
L 102.325857 154.134891 
L 108.839239 154.024907 
L 108.960984 153.988246 
L 109.143602 154.09823 
L 109.295784 153.988246 
L 109.447966 154.024907 
L 109.569711 153.951585 
L 109.600148 153.988246 
L 111.974184 154.061569 
L 112.065493 154.134891 
L 112.09593 154.09823 
L 113.282948 154.208214 
L 113.404693 154.281537 
L 113.496002 154.208214 
L 113.617748 154.318198 
L 113.739493 154.281537 
L 113.861239 154.318198 
L 114.01342 154.354859 
L 114.591711 154.464843 
L 114.77433 154.538166 
L 115.139566 154.64815 
L 115.291748 154.684811 
L 115.322184 154.64815 
L 115.383057 154.721472 
L 115.504802 154.721472 
L 115.839602 154.794795 
L 115.961348 154.904779 
L 116.083093 154.904779 
L 116.509202 155.014763 
L 116.661384 155.088085 
L 116.78313 155.051424 
L 116.965748 155.124747 
L 117.513602 155.234731 
L 117.665784 155.271392 
L 118.244075 155.308053 
L 118.36582 155.418037 
L 118.913675 155.528021 
L 119.03542 155.564683 
L 119.096293 155.528021 
L 119.12673 155.564683 
L 119.278911 155.601344 
L 119.644148 155.711328 
L 119.826766 155.784651 
L 119.918075 155.747989 
L 119.948511 155.784651 
L 120.435493 155.894634 
L 120.648548 156.004618 
L 121.013784 156.114602 
L 121.226839 156.261248 
L 121.257275 156.224586 
L 121.318148 156.297909 
L 121.439893 156.33457 
L 121.987748 156.847829 
L 122.109493 156.957813 
L 123.083457 158.240959 
L 123.266075 158.570911 
L 123.357384 158.680895 
L 123.570439 159.084169 
L 124.118293 160.147347 
L 124.270475 160.477299 
L 124.635711 161.393832 
L 125.48793 163.703495 
L 127.74022 172.245582 
L 129.109857 178.33136 
L 129.779457 181.154283 
L 130.205566 183.060671 
L 132.488293 190.906193 
L 133.005711 191.896049 
L 133.401384 192.262662 
L 133.52313 192.262662 
L 133.979675 192.372646 
L 134.10142 192.409307 
L 134.19273 192.372646 
L 134.223166 192.409307 
L 134.679711 192.299323 
L 134.831893 192.189339 
L 134.953639 192.079355 
L 135.805857 190.942854 
L 136.049348 190.282951 
L 136.140657 190.099644 
L 136.414584 189.109788 
L 136.597202 188.413223 
L 137.11462 186.140222 
L 137.997275 181.374249 
L 139.062548 174.371939 
L 139.701711 169.276016 
L 140.12782 165.426577 
L 143.171457 131.258229 
L 148.193457 66.184393 
L 149.380475 53.206283 
L 150.628366 42.171233 
L 152.150184 33.665804 
L 153.063275 30.732893 
L 153.306766 30.29296 
L 153.51982 29.999666 
L 153.550257 30.036333 
L 153.580693 29.963008 
L 153.793748 29.85303 
L 153.94593 29.926341 
L 154.006802 29.889685 
L 154.037239 29.963008 
L 154.645966 30.842885 
L 155.741675 35.168918 
L 156.776511 42.024584 
L 157.87222 52.143105 
L 159.180984 69.153954 
L 161.098475 100.865996 
L 162.528984 128.691937 
L 168.646693 258.949596 
L 169.468475 273.577465 
L 171.26422 300.046936 
L 172.329493 311.558587 
L 172.846911 315.994612 
L 173.912184 321.750433 
L 174.61222 323.876793 
L 175.37313 324.646677 
L 175.829675 324.536696 
L 176.103602 324.060096 
L 176.62102 322.593652 
L 176.925384 321.603797 
L 177.138439 320.8339 
L 177.473239 319.220808 
L 177.929784 316.544523 
L 179.116802 307.232557 
L 181.551711 279.699905 
L 182.708293 262.982344 
L 184.930148 224.817912 
L 187.09113 186.506835 
L 188.186839 167.516273 
L 190.68262 127.262146 
L 192.082693 107.245063 
L 192.904475 96.943233 
L 193.513202 90.014246 
L 194.304548 82.571999 
L 197.074257 60.098608 
L 198.200402 53.976168 
L 198.991748 50.676649 
L 199.783093 48.220347 
L 200.026584 47.377128 
L 200.361384 46.277291 
L 201.000548 44.994151 
L 201.244039 44.590877 
L 201.517966 44.004295 
L 201.883202 43.637676 
L 201.913639 43.674344 
L 201.974511 43.711002 
L 202.004948 43.674344 
L 202.126693 43.674344 
L 202.248439 43.711002 
L 202.40062 43.674344 
L 202.704984 43.564354 
L 202.857166 43.491028 
L 203.009348 43.527695 
L 203.131093 43.527695 
L 203.313711 43.711002 
L 203.618075 43.930973 
L 203.83113 44.004295 
L 203.922439 44.114276 
L 203.952875 44.077621 
L 204.16593 44.150932 
L 204.378984 44.407573 
L 204.470293 44.517551 
L 205.200766 46.020665 
L 205.444257 46.460598 
L 206.08342 48.257005 
L 206.631275 49.833439 
L 207.118257 51.263228 
L 208.731384 57.458993 
L 209.18793 59.548697 
L 209.827093 62.261626 
L 210.405384 65.08455 
L 211.348911 68.897327 
L 212.20113 72.526798 
L 212.353311 73.113379 
L 213.053348 76.669527 
L 214.483857 84.038449 
L 215.001275 86.971357 
L 216.310039 95.513444 
L 217.436184 102.845708 
L 218.22753 108.271583 
L 220.90593 128.435306 
L 223.097348 147.829145 
L 225.227893 169.422661 
L 231.315166 241.425492 
L 233.597893 264.998713 
L 235.028402 276.143757 
L 236.093675 281.936245 
L 236.64153 283.512682 
L 236.97633 284.319234 
L 237.372002 284.685841 
L 237.524184 284.57586 
L 237.64593 284.465879 
L 238.102475 284.025937 
L 238.132911 284.062604 
L 238.193784 283.989282 
L 238.589457 283.366034 
L 239.015566 282.082893 
L 240.080839 277.830175 
L 241.815711 264.522125 
L 243.702766 245.27493 
L 245.072402 229.253928 
L 246.442039 209.640126 
L 247.994293 185.626963 
L 250.550948 147.315886 
L 252.590184 121.762948 
L 254.568548 103.688915 
L 255.29902 98.629656 
L 255.694693 96.173351 
L 257.06433 90.050911 
L 257.155639 89.830937 
L 257.429566 89.024391 
L 257.551311 88.7311 
L 257.946984 88.034535 
L 258.616584 87.118002 
L 258.829639 86.751389 
L 259.042693 86.494763 
L 259.31662 86.274789 
L 259.347057 86.311453 
L 259.377493 86.238128 
L 259.712293 85.944837 
L 259.74273 85.981498 
L 259.803602 85.908176 
L 259.864475 85.798195 
L 260.199275 85.541569 
L 261.599348 85.651547 
L 262.177639 86.201472 
L 262.268948 86.274789 
L 262.482002 86.56808 
L 262.573311 86.678066 
L 263.029857 87.33797 
L 263.273348 87.81457 
L 263.608148 88.364487 
L 263.882075 88.951068 
L 264.156002 89.427668 
L 264.612548 90.307537 
L 264.67342 90.417524 
L 266.712657 95.550108 
L 267.01702 96.503303 
L 268.538839 102.369108 
L 268.904075 103.908889 
L 269.512802 106.511842 
L 271.70422 117.583557 
L 273.834766 129.755114 
L 276.178366 140.570203 
L 276.39142 141.340091 
L 277.48713 145.702788 
L 277.791493 146.875951 
L 278.278475 148.709016 
L 279.374184 152.265164 
L 281.930839 158.167636 
L 281.991711 158.27762 
L 282.326511 158.82754 
L 282.630875 159.304137 
L 283.17873 159.854057 
L 283.209166 159.817395 
L 283.270039 159.890718 
L 283.51353 160.037363 
L 283.726584 160.110686 
L 283.75702 160.22067 
L 283.84833 160.184009 
L 284.822293 160.074025 
L 284.974475 160.000702 
L 285.09622 160.000702 
L 286.19193 158.534249 
L 286.404984 158.167636 
L 289.570366 150.798711 
L 289.722548 150.468759 
L 290.239966 149.442243 
L 290.270402 149.478904 
L 290.331275 149.405581 
L 290.818257 148.965645 
L 290.970439 148.892323 
L 291.153057 148.709016 
L 291.761784 148.819 
L 292.918366 150.358775 
L 293.283602 151.31197 
L 293.344475 151.385292 
L 293.709711 152.301825 
L 293.80102 152.485132 
L 294.074948 153.328342 
L 294.13582 153.511649 
L 295.383711 158.424265 
L 295.962002 161.247187 
L 297.14902 167.442949 
L 297.696875 170.669145 
L 297.940366 171.952292 
L 301.775348 194.389018 
L 302.049275 195.782148 
L 302.84062 200.108184 
L 303.540657 203.664334 
L 304.879857 209.603465 
L 306.036439 213.379584 
L 306.797348 214.95602 
L 306.85822 215.029337 
L 307.071275 215.285972 
L 307.253893 215.395953 
L 307.406075 215.469276 
L 307.436511 215.432615 
L 307.497384 215.505937 
L 307.710439 215.615924 
L 307.95393 215.762566 
L 307.984366 215.725905 
L 308.014802 215.799228 
L 308.136548 215.87255 
L 308.166984 215.835889 
L 308.501784 215.725905 
L 308.897457 215.395953 
L 309.049639 215.285972 
L 309.658366 214.442759 
L 310.054039 213.379584 
L 310.20622 213.049632 
L 310.480148 212.206419 
L 310.571457 211.986451 
L 311.30193 208.980223 
L 313.797711 193.32584 
L 317.602257 162.16372 
L 318.880584 152.118519 
L 319.976293 143.796399 
L 321.437239 134.044488 
L 325.515711 110.104649 
L 325.911384 108.271583 
L 326.763602 104.678771 
L 326.915784 104.128854 
L 327.220148 102.955694 
L 327.646257 101.415913 
L 327.95062 100.426064 
L 328.28542 99.326221 
L 328.71153 98.043075 
L 329.076766 97.089881 
L 329.259384 96.759929 
L 329.502875 96.283329 
L 330.750766 94.926866 
L 330.994257 94.816879 
L 331.207311 94.670231 
L 331.237748 94.706895 
L 331.29862 94.633569 
L 331.542111 94.486927 
L 331.96822 94.376943 
L 332.120402 94.340279 
L 332.272584 94.376943 
L 333.246548 94.450266 
L 333.39873 94.670231 
L 333.520475 94.780218 
L 333.763966 95.11017 
L 334.250948 95.843399 
L 335.681457 99.032931 
L 335.833639 99.362882 
L 336.65542 101.599223 
L 338.968584 110.361278 
L 340.794766 118.683397 
L 340.916511 119.196655 
L 341.43393 121.689625 
L 341.829602 123.522691 
L 346.547239 146.765966 
L 347.764693 153.438326 
L 350.747457 167.296304 
L 352.664948 173.85868 
L 352.786693 174.15197 
L 354.795493 178.771298 
L 354.82593 178.771298 
L 355.038984 179.284554 
L 355.06942 179.284554 
L 355.282475 179.797813 
L 358.021748 186.140222 
L 358.204366 186.506835 
L 359.056584 188.303239 
L 359.300075 188.743175 
L 359.84793 189.806353 
L 360.030548 190.172967 
L 360.42622 190.869532 
L 361.795857 192.409307 
L 361.85673 192.372646 
L 361.887166 192.409307 
L 362.069784 192.48263 
L 362.374148 192.592614 
L 362.587202 192.702598 
L 362.708948 192.702598 
L 362.86113 192.739259 
L 363.408984 192.629275 
L 363.591602 192.555952 
L 363.987275 192.445968 
L 364.169893 192.372646 
L 364.382948 192.262662 
L 364.626439 192.116016 
L 365.082984 192.006032 
L 365.235166 191.93271 
L 365.356911 191.93271 
L 365.661275 191.822726 
L 365.87433 191.712742 
L 366.087384 191.602758 
L 366.300439 191.492774 
L 366.330875 191.529435 
L 366.361311 191.456113 
L 366.483057 191.38279 
L 366.817857 191.309467 
L 366.939602 191.236145 
L 367.183093 191.126161 
L 367.487457 190.906193 
L 367.517893 190.942854 
L 367.54833 190.906193 
L 367.700511 190.759548 
L 368.248366 190.649564 
L 368.400548 190.576241 
L 368.430984 190.612902 
L 368.491857 190.53958 
L 368.735348 190.356273 
L 368.826657 190.356273 
L 369.070148 190.209628 
L 369.496257 190.099644 
L 369.678875 190.026321 
L 369.922366 189.916337 
L 370.104984 189.696369 
L 370.196293 189.733031 
L 370.378911 189.549724 
L 370.652839 189.43974 
L 370.926766 189.256434 
L 371.048511 189.14645 
L 371.535493 188.706514 
L 371.718111 188.59653 
L 371.992039 188.413223 
L 372.14422 188.303239 
L 372.509457 188.009949 
L 372.661639 187.936626 
L 372.81382 187.75332 
L 372.844257 187.789981 
L 372.90513 187.716658 
L 373.057311 187.643336 
L 373.209493 187.49669 
L 373.331239 187.423368 
L 373.513857 187.240061 
L 375.035675 185.26035 
L 375.735711 183.793896 
L 375.766148 183.830558 
L 375.948766 183.427285 
L 378.079311 178.03807 
L 378.566293 176.64494 
L 378.688039 176.35165 
L 381.640366 165.316593 
L 382.066475 163.336882 
L 382.218657 162.71364 
L 382.736075 160.257331 
L 382.918693 159.414121 
L 382.918693 159.414121 
" style="fill:none;stroke:#0000ff;stroke-linecap:square;stroke-width:1.5;"/>
   </g>
   <g id="line2d_26">
    <path clip-path="url(#p174e7b1f1b)" d="M 78.555057 154.007456 
L 85.738039 154.09911 
L 85.89022 154.135771 
L 86.133711 154.11744 
L 86.346766 154.135771 
L 86.55982 154.135771 
L 89.025166 154.227424 
L 89.177348 154.264086 
L 95.629857 154.37407 
L 95.842911 154.37407 
L 99.860511 154.484054 
L 100.195311 154.575707 
L 100.347493 154.594038 
L 102.021493 155.730538 
L 102.995457 157.068676 
L 103.847675 158.82842 
L 104.760766 161.303058 
L 106.860875 169.295226 
L 107.713093 172.888036 
L 108.230511 175.161036 
L 109.113166 178.918822 
L 109.478402 180.330282 
L 109.965384 182.200011 
L 110.300184 183.281519 
L 111.548075 186.709352 
L 112.856839 188.854039 
L 113.374257 189.037346 
L 113.952548 188.927362 
L 114.43953 188.560748 
L 114.713457 188.084151 
L 116.083093 184.546334 
L 117.422293 178.423894 
L 119.431093 165.665756 
L 123.14433 135.73179 
L 125.48793 116.906203 
L 126.370584 111.315352 
L 127.40542 105.724501 
L 127.953275 102.938241 
L 128.957675 98.630536 
L 129.779457 96.027582 
L 129.992511 95.642636 
L 130.296875 95.056055 
L 130.570802 94.561127 
L 131.149093 93.736247 
L 131.362148 93.626266 
L 132.244802 92.398112 
L 132.488293 92.06816 
L 133.066584 91.848192 
L 133.218766 91.811531 
L 133.401384 91.738208 
L 133.584002 91.591566 
L 134.314475 91.701547 
L 134.649275 91.939845 
L 134.923202 91.976507 
L 135.318875 91.866523 
L 135.623239 91.976507 
L 135.958039 92.306459 
L 136.323275 92.63641 
L 136.44502 92.654741 
L 136.627639 92.654741 
L 137.236366 93.149669 
L 137.662475 93.827906 
L 137.966839 94.286173 
L 138.484257 95.422671 
L 140.371311 103.836446 
L 142.593166 116.466267 
L 144.206293 128.931116 
L 148.863057 169.111919 
L 150.993602 188.61574 
L 153.85462 210.172598 
L 154.341602 212.702226 
L 155.437311 217.468198 
L 155.86342 218.604696 
L 156.685202 220.32778 
L 157.172184 220.749383 
L 157.29393 220.80438 
L 157.841784 221.006018 
L 158.115711 220.896031 
L 158.96793 219.722872 
L 159.272293 219.246271 
L 159.667966 218.604696 
L 160.854984 215.488486 
L 162.285493 209.915963 
L 162.924657 206.781426 
L 164.872584 194.389898 
L 168.068402 172.099816 
L 170.138075 162.641197 
L 170.959857 160.49651 
L 171.629457 159.506654 
L 171.903384 159.213364 
L 172.116439 159.10338 
L 173.36433 159.983251 
L 174.003493 161.248067 
L 174.490475 162.329576 
L 175.525311 165.775739 
L 177.412366 175.399335 
L 180.516875 195.251439 
L 182.951784 207.844599 
L 183.438766 209.659337 
L 183.895311 210.924152 
L 184.717093 212.628904 
L 184.960584 212.885533 
L 185.691057 212.79388 
L 186.147602 212.078987 
L 186.66502 210.557539 
L 187.152002 208.761132 
L 188.217275 203.115292 
L 189.647784 192.923445 
L 190.317384 186.819336 
L 192.204439 165.189158 
L 192.995784 156.152144 
L 193.848002 145.721999 
L 196.556839 114.413233 
L 198.413457 95.441004 
L 199.843966 81.509701 
L 201.244039 69.063183 
L 201.82233 65.067099 
L 203.191966 57.459879 
L 204.561602 52.162316 
L 204.987711 51.392431 
L 205.41382 51.044145 
L 205.779057 51.374097 
L 206.266039 52.473934 
L 206.874766 53.958723 
L 207.300875 55.241863 
L 208.883566 61.345979 
L 209.614039 65.085433 
L 210.10102 67.596727 
L 210.831493 72.161064 
L 212.901166 86.605624 
L 214.54473 98.612202 
L 216.096984 110.618787 
L 218.257966 127.922929 
L 220.997239 146.931822 
L 221.81902 151.972753 
L 222.549493 156.482095 
L 223.49302 161.559688 
L 226.719275 178.442225 
L 229.51942 189.770572 
L 231.61953 195.746367 
L 232.136948 197.267811 
L 232.95873 199.834104 
L 234.20662 203.940171 
L 235.819748 209.366046 
L 236.55022 211.235771 
L 236.945893 212.133976 
L 237.250257 212.830541 
L 238.437275 214.755257 
L 238.89382 215.158535 
L 239.259057 215.268519 
L 239.593857 215.341844 
L 239.806911 215.32351 
L 239.959093 215.3785 
L 240.141711 215.360172 
L 240.32433 215.415161 
L 241.115675 215.50682 
L 241.298293 215.561809 
L 241.511348 215.543475 
L 241.754839 215.561809 
L 241.99833 215.543475 
L 243.459275 215.653462 
L 243.946257 216.075065 
L 245.194148 217.724827 
L 245.559384 218.329739 
L 245.985493 219.007973 
L 246.502911 219.979501 
L 248.481275 223.755614 
L 248.785639 224.342195 
L 252.04233 230.006368 
L 252.590184 230.501296 
L 253.016293 230.629611 
L 253.411966 230.537957 
L 253.655457 230.391309 
L 253.929384 230.281328 
L 254.538111 229.7864 
L 255.63382 227.586724 
L 256.029493 226.358567 
L 256.912148 222.765758 
L 258.464402 213.765402 
L 259.438366 205.938213 
L 260.503639 195.324762 
L 261.964584 177.379047 
L 264.064693 145.447038 
L 266.834402 99.01548 
L 268.660584 70.053039 
L 270.334584 48.331205 
L 271.46073 37.314485 
L 273.012984 26.847682 
L 273.71302 24.006426 
L 274.169566 22.741608 
L 274.656548 22.32 
L 274.991348 22.393323 
L 275.173966 22.503315 
L 275.447893 22.778266 
L 275.874002 23.749797 
L 276.665348 26.48106 
L 277.365384 29.872237 
L 278.795893 40.082417 
L 279.952475 50.769183 
L 281.109057 62.977407 
L 284.244002 100.115322 
L 285.583202 116.429606 
L 290.78782 174.757762 
L 293.070548 195.728036 
L 294.622802 207.019719 
L 296.601166 218.27475 
L 297.605566 223.132371 
L 298.853457 227.916676 
L 300.192657 231.601139 
L 301.044875 232.920946 
L 301.440548 233.232564 
L 302.110148 233.507524 
L 302.292766 233.525855 
L 302.444948 233.507524 
L 302.901493 233.10425 
L 303.17542 232.609322 
L 303.814584 230.81292 
L 304.453748 228.09998 
L 306.097311 218.586368 
L 307.406075 210.062611 
L 309.354002 195.654713 
L 315.410839 156.262127 
L 316.202184 152.174391 
L 317.937057 144.328869 
L 319.154511 140.332785 
L 320.158911 137.638177 
L 320.524148 136.776637 
L 320.980693 135.530153 
L 321.528548 134.485305 
L 322.01553 133.752079 
L 322.411202 133.073844 
L 324.846111 129.975962 
L 325.515711 128.546171 
L 326.307057 126.914742 
L 326.459239 126.566459 
L 327.159275 125.081677 
L 329.228948 119.820778 
L 331.907348 112.08524 
L 332.211711 111.333683 
L 332.546511 110.508803 
L 334.159639 106.879332 
L 335.772766 105.101259 
L 336.777166 104.624664 
L 337.203275 104.514677 
L 337.446766 104.49635 
L 338.08593 104.606331 
L 338.390293 104.807968 
L 338.846839 105.211242 
L 340.459966 108.345788 
L 341.799166 112.708482 
L 342.377457 114.981484 
L 343.077493 117.914389 
L 343.838402 121.598852 
L 344.934111 128.142898 
L 346.12113 136.721645 
L 348.03862 150.872914 
L 349.530002 162.457891 
L 350.869202 172.814712 
L 353.547602 192.923445 
L 354.06502 196.332948 
L 356.16513 209.512695 
L 357.382584 214.846916 
L 358.41742 218.18309 
L 359.51313 220.584407 
L 360.030548 220.767716 
L 360.456657 220.657732 
L 361.734984 218.952981 
L 362.43502 217.486525 
L 363.804657 213.013845 
L 364.900366 207.917924 
L 365.965639 202.253751 
L 367.030911 195.196447 
L 369.618002 174.079528 
L 374.792184 125.209991 
L 375.613966 119.069221 
L 376.283566 114.339911 
L 377.683639 105.009605 
L 378.870657 98.538886 
L 379.448948 95.990921 
L 380.392475 92.489765 
L 381.001202 90.693361 
L 381.914293 88.768639 
L 382.462148 87.980423 
L 382.827384 87.650471 
L 382.918693 87.54049 
L 382.918693 87.54049 
" style="fill:none;stroke:#ff0000;stroke-linecap:square;stroke-width:1.5;"/>
   </g>
   <g id="line2d_27">
    <path clip-path="url(#p174e7b1f1b)" d="M 125.122693 162.640317 
" style="fill:none;stroke:#ffffff;stroke-linecap:square;stroke-width:1.5;"/>
    <defs>
     <path d="M 0 -5 
L -1.12257 -1.545085 
L -4.755283 -1.545085 
L -1.816356 0.59017 
L -2.938926 4.045085 
L -0 1.90983 
L 2.938926 4.045085 
L 1.816356 0.59017 
L 4.755283 -1.545085 
L 1.12257 -1.545085 
z
" id="mc0d5f57796" style="stroke:#ffffff;stroke-linejoin:bevel;"/>
    </defs>
    <g clip-path="url(#p174e7b1f1b)">
     <use style="fill:#0000ff;stroke:#ffffff;stroke-linejoin:bevel;" x="125.122693" xlink:href="#mc0d5f57796" y="162.640317"/>
    </g>
   </g>
   <g id="line2d_28">
    <path clip-path="url(#p174e7b1f1b)" d="M 104.547711 160.661485 
" style="fill:none;stroke:#ffffff;stroke-linecap:square;stroke-width:1.5;"/>
    <defs>
     <path d="M 0 -5 
L -1.12257 -1.545085 
L -4.755283 -1.545085 
L -1.816356 0.59017 
L -2.938926 4.045085 
L -0 1.90983 
L 2.938926 4.045085 
L 1.816356 0.59017 
L 4.755283 -1.545085 
L 1.12257 -1.545085 
z
" id="m735d8f9fa7" style="stroke:#ffffff;stroke-linejoin:bevel;"/>
    </defs>
    <g clip-path="url(#p174e7b1f1b)">
     <use style="fill:#ff0000;stroke:#ffffff;stroke-linejoin:bevel;" x="104.547711" xlink:href="#m735d8f9fa7" y="160.661485"/>
    </g>
   </g>
   <g id="patch_3">
    <path d="M 63.336875 339.84 
L 63.336875 7.2 
" style="fill:none;stroke:#000000;stroke-linecap:square;stroke-linejoin:miter;stroke-width:0.8;"/>
   </g>
   <g id="patch_4">
    <path d="M 398.136875 339.84 
L 398.136875 7.2 
" style="fill:none;stroke:#000000;stroke-linecap:square;stroke-linejoin:miter;stroke-width:0.8;"/>
   </g>
   <g id="patch_5">
    <path d="M 63.336875 339.84 
L 398.136875 339.84 
" style="fill:none;stroke:#000000;stroke-linecap:square;stroke-linejoin:miter;stroke-width:0.8;"/>
   </g>
   <g id="patch_6">
    <path d="M 63.336875 7.2 
L 398.136875 7.2 
" style="fill:none;stroke:#000000;stroke-linecap:square;stroke-linejoin:miter;stroke-width:0.8;"/>
   </g>
   <g id="text_15">
    <g id="patch_7">
     <path d="M 75.036875 331.242688 
L 166.79375 331.242688 
L 166.79375 293.760312 
L 75.036875 293.760312 
z
" style="fill:#ffffff;stroke:#000000;stroke-linejoin:miter;stroke-width:0.75;"/>
    </g>
    <!-- Auto_00105 -->
    <g transform="translate(80.076875 308.521562)scale(0.14 -0.14)">
     <defs>
      <path d="M 2928 1419 
L 1288 1419 
L 1000 750 
Q 894 503 894 381 
Q 894 284 986 211 
Q 1078 138 1384 116 
L 1384 0 
L 50 0 
L 50 116 
Q 316 163 394 238 
Q 553 388 747 847 
L 2238 4334 
L 2347 4334 
L 3822 809 
Q 4000 384 4145 257 
Q 4291 131 4550 116 
L 4550 0 
L 2878 0 
L 2878 116 
Q 3131 128 3220 200 
Q 3309 272 3309 375 
Q 3309 513 3184 809 
L 2928 1419 
z
M 2841 1650 
L 2122 3363 
L 1384 1650 
L 2841 1650 
z
" id="TimesNewRomanPSMT-41" transform="scale(0.015625)"/>
      <path d="M 2709 2863 
L 2709 1128 
Q 2709 631 2732 520 
Q 2756 409 2807 365 
Q 2859 322 2928 322 
Q 3025 322 3147 375 
L 3191 266 
L 2334 -88 
L 2194 -88 
L 2194 519 
Q 1825 119 1631 15 
Q 1438 -88 1222 -88 
Q 981 -88 804 51 
Q 628 191 559 409 
Q 491 628 491 1028 
L 491 2306 
Q 491 2509 447 2587 
Q 403 2666 317 2708 
Q 231 2750 6 2747 
L 6 2863 
L 1009 2863 
L 1009 947 
Q 1009 547 1148 422 
Q 1288 297 1484 297 
Q 1619 297 1789 381 
Q 1959 466 2194 703 
L 2194 2325 
Q 2194 2569 2105 2655 
Q 2016 2741 1734 2747 
L 1734 2863 
L 2709 2863 
z
" id="TimesNewRomanPSMT-75" transform="scale(0.015625)"/>
      <path d="M 3256 -1381 
L -53 -1381 
L -53 -1119 
L 3256 -1119 
L 3256 -1381 
z
" id="TimesNewRomanPSMT-5f" transform="scale(0.015625)"/>
     </defs>
     <use xlink:href="#TimesNewRomanPSMT-41"/>
     <use x="72.216797" xlink:href="#TimesNewRomanPSMT-75"/>
     <use x="122.216797" xlink:href="#TimesNewRomanPSMT-74"/>
     <use x="150" xlink:href="#TimesNewRomanPSMT-6f"/>
     <use x="200" xlink:href="#TimesNewRomanPSMT-5f"/>
     <use x="250" xlink:href="#TimesNewRomanPSMT-30"/>
     <use x="300" xlink:href="#TimesNewRomanPSMT-30"/>
     <use x="350" xlink:href="#TimesNewRomanPSMT-31"/>
     <use x="400" xlink:href="#TimesNewRomanPSMT-30"/>
     <use x="450" xlink:href="#TimesNewRomanPSMT-35"/>
    </g>
    <!-- Vs: 295.70m/s -->
    <g transform="translate(80.076875 323.208)scale(0.14 -0.14)">
     <defs>
      <path d="M 903 2950 
Q 1047 2950 1148 2848 
Q 1250 2747 1250 2603 
Q 1250 2459 1148 2357 
Q 1047 2256 903 2256 
Q 759 2256 657 2357 
Q 556 2459 556 2603 
Q 556 2747 657 2848 
Q 759 2950 903 2950 
z
M 897 609 
Q 1044 609 1145 506 
Q 1247 403 1247 259 
Q 1247 116 1144 14 
Q 1041 -88 897 -88 
Q 753 -88 651 14 
Q 550 116 550 259 
Q 550 403 651 506 
Q 753 609 897 609 
z
" id="TimesNewRomanPSMT-3a" transform="scale(0.015625)"/>
      <path d="M 338 -88 
L 338 28 
Q 744 34 1094 217 
Q 1444 400 1770 856 
Q 2097 1313 2225 1859 
Q 1734 1544 1338 1544 
Q 891 1544 572 1889 
Q 253 2234 253 2806 
Q 253 3363 572 3797 
Q 956 4325 1575 4325 
Q 2097 4325 2469 3894 
Q 2925 3359 2925 2575 
Q 2925 1869 2578 1258 
Q 2231 647 1613 244 
Q 1109 -88 516 -88 
L 338 -88 
z
M 2275 2091 
Q 2331 2497 2331 2741 
Q 2331 3044 2228 3395 
Q 2125 3747 1936 3934 
Q 1747 4122 1506 4122 
Q 1228 4122 1018 3872 
Q 809 3622 809 3128 
Q 809 2469 1088 2097 
Q 1291 1828 1588 1828 
Q 1731 1828 1928 1897 
Q 2125 1966 2275 2091 
z
" id="TimesNewRomanPSMT-39" transform="scale(0.015625)"/>
      <path d="M 644 4238 
L 2916 4238 
L 2916 4119 
L 1503 -88 
L 1153 -88 
L 2419 3728 
L 1253 3728 
Q 900 3728 750 3644 
Q 488 3500 328 3200 
L 238 3234 
L 644 4238 
z
" id="TimesNewRomanPSMT-37" transform="scale(0.015625)"/>
      <path d="M 1794 4444 
L 259 -88 
L 9 -88 
L 1544 4444 
L 1794 4444 
z
" id="TimesNewRomanPSMT-2f" transform="scale(0.015625)"/>
     </defs>
     <use xlink:href="#TimesNewRomanPSMT-56"/>
     <use x="72.216797" xlink:href="#TimesNewRomanPSMT-73"/>
     <use x="111.132812" xlink:href="#TimesNewRomanPSMT-3a"/>
     <use x="138.916016" xlink:href="#TimesNewRomanPSMT-20"/>
     <use x="163.916016" xlink:href="#TimesNewRomanPSMT-32"/>
     <use x="213.916016" xlink:href="#TimesNewRomanPSMT-39"/>
     <use x="263.916016" xlink:href="#TimesNewRomanPSMT-35"/>
     <use x="313.916016" xlink:href="#TimesNewRomanPSMT-2e"/>
     <use x="338.916016" xlink:href="#TimesNewRomanPSMT-37"/>
     <use x="388.916016" xlink:href="#TimesNewRomanPSMT-30"/>
     <use x="438.916016" xlink:href="#TimesNewRomanPSMT-6d"/>
     <use x="516.699219" xlink:href="#TimesNewRomanPSMT-2f"/>
     <use x="544.482422" xlink:href="#TimesNewRomanPSMT-73"/>
    </g>
   </g>
  </g>
 </g>
 <defs>
  <clipPath id="p174e7b1f1b">
   <rect height="332.64" width="334.8" x="63.336875" y="7.2"/>
  </clipPath>
 </defs>
</svg>
