<?xml version="1.0" encoding="utf-8" standalone="no"?>
<!DOCTYPE svg PUBLIC "-//W3C//DTD SVG 1.1//EN"
  "http://www.w3.org/Graphics/SVG/1.1/DTD/svg11.dtd">
<svg height="383.471875pt" version="1.1" viewBox="0 0 421.086875 383.471875" width="421.086875pt" xmlns="http://www.w3.org/2000/svg" xmlns:xlink="http://www.w3.org/1999/xlink">
 <metadata>
  <rdf:RDF xmlns:cc="http://creativecommons.org/ns#" xmlns:dc="http://purl.org/dc/elements/1.1/" xmlns:rdf="http://www.w3.org/1999/02/22-rdf-syntax-ns#">
   <cc:Work>
    <dc:type rdf:resource="http://purl.org/dc/dcmitype/StillImage"/>
    <dc:date>2021-06-11T14:39:38.853872</dc:date>
    <dc:format>image/svg+xml</dc:format>
    <dc:creator>
     <cc:Agent>
      <dc:title>Matplotlib v3.4.2, https://matplotlib.org/</dc:title>
     </cc:Agent>
    </dc:creator>
   </cc:Work>
  </rdf:RDF>
 </metadata>
 <defs>
  <style type="text/css">*{stroke-linecap:butt;stroke-linejoin:round;}</style>
 </defs>
 <g id="figure_1">
  <g id="patch_1">
   <path d="M 0 383.471875 
L 421.086875 383.471875 
L 421.086875 0 
L 0 0 
z
" style="fill:#ffffff;"/>
  </g>
  <g id="axes_1">
   <g id="patch_2">
    <path d="M 63.336875 339.84 
L 398.136875 339.84 
L 398.136875 7.2 
L 63.336875 7.2 
z
" style="fill:#ffffff;"/>
   </g>
   <g id="matplotlib.axis_1">
    <g id="xtick_1">
     <g id="line2d_1">
      <path clip-path="url(#p8fa5330c4e)" d="M 93.773239 339.84 
L 93.773239 7.2 
" style="fill:none;stroke:#000000;stroke-dasharray:0.5,0.825;stroke-dashoffset:0;stroke-width:0.5;"/>
     </g>
     <g id="line2d_2">
      <defs>
       <path d="M 0 0 
L 0 3.5 
" id="m64cf7ad123" style="stroke:#000000;stroke-width:0.8;"/>
      </defs>
      <g>
       <use style="stroke:#000000;stroke-width:0.8;" x="93.773239" xlink:href="#m64cf7ad123" y="339.84"/>
      </g>
     </g>
     <g id="text_1">
      <!-- 0.000 -->
      <g transform="translate(78.023239 356.56125)scale(0.14 -0.14)">
       <defs>
        <path d="M 231 2094 
Q 231 2819 450 3342 
Q 669 3866 1031 4122 
Q 1313 4325 1613 4325 
Q 2100 4325 2488 3828 
Q 2972 3213 2972 2159 
Q 2972 1422 2759 906 
Q 2547 391 2217 158 
Q 1888 -75 1581 -75 
Q 975 -75 572 641 
Q 231 1244 231 2094 
z
M 844 2016 
Q 844 1141 1059 588 
Q 1238 122 1591 122 
Q 1759 122 1940 273 
Q 2122 425 2216 781 
Q 2359 1319 2359 2297 
Q 2359 3022 2209 3506 
Q 2097 3866 1919 4016 
Q 1791 4119 1609 4119 
Q 1397 4119 1231 3928 
Q 1006 3669 925 3112 
Q 844 2556 844 2016 
z
" id="TimesNewRomanPSMT-30" transform="scale(0.015625)"/>
        <path d="M 800 606 
Q 947 606 1047 504 
Q 1147 403 1147 259 
Q 1147 116 1045 14 
Q 944 -88 800 -88 
Q 656 -88 554 14 
Q 453 116 453 259 
Q 453 406 554 506 
Q 656 606 800 606 
z
" id="TimesNewRomanPSMT-2e" transform="scale(0.015625)"/>
       </defs>
       <use xlink:href="#TimesNewRomanPSMT-30"/>
       <use x="50" xlink:href="#TimesNewRomanPSMT-2e"/>
       <use x="75" xlink:href="#TimesNewRomanPSMT-30"/>
       <use x="125" xlink:href="#TimesNewRomanPSMT-30"/>
       <use x="175" xlink:href="#TimesNewRomanPSMT-30"/>
      </g>
     </g>
    </g>
    <g id="xtick_2">
     <g id="line2d_3">
      <path clip-path="url(#p8fa5330c4e)" d="M 154.645966 339.84 
L 154.645966 7.2 
" style="fill:none;stroke:#000000;stroke-dasharray:0.5,0.825;stroke-dashoffset:0;stroke-width:0.5;"/>
     </g>
     <g id="line2d_4">
      <g>
       <use style="stroke:#000000;stroke-width:0.8;" x="154.645966" xlink:href="#m64cf7ad123" y="339.84"/>
      </g>
     </g>
     <g id="text_2">
      <!-- 0.001 -->
      <g transform="translate(138.895966 356.56125)scale(0.14 -0.14)">
       <defs>
        <path d="M 750 3822 
L 1781 4325 
L 1884 4325 
L 1884 747 
Q 1884 391 1914 303 
Q 1944 216 2037 169 
Q 2131 122 2419 116 
L 2419 0 
L 825 0 
L 825 116 
Q 1125 122 1212 167 
Q 1300 213 1334 289 
Q 1369 366 1369 747 
L 1369 3034 
Q 1369 3497 1338 3628 
Q 1316 3728 1258 3775 
Q 1200 3822 1119 3822 
Q 1003 3822 797 3725 
L 750 3822 
z
" id="TimesNewRomanPSMT-31" transform="scale(0.015625)"/>
       </defs>
       <use xlink:href="#TimesNewRomanPSMT-30"/>
       <use x="50" xlink:href="#TimesNewRomanPSMT-2e"/>
       <use x="75" xlink:href="#TimesNewRomanPSMT-30"/>
       <use x="125" xlink:href="#TimesNewRomanPSMT-30"/>
       <use x="175" xlink:href="#TimesNewRomanPSMT-31"/>
      </g>
     </g>
    </g>
    <g id="xtick_3">
     <g id="line2d_5">
      <path clip-path="url(#p8fa5330c4e)" d="M 215.518693 339.84 
L 215.518693 7.2 
" style="fill:none;stroke:#000000;stroke-dasharray:0.5,0.825;stroke-dashoffset:0;stroke-width:0.5;"/>
     </g>
     <g id="line2d_6">
      <g>
       <use style="stroke:#000000;stroke-width:0.8;" x="215.518693" xlink:href="#m64cf7ad123" y="339.84"/>
      </g>
     </g>
     <g id="text_3">
      <!-- 0.002 -->
      <g transform="translate(199.768693 356.56125)scale(0.14 -0.14)">
       <defs>
        <path d="M 2934 816 
L 2638 0 
L 138 0 
L 138 116 
Q 1241 1122 1691 1759 
Q 2141 2397 2141 2925 
Q 2141 3328 1894 3587 
Q 1647 3847 1303 3847 
Q 991 3847 742 3664 
Q 494 3481 375 3128 
L 259 3128 
Q 338 3706 661 4015 
Q 984 4325 1469 4325 
Q 1984 4325 2329 3994 
Q 2675 3663 2675 3213 
Q 2675 2891 2525 2569 
Q 2294 2063 1775 1497 
Q 997 647 803 472 
L 1909 472 
Q 2247 472 2383 497 
Q 2519 522 2628 598 
Q 2738 675 2819 816 
L 2934 816 
z
" id="TimesNewRomanPSMT-32" transform="scale(0.015625)"/>
       </defs>
       <use xlink:href="#TimesNewRomanPSMT-30"/>
       <use x="50" xlink:href="#TimesNewRomanPSMT-2e"/>
       <use x="75" xlink:href="#TimesNewRomanPSMT-30"/>
       <use x="125" xlink:href="#TimesNewRomanPSMT-30"/>
       <use x="175" xlink:href="#TimesNewRomanPSMT-32"/>
      </g>
     </g>
    </g>
    <g id="xtick_4">
     <g id="line2d_7">
      <path clip-path="url(#p8fa5330c4e)" d="M 276.39142 339.84 
L 276.39142 7.2 
" style="fill:none;stroke:#000000;stroke-dasharray:0.5,0.825;stroke-dashoffset:0;stroke-width:0.5;"/>
     </g>
     <g id="line2d_8">
      <g>
       <use style="stroke:#000000;stroke-width:0.8;" x="276.39142" xlink:href="#m64cf7ad123" y="339.84"/>
      </g>
     </g>
     <g id="text_4">
      <!-- 0.003 -->
      <g transform="translate(260.64142 356.56125)scale(0.14 -0.14)">
       <defs>
        <path d="M 325 3431 
Q 506 3859 782 4092 
Q 1059 4325 1472 4325 
Q 1981 4325 2253 3994 
Q 2459 3747 2459 3466 
Q 2459 3003 1878 2509 
Q 2269 2356 2469 2072 
Q 2669 1788 2669 1403 
Q 2669 853 2319 450 
Q 1863 -75 997 -75 
Q 569 -75 414 31 
Q 259 138 259 259 
Q 259 350 332 419 
Q 406 488 509 488 
Q 588 488 669 463 
Q 722 447 909 348 
Q 1097 250 1169 231 
Q 1284 197 1416 197 
Q 1734 197 1970 444 
Q 2206 691 2206 1028 
Q 2206 1275 2097 1509 
Q 2016 1684 1919 1775 
Q 1784 1900 1550 2001 
Q 1316 2103 1072 2103 
L 972 2103 
L 972 2197 
Q 1219 2228 1467 2375 
Q 1716 2522 1828 2728 
Q 1941 2934 1941 3181 
Q 1941 3503 1739 3701 
Q 1538 3900 1238 3900 
Q 753 3900 428 3381 
L 325 3431 
z
" id="TimesNewRomanPSMT-33" transform="scale(0.015625)"/>
       </defs>
       <use xlink:href="#TimesNewRomanPSMT-30"/>
       <use x="50" xlink:href="#TimesNewRomanPSMT-2e"/>
       <use x="75" xlink:href="#TimesNewRomanPSMT-30"/>
       <use x="125" xlink:href="#TimesNewRomanPSMT-30"/>
       <use x="175" xlink:href="#TimesNewRomanPSMT-33"/>
      </g>
     </g>
    </g>
    <g id="xtick_5">
     <g id="line2d_9">
      <path clip-path="url(#p8fa5330c4e)" d="M 337.264148 339.84 
L 337.264148 7.2 
" style="fill:none;stroke:#000000;stroke-dasharray:0.5,0.825;stroke-dashoffset:0;stroke-width:0.5;"/>
     </g>
     <g id="line2d_10">
      <g>
       <use style="stroke:#000000;stroke-width:0.8;" x="337.264148" xlink:href="#m64cf7ad123" y="339.84"/>
      </g>
     </g>
     <g id="text_5">
      <!-- 0.004 -->
      <g transform="translate(321.514148 356.56125)scale(0.14 -0.14)">
       <defs>
        <path d="M 2978 1563 
L 2978 1119 
L 2409 1119 
L 2409 0 
L 1894 0 
L 1894 1119 
L 100 1119 
L 100 1519 
L 2066 4325 
L 2409 4325 
L 2409 1563 
L 2978 1563 
z
M 1894 1563 
L 1894 3666 
L 406 1563 
L 1894 1563 
z
" id="TimesNewRomanPSMT-34" transform="scale(0.015625)"/>
       </defs>
       <use xlink:href="#TimesNewRomanPSMT-30"/>
       <use x="50" xlink:href="#TimesNewRomanPSMT-2e"/>
       <use x="75" xlink:href="#TimesNewRomanPSMT-30"/>
       <use x="125" xlink:href="#TimesNewRomanPSMT-30"/>
       <use x="175" xlink:href="#TimesNewRomanPSMT-34"/>
      </g>
     </g>
    </g>
    <g id="xtick_6">
     <g id="line2d_11">
      <path clip-path="url(#p8fa5330c4e)" d="M 398.136875 339.84 
L 398.136875 7.2 
" style="fill:none;stroke:#000000;stroke-dasharray:0.5,0.825;stroke-dashoffset:0;stroke-width:0.5;"/>
     </g>
     <g id="line2d_12">
      <g>
       <use style="stroke:#000000;stroke-width:0.8;" x="398.136875" xlink:href="#m64cf7ad123" y="339.84"/>
      </g>
     </g>
     <g id="text_6">
      <!-- 0.005 -->
      <g transform="translate(382.386875 356.56125)scale(0.14 -0.14)">
       <defs>
        <path d="M 2778 4238 
L 2534 3706 
L 1259 3706 
L 981 3138 
Q 1809 3016 2294 2522 
Q 2709 2097 2709 1522 
Q 2709 1188 2573 903 
Q 2438 619 2231 419 
Q 2025 219 1772 97 
Q 1413 -75 1034 -75 
Q 653 -75 479 54 
Q 306 184 306 341 
Q 306 428 378 495 
Q 450 563 559 563 
Q 641 563 702 538 
Q 763 513 909 409 
Q 1144 247 1384 247 
Q 1750 247 2026 523 
Q 2303 800 2303 1197 
Q 2303 1581 2056 1914 
Q 1809 2247 1375 2428 
Q 1034 2569 447 2591 
L 1259 4238 
L 2778 4238 
z
" id="TimesNewRomanPSMT-35" transform="scale(0.015625)"/>
       </defs>
       <use xlink:href="#TimesNewRomanPSMT-30"/>
       <use x="50" xlink:href="#TimesNewRomanPSMT-2e"/>
       <use x="75" xlink:href="#TimesNewRomanPSMT-30"/>
       <use x="125" xlink:href="#TimesNewRomanPSMT-30"/>
       <use x="175" xlink:href="#TimesNewRomanPSMT-35"/>
      </g>
     </g>
    </g>
    <g id="text_7">
     <!-- Time (sec) -->
     <g transform="translate(200.858906 373.277188)scale(0.14 -0.14)">
      <defs>
       <path d="M 3703 4238 
L 3750 3244 
L 3631 3244 
Q 3597 3506 3538 3619 
Q 3441 3800 3280 3886 
Q 3119 3972 2856 3972 
L 2259 3972 
L 2259 734 
Q 2259 344 2344 247 
Q 2463 116 2709 116 
L 2856 116 
L 2856 0 
L 1059 0 
L 1059 116 
L 1209 116 
Q 1478 116 1591 278 
Q 1659 378 1659 734 
L 1659 3972 
L 1150 3972 
Q 853 3972 728 3928 
Q 566 3869 450 3700 
Q 334 3531 313 3244 
L 194 3244 
L 244 4238 
L 3703 4238 
z
" id="TimesNewRomanPSMT-54" transform="scale(0.015625)"/>
       <path d="M 928 4444 
Q 1059 4444 1151 4351 
Q 1244 4259 1244 4128 
Q 1244 3997 1151 3903 
Q 1059 3809 928 3809 
Q 797 3809 703 3903 
Q 609 3997 609 4128 
Q 609 4259 701 4351 
Q 794 4444 928 4444 
z
M 1188 2947 
L 1188 647 
Q 1188 378 1227 289 
Q 1266 200 1342 156 
Q 1419 113 1622 113 
L 1622 0 
L 231 0 
L 231 113 
Q 441 113 512 153 
Q 584 194 626 287 
Q 669 381 669 647 
L 669 1750 
Q 669 2216 641 2353 
Q 619 2453 572 2492 
Q 525 2531 444 2531 
Q 356 2531 231 2484 
L 188 2597 
L 1050 2947 
L 1188 2947 
z
" id="TimesNewRomanPSMT-69" transform="scale(0.015625)"/>
       <path d="M 1050 2338 
Q 1363 2650 1419 2697 
Q 1559 2816 1721 2881 
Q 1884 2947 2044 2947 
Q 2313 2947 2506 2790 
Q 2700 2634 2766 2338 
Q 3088 2713 3309 2830 
Q 3531 2947 3766 2947 
Q 3994 2947 4170 2830 
Q 4347 2713 4450 2447 
Q 4519 2266 4519 1878 
L 4519 647 
Q 4519 378 4559 278 
Q 4591 209 4675 161 
Q 4759 113 4950 113 
L 4950 0 
L 3538 0 
L 3538 113 
L 3597 113 
Q 3781 113 3884 184 
Q 3956 234 3988 344 
Q 4000 397 4000 647 
L 4000 1878 
Q 4000 2228 3916 2372 
Q 3794 2572 3525 2572 
Q 3359 2572 3192 2489 
Q 3025 2406 2788 2181 
L 2781 2147 
L 2788 2013 
L 2788 647 
Q 2788 353 2820 281 
Q 2853 209 2943 161 
Q 3034 113 3253 113 
L 3253 0 
L 1806 0 
L 1806 113 
Q 2044 113 2133 169 
Q 2222 225 2256 338 
Q 2272 391 2272 647 
L 2272 1878 
Q 2272 2228 2169 2381 
Q 2031 2581 1784 2581 
Q 1616 2581 1450 2491 
Q 1191 2353 1050 2181 
L 1050 647 
Q 1050 366 1089 281 
Q 1128 197 1204 155 
Q 1281 113 1516 113 
L 1516 0 
L 100 0 
L 100 113 
Q 297 113 375 155 
Q 453 197 493 289 
Q 534 381 534 647 
L 534 1741 
Q 534 2213 506 2350 
Q 484 2453 437 2492 
Q 391 2531 309 2531 
Q 222 2531 100 2484 
L 53 2597 
L 916 2947 
L 1050 2947 
L 1050 2338 
z
" id="TimesNewRomanPSMT-6d" transform="scale(0.015625)"/>
       <path d="M 681 1784 
Q 678 1147 991 784 
Q 1303 422 1725 422 
Q 2006 422 2214 576 
Q 2422 731 2563 1106 
L 2659 1044 
Q 2594 616 2278 264 
Q 1963 -88 1488 -88 
Q 972 -88 605 314 
Q 238 716 238 1394 
Q 238 2128 614 2539 
Q 991 2950 1559 2950 
Q 2041 2950 2350 2633 
Q 2659 2316 2659 1784 
L 681 1784 
z
M 681 1966 
L 2006 1966 
Q 1991 2241 1941 2353 
Q 1863 2528 1708 2628 
Q 1553 2728 1384 2728 
Q 1125 2728 920 2526 
Q 716 2325 681 1966 
z
" id="TimesNewRomanPSMT-65" transform="scale(0.015625)"/>
       <path id="TimesNewRomanPSMT-20" transform="scale(0.015625)"/>
       <path d="M 1988 -1253 
L 1988 -1369 
Q 1516 -1131 1200 -813 
Q 750 -359 506 256 
Q 263 872 263 1534 
Q 263 2503 741 3301 
Q 1219 4100 1988 4444 
L 1988 4313 
Q 1603 4100 1356 3731 
Q 1109 3363 987 2797 
Q 866 2231 866 1616 
Q 866 947 969 400 
Q 1050 -31 1165 -292 
Q 1281 -553 1476 -793 
Q 1672 -1034 1988 -1253 
z
" id="TimesNewRomanPSMT-28" transform="scale(0.015625)"/>
       <path d="M 2050 2947 
L 2050 1972 
L 1947 1972 
Q 1828 2431 1642 2597 
Q 1456 2763 1169 2763 
Q 950 2763 815 2647 
Q 681 2531 681 2391 
Q 681 2216 781 2091 
Q 878 1963 1175 1819 
L 1631 1597 
Q 2266 1288 2266 781 
Q 2266 391 1970 151 
Q 1675 -88 1309 -88 
Q 1047 -88 709 6 
Q 606 38 541 38 
Q 469 38 428 -44 
L 325 -44 
L 325 978 
L 428 978 
Q 516 541 762 319 
Q 1009 97 1316 97 
Q 1531 97 1667 223 
Q 1803 350 1803 528 
Q 1803 744 1651 891 
Q 1500 1038 1047 1263 
Q 594 1488 453 1669 
Q 313 1847 313 2119 
Q 313 2472 555 2709 
Q 797 2947 1181 2947 
Q 1350 2947 1591 2875 
Q 1750 2828 1803 2828 
Q 1853 2828 1881 2850 
Q 1909 2872 1947 2947 
L 2050 2947 
z
" id="TimesNewRomanPSMT-73" transform="scale(0.015625)"/>
       <path d="M 2631 1088 
Q 2516 522 2178 217 
Q 1841 -88 1431 -88 
Q 944 -88 581 321 
Q 219 731 219 1428 
Q 219 2103 620 2525 
Q 1022 2947 1584 2947 
Q 2006 2947 2278 2723 
Q 2550 2500 2550 2259 
Q 2550 2141 2473 2067 
Q 2397 1994 2259 1994 
Q 2075 1994 1981 2113 
Q 1928 2178 1911 2362 
Q 1894 2547 1784 2644 
Q 1675 2738 1481 2738 
Q 1169 2738 978 2506 
Q 725 2200 725 1697 
Q 725 1184 976 792 
Q 1228 400 1656 400 
Q 1963 400 2206 609 
Q 2378 753 2541 1131 
L 2631 1088 
z
" id="TimesNewRomanPSMT-63" transform="scale(0.015625)"/>
       <path d="M 144 4313 
L 144 4444 
Q 619 4209 934 3891 
Q 1381 3434 1625 2820 
Q 1869 2206 1869 1541 
Q 1869 572 1392 -226 
Q 916 -1025 144 -1369 
L 144 -1253 
Q 528 -1038 776 -670 
Q 1025 -303 1145 264 
Q 1266 831 1266 1447 
Q 1266 2113 1163 2663 
Q 1084 3094 967 3353 
Q 850 3613 656 3853 
Q 463 4094 144 4313 
z
" id="TimesNewRomanPSMT-29" transform="scale(0.015625)"/>
      </defs>
      <use xlink:href="#TimesNewRomanPSMT-54"/>
      <use x="57.583984" xlink:href="#TimesNewRomanPSMT-69"/>
      <use x="85.367188" xlink:href="#TimesNewRomanPSMT-6d"/>
      <use x="163.150391" xlink:href="#TimesNewRomanPSMT-65"/>
      <use x="207.535156" xlink:href="#TimesNewRomanPSMT-20"/>
      <use x="232.535156" xlink:href="#TimesNewRomanPSMT-28"/>
      <use x="265.835938" xlink:href="#TimesNewRomanPSMT-73"/>
      <use x="304.751953" xlink:href="#TimesNewRomanPSMT-65"/>
      <use x="349.136719" xlink:href="#TimesNewRomanPSMT-63"/>
      <use x="393.521484" xlink:href="#TimesNewRomanPSMT-29"/>
     </g>
    </g>
   </g>
   <g id="matplotlib.axis_2">
    <g id="ytick_1">
     <g id="line2d_13">
      <path clip-path="url(#p8fa5330c4e)" d="M 63.336875 321.838959 
L 398.136875 321.838959 
" style="fill:none;stroke:#000000;stroke-dasharray:0.5,0.825;stroke-dashoffset:0;stroke-width:0.5;"/>
     </g>
     <g id="line2d_14">
      <defs>
       <path d="M 0 0 
L -3.5 0 
" id="md7a52da78b" style="stroke:#000000;stroke-width:0.8;"/>
      </defs>
      <g>
       <use style="stroke:#000000;stroke-width:0.8;" x="63.336875" xlink:href="#md7a52da78b" y="321.838959"/>
      </g>
     </g>
     <g id="text_8">
      <!-- −0.06 -->
      <g transform="translate(23.942188 326.699584)scale(0.14 -0.14)">
       <defs>
        <path d="M 3484 2000 
L 116 2000 
L 116 2256 
L 3484 2256 
L 3484 2000 
z
" id="TimesNewRomanPSMT-2212" transform="scale(0.015625)"/>
        <path d="M 2869 4325 
L 2869 4209 
Q 2456 4169 2195 4045 
Q 1934 3922 1679 3669 
Q 1425 3416 1258 3105 
Q 1091 2794 978 2366 
Q 1428 2675 1881 2675 
Q 2316 2675 2634 2325 
Q 2953 1975 2953 1425 
Q 2953 894 2631 456 
Q 2244 -75 1606 -75 
Q 1172 -75 869 213 
Q 275 772 275 1663 
Q 275 2231 503 2743 
Q 731 3256 1154 3653 
Q 1578 4050 1965 4187 
Q 2353 4325 2688 4325 
L 2869 4325 
z
M 925 2138 
Q 869 1716 869 1456 
Q 869 1156 980 804 
Q 1091 453 1309 247 
Q 1469 100 1697 100 
Q 1969 100 2183 356 
Q 2397 613 2397 1088 
Q 2397 1622 2184 2012 
Q 1972 2403 1581 2403 
Q 1463 2403 1327 2353 
Q 1191 2303 925 2138 
z
" id="TimesNewRomanPSMT-36" transform="scale(0.015625)"/>
       </defs>
       <use xlink:href="#TimesNewRomanPSMT-2212"/>
       <use x="56.396484" xlink:href="#TimesNewRomanPSMT-30"/>
       <use x="106.396484" xlink:href="#TimesNewRomanPSMT-2e"/>
       <use x="131.396484" xlink:href="#TimesNewRomanPSMT-30"/>
       <use x="181.396484" xlink:href="#TimesNewRomanPSMT-36"/>
      </g>
     </g>
    </g>
    <g id="ytick_2">
     <g id="line2d_15">
      <path clip-path="url(#p8fa5330c4e)" d="M 63.336875 267.167662 
L 398.136875 267.167662 
" style="fill:none;stroke:#000000;stroke-dasharray:0.5,0.825;stroke-dashoffset:0;stroke-width:0.5;"/>
     </g>
     <g id="line2d_16">
      <g>
       <use style="stroke:#000000;stroke-width:0.8;" x="63.336875" xlink:href="#md7a52da78b" y="267.167662"/>
      </g>
     </g>
     <g id="text_9">
      <!-- −0.04 -->
      <g transform="translate(23.942188 272.028287)scale(0.14 -0.14)">
       <use xlink:href="#TimesNewRomanPSMT-2212"/>
       <use x="56.396484" xlink:href="#TimesNewRomanPSMT-30"/>
       <use x="106.396484" xlink:href="#TimesNewRomanPSMT-2e"/>
       <use x="131.396484" xlink:href="#TimesNewRomanPSMT-30"/>
       <use x="181.396484" xlink:href="#TimesNewRomanPSMT-34"/>
      </g>
     </g>
    </g>
    <g id="ytick_3">
     <g id="line2d_17">
      <path clip-path="url(#p8fa5330c4e)" d="M 63.336875 212.496365 
L 398.136875 212.496365 
" style="fill:none;stroke:#000000;stroke-dasharray:0.5,0.825;stroke-dashoffset:0;stroke-width:0.5;"/>
     </g>
     <g id="line2d_18">
      <g>
       <use style="stroke:#000000;stroke-width:0.8;" x="63.336875" xlink:href="#md7a52da78b" y="212.496365"/>
      </g>
     </g>
     <g id="text_10">
      <!-- −0.02 -->
      <g transform="translate(23.942188 217.35699)scale(0.14 -0.14)">
       <use xlink:href="#TimesNewRomanPSMT-2212"/>
       <use x="56.396484" xlink:href="#TimesNewRomanPSMT-30"/>
       <use x="106.396484" xlink:href="#TimesNewRomanPSMT-2e"/>
       <use x="131.396484" xlink:href="#TimesNewRomanPSMT-30"/>
       <use x="181.396484" xlink:href="#TimesNewRomanPSMT-32"/>
      </g>
     </g>
    </g>
    <g id="ytick_4">
     <g id="line2d_19">
      <path clip-path="url(#p8fa5330c4e)" d="M 63.336875 157.825068 
L 398.136875 157.825068 
" style="fill:none;stroke:#000000;stroke-dasharray:0.5,0.825;stroke-dashoffset:0;stroke-width:0.5;"/>
     </g>
     <g id="line2d_20">
      <g>
       <use style="stroke:#000000;stroke-width:0.8;" x="63.336875" xlink:href="#md7a52da78b" y="157.825068"/>
      </g>
     </g>
     <g id="text_11">
      <!-- 0.00 -->
      <g transform="translate(31.836875 162.685693)scale(0.14 -0.14)">
       <use xlink:href="#TimesNewRomanPSMT-30"/>
       <use x="50" xlink:href="#TimesNewRomanPSMT-2e"/>
       <use x="75" xlink:href="#TimesNewRomanPSMT-30"/>
       <use x="125" xlink:href="#TimesNewRomanPSMT-30"/>
      </g>
     </g>
    </g>
    <g id="ytick_5">
     <g id="line2d_21">
      <path clip-path="url(#p8fa5330c4e)" d="M 63.336875 103.153771 
L 398.136875 103.153771 
" style="fill:none;stroke:#000000;stroke-dasharray:0.5,0.825;stroke-dashoffset:0;stroke-width:0.5;"/>
     </g>
     <g id="line2d_22">
      <g>
       <use style="stroke:#000000;stroke-width:0.8;" x="63.336875" xlink:href="#md7a52da78b" y="103.153771"/>
      </g>
     </g>
     <g id="text_12">
      <!-- 0.02 -->
      <g transform="translate(31.836875 108.014396)scale(0.14 -0.14)">
       <use xlink:href="#TimesNewRomanPSMT-30"/>
       <use x="50" xlink:href="#TimesNewRomanPSMT-2e"/>
       <use x="75" xlink:href="#TimesNewRomanPSMT-30"/>
       <use x="125" xlink:href="#TimesNewRomanPSMT-32"/>
      </g>
     </g>
    </g>
    <g id="ytick_6">
     <g id="line2d_23">
      <path clip-path="url(#p8fa5330c4e)" d="M 63.336875 48.482474 
L 398.136875 48.482474 
" style="fill:none;stroke:#000000;stroke-dasharray:0.5,0.825;stroke-dashoffset:0;stroke-width:0.5;"/>
     </g>
     <g id="line2d_24">
      <g>
       <use style="stroke:#000000;stroke-width:0.8;" x="63.336875" xlink:href="#md7a52da78b" y="48.482474"/>
      </g>
     </g>
     <g id="text_13">
      <!-- 0.04 -->
      <g transform="translate(31.836875 53.343099)scale(0.14 -0.14)">
       <use xlink:href="#TimesNewRomanPSMT-30"/>
       <use x="50" xlink:href="#TimesNewRomanPSMT-2e"/>
       <use x="75" xlink:href="#TimesNewRomanPSMT-30"/>
       <use x="125" xlink:href="#TimesNewRomanPSMT-34"/>
      </g>
     </g>
    </g>
    <g id="text_14">
     <!-- Volatage (V) -->
     <g transform="translate(16.92125 209.352344)rotate(-90)scale(0.14 -0.14)">
      <defs>
       <path d="M 4544 4238 
L 4544 4122 
Q 4319 4081 4203 3978 
Q 4038 3825 3909 3509 
L 2431 -97 
L 2316 -97 
L 728 3556 
Q 606 3838 556 3900 
Q 478 3997 364 4051 
Q 250 4106 56 4122 
L 56 4238 
L 1788 4238 
L 1788 4122 
Q 1494 4094 1406 4022 
Q 1319 3950 1319 3838 
Q 1319 3681 1463 3350 
L 2541 866 
L 3541 3319 
Q 3688 3681 3688 3822 
Q 3688 3913 3597 3995 
Q 3506 4078 3291 4113 
Q 3275 4116 3238 4122 
L 3238 4238 
L 4544 4238 
z
" id="TimesNewRomanPSMT-56" transform="scale(0.015625)"/>
       <path d="M 1600 2947 
Q 2250 2947 2644 2453 
Q 2978 2031 2978 1484 
Q 2978 1100 2793 706 
Q 2609 313 2286 112 
Q 1963 -88 1566 -88 
Q 919 -88 538 428 
Q 216 863 216 1403 
Q 216 1797 411 2186 
Q 606 2575 925 2761 
Q 1244 2947 1600 2947 
z
M 1503 2744 
Q 1338 2744 1170 2645 
Q 1003 2547 900 2300 
Q 797 2053 797 1666 
Q 797 1041 1045 587 
Q 1294 134 1700 134 
Q 2003 134 2200 384 
Q 2397 634 2397 1244 
Q 2397 2006 2069 2444 
Q 1847 2744 1503 2744 
z
" id="TimesNewRomanPSMT-6f" transform="scale(0.015625)"/>
       <path d="M 1184 4444 
L 1184 647 
Q 1184 378 1223 290 
Q 1263 203 1344 158 
Q 1425 113 1647 113 
L 1647 0 
L 244 0 
L 244 113 
Q 441 113 512 153 
Q 584 194 625 287 
Q 666 381 666 647 
L 666 3247 
Q 666 3731 644 3842 
Q 622 3953 573 3993 
Q 525 4034 450 4034 
Q 369 4034 244 3984 
L 191 4094 
L 1044 4444 
L 1184 4444 
z
" id="TimesNewRomanPSMT-6c" transform="scale(0.015625)"/>
       <path d="M 1822 413 
Q 1381 72 1269 19 
Q 1100 -59 909 -59 
Q 613 -59 420 144 
Q 228 347 228 678 
Q 228 888 322 1041 
Q 450 1253 767 1440 
Q 1084 1628 1822 1897 
L 1822 2009 
Q 1822 2438 1686 2597 
Q 1550 2756 1291 2756 
Q 1094 2756 978 2650 
Q 859 2544 859 2406 
L 866 2225 
Q 866 2081 792 2003 
Q 719 1925 600 1925 
Q 484 1925 411 2006 
Q 338 2088 338 2228 
Q 338 2497 613 2722 
Q 888 2947 1384 2947 
Q 1766 2947 2009 2819 
Q 2194 2722 2281 2516 
Q 2338 2381 2338 1966 
L 2338 994 
Q 2338 584 2353 492 
Q 2369 400 2405 369 
Q 2441 338 2488 338 
Q 2538 338 2575 359 
Q 2641 400 2828 588 
L 2828 413 
Q 2478 -56 2159 -56 
Q 2006 -56 1915 50 
Q 1825 156 1822 413 
z
M 1822 616 
L 1822 1706 
Q 1350 1519 1213 1441 
Q 966 1303 859 1153 
Q 753 1003 753 825 
Q 753 600 887 451 
Q 1022 303 1197 303 
Q 1434 303 1822 616 
z
" id="TimesNewRomanPSMT-61" transform="scale(0.015625)"/>
       <path d="M 1031 3803 
L 1031 2863 
L 1700 2863 
L 1700 2644 
L 1031 2644 
L 1031 788 
Q 1031 509 1111 412 
Q 1191 316 1316 316 
Q 1419 316 1516 380 
Q 1613 444 1666 569 
L 1788 569 
Q 1678 263 1478 108 
Q 1278 -47 1066 -47 
Q 922 -47 784 33 
Q 647 113 581 261 
Q 516 409 516 719 
L 516 2644 
L 63 2644 
L 63 2747 
Q 234 2816 414 2980 
Q 594 3144 734 3369 
Q 806 3488 934 3803 
L 1031 3803 
z
" id="TimesNewRomanPSMT-74" transform="scale(0.015625)"/>
       <path d="M 966 1044 
Q 703 1172 562 1401 
Q 422 1631 422 1909 
Q 422 2334 742 2640 
Q 1063 2947 1563 2947 
Q 1972 2947 2272 2747 
L 2878 2747 
Q 3013 2747 3034 2739 
Q 3056 2731 3066 2713 
Q 3084 2684 3084 2613 
Q 3084 2531 3069 2500 
Q 3059 2484 3036 2475 
Q 3013 2466 2878 2466 
L 2506 2466 
Q 2681 2241 2681 1891 
Q 2681 1491 2375 1206 
Q 2069 922 1553 922 
Q 1341 922 1119 984 
Q 981 866 932 777 
Q 884 688 884 625 
Q 884 572 936 522 
Q 988 472 1138 450 
Q 1225 438 1575 428 
Q 2219 413 2409 384 
Q 2700 344 2873 169 
Q 3047 -6 3047 -263 
Q 3047 -616 2716 -925 
Q 2228 -1381 1444 -1381 
Q 841 -1381 425 -1109 
Q 191 -953 191 -784 
Q 191 -709 225 -634 
Q 278 -519 444 -313 
Q 466 -284 763 25 
Q 600 122 533 198 
Q 466 275 466 372 
Q 466 481 555 628 
Q 644 775 966 1044 
z
M 1509 2797 
Q 1278 2797 1122 2612 
Q 966 2428 966 2047 
Q 966 1553 1178 1281 
Q 1341 1075 1591 1075 
Q 1828 1075 1981 1253 
Q 2134 1431 2134 1813 
Q 2134 2309 1919 2591 
Q 1759 2797 1509 2797 
z
M 934 0 
Q 788 -159 713 -296 
Q 638 -434 638 -550 
Q 638 -700 819 -813 
Q 1131 -1006 1722 -1006 
Q 2284 -1006 2551 -807 
Q 2819 -609 2819 -384 
Q 2819 -222 2659 -153 
Q 2497 -84 2016 -72 
Q 1313 -53 934 0 
z
" id="TimesNewRomanPSMT-67" transform="scale(0.015625)"/>
      </defs>
      <use xlink:href="#TimesNewRomanPSMT-56"/>
      <use x="59.341797" xlink:href="#TimesNewRomanPSMT-6f"/>
      <use x="109.341797" xlink:href="#TimesNewRomanPSMT-6c"/>
      <use x="137.125" xlink:href="#TimesNewRomanPSMT-61"/>
      <use x="181.509766" xlink:href="#TimesNewRomanPSMT-74"/>
      <use x="209.292969" xlink:href="#TimesNewRomanPSMT-61"/>
      <use x="253.677734" xlink:href="#TimesNewRomanPSMT-67"/>
      <use x="303.677734" xlink:href="#TimesNewRomanPSMT-65"/>
      <use x="348.0625" xlink:href="#TimesNewRomanPSMT-20"/>
      <use x="373.0625" xlink:href="#TimesNewRomanPSMT-28"/>
      <use x="406.363281" xlink:href="#TimesNewRomanPSMT-56"/>
      <use x="478.580078" xlink:href="#TimesNewRomanPSMT-29"/>
     </g>
    </g>
   </g>
   <g id="LineCollection_1">
    <path clip-path="url(#p8fa5330c4e)" d="M 78.555057 157.825068 
L 382.918693 157.825068 
" style="fill:none;stroke:#1f77b4;stroke-width:1.5;"/>
   </g>
   <g id="line2d_25">
    <path clip-path="url(#p8fa5330c4e)" d="M 78.555057 157.835865 
L 86.133711 157.767526 
L 86.255457 157.733357 
L 86.346766 157.767526 
L 86.377202 157.733357 
L 90.760039 157.630848 
L 90.881784 157.630848 
L 107.104366 157.562509 
L 107.165239 157.49417 
L 107.195675 157.562509 
L 111.700257 157.630848 
L 111.822002 157.665018 
L 113.069893 157.767526 
L 113.161202 157.801696 
L 113.191639 157.767526 
L 113.982984 157.835865 
L 114.10473 157.870035 
L 114.743893 157.972544 
L 114.926511 158.040883 
L 115.565675 158.143391 
L 115.717857 158.177561 
L 116.083093 158.28007 
L 116.204839 158.28007 
L 116.844002 158.382578 
L 117.02662 158.450918 
L 117.148366 158.450918 
L 117.300548 158.485087 
L 118.000584 158.553426 
L 118.12233 158.587596 
L 118.244075 158.621765 
L 118.36582 158.587596 
L 118.487566 158.690104 
L 118.609311 158.690104 
L 119.46153 158.724274 
L 119.522402 158.826783 
L 119.583275 158.792613 
L 119.613711 158.758444 
L 119.674584 158.826783 
L 120.587675 158.929291 
L 120.739857 158.997631 
L 120.861602 158.997631 
L 121.074657 159.100139 
L 121.439893 159.168478 
L 121.561639 159.270987 
L 121.592075 159.236817 
L 121.652948 159.305157 
L 121.80513 159.407665 
L 121.835566 159.373496 
L 121.896439 159.441835 
L 122.200802 159.646852 
L 122.322548 159.749361 
L 124.240039 162.038721 
L 124.666148 162.756282 
L 124.848766 163.097978 
L 126.218402 166.378255 
L 126.461893 167.129986 
L 128.257639 173.553863 
L 129.444657 178.405941 
L 129.962075 180.524454 
L 130.41862 182.472118 
L 131.027348 184.863987 
L 131.453457 186.640806 
L 131.605639 187.187518 
L 132.09262 188.930166 
L 132.549166 190.16027 
L 132.823093 190.912 
L 133.127457 191.561222 
L 133.52313 192.210444 
L 134.679711 193.372209 
L 134.923202 193.474717 
L 135.075384 193.543056 
L 135.166693 193.543056 
L 135.318875 193.577226 
L 135.744984 193.474717 
L 136.292839 192.757157 
L 136.688511 191.766239 
L 136.810257 191.527052 
L 138.027711 187.05084 
L 139.062548 181.925406 
L 139.88433 176.697462 
L 141.375711 164.123065 
L 142.410548 153.872196 
L 145.667239 116.114829 
L 146.184657 109.622615 
L 147.310802 95.783943 
L 148.436948 82.047783 
L 150.50662 60.042585 
L 151.17622 54.370433 
L 152.758911 44.461266 
L 153.063275 43.060317 
L 153.672002 40.805117 
L 154.037239 39.950878 
L 154.341602 39.472507 
L 154.463348 39.370001 
L 154.645966 39.199145 
L 154.737275 39.23332 
L 154.85902 39.199145 
L 155.041639 39.267487 
L 155.19382 39.370001 
L 156.319966 42.103561 
L 157.233057 46.68229 
L 158.237457 54.131246 
L 159.63753 69.370876 
L 162.285493 109.588446 
L 163.98993 142.152037 
L 168.768439 241.756309 
L 170.625057 275.105795 
L 171.720766 291.746371 
L 172.846911 305.448368 
L 173.486075 311.428035 
L 174.551348 318.945344 
L 174.794839 320.141273 
L 175.220948 321.98643 
L 175.37313 322.567318 
L 175.981857 324.275796 
L 176.37753 324.583322 
L 176.71233 324.617497 
L 176.742766 324.72 
L 176.834075 324.685825 
L 176.925384 324.72 
L 176.95582 324.685825 
L 177.138439 324.617497 
L 178.112402 322.225628 
L 178.995057 317.817746 
L 180.242948 308.660312 
L 180.97342 302.065581 
L 181.947384 291.097155 
L 182.677857 281.73469 
L 184.382293 255.253286 
L 187.578111 199.625238 
L 189.586911 163.405504 
L 191.534839 130.397708 
L 193.269711 104.804707 
L 194.761093 87.71993 
L 196.70902 69.131689 
L 197.013384 66.842325 
L 197.652548 62.092751 
L 198.200402 59.154171 
L 198.47433 57.855725 
L 199.14393 54.712134 
L 199.38742 53.926237 
L 199.843966 52.354432 
L 200.81793 49.450013 
L 201.73102 47.639032 
L 201.913639 47.536526 
L 202.06582 47.502351 
L 202.187566 47.502351 
L 202.583239 47.399848 
L 202.765857 47.263167 
L 202.796293 47.297342 
L 203.344148 47.399848 
L 203.526766 47.570693 
L 203.800693 47.775713 
L 203.892002 47.741538 
L 204.013748 47.844052 
L 204.044184 47.775713 
L 204.105057 47.844052 
L 204.226802 47.912394 
L 204.470293 48.254084 
L 204.531166 48.35659 
L 204.713784 48.698291 
L 204.926839 49.176662 
L 205.200766 49.791715 
L 205.261639 49.860056 
L 205.596439 50.645954 
L 205.657311 50.816799 
L 207.970475 58.983326 
L 208.609639 61.956081 
L 209.52273 66.534799 
L 210.86193 73.437056 
L 211.135857 74.701324 
L 211.988075 78.90418 
L 212.322875 80.407641 
L 213.936002 88.881692 
L 214.11862 89.872612 
L 216.949202 106.37651 
L 217.436184 108.905055 
L 220.81462 128.484213 
L 221.727711 133.883002 
L 222.366875 138.051691 
L 223.24953 144.133871 
L 224.740911 154.931453 
L 225.532257 161.081974 
L 225.988802 164.874795 
L 228.058475 184.453953 
L 230.097711 206.185794 
L 234.63273 255.868338 
L 236.428475 271.039623 
L 237.372002 276.6776 
L 237.524184 277.224313 
L 238.011166 278.966953 
L 238.22422 279.650347 
L 238.528584 280.6071 
L 238.65033 280.880451 
L 238.954693 281.324658 
L 239.076439 281.427164 
L 239.350366 281.803029 
L 239.715602 282.076391 
L 239.98953 282.008049 
L 240.23302 281.529678 
L 240.354766 281.290494 
L 240.689566 280.538761 
L 241.115675 279.342821 
L 241.450475 277.87353 
L 243.063602 268.203549 
L 245.163711 250.879579 
L 247.93342 215.309064 
L 249.485675 192.654648 
L 250.733566 174.408103 
L 251.768402 159.886039 
L 254.568548 126.639057 
L 256.577348 109.588446 
L 257.825239 103.198738 
L 259.31662 98.55168 
L 259.468802 98.244154 
L 260.41233 96.364826 
L 261.264548 95.544759 
L 261.477602 95.442248 
L 261.599348 95.408078 
L 261.721093 95.408078 
L 262.208075 95.510587 
L 262.360257 95.613093 
L 262.542875 95.715604 
L 263.060293 96.159811 
L 263.182039 96.262314 
L 263.42553 96.569843 
L 263.516839 96.672352 
L 264.521239 97.936628 
L 264.947348 98.654184 
L 265.221275 99.064221 
L 265.43433 99.405917 
L 266.560475 101.695277 
L 266.743093 102.036973 
L 267.077893 102.788706 
L 267.199639 103.062062 
L 267.899675 105.043894 
L 268.386657 106.342337 
L 268.751893 107.504103 
L 269.086693 108.495023 
L 270.03022 111.296921 
L 270.273711 112.048654 
L 270.943311 114.577199 
L 271.521602 116.866562 
L 272.160766 119.839314 
L 272.495566 121.342775 
L 273.073857 124.04217 
L 273.195602 124.554713 
L 273.591275 126.263191 
L 274.504366 129.885165 
L 275.569639 133.848835 
L 276.05662 135.557311 
L 276.269675 136.274871 
L 276.72622 137.846672 
L 276.939275 138.564234 
L 279.648111 147.37998 
L 279.678548 147.37998 
L 279.982911 148.268388 
L 280.469893 149.532662 
L 280.591639 149.806019 
L 281.443857 151.958701 
L 281.778657 152.710431 
L 282.965675 155.17064 
L 283.056984 155.273148 
L 283.361348 155.717353 
L 283.391784 155.683183 
L 283.42222 155.785692 
L 283.51353 155.888201 
L 284.365748 156.70827 
L 284.639675 156.810779 
L 284.822293 156.913287 
L 284.913602 156.879118 
L 284.883166 156.981626 
L 284.944039 156.913287 
L 285.157093 157.015796 
L 285.278839 156.913287 
L 285.370148 156.947457 
L 285.400584 156.913287 
L 285.704948 156.70827 
L 285.85713 156.639931 
L 286.070184 156.366574 
L 286.10062 156.400744 
L 286.131057 156.298235 
L 286.678911 155.580674 
L 286.952839 155.033962 
L 287.074584 154.760605 
L 288.292039 151.822023 
L 288.626839 150.796936 
L 289.44862 148.405067 
L 289.813857 147.345811 
L 290.179093 146.184045 
L 290.635639 145.022281 
L 291.913966 142.357054 
L 292.035711 142.288715 
L 292.340075 141.844511 
L 292.827057 141.434476 
L 293.405348 141.331968 
L 293.496657 141.297798 
L 293.527093 141.331968 
L 294.13582 141.434476 
L 294.89673 142.425393 
L 295.931566 144.953942 
L 296.357675 146.389062 
L 296.540293 147.004114 
L 298.48822 156.229896 
L 302.231893 182.164592 
L 303.236293 190.194439 
L 306.006002 211.140377 
L 308.62353 225.218242 
L 308.806148 225.867458 
L 309.171384 227.336755 
L 309.323566 227.883468 
L 309.658366 228.908549 
L 310.054039 229.865299 
L 310.20622 230.138656 
L 310.510584 230.787878 
L 310.571457 230.856217 
L 310.845384 231.232085 
L 310.87582 231.197915 
L 310.906257 231.266249 
L 311.119311 231.36876 
L 311.241057 231.334591 
L 311.454111 231.232085 
L 311.606293 231.129573 
L 312.275893 230.241165 
L 312.488948 229.728624 
L 313.006366 228.361839 
L 313.341166 227.302585 
L 313.584657 226.550852 
L 314.771675 220.742024 
L 315.410839 216.539168 
L 316.841348 206.151624 
L 319.124075 187.358366 
L 321.68073 165.387339 
L 326.246184 130.363539 
L 327.311457 123.939661 
L 329.350693 113.073738 
L 329.472439 112.561198 
L 329.898548 110.750211 
L 333.368293 99.440089 
L 333.97702 98.278324 
L 334.037893 98.209982 
L 334.372693 97.697441 
L 335.559711 96.467337 
L 335.590148 96.501501 
L 335.65102 96.433168 
L 335.833639 96.228145 
L 336.07713 96.159811 
L 336.229311 96.0573 
L 336.41193 95.988961 
L 337.477202 96.091469 
L 337.720693 96.228145 
L 337.872875 96.296487 
L 338.055493 96.467337 
L 338.816402 97.458249 
L 339.272948 98.244154 
L 339.486002 98.620014 
L 339.75993 99.200902 
L 339.942548 99.542592 
L 340.67302 100.94355 
L 340.855639 101.285245 
L 341.312184 102.44701 
L 341.43393 102.720364 
L 342.042657 104.326331 
L 342.377457 105.35142 
L 342.43833 105.522265 
L 345.238475 115.294762 
L 345.725457 117.413275 
L 346.882039 123.085422 
L 347.277711 125.340613 
L 352.451893 153.769688 
L 354.308511 161.662856 
L 354.460693 162.243739 
L 354.82593 163.67886 
L 355.83033 167.710869 
L 356.317311 169.726872 
L 357.41302 174.203086 
L 357.565202 174.749797 
L 358.660911 179.191841 
L 358.813093 179.772724 
L 359.634875 182.984662 
L 360.213166 185.308191 
L 360.730584 187.221688 
L 360.791457 187.426705 
L 362.495893 192.791326 
L 362.587202 193.030513 
L 365.630839 199.625238 
L 365.843893 200.001103 
L 366.270002 200.718664 
L 366.513493 201.094529 
L 366.756984 201.572903 
L 366.970039 201.914599 
L 367.152657 202.153786 
L 367.45702 202.59799 
L 367.54833 202.666332 
L 367.730948 202.905519 
L 368.096184 203.486399 
L 370.318039 205.844098 
L 370.47022 205.94661 
L 370.80502 206.185794 
L 371.048511 206.2883 
L 371.23113 206.356642 
L 371.56593 206.45915 
L 371.778984 206.561662 
L 371.870293 206.561662 
L 372.022475 206.664168 
L 372.052911 206.629995 
L 372.326839 206.732507 
L 372.448584 206.766676 
L 372.47902 206.698337 
L 372.539893 206.766676 
L 373.026875 206.869188 
L 373.23993 206.971694 
L 374.15302 206.869188 
L 374.366075 206.766676 
L 374.670439 206.698337 
L 374.792184 206.629995 
L 374.974802 206.527492 
L 375.15742 206.356642 
L 376.648802 204.579825 
L 376.892293 204.135623 
L 377.348839 203.315548 
L 377.440148 203.213045 
L 379.327202 198.73683 
L 381.366439 191.492883 
L 382.918693 184.351445 
L 382.918693 184.351445 
" style="fill:none;stroke:#0000ff;stroke-linecap:square;stroke-width:1.5;"/>
   </g>
   <g id="line2d_26">
    <path clip-path="url(#p8fa5330c4e)" d="M 78.555057 157.938989 
L 78.798548 157.921904 
L 79.011602 157.938989 
L 79.255093 157.921904 
L 82.511784 157.819396 
L 82.724839 157.819396 
L 82.937893 157.819396 
L 85.677166 157.716887 
L 85.920657 157.699802 
L 91.125275 157.597294 
L 91.368766 157.563124 
L 91.58182 157.580209 
L 91.734002 157.563124 
L 93.438439 157.4777 
L 93.59062 157.460615 
L 97.060366 157.375191 
L 97.242984 157.323937 
L 97.486475 157.358107 
L 97.638657 157.323937 
L 100.651857 157.426446 
L 102.325857 158.468617 
L 102.72153 158.929906 
L 103.208511 159.613298 
L 105.278184 164.51663 
L 106.06953 167.181856 
L 107.104366 171.043016 
L 107.956584 174.374548 
L 110.33062 183.275719 
L 111.700257 186.829352 
L 111.943748 187.239388 
L 112.278548 187.871524 
L 112.552475 188.332813 
L 112.826402 188.691594 
L 112.917711 188.777018 
L 113.222075 188.96495 
L 113.617748 189.067459 
L 114.287348 188.96495 
L 115.01782 188.008203 
L 115.35262 187.376066 
L 115.839602 186.368063 
L 116.417893 184.420398 
L 117.178802 181.481817 
L 118.061457 177.022689 
L 119.004984 171.709323 
L 121.896439 151.480942 
L 125.82273 121.480068 
L 127.253239 113.313543 
L 129.140293 104.326948 
L 129.84033 102.003421 
L 130.236002 101.132095 
L 131.209966 99.201514 
L 131.453457 98.94524 
L 131.818693 98.381448 
L 132.305675 97.356358 
L 132.610039 96.912157 
L 133.005711 96.621713 
L 133.462257 96.245845 
L 133.949239 95.852897 
L 135.075384 95.750386 
L 135.379748 95.562459 
L 135.562366 95.545371 
L 135.77542 95.64788 
L 135.958039 95.750386 
L 136.414584 95.904149 
L 136.749384 95.835815 
L 137.44942 96.331274 
L 137.936402 96.946321 
L 138.301639 97.510121 
L 138.575566 98.176425 
L 140.55393 106.39421 
L 141.649639 111.810082 
L 142.80622 118.917351 
L 143.719311 125.819602 
L 147.067311 153.001488 
L 151.17622 191.185972 
L 152.363239 201.385586 
L 153.489384 209.927973 
L 154.28073 214.899644 
L 155.802548 222.041088 
L 157.020002 225.167603 
L 158.085275 226.226856 
L 158.359202 226.12435 
L 158.785311 225.765567 
L 159.97233 224.279194 
L 161.037602 221.63105 
L 162.863784 214.011236 
L 164.142111 206.220578 
L 165.390002 197.063136 
L 169.34673 166.823075 
L 170.564184 159.989163 
L 171.203348 157.323937 
L 172.481675 153.394437 
L 173.394766 152.061825 
L 173.668693 151.890977 
L 174.764402 151.993486 
L 175.068766 152.283927 
L 175.312257 152.711047 
L 175.61662 153.428607 
L 176.438402 155.530035 
L 178.416766 164.892495 
L 180.212511 175.297126 
L 181.034293 179.465812 
L 184.260548 196.943543 
L 184.99102 199.728362 
L 185.569311 201.300162 
L 186.299784 202.359418 
L 186.695457 202.444842 
L 186.847639 202.461927 
L 187.638984 201.898129 
L 188.399893 200.411753 
L 189.00862 198.805784 
L 190.256511 193.526587 
L 191.900075 181.703918 
L 194.182802 162.893576 
L 200.48313 105.317868 
L 202.035384 91.54753 
L 203.49633 80.937884 
L 204.74422 73.266818 
L 205.383384 70.58451 
L 205.779057 69.576502 
L 207.057384 68.295147 
L 207.605239 68.39765 
L 208.09222 68.551418 
L 208.213966 68.585585 
L 208.822693 69.422745 
L 210.19233 72.754269 
L 211.86633 79.776119 
L 213.083784 86.490438 
L 216.096984 105.76207 
L 221.058111 141.161735 
L 223.097348 153.103996 
L 223.614766 155.922985 
L 225.045275 163.713645 
L 226.110548 169.061181 
L 229.215057 182.506903 
L 230.28033 186.28264 
L 230.52382 187.068541 
L 233.841384 198.600766 
L 234.693602 201.932299 
L 235.30233 204.358337 
L 235.911057 206.596444 
L 238.345966 213.12283 
L 238.741639 213.720797 
L 239.046002 214.045408 
L 239.715602 214.523784 
L 239.89822 214.643378 
L 241.32873 215.326764 
L 243.550584 215.429275 
L 244.889784 216.300602 
L 246.776839 218.265351 
L 247.050766 218.521618 
L 247.476875 219.034166 
L 247.68993 219.273351 
L 248.329093 220.161759 
L 248.450839 220.315522 
L 248.755202 220.742642 
L 249.485675 221.716474 
L 251.250984 224.894246 
L 252.224948 226.841908 
L 252.438002 227.234856 
L 253.411966 228.669983 
L 254.38593 229.917169 
L 254.690293 230.241777 
L 254.842475 230.344288 
L 255.085966 230.463882 
L 255.664257 230.685984 
L 256.881711 229.882999 
L 258.129602 227.576554 
L 258.525275 226.46604 
L 259.65142 221.613963 
L 260.290584 217.855314 
L 261.629784 207.29692 
L 262.725493 195.781778 
L 263.973384 179.773338 
L 265.403893 159.032415 
L 267.960548 115.63707 
L 269.330184 92.265094 
L 271.065057 65.766596 
L 272.586875 46.682897 
L 273.834766 34.518541 
L 274.443493 30.008154 
L 275.204402 25.976148 
L 275.752257 23.977224 
L 276.360984 22.866713 
L 276.72622 22.422514 
L 277.274075 22.507933 
L 277.578439 22.969227 
L 278.674148 26.352016 
L 279.039384 28.231337 
L 280.439457 37.542539 
L 281.869966 50.50989 
L 283.84833 72.754269 
L 291.731348 168.753655 
L 293.009675 181.874766 
L 294.47062 194.79086 
L 295.992439 205.87888 
L 298.275166 220.503458 
L 298.944766 223.95458 
L 300.16222 229.558391 
L 301.744911 234.530062 
L 302.871057 236.802338 
L 303.17542 237.007353 
L 303.753711 236.904844 
L 303.997202 236.665657 
L 304.545057 235.538064 
L 305.732075 231.881919 
L 307.345202 225.099261 
L 308.653966 217.923653 
L 313.128111 189.631257 
L 315.380402 172.785663 
L 318.606657 153.5482 
L 319.428439 149.960397 
L 320.067602 147.568528 
L 321.58942 142.818959 
L 322.045966 141.845126 
L 322.654693 140.717531 
L 324.420002 138.872374 
L 324.572184 138.78695 
L 324.785239 138.616103 
L 325.059166 138.342747 
L 327.128839 136.172979 
L 327.220148 136.121724 
L 327.737566 135.711689 
L 328.163675 135.182063 
L 328.254984 135.079552 
L 328.95502 134.156976 
L 329.28982 133.661517 
L 330.750766 130.996291 
L 332.911748 125.887941 
L 335.559711 118.780673 
L 336.929348 115.449138 
L 337.720693 113.535645 
L 338.146802 112.613067 
L 338.785966 111.400045 
L 338.907711 111.2292 
L 339.42513 110.562896 
L 339.66862 110.306622 
L 340.246911 109.811163 
L 340.399093 109.776991 
L 341.190439 109.879502 
L 341.494802 110.067435 
L 341.586111 110.118689 
L 342.925311 111.758831 
L 344.294948 115.09036 
L 344.994984 117.80684 
L 346.02982 122.949359 
L 346.973348 128.126047 
L 347.399457 130.483747 
L 348.190802 135.079552 
L 348.951711 139.982886 
L 351.508366 157.956074 
L 356.926039 196.75561 
L 357.382584 199.301242 
L 358.41742 204.477931 
L 359.330511 208.561193 
L 360.121857 210.850551 
L 360.882766 212.30276 
L 361.826293 213.515777 
L 362.130657 213.840391 
L 362.922002 214.165001 
L 363.561166 214.079577 
L 363.86553 213.772051 
L 364.048148 213.567034 
L 365.78302 210.474692 
L 367.335275 204.870881 
L 367.944002 202.051892 
L 369.831057 190.844276 
L 371.078948 180.935104 
L 375.096548 148.029817 
L 379.26633 118.404807 
L 380.118548 113.809002 
L 381.244693 108.649398 
L 382.918693 103.267689 
L 382.918693 103.267689 
" style="fill:none;stroke:#ff0000;stroke-linecap:square;stroke-width:1.5;"/>
   </g>
   <g id="line2d_27">
    <path clip-path="url(#p8fa5330c4e)" d="M 126.127093 166.173239 
" style="fill:none;stroke:#ffffff;stroke-linecap:square;stroke-width:1.5;"/>
    <defs>
     <path d="M 0 -5 
L -1.12257 -1.545085 
L -4.755283 -1.545085 
L -1.816356 0.59017 
L -2.938926 4.045085 
L -0 1.90983 
L 2.938926 4.045085 
L 1.816356 0.59017 
L 4.755283 -1.545085 
L 1.12257 -1.545085 
z
" id="m1cf2ff7ef7" style="stroke:#ffffff;stroke-linejoin:bevel;"/>
    </defs>
    <g clip-path="url(#p8fa5330c4e)">
     <use style="fill:#0000ff;stroke:#ffffff;stroke-linejoin:bevel;" x="126.127093" xlink:href="#m1cf2ff7ef7" y="166.173239"/>
    </g>
   </g>
   <g id="line2d_28">
    <path clip-path="url(#p8fa5330c4e)" d="M 105.30862 164.636223 
" style="fill:none;stroke:#ffffff;stroke-linecap:square;stroke-width:1.5;"/>
    <defs>
     <path d="M 0 -5 
L -1.12257 -1.545085 
L -4.755283 -1.545085 
L -1.816356 0.59017 
L -2.938926 4.045085 
L -0 1.90983 
L 2.938926 4.045085 
L 1.816356 0.59017 
L 4.755283 -1.545085 
L 1.12257 -1.545085 
z
" id="m501216320f" style="stroke:#ffffff;stroke-linejoin:bevel;"/>
    </defs>
    <g clip-path="url(#p8fa5330c4e)">
     <use style="fill:#ff0000;stroke:#ffffff;stroke-linejoin:bevel;" x="105.30862" xlink:href="#m501216320f" y="164.636223"/>
    </g>
   </g>
   <g id="patch_3">
    <path d="M 63.336875 339.84 
L 63.336875 7.2 
" style="fill:none;stroke:#000000;stroke-linecap:square;stroke-linejoin:miter;stroke-width:0.8;"/>
   </g>
   <g id="patch_4">
    <path d="M 398.136875 339.84 
L 398.136875 7.2 
" style="fill:none;stroke:#000000;stroke-linecap:square;stroke-linejoin:miter;stroke-width:0.8;"/>
   </g>
   <g id="patch_5">
    <path d="M 63.336875 339.84 
L 398.136875 339.84 
" style="fill:none;stroke:#000000;stroke-linecap:square;stroke-linejoin:miter;stroke-width:0.8;"/>
   </g>
   <g id="patch_6">
    <path d="M 63.336875 7.2 
L 398.136875 7.2 
" style="fill:none;stroke:#000000;stroke-linecap:square;stroke-linejoin:miter;stroke-width:0.8;"/>
   </g>
   <g id="text_15">
    <g id="patch_7">
     <path d="M 75.036875 331.242688 
L 166.79375 331.242688 
L 166.79375 293.760312 
L 75.036875 293.760312 
z
" style="fill:#ffffff;stroke:#000000;stroke-linejoin:miter;stroke-width:0.75;"/>
    </g>
    <!-- Auto_00088 -->
    <g transform="translate(80.076875 308.521563)scale(0.14 -0.14)">
     <defs>
      <path d="M 2928 1419 
L 1288 1419 
L 1000 750 
Q 894 503 894 381 
Q 894 284 986 211 
Q 1078 138 1384 116 
L 1384 0 
L 50 0 
L 50 116 
Q 316 163 394 238 
Q 553 388 747 847 
L 2238 4334 
L 2347 4334 
L 3822 809 
Q 4000 384 4145 257 
Q 4291 131 4550 116 
L 4550 0 
L 2878 0 
L 2878 116 
Q 3131 128 3220 200 
Q 3309 272 3309 375 
Q 3309 513 3184 809 
L 2928 1419 
z
M 2841 1650 
L 2122 3363 
L 1384 1650 
L 2841 1650 
z
" id="TimesNewRomanPSMT-41" transform="scale(0.015625)"/>
      <path d="M 2709 2863 
L 2709 1128 
Q 2709 631 2732 520 
Q 2756 409 2807 365 
Q 2859 322 2928 322 
Q 3025 322 3147 375 
L 3191 266 
L 2334 -88 
L 2194 -88 
L 2194 519 
Q 1825 119 1631 15 
Q 1438 -88 1222 -88 
Q 981 -88 804 51 
Q 628 191 559 409 
Q 491 628 491 1028 
L 491 2306 
Q 491 2509 447 2587 
Q 403 2666 317 2708 
Q 231 2750 6 2747 
L 6 2863 
L 1009 2863 
L 1009 947 
Q 1009 547 1148 422 
Q 1288 297 1484 297 
Q 1619 297 1789 381 
Q 1959 466 2194 703 
L 2194 2325 
Q 2194 2569 2105 2655 
Q 2016 2741 1734 2747 
L 1734 2863 
L 2709 2863 
z
" id="TimesNewRomanPSMT-75" transform="scale(0.015625)"/>
      <path d="M 3256 -1381 
L -53 -1381 
L -53 -1119 
L 3256 -1119 
L 3256 -1381 
z
" id="TimesNewRomanPSMT-5f" transform="scale(0.015625)"/>
      <path d="M 1228 2134 
Q 725 2547 579 2797 
Q 434 3047 434 3316 
Q 434 3728 753 4026 
Q 1072 4325 1600 4325 
Q 2113 4325 2425 4047 
Q 2738 3769 2738 3413 
Q 2738 3175 2569 2928 
Q 2400 2681 1866 2347 
Q 2416 1922 2594 1678 
Q 2831 1359 2831 1006 
Q 2831 559 2490 242 
Q 2150 -75 1597 -75 
Q 994 -75 656 303 
Q 388 606 388 966 
Q 388 1247 577 1523 
Q 766 1800 1228 2134 
z
M 1719 2469 
Q 2094 2806 2194 3001 
Q 2294 3197 2294 3444 
Q 2294 3772 2109 3958 
Q 1925 4144 1606 4144 
Q 1288 4144 1088 3959 
Q 888 3775 888 3528 
Q 888 3366 970 3203 
Q 1053 3041 1206 2894 
L 1719 2469 
z
M 1375 2016 
Q 1116 1797 991 1539 
Q 866 1281 866 981 
Q 866 578 1086 336 
Q 1306 94 1647 94 
Q 1984 94 2187 284 
Q 2391 475 2391 747 
Q 2391 972 2272 1150 
Q 2050 1481 1375 2016 
z
" id="TimesNewRomanPSMT-38" transform="scale(0.015625)"/>
     </defs>
     <use xlink:href="#TimesNewRomanPSMT-41"/>
     <use x="72.216797" xlink:href="#TimesNewRomanPSMT-75"/>
     <use x="122.216797" xlink:href="#TimesNewRomanPSMT-74"/>
     <use x="150" xlink:href="#TimesNewRomanPSMT-6f"/>
     <use x="200" xlink:href="#TimesNewRomanPSMT-5f"/>
     <use x="250" xlink:href="#TimesNewRomanPSMT-30"/>
     <use x="300" xlink:href="#TimesNewRomanPSMT-30"/>
     <use x="350" xlink:href="#TimesNewRomanPSMT-30"/>
     <use x="400" xlink:href="#TimesNewRomanPSMT-38"/>
     <use x="450" xlink:href="#TimesNewRomanPSMT-38"/>
    </g>
    <!-- Vs: 292.25m/s -->
    <g transform="translate(80.076875 323.208)scale(0.14 -0.14)">
     <defs>
      <path d="M 903 2950 
Q 1047 2950 1148 2848 
Q 1250 2747 1250 2603 
Q 1250 2459 1148 2357 
Q 1047 2256 903 2256 
Q 759 2256 657 2357 
Q 556 2459 556 2603 
Q 556 2747 657 2848 
Q 759 2950 903 2950 
z
M 897 609 
Q 1044 609 1145 506 
Q 1247 403 1247 259 
Q 1247 116 1144 14 
Q 1041 -88 897 -88 
Q 753 -88 651 14 
Q 550 116 550 259 
Q 550 403 651 506 
Q 753 609 897 609 
z
" id="TimesNewRomanPSMT-3a" transform="scale(0.015625)"/>
      <path d="M 338 -88 
L 338 28 
Q 744 34 1094 217 
Q 1444 400 1770 856 
Q 2097 1313 2225 1859 
Q 1734 1544 1338 1544 
Q 891 1544 572 1889 
Q 253 2234 253 2806 
Q 253 3363 572 3797 
Q 956 4325 1575 4325 
Q 2097 4325 2469 3894 
Q 2925 3359 2925 2575 
Q 2925 1869 2578 1258 
Q 2231 647 1613 244 
Q 1109 -88 516 -88 
L 338 -88 
z
M 2275 2091 
Q 2331 2497 2331 2741 
Q 2331 3044 2228 3395 
Q 2125 3747 1936 3934 
Q 1747 4122 1506 4122 
Q 1228 4122 1018 3872 
Q 809 3622 809 3128 
Q 809 2469 1088 2097 
Q 1291 1828 1588 1828 
Q 1731 1828 1928 1897 
Q 2125 1966 2275 2091 
z
" id="TimesNewRomanPSMT-39" transform="scale(0.015625)"/>
      <path d="M 1794 4444 
L 259 -88 
L 9 -88 
L 1544 4444 
L 1794 4444 
z
" id="TimesNewRomanPSMT-2f" transform="scale(0.015625)"/>
     </defs>
     <use xlink:href="#TimesNewRomanPSMT-56"/>
     <use x="72.216797" xlink:href="#TimesNewRomanPSMT-73"/>
     <use x="111.132812" xlink:href="#TimesNewRomanPSMT-3a"/>
     <use x="138.916016" xlink:href="#TimesNewRomanPSMT-20"/>
     <use x="163.916016" xlink:href="#TimesNewRomanPSMT-32"/>
     <use x="213.916016" xlink:href="#TimesNewRomanPSMT-39"/>
     <use x="263.916016" xlink:href="#TimesNewRomanPSMT-32"/>
     <use x="313.916016" xlink:href="#TimesNewRomanPSMT-2e"/>
     <use x="338.916016" xlink:href="#TimesNewRomanPSMT-32"/>
     <use x="388.916016" xlink:href="#TimesNewRomanPSMT-35"/>
     <use x="438.916016" xlink:href="#TimesNewRomanPSMT-6d"/>
     <use x="516.699219" xlink:href="#TimesNewRomanPSMT-2f"/>
     <use x="544.482422" xlink:href="#TimesNewRomanPSMT-73"/>
    </g>
   </g>
  </g>
 </g>
 <defs>
  <clipPath id="p8fa5330c4e">
   <rect height="332.64" width="334.8" x="63.336875" y="7.2"/>
  </clipPath>
 </defs>
</svg>
