<?xml version="1.0" encoding="utf-8" standalone="no"?>
<!DOCTYPE svg PUBLIC "-//W3C//DTD SVG 1.1//EN"
  "http://www.w3.org/Graphics/SVG/1.1/DTD/svg11.dtd">
<svg height="383.471875pt" version="1.1" viewBox="0 0 421.086875 383.471875" width="421.086875pt" xmlns="http://www.w3.org/2000/svg" xmlns:xlink="http://www.w3.org/1999/xlink">
 <metadata>
  <rdf:RDF xmlns:cc="http://creativecommons.org/ns#" xmlns:dc="http://purl.org/dc/elements/1.1/" xmlns:rdf="http://www.w3.org/1999/02/22-rdf-syntax-ns#">
   <cc:Work>
    <dc:type rdf:resource="http://purl.org/dc/dcmitype/StillImage"/>
    <dc:date>2021-06-11T14:39:38.581634</dc:date>
    <dc:format>image/svg+xml</dc:format>
    <dc:creator>
     <cc:Agent>
      <dc:title>Matplotlib v3.4.2, https://matplotlib.org/</dc:title>
     </cc:Agent>
    </dc:creator>
   </cc:Work>
  </rdf:RDF>
 </metadata>
 <defs>
  <style type="text/css">*{stroke-linecap:butt;stroke-linejoin:round;}</style>
 </defs>
 <g id="figure_1">
  <g id="patch_1">
   <path d="M 0 383.471875 
L 421.086875 383.471875 
L 421.086875 0 
L 0 0 
z
" style="fill:#ffffff;"/>
  </g>
  <g id="axes_1">
   <g id="patch_2">
    <path d="M 63.336875 339.84 
L 398.136875 339.84 
L 398.136875 7.2 
L 63.336875 7.2 
z
" style="fill:#ffffff;"/>
   </g>
   <g id="matplotlib.axis_1">
    <g id="xtick_1">
     <g id="line2d_1">
      <path clip-path="url(#pececaea4db)" d="M 93.773239 339.84 
L 93.773239 7.2 
" style="fill:none;stroke:#000000;stroke-dasharray:0.5,0.825;stroke-dashoffset:0;stroke-width:0.5;"/>
     </g>
     <g id="line2d_2">
      <defs>
       <path d="M 0 0 
L 0 3.5 
" id="mb2f0a05ab1" style="stroke:#000000;stroke-width:0.8;"/>
      </defs>
      <g>
       <use style="stroke:#000000;stroke-width:0.8;" x="93.773239" xlink:href="#mb2f0a05ab1" y="339.84"/>
      </g>
     </g>
     <g id="text_1">
      <!-- 0.000 -->
      <g transform="translate(78.023239 356.56125)scale(0.14 -0.14)">
       <defs>
        <path d="M 231 2094 
Q 231 2819 450 3342 
Q 669 3866 1031 4122 
Q 1313 4325 1613 4325 
Q 2100 4325 2488 3828 
Q 2972 3213 2972 2159 
Q 2972 1422 2759 906 
Q 2547 391 2217 158 
Q 1888 -75 1581 -75 
Q 975 -75 572 641 
Q 231 1244 231 2094 
z
M 844 2016 
Q 844 1141 1059 588 
Q 1238 122 1591 122 
Q 1759 122 1940 273 
Q 2122 425 2216 781 
Q 2359 1319 2359 2297 
Q 2359 3022 2209 3506 
Q 2097 3866 1919 4016 
Q 1791 4119 1609 4119 
Q 1397 4119 1231 3928 
Q 1006 3669 925 3112 
Q 844 2556 844 2016 
z
" id="TimesNewRomanPSMT-30" transform="scale(0.015625)"/>
        <path d="M 800 606 
Q 947 606 1047 504 
Q 1147 403 1147 259 
Q 1147 116 1045 14 
Q 944 -88 800 -88 
Q 656 -88 554 14 
Q 453 116 453 259 
Q 453 406 554 506 
Q 656 606 800 606 
z
" id="TimesNewRomanPSMT-2e" transform="scale(0.015625)"/>
       </defs>
       <use xlink:href="#TimesNewRomanPSMT-30"/>
       <use x="50" xlink:href="#TimesNewRomanPSMT-2e"/>
       <use x="75" xlink:href="#TimesNewRomanPSMT-30"/>
       <use x="125" xlink:href="#TimesNewRomanPSMT-30"/>
       <use x="175" xlink:href="#TimesNewRomanPSMT-30"/>
      </g>
     </g>
    </g>
    <g id="xtick_2">
     <g id="line2d_3">
      <path clip-path="url(#pececaea4db)" d="M 154.645966 339.84 
L 154.645966 7.2 
" style="fill:none;stroke:#000000;stroke-dasharray:0.5,0.825;stroke-dashoffset:0;stroke-width:0.5;"/>
     </g>
     <g id="line2d_4">
      <g>
       <use style="stroke:#000000;stroke-width:0.8;" x="154.645966" xlink:href="#mb2f0a05ab1" y="339.84"/>
      </g>
     </g>
     <g id="text_2">
      <!-- 0.001 -->
      <g transform="translate(138.895966 356.56125)scale(0.14 -0.14)">
       <defs>
        <path d="M 750 3822 
L 1781 4325 
L 1884 4325 
L 1884 747 
Q 1884 391 1914 303 
Q 1944 216 2037 169 
Q 2131 122 2419 116 
L 2419 0 
L 825 0 
L 825 116 
Q 1125 122 1212 167 
Q 1300 213 1334 289 
Q 1369 366 1369 747 
L 1369 3034 
Q 1369 3497 1338 3628 
Q 1316 3728 1258 3775 
Q 1200 3822 1119 3822 
Q 1003 3822 797 3725 
L 750 3822 
z
" id="TimesNewRomanPSMT-31" transform="scale(0.015625)"/>
       </defs>
       <use xlink:href="#TimesNewRomanPSMT-30"/>
       <use x="50" xlink:href="#TimesNewRomanPSMT-2e"/>
       <use x="75" xlink:href="#TimesNewRomanPSMT-30"/>
       <use x="125" xlink:href="#TimesNewRomanPSMT-30"/>
       <use x="175" xlink:href="#TimesNewRomanPSMT-31"/>
      </g>
     </g>
    </g>
    <g id="xtick_3">
     <g id="line2d_5">
      <path clip-path="url(#pececaea4db)" d="M 215.518693 339.84 
L 215.518693 7.2 
" style="fill:none;stroke:#000000;stroke-dasharray:0.5,0.825;stroke-dashoffset:0;stroke-width:0.5;"/>
     </g>
     <g id="line2d_6">
      <g>
       <use style="stroke:#000000;stroke-width:0.8;" x="215.518693" xlink:href="#mb2f0a05ab1" y="339.84"/>
      </g>
     </g>
     <g id="text_3">
      <!-- 0.002 -->
      <g transform="translate(199.768693 356.56125)scale(0.14 -0.14)">
       <defs>
        <path d="M 2934 816 
L 2638 0 
L 138 0 
L 138 116 
Q 1241 1122 1691 1759 
Q 2141 2397 2141 2925 
Q 2141 3328 1894 3587 
Q 1647 3847 1303 3847 
Q 991 3847 742 3664 
Q 494 3481 375 3128 
L 259 3128 
Q 338 3706 661 4015 
Q 984 4325 1469 4325 
Q 1984 4325 2329 3994 
Q 2675 3663 2675 3213 
Q 2675 2891 2525 2569 
Q 2294 2063 1775 1497 
Q 997 647 803 472 
L 1909 472 
Q 2247 472 2383 497 
Q 2519 522 2628 598 
Q 2738 675 2819 816 
L 2934 816 
z
" id="TimesNewRomanPSMT-32" transform="scale(0.015625)"/>
       </defs>
       <use xlink:href="#TimesNewRomanPSMT-30"/>
       <use x="50" xlink:href="#TimesNewRomanPSMT-2e"/>
       <use x="75" xlink:href="#TimesNewRomanPSMT-30"/>
       <use x="125" xlink:href="#TimesNewRomanPSMT-30"/>
       <use x="175" xlink:href="#TimesNewRomanPSMT-32"/>
      </g>
     </g>
    </g>
    <g id="xtick_4">
     <g id="line2d_7">
      <path clip-path="url(#pececaea4db)" d="M 276.39142 339.84 
L 276.39142 7.2 
" style="fill:none;stroke:#000000;stroke-dasharray:0.5,0.825;stroke-dashoffset:0;stroke-width:0.5;"/>
     </g>
     <g id="line2d_8">
      <g>
       <use style="stroke:#000000;stroke-width:0.8;" x="276.39142" xlink:href="#mb2f0a05ab1" y="339.84"/>
      </g>
     </g>
     <g id="text_4">
      <!-- 0.003 -->
      <g transform="translate(260.64142 356.56125)scale(0.14 -0.14)">
       <defs>
        <path d="M 325 3431 
Q 506 3859 782 4092 
Q 1059 4325 1472 4325 
Q 1981 4325 2253 3994 
Q 2459 3747 2459 3466 
Q 2459 3003 1878 2509 
Q 2269 2356 2469 2072 
Q 2669 1788 2669 1403 
Q 2669 853 2319 450 
Q 1863 -75 997 -75 
Q 569 -75 414 31 
Q 259 138 259 259 
Q 259 350 332 419 
Q 406 488 509 488 
Q 588 488 669 463 
Q 722 447 909 348 
Q 1097 250 1169 231 
Q 1284 197 1416 197 
Q 1734 197 1970 444 
Q 2206 691 2206 1028 
Q 2206 1275 2097 1509 
Q 2016 1684 1919 1775 
Q 1784 1900 1550 2001 
Q 1316 2103 1072 2103 
L 972 2103 
L 972 2197 
Q 1219 2228 1467 2375 
Q 1716 2522 1828 2728 
Q 1941 2934 1941 3181 
Q 1941 3503 1739 3701 
Q 1538 3900 1238 3900 
Q 753 3900 428 3381 
L 325 3431 
z
" id="TimesNewRomanPSMT-33" transform="scale(0.015625)"/>
       </defs>
       <use xlink:href="#TimesNewRomanPSMT-30"/>
       <use x="50" xlink:href="#TimesNewRomanPSMT-2e"/>
       <use x="75" xlink:href="#TimesNewRomanPSMT-30"/>
       <use x="125" xlink:href="#TimesNewRomanPSMT-30"/>
       <use x="175" xlink:href="#TimesNewRomanPSMT-33"/>
      </g>
     </g>
    </g>
    <g id="xtick_5">
     <g id="line2d_9">
      <path clip-path="url(#pececaea4db)" d="M 337.264148 339.84 
L 337.264148 7.2 
" style="fill:none;stroke:#000000;stroke-dasharray:0.5,0.825;stroke-dashoffset:0;stroke-width:0.5;"/>
     </g>
     <g id="line2d_10">
      <g>
       <use style="stroke:#000000;stroke-width:0.8;" x="337.264148" xlink:href="#mb2f0a05ab1" y="339.84"/>
      </g>
     </g>
     <g id="text_5">
      <!-- 0.004 -->
      <g transform="translate(321.514148 356.56125)scale(0.14 -0.14)">
       <defs>
        <path d="M 2978 1563 
L 2978 1119 
L 2409 1119 
L 2409 0 
L 1894 0 
L 1894 1119 
L 100 1119 
L 100 1519 
L 2066 4325 
L 2409 4325 
L 2409 1563 
L 2978 1563 
z
M 1894 1563 
L 1894 3666 
L 406 1563 
L 1894 1563 
z
" id="TimesNewRomanPSMT-34" transform="scale(0.015625)"/>
       </defs>
       <use xlink:href="#TimesNewRomanPSMT-30"/>
       <use x="50" xlink:href="#TimesNewRomanPSMT-2e"/>
       <use x="75" xlink:href="#TimesNewRomanPSMT-30"/>
       <use x="125" xlink:href="#TimesNewRomanPSMT-30"/>
       <use x="175" xlink:href="#TimesNewRomanPSMT-34"/>
      </g>
     </g>
    </g>
    <g id="xtick_6">
     <g id="line2d_11">
      <path clip-path="url(#pececaea4db)" d="M 398.136875 339.84 
L 398.136875 7.2 
" style="fill:none;stroke:#000000;stroke-dasharray:0.5,0.825;stroke-dashoffset:0;stroke-width:0.5;"/>
     </g>
     <g id="line2d_12">
      <g>
       <use style="stroke:#000000;stroke-width:0.8;" x="398.136875" xlink:href="#mb2f0a05ab1" y="339.84"/>
      </g>
     </g>
     <g id="text_6">
      <!-- 0.005 -->
      <g transform="translate(382.386875 356.56125)scale(0.14 -0.14)">
       <defs>
        <path d="M 2778 4238 
L 2534 3706 
L 1259 3706 
L 981 3138 
Q 1809 3016 2294 2522 
Q 2709 2097 2709 1522 
Q 2709 1188 2573 903 
Q 2438 619 2231 419 
Q 2025 219 1772 97 
Q 1413 -75 1034 -75 
Q 653 -75 479 54 
Q 306 184 306 341 
Q 306 428 378 495 
Q 450 563 559 563 
Q 641 563 702 538 
Q 763 513 909 409 
Q 1144 247 1384 247 
Q 1750 247 2026 523 
Q 2303 800 2303 1197 
Q 2303 1581 2056 1914 
Q 1809 2247 1375 2428 
Q 1034 2569 447 2591 
L 1259 4238 
L 2778 4238 
z
" id="TimesNewRomanPSMT-35" transform="scale(0.015625)"/>
       </defs>
       <use xlink:href="#TimesNewRomanPSMT-30"/>
       <use x="50" xlink:href="#TimesNewRomanPSMT-2e"/>
       <use x="75" xlink:href="#TimesNewRomanPSMT-30"/>
       <use x="125" xlink:href="#TimesNewRomanPSMT-30"/>
       <use x="175" xlink:href="#TimesNewRomanPSMT-35"/>
      </g>
     </g>
    </g>
    <g id="text_7">
     <!-- Time (sec) -->
     <g transform="translate(200.858906 373.277188)scale(0.14 -0.14)">
      <defs>
       <path d="M 3703 4238 
L 3750 3244 
L 3631 3244 
Q 3597 3506 3538 3619 
Q 3441 3800 3280 3886 
Q 3119 3972 2856 3972 
L 2259 3972 
L 2259 734 
Q 2259 344 2344 247 
Q 2463 116 2709 116 
L 2856 116 
L 2856 0 
L 1059 0 
L 1059 116 
L 1209 116 
Q 1478 116 1591 278 
Q 1659 378 1659 734 
L 1659 3972 
L 1150 3972 
Q 853 3972 728 3928 
Q 566 3869 450 3700 
Q 334 3531 313 3244 
L 194 3244 
L 244 4238 
L 3703 4238 
z
" id="TimesNewRomanPSMT-54" transform="scale(0.015625)"/>
       <path d="M 928 4444 
Q 1059 4444 1151 4351 
Q 1244 4259 1244 4128 
Q 1244 3997 1151 3903 
Q 1059 3809 928 3809 
Q 797 3809 703 3903 
Q 609 3997 609 4128 
Q 609 4259 701 4351 
Q 794 4444 928 4444 
z
M 1188 2947 
L 1188 647 
Q 1188 378 1227 289 
Q 1266 200 1342 156 
Q 1419 113 1622 113 
L 1622 0 
L 231 0 
L 231 113 
Q 441 113 512 153 
Q 584 194 626 287 
Q 669 381 669 647 
L 669 1750 
Q 669 2216 641 2353 
Q 619 2453 572 2492 
Q 525 2531 444 2531 
Q 356 2531 231 2484 
L 188 2597 
L 1050 2947 
L 1188 2947 
z
" id="TimesNewRomanPSMT-69" transform="scale(0.015625)"/>
       <path d="M 1050 2338 
Q 1363 2650 1419 2697 
Q 1559 2816 1721 2881 
Q 1884 2947 2044 2947 
Q 2313 2947 2506 2790 
Q 2700 2634 2766 2338 
Q 3088 2713 3309 2830 
Q 3531 2947 3766 2947 
Q 3994 2947 4170 2830 
Q 4347 2713 4450 2447 
Q 4519 2266 4519 1878 
L 4519 647 
Q 4519 378 4559 278 
Q 4591 209 4675 161 
Q 4759 113 4950 113 
L 4950 0 
L 3538 0 
L 3538 113 
L 3597 113 
Q 3781 113 3884 184 
Q 3956 234 3988 344 
Q 4000 397 4000 647 
L 4000 1878 
Q 4000 2228 3916 2372 
Q 3794 2572 3525 2572 
Q 3359 2572 3192 2489 
Q 3025 2406 2788 2181 
L 2781 2147 
L 2788 2013 
L 2788 647 
Q 2788 353 2820 281 
Q 2853 209 2943 161 
Q 3034 113 3253 113 
L 3253 0 
L 1806 0 
L 1806 113 
Q 2044 113 2133 169 
Q 2222 225 2256 338 
Q 2272 391 2272 647 
L 2272 1878 
Q 2272 2228 2169 2381 
Q 2031 2581 1784 2581 
Q 1616 2581 1450 2491 
Q 1191 2353 1050 2181 
L 1050 647 
Q 1050 366 1089 281 
Q 1128 197 1204 155 
Q 1281 113 1516 113 
L 1516 0 
L 100 0 
L 100 113 
Q 297 113 375 155 
Q 453 197 493 289 
Q 534 381 534 647 
L 534 1741 
Q 534 2213 506 2350 
Q 484 2453 437 2492 
Q 391 2531 309 2531 
Q 222 2531 100 2484 
L 53 2597 
L 916 2947 
L 1050 2947 
L 1050 2338 
z
" id="TimesNewRomanPSMT-6d" transform="scale(0.015625)"/>
       <path d="M 681 1784 
Q 678 1147 991 784 
Q 1303 422 1725 422 
Q 2006 422 2214 576 
Q 2422 731 2563 1106 
L 2659 1044 
Q 2594 616 2278 264 
Q 1963 -88 1488 -88 
Q 972 -88 605 314 
Q 238 716 238 1394 
Q 238 2128 614 2539 
Q 991 2950 1559 2950 
Q 2041 2950 2350 2633 
Q 2659 2316 2659 1784 
L 681 1784 
z
M 681 1966 
L 2006 1966 
Q 1991 2241 1941 2353 
Q 1863 2528 1708 2628 
Q 1553 2728 1384 2728 
Q 1125 2728 920 2526 
Q 716 2325 681 1966 
z
" id="TimesNewRomanPSMT-65" transform="scale(0.015625)"/>
       <path id="TimesNewRomanPSMT-20" transform="scale(0.015625)"/>
       <path d="M 1988 -1253 
L 1988 -1369 
Q 1516 -1131 1200 -813 
Q 750 -359 506 256 
Q 263 872 263 1534 
Q 263 2503 741 3301 
Q 1219 4100 1988 4444 
L 1988 4313 
Q 1603 4100 1356 3731 
Q 1109 3363 987 2797 
Q 866 2231 866 1616 
Q 866 947 969 400 
Q 1050 -31 1165 -292 
Q 1281 -553 1476 -793 
Q 1672 -1034 1988 -1253 
z
" id="TimesNewRomanPSMT-28" transform="scale(0.015625)"/>
       <path d="M 2050 2947 
L 2050 1972 
L 1947 1972 
Q 1828 2431 1642 2597 
Q 1456 2763 1169 2763 
Q 950 2763 815 2647 
Q 681 2531 681 2391 
Q 681 2216 781 2091 
Q 878 1963 1175 1819 
L 1631 1597 
Q 2266 1288 2266 781 
Q 2266 391 1970 151 
Q 1675 -88 1309 -88 
Q 1047 -88 709 6 
Q 606 38 541 38 
Q 469 38 428 -44 
L 325 -44 
L 325 978 
L 428 978 
Q 516 541 762 319 
Q 1009 97 1316 97 
Q 1531 97 1667 223 
Q 1803 350 1803 528 
Q 1803 744 1651 891 
Q 1500 1038 1047 1263 
Q 594 1488 453 1669 
Q 313 1847 313 2119 
Q 313 2472 555 2709 
Q 797 2947 1181 2947 
Q 1350 2947 1591 2875 
Q 1750 2828 1803 2828 
Q 1853 2828 1881 2850 
Q 1909 2872 1947 2947 
L 2050 2947 
z
" id="TimesNewRomanPSMT-73" transform="scale(0.015625)"/>
       <path d="M 2631 1088 
Q 2516 522 2178 217 
Q 1841 -88 1431 -88 
Q 944 -88 581 321 
Q 219 731 219 1428 
Q 219 2103 620 2525 
Q 1022 2947 1584 2947 
Q 2006 2947 2278 2723 
Q 2550 2500 2550 2259 
Q 2550 2141 2473 2067 
Q 2397 1994 2259 1994 
Q 2075 1994 1981 2113 
Q 1928 2178 1911 2362 
Q 1894 2547 1784 2644 
Q 1675 2738 1481 2738 
Q 1169 2738 978 2506 
Q 725 2200 725 1697 
Q 725 1184 976 792 
Q 1228 400 1656 400 
Q 1963 400 2206 609 
Q 2378 753 2541 1131 
L 2631 1088 
z
" id="TimesNewRomanPSMT-63" transform="scale(0.015625)"/>
       <path d="M 144 4313 
L 144 4444 
Q 619 4209 934 3891 
Q 1381 3434 1625 2820 
Q 1869 2206 1869 1541 
Q 1869 572 1392 -226 
Q 916 -1025 144 -1369 
L 144 -1253 
Q 528 -1038 776 -670 
Q 1025 -303 1145 264 
Q 1266 831 1266 1447 
Q 1266 2113 1163 2663 
Q 1084 3094 967 3353 
Q 850 3613 656 3853 
Q 463 4094 144 4313 
z
" id="TimesNewRomanPSMT-29" transform="scale(0.015625)"/>
      </defs>
      <use xlink:href="#TimesNewRomanPSMT-54"/>
      <use x="57.583984" xlink:href="#TimesNewRomanPSMT-69"/>
      <use x="85.367188" xlink:href="#TimesNewRomanPSMT-6d"/>
      <use x="163.150391" xlink:href="#TimesNewRomanPSMT-65"/>
      <use x="207.535156" xlink:href="#TimesNewRomanPSMT-20"/>
      <use x="232.535156" xlink:href="#TimesNewRomanPSMT-28"/>
      <use x="265.835938" xlink:href="#TimesNewRomanPSMT-73"/>
      <use x="304.751953" xlink:href="#TimesNewRomanPSMT-65"/>
      <use x="349.136719" xlink:href="#TimesNewRomanPSMT-63"/>
      <use x="393.521484" xlink:href="#TimesNewRomanPSMT-29"/>
     </g>
    </g>
   </g>
   <g id="matplotlib.axis_2">
    <g id="ytick_1">
     <g id="line2d_13">
      <path clip-path="url(#pececaea4db)" d="M 63.336875 329.485501 
L 398.136875 329.485501 
" style="fill:none;stroke:#000000;stroke-dasharray:0.5,0.825;stroke-dashoffset:0;stroke-width:0.5;"/>
     </g>
     <g id="line2d_14">
      <defs>
       <path d="M 0 0 
L -3.5 0 
" id="mff6ccfd546" style="stroke:#000000;stroke-width:0.8;"/>
      </defs>
      <g>
       <use style="stroke:#000000;stroke-width:0.8;" x="63.336875" xlink:href="#mff6ccfd546" y="329.485501"/>
      </g>
     </g>
     <g id="text_8">
      <!-- −0.06 -->
      <g transform="translate(23.942188 334.346126)scale(0.14 -0.14)">
       <defs>
        <path d="M 3484 2000 
L 116 2000 
L 116 2256 
L 3484 2256 
L 3484 2000 
z
" id="TimesNewRomanPSMT-2212" transform="scale(0.015625)"/>
        <path d="M 2869 4325 
L 2869 4209 
Q 2456 4169 2195 4045 
Q 1934 3922 1679 3669 
Q 1425 3416 1258 3105 
Q 1091 2794 978 2366 
Q 1428 2675 1881 2675 
Q 2316 2675 2634 2325 
Q 2953 1975 2953 1425 
Q 2953 894 2631 456 
Q 2244 -75 1606 -75 
Q 1172 -75 869 213 
Q 275 772 275 1663 
Q 275 2231 503 2743 
Q 731 3256 1154 3653 
Q 1578 4050 1965 4187 
Q 2353 4325 2688 4325 
L 2869 4325 
z
M 925 2138 
Q 869 1716 869 1456 
Q 869 1156 980 804 
Q 1091 453 1309 247 
Q 1469 100 1697 100 
Q 1969 100 2183 356 
Q 2397 613 2397 1088 
Q 2397 1622 2184 2012 
Q 1972 2403 1581 2403 
Q 1463 2403 1327 2353 
Q 1191 2303 925 2138 
z
" id="TimesNewRomanPSMT-36" transform="scale(0.015625)"/>
       </defs>
       <use xlink:href="#TimesNewRomanPSMT-2212"/>
       <use x="56.396484" xlink:href="#TimesNewRomanPSMT-30"/>
       <use x="106.396484" xlink:href="#TimesNewRomanPSMT-2e"/>
       <use x="131.396484" xlink:href="#TimesNewRomanPSMT-30"/>
       <use x="181.396484" xlink:href="#TimesNewRomanPSMT-36"/>
      </g>
     </g>
    </g>
    <g id="ytick_2">
     <g id="line2d_15">
      <path clip-path="url(#pececaea4db)" d="M 63.336875 271.179497 
L 398.136875 271.179497 
" style="fill:none;stroke:#000000;stroke-dasharray:0.5,0.825;stroke-dashoffset:0;stroke-width:0.5;"/>
     </g>
     <g id="line2d_16">
      <g>
       <use style="stroke:#000000;stroke-width:0.8;" x="63.336875" xlink:href="#mff6ccfd546" y="271.179497"/>
      </g>
     </g>
     <g id="text_9">
      <!-- −0.04 -->
      <g transform="translate(23.942188 276.040122)scale(0.14 -0.14)">
       <use xlink:href="#TimesNewRomanPSMT-2212"/>
       <use x="56.396484" xlink:href="#TimesNewRomanPSMT-30"/>
       <use x="106.396484" xlink:href="#TimesNewRomanPSMT-2e"/>
       <use x="131.396484" xlink:href="#TimesNewRomanPSMT-30"/>
       <use x="181.396484" xlink:href="#TimesNewRomanPSMT-34"/>
      </g>
     </g>
    </g>
    <g id="ytick_3">
     <g id="line2d_17">
      <path clip-path="url(#pececaea4db)" d="M 63.336875 212.873493 
L 398.136875 212.873493 
" style="fill:none;stroke:#000000;stroke-dasharray:0.5,0.825;stroke-dashoffset:0;stroke-width:0.5;"/>
     </g>
     <g id="line2d_18">
      <g>
       <use style="stroke:#000000;stroke-width:0.8;" x="63.336875" xlink:href="#mff6ccfd546" y="212.873493"/>
      </g>
     </g>
     <g id="text_10">
      <!-- −0.02 -->
      <g transform="translate(23.942188 217.734118)scale(0.14 -0.14)">
       <use xlink:href="#TimesNewRomanPSMT-2212"/>
       <use x="56.396484" xlink:href="#TimesNewRomanPSMT-30"/>
       <use x="106.396484" xlink:href="#TimesNewRomanPSMT-2e"/>
       <use x="131.396484" xlink:href="#TimesNewRomanPSMT-30"/>
       <use x="181.396484" xlink:href="#TimesNewRomanPSMT-32"/>
      </g>
     </g>
    </g>
    <g id="ytick_4">
     <g id="line2d_19">
      <path clip-path="url(#pececaea4db)" d="M 63.336875 154.567489 
L 398.136875 154.567489 
" style="fill:none;stroke:#000000;stroke-dasharray:0.5,0.825;stroke-dashoffset:0;stroke-width:0.5;"/>
     </g>
     <g id="line2d_20">
      <g>
       <use style="stroke:#000000;stroke-width:0.8;" x="63.336875" xlink:href="#mff6ccfd546" y="154.567489"/>
      </g>
     </g>
     <g id="text_11">
      <!-- 0.00 -->
      <g transform="translate(31.836875 159.428114)scale(0.14 -0.14)">
       <use xlink:href="#TimesNewRomanPSMT-30"/>
       <use x="50" xlink:href="#TimesNewRomanPSMT-2e"/>
       <use x="75" xlink:href="#TimesNewRomanPSMT-30"/>
       <use x="125" xlink:href="#TimesNewRomanPSMT-30"/>
      </g>
     </g>
    </g>
    <g id="ytick_5">
     <g id="line2d_21">
      <path clip-path="url(#pececaea4db)" d="M 63.336875 96.261485 
L 398.136875 96.261485 
" style="fill:none;stroke:#000000;stroke-dasharray:0.5,0.825;stroke-dashoffset:0;stroke-width:0.5;"/>
     </g>
     <g id="line2d_22">
      <g>
       <use style="stroke:#000000;stroke-width:0.8;" x="63.336875" xlink:href="#mff6ccfd546" y="96.261485"/>
      </g>
     </g>
     <g id="text_12">
      <!-- 0.02 -->
      <g transform="translate(31.836875 101.12211)scale(0.14 -0.14)">
       <use xlink:href="#TimesNewRomanPSMT-30"/>
       <use x="50" xlink:href="#TimesNewRomanPSMT-2e"/>
       <use x="75" xlink:href="#TimesNewRomanPSMT-30"/>
       <use x="125" xlink:href="#TimesNewRomanPSMT-32"/>
      </g>
     </g>
    </g>
    <g id="ytick_6">
     <g id="line2d_23">
      <path clip-path="url(#pececaea4db)" d="M 63.336875 37.955481 
L 398.136875 37.955481 
" style="fill:none;stroke:#000000;stroke-dasharray:0.5,0.825;stroke-dashoffset:0;stroke-width:0.5;"/>
     </g>
     <g id="line2d_24">
      <g>
       <use style="stroke:#000000;stroke-width:0.8;" x="63.336875" xlink:href="#mff6ccfd546" y="37.955481"/>
      </g>
     </g>
     <g id="text_13">
      <!-- 0.04 -->
      <g transform="translate(31.836875 42.816106)scale(0.14 -0.14)">
       <use xlink:href="#TimesNewRomanPSMT-30"/>
       <use x="50" xlink:href="#TimesNewRomanPSMT-2e"/>
       <use x="75" xlink:href="#TimesNewRomanPSMT-30"/>
       <use x="125" xlink:href="#TimesNewRomanPSMT-34"/>
      </g>
     </g>
    </g>
    <g id="text_14">
     <!-- Volatage (V) -->
     <g transform="translate(16.92125 209.352344)rotate(-90)scale(0.14 -0.14)">
      <defs>
       <path d="M 4544 4238 
L 4544 4122 
Q 4319 4081 4203 3978 
Q 4038 3825 3909 3509 
L 2431 -97 
L 2316 -97 
L 728 3556 
Q 606 3838 556 3900 
Q 478 3997 364 4051 
Q 250 4106 56 4122 
L 56 4238 
L 1788 4238 
L 1788 4122 
Q 1494 4094 1406 4022 
Q 1319 3950 1319 3838 
Q 1319 3681 1463 3350 
L 2541 866 
L 3541 3319 
Q 3688 3681 3688 3822 
Q 3688 3913 3597 3995 
Q 3506 4078 3291 4113 
Q 3275 4116 3238 4122 
L 3238 4238 
L 4544 4238 
z
" id="TimesNewRomanPSMT-56" transform="scale(0.015625)"/>
       <path d="M 1600 2947 
Q 2250 2947 2644 2453 
Q 2978 2031 2978 1484 
Q 2978 1100 2793 706 
Q 2609 313 2286 112 
Q 1963 -88 1566 -88 
Q 919 -88 538 428 
Q 216 863 216 1403 
Q 216 1797 411 2186 
Q 606 2575 925 2761 
Q 1244 2947 1600 2947 
z
M 1503 2744 
Q 1338 2744 1170 2645 
Q 1003 2547 900 2300 
Q 797 2053 797 1666 
Q 797 1041 1045 587 
Q 1294 134 1700 134 
Q 2003 134 2200 384 
Q 2397 634 2397 1244 
Q 2397 2006 2069 2444 
Q 1847 2744 1503 2744 
z
" id="TimesNewRomanPSMT-6f" transform="scale(0.015625)"/>
       <path d="M 1184 4444 
L 1184 647 
Q 1184 378 1223 290 
Q 1263 203 1344 158 
Q 1425 113 1647 113 
L 1647 0 
L 244 0 
L 244 113 
Q 441 113 512 153 
Q 584 194 625 287 
Q 666 381 666 647 
L 666 3247 
Q 666 3731 644 3842 
Q 622 3953 573 3993 
Q 525 4034 450 4034 
Q 369 4034 244 3984 
L 191 4094 
L 1044 4444 
L 1184 4444 
z
" id="TimesNewRomanPSMT-6c" transform="scale(0.015625)"/>
       <path d="M 1822 413 
Q 1381 72 1269 19 
Q 1100 -59 909 -59 
Q 613 -59 420 144 
Q 228 347 228 678 
Q 228 888 322 1041 
Q 450 1253 767 1440 
Q 1084 1628 1822 1897 
L 1822 2009 
Q 1822 2438 1686 2597 
Q 1550 2756 1291 2756 
Q 1094 2756 978 2650 
Q 859 2544 859 2406 
L 866 2225 
Q 866 2081 792 2003 
Q 719 1925 600 1925 
Q 484 1925 411 2006 
Q 338 2088 338 2228 
Q 338 2497 613 2722 
Q 888 2947 1384 2947 
Q 1766 2947 2009 2819 
Q 2194 2722 2281 2516 
Q 2338 2381 2338 1966 
L 2338 994 
Q 2338 584 2353 492 
Q 2369 400 2405 369 
Q 2441 338 2488 338 
Q 2538 338 2575 359 
Q 2641 400 2828 588 
L 2828 413 
Q 2478 -56 2159 -56 
Q 2006 -56 1915 50 
Q 1825 156 1822 413 
z
M 1822 616 
L 1822 1706 
Q 1350 1519 1213 1441 
Q 966 1303 859 1153 
Q 753 1003 753 825 
Q 753 600 887 451 
Q 1022 303 1197 303 
Q 1434 303 1822 616 
z
" id="TimesNewRomanPSMT-61" transform="scale(0.015625)"/>
       <path d="M 1031 3803 
L 1031 2863 
L 1700 2863 
L 1700 2644 
L 1031 2644 
L 1031 788 
Q 1031 509 1111 412 
Q 1191 316 1316 316 
Q 1419 316 1516 380 
Q 1613 444 1666 569 
L 1788 569 
Q 1678 263 1478 108 
Q 1278 -47 1066 -47 
Q 922 -47 784 33 
Q 647 113 581 261 
Q 516 409 516 719 
L 516 2644 
L 63 2644 
L 63 2747 
Q 234 2816 414 2980 
Q 594 3144 734 3369 
Q 806 3488 934 3803 
L 1031 3803 
z
" id="TimesNewRomanPSMT-74" transform="scale(0.015625)"/>
       <path d="M 966 1044 
Q 703 1172 562 1401 
Q 422 1631 422 1909 
Q 422 2334 742 2640 
Q 1063 2947 1563 2947 
Q 1972 2947 2272 2747 
L 2878 2747 
Q 3013 2747 3034 2739 
Q 3056 2731 3066 2713 
Q 3084 2684 3084 2613 
Q 3084 2531 3069 2500 
Q 3059 2484 3036 2475 
Q 3013 2466 2878 2466 
L 2506 2466 
Q 2681 2241 2681 1891 
Q 2681 1491 2375 1206 
Q 2069 922 1553 922 
Q 1341 922 1119 984 
Q 981 866 932 777 
Q 884 688 884 625 
Q 884 572 936 522 
Q 988 472 1138 450 
Q 1225 438 1575 428 
Q 2219 413 2409 384 
Q 2700 344 2873 169 
Q 3047 -6 3047 -263 
Q 3047 -616 2716 -925 
Q 2228 -1381 1444 -1381 
Q 841 -1381 425 -1109 
Q 191 -953 191 -784 
Q 191 -709 225 -634 
Q 278 -519 444 -313 
Q 466 -284 763 25 
Q 600 122 533 198 
Q 466 275 466 372 
Q 466 481 555 628 
Q 644 775 966 1044 
z
M 1509 2797 
Q 1278 2797 1122 2612 
Q 966 2428 966 2047 
Q 966 1553 1178 1281 
Q 1341 1075 1591 1075 
Q 1828 1075 1981 1253 
Q 2134 1431 2134 1813 
Q 2134 2309 1919 2591 
Q 1759 2797 1509 2797 
z
M 934 0 
Q 788 -159 713 -296 
Q 638 -434 638 -550 
Q 638 -700 819 -813 
Q 1131 -1006 1722 -1006 
Q 2284 -1006 2551 -807 
Q 2819 -609 2819 -384 
Q 2819 -222 2659 -153 
Q 2497 -84 2016 -72 
Q 1313 -53 934 0 
z
" id="TimesNewRomanPSMT-67" transform="scale(0.015625)"/>
      </defs>
      <use xlink:href="#TimesNewRomanPSMT-56"/>
      <use x="59.341797" xlink:href="#TimesNewRomanPSMT-6f"/>
      <use x="109.341797" xlink:href="#TimesNewRomanPSMT-6c"/>
      <use x="137.125" xlink:href="#TimesNewRomanPSMT-61"/>
      <use x="181.509766" xlink:href="#TimesNewRomanPSMT-74"/>
      <use x="209.292969" xlink:href="#TimesNewRomanPSMT-61"/>
      <use x="253.677734" xlink:href="#TimesNewRomanPSMT-67"/>
      <use x="303.677734" xlink:href="#TimesNewRomanPSMT-65"/>
      <use x="348.0625" xlink:href="#TimesNewRomanPSMT-20"/>
      <use x="373.0625" xlink:href="#TimesNewRomanPSMT-28"/>
      <use x="406.363281" xlink:href="#TimesNewRomanPSMT-56"/>
      <use x="478.580078" xlink:href="#TimesNewRomanPSMT-29"/>
     </g>
    </g>
   </g>
   <g id="LineCollection_1">
    <path clip-path="url(#pececaea4db)" d="M 78.555057 154.567489 
L 382.918693 154.567489 
" style="fill:none;stroke:#1f77b4;stroke-width:1.5;"/>
   </g>
   <g id="line2d_25">
    <path clip-path="url(#pececaea4db)" d="M 78.555057 154.575798 
L 111.00022 154.612239 
L 111.030657 154.721563 
L 111.121966 154.64868 
L 111.213275 154.685121 
L 111.243711 154.64868 
L 112.126366 154.758004 
L 112.248111 154.758004 
L 113.282948 154.830886 
L 113.404693 154.903769 
L 113.526439 154.903769 
L 113.982984 155.013093 
L 114.10473 155.013093 
L 114.530839 155.122416 
L 114.68302 155.158858 
L 115.078693 155.268181 
L 115.261311 155.341064 
L 115.930911 155.450388 
L 116.11353 155.52327 
L 116.752693 155.596153 
L 116.874439 155.669035 
L 117.45273 155.778359 
L 117.604911 155.851241 
L 117.757093 155.8148 
L 117.909275 155.851241 
L 118.548439 155.924124 
L 118.670184 155.997006 
L 118.79193 155.997006 
L 119.339784 156.10633 
L 119.491966 156.142771 
L 119.918075 156.252095 
L 120.03982 156.252095 
L 120.37462 156.361419 
L 120.557239 156.434301 
L 120.922475 156.543625 
L 121.165966 156.68939 
L 121.348584 156.798714 
L 121.622511 157.017362 
L 121.652948 156.98092 
L 121.71382 157.053803 
L 123.418257 159.240278 
L 123.874802 160.114868 
L 123.905239 160.114868 
L 124.087857 160.515722 
L 125.548802 164.269171 
L 127.892402 173.087955 
L 129.292475 179.282966 
L 129.870766 181.760971 
L 130.266439 183.510151 
L 131.42302 188.065309 
L 131.788257 189.377194 
L 131.84913 189.522959 
L 132.123057 190.361108 
L 132.975275 192.146729 
L 133.492693 192.620465 
L 133.52313 192.584024 
L 133.553566 192.693348 
L 133.584002 192.656907 
L 134.070984 192.76623 
L 134.253602 192.839113 
L 134.405784 192.802672 
L 134.831893 192.693348 
L 135.227566 192.365377 
L 135.349311 192.256053 
L 135.836293 191.527228 
L 136.323275 190.106019 
L 137.20593 186.534776 
L 138.058148 181.943178 
L 139.153857 174.764252 
L 140.79742 160.078427 
L 142.80622 137.302644 
L 147.91953 71.380421 
L 150.445748 45.324917 
L 151.632766 37.599383 
L 151.93713 36.105283 
L 152.60673 33.408639 
L 153.124148 31.950986 
L 153.489384 31.331479 
L 153.641566 31.222158 
L 153.824184 31.149275 
L 154.158984 31.222158 
L 154.432911 31.623014 
L 154.493784 31.732332 
L 154.706839 32.133189 
L 155.832984 36.579022 
L 156.837384 43.174886 
L 157.385239 47.912251 
L 157.96353 53.633534 
L 158.663566 62.306546 
L 159.759275 78.194929 
L 161.128911 101.225807 
L 162.55942 128.884715 
L 163.685566 152.535087 
L 166.607457 216.525927 
L 169.498911 273.119192 
L 171.35553 300.304372 
L 171.93382 307.08244 
L 172.725166 314.443567 
L 173.333893 318.634311 
L 173.912184 321.440299 
L 174.36873 323.116591 
L 174.673093 323.881854 
L 174.70353 323.881854 
L 174.855711 324.136943 
L 175.403566 324.647129 
L 175.890548 324.537797 
L 177.077566 321.440299 
L 177.503675 319.581789 
L 178.142839 315.791899 
L 178.690693 311.892679 
L 179.847275 301.288286 
L 180.547311 293.562741 
L 182.130002 273.301398 
L 182.830039 262.624109 
L 184.138802 240.540709 
L 186.573711 197.868006 
L 187.456366 182.125385 
L 191.169602 121.669347 
L 191.808766 112.74124 
L 192.965348 97.691005 
L 194.608911 81.146674 
L 197.226439 60.120065 
L 197.865602 56.257292 
L 198.626511 53.123348 
L 198.991748 51.556374 
L 199.38742 50.353818 
L 200.39182 47.146988 
L 200.574439 46.78257 
L 200.939675 46.126627 
L 201.000548 46.053745 
L 201.274475 45.470685 
L 201.426657 45.142713 
L 201.670148 44.814742 
L 201.913639 44.668974 
L 202.613675 44.559653 
L 202.765857 44.523218 
L 203.222402 44.632539 
L 203.618075 44.96051 
L 203.770257 45.069831 
L 203.922439 45.106278 
L 204.135493 45.215596 
L 204.683348 45.980859 
L 204.987711 46.746134 
L 205.07902 46.855455 
L 205.352948 47.474959 
L 205.50513 47.802931 
L 206.052984 49.369904 
L 206.75302 51.483491 
L 206.84433 51.738577 
L 208.792257 59.136151 
L 210.679311 67.663407 
L 210.892366 68.428677 
L 211.409784 70.688034 
L 212.170693 73.821982 
L 212.627239 75.826251 
L 213.357711 79.543259 
L 214.636039 86.175569 
L 216.644839 98.820681 
L 217.13182 102.027511 
L 218.318839 109.789498 
L 221.57553 133.98649 
L 226.201857 179.282966 
L 227.023639 188.68481 
L 227.723675 197.394269 
L 228.362839 205.010491 
L 229.975966 224.798088 
L 232.106511 248.995089 
L 232.563057 253.65956 
L 233.384839 262.259702 
L 235.271893 277.164171 
L 235.88062 280.73542 
L 236.367602 282.593915 
L 236.64153 283.468511 
L 236.915457 284.270221 
L 237.21982 284.743949 
L 237.432875 284.889717 
L 237.64593 284.780396 
L 237.798111 284.671063 
L 238.072039 284.48886 
L 238.285093 284.415978 
L 238.55902 283.978685 
L 238.589457 284.015121 
L 238.863384 283.213422 
L 239.289493 281.937972 
L 240.141711 278.476056 
L 240.56782 275.779401 
L 241.23742 271.114929 
L 241.724402 266.887738 
L 242.515748 259.490161 
L 242.91142 255.262981 
L 245.285457 228.55154 
L 246.563784 210.258032 
L 248.085602 186.826306 
L 249.36393 167.257354 
L 250.916184 144.773101 
L 253.564148 114.344655 
L 254.446802 106.947081 
L 255.238148 101.225807 
L 255.603384 98.966449 
L 256.577348 93.791788 
L 257.460002 90.985815 
L 257.581748 90.694285 
L 258.038293 89.856133 
L 258.677457 88.945102 
L 258.98182 88.471363 
L 259.438366 88.070515 
L 259.620984 87.961188 
L 259.803602 87.778985 
L 260.199275 87.451013 
L 261.629784 87.560331 
L 262.116766 87.997629 
L 262.208075 88.106956 
L 263.151602 89.345958 
L 263.395093 89.819692 
L 263.486402 89.929016 
L 263.851639 90.584958 
L 263.912511 90.694285 
L 264.277748 91.313786 
L 264.42993 91.605316 
L 264.703857 92.188373 
L 266.895275 97.654561 
L 267.260511 98.893564 
L 268.934511 105.307224 
L 269.664984 108.29541 
L 270.273711 110.882739 
L 271.643348 117.952339 
L 273.743457 129.868629 
L 275.995748 140.145061 
L 277.456693 145.793456 
L 277.943675 147.65196 
L 278.126293 148.307902 
L 278.552402 149.874876 
L 278.856766 150.822348 
L 279.191566 151.915586 
L 279.282875 152.134234 
L 279.556802 152.935941 
L 281.809093 158.074158 
L 282.17433 158.657218 
L 282.570002 159.349602 
L 283.270039 160.041986 
L 283.300475 160.005544 
L 283.361348 160.078427 
L 283.543966 160.187751 
L 283.84833 160.406398 
L 284.883166 160.297074 
L 285.065784 160.224192 
L 285.217966 160.114868 
L 286.313675 158.657218 
L 289.966039 150.166406 
L 290.179093 149.765552 
L 290.392148 149.510463 
L 290.909566 149.036727 
L 291.092184 148.927404 
L 291.274802 148.708756 
L 291.396548 148.745197 
L 291.487857 148.708756 
L 291.518293 148.745197 
L 291.79222 148.854521 
L 292.005275 149.10961 
L 292.035711 149.073168 
L 292.066148 149.182492 
L 292.096584 149.146051 
L 293.040111 150.421495 
L 293.314039 151.040996 
L 293.496657 151.405409 
L 294.257566 153.48256 
L 295.383711 157.928393 
L 297.057711 166.455646 
L 302.384075 197.685799 
L 302.992802 201.074836 
L 303.418911 203.334191 
L 304.17982 207.233408 
L 305.001602 210.658888 
L 306.310366 214.958953 
L 307.101711 216.598809 
L 307.253893 216.671692 
L 307.28433 216.781013 
L 307.375639 216.744577 
L 307.740875 217.036107 
L 307.86262 217.108984 
L 308.045239 217.291193 
L 308.227857 217.40052 
L 308.349602 217.364079 
L 308.380039 217.40052 
L 308.440911 217.327635 
L 308.684402 217.254752 
L 308.836584 217.108984 
L 309.080075 216.999663 
L 309.810548 216.015749 
L 310.145348 215.214039 
L 310.267093 214.922512 
L 310.87582 213.209776 
L 312.428075 205.265577 
L 313.584657 197.722241 
L 313.828148 196.045943 
L 314.193384 193.276408 
L 314.802111 188.466163 
L 315.380402 183.510151 
L 316.263057 176.076136 
L 316.90222 170.682832 
L 318.697966 156.507184 
L 319.063202 153.664766 
L 322.045966 133.039017 
L 326.002693 110.008143 
L 326.124439 109.461527 
L 326.854911 106.4369 
L 327.433202 104.177542 
L 328.985457 99.00289 
L 329.807239 97.290149 
L 329.868111 97.217266 
L 330.172475 96.743533 
L 330.263784 96.670647 
L 330.476839 96.415561 
L 330.902948 96.051146 
L 331.05513 95.978264 
L 331.207311 95.79606 
L 331.237748 95.832496 
L 331.29862 95.759619 
L 331.420366 95.686733 
L 331.572548 95.540966 
L 331.816039 95.431645 
L 332.05953 95.28588 
L 332.424766 95.212994 
L 332.546511 95.140118 
L 333.429166 95.249436 
L 334.73793 96.962177 
L 335.011857 97.581679 
L 335.255348 98.018977 
L 336.168439 99.950363 
L 336.259748 100.169008 
L 336.65542 101.189363 
L 336.685857 101.189363 
L 336.99022 102.136835 
L 337.32502 103.193634 
L 339.059893 109.825939 
L 339.486002 111.720885 
L 340.612148 116.604012 
L 341.129566 118.86337 
L 341.616548 121.122728 
L 342.01222 122.908349 
L 342.560075 125.568561 
L 342.925311 127.281299 
L 343.503602 130.087275 
L 343.838402 131.654251 
L 344.173202 133.366989 
L 344.264511 133.804283 
L 344.842802 136.646701 
L 344.964548 137.19332 
L 345.329784 138.906059 
L 346.608111 145.501926 
L 347.12553 148.453667 
L 347.79513 152.097792 
L 348.099493 153.810531 
L 351.234439 168.350591 
L 351.417057 169.042975 
L 352.695384 173.233719 
L 357.108657 184.056771 
L 357.50433 185.077127 
L 359.482693 189.5594 
L 359.665311 189.923813 
L 360.42622 191.490786 
L 360.51753 191.60011 
L 361.217566 192.584024 
L 361.461057 192.911995 
L 361.795857 193.203525 
L 361.826293 193.167084 
L 361.85673 193.276408 
L 362.069784 193.385732 
L 362.130657 193.34929 
L 362.161093 193.422173 
L 362.465457 193.64082 
L 362.739384 193.750144 
L 362.922002 193.823027 
L 363.10462 193.750144 
L 363.165493 193.823027 
L 363.226366 193.786585 
L 363.956839 193.677262 
L 364.10902 193.64082 
L 364.20033 193.64082 
L 364.382948 193.531497 
L 364.474257 193.531497 
L 364.656875 193.458614 
L 365.356911 193.385732 
L 365.417784 193.312849 
L 365.478657 193.34929 
L 365.661275 193.276408 
L 366.056948 193.167084 
L 366.300439 193.021319 
L 366.635239 192.911995 
L 366.78742 192.839113 
L 366.909166 192.875554 
L 367.21353 192.76623 
L 367.426584 192.656907 
L 367.609202 192.584024 
L 367.761384 192.4747 
L 367.79182 192.511142 
L 367.852693 192.438259 
L 368.430984 192.328935 
L 368.613602 192.256053 
L 368.735348 192.146729 
L 368.917966 192.073847 
L 369.496257 191.964523 
L 369.648439 191.89164 
L 369.709311 191.928081 
L 369.739748 191.89164 
L 369.983239 191.745875 
L 370.257166 191.636551 
L 370.378911 191.527228 
L 370.439784 191.563669 
L 370.47022 191.490786 
L 370.744148 191.381463 
L 371.078948 191.126374 
L 371.170257 191.01705 
L 371.47462 190.798403 
L 371.626802 190.689079 
L 371.839857 190.579755 
L 371.992039 190.470431 
L 372.296402 190.215343 
L 372.357275 190.251784 
L 372.387711 190.178901 
L 372.692075 189.960254 
L 372.844257 189.85093 
L 373.14862 189.632283 
L 373.179057 189.668724 
L 373.23993 189.595841 
L 373.392111 189.486518 
L 375.218293 187.154277 
L 375.82702 185.915275 
L 375.91833 185.805951 
L 378.140184 180.23044 
L 378.627166 178.882112 
L 379.053275 177.606669 
L 381.396875 168.787886 
L 382.918693 161.791166 
L 382.918693 161.791166 
" style="fill:none;stroke:#0000ff;stroke-linecap:square;stroke-width:1.5;"/>
   </g>
   <g id="line2d_26">
    <path clip-path="url(#pececaea4db)" d="M 78.555057 154.638185 
L 82.846584 154.528861 
L 83.059639 154.528861 
L 83.272693 154.528861 
L 83.485748 154.510641 
L 83.759675 154.547082 
L 84.003166 154.528861 
L 95.508111 154.419538 
L 95.751602 154.401317 
L 95.964657 154.401317 
L 100.408366 154.510641 
L 101.077966 154.78395 
L 101.29102 154.893274 
L 101.991057 155.439893 
L 103.05633 156.861102 
L 105.095566 161.999318 
L 106.769566 168.412978 
L 107.65222 172.111766 
L 108.230511 174.589771 
L 110.178439 182.278874 
L 111.608948 186.214531 
L 111.913311 186.74293 
L 112.217675 187.307768 
L 113.252511 188.382785 
L 114.01342 188.291682 
L 114.956948 186.998017 
L 115.44393 185.90478 
L 116.02222 184.264923 
L 116.661384 181.568271 
L 117.483166 177.650837 
L 117.970148 174.790198 
L 120.618111 156.624233 
L 122.413857 141.792644 
L 125.579239 116.192664 
L 126.431457 110.872238 
L 127.557602 104.786549 
L 129.140293 97.735169 
L 130.114257 95.166061 
L 130.357748 94.746987 
L 130.662111 94.163927 
L 131.08822 93.599087 
L 131.666511 93.143571 
L 132.51873 91.831686 
L 132.792657 91.667701 
L 133.279639 91.55838 
L 133.949239 91.285068 
L 134.86233 91.704142 
L 135.288439 91.55838 
L 135.410184 91.576598 
L 135.562366 91.613039 
L 135.714548 91.704142 
L 136.262402 92.214317 
L 136.840693 92.305426 
L 137.78422 93.580869 
L 138.149457 94.200368 
L 138.332075 94.583001 
L 138.666875 95.639797 
L 139.275602 98.227129 
L 141.710511 110.398505 
L 143.536693 123.116502 
L 144.662839 132.226814 
L 148.650002 166.572695 
L 151.054475 188.546771 
L 153.885057 209.719141 
L 155.163384 216.023475 
L 155.86342 218.155288 
L 156.746075 220.013792 
L 157.993966 220.633294 
L 158.420075 220.25066 
L 158.663566 219.86803 
L 159.272293 218.993437 
L 159.667966 218.355715 
L 160.033202 217.481122 
L 160.854984 215.258206 
L 162.346366 209.500488 
L 162.89422 206.730956 
L 164.050802 199.934662 
L 168.129275 171.437603 
L 169.042366 166.609136 
L 170.442439 161.17939 
L 171.294657 159.411989 
L 171.446839 159.193342 
L 171.69033 158.792488 
L 172.02513 158.391634 
L 172.116439 158.336972 
L 172.329493 158.336972 
L 173.455639 159.13868 
L 173.760002 159.630637 
L 174.186111 160.559889 
L 175.251384 163.384086 
L 176.681893 169.815967 
L 178.568948 181.786917 
L 179.755966 189.530684 
L 180.942984 195.962566 
L 183.225711 207.660211 
L 184.595348 211.450098 
L 185.264948 212.106043 
L 185.41713 212.087817 
L 186.025857 211.59586 
L 186.451966 210.611946 
L 187.273748 207.805973 
L 187.638984 206.129672 
L 188.978184 198.313026 
L 190.10433 189.457802 
L 190.865239 181.659373 
L 193.02622 157.189073 
L 195.004584 133.447597 
L 195.917675 123.335149 
L 198.535202 96.277516 
L 199.783093 84.069697 
L 200.544002 77.018317 
L 201.670148 67.87156 
L 202.887602 60.546877 
L 204.226802 54.643391 
L 204.865966 53.058194 
L 205.292075 52.475134 
L 205.718184 52.584454 
L 205.992111 53.03997 
L 206.448657 54.060331 
L 207.42262 56.665878 
L 208.000911 58.651932 
L 208.305275 59.654057 
L 208.822693 61.895197 
L 209.52273 65.429999 
L 210.070584 68.181313 
L 211.896766 79.787852 
L 216.036111 110.325622 
L 220.266766 142.412145 
L 222.032075 153.308079 
L 223.675639 162.473054 
L 226.780148 178.598309 
L 229.397675 189.11161 
L 234.784911 205.583056 
L 236.002366 209.555156 
L 236.702402 211.304333 
L 237.737239 213.509029 
L 238.406839 214.492942 
L 238.89382 214.912017 
L 239.289493 215.021344 
L 239.624293 215.09422 
L 240.476511 215.203547 
L 240.780875 215.276429 
L 240.90262 215.276429 
L 241.176548 215.331091 
L 241.359166 215.349315 
L 241.602657 215.385756 
L 241.876584 215.349315 
L 243.58102 215.458633 
L 244.068002 215.877707 
L 245.25502 217.462905 
L 245.620257 218.064188 
L 245.985493 218.665463 
L 248.176911 222.819766 
L 248.572584 223.65792 
L 248.907384 224.222754 
L 249.36393 225.042682 
L 251.433602 228.97834 
L 251.798839 229.597842 
L 251.95102 229.798269 
L 252.316257 230.235566 
L 253.198911 230.636414 
L 253.62502 230.527094 
L 254.781602 229.707165 
L 255.116402 229.142326 
L 256.212111 226.245249 
L 257.155639 222.455353 
L 258.038293 217.699773 
L 258.860075 212.106043 
L 259.529675 206.512311 
L 261.477602 185.558588 
L 262.177639 176.393613 
L 264.00382 148.570716 
L 268.812766 69.748287 
L 270.517202 47.755991 
L 271.612911 37.133363 
L 272.404257 31.011236 
L 273.439093 25.453948 
L 274.108693 23.103487 
L 274.626111 22.374662 
L 275.326148 22.465756 
L 276.087057 24.032742 
L 277.274075 28.679001 
L 278.004548 33.179493 
L 279.16113 42.253362 
L 281.41342 64.883377 
L 282.235202 74.339888 
L 289.44862 159.411989 
L 292.431384 188.674315 
L 294.318439 203.560567 
L 295.23153 209.336502 
L 296.875093 218.501477 
L 297.849057 223.165961 
L 299.005639 227.557134 
L 299.310002 228.559266 
L 300.25353 231.037271 
L 301.25793 232.622466 
L 301.59273 232.877554 
L 301.83622 232.986881 
L 302.414511 233.205526 
L 302.749311 233.096199 
L 303.753711 231.091936 
L 305.092911 225.006247 
L 305.701639 221.59899 
L 309.110511 198.440571 
L 309.901857 193.138368 
L 315.502148 156.970425 
L 317.023966 149.372424 
L 317.602257 146.894419 
L 318.33273 143.924457 
L 319.124075 141.464673 
L 319.489311 140.334994 
L 319.945857 139.095991 
L 320.58502 137.529017 
L 321.68073 135.160335 
L 322.167711 134.41329 
L 322.776439 133.538699 
L 323.080802 133.24717 
L 323.35473 132.937419 
L 323.476475 132.828096 
L 325.02873 130.805605 
L 325.880948 129.038204 
L 327.341893 126.214008 
L 327.70713 125.448742 
L 328.011493 124.701696 
L 329.137639 121.658852 
L 329.350693 121.094012 
L 329.898548 119.508818 
L 330.415966 118.014726 
L 331.05513 116.119781 
L 332.455202 112.238788 
L 332.576948 111.947255 
L 334.585748 107.410322 
L 335.042293 106.772603 
L 335.133602 106.663276 
L 335.74233 106.080216 
L 335.924948 105.970892 
L 337.507639 105.150964 
L 338.268548 105.242064 
L 338.512039 105.387832 
L 338.694657 105.478935 
L 339.029457 105.861566 
L 339.212075 106.098437 
L 340.581711 108.776866 
L 341.890475 113.022275 
L 342.468766 115.263412 
L 343.990584 122.114367 
L 344.568875 125.412301 
L 345.390657 131.006033 
L 347.338584 145.309225 
L 348.312548 152.433489 
L 353.699784 193.521002 
L 354.521566 199.114734 
L 356.378184 210.63017 
L 357.139093 214.146748 
L 358.113057 217.754435 
L 358.934839 220.305322 
L 359.42182 221.234574 
L 360.365348 221.69009 
L 361.034948 221.161692 
L 362.130657 219.685821 
L 362.587202 218.665463 
L 363.43942 216.351446 
L 365.600402 206.822059 
L 366.300439 202.941065 
L 367.152657 197.165127 
L 369.80062 175.701229 
L 374.640002 130.404753 
L 375.796584 121.640631 
L 378.779348 102.727621 
L 379.448948 99.684776 
L 381.18382 93.835955 
L 381.701239 92.688056 
L 382.18822 91.795242 
L 382.675202 91.1393 
L 382.918693 90.884214 
L 382.918693 90.884214 
" style="fill:none;stroke:#ff0000;stroke-linecap:square;stroke-width:1.5;"/>
   </g>
   <g id="line2d_27">
    <path clip-path="url(#pececaea4db)" d="M 125.15313 163.10305 
" style="fill:none;stroke:#ffffff;stroke-linecap:square;stroke-width:1.5;"/>
    <defs>
     <path d="M 0 -5 
L -1.12257 -1.545085 
L -4.755283 -1.545085 
L -1.816356 0.59017 
L -2.938926 4.045085 
L -0 1.90983 
L 2.938926 4.045085 
L 1.816356 0.59017 
L 4.755283 -1.545085 
L 1.12257 -1.545085 
z
" id="md1fd1c1cdc" style="stroke:#ffffff;stroke-linejoin:bevel;"/>
    </defs>
    <g clip-path="url(#pececaea4db)">
     <use style="fill:#0000ff;stroke:#ffffff;stroke-linejoin:bevel;" x="125.15313" xlink:href="#md1fd1c1cdc" y="163.10305"/>
    </g>
   </g>
   <g id="line2d_28">
    <path clip-path="url(#pececaea4db)" d="M 104.852075 161.197611 
" style="fill:none;stroke:#ffffff;stroke-linecap:square;stroke-width:1.5;"/>
    <defs>
     <path d="M 0 -5 
L -1.12257 -1.545085 
L -4.755283 -1.545085 
L -1.816356 0.59017 
L -2.938926 4.045085 
L -0 1.90983 
L 2.938926 4.045085 
L 1.816356 0.59017 
L 4.755283 -1.545085 
L 1.12257 -1.545085 
z
" id="mb537b7a981" style="stroke:#ffffff;stroke-linejoin:bevel;"/>
    </defs>
    <g clip-path="url(#pececaea4db)">
     <use style="fill:#ff0000;stroke:#ffffff;stroke-linejoin:bevel;" x="104.852075" xlink:href="#mb537b7a981" y="161.197611"/>
    </g>
   </g>
   <g id="patch_3">
    <path d="M 63.336875 339.84 
L 63.336875 7.2 
" style="fill:none;stroke:#000000;stroke-linecap:square;stroke-linejoin:miter;stroke-width:0.8;"/>
   </g>
   <g id="patch_4">
    <path d="M 398.136875 339.84 
L 398.136875 7.2 
" style="fill:none;stroke:#000000;stroke-linecap:square;stroke-linejoin:miter;stroke-width:0.8;"/>
   </g>
   <g id="patch_5">
    <path d="M 63.336875 339.84 
L 398.136875 339.84 
" style="fill:none;stroke:#000000;stroke-linecap:square;stroke-linejoin:miter;stroke-width:0.8;"/>
   </g>
   <g id="patch_6">
    <path d="M 63.336875 7.2 
L 398.136875 7.2 
" style="fill:none;stroke:#000000;stroke-linecap:square;stroke-linejoin:miter;stroke-width:0.8;"/>
   </g>
   <g id="text_15">
    <g id="patch_7">
     <path d="M 75.036875 331.242688 
L 166.79375 331.242688 
L 166.79375 293.760312 
L 75.036875 293.760312 
z
" style="fill:#ffffff;stroke:#000000;stroke-linejoin:miter;stroke-width:0.75;"/>
    </g>
    <!-- Auto_00104 -->
    <g transform="translate(80.076875 308.521563)scale(0.14 -0.14)">
     <defs>
      <path d="M 2928 1419 
L 1288 1419 
L 1000 750 
Q 894 503 894 381 
Q 894 284 986 211 
Q 1078 138 1384 116 
L 1384 0 
L 50 0 
L 50 116 
Q 316 163 394 238 
Q 553 388 747 847 
L 2238 4334 
L 2347 4334 
L 3822 809 
Q 4000 384 4145 257 
Q 4291 131 4550 116 
L 4550 0 
L 2878 0 
L 2878 116 
Q 3131 128 3220 200 
Q 3309 272 3309 375 
Q 3309 513 3184 809 
L 2928 1419 
z
M 2841 1650 
L 2122 3363 
L 1384 1650 
L 2841 1650 
z
" id="TimesNewRomanPSMT-41" transform="scale(0.015625)"/>
      <path d="M 2709 2863 
L 2709 1128 
Q 2709 631 2732 520 
Q 2756 409 2807 365 
Q 2859 322 2928 322 
Q 3025 322 3147 375 
L 3191 266 
L 2334 -88 
L 2194 -88 
L 2194 519 
Q 1825 119 1631 15 
Q 1438 -88 1222 -88 
Q 981 -88 804 51 
Q 628 191 559 409 
Q 491 628 491 1028 
L 491 2306 
Q 491 2509 447 2587 
Q 403 2666 317 2708 
Q 231 2750 6 2747 
L 6 2863 
L 1009 2863 
L 1009 947 
Q 1009 547 1148 422 
Q 1288 297 1484 297 
Q 1619 297 1789 381 
Q 1959 466 2194 703 
L 2194 2325 
Q 2194 2569 2105 2655 
Q 2016 2741 1734 2747 
L 1734 2863 
L 2709 2863 
z
" id="TimesNewRomanPSMT-75" transform="scale(0.015625)"/>
      <path d="M 3256 -1381 
L -53 -1381 
L -53 -1119 
L 3256 -1119 
L 3256 -1381 
z
" id="TimesNewRomanPSMT-5f" transform="scale(0.015625)"/>
     </defs>
     <use xlink:href="#TimesNewRomanPSMT-41"/>
     <use x="72.216797" xlink:href="#TimesNewRomanPSMT-75"/>
     <use x="122.216797" xlink:href="#TimesNewRomanPSMT-74"/>
     <use x="150" xlink:href="#TimesNewRomanPSMT-6f"/>
     <use x="200" xlink:href="#TimesNewRomanPSMT-5f"/>
     <use x="250" xlink:href="#TimesNewRomanPSMT-30"/>
     <use x="300" xlink:href="#TimesNewRomanPSMT-30"/>
     <use x="350" xlink:href="#TimesNewRomanPSMT-31"/>
     <use x="400" xlink:href="#TimesNewRomanPSMT-30"/>
     <use x="450" xlink:href="#TimesNewRomanPSMT-34"/>
    </g>
    <!-- Vs: 299.69m/s -->
    <g transform="translate(80.076875 323.208)scale(0.14 -0.14)">
     <defs>
      <path d="M 903 2950 
Q 1047 2950 1148 2848 
Q 1250 2747 1250 2603 
Q 1250 2459 1148 2357 
Q 1047 2256 903 2256 
Q 759 2256 657 2357 
Q 556 2459 556 2603 
Q 556 2747 657 2848 
Q 759 2950 903 2950 
z
M 897 609 
Q 1044 609 1145 506 
Q 1247 403 1247 259 
Q 1247 116 1144 14 
Q 1041 -88 897 -88 
Q 753 -88 651 14 
Q 550 116 550 259 
Q 550 403 651 506 
Q 753 609 897 609 
z
" id="TimesNewRomanPSMT-3a" transform="scale(0.015625)"/>
      <path d="M 338 -88 
L 338 28 
Q 744 34 1094 217 
Q 1444 400 1770 856 
Q 2097 1313 2225 1859 
Q 1734 1544 1338 1544 
Q 891 1544 572 1889 
Q 253 2234 253 2806 
Q 253 3363 572 3797 
Q 956 4325 1575 4325 
Q 2097 4325 2469 3894 
Q 2925 3359 2925 2575 
Q 2925 1869 2578 1258 
Q 2231 647 1613 244 
Q 1109 -88 516 -88 
L 338 -88 
z
M 2275 2091 
Q 2331 2497 2331 2741 
Q 2331 3044 2228 3395 
Q 2125 3747 1936 3934 
Q 1747 4122 1506 4122 
Q 1228 4122 1018 3872 
Q 809 3622 809 3128 
Q 809 2469 1088 2097 
Q 1291 1828 1588 1828 
Q 1731 1828 1928 1897 
Q 2125 1966 2275 2091 
z
" id="TimesNewRomanPSMT-39" transform="scale(0.015625)"/>
      <path d="M 1794 4444 
L 259 -88 
L 9 -88 
L 1544 4444 
L 1794 4444 
z
" id="TimesNewRomanPSMT-2f" transform="scale(0.015625)"/>
     </defs>
     <use xlink:href="#TimesNewRomanPSMT-56"/>
     <use x="72.216797" xlink:href="#TimesNewRomanPSMT-73"/>
     <use x="111.132812" xlink:href="#TimesNewRomanPSMT-3a"/>
     <use x="138.916016" xlink:href="#TimesNewRomanPSMT-20"/>
     <use x="163.916016" xlink:href="#TimesNewRomanPSMT-32"/>
     <use x="213.916016" xlink:href="#TimesNewRomanPSMT-39"/>
     <use x="263.916016" xlink:href="#TimesNewRomanPSMT-39"/>
     <use x="313.916016" xlink:href="#TimesNewRomanPSMT-2e"/>
     <use x="338.916016" xlink:href="#TimesNewRomanPSMT-36"/>
     <use x="388.916016" xlink:href="#TimesNewRomanPSMT-39"/>
     <use x="438.916016" xlink:href="#TimesNewRomanPSMT-6d"/>
     <use x="516.699219" xlink:href="#TimesNewRomanPSMT-2f"/>
     <use x="544.482422" xlink:href="#TimesNewRomanPSMT-73"/>
    </g>
   </g>
  </g>
 </g>
 <defs>
  <clipPath id="pececaea4db">
   <rect height="332.64" width="334.8" x="63.336875" y="7.2"/>
  </clipPath>
 </defs>
</svg>
