<?xml version="1.0" encoding="utf-8" standalone="no"?>
<!DOCTYPE svg PUBLIC "-//W3C//DTD SVG 1.1//EN"
  "http://www.w3.org/Graphics/SVG/1.1/DTD/svg11.dtd">
<svg height="383.471875pt" version="1.1" viewBox="0 0 421.086875 383.471875" width="421.086875pt" xmlns="http://www.w3.org/2000/svg" xmlns:xlink="http://www.w3.org/1999/xlink">
 <metadata>
  <rdf:RDF xmlns:cc="http://creativecommons.org/ns#" xmlns:dc="http://purl.org/dc/elements/1.1/" xmlns:rdf="http://www.w3.org/1999/02/22-rdf-syntax-ns#">
   <cc:Work>
    <dc:type rdf:resource="http://purl.org/dc/dcmitype/StillImage"/>
    <dc:date>2021-06-11T14:39:39.070086</dc:date>
    <dc:format>image/svg+xml</dc:format>
    <dc:creator>
     <cc:Agent>
      <dc:title>Matplotlib v3.4.2, https://matplotlib.org/</dc:title>
     </cc:Agent>
    </dc:creator>
   </cc:Work>
  </rdf:RDF>
 </metadata>
 <defs>
  <style type="text/css">*{stroke-linecap:butt;stroke-linejoin:round;}</style>
 </defs>
 <g id="figure_1">
  <g id="patch_1">
   <path d="M 0 383.471875 
L 421.086875 383.471875 
L 421.086875 0 
L 0 0 
z
" style="fill:#ffffff;"/>
  </g>
  <g id="axes_1">
   <g id="patch_2">
    <path d="M 63.336875 339.84 
L 398.136875 339.84 
L 398.136875 7.2 
L 63.336875 7.2 
z
" style="fill:#ffffff;"/>
   </g>
   <g id="matplotlib.axis_1">
    <g id="xtick_1">
     <g id="line2d_1">
      <path clip-path="url(#p456d41769f)" d="M 93.773239 339.84 
L 93.773239 7.2 
" style="fill:none;stroke:#000000;stroke-dasharray:0.5,0.825;stroke-dashoffset:0;stroke-width:0.5;"/>
     </g>
     <g id="line2d_2">
      <defs>
       <path d="M 0 0 
L 0 3.5 
" id="m79afb7fc38" style="stroke:#000000;stroke-width:0.8;"/>
      </defs>
      <g>
       <use style="stroke:#000000;stroke-width:0.8;" x="93.773239" xlink:href="#m79afb7fc38" y="339.84"/>
      </g>
     </g>
     <g id="text_1">
      <!-- 0.000 -->
      <g transform="translate(78.023239 356.56125)scale(0.14 -0.14)">
       <defs>
        <path d="M 231 2094 
Q 231 2819 450 3342 
Q 669 3866 1031 4122 
Q 1313 4325 1613 4325 
Q 2100 4325 2488 3828 
Q 2972 3213 2972 2159 
Q 2972 1422 2759 906 
Q 2547 391 2217 158 
Q 1888 -75 1581 -75 
Q 975 -75 572 641 
Q 231 1244 231 2094 
z
M 844 2016 
Q 844 1141 1059 588 
Q 1238 122 1591 122 
Q 1759 122 1940 273 
Q 2122 425 2216 781 
Q 2359 1319 2359 2297 
Q 2359 3022 2209 3506 
Q 2097 3866 1919 4016 
Q 1791 4119 1609 4119 
Q 1397 4119 1231 3928 
Q 1006 3669 925 3112 
Q 844 2556 844 2016 
z
" id="TimesNewRomanPSMT-30" transform="scale(0.015625)"/>
        <path d="M 800 606 
Q 947 606 1047 504 
Q 1147 403 1147 259 
Q 1147 116 1045 14 
Q 944 -88 800 -88 
Q 656 -88 554 14 
Q 453 116 453 259 
Q 453 406 554 506 
Q 656 606 800 606 
z
" id="TimesNewRomanPSMT-2e" transform="scale(0.015625)"/>
       </defs>
       <use xlink:href="#TimesNewRomanPSMT-30"/>
       <use x="50" xlink:href="#TimesNewRomanPSMT-2e"/>
       <use x="75" xlink:href="#TimesNewRomanPSMT-30"/>
       <use x="125" xlink:href="#TimesNewRomanPSMT-30"/>
       <use x="175" xlink:href="#TimesNewRomanPSMT-30"/>
      </g>
     </g>
    </g>
    <g id="xtick_2">
     <g id="line2d_3">
      <path clip-path="url(#p456d41769f)" d="M 154.645966 339.84 
L 154.645966 7.2 
" style="fill:none;stroke:#000000;stroke-dasharray:0.5,0.825;stroke-dashoffset:0;stroke-width:0.5;"/>
     </g>
     <g id="line2d_4">
      <g>
       <use style="stroke:#000000;stroke-width:0.8;" x="154.645966" xlink:href="#m79afb7fc38" y="339.84"/>
      </g>
     </g>
     <g id="text_2">
      <!-- 0.001 -->
      <g transform="translate(138.895966 356.56125)scale(0.14 -0.14)">
       <defs>
        <path d="M 750 3822 
L 1781 4325 
L 1884 4325 
L 1884 747 
Q 1884 391 1914 303 
Q 1944 216 2037 169 
Q 2131 122 2419 116 
L 2419 0 
L 825 0 
L 825 116 
Q 1125 122 1212 167 
Q 1300 213 1334 289 
Q 1369 366 1369 747 
L 1369 3034 
Q 1369 3497 1338 3628 
Q 1316 3728 1258 3775 
Q 1200 3822 1119 3822 
Q 1003 3822 797 3725 
L 750 3822 
z
" id="TimesNewRomanPSMT-31" transform="scale(0.015625)"/>
       </defs>
       <use xlink:href="#TimesNewRomanPSMT-30"/>
       <use x="50" xlink:href="#TimesNewRomanPSMT-2e"/>
       <use x="75" xlink:href="#TimesNewRomanPSMT-30"/>
       <use x="125" xlink:href="#TimesNewRomanPSMT-30"/>
       <use x="175" xlink:href="#TimesNewRomanPSMT-31"/>
      </g>
     </g>
    </g>
    <g id="xtick_3">
     <g id="line2d_5">
      <path clip-path="url(#p456d41769f)" d="M 215.518693 339.84 
L 215.518693 7.2 
" style="fill:none;stroke:#000000;stroke-dasharray:0.5,0.825;stroke-dashoffset:0;stroke-width:0.5;"/>
     </g>
     <g id="line2d_6">
      <g>
       <use style="stroke:#000000;stroke-width:0.8;" x="215.518693" xlink:href="#m79afb7fc38" y="339.84"/>
      </g>
     </g>
     <g id="text_3">
      <!-- 0.002 -->
      <g transform="translate(199.768693 356.56125)scale(0.14 -0.14)">
       <defs>
        <path d="M 2934 816 
L 2638 0 
L 138 0 
L 138 116 
Q 1241 1122 1691 1759 
Q 2141 2397 2141 2925 
Q 2141 3328 1894 3587 
Q 1647 3847 1303 3847 
Q 991 3847 742 3664 
Q 494 3481 375 3128 
L 259 3128 
Q 338 3706 661 4015 
Q 984 4325 1469 4325 
Q 1984 4325 2329 3994 
Q 2675 3663 2675 3213 
Q 2675 2891 2525 2569 
Q 2294 2063 1775 1497 
Q 997 647 803 472 
L 1909 472 
Q 2247 472 2383 497 
Q 2519 522 2628 598 
Q 2738 675 2819 816 
L 2934 816 
z
" id="TimesNewRomanPSMT-32" transform="scale(0.015625)"/>
       </defs>
       <use xlink:href="#TimesNewRomanPSMT-30"/>
       <use x="50" xlink:href="#TimesNewRomanPSMT-2e"/>
       <use x="75" xlink:href="#TimesNewRomanPSMT-30"/>
       <use x="125" xlink:href="#TimesNewRomanPSMT-30"/>
       <use x="175" xlink:href="#TimesNewRomanPSMT-32"/>
      </g>
     </g>
    </g>
    <g id="xtick_4">
     <g id="line2d_7">
      <path clip-path="url(#p456d41769f)" d="M 276.39142 339.84 
L 276.39142 7.2 
" style="fill:none;stroke:#000000;stroke-dasharray:0.5,0.825;stroke-dashoffset:0;stroke-width:0.5;"/>
     </g>
     <g id="line2d_8">
      <g>
       <use style="stroke:#000000;stroke-width:0.8;" x="276.39142" xlink:href="#m79afb7fc38" y="339.84"/>
      </g>
     </g>
     <g id="text_4">
      <!-- 0.003 -->
      <g transform="translate(260.64142 356.56125)scale(0.14 -0.14)">
       <defs>
        <path d="M 325 3431 
Q 506 3859 782 4092 
Q 1059 4325 1472 4325 
Q 1981 4325 2253 3994 
Q 2459 3747 2459 3466 
Q 2459 3003 1878 2509 
Q 2269 2356 2469 2072 
Q 2669 1788 2669 1403 
Q 2669 853 2319 450 
Q 1863 -75 997 -75 
Q 569 -75 414 31 
Q 259 138 259 259 
Q 259 350 332 419 
Q 406 488 509 488 
Q 588 488 669 463 
Q 722 447 909 348 
Q 1097 250 1169 231 
Q 1284 197 1416 197 
Q 1734 197 1970 444 
Q 2206 691 2206 1028 
Q 2206 1275 2097 1509 
Q 2016 1684 1919 1775 
Q 1784 1900 1550 2001 
Q 1316 2103 1072 2103 
L 972 2103 
L 972 2197 
Q 1219 2228 1467 2375 
Q 1716 2522 1828 2728 
Q 1941 2934 1941 3181 
Q 1941 3503 1739 3701 
Q 1538 3900 1238 3900 
Q 753 3900 428 3381 
L 325 3431 
z
" id="TimesNewRomanPSMT-33" transform="scale(0.015625)"/>
       </defs>
       <use xlink:href="#TimesNewRomanPSMT-30"/>
       <use x="50" xlink:href="#TimesNewRomanPSMT-2e"/>
       <use x="75" xlink:href="#TimesNewRomanPSMT-30"/>
       <use x="125" xlink:href="#TimesNewRomanPSMT-30"/>
       <use x="175" xlink:href="#TimesNewRomanPSMT-33"/>
      </g>
     </g>
    </g>
    <g id="xtick_5">
     <g id="line2d_9">
      <path clip-path="url(#p456d41769f)" d="M 337.264148 339.84 
L 337.264148 7.2 
" style="fill:none;stroke:#000000;stroke-dasharray:0.5,0.825;stroke-dashoffset:0;stroke-width:0.5;"/>
     </g>
     <g id="line2d_10">
      <g>
       <use style="stroke:#000000;stroke-width:0.8;" x="337.264148" xlink:href="#m79afb7fc38" y="339.84"/>
      </g>
     </g>
     <g id="text_5">
      <!-- 0.004 -->
      <g transform="translate(321.514148 356.56125)scale(0.14 -0.14)">
       <defs>
        <path d="M 2978 1563 
L 2978 1119 
L 2409 1119 
L 2409 0 
L 1894 0 
L 1894 1119 
L 100 1119 
L 100 1519 
L 2066 4325 
L 2409 4325 
L 2409 1563 
L 2978 1563 
z
M 1894 1563 
L 1894 3666 
L 406 1563 
L 1894 1563 
z
" id="TimesNewRomanPSMT-34" transform="scale(0.015625)"/>
       </defs>
       <use xlink:href="#TimesNewRomanPSMT-30"/>
       <use x="50" xlink:href="#TimesNewRomanPSMT-2e"/>
       <use x="75" xlink:href="#TimesNewRomanPSMT-30"/>
       <use x="125" xlink:href="#TimesNewRomanPSMT-30"/>
       <use x="175" xlink:href="#TimesNewRomanPSMT-34"/>
      </g>
     </g>
    </g>
    <g id="xtick_6">
     <g id="line2d_11">
      <path clip-path="url(#p456d41769f)" d="M 398.136875 339.84 
L 398.136875 7.2 
" style="fill:none;stroke:#000000;stroke-dasharray:0.5,0.825;stroke-dashoffset:0;stroke-width:0.5;"/>
     </g>
     <g id="line2d_12">
      <g>
       <use style="stroke:#000000;stroke-width:0.8;" x="398.136875" xlink:href="#m79afb7fc38" y="339.84"/>
      </g>
     </g>
     <g id="text_6">
      <!-- 0.005 -->
      <g transform="translate(382.386875 356.56125)scale(0.14 -0.14)">
       <defs>
        <path d="M 2778 4238 
L 2534 3706 
L 1259 3706 
L 981 3138 
Q 1809 3016 2294 2522 
Q 2709 2097 2709 1522 
Q 2709 1188 2573 903 
Q 2438 619 2231 419 
Q 2025 219 1772 97 
Q 1413 -75 1034 -75 
Q 653 -75 479 54 
Q 306 184 306 341 
Q 306 428 378 495 
Q 450 563 559 563 
Q 641 563 702 538 
Q 763 513 909 409 
Q 1144 247 1384 247 
Q 1750 247 2026 523 
Q 2303 800 2303 1197 
Q 2303 1581 2056 1914 
Q 1809 2247 1375 2428 
Q 1034 2569 447 2591 
L 1259 4238 
L 2778 4238 
z
" id="TimesNewRomanPSMT-35" transform="scale(0.015625)"/>
       </defs>
       <use xlink:href="#TimesNewRomanPSMT-30"/>
       <use x="50" xlink:href="#TimesNewRomanPSMT-2e"/>
       <use x="75" xlink:href="#TimesNewRomanPSMT-30"/>
       <use x="125" xlink:href="#TimesNewRomanPSMT-30"/>
       <use x="175" xlink:href="#TimesNewRomanPSMT-35"/>
      </g>
     </g>
    </g>
    <g id="text_7">
     <!-- Time (sec) -->
     <g transform="translate(200.858906 373.277188)scale(0.14 -0.14)">
      <defs>
       <path d="M 3703 4238 
L 3750 3244 
L 3631 3244 
Q 3597 3506 3538 3619 
Q 3441 3800 3280 3886 
Q 3119 3972 2856 3972 
L 2259 3972 
L 2259 734 
Q 2259 344 2344 247 
Q 2463 116 2709 116 
L 2856 116 
L 2856 0 
L 1059 0 
L 1059 116 
L 1209 116 
Q 1478 116 1591 278 
Q 1659 378 1659 734 
L 1659 3972 
L 1150 3972 
Q 853 3972 728 3928 
Q 566 3869 450 3700 
Q 334 3531 313 3244 
L 194 3244 
L 244 4238 
L 3703 4238 
z
" id="TimesNewRomanPSMT-54" transform="scale(0.015625)"/>
       <path d="M 928 4444 
Q 1059 4444 1151 4351 
Q 1244 4259 1244 4128 
Q 1244 3997 1151 3903 
Q 1059 3809 928 3809 
Q 797 3809 703 3903 
Q 609 3997 609 4128 
Q 609 4259 701 4351 
Q 794 4444 928 4444 
z
M 1188 2947 
L 1188 647 
Q 1188 378 1227 289 
Q 1266 200 1342 156 
Q 1419 113 1622 113 
L 1622 0 
L 231 0 
L 231 113 
Q 441 113 512 153 
Q 584 194 626 287 
Q 669 381 669 647 
L 669 1750 
Q 669 2216 641 2353 
Q 619 2453 572 2492 
Q 525 2531 444 2531 
Q 356 2531 231 2484 
L 188 2597 
L 1050 2947 
L 1188 2947 
z
" id="TimesNewRomanPSMT-69" transform="scale(0.015625)"/>
       <path d="M 1050 2338 
Q 1363 2650 1419 2697 
Q 1559 2816 1721 2881 
Q 1884 2947 2044 2947 
Q 2313 2947 2506 2790 
Q 2700 2634 2766 2338 
Q 3088 2713 3309 2830 
Q 3531 2947 3766 2947 
Q 3994 2947 4170 2830 
Q 4347 2713 4450 2447 
Q 4519 2266 4519 1878 
L 4519 647 
Q 4519 378 4559 278 
Q 4591 209 4675 161 
Q 4759 113 4950 113 
L 4950 0 
L 3538 0 
L 3538 113 
L 3597 113 
Q 3781 113 3884 184 
Q 3956 234 3988 344 
Q 4000 397 4000 647 
L 4000 1878 
Q 4000 2228 3916 2372 
Q 3794 2572 3525 2572 
Q 3359 2572 3192 2489 
Q 3025 2406 2788 2181 
L 2781 2147 
L 2788 2013 
L 2788 647 
Q 2788 353 2820 281 
Q 2853 209 2943 161 
Q 3034 113 3253 113 
L 3253 0 
L 1806 0 
L 1806 113 
Q 2044 113 2133 169 
Q 2222 225 2256 338 
Q 2272 391 2272 647 
L 2272 1878 
Q 2272 2228 2169 2381 
Q 2031 2581 1784 2581 
Q 1616 2581 1450 2491 
Q 1191 2353 1050 2181 
L 1050 647 
Q 1050 366 1089 281 
Q 1128 197 1204 155 
Q 1281 113 1516 113 
L 1516 0 
L 100 0 
L 100 113 
Q 297 113 375 155 
Q 453 197 493 289 
Q 534 381 534 647 
L 534 1741 
Q 534 2213 506 2350 
Q 484 2453 437 2492 
Q 391 2531 309 2531 
Q 222 2531 100 2484 
L 53 2597 
L 916 2947 
L 1050 2947 
L 1050 2338 
z
" id="TimesNewRomanPSMT-6d" transform="scale(0.015625)"/>
       <path d="M 681 1784 
Q 678 1147 991 784 
Q 1303 422 1725 422 
Q 2006 422 2214 576 
Q 2422 731 2563 1106 
L 2659 1044 
Q 2594 616 2278 264 
Q 1963 -88 1488 -88 
Q 972 -88 605 314 
Q 238 716 238 1394 
Q 238 2128 614 2539 
Q 991 2950 1559 2950 
Q 2041 2950 2350 2633 
Q 2659 2316 2659 1784 
L 681 1784 
z
M 681 1966 
L 2006 1966 
Q 1991 2241 1941 2353 
Q 1863 2528 1708 2628 
Q 1553 2728 1384 2728 
Q 1125 2728 920 2526 
Q 716 2325 681 1966 
z
" id="TimesNewRomanPSMT-65" transform="scale(0.015625)"/>
       <path id="TimesNewRomanPSMT-20" transform="scale(0.015625)"/>
       <path d="M 1988 -1253 
L 1988 -1369 
Q 1516 -1131 1200 -813 
Q 750 -359 506 256 
Q 263 872 263 1534 
Q 263 2503 741 3301 
Q 1219 4100 1988 4444 
L 1988 4313 
Q 1603 4100 1356 3731 
Q 1109 3363 987 2797 
Q 866 2231 866 1616 
Q 866 947 969 400 
Q 1050 -31 1165 -292 
Q 1281 -553 1476 -793 
Q 1672 -1034 1988 -1253 
z
" id="TimesNewRomanPSMT-28" transform="scale(0.015625)"/>
       <path d="M 2050 2947 
L 2050 1972 
L 1947 1972 
Q 1828 2431 1642 2597 
Q 1456 2763 1169 2763 
Q 950 2763 815 2647 
Q 681 2531 681 2391 
Q 681 2216 781 2091 
Q 878 1963 1175 1819 
L 1631 1597 
Q 2266 1288 2266 781 
Q 2266 391 1970 151 
Q 1675 -88 1309 -88 
Q 1047 -88 709 6 
Q 606 38 541 38 
Q 469 38 428 -44 
L 325 -44 
L 325 978 
L 428 978 
Q 516 541 762 319 
Q 1009 97 1316 97 
Q 1531 97 1667 223 
Q 1803 350 1803 528 
Q 1803 744 1651 891 
Q 1500 1038 1047 1263 
Q 594 1488 453 1669 
Q 313 1847 313 2119 
Q 313 2472 555 2709 
Q 797 2947 1181 2947 
Q 1350 2947 1591 2875 
Q 1750 2828 1803 2828 
Q 1853 2828 1881 2850 
Q 1909 2872 1947 2947 
L 2050 2947 
z
" id="TimesNewRomanPSMT-73" transform="scale(0.015625)"/>
       <path d="M 2631 1088 
Q 2516 522 2178 217 
Q 1841 -88 1431 -88 
Q 944 -88 581 321 
Q 219 731 219 1428 
Q 219 2103 620 2525 
Q 1022 2947 1584 2947 
Q 2006 2947 2278 2723 
Q 2550 2500 2550 2259 
Q 2550 2141 2473 2067 
Q 2397 1994 2259 1994 
Q 2075 1994 1981 2113 
Q 1928 2178 1911 2362 
Q 1894 2547 1784 2644 
Q 1675 2738 1481 2738 
Q 1169 2738 978 2506 
Q 725 2200 725 1697 
Q 725 1184 976 792 
Q 1228 400 1656 400 
Q 1963 400 2206 609 
Q 2378 753 2541 1131 
L 2631 1088 
z
" id="TimesNewRomanPSMT-63" transform="scale(0.015625)"/>
       <path d="M 144 4313 
L 144 4444 
Q 619 4209 934 3891 
Q 1381 3434 1625 2820 
Q 1869 2206 1869 1541 
Q 1869 572 1392 -226 
Q 916 -1025 144 -1369 
L 144 -1253 
Q 528 -1038 776 -670 
Q 1025 -303 1145 264 
Q 1266 831 1266 1447 
Q 1266 2113 1163 2663 
Q 1084 3094 967 3353 
Q 850 3613 656 3853 
Q 463 4094 144 4313 
z
" id="TimesNewRomanPSMT-29" transform="scale(0.015625)"/>
      </defs>
      <use xlink:href="#TimesNewRomanPSMT-54"/>
      <use x="57.583984" xlink:href="#TimesNewRomanPSMT-69"/>
      <use x="85.367188" xlink:href="#TimesNewRomanPSMT-6d"/>
      <use x="163.150391" xlink:href="#TimesNewRomanPSMT-65"/>
      <use x="207.535156" xlink:href="#TimesNewRomanPSMT-20"/>
      <use x="232.535156" xlink:href="#TimesNewRomanPSMT-28"/>
      <use x="265.835938" xlink:href="#TimesNewRomanPSMT-73"/>
      <use x="304.751953" xlink:href="#TimesNewRomanPSMT-65"/>
      <use x="349.136719" xlink:href="#TimesNewRomanPSMT-63"/>
      <use x="393.521484" xlink:href="#TimesNewRomanPSMT-29"/>
     </g>
    </g>
   </g>
   <g id="matplotlib.axis_2">
    <g id="ytick_1">
     <g id="line2d_13">
      <path clip-path="url(#p456d41769f)" d="M 63.336875 335.045357 
L 398.136875 335.045357 
" style="fill:none;stroke:#000000;stroke-dasharray:0.5,0.825;stroke-dashoffset:0;stroke-width:0.5;"/>
     </g>
     <g id="line2d_14">
      <defs>
       <path d="M 0 0 
L -3.5 0 
" id="mb049f80d2f" style="stroke:#000000;stroke-width:0.8;"/>
      </defs>
      <g>
       <use style="stroke:#000000;stroke-width:0.8;" x="63.336875" xlink:href="#mb049f80d2f" y="335.045357"/>
      </g>
     </g>
     <g id="text_8">
      <!-- −0.06 -->
      <g transform="translate(23.942188 339.905982)scale(0.14 -0.14)">
       <defs>
        <path d="M 3484 2000 
L 116 2000 
L 116 2256 
L 3484 2256 
L 3484 2000 
z
" id="TimesNewRomanPSMT-2212" transform="scale(0.015625)"/>
        <path d="M 2869 4325 
L 2869 4209 
Q 2456 4169 2195 4045 
Q 1934 3922 1679 3669 
Q 1425 3416 1258 3105 
Q 1091 2794 978 2366 
Q 1428 2675 1881 2675 
Q 2316 2675 2634 2325 
Q 2953 1975 2953 1425 
Q 2953 894 2631 456 
Q 2244 -75 1606 -75 
Q 1172 -75 869 213 
Q 275 772 275 1663 
Q 275 2231 503 2743 
Q 731 3256 1154 3653 
Q 1578 4050 1965 4187 
Q 2353 4325 2688 4325 
L 2869 4325 
z
M 925 2138 
Q 869 1716 869 1456 
Q 869 1156 980 804 
Q 1091 453 1309 247 
Q 1469 100 1697 100 
Q 1969 100 2183 356 
Q 2397 613 2397 1088 
Q 2397 1622 2184 2012 
Q 1972 2403 1581 2403 
Q 1463 2403 1327 2353 
Q 1191 2303 925 2138 
z
" id="TimesNewRomanPSMT-36" transform="scale(0.015625)"/>
       </defs>
       <use xlink:href="#TimesNewRomanPSMT-2212"/>
       <use x="56.396484" xlink:href="#TimesNewRomanPSMT-30"/>
       <use x="106.396484" xlink:href="#TimesNewRomanPSMT-2e"/>
       <use x="131.396484" xlink:href="#TimesNewRomanPSMT-30"/>
       <use x="181.396484" xlink:href="#TimesNewRomanPSMT-36"/>
      </g>
     </g>
    </g>
    <g id="ytick_2">
     <g id="line2d_15">
      <path clip-path="url(#p456d41769f)" d="M 63.336875 274.381135 
L 398.136875 274.381135 
" style="fill:none;stroke:#000000;stroke-dasharray:0.5,0.825;stroke-dashoffset:0;stroke-width:0.5;"/>
     </g>
     <g id="line2d_16">
      <g>
       <use style="stroke:#000000;stroke-width:0.8;" x="63.336875" xlink:href="#mb049f80d2f" y="274.381135"/>
      </g>
     </g>
     <g id="text_9">
      <!-- −0.04 -->
      <g transform="translate(23.942188 279.24176)scale(0.14 -0.14)">
       <use xlink:href="#TimesNewRomanPSMT-2212"/>
       <use x="56.396484" xlink:href="#TimesNewRomanPSMT-30"/>
       <use x="106.396484" xlink:href="#TimesNewRomanPSMT-2e"/>
       <use x="131.396484" xlink:href="#TimesNewRomanPSMT-30"/>
       <use x="181.396484" xlink:href="#TimesNewRomanPSMT-34"/>
      </g>
     </g>
    </g>
    <g id="ytick_3">
     <g id="line2d_17">
      <path clip-path="url(#p456d41769f)" d="M 63.336875 213.716913 
L 398.136875 213.716913 
" style="fill:none;stroke:#000000;stroke-dasharray:0.5,0.825;stroke-dashoffset:0;stroke-width:0.5;"/>
     </g>
     <g id="line2d_18">
      <g>
       <use style="stroke:#000000;stroke-width:0.8;" x="63.336875" xlink:href="#mb049f80d2f" y="213.716913"/>
      </g>
     </g>
     <g id="text_10">
      <!-- −0.02 -->
      <g transform="translate(23.942188 218.577538)scale(0.14 -0.14)">
       <use xlink:href="#TimesNewRomanPSMT-2212"/>
       <use x="56.396484" xlink:href="#TimesNewRomanPSMT-30"/>
       <use x="106.396484" xlink:href="#TimesNewRomanPSMT-2e"/>
       <use x="131.396484" xlink:href="#TimesNewRomanPSMT-30"/>
       <use x="181.396484" xlink:href="#TimesNewRomanPSMT-32"/>
      </g>
     </g>
    </g>
    <g id="ytick_4">
     <g id="line2d_19">
      <path clip-path="url(#p456d41769f)" d="M 63.336875 153.052691 
L 398.136875 153.052691 
" style="fill:none;stroke:#000000;stroke-dasharray:0.5,0.825;stroke-dashoffset:0;stroke-width:0.5;"/>
     </g>
     <g id="line2d_20">
      <g>
       <use style="stroke:#000000;stroke-width:0.8;" x="63.336875" xlink:href="#mb049f80d2f" y="153.052691"/>
      </g>
     </g>
     <g id="text_11">
      <!-- 0.00 -->
      <g transform="translate(31.836875 157.913316)scale(0.14 -0.14)">
       <use xlink:href="#TimesNewRomanPSMT-30"/>
       <use x="50" xlink:href="#TimesNewRomanPSMT-2e"/>
       <use x="75" xlink:href="#TimesNewRomanPSMT-30"/>
       <use x="125" xlink:href="#TimesNewRomanPSMT-30"/>
      </g>
     </g>
    </g>
    <g id="ytick_5">
     <g id="line2d_21">
      <path clip-path="url(#p456d41769f)" d="M 63.336875 92.388469 
L 398.136875 92.388469 
" style="fill:none;stroke:#000000;stroke-dasharray:0.5,0.825;stroke-dashoffset:0;stroke-width:0.5;"/>
     </g>
     <g id="line2d_22">
      <g>
       <use style="stroke:#000000;stroke-width:0.8;" x="63.336875" xlink:href="#mb049f80d2f" y="92.388469"/>
      </g>
     </g>
     <g id="text_12">
      <!-- 0.02 -->
      <g transform="translate(31.836875 97.249094)scale(0.14 -0.14)">
       <use xlink:href="#TimesNewRomanPSMT-30"/>
       <use x="50" xlink:href="#TimesNewRomanPSMT-2e"/>
       <use x="75" xlink:href="#TimesNewRomanPSMT-30"/>
       <use x="125" xlink:href="#TimesNewRomanPSMT-32"/>
      </g>
     </g>
    </g>
    <g id="ytick_6">
     <g id="line2d_23">
      <path clip-path="url(#p456d41769f)" d="M 63.336875 31.724247 
L 398.136875 31.724247 
" style="fill:none;stroke:#000000;stroke-dasharray:0.5,0.825;stroke-dashoffset:0;stroke-width:0.5;"/>
     </g>
     <g id="line2d_24">
      <g>
       <use style="stroke:#000000;stroke-width:0.8;" x="63.336875" xlink:href="#mb049f80d2f" y="31.724247"/>
      </g>
     </g>
     <g id="text_13">
      <!-- 0.04 -->
      <g transform="translate(31.836875 36.584872)scale(0.14 -0.14)">
       <use xlink:href="#TimesNewRomanPSMT-30"/>
       <use x="50" xlink:href="#TimesNewRomanPSMT-2e"/>
       <use x="75" xlink:href="#TimesNewRomanPSMT-30"/>
       <use x="125" xlink:href="#TimesNewRomanPSMT-34"/>
      </g>
     </g>
    </g>
    <g id="text_14">
     <!-- Volatage (V) -->
     <g transform="translate(16.92125 209.352344)rotate(-90)scale(0.14 -0.14)">
      <defs>
       <path d="M 4544 4238 
L 4544 4122 
Q 4319 4081 4203 3978 
Q 4038 3825 3909 3509 
L 2431 -97 
L 2316 -97 
L 728 3556 
Q 606 3838 556 3900 
Q 478 3997 364 4051 
Q 250 4106 56 4122 
L 56 4238 
L 1788 4238 
L 1788 4122 
Q 1494 4094 1406 4022 
Q 1319 3950 1319 3838 
Q 1319 3681 1463 3350 
L 2541 866 
L 3541 3319 
Q 3688 3681 3688 3822 
Q 3688 3913 3597 3995 
Q 3506 4078 3291 4113 
Q 3275 4116 3238 4122 
L 3238 4238 
L 4544 4238 
z
" id="TimesNewRomanPSMT-56" transform="scale(0.015625)"/>
       <path d="M 1600 2947 
Q 2250 2947 2644 2453 
Q 2978 2031 2978 1484 
Q 2978 1100 2793 706 
Q 2609 313 2286 112 
Q 1963 -88 1566 -88 
Q 919 -88 538 428 
Q 216 863 216 1403 
Q 216 1797 411 2186 
Q 606 2575 925 2761 
Q 1244 2947 1600 2947 
z
M 1503 2744 
Q 1338 2744 1170 2645 
Q 1003 2547 900 2300 
Q 797 2053 797 1666 
Q 797 1041 1045 587 
Q 1294 134 1700 134 
Q 2003 134 2200 384 
Q 2397 634 2397 1244 
Q 2397 2006 2069 2444 
Q 1847 2744 1503 2744 
z
" id="TimesNewRomanPSMT-6f" transform="scale(0.015625)"/>
       <path d="M 1184 4444 
L 1184 647 
Q 1184 378 1223 290 
Q 1263 203 1344 158 
Q 1425 113 1647 113 
L 1647 0 
L 244 0 
L 244 113 
Q 441 113 512 153 
Q 584 194 625 287 
Q 666 381 666 647 
L 666 3247 
Q 666 3731 644 3842 
Q 622 3953 573 3993 
Q 525 4034 450 4034 
Q 369 4034 244 3984 
L 191 4094 
L 1044 4444 
L 1184 4444 
z
" id="TimesNewRomanPSMT-6c" transform="scale(0.015625)"/>
       <path d="M 1822 413 
Q 1381 72 1269 19 
Q 1100 -59 909 -59 
Q 613 -59 420 144 
Q 228 347 228 678 
Q 228 888 322 1041 
Q 450 1253 767 1440 
Q 1084 1628 1822 1897 
L 1822 2009 
Q 1822 2438 1686 2597 
Q 1550 2756 1291 2756 
Q 1094 2756 978 2650 
Q 859 2544 859 2406 
L 866 2225 
Q 866 2081 792 2003 
Q 719 1925 600 1925 
Q 484 1925 411 2006 
Q 338 2088 338 2228 
Q 338 2497 613 2722 
Q 888 2947 1384 2947 
Q 1766 2947 2009 2819 
Q 2194 2722 2281 2516 
Q 2338 2381 2338 1966 
L 2338 994 
Q 2338 584 2353 492 
Q 2369 400 2405 369 
Q 2441 338 2488 338 
Q 2538 338 2575 359 
Q 2641 400 2828 588 
L 2828 413 
Q 2478 -56 2159 -56 
Q 2006 -56 1915 50 
Q 1825 156 1822 413 
z
M 1822 616 
L 1822 1706 
Q 1350 1519 1213 1441 
Q 966 1303 859 1153 
Q 753 1003 753 825 
Q 753 600 887 451 
Q 1022 303 1197 303 
Q 1434 303 1822 616 
z
" id="TimesNewRomanPSMT-61" transform="scale(0.015625)"/>
       <path d="M 1031 3803 
L 1031 2863 
L 1700 2863 
L 1700 2644 
L 1031 2644 
L 1031 788 
Q 1031 509 1111 412 
Q 1191 316 1316 316 
Q 1419 316 1516 380 
Q 1613 444 1666 569 
L 1788 569 
Q 1678 263 1478 108 
Q 1278 -47 1066 -47 
Q 922 -47 784 33 
Q 647 113 581 261 
Q 516 409 516 719 
L 516 2644 
L 63 2644 
L 63 2747 
Q 234 2816 414 2980 
Q 594 3144 734 3369 
Q 806 3488 934 3803 
L 1031 3803 
z
" id="TimesNewRomanPSMT-74" transform="scale(0.015625)"/>
       <path d="M 966 1044 
Q 703 1172 562 1401 
Q 422 1631 422 1909 
Q 422 2334 742 2640 
Q 1063 2947 1563 2947 
Q 1972 2947 2272 2747 
L 2878 2747 
Q 3013 2747 3034 2739 
Q 3056 2731 3066 2713 
Q 3084 2684 3084 2613 
Q 3084 2531 3069 2500 
Q 3059 2484 3036 2475 
Q 3013 2466 2878 2466 
L 2506 2466 
Q 2681 2241 2681 1891 
Q 2681 1491 2375 1206 
Q 2069 922 1553 922 
Q 1341 922 1119 984 
Q 981 866 932 777 
Q 884 688 884 625 
Q 884 572 936 522 
Q 988 472 1138 450 
Q 1225 438 1575 428 
Q 2219 413 2409 384 
Q 2700 344 2873 169 
Q 3047 -6 3047 -263 
Q 3047 -616 2716 -925 
Q 2228 -1381 1444 -1381 
Q 841 -1381 425 -1109 
Q 191 -953 191 -784 
Q 191 -709 225 -634 
Q 278 -519 444 -313 
Q 466 -284 763 25 
Q 600 122 533 198 
Q 466 275 466 372 
Q 466 481 555 628 
Q 644 775 966 1044 
z
M 1509 2797 
Q 1278 2797 1122 2612 
Q 966 2428 966 2047 
Q 966 1553 1178 1281 
Q 1341 1075 1591 1075 
Q 1828 1075 1981 1253 
Q 2134 1431 2134 1813 
Q 2134 2309 1919 2591 
Q 1759 2797 1509 2797 
z
M 934 0 
Q 788 -159 713 -296 
Q 638 -434 638 -550 
Q 638 -700 819 -813 
Q 1131 -1006 1722 -1006 
Q 2284 -1006 2551 -807 
Q 2819 -609 2819 -384 
Q 2819 -222 2659 -153 
Q 2497 -84 2016 -72 
Q 1313 -53 934 0 
z
" id="TimesNewRomanPSMT-67" transform="scale(0.015625)"/>
      </defs>
      <use xlink:href="#TimesNewRomanPSMT-56"/>
      <use x="59.341797" xlink:href="#TimesNewRomanPSMT-6f"/>
      <use x="109.341797" xlink:href="#TimesNewRomanPSMT-6c"/>
      <use x="137.125" xlink:href="#TimesNewRomanPSMT-61"/>
      <use x="181.509766" xlink:href="#TimesNewRomanPSMT-74"/>
      <use x="209.292969" xlink:href="#TimesNewRomanPSMT-61"/>
      <use x="253.677734" xlink:href="#TimesNewRomanPSMT-67"/>
      <use x="303.677734" xlink:href="#TimesNewRomanPSMT-65"/>
      <use x="348.0625" xlink:href="#TimesNewRomanPSMT-20"/>
      <use x="373.0625" xlink:href="#TimesNewRomanPSMT-28"/>
      <use x="406.363281" xlink:href="#TimesNewRomanPSMT-56"/>
      <use x="478.580078" xlink:href="#TimesNewRomanPSMT-29"/>
     </g>
    </g>
   </g>
   <g id="LineCollection_1">
    <path clip-path="url(#p456d41769f)" d="M 78.555057 153.052691 
L 382.918693 153.052691 
" style="fill:none;stroke:#1f77b4;stroke-width:1.5;"/>
   </g>
   <g id="line2d_25">
    <path clip-path="url(#p456d41769f)" d="M 78.555057 153.116085 
L 81.081275 153.116085 
L 81.111711 153.002339 
L 81.20302 153.040255 
L 81.324766 153.040255 
L 93.92542 153.116085 
L 94.047166 153.116085 
L 105.06513 153.191915 
L 105.095566 153.22983 
L 105.156439 153.154 
L 106.40433 153.22983 
L 106.434766 153.30566 
L 106.465202 153.191915 
L 106.495639 153.267745 
L 106.526075 153.191915 
L 106.617384 153.22983 
L 106.73913 153.22983 
L 107.469602 153.30566 
L 107.591348 153.343576 
L 107.74353 153.30566 
L 109.052293 153.343576 
L 109.08273 153.419406 
L 109.174039 153.381491 
L 109.32622 153.343576 
L 109.356657 153.419406 
L 109.447966 153.381491 
L 110.543675 153.419406 
L 110.574111 153.495236 
L 110.66542 153.457321 
L 111.456766 153.533151 
L 111.578511 153.571067 
L 111.730693 153.533151 
L 111.852439 153.608982 
L 111.943748 153.533151 
L 111.974184 153.571067 
L 112.09593 153.533151 
L 112.278548 153.608982 
L 113.130766 153.646897 
L 113.252511 153.722727 
L 113.374257 153.684812 
L 113.556875 153.760642 
L 113.67862 153.722727 
L 113.861239 153.798557 
L 114.43953 153.836472 
L 114.561275 153.912303 
L 114.865639 153.988133 
L 115.01782 154.026048 
L 115.261311 154.101878 
L 115.413493 154.139794 
L 115.748293 154.215624 
L 115.870039 154.253539 
L 115.991784 154.253539 
L 116.174402 154.329369 
L 116.44833 154.367284 
L 116.478766 154.443115 
L 116.570075 154.4052 
L 116.752693 154.443115 
L 116.78313 154.518945 
L 116.874439 154.48103 
L 117.148366 154.518945 
L 117.270111 154.594775 
L 117.604911 154.63269 
L 117.665784 154.746436 
L 117.726657 154.708521 
L 118.183202 154.784351 
L 118.335384 154.860181 
L 118.426693 154.860181 
L 118.548439 154.860181 
L 118.822366 154.936011 
L 118.974548 154.973927 
L 119.400657 155.049757 
L 119.583275 155.125587 
L 119.79633 155.201417 
L 119.948511 155.277248 
L 119.978948 155.239333 
L 120.03982 155.315163 
L 120.252875 155.353078 
L 120.283311 155.428908 
L 120.37462 155.390993 
L 120.496366 155.466823 
L 120.70942 155.580569 
L 120.831166 155.656399 
L 121.074657 155.80806 
L 121.226839 155.845975 
L 121.37902 155.997635 
L 121.439893 156.035551 
L 121.622511 156.225126 
L 122.870402 157.893392 
L 123.113893 158.424204 
L 123.418257 158.955016 
L 123.692184 159.561658 
L 125.031384 163.163597 
L 127.435857 172.566551 
L 128.74462 178.632973 
L 128.775057 178.670888 
L 129.07942 180.187493 
L 129.231602 180.832053 
L 130.144693 184.851055 
L 132.062184 191.599951 
L 132.244802 191.979102 
L 132.610039 192.623659 
L 132.670911 192.661575 
L 132.883966 192.964896 
L 132.975275 193.040726 
L 133.218766 193.230302 
L 133.340511 193.230302 
L 133.462257 193.230302 
L 133.644875 193.116556 
L 133.76662 193.116556 
L 133.888366 193.040726 
L 134.010111 192.964896 
L 134.223166 192.85115 
L 134.344911 192.77532 
L 135.258002 191.486205 
L 136.140657 189.021721 
L 137.632039 181.097458 
L 139.823457 163.883984 
L 140.371311 158.196713 
L 142.167057 136.888406 
L 147.189057 69.589034 
L 149.897893 40.432289 
L 150.628366 35.010431 
L 151.389275 30.953502 
L 151.541457 30.346862 
L 151.93713 28.906084 
L 152.911093 26.707015 
L 152.971966 26.707015 
L 153.124148 26.517442 
L 153.672002 26.593261 
L 154.767711 29.588557 
L 155.650366 34.517531 
L 156.806948 43.958394 
L 158.389639 62.802221 
L 160.824548 104.01598 
L 163.198584 153.495236 
L 167.67273 251.392122 
L 169.042366 276.529862 
L 169.955457 290.520554 
L 171.872948 313.080052 
L 172.35993 316.833651 
L 172.846911 320.132274 
L 173.27302 322.103861 
L 173.729566 323.430885 
L 173.881748 323.772122 
L 174.27742 324.492515 
L 174.36873 324.568349 
L 174.61222 324.72 
L 174.764402 324.606258 
L 174.94702 324.492515 
L 174.977457 324.530427 
L 175.007893 324.416685 
L 175.129639 324.340852 
L 175.37313 323.999615 
L 175.434002 323.923785 
L 175.70793 323.430885 
L 176.073166 322.293434 
L 176.499275 320.321847 
L 177.564548 314.482919 
L 179.482039 296.852382 
L 180.912548 279.600988 
L 181.856075 266.103198 
L 182.40393 257.989356 
L 184.138802 228.112229 
L 185.843239 198.31093 
L 188.521639 153.457321 
L 189.465166 139.011653 
L 191.534839 109.703251 
L 193.421893 87.522892 
L 194.395857 78.916158 
L 194.70022 76.413762 
L 195.156766 72.470582 
L 196.404657 62.536818 
L 196.70902 60.489398 
L 197.561239 54.95379 
L 198.017784 52.792631 
L 198.930875 48.963199 
L 199.204802 48.053232 
L 199.265675 47.86366 
L 200.330948 44.29963 
L 200.48313 43.958394 
L 200.72662 43.465506 
L 201.335348 42.176395 
L 201.365784 42.176395 
L 201.609275 41.683495 
L 201.670148 41.683495 
L 201.791893 41.493919 
L 201.82233 41.531831 
L 201.974511 41.455998 
L 202.06582 41.493919 
L 202.096257 41.455998 
L 202.552802 41.380168 
L 202.765857 41.266425 
L 202.857166 41.190595 
L 202.887602 41.152683 
L 202.948475 41.228516 
L 203.07022 41.228516 
L 203.191966 41.266425 
L 203.344148 41.380168 
L 203.73982 41.721404 
L 203.83113 41.683495 
L 203.861566 41.721404 
L 204.07462 41.835155 
L 204.257239 41.873068 
L 204.40942 42.06264 
L 204.652911 42.479707 
L 204.926839 43.12427 
L 204.957275 43.12427 
L 205.200766 43.692991 
L 205.261639 43.768821 
L 207.118257 48.659874 
L 208.153093 52.110158 
L 208.42702 53.058037 
L 208.883566 55.219196 
L 209.035748 55.86376 
L 209.948839 59.69318 
L 210.405384 61.854346 
L 211.622839 66.821226 
L 212.231566 69.361543 
L 212.383748 69.968185 
L 214.11862 79.067822 
L 214.483857 81.380645 
L 214.940402 84.148444 
L 215.640439 89.342821 
L 216.340475 94.34762 
L 217.192693 100.869021 
L 217.46662 102.764784 
L 217.953602 106.480467 
L 218.410148 110.385723 
L 218.988439 115.049285 
L 220.997239 133.513958 
L 223.371275 158.272544 
L 224.466984 170.557048 
L 226.110548 190.197091 
L 227.93673 213.704477 
L 230.85862 248.77598 
L 233.019602 269.212234 
L 234.480548 279.297664 
L 234.845784 280.965933 
L 235.058839 281.724239 
L 235.54582 283.619993 
L 236.154548 284.871198 
L 236.398039 285.02285 
L 236.64153 285.09868 
L 236.793711 285.136601 
L 236.945893 285.060771 
L 237.372002 284.416207 
L 238.163348 281.837981 
L 238.22422 281.686317 
L 239.837348 273.15542 
L 240.720002 265.72405 
L 241.480911 258.178941 
L 244.220184 226.254391 
L 246.746402 190.159175 
L 247.811675 173.51443 
L 250.977057 127.788771 
L 252.194511 113.911831 
L 254.446802 95.143835 
L 254.903348 92.338117 
L 255.603384 88.622434 
L 256.120802 86.271695 
L 256.577348 84.527596 
L 256.912148 83.655551 
L 257.094766 83.314314 
L 257.277384 82.85933 
L 257.64262 82.25269 
L 257.825239 82.0252 
L 257.855675 82.063118 
L 257.886111 82.0252 
L 258.038293 81.911454 
L 258.220911 81.835621 
L 258.373093 81.683963 
L 258.464402 81.608133 
L 259.042693 81.039406 
L 259.31662 80.963576 
L 259.377493 80.887745 
L 259.438366 80.925661 
L 259.65142 80.811912 
L 259.74273 80.736088 
L 259.955784 80.622339 
L 260.07753 80.584424 
L 260.229711 80.470676 
L 260.838439 80.546509 
L 260.929748 80.584424 
L 260.960184 80.546509 
L 261.203675 80.622339 
L 261.41673 80.736088 
L 261.477602 80.774003 
L 261.629784 80.963576 
L 261.66022 80.925661 
L 261.690657 80.963576 
L 261.934148 81.304812 
L 261.99502 81.304812 
L 262.177639 81.608133 
L 262.66462 82.366436 
L 263.212475 83.465972 
L 263.395093 83.845123 
L 265.221275 88.622434 
L 265.464766 89.342821 
L 265.586511 89.646142 
L 265.830002 90.518188 
L 267.230075 96.167543 
L 269.604111 108.527882 
L 274.991348 141.438222 
L 275.356584 143.220234 
L 275.81313 145.381397 
L 276.695784 149.09708 
L 277.274075 151.447819 
L 277.48713 152.244037 
L 278.004548 154.291454 
L 278.248039 155.163502 
L 279.100257 157.931308 
L 280.682948 161.609076 
L 280.896002 161.988228 
L 281.139493 162.481124 
L 281.626475 163.466917 
L 281.717784 163.542748 
L 281.900402 163.846069 
L 281.991711 163.921899 
L 282.265639 164.338966 
L 282.935239 165.021438 
L 283.056984 165.097269 
L 283.209166 165.135184 
L 283.543966 165.211014 
L 283.696148 165.24893 
L 283.75702 165.211014 
L 283.787457 165.24893 
L 283.939639 165.286845 
L 284.122257 165.24893 
L 284.274439 165.135184 
L 284.396184 165.059354 
L 284.639675 164.907693 
L 284.822293 164.831863 
L 285.065784 164.642287 
L 285.09622 164.680202 
L 285.157093 164.604372 
L 285.309275 164.414796 
L 285.887566 163.542748 
L 286.252802 162.898191 
L 286.465857 162.481124 
L 287.287639 160.699113 
L 287.43982 160.357877 
L 288.44422 158.120883 
L 288.565966 157.893392 
L 288.748584 157.476326 
L 289.174693 156.680108 
L 289.266002 156.604278 
L 289.509493 156.225126 
L 289.53993 156.263041 
L 289.570366 156.225126 
L 289.78342 155.921805 
L 289.87473 155.845975 
L 290.057348 155.542654 
L 290.11822 155.580569 
L 290.239966 155.466823 
L 290.392148 155.428908 
L 290.513893 155.353078 
L 290.696511 155.466823 
L 290.848693 155.390993 
L 291.000875 155.466823 
L 291.092184 155.428908 
L 291.12262 155.466823 
L 291.244366 155.542654 
L 291.45742 155.656399 
L 291.487857 155.656399 
L 291.700911 156.073466 
L 291.761784 156.149296 
L 292.370511 157.400496 
L 292.55313 157.741732 
L 293.070548 159.258337 
L 293.496657 160.585367 
L 295.261966 167.523838 
L 295.596766 169.192104 
L 299.462184 187.922182 
L 299.857857 189.817939 
L 300.466584 192.358253 
L 300.740511 193.268217 
L 301.075311 194.671077 
L 301.531857 196.453088 
L 302.079711 198.083439 
L 303.084111 201.419972 
L 303.905893 203.732795 
L 304.118948 204.301519 
L 304.545057 205.09774 
L 305.914693 206.690173 
L 306.066875 206.652258 
L 306.584293 206.576434 
L 306.797348 206.462685 
L 306.94953 206.386855 
L 307.314766 205.818128 
L 307.52782 205.363146 
L 307.588693 205.287313 
L 307.923493 204.680671 
L 307.984366 204.604846 
L 308.227857 204.149862 
L 309.049639 201.874953 
L 309.323566 201.04082 
L 310.358402 196.794325 
L 310.936693 193.874859 
L 311.423675 190.917478 
L 312.428075 183.979009 
L 315.31953 161.571161 
L 315.958693 156.263041 
L 316.506548 152.168206 
L 318.424039 138.670417 
L 318.819711 136.168017 
L 321.163311 122.253162 
L 324.998293 103.674744 
L 325.180911 102.992271 
L 325.637457 101.248175 
L 325.880948 100.414045 
L 326.185311 99.390333 
L 327.859311 95.485071 
L 327.889748 95.485071 
L 328.102802 95.105925 
L 328.559348 94.423453 
L 328.741966 94.158041 
L 329.015893 93.968468 
L 329.868111 94.044299 
L 330.233348 94.385535 
L 330.263784 94.34762 
L 330.29422 94.385535 
L 330.446402 94.613026 
L 330.537711 94.688856 
L 331.511675 96.053801 
L 331.785602 96.47087 
L 331.998657 96.887934 
L 332.546511 97.987473 
L 332.576948 97.987473 
L 332.820439 98.5562 
L 332.850875 98.5562 
L 333.06393 99.087015 
L 333.64222 100.793196 
L 336.533675 112.016074 
L 341.525239 137.419217 
L 342.10353 140.338683 
L 344.842802 153.457321 
L 345.634148 156.831768 
L 346.608111 161.154095 
L 347.003784 163.049851 
L 347.947311 167.220516 
L 349.80393 173.74192 
L 350.321348 175.29644 
L 350.869202 176.964707 
L 350.960511 177.192199 
L 351.295311 178.064246 
L 351.508366 178.481312 
L 351.751857 179.012123 
L 351.995348 179.467107 
L 352.269275 179.922088 
L 352.330148 179.99792 
L 353.791093 181.666186 
L 353.82153 181.62827 
L 353.882402 181.704099 
L 354.004148 181.855759 
L 354.034584 181.817846 
L 354.521566 182.272827 
L 354.552002 182.272827 
L 354.704184 182.462403 
L 354.73462 182.424487 
L 354.765057 182.500319 
L 355.191166 182.879468 
L 355.282475 182.9553 
L 356.773857 184.661482 
L 356.865166 184.73731 
L 357.108657 185.078547 
L 357.16953 185.116463 
L 357.382584 185.381867 
L 358.204366 186.253916 
L 358.234802 186.216001 
L 358.265239 186.291831 
L 358.75222 186.746813 
L 358.873966 186.784728 
L 359.056584 186.974304 
L 359.330511 187.163879 
L 359.482693 187.201795 
L 359.634875 187.353455 
L 359.665311 187.31554 
L 359.726184 187.39137 
L 360.060984 187.694691 
L 360.152293 187.694691 
L 360.304475 187.808437 
L 360.42622 187.808437 
L 361.126257 187.884267 
L 361.248002 187.884267 
L 361.400184 187.846352 
L 361.613239 187.770522 
L 361.887166 187.580946 
L 361.917602 187.618861 
L 361.948039 187.580946 
L 362.10022 187.39137 
L 362.19153 187.39137 
L 362.374148 187.201795 
L 362.495893 187.125964 
L 365.843893 183.10696 
L 365.87433 183.10696 
L 366.056948 182.803639 
L 366.148257 182.727808 
L 366.330875 182.500319 
L 366.422184 182.424487 
L 366.87873 182.007419 
L 366.970039 181.931591 
L 367.670075 181.211202 
L 367.79182 181.135373 
L 368.065748 180.945797 
L 368.157057 180.907882 
L 368.309239 180.794137 
L 368.400548 180.718305 
L 368.826657 180.339153 
L 368.948402 180.263325 
L 369.22233 180.035832 
L 369.344075 180.073749 
L 369.648439 179.846256 
L 369.739748 179.770428 
L 370.196293 179.35336 
L 370.318039 179.277531 
L 370.591966 179.087955 
L 370.744148 179.012123 
L 370.926766 178.784634 
L 370.987639 178.746719 
L 371.170257 178.519228 
L 371.292002 178.443398 
L 371.80942 177.950501 
L 371.90073 177.912586 
L 372.083348 177.685095 
L 372.14422 177.72301 
L 372.296402 177.495519 
L 372.418148 177.419689 
L 372.600766 177.230113 
L 373.026875 176.850962 
L 373.087748 176.813046 
L 373.23993 176.699302 
L 374.57913 174.91729 
L 374.761748 174.613969 
L 375.005239 174.158987 
L 375.979202 171.997824 
L 376.16182 171.618672 
L 377.744511 167.410092 
L 378.353239 165.55225 
L 378.992402 163.694409 
L 382.066475 151.789055 
L 382.918693 147.959626 
L 382.918693 147.959626 
" style="fill:none;stroke:#0000ff;stroke-linecap:square;stroke-width:1.5;"/>
   </g>
   <g id="line2d_26">
    <path clip-path="url(#p456d41769f)" d="M 78.555057 153.051402 
L 92.525348 153.127232 
L 92.67753 153.146189 
L 97.060366 153.051402 
L 97.27342 153.032444 
L 97.456039 153.032444 
L 99.61702 153.127232 
L 99.860511 153.165147 
L 100.28662 153.259935 
L 100.651857 153.37368 
L 100.895348 153.468468 
L 101.169275 153.639086 
L 101.321457 153.733874 
L 101.808439 154.150941 
L 102.934584 155.724419 
L 103.695493 157.373727 
L 104.547711 159.781339 
L 105.39993 162.757677 
L 105.97822 165.127373 
L 106.31302 166.530234 
L 110.391493 183.819537 
L 110.634984 184.502009 
L 111.121966 185.923827 
L 112.826402 188.900165 
L 112.917711 188.919123 
L 113.130766 189.013911 
L 113.709057 188.93808 
L 113.952548 188.78642 
L 114.10473 188.691632 
L 114.317784 188.483099 
L 114.713457 187.781669 
L 115.078693 186.871705 
L 116.35702 182.530421 
L 117.178802 178.492461 
L 119.157166 165.506525 
L 120.983348 151.041899 
L 125.427057 113.221548 
L 127.253239 102.529479 
L 128.227202 97.676338 
L 129.809893 92.178646 
L 129.901202 92.026983 
L 130.631675 90.889532 
L 130.84473 90.662038 
L 131.027348 90.472465 
L 131.331711 90.377677 
L 131.910002 89.903738 
L 132.731784 89.050647 
L 133.644875 88.955863 
L 133.797057 88.936902 
L 133.918802 88.955863 
L 134.405784 89.353968 
L 134.649275 89.581459 
L 135.562366 89.676244 
L 136.323275 90.472465 
L 136.414584 90.529335 
L 136.749384 90.624129 
L 137.11462 90.965365 
L 137.510293 91.609922 
L 137.936402 92.38718 
L 137.997275 92.444052 
L 138.727748 94.548339 
L 141.954002 111.174131 
L 143.688875 123.799871 
L 147.676039 156.975618 
L 149.989202 177.563538 
L 153.398075 204.293712 
L 154.585093 210.322219 
L 155.741675 214.265393 
L 156.776511 215.990529 
L 156.989566 216.085323 
L 157.172184 216.142193 
L 158.054839 216.085323 
L 159.028802 214.473926 
L 159.180984 214.265393 
L 159.576657 213.563963 
L 160.002766 212.540254 
L 161.007166 209.753495 
L 162.711602 202.985636 
L 163.959493 196.217787 
L 168.403202 169.203251 
L 169.316293 165.715058 
L 169.955457 164.084707 
L 170.898984 162.549144 
L 171.172911 162.473314 
L 171.325093 162.473314 
L 171.538148 162.435399 
L 171.720766 162.454356 
L 171.872948 162.473314 
L 172.238184 162.776634 
L 172.725166 163.705556 
L 173.455639 165.297991 
L 174.216548 167.72456 
L 175.03833 170.644025 
L 175.37313 172.274377 
L 177.62542 185.525718 
L 180.425566 203.952475 
L 181.003857 206.511747 
L 182.282184 212.331721 
L 183.07353 215.289102 
L 183.621384 216.36968 
L 183.98662 216.824665 
L 184.717093 217.165901 
L 185.447566 216.104277 
L 185.964984 214.587675 
L 187.273748 207.554414 
L 188.156402 200.767604 
L 189.586911 187.345645 
L 190.591311 175.535079 
L 193.45233 136.672062 
L 195.79593 106.017669 
L 199.204802 71.097829 
L 200.604875 59.021854 
L 201.670148 51.874851 
L 202.522366 47.723143 
L 202.918039 46.263416 
L 204.013748 43.211251 
L 204.348548 42.623557 
L 204.83553 42.433984 
L 205.383384 42.888963 
L 205.931239 44.538274 
L 208.274839 55.249304 
L 209.614039 63.382101 
L 210.740184 71.059914 
L 216.157857 112.368458 
L 217.679675 124.67192 
L 219.292802 136.842679 
L 221.332039 150.056105 
L 223.432148 162.454356 
L 224.345239 167.534985 
L 225.532257 174.245964 
L 227.480184 183.421427 
L 227.784548 184.710543 
L 228.84982 188.881208 
L 231.071675 195.459484 
L 231.589093 196.634854 
L 232.410875 198.833932 
L 233.689202 202.265255 
L 233.993566 203.232088 
L 235.911057 208.862486 
L 238.163348 212.843575 
L 238.680766 213.317515 
L 239.137311 213.412303 
L 239.350366 213.431263 
L 242.880984 213.526048 
L 243.824511 214.20852 
L 244.25062 214.815163 
L 244.311493 214.853078 
L 244.615857 215.345972 
L 244.889784 215.857826 
L 245.650693 217.469222 
L 245.863748 217.886289 
L 246.624657 219.497679 
L 247.629057 221.601976 
L 248.420402 223.289196 
L 249.60742 225.279744 
L 251.555348 227.554649 
L 251.677093 227.592568 
L 251.920584 227.725267 
L 252.103202 227.725267 
L 252.498875 227.649437 
L 253.655457 226.038041 
L 254.020693 225.241826 
L 254.203311 224.862674 
L 254.842475 222.985875 
L 255.39033 220.919503 
L 256.242548 216.710917 
L 257.673057 207.156305 
L 258.920948 196.179872 
L 260.016657 184.198687 
L 261.294984 167.762475 
L 262.66462 147.477876 
L 263.577711 132.823676 
L 264.916911 111.401622 
L 266.377857 87.913193 
L 267.869239 65.524304 
L 268.904075 52.235048 
L 270.060657 39.836797 
L 270.669384 34.794081 
L 271.825966 27.628116 
L 272.556439 24.538042 
L 273.37822 22.774988 
L 273.865202 22.32 
L 274.47393 22.812897 
L 274.656548 23.211006 
L 275.843566 27.248971 
L 277.426257 36.746719 
L 278.948075 49.922224 
L 281.017748 71.89405 
L 282.356948 87.230721 
L 286.922402 139.970679 
L 291.000875 181.999611 
L 293.344475 201.487988 
L 294.257566 207.497541 
L 295.109784 212.123188 
L 296.540293 218.701464 
L 297.514257 222.455066 
L 298.183857 224.540393 
L 298.670839 225.696805 
L 298.975202 226.246577 
L 299.888293 227.725267 
L 300.010039 227.820055 
L 300.557893 228.047543 
L 300.740511 228.047543 
L 300.892693 228.104422 
L 301.83622 227.402986 
L 302.688439 226.170744 
L 302.962366 225.469317 
L 304.453748 218.530846 
L 307.345202 197.961884 
L 309.53662 181.051731 
L 310.20622 176.691491 
L 311.454111 168.862015 
L 311.88022 166.188998 
L 312.64113 161.715011 
L 312.97593 159.800296 
L 314.741239 149.487379 
L 316.56742 140.918558 
L 318.393602 134.510898 
L 318.941457 133.145954 
L 319.276257 132.292863 
L 321.285057 127.572429 
L 322.867748 124.842538 
L 323.719966 123.610298 
L 325.333093 120.368552 
L 328.741966 111.591197 
L 329.563748 109.392119 
L 331.998657 103.610061 
L 332.485639 102.851755 
L 332.72913 102.510519 
L 334.098766 100.974962 
L 334.342257 100.880168 
L 334.524875 100.823298 
L 334.768366 100.861213 
L 335.224911 100.937046 
L 335.468402 101.069746 
L 335.590148 101.14558 
L 336.351057 101.922837 
L 336.777166 102.301991 
L 337.842439 103.799639 
L 338.694657 105.619563 
L 339.364257 107.553235 
L 341.34262 115.363754 
L 342.164402 119.439631 
L 344.538439 133.373445 
L 345.45153 140.368787 
L 350.230039 178.208095 
L 350.869202 182.871657 
L 353.15193 199.118295 
L 354.82593 208.862486 
L 355.982511 214.739332 
L 356.773857 217.69671 
L 358.08262 220.673052 
L 359.17833 221.905294 
L 359.75662 221.450312 
L 360.18273 220.673052 
L 360.608839 219.649343 
L 361.09582 218.170649 
L 363.043748 210.473882 
L 363.956839 205.412208 
L 366.970039 184.065985 
L 371.170257 143.800108 
L 372.022475 135.477735 
L 375.096548 109.61961 
L 376.557493 100.349359 
L 378.414111 90.548295 
L 379.235893 87.458215 
L 379.722875 86.017436 
L 380.057675 85.164346 
L 380.818584 83.552949 
L 381.762111 82.52924 
L 382.005602 82.434456 
L 382.309966 82.358622 
L 382.918693 82.453416 
L 382.918693 82.453416 
" style="fill:none;stroke:#ff0000;stroke-linecap:square;stroke-width:1.5;"/>
   </g>
   <g id="line2d_27">
    <path clip-path="url(#p456d41769f)" d="M 124.513966 161.646991 
" style="fill:none;stroke:#ffffff;stroke-linecap:square;stroke-width:1.5;"/>
    <defs>
     <path d="M 0 -5 
L -1.12257 -1.545085 
L -4.755283 -1.545085 
L -1.816356 0.59017 
L -2.938926 4.045085 
L -0 1.90983 
L 2.938926 4.045085 
L 1.816356 0.59017 
L 4.755283 -1.545085 
L 1.12257 -1.545085 
z
" id="m81e4557896" style="stroke:#ffffff;stroke-linejoin:bevel;"/>
    </defs>
    <g clip-path="url(#p456d41769f)">
     <use style="fill:#0000ff;stroke:#ffffff;stroke-linejoin:bevel;" x="124.513966" xlink:href="#m81e4557896" y="161.646991"/>
    </g>
   </g>
   <g id="line2d_28">
    <path clip-path="url(#p456d41769f)" d="M 104.517275 159.686551 
" style="fill:none;stroke:#ffffff;stroke-linecap:square;stroke-width:1.5;"/>
    <defs>
     <path d="M 0 -5 
L -1.12257 -1.545085 
L -4.755283 -1.545085 
L -1.816356 0.59017 
L -2.938926 4.045085 
L -0 1.90983 
L 2.938926 4.045085 
L 1.816356 0.59017 
L 4.755283 -1.545085 
L 1.12257 -1.545085 
z
" id="m69d41c0384" style="stroke:#ffffff;stroke-linejoin:bevel;"/>
    </defs>
    <g clip-path="url(#p456d41769f)">
     <use style="fill:#ff0000;stroke:#ffffff;stroke-linejoin:bevel;" x="104.517275" xlink:href="#m69d41c0384" y="159.686551"/>
    </g>
   </g>
   <g id="patch_3">
    <path d="M 63.336875 339.84 
L 63.336875 7.2 
" style="fill:none;stroke:#000000;stroke-linecap:square;stroke-linejoin:miter;stroke-width:0.8;"/>
   </g>
   <g id="patch_4">
    <path d="M 398.136875 339.84 
L 398.136875 7.2 
" style="fill:none;stroke:#000000;stroke-linecap:square;stroke-linejoin:miter;stroke-width:0.8;"/>
   </g>
   <g id="patch_5">
    <path d="M 63.336875 339.84 
L 398.136875 339.84 
" style="fill:none;stroke:#000000;stroke-linecap:square;stroke-linejoin:miter;stroke-width:0.8;"/>
   </g>
   <g id="patch_6">
    <path d="M 63.336875 7.2 
L 398.136875 7.2 
" style="fill:none;stroke:#000000;stroke-linecap:square;stroke-linejoin:miter;stroke-width:0.8;"/>
   </g>
   <g id="text_15">
    <g id="patch_7">
     <path d="M 75.036875 331.242688 
L 166.79375 331.242688 
L 166.79375 293.760312 
L 75.036875 293.760312 
z
" style="fill:#ffffff;stroke:#000000;stroke-linejoin:miter;stroke-width:0.75;"/>
    </g>
    <!-- Auto_00115 -->
    <g transform="translate(80.076875 308.521562)scale(0.14 -0.14)">
     <defs>
      <path d="M 2928 1419 
L 1288 1419 
L 1000 750 
Q 894 503 894 381 
Q 894 284 986 211 
Q 1078 138 1384 116 
L 1384 0 
L 50 0 
L 50 116 
Q 316 163 394 238 
Q 553 388 747 847 
L 2238 4334 
L 2347 4334 
L 3822 809 
Q 4000 384 4145 257 
Q 4291 131 4550 116 
L 4550 0 
L 2878 0 
L 2878 116 
Q 3131 128 3220 200 
Q 3309 272 3309 375 
Q 3309 513 3184 809 
L 2928 1419 
z
M 2841 1650 
L 2122 3363 
L 1384 1650 
L 2841 1650 
z
" id="TimesNewRomanPSMT-41" transform="scale(0.015625)"/>
      <path d="M 2709 2863 
L 2709 1128 
Q 2709 631 2732 520 
Q 2756 409 2807 365 
Q 2859 322 2928 322 
Q 3025 322 3147 375 
L 3191 266 
L 2334 -88 
L 2194 -88 
L 2194 519 
Q 1825 119 1631 15 
Q 1438 -88 1222 -88 
Q 981 -88 804 51 
Q 628 191 559 409 
Q 491 628 491 1028 
L 491 2306 
Q 491 2509 447 2587 
Q 403 2666 317 2708 
Q 231 2750 6 2747 
L 6 2863 
L 1009 2863 
L 1009 947 
Q 1009 547 1148 422 
Q 1288 297 1484 297 
Q 1619 297 1789 381 
Q 1959 466 2194 703 
L 2194 2325 
Q 2194 2569 2105 2655 
Q 2016 2741 1734 2747 
L 1734 2863 
L 2709 2863 
z
" id="TimesNewRomanPSMT-75" transform="scale(0.015625)"/>
      <path d="M 3256 -1381 
L -53 -1381 
L -53 -1119 
L 3256 -1119 
L 3256 -1381 
z
" id="TimesNewRomanPSMT-5f" transform="scale(0.015625)"/>
     </defs>
     <use xlink:href="#TimesNewRomanPSMT-41"/>
     <use x="72.216797" xlink:href="#TimesNewRomanPSMT-75"/>
     <use x="122.216797" xlink:href="#TimesNewRomanPSMT-74"/>
     <use x="150" xlink:href="#TimesNewRomanPSMT-6f"/>
     <use x="200" xlink:href="#TimesNewRomanPSMT-5f"/>
     <use x="250" xlink:href="#TimesNewRomanPSMT-30"/>
     <use x="300" xlink:href="#TimesNewRomanPSMT-30"/>
     <use x="350" xlink:href="#TimesNewRomanPSMT-31"/>
     <use x="396.25" xlink:href="#TimesNewRomanPSMT-31"/>
     <use x="446.25" xlink:href="#TimesNewRomanPSMT-35"/>
    </g>
    <!-- Vs: 304.24m/s -->
    <g transform="translate(80.076875 323.208)scale(0.14 -0.14)">
     <defs>
      <path d="M 903 2950 
Q 1047 2950 1148 2848 
Q 1250 2747 1250 2603 
Q 1250 2459 1148 2357 
Q 1047 2256 903 2256 
Q 759 2256 657 2357 
Q 556 2459 556 2603 
Q 556 2747 657 2848 
Q 759 2950 903 2950 
z
M 897 609 
Q 1044 609 1145 506 
Q 1247 403 1247 259 
Q 1247 116 1144 14 
Q 1041 -88 897 -88 
Q 753 -88 651 14 
Q 550 116 550 259 
Q 550 403 651 506 
Q 753 609 897 609 
z
" id="TimesNewRomanPSMT-3a" transform="scale(0.015625)"/>
      <path d="M 1794 4444 
L 259 -88 
L 9 -88 
L 1544 4444 
L 1794 4444 
z
" id="TimesNewRomanPSMT-2f" transform="scale(0.015625)"/>
     </defs>
     <use xlink:href="#TimesNewRomanPSMT-56"/>
     <use x="72.216797" xlink:href="#TimesNewRomanPSMT-73"/>
     <use x="111.132812" xlink:href="#TimesNewRomanPSMT-3a"/>
     <use x="138.916016" xlink:href="#TimesNewRomanPSMT-20"/>
     <use x="163.916016" xlink:href="#TimesNewRomanPSMT-33"/>
     <use x="213.916016" xlink:href="#TimesNewRomanPSMT-30"/>
     <use x="263.916016" xlink:href="#TimesNewRomanPSMT-34"/>
     <use x="313.916016" xlink:href="#TimesNewRomanPSMT-2e"/>
     <use x="338.916016" xlink:href="#TimesNewRomanPSMT-32"/>
     <use x="388.916016" xlink:href="#TimesNewRomanPSMT-34"/>
     <use x="438.916016" xlink:href="#TimesNewRomanPSMT-6d"/>
     <use x="516.699219" xlink:href="#TimesNewRomanPSMT-2f"/>
     <use x="544.482422" xlink:href="#TimesNewRomanPSMT-73"/>
    </g>
   </g>
  </g>
 </g>
 <defs>
  <clipPath id="p456d41769f">
   <rect height="332.64" width="334.8" x="63.336875" y="7.2"/>
  </clipPath>
 </defs>
</svg>
