<?xml version="1.0" encoding="utf-8" standalone="no"?>
<!DOCTYPE svg PUBLIC "-//W3C//DTD SVG 1.1//EN"
  "http://www.w3.org/Graphics/SVG/1.1/DTD/svg11.dtd">
<svg height="386.330234pt" version="1.1" viewBox="0 0 421.086875 386.330234" width="421.086875pt" xmlns="http://www.w3.org/2000/svg" xmlns:xlink="http://www.w3.org/1999/xlink">
 <metadata>
  <rdf:RDF xmlns:cc="http://creativecommons.org/ns#" xmlns:dc="http://purl.org/dc/elements/1.1/" xmlns:rdf="http://www.w3.org/1999/02/22-rdf-syntax-ns#">
   <cc:Work>
    <dc:type rdf:resource="http://purl.org/dc/dcmitype/StillImage"/>
    <dc:date>2021-06-11T14:39:39.459202</dc:date>
    <dc:format>image/svg+xml</dc:format>
    <dc:creator>
     <cc:Agent>
      <dc:title>Matplotlib v3.4.2, https://matplotlib.org/</dc:title>
     </cc:Agent>
    </dc:creator>
   </cc:Work>
  </rdf:RDF>
 </metadata>
 <defs>
  <style type="text/css">*{stroke-linecap:butt;stroke-linejoin:round;}</style>
 </defs>
 <g id="figure_1">
  <g id="patch_1">
   <path d="M 0 386.330234 
L 421.086875 386.330234 
L 421.086875 0 
L 0 0 
z
" style="fill:#ffffff;"/>
  </g>
  <g id="axes_1">
   <g id="patch_2">
    <path d="M 63.336875 342.698359 
L 398.136875 342.698359 
L 398.136875 10.058359 
L 63.336875 10.058359 
z
" style="fill:#ffffff;"/>
   </g>
   <g id="matplotlib.axis_1">
    <g id="xtick_1">
     <g id="line2d_1">
      <path clip-path="url(#pb7aca230c4)" d="M 93.773239 342.698359 
L 93.773239 10.058359 
" style="fill:none;stroke:#000000;stroke-dasharray:0.5,0.825;stroke-dashoffset:0;stroke-width:0.5;"/>
     </g>
     <g id="line2d_2">
      <defs>
       <path d="M 0 0 
L 0 3.5 
" id="m143d04bacf" style="stroke:#000000;stroke-width:0.8;"/>
      </defs>
      <g>
       <use style="stroke:#000000;stroke-width:0.8;" x="93.773239" xlink:href="#m143d04bacf" y="342.698359"/>
      </g>
     </g>
     <g id="text_1">
      <!-- 0.000 -->
      <g transform="translate(78.023239 359.419609)scale(0.14 -0.14)">
       <defs>
        <path d="M 231 2094 
Q 231 2819 450 3342 
Q 669 3866 1031 4122 
Q 1313 4325 1613 4325 
Q 2100 4325 2488 3828 
Q 2972 3213 2972 2159 
Q 2972 1422 2759 906 
Q 2547 391 2217 158 
Q 1888 -75 1581 -75 
Q 975 -75 572 641 
Q 231 1244 231 2094 
z
M 844 2016 
Q 844 1141 1059 588 
Q 1238 122 1591 122 
Q 1759 122 1940 273 
Q 2122 425 2216 781 
Q 2359 1319 2359 2297 
Q 2359 3022 2209 3506 
Q 2097 3866 1919 4016 
Q 1791 4119 1609 4119 
Q 1397 4119 1231 3928 
Q 1006 3669 925 3112 
Q 844 2556 844 2016 
z
" id="TimesNewRomanPSMT-30" transform="scale(0.015625)"/>
        <path d="M 800 606 
Q 947 606 1047 504 
Q 1147 403 1147 259 
Q 1147 116 1045 14 
Q 944 -88 800 -88 
Q 656 -88 554 14 
Q 453 116 453 259 
Q 453 406 554 506 
Q 656 606 800 606 
z
" id="TimesNewRomanPSMT-2e" transform="scale(0.015625)"/>
       </defs>
       <use xlink:href="#TimesNewRomanPSMT-30"/>
       <use x="50" xlink:href="#TimesNewRomanPSMT-2e"/>
       <use x="75" xlink:href="#TimesNewRomanPSMT-30"/>
       <use x="125" xlink:href="#TimesNewRomanPSMT-30"/>
       <use x="175" xlink:href="#TimesNewRomanPSMT-30"/>
      </g>
     </g>
    </g>
    <g id="xtick_2">
     <g id="line2d_3">
      <path clip-path="url(#pb7aca230c4)" d="M 154.645966 342.698359 
L 154.645966 10.058359 
" style="fill:none;stroke:#000000;stroke-dasharray:0.5,0.825;stroke-dashoffset:0;stroke-width:0.5;"/>
     </g>
     <g id="line2d_4">
      <g>
       <use style="stroke:#000000;stroke-width:0.8;" x="154.645966" xlink:href="#m143d04bacf" y="342.698359"/>
      </g>
     </g>
     <g id="text_2">
      <!-- 0.001 -->
      <g transform="translate(138.895966 359.419609)scale(0.14 -0.14)">
       <defs>
        <path d="M 750 3822 
L 1781 4325 
L 1884 4325 
L 1884 747 
Q 1884 391 1914 303 
Q 1944 216 2037 169 
Q 2131 122 2419 116 
L 2419 0 
L 825 0 
L 825 116 
Q 1125 122 1212 167 
Q 1300 213 1334 289 
Q 1369 366 1369 747 
L 1369 3034 
Q 1369 3497 1338 3628 
Q 1316 3728 1258 3775 
Q 1200 3822 1119 3822 
Q 1003 3822 797 3725 
L 750 3822 
z
" id="TimesNewRomanPSMT-31" transform="scale(0.015625)"/>
       </defs>
       <use xlink:href="#TimesNewRomanPSMT-30"/>
       <use x="50" xlink:href="#TimesNewRomanPSMT-2e"/>
       <use x="75" xlink:href="#TimesNewRomanPSMT-30"/>
       <use x="125" xlink:href="#TimesNewRomanPSMT-30"/>
       <use x="175" xlink:href="#TimesNewRomanPSMT-31"/>
      </g>
     </g>
    </g>
    <g id="xtick_3">
     <g id="line2d_5">
      <path clip-path="url(#pb7aca230c4)" d="M 215.518693 342.698359 
L 215.518693 10.058359 
" style="fill:none;stroke:#000000;stroke-dasharray:0.5,0.825;stroke-dashoffset:0;stroke-width:0.5;"/>
     </g>
     <g id="line2d_6">
      <g>
       <use style="stroke:#000000;stroke-width:0.8;" x="215.518693" xlink:href="#m143d04bacf" y="342.698359"/>
      </g>
     </g>
     <g id="text_3">
      <!-- 0.002 -->
      <g transform="translate(199.768693 359.419609)scale(0.14 -0.14)">
       <defs>
        <path d="M 2934 816 
L 2638 0 
L 138 0 
L 138 116 
Q 1241 1122 1691 1759 
Q 2141 2397 2141 2925 
Q 2141 3328 1894 3587 
Q 1647 3847 1303 3847 
Q 991 3847 742 3664 
Q 494 3481 375 3128 
L 259 3128 
Q 338 3706 661 4015 
Q 984 4325 1469 4325 
Q 1984 4325 2329 3994 
Q 2675 3663 2675 3213 
Q 2675 2891 2525 2569 
Q 2294 2063 1775 1497 
Q 997 647 803 472 
L 1909 472 
Q 2247 472 2383 497 
Q 2519 522 2628 598 
Q 2738 675 2819 816 
L 2934 816 
z
" id="TimesNewRomanPSMT-32" transform="scale(0.015625)"/>
       </defs>
       <use xlink:href="#TimesNewRomanPSMT-30"/>
       <use x="50" xlink:href="#TimesNewRomanPSMT-2e"/>
       <use x="75" xlink:href="#TimesNewRomanPSMT-30"/>
       <use x="125" xlink:href="#TimesNewRomanPSMT-30"/>
       <use x="175" xlink:href="#TimesNewRomanPSMT-32"/>
      </g>
     </g>
    </g>
    <g id="xtick_4">
     <g id="line2d_7">
      <path clip-path="url(#pb7aca230c4)" d="M 276.39142 342.698359 
L 276.39142 10.058359 
" style="fill:none;stroke:#000000;stroke-dasharray:0.5,0.825;stroke-dashoffset:0;stroke-width:0.5;"/>
     </g>
     <g id="line2d_8">
      <g>
       <use style="stroke:#000000;stroke-width:0.8;" x="276.39142" xlink:href="#m143d04bacf" y="342.698359"/>
      </g>
     </g>
     <g id="text_4">
      <!-- 0.003 -->
      <g transform="translate(260.64142 359.419609)scale(0.14 -0.14)">
       <defs>
        <path d="M 325 3431 
Q 506 3859 782 4092 
Q 1059 4325 1472 4325 
Q 1981 4325 2253 3994 
Q 2459 3747 2459 3466 
Q 2459 3003 1878 2509 
Q 2269 2356 2469 2072 
Q 2669 1788 2669 1403 
Q 2669 853 2319 450 
Q 1863 -75 997 -75 
Q 569 -75 414 31 
Q 259 138 259 259 
Q 259 350 332 419 
Q 406 488 509 488 
Q 588 488 669 463 
Q 722 447 909 348 
Q 1097 250 1169 231 
Q 1284 197 1416 197 
Q 1734 197 1970 444 
Q 2206 691 2206 1028 
Q 2206 1275 2097 1509 
Q 2016 1684 1919 1775 
Q 1784 1900 1550 2001 
Q 1316 2103 1072 2103 
L 972 2103 
L 972 2197 
Q 1219 2228 1467 2375 
Q 1716 2522 1828 2728 
Q 1941 2934 1941 3181 
Q 1941 3503 1739 3701 
Q 1538 3900 1238 3900 
Q 753 3900 428 3381 
L 325 3431 
z
" id="TimesNewRomanPSMT-33" transform="scale(0.015625)"/>
       </defs>
       <use xlink:href="#TimesNewRomanPSMT-30"/>
       <use x="50" xlink:href="#TimesNewRomanPSMT-2e"/>
       <use x="75" xlink:href="#TimesNewRomanPSMT-30"/>
       <use x="125" xlink:href="#TimesNewRomanPSMT-30"/>
       <use x="175" xlink:href="#TimesNewRomanPSMT-33"/>
      </g>
     </g>
    </g>
    <g id="xtick_5">
     <g id="line2d_9">
      <path clip-path="url(#pb7aca230c4)" d="M 337.264148 342.698359 
L 337.264148 10.058359 
" style="fill:none;stroke:#000000;stroke-dasharray:0.5,0.825;stroke-dashoffset:0;stroke-width:0.5;"/>
     </g>
     <g id="line2d_10">
      <g>
       <use style="stroke:#000000;stroke-width:0.8;" x="337.264148" xlink:href="#m143d04bacf" y="342.698359"/>
      </g>
     </g>
     <g id="text_5">
      <!-- 0.004 -->
      <g transform="translate(321.514148 359.419609)scale(0.14 -0.14)">
       <defs>
        <path d="M 2978 1563 
L 2978 1119 
L 2409 1119 
L 2409 0 
L 1894 0 
L 1894 1119 
L 100 1119 
L 100 1519 
L 2066 4325 
L 2409 4325 
L 2409 1563 
L 2978 1563 
z
M 1894 1563 
L 1894 3666 
L 406 1563 
L 1894 1563 
z
" id="TimesNewRomanPSMT-34" transform="scale(0.015625)"/>
       </defs>
       <use xlink:href="#TimesNewRomanPSMT-30"/>
       <use x="50" xlink:href="#TimesNewRomanPSMT-2e"/>
       <use x="75" xlink:href="#TimesNewRomanPSMT-30"/>
       <use x="125" xlink:href="#TimesNewRomanPSMT-30"/>
       <use x="175" xlink:href="#TimesNewRomanPSMT-34"/>
      </g>
     </g>
    </g>
    <g id="xtick_6">
     <g id="line2d_11">
      <path clip-path="url(#pb7aca230c4)" d="M 398.136875 342.698359 
L 398.136875 10.058359 
" style="fill:none;stroke:#000000;stroke-dasharray:0.5,0.825;stroke-dashoffset:0;stroke-width:0.5;"/>
     </g>
     <g id="line2d_12">
      <g>
       <use style="stroke:#000000;stroke-width:0.8;" x="398.136875" xlink:href="#m143d04bacf" y="342.698359"/>
      </g>
     </g>
     <g id="text_6">
      <!-- 0.005 -->
      <g transform="translate(382.386875 359.419609)scale(0.14 -0.14)">
       <defs>
        <path d="M 2778 4238 
L 2534 3706 
L 1259 3706 
L 981 3138 
Q 1809 3016 2294 2522 
Q 2709 2097 2709 1522 
Q 2709 1188 2573 903 
Q 2438 619 2231 419 
Q 2025 219 1772 97 
Q 1413 -75 1034 -75 
Q 653 -75 479 54 
Q 306 184 306 341 
Q 306 428 378 495 
Q 450 563 559 563 
Q 641 563 702 538 
Q 763 513 909 409 
Q 1144 247 1384 247 
Q 1750 247 2026 523 
Q 2303 800 2303 1197 
Q 2303 1581 2056 1914 
Q 1809 2247 1375 2428 
Q 1034 2569 447 2591 
L 1259 4238 
L 2778 4238 
z
" id="TimesNewRomanPSMT-35" transform="scale(0.015625)"/>
       </defs>
       <use xlink:href="#TimesNewRomanPSMT-30"/>
       <use x="50" xlink:href="#TimesNewRomanPSMT-2e"/>
       <use x="75" xlink:href="#TimesNewRomanPSMT-30"/>
       <use x="125" xlink:href="#TimesNewRomanPSMT-30"/>
       <use x="175" xlink:href="#TimesNewRomanPSMT-35"/>
      </g>
     </g>
    </g>
    <g id="text_7">
     <!-- Time (sec) -->
     <g transform="translate(200.858906 376.135546)scale(0.14 -0.14)">
      <defs>
       <path d="M 3703 4238 
L 3750 3244 
L 3631 3244 
Q 3597 3506 3538 3619 
Q 3441 3800 3280 3886 
Q 3119 3972 2856 3972 
L 2259 3972 
L 2259 734 
Q 2259 344 2344 247 
Q 2463 116 2709 116 
L 2856 116 
L 2856 0 
L 1059 0 
L 1059 116 
L 1209 116 
Q 1478 116 1591 278 
Q 1659 378 1659 734 
L 1659 3972 
L 1150 3972 
Q 853 3972 728 3928 
Q 566 3869 450 3700 
Q 334 3531 313 3244 
L 194 3244 
L 244 4238 
L 3703 4238 
z
" id="TimesNewRomanPSMT-54" transform="scale(0.015625)"/>
       <path d="M 928 4444 
Q 1059 4444 1151 4351 
Q 1244 4259 1244 4128 
Q 1244 3997 1151 3903 
Q 1059 3809 928 3809 
Q 797 3809 703 3903 
Q 609 3997 609 4128 
Q 609 4259 701 4351 
Q 794 4444 928 4444 
z
M 1188 2947 
L 1188 647 
Q 1188 378 1227 289 
Q 1266 200 1342 156 
Q 1419 113 1622 113 
L 1622 0 
L 231 0 
L 231 113 
Q 441 113 512 153 
Q 584 194 626 287 
Q 669 381 669 647 
L 669 1750 
Q 669 2216 641 2353 
Q 619 2453 572 2492 
Q 525 2531 444 2531 
Q 356 2531 231 2484 
L 188 2597 
L 1050 2947 
L 1188 2947 
z
" id="TimesNewRomanPSMT-69" transform="scale(0.015625)"/>
       <path d="M 1050 2338 
Q 1363 2650 1419 2697 
Q 1559 2816 1721 2881 
Q 1884 2947 2044 2947 
Q 2313 2947 2506 2790 
Q 2700 2634 2766 2338 
Q 3088 2713 3309 2830 
Q 3531 2947 3766 2947 
Q 3994 2947 4170 2830 
Q 4347 2713 4450 2447 
Q 4519 2266 4519 1878 
L 4519 647 
Q 4519 378 4559 278 
Q 4591 209 4675 161 
Q 4759 113 4950 113 
L 4950 0 
L 3538 0 
L 3538 113 
L 3597 113 
Q 3781 113 3884 184 
Q 3956 234 3988 344 
Q 4000 397 4000 647 
L 4000 1878 
Q 4000 2228 3916 2372 
Q 3794 2572 3525 2572 
Q 3359 2572 3192 2489 
Q 3025 2406 2788 2181 
L 2781 2147 
L 2788 2013 
L 2788 647 
Q 2788 353 2820 281 
Q 2853 209 2943 161 
Q 3034 113 3253 113 
L 3253 0 
L 1806 0 
L 1806 113 
Q 2044 113 2133 169 
Q 2222 225 2256 338 
Q 2272 391 2272 647 
L 2272 1878 
Q 2272 2228 2169 2381 
Q 2031 2581 1784 2581 
Q 1616 2581 1450 2491 
Q 1191 2353 1050 2181 
L 1050 647 
Q 1050 366 1089 281 
Q 1128 197 1204 155 
Q 1281 113 1516 113 
L 1516 0 
L 100 0 
L 100 113 
Q 297 113 375 155 
Q 453 197 493 289 
Q 534 381 534 647 
L 534 1741 
Q 534 2213 506 2350 
Q 484 2453 437 2492 
Q 391 2531 309 2531 
Q 222 2531 100 2484 
L 53 2597 
L 916 2947 
L 1050 2947 
L 1050 2338 
z
" id="TimesNewRomanPSMT-6d" transform="scale(0.015625)"/>
       <path d="M 681 1784 
Q 678 1147 991 784 
Q 1303 422 1725 422 
Q 2006 422 2214 576 
Q 2422 731 2563 1106 
L 2659 1044 
Q 2594 616 2278 264 
Q 1963 -88 1488 -88 
Q 972 -88 605 314 
Q 238 716 238 1394 
Q 238 2128 614 2539 
Q 991 2950 1559 2950 
Q 2041 2950 2350 2633 
Q 2659 2316 2659 1784 
L 681 1784 
z
M 681 1966 
L 2006 1966 
Q 1991 2241 1941 2353 
Q 1863 2528 1708 2628 
Q 1553 2728 1384 2728 
Q 1125 2728 920 2526 
Q 716 2325 681 1966 
z
" id="TimesNewRomanPSMT-65" transform="scale(0.015625)"/>
       <path id="TimesNewRomanPSMT-20" transform="scale(0.015625)"/>
       <path d="M 1988 -1253 
L 1988 -1369 
Q 1516 -1131 1200 -813 
Q 750 -359 506 256 
Q 263 872 263 1534 
Q 263 2503 741 3301 
Q 1219 4100 1988 4444 
L 1988 4313 
Q 1603 4100 1356 3731 
Q 1109 3363 987 2797 
Q 866 2231 866 1616 
Q 866 947 969 400 
Q 1050 -31 1165 -292 
Q 1281 -553 1476 -793 
Q 1672 -1034 1988 -1253 
z
" id="TimesNewRomanPSMT-28" transform="scale(0.015625)"/>
       <path d="M 2050 2947 
L 2050 1972 
L 1947 1972 
Q 1828 2431 1642 2597 
Q 1456 2763 1169 2763 
Q 950 2763 815 2647 
Q 681 2531 681 2391 
Q 681 2216 781 2091 
Q 878 1963 1175 1819 
L 1631 1597 
Q 2266 1288 2266 781 
Q 2266 391 1970 151 
Q 1675 -88 1309 -88 
Q 1047 -88 709 6 
Q 606 38 541 38 
Q 469 38 428 -44 
L 325 -44 
L 325 978 
L 428 978 
Q 516 541 762 319 
Q 1009 97 1316 97 
Q 1531 97 1667 223 
Q 1803 350 1803 528 
Q 1803 744 1651 891 
Q 1500 1038 1047 1263 
Q 594 1488 453 1669 
Q 313 1847 313 2119 
Q 313 2472 555 2709 
Q 797 2947 1181 2947 
Q 1350 2947 1591 2875 
Q 1750 2828 1803 2828 
Q 1853 2828 1881 2850 
Q 1909 2872 1947 2947 
L 2050 2947 
z
" id="TimesNewRomanPSMT-73" transform="scale(0.015625)"/>
       <path d="M 2631 1088 
Q 2516 522 2178 217 
Q 1841 -88 1431 -88 
Q 944 -88 581 321 
Q 219 731 219 1428 
Q 219 2103 620 2525 
Q 1022 2947 1584 2947 
Q 2006 2947 2278 2723 
Q 2550 2500 2550 2259 
Q 2550 2141 2473 2067 
Q 2397 1994 2259 1994 
Q 2075 1994 1981 2113 
Q 1928 2178 1911 2362 
Q 1894 2547 1784 2644 
Q 1675 2738 1481 2738 
Q 1169 2738 978 2506 
Q 725 2200 725 1697 
Q 725 1184 976 792 
Q 1228 400 1656 400 
Q 1963 400 2206 609 
Q 2378 753 2541 1131 
L 2631 1088 
z
" id="TimesNewRomanPSMT-63" transform="scale(0.015625)"/>
       <path d="M 144 4313 
L 144 4444 
Q 619 4209 934 3891 
Q 1381 3434 1625 2820 
Q 1869 2206 1869 1541 
Q 1869 572 1392 -226 
Q 916 -1025 144 -1369 
L 144 -1253 
Q 528 -1038 776 -670 
Q 1025 -303 1145 264 
Q 1266 831 1266 1447 
Q 1266 2113 1163 2663 
Q 1084 3094 967 3353 
Q 850 3613 656 3853 
Q 463 4094 144 4313 
z
" id="TimesNewRomanPSMT-29" transform="scale(0.015625)"/>
      </defs>
      <use xlink:href="#TimesNewRomanPSMT-54"/>
      <use x="57.583984" xlink:href="#TimesNewRomanPSMT-69"/>
      <use x="85.367188" xlink:href="#TimesNewRomanPSMT-6d"/>
      <use x="163.150391" xlink:href="#TimesNewRomanPSMT-65"/>
      <use x="207.535156" xlink:href="#TimesNewRomanPSMT-20"/>
      <use x="232.535156" xlink:href="#TimesNewRomanPSMT-28"/>
      <use x="265.835938" xlink:href="#TimesNewRomanPSMT-73"/>
      <use x="304.751953" xlink:href="#TimesNewRomanPSMT-65"/>
      <use x="349.136719" xlink:href="#TimesNewRomanPSMT-63"/>
      <use x="393.521484" xlink:href="#TimesNewRomanPSMT-29"/>
     </g>
    </g>
   </g>
   <g id="matplotlib.axis_2">
    <g id="ytick_1">
     <g id="line2d_13">
      <path clip-path="url(#pb7aca230c4)" d="M 63.336875 323.06175 
L 398.136875 323.06175 
" style="fill:none;stroke:#000000;stroke-dasharray:0.5,0.825;stroke-dashoffset:0;stroke-width:0.5;"/>
     </g>
     <g id="line2d_14">
      <defs>
       <path d="M 0 0 
L -3.5 0 
" id="mafb5fa7558" style="stroke:#000000;stroke-width:0.8;"/>
      </defs>
      <g>
       <use style="stroke:#000000;stroke-width:0.8;" x="63.336875" xlink:href="#mafb5fa7558" y="323.06175"/>
      </g>
     </g>
     <g id="text_8">
      <!-- −0.08 -->
      <g transform="translate(23.942188 327.922375)scale(0.14 -0.14)">
       <defs>
        <path d="M 3484 2000 
L 116 2000 
L 116 2256 
L 3484 2256 
L 3484 2000 
z
" id="TimesNewRomanPSMT-2212" transform="scale(0.015625)"/>
        <path d="M 1228 2134 
Q 725 2547 579 2797 
Q 434 3047 434 3316 
Q 434 3728 753 4026 
Q 1072 4325 1600 4325 
Q 2113 4325 2425 4047 
Q 2738 3769 2738 3413 
Q 2738 3175 2569 2928 
Q 2400 2681 1866 2347 
Q 2416 1922 2594 1678 
Q 2831 1359 2831 1006 
Q 2831 559 2490 242 
Q 2150 -75 1597 -75 
Q 994 -75 656 303 
Q 388 606 388 966 
Q 388 1247 577 1523 
Q 766 1800 1228 2134 
z
M 1719 2469 
Q 2094 2806 2194 3001 
Q 2294 3197 2294 3444 
Q 2294 3772 2109 3958 
Q 1925 4144 1606 4144 
Q 1288 4144 1088 3959 
Q 888 3775 888 3528 
Q 888 3366 970 3203 
Q 1053 3041 1206 2894 
L 1719 2469 
z
M 1375 2016 
Q 1116 1797 991 1539 
Q 866 1281 866 981 
Q 866 578 1086 336 
Q 1306 94 1647 94 
Q 1984 94 2187 284 
Q 2391 475 2391 747 
Q 2391 972 2272 1150 
Q 2050 1481 1375 2016 
z
" id="TimesNewRomanPSMT-38" transform="scale(0.015625)"/>
       </defs>
       <use xlink:href="#TimesNewRomanPSMT-2212"/>
       <use x="56.396484" xlink:href="#TimesNewRomanPSMT-30"/>
       <use x="106.396484" xlink:href="#TimesNewRomanPSMT-2e"/>
       <use x="131.396484" xlink:href="#TimesNewRomanPSMT-30"/>
       <use x="181.396484" xlink:href="#TimesNewRomanPSMT-38"/>
      </g>
     </g>
    </g>
    <g id="ytick_2">
     <g id="line2d_15">
      <path clip-path="url(#pb7aca230c4)" d="M 63.336875 284.186609 
L 398.136875 284.186609 
" style="fill:none;stroke:#000000;stroke-dasharray:0.5,0.825;stroke-dashoffset:0;stroke-width:0.5;"/>
     </g>
     <g id="line2d_16">
      <g>
       <use style="stroke:#000000;stroke-width:0.8;" x="63.336875" xlink:href="#mafb5fa7558" y="284.186609"/>
      </g>
     </g>
     <g id="text_9">
      <!-- −0.06 -->
      <g transform="translate(23.942188 289.047234)scale(0.14 -0.14)">
       <defs>
        <path d="M 2869 4325 
L 2869 4209 
Q 2456 4169 2195 4045 
Q 1934 3922 1679 3669 
Q 1425 3416 1258 3105 
Q 1091 2794 978 2366 
Q 1428 2675 1881 2675 
Q 2316 2675 2634 2325 
Q 2953 1975 2953 1425 
Q 2953 894 2631 456 
Q 2244 -75 1606 -75 
Q 1172 -75 869 213 
Q 275 772 275 1663 
Q 275 2231 503 2743 
Q 731 3256 1154 3653 
Q 1578 4050 1965 4187 
Q 2353 4325 2688 4325 
L 2869 4325 
z
M 925 2138 
Q 869 1716 869 1456 
Q 869 1156 980 804 
Q 1091 453 1309 247 
Q 1469 100 1697 100 
Q 1969 100 2183 356 
Q 2397 613 2397 1088 
Q 2397 1622 2184 2012 
Q 1972 2403 1581 2403 
Q 1463 2403 1327 2353 
Q 1191 2303 925 2138 
z
" id="TimesNewRomanPSMT-36" transform="scale(0.015625)"/>
       </defs>
       <use xlink:href="#TimesNewRomanPSMT-2212"/>
       <use x="56.396484" xlink:href="#TimesNewRomanPSMT-30"/>
       <use x="106.396484" xlink:href="#TimesNewRomanPSMT-2e"/>
       <use x="131.396484" xlink:href="#TimesNewRomanPSMT-30"/>
       <use x="181.396484" xlink:href="#TimesNewRomanPSMT-36"/>
      </g>
     </g>
    </g>
    <g id="ytick_3">
     <g id="line2d_17">
      <path clip-path="url(#pb7aca230c4)" d="M 63.336875 245.311469 
L 398.136875 245.311469 
" style="fill:none;stroke:#000000;stroke-dasharray:0.5,0.825;stroke-dashoffset:0;stroke-width:0.5;"/>
     </g>
     <g id="line2d_18">
      <g>
       <use style="stroke:#000000;stroke-width:0.8;" x="63.336875" xlink:href="#mafb5fa7558" y="245.311469"/>
      </g>
     </g>
     <g id="text_10">
      <!-- −0.04 -->
      <g transform="translate(23.942188 250.172094)scale(0.14 -0.14)">
       <use xlink:href="#TimesNewRomanPSMT-2212"/>
       <use x="56.396484" xlink:href="#TimesNewRomanPSMT-30"/>
       <use x="106.396484" xlink:href="#TimesNewRomanPSMT-2e"/>
       <use x="131.396484" xlink:href="#TimesNewRomanPSMT-30"/>
       <use x="181.396484" xlink:href="#TimesNewRomanPSMT-34"/>
      </g>
     </g>
    </g>
    <g id="ytick_4">
     <g id="line2d_19">
      <path clip-path="url(#pb7aca230c4)" d="M 63.336875 206.436328 
L 398.136875 206.436328 
" style="fill:none;stroke:#000000;stroke-dasharray:0.5,0.825;stroke-dashoffset:0;stroke-width:0.5;"/>
     </g>
     <g id="line2d_20">
      <g>
       <use style="stroke:#000000;stroke-width:0.8;" x="63.336875" xlink:href="#mafb5fa7558" y="206.436328"/>
      </g>
     </g>
     <g id="text_11">
      <!-- −0.02 -->
      <g transform="translate(23.942188 211.296953)scale(0.14 -0.14)">
       <use xlink:href="#TimesNewRomanPSMT-2212"/>
       <use x="56.396484" xlink:href="#TimesNewRomanPSMT-30"/>
       <use x="106.396484" xlink:href="#TimesNewRomanPSMT-2e"/>
       <use x="131.396484" xlink:href="#TimesNewRomanPSMT-30"/>
       <use x="181.396484" xlink:href="#TimesNewRomanPSMT-32"/>
      </g>
     </g>
    </g>
    <g id="ytick_5">
     <g id="line2d_21">
      <path clip-path="url(#pb7aca230c4)" d="M 63.336875 167.561187 
L 398.136875 167.561187 
" style="fill:none;stroke:#000000;stroke-dasharray:0.5,0.825;stroke-dashoffset:0;stroke-width:0.5;"/>
     </g>
     <g id="line2d_22">
      <g>
       <use style="stroke:#000000;stroke-width:0.8;" x="63.336875" xlink:href="#mafb5fa7558" y="167.561187"/>
      </g>
     </g>
     <g id="text_12">
      <!-- 0.00 -->
      <g transform="translate(31.836875 172.421812)scale(0.14 -0.14)">
       <use xlink:href="#TimesNewRomanPSMT-30"/>
       <use x="50" xlink:href="#TimesNewRomanPSMT-2e"/>
       <use x="75" xlink:href="#TimesNewRomanPSMT-30"/>
       <use x="125" xlink:href="#TimesNewRomanPSMT-30"/>
      </g>
     </g>
    </g>
    <g id="ytick_6">
     <g id="line2d_23">
      <path clip-path="url(#pb7aca230c4)" d="M 63.336875 128.686047 
L 398.136875 128.686047 
" style="fill:none;stroke:#000000;stroke-dasharray:0.5,0.825;stroke-dashoffset:0;stroke-width:0.5;"/>
     </g>
     <g id="line2d_24">
      <g>
       <use style="stroke:#000000;stroke-width:0.8;" x="63.336875" xlink:href="#mafb5fa7558" y="128.686047"/>
      </g>
     </g>
     <g id="text_13">
      <!-- 0.02 -->
      <g transform="translate(31.836875 133.546672)scale(0.14 -0.14)">
       <use xlink:href="#TimesNewRomanPSMT-30"/>
       <use x="50" xlink:href="#TimesNewRomanPSMT-2e"/>
       <use x="75" xlink:href="#TimesNewRomanPSMT-30"/>
       <use x="125" xlink:href="#TimesNewRomanPSMT-32"/>
      </g>
     </g>
    </g>
    <g id="ytick_7">
     <g id="line2d_25">
      <path clip-path="url(#pb7aca230c4)" d="M 63.336875 89.810906 
L 398.136875 89.810906 
" style="fill:none;stroke:#000000;stroke-dasharray:0.5,0.825;stroke-dashoffset:0;stroke-width:0.5;"/>
     </g>
     <g id="line2d_26">
      <g>
       <use style="stroke:#000000;stroke-width:0.8;" x="63.336875" xlink:href="#mafb5fa7558" y="89.810906"/>
      </g>
     </g>
     <g id="text_14">
      <!-- 0.04 -->
      <g transform="translate(31.836875 94.671531)scale(0.14 -0.14)">
       <use xlink:href="#TimesNewRomanPSMT-30"/>
       <use x="50" xlink:href="#TimesNewRomanPSMT-2e"/>
       <use x="75" xlink:href="#TimesNewRomanPSMT-30"/>
       <use x="125" xlink:href="#TimesNewRomanPSMT-34"/>
      </g>
     </g>
    </g>
    <g id="ytick_8">
     <g id="line2d_27">
      <path clip-path="url(#pb7aca230c4)" d="M 63.336875 50.935766 
L 398.136875 50.935766 
" style="fill:none;stroke:#000000;stroke-dasharray:0.5,0.825;stroke-dashoffset:0;stroke-width:0.5;"/>
     </g>
     <g id="line2d_28">
      <g>
       <use style="stroke:#000000;stroke-width:0.8;" x="63.336875" xlink:href="#mafb5fa7558" y="50.935766"/>
      </g>
     </g>
     <g id="text_15">
      <!-- 0.06 -->
      <g transform="translate(31.836875 55.796391)scale(0.14 -0.14)">
       <use xlink:href="#TimesNewRomanPSMT-30"/>
       <use x="50" xlink:href="#TimesNewRomanPSMT-2e"/>
       <use x="75" xlink:href="#TimesNewRomanPSMT-30"/>
       <use x="125" xlink:href="#TimesNewRomanPSMT-36"/>
      </g>
     </g>
    </g>
    <g id="ytick_9">
     <g id="line2d_29">
      <path clip-path="url(#pb7aca230c4)" d="M 63.336875 12.060625 
L 398.136875 12.060625 
" style="fill:none;stroke:#000000;stroke-dasharray:0.5,0.825;stroke-dashoffset:0;stroke-width:0.5;"/>
     </g>
     <g id="line2d_30">
      <g>
       <use style="stroke:#000000;stroke-width:0.8;" x="63.336875" xlink:href="#mafb5fa7558" y="12.060625"/>
      </g>
     </g>
     <g id="text_16">
      <!-- 0.08 -->
      <g transform="translate(31.836875 16.92125)scale(0.14 -0.14)">
       <use xlink:href="#TimesNewRomanPSMT-30"/>
       <use x="50" xlink:href="#TimesNewRomanPSMT-2e"/>
       <use x="75" xlink:href="#TimesNewRomanPSMT-30"/>
       <use x="125" xlink:href="#TimesNewRomanPSMT-38"/>
      </g>
     </g>
    </g>
    <g id="text_17">
     <!-- Volatage (V) -->
     <g transform="translate(16.92125 212.210703)rotate(-90)scale(0.14 -0.14)">
      <defs>
       <path d="M 4544 4238 
L 4544 4122 
Q 4319 4081 4203 3978 
Q 4038 3825 3909 3509 
L 2431 -97 
L 2316 -97 
L 728 3556 
Q 606 3838 556 3900 
Q 478 3997 364 4051 
Q 250 4106 56 4122 
L 56 4238 
L 1788 4238 
L 1788 4122 
Q 1494 4094 1406 4022 
Q 1319 3950 1319 3838 
Q 1319 3681 1463 3350 
L 2541 866 
L 3541 3319 
Q 3688 3681 3688 3822 
Q 3688 3913 3597 3995 
Q 3506 4078 3291 4113 
Q 3275 4116 3238 4122 
L 3238 4238 
L 4544 4238 
z
" id="TimesNewRomanPSMT-56" transform="scale(0.015625)"/>
       <path d="M 1600 2947 
Q 2250 2947 2644 2453 
Q 2978 2031 2978 1484 
Q 2978 1100 2793 706 
Q 2609 313 2286 112 
Q 1963 -88 1566 -88 
Q 919 -88 538 428 
Q 216 863 216 1403 
Q 216 1797 411 2186 
Q 606 2575 925 2761 
Q 1244 2947 1600 2947 
z
M 1503 2744 
Q 1338 2744 1170 2645 
Q 1003 2547 900 2300 
Q 797 2053 797 1666 
Q 797 1041 1045 587 
Q 1294 134 1700 134 
Q 2003 134 2200 384 
Q 2397 634 2397 1244 
Q 2397 2006 2069 2444 
Q 1847 2744 1503 2744 
z
" id="TimesNewRomanPSMT-6f" transform="scale(0.015625)"/>
       <path d="M 1184 4444 
L 1184 647 
Q 1184 378 1223 290 
Q 1263 203 1344 158 
Q 1425 113 1647 113 
L 1647 0 
L 244 0 
L 244 113 
Q 441 113 512 153 
Q 584 194 625 287 
Q 666 381 666 647 
L 666 3247 
Q 666 3731 644 3842 
Q 622 3953 573 3993 
Q 525 4034 450 4034 
Q 369 4034 244 3984 
L 191 4094 
L 1044 4444 
L 1184 4444 
z
" id="TimesNewRomanPSMT-6c" transform="scale(0.015625)"/>
       <path d="M 1822 413 
Q 1381 72 1269 19 
Q 1100 -59 909 -59 
Q 613 -59 420 144 
Q 228 347 228 678 
Q 228 888 322 1041 
Q 450 1253 767 1440 
Q 1084 1628 1822 1897 
L 1822 2009 
Q 1822 2438 1686 2597 
Q 1550 2756 1291 2756 
Q 1094 2756 978 2650 
Q 859 2544 859 2406 
L 866 2225 
Q 866 2081 792 2003 
Q 719 1925 600 1925 
Q 484 1925 411 2006 
Q 338 2088 338 2228 
Q 338 2497 613 2722 
Q 888 2947 1384 2947 
Q 1766 2947 2009 2819 
Q 2194 2722 2281 2516 
Q 2338 2381 2338 1966 
L 2338 994 
Q 2338 584 2353 492 
Q 2369 400 2405 369 
Q 2441 338 2488 338 
Q 2538 338 2575 359 
Q 2641 400 2828 588 
L 2828 413 
Q 2478 -56 2159 -56 
Q 2006 -56 1915 50 
Q 1825 156 1822 413 
z
M 1822 616 
L 1822 1706 
Q 1350 1519 1213 1441 
Q 966 1303 859 1153 
Q 753 1003 753 825 
Q 753 600 887 451 
Q 1022 303 1197 303 
Q 1434 303 1822 616 
z
" id="TimesNewRomanPSMT-61" transform="scale(0.015625)"/>
       <path d="M 1031 3803 
L 1031 2863 
L 1700 2863 
L 1700 2644 
L 1031 2644 
L 1031 788 
Q 1031 509 1111 412 
Q 1191 316 1316 316 
Q 1419 316 1516 380 
Q 1613 444 1666 569 
L 1788 569 
Q 1678 263 1478 108 
Q 1278 -47 1066 -47 
Q 922 -47 784 33 
Q 647 113 581 261 
Q 516 409 516 719 
L 516 2644 
L 63 2644 
L 63 2747 
Q 234 2816 414 2980 
Q 594 3144 734 3369 
Q 806 3488 934 3803 
L 1031 3803 
z
" id="TimesNewRomanPSMT-74" transform="scale(0.015625)"/>
       <path d="M 966 1044 
Q 703 1172 562 1401 
Q 422 1631 422 1909 
Q 422 2334 742 2640 
Q 1063 2947 1563 2947 
Q 1972 2947 2272 2747 
L 2878 2747 
Q 3013 2747 3034 2739 
Q 3056 2731 3066 2713 
Q 3084 2684 3084 2613 
Q 3084 2531 3069 2500 
Q 3059 2484 3036 2475 
Q 3013 2466 2878 2466 
L 2506 2466 
Q 2681 2241 2681 1891 
Q 2681 1491 2375 1206 
Q 2069 922 1553 922 
Q 1341 922 1119 984 
Q 981 866 932 777 
Q 884 688 884 625 
Q 884 572 936 522 
Q 988 472 1138 450 
Q 1225 438 1575 428 
Q 2219 413 2409 384 
Q 2700 344 2873 169 
Q 3047 -6 3047 -263 
Q 3047 -616 2716 -925 
Q 2228 -1381 1444 -1381 
Q 841 -1381 425 -1109 
Q 191 -953 191 -784 
Q 191 -709 225 -634 
Q 278 -519 444 -313 
Q 466 -284 763 25 
Q 600 122 533 198 
Q 466 275 466 372 
Q 466 481 555 628 
Q 644 775 966 1044 
z
M 1509 2797 
Q 1278 2797 1122 2612 
Q 966 2428 966 2047 
Q 966 1553 1178 1281 
Q 1341 1075 1591 1075 
Q 1828 1075 1981 1253 
Q 2134 1431 2134 1813 
Q 2134 2309 1919 2591 
Q 1759 2797 1509 2797 
z
M 934 0 
Q 788 -159 713 -296 
Q 638 -434 638 -550 
Q 638 -700 819 -813 
Q 1131 -1006 1722 -1006 
Q 2284 -1006 2551 -807 
Q 2819 -609 2819 -384 
Q 2819 -222 2659 -153 
Q 2497 -84 2016 -72 
Q 1313 -53 934 0 
z
" id="TimesNewRomanPSMT-67" transform="scale(0.015625)"/>
      </defs>
      <use xlink:href="#TimesNewRomanPSMT-56"/>
      <use x="59.341797" xlink:href="#TimesNewRomanPSMT-6f"/>
      <use x="109.341797" xlink:href="#TimesNewRomanPSMT-6c"/>
      <use x="137.125" xlink:href="#TimesNewRomanPSMT-61"/>
      <use x="181.509766" xlink:href="#TimesNewRomanPSMT-74"/>
      <use x="209.292969" xlink:href="#TimesNewRomanPSMT-61"/>
      <use x="253.677734" xlink:href="#TimesNewRomanPSMT-67"/>
      <use x="303.677734" xlink:href="#TimesNewRomanPSMT-65"/>
      <use x="348.0625" xlink:href="#TimesNewRomanPSMT-20"/>
      <use x="373.0625" xlink:href="#TimesNewRomanPSMT-28"/>
      <use x="406.363281" xlink:href="#TimesNewRomanPSMT-56"/>
      <use x="478.580078" xlink:href="#TimesNewRomanPSMT-29"/>
     </g>
    </g>
   </g>
   <g id="LineCollection_1">
    <path clip-path="url(#pb7aca230c4)" d="M 78.555057 167.561187 
L 382.918693 167.561187 
" style="fill:none;stroke:#1f77b4;stroke-width:1.5;"/>
   </g>
   <g id="line2d_31">
    <path clip-path="url(#pb7aca230c4)" d="M 78.555057 167.58286 
L 99.61702 167.509969 
L 99.769202 167.461376 
L 99.921384 167.509969 
L 100.04313 167.485672 
L 115.383057 167.58286 
L 115.565675 167.607157 
L 116.78313 167.704345 
L 116.935311 167.704345 
L 117.909275 167.801533 
L 118.091893 167.82583 
L 118.244075 167.82583 
L 118.45713 167.874424 
L 118.609311 167.874424 
L 118.731057 167.898721 
L 119.644148 167.995909 
L 119.857202 168.044503 
L 120.03982 168.020206 
L 120.252875 168.0688 
L 120.405057 168.0688 
L 121.622511 168.165987 
L 121.835566 168.214581 
L 122.779093 168.311769 
L 122.961711 168.336066 
L 126.522766 168.433254 
L 126.674948 168.481848 
L 127.253239 168.579036 
L 127.588039 168.724818 
L 127.922839 168.822005 
L 128.227202 168.94349 
L 128.470693 169.040678 
L 130.41862 170.717169 
L 130.662111 171.033029 
L 130.905602 171.34889 
L 131.209966 171.834829 
L 131.301275 172.004908 
L 131.84913 173.049677 
L 132.51873 174.313119 
L 133.18833 175.673749 
L 133.279639 175.843828 
L 135.318875 180.970487 
L 135.77542 182.355414 
L 136.627639 184.663625 
L 137.236366 186.242928 
L 137.510293 186.874648 
L 139.397348 191.150914 
L 139.519093 191.369587 
L 140.280002 192.414356 
L 140.401748 192.511544 
L 141.22353 193.046077 
L 142.288802 192.94889 
L 142.714911 192.730217 
L 142.836657 192.633029 
L 143.56713 191.928417 
L 143.871493 191.418181 
L 143.932366 191.320993 
L 144.419348 190.349115 
L 145.058511 188.575436 
L 145.758548 186.21863 
L 146.275966 184.201983 
L 146.762948 182.06385 
L 147.219493 179.852827 
L 150.232693 159.90502 
L 151.480584 149.918969 
L 153.002402 136.895794 
L 157.598293 97.48612 
L 158.602693 90.367108 
L 159.485348 84.803108 
L 160.276693 80.478248 
L 160.733239 78.218633 
L 161.98113 73.675099 
L 162.255057 73.043374 
L 162.742039 72.14439 
L 163.107275 71.731338 
L 163.259457 71.634156 
L 163.411639 71.634156 
L 163.716002 71.707045 
L 163.959493 71.901424 
L 164.23342 72.24158 
L 164.689966 73.140564 
L 165.298693 75.13292 
L 165.481311 75.788931 
L 167.155311 85.750687 
L 168.494511 98.433708 
L 169.894584 115.320093 
L 171.26422 135.413681 
L 173.36433 170.692872 
L 177.016693 236.780609 
L 178.538511 262.729763 
L 180.63862 292.979492 
L 182.160439 309.914475 
L 182.921348 316.183089 
L 184.07793 322.889049 
L 184.595348 324.881396 
L 184.899711 325.853277 
L 185.204075 326.679365 
L 185.812802 327.456882 
L 186.147602 327.554058 
L 186.299784 327.554058 
L 186.482402 327.456882 
L 186.725893 327.141012 
L 187.699857 324.565541 
L 188.308584 321.698502 
L 189.191239 316.207374 
L 190.195639 307.36329 
L 191.839202 287.755639 
L 193.604511 260.810303 
L 195.765493 222.736966 
L 197.926475 180.192984 
L 201.274475 118.138541 
L 204.287675 71.779934 
L 207.118257 41.31154 
L 208.153093 33.925269 
L 209.005311 29.770493 
L 210.222766 26.247429 
L 210.283639 26.150239 
L 210.52713 25.834385 
L 210.77062 25.494227 
L 211.288039 25.20266 
L 211.622839 25.29985 
L 211.86633 25.494227 
L 211.957639 25.567116 
L 212.77942 27.02493 
L 214.45342 34.119647 
L 215.305639 39.464969 
L 218.56233 69.034377 
L 220.875493 96.125489 
L 222.792984 120.641126 
L 227.419311 174.750464 
L 228.484584 184.663625 
L 230.584693 200.602431 
L 232.441311 210.394111 
L 232.928293 212.775213 
L 233.87182 216.759913 
L 234.054439 217.464527 
L 234.845784 220.185785 
L 236.002366 223.563063 
L 236.093675 223.757438 
L 236.945893 225.531117 
L 237.706802 226.551589 
L 238.22422 227.061827 
L 238.437275 227.304797 
L 239.837348 228.300971 
L 240.628693 228.203781 
L 240.780875 228.203781 
L 241.176548 228.106595 
L 243.00273 226.527292 
L 243.215784 226.332917 
L 243.307093 226.30862 
L 243.67233 226.138541 
L 243.824511 226.041351 
L 245.34633 224.70502 
L 245.985493 223.49017 
L 246.533348 222.445401 
L 246.837711 221.765086 
L 248.511711 217.48882 
L 249.02913 216.201085 
L 249.242184 215.66655 
L 250.216148 212.896696 
L 250.36833 212.459351 
L 250.70313 211.390284 
L 251.220548 209.76239 
L 255.329457 196.277573 
L 255.846875 194.285223 
L 256.029493 193.580611 
L 258.038293 185.999957 
L 258.677457 183.618856 
L 259.347057 180.94619 
L 262.512439 168.724818 
L 262.816802 167.728642 
L 264.916911 161.387135 
L 265.647384 159.394783 
L 265.921311 158.714469 
L 267.047457 156.284773 
L 268.44753 154.219531 
L 268.538839 154.122343 
L 269.147566 153.514918 
L 269.421493 153.247652 
L 269.482366 153.174762 
L 269.725857 152.980385 
L 269.847602 152.907495 
L 269.999784 152.761713 
L 270.091093 152.761713 
L 270.304148 152.615932 
L 271.491166 152.71312 
L 272.312948 153.490622 
L 272.526002 153.757889 
L 272.617311 153.855076 
L 273.621711 155.264301 
L 273.834766 155.531567 
L 274.078257 155.847427 
L 277.639311 161.727292 
L 278.308911 163.063625 
L 281.778657 168.408957 
L 281.869966 168.506145 
L 282.570002 169.453726 
L 282.661311 169.550914 
L 283.026548 169.939666 
L 284.730984 171.178811 
L 284.883166 171.251702 
L 285.065784 171.34889 
L 285.52233 171.446077 
L 285.674511 171.446077 
L 286.374548 171.34889 
L 286.86153 171.081623 
L 287.013711 171.008732 
L 287.226766 170.86295 
L 287.318075 170.814356 
L 287.470257 170.619981 
L 287.500693 170.644278 
L 287.86593 170.255526 
L 288.292039 169.793884 
L 290.78782 165.614806 
L 291.79222 163.476674 
L 291.913966 163.282298 
L 292.248766 162.553389 
L 292.522693 161.921668 
L 292.979239 160.828305 
L 293.22273 160.245177 
L 293.983639 158.155639 
L 294.835857 155.798834 
L 295.353275 154.316718 
L 295.779384 153.053277 
L 298.731711 143.966212 
L 298.91433 143.480273 
L 300.070911 140.151589 
L 300.25353 139.689947 
L 301.075311 137.430329 
L 303.084111 132.8625 
L 303.205857 132.643828 
L 303.662402 131.817731 
L 303.875457 131.526165 
L 304.149384 131.113117 
L 304.301566 130.870147 
L 304.666802 130.262723 
L 304.818984 130.019754 
L 305.732075 128.732015 
L 305.792948 128.683425 
L 306.127748 128.14889 
L 306.27993 127.905918 
L 306.766911 127.322793 
L 307.101711 126.934041 
L 307.28433 126.666775 
L 307.436511 126.448102 
L 307.680002 126.107945 
L 309.110511 125.087474 
L 309.262693 125.087474 
L 309.506184 124.990284 
L 309.62793 124.990284 
L 309.749675 124.965987 
L 309.993166 124.893095 
L 310.845384 124.990284 
L 311.058439 125.03888 
L 311.54542 125.136064 
L 311.667166 125.208957 
L 311.697602 125.18466 
L 312.336766 125.597708 
L 312.367202 125.573411 
L 312.397639 125.646302 
L 313.128111 126.350916 
L 314.406439 128.586235 
L 316.263057 133.299846 
L 318.66753 143.310194 
L 319.824111 149.165763 
L 320.098039 150.672175 
L 321.528548 159.249002 
L 322.776439 167.412782 
L 325.759202 187.141916 
L 326.550548 192.633029 
L 327.007093 195.767337 
L 327.494075 199.071726 
L 328.650657 206.579484 
L 329.62462 212.629429 
L 331.05513 221.060476 
L 333.124802 230.4634 
L 334.159639 234.132244 
L 334.707493 235.905918 
L 335.224911 237.412334 
L 335.681457 238.505697 
L 336.07713 239.307493 
L 336.351057 239.866321 
L 336.41193 239.963511 
L 336.564111 240.206484 
L 337.477202 241.469926 
L 339.120766 242.660474 
L 339.242511 242.684775 
L 339.851239 242.587585 
L 340.825202 241.712894 
L 341.09913 241.324143 
L 341.890475 239.866321 
L 343.01662 236.902093 
L 345.238475 227.620656 
L 345.908075 224.049002 
L 348.190802 210.685671 
L 349.651748 200.675324 
L 350.290911 195.98601 
L 351.112693 190.033254 
L 351.660548 185.829879 
L 352.664948 177.836179 
L 353.39542 171.859126 
L 354.125893 165.809182 
L 358.539166 131.453277 
L 360.547966 117.798385 
L 361.582802 111.40828 
L 362.282839 107.156316 
L 364.291639 96.514248 
L 366.391748 88.544838 
L 368.157057 84.584435 
L 368.400548 84.268573 
L 368.917966 83.612555 
L 369.039711 83.515365 
L 369.55713 83.223805 
L 369.983239 83.126615 
L 370.13542 83.126615 
L 370.257166 83.126615 
L 370.378911 83.126615 
L 370.683275 83.248106 
L 370.89633 83.320993 
L 371.048511 83.442478 
L 371.80942 84.14709 
L 372.14422 84.681625 
L 372.752948 85.847877 
L 373.422548 87.621554 
L 373.81822 88.8364 
L 374.761748 92.213681 
L 375.91833 97.243155 
L 378.322802 111.286797 
L 379.418511 118.988935 
L 382.918693 146.323018 
L 382.918693 146.323018 
" style="fill:none;stroke:#0000ff;stroke-linecap:square;stroke-width:1.5;"/>
   </g>
   <g id="line2d_32">
    <path clip-path="url(#pb7aca230c4)" d="M 78.555057 167.614835 
L 78.85942 167.602687 
L 102.021493 167.712023 
L 103.786802 168.513823 
L 104.273784 168.926871 
L 104.852075 169.522147 
L 106.891311 172.972315 
L 112.308984 185.691776 
L 112.522039 186.116973 
L 113.252511 187.33182 
L 113.496002 187.659829 
L 114.165602 188.522371 
L 115.01782 189.081202 
L 115.35262 189.190538 
L 115.900475 189.299875 
L 116.417893 189.02046 
L 116.630948 188.826085 
L 117.36142 188.109323 
L 118.426693 186.202012 
L 120.070257 181.986489 
L 120.70942 179.89695 
L 122.657348 171.684576 
L 124.05742 164.444082 
L 129.688148 135.773665 
L 133.09702 123.941044 
L 134.710148 119.749818 
L 135.166693 118.595713 
L 135.744984 117.295827 
L 136.53633 115.838009 
L 137.11462 114.732495 
L 138.423384 113.33542 
L 138.910366 113.444756 
L 139.153857 113.63913 
L 140.12782 114.55027 
L 140.79742 115.65578 
L 141.162657 116.263204 
L 141.55833 117.101451 
L 142.836657 120.988961 
L 144.388911 128.290201 
L 147.097748 145.140145 
L 148.436948 156.13452 
L 150.050075 170.579065 
L 155.011202 217.034856 
L 156.776511 230.2767 
L 158.63313 240.724398 
L 159.820148 245.462302 
L 160.672366 247.819108 
L 161.463711 249.167589 
L 161.707202 249.374119 
L 162.437675 249.823607 
L 162.924657 249.532046 
L 163.746439 248.390088 
L 164.202984 247.260279 
L 165.390002 243.117647 
L 166.33353 238.476925 
L 167.490111 231.406509 
L 169.529348 216.828333 
L 171.142475 203.756567 
L 173.668693 181.65848 
L 176.590584 155.842957 
L 179.177675 136.05308 
L 182.099566 116.979965 
L 183.499639 110.808536 
L 184.808402 106.495827 
L 185.964984 104.005386 
L 186.543275 103.094252 
L 186.908511 102.69335 
L 187.943348 102.389638 
L 188.308584 102.620461 
L 188.643384 103.045656 
L 188.856439 103.349368 
L 189.495602 104.576367 
L 190.43913 107.1154 
L 191.382657 110.043182 
L 192.69142 116.263204 
L 194.578475 128.982664 
L 196.769893 148.262304 
L 198.80913 168.866129 
L 200.72662 186.93092 
L 203.344148 207.95994 
L 204.470293 214.435085 
L 205.626875 219.853305 
L 206.631275 223.765116 
L 207.08782 224.882779 
L 208.000911 226.170518 
L 208.153093 226.182664 
L 208.822693 226.012585 
L 208.944439 225.976142 
L 209.400984 225.490201 
L 210.19233 223.667927 
L 210.77062 222.027885 
L 211.896766 217.581537 
L 212.77942 213.232385 
L 214.54473 202.007186 
L 217.253566 181.743519 
L 218.89713 168.440932 
L 222.671239 139.199537 
L 223.82782 131.266577 
L 226.049675 118.62001 
L 228.27153 108.476024 
L 230.94993 100.263656 
L 231.741275 98.927319 
L 232.136948 98.623607 
L 232.53262 98.575013 
L 232.897857 98.660051 
L 233.29353 98.963763 
L 233.567457 99.303926 
L 234.419675 101.235531 
L 235.54582 105.195939 
L 237.31113 114.173665 
L 239.441675 128.484576 
L 242.454875 153.413261 
L 244.25062 170.153868 
L 247.294257 199.443857 
L 249.69873 219.610334 
L 251.311857 231.029908 
L 252.681493 239.060055 
L 254.112002 245.377263 
L 254.96422 248.32935 
L 255.63382 250.103024 
L 256.212111 251.20854 
L 256.881711 252.083223 
L 257.855675 252.739241 
L 258.73833 252.629908 
L 259.07313 252.386943 
L 259.468802 251.937447 
L 260.07753 251.050604 
L 261.842839 246.555666 
L 263.121166 241.550493 
L 264.947348 233.034408 
L 265.921311 227.859155 
L 281.778657 127.306174 
L 284.000511 114.659607 
L 286.86153 101.466354 
L 288.261602 97.323722 
L 290.026911 94.711798 
L 290.361711 94.480975 
L 290.574766 94.383785 
L 291.092184 94.286603 
L 292.066148 94.784687 
L 293.314039 96.43688 
L 295.079348 100.190761 
L 296.23593 103.75027 
L 297.057711 107.103249 
L 299.005639 116.955666 
L 300.740511 127.998637 
L 302.901493 143.41506 
L 304.484184 153.996387 
L 309.749675 184.853531 
L 311.910657 196.321697 
L 313.797711 204.121022 
L 315.015166 207.644082 
L 316.750039 211.531598 
L 317.023966 212.029683 
L 317.602257 212.940819 
L 318.728402 214.119222 
L 319.67193 214.738797 
L 320.67633 215.030358 
L 320.980693 214.933172 
L 321.25462 214.848133 
L 321.650293 214.799537 
L 322.045966 214.690201 
L 322.776439 214.301451 
L 323.01993 214.143519 
L 323.141675 214.082779 
L 324.237384 213.09875 
L 324.541748 212.734293 
L 325.180911 211.811011 
L 325.911384 210.316745 
L 326.154875 209.855103 
L 327.220148 207.571191 
L 327.554948 206.830133 
L 328.072366 205.566691 
L 331.359493 196.05443 
L 332.546511 192.203362 
L 334.098766 186.882327 
L 334.798802 184.53767 
L 338.846839 170.408986 
L 339.638184 167.882102 
L 340.399093 165.549594 
L 343.503602 158.394138 
L 344.386257 157.17929 
L 345.329784 156.547569 
L 345.847202 156.450381 
L 346.02982 156.426084 
L 347.825566 156.523271 
L 348.12993 156.632608 
L 348.342984 156.741944 
L 348.70822 156.997062 
L 349.195202 157.410111 
L 349.743057 157.98109 
L 350.899639 159.536095 
L 352.664948 163.302124 
L 353.760657 166.205611 
L 354.978111 169.923047 
L 355.73902 172.510673 
L 358.204366 180.030584 
L 358.873966 181.90145 
L 359.360948 183.116298 
L 360.274039 184.719897 
L 360.487093 185.023609 
L 361.400184 185.959042 
L 361.52193 186.056229 
L 362.952439 187.064554 
L 363.256802 187.17389 
L 363.652475 187.222485 
L 364.10902 187.113149 
L 365.296039 186.542169 
L 365.509093 186.384238 
L 365.78302 186.177714 
L 367.000475 184.561967 
L 368.21793 181.889301 
L 369.13102 179.423159 
L 370.013675 176.252405 
L 371.048511 171.672428 
L 375.431348 150.169616 
L 376.070511 146.998862 
L 379.966366 128.836882 
L 380.392475 127.111798 
L 382.736075 119.093798 
L 382.918693 118.583566 
L 382.918693 118.583566 
" style="fill:none;stroke:#ff0000;stroke-linecap:square;stroke-width:1.5;"/>
   </g>
   <g id="line2d_33">
    <path clip-path="url(#pb7aca230c4)" d="M 133.127457 175.576561 
" style="fill:none;stroke:#ffffff;stroke-linecap:square;stroke-width:1.5;"/>
    <defs>
     <path d="M 0 -5 
L -1.12257 -1.545085 
L -4.755283 -1.545085 
L -1.816356 0.59017 
L -2.938926 4.045085 
L -0 1.90983 
L 2.938926 4.045085 
L 1.816356 0.59017 
L 4.755283 -1.545085 
L 1.12257 -1.545085 
z
" id="m961d253ff1" style="stroke:#ffffff;stroke-linejoin:bevel;"/>
    </defs>
    <g clip-path="url(#pb7aca230c4)">
     <use style="fill:#0000ff;stroke:#ffffff;stroke-linejoin:bevel;" x="133.127457" xlink:href="#m961d253ff1" y="175.576561"/>
    </g>
   </g>
   <g id="line2d_34">
    <path clip-path="url(#pb7aca230c4)" d="M 106.343457 171.854655 
" style="fill:none;stroke:#ffffff;stroke-linecap:square;stroke-width:1.5;"/>
    <defs>
     <path d="M 0 -5 
L -1.12257 -1.545085 
L -4.755283 -1.545085 
L -1.816356 0.59017 
L -2.938926 4.045085 
L -0 1.90983 
L 2.938926 4.045085 
L 1.816356 0.59017 
L 4.755283 -1.545085 
L 1.12257 -1.545085 
z
" id="ma906b791f1" style="stroke:#ffffff;stroke-linejoin:bevel;"/>
    </defs>
    <g clip-path="url(#pb7aca230c4)">
     <use style="fill:#ff0000;stroke:#ffffff;stroke-linejoin:bevel;" x="106.343457" xlink:href="#ma906b791f1" y="171.854655"/>
    </g>
   </g>
   <g id="patch_3">
    <path d="M 63.336875 342.698359 
L 63.336875 10.058359 
" style="fill:none;stroke:#000000;stroke-linecap:square;stroke-linejoin:miter;stroke-width:0.8;"/>
   </g>
   <g id="patch_4">
    <path d="M 398.136875 342.698359 
L 398.136875 10.058359 
" style="fill:none;stroke:#000000;stroke-linecap:square;stroke-linejoin:miter;stroke-width:0.8;"/>
   </g>
   <g id="patch_5">
    <path d="M 63.336875 342.698359 
L 398.136875 342.698359 
" style="fill:none;stroke:#000000;stroke-linecap:square;stroke-linejoin:miter;stroke-width:0.8;"/>
   </g>
   <g id="patch_6">
    <path d="M 63.336875 10.058359 
L 398.136875 10.058359 
" style="fill:none;stroke:#000000;stroke-linecap:square;stroke-linejoin:miter;stroke-width:0.8;"/>
   </g>
   <g id="text_18">
    <g id="patch_7">
     <path d="M 75.036875 334.101046 
L 166.79375 334.101046 
L 166.79375 296.618671 
L 75.036875 296.618671 
z
" style="fill:#ffffff;stroke:#000000;stroke-linejoin:miter;stroke-width:0.75;"/>
    </g>
    <!-- Auto_00004 -->
    <g transform="translate(80.076875 311.379921)scale(0.14 -0.14)">
     <defs>
      <path d="M 2928 1419 
L 1288 1419 
L 1000 750 
Q 894 503 894 381 
Q 894 284 986 211 
Q 1078 138 1384 116 
L 1384 0 
L 50 0 
L 50 116 
Q 316 163 394 238 
Q 553 388 747 847 
L 2238 4334 
L 2347 4334 
L 3822 809 
Q 4000 384 4145 257 
Q 4291 131 4550 116 
L 4550 0 
L 2878 0 
L 2878 116 
Q 3131 128 3220 200 
Q 3309 272 3309 375 
Q 3309 513 3184 809 
L 2928 1419 
z
M 2841 1650 
L 2122 3363 
L 1384 1650 
L 2841 1650 
z
" id="TimesNewRomanPSMT-41" transform="scale(0.015625)"/>
      <path d="M 2709 2863 
L 2709 1128 
Q 2709 631 2732 520 
Q 2756 409 2807 365 
Q 2859 322 2928 322 
Q 3025 322 3147 375 
L 3191 266 
L 2334 -88 
L 2194 -88 
L 2194 519 
Q 1825 119 1631 15 
Q 1438 -88 1222 -88 
Q 981 -88 804 51 
Q 628 191 559 409 
Q 491 628 491 1028 
L 491 2306 
Q 491 2509 447 2587 
Q 403 2666 317 2708 
Q 231 2750 6 2747 
L 6 2863 
L 1009 2863 
L 1009 947 
Q 1009 547 1148 422 
Q 1288 297 1484 297 
Q 1619 297 1789 381 
Q 1959 466 2194 703 
L 2194 2325 
Q 2194 2569 2105 2655 
Q 2016 2741 1734 2747 
L 1734 2863 
L 2709 2863 
z
" id="TimesNewRomanPSMT-75" transform="scale(0.015625)"/>
      <path d="M 3256 -1381 
L -53 -1381 
L -53 -1119 
L 3256 -1119 
L 3256 -1381 
z
" id="TimesNewRomanPSMT-5f" transform="scale(0.015625)"/>
     </defs>
     <use xlink:href="#TimesNewRomanPSMT-41"/>
     <use x="72.216797" xlink:href="#TimesNewRomanPSMT-75"/>
     <use x="122.216797" xlink:href="#TimesNewRomanPSMT-74"/>
     <use x="150" xlink:href="#TimesNewRomanPSMT-6f"/>
     <use x="200" xlink:href="#TimesNewRomanPSMT-5f"/>
     <use x="250" xlink:href="#TimesNewRomanPSMT-30"/>
     <use x="300" xlink:href="#TimesNewRomanPSMT-30"/>
     <use x="350" xlink:href="#TimesNewRomanPSMT-30"/>
     <use x="400" xlink:href="#TimesNewRomanPSMT-30"/>
     <use x="450" xlink:href="#TimesNewRomanPSMT-34"/>
    </g>
    <!-- Vs: 227.16m/s -->
    <g transform="translate(80.076875 326.066359)scale(0.14 -0.14)">
     <defs>
      <path d="M 903 2950 
Q 1047 2950 1148 2848 
Q 1250 2747 1250 2603 
Q 1250 2459 1148 2357 
Q 1047 2256 903 2256 
Q 759 2256 657 2357 
Q 556 2459 556 2603 
Q 556 2747 657 2848 
Q 759 2950 903 2950 
z
M 897 609 
Q 1044 609 1145 506 
Q 1247 403 1247 259 
Q 1247 116 1144 14 
Q 1041 -88 897 -88 
Q 753 -88 651 14 
Q 550 116 550 259 
Q 550 403 651 506 
Q 753 609 897 609 
z
" id="TimesNewRomanPSMT-3a" transform="scale(0.015625)"/>
      <path d="M 644 4238 
L 2916 4238 
L 2916 4119 
L 1503 -88 
L 1153 -88 
L 2419 3728 
L 1253 3728 
Q 900 3728 750 3644 
Q 488 3500 328 3200 
L 238 3234 
L 644 4238 
z
" id="TimesNewRomanPSMT-37" transform="scale(0.015625)"/>
      <path d="M 1794 4444 
L 259 -88 
L 9 -88 
L 1544 4444 
L 1794 4444 
z
" id="TimesNewRomanPSMT-2f" transform="scale(0.015625)"/>
     </defs>
     <use xlink:href="#TimesNewRomanPSMT-56"/>
     <use x="72.216797" xlink:href="#TimesNewRomanPSMT-73"/>
     <use x="111.132812" xlink:href="#TimesNewRomanPSMT-3a"/>
     <use x="138.916016" xlink:href="#TimesNewRomanPSMT-20"/>
     <use x="163.916016" xlink:href="#TimesNewRomanPSMT-32"/>
     <use x="213.916016" xlink:href="#TimesNewRomanPSMT-32"/>
     <use x="263.916016" xlink:href="#TimesNewRomanPSMT-37"/>
     <use x="313.916016" xlink:href="#TimesNewRomanPSMT-2e"/>
     <use x="338.916016" xlink:href="#TimesNewRomanPSMT-31"/>
     <use x="388.916016" xlink:href="#TimesNewRomanPSMT-36"/>
     <use x="438.916016" xlink:href="#TimesNewRomanPSMT-6d"/>
     <use x="516.699219" xlink:href="#TimesNewRomanPSMT-2f"/>
     <use x="544.482422" xlink:href="#TimesNewRomanPSMT-73"/>
    </g>
   </g>
  </g>
 </g>
 <defs>
  <clipPath id="pb7aca230c4">
   <rect height="332.64" width="334.8" x="63.336875" y="10.058359"/>
  </clipPath>
 </defs>
</svg>
