<?xml version="1.0" encoding="utf-8" standalone="no"?>
<!DOCTYPE svg PUBLIC "-//W3C//DTD SVG 1.1//EN"
  "http://www.w3.org/Graphics/SVG/1.1/DTD/svg11.dtd">
<svg height="383.471875pt" version="1.1" viewBox="0 0 421.086875 383.471875" width="421.086875pt" xmlns="http://www.w3.org/2000/svg" xmlns:xlink="http://www.w3.org/1999/xlink">
 <metadata>
  <rdf:RDF xmlns:cc="http://creativecommons.org/ns#" xmlns:dc="http://purl.org/dc/elements/1.1/" xmlns:rdf="http://www.w3.org/1999/02/22-rdf-syntax-ns#">
   <cc:Work>
    <dc:type rdf:resource="http://purl.org/dc/dcmitype/StillImage"/>
    <dc:date>2021-06-11T14:39:38.529514</dc:date>
    <dc:format>image/svg+xml</dc:format>
    <dc:creator>
     <cc:Agent>
      <dc:title>Matplotlib v3.4.2, https://matplotlib.org/</dc:title>
     </cc:Agent>
    </dc:creator>
   </cc:Work>
  </rdf:RDF>
 </metadata>
 <defs>
  <style type="text/css">*{stroke-linecap:butt;stroke-linejoin:round;}</style>
 </defs>
 <g id="figure_1">
  <g id="patch_1">
   <path d="M 0 383.471875 
L 421.086875 383.471875 
L 421.086875 0 
L 0 0 
z
" style="fill:#ffffff;"/>
  </g>
  <g id="axes_1">
   <g id="patch_2">
    <path d="M 63.336875 339.84 
L 398.136875 339.84 
L 398.136875 7.2 
L 63.336875 7.2 
z
" style="fill:#ffffff;"/>
   </g>
   <g id="matplotlib.axis_1">
    <g id="xtick_1">
     <g id="line2d_1">
      <path clip-path="url(#pbaa6f08797)" d="M 93.773239 339.84 
L 93.773239 7.2 
" style="fill:none;stroke:#000000;stroke-dasharray:0.5,0.825;stroke-dashoffset:0;stroke-width:0.5;"/>
     </g>
     <g id="line2d_2">
      <defs>
       <path d="M 0 0 
L 0 3.5 
" id="m04ec4ea7f8" style="stroke:#000000;stroke-width:0.8;"/>
      </defs>
      <g>
       <use style="stroke:#000000;stroke-width:0.8;" x="93.773239" xlink:href="#m04ec4ea7f8" y="339.84"/>
      </g>
     </g>
     <g id="text_1">
      <!-- 0.000 -->
      <g transform="translate(78.023239 356.56125)scale(0.14 -0.14)">
       <defs>
        <path d="M 231 2094 
Q 231 2819 450 3342 
Q 669 3866 1031 4122 
Q 1313 4325 1613 4325 
Q 2100 4325 2488 3828 
Q 2972 3213 2972 2159 
Q 2972 1422 2759 906 
Q 2547 391 2217 158 
Q 1888 -75 1581 -75 
Q 975 -75 572 641 
Q 231 1244 231 2094 
z
M 844 2016 
Q 844 1141 1059 588 
Q 1238 122 1591 122 
Q 1759 122 1940 273 
Q 2122 425 2216 781 
Q 2359 1319 2359 2297 
Q 2359 3022 2209 3506 
Q 2097 3866 1919 4016 
Q 1791 4119 1609 4119 
Q 1397 4119 1231 3928 
Q 1006 3669 925 3112 
Q 844 2556 844 2016 
z
" id="TimesNewRomanPSMT-30" transform="scale(0.015625)"/>
        <path d="M 800 606 
Q 947 606 1047 504 
Q 1147 403 1147 259 
Q 1147 116 1045 14 
Q 944 -88 800 -88 
Q 656 -88 554 14 
Q 453 116 453 259 
Q 453 406 554 506 
Q 656 606 800 606 
z
" id="TimesNewRomanPSMT-2e" transform="scale(0.015625)"/>
       </defs>
       <use xlink:href="#TimesNewRomanPSMT-30"/>
       <use x="50" xlink:href="#TimesNewRomanPSMT-2e"/>
       <use x="75" xlink:href="#TimesNewRomanPSMT-30"/>
       <use x="125" xlink:href="#TimesNewRomanPSMT-30"/>
       <use x="175" xlink:href="#TimesNewRomanPSMT-30"/>
      </g>
     </g>
    </g>
    <g id="xtick_2">
     <g id="line2d_3">
      <path clip-path="url(#pbaa6f08797)" d="M 154.645966 339.84 
L 154.645966 7.2 
" style="fill:none;stroke:#000000;stroke-dasharray:0.5,0.825;stroke-dashoffset:0;stroke-width:0.5;"/>
     </g>
     <g id="line2d_4">
      <g>
       <use style="stroke:#000000;stroke-width:0.8;" x="154.645966" xlink:href="#m04ec4ea7f8" y="339.84"/>
      </g>
     </g>
     <g id="text_2">
      <!-- 0.001 -->
      <g transform="translate(138.895966 356.56125)scale(0.14 -0.14)">
       <defs>
        <path d="M 750 3822 
L 1781 4325 
L 1884 4325 
L 1884 747 
Q 1884 391 1914 303 
Q 1944 216 2037 169 
Q 2131 122 2419 116 
L 2419 0 
L 825 0 
L 825 116 
Q 1125 122 1212 167 
Q 1300 213 1334 289 
Q 1369 366 1369 747 
L 1369 3034 
Q 1369 3497 1338 3628 
Q 1316 3728 1258 3775 
Q 1200 3822 1119 3822 
Q 1003 3822 797 3725 
L 750 3822 
z
" id="TimesNewRomanPSMT-31" transform="scale(0.015625)"/>
       </defs>
       <use xlink:href="#TimesNewRomanPSMT-30"/>
       <use x="50" xlink:href="#TimesNewRomanPSMT-2e"/>
       <use x="75" xlink:href="#TimesNewRomanPSMT-30"/>
       <use x="125" xlink:href="#TimesNewRomanPSMT-30"/>
       <use x="175" xlink:href="#TimesNewRomanPSMT-31"/>
      </g>
     </g>
    </g>
    <g id="xtick_3">
     <g id="line2d_5">
      <path clip-path="url(#pbaa6f08797)" d="M 215.518693 339.84 
L 215.518693 7.2 
" style="fill:none;stroke:#000000;stroke-dasharray:0.5,0.825;stroke-dashoffset:0;stroke-width:0.5;"/>
     </g>
     <g id="line2d_6">
      <g>
       <use style="stroke:#000000;stroke-width:0.8;" x="215.518693" xlink:href="#m04ec4ea7f8" y="339.84"/>
      </g>
     </g>
     <g id="text_3">
      <!-- 0.002 -->
      <g transform="translate(199.768693 356.56125)scale(0.14 -0.14)">
       <defs>
        <path d="M 2934 816 
L 2638 0 
L 138 0 
L 138 116 
Q 1241 1122 1691 1759 
Q 2141 2397 2141 2925 
Q 2141 3328 1894 3587 
Q 1647 3847 1303 3847 
Q 991 3847 742 3664 
Q 494 3481 375 3128 
L 259 3128 
Q 338 3706 661 4015 
Q 984 4325 1469 4325 
Q 1984 4325 2329 3994 
Q 2675 3663 2675 3213 
Q 2675 2891 2525 2569 
Q 2294 2063 1775 1497 
Q 997 647 803 472 
L 1909 472 
Q 2247 472 2383 497 
Q 2519 522 2628 598 
Q 2738 675 2819 816 
L 2934 816 
z
" id="TimesNewRomanPSMT-32" transform="scale(0.015625)"/>
       </defs>
       <use xlink:href="#TimesNewRomanPSMT-30"/>
       <use x="50" xlink:href="#TimesNewRomanPSMT-2e"/>
       <use x="75" xlink:href="#TimesNewRomanPSMT-30"/>
       <use x="125" xlink:href="#TimesNewRomanPSMT-30"/>
       <use x="175" xlink:href="#TimesNewRomanPSMT-32"/>
      </g>
     </g>
    </g>
    <g id="xtick_4">
     <g id="line2d_7">
      <path clip-path="url(#pbaa6f08797)" d="M 276.39142 339.84 
L 276.39142 7.2 
" style="fill:none;stroke:#000000;stroke-dasharray:0.5,0.825;stroke-dashoffset:0;stroke-width:0.5;"/>
     </g>
     <g id="line2d_8">
      <g>
       <use style="stroke:#000000;stroke-width:0.8;" x="276.39142" xlink:href="#m04ec4ea7f8" y="339.84"/>
      </g>
     </g>
     <g id="text_4">
      <!-- 0.003 -->
      <g transform="translate(260.64142 356.56125)scale(0.14 -0.14)">
       <defs>
        <path d="M 325 3431 
Q 506 3859 782 4092 
Q 1059 4325 1472 4325 
Q 1981 4325 2253 3994 
Q 2459 3747 2459 3466 
Q 2459 3003 1878 2509 
Q 2269 2356 2469 2072 
Q 2669 1788 2669 1403 
Q 2669 853 2319 450 
Q 1863 -75 997 -75 
Q 569 -75 414 31 
Q 259 138 259 259 
Q 259 350 332 419 
Q 406 488 509 488 
Q 588 488 669 463 
Q 722 447 909 348 
Q 1097 250 1169 231 
Q 1284 197 1416 197 
Q 1734 197 1970 444 
Q 2206 691 2206 1028 
Q 2206 1275 2097 1509 
Q 2016 1684 1919 1775 
Q 1784 1900 1550 2001 
Q 1316 2103 1072 2103 
L 972 2103 
L 972 2197 
Q 1219 2228 1467 2375 
Q 1716 2522 1828 2728 
Q 1941 2934 1941 3181 
Q 1941 3503 1739 3701 
Q 1538 3900 1238 3900 
Q 753 3900 428 3381 
L 325 3431 
z
" id="TimesNewRomanPSMT-33" transform="scale(0.015625)"/>
       </defs>
       <use xlink:href="#TimesNewRomanPSMT-30"/>
       <use x="50" xlink:href="#TimesNewRomanPSMT-2e"/>
       <use x="75" xlink:href="#TimesNewRomanPSMT-30"/>
       <use x="125" xlink:href="#TimesNewRomanPSMT-30"/>
       <use x="175" xlink:href="#TimesNewRomanPSMT-33"/>
      </g>
     </g>
    </g>
    <g id="xtick_5">
     <g id="line2d_9">
      <path clip-path="url(#pbaa6f08797)" d="M 337.264148 339.84 
L 337.264148 7.2 
" style="fill:none;stroke:#000000;stroke-dasharray:0.5,0.825;stroke-dashoffset:0;stroke-width:0.5;"/>
     </g>
     <g id="line2d_10">
      <g>
       <use style="stroke:#000000;stroke-width:0.8;" x="337.264148" xlink:href="#m04ec4ea7f8" y="339.84"/>
      </g>
     </g>
     <g id="text_5">
      <!-- 0.004 -->
      <g transform="translate(321.514148 356.56125)scale(0.14 -0.14)">
       <defs>
        <path d="M 2978 1563 
L 2978 1119 
L 2409 1119 
L 2409 0 
L 1894 0 
L 1894 1119 
L 100 1119 
L 100 1519 
L 2066 4325 
L 2409 4325 
L 2409 1563 
L 2978 1563 
z
M 1894 1563 
L 1894 3666 
L 406 1563 
L 1894 1563 
z
" id="TimesNewRomanPSMT-34" transform="scale(0.015625)"/>
       </defs>
       <use xlink:href="#TimesNewRomanPSMT-30"/>
       <use x="50" xlink:href="#TimesNewRomanPSMT-2e"/>
       <use x="75" xlink:href="#TimesNewRomanPSMT-30"/>
       <use x="125" xlink:href="#TimesNewRomanPSMT-30"/>
       <use x="175" xlink:href="#TimesNewRomanPSMT-34"/>
      </g>
     </g>
    </g>
    <g id="xtick_6">
     <g id="line2d_11">
      <path clip-path="url(#pbaa6f08797)" d="M 398.136875 339.84 
L 398.136875 7.2 
" style="fill:none;stroke:#000000;stroke-dasharray:0.5,0.825;stroke-dashoffset:0;stroke-width:0.5;"/>
     </g>
     <g id="line2d_12">
      <g>
       <use style="stroke:#000000;stroke-width:0.8;" x="398.136875" xlink:href="#m04ec4ea7f8" y="339.84"/>
      </g>
     </g>
     <g id="text_6">
      <!-- 0.005 -->
      <g transform="translate(382.386875 356.56125)scale(0.14 -0.14)">
       <defs>
        <path d="M 2778 4238 
L 2534 3706 
L 1259 3706 
L 981 3138 
Q 1809 3016 2294 2522 
Q 2709 2097 2709 1522 
Q 2709 1188 2573 903 
Q 2438 619 2231 419 
Q 2025 219 1772 97 
Q 1413 -75 1034 -75 
Q 653 -75 479 54 
Q 306 184 306 341 
Q 306 428 378 495 
Q 450 563 559 563 
Q 641 563 702 538 
Q 763 513 909 409 
Q 1144 247 1384 247 
Q 1750 247 2026 523 
Q 2303 800 2303 1197 
Q 2303 1581 2056 1914 
Q 1809 2247 1375 2428 
Q 1034 2569 447 2591 
L 1259 4238 
L 2778 4238 
z
" id="TimesNewRomanPSMT-35" transform="scale(0.015625)"/>
       </defs>
       <use xlink:href="#TimesNewRomanPSMT-30"/>
       <use x="50" xlink:href="#TimesNewRomanPSMT-2e"/>
       <use x="75" xlink:href="#TimesNewRomanPSMT-30"/>
       <use x="125" xlink:href="#TimesNewRomanPSMT-30"/>
       <use x="175" xlink:href="#TimesNewRomanPSMT-35"/>
      </g>
     </g>
    </g>
    <g id="text_7">
     <!-- Time (sec) -->
     <g transform="translate(200.858906 373.277188)scale(0.14 -0.14)">
      <defs>
       <path d="M 3703 4238 
L 3750 3244 
L 3631 3244 
Q 3597 3506 3538 3619 
Q 3441 3800 3280 3886 
Q 3119 3972 2856 3972 
L 2259 3972 
L 2259 734 
Q 2259 344 2344 247 
Q 2463 116 2709 116 
L 2856 116 
L 2856 0 
L 1059 0 
L 1059 116 
L 1209 116 
Q 1478 116 1591 278 
Q 1659 378 1659 734 
L 1659 3972 
L 1150 3972 
Q 853 3972 728 3928 
Q 566 3869 450 3700 
Q 334 3531 313 3244 
L 194 3244 
L 244 4238 
L 3703 4238 
z
" id="TimesNewRomanPSMT-54" transform="scale(0.015625)"/>
       <path d="M 928 4444 
Q 1059 4444 1151 4351 
Q 1244 4259 1244 4128 
Q 1244 3997 1151 3903 
Q 1059 3809 928 3809 
Q 797 3809 703 3903 
Q 609 3997 609 4128 
Q 609 4259 701 4351 
Q 794 4444 928 4444 
z
M 1188 2947 
L 1188 647 
Q 1188 378 1227 289 
Q 1266 200 1342 156 
Q 1419 113 1622 113 
L 1622 0 
L 231 0 
L 231 113 
Q 441 113 512 153 
Q 584 194 626 287 
Q 669 381 669 647 
L 669 1750 
Q 669 2216 641 2353 
Q 619 2453 572 2492 
Q 525 2531 444 2531 
Q 356 2531 231 2484 
L 188 2597 
L 1050 2947 
L 1188 2947 
z
" id="TimesNewRomanPSMT-69" transform="scale(0.015625)"/>
       <path d="M 1050 2338 
Q 1363 2650 1419 2697 
Q 1559 2816 1721 2881 
Q 1884 2947 2044 2947 
Q 2313 2947 2506 2790 
Q 2700 2634 2766 2338 
Q 3088 2713 3309 2830 
Q 3531 2947 3766 2947 
Q 3994 2947 4170 2830 
Q 4347 2713 4450 2447 
Q 4519 2266 4519 1878 
L 4519 647 
Q 4519 378 4559 278 
Q 4591 209 4675 161 
Q 4759 113 4950 113 
L 4950 0 
L 3538 0 
L 3538 113 
L 3597 113 
Q 3781 113 3884 184 
Q 3956 234 3988 344 
Q 4000 397 4000 647 
L 4000 1878 
Q 4000 2228 3916 2372 
Q 3794 2572 3525 2572 
Q 3359 2572 3192 2489 
Q 3025 2406 2788 2181 
L 2781 2147 
L 2788 2013 
L 2788 647 
Q 2788 353 2820 281 
Q 2853 209 2943 161 
Q 3034 113 3253 113 
L 3253 0 
L 1806 0 
L 1806 113 
Q 2044 113 2133 169 
Q 2222 225 2256 338 
Q 2272 391 2272 647 
L 2272 1878 
Q 2272 2228 2169 2381 
Q 2031 2581 1784 2581 
Q 1616 2581 1450 2491 
Q 1191 2353 1050 2181 
L 1050 647 
Q 1050 366 1089 281 
Q 1128 197 1204 155 
Q 1281 113 1516 113 
L 1516 0 
L 100 0 
L 100 113 
Q 297 113 375 155 
Q 453 197 493 289 
Q 534 381 534 647 
L 534 1741 
Q 534 2213 506 2350 
Q 484 2453 437 2492 
Q 391 2531 309 2531 
Q 222 2531 100 2484 
L 53 2597 
L 916 2947 
L 1050 2947 
L 1050 2338 
z
" id="TimesNewRomanPSMT-6d" transform="scale(0.015625)"/>
       <path d="M 681 1784 
Q 678 1147 991 784 
Q 1303 422 1725 422 
Q 2006 422 2214 576 
Q 2422 731 2563 1106 
L 2659 1044 
Q 2594 616 2278 264 
Q 1963 -88 1488 -88 
Q 972 -88 605 314 
Q 238 716 238 1394 
Q 238 2128 614 2539 
Q 991 2950 1559 2950 
Q 2041 2950 2350 2633 
Q 2659 2316 2659 1784 
L 681 1784 
z
M 681 1966 
L 2006 1966 
Q 1991 2241 1941 2353 
Q 1863 2528 1708 2628 
Q 1553 2728 1384 2728 
Q 1125 2728 920 2526 
Q 716 2325 681 1966 
z
" id="TimesNewRomanPSMT-65" transform="scale(0.015625)"/>
       <path id="TimesNewRomanPSMT-20" transform="scale(0.015625)"/>
       <path d="M 1988 -1253 
L 1988 -1369 
Q 1516 -1131 1200 -813 
Q 750 -359 506 256 
Q 263 872 263 1534 
Q 263 2503 741 3301 
Q 1219 4100 1988 4444 
L 1988 4313 
Q 1603 4100 1356 3731 
Q 1109 3363 987 2797 
Q 866 2231 866 1616 
Q 866 947 969 400 
Q 1050 -31 1165 -292 
Q 1281 -553 1476 -793 
Q 1672 -1034 1988 -1253 
z
" id="TimesNewRomanPSMT-28" transform="scale(0.015625)"/>
       <path d="M 2050 2947 
L 2050 1972 
L 1947 1972 
Q 1828 2431 1642 2597 
Q 1456 2763 1169 2763 
Q 950 2763 815 2647 
Q 681 2531 681 2391 
Q 681 2216 781 2091 
Q 878 1963 1175 1819 
L 1631 1597 
Q 2266 1288 2266 781 
Q 2266 391 1970 151 
Q 1675 -88 1309 -88 
Q 1047 -88 709 6 
Q 606 38 541 38 
Q 469 38 428 -44 
L 325 -44 
L 325 978 
L 428 978 
Q 516 541 762 319 
Q 1009 97 1316 97 
Q 1531 97 1667 223 
Q 1803 350 1803 528 
Q 1803 744 1651 891 
Q 1500 1038 1047 1263 
Q 594 1488 453 1669 
Q 313 1847 313 2119 
Q 313 2472 555 2709 
Q 797 2947 1181 2947 
Q 1350 2947 1591 2875 
Q 1750 2828 1803 2828 
Q 1853 2828 1881 2850 
Q 1909 2872 1947 2947 
L 2050 2947 
z
" id="TimesNewRomanPSMT-73" transform="scale(0.015625)"/>
       <path d="M 2631 1088 
Q 2516 522 2178 217 
Q 1841 -88 1431 -88 
Q 944 -88 581 321 
Q 219 731 219 1428 
Q 219 2103 620 2525 
Q 1022 2947 1584 2947 
Q 2006 2947 2278 2723 
Q 2550 2500 2550 2259 
Q 2550 2141 2473 2067 
Q 2397 1994 2259 1994 
Q 2075 1994 1981 2113 
Q 1928 2178 1911 2362 
Q 1894 2547 1784 2644 
Q 1675 2738 1481 2738 
Q 1169 2738 978 2506 
Q 725 2200 725 1697 
Q 725 1184 976 792 
Q 1228 400 1656 400 
Q 1963 400 2206 609 
Q 2378 753 2541 1131 
L 2631 1088 
z
" id="TimesNewRomanPSMT-63" transform="scale(0.015625)"/>
       <path d="M 144 4313 
L 144 4444 
Q 619 4209 934 3891 
Q 1381 3434 1625 2820 
Q 1869 2206 1869 1541 
Q 1869 572 1392 -226 
Q 916 -1025 144 -1369 
L 144 -1253 
Q 528 -1038 776 -670 
Q 1025 -303 1145 264 
Q 1266 831 1266 1447 
Q 1266 2113 1163 2663 
Q 1084 3094 967 3353 
Q 850 3613 656 3853 
Q 463 4094 144 4313 
z
" id="TimesNewRomanPSMT-29" transform="scale(0.015625)"/>
      </defs>
      <use xlink:href="#TimesNewRomanPSMT-54"/>
      <use x="57.583984" xlink:href="#TimesNewRomanPSMT-69"/>
      <use x="85.367188" xlink:href="#TimesNewRomanPSMT-6d"/>
      <use x="163.150391" xlink:href="#TimesNewRomanPSMT-65"/>
      <use x="207.535156" xlink:href="#TimesNewRomanPSMT-20"/>
      <use x="232.535156" xlink:href="#TimesNewRomanPSMT-28"/>
      <use x="265.835938" xlink:href="#TimesNewRomanPSMT-73"/>
      <use x="304.751953" xlink:href="#TimesNewRomanPSMT-65"/>
      <use x="349.136719" xlink:href="#TimesNewRomanPSMT-63"/>
      <use x="393.521484" xlink:href="#TimesNewRomanPSMT-29"/>
     </g>
    </g>
   </g>
   <g id="matplotlib.axis_2">
    <g id="ytick_1">
     <g id="line2d_13">
      <path clip-path="url(#pbaa6f08797)" d="M 63.336875 333.650431 
L 398.136875 333.650431 
" style="fill:none;stroke:#000000;stroke-dasharray:0.5,0.825;stroke-dashoffset:0;stroke-width:0.5;"/>
     </g>
     <g id="line2d_14">
      <defs>
       <path d="M 0 0 
L -3.5 0 
" id="m82d551757a" style="stroke:#000000;stroke-width:0.8;"/>
      </defs>
      <g>
       <use style="stroke:#000000;stroke-width:0.8;" x="63.336875" xlink:href="#m82d551757a" y="333.650431"/>
      </g>
     </g>
     <g id="text_8">
      <!-- −0.06 -->
      <g transform="translate(23.942188 338.511056)scale(0.14 -0.14)">
       <defs>
        <path d="M 3484 2000 
L 116 2000 
L 116 2256 
L 3484 2256 
L 3484 2000 
z
" id="TimesNewRomanPSMT-2212" transform="scale(0.015625)"/>
        <path d="M 2869 4325 
L 2869 4209 
Q 2456 4169 2195 4045 
Q 1934 3922 1679 3669 
Q 1425 3416 1258 3105 
Q 1091 2794 978 2366 
Q 1428 2675 1881 2675 
Q 2316 2675 2634 2325 
Q 2953 1975 2953 1425 
Q 2953 894 2631 456 
Q 2244 -75 1606 -75 
Q 1172 -75 869 213 
Q 275 772 275 1663 
Q 275 2231 503 2743 
Q 731 3256 1154 3653 
Q 1578 4050 1965 4187 
Q 2353 4325 2688 4325 
L 2869 4325 
z
M 925 2138 
Q 869 1716 869 1456 
Q 869 1156 980 804 
Q 1091 453 1309 247 
Q 1469 100 1697 100 
Q 1969 100 2183 356 
Q 2397 613 2397 1088 
Q 2397 1622 2184 2012 
Q 1972 2403 1581 2403 
Q 1463 2403 1327 2353 
Q 1191 2303 925 2138 
z
" id="TimesNewRomanPSMT-36" transform="scale(0.015625)"/>
       </defs>
       <use xlink:href="#TimesNewRomanPSMT-2212"/>
       <use x="56.396484" xlink:href="#TimesNewRomanPSMT-30"/>
       <use x="106.396484" xlink:href="#TimesNewRomanPSMT-2e"/>
       <use x="131.396484" xlink:href="#TimesNewRomanPSMT-30"/>
       <use x="181.396484" xlink:href="#TimesNewRomanPSMT-36"/>
      </g>
     </g>
    </g>
    <g id="ytick_2">
     <g id="line2d_15">
      <path clip-path="url(#pbaa6f08797)" d="M 63.336875 273.582644 
L 398.136875 273.582644 
" style="fill:none;stroke:#000000;stroke-dasharray:0.5,0.825;stroke-dashoffset:0;stroke-width:0.5;"/>
     </g>
     <g id="line2d_16">
      <g>
       <use style="stroke:#000000;stroke-width:0.8;" x="63.336875" xlink:href="#m82d551757a" y="273.582644"/>
      </g>
     </g>
     <g id="text_9">
      <!-- −0.04 -->
      <g transform="translate(23.942188 278.443269)scale(0.14 -0.14)">
       <use xlink:href="#TimesNewRomanPSMT-2212"/>
       <use x="56.396484" xlink:href="#TimesNewRomanPSMT-30"/>
       <use x="106.396484" xlink:href="#TimesNewRomanPSMT-2e"/>
       <use x="131.396484" xlink:href="#TimesNewRomanPSMT-30"/>
       <use x="181.396484" xlink:href="#TimesNewRomanPSMT-34"/>
      </g>
     </g>
    </g>
    <g id="ytick_3">
     <g id="line2d_17">
      <path clip-path="url(#pbaa6f08797)" d="M 63.336875 213.514858 
L 398.136875 213.514858 
" style="fill:none;stroke:#000000;stroke-dasharray:0.5,0.825;stroke-dashoffset:0;stroke-width:0.5;"/>
     </g>
     <g id="line2d_18">
      <g>
       <use style="stroke:#000000;stroke-width:0.8;" x="63.336875" xlink:href="#m82d551757a" y="213.514858"/>
      </g>
     </g>
     <g id="text_10">
      <!-- −0.02 -->
      <g transform="translate(23.942188 218.375483)scale(0.14 -0.14)">
       <use xlink:href="#TimesNewRomanPSMT-2212"/>
       <use x="56.396484" xlink:href="#TimesNewRomanPSMT-30"/>
       <use x="106.396484" xlink:href="#TimesNewRomanPSMT-2e"/>
       <use x="131.396484" xlink:href="#TimesNewRomanPSMT-30"/>
       <use x="181.396484" xlink:href="#TimesNewRomanPSMT-32"/>
      </g>
     </g>
    </g>
    <g id="ytick_4">
     <g id="line2d_19">
      <path clip-path="url(#pbaa6f08797)" d="M 63.336875 153.447071 
L 398.136875 153.447071 
" style="fill:none;stroke:#000000;stroke-dasharray:0.5,0.825;stroke-dashoffset:0;stroke-width:0.5;"/>
     </g>
     <g id="line2d_20">
      <g>
       <use style="stroke:#000000;stroke-width:0.8;" x="63.336875" xlink:href="#m82d551757a" y="153.447071"/>
      </g>
     </g>
     <g id="text_11">
      <!-- 0.00 -->
      <g transform="translate(31.836875 158.307696)scale(0.14 -0.14)">
       <use xlink:href="#TimesNewRomanPSMT-30"/>
       <use x="50" xlink:href="#TimesNewRomanPSMT-2e"/>
       <use x="75" xlink:href="#TimesNewRomanPSMT-30"/>
       <use x="125" xlink:href="#TimesNewRomanPSMT-30"/>
      </g>
     </g>
    </g>
    <g id="ytick_5">
     <g id="line2d_21">
      <path clip-path="url(#pbaa6f08797)" d="M 63.336875 93.379285 
L 398.136875 93.379285 
" style="fill:none;stroke:#000000;stroke-dasharray:0.5,0.825;stroke-dashoffset:0;stroke-width:0.5;"/>
     </g>
     <g id="line2d_22">
      <g>
       <use style="stroke:#000000;stroke-width:0.8;" x="63.336875" xlink:href="#m82d551757a" y="93.379285"/>
      </g>
     </g>
     <g id="text_12">
      <!-- 0.02 -->
      <g transform="translate(31.836875 98.23991)scale(0.14 -0.14)">
       <use xlink:href="#TimesNewRomanPSMT-30"/>
       <use x="50" xlink:href="#TimesNewRomanPSMT-2e"/>
       <use x="75" xlink:href="#TimesNewRomanPSMT-30"/>
       <use x="125" xlink:href="#TimesNewRomanPSMT-32"/>
      </g>
     </g>
    </g>
    <g id="ytick_6">
     <g id="line2d_23">
      <path clip-path="url(#pbaa6f08797)" d="M 63.336875 33.311498 
L 398.136875 33.311498 
" style="fill:none;stroke:#000000;stroke-dasharray:0.5,0.825;stroke-dashoffset:0;stroke-width:0.5;"/>
     </g>
     <g id="line2d_24">
      <g>
       <use style="stroke:#000000;stroke-width:0.8;" x="63.336875" xlink:href="#m82d551757a" y="33.311498"/>
      </g>
     </g>
     <g id="text_13">
      <!-- 0.04 -->
      <g transform="translate(31.836875 38.172123)scale(0.14 -0.14)">
       <use xlink:href="#TimesNewRomanPSMT-30"/>
       <use x="50" xlink:href="#TimesNewRomanPSMT-2e"/>
       <use x="75" xlink:href="#TimesNewRomanPSMT-30"/>
       <use x="125" xlink:href="#TimesNewRomanPSMT-34"/>
      </g>
     </g>
    </g>
    <g id="text_14">
     <!-- Volatage (V) -->
     <g transform="translate(16.92125 209.352344)rotate(-90)scale(0.14 -0.14)">
      <defs>
       <path d="M 4544 4238 
L 4544 4122 
Q 4319 4081 4203 3978 
Q 4038 3825 3909 3509 
L 2431 -97 
L 2316 -97 
L 728 3556 
Q 606 3838 556 3900 
Q 478 3997 364 4051 
Q 250 4106 56 4122 
L 56 4238 
L 1788 4238 
L 1788 4122 
Q 1494 4094 1406 4022 
Q 1319 3950 1319 3838 
Q 1319 3681 1463 3350 
L 2541 866 
L 3541 3319 
Q 3688 3681 3688 3822 
Q 3688 3913 3597 3995 
Q 3506 4078 3291 4113 
Q 3275 4116 3238 4122 
L 3238 4238 
L 4544 4238 
z
" id="TimesNewRomanPSMT-56" transform="scale(0.015625)"/>
       <path d="M 1600 2947 
Q 2250 2947 2644 2453 
Q 2978 2031 2978 1484 
Q 2978 1100 2793 706 
Q 2609 313 2286 112 
Q 1963 -88 1566 -88 
Q 919 -88 538 428 
Q 216 863 216 1403 
Q 216 1797 411 2186 
Q 606 2575 925 2761 
Q 1244 2947 1600 2947 
z
M 1503 2744 
Q 1338 2744 1170 2645 
Q 1003 2547 900 2300 
Q 797 2053 797 1666 
Q 797 1041 1045 587 
Q 1294 134 1700 134 
Q 2003 134 2200 384 
Q 2397 634 2397 1244 
Q 2397 2006 2069 2444 
Q 1847 2744 1503 2744 
z
" id="TimesNewRomanPSMT-6f" transform="scale(0.015625)"/>
       <path d="M 1184 4444 
L 1184 647 
Q 1184 378 1223 290 
Q 1263 203 1344 158 
Q 1425 113 1647 113 
L 1647 0 
L 244 0 
L 244 113 
Q 441 113 512 153 
Q 584 194 625 287 
Q 666 381 666 647 
L 666 3247 
Q 666 3731 644 3842 
Q 622 3953 573 3993 
Q 525 4034 450 4034 
Q 369 4034 244 3984 
L 191 4094 
L 1044 4444 
L 1184 4444 
z
" id="TimesNewRomanPSMT-6c" transform="scale(0.015625)"/>
       <path d="M 1822 413 
Q 1381 72 1269 19 
Q 1100 -59 909 -59 
Q 613 -59 420 144 
Q 228 347 228 678 
Q 228 888 322 1041 
Q 450 1253 767 1440 
Q 1084 1628 1822 1897 
L 1822 2009 
Q 1822 2438 1686 2597 
Q 1550 2756 1291 2756 
Q 1094 2756 978 2650 
Q 859 2544 859 2406 
L 866 2225 
Q 866 2081 792 2003 
Q 719 1925 600 1925 
Q 484 1925 411 2006 
Q 338 2088 338 2228 
Q 338 2497 613 2722 
Q 888 2947 1384 2947 
Q 1766 2947 2009 2819 
Q 2194 2722 2281 2516 
Q 2338 2381 2338 1966 
L 2338 994 
Q 2338 584 2353 492 
Q 2369 400 2405 369 
Q 2441 338 2488 338 
Q 2538 338 2575 359 
Q 2641 400 2828 588 
L 2828 413 
Q 2478 -56 2159 -56 
Q 2006 -56 1915 50 
Q 1825 156 1822 413 
z
M 1822 616 
L 1822 1706 
Q 1350 1519 1213 1441 
Q 966 1303 859 1153 
Q 753 1003 753 825 
Q 753 600 887 451 
Q 1022 303 1197 303 
Q 1434 303 1822 616 
z
" id="TimesNewRomanPSMT-61" transform="scale(0.015625)"/>
       <path d="M 1031 3803 
L 1031 2863 
L 1700 2863 
L 1700 2644 
L 1031 2644 
L 1031 788 
Q 1031 509 1111 412 
Q 1191 316 1316 316 
Q 1419 316 1516 380 
Q 1613 444 1666 569 
L 1788 569 
Q 1678 263 1478 108 
Q 1278 -47 1066 -47 
Q 922 -47 784 33 
Q 647 113 581 261 
Q 516 409 516 719 
L 516 2644 
L 63 2644 
L 63 2747 
Q 234 2816 414 2980 
Q 594 3144 734 3369 
Q 806 3488 934 3803 
L 1031 3803 
z
" id="TimesNewRomanPSMT-74" transform="scale(0.015625)"/>
       <path d="M 966 1044 
Q 703 1172 562 1401 
Q 422 1631 422 1909 
Q 422 2334 742 2640 
Q 1063 2947 1563 2947 
Q 1972 2947 2272 2747 
L 2878 2747 
Q 3013 2747 3034 2739 
Q 3056 2731 3066 2713 
Q 3084 2684 3084 2613 
Q 3084 2531 3069 2500 
Q 3059 2484 3036 2475 
Q 3013 2466 2878 2466 
L 2506 2466 
Q 2681 2241 2681 1891 
Q 2681 1491 2375 1206 
Q 2069 922 1553 922 
Q 1341 922 1119 984 
Q 981 866 932 777 
Q 884 688 884 625 
Q 884 572 936 522 
Q 988 472 1138 450 
Q 1225 438 1575 428 
Q 2219 413 2409 384 
Q 2700 344 2873 169 
Q 3047 -6 3047 -263 
Q 3047 -616 2716 -925 
Q 2228 -1381 1444 -1381 
Q 841 -1381 425 -1109 
Q 191 -953 191 -784 
Q 191 -709 225 -634 
Q 278 -519 444 -313 
Q 466 -284 763 25 
Q 600 122 533 198 
Q 466 275 466 372 
Q 466 481 555 628 
Q 644 775 966 1044 
z
M 1509 2797 
Q 1278 2797 1122 2612 
Q 966 2428 966 2047 
Q 966 1553 1178 1281 
Q 1341 1075 1591 1075 
Q 1828 1075 1981 1253 
Q 2134 1431 2134 1813 
Q 2134 2309 1919 2591 
Q 1759 2797 1509 2797 
z
M 934 0 
Q 788 -159 713 -296 
Q 638 -434 638 -550 
Q 638 -700 819 -813 
Q 1131 -1006 1722 -1006 
Q 2284 -1006 2551 -807 
Q 2819 -609 2819 -384 
Q 2819 -222 2659 -153 
Q 2497 -84 2016 -72 
Q 1313 -53 934 0 
z
" id="TimesNewRomanPSMT-67" transform="scale(0.015625)"/>
      </defs>
      <use xlink:href="#TimesNewRomanPSMT-56"/>
      <use x="59.341797" xlink:href="#TimesNewRomanPSMT-6f"/>
      <use x="109.341797" xlink:href="#TimesNewRomanPSMT-6c"/>
      <use x="137.125" xlink:href="#TimesNewRomanPSMT-61"/>
      <use x="181.509766" xlink:href="#TimesNewRomanPSMT-74"/>
      <use x="209.292969" xlink:href="#TimesNewRomanPSMT-61"/>
      <use x="253.677734" xlink:href="#TimesNewRomanPSMT-67"/>
      <use x="303.677734" xlink:href="#TimesNewRomanPSMT-65"/>
      <use x="348.0625" xlink:href="#TimesNewRomanPSMT-20"/>
      <use x="373.0625" xlink:href="#TimesNewRomanPSMT-28"/>
      <use x="406.363281" xlink:href="#TimesNewRomanPSMT-56"/>
      <use x="478.580078" xlink:href="#TimesNewRomanPSMT-29"/>
     </g>
    </g>
   </g>
   <g id="LineCollection_1">
    <path clip-path="url(#pbaa6f08797)" d="M 78.555057 153.447071 
L 382.918693 153.447071 
" style="fill:none;stroke:#1f77b4;stroke-width:1.5;"/>
   </g>
   <g id="line2d_25">
    <path clip-path="url(#pbaa6f08797)" d="M 78.555057 153.414184 
L 78.585493 153.489269 
L 78.676802 153.451726 
L 78.798548 153.489269 
L 78.85942 153.414184 
L 78.889857 153.451726 
L 78.981166 153.451726 
L 79.072475 153.414184 
L 79.102911 153.451726 
L 81.933493 153.451726 
L 81.96393 153.339099 
L 82.055239 153.414184 
L 84.946693 153.489269 
L 85.038002 153.489269 
L 85.129311 153.489269 
L 85.281493 153.526811 
L 85.31193 153.451726 
L 85.372802 153.489269 
L 85.433675 153.414184 
L 85.494548 153.489269 
L 93.134075 153.564354 
L 93.25582 153.564354 
L 100.104002 153.639438 
L 100.225748 153.639438 
L 100.347493 153.601896 
L 100.37793 153.676981 
L 100.438802 153.601896 
L 101.260584 153.676981 
L 101.351893 153.714523 
L 101.412766 153.639438 
L 101.473639 153.676981 
L 105.004257 153.601896 
L 105.126002 153.601896 
L 108.017457 153.676981 
L 108.139202 153.676981 
L 108.291384 153.639438 
L 108.443566 153.714523 
L 108.595748 153.676981 
L 108.717493 153.676981 
L 109.32622 153.752065 
L 109.447966 153.752065 
L 109.569711 153.752065 
L 110.42193 153.789608 
L 110.543675 153.864692 
L 111.456766 153.939777 
L 111.487202 153.97732 
L 111.548075 153.902235 
L 111.943748 153.97732 
L 112.065493 153.97732 
L 112.76553 154.052404 
L 112.887275 154.052404 
L 112.978584 154.014862 
L 113.00902 154.052404 
L 113.313384 154.127489 
L 113.465566 154.165031 
L 113.861239 154.240116 
L 113.982984 154.277658 
L 114.01342 154.240116 
L 114.074293 154.315201 
L 114.622148 154.390286 
L 114.804766 154.46537 
L 115.078693 154.502913 
L 115.230875 154.61554 
L 115.383057 154.577997 
L 115.535239 154.61554 
L 115.626548 154.690625 
L 115.77873 154.728167 
L 116.083093 154.765709 
L 116.11353 154.840794 
L 116.174402 154.803252 
L 116.265711 154.803252 
L 116.387457 154.878336 
L 116.44833 154.840794 
L 116.478766 154.878336 
L 116.600511 154.878336 
L 117.087493 154.953421 
L 117.239675 154.990963 
L 117.330984 154.990963 
L 117.513602 155.066048 
L 118.244075 155.141133 
L 118.426693 155.216218 
L 118.578875 155.178675 
L 118.761493 155.25376 
L 118.913675 155.216218 
L 119.065857 155.291302 
L 119.187602 155.25376 
L 119.278911 155.328845 
L 119.309348 155.291302 
L 119.491966 155.366387 
L 119.826766 155.441472 
L 119.948511 155.516557 
L 119.978948 155.479014 
L 120.222439 155.516557 
L 120.252875 155.591641 
L 120.344184 155.554099 
L 120.46593 155.629184 
L 120.678984 155.741811 
L 120.739857 155.816896 
L 120.770293 155.741811 
L 120.922475 155.89198 
L 121.04422 155.967065 
L 121.318148 156.154777 
L 121.500766 156.229862 
L 122.961711 158.144522 
L 123.174766 158.519946 
L 123.661748 159.496047 
L 123.692184 159.496047 
L 123.996548 160.246895 
L 124.14873 160.584776 
L 124.513966 161.560878 
L 124.635711 161.823674 
L 124.879202 162.574522 
L 124.970511 162.799776 
L 127.74022 173.461808 
L 129.018548 179.243333 
L 129.657711 182.021467 
L 130.479493 185.55045 
L 132.062184 190.994093 
L 132.579602 192.007737 
L 133.401384 192.871211 
L 133.827493 192.833669 
L 133.85793 192.758584 
L 133.949239 192.796127 
L 134.131857 192.721042 
L 134.344911 192.645957 
L 134.649275 192.420703 
L 134.77102 192.345618 
L 135.44062 191.407059 
L 135.714548 190.806381 
L 136.11022 189.567483 
L 136.810257 186.564094 
L 137.632039 182.021467 
L 140.036511 163.400454 
L 140.79742 155.366387 
L 142.288802 137.64639 
L 147.371675 70.145215 
L 150.080511 41.237596 
L 150.810984 35.869031 
L 151.541457 32.03971 
L 152.119748 29.674541 
L 153.215457 27.234284 
L 153.337202 27.196747 
L 153.489384 27.084123 
L 153.702439 27.121663 
L 153.885057 27.309372 
L 154.250293 27.910046 
L 154.828584 29.599456 
L 155.924293 35.49361 
L 156.95913 43.903098 
L 158.602693 63.237419 
L 159.941893 84.448857 
L 160.88542 101.267837 
L 163.381202 152.700879 
L 165.846548 207.9257 
L 169.01193 272.01052 
L 169.803275 284.69984 
L 171.142475 302.982976 
L 172.299057 314.658652 
L 172.816475 318.52551 
L 173.151275 320.515261 
L 173.638257 322.392376 
L 174.216548 324.119322 
L 174.825275 324.72 
L 175.220948 324.644912 
L 175.890548 323.743904 
L 176.194911 322.767797 
L 177.108002 318.976027 
L 178.29502 310.979494 
L 178.842875 306.098995 
L 181.277784 277.904675 
L 183.347457 245.768409 
L 184.504039 225.120104 
L 189.76953 136.032069 
L 191.01742 117.598766 
L 192.204439 101.64326 
L 193.513202 86.814029 
L 194.517602 77.991566 
L 196.526402 61.585555 
L 198.200402 51.937167 
L 200.452693 44.015734 
L 200.939675 43.077162 
L 201.122293 42.701745 
L 201.578839 41.838273 
L 201.913639 41.537928 
L 202.035384 41.613013 
L 202.096257 41.537928 
L 202.15713 41.575477 
L 202.248439 41.613013 
L 202.278875 41.575477 
L 202.552802 41.500389 
L 202.704984 41.387768 
L 202.73542 41.425304 
L 203.222402 41.500389 
L 203.587639 41.800722 
L 203.770257 41.87581 
L 203.983311 41.988443 
L 204.013748 41.950894 
L 204.07462 42.025982 
L 204.196366 42.101067 
L 204.652911 42.77683 
L 204.926839 43.377507 
L 205.474693 44.466236 
L 205.596439 44.729033 
L 206.17473 46.493527 
L 206.266039 46.718772 
L 206.692148 47.882588 
L 206.813893 48.182933 
L 207.240002 49.49691 
L 209.09662 56.780129 
L 209.76622 59.558267 
L 210.131457 61.322759 
L 210.77062 63.950724 
L 211.470657 66.954114 
L 212.079384 69.469452 
L 212.262002 70.182757 
L 214.301239 80.769705 
L 215.762184 90.455638 
L 220.084148 123.267664 
L 222.184257 142.339185 
L 227.297566 200.3046 
L 231.741275 253.764933 
L 233.567457 270.73408 
L 234.906657 279.81933 
L 235.241457 281.4712 
L 235.667566 283.460939 
L 236.154548 284.850013 
L 237.067639 285.901196 
L 237.21982 285.751023 
L 237.341566 285.675936 
L 238.680766 282.109414 
L 240.111275 274.563398 
L 241.146111 266.116375 
L 242.66793 250.010687 
L 244.554984 227.860697 
L 246.59422 198.690278 
L 248.329093 171.434519 
L 249.181311 158.632573 
L 251.220548 130.062833 
L 252.529311 115.27114 
L 253.29022 107.987923 
L 254.477239 98.677413 
L 256.029493 89.704788 
L 256.151239 89.141655 
L 257.094766 86.063178 
L 257.73393 84.749195 
L 258.220911 84.261142 
L 258.251348 84.298687 
L 258.31222 84.223599 
L 259.164439 83.322586 
L 259.347057 83.247498 
L 259.560111 83.097331 
L 259.590548 83.134874 
L 259.620984 83.097331 
L 259.74273 83.022247 
L 259.864475 82.984704 
L 259.98622 82.834538 
L 260.047093 82.87208 
L 260.07753 82.796992 
L 260.290584 82.75945 
L 260.32102 82.684365 
L 260.41233 82.721908 
L 260.716693 82.75945 
L 260.74713 82.834538 
L 260.838439 82.796992 
L 261.294984 82.87208 
L 261.629784 83.134874 
L 261.721093 83.172419 
L 261.934148 83.472755 
L 261.964584 83.435213 
L 262.025457 83.5103 
L 262.268948 83.848182 
L 262.32982 83.92326 
L 262.75593 84.599023 
L 263.151602 85.312331 
L 263.364657 85.687755 
L 263.638584 86.288432 
L 264.399493 87.902751 
L 264.521239 88.165554 
L 264.947348 89.329364 
L 264.977784 89.329364 
L 265.221275 90.005127 
L 265.586511 90.943686 
L 265.951748 92.107502 
L 267.838802 99.4658 
L 268.264911 101.455546 
L 268.417093 102.093766 
L 270.760693 114.182411 
L 274.686984 137.721474 
L 276.300111 145.154863 
L 277.82193 151.199184 
L 278.217602 152.663337 
L 278.461093 153.526811 
L 279.222002 155.929523 
L 279.343748 156.229862 
L 280.956875 159.946556 
L 281.109057 160.284437 
L 281.41342 160.997742 
L 281.474293 161.072827 
L 281.778657 161.560878 
L 283.08742 163.062572 
L 283.117857 163.02503 
L 283.17873 163.100114 
L 283.42222 163.1752 
L 283.543966 163.250284 
L 283.574402 163.1752 
L 283.635275 163.250284 
L 283.817893 163.325369 
L 283.939639 163.325369 
L 284.274439 163.250284 
L 284.487493 163.100114 
L 284.578802 163.100114 
L 284.76142 162.987488 
L 284.85273 162.987488 
L 285.309275 162.574522 
L 285.339711 162.574522 
L 285.552766 162.199098 
L 285.644075 162.124013 
L 286.039748 161.485793 
L 286.496293 160.622318 
L 286.648475 160.284437 
L 288.839893 155.141133 
L 289.083384 154.690625 
L 289.418184 154.127489 
L 289.44862 154.127489 
L 289.661675 153.714523 
L 289.752984 153.639438 
L 290.087784 153.076303 
L 290.422584 152.813506 
L 290.757384 152.775964 
L 290.78782 152.700879 
L 290.87913 152.738421 
L 291.061748 152.663337 
L 291.21393 152.700879 
L 291.366111 152.663337 
L 291.974839 153.526811 
L 292.187893 153.902235 
L 292.583566 154.540455 
L 293.496657 157.055794 
L 295.322839 164.226386 
L 297.422948 175.113672 
L 298.214293 179.318416 
L 299.58393 186.601636 
L 300.344839 190.618669 
L 301.623166 196.475279 
L 301.684039 196.700533 
L 302.566693 200.379685 
L 303.17542 202.857484 
L 304.51462 207.437653 
L 304.697239 207.775534 
L 305.032039 208.601463 
L 305.18422 208.901802 
L 305.488584 209.615107 
L 305.792948 210.103161 
L 306.219057 210.516121 
L 306.249493 210.478578 
L 306.310366 210.553666 
L 306.553857 210.703836 
L 306.584293 210.666293 
L 306.61473 210.778923 
L 306.645166 210.741381 
L 306.797348 210.81646 
L 306.85822 210.778923 
L 306.888657 210.81646 
L 306.979966 210.81646 
L 307.61913 210.140697 
L 307.710439 210.140697 
L 307.86262 209.915446 
L 307.893057 209.952988 
L 307.95393 209.877903 
L 308.501784 209.051971 
L 309.901857 205.335277 
L 310.388839 203.420616 
L 310.449711 203.195359 
L 310.906257 201.09299 
L 311.54542 197.413838 
L 312.54982 190.543585 
L 314.98473 171.772401 
L 315.56302 166.554012 
L 316.171748 161.59842 
L 320.371966 131.339273 
L 321.832911 123.004867 
L 323.35473 114.970801 
L 324.298257 109.789954 
L 324.541748 108.513514 
L 325.150475 105.435036 
L 325.911384 102.206396 
L 327.007093 98.564786 
L 327.098402 98.30199 
L 328.924584 94.02216 
L 328.95502 94.02216 
L 329.137639 93.759366 
L 329.533311 93.421485 
L 329.71593 93.38394 
L 329.837675 93.271313 
L 329.95942 93.271313 
L 330.05073 93.23377 
L 330.081166 93.271313 
L 330.38553 93.308855 
L 330.537711 93.421485 
L 330.568148 93.346397 
L 330.62902 93.459028 
L 330.72033 93.421485 
L 330.872511 93.571652 
L 331.024693 93.684279 
L 331.146439 93.759366 
L 331.420366 93.947075 
L 331.450802 93.909533 
L 331.511675 93.984618 
L 331.602984 94.02216 
L 331.785602 94.247414 
L 331.907348 94.322499 
L 333.246548 96.12453 
L 334.555311 99.615973 
L 335.590148 103.032331 
L 335.833639 103.895802 
L 337.507639 110.465717 
L 337.933748 112.41792 
L 342.529639 135.58156 
L 342.864439 137.233424 
L 345.78633 151.1241 
L 346.212439 153.113845 
L 348.738657 165.08986 
L 348.982148 165.953334 
L 349.316948 167.342402 
L 351.447493 174.813332 
L 352.664948 177.553925 
L 352.999748 178.117061 
L 353.364984 178.755282 
L 354.430257 180.219434 
L 354.673748 180.557315 
L 355.312911 181.495873 
L 355.586839 181.946384 
L 355.647711 181.983924 
L 355.952075 182.471975 
L 356.286875 182.997568 
L 356.49993 183.372993 
L 356.83473 183.93613 
L 357.291275 184.649432 
L 357.686948 185.362738 
L 358.660911 186.714263 
L 358.904402 187.052145 
L 360.42622 188.779093 
L 360.547966 188.816636 
L 360.700148 188.929263 
L 360.913202 189.04189 
L 361.065384 189.116975 
L 361.278439 189.229602 
L 362.10022 189.154517 
L 362.252402 189.079432 
L 362.282839 189.116975 
L 362.343711 189.04189 
L 362.648075 188.966805 
L 362.76982 188.891721 
L 362.891566 188.816636 
L 363.226366 188.516297 
L 363.256802 188.553839 
L 363.287239 188.478754 
L 363.743784 188.065788 
L 363.835093 187.990704 
L 364.626439 187.164772 
L 364.717748 187.089687 
L 365.052548 186.82689 
L 365.11342 186.789348 
L 365.296039 186.601636 
L 365.387348 186.526551 
L 365.752584 186.226212 
L 365.843893 186.151128 
L 366.422184 185.55045 
L 366.45262 185.587992 
L 366.513493 185.512908 
L 366.78742 185.287653 
L 366.87873 185.287653 
L 367.243966 184.987314 
L 367.304839 184.912231 
L 367.79182 184.46172 
L 367.822257 184.499263 
L 367.88313 184.42418 
L 367.974439 184.386637 
L 368.065748 184.311551 
L 368.096184 184.349094 
L 368.370111 184.161382 
L 368.400548 184.198925 
L 368.46142 184.123839 
L 368.917966 183.710874 
L 368.948402 183.748417 
L 369.009275 183.673331 
L 369.22233 183.560705 
L 369.435384 183.485619 
L 369.678875 183.33545 
L 369.739748 183.372993 
L 369.861493 183.18528 
L 369.89193 183.222824 
L 370.044111 183.072654 
L 370.13542 182.997568 
L 370.439784 182.772316 
L 370.56153 182.69723 
L 371.018075 182.284265 
L 371.078948 182.209179 
L 371.47462 181.871298 
L 371.56593 181.796212 
L 371.931166 181.495873 
L 372.052911 181.42079 
L 372.539893 180.97028 
L 372.600766 180.93274 
L 372.752948 180.820111 
L 373.270366 180.29452 
L 373.300802 180.33206 
L 373.361675 180.256977 
L 374.792184 178.379858 
L 375.005239 178.004434 
L 375.82702 176.202401 
L 375.857457 176.239943 
L 375.887893 176.164858 
L 376.070511 175.789435 
L 377.92713 170.946469 
L 378.474984 169.332148 
L 379.022839 167.717825 
L 379.357639 166.554012 
L 379.631566 165.615453 
L 381.579493 157.994353 
L 382.888257 152.062659 
L 382.918693 151.950032 
L 382.918693 151.950032 
" style="fill:none;stroke:#0000ff;stroke-linecap:square;stroke-width:1.5;"/>
   </g>
   <g id="line2d_26">
    <path clip-path="url(#pbaa6f08797)" d="M 78.555057 153.455481 
L 99.890948 153.530565 
L 100.073566 153.60565 
L 100.195311 153.624421 
L 100.530111 153.718277 
L 101.869311 154.656836 
L 103.025893 156.252387 
L 103.786802 157.88548 
L 104.760766 160.569759 
L 105.521675 163.272809 
L 110.026257 182.231704 
L 110.726293 184.409162 
L 111.517639 186.492763 
L 111.943748 187.262382 
L 112.613348 188.294797 
L 113.34382 188.651449 
L 113.617748 188.595136 
L 113.830802 188.50128 
L 114.34822 188.069543 
L 114.713457 187.450094 
L 115.078693 186.549077 
L 116.417893 182.081535 
L 117.300548 177.782934 
L 117.817966 174.685689 
L 120.37462 156.627811 
L 125.366184 114.448962 
L 127.40542 102.510486 
L 129.688148 93.143669 
L 129.992511 92.542991 
L 130.966475 90.966211 
L 131.08822 90.872358 
L 131.818693 90.309217 
L 132.457857 89.314347 
L 132.549166 89.295573 
L 132.731784 89.220494 
L 132.944839 89.239263 
L 133.09702 89.220494 
L 133.52313 89.070322 
L 134.162293 89.164175 
L 135.044948 89.595912 
L 135.318875 89.539601 
L 135.897166 89.99011 
L 136.171093 90.290449 
L 136.658075 90.478158 
L 136.901566 90.57202 
L 137.145057 90.816039 
L 138.54513 93.594177 
L 139.245166 96.597566 
L 141.771384 109.587225 
L 143.749748 123.740697 
L 144.358475 128.658749 
L 146.032475 141.87366 
L 148.650002 165.431496 
L 151.480584 190.603652 
L 153.976366 208.304875 
L 155.19382 213.804835 
L 156.593893 216.995933 
L 157.020002 217.352589 
L 157.263493 217.446445 
L 157.446111 217.540297 
L 157.598293 217.559072 
L 157.811348 217.577843 
L 158.267893 217.183648 
L 158.663566 216.526654 
L 160.124511 213.598352 
L 161.615893 208.64276 
L 163.259457 201.077976 
L 165.937857 183.883569 
L 167.977093 170.743741 
L 169.803275 163.310352 
L 170.898984 160.851327 
L 171.994693 160.288192 
L 172.329493 160.569759 
L 172.633857 161.039038 
L 172.755602 161.226751 
L 173.212148 161.958827 
L 173.668693 163.028784 
L 174.216548 164.661877 
L 175.190511 167.984377 
L 176.803639 176.450181 
L 180.30382 199.44488 
L 181.247348 204.062591 
L 183.012657 212.228056 
L 183.469202 213.504496 
L 183.804002 214.180259 
L 184.230111 214.874789 
L 184.564911 215.26899 
L 184.930148 215.381611 
L 185.873675 214.04886 
L 186.208475 212.941361 
L 186.543275 211.571061 
L 187.578111 205.939706 
L 188.704257 197.567761 
L 189.617348 189.364754 
L 190.621748 178.383613 
L 193.45233 142.117686 
L 195.522002 115.518919 
L 198.413457 84.621551 
L 201.274475 59.186601 
L 202.522366 52.147401 
L 204.196366 46.309569 
L 205.018148 45.427324 
L 205.535566 45.84029 
L 205.870366 46.684987 
L 206.75302 49.76347 
L 208.731384 58.773632 
L 210.222766 67.671173 
L 216.157857 112.421674 
L 217.923166 126.706544 
L 219.688475 139.977771 
L 221.392911 150.789973 
L 222.366875 156.815522 
L 222.945166 160.006623 
L 226.536657 179.322172 
L 227.084511 181.762424 
L 228.971566 189.421068 
L 230.067275 193.081449 
L 231.132548 195.990982 
L 231.497784 196.929541 
L 233.050039 201.359537 
L 233.597893 202.992633 
L 234.63273 206.42776 
L 235.028402 207.685432 
L 236.337166 211.364584 
L 238.254657 214.687081 
L 238.680766 215.04373 
L 239.167748 215.231445 
L 241.206984 215.325301 
L 241.450475 215.362843 
L 241.633093 215.362843 
L 241.815711 215.362843 
L 242.424439 215.26899 
L 242.607057 215.26899 
L 242.850548 215.306533 
L 243.00273 215.325301 
L 243.33753 215.419157 
L 244.189748 216.301402 
L 244.372366 216.526654 
L 244.768039 217.164874 
L 245.376766 218.403778 
L 245.650693 218.9106 
L 246.92902 221.50102 
L 247.568184 222.796229 
L 248.298657 224.35424 
L 248.633457 225.048777 
L 248.93782 225.555599 
L 249.181311 225.968559 
L 249.455239 226.456613 
L 249.729166 226.94466 
L 250.03353 227.432714 
L 250.855311 228.596524 
L 251.190111 229.140892 
L 251.555348 229.5914 
L 252.011893 229.985595 
L 252.133639 230.041906 
L 252.28582 230.116993 
L 252.894548 230.041906 
L 254.446802 227.958304 
L 255.268584 225.668223 
L 256.851275 218.347458 
L 258.099166 209.975517 
L 259.712293 195.089965 
L 260.74713 183.095179 
L 262.908111 152.32921 
L 268.934511 57.440881 
L 270.273711 42.236216 
L 271.12593 34.85915 
L 272.37382 27.106652 
L 273.530402 23.221008 
L 274.108693 22.357536 
L 274.291311 22.32 
L 275.14353 23.540115 
L 275.47833 24.384824 
L 275.934875 26.130544 
L 276.81753 30.429142 
L 277.48713 34.746514 
L 278.308911 41.053638 
L 279.100257 48.261772 
L 281.017748 68.328161 
L 282.204766 81.937275 
L 289.20513 162.690903 
L 290.940002 179.716367 
L 292.948802 197.267423 
L 294.105384 205.695687 
L 296.47942 218.253605 
L 298.24473 225.386658 
L 298.731711 226.77572 
L 299.857857 229.272287 
L 300.192657 229.666488 
L 300.710075 230.135768 
L 301.197057 230.323476 
L 301.50142 230.248389 
L 301.744911 230.116993 
L 301.957966 230.023137 
L 302.50582 229.5914 
L 303.114548 228.258643 
L 303.784148 225.855938 
L 304.392875 222.758692 
L 305.366839 216.751914 
L 309.993166 183.339205 
L 315.89782 147.598872 
L 316.597857 144.295143 
L 318.971893 135.923195 
L 321.711166 129.409595 
L 321.832911 129.221883 
L 322.959057 127.363535 
L 323.141675 127.175826 
L 323.385166 126.856713 
L 324.420002 125.148537 
L 324.572184 124.942053 
L 324.876548 124.416459 
L 328.437602 115.349979 
L 330.62902 108.930234 
L 330.872511 108.254471 
L 332.668257 104.10604 
L 334.098766 101.665783 
L 334.433566 101.365444 
L 334.616184 101.234049 
L 335.194475 100.99002 
L 335.346657 100.971252 
L 335.833639 101.046337 
L 336.07713 101.196503 
L 336.351057 101.271591 
L 336.564111 101.365444 
L 336.838039 101.459306 
L 337.172839 101.703325 
L 337.32502 101.797187 
L 337.690257 102.135068 
L 338.603348 103.411509 
L 340.307784 107.897819 
L 341.616548 113.15375 
L 342.742693 118.503537 
L 344.812366 130.61095 
L 346.942911 147.167134 
L 347.46033 151.184168 
L 351.14313 179.847765 
L 352.14753 187.412551 
L 353.182366 194.827169 
L 354.521566 203.161574 
L 355.921639 211.120556 
L 356.74342 214.687081 
L 357.017348 215.644414 
L 358.08262 218.572719 
L 358.75222 219.943012 
L 359.17833 220.506144 
L 359.391384 220.600006 
L 359.726184 220.506144 
L 360.060984 220.187037 
L 361.248002 217.765558 
L 363.013311 211.98403 
L 363.956839 207.42263 
L 365.53953 198.01827 
L 367.030911 187.149755 
L 367.79182 180.71124 
L 368.46142 174.929714 
L 369.80062 162.409335 
L 372.418148 136.129679 
L 373.300802 128.170695 
L 374.274766 119.611037 
L 375.766148 108.536039 
L 376.648802 102.829599 
L 379.144584 89.595912 
L 380.118548 86.404814 
L 381.336002 83.64545 
L 381.488184 83.438967 
L 382.249093 82.669348 
L 382.85782 82.406555 
L 382.918693 82.406555 
L 382.918693 82.406555 
" style="fill:none;stroke:#ff0000;stroke-linecap:square;stroke-width:1.5;"/>
   </g>
   <g id="line2d_27">
    <path clip-path="url(#pbaa6f08797)" d="M 124.696584 162.011386 
" style="fill:none;stroke:#ffffff;stroke-linecap:square;stroke-width:1.5;"/>
    <defs>
     <path d="M 0 -5 
L -1.12257 -1.545085 
L -4.755283 -1.545085 
L -1.816356 0.59017 
L -2.938926 4.045085 
L -0 1.90983 
L 2.938926 4.045085 
L 1.816356 0.59017 
L 4.755283 -1.545085 
L 1.12257 -1.545085 
z
" id="mf7293e9105" style="stroke:#ffffff;stroke-linejoin:bevel;"/>
    </defs>
    <g clip-path="url(#pbaa6f08797)">
     <use style="fill:#0000ff;stroke:#ffffff;stroke-linejoin:bevel;" x="124.696584" xlink:href="#mf7293e9105" y="162.011386"/>
    </g>
   </g>
   <g id="line2d_28">
    <path clip-path="url(#pbaa6f08797)" d="M 104.578148 160.025395 
" style="fill:none;stroke:#ffffff;stroke-linecap:square;stroke-width:1.5;"/>
    <defs>
     <path d="M 0 -5 
L -1.12257 -1.545085 
L -4.755283 -1.545085 
L -1.816356 0.59017 
L -2.938926 4.045085 
L -0 1.90983 
L 2.938926 4.045085 
L 1.816356 0.59017 
L 4.755283 -1.545085 
L 1.12257 -1.545085 
z
" id="m924fabe6e9" style="stroke:#ffffff;stroke-linejoin:bevel;"/>
    </defs>
    <g clip-path="url(#pbaa6f08797)">
     <use style="fill:#ff0000;stroke:#ffffff;stroke-linejoin:bevel;" x="104.578148" xlink:href="#m924fabe6e9" y="160.025395"/>
    </g>
   </g>
   <g id="patch_3">
    <path d="M 63.336875 339.84 
L 63.336875 7.2 
" style="fill:none;stroke:#000000;stroke-linecap:square;stroke-linejoin:miter;stroke-width:0.8;"/>
   </g>
   <g id="patch_4">
    <path d="M 398.136875 339.84 
L 398.136875 7.2 
" style="fill:none;stroke:#000000;stroke-linecap:square;stroke-linejoin:miter;stroke-width:0.8;"/>
   </g>
   <g id="patch_5">
    <path d="M 63.336875 339.84 
L 398.136875 339.84 
" style="fill:none;stroke:#000000;stroke-linecap:square;stroke-linejoin:miter;stroke-width:0.8;"/>
   </g>
   <g id="patch_6">
    <path d="M 63.336875 7.2 
L 398.136875 7.2 
" style="fill:none;stroke:#000000;stroke-linecap:square;stroke-linejoin:miter;stroke-width:0.8;"/>
   </g>
   <g id="text_15">
    <g id="patch_7">
     <path d="M 75.036875 331.242688 
L 166.79375 331.242688 
L 166.79375 293.760312 
L 75.036875 293.760312 
z
" style="fill:#ffffff;stroke:#000000;stroke-linejoin:miter;stroke-width:0.75;"/>
    </g>
    <!-- Auto_00111 -->
    <g transform="translate(80.076875 308.521562)scale(0.14 -0.14)">
     <defs>
      <path d="M 2928 1419 
L 1288 1419 
L 1000 750 
Q 894 503 894 381 
Q 894 284 986 211 
Q 1078 138 1384 116 
L 1384 0 
L 50 0 
L 50 116 
Q 316 163 394 238 
Q 553 388 747 847 
L 2238 4334 
L 2347 4334 
L 3822 809 
Q 4000 384 4145 257 
Q 4291 131 4550 116 
L 4550 0 
L 2878 0 
L 2878 116 
Q 3131 128 3220 200 
Q 3309 272 3309 375 
Q 3309 513 3184 809 
L 2928 1419 
z
M 2841 1650 
L 2122 3363 
L 1384 1650 
L 2841 1650 
z
" id="TimesNewRomanPSMT-41" transform="scale(0.015625)"/>
      <path d="M 2709 2863 
L 2709 1128 
Q 2709 631 2732 520 
Q 2756 409 2807 365 
Q 2859 322 2928 322 
Q 3025 322 3147 375 
L 3191 266 
L 2334 -88 
L 2194 -88 
L 2194 519 
Q 1825 119 1631 15 
Q 1438 -88 1222 -88 
Q 981 -88 804 51 
Q 628 191 559 409 
Q 491 628 491 1028 
L 491 2306 
Q 491 2509 447 2587 
Q 403 2666 317 2708 
Q 231 2750 6 2747 
L 6 2863 
L 1009 2863 
L 1009 947 
Q 1009 547 1148 422 
Q 1288 297 1484 297 
Q 1619 297 1789 381 
Q 1959 466 2194 703 
L 2194 2325 
Q 2194 2569 2105 2655 
Q 2016 2741 1734 2747 
L 1734 2863 
L 2709 2863 
z
" id="TimesNewRomanPSMT-75" transform="scale(0.015625)"/>
      <path d="M 3256 -1381 
L -53 -1381 
L -53 -1119 
L 3256 -1119 
L 3256 -1381 
z
" id="TimesNewRomanPSMT-5f" transform="scale(0.015625)"/>
     </defs>
     <use xlink:href="#TimesNewRomanPSMT-41"/>
     <use x="72.216797" xlink:href="#TimesNewRomanPSMT-75"/>
     <use x="122.216797" xlink:href="#TimesNewRomanPSMT-74"/>
     <use x="150" xlink:href="#TimesNewRomanPSMT-6f"/>
     <use x="200" xlink:href="#TimesNewRomanPSMT-5f"/>
     <use x="250" xlink:href="#TimesNewRomanPSMT-30"/>
     <use x="300" xlink:href="#TimesNewRomanPSMT-30"/>
     <use x="350" xlink:href="#TimesNewRomanPSMT-31"/>
     <use x="396.25" xlink:href="#TimesNewRomanPSMT-31"/>
     <use x="442.5" xlink:href="#TimesNewRomanPSMT-31"/>
    </g>
    <!-- Vs: 302.40m/s -->
    <g transform="translate(80.076875 323.208)scale(0.14 -0.14)">
     <defs>
      <path d="M 903 2950 
Q 1047 2950 1148 2848 
Q 1250 2747 1250 2603 
Q 1250 2459 1148 2357 
Q 1047 2256 903 2256 
Q 759 2256 657 2357 
Q 556 2459 556 2603 
Q 556 2747 657 2848 
Q 759 2950 903 2950 
z
M 897 609 
Q 1044 609 1145 506 
Q 1247 403 1247 259 
Q 1247 116 1144 14 
Q 1041 -88 897 -88 
Q 753 -88 651 14 
Q 550 116 550 259 
Q 550 403 651 506 
Q 753 609 897 609 
z
" id="TimesNewRomanPSMT-3a" transform="scale(0.015625)"/>
      <path d="M 1794 4444 
L 259 -88 
L 9 -88 
L 1544 4444 
L 1794 4444 
z
" id="TimesNewRomanPSMT-2f" transform="scale(0.015625)"/>
     </defs>
     <use xlink:href="#TimesNewRomanPSMT-56"/>
     <use x="72.216797" xlink:href="#TimesNewRomanPSMT-73"/>
     <use x="111.132812" xlink:href="#TimesNewRomanPSMT-3a"/>
     <use x="138.916016" xlink:href="#TimesNewRomanPSMT-20"/>
     <use x="163.916016" xlink:href="#TimesNewRomanPSMT-33"/>
     <use x="213.916016" xlink:href="#TimesNewRomanPSMT-30"/>
     <use x="263.916016" xlink:href="#TimesNewRomanPSMT-32"/>
     <use x="313.916016" xlink:href="#TimesNewRomanPSMT-2e"/>
     <use x="338.916016" xlink:href="#TimesNewRomanPSMT-34"/>
     <use x="388.916016" xlink:href="#TimesNewRomanPSMT-30"/>
     <use x="438.916016" xlink:href="#TimesNewRomanPSMT-6d"/>
     <use x="516.699219" xlink:href="#TimesNewRomanPSMT-2f"/>
     <use x="544.482422" xlink:href="#TimesNewRomanPSMT-73"/>
    </g>
   </g>
  </g>
 </g>
 <defs>
  <clipPath id="pbaa6f08797">
   <rect height="332.64" width="334.8" x="63.336875" y="7.2"/>
  </clipPath>
 </defs>
</svg>
