<?xml version="1.0" encoding="utf-8" standalone="no"?>
<!DOCTYPE svg PUBLIC "-//W3C//DTD SVG 1.1//EN"
  "http://www.w3.org/Graphics/SVG/1.1/DTD/svg11.dtd">
<svg height="383.471875pt" version="1.1" viewBox="0 0 421.086875 383.471875" width="421.086875pt" xmlns="http://www.w3.org/2000/svg" xmlns:xlink="http://www.w3.org/1999/xlink">
 <metadata>
  <rdf:RDF xmlns:cc="http://creativecommons.org/ns#" xmlns:dc="http://purl.org/dc/elements/1.1/" xmlns:rdf="http://www.w3.org/1999/02/22-rdf-syntax-ns#">
   <cc:Work>
    <dc:type rdf:resource="http://purl.org/dc/dcmitype/StillImage"/>
    <dc:date>2021-06-11T14:39:39.383674</dc:date>
    <dc:format>image/svg+xml</dc:format>
    <dc:creator>
     <cc:Agent>
      <dc:title>Matplotlib v3.4.2, https://matplotlib.org/</dc:title>
     </cc:Agent>
    </dc:creator>
   </cc:Work>
  </rdf:RDF>
 </metadata>
 <defs>
  <style type="text/css">*{stroke-linecap:butt;stroke-linejoin:round;}</style>
 </defs>
 <g id="figure_1">
  <g id="patch_1">
   <path d="M 0 383.471875 
L 421.086875 383.471875 
L 421.086875 0 
L 0 0 
z
" style="fill:#ffffff;"/>
  </g>
  <g id="axes_1">
   <g id="patch_2">
    <path d="M 63.336875 339.84 
L 398.136875 339.84 
L 398.136875 7.2 
L 63.336875 7.2 
z
" style="fill:#ffffff;"/>
   </g>
   <g id="matplotlib.axis_1">
    <g id="xtick_1">
     <g id="line2d_1">
      <path clip-path="url(#pd25eabe3ca)" d="M 93.773239 339.84 
L 93.773239 7.2 
" style="fill:none;stroke:#000000;stroke-dasharray:0.5,0.825;stroke-dashoffset:0;stroke-width:0.5;"/>
     </g>
     <g id="line2d_2">
      <defs>
       <path d="M 0 0 
L 0 3.5 
" id="m8ae2748937" style="stroke:#000000;stroke-width:0.8;"/>
      </defs>
      <g>
       <use style="stroke:#000000;stroke-width:0.8;" x="93.773239" xlink:href="#m8ae2748937" y="339.84"/>
      </g>
     </g>
     <g id="text_1">
      <!-- 0.000 -->
      <g transform="translate(78.023239 356.56125)scale(0.14 -0.14)">
       <defs>
        <path d="M 231 2094 
Q 231 2819 450 3342 
Q 669 3866 1031 4122 
Q 1313 4325 1613 4325 
Q 2100 4325 2488 3828 
Q 2972 3213 2972 2159 
Q 2972 1422 2759 906 
Q 2547 391 2217 158 
Q 1888 -75 1581 -75 
Q 975 -75 572 641 
Q 231 1244 231 2094 
z
M 844 2016 
Q 844 1141 1059 588 
Q 1238 122 1591 122 
Q 1759 122 1940 273 
Q 2122 425 2216 781 
Q 2359 1319 2359 2297 
Q 2359 3022 2209 3506 
Q 2097 3866 1919 4016 
Q 1791 4119 1609 4119 
Q 1397 4119 1231 3928 
Q 1006 3669 925 3112 
Q 844 2556 844 2016 
z
" id="TimesNewRomanPSMT-30" transform="scale(0.015625)"/>
        <path d="M 800 606 
Q 947 606 1047 504 
Q 1147 403 1147 259 
Q 1147 116 1045 14 
Q 944 -88 800 -88 
Q 656 -88 554 14 
Q 453 116 453 259 
Q 453 406 554 506 
Q 656 606 800 606 
z
" id="TimesNewRomanPSMT-2e" transform="scale(0.015625)"/>
       </defs>
       <use xlink:href="#TimesNewRomanPSMT-30"/>
       <use x="50" xlink:href="#TimesNewRomanPSMT-2e"/>
       <use x="75" xlink:href="#TimesNewRomanPSMT-30"/>
       <use x="125" xlink:href="#TimesNewRomanPSMT-30"/>
       <use x="175" xlink:href="#TimesNewRomanPSMT-30"/>
      </g>
     </g>
    </g>
    <g id="xtick_2">
     <g id="line2d_3">
      <path clip-path="url(#pd25eabe3ca)" d="M 154.645966 339.84 
L 154.645966 7.2 
" style="fill:none;stroke:#000000;stroke-dasharray:0.5,0.825;stroke-dashoffset:0;stroke-width:0.5;"/>
     </g>
     <g id="line2d_4">
      <g>
       <use style="stroke:#000000;stroke-width:0.8;" x="154.645966" xlink:href="#m8ae2748937" y="339.84"/>
      </g>
     </g>
     <g id="text_2">
      <!-- 0.001 -->
      <g transform="translate(138.895966 356.56125)scale(0.14 -0.14)">
       <defs>
        <path d="M 750 3822 
L 1781 4325 
L 1884 4325 
L 1884 747 
Q 1884 391 1914 303 
Q 1944 216 2037 169 
Q 2131 122 2419 116 
L 2419 0 
L 825 0 
L 825 116 
Q 1125 122 1212 167 
Q 1300 213 1334 289 
Q 1369 366 1369 747 
L 1369 3034 
Q 1369 3497 1338 3628 
Q 1316 3728 1258 3775 
Q 1200 3822 1119 3822 
Q 1003 3822 797 3725 
L 750 3822 
z
" id="TimesNewRomanPSMT-31" transform="scale(0.015625)"/>
       </defs>
       <use xlink:href="#TimesNewRomanPSMT-30"/>
       <use x="50" xlink:href="#TimesNewRomanPSMT-2e"/>
       <use x="75" xlink:href="#TimesNewRomanPSMT-30"/>
       <use x="125" xlink:href="#TimesNewRomanPSMT-30"/>
       <use x="175" xlink:href="#TimesNewRomanPSMT-31"/>
      </g>
     </g>
    </g>
    <g id="xtick_3">
     <g id="line2d_5">
      <path clip-path="url(#pd25eabe3ca)" d="M 215.518693 339.84 
L 215.518693 7.2 
" style="fill:none;stroke:#000000;stroke-dasharray:0.5,0.825;stroke-dashoffset:0;stroke-width:0.5;"/>
     </g>
     <g id="line2d_6">
      <g>
       <use style="stroke:#000000;stroke-width:0.8;" x="215.518693" xlink:href="#m8ae2748937" y="339.84"/>
      </g>
     </g>
     <g id="text_3">
      <!-- 0.002 -->
      <g transform="translate(199.768693 356.56125)scale(0.14 -0.14)">
       <defs>
        <path d="M 2934 816 
L 2638 0 
L 138 0 
L 138 116 
Q 1241 1122 1691 1759 
Q 2141 2397 2141 2925 
Q 2141 3328 1894 3587 
Q 1647 3847 1303 3847 
Q 991 3847 742 3664 
Q 494 3481 375 3128 
L 259 3128 
Q 338 3706 661 4015 
Q 984 4325 1469 4325 
Q 1984 4325 2329 3994 
Q 2675 3663 2675 3213 
Q 2675 2891 2525 2569 
Q 2294 2063 1775 1497 
Q 997 647 803 472 
L 1909 472 
Q 2247 472 2383 497 
Q 2519 522 2628 598 
Q 2738 675 2819 816 
L 2934 816 
z
" id="TimesNewRomanPSMT-32" transform="scale(0.015625)"/>
       </defs>
       <use xlink:href="#TimesNewRomanPSMT-30"/>
       <use x="50" xlink:href="#TimesNewRomanPSMT-2e"/>
       <use x="75" xlink:href="#TimesNewRomanPSMT-30"/>
       <use x="125" xlink:href="#TimesNewRomanPSMT-30"/>
       <use x="175" xlink:href="#TimesNewRomanPSMT-32"/>
      </g>
     </g>
    </g>
    <g id="xtick_4">
     <g id="line2d_7">
      <path clip-path="url(#pd25eabe3ca)" d="M 276.39142 339.84 
L 276.39142 7.2 
" style="fill:none;stroke:#000000;stroke-dasharray:0.5,0.825;stroke-dashoffset:0;stroke-width:0.5;"/>
     </g>
     <g id="line2d_8">
      <g>
       <use style="stroke:#000000;stroke-width:0.8;" x="276.39142" xlink:href="#m8ae2748937" y="339.84"/>
      </g>
     </g>
     <g id="text_4">
      <!-- 0.003 -->
      <g transform="translate(260.64142 356.56125)scale(0.14 -0.14)">
       <defs>
        <path d="M 325 3431 
Q 506 3859 782 4092 
Q 1059 4325 1472 4325 
Q 1981 4325 2253 3994 
Q 2459 3747 2459 3466 
Q 2459 3003 1878 2509 
Q 2269 2356 2469 2072 
Q 2669 1788 2669 1403 
Q 2669 853 2319 450 
Q 1863 -75 997 -75 
Q 569 -75 414 31 
Q 259 138 259 259 
Q 259 350 332 419 
Q 406 488 509 488 
Q 588 488 669 463 
Q 722 447 909 348 
Q 1097 250 1169 231 
Q 1284 197 1416 197 
Q 1734 197 1970 444 
Q 2206 691 2206 1028 
Q 2206 1275 2097 1509 
Q 2016 1684 1919 1775 
Q 1784 1900 1550 2001 
Q 1316 2103 1072 2103 
L 972 2103 
L 972 2197 
Q 1219 2228 1467 2375 
Q 1716 2522 1828 2728 
Q 1941 2934 1941 3181 
Q 1941 3503 1739 3701 
Q 1538 3900 1238 3900 
Q 753 3900 428 3381 
L 325 3431 
z
" id="TimesNewRomanPSMT-33" transform="scale(0.015625)"/>
       </defs>
       <use xlink:href="#TimesNewRomanPSMT-30"/>
       <use x="50" xlink:href="#TimesNewRomanPSMT-2e"/>
       <use x="75" xlink:href="#TimesNewRomanPSMT-30"/>
       <use x="125" xlink:href="#TimesNewRomanPSMT-30"/>
       <use x="175" xlink:href="#TimesNewRomanPSMT-33"/>
      </g>
     </g>
    </g>
    <g id="xtick_5">
     <g id="line2d_9">
      <path clip-path="url(#pd25eabe3ca)" d="M 337.264148 339.84 
L 337.264148 7.2 
" style="fill:none;stroke:#000000;stroke-dasharray:0.5,0.825;stroke-dashoffset:0;stroke-width:0.5;"/>
     </g>
     <g id="line2d_10">
      <g>
       <use style="stroke:#000000;stroke-width:0.8;" x="337.264148" xlink:href="#m8ae2748937" y="339.84"/>
      </g>
     </g>
     <g id="text_5">
      <!-- 0.004 -->
      <g transform="translate(321.514148 356.56125)scale(0.14 -0.14)">
       <defs>
        <path d="M 2978 1563 
L 2978 1119 
L 2409 1119 
L 2409 0 
L 1894 0 
L 1894 1119 
L 100 1119 
L 100 1519 
L 2066 4325 
L 2409 4325 
L 2409 1563 
L 2978 1563 
z
M 1894 1563 
L 1894 3666 
L 406 1563 
L 1894 1563 
z
" id="TimesNewRomanPSMT-34" transform="scale(0.015625)"/>
       </defs>
       <use xlink:href="#TimesNewRomanPSMT-30"/>
       <use x="50" xlink:href="#TimesNewRomanPSMT-2e"/>
       <use x="75" xlink:href="#TimesNewRomanPSMT-30"/>
       <use x="125" xlink:href="#TimesNewRomanPSMT-30"/>
       <use x="175" xlink:href="#TimesNewRomanPSMT-34"/>
      </g>
     </g>
    </g>
    <g id="xtick_6">
     <g id="line2d_11">
      <path clip-path="url(#pd25eabe3ca)" d="M 398.136875 339.84 
L 398.136875 7.2 
" style="fill:none;stroke:#000000;stroke-dasharray:0.5,0.825;stroke-dashoffset:0;stroke-width:0.5;"/>
     </g>
     <g id="line2d_12">
      <g>
       <use style="stroke:#000000;stroke-width:0.8;" x="398.136875" xlink:href="#m8ae2748937" y="339.84"/>
      </g>
     </g>
     <g id="text_6">
      <!-- 0.005 -->
      <g transform="translate(382.386875 356.56125)scale(0.14 -0.14)">
       <defs>
        <path d="M 2778 4238 
L 2534 3706 
L 1259 3706 
L 981 3138 
Q 1809 3016 2294 2522 
Q 2709 2097 2709 1522 
Q 2709 1188 2573 903 
Q 2438 619 2231 419 
Q 2025 219 1772 97 
Q 1413 -75 1034 -75 
Q 653 -75 479 54 
Q 306 184 306 341 
Q 306 428 378 495 
Q 450 563 559 563 
Q 641 563 702 538 
Q 763 513 909 409 
Q 1144 247 1384 247 
Q 1750 247 2026 523 
Q 2303 800 2303 1197 
Q 2303 1581 2056 1914 
Q 1809 2247 1375 2428 
Q 1034 2569 447 2591 
L 1259 4238 
L 2778 4238 
z
" id="TimesNewRomanPSMT-35" transform="scale(0.015625)"/>
       </defs>
       <use xlink:href="#TimesNewRomanPSMT-30"/>
       <use x="50" xlink:href="#TimesNewRomanPSMT-2e"/>
       <use x="75" xlink:href="#TimesNewRomanPSMT-30"/>
       <use x="125" xlink:href="#TimesNewRomanPSMT-30"/>
       <use x="175" xlink:href="#TimesNewRomanPSMT-35"/>
      </g>
     </g>
    </g>
    <g id="text_7">
     <!-- Time (sec) -->
     <g transform="translate(200.858906 373.277188)scale(0.14 -0.14)">
      <defs>
       <path d="M 3703 4238 
L 3750 3244 
L 3631 3244 
Q 3597 3506 3538 3619 
Q 3441 3800 3280 3886 
Q 3119 3972 2856 3972 
L 2259 3972 
L 2259 734 
Q 2259 344 2344 247 
Q 2463 116 2709 116 
L 2856 116 
L 2856 0 
L 1059 0 
L 1059 116 
L 1209 116 
Q 1478 116 1591 278 
Q 1659 378 1659 734 
L 1659 3972 
L 1150 3972 
Q 853 3972 728 3928 
Q 566 3869 450 3700 
Q 334 3531 313 3244 
L 194 3244 
L 244 4238 
L 3703 4238 
z
" id="TimesNewRomanPSMT-54" transform="scale(0.015625)"/>
       <path d="M 928 4444 
Q 1059 4444 1151 4351 
Q 1244 4259 1244 4128 
Q 1244 3997 1151 3903 
Q 1059 3809 928 3809 
Q 797 3809 703 3903 
Q 609 3997 609 4128 
Q 609 4259 701 4351 
Q 794 4444 928 4444 
z
M 1188 2947 
L 1188 647 
Q 1188 378 1227 289 
Q 1266 200 1342 156 
Q 1419 113 1622 113 
L 1622 0 
L 231 0 
L 231 113 
Q 441 113 512 153 
Q 584 194 626 287 
Q 669 381 669 647 
L 669 1750 
Q 669 2216 641 2353 
Q 619 2453 572 2492 
Q 525 2531 444 2531 
Q 356 2531 231 2484 
L 188 2597 
L 1050 2947 
L 1188 2947 
z
" id="TimesNewRomanPSMT-69" transform="scale(0.015625)"/>
       <path d="M 1050 2338 
Q 1363 2650 1419 2697 
Q 1559 2816 1721 2881 
Q 1884 2947 2044 2947 
Q 2313 2947 2506 2790 
Q 2700 2634 2766 2338 
Q 3088 2713 3309 2830 
Q 3531 2947 3766 2947 
Q 3994 2947 4170 2830 
Q 4347 2713 4450 2447 
Q 4519 2266 4519 1878 
L 4519 647 
Q 4519 378 4559 278 
Q 4591 209 4675 161 
Q 4759 113 4950 113 
L 4950 0 
L 3538 0 
L 3538 113 
L 3597 113 
Q 3781 113 3884 184 
Q 3956 234 3988 344 
Q 4000 397 4000 647 
L 4000 1878 
Q 4000 2228 3916 2372 
Q 3794 2572 3525 2572 
Q 3359 2572 3192 2489 
Q 3025 2406 2788 2181 
L 2781 2147 
L 2788 2013 
L 2788 647 
Q 2788 353 2820 281 
Q 2853 209 2943 161 
Q 3034 113 3253 113 
L 3253 0 
L 1806 0 
L 1806 113 
Q 2044 113 2133 169 
Q 2222 225 2256 338 
Q 2272 391 2272 647 
L 2272 1878 
Q 2272 2228 2169 2381 
Q 2031 2581 1784 2581 
Q 1616 2581 1450 2491 
Q 1191 2353 1050 2181 
L 1050 647 
Q 1050 366 1089 281 
Q 1128 197 1204 155 
Q 1281 113 1516 113 
L 1516 0 
L 100 0 
L 100 113 
Q 297 113 375 155 
Q 453 197 493 289 
Q 534 381 534 647 
L 534 1741 
Q 534 2213 506 2350 
Q 484 2453 437 2492 
Q 391 2531 309 2531 
Q 222 2531 100 2484 
L 53 2597 
L 916 2947 
L 1050 2947 
L 1050 2338 
z
" id="TimesNewRomanPSMT-6d" transform="scale(0.015625)"/>
       <path d="M 681 1784 
Q 678 1147 991 784 
Q 1303 422 1725 422 
Q 2006 422 2214 576 
Q 2422 731 2563 1106 
L 2659 1044 
Q 2594 616 2278 264 
Q 1963 -88 1488 -88 
Q 972 -88 605 314 
Q 238 716 238 1394 
Q 238 2128 614 2539 
Q 991 2950 1559 2950 
Q 2041 2950 2350 2633 
Q 2659 2316 2659 1784 
L 681 1784 
z
M 681 1966 
L 2006 1966 
Q 1991 2241 1941 2353 
Q 1863 2528 1708 2628 
Q 1553 2728 1384 2728 
Q 1125 2728 920 2526 
Q 716 2325 681 1966 
z
" id="TimesNewRomanPSMT-65" transform="scale(0.015625)"/>
       <path id="TimesNewRomanPSMT-20" transform="scale(0.015625)"/>
       <path d="M 1988 -1253 
L 1988 -1369 
Q 1516 -1131 1200 -813 
Q 750 -359 506 256 
Q 263 872 263 1534 
Q 263 2503 741 3301 
Q 1219 4100 1988 4444 
L 1988 4313 
Q 1603 4100 1356 3731 
Q 1109 3363 987 2797 
Q 866 2231 866 1616 
Q 866 947 969 400 
Q 1050 -31 1165 -292 
Q 1281 -553 1476 -793 
Q 1672 -1034 1988 -1253 
z
" id="TimesNewRomanPSMT-28" transform="scale(0.015625)"/>
       <path d="M 2050 2947 
L 2050 1972 
L 1947 1972 
Q 1828 2431 1642 2597 
Q 1456 2763 1169 2763 
Q 950 2763 815 2647 
Q 681 2531 681 2391 
Q 681 2216 781 2091 
Q 878 1963 1175 1819 
L 1631 1597 
Q 2266 1288 2266 781 
Q 2266 391 1970 151 
Q 1675 -88 1309 -88 
Q 1047 -88 709 6 
Q 606 38 541 38 
Q 469 38 428 -44 
L 325 -44 
L 325 978 
L 428 978 
Q 516 541 762 319 
Q 1009 97 1316 97 
Q 1531 97 1667 223 
Q 1803 350 1803 528 
Q 1803 744 1651 891 
Q 1500 1038 1047 1263 
Q 594 1488 453 1669 
Q 313 1847 313 2119 
Q 313 2472 555 2709 
Q 797 2947 1181 2947 
Q 1350 2947 1591 2875 
Q 1750 2828 1803 2828 
Q 1853 2828 1881 2850 
Q 1909 2872 1947 2947 
L 2050 2947 
z
" id="TimesNewRomanPSMT-73" transform="scale(0.015625)"/>
       <path d="M 2631 1088 
Q 2516 522 2178 217 
Q 1841 -88 1431 -88 
Q 944 -88 581 321 
Q 219 731 219 1428 
Q 219 2103 620 2525 
Q 1022 2947 1584 2947 
Q 2006 2947 2278 2723 
Q 2550 2500 2550 2259 
Q 2550 2141 2473 2067 
Q 2397 1994 2259 1994 
Q 2075 1994 1981 2113 
Q 1928 2178 1911 2362 
Q 1894 2547 1784 2644 
Q 1675 2738 1481 2738 
Q 1169 2738 978 2506 
Q 725 2200 725 1697 
Q 725 1184 976 792 
Q 1228 400 1656 400 
Q 1963 400 2206 609 
Q 2378 753 2541 1131 
L 2631 1088 
z
" id="TimesNewRomanPSMT-63" transform="scale(0.015625)"/>
       <path d="M 144 4313 
L 144 4444 
Q 619 4209 934 3891 
Q 1381 3434 1625 2820 
Q 1869 2206 1869 1541 
Q 1869 572 1392 -226 
Q 916 -1025 144 -1369 
L 144 -1253 
Q 528 -1038 776 -670 
Q 1025 -303 1145 264 
Q 1266 831 1266 1447 
Q 1266 2113 1163 2663 
Q 1084 3094 967 3353 
Q 850 3613 656 3853 
Q 463 4094 144 4313 
z
" id="TimesNewRomanPSMT-29" transform="scale(0.015625)"/>
      </defs>
      <use xlink:href="#TimesNewRomanPSMT-54"/>
      <use x="57.583984" xlink:href="#TimesNewRomanPSMT-69"/>
      <use x="85.367188" xlink:href="#TimesNewRomanPSMT-6d"/>
      <use x="163.150391" xlink:href="#TimesNewRomanPSMT-65"/>
      <use x="207.535156" xlink:href="#TimesNewRomanPSMT-20"/>
      <use x="232.535156" xlink:href="#TimesNewRomanPSMT-28"/>
      <use x="265.835938" xlink:href="#TimesNewRomanPSMT-73"/>
      <use x="304.751953" xlink:href="#TimesNewRomanPSMT-65"/>
      <use x="349.136719" xlink:href="#TimesNewRomanPSMT-63"/>
      <use x="393.521484" xlink:href="#TimesNewRomanPSMT-29"/>
     </g>
    </g>
   </g>
   <g id="matplotlib.axis_2">
    <g id="ytick_1">
     <g id="line2d_13">
      <path clip-path="url(#pd25eabe3ca)" d="M 63.336875 283.096195 
L 398.136875 283.096195 
" style="fill:none;stroke:#000000;stroke-dasharray:0.5,0.825;stroke-dashoffset:0;stroke-width:0.5;"/>
     </g>
     <g id="line2d_14">
      <defs>
       <path d="M 0 0 
L -3.5 0 
" id="m5bcad7c453" style="stroke:#000000;stroke-width:0.8;"/>
      </defs>
      <g>
       <use style="stroke:#000000;stroke-width:0.8;" x="63.336875" xlink:href="#m5bcad7c453" y="283.096195"/>
      </g>
     </g>
     <g id="text_8">
      <!-- −0.04 -->
      <g transform="translate(23.942188 287.95682)scale(0.14 -0.14)">
       <defs>
        <path d="M 3484 2000 
L 116 2000 
L 116 2256 
L 3484 2256 
L 3484 2000 
z
" id="TimesNewRomanPSMT-2212" transform="scale(0.015625)"/>
       </defs>
       <use xlink:href="#TimesNewRomanPSMT-2212"/>
       <use x="56.396484" xlink:href="#TimesNewRomanPSMT-30"/>
       <use x="106.396484" xlink:href="#TimesNewRomanPSMT-2e"/>
       <use x="131.396484" xlink:href="#TimesNewRomanPSMT-30"/>
       <use x="181.396484" xlink:href="#TimesNewRomanPSMT-34"/>
      </g>
     </g>
    </g>
    <g id="ytick_2">
     <g id="line2d_15">
      <path clip-path="url(#pd25eabe3ca)" d="M 63.336875 218.498065 
L 398.136875 218.498065 
" style="fill:none;stroke:#000000;stroke-dasharray:0.5,0.825;stroke-dashoffset:0;stroke-width:0.5;"/>
     </g>
     <g id="line2d_16">
      <g>
       <use style="stroke:#000000;stroke-width:0.8;" x="63.336875" xlink:href="#m5bcad7c453" y="218.498065"/>
      </g>
     </g>
     <g id="text_9">
      <!-- −0.02 -->
      <g transform="translate(23.942188 223.35869)scale(0.14 -0.14)">
       <use xlink:href="#TimesNewRomanPSMT-2212"/>
       <use x="56.396484" xlink:href="#TimesNewRomanPSMT-30"/>
       <use x="106.396484" xlink:href="#TimesNewRomanPSMT-2e"/>
       <use x="131.396484" xlink:href="#TimesNewRomanPSMT-30"/>
       <use x="181.396484" xlink:href="#TimesNewRomanPSMT-32"/>
      </g>
     </g>
    </g>
    <g id="ytick_3">
     <g id="line2d_17">
      <path clip-path="url(#pd25eabe3ca)" d="M 63.336875 153.899935 
L 398.136875 153.899935 
" style="fill:none;stroke:#000000;stroke-dasharray:0.5,0.825;stroke-dashoffset:0;stroke-width:0.5;"/>
     </g>
     <g id="line2d_18">
      <g>
       <use style="stroke:#000000;stroke-width:0.8;" x="63.336875" xlink:href="#m5bcad7c453" y="153.899935"/>
      </g>
     </g>
     <g id="text_10">
      <!-- 0.00 -->
      <g transform="translate(31.836875 158.76056)scale(0.14 -0.14)">
       <use xlink:href="#TimesNewRomanPSMT-30"/>
       <use x="50" xlink:href="#TimesNewRomanPSMT-2e"/>
       <use x="75" xlink:href="#TimesNewRomanPSMT-30"/>
       <use x="125" xlink:href="#TimesNewRomanPSMT-30"/>
      </g>
     </g>
    </g>
    <g id="ytick_4">
     <g id="line2d_19">
      <path clip-path="url(#pd25eabe3ca)" d="M 63.336875 89.301804 
L 398.136875 89.301804 
" style="fill:none;stroke:#000000;stroke-dasharray:0.5,0.825;stroke-dashoffset:0;stroke-width:0.5;"/>
     </g>
     <g id="line2d_20">
      <g>
       <use style="stroke:#000000;stroke-width:0.8;" x="63.336875" xlink:href="#m5bcad7c453" y="89.301804"/>
      </g>
     </g>
     <g id="text_11">
      <!-- 0.02 -->
      <g transform="translate(31.836875 94.162429)scale(0.14 -0.14)">
       <use xlink:href="#TimesNewRomanPSMT-30"/>
       <use x="50" xlink:href="#TimesNewRomanPSMT-2e"/>
       <use x="75" xlink:href="#TimesNewRomanPSMT-30"/>
       <use x="125" xlink:href="#TimesNewRomanPSMT-32"/>
      </g>
     </g>
    </g>
    <g id="ytick_5">
     <g id="line2d_21">
      <path clip-path="url(#pd25eabe3ca)" d="M 63.336875 24.703674 
L 398.136875 24.703674 
" style="fill:none;stroke:#000000;stroke-dasharray:0.5,0.825;stroke-dashoffset:0;stroke-width:0.5;"/>
     </g>
     <g id="line2d_22">
      <g>
       <use style="stroke:#000000;stroke-width:0.8;" x="63.336875" xlink:href="#m5bcad7c453" y="24.703674"/>
      </g>
     </g>
     <g id="text_12">
      <!-- 0.04 -->
      <g transform="translate(31.836875 29.564299)scale(0.14 -0.14)">
       <use xlink:href="#TimesNewRomanPSMT-30"/>
       <use x="50" xlink:href="#TimesNewRomanPSMT-2e"/>
       <use x="75" xlink:href="#TimesNewRomanPSMT-30"/>
       <use x="125" xlink:href="#TimesNewRomanPSMT-34"/>
      </g>
     </g>
    </g>
    <g id="text_13">
     <!-- Volatage (V) -->
     <g transform="translate(16.92125 209.352344)rotate(-90)scale(0.14 -0.14)">
      <defs>
       <path d="M 4544 4238 
L 4544 4122 
Q 4319 4081 4203 3978 
Q 4038 3825 3909 3509 
L 2431 -97 
L 2316 -97 
L 728 3556 
Q 606 3838 556 3900 
Q 478 3997 364 4051 
Q 250 4106 56 4122 
L 56 4238 
L 1788 4238 
L 1788 4122 
Q 1494 4094 1406 4022 
Q 1319 3950 1319 3838 
Q 1319 3681 1463 3350 
L 2541 866 
L 3541 3319 
Q 3688 3681 3688 3822 
Q 3688 3913 3597 3995 
Q 3506 4078 3291 4113 
Q 3275 4116 3238 4122 
L 3238 4238 
L 4544 4238 
z
" id="TimesNewRomanPSMT-56" transform="scale(0.015625)"/>
       <path d="M 1600 2947 
Q 2250 2947 2644 2453 
Q 2978 2031 2978 1484 
Q 2978 1100 2793 706 
Q 2609 313 2286 112 
Q 1963 -88 1566 -88 
Q 919 -88 538 428 
Q 216 863 216 1403 
Q 216 1797 411 2186 
Q 606 2575 925 2761 
Q 1244 2947 1600 2947 
z
M 1503 2744 
Q 1338 2744 1170 2645 
Q 1003 2547 900 2300 
Q 797 2053 797 1666 
Q 797 1041 1045 587 
Q 1294 134 1700 134 
Q 2003 134 2200 384 
Q 2397 634 2397 1244 
Q 2397 2006 2069 2444 
Q 1847 2744 1503 2744 
z
" id="TimesNewRomanPSMT-6f" transform="scale(0.015625)"/>
       <path d="M 1184 4444 
L 1184 647 
Q 1184 378 1223 290 
Q 1263 203 1344 158 
Q 1425 113 1647 113 
L 1647 0 
L 244 0 
L 244 113 
Q 441 113 512 153 
Q 584 194 625 287 
Q 666 381 666 647 
L 666 3247 
Q 666 3731 644 3842 
Q 622 3953 573 3993 
Q 525 4034 450 4034 
Q 369 4034 244 3984 
L 191 4094 
L 1044 4444 
L 1184 4444 
z
" id="TimesNewRomanPSMT-6c" transform="scale(0.015625)"/>
       <path d="M 1822 413 
Q 1381 72 1269 19 
Q 1100 -59 909 -59 
Q 613 -59 420 144 
Q 228 347 228 678 
Q 228 888 322 1041 
Q 450 1253 767 1440 
Q 1084 1628 1822 1897 
L 1822 2009 
Q 1822 2438 1686 2597 
Q 1550 2756 1291 2756 
Q 1094 2756 978 2650 
Q 859 2544 859 2406 
L 866 2225 
Q 866 2081 792 2003 
Q 719 1925 600 1925 
Q 484 1925 411 2006 
Q 338 2088 338 2228 
Q 338 2497 613 2722 
Q 888 2947 1384 2947 
Q 1766 2947 2009 2819 
Q 2194 2722 2281 2516 
Q 2338 2381 2338 1966 
L 2338 994 
Q 2338 584 2353 492 
Q 2369 400 2405 369 
Q 2441 338 2488 338 
Q 2538 338 2575 359 
Q 2641 400 2828 588 
L 2828 413 
Q 2478 -56 2159 -56 
Q 2006 -56 1915 50 
Q 1825 156 1822 413 
z
M 1822 616 
L 1822 1706 
Q 1350 1519 1213 1441 
Q 966 1303 859 1153 
Q 753 1003 753 825 
Q 753 600 887 451 
Q 1022 303 1197 303 
Q 1434 303 1822 616 
z
" id="TimesNewRomanPSMT-61" transform="scale(0.015625)"/>
       <path d="M 1031 3803 
L 1031 2863 
L 1700 2863 
L 1700 2644 
L 1031 2644 
L 1031 788 
Q 1031 509 1111 412 
Q 1191 316 1316 316 
Q 1419 316 1516 380 
Q 1613 444 1666 569 
L 1788 569 
Q 1678 263 1478 108 
Q 1278 -47 1066 -47 
Q 922 -47 784 33 
Q 647 113 581 261 
Q 516 409 516 719 
L 516 2644 
L 63 2644 
L 63 2747 
Q 234 2816 414 2980 
Q 594 3144 734 3369 
Q 806 3488 934 3803 
L 1031 3803 
z
" id="TimesNewRomanPSMT-74" transform="scale(0.015625)"/>
       <path d="M 966 1044 
Q 703 1172 562 1401 
Q 422 1631 422 1909 
Q 422 2334 742 2640 
Q 1063 2947 1563 2947 
Q 1972 2947 2272 2747 
L 2878 2747 
Q 3013 2747 3034 2739 
Q 3056 2731 3066 2713 
Q 3084 2684 3084 2613 
Q 3084 2531 3069 2500 
Q 3059 2484 3036 2475 
Q 3013 2466 2878 2466 
L 2506 2466 
Q 2681 2241 2681 1891 
Q 2681 1491 2375 1206 
Q 2069 922 1553 922 
Q 1341 922 1119 984 
Q 981 866 932 777 
Q 884 688 884 625 
Q 884 572 936 522 
Q 988 472 1138 450 
Q 1225 438 1575 428 
Q 2219 413 2409 384 
Q 2700 344 2873 169 
Q 3047 -6 3047 -263 
Q 3047 -616 2716 -925 
Q 2228 -1381 1444 -1381 
Q 841 -1381 425 -1109 
Q 191 -953 191 -784 
Q 191 -709 225 -634 
Q 278 -519 444 -313 
Q 466 -284 763 25 
Q 600 122 533 198 
Q 466 275 466 372 
Q 466 481 555 628 
Q 644 775 966 1044 
z
M 1509 2797 
Q 1278 2797 1122 2612 
Q 966 2428 966 2047 
Q 966 1553 1178 1281 
Q 1341 1075 1591 1075 
Q 1828 1075 1981 1253 
Q 2134 1431 2134 1813 
Q 2134 2309 1919 2591 
Q 1759 2797 1509 2797 
z
M 934 0 
Q 788 -159 713 -296 
Q 638 -434 638 -550 
Q 638 -700 819 -813 
Q 1131 -1006 1722 -1006 
Q 2284 -1006 2551 -807 
Q 2819 -609 2819 -384 
Q 2819 -222 2659 -153 
Q 2497 -84 2016 -72 
Q 1313 -53 934 0 
z
" id="TimesNewRomanPSMT-67" transform="scale(0.015625)"/>
      </defs>
      <use xlink:href="#TimesNewRomanPSMT-56"/>
      <use x="59.341797" xlink:href="#TimesNewRomanPSMT-6f"/>
      <use x="109.341797" xlink:href="#TimesNewRomanPSMT-6c"/>
      <use x="137.125" xlink:href="#TimesNewRomanPSMT-61"/>
      <use x="181.509766" xlink:href="#TimesNewRomanPSMT-74"/>
      <use x="209.292969" xlink:href="#TimesNewRomanPSMT-61"/>
      <use x="253.677734" xlink:href="#TimesNewRomanPSMT-67"/>
      <use x="303.677734" xlink:href="#TimesNewRomanPSMT-65"/>
      <use x="348.0625" xlink:href="#TimesNewRomanPSMT-20"/>
      <use x="373.0625" xlink:href="#TimesNewRomanPSMT-28"/>
      <use x="406.363281" xlink:href="#TimesNewRomanPSMT-56"/>
      <use x="478.580078" xlink:href="#TimesNewRomanPSMT-29"/>
     </g>
    </g>
   </g>
   <g id="LineCollection_1">
    <path clip-path="url(#pd25eabe3ca)" d="M 78.555057 153.899935 
L 382.918693 153.899935 
" style="fill:none;stroke:#1f77b4;stroke-width:1.5;"/>
   </g>
   <g id="line2d_23">
    <path clip-path="url(#pd25eabe3ca)" d="M 78.555057 153.898319 
L 78.707239 153.857946 
L 82.603093 153.898319 
L 82.694402 153.979067 
L 82.724839 153.938693 
L 89.603457 153.898319 
L 89.633893 153.817572 
L 89.725202 153.857946 
L 89.846948 153.857946 
L 92.00793 153.777198 
L 92.129675 153.777198 
L 92.281857 153.817572 
L 92.403602 153.777198 
L 92.494911 153.817572 
L 92.525348 153.777198 
L 104.791202 153.69645 
L 104.943384 153.656077 
L 107.621784 153.736824 
L 107.65222 153.777198 
L 107.713093 153.69645 
L 110.452366 153.777198 
L 110.574111 153.817572 
L 110.726293 153.736824 
L 110.817602 153.857946 
L 110.848039 153.817572 
L 111.700257 153.857946 
L 111.791566 153.938693 
L 111.822002 153.898319 
L 111.943748 153.898319 
L 112.278548 153.979067 
L 112.43073 154.019441 
L 113.10033 154.100189 
L 113.252511 154.140563 
L 113.404693 154.100189 
L 113.496002 154.22131 
L 113.526439 154.180936 
L 113.861239 154.261684 
L 113.952548 154.342432 
L 113.982984 154.302058 
L 114.43953 154.342432 
L 114.530839 154.423179 
L 114.561275 154.382806 
L 114.713457 154.503927 
L 114.743893 154.423179 
L 114.835202 154.463553 
L 115.01782 154.544301 
L 115.322184 154.625049 
L 115.474366 154.74617 
L 115.596111 154.665422 
L 115.748293 154.786544 
L 115.77873 154.74617 
L 115.961348 154.826918 
L 115.991784 154.907665 
L 116.083093 154.867292 
L 116.600511 154.948039 
L 116.752693 154.988413 
L 117.209239 155.069161 
L 117.36142 155.149908 
L 117.483166 155.149908 
L 117.878839 155.190282 
L 118.000584 155.27103 
L 118.12233 155.27103 
L 118.304948 155.351777 
L 118.45713 155.392151 
L 118.670184 155.472899 
L 118.883239 155.59402 
L 118.913675 155.513273 
L 118.974548 155.553647 
L 119.157166 155.634394 
L 119.278911 155.715142 
L 119.46153 155.79589 
L 119.613711 155.836263 
L 119.735457 155.997759 
L 119.765893 155.957385 
L 119.918075 156.038133 
L 120.13113 156.159254 
L 120.161566 156.11888 
L 120.222439 156.199628 
L 120.313748 156.280376 
L 120.648548 156.562992 
L 120.678984 156.562992 
L 120.80073 156.684114 
L 120.861602 156.724488 
L 121.04422 156.966731 
L 121.105093 156.966731 
L 121.287711 157.289721 
L 121.37902 157.370469 
L 121.592075 157.69346 
L 121.652948 157.774207 
L 122.079057 158.500936 
L 122.687784 159.833273 
L 122.839966 160.196637 
L 124.14873 163.951403 
L 124.453093 165.001124 
L 126.522766 173.600749 
L 126.796693 174.97346 
L 127.283675 177.355516 
L 128.683748 184.219066 
L 131.08822 193.343553 
L 131.209966 193.666543 
L 131.51433 194.433646 
L 131.940439 195.281497 
L 132.336111 195.644861 
L 132.51873 195.725609 
L 132.579602 195.765983 
L 132.610039 195.725609 
L 132.76222 195.644861 
L 132.823093 195.765983 
L 132.883966 195.685235 
L 133.066584 195.604487 
L 133.736184 194.554768 
L 135.318875 190.113646 
L 136.932002 181.069908 
L 137.723348 174.731216 
L 138.666875 166.373833 
L 140.401748 146.832899 
L 145.57593 72.948788 
L 147.432548 49.733831 
L 148.92393 35.078131 
L 149.989202 27.487854 
L 150.719675 24.177203 
L 151.115348 23.046729 
L 151.358839 22.683364 
L 151.450148 22.602614 
L 151.724075 22.400748 
L 152.393675 22.441128 
L 152.60673 22.723745 
L 152.94153 23.329343 
L 153.367639 24.580935 
L 153.61113 25.509533 
L 154.067675 27.770467 
L 155.102511 35.360744 
L 155.61993 40.326732 
L 157.506984 64.106919 
L 158.907057 88.088978 
L 160.276693 115.54318 
L 162.589857 166.979441 
L 163.959493 198.834394 
L 164.750839 216.760378 
L 165.876984 241.065421 
L 167.185748 266.581686 
L 168.981493 295.650845 
L 169.894584 306.349904 
L 171.294657 318.381305 
L 171.964257 322.095701 
L 173.059966 324.72 
L 173.242584 324.639252 
L 173.333893 324.639252 
L 173.516511 324.356636 
L 173.912184 323.549159 
L 173.973057 323.468408 
L 174.155675 323.064676 
L 174.581784 321.651586 
L 175.190511 318.78505 
L 176.073166 313.576829 
L 176.894948 306.955514 
L 177.594984 300.495701 
L 178.995057 284.46729 
L 180.121202 269.730838 
L 183.07353 225.077384 
L 184.260548 205.092338 
L 187.243311 159.308413 
L 191.078293 109.85047 
L 193.817566 81.911778 
L 195.522002 69.234398 
L 195.826366 67.094585 
L 196.526402 61.563367 
L 197.926475 52.963744 
L 199.691784 46.3828 
L 199.996148 45.29272 
L 200.330948 44.041128 
L 200.848366 42.910654 
L 200.909239 42.829903 
L 201.48753 41.578324 
L 201.913639 41.174579 
L 202.765857 41.093828 
L 202.948475 41.013094 
L 203.16153 41.093828 
L 203.618075 41.537944 
L 203.648511 41.497576 
L 203.678948 41.578324 
L 203.83113 41.618691 
L 204.16593 41.699442 
L 204.957275 42.870283 
L 205.17033 43.314399 
L 205.626875 44.041128 
L 205.900802 44.687106 
L 206.84433 46.948044 
L 206.874766 46.948044 
L 207.148693 47.594025 
L 207.666111 49.208981 
L 207.879166 49.774212 
L 208.274839 50.945056 
L 208.335711 51.146922 
L 210.070584 58.494956 
L 210.466257 60.473271 
L 210.648875 61.2 
L 211.19673 63.541688 
L 211.592402 65.479629 
L 211.896766 67.134959 
L 212.048948 67.821314 
L 212.414184 69.678504 
L 213.083784 74.160003 
L 213.509893 76.986171 
L 214.240366 82.517383 
L 216.857893 107.791404 
L 217.588366 115.260563 
L 218.105784 121.034021 
L 222.549493 175.377198 
L 226.84102 230.850842 
L 229.336802 259.435511 
L 230.371639 268.559994 
L 230.645566 270.699814 
L 231.436911 275.463923 
L 231.95433 278.249723 
L 232.167384 279.097571 
L 233.29353 283.134947 
L 233.567457 283.579063 
L 234.29793 284.426923 
L 234.328366 284.346172 
L 234.389239 284.46729 
L 234.571857 284.386539 
L 235.028402 283.619443 
L 235.424075 282.811966 
L 235.484948 282.771583 
L 236.002366 281.116259 
L 236.489348 278.734206 
L 237.341566 273.6471 
L 237.798111 269.892337 
L 239.046002 259.072147 
L 241.450475 232.385051 
L 246.35073 165.929721 
L 249.790039 117.360002 
L 250.672693 107.105049 
L 251.829275 96.002242 
L 252.498875 90.753647 
L 253.898948 82.194395 
L 254.416366 79.973831 
L 254.690293 79.004862 
L 255.025093 77.793651 
L 255.542511 76.13832 
L 255.694693 75.774953 
L 256.546911 73.796638 
L 256.63822 73.715891 
L 256.912148 73.514025 
L 257.033893 73.514025 
L 257.216511 73.433274 
L 257.855675 73.473648 
L 258.06873 73.756264 
L 258.129602 73.796638 
L 258.31222 73.998507 
L 258.555711 74.160003 
L 258.829639 74.240754 
L 259.012257 74.402246 
L 259.042693 74.361872 
L 259.164439 74.442619 
L 259.31662 74.684859 
L 259.438366 74.76561 
L 259.803602 75.128975 
L 259.834039 75.088601 
L 259.864475 75.169348 
L 260.138402 75.371214 
L 260.199275 75.451965 
L 260.74713 76.299816 
L 260.99062 76.824672 
L 262.360257 80.740934 
L 263.516839 85.747292 
L 263.942948 87.846728 
L 264.308184 89.703928 
L 265.069093 94.064302 
L 265.34302 95.598504 
L 267.717057 112.07103 
L 270.03022 129.593274 
L 270.852002 135.77047 
L 272.739057 149.90131 
L 274.078257 158.056824 
L 275.295711 163.951403 
L 275.47833 164.718506 
L 276.878402 169.886357 
L 277.000148 170.209347 
L 277.639311 172.308787 
L 279.465493 176.871029 
L 280.013348 177.759254 
L 280.226402 178.041871 
L 280.287275 178.122618 
L 280.74382 178.56673 
L 280.83513 178.647478 
L 281.656911 179.576077 
L 281.778657 179.656824 
L 281.809093 179.737572 
L 281.900402 179.697197 
L 282.17433 179.777946 
L 282.41782 179.939441 
L 282.448257 179.899067 
L 282.478693 179.939441 
L 282.630875 180.060562 
L 282.75262 180.060562 
L 283.117857 179.979814 
L 283.330911 179.818319 
L 283.361348 179.858694 
L 283.391784 179.818319 
L 283.543966 179.697197 
L 283.75702 179.61645 
L 283.970075 179.495329 
L 284.030948 179.414582 
L 284.487493 178.970469 
L 284.578802 178.889722 
L 284.76142 178.687852 
L 286.283239 176.507664 
L 286.618039 175.861684 
L 286.678911 175.780937 
L 287.044148 175.134955 
L 287.257202 174.731216 
L 287.683311 173.883366 
L 287.744184 173.802619 
L 289.174693 172.02617 
L 289.326875 172.066543 
L 289.418184 171.945423 
L 289.44862 171.985796 
L 289.570366 171.985796 
L 289.935602 171.905048 
L 290.087784 171.864675 
L 290.300839 171.945423 
L 290.45302 171.985796 
L 290.513893 172.066543 
L 291.79222 173.923739 
L 292.21833 175.175328 
L 292.370511 175.49832 
L 292.674875 176.265422 
L 292.79662 176.548039 
L 293.283602 178.082245 
L 293.374911 178.364861 
L 296.783784 187.125983 
L 296.81422 187.125983 
L 296.996839 187.448973 
L 297.057711 187.529722 
L 297.422948 188.135328 
L 297.605566 188.498693 
L 297.666439 188.498693 
L 297.81862 188.700562 
L 298.092548 188.902431 
L 298.122984 188.862058 
L 298.15342 188.983179 
L 298.183857 188.942805 
L 298.518657 189.225422 
L 298.549093 189.185048 
L 298.57953 189.265796 
L 298.944766 189.588786 
L 299.401311 189.508039 
L 299.58393 189.427291 
L 299.857857 189.508039 
L 300.010039 189.588786 
L 300.131784 189.548413 
L 300.223093 189.588786 
L 300.25353 189.548413 
L 300.83182 188.942805 
L 300.984002 188.902431 
L 301.136184 188.78131 
L 301.25793 188.700562 
L 303.571093 185.470655 
L 303.875457 184.945795 
L 304.27113 184.259441 
L 306.036439 179.293459 
L 307.588693 172.672152 
L 311.058439 153.69645 
L 314.862984 129.189535 
L 315.65433 124.425423 
L 315.98913 122.648974 
L 316.871784 118.692339 
L 317.23702 117.279255 
L 317.32833 116.996638 
L 318.028366 114.654956 
L 318.363166 113.484114 
L 318.789275 112.232526 
L 319.489311 110.092713 
L 319.884984 108.962245 
L 320.432839 107.791404 
L 320.615457 107.387666 
L 321.132875 106.297572 
L 321.224184 106.216825 
L 322.989493 103.996264 
L 323.01993 104.036638 
L 323.080802 103.95589 
L 324.328693 102.462058 
L 324.450439 102.381308 
L 324.846111 101.977576 
L 324.876548 102.017943 
L 324.906984 101.977576 
L 325.02873 101.896825 
L 325.546148 101.977576 
L 325.911384 102.300566 
L 326.002693 102.381308 
L 326.641857 103.350286 
L 326.915784 103.996264 
L 327.098402 104.400006 
L 327.341893 105.00561 
L 327.402766 105.086357 
L 328.28542 107.710657 
L 330.05073 115.179815 
L 332.150839 126.888227 
L 332.72913 129.99701 
L 334.342257 139.121497 
L 335.285784 144.693086 
L 335.681457 146.711777 
L 337.41633 155.392151 
L 337.568511 156.078506 
L 338.633784 161.165609 
L 339.242511 164.032152 
L 339.912111 167.019814 
L 341.038257 171.097571 
L 341.129566 171.339815 
L 341.76873 173.439254 
L 343.716657 178.324488 
L 343.929711 178.7686 
L 344.234075 179.333834 
L 344.294948 179.374207 
L 344.538439 179.777946 
L 344.629748 179.858694 
L 345.268911 180.545048 
L 345.390657 180.625796 
L 345.725457 180.908413 
L 345.816766 180.98916 
L 346.242875 181.392898 
L 346.303748 181.352524 
L 346.334184 181.433273 
L 346.851602 181.958132 
L 346.912475 182.038881 
L 347.399457 182.523367 
L 347.551639 182.604113 
L 347.856002 182.846357 
L 347.977748 182.846357 
L 348.160366 182.927106 
L 349.04302 182.846357 
L 349.164766 182.765608 
L 349.195202 182.805982 
L 349.530002 182.725236 
L 349.71262 182.644487 
L 349.773493 182.684862 
L 349.80393 182.604113 
L 349.986548 182.523367 
L 350.13873 182.482992 
L 350.290911 182.361872 
L 350.686584 182.281122 
L 350.71702 182.200376 
L 350.80833 182.240748 
L 350.930075 182.119627 
L 350.960511 182.200376 
L 351.112693 182.119627 
L 351.264875 181.998507 
L 351.72142 181.554393 
L 351.843166 181.473647 
L 351.995348 181.312152 
L 352.117093 181.231403 
L 352.360584 180.868039 
L 352.421457 180.787291 
L 355.465093 176.911404 
L 355.586839 176.830656 
L 355.952075 176.507664 
L 356.134693 176.426917 
L 356.378184 176.265422 
L 356.530366 176.184674 
L 356.773857 176.023179 
L 357.017348 175.942432 
L 357.139093 175.82131 
L 357.260839 175.82131 
L 357.473893 175.700188 
L 357.83913 175.659815 
L 358.021748 175.457945 
L 358.052184 175.49832 
L 358.08262 175.457945 
L 358.204366 175.377198 
L 358.326111 175.29645 
L 358.569602 175.054208 
L 358.600039 175.134955 
L 358.660911 175.054208 
L 358.873966 174.933086 
L 359.026148 174.852338 
L 359.482693 174.408226 
L 359.604439 174.327479 
L 359.878366 174.125609 
L 360.060984 174.044861 
L 360.42622 173.721871 
L 360.487093 173.681497 
L 360.730584 173.318132 
L 360.791457 173.237384 
L 361.826293 171.703179 
L 362.221966 170.936076 
L 362.495893 170.411217 
L 362.86113 169.724862 
L 363.074184 169.28075 
L 363.652475 168.029161 
L 363.926402 167.5043 
L 364.382948 166.535329 
L 364.44382 166.454581 
L 364.656875 166.010469 
L 364.687311 166.010469 
L 364.86993 165.687478 
L 367.152657 162.820937 
L 367.274402 162.740189 
L 367.426584 162.538319 
L 367.517893 162.538319 
L 367.730948 162.255703 
L 367.822257 162.174955 
L 368.035311 162.01346 
L 368.12662 162.053834 
L 368.157057 162.01346 
L 368.46142 161.932712 
L 368.88753 161.528974 
L 369.070148 161.448226 
L 369.313639 161.286731 
L 369.496257 161.205983 
L 369.648439 161.125235 
L 369.709311 161.165609 
L 369.739748 161.084862 
L 370.044111 160.842619 
L 370.104984 160.802244 
L 370.287602 160.600376 
L 370.652839 160.277385 
L 370.713711 160.237011 
L 370.89633 160.035142 
L 371.870293 158.904675 
L 371.961602 158.864301 
L 372.14422 158.581684 
L 372.205093 158.500936 
L 373.057311 157.531964 
L 373.118184 157.491591 
L 373.300802 157.249348 
L 373.392111 157.1686 
L 373.635602 156.805235 
L 374.24433 155.876637 
L 374.457384 155.472899 
L 374.853057 154.786544 
L 375.370475 153.656077 
L 375.431348 153.575329 
L 375.766148 152.687105 
L 376.009639 152.202619 
L 377.409711 148.770843 
L 377.59233 148.367105 
L 378.718475 145.621684 
L 378.748911 145.621684 
L 379.053275 144.814208 
L 379.235893 144.410469 
L 379.60113 143.401123 
L 382.096911 136.497199 
L 382.462148 135.447478 
L 382.61433 135.084115 
L 382.918693 134.236264 
L 382.918693 134.236264 
" style="fill:none;stroke:#0000ff;stroke-linecap:square;stroke-width:1.5;"/>
   </g>
   <g id="line2d_24">
    <path clip-path="url(#pd25eabe3ca)" d="M 78.555057 153.893878 
L 96.147275 153.813131 
L 96.299457 153.792944 
L 99.525711 153.893878 
L 99.799639 153.954439 
L 100.134439 154.015 
L 100.28662 154.075561 
L 100.560548 154.176495 
L 101.747566 155.084906 
L 102.63022 156.43743 
L 103.604184 158.617617 
L 104.39553 161.019859 
L 105.30862 164.411262 
L 110.178439 186.495748 
L 111.243711 189.644906 
L 111.700257 190.553317 
L 111.852439 190.775373 
L 112.917711 192.026962 
L 113.10033 192.006775 
L 113.222075 191.966401 
L 113.465566 191.865467 
L 114.01342 191.380981 
L 114.287348 190.957056 
L 114.530839 190.47257 
L 116.174402 184.63855 
L 117.391857 177.593317 
L 119.522402 161.262103 
L 121.926875 139.581355 
L 123.753057 122.503225 
L 125.579239 107.686028 
L 126.218402 103.709206 
L 127.07062 99.288272 
L 127.49673 97.168642 
L 128.135893 94.32229 
L 129.688148 89.537991 
L 129.992511 89.174627 
L 130.41862 88.770888 
L 130.540366 88.690141 
L 130.875166 88.427708 
L 131.08822 88.407524 
L 131.362148 88.508459 
L 131.575202 88.548832 
L 132.640475 87.943225 
L 133.614439 88.488272 
L 133.736184 88.528649 
L 134.131857 88.892013 
L 134.649275 89.6793 
L 134.953639 89.921543 
L 135.10582 89.941733 
L 135.744984 90.466589 
L 136.292839 91.31444 
L 136.932002 91.859487 
L 137.358111 92.586219 
L 137.966839 93.898368 
L 138.423384 95.028829 
L 138.849493 96.805278 
L 140.340875 104.234063 
L 143.262766 122.341729 
L 144.510657 132.172757 
L 146.945566 150.74472 
L 147.797784 158.395561 
L 148.741311 166.127149 
L 150.963166 184.396309 
L 151.632766 189.059486 
L 153.458948 200.444906 
L 154.128548 203.43257 
L 155.011202 206.500981 
L 155.650366 207.914068 
L 156.563457 208.943594 
L 156.837384 209.024345 
L 157.172184 208.923411 
L 157.476548 208.822479 
L 158.267893 208.176491 
L 158.572257 207.550704 
L 158.87662 206.96528 
L 159.150548 206.500981 
L 159.30273 206.278925 
L 160.854984 202.96827 
L 161.950693 199.718177 
L 162.742039 197.315934 
L 164.507348 189.866962 
L 165.116075 187.202289 
L 167.885784 176.604158 
L 169.316293 174.888271 
L 169.59022 174.969019 
L 169.711966 175.009392 
L 169.864148 175.069952 
L 170.01633 175.150701 
L 170.472875 175.554439 
L 171.233784 177.3107 
L 172.116439 179.935 
L 173.090402 184.255001 
L 174.216548 190.008271 
L 176.62102 205.007149 
L 177.534111 211.386214 
L 179.999457 227.010887 
L 180.63862 229.130516 
L 181.825639 231.976868 
L 182.190875 232.461357 
L 182.799602 233.087145 
L 183.07353 233.147713 
L 183.347457 232.865096 
L 183.956184 231.411638 
L 184.443166 229.816872 
L 184.99102 227.212753 
L 185.508439 223.881912 
L 186.847639 211.386214 
L 187.730293 200.868831 
L 188.612948 189.019112 
L 190.408693 161.241915 
L 194.426293 93.878178 
L 195.79593 75.447521 
L 197.256875 60.186213 
L 198.656948 49.063232 
L 200.787493 36.99145 
L 201.426657 34.851643 
L 201.883202 34.165282 
L 202.765857 33.700976 
L 204.318111 35.901356 
L 205.139893 38.969771 
L 205.870366 43.390705 
L 208.822693 65.737618 
L 209.674911 72.641543 
L 219.597166 150.724533 
L 224.040875 179.490888 
L 224.649602 183.286028 
L 225.745311 189.826588 
L 226.59753 194.26771 
L 228.149784 200.969766 
L 228.545457 202.302102 
L 229.093311 204.058364 
L 230.18902 206.662476 
L 230.94993 207.934252 
L 232.410875 210.053881 
L 233.050039 211.083407 
L 233.53702 211.890887 
L 234.29793 213.606778 
L 235.393639 216.029205 
L 235.88062 217.018367 
L 236.367602 217.745096 
L 236.55022 217.987336 
L 236.97633 218.592943 
L 237.158948 218.814999 
L 237.463311 219.198547 
L 237.55462 219.299488 
L 238.072039 219.763784 
L 238.406839 220.026217 
L 238.89382 220.228083 
L 239.89822 220.127149 
L 240.080839 220.106959 
L 240.263457 220.127149 
L 240.446075 220.127149 
L 240.720002 220.18771 
L 241.176548 220.288641 
L 241.633093 220.470323 
L 241.967893 220.551074 
L 242.120075 220.591448 
L 242.24182 220.611632 
L 242.728802 220.813504 
L 242.972293 220.914438 
L 243.550584 221.378734 
L 243.824511 221.802666 
L 243.946257 221.984348 
L 246.837711 227.495376 
L 246.898584 227.555934 
L 247.294257 228.10098 
L 247.507311 228.343223 
L 247.720366 228.605653 
L 248.02473 228.928644 
L 248.389966 229.251635 
L 249.394366 229.1507 
L 250.124839 228.56528 
L 250.672693 227.717426 
L 250.824875 227.51556 
L 251.129239 227.010887 
L 251.250984 226.809021 
L 251.890148 225.294996 
L 252.346693 223.780981 
L 252.803239 221.883407 
L 253.62502 217.543224 
L 254.933784 209.105093 
L 256.455602 196.104719 
L 257.216511 188.615373 
L 258.373093 175.998551 
L 259.681857 160.010514 
L 263.912511 102.619113 
L 266.195239 75.245655 
L 267.504002 61.740605 
L 268.386657 54.57426 
L 269.330184 48.477808 
L 270.091093 44.985472 
L 270.730257 43.229207 
L 271.612911 42.240051 
L 272.191202 42.320802 
L 273.104293 43.693509 
L 274.078257 46.580238 
L 274.626111 49.204537 
L 275.508766 54.453129 
L 276.48273 61.639671 
L 279.130693 85.399674 
L 282.052584 115.558926 
L 283.391784 129.427336 
L 287.348511 167.681542 
L 289.752984 188.998925 
L 292.522693 208.398548 
L 294.074948 216.069579 
L 294.866293 218.33051 
L 296.540293 221.439302 
L 296.692475 221.641167 
L 297.027275 222.065089 
L 297.14902 222.16603 
L 297.757748 222.468831 
L 297.90993 222.489021 
L 298.092548 222.489021 
L 298.427348 222.38808 
L 298.57953 222.307339 
L 299.218693 221.641167 
L 299.553493 221.297993 
L 300.16222 220.329015 
L 301.92753 215.34285 
L 303.418911 208.983971 
L 304.484184 201.958925 
L 306.127748 189.16042 
L 307.893057 175.998551 
L 310.054039 162.372383 
L 311.088875 157.466963 
L 315.806511 139.137243 
L 315.867384 139.016121 
L 316.445675 137.179112 
L 317.297893 134.716309 
L 317.57182 133.929019 
L 318.515348 131.163412 
L 319.215384 129.528273 
L 322.92862 119.959673 
L 323.232984 119.374253 
L 324.206948 117.214253 
L 324.511311 116.588458 
L 325.150475 115.07444 
L 327.007093 110.451636 
L 327.768002 109.280795 
L 328.133239 108.614627 
L 328.254984 108.412757 
L 329.837675 106.495 
L 330.598584 106.111449 
L 331.572548 106.212384 
L 331.846475 106.394066 
L 331.998657 106.474814 
L 334.098766 109.422103 
L 334.555311 110.552571 
L 335.285784 112.773131 
L 336.65542 117.81986 
L 336.807602 118.324533 
L 337.41633 120.625841 
L 338.877275 126.883784 
L 339.820802 131.789206 
L 341.00782 138.672944 
L 342.834002 150.240047 
L 345.086293 165.884907 
L 347.734257 186.071821 
L 350.564839 204.139112 
L 351.47793 208.883037 
L 352.177966 212.41575 
L 353.334548 217.28079 
L 354.247639 219.945467 
L 354.521566 220.712573 
L 354.947675 221.742099 
L 356.134693 223.861728 
L 356.439057 224.103971 
L 356.926039 224.003037 
L 357.534766 223.478174 
L 358.052184 222.610136 
L 358.965275 220.571264 
L 359.726184 217.704722 
L 361.065384 210.013504 
L 363.469857 193.359299 
L 366.756984 166.329019 
L 368.644039 149.816121 
L 369.89193 138.995934 
L 371.292002 126.177242 
L 372.113784 119.555935 
L 372.966002 113.661356 
L 374.731311 102.67967 
L 375.218293 100.398552 
L 376.618366 95.230702 
L 376.861857 94.524159 
L 377.16622 93.595561 
L 378.26193 90.971262 
L 379.17502 89.941733 
L 379.479384 89.840792 
L 379.662002 89.860982 
L 379.814184 89.881166 
L 380.17942 89.982107 
L 381.062075 90.688645 
L 381.792548 91.819113 
L 382.249093 92.747711 
L 382.431711 93.171639 
L 382.918693 94.423225 
L 382.918693 94.423225 
" style="fill:none;stroke:#ff0000;stroke-linecap:square;stroke-width:1.5;"/>
   </g>
   <g id="line2d_25">
    <path clip-path="url(#pd25eabe3ca)" d="M 123.661748 162.457572 
" style="fill:none;stroke:#ffffff;stroke-linecap:square;stroke-width:1.5;"/>
    <defs>
     <path d="M 0 -5 
L -1.12257 -1.545085 
L -4.755283 -1.545085 
L -1.816356 0.59017 
L -2.938926 4.045085 
L -0 1.90983 
L 2.938926 4.045085 
L 1.816356 0.59017 
L 4.755283 -1.545085 
L 1.12257 -1.545085 
z
" id="m90b52fca2b" style="stroke:#ffffff;stroke-linejoin:bevel;"/>
    </defs>
    <g clip-path="url(#pd25eabe3ca)">
     <use style="fill:#0000ff;stroke:#ffffff;stroke-linejoin:bevel;" x="123.661748" xlink:href="#m90b52fca2b" y="162.457572"/>
    </g>
   </g>
   <g id="line2d_26">
    <path clip-path="url(#pd25eabe3ca)" d="M 104.06073 159.949953 
" style="fill:none;stroke:#ffffff;stroke-linecap:square;stroke-width:1.5;"/>
    <defs>
     <path d="M 0 -5 
L -1.12257 -1.545085 
L -4.755283 -1.545085 
L -1.816356 0.59017 
L -2.938926 4.045085 
L -0 1.90983 
L 2.938926 4.045085 
L 1.816356 0.59017 
L 4.755283 -1.545085 
L 1.12257 -1.545085 
z
" id="m3902b17ee6" style="stroke:#ffffff;stroke-linejoin:bevel;"/>
    </defs>
    <g clip-path="url(#pd25eabe3ca)">
     <use style="fill:#ff0000;stroke:#ffffff;stroke-linejoin:bevel;" x="104.06073" xlink:href="#m3902b17ee6" y="159.949953"/>
    </g>
   </g>
   <g id="patch_3">
    <path d="M 63.336875 339.84 
L 63.336875 7.2 
" style="fill:none;stroke:#000000;stroke-linecap:square;stroke-linejoin:miter;stroke-width:0.8;"/>
   </g>
   <g id="patch_4">
    <path d="M 398.136875 339.84 
L 398.136875 7.2 
" style="fill:none;stroke:#000000;stroke-linecap:square;stroke-linejoin:miter;stroke-width:0.8;"/>
   </g>
   <g id="patch_5">
    <path d="M 63.336875 339.84 
L 398.136875 339.84 
" style="fill:none;stroke:#000000;stroke-linecap:square;stroke-linejoin:miter;stroke-width:0.8;"/>
   </g>
   <g id="patch_6">
    <path d="M 63.336875 7.2 
L 398.136875 7.2 
" style="fill:none;stroke:#000000;stroke-linecap:square;stroke-linejoin:miter;stroke-width:0.8;"/>
   </g>
   <g id="text_14">
    <g id="patch_7">
     <path d="M 75.036875 331.242688 
L 166.79375 331.242688 
L 166.79375 293.760312 
L 75.036875 293.760312 
z
" style="fill:#ffffff;stroke:#000000;stroke-linejoin:miter;stroke-width:0.75;"/>
    </g>
    <!-- Auto_00164 -->
    <g transform="translate(80.076875 308.521563)scale(0.14 -0.14)">
     <defs>
      <path d="M 2928 1419 
L 1288 1419 
L 1000 750 
Q 894 503 894 381 
Q 894 284 986 211 
Q 1078 138 1384 116 
L 1384 0 
L 50 0 
L 50 116 
Q 316 163 394 238 
Q 553 388 747 847 
L 2238 4334 
L 2347 4334 
L 3822 809 
Q 4000 384 4145 257 
Q 4291 131 4550 116 
L 4550 0 
L 2878 0 
L 2878 116 
Q 3131 128 3220 200 
Q 3309 272 3309 375 
Q 3309 513 3184 809 
L 2928 1419 
z
M 2841 1650 
L 2122 3363 
L 1384 1650 
L 2841 1650 
z
" id="TimesNewRomanPSMT-41" transform="scale(0.015625)"/>
      <path d="M 2709 2863 
L 2709 1128 
Q 2709 631 2732 520 
Q 2756 409 2807 365 
Q 2859 322 2928 322 
Q 3025 322 3147 375 
L 3191 266 
L 2334 -88 
L 2194 -88 
L 2194 519 
Q 1825 119 1631 15 
Q 1438 -88 1222 -88 
Q 981 -88 804 51 
Q 628 191 559 409 
Q 491 628 491 1028 
L 491 2306 
Q 491 2509 447 2587 
Q 403 2666 317 2708 
Q 231 2750 6 2747 
L 6 2863 
L 1009 2863 
L 1009 947 
Q 1009 547 1148 422 
Q 1288 297 1484 297 
Q 1619 297 1789 381 
Q 1959 466 2194 703 
L 2194 2325 
Q 2194 2569 2105 2655 
Q 2016 2741 1734 2747 
L 1734 2863 
L 2709 2863 
z
" id="TimesNewRomanPSMT-75" transform="scale(0.015625)"/>
      <path d="M 3256 -1381 
L -53 -1381 
L -53 -1119 
L 3256 -1119 
L 3256 -1381 
z
" id="TimesNewRomanPSMT-5f" transform="scale(0.015625)"/>
      <path d="M 2869 4325 
L 2869 4209 
Q 2456 4169 2195 4045 
Q 1934 3922 1679 3669 
Q 1425 3416 1258 3105 
Q 1091 2794 978 2366 
Q 1428 2675 1881 2675 
Q 2316 2675 2634 2325 
Q 2953 1975 2953 1425 
Q 2953 894 2631 456 
Q 2244 -75 1606 -75 
Q 1172 -75 869 213 
Q 275 772 275 1663 
Q 275 2231 503 2743 
Q 731 3256 1154 3653 
Q 1578 4050 1965 4187 
Q 2353 4325 2688 4325 
L 2869 4325 
z
M 925 2138 
Q 869 1716 869 1456 
Q 869 1156 980 804 
Q 1091 453 1309 247 
Q 1469 100 1697 100 
Q 1969 100 2183 356 
Q 2397 613 2397 1088 
Q 2397 1622 2184 2012 
Q 1972 2403 1581 2403 
Q 1463 2403 1327 2353 
Q 1191 2303 925 2138 
z
" id="TimesNewRomanPSMT-36" transform="scale(0.015625)"/>
     </defs>
     <use xlink:href="#TimesNewRomanPSMT-41"/>
     <use x="72.216797" xlink:href="#TimesNewRomanPSMT-75"/>
     <use x="122.216797" xlink:href="#TimesNewRomanPSMT-74"/>
     <use x="150" xlink:href="#TimesNewRomanPSMT-6f"/>
     <use x="200" xlink:href="#TimesNewRomanPSMT-5f"/>
     <use x="250" xlink:href="#TimesNewRomanPSMT-30"/>
     <use x="300" xlink:href="#TimesNewRomanPSMT-30"/>
     <use x="350" xlink:href="#TimesNewRomanPSMT-31"/>
     <use x="400" xlink:href="#TimesNewRomanPSMT-36"/>
     <use x="450" xlink:href="#TimesNewRomanPSMT-34"/>
    </g>
    <!-- Vs: 310.33m/s -->
    <g transform="translate(80.076875 323.208)scale(0.14 -0.14)">
     <defs>
      <path d="M 903 2950 
Q 1047 2950 1148 2848 
Q 1250 2747 1250 2603 
Q 1250 2459 1148 2357 
Q 1047 2256 903 2256 
Q 759 2256 657 2357 
Q 556 2459 556 2603 
Q 556 2747 657 2848 
Q 759 2950 903 2950 
z
M 897 609 
Q 1044 609 1145 506 
Q 1247 403 1247 259 
Q 1247 116 1144 14 
Q 1041 -88 897 -88 
Q 753 -88 651 14 
Q 550 116 550 259 
Q 550 403 651 506 
Q 753 609 897 609 
z
" id="TimesNewRomanPSMT-3a" transform="scale(0.015625)"/>
      <path d="M 1794 4444 
L 259 -88 
L 9 -88 
L 1544 4444 
L 1794 4444 
z
" id="TimesNewRomanPSMT-2f" transform="scale(0.015625)"/>
     </defs>
     <use xlink:href="#TimesNewRomanPSMT-56"/>
     <use x="72.216797" xlink:href="#TimesNewRomanPSMT-73"/>
     <use x="111.132812" xlink:href="#TimesNewRomanPSMT-3a"/>
     <use x="138.916016" xlink:href="#TimesNewRomanPSMT-20"/>
     <use x="163.916016" xlink:href="#TimesNewRomanPSMT-33"/>
     <use x="213.916016" xlink:href="#TimesNewRomanPSMT-31"/>
     <use x="263.916016" xlink:href="#TimesNewRomanPSMT-30"/>
     <use x="313.916016" xlink:href="#TimesNewRomanPSMT-2e"/>
     <use x="338.916016" xlink:href="#TimesNewRomanPSMT-33"/>
     <use x="388.916016" xlink:href="#TimesNewRomanPSMT-33"/>
     <use x="438.916016" xlink:href="#TimesNewRomanPSMT-6d"/>
     <use x="516.699219" xlink:href="#TimesNewRomanPSMT-2f"/>
     <use x="544.482422" xlink:href="#TimesNewRomanPSMT-73"/>
    </g>
   </g>
  </g>
 </g>
 <defs>
  <clipPath id="pd25eabe3ca">
   <rect height="332.64" width="334.8" x="63.336875" y="7.2"/>
  </clipPath>
 </defs>
</svg>
