<?xml version="1.0" encoding="utf-8" standalone="no"?>
<!DOCTYPE svg PUBLIC "-//W3C//DTD SVG 1.1//EN"
  "http://www.w3.org/Graphics/SVG/1.1/DTD/svg11.dtd">
<svg height="383.471875pt" version="1.1" viewBox="0 0 421.086875 383.471875" width="421.086875pt" xmlns="http://www.w3.org/2000/svg" xmlns:xlink="http://www.w3.org/1999/xlink">
 <metadata>
  <rdf:RDF xmlns:cc="http://creativecommons.org/ns#" xmlns:dc="http://purl.org/dc/elements/1.1/" xmlns:rdf="http://www.w3.org/1999/02/22-rdf-syntax-ns#">
   <cc:Work>
    <dc:type rdf:resource="http://purl.org/dc/dcmitype/StillImage"/>
    <dc:date>2021-06-11T14:39:38.944952</dc:date>
    <dc:format>image/svg+xml</dc:format>
    <dc:creator>
     <cc:Agent>
      <dc:title>Matplotlib v3.4.2, https://matplotlib.org/</dc:title>
     </cc:Agent>
    </dc:creator>
   </cc:Work>
  </rdf:RDF>
 </metadata>
 <defs>
  <style type="text/css">*{stroke-linecap:butt;stroke-linejoin:round;}</style>
 </defs>
 <g id="figure_1">
  <g id="patch_1">
   <path d="M 0 383.471875 
L 421.086875 383.471875 
L 421.086875 0 
L 0 0 
z
" style="fill:#ffffff;"/>
  </g>
  <g id="axes_1">
   <g id="patch_2">
    <path d="M 63.336875 339.84 
L 398.136875 339.84 
L 398.136875 7.2 
L 63.336875 7.2 
z
" style="fill:#ffffff;"/>
   </g>
   <g id="matplotlib.axis_1">
    <g id="xtick_1">
     <g id="line2d_1">
      <path clip-path="url(#p6dde1fa892)" d="M 93.773239 339.84 
L 93.773239 7.2 
" style="fill:none;stroke:#000000;stroke-dasharray:0.5,0.825;stroke-dashoffset:0;stroke-width:0.5;"/>
     </g>
     <g id="line2d_2">
      <defs>
       <path d="M 0 0 
L 0 3.5 
" id="md4b15975b2" style="stroke:#000000;stroke-width:0.8;"/>
      </defs>
      <g>
       <use style="stroke:#000000;stroke-width:0.8;" x="93.773239" xlink:href="#md4b15975b2" y="339.84"/>
      </g>
     </g>
     <g id="text_1">
      <!-- 0.000 -->
      <g transform="translate(78.023239 356.56125)scale(0.14 -0.14)">
       <defs>
        <path d="M 231 2094 
Q 231 2819 450 3342 
Q 669 3866 1031 4122 
Q 1313 4325 1613 4325 
Q 2100 4325 2488 3828 
Q 2972 3213 2972 2159 
Q 2972 1422 2759 906 
Q 2547 391 2217 158 
Q 1888 -75 1581 -75 
Q 975 -75 572 641 
Q 231 1244 231 2094 
z
M 844 2016 
Q 844 1141 1059 588 
Q 1238 122 1591 122 
Q 1759 122 1940 273 
Q 2122 425 2216 781 
Q 2359 1319 2359 2297 
Q 2359 3022 2209 3506 
Q 2097 3866 1919 4016 
Q 1791 4119 1609 4119 
Q 1397 4119 1231 3928 
Q 1006 3669 925 3112 
Q 844 2556 844 2016 
z
" id="TimesNewRomanPSMT-30" transform="scale(0.015625)"/>
        <path d="M 800 606 
Q 947 606 1047 504 
Q 1147 403 1147 259 
Q 1147 116 1045 14 
Q 944 -88 800 -88 
Q 656 -88 554 14 
Q 453 116 453 259 
Q 453 406 554 506 
Q 656 606 800 606 
z
" id="TimesNewRomanPSMT-2e" transform="scale(0.015625)"/>
       </defs>
       <use xlink:href="#TimesNewRomanPSMT-30"/>
       <use x="50" xlink:href="#TimesNewRomanPSMT-2e"/>
       <use x="75" xlink:href="#TimesNewRomanPSMT-30"/>
       <use x="125" xlink:href="#TimesNewRomanPSMT-30"/>
       <use x="175" xlink:href="#TimesNewRomanPSMT-30"/>
      </g>
     </g>
    </g>
    <g id="xtick_2">
     <g id="line2d_3">
      <path clip-path="url(#p6dde1fa892)" d="M 154.645966 339.84 
L 154.645966 7.2 
" style="fill:none;stroke:#000000;stroke-dasharray:0.5,0.825;stroke-dashoffset:0;stroke-width:0.5;"/>
     </g>
     <g id="line2d_4">
      <g>
       <use style="stroke:#000000;stroke-width:0.8;" x="154.645966" xlink:href="#md4b15975b2" y="339.84"/>
      </g>
     </g>
     <g id="text_2">
      <!-- 0.001 -->
      <g transform="translate(138.895966 356.56125)scale(0.14 -0.14)">
       <defs>
        <path d="M 750 3822 
L 1781 4325 
L 1884 4325 
L 1884 747 
Q 1884 391 1914 303 
Q 1944 216 2037 169 
Q 2131 122 2419 116 
L 2419 0 
L 825 0 
L 825 116 
Q 1125 122 1212 167 
Q 1300 213 1334 289 
Q 1369 366 1369 747 
L 1369 3034 
Q 1369 3497 1338 3628 
Q 1316 3728 1258 3775 
Q 1200 3822 1119 3822 
Q 1003 3822 797 3725 
L 750 3822 
z
" id="TimesNewRomanPSMT-31" transform="scale(0.015625)"/>
       </defs>
       <use xlink:href="#TimesNewRomanPSMT-30"/>
       <use x="50" xlink:href="#TimesNewRomanPSMT-2e"/>
       <use x="75" xlink:href="#TimesNewRomanPSMT-30"/>
       <use x="125" xlink:href="#TimesNewRomanPSMT-30"/>
       <use x="175" xlink:href="#TimesNewRomanPSMT-31"/>
      </g>
     </g>
    </g>
    <g id="xtick_3">
     <g id="line2d_5">
      <path clip-path="url(#p6dde1fa892)" d="M 215.518693 339.84 
L 215.518693 7.2 
" style="fill:none;stroke:#000000;stroke-dasharray:0.5,0.825;stroke-dashoffset:0;stroke-width:0.5;"/>
     </g>
     <g id="line2d_6">
      <g>
       <use style="stroke:#000000;stroke-width:0.8;" x="215.518693" xlink:href="#md4b15975b2" y="339.84"/>
      </g>
     </g>
     <g id="text_3">
      <!-- 0.002 -->
      <g transform="translate(199.768693 356.56125)scale(0.14 -0.14)">
       <defs>
        <path d="M 2934 816 
L 2638 0 
L 138 0 
L 138 116 
Q 1241 1122 1691 1759 
Q 2141 2397 2141 2925 
Q 2141 3328 1894 3587 
Q 1647 3847 1303 3847 
Q 991 3847 742 3664 
Q 494 3481 375 3128 
L 259 3128 
Q 338 3706 661 4015 
Q 984 4325 1469 4325 
Q 1984 4325 2329 3994 
Q 2675 3663 2675 3213 
Q 2675 2891 2525 2569 
Q 2294 2063 1775 1497 
Q 997 647 803 472 
L 1909 472 
Q 2247 472 2383 497 
Q 2519 522 2628 598 
Q 2738 675 2819 816 
L 2934 816 
z
" id="TimesNewRomanPSMT-32" transform="scale(0.015625)"/>
       </defs>
       <use xlink:href="#TimesNewRomanPSMT-30"/>
       <use x="50" xlink:href="#TimesNewRomanPSMT-2e"/>
       <use x="75" xlink:href="#TimesNewRomanPSMT-30"/>
       <use x="125" xlink:href="#TimesNewRomanPSMT-30"/>
       <use x="175" xlink:href="#TimesNewRomanPSMT-32"/>
      </g>
     </g>
    </g>
    <g id="xtick_4">
     <g id="line2d_7">
      <path clip-path="url(#p6dde1fa892)" d="M 276.39142 339.84 
L 276.39142 7.2 
" style="fill:none;stroke:#000000;stroke-dasharray:0.5,0.825;stroke-dashoffset:0;stroke-width:0.5;"/>
     </g>
     <g id="line2d_8">
      <g>
       <use style="stroke:#000000;stroke-width:0.8;" x="276.39142" xlink:href="#md4b15975b2" y="339.84"/>
      </g>
     </g>
     <g id="text_4">
      <!-- 0.003 -->
      <g transform="translate(260.64142 356.56125)scale(0.14 -0.14)">
       <defs>
        <path d="M 325 3431 
Q 506 3859 782 4092 
Q 1059 4325 1472 4325 
Q 1981 4325 2253 3994 
Q 2459 3747 2459 3466 
Q 2459 3003 1878 2509 
Q 2269 2356 2469 2072 
Q 2669 1788 2669 1403 
Q 2669 853 2319 450 
Q 1863 -75 997 -75 
Q 569 -75 414 31 
Q 259 138 259 259 
Q 259 350 332 419 
Q 406 488 509 488 
Q 588 488 669 463 
Q 722 447 909 348 
Q 1097 250 1169 231 
Q 1284 197 1416 197 
Q 1734 197 1970 444 
Q 2206 691 2206 1028 
Q 2206 1275 2097 1509 
Q 2016 1684 1919 1775 
Q 1784 1900 1550 2001 
Q 1316 2103 1072 2103 
L 972 2103 
L 972 2197 
Q 1219 2228 1467 2375 
Q 1716 2522 1828 2728 
Q 1941 2934 1941 3181 
Q 1941 3503 1739 3701 
Q 1538 3900 1238 3900 
Q 753 3900 428 3381 
L 325 3431 
z
" id="TimesNewRomanPSMT-33" transform="scale(0.015625)"/>
       </defs>
       <use xlink:href="#TimesNewRomanPSMT-30"/>
       <use x="50" xlink:href="#TimesNewRomanPSMT-2e"/>
       <use x="75" xlink:href="#TimesNewRomanPSMT-30"/>
       <use x="125" xlink:href="#TimesNewRomanPSMT-30"/>
       <use x="175" xlink:href="#TimesNewRomanPSMT-33"/>
      </g>
     </g>
    </g>
    <g id="xtick_5">
     <g id="line2d_9">
      <path clip-path="url(#p6dde1fa892)" d="M 337.264148 339.84 
L 337.264148 7.2 
" style="fill:none;stroke:#000000;stroke-dasharray:0.5,0.825;stroke-dashoffset:0;stroke-width:0.5;"/>
     </g>
     <g id="line2d_10">
      <g>
       <use style="stroke:#000000;stroke-width:0.8;" x="337.264148" xlink:href="#md4b15975b2" y="339.84"/>
      </g>
     </g>
     <g id="text_5">
      <!-- 0.004 -->
      <g transform="translate(321.514148 356.56125)scale(0.14 -0.14)">
       <defs>
        <path d="M 2978 1563 
L 2978 1119 
L 2409 1119 
L 2409 0 
L 1894 0 
L 1894 1119 
L 100 1119 
L 100 1519 
L 2066 4325 
L 2409 4325 
L 2409 1563 
L 2978 1563 
z
M 1894 1563 
L 1894 3666 
L 406 1563 
L 1894 1563 
z
" id="TimesNewRomanPSMT-34" transform="scale(0.015625)"/>
       </defs>
       <use xlink:href="#TimesNewRomanPSMT-30"/>
       <use x="50" xlink:href="#TimesNewRomanPSMT-2e"/>
       <use x="75" xlink:href="#TimesNewRomanPSMT-30"/>
       <use x="125" xlink:href="#TimesNewRomanPSMT-30"/>
       <use x="175" xlink:href="#TimesNewRomanPSMT-34"/>
      </g>
     </g>
    </g>
    <g id="xtick_6">
     <g id="line2d_11">
      <path clip-path="url(#p6dde1fa892)" d="M 398.136875 339.84 
L 398.136875 7.2 
" style="fill:none;stroke:#000000;stroke-dasharray:0.5,0.825;stroke-dashoffset:0;stroke-width:0.5;"/>
     </g>
     <g id="line2d_12">
      <g>
       <use style="stroke:#000000;stroke-width:0.8;" x="398.136875" xlink:href="#md4b15975b2" y="339.84"/>
      </g>
     </g>
     <g id="text_6">
      <!-- 0.005 -->
      <g transform="translate(382.386875 356.56125)scale(0.14 -0.14)">
       <defs>
        <path d="M 2778 4238 
L 2534 3706 
L 1259 3706 
L 981 3138 
Q 1809 3016 2294 2522 
Q 2709 2097 2709 1522 
Q 2709 1188 2573 903 
Q 2438 619 2231 419 
Q 2025 219 1772 97 
Q 1413 -75 1034 -75 
Q 653 -75 479 54 
Q 306 184 306 341 
Q 306 428 378 495 
Q 450 563 559 563 
Q 641 563 702 538 
Q 763 513 909 409 
Q 1144 247 1384 247 
Q 1750 247 2026 523 
Q 2303 800 2303 1197 
Q 2303 1581 2056 1914 
Q 1809 2247 1375 2428 
Q 1034 2569 447 2591 
L 1259 4238 
L 2778 4238 
z
" id="TimesNewRomanPSMT-35" transform="scale(0.015625)"/>
       </defs>
       <use xlink:href="#TimesNewRomanPSMT-30"/>
       <use x="50" xlink:href="#TimesNewRomanPSMT-2e"/>
       <use x="75" xlink:href="#TimesNewRomanPSMT-30"/>
       <use x="125" xlink:href="#TimesNewRomanPSMT-30"/>
       <use x="175" xlink:href="#TimesNewRomanPSMT-35"/>
      </g>
     </g>
    </g>
    <g id="text_7">
     <!-- Time (sec) -->
     <g transform="translate(200.858906 373.277188)scale(0.14 -0.14)">
      <defs>
       <path d="M 3703 4238 
L 3750 3244 
L 3631 3244 
Q 3597 3506 3538 3619 
Q 3441 3800 3280 3886 
Q 3119 3972 2856 3972 
L 2259 3972 
L 2259 734 
Q 2259 344 2344 247 
Q 2463 116 2709 116 
L 2856 116 
L 2856 0 
L 1059 0 
L 1059 116 
L 1209 116 
Q 1478 116 1591 278 
Q 1659 378 1659 734 
L 1659 3972 
L 1150 3972 
Q 853 3972 728 3928 
Q 566 3869 450 3700 
Q 334 3531 313 3244 
L 194 3244 
L 244 4238 
L 3703 4238 
z
" id="TimesNewRomanPSMT-54" transform="scale(0.015625)"/>
       <path d="M 928 4444 
Q 1059 4444 1151 4351 
Q 1244 4259 1244 4128 
Q 1244 3997 1151 3903 
Q 1059 3809 928 3809 
Q 797 3809 703 3903 
Q 609 3997 609 4128 
Q 609 4259 701 4351 
Q 794 4444 928 4444 
z
M 1188 2947 
L 1188 647 
Q 1188 378 1227 289 
Q 1266 200 1342 156 
Q 1419 113 1622 113 
L 1622 0 
L 231 0 
L 231 113 
Q 441 113 512 153 
Q 584 194 626 287 
Q 669 381 669 647 
L 669 1750 
Q 669 2216 641 2353 
Q 619 2453 572 2492 
Q 525 2531 444 2531 
Q 356 2531 231 2484 
L 188 2597 
L 1050 2947 
L 1188 2947 
z
" id="TimesNewRomanPSMT-69" transform="scale(0.015625)"/>
       <path d="M 1050 2338 
Q 1363 2650 1419 2697 
Q 1559 2816 1721 2881 
Q 1884 2947 2044 2947 
Q 2313 2947 2506 2790 
Q 2700 2634 2766 2338 
Q 3088 2713 3309 2830 
Q 3531 2947 3766 2947 
Q 3994 2947 4170 2830 
Q 4347 2713 4450 2447 
Q 4519 2266 4519 1878 
L 4519 647 
Q 4519 378 4559 278 
Q 4591 209 4675 161 
Q 4759 113 4950 113 
L 4950 0 
L 3538 0 
L 3538 113 
L 3597 113 
Q 3781 113 3884 184 
Q 3956 234 3988 344 
Q 4000 397 4000 647 
L 4000 1878 
Q 4000 2228 3916 2372 
Q 3794 2572 3525 2572 
Q 3359 2572 3192 2489 
Q 3025 2406 2788 2181 
L 2781 2147 
L 2788 2013 
L 2788 647 
Q 2788 353 2820 281 
Q 2853 209 2943 161 
Q 3034 113 3253 113 
L 3253 0 
L 1806 0 
L 1806 113 
Q 2044 113 2133 169 
Q 2222 225 2256 338 
Q 2272 391 2272 647 
L 2272 1878 
Q 2272 2228 2169 2381 
Q 2031 2581 1784 2581 
Q 1616 2581 1450 2491 
Q 1191 2353 1050 2181 
L 1050 647 
Q 1050 366 1089 281 
Q 1128 197 1204 155 
Q 1281 113 1516 113 
L 1516 0 
L 100 0 
L 100 113 
Q 297 113 375 155 
Q 453 197 493 289 
Q 534 381 534 647 
L 534 1741 
Q 534 2213 506 2350 
Q 484 2453 437 2492 
Q 391 2531 309 2531 
Q 222 2531 100 2484 
L 53 2597 
L 916 2947 
L 1050 2947 
L 1050 2338 
z
" id="TimesNewRomanPSMT-6d" transform="scale(0.015625)"/>
       <path d="M 681 1784 
Q 678 1147 991 784 
Q 1303 422 1725 422 
Q 2006 422 2214 576 
Q 2422 731 2563 1106 
L 2659 1044 
Q 2594 616 2278 264 
Q 1963 -88 1488 -88 
Q 972 -88 605 314 
Q 238 716 238 1394 
Q 238 2128 614 2539 
Q 991 2950 1559 2950 
Q 2041 2950 2350 2633 
Q 2659 2316 2659 1784 
L 681 1784 
z
M 681 1966 
L 2006 1966 
Q 1991 2241 1941 2353 
Q 1863 2528 1708 2628 
Q 1553 2728 1384 2728 
Q 1125 2728 920 2526 
Q 716 2325 681 1966 
z
" id="TimesNewRomanPSMT-65" transform="scale(0.015625)"/>
       <path id="TimesNewRomanPSMT-20" transform="scale(0.015625)"/>
       <path d="M 1988 -1253 
L 1988 -1369 
Q 1516 -1131 1200 -813 
Q 750 -359 506 256 
Q 263 872 263 1534 
Q 263 2503 741 3301 
Q 1219 4100 1988 4444 
L 1988 4313 
Q 1603 4100 1356 3731 
Q 1109 3363 987 2797 
Q 866 2231 866 1616 
Q 866 947 969 400 
Q 1050 -31 1165 -292 
Q 1281 -553 1476 -793 
Q 1672 -1034 1988 -1253 
z
" id="TimesNewRomanPSMT-28" transform="scale(0.015625)"/>
       <path d="M 2050 2947 
L 2050 1972 
L 1947 1972 
Q 1828 2431 1642 2597 
Q 1456 2763 1169 2763 
Q 950 2763 815 2647 
Q 681 2531 681 2391 
Q 681 2216 781 2091 
Q 878 1963 1175 1819 
L 1631 1597 
Q 2266 1288 2266 781 
Q 2266 391 1970 151 
Q 1675 -88 1309 -88 
Q 1047 -88 709 6 
Q 606 38 541 38 
Q 469 38 428 -44 
L 325 -44 
L 325 978 
L 428 978 
Q 516 541 762 319 
Q 1009 97 1316 97 
Q 1531 97 1667 223 
Q 1803 350 1803 528 
Q 1803 744 1651 891 
Q 1500 1038 1047 1263 
Q 594 1488 453 1669 
Q 313 1847 313 2119 
Q 313 2472 555 2709 
Q 797 2947 1181 2947 
Q 1350 2947 1591 2875 
Q 1750 2828 1803 2828 
Q 1853 2828 1881 2850 
Q 1909 2872 1947 2947 
L 2050 2947 
z
" id="TimesNewRomanPSMT-73" transform="scale(0.015625)"/>
       <path d="M 2631 1088 
Q 2516 522 2178 217 
Q 1841 -88 1431 -88 
Q 944 -88 581 321 
Q 219 731 219 1428 
Q 219 2103 620 2525 
Q 1022 2947 1584 2947 
Q 2006 2947 2278 2723 
Q 2550 2500 2550 2259 
Q 2550 2141 2473 2067 
Q 2397 1994 2259 1994 
Q 2075 1994 1981 2113 
Q 1928 2178 1911 2362 
Q 1894 2547 1784 2644 
Q 1675 2738 1481 2738 
Q 1169 2738 978 2506 
Q 725 2200 725 1697 
Q 725 1184 976 792 
Q 1228 400 1656 400 
Q 1963 400 2206 609 
Q 2378 753 2541 1131 
L 2631 1088 
z
" id="TimesNewRomanPSMT-63" transform="scale(0.015625)"/>
       <path d="M 144 4313 
L 144 4444 
Q 619 4209 934 3891 
Q 1381 3434 1625 2820 
Q 1869 2206 1869 1541 
Q 1869 572 1392 -226 
Q 916 -1025 144 -1369 
L 144 -1253 
Q 528 -1038 776 -670 
Q 1025 -303 1145 264 
Q 1266 831 1266 1447 
Q 1266 2113 1163 2663 
Q 1084 3094 967 3353 
Q 850 3613 656 3853 
Q 463 4094 144 4313 
z
" id="TimesNewRomanPSMT-29" transform="scale(0.015625)"/>
      </defs>
      <use xlink:href="#TimesNewRomanPSMT-54"/>
      <use x="57.583984" xlink:href="#TimesNewRomanPSMT-69"/>
      <use x="85.367188" xlink:href="#TimesNewRomanPSMT-6d"/>
      <use x="163.150391" xlink:href="#TimesNewRomanPSMT-65"/>
      <use x="207.535156" xlink:href="#TimesNewRomanPSMT-20"/>
      <use x="232.535156" xlink:href="#TimesNewRomanPSMT-28"/>
      <use x="265.835938" xlink:href="#TimesNewRomanPSMT-73"/>
      <use x="304.751953" xlink:href="#TimesNewRomanPSMT-65"/>
      <use x="349.136719" xlink:href="#TimesNewRomanPSMT-63"/>
      <use x="393.521484" xlink:href="#TimesNewRomanPSMT-29"/>
     </g>
    </g>
   </g>
   <g id="matplotlib.axis_2">
    <g id="ytick_1">
     <g id="line2d_13">
      <path clip-path="url(#p6dde1fa892)" d="M 63.336875 328.695018 
L 398.136875 328.695018 
" style="fill:none;stroke:#000000;stroke-dasharray:0.5,0.825;stroke-dashoffset:0;stroke-width:0.5;"/>
     </g>
     <g id="line2d_14">
      <defs>
       <path d="M 0 0 
L -3.5 0 
" id="m964d2b52ea" style="stroke:#000000;stroke-width:0.8;"/>
      </defs>
      <g>
       <use style="stroke:#000000;stroke-width:0.8;" x="63.336875" xlink:href="#m964d2b52ea" y="328.695018"/>
      </g>
     </g>
     <g id="text_8">
      <!-- −0.06 -->
      <g transform="translate(23.942188 333.555643)scale(0.14 -0.14)">
       <defs>
        <path d="M 3484 2000 
L 116 2000 
L 116 2256 
L 3484 2256 
L 3484 2000 
z
" id="TimesNewRomanPSMT-2212" transform="scale(0.015625)"/>
        <path d="M 2869 4325 
L 2869 4209 
Q 2456 4169 2195 4045 
Q 1934 3922 1679 3669 
Q 1425 3416 1258 3105 
Q 1091 2794 978 2366 
Q 1428 2675 1881 2675 
Q 2316 2675 2634 2325 
Q 2953 1975 2953 1425 
Q 2953 894 2631 456 
Q 2244 -75 1606 -75 
Q 1172 -75 869 213 
Q 275 772 275 1663 
Q 275 2231 503 2743 
Q 731 3256 1154 3653 
Q 1578 4050 1965 4187 
Q 2353 4325 2688 4325 
L 2869 4325 
z
M 925 2138 
Q 869 1716 869 1456 
Q 869 1156 980 804 
Q 1091 453 1309 247 
Q 1469 100 1697 100 
Q 1969 100 2183 356 
Q 2397 613 2397 1088 
Q 2397 1622 2184 2012 
Q 1972 2403 1581 2403 
Q 1463 2403 1327 2353 
Q 1191 2303 925 2138 
z
" id="TimesNewRomanPSMT-36" transform="scale(0.015625)"/>
       </defs>
       <use xlink:href="#TimesNewRomanPSMT-2212"/>
       <use x="56.396484" xlink:href="#TimesNewRomanPSMT-30"/>
       <use x="106.396484" xlink:href="#TimesNewRomanPSMT-2e"/>
       <use x="131.396484" xlink:href="#TimesNewRomanPSMT-30"/>
       <use x="181.396484" xlink:href="#TimesNewRomanPSMT-36"/>
      </g>
     </g>
    </g>
    <g id="ytick_2">
     <g id="line2d_15">
      <path clip-path="url(#p6dde1fa892)" d="M 63.336875 270.416658 
L 398.136875 270.416658 
" style="fill:none;stroke:#000000;stroke-dasharray:0.5,0.825;stroke-dashoffset:0;stroke-width:0.5;"/>
     </g>
     <g id="line2d_16">
      <g>
       <use style="stroke:#000000;stroke-width:0.8;" x="63.336875" xlink:href="#m964d2b52ea" y="270.416658"/>
      </g>
     </g>
     <g id="text_9">
      <!-- −0.04 -->
      <g transform="translate(23.942188 275.277283)scale(0.14 -0.14)">
       <use xlink:href="#TimesNewRomanPSMT-2212"/>
       <use x="56.396484" xlink:href="#TimesNewRomanPSMT-30"/>
       <use x="106.396484" xlink:href="#TimesNewRomanPSMT-2e"/>
       <use x="131.396484" xlink:href="#TimesNewRomanPSMT-30"/>
       <use x="181.396484" xlink:href="#TimesNewRomanPSMT-34"/>
      </g>
     </g>
    </g>
    <g id="ytick_3">
     <g id="line2d_17">
      <path clip-path="url(#p6dde1fa892)" d="M 63.336875 212.138298 
L 398.136875 212.138298 
" style="fill:none;stroke:#000000;stroke-dasharray:0.5,0.825;stroke-dashoffset:0;stroke-width:0.5;"/>
     </g>
     <g id="line2d_18">
      <g>
       <use style="stroke:#000000;stroke-width:0.8;" x="63.336875" xlink:href="#m964d2b52ea" y="212.138298"/>
      </g>
     </g>
     <g id="text_10">
      <!-- −0.02 -->
      <g transform="translate(23.942188 216.998923)scale(0.14 -0.14)">
       <use xlink:href="#TimesNewRomanPSMT-2212"/>
       <use x="56.396484" xlink:href="#TimesNewRomanPSMT-30"/>
       <use x="106.396484" xlink:href="#TimesNewRomanPSMT-2e"/>
       <use x="131.396484" xlink:href="#TimesNewRomanPSMT-30"/>
       <use x="181.396484" xlink:href="#TimesNewRomanPSMT-32"/>
      </g>
     </g>
    </g>
    <g id="ytick_4">
     <g id="line2d_19">
      <path clip-path="url(#p6dde1fa892)" d="M 63.336875 153.859938 
L 398.136875 153.859938 
" style="fill:none;stroke:#000000;stroke-dasharray:0.5,0.825;stroke-dashoffset:0;stroke-width:0.5;"/>
     </g>
     <g id="line2d_20">
      <g>
       <use style="stroke:#000000;stroke-width:0.8;" x="63.336875" xlink:href="#m964d2b52ea" y="153.859938"/>
      </g>
     </g>
     <g id="text_11">
      <!-- 0.00 -->
      <g transform="translate(31.836875 158.720563)scale(0.14 -0.14)">
       <use xlink:href="#TimesNewRomanPSMT-30"/>
       <use x="50" xlink:href="#TimesNewRomanPSMT-2e"/>
       <use x="75" xlink:href="#TimesNewRomanPSMT-30"/>
       <use x="125" xlink:href="#TimesNewRomanPSMT-30"/>
      </g>
     </g>
    </g>
    <g id="ytick_5">
     <g id="line2d_21">
      <path clip-path="url(#p6dde1fa892)" d="M 63.336875 95.581578 
L 398.136875 95.581578 
" style="fill:none;stroke:#000000;stroke-dasharray:0.5,0.825;stroke-dashoffset:0;stroke-width:0.5;"/>
     </g>
     <g id="line2d_22">
      <g>
       <use style="stroke:#000000;stroke-width:0.8;" x="63.336875" xlink:href="#m964d2b52ea" y="95.581578"/>
      </g>
     </g>
     <g id="text_12">
      <!-- 0.02 -->
      <g transform="translate(31.836875 100.442203)scale(0.14 -0.14)">
       <use xlink:href="#TimesNewRomanPSMT-30"/>
       <use x="50" xlink:href="#TimesNewRomanPSMT-2e"/>
       <use x="75" xlink:href="#TimesNewRomanPSMT-30"/>
       <use x="125" xlink:href="#TimesNewRomanPSMT-32"/>
      </g>
     </g>
    </g>
    <g id="ytick_6">
     <g id="line2d_23">
      <path clip-path="url(#p6dde1fa892)" d="M 63.336875 37.303218 
L 398.136875 37.303218 
" style="fill:none;stroke:#000000;stroke-dasharray:0.5,0.825;stroke-dashoffset:0;stroke-width:0.5;"/>
     </g>
     <g id="line2d_24">
      <g>
       <use style="stroke:#000000;stroke-width:0.8;" x="63.336875" xlink:href="#m964d2b52ea" y="37.303218"/>
      </g>
     </g>
     <g id="text_13">
      <!-- 0.04 -->
      <g transform="translate(31.836875 42.163843)scale(0.14 -0.14)">
       <use xlink:href="#TimesNewRomanPSMT-30"/>
       <use x="50" xlink:href="#TimesNewRomanPSMT-2e"/>
       <use x="75" xlink:href="#TimesNewRomanPSMT-30"/>
       <use x="125" xlink:href="#TimesNewRomanPSMT-34"/>
      </g>
     </g>
    </g>
    <g id="text_14">
     <!-- Volatage (V) -->
     <g transform="translate(16.92125 209.352344)rotate(-90)scale(0.14 -0.14)">
      <defs>
       <path d="M 4544 4238 
L 4544 4122 
Q 4319 4081 4203 3978 
Q 4038 3825 3909 3509 
L 2431 -97 
L 2316 -97 
L 728 3556 
Q 606 3838 556 3900 
Q 478 3997 364 4051 
Q 250 4106 56 4122 
L 56 4238 
L 1788 4238 
L 1788 4122 
Q 1494 4094 1406 4022 
Q 1319 3950 1319 3838 
Q 1319 3681 1463 3350 
L 2541 866 
L 3541 3319 
Q 3688 3681 3688 3822 
Q 3688 3913 3597 3995 
Q 3506 4078 3291 4113 
Q 3275 4116 3238 4122 
L 3238 4238 
L 4544 4238 
z
" id="TimesNewRomanPSMT-56" transform="scale(0.015625)"/>
       <path d="M 1600 2947 
Q 2250 2947 2644 2453 
Q 2978 2031 2978 1484 
Q 2978 1100 2793 706 
Q 2609 313 2286 112 
Q 1963 -88 1566 -88 
Q 919 -88 538 428 
Q 216 863 216 1403 
Q 216 1797 411 2186 
Q 606 2575 925 2761 
Q 1244 2947 1600 2947 
z
M 1503 2744 
Q 1338 2744 1170 2645 
Q 1003 2547 900 2300 
Q 797 2053 797 1666 
Q 797 1041 1045 587 
Q 1294 134 1700 134 
Q 2003 134 2200 384 
Q 2397 634 2397 1244 
Q 2397 2006 2069 2444 
Q 1847 2744 1503 2744 
z
" id="TimesNewRomanPSMT-6f" transform="scale(0.015625)"/>
       <path d="M 1184 4444 
L 1184 647 
Q 1184 378 1223 290 
Q 1263 203 1344 158 
Q 1425 113 1647 113 
L 1647 0 
L 244 0 
L 244 113 
Q 441 113 512 153 
Q 584 194 625 287 
Q 666 381 666 647 
L 666 3247 
Q 666 3731 644 3842 
Q 622 3953 573 3993 
Q 525 4034 450 4034 
Q 369 4034 244 3984 
L 191 4094 
L 1044 4444 
L 1184 4444 
z
" id="TimesNewRomanPSMT-6c" transform="scale(0.015625)"/>
       <path d="M 1822 413 
Q 1381 72 1269 19 
Q 1100 -59 909 -59 
Q 613 -59 420 144 
Q 228 347 228 678 
Q 228 888 322 1041 
Q 450 1253 767 1440 
Q 1084 1628 1822 1897 
L 1822 2009 
Q 1822 2438 1686 2597 
Q 1550 2756 1291 2756 
Q 1094 2756 978 2650 
Q 859 2544 859 2406 
L 866 2225 
Q 866 2081 792 2003 
Q 719 1925 600 1925 
Q 484 1925 411 2006 
Q 338 2088 338 2228 
Q 338 2497 613 2722 
Q 888 2947 1384 2947 
Q 1766 2947 2009 2819 
Q 2194 2722 2281 2516 
Q 2338 2381 2338 1966 
L 2338 994 
Q 2338 584 2353 492 
Q 2369 400 2405 369 
Q 2441 338 2488 338 
Q 2538 338 2575 359 
Q 2641 400 2828 588 
L 2828 413 
Q 2478 -56 2159 -56 
Q 2006 -56 1915 50 
Q 1825 156 1822 413 
z
M 1822 616 
L 1822 1706 
Q 1350 1519 1213 1441 
Q 966 1303 859 1153 
Q 753 1003 753 825 
Q 753 600 887 451 
Q 1022 303 1197 303 
Q 1434 303 1822 616 
z
" id="TimesNewRomanPSMT-61" transform="scale(0.015625)"/>
       <path d="M 1031 3803 
L 1031 2863 
L 1700 2863 
L 1700 2644 
L 1031 2644 
L 1031 788 
Q 1031 509 1111 412 
Q 1191 316 1316 316 
Q 1419 316 1516 380 
Q 1613 444 1666 569 
L 1788 569 
Q 1678 263 1478 108 
Q 1278 -47 1066 -47 
Q 922 -47 784 33 
Q 647 113 581 261 
Q 516 409 516 719 
L 516 2644 
L 63 2644 
L 63 2747 
Q 234 2816 414 2980 
Q 594 3144 734 3369 
Q 806 3488 934 3803 
L 1031 3803 
z
" id="TimesNewRomanPSMT-74" transform="scale(0.015625)"/>
       <path d="M 966 1044 
Q 703 1172 562 1401 
Q 422 1631 422 1909 
Q 422 2334 742 2640 
Q 1063 2947 1563 2947 
Q 1972 2947 2272 2747 
L 2878 2747 
Q 3013 2747 3034 2739 
Q 3056 2731 3066 2713 
Q 3084 2684 3084 2613 
Q 3084 2531 3069 2500 
Q 3059 2484 3036 2475 
Q 3013 2466 2878 2466 
L 2506 2466 
Q 2681 2241 2681 1891 
Q 2681 1491 2375 1206 
Q 2069 922 1553 922 
Q 1341 922 1119 984 
Q 981 866 932 777 
Q 884 688 884 625 
Q 884 572 936 522 
Q 988 472 1138 450 
Q 1225 438 1575 428 
Q 2219 413 2409 384 
Q 2700 344 2873 169 
Q 3047 -6 3047 -263 
Q 3047 -616 2716 -925 
Q 2228 -1381 1444 -1381 
Q 841 -1381 425 -1109 
Q 191 -953 191 -784 
Q 191 -709 225 -634 
Q 278 -519 444 -313 
Q 466 -284 763 25 
Q 600 122 533 198 
Q 466 275 466 372 
Q 466 481 555 628 
Q 644 775 966 1044 
z
M 1509 2797 
Q 1278 2797 1122 2612 
Q 966 2428 966 2047 
Q 966 1553 1178 1281 
Q 1341 1075 1591 1075 
Q 1828 1075 1981 1253 
Q 2134 1431 2134 1813 
Q 2134 2309 1919 2591 
Q 1759 2797 1509 2797 
z
M 934 0 
Q 788 -159 713 -296 
Q 638 -434 638 -550 
Q 638 -700 819 -813 
Q 1131 -1006 1722 -1006 
Q 2284 -1006 2551 -807 
Q 2819 -609 2819 -384 
Q 2819 -222 2659 -153 
Q 2497 -84 2016 -72 
Q 1313 -53 934 0 
z
" id="TimesNewRomanPSMT-67" transform="scale(0.015625)"/>
      </defs>
      <use xlink:href="#TimesNewRomanPSMT-56"/>
      <use x="59.341797" xlink:href="#TimesNewRomanPSMT-6f"/>
      <use x="109.341797" xlink:href="#TimesNewRomanPSMT-6c"/>
      <use x="137.125" xlink:href="#TimesNewRomanPSMT-61"/>
      <use x="181.509766" xlink:href="#TimesNewRomanPSMT-74"/>
      <use x="209.292969" xlink:href="#TimesNewRomanPSMT-61"/>
      <use x="253.677734" xlink:href="#TimesNewRomanPSMT-67"/>
      <use x="303.677734" xlink:href="#TimesNewRomanPSMT-65"/>
      <use x="348.0625" xlink:href="#TimesNewRomanPSMT-20"/>
      <use x="373.0625" xlink:href="#TimesNewRomanPSMT-28"/>
      <use x="406.363281" xlink:href="#TimesNewRomanPSMT-56"/>
      <use x="478.580078" xlink:href="#TimesNewRomanPSMT-29"/>
     </g>
    </g>
   </g>
   <g id="LineCollection_1">
    <path clip-path="url(#p6dde1fa892)" d="M 78.555057 153.859938 
L 382.918693 153.859938 
" style="fill:none;stroke:#1f77b4;stroke-width:1.5;"/>
   </g>
   <g id="line2d_25">
    <path clip-path="url(#p6dde1fa892)" d="M 78.555057 153.818706 
L 78.676802 153.891554 
L 78.798548 153.891554 
L 94.199348 153.964402 
L 94.229784 154.03725 
L 94.290657 153.964402 
L 98.916984 153.891554 
L 99.03873 153.85513 
L 106.160839 153.745858 
L 106.282584 153.745858 
L 112.09593 153.85513 
L 112.187239 153.891554 
L 112.217675 153.85513 
L 113.252511 153.927978 
L 113.374257 154.000826 
L 114.074293 154.073674 
L 114.196039 154.110098 
L 114.622148 154.21937 
L 114.804766 154.292218 
L 115.474366 154.40149 
L 115.626548 154.437914 
L 116.083093 154.547186 
L 116.235275 154.58361 
L 116.722257 154.692882 
L 116.904875 154.765729 
L 116.996184 154.729305 
L 117.02662 154.765729 
L 117.330984 154.838577 
L 117.45273 154.875001 
L 117.483166 154.838577 
L 117.513602 154.911425 
L 117.604911 154.911425 
L 117.726657 154.911425 
L 118.518002 155.020697 
L 118.639748 155.020697 
L 119.157166 155.129969 
L 119.309348 155.166393 
L 119.765893 155.275665 
L 119.918075 155.312089 
L 120.496366 155.384937 
L 120.618111 155.494209 
L 120.70942 155.494209 
L 120.861602 155.603481 
L 121.105093 155.676329 
L 121.226839 155.749177 
L 121.439893 155.822025 
L 121.652948 156.076993 
L 121.683384 156.040569 
L 121.71382 156.113416 
L 122.444293 156.87832 
L 122.47473 156.841896 
L 122.535602 156.914744 
L 122.779093 157.278984 
L 122.900839 157.388256 
L 123.174766 157.825343 
L 123.266075 157.934615 
L 123.692184 158.699519 
L 123.905239 159.100183 
L 125.914039 164.163115 
L 126.187966 165.146562 
L 127.49673 170.245918 
L 128.531566 174.689644 
L 128.866366 176.183026 
L 129.109857 177.31217 
L 130.266439 182.338678 
L 131.331711 186.56386 
L 131.788257 188.239363 
L 132.336111 189.805593 
L 132.457857 190.096985 
L 133.005711 191.189704 
L 133.066584 191.262552 
L 133.279639 191.51752 
L 133.462257 191.626792 
L 133.705748 191.772488 
L 133.797057 191.772488 
L 134.040548 191.918184 
L 134.19273 191.88176 
L 134.405784 191.991032 
L 134.831893 191.88176 
L 135.044948 191.736064 
L 135.075384 191.772488 
L 135.136257 191.69964 
L 135.958039 190.570497 
L 136.384148 189.332082 
L 136.810257 187.765851 
L 136.962439 187.183067 
L 138.240766 180.590327 
L 140.249566 165.437954 
L 143.323639 131.162992 
L 144.693275 113.53379 
L 145.57593 101.513881 
L 148.49782 64.507125 
L 149.623966 52.305088 
L 150.810984 41.997106 
L 151.632766 36.897749 
L 152.819784 31.725545 
L 153.245893 30.596398 
L 153.428511 30.232165 
L 153.672002 29.904349 
L 153.915493 29.72222 
L 154.098111 29.795068 
L 154.28073 29.867919 
L 154.493784 30.159314 
L 154.585093 30.268583 
L 155.346002 32.308328 
L 156.472148 38.172585 
L 158.146148 53.069988 
L 159.333166 68.586602 
L 160.489748 86.68932 
L 162.711602 128.504043 
L 169.133675 264.511163 
L 170.472875 286.584098 
L 171.842511 304.686811 
L 172.846911 314.339158 
L 173.27302 317.471632 
L 173.486075 318.637196 
L 174.064366 321.441839 
L 174.490475 323.00807 
L 175.099202 324.210067 
L 175.220948 324.319333 
L 175.434002 324.574301 
L 175.677493 324.72 
L 175.920984 324.647149 
L 177.260184 321.223293 
L 178.142839 316.488182 
L 179.268984 307.600723 
L 180.669057 293.176835 
L 182.130002 274.41849 
L 183.286584 256.24293 
L 185.812802 212.097066 
L 186.725893 195.779125 
L 188.278148 168.169752 
L 189.860839 141.725946 
L 190.895675 125.335158 
L 191.717457 113.424518 
L 193.056657 95.758893 
L 194.730657 78.894589 
L 195.735057 70.334955 
L 196.222039 66.036923 
L 197.074257 59.808424 
L 197.865602 54.891196 
L 198.565639 51.977272 
L 199.174366 49.536863 
L 199.72222 47.970632 
L 200.544002 45.348103 
L 200.604875 45.275266 
L 201.030984 44.510354 
L 201.213602 44.14612 
L 201.639711 43.34479 
L 201.761457 43.271939 
L 201.913639 43.126243 
L 202.06582 43.162673 
L 202.765857 43.053404 
L 202.918039 42.980553 
L 203.009348 43.016974 
L 203.039784 42.944123 
L 203.100657 43.053404 
L 203.313711 43.162673 
L 203.73982 43.563336 
L 203.861566 43.563336 
L 204.07462 43.672605 
L 204.226802 43.781874 
L 204.652911 44.437506 
L 205.41382 46.003734 
L 205.596439 46.367983 
L 206.326911 48.589842 
L 207.057384 50.593158 
L 208.640075 56.675962 
L 210.77062 66.364739 
L 210.983675 67.129645 
L 212.048948 71.719069 
L 212.231566 72.374701 
L 214.45342 83.48401 
L 214.909966 86.033688 
L 215.092584 87.089987 
L 216.55353 96.487366 
L 217.405748 101.841697 
L 217.831857 104.391375 
L 221.788584 133.603399 
L 223.188657 146.24252 
L 225.867057 172.868446 
L 226.780148 183.431397 
L 227.662802 194.103623 
L 232.836984 254.749538 
L 234.87622 273.252926 
L 235.941493 280.137049 
L 236.55022 282.54104 
L 237.158948 284.325806 
L 237.250257 284.435084 
L 237.493748 284.580774 
L 237.950293 284.471505 
L 238.102475 284.398654 
L 238.22422 284.398654 
L 238.437275 284.289388 
L 238.741639 283.815873 
L 239.198184 282.54104 
L 239.259057 282.431759 
L 239.746039 281.011227 
L 240.111275 279.2993 
L 240.841748 274.855575 
L 241.32873 271.286029 
L 241.876584 266.550909 
L 242.728802 258.574058 
L 243.489711 250.779328 
L 245.224584 230.964685 
L 246.563784 211.914943 
L 250.885748 146.351791 
L 252.71193 123.768927 
L 254.081566 110.14636 
L 255.29902 100.858246 
L 256.699093 93.136364 
L 257.06433 91.897951 
L 257.64262 90.186022 
L 257.855675 89.821782 
L 258.06873 89.457539 
L 258.342657 89.056881 
L 258.677457 88.510519 
L 258.98182 88.03701 
L 259.103566 87.964159 
L 259.31662 87.709191 
L 259.347057 87.745618 
L 259.40793 87.672767 
L 259.560111 87.563495 
L 259.712293 87.417802 
L 259.864475 87.308528 
L 260.260148 86.944288 
L 260.381893 86.944288 
L 260.473202 86.871437 
L 260.503639 86.907864 
L 260.594948 86.907864 
L 260.716693 86.871437 
L 260.74713 86.907864 
L 260.777566 86.871437 
L 260.899311 86.835013 
L 261.538475 86.944288 
L 261.812402 87.126411 
L 261.964584 87.23568 
L 263.121166 88.765484 
L 263.516839 89.457539 
L 263.790766 89.89463 
L 264.00382 90.25887 
L 264.460366 91.096621 
L 264.642984 91.460861 
L 265.373457 92.954241 
L 265.525639 93.282057 
L 266.621348 96.159551 
L 267.169202 97.725787 
L 267.44313 98.636387 
L 267.869239 100.166191 
L 268.11273 100.967515 
L 268.660584 103.080109 
L 269.817166 107.596685 
L 270.182402 109.126489 
L 270.547639 110.765568 
L 270.912875 112.586766 
L 271.917275 117.904667 
L 273.37822 125.990789 
L 275.782693 137.027254 
L 275.934875 137.610037 
L 276.543602 140.050444 
L 276.756657 140.815346 
L 277.334948 143.073633 
L 279.587239 150.759092 
L 282.143893 156.623352 
L 282.448257 157.133288 
L 282.661311 157.497528 
L 283.361348 158.189583 
L 283.51353 158.298855 
L 283.909202 158.626671 
L 285.18753 158.517399 
L 286.465857 156.841896 
L 289.966039 148.71935 
L 290.239966 148.245838 
L 290.483457 147.918022 
L 291.274802 147.080271 
L 291.366111 147.116695 
L 291.487857 147.043847 
L 291.700911 147.153119 
L 291.88353 147.262391 
L 292.157457 147.480935 
L 292.187893 147.444511 
L 292.248766 147.517359 
L 293.100984 148.682926 
L 294.440184 152.143203 
L 294.835857 153.563738 
L 295.018475 154.255794 
L 297.362075 165.984314 
L 297.90993 169.1532 
L 298.396911 171.99427 
L 298.883893 175.163155 
L 304.484184 208.017584 
L 305.579893 212.752698 
L 306.52342 215.739461 
L 307.314766 217.37854 
L 307.436511 217.487814 
L 307.649566 217.742782 
L 307.740875 217.852054 
L 308.349602 218.434838 
L 309.171384 218.325563 
L 309.354002 218.216297 
L 309.384439 218.289139 
L 309.414875 218.17987 
L 309.901857 217.487814 
L 310.175784 216.905031 
L 311.058439 214.537473 
L 312.519384 207.070555 
L 313.432475 201.315567 
L 314.041202 197.090388 
L 314.619493 192.61024 
L 315.289093 187.037371 
L 315.867384 181.938015 
L 316.597857 175.891635 
L 319.945857 148.755774 
L 320.463275 145.004104 
L 322.137275 133.78552 
L 324.480875 119.143082 
L 324.815675 116.994067 
L 325.424402 113.606638 
L 325.789639 111.712591 
L 326.124439 110.109936 
L 327.128839 105.77548 
L 327.311457 105.08343 
L 329.411566 97.944328 
L 330.111602 96.523793 
L 332.120402 94.265504 
L 332.30302 94.156238 
L 332.607384 93.937688 
L 332.850875 93.828422 
L 333.003057 93.719147 
L 333.155239 93.682723 
L 333.550911 93.791995 
L 333.885711 94.046963 
L 334.037893 94.119811 
L 334.250948 94.374779 
L 334.920548 95.321802 
L 335.31622 96.050282 
L 335.437966 96.159551 
L 335.833639 96.851609 
L 336.07713 97.288697 
L 336.351057 97.87148 
L 336.503239 98.199296 
L 336.838039 99.000627 
L 337.477202 100.785398 
L 339.729493 109.272182 
L 340.490402 112.44107 
L 340.520839 112.477494 
L 340.76433 113.53379 
L 340.916511 114.152997 
L 341.43393 116.411284 
L 346.79073 142.563698 
L 348.342984 151.19618 
L 351.904039 167.732665 
L 352.117093 168.497568 
L 353.030184 171.375062 
L 353.699784 173.196261 
L 353.943275 173.851892 
L 355.221602 177.166474 
L 355.586839 178.113497 
L 355.678148 178.368465 
L 356.530366 180.663177 
L 357.047784 182.120136 
L 357.16953 182.411527 
L 357.717384 183.977757 
L 358.143493 185.106901 
L 360.76102 191.116857 
L 361.065384 191.626792 
L 361.248002 191.88176 
L 361.582802 192.42812 
L 362.161093 192.974479 
L 362.282839 193.047327 
L 362.465457 193.265871 
L 362.617639 193.375143 
L 362.830693 193.557263 
L 362.86113 193.520839 
L 362.891566 193.484415 
L 362.922002 193.557263 
L 363.074184 193.630111 
L 363.19593 193.593687 
L 363.256802 193.666535 
L 363.317675 193.630111 
L 363.469857 193.666535 
L 365.843893 193.593687 
L 365.965639 193.520839 
L 366.056948 193.520839 
L 366.20913 193.484415 
L 366.604802 193.411567 
L 366.696111 193.338719 
L 366.726548 193.375143 
L 367.335275 193.265871 
L 367.54833 193.156599 
L 367.578766 193.193023 
L 367.639639 193.120175 
L 367.79182 193.047327 
L 367.944002 193.083751 
L 368.096184 193.047327 
L 368.613602 192.938055 
L 368.857093 192.755935 
L 368.948402 192.792359 
L 369.070148 192.719511 
L 369.770184 192.61024 
L 370.044111 192.42812 
L 370.257166 192.355272 
L 370.378911 192.246 
L 370.500657 192.246 
L 370.80502 192.027456 
L 370.987639 191.954608 
L 371.170257 191.736064 
L 371.23113 191.772488 
L 371.261566 191.736064 
L 371.657239 191.408248 
L 371.870293 191.298976 
L 372.205093 191.044009 
L 372.387711 190.934737 
L 372.57033 190.752617 
L 372.752948 190.643345 
L 372.90513 190.534073 
L 373.057311 190.424801 
L 373.422548 190.133409 
L 373.544293 190.024137 
L 373.726911 189.842017 
L 373.879093 189.732745 
L 374.122584 189.40493 
L 374.213893 189.332082 
L 374.457384 188.967842 
L 374.48782 189.004266 
L 374.518257 188.894994 
L 374.761748 188.530754 
L 374.82262 188.457906 
L 375.126984 187.984395 
L 375.370475 187.547307 
L 375.644402 186.964523 
L 376.25313 185.762532 
L 376.405311 185.434716 
L 377.988002 181.391655 
L 378.474984 180.007545 
L 378.535857 179.861849 
L 378.779348 179.169793 
L 379.144584 178.040649 
L 379.540257 176.656538 
L 381.122948 170.573734 
L 382.918693 162.269069 
L 382.918693 162.269069 
" style="fill:none;stroke:#0000ff;stroke-linecap:square;stroke-width:1.5;"/>
   </g>
   <g id="line2d_26">
    <path clip-path="url(#p6dde1fa892)" d="M 78.555057 153.883395 
L 88.751239 153.792335 
L 88.90342 153.774123 
L 89.116475 153.774123 
L 89.359966 153.737699 
L 89.57302 153.737699 
L 100.560548 153.846971 
L 101.108402 154.047303 
L 101.29102 154.156575 
L 101.991057 154.702934 
L 102.995457 156.068834 
L 103.543311 157.125129 
L 103.695493 157.452945 
L 104.456402 159.383416 
L 104.943384 160.822162 
L 105.612984 163.153297 
L 106.769566 167.688081 
L 107.65222 171.385115 
L 108.169639 173.625189 
L 109.143602 177.777522 
L 111.121966 184.479534 
L 111.66982 185.772585 
L 112.156802 186.664973 
L 112.43073 187.156696 
L 112.856839 187.703056 
L 113.130766 187.866964 
L 113.43513 187.9216 
L 113.67862 187.903388 
L 114.01342 187.812328 
L 114.926511 186.555701 
L 116.083093 183.532511 
L 116.722257 180.85535 
L 117.970148 174.353669 
L 120.648548 155.995986 
L 122.352984 141.899907 
L 124.544402 123.214408 
L 125.82273 114.108414 
L 127.770657 103.108377 
L 129.17073 96.934507 
L 129.84033 94.894767 
L 130.053384 94.475895 
L 131.270839 92.508997 
L 131.483893 92.399725 
L 132.457857 90.869918 
L 132.76222 90.669586 
L 133.218766 90.505678 
L 133.340511 90.451045 
L 133.979675 90.177863 
L 134.801457 90.542102 
L 135.136257 90.451045 
L 135.318875 90.378194 
L 135.684111 90.469254 
L 136.231966 90.979193 
L 136.688511 91.088462 
L 137.297239 91.580186 
L 137.662475 92.199393 
L 138.11902 92.909664 
L 138.727748 94.639802 
L 139.306039 97.11663 
L 140.401748 102.161353 
L 142.56273 114.399806 
L 143.354075 120.318702 
L 146.428148 145.087005 
L 147.523857 155.176446 
L 148.741311 166.467878 
L 149.806584 176.320564 
L 151.51102 191.600421 
L 153.215457 204.986232 
L 154.372039 211.906784 
L 155.985166 218.208135 
L 156.776511 219.847217 
L 157.263493 220.284299 
L 157.476548 220.393573 
L 157.720039 220.521057 
L 157.96353 220.539266 
L 159.607093 218.40847 
L 160.094075 217.333957 
L 161.55502 212.635267 
L 162.89422 206.588887 
L 163.746439 201.708074 
L 164.476911 196.663354 
L 165.846548 186.91994 
L 167.794475 172.605318 
L 169.285857 164.318864 
L 170.168511 160.767526 
L 170.59462 159.237719 
L 171.081602 158.126788 
L 171.35553 157.653276 
L 171.842511 156.760889 
L 172.238184 156.433073 
L 172.786039 156.542345 
L 173.577384 157.125129 
L 174.916584 159.747655 
L 175.494875 161.805609 
L 176.834075 167.888414 
L 178.021093 174.863605 
L 179.816839 186.992788 
L 183.499639 206.261071 
L 184.290984 208.719689 
L 184.960584 210.049165 
L 185.32582 210.322344 
L 185.447566 210.358768 
L 185.630184 210.358768 
L 186.147602 209.921681 
L 187.152002 207.262728 
L 187.791166 204.567356 
L 189.252111 196.116994 
L 190.591311 184.916621 
L 193.848002 148.674767 
L 195.430693 130.134964 
L 200.970111 74.91622 
L 201.761457 68.815201 
L 203.16153 60.310203 
L 203.800693 57.177741 
L 204.318111 54.955879 
L 204.774657 53.681034 
L 205.474693 52.642953 
L 205.74862 52.752231 
L 205.900802 52.952566 
L 207.08782 55.301909 
L 208.609639 60.200934 
L 210.557566 70.035404 
L 213.54033 90.396404 
L 216.12742 109.773961 
L 218.47102 128.477672 
L 221.179857 147.14496 
L 223.980002 163.244356 
L 224.680039 167.105298 
L 225.714875 172.62353 
L 226.688839 177.267587 
L 227.997602 183.004363 
L 229.488984 188.777563 
L 230.249893 191.108698 
L 233.993566 202.636886 
L 234.419675 204.148484 
L 236.124111 209.867045 
L 236.428475 210.613736 
L 237.158948 212.45315 
L 238.802511 215.184945 
L 239.685166 215.585609 
L 240.202584 215.694884 
L 240.598257 215.804153 
L 240.99393 215.89521 
L 241.176548 215.968061 
L 243.124475 216.077332 
L 244.189748 216.842239 
L 245.133275 218.135287 
L 251.098802 229.044265 
L 251.464039 229.809171 
L 252.255384 231.029374 
L 252.651057 231.393617 
L 252.924984 231.575734 
L 254.325057 231.466459 
L 254.812039 231.08401 
L 255.116402 230.62871 
L 255.420766 230.118778 
L 256.364293 227.605518 
L 258.038293 220.156818 
L 259.98622 205.368681 
L 261.08193 193.822284 
L 261.873275 184.188143 
L 263.638584 158.399968 
L 266.895275 104.000758 
L 269.208439 67.085062 
L 270.69982 48.071745 
L 271.430293 40.60483 
L 272.617311 30.934264 
L 273.37822 26.618023 
L 274.321748 23.103113 
L 274.626111 22.629601 
L 275.326148 22.338215 
L 275.691384 22.666031 
L 276.14793 23.704111 
L 276.634911 25.142858 
L 277.091457 26.854788 
L 277.548002 29.240552 
L 279.008948 39.512113 
L 281.596039 65.3185 
L 283.75702 91.124886 
L 286.86153 128.750854 
L 288.018111 142.391631 
L 291.031311 175.391752 
L 293.527093 198.247797 
L 294.774984 207.09882 
L 296.022875 214.583952 
L 298.336039 226.458168 
L 300.070911 232.285998 
L 300.892693 233.979719 
L 301.440548 234.74462 
L 301.562293 234.835677 
L 301.775348 235.017799 
L 302.627566 235.436675 
L 302.901493 235.254558 
L 302.992802 235.145283 
L 303.17542 234.908528 
L 304.149384 232.322425 
L 304.60593 230.300895 
L 305.792948 224.108816 
L 307.680002 212.179967 
L 309.232257 200.943171 
L 316.476111 153.956243 
L 317.419639 149.548942 
L 317.937057 147.126748 
L 318.850148 143.775743 
L 321.224184 137.000883 
L 322.563384 134.815443 
L 325.089602 131.628347 
L 325.485275 130.772383 
L 326.915784 127.985948 
L 327.402766 127.093562 
L 327.585384 126.729322 
L 329.228948 122.522352 
L 332.272584 113.762386 
L 333.550911 110.429593 
L 333.916148 109.518993 
L 334.342257 108.590182 
L 334.768366 107.825281 
L 336.351057 106.095137 
L 336.685857 105.767321 
L 337.111966 105.421296 
L 337.842439 105.111689 
L 338.603348 105.202755 
L 338.907711 105.421296 
L 339.029457 105.512356 
L 340.09473 106.932891 
L 340.520839 107.8617 
L 341.373057 110.174628 
L 342.255711 113.161391 
L 344.264511 122.030629 
L 345.086293 127.038925 
L 346.425493 136.618431 
L 347.551639 144.75919 
L 353.334548 188.886835 
L 355.252039 201.871982 
L 357.047784 211.979635 
L 358.295675 216.732964 
L 359.117457 219.282642 
L 359.574002 220.102182 
L 360.030548 220.484633 
L 360.821893 220.411783 
L 361.034948 220.211457 
L 361.156693 220.102182 
L 362.495893 218.353828 
L 363.682911 215.257793 
L 365.935202 205.368681 
L 366.939602 199.358728 
L 369.13102 182.822243 
L 370.165857 173.242738 
L 372.47902 150.805569 
L 373.757348 139.168109 
L 375.461784 124.871699 
L 378.048875 107.078584 
L 379.083711 101.560355 
L 380.088111 97.280538 
L 380.879457 94.439468 
L 381.396875 92.982506 
L 381.883857 91.853365 
L 382.918693 90.196078 
L 382.918693 90.196078 
" style="fill:none;stroke:#ff0000;stroke-linecap:square;stroke-width:1.5;"/>
   </g>
   <g id="line2d_27">
    <path clip-path="url(#p6dde1fa892)" d="M 125.305311 162.414764 
" style="fill:none;stroke:#ffffff;stroke-linecap:square;stroke-width:1.5;"/>
    <defs>
     <path d="M 0 -5 
L -1.12257 -1.545085 
L -4.755283 -1.545085 
L -1.816356 0.59017 
L -2.938926 4.045085 
L -0 1.90983 
L 2.938926 4.045085 
L 1.816356 0.59017 
L 4.755283 -1.545085 
L 1.12257 -1.545085 
z
" id="m6a4357213f" style="stroke:#ffffff;stroke-linejoin:bevel;"/>
    </defs>
    <g clip-path="url(#p6dde1fa892)">
     <use style="fill:#0000ff;stroke:#ffffff;stroke-linejoin:bevel;" x="125.305311" xlink:href="#m6a4357213f" y="162.414764"/>
    </g>
   </g>
   <g id="line2d_28">
    <path clip-path="url(#p6dde1fa892)" d="M 104.821639 160.457923 
" style="fill:none;stroke:#ffffff;stroke-linecap:square;stroke-width:1.5;"/>
    <defs>
     <path d="M 0 -5 
L -1.12257 -1.545085 
L -4.755283 -1.545085 
L -1.816356 0.59017 
L -2.938926 4.045085 
L -0 1.90983 
L 2.938926 4.045085 
L 1.816356 0.59017 
L 4.755283 -1.545085 
L 1.12257 -1.545085 
z
" id="mb80777963e" style="stroke:#ffffff;stroke-linejoin:bevel;"/>
    </defs>
    <g clip-path="url(#p6dde1fa892)">
     <use style="fill:#ff0000;stroke:#ffffff;stroke-linejoin:bevel;" x="104.821639" xlink:href="#mb80777963e" y="160.457923"/>
    </g>
   </g>
   <g id="patch_3">
    <path d="M 63.336875 339.84 
L 63.336875 7.2 
" style="fill:none;stroke:#000000;stroke-linecap:square;stroke-linejoin:miter;stroke-width:0.8;"/>
   </g>
   <g id="patch_4">
    <path d="M 398.136875 339.84 
L 398.136875 7.2 
" style="fill:none;stroke:#000000;stroke-linecap:square;stroke-linejoin:miter;stroke-width:0.8;"/>
   </g>
   <g id="patch_5">
    <path d="M 63.336875 339.84 
L 398.136875 339.84 
" style="fill:none;stroke:#000000;stroke-linecap:square;stroke-linejoin:miter;stroke-width:0.8;"/>
   </g>
   <g id="patch_6">
    <path d="M 63.336875 7.2 
L 398.136875 7.2 
" style="fill:none;stroke:#000000;stroke-linecap:square;stroke-linejoin:miter;stroke-width:0.8;"/>
   </g>
   <g id="text_15">
    <g id="patch_7">
     <path d="M 75.036875 331.242688 
L 166.79375 331.242688 
L 166.79375 293.760312 
L 75.036875 293.760312 
z
" style="fill:#ffffff;stroke:#000000;stroke-linejoin:miter;stroke-width:0.75;"/>
    </g>
    <!-- Auto_00102 -->
    <g transform="translate(80.076875 308.521562)scale(0.14 -0.14)">
     <defs>
      <path d="M 2928 1419 
L 1288 1419 
L 1000 750 
Q 894 503 894 381 
Q 894 284 986 211 
Q 1078 138 1384 116 
L 1384 0 
L 50 0 
L 50 116 
Q 316 163 394 238 
Q 553 388 747 847 
L 2238 4334 
L 2347 4334 
L 3822 809 
Q 4000 384 4145 257 
Q 4291 131 4550 116 
L 4550 0 
L 2878 0 
L 2878 116 
Q 3131 128 3220 200 
Q 3309 272 3309 375 
Q 3309 513 3184 809 
L 2928 1419 
z
M 2841 1650 
L 2122 3363 
L 1384 1650 
L 2841 1650 
z
" id="TimesNewRomanPSMT-41" transform="scale(0.015625)"/>
      <path d="M 2709 2863 
L 2709 1128 
Q 2709 631 2732 520 
Q 2756 409 2807 365 
Q 2859 322 2928 322 
Q 3025 322 3147 375 
L 3191 266 
L 2334 -88 
L 2194 -88 
L 2194 519 
Q 1825 119 1631 15 
Q 1438 -88 1222 -88 
Q 981 -88 804 51 
Q 628 191 559 409 
Q 491 628 491 1028 
L 491 2306 
Q 491 2509 447 2587 
Q 403 2666 317 2708 
Q 231 2750 6 2747 
L 6 2863 
L 1009 2863 
L 1009 947 
Q 1009 547 1148 422 
Q 1288 297 1484 297 
Q 1619 297 1789 381 
Q 1959 466 2194 703 
L 2194 2325 
Q 2194 2569 2105 2655 
Q 2016 2741 1734 2747 
L 1734 2863 
L 2709 2863 
z
" id="TimesNewRomanPSMT-75" transform="scale(0.015625)"/>
      <path d="M 3256 -1381 
L -53 -1381 
L -53 -1119 
L 3256 -1119 
L 3256 -1381 
z
" id="TimesNewRomanPSMT-5f" transform="scale(0.015625)"/>
     </defs>
     <use xlink:href="#TimesNewRomanPSMT-41"/>
     <use x="72.216797" xlink:href="#TimesNewRomanPSMT-75"/>
     <use x="122.216797" xlink:href="#TimesNewRomanPSMT-74"/>
     <use x="150" xlink:href="#TimesNewRomanPSMT-6f"/>
     <use x="200" xlink:href="#TimesNewRomanPSMT-5f"/>
     <use x="250" xlink:href="#TimesNewRomanPSMT-30"/>
     <use x="300" xlink:href="#TimesNewRomanPSMT-30"/>
     <use x="350" xlink:href="#TimesNewRomanPSMT-31"/>
     <use x="400" xlink:href="#TimesNewRomanPSMT-30"/>
     <use x="450" xlink:href="#TimesNewRomanPSMT-32"/>
    </g>
    <!-- Vs: 297.02m/s -->
    <g transform="translate(80.076875 323.208)scale(0.14 -0.14)">
     <defs>
      <path d="M 903 2950 
Q 1047 2950 1148 2848 
Q 1250 2747 1250 2603 
Q 1250 2459 1148 2357 
Q 1047 2256 903 2256 
Q 759 2256 657 2357 
Q 556 2459 556 2603 
Q 556 2747 657 2848 
Q 759 2950 903 2950 
z
M 897 609 
Q 1044 609 1145 506 
Q 1247 403 1247 259 
Q 1247 116 1144 14 
Q 1041 -88 897 -88 
Q 753 -88 651 14 
Q 550 116 550 259 
Q 550 403 651 506 
Q 753 609 897 609 
z
" id="TimesNewRomanPSMT-3a" transform="scale(0.015625)"/>
      <path d="M 338 -88 
L 338 28 
Q 744 34 1094 217 
Q 1444 400 1770 856 
Q 2097 1313 2225 1859 
Q 1734 1544 1338 1544 
Q 891 1544 572 1889 
Q 253 2234 253 2806 
Q 253 3363 572 3797 
Q 956 4325 1575 4325 
Q 2097 4325 2469 3894 
Q 2925 3359 2925 2575 
Q 2925 1869 2578 1258 
Q 2231 647 1613 244 
Q 1109 -88 516 -88 
L 338 -88 
z
M 2275 2091 
Q 2331 2497 2331 2741 
Q 2331 3044 2228 3395 
Q 2125 3747 1936 3934 
Q 1747 4122 1506 4122 
Q 1228 4122 1018 3872 
Q 809 3622 809 3128 
Q 809 2469 1088 2097 
Q 1291 1828 1588 1828 
Q 1731 1828 1928 1897 
Q 2125 1966 2275 2091 
z
" id="TimesNewRomanPSMT-39" transform="scale(0.015625)"/>
      <path d="M 644 4238 
L 2916 4238 
L 2916 4119 
L 1503 -88 
L 1153 -88 
L 2419 3728 
L 1253 3728 
Q 900 3728 750 3644 
Q 488 3500 328 3200 
L 238 3234 
L 644 4238 
z
" id="TimesNewRomanPSMT-37" transform="scale(0.015625)"/>
      <path d="M 1794 4444 
L 259 -88 
L 9 -88 
L 1544 4444 
L 1794 4444 
z
" id="TimesNewRomanPSMT-2f" transform="scale(0.015625)"/>
     </defs>
     <use xlink:href="#TimesNewRomanPSMT-56"/>
     <use x="72.216797" xlink:href="#TimesNewRomanPSMT-73"/>
     <use x="111.132812" xlink:href="#TimesNewRomanPSMT-3a"/>
     <use x="138.916016" xlink:href="#TimesNewRomanPSMT-20"/>
     <use x="163.916016" xlink:href="#TimesNewRomanPSMT-32"/>
     <use x="213.916016" xlink:href="#TimesNewRomanPSMT-39"/>
     <use x="263.916016" xlink:href="#TimesNewRomanPSMT-37"/>
     <use x="313.916016" xlink:href="#TimesNewRomanPSMT-2e"/>
     <use x="338.916016" xlink:href="#TimesNewRomanPSMT-30"/>
     <use x="388.916016" xlink:href="#TimesNewRomanPSMT-32"/>
     <use x="438.916016" xlink:href="#TimesNewRomanPSMT-6d"/>
     <use x="516.699219" xlink:href="#TimesNewRomanPSMT-2f"/>
     <use x="544.482422" xlink:href="#TimesNewRomanPSMT-73"/>
    </g>
   </g>
  </g>
 </g>
 <defs>
  <clipPath id="p6dde1fa892">
   <rect height="332.64" width="334.8" x="63.336875" y="7.2"/>
  </clipPath>
 </defs>
</svg>
