<?xml version="1.0" encoding="utf-8" standalone="no"?>
<!DOCTYPE svg PUBLIC "-//W3C//DTD SVG 1.1//EN"
  "http://www.w3.org/Graphics/SVG/1.1/DTD/svg11.dtd">
<svg height="383.471875pt" version="1.1" viewBox="0 0 421.086875 383.471875" width="421.086875pt" xmlns="http://www.w3.org/2000/svg" xmlns:xlink="http://www.w3.org/1999/xlink">
 <metadata>
  <rdf:RDF xmlns:cc="http://creativecommons.org/ns#" xmlns:dc="http://purl.org/dc/elements/1.1/" xmlns:rdf="http://www.w3.org/1999/02/22-rdf-syntax-ns#">
   <cc:Work>
    <dc:type rdf:resource="http://purl.org/dc/dcmitype/StillImage"/>
    <dc:date>2021-06-11T14:39:39.082848</dc:date>
    <dc:format>image/svg+xml</dc:format>
    <dc:creator>
     <cc:Agent>
      <dc:title>Matplotlib v3.4.2, https://matplotlib.org/</dc:title>
     </cc:Agent>
    </dc:creator>
   </cc:Work>
  </rdf:RDF>
 </metadata>
 <defs>
  <style type="text/css">*{stroke-linecap:butt;stroke-linejoin:round;}</style>
 </defs>
 <g id="figure_1">
  <g id="patch_1">
   <path d="M 0 383.471875 
L 421.086875 383.471875 
L 421.086875 0 
L 0 0 
z
" style="fill:#ffffff;"/>
  </g>
  <g id="axes_1">
   <g id="patch_2">
    <path d="M 63.336875 339.84 
L 398.136875 339.84 
L 398.136875 7.2 
L 63.336875 7.2 
z
" style="fill:#ffffff;"/>
   </g>
   <g id="matplotlib.axis_1">
    <g id="xtick_1">
     <g id="line2d_1">
      <path clip-path="url(#pfe31493a32)" d="M 93.773239 339.84 
L 93.773239 7.2 
" style="fill:none;stroke:#000000;stroke-dasharray:0.5,0.825;stroke-dashoffset:0;stroke-width:0.5;"/>
     </g>
     <g id="line2d_2">
      <defs>
       <path d="M 0 0 
L 0 3.5 
" id="mabde05fcc3" style="stroke:#000000;stroke-width:0.8;"/>
      </defs>
      <g>
       <use style="stroke:#000000;stroke-width:0.8;" x="93.773239" xlink:href="#mabde05fcc3" y="339.84"/>
      </g>
     </g>
     <g id="text_1">
      <!-- 0.000 -->
      <g transform="translate(78.023239 356.56125)scale(0.14 -0.14)">
       <defs>
        <path d="M 231 2094 
Q 231 2819 450 3342 
Q 669 3866 1031 4122 
Q 1313 4325 1613 4325 
Q 2100 4325 2488 3828 
Q 2972 3213 2972 2159 
Q 2972 1422 2759 906 
Q 2547 391 2217 158 
Q 1888 -75 1581 -75 
Q 975 -75 572 641 
Q 231 1244 231 2094 
z
M 844 2016 
Q 844 1141 1059 588 
Q 1238 122 1591 122 
Q 1759 122 1940 273 
Q 2122 425 2216 781 
Q 2359 1319 2359 2297 
Q 2359 3022 2209 3506 
Q 2097 3866 1919 4016 
Q 1791 4119 1609 4119 
Q 1397 4119 1231 3928 
Q 1006 3669 925 3112 
Q 844 2556 844 2016 
z
" id="TimesNewRomanPSMT-30" transform="scale(0.015625)"/>
        <path d="M 800 606 
Q 947 606 1047 504 
Q 1147 403 1147 259 
Q 1147 116 1045 14 
Q 944 -88 800 -88 
Q 656 -88 554 14 
Q 453 116 453 259 
Q 453 406 554 506 
Q 656 606 800 606 
z
" id="TimesNewRomanPSMT-2e" transform="scale(0.015625)"/>
       </defs>
       <use xlink:href="#TimesNewRomanPSMT-30"/>
       <use x="50" xlink:href="#TimesNewRomanPSMT-2e"/>
       <use x="75" xlink:href="#TimesNewRomanPSMT-30"/>
       <use x="125" xlink:href="#TimesNewRomanPSMT-30"/>
       <use x="175" xlink:href="#TimesNewRomanPSMT-30"/>
      </g>
     </g>
    </g>
    <g id="xtick_2">
     <g id="line2d_3">
      <path clip-path="url(#pfe31493a32)" d="M 154.645966 339.84 
L 154.645966 7.2 
" style="fill:none;stroke:#000000;stroke-dasharray:0.5,0.825;stroke-dashoffset:0;stroke-width:0.5;"/>
     </g>
     <g id="line2d_4">
      <g>
       <use style="stroke:#000000;stroke-width:0.8;" x="154.645966" xlink:href="#mabde05fcc3" y="339.84"/>
      </g>
     </g>
     <g id="text_2">
      <!-- 0.001 -->
      <g transform="translate(138.895966 356.56125)scale(0.14 -0.14)">
       <defs>
        <path d="M 750 3822 
L 1781 4325 
L 1884 4325 
L 1884 747 
Q 1884 391 1914 303 
Q 1944 216 2037 169 
Q 2131 122 2419 116 
L 2419 0 
L 825 0 
L 825 116 
Q 1125 122 1212 167 
Q 1300 213 1334 289 
Q 1369 366 1369 747 
L 1369 3034 
Q 1369 3497 1338 3628 
Q 1316 3728 1258 3775 
Q 1200 3822 1119 3822 
Q 1003 3822 797 3725 
L 750 3822 
z
" id="TimesNewRomanPSMT-31" transform="scale(0.015625)"/>
       </defs>
       <use xlink:href="#TimesNewRomanPSMT-30"/>
       <use x="50" xlink:href="#TimesNewRomanPSMT-2e"/>
       <use x="75" xlink:href="#TimesNewRomanPSMT-30"/>
       <use x="125" xlink:href="#TimesNewRomanPSMT-30"/>
       <use x="175" xlink:href="#TimesNewRomanPSMT-31"/>
      </g>
     </g>
    </g>
    <g id="xtick_3">
     <g id="line2d_5">
      <path clip-path="url(#pfe31493a32)" d="M 215.518693 339.84 
L 215.518693 7.2 
" style="fill:none;stroke:#000000;stroke-dasharray:0.5,0.825;stroke-dashoffset:0;stroke-width:0.5;"/>
     </g>
     <g id="line2d_6">
      <g>
       <use style="stroke:#000000;stroke-width:0.8;" x="215.518693" xlink:href="#mabde05fcc3" y="339.84"/>
      </g>
     </g>
     <g id="text_3">
      <!-- 0.002 -->
      <g transform="translate(199.768693 356.56125)scale(0.14 -0.14)">
       <defs>
        <path d="M 2934 816 
L 2638 0 
L 138 0 
L 138 116 
Q 1241 1122 1691 1759 
Q 2141 2397 2141 2925 
Q 2141 3328 1894 3587 
Q 1647 3847 1303 3847 
Q 991 3847 742 3664 
Q 494 3481 375 3128 
L 259 3128 
Q 338 3706 661 4015 
Q 984 4325 1469 4325 
Q 1984 4325 2329 3994 
Q 2675 3663 2675 3213 
Q 2675 2891 2525 2569 
Q 2294 2063 1775 1497 
Q 997 647 803 472 
L 1909 472 
Q 2247 472 2383 497 
Q 2519 522 2628 598 
Q 2738 675 2819 816 
L 2934 816 
z
" id="TimesNewRomanPSMT-32" transform="scale(0.015625)"/>
       </defs>
       <use xlink:href="#TimesNewRomanPSMT-30"/>
       <use x="50" xlink:href="#TimesNewRomanPSMT-2e"/>
       <use x="75" xlink:href="#TimesNewRomanPSMT-30"/>
       <use x="125" xlink:href="#TimesNewRomanPSMT-30"/>
       <use x="175" xlink:href="#TimesNewRomanPSMT-32"/>
      </g>
     </g>
    </g>
    <g id="xtick_4">
     <g id="line2d_7">
      <path clip-path="url(#pfe31493a32)" d="M 276.39142 339.84 
L 276.39142 7.2 
" style="fill:none;stroke:#000000;stroke-dasharray:0.5,0.825;stroke-dashoffset:0;stroke-width:0.5;"/>
     </g>
     <g id="line2d_8">
      <g>
       <use style="stroke:#000000;stroke-width:0.8;" x="276.39142" xlink:href="#mabde05fcc3" y="339.84"/>
      </g>
     </g>
     <g id="text_4">
      <!-- 0.003 -->
      <g transform="translate(260.64142 356.56125)scale(0.14 -0.14)">
       <defs>
        <path d="M 325 3431 
Q 506 3859 782 4092 
Q 1059 4325 1472 4325 
Q 1981 4325 2253 3994 
Q 2459 3747 2459 3466 
Q 2459 3003 1878 2509 
Q 2269 2356 2469 2072 
Q 2669 1788 2669 1403 
Q 2669 853 2319 450 
Q 1863 -75 997 -75 
Q 569 -75 414 31 
Q 259 138 259 259 
Q 259 350 332 419 
Q 406 488 509 488 
Q 588 488 669 463 
Q 722 447 909 348 
Q 1097 250 1169 231 
Q 1284 197 1416 197 
Q 1734 197 1970 444 
Q 2206 691 2206 1028 
Q 2206 1275 2097 1509 
Q 2016 1684 1919 1775 
Q 1784 1900 1550 2001 
Q 1316 2103 1072 2103 
L 972 2103 
L 972 2197 
Q 1219 2228 1467 2375 
Q 1716 2522 1828 2728 
Q 1941 2934 1941 3181 
Q 1941 3503 1739 3701 
Q 1538 3900 1238 3900 
Q 753 3900 428 3381 
L 325 3431 
z
" id="TimesNewRomanPSMT-33" transform="scale(0.015625)"/>
       </defs>
       <use xlink:href="#TimesNewRomanPSMT-30"/>
       <use x="50" xlink:href="#TimesNewRomanPSMT-2e"/>
       <use x="75" xlink:href="#TimesNewRomanPSMT-30"/>
       <use x="125" xlink:href="#TimesNewRomanPSMT-30"/>
       <use x="175" xlink:href="#TimesNewRomanPSMT-33"/>
      </g>
     </g>
    </g>
    <g id="xtick_5">
     <g id="line2d_9">
      <path clip-path="url(#pfe31493a32)" d="M 337.264148 339.84 
L 337.264148 7.2 
" style="fill:none;stroke:#000000;stroke-dasharray:0.5,0.825;stroke-dashoffset:0;stroke-width:0.5;"/>
     </g>
     <g id="line2d_10">
      <g>
       <use style="stroke:#000000;stroke-width:0.8;" x="337.264148" xlink:href="#mabde05fcc3" y="339.84"/>
      </g>
     </g>
     <g id="text_5">
      <!-- 0.004 -->
      <g transform="translate(321.514148 356.56125)scale(0.14 -0.14)">
       <defs>
        <path d="M 2978 1563 
L 2978 1119 
L 2409 1119 
L 2409 0 
L 1894 0 
L 1894 1119 
L 100 1119 
L 100 1519 
L 2066 4325 
L 2409 4325 
L 2409 1563 
L 2978 1563 
z
M 1894 1563 
L 1894 3666 
L 406 1563 
L 1894 1563 
z
" id="TimesNewRomanPSMT-34" transform="scale(0.015625)"/>
       </defs>
       <use xlink:href="#TimesNewRomanPSMT-30"/>
       <use x="50" xlink:href="#TimesNewRomanPSMT-2e"/>
       <use x="75" xlink:href="#TimesNewRomanPSMT-30"/>
       <use x="125" xlink:href="#TimesNewRomanPSMT-30"/>
       <use x="175" xlink:href="#TimesNewRomanPSMT-34"/>
      </g>
     </g>
    </g>
    <g id="xtick_6">
     <g id="line2d_11">
      <path clip-path="url(#pfe31493a32)" d="M 398.136875 339.84 
L 398.136875 7.2 
" style="fill:none;stroke:#000000;stroke-dasharray:0.5,0.825;stroke-dashoffset:0;stroke-width:0.5;"/>
     </g>
     <g id="line2d_12">
      <g>
       <use style="stroke:#000000;stroke-width:0.8;" x="398.136875" xlink:href="#mabde05fcc3" y="339.84"/>
      </g>
     </g>
     <g id="text_6">
      <!-- 0.005 -->
      <g transform="translate(382.386875 356.56125)scale(0.14 -0.14)">
       <defs>
        <path d="M 2778 4238 
L 2534 3706 
L 1259 3706 
L 981 3138 
Q 1809 3016 2294 2522 
Q 2709 2097 2709 1522 
Q 2709 1188 2573 903 
Q 2438 619 2231 419 
Q 2025 219 1772 97 
Q 1413 -75 1034 -75 
Q 653 -75 479 54 
Q 306 184 306 341 
Q 306 428 378 495 
Q 450 563 559 563 
Q 641 563 702 538 
Q 763 513 909 409 
Q 1144 247 1384 247 
Q 1750 247 2026 523 
Q 2303 800 2303 1197 
Q 2303 1581 2056 1914 
Q 1809 2247 1375 2428 
Q 1034 2569 447 2591 
L 1259 4238 
L 2778 4238 
z
" id="TimesNewRomanPSMT-35" transform="scale(0.015625)"/>
       </defs>
       <use xlink:href="#TimesNewRomanPSMT-30"/>
       <use x="50" xlink:href="#TimesNewRomanPSMT-2e"/>
       <use x="75" xlink:href="#TimesNewRomanPSMT-30"/>
       <use x="125" xlink:href="#TimesNewRomanPSMT-30"/>
       <use x="175" xlink:href="#TimesNewRomanPSMT-35"/>
      </g>
     </g>
    </g>
    <g id="text_7">
     <!-- Time (sec) -->
     <g transform="translate(200.858906 373.277188)scale(0.14 -0.14)">
      <defs>
       <path d="M 3703 4238 
L 3750 3244 
L 3631 3244 
Q 3597 3506 3538 3619 
Q 3441 3800 3280 3886 
Q 3119 3972 2856 3972 
L 2259 3972 
L 2259 734 
Q 2259 344 2344 247 
Q 2463 116 2709 116 
L 2856 116 
L 2856 0 
L 1059 0 
L 1059 116 
L 1209 116 
Q 1478 116 1591 278 
Q 1659 378 1659 734 
L 1659 3972 
L 1150 3972 
Q 853 3972 728 3928 
Q 566 3869 450 3700 
Q 334 3531 313 3244 
L 194 3244 
L 244 4238 
L 3703 4238 
z
" id="TimesNewRomanPSMT-54" transform="scale(0.015625)"/>
       <path d="M 928 4444 
Q 1059 4444 1151 4351 
Q 1244 4259 1244 4128 
Q 1244 3997 1151 3903 
Q 1059 3809 928 3809 
Q 797 3809 703 3903 
Q 609 3997 609 4128 
Q 609 4259 701 4351 
Q 794 4444 928 4444 
z
M 1188 2947 
L 1188 647 
Q 1188 378 1227 289 
Q 1266 200 1342 156 
Q 1419 113 1622 113 
L 1622 0 
L 231 0 
L 231 113 
Q 441 113 512 153 
Q 584 194 626 287 
Q 669 381 669 647 
L 669 1750 
Q 669 2216 641 2353 
Q 619 2453 572 2492 
Q 525 2531 444 2531 
Q 356 2531 231 2484 
L 188 2597 
L 1050 2947 
L 1188 2947 
z
" id="TimesNewRomanPSMT-69" transform="scale(0.015625)"/>
       <path d="M 1050 2338 
Q 1363 2650 1419 2697 
Q 1559 2816 1721 2881 
Q 1884 2947 2044 2947 
Q 2313 2947 2506 2790 
Q 2700 2634 2766 2338 
Q 3088 2713 3309 2830 
Q 3531 2947 3766 2947 
Q 3994 2947 4170 2830 
Q 4347 2713 4450 2447 
Q 4519 2266 4519 1878 
L 4519 647 
Q 4519 378 4559 278 
Q 4591 209 4675 161 
Q 4759 113 4950 113 
L 4950 0 
L 3538 0 
L 3538 113 
L 3597 113 
Q 3781 113 3884 184 
Q 3956 234 3988 344 
Q 4000 397 4000 647 
L 4000 1878 
Q 4000 2228 3916 2372 
Q 3794 2572 3525 2572 
Q 3359 2572 3192 2489 
Q 3025 2406 2788 2181 
L 2781 2147 
L 2788 2013 
L 2788 647 
Q 2788 353 2820 281 
Q 2853 209 2943 161 
Q 3034 113 3253 113 
L 3253 0 
L 1806 0 
L 1806 113 
Q 2044 113 2133 169 
Q 2222 225 2256 338 
Q 2272 391 2272 647 
L 2272 1878 
Q 2272 2228 2169 2381 
Q 2031 2581 1784 2581 
Q 1616 2581 1450 2491 
Q 1191 2353 1050 2181 
L 1050 647 
Q 1050 366 1089 281 
Q 1128 197 1204 155 
Q 1281 113 1516 113 
L 1516 0 
L 100 0 
L 100 113 
Q 297 113 375 155 
Q 453 197 493 289 
Q 534 381 534 647 
L 534 1741 
Q 534 2213 506 2350 
Q 484 2453 437 2492 
Q 391 2531 309 2531 
Q 222 2531 100 2484 
L 53 2597 
L 916 2947 
L 1050 2947 
L 1050 2338 
z
" id="TimesNewRomanPSMT-6d" transform="scale(0.015625)"/>
       <path d="M 681 1784 
Q 678 1147 991 784 
Q 1303 422 1725 422 
Q 2006 422 2214 576 
Q 2422 731 2563 1106 
L 2659 1044 
Q 2594 616 2278 264 
Q 1963 -88 1488 -88 
Q 972 -88 605 314 
Q 238 716 238 1394 
Q 238 2128 614 2539 
Q 991 2950 1559 2950 
Q 2041 2950 2350 2633 
Q 2659 2316 2659 1784 
L 681 1784 
z
M 681 1966 
L 2006 1966 
Q 1991 2241 1941 2353 
Q 1863 2528 1708 2628 
Q 1553 2728 1384 2728 
Q 1125 2728 920 2526 
Q 716 2325 681 1966 
z
" id="TimesNewRomanPSMT-65" transform="scale(0.015625)"/>
       <path id="TimesNewRomanPSMT-20" transform="scale(0.015625)"/>
       <path d="M 1988 -1253 
L 1988 -1369 
Q 1516 -1131 1200 -813 
Q 750 -359 506 256 
Q 263 872 263 1534 
Q 263 2503 741 3301 
Q 1219 4100 1988 4444 
L 1988 4313 
Q 1603 4100 1356 3731 
Q 1109 3363 987 2797 
Q 866 2231 866 1616 
Q 866 947 969 400 
Q 1050 -31 1165 -292 
Q 1281 -553 1476 -793 
Q 1672 -1034 1988 -1253 
z
" id="TimesNewRomanPSMT-28" transform="scale(0.015625)"/>
       <path d="M 2050 2947 
L 2050 1972 
L 1947 1972 
Q 1828 2431 1642 2597 
Q 1456 2763 1169 2763 
Q 950 2763 815 2647 
Q 681 2531 681 2391 
Q 681 2216 781 2091 
Q 878 1963 1175 1819 
L 1631 1597 
Q 2266 1288 2266 781 
Q 2266 391 1970 151 
Q 1675 -88 1309 -88 
Q 1047 -88 709 6 
Q 606 38 541 38 
Q 469 38 428 -44 
L 325 -44 
L 325 978 
L 428 978 
Q 516 541 762 319 
Q 1009 97 1316 97 
Q 1531 97 1667 223 
Q 1803 350 1803 528 
Q 1803 744 1651 891 
Q 1500 1038 1047 1263 
Q 594 1488 453 1669 
Q 313 1847 313 2119 
Q 313 2472 555 2709 
Q 797 2947 1181 2947 
Q 1350 2947 1591 2875 
Q 1750 2828 1803 2828 
Q 1853 2828 1881 2850 
Q 1909 2872 1947 2947 
L 2050 2947 
z
" id="TimesNewRomanPSMT-73" transform="scale(0.015625)"/>
       <path d="M 2631 1088 
Q 2516 522 2178 217 
Q 1841 -88 1431 -88 
Q 944 -88 581 321 
Q 219 731 219 1428 
Q 219 2103 620 2525 
Q 1022 2947 1584 2947 
Q 2006 2947 2278 2723 
Q 2550 2500 2550 2259 
Q 2550 2141 2473 2067 
Q 2397 1994 2259 1994 
Q 2075 1994 1981 2113 
Q 1928 2178 1911 2362 
Q 1894 2547 1784 2644 
Q 1675 2738 1481 2738 
Q 1169 2738 978 2506 
Q 725 2200 725 1697 
Q 725 1184 976 792 
Q 1228 400 1656 400 
Q 1963 400 2206 609 
Q 2378 753 2541 1131 
L 2631 1088 
z
" id="TimesNewRomanPSMT-63" transform="scale(0.015625)"/>
       <path d="M 144 4313 
L 144 4444 
Q 619 4209 934 3891 
Q 1381 3434 1625 2820 
Q 1869 2206 1869 1541 
Q 1869 572 1392 -226 
Q 916 -1025 144 -1369 
L 144 -1253 
Q 528 -1038 776 -670 
Q 1025 -303 1145 264 
Q 1266 831 1266 1447 
Q 1266 2113 1163 2663 
Q 1084 3094 967 3353 
Q 850 3613 656 3853 
Q 463 4094 144 4313 
z
" id="TimesNewRomanPSMT-29" transform="scale(0.015625)"/>
      </defs>
      <use xlink:href="#TimesNewRomanPSMT-54"/>
      <use x="57.583984" xlink:href="#TimesNewRomanPSMT-69"/>
      <use x="85.367188" xlink:href="#TimesNewRomanPSMT-6d"/>
      <use x="163.150391" xlink:href="#TimesNewRomanPSMT-65"/>
      <use x="207.535156" xlink:href="#TimesNewRomanPSMT-20"/>
      <use x="232.535156" xlink:href="#TimesNewRomanPSMT-28"/>
      <use x="265.835938" xlink:href="#TimesNewRomanPSMT-73"/>
      <use x="304.751953" xlink:href="#TimesNewRomanPSMT-65"/>
      <use x="349.136719" xlink:href="#TimesNewRomanPSMT-63"/>
      <use x="393.521484" xlink:href="#TimesNewRomanPSMT-29"/>
     </g>
    </g>
   </g>
   <g id="matplotlib.axis_2">
    <g id="ytick_1">
     <g id="line2d_13">
      <path clip-path="url(#pfe31493a32)" d="M 63.336875 278.209197 
L 398.136875 278.209197 
" style="fill:none;stroke:#000000;stroke-dasharray:0.5,0.825;stroke-dashoffset:0;stroke-width:0.5;"/>
     </g>
     <g id="line2d_14">
      <defs>
       <path d="M 0 0 
L -3.5 0 
" id="mcf43d48434" style="stroke:#000000;stroke-width:0.8;"/>
      </defs>
      <g>
       <use style="stroke:#000000;stroke-width:0.8;" x="63.336875" xlink:href="#mcf43d48434" y="278.209197"/>
      </g>
     </g>
     <g id="text_8">
      <!-- −0.04 -->
      <g transform="translate(23.942188 283.069822)scale(0.14 -0.14)">
       <defs>
        <path d="M 3484 2000 
L 116 2000 
L 116 2256 
L 3484 2256 
L 3484 2000 
z
" id="TimesNewRomanPSMT-2212" transform="scale(0.015625)"/>
       </defs>
       <use xlink:href="#TimesNewRomanPSMT-2212"/>
       <use x="56.396484" xlink:href="#TimesNewRomanPSMT-30"/>
       <use x="106.396484" xlink:href="#TimesNewRomanPSMT-2e"/>
       <use x="131.396484" xlink:href="#TimesNewRomanPSMT-30"/>
       <use x="181.396484" xlink:href="#TimesNewRomanPSMT-34"/>
      </g>
     </g>
    </g>
    <g id="ytick_2">
     <g id="line2d_15">
      <path clip-path="url(#pfe31493a32)" d="M 63.336875 215.159939 
L 398.136875 215.159939 
" style="fill:none;stroke:#000000;stroke-dasharray:0.5,0.825;stroke-dashoffset:0;stroke-width:0.5;"/>
     </g>
     <g id="line2d_16">
      <g>
       <use style="stroke:#000000;stroke-width:0.8;" x="63.336875" xlink:href="#mcf43d48434" y="215.159939"/>
      </g>
     </g>
     <g id="text_9">
      <!-- −0.02 -->
      <g transform="translate(23.942188 220.020564)scale(0.14 -0.14)">
       <use xlink:href="#TimesNewRomanPSMT-2212"/>
       <use x="56.396484" xlink:href="#TimesNewRomanPSMT-30"/>
       <use x="106.396484" xlink:href="#TimesNewRomanPSMT-2e"/>
       <use x="131.396484" xlink:href="#TimesNewRomanPSMT-30"/>
       <use x="181.396484" xlink:href="#TimesNewRomanPSMT-32"/>
      </g>
     </g>
    </g>
    <g id="ytick_3">
     <g id="line2d_17">
      <path clip-path="url(#pfe31493a32)" d="M 63.336875 152.110682 
L 398.136875 152.110682 
" style="fill:none;stroke:#000000;stroke-dasharray:0.5,0.825;stroke-dashoffset:0;stroke-width:0.5;"/>
     </g>
     <g id="line2d_18">
      <g>
       <use style="stroke:#000000;stroke-width:0.8;" x="63.336875" xlink:href="#mcf43d48434" y="152.110682"/>
      </g>
     </g>
     <g id="text_10">
      <!-- 0.00 -->
      <g transform="translate(31.836875 156.971307)scale(0.14 -0.14)">
       <use xlink:href="#TimesNewRomanPSMT-30"/>
       <use x="50" xlink:href="#TimesNewRomanPSMT-2e"/>
       <use x="75" xlink:href="#TimesNewRomanPSMT-30"/>
       <use x="125" xlink:href="#TimesNewRomanPSMT-30"/>
      </g>
     </g>
    </g>
    <g id="ytick_4">
     <g id="line2d_19">
      <path clip-path="url(#pfe31493a32)" d="M 63.336875 89.061425 
L 398.136875 89.061425 
" style="fill:none;stroke:#000000;stroke-dasharray:0.5,0.825;stroke-dashoffset:0;stroke-width:0.5;"/>
     </g>
     <g id="line2d_20">
      <g>
       <use style="stroke:#000000;stroke-width:0.8;" x="63.336875" xlink:href="#mcf43d48434" y="89.061425"/>
      </g>
     </g>
     <g id="text_11">
      <!-- 0.02 -->
      <g transform="translate(31.836875 93.92205)scale(0.14 -0.14)">
       <use xlink:href="#TimesNewRomanPSMT-30"/>
       <use x="50" xlink:href="#TimesNewRomanPSMT-2e"/>
       <use x="75" xlink:href="#TimesNewRomanPSMT-30"/>
       <use x="125" xlink:href="#TimesNewRomanPSMT-32"/>
      </g>
     </g>
    </g>
    <g id="ytick_5">
     <g id="line2d_21">
      <path clip-path="url(#pfe31493a32)" d="M 63.336875 26.012168 
L 398.136875 26.012168 
" style="fill:none;stroke:#000000;stroke-dasharray:0.5,0.825;stroke-dashoffset:0;stroke-width:0.5;"/>
     </g>
     <g id="line2d_22">
      <g>
       <use style="stroke:#000000;stroke-width:0.8;" x="63.336875" xlink:href="#mcf43d48434" y="26.012168"/>
      </g>
     </g>
     <g id="text_12">
      <!-- 0.04 -->
      <g transform="translate(31.836875 30.872793)scale(0.14 -0.14)">
       <use xlink:href="#TimesNewRomanPSMT-30"/>
       <use x="50" xlink:href="#TimesNewRomanPSMT-2e"/>
       <use x="75" xlink:href="#TimesNewRomanPSMT-30"/>
       <use x="125" xlink:href="#TimesNewRomanPSMT-34"/>
      </g>
     </g>
    </g>
    <g id="text_13">
     <!-- Volatage (V) -->
     <g transform="translate(16.92125 209.352344)rotate(-90)scale(0.14 -0.14)">
      <defs>
       <path d="M 4544 4238 
L 4544 4122 
Q 4319 4081 4203 3978 
Q 4038 3825 3909 3509 
L 2431 -97 
L 2316 -97 
L 728 3556 
Q 606 3838 556 3900 
Q 478 3997 364 4051 
Q 250 4106 56 4122 
L 56 4238 
L 1788 4238 
L 1788 4122 
Q 1494 4094 1406 4022 
Q 1319 3950 1319 3838 
Q 1319 3681 1463 3350 
L 2541 866 
L 3541 3319 
Q 3688 3681 3688 3822 
Q 3688 3913 3597 3995 
Q 3506 4078 3291 4113 
Q 3275 4116 3238 4122 
L 3238 4238 
L 4544 4238 
z
" id="TimesNewRomanPSMT-56" transform="scale(0.015625)"/>
       <path d="M 1600 2947 
Q 2250 2947 2644 2453 
Q 2978 2031 2978 1484 
Q 2978 1100 2793 706 
Q 2609 313 2286 112 
Q 1963 -88 1566 -88 
Q 919 -88 538 428 
Q 216 863 216 1403 
Q 216 1797 411 2186 
Q 606 2575 925 2761 
Q 1244 2947 1600 2947 
z
M 1503 2744 
Q 1338 2744 1170 2645 
Q 1003 2547 900 2300 
Q 797 2053 797 1666 
Q 797 1041 1045 587 
Q 1294 134 1700 134 
Q 2003 134 2200 384 
Q 2397 634 2397 1244 
Q 2397 2006 2069 2444 
Q 1847 2744 1503 2744 
z
" id="TimesNewRomanPSMT-6f" transform="scale(0.015625)"/>
       <path d="M 1184 4444 
L 1184 647 
Q 1184 378 1223 290 
Q 1263 203 1344 158 
Q 1425 113 1647 113 
L 1647 0 
L 244 0 
L 244 113 
Q 441 113 512 153 
Q 584 194 625 287 
Q 666 381 666 647 
L 666 3247 
Q 666 3731 644 3842 
Q 622 3953 573 3993 
Q 525 4034 450 4034 
Q 369 4034 244 3984 
L 191 4094 
L 1044 4444 
L 1184 4444 
z
" id="TimesNewRomanPSMT-6c" transform="scale(0.015625)"/>
       <path d="M 1822 413 
Q 1381 72 1269 19 
Q 1100 -59 909 -59 
Q 613 -59 420 144 
Q 228 347 228 678 
Q 228 888 322 1041 
Q 450 1253 767 1440 
Q 1084 1628 1822 1897 
L 1822 2009 
Q 1822 2438 1686 2597 
Q 1550 2756 1291 2756 
Q 1094 2756 978 2650 
Q 859 2544 859 2406 
L 866 2225 
Q 866 2081 792 2003 
Q 719 1925 600 1925 
Q 484 1925 411 2006 
Q 338 2088 338 2228 
Q 338 2497 613 2722 
Q 888 2947 1384 2947 
Q 1766 2947 2009 2819 
Q 2194 2722 2281 2516 
Q 2338 2381 2338 1966 
L 2338 994 
Q 2338 584 2353 492 
Q 2369 400 2405 369 
Q 2441 338 2488 338 
Q 2538 338 2575 359 
Q 2641 400 2828 588 
L 2828 413 
Q 2478 -56 2159 -56 
Q 2006 -56 1915 50 
Q 1825 156 1822 413 
z
M 1822 616 
L 1822 1706 
Q 1350 1519 1213 1441 
Q 966 1303 859 1153 
Q 753 1003 753 825 
Q 753 600 887 451 
Q 1022 303 1197 303 
Q 1434 303 1822 616 
z
" id="TimesNewRomanPSMT-61" transform="scale(0.015625)"/>
       <path d="M 1031 3803 
L 1031 2863 
L 1700 2863 
L 1700 2644 
L 1031 2644 
L 1031 788 
Q 1031 509 1111 412 
Q 1191 316 1316 316 
Q 1419 316 1516 380 
Q 1613 444 1666 569 
L 1788 569 
Q 1678 263 1478 108 
Q 1278 -47 1066 -47 
Q 922 -47 784 33 
Q 647 113 581 261 
Q 516 409 516 719 
L 516 2644 
L 63 2644 
L 63 2747 
Q 234 2816 414 2980 
Q 594 3144 734 3369 
Q 806 3488 934 3803 
L 1031 3803 
z
" id="TimesNewRomanPSMT-74" transform="scale(0.015625)"/>
       <path d="M 966 1044 
Q 703 1172 562 1401 
Q 422 1631 422 1909 
Q 422 2334 742 2640 
Q 1063 2947 1563 2947 
Q 1972 2947 2272 2747 
L 2878 2747 
Q 3013 2747 3034 2739 
Q 3056 2731 3066 2713 
Q 3084 2684 3084 2613 
Q 3084 2531 3069 2500 
Q 3059 2484 3036 2475 
Q 3013 2466 2878 2466 
L 2506 2466 
Q 2681 2241 2681 1891 
Q 2681 1491 2375 1206 
Q 2069 922 1553 922 
Q 1341 922 1119 984 
Q 981 866 932 777 
Q 884 688 884 625 
Q 884 572 936 522 
Q 988 472 1138 450 
Q 1225 438 1575 428 
Q 2219 413 2409 384 
Q 2700 344 2873 169 
Q 3047 -6 3047 -263 
Q 3047 -616 2716 -925 
Q 2228 -1381 1444 -1381 
Q 841 -1381 425 -1109 
Q 191 -953 191 -784 
Q 191 -709 225 -634 
Q 278 -519 444 -313 
Q 466 -284 763 25 
Q 600 122 533 198 
Q 466 275 466 372 
Q 466 481 555 628 
Q 644 775 966 1044 
z
M 1509 2797 
Q 1278 2797 1122 2612 
Q 966 2428 966 2047 
Q 966 1553 1178 1281 
Q 1341 1075 1591 1075 
Q 1828 1075 1981 1253 
Q 2134 1431 2134 1813 
Q 2134 2309 1919 2591 
Q 1759 2797 1509 2797 
z
M 934 0 
Q 788 -159 713 -296 
Q 638 -434 638 -550 
Q 638 -700 819 -813 
Q 1131 -1006 1722 -1006 
Q 2284 -1006 2551 -807 
Q 2819 -609 2819 -384 
Q 2819 -222 2659 -153 
Q 2497 -84 2016 -72 
Q 1313 -53 934 0 
z
" id="TimesNewRomanPSMT-67" transform="scale(0.015625)"/>
      </defs>
      <use xlink:href="#TimesNewRomanPSMT-56"/>
      <use x="59.341797" xlink:href="#TimesNewRomanPSMT-6f"/>
      <use x="109.341797" xlink:href="#TimesNewRomanPSMT-6c"/>
      <use x="137.125" xlink:href="#TimesNewRomanPSMT-61"/>
      <use x="181.509766" xlink:href="#TimesNewRomanPSMT-74"/>
      <use x="209.292969" xlink:href="#TimesNewRomanPSMT-61"/>
      <use x="253.677734" xlink:href="#TimesNewRomanPSMT-67"/>
      <use x="303.677734" xlink:href="#TimesNewRomanPSMT-65"/>
      <use x="348.0625" xlink:href="#TimesNewRomanPSMT-20"/>
      <use x="373.0625" xlink:href="#TimesNewRomanPSMT-28"/>
      <use x="406.363281" xlink:href="#TimesNewRomanPSMT-56"/>
      <use x="478.580078" xlink:href="#TimesNewRomanPSMT-29"/>
     </g>
    </g>
   </g>
   <g id="LineCollection_1">
    <path clip-path="url(#pfe31493a32)" d="M 78.555057 152.110682 
L 382.918693 152.110682 
" style="fill:none;stroke:#1f77b4;stroke-width:1.5;"/>
   </g>
   <g id="line2d_23">
    <path clip-path="url(#pfe31493a32)" d="M 78.555057 152.162067 
L 78.676802 152.162067 
L 82.63353 152.083256 
L 82.724839 152.083256 
L 82.785711 152.122662 
L 82.816148 152.083256 
L 82.937893 152.083256 
L 87.594657 152.004444 
L 87.685966 152.004444 
L 87.807711 152.004444 
L 90.91222 151.965038 
L 90.942657 151.886227 
L 91.00353 151.965038 
L 92.647093 151.925633 
L 92.67753 151.846821 
L 92.738402 151.886227 
L 92.890584 151.925633 
L 93.01233 151.846821 
L 93.042766 151.886227 
L 93.955857 151.846821 
L 93.986293 151.768009 
L 94.047166 151.886227 
L 94.168911 151.846821 
L 94.321093 151.925633 
L 94.473275 151.807415 
L 94.59502 151.886227 
L 97.425602 151.846821 
L 97.456039 151.768009 
L 97.547348 151.807415 
L 97.638657 151.846821 
L 97.669093 151.768009 
L 97.760402 151.807415 
L 100.804039 151.886227 
L 100.895348 151.925633 
L 101.017093 151.846821 
L 104.334657 151.886227 
L 104.365093 151.965038 
L 104.425966 151.846821 
L 104.517275 151.925633 
L 104.547711 151.886227 
L 104.669457 151.886227 
L 104.791202 151.886227 
L 107.256548 151.965038 
L 107.378293 151.965038 
L 107.439166 151.925633 
L 107.469602 151.965038 
L 107.500039 152.004444 
L 107.560911 151.925633 
L 109.75233 152.004444 
L 109.904511 152.04385 
L 110.026257 151.965038 
L 111.00022 152.04385 
L 111.152402 152.083256 
L 112.035057 152.162067 
L 112.187239 152.201473 
L 112.76553 152.280285 
L 112.887275 152.280285 
L 113.10033 152.359096 
L 113.222075 152.359096 
L 113.526439 152.437908 
L 113.709057 152.516719 
L 114.500402 152.595531 
L 114.68302 152.674342 
L 114.956948 152.753154 
L 115.078693 152.831966 
L 115.10913 152.753154 
L 115.170002 152.79256 
L 115.291748 152.871371 
L 115.322184 152.831966 
L 115.474366 152.871371 
L 115.504802 152.950183 
L 115.596111 152.910777 
L 115.930911 152.989589 
L 116.143966 153.107806 
L 116.296148 153.0684 
L 116.478766 153.186618 
L 116.630948 153.147212 
L 116.965748 153.226023 
L 117.11793 153.265429 
L 117.391857 153.344241 
L 117.574475 153.423052 
L 118.12233 153.501864 
L 118.244075 153.580676 
L 118.274511 153.54127 
L 118.518002 153.580676 
L 118.639748 153.659487 
L 118.852802 153.698893 
L 118.974548 153.777704 
L 119.278911 153.856516 
L 119.46153 153.935328 
L 119.674584 154.014139 
L 119.857202 154.092951 
L 120.100693 154.132357 
L 120.252875 154.329385 
L 120.344184 154.28998 
L 120.37462 154.329385 
L 120.678984 154.56582 
L 120.80073 154.605226 
L 120.952911 154.802255 
L 120.983348 154.762849 
L 121.04422 154.841661 
L 122.505166 156.890762 
L 123.357384 158.821645 
L 123.509566 159.176297 
L 123.874802 160.200847 
L 123.996548 160.516094 
L 124.574839 162.289354 
L 127.040184 172.259018 
L 127.466293 174.308119 
L 128.957675 181.479971 
L 129.992511 185.932826 
L 130.479493 187.903115 
L 130.783857 188.967071 
L 131.483893 191.252607 
L 131.605639 191.567853 
L 131.910002 192.316563 
L 132.244802 192.90765 
L 132.701348 193.341113 
L 132.85353 193.419925 
L 132.975275 193.459331 
L 133.066584 193.459331 
L 133.18833 193.459331 
L 133.43182 193.222896 
L 133.462257 193.301708 
L 133.492693 193.144084 
L 133.614439 193.065273 
L 134.43622 191.883099 
L 134.710148 191.252607 
L 134.77102 191.173795 
L 135.075384 190.346274 
L 135.10582 190.346274 
L 135.562366 189.006477 
L 135.77542 188.218361 
L 137.145057 180.613043 
L 139.21473 163.668556 
L 139.945202 156.142052 
L 144.084548 101.131572 
L 147.15862 58.927978 
L 148.193457 46.948616 
L 148.893493 40.013198 
L 150.050075 30.5164 
L 150.871857 25.905933 
L 151.26753 24.408513 
L 151.389275 24.132672 
L 151.663202 23.502183 
L 151.967566 22.950493 
L 152.211057 22.595841 
L 152.545857 22.32 
L 152.698039 22.359412 
L 152.880657 22.398812 
L 153.063275 22.595841 
L 153.093711 22.556438 
L 153.124148 22.635253 
L 153.489384 23.22633 
L 154.706839 28.3885 
L 155.559057 34.575203 
L 157.53742 56.169573 
L 158.29833 67.439625 
L 160.002766 97.979109 
L 161.007166 118.19428 
L 162.011566 139.828056 
L 165.876984 227.387709 
L 168.25102 274.280597 
L 169.529348 294.062308 
L 171.446839 315.183803 
L 172.755602 322.946736 
L 173.181711 324.207731 
L 173.242584 324.247134 
L 173.455639 324.522971 
L 173.60782 324.601786 
L 173.760002 324.72 
L 173.820875 324.641185 
L 173.881748 324.680597 
L 174.186111 324.601786 
L 174.399166 324.325945 
L 174.673093 323.813667 
L 175.190511 322.237432 
L 175.555748 321.015862 
L 176.012293 318.809135 
L 176.499275 315.735481 
L 178.355893 300.446036 
L 179.29942 289.53064 
L 181.582148 258.557686 
L 183.682257 224.235246 
L 184.808402 204.492948 
L 186.451966 177.263552 
L 188.125966 150.940488 
L 189.34342 133.72016 
L 191.139166 109.68263 
L 193.391457 84.699365 
L 194.061057 78.906708 
L 194.669784 74.256829 
L 195.400257 68.542987 
L 195.674184 66.612106 
L 196.222039 62.080441 
L 197.13513 55.814921 
L 197.652548 52.58365 
L 198.017784 50.928604 
L 199.904839 44.032585 
L 200.14833 43.126255 
L 200.513566 42.022896 
L 200.544002 42.062299 
L 200.72662 41.668244 
L 201.06142 41.116566 
L 201.335348 40.446661 
L 201.609275 39.973798 
L 201.73102 39.776769 
L 201.761457 39.816172 
L 201.913639 39.776769 
L 202.644111 39.697958 
L 202.857166 39.579734 
L 203.009348 39.619146 
L 203.039784 39.579734 
L 203.07022 39.619146 
L 203.222402 39.737357 
L 203.344148 39.816172 
L 203.526766 40.013198 
L 203.770257 40.170824 
L 203.892002 40.170824 
L 204.013748 40.249636 
L 204.226802 40.36785 
L 204.318111 40.446661 
L 204.622475 40.998342 
L 205.139893 42.101711 
L 205.17033 42.062299 
L 205.200766 42.14111 
L 205.566002 42.850414 
L 205.596439 42.850414 
L 206.022548 44.071997 
L 207.696548 48.682477 
L 208.153093 50.022274 
L 208.244402 50.298111 
L 209.979275 57.469964 
L 210.648875 60.385992 
L 211.957639 65.902802 
L 213.844693 76.227118 
L 215.031711 84.62055 
L 217.527493 106.293733 
L 217.80142 108.736891 
L 222.092948 154.28998 
L 225.16702 192.671215 
L 226.201857 205.990371 
L 229.397675 245.987243 
L 231.254293 264.074496 
L 232.045639 270.30061 
L 232.502184 273.177239 
L 233.171784 277.551278 
L 233.902257 280.782549 
L 234.115311 281.61008 
L 234.419675 282.674023 
L 234.784911 283.343928 
L 235.424075 284.013833 
L 235.54582 284.092632 
L 235.728439 284.171446 
L 235.819748 284.132044 
L 235.97193 283.935018 
L 236.21542 283.462142 
L 237.098075 280.940175 
L 238.011166 275.659803 
L 239.167748 267.502805 
L 239.593857 264.192719 
L 240.141711 259.148776 
L 243.367966 220.294671 
L 245.772439 187.745492 
L 249.27262 135.059956 
L 250.520511 118.824773 
L 252.864111 95.65417 
L 253.929384 88.20648 
L 255.29902 81.665113 
L 256.364293 77.921567 
L 256.486039 77.645726 
L 256.72953 77.133454 
L 257.612184 76.148303 
L 257.64262 76.187712 
L 257.703493 76.108898 
L 258.586148 76.030092 
L 258.799202 75.911872 
L 258.890511 75.911872 
L 258.920948 75.833057 
L 258.98182 75.872466 
L 259.103566 75.911872 
L 259.194875 75.872466 
L 259.225311 75.911872 
L 260.229711 75.990683 
L 260.473202 76.148303 
L 260.503639 76.108898 
L 260.534075 76.148303 
L 260.716693 76.345335 
L 260.838439 76.42415 
L 261.934148 77.960973 
L 262.208075 78.591462 
L 262.360257 78.946114 
L 263.395093 81.901551 
L 265.830002 91.752995 
L 266.469166 95.181298 
L 266.77353 96.718127 
L 267.230075 99.397717 
L 267.68662 102.313748 
L 271.156366 125.444943 
L 271.765093 129.97661 
L 273.04342 139.03994 
L 274.260875 146.251199 
L 274.565239 147.788025 
L 274.900039 149.52188 
L 275.021784 150.073561 
L 275.843566 153.777704 
L 277.913239 161.383021 
L 278.430657 162.998658 
L 278.674148 163.747369 
L 279.678548 166.07231 
L 279.922039 166.545179 
L 280.317711 167.293888 
L 280.40902 167.372701 
L 280.622075 167.64854 
L 280.682948 167.727352 
L 280.926439 168.082004 
L 282.08302 169.421802 
L 282.113457 169.382395 
L 282.17433 169.461207 
L 282.265639 169.540019 
L 282.630875 169.855265 
L 284.030948 169.776454 
L 284.274439 169.618831 
L 284.365748 169.579425 
L 284.51793 169.382395 
L 284.548366 169.421802 
L 284.609239 169.34299 
L 284.76142 169.264179 
L 286.131057 167.333295 
L 286.557166 166.505774 
L 286.739784 166.151121 
L 286.983275 165.638846 
L 287.53113 164.496078 
L 287.713748 164.10202 
L 288.018111 163.589745 
L 288.626839 162.644006 
L 288.87033 162.289354 
L 289.20513 162.013514 
L 289.418184 161.974108 
L 289.509493 161.85589 
L 289.53993 161.895296 
L 289.692111 161.816485 
L 289.905166 161.658862 
L 289.996475 161.658862 
L 290.148657 161.619456 
L 290.331275 161.698267 
L 290.513893 161.777079 
L 291.12262 162.446978 
L 291.153057 162.407572 
L 291.183493 162.525789 
L 291.274802 162.6046 
L 293.070548 167.530324 
L 296.114184 179.785522 
L 296.540293 181.519377 
L 296.631602 181.795219 
L 298.031675 186.799753 
L 298.518657 188.336579 
L 299.036075 189.91281 
L 299.310002 190.425085 
L 300.436148 193.065273 
L 300.984002 193.9322 
L 301.318802 194.523287 
L 301.775348 194.956751 
L 301.897093 194.996156 
L 302.018839 195.114374 
L 302.049275 195.074968 
L 302.079711 195.15378 
L 302.658002 195.784272 
L 302.688439 195.744866 
L 302.718875 195.863084 
L 303.023239 196.099518 
L 303.236293 196.17833 
L 303.449348 196.296547 
L 303.51022 196.335953 
L 303.662402 196.493576 
L 303.784148 196.493576 
L 304.149384 196.572388 
L 304.240693 196.611794 
L 304.392875 196.493576 
L 304.51462 196.414765 
L 304.666802 196.296547 
L 305.092911 195.902489 
L 305.18422 195.863084 
L 305.336402 195.705461 
L 305.427711 195.626649 
L 306.006002 194.720316 
L 307.375639 190.897955 
L 307.771311 189.361129 
L 308.106111 188.218361 
L 308.86702 184.829463 
L 311.028002 173.08654 
L 313.249857 156.654327 
L 313.584657 154.368791 
L 315.958693 136.79381 
L 316.506548 133.444319 
L 317.054402 130.016015 
L 320.158911 114.490136 
L 322.319893 106.490762 
L 322.380766 106.333138 
L 322.654693 105.466211 
L 323.080802 104.126418 
L 323.446039 102.747215 
L 323.68953 101.840876 
L 324.298257 99.909995 
L 324.785239 98.373167 
L 325.02873 97.663862 
L 325.546148 96.599906 
L 326.550548 95.457145 
L 326.641857 95.457145 
L 326.794039 95.37833 
L 326.915784 95.37833 
L 327.798439 95.457145 
L 328.102802 95.693576 
L 328.254984 95.732982 
L 328.407166 95.851203 
L 329.198511 97.033373 
L 330.324657 100.225242 
L 333.429166 112.716876 
L 339.607748 145.266055 
L 340.125166 147.945648 
L 340.67302 150.507024 
L 341.799166 155.7874 
L 342.742693 159.885601 
L 343.229675 161.85589 
L 344.629748 166.899831 
L 344.721057 167.09686 
L 344.934111 167.766758 
L 346.151566 171.195061 
L 346.577675 172.416641 
L 347.155966 174.150495 
L 347.399457 174.8598 
L 347.764693 175.844945 
L 348.403857 177.263552 
L 348.46473 177.342365 
L 348.79953 177.933451 
L 348.860402 177.972857 
L 349.164766 178.524538 
L 349.225639 178.563943 
L 349.530002 179.076218 
L 351.325748 181.243538 
L 351.47793 181.322348 
L 351.660548 181.401161 
L 351.904039 181.479971 
L 352.086657 181.558783 
L 352.786693 181.479971 
L 352.999748 181.361754 
L 353.121493 181.361754 
L 353.39542 181.282944 
L 353.638911 181.125319 
L 353.699784 181.164725 
L 353.73022 181.125319 
L 353.943275 181.007102 
L 354.15633 180.928292 
L 354.247639 180.849479 
L 354.278075 180.888886 
L 354.521566 180.810073 
L 354.704184 180.731263 
L 354.82593 180.731263 
L 355.40422 180.65245 
L 355.525966 180.613043 
L 355.678148 180.65245 
L 355.799893 180.613043 
L 355.952075 180.65245 
L 356.256439 180.731263 
L 356.439057 180.810073 
L 356.926039 180.888886 
L 357.047784 180.928292 
L 357.16953 180.928292 
L 357.321711 181.007102 
L 357.534766 181.125319 
L 358.021748 181.204131 
L 358.143493 181.243538 
L 358.265239 181.164725 
L 358.356548 181.243538 
L 358.386984 181.164725 
L 358.782657 181.204131 
L 358.813093 181.282944 
L 358.904402 181.243538 
L 359.056584 181.204131 
L 359.360948 181.125319 
L 359.51313 181.085915 
L 359.878366 181.007102 
L 360.000111 181.007102 
L 360.09142 181.085915 
L 360.121857 181.046509 
L 360.18273 180.967696 
L 360.243602 181.007102 
L 360.365348 180.928292 
L 360.700148 180.65245 
L 360.882766 180.57364 
L 361.248002 180.258391 
L 361.369748 180.179581 
L 362.891566 178.091074 
L 363.10462 177.657611 
L 363.348111 177.184741 
L 363.713348 176.514843 
L 364.169893 175.766133 
L 364.565566 175.017422 
L 366.909166 172.101395 
L 366.939602 172.140801 
L 366.970039 172.101395 
L 367.152657 171.86496 
L 367.274402 171.786149 
L 367.822257 171.234468 
L 367.974439 171.195061 
L 368.157057 170.998033 
L 368.248366 171.037438 
L 368.278802 170.998033 
L 368.491857 170.84041 
L 368.522293 170.879816 
L 368.583166 170.801004 
L 368.978839 170.406947 
L 369.070148 170.406947 
L 369.191893 170.288729 
L 369.313639 170.288729 
L 369.374511 170.209917 
L 369.435384 170.249322 
L 369.648439 170.131106 
L 369.770184 170.052295 
L 370.196293 169.658236 
L 370.287602 169.579425 
L 370.439784 169.461207 
L 370.56153 169.382395 
L 371.018075 168.948931 
L 371.078948 168.87012 
L 371.839857 167.963788 
L 371.870293 168.003193 
L 371.931166 167.924381 
L 373.118184 166.545179 
L 373.179057 166.505774 
L 373.392111 166.229932 
L 373.48342 166.151121 
L 373.970402 165.363005 
L 374.335639 164.693107 
L 374.670439 164.10202 
L 376.100948 160.673717 
L 376.222693 160.358471 
L 377.014039 158.033529 
L 377.25753 157.324226 
L 377.622766 156.339081 
L 378.109748 154.802255 
L 378.627166 153.226023 
L 379.144584 151.610386 
L 379.448948 150.585836 
L 379.753311 149.561285 
L 380.118548 148.221489 
L 380.362039 147.315156 
L 380.788148 145.660113 
L 382.918693 136.99084 
L 382.918693 136.99084 
" style="fill:none;stroke:#0000ff;stroke-linecap:square;stroke-width:1.5;"/>
   </g>
   <g id="line2d_24">
    <path clip-path="url(#pfe31493a32)" d="M 78.555057 151.975835 
L 79.985566 152.07435 
L 80.19862 152.094053 
L 85.64673 152.172864 
L 85.798911 152.192567 
L 88.964293 152.291082 
L 89.116475 152.271379 
L 89.268657 152.271379 
L 89.481711 152.291082 
L 94.503711 152.389596 
L 94.716766 152.409299 
L 99.61702 152.507814 
L 99.890948 152.566922 
L 100.04313 152.566922 
L 100.469239 152.724545 
L 100.71273 152.82306 
L 101.686693 153.57177 
L 102.812839 155.187407 
L 104.791202 160.586 
L 106.343457 167.028846 
L 107.439166 172.131895 
L 110.208875 184.209769 
L 110.969784 186.475601 
L 111.487202 187.775992 
L 111.822002 188.347376 
L 112.308984 189.155194 
L 112.67422 189.628064 
L 113.130766 189.825093 
L 113.465566 189.726578 
L 113.67862 189.628064 
L 114.165602 189.214303 
L 114.956948 187.441043 
L 115.68742 185.254022 
L 116.11353 183.500464 
L 117.574475 175.422278 
L 118.70062 167.521418 
L 119.278911 163.10797 
L 122.352984 136.312035 
L 125.214002 111.328767 
L 126.187966 105.004139 
L 126.857566 101.339401 
L 129.231602 91.054494 
L 130.327311 89.163013 
L 130.966475 88.512814 
L 131.209966 88.473409 
L 131.42302 88.512814 
L 132.123057 87.94143 
L 132.488293 87.626184 
L 132.701348 87.64589 
L 132.944839 87.724705 
L 133.09702 87.80351 
L 133.918802 87.902031 
L 134.253602 88.236977 
L 134.588402 88.650735 
L 134.831893 88.788661 
L 135.044948 88.808361 
L 135.471057 88.887172 
L 136.505893 90.069343 
L 136.627639 90.089049 
L 137.601602 91.52736 
L 138.058148 92.41399 
L 138.423384 93.32032 
L 139.275602 97.063876 
L 141.954002 111.486391 
L 143.23233 120.47091 
L 147.128184 151.601481 
L 150.963166 185.352536 
L 152.789348 198.691395 
L 153.85462 204.897803 
L 155.072075 209.902341 
L 155.467748 211.005706 
L 156.319966 212.444014 
L 157.141748 212.857771 
L 157.354802 212.818366 
L 157.53742 212.818366 
L 158.267893 212.227282 
L 158.602693 211.636195 
L 158.998366 210.907185 
L 160.30713 208.12908 
L 162.772475 199.775054 
L 164.202984 192.780527 
L 166.272657 181.372551 
L 167.855348 173.747532 
L 168.859748 170.851207 
L 169.620657 169.590221 
L 170.01633 169.215867 
L 170.320693 168.999135 
L 170.564184 168.959729 
L 171.051166 169.393193 
L 171.964257 170.752692 
L 172.299057 171.639323 
L 173.577384 176.151285 
L 174.338293 179.540183 
L 175.342693 184.584124 
L 176.803639 193.726266 
L 177.62542 199.262778 
L 178.081966 202.553162 
L 178.96462 209.133931 
L 179.603784 213.015398 
L 180.242948 216.443701 
L 181.06473 219.477943 
L 182.099566 223.063873 
L 182.434366 223.930797 
L 182.921348 225.132674 
L 183.225711 225.507032 
L 183.74313 225.40852 
L 184.07793 225.073568 
L 184.625784 224.206644 
L 185.112766 222.689521 
L 185.99542 218.177556 
L 186.451966 214.887172 
L 187.365057 206.96661 
L 188.491202 194.967548 
L 189.465166 183.047299 
L 190.560875 167.482013 
L 193.908875 115.072317 
L 195.674184 90.384589 
L 197.439493 71.056058 
L 199.600475 52.47623 
L 200.300511 47.511097 
L 201.304911 41.659341 
L 202.004948 39.373803 
L 202.82673 37.521728 
L 203.131093 37.285302 
L 203.313711 37.186782 
L 203.678948 36.891238 
L 204.105057 36.713918 
L 204.531166 37.10797 
L 204.805093 37.639942 
L 205.74862 41.068251 
L 206.357348 44.792092 
L 208.974875 62.406484 
L 209.76622 68.159732 
L 210.374948 72.789912 
L 212.901166 93.142994 
L 213.844693 100.649796 
L 214.727348 107.151754 
L 220.23633 149.07951 
L 221.271166 155.660276 
L 223.097348 166.772708 
L 224.16262 172.860902 
L 226.26273 184.485608 
L 226.749711 186.790847 
L 227.480184 190.022122 
L 229.61073 197.863873 
L 230.919493 200.957227 
L 232.350002 203.971767 
L 233.080475 205.567701 
L 233.719639 207.045424 
L 234.358802 208.73987 
L 234.754475 209.744714 
L 236.184984 213.153318 
L 237.098075 214.690147 
L 237.250257 214.887172 
L 237.64593 215.419151 
L 238.31553 216.108755 
L 238.832948 216.325481 
L 239.98953 216.226969 
L 240.202584 216.207269 
L 240.385202 216.246675 
L 240.506948 216.226969 
L 240.811311 216.305781 
L 240.963493 216.325481 
L 241.267857 216.404295 
L 241.57222 216.502807 
L 241.815711 216.561922 
L 241.967893 216.581621 
L 242.33313 216.699839 
L 242.485311 216.719542 
L 242.698366 216.798353 
L 242.941857 216.936273 
L 243.033166 216.975679 
L 243.459275 217.369737 
L 244.281057 218.591313 
L 245.041966 220.266062 
L 245.68113 221.743779 
L 246.472475 223.51704 
L 246.715966 224.009612 
L 247.202948 224.975054 
L 248.60302 227.457618 
L 248.724766 227.556133 
L 249.181311 227.96989 
L 249.303057 228.068411 
L 250.246584 228.580683 
L 250.459639 228.560983 
L 250.70313 228.600383 
L 251.494475 228.501868 
L 251.70753 228.304843 
L 251.95102 228.048705 
L 252.894548 225.999604 
L 253.746766 222.886547 
L 255.085966 216.325481 
L 256.364293 207.360671 
L 257.946984 193.115476 
L 259.31662 177.786625 
L 261.781966 144.429628 
L 262.725493 130.184436 
L 264.034257 110.008674 
L 267.504002 62.091238 
L 269.056257 46.230409 
L 269.878039 39.78756 
L 270.882439 34.586003 
L 271.491166 32.63541 
L 272.099893 31.335029 
L 272.70862 30.72423 
L 272.982548 30.803044 
L 273.073857 30.842456 
L 273.499966 31.216802 
L 274.38262 33.147689 
L 275.173966 36.654797 
L 275.965311 41.245584 
L 276.604475 45.718131 
L 277.06102 49.028226 
L 278.82633 64.810237 
L 281.961275 98.40367 
L 284.365748 125.140494 
L 286.77022 150.399604 
L 287.805057 160.783029 
L 290.574766 186.633224 
L 291.426984 193.470128 
L 292.583566 202.297024 
L 293.374911 207.557696 
L 294.166257 211.971141 
L 295.322839 216.699839 
L 295.90113 218.532208 
L 296.47942 220.325168 
L 296.90553 221.566453 
L 297.605566 223.083573 
L 298.24473 224.108123 
L 299.24913 224.659807 
L 299.370875 224.699213 
L 299.644802 224.758322 
L 299.949166 224.659807 
L 300.192657 224.423376 
L 300.49702 224.108123 
L 301.288366 222.925953 
L 303.023239 218.157856 
L 303.51022 215.872317 
L 305.397275 202.966922 
L 309.414875 172.565358 
L 310.114911 168.388345 
L 310.96713 163.541433 
L 311.728039 159.581152 
L 312.458511 155.975523 
L 314.071639 148.19288 
L 315.928257 140.29202 
L 316.932657 136.784905 
L 317.206584 136.016493 
L 317.724002 134.381152 
L 318.271857 132.686703 
L 320.158911 128.095928 
L 320.554584 127.091081 
L 321.985093 123.682482 
L 323.476475 120.569424 
L 323.750402 119.919229 
L 324.480875 118.264186 
L 325.059166 116.766766 
L 325.485275 115.387563 
L 325.972257 113.929549 
L 329.563748 104.905624 
L 329.807239 104.413052 
L 330.96382 102.403357 
L 331.663857 101.674347 
L 332.424766 101.299995 
L 333.794402 101.359101 
L 333.97702 101.497021 
L 334.129202 101.595542 
L 334.464002 102.009299 
L 334.64662 102.226031 
L 336.046693 105.161762 
L 336.533675 106.363638 
L 338.025057 110.501246 
L 340.125166 119.091707 
L 341.799166 128.332364 
L 343.68622 139.976774 
L 345.238475 151.778806 
L 346.638548 163.462622 
L 350.503966 192.642606 
L 351.295311 197.903279 
L 352.999748 208.227595 
L 354.004148 212.89718 
L 354.308511 214.25668 
L 356.16513 221.034472 
L 356.591239 221.842291 
L 356.956475 222.315163 
L 357.808693 222.748627 
L 357.991311 222.669815 
L 358.234802 222.571301 
L 358.447857 222.472789 
L 358.995711 222.019617 
L 359.604439 220.620714 
L 360.395784 217.704683 
L 361.43062 212.503119 
L 362.556766 206.099679 
L 365.478657 184.505311 
L 367.88313 163.344405 
L 368.826657 154.675132 
L 369.404948 149.315945 
L 371.839857 125.199604 
L 373.90953 108.68858 
L 375.340039 99.270594 
L 376.374875 93.891704 
L 378.109748 86.503122 
L 379.388075 83.488577 
L 379.783748 82.956599 
L 380.422911 82.306409 
L 381.001202 82.050269 
L 381.244693 82.089674 
L 381.396875 82.109374 
L 382.218657 82.759573 
L 382.675202 83.409771 
L 382.796948 83.587097 
L 382.918693 83.823529 
L 382.918693 83.823529 
" style="fill:none;stroke:#ff0000;stroke-linecap:square;stroke-width:1.5;"/>
   </g>
   <g id="line2d_25">
    <path clip-path="url(#pfe31493a32)" d="M 124.087857 160.791935 
" style="fill:none;stroke:#ffffff;stroke-linecap:square;stroke-width:1.5;"/>
    <defs>
     <path d="M 0 -5 
L -1.12257 -1.545085 
L -4.755283 -1.545085 
L -1.816356 0.59017 
L -2.938926 4.045085 
L -0 1.90983 
L 2.938926 4.045085 
L 1.816356 0.59017 
L 4.755283 -1.545085 
L 1.12257 -1.545085 
z
" id="m7f61d45842" style="stroke:#ffffff;stroke-linejoin:bevel;"/>
    </defs>
    <g clip-path="url(#pfe31493a32)">
     <use style="fill:#0000ff;stroke:#ffffff;stroke-linejoin:bevel;" x="124.087857" xlink:href="#m7f61d45842" y="160.791935"/>
    </g>
   </g>
   <g id="line2d_26">
    <path clip-path="url(#pfe31493a32)" d="M 104.030293 158.182247 
" style="fill:none;stroke:#ffffff;stroke-linecap:square;stroke-width:1.5;"/>
    <defs>
     <path d="M 0 -5 
L -1.12257 -1.545085 
L -4.755283 -1.545085 
L -1.816356 0.59017 
L -2.938926 4.045085 
L -0 1.90983 
L 2.938926 4.045085 
L 1.816356 0.59017 
L 4.755283 -1.545085 
L 1.12257 -1.545085 
z
" id="m4b64eab94f" style="stroke:#ffffff;stroke-linejoin:bevel;"/>
    </defs>
    <g clip-path="url(#pfe31493a32)">
     <use style="fill:#ff0000;stroke:#ffffff;stroke-linejoin:bevel;" x="104.030293" xlink:href="#m4b64eab94f" y="158.182247"/>
    </g>
   </g>
   <g id="patch_3">
    <path d="M 63.336875 339.84 
L 63.336875 7.2 
" style="fill:none;stroke:#000000;stroke-linecap:square;stroke-linejoin:miter;stroke-width:0.8;"/>
   </g>
   <g id="patch_4">
    <path d="M 398.136875 339.84 
L 398.136875 7.2 
" style="fill:none;stroke:#000000;stroke-linecap:square;stroke-linejoin:miter;stroke-width:0.8;"/>
   </g>
   <g id="patch_5">
    <path d="M 63.336875 339.84 
L 398.136875 339.84 
" style="fill:none;stroke:#000000;stroke-linecap:square;stroke-linejoin:miter;stroke-width:0.8;"/>
   </g>
   <g id="patch_6">
    <path d="M 63.336875 7.2 
L 398.136875 7.2 
" style="fill:none;stroke:#000000;stroke-linecap:square;stroke-linejoin:miter;stroke-width:0.8;"/>
   </g>
   <g id="text_14">
    <g id="patch_7">
     <path d="M 75.036875 331.242688 
L 166.79375 331.242688 
L 166.79375 293.760312 
L 75.036875 293.760312 
z
" style="fill:#ffffff;stroke:#000000;stroke-linejoin:miter;stroke-width:0.75;"/>
    </g>
    <!-- Auto_00128 -->
    <g transform="translate(80.076875 308.521563)scale(0.14 -0.14)">
     <defs>
      <path d="M 2928 1419 
L 1288 1419 
L 1000 750 
Q 894 503 894 381 
Q 894 284 986 211 
Q 1078 138 1384 116 
L 1384 0 
L 50 0 
L 50 116 
Q 316 163 394 238 
Q 553 388 747 847 
L 2238 4334 
L 2347 4334 
L 3822 809 
Q 4000 384 4145 257 
Q 4291 131 4550 116 
L 4550 0 
L 2878 0 
L 2878 116 
Q 3131 128 3220 200 
Q 3309 272 3309 375 
Q 3309 513 3184 809 
L 2928 1419 
z
M 2841 1650 
L 2122 3363 
L 1384 1650 
L 2841 1650 
z
" id="TimesNewRomanPSMT-41" transform="scale(0.015625)"/>
      <path d="M 2709 2863 
L 2709 1128 
Q 2709 631 2732 520 
Q 2756 409 2807 365 
Q 2859 322 2928 322 
Q 3025 322 3147 375 
L 3191 266 
L 2334 -88 
L 2194 -88 
L 2194 519 
Q 1825 119 1631 15 
Q 1438 -88 1222 -88 
Q 981 -88 804 51 
Q 628 191 559 409 
Q 491 628 491 1028 
L 491 2306 
Q 491 2509 447 2587 
Q 403 2666 317 2708 
Q 231 2750 6 2747 
L 6 2863 
L 1009 2863 
L 1009 947 
Q 1009 547 1148 422 
Q 1288 297 1484 297 
Q 1619 297 1789 381 
Q 1959 466 2194 703 
L 2194 2325 
Q 2194 2569 2105 2655 
Q 2016 2741 1734 2747 
L 1734 2863 
L 2709 2863 
z
" id="TimesNewRomanPSMT-75" transform="scale(0.015625)"/>
      <path d="M 3256 -1381 
L -53 -1381 
L -53 -1119 
L 3256 -1119 
L 3256 -1381 
z
" id="TimesNewRomanPSMT-5f" transform="scale(0.015625)"/>
      <path d="M 1228 2134 
Q 725 2547 579 2797 
Q 434 3047 434 3316 
Q 434 3728 753 4026 
Q 1072 4325 1600 4325 
Q 2113 4325 2425 4047 
Q 2738 3769 2738 3413 
Q 2738 3175 2569 2928 
Q 2400 2681 1866 2347 
Q 2416 1922 2594 1678 
Q 2831 1359 2831 1006 
Q 2831 559 2490 242 
Q 2150 -75 1597 -75 
Q 994 -75 656 303 
Q 388 606 388 966 
Q 388 1247 577 1523 
Q 766 1800 1228 2134 
z
M 1719 2469 
Q 2094 2806 2194 3001 
Q 2294 3197 2294 3444 
Q 2294 3772 2109 3958 
Q 1925 4144 1606 4144 
Q 1288 4144 1088 3959 
Q 888 3775 888 3528 
Q 888 3366 970 3203 
Q 1053 3041 1206 2894 
L 1719 2469 
z
M 1375 2016 
Q 1116 1797 991 1539 
Q 866 1281 866 981 
Q 866 578 1086 336 
Q 1306 94 1647 94 
Q 1984 94 2187 284 
Q 2391 475 2391 747 
Q 2391 972 2272 1150 
Q 2050 1481 1375 2016 
z
" id="TimesNewRomanPSMT-38" transform="scale(0.015625)"/>
     </defs>
     <use xlink:href="#TimesNewRomanPSMT-41"/>
     <use x="72.216797" xlink:href="#TimesNewRomanPSMT-75"/>
     <use x="122.216797" xlink:href="#TimesNewRomanPSMT-74"/>
     <use x="150" xlink:href="#TimesNewRomanPSMT-6f"/>
     <use x="200" xlink:href="#TimesNewRomanPSMT-5f"/>
     <use x="250" xlink:href="#TimesNewRomanPSMT-30"/>
     <use x="300" xlink:href="#TimesNewRomanPSMT-30"/>
     <use x="350" xlink:href="#TimesNewRomanPSMT-31"/>
     <use x="400" xlink:href="#TimesNewRomanPSMT-32"/>
     <use x="450" xlink:href="#TimesNewRomanPSMT-38"/>
    </g>
    <!-- Vs: 303.31m/s -->
    <g transform="translate(80.076875 323.208)scale(0.14 -0.14)">
     <defs>
      <path d="M 903 2950 
Q 1047 2950 1148 2848 
Q 1250 2747 1250 2603 
Q 1250 2459 1148 2357 
Q 1047 2256 903 2256 
Q 759 2256 657 2357 
Q 556 2459 556 2603 
Q 556 2747 657 2848 
Q 759 2950 903 2950 
z
M 897 609 
Q 1044 609 1145 506 
Q 1247 403 1247 259 
Q 1247 116 1144 14 
Q 1041 -88 897 -88 
Q 753 -88 651 14 
Q 550 116 550 259 
Q 550 403 651 506 
Q 753 609 897 609 
z
" id="TimesNewRomanPSMT-3a" transform="scale(0.015625)"/>
      <path d="M 1794 4444 
L 259 -88 
L 9 -88 
L 1544 4444 
L 1794 4444 
z
" id="TimesNewRomanPSMT-2f" transform="scale(0.015625)"/>
     </defs>
     <use xlink:href="#TimesNewRomanPSMT-56"/>
     <use x="72.216797" xlink:href="#TimesNewRomanPSMT-73"/>
     <use x="111.132812" xlink:href="#TimesNewRomanPSMT-3a"/>
     <use x="138.916016" xlink:href="#TimesNewRomanPSMT-20"/>
     <use x="163.916016" xlink:href="#TimesNewRomanPSMT-33"/>
     <use x="213.916016" xlink:href="#TimesNewRomanPSMT-30"/>
     <use x="263.916016" xlink:href="#TimesNewRomanPSMT-33"/>
     <use x="313.916016" xlink:href="#TimesNewRomanPSMT-2e"/>
     <use x="338.916016" xlink:href="#TimesNewRomanPSMT-33"/>
     <use x="388.916016" xlink:href="#TimesNewRomanPSMT-31"/>
     <use x="438.916016" xlink:href="#TimesNewRomanPSMT-6d"/>
     <use x="516.699219" xlink:href="#TimesNewRomanPSMT-2f"/>
     <use x="544.482422" xlink:href="#TimesNewRomanPSMT-73"/>
    </g>
   </g>
  </g>
 </g>
 <defs>
  <clipPath id="pfe31493a32">
   <rect height="332.64" width="334.8" x="63.336875" y="7.2"/>
  </clipPath>
 </defs>
</svg>
