<?xml version="1.0" encoding="utf-8" standalone="no"?>
<!DOCTYPE svg PUBLIC "-//W3C//DTD SVG 1.1//EN"
  "http://www.w3.org/Graphics/SVG/1.1/DTD/svg11.dtd">
<svg height="383.471875pt" version="1.1" viewBox="0 0 421.086875 383.471875" width="421.086875pt" xmlns="http://www.w3.org/2000/svg" xmlns:xlink="http://www.w3.org/1999/xlink">
 <metadata>
  <rdf:RDF xmlns:cc="http://creativecommons.org/ns#" xmlns:dc="http://purl.org/dc/elements/1.1/" xmlns:rdf="http://www.w3.org/1999/02/22-rdf-syntax-ns#">
   <cc:Work>
    <dc:type rdf:resource="http://purl.org/dc/dcmitype/StillImage"/>
    <dc:date>2021-06-11T14:39:38.799472</dc:date>
    <dc:format>image/svg+xml</dc:format>
    <dc:creator>
     <cc:Agent>
      <dc:title>Matplotlib v3.4.2, https://matplotlib.org/</dc:title>
     </cc:Agent>
    </dc:creator>
   </cc:Work>
  </rdf:RDF>
 </metadata>
 <defs>
  <style type="text/css">*{stroke-linecap:butt;stroke-linejoin:round;}</style>
 </defs>
 <g id="figure_1">
  <g id="patch_1">
   <path d="M 0 383.471875 
L 421.086875 383.471875 
L 421.086875 0 
L 0 0 
z
" style="fill:#ffffff;"/>
  </g>
  <g id="axes_1">
   <g id="patch_2">
    <path d="M 63.336875 339.84 
L 398.136875 339.84 
L 398.136875 7.2 
L 63.336875 7.2 
z
" style="fill:#ffffff;"/>
   </g>
   <g id="matplotlib.axis_1">
    <g id="xtick_1">
     <g id="line2d_1">
      <path clip-path="url(#pf84d9de9af)" d="M 93.773239 339.84 
L 93.773239 7.2 
" style="fill:none;stroke:#000000;stroke-dasharray:0.5,0.825;stroke-dashoffset:0;stroke-width:0.5;"/>
     </g>
     <g id="line2d_2">
      <defs>
       <path d="M 0 0 
L 0 3.5 
" id="md1c9719a63" style="stroke:#000000;stroke-width:0.8;"/>
      </defs>
      <g>
       <use style="stroke:#000000;stroke-width:0.8;" x="93.773239" xlink:href="#md1c9719a63" y="339.84"/>
      </g>
     </g>
     <g id="text_1">
      <!-- 0.000 -->
      <g transform="translate(78.023239 356.56125)scale(0.14 -0.14)">
       <defs>
        <path d="M 231 2094 
Q 231 2819 450 3342 
Q 669 3866 1031 4122 
Q 1313 4325 1613 4325 
Q 2100 4325 2488 3828 
Q 2972 3213 2972 2159 
Q 2972 1422 2759 906 
Q 2547 391 2217 158 
Q 1888 -75 1581 -75 
Q 975 -75 572 641 
Q 231 1244 231 2094 
z
M 844 2016 
Q 844 1141 1059 588 
Q 1238 122 1591 122 
Q 1759 122 1940 273 
Q 2122 425 2216 781 
Q 2359 1319 2359 2297 
Q 2359 3022 2209 3506 
Q 2097 3866 1919 4016 
Q 1791 4119 1609 4119 
Q 1397 4119 1231 3928 
Q 1006 3669 925 3112 
Q 844 2556 844 2016 
z
" id="TimesNewRomanPSMT-30" transform="scale(0.015625)"/>
        <path d="M 800 606 
Q 947 606 1047 504 
Q 1147 403 1147 259 
Q 1147 116 1045 14 
Q 944 -88 800 -88 
Q 656 -88 554 14 
Q 453 116 453 259 
Q 453 406 554 506 
Q 656 606 800 606 
z
" id="TimesNewRomanPSMT-2e" transform="scale(0.015625)"/>
       </defs>
       <use xlink:href="#TimesNewRomanPSMT-30"/>
       <use x="50" xlink:href="#TimesNewRomanPSMT-2e"/>
       <use x="75" xlink:href="#TimesNewRomanPSMT-30"/>
       <use x="125" xlink:href="#TimesNewRomanPSMT-30"/>
       <use x="175" xlink:href="#TimesNewRomanPSMT-30"/>
      </g>
     </g>
    </g>
    <g id="xtick_2">
     <g id="line2d_3">
      <path clip-path="url(#pf84d9de9af)" d="M 154.645966 339.84 
L 154.645966 7.2 
" style="fill:none;stroke:#000000;stroke-dasharray:0.5,0.825;stroke-dashoffset:0;stroke-width:0.5;"/>
     </g>
     <g id="line2d_4">
      <g>
       <use style="stroke:#000000;stroke-width:0.8;" x="154.645966" xlink:href="#md1c9719a63" y="339.84"/>
      </g>
     </g>
     <g id="text_2">
      <!-- 0.001 -->
      <g transform="translate(138.895966 356.56125)scale(0.14 -0.14)">
       <defs>
        <path d="M 750 3822 
L 1781 4325 
L 1884 4325 
L 1884 747 
Q 1884 391 1914 303 
Q 1944 216 2037 169 
Q 2131 122 2419 116 
L 2419 0 
L 825 0 
L 825 116 
Q 1125 122 1212 167 
Q 1300 213 1334 289 
Q 1369 366 1369 747 
L 1369 3034 
Q 1369 3497 1338 3628 
Q 1316 3728 1258 3775 
Q 1200 3822 1119 3822 
Q 1003 3822 797 3725 
L 750 3822 
z
" id="TimesNewRomanPSMT-31" transform="scale(0.015625)"/>
       </defs>
       <use xlink:href="#TimesNewRomanPSMT-30"/>
       <use x="50" xlink:href="#TimesNewRomanPSMT-2e"/>
       <use x="75" xlink:href="#TimesNewRomanPSMT-30"/>
       <use x="125" xlink:href="#TimesNewRomanPSMT-30"/>
       <use x="175" xlink:href="#TimesNewRomanPSMT-31"/>
      </g>
     </g>
    </g>
    <g id="xtick_3">
     <g id="line2d_5">
      <path clip-path="url(#pf84d9de9af)" d="M 215.518693 339.84 
L 215.518693 7.2 
" style="fill:none;stroke:#000000;stroke-dasharray:0.5,0.825;stroke-dashoffset:0;stroke-width:0.5;"/>
     </g>
     <g id="line2d_6">
      <g>
       <use style="stroke:#000000;stroke-width:0.8;" x="215.518693" xlink:href="#md1c9719a63" y="339.84"/>
      </g>
     </g>
     <g id="text_3">
      <!-- 0.002 -->
      <g transform="translate(199.768693 356.56125)scale(0.14 -0.14)">
       <defs>
        <path d="M 2934 816 
L 2638 0 
L 138 0 
L 138 116 
Q 1241 1122 1691 1759 
Q 2141 2397 2141 2925 
Q 2141 3328 1894 3587 
Q 1647 3847 1303 3847 
Q 991 3847 742 3664 
Q 494 3481 375 3128 
L 259 3128 
Q 338 3706 661 4015 
Q 984 4325 1469 4325 
Q 1984 4325 2329 3994 
Q 2675 3663 2675 3213 
Q 2675 2891 2525 2569 
Q 2294 2063 1775 1497 
Q 997 647 803 472 
L 1909 472 
Q 2247 472 2383 497 
Q 2519 522 2628 598 
Q 2738 675 2819 816 
L 2934 816 
z
" id="TimesNewRomanPSMT-32" transform="scale(0.015625)"/>
       </defs>
       <use xlink:href="#TimesNewRomanPSMT-30"/>
       <use x="50" xlink:href="#TimesNewRomanPSMT-2e"/>
       <use x="75" xlink:href="#TimesNewRomanPSMT-30"/>
       <use x="125" xlink:href="#TimesNewRomanPSMT-30"/>
       <use x="175" xlink:href="#TimesNewRomanPSMT-32"/>
      </g>
     </g>
    </g>
    <g id="xtick_4">
     <g id="line2d_7">
      <path clip-path="url(#pf84d9de9af)" d="M 276.39142 339.84 
L 276.39142 7.2 
" style="fill:none;stroke:#000000;stroke-dasharray:0.5,0.825;stroke-dashoffset:0;stroke-width:0.5;"/>
     </g>
     <g id="line2d_8">
      <g>
       <use style="stroke:#000000;stroke-width:0.8;" x="276.39142" xlink:href="#md1c9719a63" y="339.84"/>
      </g>
     </g>
     <g id="text_4">
      <!-- 0.003 -->
      <g transform="translate(260.64142 356.56125)scale(0.14 -0.14)">
       <defs>
        <path d="M 325 3431 
Q 506 3859 782 4092 
Q 1059 4325 1472 4325 
Q 1981 4325 2253 3994 
Q 2459 3747 2459 3466 
Q 2459 3003 1878 2509 
Q 2269 2356 2469 2072 
Q 2669 1788 2669 1403 
Q 2669 853 2319 450 
Q 1863 -75 997 -75 
Q 569 -75 414 31 
Q 259 138 259 259 
Q 259 350 332 419 
Q 406 488 509 488 
Q 588 488 669 463 
Q 722 447 909 348 
Q 1097 250 1169 231 
Q 1284 197 1416 197 
Q 1734 197 1970 444 
Q 2206 691 2206 1028 
Q 2206 1275 2097 1509 
Q 2016 1684 1919 1775 
Q 1784 1900 1550 2001 
Q 1316 2103 1072 2103 
L 972 2103 
L 972 2197 
Q 1219 2228 1467 2375 
Q 1716 2522 1828 2728 
Q 1941 2934 1941 3181 
Q 1941 3503 1739 3701 
Q 1538 3900 1238 3900 
Q 753 3900 428 3381 
L 325 3431 
z
" id="TimesNewRomanPSMT-33" transform="scale(0.015625)"/>
       </defs>
       <use xlink:href="#TimesNewRomanPSMT-30"/>
       <use x="50" xlink:href="#TimesNewRomanPSMT-2e"/>
       <use x="75" xlink:href="#TimesNewRomanPSMT-30"/>
       <use x="125" xlink:href="#TimesNewRomanPSMT-30"/>
       <use x="175" xlink:href="#TimesNewRomanPSMT-33"/>
      </g>
     </g>
    </g>
    <g id="xtick_5">
     <g id="line2d_9">
      <path clip-path="url(#pf84d9de9af)" d="M 337.264148 339.84 
L 337.264148 7.2 
" style="fill:none;stroke:#000000;stroke-dasharray:0.5,0.825;stroke-dashoffset:0;stroke-width:0.5;"/>
     </g>
     <g id="line2d_10">
      <g>
       <use style="stroke:#000000;stroke-width:0.8;" x="337.264148" xlink:href="#md1c9719a63" y="339.84"/>
      </g>
     </g>
     <g id="text_5">
      <!-- 0.004 -->
      <g transform="translate(321.514148 356.56125)scale(0.14 -0.14)">
       <defs>
        <path d="M 2978 1563 
L 2978 1119 
L 2409 1119 
L 2409 0 
L 1894 0 
L 1894 1119 
L 100 1119 
L 100 1519 
L 2066 4325 
L 2409 4325 
L 2409 1563 
L 2978 1563 
z
M 1894 1563 
L 1894 3666 
L 406 1563 
L 1894 1563 
z
" id="TimesNewRomanPSMT-34" transform="scale(0.015625)"/>
       </defs>
       <use xlink:href="#TimesNewRomanPSMT-30"/>
       <use x="50" xlink:href="#TimesNewRomanPSMT-2e"/>
       <use x="75" xlink:href="#TimesNewRomanPSMT-30"/>
       <use x="125" xlink:href="#TimesNewRomanPSMT-30"/>
       <use x="175" xlink:href="#TimesNewRomanPSMT-34"/>
      </g>
     </g>
    </g>
    <g id="xtick_6">
     <g id="line2d_11">
      <path clip-path="url(#pf84d9de9af)" d="M 398.136875 339.84 
L 398.136875 7.2 
" style="fill:none;stroke:#000000;stroke-dasharray:0.5,0.825;stroke-dashoffset:0;stroke-width:0.5;"/>
     </g>
     <g id="line2d_12">
      <g>
       <use style="stroke:#000000;stroke-width:0.8;" x="398.136875" xlink:href="#md1c9719a63" y="339.84"/>
      </g>
     </g>
     <g id="text_6">
      <!-- 0.005 -->
      <g transform="translate(382.386875 356.56125)scale(0.14 -0.14)">
       <defs>
        <path d="M 2778 4238 
L 2534 3706 
L 1259 3706 
L 981 3138 
Q 1809 3016 2294 2522 
Q 2709 2097 2709 1522 
Q 2709 1188 2573 903 
Q 2438 619 2231 419 
Q 2025 219 1772 97 
Q 1413 -75 1034 -75 
Q 653 -75 479 54 
Q 306 184 306 341 
Q 306 428 378 495 
Q 450 563 559 563 
Q 641 563 702 538 
Q 763 513 909 409 
Q 1144 247 1384 247 
Q 1750 247 2026 523 
Q 2303 800 2303 1197 
Q 2303 1581 2056 1914 
Q 1809 2247 1375 2428 
Q 1034 2569 447 2591 
L 1259 4238 
L 2778 4238 
z
" id="TimesNewRomanPSMT-35" transform="scale(0.015625)"/>
       </defs>
       <use xlink:href="#TimesNewRomanPSMT-30"/>
       <use x="50" xlink:href="#TimesNewRomanPSMT-2e"/>
       <use x="75" xlink:href="#TimesNewRomanPSMT-30"/>
       <use x="125" xlink:href="#TimesNewRomanPSMT-30"/>
       <use x="175" xlink:href="#TimesNewRomanPSMT-35"/>
      </g>
     </g>
    </g>
    <g id="text_7">
     <!-- Time (sec) -->
     <g transform="translate(200.858906 373.277188)scale(0.14 -0.14)">
      <defs>
       <path d="M 3703 4238 
L 3750 3244 
L 3631 3244 
Q 3597 3506 3538 3619 
Q 3441 3800 3280 3886 
Q 3119 3972 2856 3972 
L 2259 3972 
L 2259 734 
Q 2259 344 2344 247 
Q 2463 116 2709 116 
L 2856 116 
L 2856 0 
L 1059 0 
L 1059 116 
L 1209 116 
Q 1478 116 1591 278 
Q 1659 378 1659 734 
L 1659 3972 
L 1150 3972 
Q 853 3972 728 3928 
Q 566 3869 450 3700 
Q 334 3531 313 3244 
L 194 3244 
L 244 4238 
L 3703 4238 
z
" id="TimesNewRomanPSMT-54" transform="scale(0.015625)"/>
       <path d="M 928 4444 
Q 1059 4444 1151 4351 
Q 1244 4259 1244 4128 
Q 1244 3997 1151 3903 
Q 1059 3809 928 3809 
Q 797 3809 703 3903 
Q 609 3997 609 4128 
Q 609 4259 701 4351 
Q 794 4444 928 4444 
z
M 1188 2947 
L 1188 647 
Q 1188 378 1227 289 
Q 1266 200 1342 156 
Q 1419 113 1622 113 
L 1622 0 
L 231 0 
L 231 113 
Q 441 113 512 153 
Q 584 194 626 287 
Q 669 381 669 647 
L 669 1750 
Q 669 2216 641 2353 
Q 619 2453 572 2492 
Q 525 2531 444 2531 
Q 356 2531 231 2484 
L 188 2597 
L 1050 2947 
L 1188 2947 
z
" id="TimesNewRomanPSMT-69" transform="scale(0.015625)"/>
       <path d="M 1050 2338 
Q 1363 2650 1419 2697 
Q 1559 2816 1721 2881 
Q 1884 2947 2044 2947 
Q 2313 2947 2506 2790 
Q 2700 2634 2766 2338 
Q 3088 2713 3309 2830 
Q 3531 2947 3766 2947 
Q 3994 2947 4170 2830 
Q 4347 2713 4450 2447 
Q 4519 2266 4519 1878 
L 4519 647 
Q 4519 378 4559 278 
Q 4591 209 4675 161 
Q 4759 113 4950 113 
L 4950 0 
L 3538 0 
L 3538 113 
L 3597 113 
Q 3781 113 3884 184 
Q 3956 234 3988 344 
Q 4000 397 4000 647 
L 4000 1878 
Q 4000 2228 3916 2372 
Q 3794 2572 3525 2572 
Q 3359 2572 3192 2489 
Q 3025 2406 2788 2181 
L 2781 2147 
L 2788 2013 
L 2788 647 
Q 2788 353 2820 281 
Q 2853 209 2943 161 
Q 3034 113 3253 113 
L 3253 0 
L 1806 0 
L 1806 113 
Q 2044 113 2133 169 
Q 2222 225 2256 338 
Q 2272 391 2272 647 
L 2272 1878 
Q 2272 2228 2169 2381 
Q 2031 2581 1784 2581 
Q 1616 2581 1450 2491 
Q 1191 2353 1050 2181 
L 1050 647 
Q 1050 366 1089 281 
Q 1128 197 1204 155 
Q 1281 113 1516 113 
L 1516 0 
L 100 0 
L 100 113 
Q 297 113 375 155 
Q 453 197 493 289 
Q 534 381 534 647 
L 534 1741 
Q 534 2213 506 2350 
Q 484 2453 437 2492 
Q 391 2531 309 2531 
Q 222 2531 100 2484 
L 53 2597 
L 916 2947 
L 1050 2947 
L 1050 2338 
z
" id="TimesNewRomanPSMT-6d" transform="scale(0.015625)"/>
       <path d="M 681 1784 
Q 678 1147 991 784 
Q 1303 422 1725 422 
Q 2006 422 2214 576 
Q 2422 731 2563 1106 
L 2659 1044 
Q 2594 616 2278 264 
Q 1963 -88 1488 -88 
Q 972 -88 605 314 
Q 238 716 238 1394 
Q 238 2128 614 2539 
Q 991 2950 1559 2950 
Q 2041 2950 2350 2633 
Q 2659 2316 2659 1784 
L 681 1784 
z
M 681 1966 
L 2006 1966 
Q 1991 2241 1941 2353 
Q 1863 2528 1708 2628 
Q 1553 2728 1384 2728 
Q 1125 2728 920 2526 
Q 716 2325 681 1966 
z
" id="TimesNewRomanPSMT-65" transform="scale(0.015625)"/>
       <path id="TimesNewRomanPSMT-20" transform="scale(0.015625)"/>
       <path d="M 1988 -1253 
L 1988 -1369 
Q 1516 -1131 1200 -813 
Q 750 -359 506 256 
Q 263 872 263 1534 
Q 263 2503 741 3301 
Q 1219 4100 1988 4444 
L 1988 4313 
Q 1603 4100 1356 3731 
Q 1109 3363 987 2797 
Q 866 2231 866 1616 
Q 866 947 969 400 
Q 1050 -31 1165 -292 
Q 1281 -553 1476 -793 
Q 1672 -1034 1988 -1253 
z
" id="TimesNewRomanPSMT-28" transform="scale(0.015625)"/>
       <path d="M 2050 2947 
L 2050 1972 
L 1947 1972 
Q 1828 2431 1642 2597 
Q 1456 2763 1169 2763 
Q 950 2763 815 2647 
Q 681 2531 681 2391 
Q 681 2216 781 2091 
Q 878 1963 1175 1819 
L 1631 1597 
Q 2266 1288 2266 781 
Q 2266 391 1970 151 
Q 1675 -88 1309 -88 
Q 1047 -88 709 6 
Q 606 38 541 38 
Q 469 38 428 -44 
L 325 -44 
L 325 978 
L 428 978 
Q 516 541 762 319 
Q 1009 97 1316 97 
Q 1531 97 1667 223 
Q 1803 350 1803 528 
Q 1803 744 1651 891 
Q 1500 1038 1047 1263 
Q 594 1488 453 1669 
Q 313 1847 313 2119 
Q 313 2472 555 2709 
Q 797 2947 1181 2947 
Q 1350 2947 1591 2875 
Q 1750 2828 1803 2828 
Q 1853 2828 1881 2850 
Q 1909 2872 1947 2947 
L 2050 2947 
z
" id="TimesNewRomanPSMT-73" transform="scale(0.015625)"/>
       <path d="M 2631 1088 
Q 2516 522 2178 217 
Q 1841 -88 1431 -88 
Q 944 -88 581 321 
Q 219 731 219 1428 
Q 219 2103 620 2525 
Q 1022 2947 1584 2947 
Q 2006 2947 2278 2723 
Q 2550 2500 2550 2259 
Q 2550 2141 2473 2067 
Q 2397 1994 2259 1994 
Q 2075 1994 1981 2113 
Q 1928 2178 1911 2362 
Q 1894 2547 1784 2644 
Q 1675 2738 1481 2738 
Q 1169 2738 978 2506 
Q 725 2200 725 1697 
Q 725 1184 976 792 
Q 1228 400 1656 400 
Q 1963 400 2206 609 
Q 2378 753 2541 1131 
L 2631 1088 
z
" id="TimesNewRomanPSMT-63" transform="scale(0.015625)"/>
       <path d="M 144 4313 
L 144 4444 
Q 619 4209 934 3891 
Q 1381 3434 1625 2820 
Q 1869 2206 1869 1541 
Q 1869 572 1392 -226 
Q 916 -1025 144 -1369 
L 144 -1253 
Q 528 -1038 776 -670 
Q 1025 -303 1145 264 
Q 1266 831 1266 1447 
Q 1266 2113 1163 2663 
Q 1084 3094 967 3353 
Q 850 3613 656 3853 
Q 463 4094 144 4313 
z
" id="TimesNewRomanPSMT-29" transform="scale(0.015625)"/>
      </defs>
      <use xlink:href="#TimesNewRomanPSMT-54"/>
      <use x="57.583984" xlink:href="#TimesNewRomanPSMT-69"/>
      <use x="85.367188" xlink:href="#TimesNewRomanPSMT-6d"/>
      <use x="163.150391" xlink:href="#TimesNewRomanPSMT-65"/>
      <use x="207.535156" xlink:href="#TimesNewRomanPSMT-20"/>
      <use x="232.535156" xlink:href="#TimesNewRomanPSMT-28"/>
      <use x="265.835938" xlink:href="#TimesNewRomanPSMT-73"/>
      <use x="304.751953" xlink:href="#TimesNewRomanPSMT-65"/>
      <use x="349.136719" xlink:href="#TimesNewRomanPSMT-63"/>
      <use x="393.521484" xlink:href="#TimesNewRomanPSMT-29"/>
     </g>
    </g>
   </g>
   <g id="matplotlib.axis_2">
    <g id="ytick_1">
     <g id="line2d_13">
      <path clip-path="url(#pf84d9de9af)" d="M 63.336875 313.400179 
L 398.136875 313.400179 
" style="fill:none;stroke:#000000;stroke-dasharray:0.5,0.825;stroke-dashoffset:0;stroke-width:0.5;"/>
     </g>
     <g id="line2d_14">
      <defs>
       <path d="M 0 0 
L -3.5 0 
" id="mf1ebe497a2" style="stroke:#000000;stroke-width:0.8;"/>
      </defs>
      <g>
       <use style="stroke:#000000;stroke-width:0.8;" x="63.336875" xlink:href="#mf1ebe497a2" y="313.400179"/>
      </g>
     </g>
     <g id="text_8">
      <!-- −0.06 -->
      <g transform="translate(23.942188 318.260804)scale(0.14 -0.14)">
       <defs>
        <path d="M 3484 2000 
L 116 2000 
L 116 2256 
L 3484 2256 
L 3484 2000 
z
" id="TimesNewRomanPSMT-2212" transform="scale(0.015625)"/>
        <path d="M 2869 4325 
L 2869 4209 
Q 2456 4169 2195 4045 
Q 1934 3922 1679 3669 
Q 1425 3416 1258 3105 
Q 1091 2794 978 2366 
Q 1428 2675 1881 2675 
Q 2316 2675 2634 2325 
Q 2953 1975 2953 1425 
Q 2953 894 2631 456 
Q 2244 -75 1606 -75 
Q 1172 -75 869 213 
Q 275 772 275 1663 
Q 275 2231 503 2743 
Q 731 3256 1154 3653 
Q 1578 4050 1965 4187 
Q 2353 4325 2688 4325 
L 2869 4325 
z
M 925 2138 
Q 869 1716 869 1456 
Q 869 1156 980 804 
Q 1091 453 1309 247 
Q 1469 100 1697 100 
Q 1969 100 2183 356 
Q 2397 613 2397 1088 
Q 2397 1622 2184 2012 
Q 1972 2403 1581 2403 
Q 1463 2403 1327 2353 
Q 1191 2303 925 2138 
z
" id="TimesNewRomanPSMT-36" transform="scale(0.015625)"/>
       </defs>
       <use xlink:href="#TimesNewRomanPSMT-2212"/>
       <use x="56.396484" xlink:href="#TimesNewRomanPSMT-30"/>
       <use x="106.396484" xlink:href="#TimesNewRomanPSMT-2e"/>
       <use x="131.396484" xlink:href="#TimesNewRomanPSMT-30"/>
       <use x="181.396484" xlink:href="#TimesNewRomanPSMT-36"/>
      </g>
     </g>
    </g>
    <g id="ytick_2">
     <g id="line2d_15">
      <path clip-path="url(#pf84d9de9af)" d="M 63.336875 261.511894 
L 398.136875 261.511894 
" style="fill:none;stroke:#000000;stroke-dasharray:0.5,0.825;stroke-dashoffset:0;stroke-width:0.5;"/>
     </g>
     <g id="line2d_16">
      <g>
       <use style="stroke:#000000;stroke-width:0.8;" x="63.336875" xlink:href="#mf1ebe497a2" y="261.511894"/>
      </g>
     </g>
     <g id="text_9">
      <!-- −0.04 -->
      <g transform="translate(23.942188 266.372519)scale(0.14 -0.14)">
       <use xlink:href="#TimesNewRomanPSMT-2212"/>
       <use x="56.396484" xlink:href="#TimesNewRomanPSMT-30"/>
       <use x="106.396484" xlink:href="#TimesNewRomanPSMT-2e"/>
       <use x="131.396484" xlink:href="#TimesNewRomanPSMT-30"/>
       <use x="181.396484" xlink:href="#TimesNewRomanPSMT-34"/>
      </g>
     </g>
    </g>
    <g id="ytick_3">
     <g id="line2d_17">
      <path clip-path="url(#pf84d9de9af)" d="M 63.336875 209.623609 
L 398.136875 209.623609 
" style="fill:none;stroke:#000000;stroke-dasharray:0.5,0.825;stroke-dashoffset:0;stroke-width:0.5;"/>
     </g>
     <g id="line2d_18">
      <g>
       <use style="stroke:#000000;stroke-width:0.8;" x="63.336875" xlink:href="#mf1ebe497a2" y="209.623609"/>
      </g>
     </g>
     <g id="text_10">
      <!-- −0.02 -->
      <g transform="translate(23.942188 214.484234)scale(0.14 -0.14)">
       <use xlink:href="#TimesNewRomanPSMT-2212"/>
       <use x="56.396484" xlink:href="#TimesNewRomanPSMT-30"/>
       <use x="106.396484" xlink:href="#TimesNewRomanPSMT-2e"/>
       <use x="131.396484" xlink:href="#TimesNewRomanPSMT-30"/>
       <use x="181.396484" xlink:href="#TimesNewRomanPSMT-32"/>
      </g>
     </g>
    </g>
    <g id="ytick_4">
     <g id="line2d_19">
      <path clip-path="url(#pf84d9de9af)" d="M 63.336875 157.735324 
L 398.136875 157.735324 
" style="fill:none;stroke:#000000;stroke-dasharray:0.5,0.825;stroke-dashoffset:0;stroke-width:0.5;"/>
     </g>
     <g id="line2d_20">
      <g>
       <use style="stroke:#000000;stroke-width:0.8;" x="63.336875" xlink:href="#mf1ebe497a2" y="157.735324"/>
      </g>
     </g>
     <g id="text_11">
      <!-- 0.00 -->
      <g transform="translate(31.836875 162.595949)scale(0.14 -0.14)">
       <use xlink:href="#TimesNewRomanPSMT-30"/>
       <use x="50" xlink:href="#TimesNewRomanPSMT-2e"/>
       <use x="75" xlink:href="#TimesNewRomanPSMT-30"/>
       <use x="125" xlink:href="#TimesNewRomanPSMT-30"/>
      </g>
     </g>
    </g>
    <g id="ytick_5">
     <g id="line2d_21">
      <path clip-path="url(#pf84d9de9af)" d="M 63.336875 105.847039 
L 398.136875 105.847039 
" style="fill:none;stroke:#000000;stroke-dasharray:0.5,0.825;stroke-dashoffset:0;stroke-width:0.5;"/>
     </g>
     <g id="line2d_22">
      <g>
       <use style="stroke:#000000;stroke-width:0.8;" x="63.336875" xlink:href="#mf1ebe497a2" y="105.847039"/>
      </g>
     </g>
     <g id="text_12">
      <!-- 0.02 -->
      <g transform="translate(31.836875 110.707664)scale(0.14 -0.14)">
       <use xlink:href="#TimesNewRomanPSMT-30"/>
       <use x="50" xlink:href="#TimesNewRomanPSMT-2e"/>
       <use x="75" xlink:href="#TimesNewRomanPSMT-30"/>
       <use x="125" xlink:href="#TimesNewRomanPSMT-32"/>
      </g>
     </g>
    </g>
    <g id="ytick_6">
     <g id="line2d_23">
      <path clip-path="url(#pf84d9de9af)" d="M 63.336875 53.958754 
L 398.136875 53.958754 
" style="fill:none;stroke:#000000;stroke-dasharray:0.5,0.825;stroke-dashoffset:0;stroke-width:0.5;"/>
     </g>
     <g id="line2d_24">
      <g>
       <use style="stroke:#000000;stroke-width:0.8;" x="63.336875" xlink:href="#mf1ebe497a2" y="53.958754"/>
      </g>
     </g>
     <g id="text_13">
      <!-- 0.04 -->
      <g transform="translate(31.836875 58.819379)scale(0.14 -0.14)">
       <use xlink:href="#TimesNewRomanPSMT-30"/>
       <use x="50" xlink:href="#TimesNewRomanPSMT-2e"/>
       <use x="75" xlink:href="#TimesNewRomanPSMT-30"/>
       <use x="125" xlink:href="#TimesNewRomanPSMT-34"/>
      </g>
     </g>
    </g>
    <g id="text_14">
     <!-- Volatage (V) -->
     <g transform="translate(16.92125 209.352344)rotate(-90)scale(0.14 -0.14)">
      <defs>
       <path d="M 4544 4238 
L 4544 4122 
Q 4319 4081 4203 3978 
Q 4038 3825 3909 3509 
L 2431 -97 
L 2316 -97 
L 728 3556 
Q 606 3838 556 3900 
Q 478 3997 364 4051 
Q 250 4106 56 4122 
L 56 4238 
L 1788 4238 
L 1788 4122 
Q 1494 4094 1406 4022 
Q 1319 3950 1319 3838 
Q 1319 3681 1463 3350 
L 2541 866 
L 3541 3319 
Q 3688 3681 3688 3822 
Q 3688 3913 3597 3995 
Q 3506 4078 3291 4113 
Q 3275 4116 3238 4122 
L 3238 4238 
L 4544 4238 
z
" id="TimesNewRomanPSMT-56" transform="scale(0.015625)"/>
       <path d="M 1600 2947 
Q 2250 2947 2644 2453 
Q 2978 2031 2978 1484 
Q 2978 1100 2793 706 
Q 2609 313 2286 112 
Q 1963 -88 1566 -88 
Q 919 -88 538 428 
Q 216 863 216 1403 
Q 216 1797 411 2186 
Q 606 2575 925 2761 
Q 1244 2947 1600 2947 
z
M 1503 2744 
Q 1338 2744 1170 2645 
Q 1003 2547 900 2300 
Q 797 2053 797 1666 
Q 797 1041 1045 587 
Q 1294 134 1700 134 
Q 2003 134 2200 384 
Q 2397 634 2397 1244 
Q 2397 2006 2069 2444 
Q 1847 2744 1503 2744 
z
" id="TimesNewRomanPSMT-6f" transform="scale(0.015625)"/>
       <path d="M 1184 4444 
L 1184 647 
Q 1184 378 1223 290 
Q 1263 203 1344 158 
Q 1425 113 1647 113 
L 1647 0 
L 244 0 
L 244 113 
Q 441 113 512 153 
Q 584 194 625 287 
Q 666 381 666 647 
L 666 3247 
Q 666 3731 644 3842 
Q 622 3953 573 3993 
Q 525 4034 450 4034 
Q 369 4034 244 3984 
L 191 4094 
L 1044 4444 
L 1184 4444 
z
" id="TimesNewRomanPSMT-6c" transform="scale(0.015625)"/>
       <path d="M 1822 413 
Q 1381 72 1269 19 
Q 1100 -59 909 -59 
Q 613 -59 420 144 
Q 228 347 228 678 
Q 228 888 322 1041 
Q 450 1253 767 1440 
Q 1084 1628 1822 1897 
L 1822 2009 
Q 1822 2438 1686 2597 
Q 1550 2756 1291 2756 
Q 1094 2756 978 2650 
Q 859 2544 859 2406 
L 866 2225 
Q 866 2081 792 2003 
Q 719 1925 600 1925 
Q 484 1925 411 2006 
Q 338 2088 338 2228 
Q 338 2497 613 2722 
Q 888 2947 1384 2947 
Q 1766 2947 2009 2819 
Q 2194 2722 2281 2516 
Q 2338 2381 2338 1966 
L 2338 994 
Q 2338 584 2353 492 
Q 2369 400 2405 369 
Q 2441 338 2488 338 
Q 2538 338 2575 359 
Q 2641 400 2828 588 
L 2828 413 
Q 2478 -56 2159 -56 
Q 2006 -56 1915 50 
Q 1825 156 1822 413 
z
M 1822 616 
L 1822 1706 
Q 1350 1519 1213 1441 
Q 966 1303 859 1153 
Q 753 1003 753 825 
Q 753 600 887 451 
Q 1022 303 1197 303 
Q 1434 303 1822 616 
z
" id="TimesNewRomanPSMT-61" transform="scale(0.015625)"/>
       <path d="M 1031 3803 
L 1031 2863 
L 1700 2863 
L 1700 2644 
L 1031 2644 
L 1031 788 
Q 1031 509 1111 412 
Q 1191 316 1316 316 
Q 1419 316 1516 380 
Q 1613 444 1666 569 
L 1788 569 
Q 1678 263 1478 108 
Q 1278 -47 1066 -47 
Q 922 -47 784 33 
Q 647 113 581 261 
Q 516 409 516 719 
L 516 2644 
L 63 2644 
L 63 2747 
Q 234 2816 414 2980 
Q 594 3144 734 3369 
Q 806 3488 934 3803 
L 1031 3803 
z
" id="TimesNewRomanPSMT-74" transform="scale(0.015625)"/>
       <path d="M 966 1044 
Q 703 1172 562 1401 
Q 422 1631 422 1909 
Q 422 2334 742 2640 
Q 1063 2947 1563 2947 
Q 1972 2947 2272 2747 
L 2878 2747 
Q 3013 2747 3034 2739 
Q 3056 2731 3066 2713 
Q 3084 2684 3084 2613 
Q 3084 2531 3069 2500 
Q 3059 2484 3036 2475 
Q 3013 2466 2878 2466 
L 2506 2466 
Q 2681 2241 2681 1891 
Q 2681 1491 2375 1206 
Q 2069 922 1553 922 
Q 1341 922 1119 984 
Q 981 866 932 777 
Q 884 688 884 625 
Q 884 572 936 522 
Q 988 472 1138 450 
Q 1225 438 1575 428 
Q 2219 413 2409 384 
Q 2700 344 2873 169 
Q 3047 -6 3047 -263 
Q 3047 -616 2716 -925 
Q 2228 -1381 1444 -1381 
Q 841 -1381 425 -1109 
Q 191 -953 191 -784 
Q 191 -709 225 -634 
Q 278 -519 444 -313 
Q 466 -284 763 25 
Q 600 122 533 198 
Q 466 275 466 372 
Q 466 481 555 628 
Q 644 775 966 1044 
z
M 1509 2797 
Q 1278 2797 1122 2612 
Q 966 2428 966 2047 
Q 966 1553 1178 1281 
Q 1341 1075 1591 1075 
Q 1828 1075 1981 1253 
Q 2134 1431 2134 1813 
Q 2134 2309 1919 2591 
Q 1759 2797 1509 2797 
z
M 934 0 
Q 788 -159 713 -296 
Q 638 -434 638 -550 
Q 638 -700 819 -813 
Q 1131 -1006 1722 -1006 
Q 2284 -1006 2551 -807 
Q 2819 -609 2819 -384 
Q 2819 -222 2659 -153 
Q 2497 -84 2016 -72 
Q 1313 -53 934 0 
z
" id="TimesNewRomanPSMT-67" transform="scale(0.015625)"/>
      </defs>
      <use xlink:href="#TimesNewRomanPSMT-56"/>
      <use x="59.341797" xlink:href="#TimesNewRomanPSMT-6f"/>
      <use x="109.341797" xlink:href="#TimesNewRomanPSMT-6c"/>
      <use x="137.125" xlink:href="#TimesNewRomanPSMT-61"/>
      <use x="181.509766" xlink:href="#TimesNewRomanPSMT-74"/>
      <use x="209.292969" xlink:href="#TimesNewRomanPSMT-61"/>
      <use x="253.677734" xlink:href="#TimesNewRomanPSMT-67"/>
      <use x="303.677734" xlink:href="#TimesNewRomanPSMT-65"/>
      <use x="348.0625" xlink:href="#TimesNewRomanPSMT-20"/>
      <use x="373.0625" xlink:href="#TimesNewRomanPSMT-28"/>
      <use x="406.363281" xlink:href="#TimesNewRomanPSMT-56"/>
      <use x="478.580078" xlink:href="#TimesNewRomanPSMT-29"/>
     </g>
    </g>
   </g>
   <g id="LineCollection_1">
    <path clip-path="url(#pf84d9de9af)" d="M 78.555057 157.735324 
L 382.918693 157.735324 
" style="fill:none;stroke:#1f77b4;stroke-width:1.5;"/>
   </g>
   <g id="line2d_25">
    <path clip-path="url(#pf84d9de9af)" d="M 78.555057 157.67215 
L 82.055239 157.769441 
L 82.20742 157.769441 
L 96.542948 157.70458 
L 96.69513 157.63972 
L 96.877748 157.70458 
L 97.02993 157.60729 
L 97.121239 157.70458 
L 97.151675 157.67215 
L 103.999857 157.737011 
L 104.030293 157.801871 
L 104.091166 157.737011 
L 104.212911 157.737011 
L 104.365093 157.769441 
L 104.517275 157.769441 
L 111.76113 157.834301 
L 111.791566 157.899161 
L 111.882875 157.834301 
L 112.552475 157.899161 
L 112.582911 157.964022 
L 112.67422 157.899161 
L 112.856839 157.931592 
L 113.709057 158.028882 
L 113.861239 158.061312 
L 114.01342 158.061312 
L 114.196039 158.093743 
L 114.713457 158.191033 
L 114.865639 158.255894 
L 114.896075 158.223463 
L 115.474366 158.320754 
L 115.626548 158.385614 
L 115.77873 158.385614 
L 116.02222 158.482905 
L 116.235275 158.547765 
L 116.904875 158.645056 
L 117.057057 158.677486 
L 117.148366 158.677486 
L 117.178802 158.709916 
L 117.36142 158.807207 
L 117.483166 158.774776 
L 118.183202 158.872067 
L 118.396257 158.936927 
L 119.12673 159.034218 
L 119.339784 159.099078 
L 119.46153 159.099078 
L 119.613711 159.163938 
L 119.644148 159.131508 
L 120.557239 159.228799 
L 120.739857 159.261229 
L 121.13553 159.35852 
L 121.348584 159.42338 
L 121.683384 159.48824 
L 121.835566 159.617961 
L 121.957311 159.617961 
L 122.292111 159.812542 
L 122.535602 159.909833 
L 122.992148 160.234134 
L 123.113893 160.298995 
L 123.296511 160.428715 
L 125.122693 162.536677 
L 125.883602 163.898744 
L 126.035784 164.223046 
L 126.857566 166.201287 
L 127.192366 167.174192 
L 128.927239 173.076485 
L 129.901202 176.805956 
L 130.022948 177.259978 
L 130.479493 179.108497 
L 130.966475 180.989448 
L 131.270839 182.286656 
L 131.392584 182.805537 
L 131.818693 184.491906 
L 132.153493 185.724254 
L 132.457857 186.632299 
L 132.823093 187.767356 
L 134.86233 191.853558 
L 135.927602 192.858893 
L 136.140657 192.794033 
L 136.292839 192.696743 
L 137.145057 191.626547 
L 137.997275 189.583445 
L 138.240766 188.837551 
L 138.514693 187.994367 
L 138.971239 186.178277 
L 140.706111 176.384364 
L 142.22793 164.223046 
L 142.988839 157.282988 
L 143.414948 153.294076 
L 144.632402 140.549017 
L 150.476184 73.353693 
L 151.358839 65.083997 
L 152.667602 54.868486 
L 153.367639 50.393124 
L 154.889457 44.361106 
L 155.163384 43.809798 
L 155.741675 43.323342 
L 155.772111 43.420628 
L 155.86342 43.355778 
L 156.19822 43.453063 
L 156.685202 44.134094 
L 157.20262 45.463732 
L 158.29833 50.555272 
L 159.120111 56.619718 
L 159.576657 60.803208 
L 161.250657 79.80729 
L 162.802911 102.800289 
L 164.629093 135.814209 
L 166.759639 178.784196 
L 171.081602 264.107989 
L 173.090402 294.559937 
L 174.36873 308.310333 
L 176.103602 320.439211 
L 176.499275 321.995857 
L 176.681893 322.644471 
L 177.351493 324.460553 
L 177.686293 324.687565 
L 177.808039 324.655129 
L 177.838475 324.687565 
L 178.29502 324.590277 
L 178.62982 324.071386 
L 178.903748 323.228214 
L 179.695093 320.341923 
L 180.699493 314.407203 
L 181.703893 306.137508 
L 183.347457 287.457728 
L 184.260548 274.453224 
L 187.365057 223.083822 
L 190.986984 155.466898 
L 192.508802 128.387699 
L 195.065457 91.838886 
L 197.104693 69.235052 
L 197.774293 63.235469 
L 199.47873 53.019968 
L 201.06142 46.728514 
L 201.365784 45.852899 
L 201.639711 45.139432 
L 202.004948 44.620552 
L 202.096257 44.620552 
L 202.278875 44.490829 
L 203.07022 43.809798 
L 203.435457 43.907086 
L 203.587639 43.971946 
L 203.618075 43.939521 
L 204.16593 44.036806 
L 204.774657 44.847561 
L 206.022548 47.766279 
L 207.361748 52.371365 
L 207.970475 55.030637 
L 208.670511 58.468236 
L 209.400984 62.424715 
L 210.466257 68.683744 
L 211.166293 72.445642 
L 212.718548 81.299081 
L 215.092584 95.795368 
L 215.275202 96.995287 
L 217.953602 113.404957 
L 219.536293 122.388117 
L 219.992839 125.014961 
L 220.510257 127.674236 
L 225.988802 157.445139 
L 226.84102 162.990699 
L 227.236693 165.617544 
L 228.149784 172.460312 
L 228.667202 176.416793 
L 229.488984 183.25956 
L 230.158584 189.032132 
L 230.828184 195.031715 
L 231.162984 197.885571 
L 232.015202 206.090406 
L 233.232657 218.803038 
L 234.450111 231.775107 
L 237.493748 259.892074 
L 239.076439 269.296821 
L 240.202584 273.674895 
L 240.750439 274.615372 
L 240.841748 274.71266 
L 241.085239 274.972104 
L 241.450475 274.874819 
L 242.33313 273.804618 
L 244.25062 267.31858 
L 245.285457 261.221709 
L 246.837711 247.082154 
L 248.26822 230.672481 
L 249.637857 213.322336 
L 253.320657 163.833884 
L 255.177275 141.489491 
L 256.851275 124.78795 
L 258.31222 114.669732 
L 258.616584 112.918502 
L 259.225311 109.675487 
L 259.499239 108.44314 
L 260.65582 104.000208 
L 261.08193 102.832719 
L 261.477602 101.924674 
L 261.75153 101.470654 
L 262.08633 101.016629 
L 262.603748 100.62747 
L 262.877675 100.562609 
L 262.968984 100.465316 
L 263.029857 100.497746 
L 263.212475 100.465316 
L 263.395093 100.497746 
L 263.547275 100.497746 
L 263.790766 100.59504 
L 263.912511 100.59504 
L 264.09513 100.724758 
L 264.156002 100.692325 
L 264.216875 100.757188 
L 264.460366 100.854481 
L 264.612548 100.984199 
L 264.795166 101.11392 
L 266.134366 102.702998 
L 266.621348 103.481325 
L 266.956148 104.000208 
L 267.290948 104.71367 
L 268.569275 107.664816 
L 268.843202 108.378277 
L 269.512802 110.032221 
L 269.78673 110.745683 
L 269.908475 111.037554 
L 272.069457 118.301917 
L 272.434693 119.761272 
L 272.495566 119.923423 
L 273.46953 123.620463 
L 275.752257 130.560521 
L 275.843566 130.755102 
L 276.14793 131.630717 
L 276.756657 133.187366 
L 277.456693 135.068317 
L 277.882802 136.203373 
L 278.187166 137.046557 
L 278.613275 138.214044 
L 279.130693 139.51125 
L 279.252439 139.803122 
L 281.139493 144.083905 
L 281.656911 145.381113 
L 284.274439 150.699662 
L 285.644075 151.996869 
L 286.587602 151.899579 
L 287.86593 150.37536 
L 289.509493 146.61346 
L 289.844293 145.640554 
L 291.640039 140.257145 
L 292.248766 138.700495 
L 292.948802 136.819545 
L 293.100984 136.495245 
L 294.774984 133.187366 
L 295.535893 132.538762 
L 296.509857 132.636053 
L 296.844657 132.863064 
L 296.875093 132.830634 
L 296.90553 132.927924 
L 296.935966 132.927924 
L 297.270766 133.381948 
L 297.48382 133.738679 
L 297.788184 134.354853 
L 298.457784 136.041222 
L 299.188257 138.732926 
L 300.040475 142.819129 
L 300.740511 146.581029 
L 300.953566 147.910666 
L 302.26233 156.958686 
L 305.092911 181.994784 
L 306.036439 190.880653 
L 310.175784 225.256641 
L 310.601893 228.110497 
L 311.423675 232.683152 
L 312.54982 237.028799 
L 312.671566 237.32067 
L 313.188984 238.617875 
L 313.858584 239.785361 
L 314.102075 239.882654 
L 314.741239 239.785361 
L 315.076039 239.331341 
L 315.258657 238.974607 
L 315.928257 237.158517 
L 316.050002 236.866642 
L 316.841348 233.980357 
L 317.815311 229.407702 
L 319.519748 217.7977 
L 320.828511 207.225462 
L 323.719966 181.670482 
L 324.663493 172.752183 
L 328.650657 139.705831 
L 332.089966 118.431635 
L 333.946584 109.124174 
L 334.950984 105.297413 
L 337.142402 98.649224 
L 338.298984 96.443974 
L 339.851239 94.952183 
L 339.972984 94.854898 
L 340.642584 94.303585 
L 340.76433 94.206292 
L 341.09913 94.011713 
L 341.373057 93.91442 
L 341.586111 93.84956 
L 341.860039 93.784697 
L 342.01222 93.719842 
L 342.164402 93.752272 
L 342.286148 93.719842 
L 342.43833 93.784697 
L 342.986184 93.88199 
L 343.168802 93.94685 
L 343.260111 93.94685 
L 343.290548 93.979281 
L 343.473166 94.076569 
L 343.929711 94.433303 
L 343.960148 94.40087 
L 343.990584 94.498163 
L 344.02102 94.498163 
L 344.264511 94.757605 
L 344.386257 94.854898 
L 345.329784 95.989952 
L 345.573275 96.443974 
L 345.755893 96.800706 
L 346.547239 98.746517 
L 347.095093 100.62747 
L 347.764693 103.124591 
L 349.834366 112.367189 
L 350.412657 115.383198 
L 350.777893 117.393869 
L 351.538802 121.544932 
L 354.369384 136.073652 
L 354.552002 136.949268 
L 355.099857 139.770693 
L 355.708584 142.819129 
L 359.300075 161.369191 
L 359.482693 162.309666 
L 361.369748 171.779278 
L 366.970039 195.226296 
L 367.030911 195.420878 
L 367.639639 197.72342 
L 368.065748 199.44222 
L 368.948402 202.620377 
L 369.678875 205.279652 
L 369.770184 205.539093 
L 371.596366 211.019793 
L 372.022475 212.187282 
L 372.296402 212.900743 
L 372.874693 214.392532 
L 373.392111 215.722166 
L 373.513857 216.014038 
L 374.792184 218.478737 
L 376.679239 220.327254 
L 377.227093 220.392115 
L 377.348839 220.489408 
L 378.079311 220.392115 
L 378.414111 220.197536 
L 378.59673 220.132673 
L 378.779348 219.97052 
L 378.961966 219.873232 
L 379.357639 219.289489 
L 379.448948 219.192198 
L 379.814184 218.640885 
L 381.031639 215.81946 
L 381.336002 214.911415 
L 381.396875 214.749264 
L 381.94473 212.835881 
L 382.127348 212.187282 
L 382.918693 209.009122 
L 382.918693 209.009122 
" style="fill:none;stroke:#0000ff;stroke-linecap:square;stroke-width:1.5;"/>
   </g>
   <g id="line2d_26">
    <path clip-path="url(#pf84d9de9af)" d="M 78.555057 157.764641 
L 78.737675 157.732211 
L 89.177348 157.651136 
L 89.32953 157.618705 
L 89.542584 157.618705 
L 99.921384 157.715996 
L 100.195311 157.764641 
L 100.347493 157.797071 
L 100.834475 157.894362 
L 101.077966 158.007868 
L 101.29102 158.105158 
L 102.112802 158.640256 
L 102.38673 158.883482 
L 102.599784 159.094278 
L 103.086766 159.678022 
L 103.452002 160.229335 
L 104.182475 161.591402 
L 106.434766 167.882857 
L 110.178439 181.422457 
L 111.182839 184.292526 
L 112.826402 187.535545 
L 113.43513 188.021997 
L 114.01342 188.216578 
L 114.469966 188.167933 
L 114.68302 187.973352 
L 115.35262 187.097737 
L 116.052657 185.80053 
L 117.513602 180.806283 
L 119.46153 170.931293 
L 122.261675 152.316371 
L 124.696584 133.733879 
L 126.279275 123.534588 
L 127.861966 114.891946 
L 129.07942 109.216667 
L 129.596839 107.205994 
L 129.962075 106.168225 
L 130.570802 104.579149 
L 131.17953 103.265727 
L 131.970875 101.806369 
L 132.883966 100.08757 
L 133.157893 99.844346 
L 133.76662 99.049804 
L 134.618839 98.70929 
L 134.831893 98.611996 
L 135.53193 98.028253 
L 135.744984 98.012036 
L 136.140657 98.125546 
L 136.627639 97.979611 
L 137.266802 98.076899 
L 137.571166 98.352555 
L 138.484257 99.487611 
L 139.092984 101.400992 
L 140.79742 108.178896 
L 141.740948 112.670479 
L 143.323639 122.594113 
L 146.123784 144.289902 
L 147.676039 158.42946 
L 148.345639 164.688484 
L 152.332802 201.853471 
L 153.367639 210.236669 
L 154.219857 216.171392 
L 155.711239 224.278939 
L 156.62433 227.684105 
L 157.476548 229.678561 
L 157.720039 230.100153 
L 158.024402 230.489313 
L 158.237457 230.635249 
L 158.450511 230.651466 
L 158.785311 230.570394 
L 158.96793 230.554176 
L 159.30273 230.4731 
L 160.337566 229.208321 
L 160.88542 228.138128 
L 161.615893 225.884233 
L 162.407239 223.014159 
L 164.172548 213.009452 
L 167.459675 185.865389 
L 168.829311 174.466183 
L 170.472875 162.223791 
L 171.294657 157.229543 
L 171.629457 155.332378 
L 172.207748 152.300156 
L 173.394766 147.711287 
L 174.094802 145.830336 
L 174.399166 145.181732 
L 174.733966 144.468268 
L 175.190511 143.916955 
L 175.434002 143.884525 
L 175.799239 143.981816 
L 175.981857 143.981816 
L 176.255784 144.111536 
L 176.529711 144.370977 
L 177.868911 147.46806 
L 178.599384 150.613787 
L 181.06473 161.591402 
L 182.73873 171.077229 
L 183.40833 174.985065 
L 185.41713 185.103282 
L 186.208475 188.021997 
L 186.847639 189.708367 
L 187.486802 191.102864 
L 187.821602 191.556887 
L 188.217275 192.010909 
L 188.43033 192.23792 
L 188.886875 192.578437 
L 189.069493 192.594652 
L 189.282548 192.594652 
L 190.10433 192.043339 
L 190.804366 190.29211 
L 191.230475 188.848967 
L 193.056657 181.617037 
L 193.634948 178.682107 
L 194.426293 174.352677 
L 196.80033 159.807742 
L 199.265675 141.98736 
L 202.73542 111.567853 
L 204.013748 101.222626 
L 204.805093 95.401409 
L 205.626875 90.439594 
L 206.326911 87.618164 
L 207.148693 84.585947 
L 208.305275 81.245636 
L 208.731384 80.402451 
L 209.035748 80.126798 
L 209.370548 79.786276 
L 209.583602 79.559272 
L 210.009711 79.251183 
L 210.922802 79.851138 
L 211.501093 80.613248 
L 212.048948 82.023958 
L 213.814257 88.023541 
L 214.818657 92.190819 
L 216.766584 103.168434 
L 218.166657 112.021872 
L 222.427748 138.549761 
L 222.853857 140.836089 
L 223.766948 145.733045 
L 225.410511 154.716205 
L 226.080111 158.040298 
L 228.788948 170.493486 
L 230.584693 177.676771 
L 231.223857 180.076604 
L 232.410875 184.9087 
L 233.019602 187.567975 
L 234.176184 192.951384 
L 235.271893 198.188858 
L 236.428475 203.199323 
L 238.011166 208.696236 
L 239.015566 211.063636 
L 240.111275 212.6365 
L 240.293893 212.847299 
L 241.633093 214.112076 
L 242.57662 214.517453 
L 242.698366 214.517453 
L 242.91142 214.582316 
L 243.185348 214.679601 
L 244.707166 215.603866 
L 245.498511 216.284898 
L 245.650693 216.36597 
L 245.833311 216.463263 
L 248.846511 217.955052 
L 249.150875 218.05234 
L 249.546548 218.311786 
L 250.459639 218.911742 
L 251.403166 220.063011 
L 251.737966 220.517036 
L 252.559748 221.652092 
L 252.71193 221.830458 
L 253.04673 222.28448 
L 253.229348 222.495277 
L 255.29902 225.608574 
L 257.125202 227.392233 
L 257.855675 227.667887 
L 258.038293 227.651675 
L 258.190475 227.651675 
L 258.586148 227.554384 
L 259.499239 226.419328 
L 259.864475 225.641004 
L 260.32102 224.424875 
L 261.021057 221.830458 
L 261.538475 219.479267 
L 262.66462 212.263555 
L 263.516839 205.145134 
L 265.556075 183.400697 
L 266.712657 167.234253 
L 268.721457 135.631044 
L 272.70862 71.597656 
L 274.260875 50.826129 
L 275.326148 39.6215 
L 276.269675 32.049053 
L 277.030584 27.168314 
L 277.48713 25.12521 
L 278.339348 22.757813 
L 278.613275 22.433506 
L 278.765457 22.336218 
L 279.617675 22.903743 
L 280.713384 26.130549 
L 282.143893 34.335384 
L 283.270039 43.561772 
L 284.670111 58.009419 
L 287.348511 90.682818 
L 289.174693 115.443259 
L 291.913966 150.451636 
L 293.679275 170.720497 
L 294.56193 179.39557 
L 296.205493 194.086441 
L 298.15342 209.766432 
L 299.523057 219.171183 
L 301.379675 229.402907 
L 302.475384 234.170141 
L 303.814584 237.445591 
L 304.240693 237.753675 
L 304.636366 237.656382 
L 305.458148 237.105072 
L 305.884257 236.488896 
L 306.979966 234.543088 
L 307.436511 233.326956 
L 308.806148 228.624578 
L 309.445311 226.095024 
L 310.601893 221.376433 
L 312.184584 213.252673 
L 313.036802 208.112493 
L 314.862984 194.702614 
L 316.628293 181.487316 
L 318.484911 168.450385 
L 321.072002 153.921665 
L 322.441639 148.538256 
L 324.237384 144.046676 
L 325.393966 142.003575 
L 325.850511 141.257681 
L 326.03313 141.046884 
L 327.128839 140.041548 
L 328.498475 139.425376 
L 328.802839 139.344299 
L 329.015893 139.27944 
L 329.350693 139.198363 
L 329.533311 139.198363 
L 329.71593 139.133504 
L 329.898548 139.117289 
L 330.29422 139.019999 
L 330.446402 138.987568 
L 331.29862 138.630835 
L 331.420366 138.582192 
L 331.63342 138.501115 
L 331.96822 138.29032 
L 332.120402 138.209243 
L 332.576948 137.884943 
L 332.942184 137.593071 
L 333.337857 137.122833 
L 333.429166 137.025543 
L 333.97702 136.279649 
L 334.342257 135.744551 
L 334.494439 135.549969 
L 336.107566 132.777189 
L 340.946948 120.19428 
L 342.864439 117.324207 
L 343.594911 116.708033 
L 343.899275 116.659391 
L 344.294948 116.772896 
L 344.416693 116.789114 
L 345.208039 117.794447 
L 345.664584 118.718704 
L 346.608111 120.988819 
L 348.982148 128.934213 
L 351.325748 140.706368 
L 352.999748 151.1651 
L 356.804293 176.752511 
L 359.482693 191.800113 
L 361.034948 197.183523 
L 363.19593 202.631793 
L 363.956839 203.685773 
L 364.078584 203.766849 
L 364.687311 204.253299 
L 364.86993 204.350592 
L 365.143857 204.480315 
L 365.509093 204.577603 
L 365.722148 204.577603 
L 366.178693 204.480315 
L 366.604802 204.172226 
L 367.091784 203.393902 
L 367.609202 202.372351 
L 368.491857 200.248174 
L 369.678875 196.097112 
L 370.318039 192.935169 
L 374.700875 166.61808 
L 375.857457 159.35372 
L 376.892293 152.656888 
L 379.144584 137.803866 
L 380.331602 130.896239 
L 381.031639 127.118123 
L 382.036039 122.350887 
L 382.918693 118.734922 
L 382.918693 118.734922 
" style="fill:none;stroke:#ff0000;stroke-linecap:square;stroke-width:1.5;"/>
   </g>
   <g id="line2d_27">
    <path clip-path="url(#pf84d9de9af)" d="M 126.82713 166.136426 
" style="fill:none;stroke:#ffffff;stroke-linecap:square;stroke-width:1.5;"/>
    <defs>
     <path d="M 0 -5 
L -1.12257 -1.545085 
L -4.755283 -1.545085 
L -1.816356 0.59017 
L -2.938926 4.045085 
L -0 1.90983 
L 2.938926 4.045085 
L 1.816356 0.59017 
L 4.755283 -1.545085 
L 1.12257 -1.545085 
z
" id="m8af37e0f0e" style="stroke:#ffffff;stroke-linejoin:bevel;"/>
    </defs>
    <g clip-path="url(#pf84d9de9af)">
     <use style="fill:#0000ff;stroke:#ffffff;stroke-linejoin:bevel;" x="126.82713" xlink:href="#m8af37e0f0e" y="166.136426"/>
    </g>
   </g>
   <g id="line2d_28">
    <path clip-path="url(#pf84d9de9af)" d="M 105.369493 164.558764 
" style="fill:none;stroke:#ffffff;stroke-linecap:square;stroke-width:1.5;"/>
    <defs>
     <path d="M 0 -5 
L -1.12257 -1.545085 
L -4.755283 -1.545085 
L -1.816356 0.59017 
L -2.938926 4.045085 
L -0 1.90983 
L 2.938926 4.045085 
L 1.816356 0.59017 
L 4.755283 -1.545085 
L 1.12257 -1.545085 
z
" id="mac71ae4f4c" style="stroke:#ffffff;stroke-linejoin:bevel;"/>
    </defs>
    <g clip-path="url(#pf84d9de9af)">
     <use style="fill:#ff0000;stroke:#ffffff;stroke-linejoin:bevel;" x="105.369493" xlink:href="#mac71ae4f4c" y="164.558764"/>
    </g>
   </g>
   <g id="patch_3">
    <path d="M 63.336875 339.84 
L 63.336875 7.2 
" style="fill:none;stroke:#000000;stroke-linecap:square;stroke-linejoin:miter;stroke-width:0.8;"/>
   </g>
   <g id="patch_4">
    <path d="M 398.136875 339.84 
L 398.136875 7.2 
" style="fill:none;stroke:#000000;stroke-linecap:square;stroke-linejoin:miter;stroke-width:0.8;"/>
   </g>
   <g id="patch_5">
    <path d="M 63.336875 339.84 
L 398.136875 339.84 
" style="fill:none;stroke:#000000;stroke-linecap:square;stroke-linejoin:miter;stroke-width:0.8;"/>
   </g>
   <g id="patch_6">
    <path d="M 63.336875 7.2 
L 398.136875 7.2 
" style="fill:none;stroke:#000000;stroke-linecap:square;stroke-linejoin:miter;stroke-width:0.8;"/>
   </g>
   <g id="text_15">
    <g id="patch_7">
     <path d="M 75.036875 331.242688 
L 166.79375 331.242688 
L 166.79375 293.760312 
L 75.036875 293.760312 
z
" style="fill:#ffffff;stroke:#000000;stroke-linejoin:miter;stroke-width:0.75;"/>
    </g>
    <!-- Auto_00073 -->
    <g transform="translate(80.076875 308.521562)scale(0.14 -0.14)">
     <defs>
      <path d="M 2928 1419 
L 1288 1419 
L 1000 750 
Q 894 503 894 381 
Q 894 284 986 211 
Q 1078 138 1384 116 
L 1384 0 
L 50 0 
L 50 116 
Q 316 163 394 238 
Q 553 388 747 847 
L 2238 4334 
L 2347 4334 
L 3822 809 
Q 4000 384 4145 257 
Q 4291 131 4550 116 
L 4550 0 
L 2878 0 
L 2878 116 
Q 3131 128 3220 200 
Q 3309 272 3309 375 
Q 3309 513 3184 809 
L 2928 1419 
z
M 2841 1650 
L 2122 3363 
L 1384 1650 
L 2841 1650 
z
" id="TimesNewRomanPSMT-41" transform="scale(0.015625)"/>
      <path d="M 2709 2863 
L 2709 1128 
Q 2709 631 2732 520 
Q 2756 409 2807 365 
Q 2859 322 2928 322 
Q 3025 322 3147 375 
L 3191 266 
L 2334 -88 
L 2194 -88 
L 2194 519 
Q 1825 119 1631 15 
Q 1438 -88 1222 -88 
Q 981 -88 804 51 
Q 628 191 559 409 
Q 491 628 491 1028 
L 491 2306 
Q 491 2509 447 2587 
Q 403 2666 317 2708 
Q 231 2750 6 2747 
L 6 2863 
L 1009 2863 
L 1009 947 
Q 1009 547 1148 422 
Q 1288 297 1484 297 
Q 1619 297 1789 381 
Q 1959 466 2194 703 
L 2194 2325 
Q 2194 2569 2105 2655 
Q 2016 2741 1734 2747 
L 1734 2863 
L 2709 2863 
z
" id="TimesNewRomanPSMT-75" transform="scale(0.015625)"/>
      <path d="M 3256 -1381 
L -53 -1381 
L -53 -1119 
L 3256 -1119 
L 3256 -1381 
z
" id="TimesNewRomanPSMT-5f" transform="scale(0.015625)"/>
      <path d="M 644 4238 
L 2916 4238 
L 2916 4119 
L 1503 -88 
L 1153 -88 
L 2419 3728 
L 1253 3728 
Q 900 3728 750 3644 
Q 488 3500 328 3200 
L 238 3234 
L 644 4238 
z
" id="TimesNewRomanPSMT-37" transform="scale(0.015625)"/>
     </defs>
     <use xlink:href="#TimesNewRomanPSMT-41"/>
     <use x="72.216797" xlink:href="#TimesNewRomanPSMT-75"/>
     <use x="122.216797" xlink:href="#TimesNewRomanPSMT-74"/>
     <use x="150" xlink:href="#TimesNewRomanPSMT-6f"/>
     <use x="200" xlink:href="#TimesNewRomanPSMT-5f"/>
     <use x="250" xlink:href="#TimesNewRomanPSMT-30"/>
     <use x="300" xlink:href="#TimesNewRomanPSMT-30"/>
     <use x="350" xlink:href="#TimesNewRomanPSMT-30"/>
     <use x="400" xlink:href="#TimesNewRomanPSMT-37"/>
     <use x="450" xlink:href="#TimesNewRomanPSMT-33"/>
    </g>
    <!-- Vs: 283.54m/s -->
    <g transform="translate(80.076875 323.208)scale(0.14 -0.14)">
     <defs>
      <path d="M 903 2950 
Q 1047 2950 1148 2848 
Q 1250 2747 1250 2603 
Q 1250 2459 1148 2357 
Q 1047 2256 903 2256 
Q 759 2256 657 2357 
Q 556 2459 556 2603 
Q 556 2747 657 2848 
Q 759 2950 903 2950 
z
M 897 609 
Q 1044 609 1145 506 
Q 1247 403 1247 259 
Q 1247 116 1144 14 
Q 1041 -88 897 -88 
Q 753 -88 651 14 
Q 550 116 550 259 
Q 550 403 651 506 
Q 753 609 897 609 
z
" id="TimesNewRomanPSMT-3a" transform="scale(0.015625)"/>
      <path d="M 1228 2134 
Q 725 2547 579 2797 
Q 434 3047 434 3316 
Q 434 3728 753 4026 
Q 1072 4325 1600 4325 
Q 2113 4325 2425 4047 
Q 2738 3769 2738 3413 
Q 2738 3175 2569 2928 
Q 2400 2681 1866 2347 
Q 2416 1922 2594 1678 
Q 2831 1359 2831 1006 
Q 2831 559 2490 242 
Q 2150 -75 1597 -75 
Q 994 -75 656 303 
Q 388 606 388 966 
Q 388 1247 577 1523 
Q 766 1800 1228 2134 
z
M 1719 2469 
Q 2094 2806 2194 3001 
Q 2294 3197 2294 3444 
Q 2294 3772 2109 3958 
Q 1925 4144 1606 4144 
Q 1288 4144 1088 3959 
Q 888 3775 888 3528 
Q 888 3366 970 3203 
Q 1053 3041 1206 2894 
L 1719 2469 
z
M 1375 2016 
Q 1116 1797 991 1539 
Q 866 1281 866 981 
Q 866 578 1086 336 
Q 1306 94 1647 94 
Q 1984 94 2187 284 
Q 2391 475 2391 747 
Q 2391 972 2272 1150 
Q 2050 1481 1375 2016 
z
" id="TimesNewRomanPSMT-38" transform="scale(0.015625)"/>
      <path d="M 1794 4444 
L 259 -88 
L 9 -88 
L 1544 4444 
L 1794 4444 
z
" id="TimesNewRomanPSMT-2f" transform="scale(0.015625)"/>
     </defs>
     <use xlink:href="#TimesNewRomanPSMT-56"/>
     <use x="72.216797" xlink:href="#TimesNewRomanPSMT-73"/>
     <use x="111.132812" xlink:href="#TimesNewRomanPSMT-3a"/>
     <use x="138.916016" xlink:href="#TimesNewRomanPSMT-20"/>
     <use x="163.916016" xlink:href="#TimesNewRomanPSMT-32"/>
     <use x="213.916016" xlink:href="#TimesNewRomanPSMT-38"/>
     <use x="263.916016" xlink:href="#TimesNewRomanPSMT-33"/>
     <use x="313.916016" xlink:href="#TimesNewRomanPSMT-2e"/>
     <use x="338.916016" xlink:href="#TimesNewRomanPSMT-35"/>
     <use x="388.916016" xlink:href="#TimesNewRomanPSMT-34"/>
     <use x="438.916016" xlink:href="#TimesNewRomanPSMT-6d"/>
     <use x="516.699219" xlink:href="#TimesNewRomanPSMT-2f"/>
     <use x="544.482422" xlink:href="#TimesNewRomanPSMT-73"/>
    </g>
   </g>
  </g>
 </g>
 <defs>
  <clipPath id="pf84d9de9af">
   <rect height="332.64" width="334.8" x="63.336875" y="7.2"/>
  </clipPath>
 </defs>
</svg>
