<?xml version="1.0" encoding="utf-8" standalone="no"?>
<!DOCTYPE svg PUBLIC "-//W3C//DTD SVG 1.1//EN"
  "http://www.w3.org/Graphics/SVG/1.1/DTD/svg11.dtd">
<svg height="383.471875pt" version="1.1" viewBox="0 0 421.086875 383.471875" width="421.086875pt" xmlns="http://www.w3.org/2000/svg" xmlns:xlink="http://www.w3.org/1999/xlink">
 <metadata>
  <rdf:RDF xmlns:cc="http://creativecommons.org/ns#" xmlns:dc="http://purl.org/dc/elements/1.1/" xmlns:rdf="http://www.w3.org/1999/02/22-rdf-syntax-ns#">
   <cc:Work>
    <dc:type rdf:resource="http://purl.org/dc/dcmitype/StillImage"/>
    <dc:date>2021-06-11T14:39:37.422098</dc:date>
    <dc:format>image/svg+xml</dc:format>
    <dc:creator>
     <cc:Agent>
      <dc:title>Matplotlib v3.4.2, https://matplotlib.org/</dc:title>
     </cc:Agent>
    </dc:creator>
   </cc:Work>
  </rdf:RDF>
 </metadata>
 <defs>
  <style type="text/css">*{stroke-linecap:butt;stroke-linejoin:round;}</style>
 </defs>
 <g id="figure_1">
  <g id="patch_1">
   <path d="M 0 383.471875 
L 421.086875 383.471875 
L 421.086875 0 
L 0 0 
z
" style="fill:#ffffff;"/>
  </g>
  <g id="axes_1">
   <g id="patch_2">
    <path d="M 63.336875 339.84 
L 398.136875 339.84 
L 398.136875 7.2 
L 63.336875 7.2 
z
" style="fill:#ffffff;"/>
   </g>
   <g id="matplotlib.axis_1">
    <g id="xtick_1">
     <g id="line2d_1">
      <path clip-path="url(#p32388d0bd2)" d="M 93.773239 339.84 
L 93.773239 7.2 
" style="fill:none;stroke:#000000;stroke-dasharray:0.5,0.825;stroke-dashoffset:0;stroke-width:0.5;"/>
     </g>
     <g id="line2d_2">
      <defs>
       <path d="M 0 0 
L 0 3.5 
" id="m42ff10f1f7" style="stroke:#000000;stroke-width:0.8;"/>
      </defs>
      <g>
       <use style="stroke:#000000;stroke-width:0.8;" x="93.773239" xlink:href="#m42ff10f1f7" y="339.84"/>
      </g>
     </g>
     <g id="text_1">
      <!-- 0.000 -->
      <g transform="translate(78.023239 356.56125)scale(0.14 -0.14)">
       <defs>
        <path d="M 231 2094 
Q 231 2819 450 3342 
Q 669 3866 1031 4122 
Q 1313 4325 1613 4325 
Q 2100 4325 2488 3828 
Q 2972 3213 2972 2159 
Q 2972 1422 2759 906 
Q 2547 391 2217 158 
Q 1888 -75 1581 -75 
Q 975 -75 572 641 
Q 231 1244 231 2094 
z
M 844 2016 
Q 844 1141 1059 588 
Q 1238 122 1591 122 
Q 1759 122 1940 273 
Q 2122 425 2216 781 
Q 2359 1319 2359 2297 
Q 2359 3022 2209 3506 
Q 2097 3866 1919 4016 
Q 1791 4119 1609 4119 
Q 1397 4119 1231 3928 
Q 1006 3669 925 3112 
Q 844 2556 844 2016 
z
" id="TimesNewRomanPSMT-30" transform="scale(0.015625)"/>
        <path d="M 800 606 
Q 947 606 1047 504 
Q 1147 403 1147 259 
Q 1147 116 1045 14 
Q 944 -88 800 -88 
Q 656 -88 554 14 
Q 453 116 453 259 
Q 453 406 554 506 
Q 656 606 800 606 
z
" id="TimesNewRomanPSMT-2e" transform="scale(0.015625)"/>
       </defs>
       <use xlink:href="#TimesNewRomanPSMT-30"/>
       <use x="50" xlink:href="#TimesNewRomanPSMT-2e"/>
       <use x="75" xlink:href="#TimesNewRomanPSMT-30"/>
       <use x="125" xlink:href="#TimesNewRomanPSMT-30"/>
       <use x="175" xlink:href="#TimesNewRomanPSMT-30"/>
      </g>
     </g>
    </g>
    <g id="xtick_2">
     <g id="line2d_3">
      <path clip-path="url(#p32388d0bd2)" d="M 154.645966 339.84 
L 154.645966 7.2 
" style="fill:none;stroke:#000000;stroke-dasharray:0.5,0.825;stroke-dashoffset:0;stroke-width:0.5;"/>
     </g>
     <g id="line2d_4">
      <g>
       <use style="stroke:#000000;stroke-width:0.8;" x="154.645966" xlink:href="#m42ff10f1f7" y="339.84"/>
      </g>
     </g>
     <g id="text_2">
      <!-- 0.001 -->
      <g transform="translate(138.895966 356.56125)scale(0.14 -0.14)">
       <defs>
        <path d="M 750 3822 
L 1781 4325 
L 1884 4325 
L 1884 747 
Q 1884 391 1914 303 
Q 1944 216 2037 169 
Q 2131 122 2419 116 
L 2419 0 
L 825 0 
L 825 116 
Q 1125 122 1212 167 
Q 1300 213 1334 289 
Q 1369 366 1369 747 
L 1369 3034 
Q 1369 3497 1338 3628 
Q 1316 3728 1258 3775 
Q 1200 3822 1119 3822 
Q 1003 3822 797 3725 
L 750 3822 
z
" id="TimesNewRomanPSMT-31" transform="scale(0.015625)"/>
       </defs>
       <use xlink:href="#TimesNewRomanPSMT-30"/>
       <use x="50" xlink:href="#TimesNewRomanPSMT-2e"/>
       <use x="75" xlink:href="#TimesNewRomanPSMT-30"/>
       <use x="125" xlink:href="#TimesNewRomanPSMT-30"/>
       <use x="175" xlink:href="#TimesNewRomanPSMT-31"/>
      </g>
     </g>
    </g>
    <g id="xtick_3">
     <g id="line2d_5">
      <path clip-path="url(#p32388d0bd2)" d="M 215.518693 339.84 
L 215.518693 7.2 
" style="fill:none;stroke:#000000;stroke-dasharray:0.5,0.825;stroke-dashoffset:0;stroke-width:0.5;"/>
     </g>
     <g id="line2d_6">
      <g>
       <use style="stroke:#000000;stroke-width:0.8;" x="215.518693" xlink:href="#m42ff10f1f7" y="339.84"/>
      </g>
     </g>
     <g id="text_3">
      <!-- 0.002 -->
      <g transform="translate(199.768693 356.56125)scale(0.14 -0.14)">
       <defs>
        <path d="M 2934 816 
L 2638 0 
L 138 0 
L 138 116 
Q 1241 1122 1691 1759 
Q 2141 2397 2141 2925 
Q 2141 3328 1894 3587 
Q 1647 3847 1303 3847 
Q 991 3847 742 3664 
Q 494 3481 375 3128 
L 259 3128 
Q 338 3706 661 4015 
Q 984 4325 1469 4325 
Q 1984 4325 2329 3994 
Q 2675 3663 2675 3213 
Q 2675 2891 2525 2569 
Q 2294 2063 1775 1497 
Q 997 647 803 472 
L 1909 472 
Q 2247 472 2383 497 
Q 2519 522 2628 598 
Q 2738 675 2819 816 
L 2934 816 
z
" id="TimesNewRomanPSMT-32" transform="scale(0.015625)"/>
       </defs>
       <use xlink:href="#TimesNewRomanPSMT-30"/>
       <use x="50" xlink:href="#TimesNewRomanPSMT-2e"/>
       <use x="75" xlink:href="#TimesNewRomanPSMT-30"/>
       <use x="125" xlink:href="#TimesNewRomanPSMT-30"/>
       <use x="175" xlink:href="#TimesNewRomanPSMT-32"/>
      </g>
     </g>
    </g>
    <g id="xtick_4">
     <g id="line2d_7">
      <path clip-path="url(#p32388d0bd2)" d="M 276.39142 339.84 
L 276.39142 7.2 
" style="fill:none;stroke:#000000;stroke-dasharray:0.5,0.825;stroke-dashoffset:0;stroke-width:0.5;"/>
     </g>
     <g id="line2d_8">
      <g>
       <use style="stroke:#000000;stroke-width:0.8;" x="276.39142" xlink:href="#m42ff10f1f7" y="339.84"/>
      </g>
     </g>
     <g id="text_4">
      <!-- 0.003 -->
      <g transform="translate(260.64142 356.56125)scale(0.14 -0.14)">
       <defs>
        <path d="M 325 3431 
Q 506 3859 782 4092 
Q 1059 4325 1472 4325 
Q 1981 4325 2253 3994 
Q 2459 3747 2459 3466 
Q 2459 3003 1878 2509 
Q 2269 2356 2469 2072 
Q 2669 1788 2669 1403 
Q 2669 853 2319 450 
Q 1863 -75 997 -75 
Q 569 -75 414 31 
Q 259 138 259 259 
Q 259 350 332 419 
Q 406 488 509 488 
Q 588 488 669 463 
Q 722 447 909 348 
Q 1097 250 1169 231 
Q 1284 197 1416 197 
Q 1734 197 1970 444 
Q 2206 691 2206 1028 
Q 2206 1275 2097 1509 
Q 2016 1684 1919 1775 
Q 1784 1900 1550 2001 
Q 1316 2103 1072 2103 
L 972 2103 
L 972 2197 
Q 1219 2228 1467 2375 
Q 1716 2522 1828 2728 
Q 1941 2934 1941 3181 
Q 1941 3503 1739 3701 
Q 1538 3900 1238 3900 
Q 753 3900 428 3381 
L 325 3431 
z
" id="TimesNewRomanPSMT-33" transform="scale(0.015625)"/>
       </defs>
       <use xlink:href="#TimesNewRomanPSMT-30"/>
       <use x="50" xlink:href="#TimesNewRomanPSMT-2e"/>
       <use x="75" xlink:href="#TimesNewRomanPSMT-30"/>
       <use x="125" xlink:href="#TimesNewRomanPSMT-30"/>
       <use x="175" xlink:href="#TimesNewRomanPSMT-33"/>
      </g>
     </g>
    </g>
    <g id="xtick_5">
     <g id="line2d_9">
      <path clip-path="url(#p32388d0bd2)" d="M 337.264148 339.84 
L 337.264148 7.2 
" style="fill:none;stroke:#000000;stroke-dasharray:0.5,0.825;stroke-dashoffset:0;stroke-width:0.5;"/>
     </g>
     <g id="line2d_10">
      <g>
       <use style="stroke:#000000;stroke-width:0.8;" x="337.264148" xlink:href="#m42ff10f1f7" y="339.84"/>
      </g>
     </g>
     <g id="text_5">
      <!-- 0.004 -->
      <g transform="translate(321.514148 356.56125)scale(0.14 -0.14)">
       <defs>
        <path d="M 2978 1563 
L 2978 1119 
L 2409 1119 
L 2409 0 
L 1894 0 
L 1894 1119 
L 100 1119 
L 100 1519 
L 2066 4325 
L 2409 4325 
L 2409 1563 
L 2978 1563 
z
M 1894 1563 
L 1894 3666 
L 406 1563 
L 1894 1563 
z
" id="TimesNewRomanPSMT-34" transform="scale(0.015625)"/>
       </defs>
       <use xlink:href="#TimesNewRomanPSMT-30"/>
       <use x="50" xlink:href="#TimesNewRomanPSMT-2e"/>
       <use x="75" xlink:href="#TimesNewRomanPSMT-30"/>
       <use x="125" xlink:href="#TimesNewRomanPSMT-30"/>
       <use x="175" xlink:href="#TimesNewRomanPSMT-34"/>
      </g>
     </g>
    </g>
    <g id="xtick_6">
     <g id="line2d_11">
      <path clip-path="url(#p32388d0bd2)" d="M 398.136875 339.84 
L 398.136875 7.2 
" style="fill:none;stroke:#000000;stroke-dasharray:0.5,0.825;stroke-dashoffset:0;stroke-width:0.5;"/>
     </g>
     <g id="line2d_12">
      <g>
       <use style="stroke:#000000;stroke-width:0.8;" x="398.136875" xlink:href="#m42ff10f1f7" y="339.84"/>
      </g>
     </g>
     <g id="text_6">
      <!-- 0.005 -->
      <g transform="translate(382.386875 356.56125)scale(0.14 -0.14)">
       <defs>
        <path d="M 2778 4238 
L 2534 3706 
L 1259 3706 
L 981 3138 
Q 1809 3016 2294 2522 
Q 2709 2097 2709 1522 
Q 2709 1188 2573 903 
Q 2438 619 2231 419 
Q 2025 219 1772 97 
Q 1413 -75 1034 -75 
Q 653 -75 479 54 
Q 306 184 306 341 
Q 306 428 378 495 
Q 450 563 559 563 
Q 641 563 702 538 
Q 763 513 909 409 
Q 1144 247 1384 247 
Q 1750 247 2026 523 
Q 2303 800 2303 1197 
Q 2303 1581 2056 1914 
Q 1809 2247 1375 2428 
Q 1034 2569 447 2591 
L 1259 4238 
L 2778 4238 
z
" id="TimesNewRomanPSMT-35" transform="scale(0.015625)"/>
       </defs>
       <use xlink:href="#TimesNewRomanPSMT-30"/>
       <use x="50" xlink:href="#TimesNewRomanPSMT-2e"/>
       <use x="75" xlink:href="#TimesNewRomanPSMT-30"/>
       <use x="125" xlink:href="#TimesNewRomanPSMT-30"/>
       <use x="175" xlink:href="#TimesNewRomanPSMT-35"/>
      </g>
     </g>
    </g>
    <g id="text_7">
     <!-- Time (sec) -->
     <g transform="translate(200.858906 373.277188)scale(0.14 -0.14)">
      <defs>
       <path d="M 3703 4238 
L 3750 3244 
L 3631 3244 
Q 3597 3506 3538 3619 
Q 3441 3800 3280 3886 
Q 3119 3972 2856 3972 
L 2259 3972 
L 2259 734 
Q 2259 344 2344 247 
Q 2463 116 2709 116 
L 2856 116 
L 2856 0 
L 1059 0 
L 1059 116 
L 1209 116 
Q 1478 116 1591 278 
Q 1659 378 1659 734 
L 1659 3972 
L 1150 3972 
Q 853 3972 728 3928 
Q 566 3869 450 3700 
Q 334 3531 313 3244 
L 194 3244 
L 244 4238 
L 3703 4238 
z
" id="TimesNewRomanPSMT-54" transform="scale(0.015625)"/>
       <path d="M 928 4444 
Q 1059 4444 1151 4351 
Q 1244 4259 1244 4128 
Q 1244 3997 1151 3903 
Q 1059 3809 928 3809 
Q 797 3809 703 3903 
Q 609 3997 609 4128 
Q 609 4259 701 4351 
Q 794 4444 928 4444 
z
M 1188 2947 
L 1188 647 
Q 1188 378 1227 289 
Q 1266 200 1342 156 
Q 1419 113 1622 113 
L 1622 0 
L 231 0 
L 231 113 
Q 441 113 512 153 
Q 584 194 626 287 
Q 669 381 669 647 
L 669 1750 
Q 669 2216 641 2353 
Q 619 2453 572 2492 
Q 525 2531 444 2531 
Q 356 2531 231 2484 
L 188 2597 
L 1050 2947 
L 1188 2947 
z
" id="TimesNewRomanPSMT-69" transform="scale(0.015625)"/>
       <path d="M 1050 2338 
Q 1363 2650 1419 2697 
Q 1559 2816 1721 2881 
Q 1884 2947 2044 2947 
Q 2313 2947 2506 2790 
Q 2700 2634 2766 2338 
Q 3088 2713 3309 2830 
Q 3531 2947 3766 2947 
Q 3994 2947 4170 2830 
Q 4347 2713 4450 2447 
Q 4519 2266 4519 1878 
L 4519 647 
Q 4519 378 4559 278 
Q 4591 209 4675 161 
Q 4759 113 4950 113 
L 4950 0 
L 3538 0 
L 3538 113 
L 3597 113 
Q 3781 113 3884 184 
Q 3956 234 3988 344 
Q 4000 397 4000 647 
L 4000 1878 
Q 4000 2228 3916 2372 
Q 3794 2572 3525 2572 
Q 3359 2572 3192 2489 
Q 3025 2406 2788 2181 
L 2781 2147 
L 2788 2013 
L 2788 647 
Q 2788 353 2820 281 
Q 2853 209 2943 161 
Q 3034 113 3253 113 
L 3253 0 
L 1806 0 
L 1806 113 
Q 2044 113 2133 169 
Q 2222 225 2256 338 
Q 2272 391 2272 647 
L 2272 1878 
Q 2272 2228 2169 2381 
Q 2031 2581 1784 2581 
Q 1616 2581 1450 2491 
Q 1191 2353 1050 2181 
L 1050 647 
Q 1050 366 1089 281 
Q 1128 197 1204 155 
Q 1281 113 1516 113 
L 1516 0 
L 100 0 
L 100 113 
Q 297 113 375 155 
Q 453 197 493 289 
Q 534 381 534 647 
L 534 1741 
Q 534 2213 506 2350 
Q 484 2453 437 2492 
Q 391 2531 309 2531 
Q 222 2531 100 2484 
L 53 2597 
L 916 2947 
L 1050 2947 
L 1050 2338 
z
" id="TimesNewRomanPSMT-6d" transform="scale(0.015625)"/>
       <path d="M 681 1784 
Q 678 1147 991 784 
Q 1303 422 1725 422 
Q 2006 422 2214 576 
Q 2422 731 2563 1106 
L 2659 1044 
Q 2594 616 2278 264 
Q 1963 -88 1488 -88 
Q 972 -88 605 314 
Q 238 716 238 1394 
Q 238 2128 614 2539 
Q 991 2950 1559 2950 
Q 2041 2950 2350 2633 
Q 2659 2316 2659 1784 
L 681 1784 
z
M 681 1966 
L 2006 1966 
Q 1991 2241 1941 2353 
Q 1863 2528 1708 2628 
Q 1553 2728 1384 2728 
Q 1125 2728 920 2526 
Q 716 2325 681 1966 
z
" id="TimesNewRomanPSMT-65" transform="scale(0.015625)"/>
       <path id="TimesNewRomanPSMT-20" transform="scale(0.015625)"/>
       <path d="M 1988 -1253 
L 1988 -1369 
Q 1516 -1131 1200 -813 
Q 750 -359 506 256 
Q 263 872 263 1534 
Q 263 2503 741 3301 
Q 1219 4100 1988 4444 
L 1988 4313 
Q 1603 4100 1356 3731 
Q 1109 3363 987 2797 
Q 866 2231 866 1616 
Q 866 947 969 400 
Q 1050 -31 1165 -292 
Q 1281 -553 1476 -793 
Q 1672 -1034 1988 -1253 
z
" id="TimesNewRomanPSMT-28" transform="scale(0.015625)"/>
       <path d="M 2050 2947 
L 2050 1972 
L 1947 1972 
Q 1828 2431 1642 2597 
Q 1456 2763 1169 2763 
Q 950 2763 815 2647 
Q 681 2531 681 2391 
Q 681 2216 781 2091 
Q 878 1963 1175 1819 
L 1631 1597 
Q 2266 1288 2266 781 
Q 2266 391 1970 151 
Q 1675 -88 1309 -88 
Q 1047 -88 709 6 
Q 606 38 541 38 
Q 469 38 428 -44 
L 325 -44 
L 325 978 
L 428 978 
Q 516 541 762 319 
Q 1009 97 1316 97 
Q 1531 97 1667 223 
Q 1803 350 1803 528 
Q 1803 744 1651 891 
Q 1500 1038 1047 1263 
Q 594 1488 453 1669 
Q 313 1847 313 2119 
Q 313 2472 555 2709 
Q 797 2947 1181 2947 
Q 1350 2947 1591 2875 
Q 1750 2828 1803 2828 
Q 1853 2828 1881 2850 
Q 1909 2872 1947 2947 
L 2050 2947 
z
" id="TimesNewRomanPSMT-73" transform="scale(0.015625)"/>
       <path d="M 2631 1088 
Q 2516 522 2178 217 
Q 1841 -88 1431 -88 
Q 944 -88 581 321 
Q 219 731 219 1428 
Q 219 2103 620 2525 
Q 1022 2947 1584 2947 
Q 2006 2947 2278 2723 
Q 2550 2500 2550 2259 
Q 2550 2141 2473 2067 
Q 2397 1994 2259 1994 
Q 2075 1994 1981 2113 
Q 1928 2178 1911 2362 
Q 1894 2547 1784 2644 
Q 1675 2738 1481 2738 
Q 1169 2738 978 2506 
Q 725 2200 725 1697 
Q 725 1184 976 792 
Q 1228 400 1656 400 
Q 1963 400 2206 609 
Q 2378 753 2541 1131 
L 2631 1088 
z
" id="TimesNewRomanPSMT-63" transform="scale(0.015625)"/>
       <path d="M 144 4313 
L 144 4444 
Q 619 4209 934 3891 
Q 1381 3434 1625 2820 
Q 1869 2206 1869 1541 
Q 1869 572 1392 -226 
Q 916 -1025 144 -1369 
L 144 -1253 
Q 528 -1038 776 -670 
Q 1025 -303 1145 264 
Q 1266 831 1266 1447 
Q 1266 2113 1163 2663 
Q 1084 3094 967 3353 
Q 850 3613 656 3853 
Q 463 4094 144 4313 
z
" id="TimesNewRomanPSMT-29" transform="scale(0.015625)"/>
      </defs>
      <use xlink:href="#TimesNewRomanPSMT-54"/>
      <use x="57.583984" xlink:href="#TimesNewRomanPSMT-69"/>
      <use x="85.367188" xlink:href="#TimesNewRomanPSMT-6d"/>
      <use x="163.150391" xlink:href="#TimesNewRomanPSMT-65"/>
      <use x="207.535156" xlink:href="#TimesNewRomanPSMT-20"/>
      <use x="232.535156" xlink:href="#TimesNewRomanPSMT-28"/>
      <use x="265.835938" xlink:href="#TimesNewRomanPSMT-73"/>
      <use x="304.751953" xlink:href="#TimesNewRomanPSMT-65"/>
      <use x="349.136719" xlink:href="#TimesNewRomanPSMT-63"/>
      <use x="393.521484" xlink:href="#TimesNewRomanPSMT-29"/>
     </g>
    </g>
   </g>
   <g id="matplotlib.axis_2">
    <g id="ytick_1">
     <g id="line2d_13">
      <path clip-path="url(#p32388d0bd2)" d="M 63.336875 282.452383 
L 398.136875 282.452383 
" style="fill:none;stroke:#000000;stroke-dasharray:0.5,0.825;stroke-dashoffset:0;stroke-width:0.5;"/>
     </g>
     <g id="line2d_14">
      <defs>
       <path d="M 0 0 
L -3.5 0 
" id="m4223074efe" style="stroke:#000000;stroke-width:0.8;"/>
      </defs>
      <g>
       <use style="stroke:#000000;stroke-width:0.8;" x="63.336875" xlink:href="#m4223074efe" y="282.452383"/>
      </g>
     </g>
     <g id="text_8">
      <!-- −0.04 -->
      <g transform="translate(23.942188 287.313008)scale(0.14 -0.14)">
       <defs>
        <path d="M 3484 2000 
L 116 2000 
L 116 2256 
L 3484 2256 
L 3484 2000 
z
" id="TimesNewRomanPSMT-2212" transform="scale(0.015625)"/>
       </defs>
       <use xlink:href="#TimesNewRomanPSMT-2212"/>
       <use x="56.396484" xlink:href="#TimesNewRomanPSMT-30"/>
       <use x="106.396484" xlink:href="#TimesNewRomanPSMT-2e"/>
       <use x="131.396484" xlink:href="#TimesNewRomanPSMT-30"/>
       <use x="181.396484" xlink:href="#TimesNewRomanPSMT-34"/>
      </g>
     </g>
    </g>
    <g id="ytick_2">
     <g id="line2d_15">
      <path clip-path="url(#p32388d0bd2)" d="M 63.336875 218.086281 
L 398.136875 218.086281 
" style="fill:none;stroke:#000000;stroke-dasharray:0.5,0.825;stroke-dashoffset:0;stroke-width:0.5;"/>
     </g>
     <g id="line2d_16">
      <g>
       <use style="stroke:#000000;stroke-width:0.8;" x="63.336875" xlink:href="#m4223074efe" y="218.086281"/>
      </g>
     </g>
     <g id="text_9">
      <!-- −0.02 -->
      <g transform="translate(23.942188 222.946906)scale(0.14 -0.14)">
       <use xlink:href="#TimesNewRomanPSMT-2212"/>
       <use x="56.396484" xlink:href="#TimesNewRomanPSMT-30"/>
       <use x="106.396484" xlink:href="#TimesNewRomanPSMT-2e"/>
       <use x="131.396484" xlink:href="#TimesNewRomanPSMT-30"/>
       <use x="181.396484" xlink:href="#TimesNewRomanPSMT-32"/>
      </g>
     </g>
    </g>
    <g id="ytick_3">
     <g id="line2d_17">
      <path clip-path="url(#p32388d0bd2)" d="M 63.336875 153.720179 
L 398.136875 153.720179 
" style="fill:none;stroke:#000000;stroke-dasharray:0.5,0.825;stroke-dashoffset:0;stroke-width:0.5;"/>
     </g>
     <g id="line2d_18">
      <g>
       <use style="stroke:#000000;stroke-width:0.8;" x="63.336875" xlink:href="#m4223074efe" y="153.720179"/>
      </g>
     </g>
     <g id="text_10">
      <!-- 0.00 -->
      <g transform="translate(31.836875 158.580804)scale(0.14 -0.14)">
       <use xlink:href="#TimesNewRomanPSMT-30"/>
       <use x="50" xlink:href="#TimesNewRomanPSMT-2e"/>
       <use x="75" xlink:href="#TimesNewRomanPSMT-30"/>
       <use x="125" xlink:href="#TimesNewRomanPSMT-30"/>
      </g>
     </g>
    </g>
    <g id="ytick_4">
     <g id="line2d_19">
      <path clip-path="url(#p32388d0bd2)" d="M 63.336875 89.354077 
L 398.136875 89.354077 
" style="fill:none;stroke:#000000;stroke-dasharray:0.5,0.825;stroke-dashoffset:0;stroke-width:0.5;"/>
     </g>
     <g id="line2d_20">
      <g>
       <use style="stroke:#000000;stroke-width:0.8;" x="63.336875" xlink:href="#m4223074efe" y="89.354077"/>
      </g>
     </g>
     <g id="text_11">
      <!-- 0.02 -->
      <g transform="translate(31.836875 94.214702)scale(0.14 -0.14)">
       <use xlink:href="#TimesNewRomanPSMT-30"/>
       <use x="50" xlink:href="#TimesNewRomanPSMT-2e"/>
       <use x="75" xlink:href="#TimesNewRomanPSMT-30"/>
       <use x="125" xlink:href="#TimesNewRomanPSMT-32"/>
      </g>
     </g>
    </g>
    <g id="ytick_5">
     <g id="line2d_21">
      <path clip-path="url(#p32388d0bd2)" d="M 63.336875 24.987975 
L 398.136875 24.987975 
" style="fill:none;stroke:#000000;stroke-dasharray:0.5,0.825;stroke-dashoffset:0;stroke-width:0.5;"/>
     </g>
     <g id="line2d_22">
      <g>
       <use style="stroke:#000000;stroke-width:0.8;" x="63.336875" xlink:href="#m4223074efe" y="24.987975"/>
      </g>
     </g>
     <g id="text_12">
      <!-- 0.04 -->
      <g transform="translate(31.836875 29.8486)scale(0.14 -0.14)">
       <use xlink:href="#TimesNewRomanPSMT-30"/>
       <use x="50" xlink:href="#TimesNewRomanPSMT-2e"/>
       <use x="75" xlink:href="#TimesNewRomanPSMT-30"/>
       <use x="125" xlink:href="#TimesNewRomanPSMT-34"/>
      </g>
     </g>
    </g>
    <g id="text_13">
     <!-- Volatage (V) -->
     <g transform="translate(16.92125 209.352344)rotate(-90)scale(0.14 -0.14)">
      <defs>
       <path d="M 4544 4238 
L 4544 4122 
Q 4319 4081 4203 3978 
Q 4038 3825 3909 3509 
L 2431 -97 
L 2316 -97 
L 728 3556 
Q 606 3838 556 3900 
Q 478 3997 364 4051 
Q 250 4106 56 4122 
L 56 4238 
L 1788 4238 
L 1788 4122 
Q 1494 4094 1406 4022 
Q 1319 3950 1319 3838 
Q 1319 3681 1463 3350 
L 2541 866 
L 3541 3319 
Q 3688 3681 3688 3822 
Q 3688 3913 3597 3995 
Q 3506 4078 3291 4113 
Q 3275 4116 3238 4122 
L 3238 4238 
L 4544 4238 
z
" id="TimesNewRomanPSMT-56" transform="scale(0.015625)"/>
       <path d="M 1600 2947 
Q 2250 2947 2644 2453 
Q 2978 2031 2978 1484 
Q 2978 1100 2793 706 
Q 2609 313 2286 112 
Q 1963 -88 1566 -88 
Q 919 -88 538 428 
Q 216 863 216 1403 
Q 216 1797 411 2186 
Q 606 2575 925 2761 
Q 1244 2947 1600 2947 
z
M 1503 2744 
Q 1338 2744 1170 2645 
Q 1003 2547 900 2300 
Q 797 2053 797 1666 
Q 797 1041 1045 587 
Q 1294 134 1700 134 
Q 2003 134 2200 384 
Q 2397 634 2397 1244 
Q 2397 2006 2069 2444 
Q 1847 2744 1503 2744 
z
" id="TimesNewRomanPSMT-6f" transform="scale(0.015625)"/>
       <path d="M 1184 4444 
L 1184 647 
Q 1184 378 1223 290 
Q 1263 203 1344 158 
Q 1425 113 1647 113 
L 1647 0 
L 244 0 
L 244 113 
Q 441 113 512 153 
Q 584 194 625 287 
Q 666 381 666 647 
L 666 3247 
Q 666 3731 644 3842 
Q 622 3953 573 3993 
Q 525 4034 450 4034 
Q 369 4034 244 3984 
L 191 4094 
L 1044 4444 
L 1184 4444 
z
" id="TimesNewRomanPSMT-6c" transform="scale(0.015625)"/>
       <path d="M 1822 413 
Q 1381 72 1269 19 
Q 1100 -59 909 -59 
Q 613 -59 420 144 
Q 228 347 228 678 
Q 228 888 322 1041 
Q 450 1253 767 1440 
Q 1084 1628 1822 1897 
L 1822 2009 
Q 1822 2438 1686 2597 
Q 1550 2756 1291 2756 
Q 1094 2756 978 2650 
Q 859 2544 859 2406 
L 866 2225 
Q 866 2081 792 2003 
Q 719 1925 600 1925 
Q 484 1925 411 2006 
Q 338 2088 338 2228 
Q 338 2497 613 2722 
Q 888 2947 1384 2947 
Q 1766 2947 2009 2819 
Q 2194 2722 2281 2516 
Q 2338 2381 2338 1966 
L 2338 994 
Q 2338 584 2353 492 
Q 2369 400 2405 369 
Q 2441 338 2488 338 
Q 2538 338 2575 359 
Q 2641 400 2828 588 
L 2828 413 
Q 2478 -56 2159 -56 
Q 2006 -56 1915 50 
Q 1825 156 1822 413 
z
M 1822 616 
L 1822 1706 
Q 1350 1519 1213 1441 
Q 966 1303 859 1153 
Q 753 1003 753 825 
Q 753 600 887 451 
Q 1022 303 1197 303 
Q 1434 303 1822 616 
z
" id="TimesNewRomanPSMT-61" transform="scale(0.015625)"/>
       <path d="M 1031 3803 
L 1031 2863 
L 1700 2863 
L 1700 2644 
L 1031 2644 
L 1031 788 
Q 1031 509 1111 412 
Q 1191 316 1316 316 
Q 1419 316 1516 380 
Q 1613 444 1666 569 
L 1788 569 
Q 1678 263 1478 108 
Q 1278 -47 1066 -47 
Q 922 -47 784 33 
Q 647 113 581 261 
Q 516 409 516 719 
L 516 2644 
L 63 2644 
L 63 2747 
Q 234 2816 414 2980 
Q 594 3144 734 3369 
Q 806 3488 934 3803 
L 1031 3803 
z
" id="TimesNewRomanPSMT-74" transform="scale(0.015625)"/>
       <path d="M 966 1044 
Q 703 1172 562 1401 
Q 422 1631 422 1909 
Q 422 2334 742 2640 
Q 1063 2947 1563 2947 
Q 1972 2947 2272 2747 
L 2878 2747 
Q 3013 2747 3034 2739 
Q 3056 2731 3066 2713 
Q 3084 2684 3084 2613 
Q 3084 2531 3069 2500 
Q 3059 2484 3036 2475 
Q 3013 2466 2878 2466 
L 2506 2466 
Q 2681 2241 2681 1891 
Q 2681 1491 2375 1206 
Q 2069 922 1553 922 
Q 1341 922 1119 984 
Q 981 866 932 777 
Q 884 688 884 625 
Q 884 572 936 522 
Q 988 472 1138 450 
Q 1225 438 1575 428 
Q 2219 413 2409 384 
Q 2700 344 2873 169 
Q 3047 -6 3047 -263 
Q 3047 -616 2716 -925 
Q 2228 -1381 1444 -1381 
Q 841 -1381 425 -1109 
Q 191 -953 191 -784 
Q 191 -709 225 -634 
Q 278 -519 444 -313 
Q 466 -284 763 25 
Q 600 122 533 198 
Q 466 275 466 372 
Q 466 481 555 628 
Q 644 775 966 1044 
z
M 1509 2797 
Q 1278 2797 1122 2612 
Q 966 2428 966 2047 
Q 966 1553 1178 1281 
Q 1341 1075 1591 1075 
Q 1828 1075 1981 1253 
Q 2134 1431 2134 1813 
Q 2134 2309 1919 2591 
Q 1759 2797 1509 2797 
z
M 934 0 
Q 788 -159 713 -296 
Q 638 -434 638 -550 
Q 638 -700 819 -813 
Q 1131 -1006 1722 -1006 
Q 2284 -1006 2551 -807 
Q 2819 -609 2819 -384 
Q 2819 -222 2659 -153 
Q 2497 -84 2016 -72 
Q 1313 -53 934 0 
z
" id="TimesNewRomanPSMT-67" transform="scale(0.015625)"/>
      </defs>
      <use xlink:href="#TimesNewRomanPSMT-56"/>
      <use x="59.341797" xlink:href="#TimesNewRomanPSMT-6f"/>
      <use x="109.341797" xlink:href="#TimesNewRomanPSMT-6c"/>
      <use x="137.125" xlink:href="#TimesNewRomanPSMT-61"/>
      <use x="181.509766" xlink:href="#TimesNewRomanPSMT-74"/>
      <use x="209.292969" xlink:href="#TimesNewRomanPSMT-61"/>
      <use x="253.677734" xlink:href="#TimesNewRomanPSMT-67"/>
      <use x="303.677734" xlink:href="#TimesNewRomanPSMT-65"/>
      <use x="348.0625" xlink:href="#TimesNewRomanPSMT-20"/>
      <use x="373.0625" xlink:href="#TimesNewRomanPSMT-28"/>
      <use x="406.363281" xlink:href="#TimesNewRomanPSMT-56"/>
      <use x="478.580078" xlink:href="#TimesNewRomanPSMT-29"/>
     </g>
    </g>
   </g>
   <g id="LineCollection_1">
    <path clip-path="url(#p32388d0bd2)" d="M 78.555057 153.720179 
L 382.918693 153.720179 
" style="fill:none;stroke:#1f77b4;stroke-width:1.5;"/>
   </g>
   <g id="line2d_23">
    <path clip-path="url(#p32388d0bd2)" d="M 78.555057 153.707306 
L 84.946693 153.787764 
L 85.068439 153.787764 
L 85.190184 153.787764 
L 87.65553 153.747535 
L 87.685966 153.667077 
L 87.746839 153.747535 
L 98.430002 153.707306 
L 98.460439 153.626848 
L 98.551748 153.667077 
L 101.230148 153.747535 
L 101.351893 153.747535 
L 104.243348 153.707306 
L 104.273784 153.626848 
L 104.30422 153.747535 
L 104.365093 153.667077 
L 104.456402 153.747535 
L 104.486839 153.707306 
L 104.608584 153.747535 
L 104.73033 153.707306 
L 104.882511 153.747535 
L 105.004257 153.747535 
L 111.274148 153.827992 
L 111.395893 153.868221 
L 111.487202 153.827992 
L 111.517639 153.868221 
L 112.00462 153.90845 
L 112.035057 153.988908 
L 112.09593 153.868221 
L 112.126366 153.948679 
L 112.76553 154.029137 
L 112.917711 154.069365 
L 113.313384 154.149823 
L 113.465566 154.190052 
L 113.67862 154.230281 
L 113.800366 154.310738 
L 113.891675 154.270509 
L 113.922111 154.310738 
L 114.409093 154.350967 
L 114.43953 154.471653 
L 114.530839 154.431425 
L 114.77433 154.511882 
L 114.926511 154.59234 
L 115.048257 154.59234 
L 115.200439 154.713026 
L 115.230875 154.672797 
L 115.291748 154.632569 
L 115.322184 154.713026 
L 115.626548 154.793484 
L 115.77873 154.833713 
L 115.809166 154.793484 
L 115.870039 154.873942 
L 116.052657 154.954399 
L 116.143966 154.954399 
L 116.174402 155.034857 
L 116.265711 154.994628 
L 116.69182 155.075086 
L 116.874439 155.155543 
L 117.02662 155.115314 
L 117.178802 155.195772 
L 117.36142 155.27623 
L 117.483166 155.27623 
L 117.970148 155.356687 
L 118.12233 155.396916 
L 118.36582 155.477374 
L 118.548439 155.557831 
L 118.852802 155.638289 
L 119.004984 155.678518 
L 119.248475 155.758975 
L 119.431093 155.839433 
L 119.552839 155.919891 
L 119.765893 156.040577 
L 119.948511 156.121035 
L 120.13113 156.241721 
L 120.161566 156.161264 
L 120.222439 156.241721 
L 120.496366 156.483094 
L 120.526802 156.402637 
L 120.557239 156.523323 
L 120.587675 156.523323 
L 121.013784 156.925611 
L 121.13553 157.006069 
L 121.348584 157.28767 
L 121.37902 157.247442 
L 121.409457 157.28767 
L 121.71382 157.810645 
L 122.13993 158.534764 
L 122.38342 159.057738 
L 124.300911 164.40817 
L 126.796693 174.746975 
L 127.192366 176.63773 
L 127.648911 178.890544 
L 128.805493 184.442118 
L 131.057784 192.970628 
L 131.17953 193.292459 
L 132.001311 195.183213 
L 132.396984 195.545272 
L 132.549166 195.62573 
L 132.701348 195.665959 
L 133.005711 195.62573 
L 133.157893 195.505044 
L 133.218766 195.464815 
L 133.492693 195.022298 
L 133.76662 194.499323 
L 134.497093 192.809713 
L 134.52753 192.809713 
L 135.10582 190.959188 
L 135.379748 189.993696 
L 136.901566 181.384731 
L 137.54073 176.476815 
L 139.823457 154.391196 
L 141.22353 136.449145 
L 146.48902 61.502861 
L 148.376075 40.342515 
L 149.471784 31.210568 
L 150.415311 25.699217 
L 151.17622 23.044119 
L 151.237093 22.963661 
L 151.450148 22.682059 
L 151.724075 22.440683 
L 151.754511 22.480918 
L 151.815384 22.400458 
L 152.454548 22.480918 
L 152.667602 22.762517 
L 152.911093 23.245259 
L 153.61113 25.377393 
L 154.067675 27.63021 
L 155.132948 35.313904 
L 156.95913 55.750148 
L 158.511384 79.887429 
L 159.576657 100.042072 
L 166.211784 246.635869 
L 167.33793 268.158275 
L 168.524948 288.071547 
L 169.68153 303.278033 
L 170.92942 315.346677 
L 172.116439 322.467183 
L 173.059966 324.679765 
L 173.212148 324.72 
L 174.064366 323.432668 
L 174.70353 321.501688 
L 176.225348 312.892719 
L 177.62542 300.904533 
L 178.38633 292.939224 
L 181.947384 244.423281 
L 183.043093 226.923747 
L 185.478002 186.936305 
L 189.556475 129.248187 
L 191.200039 108.932636 
L 191.77833 102.616709 
L 192.569675 93.565229 
L 193.665384 83.145967 
L 196.861202 58.686844 
L 197.287311 55.91106 
L 197.80473 52.652522 
L 200.452693 42.595319 
L 200.81793 41.830975 
L 200.848366 41.871197 
L 200.878802 41.790752 
L 201.091857 41.388458 
L 201.365784 40.744797 
L 201.700584 40.141361 
L 201.913639 39.94022 
L 201.944075 39.980456 
L 202.82673 39.94022 
L 202.948475 39.85976 
L 203.131093 39.899995 
L 203.283275 40.020678 
L 203.73982 40.463195 
L 204.013748 40.543656 
L 204.135493 40.583878 
L 204.226802 40.583878 
L 204.40942 40.785019 
L 204.83553 41.509138 
L 205.07902 42.072351 
L 205.139893 42.152812 
L 205.566002 42.876917 
L 208.335711 50.480166 
L 209.85753 56.957009 
L 210.892366 61.864921 
L 211.470657 64.600487 
L 212.962039 73.048534 
L 213.722948 78.197822 
L 214.270802 82.542534 
L 215.336075 91.875622 
L 219.688475 139.064017 
L 222.214693 170.402263 
L 227.145384 234.124705 
L 229.488984 260.715944 
L 230.767311 271.617966 
L 231.497784 276.043126 
L 231.86302 278.094798 
L 232.350002 280.106239 
L 232.53262 280.830358 
L 232.989166 282.68088 
L 233.415275 283.927973 
L 233.62833 284.24981 
L 233.719639 284.330271 
L 234.450111 285.17507 
L 235.30233 283.927973 
L 235.54582 283.404999 
L 236.032802 281.876313 
L 237.402439 274.071923 
L 237.828548 270.531788 
L 238.98513 260.474581 
L 241.389602 233.923558 
L 242.546184 218.717066 
L 243.367966 207.694377 
L 244.281057 195.987789 
L 245.224584 183.476629 
L 247.385566 150.931518 
L 248.542148 134.23656 
L 249.150875 126.271255 
L 250.520511 109.616526 
L 251.37273 100.725961 
L 253.351093 85.921751 
L 254.477239 80.490865 
L 254.72073 79.605831 
L 255.05553 78.39897 
L 256.72953 74.255395 
L 256.912148 74.174944 
L 257.094766 74.094483 
L 257.246948 74.054255 
L 257.916548 74.134715 
L 258.373093 74.577226 
L 258.586148 74.617455 
L 258.677457 74.697916 
L 258.707893 74.657687 
L 258.860075 74.738144 
L 258.890511 74.697916 
L 258.951384 74.778373 
L 259.286184 75.059975 
L 259.377493 75.140433 
L 259.712293 75.502492 
L 259.74273 75.462263 
L 259.834039 75.542724 
L 260.168839 75.824322 
L 260.260148 75.864551 
L 260.534075 76.307071 
L 260.594948 76.387523 
L 260.929748 76.990961 
L 261.355857 77.835763 
L 261.508039 78.15759 
L 261.964584 79.565599 
L 262.055893 79.847207 
L 262.390693 81.013836 
L 263.76033 86.847017 
L 264.156002 88.777997 
L 264.521239 90.628526 
L 264.916911 92.921571 
L 265.921311 98.794975 
L 267.68662 111.145221 
L 268.295348 115.771535 
L 268.964948 120.920823 
L 269.482366 124.742561 
L 270.669384 133.311297 
L 272.617311 147.874128 
L 272.952111 150.16717 
L 273.530402 153.868221 
L 274.200002 157.569272 
L 274.626111 159.66117 
L 275.021784 161.551925 
L 276.969711 168.83334 
L 277.06102 169.114942 
L 277.761057 171.247069 
L 278.217602 172.614848 
L 278.369784 172.976907 
L 279.282875 175.109035 
L 279.922039 176.114755 
L 280.16553 176.476815 
L 280.74382 177.080247 
L 280.774257 177.040017 
L 280.804693 177.160704 
L 280.83513 177.120476 
L 281.017748 177.321619 
L 281.74822 178.126196 
L 281.991711 178.206653 
L 282.204766 178.32734 
L 282.326511 178.287111 
L 282.50913 178.488255 
L 282.539566 178.407798 
L 282.600439 178.488255 
L 282.783057 178.568713 
L 282.935239 178.448027 
L 282.965675 178.528485 
L 283.056984 178.488255 
L 283.270039 178.32734 
L 283.300475 178.367568 
L 283.361348 178.287111 
L 283.543966 178.206653 
L 283.665711 178.126196 
L 283.878766 178.00551 
L 284.000511 177.925051 
L 284.152693 177.764136 
L 284.244002 177.683679 
L 284.883166 176.999789 
L 285.004911 176.919332 
L 285.217966 176.63773 
L 286.10062 175.310179 
L 286.283239 174.988349 
L 286.557166 174.465375 
L 286.922402 173.781484 
L 287.226766 173.218281 
L 287.561566 172.57462 
L 287.592002 172.57462 
L 287.805057 172.172331 
L 288.078984 171.689586 
L 288.170293 171.609128 
L 289.083384 170.56318 
L 289.326875 170.482722 
L 289.44862 170.482722 
L 289.996475 170.402263 
L 290.11822 170.362035 
L 290.270402 170.482722 
L 290.331275 170.402263 
L 290.361711 170.442493 
L 291.731348 172.413705 
L 293.13142 176.396357 
L 293.587966 177.804366 
L 293.679275 178.085968 
L 294.105384 179.333061 
L 294.592366 180.901983 
L 295.048911 182.350221 
L 295.109784 182.43068 
L 295.718511 184.401892 
L 296.996839 187.499509 
L 297.057711 187.579968 
L 297.270766 187.982255 
L 297.666439 188.786832 
L 297.757748 188.867289 
L 297.90993 189.068433 
L 298.305602 189.430493 
L 298.396911 189.51095 
L 299.066511 190.235069 
L 299.766548 190.315527 
L 299.949166 190.436213 
L 300.010039 190.395984 
L 300.040475 190.436213 
L 300.223093 190.516671 
L 300.344839 190.476442 
L 300.49702 190.355755 
L 300.801384 190.074154 
L 300.862257 190.114382 
L 300.892693 190.033925 
L 301.014439 190.033925 
L 301.105748 189.913238 
L 301.136184 189.993696 
L 301.288366 189.87301 
L 301.318802 189.913238 
L 301.410111 189.832781 
L 302.627566 188.384543 
L 302.749311 188.304086 
L 304.27113 186.17196 
L 304.51462 185.608756 
L 304.60593 185.367382 
L 304.94073 184.482348 
L 306.158184 180.982442 
L 306.584293 179.292832 
L 306.85822 178.287111 
L 308.014802 172.695307 
L 308.166984 172.091873 
L 308.775711 168.793112 
L 310.236657 160.505976 
L 316.141311 122.208145 
L 316.689166 119.593272 
L 317.297893 116.93817 
L 317.754439 115.449704 
L 318.91102 111.306136 
L 319.33713 109.898128 
L 319.91542 108.047602 
L 320.067602 107.685543 
L 320.34153 107.001653 
L 320.493711 106.639594 
L 321.224184 104.990216 
L 322.289457 103.421289 
L 322.563384 102.978772 
L 324.754802 100.243212 
L 324.785239 100.243212 
L 324.93742 100.042072 
L 325.150475 99.921382 
L 325.546148 100.001843 
L 325.759202 100.122523 
L 325.880948 100.162755 
L 326.03313 100.32367 
L 326.794039 101.490302 
L 327.341893 102.656941 
L 327.554948 103.099458 
L 328.528911 105.955704 
L 330.081166 112.553229 
L 330.72033 116.053136 
L 333.490039 131.259628 
L 334.40313 136.61006 
L 334.64662 138.018068 
L 335.40753 142.40301 
L 335.498839 142.885755 
L 337.507639 152.942959 
L 338.08593 155.678518 
L 338.542475 157.97156 
L 338.66422 158.534764 
L 339.09033 160.666891 
L 339.242511 161.350781 
L 340.064293 165.132289 
L 341.34262 169.758603 
L 341.829602 171.327526 
L 342.316584 172.815992 
L 344.051457 177.120476 
L 344.386257 177.723908 
L 344.660184 178.206653 
L 344.721057 178.246883 
L 344.934111 178.528485 
L 345.634148 179.292832 
L 345.725457 179.333061 
L 345.938511 179.654891 
L 345.968948 179.614661 
L 345.999384 179.654891 
L 346.151566 179.856036 
L 347.521202 181.505416 
L 347.642948 181.545646 
L 347.825566 181.74679 
L 348.008184 181.907705 
L 348.03862 181.827246 
L 348.069057 181.947935 
L 348.099493 181.947935 
L 348.251675 182.06862 
L 348.282111 182.028391 
L 349.986548 181.947935 
L 350.169166 181.867476 
L 350.838766 181.787017 
L 350.960511 181.787017 
L 351.14313 181.706561 
L 351.356184 181.545646 
L 351.38662 181.626102 
L 351.417057 181.505416 
L 351.447493 181.545646 
L 351.72142 181.344501 
L 351.843166 181.264042 
L 352.14753 181.022672 
L 352.269275 180.942212 
L 352.512766 180.580153 
L 354.552002 178.045738 
L 354.582439 178.085968 
L 354.612875 178.00551 
L 354.73462 177.844594 
L 354.765057 177.884823 
L 355.191166 177.442306 
L 355.221602 177.482534 
L 355.252039 177.402077 
L 355.525966 177.160704 
L 355.617275 177.160704 
L 355.891202 176.95956 
L 356.134693 176.879102 
L 356.378184 176.718187 
L 356.591239 176.63773 
L 356.74342 176.5975 
L 356.865166 176.5975 
L 357.047784 176.476815 
L 357.07822 176.557272 
L 357.139093 176.476815 
L 357.534766 176.436585 
L 357.656511 176.356128 
L 357.930439 176.3159 
L 357.960875 176.235442 
L 358.052184 176.275671 
L 358.295675 176.114755 
L 358.478293 176.034298 
L 358.691348 175.913611 
L 358.721784 175.95384 
L 358.75222 175.913611 
L 358.873966 175.752696 
L 358.904402 175.833154 
L 358.965275 175.792925 
L 359.208766 175.632009 
L 359.360948 175.551552 
L 359.726184 175.229722 
L 359.878366 175.149264 
L 360.060984 175.068806 
L 360.152293 175.028577 
L 360.304475 174.907892 
L 360.42622 174.827433 
L 361.339311 173.781484 
L 361.43062 173.701026 
L 361.643675 173.338967 
L 361.674111 173.379196 
L 361.85673 172.976907 
L 362.252402 172.21256 
L 362.313275 172.132103 
L 362.617639 171.609128 
L 362.952439 171.005697 
L 363.53073 169.758603 
L 363.561166 169.758603 
L 363.804657 169.235629 
L 364.048148 168.752882 
L 364.413384 168.028763 
L 364.474257 167.948306 
L 364.930802 167.224188 
L 365.082984 166.942586 
L 365.143857 166.902357 
L 365.356911 166.620755 
L 365.387348 166.620755 
L 365.569966 166.339154 
L 366.696111 165.011603 
L 366.817857 164.931145 
L 367.000475 164.77023 
L 367.030911 164.850687 
L 367.061348 164.77023 
L 367.21353 164.609315 
L 367.304839 164.528857 
L 367.761384 164.08634 
L 367.88313 164.005882 
L 368.035311 163.885196 
L 368.065748 163.925425 
L 368.157057 163.885196 
L 368.187493 163.804738 
L 368.278802 163.844967 
L 368.430984 163.764509 
L 368.46142 163.804738 
L 368.583166 163.643823 
L 368.735348 163.563365 
L 369.070148 163.281764 
L 369.252766 163.201306 
L 369.46582 163.000162 
L 369.496257 163.080619 
L 369.55713 163.000162 
L 369.770184 162.959933 
L 369.922366 162.799018 
L 370.013675 162.758789 
L 370.196293 162.557645 
L 370.591966 162.195585 
L 370.683275 162.115128 
L 374.183457 157.327899 
L 374.57913 156.523323 
L 374.640002 156.442865 
L 374.883493 155.879662 
L 374.944366 155.799204 
L 379.296766 144.012162 
L 379.722875 142.72484 
L 379.814184 142.443238 
L 380.453348 140.472026 
L 380.970766 138.822645 
L 381.062075 138.581272 
L 381.579493 136.972119 
L 382.036039 135.483654 
L 382.462148 134.196331 
L 382.553457 133.91473 
L 382.918693 132.828552 
L 382.918693 132.828552 
" style="fill:none;stroke:#0000ff;stroke-linecap:square;stroke-width:1.5;"/>
   </g>
   <g id="line2d_24">
    <path clip-path="url(#p32388d0bd2)" d="M 78.555057 153.627814 
L 78.737675 153.627814 
L 81.172584 153.708272 
L 81.29433 153.728386 
L 81.446511 153.728386 
L 81.659566 153.7485 
L 81.87262 153.728386 
L 82.085675 153.7485 
L 89.633893 153.808844 
L 89.755639 153.828958 
L 94.381966 153.92953 
L 94.564584 153.92953 
L 99.738766 154.030102 
L 100.073566 154.130674 
L 100.408366 154.231246 
L 100.62142 154.372047 
L 100.743166 154.412276 
L 101.534511 155.055937 
L 102.691093 156.745547 
L 103.29982 158.073098 
L 103.482439 158.4955 
L 105.491239 165.495314 
L 106.160839 168.472246 
L 106.434766 169.739453 
L 107.621784 175.431831 
L 110.178439 186.776357 
L 111.943748 191.181412 
L 112.126366 191.422784 
L 112.856839 192.227361 
L 113.496002 192.146903 
L 113.709057 191.965873 
L 114.043857 191.623929 
L 114.530839 190.819352 
L 115.44393 188.103906 
L 116.083093 185.609722 
L 116.722257 182.150043 
L 118.000584 173.883021 
L 119.491966 162.256894 
L 122.13993 138.562122 
L 123.14433 129.108353 
L 125.092257 112.111678 
L 126.674948 102.376305 
L 127.283675 99.41949 
L 128.105457 95.658093 
L 129.74902 90.60938 
L 130.236002 90.146742 
L 131.17953 89.603653 
L 131.392584 89.724343 
L 131.940439 89.623771 
L 132.366548 89.241594 
L 132.51873 89.221483 
L 132.76222 89.322055 
L 133.797057 89.885262 
L 133.949239 89.98583 
L 135.044948 91.253041 
L 135.44062 91.313381 
L 135.86673 91.91681 
L 136.688511 92.821959 
L 136.810257 92.902419 
L 137.388548 93.827679 
L 137.936402 94.974207 
L 138.45382 96.221297 
L 139.184293 99.560288 
L 140.46262 105.976784 
L 140.88873 108.269826 
L 141.588766 112.03122 
L 142.867093 120.278127 
L 144.449784 132.588144 
L 150.232693 179.334026 
L 151.389275 188.325165 
L 151.906693 192.006102 
L 152.484984 196.049098 
L 154.554657 206.408018 
L 155.28513 208.861975 
L 155.680802 209.606205 
L 156.685202 210.752729 
L 157.446111 210.672272 
L 157.62873 210.611932 
L 157.841784 210.511353 
L 158.176584 210.189523 
L 159.120111 208.540145 
L 159.272293 208.339004 
L 161.159348 204.356348 
L 162.133311 201.500102 
L 162.468111 200.615068 
L 163.259457 197.618022 
L 165.055202 189.813632 
L 165.542184 187.822306 
L 167.977093 178.609907 
L 168.281457 178.086933 
L 168.464075 177.865674 
L 168.859748 177.322586 
L 169.529348 177.000754 
L 169.711966 177.061099 
L 170.68593 177.825445 
L 170.898984 178.267962 
L 172.299057 182.270728 
L 174.886148 194.741662 
L 176.347093 204.074746 
L 179.025493 222.740916 
L 180.029893 228.071231 
L 181.186475 231.510797 
L 181.947384 233.260754 
L 182.160439 233.522235 
L 182.830039 234.266471 
L 182.98222 234.286582 
L 183.195275 234.206131 
L 183.65182 233.421666 
L 183.98662 232.516515 
L 184.838839 229.338438 
L 185.538875 225.094302 
L 186.33022 218.537002 
L 187.456366 206.287331 
L 189.09993 184.28217 
L 191.413093 145.863653 
L 192.843602 121.424648 
L 195.826366 77.695928 
L 197.317748 62.127377 
L 198.71782 51.00411 
L 200.878802 38.814782 
L 201.15273 37.788948 
L 201.578839 36.76311 
L 202.309311 35.978648 
L 202.522366 35.878073 
L 202.704984 35.857968 
L 204.378984 38.231465 
L 204.774657 39.579127 
L 205.474693 42.797438 
L 208.670511 66.834151 
L 217.040511 132.326657 
L 221.14942 161.391975 
L 223.188657 174.164623 
L 224.101748 179.555284 
L 225.440948 187.70162 
L 227.236693 196.612301 
L 228.332402 201.178272 
L 229.975966 206.247102 
L 231.315166 208.680946 
L 231.467348 208.902204 
L 232.86742 211.436619 
L 233.354402 212.241199 
L 233.719639 213.06589 
L 234.63273 215.117556 
L 234.906657 215.761217 
L 236.64153 218.959411 
L 238.041602 220.649018 
L 238.132911 220.729479 
L 238.467711 220.990959 
L 238.55902 221.031191 
L 238.89382 221.151878 
L 239.106875 221.13176 
L 239.776475 221.031191 
L 240.019966 220.990959 
L 240.202584 221.011077 
L 240.415639 220.990959 
L 240.99393 221.091538 
L 241.359166 221.232339 
L 241.511348 221.25245 
L 241.785275 221.31279 
L 242.211384 221.413368 
L 242.607057 221.554166 
L 242.728802 221.594398 
L 243.67233 222.318517 
L 243.946257 222.761027 
L 244.554984 223.746636 
L 245.163711 225.054073 
L 247.050766 228.574091 
L 247.202948 228.795349 
L 248.329093 230.102789 
L 248.420402 230.163129 
L 248.663893 230.24359 
L 248.846511 230.303936 
L 249.181311 230.203358 
L 249.303057 230.183247 
L 249.637857 230.06256 
L 249.759602 230.022328 
L 250.155275 229.660269 
L 250.61182 228.976379 
L 250.794439 228.75512 
L 252.072766 225.999453 
L 252.772802 223.344348 
L 254.38593 214.272747 
L 255.96862 202.002962 
L 257.429566 187.480361 
L 259.499239 163.001128 
L 261.173239 140.593678 
L 262.99942 114.988038 
L 264.642984 92.681161 
L 266.286548 72.969042 
L 267.35182 61.604399 
L 268.904075 49.213931 
L 269.725857 44.446816 
L 270.517202 41.751483 
L 271.065057 40.584844 
L 271.765093 40.242902 
L 272.008584 40.303245 
L 272.13033 40.343468 
L 272.312948 40.444046 
L 272.952111 41.449763 
L 273.926075 44.326123 
L 274.352184 46.096198 
L 274.900039 49.153591 
L 275.539202 53.096008 
L 276.300111 58.828614 
L 277.000148 64.299733 
L 277.548002 69.04673 
L 279.374184 86.968666 
L 281.626475 110.401953 
L 283.300475 127.981945 
L 287.987675 173.360046 
L 290.940002 197.778937 
L 292.279202 206.729848 
L 294.288002 216.766934 
L 295.840257 220.588671 
L 296.448984 221.57428 
L 296.966402 222.358739 
L 298.031675 222.962174 
L 298.214293 222.942057 
L 298.336039 222.901828 
L 298.57953 222.801259 
L 299.279566 222.036909 
L 299.401311 221.93634 
L 299.675239 221.654738 
L 301.105748 218.577234 
L 301.653602 216.847395 
L 302.079711 215.379046 
L 302.871057 212.382 
L 303.662402 208.198197 
L 304.17982 204.899437 
L 307.801748 177.061099 
L 309.567057 165.012568 
L 311.119311 157.348979 
L 311.30193 156.604746 
L 312.64113 150.932483 
L 316.019566 137.958691 
L 316.536984 136.289195 
L 317.267457 134.25764 
L 318.089239 131.783568 
L 318.66753 130.254873 
L 318.850148 129.852584 
L 322.867748 119.533894 
L 323.202548 118.910348 
L 324.206948 116.677648 
L 324.846111 115.26964 
L 325.02873 114.847237 
L 327.189711 109.436462 
L 327.341893 109.235318 
L 328.04193 108.088797 
L 328.528911 107.264106 
L 328.985457 106.60033 
L 329.746366 105.775643 
L 331.024693 105.051521 
L 331.572548 105.152093 
L 332.546511 105.916441 
L 332.881311 106.358958 
L 333.06393 106.60033 
L 333.946584 107.947996 
L 335.498839 112.353051 
L 336.594548 116.355818 
L 338.907711 125.970503 
L 339.638184 129.872698 
L 340.703457 136.047823 
L 341.586111 141.659741 
L 342.073093 144.817704 
L 342.77313 149.484246 
L 344.599311 162.277009 
L 345.481966 169.498081 
L 348.12993 189.652717 
L 348.769093 194.098001 
L 349.834366 201.037471 
L 350.747457 206.347674 
L 352.634511 215.761217 
L 353.760657 219.784098 
L 354.186766 220.850162 
L 354.521566 221.75531 
L 355.099857 223.002407 
L 355.525966 223.726525 
L 355.83033 224.229385 
L 356.347748 224.732242 
L 356.773857 224.631673 
L 357.139093 224.329954 
L 357.41302 224.028238 
L 358.721784 221.192107 
L 359.330511 219.281241 
L 359.665311 217.792772 
L 360.821893 211.094671 
L 362.617639 198.503056 
L 363.895966 188.425739 
L 365.296039 176.457665 
L 365.996075 170.584259 
L 370.044111 134.861072 
L 372.113784 116.717877 
L 372.966002 110.84447 
L 374.700875 100.10338 
L 375.461784 96.643696 
L 377.653202 89.784683 
L 378.140184 88.799084 
L 378.93153 87.934164 
L 379.357639 87.773246 
L 379.662002 87.853703 
L 379.93593 87.954275 
L 380.209857 88.135305 
L 380.362039 88.235877 
L 380.818584 88.638165 
L 381.092511 89.060564 
L 382.370839 91.836359 
L 382.918693 93.40528 
L 382.918693 93.40528 
" style="fill:none;stroke:#ff0000;stroke-linecap:square;stroke-width:1.5;"/>
   </g>
   <g id="line2d_25">
    <path clip-path="url(#p32388d0bd2)" d="M 123.661748 162.276043 
" style="fill:none;stroke:#ffffff;stroke-linecap:square;stroke-width:1.5;"/>
    <defs>
     <path d="M 0 -5 
L -1.12257 -1.545085 
L -4.755283 -1.545085 
L -1.816356 0.59017 
L -2.938926 4.045085 
L -0 1.90983 
L 2.938926 4.045085 
L 1.816356 0.59017 
L 4.755283 -1.545085 
L 1.12257 -1.545085 
z
" id="m2a7437777a" style="stroke:#ffffff;stroke-linejoin:bevel;"/>
    </defs>
    <g clip-path="url(#p32388d0bd2)">
     <use style="fill:#0000ff;stroke:#ffffff;stroke-linejoin:bevel;" x="123.661748" xlink:href="#m2a7437777a" y="162.276043"/>
    </g>
   </g>
   <g id="line2d_26">
    <path clip-path="url(#p32388d0bd2)" d="M 103.878111 159.621907 
" style="fill:none;stroke:#ffffff;stroke-linecap:square;stroke-width:1.5;"/>
    <defs>
     <path d="M 0 -5 
L -1.12257 -1.545085 
L -4.755283 -1.545085 
L -1.816356 0.59017 
L -2.938926 4.045085 
L -0 1.90983 
L 2.938926 4.045085 
L 1.816356 0.59017 
L 4.755283 -1.545085 
L 1.12257 -1.545085 
z
" id="ma790c6c0c4" style="stroke:#ffffff;stroke-linejoin:bevel;"/>
    </defs>
    <g clip-path="url(#p32388d0bd2)">
     <use style="fill:#ff0000;stroke:#ffffff;stroke-linejoin:bevel;" x="103.878111" xlink:href="#ma790c6c0c4" y="159.621907"/>
    </g>
   </g>
   <g id="patch_3">
    <path d="M 63.336875 339.84 
L 63.336875 7.2 
" style="fill:none;stroke:#000000;stroke-linecap:square;stroke-linejoin:miter;stroke-width:0.8;"/>
   </g>
   <g id="patch_4">
    <path d="M 398.136875 339.84 
L 398.136875 7.2 
" style="fill:none;stroke:#000000;stroke-linecap:square;stroke-linejoin:miter;stroke-width:0.8;"/>
   </g>
   <g id="patch_5">
    <path d="M 63.336875 339.84 
L 398.136875 339.84 
" style="fill:none;stroke:#000000;stroke-linecap:square;stroke-linejoin:miter;stroke-width:0.8;"/>
   </g>
   <g id="patch_6">
    <path d="M 63.336875 7.2 
L 398.136875 7.2 
" style="fill:none;stroke:#000000;stroke-linecap:square;stroke-linejoin:miter;stroke-width:0.8;"/>
   </g>
   <g id="text_14">
    <g id="patch_7">
     <path d="M 75.036875 331.242688 
L 166.79375 331.242688 
L 166.79375 293.760312 
L 75.036875 293.760312 
z
" style="fill:#ffffff;stroke:#000000;stroke-linejoin:miter;stroke-width:0.75;"/>
    </g>
    <!-- Auto_00156 -->
    <g transform="translate(80.076875 308.521562)scale(0.14 -0.14)">
     <defs>
      <path d="M 2928 1419 
L 1288 1419 
L 1000 750 
Q 894 503 894 381 
Q 894 284 986 211 
Q 1078 138 1384 116 
L 1384 0 
L 50 0 
L 50 116 
Q 316 163 394 238 
Q 553 388 747 847 
L 2238 4334 
L 2347 4334 
L 3822 809 
Q 4000 384 4145 257 
Q 4291 131 4550 116 
L 4550 0 
L 2878 0 
L 2878 116 
Q 3131 128 3220 200 
Q 3309 272 3309 375 
Q 3309 513 3184 809 
L 2928 1419 
z
M 2841 1650 
L 2122 3363 
L 1384 1650 
L 2841 1650 
z
" id="TimesNewRomanPSMT-41" transform="scale(0.015625)"/>
      <path d="M 2709 2863 
L 2709 1128 
Q 2709 631 2732 520 
Q 2756 409 2807 365 
Q 2859 322 2928 322 
Q 3025 322 3147 375 
L 3191 266 
L 2334 -88 
L 2194 -88 
L 2194 519 
Q 1825 119 1631 15 
Q 1438 -88 1222 -88 
Q 981 -88 804 51 
Q 628 191 559 409 
Q 491 628 491 1028 
L 491 2306 
Q 491 2509 447 2587 
Q 403 2666 317 2708 
Q 231 2750 6 2747 
L 6 2863 
L 1009 2863 
L 1009 947 
Q 1009 547 1148 422 
Q 1288 297 1484 297 
Q 1619 297 1789 381 
Q 1959 466 2194 703 
L 2194 2325 
Q 2194 2569 2105 2655 
Q 2016 2741 1734 2747 
L 1734 2863 
L 2709 2863 
z
" id="TimesNewRomanPSMT-75" transform="scale(0.015625)"/>
      <path d="M 3256 -1381 
L -53 -1381 
L -53 -1119 
L 3256 -1119 
L 3256 -1381 
z
" id="TimesNewRomanPSMT-5f" transform="scale(0.015625)"/>
      <path d="M 2869 4325 
L 2869 4209 
Q 2456 4169 2195 4045 
Q 1934 3922 1679 3669 
Q 1425 3416 1258 3105 
Q 1091 2794 978 2366 
Q 1428 2675 1881 2675 
Q 2316 2675 2634 2325 
Q 2953 1975 2953 1425 
Q 2953 894 2631 456 
Q 2244 -75 1606 -75 
Q 1172 -75 869 213 
Q 275 772 275 1663 
Q 275 2231 503 2743 
Q 731 3256 1154 3653 
Q 1578 4050 1965 4187 
Q 2353 4325 2688 4325 
L 2869 4325 
z
M 925 2138 
Q 869 1716 869 1456 
Q 869 1156 980 804 
Q 1091 453 1309 247 
Q 1469 100 1697 100 
Q 1969 100 2183 356 
Q 2397 613 2397 1088 
Q 2397 1622 2184 2012 
Q 1972 2403 1581 2403 
Q 1463 2403 1327 2353 
Q 1191 2303 925 2138 
z
" id="TimesNewRomanPSMT-36" transform="scale(0.015625)"/>
     </defs>
     <use xlink:href="#TimesNewRomanPSMT-41"/>
     <use x="72.216797" xlink:href="#TimesNewRomanPSMT-75"/>
     <use x="122.216797" xlink:href="#TimesNewRomanPSMT-74"/>
     <use x="150" xlink:href="#TimesNewRomanPSMT-6f"/>
     <use x="200" xlink:href="#TimesNewRomanPSMT-5f"/>
     <use x="250" xlink:href="#TimesNewRomanPSMT-30"/>
     <use x="300" xlink:href="#TimesNewRomanPSMT-30"/>
     <use x="350" xlink:href="#TimesNewRomanPSMT-31"/>
     <use x="400" xlink:href="#TimesNewRomanPSMT-35"/>
     <use x="450" xlink:href="#TimesNewRomanPSMT-36"/>
    </g>
    <!-- Vs: 307.48m/s -->
    <g transform="translate(80.076875 323.208)scale(0.14 -0.14)">
     <defs>
      <path d="M 903 2950 
Q 1047 2950 1148 2848 
Q 1250 2747 1250 2603 
Q 1250 2459 1148 2357 
Q 1047 2256 903 2256 
Q 759 2256 657 2357 
Q 556 2459 556 2603 
Q 556 2747 657 2848 
Q 759 2950 903 2950 
z
M 897 609 
Q 1044 609 1145 506 
Q 1247 403 1247 259 
Q 1247 116 1144 14 
Q 1041 -88 897 -88 
Q 753 -88 651 14 
Q 550 116 550 259 
Q 550 403 651 506 
Q 753 609 897 609 
z
" id="TimesNewRomanPSMT-3a" transform="scale(0.015625)"/>
      <path d="M 644 4238 
L 2916 4238 
L 2916 4119 
L 1503 -88 
L 1153 -88 
L 2419 3728 
L 1253 3728 
Q 900 3728 750 3644 
Q 488 3500 328 3200 
L 238 3234 
L 644 4238 
z
" id="TimesNewRomanPSMT-37" transform="scale(0.015625)"/>
      <path d="M 1228 2134 
Q 725 2547 579 2797 
Q 434 3047 434 3316 
Q 434 3728 753 4026 
Q 1072 4325 1600 4325 
Q 2113 4325 2425 4047 
Q 2738 3769 2738 3413 
Q 2738 3175 2569 2928 
Q 2400 2681 1866 2347 
Q 2416 1922 2594 1678 
Q 2831 1359 2831 1006 
Q 2831 559 2490 242 
Q 2150 -75 1597 -75 
Q 994 -75 656 303 
Q 388 606 388 966 
Q 388 1247 577 1523 
Q 766 1800 1228 2134 
z
M 1719 2469 
Q 2094 2806 2194 3001 
Q 2294 3197 2294 3444 
Q 2294 3772 2109 3958 
Q 1925 4144 1606 4144 
Q 1288 4144 1088 3959 
Q 888 3775 888 3528 
Q 888 3366 970 3203 
Q 1053 3041 1206 2894 
L 1719 2469 
z
M 1375 2016 
Q 1116 1797 991 1539 
Q 866 1281 866 981 
Q 866 578 1086 336 
Q 1306 94 1647 94 
Q 1984 94 2187 284 
Q 2391 475 2391 747 
Q 2391 972 2272 1150 
Q 2050 1481 1375 2016 
z
" id="TimesNewRomanPSMT-38" transform="scale(0.015625)"/>
      <path d="M 1794 4444 
L 259 -88 
L 9 -88 
L 1544 4444 
L 1794 4444 
z
" id="TimesNewRomanPSMT-2f" transform="scale(0.015625)"/>
     </defs>
     <use xlink:href="#TimesNewRomanPSMT-56"/>
     <use x="72.216797" xlink:href="#TimesNewRomanPSMT-73"/>
     <use x="111.132812" xlink:href="#TimesNewRomanPSMT-3a"/>
     <use x="138.916016" xlink:href="#TimesNewRomanPSMT-20"/>
     <use x="163.916016" xlink:href="#TimesNewRomanPSMT-33"/>
     <use x="213.916016" xlink:href="#TimesNewRomanPSMT-30"/>
     <use x="263.916016" xlink:href="#TimesNewRomanPSMT-37"/>
     <use x="313.916016" xlink:href="#TimesNewRomanPSMT-2e"/>
     <use x="338.916016" xlink:href="#TimesNewRomanPSMT-34"/>
     <use x="388.916016" xlink:href="#TimesNewRomanPSMT-38"/>
     <use x="438.916016" xlink:href="#TimesNewRomanPSMT-6d"/>
     <use x="516.699219" xlink:href="#TimesNewRomanPSMT-2f"/>
     <use x="544.482422" xlink:href="#TimesNewRomanPSMT-73"/>
    </g>
   </g>
  </g>
 </g>
 <defs>
  <clipPath id="p32388d0bd2">
   <rect height="332.64" width="334.8" x="63.336875" y="7.2"/>
  </clipPath>
 </defs>
</svg>
