<?xml version="1.0" encoding="utf-8" standalone="no"?>
<!DOCTYPE svg PUBLIC "-//W3C//DTD SVG 1.1//EN"
  "http://www.w3.org/Graphics/SVG/1.1/DTD/svg11.dtd">
<svg height="384.289097pt" version="1.1" viewBox="0 0 421.086875 384.289097" width="421.086875pt" xmlns="http://www.w3.org/2000/svg" xmlns:xlink="http://www.w3.org/1999/xlink">
 <metadata>
  <rdf:RDF xmlns:cc="http://creativecommons.org/ns#" xmlns:dc="http://purl.org/dc/elements/1.1/" xmlns:rdf="http://www.w3.org/1999/02/22-rdf-syntax-ns#">
   <cc:Work>
    <dc:type rdf:resource="http://purl.org/dc/dcmitype/StillImage"/>
    <dc:date>2021-06-11T14:39:37.594872</dc:date>
    <dc:format>image/svg+xml</dc:format>
    <dc:creator>
     <cc:Agent>
      <dc:title>Matplotlib v3.4.2, https://matplotlib.org/</dc:title>
     </cc:Agent>
    </dc:creator>
   </cc:Work>
  </rdf:RDF>
 </metadata>
 <defs>
  <style type="text/css">*{stroke-linecap:butt;stroke-linejoin:round;}</style>
 </defs>
 <g id="figure_1">
  <g id="patch_1">
   <path d="M 0 384.289097 
L 421.086875 384.289097 
L 421.086875 0 
L 0 0 
z
" style="fill:#ffffff;"/>
  </g>
  <g id="axes_1">
   <g id="patch_2">
    <path d="M 63.336875 340.657222 
L 398.136875 340.657222 
L 398.136875 8.017222 
L 63.336875 8.017222 
z
" style="fill:#ffffff;"/>
   </g>
   <g id="matplotlib.axis_1">
    <g id="xtick_1">
     <g id="line2d_1">
      <path clip-path="url(#p06ed60414d)" d="M 93.773239 340.657222 
L 93.773239 8.017222 
" style="fill:none;stroke:#000000;stroke-dasharray:0.5,0.825;stroke-dashoffset:0;stroke-width:0.5;"/>
     </g>
     <g id="line2d_2">
      <defs>
       <path d="M 0 0 
L 0 3.5 
" id="m0fac92c37c" style="stroke:#000000;stroke-width:0.8;"/>
      </defs>
      <g>
       <use style="stroke:#000000;stroke-width:0.8;" x="93.773239" xlink:href="#m0fac92c37c" y="340.657222"/>
      </g>
     </g>
     <g id="text_1">
      <!-- 0.000 -->
      <g transform="translate(78.023239 357.378472)scale(0.14 -0.14)">
       <defs>
        <path d="M 231 2094 
Q 231 2819 450 3342 
Q 669 3866 1031 4122 
Q 1313 4325 1613 4325 
Q 2100 4325 2488 3828 
Q 2972 3213 2972 2159 
Q 2972 1422 2759 906 
Q 2547 391 2217 158 
Q 1888 -75 1581 -75 
Q 975 -75 572 641 
Q 231 1244 231 2094 
z
M 844 2016 
Q 844 1141 1059 588 
Q 1238 122 1591 122 
Q 1759 122 1940 273 
Q 2122 425 2216 781 
Q 2359 1319 2359 2297 
Q 2359 3022 2209 3506 
Q 2097 3866 1919 4016 
Q 1791 4119 1609 4119 
Q 1397 4119 1231 3928 
Q 1006 3669 925 3112 
Q 844 2556 844 2016 
z
" id="TimesNewRomanPSMT-30" transform="scale(0.015625)"/>
        <path d="M 800 606 
Q 947 606 1047 504 
Q 1147 403 1147 259 
Q 1147 116 1045 14 
Q 944 -88 800 -88 
Q 656 -88 554 14 
Q 453 116 453 259 
Q 453 406 554 506 
Q 656 606 800 606 
z
" id="TimesNewRomanPSMT-2e" transform="scale(0.015625)"/>
       </defs>
       <use xlink:href="#TimesNewRomanPSMT-30"/>
       <use x="50" xlink:href="#TimesNewRomanPSMT-2e"/>
       <use x="75" xlink:href="#TimesNewRomanPSMT-30"/>
       <use x="125" xlink:href="#TimesNewRomanPSMT-30"/>
       <use x="175" xlink:href="#TimesNewRomanPSMT-30"/>
      </g>
     </g>
    </g>
    <g id="xtick_2">
     <g id="line2d_3">
      <path clip-path="url(#p06ed60414d)" d="M 154.645966 340.657222 
L 154.645966 8.017222 
" style="fill:none;stroke:#000000;stroke-dasharray:0.5,0.825;stroke-dashoffset:0;stroke-width:0.5;"/>
     </g>
     <g id="line2d_4">
      <g>
       <use style="stroke:#000000;stroke-width:0.8;" x="154.645966" xlink:href="#m0fac92c37c" y="340.657222"/>
      </g>
     </g>
     <g id="text_2">
      <!-- 0.001 -->
      <g transform="translate(138.895966 357.378472)scale(0.14 -0.14)">
       <defs>
        <path d="M 750 3822 
L 1781 4325 
L 1884 4325 
L 1884 747 
Q 1884 391 1914 303 
Q 1944 216 2037 169 
Q 2131 122 2419 116 
L 2419 0 
L 825 0 
L 825 116 
Q 1125 122 1212 167 
Q 1300 213 1334 289 
Q 1369 366 1369 747 
L 1369 3034 
Q 1369 3497 1338 3628 
Q 1316 3728 1258 3775 
Q 1200 3822 1119 3822 
Q 1003 3822 797 3725 
L 750 3822 
z
" id="TimesNewRomanPSMT-31" transform="scale(0.015625)"/>
       </defs>
       <use xlink:href="#TimesNewRomanPSMT-30"/>
       <use x="50" xlink:href="#TimesNewRomanPSMT-2e"/>
       <use x="75" xlink:href="#TimesNewRomanPSMT-30"/>
       <use x="125" xlink:href="#TimesNewRomanPSMT-30"/>
       <use x="175" xlink:href="#TimesNewRomanPSMT-31"/>
      </g>
     </g>
    </g>
    <g id="xtick_3">
     <g id="line2d_5">
      <path clip-path="url(#p06ed60414d)" d="M 215.518693 340.657222 
L 215.518693 8.017222 
" style="fill:none;stroke:#000000;stroke-dasharray:0.5,0.825;stroke-dashoffset:0;stroke-width:0.5;"/>
     </g>
     <g id="line2d_6">
      <g>
       <use style="stroke:#000000;stroke-width:0.8;" x="215.518693" xlink:href="#m0fac92c37c" y="340.657222"/>
      </g>
     </g>
     <g id="text_3">
      <!-- 0.002 -->
      <g transform="translate(199.768693 357.378472)scale(0.14 -0.14)">
       <defs>
        <path d="M 2934 816 
L 2638 0 
L 138 0 
L 138 116 
Q 1241 1122 1691 1759 
Q 2141 2397 2141 2925 
Q 2141 3328 1894 3587 
Q 1647 3847 1303 3847 
Q 991 3847 742 3664 
Q 494 3481 375 3128 
L 259 3128 
Q 338 3706 661 4015 
Q 984 4325 1469 4325 
Q 1984 4325 2329 3994 
Q 2675 3663 2675 3213 
Q 2675 2891 2525 2569 
Q 2294 2063 1775 1497 
Q 997 647 803 472 
L 1909 472 
Q 2247 472 2383 497 
Q 2519 522 2628 598 
Q 2738 675 2819 816 
L 2934 816 
z
" id="TimesNewRomanPSMT-32" transform="scale(0.015625)"/>
       </defs>
       <use xlink:href="#TimesNewRomanPSMT-30"/>
       <use x="50" xlink:href="#TimesNewRomanPSMT-2e"/>
       <use x="75" xlink:href="#TimesNewRomanPSMT-30"/>
       <use x="125" xlink:href="#TimesNewRomanPSMT-30"/>
       <use x="175" xlink:href="#TimesNewRomanPSMT-32"/>
      </g>
     </g>
    </g>
    <g id="xtick_4">
     <g id="line2d_7">
      <path clip-path="url(#p06ed60414d)" d="M 276.39142 340.657222 
L 276.39142 8.017222 
" style="fill:none;stroke:#000000;stroke-dasharray:0.5,0.825;stroke-dashoffset:0;stroke-width:0.5;"/>
     </g>
     <g id="line2d_8">
      <g>
       <use style="stroke:#000000;stroke-width:0.8;" x="276.39142" xlink:href="#m0fac92c37c" y="340.657222"/>
      </g>
     </g>
     <g id="text_4">
      <!-- 0.003 -->
      <g transform="translate(260.64142 357.378472)scale(0.14 -0.14)">
       <defs>
        <path d="M 325 3431 
Q 506 3859 782 4092 
Q 1059 4325 1472 4325 
Q 1981 4325 2253 3994 
Q 2459 3747 2459 3466 
Q 2459 3003 1878 2509 
Q 2269 2356 2469 2072 
Q 2669 1788 2669 1403 
Q 2669 853 2319 450 
Q 1863 -75 997 -75 
Q 569 -75 414 31 
Q 259 138 259 259 
Q 259 350 332 419 
Q 406 488 509 488 
Q 588 488 669 463 
Q 722 447 909 348 
Q 1097 250 1169 231 
Q 1284 197 1416 197 
Q 1734 197 1970 444 
Q 2206 691 2206 1028 
Q 2206 1275 2097 1509 
Q 2016 1684 1919 1775 
Q 1784 1900 1550 2001 
Q 1316 2103 1072 2103 
L 972 2103 
L 972 2197 
Q 1219 2228 1467 2375 
Q 1716 2522 1828 2728 
Q 1941 2934 1941 3181 
Q 1941 3503 1739 3701 
Q 1538 3900 1238 3900 
Q 753 3900 428 3381 
L 325 3431 
z
" id="TimesNewRomanPSMT-33" transform="scale(0.015625)"/>
       </defs>
       <use xlink:href="#TimesNewRomanPSMT-30"/>
       <use x="50" xlink:href="#TimesNewRomanPSMT-2e"/>
       <use x="75" xlink:href="#TimesNewRomanPSMT-30"/>
       <use x="125" xlink:href="#TimesNewRomanPSMT-30"/>
       <use x="175" xlink:href="#TimesNewRomanPSMT-33"/>
      </g>
     </g>
    </g>
    <g id="xtick_5">
     <g id="line2d_9">
      <path clip-path="url(#p06ed60414d)" d="M 337.264148 340.657222 
L 337.264148 8.017222 
" style="fill:none;stroke:#000000;stroke-dasharray:0.5,0.825;stroke-dashoffset:0;stroke-width:0.5;"/>
     </g>
     <g id="line2d_10">
      <g>
       <use style="stroke:#000000;stroke-width:0.8;" x="337.264148" xlink:href="#m0fac92c37c" y="340.657222"/>
      </g>
     </g>
     <g id="text_5">
      <!-- 0.004 -->
      <g transform="translate(321.514148 357.378472)scale(0.14 -0.14)">
       <defs>
        <path d="M 2978 1563 
L 2978 1119 
L 2409 1119 
L 2409 0 
L 1894 0 
L 1894 1119 
L 100 1119 
L 100 1519 
L 2066 4325 
L 2409 4325 
L 2409 1563 
L 2978 1563 
z
M 1894 1563 
L 1894 3666 
L 406 1563 
L 1894 1563 
z
" id="TimesNewRomanPSMT-34" transform="scale(0.015625)"/>
       </defs>
       <use xlink:href="#TimesNewRomanPSMT-30"/>
       <use x="50" xlink:href="#TimesNewRomanPSMT-2e"/>
       <use x="75" xlink:href="#TimesNewRomanPSMT-30"/>
       <use x="125" xlink:href="#TimesNewRomanPSMT-30"/>
       <use x="175" xlink:href="#TimesNewRomanPSMT-34"/>
      </g>
     </g>
    </g>
    <g id="xtick_6">
     <g id="line2d_11">
      <path clip-path="url(#p06ed60414d)" d="M 398.136875 340.657222 
L 398.136875 8.017222 
" style="fill:none;stroke:#000000;stroke-dasharray:0.5,0.825;stroke-dashoffset:0;stroke-width:0.5;"/>
     </g>
     <g id="line2d_12">
      <g>
       <use style="stroke:#000000;stroke-width:0.8;" x="398.136875" xlink:href="#m0fac92c37c" y="340.657222"/>
      </g>
     </g>
     <g id="text_6">
      <!-- 0.005 -->
      <g transform="translate(382.386875 357.378472)scale(0.14 -0.14)">
       <defs>
        <path d="M 2778 4238 
L 2534 3706 
L 1259 3706 
L 981 3138 
Q 1809 3016 2294 2522 
Q 2709 2097 2709 1522 
Q 2709 1188 2573 903 
Q 2438 619 2231 419 
Q 2025 219 1772 97 
Q 1413 -75 1034 -75 
Q 653 -75 479 54 
Q 306 184 306 341 
Q 306 428 378 495 
Q 450 563 559 563 
Q 641 563 702 538 
Q 763 513 909 409 
Q 1144 247 1384 247 
Q 1750 247 2026 523 
Q 2303 800 2303 1197 
Q 2303 1581 2056 1914 
Q 1809 2247 1375 2428 
Q 1034 2569 447 2591 
L 1259 4238 
L 2778 4238 
z
" id="TimesNewRomanPSMT-35" transform="scale(0.015625)"/>
       </defs>
       <use xlink:href="#TimesNewRomanPSMT-30"/>
       <use x="50" xlink:href="#TimesNewRomanPSMT-2e"/>
       <use x="75" xlink:href="#TimesNewRomanPSMT-30"/>
       <use x="125" xlink:href="#TimesNewRomanPSMT-30"/>
       <use x="175" xlink:href="#TimesNewRomanPSMT-35"/>
      </g>
     </g>
    </g>
    <g id="text_7">
     <!-- Time (sec) -->
     <g transform="translate(200.858906 374.09441)scale(0.14 -0.14)">
      <defs>
       <path d="M 3703 4238 
L 3750 3244 
L 3631 3244 
Q 3597 3506 3538 3619 
Q 3441 3800 3280 3886 
Q 3119 3972 2856 3972 
L 2259 3972 
L 2259 734 
Q 2259 344 2344 247 
Q 2463 116 2709 116 
L 2856 116 
L 2856 0 
L 1059 0 
L 1059 116 
L 1209 116 
Q 1478 116 1591 278 
Q 1659 378 1659 734 
L 1659 3972 
L 1150 3972 
Q 853 3972 728 3928 
Q 566 3869 450 3700 
Q 334 3531 313 3244 
L 194 3244 
L 244 4238 
L 3703 4238 
z
" id="TimesNewRomanPSMT-54" transform="scale(0.015625)"/>
       <path d="M 928 4444 
Q 1059 4444 1151 4351 
Q 1244 4259 1244 4128 
Q 1244 3997 1151 3903 
Q 1059 3809 928 3809 
Q 797 3809 703 3903 
Q 609 3997 609 4128 
Q 609 4259 701 4351 
Q 794 4444 928 4444 
z
M 1188 2947 
L 1188 647 
Q 1188 378 1227 289 
Q 1266 200 1342 156 
Q 1419 113 1622 113 
L 1622 0 
L 231 0 
L 231 113 
Q 441 113 512 153 
Q 584 194 626 287 
Q 669 381 669 647 
L 669 1750 
Q 669 2216 641 2353 
Q 619 2453 572 2492 
Q 525 2531 444 2531 
Q 356 2531 231 2484 
L 188 2597 
L 1050 2947 
L 1188 2947 
z
" id="TimesNewRomanPSMT-69" transform="scale(0.015625)"/>
       <path d="M 1050 2338 
Q 1363 2650 1419 2697 
Q 1559 2816 1721 2881 
Q 1884 2947 2044 2947 
Q 2313 2947 2506 2790 
Q 2700 2634 2766 2338 
Q 3088 2713 3309 2830 
Q 3531 2947 3766 2947 
Q 3994 2947 4170 2830 
Q 4347 2713 4450 2447 
Q 4519 2266 4519 1878 
L 4519 647 
Q 4519 378 4559 278 
Q 4591 209 4675 161 
Q 4759 113 4950 113 
L 4950 0 
L 3538 0 
L 3538 113 
L 3597 113 
Q 3781 113 3884 184 
Q 3956 234 3988 344 
Q 4000 397 4000 647 
L 4000 1878 
Q 4000 2228 3916 2372 
Q 3794 2572 3525 2572 
Q 3359 2572 3192 2489 
Q 3025 2406 2788 2181 
L 2781 2147 
L 2788 2013 
L 2788 647 
Q 2788 353 2820 281 
Q 2853 209 2943 161 
Q 3034 113 3253 113 
L 3253 0 
L 1806 0 
L 1806 113 
Q 2044 113 2133 169 
Q 2222 225 2256 338 
Q 2272 391 2272 647 
L 2272 1878 
Q 2272 2228 2169 2381 
Q 2031 2581 1784 2581 
Q 1616 2581 1450 2491 
Q 1191 2353 1050 2181 
L 1050 647 
Q 1050 366 1089 281 
Q 1128 197 1204 155 
Q 1281 113 1516 113 
L 1516 0 
L 100 0 
L 100 113 
Q 297 113 375 155 
Q 453 197 493 289 
Q 534 381 534 647 
L 534 1741 
Q 534 2213 506 2350 
Q 484 2453 437 2492 
Q 391 2531 309 2531 
Q 222 2531 100 2484 
L 53 2597 
L 916 2947 
L 1050 2947 
L 1050 2338 
z
" id="TimesNewRomanPSMT-6d" transform="scale(0.015625)"/>
       <path d="M 681 1784 
Q 678 1147 991 784 
Q 1303 422 1725 422 
Q 2006 422 2214 576 
Q 2422 731 2563 1106 
L 2659 1044 
Q 2594 616 2278 264 
Q 1963 -88 1488 -88 
Q 972 -88 605 314 
Q 238 716 238 1394 
Q 238 2128 614 2539 
Q 991 2950 1559 2950 
Q 2041 2950 2350 2633 
Q 2659 2316 2659 1784 
L 681 1784 
z
M 681 1966 
L 2006 1966 
Q 1991 2241 1941 2353 
Q 1863 2528 1708 2628 
Q 1553 2728 1384 2728 
Q 1125 2728 920 2526 
Q 716 2325 681 1966 
z
" id="TimesNewRomanPSMT-65" transform="scale(0.015625)"/>
       <path id="TimesNewRomanPSMT-20" transform="scale(0.015625)"/>
       <path d="M 1988 -1253 
L 1988 -1369 
Q 1516 -1131 1200 -813 
Q 750 -359 506 256 
Q 263 872 263 1534 
Q 263 2503 741 3301 
Q 1219 4100 1988 4444 
L 1988 4313 
Q 1603 4100 1356 3731 
Q 1109 3363 987 2797 
Q 866 2231 866 1616 
Q 866 947 969 400 
Q 1050 -31 1165 -292 
Q 1281 -553 1476 -793 
Q 1672 -1034 1988 -1253 
z
" id="TimesNewRomanPSMT-28" transform="scale(0.015625)"/>
       <path d="M 2050 2947 
L 2050 1972 
L 1947 1972 
Q 1828 2431 1642 2597 
Q 1456 2763 1169 2763 
Q 950 2763 815 2647 
Q 681 2531 681 2391 
Q 681 2216 781 2091 
Q 878 1963 1175 1819 
L 1631 1597 
Q 2266 1288 2266 781 
Q 2266 391 1970 151 
Q 1675 -88 1309 -88 
Q 1047 -88 709 6 
Q 606 38 541 38 
Q 469 38 428 -44 
L 325 -44 
L 325 978 
L 428 978 
Q 516 541 762 319 
Q 1009 97 1316 97 
Q 1531 97 1667 223 
Q 1803 350 1803 528 
Q 1803 744 1651 891 
Q 1500 1038 1047 1263 
Q 594 1488 453 1669 
Q 313 1847 313 2119 
Q 313 2472 555 2709 
Q 797 2947 1181 2947 
Q 1350 2947 1591 2875 
Q 1750 2828 1803 2828 
Q 1853 2828 1881 2850 
Q 1909 2872 1947 2947 
L 2050 2947 
z
" id="TimesNewRomanPSMT-73" transform="scale(0.015625)"/>
       <path d="M 2631 1088 
Q 2516 522 2178 217 
Q 1841 -88 1431 -88 
Q 944 -88 581 321 
Q 219 731 219 1428 
Q 219 2103 620 2525 
Q 1022 2947 1584 2947 
Q 2006 2947 2278 2723 
Q 2550 2500 2550 2259 
Q 2550 2141 2473 2067 
Q 2397 1994 2259 1994 
Q 2075 1994 1981 2113 
Q 1928 2178 1911 2362 
Q 1894 2547 1784 2644 
Q 1675 2738 1481 2738 
Q 1169 2738 978 2506 
Q 725 2200 725 1697 
Q 725 1184 976 792 
Q 1228 400 1656 400 
Q 1963 400 2206 609 
Q 2378 753 2541 1131 
L 2631 1088 
z
" id="TimesNewRomanPSMT-63" transform="scale(0.015625)"/>
       <path d="M 144 4313 
L 144 4444 
Q 619 4209 934 3891 
Q 1381 3434 1625 2820 
Q 1869 2206 1869 1541 
Q 1869 572 1392 -226 
Q 916 -1025 144 -1369 
L 144 -1253 
Q 528 -1038 776 -670 
Q 1025 -303 1145 264 
Q 1266 831 1266 1447 
Q 1266 2113 1163 2663 
Q 1084 3094 967 3353 
Q 850 3613 656 3853 
Q 463 4094 144 4313 
z
" id="TimesNewRomanPSMT-29" transform="scale(0.015625)"/>
      </defs>
      <use xlink:href="#TimesNewRomanPSMT-54"/>
      <use x="57.583984" xlink:href="#TimesNewRomanPSMT-69"/>
      <use x="85.367188" xlink:href="#TimesNewRomanPSMT-6d"/>
      <use x="163.150391" xlink:href="#TimesNewRomanPSMT-65"/>
      <use x="207.535156" xlink:href="#TimesNewRomanPSMT-20"/>
      <use x="232.535156" xlink:href="#TimesNewRomanPSMT-28"/>
      <use x="265.835938" xlink:href="#TimesNewRomanPSMT-73"/>
      <use x="304.751953" xlink:href="#TimesNewRomanPSMT-65"/>
      <use x="349.136719" xlink:href="#TimesNewRomanPSMT-63"/>
      <use x="393.521484" xlink:href="#TimesNewRomanPSMT-29"/>
     </g>
    </g>
   </g>
   <g id="matplotlib.axis_2">
    <g id="ytick_1">
     <g id="line2d_13">
      <path clip-path="url(#p06ed60414d)" d="M 63.336875 298.243597 
L 398.136875 298.243597 
" style="fill:none;stroke:#000000;stroke-dasharray:0.5,0.825;stroke-dashoffset:0;stroke-width:0.5;"/>
     </g>
     <g id="line2d_14">
      <defs>
       <path d="M 0 0 
L -3.5 0 
" id="m8ed886a109" style="stroke:#000000;stroke-width:0.8;"/>
      </defs>
      <g>
       <use style="stroke:#000000;stroke-width:0.8;" x="63.336875" xlink:href="#m8ed886a109" y="298.243597"/>
      </g>
     </g>
     <g id="text_8">
      <!-- −0.06 -->
      <g transform="translate(23.942188 303.104222)scale(0.14 -0.14)">
       <defs>
        <path d="M 3484 2000 
L 116 2000 
L 116 2256 
L 3484 2256 
L 3484 2000 
z
" id="TimesNewRomanPSMT-2212" transform="scale(0.015625)"/>
        <path d="M 2869 4325 
L 2869 4209 
Q 2456 4169 2195 4045 
Q 1934 3922 1679 3669 
Q 1425 3416 1258 3105 
Q 1091 2794 978 2366 
Q 1428 2675 1881 2675 
Q 2316 2675 2634 2325 
Q 2953 1975 2953 1425 
Q 2953 894 2631 456 
Q 2244 -75 1606 -75 
Q 1172 -75 869 213 
Q 275 772 275 1663 
Q 275 2231 503 2743 
Q 731 3256 1154 3653 
Q 1578 4050 1965 4187 
Q 2353 4325 2688 4325 
L 2869 4325 
z
M 925 2138 
Q 869 1716 869 1456 
Q 869 1156 980 804 
Q 1091 453 1309 247 
Q 1469 100 1697 100 
Q 1969 100 2183 356 
Q 2397 613 2397 1088 
Q 2397 1622 2184 2012 
Q 1972 2403 1581 2403 
Q 1463 2403 1327 2353 
Q 1191 2303 925 2138 
z
" id="TimesNewRomanPSMT-36" transform="scale(0.015625)"/>
       </defs>
       <use xlink:href="#TimesNewRomanPSMT-2212"/>
       <use x="56.396484" xlink:href="#TimesNewRomanPSMT-30"/>
       <use x="106.396484" xlink:href="#TimesNewRomanPSMT-2e"/>
       <use x="131.396484" xlink:href="#TimesNewRomanPSMT-30"/>
       <use x="181.396484" xlink:href="#TimesNewRomanPSMT-36"/>
      </g>
     </g>
    </g>
    <g id="ytick_2">
     <g id="line2d_15">
      <path clip-path="url(#p06ed60414d)" d="M 63.336875 250.546435 
L 398.136875 250.546435 
" style="fill:none;stroke:#000000;stroke-dasharray:0.5,0.825;stroke-dashoffset:0;stroke-width:0.5;"/>
     </g>
     <g id="line2d_16">
      <g>
       <use style="stroke:#000000;stroke-width:0.8;" x="63.336875" xlink:href="#m8ed886a109" y="250.546435"/>
      </g>
     </g>
     <g id="text_9">
      <!-- −0.04 -->
      <g transform="translate(23.942188 255.40706)scale(0.14 -0.14)">
       <use xlink:href="#TimesNewRomanPSMT-2212"/>
       <use x="56.396484" xlink:href="#TimesNewRomanPSMT-30"/>
       <use x="106.396484" xlink:href="#TimesNewRomanPSMT-2e"/>
       <use x="131.396484" xlink:href="#TimesNewRomanPSMT-30"/>
       <use x="181.396484" xlink:href="#TimesNewRomanPSMT-34"/>
      </g>
     </g>
    </g>
    <g id="ytick_3">
     <g id="line2d_17">
      <path clip-path="url(#p06ed60414d)" d="M 63.336875 202.849273 
L 398.136875 202.849273 
" style="fill:none;stroke:#000000;stroke-dasharray:0.5,0.825;stroke-dashoffset:0;stroke-width:0.5;"/>
     </g>
     <g id="line2d_18">
      <g>
       <use style="stroke:#000000;stroke-width:0.8;" x="63.336875" xlink:href="#m8ed886a109" y="202.849273"/>
      </g>
     </g>
     <g id="text_10">
      <!-- −0.02 -->
      <g transform="translate(23.942188 207.709898)scale(0.14 -0.14)">
       <use xlink:href="#TimesNewRomanPSMT-2212"/>
       <use x="56.396484" xlink:href="#TimesNewRomanPSMT-30"/>
       <use x="106.396484" xlink:href="#TimesNewRomanPSMT-2e"/>
       <use x="131.396484" xlink:href="#TimesNewRomanPSMT-30"/>
       <use x="181.396484" xlink:href="#TimesNewRomanPSMT-32"/>
      </g>
     </g>
    </g>
    <g id="ytick_4">
     <g id="line2d_19">
      <path clip-path="url(#p06ed60414d)" d="M 63.336875 155.152111 
L 398.136875 155.152111 
" style="fill:none;stroke:#000000;stroke-dasharray:0.5,0.825;stroke-dashoffset:0;stroke-width:0.5;"/>
     </g>
     <g id="line2d_20">
      <g>
       <use style="stroke:#000000;stroke-width:0.8;" x="63.336875" xlink:href="#m8ed886a109" y="155.152111"/>
      </g>
     </g>
     <g id="text_11">
      <!-- 0.00 -->
      <g transform="translate(31.836875 160.012736)scale(0.14 -0.14)">
       <use xlink:href="#TimesNewRomanPSMT-30"/>
       <use x="50" xlink:href="#TimesNewRomanPSMT-2e"/>
       <use x="75" xlink:href="#TimesNewRomanPSMT-30"/>
       <use x="125" xlink:href="#TimesNewRomanPSMT-30"/>
      </g>
     </g>
    </g>
    <g id="ytick_5">
     <g id="line2d_21">
      <path clip-path="url(#p06ed60414d)" d="M 63.336875 107.454949 
L 398.136875 107.454949 
" style="fill:none;stroke:#000000;stroke-dasharray:0.5,0.825;stroke-dashoffset:0;stroke-width:0.5;"/>
     </g>
     <g id="line2d_22">
      <g>
       <use style="stroke:#000000;stroke-width:0.8;" x="63.336875" xlink:href="#m8ed886a109" y="107.454949"/>
      </g>
     </g>
     <g id="text_12">
      <!-- 0.02 -->
      <g transform="translate(31.836875 112.315574)scale(0.14 -0.14)">
       <use xlink:href="#TimesNewRomanPSMT-30"/>
       <use x="50" xlink:href="#TimesNewRomanPSMT-2e"/>
       <use x="75" xlink:href="#TimesNewRomanPSMT-30"/>
       <use x="125" xlink:href="#TimesNewRomanPSMT-32"/>
      </g>
     </g>
    </g>
    <g id="ytick_6">
     <g id="line2d_23">
      <path clip-path="url(#p06ed60414d)" d="M 63.336875 59.757787 
L 398.136875 59.757787 
" style="fill:none;stroke:#000000;stroke-dasharray:0.5,0.825;stroke-dashoffset:0;stroke-width:0.5;"/>
     </g>
     <g id="line2d_24">
      <g>
       <use style="stroke:#000000;stroke-width:0.8;" x="63.336875" xlink:href="#m8ed886a109" y="59.757787"/>
      </g>
     </g>
     <g id="text_13">
      <!-- 0.04 -->
      <g transform="translate(31.836875 64.618412)scale(0.14 -0.14)">
       <use xlink:href="#TimesNewRomanPSMT-30"/>
       <use x="50" xlink:href="#TimesNewRomanPSMT-2e"/>
       <use x="75" xlink:href="#TimesNewRomanPSMT-30"/>
       <use x="125" xlink:href="#TimesNewRomanPSMT-34"/>
      </g>
     </g>
    </g>
    <g id="ytick_7">
     <g id="line2d_25">
      <path clip-path="url(#p06ed60414d)" d="M 63.336875 12.060625 
L 398.136875 12.060625 
" style="fill:none;stroke:#000000;stroke-dasharray:0.5,0.825;stroke-dashoffset:0;stroke-width:0.5;"/>
     </g>
     <g id="line2d_26">
      <g>
       <use style="stroke:#000000;stroke-width:0.8;" x="63.336875" xlink:href="#m8ed886a109" y="12.060625"/>
      </g>
     </g>
     <g id="text_14">
      <!-- 0.06 -->
      <g transform="translate(31.836875 16.92125)scale(0.14 -0.14)">
       <use xlink:href="#TimesNewRomanPSMT-30"/>
       <use x="50" xlink:href="#TimesNewRomanPSMT-2e"/>
       <use x="75" xlink:href="#TimesNewRomanPSMT-30"/>
       <use x="125" xlink:href="#TimesNewRomanPSMT-36"/>
      </g>
     </g>
    </g>
    <g id="text_15">
     <!-- Volatage (V) -->
     <g transform="translate(16.92125 210.169566)rotate(-90)scale(0.14 -0.14)">
      <defs>
       <path d="M 4544 4238 
L 4544 4122 
Q 4319 4081 4203 3978 
Q 4038 3825 3909 3509 
L 2431 -97 
L 2316 -97 
L 728 3556 
Q 606 3838 556 3900 
Q 478 3997 364 4051 
Q 250 4106 56 4122 
L 56 4238 
L 1788 4238 
L 1788 4122 
Q 1494 4094 1406 4022 
Q 1319 3950 1319 3838 
Q 1319 3681 1463 3350 
L 2541 866 
L 3541 3319 
Q 3688 3681 3688 3822 
Q 3688 3913 3597 3995 
Q 3506 4078 3291 4113 
Q 3275 4116 3238 4122 
L 3238 4238 
L 4544 4238 
z
" id="TimesNewRomanPSMT-56" transform="scale(0.015625)"/>
       <path d="M 1600 2947 
Q 2250 2947 2644 2453 
Q 2978 2031 2978 1484 
Q 2978 1100 2793 706 
Q 2609 313 2286 112 
Q 1963 -88 1566 -88 
Q 919 -88 538 428 
Q 216 863 216 1403 
Q 216 1797 411 2186 
Q 606 2575 925 2761 
Q 1244 2947 1600 2947 
z
M 1503 2744 
Q 1338 2744 1170 2645 
Q 1003 2547 900 2300 
Q 797 2053 797 1666 
Q 797 1041 1045 587 
Q 1294 134 1700 134 
Q 2003 134 2200 384 
Q 2397 634 2397 1244 
Q 2397 2006 2069 2444 
Q 1847 2744 1503 2744 
z
" id="TimesNewRomanPSMT-6f" transform="scale(0.015625)"/>
       <path d="M 1184 4444 
L 1184 647 
Q 1184 378 1223 290 
Q 1263 203 1344 158 
Q 1425 113 1647 113 
L 1647 0 
L 244 0 
L 244 113 
Q 441 113 512 153 
Q 584 194 625 287 
Q 666 381 666 647 
L 666 3247 
Q 666 3731 644 3842 
Q 622 3953 573 3993 
Q 525 4034 450 4034 
Q 369 4034 244 3984 
L 191 4094 
L 1044 4444 
L 1184 4444 
z
" id="TimesNewRomanPSMT-6c" transform="scale(0.015625)"/>
       <path d="M 1822 413 
Q 1381 72 1269 19 
Q 1100 -59 909 -59 
Q 613 -59 420 144 
Q 228 347 228 678 
Q 228 888 322 1041 
Q 450 1253 767 1440 
Q 1084 1628 1822 1897 
L 1822 2009 
Q 1822 2438 1686 2597 
Q 1550 2756 1291 2756 
Q 1094 2756 978 2650 
Q 859 2544 859 2406 
L 866 2225 
Q 866 2081 792 2003 
Q 719 1925 600 1925 
Q 484 1925 411 2006 
Q 338 2088 338 2228 
Q 338 2497 613 2722 
Q 888 2947 1384 2947 
Q 1766 2947 2009 2819 
Q 2194 2722 2281 2516 
Q 2338 2381 2338 1966 
L 2338 994 
Q 2338 584 2353 492 
Q 2369 400 2405 369 
Q 2441 338 2488 338 
Q 2538 338 2575 359 
Q 2641 400 2828 588 
L 2828 413 
Q 2478 -56 2159 -56 
Q 2006 -56 1915 50 
Q 1825 156 1822 413 
z
M 1822 616 
L 1822 1706 
Q 1350 1519 1213 1441 
Q 966 1303 859 1153 
Q 753 1003 753 825 
Q 753 600 887 451 
Q 1022 303 1197 303 
Q 1434 303 1822 616 
z
" id="TimesNewRomanPSMT-61" transform="scale(0.015625)"/>
       <path d="M 1031 3803 
L 1031 2863 
L 1700 2863 
L 1700 2644 
L 1031 2644 
L 1031 788 
Q 1031 509 1111 412 
Q 1191 316 1316 316 
Q 1419 316 1516 380 
Q 1613 444 1666 569 
L 1788 569 
Q 1678 263 1478 108 
Q 1278 -47 1066 -47 
Q 922 -47 784 33 
Q 647 113 581 261 
Q 516 409 516 719 
L 516 2644 
L 63 2644 
L 63 2747 
Q 234 2816 414 2980 
Q 594 3144 734 3369 
Q 806 3488 934 3803 
L 1031 3803 
z
" id="TimesNewRomanPSMT-74" transform="scale(0.015625)"/>
       <path d="M 966 1044 
Q 703 1172 562 1401 
Q 422 1631 422 1909 
Q 422 2334 742 2640 
Q 1063 2947 1563 2947 
Q 1972 2947 2272 2747 
L 2878 2747 
Q 3013 2747 3034 2739 
Q 3056 2731 3066 2713 
Q 3084 2684 3084 2613 
Q 3084 2531 3069 2500 
Q 3059 2484 3036 2475 
Q 3013 2466 2878 2466 
L 2506 2466 
Q 2681 2241 2681 1891 
Q 2681 1491 2375 1206 
Q 2069 922 1553 922 
Q 1341 922 1119 984 
Q 981 866 932 777 
Q 884 688 884 625 
Q 884 572 936 522 
Q 988 472 1138 450 
Q 1225 438 1575 428 
Q 2219 413 2409 384 
Q 2700 344 2873 169 
Q 3047 -6 3047 -263 
Q 3047 -616 2716 -925 
Q 2228 -1381 1444 -1381 
Q 841 -1381 425 -1109 
Q 191 -953 191 -784 
Q 191 -709 225 -634 
Q 278 -519 444 -313 
Q 466 -284 763 25 
Q 600 122 533 198 
Q 466 275 466 372 
Q 466 481 555 628 
Q 644 775 966 1044 
z
M 1509 2797 
Q 1278 2797 1122 2612 
Q 966 2428 966 2047 
Q 966 1553 1178 1281 
Q 1341 1075 1591 1075 
Q 1828 1075 1981 1253 
Q 2134 1431 2134 1813 
Q 2134 2309 1919 2591 
Q 1759 2797 1509 2797 
z
M 934 0 
Q 788 -159 713 -296 
Q 638 -434 638 -550 
Q 638 -700 819 -813 
Q 1131 -1006 1722 -1006 
Q 2284 -1006 2551 -807 
Q 2819 -609 2819 -384 
Q 2819 -222 2659 -153 
Q 2497 -84 2016 -72 
Q 1313 -53 934 0 
z
" id="TimesNewRomanPSMT-67" transform="scale(0.015625)"/>
      </defs>
      <use xlink:href="#TimesNewRomanPSMT-56"/>
      <use x="59.341797" xlink:href="#TimesNewRomanPSMT-6f"/>
      <use x="109.341797" xlink:href="#TimesNewRomanPSMT-6c"/>
      <use x="137.125" xlink:href="#TimesNewRomanPSMT-61"/>
      <use x="181.509766" xlink:href="#TimesNewRomanPSMT-74"/>
      <use x="209.292969" xlink:href="#TimesNewRomanPSMT-61"/>
      <use x="253.677734" xlink:href="#TimesNewRomanPSMT-67"/>
      <use x="303.677734" xlink:href="#TimesNewRomanPSMT-65"/>
      <use x="348.0625" xlink:href="#TimesNewRomanPSMT-20"/>
      <use x="373.0625" xlink:href="#TimesNewRomanPSMT-28"/>
      <use x="406.363281" xlink:href="#TimesNewRomanPSMT-56"/>
      <use x="478.580078" xlink:href="#TimesNewRomanPSMT-29"/>
     </g>
    </g>
   </g>
   <g id="LineCollection_1">
    <path clip-path="url(#p06ed60414d)" d="M 78.555057 155.152111 
L 382.918693 155.152111 
" style="fill:none;stroke:#1f77b4;stroke-width:1.5;"/>
   </g>
   <g id="line2d_27">
    <path clip-path="url(#p06ed60414d)" d="M 78.555057 155.079492 
L 78.737675 155.109303 
L 78.889857 155.109303 
L 84.368402 155.198735 
L 84.490148 155.198735 
L 84.64233 155.198735 
L 86.529384 155.288167 
L 86.65113 155.258356 
L 89.877384 155.317978 
L 89.90782 155.377599 
L 89.99913 155.317978 
L 90.151311 155.317978 
L 100.256184 155.377599 
L 100.37793 155.40741 
L 105.765166 155.496842 
L 105.886911 155.467032 
L 108.41313 155.526653 
L 108.534875 155.556464 
L 108.717493 155.496842 
L 108.900111 155.526653 
L 112.735093 155.616085 
L 112.887275 155.645896 
L 113.069893 155.616085 
L 114.10473 155.675707 
L 114.196039 155.735328 
L 114.226475 155.705517 
L 114.956948 155.79495 
L 115.10913 155.82476 
L 115.261311 155.82476 
L 115.77873 155.884382 
L 115.900475 155.973814 
L 115.930911 155.944003 
L 116.296148 156.003625 
L 116.417893 156.033435 
L 117.057057 156.122868 
L 117.239675 156.152678 
L 117.939711 156.24211 
L 118.061457 156.271921 
L 118.670184 156.331543 
L 118.79193 156.420975 
L 118.822366 156.391164 
L 119.583275 156.480596 
L 119.765893 156.510407 
L 121.013784 156.599839 
L 121.196402 156.62965 
L 121.318148 156.599839 
L 121.409457 156.659461 
L 121.439893 156.62965 
L 121.926875 156.719082 
L 122.109493 156.748893 
L 122.505166 156.838325 
L 122.687784 156.868136 
L 123.083457 156.957568 
L 123.296511 157.047 
L 123.448693 157.047 
L 123.72262 157.196054 
L 123.81393 157.136432 
L 123.935675 157.225864 
L 124.179166 157.315297 
L 124.453093 157.434539 
L 124.635711 157.523972 
L 124.909639 157.643215 
L 125.092257 157.732647 
L 125.792293 158.29905 
L 125.82273 158.26924 
L 125.883602 158.358672 
L 126.583639 159.163562 
L 126.82713 159.580912 
L 126.888002 159.610722 
L 127.101057 159.998262 
L 127.344548 160.385801 
L 128.622875 163.128388 
L 131.149093 170.879177 
L 132.670911 176.394161 
L 136.079784 186.082647 
L 136.566766 186.798105 
L 137.327675 187.394319 
L 138.606002 187.304887 
L 138.910366 186.947158 
L 139.001675 186.887537 
L 139.245166 186.470187 
L 139.488657 186.142269 
L 139.762584 185.516244 
L 139.853893 185.307569 
L 140.46262 183.369871 
L 140.919166 181.700471 
L 141.46702 179.166559 
L 141.89313 176.960566 
L 142.197493 175.320975 
L 143.688875 165.900785 
L 145.454184 151.204097 
L 148.436948 120.946211 
L 150.445748 98.617974 
L 152.637166 76.1705 
L 154.798148 58.105195 
L 156.411275 49.221601 
L 157.841784 45.19716 
L 157.87222 45.226966 
L 158.176584 45.077915 
L 158.359202 45.137536 
L 158.480948 45.167344 
L 159.180984 46.00204 
L 160.21582 49.370662 
L 161.128911 54.349053 
L 162.102875 61.771919 
L 163.015966 70.804567 
L 164.385602 88.184222 
L 166.759639 127.117031 
L 167.977093 150.518451 
L 174.094802 268.18139 
L 176.225348 297.902686 
L 177.016693 306.667028 
L 178.508075 318.829814 
L 179.116802 321.781069 
L 179.421166 323.003315 
L 179.938584 324.583279 
L 180.30382 325.149688 
L 180.334257 325.119872 
L 180.851675 325.507407 
L 181.06473 325.447793 
L 181.156039 325.358363 
L 181.369093 325.000629 
L 182.525675 321.333905 
L 183.469202 315.133274 
L 183.956184 311.108836 
L 185.569311 294.235962 
L 187.943348 260.221921 
L 190.530439 212.793056 
L 191.747893 187.84148 
L 194.852402 126.25252 
L 196.952511 89.197785 
L 198.413457 68.032171 
L 199.326548 56.972397 
L 200.787493 42.365131 
L 201.365784 37.655039 
L 202.06582 33.034381 
L 203.587639 26.118293 
L 204.531166 23.673816 
L 204.774657 23.435325 
L 204.896402 23.405519 
L 205.048584 23.286274 
L 205.292075 23.196834 
L 205.444257 23.167028 
L 205.626875 23.22665 
L 205.718184 23.256458 
L 206.113857 23.763245 
L 206.387784 24.240215 
L 207.270439 26.20772 
L 207.787857 28.05599 
L 208.579202 31.603459 
L 209.279239 35.657725 
L 209.705348 38.281069 
L 210.283639 42.335325 
L 212.079384 55.392423 
L 213.905566 70.53627 
L 215.914366 89.138168 
L 220.023275 124.374444 
L 221.605966 135.911196 
L 223.675639 149.355833 
L 224.345239 152.635013 
L 225.471384 157.643215 
L 225.867057 159.133751 
L 226.536657 161.876338 
L 227.84542 166.556621 
L 228.971566 170.193531 
L 229.488984 171.773499 
L 229.61073 172.041796 
L 230.402075 174.724761 
L 230.645566 175.440217 
L 231.710839 178.898262 
L 232.928293 184.085329 
L 233.841384 188.795423 
L 234.29793 191.567821 
L 235.789311 200.988008 
L 240.99393 235.955997 
L 243.154911 246.002207 
L 243.398402 247.045578 
L 244.402802 250.593057 
L 244.463675 250.74211 
L 244.798475 251.636437 
L 245.34633 252.471135 
L 245.92462 252.381705 
L 246.746402 251.427764 
L 247.111639 250.473814 
L 247.59862 249.013093 
L 247.963857 247.641795 
L 249.455239 239.831384 
L 250.916184 229.099525 
L 253.168475 208.26183 
L 258.616584 150.756937 
L 260.808002 132.393528 
L 262.238511 123.271447 
L 262.634184 121.274129 
L 263.151602 118.85946 
L 263.455966 117.63722 
L 264.612548 113.553153 
L 264.886475 112.778069 
L 265.738693 110.601889 
L 266.43873 109.469081 
L 266.743093 109.02192 
L 267.077893 108.604567 
L 267.199639 108.515138 
L 267.473566 108.366082 
L 267.534439 108.366082 
L 267.564875 108.306465 
L 267.838802 108.21703 
L 268.051857 108.157409 
L 268.873639 108.246841 
L 269.02582 108.306465 
L 269.330184 108.455516 
L 269.573675 108.544951 
L 269.756293 108.723813 
L 269.878039 108.753623 
L 270.578075 109.588326 
L 271.765093 112.152046 
L 278.948075 132.930122 
L 280.104657 135.434223 
L 280.40902 136.030439 
L 280.469893 136.090059 
L 282.874366 140.561668 
L 283.270039 141.098261 
L 283.51353 141.4858 
L 283.817893 141.903151 
L 284.061384 142.320502 
L 284.152693 142.380123 
L 284.457057 142.737851 
L 286.131057 144.228388 
L 286.374548 144.31782 
L 286.557166 144.377441 
L 286.709348 144.377441 
L 287.622439 144.31782 
L 287.805057 144.198577 
L 288.048548 144.138956 
L 288.231166 144.019713 
L 288.352911 143.960092 
L 288.565966 143.751416 
L 288.596402 143.781226 
L 288.626839 143.721605 
L 288.87033 143.48312 
L 290.057348 142.171448 
L 290.300839 141.783908 
L 290.392148 141.694476 
L 290.818257 141.098261 
L 291.000875 140.770343 
L 291.366111 140.025076 
L 293.161857 136.268924 
L 295.444584 129.233592 
L 296.175057 126.818924 
L 296.662039 125.089901 
L 297.088148 123.539744 
L 298.062111 120.141321 
L 298.24473 119.545106 
L 299.796984 115.311983 
L 300.010039 114.954255 
L 300.344839 114.268608 
L 300.375275 114.268608 
L 300.618766 113.761826 
L 300.862257 113.374286 
L 300.953566 113.284856 
L 301.410111 112.986749 
L 301.50142 112.897314 
L 301.957966 112.599207 
L 302.292766 112.688639 
L 303.114548 113.612769 
L 303.418911 114.179176 
L 303.875457 115.311983 
L 304.17982 116.265927 
L 304.818984 118.47192 
L 305.51902 121.661668 
L 306.462548 126.789113 
L 308.136548 138.9817 
L 309.749675 154.15536 
L 310.997566 167.570187 
L 311.910657 177.58659 
L 316.23262 222.988329 
L 317.602257 234.107727 
L 319.398002 244.004886 
L 320.128475 246.449373 
L 320.25022 246.717669 
L 320.645893 247.582173 
L 320.67633 247.582173 
L 320.889384 247.969713 
L 321.92422 248.834226 
L 322.137275 248.744796 
L 322.898184 247.85047 
L 323.415602 246.598424 
L 325.150475 239.354415 
L 326.185311 233.750001 
L 329.259384 211.95836 
L 330.96382 197.917506 
L 331.755166 190.911985 
L 332.516075 183.906464 
L 334.585748 164.648735 
L 334.98142 161.190691 
L 336.229311 150.041479 
L 339.972984 121.572236 
L 340.76433 116.265927 
L 341.981784 108.664191 
L 343.929711 97.872706 
L 344.35582 95.756144 
L 346.090693 87.766872 
L 346.638548 85.829175 
L 347.12553 84.368449 
L 347.490766 83.414504 
L 348.099493 81.953781 
L 348.251675 81.685484 
L 348.616911 80.940216 
L 349.408257 79.598733 
L 349.499566 79.509303 
L 350.443093 78.734222 
L 350.930075 78.674598 
L 351.05182 78.644792 
L 351.751857 78.704414 
L 351.873602 78.793844 
L 351.904039 78.764038 
L 352.208402 78.942895 
L 352.299711 78.942895 
L 352.451893 79.06214 
L 352.573639 79.091946 
L 354.125893 80.761349 
L 354.39982 81.268136 
L 354.460693 81.357566 
L 355.49553 83.593373 
L 355.769457 84.428073 
L 356.043384 85.203152 
L 356.83473 87.826496 
L 357.291275 89.585327 
L 357.41302 90.062298 
L 358.660911 95.398421 
L 361.52193 109.94605 
L 362.008911 112.539583 
L 362.86113 117.249678 
L 373.361675 179.58391 
L 373.879093 182.773657 
L 376.58793 199.348423 
L 377.744511 206.532806 
L 378.17062 209.126336 
L 379.26633 215.952993 
L 379.50982 217.354099 
L 381.031639 225.641479 
L 382.370839 231.66325 
L 382.888257 233.511511 
L 382.918693 233.630756 
L 382.918693 233.630756 
" style="fill:none;stroke:#0000ff;stroke-linecap:square;stroke-width:1.5;"/>
   </g>
   <g id="line2d_28">
    <path clip-path="url(#p06ed60414d)" d="M 78.555057 155.109005 
L 89.633893 155.213342 
L 89.877384 155.228248 
L 90.151311 155.213342 
L 90.394802 155.213342 
L 92.829711 155.31768 
L 93.103639 155.332585 
L 100.347493 155.422017 
L 100.530111 155.466733 
L 100.651857 155.481639 
L 101.108402 155.571071 
L 101.321457 155.630692 
L 102.63022 156.375961 
L 102.995457 156.718784 
L 103.238948 156.95727 
L 104.943384 159.655141 
L 106.769566 164.409951 
L 108.626184 170.387002 
L 109.387093 172.96563 
L 110.513239 176.438578 
L 111.578511 179.240788 
L 113.222075 182.22186 
L 113.587311 182.564684 
L 114.135166 182.952223 
L 114.530839 183.02675 
L 115.656984 182.356009 
L 116.083093 181.789605 
L 117.757093 177.422333 
L 118.487566 174.694652 
L 119.552839 170.073989 
L 121.165966 161.622649 
L 123.966111 143.080376 
L 126.279275 127.981244 
L 127.192366 122.88361 
L 128.622875 115.132821 
L 129.870766 109.558215 
L 131.17953 105.444335 
L 132.031748 103.089287 
L 132.640475 101.34536 
L 133.036148 100.570281 
L 134.344911 98.245047 
L 134.86233 97.589208 
L 135.927602 96.217913 
L 136.323275 95.904902 
L 137.266802 95.100013 
L 137.601602 95.144731 
L 137.814657 95.144731 
L 138.575566 95.636606 
L 140.158257 99.795202 
L 140.766984 101.926669 
L 142.197493 107.963344 
L 143.414948 115.10301 
L 144.48022 122.585502 
L 146.519457 138.385187 
L 147.49342 147.417838 
L 149.50222 167.122727 
L 152.576293 197.634006 
L 155.406875 220.334874 
L 157.29393 229.919018 
L 157.902657 232.139921 
L 158.480948 233.511212 
L 159.30273 234.882511 
L 160.033202 235.463817 
L 160.246257 235.44891 
L 160.398439 235.44891 
L 160.763675 235.344572 
L 161.128911 235.04647 
L 161.64633 234.092529 
L 162.772475 231.081643 
L 163.65513 227.191341 
L 164.598657 221.5273 
L 166.029166 210.989211 
L 168.738002 186.141971 
L 170.198948 172.250173 
L 172.481675 152.0385 
L 173.973057 140.546465 
L 176.255784 126.699383 
L 177.016693 123.837553 
L 177.38193 122.674935 
L 177.868911 121.393073 
L 178.325457 120.901196 
L 179.208111 120.364603 
L 179.360293 120.304982 
L 180.090766 120.409319 
L 180.456002 120.468941 
L 180.72993 120.558373 
L 181.247348 121.199304 
L 181.856075 122.615313 
L 182.677857 125.3579 
L 185.569311 138.578957 
L 186.604148 143.557348 
L 187.060693 145.763342 
L 189.069493 155.988421 
L 190.743493 163.634872 
L 191.717457 167.01839 
L 192.35662 169.209478 
L 193.147966 172.220361 
L 194.608911 176.185187 
L 195.095893 177.094414 
L 196.556839 179.717759 
L 197.500366 180.507743 
L 198.017784 180.403406 
L 198.565639 180.015867 
L 198.778693 179.807191 
L 199.265675 178.897964 
L 199.72222 177.511765 
L 200.757057 173.576749 
L 202.887602 162.606403 
L 204.348548 152.589998 
L 206.052984 140.889289 
L 208.09222 127.22107 
L 208.974875 121.154588 
L 209.796657 115.684319 
L 210.618439 110.780452 
L 212.688111 101.181401 
L 213.418584 98.736919 
L 215.062148 94.965865 
L 216.096984 94.101356 
L 217.344875 94.831716 
L 217.618802 95.144731 
L 217.740548 95.293782 
L 218.257966 96.068861 
L 218.531893 96.486209 
L 218.89713 97.231482 
L 219.14062 97.782978 
L 221.423348 103.655694 
L 222.184257 106.234317 
L 224.223493 113.597568 
L 231.95433 148.1482 
L 233.171784 155.302774 
L 234.571857 164.886923 
L 235.667566 173.099778 
L 238.406839 192.446939 
L 240.933057 205.459324 
L 242.637493 211.704666 
L 243.489711 214.074621 
L 244.494111 216.683057 
L 245.163711 218.233215 
L 245.68113 219.216974 
L 246.837711 220.722411 
L 247.416002 221.139763 
L 248.420402 221.512397 
L 248.998693 221.40806 
L 251.464039 220.08148 
L 252.194511 219.500173 
L 252.316257 219.395836 
L 252.559748 219.172253 
L 253.107602 218.561136 
L 254.96422 216.891737 
L 255.116402 216.787395 
L 255.512075 216.534006 
L 255.694693 216.444572 
L 256.151239 216.146464 
L 257.155639 215.758927 
L 257.368693 215.74402 
L 257.703493 215.699306 
L 257.97742 215.714214 
L 258.829639 215.818551 
L 259.07313 215.833454 
L 259.347057 215.803643 
L 259.560111 215.788738 
L 260.32102 215.684403 
L 261.629784 214.924227 
L 262.177639 214.238583 
L 262.695057 213.314448 
L 263.303784 211.868628 
L 264.00382 209.886212 
L 265.43433 204.59481 
L 266.316984 199.73566 
L 268.173602 186.30593 
L 270.547639 163.202617 
L 272.008584 146.31484 
L 274.38262 114.670755 
L 278.643711 59.774297 
L 279.73942 48.639994 
L 280.804693 39.726591 
L 281.961275 32.527296 
L 282.935239 28.69662 
L 283.361348 27.742679 
L 284.152693 27.101749 
L 284.42662 27.191178 
L 284.85273 27.742679 
L 285.43102 29.099062 
L 286.039748 31.215629 
L 286.587602 33.809157 
L 287.409384 38.832272 
L 288.44422 47.223989 
L 289.905166 61.84615 
L 292.157457 88.467126 
L 294.318439 115.594889 
L 299.857857 179.419652 
L 302.018839 199.497174 
L 303.479784 210.735822 
L 304.210257 214.983848 
L 305.336402 219.947332 
L 307.314766 226.35664 
L 308.166984 228.175095 
L 309.20182 229.516577 
L 309.384439 229.725253 
L 310.054039 230.515234 
L 310.267093 230.619572 
L 310.510584 230.709009 
L 311.119311 230.887868 
L 311.484548 230.798439 
L 311.849784 230.455611 
L 312.458511 229.725253 
L 313.402039 227.638502 
L 314.132511 225.164214 
L 315.076039 221.035426 
L 317.206584 210.065081 
L 320.950257 185.515946 
L 322.228584 176.945363 
L 325.180911 158.850251 
L 327.95062 144.496386 
L 329.655057 138.251039 
L 330.598584 135.806559 
L 331.816039 133.645283 
L 332.759566 132.870204 
L 333.459602 132.646622 
L 333.703093 132.646622 
L 333.946584 132.646622 
L 334.220511 132.72115 
L 334.464002 132.885107 
L 334.950984 133.242838 
L 335.346657 133.630377 
L 336.168439 134.584319 
L 336.564111 134.986764 
L 336.807602 135.225251 
L 338.146802 136.387868 
L 338.481602 136.656165 
L 338.75553 136.879746 
L 339.059893 137.133137 
L 339.394693 137.446149 
L 339.546875 137.535582 
L 339.912111 137.774067 
L 340.033857 137.818784 
L 340.459966 138.101985 
L 340.642584 138.176512 
L 340.855639 138.31066 
L 341.34262 138.429903 
L 342.468766 138.325566 
L 343.10793 137.908215 
L 343.412293 137.654824 
L 343.990584 137.237475 
L 344.386257 136.924461 
L 344.812366 136.626355 
L 344.934111 136.566733 
L 346.577675 135.6426 
L 347.916875 134.181876 
L 348.403857 133.660188 
L 348.70822 133.391892 
L 349.651748 132.601907 
L 349.773493 132.587002 
L 349.986548 132.467759 
L 350.321348 132.259083 
L 350.443093 132.229271 
L 350.71702 132.095123 
L 350.869202 132.050408 
L 351.782293 132.154746 
L 352.756257 132.736056 
L 353.091057 133.063972 
L 353.212802 133.16831 
L 353.608475 133.555849 
L 353.791093 133.734714 
L 354.247639 134.405456 
L 354.430257 134.733373 
L 355.647711 137.341812 
L 356.591239 139.771386 
L 358.386984 144.436765 
L 359.269639 147.08992 
L 359.75662 148.282348 
L 360.274039 149.459872 
L 361.552366 152.202459 
L 363.86553 157.5982 
L 364.261202 158.373279 
L 366.148257 161.831323 
L 366.817857 162.636213 
L 368.491857 163.336765 
L 369.344075 163.247333 
L 369.80062 162.770362 
L 370.104984 162.338106 
L 374.031275 154.423358 
L 374.792184 152.515472 
L 375.766148 150.384004 
L 376.374875 148.938184 
L 377.470584 145.986922 
L 378.109748 144.168468 
L 379.540257 140.382506 
L 380.788148 137.05861 
L 381.18382 136.045045 
L 382.918693 131.782112 
L 382.918693 131.782112 
" style="fill:none;stroke:#ff0000;stroke-linecap:square;stroke-width:1.5;"/>
   </g>
   <g id="line2d_29">
    <path clip-path="url(#p06ed60414d)" d="M 128.866366 163.754413 
" style="fill:none;stroke:#ffffff;stroke-linecap:square;stroke-width:1.5;"/>
    <defs>
     <path d="M 0 -5 
L -1.12257 -1.545085 
L -4.755283 -1.545085 
L -1.816356 0.59017 
L -2.938926 4.045085 
L -0 1.90983 
L 2.938926 4.045085 
L 1.816356 0.59017 
L 4.755283 -1.545085 
L 1.12257 -1.545085 
z
" id="m0114afd527" style="stroke:#ffffff;stroke-linejoin:bevel;"/>
    </defs>
    <g clip-path="url(#p06ed60414d)">
     <use style="fill:#0000ff;stroke:#ffffff;stroke-linejoin:bevel;" x="128.866366" xlink:href="#m0114afd527" y="163.754413"/>
    </g>
   </g>
   <g id="line2d_30">
    <path clip-path="url(#p06ed60414d)" d="M 105.765166 161.592838 
" style="fill:none;stroke:#ffffff;stroke-linecap:square;stroke-width:1.5;"/>
    <defs>
     <path d="M 0 -5 
L -1.12257 -1.545085 
L -4.755283 -1.545085 
L -1.816356 0.59017 
L -2.938926 4.045085 
L -0 1.90983 
L 2.938926 4.045085 
L 1.816356 0.59017 
L 4.755283 -1.545085 
L 1.12257 -1.545085 
z
" id="me3fcb19b91" style="stroke:#ffffff;stroke-linejoin:bevel;"/>
    </defs>
    <g clip-path="url(#p06ed60414d)">
     <use style="fill:#ff0000;stroke:#ffffff;stroke-linejoin:bevel;" x="105.765166" xlink:href="#me3fcb19b91" y="161.592838"/>
    </g>
   </g>
   <g id="patch_3">
    <path d="M 63.336875 340.657222 
L 63.336875 8.017222 
" style="fill:none;stroke:#000000;stroke-linecap:square;stroke-linejoin:miter;stroke-width:0.8;"/>
   </g>
   <g id="patch_4">
    <path d="M 398.136875 340.657222 
L 398.136875 8.017222 
" style="fill:none;stroke:#000000;stroke-linecap:square;stroke-linejoin:miter;stroke-width:0.8;"/>
   </g>
   <g id="patch_5">
    <path d="M 63.336875 340.657222 
L 398.136875 340.657222 
" style="fill:none;stroke:#000000;stroke-linecap:square;stroke-linejoin:miter;stroke-width:0.8;"/>
   </g>
   <g id="patch_6">
    <path d="M 63.336875 8.017222 
L 398.136875 8.017222 
" style="fill:none;stroke:#000000;stroke-linecap:square;stroke-linejoin:miter;stroke-width:0.8;"/>
   </g>
   <g id="text_16">
    <g id="patch_7">
     <path d="M 75.036875 332.05991 
L 166.79375 332.05991 
L 166.79375 294.577535 
L 75.036875 294.577535 
z
" style="fill:#ffffff;stroke:#000000;stroke-linejoin:miter;stroke-width:0.75;"/>
    </g>
    <!-- Auto_00044 -->
    <g transform="translate(80.076875 309.338785)scale(0.14 -0.14)">
     <defs>
      <path d="M 2928 1419 
L 1288 1419 
L 1000 750 
Q 894 503 894 381 
Q 894 284 986 211 
Q 1078 138 1384 116 
L 1384 0 
L 50 0 
L 50 116 
Q 316 163 394 238 
Q 553 388 747 847 
L 2238 4334 
L 2347 4334 
L 3822 809 
Q 4000 384 4145 257 
Q 4291 131 4550 116 
L 4550 0 
L 2878 0 
L 2878 116 
Q 3131 128 3220 200 
Q 3309 272 3309 375 
Q 3309 513 3184 809 
L 2928 1419 
z
M 2841 1650 
L 2122 3363 
L 1384 1650 
L 2841 1650 
z
" id="TimesNewRomanPSMT-41" transform="scale(0.015625)"/>
      <path d="M 2709 2863 
L 2709 1128 
Q 2709 631 2732 520 
Q 2756 409 2807 365 
Q 2859 322 2928 322 
Q 3025 322 3147 375 
L 3191 266 
L 2334 -88 
L 2194 -88 
L 2194 519 
Q 1825 119 1631 15 
Q 1438 -88 1222 -88 
Q 981 -88 804 51 
Q 628 191 559 409 
Q 491 628 491 1028 
L 491 2306 
Q 491 2509 447 2587 
Q 403 2666 317 2708 
Q 231 2750 6 2747 
L 6 2863 
L 1009 2863 
L 1009 947 
Q 1009 547 1148 422 
Q 1288 297 1484 297 
Q 1619 297 1789 381 
Q 1959 466 2194 703 
L 2194 2325 
Q 2194 2569 2105 2655 
Q 2016 2741 1734 2747 
L 1734 2863 
L 2709 2863 
z
" id="TimesNewRomanPSMT-75" transform="scale(0.015625)"/>
      <path d="M 3256 -1381 
L -53 -1381 
L -53 -1119 
L 3256 -1119 
L 3256 -1381 
z
" id="TimesNewRomanPSMT-5f" transform="scale(0.015625)"/>
     </defs>
     <use xlink:href="#TimesNewRomanPSMT-41"/>
     <use x="72.216797" xlink:href="#TimesNewRomanPSMT-75"/>
     <use x="122.216797" xlink:href="#TimesNewRomanPSMT-74"/>
     <use x="150" xlink:href="#TimesNewRomanPSMT-6f"/>
     <use x="200" xlink:href="#TimesNewRomanPSMT-5f"/>
     <use x="250" xlink:href="#TimesNewRomanPSMT-30"/>
     <use x="300" xlink:href="#TimesNewRomanPSMT-30"/>
     <use x="350" xlink:href="#TimesNewRomanPSMT-30"/>
     <use x="400" xlink:href="#TimesNewRomanPSMT-34"/>
     <use x="450" xlink:href="#TimesNewRomanPSMT-34"/>
    </g>
    <!-- Vs: 263.37m/s -->
    <g transform="translate(80.076875 324.025222)scale(0.14 -0.14)">
     <defs>
      <path d="M 903 2950 
Q 1047 2950 1148 2848 
Q 1250 2747 1250 2603 
Q 1250 2459 1148 2357 
Q 1047 2256 903 2256 
Q 759 2256 657 2357 
Q 556 2459 556 2603 
Q 556 2747 657 2848 
Q 759 2950 903 2950 
z
M 897 609 
Q 1044 609 1145 506 
Q 1247 403 1247 259 
Q 1247 116 1144 14 
Q 1041 -88 897 -88 
Q 753 -88 651 14 
Q 550 116 550 259 
Q 550 403 651 506 
Q 753 609 897 609 
z
" id="TimesNewRomanPSMT-3a" transform="scale(0.015625)"/>
      <path d="M 644 4238 
L 2916 4238 
L 2916 4119 
L 1503 -88 
L 1153 -88 
L 2419 3728 
L 1253 3728 
Q 900 3728 750 3644 
Q 488 3500 328 3200 
L 238 3234 
L 644 4238 
z
" id="TimesNewRomanPSMT-37" transform="scale(0.015625)"/>
      <path d="M 1794 4444 
L 259 -88 
L 9 -88 
L 1544 4444 
L 1794 4444 
z
" id="TimesNewRomanPSMT-2f" transform="scale(0.015625)"/>
     </defs>
     <use xlink:href="#TimesNewRomanPSMT-56"/>
     <use x="72.216797" xlink:href="#TimesNewRomanPSMT-73"/>
     <use x="111.132812" xlink:href="#TimesNewRomanPSMT-3a"/>
     <use x="138.916016" xlink:href="#TimesNewRomanPSMT-20"/>
     <use x="163.916016" xlink:href="#TimesNewRomanPSMT-32"/>
     <use x="213.916016" xlink:href="#TimesNewRomanPSMT-36"/>
     <use x="263.916016" xlink:href="#TimesNewRomanPSMT-33"/>
     <use x="313.916016" xlink:href="#TimesNewRomanPSMT-2e"/>
     <use x="338.916016" xlink:href="#TimesNewRomanPSMT-33"/>
     <use x="388.916016" xlink:href="#TimesNewRomanPSMT-37"/>
     <use x="438.916016" xlink:href="#TimesNewRomanPSMT-6d"/>
     <use x="516.699219" xlink:href="#TimesNewRomanPSMT-2f"/>
     <use x="544.482422" xlink:href="#TimesNewRomanPSMT-73"/>
    </g>
   </g>
  </g>
 </g>
 <defs>
  <clipPath id="p06ed60414d">
   <rect height="332.64" width="334.8" x="63.336875" y="8.017222"/>
  </clipPath>
 </defs>
</svg>
