<?xml version="1.0" encoding="utf-8" standalone="no"?>
<!DOCTYPE svg PUBLIC "-//W3C//DTD SVG 1.1//EN"
  "http://www.w3.org/Graphics/SVG/1.1/DTD/svg11.dtd">
<svg height="383.471875pt" version="1.1" viewBox="0 0 421.086875 383.471875" width="421.086875pt" xmlns="http://www.w3.org/2000/svg" xmlns:xlink="http://www.w3.org/1999/xlink">
 <metadata>
  <rdf:RDF xmlns:cc="http://creativecommons.org/ns#" xmlns:dc="http://purl.org/dc/elements/1.1/" xmlns:rdf="http://www.w3.org/1999/02/22-rdf-syntax-ns#">
   <cc:Work>
    <dc:type rdf:resource="http://purl.org/dc/dcmitype/StillImage"/>
    <dc:date>2021-06-11T14:39:38.871484</dc:date>
    <dc:format>image/svg+xml</dc:format>
    <dc:creator>
     <cc:Agent>
      <dc:title>Matplotlib v3.4.2, https://matplotlib.org/</dc:title>
     </cc:Agent>
    </dc:creator>
   </cc:Work>
  </rdf:RDF>
 </metadata>
 <defs>
  <style type="text/css">*{stroke-linecap:butt;stroke-linejoin:round;}</style>
 </defs>
 <g id="figure_1">
  <g id="patch_1">
   <path d="M 0 383.471875 
L 421.086875 383.471875 
L 421.086875 0 
L 0 0 
z
" style="fill:#ffffff;"/>
  </g>
  <g id="axes_1">
   <g id="patch_2">
    <path d="M 63.336875 339.84 
L 398.136875 339.84 
L 398.136875 7.2 
L 63.336875 7.2 
z
" style="fill:#ffffff;"/>
   </g>
   <g id="matplotlib.axis_1">
    <g id="xtick_1">
     <g id="line2d_1">
      <path clip-path="url(#p061669f253)" d="M 93.773239 339.84 
L 93.773239 7.2 
" style="fill:none;stroke:#000000;stroke-dasharray:0.5,0.825;stroke-dashoffset:0;stroke-width:0.5;"/>
     </g>
     <g id="line2d_2">
      <defs>
       <path d="M 0 0 
L 0 3.5 
" id="mad53922888" style="stroke:#000000;stroke-width:0.8;"/>
      </defs>
      <g>
       <use style="stroke:#000000;stroke-width:0.8;" x="93.773239" xlink:href="#mad53922888" y="339.84"/>
      </g>
     </g>
     <g id="text_1">
      <!-- 0.000 -->
      <g transform="translate(78.023239 356.56125)scale(0.14 -0.14)">
       <defs>
        <path d="M 231 2094 
Q 231 2819 450 3342 
Q 669 3866 1031 4122 
Q 1313 4325 1613 4325 
Q 2100 4325 2488 3828 
Q 2972 3213 2972 2159 
Q 2972 1422 2759 906 
Q 2547 391 2217 158 
Q 1888 -75 1581 -75 
Q 975 -75 572 641 
Q 231 1244 231 2094 
z
M 844 2016 
Q 844 1141 1059 588 
Q 1238 122 1591 122 
Q 1759 122 1940 273 
Q 2122 425 2216 781 
Q 2359 1319 2359 2297 
Q 2359 3022 2209 3506 
Q 2097 3866 1919 4016 
Q 1791 4119 1609 4119 
Q 1397 4119 1231 3928 
Q 1006 3669 925 3112 
Q 844 2556 844 2016 
z
" id="TimesNewRomanPSMT-30" transform="scale(0.015625)"/>
        <path d="M 800 606 
Q 947 606 1047 504 
Q 1147 403 1147 259 
Q 1147 116 1045 14 
Q 944 -88 800 -88 
Q 656 -88 554 14 
Q 453 116 453 259 
Q 453 406 554 506 
Q 656 606 800 606 
z
" id="TimesNewRomanPSMT-2e" transform="scale(0.015625)"/>
       </defs>
       <use xlink:href="#TimesNewRomanPSMT-30"/>
       <use x="50" xlink:href="#TimesNewRomanPSMT-2e"/>
       <use x="75" xlink:href="#TimesNewRomanPSMT-30"/>
       <use x="125" xlink:href="#TimesNewRomanPSMT-30"/>
       <use x="175" xlink:href="#TimesNewRomanPSMT-30"/>
      </g>
     </g>
    </g>
    <g id="xtick_2">
     <g id="line2d_3">
      <path clip-path="url(#p061669f253)" d="M 154.645966 339.84 
L 154.645966 7.2 
" style="fill:none;stroke:#000000;stroke-dasharray:0.5,0.825;stroke-dashoffset:0;stroke-width:0.5;"/>
     </g>
     <g id="line2d_4">
      <g>
       <use style="stroke:#000000;stroke-width:0.8;" x="154.645966" xlink:href="#mad53922888" y="339.84"/>
      </g>
     </g>
     <g id="text_2">
      <!-- 0.001 -->
      <g transform="translate(138.895966 356.56125)scale(0.14 -0.14)">
       <defs>
        <path d="M 750 3822 
L 1781 4325 
L 1884 4325 
L 1884 747 
Q 1884 391 1914 303 
Q 1944 216 2037 169 
Q 2131 122 2419 116 
L 2419 0 
L 825 0 
L 825 116 
Q 1125 122 1212 167 
Q 1300 213 1334 289 
Q 1369 366 1369 747 
L 1369 3034 
Q 1369 3497 1338 3628 
Q 1316 3728 1258 3775 
Q 1200 3822 1119 3822 
Q 1003 3822 797 3725 
L 750 3822 
z
" id="TimesNewRomanPSMT-31" transform="scale(0.015625)"/>
       </defs>
       <use xlink:href="#TimesNewRomanPSMT-30"/>
       <use x="50" xlink:href="#TimesNewRomanPSMT-2e"/>
       <use x="75" xlink:href="#TimesNewRomanPSMT-30"/>
       <use x="125" xlink:href="#TimesNewRomanPSMT-30"/>
       <use x="175" xlink:href="#TimesNewRomanPSMT-31"/>
      </g>
     </g>
    </g>
    <g id="xtick_3">
     <g id="line2d_5">
      <path clip-path="url(#p061669f253)" d="M 215.518693 339.84 
L 215.518693 7.2 
" style="fill:none;stroke:#000000;stroke-dasharray:0.5,0.825;stroke-dashoffset:0;stroke-width:0.5;"/>
     </g>
     <g id="line2d_6">
      <g>
       <use style="stroke:#000000;stroke-width:0.8;" x="215.518693" xlink:href="#mad53922888" y="339.84"/>
      </g>
     </g>
     <g id="text_3">
      <!-- 0.002 -->
      <g transform="translate(199.768693 356.56125)scale(0.14 -0.14)">
       <defs>
        <path d="M 2934 816 
L 2638 0 
L 138 0 
L 138 116 
Q 1241 1122 1691 1759 
Q 2141 2397 2141 2925 
Q 2141 3328 1894 3587 
Q 1647 3847 1303 3847 
Q 991 3847 742 3664 
Q 494 3481 375 3128 
L 259 3128 
Q 338 3706 661 4015 
Q 984 4325 1469 4325 
Q 1984 4325 2329 3994 
Q 2675 3663 2675 3213 
Q 2675 2891 2525 2569 
Q 2294 2063 1775 1497 
Q 997 647 803 472 
L 1909 472 
Q 2247 472 2383 497 
Q 2519 522 2628 598 
Q 2738 675 2819 816 
L 2934 816 
z
" id="TimesNewRomanPSMT-32" transform="scale(0.015625)"/>
       </defs>
       <use xlink:href="#TimesNewRomanPSMT-30"/>
       <use x="50" xlink:href="#TimesNewRomanPSMT-2e"/>
       <use x="75" xlink:href="#TimesNewRomanPSMT-30"/>
       <use x="125" xlink:href="#TimesNewRomanPSMT-30"/>
       <use x="175" xlink:href="#TimesNewRomanPSMT-32"/>
      </g>
     </g>
    </g>
    <g id="xtick_4">
     <g id="line2d_7">
      <path clip-path="url(#p061669f253)" d="M 276.39142 339.84 
L 276.39142 7.2 
" style="fill:none;stroke:#000000;stroke-dasharray:0.5,0.825;stroke-dashoffset:0;stroke-width:0.5;"/>
     </g>
     <g id="line2d_8">
      <g>
       <use style="stroke:#000000;stroke-width:0.8;" x="276.39142" xlink:href="#mad53922888" y="339.84"/>
      </g>
     </g>
     <g id="text_4">
      <!-- 0.003 -->
      <g transform="translate(260.64142 356.56125)scale(0.14 -0.14)">
       <defs>
        <path d="M 325 3431 
Q 506 3859 782 4092 
Q 1059 4325 1472 4325 
Q 1981 4325 2253 3994 
Q 2459 3747 2459 3466 
Q 2459 3003 1878 2509 
Q 2269 2356 2469 2072 
Q 2669 1788 2669 1403 
Q 2669 853 2319 450 
Q 1863 -75 997 -75 
Q 569 -75 414 31 
Q 259 138 259 259 
Q 259 350 332 419 
Q 406 488 509 488 
Q 588 488 669 463 
Q 722 447 909 348 
Q 1097 250 1169 231 
Q 1284 197 1416 197 
Q 1734 197 1970 444 
Q 2206 691 2206 1028 
Q 2206 1275 2097 1509 
Q 2016 1684 1919 1775 
Q 1784 1900 1550 2001 
Q 1316 2103 1072 2103 
L 972 2103 
L 972 2197 
Q 1219 2228 1467 2375 
Q 1716 2522 1828 2728 
Q 1941 2934 1941 3181 
Q 1941 3503 1739 3701 
Q 1538 3900 1238 3900 
Q 753 3900 428 3381 
L 325 3431 
z
" id="TimesNewRomanPSMT-33" transform="scale(0.015625)"/>
       </defs>
       <use xlink:href="#TimesNewRomanPSMT-30"/>
       <use x="50" xlink:href="#TimesNewRomanPSMT-2e"/>
       <use x="75" xlink:href="#TimesNewRomanPSMT-30"/>
       <use x="125" xlink:href="#TimesNewRomanPSMT-30"/>
       <use x="175" xlink:href="#TimesNewRomanPSMT-33"/>
      </g>
     </g>
    </g>
    <g id="xtick_5">
     <g id="line2d_9">
      <path clip-path="url(#p061669f253)" d="M 337.264148 339.84 
L 337.264148 7.2 
" style="fill:none;stroke:#000000;stroke-dasharray:0.5,0.825;stroke-dashoffset:0;stroke-width:0.5;"/>
     </g>
     <g id="line2d_10">
      <g>
       <use style="stroke:#000000;stroke-width:0.8;" x="337.264148" xlink:href="#mad53922888" y="339.84"/>
      </g>
     </g>
     <g id="text_5">
      <!-- 0.004 -->
      <g transform="translate(321.514148 356.56125)scale(0.14 -0.14)">
       <defs>
        <path d="M 2978 1563 
L 2978 1119 
L 2409 1119 
L 2409 0 
L 1894 0 
L 1894 1119 
L 100 1119 
L 100 1519 
L 2066 4325 
L 2409 4325 
L 2409 1563 
L 2978 1563 
z
M 1894 1563 
L 1894 3666 
L 406 1563 
L 1894 1563 
z
" id="TimesNewRomanPSMT-34" transform="scale(0.015625)"/>
       </defs>
       <use xlink:href="#TimesNewRomanPSMT-30"/>
       <use x="50" xlink:href="#TimesNewRomanPSMT-2e"/>
       <use x="75" xlink:href="#TimesNewRomanPSMT-30"/>
       <use x="125" xlink:href="#TimesNewRomanPSMT-30"/>
       <use x="175" xlink:href="#TimesNewRomanPSMT-34"/>
      </g>
     </g>
    </g>
    <g id="xtick_6">
     <g id="line2d_11">
      <path clip-path="url(#p061669f253)" d="M 398.136875 339.84 
L 398.136875 7.2 
" style="fill:none;stroke:#000000;stroke-dasharray:0.5,0.825;stroke-dashoffset:0;stroke-width:0.5;"/>
     </g>
     <g id="line2d_12">
      <g>
       <use style="stroke:#000000;stroke-width:0.8;" x="398.136875" xlink:href="#mad53922888" y="339.84"/>
      </g>
     </g>
     <g id="text_6">
      <!-- 0.005 -->
      <g transform="translate(382.386875 356.56125)scale(0.14 -0.14)">
       <defs>
        <path d="M 2778 4238 
L 2534 3706 
L 1259 3706 
L 981 3138 
Q 1809 3016 2294 2522 
Q 2709 2097 2709 1522 
Q 2709 1188 2573 903 
Q 2438 619 2231 419 
Q 2025 219 1772 97 
Q 1413 -75 1034 -75 
Q 653 -75 479 54 
Q 306 184 306 341 
Q 306 428 378 495 
Q 450 563 559 563 
Q 641 563 702 538 
Q 763 513 909 409 
Q 1144 247 1384 247 
Q 1750 247 2026 523 
Q 2303 800 2303 1197 
Q 2303 1581 2056 1914 
Q 1809 2247 1375 2428 
Q 1034 2569 447 2591 
L 1259 4238 
L 2778 4238 
z
" id="TimesNewRomanPSMT-35" transform="scale(0.015625)"/>
       </defs>
       <use xlink:href="#TimesNewRomanPSMT-30"/>
       <use x="50" xlink:href="#TimesNewRomanPSMT-2e"/>
       <use x="75" xlink:href="#TimesNewRomanPSMT-30"/>
       <use x="125" xlink:href="#TimesNewRomanPSMT-30"/>
       <use x="175" xlink:href="#TimesNewRomanPSMT-35"/>
      </g>
     </g>
    </g>
    <g id="text_7">
     <!-- Time (sec) -->
     <g transform="translate(200.858906 373.277188)scale(0.14 -0.14)">
      <defs>
       <path d="M 3703 4238 
L 3750 3244 
L 3631 3244 
Q 3597 3506 3538 3619 
Q 3441 3800 3280 3886 
Q 3119 3972 2856 3972 
L 2259 3972 
L 2259 734 
Q 2259 344 2344 247 
Q 2463 116 2709 116 
L 2856 116 
L 2856 0 
L 1059 0 
L 1059 116 
L 1209 116 
Q 1478 116 1591 278 
Q 1659 378 1659 734 
L 1659 3972 
L 1150 3972 
Q 853 3972 728 3928 
Q 566 3869 450 3700 
Q 334 3531 313 3244 
L 194 3244 
L 244 4238 
L 3703 4238 
z
" id="TimesNewRomanPSMT-54" transform="scale(0.015625)"/>
       <path d="M 928 4444 
Q 1059 4444 1151 4351 
Q 1244 4259 1244 4128 
Q 1244 3997 1151 3903 
Q 1059 3809 928 3809 
Q 797 3809 703 3903 
Q 609 3997 609 4128 
Q 609 4259 701 4351 
Q 794 4444 928 4444 
z
M 1188 2947 
L 1188 647 
Q 1188 378 1227 289 
Q 1266 200 1342 156 
Q 1419 113 1622 113 
L 1622 0 
L 231 0 
L 231 113 
Q 441 113 512 153 
Q 584 194 626 287 
Q 669 381 669 647 
L 669 1750 
Q 669 2216 641 2353 
Q 619 2453 572 2492 
Q 525 2531 444 2531 
Q 356 2531 231 2484 
L 188 2597 
L 1050 2947 
L 1188 2947 
z
" id="TimesNewRomanPSMT-69" transform="scale(0.015625)"/>
       <path d="M 1050 2338 
Q 1363 2650 1419 2697 
Q 1559 2816 1721 2881 
Q 1884 2947 2044 2947 
Q 2313 2947 2506 2790 
Q 2700 2634 2766 2338 
Q 3088 2713 3309 2830 
Q 3531 2947 3766 2947 
Q 3994 2947 4170 2830 
Q 4347 2713 4450 2447 
Q 4519 2266 4519 1878 
L 4519 647 
Q 4519 378 4559 278 
Q 4591 209 4675 161 
Q 4759 113 4950 113 
L 4950 0 
L 3538 0 
L 3538 113 
L 3597 113 
Q 3781 113 3884 184 
Q 3956 234 3988 344 
Q 4000 397 4000 647 
L 4000 1878 
Q 4000 2228 3916 2372 
Q 3794 2572 3525 2572 
Q 3359 2572 3192 2489 
Q 3025 2406 2788 2181 
L 2781 2147 
L 2788 2013 
L 2788 647 
Q 2788 353 2820 281 
Q 2853 209 2943 161 
Q 3034 113 3253 113 
L 3253 0 
L 1806 0 
L 1806 113 
Q 2044 113 2133 169 
Q 2222 225 2256 338 
Q 2272 391 2272 647 
L 2272 1878 
Q 2272 2228 2169 2381 
Q 2031 2581 1784 2581 
Q 1616 2581 1450 2491 
Q 1191 2353 1050 2181 
L 1050 647 
Q 1050 366 1089 281 
Q 1128 197 1204 155 
Q 1281 113 1516 113 
L 1516 0 
L 100 0 
L 100 113 
Q 297 113 375 155 
Q 453 197 493 289 
Q 534 381 534 647 
L 534 1741 
Q 534 2213 506 2350 
Q 484 2453 437 2492 
Q 391 2531 309 2531 
Q 222 2531 100 2484 
L 53 2597 
L 916 2947 
L 1050 2947 
L 1050 2338 
z
" id="TimesNewRomanPSMT-6d" transform="scale(0.015625)"/>
       <path d="M 681 1784 
Q 678 1147 991 784 
Q 1303 422 1725 422 
Q 2006 422 2214 576 
Q 2422 731 2563 1106 
L 2659 1044 
Q 2594 616 2278 264 
Q 1963 -88 1488 -88 
Q 972 -88 605 314 
Q 238 716 238 1394 
Q 238 2128 614 2539 
Q 991 2950 1559 2950 
Q 2041 2950 2350 2633 
Q 2659 2316 2659 1784 
L 681 1784 
z
M 681 1966 
L 2006 1966 
Q 1991 2241 1941 2353 
Q 1863 2528 1708 2628 
Q 1553 2728 1384 2728 
Q 1125 2728 920 2526 
Q 716 2325 681 1966 
z
" id="TimesNewRomanPSMT-65" transform="scale(0.015625)"/>
       <path id="TimesNewRomanPSMT-20" transform="scale(0.015625)"/>
       <path d="M 1988 -1253 
L 1988 -1369 
Q 1516 -1131 1200 -813 
Q 750 -359 506 256 
Q 263 872 263 1534 
Q 263 2503 741 3301 
Q 1219 4100 1988 4444 
L 1988 4313 
Q 1603 4100 1356 3731 
Q 1109 3363 987 2797 
Q 866 2231 866 1616 
Q 866 947 969 400 
Q 1050 -31 1165 -292 
Q 1281 -553 1476 -793 
Q 1672 -1034 1988 -1253 
z
" id="TimesNewRomanPSMT-28" transform="scale(0.015625)"/>
       <path d="M 2050 2947 
L 2050 1972 
L 1947 1972 
Q 1828 2431 1642 2597 
Q 1456 2763 1169 2763 
Q 950 2763 815 2647 
Q 681 2531 681 2391 
Q 681 2216 781 2091 
Q 878 1963 1175 1819 
L 1631 1597 
Q 2266 1288 2266 781 
Q 2266 391 1970 151 
Q 1675 -88 1309 -88 
Q 1047 -88 709 6 
Q 606 38 541 38 
Q 469 38 428 -44 
L 325 -44 
L 325 978 
L 428 978 
Q 516 541 762 319 
Q 1009 97 1316 97 
Q 1531 97 1667 223 
Q 1803 350 1803 528 
Q 1803 744 1651 891 
Q 1500 1038 1047 1263 
Q 594 1488 453 1669 
Q 313 1847 313 2119 
Q 313 2472 555 2709 
Q 797 2947 1181 2947 
Q 1350 2947 1591 2875 
Q 1750 2828 1803 2828 
Q 1853 2828 1881 2850 
Q 1909 2872 1947 2947 
L 2050 2947 
z
" id="TimesNewRomanPSMT-73" transform="scale(0.015625)"/>
       <path d="M 2631 1088 
Q 2516 522 2178 217 
Q 1841 -88 1431 -88 
Q 944 -88 581 321 
Q 219 731 219 1428 
Q 219 2103 620 2525 
Q 1022 2947 1584 2947 
Q 2006 2947 2278 2723 
Q 2550 2500 2550 2259 
Q 2550 2141 2473 2067 
Q 2397 1994 2259 1994 
Q 2075 1994 1981 2113 
Q 1928 2178 1911 2362 
Q 1894 2547 1784 2644 
Q 1675 2738 1481 2738 
Q 1169 2738 978 2506 
Q 725 2200 725 1697 
Q 725 1184 976 792 
Q 1228 400 1656 400 
Q 1963 400 2206 609 
Q 2378 753 2541 1131 
L 2631 1088 
z
" id="TimesNewRomanPSMT-63" transform="scale(0.015625)"/>
       <path d="M 144 4313 
L 144 4444 
Q 619 4209 934 3891 
Q 1381 3434 1625 2820 
Q 1869 2206 1869 1541 
Q 1869 572 1392 -226 
Q 916 -1025 144 -1369 
L 144 -1253 
Q 528 -1038 776 -670 
Q 1025 -303 1145 264 
Q 1266 831 1266 1447 
Q 1266 2113 1163 2663 
Q 1084 3094 967 3353 
Q 850 3613 656 3853 
Q 463 4094 144 4313 
z
" id="TimesNewRomanPSMT-29" transform="scale(0.015625)"/>
      </defs>
      <use xlink:href="#TimesNewRomanPSMT-54"/>
      <use x="57.583984" xlink:href="#TimesNewRomanPSMT-69"/>
      <use x="85.367188" xlink:href="#TimesNewRomanPSMT-6d"/>
      <use x="163.150391" xlink:href="#TimesNewRomanPSMT-65"/>
      <use x="207.535156" xlink:href="#TimesNewRomanPSMT-20"/>
      <use x="232.535156" xlink:href="#TimesNewRomanPSMT-28"/>
      <use x="265.835938" xlink:href="#TimesNewRomanPSMT-73"/>
      <use x="304.751953" xlink:href="#TimesNewRomanPSMT-65"/>
      <use x="349.136719" xlink:href="#TimesNewRomanPSMT-63"/>
      <use x="393.521484" xlink:href="#TimesNewRomanPSMT-29"/>
     </g>
    </g>
   </g>
   <g id="matplotlib.axis_2">
    <g id="ytick_1">
     <g id="line2d_13">
      <path clip-path="url(#p061669f253)" d="M 63.336875 336.885567 
L 398.136875 336.885567 
" style="fill:none;stroke:#000000;stroke-dasharray:0.5,0.825;stroke-dashoffset:0;stroke-width:0.5;"/>
     </g>
     <g id="line2d_14">
      <defs>
       <path d="M 0 0 
L -3.5 0 
" id="m5b23c0e31b" style="stroke:#000000;stroke-width:0.8;"/>
      </defs>
      <g>
       <use style="stroke:#000000;stroke-width:0.8;" x="63.336875" xlink:href="#m5b23c0e31b" y="336.885567"/>
      </g>
     </g>
     <g id="text_8">
      <!-- −0.06 -->
      <g transform="translate(23.942188 341.746192)scale(0.14 -0.14)">
       <defs>
        <path d="M 3484 2000 
L 116 2000 
L 116 2256 
L 3484 2256 
L 3484 2000 
z
" id="TimesNewRomanPSMT-2212" transform="scale(0.015625)"/>
        <path d="M 2869 4325 
L 2869 4209 
Q 2456 4169 2195 4045 
Q 1934 3922 1679 3669 
Q 1425 3416 1258 3105 
Q 1091 2794 978 2366 
Q 1428 2675 1881 2675 
Q 2316 2675 2634 2325 
Q 2953 1975 2953 1425 
Q 2953 894 2631 456 
Q 2244 -75 1606 -75 
Q 1172 -75 869 213 
Q 275 772 275 1663 
Q 275 2231 503 2743 
Q 731 3256 1154 3653 
Q 1578 4050 1965 4187 
Q 2353 4325 2688 4325 
L 2869 4325 
z
M 925 2138 
Q 869 1716 869 1456 
Q 869 1156 980 804 
Q 1091 453 1309 247 
Q 1469 100 1697 100 
Q 1969 100 2183 356 
Q 2397 613 2397 1088 
Q 2397 1622 2184 2012 
Q 1972 2403 1581 2403 
Q 1463 2403 1327 2353 
Q 1191 2303 925 2138 
z
" id="TimesNewRomanPSMT-36" transform="scale(0.015625)"/>
       </defs>
       <use xlink:href="#TimesNewRomanPSMT-2212"/>
       <use x="56.396484" xlink:href="#TimesNewRomanPSMT-30"/>
       <use x="106.396484" xlink:href="#TimesNewRomanPSMT-2e"/>
       <use x="131.396484" xlink:href="#TimesNewRomanPSMT-30"/>
       <use x="181.396484" xlink:href="#TimesNewRomanPSMT-36"/>
      </g>
     </g>
    </g>
    <g id="ytick_2">
     <g id="line2d_15">
      <path clip-path="url(#p061669f253)" d="M 63.336875 275.048253 
L 398.136875 275.048253 
" style="fill:none;stroke:#000000;stroke-dasharray:0.5,0.825;stroke-dashoffset:0;stroke-width:0.5;"/>
     </g>
     <g id="line2d_16">
      <g>
       <use style="stroke:#000000;stroke-width:0.8;" x="63.336875" xlink:href="#m5b23c0e31b" y="275.048253"/>
      </g>
     </g>
     <g id="text_9">
      <!-- −0.04 -->
      <g transform="translate(23.942188 279.908878)scale(0.14 -0.14)">
       <use xlink:href="#TimesNewRomanPSMT-2212"/>
       <use x="56.396484" xlink:href="#TimesNewRomanPSMT-30"/>
       <use x="106.396484" xlink:href="#TimesNewRomanPSMT-2e"/>
       <use x="131.396484" xlink:href="#TimesNewRomanPSMT-30"/>
       <use x="181.396484" xlink:href="#TimesNewRomanPSMT-34"/>
      </g>
     </g>
    </g>
    <g id="ytick_3">
     <g id="line2d_17">
      <path clip-path="url(#p061669f253)" d="M 63.336875 213.21094 
L 398.136875 213.21094 
" style="fill:none;stroke:#000000;stroke-dasharray:0.5,0.825;stroke-dashoffset:0;stroke-width:0.5;"/>
     </g>
     <g id="line2d_18">
      <g>
       <use style="stroke:#000000;stroke-width:0.8;" x="63.336875" xlink:href="#m5b23c0e31b" y="213.21094"/>
      </g>
     </g>
     <g id="text_10">
      <!-- −0.02 -->
      <g transform="translate(23.942188 218.071565)scale(0.14 -0.14)">
       <use xlink:href="#TimesNewRomanPSMT-2212"/>
       <use x="56.396484" xlink:href="#TimesNewRomanPSMT-30"/>
       <use x="106.396484" xlink:href="#TimesNewRomanPSMT-2e"/>
       <use x="131.396484" xlink:href="#TimesNewRomanPSMT-30"/>
       <use x="181.396484" xlink:href="#TimesNewRomanPSMT-32"/>
      </g>
     </g>
    </g>
    <g id="ytick_4">
     <g id="line2d_19">
      <path clip-path="url(#p061669f253)" d="M 63.336875 151.373626 
L 398.136875 151.373626 
" style="fill:none;stroke:#000000;stroke-dasharray:0.5,0.825;stroke-dashoffset:0;stroke-width:0.5;"/>
     </g>
     <g id="line2d_20">
      <g>
       <use style="stroke:#000000;stroke-width:0.8;" x="63.336875" xlink:href="#m5b23c0e31b" y="151.373626"/>
      </g>
     </g>
     <g id="text_11">
      <!-- 0.00 -->
      <g transform="translate(31.836875 156.234251)scale(0.14 -0.14)">
       <use xlink:href="#TimesNewRomanPSMT-30"/>
       <use x="50" xlink:href="#TimesNewRomanPSMT-2e"/>
       <use x="75" xlink:href="#TimesNewRomanPSMT-30"/>
       <use x="125" xlink:href="#TimesNewRomanPSMT-30"/>
      </g>
     </g>
    </g>
    <g id="ytick_5">
     <g id="line2d_21">
      <path clip-path="url(#p061669f253)" d="M 63.336875 89.536313 
L 398.136875 89.536313 
" style="fill:none;stroke:#000000;stroke-dasharray:0.5,0.825;stroke-dashoffset:0;stroke-width:0.5;"/>
     </g>
     <g id="line2d_22">
      <g>
       <use style="stroke:#000000;stroke-width:0.8;" x="63.336875" xlink:href="#m5b23c0e31b" y="89.536313"/>
      </g>
     </g>
     <g id="text_12">
      <!-- 0.02 -->
      <g transform="translate(31.836875 94.396938)scale(0.14 -0.14)">
       <use xlink:href="#TimesNewRomanPSMT-30"/>
       <use x="50" xlink:href="#TimesNewRomanPSMT-2e"/>
       <use x="75" xlink:href="#TimesNewRomanPSMT-30"/>
       <use x="125" xlink:href="#TimesNewRomanPSMT-32"/>
      </g>
     </g>
    </g>
    <g id="ytick_6">
     <g id="line2d_23">
      <path clip-path="url(#p061669f253)" d="M 63.336875 27.698999 
L 398.136875 27.698999 
" style="fill:none;stroke:#000000;stroke-dasharray:0.5,0.825;stroke-dashoffset:0;stroke-width:0.5;"/>
     </g>
     <g id="line2d_24">
      <g>
       <use style="stroke:#000000;stroke-width:0.8;" x="63.336875" xlink:href="#m5b23c0e31b" y="27.698999"/>
      </g>
     </g>
     <g id="text_13">
      <!-- 0.04 -->
      <g transform="translate(31.836875 32.559624)scale(0.14 -0.14)">
       <use xlink:href="#TimesNewRomanPSMT-30"/>
       <use x="50" xlink:href="#TimesNewRomanPSMT-2e"/>
       <use x="75" xlink:href="#TimesNewRomanPSMT-30"/>
       <use x="125" xlink:href="#TimesNewRomanPSMT-34"/>
      </g>
     </g>
    </g>
    <g id="text_14">
     <!-- Volatage (V) -->
     <g transform="translate(16.92125 209.352344)rotate(-90)scale(0.14 -0.14)">
      <defs>
       <path d="M 4544 4238 
L 4544 4122 
Q 4319 4081 4203 3978 
Q 4038 3825 3909 3509 
L 2431 -97 
L 2316 -97 
L 728 3556 
Q 606 3838 556 3900 
Q 478 3997 364 4051 
Q 250 4106 56 4122 
L 56 4238 
L 1788 4238 
L 1788 4122 
Q 1494 4094 1406 4022 
Q 1319 3950 1319 3838 
Q 1319 3681 1463 3350 
L 2541 866 
L 3541 3319 
Q 3688 3681 3688 3822 
Q 3688 3913 3597 3995 
Q 3506 4078 3291 4113 
Q 3275 4116 3238 4122 
L 3238 4238 
L 4544 4238 
z
" id="TimesNewRomanPSMT-56" transform="scale(0.015625)"/>
       <path d="M 1600 2947 
Q 2250 2947 2644 2453 
Q 2978 2031 2978 1484 
Q 2978 1100 2793 706 
Q 2609 313 2286 112 
Q 1963 -88 1566 -88 
Q 919 -88 538 428 
Q 216 863 216 1403 
Q 216 1797 411 2186 
Q 606 2575 925 2761 
Q 1244 2947 1600 2947 
z
M 1503 2744 
Q 1338 2744 1170 2645 
Q 1003 2547 900 2300 
Q 797 2053 797 1666 
Q 797 1041 1045 587 
Q 1294 134 1700 134 
Q 2003 134 2200 384 
Q 2397 634 2397 1244 
Q 2397 2006 2069 2444 
Q 1847 2744 1503 2744 
z
" id="TimesNewRomanPSMT-6f" transform="scale(0.015625)"/>
       <path d="M 1184 4444 
L 1184 647 
Q 1184 378 1223 290 
Q 1263 203 1344 158 
Q 1425 113 1647 113 
L 1647 0 
L 244 0 
L 244 113 
Q 441 113 512 153 
Q 584 194 625 287 
Q 666 381 666 647 
L 666 3247 
Q 666 3731 644 3842 
Q 622 3953 573 3993 
Q 525 4034 450 4034 
Q 369 4034 244 3984 
L 191 4094 
L 1044 4444 
L 1184 4444 
z
" id="TimesNewRomanPSMT-6c" transform="scale(0.015625)"/>
       <path d="M 1822 413 
Q 1381 72 1269 19 
Q 1100 -59 909 -59 
Q 613 -59 420 144 
Q 228 347 228 678 
Q 228 888 322 1041 
Q 450 1253 767 1440 
Q 1084 1628 1822 1897 
L 1822 2009 
Q 1822 2438 1686 2597 
Q 1550 2756 1291 2756 
Q 1094 2756 978 2650 
Q 859 2544 859 2406 
L 866 2225 
Q 866 2081 792 2003 
Q 719 1925 600 1925 
Q 484 1925 411 2006 
Q 338 2088 338 2228 
Q 338 2497 613 2722 
Q 888 2947 1384 2947 
Q 1766 2947 2009 2819 
Q 2194 2722 2281 2516 
Q 2338 2381 2338 1966 
L 2338 994 
Q 2338 584 2353 492 
Q 2369 400 2405 369 
Q 2441 338 2488 338 
Q 2538 338 2575 359 
Q 2641 400 2828 588 
L 2828 413 
Q 2478 -56 2159 -56 
Q 2006 -56 1915 50 
Q 1825 156 1822 413 
z
M 1822 616 
L 1822 1706 
Q 1350 1519 1213 1441 
Q 966 1303 859 1153 
Q 753 1003 753 825 
Q 753 600 887 451 
Q 1022 303 1197 303 
Q 1434 303 1822 616 
z
" id="TimesNewRomanPSMT-61" transform="scale(0.015625)"/>
       <path d="M 1031 3803 
L 1031 2863 
L 1700 2863 
L 1700 2644 
L 1031 2644 
L 1031 788 
Q 1031 509 1111 412 
Q 1191 316 1316 316 
Q 1419 316 1516 380 
Q 1613 444 1666 569 
L 1788 569 
Q 1678 263 1478 108 
Q 1278 -47 1066 -47 
Q 922 -47 784 33 
Q 647 113 581 261 
Q 516 409 516 719 
L 516 2644 
L 63 2644 
L 63 2747 
Q 234 2816 414 2980 
Q 594 3144 734 3369 
Q 806 3488 934 3803 
L 1031 3803 
z
" id="TimesNewRomanPSMT-74" transform="scale(0.015625)"/>
       <path d="M 966 1044 
Q 703 1172 562 1401 
Q 422 1631 422 1909 
Q 422 2334 742 2640 
Q 1063 2947 1563 2947 
Q 1972 2947 2272 2747 
L 2878 2747 
Q 3013 2747 3034 2739 
Q 3056 2731 3066 2713 
Q 3084 2684 3084 2613 
Q 3084 2531 3069 2500 
Q 3059 2484 3036 2475 
Q 3013 2466 2878 2466 
L 2506 2466 
Q 2681 2241 2681 1891 
Q 2681 1491 2375 1206 
Q 2069 922 1553 922 
Q 1341 922 1119 984 
Q 981 866 932 777 
Q 884 688 884 625 
Q 884 572 936 522 
Q 988 472 1138 450 
Q 1225 438 1575 428 
Q 2219 413 2409 384 
Q 2700 344 2873 169 
Q 3047 -6 3047 -263 
Q 3047 -616 2716 -925 
Q 2228 -1381 1444 -1381 
Q 841 -1381 425 -1109 
Q 191 -953 191 -784 
Q 191 -709 225 -634 
Q 278 -519 444 -313 
Q 466 -284 763 25 
Q 600 122 533 198 
Q 466 275 466 372 
Q 466 481 555 628 
Q 644 775 966 1044 
z
M 1509 2797 
Q 1278 2797 1122 2612 
Q 966 2428 966 2047 
Q 966 1553 1178 1281 
Q 1341 1075 1591 1075 
Q 1828 1075 1981 1253 
Q 2134 1431 2134 1813 
Q 2134 2309 1919 2591 
Q 1759 2797 1509 2797 
z
M 934 0 
Q 788 -159 713 -296 
Q 638 -434 638 -550 
Q 638 -700 819 -813 
Q 1131 -1006 1722 -1006 
Q 2284 -1006 2551 -807 
Q 2819 -609 2819 -384 
Q 2819 -222 2659 -153 
Q 2497 -84 2016 -72 
Q 1313 -53 934 0 
z
" id="TimesNewRomanPSMT-67" transform="scale(0.015625)"/>
      </defs>
      <use xlink:href="#TimesNewRomanPSMT-56"/>
      <use x="59.341797" xlink:href="#TimesNewRomanPSMT-6f"/>
      <use x="109.341797" xlink:href="#TimesNewRomanPSMT-6c"/>
      <use x="137.125" xlink:href="#TimesNewRomanPSMT-61"/>
      <use x="181.509766" xlink:href="#TimesNewRomanPSMT-74"/>
      <use x="209.292969" xlink:href="#TimesNewRomanPSMT-61"/>
      <use x="253.677734" xlink:href="#TimesNewRomanPSMT-67"/>
      <use x="303.677734" xlink:href="#TimesNewRomanPSMT-65"/>
      <use x="348.0625" xlink:href="#TimesNewRomanPSMT-20"/>
      <use x="373.0625" xlink:href="#TimesNewRomanPSMT-28"/>
      <use x="406.363281" xlink:href="#TimesNewRomanPSMT-56"/>
      <use x="478.580078" xlink:href="#TimesNewRomanPSMT-29"/>
     </g>
    </g>
   </g>
   <g id="LineCollection_1">
    <path clip-path="url(#p061669f253)" d="M 78.555057 151.373626 
L 382.918693 151.373626 
" style="fill:none;stroke:#1f77b4;stroke-width:1.5;"/>
   </g>
   <g id="line2d_25">
    <path clip-path="url(#p061669f253)" d="M 78.555057 151.343635 
L 78.707239 151.382283 
L 78.737675 151.304987 
L 78.828984 151.343635 
L 78.95073 151.382283 
L 79.102911 151.343635 
L 79.255093 151.382283 
L 80.502984 151.343635 
L 80.53342 151.266339 
L 80.62473 151.304987 
L 81.750875 151.343635 
L 81.781311 151.420932 
L 81.842184 151.343635 
L 83.850984 151.382283 
L 83.88142 151.45958 
L 83.942293 151.382283 
L 86.498948 151.420932 
L 86.529384 151.498228 
L 86.590257 151.45958 
L 86.681566 151.420932 
L 86.712002 151.498228 
L 86.772875 151.420932 
L 87.959893 151.420932 
L 87.99033 151.536877 
L 88.081639 151.45958 
L 90.060002 151.536877 
L 90.181748 151.536877 
L 96.969057 151.575525 
L 96.999493 151.652822 
L 97.090802 151.614173 
L 97.242984 151.575525 
L 97.395166 151.652822 
L 97.425602 151.575525 
L 97.516911 151.614173 
L 99.647457 151.652822 
L 99.677893 151.730118 
L 99.769202 151.69147 
L 102.782402 151.730118 
L 102.812839 151.807415 
L 102.873711 151.768767 
L 102.995457 151.768767 
L 109.66102 151.846063 
L 109.782766 151.846063 
L 111.578511 151.92336 
L 111.608948 151.962008 
L 111.639384 151.92336 
L 111.66982 151.846063 
L 111.730693 151.962008 
L 111.882875 151.92336 
L 112.491602 151.962008 
L 112.522039 152.039305 
L 112.613348 152.000657 
L 112.76553 152.039305 
L 113.252511 152.077953 
L 113.282948 152.15525 
L 113.34382 152.116602 
L 113.43513 152.077953 
L 113.465566 152.116602 
L 113.891675 152.193898 
L 114.043857 152.232547 
L 114.561275 152.309843 
L 114.743893 152.38714 
L 115.048257 152.425788 
L 115.10913 152.541733 
L 115.170002 152.503085 
L 115.200439 152.464436 
L 115.261311 152.541733 
L 115.626548 152.61903 
L 115.809166 152.696326 
L 116.265711 152.773623 
L 116.44833 152.85092 
L 117.02662 152.928216 
L 117.148366 153.005513 
L 117.178802 152.928216 
L 117.239675 152.966865 
L 117.45273 153.08281 
L 117.544039 153.005513 
L 117.574475 153.044161 
L 117.726657 153.08281 
L 118.152766 153.121458 
L 118.274511 153.237403 
L 118.396257 153.160106 
L 118.548439 153.276051 
L 118.974548 153.3147 
L 119.096293 153.391996 
L 119.218039 153.391996 
L 119.37022 153.430644 
L 119.644148 153.507941 
L 119.857202 153.623886 
L 120.222439 153.662534 
L 120.37462 153.817128 
L 120.405057 153.739831 
L 120.46593 153.855776 
L 120.678984 153.894424 
L 120.770293 154.010369 
L 120.80073 153.971721 
L 121.165966 154.280908 
L 121.348584 154.358204 
L 121.531202 154.551446 
L 121.652948 154.628742 
L 121.835566 154.937929 
L 121.866002 154.860632 
L 121.896439 154.976577 
L 122.687784 156.097379 
L 122.870402 156.483862 
L 123.14433 156.98629 
L 125.305311 162.74489 
L 127.222802 170.435906 
L 127.527166 171.904542 
L 128.044584 174.300738 
L 128.440257 176.117209 
L 129.596839 181.450678 
L 132.123057 190.648978 
L 132.366548 191.112757 
L 132.640475 191.576537 
L 132.731784 191.653834 
L 133.09702 192.001669 
L 133.218766 192.001669 
L 133.279639 192.117614 
L 133.370948 192.040317 
L 133.553566 191.963021 
L 133.736184 191.924372 
L 133.888366 191.808427 
L 134.010111 191.731131 
L 134.43622 191.344647 
L 134.497093 191.305999 
L 134.740584 190.958164 
L 135.075384 190.417088 
L 135.318875 189.876011 
L 135.379748 189.837363 
L 135.805857 188.639265 
L 136.049348 187.789002 
L 136.44502 185.972531 
L 136.810257 184.15606 
L 138.697311 171.479411 
L 140.310439 156.174675 
L 142.106184 134.41567 
L 143.993239 109.062372 
L 147.736911 58.317127 
L 148.741311 46.838578 
L 149.106548 43.244288 
L 150.080511 34.43247 
L 150.993602 28.326023 
L 151.60233 25.775237 
L 152.27193 23.610928 
L 152.454548 23.224451 
L 152.758911 22.683378 
L 152.85022 22.606078 
L 153.002402 22.490139 
L 153.124148 22.412839 
L 153.27633 22.374185 
L 153.550257 22.451485 
L 153.94593 23.108509 
L 154.493784 24.770387 
L 155.072075 27.359818 
L 156.137348 34.741651 
L 157.993966 54.645533 
L 159.21142 73.19673 
L 161.31153 112.502073 
L 163.168148 152.425788 
L 165.359566 202.62996 
L 166.881384 235.751568 
L 167.977093 258.283546 
L 170.68593 301.260469 
L 172.451239 318.072489 
L 172.999093 321.473541 
L 173.638257 323.483254 
L 174.064366 324.33352 
L 174.094802 324.33352 
L 174.27742 324.604058 
L 174.399166 324.72 
L 174.490475 324.681355 
L 174.520911 324.72 
L 174.673093 324.6427 
L 175.61662 323.290015 
L 176.012293 322.014618 
L 176.468839 319.850321 
L 177.412366 314.555498 
L 179.451602 295.463224 
L 180.790802 278.92174 
L 181.673457 266.361035 
L 183.347457 239.229917 
L 188.00422 158.37763 
L 191.44353 107.593736 
L 193.239275 86.143918 
L 195.674184 65.428418 
L 195.856802 63.959781 
L 196.191602 61.138457 
L 197.46993 52.249343 
L 197.71342 50.896646 
L 198.38302 48.036679 
L 198.535202 47.418294 
L 199.083057 45.176701 
L 199.570039 43.746706 
L 199.935275 42.548618 
L 200.574439 40.538905 
L 200.939675 39.92052 
L 201.578839 38.567835 
L 201.852766 38.335942 
L 202.004948 38.374596 
L 202.552802 38.297299 
L 202.73542 38.181345 
L 202.857166 38.181345 
L 203.009348 38.142703 
L 203.283275 38.335942 
L 203.374584 38.374596 
L 203.49633 38.52918 
L 203.526766 38.451896 
L 203.557202 38.490538 
L 203.587639 38.645134 
L 203.678948 38.60648 
L 203.892002 38.722431 
L 204.226802 38.799731 
L 204.683348 39.534043 
L 204.957275 40.152416 
L 205.41382 41.041324 
L 205.626875 41.466456 
L 206.17473 43.051037 
L 206.387784 43.708061 
L 206.50953 44.017242 
L 206.84433 44.867508 
L 206.935639 45.060749 
L 207.17913 45.833716 
L 207.270439 46.104254 
L 207.605239 47.302355 
L 208.031348 48.655049 
L 209.76622 55.689038 
L 210.618439 59.515221 
L 210.86193 60.404139 
L 212.048948 65.351121 
L 212.353311 66.626512 
L 212.718548 68.442987 
L 214.149057 76.249947 
L 214.78822 80.26937 
L 215.54913 85.796083 
L 216.310039 91.631979 
L 216.766584 95.22627 
L 217.22313 98.781919 
L 218.592766 109.989932 
L 218.988439 113.313687 
L 219.23193 115.477993 
L 221.605966 138.473745 
L 222.15382 144.270992 
L 225.92793 188.639265 
L 231.041239 252.215753 
L 233.932693 276.989327 
L 235.332766 283.559538 
L 235.819748 284.989532 
L 235.88062 285.066829 
L 236.245857 285.376009 
L 236.276293 285.337367 
L 236.337166 285.414664 
L 236.763275 285.337367 
L 236.854584 285.221413 
L 236.88502 285.298713 
L 237.280693 284.680339 
L 237.64593 283.366297 
L 238.711202 278.92174 
L 239.289493 275.327449 
L 239.532984 273.974751 
L 239.867784 271.7718 
L 241.511348 256.196536 
L 242.424439 245.838783 
L 245.802875 201.625101 
L 246.59422 189.528176 
L 248.846511 154.164963 
L 250.550948 129.855169 
L 251.555348 117.333113 
L 253.594584 97.699766 
L 254.598984 90.897661 
L 256.516475 81.699361 
L 257.338257 79.882887 
L 257.368693 79.921535 
L 257.520875 79.651 
L 258.038293 79.148575 
L 258.220911 79.071275 
L 258.616584 78.72344 
L 258.73833 78.646143 
L 259.07313 78.336957 
L 259.194875 78.336957 
L 259.377493 78.25966 
L 259.620984 78.18236 
L 259.834039 78.066419 
L 259.864475 78.143718 
L 259.925348 78.066419 
L 260.047093 77.950474 
L 260.07753 77.989122 
L 260.168839 77.989122 
L 260.32102 77.950474 
L 260.625384 78.02777 
L 260.74713 78.10507 
L 260.777566 78.02777 
L 260.838439 78.10507 
L 261.021057 78.221009 
L 261.142802 78.221009 
L 261.294984 78.336957 
L 262.66462 80.230721 
L 263.851639 82.974752 
L 263.973384 83.283939 
L 264.825602 85.718786 
L 265.738693 88.772 
L 265.921311 89.467673 
L 266.621348 92.482239 
L 267.230075 95.22627 
L 268.934511 104.42457 
L 269.878039 109.719393 
L 270.486766 113.352336 
L 271.278111 118.531211 
L 271.582475 120.540923 
L 272.191202 124.985481 
L 274.626111 139.787787 
L 275.021784 141.720203 
L 276.14793 146.899078 
L 276.330548 147.633396 
L 276.847966 149.720406 
L 278.917639 157.179532 
L 280.439457 160.773825 
L 280.804693 161.392199 
L 281.200366 162.165165 
L 281.261239 162.242462 
L 281.474293 162.667594 
L 281.50473 162.628945 
L 281.535166 162.74489 
L 282.783057 164.174878 
L 282.813493 164.097581 
L 282.874366 164.213526 
L 283.330911 164.252174 
L 283.361348 164.329471 
L 283.452657 164.290822 
L 284.335311 164.213526 
L 284.639675 163.981636 
L 284.791857 163.90434 
L 285.09622 163.67245 
L 285.126657 163.711098 
L 285.18753 163.633801 
L 285.400584 163.324615 
L 285.43102 163.324615 
L 285.613639 163.054077 
L 285.948439 162.474352 
L 286.161493 162.087868 
L 286.19193 162.126516 
L 286.344111 161.740033 
L 286.557166 161.314902 
L 287.744184 158.570871 
L 287.926802 158.184388 
L 288.53553 156.908993 
L 288.77902 156.445214 
L 289.083384 155.904137 
L 289.174693 155.82684 
L 290.087784 154.821984 
L 290.331275 154.744687 
L 290.422584 154.706039 
L 290.45302 154.744687 
L 290.666075 154.860632 
L 290.757384 154.821984 
L 290.909566 154.937929 
L 291.21393 155.015226 
L 291.79222 155.904137 
L 292.522693 157.527367 
L 292.55313 157.527367 
L 293.22273 159.653024 
L 293.709711 161.160309 
L 294.927166 166.223239 
L 298.183857 182.223643 
L 298.549093 184.040116 
L 299.340439 187.518464 
L 299.91873 190.146549 
L 300.405711 192.117614 
L 300.770948 193.315712 
L 301.805784 196.832709 
L 302.323202 198.378642 
L 302.59713 199.306201 
L 302.688439 199.538091 
L 303.114548 200.736189 
L 303.205857 201.006728 
L 304.240693 203.364272 
L 305.27553 204.562373 
L 305.305966 204.523725 
L 305.336402 204.601021 
L 305.640766 204.832911 
L 306.097311 204.794263 
L 306.219057 204.716963 
L 306.249493 204.716963 
L 306.371239 204.601021 
L 306.52342 204.523725 
L 307.345202 203.32563 
L 308.075675 201.741046 
L 308.227857 201.393211 
L 308.62353 200.117816 
L 310.480148 192.65869 
L 312.580257 178.667998 
L 313.036802 175.112353 
L 315.31953 156.870345 
L 315.928257 151.807415 
L 316.65873 146.242057 
L 317.876184 137.855371 
L 318.363166 134.492968 
L 320.828511 119.536067 
L 322.68513 110.646953 
L 323.232984 108.134812 
L 324.998293 99.709478 
L 325.211348 98.936509 
L 325.576584 97.622469 
L 326.185311 95.728701 
L 327.159275 93.525744 
L 327.402766 93.100619 
L 327.61582 92.714135 
L 328.985457 91.129548 
L 329.137639 91.168199 
L 329.259384 91.129548 
L 329.442002 91.206848 
L 329.62462 91.284144 
L 330.05073 91.670628 
L 330.142039 91.747927 
L 330.415966 92.173053 
L 330.842075 92.868726 
L 331.207311 93.564395 
L 331.237748 93.564395 
L 331.481239 94.066827 
L 331.542111 94.105475 
L 331.72473 94.569252 
L 331.937784 94.994383 
L 333.550911 99.361643 
L 335.468402 107.091308 
L 336.07713 109.642097 
L 336.685857 112.347479 
L 337.142402 114.550434 
L 339.455566 126.801951 
L 339.912111 129.430037 
L 344.538439 152.38714 
L 345.938511 158.14574 
L 346.273311 159.575727 
L 347.12553 163.363263 
L 349.499566 172.020486 
L 349.560439 172.213728 
L 349.956111 173.33453 
L 350.077857 173.605068 
L 350.534402 174.919111 
L 351.660548 177.508549 
L 351.873602 177.933679 
L 352.14753 178.358812 
L 352.208402 178.397461 
L 352.421457 178.667998 
L 353.182366 179.479612 
L 353.243239 179.55691 
L 353.547602 179.788801 
L 353.73022 179.827447 
L 353.882402 179.98204 
L 353.973711 180.059338 
L 354.186766 180.213931 
L 354.217202 180.175282 
L 354.278075 180.25258 
L 354.49113 180.407173 
L 354.521566 180.368524 
L 354.582439 180.445822 
L 354.947675 180.755008 
L 355.06942 180.832303 
L 355.434657 181.180138 
L 355.465093 181.141492 
L 355.525966 181.218787 
L 355.617275 181.296085 
L 356.07382 181.721215 
L 356.104257 181.682566 
L 356.134693 181.759864 
L 356.317311 181.953106 
L 356.895602 182.532829 
L 356.956475 182.610127 
L 357.626075 183.305797 
L 357.717384 183.383092 
L 358.204366 183.846874 
L 358.234802 183.808225 
L 358.295675 183.88552 
L 358.600039 184.117411 
L 358.660911 184.15606 
L 358.813093 184.272004 
L 359.147893 184.542543 
L 359.17833 184.503895 
L 359.239202 184.581191 
L 359.51313 184.658488 
L 359.817493 184.890378 
L 359.939239 184.929026 
L 360.121857 185.122268 
L 360.365348 185.199564 
L 360.51753 185.238213 
L 360.669711 185.199564 
L 361.369748 185.160916 
L 361.52193 185.044971 
L 361.643675 184.967674 
L 362.161093 184.465246 
L 362.313275 184.387948 
L 362.465457 184.233355 
L 362.495893 184.272004 
L 362.556766 184.194709 
L 364.10902 182.107699 
L 364.291639 181.798513 
L 366.635239 178.977184 
L 366.726548 178.899889 
L 367.030911 178.629349 
L 367.061348 178.667998 
L 367.091784 178.629349 
L 367.304839 178.358812 
L 367.45702 178.281514 
L 367.609202 178.088275 
L 367.944002 177.817735 
L 368.096184 177.74044 
L 368.309239 177.624493 
L 368.46142 177.547196 
L 368.644039 177.353956 
L 368.765784 177.276659 
L 369.100584 176.967472 
L 369.22233 176.967472 
L 369.374511 176.890175 
L 369.587566 176.77423 
L 369.739748 176.696933 
L 370.13542 176.349098 
L 370.287602 176.271802 
L 370.409348 176.117209 
L 370.500657 176.117209 
L 371.018075 175.614781 
L 371.048511 175.692077 
L 371.109384 175.614781 
L 371.657239 174.996407 
L 371.687675 175.073704 
L 371.748548 174.996407 
L 372.205093 174.571275 
L 372.326839 174.493979 
L 372.90513 173.914255 
L 373.026875 173.836958 
L 374.792184 171.440762 
L 375.370475 170.204016 
L 375.400911 170.204016 
L 375.58353 169.701588 
L 375.735711 169.353753 
L 377.896693 163.595153 
L 378.201057 162.590296 
L 378.322802 162.28111 
L 378.535857 161.624089 
L 378.566293 161.624089 
L 378.779348 160.851122 
L 378.901093 160.541936 
L 382.218657 147.478803 
L 382.918693 144.348289 
L 382.918693 144.348289 
" style="fill:none;stroke:#0000ff;stroke-linecap:square;stroke-width:1.5;"/>
   </g>
   <g id="line2d_26">
    <path clip-path="url(#p061669f253)" d="M 78.555057 151.386071 
L 78.768111 151.347423 
L 78.95073 151.366747 
L 79.133348 151.366747 
L 88.294693 151.463368 
L 88.477311 151.463368 
L 88.720802 151.424719 
L 94.868948 151.328099 
L 95.082002 151.308774 
L 99.586584 151.405395 
L 99.830075 151.444044 
L 100.195311 151.540664 
L 100.62142 151.714582 
L 100.743166 151.75323 
L 101.778002 152.526196 
L 102.904148 154.130102 
L 103.756366 155.985221 
L 104.578148 158.362093 
L 105.521675 161.724497 
L 110.08713 181.551086 
L 110.604548 183.154991 
L 111.456766 185.493214 
L 112.582911 187.406306 
L 113.34382 187.773465 
L 113.739493 187.638196 
L 113.922111 187.541575 
L 114.317784 187.174416 
L 115.139566 185.377269 
L 116.326584 181.261225 
L 117.148366 177.125853 
L 118.152766 170.74888 
L 119.218039 163.309078 
L 119.857202 158.284796 
L 122.322548 137.02822 
L 123.357384 127.636678 
L 125.335748 111.0179 
L 126.187966 105.375245 
L 127.953275 95.925733 
L 128.622875 93.065755 
L 129.688148 89.413488 
L 130.08382 88.698494 
L 130.783857 87.59702 
L 131.149093 87.307155 
L 131.970875 86.688782 
L 132.42742 86.051084 
L 132.640475 85.935136 
L 133.614439 85.838519 
L 133.827493 85.799867 
L 134.557966 86.379598 
L 134.801457 86.514864 
L 135.592802 86.592164 
L 136.353711 87.384455 
L 136.749384 87.519721 
L 136.77982 87.481072 
L 136.840693 87.539045 
L 137.571166 88.640519 
L 138.484257 90.572938 
L 139.21473 93.761424 
L 139.579966 95.442629 
L 140.006075 97.471663 
L 141.649639 106.380101 
L 142.532293 112.061404 
L 143.628002 120.486738 
L 146.123784 140.351975 
L 152.60673 197.010414 
L 154.28073 206.962357 
L 155.406875 211.503531 
L 156.86782 214.073645 
L 157.20262 214.170272 
L 157.506984 214.247562 
L 157.750475 214.208914 
L 157.87222 214.189593 
L 158.267893 213.822437 
L 158.54182 213.320005 
L 158.87662 212.720953 
L 160.185384 210.015574 
L 162.102875 203.561304 
L 162.802911 200.488763 
L 164.142111 193.145582 
L 167.855348 170.265776 
L 168.524948 167.425125 
L 169.498911 164.101369 
L 170.838111 161.782469 
L 171.02073 161.763146 
L 171.35553 161.87909 
L 171.507711 161.898414 
L 171.872948 161.975711 
L 172.451239 162.845298 
L 172.846911 163.753534 
L 173.333893 164.912983 
L 174.642657 169.434837 
L 175.312257 172.410758 
L 177.62542 186.246857 
L 179.482039 199.561203 
L 180.942984 207.27154 
L 182.008257 212.121911 
L 183.256148 216.508492 
L 184.230111 217.590645 
L 184.838839 217.494024 
L 185.264948 216.779027 
L 185.904111 214.865935 
L 186.634584 211.117048 
L 187.365057 206.324662 
L 188.978184 192.102077 
L 190.500002 174.517091 
L 196.069857 98.263954 
L 196.891639 88.756467 
L 199.47873 63.59641 
L 200.452693 55.364314 
L 201.335348 48.987345 
L 201.883202 46.204665 
L 202.918039 42.069298 
L 204.16593 39.189992 
L 204.40942 38.958111 
L 204.652911 38.919457 
L 204.896402 38.996754 
L 205.50513 39.943634 
L 205.687748 40.523362 
L 206.357348 43.499283 
L 208.670511 55.808776 
L 209.18793 59.364419 
L 209.918402 64.079514 
L 211.683711 77.181298 
L 214.45342 99.133541 
L 215.275202 105.626459 
L 218.531893 131.598131 
L 220.358075 144.661263 
L 223.24953 162.323546 
L 226.414911 179.773262 
L 228.667202 189.28075 
L 229.793348 193.164906 
L 233.597893 203.116849 
L 234.176184 204.894671 
L 234.845784 206.885057 
L 235.941493 210.034901 
L 236.154548 210.479354 
L 236.763275 211.735427 
L 237.067639 212.295828 
L 237.432875 212.952849 
L 238.741639 214.44081 
L 238.863384 214.460131 
L 239.167748 214.537428 
L 241.146111 214.614727 
L 241.32873 214.672697 
L 242.394002 214.769317 
L 242.637493 214.807966 
L 242.972293 214.904583 
L 243.733202 215.484314 
L 244.128875 216.025388 
L 244.281057 216.237954 
L 244.707166 216.952944 
L 245.559384 218.827388 
L 245.772439 219.252523 
L 246.655093 221.204263 
L 247.59862 223.233297 
L 247.994293 224.122211 
L 248.60302 225.378285 
L 249.242184 226.363814 
L 249.881348 227.349346 
L 250.490075 227.948398 
L 250.794439 228.257585 
L 251.464039 228.953254 
L 251.768402 229.049872 
L 251.981457 229.088523 
L 252.438002 228.914606 
L 252.559748 228.856627 
L 252.742366 228.663389 
L 253.259784 227.851771 
L 253.685893 226.866245 
L 254.690293 224.044914 
L 255.603384 220.180079 
L 257.003457 211.56151 
L 257.886111 204.624136 
L 258.829639 195.928261 
L 259.894911 184.005254 
L 261.234111 166.536213 
L 263.33422 134.245541 
L 266.834402 78.282772 
L 268.264911 58.166324 
L 269.878039 40.040258 
L 270.852002 32.349245 
L 271.399857 29.006163 
L 272.678184 23.788639 
L 273.104293 22.977028 
L 273.71302 22.377972 
L 274.169566 22.474596 
L 274.534802 23.112297 
L 274.80873 23.827294 
L 275.204402 25.083352 
L 275.660948 26.899826 
L 276.634911 32.407215 
L 277.304511 36.871102 
L 279.008948 51.847323 
L 281.16993 74.920368 
L 289.326875 166.884048 
L 290.87913 181.551086 
L 292.948802 198.981478 
L 294.105384 206.943032 
L 295.322839 213.262036 
L 296.114184 216.721058 
L 298.092548 223.832349 
L 298.518657 224.856532 
L 298.792584 225.378285 
L 299.614366 226.711649 
L 300.070911 227.117453 
L 300.375275 227.194753 
L 301.044875 227.117453 
L 302.688439 224.856532 
L 302.93193 224.160863 
L 303.51022 221.977232 
L 304.575493 216.006067 
L 305.671202 208.353696 
L 310.175784 174.845601 
L 311.667166 165.705274 
L 312.21502 162.381518 
L 313.036802 157.859664 
L 315.623893 143.714379 
L 316.932657 138.380911 
L 317.815311 135.231073 
L 318.302293 133.569195 
L 318.637093 132.718932 
L 319.215384 131.230971 
L 319.489311 130.477329 
L 321.315493 126.129394 
L 323.111239 122.940906 
L 323.59822 122.167941 
L 324.115639 121.14376 
L 325.089602 119.076075 
L 325.60702 117.510818 
L 327.768002 111.752218 
L 328.28542 110.186961 
L 328.894148 108.37049 
L 329.350693 107.037123 
L 332.029093 100.524881 
L 334.06833 98.109364 
L 334.494439 98.012737 
L 334.64662 98.032064 
L 335.103166 98.205981 
L 335.285784 98.302602 
L 335.711893 98.669764 
L 336.107566 99.19151 
L 336.290184 99.423403 
L 337.538075 101.181902 
L 338.481602 103.172291 
L 338.846839 104.157823 
L 339.272948 105.49119 
L 339.729493 107.056447 
L 340.00342 108.003331 
L 342.133966 117.974598 
L 344.568875 132.506366 
L 345.421093 139.211849 
L 349.743057 173.995338 
L 351.264875 185.396593 
L 352.969311 197.532166 
L 353.73022 202.111992 
L 354.82593 208.218427 
L 355.373784 211.039758 
L 356.773857 216.779027 
L 357.352148 218.286315 
L 357.626075 218.808067 
L 357.930439 219.291171 
L 358.234802 219.677654 
L 358.326111 219.774275 
L 358.904402 220.353997 
L 359.391384 220.257379 
L 359.604439 220.006162 
L 360.51753 218.054428 
L 361.734984 213.841758 
L 363.408984 205.899528 
L 363.895966 202.904283 
L 366.87873 181.299871 
L 369.648439 155.714683 
L 373.14862 121.259704 
L 375.461784 103.037025 
L 377.379275 91.558467 
L 378.718475 85.297442 
L 379.479384 82.82395 
L 380.666402 80.099246 
L 381.731675 78.920472 
L 382.157784 78.765876 
L 382.340402 78.765876 
L 382.736075 78.843173 
L 382.918693 78.959114 
L 382.918693 78.959114 
" style="fill:none;stroke:#ff0000;stroke-linecap:square;stroke-width:1.5;"/>
   </g>
   <g id="line2d_27">
    <path clip-path="url(#p061669f253)" d="M 124.422657 160.078156 
" style="fill:none;stroke:#ffffff;stroke-linecap:square;stroke-width:1.5;"/>
    <defs>
     <path d="M 0 -5 
L -1.12257 -1.545085 
L -4.755283 -1.545085 
L -1.816356 0.59017 
L -2.938926 4.045085 
L -0 1.90983 
L 2.938926 4.045085 
L 1.816356 0.59017 
L 4.755283 -1.545085 
L 1.12257 -1.545085 
z
" id="mbff62a67ea" style="stroke:#ffffff;stroke-linejoin:bevel;"/>
    </defs>
    <g clip-path="url(#p061669f253)">
     <use style="fill:#0000ff;stroke:#ffffff;stroke-linejoin:bevel;" x="124.422657" xlink:href="#mbff62a67ea" y="160.078156"/>
    </g>
   </g>
   <g id="line2d_28">
    <path clip-path="url(#p061669f253)" d="M 104.425966 157.878989 
" style="fill:none;stroke:#ffffff;stroke-linecap:square;stroke-width:1.5;"/>
    <defs>
     <path d="M 0 -5 
L -1.12257 -1.545085 
L -4.755283 -1.545085 
L -1.816356 0.59017 
L -2.938926 4.045085 
L -0 1.90983 
L 2.938926 4.045085 
L 1.816356 0.59017 
L 4.755283 -1.545085 
L 1.12257 -1.545085 
z
" id="m1db9c3852e" style="stroke:#ffffff;stroke-linejoin:bevel;"/>
    </defs>
    <g clip-path="url(#p061669f253)">
     <use style="fill:#ff0000;stroke:#ffffff;stroke-linejoin:bevel;" x="104.425966" xlink:href="#m1db9c3852e" y="157.878989"/>
    </g>
   </g>
   <g id="patch_3">
    <path d="M 63.336875 339.84 
L 63.336875 7.2 
" style="fill:none;stroke:#000000;stroke-linecap:square;stroke-linejoin:miter;stroke-width:0.8;"/>
   </g>
   <g id="patch_4">
    <path d="M 398.136875 339.84 
L 398.136875 7.2 
" style="fill:none;stroke:#000000;stroke-linecap:square;stroke-linejoin:miter;stroke-width:0.8;"/>
   </g>
   <g id="patch_5">
    <path d="M 63.336875 339.84 
L 398.136875 339.84 
" style="fill:none;stroke:#000000;stroke-linecap:square;stroke-linejoin:miter;stroke-width:0.8;"/>
   </g>
   <g id="patch_6">
    <path d="M 63.336875 7.2 
L 398.136875 7.2 
" style="fill:none;stroke:#000000;stroke-linecap:square;stroke-linejoin:miter;stroke-width:0.8;"/>
   </g>
   <g id="text_15">
    <g id="patch_7">
     <path d="M 75.036875 331.242688 
L 166.79375 331.242688 
L 166.79375 293.760313 
L 75.036875 293.760313 
z
" style="fill:#ffffff;stroke:#000000;stroke-linejoin:miter;stroke-width:0.75;"/>
    </g>
    <!-- Auto_00117 -->
    <g transform="translate(80.076875 308.521563)scale(0.14 -0.14)">
     <defs>
      <path d="M 2928 1419 
L 1288 1419 
L 1000 750 
Q 894 503 894 381 
Q 894 284 986 211 
Q 1078 138 1384 116 
L 1384 0 
L 50 0 
L 50 116 
Q 316 163 394 238 
Q 553 388 747 847 
L 2238 4334 
L 2347 4334 
L 3822 809 
Q 4000 384 4145 257 
Q 4291 131 4550 116 
L 4550 0 
L 2878 0 
L 2878 116 
Q 3131 128 3220 200 
Q 3309 272 3309 375 
Q 3309 513 3184 809 
L 2928 1419 
z
M 2841 1650 
L 2122 3363 
L 1384 1650 
L 2841 1650 
z
" id="TimesNewRomanPSMT-41" transform="scale(0.015625)"/>
      <path d="M 2709 2863 
L 2709 1128 
Q 2709 631 2732 520 
Q 2756 409 2807 365 
Q 2859 322 2928 322 
Q 3025 322 3147 375 
L 3191 266 
L 2334 -88 
L 2194 -88 
L 2194 519 
Q 1825 119 1631 15 
Q 1438 -88 1222 -88 
Q 981 -88 804 51 
Q 628 191 559 409 
Q 491 628 491 1028 
L 491 2306 
Q 491 2509 447 2587 
Q 403 2666 317 2708 
Q 231 2750 6 2747 
L 6 2863 
L 1009 2863 
L 1009 947 
Q 1009 547 1148 422 
Q 1288 297 1484 297 
Q 1619 297 1789 381 
Q 1959 466 2194 703 
L 2194 2325 
Q 2194 2569 2105 2655 
Q 2016 2741 1734 2747 
L 1734 2863 
L 2709 2863 
z
" id="TimesNewRomanPSMT-75" transform="scale(0.015625)"/>
      <path d="M 3256 -1381 
L -53 -1381 
L -53 -1119 
L 3256 -1119 
L 3256 -1381 
z
" id="TimesNewRomanPSMT-5f" transform="scale(0.015625)"/>
      <path d="M 644 4238 
L 2916 4238 
L 2916 4119 
L 1503 -88 
L 1153 -88 
L 2419 3728 
L 1253 3728 
Q 900 3728 750 3644 
Q 488 3500 328 3200 
L 238 3234 
L 644 4238 
z
" id="TimesNewRomanPSMT-37" transform="scale(0.015625)"/>
     </defs>
     <use xlink:href="#TimesNewRomanPSMT-41"/>
     <use x="72.216797" xlink:href="#TimesNewRomanPSMT-75"/>
     <use x="122.216797" xlink:href="#TimesNewRomanPSMT-74"/>
     <use x="150" xlink:href="#TimesNewRomanPSMT-6f"/>
     <use x="200" xlink:href="#TimesNewRomanPSMT-5f"/>
     <use x="250" xlink:href="#TimesNewRomanPSMT-30"/>
     <use x="300" xlink:href="#TimesNewRomanPSMT-30"/>
     <use x="350" xlink:href="#TimesNewRomanPSMT-31"/>
     <use x="396.25" xlink:href="#TimesNewRomanPSMT-31"/>
     <use x="446.25" xlink:href="#TimesNewRomanPSMT-37"/>
    </g>
    <!-- Vs: 304.24m/s -->
    <g transform="translate(80.076875 323.208)scale(0.14 -0.14)">
     <defs>
      <path d="M 903 2950 
Q 1047 2950 1148 2848 
Q 1250 2747 1250 2603 
Q 1250 2459 1148 2357 
Q 1047 2256 903 2256 
Q 759 2256 657 2357 
Q 556 2459 556 2603 
Q 556 2747 657 2848 
Q 759 2950 903 2950 
z
M 897 609 
Q 1044 609 1145 506 
Q 1247 403 1247 259 
Q 1247 116 1144 14 
Q 1041 -88 897 -88 
Q 753 -88 651 14 
Q 550 116 550 259 
Q 550 403 651 506 
Q 753 609 897 609 
z
" id="TimesNewRomanPSMT-3a" transform="scale(0.015625)"/>
      <path d="M 1794 4444 
L 259 -88 
L 9 -88 
L 1544 4444 
L 1794 4444 
z
" id="TimesNewRomanPSMT-2f" transform="scale(0.015625)"/>
     </defs>
     <use xlink:href="#TimesNewRomanPSMT-56"/>
     <use x="72.216797" xlink:href="#TimesNewRomanPSMT-73"/>
     <use x="111.132812" xlink:href="#TimesNewRomanPSMT-3a"/>
     <use x="138.916016" xlink:href="#TimesNewRomanPSMT-20"/>
     <use x="163.916016" xlink:href="#TimesNewRomanPSMT-33"/>
     <use x="213.916016" xlink:href="#TimesNewRomanPSMT-30"/>
     <use x="263.916016" xlink:href="#TimesNewRomanPSMT-34"/>
     <use x="313.916016" xlink:href="#TimesNewRomanPSMT-2e"/>
     <use x="338.916016" xlink:href="#TimesNewRomanPSMT-32"/>
     <use x="388.916016" xlink:href="#TimesNewRomanPSMT-34"/>
     <use x="438.916016" xlink:href="#TimesNewRomanPSMT-6d"/>
     <use x="516.699219" xlink:href="#TimesNewRomanPSMT-2f"/>
     <use x="544.482422" xlink:href="#TimesNewRomanPSMT-73"/>
    </g>
   </g>
  </g>
 </g>
 <defs>
  <clipPath id="p061669f253">
   <rect height="332.64" width="334.8" x="63.336875" y="7.2"/>
  </clipPath>
 </defs>
</svg>
