<?xml version="1.0" encoding="utf-8" standalone="no"?>
<!DOCTYPE svg PUBLIC "-//W3C//DTD SVG 1.1//EN"
  "http://www.w3.org/Graphics/SVG/1.1/DTD/svg11.dtd">
<svg height="383.471875pt" version="1.1" viewBox="0 0 421.086875 383.471875" width="421.086875pt" xmlns="http://www.w3.org/2000/svg" xmlns:xlink="http://www.w3.org/1999/xlink">
 <metadata>
  <rdf:RDF xmlns:cc="http://creativecommons.org/ns#" xmlns:dc="http://purl.org/dc/elements/1.1/" xmlns:rdf="http://www.w3.org/1999/02/22-rdf-syntax-ns#">
   <cc:Work>
    <dc:type rdf:resource="http://purl.org/dc/dcmitype/StillImage"/>
    <dc:date>2021-06-11T14:39:39.167977</dc:date>
    <dc:format>image/svg+xml</dc:format>
    <dc:creator>
     <cc:Agent>
      <dc:title>Matplotlib v3.4.2, https://matplotlib.org/</dc:title>
     </cc:Agent>
    </dc:creator>
   </cc:Work>
  </rdf:RDF>
 </metadata>
 <defs>
  <style type="text/css">*{stroke-linecap:butt;stroke-linejoin:round;}</style>
 </defs>
 <g id="figure_1">
  <g id="patch_1">
   <path d="M 0 383.471875 
L 421.086875 383.471875 
L 421.086875 0 
L 0 0 
z
" style="fill:#ffffff;"/>
  </g>
  <g id="axes_1">
   <g id="patch_2">
    <path d="M 63.336875 339.84 
L 398.136875 339.84 
L 398.136875 7.2 
L 63.336875 7.2 
z
" style="fill:#ffffff;"/>
   </g>
   <g id="matplotlib.axis_1">
    <g id="xtick_1">
     <g id="line2d_1">
      <path clip-path="url(#p662aeed5f2)" d="M 93.773239 339.84 
L 93.773239 7.2 
" style="fill:none;stroke:#000000;stroke-dasharray:0.5,0.825;stroke-dashoffset:0;stroke-width:0.5;"/>
     </g>
     <g id="line2d_2">
      <defs>
       <path d="M 0 0 
L 0 3.5 
" id="m58920f2aac" style="stroke:#000000;stroke-width:0.8;"/>
      </defs>
      <g>
       <use style="stroke:#000000;stroke-width:0.8;" x="93.773239" xlink:href="#m58920f2aac" y="339.84"/>
      </g>
     </g>
     <g id="text_1">
      <!-- 0.000 -->
      <g transform="translate(78.023239 356.56125)scale(0.14 -0.14)">
       <defs>
        <path d="M 231 2094 
Q 231 2819 450 3342 
Q 669 3866 1031 4122 
Q 1313 4325 1613 4325 
Q 2100 4325 2488 3828 
Q 2972 3213 2972 2159 
Q 2972 1422 2759 906 
Q 2547 391 2217 158 
Q 1888 -75 1581 -75 
Q 975 -75 572 641 
Q 231 1244 231 2094 
z
M 844 2016 
Q 844 1141 1059 588 
Q 1238 122 1591 122 
Q 1759 122 1940 273 
Q 2122 425 2216 781 
Q 2359 1319 2359 2297 
Q 2359 3022 2209 3506 
Q 2097 3866 1919 4016 
Q 1791 4119 1609 4119 
Q 1397 4119 1231 3928 
Q 1006 3669 925 3112 
Q 844 2556 844 2016 
z
" id="TimesNewRomanPSMT-30" transform="scale(0.015625)"/>
        <path d="M 800 606 
Q 947 606 1047 504 
Q 1147 403 1147 259 
Q 1147 116 1045 14 
Q 944 -88 800 -88 
Q 656 -88 554 14 
Q 453 116 453 259 
Q 453 406 554 506 
Q 656 606 800 606 
z
" id="TimesNewRomanPSMT-2e" transform="scale(0.015625)"/>
       </defs>
       <use xlink:href="#TimesNewRomanPSMT-30"/>
       <use x="50" xlink:href="#TimesNewRomanPSMT-2e"/>
       <use x="75" xlink:href="#TimesNewRomanPSMT-30"/>
       <use x="125" xlink:href="#TimesNewRomanPSMT-30"/>
       <use x="175" xlink:href="#TimesNewRomanPSMT-30"/>
      </g>
     </g>
    </g>
    <g id="xtick_2">
     <g id="line2d_3">
      <path clip-path="url(#p662aeed5f2)" d="M 154.645966 339.84 
L 154.645966 7.2 
" style="fill:none;stroke:#000000;stroke-dasharray:0.5,0.825;stroke-dashoffset:0;stroke-width:0.5;"/>
     </g>
     <g id="line2d_4">
      <g>
       <use style="stroke:#000000;stroke-width:0.8;" x="154.645966" xlink:href="#m58920f2aac" y="339.84"/>
      </g>
     </g>
     <g id="text_2">
      <!-- 0.001 -->
      <g transform="translate(138.895966 356.56125)scale(0.14 -0.14)">
       <defs>
        <path d="M 750 3822 
L 1781 4325 
L 1884 4325 
L 1884 747 
Q 1884 391 1914 303 
Q 1944 216 2037 169 
Q 2131 122 2419 116 
L 2419 0 
L 825 0 
L 825 116 
Q 1125 122 1212 167 
Q 1300 213 1334 289 
Q 1369 366 1369 747 
L 1369 3034 
Q 1369 3497 1338 3628 
Q 1316 3728 1258 3775 
Q 1200 3822 1119 3822 
Q 1003 3822 797 3725 
L 750 3822 
z
" id="TimesNewRomanPSMT-31" transform="scale(0.015625)"/>
       </defs>
       <use xlink:href="#TimesNewRomanPSMT-30"/>
       <use x="50" xlink:href="#TimesNewRomanPSMT-2e"/>
       <use x="75" xlink:href="#TimesNewRomanPSMT-30"/>
       <use x="125" xlink:href="#TimesNewRomanPSMT-30"/>
       <use x="175" xlink:href="#TimesNewRomanPSMT-31"/>
      </g>
     </g>
    </g>
    <g id="xtick_3">
     <g id="line2d_5">
      <path clip-path="url(#p662aeed5f2)" d="M 215.518693 339.84 
L 215.518693 7.2 
" style="fill:none;stroke:#000000;stroke-dasharray:0.5,0.825;stroke-dashoffset:0;stroke-width:0.5;"/>
     </g>
     <g id="line2d_6">
      <g>
       <use style="stroke:#000000;stroke-width:0.8;" x="215.518693" xlink:href="#m58920f2aac" y="339.84"/>
      </g>
     </g>
     <g id="text_3">
      <!-- 0.002 -->
      <g transform="translate(199.768693 356.56125)scale(0.14 -0.14)">
       <defs>
        <path d="M 2934 816 
L 2638 0 
L 138 0 
L 138 116 
Q 1241 1122 1691 1759 
Q 2141 2397 2141 2925 
Q 2141 3328 1894 3587 
Q 1647 3847 1303 3847 
Q 991 3847 742 3664 
Q 494 3481 375 3128 
L 259 3128 
Q 338 3706 661 4015 
Q 984 4325 1469 4325 
Q 1984 4325 2329 3994 
Q 2675 3663 2675 3213 
Q 2675 2891 2525 2569 
Q 2294 2063 1775 1497 
Q 997 647 803 472 
L 1909 472 
Q 2247 472 2383 497 
Q 2519 522 2628 598 
Q 2738 675 2819 816 
L 2934 816 
z
" id="TimesNewRomanPSMT-32" transform="scale(0.015625)"/>
       </defs>
       <use xlink:href="#TimesNewRomanPSMT-30"/>
       <use x="50" xlink:href="#TimesNewRomanPSMT-2e"/>
       <use x="75" xlink:href="#TimesNewRomanPSMT-30"/>
       <use x="125" xlink:href="#TimesNewRomanPSMT-30"/>
       <use x="175" xlink:href="#TimesNewRomanPSMT-32"/>
      </g>
     </g>
    </g>
    <g id="xtick_4">
     <g id="line2d_7">
      <path clip-path="url(#p662aeed5f2)" d="M 276.39142 339.84 
L 276.39142 7.2 
" style="fill:none;stroke:#000000;stroke-dasharray:0.5,0.825;stroke-dashoffset:0;stroke-width:0.5;"/>
     </g>
     <g id="line2d_8">
      <g>
       <use style="stroke:#000000;stroke-width:0.8;" x="276.39142" xlink:href="#m58920f2aac" y="339.84"/>
      </g>
     </g>
     <g id="text_4">
      <!-- 0.003 -->
      <g transform="translate(260.64142 356.56125)scale(0.14 -0.14)">
       <defs>
        <path d="M 325 3431 
Q 506 3859 782 4092 
Q 1059 4325 1472 4325 
Q 1981 4325 2253 3994 
Q 2459 3747 2459 3466 
Q 2459 3003 1878 2509 
Q 2269 2356 2469 2072 
Q 2669 1788 2669 1403 
Q 2669 853 2319 450 
Q 1863 -75 997 -75 
Q 569 -75 414 31 
Q 259 138 259 259 
Q 259 350 332 419 
Q 406 488 509 488 
Q 588 488 669 463 
Q 722 447 909 348 
Q 1097 250 1169 231 
Q 1284 197 1416 197 
Q 1734 197 1970 444 
Q 2206 691 2206 1028 
Q 2206 1275 2097 1509 
Q 2016 1684 1919 1775 
Q 1784 1900 1550 2001 
Q 1316 2103 1072 2103 
L 972 2103 
L 972 2197 
Q 1219 2228 1467 2375 
Q 1716 2522 1828 2728 
Q 1941 2934 1941 3181 
Q 1941 3503 1739 3701 
Q 1538 3900 1238 3900 
Q 753 3900 428 3381 
L 325 3431 
z
" id="TimesNewRomanPSMT-33" transform="scale(0.015625)"/>
       </defs>
       <use xlink:href="#TimesNewRomanPSMT-30"/>
       <use x="50" xlink:href="#TimesNewRomanPSMT-2e"/>
       <use x="75" xlink:href="#TimesNewRomanPSMT-30"/>
       <use x="125" xlink:href="#TimesNewRomanPSMT-30"/>
       <use x="175" xlink:href="#TimesNewRomanPSMT-33"/>
      </g>
     </g>
    </g>
    <g id="xtick_5">
     <g id="line2d_9">
      <path clip-path="url(#p662aeed5f2)" d="M 337.264148 339.84 
L 337.264148 7.2 
" style="fill:none;stroke:#000000;stroke-dasharray:0.5,0.825;stroke-dashoffset:0;stroke-width:0.5;"/>
     </g>
     <g id="line2d_10">
      <g>
       <use style="stroke:#000000;stroke-width:0.8;" x="337.264148" xlink:href="#m58920f2aac" y="339.84"/>
      </g>
     </g>
     <g id="text_5">
      <!-- 0.004 -->
      <g transform="translate(321.514148 356.56125)scale(0.14 -0.14)">
       <defs>
        <path d="M 2978 1563 
L 2978 1119 
L 2409 1119 
L 2409 0 
L 1894 0 
L 1894 1119 
L 100 1119 
L 100 1519 
L 2066 4325 
L 2409 4325 
L 2409 1563 
L 2978 1563 
z
M 1894 1563 
L 1894 3666 
L 406 1563 
L 1894 1563 
z
" id="TimesNewRomanPSMT-34" transform="scale(0.015625)"/>
       </defs>
       <use xlink:href="#TimesNewRomanPSMT-30"/>
       <use x="50" xlink:href="#TimesNewRomanPSMT-2e"/>
       <use x="75" xlink:href="#TimesNewRomanPSMT-30"/>
       <use x="125" xlink:href="#TimesNewRomanPSMT-30"/>
       <use x="175" xlink:href="#TimesNewRomanPSMT-34"/>
      </g>
     </g>
    </g>
    <g id="xtick_6">
     <g id="line2d_11">
      <path clip-path="url(#p662aeed5f2)" d="M 398.136875 339.84 
L 398.136875 7.2 
" style="fill:none;stroke:#000000;stroke-dasharray:0.5,0.825;stroke-dashoffset:0;stroke-width:0.5;"/>
     </g>
     <g id="line2d_12">
      <g>
       <use style="stroke:#000000;stroke-width:0.8;" x="398.136875" xlink:href="#m58920f2aac" y="339.84"/>
      </g>
     </g>
     <g id="text_6">
      <!-- 0.005 -->
      <g transform="translate(382.386875 356.56125)scale(0.14 -0.14)">
       <defs>
        <path d="M 2778 4238 
L 2534 3706 
L 1259 3706 
L 981 3138 
Q 1809 3016 2294 2522 
Q 2709 2097 2709 1522 
Q 2709 1188 2573 903 
Q 2438 619 2231 419 
Q 2025 219 1772 97 
Q 1413 -75 1034 -75 
Q 653 -75 479 54 
Q 306 184 306 341 
Q 306 428 378 495 
Q 450 563 559 563 
Q 641 563 702 538 
Q 763 513 909 409 
Q 1144 247 1384 247 
Q 1750 247 2026 523 
Q 2303 800 2303 1197 
Q 2303 1581 2056 1914 
Q 1809 2247 1375 2428 
Q 1034 2569 447 2591 
L 1259 4238 
L 2778 4238 
z
" id="TimesNewRomanPSMT-35" transform="scale(0.015625)"/>
       </defs>
       <use xlink:href="#TimesNewRomanPSMT-30"/>
       <use x="50" xlink:href="#TimesNewRomanPSMT-2e"/>
       <use x="75" xlink:href="#TimesNewRomanPSMT-30"/>
       <use x="125" xlink:href="#TimesNewRomanPSMT-30"/>
       <use x="175" xlink:href="#TimesNewRomanPSMT-35"/>
      </g>
     </g>
    </g>
    <g id="text_7">
     <!-- Time (sec) -->
     <g transform="translate(200.858906 373.277188)scale(0.14 -0.14)">
      <defs>
       <path d="M 3703 4238 
L 3750 3244 
L 3631 3244 
Q 3597 3506 3538 3619 
Q 3441 3800 3280 3886 
Q 3119 3972 2856 3972 
L 2259 3972 
L 2259 734 
Q 2259 344 2344 247 
Q 2463 116 2709 116 
L 2856 116 
L 2856 0 
L 1059 0 
L 1059 116 
L 1209 116 
Q 1478 116 1591 278 
Q 1659 378 1659 734 
L 1659 3972 
L 1150 3972 
Q 853 3972 728 3928 
Q 566 3869 450 3700 
Q 334 3531 313 3244 
L 194 3244 
L 244 4238 
L 3703 4238 
z
" id="TimesNewRomanPSMT-54" transform="scale(0.015625)"/>
       <path d="M 928 4444 
Q 1059 4444 1151 4351 
Q 1244 4259 1244 4128 
Q 1244 3997 1151 3903 
Q 1059 3809 928 3809 
Q 797 3809 703 3903 
Q 609 3997 609 4128 
Q 609 4259 701 4351 
Q 794 4444 928 4444 
z
M 1188 2947 
L 1188 647 
Q 1188 378 1227 289 
Q 1266 200 1342 156 
Q 1419 113 1622 113 
L 1622 0 
L 231 0 
L 231 113 
Q 441 113 512 153 
Q 584 194 626 287 
Q 669 381 669 647 
L 669 1750 
Q 669 2216 641 2353 
Q 619 2453 572 2492 
Q 525 2531 444 2531 
Q 356 2531 231 2484 
L 188 2597 
L 1050 2947 
L 1188 2947 
z
" id="TimesNewRomanPSMT-69" transform="scale(0.015625)"/>
       <path d="M 1050 2338 
Q 1363 2650 1419 2697 
Q 1559 2816 1721 2881 
Q 1884 2947 2044 2947 
Q 2313 2947 2506 2790 
Q 2700 2634 2766 2338 
Q 3088 2713 3309 2830 
Q 3531 2947 3766 2947 
Q 3994 2947 4170 2830 
Q 4347 2713 4450 2447 
Q 4519 2266 4519 1878 
L 4519 647 
Q 4519 378 4559 278 
Q 4591 209 4675 161 
Q 4759 113 4950 113 
L 4950 0 
L 3538 0 
L 3538 113 
L 3597 113 
Q 3781 113 3884 184 
Q 3956 234 3988 344 
Q 4000 397 4000 647 
L 4000 1878 
Q 4000 2228 3916 2372 
Q 3794 2572 3525 2572 
Q 3359 2572 3192 2489 
Q 3025 2406 2788 2181 
L 2781 2147 
L 2788 2013 
L 2788 647 
Q 2788 353 2820 281 
Q 2853 209 2943 161 
Q 3034 113 3253 113 
L 3253 0 
L 1806 0 
L 1806 113 
Q 2044 113 2133 169 
Q 2222 225 2256 338 
Q 2272 391 2272 647 
L 2272 1878 
Q 2272 2228 2169 2381 
Q 2031 2581 1784 2581 
Q 1616 2581 1450 2491 
Q 1191 2353 1050 2181 
L 1050 647 
Q 1050 366 1089 281 
Q 1128 197 1204 155 
Q 1281 113 1516 113 
L 1516 0 
L 100 0 
L 100 113 
Q 297 113 375 155 
Q 453 197 493 289 
Q 534 381 534 647 
L 534 1741 
Q 534 2213 506 2350 
Q 484 2453 437 2492 
Q 391 2531 309 2531 
Q 222 2531 100 2484 
L 53 2597 
L 916 2947 
L 1050 2947 
L 1050 2338 
z
" id="TimesNewRomanPSMT-6d" transform="scale(0.015625)"/>
       <path d="M 681 1784 
Q 678 1147 991 784 
Q 1303 422 1725 422 
Q 2006 422 2214 576 
Q 2422 731 2563 1106 
L 2659 1044 
Q 2594 616 2278 264 
Q 1963 -88 1488 -88 
Q 972 -88 605 314 
Q 238 716 238 1394 
Q 238 2128 614 2539 
Q 991 2950 1559 2950 
Q 2041 2950 2350 2633 
Q 2659 2316 2659 1784 
L 681 1784 
z
M 681 1966 
L 2006 1966 
Q 1991 2241 1941 2353 
Q 1863 2528 1708 2628 
Q 1553 2728 1384 2728 
Q 1125 2728 920 2526 
Q 716 2325 681 1966 
z
" id="TimesNewRomanPSMT-65" transform="scale(0.015625)"/>
       <path id="TimesNewRomanPSMT-20" transform="scale(0.015625)"/>
       <path d="M 1988 -1253 
L 1988 -1369 
Q 1516 -1131 1200 -813 
Q 750 -359 506 256 
Q 263 872 263 1534 
Q 263 2503 741 3301 
Q 1219 4100 1988 4444 
L 1988 4313 
Q 1603 4100 1356 3731 
Q 1109 3363 987 2797 
Q 866 2231 866 1616 
Q 866 947 969 400 
Q 1050 -31 1165 -292 
Q 1281 -553 1476 -793 
Q 1672 -1034 1988 -1253 
z
" id="TimesNewRomanPSMT-28" transform="scale(0.015625)"/>
       <path d="M 2050 2947 
L 2050 1972 
L 1947 1972 
Q 1828 2431 1642 2597 
Q 1456 2763 1169 2763 
Q 950 2763 815 2647 
Q 681 2531 681 2391 
Q 681 2216 781 2091 
Q 878 1963 1175 1819 
L 1631 1597 
Q 2266 1288 2266 781 
Q 2266 391 1970 151 
Q 1675 -88 1309 -88 
Q 1047 -88 709 6 
Q 606 38 541 38 
Q 469 38 428 -44 
L 325 -44 
L 325 978 
L 428 978 
Q 516 541 762 319 
Q 1009 97 1316 97 
Q 1531 97 1667 223 
Q 1803 350 1803 528 
Q 1803 744 1651 891 
Q 1500 1038 1047 1263 
Q 594 1488 453 1669 
Q 313 1847 313 2119 
Q 313 2472 555 2709 
Q 797 2947 1181 2947 
Q 1350 2947 1591 2875 
Q 1750 2828 1803 2828 
Q 1853 2828 1881 2850 
Q 1909 2872 1947 2947 
L 2050 2947 
z
" id="TimesNewRomanPSMT-73" transform="scale(0.015625)"/>
       <path d="M 2631 1088 
Q 2516 522 2178 217 
Q 1841 -88 1431 -88 
Q 944 -88 581 321 
Q 219 731 219 1428 
Q 219 2103 620 2525 
Q 1022 2947 1584 2947 
Q 2006 2947 2278 2723 
Q 2550 2500 2550 2259 
Q 2550 2141 2473 2067 
Q 2397 1994 2259 1994 
Q 2075 1994 1981 2113 
Q 1928 2178 1911 2362 
Q 1894 2547 1784 2644 
Q 1675 2738 1481 2738 
Q 1169 2738 978 2506 
Q 725 2200 725 1697 
Q 725 1184 976 792 
Q 1228 400 1656 400 
Q 1963 400 2206 609 
Q 2378 753 2541 1131 
L 2631 1088 
z
" id="TimesNewRomanPSMT-63" transform="scale(0.015625)"/>
       <path d="M 144 4313 
L 144 4444 
Q 619 4209 934 3891 
Q 1381 3434 1625 2820 
Q 1869 2206 1869 1541 
Q 1869 572 1392 -226 
Q 916 -1025 144 -1369 
L 144 -1253 
Q 528 -1038 776 -670 
Q 1025 -303 1145 264 
Q 1266 831 1266 1447 
Q 1266 2113 1163 2663 
Q 1084 3094 967 3353 
Q 850 3613 656 3853 
Q 463 4094 144 4313 
z
" id="TimesNewRomanPSMT-29" transform="scale(0.015625)"/>
      </defs>
      <use xlink:href="#TimesNewRomanPSMT-54"/>
      <use x="57.583984" xlink:href="#TimesNewRomanPSMT-69"/>
      <use x="85.367188" xlink:href="#TimesNewRomanPSMT-6d"/>
      <use x="163.150391" xlink:href="#TimesNewRomanPSMT-65"/>
      <use x="207.535156" xlink:href="#TimesNewRomanPSMT-20"/>
      <use x="232.535156" xlink:href="#TimesNewRomanPSMT-28"/>
      <use x="265.835938" xlink:href="#TimesNewRomanPSMT-73"/>
      <use x="304.751953" xlink:href="#TimesNewRomanPSMT-65"/>
      <use x="349.136719" xlink:href="#TimesNewRomanPSMT-63"/>
      <use x="393.521484" xlink:href="#TimesNewRomanPSMT-29"/>
     </g>
    </g>
   </g>
   <g id="matplotlib.axis_2">
    <g id="ytick_1">
     <g id="line2d_13">
      <path clip-path="url(#p662aeed5f2)" d="M 63.336875 315.082483 
L 398.136875 315.082483 
" style="fill:none;stroke:#000000;stroke-dasharray:0.5,0.825;stroke-dashoffset:0;stroke-width:0.5;"/>
     </g>
     <g id="line2d_14">
      <defs>
       <path d="M 0 0 
L -3.5 0 
" id="m2b0cf3f8ec" style="stroke:#000000;stroke-width:0.8;"/>
      </defs>
      <g>
       <use style="stroke:#000000;stroke-width:0.8;" x="63.336875" xlink:href="#m2b0cf3f8ec" y="315.082483"/>
      </g>
     </g>
     <g id="text_8">
      <!-- −0.06 -->
      <g transform="translate(23.942188 319.943108)scale(0.14 -0.14)">
       <defs>
        <path d="M 3484 2000 
L 116 2000 
L 116 2256 
L 3484 2256 
L 3484 2000 
z
" id="TimesNewRomanPSMT-2212" transform="scale(0.015625)"/>
        <path d="M 2869 4325 
L 2869 4209 
Q 2456 4169 2195 4045 
Q 1934 3922 1679 3669 
Q 1425 3416 1258 3105 
Q 1091 2794 978 2366 
Q 1428 2675 1881 2675 
Q 2316 2675 2634 2325 
Q 2953 1975 2953 1425 
Q 2953 894 2631 456 
Q 2244 -75 1606 -75 
Q 1172 -75 869 213 
Q 275 772 275 1663 
Q 275 2231 503 2743 
Q 731 3256 1154 3653 
Q 1578 4050 1965 4187 
Q 2353 4325 2688 4325 
L 2869 4325 
z
M 925 2138 
Q 869 1716 869 1456 
Q 869 1156 980 804 
Q 1091 453 1309 247 
Q 1469 100 1697 100 
Q 1969 100 2183 356 
Q 2397 613 2397 1088 
Q 2397 1622 2184 2012 
Q 1972 2403 1581 2403 
Q 1463 2403 1327 2353 
Q 1191 2303 925 2138 
z
" id="TimesNewRomanPSMT-36" transform="scale(0.015625)"/>
       </defs>
       <use xlink:href="#TimesNewRomanPSMT-2212"/>
       <use x="56.396484" xlink:href="#TimesNewRomanPSMT-30"/>
       <use x="106.396484" xlink:href="#TimesNewRomanPSMT-2e"/>
       <use x="131.396484" xlink:href="#TimesNewRomanPSMT-30"/>
       <use x="181.396484" xlink:href="#TimesNewRomanPSMT-36"/>
      </g>
     </g>
    </g>
    <g id="ytick_2">
     <g id="line2d_15">
      <path clip-path="url(#p662aeed5f2)" d="M 63.336875 262.641228 
L 398.136875 262.641228 
" style="fill:none;stroke:#000000;stroke-dasharray:0.5,0.825;stroke-dashoffset:0;stroke-width:0.5;"/>
     </g>
     <g id="line2d_16">
      <g>
       <use style="stroke:#000000;stroke-width:0.8;" x="63.336875" xlink:href="#m2b0cf3f8ec" y="262.641228"/>
      </g>
     </g>
     <g id="text_9">
      <!-- −0.04 -->
      <g transform="translate(23.942188 267.501853)scale(0.14 -0.14)">
       <use xlink:href="#TimesNewRomanPSMT-2212"/>
       <use x="56.396484" xlink:href="#TimesNewRomanPSMT-30"/>
       <use x="106.396484" xlink:href="#TimesNewRomanPSMT-2e"/>
       <use x="131.396484" xlink:href="#TimesNewRomanPSMT-30"/>
       <use x="181.396484" xlink:href="#TimesNewRomanPSMT-34"/>
      </g>
     </g>
    </g>
    <g id="ytick_3">
     <g id="line2d_17">
      <path clip-path="url(#p662aeed5f2)" d="M 63.336875 210.199973 
L 398.136875 210.199973 
" style="fill:none;stroke:#000000;stroke-dasharray:0.5,0.825;stroke-dashoffset:0;stroke-width:0.5;"/>
     </g>
     <g id="line2d_18">
      <g>
       <use style="stroke:#000000;stroke-width:0.8;" x="63.336875" xlink:href="#m2b0cf3f8ec" y="210.199973"/>
      </g>
     </g>
     <g id="text_10">
      <!-- −0.02 -->
      <g transform="translate(23.942188 215.060598)scale(0.14 -0.14)">
       <use xlink:href="#TimesNewRomanPSMT-2212"/>
       <use x="56.396484" xlink:href="#TimesNewRomanPSMT-30"/>
       <use x="106.396484" xlink:href="#TimesNewRomanPSMT-2e"/>
       <use x="131.396484" xlink:href="#TimesNewRomanPSMT-30"/>
       <use x="181.396484" xlink:href="#TimesNewRomanPSMT-32"/>
      </g>
     </g>
    </g>
    <g id="ytick_4">
     <g id="line2d_19">
      <path clip-path="url(#p662aeed5f2)" d="M 63.336875 157.758718 
L 398.136875 157.758718 
" style="fill:none;stroke:#000000;stroke-dasharray:0.5,0.825;stroke-dashoffset:0;stroke-width:0.5;"/>
     </g>
     <g id="line2d_20">
      <g>
       <use style="stroke:#000000;stroke-width:0.8;" x="63.336875" xlink:href="#m2b0cf3f8ec" y="157.758718"/>
      </g>
     </g>
     <g id="text_11">
      <!-- 0.00 -->
      <g transform="translate(31.836875 162.619343)scale(0.14 -0.14)">
       <use xlink:href="#TimesNewRomanPSMT-30"/>
       <use x="50" xlink:href="#TimesNewRomanPSMT-2e"/>
       <use x="75" xlink:href="#TimesNewRomanPSMT-30"/>
       <use x="125" xlink:href="#TimesNewRomanPSMT-30"/>
      </g>
     </g>
    </g>
    <g id="ytick_5">
     <g id="line2d_21">
      <path clip-path="url(#p662aeed5f2)" d="M 63.336875 105.317463 
L 398.136875 105.317463 
" style="fill:none;stroke:#000000;stroke-dasharray:0.5,0.825;stroke-dashoffset:0;stroke-width:0.5;"/>
     </g>
     <g id="line2d_22">
      <g>
       <use style="stroke:#000000;stroke-width:0.8;" x="63.336875" xlink:href="#m2b0cf3f8ec" y="105.317463"/>
      </g>
     </g>
     <g id="text_12">
      <!-- 0.02 -->
      <g transform="translate(31.836875 110.178088)scale(0.14 -0.14)">
       <use xlink:href="#TimesNewRomanPSMT-30"/>
       <use x="50" xlink:href="#TimesNewRomanPSMT-2e"/>
       <use x="75" xlink:href="#TimesNewRomanPSMT-30"/>
       <use x="125" xlink:href="#TimesNewRomanPSMT-32"/>
      </g>
     </g>
    </g>
    <g id="ytick_6">
     <g id="line2d_23">
      <path clip-path="url(#p662aeed5f2)" d="M 63.336875 52.876208 
L 398.136875 52.876208 
" style="fill:none;stroke:#000000;stroke-dasharray:0.5,0.825;stroke-dashoffset:0;stroke-width:0.5;"/>
     </g>
     <g id="line2d_24">
      <g>
       <use style="stroke:#000000;stroke-width:0.8;" x="63.336875" xlink:href="#m2b0cf3f8ec" y="52.876208"/>
      </g>
     </g>
     <g id="text_13">
      <!-- 0.04 -->
      <g transform="translate(31.836875 57.736833)scale(0.14 -0.14)">
       <use xlink:href="#TimesNewRomanPSMT-30"/>
       <use x="50" xlink:href="#TimesNewRomanPSMT-2e"/>
       <use x="75" xlink:href="#TimesNewRomanPSMT-30"/>
       <use x="125" xlink:href="#TimesNewRomanPSMT-34"/>
      </g>
     </g>
    </g>
    <g id="text_14">
     <!-- Volatage (V) -->
     <g transform="translate(16.92125 209.352344)rotate(-90)scale(0.14 -0.14)">
      <defs>
       <path d="M 4544 4238 
L 4544 4122 
Q 4319 4081 4203 3978 
Q 4038 3825 3909 3509 
L 2431 -97 
L 2316 -97 
L 728 3556 
Q 606 3838 556 3900 
Q 478 3997 364 4051 
Q 250 4106 56 4122 
L 56 4238 
L 1788 4238 
L 1788 4122 
Q 1494 4094 1406 4022 
Q 1319 3950 1319 3838 
Q 1319 3681 1463 3350 
L 2541 866 
L 3541 3319 
Q 3688 3681 3688 3822 
Q 3688 3913 3597 3995 
Q 3506 4078 3291 4113 
Q 3275 4116 3238 4122 
L 3238 4238 
L 4544 4238 
z
" id="TimesNewRomanPSMT-56" transform="scale(0.015625)"/>
       <path d="M 1600 2947 
Q 2250 2947 2644 2453 
Q 2978 2031 2978 1484 
Q 2978 1100 2793 706 
Q 2609 313 2286 112 
Q 1963 -88 1566 -88 
Q 919 -88 538 428 
Q 216 863 216 1403 
Q 216 1797 411 2186 
Q 606 2575 925 2761 
Q 1244 2947 1600 2947 
z
M 1503 2744 
Q 1338 2744 1170 2645 
Q 1003 2547 900 2300 
Q 797 2053 797 1666 
Q 797 1041 1045 587 
Q 1294 134 1700 134 
Q 2003 134 2200 384 
Q 2397 634 2397 1244 
Q 2397 2006 2069 2444 
Q 1847 2744 1503 2744 
z
" id="TimesNewRomanPSMT-6f" transform="scale(0.015625)"/>
       <path d="M 1184 4444 
L 1184 647 
Q 1184 378 1223 290 
Q 1263 203 1344 158 
Q 1425 113 1647 113 
L 1647 0 
L 244 0 
L 244 113 
Q 441 113 512 153 
Q 584 194 625 287 
Q 666 381 666 647 
L 666 3247 
Q 666 3731 644 3842 
Q 622 3953 573 3993 
Q 525 4034 450 4034 
Q 369 4034 244 3984 
L 191 4094 
L 1044 4444 
L 1184 4444 
z
" id="TimesNewRomanPSMT-6c" transform="scale(0.015625)"/>
       <path d="M 1822 413 
Q 1381 72 1269 19 
Q 1100 -59 909 -59 
Q 613 -59 420 144 
Q 228 347 228 678 
Q 228 888 322 1041 
Q 450 1253 767 1440 
Q 1084 1628 1822 1897 
L 1822 2009 
Q 1822 2438 1686 2597 
Q 1550 2756 1291 2756 
Q 1094 2756 978 2650 
Q 859 2544 859 2406 
L 866 2225 
Q 866 2081 792 2003 
Q 719 1925 600 1925 
Q 484 1925 411 2006 
Q 338 2088 338 2228 
Q 338 2497 613 2722 
Q 888 2947 1384 2947 
Q 1766 2947 2009 2819 
Q 2194 2722 2281 2516 
Q 2338 2381 2338 1966 
L 2338 994 
Q 2338 584 2353 492 
Q 2369 400 2405 369 
Q 2441 338 2488 338 
Q 2538 338 2575 359 
Q 2641 400 2828 588 
L 2828 413 
Q 2478 -56 2159 -56 
Q 2006 -56 1915 50 
Q 1825 156 1822 413 
z
M 1822 616 
L 1822 1706 
Q 1350 1519 1213 1441 
Q 966 1303 859 1153 
Q 753 1003 753 825 
Q 753 600 887 451 
Q 1022 303 1197 303 
Q 1434 303 1822 616 
z
" id="TimesNewRomanPSMT-61" transform="scale(0.015625)"/>
       <path d="M 1031 3803 
L 1031 2863 
L 1700 2863 
L 1700 2644 
L 1031 2644 
L 1031 788 
Q 1031 509 1111 412 
Q 1191 316 1316 316 
Q 1419 316 1516 380 
Q 1613 444 1666 569 
L 1788 569 
Q 1678 263 1478 108 
Q 1278 -47 1066 -47 
Q 922 -47 784 33 
Q 647 113 581 261 
Q 516 409 516 719 
L 516 2644 
L 63 2644 
L 63 2747 
Q 234 2816 414 2980 
Q 594 3144 734 3369 
Q 806 3488 934 3803 
L 1031 3803 
z
" id="TimesNewRomanPSMT-74" transform="scale(0.015625)"/>
       <path d="M 966 1044 
Q 703 1172 562 1401 
Q 422 1631 422 1909 
Q 422 2334 742 2640 
Q 1063 2947 1563 2947 
Q 1972 2947 2272 2747 
L 2878 2747 
Q 3013 2747 3034 2739 
Q 3056 2731 3066 2713 
Q 3084 2684 3084 2613 
Q 3084 2531 3069 2500 
Q 3059 2484 3036 2475 
Q 3013 2466 2878 2466 
L 2506 2466 
Q 2681 2241 2681 1891 
Q 2681 1491 2375 1206 
Q 2069 922 1553 922 
Q 1341 922 1119 984 
Q 981 866 932 777 
Q 884 688 884 625 
Q 884 572 936 522 
Q 988 472 1138 450 
Q 1225 438 1575 428 
Q 2219 413 2409 384 
Q 2700 344 2873 169 
Q 3047 -6 3047 -263 
Q 3047 -616 2716 -925 
Q 2228 -1381 1444 -1381 
Q 841 -1381 425 -1109 
Q 191 -953 191 -784 
Q 191 -709 225 -634 
Q 278 -519 444 -313 
Q 466 -284 763 25 
Q 600 122 533 198 
Q 466 275 466 372 
Q 466 481 555 628 
Q 644 775 966 1044 
z
M 1509 2797 
Q 1278 2797 1122 2612 
Q 966 2428 966 2047 
Q 966 1553 1178 1281 
Q 1341 1075 1591 1075 
Q 1828 1075 1981 1253 
Q 2134 1431 2134 1813 
Q 2134 2309 1919 2591 
Q 1759 2797 1509 2797 
z
M 934 0 
Q 788 -159 713 -296 
Q 638 -434 638 -550 
Q 638 -700 819 -813 
Q 1131 -1006 1722 -1006 
Q 2284 -1006 2551 -807 
Q 2819 -609 2819 -384 
Q 2819 -222 2659 -153 
Q 2497 -84 2016 -72 
Q 1313 -53 934 0 
z
" id="TimesNewRomanPSMT-67" transform="scale(0.015625)"/>
      </defs>
      <use xlink:href="#TimesNewRomanPSMT-56"/>
      <use x="59.341797" xlink:href="#TimesNewRomanPSMT-6f"/>
      <use x="109.341797" xlink:href="#TimesNewRomanPSMT-6c"/>
      <use x="137.125" xlink:href="#TimesNewRomanPSMT-61"/>
      <use x="181.509766" xlink:href="#TimesNewRomanPSMT-74"/>
      <use x="209.292969" xlink:href="#TimesNewRomanPSMT-61"/>
      <use x="253.677734" xlink:href="#TimesNewRomanPSMT-67"/>
      <use x="303.677734" xlink:href="#TimesNewRomanPSMT-65"/>
      <use x="348.0625" xlink:href="#TimesNewRomanPSMT-20"/>
      <use x="373.0625" xlink:href="#TimesNewRomanPSMT-28"/>
      <use x="406.363281" xlink:href="#TimesNewRomanPSMT-56"/>
      <use x="478.580078" xlink:href="#TimesNewRomanPSMT-29"/>
     </g>
    </g>
   </g>
   <g id="LineCollection_1">
    <path clip-path="url(#p662aeed5f2)" d="M 78.555057 157.758718 
L 382.918693 157.758718 
" style="fill:none;stroke:#1f77b4;stroke-width:1.5;"/>
   </g>
   <g id="line2d_25">
    <path clip-path="url(#p662aeed5f2)" d="M 78.555057 157.694608 
L 83.790111 157.76016 
L 83.820548 157.825712 
L 83.911857 157.76016 
L 84.064039 157.792936 
L 106.31302 157.891263 
L 106.434766 157.891263 
L 112.67422 157.989591 
L 112.795966 158.022366 
L 112.917711 158.022366 
L 113.67862 158.120694 
L 113.830802 158.153469 
L 114.500402 158.251797 
L 114.652584 158.284573 
L 115.078693 158.350124 
L 115.230875 158.448451 
L 115.322184 158.415676 
L 115.44393 158.514003 
L 115.474366 158.481227 
L 115.930911 158.579555 
L 116.083093 158.61233 
L 116.478766 158.677882 
L 116.630948 158.743434 
L 116.752693 158.743434 
L 116.904875 158.776209 
L 117.45273 158.841761 
L 117.574475 158.907312 
L 117.69622 158.907312 
L 117.817966 158.940088 
L 117.848402 158.907312 
L 117.909275 158.972864 
L 118.609311 159.038416 
L 118.761493 159.103967 
L 119.887639 159.202295 
L 120.03982 159.23507 
L 120.192002 159.169519 
L 120.344184 159.202295 
L 120.861602 159.300622 
L 121.013784 159.333398 
L 121.592075 159.431725 
L 121.80513 159.530052 
L 121.987748 159.62838 
L 122.200802 159.726707 
L 122.413857 159.825034 
L 122.839966 160.152792 
L 123.022584 160.218344 
L 123.235639 160.447774 
L 123.38782 160.546102 
L 124.970511 162.381546 
L 125.214002 162.807631 
L 125.39662 163.135388 
L 127.009748 166.871828 
L 129.07942 173.918622 
L 130.296875 178.703886 
L 130.84473 180.834311 
L 132.123057 185.881783 
L 133.249202 189.192137 
L 133.401384 189.487119 
L 133.675311 190.109859 
L 133.705748 190.077083 
L 133.736184 190.142635 
L 133.918802 190.470393 
L 134.557966 191.584769 
L 135.836293 192.830249 
L 135.988475 192.797473 
L 136.20153 192.699146 
L 136.962439 191.748648 
L 137.814657 189.650998 
L 139.001675 185.455698 
L 139.762584 181.719258 
L 141.22353 171.558765 
L 142.045311 164.577523 
L 144.875893 136.095365 
L 150.50662 70.70768 
L 152.728475 52.484338 
L 153.763311 46.48637 
L 155.102511 42.520508 
L 155.559057 42.12719 
L 155.711239 42.192745 
L 155.741675 42.12719 
L 155.802548 42.159971 
L 155.95473 42.258296 
L 156.137348 42.356621 
L 156.53302 42.913814 
L 157.050439 44.257619 
L 158.20702 49.600069 
L 160.276693 68.347823 
L 161.524584 84.407955 
L 162.65073 101.713569 
L 163.442075 115.315519 
L 165.450875 154.122048 
L 170.868548 262.740995 
L 172.390366 287.093407 
L 173.881748 305.05454 
L 175.525311 318.263173 
L 176.347093 322.097943 
L 176.681893 323.081213 
L 177.016693 324.064492 
L 177.412366 324.654456 
L 178.05153 324.588894 
L 178.264584 324.392247 
L 178.508075 323.99893 
L 179.39073 320.81969 
L 180.669057 313.346811 
L 181.582148 305.710045 
L 183.256148 286.536214 
L 185.112766 259.004558 
L 186.938948 227.769235 
L 193.300148 113.348975 
L 194.152366 101.353035 
L 197.104693 67.692305 
L 197.926475 60.776612 
L 198.535202 57.007394 
L 199.296111 52.77932 
L 200.848366 46.551924 
L 200.970111 46.289723 
L 201.639711 44.48705 
L 202.40062 43.798761 
L 202.522366 43.700425 
L 202.887602 43.438224 
L 203.49633 43.536549 
L 203.709384 43.667655 
L 203.800693 43.667655 
L 203.983311 43.733206 
L 204.257239 43.831531 
L 204.652911 44.388725 
L 205.961675 47.4041 
L 206.296475 48.616798 
L 206.570402 49.468963 
L 207.42262 52.582671 
L 208.640075 58.220106 
L 209.09662 60.842163 
L 211.77502 75.820702 
L 212.140257 77.787246 
L 212.53593 79.91767 
L 213.11422 83.523009 
L 213.479457 85.555107 
L 214.45342 91.389199 
L 214.970839 94.502896 
L 215.183893 95.846704 
L 217.497057 110.136948 
L 217.679675 111.087441 
L 218.014475 112.988439 
L 218.501457 115.905486 
L 219.049311 118.724201 
L 219.992839 124.09943 
L 220.540693 126.918147 
L 225.440948 153.892617 
L 227.449748 167.592896 
L 231.710839 205.219496 
L 236.002366 250.286199 
L 237.676366 263.789827 
L 237.919857 265.297508 
L 239.746039 274.540279 
L 240.56782 276.146296 
L 240.598257 276.113515 
L 241.085239 276.572373 
L 241.23742 276.474051 
L 241.32873 276.375726 
L 241.815711 275.720208 
L 242.728802 273.491457 
L 243.550584 270.541634 
L 243.885384 269.099497 
L 245.072402 262.183811 
L 246.59422 248.188552 
L 249.36393 214.068955 
L 250.824875 193.813523 
L 252.164075 175.295205 
L 253.838075 153.400981 
L 255.938184 129.835192 
L 256.72953 122.46064 
L 257.551311 116.331569 
L 258.099166 112.955663 
L 258.525275 110.661358 
L 259.07313 107.842643 
L 260.351457 102.79517 
L 260.99062 101.090829 
L 261.08193 100.861398 
L 261.721093 99.747024 
L 262.299384 99.222612 
L 262.42113 99.222612 
L 262.634184 99.124282 
L 263.395093 99.222612 
L 263.638584 99.353712 
L 263.821202 99.419264 
L 264.00382 99.58314 
L 264.216875 99.68147 
L 265.921311 101.648017 
L 266.651784 102.959051 
L 266.834402 103.286804 
L 268.417093 106.957694 
L 269.056257 108.662035 
L 269.147566 108.891466 
L 269.78673 110.530252 
L 272.069457 118.232564 
L 272.495566 119.936905 
L 273.439093 123.542241 
L 273.621711 124.164981 
L 274.078257 125.705443 
L 274.13913 125.902098 
L 274.413057 126.754268 
L 275.782693 130.818465 
L 276.239239 132.063945 
L 277.030584 134.259922 
L 277.39582 135.308748 
L 278.217602 137.603053 
L 278.704584 138.914084 
L 279.222002 140.225116 
L 281.109057 144.518743 
L 281.382984 145.23981 
L 283.970075 150.549487 
L 284.030948 150.615039 
L 284.244002 150.942797 
L 284.335311 151.008348 
L 284.639675 151.401658 
L 284.700548 151.46721 
L 284.944039 151.729415 
L 285.400584 152.089949 
L 286.374548 152.024398 
L 286.557166 151.893295 
L 286.709348 151.794968 
L 286.952839 151.532761 
L 287.409384 150.910021 
L 288.10942 149.631766 
L 288.170293 149.533438 
L 288.53553 148.714044 
L 289.083384 147.271909 
L 289.844293 145.174259 
L 290.057348 144.453191 
L 291.54873 139.962909 
L 291.640039 139.766254 
L 292.12702 138.520775 
L 292.21833 138.32412 
L 292.79662 136.816433 
L 294.22713 133.96494 
L 294.288002 133.89939 
L 294.47062 133.637184 
L 294.592366 133.538855 
L 295.23153 132.948891 
L 295.322839 132.981667 
L 295.353275 132.948891 
L 295.962002 133.04722 
L 296.14462 133.178323 
L 297.209893 134.456578 
L 298.062111 136.554227 
L 298.792584 139.274618 
L 299.888293 144.453191 
L 300.892693 150.45116 
L 302.018839 158.448451 
L 305.305966 187.684451 
L 306.066875 194.731245 
L 309.140948 220.296356 
L 311.271493 233.341121 
L 311.910657 235.766524 
L 312.21502 236.684249 
L 312.30633 236.880901 
L 312.54982 237.470865 
L 313.21942 238.683571 
L 313.31073 238.781899 
L 313.615093 239.175206 
L 313.828148 239.273536 
L 313.919457 239.306311 
L 314.071639 239.24076 
L 314.98473 238.191935 
L 315.31953 237.208659 
L 316.354366 233.504998 
L 317.145711 229.637458 
L 318.24142 223.14785 
L 319.124075 216.756572 
L 324.572184 168.871151 
L 325.911384 156.973541 
L 327.402766 145.075931 
L 329.502875 130.031847 
L 331.755166 117.347621 
L 332.120402 115.413844 
L 333.368293 109.251999 
L 333.763966 107.613207 
L 334.555311 104.597838 
L 334.64662 104.36841 
L 336.32062 99.320937 
L 337.99462 95.977807 
L 339.120766 94.896208 
L 339.33382 94.797878 
L 339.546875 94.699551 
L 339.790366 94.633997 
L 339.942548 94.535672 
L 340.277348 94.437345 
L 340.520839 94.24069 
L 340.551275 94.306244 
L 340.612148 94.273468 
L 340.794766 94.142363 
L 340.946948 94.109584 
L 342.255711 94.207914 
L 342.43833 94.306244 
L 342.529639 94.306244 
L 342.712257 94.470121 
L 342.925311 94.568451 
L 343.320984 94.896208 
L 343.35142 94.863433 
L 343.381857 94.961755 
L 343.534039 95.060085 
L 344.294948 95.977807 
L 344.538439 96.403889 
L 344.629748 96.502219 
L 344.964548 96.993853 
L 345.147166 97.321614 
L 346.334184 100.140329 
L 347.12553 103.057376 
L 349.499566 113.742282 
L 349.834366 115.479398 
L 354.73462 141.27394 
L 355.465093 144.879277 
L 357.473893 155.105322 
L 358.08262 158.186245 
L 359.482693 165.134712 
L 360.060984 168.084532 
L 360.51753 170.346061 
L 365.356911 190.765375 
L 365.509093 191.355339 
L 366.178693 193.846299 
L 366.513493 195.059003 
L 367.365711 198.303805 
L 367.426584 198.50046 
L 369.252766 204.695083 
L 369.496257 205.547254 
L 370.713711 209.185363 
L 370.744148 209.185363 
L 371.048511 210.037533 
L 372.205093 212.790702 
L 372.57033 213.610096 
L 372.692075 213.872303 
L 374.092148 216.625471 
L 374.305202 216.986 
L 374.670439 217.510417 
L 375.674839 218.46091 
L 375.887893 218.55924 
L 376.070511 218.723116 
L 376.283566 218.821446 
L 376.435748 218.854222 
L 377.16622 218.755895 
L 377.287966 218.755895 
L 377.714075 218.69034 
L 377.92713 218.493688 
L 378.079311 218.428134 
L 378.231493 218.264258 
L 379.418511 216.887678 
L 379.692439 216.330489 
L 379.753311 216.232159 
L 380.635966 214.068955 
L 382.401275 208.038211 
L 382.766511 206.366648 
L 382.918693 205.678359 
L 382.918693 205.678359 
" style="fill:none;stroke:#0000ff;stroke-linecap:square;stroke-width:1.5;"/>
   </g>
   <g id="line2d_26">
    <path clip-path="url(#p662aeed5f2)" d="M 78.555057 157.700377 
L 78.707239 157.733153 
L 78.828984 157.733153 
L 86.772875 157.83148 
L 87.016366 157.847868 
L 87.198984 157.864256 
L 99.738766 157.962583 
L 100.012693 157.995359 
L 100.195311 158.011747 
L 100.743166 158.110074 
L 101.260584 158.290341 
L 101.38233 158.339505 
L 102.264984 158.913081 
L 102.63022 159.30639 
L 103.29982 160.158561 
L 103.999857 161.404041 
L 104.152039 161.699023 
L 105.06513 163.927776 
L 105.947784 166.615391 
L 107.165239 170.89263 
L 107.956584 173.842451 
L 108.565311 176.169532 
L 110.361057 182.511646 
L 111.913311 186.379188 
L 113.252511 188.345735 
L 113.43513 188.427675 
L 113.587311 188.493226 
L 114.10473 188.657105 
L 114.896075 188.116305 
L 116.083093 186.018655 
L 116.69182 184.068495 
L 117.970148 178.840758 
L 119.339784 171.679249 
L 120.13113 166.893985 
L 121.013784 161.043507 
L 122.079057 153.341198 
L 125.974911 124.809877 
L 126.979311 119.041339 
L 128.83593 109.634692 
L 129.809893 105.914638 
L 131.08822 102.784548 
L 131.51433 102.178198 
L 132.792657 99.687241 
L 133.066584 99.42503 
L 134.223166 98.310653 
L 134.77102 98.212331 
L 135.10582 97.917349 
L 135.562366 97.573198 
L 135.897166 97.655143 
L 136.049348 97.671528 
L 136.323275 97.704304 
L 136.901566 97.507652 
L 137.175493 97.605974 
L 138.514693 99.195602 
L 138.849493 100.178876 
L 139.853893 103.784209 
L 140.55393 106.848748 
L 142.47142 116.681483 
L 143.688875 125.252351 
L 146.306402 145.819156 
L 147.310802 154.816108 
L 148.802184 168.942471 
L 151.906693 197.965428 
L 153.702439 212.517876 
L 155.346002 222.416166 
L 156.015602 225.152944 
L 157.20262 228.627177 
L 157.598293 229.381017 
L 158.115711 230.020142 
L 158.450511 230.085697 
L 158.63313 230.036533 
L 158.87662 229.954596 
L 159.059239 229.889042 
L 159.333166 229.790715 
L 159.728839 229.462957 
L 160.794111 227.545571 
L 161.55502 225.18572 
L 162.346366 222.28506 
L 163.594257 215.713513 
L 164.811711 207.12626 
L 166.211784 195.76945 
L 167.459675 184.756786 
L 168.646693 174.8585 
L 171.629457 154.734169 
L 172.451239 150.866626 
L 174.03393 146.09775 
L 174.794839 144.704778 
L 175.007893 144.475348 
L 175.251384 144.344245 
L 176.468839 145.098088 
L 176.925384 146.01581 
L 178.05153 149.342552 
L 179.512475 156.110751 
L 180.425566 160.420767 
L 181.034293 163.141157 
L 181.825639 167.500337 
L 184.443166 182.347767 
L 185.721493 188.00159 
L 187.33462 192.033011 
L 188.247711 192.868794 
L 188.917311 193.114612 
L 189.191239 193.016285 
L 189.647784 192.655751 
L 190.10433 192.016623 
L 190.34782 191.459435 
L 191.230475 188.247408 
L 191.900075 185.313976 
L 194.03062 174.481578 
L 197.743857 149.785025 
L 200.422257 127.251673 
L 202.887602 105.685207 
L 205.535566 86.544149 
L 206.479093 82.938816 
L 207.696548 79.366253 
L 208.822693 77.203053 
L 209.066184 77.104718 
L 209.948839 76.727805 
L 210.374948 77.055557 
L 211.683711 79.366253 
L 211.957639 80.202038 
L 213.235966 84.692318 
L 214.057748 88.199326 
L 215.944802 97.884571 
L 219.47542 121.401196 
L 220.205893 126.071745 
L 224.223493 149.211449 
L 227.023639 163.698346 
L 230.797748 179.479886 
L 232.715239 187.133031 
L 234.87622 196.916603 
L 235.698002 200.75137 
L 238.072039 209.273074 
L 239.502548 212.108179 
L 241.633093 214.271378 
L 241.846148 214.369708 
L 242.57662 214.648305 
L 242.880984 214.730242 
L 243.063602 214.795796 
L 243.367966 214.894121 
L 244.58542 215.647966 
L 244.859348 215.893779 
L 245.58982 216.532912 
L 245.802875 216.631237 
L 246.01593 216.778728 
L 249.455239 218.745273 
L 250.124839 219.318852 
L 250.520511 219.646609 
L 252.590184 222.80947 
L 252.71193 222.989739 
L 253.198911 223.66164 
L 255.63382 227.39808 
L 256.30342 227.988044 
L 256.455602 228.086374 
L 257.825239 228.709114 
L 258.190475 228.627177 
L 258.40353 228.528847 
L 258.829639 228.184704 
L 259.164439 227.676677 
L 259.590548 226.79173 
L 260.07753 225.497087 
L 260.777566 222.891415 
L 261.599348 218.876378 
L 262.451566 213.173395 
L 263.303784 205.946332 
L 264.76473 190.754756 
L 266.01262 174.694621 
L 268.417093 136.773039 
L 273.317348 59.340246 
L 274.686984 43.001523 
L 276.05662 31.431665 
L 276.787093 27.072486 
L 277.243639 24.991229 
L 277.73062 23.56548 
L 278.369784 22.434713 
L 278.582839 22.336391 
L 278.765457 22.352781 
L 279.06982 22.631373 
L 279.374184 23.106621 
L 279.800293 23.991568 
L 280.287275 25.597573 
L 281.109057 29.612609 
L 281.565602 32.349393 
L 282.539566 39.887823 
L 284.061384 54.81719 
L 285.43102 70.729836 
L 288.231166 106.783194 
L 291.426984 148.310115 
L 293.314039 170.319054 
L 294.348875 180.823694 
L 296.540293 199.866424 
L 298.366475 213.73058 
L 299.462184 220.875701 
L 300.405711 226.267318 
L 301.470984 231.429501 
L 303.205857 237.574966 
L 303.723275 238.427136 
L 304.362439 238.656564 
L 304.51462 238.591013 
L 304.758111 238.394358 
L 305.792948 237.148878 
L 306.371239 235.903396 
L 306.553857 235.559253 
L 306.94953 234.739858 
L 308.714839 228.692723 
L 311.423675 216.549298 
L 312.671566 209.22391 
L 313.432475 204.078112 
L 317.937057 170.958182 
L 318.941457 164.698007 
L 320.25022 157.585662 
L 321.711166 151.046893 
L 322.715566 147.687375 
L 323.172111 146.55661 
L 324.511311 143.91816 
L 324.663493 143.737893 
L 326.185311 141.459976 
L 326.489675 141.181382 
L 327.007093 140.771685 
L 327.311457 140.689745 
L 327.463639 140.624194 
L 328.741966 140.03423 
L 328.894148 140.001453 
L 329.076766 139.919514 
L 329.228948 139.886738 
L 329.898548 139.64092 
L 330.111602 139.542593 
L 331.481239 138.706811 
L 331.72473 138.493767 
L 331.846475 138.395441 
L 333.39873 136.576383 
L 334.890111 133.970708 
L 336.868475 129.447651 
L 338.207675 125.481781 
L 340.642584 119.237994 
L 342.377457 116.615929 
L 342.590511 116.402891 
L 342.925311 116.042355 
L 343.077493 115.960418 
L 343.412293 115.747373 
L 344.081893 115.812927 
L 344.264511 115.92764 
L 344.386257 115.993194 
L 345.512402 118.008902 
L 347.03422 122.417245 
L 349.286511 131.315871 
L 350.564839 138.051294 
L 351.630111 144.360633 
L 353.547602 157.012086 
L 355.038984 167.352845 
L 356.560802 177.988588 
L 359.391384 194.097885 
L 360.365348 197.834325 
L 361.339311 200.620267 
L 362.617639 203.750354 
L 363.956839 205.733292 
L 365.082984 206.224926 
L 365.78302 206.126598 
L 366.056948 205.979107 
L 366.45262 205.651347 
L 367.183093 204.274767 
L 368.035311 202.193504 
L 369.496257 197.113258 
L 370.104984 194.032334 
L 371.170257 187.722995 
L 372.022475 182.495258 
L 372.874693 177.300296 
L 375.674839 158.503384 
L 376.618366 152.226821 
L 379.388075 133.610176 
L 380.483784 127.251673 
L 381.427311 122.318918 
L 382.583893 117.255062 
L 382.918693 115.944028 
L 382.918693 115.944028 
" style="fill:none;stroke:#ff0000;stroke-linecap:square;stroke-width:1.5;"/>
   </g>
   <g id="line2d_27">
    <path clip-path="url(#p662aeed5f2)" d="M 126.73582 166.117985 
" style="fill:none;stroke:#ffffff;stroke-linecap:square;stroke-width:1.5;"/>
    <defs>
     <path d="M 0 -5 
L -1.12257 -1.545085 
L -4.755283 -1.545085 
L -1.816356 0.59017 
L -2.938926 4.045085 
L -0 1.90983 
L 2.938926 4.045085 
L 1.816356 0.59017 
L 4.755283 -1.545085 
L 1.12257 -1.545085 
z
" id="m0ca981f33a" style="stroke:#ffffff;stroke-linejoin:bevel;"/>
    </defs>
    <g clip-path="url(#p662aeed5f2)">
     <use style="fill:#0000ff;stroke:#ffffff;stroke-linejoin:bevel;" x="126.73582" xlink:href="#m0ca981f33a" y="166.117985"/>
    </g>
   </g>
   <g id="line2d_28">
    <path clip-path="url(#p662aeed5f2)" d="M 105.278184 164.534128 
" style="fill:none;stroke:#ffffff;stroke-linecap:square;stroke-width:1.5;"/>
    <defs>
     <path d="M 0 -5 
L -1.12257 -1.545085 
L -4.755283 -1.545085 
L -1.816356 0.59017 
L -2.938926 4.045085 
L -0 1.90983 
L 2.938926 4.045085 
L 1.816356 0.59017 
L 4.755283 -1.545085 
L 1.12257 -1.545085 
z
" id="m20e88d6faa" style="stroke:#ffffff;stroke-linejoin:bevel;"/>
    </defs>
    <g clip-path="url(#p662aeed5f2)">
     <use style="fill:#ff0000;stroke:#ffffff;stroke-linejoin:bevel;" x="105.278184" xlink:href="#m20e88d6faa" y="164.534128"/>
    </g>
   </g>
   <g id="patch_3">
    <path d="M 63.336875 339.84 
L 63.336875 7.2 
" style="fill:none;stroke:#000000;stroke-linecap:square;stroke-linejoin:miter;stroke-width:0.8;"/>
   </g>
   <g id="patch_4">
    <path d="M 398.136875 339.84 
L 398.136875 7.2 
" style="fill:none;stroke:#000000;stroke-linecap:square;stroke-linejoin:miter;stroke-width:0.8;"/>
   </g>
   <g id="patch_5">
    <path d="M 63.336875 339.84 
L 398.136875 339.84 
" style="fill:none;stroke:#000000;stroke-linecap:square;stroke-linejoin:miter;stroke-width:0.8;"/>
   </g>
   <g id="patch_6">
    <path d="M 63.336875 7.2 
L 398.136875 7.2 
" style="fill:none;stroke:#000000;stroke-linecap:square;stroke-linejoin:miter;stroke-width:0.8;"/>
   </g>
   <g id="text_15">
    <g id="patch_7">
     <path d="M 75.036875 331.242688 
L 166.79375 331.242688 
L 166.79375 293.760312 
L 75.036875 293.760312 
z
" style="fill:#ffffff;stroke:#000000;stroke-linejoin:miter;stroke-width:0.75;"/>
    </g>
    <!-- Auto_00075 -->
    <g transform="translate(80.076875 308.521562)scale(0.14 -0.14)">
     <defs>
      <path d="M 2928 1419 
L 1288 1419 
L 1000 750 
Q 894 503 894 381 
Q 894 284 986 211 
Q 1078 138 1384 116 
L 1384 0 
L 50 0 
L 50 116 
Q 316 163 394 238 
Q 553 388 747 847 
L 2238 4334 
L 2347 4334 
L 3822 809 
Q 4000 384 4145 257 
Q 4291 131 4550 116 
L 4550 0 
L 2878 0 
L 2878 116 
Q 3131 128 3220 200 
Q 3309 272 3309 375 
Q 3309 513 3184 809 
L 2928 1419 
z
M 2841 1650 
L 2122 3363 
L 1384 1650 
L 2841 1650 
z
" id="TimesNewRomanPSMT-41" transform="scale(0.015625)"/>
      <path d="M 2709 2863 
L 2709 1128 
Q 2709 631 2732 520 
Q 2756 409 2807 365 
Q 2859 322 2928 322 
Q 3025 322 3147 375 
L 3191 266 
L 2334 -88 
L 2194 -88 
L 2194 519 
Q 1825 119 1631 15 
Q 1438 -88 1222 -88 
Q 981 -88 804 51 
Q 628 191 559 409 
Q 491 628 491 1028 
L 491 2306 
Q 491 2509 447 2587 
Q 403 2666 317 2708 
Q 231 2750 6 2747 
L 6 2863 
L 1009 2863 
L 1009 947 
Q 1009 547 1148 422 
Q 1288 297 1484 297 
Q 1619 297 1789 381 
Q 1959 466 2194 703 
L 2194 2325 
Q 2194 2569 2105 2655 
Q 2016 2741 1734 2747 
L 1734 2863 
L 2709 2863 
z
" id="TimesNewRomanPSMT-75" transform="scale(0.015625)"/>
      <path d="M 3256 -1381 
L -53 -1381 
L -53 -1119 
L 3256 -1119 
L 3256 -1381 
z
" id="TimesNewRomanPSMT-5f" transform="scale(0.015625)"/>
      <path d="M 644 4238 
L 2916 4238 
L 2916 4119 
L 1503 -88 
L 1153 -88 
L 2419 3728 
L 1253 3728 
Q 900 3728 750 3644 
Q 488 3500 328 3200 
L 238 3234 
L 644 4238 
z
" id="TimesNewRomanPSMT-37" transform="scale(0.015625)"/>
     </defs>
     <use xlink:href="#TimesNewRomanPSMT-41"/>
     <use x="72.216797" xlink:href="#TimesNewRomanPSMT-75"/>
     <use x="122.216797" xlink:href="#TimesNewRomanPSMT-74"/>
     <use x="150" xlink:href="#TimesNewRomanPSMT-6f"/>
     <use x="200" xlink:href="#TimesNewRomanPSMT-5f"/>
     <use x="250" xlink:href="#TimesNewRomanPSMT-30"/>
     <use x="300" xlink:href="#TimesNewRomanPSMT-30"/>
     <use x="350" xlink:href="#TimesNewRomanPSMT-30"/>
     <use x="400" xlink:href="#TimesNewRomanPSMT-37"/>
     <use x="450" xlink:href="#TimesNewRomanPSMT-35"/>
    </g>
    <!-- Vs: 283.54m/s -->
    <g transform="translate(80.076875 323.208)scale(0.14 -0.14)">
     <defs>
      <path d="M 903 2950 
Q 1047 2950 1148 2848 
Q 1250 2747 1250 2603 
Q 1250 2459 1148 2357 
Q 1047 2256 903 2256 
Q 759 2256 657 2357 
Q 556 2459 556 2603 
Q 556 2747 657 2848 
Q 759 2950 903 2950 
z
M 897 609 
Q 1044 609 1145 506 
Q 1247 403 1247 259 
Q 1247 116 1144 14 
Q 1041 -88 897 -88 
Q 753 -88 651 14 
Q 550 116 550 259 
Q 550 403 651 506 
Q 753 609 897 609 
z
" id="TimesNewRomanPSMT-3a" transform="scale(0.015625)"/>
      <path d="M 1228 2134 
Q 725 2547 579 2797 
Q 434 3047 434 3316 
Q 434 3728 753 4026 
Q 1072 4325 1600 4325 
Q 2113 4325 2425 4047 
Q 2738 3769 2738 3413 
Q 2738 3175 2569 2928 
Q 2400 2681 1866 2347 
Q 2416 1922 2594 1678 
Q 2831 1359 2831 1006 
Q 2831 559 2490 242 
Q 2150 -75 1597 -75 
Q 994 -75 656 303 
Q 388 606 388 966 
Q 388 1247 577 1523 
Q 766 1800 1228 2134 
z
M 1719 2469 
Q 2094 2806 2194 3001 
Q 2294 3197 2294 3444 
Q 2294 3772 2109 3958 
Q 1925 4144 1606 4144 
Q 1288 4144 1088 3959 
Q 888 3775 888 3528 
Q 888 3366 970 3203 
Q 1053 3041 1206 2894 
L 1719 2469 
z
M 1375 2016 
Q 1116 1797 991 1539 
Q 866 1281 866 981 
Q 866 578 1086 336 
Q 1306 94 1647 94 
Q 1984 94 2187 284 
Q 2391 475 2391 747 
Q 2391 972 2272 1150 
Q 2050 1481 1375 2016 
z
" id="TimesNewRomanPSMT-38" transform="scale(0.015625)"/>
      <path d="M 1794 4444 
L 259 -88 
L 9 -88 
L 1544 4444 
L 1794 4444 
z
" id="TimesNewRomanPSMT-2f" transform="scale(0.015625)"/>
     </defs>
     <use xlink:href="#TimesNewRomanPSMT-56"/>
     <use x="72.216797" xlink:href="#TimesNewRomanPSMT-73"/>
     <use x="111.132812" xlink:href="#TimesNewRomanPSMT-3a"/>
     <use x="138.916016" xlink:href="#TimesNewRomanPSMT-20"/>
     <use x="163.916016" xlink:href="#TimesNewRomanPSMT-32"/>
     <use x="213.916016" xlink:href="#TimesNewRomanPSMT-38"/>
     <use x="263.916016" xlink:href="#TimesNewRomanPSMT-33"/>
     <use x="313.916016" xlink:href="#TimesNewRomanPSMT-2e"/>
     <use x="338.916016" xlink:href="#TimesNewRomanPSMT-35"/>
     <use x="388.916016" xlink:href="#TimesNewRomanPSMT-34"/>
     <use x="438.916016" xlink:href="#TimesNewRomanPSMT-6d"/>
     <use x="516.699219" xlink:href="#TimesNewRomanPSMT-2f"/>
     <use x="544.482422" xlink:href="#TimesNewRomanPSMT-73"/>
    </g>
   </g>
  </g>
 </g>
 <defs>
  <clipPath id="p662aeed5f2">
   <rect height="332.64" width="334.8" x="63.336875" y="7.2"/>
  </clipPath>
 </defs>
</svg>
