<?xml version="1.0" encoding="utf-8" standalone="no"?>
<!DOCTYPE svg PUBLIC "-//W3C//DTD SVG 1.1//EN"
  "http://www.w3.org/Graphics/SVG/1.1/DTD/svg11.dtd">
<svg height="383.471875pt" version="1.1" viewBox="0 0 421.086875 383.471875" width="421.086875pt" xmlns="http://www.w3.org/2000/svg" xmlns:xlink="http://www.w3.org/1999/xlink">
 <metadata>
  <rdf:RDF xmlns:cc="http://creativecommons.org/ns#" xmlns:dc="http://purl.org/dc/elements/1.1/" xmlns:rdf="http://www.w3.org/1999/02/22-rdf-syntax-ns#">
   <cc:Work>
    <dc:type rdf:resource="http://purl.org/dc/dcmitype/StillImage"/>
    <dc:date>2021-06-11T14:39:38.669163</dc:date>
    <dc:format>image/svg+xml</dc:format>
    <dc:creator>
     <cc:Agent>
      <dc:title>Matplotlib v3.4.2, https://matplotlib.org/</dc:title>
     </cc:Agent>
    </dc:creator>
   </cc:Work>
  </rdf:RDF>
 </metadata>
 <defs>
  <style type="text/css">*{stroke-linecap:butt;stroke-linejoin:round;}</style>
 </defs>
 <g id="figure_1">
  <g id="patch_1">
   <path d="M 0 383.471875 
L 421.086875 383.471875 
L 421.086875 0 
L 0 0 
z
" style="fill:#ffffff;"/>
  </g>
  <g id="axes_1">
   <g id="patch_2">
    <path d="M 63.336875 339.84 
L 398.136875 339.84 
L 398.136875 7.2 
L 63.336875 7.2 
z
" style="fill:#ffffff;"/>
   </g>
   <g id="matplotlib.axis_1">
    <g id="xtick_1">
     <g id="line2d_1">
      <path clip-path="url(#p97bda9f23b)" d="M 93.773239 339.84 
L 93.773239 7.2 
" style="fill:none;stroke:#000000;stroke-dasharray:0.5,0.825;stroke-dashoffset:0;stroke-width:0.5;"/>
     </g>
     <g id="line2d_2">
      <defs>
       <path d="M 0 0 
L 0 3.5 
" id="m5aa5dee4de" style="stroke:#000000;stroke-width:0.8;"/>
      </defs>
      <g>
       <use style="stroke:#000000;stroke-width:0.8;" x="93.773239" xlink:href="#m5aa5dee4de" y="339.84"/>
      </g>
     </g>
     <g id="text_1">
      <!-- 0.000 -->
      <g transform="translate(78.023239 356.56125)scale(0.14 -0.14)">
       <defs>
        <path d="M 231 2094 
Q 231 2819 450 3342 
Q 669 3866 1031 4122 
Q 1313 4325 1613 4325 
Q 2100 4325 2488 3828 
Q 2972 3213 2972 2159 
Q 2972 1422 2759 906 
Q 2547 391 2217 158 
Q 1888 -75 1581 -75 
Q 975 -75 572 641 
Q 231 1244 231 2094 
z
M 844 2016 
Q 844 1141 1059 588 
Q 1238 122 1591 122 
Q 1759 122 1940 273 
Q 2122 425 2216 781 
Q 2359 1319 2359 2297 
Q 2359 3022 2209 3506 
Q 2097 3866 1919 4016 
Q 1791 4119 1609 4119 
Q 1397 4119 1231 3928 
Q 1006 3669 925 3112 
Q 844 2556 844 2016 
z
" id="TimesNewRomanPSMT-30" transform="scale(0.015625)"/>
        <path d="M 800 606 
Q 947 606 1047 504 
Q 1147 403 1147 259 
Q 1147 116 1045 14 
Q 944 -88 800 -88 
Q 656 -88 554 14 
Q 453 116 453 259 
Q 453 406 554 506 
Q 656 606 800 606 
z
" id="TimesNewRomanPSMT-2e" transform="scale(0.015625)"/>
       </defs>
       <use xlink:href="#TimesNewRomanPSMT-30"/>
       <use x="50" xlink:href="#TimesNewRomanPSMT-2e"/>
       <use x="75" xlink:href="#TimesNewRomanPSMT-30"/>
       <use x="125" xlink:href="#TimesNewRomanPSMT-30"/>
       <use x="175" xlink:href="#TimesNewRomanPSMT-30"/>
      </g>
     </g>
    </g>
    <g id="xtick_2">
     <g id="line2d_3">
      <path clip-path="url(#p97bda9f23b)" d="M 154.645966 339.84 
L 154.645966 7.2 
" style="fill:none;stroke:#000000;stroke-dasharray:0.5,0.825;stroke-dashoffset:0;stroke-width:0.5;"/>
     </g>
     <g id="line2d_4">
      <g>
       <use style="stroke:#000000;stroke-width:0.8;" x="154.645966" xlink:href="#m5aa5dee4de" y="339.84"/>
      </g>
     </g>
     <g id="text_2">
      <!-- 0.001 -->
      <g transform="translate(138.895966 356.56125)scale(0.14 -0.14)">
       <defs>
        <path d="M 750 3822 
L 1781 4325 
L 1884 4325 
L 1884 747 
Q 1884 391 1914 303 
Q 1944 216 2037 169 
Q 2131 122 2419 116 
L 2419 0 
L 825 0 
L 825 116 
Q 1125 122 1212 167 
Q 1300 213 1334 289 
Q 1369 366 1369 747 
L 1369 3034 
Q 1369 3497 1338 3628 
Q 1316 3728 1258 3775 
Q 1200 3822 1119 3822 
Q 1003 3822 797 3725 
L 750 3822 
z
" id="TimesNewRomanPSMT-31" transform="scale(0.015625)"/>
       </defs>
       <use xlink:href="#TimesNewRomanPSMT-30"/>
       <use x="50" xlink:href="#TimesNewRomanPSMT-2e"/>
       <use x="75" xlink:href="#TimesNewRomanPSMT-30"/>
       <use x="125" xlink:href="#TimesNewRomanPSMT-30"/>
       <use x="175" xlink:href="#TimesNewRomanPSMT-31"/>
      </g>
     </g>
    </g>
    <g id="xtick_3">
     <g id="line2d_5">
      <path clip-path="url(#p97bda9f23b)" d="M 215.518693 339.84 
L 215.518693 7.2 
" style="fill:none;stroke:#000000;stroke-dasharray:0.5,0.825;stroke-dashoffset:0;stroke-width:0.5;"/>
     </g>
     <g id="line2d_6">
      <g>
       <use style="stroke:#000000;stroke-width:0.8;" x="215.518693" xlink:href="#m5aa5dee4de" y="339.84"/>
      </g>
     </g>
     <g id="text_3">
      <!-- 0.002 -->
      <g transform="translate(199.768693 356.56125)scale(0.14 -0.14)">
       <defs>
        <path d="M 2934 816 
L 2638 0 
L 138 0 
L 138 116 
Q 1241 1122 1691 1759 
Q 2141 2397 2141 2925 
Q 2141 3328 1894 3587 
Q 1647 3847 1303 3847 
Q 991 3847 742 3664 
Q 494 3481 375 3128 
L 259 3128 
Q 338 3706 661 4015 
Q 984 4325 1469 4325 
Q 1984 4325 2329 3994 
Q 2675 3663 2675 3213 
Q 2675 2891 2525 2569 
Q 2294 2063 1775 1497 
Q 997 647 803 472 
L 1909 472 
Q 2247 472 2383 497 
Q 2519 522 2628 598 
Q 2738 675 2819 816 
L 2934 816 
z
" id="TimesNewRomanPSMT-32" transform="scale(0.015625)"/>
       </defs>
       <use xlink:href="#TimesNewRomanPSMT-30"/>
       <use x="50" xlink:href="#TimesNewRomanPSMT-2e"/>
       <use x="75" xlink:href="#TimesNewRomanPSMT-30"/>
       <use x="125" xlink:href="#TimesNewRomanPSMT-30"/>
       <use x="175" xlink:href="#TimesNewRomanPSMT-32"/>
      </g>
     </g>
    </g>
    <g id="xtick_4">
     <g id="line2d_7">
      <path clip-path="url(#p97bda9f23b)" d="M 276.39142 339.84 
L 276.39142 7.2 
" style="fill:none;stroke:#000000;stroke-dasharray:0.5,0.825;stroke-dashoffset:0;stroke-width:0.5;"/>
     </g>
     <g id="line2d_8">
      <g>
       <use style="stroke:#000000;stroke-width:0.8;" x="276.39142" xlink:href="#m5aa5dee4de" y="339.84"/>
      </g>
     </g>
     <g id="text_4">
      <!-- 0.003 -->
      <g transform="translate(260.64142 356.56125)scale(0.14 -0.14)">
       <defs>
        <path d="M 325 3431 
Q 506 3859 782 4092 
Q 1059 4325 1472 4325 
Q 1981 4325 2253 3994 
Q 2459 3747 2459 3466 
Q 2459 3003 1878 2509 
Q 2269 2356 2469 2072 
Q 2669 1788 2669 1403 
Q 2669 853 2319 450 
Q 1863 -75 997 -75 
Q 569 -75 414 31 
Q 259 138 259 259 
Q 259 350 332 419 
Q 406 488 509 488 
Q 588 488 669 463 
Q 722 447 909 348 
Q 1097 250 1169 231 
Q 1284 197 1416 197 
Q 1734 197 1970 444 
Q 2206 691 2206 1028 
Q 2206 1275 2097 1509 
Q 2016 1684 1919 1775 
Q 1784 1900 1550 2001 
Q 1316 2103 1072 2103 
L 972 2103 
L 972 2197 
Q 1219 2228 1467 2375 
Q 1716 2522 1828 2728 
Q 1941 2934 1941 3181 
Q 1941 3503 1739 3701 
Q 1538 3900 1238 3900 
Q 753 3900 428 3381 
L 325 3431 
z
" id="TimesNewRomanPSMT-33" transform="scale(0.015625)"/>
       </defs>
       <use xlink:href="#TimesNewRomanPSMT-30"/>
       <use x="50" xlink:href="#TimesNewRomanPSMT-2e"/>
       <use x="75" xlink:href="#TimesNewRomanPSMT-30"/>
       <use x="125" xlink:href="#TimesNewRomanPSMT-30"/>
       <use x="175" xlink:href="#TimesNewRomanPSMT-33"/>
      </g>
     </g>
    </g>
    <g id="xtick_5">
     <g id="line2d_9">
      <path clip-path="url(#p97bda9f23b)" d="M 337.264148 339.84 
L 337.264148 7.2 
" style="fill:none;stroke:#000000;stroke-dasharray:0.5,0.825;stroke-dashoffset:0;stroke-width:0.5;"/>
     </g>
     <g id="line2d_10">
      <g>
       <use style="stroke:#000000;stroke-width:0.8;" x="337.264148" xlink:href="#m5aa5dee4de" y="339.84"/>
      </g>
     </g>
     <g id="text_5">
      <!-- 0.004 -->
      <g transform="translate(321.514148 356.56125)scale(0.14 -0.14)">
       <defs>
        <path d="M 2978 1563 
L 2978 1119 
L 2409 1119 
L 2409 0 
L 1894 0 
L 1894 1119 
L 100 1119 
L 100 1519 
L 2066 4325 
L 2409 4325 
L 2409 1563 
L 2978 1563 
z
M 1894 1563 
L 1894 3666 
L 406 1563 
L 1894 1563 
z
" id="TimesNewRomanPSMT-34" transform="scale(0.015625)"/>
       </defs>
       <use xlink:href="#TimesNewRomanPSMT-30"/>
       <use x="50" xlink:href="#TimesNewRomanPSMT-2e"/>
       <use x="75" xlink:href="#TimesNewRomanPSMT-30"/>
       <use x="125" xlink:href="#TimesNewRomanPSMT-30"/>
       <use x="175" xlink:href="#TimesNewRomanPSMT-34"/>
      </g>
     </g>
    </g>
    <g id="xtick_6">
     <g id="line2d_11">
      <path clip-path="url(#p97bda9f23b)" d="M 398.136875 339.84 
L 398.136875 7.2 
" style="fill:none;stroke:#000000;stroke-dasharray:0.5,0.825;stroke-dashoffset:0;stroke-width:0.5;"/>
     </g>
     <g id="line2d_12">
      <g>
       <use style="stroke:#000000;stroke-width:0.8;" x="398.136875" xlink:href="#m5aa5dee4de" y="339.84"/>
      </g>
     </g>
     <g id="text_6">
      <!-- 0.005 -->
      <g transform="translate(382.386875 356.56125)scale(0.14 -0.14)">
       <defs>
        <path d="M 2778 4238 
L 2534 3706 
L 1259 3706 
L 981 3138 
Q 1809 3016 2294 2522 
Q 2709 2097 2709 1522 
Q 2709 1188 2573 903 
Q 2438 619 2231 419 
Q 2025 219 1772 97 
Q 1413 -75 1034 -75 
Q 653 -75 479 54 
Q 306 184 306 341 
Q 306 428 378 495 
Q 450 563 559 563 
Q 641 563 702 538 
Q 763 513 909 409 
Q 1144 247 1384 247 
Q 1750 247 2026 523 
Q 2303 800 2303 1197 
Q 2303 1581 2056 1914 
Q 1809 2247 1375 2428 
Q 1034 2569 447 2591 
L 1259 4238 
L 2778 4238 
z
" id="TimesNewRomanPSMT-35" transform="scale(0.015625)"/>
       </defs>
       <use xlink:href="#TimesNewRomanPSMT-30"/>
       <use x="50" xlink:href="#TimesNewRomanPSMT-2e"/>
       <use x="75" xlink:href="#TimesNewRomanPSMT-30"/>
       <use x="125" xlink:href="#TimesNewRomanPSMT-30"/>
       <use x="175" xlink:href="#TimesNewRomanPSMT-35"/>
      </g>
     </g>
    </g>
    <g id="text_7">
     <!-- Time (sec) -->
     <g transform="translate(200.858906 373.277188)scale(0.14 -0.14)">
      <defs>
       <path d="M 3703 4238 
L 3750 3244 
L 3631 3244 
Q 3597 3506 3538 3619 
Q 3441 3800 3280 3886 
Q 3119 3972 2856 3972 
L 2259 3972 
L 2259 734 
Q 2259 344 2344 247 
Q 2463 116 2709 116 
L 2856 116 
L 2856 0 
L 1059 0 
L 1059 116 
L 1209 116 
Q 1478 116 1591 278 
Q 1659 378 1659 734 
L 1659 3972 
L 1150 3972 
Q 853 3972 728 3928 
Q 566 3869 450 3700 
Q 334 3531 313 3244 
L 194 3244 
L 244 4238 
L 3703 4238 
z
" id="TimesNewRomanPSMT-54" transform="scale(0.015625)"/>
       <path d="M 928 4444 
Q 1059 4444 1151 4351 
Q 1244 4259 1244 4128 
Q 1244 3997 1151 3903 
Q 1059 3809 928 3809 
Q 797 3809 703 3903 
Q 609 3997 609 4128 
Q 609 4259 701 4351 
Q 794 4444 928 4444 
z
M 1188 2947 
L 1188 647 
Q 1188 378 1227 289 
Q 1266 200 1342 156 
Q 1419 113 1622 113 
L 1622 0 
L 231 0 
L 231 113 
Q 441 113 512 153 
Q 584 194 626 287 
Q 669 381 669 647 
L 669 1750 
Q 669 2216 641 2353 
Q 619 2453 572 2492 
Q 525 2531 444 2531 
Q 356 2531 231 2484 
L 188 2597 
L 1050 2947 
L 1188 2947 
z
" id="TimesNewRomanPSMT-69" transform="scale(0.015625)"/>
       <path d="M 1050 2338 
Q 1363 2650 1419 2697 
Q 1559 2816 1721 2881 
Q 1884 2947 2044 2947 
Q 2313 2947 2506 2790 
Q 2700 2634 2766 2338 
Q 3088 2713 3309 2830 
Q 3531 2947 3766 2947 
Q 3994 2947 4170 2830 
Q 4347 2713 4450 2447 
Q 4519 2266 4519 1878 
L 4519 647 
Q 4519 378 4559 278 
Q 4591 209 4675 161 
Q 4759 113 4950 113 
L 4950 0 
L 3538 0 
L 3538 113 
L 3597 113 
Q 3781 113 3884 184 
Q 3956 234 3988 344 
Q 4000 397 4000 647 
L 4000 1878 
Q 4000 2228 3916 2372 
Q 3794 2572 3525 2572 
Q 3359 2572 3192 2489 
Q 3025 2406 2788 2181 
L 2781 2147 
L 2788 2013 
L 2788 647 
Q 2788 353 2820 281 
Q 2853 209 2943 161 
Q 3034 113 3253 113 
L 3253 0 
L 1806 0 
L 1806 113 
Q 2044 113 2133 169 
Q 2222 225 2256 338 
Q 2272 391 2272 647 
L 2272 1878 
Q 2272 2228 2169 2381 
Q 2031 2581 1784 2581 
Q 1616 2581 1450 2491 
Q 1191 2353 1050 2181 
L 1050 647 
Q 1050 366 1089 281 
Q 1128 197 1204 155 
Q 1281 113 1516 113 
L 1516 0 
L 100 0 
L 100 113 
Q 297 113 375 155 
Q 453 197 493 289 
Q 534 381 534 647 
L 534 1741 
Q 534 2213 506 2350 
Q 484 2453 437 2492 
Q 391 2531 309 2531 
Q 222 2531 100 2484 
L 53 2597 
L 916 2947 
L 1050 2947 
L 1050 2338 
z
" id="TimesNewRomanPSMT-6d" transform="scale(0.015625)"/>
       <path d="M 681 1784 
Q 678 1147 991 784 
Q 1303 422 1725 422 
Q 2006 422 2214 576 
Q 2422 731 2563 1106 
L 2659 1044 
Q 2594 616 2278 264 
Q 1963 -88 1488 -88 
Q 972 -88 605 314 
Q 238 716 238 1394 
Q 238 2128 614 2539 
Q 991 2950 1559 2950 
Q 2041 2950 2350 2633 
Q 2659 2316 2659 1784 
L 681 1784 
z
M 681 1966 
L 2006 1966 
Q 1991 2241 1941 2353 
Q 1863 2528 1708 2628 
Q 1553 2728 1384 2728 
Q 1125 2728 920 2526 
Q 716 2325 681 1966 
z
" id="TimesNewRomanPSMT-65" transform="scale(0.015625)"/>
       <path id="TimesNewRomanPSMT-20" transform="scale(0.015625)"/>
       <path d="M 1988 -1253 
L 1988 -1369 
Q 1516 -1131 1200 -813 
Q 750 -359 506 256 
Q 263 872 263 1534 
Q 263 2503 741 3301 
Q 1219 4100 1988 4444 
L 1988 4313 
Q 1603 4100 1356 3731 
Q 1109 3363 987 2797 
Q 866 2231 866 1616 
Q 866 947 969 400 
Q 1050 -31 1165 -292 
Q 1281 -553 1476 -793 
Q 1672 -1034 1988 -1253 
z
" id="TimesNewRomanPSMT-28" transform="scale(0.015625)"/>
       <path d="M 2050 2947 
L 2050 1972 
L 1947 1972 
Q 1828 2431 1642 2597 
Q 1456 2763 1169 2763 
Q 950 2763 815 2647 
Q 681 2531 681 2391 
Q 681 2216 781 2091 
Q 878 1963 1175 1819 
L 1631 1597 
Q 2266 1288 2266 781 
Q 2266 391 1970 151 
Q 1675 -88 1309 -88 
Q 1047 -88 709 6 
Q 606 38 541 38 
Q 469 38 428 -44 
L 325 -44 
L 325 978 
L 428 978 
Q 516 541 762 319 
Q 1009 97 1316 97 
Q 1531 97 1667 223 
Q 1803 350 1803 528 
Q 1803 744 1651 891 
Q 1500 1038 1047 1263 
Q 594 1488 453 1669 
Q 313 1847 313 2119 
Q 313 2472 555 2709 
Q 797 2947 1181 2947 
Q 1350 2947 1591 2875 
Q 1750 2828 1803 2828 
Q 1853 2828 1881 2850 
Q 1909 2872 1947 2947 
L 2050 2947 
z
" id="TimesNewRomanPSMT-73" transform="scale(0.015625)"/>
       <path d="M 2631 1088 
Q 2516 522 2178 217 
Q 1841 -88 1431 -88 
Q 944 -88 581 321 
Q 219 731 219 1428 
Q 219 2103 620 2525 
Q 1022 2947 1584 2947 
Q 2006 2947 2278 2723 
Q 2550 2500 2550 2259 
Q 2550 2141 2473 2067 
Q 2397 1994 2259 1994 
Q 2075 1994 1981 2113 
Q 1928 2178 1911 2362 
Q 1894 2547 1784 2644 
Q 1675 2738 1481 2738 
Q 1169 2738 978 2506 
Q 725 2200 725 1697 
Q 725 1184 976 792 
Q 1228 400 1656 400 
Q 1963 400 2206 609 
Q 2378 753 2541 1131 
L 2631 1088 
z
" id="TimesNewRomanPSMT-63" transform="scale(0.015625)"/>
       <path d="M 144 4313 
L 144 4444 
Q 619 4209 934 3891 
Q 1381 3434 1625 2820 
Q 1869 2206 1869 1541 
Q 1869 572 1392 -226 
Q 916 -1025 144 -1369 
L 144 -1253 
Q 528 -1038 776 -670 
Q 1025 -303 1145 264 
Q 1266 831 1266 1447 
Q 1266 2113 1163 2663 
Q 1084 3094 967 3353 
Q 850 3613 656 3853 
Q 463 4094 144 4313 
z
" id="TimesNewRomanPSMT-29" transform="scale(0.015625)"/>
      </defs>
      <use xlink:href="#TimesNewRomanPSMT-54"/>
      <use x="57.583984" xlink:href="#TimesNewRomanPSMT-69"/>
      <use x="85.367188" xlink:href="#TimesNewRomanPSMT-6d"/>
      <use x="163.150391" xlink:href="#TimesNewRomanPSMT-65"/>
      <use x="207.535156" xlink:href="#TimesNewRomanPSMT-20"/>
      <use x="232.535156" xlink:href="#TimesNewRomanPSMT-28"/>
      <use x="265.835938" xlink:href="#TimesNewRomanPSMT-73"/>
      <use x="304.751953" xlink:href="#TimesNewRomanPSMT-65"/>
      <use x="349.136719" xlink:href="#TimesNewRomanPSMT-63"/>
      <use x="393.521484" xlink:href="#TimesNewRomanPSMT-29"/>
     </g>
    </g>
   </g>
   <g id="matplotlib.axis_2">
    <g id="ytick_1">
     <g id="line2d_13">
      <path clip-path="url(#p97bda9f23b)" d="M 63.336875 311.670224 
L 398.136875 311.670224 
" style="fill:none;stroke:#000000;stroke-dasharray:0.5,0.825;stroke-dashoffset:0;stroke-width:0.5;"/>
     </g>
     <g id="line2d_14">
      <defs>
       <path d="M 0 0 
L -3.5 0 
" id="me5c8ff3898" style="stroke:#000000;stroke-width:0.8;"/>
      </defs>
      <g>
       <use style="stroke:#000000;stroke-width:0.8;" x="63.336875" xlink:href="#me5c8ff3898" y="311.670224"/>
      </g>
     </g>
     <g id="text_8">
      <!-- −0.06 -->
      <g transform="translate(23.942188 316.530849)scale(0.14 -0.14)">
       <defs>
        <path d="M 3484 2000 
L 116 2000 
L 116 2256 
L 3484 2256 
L 3484 2000 
z
" id="TimesNewRomanPSMT-2212" transform="scale(0.015625)"/>
        <path d="M 2869 4325 
L 2869 4209 
Q 2456 4169 2195 4045 
Q 1934 3922 1679 3669 
Q 1425 3416 1258 3105 
Q 1091 2794 978 2366 
Q 1428 2675 1881 2675 
Q 2316 2675 2634 2325 
Q 2953 1975 2953 1425 
Q 2953 894 2631 456 
Q 2244 -75 1606 -75 
Q 1172 -75 869 213 
Q 275 772 275 1663 
Q 275 2231 503 2743 
Q 731 3256 1154 3653 
Q 1578 4050 1965 4187 
Q 2353 4325 2688 4325 
L 2869 4325 
z
M 925 2138 
Q 869 1716 869 1456 
Q 869 1156 980 804 
Q 1091 453 1309 247 
Q 1469 100 1697 100 
Q 1969 100 2183 356 
Q 2397 613 2397 1088 
Q 2397 1622 2184 2012 
Q 1972 2403 1581 2403 
Q 1463 2403 1327 2353 
Q 1191 2303 925 2138 
z
" id="TimesNewRomanPSMT-36" transform="scale(0.015625)"/>
       </defs>
       <use xlink:href="#TimesNewRomanPSMT-2212"/>
       <use x="56.396484" xlink:href="#TimesNewRomanPSMT-30"/>
       <use x="106.396484" xlink:href="#TimesNewRomanPSMT-2e"/>
       <use x="131.396484" xlink:href="#TimesNewRomanPSMT-30"/>
       <use x="181.396484" xlink:href="#TimesNewRomanPSMT-36"/>
      </g>
     </g>
    </g>
    <g id="ytick_2">
     <g id="line2d_15">
      <path clip-path="url(#p97bda9f23b)" d="M 63.336875 259.991543 
L 398.136875 259.991543 
" style="fill:none;stroke:#000000;stroke-dasharray:0.5,0.825;stroke-dashoffset:0;stroke-width:0.5;"/>
     </g>
     <g id="line2d_16">
      <g>
       <use style="stroke:#000000;stroke-width:0.8;" x="63.336875" xlink:href="#me5c8ff3898" y="259.991543"/>
      </g>
     </g>
     <g id="text_9">
      <!-- −0.04 -->
      <g transform="translate(23.942188 264.852168)scale(0.14 -0.14)">
       <use xlink:href="#TimesNewRomanPSMT-2212"/>
       <use x="56.396484" xlink:href="#TimesNewRomanPSMT-30"/>
       <use x="106.396484" xlink:href="#TimesNewRomanPSMT-2e"/>
       <use x="131.396484" xlink:href="#TimesNewRomanPSMT-30"/>
       <use x="181.396484" xlink:href="#TimesNewRomanPSMT-34"/>
      </g>
     </g>
    </g>
    <g id="ytick_3">
     <g id="line2d_17">
      <path clip-path="url(#p97bda9f23b)" d="M 63.336875 208.312863 
L 398.136875 208.312863 
" style="fill:none;stroke:#000000;stroke-dasharray:0.5,0.825;stroke-dashoffset:0;stroke-width:0.5;"/>
     </g>
     <g id="line2d_18">
      <g>
       <use style="stroke:#000000;stroke-width:0.8;" x="63.336875" xlink:href="#me5c8ff3898" y="208.312863"/>
      </g>
     </g>
     <g id="text_10">
      <!-- −0.02 -->
      <g transform="translate(23.942188 213.173488)scale(0.14 -0.14)">
       <use xlink:href="#TimesNewRomanPSMT-2212"/>
       <use x="56.396484" xlink:href="#TimesNewRomanPSMT-30"/>
       <use x="106.396484" xlink:href="#TimesNewRomanPSMT-2e"/>
       <use x="131.396484" xlink:href="#TimesNewRomanPSMT-30"/>
       <use x="181.396484" xlink:href="#TimesNewRomanPSMT-32"/>
      </g>
     </g>
    </g>
    <g id="ytick_4">
     <g id="line2d_19">
      <path clip-path="url(#p97bda9f23b)" d="M 63.336875 156.634182 
L 398.136875 156.634182 
" style="fill:none;stroke:#000000;stroke-dasharray:0.5,0.825;stroke-dashoffset:0;stroke-width:0.5;"/>
     </g>
     <g id="line2d_20">
      <g>
       <use style="stroke:#000000;stroke-width:0.8;" x="63.336875" xlink:href="#me5c8ff3898" y="156.634182"/>
      </g>
     </g>
     <g id="text_11">
      <!-- 0.00 -->
      <g transform="translate(31.836875 161.494807)scale(0.14 -0.14)">
       <use xlink:href="#TimesNewRomanPSMT-30"/>
       <use x="50" xlink:href="#TimesNewRomanPSMT-2e"/>
       <use x="75" xlink:href="#TimesNewRomanPSMT-30"/>
       <use x="125" xlink:href="#TimesNewRomanPSMT-30"/>
      </g>
     </g>
    </g>
    <g id="ytick_5">
     <g id="line2d_21">
      <path clip-path="url(#p97bda9f23b)" d="M 63.336875 104.955502 
L 398.136875 104.955502 
" style="fill:none;stroke:#000000;stroke-dasharray:0.5,0.825;stroke-dashoffset:0;stroke-width:0.5;"/>
     </g>
     <g id="line2d_22">
      <g>
       <use style="stroke:#000000;stroke-width:0.8;" x="63.336875" xlink:href="#me5c8ff3898" y="104.955502"/>
      </g>
     </g>
     <g id="text_12">
      <!-- 0.02 -->
      <g transform="translate(31.836875 109.816127)scale(0.14 -0.14)">
       <use xlink:href="#TimesNewRomanPSMT-30"/>
       <use x="50" xlink:href="#TimesNewRomanPSMT-2e"/>
       <use x="75" xlink:href="#TimesNewRomanPSMT-30"/>
       <use x="125" xlink:href="#TimesNewRomanPSMT-32"/>
      </g>
     </g>
    </g>
    <g id="ytick_6">
     <g id="line2d_23">
      <path clip-path="url(#p97bda9f23b)" d="M 63.336875 53.276822 
L 398.136875 53.276822 
" style="fill:none;stroke:#000000;stroke-dasharray:0.5,0.825;stroke-dashoffset:0;stroke-width:0.5;"/>
     </g>
     <g id="line2d_24">
      <g>
       <use style="stroke:#000000;stroke-width:0.8;" x="63.336875" xlink:href="#me5c8ff3898" y="53.276822"/>
      </g>
     </g>
     <g id="text_13">
      <!-- 0.04 -->
      <g transform="translate(31.836875 58.137447)scale(0.14 -0.14)">
       <use xlink:href="#TimesNewRomanPSMT-30"/>
       <use x="50" xlink:href="#TimesNewRomanPSMT-2e"/>
       <use x="75" xlink:href="#TimesNewRomanPSMT-30"/>
       <use x="125" xlink:href="#TimesNewRomanPSMT-34"/>
      </g>
     </g>
    </g>
    <g id="text_14">
     <!-- Volatage (V) -->
     <g transform="translate(16.92125 209.352344)rotate(-90)scale(0.14 -0.14)">
      <defs>
       <path d="M 4544 4238 
L 4544 4122 
Q 4319 4081 4203 3978 
Q 4038 3825 3909 3509 
L 2431 -97 
L 2316 -97 
L 728 3556 
Q 606 3838 556 3900 
Q 478 3997 364 4051 
Q 250 4106 56 4122 
L 56 4238 
L 1788 4238 
L 1788 4122 
Q 1494 4094 1406 4022 
Q 1319 3950 1319 3838 
Q 1319 3681 1463 3350 
L 2541 866 
L 3541 3319 
Q 3688 3681 3688 3822 
Q 3688 3913 3597 3995 
Q 3506 4078 3291 4113 
Q 3275 4116 3238 4122 
L 3238 4238 
L 4544 4238 
z
" id="TimesNewRomanPSMT-56" transform="scale(0.015625)"/>
       <path d="M 1600 2947 
Q 2250 2947 2644 2453 
Q 2978 2031 2978 1484 
Q 2978 1100 2793 706 
Q 2609 313 2286 112 
Q 1963 -88 1566 -88 
Q 919 -88 538 428 
Q 216 863 216 1403 
Q 216 1797 411 2186 
Q 606 2575 925 2761 
Q 1244 2947 1600 2947 
z
M 1503 2744 
Q 1338 2744 1170 2645 
Q 1003 2547 900 2300 
Q 797 2053 797 1666 
Q 797 1041 1045 587 
Q 1294 134 1700 134 
Q 2003 134 2200 384 
Q 2397 634 2397 1244 
Q 2397 2006 2069 2444 
Q 1847 2744 1503 2744 
z
" id="TimesNewRomanPSMT-6f" transform="scale(0.015625)"/>
       <path d="M 1184 4444 
L 1184 647 
Q 1184 378 1223 290 
Q 1263 203 1344 158 
Q 1425 113 1647 113 
L 1647 0 
L 244 0 
L 244 113 
Q 441 113 512 153 
Q 584 194 625 287 
Q 666 381 666 647 
L 666 3247 
Q 666 3731 644 3842 
Q 622 3953 573 3993 
Q 525 4034 450 4034 
Q 369 4034 244 3984 
L 191 4094 
L 1044 4444 
L 1184 4444 
z
" id="TimesNewRomanPSMT-6c" transform="scale(0.015625)"/>
       <path d="M 1822 413 
Q 1381 72 1269 19 
Q 1100 -59 909 -59 
Q 613 -59 420 144 
Q 228 347 228 678 
Q 228 888 322 1041 
Q 450 1253 767 1440 
Q 1084 1628 1822 1897 
L 1822 2009 
Q 1822 2438 1686 2597 
Q 1550 2756 1291 2756 
Q 1094 2756 978 2650 
Q 859 2544 859 2406 
L 866 2225 
Q 866 2081 792 2003 
Q 719 1925 600 1925 
Q 484 1925 411 2006 
Q 338 2088 338 2228 
Q 338 2497 613 2722 
Q 888 2947 1384 2947 
Q 1766 2947 2009 2819 
Q 2194 2722 2281 2516 
Q 2338 2381 2338 1966 
L 2338 994 
Q 2338 584 2353 492 
Q 2369 400 2405 369 
Q 2441 338 2488 338 
Q 2538 338 2575 359 
Q 2641 400 2828 588 
L 2828 413 
Q 2478 -56 2159 -56 
Q 2006 -56 1915 50 
Q 1825 156 1822 413 
z
M 1822 616 
L 1822 1706 
Q 1350 1519 1213 1441 
Q 966 1303 859 1153 
Q 753 1003 753 825 
Q 753 600 887 451 
Q 1022 303 1197 303 
Q 1434 303 1822 616 
z
" id="TimesNewRomanPSMT-61" transform="scale(0.015625)"/>
       <path d="M 1031 3803 
L 1031 2863 
L 1700 2863 
L 1700 2644 
L 1031 2644 
L 1031 788 
Q 1031 509 1111 412 
Q 1191 316 1316 316 
Q 1419 316 1516 380 
Q 1613 444 1666 569 
L 1788 569 
Q 1678 263 1478 108 
Q 1278 -47 1066 -47 
Q 922 -47 784 33 
Q 647 113 581 261 
Q 516 409 516 719 
L 516 2644 
L 63 2644 
L 63 2747 
Q 234 2816 414 2980 
Q 594 3144 734 3369 
Q 806 3488 934 3803 
L 1031 3803 
z
" id="TimesNewRomanPSMT-74" transform="scale(0.015625)"/>
       <path d="M 966 1044 
Q 703 1172 562 1401 
Q 422 1631 422 1909 
Q 422 2334 742 2640 
Q 1063 2947 1563 2947 
Q 1972 2947 2272 2747 
L 2878 2747 
Q 3013 2747 3034 2739 
Q 3056 2731 3066 2713 
Q 3084 2684 3084 2613 
Q 3084 2531 3069 2500 
Q 3059 2484 3036 2475 
Q 3013 2466 2878 2466 
L 2506 2466 
Q 2681 2241 2681 1891 
Q 2681 1491 2375 1206 
Q 2069 922 1553 922 
Q 1341 922 1119 984 
Q 981 866 932 777 
Q 884 688 884 625 
Q 884 572 936 522 
Q 988 472 1138 450 
Q 1225 438 1575 428 
Q 2219 413 2409 384 
Q 2700 344 2873 169 
Q 3047 -6 3047 -263 
Q 3047 -616 2716 -925 
Q 2228 -1381 1444 -1381 
Q 841 -1381 425 -1109 
Q 191 -953 191 -784 
Q 191 -709 225 -634 
Q 278 -519 444 -313 
Q 466 -284 763 25 
Q 600 122 533 198 
Q 466 275 466 372 
Q 466 481 555 628 
Q 644 775 966 1044 
z
M 1509 2797 
Q 1278 2797 1122 2612 
Q 966 2428 966 2047 
Q 966 1553 1178 1281 
Q 1341 1075 1591 1075 
Q 1828 1075 1981 1253 
Q 2134 1431 2134 1813 
Q 2134 2309 1919 2591 
Q 1759 2797 1509 2797 
z
M 934 0 
Q 788 -159 713 -296 
Q 638 -434 638 -550 
Q 638 -700 819 -813 
Q 1131 -1006 1722 -1006 
Q 2284 -1006 2551 -807 
Q 2819 -609 2819 -384 
Q 2819 -222 2659 -153 
Q 2497 -84 2016 -72 
Q 1313 -53 934 0 
z
" id="TimesNewRomanPSMT-67" transform="scale(0.015625)"/>
      </defs>
      <use xlink:href="#TimesNewRomanPSMT-56"/>
      <use x="59.341797" xlink:href="#TimesNewRomanPSMT-6f"/>
      <use x="109.341797" xlink:href="#TimesNewRomanPSMT-6c"/>
      <use x="137.125" xlink:href="#TimesNewRomanPSMT-61"/>
      <use x="181.509766" xlink:href="#TimesNewRomanPSMT-74"/>
      <use x="209.292969" xlink:href="#TimesNewRomanPSMT-61"/>
      <use x="253.677734" xlink:href="#TimesNewRomanPSMT-67"/>
      <use x="303.677734" xlink:href="#TimesNewRomanPSMT-65"/>
      <use x="348.0625" xlink:href="#TimesNewRomanPSMT-20"/>
      <use x="373.0625" xlink:href="#TimesNewRomanPSMT-28"/>
      <use x="406.363281" xlink:href="#TimesNewRomanPSMT-56"/>
      <use x="478.580078" xlink:href="#TimesNewRomanPSMT-29"/>
     </g>
    </g>
   </g>
   <g id="LineCollection_1">
    <path clip-path="url(#p97bda9f23b)" d="M 78.555057 156.634182 
L 382.918693 156.634182 
" style="fill:none;stroke:#1f77b4;stroke-width:1.5;"/>
   </g>
   <g id="line2d_25">
    <path clip-path="url(#p97bda9f23b)" d="M 78.555057 156.635087 
L 78.707239 156.667386 
L 78.889857 156.602788 
L 79.072475 156.635087 
L 87.168548 156.602788 
L 87.198984 156.50589 
L 87.259857 156.602788 
L 92.00793 156.50589 
L 92.129675 156.538189 
L 101.899748 156.635087 
L 102.05193 156.635087 
L 110.482802 156.699685 
L 110.604548 156.731984 
L 112.461166 156.828882 
L 112.613348 156.828882 
L 113.861239 156.925779 
L 114.043857 156.958078 
L 114.804766 157.054976 
L 114.987384 157.087275 
L 115.10913 157.119574 
L 115.717857 157.184173 
L 115.870039 157.248771 
L 116.083093 157.313369 
L 116.904875 157.410267 
L 117.11793 157.474865 
L 117.209239 157.474865 
L 117.239675 157.507164 
L 118.152766 157.604062 
L 118.36582 157.70096 
L 118.518002 157.70096 
L 118.70062 157.733259 
L 119.46153 157.830156 
L 119.613711 157.862455 
L 119.735457 157.862455 
L 119.857202 157.862455 
L 119.978948 157.830156 
L 120.009384 157.862455 
L 120.13113 157.927054 
L 120.161566 157.894755 
L 120.283311 157.894755 
L 120.46593 157.927054 
L 121.318148 158.023951 
L 121.500766 158.08855 
L 121.592075 158.05625 
L 121.622511 158.08855 
L 121.866002 158.185447 
L 122.109493 158.282345 
L 122.413857 158.443841 
L 122.505166 158.443841 
L 122.657348 158.605336 
L 122.687784 158.540738 
L 122.748657 158.605336 
L 123.235639 158.960627 
L 123.418257 159.057525 
L 125.39662 161.318467 
L 127.222802 165.452762 
L 129.41422 172.784674 
L 130.75342 177.984842 
L 131.240402 179.890494 
L 132.336111 184.121685 
L 132.42742 184.380078 
L 133.43182 187.222406 
L 133.614439 187.577697 
L 134.86233 189.967836 
L 135.318875 190.613819 
L 135.592802 190.936811 
L 135.958039 191.162905 
L 136.384148 191.066008 
L 137.327675 189.903237 
L 137.692911 189.063459 
L 137.845093 188.740467 
L 138.423384 187.254705 
L 140.188693 179.309109 
L 141.436584 170.652929 
L 143.90193 148.818686 
L 146.367275 121.493584 
L 150.93273 69.491909 
L 152.058875 59.76986 
L 153.672002 48.594351 
L 154.432911 45.138334 
L 155.28513 42.780497 
L 155.61993 42.328311 
L 155.893857 42.13451 
L 155.924293 42.166807 
L 156.502584 42.231405 
L 157.689602 45.009134 
L 157.993966 46.301104 
L 158.754875 50.887587 
L 159.728839 58.833184 
L 160.428875 65.745208 
L 160.946293 71.688251 
L 163.198584 104.213523 
L 164.750839 132.410706 
L 171.568584 267.64735 
L 172.451239 281.632892 
L 174.003493 301.529184 
L 175.03833 311.38043 
L 175.525311 315.191741 
L 175.981857 318.195561 
L 177.442802 323.977111 
L 178.234148 324.72 
L 178.264584 324.687696 
L 178.477639 324.623105 
L 179.360293 322.491352 
L 180.486439 317.226589 
L 182.221311 303.564032 
L 183.286584 291.096553 
L 184.443166 275.011562 
L 185.721493 255.179868 
L 187.060693 232.150561 
L 192.508802 130.182062 
L 194.03062 106.151478 
L 197.13513 68.00615 
L 197.896039 60.997231 
L 200.026584 48.109858 
L 201.122293 43.943267 
L 201.791893 42.13451 
L 203.100657 40.842541 
L 203.131093 40.874845 
L 203.861566 40.97174 
L 204.013748 41.036341 
L 204.044184 41.004037 
L 204.16593 41.004037 
L 204.774657 41.811514 
L 205.048584 42.328311 
L 205.992111 44.589253 
L 207.300875 49.111135 
L 208.548766 54.860391 
L 209.553166 60.545046 
L 210.19233 64.453238 
L 210.557566 66.649582 
L 211.835893 74.013794 
L 218.836257 117.876076 
L 220.845057 129.08389 
L 221.210293 131.05414 
L 221.940766 134.639348 
L 226.93233 161.706057 
L 228.484584 172.267888 
L 229.641166 181.150161 
L 230.462948 188.062184 
L 232.62393 207.312493 
L 236.124111 243.293771 
L 238.254657 260.444641 
L 239.593857 268.261039 
L 240.080839 270.263583 
L 240.537384 271.490954 
L 240.963493 272.492231 
L 241.024366 272.589123 
L 241.23742 272.782924 
L 241.480911 272.912123 
L 241.693966 272.847522 
L 242.120075 272.782924 
L 242.302693 272.62143 
L 242.394002 272.524525 
L 242.57662 272.201538 
L 242.972293 271.26486 
L 243.124475 270.941873 
L 243.854948 269.165411 
L 244.220184 267.808853 
L 245.102839 263.609955 
L 245.863748 258.0545 
L 246.624657 251.594662 
L 249.02913 224.915543 
L 250.185711 210.122521 
L 252.072766 184.735369 
L 253.107602 170.975921 
L 254.233748 156.538189 
L 255.63382 140.097909 
L 257.125202 125.369485 
L 258.951384 112.579012 
L 259.438366 110.027377 
L 259.773166 108.34782 
L 260.442766 105.376293 
L 261.051493 103.276849 
L 261.41673 102.243273 
L 261.812402 101.338901 
L 261.873275 101.242001 
L 262.177639 100.757516 
L 262.482002 100.305325 
L 262.512439 100.337624 
L 262.573311 100.240724 
L 262.75593 100.046932 
L 262.877675 100.014633 
L 263.242911 99.788538 
L 263.608148 99.691638 
L 263.790766 99.659344 
L 263.973384 99.691638 
L 264.125566 99.659344 
L 264.277748 99.723937 
L 264.521239 99.788538 
L 264.703857 99.917738 
L 264.886475 100.014633 
L 265.34302 100.337624 
L 265.525639 100.434522 
L 265.76913 100.692915 
L 266.164802 101.2743 
L 266.377857 101.597295 
L 266.743093 102.114079 
L 267.047457 102.598567 
L 268.873639 106.732864 
L 269.36062 107.960227 
L 269.482366 108.21862 
L 270.060657 109.704385 
L 270.45633 110.802554 
L 270.973748 112.514411 
L 271.217239 113.289596 
L 271.825966 115.582832 
L 272.282511 117.423888 
L 272.860802 119.620232 
L 273.71302 122.785551 
L 273.986948 123.62533 
L 274.443493 125.078793 
L 275.81313 129.08389 
L 275.934875 129.374583 
L 276.543602 130.957242 
L 276.634911 131.183337 
L 277.243639 132.765996 
L 277.639311 133.83187 
L 277.943675 134.671648 
L 278.521966 136.125109 
L 278.73502 136.706495 
L 279.130693 137.610873 
L 282.448257 144.910486 
L 282.813493 145.750265 
L 283.026548 146.105556 
L 283.239602 146.557744 
L 283.300475 146.590044 
L 283.574402 147.10683 
L 284.244002 148.2696 
L 284.85273 149.07708 
L 285.126657 149.432371 
L 285.217966 149.529268 
L 285.613639 149.787662 
L 285.978875 149.884559 
L 286.161493 149.916858 
L 286.557166 149.819961 
L 286.831093 149.690764 
L 286.983275 149.593867 
L 287.226766 149.335473 
L 287.744184 148.624891 
L 288.261602 147.752813 
L 288.322475 147.688215 
L 288.687711 146.848436 
L 288.839893 146.525445 
L 289.20513 145.685666 
L 289.387748 145.330375 
L 289.692111 144.490597 
L 289.996475 143.61852 
L 290.392148 142.423449 
L 290.848693 141.196081 
L 292.279202 136.997187 
L 292.522693 136.222009 
L 293.161857 134.542452 
L 293.587966 133.379681 
L 294.196693 131.797021 
L 295.14022 130.052866 
L 296.205493 129.08389 
L 296.47942 128.986993 
L 296.631602 128.954694 
L 296.722911 128.954694 
L 296.844657 128.890095 
L 296.996839 128.954694 
L 298.275166 130.472755 
L 298.731711 131.667824 
L 299.15782 132.992091 
L 299.401311 133.76727 
L 300.740511 139.936413 
L 301.470984 144.3937 
L 301.897093 147.10683 
L 302.59713 152.274698 
L 305.062475 174.108941 
L 305.732075 180.665673 
L 309.080075 211.640585 
L 309.354002 214.06302 
L 310.845384 225.787621 
L 311.54542 230.083411 
L 312.154148 233.281032 
L 313.462911 238.384302 
L 314.497748 240.322247 
L 314.64993 240.41915 
L 314.923857 240.548339 
L 315.045602 240.483748 
L 315.22822 240.354552 
L 315.715202 239.676272 
L 316.202184 238.868782 
L 316.23262 238.868782 
L 316.536984 238.06131 
L 316.780475 237.318424 
L 317.267457 235.703468 
L 317.480511 234.992889 
L 319.367566 224.431058 
L 320.25022 217.874326 
L 320.706766 214.289112 
L 323.93302 185.995037 
L 324.541748 180.181187 
L 325.515711 171.008219 
L 329.62462 137.029487 
L 333.703093 111.771532 
L 336.503239 100.337624 
L 336.594548 100.11153 
L 337.020657 98.787266 
L 337.65982 97.07541 
L 337.812002 96.752418 
L 338.877275 94.749867 
L 338.938148 94.652969 
L 339.851239 93.522498 
L 340.155602 93.134906 
L 342.01222 91.326154 
L 342.255711 91.229257 
L 342.407893 91.164656 
L 342.68182 91.100063 
L 342.834002 91.003163 
L 342.925311 91.003163 
L 342.955748 90.970863 
L 344.325384 91.067764 
L 344.629748 91.229257 
L 344.660184 91.196958 
L 344.721057 91.293855 
L 344.964548 91.390755 
L 346.12113 92.747318 
L 346.425493 93.393304 
L 346.547239 93.651698 
L 348.769093 101.080508 
L 350.503966 108.896906 
L 351.14313 112.25602 
L 353.608475 124.7881 
L 353.82153 125.789374 
L 361.643675 166.712429 
L 362.800257 172.074092 
L 363.165493 173.72135 
L 365.752584 185.187558 
L 366.330875 187.674594 
L 370.439784 204.631659 
L 371.778984 209.250443 
L 372.296402 210.9623 
L 374.305202 217.002245 
L 376.131384 220.619753 
L 377.683639 222.105515 
L 377.744511 222.073216 
L 377.805384 222.137817 
L 378.414111 222.234709 
L 378.535857 222.267008 
L 378.566293 222.234709 
L 379.022839 222.170116 
L 379.17502 222.073216 
L 379.296766 222.008617 
L 379.448948 221.879423 
L 379.662002 221.653324 
L 379.753311 221.588731 
L 380.118548 221.071939 
L 380.362039 220.652052 
L 381.640366 217.712825 
L 382.127348 216.097868 
L 382.340402 215.387284 
L 382.85782 213.417034 
L 382.918693 213.126342 
L 382.918693 213.126342 
" style="fill:none;stroke:#0000ff;stroke-linecap:square;stroke-width:1.5;"/>
   </g>
   <g id="line2d_26">
    <path clip-path="url(#p97bda9f23b)" d="M 78.555057 156.603821 
L 87.472911 156.700719 
L 87.716402 156.716868 
L 89.816511 156.797616 
L 89.968693 156.813766 
L 98.36913 156.910663 
L 98.582184 156.910663 
L 98.825675 156.894514 
L 100.28662 156.975262 
L 100.499675 157.03986 
L 100.682293 157.05601 
L 100.895348 157.152907 
L 101.017093 157.185206 
L 102.29542 157.960387 
L 102.63022 158.299528 
L 103.330257 159.203905 
L 104.182475 160.738116 
L 106.465202 167.101053 
L 107.500039 170.75086 
L 110.482802 181.409587 
L 110.848039 182.427011 
L 111.487202 184.122718 
L 111.913311 184.994796 
L 112.369857 185.915323 
L 113.222075 187.078093 
L 113.43513 187.174991 
L 113.709057 187.320337 
L 114.591711 187.255738 
L 115.01782 186.771251 
L 115.504802 186.092968 
L 116.052657 185.043245 
L 116.78313 182.798453 
L 118.061457 177.630585 
L 118.913675 173.52859 
L 119.552839 169.943381 
L 121.226839 159.526897 
L 122.200802 152.631023 
L 124.513966 135.10872 
L 125.700984 127.098525 
L 128.044584 114.065807 
L 129.018548 109.495477 
L 129.657711 106.976136 
L 130.540366 104.521401 
L 132.85353 99.838023 
L 132.944839 99.741123 
L 133.52313 99.014392 
L 134.253602 98.38456 
L 134.649275 98.28766 
L 135.014511 97.980821 
L 135.562366 97.560929 
L 135.77542 97.544782 
L 136.171093 97.641674 
L 136.53633 97.544782 
L 136.962439 97.431735 
L 137.20593 97.52863 
L 138.54513 99.111292 
L 138.849493 100.015664 
L 141.071348 108.671845 
L 142.958402 119.233675 
L 146.062911 143.086617 
L 149.197857 172.365819 
L 152.880657 206.538346 
L 153.61113 212.336048 
L 154.372039 217.536218 
L 155.924293 225.9663 
L 157.111311 229.955246 
L 157.750475 231.344115 
L 158.20702 231.893201 
L 158.602693 231.990096 
L 158.815748 231.973947 
L 158.998366 231.990096 
L 159.180984 231.941647 
L 159.363602 231.925495 
L 159.789711 231.618656 
L 159.88102 231.521756 
L 161.007166 229.535359 
L 161.615893 227.62971 
L 162.89422 222.477989 
L 163.65513 218.327543 
L 164.355166 213.595713 
L 165.481311 205.10103 
L 169.042366 173.964627 
L 170.838111 160.56047 
L 171.812075 154.585123 
L 172.907784 149.352656 
L 174.186111 145.008417 
L 175.099202 142.876672 
L 175.555748 142.55368 
L 175.890548 142.472931 
L 176.103602 142.392185 
L 176.468839 142.489081 
L 176.681893 142.715176 
L 177.564548 144.313985 
L 177.96022 145.379858 
L 181.825639 162.272327 
L 182.890911 168.506067 
L 183.804002 173.625486 
L 185.812802 183.686679 
L 186.269348 185.366237 
L 187.33462 188.418509 
L 188.247711 190.098066 
L 188.521639 190.550254 
L 189.00862 191.13164 
L 189.34342 191.341584 
L 189.465166 191.390033 
L 189.76953 191.454631 
L 190.34782 191.034742 
L 191.35222 188.644603 
L 193.482766 181.522636 
L 194.517602 176.661608 
L 195.70462 170.37942 
L 197.226439 161.707091 
L 198.109093 155.925538 
L 199.509166 145.525204 
L 201.974511 124.272347 
L 205.657311 95.784472 
L 206.996511 89.906024 
L 208.548766 84.528209 
L 209.340111 83.090898 
L 209.553166 82.703306 
L 210.131457 81.976574 
L 210.405384 81.944275 
L 211.074984 82.041175 
L 211.501093 82.364167 
L 213.11422 86.030126 
L 214.54473 90.907296 
L 216.55353 101.000788 
L 217.405748 106.12021 
L 218.89713 115.470824 
L 221.545093 131.620409 
L 222.640802 138.031794 
L 223.340839 141.778499 
L 227.723675 164.436371 
L 229.428111 172.042826 
L 229.823784 173.641636 
L 231.345602 179.616984 
L 232.167384 183.072996 
L 237.189384 206.522194 
L 239.015566 211.980757 
L 240.872184 214.742337 
L 241.967893 215.743608 
L 242.089639 215.775908 
L 243.094039 216.1958 
L 243.33753 216.276547 
L 243.702766 216.502642 
L 244.281057 216.922531 
L 244.737602 217.261672 
L 244.859348 217.358572 
L 245.224584 217.665412 
L 245.711566 218.020703 
L 245.802875 218.069152 
L 246.137675 218.262949 
L 246.35073 218.343695 
L 246.655093 218.505191 
L 247.111639 218.634387 
L 247.507311 218.731282 
L 248.298657 219.038127 
L 248.60302 219.135022 
L 248.816075 219.199623 
L 249.303057 219.29652 
L 250.94662 220.249346 
L 251.220548 220.588485 
L 254.020693 223.721505 
L 254.29462 224.173696 
L 254.690293 224.755084 
L 255.603384 226.014746 
L 257.216511 227.581256 
L 257.368693 227.662004 
L 257.703493 227.855802 
L 258.038293 227.952697 
L 258.251348 228.017298 
L 258.860075 227.93655 
L 259.864475 226.709178 
L 260.260148 225.885552 
L 260.65582 224.80353 
L 261.447166 221.945055 
L 262.147202 218.489041 
L 262.695057 215.016877 
L 263.638584 207.765712 
L 264.856039 196.525602 
L 265.738693 186.561306 
L 266.803966 172.236622 
L 268.630148 144.52393 
L 271.612911 95.768325 
L 273.80433 62.64552 
L 274.595675 52.438981 
L 276.05662 37.355266 
L 277.334948 28.069253 
L 278.095857 24.629388 
L 278.521966 23.305125 
L 279.008948 22.513798 
L 279.313311 22.336152 
L 279.83073 22.433045 
L 280.043784 22.659139 
L 280.287275 23.079031 
L 281.50473 27.277926 
L 282.387384 32.542689 
L 283.391784 40.22989 
L 284.335311 49.176764 
L 285.18753 58.382024 
L 286.831093 77.939177 
L 287.805057 90.600457 
L 293.22273 161.012659 
L 294.531493 175.014352 
L 297.209893 199.529423 
L 299.523057 217.051725 
L 300.283966 221.896604 
L 301.775348 229.955246 
L 303.327602 236.075939 
L 304.088511 237.43251 
L 304.362439 237.594003 
L 304.575493 237.594003 
L 305.123348 237.513255 
L 305.397275 237.384056 
L 305.671202 237.157964 
L 305.975566 236.754225 
L 306.797348 235.736801 
L 308.014802 232.894473 
L 308.684402 230.811176 
L 311.393239 220.362393 
L 313.21942 210.075106 
L 314.284693 202.581697 
L 316.56742 185.285489 
L 320.34153 160.011384 
L 320.91982 156.716868 
L 321.863348 152.308031 
L 322.624257 149.175011 
L 324.02433 145.073016 
L 324.663493 143.684151 
L 325.059166 142.876672 
L 325.69833 141.487807 
L 326.154875 140.777225 
L 327.524511 139.485258 
L 327.737566 139.388361 
L 328.894148 138.887724 
L 329.868111 138.790826 
L 330.111602 138.774676 
L 330.811639 138.677779 
L 331.268184 138.548583 
L 331.846475 138.451683 
L 332.363893 138.29019 
L 332.698693 138.19329 
L 333.033493 137.999497 
L 333.185675 137.934898 
L 333.459602 137.676504 
L 333.703093 137.450411 
L 334.037893 137.111269 
L 335.559711 135.334813 
L 335.955384 134.75343 
L 336.503239 133.687556 
L 337.41633 131.491212 
L 338.146802 129.520963 
L 341.403493 121.187775 
L 342.164402 119.782761 
L 342.529639 119.120628 
L 343.655784 117.48952 
L 343.807966 117.39262 
L 344.142766 117.198827 
L 344.842802 117.295727 
L 345.086293 117.537966 
L 345.725457 118.361598 
L 346.577675 119.911958 
L 346.973348 120.735587 
L 348.890839 126.1134 
L 350.04742 130.829079 
L 352.025784 140.793375 
L 358.50873 181.37729 
L 360.000111 188.709201 
L 362.708948 196.99394 
L 363.956839 199.400228 
L 365.417784 200.789093 
L 365.630839 200.885993 
L 365.87433 200.982885 
L 366.056948 200.999038 
L 366.513493 200.90214 
L 367.274402 199.933167 
L 367.79182 199.077237 
L 368.004875 198.689647 
L 368.339675 197.979065 
L 369.618002 194.280809 
L 371.80942 183.28294 
L 374.031275 170.928505 
L 375.035675 164.743213 
L 377.287966 150.983764 
L 378.140184 145.444457 
L 381.579493 126.016502 
L 382.918693 120.154202 
L 382.918693 120.154202 
" style="fill:none;stroke:#ff0000;stroke-linecap:square;stroke-width:1.5;"/>
   </g>
   <g id="line2d_27">
    <path clip-path="url(#p97bda9f23b)" d="M 127.101057 165.097471 
" style="fill:none;stroke:#ffffff;stroke-linecap:square;stroke-width:1.5;"/>
    <defs>
     <path d="M 0 -5 
L -1.12257 -1.545085 
L -4.755283 -1.545085 
L -1.816356 0.59017 
L -2.938926 4.045085 
L -0 1.90983 
L 2.938926 4.045085 
L 1.816356 0.59017 
L 4.755283 -1.545085 
L 1.12257 -1.545085 
z
" id="m60b822fd65" style="stroke:#ffffff;stroke-linejoin:bevel;"/>
    </defs>
    <g clip-path="url(#p97bda9f23b)">
     <use style="fill:#0000ff;stroke:#ffffff;stroke-linejoin:bevel;" x="127.101057" xlink:href="#m60b822fd65" y="165.097471"/>
    </g>
   </g>
   <g id="line2d_28">
    <path clip-path="url(#p97bda9f23b)" d="M 105.278184 163.418947 
" style="fill:none;stroke:#ffffff;stroke-linecap:square;stroke-width:1.5;"/>
    <defs>
     <path d="M 0 -5 
L -1.12257 -1.545085 
L -4.755283 -1.545085 
L -1.816356 0.59017 
L -2.938926 4.045085 
L -0 1.90983 
L 2.938926 4.045085 
L 1.816356 0.59017 
L 4.755283 -1.545085 
L 1.12257 -1.545085 
z
" id="m8cfd1fd8f4" style="stroke:#ffffff;stroke-linejoin:bevel;"/>
    </defs>
    <g clip-path="url(#p97bda9f23b)">
     <use style="fill:#ff0000;stroke:#ffffff;stroke-linejoin:bevel;" x="105.278184" xlink:href="#m8cfd1fd8f4" y="163.418947"/>
    </g>
   </g>
   <g id="patch_3">
    <path d="M 63.336875 339.84 
L 63.336875 7.2 
" style="fill:none;stroke:#000000;stroke-linecap:square;stroke-linejoin:miter;stroke-width:0.8;"/>
   </g>
   <g id="patch_4">
    <path d="M 398.136875 339.84 
L 398.136875 7.2 
" style="fill:none;stroke:#000000;stroke-linecap:square;stroke-linejoin:miter;stroke-width:0.8;"/>
   </g>
   <g id="patch_5">
    <path d="M 63.336875 339.84 
L 398.136875 339.84 
" style="fill:none;stroke:#000000;stroke-linecap:square;stroke-linejoin:miter;stroke-width:0.8;"/>
   </g>
   <g id="patch_6">
    <path d="M 63.336875 7.2 
L 398.136875 7.2 
" style="fill:none;stroke:#000000;stroke-linecap:square;stroke-linejoin:miter;stroke-width:0.8;"/>
   </g>
   <g id="text_15">
    <g id="patch_7">
     <path d="M 75.036875 331.242688 
L 166.79375 331.242688 
L 166.79375 293.760312 
L 75.036875 293.760312 
z
" style="fill:#ffffff;stroke:#000000;stroke-linejoin:miter;stroke-width:0.75;"/>
    </g>
    <!-- Auto_00070 -->
    <g transform="translate(80.076875 308.521563)scale(0.14 -0.14)">
     <defs>
      <path d="M 2928 1419 
L 1288 1419 
L 1000 750 
Q 894 503 894 381 
Q 894 284 986 211 
Q 1078 138 1384 116 
L 1384 0 
L 50 0 
L 50 116 
Q 316 163 394 238 
Q 553 388 747 847 
L 2238 4334 
L 2347 4334 
L 3822 809 
Q 4000 384 4145 257 
Q 4291 131 4550 116 
L 4550 0 
L 2878 0 
L 2878 116 
Q 3131 128 3220 200 
Q 3309 272 3309 375 
Q 3309 513 3184 809 
L 2928 1419 
z
M 2841 1650 
L 2122 3363 
L 1384 1650 
L 2841 1650 
z
" id="TimesNewRomanPSMT-41" transform="scale(0.015625)"/>
      <path d="M 2709 2863 
L 2709 1128 
Q 2709 631 2732 520 
Q 2756 409 2807 365 
Q 2859 322 2928 322 
Q 3025 322 3147 375 
L 3191 266 
L 2334 -88 
L 2194 -88 
L 2194 519 
Q 1825 119 1631 15 
Q 1438 -88 1222 -88 
Q 981 -88 804 51 
Q 628 191 559 409 
Q 491 628 491 1028 
L 491 2306 
Q 491 2509 447 2587 
Q 403 2666 317 2708 
Q 231 2750 6 2747 
L 6 2863 
L 1009 2863 
L 1009 947 
Q 1009 547 1148 422 
Q 1288 297 1484 297 
Q 1619 297 1789 381 
Q 1959 466 2194 703 
L 2194 2325 
Q 2194 2569 2105 2655 
Q 2016 2741 1734 2747 
L 1734 2863 
L 2709 2863 
z
" id="TimesNewRomanPSMT-75" transform="scale(0.015625)"/>
      <path d="M 3256 -1381 
L -53 -1381 
L -53 -1119 
L 3256 -1119 
L 3256 -1381 
z
" id="TimesNewRomanPSMT-5f" transform="scale(0.015625)"/>
      <path d="M 644 4238 
L 2916 4238 
L 2916 4119 
L 1503 -88 
L 1153 -88 
L 2419 3728 
L 1253 3728 
Q 900 3728 750 3644 
Q 488 3500 328 3200 
L 238 3234 
L 644 4238 
z
" id="TimesNewRomanPSMT-37" transform="scale(0.015625)"/>
     </defs>
     <use xlink:href="#TimesNewRomanPSMT-41"/>
     <use x="72.216797" xlink:href="#TimesNewRomanPSMT-75"/>
     <use x="122.216797" xlink:href="#TimesNewRomanPSMT-74"/>
     <use x="150" xlink:href="#TimesNewRomanPSMT-6f"/>
     <use x="200" xlink:href="#TimesNewRomanPSMT-5f"/>
     <use x="250" xlink:href="#TimesNewRomanPSMT-30"/>
     <use x="300" xlink:href="#TimesNewRomanPSMT-30"/>
     <use x="350" xlink:href="#TimesNewRomanPSMT-30"/>
     <use x="400" xlink:href="#TimesNewRomanPSMT-37"/>
     <use x="450" xlink:href="#TimesNewRomanPSMT-30"/>
    </g>
    <!-- Vs: 278.79m/s -->
    <g transform="translate(80.076875 323.208)scale(0.14 -0.14)">
     <defs>
      <path d="M 903 2950 
Q 1047 2950 1148 2848 
Q 1250 2747 1250 2603 
Q 1250 2459 1148 2357 
Q 1047 2256 903 2256 
Q 759 2256 657 2357 
Q 556 2459 556 2603 
Q 556 2747 657 2848 
Q 759 2950 903 2950 
z
M 897 609 
Q 1044 609 1145 506 
Q 1247 403 1247 259 
Q 1247 116 1144 14 
Q 1041 -88 897 -88 
Q 753 -88 651 14 
Q 550 116 550 259 
Q 550 403 651 506 
Q 753 609 897 609 
z
" id="TimesNewRomanPSMT-3a" transform="scale(0.015625)"/>
      <path d="M 1228 2134 
Q 725 2547 579 2797 
Q 434 3047 434 3316 
Q 434 3728 753 4026 
Q 1072 4325 1600 4325 
Q 2113 4325 2425 4047 
Q 2738 3769 2738 3413 
Q 2738 3175 2569 2928 
Q 2400 2681 1866 2347 
Q 2416 1922 2594 1678 
Q 2831 1359 2831 1006 
Q 2831 559 2490 242 
Q 2150 -75 1597 -75 
Q 994 -75 656 303 
Q 388 606 388 966 
Q 388 1247 577 1523 
Q 766 1800 1228 2134 
z
M 1719 2469 
Q 2094 2806 2194 3001 
Q 2294 3197 2294 3444 
Q 2294 3772 2109 3958 
Q 1925 4144 1606 4144 
Q 1288 4144 1088 3959 
Q 888 3775 888 3528 
Q 888 3366 970 3203 
Q 1053 3041 1206 2894 
L 1719 2469 
z
M 1375 2016 
Q 1116 1797 991 1539 
Q 866 1281 866 981 
Q 866 578 1086 336 
Q 1306 94 1647 94 
Q 1984 94 2187 284 
Q 2391 475 2391 747 
Q 2391 972 2272 1150 
Q 2050 1481 1375 2016 
z
" id="TimesNewRomanPSMT-38" transform="scale(0.015625)"/>
      <path d="M 338 -88 
L 338 28 
Q 744 34 1094 217 
Q 1444 400 1770 856 
Q 2097 1313 2225 1859 
Q 1734 1544 1338 1544 
Q 891 1544 572 1889 
Q 253 2234 253 2806 
Q 253 3363 572 3797 
Q 956 4325 1575 4325 
Q 2097 4325 2469 3894 
Q 2925 3359 2925 2575 
Q 2925 1869 2578 1258 
Q 2231 647 1613 244 
Q 1109 -88 516 -88 
L 338 -88 
z
M 2275 2091 
Q 2331 2497 2331 2741 
Q 2331 3044 2228 3395 
Q 2125 3747 1936 3934 
Q 1747 4122 1506 4122 
Q 1228 4122 1018 3872 
Q 809 3622 809 3128 
Q 809 2469 1088 2097 
Q 1291 1828 1588 1828 
Q 1731 1828 1928 1897 
Q 2125 1966 2275 2091 
z
" id="TimesNewRomanPSMT-39" transform="scale(0.015625)"/>
      <path d="M 1794 4444 
L 259 -88 
L 9 -88 
L 1544 4444 
L 1794 4444 
z
" id="TimesNewRomanPSMT-2f" transform="scale(0.015625)"/>
     </defs>
     <use xlink:href="#TimesNewRomanPSMT-56"/>
     <use x="72.216797" xlink:href="#TimesNewRomanPSMT-73"/>
     <use x="111.132812" xlink:href="#TimesNewRomanPSMT-3a"/>
     <use x="138.916016" xlink:href="#TimesNewRomanPSMT-20"/>
     <use x="163.916016" xlink:href="#TimesNewRomanPSMT-32"/>
     <use x="213.916016" xlink:href="#TimesNewRomanPSMT-37"/>
     <use x="263.916016" xlink:href="#TimesNewRomanPSMT-38"/>
     <use x="313.916016" xlink:href="#TimesNewRomanPSMT-2e"/>
     <use x="338.916016" xlink:href="#TimesNewRomanPSMT-37"/>
     <use x="388.916016" xlink:href="#TimesNewRomanPSMT-39"/>
     <use x="438.916016" xlink:href="#TimesNewRomanPSMT-6d"/>
     <use x="516.699219" xlink:href="#TimesNewRomanPSMT-2f"/>
     <use x="544.482422" xlink:href="#TimesNewRomanPSMT-73"/>
    </g>
   </g>
  </g>
 </g>
 <defs>
  <clipPath id="p97bda9f23b">
   <rect height="332.64" width="334.8" x="63.336875" y="7.2"/>
  </clipPath>
 </defs>
</svg>
