<?xml version="1.0" encoding="utf-8" standalone="no"?>
<!DOCTYPE svg PUBLIC "-//W3C//DTD SVG 1.1//EN"
  "http://www.w3.org/Graphics/SVG/1.1/DTD/svg11.dtd">
<svg height="383.471875pt" version="1.1" viewBox="0 0 421.086875 383.471875" width="421.086875pt" xmlns="http://www.w3.org/2000/svg" xmlns:xlink="http://www.w3.org/1999/xlink">
 <metadata>
  <rdf:RDF xmlns:cc="http://creativecommons.org/ns#" xmlns:dc="http://purl.org/dc/elements/1.1/" xmlns:rdf="http://www.w3.org/1999/02/22-rdf-syntax-ns#">
   <cc:Work>
    <dc:type rdf:resource="http://purl.org/dc/dcmitype/StillImage"/>
    <dc:date>2021-06-11T14:39:37.854914</dc:date>
    <dc:format>image/svg+xml</dc:format>
    <dc:creator>
     <cc:Agent>
      <dc:title>Matplotlib v3.4.2, https://matplotlib.org/</dc:title>
     </cc:Agent>
    </dc:creator>
   </cc:Work>
  </rdf:RDF>
 </metadata>
 <defs>
  <style type="text/css">*{stroke-linecap:butt;stroke-linejoin:round;}</style>
 </defs>
 <g id="figure_1">
  <g id="patch_1">
   <path d="M 0 383.471875 
L 421.086875 383.471875 
L 421.086875 0 
L 0 0 
z
" style="fill:#ffffff;"/>
  </g>
  <g id="axes_1">
   <g id="patch_2">
    <path d="M 63.336875 339.84 
L 398.136875 339.84 
L 398.136875 7.2 
L 63.336875 7.2 
z
" style="fill:#ffffff;"/>
   </g>
   <g id="matplotlib.axis_1">
    <g id="xtick_1">
     <g id="line2d_1">
      <path clip-path="url(#pfa96ad170c)" d="M 93.773239 339.84 
L 93.773239 7.2 
" style="fill:none;stroke:#000000;stroke-dasharray:0.5,0.825;stroke-dashoffset:0;stroke-width:0.5;"/>
     </g>
     <g id="line2d_2">
      <defs>
       <path d="M 0 0 
L 0 3.5 
" id="md91b988d9b" style="stroke:#000000;stroke-width:0.8;"/>
      </defs>
      <g>
       <use style="stroke:#000000;stroke-width:0.8;" x="93.773239" xlink:href="#md91b988d9b" y="339.84"/>
      </g>
     </g>
     <g id="text_1">
      <!-- 0.000 -->
      <g transform="translate(78.023239 356.56125)scale(0.14 -0.14)">
       <defs>
        <path d="M 231 2094 
Q 231 2819 450 3342 
Q 669 3866 1031 4122 
Q 1313 4325 1613 4325 
Q 2100 4325 2488 3828 
Q 2972 3213 2972 2159 
Q 2972 1422 2759 906 
Q 2547 391 2217 158 
Q 1888 -75 1581 -75 
Q 975 -75 572 641 
Q 231 1244 231 2094 
z
M 844 2016 
Q 844 1141 1059 588 
Q 1238 122 1591 122 
Q 1759 122 1940 273 
Q 2122 425 2216 781 
Q 2359 1319 2359 2297 
Q 2359 3022 2209 3506 
Q 2097 3866 1919 4016 
Q 1791 4119 1609 4119 
Q 1397 4119 1231 3928 
Q 1006 3669 925 3112 
Q 844 2556 844 2016 
z
" id="TimesNewRomanPSMT-30" transform="scale(0.015625)"/>
        <path d="M 800 606 
Q 947 606 1047 504 
Q 1147 403 1147 259 
Q 1147 116 1045 14 
Q 944 -88 800 -88 
Q 656 -88 554 14 
Q 453 116 453 259 
Q 453 406 554 506 
Q 656 606 800 606 
z
" id="TimesNewRomanPSMT-2e" transform="scale(0.015625)"/>
       </defs>
       <use xlink:href="#TimesNewRomanPSMT-30"/>
       <use x="50" xlink:href="#TimesNewRomanPSMT-2e"/>
       <use x="75" xlink:href="#TimesNewRomanPSMT-30"/>
       <use x="125" xlink:href="#TimesNewRomanPSMT-30"/>
       <use x="175" xlink:href="#TimesNewRomanPSMT-30"/>
      </g>
     </g>
    </g>
    <g id="xtick_2">
     <g id="line2d_3">
      <path clip-path="url(#pfa96ad170c)" d="M 154.645966 339.84 
L 154.645966 7.2 
" style="fill:none;stroke:#000000;stroke-dasharray:0.5,0.825;stroke-dashoffset:0;stroke-width:0.5;"/>
     </g>
     <g id="line2d_4">
      <g>
       <use style="stroke:#000000;stroke-width:0.8;" x="154.645966" xlink:href="#md91b988d9b" y="339.84"/>
      </g>
     </g>
     <g id="text_2">
      <!-- 0.001 -->
      <g transform="translate(138.895966 356.56125)scale(0.14 -0.14)">
       <defs>
        <path d="M 750 3822 
L 1781 4325 
L 1884 4325 
L 1884 747 
Q 1884 391 1914 303 
Q 1944 216 2037 169 
Q 2131 122 2419 116 
L 2419 0 
L 825 0 
L 825 116 
Q 1125 122 1212 167 
Q 1300 213 1334 289 
Q 1369 366 1369 747 
L 1369 3034 
Q 1369 3497 1338 3628 
Q 1316 3728 1258 3775 
Q 1200 3822 1119 3822 
Q 1003 3822 797 3725 
L 750 3822 
z
" id="TimesNewRomanPSMT-31" transform="scale(0.015625)"/>
       </defs>
       <use xlink:href="#TimesNewRomanPSMT-30"/>
       <use x="50" xlink:href="#TimesNewRomanPSMT-2e"/>
       <use x="75" xlink:href="#TimesNewRomanPSMT-30"/>
       <use x="125" xlink:href="#TimesNewRomanPSMT-30"/>
       <use x="175" xlink:href="#TimesNewRomanPSMT-31"/>
      </g>
     </g>
    </g>
    <g id="xtick_3">
     <g id="line2d_5">
      <path clip-path="url(#pfa96ad170c)" d="M 215.518693 339.84 
L 215.518693 7.2 
" style="fill:none;stroke:#000000;stroke-dasharray:0.5,0.825;stroke-dashoffset:0;stroke-width:0.5;"/>
     </g>
     <g id="line2d_6">
      <g>
       <use style="stroke:#000000;stroke-width:0.8;" x="215.518693" xlink:href="#md91b988d9b" y="339.84"/>
      </g>
     </g>
     <g id="text_3">
      <!-- 0.002 -->
      <g transform="translate(199.768693 356.56125)scale(0.14 -0.14)">
       <defs>
        <path d="M 2934 816 
L 2638 0 
L 138 0 
L 138 116 
Q 1241 1122 1691 1759 
Q 2141 2397 2141 2925 
Q 2141 3328 1894 3587 
Q 1647 3847 1303 3847 
Q 991 3847 742 3664 
Q 494 3481 375 3128 
L 259 3128 
Q 338 3706 661 4015 
Q 984 4325 1469 4325 
Q 1984 4325 2329 3994 
Q 2675 3663 2675 3213 
Q 2675 2891 2525 2569 
Q 2294 2063 1775 1497 
Q 997 647 803 472 
L 1909 472 
Q 2247 472 2383 497 
Q 2519 522 2628 598 
Q 2738 675 2819 816 
L 2934 816 
z
" id="TimesNewRomanPSMT-32" transform="scale(0.015625)"/>
       </defs>
       <use xlink:href="#TimesNewRomanPSMT-30"/>
       <use x="50" xlink:href="#TimesNewRomanPSMT-2e"/>
       <use x="75" xlink:href="#TimesNewRomanPSMT-30"/>
       <use x="125" xlink:href="#TimesNewRomanPSMT-30"/>
       <use x="175" xlink:href="#TimesNewRomanPSMT-32"/>
      </g>
     </g>
    </g>
    <g id="xtick_4">
     <g id="line2d_7">
      <path clip-path="url(#pfa96ad170c)" d="M 276.39142 339.84 
L 276.39142 7.2 
" style="fill:none;stroke:#000000;stroke-dasharray:0.5,0.825;stroke-dashoffset:0;stroke-width:0.5;"/>
     </g>
     <g id="line2d_8">
      <g>
       <use style="stroke:#000000;stroke-width:0.8;" x="276.39142" xlink:href="#md91b988d9b" y="339.84"/>
      </g>
     </g>
     <g id="text_4">
      <!-- 0.003 -->
      <g transform="translate(260.64142 356.56125)scale(0.14 -0.14)">
       <defs>
        <path d="M 325 3431 
Q 506 3859 782 4092 
Q 1059 4325 1472 4325 
Q 1981 4325 2253 3994 
Q 2459 3747 2459 3466 
Q 2459 3003 1878 2509 
Q 2269 2356 2469 2072 
Q 2669 1788 2669 1403 
Q 2669 853 2319 450 
Q 1863 -75 997 -75 
Q 569 -75 414 31 
Q 259 138 259 259 
Q 259 350 332 419 
Q 406 488 509 488 
Q 588 488 669 463 
Q 722 447 909 348 
Q 1097 250 1169 231 
Q 1284 197 1416 197 
Q 1734 197 1970 444 
Q 2206 691 2206 1028 
Q 2206 1275 2097 1509 
Q 2016 1684 1919 1775 
Q 1784 1900 1550 2001 
Q 1316 2103 1072 2103 
L 972 2103 
L 972 2197 
Q 1219 2228 1467 2375 
Q 1716 2522 1828 2728 
Q 1941 2934 1941 3181 
Q 1941 3503 1739 3701 
Q 1538 3900 1238 3900 
Q 753 3900 428 3381 
L 325 3431 
z
" id="TimesNewRomanPSMT-33" transform="scale(0.015625)"/>
       </defs>
       <use xlink:href="#TimesNewRomanPSMT-30"/>
       <use x="50" xlink:href="#TimesNewRomanPSMT-2e"/>
       <use x="75" xlink:href="#TimesNewRomanPSMT-30"/>
       <use x="125" xlink:href="#TimesNewRomanPSMT-30"/>
       <use x="175" xlink:href="#TimesNewRomanPSMT-33"/>
      </g>
     </g>
    </g>
    <g id="xtick_5">
     <g id="line2d_9">
      <path clip-path="url(#pfa96ad170c)" d="M 337.264148 339.84 
L 337.264148 7.2 
" style="fill:none;stroke:#000000;stroke-dasharray:0.5,0.825;stroke-dashoffset:0;stroke-width:0.5;"/>
     </g>
     <g id="line2d_10">
      <g>
       <use style="stroke:#000000;stroke-width:0.8;" x="337.264148" xlink:href="#md91b988d9b" y="339.84"/>
      </g>
     </g>
     <g id="text_5">
      <!-- 0.004 -->
      <g transform="translate(321.514148 356.56125)scale(0.14 -0.14)">
       <defs>
        <path d="M 2978 1563 
L 2978 1119 
L 2409 1119 
L 2409 0 
L 1894 0 
L 1894 1119 
L 100 1119 
L 100 1519 
L 2066 4325 
L 2409 4325 
L 2409 1563 
L 2978 1563 
z
M 1894 1563 
L 1894 3666 
L 406 1563 
L 1894 1563 
z
" id="TimesNewRomanPSMT-34" transform="scale(0.015625)"/>
       </defs>
       <use xlink:href="#TimesNewRomanPSMT-30"/>
       <use x="50" xlink:href="#TimesNewRomanPSMT-2e"/>
       <use x="75" xlink:href="#TimesNewRomanPSMT-30"/>
       <use x="125" xlink:href="#TimesNewRomanPSMT-30"/>
       <use x="175" xlink:href="#TimesNewRomanPSMT-34"/>
      </g>
     </g>
    </g>
    <g id="xtick_6">
     <g id="line2d_11">
      <path clip-path="url(#pfa96ad170c)" d="M 398.136875 339.84 
L 398.136875 7.2 
" style="fill:none;stroke:#000000;stroke-dasharray:0.5,0.825;stroke-dashoffset:0;stroke-width:0.5;"/>
     </g>
     <g id="line2d_12">
      <g>
       <use style="stroke:#000000;stroke-width:0.8;" x="398.136875" xlink:href="#md91b988d9b" y="339.84"/>
      </g>
     </g>
     <g id="text_6">
      <!-- 0.005 -->
      <g transform="translate(382.386875 356.56125)scale(0.14 -0.14)">
       <defs>
        <path d="M 2778 4238 
L 2534 3706 
L 1259 3706 
L 981 3138 
Q 1809 3016 2294 2522 
Q 2709 2097 2709 1522 
Q 2709 1188 2573 903 
Q 2438 619 2231 419 
Q 2025 219 1772 97 
Q 1413 -75 1034 -75 
Q 653 -75 479 54 
Q 306 184 306 341 
Q 306 428 378 495 
Q 450 563 559 563 
Q 641 563 702 538 
Q 763 513 909 409 
Q 1144 247 1384 247 
Q 1750 247 2026 523 
Q 2303 800 2303 1197 
Q 2303 1581 2056 1914 
Q 1809 2247 1375 2428 
Q 1034 2569 447 2591 
L 1259 4238 
L 2778 4238 
z
" id="TimesNewRomanPSMT-35" transform="scale(0.015625)"/>
       </defs>
       <use xlink:href="#TimesNewRomanPSMT-30"/>
       <use x="50" xlink:href="#TimesNewRomanPSMT-2e"/>
       <use x="75" xlink:href="#TimesNewRomanPSMT-30"/>
       <use x="125" xlink:href="#TimesNewRomanPSMT-30"/>
       <use x="175" xlink:href="#TimesNewRomanPSMT-35"/>
      </g>
     </g>
    </g>
    <g id="text_7">
     <!-- Time (sec) -->
     <g transform="translate(200.858906 373.277188)scale(0.14 -0.14)">
      <defs>
       <path d="M 3703 4238 
L 3750 3244 
L 3631 3244 
Q 3597 3506 3538 3619 
Q 3441 3800 3280 3886 
Q 3119 3972 2856 3972 
L 2259 3972 
L 2259 734 
Q 2259 344 2344 247 
Q 2463 116 2709 116 
L 2856 116 
L 2856 0 
L 1059 0 
L 1059 116 
L 1209 116 
Q 1478 116 1591 278 
Q 1659 378 1659 734 
L 1659 3972 
L 1150 3972 
Q 853 3972 728 3928 
Q 566 3869 450 3700 
Q 334 3531 313 3244 
L 194 3244 
L 244 4238 
L 3703 4238 
z
" id="TimesNewRomanPSMT-54" transform="scale(0.015625)"/>
       <path d="M 928 4444 
Q 1059 4444 1151 4351 
Q 1244 4259 1244 4128 
Q 1244 3997 1151 3903 
Q 1059 3809 928 3809 
Q 797 3809 703 3903 
Q 609 3997 609 4128 
Q 609 4259 701 4351 
Q 794 4444 928 4444 
z
M 1188 2947 
L 1188 647 
Q 1188 378 1227 289 
Q 1266 200 1342 156 
Q 1419 113 1622 113 
L 1622 0 
L 231 0 
L 231 113 
Q 441 113 512 153 
Q 584 194 626 287 
Q 669 381 669 647 
L 669 1750 
Q 669 2216 641 2353 
Q 619 2453 572 2492 
Q 525 2531 444 2531 
Q 356 2531 231 2484 
L 188 2597 
L 1050 2947 
L 1188 2947 
z
" id="TimesNewRomanPSMT-69" transform="scale(0.015625)"/>
       <path d="M 1050 2338 
Q 1363 2650 1419 2697 
Q 1559 2816 1721 2881 
Q 1884 2947 2044 2947 
Q 2313 2947 2506 2790 
Q 2700 2634 2766 2338 
Q 3088 2713 3309 2830 
Q 3531 2947 3766 2947 
Q 3994 2947 4170 2830 
Q 4347 2713 4450 2447 
Q 4519 2266 4519 1878 
L 4519 647 
Q 4519 378 4559 278 
Q 4591 209 4675 161 
Q 4759 113 4950 113 
L 4950 0 
L 3538 0 
L 3538 113 
L 3597 113 
Q 3781 113 3884 184 
Q 3956 234 3988 344 
Q 4000 397 4000 647 
L 4000 1878 
Q 4000 2228 3916 2372 
Q 3794 2572 3525 2572 
Q 3359 2572 3192 2489 
Q 3025 2406 2788 2181 
L 2781 2147 
L 2788 2013 
L 2788 647 
Q 2788 353 2820 281 
Q 2853 209 2943 161 
Q 3034 113 3253 113 
L 3253 0 
L 1806 0 
L 1806 113 
Q 2044 113 2133 169 
Q 2222 225 2256 338 
Q 2272 391 2272 647 
L 2272 1878 
Q 2272 2228 2169 2381 
Q 2031 2581 1784 2581 
Q 1616 2581 1450 2491 
Q 1191 2353 1050 2181 
L 1050 647 
Q 1050 366 1089 281 
Q 1128 197 1204 155 
Q 1281 113 1516 113 
L 1516 0 
L 100 0 
L 100 113 
Q 297 113 375 155 
Q 453 197 493 289 
Q 534 381 534 647 
L 534 1741 
Q 534 2213 506 2350 
Q 484 2453 437 2492 
Q 391 2531 309 2531 
Q 222 2531 100 2484 
L 53 2597 
L 916 2947 
L 1050 2947 
L 1050 2338 
z
" id="TimesNewRomanPSMT-6d" transform="scale(0.015625)"/>
       <path d="M 681 1784 
Q 678 1147 991 784 
Q 1303 422 1725 422 
Q 2006 422 2214 576 
Q 2422 731 2563 1106 
L 2659 1044 
Q 2594 616 2278 264 
Q 1963 -88 1488 -88 
Q 972 -88 605 314 
Q 238 716 238 1394 
Q 238 2128 614 2539 
Q 991 2950 1559 2950 
Q 2041 2950 2350 2633 
Q 2659 2316 2659 1784 
L 681 1784 
z
M 681 1966 
L 2006 1966 
Q 1991 2241 1941 2353 
Q 1863 2528 1708 2628 
Q 1553 2728 1384 2728 
Q 1125 2728 920 2526 
Q 716 2325 681 1966 
z
" id="TimesNewRomanPSMT-65" transform="scale(0.015625)"/>
       <path id="TimesNewRomanPSMT-20" transform="scale(0.015625)"/>
       <path d="M 1988 -1253 
L 1988 -1369 
Q 1516 -1131 1200 -813 
Q 750 -359 506 256 
Q 263 872 263 1534 
Q 263 2503 741 3301 
Q 1219 4100 1988 4444 
L 1988 4313 
Q 1603 4100 1356 3731 
Q 1109 3363 987 2797 
Q 866 2231 866 1616 
Q 866 947 969 400 
Q 1050 -31 1165 -292 
Q 1281 -553 1476 -793 
Q 1672 -1034 1988 -1253 
z
" id="TimesNewRomanPSMT-28" transform="scale(0.015625)"/>
       <path d="M 2050 2947 
L 2050 1972 
L 1947 1972 
Q 1828 2431 1642 2597 
Q 1456 2763 1169 2763 
Q 950 2763 815 2647 
Q 681 2531 681 2391 
Q 681 2216 781 2091 
Q 878 1963 1175 1819 
L 1631 1597 
Q 2266 1288 2266 781 
Q 2266 391 1970 151 
Q 1675 -88 1309 -88 
Q 1047 -88 709 6 
Q 606 38 541 38 
Q 469 38 428 -44 
L 325 -44 
L 325 978 
L 428 978 
Q 516 541 762 319 
Q 1009 97 1316 97 
Q 1531 97 1667 223 
Q 1803 350 1803 528 
Q 1803 744 1651 891 
Q 1500 1038 1047 1263 
Q 594 1488 453 1669 
Q 313 1847 313 2119 
Q 313 2472 555 2709 
Q 797 2947 1181 2947 
Q 1350 2947 1591 2875 
Q 1750 2828 1803 2828 
Q 1853 2828 1881 2850 
Q 1909 2872 1947 2947 
L 2050 2947 
z
" id="TimesNewRomanPSMT-73" transform="scale(0.015625)"/>
       <path d="M 2631 1088 
Q 2516 522 2178 217 
Q 1841 -88 1431 -88 
Q 944 -88 581 321 
Q 219 731 219 1428 
Q 219 2103 620 2525 
Q 1022 2947 1584 2947 
Q 2006 2947 2278 2723 
Q 2550 2500 2550 2259 
Q 2550 2141 2473 2067 
Q 2397 1994 2259 1994 
Q 2075 1994 1981 2113 
Q 1928 2178 1911 2362 
Q 1894 2547 1784 2644 
Q 1675 2738 1481 2738 
Q 1169 2738 978 2506 
Q 725 2200 725 1697 
Q 725 1184 976 792 
Q 1228 400 1656 400 
Q 1963 400 2206 609 
Q 2378 753 2541 1131 
L 2631 1088 
z
" id="TimesNewRomanPSMT-63" transform="scale(0.015625)"/>
       <path d="M 144 4313 
L 144 4444 
Q 619 4209 934 3891 
Q 1381 3434 1625 2820 
Q 1869 2206 1869 1541 
Q 1869 572 1392 -226 
Q 916 -1025 144 -1369 
L 144 -1253 
Q 528 -1038 776 -670 
Q 1025 -303 1145 264 
Q 1266 831 1266 1447 
Q 1266 2113 1163 2663 
Q 1084 3094 967 3353 
Q 850 3613 656 3853 
Q 463 4094 144 4313 
z
" id="TimesNewRomanPSMT-29" transform="scale(0.015625)"/>
      </defs>
      <use xlink:href="#TimesNewRomanPSMT-54"/>
      <use x="57.583984" xlink:href="#TimesNewRomanPSMT-69"/>
      <use x="85.367188" xlink:href="#TimesNewRomanPSMT-6d"/>
      <use x="163.150391" xlink:href="#TimesNewRomanPSMT-65"/>
      <use x="207.535156" xlink:href="#TimesNewRomanPSMT-20"/>
      <use x="232.535156" xlink:href="#TimesNewRomanPSMT-28"/>
      <use x="265.835938" xlink:href="#TimesNewRomanPSMT-73"/>
      <use x="304.751953" xlink:href="#TimesNewRomanPSMT-65"/>
      <use x="349.136719" xlink:href="#TimesNewRomanPSMT-63"/>
      <use x="393.521484" xlink:href="#TimesNewRomanPSMT-29"/>
     </g>
    </g>
   </g>
   <g id="matplotlib.axis_2">
    <g id="ytick_1">
     <g id="line2d_13">
      <path clip-path="url(#pfa96ad170c)" d="M 63.336875 278.832313 
L 398.136875 278.832313 
" style="fill:none;stroke:#000000;stroke-dasharray:0.5,0.825;stroke-dashoffset:0;stroke-width:0.5;"/>
     </g>
     <g id="line2d_14">
      <defs>
       <path d="M 0 0 
L -3.5 0 
" id="m0d1480d670" style="stroke:#000000;stroke-width:0.8;"/>
      </defs>
      <g>
       <use style="stroke:#000000;stroke-width:0.8;" x="63.336875" xlink:href="#m0d1480d670" y="278.832313"/>
      </g>
     </g>
     <g id="text_8">
      <!-- −0.04 -->
      <g transform="translate(23.942188 283.692938)scale(0.14 -0.14)">
       <defs>
        <path d="M 3484 2000 
L 116 2000 
L 116 2256 
L 3484 2256 
L 3484 2000 
z
" id="TimesNewRomanPSMT-2212" transform="scale(0.015625)"/>
       </defs>
       <use xlink:href="#TimesNewRomanPSMT-2212"/>
       <use x="56.396484" xlink:href="#TimesNewRomanPSMT-30"/>
       <use x="106.396484" xlink:href="#TimesNewRomanPSMT-2e"/>
       <use x="131.396484" xlink:href="#TimesNewRomanPSMT-30"/>
       <use x="181.396484" xlink:href="#TimesNewRomanPSMT-34"/>
      </g>
     </g>
    </g>
    <g id="ytick_2">
     <g id="line2d_15">
      <path clip-path="url(#pfa96ad170c)" d="M 63.336875 215.881494 
L 398.136875 215.881494 
" style="fill:none;stroke:#000000;stroke-dasharray:0.5,0.825;stroke-dashoffset:0;stroke-width:0.5;"/>
     </g>
     <g id="line2d_16">
      <g>
       <use style="stroke:#000000;stroke-width:0.8;" x="63.336875" xlink:href="#m0d1480d670" y="215.881494"/>
      </g>
     </g>
     <g id="text_9">
      <!-- −0.02 -->
      <g transform="translate(23.942188 220.742119)scale(0.14 -0.14)">
       <use xlink:href="#TimesNewRomanPSMT-2212"/>
       <use x="56.396484" xlink:href="#TimesNewRomanPSMT-30"/>
       <use x="106.396484" xlink:href="#TimesNewRomanPSMT-2e"/>
       <use x="131.396484" xlink:href="#TimesNewRomanPSMT-30"/>
       <use x="181.396484" xlink:href="#TimesNewRomanPSMT-32"/>
      </g>
     </g>
    </g>
    <g id="ytick_3">
     <g id="line2d_17">
      <path clip-path="url(#pfa96ad170c)" d="M 63.336875 152.930676 
L 398.136875 152.930676 
" style="fill:none;stroke:#000000;stroke-dasharray:0.5,0.825;stroke-dashoffset:0;stroke-width:0.5;"/>
     </g>
     <g id="line2d_18">
      <g>
       <use style="stroke:#000000;stroke-width:0.8;" x="63.336875" xlink:href="#m0d1480d670" y="152.930676"/>
      </g>
     </g>
     <g id="text_10">
      <!-- 0.00 -->
      <g transform="translate(31.836875 157.791301)scale(0.14 -0.14)">
       <use xlink:href="#TimesNewRomanPSMT-30"/>
       <use x="50" xlink:href="#TimesNewRomanPSMT-2e"/>
       <use x="75" xlink:href="#TimesNewRomanPSMT-30"/>
       <use x="125" xlink:href="#TimesNewRomanPSMT-30"/>
      </g>
     </g>
    </g>
    <g id="ytick_4">
     <g id="line2d_19">
      <path clip-path="url(#pfa96ad170c)" d="M 63.336875 89.979857 
L 398.136875 89.979857 
" style="fill:none;stroke:#000000;stroke-dasharray:0.5,0.825;stroke-dashoffset:0;stroke-width:0.5;"/>
     </g>
     <g id="line2d_20">
      <g>
       <use style="stroke:#000000;stroke-width:0.8;" x="63.336875" xlink:href="#m0d1480d670" y="89.979857"/>
      </g>
     </g>
     <g id="text_11">
      <!-- 0.02 -->
      <g transform="translate(31.836875 94.840482)scale(0.14 -0.14)">
       <use xlink:href="#TimesNewRomanPSMT-30"/>
       <use x="50" xlink:href="#TimesNewRomanPSMT-2e"/>
       <use x="75" xlink:href="#TimesNewRomanPSMT-30"/>
       <use x="125" xlink:href="#TimesNewRomanPSMT-32"/>
      </g>
     </g>
    </g>
    <g id="ytick_5">
     <g id="line2d_21">
      <path clip-path="url(#pfa96ad170c)" d="M 63.336875 27.029039 
L 398.136875 27.029039 
" style="fill:none;stroke:#000000;stroke-dasharray:0.5,0.825;stroke-dashoffset:0;stroke-width:0.5;"/>
     </g>
     <g id="line2d_22">
      <g>
       <use style="stroke:#000000;stroke-width:0.8;" x="63.336875" xlink:href="#m0d1480d670" y="27.029039"/>
      </g>
     </g>
     <g id="text_12">
      <!-- 0.04 -->
      <g transform="translate(31.836875 31.889664)scale(0.14 -0.14)">
       <use xlink:href="#TimesNewRomanPSMT-30"/>
       <use x="50" xlink:href="#TimesNewRomanPSMT-2e"/>
       <use x="75" xlink:href="#TimesNewRomanPSMT-30"/>
       <use x="125" xlink:href="#TimesNewRomanPSMT-34"/>
      </g>
     </g>
    </g>
    <g id="text_13">
     <!-- Volatage (V) -->
     <g transform="translate(16.92125 209.352344)rotate(-90)scale(0.14 -0.14)">
      <defs>
       <path d="M 4544 4238 
L 4544 4122 
Q 4319 4081 4203 3978 
Q 4038 3825 3909 3509 
L 2431 -97 
L 2316 -97 
L 728 3556 
Q 606 3838 556 3900 
Q 478 3997 364 4051 
Q 250 4106 56 4122 
L 56 4238 
L 1788 4238 
L 1788 4122 
Q 1494 4094 1406 4022 
Q 1319 3950 1319 3838 
Q 1319 3681 1463 3350 
L 2541 866 
L 3541 3319 
Q 3688 3681 3688 3822 
Q 3688 3913 3597 3995 
Q 3506 4078 3291 4113 
Q 3275 4116 3238 4122 
L 3238 4238 
L 4544 4238 
z
" id="TimesNewRomanPSMT-56" transform="scale(0.015625)"/>
       <path d="M 1600 2947 
Q 2250 2947 2644 2453 
Q 2978 2031 2978 1484 
Q 2978 1100 2793 706 
Q 2609 313 2286 112 
Q 1963 -88 1566 -88 
Q 919 -88 538 428 
Q 216 863 216 1403 
Q 216 1797 411 2186 
Q 606 2575 925 2761 
Q 1244 2947 1600 2947 
z
M 1503 2744 
Q 1338 2744 1170 2645 
Q 1003 2547 900 2300 
Q 797 2053 797 1666 
Q 797 1041 1045 587 
Q 1294 134 1700 134 
Q 2003 134 2200 384 
Q 2397 634 2397 1244 
Q 2397 2006 2069 2444 
Q 1847 2744 1503 2744 
z
" id="TimesNewRomanPSMT-6f" transform="scale(0.015625)"/>
       <path d="M 1184 4444 
L 1184 647 
Q 1184 378 1223 290 
Q 1263 203 1344 158 
Q 1425 113 1647 113 
L 1647 0 
L 244 0 
L 244 113 
Q 441 113 512 153 
Q 584 194 625 287 
Q 666 381 666 647 
L 666 3247 
Q 666 3731 644 3842 
Q 622 3953 573 3993 
Q 525 4034 450 4034 
Q 369 4034 244 3984 
L 191 4094 
L 1044 4444 
L 1184 4444 
z
" id="TimesNewRomanPSMT-6c" transform="scale(0.015625)"/>
       <path d="M 1822 413 
Q 1381 72 1269 19 
Q 1100 -59 909 -59 
Q 613 -59 420 144 
Q 228 347 228 678 
Q 228 888 322 1041 
Q 450 1253 767 1440 
Q 1084 1628 1822 1897 
L 1822 2009 
Q 1822 2438 1686 2597 
Q 1550 2756 1291 2756 
Q 1094 2756 978 2650 
Q 859 2544 859 2406 
L 866 2225 
Q 866 2081 792 2003 
Q 719 1925 600 1925 
Q 484 1925 411 2006 
Q 338 2088 338 2228 
Q 338 2497 613 2722 
Q 888 2947 1384 2947 
Q 1766 2947 2009 2819 
Q 2194 2722 2281 2516 
Q 2338 2381 2338 1966 
L 2338 994 
Q 2338 584 2353 492 
Q 2369 400 2405 369 
Q 2441 338 2488 338 
Q 2538 338 2575 359 
Q 2641 400 2828 588 
L 2828 413 
Q 2478 -56 2159 -56 
Q 2006 -56 1915 50 
Q 1825 156 1822 413 
z
M 1822 616 
L 1822 1706 
Q 1350 1519 1213 1441 
Q 966 1303 859 1153 
Q 753 1003 753 825 
Q 753 600 887 451 
Q 1022 303 1197 303 
Q 1434 303 1822 616 
z
" id="TimesNewRomanPSMT-61" transform="scale(0.015625)"/>
       <path d="M 1031 3803 
L 1031 2863 
L 1700 2863 
L 1700 2644 
L 1031 2644 
L 1031 788 
Q 1031 509 1111 412 
Q 1191 316 1316 316 
Q 1419 316 1516 380 
Q 1613 444 1666 569 
L 1788 569 
Q 1678 263 1478 108 
Q 1278 -47 1066 -47 
Q 922 -47 784 33 
Q 647 113 581 261 
Q 516 409 516 719 
L 516 2644 
L 63 2644 
L 63 2747 
Q 234 2816 414 2980 
Q 594 3144 734 3369 
Q 806 3488 934 3803 
L 1031 3803 
z
" id="TimesNewRomanPSMT-74" transform="scale(0.015625)"/>
       <path d="M 966 1044 
Q 703 1172 562 1401 
Q 422 1631 422 1909 
Q 422 2334 742 2640 
Q 1063 2947 1563 2947 
Q 1972 2947 2272 2747 
L 2878 2747 
Q 3013 2747 3034 2739 
Q 3056 2731 3066 2713 
Q 3084 2684 3084 2613 
Q 3084 2531 3069 2500 
Q 3059 2484 3036 2475 
Q 3013 2466 2878 2466 
L 2506 2466 
Q 2681 2241 2681 1891 
Q 2681 1491 2375 1206 
Q 2069 922 1553 922 
Q 1341 922 1119 984 
Q 981 866 932 777 
Q 884 688 884 625 
Q 884 572 936 522 
Q 988 472 1138 450 
Q 1225 438 1575 428 
Q 2219 413 2409 384 
Q 2700 344 2873 169 
Q 3047 -6 3047 -263 
Q 3047 -616 2716 -925 
Q 2228 -1381 1444 -1381 
Q 841 -1381 425 -1109 
Q 191 -953 191 -784 
Q 191 -709 225 -634 
Q 278 -519 444 -313 
Q 466 -284 763 25 
Q 600 122 533 198 
Q 466 275 466 372 
Q 466 481 555 628 
Q 644 775 966 1044 
z
M 1509 2797 
Q 1278 2797 1122 2612 
Q 966 2428 966 2047 
Q 966 1553 1178 1281 
Q 1341 1075 1591 1075 
Q 1828 1075 1981 1253 
Q 2134 1431 2134 1813 
Q 2134 2309 1919 2591 
Q 1759 2797 1509 2797 
z
M 934 0 
Q 788 -159 713 -296 
Q 638 -434 638 -550 
Q 638 -700 819 -813 
Q 1131 -1006 1722 -1006 
Q 2284 -1006 2551 -807 
Q 2819 -609 2819 -384 
Q 2819 -222 2659 -153 
Q 2497 -84 2016 -72 
Q 1313 -53 934 0 
z
" id="TimesNewRomanPSMT-67" transform="scale(0.015625)"/>
      </defs>
      <use xlink:href="#TimesNewRomanPSMT-56"/>
      <use x="59.341797" xlink:href="#TimesNewRomanPSMT-6f"/>
      <use x="109.341797" xlink:href="#TimesNewRomanPSMT-6c"/>
      <use x="137.125" xlink:href="#TimesNewRomanPSMT-61"/>
      <use x="181.509766" xlink:href="#TimesNewRomanPSMT-74"/>
      <use x="209.292969" xlink:href="#TimesNewRomanPSMT-61"/>
      <use x="253.677734" xlink:href="#TimesNewRomanPSMT-67"/>
      <use x="303.677734" xlink:href="#TimesNewRomanPSMT-65"/>
      <use x="348.0625" xlink:href="#TimesNewRomanPSMT-20"/>
      <use x="373.0625" xlink:href="#TimesNewRomanPSMT-28"/>
      <use x="406.363281" xlink:href="#TimesNewRomanPSMT-56"/>
      <use x="478.580078" xlink:href="#TimesNewRomanPSMT-29"/>
     </g>
    </g>
   </g>
   <g id="LineCollection_1">
    <path clip-path="url(#pfa96ad170c)" d="M 78.555057 152.930676 
L 382.918693 152.930676 
" style="fill:none;stroke:#1f77b4;stroke-width:1.5;"/>
   </g>
   <g id="line2d_23">
    <path clip-path="url(#pfa96ad170c)" d="M 78.555057 152.903607 
L 80.563857 152.903607 
L 80.594293 153.02164 
L 80.655166 152.942951 
L 80.716039 153.02164 
L 80.746475 152.942951 
L 80.929093 153.02164 
L 81.050839 152.942951 
L 81.142148 153.02164 
L 81.263893 152.942951 
L 81.416075 152.982295 
L 81.53782 152.942951 
L 81.659566 152.942951 
L 83.272693 152.903607 
L 83.30313 152.824919 
L 83.333566 152.942951 
L 83.394439 152.864263 
L 83.516184 152.903607 
L 83.668366 152.864263 
L 83.759675 152.942951 
L 83.790111 152.903607 
L 83.911857 152.903607 
L 93.68193 152.824919 
L 93.803675 152.824919 
L 93.92542 152.824919 
L 99.921384 152.785574 
L 99.95182 152.706886 
L 100.012693 152.785574 
L 100.104002 152.785574 
L 100.134439 152.706886 
L 100.164875 152.824919 
L 100.195311 152.785574 
L 111.395893 152.824919 
L 111.456766 152.903607 
L 111.517639 152.864263 
L 112.09593 152.903607 
L 112.126366 152.982295 
L 112.217675 152.942951 
L 112.948148 153.02164 
L 113.10033 153.060984 
L 113.191639 153.02164 
L 113.222075 153.060984 
L 113.617748 153.139673 
L 113.76993 153.179017 
L 114.317784 153.257705 
L 114.43953 153.257705 
L 114.591711 153.29705 
L 114.743893 153.415082 
L 114.865639 153.375738 
L 115.01782 153.493771 
L 115.048257 153.454427 
L 115.35262 153.533115 
L 115.504802 153.572459 
L 115.900475 153.651148 
L 116.083093 153.729836 
L 116.752693 153.808525 
L 116.935311 153.887214 
L 117.057057 153.887214 
L 117.178802 153.965902 
L 117.209239 153.926558 
L 117.483166 154.005246 
L 117.635348 154.044591 
L 118.274511 154.123279 
L 118.45713 154.201968 
L 118.761493 154.280656 
L 118.944111 154.359345 
L 119.37022 154.438033 
L 119.522402 154.556066 
L 119.674584 154.634754 
L 119.826766 154.713443 
L 119.857202 154.674099 
L 119.918075 154.752787 
L 120.100693 154.831476 
L 120.252875 154.910164 
L 120.283311 154.87082 
L 120.344184 154.949509 
L 120.496366 155.028197 
L 120.770293 155.224918 
L 120.861602 155.264263 
L 121.013784 155.382295 
L 122.535602 157.506886 
L 122.748657 157.939672 
L 122.961711 158.372459 
L 123.205202 158.923279 
L 123.38782 159.316721 
L 123.600875 159.906886 
L 124.513966 162.503607 
L 124.787893 163.408525 
L 124.879202 163.683934 
L 127.009748 172.379016 
L 127.435857 174.464262 
L 127.892402 176.667541 
L 129.07942 182.293769 
L 129.201166 182.844589 
L 129.779457 185.283934 
L 131.42302 191.264262 
L 131.51433 191.539672 
L 132.153493 192.995409 
L 132.18393 192.956065 
L 132.214366 193.034754 
L 132.42742 193.349508 
L 132.488293 193.388852 
L 132.670911 193.585573 
L 132.792657 193.664262 
L 132.944839 193.74295 
L 132.975275 193.664262 
L 133.005711 193.782295 
L 133.036148 193.74295 
L 133.279639 193.703606 
L 133.462257 193.506885 
L 134.618839 191.854426 
L 134.892766 191.185573 
L 134.984075 190.988852 
L 135.19713 190.398688 
L 135.684111 188.864262 
L 136.323275 185.952786 
L 137.053748 181.624917 
L 137.54073 178.123279 
L 137.753784 176.510165 
L 139.153857 164.785574 
L 140.79742 146.647869 
L 141.680075 135.120001 
L 142.56273 123.120001 
L 143.90193 104.392136 
L 147.219493 58.752786 
L 148.102148 48.483937 
L 148.680439 42.424924 
L 149.59353 34.123278 
L 150.110948 30.385574 
L 151.389275 24.28721 
L 151.541457 23.933112 
L 151.784948 23.342957 
L 151.84582 23.264265 
L 152.18062 22.674098 
L 152.363239 22.438039 
L 152.545857 22.398689 
L 152.667602 22.32 
L 152.789348 22.32 
L 153.002402 22.398689 
L 153.580693 23.303607 
L 154.037239 24.759351 
L 155.19382 31.290492 
L 155.61993 34.674095 
L 157.567857 55.959344 
L 158.754875 74.372458 
L 162.194184 143.185574 
L 166.211784 234.110163 
L 167.58142 261.769182 
L 168.738002 282.070814 
L 169.407602 292.182289 
L 170.442439 305.362623 
L 171.629457 316.536397 
L 172.238184 320.431466 
L 172.664293 322.516718 
L 173.02953 323.893761 
L 173.69913 324.601961 
L 173.881748 324.680649 
L 174.003493 324.72 
L 174.216548 324.601961 
L 174.36873 324.523282 
L 175.61662 321.021636 
L 176.012293 319.093764 
L 177.503675 308.74623 
L 178.081966 303.434751 
L 179.451602 288.12984 
L 180.364693 276.287208 
L 182.708293 241.428195 
L 188.43033 147.041312 
L 189.039057 138.700328 
L 191.139166 110.411805 
L 192.44793 94.910166 
L 193.208839 87.316723 
L 194.03062 79.919999 
L 197.04382 57.375737 
L 197.226439 56.23476 
L 197.71342 53.283937 
L 198.261275 51.001967 
L 200.300511 43.487219 
L 200.39182 43.25115 
L 200.665748 42.582304 
L 201.000548 41.992134 
L 201.670148 40.53639 
L 201.82233 40.457711 
L 201.913639 40.41836 
L 201.944075 40.457711 
L 202.370184 40.379022 
L 202.552802 40.300334 
L 202.644111 40.300334 
L 202.765857 40.182304 
L 202.796293 40.260983 
L 202.857166 40.142954 
L 203.009348 40.182304 
L 203.16153 40.260983 
L 203.49633 40.53639 
L 203.587639 40.53639 
L 203.73982 40.654432 
L 204.226802 40.733121 
L 204.83553 41.677377 
L 205.200766 42.385573 
L 205.292075 42.424924 
L 206.661711 45.729839 
L 206.692148 45.729839 
L 206.966075 46.359347 
L 207.453057 47.89377 
L 207.879166 49.113445 
L 208.335711 50.529839 
L 208.883566 52.811809 
L 211.318475 62.647871 
L 211.592402 63.946229 
L 212.44462 67.68394 
L 213.388148 73.113445 
L 215.153457 85.231477 
L 219.353675 124.182296 
L 221.362475 146.333115 
L 221.81902 151.369181 
L 222.671239 161.913443 
L 223.736511 175.565901 
L 224.466984 184.457705 
L 224.92353 190.32 
L 225.988802 203.972458 
L 227.754111 227.500327 
L 229.428111 247.762625 
L 231.376039 266.7659 
L 232.076075 272.116716 
L 233.62833 281.480657 
L 234.63273 284.982293 
L 235.424075 285.84787 
L 235.54582 285.926558 
L 235.63713 286.005247 
L 235.667566 285.965896 
L 235.88062 285.84787 
L 235.941493 285.769178 
L 236.154548 285.375742 
L 236.428475 284.706883 
L 236.580657 284.352785 
L 237.615493 279.906883 
L 239.259057 268.615083 
L 240.90262 252.759343 
L 241.57222 244.772454 
L 242.424439 234.188851 
L 243.215784 223.762622 
L 244.220184 211.054429 
L 245.620257 191.539672 
L 246.959457 170.923279 
L 248.146475 152.824919 
L 249.516111 133.270821 
L 251.37273 110.687214 
L 252.559748 99.552792 
L 253.259784 94.162625 
L 254.538111 86.569182 
L 256.607784 78.897051 
L 256.63822 78.897051 
L 256.820839 78.582297 
L 256.912148 78.503605 
L 257.094766 78.228199 
L 257.155639 78.149507 
L 257.581748 77.716726 
L 257.673057 77.716726 
L 257.794802 77.638035 
L 257.825239 77.677379 
L 257.886111 77.598691 
L 258.220911 77.638035 
L 258.251348 77.716726 
L 258.342657 77.677379 
L 258.555711 77.598691 
L 258.768766 77.480655 
L 260.381893 77.520002 
L 260.534075 77.677379 
L 260.65582 77.756071 
L 261.021057 78.070825 
L 261.173239 78.149507 
L 261.41673 78.503605 
L 261.873275 79.25115 
L 263.821202 84.562625 
L 266.043057 93.611805 
L 267.625748 102.30689 
L 268.204039 105.965903 
L 268.660584 108.877378 
L 269.330184 113.205247 
L 271.582475 128.431475 
L 272.221639 133.270821 
L 274.443493 146.962624 
L 274.80873 148.77246 
L 275.234839 150.857705 
L 278.643711 163.64459 
L 278.674148 163.64459 
L 279.06982 164.74623 
L 279.73942 166.201967 
L 279.922039 166.59541 
L 280.317711 167.34295 
L 281.048184 168.444591 
L 281.41342 169.113443 
L 282.143893 169.900328 
L 282.204766 169.979016 
L 282.630875 170.372458 
L 282.691748 170.451148 
L 282.813493 170.490492 
L 282.935239 170.490492 
L 284.030948 170.411803 
L 284.274439 170.254427 
L 284.365748 170.175738 
L 284.639675 169.979016 
L 284.730984 169.979016 
L 284.85273 169.782295 
L 284.883166 169.82164 
L 284.944039 169.742951 
L 285.309275 169.428196 
L 285.370148 169.428196 
L 285.583202 169.034755 
L 285.644075 168.956066 
L 286.222366 168.051147 
L 286.557166 167.460984 
L 286.831093 166.949508 
L 287.287639 166.04459 
L 287.348511 165.965902 
L 287.592002 165.415082 
L 287.652875 165.375738 
L 288.018111 164.706886 
L 288.078984 164.667541 
L 288.292039 164.274099 
L 288.352911 164.19541 
L 289.326875 163.093771 
L 289.479057 163.054426 
L 289.631239 162.936394 
L 289.813857 162.857705 
L 289.996475 162.779016 
L 290.422584 162.857705 
L 290.818257 163.211803 
L 290.848693 163.172459 
L 290.87913 163.290492 
L 291.000875 163.369181 
L 291.670475 164.392131 
L 292.79662 167.539672 
L 293.192293 169.034755 
L 293.55753 170.254427 
L 296.388111 181.664262 
L 296.753348 183.041311 
L 297.027275 184.024917 
L 298.122984 187.841311 
L 298.518657 189.139672 
L 299.036075 190.752787 
L 299.279566 191.224918 
L 300.375275 193.782295 
L 301.075311 194.84459 
L 301.318802 195.356065 
L 301.349239 195.316721 
L 301.379675 195.395409 
L 301.714475 195.670819 
L 301.775348 195.631475 
L 301.805784 195.710163 
L 301.957966 195.788852 
L 302.384075 196.182295 
L 302.444948 196.260983 
L 302.84062 196.654426 
L 302.871057 196.615081 
L 302.93193 196.69377 
L 303.205857 196.890491 
L 303.51022 196.96918 
L 303.723275 197.087213 
L 303.84502 197.087213 
L 304.027639 197.165901 
L 304.392875 197.087213 
L 304.758111 196.733114 
L 304.788548 196.772459 
L 304.84942 196.69377 
L 305.305966 196.260983 
L 305.366839 196.221639 
L 305.549457 196.024918 
L 305.975566 195.356065 
L 306.27993 194.608524 
L 306.432111 194.29377 
L 306.706039 193.624918 
L 306.85822 193.270819 
L 309.475748 182.687213 
L 310.723639 175.683934 
L 312.001966 166.713442 
L 314.589057 147.513443 
L 315.258657 142.516722 
L 315.836948 138.188853 
L 316.354366 135.001968 
L 316.963093 131.106886 
L 317.054402 130.674099 
L 317.57182 128.038035 
L 320.189348 114.975739 
L 320.25022 114.739673 
L 322.045966 108.208526 
L 322.380766 107.067542 
L 322.898184 105.493772 
L 323.26342 104.2741 
L 323.659093 102.779015 
L 323.719966 102.582297 
L 324.02433 101.559346 
L 324.541748 99.985572 
L 324.846111 98.962621 
L 325.546148 97.428201 
L 325.911384 96.838031 
L 326.094002 96.562625 
L 326.185311 96.483933 
L 326.520111 96.208526 
L 326.733166 96.129835 
L 326.94622 96.011805 
L 327.250584 95.933116 
L 327.37233 95.893772 
L 327.554948 95.972461 
L 327.646257 95.933116 
L 327.676693 95.972461 
L 327.828875 96.051152 
L 328.072366 96.24787 
L 328.194111 96.24787 
L 328.315857 96.326559 
L 328.71153 96.680657 
L 328.772402 96.720002 
L 329.107202 97.310166 
L 329.320257 97.742952 
L 330.415966 100.851149 
L 330.781202 102.188854 
L 333.611784 113.59869 
L 339.881675 146.569181 
L 340.399093 149.205247 
L 341.00782 151.959345 
L 341.464366 154.201968 
L 342.164402 157.349509 
L 342.864439 160.418361 
L 343.077493 161.244591 
L 344.934111 168.051147 
L 345.055857 168.326557 
L 345.299348 169.074098 
L 346.151566 171.552787 
L 346.668984 173.126558 
L 347.186402 174.700327 
L 347.429893 175.487212 
L 347.46033 175.487212 
L 347.856002 176.588853 
L 347.886439 176.588853 
L 348.099493 177.139672 
L 348.251675 177.49377 
L 348.647348 178.280656 
L 348.70822 178.359344 
L 348.982148 178.792131 
L 349.347384 179.421639 
L 349.651748 179.933115 
L 349.71262 179.97246 
L 349.956111 180.365903 
L 349.986548 180.365903 
L 350.169166 180.641312 
L 351.417057 182.175738 
L 351.447493 182.136392 
L 351.538802 182.215082 
L 351.782293 182.411804 
L 351.904039 182.411804 
L 351.995348 182.529836 
L 352.025784 182.490491 
L 352.269275 182.529836 
L 352.360584 182.608526 
L 352.39102 182.569181 
L 352.81713 182.529836 
L 352.938875 182.451146 
L 353.06062 182.451146 
L 353.425857 182.372459 
L 353.638911 182.254427 
L 353.851966 182.215082 
L 353.973711 182.097051 
L 354.034584 182.136392 
L 354.06502 182.057705 
L 354.369384 182.01836 
L 354.460693 181.939671 
L 354.49113 181.979016 
L 354.673748 181.900329 
L 356.012948 181.939671 
L 356.043384 182.01836 
L 356.134693 181.979016 
L 356.347748 182.057705 
L 356.469493 182.097051 
L 356.49993 182.057705 
L 356.560802 182.136392 
L 357.017348 182.215082 
L 357.139093 182.293769 
L 357.382584 182.372459 
L 357.565202 182.451146 
L 357.778257 182.490491 
L 357.930439 182.608526 
L 358.021748 182.529836 
L 358.052184 182.608526 
L 359.452257 182.569181 
L 359.574002 182.490491 
L 360.456657 182.411804 
L 360.578402 182.333114 
L 360.639275 182.293769 
L 360.791457 182.175738 
L 361.126257 181.900329 
L 361.156693 181.939671 
L 361.217566 181.860984 
L 362.891566 179.539671 
L 363.378548 178.556065 
L 363.835093 177.808525 
L 364.078584 177.297048 
L 364.53513 176.549508 
L 364.77862 176.156066 
L 364.809057 176.156066 
L 364.991675 175.801967 
L 365.082984 175.723279 
L 365.356911 175.290492 
L 365.44822 175.211804 
L 366.909166 173.480656 
L 366.939602 173.52 
L 366.970039 173.480656 
L 367.183093 173.205246 
L 367.304839 173.126558 
L 367.487457 172.851148 
L 367.609202 172.772459 
L 367.79182 172.536393 
L 367.974439 172.457704 
L 368.157057 172.339672 
L 368.187493 172.379016 
L 368.248366 172.300328 
L 368.370111 172.221639 
L 368.735348 171.906886 
L 368.826657 171.828197 
L 369.070148 171.631476 
L 369.100584 171.670819 
L 369.13102 171.552787 
L 369.161457 171.592131 
L 369.313639 171.434754 
L 369.404948 171.513442 
L 369.526693 171.434754 
L 369.587566 171.395411 
L 369.739748 171.277377 
L 370.13542 170.923279 
L 370.22673 170.84459 
L 370.378911 170.726557 
L 370.987639 170.09705 
L 371.048511 170.018361 
L 371.748548 169.270819 
L 371.80942 169.192131 
L 372.509457 168.405246 
L 372.539893 168.444591 
L 372.57033 168.365902 
L 374.24433 166.04459 
L 374.700875 165.139673 
L 374.974802 164.628197 
L 375.24873 163.959344 
L 375.400911 163.64459 
L 375.58353 163.133115 
L 375.887893 162.346229 
L 375.91833 162.346229 
L 376.25313 161.441312 
L 376.405311 161.087213 
L 376.892293 159.552787 
L 377.287966 158.411804 
L 377.409711 158.09705 
L 378.109748 156.011804 
L 378.59673 154.556066 
L 379.17502 152.785574 
L 380.240293 149.047869 
L 380.301166 148.851148 
L 380.727275 147.198689 
L 381.031639 146.136394 
L 382.918693 138.582296 
L 382.918693 138.582296 
" style="fill:none;stroke:#0000ff;stroke-linecap:square;stroke-width:1.5;"/>
   </g>
   <g id="line2d_24">
    <path clip-path="url(#pfa96ad170c)" d="M 78.555057 152.860014 
L 78.798548 152.899358 
L 78.981166 152.899358 
L 99.982257 152.978046 
L 100.164875 153.037063 
L 100.28662 153.056735 
L 100.743166 153.253456 
L 100.834475 153.312473 
L 100.986657 153.391161 
L 101.260584 153.587882 
L 101.38233 153.686243 
L 102.96502 155.909194 
L 103.63462 157.44362 
L 104.517275 160.020669 
L 105.339057 163.050177 
L 106.343457 167.358374 
L 106.952184 170.250177 
L 108.108766 175.679685 
L 108.74793 178.59116 
L 110.056693 184.000995 
L 111.395893 187.955095 
L 111.66982 188.486242 
L 112.33942 189.56821 
L 112.522039 189.804275 
L 112.917711 190.158373 
L 113.00902 190.138701 
L 113.039457 190.178046 
L 113.313384 190.119029 
L 113.587311 190.020669 
L 113.800366 189.843619 
L 113.952548 189.745259 
L 114.622148 188.702636 
L 115.01782 187.600996 
L 115.717857 185.496079 
L 117.02662 179.063292 
L 118.000584 172.76821 
L 119.79633 159.233784 
L 122.231239 137.86985 
L 124.209602 119.77149 
L 125.548802 109.423949 
L 126.461893 103.719031 
L 128.348948 94.512477 
L 129.444657 90.676408 
L 129.901202 89.791162 
L 130.114257 89.535422 
L 130.996911 88.57149 
L 131.240402 88.532146 
L 131.696948 88.433789 
L 131.970875 88.138703 
L 132.457857 87.627225 
L 132.549166 87.666569 
L 132.579602 87.627225 
L 132.914402 87.725592 
L 133.127457 87.823949 
L 133.370948 87.863294 
L 133.584002 87.843618 
L 133.797057 87.863294 
L 133.949239 87.941985 
L 134.649275 88.669851 
L 135.044948 88.807556 
L 135.501493 88.886244 
L 136.505893 90.007556 
L 137.11462 90.499359 
L 138.484257 93.37149 
L 140.310439 102.145264 
L 142.958402 118.138703 
L 145.119384 135.37149 
L 145.849857 140.741982 
L 149.350039 171.410832 
L 152.363239 195.804275 
L 153.367639 202.178045 
L 155.28513 210.361655 
L 155.650366 211.168209 
L 156.137348 211.974766 
L 156.411275 212.407556 
L 156.746075 212.682963 
L 157.902657 212.584606 
L 158.572257 211.54198 
L 160.185384 208.197717 
L 160.794111 206.604275 
L 161.31153 204.971488 
L 163.624693 195.587882 
L 165.57262 184.945259 
L 167.033566 177.096079 
L 167.91622 173.082964 
L 168.92062 170.210833 
L 169.377166 169.286243 
L 169.59022 169.030505 
L 170.168511 168.460013 
L 170.320693 168.361653 
L 170.59462 168.302636 
L 171.081602 168.71575 
L 171.477275 169.246898 
L 172.02513 170.132144 
L 172.633857 171.981325 
L 173.059966 173.41739 
L 173.36433 174.499358 
L 174.307857 178.59116 
L 176.073166 188.269849 
L 178.173275 202.551816 
L 178.812439 207.371488 
L 179.72553 213.076406 
L 180.425566 216.558373 
L 181.125602 219.155097 
L 181.612584 221.122307 
L 182.40393 223.443615 
L 182.799602 224.545258 
L 183.256148 225.194438 
L 183.834439 225.096081 
L 184.199675 224.741982 
L 184.65622 223.994438 
L 185.173639 222.400996 
L 186.056293 217.935422 
L 186.725893 212.938704 
L 187.76073 203.358373 
L 190.165202 174.105914 
L 191.839202 147.56821 
L 194.974148 100.650179 
L 196.13073 86.387887 
L 198.04822 66.479687 
L 200.178766 49.463298 
L 201.670148 41.378046 
L 202.583239 38.781327 
L 202.948475 38.289524 
L 204.196366 37.601003 
L 204.348548 37.699357 
L 204.805093 38.466567 
L 205.200766 39.469849 
L 205.474693 40.453455 
L 206.539966 46.532144 
L 209.127057 63.961652 
L 209.827093 68.978045 
L 210.19233 71.712474 
L 213.144657 95.594441 
L 220.205893 149.496079 
L 222.91473 166.296079 
L 224.16262 173.319029 
L 226.384475 185.594438 
L 227.328002 189.902636 
L 228.454148 194.505914 
L 230.432511 200.545258 
L 232.045639 203.889521 
L 232.380439 204.755091 
L 232.86742 205.915747 
L 233.232657 206.722311 
L 233.597893 207.646895 
L 234.450111 210.027225 
L 236.367602 214.68952 
L 237.402439 216.460012 
L 238.498148 217.699356 
L 238.680766 217.797717 
L 238.863384 217.896075 
L 239.015566 217.896075 
L 239.22862 217.91575 
L 240.628693 218.014111 
L 240.90262 218.092799 
L 241.054802 218.112471 
L 241.57222 218.34854 
L 241.693966 218.368209 
L 242.028766 218.486245 
L 242.180948 218.505914 
L 242.698366 218.722307 
L 242.880984 218.820668 
L 243.24622 219.11575 
L 243.459275 219.351815 
L 244.220184 220.59116 
L 244.554984 221.200996 
L 245.224584 222.735419 
L 245.955057 224.348537 
L 246.137675 224.741982 
L 246.807275 226.197714 
L 247.081202 226.728861 
L 248.60302 229.443622 
L 248.907384 229.758376 
L 249.303057 230.092799 
L 250.155275 230.525586 
L 251.342293 230.446897 
L 251.677093 230.191156 
L 251.920584 229.91575 
L 252.894548 227.810832 
L 253.777202 224.584602 
L 254.598984 220.984602 
L 255.481639 215.850173 
L 256.30342 209.830507 
L 257.338257 200.978045 
L 258.890511 184.866569 
L 259.864475 172.964931 
L 261.599348 149.122309 
L 267.260511 66.617392 
L 268.69102 51.155098 
L 270.547639 37.601003 
L 271.430293 34.119032 
L 272.586875 32.073131 
L 273.13473 32.171498 
L 273.439093 32.46657 
L 274.413057 34.59116 
L 275.72182 41.004284 
L 277.121893 50.741986 
L 278.674148 64.709196 
L 281.809093 98.250179 
L 284.822293 132.027227 
L 286.800657 152.54526 
L 289.53993 179.732144 
L 291.274802 194.446898 
L 293.344475 209.633783 
L 294.166257 214.25673 
L 295.47502 219.66657 
L 296.022875 221.378045 
L 297.270766 225.037061 
L 298.396911 227.004277 
L 299.614366 227.692799 
L 299.857857 227.653455 
L 299.949166 227.614107 
L 300.436148 227.181327 
L 301.379675 225.784602 
L 302.962366 221.417392 
L 303.905893 216.65673 
L 305.062475 208.473127 
L 309.53662 174.61739 
L 312.275893 159.332145 
L 313.462911 153.450177 
L 315.22822 144.873129 
L 316.99353 138.460014 
L 318.637093 133.502637 
L 319.124075 132.341982 
L 319.763239 130.630505 
L 320.493711 128.978046 
L 321.285057 126.794441 
L 322.472075 124.276407 
L 322.776439 123.627227 
L 323.172111 122.938703 
L 324.35913 120.400998 
L 326.398366 114.853457 
L 326.763602 113.830506 
L 327.402766 112.355096 
L 329.259384 107.850178 
L 329.350693 107.673129 
L 330.96382 104.761657 
L 331.207311 104.486241 
L 331.694293 104.033785 
L 332.333457 103.719031 
L 332.485639 103.719031 
L 332.698693 103.699362 
L 333.459602 103.797719 
L 334.342257 104.466572 
L 336.138002 108.184605 
L 337.99462 113.279686 
L 338.877275 116.505916 
L 339.790366 120.479686 
L 340.733893 125.260015 
L 343.68622 143.082965 
L 344.599311 149.6928 
L 345.329784 155.653456 
L 346.668984 166.76821 
L 348.008184 177.096079 
L 349.71262 190.000996 
L 350.747457 197.181324 
L 353.212802 212.407556 
L 354.095457 216.400999 
L 356.226002 224.230504 
L 356.621675 224.95837 
L 357.443457 225.843615 
L 357.74782 225.922307 
L 358.113057 225.823946 
L 358.600039 225.627228 
L 358.75222 225.548537 
L 359.330511 224.68296 
L 359.908802 222.873124 
L 360.395784 220.945258 
L 361.43062 215.751816 
L 363.561166 202.728865 
L 365.022111 191.378046 
L 366.756984 177.096079 
L 372.23553 125.063293 
L 374.092148 110.368211 
L 375.370475 102.066572 
L 376.040075 98.545257 
L 376.466184 96.460012 
L 378.079311 89.633788 
L 379.479384 86.28952 
L 380.331602 85.364936 
L 380.879457 85.128867 
L 381.062075 85.128867 
L 381.457748 85.227225 
L 381.640366 85.364936 
L 382.096911 85.758372 
L 382.492584 86.309195 
L 382.644766 86.525592 
L 382.918693 86.997717 
L 382.918693 86.997717 
" style="fill:none;stroke:#ff0000;stroke-linecap:square;stroke-width:1.5;"/>
   </g>
   <g id="line2d_25">
    <path clip-path="url(#pfa96ad170c)" d="M 124.209602 161.598689 
" style="fill:none;stroke:#ffffff;stroke-linecap:square;stroke-width:1.5;"/>
    <defs>
     <path d="M 0 -5 
L -1.12257 -1.545085 
L -4.755283 -1.545085 
L -1.816356 0.59017 
L -2.938926 4.045085 
L -0 1.90983 
L 2.938926 4.045085 
L 1.816356 0.59017 
L 4.755283 -1.545085 
L 1.12257 -1.545085 
z
" id="m96ecc727b6" style="stroke:#ffffff;stroke-linejoin:bevel;"/>
    </defs>
    <g clip-path="url(#pfa96ad170c)">
     <use style="fill:#0000ff;stroke:#ffffff;stroke-linejoin:bevel;" x="124.209602" xlink:href="#m96ecc727b6" y="161.598689"/>
    </g>
   </g>
   <g id="line2d_26">
    <path clip-path="url(#pfa96ad170c)" d="M 104.182475 158.978046 
" style="fill:none;stroke:#ffffff;stroke-linecap:square;stroke-width:1.5;"/>
    <defs>
     <path d="M 0 -5 
L -1.12257 -1.545085 
L -4.755283 -1.545085 
L -1.816356 0.59017 
L -2.938926 4.045085 
L -0 1.90983 
L 2.938926 4.045085 
L 1.816356 0.59017 
L 4.755283 -1.545085 
L 1.12257 -1.545085 
z
" id="madff91edf4" style="stroke:#ffffff;stroke-linejoin:bevel;"/>
    </defs>
    <g clip-path="url(#pfa96ad170c)">
     <use style="fill:#ff0000;stroke:#ffffff;stroke-linejoin:bevel;" x="104.182475" xlink:href="#madff91edf4" y="158.978046"/>
    </g>
   </g>
   <g id="patch_3">
    <path d="M 63.336875 339.84 
L 63.336875 7.2 
" style="fill:none;stroke:#000000;stroke-linecap:square;stroke-linejoin:miter;stroke-width:0.8;"/>
   </g>
   <g id="patch_4">
    <path d="M 398.136875 339.84 
L 398.136875 7.2 
" style="fill:none;stroke:#000000;stroke-linecap:square;stroke-linejoin:miter;stroke-width:0.8;"/>
   </g>
   <g id="patch_5">
    <path d="M 63.336875 339.84 
L 398.136875 339.84 
" style="fill:none;stroke:#000000;stroke-linecap:square;stroke-linejoin:miter;stroke-width:0.8;"/>
   </g>
   <g id="patch_6">
    <path d="M 63.336875 7.2 
L 398.136875 7.2 
" style="fill:none;stroke:#000000;stroke-linecap:square;stroke-linejoin:miter;stroke-width:0.8;"/>
   </g>
   <g id="text_14">
    <g id="patch_7">
     <path d="M 75.036875 331.242688 
L 166.79375 331.242688 
L 166.79375 293.760312 
L 75.036875 293.760312 
z
" style="fill:#ffffff;stroke:#000000;stroke-linejoin:miter;stroke-width:0.75;"/>
    </g>
    <!-- Auto_00127 -->
    <g transform="translate(80.076875 308.521562)scale(0.14 -0.14)">
     <defs>
      <path d="M 2928 1419 
L 1288 1419 
L 1000 750 
Q 894 503 894 381 
Q 894 284 986 211 
Q 1078 138 1384 116 
L 1384 0 
L 50 0 
L 50 116 
Q 316 163 394 238 
Q 553 388 747 847 
L 2238 4334 
L 2347 4334 
L 3822 809 
Q 4000 384 4145 257 
Q 4291 131 4550 116 
L 4550 0 
L 2878 0 
L 2878 116 
Q 3131 128 3220 200 
Q 3309 272 3309 375 
Q 3309 513 3184 809 
L 2928 1419 
z
M 2841 1650 
L 2122 3363 
L 1384 1650 
L 2841 1650 
z
" id="TimesNewRomanPSMT-41" transform="scale(0.015625)"/>
      <path d="M 2709 2863 
L 2709 1128 
Q 2709 631 2732 520 
Q 2756 409 2807 365 
Q 2859 322 2928 322 
Q 3025 322 3147 375 
L 3191 266 
L 2334 -88 
L 2194 -88 
L 2194 519 
Q 1825 119 1631 15 
Q 1438 -88 1222 -88 
Q 981 -88 804 51 
Q 628 191 559 409 
Q 491 628 491 1028 
L 491 2306 
Q 491 2509 447 2587 
Q 403 2666 317 2708 
Q 231 2750 6 2747 
L 6 2863 
L 1009 2863 
L 1009 947 
Q 1009 547 1148 422 
Q 1288 297 1484 297 
Q 1619 297 1789 381 
Q 1959 466 2194 703 
L 2194 2325 
Q 2194 2569 2105 2655 
Q 2016 2741 1734 2747 
L 1734 2863 
L 2709 2863 
z
" id="TimesNewRomanPSMT-75" transform="scale(0.015625)"/>
      <path d="M 3256 -1381 
L -53 -1381 
L -53 -1119 
L 3256 -1119 
L 3256 -1381 
z
" id="TimesNewRomanPSMT-5f" transform="scale(0.015625)"/>
      <path d="M 644 4238 
L 2916 4238 
L 2916 4119 
L 1503 -88 
L 1153 -88 
L 2419 3728 
L 1253 3728 
Q 900 3728 750 3644 
Q 488 3500 328 3200 
L 238 3234 
L 644 4238 
z
" id="TimesNewRomanPSMT-37" transform="scale(0.015625)"/>
     </defs>
     <use xlink:href="#TimesNewRomanPSMT-41"/>
     <use x="72.216797" xlink:href="#TimesNewRomanPSMT-75"/>
     <use x="122.216797" xlink:href="#TimesNewRomanPSMT-74"/>
     <use x="150" xlink:href="#TimesNewRomanPSMT-6f"/>
     <use x="200" xlink:href="#TimesNewRomanPSMT-5f"/>
     <use x="250" xlink:href="#TimesNewRomanPSMT-30"/>
     <use x="300" xlink:href="#TimesNewRomanPSMT-30"/>
     <use x="350" xlink:href="#TimesNewRomanPSMT-31"/>
     <use x="400" xlink:href="#TimesNewRomanPSMT-32"/>
     <use x="450" xlink:href="#TimesNewRomanPSMT-37"/>
    </g>
    <!-- Vs: 303.77m/s -->
    <g transform="translate(80.076875 323.208)scale(0.14 -0.14)">
     <defs>
      <path d="M 903 2950 
Q 1047 2950 1148 2848 
Q 1250 2747 1250 2603 
Q 1250 2459 1148 2357 
Q 1047 2256 903 2256 
Q 759 2256 657 2357 
Q 556 2459 556 2603 
Q 556 2747 657 2848 
Q 759 2950 903 2950 
z
M 897 609 
Q 1044 609 1145 506 
Q 1247 403 1247 259 
Q 1247 116 1144 14 
Q 1041 -88 897 -88 
Q 753 -88 651 14 
Q 550 116 550 259 
Q 550 403 651 506 
Q 753 609 897 609 
z
" id="TimesNewRomanPSMT-3a" transform="scale(0.015625)"/>
      <path d="M 1794 4444 
L 259 -88 
L 9 -88 
L 1544 4444 
L 1794 4444 
z
" id="TimesNewRomanPSMT-2f" transform="scale(0.015625)"/>
     </defs>
     <use xlink:href="#TimesNewRomanPSMT-56"/>
     <use x="72.216797" xlink:href="#TimesNewRomanPSMT-73"/>
     <use x="111.132812" xlink:href="#TimesNewRomanPSMT-3a"/>
     <use x="138.916016" xlink:href="#TimesNewRomanPSMT-20"/>
     <use x="163.916016" xlink:href="#TimesNewRomanPSMT-33"/>
     <use x="213.916016" xlink:href="#TimesNewRomanPSMT-30"/>
     <use x="263.916016" xlink:href="#TimesNewRomanPSMT-33"/>
     <use x="313.916016" xlink:href="#TimesNewRomanPSMT-2e"/>
     <use x="338.916016" xlink:href="#TimesNewRomanPSMT-37"/>
     <use x="388.916016" xlink:href="#TimesNewRomanPSMT-37"/>
     <use x="438.916016" xlink:href="#TimesNewRomanPSMT-6d"/>
     <use x="516.699219" xlink:href="#TimesNewRomanPSMT-2f"/>
     <use x="544.482422" xlink:href="#TimesNewRomanPSMT-73"/>
    </g>
   </g>
  </g>
 </g>
 <defs>
  <clipPath id="pfa96ad170c">
   <rect height="332.64" width="334.8" x="63.336875" y="7.2"/>
  </clipPath>
 </defs>
</svg>
