<?xml version="1.0" encoding="utf-8" standalone="no"?>
<!DOCTYPE svg PUBLIC "-//W3C//DTD SVG 1.1//EN"
  "http://www.w3.org/Graphics/SVG/1.1/DTD/svg11.dtd">
<svg height="388.190041pt" version="1.1" viewBox="0 0 421.086875 388.190041" width="421.086875pt" xmlns="http://www.w3.org/2000/svg" xmlns:xlink="http://www.w3.org/1999/xlink">
 <metadata>
  <rdf:RDF xmlns:cc="http://creativecommons.org/ns#" xmlns:dc="http://purl.org/dc/elements/1.1/" xmlns:rdf="http://www.w3.org/1999/02/22-rdf-syntax-ns#">
   <cc:Work>
    <dc:type rdf:resource="http://purl.org/dc/dcmitype/StillImage"/>
    <dc:date>2021-06-11T14:39:38.854770</dc:date>
    <dc:format>image/svg+xml</dc:format>
    <dc:creator>
     <cc:Agent>
      <dc:title>Matplotlib v3.4.2, https://matplotlib.org/</dc:title>
     </cc:Agent>
    </dc:creator>
   </cc:Work>
  </rdf:RDF>
 </metadata>
 <defs>
  <style type="text/css">*{stroke-linecap:butt;stroke-linejoin:round;}</style>
 </defs>
 <g id="figure_1">
  <g id="patch_1">
   <path d="M 0 388.190041 
L 421.086875 388.190041 
L 421.086875 0 
L 0 0 
z
" style="fill:#ffffff;"/>
  </g>
  <g id="axes_1">
   <g id="patch_2">
    <path d="M 63.336875 344.558166 
L 398.136875 344.558166 
L 398.136875 11.918166 
L 63.336875 11.918166 
z
" style="fill:#ffffff;"/>
   </g>
   <g id="matplotlib.axis_1">
    <g id="xtick_1">
     <g id="line2d_1">
      <path clip-path="url(#p8de353d540)" d="M 93.773239 344.558166 
L 93.773239 11.918166 
" style="fill:none;stroke:#000000;stroke-dasharray:0.5,0.825;stroke-dashoffset:0;stroke-width:0.5;"/>
     </g>
     <g id="line2d_2">
      <defs>
       <path d="M 0 0 
L 0 3.5 
" id="ma18beb5726" style="stroke:#000000;stroke-width:0.8;"/>
      </defs>
      <g>
       <use style="stroke:#000000;stroke-width:0.8;" x="93.773239" xlink:href="#ma18beb5726" y="344.558166"/>
      </g>
     </g>
     <g id="text_1">
      <!-- 0.000 -->
      <g transform="translate(78.023239 361.279416)scale(0.14 -0.14)">
       <defs>
        <path d="M 231 2094 
Q 231 2819 450 3342 
Q 669 3866 1031 4122 
Q 1313 4325 1613 4325 
Q 2100 4325 2488 3828 
Q 2972 3213 2972 2159 
Q 2972 1422 2759 906 
Q 2547 391 2217 158 
Q 1888 -75 1581 -75 
Q 975 -75 572 641 
Q 231 1244 231 2094 
z
M 844 2016 
Q 844 1141 1059 588 
Q 1238 122 1591 122 
Q 1759 122 1940 273 
Q 2122 425 2216 781 
Q 2359 1319 2359 2297 
Q 2359 3022 2209 3506 
Q 2097 3866 1919 4016 
Q 1791 4119 1609 4119 
Q 1397 4119 1231 3928 
Q 1006 3669 925 3112 
Q 844 2556 844 2016 
z
" id="TimesNewRomanPSMT-30" transform="scale(0.015625)"/>
        <path d="M 800 606 
Q 947 606 1047 504 
Q 1147 403 1147 259 
Q 1147 116 1045 14 
Q 944 -88 800 -88 
Q 656 -88 554 14 
Q 453 116 453 259 
Q 453 406 554 506 
Q 656 606 800 606 
z
" id="TimesNewRomanPSMT-2e" transform="scale(0.015625)"/>
       </defs>
       <use xlink:href="#TimesNewRomanPSMT-30"/>
       <use x="50" xlink:href="#TimesNewRomanPSMT-2e"/>
       <use x="75" xlink:href="#TimesNewRomanPSMT-30"/>
       <use x="125" xlink:href="#TimesNewRomanPSMT-30"/>
       <use x="175" xlink:href="#TimesNewRomanPSMT-30"/>
      </g>
     </g>
    </g>
    <g id="xtick_2">
     <g id="line2d_3">
      <path clip-path="url(#p8de353d540)" d="M 154.645966 344.558166 
L 154.645966 11.918166 
" style="fill:none;stroke:#000000;stroke-dasharray:0.5,0.825;stroke-dashoffset:0;stroke-width:0.5;"/>
     </g>
     <g id="line2d_4">
      <g>
       <use style="stroke:#000000;stroke-width:0.8;" x="154.645966" xlink:href="#ma18beb5726" y="344.558166"/>
      </g>
     </g>
     <g id="text_2">
      <!-- 0.001 -->
      <g transform="translate(138.895966 361.279416)scale(0.14 -0.14)">
       <defs>
        <path d="M 750 3822 
L 1781 4325 
L 1884 4325 
L 1884 747 
Q 1884 391 1914 303 
Q 1944 216 2037 169 
Q 2131 122 2419 116 
L 2419 0 
L 825 0 
L 825 116 
Q 1125 122 1212 167 
Q 1300 213 1334 289 
Q 1369 366 1369 747 
L 1369 3034 
Q 1369 3497 1338 3628 
Q 1316 3728 1258 3775 
Q 1200 3822 1119 3822 
Q 1003 3822 797 3725 
L 750 3822 
z
" id="TimesNewRomanPSMT-31" transform="scale(0.015625)"/>
       </defs>
       <use xlink:href="#TimesNewRomanPSMT-30"/>
       <use x="50" xlink:href="#TimesNewRomanPSMT-2e"/>
       <use x="75" xlink:href="#TimesNewRomanPSMT-30"/>
       <use x="125" xlink:href="#TimesNewRomanPSMT-30"/>
       <use x="175" xlink:href="#TimesNewRomanPSMT-31"/>
      </g>
     </g>
    </g>
    <g id="xtick_3">
     <g id="line2d_5">
      <path clip-path="url(#p8de353d540)" d="M 215.518693 344.558166 
L 215.518693 11.918166 
" style="fill:none;stroke:#000000;stroke-dasharray:0.5,0.825;stroke-dashoffset:0;stroke-width:0.5;"/>
     </g>
     <g id="line2d_6">
      <g>
       <use style="stroke:#000000;stroke-width:0.8;" x="215.518693" xlink:href="#ma18beb5726" y="344.558166"/>
      </g>
     </g>
     <g id="text_3">
      <!-- 0.002 -->
      <g transform="translate(199.768693 361.279416)scale(0.14 -0.14)">
       <defs>
        <path d="M 2934 816 
L 2638 0 
L 138 0 
L 138 116 
Q 1241 1122 1691 1759 
Q 2141 2397 2141 2925 
Q 2141 3328 1894 3587 
Q 1647 3847 1303 3847 
Q 991 3847 742 3664 
Q 494 3481 375 3128 
L 259 3128 
Q 338 3706 661 4015 
Q 984 4325 1469 4325 
Q 1984 4325 2329 3994 
Q 2675 3663 2675 3213 
Q 2675 2891 2525 2569 
Q 2294 2063 1775 1497 
Q 997 647 803 472 
L 1909 472 
Q 2247 472 2383 497 
Q 2519 522 2628 598 
Q 2738 675 2819 816 
L 2934 816 
z
" id="TimesNewRomanPSMT-32" transform="scale(0.015625)"/>
       </defs>
       <use xlink:href="#TimesNewRomanPSMT-30"/>
       <use x="50" xlink:href="#TimesNewRomanPSMT-2e"/>
       <use x="75" xlink:href="#TimesNewRomanPSMT-30"/>
       <use x="125" xlink:href="#TimesNewRomanPSMT-30"/>
       <use x="175" xlink:href="#TimesNewRomanPSMT-32"/>
      </g>
     </g>
    </g>
    <g id="xtick_4">
     <g id="line2d_7">
      <path clip-path="url(#p8de353d540)" d="M 276.39142 344.558166 
L 276.39142 11.918166 
" style="fill:none;stroke:#000000;stroke-dasharray:0.5,0.825;stroke-dashoffset:0;stroke-width:0.5;"/>
     </g>
     <g id="line2d_8">
      <g>
       <use style="stroke:#000000;stroke-width:0.8;" x="276.39142" xlink:href="#ma18beb5726" y="344.558166"/>
      </g>
     </g>
     <g id="text_4">
      <!-- 0.003 -->
      <g transform="translate(260.64142 361.279416)scale(0.14 -0.14)">
       <defs>
        <path d="M 325 3431 
Q 506 3859 782 4092 
Q 1059 4325 1472 4325 
Q 1981 4325 2253 3994 
Q 2459 3747 2459 3466 
Q 2459 3003 1878 2509 
Q 2269 2356 2469 2072 
Q 2669 1788 2669 1403 
Q 2669 853 2319 450 
Q 1863 -75 997 -75 
Q 569 -75 414 31 
Q 259 138 259 259 
Q 259 350 332 419 
Q 406 488 509 488 
Q 588 488 669 463 
Q 722 447 909 348 
Q 1097 250 1169 231 
Q 1284 197 1416 197 
Q 1734 197 1970 444 
Q 2206 691 2206 1028 
Q 2206 1275 2097 1509 
Q 2016 1684 1919 1775 
Q 1784 1900 1550 2001 
Q 1316 2103 1072 2103 
L 972 2103 
L 972 2197 
Q 1219 2228 1467 2375 
Q 1716 2522 1828 2728 
Q 1941 2934 1941 3181 
Q 1941 3503 1739 3701 
Q 1538 3900 1238 3900 
Q 753 3900 428 3381 
L 325 3431 
z
" id="TimesNewRomanPSMT-33" transform="scale(0.015625)"/>
       </defs>
       <use xlink:href="#TimesNewRomanPSMT-30"/>
       <use x="50" xlink:href="#TimesNewRomanPSMT-2e"/>
       <use x="75" xlink:href="#TimesNewRomanPSMT-30"/>
       <use x="125" xlink:href="#TimesNewRomanPSMT-30"/>
       <use x="175" xlink:href="#TimesNewRomanPSMT-33"/>
      </g>
     </g>
    </g>
    <g id="xtick_5">
     <g id="line2d_9">
      <path clip-path="url(#p8de353d540)" d="M 337.264148 344.558166 
L 337.264148 11.918166 
" style="fill:none;stroke:#000000;stroke-dasharray:0.5,0.825;stroke-dashoffset:0;stroke-width:0.5;"/>
     </g>
     <g id="line2d_10">
      <g>
       <use style="stroke:#000000;stroke-width:0.8;" x="337.264148" xlink:href="#ma18beb5726" y="344.558166"/>
      </g>
     </g>
     <g id="text_5">
      <!-- 0.004 -->
      <g transform="translate(321.514148 361.279416)scale(0.14 -0.14)">
       <defs>
        <path d="M 2978 1563 
L 2978 1119 
L 2409 1119 
L 2409 0 
L 1894 0 
L 1894 1119 
L 100 1119 
L 100 1519 
L 2066 4325 
L 2409 4325 
L 2409 1563 
L 2978 1563 
z
M 1894 1563 
L 1894 3666 
L 406 1563 
L 1894 1563 
z
" id="TimesNewRomanPSMT-34" transform="scale(0.015625)"/>
       </defs>
       <use xlink:href="#TimesNewRomanPSMT-30"/>
       <use x="50" xlink:href="#TimesNewRomanPSMT-2e"/>
       <use x="75" xlink:href="#TimesNewRomanPSMT-30"/>
       <use x="125" xlink:href="#TimesNewRomanPSMT-30"/>
       <use x="175" xlink:href="#TimesNewRomanPSMT-34"/>
      </g>
     </g>
    </g>
    <g id="xtick_6">
     <g id="line2d_11">
      <path clip-path="url(#p8de353d540)" d="M 398.136875 344.558166 
L 398.136875 11.918166 
" style="fill:none;stroke:#000000;stroke-dasharray:0.5,0.825;stroke-dashoffset:0;stroke-width:0.5;"/>
     </g>
     <g id="line2d_12">
      <g>
       <use style="stroke:#000000;stroke-width:0.8;" x="398.136875" xlink:href="#ma18beb5726" y="344.558166"/>
      </g>
     </g>
     <g id="text_6">
      <!-- 0.005 -->
      <g transform="translate(382.386875 361.279416)scale(0.14 -0.14)">
       <defs>
        <path d="M 2778 4238 
L 2534 3706 
L 1259 3706 
L 981 3138 
Q 1809 3016 2294 2522 
Q 2709 2097 2709 1522 
Q 2709 1188 2573 903 
Q 2438 619 2231 419 
Q 2025 219 1772 97 
Q 1413 -75 1034 -75 
Q 653 -75 479 54 
Q 306 184 306 341 
Q 306 428 378 495 
Q 450 563 559 563 
Q 641 563 702 538 
Q 763 513 909 409 
Q 1144 247 1384 247 
Q 1750 247 2026 523 
Q 2303 800 2303 1197 
Q 2303 1581 2056 1914 
Q 1809 2247 1375 2428 
Q 1034 2569 447 2591 
L 1259 4238 
L 2778 4238 
z
" id="TimesNewRomanPSMT-35" transform="scale(0.015625)"/>
       </defs>
       <use xlink:href="#TimesNewRomanPSMT-30"/>
       <use x="50" xlink:href="#TimesNewRomanPSMT-2e"/>
       <use x="75" xlink:href="#TimesNewRomanPSMT-30"/>
       <use x="125" xlink:href="#TimesNewRomanPSMT-30"/>
       <use x="175" xlink:href="#TimesNewRomanPSMT-35"/>
      </g>
     </g>
    </g>
    <g id="text_7">
     <!-- Time (sec) -->
     <g transform="translate(200.858906 377.995354)scale(0.14 -0.14)">
      <defs>
       <path d="M 3703 4238 
L 3750 3244 
L 3631 3244 
Q 3597 3506 3538 3619 
Q 3441 3800 3280 3886 
Q 3119 3972 2856 3972 
L 2259 3972 
L 2259 734 
Q 2259 344 2344 247 
Q 2463 116 2709 116 
L 2856 116 
L 2856 0 
L 1059 0 
L 1059 116 
L 1209 116 
Q 1478 116 1591 278 
Q 1659 378 1659 734 
L 1659 3972 
L 1150 3972 
Q 853 3972 728 3928 
Q 566 3869 450 3700 
Q 334 3531 313 3244 
L 194 3244 
L 244 4238 
L 3703 4238 
z
" id="TimesNewRomanPSMT-54" transform="scale(0.015625)"/>
       <path d="M 928 4444 
Q 1059 4444 1151 4351 
Q 1244 4259 1244 4128 
Q 1244 3997 1151 3903 
Q 1059 3809 928 3809 
Q 797 3809 703 3903 
Q 609 3997 609 4128 
Q 609 4259 701 4351 
Q 794 4444 928 4444 
z
M 1188 2947 
L 1188 647 
Q 1188 378 1227 289 
Q 1266 200 1342 156 
Q 1419 113 1622 113 
L 1622 0 
L 231 0 
L 231 113 
Q 441 113 512 153 
Q 584 194 626 287 
Q 669 381 669 647 
L 669 1750 
Q 669 2216 641 2353 
Q 619 2453 572 2492 
Q 525 2531 444 2531 
Q 356 2531 231 2484 
L 188 2597 
L 1050 2947 
L 1188 2947 
z
" id="TimesNewRomanPSMT-69" transform="scale(0.015625)"/>
       <path d="M 1050 2338 
Q 1363 2650 1419 2697 
Q 1559 2816 1721 2881 
Q 1884 2947 2044 2947 
Q 2313 2947 2506 2790 
Q 2700 2634 2766 2338 
Q 3088 2713 3309 2830 
Q 3531 2947 3766 2947 
Q 3994 2947 4170 2830 
Q 4347 2713 4450 2447 
Q 4519 2266 4519 1878 
L 4519 647 
Q 4519 378 4559 278 
Q 4591 209 4675 161 
Q 4759 113 4950 113 
L 4950 0 
L 3538 0 
L 3538 113 
L 3597 113 
Q 3781 113 3884 184 
Q 3956 234 3988 344 
Q 4000 397 4000 647 
L 4000 1878 
Q 4000 2228 3916 2372 
Q 3794 2572 3525 2572 
Q 3359 2572 3192 2489 
Q 3025 2406 2788 2181 
L 2781 2147 
L 2788 2013 
L 2788 647 
Q 2788 353 2820 281 
Q 2853 209 2943 161 
Q 3034 113 3253 113 
L 3253 0 
L 1806 0 
L 1806 113 
Q 2044 113 2133 169 
Q 2222 225 2256 338 
Q 2272 391 2272 647 
L 2272 1878 
Q 2272 2228 2169 2381 
Q 2031 2581 1784 2581 
Q 1616 2581 1450 2491 
Q 1191 2353 1050 2181 
L 1050 647 
Q 1050 366 1089 281 
Q 1128 197 1204 155 
Q 1281 113 1516 113 
L 1516 0 
L 100 0 
L 100 113 
Q 297 113 375 155 
Q 453 197 493 289 
Q 534 381 534 647 
L 534 1741 
Q 534 2213 506 2350 
Q 484 2453 437 2492 
Q 391 2531 309 2531 
Q 222 2531 100 2484 
L 53 2597 
L 916 2947 
L 1050 2947 
L 1050 2338 
z
" id="TimesNewRomanPSMT-6d" transform="scale(0.015625)"/>
       <path d="M 681 1784 
Q 678 1147 991 784 
Q 1303 422 1725 422 
Q 2006 422 2214 576 
Q 2422 731 2563 1106 
L 2659 1044 
Q 2594 616 2278 264 
Q 1963 -88 1488 -88 
Q 972 -88 605 314 
Q 238 716 238 1394 
Q 238 2128 614 2539 
Q 991 2950 1559 2950 
Q 2041 2950 2350 2633 
Q 2659 2316 2659 1784 
L 681 1784 
z
M 681 1966 
L 2006 1966 
Q 1991 2241 1941 2353 
Q 1863 2528 1708 2628 
Q 1553 2728 1384 2728 
Q 1125 2728 920 2526 
Q 716 2325 681 1966 
z
" id="TimesNewRomanPSMT-65" transform="scale(0.015625)"/>
       <path id="TimesNewRomanPSMT-20" transform="scale(0.015625)"/>
       <path d="M 1988 -1253 
L 1988 -1369 
Q 1516 -1131 1200 -813 
Q 750 -359 506 256 
Q 263 872 263 1534 
Q 263 2503 741 3301 
Q 1219 4100 1988 4444 
L 1988 4313 
Q 1603 4100 1356 3731 
Q 1109 3363 987 2797 
Q 866 2231 866 1616 
Q 866 947 969 400 
Q 1050 -31 1165 -292 
Q 1281 -553 1476 -793 
Q 1672 -1034 1988 -1253 
z
" id="TimesNewRomanPSMT-28" transform="scale(0.015625)"/>
       <path d="M 2050 2947 
L 2050 1972 
L 1947 1972 
Q 1828 2431 1642 2597 
Q 1456 2763 1169 2763 
Q 950 2763 815 2647 
Q 681 2531 681 2391 
Q 681 2216 781 2091 
Q 878 1963 1175 1819 
L 1631 1597 
Q 2266 1288 2266 781 
Q 2266 391 1970 151 
Q 1675 -88 1309 -88 
Q 1047 -88 709 6 
Q 606 38 541 38 
Q 469 38 428 -44 
L 325 -44 
L 325 978 
L 428 978 
Q 516 541 762 319 
Q 1009 97 1316 97 
Q 1531 97 1667 223 
Q 1803 350 1803 528 
Q 1803 744 1651 891 
Q 1500 1038 1047 1263 
Q 594 1488 453 1669 
Q 313 1847 313 2119 
Q 313 2472 555 2709 
Q 797 2947 1181 2947 
Q 1350 2947 1591 2875 
Q 1750 2828 1803 2828 
Q 1853 2828 1881 2850 
Q 1909 2872 1947 2947 
L 2050 2947 
z
" id="TimesNewRomanPSMT-73" transform="scale(0.015625)"/>
       <path d="M 2631 1088 
Q 2516 522 2178 217 
Q 1841 -88 1431 -88 
Q 944 -88 581 321 
Q 219 731 219 1428 
Q 219 2103 620 2525 
Q 1022 2947 1584 2947 
Q 2006 2947 2278 2723 
Q 2550 2500 2550 2259 
Q 2550 2141 2473 2067 
Q 2397 1994 2259 1994 
Q 2075 1994 1981 2113 
Q 1928 2178 1911 2362 
Q 1894 2547 1784 2644 
Q 1675 2738 1481 2738 
Q 1169 2738 978 2506 
Q 725 2200 725 1697 
Q 725 1184 976 792 
Q 1228 400 1656 400 
Q 1963 400 2206 609 
Q 2378 753 2541 1131 
L 2631 1088 
z
" id="TimesNewRomanPSMT-63" transform="scale(0.015625)"/>
       <path d="M 144 4313 
L 144 4444 
Q 619 4209 934 3891 
Q 1381 3434 1625 2820 
Q 1869 2206 1869 1541 
Q 1869 572 1392 -226 
Q 916 -1025 144 -1369 
L 144 -1253 
Q 528 -1038 776 -670 
Q 1025 -303 1145 264 
Q 1266 831 1266 1447 
Q 1266 2113 1163 2663 
Q 1084 3094 967 3353 
Q 850 3613 656 3853 
Q 463 4094 144 4313 
z
" id="TimesNewRomanPSMT-29" transform="scale(0.015625)"/>
      </defs>
      <use xlink:href="#TimesNewRomanPSMT-54"/>
      <use x="57.583984" xlink:href="#TimesNewRomanPSMT-69"/>
      <use x="85.367188" xlink:href="#TimesNewRomanPSMT-6d"/>
      <use x="163.150391" xlink:href="#TimesNewRomanPSMT-65"/>
      <use x="207.535156" xlink:href="#TimesNewRomanPSMT-20"/>
      <use x="232.535156" xlink:href="#TimesNewRomanPSMT-28"/>
      <use x="265.835938" xlink:href="#TimesNewRomanPSMT-73"/>
      <use x="304.751953" xlink:href="#TimesNewRomanPSMT-65"/>
      <use x="349.136719" xlink:href="#TimesNewRomanPSMT-63"/>
      <use x="393.521484" xlink:href="#TimesNewRomanPSMT-29"/>
     </g>
    </g>
   </g>
   <g id="matplotlib.axis_2">
    <g id="ytick_1">
     <g id="line2d_13">
      <path clip-path="url(#p8de353d540)" d="M 63.336875 314.213796 
L 398.136875 314.213796 
" style="fill:none;stroke:#000000;stroke-dasharray:0.5,0.825;stroke-dashoffset:0;stroke-width:0.5;"/>
     </g>
     <g id="line2d_14">
      <defs>
       <path d="M 0 0 
L -3.5 0 
" id="m2f497436ce" style="stroke:#000000;stroke-width:0.8;"/>
      </defs>
      <g>
       <use style="stroke:#000000;stroke-width:0.8;" x="63.336875" xlink:href="#m2f497436ce" y="314.213796"/>
      </g>
     </g>
     <g id="text_8">
      <!-- −0.06 -->
      <g transform="translate(23.942188 319.074421)scale(0.14 -0.14)">
       <defs>
        <path d="M 3484 2000 
L 116 2000 
L 116 2256 
L 3484 2256 
L 3484 2000 
z
" id="TimesNewRomanPSMT-2212" transform="scale(0.015625)"/>
        <path d="M 2869 4325 
L 2869 4209 
Q 2456 4169 2195 4045 
Q 1934 3922 1679 3669 
Q 1425 3416 1258 3105 
Q 1091 2794 978 2366 
Q 1428 2675 1881 2675 
Q 2316 2675 2634 2325 
Q 2953 1975 2953 1425 
Q 2953 894 2631 456 
Q 2244 -75 1606 -75 
Q 1172 -75 869 213 
Q 275 772 275 1663 
Q 275 2231 503 2743 
Q 731 3256 1154 3653 
Q 1578 4050 1965 4187 
Q 2353 4325 2688 4325 
L 2869 4325 
z
M 925 2138 
Q 869 1716 869 1456 
Q 869 1156 980 804 
Q 1091 453 1309 247 
Q 1469 100 1697 100 
Q 1969 100 2183 356 
Q 2397 613 2397 1088 
Q 2397 1622 2184 2012 
Q 1972 2403 1581 2403 
Q 1463 2403 1327 2353 
Q 1191 2303 925 2138 
z
" id="TimesNewRomanPSMT-36" transform="scale(0.015625)"/>
       </defs>
       <use xlink:href="#TimesNewRomanPSMT-2212"/>
       <use x="56.396484" xlink:href="#TimesNewRomanPSMT-30"/>
       <use x="106.396484" xlink:href="#TimesNewRomanPSMT-2e"/>
       <use x="131.396484" xlink:href="#TimesNewRomanPSMT-30"/>
       <use x="181.396484" xlink:href="#TimesNewRomanPSMT-36"/>
      </g>
     </g>
    </g>
    <g id="ytick_2">
     <g id="line2d_15">
      <path clip-path="url(#p8de353d540)" d="M 63.336875 263.854934 
L 398.136875 263.854934 
" style="fill:none;stroke:#000000;stroke-dasharray:0.5,0.825;stroke-dashoffset:0;stroke-width:0.5;"/>
     </g>
     <g id="line2d_16">
      <g>
       <use style="stroke:#000000;stroke-width:0.8;" x="63.336875" xlink:href="#m2f497436ce" y="263.854934"/>
      </g>
     </g>
     <g id="text_9">
      <!-- −0.04 -->
      <g transform="translate(23.942188 268.715559)scale(0.14 -0.14)">
       <use xlink:href="#TimesNewRomanPSMT-2212"/>
       <use x="56.396484" xlink:href="#TimesNewRomanPSMT-30"/>
       <use x="106.396484" xlink:href="#TimesNewRomanPSMT-2e"/>
       <use x="131.396484" xlink:href="#TimesNewRomanPSMT-30"/>
       <use x="181.396484" xlink:href="#TimesNewRomanPSMT-34"/>
      </g>
     </g>
    </g>
    <g id="ytick_3">
     <g id="line2d_17">
      <path clip-path="url(#p8de353d540)" d="M 63.336875 213.496072 
L 398.136875 213.496072 
" style="fill:none;stroke:#000000;stroke-dasharray:0.5,0.825;stroke-dashoffset:0;stroke-width:0.5;"/>
     </g>
     <g id="line2d_18">
      <g>
       <use style="stroke:#000000;stroke-width:0.8;" x="63.336875" xlink:href="#m2f497436ce" y="213.496072"/>
      </g>
     </g>
     <g id="text_10">
      <!-- −0.02 -->
      <g transform="translate(23.942188 218.356697)scale(0.14 -0.14)">
       <use xlink:href="#TimesNewRomanPSMT-2212"/>
       <use x="56.396484" xlink:href="#TimesNewRomanPSMT-30"/>
       <use x="106.396484" xlink:href="#TimesNewRomanPSMT-2e"/>
       <use x="131.396484" xlink:href="#TimesNewRomanPSMT-30"/>
       <use x="181.396484" xlink:href="#TimesNewRomanPSMT-32"/>
      </g>
     </g>
    </g>
    <g id="ytick_4">
     <g id="line2d_19">
      <path clip-path="url(#p8de353d540)" d="M 63.336875 163.137211 
L 398.136875 163.137211 
" style="fill:none;stroke:#000000;stroke-dasharray:0.5,0.825;stroke-dashoffset:0;stroke-width:0.5;"/>
     </g>
     <g id="line2d_20">
      <g>
       <use style="stroke:#000000;stroke-width:0.8;" x="63.336875" xlink:href="#m2f497436ce" y="163.137211"/>
      </g>
     </g>
     <g id="text_11">
      <!-- 0.00 -->
      <g transform="translate(31.836875 167.997836)scale(0.14 -0.14)">
       <use xlink:href="#TimesNewRomanPSMT-30"/>
       <use x="50" xlink:href="#TimesNewRomanPSMT-2e"/>
       <use x="75" xlink:href="#TimesNewRomanPSMT-30"/>
       <use x="125" xlink:href="#TimesNewRomanPSMT-30"/>
      </g>
     </g>
    </g>
    <g id="ytick_5">
     <g id="line2d_21">
      <path clip-path="url(#p8de353d540)" d="M 63.336875 112.778349 
L 398.136875 112.778349 
" style="fill:none;stroke:#000000;stroke-dasharray:0.5,0.825;stroke-dashoffset:0;stroke-width:0.5;"/>
     </g>
     <g id="line2d_22">
      <g>
       <use style="stroke:#000000;stroke-width:0.8;" x="63.336875" xlink:href="#m2f497436ce" y="112.778349"/>
      </g>
     </g>
     <g id="text_12">
      <!-- 0.02 -->
      <g transform="translate(31.836875 117.638974)scale(0.14 -0.14)">
       <use xlink:href="#TimesNewRomanPSMT-30"/>
       <use x="50" xlink:href="#TimesNewRomanPSMT-2e"/>
       <use x="75" xlink:href="#TimesNewRomanPSMT-30"/>
       <use x="125" xlink:href="#TimesNewRomanPSMT-32"/>
      </g>
     </g>
    </g>
    <g id="ytick_6">
     <g id="line2d_23">
      <path clip-path="url(#p8de353d540)" d="M 63.336875 62.419487 
L 398.136875 62.419487 
" style="fill:none;stroke:#000000;stroke-dasharray:0.5,0.825;stroke-dashoffset:0;stroke-width:0.5;"/>
     </g>
     <g id="line2d_24">
      <g>
       <use style="stroke:#000000;stroke-width:0.8;" x="63.336875" xlink:href="#m2f497436ce" y="62.419487"/>
      </g>
     </g>
     <g id="text_13">
      <!-- 0.04 -->
      <g transform="translate(31.836875 67.280112)scale(0.14 -0.14)">
       <use xlink:href="#TimesNewRomanPSMT-30"/>
       <use x="50" xlink:href="#TimesNewRomanPSMT-2e"/>
       <use x="75" xlink:href="#TimesNewRomanPSMT-30"/>
       <use x="125" xlink:href="#TimesNewRomanPSMT-34"/>
      </g>
     </g>
    </g>
    <g id="ytick_7">
     <g id="line2d_25">
      <path clip-path="url(#p8de353d540)" d="M 63.336875 12.060625 
L 398.136875 12.060625 
" style="fill:none;stroke:#000000;stroke-dasharray:0.5,0.825;stroke-dashoffset:0;stroke-width:0.5;"/>
     </g>
     <g id="line2d_26">
      <g>
       <use style="stroke:#000000;stroke-width:0.8;" x="63.336875" xlink:href="#m2f497436ce" y="12.060625"/>
      </g>
     </g>
     <g id="text_14">
      <!-- 0.06 -->
      <g transform="translate(31.836875 16.92125)scale(0.14 -0.14)">
       <use xlink:href="#TimesNewRomanPSMT-30"/>
       <use x="50" xlink:href="#TimesNewRomanPSMT-2e"/>
       <use x="75" xlink:href="#TimesNewRomanPSMT-30"/>
       <use x="125" xlink:href="#TimesNewRomanPSMT-36"/>
      </g>
     </g>
    </g>
    <g id="text_15">
     <!-- Volatage (V) -->
     <g transform="translate(16.92125 214.07051)rotate(-90)scale(0.14 -0.14)">
      <defs>
       <path d="M 4544 4238 
L 4544 4122 
Q 4319 4081 4203 3978 
Q 4038 3825 3909 3509 
L 2431 -97 
L 2316 -97 
L 728 3556 
Q 606 3838 556 3900 
Q 478 3997 364 4051 
Q 250 4106 56 4122 
L 56 4238 
L 1788 4238 
L 1788 4122 
Q 1494 4094 1406 4022 
Q 1319 3950 1319 3838 
Q 1319 3681 1463 3350 
L 2541 866 
L 3541 3319 
Q 3688 3681 3688 3822 
Q 3688 3913 3597 3995 
Q 3506 4078 3291 4113 
Q 3275 4116 3238 4122 
L 3238 4238 
L 4544 4238 
z
" id="TimesNewRomanPSMT-56" transform="scale(0.015625)"/>
       <path d="M 1600 2947 
Q 2250 2947 2644 2453 
Q 2978 2031 2978 1484 
Q 2978 1100 2793 706 
Q 2609 313 2286 112 
Q 1963 -88 1566 -88 
Q 919 -88 538 428 
Q 216 863 216 1403 
Q 216 1797 411 2186 
Q 606 2575 925 2761 
Q 1244 2947 1600 2947 
z
M 1503 2744 
Q 1338 2744 1170 2645 
Q 1003 2547 900 2300 
Q 797 2053 797 1666 
Q 797 1041 1045 587 
Q 1294 134 1700 134 
Q 2003 134 2200 384 
Q 2397 634 2397 1244 
Q 2397 2006 2069 2444 
Q 1847 2744 1503 2744 
z
" id="TimesNewRomanPSMT-6f" transform="scale(0.015625)"/>
       <path d="M 1184 4444 
L 1184 647 
Q 1184 378 1223 290 
Q 1263 203 1344 158 
Q 1425 113 1647 113 
L 1647 0 
L 244 0 
L 244 113 
Q 441 113 512 153 
Q 584 194 625 287 
Q 666 381 666 647 
L 666 3247 
Q 666 3731 644 3842 
Q 622 3953 573 3993 
Q 525 4034 450 4034 
Q 369 4034 244 3984 
L 191 4094 
L 1044 4444 
L 1184 4444 
z
" id="TimesNewRomanPSMT-6c" transform="scale(0.015625)"/>
       <path d="M 1822 413 
Q 1381 72 1269 19 
Q 1100 -59 909 -59 
Q 613 -59 420 144 
Q 228 347 228 678 
Q 228 888 322 1041 
Q 450 1253 767 1440 
Q 1084 1628 1822 1897 
L 1822 2009 
Q 1822 2438 1686 2597 
Q 1550 2756 1291 2756 
Q 1094 2756 978 2650 
Q 859 2544 859 2406 
L 866 2225 
Q 866 2081 792 2003 
Q 719 1925 600 1925 
Q 484 1925 411 2006 
Q 338 2088 338 2228 
Q 338 2497 613 2722 
Q 888 2947 1384 2947 
Q 1766 2947 2009 2819 
Q 2194 2722 2281 2516 
Q 2338 2381 2338 1966 
L 2338 994 
Q 2338 584 2353 492 
Q 2369 400 2405 369 
Q 2441 338 2488 338 
Q 2538 338 2575 359 
Q 2641 400 2828 588 
L 2828 413 
Q 2478 -56 2159 -56 
Q 2006 -56 1915 50 
Q 1825 156 1822 413 
z
M 1822 616 
L 1822 1706 
Q 1350 1519 1213 1441 
Q 966 1303 859 1153 
Q 753 1003 753 825 
Q 753 600 887 451 
Q 1022 303 1197 303 
Q 1434 303 1822 616 
z
" id="TimesNewRomanPSMT-61" transform="scale(0.015625)"/>
       <path d="M 1031 3803 
L 1031 2863 
L 1700 2863 
L 1700 2644 
L 1031 2644 
L 1031 788 
Q 1031 509 1111 412 
Q 1191 316 1316 316 
Q 1419 316 1516 380 
Q 1613 444 1666 569 
L 1788 569 
Q 1678 263 1478 108 
Q 1278 -47 1066 -47 
Q 922 -47 784 33 
Q 647 113 581 261 
Q 516 409 516 719 
L 516 2644 
L 63 2644 
L 63 2747 
Q 234 2816 414 2980 
Q 594 3144 734 3369 
Q 806 3488 934 3803 
L 1031 3803 
z
" id="TimesNewRomanPSMT-74" transform="scale(0.015625)"/>
       <path d="M 966 1044 
Q 703 1172 562 1401 
Q 422 1631 422 1909 
Q 422 2334 742 2640 
Q 1063 2947 1563 2947 
Q 1972 2947 2272 2747 
L 2878 2747 
Q 3013 2747 3034 2739 
Q 3056 2731 3066 2713 
Q 3084 2684 3084 2613 
Q 3084 2531 3069 2500 
Q 3059 2484 3036 2475 
Q 3013 2466 2878 2466 
L 2506 2466 
Q 2681 2241 2681 1891 
Q 2681 1491 2375 1206 
Q 2069 922 1553 922 
Q 1341 922 1119 984 
Q 981 866 932 777 
Q 884 688 884 625 
Q 884 572 936 522 
Q 988 472 1138 450 
Q 1225 438 1575 428 
Q 2219 413 2409 384 
Q 2700 344 2873 169 
Q 3047 -6 3047 -263 
Q 3047 -616 2716 -925 
Q 2228 -1381 1444 -1381 
Q 841 -1381 425 -1109 
Q 191 -953 191 -784 
Q 191 -709 225 -634 
Q 278 -519 444 -313 
Q 466 -284 763 25 
Q 600 122 533 198 
Q 466 275 466 372 
Q 466 481 555 628 
Q 644 775 966 1044 
z
M 1509 2797 
Q 1278 2797 1122 2612 
Q 966 2428 966 2047 
Q 966 1553 1178 1281 
Q 1341 1075 1591 1075 
Q 1828 1075 1981 1253 
Q 2134 1431 2134 1813 
Q 2134 2309 1919 2591 
Q 1759 2797 1509 2797 
z
M 934 0 
Q 788 -159 713 -296 
Q 638 -434 638 -550 
Q 638 -700 819 -813 
Q 1131 -1006 1722 -1006 
Q 2284 -1006 2551 -807 
Q 2819 -609 2819 -384 
Q 2819 -222 2659 -153 
Q 2497 -84 2016 -72 
Q 1313 -53 934 0 
z
" id="TimesNewRomanPSMT-67" transform="scale(0.015625)"/>
      </defs>
      <use xlink:href="#TimesNewRomanPSMT-56"/>
      <use x="59.341797" xlink:href="#TimesNewRomanPSMT-6f"/>
      <use x="109.341797" xlink:href="#TimesNewRomanPSMT-6c"/>
      <use x="137.125" xlink:href="#TimesNewRomanPSMT-61"/>
      <use x="181.509766" xlink:href="#TimesNewRomanPSMT-74"/>
      <use x="209.292969" xlink:href="#TimesNewRomanPSMT-61"/>
      <use x="253.677734" xlink:href="#TimesNewRomanPSMT-67"/>
      <use x="303.677734" xlink:href="#TimesNewRomanPSMT-65"/>
      <use x="348.0625" xlink:href="#TimesNewRomanPSMT-20"/>
      <use x="373.0625" xlink:href="#TimesNewRomanPSMT-28"/>
      <use x="406.363281" xlink:href="#TimesNewRomanPSMT-56"/>
      <use x="478.580078" xlink:href="#TimesNewRomanPSMT-29"/>
     </g>
    </g>
   </g>
   <g id="LineCollection_1">
    <path clip-path="url(#p8de353d540)" d="M 78.555057 163.137211 
L 382.918693 163.137211 
" style="fill:none;stroke:#1f77b4;stroke-width:1.5;"/>
   </g>
   <g id="line2d_27">
    <path clip-path="url(#p8de353d540)" d="M 78.555057 163.222443 
L 82.390039 163.12802 
L 82.511784 163.096546 
L 82.54222 163.12802 
L 86.346766 163.033597 
L 86.498948 163.033597 
L 96.573384 162.939174 
L 96.725566 162.939174 
L 104.182475 162.844751 
L 104.334657 162.844751 
L 104.517275 162.876226 
L 104.699893 162.844751 
L 104.852075 162.876226 
L 104.97382 162.844751 
L 114.256911 162.939174 
L 114.34822 162.939174 
L 114.378657 162.9077 
L 114.77433 163.002123 
L 114.987384 163.096546 
L 115.10913 163.065071 
L 115.139566 163.096546 
L 115.839602 163.190969 
L 116.083093 163.285391 
L 116.722257 163.34834 
L 116.844002 163.411289 
L 116.996184 163.379814 
L 117.239675 163.474237 
L 117.848402 163.537186 
L 117.939711 163.600134 
L 117.970148 163.56866 
L 118.244075 163.631609 
L 118.396257 163.694557 
L 118.518002 163.663083 
L 118.548439 163.694557 
L 118.70062 163.694557 
L 119.552839 163.78898 
L 119.70502 163.820454 
L 119.826766 163.820454 
L 119.887639 163.757506 
L 119.978948 163.851929 
L 120.13113 163.820454 
L 120.313748 163.851929 
L 120.46593 163.851929 
L 121.622511 163.946352 
L 121.835566 164.0093 
L 122.13993 164.072249 
L 122.292111 164.166672 
L 122.596475 164.261094 
L 122.870402 164.386992 
L 123.05302 164.481414 
L 123.38782 164.67026 
L 123.540002 164.764683 
L 124.05742 165.142374 
L 124.087857 165.1109 
L 124.14873 165.205323 
L 125.82273 167.09378 
L 127.588039 170.996592 
L 129.962075 178.707793 
L 130.388184 180.344456 
L 132.18393 187.331749 
L 132.366548 187.929759 
L 132.914402 189.723794 
L 133.644875 191.643726 
L 133.76662 191.926994 
L 134.223166 193.028594 
L 134.344911 193.311863 
L 135.653675 195.766857 
L 136.171093 196.144549 
L 136.840693 196.050126 
L 137.023311 195.892755 
L 137.11462 195.798332 
L 137.601602 195.137372 
L 138.971239 192.052891 
L 139.610402 189.723794 
L 140.280002 186.481943 
L 142.014875 175.025301 
L 143.049711 166.747563 
L 145.423748 143.645435 
L 151.297966 78.05302 
L 152.819784 64.928242 
L 153.641566 59.042547 
L 154.52422 54.258461 
L 155.011202 52.275578 
L 155.772111 50.229749 
L 156.046039 49.789109 
L 156.259093 49.442892 
L 156.28953 49.474361 
L 156.350402 49.411413 
L 156.593893 49.285523 
L 156.806948 49.348462 
L 156.928693 49.442892 
L 157.62873 50.292698 
L 158.389639 52.968007 
L 159.394039 58.664859 
L 161.037602 73.174503 
L 161.88982 83.088909 
L 162.89422 96.906117 
L 165.450875 141.001595 
L 169.894584 230.608897 
L 172.755602 281.880514 
L 173.760002 295.792149 
L 174.673093 306.619299 
L 175.464439 314.424926 
L 176.499275 322.07318 
L 177.351493 326.668419 
L 178.173275 328.903091 
L 178.72113 329.438166 
L 178.782002 329.375208 
L 178.903748 329.280787 
L 179.63422 328.368033 
L 180.029893 327.203477 
L 180.456002 325.535344 
L 181.125602 322.387918 
L 181.886511 316.974343 
L 182.31262 313.638068 
L 183.864875 296.484576 
L 185.812802 268.850153 
L 187.365057 243.072711 
L 188.491202 222.614423 
L 191.991384 155.416819 
L 192.965348 137.507949 
L 194.395857 114.279922 
L 196.769893 81.515187 
L 198.109093 67.54061 
L 199.417857 57.594735 
L 200.72662 50.166798 
L 201.82233 46.106617 
L 202.126693 45.508601 
L 202.370184 45.099443 
L 203.009348 44.029317 
L 203.131093 43.966366 
L 203.283275 43.871938 
L 203.587639 43.808987 
L 203.73982 43.746048 
L 203.983311 43.651618 
L 204.470293 43.746048 
L 204.926839 44.344055 
L 205.200766 44.847643 
L 205.50513 45.288281 
L 207.51393 51.86641 
L 208.457457 56.241331 
L 213.87513 90.54831 
L 217.497057 116.01101 
L 217.953602 118.938121 
L 221.088548 137.696795 
L 224.314802 153.843105 
L 224.619166 155.13355 
L 225.440948 158.816042 
L 226.17142 162.309688 
L 226.719275 165.016477 
L 227.26713 167.723266 
L 228.27153 173.262741 
L 228.84982 176.756387 
L 229.306366 179.620548 
L 230.919493 190.290331 
L 232.410875 201.715498 
L 232.836984 205.586835 
L 238.193784 254.403457 
L 239.837348 265.545358 
L 240.65913 269.22785 
L 241.267857 271.273671 
L 241.602657 271.997587 
L 241.815711 272.343797 
L 242.089639 272.847395 
L 242.637493 273.288033 
L 242.820111 273.225082 
L 242.91142 273.225082 
L 242.941857 273.193602 
L 243.641893 273.099185 
L 244.189748 272.375276 
L 244.554984 271.556939 
L 244.67673 271.30515 
L 245.34633 268.881632 
L 246.198548 263.908695 
L 246.868148 259.061647 
L 248.207348 247.06995 
L 250.27702 224.565829 
L 256.668657 146.572544 
L 258.281784 132.566486 
L 259.955784 121.235739 
L 260.686257 117.395879 
L 261.294984 114.783515 
L 262.573311 111.132495 
L 262.725493 110.849227 
L 262.99942 110.34564 
L 264.582111 108.834872 
L 264.703857 108.803398 
L 264.916911 108.740447 
L 265.860439 108.803398 
L 266.043057 108.929295 
L 266.803966 109.590253 
L 266.834402 109.558783 
L 266.895275 109.653204 
L 267.290948 110.219741 
L 267.534439 110.597432 
L 267.747493 111.006596 
L 267.990984 111.415764 
L 270.425893 116.703444 
L 272.008584 121.95965 
L 273.073857 125.893937 
L 276.269675 135.46212 
L 276.878402 136.941412 
L 277.15233 137.665321 
L 277.274075 137.917115 
L 277.578439 138.766921 
L 277.700184 139.018714 
L 278.308911 140.560955 
L 283.056984 150.129138 
L 283.330911 150.569779 
L 284.09182 151.891699 
L 284.152693 151.954648 
L 284.365748 152.300865 
L 284.457057 152.395288 
L 284.791857 152.898876 
L 285.157093 153.402465 
L 285.796257 153.937527 
L 285.887566 153.937527 
L 286.039748 154.000476 
L 286.344111 154.157848 
L 286.496293 154.126374 
L 286.618039 154.157848 
L 286.648475 154.126374 
L 287.044148 154.031951 
L 287.592002 153.59131 
L 287.622439 153.622785 
L 287.683311 153.528362 
L 287.77462 153.433939 
L 288.53553 152.521185 
L 288.839893 151.923173 
L 289.11382 151.514007 
L 289.387748 151.010419 
L 290.179093 149.121962 
L 290.696511 147.831516 
L 290.818257 147.548248 
L 291.974839 144.306395 
L 292.248766 143.519538 
L 292.735748 141.977298 
L 295.201093 134.675263 
L 296.996839 131.213091 
L 297.605566 130.740977 
L 297.757748 130.678028 
L 297.940366 130.552131 
L 298.518657 130.646554 
L 299.523057 131.842577 
L 299.979602 133.007126 
L 300.375275 134.203149 
L 300.436148 134.297572 
L 301.044875 136.532246 
L 301.92753 140.623904 
L 303.51022 151.136316 
L 304.545057 159.728797 
L 305.61033 169.422878 
L 307.406075 186.859634 
L 307.923493 192.052891 
L 308.988766 202.942995 
L 312.275893 232.528829 
L 313.402039 239.89381 
L 314.710802 246.094247 
L 315.106475 247.258791 
L 315.410839 247.888279 
L 315.745639 248.360396 
L 315.928257 248.675134 
L 316.293493 249.178723 
L 316.445675 249.273151 
L 316.597857 249.273151 
L 316.99353 249.178723 
L 317.23702 249.052833 
L 317.267457 249.084302 
L 317.32833 249.021354 
L 317.876184 248.328917 
L 319.306693 243.544828 
L 319.824111 240.932459 
L 320.858948 235.015298 
L 323.506911 215.092073 
L 328.772402 167.125255 
L 331.816039 142.858579 
L 334.250948 125.988359 
L 337.32502 110.660383 
L 338.298984 107.103784 
L 339.516439 103.641614 
L 339.638184 103.358346 
L 340.33822 101.658734 
L 340.886075 100.30534 
L 342.77313 96.622848 
L 342.834002 96.528428 
L 343.168802 96.024834 
L 343.655784 95.269454 
L 343.747093 95.175028 
L 343.929711 94.89176 
L 344.02102 94.86029 
L 344.203639 94.639965 
L 345.299348 93.601316 
L 345.329784 93.632791 
L 345.481966 93.569842 
L 345.603711 93.475422 
L 345.634148 93.506891 
L 346.425493 93.601316 
L 347.308148 94.639965 
L 347.521202 95.049134 
L 347.764693 95.458297 
L 348.099493 96.150734 
L 348.251675 96.465477 
L 349.13433 98.542777 
L 350.534402 103.232446 
L 351.14313 105.81334 
L 353.425857 115.727741 
L 354.552002 120.983945 
L 355.130293 123.848108 
L 355.83033 127.499125 
L 357.565202 137.035835 
L 358.630475 142.953001 
L 360.000111 150.601254 
L 360.456657 153.182145 
L 360.821893 155.13355 
L 361.278439 157.682968 
L 361.734984 160.012065 
L 362.343711 163.096546 
L 362.86113 165.677437 
L 363.378548 168.195381 
L 365.44822 178.330101 
L 365.996075 181.03689 
L 366.483057 183.428937 
L 366.696111 184.40464 
L 367.061348 186.293096 
L 368.88753 195.168846 
L 369.496257 198.158903 
L 370.744148 204.044598 
L 372.326839 211.063362 
L 373.057311 214.305211 
L 373.361675 215.595659 
L 374.000839 218.365397 
L 374.396511 219.939111 
L 375.522657 224.125191 
L 377.744511 230.671841 
L 377.92713 231.018061 
L 378.17062 231.553124 
L 378.231493 231.616072 
L 378.59673 232.402929 
L 378.870657 232.843572 
L 379.17502 233.221261 
L 379.966366 233.882221 
L 380.818584 233.787798 
L 381.336002 233.378635 
L 381.366439 233.410109 
L 381.427311 233.315684 
L 381.883857 232.686198 
L 382.918693 230.451523 
L 382.918693 230.451523 
" style="fill:none;stroke:#0000ff;stroke-linecap:square;stroke-width:1.5;"/>
   </g>
   <g id="line2d_28">
    <path clip-path="url(#p8de353d540)" d="M 78.555057 163.274627 
L 78.798548 163.25889 
L 79.011602 163.25889 
L 79.28553 163.227416 
L 79.498584 163.243153 
L 79.772511 163.211679 
L 83.059639 163.101519 
L 83.30313 163.085782 
L 83.485748 163.117256 
L 83.607493 163.085782 
L 83.820548 163.101519 
L 84.033602 163.101519 
L 86.164148 162.991359 
L 86.407639 162.975622 
L 86.620693 162.975622 
L 89.57302 162.881199 
L 89.725202 162.849724 
L 89.968693 162.865462 
L 92.25142 162.755302 
L 92.464475 162.755302 
L 96.877748 162.645142 
L 97.090802 162.629404 
L 97.303857 162.629404 
L 97.577784 162.59793 
L 100.864911 162.70809 
L 101.321457 162.849724 
L 101.443202 162.865462 
L 101.747566 163.022833 
L 101.96062 163.132993 
L 102.508475 163.542159 
L 102.812839 163.80969 
L 103.573748 164.753919 
L 104.456402 166.327634 
L 106.556511 172.040217 
L 108.960984 180.333692 
L 111.578511 188.107841 
L 112.76553 190.326778 
L 113.587311 191.03495 
L 113.830802 191.14511 
L 114.196039 191.223796 
L 115.01782 190.688733 
L 115.656984 189.886138 
L 115.77873 189.71303 
L 117.178802 185.79448 
L 117.665784 183.921761 
L 118.852802 178.555394 
L 120.46593 169.648171 
L 122.018184 159.356078 
L 124.48353 141.085254 
L 126.644511 127.283778 
L 128.50113 117.35364 
L 129.779457 111.877114 
L 130.662111 109.29622 
L 131.17953 108.037251 
L 131.696948 107.030071 
L 132.76222 104.559342 
L 134.010111 102.812521 
L 134.953639 102.214507 
L 135.744984 101.553547 
L 135.988475 101.52207 
L 136.171093 101.52207 
L 136.353711 101.443387 
L 136.749384 101.191593 
L 137.053748 101.128642 
L 138.179893 101.821079 
L 138.697311 102.781044 
L 139.54953 105.456359 
L 139.945202 106.778277 
L 140.949602 110.822723 
L 142.532293 118.707032 
L 143.688875 126.575607 
L 144.57153 133.232419 
L 147.036875 153.187118 
L 150.476184 186.23512 
L 151.26753 193.647316 
L 152.698039 206.614723 
L 153.641566 214.357398 
L 154.676402 221.517798 
L 155.346002 225.593721 
L 156.319966 230.047331 
L 156.837384 231.967262 
L 158.176584 235.146168 
L 159.515784 235.744174 
L 160.094075 235.335011 
L 160.672366 234.579631 
L 161.159348 233.619665 
L 161.920257 231.369251 
L 162.924657 227.372019 
L 164.537784 217.583512 
L 165.937857 206.693406 
L 169.042366 178.838663 
L 171.325093 160.851107 
L 172.420802 153.690707 
L 174.216548 144.972328 
L 175.342693 141.289837 
L 176.529711 139.653172 
L 177.016693 139.763334 
L 177.747166 140.251185 
L 178.112402 140.990831 
L 181.003857 150.322958 
L 181.73433 153.800866 
L 183.31702 162.550719 
L 184.169239 167.161702 
L 186.512839 178.712766 
L 187.517239 182.395258 
L 188.125966 184.189292 
L 189.069493 186.754445 
L 189.495602 187.604252 
L 189.830402 188.218001 
L 189.982584 188.406847 
L 190.286948 188.674378 
L 190.530439 188.705853 
L 190.865239 188.517007 
L 191.01742 188.422584 
L 192.813166 186.408229 
L 193.45233 185.212207 
L 194.548039 182.096252 
L 197.13513 172.323485 
L 198.291711 166.422056 
L 199.935275 155.547689 
L 202.857166 132.272453 
L 203.73982 125.096315 
L 205.50513 111.405002 
L 206.41822 106.432064 
L 208.609639 95.683592 
L 210.43582 90.380177 
L 211.288039 89.262838 
L 211.561966 89.121203 
L 211.927202 89.215626 
L 212.353311 89.514632 
L 212.505493 89.624789 
L 212.901166 89.939535 
L 213.357711 90.631972 
L 213.87513 91.639146 
L 214.818657 93.810872 
L 216.492657 100.278836 
L 218.014475 107.879877 
L 219.444984 115.858611 
L 222.48862 132.539984 
L 228.575893 163.431999 
L 231.406475 175.596811 
L 235.911057 199.470059 
L 236.793711 203.860725 
L 238.924257 212.201406 
L 239.98953 214.656406 
L 241.115675 216.749441 
L 241.450475 217.237295 
L 241.785275 217.693672 
L 242.028766 217.929732 
L 242.759239 218.527744 
L 243.367966 218.952646 
L 243.67233 219.267384 
L 243.702766 219.25165 
L 243.733202 219.314601 
L 245.133275 220.620784 
L 245.25502 220.715204 
L 245.742002 221.061421 
L 246.959457 221.58075 
L 247.659493 221.69091 
L 247.994293 221.753853 
L 250.794439 221.864018 
L 253.198911 223.201673 
L 253.442402 223.390521 
L 253.655457 223.500681 
L 255.268584 225.310453 
L 255.572948 225.688142 
L 255.999057 226.144519 
L 258.494839 228.583776 
L 258.707893 228.693936 
L 259.07313 228.772622 
L 259.529675 228.693936 
L 259.712293 228.552302 
L 259.834039 228.520828 
L 260.107966 228.269033 
L 260.199275 228.17461 
L 260.686257 227.513653 
L 261.173239 226.553687 
L 262.025457 224.051479 
L 262.968984 219.676553 
L 263.66902 215.506207 
L 265.403893 202.161113 
L 266.316984 192.655876 
L 267.290948 180.900228 
L 268.508402 164.439176 
L 272.282511 106.18027 
L 274.413057 73.777493 
L 275.72182 57.001689 
L 276.787093 45.639471 
L 277.517566 39.234461 
L 278.217602 34.308732 
L 278.887202 30.815089 
L 279.556802 28.501718 
L 280.135093 27.274223 
L 280.50033 27.038166 
L 280.987311 27.148324 
L 281.535166 27.87224 
L 282.143893 29.729223 
L 282.84393 32.656329 
L 283.84833 38.982661 
L 286.252802 61.06187 
L 287.683311 77.806194 
L 289.266002 98.815284 
L 291.579166 129.565664 
L 293.618402 155.516215 
L 296.47942 185.401052 
L 298.183857 201.075248 
L 299.675239 213.208586 
L 300.892693 221.816804 
L 302.688439 232.313479 
L 303.84502 236.625457 
L 304.240693 237.506737 
L 305.61033 238.765711 
L 305.823384 238.765711 
L 306.919093 238.655546 
L 307.801748 237.58542 
L 308.593093 236.169077 
L 311.180184 229.213259 
L 312.88462 221.706644 
L 313.64553 217.205818 
L 316.536984 197.046539 
L 318.697966 181.136286 
L 319.184948 177.7528 
L 320.524148 168.845576 
L 322.198148 159.151495 
L 323.141675 154.839518 
L 325.576584 146.435883 
L 326.215748 144.79922 
L 327.220148 142.957974 
L 327.402766 142.753391 
L 329.137639 141.116728 
L 329.62462 140.959356 
L 329.837675 140.959356 
L 329.989857 140.927882 
L 330.202911 140.927882 
L 330.446402 140.912144 
L 331.511675 141.022306 
L 332.029093 141.195413 
L 332.211711 141.21115 
L 332.911748 141.494419 
L 333.06393 141.494419 
L 333.276984 141.557369 
L 333.490039 141.557369 
L 335.74233 141.462944 
L 335.894511 141.415734 
L 336.381493 141.053778 
L 336.959784 140.298397 
L 337.477202 139.480066 
L 337.690257 139.102373 
L 339.851239 134.396967 
L 340.368657 133.122259 
L 340.703457 132.39835 
L 341.981784 129.392556 
L 343.10793 126.811664 
L 343.655784 125.694327 
L 343.929711 125.269424 
L 344.325384 124.702887 
L 345.055857 124.104875 
L 345.329784 124.057664 
L 345.512402 124.089138 
L 345.725457 124.073401 
L 346.060257 124.152086 
L 346.182002 124.199298 
L 346.45593 124.309458 
L 346.760293 124.466829 
L 347.338584 124.875995 
L 348.46473 126.182178 
L 349.895239 129.392556 
L 350.47353 131.07643 
L 351.38662 134.255333 
L 352.999748 141.368522 
L 353.73022 144.893642 
L 354.460693 148.812192 
L 356.378184 160.331781 
L 357.108657 164.502125 
L 358.84353 174.054571 
L 359.634875 177.925908 
L 361.126257 183.638492 
L 361.52193 184.960411 
L 362.587202 188.406847 
L 364.261202 192.435556 
L 364.991675 193.694527 
L 365.935202 194.953499 
L 366.45262 195.346927 
L 367.12222 195.268242 
L 367.335275 195.142345 
L 367.487457 195.063659 
L 367.700511 194.937762 
L 368.035311 194.67023 
L 368.674475 193.883373 
L 369.070148 193.316836 
L 370.318039 189.807453 
L 374.24433 173.110342 
L 375.796584 165.666673 
L 377.044475 159.340341 
L 382.066475 133.94059 
L 382.918693 130.41547 
L 382.918693 130.41547 
" style="fill:none;stroke:#ff0000;stroke-linecap:square;stroke-width:1.5;"/>
   </g>
   <g id="line2d_29">
    <path clip-path="url(#p8de353d540)" d="M 127.74022 171.468707 
" style="fill:none;stroke:#ffffff;stroke-linecap:square;stroke-width:1.5;"/>
    <defs>
     <path d="M 0 -5 
L -1.12257 -1.545085 
L -4.755283 -1.545085 
L -1.816356 0.59017 
L -2.938926 4.045085 
L -0 1.90983 
L 2.938926 4.045085 
L 1.816356 0.59017 
L 4.755283 -1.545085 
L 1.12257 -1.545085 
z
" id="mf0888ea482" style="stroke:#ffffff;stroke-linejoin:bevel;"/>
    </defs>
    <g clip-path="url(#p8de353d540)">
     <use style="fill:#0000ff;stroke:#ffffff;stroke-linejoin:bevel;" x="127.74022" xlink:href="#mf0888ea482" y="171.468707"/>
    </g>
   </g>
   <g id="line2d_30">
    <path clip-path="url(#p8de353d540)" d="M 105.886911 169.962914 
" style="fill:none;stroke:#ffffff;stroke-linecap:square;stroke-width:1.5;"/>
    <defs>
     <path d="M 0 -5 
L -1.12257 -1.545085 
L -4.755283 -1.545085 
L -1.816356 0.59017 
L -2.938926 4.045085 
L -0 1.90983 
L 2.938926 4.045085 
L 1.816356 0.59017 
L 4.755283 -1.545085 
L 1.12257 -1.545085 
z
" id="m0786cb8949" style="stroke:#ffffff;stroke-linejoin:bevel;"/>
    </defs>
    <g clip-path="url(#p8de353d540)">
     <use style="fill:#ff0000;stroke:#ffffff;stroke-linejoin:bevel;" x="105.886911" xlink:href="#m0786cb8949" y="169.962914"/>
    </g>
   </g>
   <g id="patch_3">
    <path d="M 63.336875 344.558166 
L 63.336875 11.918166 
" style="fill:none;stroke:#000000;stroke-linecap:square;stroke-linejoin:miter;stroke-width:0.8;"/>
   </g>
   <g id="patch_4">
    <path d="M 398.136875 344.558166 
L 398.136875 11.918166 
" style="fill:none;stroke:#000000;stroke-linecap:square;stroke-linejoin:miter;stroke-width:0.8;"/>
   </g>
   <g id="patch_5">
    <path d="M 63.336875 344.558166 
L 398.136875 344.558166 
" style="fill:none;stroke:#000000;stroke-linecap:square;stroke-linejoin:miter;stroke-width:0.8;"/>
   </g>
   <g id="patch_6">
    <path d="M 63.336875 11.918166 
L 398.136875 11.918166 
" style="fill:none;stroke:#000000;stroke-linecap:square;stroke-linejoin:miter;stroke-width:0.8;"/>
   </g>
   <g id="text_16">
    <g id="patch_7">
     <path d="M 75.036875 335.960854 
L 166.79375 335.960854 
L 166.79375 298.478479 
L 75.036875 298.478479 
z
" style="fill:#ffffff;stroke:#000000;stroke-linejoin:miter;stroke-width:0.75;"/>
    </g>
    <!-- Auto_00063 -->
    <g transform="translate(80.076875 313.239729)scale(0.14 -0.14)">
     <defs>
      <path d="M 2928 1419 
L 1288 1419 
L 1000 750 
Q 894 503 894 381 
Q 894 284 986 211 
Q 1078 138 1384 116 
L 1384 0 
L 50 0 
L 50 116 
Q 316 163 394 238 
Q 553 388 747 847 
L 2238 4334 
L 2347 4334 
L 3822 809 
Q 4000 384 4145 257 
Q 4291 131 4550 116 
L 4550 0 
L 2878 0 
L 2878 116 
Q 3131 128 3220 200 
Q 3309 272 3309 375 
Q 3309 513 3184 809 
L 2928 1419 
z
M 2841 1650 
L 2122 3363 
L 1384 1650 
L 2841 1650 
z
" id="TimesNewRomanPSMT-41" transform="scale(0.015625)"/>
      <path d="M 2709 2863 
L 2709 1128 
Q 2709 631 2732 520 
Q 2756 409 2807 365 
Q 2859 322 2928 322 
Q 3025 322 3147 375 
L 3191 266 
L 2334 -88 
L 2194 -88 
L 2194 519 
Q 1825 119 1631 15 
Q 1438 -88 1222 -88 
Q 981 -88 804 51 
Q 628 191 559 409 
Q 491 628 491 1028 
L 491 2306 
Q 491 2509 447 2587 
Q 403 2666 317 2708 
Q 231 2750 6 2747 
L 6 2863 
L 1009 2863 
L 1009 947 
Q 1009 547 1148 422 
Q 1288 297 1484 297 
Q 1619 297 1789 381 
Q 1959 466 2194 703 
L 2194 2325 
Q 2194 2569 2105 2655 
Q 2016 2741 1734 2747 
L 1734 2863 
L 2709 2863 
z
" id="TimesNewRomanPSMT-75" transform="scale(0.015625)"/>
      <path d="M 3256 -1381 
L -53 -1381 
L -53 -1119 
L 3256 -1119 
L 3256 -1381 
z
" id="TimesNewRomanPSMT-5f" transform="scale(0.015625)"/>
     </defs>
     <use xlink:href="#TimesNewRomanPSMT-41"/>
     <use x="72.216797" xlink:href="#TimesNewRomanPSMT-75"/>
     <use x="122.216797" xlink:href="#TimesNewRomanPSMT-74"/>
     <use x="150" xlink:href="#TimesNewRomanPSMT-6f"/>
     <use x="200" xlink:href="#TimesNewRomanPSMT-5f"/>
     <use x="250" xlink:href="#TimesNewRomanPSMT-30"/>
     <use x="300" xlink:href="#TimesNewRomanPSMT-30"/>
     <use x="350" xlink:href="#TimesNewRomanPSMT-30"/>
     <use x="400" xlink:href="#TimesNewRomanPSMT-36"/>
     <use x="450" xlink:href="#TimesNewRomanPSMT-33"/>
    </g>
    <!-- Vs: 278.41m/s -->
    <g transform="translate(80.076875 327.926166)scale(0.14 -0.14)">
     <defs>
      <path d="M 903 2950 
Q 1047 2950 1148 2848 
Q 1250 2747 1250 2603 
Q 1250 2459 1148 2357 
Q 1047 2256 903 2256 
Q 759 2256 657 2357 
Q 556 2459 556 2603 
Q 556 2747 657 2848 
Q 759 2950 903 2950 
z
M 897 609 
Q 1044 609 1145 506 
Q 1247 403 1247 259 
Q 1247 116 1144 14 
Q 1041 -88 897 -88 
Q 753 -88 651 14 
Q 550 116 550 259 
Q 550 403 651 506 
Q 753 609 897 609 
z
" id="TimesNewRomanPSMT-3a" transform="scale(0.015625)"/>
      <path d="M 644 4238 
L 2916 4238 
L 2916 4119 
L 1503 -88 
L 1153 -88 
L 2419 3728 
L 1253 3728 
Q 900 3728 750 3644 
Q 488 3500 328 3200 
L 238 3234 
L 644 4238 
z
" id="TimesNewRomanPSMT-37" transform="scale(0.015625)"/>
      <path d="M 1228 2134 
Q 725 2547 579 2797 
Q 434 3047 434 3316 
Q 434 3728 753 4026 
Q 1072 4325 1600 4325 
Q 2113 4325 2425 4047 
Q 2738 3769 2738 3413 
Q 2738 3175 2569 2928 
Q 2400 2681 1866 2347 
Q 2416 1922 2594 1678 
Q 2831 1359 2831 1006 
Q 2831 559 2490 242 
Q 2150 -75 1597 -75 
Q 994 -75 656 303 
Q 388 606 388 966 
Q 388 1247 577 1523 
Q 766 1800 1228 2134 
z
M 1719 2469 
Q 2094 2806 2194 3001 
Q 2294 3197 2294 3444 
Q 2294 3772 2109 3958 
Q 1925 4144 1606 4144 
Q 1288 4144 1088 3959 
Q 888 3775 888 3528 
Q 888 3366 970 3203 
Q 1053 3041 1206 2894 
L 1719 2469 
z
M 1375 2016 
Q 1116 1797 991 1539 
Q 866 1281 866 981 
Q 866 578 1086 336 
Q 1306 94 1647 94 
Q 1984 94 2187 284 
Q 2391 475 2391 747 
Q 2391 972 2272 1150 
Q 2050 1481 1375 2016 
z
" id="TimesNewRomanPSMT-38" transform="scale(0.015625)"/>
      <path d="M 1794 4444 
L 259 -88 
L 9 -88 
L 1544 4444 
L 1794 4444 
z
" id="TimesNewRomanPSMT-2f" transform="scale(0.015625)"/>
     </defs>
     <use xlink:href="#TimesNewRomanPSMT-56"/>
     <use x="72.216797" xlink:href="#TimesNewRomanPSMT-73"/>
     <use x="111.132812" xlink:href="#TimesNewRomanPSMT-3a"/>
     <use x="138.916016" xlink:href="#TimesNewRomanPSMT-20"/>
     <use x="163.916016" xlink:href="#TimesNewRomanPSMT-32"/>
     <use x="213.916016" xlink:href="#TimesNewRomanPSMT-37"/>
     <use x="263.916016" xlink:href="#TimesNewRomanPSMT-38"/>
     <use x="313.916016" xlink:href="#TimesNewRomanPSMT-2e"/>
     <use x="338.916016" xlink:href="#TimesNewRomanPSMT-34"/>
     <use x="388.916016" xlink:href="#TimesNewRomanPSMT-31"/>
     <use x="438.916016" xlink:href="#TimesNewRomanPSMT-6d"/>
     <use x="516.699219" xlink:href="#TimesNewRomanPSMT-2f"/>
     <use x="544.482422" xlink:href="#TimesNewRomanPSMT-73"/>
    </g>
   </g>
  </g>
 </g>
 <defs>
  <clipPath id="p8de353d540">
   <rect height="332.64" width="334.8" x="63.336875" y="11.918166"/>
  </clipPath>
 </defs>
</svg>
