<?xml version="1.0" encoding="utf-8" standalone="no"?>
<!DOCTYPE svg PUBLIC "-//W3C//DTD SVG 1.1//EN"
  "http://www.w3.org/Graphics/SVG/1.1/DTD/svg11.dtd">
<svg height="384.234771pt" version="1.1" viewBox="0 0 421.086875 384.234771" width="421.086875pt" xmlns="http://www.w3.org/2000/svg" xmlns:xlink="http://www.w3.org/1999/xlink">
 <metadata>
  <rdf:RDF xmlns:cc="http://creativecommons.org/ns#" xmlns:dc="http://purl.org/dc/elements/1.1/" xmlns:rdf="http://www.w3.org/1999/02/22-rdf-syntax-ns#">
   <cc:Work>
    <dc:type rdf:resource="http://purl.org/dc/dcmitype/StillImage"/>
    <dc:date>2021-06-11T14:39:38.105670</dc:date>
    <dc:format>image/svg+xml</dc:format>
    <dc:creator>
     <cc:Agent>
      <dc:title>Matplotlib v3.4.2, https://matplotlib.org/</dc:title>
     </cc:Agent>
    </dc:creator>
   </cc:Work>
  </rdf:RDF>
 </metadata>
 <defs>
  <style type="text/css">*{stroke-linecap:butt;stroke-linejoin:round;}</style>
 </defs>
 <g id="figure_1">
  <g id="patch_1">
   <path d="M 0 384.234771 
L 421.086875 384.234771 
L 421.086875 0 
L 0 0 
z
" style="fill:#ffffff;"/>
  </g>
  <g id="axes_1">
   <g id="patch_2">
    <path d="M 63.336875 340.602896 
L 398.136875 340.602896 
L 398.136875 7.962896 
L 63.336875 7.962896 
z
" style="fill:#ffffff;"/>
   </g>
   <g id="matplotlib.axis_1">
    <g id="xtick_1">
     <g id="line2d_1">
      <path clip-path="url(#pe7b06de0ad)" d="M 93.773239 340.602896 
L 93.773239 7.962896 
" style="fill:none;stroke:#000000;stroke-dasharray:0.5,0.825;stroke-dashoffset:0;stroke-width:0.5;"/>
     </g>
     <g id="line2d_2">
      <defs>
       <path d="M 0 0 
L 0 3.5 
" id="mff7ae7837f" style="stroke:#000000;stroke-width:0.8;"/>
      </defs>
      <g>
       <use style="stroke:#000000;stroke-width:0.8;" x="93.773239" xlink:href="#mff7ae7837f" y="340.602896"/>
      </g>
     </g>
     <g id="text_1">
      <!-- 0.000 -->
      <g transform="translate(78.023239 357.324146)scale(0.14 -0.14)">
       <defs>
        <path d="M 231 2094 
Q 231 2819 450 3342 
Q 669 3866 1031 4122 
Q 1313 4325 1613 4325 
Q 2100 4325 2488 3828 
Q 2972 3213 2972 2159 
Q 2972 1422 2759 906 
Q 2547 391 2217 158 
Q 1888 -75 1581 -75 
Q 975 -75 572 641 
Q 231 1244 231 2094 
z
M 844 2016 
Q 844 1141 1059 588 
Q 1238 122 1591 122 
Q 1759 122 1940 273 
Q 2122 425 2216 781 
Q 2359 1319 2359 2297 
Q 2359 3022 2209 3506 
Q 2097 3866 1919 4016 
Q 1791 4119 1609 4119 
Q 1397 4119 1231 3928 
Q 1006 3669 925 3112 
Q 844 2556 844 2016 
z
" id="TimesNewRomanPSMT-30" transform="scale(0.015625)"/>
        <path d="M 800 606 
Q 947 606 1047 504 
Q 1147 403 1147 259 
Q 1147 116 1045 14 
Q 944 -88 800 -88 
Q 656 -88 554 14 
Q 453 116 453 259 
Q 453 406 554 506 
Q 656 606 800 606 
z
" id="TimesNewRomanPSMT-2e" transform="scale(0.015625)"/>
       </defs>
       <use xlink:href="#TimesNewRomanPSMT-30"/>
       <use x="50" xlink:href="#TimesNewRomanPSMT-2e"/>
       <use x="75" xlink:href="#TimesNewRomanPSMT-30"/>
       <use x="125" xlink:href="#TimesNewRomanPSMT-30"/>
       <use x="175" xlink:href="#TimesNewRomanPSMT-30"/>
      </g>
     </g>
    </g>
    <g id="xtick_2">
     <g id="line2d_3">
      <path clip-path="url(#pe7b06de0ad)" d="M 154.645966 340.602896 
L 154.645966 7.962896 
" style="fill:none;stroke:#000000;stroke-dasharray:0.5,0.825;stroke-dashoffset:0;stroke-width:0.5;"/>
     </g>
     <g id="line2d_4">
      <g>
       <use style="stroke:#000000;stroke-width:0.8;" x="154.645966" xlink:href="#mff7ae7837f" y="340.602896"/>
      </g>
     </g>
     <g id="text_2">
      <!-- 0.001 -->
      <g transform="translate(138.895966 357.324146)scale(0.14 -0.14)">
       <defs>
        <path d="M 750 3822 
L 1781 4325 
L 1884 4325 
L 1884 747 
Q 1884 391 1914 303 
Q 1944 216 2037 169 
Q 2131 122 2419 116 
L 2419 0 
L 825 0 
L 825 116 
Q 1125 122 1212 167 
Q 1300 213 1334 289 
Q 1369 366 1369 747 
L 1369 3034 
Q 1369 3497 1338 3628 
Q 1316 3728 1258 3775 
Q 1200 3822 1119 3822 
Q 1003 3822 797 3725 
L 750 3822 
z
" id="TimesNewRomanPSMT-31" transform="scale(0.015625)"/>
       </defs>
       <use xlink:href="#TimesNewRomanPSMT-30"/>
       <use x="50" xlink:href="#TimesNewRomanPSMT-2e"/>
       <use x="75" xlink:href="#TimesNewRomanPSMT-30"/>
       <use x="125" xlink:href="#TimesNewRomanPSMT-30"/>
       <use x="175" xlink:href="#TimesNewRomanPSMT-31"/>
      </g>
     </g>
    </g>
    <g id="xtick_3">
     <g id="line2d_5">
      <path clip-path="url(#pe7b06de0ad)" d="M 215.518693 340.602896 
L 215.518693 7.962896 
" style="fill:none;stroke:#000000;stroke-dasharray:0.5,0.825;stroke-dashoffset:0;stroke-width:0.5;"/>
     </g>
     <g id="line2d_6">
      <g>
       <use style="stroke:#000000;stroke-width:0.8;" x="215.518693" xlink:href="#mff7ae7837f" y="340.602896"/>
      </g>
     </g>
     <g id="text_3">
      <!-- 0.002 -->
      <g transform="translate(199.768693 357.324146)scale(0.14 -0.14)">
       <defs>
        <path d="M 2934 816 
L 2638 0 
L 138 0 
L 138 116 
Q 1241 1122 1691 1759 
Q 2141 2397 2141 2925 
Q 2141 3328 1894 3587 
Q 1647 3847 1303 3847 
Q 991 3847 742 3664 
Q 494 3481 375 3128 
L 259 3128 
Q 338 3706 661 4015 
Q 984 4325 1469 4325 
Q 1984 4325 2329 3994 
Q 2675 3663 2675 3213 
Q 2675 2891 2525 2569 
Q 2294 2063 1775 1497 
Q 997 647 803 472 
L 1909 472 
Q 2247 472 2383 497 
Q 2519 522 2628 598 
Q 2738 675 2819 816 
L 2934 816 
z
" id="TimesNewRomanPSMT-32" transform="scale(0.015625)"/>
       </defs>
       <use xlink:href="#TimesNewRomanPSMT-30"/>
       <use x="50" xlink:href="#TimesNewRomanPSMT-2e"/>
       <use x="75" xlink:href="#TimesNewRomanPSMT-30"/>
       <use x="125" xlink:href="#TimesNewRomanPSMT-30"/>
       <use x="175" xlink:href="#TimesNewRomanPSMT-32"/>
      </g>
     </g>
    </g>
    <g id="xtick_4">
     <g id="line2d_7">
      <path clip-path="url(#pe7b06de0ad)" d="M 276.39142 340.602896 
L 276.39142 7.962896 
" style="fill:none;stroke:#000000;stroke-dasharray:0.5,0.825;stroke-dashoffset:0;stroke-width:0.5;"/>
     </g>
     <g id="line2d_8">
      <g>
       <use style="stroke:#000000;stroke-width:0.8;" x="276.39142" xlink:href="#mff7ae7837f" y="340.602896"/>
      </g>
     </g>
     <g id="text_4">
      <!-- 0.003 -->
      <g transform="translate(260.64142 357.324146)scale(0.14 -0.14)">
       <defs>
        <path d="M 325 3431 
Q 506 3859 782 4092 
Q 1059 4325 1472 4325 
Q 1981 4325 2253 3994 
Q 2459 3747 2459 3466 
Q 2459 3003 1878 2509 
Q 2269 2356 2469 2072 
Q 2669 1788 2669 1403 
Q 2669 853 2319 450 
Q 1863 -75 997 -75 
Q 569 -75 414 31 
Q 259 138 259 259 
Q 259 350 332 419 
Q 406 488 509 488 
Q 588 488 669 463 
Q 722 447 909 348 
Q 1097 250 1169 231 
Q 1284 197 1416 197 
Q 1734 197 1970 444 
Q 2206 691 2206 1028 
Q 2206 1275 2097 1509 
Q 2016 1684 1919 1775 
Q 1784 1900 1550 2001 
Q 1316 2103 1072 2103 
L 972 2103 
L 972 2197 
Q 1219 2228 1467 2375 
Q 1716 2522 1828 2728 
Q 1941 2934 1941 3181 
Q 1941 3503 1739 3701 
Q 1538 3900 1238 3900 
Q 753 3900 428 3381 
L 325 3431 
z
" id="TimesNewRomanPSMT-33" transform="scale(0.015625)"/>
       </defs>
       <use xlink:href="#TimesNewRomanPSMT-30"/>
       <use x="50" xlink:href="#TimesNewRomanPSMT-2e"/>
       <use x="75" xlink:href="#TimesNewRomanPSMT-30"/>
       <use x="125" xlink:href="#TimesNewRomanPSMT-30"/>
       <use x="175" xlink:href="#TimesNewRomanPSMT-33"/>
      </g>
     </g>
    </g>
    <g id="xtick_5">
     <g id="line2d_9">
      <path clip-path="url(#pe7b06de0ad)" d="M 337.264148 340.602896 
L 337.264148 7.962896 
" style="fill:none;stroke:#000000;stroke-dasharray:0.5,0.825;stroke-dashoffset:0;stroke-width:0.5;"/>
     </g>
     <g id="line2d_10">
      <g>
       <use style="stroke:#000000;stroke-width:0.8;" x="337.264148" xlink:href="#mff7ae7837f" y="340.602896"/>
      </g>
     </g>
     <g id="text_5">
      <!-- 0.004 -->
      <g transform="translate(321.514148 357.324146)scale(0.14 -0.14)">
       <defs>
        <path d="M 2978 1563 
L 2978 1119 
L 2409 1119 
L 2409 0 
L 1894 0 
L 1894 1119 
L 100 1119 
L 100 1519 
L 2066 4325 
L 2409 4325 
L 2409 1563 
L 2978 1563 
z
M 1894 1563 
L 1894 3666 
L 406 1563 
L 1894 1563 
z
" id="TimesNewRomanPSMT-34" transform="scale(0.015625)"/>
       </defs>
       <use xlink:href="#TimesNewRomanPSMT-30"/>
       <use x="50" xlink:href="#TimesNewRomanPSMT-2e"/>
       <use x="75" xlink:href="#TimesNewRomanPSMT-30"/>
       <use x="125" xlink:href="#TimesNewRomanPSMT-30"/>
       <use x="175" xlink:href="#TimesNewRomanPSMT-34"/>
      </g>
     </g>
    </g>
    <g id="xtick_6">
     <g id="line2d_11">
      <path clip-path="url(#pe7b06de0ad)" d="M 398.136875 340.602896 
L 398.136875 7.962896 
" style="fill:none;stroke:#000000;stroke-dasharray:0.5,0.825;stroke-dashoffset:0;stroke-width:0.5;"/>
     </g>
     <g id="line2d_12">
      <g>
       <use style="stroke:#000000;stroke-width:0.8;" x="398.136875" xlink:href="#mff7ae7837f" y="340.602896"/>
      </g>
     </g>
     <g id="text_6">
      <!-- 0.005 -->
      <g transform="translate(382.386875 357.324146)scale(0.14 -0.14)">
       <defs>
        <path d="M 2778 4238 
L 2534 3706 
L 1259 3706 
L 981 3138 
Q 1809 3016 2294 2522 
Q 2709 2097 2709 1522 
Q 2709 1188 2573 903 
Q 2438 619 2231 419 
Q 2025 219 1772 97 
Q 1413 -75 1034 -75 
Q 653 -75 479 54 
Q 306 184 306 341 
Q 306 428 378 495 
Q 450 563 559 563 
Q 641 563 702 538 
Q 763 513 909 409 
Q 1144 247 1384 247 
Q 1750 247 2026 523 
Q 2303 800 2303 1197 
Q 2303 1581 2056 1914 
Q 1809 2247 1375 2428 
Q 1034 2569 447 2591 
L 1259 4238 
L 2778 4238 
z
" id="TimesNewRomanPSMT-35" transform="scale(0.015625)"/>
       </defs>
       <use xlink:href="#TimesNewRomanPSMT-30"/>
       <use x="50" xlink:href="#TimesNewRomanPSMT-2e"/>
       <use x="75" xlink:href="#TimesNewRomanPSMT-30"/>
       <use x="125" xlink:href="#TimesNewRomanPSMT-30"/>
       <use x="175" xlink:href="#TimesNewRomanPSMT-35"/>
      </g>
     </g>
    </g>
    <g id="text_7">
     <!-- Time (sec) -->
     <g transform="translate(200.858906 374.040084)scale(0.14 -0.14)">
      <defs>
       <path d="M 3703 4238 
L 3750 3244 
L 3631 3244 
Q 3597 3506 3538 3619 
Q 3441 3800 3280 3886 
Q 3119 3972 2856 3972 
L 2259 3972 
L 2259 734 
Q 2259 344 2344 247 
Q 2463 116 2709 116 
L 2856 116 
L 2856 0 
L 1059 0 
L 1059 116 
L 1209 116 
Q 1478 116 1591 278 
Q 1659 378 1659 734 
L 1659 3972 
L 1150 3972 
Q 853 3972 728 3928 
Q 566 3869 450 3700 
Q 334 3531 313 3244 
L 194 3244 
L 244 4238 
L 3703 4238 
z
" id="TimesNewRomanPSMT-54" transform="scale(0.015625)"/>
       <path d="M 928 4444 
Q 1059 4444 1151 4351 
Q 1244 4259 1244 4128 
Q 1244 3997 1151 3903 
Q 1059 3809 928 3809 
Q 797 3809 703 3903 
Q 609 3997 609 4128 
Q 609 4259 701 4351 
Q 794 4444 928 4444 
z
M 1188 2947 
L 1188 647 
Q 1188 378 1227 289 
Q 1266 200 1342 156 
Q 1419 113 1622 113 
L 1622 0 
L 231 0 
L 231 113 
Q 441 113 512 153 
Q 584 194 626 287 
Q 669 381 669 647 
L 669 1750 
Q 669 2216 641 2353 
Q 619 2453 572 2492 
Q 525 2531 444 2531 
Q 356 2531 231 2484 
L 188 2597 
L 1050 2947 
L 1188 2947 
z
" id="TimesNewRomanPSMT-69" transform="scale(0.015625)"/>
       <path d="M 1050 2338 
Q 1363 2650 1419 2697 
Q 1559 2816 1721 2881 
Q 1884 2947 2044 2947 
Q 2313 2947 2506 2790 
Q 2700 2634 2766 2338 
Q 3088 2713 3309 2830 
Q 3531 2947 3766 2947 
Q 3994 2947 4170 2830 
Q 4347 2713 4450 2447 
Q 4519 2266 4519 1878 
L 4519 647 
Q 4519 378 4559 278 
Q 4591 209 4675 161 
Q 4759 113 4950 113 
L 4950 0 
L 3538 0 
L 3538 113 
L 3597 113 
Q 3781 113 3884 184 
Q 3956 234 3988 344 
Q 4000 397 4000 647 
L 4000 1878 
Q 4000 2228 3916 2372 
Q 3794 2572 3525 2572 
Q 3359 2572 3192 2489 
Q 3025 2406 2788 2181 
L 2781 2147 
L 2788 2013 
L 2788 647 
Q 2788 353 2820 281 
Q 2853 209 2943 161 
Q 3034 113 3253 113 
L 3253 0 
L 1806 0 
L 1806 113 
Q 2044 113 2133 169 
Q 2222 225 2256 338 
Q 2272 391 2272 647 
L 2272 1878 
Q 2272 2228 2169 2381 
Q 2031 2581 1784 2581 
Q 1616 2581 1450 2491 
Q 1191 2353 1050 2181 
L 1050 647 
Q 1050 366 1089 281 
Q 1128 197 1204 155 
Q 1281 113 1516 113 
L 1516 0 
L 100 0 
L 100 113 
Q 297 113 375 155 
Q 453 197 493 289 
Q 534 381 534 647 
L 534 1741 
Q 534 2213 506 2350 
Q 484 2453 437 2492 
Q 391 2531 309 2531 
Q 222 2531 100 2484 
L 53 2597 
L 916 2947 
L 1050 2947 
L 1050 2338 
z
" id="TimesNewRomanPSMT-6d" transform="scale(0.015625)"/>
       <path d="M 681 1784 
Q 678 1147 991 784 
Q 1303 422 1725 422 
Q 2006 422 2214 576 
Q 2422 731 2563 1106 
L 2659 1044 
Q 2594 616 2278 264 
Q 1963 -88 1488 -88 
Q 972 -88 605 314 
Q 238 716 238 1394 
Q 238 2128 614 2539 
Q 991 2950 1559 2950 
Q 2041 2950 2350 2633 
Q 2659 2316 2659 1784 
L 681 1784 
z
M 681 1966 
L 2006 1966 
Q 1991 2241 1941 2353 
Q 1863 2528 1708 2628 
Q 1553 2728 1384 2728 
Q 1125 2728 920 2526 
Q 716 2325 681 1966 
z
" id="TimesNewRomanPSMT-65" transform="scale(0.015625)"/>
       <path id="TimesNewRomanPSMT-20" transform="scale(0.015625)"/>
       <path d="M 1988 -1253 
L 1988 -1369 
Q 1516 -1131 1200 -813 
Q 750 -359 506 256 
Q 263 872 263 1534 
Q 263 2503 741 3301 
Q 1219 4100 1988 4444 
L 1988 4313 
Q 1603 4100 1356 3731 
Q 1109 3363 987 2797 
Q 866 2231 866 1616 
Q 866 947 969 400 
Q 1050 -31 1165 -292 
Q 1281 -553 1476 -793 
Q 1672 -1034 1988 -1253 
z
" id="TimesNewRomanPSMT-28" transform="scale(0.015625)"/>
       <path d="M 2050 2947 
L 2050 1972 
L 1947 1972 
Q 1828 2431 1642 2597 
Q 1456 2763 1169 2763 
Q 950 2763 815 2647 
Q 681 2531 681 2391 
Q 681 2216 781 2091 
Q 878 1963 1175 1819 
L 1631 1597 
Q 2266 1288 2266 781 
Q 2266 391 1970 151 
Q 1675 -88 1309 -88 
Q 1047 -88 709 6 
Q 606 38 541 38 
Q 469 38 428 -44 
L 325 -44 
L 325 978 
L 428 978 
Q 516 541 762 319 
Q 1009 97 1316 97 
Q 1531 97 1667 223 
Q 1803 350 1803 528 
Q 1803 744 1651 891 
Q 1500 1038 1047 1263 
Q 594 1488 453 1669 
Q 313 1847 313 2119 
Q 313 2472 555 2709 
Q 797 2947 1181 2947 
Q 1350 2947 1591 2875 
Q 1750 2828 1803 2828 
Q 1853 2828 1881 2850 
Q 1909 2872 1947 2947 
L 2050 2947 
z
" id="TimesNewRomanPSMT-73" transform="scale(0.015625)"/>
       <path d="M 2631 1088 
Q 2516 522 2178 217 
Q 1841 -88 1431 -88 
Q 944 -88 581 321 
Q 219 731 219 1428 
Q 219 2103 620 2525 
Q 1022 2947 1584 2947 
Q 2006 2947 2278 2723 
Q 2550 2500 2550 2259 
Q 2550 2141 2473 2067 
Q 2397 1994 2259 1994 
Q 2075 1994 1981 2113 
Q 1928 2178 1911 2362 
Q 1894 2547 1784 2644 
Q 1675 2738 1481 2738 
Q 1169 2738 978 2506 
Q 725 2200 725 1697 
Q 725 1184 976 792 
Q 1228 400 1656 400 
Q 1963 400 2206 609 
Q 2378 753 2541 1131 
L 2631 1088 
z
" id="TimesNewRomanPSMT-63" transform="scale(0.015625)"/>
       <path d="M 144 4313 
L 144 4444 
Q 619 4209 934 3891 
Q 1381 3434 1625 2820 
Q 1869 2206 1869 1541 
Q 1869 572 1392 -226 
Q 916 -1025 144 -1369 
L 144 -1253 
Q 528 -1038 776 -670 
Q 1025 -303 1145 264 
Q 1266 831 1266 1447 
Q 1266 2113 1163 2663 
Q 1084 3094 967 3353 
Q 850 3613 656 3853 
Q 463 4094 144 4313 
z
" id="TimesNewRomanPSMT-29" transform="scale(0.015625)"/>
      </defs>
      <use xlink:href="#TimesNewRomanPSMT-54"/>
      <use x="57.583984" xlink:href="#TimesNewRomanPSMT-69"/>
      <use x="85.367188" xlink:href="#TimesNewRomanPSMT-6d"/>
      <use x="163.150391" xlink:href="#TimesNewRomanPSMT-65"/>
      <use x="207.535156" xlink:href="#TimesNewRomanPSMT-20"/>
      <use x="232.535156" xlink:href="#TimesNewRomanPSMT-28"/>
      <use x="265.835938" xlink:href="#TimesNewRomanPSMT-73"/>
      <use x="304.751953" xlink:href="#TimesNewRomanPSMT-65"/>
      <use x="349.136719" xlink:href="#TimesNewRomanPSMT-63"/>
      <use x="393.521484" xlink:href="#TimesNewRomanPSMT-29"/>
     </g>
    </g>
   </g>
   <g id="matplotlib.axis_2">
    <g id="ytick_1">
     <g id="line2d_13">
      <path clip-path="url(#pe7b06de0ad)" d="M 63.336875 297.849175 
L 398.136875 297.849175 
" style="fill:none;stroke:#000000;stroke-dasharray:0.5,0.825;stroke-dashoffset:0;stroke-width:0.5;"/>
     </g>
     <g id="line2d_14">
      <defs>
       <path d="M 0 0 
L -3.5 0 
" id="m425bfc0d47" style="stroke:#000000;stroke-width:0.8;"/>
      </defs>
      <g>
       <use style="stroke:#000000;stroke-width:0.8;" x="63.336875" xlink:href="#m425bfc0d47" y="297.849175"/>
      </g>
     </g>
     <g id="text_8">
      <!-- −0.06 -->
      <g transform="translate(23.942188 302.7098)scale(0.14 -0.14)">
       <defs>
        <path d="M 3484 2000 
L 116 2000 
L 116 2256 
L 3484 2256 
L 3484 2000 
z
" id="TimesNewRomanPSMT-2212" transform="scale(0.015625)"/>
        <path d="M 2869 4325 
L 2869 4209 
Q 2456 4169 2195 4045 
Q 1934 3922 1679 3669 
Q 1425 3416 1258 3105 
Q 1091 2794 978 2366 
Q 1428 2675 1881 2675 
Q 2316 2675 2634 2325 
Q 2953 1975 2953 1425 
Q 2953 894 2631 456 
Q 2244 -75 1606 -75 
Q 1172 -75 869 213 
Q 275 772 275 1663 
Q 275 2231 503 2743 
Q 731 3256 1154 3653 
Q 1578 4050 1965 4187 
Q 2353 4325 2688 4325 
L 2869 4325 
z
M 925 2138 
Q 869 1716 869 1456 
Q 869 1156 980 804 
Q 1091 453 1309 247 
Q 1469 100 1697 100 
Q 1969 100 2183 356 
Q 2397 613 2397 1088 
Q 2397 1622 2184 2012 
Q 1972 2403 1581 2403 
Q 1463 2403 1327 2353 
Q 1191 2303 925 2138 
z
" id="TimesNewRomanPSMT-36" transform="scale(0.015625)"/>
       </defs>
       <use xlink:href="#TimesNewRomanPSMT-2212"/>
       <use x="56.396484" xlink:href="#TimesNewRomanPSMT-30"/>
       <use x="106.396484" xlink:href="#TimesNewRomanPSMT-2e"/>
       <use x="131.396484" xlink:href="#TimesNewRomanPSMT-30"/>
       <use x="181.396484" xlink:href="#TimesNewRomanPSMT-36"/>
      </g>
     </g>
    </g>
    <g id="ytick_2">
     <g id="line2d_15">
      <path clip-path="url(#pe7b06de0ad)" d="M 63.336875 250.21775 
L 398.136875 250.21775 
" style="fill:none;stroke:#000000;stroke-dasharray:0.5,0.825;stroke-dashoffset:0;stroke-width:0.5;"/>
     </g>
     <g id="line2d_16">
      <g>
       <use style="stroke:#000000;stroke-width:0.8;" x="63.336875" xlink:href="#m425bfc0d47" y="250.21775"/>
      </g>
     </g>
     <g id="text_9">
      <!-- −0.04 -->
      <g transform="translate(23.942188 255.078375)scale(0.14 -0.14)">
       <use xlink:href="#TimesNewRomanPSMT-2212"/>
       <use x="56.396484" xlink:href="#TimesNewRomanPSMT-30"/>
       <use x="106.396484" xlink:href="#TimesNewRomanPSMT-2e"/>
       <use x="131.396484" xlink:href="#TimesNewRomanPSMT-30"/>
       <use x="181.396484" xlink:href="#TimesNewRomanPSMT-34"/>
      </g>
     </g>
    </g>
    <g id="ytick_3">
     <g id="line2d_17">
      <path clip-path="url(#pe7b06de0ad)" d="M 63.336875 202.586325 
L 398.136875 202.586325 
" style="fill:none;stroke:#000000;stroke-dasharray:0.5,0.825;stroke-dashoffset:0;stroke-width:0.5;"/>
     </g>
     <g id="line2d_18">
      <g>
       <use style="stroke:#000000;stroke-width:0.8;" x="63.336875" xlink:href="#m425bfc0d47" y="202.586325"/>
      </g>
     </g>
     <g id="text_10">
      <!-- −0.02 -->
      <g transform="translate(23.942188 207.44695)scale(0.14 -0.14)">
       <use xlink:href="#TimesNewRomanPSMT-2212"/>
       <use x="56.396484" xlink:href="#TimesNewRomanPSMT-30"/>
       <use x="106.396484" xlink:href="#TimesNewRomanPSMT-2e"/>
       <use x="131.396484" xlink:href="#TimesNewRomanPSMT-30"/>
       <use x="181.396484" xlink:href="#TimesNewRomanPSMT-32"/>
      </g>
     </g>
    </g>
    <g id="ytick_4">
     <g id="line2d_19">
      <path clip-path="url(#pe7b06de0ad)" d="M 63.336875 154.9549 
L 398.136875 154.9549 
" style="fill:none;stroke:#000000;stroke-dasharray:0.5,0.825;stroke-dashoffset:0;stroke-width:0.5;"/>
     </g>
     <g id="line2d_20">
      <g>
       <use style="stroke:#000000;stroke-width:0.8;" x="63.336875" xlink:href="#m425bfc0d47" y="154.9549"/>
      </g>
     </g>
     <g id="text_11">
      <!-- 0.00 -->
      <g transform="translate(31.836875 159.815525)scale(0.14 -0.14)">
       <use xlink:href="#TimesNewRomanPSMT-30"/>
       <use x="50" xlink:href="#TimesNewRomanPSMT-2e"/>
       <use x="75" xlink:href="#TimesNewRomanPSMT-30"/>
       <use x="125" xlink:href="#TimesNewRomanPSMT-30"/>
      </g>
     </g>
    </g>
    <g id="ytick_5">
     <g id="line2d_21">
      <path clip-path="url(#pe7b06de0ad)" d="M 63.336875 107.323475 
L 398.136875 107.323475 
" style="fill:none;stroke:#000000;stroke-dasharray:0.5,0.825;stroke-dashoffset:0;stroke-width:0.5;"/>
     </g>
     <g id="line2d_22">
      <g>
       <use style="stroke:#000000;stroke-width:0.8;" x="63.336875" xlink:href="#m425bfc0d47" y="107.323475"/>
      </g>
     </g>
     <g id="text_12">
      <!-- 0.02 -->
      <g transform="translate(31.836875 112.1841)scale(0.14 -0.14)">
       <use xlink:href="#TimesNewRomanPSMT-30"/>
       <use x="50" xlink:href="#TimesNewRomanPSMT-2e"/>
       <use x="75" xlink:href="#TimesNewRomanPSMT-30"/>
       <use x="125" xlink:href="#TimesNewRomanPSMT-32"/>
      </g>
     </g>
    </g>
    <g id="ytick_6">
     <g id="line2d_23">
      <path clip-path="url(#pe7b06de0ad)" d="M 63.336875 59.69205 
L 398.136875 59.69205 
" style="fill:none;stroke:#000000;stroke-dasharray:0.5,0.825;stroke-dashoffset:0;stroke-width:0.5;"/>
     </g>
     <g id="line2d_24">
      <g>
       <use style="stroke:#000000;stroke-width:0.8;" x="63.336875" xlink:href="#m425bfc0d47" y="59.69205"/>
      </g>
     </g>
     <g id="text_13">
      <!-- 0.04 -->
      <g transform="translate(31.836875 64.552675)scale(0.14 -0.14)">
       <use xlink:href="#TimesNewRomanPSMT-30"/>
       <use x="50" xlink:href="#TimesNewRomanPSMT-2e"/>
       <use x="75" xlink:href="#TimesNewRomanPSMT-30"/>
       <use x="125" xlink:href="#TimesNewRomanPSMT-34"/>
      </g>
     </g>
    </g>
    <g id="ytick_7">
     <g id="line2d_25">
      <path clip-path="url(#pe7b06de0ad)" d="M 63.336875 12.060625 
L 398.136875 12.060625 
" style="fill:none;stroke:#000000;stroke-dasharray:0.5,0.825;stroke-dashoffset:0;stroke-width:0.5;"/>
     </g>
     <g id="line2d_26">
      <g>
       <use style="stroke:#000000;stroke-width:0.8;" x="63.336875" xlink:href="#m425bfc0d47" y="12.060625"/>
      </g>
     </g>
     <g id="text_14">
      <!-- 0.06 -->
      <g transform="translate(31.836875 16.92125)scale(0.14 -0.14)">
       <use xlink:href="#TimesNewRomanPSMT-30"/>
       <use x="50" xlink:href="#TimesNewRomanPSMT-2e"/>
       <use x="75" xlink:href="#TimesNewRomanPSMT-30"/>
       <use x="125" xlink:href="#TimesNewRomanPSMT-36"/>
      </g>
     </g>
    </g>
    <g id="text_15">
     <!-- Volatage (V) -->
     <g transform="translate(16.92125 210.11524)rotate(-90)scale(0.14 -0.14)">
      <defs>
       <path d="M 4544 4238 
L 4544 4122 
Q 4319 4081 4203 3978 
Q 4038 3825 3909 3509 
L 2431 -97 
L 2316 -97 
L 728 3556 
Q 606 3838 556 3900 
Q 478 3997 364 4051 
Q 250 4106 56 4122 
L 56 4238 
L 1788 4238 
L 1788 4122 
Q 1494 4094 1406 4022 
Q 1319 3950 1319 3838 
Q 1319 3681 1463 3350 
L 2541 866 
L 3541 3319 
Q 3688 3681 3688 3822 
Q 3688 3913 3597 3995 
Q 3506 4078 3291 4113 
Q 3275 4116 3238 4122 
L 3238 4238 
L 4544 4238 
z
" id="TimesNewRomanPSMT-56" transform="scale(0.015625)"/>
       <path d="M 1600 2947 
Q 2250 2947 2644 2453 
Q 2978 2031 2978 1484 
Q 2978 1100 2793 706 
Q 2609 313 2286 112 
Q 1963 -88 1566 -88 
Q 919 -88 538 428 
Q 216 863 216 1403 
Q 216 1797 411 2186 
Q 606 2575 925 2761 
Q 1244 2947 1600 2947 
z
M 1503 2744 
Q 1338 2744 1170 2645 
Q 1003 2547 900 2300 
Q 797 2053 797 1666 
Q 797 1041 1045 587 
Q 1294 134 1700 134 
Q 2003 134 2200 384 
Q 2397 634 2397 1244 
Q 2397 2006 2069 2444 
Q 1847 2744 1503 2744 
z
" id="TimesNewRomanPSMT-6f" transform="scale(0.015625)"/>
       <path d="M 1184 4444 
L 1184 647 
Q 1184 378 1223 290 
Q 1263 203 1344 158 
Q 1425 113 1647 113 
L 1647 0 
L 244 0 
L 244 113 
Q 441 113 512 153 
Q 584 194 625 287 
Q 666 381 666 647 
L 666 3247 
Q 666 3731 644 3842 
Q 622 3953 573 3993 
Q 525 4034 450 4034 
Q 369 4034 244 3984 
L 191 4094 
L 1044 4444 
L 1184 4444 
z
" id="TimesNewRomanPSMT-6c" transform="scale(0.015625)"/>
       <path d="M 1822 413 
Q 1381 72 1269 19 
Q 1100 -59 909 -59 
Q 613 -59 420 144 
Q 228 347 228 678 
Q 228 888 322 1041 
Q 450 1253 767 1440 
Q 1084 1628 1822 1897 
L 1822 2009 
Q 1822 2438 1686 2597 
Q 1550 2756 1291 2756 
Q 1094 2756 978 2650 
Q 859 2544 859 2406 
L 866 2225 
Q 866 2081 792 2003 
Q 719 1925 600 1925 
Q 484 1925 411 2006 
Q 338 2088 338 2228 
Q 338 2497 613 2722 
Q 888 2947 1384 2947 
Q 1766 2947 2009 2819 
Q 2194 2722 2281 2516 
Q 2338 2381 2338 1966 
L 2338 994 
Q 2338 584 2353 492 
Q 2369 400 2405 369 
Q 2441 338 2488 338 
Q 2538 338 2575 359 
Q 2641 400 2828 588 
L 2828 413 
Q 2478 -56 2159 -56 
Q 2006 -56 1915 50 
Q 1825 156 1822 413 
z
M 1822 616 
L 1822 1706 
Q 1350 1519 1213 1441 
Q 966 1303 859 1153 
Q 753 1003 753 825 
Q 753 600 887 451 
Q 1022 303 1197 303 
Q 1434 303 1822 616 
z
" id="TimesNewRomanPSMT-61" transform="scale(0.015625)"/>
       <path d="M 1031 3803 
L 1031 2863 
L 1700 2863 
L 1700 2644 
L 1031 2644 
L 1031 788 
Q 1031 509 1111 412 
Q 1191 316 1316 316 
Q 1419 316 1516 380 
Q 1613 444 1666 569 
L 1788 569 
Q 1678 263 1478 108 
Q 1278 -47 1066 -47 
Q 922 -47 784 33 
Q 647 113 581 261 
Q 516 409 516 719 
L 516 2644 
L 63 2644 
L 63 2747 
Q 234 2816 414 2980 
Q 594 3144 734 3369 
Q 806 3488 934 3803 
L 1031 3803 
z
" id="TimesNewRomanPSMT-74" transform="scale(0.015625)"/>
       <path d="M 966 1044 
Q 703 1172 562 1401 
Q 422 1631 422 1909 
Q 422 2334 742 2640 
Q 1063 2947 1563 2947 
Q 1972 2947 2272 2747 
L 2878 2747 
Q 3013 2747 3034 2739 
Q 3056 2731 3066 2713 
Q 3084 2684 3084 2613 
Q 3084 2531 3069 2500 
Q 3059 2484 3036 2475 
Q 3013 2466 2878 2466 
L 2506 2466 
Q 2681 2241 2681 1891 
Q 2681 1491 2375 1206 
Q 2069 922 1553 922 
Q 1341 922 1119 984 
Q 981 866 932 777 
Q 884 688 884 625 
Q 884 572 936 522 
Q 988 472 1138 450 
Q 1225 438 1575 428 
Q 2219 413 2409 384 
Q 2700 344 2873 169 
Q 3047 -6 3047 -263 
Q 3047 -616 2716 -925 
Q 2228 -1381 1444 -1381 
Q 841 -1381 425 -1109 
Q 191 -953 191 -784 
Q 191 -709 225 -634 
Q 278 -519 444 -313 
Q 466 -284 763 25 
Q 600 122 533 198 
Q 466 275 466 372 
Q 466 481 555 628 
Q 644 775 966 1044 
z
M 1509 2797 
Q 1278 2797 1122 2612 
Q 966 2428 966 2047 
Q 966 1553 1178 1281 
Q 1341 1075 1591 1075 
Q 1828 1075 1981 1253 
Q 2134 1431 2134 1813 
Q 2134 2309 1919 2591 
Q 1759 2797 1509 2797 
z
M 934 0 
Q 788 -159 713 -296 
Q 638 -434 638 -550 
Q 638 -700 819 -813 
Q 1131 -1006 1722 -1006 
Q 2284 -1006 2551 -807 
Q 2819 -609 2819 -384 
Q 2819 -222 2659 -153 
Q 2497 -84 2016 -72 
Q 1313 -53 934 0 
z
" id="TimesNewRomanPSMT-67" transform="scale(0.015625)"/>
      </defs>
      <use xlink:href="#TimesNewRomanPSMT-56"/>
      <use x="59.341797" xlink:href="#TimesNewRomanPSMT-6f"/>
      <use x="109.341797" xlink:href="#TimesNewRomanPSMT-6c"/>
      <use x="137.125" xlink:href="#TimesNewRomanPSMT-61"/>
      <use x="181.509766" xlink:href="#TimesNewRomanPSMT-74"/>
      <use x="209.292969" xlink:href="#TimesNewRomanPSMT-61"/>
      <use x="253.677734" xlink:href="#TimesNewRomanPSMT-67"/>
      <use x="303.677734" xlink:href="#TimesNewRomanPSMT-65"/>
      <use x="348.0625" xlink:href="#TimesNewRomanPSMT-20"/>
      <use x="373.0625" xlink:href="#TimesNewRomanPSMT-28"/>
      <use x="406.363281" xlink:href="#TimesNewRomanPSMT-56"/>
      <use x="478.580078" xlink:href="#TimesNewRomanPSMT-29"/>
     </g>
    </g>
   </g>
   <g id="LineCollection_1">
    <path clip-path="url(#pe7b06de0ad)" d="M 78.555057 154.9549 
L 382.918693 154.9549 
" style="fill:none;stroke:#1f77b4;stroke-width:1.5;"/>
   </g>
   <g id="line2d_27">
    <path clip-path="url(#pe7b06de0ad)" d="M 78.555057 154.932632 
L 88.90342 154.992172 
L 88.933857 155.051711 
L 89.025166 154.992172 
L 89.177348 154.992172 
L 90.273057 155.021941 
L 90.303493 155.11125 
L 90.364366 155.081481 
L 90.486111 155.051711 
L 90.66873 155.081481 
L 94.747202 155.14102 
L 94.899384 155.200559 
L 95.082002 155.14102 
L 95.26462 155.170789 
L 100.073566 155.260098 
L 100.225748 155.260098 
L 103.786802 155.349407 
L 103.908548 155.408947 
L 103.938984 155.349407 
L 104.091166 155.349407 
L 107.773966 155.408947 
L 107.926148 155.468486 
L 108.047893 155.438716 
L 112.582911 155.468486 
L 112.613348 155.557795 
L 112.704657 155.498256 
L 112.887275 155.557795 
L 113.069893 155.498256 
L 113.252511 155.557795 
L 113.404693 155.557795 
L 114.68302 155.647104 
L 114.865639 155.676873 
L 115.717857 155.736413 
L 115.870039 155.825722 
L 116.387457 155.91503 
L 116.539639 155.91503 
L 117.02662 156.004339 
L 117.209239 156.063879 
L 117.36142 156.063879 
L 117.483166 156.093648 
L 118.091893 156.182957 
L 118.274511 156.242496 
L 118.426693 156.242496 
L 118.974548 156.331805 
L 119.096293 156.361575 
L 119.12673 156.302036 
L 119.218039 156.361575 
L 119.37022 156.391345 
L 119.522402 156.391345 
L 120.252875 156.480654 
L 120.405057 156.480654 
L 121.80513 156.569963 
L 121.957311 156.659271 
L 121.987748 156.569963 
L 122.04862 156.659271 
L 122.626911 156.718811 
L 122.779093 156.77835 
L 123.205202 156.867659 
L 123.418257 156.927198 
L 123.783493 157.016507 
L 124.087857 157.165355 
L 124.209602 157.195125 
L 124.48353 157.314204 
L 124.696584 157.403512 
L 125.000948 157.552361 
L 125.15313 157.64167 
L 126.888002 159.487387 
L 128.83593 163.506289 
L 129.201166 164.488687 
L 130.875166 169.728144 
L 132.488293 175.592763 
L 134.497093 181.784848 
L 134.77102 182.588628 
L 135.927602 185.654901 
L 136.079784 185.952598 
L 136.292839 186.280064 
L 137.54073 187.381541 
L 137.692911 187.351771 
L 137.87553 187.381541 
L 138.027711 187.351771 
L 138.149457 187.41131 
L 138.423384 187.292232 
L 138.54513 187.262462 
L 139.245166 186.458682 
L 139.519093 185.982368 
L 139.671275 185.714441 
L 140.949602 181.636 
L 142.684475 172.645568 
L 144.723711 157.969136 
L 146.854257 138.231864 
L 148.193457 124.121054 
L 149.015239 115.071086 
L 153.063275 72.70889 
L 154.006802 64.462697 
L 154.402475 61.485726 
L 155.254693 55.68065 
L 155.832984 52.435762 
L 156.776511 48.327552 
L 157.811348 45.588745 
L 158.176584 45.350583 
L 158.389639 45.410122 
L 158.602693 45.499438 
L 159.180984 46.213902 
L 160.246257 49.667188 
L 161.189784 54.817329 
L 162.711602 67.558737 
L 163.502948 76.340783 
L 165.603057 106.616506 
L 168.098839 152.461752 
L 174.125239 268.176348 
L 175.190511 284.103105 
L 176.529711 300.952722 
L 177.442802 310.419461 
L 178.782002 320.094603 
L 180.06033 324.679126 
L 180.97342 325.453139 
L 181.39953 324.917285 
L 182.556111 321.196066 
L 182.769166 319.945748 
L 184.047493 310.479009 
L 186.42153 283.775637 
L 187.699857 264.782606 
L 189.647784 230.547515 
L 190.68262 210.393473 
L 193.087093 160.97587 
L 197.439493 82.116089 
L 198.870002 62.736055 
L 200.361384 46.452064 
L 201.791893 34.841904 
L 202.40062 31.418393 
L 203.100657 27.96511 
L 203.922439 25.196536 
L 204.531166 23.708056 
L 205.231202 23.142436 
L 205.383384 23.142436 
L 205.566002 23.112661 
L 205.779057 23.201977 
L 206.205166 23.737831 
L 206.41822 24.154603 
L 206.479093 24.214143 
L 207.270439 26.000316 
L 207.818293 27.935345 
L 208.579202 31.299315 
L 209.279239 35.347984 
L 209.492293 36.568546 
L 210.344511 42.373621 
L 212.20113 55.799731 
L 220.327639 126.383547 
L 224.132184 151.687742 
L 225.440948 157.58213 
L 225.59313 158.117984 
L 225.867057 159.219461 
L 226.567093 162.136885 
L 227.297566 164.607766 
L 228.210657 167.733578 
L 228.454148 168.448049 
L 228.971566 170.293767 
L 229.27593 171.276165 
L 230.61513 175.533225 
L 231.010802 176.6347 
L 231.589093 178.659036 
L 232.989166 184.583194 
L 233.750075 188.393708 
L 234.328366 191.727908 
L 235.028402 195.776582 
L 235.363202 197.890221 
L 236.184984 203.457147 
L 236.489348 205.421943 
L 237.372002 211.494952 
L 238.254657 217.329797 
L 241.176548 236.620529 
L 243.00273 245.045332 
L 243.124475 245.491879 
L 244.524548 250.522951 
L 245.407202 252.041195 
L 245.863748 251.981666 
L 246.01593 251.892349 
L 246.107239 251.862585 
L 246.68553 251.177885 
L 248.085602 246.771974 
L 249.516111 239.240257 
L 249.94222 236.412141 
L 250.459639 232.720706 
L 251.890148 220.664001 
L 254.62942 192.799615 
L 258.707893 150.10995 
L 260.868875 132.069548 
L 262.268948 123.227965 
L 263.729893 116.619107 
L 264.67342 113.374214 
L 265.738693 110.57587 
L 266.530039 109.266006 
L 266.590911 109.176695 
L 266.986584 108.640841 
L 267.504002 108.283603 
L 267.625748 108.253838 
L 267.899675 108.134757 
L 268.02142 108.134757 
L 268.173602 108.045446 
L 268.35622 108.075218 
L 268.508402 108.075218 
L 268.934511 108.164527 
L 269.178002 108.253838 
L 269.391057 108.343145 
L 269.847602 108.640841 
L 269.999784 108.730152 
L 270.638948 109.504161 
L 271.856402 112.123889 
L 272.312948 113.463525 
L 279.039384 132.873328 
L 280.013348 134.986973 
L 280.256839 135.522827 
L 282.691748 140.047812 
L 282.904802 140.405047 
L 283.391784 141.149289 
L 283.483093 141.208828 
L 283.726584 141.625603 
L 284.061384 142.072148 
L 284.244002 142.310304 
L 284.85273 143.054546 
L 285.035348 143.262933 
L 285.918002 143.977405 
L 286.131057 144.066713 
L 286.283239 144.126253 
L 286.496293 144.215561 
L 286.648475 144.215561 
L 287.652875 144.126253 
L 287.926802 144.007174 
L 288.078984 143.917866 
L 288.44422 143.709478 
L 288.53553 143.679708 
L 288.687711 143.50109 
L 288.931202 143.262933 
L 289.052948 143.173624 
L 290.026911 142.072148 
L 290.45302 141.476755 
L 290.818257 140.970671 
L 291.092184 140.464587 
L 291.274802 140.13712 
L 291.54873 139.660807 
L 293.161857 136.267067 
L 295.718511 128.437652 
L 297.088148 123.525661 
L 297.788184 121.14409 
L 298.549093 118.613671 
L 298.853457 117.83966 
L 299.15782 116.887034 
L 299.857857 115.160392 
L 301.044875 113.046748 
L 301.075311 113.076518 
L 301.136184 112.987206 
L 301.897093 112.391816 
L 302.444948 112.481122 
L 302.688439 112.749049 
L 302.749311 112.808591 
L 303.114548 113.284903 
L 303.327602 113.642141 
L 303.905893 115.011544 
L 304.453748 116.738183 
L 304.60593 117.214495 
L 306.827784 128.61627 
L 309.262693 148.47262 
L 316.23262 222.271557 
L 317.724002 234.417573 
L 318.728402 240.550116 
L 319.641493 244.509479 
L 320.858948 247.754374 
L 321.163311 248.171149 
L 321.376366 248.468841 
L 321.58942 248.647461 
L 321.893784 248.796309 
L 322.167711 248.677228 
L 322.319893 248.587922 
L 322.563384 248.34976 
L 322.989493 247.813906 
L 324.328693 243.556852 
L 324.998293 240.490575 
L 326.307057 233.554251 
L 327.585384 225.397374 
L 328.772402 216.526016 
L 331.29862 195.895658 
L 333.39873 176.426313 
L 334.98142 162.017807 
L 338.207675 134.599968 
L 339.516439 125.222531 
L 340.277348 120.102153 
L 342.042657 108.759922 
L 344.203639 96.732983 
L 344.599311 94.738419 
L 346.151566 87.623475 
L 346.303748 87.087619 
L 347.03422 84.676283 
L 348.008184 82.145861 
L 348.160366 81.848162 
L 349.560439 79.317745 
L 349.651748 79.28798 
L 350.534402 78.54373 
L 350.656148 78.513965 
L 351.995348 78.603271 
L 352.238839 78.692585 
L 352.512766 78.781892 
L 353.121493 79.228439 
L 353.243239 79.317745 
L 353.517166 79.645214 
L 353.638911 79.734518 
L 354.06502 80.300146 
L 355.73902 83.812961 
L 356.895602 87.504399 
L 357.443457 89.677578 
L 357.74782 90.898135 
L 358.84353 95.720815 
L 359.026148 96.524595 
L 359.634875 99.442022 
L 359.969675 101.168664 
L 360.913202 106.050882 
L 361.917602 111.468957 
L 362.465457 114.475691 
L 369.55713 156.74858 
L 370.409348 161.839189 
L 370.957202 165.05431 
L 374.944366 189.10818 
L 375.857457 194.615563 
L 377.744511 206.344802 
L 378.901093 213.519285 
L 381.062075 225.54622 
L 382.431711 231.708538 
L 382.918693 233.464947 
L 382.918693 233.464947 
" style="fill:none;stroke:#0000ff;stroke-linecap:square;stroke-width:1.5;"/>
   </g>
   <g id="line2d_28">
    <path clip-path="url(#pe7b06de0ad)" d="M 78.555057 154.845169 
L 78.828984 154.860054 
L 82.329166 154.949363 
L 82.511784 154.979133 
L 82.816148 154.949363 
L 83.120511 154.979133 
L 89.481711 155.068441 
L 89.633893 155.098211 
L 89.846948 155.098211 
L 90.090439 155.098211 
L 99.921384 155.18752 
L 100.073566 155.21729 
L 100.28662 155.202405 
L 100.469239 155.247059 
L 100.651857 155.261944 
L 101.138839 155.381023 
L 101.534511 155.485216 
L 102.691093 156.169918 
L 103.05633 156.512269 
L 103.756366 157.345819 
L 104.425966 158.417526 
L 104.608584 158.715222 
L 107.013057 164.862653 
L 109.965384 174.58244 
L 111.578511 178.973463 
L 111.913311 179.658165 
L 112.33942 180.581023 
L 112.704657 181.295495 
L 113.00902 181.786694 
L 114.256911 182.873286 
L 114.926511 182.769092 
L 115.44393 182.411856 
L 115.77873 182.14393 
L 116.417893 181.012683 
L 117.726657 177.529636 
L 118.244075 175.669033 
L 119.583275 169.997916 
L 121.105093 162.019652 
L 122.626911 152.433828 
L 126.187966 128.811618 
L 128.288075 117.141917 
L 129.475093 111.351724 
L 130.570802 107.511443 
L 132.701348 101.602169 
L 133.279639 100.470921 
L 134.344911 98.610316 
L 134.86233 97.955386 
L 135.53193 96.883679 
L 136.11022 96.466906 
L 136.384148 96.228749 
L 136.901566 95.648236 
L 137.418984 95.514273 
L 138.271202 95.618467 
L 138.45382 95.797087 
L 139.366911 97.821423 
L 141.010475 102.971568 
L 142.106184 107.704941 
L 143.049711 112.855093 
L 144.388911 122.068795 
L 147.371675 146.256628 
L 151.024039 182.635129 
L 154.585093 214.697032 
L 155.376439 220.353261 
L 156.837384 228.286875 
L 157.659166 231.487109 
L 158.054839 232.782091 
L 158.724439 234.166379 
L 158.96793 234.553384 
L 159.485348 235.32739 
L 160.002766 235.684624 
L 160.702802 235.58043 
L 161.128911 235.267851 
L 161.676766 234.285458 
L 162.133311 233.28817 
L 162.346366 232.782091 
L 162.711602 231.635955 
L 163.716002 227.274707 
L 164.598657 221.945939 
L 165.66393 214.473757 
L 169.01193 184.034302 
L 171.325093 162.481082 
L 173.516511 144.172753 
L 174.794839 135.033473 
L 175.555748 130.553142 
L 177.016693 123.944282 
L 177.838475 121.488287 
L 178.203711 120.997088 
L 178.72113 120.639852 
L 179.755966 120.252847 
L 180.242948 120.371925 
L 180.790802 120.476119 
L 181.247348 121.071512 
L 181.947384 122.664188 
L 182.73873 125.32857 
L 184.230111 131.609964 
L 191.01742 164.282145 
L 191.626148 166.410675 
L 194.36542 175.415991 
L 195.643748 178.154798 
L 196.252475 179.375353 
L 197.682984 180.640563 
L 198.04822 180.536369 
L 198.71782 180.104709 
L 199.326548 179.018117 
L 200.330948 175.728571 
L 200.787493 173.793545 
L 202.126693 167.407958 
L 203.435457 159.772045 
L 210.679311 110.934947 
L 212.809857 101.066316 
L 213.509893 98.759166 
L 214.666475 95.707778 
L 215.21433 94.874228 
L 215.366511 94.680723 
L 215.79262 94.249068 
L 216.005675 94.159757 
L 217.527493 95.023079 
L 219.018875 97.389763 
L 221.666839 104.147469 
L 222.397311 106.618351 
L 222.82342 108.00264 
L 224.284366 113.390947 
L 232.015202 147.864188 
L 235.150148 168.479665 
L 237.098075 182.873286 
L 239.198184 196.522666 
L 240.720002 204.113924 
L 242.089639 209.665962 
L 244.58542 216.676713 
L 244.798475 217.182797 
L 246.35073 219.98114 
L 246.868148 220.546766 
L 247.26382 220.85935 
L 247.720366 221.157041 
L 248.572584 221.45474 
L 249.090002 221.350546 
L 251.677093 219.966258 
L 253.503275 218.031229 
L 253.95982 217.554917 
L 254.538111 217.123257 
L 254.659857 217.033951 
L 254.994657 216.721365 
L 255.63382 216.289705 
L 256.151239 215.932472 
L 257.155639 215.530582 
L 257.30782 215.545464 
L 260.41233 215.441273 
L 260.74713 215.262655 
L 260.929748 215.173346 
L 261.41673 214.845877 
L 261.690657 214.622608 
L 262.025457 214.190948 
L 262.268948 213.818827 
L 263.395093 211.377717 
L 265.00822 206.301993 
L 266.073493 201.13696 
L 267.077893 194.587639 
L 268.11273 186.787994 
L 269.878039 170.265843 
L 272.191202 144.232293 
L 274.595675 112.244811 
L 277.608875 72.487461 
L 279.556802 50.874699 
L 280.896002 39.443157 
L 281.809093 33.548766 
L 282.356948 30.958814 
L 283.361348 27.877649 
L 283.909202 27.252489 
L 284.578802 27.356683 
L 284.913602 27.81811 
L 285.887566 30.467613 
L 286.618039 33.742276 
L 287.43982 38.728683 
L 288.170293 44.459342 
L 289.083384 52.943687 
L 290.45302 67.39685 
L 293.070548 99.414096 
L 298.57953 165.413391 
L 300.953566 189.779842 
L 302.688439 204.932587 
L 304.362439 215.694317 
L 305.914693 222.050133 
L 306.766911 224.893136 
L 307.223457 226.232765 
L 308.897457 229.269271 
L 309.719239 230.281443 
L 310.388839 230.80241 
L 310.54102 230.847062 
L 311.119311 231.010795 
L 311.941093 230.504708 
L 313.21942 228.435721 
L 313.706402 226.977011 
L 314.680366 223.270686 
L 317.358766 209.63619 
L 320.889384 186.505182 
L 321.711166 180.938259 
L 322.624257 174.924793 
L 323.35473 170.384921 
L 325.69833 156.184803 
L 326.641857 151.034655 
L 327.28102 147.938613 
L 328.072366 144.41091 
L 328.741966 141.686987 
L 330.172475 137.176887 
L 330.781202 135.718176 
L 331.785602 133.976651 
L 333.003057 132.934714 
L 333.30742 132.83052 
L 333.763966 132.726327 
L 334.31182 132.815635 
L 334.555311 132.979369 
L 339.059893 137.251311 
L 339.181639 137.340621 
L 339.820802 137.816935 
L 340.76433 138.382558 
L 340.946948 138.486751 
L 341.281748 138.590946 
L 341.494802 138.650485 
L 342.620948 138.576061 
L 342.834002 138.456982 
L 343.381857 138.069977 
L 344.02102 137.638317 
L 344.294948 137.429929 
L 344.78193 137.087579 
L 345.055857 136.983385 
L 346.882039 135.971217 
L 348.099493 134.631583 
L 348.342984 134.378541 
L 349.530002 133.366374 
L 349.773493 133.262181 
L 351.204002 132.681672 
L 351.72142 132.785865 
L 352.81713 133.440797 
L 354.186766 134.89951 
L 354.643311 135.733061 
L 355.099857 136.596379 
L 358.660911 145.586811 
L 359.360948 147.596262 
L 360.000111 149.129398 
L 361.18713 151.689587 
L 363.622039 157.360704 
L 364.017711 158.11983 
L 364.656875 159.399924 
L 365.143857 160.307898 
L 366.239566 162.213155 
L 366.756984 162.808548 
L 366.939602 162.912742 
L 367.243966 163.06159 
L 368.309239 163.46348 
L 369.374511 163.359286 
L 369.648439 163.106244 
L 370.074548 162.540621 
L 374.000839 154.621897 
L 374.731311 152.805949 
L 375.91833 150.24576 
L 377.683639 145.64635 
L 378.292366 143.934596 
L 379.448948 140.838553 
L 379.93593 139.543574 
L 380.088111 139.141683 
L 381.214257 136.164719 
L 381.396875 135.718176 
L 381.822984 134.646468 
L 382.462148 133.17287 
L 382.918693 132.101163 
L 382.918693 132.101163 
" style="fill:none;stroke:#ff0000;stroke-linecap:square;stroke-width:1.5;"/>
   </g>
   <g id="line2d_29">
    <path clip-path="url(#pe7b06de0ad)" d="M 128.83593 163.506289 
" style="fill:none;stroke:#ffffff;stroke-linecap:square;stroke-width:1.5;"/>
    <defs>
     <path d="M 0 -5 
L -1.12257 -1.545085 
L -4.755283 -1.545085 
L -1.816356 0.59017 
L -2.938926 4.045085 
L -0 1.90983 
L 2.938926 4.045085 
L 1.816356 0.59017 
L 4.755283 -1.545085 
L 1.12257 -1.545085 
z
" id="mabc2151386" style="stroke:#ffffff;stroke-linejoin:bevel;"/>
    </defs>
    <g clip-path="url(#pe7b06de0ad)">
     <use style="fill:#0000ff;stroke:#ffffff;stroke-linejoin:bevel;" x="128.83593" xlink:href="#mabc2151386" y="163.506289"/>
    </g>
   </g>
   <g id="line2d_30">
    <path clip-path="url(#pe7b06de0ad)" d="M 105.795602 161.409375 
" style="fill:none;stroke:#ffffff;stroke-linecap:square;stroke-width:1.5;"/>
    <defs>
     <path d="M 0 -5 
L -1.12257 -1.545085 
L -4.755283 -1.545085 
L -1.816356 0.59017 
L -2.938926 4.045085 
L -0 1.90983 
L 2.938926 4.045085 
L 1.816356 0.59017 
L 4.755283 -1.545085 
L 1.12257 -1.545085 
z
" id="m649e0e5a74" style="stroke:#ffffff;stroke-linejoin:bevel;"/>
    </defs>
    <g clip-path="url(#pe7b06de0ad)">
     <use style="fill:#ff0000;stroke:#ffffff;stroke-linejoin:bevel;" x="105.795602" xlink:href="#m649e0e5a74" y="161.409375"/>
    </g>
   </g>
   <g id="patch_3">
    <path d="M 63.336875 340.602896 
L 63.336875 7.962896 
" style="fill:none;stroke:#000000;stroke-linecap:square;stroke-linejoin:miter;stroke-width:0.8;"/>
   </g>
   <g id="patch_4">
    <path d="M 398.136875 340.602896 
L 398.136875 7.962896 
" style="fill:none;stroke:#000000;stroke-linecap:square;stroke-linejoin:miter;stroke-width:0.8;"/>
   </g>
   <g id="patch_5">
    <path d="M 63.336875 340.602896 
L 398.136875 340.602896 
" style="fill:none;stroke:#000000;stroke-linecap:square;stroke-linejoin:miter;stroke-width:0.8;"/>
   </g>
   <g id="patch_6">
    <path d="M 63.336875 7.962896 
L 398.136875 7.962896 
" style="fill:none;stroke:#000000;stroke-linecap:square;stroke-linejoin:miter;stroke-width:0.8;"/>
   </g>
   <g id="text_16">
    <g id="patch_7">
     <path d="M 75.036875 332.005584 
L 166.79375 332.005584 
L 166.79375 294.523209 
L 75.036875 294.523209 
z
" style="fill:#ffffff;stroke:#000000;stroke-linejoin:miter;stroke-width:0.75;"/>
    </g>
    <!-- Auto_00043 -->
    <g transform="translate(80.076875 309.284459)scale(0.14 -0.14)">
     <defs>
      <path d="M 2928 1419 
L 1288 1419 
L 1000 750 
Q 894 503 894 381 
Q 894 284 986 211 
Q 1078 138 1384 116 
L 1384 0 
L 50 0 
L 50 116 
Q 316 163 394 238 
Q 553 388 747 847 
L 2238 4334 
L 2347 4334 
L 3822 809 
Q 4000 384 4145 257 
Q 4291 131 4550 116 
L 4550 0 
L 2878 0 
L 2878 116 
Q 3131 128 3220 200 
Q 3309 272 3309 375 
Q 3309 513 3184 809 
L 2928 1419 
z
M 2841 1650 
L 2122 3363 
L 1384 1650 
L 2841 1650 
z
" id="TimesNewRomanPSMT-41" transform="scale(0.015625)"/>
      <path d="M 2709 2863 
L 2709 1128 
Q 2709 631 2732 520 
Q 2756 409 2807 365 
Q 2859 322 2928 322 
Q 3025 322 3147 375 
L 3191 266 
L 2334 -88 
L 2194 -88 
L 2194 519 
Q 1825 119 1631 15 
Q 1438 -88 1222 -88 
Q 981 -88 804 51 
Q 628 191 559 409 
Q 491 628 491 1028 
L 491 2306 
Q 491 2509 447 2587 
Q 403 2666 317 2708 
Q 231 2750 6 2747 
L 6 2863 
L 1009 2863 
L 1009 947 
Q 1009 547 1148 422 
Q 1288 297 1484 297 
Q 1619 297 1789 381 
Q 1959 466 2194 703 
L 2194 2325 
Q 2194 2569 2105 2655 
Q 2016 2741 1734 2747 
L 1734 2863 
L 2709 2863 
z
" id="TimesNewRomanPSMT-75" transform="scale(0.015625)"/>
      <path d="M 3256 -1381 
L -53 -1381 
L -53 -1119 
L 3256 -1119 
L 3256 -1381 
z
" id="TimesNewRomanPSMT-5f" transform="scale(0.015625)"/>
     </defs>
     <use xlink:href="#TimesNewRomanPSMT-41"/>
     <use x="72.216797" xlink:href="#TimesNewRomanPSMT-75"/>
     <use x="122.216797" xlink:href="#TimesNewRomanPSMT-74"/>
     <use x="150" xlink:href="#TimesNewRomanPSMT-6f"/>
     <use x="200" xlink:href="#TimesNewRomanPSMT-5f"/>
     <use x="250" xlink:href="#TimesNewRomanPSMT-30"/>
     <use x="300" xlink:href="#TimesNewRomanPSMT-30"/>
     <use x="350" xlink:href="#TimesNewRomanPSMT-30"/>
     <use x="400" xlink:href="#TimesNewRomanPSMT-34"/>
     <use x="450" xlink:href="#TimesNewRomanPSMT-33"/>
    </g>
    <!-- Vs: 264.06m/s -->
    <g transform="translate(80.076875 323.970896)scale(0.14 -0.14)">
     <defs>
      <path d="M 903 2950 
Q 1047 2950 1148 2848 
Q 1250 2747 1250 2603 
Q 1250 2459 1148 2357 
Q 1047 2256 903 2256 
Q 759 2256 657 2357 
Q 556 2459 556 2603 
Q 556 2747 657 2848 
Q 759 2950 903 2950 
z
M 897 609 
Q 1044 609 1145 506 
Q 1247 403 1247 259 
Q 1247 116 1144 14 
Q 1041 -88 897 -88 
Q 753 -88 651 14 
Q 550 116 550 259 
Q 550 403 651 506 
Q 753 609 897 609 
z
" id="TimesNewRomanPSMT-3a" transform="scale(0.015625)"/>
      <path d="M 1794 4444 
L 259 -88 
L 9 -88 
L 1544 4444 
L 1794 4444 
z
" id="TimesNewRomanPSMT-2f" transform="scale(0.015625)"/>
     </defs>
     <use xlink:href="#TimesNewRomanPSMT-56"/>
     <use x="72.216797" xlink:href="#TimesNewRomanPSMT-73"/>
     <use x="111.132812" xlink:href="#TimesNewRomanPSMT-3a"/>
     <use x="138.916016" xlink:href="#TimesNewRomanPSMT-20"/>
     <use x="163.916016" xlink:href="#TimesNewRomanPSMT-32"/>
     <use x="213.916016" xlink:href="#TimesNewRomanPSMT-36"/>
     <use x="263.916016" xlink:href="#TimesNewRomanPSMT-34"/>
     <use x="313.916016" xlink:href="#TimesNewRomanPSMT-2e"/>
     <use x="338.916016" xlink:href="#TimesNewRomanPSMT-30"/>
     <use x="388.916016" xlink:href="#TimesNewRomanPSMT-36"/>
     <use x="438.916016" xlink:href="#TimesNewRomanPSMT-6d"/>
     <use x="516.699219" xlink:href="#TimesNewRomanPSMT-2f"/>
     <use x="544.482422" xlink:href="#TimesNewRomanPSMT-73"/>
    </g>
   </g>
  </g>
 </g>
 <defs>
  <clipPath id="pe7b06de0ad">
   <rect height="332.64" width="334.8" x="63.336875" y="7.962896"/>
  </clipPath>
 </defs>
</svg>
