<?xml version="1.0" encoding="utf-8" standalone="no"?>
<!DOCTYPE svg PUBLIC "-//W3C//DTD SVG 1.1//EN"
  "http://www.w3.org/Graphics/SVG/1.1/DTD/svg11.dtd">
<svg height="383.471875pt" version="1.1" viewBox="0 0 421.086875 383.471875" width="421.086875pt" xmlns="http://www.w3.org/2000/svg" xmlns:xlink="http://www.w3.org/1999/xlink">
 <metadata>
  <rdf:RDF xmlns:cc="http://creativecommons.org/ns#" xmlns:dc="http://purl.org/dc/elements/1.1/" xmlns:rdf="http://www.w3.org/1999/02/22-rdf-syntax-ns#">
   <cc:Work>
    <dc:type rdf:resource="http://purl.org/dc/dcmitype/StillImage"/>
    <dc:date>2021-06-11T14:39:38.350701</dc:date>
    <dc:format>image/svg+xml</dc:format>
    <dc:creator>
     <cc:Agent>
      <dc:title>Matplotlib v3.4.2, https://matplotlib.org/</dc:title>
     </cc:Agent>
    </dc:creator>
   </cc:Work>
  </rdf:RDF>
 </metadata>
 <defs>
  <style type="text/css">*{stroke-linecap:butt;stroke-linejoin:round;}</style>
 </defs>
 <g id="figure_1">
  <g id="patch_1">
   <path d="M 0 383.471875 
L 421.086875 383.471875 
L 421.086875 0 
L 0 0 
z
" style="fill:#ffffff;"/>
  </g>
  <g id="axes_1">
   <g id="patch_2">
    <path d="M 63.336875 339.84 
L 398.136875 339.84 
L 398.136875 7.2 
L 63.336875 7.2 
z
" style="fill:#ffffff;"/>
   </g>
   <g id="matplotlib.axis_1">
    <g id="xtick_1">
     <g id="line2d_1">
      <path clip-path="url(#p423b98a6bf)" d="M 93.773239 339.84 
L 93.773239 7.2 
" style="fill:none;stroke:#000000;stroke-dasharray:0.5,0.825;stroke-dashoffset:0;stroke-width:0.5;"/>
     </g>
     <g id="line2d_2">
      <defs>
       <path d="M 0 0 
L 0 3.5 
" id="med124d622c" style="stroke:#000000;stroke-width:0.8;"/>
      </defs>
      <g>
       <use style="stroke:#000000;stroke-width:0.8;" x="93.773239" xlink:href="#med124d622c" y="339.84"/>
      </g>
     </g>
     <g id="text_1">
      <!-- 0.000 -->
      <g transform="translate(78.023239 356.56125)scale(0.14 -0.14)">
       <defs>
        <path d="M 231 2094 
Q 231 2819 450 3342 
Q 669 3866 1031 4122 
Q 1313 4325 1613 4325 
Q 2100 4325 2488 3828 
Q 2972 3213 2972 2159 
Q 2972 1422 2759 906 
Q 2547 391 2217 158 
Q 1888 -75 1581 -75 
Q 975 -75 572 641 
Q 231 1244 231 2094 
z
M 844 2016 
Q 844 1141 1059 588 
Q 1238 122 1591 122 
Q 1759 122 1940 273 
Q 2122 425 2216 781 
Q 2359 1319 2359 2297 
Q 2359 3022 2209 3506 
Q 2097 3866 1919 4016 
Q 1791 4119 1609 4119 
Q 1397 4119 1231 3928 
Q 1006 3669 925 3112 
Q 844 2556 844 2016 
z
" id="TimesNewRomanPSMT-30" transform="scale(0.015625)"/>
        <path d="M 800 606 
Q 947 606 1047 504 
Q 1147 403 1147 259 
Q 1147 116 1045 14 
Q 944 -88 800 -88 
Q 656 -88 554 14 
Q 453 116 453 259 
Q 453 406 554 506 
Q 656 606 800 606 
z
" id="TimesNewRomanPSMT-2e" transform="scale(0.015625)"/>
       </defs>
       <use xlink:href="#TimesNewRomanPSMT-30"/>
       <use x="50" xlink:href="#TimesNewRomanPSMT-2e"/>
       <use x="75" xlink:href="#TimesNewRomanPSMT-30"/>
       <use x="125" xlink:href="#TimesNewRomanPSMT-30"/>
       <use x="175" xlink:href="#TimesNewRomanPSMT-30"/>
      </g>
     </g>
    </g>
    <g id="xtick_2">
     <g id="line2d_3">
      <path clip-path="url(#p423b98a6bf)" d="M 154.645966 339.84 
L 154.645966 7.2 
" style="fill:none;stroke:#000000;stroke-dasharray:0.5,0.825;stroke-dashoffset:0;stroke-width:0.5;"/>
     </g>
     <g id="line2d_4">
      <g>
       <use style="stroke:#000000;stroke-width:0.8;" x="154.645966" xlink:href="#med124d622c" y="339.84"/>
      </g>
     </g>
     <g id="text_2">
      <!-- 0.001 -->
      <g transform="translate(138.895966 356.56125)scale(0.14 -0.14)">
       <defs>
        <path d="M 750 3822 
L 1781 4325 
L 1884 4325 
L 1884 747 
Q 1884 391 1914 303 
Q 1944 216 2037 169 
Q 2131 122 2419 116 
L 2419 0 
L 825 0 
L 825 116 
Q 1125 122 1212 167 
Q 1300 213 1334 289 
Q 1369 366 1369 747 
L 1369 3034 
Q 1369 3497 1338 3628 
Q 1316 3728 1258 3775 
Q 1200 3822 1119 3822 
Q 1003 3822 797 3725 
L 750 3822 
z
" id="TimesNewRomanPSMT-31" transform="scale(0.015625)"/>
       </defs>
       <use xlink:href="#TimesNewRomanPSMT-30"/>
       <use x="50" xlink:href="#TimesNewRomanPSMT-2e"/>
       <use x="75" xlink:href="#TimesNewRomanPSMT-30"/>
       <use x="125" xlink:href="#TimesNewRomanPSMT-30"/>
       <use x="175" xlink:href="#TimesNewRomanPSMT-31"/>
      </g>
     </g>
    </g>
    <g id="xtick_3">
     <g id="line2d_5">
      <path clip-path="url(#p423b98a6bf)" d="M 215.518693 339.84 
L 215.518693 7.2 
" style="fill:none;stroke:#000000;stroke-dasharray:0.5,0.825;stroke-dashoffset:0;stroke-width:0.5;"/>
     </g>
     <g id="line2d_6">
      <g>
       <use style="stroke:#000000;stroke-width:0.8;" x="215.518693" xlink:href="#med124d622c" y="339.84"/>
      </g>
     </g>
     <g id="text_3">
      <!-- 0.002 -->
      <g transform="translate(199.768693 356.56125)scale(0.14 -0.14)">
       <defs>
        <path d="M 2934 816 
L 2638 0 
L 138 0 
L 138 116 
Q 1241 1122 1691 1759 
Q 2141 2397 2141 2925 
Q 2141 3328 1894 3587 
Q 1647 3847 1303 3847 
Q 991 3847 742 3664 
Q 494 3481 375 3128 
L 259 3128 
Q 338 3706 661 4015 
Q 984 4325 1469 4325 
Q 1984 4325 2329 3994 
Q 2675 3663 2675 3213 
Q 2675 2891 2525 2569 
Q 2294 2063 1775 1497 
Q 997 647 803 472 
L 1909 472 
Q 2247 472 2383 497 
Q 2519 522 2628 598 
Q 2738 675 2819 816 
L 2934 816 
z
" id="TimesNewRomanPSMT-32" transform="scale(0.015625)"/>
       </defs>
       <use xlink:href="#TimesNewRomanPSMT-30"/>
       <use x="50" xlink:href="#TimesNewRomanPSMT-2e"/>
       <use x="75" xlink:href="#TimesNewRomanPSMT-30"/>
       <use x="125" xlink:href="#TimesNewRomanPSMT-30"/>
       <use x="175" xlink:href="#TimesNewRomanPSMT-32"/>
      </g>
     </g>
    </g>
    <g id="xtick_4">
     <g id="line2d_7">
      <path clip-path="url(#p423b98a6bf)" d="M 276.39142 339.84 
L 276.39142 7.2 
" style="fill:none;stroke:#000000;stroke-dasharray:0.5,0.825;stroke-dashoffset:0;stroke-width:0.5;"/>
     </g>
     <g id="line2d_8">
      <g>
       <use style="stroke:#000000;stroke-width:0.8;" x="276.39142" xlink:href="#med124d622c" y="339.84"/>
      </g>
     </g>
     <g id="text_4">
      <!-- 0.003 -->
      <g transform="translate(260.64142 356.56125)scale(0.14 -0.14)">
       <defs>
        <path d="M 325 3431 
Q 506 3859 782 4092 
Q 1059 4325 1472 4325 
Q 1981 4325 2253 3994 
Q 2459 3747 2459 3466 
Q 2459 3003 1878 2509 
Q 2269 2356 2469 2072 
Q 2669 1788 2669 1403 
Q 2669 853 2319 450 
Q 1863 -75 997 -75 
Q 569 -75 414 31 
Q 259 138 259 259 
Q 259 350 332 419 
Q 406 488 509 488 
Q 588 488 669 463 
Q 722 447 909 348 
Q 1097 250 1169 231 
Q 1284 197 1416 197 
Q 1734 197 1970 444 
Q 2206 691 2206 1028 
Q 2206 1275 2097 1509 
Q 2016 1684 1919 1775 
Q 1784 1900 1550 2001 
Q 1316 2103 1072 2103 
L 972 2103 
L 972 2197 
Q 1219 2228 1467 2375 
Q 1716 2522 1828 2728 
Q 1941 2934 1941 3181 
Q 1941 3503 1739 3701 
Q 1538 3900 1238 3900 
Q 753 3900 428 3381 
L 325 3431 
z
" id="TimesNewRomanPSMT-33" transform="scale(0.015625)"/>
       </defs>
       <use xlink:href="#TimesNewRomanPSMT-30"/>
       <use x="50" xlink:href="#TimesNewRomanPSMT-2e"/>
       <use x="75" xlink:href="#TimesNewRomanPSMT-30"/>
       <use x="125" xlink:href="#TimesNewRomanPSMT-30"/>
       <use x="175" xlink:href="#TimesNewRomanPSMT-33"/>
      </g>
     </g>
    </g>
    <g id="xtick_5">
     <g id="line2d_9">
      <path clip-path="url(#p423b98a6bf)" d="M 337.264148 339.84 
L 337.264148 7.2 
" style="fill:none;stroke:#000000;stroke-dasharray:0.5,0.825;stroke-dashoffset:0;stroke-width:0.5;"/>
     </g>
     <g id="line2d_10">
      <g>
       <use style="stroke:#000000;stroke-width:0.8;" x="337.264148" xlink:href="#med124d622c" y="339.84"/>
      </g>
     </g>
     <g id="text_5">
      <!-- 0.004 -->
      <g transform="translate(321.514148 356.56125)scale(0.14 -0.14)">
       <defs>
        <path d="M 2978 1563 
L 2978 1119 
L 2409 1119 
L 2409 0 
L 1894 0 
L 1894 1119 
L 100 1119 
L 100 1519 
L 2066 4325 
L 2409 4325 
L 2409 1563 
L 2978 1563 
z
M 1894 1563 
L 1894 3666 
L 406 1563 
L 1894 1563 
z
" id="TimesNewRomanPSMT-34" transform="scale(0.015625)"/>
       </defs>
       <use xlink:href="#TimesNewRomanPSMT-30"/>
       <use x="50" xlink:href="#TimesNewRomanPSMT-2e"/>
       <use x="75" xlink:href="#TimesNewRomanPSMT-30"/>
       <use x="125" xlink:href="#TimesNewRomanPSMT-30"/>
       <use x="175" xlink:href="#TimesNewRomanPSMT-34"/>
      </g>
     </g>
    </g>
    <g id="xtick_6">
     <g id="line2d_11">
      <path clip-path="url(#p423b98a6bf)" d="M 398.136875 339.84 
L 398.136875 7.2 
" style="fill:none;stroke:#000000;stroke-dasharray:0.5,0.825;stroke-dashoffset:0;stroke-width:0.5;"/>
     </g>
     <g id="line2d_12">
      <g>
       <use style="stroke:#000000;stroke-width:0.8;" x="398.136875" xlink:href="#med124d622c" y="339.84"/>
      </g>
     </g>
     <g id="text_6">
      <!-- 0.005 -->
      <g transform="translate(382.386875 356.56125)scale(0.14 -0.14)">
       <defs>
        <path d="M 2778 4238 
L 2534 3706 
L 1259 3706 
L 981 3138 
Q 1809 3016 2294 2522 
Q 2709 2097 2709 1522 
Q 2709 1188 2573 903 
Q 2438 619 2231 419 
Q 2025 219 1772 97 
Q 1413 -75 1034 -75 
Q 653 -75 479 54 
Q 306 184 306 341 
Q 306 428 378 495 
Q 450 563 559 563 
Q 641 563 702 538 
Q 763 513 909 409 
Q 1144 247 1384 247 
Q 1750 247 2026 523 
Q 2303 800 2303 1197 
Q 2303 1581 2056 1914 
Q 1809 2247 1375 2428 
Q 1034 2569 447 2591 
L 1259 4238 
L 2778 4238 
z
" id="TimesNewRomanPSMT-35" transform="scale(0.015625)"/>
       </defs>
       <use xlink:href="#TimesNewRomanPSMT-30"/>
       <use x="50" xlink:href="#TimesNewRomanPSMT-2e"/>
       <use x="75" xlink:href="#TimesNewRomanPSMT-30"/>
       <use x="125" xlink:href="#TimesNewRomanPSMT-30"/>
       <use x="175" xlink:href="#TimesNewRomanPSMT-35"/>
      </g>
     </g>
    </g>
    <g id="text_7">
     <!-- Time (sec) -->
     <g transform="translate(200.858906 373.277188)scale(0.14 -0.14)">
      <defs>
       <path d="M 3703 4238 
L 3750 3244 
L 3631 3244 
Q 3597 3506 3538 3619 
Q 3441 3800 3280 3886 
Q 3119 3972 2856 3972 
L 2259 3972 
L 2259 734 
Q 2259 344 2344 247 
Q 2463 116 2709 116 
L 2856 116 
L 2856 0 
L 1059 0 
L 1059 116 
L 1209 116 
Q 1478 116 1591 278 
Q 1659 378 1659 734 
L 1659 3972 
L 1150 3972 
Q 853 3972 728 3928 
Q 566 3869 450 3700 
Q 334 3531 313 3244 
L 194 3244 
L 244 4238 
L 3703 4238 
z
" id="TimesNewRomanPSMT-54" transform="scale(0.015625)"/>
       <path d="M 928 4444 
Q 1059 4444 1151 4351 
Q 1244 4259 1244 4128 
Q 1244 3997 1151 3903 
Q 1059 3809 928 3809 
Q 797 3809 703 3903 
Q 609 3997 609 4128 
Q 609 4259 701 4351 
Q 794 4444 928 4444 
z
M 1188 2947 
L 1188 647 
Q 1188 378 1227 289 
Q 1266 200 1342 156 
Q 1419 113 1622 113 
L 1622 0 
L 231 0 
L 231 113 
Q 441 113 512 153 
Q 584 194 626 287 
Q 669 381 669 647 
L 669 1750 
Q 669 2216 641 2353 
Q 619 2453 572 2492 
Q 525 2531 444 2531 
Q 356 2531 231 2484 
L 188 2597 
L 1050 2947 
L 1188 2947 
z
" id="TimesNewRomanPSMT-69" transform="scale(0.015625)"/>
       <path d="M 1050 2338 
Q 1363 2650 1419 2697 
Q 1559 2816 1721 2881 
Q 1884 2947 2044 2947 
Q 2313 2947 2506 2790 
Q 2700 2634 2766 2338 
Q 3088 2713 3309 2830 
Q 3531 2947 3766 2947 
Q 3994 2947 4170 2830 
Q 4347 2713 4450 2447 
Q 4519 2266 4519 1878 
L 4519 647 
Q 4519 378 4559 278 
Q 4591 209 4675 161 
Q 4759 113 4950 113 
L 4950 0 
L 3538 0 
L 3538 113 
L 3597 113 
Q 3781 113 3884 184 
Q 3956 234 3988 344 
Q 4000 397 4000 647 
L 4000 1878 
Q 4000 2228 3916 2372 
Q 3794 2572 3525 2572 
Q 3359 2572 3192 2489 
Q 3025 2406 2788 2181 
L 2781 2147 
L 2788 2013 
L 2788 647 
Q 2788 353 2820 281 
Q 2853 209 2943 161 
Q 3034 113 3253 113 
L 3253 0 
L 1806 0 
L 1806 113 
Q 2044 113 2133 169 
Q 2222 225 2256 338 
Q 2272 391 2272 647 
L 2272 1878 
Q 2272 2228 2169 2381 
Q 2031 2581 1784 2581 
Q 1616 2581 1450 2491 
Q 1191 2353 1050 2181 
L 1050 647 
Q 1050 366 1089 281 
Q 1128 197 1204 155 
Q 1281 113 1516 113 
L 1516 0 
L 100 0 
L 100 113 
Q 297 113 375 155 
Q 453 197 493 289 
Q 534 381 534 647 
L 534 1741 
Q 534 2213 506 2350 
Q 484 2453 437 2492 
Q 391 2531 309 2531 
Q 222 2531 100 2484 
L 53 2597 
L 916 2947 
L 1050 2947 
L 1050 2338 
z
" id="TimesNewRomanPSMT-6d" transform="scale(0.015625)"/>
       <path d="M 681 1784 
Q 678 1147 991 784 
Q 1303 422 1725 422 
Q 2006 422 2214 576 
Q 2422 731 2563 1106 
L 2659 1044 
Q 2594 616 2278 264 
Q 1963 -88 1488 -88 
Q 972 -88 605 314 
Q 238 716 238 1394 
Q 238 2128 614 2539 
Q 991 2950 1559 2950 
Q 2041 2950 2350 2633 
Q 2659 2316 2659 1784 
L 681 1784 
z
M 681 1966 
L 2006 1966 
Q 1991 2241 1941 2353 
Q 1863 2528 1708 2628 
Q 1553 2728 1384 2728 
Q 1125 2728 920 2526 
Q 716 2325 681 1966 
z
" id="TimesNewRomanPSMT-65" transform="scale(0.015625)"/>
       <path id="TimesNewRomanPSMT-20" transform="scale(0.015625)"/>
       <path d="M 1988 -1253 
L 1988 -1369 
Q 1516 -1131 1200 -813 
Q 750 -359 506 256 
Q 263 872 263 1534 
Q 263 2503 741 3301 
Q 1219 4100 1988 4444 
L 1988 4313 
Q 1603 4100 1356 3731 
Q 1109 3363 987 2797 
Q 866 2231 866 1616 
Q 866 947 969 400 
Q 1050 -31 1165 -292 
Q 1281 -553 1476 -793 
Q 1672 -1034 1988 -1253 
z
" id="TimesNewRomanPSMT-28" transform="scale(0.015625)"/>
       <path d="M 2050 2947 
L 2050 1972 
L 1947 1972 
Q 1828 2431 1642 2597 
Q 1456 2763 1169 2763 
Q 950 2763 815 2647 
Q 681 2531 681 2391 
Q 681 2216 781 2091 
Q 878 1963 1175 1819 
L 1631 1597 
Q 2266 1288 2266 781 
Q 2266 391 1970 151 
Q 1675 -88 1309 -88 
Q 1047 -88 709 6 
Q 606 38 541 38 
Q 469 38 428 -44 
L 325 -44 
L 325 978 
L 428 978 
Q 516 541 762 319 
Q 1009 97 1316 97 
Q 1531 97 1667 223 
Q 1803 350 1803 528 
Q 1803 744 1651 891 
Q 1500 1038 1047 1263 
Q 594 1488 453 1669 
Q 313 1847 313 2119 
Q 313 2472 555 2709 
Q 797 2947 1181 2947 
Q 1350 2947 1591 2875 
Q 1750 2828 1803 2828 
Q 1853 2828 1881 2850 
Q 1909 2872 1947 2947 
L 2050 2947 
z
" id="TimesNewRomanPSMT-73" transform="scale(0.015625)"/>
       <path d="M 2631 1088 
Q 2516 522 2178 217 
Q 1841 -88 1431 -88 
Q 944 -88 581 321 
Q 219 731 219 1428 
Q 219 2103 620 2525 
Q 1022 2947 1584 2947 
Q 2006 2947 2278 2723 
Q 2550 2500 2550 2259 
Q 2550 2141 2473 2067 
Q 2397 1994 2259 1994 
Q 2075 1994 1981 2113 
Q 1928 2178 1911 2362 
Q 1894 2547 1784 2644 
Q 1675 2738 1481 2738 
Q 1169 2738 978 2506 
Q 725 2200 725 1697 
Q 725 1184 976 792 
Q 1228 400 1656 400 
Q 1963 400 2206 609 
Q 2378 753 2541 1131 
L 2631 1088 
z
" id="TimesNewRomanPSMT-63" transform="scale(0.015625)"/>
       <path d="M 144 4313 
L 144 4444 
Q 619 4209 934 3891 
Q 1381 3434 1625 2820 
Q 1869 2206 1869 1541 
Q 1869 572 1392 -226 
Q 916 -1025 144 -1369 
L 144 -1253 
Q 528 -1038 776 -670 
Q 1025 -303 1145 264 
Q 1266 831 1266 1447 
Q 1266 2113 1163 2663 
Q 1084 3094 967 3353 
Q 850 3613 656 3853 
Q 463 4094 144 4313 
z
" id="TimesNewRomanPSMT-29" transform="scale(0.015625)"/>
      </defs>
      <use xlink:href="#TimesNewRomanPSMT-54"/>
      <use x="57.583984" xlink:href="#TimesNewRomanPSMT-69"/>
      <use x="85.367188" xlink:href="#TimesNewRomanPSMT-6d"/>
      <use x="163.150391" xlink:href="#TimesNewRomanPSMT-65"/>
      <use x="207.535156" xlink:href="#TimesNewRomanPSMT-20"/>
      <use x="232.535156" xlink:href="#TimesNewRomanPSMT-28"/>
      <use x="265.835938" xlink:href="#TimesNewRomanPSMT-73"/>
      <use x="304.751953" xlink:href="#TimesNewRomanPSMT-65"/>
      <use x="349.136719" xlink:href="#TimesNewRomanPSMT-63"/>
      <use x="393.521484" xlink:href="#TimesNewRomanPSMT-29"/>
     </g>
    </g>
   </g>
   <g id="matplotlib.axis_2">
    <g id="ytick_1">
     <g id="line2d_13">
      <path clip-path="url(#p423b98a6bf)" d="M 63.336875 311.146708 
L 398.136875 311.146708 
" style="fill:none;stroke:#000000;stroke-dasharray:0.5,0.825;stroke-dashoffset:0;stroke-width:0.5;"/>
     </g>
     <g id="line2d_14">
      <defs>
       <path d="M 0 0 
L -3.5 0 
" id="m346d2f3585" style="stroke:#000000;stroke-width:0.8;"/>
      </defs>
      <g>
       <use style="stroke:#000000;stroke-width:0.8;" x="63.336875" xlink:href="#m346d2f3585" y="311.146708"/>
      </g>
     </g>
     <g id="text_8">
      <!-- −0.06 -->
      <g transform="translate(23.942188 316.007333)scale(0.14 -0.14)">
       <defs>
        <path d="M 3484 2000 
L 116 2000 
L 116 2256 
L 3484 2256 
L 3484 2000 
z
" id="TimesNewRomanPSMT-2212" transform="scale(0.015625)"/>
        <path d="M 2869 4325 
L 2869 4209 
Q 2456 4169 2195 4045 
Q 1934 3922 1679 3669 
Q 1425 3416 1258 3105 
Q 1091 2794 978 2366 
Q 1428 2675 1881 2675 
Q 2316 2675 2634 2325 
Q 2953 1975 2953 1425 
Q 2953 894 2631 456 
Q 2244 -75 1606 -75 
Q 1172 -75 869 213 
Q 275 772 275 1663 
Q 275 2231 503 2743 
Q 731 3256 1154 3653 
Q 1578 4050 1965 4187 
Q 2353 4325 2688 4325 
L 2869 4325 
z
M 925 2138 
Q 869 1716 869 1456 
Q 869 1156 980 804 
Q 1091 453 1309 247 
Q 1469 100 1697 100 
Q 1969 100 2183 356 
Q 2397 613 2397 1088 
Q 2397 1622 2184 2012 
Q 1972 2403 1581 2403 
Q 1463 2403 1327 2353 
Q 1191 2303 925 2138 
z
" id="TimesNewRomanPSMT-36" transform="scale(0.015625)"/>
       </defs>
       <use xlink:href="#TimesNewRomanPSMT-2212"/>
       <use x="56.396484" xlink:href="#TimesNewRomanPSMT-30"/>
       <use x="106.396484" xlink:href="#TimesNewRomanPSMT-2e"/>
       <use x="131.396484" xlink:href="#TimesNewRomanPSMT-30"/>
       <use x="181.396484" xlink:href="#TimesNewRomanPSMT-36"/>
      </g>
     </g>
    </g>
    <g id="ytick_2">
     <g id="line2d_15">
      <path clip-path="url(#p423b98a6bf)" d="M 63.336875 259.632729 
L 398.136875 259.632729 
" style="fill:none;stroke:#000000;stroke-dasharray:0.5,0.825;stroke-dashoffset:0;stroke-width:0.5;"/>
     </g>
     <g id="line2d_16">
      <g>
       <use style="stroke:#000000;stroke-width:0.8;" x="63.336875" xlink:href="#m346d2f3585" y="259.632729"/>
      </g>
     </g>
     <g id="text_9">
      <!-- −0.04 -->
      <g transform="translate(23.942188 264.493354)scale(0.14 -0.14)">
       <use xlink:href="#TimesNewRomanPSMT-2212"/>
       <use x="56.396484" xlink:href="#TimesNewRomanPSMT-30"/>
       <use x="106.396484" xlink:href="#TimesNewRomanPSMT-2e"/>
       <use x="131.396484" xlink:href="#TimesNewRomanPSMT-30"/>
       <use x="181.396484" xlink:href="#TimesNewRomanPSMT-34"/>
      </g>
     </g>
    </g>
    <g id="ytick_3">
     <g id="line2d_17">
      <path clip-path="url(#p423b98a6bf)" d="M 63.336875 208.118751 
L 398.136875 208.118751 
" style="fill:none;stroke:#000000;stroke-dasharray:0.5,0.825;stroke-dashoffset:0;stroke-width:0.5;"/>
     </g>
     <g id="line2d_18">
      <g>
       <use style="stroke:#000000;stroke-width:0.8;" x="63.336875" xlink:href="#m346d2f3585" y="208.118751"/>
      </g>
     </g>
     <g id="text_10">
      <!-- −0.02 -->
      <g transform="translate(23.942188 212.979376)scale(0.14 -0.14)">
       <use xlink:href="#TimesNewRomanPSMT-2212"/>
       <use x="56.396484" xlink:href="#TimesNewRomanPSMT-30"/>
       <use x="106.396484" xlink:href="#TimesNewRomanPSMT-2e"/>
       <use x="131.396484" xlink:href="#TimesNewRomanPSMT-30"/>
       <use x="181.396484" xlink:href="#TimesNewRomanPSMT-32"/>
      </g>
     </g>
    </g>
    <g id="ytick_4">
     <g id="line2d_19">
      <path clip-path="url(#p423b98a6bf)" d="M 63.336875 156.604772 
L 398.136875 156.604772 
" style="fill:none;stroke:#000000;stroke-dasharray:0.5,0.825;stroke-dashoffset:0;stroke-width:0.5;"/>
     </g>
     <g id="line2d_20">
      <g>
       <use style="stroke:#000000;stroke-width:0.8;" x="63.336875" xlink:href="#m346d2f3585" y="156.604772"/>
      </g>
     </g>
     <g id="text_11">
      <!-- 0.00 -->
      <g transform="translate(31.836875 161.465397)scale(0.14 -0.14)">
       <use xlink:href="#TimesNewRomanPSMT-30"/>
       <use x="50" xlink:href="#TimesNewRomanPSMT-2e"/>
       <use x="75" xlink:href="#TimesNewRomanPSMT-30"/>
       <use x="125" xlink:href="#TimesNewRomanPSMT-30"/>
      </g>
     </g>
    </g>
    <g id="ytick_5">
     <g id="line2d_21">
      <path clip-path="url(#p423b98a6bf)" d="M 63.336875 105.090793 
L 398.136875 105.090793 
" style="fill:none;stroke:#000000;stroke-dasharray:0.5,0.825;stroke-dashoffset:0;stroke-width:0.5;"/>
     </g>
     <g id="line2d_22">
      <g>
       <use style="stroke:#000000;stroke-width:0.8;" x="63.336875" xlink:href="#m346d2f3585" y="105.090793"/>
      </g>
     </g>
     <g id="text_12">
      <!-- 0.02 -->
      <g transform="translate(31.836875 109.951418)scale(0.14 -0.14)">
       <use xlink:href="#TimesNewRomanPSMT-30"/>
       <use x="50" xlink:href="#TimesNewRomanPSMT-2e"/>
       <use x="75" xlink:href="#TimesNewRomanPSMT-30"/>
       <use x="125" xlink:href="#TimesNewRomanPSMT-32"/>
      </g>
     </g>
    </g>
    <g id="ytick_6">
     <g id="line2d_23">
      <path clip-path="url(#p423b98a6bf)" d="M 63.336875 53.576815 
L 398.136875 53.576815 
" style="fill:none;stroke:#000000;stroke-dasharray:0.5,0.825;stroke-dashoffset:0;stroke-width:0.5;"/>
     </g>
     <g id="line2d_24">
      <g>
       <use style="stroke:#000000;stroke-width:0.8;" x="63.336875" xlink:href="#m346d2f3585" y="53.576815"/>
      </g>
     </g>
     <g id="text_13">
      <!-- 0.04 -->
      <g transform="translate(31.836875 58.43744)scale(0.14 -0.14)">
       <use xlink:href="#TimesNewRomanPSMT-30"/>
       <use x="50" xlink:href="#TimesNewRomanPSMT-2e"/>
       <use x="75" xlink:href="#TimesNewRomanPSMT-30"/>
       <use x="125" xlink:href="#TimesNewRomanPSMT-34"/>
      </g>
     </g>
    </g>
    <g id="text_14">
     <!-- Volatage (V) -->
     <g transform="translate(16.92125 209.352344)rotate(-90)scale(0.14 -0.14)">
      <defs>
       <path d="M 4544 4238 
L 4544 4122 
Q 4319 4081 4203 3978 
Q 4038 3825 3909 3509 
L 2431 -97 
L 2316 -97 
L 728 3556 
Q 606 3838 556 3900 
Q 478 3997 364 4051 
Q 250 4106 56 4122 
L 56 4238 
L 1788 4238 
L 1788 4122 
Q 1494 4094 1406 4022 
Q 1319 3950 1319 3838 
Q 1319 3681 1463 3350 
L 2541 866 
L 3541 3319 
Q 3688 3681 3688 3822 
Q 3688 3913 3597 3995 
Q 3506 4078 3291 4113 
Q 3275 4116 3238 4122 
L 3238 4238 
L 4544 4238 
z
" id="TimesNewRomanPSMT-56" transform="scale(0.015625)"/>
       <path d="M 1600 2947 
Q 2250 2947 2644 2453 
Q 2978 2031 2978 1484 
Q 2978 1100 2793 706 
Q 2609 313 2286 112 
Q 1963 -88 1566 -88 
Q 919 -88 538 428 
Q 216 863 216 1403 
Q 216 1797 411 2186 
Q 606 2575 925 2761 
Q 1244 2947 1600 2947 
z
M 1503 2744 
Q 1338 2744 1170 2645 
Q 1003 2547 900 2300 
Q 797 2053 797 1666 
Q 797 1041 1045 587 
Q 1294 134 1700 134 
Q 2003 134 2200 384 
Q 2397 634 2397 1244 
Q 2397 2006 2069 2444 
Q 1847 2744 1503 2744 
z
" id="TimesNewRomanPSMT-6f" transform="scale(0.015625)"/>
       <path d="M 1184 4444 
L 1184 647 
Q 1184 378 1223 290 
Q 1263 203 1344 158 
Q 1425 113 1647 113 
L 1647 0 
L 244 0 
L 244 113 
Q 441 113 512 153 
Q 584 194 625 287 
Q 666 381 666 647 
L 666 3247 
Q 666 3731 644 3842 
Q 622 3953 573 3993 
Q 525 4034 450 4034 
Q 369 4034 244 3984 
L 191 4094 
L 1044 4444 
L 1184 4444 
z
" id="TimesNewRomanPSMT-6c" transform="scale(0.015625)"/>
       <path d="M 1822 413 
Q 1381 72 1269 19 
Q 1100 -59 909 -59 
Q 613 -59 420 144 
Q 228 347 228 678 
Q 228 888 322 1041 
Q 450 1253 767 1440 
Q 1084 1628 1822 1897 
L 1822 2009 
Q 1822 2438 1686 2597 
Q 1550 2756 1291 2756 
Q 1094 2756 978 2650 
Q 859 2544 859 2406 
L 866 2225 
Q 866 2081 792 2003 
Q 719 1925 600 1925 
Q 484 1925 411 2006 
Q 338 2088 338 2228 
Q 338 2497 613 2722 
Q 888 2947 1384 2947 
Q 1766 2947 2009 2819 
Q 2194 2722 2281 2516 
Q 2338 2381 2338 1966 
L 2338 994 
Q 2338 584 2353 492 
Q 2369 400 2405 369 
Q 2441 338 2488 338 
Q 2538 338 2575 359 
Q 2641 400 2828 588 
L 2828 413 
Q 2478 -56 2159 -56 
Q 2006 -56 1915 50 
Q 1825 156 1822 413 
z
M 1822 616 
L 1822 1706 
Q 1350 1519 1213 1441 
Q 966 1303 859 1153 
Q 753 1003 753 825 
Q 753 600 887 451 
Q 1022 303 1197 303 
Q 1434 303 1822 616 
z
" id="TimesNewRomanPSMT-61" transform="scale(0.015625)"/>
       <path d="M 1031 3803 
L 1031 2863 
L 1700 2863 
L 1700 2644 
L 1031 2644 
L 1031 788 
Q 1031 509 1111 412 
Q 1191 316 1316 316 
Q 1419 316 1516 380 
Q 1613 444 1666 569 
L 1788 569 
Q 1678 263 1478 108 
Q 1278 -47 1066 -47 
Q 922 -47 784 33 
Q 647 113 581 261 
Q 516 409 516 719 
L 516 2644 
L 63 2644 
L 63 2747 
Q 234 2816 414 2980 
Q 594 3144 734 3369 
Q 806 3488 934 3803 
L 1031 3803 
z
" id="TimesNewRomanPSMT-74" transform="scale(0.015625)"/>
       <path d="M 966 1044 
Q 703 1172 562 1401 
Q 422 1631 422 1909 
Q 422 2334 742 2640 
Q 1063 2947 1563 2947 
Q 1972 2947 2272 2747 
L 2878 2747 
Q 3013 2747 3034 2739 
Q 3056 2731 3066 2713 
Q 3084 2684 3084 2613 
Q 3084 2531 3069 2500 
Q 3059 2484 3036 2475 
Q 3013 2466 2878 2466 
L 2506 2466 
Q 2681 2241 2681 1891 
Q 2681 1491 2375 1206 
Q 2069 922 1553 922 
Q 1341 922 1119 984 
Q 981 866 932 777 
Q 884 688 884 625 
Q 884 572 936 522 
Q 988 472 1138 450 
Q 1225 438 1575 428 
Q 2219 413 2409 384 
Q 2700 344 2873 169 
Q 3047 -6 3047 -263 
Q 3047 -616 2716 -925 
Q 2228 -1381 1444 -1381 
Q 841 -1381 425 -1109 
Q 191 -953 191 -784 
Q 191 -709 225 -634 
Q 278 -519 444 -313 
Q 466 -284 763 25 
Q 600 122 533 198 
Q 466 275 466 372 
Q 466 481 555 628 
Q 644 775 966 1044 
z
M 1509 2797 
Q 1278 2797 1122 2612 
Q 966 2428 966 2047 
Q 966 1553 1178 1281 
Q 1341 1075 1591 1075 
Q 1828 1075 1981 1253 
Q 2134 1431 2134 1813 
Q 2134 2309 1919 2591 
Q 1759 2797 1509 2797 
z
M 934 0 
Q 788 -159 713 -296 
Q 638 -434 638 -550 
Q 638 -700 819 -813 
Q 1131 -1006 1722 -1006 
Q 2284 -1006 2551 -807 
Q 2819 -609 2819 -384 
Q 2819 -222 2659 -153 
Q 2497 -84 2016 -72 
Q 1313 -53 934 0 
z
" id="TimesNewRomanPSMT-67" transform="scale(0.015625)"/>
      </defs>
      <use xlink:href="#TimesNewRomanPSMT-56"/>
      <use x="59.341797" xlink:href="#TimesNewRomanPSMT-6f"/>
      <use x="109.341797" xlink:href="#TimesNewRomanPSMT-6c"/>
      <use x="137.125" xlink:href="#TimesNewRomanPSMT-61"/>
      <use x="181.509766" xlink:href="#TimesNewRomanPSMT-74"/>
      <use x="209.292969" xlink:href="#TimesNewRomanPSMT-61"/>
      <use x="253.677734" xlink:href="#TimesNewRomanPSMT-67"/>
      <use x="303.677734" xlink:href="#TimesNewRomanPSMT-65"/>
      <use x="348.0625" xlink:href="#TimesNewRomanPSMT-20"/>
      <use x="373.0625" xlink:href="#TimesNewRomanPSMT-28"/>
      <use x="406.363281" xlink:href="#TimesNewRomanPSMT-56"/>
      <use x="478.580078" xlink:href="#TimesNewRomanPSMT-29"/>
     </g>
    </g>
   </g>
   <g id="LineCollection_1">
    <path clip-path="url(#p423b98a6bf)" d="M 78.555057 156.604772 
L 382.918693 156.604772 
" style="fill:none;stroke:#1f77b4;stroke-width:1.5;"/>
   </g>
   <g id="line2d_25">
    <path clip-path="url(#p423b98a6bf)" d="M 78.555057 156.59125 
L 78.676802 156.559053 
L 78.707239 156.59125 
L 112.826402 156.687838 
L 112.978584 156.720035 
L 113.130766 156.720035 
L 114.256911 156.816623 
L 114.378657 156.84882 
L 114.409093 156.816623 
L 115.139566 156.913212 
L 115.35262 156.977605 
L 115.504802 156.977605 
L 116.052657 157.074193 
L 116.265711 157.138586 
L 116.387457 157.106389 
L 116.539639 157.170782 
L 116.69182 157.138586 
L 116.874439 157.170782 
L 117.483166 157.267371 
L 117.665784 157.299567 
L 117.757093 157.299567 
L 117.78753 157.331763 
L 118.639748 157.428352 
L 118.79193 157.492744 
L 118.822366 157.460548 
L 119.857202 157.557137 
L 119.978948 157.589333 
L 120.009384 157.492744 
L 120.100693 157.557137 
L 121.196402 157.653726 
L 121.348584 157.685922 
L 121.409457 157.653726 
L 121.47033 157.718118 
L 121.896439 157.78251 
L 122.079057 157.943492 
L 122.200802 157.911295 
L 122.231239 157.943492 
L 122.535602 158.104473 
L 122.748657 158.168865 
L 122.931275 158.29765 
L 123.38782 158.651809 
L 123.47913 158.651809 
L 123.509566 158.684005 
L 123.72262 158.877182 
L 125.457493 160.873349 
L 127.49673 165.445215 
L 129.383784 171.787873 
L 130.783857 177.229038 
L 131.17953 178.806654 
L 131.696948 180.995997 
L 133.705748 187.04889 
L 133.85793 187.370852 
L 135.136257 189.817766 
L 136.171093 190.783653 
L 136.353711 190.654868 
L 136.384148 190.687064 
L 136.414584 190.719261 
L 136.475457 190.622672 
L 136.658075 190.558279 
L 136.901566 190.300709 
L 136.992875 190.204121 
L 137.44942 189.495804 
L 137.632039 189.141645 
L 138.54513 186.952301 
L 139.306039 184.183424 
L 140.066948 180.513054 
L 141.649639 169.823903 
L 142.410548 163.642226 
L 143.049711 158.136669 
L 144.114984 148.027051 
L 144.57153 143.262008 
L 150.750111 72.655661 
L 152.363239 58.296137 
L 153.002402 53.531099 
L 153.763311 48.701658 
L 154.311166 45.932784 
L 154.737275 44.25858 
L 155.163384 42.938534 
L 155.802548 41.843865 
L 155.95473 41.747268 
L 156.137348 41.554099 
L 156.28953 41.554099 
L 156.441711 41.554099 
L 156.593893 41.650682 
L 157.080875 42.29461 
L 157.415675 43.002929 
L 157.780911 44.001005 
L 158.450511 47.252827 
L 160.185384 60.839639 
L 161.55502 76.487016 
L 162.528984 90.234806 
L 163.65513 108.522266 
L 167.368366 181.285763 
L 170.35113 242.040064 
L 171.568584 264.352056 
L 173.486075 293.071097 
L 174.94702 308.84725 
L 176.560148 320.051538 
L 177.534111 323.721924 
L 177.777602 324.108266 
L 177.96022 324.365839 
L 178.447202 324.72 
L 178.599384 324.623414 
L 179.755966 321.918922 
L 180.547311 318.087568 
L 181.216911 313.966457 
L 182.677857 300.701605 
L 183.98662 284.184938 
L 185.41713 263.064204 
L 188.33902 211.743403 
L 190.226075 175.844599 
L 192.387057 134.569024 
L 195.308948 89.94504 
L 196.13073 79.41687 
L 197.13513 68.051604 
L 197.835166 61.193798 
L 198.352584 57.298061 
L 200.361384 45.192271 
L 200.513566 44.612739 
L 200.848366 43.389282 
L 201.091857 42.616567 
L 201.944075 40.266247 
L 202.187566 40.008682 
L 203.313711 38.978395 
L 203.526766 39.042787 
L 203.678948 39.042787 
L 204.318111 39.107182 
L 204.622475 39.493532 
L 204.865966 39.912086 
L 205.17033 40.523819 
L 205.992111 42.519983 
L 206.479093 44.097601 
L 207.300875 47.059658 
L 208.487893 52.533013 
L 209.005311 55.591655 
L 209.979275 61.322585 
L 212.018511 73.557153 
L 212.718548 77.839257 
L 215.45782 95.901344 
L 216.096984 100.376621 
L 218.988439 118.020158 
L 220.662439 127.453656 
L 221.118984 130.029354 
L 224.345239 146.513827 
L 224.953966 149.57247 
L 227.419311 163.127085 
L 227.93673 166.604279 
L 229.154184 175.039694 
L 231.28473 191.620755 
L 234.997966 228.002503 
L 235.941493 237.693572 
L 236.88502 246.515336 
L 238.254657 257.172293 
L 239.076439 262.484672 
L 240.385202 268.827328 
L 241.176548 271.01667 
L 241.785275 271.499616 
L 241.99833 271.596202 
L 242.150511 271.660597 
L 242.180948 271.628403 
L 242.454875 271.53182 
L 242.850548 270.952285 
L 243.398402 270.018594 
L 243.428839 270.050785 
L 243.459275 269.954199 
L 243.702766 269.535648 
L 244.068002 268.440976 
L 244.311493 267.668261 
L 245.315893 263.032013 
L 246.868148 250.765244 
L 249.455239 222.239376 
L 250.61182 207.4935 
L 251.737966 192.457857 
L 252.498875 182.316043 
L 254.29462 159.102556 
L 256.942584 129.578607 
L 257.764366 122.688613 
L 258.373093 118.438709 
L 258.768766 115.79862 
L 259.347057 112.321424 
L 259.98622 108.940819 
L 261.355857 103.628443 
L 262.725493 100.988349 
L 263.33422 100.505408 
L 263.608148 100.408817 
L 263.821202 100.344424 
L 263.942948 100.344424 
L 264.125566 100.280029 
L 264.277748 100.344424 
L 264.460366 100.312225 
L 264.734293 100.408817 
L 265.069093 100.601992 
L 265.251711 100.698583 
L 265.616948 100.923957 
L 265.76913 101.020545 
L 266.134366 101.535685 
L 266.743093 102.340591 
L 267.230075 103.113298 
L 267.382257 103.43526 
L 268.934511 106.976849 
L 269.45193 108.264698 
L 270.03022 109.745725 
L 271.978148 116.281561 
L 272.404257 117.987962 
L 272.586875 118.631887 
L 272.982548 120.177306 
L 273.71302 122.849594 
L 274.13913 124.201836 
L 274.38262 124.974545 
L 275.569639 128.419543 
L 275.660948 128.644916 
L 275.965311 129.482018 
L 276.695784 131.285008 
L 277.243639 132.669445 
L 277.852366 134.214864 
L 278.430657 135.695892 
L 278.552402 135.953462 
L 278.978511 136.951545 
L 283.300475 145.837707 
L 283.483093 146.159669 
L 283.75702 146.674809 
L 284.000511 147.09336 
L 284.365748 147.608499 
L 285.796257 148.992938 
L 285.887566 148.960742 
L 285.918002 148.992938 
L 285.948439 149.05733 
L 286.039748 148.992938 
L 286.222366 149.025134 
L 286.739784 148.928545 
L 288.261602 147.189949 
L 288.53553 146.642612 
L 288.748584 146.256258 
L 289.144257 145.354763 
L 289.87473 143.58397 
L 290.270402 142.392709 
L 290.757384 141.104859 
L 292.766184 135.084163 
L 293.314039 133.699725 
L 293.740148 132.379679 
L 294.56193 130.383513 
L 294.927166 129.578607 
L 295.505457 128.580524 
L 295.596766 128.483935 
L 296.692475 127.453656 
L 296.722911 127.518048 
L 296.783784 127.453656 
L 297.027275 127.357067 
L 297.270766 127.453656 
L 297.453384 127.550244 
L 297.605566 127.646833 
L 297.757748 127.743422 
L 298.427348 128.61272 
L 299.24913 130.608887 
L 299.949166 133.15239 
L 300.557893 135.79248 
L 301.044875 138.335984 
L 302.84062 150.441768 
L 305.062475 170.145866 
L 306.492984 184.151228 
L 307.28433 191.781736 
L 310.510584 221.466667 
L 312.062839 232.155817 
L 312.64113 235.117873 
L 313.402039 238.562871 
L 314.436875 241.524927 
L 314.710802 241.94347 
L 314.923857 242.265438 
L 315.56302 242.168844 
L 315.958693 241.911279 
L 316.110875 241.814693 
L 316.56742 241.170766 
L 317.115275 239.78633 
L 317.541384 238.627263 
L 317.967493 236.953056 
L 319.67193 227.390774 
L 322.380766 206.527615 
L 323.780839 193.777903 
L 325.02873 181.736511 
L 327.159275 162.515357 
L 327.828875 156.784427 
L 328.863711 147.994854 
L 330.020293 139.140889 
L 331.663857 127.775618 
L 334.129202 112.772169 
L 334.342257 111.741892 
L 335.103166 108.296895 
L 336.99022 100.795174 
L 338.268548 97.092607 
L 339.577311 94.581301 
L 339.638184 94.484709 
L 340.00342 93.937373 
L 340.733893 92.649521 
L 341.281748 91.941207 
L 341.464366 91.65144 
L 341.555675 91.587048 
L 341.829602 91.265086 
L 342.77313 90.427983 
L 342.925311 90.331397 
L 343.35142 90.009435 
L 343.381857 90.073822 
L 343.44273 89.977236 
L 343.716657 89.848451 
L 343.838402 89.816252 
L 345.390657 89.912844 
L 346.577675 91.297282 
L 346.942911 92.134384 
L 347.064657 92.391954 
L 347.79513 94.420317 
L 347.825566 94.420317 
L 348.312548 96.030126 
L 348.556039 96.802841 
L 349.408257 99.861481 
L 351.021384 107.170026 
L 352.451893 114.188803 
L 352.695384 115.315672 
L 354.186766 122.62422 
L 354.795493 125.682863 
L 355.40422 128.838094 
L 355.891202 131.381596 
L 356.652111 135.502714 
L 357.07822 137.788647 
L 363.287239 170.049277 
L 364.717748 176.585113 
L 365.143857 178.613476 
L 366.391748 184.344406 
L 366.817857 186.340572 
L 367.609202 189.946551 
L 369.709311 199.315656 
L 370.196293 201.311822 
L 370.622402 202.986027 
L 370.926766 204.209486 
L 372.083348 208.620368 
L 372.874693 211.485833 
L 373.666039 214.351298 
L 375.24873 219.051946 
L 375.431348 219.406107 
L 375.887893 220.500779 
L 376.040075 220.822742 
L 376.800984 222.174981 
L 376.892293 222.271572 
L 377.348839 222.979887 
L 378.353239 223.881382 
L 378.50542 223.977973 
L 378.809784 224.171148 
L 378.992402 224.138952 
L 379.144584 224.171148 
L 379.418511 224.042365 
L 379.662002 223.977973 
L 379.84462 223.849185 
L 380.727275 222.786712 
L 380.94033 222.40036 
L 381.001202 222.303769 
L 381.975166 220.050032 
L 382.218657 219.277325 
L 382.462148 218.50461 
L 382.918693 216.926997 
L 382.918693 216.926997 
" style="fill:none;stroke:#0000ff;stroke-linecap:square;stroke-width:1.5;"/>
   </g>
   <g id="line2d_26">
    <path clip-path="url(#p423b98a6bf)" d="M 78.555057 156.658797 
L 83.485748 156.562209 
L 83.698802 156.562209 
L 92.58622 156.481718 
L 92.738402 156.481718 
L 92.981893 156.449522 
L 93.25582 156.481718 
L 93.468875 156.46562 
L 93.712366 156.481718 
L 93.92542 156.46562 
L 94.168911 156.481718 
L 97.547348 156.385129 
L 97.760402 156.385129 
L 100.408366 156.481718 
L 100.773602 156.578307 
L 100.864911 156.578307 
L 100.895348 156.610503 
L 101.04753 156.642699 
L 102.508475 157.4959 
L 102.751966 157.753469 
L 103.39113 158.574473 
L 103.695493 159.041319 
L 104.121602 159.862323 
L 105.369493 162.759984 
L 107.804402 170.841239 
L 110.361057 179.904481 
L 110.726293 180.934759 
L 111.943748 183.880716 
L 112.126366 184.218775 
L 112.826402 185.442233 
L 113.161202 185.796392 
L 114.043857 186.166648 
L 114.317784 186.134452 
L 114.530839 186.037863 
L 115.596111 184.750014 
L 116.052657 183.832421 
L 116.387457 182.882633 
L 118.304948 175.36481 
L 119.03542 171.807127 
L 120.161566 165.351782 
L 120.739857 161.745803 
L 125.579239 126.716297 
L 127.07062 117.958921 
L 128.40982 110.811356 
L 130.114257 104.066242 
L 131.331711 101.152485 
L 131.818693 100.202696 
L 132.670911 98.238726 
L 133.310075 97.401624 
L 134.010111 96.467933 
L 134.19273 96.371347 
L 135.075384 95.791815 
L 135.318875 95.518144 
L 135.653675 95.308866 
L 135.927602 95.341065 
L 136.44502 95.244479 
L 136.749384 95.067399 
L 137.297239 95.163983 
L 137.814657 95.55034 
L 138.514693 96.451835 
L 138.849493 97.417719 
L 139.275602 98.850454 
L 140.097384 101.79641 
L 141.740948 109.185444 
L 143.293202 118.828219 
L 145.971602 139.466007 
L 147.523857 153.535762 
L 149.16742 169.311918 
L 153.002402 204.792174 
L 154.432911 215.272046 
L 155.346002 220.809801 
L 156.502584 225.784115 
L 157.415675 228.343718 
L 157.780911 229.10033 
L 158.054839 229.551077 
L 158.146148 229.631565 
L 158.359202 229.808644 
L 158.907057 229.905236 
L 159.21142 229.95353 
L 160.063639 229.390096 
L 161.037602 227.651499 
L 162.528984 222.596693 
L 163.624693 216.849659 
L 164.811711 208.623523 
L 166.029166 198.803671 
L 167.550984 184.991486 
L 169.468475 168.732386 
L 171.112039 156.562209 
L 172.207748 149.784901 
L 173.760002 142.927102 
L 175.068766 139.127947 
L 175.494875 138.645003 
L 176.012293 138.258649 
L 176.164475 138.162059 
L 176.438402 138.113766 
L 177.534111 139.433811 
L 177.868911 140.142128 
L 178.660257 143.007593 
L 180.242948 149.237565 
L 180.486439 150.155158 
L 181.673457 155.660714 
L 182.434366 159.814029 
L 185.204075 175.284321 
L 185.99542 178.874201 
L 187.212875 182.963122 
L 188.156402 185.152467 
L 188.521639 185.909078 
L 188.856439 186.520807 
L 189.891275 187.470596 
L 190.317384 187.374007 
L 191.321784 185.587116 
L 193.513202 179.534223 
L 194.578475 174.994554 
L 195.217639 171.807127 
L 197.196002 161.85849 
L 197.987348 157.093447 
L 199.296111 148.142893 
L 201.39622 130.257883 
L 204.74422 102.858886 
L 205.535566 97.43382 
L 206.905202 90.785297 
L 207.635675 87.823243 
L 208.883566 83.589441 
L 210.161893 81.142522 
L 210.922802 80.83666 
L 211.044548 80.820559 
L 211.44022 80.917151 
L 211.988075 81.657667 
L 213.54033 85.19925 
L 215.031711 90.286256 
L 216.188293 95.663027 
L 217.284002 101.925193 
L 218.197093 107.33416 
L 219.505857 115.576397 
L 221.14942 125.299663 
L 224.314802 143.088084 
L 224.893093 146.3721 
L 226.019239 152.280109 
L 229.85422 170.004137 
L 233.354402 185.281252 
L 236.367602 200.638857 
L 236.945893 203.166261 
L 237.432875 205.162428 
L 238.619893 209.138663 
L 239.31993 210.700181 
L 241.450475 213.903704 
L 241.724402 214.161273 
L 242.180948 214.483236 
L 242.363566 214.563732 
L 242.57662 214.72471 
L 242.850548 214.821301 
L 243.824511 215.449125 
L 244.34193 215.835483 
L 244.737602 216.15744 
L 245.58982 216.914052 
L 245.802875 217.010643 
L 247.26382 217.670666 
L 247.507311 217.751154 
L 247.750802 217.863841 
L 247.994293 217.944336 
L 248.26822 218.073119 
L 248.633457 218.169707 
L 248.907384 218.201906 
L 249.424802 218.282394 
L 249.668293 218.378986 
L 250.459639 218.684847 
L 250.61182 218.781439 
L 250.94662 219.055104 
L 251.342293 219.489753 
L 254.112002 222.580589 
L 254.598984 223.353304 
L 255.116402 224.045523 
L 255.512075 224.657247 
L 255.664257 224.850427 
L 256.120802 225.381662 
L 257.794802 226.991479 
L 258.73833 227.377829 
L 259.103566 227.281245 
L 259.31662 227.120261 
L 259.620984 226.846596 
L 260.07753 226.218764 
L 261.051493 223.916736 
L 261.781966 221.260546 
L 262.360257 218.362885 
L 263.303784 212.229499 
L 264.42993 203.101869 
L 265.525639 192.251737 
L 266.499602 180.24254 
L 267.990984 159.089613 
L 270.69982 115.833967 
L 274.260875 61.019879 
L 275.72182 43.827086 
L 276.787093 34.216507 
L 277.456693 29.483663 
L 278.552402 24.28397 
L 279.191566 22.867331 
L 279.861166 22.32 
L 280.135093 22.400496 
L 280.926439 23.849316 
L 282.08302 28.517778 
L 283.117857 35.1502 
L 283.909202 41.814824 
L 284.730984 49.670703 
L 287.318075 79.597105 
L 293.709711 162.695592 
L 295.201093 178.037099 
L 296.783784 192.831269 
L 297.90993 202.49014 
L 299.15782 212.132916 
L 300.527457 221.453724 
L 301.562293 227.329537 
L 303.236293 234.815162 
L 304.027639 236.60205 
L 304.362439 236.972307 
L 304.545057 237.068898 
L 304.818984 237.101095 
L 305.671202 237.004503 
L 307.314766 235.137124 
L 308.075675 233.430724 
L 308.53222 232.223365 
L 309.323566 229.69596 
L 310.084475 227.377829 
L 310.693202 225.091896 
L 311.575857 221.437625 
L 313.55422 210.394316 
L 315.31953 197.515822 
L 316.932657 185.571018 
L 317.632693 180.41962 
L 319.519748 167.267458 
L 321.224184 157.125643 
L 322.776439 150.251746 
L 324.60262 144.794484 
L 325.36353 142.927102 
L 325.789639 141.912922 
L 326.03313 141.49437 
L 327.03753 140.077736 
L 327.646257 139.643087 
L 328.194111 139.208437 
L 328.346293 139.127947 
L 328.681093 138.93477 
L 329.28982 138.709396 
L 329.442002 138.693297 
L 329.807239 138.612806 
L 330.537711 138.516219 
L 330.842075 138.451825 
L 331.024693 138.435727 
L 331.329057 138.387434 
L 332.181275 138.306942 
L 332.333457 138.258649 
L 332.668257 138.194256 
L 333.033493 138.097668 
L 333.39873 137.856194 
L 333.550911 137.775705 
L 333.763966 137.614723 
L 334.342257 137.196172 
L 334.585748 137.002994 
L 334.920548 136.713227 
L 335.285784 136.326873 
L 336.107566 135.296593 
L 338.055493 130.917906 
L 338.877275 128.66417 
L 341.76873 121.30733 
L 342.133966 120.53462 
L 343.473166 117.926725 
L 343.625348 117.73355 
L 344.477566 116.976936 
L 345.086293 117.073527 
L 345.512402 117.395484 
L 345.847202 117.73355 
L 345.999384 117.894528 
L 346.334184 118.345278 
L 346.69942 118.876514 
L 347.338584 119.971186 
L 347.977748 121.178545 
L 348.525602 122.595179 
L 349.286511 124.89721 
L 350.930075 131.40085 
L 352.48233 139.321124 
L 355.008548 154.662631 
L 356.986911 167.525027 
L 358.113057 174.076962 
L 359.147893 179.936675 
L 359.939239 183.542655 
L 360.85233 186.955456 
L 361.369748 188.613562 
L 362.221966 191.36634 
L 363.561166 194.61816 
L 364.77862 196.372855 
L 364.961239 196.582131 
L 365.296039 196.936289 
L 365.417784 197.032878 
L 366.483057 197.483625 
L 367.091784 197.048976 
L 367.913566 196.018697 
L 369.526693 192.364424 
L 370.500657 188.339894 
L 373.23993 174.785279 
L 381.366439 128.14903 
L 382.918693 121.210741 
L 382.918693 121.210741 
" style="fill:none;stroke:#ff0000;stroke-linecap:square;stroke-width:1.5;"/>
   </g>
   <g id="line2d_27">
    <path clip-path="url(#p423b98a6bf)" d="M 127.344548 165.026664 
" style="fill:none;stroke:#ffffff;stroke-linecap:square;stroke-width:1.5;"/>
    <defs>
     <path d="M 0 -5 
L -1.12257 -1.545085 
L -4.755283 -1.545085 
L -1.816356 0.59017 
L -2.938926 4.045085 
L -0 1.90983 
L 2.938926 4.045085 
L 1.816356 0.59017 
L 4.755283 -1.545085 
L 1.12257 -1.545085 
z
" id="m3f2d2c51dc" style="stroke:#ffffff;stroke-linejoin:bevel;"/>
    </defs>
    <g clip-path="url(#p423b98a6bf)">
     <use style="fill:#0000ff;stroke:#ffffff;stroke-linejoin:bevel;" x="127.344548" xlink:href="#m3f2d2c51dc" y="165.026664"/>
    </g>
   </g>
   <g id="line2d_28">
    <path clip-path="url(#p423b98a6bf)" d="M 105.582548 163.371713 
" style="fill:none;stroke:#ffffff;stroke-linecap:square;stroke-width:1.5;"/>
    <defs>
     <path d="M 0 -5 
L -1.12257 -1.545085 
L -4.755283 -1.545085 
L -1.816356 0.59017 
L -2.938926 4.045085 
L -0 1.90983 
L 2.938926 4.045085 
L 1.816356 0.59017 
L 4.755283 -1.545085 
L 1.12257 -1.545085 
z
" id="m39689415ff" style="stroke:#ffffff;stroke-linejoin:bevel;"/>
    </defs>
    <g clip-path="url(#p423b98a6bf)">
     <use style="fill:#ff0000;stroke:#ffffff;stroke-linejoin:bevel;" x="105.582548" xlink:href="#m39689415ff" y="163.371713"/>
    </g>
   </g>
   <g id="patch_3">
    <path d="M 63.336875 339.84 
L 63.336875 7.2 
" style="fill:none;stroke:#000000;stroke-linecap:square;stroke-linejoin:miter;stroke-width:0.8;"/>
   </g>
   <g id="patch_4">
    <path d="M 398.136875 339.84 
L 398.136875 7.2 
" style="fill:none;stroke:#000000;stroke-linecap:square;stroke-linejoin:miter;stroke-width:0.8;"/>
   </g>
   <g id="patch_5">
    <path d="M 63.336875 339.84 
L 398.136875 339.84 
" style="fill:none;stroke:#000000;stroke-linecap:square;stroke-linejoin:miter;stroke-width:0.8;"/>
   </g>
   <g id="patch_6">
    <path d="M 63.336875 7.2 
L 398.136875 7.2 
" style="fill:none;stroke:#000000;stroke-linecap:square;stroke-linejoin:miter;stroke-width:0.8;"/>
   </g>
   <g id="text_15">
    <g id="patch_7">
     <path d="M 75.036875 331.242688 
L 166.79375 331.242688 
L 166.79375 293.760312 
L 75.036875 293.760312 
z
" style="fill:#ffffff;stroke:#000000;stroke-linejoin:miter;stroke-width:0.75;"/>
    </g>
    <!-- Auto_00068 -->
    <g transform="translate(80.076875 308.521562)scale(0.14 -0.14)">
     <defs>
      <path d="M 2928 1419 
L 1288 1419 
L 1000 750 
Q 894 503 894 381 
Q 894 284 986 211 
Q 1078 138 1384 116 
L 1384 0 
L 50 0 
L 50 116 
Q 316 163 394 238 
Q 553 388 747 847 
L 2238 4334 
L 2347 4334 
L 3822 809 
Q 4000 384 4145 257 
Q 4291 131 4550 116 
L 4550 0 
L 2878 0 
L 2878 116 
Q 3131 128 3220 200 
Q 3309 272 3309 375 
Q 3309 513 3184 809 
L 2928 1419 
z
M 2841 1650 
L 2122 3363 
L 1384 1650 
L 2841 1650 
z
" id="TimesNewRomanPSMT-41" transform="scale(0.015625)"/>
      <path d="M 2709 2863 
L 2709 1128 
Q 2709 631 2732 520 
Q 2756 409 2807 365 
Q 2859 322 2928 322 
Q 3025 322 3147 375 
L 3191 266 
L 2334 -88 
L 2194 -88 
L 2194 519 
Q 1825 119 1631 15 
Q 1438 -88 1222 -88 
Q 981 -88 804 51 
Q 628 191 559 409 
Q 491 628 491 1028 
L 491 2306 
Q 491 2509 447 2587 
Q 403 2666 317 2708 
Q 231 2750 6 2747 
L 6 2863 
L 1009 2863 
L 1009 947 
Q 1009 547 1148 422 
Q 1288 297 1484 297 
Q 1619 297 1789 381 
Q 1959 466 2194 703 
L 2194 2325 
Q 2194 2569 2105 2655 
Q 2016 2741 1734 2747 
L 1734 2863 
L 2709 2863 
z
" id="TimesNewRomanPSMT-75" transform="scale(0.015625)"/>
      <path d="M 3256 -1381 
L -53 -1381 
L -53 -1119 
L 3256 -1119 
L 3256 -1381 
z
" id="TimesNewRomanPSMT-5f" transform="scale(0.015625)"/>
      <path d="M 1228 2134 
Q 725 2547 579 2797 
Q 434 3047 434 3316 
Q 434 3728 753 4026 
Q 1072 4325 1600 4325 
Q 2113 4325 2425 4047 
Q 2738 3769 2738 3413 
Q 2738 3175 2569 2928 
Q 2400 2681 1866 2347 
Q 2416 1922 2594 1678 
Q 2831 1359 2831 1006 
Q 2831 559 2490 242 
Q 2150 -75 1597 -75 
Q 994 -75 656 303 
Q 388 606 388 966 
Q 388 1247 577 1523 
Q 766 1800 1228 2134 
z
M 1719 2469 
Q 2094 2806 2194 3001 
Q 2294 3197 2294 3444 
Q 2294 3772 2109 3958 
Q 1925 4144 1606 4144 
Q 1288 4144 1088 3959 
Q 888 3775 888 3528 
Q 888 3366 970 3203 
Q 1053 3041 1206 2894 
L 1719 2469 
z
M 1375 2016 
Q 1116 1797 991 1539 
Q 866 1281 866 981 
Q 866 578 1086 336 
Q 1306 94 1647 94 
Q 1984 94 2187 284 
Q 2391 475 2391 747 
Q 2391 972 2272 1150 
Q 2050 1481 1375 2016 
z
" id="TimesNewRomanPSMT-38" transform="scale(0.015625)"/>
     </defs>
     <use xlink:href="#TimesNewRomanPSMT-41"/>
     <use x="72.216797" xlink:href="#TimesNewRomanPSMT-75"/>
     <use x="122.216797" xlink:href="#TimesNewRomanPSMT-74"/>
     <use x="150" xlink:href="#TimesNewRomanPSMT-6f"/>
     <use x="200" xlink:href="#TimesNewRomanPSMT-5f"/>
     <use x="250" xlink:href="#TimesNewRomanPSMT-30"/>
     <use x="300" xlink:href="#TimesNewRomanPSMT-30"/>
     <use x="350" xlink:href="#TimesNewRomanPSMT-30"/>
     <use x="400" xlink:href="#TimesNewRomanPSMT-36"/>
     <use x="450" xlink:href="#TimesNewRomanPSMT-38"/>
    </g>
    <!-- Vs: 279.57m/s -->
    <g transform="translate(80.076875 323.208)scale(0.14 -0.14)">
     <defs>
      <path d="M 903 2950 
Q 1047 2950 1148 2848 
Q 1250 2747 1250 2603 
Q 1250 2459 1148 2357 
Q 1047 2256 903 2256 
Q 759 2256 657 2357 
Q 556 2459 556 2603 
Q 556 2747 657 2848 
Q 759 2950 903 2950 
z
M 897 609 
Q 1044 609 1145 506 
Q 1247 403 1247 259 
Q 1247 116 1144 14 
Q 1041 -88 897 -88 
Q 753 -88 651 14 
Q 550 116 550 259 
Q 550 403 651 506 
Q 753 609 897 609 
z
" id="TimesNewRomanPSMT-3a" transform="scale(0.015625)"/>
      <path d="M 644 4238 
L 2916 4238 
L 2916 4119 
L 1503 -88 
L 1153 -88 
L 2419 3728 
L 1253 3728 
Q 900 3728 750 3644 
Q 488 3500 328 3200 
L 238 3234 
L 644 4238 
z
" id="TimesNewRomanPSMT-37" transform="scale(0.015625)"/>
      <path d="M 338 -88 
L 338 28 
Q 744 34 1094 217 
Q 1444 400 1770 856 
Q 2097 1313 2225 1859 
Q 1734 1544 1338 1544 
Q 891 1544 572 1889 
Q 253 2234 253 2806 
Q 253 3363 572 3797 
Q 956 4325 1575 4325 
Q 2097 4325 2469 3894 
Q 2925 3359 2925 2575 
Q 2925 1869 2578 1258 
Q 2231 647 1613 244 
Q 1109 -88 516 -88 
L 338 -88 
z
M 2275 2091 
Q 2331 2497 2331 2741 
Q 2331 3044 2228 3395 
Q 2125 3747 1936 3934 
Q 1747 4122 1506 4122 
Q 1228 4122 1018 3872 
Q 809 3622 809 3128 
Q 809 2469 1088 2097 
Q 1291 1828 1588 1828 
Q 1731 1828 1928 1897 
Q 2125 1966 2275 2091 
z
" id="TimesNewRomanPSMT-39" transform="scale(0.015625)"/>
      <path d="M 1794 4444 
L 259 -88 
L 9 -88 
L 1544 4444 
L 1794 4444 
z
" id="TimesNewRomanPSMT-2f" transform="scale(0.015625)"/>
     </defs>
     <use xlink:href="#TimesNewRomanPSMT-56"/>
     <use x="72.216797" xlink:href="#TimesNewRomanPSMT-73"/>
     <use x="111.132812" xlink:href="#TimesNewRomanPSMT-3a"/>
     <use x="138.916016" xlink:href="#TimesNewRomanPSMT-20"/>
     <use x="163.916016" xlink:href="#TimesNewRomanPSMT-32"/>
     <use x="213.916016" xlink:href="#TimesNewRomanPSMT-37"/>
     <use x="263.916016" xlink:href="#TimesNewRomanPSMT-39"/>
     <use x="313.916016" xlink:href="#TimesNewRomanPSMT-2e"/>
     <use x="338.916016" xlink:href="#TimesNewRomanPSMT-35"/>
     <use x="388.916016" xlink:href="#TimesNewRomanPSMT-37"/>
     <use x="438.916016" xlink:href="#TimesNewRomanPSMT-6d"/>
     <use x="516.699219" xlink:href="#TimesNewRomanPSMT-2f"/>
     <use x="544.482422" xlink:href="#TimesNewRomanPSMT-73"/>
    </g>
   </g>
  </g>
 </g>
 <defs>
  <clipPath id="p423b98a6bf">
   <rect height="332.64" width="334.8" x="63.336875" y="7.2"/>
  </clipPath>
 </defs>
</svg>
