<?xml version="1.0" encoding="utf-8" standalone="no"?>
<!DOCTYPE svg PUBLIC "-//W3C//DTD SVG 1.1//EN"
  "http://www.w3.org/Graphics/SVG/1.1/DTD/svg11.dtd">
<svg height="383.471875pt" version="1.1" viewBox="0 0 421.086875 383.471875" width="421.086875pt" xmlns="http://www.w3.org/2000/svg" xmlns:xlink="http://www.w3.org/1999/xlink">
 <metadata>
  <rdf:RDF xmlns:cc="http://creativecommons.org/ns#" xmlns:dc="http://purl.org/dc/elements/1.1/" xmlns:rdf="http://www.w3.org/1999/02/22-rdf-syntax-ns#">
   <cc:Work>
    <dc:type rdf:resource="http://purl.org/dc/dcmitype/StillImage"/>
    <dc:date>2021-06-11T14:39:38.226831</dc:date>
    <dc:format>image/svg+xml</dc:format>
    <dc:creator>
     <cc:Agent>
      <dc:title>Matplotlib v3.4.2, https://matplotlib.org/</dc:title>
     </cc:Agent>
    </dc:creator>
   </cc:Work>
  </rdf:RDF>
 </metadata>
 <defs>
  <style type="text/css">*{stroke-linecap:butt;stroke-linejoin:round;}</style>
 </defs>
 <g id="figure_1">
  <g id="patch_1">
   <path d="M 0 383.471875 
L 421.086875 383.471875 
L 421.086875 0 
L 0 0 
z
" style="fill:#ffffff;"/>
  </g>
  <g id="axes_1">
   <g id="patch_2">
    <path d="M 63.336875 339.84 
L 398.136875 339.84 
L 398.136875 7.2 
L 63.336875 7.2 
z
" style="fill:#ffffff;"/>
   </g>
   <g id="matplotlib.axis_1">
    <g id="xtick_1">
     <g id="line2d_1">
      <path clip-path="url(#p423e88dd2f)" d="M 93.773239 339.84 
L 93.773239 7.2 
" style="fill:none;stroke:#000000;stroke-dasharray:0.5,0.825;stroke-dashoffset:0;stroke-width:0.5;"/>
     </g>
     <g id="line2d_2">
      <defs>
       <path d="M 0 0 
L 0 3.5 
" id="md1ea557ca7" style="stroke:#000000;stroke-width:0.8;"/>
      </defs>
      <g>
       <use style="stroke:#000000;stroke-width:0.8;" x="93.773239" xlink:href="#md1ea557ca7" y="339.84"/>
      </g>
     </g>
     <g id="text_1">
      <!-- 0.000 -->
      <g transform="translate(78.023239 356.56125)scale(0.14 -0.14)">
       <defs>
        <path d="M 231 2094 
Q 231 2819 450 3342 
Q 669 3866 1031 4122 
Q 1313 4325 1613 4325 
Q 2100 4325 2488 3828 
Q 2972 3213 2972 2159 
Q 2972 1422 2759 906 
Q 2547 391 2217 158 
Q 1888 -75 1581 -75 
Q 975 -75 572 641 
Q 231 1244 231 2094 
z
M 844 2016 
Q 844 1141 1059 588 
Q 1238 122 1591 122 
Q 1759 122 1940 273 
Q 2122 425 2216 781 
Q 2359 1319 2359 2297 
Q 2359 3022 2209 3506 
Q 2097 3866 1919 4016 
Q 1791 4119 1609 4119 
Q 1397 4119 1231 3928 
Q 1006 3669 925 3112 
Q 844 2556 844 2016 
z
" id="TimesNewRomanPSMT-30" transform="scale(0.015625)"/>
        <path d="M 800 606 
Q 947 606 1047 504 
Q 1147 403 1147 259 
Q 1147 116 1045 14 
Q 944 -88 800 -88 
Q 656 -88 554 14 
Q 453 116 453 259 
Q 453 406 554 506 
Q 656 606 800 606 
z
" id="TimesNewRomanPSMT-2e" transform="scale(0.015625)"/>
       </defs>
       <use xlink:href="#TimesNewRomanPSMT-30"/>
       <use x="50" xlink:href="#TimesNewRomanPSMT-2e"/>
       <use x="75" xlink:href="#TimesNewRomanPSMT-30"/>
       <use x="125" xlink:href="#TimesNewRomanPSMT-30"/>
       <use x="175" xlink:href="#TimesNewRomanPSMT-30"/>
      </g>
     </g>
    </g>
    <g id="xtick_2">
     <g id="line2d_3">
      <path clip-path="url(#p423e88dd2f)" d="M 154.645966 339.84 
L 154.645966 7.2 
" style="fill:none;stroke:#000000;stroke-dasharray:0.5,0.825;stroke-dashoffset:0;stroke-width:0.5;"/>
     </g>
     <g id="line2d_4">
      <g>
       <use style="stroke:#000000;stroke-width:0.8;" x="154.645966" xlink:href="#md1ea557ca7" y="339.84"/>
      </g>
     </g>
     <g id="text_2">
      <!-- 0.001 -->
      <g transform="translate(138.895966 356.56125)scale(0.14 -0.14)">
       <defs>
        <path d="M 750 3822 
L 1781 4325 
L 1884 4325 
L 1884 747 
Q 1884 391 1914 303 
Q 1944 216 2037 169 
Q 2131 122 2419 116 
L 2419 0 
L 825 0 
L 825 116 
Q 1125 122 1212 167 
Q 1300 213 1334 289 
Q 1369 366 1369 747 
L 1369 3034 
Q 1369 3497 1338 3628 
Q 1316 3728 1258 3775 
Q 1200 3822 1119 3822 
Q 1003 3822 797 3725 
L 750 3822 
z
" id="TimesNewRomanPSMT-31" transform="scale(0.015625)"/>
       </defs>
       <use xlink:href="#TimesNewRomanPSMT-30"/>
       <use x="50" xlink:href="#TimesNewRomanPSMT-2e"/>
       <use x="75" xlink:href="#TimesNewRomanPSMT-30"/>
       <use x="125" xlink:href="#TimesNewRomanPSMT-30"/>
       <use x="175" xlink:href="#TimesNewRomanPSMT-31"/>
      </g>
     </g>
    </g>
    <g id="xtick_3">
     <g id="line2d_5">
      <path clip-path="url(#p423e88dd2f)" d="M 215.518693 339.84 
L 215.518693 7.2 
" style="fill:none;stroke:#000000;stroke-dasharray:0.5,0.825;stroke-dashoffset:0;stroke-width:0.5;"/>
     </g>
     <g id="line2d_6">
      <g>
       <use style="stroke:#000000;stroke-width:0.8;" x="215.518693" xlink:href="#md1ea557ca7" y="339.84"/>
      </g>
     </g>
     <g id="text_3">
      <!-- 0.002 -->
      <g transform="translate(199.768693 356.56125)scale(0.14 -0.14)">
       <defs>
        <path d="M 2934 816 
L 2638 0 
L 138 0 
L 138 116 
Q 1241 1122 1691 1759 
Q 2141 2397 2141 2925 
Q 2141 3328 1894 3587 
Q 1647 3847 1303 3847 
Q 991 3847 742 3664 
Q 494 3481 375 3128 
L 259 3128 
Q 338 3706 661 4015 
Q 984 4325 1469 4325 
Q 1984 4325 2329 3994 
Q 2675 3663 2675 3213 
Q 2675 2891 2525 2569 
Q 2294 2063 1775 1497 
Q 997 647 803 472 
L 1909 472 
Q 2247 472 2383 497 
Q 2519 522 2628 598 
Q 2738 675 2819 816 
L 2934 816 
z
" id="TimesNewRomanPSMT-32" transform="scale(0.015625)"/>
       </defs>
       <use xlink:href="#TimesNewRomanPSMT-30"/>
       <use x="50" xlink:href="#TimesNewRomanPSMT-2e"/>
       <use x="75" xlink:href="#TimesNewRomanPSMT-30"/>
       <use x="125" xlink:href="#TimesNewRomanPSMT-30"/>
       <use x="175" xlink:href="#TimesNewRomanPSMT-32"/>
      </g>
     </g>
    </g>
    <g id="xtick_4">
     <g id="line2d_7">
      <path clip-path="url(#p423e88dd2f)" d="M 276.39142 339.84 
L 276.39142 7.2 
" style="fill:none;stroke:#000000;stroke-dasharray:0.5,0.825;stroke-dashoffset:0;stroke-width:0.5;"/>
     </g>
     <g id="line2d_8">
      <g>
       <use style="stroke:#000000;stroke-width:0.8;" x="276.39142" xlink:href="#md1ea557ca7" y="339.84"/>
      </g>
     </g>
     <g id="text_4">
      <!-- 0.003 -->
      <g transform="translate(260.64142 356.56125)scale(0.14 -0.14)">
       <defs>
        <path d="M 325 3431 
Q 506 3859 782 4092 
Q 1059 4325 1472 4325 
Q 1981 4325 2253 3994 
Q 2459 3747 2459 3466 
Q 2459 3003 1878 2509 
Q 2269 2356 2469 2072 
Q 2669 1788 2669 1403 
Q 2669 853 2319 450 
Q 1863 -75 997 -75 
Q 569 -75 414 31 
Q 259 138 259 259 
Q 259 350 332 419 
Q 406 488 509 488 
Q 588 488 669 463 
Q 722 447 909 348 
Q 1097 250 1169 231 
Q 1284 197 1416 197 
Q 1734 197 1970 444 
Q 2206 691 2206 1028 
Q 2206 1275 2097 1509 
Q 2016 1684 1919 1775 
Q 1784 1900 1550 2001 
Q 1316 2103 1072 2103 
L 972 2103 
L 972 2197 
Q 1219 2228 1467 2375 
Q 1716 2522 1828 2728 
Q 1941 2934 1941 3181 
Q 1941 3503 1739 3701 
Q 1538 3900 1238 3900 
Q 753 3900 428 3381 
L 325 3431 
z
" id="TimesNewRomanPSMT-33" transform="scale(0.015625)"/>
       </defs>
       <use xlink:href="#TimesNewRomanPSMT-30"/>
       <use x="50" xlink:href="#TimesNewRomanPSMT-2e"/>
       <use x="75" xlink:href="#TimesNewRomanPSMT-30"/>
       <use x="125" xlink:href="#TimesNewRomanPSMT-30"/>
       <use x="175" xlink:href="#TimesNewRomanPSMT-33"/>
      </g>
     </g>
    </g>
    <g id="xtick_5">
     <g id="line2d_9">
      <path clip-path="url(#p423e88dd2f)" d="M 337.264148 339.84 
L 337.264148 7.2 
" style="fill:none;stroke:#000000;stroke-dasharray:0.5,0.825;stroke-dashoffset:0;stroke-width:0.5;"/>
     </g>
     <g id="line2d_10">
      <g>
       <use style="stroke:#000000;stroke-width:0.8;" x="337.264148" xlink:href="#md1ea557ca7" y="339.84"/>
      </g>
     </g>
     <g id="text_5">
      <!-- 0.004 -->
      <g transform="translate(321.514148 356.56125)scale(0.14 -0.14)">
       <defs>
        <path d="M 2978 1563 
L 2978 1119 
L 2409 1119 
L 2409 0 
L 1894 0 
L 1894 1119 
L 100 1119 
L 100 1519 
L 2066 4325 
L 2409 4325 
L 2409 1563 
L 2978 1563 
z
M 1894 1563 
L 1894 3666 
L 406 1563 
L 1894 1563 
z
" id="TimesNewRomanPSMT-34" transform="scale(0.015625)"/>
       </defs>
       <use xlink:href="#TimesNewRomanPSMT-30"/>
       <use x="50" xlink:href="#TimesNewRomanPSMT-2e"/>
       <use x="75" xlink:href="#TimesNewRomanPSMT-30"/>
       <use x="125" xlink:href="#TimesNewRomanPSMT-30"/>
       <use x="175" xlink:href="#TimesNewRomanPSMT-34"/>
      </g>
     </g>
    </g>
    <g id="xtick_6">
     <g id="line2d_11">
      <path clip-path="url(#p423e88dd2f)" d="M 398.136875 339.84 
L 398.136875 7.2 
" style="fill:none;stroke:#000000;stroke-dasharray:0.5,0.825;stroke-dashoffset:0;stroke-width:0.5;"/>
     </g>
     <g id="line2d_12">
      <g>
       <use style="stroke:#000000;stroke-width:0.8;" x="398.136875" xlink:href="#md1ea557ca7" y="339.84"/>
      </g>
     </g>
     <g id="text_6">
      <!-- 0.005 -->
      <g transform="translate(382.386875 356.56125)scale(0.14 -0.14)">
       <defs>
        <path d="M 2778 4238 
L 2534 3706 
L 1259 3706 
L 981 3138 
Q 1809 3016 2294 2522 
Q 2709 2097 2709 1522 
Q 2709 1188 2573 903 
Q 2438 619 2231 419 
Q 2025 219 1772 97 
Q 1413 -75 1034 -75 
Q 653 -75 479 54 
Q 306 184 306 341 
Q 306 428 378 495 
Q 450 563 559 563 
Q 641 563 702 538 
Q 763 513 909 409 
Q 1144 247 1384 247 
Q 1750 247 2026 523 
Q 2303 800 2303 1197 
Q 2303 1581 2056 1914 
Q 1809 2247 1375 2428 
Q 1034 2569 447 2591 
L 1259 4238 
L 2778 4238 
z
" id="TimesNewRomanPSMT-35" transform="scale(0.015625)"/>
       </defs>
       <use xlink:href="#TimesNewRomanPSMT-30"/>
       <use x="50" xlink:href="#TimesNewRomanPSMT-2e"/>
       <use x="75" xlink:href="#TimesNewRomanPSMT-30"/>
       <use x="125" xlink:href="#TimesNewRomanPSMT-30"/>
       <use x="175" xlink:href="#TimesNewRomanPSMT-35"/>
      </g>
     </g>
    </g>
    <g id="text_7">
     <!-- Time (sec) -->
     <g transform="translate(200.858906 373.277188)scale(0.14 -0.14)">
      <defs>
       <path d="M 3703 4238 
L 3750 3244 
L 3631 3244 
Q 3597 3506 3538 3619 
Q 3441 3800 3280 3886 
Q 3119 3972 2856 3972 
L 2259 3972 
L 2259 734 
Q 2259 344 2344 247 
Q 2463 116 2709 116 
L 2856 116 
L 2856 0 
L 1059 0 
L 1059 116 
L 1209 116 
Q 1478 116 1591 278 
Q 1659 378 1659 734 
L 1659 3972 
L 1150 3972 
Q 853 3972 728 3928 
Q 566 3869 450 3700 
Q 334 3531 313 3244 
L 194 3244 
L 244 4238 
L 3703 4238 
z
" id="TimesNewRomanPSMT-54" transform="scale(0.015625)"/>
       <path d="M 928 4444 
Q 1059 4444 1151 4351 
Q 1244 4259 1244 4128 
Q 1244 3997 1151 3903 
Q 1059 3809 928 3809 
Q 797 3809 703 3903 
Q 609 3997 609 4128 
Q 609 4259 701 4351 
Q 794 4444 928 4444 
z
M 1188 2947 
L 1188 647 
Q 1188 378 1227 289 
Q 1266 200 1342 156 
Q 1419 113 1622 113 
L 1622 0 
L 231 0 
L 231 113 
Q 441 113 512 153 
Q 584 194 626 287 
Q 669 381 669 647 
L 669 1750 
Q 669 2216 641 2353 
Q 619 2453 572 2492 
Q 525 2531 444 2531 
Q 356 2531 231 2484 
L 188 2597 
L 1050 2947 
L 1188 2947 
z
" id="TimesNewRomanPSMT-69" transform="scale(0.015625)"/>
       <path d="M 1050 2338 
Q 1363 2650 1419 2697 
Q 1559 2816 1721 2881 
Q 1884 2947 2044 2947 
Q 2313 2947 2506 2790 
Q 2700 2634 2766 2338 
Q 3088 2713 3309 2830 
Q 3531 2947 3766 2947 
Q 3994 2947 4170 2830 
Q 4347 2713 4450 2447 
Q 4519 2266 4519 1878 
L 4519 647 
Q 4519 378 4559 278 
Q 4591 209 4675 161 
Q 4759 113 4950 113 
L 4950 0 
L 3538 0 
L 3538 113 
L 3597 113 
Q 3781 113 3884 184 
Q 3956 234 3988 344 
Q 4000 397 4000 647 
L 4000 1878 
Q 4000 2228 3916 2372 
Q 3794 2572 3525 2572 
Q 3359 2572 3192 2489 
Q 3025 2406 2788 2181 
L 2781 2147 
L 2788 2013 
L 2788 647 
Q 2788 353 2820 281 
Q 2853 209 2943 161 
Q 3034 113 3253 113 
L 3253 0 
L 1806 0 
L 1806 113 
Q 2044 113 2133 169 
Q 2222 225 2256 338 
Q 2272 391 2272 647 
L 2272 1878 
Q 2272 2228 2169 2381 
Q 2031 2581 1784 2581 
Q 1616 2581 1450 2491 
Q 1191 2353 1050 2181 
L 1050 647 
Q 1050 366 1089 281 
Q 1128 197 1204 155 
Q 1281 113 1516 113 
L 1516 0 
L 100 0 
L 100 113 
Q 297 113 375 155 
Q 453 197 493 289 
Q 534 381 534 647 
L 534 1741 
Q 534 2213 506 2350 
Q 484 2453 437 2492 
Q 391 2531 309 2531 
Q 222 2531 100 2484 
L 53 2597 
L 916 2947 
L 1050 2947 
L 1050 2338 
z
" id="TimesNewRomanPSMT-6d" transform="scale(0.015625)"/>
       <path d="M 681 1784 
Q 678 1147 991 784 
Q 1303 422 1725 422 
Q 2006 422 2214 576 
Q 2422 731 2563 1106 
L 2659 1044 
Q 2594 616 2278 264 
Q 1963 -88 1488 -88 
Q 972 -88 605 314 
Q 238 716 238 1394 
Q 238 2128 614 2539 
Q 991 2950 1559 2950 
Q 2041 2950 2350 2633 
Q 2659 2316 2659 1784 
L 681 1784 
z
M 681 1966 
L 2006 1966 
Q 1991 2241 1941 2353 
Q 1863 2528 1708 2628 
Q 1553 2728 1384 2728 
Q 1125 2728 920 2526 
Q 716 2325 681 1966 
z
" id="TimesNewRomanPSMT-65" transform="scale(0.015625)"/>
       <path id="TimesNewRomanPSMT-20" transform="scale(0.015625)"/>
       <path d="M 1988 -1253 
L 1988 -1369 
Q 1516 -1131 1200 -813 
Q 750 -359 506 256 
Q 263 872 263 1534 
Q 263 2503 741 3301 
Q 1219 4100 1988 4444 
L 1988 4313 
Q 1603 4100 1356 3731 
Q 1109 3363 987 2797 
Q 866 2231 866 1616 
Q 866 947 969 400 
Q 1050 -31 1165 -292 
Q 1281 -553 1476 -793 
Q 1672 -1034 1988 -1253 
z
" id="TimesNewRomanPSMT-28" transform="scale(0.015625)"/>
       <path d="M 2050 2947 
L 2050 1972 
L 1947 1972 
Q 1828 2431 1642 2597 
Q 1456 2763 1169 2763 
Q 950 2763 815 2647 
Q 681 2531 681 2391 
Q 681 2216 781 2091 
Q 878 1963 1175 1819 
L 1631 1597 
Q 2266 1288 2266 781 
Q 2266 391 1970 151 
Q 1675 -88 1309 -88 
Q 1047 -88 709 6 
Q 606 38 541 38 
Q 469 38 428 -44 
L 325 -44 
L 325 978 
L 428 978 
Q 516 541 762 319 
Q 1009 97 1316 97 
Q 1531 97 1667 223 
Q 1803 350 1803 528 
Q 1803 744 1651 891 
Q 1500 1038 1047 1263 
Q 594 1488 453 1669 
Q 313 1847 313 2119 
Q 313 2472 555 2709 
Q 797 2947 1181 2947 
Q 1350 2947 1591 2875 
Q 1750 2828 1803 2828 
Q 1853 2828 1881 2850 
Q 1909 2872 1947 2947 
L 2050 2947 
z
" id="TimesNewRomanPSMT-73" transform="scale(0.015625)"/>
       <path d="M 2631 1088 
Q 2516 522 2178 217 
Q 1841 -88 1431 -88 
Q 944 -88 581 321 
Q 219 731 219 1428 
Q 219 2103 620 2525 
Q 1022 2947 1584 2947 
Q 2006 2947 2278 2723 
Q 2550 2500 2550 2259 
Q 2550 2141 2473 2067 
Q 2397 1994 2259 1994 
Q 2075 1994 1981 2113 
Q 1928 2178 1911 2362 
Q 1894 2547 1784 2644 
Q 1675 2738 1481 2738 
Q 1169 2738 978 2506 
Q 725 2200 725 1697 
Q 725 1184 976 792 
Q 1228 400 1656 400 
Q 1963 400 2206 609 
Q 2378 753 2541 1131 
L 2631 1088 
z
" id="TimesNewRomanPSMT-63" transform="scale(0.015625)"/>
       <path d="M 144 4313 
L 144 4444 
Q 619 4209 934 3891 
Q 1381 3434 1625 2820 
Q 1869 2206 1869 1541 
Q 1869 572 1392 -226 
Q 916 -1025 144 -1369 
L 144 -1253 
Q 528 -1038 776 -670 
Q 1025 -303 1145 264 
Q 1266 831 1266 1447 
Q 1266 2113 1163 2663 
Q 1084 3094 967 3353 
Q 850 3613 656 3853 
Q 463 4094 144 4313 
z
" id="TimesNewRomanPSMT-29" transform="scale(0.015625)"/>
      </defs>
      <use xlink:href="#TimesNewRomanPSMT-54"/>
      <use x="57.583984" xlink:href="#TimesNewRomanPSMT-69"/>
      <use x="85.367188" xlink:href="#TimesNewRomanPSMT-6d"/>
      <use x="163.150391" xlink:href="#TimesNewRomanPSMT-65"/>
      <use x="207.535156" xlink:href="#TimesNewRomanPSMT-20"/>
      <use x="232.535156" xlink:href="#TimesNewRomanPSMT-28"/>
      <use x="265.835938" xlink:href="#TimesNewRomanPSMT-73"/>
      <use x="304.751953" xlink:href="#TimesNewRomanPSMT-65"/>
      <use x="349.136719" xlink:href="#TimesNewRomanPSMT-63"/>
      <use x="393.521484" xlink:href="#TimesNewRomanPSMT-29"/>
     </g>
    </g>
   </g>
   <g id="matplotlib.axis_2">
    <g id="ytick_1">
     <g id="line2d_13">
      <path clip-path="url(#p423e88dd2f)" d="M 63.336875 338.881071 
L 398.136875 338.881071 
" style="fill:none;stroke:#000000;stroke-dasharray:0.5,0.825;stroke-dashoffset:0;stroke-width:0.5;"/>
     </g>
     <g id="line2d_14">
      <defs>
       <path d="M 0 0 
L -3.5 0 
" id="m847f32bc84" style="stroke:#000000;stroke-width:0.8;"/>
      </defs>
      <g>
       <use style="stroke:#000000;stroke-width:0.8;" x="63.336875" xlink:href="#m847f32bc84" y="338.881071"/>
      </g>
     </g>
     <g id="text_8">
      <!-- −0.06 -->
      <g transform="translate(23.942188 343.741696)scale(0.14 -0.14)">
       <defs>
        <path d="M 3484 2000 
L 116 2000 
L 116 2256 
L 3484 2256 
L 3484 2000 
z
" id="TimesNewRomanPSMT-2212" transform="scale(0.015625)"/>
        <path d="M 2869 4325 
L 2869 4209 
Q 2456 4169 2195 4045 
Q 1934 3922 1679 3669 
Q 1425 3416 1258 3105 
Q 1091 2794 978 2366 
Q 1428 2675 1881 2675 
Q 2316 2675 2634 2325 
Q 2953 1975 2953 1425 
Q 2953 894 2631 456 
Q 2244 -75 1606 -75 
Q 1172 -75 869 213 
Q 275 772 275 1663 
Q 275 2231 503 2743 
Q 731 3256 1154 3653 
Q 1578 4050 1965 4187 
Q 2353 4325 2688 4325 
L 2869 4325 
z
M 925 2138 
Q 869 1716 869 1456 
Q 869 1156 980 804 
Q 1091 453 1309 247 
Q 1469 100 1697 100 
Q 1969 100 2183 356 
Q 2397 613 2397 1088 
Q 2397 1622 2184 2012 
Q 1972 2403 1581 2403 
Q 1463 2403 1327 2353 
Q 1191 2303 925 2138 
z
" id="TimesNewRomanPSMT-36" transform="scale(0.015625)"/>
       </defs>
       <use xlink:href="#TimesNewRomanPSMT-2212"/>
       <use x="56.396484" xlink:href="#TimesNewRomanPSMT-30"/>
       <use x="106.396484" xlink:href="#TimesNewRomanPSMT-2e"/>
       <use x="131.396484" xlink:href="#TimesNewRomanPSMT-30"/>
       <use x="181.396484" xlink:href="#TimesNewRomanPSMT-36"/>
      </g>
     </g>
    </g>
    <g id="ytick_2">
     <g id="line2d_15">
      <path clip-path="url(#p423e88dd2f)" d="M 63.336875 276.506442 
L 398.136875 276.506442 
" style="fill:none;stroke:#000000;stroke-dasharray:0.5,0.825;stroke-dashoffset:0;stroke-width:0.5;"/>
     </g>
     <g id="line2d_16">
      <g>
       <use style="stroke:#000000;stroke-width:0.8;" x="63.336875" xlink:href="#m847f32bc84" y="276.506442"/>
      </g>
     </g>
     <g id="text_9">
      <!-- −0.04 -->
      <g transform="translate(23.942188 281.367067)scale(0.14 -0.14)">
       <use xlink:href="#TimesNewRomanPSMT-2212"/>
       <use x="56.396484" xlink:href="#TimesNewRomanPSMT-30"/>
       <use x="106.396484" xlink:href="#TimesNewRomanPSMT-2e"/>
       <use x="131.396484" xlink:href="#TimesNewRomanPSMT-30"/>
       <use x="181.396484" xlink:href="#TimesNewRomanPSMT-34"/>
      </g>
     </g>
    </g>
    <g id="ytick_3">
     <g id="line2d_17">
      <path clip-path="url(#p423e88dd2f)" d="M 63.336875 214.131812 
L 398.136875 214.131812 
" style="fill:none;stroke:#000000;stroke-dasharray:0.5,0.825;stroke-dashoffset:0;stroke-width:0.5;"/>
     </g>
     <g id="line2d_18">
      <g>
       <use style="stroke:#000000;stroke-width:0.8;" x="63.336875" xlink:href="#m847f32bc84" y="214.131812"/>
      </g>
     </g>
     <g id="text_10">
      <!-- −0.02 -->
      <g transform="translate(23.942188 218.992437)scale(0.14 -0.14)">
       <use xlink:href="#TimesNewRomanPSMT-2212"/>
       <use x="56.396484" xlink:href="#TimesNewRomanPSMT-30"/>
       <use x="106.396484" xlink:href="#TimesNewRomanPSMT-2e"/>
       <use x="131.396484" xlink:href="#TimesNewRomanPSMT-30"/>
       <use x="181.396484" xlink:href="#TimesNewRomanPSMT-32"/>
      </g>
     </g>
    </g>
    <g id="ytick_4">
     <g id="line2d_19">
      <path clip-path="url(#p423e88dd2f)" d="M 63.336875 151.757183 
L 398.136875 151.757183 
" style="fill:none;stroke:#000000;stroke-dasharray:0.5,0.825;stroke-dashoffset:0;stroke-width:0.5;"/>
     </g>
     <g id="line2d_20">
      <g>
       <use style="stroke:#000000;stroke-width:0.8;" x="63.336875" xlink:href="#m847f32bc84" y="151.757183"/>
      </g>
     </g>
     <g id="text_11">
      <!-- 0.00 -->
      <g transform="translate(31.836875 156.617808)scale(0.14 -0.14)">
       <use xlink:href="#TimesNewRomanPSMT-30"/>
       <use x="50" xlink:href="#TimesNewRomanPSMT-2e"/>
       <use x="75" xlink:href="#TimesNewRomanPSMT-30"/>
       <use x="125" xlink:href="#TimesNewRomanPSMT-30"/>
      </g>
     </g>
    </g>
    <g id="ytick_5">
     <g id="line2d_21">
      <path clip-path="url(#p423e88dd2f)" d="M 63.336875 89.382554 
L 398.136875 89.382554 
" style="fill:none;stroke:#000000;stroke-dasharray:0.5,0.825;stroke-dashoffset:0;stroke-width:0.5;"/>
     </g>
     <g id="line2d_22">
      <g>
       <use style="stroke:#000000;stroke-width:0.8;" x="63.336875" xlink:href="#m847f32bc84" y="89.382554"/>
      </g>
     </g>
     <g id="text_12">
      <!-- 0.02 -->
      <g transform="translate(31.836875 94.243179)scale(0.14 -0.14)">
       <use xlink:href="#TimesNewRomanPSMT-30"/>
       <use x="50" xlink:href="#TimesNewRomanPSMT-2e"/>
       <use x="75" xlink:href="#TimesNewRomanPSMT-30"/>
       <use x="125" xlink:href="#TimesNewRomanPSMT-32"/>
      </g>
     </g>
    </g>
    <g id="ytick_6">
     <g id="line2d_23">
      <path clip-path="url(#p423e88dd2f)" d="M 63.336875 27.007924 
L 398.136875 27.007924 
" style="fill:none;stroke:#000000;stroke-dasharray:0.5,0.825;stroke-dashoffset:0;stroke-width:0.5;"/>
     </g>
     <g id="line2d_24">
      <g>
       <use style="stroke:#000000;stroke-width:0.8;" x="63.336875" xlink:href="#m847f32bc84" y="27.007924"/>
      </g>
     </g>
     <g id="text_13">
      <!-- 0.04 -->
      <g transform="translate(31.836875 31.868549)scale(0.14 -0.14)">
       <use xlink:href="#TimesNewRomanPSMT-30"/>
       <use x="50" xlink:href="#TimesNewRomanPSMT-2e"/>
       <use x="75" xlink:href="#TimesNewRomanPSMT-30"/>
       <use x="125" xlink:href="#TimesNewRomanPSMT-34"/>
      </g>
     </g>
    </g>
    <g id="text_14">
     <!-- Volatage (V) -->
     <g transform="translate(16.92125 209.352344)rotate(-90)scale(0.14 -0.14)">
      <defs>
       <path d="M 4544 4238 
L 4544 4122 
Q 4319 4081 4203 3978 
Q 4038 3825 3909 3509 
L 2431 -97 
L 2316 -97 
L 728 3556 
Q 606 3838 556 3900 
Q 478 3997 364 4051 
Q 250 4106 56 4122 
L 56 4238 
L 1788 4238 
L 1788 4122 
Q 1494 4094 1406 4022 
Q 1319 3950 1319 3838 
Q 1319 3681 1463 3350 
L 2541 866 
L 3541 3319 
Q 3688 3681 3688 3822 
Q 3688 3913 3597 3995 
Q 3506 4078 3291 4113 
Q 3275 4116 3238 4122 
L 3238 4238 
L 4544 4238 
z
" id="TimesNewRomanPSMT-56" transform="scale(0.015625)"/>
       <path d="M 1600 2947 
Q 2250 2947 2644 2453 
Q 2978 2031 2978 1484 
Q 2978 1100 2793 706 
Q 2609 313 2286 112 
Q 1963 -88 1566 -88 
Q 919 -88 538 428 
Q 216 863 216 1403 
Q 216 1797 411 2186 
Q 606 2575 925 2761 
Q 1244 2947 1600 2947 
z
M 1503 2744 
Q 1338 2744 1170 2645 
Q 1003 2547 900 2300 
Q 797 2053 797 1666 
Q 797 1041 1045 587 
Q 1294 134 1700 134 
Q 2003 134 2200 384 
Q 2397 634 2397 1244 
Q 2397 2006 2069 2444 
Q 1847 2744 1503 2744 
z
" id="TimesNewRomanPSMT-6f" transform="scale(0.015625)"/>
       <path d="M 1184 4444 
L 1184 647 
Q 1184 378 1223 290 
Q 1263 203 1344 158 
Q 1425 113 1647 113 
L 1647 0 
L 244 0 
L 244 113 
Q 441 113 512 153 
Q 584 194 625 287 
Q 666 381 666 647 
L 666 3247 
Q 666 3731 644 3842 
Q 622 3953 573 3993 
Q 525 4034 450 4034 
Q 369 4034 244 3984 
L 191 4094 
L 1044 4444 
L 1184 4444 
z
" id="TimesNewRomanPSMT-6c" transform="scale(0.015625)"/>
       <path d="M 1822 413 
Q 1381 72 1269 19 
Q 1100 -59 909 -59 
Q 613 -59 420 144 
Q 228 347 228 678 
Q 228 888 322 1041 
Q 450 1253 767 1440 
Q 1084 1628 1822 1897 
L 1822 2009 
Q 1822 2438 1686 2597 
Q 1550 2756 1291 2756 
Q 1094 2756 978 2650 
Q 859 2544 859 2406 
L 866 2225 
Q 866 2081 792 2003 
Q 719 1925 600 1925 
Q 484 1925 411 2006 
Q 338 2088 338 2228 
Q 338 2497 613 2722 
Q 888 2947 1384 2947 
Q 1766 2947 2009 2819 
Q 2194 2722 2281 2516 
Q 2338 2381 2338 1966 
L 2338 994 
Q 2338 584 2353 492 
Q 2369 400 2405 369 
Q 2441 338 2488 338 
Q 2538 338 2575 359 
Q 2641 400 2828 588 
L 2828 413 
Q 2478 -56 2159 -56 
Q 2006 -56 1915 50 
Q 1825 156 1822 413 
z
M 1822 616 
L 1822 1706 
Q 1350 1519 1213 1441 
Q 966 1303 859 1153 
Q 753 1003 753 825 
Q 753 600 887 451 
Q 1022 303 1197 303 
Q 1434 303 1822 616 
z
" id="TimesNewRomanPSMT-61" transform="scale(0.015625)"/>
       <path d="M 1031 3803 
L 1031 2863 
L 1700 2863 
L 1700 2644 
L 1031 2644 
L 1031 788 
Q 1031 509 1111 412 
Q 1191 316 1316 316 
Q 1419 316 1516 380 
Q 1613 444 1666 569 
L 1788 569 
Q 1678 263 1478 108 
Q 1278 -47 1066 -47 
Q 922 -47 784 33 
Q 647 113 581 261 
Q 516 409 516 719 
L 516 2644 
L 63 2644 
L 63 2747 
Q 234 2816 414 2980 
Q 594 3144 734 3369 
Q 806 3488 934 3803 
L 1031 3803 
z
" id="TimesNewRomanPSMT-74" transform="scale(0.015625)"/>
       <path d="M 966 1044 
Q 703 1172 562 1401 
Q 422 1631 422 1909 
Q 422 2334 742 2640 
Q 1063 2947 1563 2947 
Q 1972 2947 2272 2747 
L 2878 2747 
Q 3013 2747 3034 2739 
Q 3056 2731 3066 2713 
Q 3084 2684 3084 2613 
Q 3084 2531 3069 2500 
Q 3059 2484 3036 2475 
Q 3013 2466 2878 2466 
L 2506 2466 
Q 2681 2241 2681 1891 
Q 2681 1491 2375 1206 
Q 2069 922 1553 922 
Q 1341 922 1119 984 
Q 981 866 932 777 
Q 884 688 884 625 
Q 884 572 936 522 
Q 988 472 1138 450 
Q 1225 438 1575 428 
Q 2219 413 2409 384 
Q 2700 344 2873 169 
Q 3047 -6 3047 -263 
Q 3047 -616 2716 -925 
Q 2228 -1381 1444 -1381 
Q 841 -1381 425 -1109 
Q 191 -953 191 -784 
Q 191 -709 225 -634 
Q 278 -519 444 -313 
Q 466 -284 763 25 
Q 600 122 533 198 
Q 466 275 466 372 
Q 466 481 555 628 
Q 644 775 966 1044 
z
M 1509 2797 
Q 1278 2797 1122 2612 
Q 966 2428 966 2047 
Q 966 1553 1178 1281 
Q 1341 1075 1591 1075 
Q 1828 1075 1981 1253 
Q 2134 1431 2134 1813 
Q 2134 2309 1919 2591 
Q 1759 2797 1509 2797 
z
M 934 0 
Q 788 -159 713 -296 
Q 638 -434 638 -550 
Q 638 -700 819 -813 
Q 1131 -1006 1722 -1006 
Q 2284 -1006 2551 -807 
Q 2819 -609 2819 -384 
Q 2819 -222 2659 -153 
Q 2497 -84 2016 -72 
Q 1313 -53 934 0 
z
" id="TimesNewRomanPSMT-67" transform="scale(0.015625)"/>
      </defs>
      <use xlink:href="#TimesNewRomanPSMT-56"/>
      <use x="59.341797" xlink:href="#TimesNewRomanPSMT-6f"/>
      <use x="109.341797" xlink:href="#TimesNewRomanPSMT-6c"/>
      <use x="137.125" xlink:href="#TimesNewRomanPSMT-61"/>
      <use x="181.509766" xlink:href="#TimesNewRomanPSMT-74"/>
      <use x="209.292969" xlink:href="#TimesNewRomanPSMT-61"/>
      <use x="253.677734" xlink:href="#TimesNewRomanPSMT-67"/>
      <use x="303.677734" xlink:href="#TimesNewRomanPSMT-65"/>
      <use x="348.0625" xlink:href="#TimesNewRomanPSMT-20"/>
      <use x="373.0625" xlink:href="#TimesNewRomanPSMT-28"/>
      <use x="406.363281" xlink:href="#TimesNewRomanPSMT-56"/>
      <use x="478.580078" xlink:href="#TimesNewRomanPSMT-29"/>
     </g>
    </g>
   </g>
   <g id="LineCollection_1">
    <path clip-path="url(#p423e88dd2f)" d="M 78.555057 151.757183 
L 382.918693 151.757183 
" style="fill:none;stroke:#1f77b4;stroke-width:1.5;"/>
   </g>
   <g id="line2d_25">
    <path clip-path="url(#p423e88dd2f)" d="M 78.555057 151.747359 
L 78.707239 151.708375 
L 79.772511 151.747359 
L 79.894257 151.825327 
L 79.985566 151.747359 
L 80.016002 151.786343 
L 83.364002 151.747359 
L 83.394439 151.669391 
L 83.424875 151.786343 
L 83.455311 151.708375 
L 83.577057 151.747359 
L 83.759675 151.669391 
L 83.88142 151.747359 
L 87.959893 151.825327 
L 88.051202 151.825327 
L 88.142511 151.786343 
L 88.172948 151.825327 
L 89.968693 151.864312 
L 89.99913 151.94228 
L 90.090439 151.903296 
L 90.120875 151.825327 
L 90.181748 151.903296 
L 95.873348 151.981264 
L 96.02553 152.020248 
L 96.177711 151.981264 
L 100.012693 152.020248 
L 100.04313 152.098216 
L 100.104002 152.020248 
L 101.71713 152.059232 
L 101.747566 152.1372 
L 101.808439 152.059232 
L 108.808802 152.1372 
L 108.900111 152.176185 
L 108.930548 152.1372 
L 110.452366 152.176185 
L 110.482802 152.254153 
L 110.513239 152.1372 
L 110.574111 152.215169 
L 110.726293 152.176185 
L 110.848039 152.215169 
L 110.878475 152.293137 
L 110.908911 152.176185 
L 110.939348 152.254153 
L 111.09153 152.176185 
L 111.213275 152.254153 
L 112.126366 152.332121 
L 112.248111 152.332121 
L 112.917711 152.410089 
L 113.039457 152.488058 
L 113.069893 152.449074 
L 113.191639 152.449074 
L 113.648184 152.527042 
L 113.800366 152.60501 
L 113.922111 152.566026 
L 114.10473 152.643994 
L 114.135166 152.60501 
L 114.196039 152.682978 
L 114.68302 152.760947 
L 114.865639 152.838915 
L 115.230875 152.916883 
L 115.383057 152.955868 
L 115.748293 152.994852 
L 115.870039 153.07282 
L 116.326584 153.150788 
L 116.509202 153.228757 
L 116.600511 153.189772 
L 116.630948 153.228757 
L 117.178802 153.306725 
L 117.330984 153.384693 
L 117.45273 153.345709 
L 117.665784 153.462661 
L 117.757093 153.384693 
L 117.78753 153.423677 
L 117.909275 153.462661 
L 117.970148 153.423677 
L 118.000584 153.462661 
L 118.152766 153.501646 
L 118.548439 153.579614 
L 118.670184 153.657582 
L 118.70062 153.618598 
L 118.944111 153.696566 
L 119.065857 153.696566 
L 119.278911 153.774535 
L 119.431093 153.891487 
L 119.46153 153.852503 
L 119.644148 153.930471 
L 119.826766 154.008439 
L 120.161566 154.086408 
L 120.283311 154.164376 
L 120.435493 154.242344 
L 120.70942 154.437265 
L 120.80073 154.437265 
L 120.983348 154.632186 
L 121.105093 154.67117 
L 121.257275 154.866091 
L 121.348584 154.866091 
L 121.531202 155.061011 
L 122.566039 156.542409 
L 123.022584 157.439044 
L 123.205202 157.828885 
L 124.848766 162.273078 
L 125.15313 163.32565 
L 125.427057 164.300253 
L 126.918439 170.420764 
L 127.344548 172.447939 
L 127.770657 174.475115 
L 128.07502 175.956513 
L 129.322911 181.843116 
L 129.50553 182.583816 
L 130.17513 185.468643 
L 131.666511 190.770487 
L 132.396984 192.368836 
L 132.42742 192.368836 
L 132.610039 192.641725 
L 133.005711 193.031567 
L 133.127457 193.031567 
L 133.218766 193.070551 
L 133.249202 193.031567 
L 133.492693 192.953599 
L 133.644875 192.797662 
L 133.797057 192.719694 
L 133.949239 192.485789 
L 133.979675 192.563757 
L 134.040548 192.446805 
L 134.923202 191.199312 
L 135.10582 190.809471 
L 135.410184 189.990804 
L 135.44062 189.990804 
L 136.658075 184.922865 
L 138.392948 173.11067 
L 139.275602 165.469778 
L 141.040911 146.289579 
L 141.740948 137.206273 
L 143.81062 109.293627 
L 145.48462 85.24041 
L 147.310802 61.070245 
L 149.319602 39.122166 
L 150.324002 31.091435 
L 151.206657 26.140452 
L 151.84582 24.074286 
L 151.93713 23.879369 
L 152.150184 23.294604 
L 152.51542 22.631879 
L 152.545857 22.670857 
L 152.576293 22.592889 
L 152.819784 22.35899 
L 152.85022 22.436959 
L 152.911093 22.397968 
L 153.032839 22.32 
L 153.063275 22.35899 
L 153.367639 22.436959 
L 153.550257 22.709848 
L 153.61113 22.787816 
L 154.311166 24.853972 
L 155.437311 31.052457 
L 155.95473 35.223755 
L 156.53302 40.525595 
L 157.020002 45.827448 
L 158.115711 59.7058 
L 159.028802 74.051961 
L 161.128911 113.659851 
L 163.076839 155.840694 
L 166.881384 241.021044 
L 168.129275 265.775978 
L 169.133675 283.00697 
L 169.955457 294.858152 
L 170.868548 306.163548 
L 172.02513 316.923181 
L 173.02953 322.653847 
L 173.760002 324.291174 
L 173.851311 324.369143 
L 174.186111 324.72 
L 174.216548 324.681022 
L 174.338293 324.681022 
L 174.429602 324.72 
L 174.460039 324.681022 
L 175.068766 323.7454 
L 175.95142 321.250417 
L 176.681893 317.235048 
L 176.925384 315.909587 
L 178.568948 302.421076 
L 179.025493 297.353134 
L 182.038693 257.394391 
L 183.31702 236.109048 
L 186.695457 177.515877 
L 191.260911 108.981754 
L 193.969748 78.924982 
L 194.45673 75.14352 
L 195.552439 66.294114 
L 195.79593 64.500849 
L 197.561239 51.792012 
L 198.017784 49.530938 
L 198.261275 48.634294 
L 198.596075 47.191887 
L 199.113493 45.047762 
L 199.783093 43.059567 
L 200.574439 40.447627 
L 200.909239 39.862871 
L 201.548402 38.498419 
L 201.639711 38.420451 
L 201.883202 38.264524 
L 202.613675 38.186553 
L 202.82673 38.069594 
L 203.222402 38.147562 
L 203.618075 38.498419 
L 203.800693 38.576391 
L 203.952875 38.615381 
L 204.07462 38.615381 
L 204.226802 38.654359 
L 204.378984 38.849277 
L 204.40942 38.810299 
L 204.439857 38.927248 
L 204.683348 39.356074 
L 204.926839 39.901849 
L 204.987711 39.97982 
L 205.231202 40.486617 
L 207.392184 46.295254 
L 208.09222 48.556338 
L 208.366148 49.530938 
L 209.76622 55.339576 
L 210.618439 59.160019 
L 211.714148 63.799135 
L 212.322875 66.372085 
L 212.657675 68.087387 
L 213.509893 72.882437 
L 213.78382 74.32485 
L 215.366511 85.123461 
L 215.914366 89.645616 
L 216.401348 93.466065 
L 217.831857 105.317244 
L 218.349275 110.151278 
L 219.292802 118.688805 
L 220.327639 128.941636 
L 222.427748 151.591422 
L 224.16262 172.408955 
L 225.92793 194.00617 
L 227.754111 218.176339 
L 228.819384 231.625872 
L 229.367239 238.370126 
L 230.432511 250.650131 
L 233.29353 275.327097 
L 234.87622 282.929001 
L 234.997966 283.240878 
L 235.758875 284.917196 
L 236.002366 285.073123 
L 236.154548 284.995167 
L 237.158948 283.552745 
L 237.950293 280.083162 
L 239.015566 274.079595 
L 239.928657 267.569243 
L 242.24182 242.775334 
L 245.68113 197.397791 
L 247.35513 171.356383 
L 250.063966 131.397636 
L 251.220548 116.544678 
L 251.768402 110.697056 
L 252.498875 103.446005 
L 252.803239 100.834068 
L 253.746766 93.310131 
L 253.898948 92.296544 
L 254.72073 87.540478 
L 255.29902 84.499709 
L 255.451202 83.875965 
L 256.029493 81.419961 
L 256.272984 80.523329 
L 256.699093 79.314818 
L 257.033893 78.691071 
L 257.06433 78.691071 
L 257.246948 78.340214 
L 257.338257 78.262252 
L 257.946984 77.638499 
L 258.31222 77.560537 
L 258.433966 77.482566 
L 258.525275 77.443582 
L 258.707893 77.248664 
L 258.951384 77.092725 
L 259.164439 77.05374 
L 259.194875 76.975769 
L 259.286184 77.014756 
L 259.377493 76.975769 
L 259.40793 77.014756 
L 259.681857 76.936785 
L 259.803602 76.858823 
L 259.834039 76.897807 
L 260.047093 76.819836 
L 260.229711 76.741867 
L 260.473202 76.819836 
L 260.625384 76.897807 
L 260.65582 76.858823 
L 260.716693 76.936785 
L 260.929748 77.05374 
L 261.112366 77.092725 
L 261.264548 77.20968 
L 262.268948 78.652087 
L 262.877675 79.93857 
L 262.99942 80.211456 
L 263.364657 81.18606 
L 263.486402 81.497933 
L 264.308184 83.875965 
L 265.403893 87.657427 
L 265.647384 88.554066 
L 266.651784 93.154192 
L 267.077893 95.181367 
L 268.02142 100.522198 
L 268.204039 101.57477 
L 268.721457 104.732482 
L 269.238875 107.929182 
L 271.917275 125.783919 
L 273.226039 134.984177 
L 274.565239 142.858975 
L 276.087057 150.110025 
L 278.917639 160.59676 
L 279.039384 160.908633 
L 279.374184 161.766284 
L 280.256839 163.79346 
L 280.317711 163.832444 
L 280.591639 164.300253 
L 280.622075 164.300253 
L 280.804693 164.573142 
L 281.048184 165.040952 
L 281.41342 165.703682 
L 282.661311 167.146095 
L 282.722184 167.18508 
L 282.84393 167.263048 
L 284.061384 167.263048 
L 284.213566 167.107112 
L 284.51793 166.873206 
L 284.670111 166.795238 
L 284.974475 166.561334 
L 285.065784 166.483365 
L 286.009311 165.118921 
L 286.313675 164.612127 
L 286.52673 164.183301 
L 287.19633 162.740887 
L 287.378948 162.351046 
L 288.10942 160.752696 
L 288.413784 160.206918 
L 288.839893 159.349267 
L 288.931202 159.271299 
L 289.174693 158.881457 
L 289.266002 158.842473 
L 289.418184 158.647552 
L 289.44862 158.686537 
L 289.479057 158.608568 
L 289.813857 158.335679 
L 289.87473 158.257711 
L 290.148657 158.06279 
L 290.239966 158.101774 
L 290.270402 158.06279 
L 290.605202 158.140759 
L 290.848693 158.296695 
L 291.000875 158.374663 
L 291.21393 158.5306 
L 291.244366 158.491616 
L 291.305239 158.569584 
L 291.670475 159.154347 
L 292.005275 160.011998 
L 293.100984 163.091745 
L 295.596766 173.11067 
L 296.692475 178.178609 
L 297.362075 181.180386 
L 297.727311 182.856707 
L 300.49702 193.070551 
L 302.079711 196.852013 
L 302.26233 197.241854 
L 302.566693 197.982553 
L 303.084111 199.035125 
L 303.114548 199.035125 
L 303.327602 199.424966 
L 303.723275 200.087697 
L 303.966766 200.477538 
L 304.027639 200.555507 
L 304.453748 200.945348 
L 304.636366 201.023316 
L 304.788548 201.0623 
L 304.910293 201.0623 
L 305.458148 201.101285 
L 305.488584 201.179253 
L 305.549457 201.101285 
L 305.792948 201.0623 
L 305.975566 200.828396 
L 306.066875 200.750427 
L 306.310366 200.39957 
L 306.979966 199.385982 
L 308.258293 195.838425 
L 308.653966 194.357028 
L 309.780111 189.600962 
L 310.327966 186.794104 
L 311.149748 182.038038 
L 317.023966 137.713067 
L 317.632693 134.048558 
L 319.458875 122.977063 
L 319.550184 122.470266 
L 319.824111 120.98887 
L 321.406802 113.386962 
L 321.650293 112.490327 
L 323.111239 106.447784 
L 323.93302 102.783275 
L 325.69833 96.428863 
L 325.759202 96.350891 
L 326.520111 94.674573 
L 327.798439 93.154192 
L 327.828875 93.193176 
L 327.859311 93.07622 
L 328.133239 92.998258 
L 328.346293 92.881303 
L 329.04633 92.959271 
L 330.05073 94.401687 
L 332.424766 100.7561 
L 334.64662 109.644484 
L 334.98142 111.359787 
L 335.529275 113.893756 
L 339.881675 136.738464 
L 340.490402 139.974148 
L 340.886075 141.923355 
L 343.199239 153.228757 
L 344.051457 156.93225 
L 344.386257 158.374663 
L 344.538439 158.99841 
L 344.964548 160.635743 
L 348.03862 172.019113 
L 350.625711 178.37353 
L 350.80833 178.763369 
L 351.14313 179.348133 
L 352.299711 180.712578 
L 352.421457 180.712578 
L 352.573639 180.829529 
L 352.604075 180.790547 
L 352.634511 180.868514 
L 352.756257 180.946483 
L 352.786693 180.907499 
L 352.908439 180.985465 
L 353.091057 181.10242 
L 353.212802 181.10242 
L 353.456293 181.180386 
L 353.638911 181.297341 
L 353.73022 181.219371 
L 353.760657 181.258356 
L 354.338948 181.336323 
L 354.552002 181.453277 
L 354.643311 181.414292 
L 354.673748 181.453277 
L 355.038984 181.531244 
L 355.252039 181.648198 
L 355.343348 181.648198 
L 355.556402 181.76515 
L 355.799893 181.843116 
L 356.07382 182.038038 
L 356.226002 182.077022 
L 356.378184 182.193974 
L 356.621675 182.349913 
L 356.804293 182.42788 
L 357.047784 182.622801 
L 357.108657 182.583816 
L 357.139093 182.622801 
L 357.473893 182.895689 
L 357.50433 182.856707 
L 357.565202 182.934673 
L 357.808693 183.129594 
L 357.900002 183.129594 
L 358.08262 183.246546 
L 358.113057 183.168579 
L 358.17393 183.285531 
L 358.295675 183.285531 
L 358.50873 183.363501 
L 358.630475 183.441467 
L 358.660911 183.363501 
L 358.721784 183.480452 
L 358.813093 183.363501 
L 358.84353 183.480452 
L 358.995711 183.558419 
L 359.08702 183.558419 
L 359.239202 183.597404 
L 359.969675 183.675373 
L 360.09142 183.75334 
L 360.121857 183.714358 
L 360.608839 183.675373 
L 360.76102 183.519437 
L 361.034948 183.441467 
L 361.248002 183.324516 
L 361.400184 183.246546 
L 362.343711 182.154992 
L 362.374148 182.193974 
L 362.404584 182.116007 
L 363.256802 180.868514 
L 363.469857 180.439689 
L 363.926402 179.737975 
L 364.139457 179.348133 
L 364.504693 178.685402 
L 364.565566 178.607433 
L 367.152657 175.449718 
L 367.243966 175.371749 
L 367.45702 175.098862 
L 367.517893 175.059877 
L 367.700511 174.864956 
L 368.004875 174.631051 
L 368.278802 174.553083 
L 368.674475 174.202226 
L 368.735348 174.24121 
L 368.765784 174.163241 
L 368.857093 174.085273 
L 369.13102 173.890353 
L 369.161457 173.929336 
L 369.22233 173.851368 
L 369.526693 173.7734 
L 369.80062 173.578479 
L 369.952802 173.539496 
L 370.074548 173.344574 
L 370.196293 173.266606 
L 370.47022 173.071685 
L 370.56153 173.032702 
L 370.713711 172.876764 
L 370.835457 172.798796 
L 371.505057 172.097083 
L 371.56593 172.019113 
L 371.931166 171.70724 
L 371.961602 171.70724 
L 372.113784 171.551304 
L 372.296402 171.356383 
L 373.14862 170.420764 
L 373.270366 170.38178 
L 373.452984 170.147874 
L 373.513857 170.108891 
L 373.757348 169.758034 
L 374.366075 168.822414 
L 374.670439 168.315621 
L 374.944366 167.808827 
L 375.91833 165.547746 
L 375.948766 165.547746 
L 376.25313 164.807047 
L 376.405311 164.45619 
L 377.348839 161.766284 
L 377.83582 160.323871 
L 378.414111 158.569584 
L 378.870657 157.205139 
L 378.961966 156.93225 
L 379.26633 155.879678 
L 382.675202 142.391165 
L 382.918693 141.260624 
L 382.918693 141.260624 
" style="fill:none;stroke:#0000ff;stroke-linecap:square;stroke-width:1.5;"/>
   </g>
   <g id="line2d_26">
    <path clip-path="url(#p423e88dd2f)" d="M 78.555057 151.747359 
L 87.22942 151.825327 
L 87.351166 151.825327 
L 100.134439 151.922788 
L 100.469239 152.03974 
L 100.590984 152.059232 
L 100.834475 152.195677 
L 100.986657 152.273645 
L 101.29102 152.50755 
L 101.443202 152.60501 
L 102.995457 154.749138 
L 104.791202 159.622156 
L 106.556511 166.795238 
L 107.134802 169.504636 
L 107.286984 170.167367 
L 107.834839 172.681843 
L 108.930548 177.730291 
L 110.117566 182.544833 
L 110.66542 184.22115 
L 111.456766 186.38477 
L 111.791566 186.969533 
L 112.126366 187.554295 
L 113.039457 188.54839 
L 113.222075 188.54839 
L 113.587311 188.45093 
L 114.287348 187.88566 
L 115.048257 186.18985 
L 116.296148 181.823626 
L 117.11793 177.632829 
L 118.061457 171.570795 
L 119.918075 157.711933 
L 125.15313 111.730136 
L 126.49233 103.056161 
L 127.74022 96.506831 
L 129.140293 90.737172 
L 129.596839 89.372727 
L 129.901202 88.807463 
L 130.17513 88.398126 
L 130.357748 88.164221 
L 130.631675 87.735396 
L 130.814293 87.501491 
L 131.027348 87.326062 
L 131.209966 87.267583 
L 131.51433 87.189621 
L 131.696948 87.111649 
L 132.610039 86.078566 
L 132.792657 86.078566 
L 134.070984 86.156538 
L 134.405784 86.565874 
L 135.10582 86.897237 
L 135.318875 86.877748 
L 135.53193 86.975205 
L 135.77542 87.228605 
L 136.171093 87.754891 
L 136.475457 87.969297 
L 136.77982 88.066764 
L 137.11462 88.378634 
L 138.514693 91.282953 
L 140.401748 100.249309 
L 142.775784 114.536994 
L 146.15422 141.338592 
L 151.51102 188.372962 
L 153.94593 204.804778 
L 155.254693 210.165098 
L 155.680802 211.198175 
L 155.95473 211.704972 
L 156.319966 212.348213 
L 156.654766 212.757543 
L 156.898257 212.893988 
L 157.598293 212.991448 
L 157.720039 212.971959 
L 158.20702 212.543131 
L 158.602693 211.860905 
L 159.059239 210.983762 
L 160.124511 208.703196 
L 161.098475 205.915826 
L 161.676766 203.713222 
L 162.255057 201.608075 
L 162.620293 200.107189 
L 164.56822 189.58147 
L 165.055202 186.696644 
L 165.755239 182.544833 
L 166.57702 177.53537 
L 167.550984 171.999621 
L 168.646693 167.594414 
L 169.224984 165.801143 
L 170.472875 163.637523 
L 170.716366 163.501078 
L 170.898984 163.501078 
L 171.994693 164.319746 
L 172.60342 165.723175 
L 173.486075 168.276636 
L 175.129639 175.0014 
L 176.073166 180.400704 
L 178.264584 195.117219 
L 179.451602 203.38186 
L 180.669057 209.755767 
L 181.551711 213.576207 
L 181.97782 215.213548 
L 182.860475 218.195828 
L 183.347457 219.150943 
L 183.560511 219.345867 
L 183.895311 219.443324 
L 184.443166 219.345867 
L 185.051893 218.390752 
L 185.569311 216.792405 
L 186.75633 210.184587 
L 187.608548 203.459822 
L 189.952148 178.354037 
L 190.713057 167.808826 
L 195.643748 96.818704 
L 197.865602 72.473104 
L 198.870002 63.292335 
L 200.422257 50.330113 
L 201.517966 43.312964 
L 202.918039 38.322991 
L 204.044184 36.393279 
L 204.318111 36.198361 
L 204.592039 36.256837 
L 204.83553 36.490733 
L 205.292075 37.250933 
L 205.657311 38.459435 
L 206.113857 40.623052 
L 209.248802 59.335444 
L 209.76622 62.766049 
L 210.496693 68.145867 
L 212.809857 86.487903 
L 216.918766 118.92271 
L 218.56233 131.690017 
L 220.266766 143.931038 
L 223.219093 162.136634 
L 226.414911 179.932895 
L 226.658402 181.082926 
L 228.60633 189.308581 
L 229.762911 193.34344 
L 231.436911 197.339315 
L 232.015202 198.664776 
L 232.654366 200.360586 
L 233.141348 201.510618 
L 234.20662 204.551381 
L 235.150148 207.241284 
L 235.606693 208.566751 
L 236.276293 209.989669 
L 236.611093 210.593927 
L 237.493748 212.075318 
L 237.64593 212.289734 
L 238.498148 213.205861 
L 238.98513 213.400779 
L 239.98953 213.303321 
L 240.172148 213.283829 
L 240.354766 213.283829 
L 240.99393 213.361801 
L 241.146111 213.400779 
L 241.66353 213.498245 
L 241.785275 213.498245 
L 242.546184 213.595702 
L 242.820111 213.693163 
L 242.941857 213.693163 
L 243.185348 213.829607 
L 243.58102 214.180465 
L 244.068002 214.882179 
L 244.189748 215.077103 
L 244.615857 215.798307 
L 245.528948 217.844971 
L 246.25942 219.482311 
L 247.050766 221.217103 
L 248.176911 223.61463 
L 248.633457 224.491774 
L 248.785639 224.70618 
L 250.216148 226.363009 
L 251.464039 227.045235 
L 251.981457 226.947768 
L 252.37713 226.596911 
L 253.594584 224.023961 
L 253.929384 223.010373 
L 254.751166 220.008597 
L 255.63382 215.54491 
L 256.97302 206.266684 
L 257.97742 197.690172 
L 258.890511 188.567882 
L 260.564511 168.04273 
L 262.786366 135.237575 
L 264.856039 102.627338 
L 267.717057 60.290559 
L 268.934511 46.100327 
L 270.273711 34.288135 
L 271.12593 29.064266 
L 271.582475 27.076069 
L 272.099893 25.243814 
L 272.556439 24.093788 
L 272.678184 23.918353 
L 272.952111 23.625969 
L 273.37822 23.470029 
L 273.743457 23.567496 
L 274.04782 23.879372 
L 274.869602 26.257405 
L 275.691384 29.843937 
L 277.48713 42.006999 
L 279.40462 60.173603 
L 281.322111 80.952155 
L 283.148293 102.023084 
L 285.400584 128.142461 
L 286.313675 137.985957 
L 289.266002 168.958859 
L 290.148657 177.223498 
L 291.45742 188.782295 
L 292.035711 193.635821 
L 292.827057 199.73684 
L 294.774984 211.510048 
L 295.353275 214.219449 
L 297.362075 221.528976 
L 297.666439 222.328147 
L 298.122984 223.458691 
L 298.48822 224.082434 
L 298.731711 224.413802 
L 299.58393 225.349422 
L 299.705675 225.42739 
L 299.888293 225.505361 
L 300.405711 225.407895 
L 301.197057 224.803647 
L 302.84062 221.412026 
L 303.662402 217.864466 
L 304.727675 211.081228 
L 305.549457 205.155635 
L 306.85822 195.156203 
L 307.375639 191.140836 
L 309.262693 176.346354 
L 309.96273 171.824192 
L 311.514984 162.584951 
L 314.071639 148.472691 
L 314.832548 144.554784 
L 315.289093 142.293704 
L 316.354366 138.02494 
L 317.450075 134.243478 
L 317.784875 133.093447 
L 318.424039 131.06627 
L 318.971893 129.779794 
L 320.280657 126.719539 
L 320.463275 126.310204 
L 321.711166 123.386393 
L 322.01553 122.840618 
L 322.59382 121.651602 
L 323.35473 120.4236 
L 323.719966 119.780361 
L 324.298257 118.591345 
L 325.120039 116.778582 
L 326.337493 113.231025 
L 326.61142 112.470835 
L 327.220148 110.891977 
L 330.994257 101.477309 
L 331.085566 101.340859 
L 331.420366 100.7561 
L 332.759566 99.196734 
L 332.911748 99.099277 
L 333.216111 98.884864 
L 333.30742 98.826381 
L 333.794402 98.59248 
L 333.946584 98.611969 
L 334.342257 98.68994 
L 334.677057 98.943337 
L 335.011857 99.274705 
L 335.285784 99.586578 
L 335.437966 99.800985 
L 335.864075 100.502699 
L 336.290184 101.301881 
L 337.903311 104.635022 
L 338.785966 107.188483 
L 340.642584 114.731915 
L 341.981784 121.807538 
L 342.925311 127.167855 
L 343.838402 132.820557 
L 344.812366 139.759735 
L 346.182002 151.143105 
L 349.195202 175.332765 
L 351.538802 192.602741 
L 352.208402 197.261346 
L 353.851966 207.104839 
L 355.708584 216.051707 
L 356.378184 218.546686 
L 357.869566 221.178115 
L 358.691348 221.606944 
L 358.84353 221.626433 
L 359.117457 221.528976 
L 359.330511 221.275576 
L 360.030548 219.696724 
L 362.039348 211.588019 
L 364.10902 199.054617 
L 367.12222 175.040385 
L 368.187493 165.255365 
L 371.322439 134.087542 
L 372.14422 126.329697 
L 373.23993 116.837059 
L 375.705275 98.748419 
L 378.535857 84.772601 
L 379.50982 82.024216 
L 380.027239 80.952155 
L 380.17942 80.737742 
L 380.483784 80.25044 
L 380.696839 79.997043 
L 381.122948 79.626694 
L 381.488184 79.509741 
L 382.036039 79.58771 
L 382.249093 79.68517 
L 382.918693 80.230951 
L 382.918693 80.230951 
" style="fill:none;stroke:#ff0000;stroke-linecap:square;stroke-width:1.5;"/>
   </g>
   <g id="line2d_27">
    <path clip-path="url(#p423e88dd2f)" d="M 124.240039 160.440823 
" style="fill:none;stroke:#ffffff;stroke-linecap:square;stroke-width:1.5;"/>
    <defs>
     <path d="M 0 -5 
L -1.12257 -1.545085 
L -4.755283 -1.545085 
L -1.816356 0.59017 
L -2.938926 4.045085 
L -0 1.90983 
L 2.938926 4.045085 
L 1.816356 0.59017 
L 4.755283 -1.545085 
L 1.12257 -1.545085 
z
" id="m8250697e9c" style="stroke:#ffffff;stroke-linejoin:bevel;"/>
    </defs>
    <g clip-path="url(#p423e88dd2f)">
     <use style="fill:#0000ff;stroke:#ffffff;stroke-linejoin:bevel;" x="124.240039" xlink:href="#m8250697e9c" y="160.440823"/>
    </g>
   </g>
   <g id="line2d_28">
    <path clip-path="url(#p423e88dd2f)" d="M 104.365093 158.257711 
" style="fill:none;stroke:#ffffff;stroke-linecap:square;stroke-width:1.5;"/>
    <defs>
     <path d="M 0 -5 
L -1.12257 -1.545085 
L -4.755283 -1.545085 
L -1.816356 0.59017 
L -2.938926 4.045085 
L -0 1.90983 
L 2.938926 4.045085 
L 1.816356 0.59017 
L 4.755283 -1.545085 
L 1.12257 -1.545085 
z
" id="m726d091758" style="stroke:#ffffff;stroke-linejoin:bevel;"/>
    </defs>
    <g clip-path="url(#p423e88dd2f)">
     <use style="fill:#ff0000;stroke:#ffffff;stroke-linejoin:bevel;" x="104.365093" xlink:href="#m726d091758" y="158.257711"/>
    </g>
   </g>
   <g id="patch_3">
    <path d="M 63.336875 339.84 
L 63.336875 7.2 
" style="fill:none;stroke:#000000;stroke-linecap:square;stroke-linejoin:miter;stroke-width:0.8;"/>
   </g>
   <g id="patch_4">
    <path d="M 398.136875 339.84 
L 398.136875 7.2 
" style="fill:none;stroke:#000000;stroke-linecap:square;stroke-linejoin:miter;stroke-width:0.8;"/>
   </g>
   <g id="patch_5">
    <path d="M 63.336875 339.84 
L 398.136875 339.84 
" style="fill:none;stroke:#000000;stroke-linecap:square;stroke-linejoin:miter;stroke-width:0.8;"/>
   </g>
   <g id="patch_6">
    <path d="M 63.336875 7.2 
L 398.136875 7.2 
" style="fill:none;stroke:#000000;stroke-linecap:square;stroke-linejoin:miter;stroke-width:0.8;"/>
   </g>
   <g id="text_15">
    <g id="patch_7">
     <path d="M 75.036875 331.242688 
L 166.79375 331.242688 
L 166.79375 293.760312 
L 75.036875 293.760312 
z
" style="fill:#ffffff;stroke:#000000;stroke-linejoin:miter;stroke-width:0.75;"/>
    </g>
    <!-- Auto_00121 -->
    <g transform="translate(80.076875 308.521562)scale(0.14 -0.14)">
     <defs>
      <path d="M 2928 1419 
L 1288 1419 
L 1000 750 
Q 894 503 894 381 
Q 894 284 986 211 
Q 1078 138 1384 116 
L 1384 0 
L 50 0 
L 50 116 
Q 316 163 394 238 
Q 553 388 747 847 
L 2238 4334 
L 2347 4334 
L 3822 809 
Q 4000 384 4145 257 
Q 4291 131 4550 116 
L 4550 0 
L 2878 0 
L 2878 116 
Q 3131 128 3220 200 
Q 3309 272 3309 375 
Q 3309 513 3184 809 
L 2928 1419 
z
M 2841 1650 
L 2122 3363 
L 1384 1650 
L 2841 1650 
z
" id="TimesNewRomanPSMT-41" transform="scale(0.015625)"/>
      <path d="M 2709 2863 
L 2709 1128 
Q 2709 631 2732 520 
Q 2756 409 2807 365 
Q 2859 322 2928 322 
Q 3025 322 3147 375 
L 3191 266 
L 2334 -88 
L 2194 -88 
L 2194 519 
Q 1825 119 1631 15 
Q 1438 -88 1222 -88 
Q 981 -88 804 51 
Q 628 191 559 409 
Q 491 628 491 1028 
L 491 2306 
Q 491 2509 447 2587 
Q 403 2666 317 2708 
Q 231 2750 6 2747 
L 6 2863 
L 1009 2863 
L 1009 947 
Q 1009 547 1148 422 
Q 1288 297 1484 297 
Q 1619 297 1789 381 
Q 1959 466 2194 703 
L 2194 2325 
Q 2194 2569 2105 2655 
Q 2016 2741 1734 2747 
L 1734 2863 
L 2709 2863 
z
" id="TimesNewRomanPSMT-75" transform="scale(0.015625)"/>
      <path d="M 3256 -1381 
L -53 -1381 
L -53 -1119 
L 3256 -1119 
L 3256 -1381 
z
" id="TimesNewRomanPSMT-5f" transform="scale(0.015625)"/>
     </defs>
     <use xlink:href="#TimesNewRomanPSMT-41"/>
     <use x="72.216797" xlink:href="#TimesNewRomanPSMT-75"/>
     <use x="122.216797" xlink:href="#TimesNewRomanPSMT-74"/>
     <use x="150" xlink:href="#TimesNewRomanPSMT-6f"/>
     <use x="200" xlink:href="#TimesNewRomanPSMT-5f"/>
     <use x="250" xlink:href="#TimesNewRomanPSMT-30"/>
     <use x="300" xlink:href="#TimesNewRomanPSMT-30"/>
     <use x="350" xlink:href="#TimesNewRomanPSMT-31"/>
     <use x="400" xlink:href="#TimesNewRomanPSMT-32"/>
     <use x="450" xlink:href="#TimesNewRomanPSMT-31"/>
    </g>
    <!-- Vs: 306.10m/s -->
    <g transform="translate(80.076875 323.208)scale(0.14 -0.14)">
     <defs>
      <path d="M 903 2950 
Q 1047 2950 1148 2848 
Q 1250 2747 1250 2603 
Q 1250 2459 1148 2357 
Q 1047 2256 903 2256 
Q 759 2256 657 2357 
Q 556 2459 556 2603 
Q 556 2747 657 2848 
Q 759 2950 903 2950 
z
M 897 609 
Q 1044 609 1145 506 
Q 1247 403 1247 259 
Q 1247 116 1144 14 
Q 1041 -88 897 -88 
Q 753 -88 651 14 
Q 550 116 550 259 
Q 550 403 651 506 
Q 753 609 897 609 
z
" id="TimesNewRomanPSMT-3a" transform="scale(0.015625)"/>
      <path d="M 1794 4444 
L 259 -88 
L 9 -88 
L 1544 4444 
L 1794 4444 
z
" id="TimesNewRomanPSMT-2f" transform="scale(0.015625)"/>
     </defs>
     <use xlink:href="#TimesNewRomanPSMT-56"/>
     <use x="72.216797" xlink:href="#TimesNewRomanPSMT-73"/>
     <use x="111.132812" xlink:href="#TimesNewRomanPSMT-3a"/>
     <use x="138.916016" xlink:href="#TimesNewRomanPSMT-20"/>
     <use x="163.916016" xlink:href="#TimesNewRomanPSMT-33"/>
     <use x="213.916016" xlink:href="#TimesNewRomanPSMT-30"/>
     <use x="263.916016" xlink:href="#TimesNewRomanPSMT-36"/>
     <use x="313.916016" xlink:href="#TimesNewRomanPSMT-2e"/>
     <use x="338.916016" xlink:href="#TimesNewRomanPSMT-31"/>
     <use x="388.916016" xlink:href="#TimesNewRomanPSMT-30"/>
     <use x="438.916016" xlink:href="#TimesNewRomanPSMT-6d"/>
     <use x="516.699219" xlink:href="#TimesNewRomanPSMT-2f"/>
     <use x="544.482422" xlink:href="#TimesNewRomanPSMT-73"/>
    </g>
   </g>
  </g>
 </g>
 <defs>
  <clipPath id="p423e88dd2f">
   <rect height="332.64" width="334.8" x="63.336875" y="7.2"/>
  </clipPath>
 </defs>
</svg>
