<?xml version="1.0" encoding="utf-8" standalone="no"?>
<!DOCTYPE svg PUBLIC "-//W3C//DTD SVG 1.1//EN"
  "http://www.w3.org/Graphics/SVG/1.1/DTD/svg11.dtd">
<svg height="383.471875pt" version="1.1" viewBox="0 0 421.086875 383.471875" width="421.086875pt" xmlns="http://www.w3.org/2000/svg" xmlns:xlink="http://www.w3.org/1999/xlink">
 <metadata>
  <rdf:RDF xmlns:cc="http://creativecommons.org/ns#" xmlns:dc="http://purl.org/dc/elements/1.1/" xmlns:rdf="http://www.w3.org/1999/02/22-rdf-syntax-ns#">
   <cc:Work>
    <dc:type rdf:resource="http://purl.org/dc/dcmitype/StillImage"/>
    <dc:date>2021-06-11T14:39:37.309843</dc:date>
    <dc:format>image/svg+xml</dc:format>
    <dc:creator>
     <cc:Agent>
      <dc:title>Matplotlib v3.4.2, https://matplotlib.org/</dc:title>
     </cc:Agent>
    </dc:creator>
   </cc:Work>
  </rdf:RDF>
 </metadata>
 <defs>
  <style type="text/css">*{stroke-linecap:butt;stroke-linejoin:round;}</style>
 </defs>
 <g id="figure_1">
  <g id="patch_1">
   <path d="M 0 383.471875 
L 421.086875 383.471875 
L 421.086875 0 
L 0 0 
z
" style="fill:#ffffff;"/>
  </g>
  <g id="axes_1">
   <g id="patch_2">
    <path d="M 63.336875 339.84 
L 398.136875 339.84 
L 398.136875 7.2 
L 63.336875 7.2 
z
" style="fill:#ffffff;"/>
   </g>
   <g id="matplotlib.axis_1">
    <g id="xtick_1">
     <g id="line2d_1">
      <path clip-path="url(#p9548a48a7d)" d="M 93.773239 339.84 
L 93.773239 7.2 
" style="fill:none;stroke:#000000;stroke-dasharray:0.5,0.825;stroke-dashoffset:0;stroke-width:0.5;"/>
     </g>
     <g id="line2d_2">
      <defs>
       <path d="M 0 0 
L 0 3.5 
" id="mc029dd9f59" style="stroke:#000000;stroke-width:0.8;"/>
      </defs>
      <g>
       <use style="stroke:#000000;stroke-width:0.8;" x="93.773239" xlink:href="#mc029dd9f59" y="339.84"/>
      </g>
     </g>
     <g id="text_1">
      <!-- 0.000 -->
      <g transform="translate(78.023239 356.56125)scale(0.14 -0.14)">
       <defs>
        <path d="M 231 2094 
Q 231 2819 450 3342 
Q 669 3866 1031 4122 
Q 1313 4325 1613 4325 
Q 2100 4325 2488 3828 
Q 2972 3213 2972 2159 
Q 2972 1422 2759 906 
Q 2547 391 2217 158 
Q 1888 -75 1581 -75 
Q 975 -75 572 641 
Q 231 1244 231 2094 
z
M 844 2016 
Q 844 1141 1059 588 
Q 1238 122 1591 122 
Q 1759 122 1940 273 
Q 2122 425 2216 781 
Q 2359 1319 2359 2297 
Q 2359 3022 2209 3506 
Q 2097 3866 1919 4016 
Q 1791 4119 1609 4119 
Q 1397 4119 1231 3928 
Q 1006 3669 925 3112 
Q 844 2556 844 2016 
z
" id="TimesNewRomanPSMT-30" transform="scale(0.015625)"/>
        <path d="M 800 606 
Q 947 606 1047 504 
Q 1147 403 1147 259 
Q 1147 116 1045 14 
Q 944 -88 800 -88 
Q 656 -88 554 14 
Q 453 116 453 259 
Q 453 406 554 506 
Q 656 606 800 606 
z
" id="TimesNewRomanPSMT-2e" transform="scale(0.015625)"/>
       </defs>
       <use xlink:href="#TimesNewRomanPSMT-30"/>
       <use x="50" xlink:href="#TimesNewRomanPSMT-2e"/>
       <use x="75" xlink:href="#TimesNewRomanPSMT-30"/>
       <use x="125" xlink:href="#TimesNewRomanPSMT-30"/>
       <use x="175" xlink:href="#TimesNewRomanPSMT-30"/>
      </g>
     </g>
    </g>
    <g id="xtick_2">
     <g id="line2d_3">
      <path clip-path="url(#p9548a48a7d)" d="M 154.645966 339.84 
L 154.645966 7.2 
" style="fill:none;stroke:#000000;stroke-dasharray:0.5,0.825;stroke-dashoffset:0;stroke-width:0.5;"/>
     </g>
     <g id="line2d_4">
      <g>
       <use style="stroke:#000000;stroke-width:0.8;" x="154.645966" xlink:href="#mc029dd9f59" y="339.84"/>
      </g>
     </g>
     <g id="text_2">
      <!-- 0.001 -->
      <g transform="translate(138.895966 356.56125)scale(0.14 -0.14)">
       <defs>
        <path d="M 750 3822 
L 1781 4325 
L 1884 4325 
L 1884 747 
Q 1884 391 1914 303 
Q 1944 216 2037 169 
Q 2131 122 2419 116 
L 2419 0 
L 825 0 
L 825 116 
Q 1125 122 1212 167 
Q 1300 213 1334 289 
Q 1369 366 1369 747 
L 1369 3034 
Q 1369 3497 1338 3628 
Q 1316 3728 1258 3775 
Q 1200 3822 1119 3822 
Q 1003 3822 797 3725 
L 750 3822 
z
" id="TimesNewRomanPSMT-31" transform="scale(0.015625)"/>
       </defs>
       <use xlink:href="#TimesNewRomanPSMT-30"/>
       <use x="50" xlink:href="#TimesNewRomanPSMT-2e"/>
       <use x="75" xlink:href="#TimesNewRomanPSMT-30"/>
       <use x="125" xlink:href="#TimesNewRomanPSMT-30"/>
       <use x="175" xlink:href="#TimesNewRomanPSMT-31"/>
      </g>
     </g>
    </g>
    <g id="xtick_3">
     <g id="line2d_5">
      <path clip-path="url(#p9548a48a7d)" d="M 215.518693 339.84 
L 215.518693 7.2 
" style="fill:none;stroke:#000000;stroke-dasharray:0.5,0.825;stroke-dashoffset:0;stroke-width:0.5;"/>
     </g>
     <g id="line2d_6">
      <g>
       <use style="stroke:#000000;stroke-width:0.8;" x="215.518693" xlink:href="#mc029dd9f59" y="339.84"/>
      </g>
     </g>
     <g id="text_3">
      <!-- 0.002 -->
      <g transform="translate(199.768693 356.56125)scale(0.14 -0.14)">
       <defs>
        <path d="M 2934 816 
L 2638 0 
L 138 0 
L 138 116 
Q 1241 1122 1691 1759 
Q 2141 2397 2141 2925 
Q 2141 3328 1894 3587 
Q 1647 3847 1303 3847 
Q 991 3847 742 3664 
Q 494 3481 375 3128 
L 259 3128 
Q 338 3706 661 4015 
Q 984 4325 1469 4325 
Q 1984 4325 2329 3994 
Q 2675 3663 2675 3213 
Q 2675 2891 2525 2569 
Q 2294 2063 1775 1497 
Q 997 647 803 472 
L 1909 472 
Q 2247 472 2383 497 
Q 2519 522 2628 598 
Q 2738 675 2819 816 
L 2934 816 
z
" id="TimesNewRomanPSMT-32" transform="scale(0.015625)"/>
       </defs>
       <use xlink:href="#TimesNewRomanPSMT-30"/>
       <use x="50" xlink:href="#TimesNewRomanPSMT-2e"/>
       <use x="75" xlink:href="#TimesNewRomanPSMT-30"/>
       <use x="125" xlink:href="#TimesNewRomanPSMT-30"/>
       <use x="175" xlink:href="#TimesNewRomanPSMT-32"/>
      </g>
     </g>
    </g>
    <g id="xtick_4">
     <g id="line2d_7">
      <path clip-path="url(#p9548a48a7d)" d="M 276.39142 339.84 
L 276.39142 7.2 
" style="fill:none;stroke:#000000;stroke-dasharray:0.5,0.825;stroke-dashoffset:0;stroke-width:0.5;"/>
     </g>
     <g id="line2d_8">
      <g>
       <use style="stroke:#000000;stroke-width:0.8;" x="276.39142" xlink:href="#mc029dd9f59" y="339.84"/>
      </g>
     </g>
     <g id="text_4">
      <!-- 0.003 -->
      <g transform="translate(260.64142 356.56125)scale(0.14 -0.14)">
       <defs>
        <path d="M 325 3431 
Q 506 3859 782 4092 
Q 1059 4325 1472 4325 
Q 1981 4325 2253 3994 
Q 2459 3747 2459 3466 
Q 2459 3003 1878 2509 
Q 2269 2356 2469 2072 
Q 2669 1788 2669 1403 
Q 2669 853 2319 450 
Q 1863 -75 997 -75 
Q 569 -75 414 31 
Q 259 138 259 259 
Q 259 350 332 419 
Q 406 488 509 488 
Q 588 488 669 463 
Q 722 447 909 348 
Q 1097 250 1169 231 
Q 1284 197 1416 197 
Q 1734 197 1970 444 
Q 2206 691 2206 1028 
Q 2206 1275 2097 1509 
Q 2016 1684 1919 1775 
Q 1784 1900 1550 2001 
Q 1316 2103 1072 2103 
L 972 2103 
L 972 2197 
Q 1219 2228 1467 2375 
Q 1716 2522 1828 2728 
Q 1941 2934 1941 3181 
Q 1941 3503 1739 3701 
Q 1538 3900 1238 3900 
Q 753 3900 428 3381 
L 325 3431 
z
" id="TimesNewRomanPSMT-33" transform="scale(0.015625)"/>
       </defs>
       <use xlink:href="#TimesNewRomanPSMT-30"/>
       <use x="50" xlink:href="#TimesNewRomanPSMT-2e"/>
       <use x="75" xlink:href="#TimesNewRomanPSMT-30"/>
       <use x="125" xlink:href="#TimesNewRomanPSMT-30"/>
       <use x="175" xlink:href="#TimesNewRomanPSMT-33"/>
      </g>
     </g>
    </g>
    <g id="xtick_5">
     <g id="line2d_9">
      <path clip-path="url(#p9548a48a7d)" d="M 337.264148 339.84 
L 337.264148 7.2 
" style="fill:none;stroke:#000000;stroke-dasharray:0.5,0.825;stroke-dashoffset:0;stroke-width:0.5;"/>
     </g>
     <g id="line2d_10">
      <g>
       <use style="stroke:#000000;stroke-width:0.8;" x="337.264148" xlink:href="#mc029dd9f59" y="339.84"/>
      </g>
     </g>
     <g id="text_5">
      <!-- 0.004 -->
      <g transform="translate(321.514148 356.56125)scale(0.14 -0.14)">
       <defs>
        <path d="M 2978 1563 
L 2978 1119 
L 2409 1119 
L 2409 0 
L 1894 0 
L 1894 1119 
L 100 1119 
L 100 1519 
L 2066 4325 
L 2409 4325 
L 2409 1563 
L 2978 1563 
z
M 1894 1563 
L 1894 3666 
L 406 1563 
L 1894 1563 
z
" id="TimesNewRomanPSMT-34" transform="scale(0.015625)"/>
       </defs>
       <use xlink:href="#TimesNewRomanPSMT-30"/>
       <use x="50" xlink:href="#TimesNewRomanPSMT-2e"/>
       <use x="75" xlink:href="#TimesNewRomanPSMT-30"/>
       <use x="125" xlink:href="#TimesNewRomanPSMT-30"/>
       <use x="175" xlink:href="#TimesNewRomanPSMT-34"/>
      </g>
     </g>
    </g>
    <g id="xtick_6">
     <g id="line2d_11">
      <path clip-path="url(#p9548a48a7d)" d="M 398.136875 339.84 
L 398.136875 7.2 
" style="fill:none;stroke:#000000;stroke-dasharray:0.5,0.825;stroke-dashoffset:0;stroke-width:0.5;"/>
     </g>
     <g id="line2d_12">
      <g>
       <use style="stroke:#000000;stroke-width:0.8;" x="398.136875" xlink:href="#mc029dd9f59" y="339.84"/>
      </g>
     </g>
     <g id="text_6">
      <!-- 0.005 -->
      <g transform="translate(382.386875 356.56125)scale(0.14 -0.14)">
       <defs>
        <path d="M 2778 4238 
L 2534 3706 
L 1259 3706 
L 981 3138 
Q 1809 3016 2294 2522 
Q 2709 2097 2709 1522 
Q 2709 1188 2573 903 
Q 2438 619 2231 419 
Q 2025 219 1772 97 
Q 1413 -75 1034 -75 
Q 653 -75 479 54 
Q 306 184 306 341 
Q 306 428 378 495 
Q 450 563 559 563 
Q 641 563 702 538 
Q 763 513 909 409 
Q 1144 247 1384 247 
Q 1750 247 2026 523 
Q 2303 800 2303 1197 
Q 2303 1581 2056 1914 
Q 1809 2247 1375 2428 
Q 1034 2569 447 2591 
L 1259 4238 
L 2778 4238 
z
" id="TimesNewRomanPSMT-35" transform="scale(0.015625)"/>
       </defs>
       <use xlink:href="#TimesNewRomanPSMT-30"/>
       <use x="50" xlink:href="#TimesNewRomanPSMT-2e"/>
       <use x="75" xlink:href="#TimesNewRomanPSMT-30"/>
       <use x="125" xlink:href="#TimesNewRomanPSMT-30"/>
       <use x="175" xlink:href="#TimesNewRomanPSMT-35"/>
      </g>
     </g>
    </g>
    <g id="text_7">
     <!-- Time (sec) -->
     <g transform="translate(200.858906 373.277188)scale(0.14 -0.14)">
      <defs>
       <path d="M 3703 4238 
L 3750 3244 
L 3631 3244 
Q 3597 3506 3538 3619 
Q 3441 3800 3280 3886 
Q 3119 3972 2856 3972 
L 2259 3972 
L 2259 734 
Q 2259 344 2344 247 
Q 2463 116 2709 116 
L 2856 116 
L 2856 0 
L 1059 0 
L 1059 116 
L 1209 116 
Q 1478 116 1591 278 
Q 1659 378 1659 734 
L 1659 3972 
L 1150 3972 
Q 853 3972 728 3928 
Q 566 3869 450 3700 
Q 334 3531 313 3244 
L 194 3244 
L 244 4238 
L 3703 4238 
z
" id="TimesNewRomanPSMT-54" transform="scale(0.015625)"/>
       <path d="M 928 4444 
Q 1059 4444 1151 4351 
Q 1244 4259 1244 4128 
Q 1244 3997 1151 3903 
Q 1059 3809 928 3809 
Q 797 3809 703 3903 
Q 609 3997 609 4128 
Q 609 4259 701 4351 
Q 794 4444 928 4444 
z
M 1188 2947 
L 1188 647 
Q 1188 378 1227 289 
Q 1266 200 1342 156 
Q 1419 113 1622 113 
L 1622 0 
L 231 0 
L 231 113 
Q 441 113 512 153 
Q 584 194 626 287 
Q 669 381 669 647 
L 669 1750 
Q 669 2216 641 2353 
Q 619 2453 572 2492 
Q 525 2531 444 2531 
Q 356 2531 231 2484 
L 188 2597 
L 1050 2947 
L 1188 2947 
z
" id="TimesNewRomanPSMT-69" transform="scale(0.015625)"/>
       <path d="M 1050 2338 
Q 1363 2650 1419 2697 
Q 1559 2816 1721 2881 
Q 1884 2947 2044 2947 
Q 2313 2947 2506 2790 
Q 2700 2634 2766 2338 
Q 3088 2713 3309 2830 
Q 3531 2947 3766 2947 
Q 3994 2947 4170 2830 
Q 4347 2713 4450 2447 
Q 4519 2266 4519 1878 
L 4519 647 
Q 4519 378 4559 278 
Q 4591 209 4675 161 
Q 4759 113 4950 113 
L 4950 0 
L 3538 0 
L 3538 113 
L 3597 113 
Q 3781 113 3884 184 
Q 3956 234 3988 344 
Q 4000 397 4000 647 
L 4000 1878 
Q 4000 2228 3916 2372 
Q 3794 2572 3525 2572 
Q 3359 2572 3192 2489 
Q 3025 2406 2788 2181 
L 2781 2147 
L 2788 2013 
L 2788 647 
Q 2788 353 2820 281 
Q 2853 209 2943 161 
Q 3034 113 3253 113 
L 3253 0 
L 1806 0 
L 1806 113 
Q 2044 113 2133 169 
Q 2222 225 2256 338 
Q 2272 391 2272 647 
L 2272 1878 
Q 2272 2228 2169 2381 
Q 2031 2581 1784 2581 
Q 1616 2581 1450 2491 
Q 1191 2353 1050 2181 
L 1050 647 
Q 1050 366 1089 281 
Q 1128 197 1204 155 
Q 1281 113 1516 113 
L 1516 0 
L 100 0 
L 100 113 
Q 297 113 375 155 
Q 453 197 493 289 
Q 534 381 534 647 
L 534 1741 
Q 534 2213 506 2350 
Q 484 2453 437 2492 
Q 391 2531 309 2531 
Q 222 2531 100 2484 
L 53 2597 
L 916 2947 
L 1050 2947 
L 1050 2338 
z
" id="TimesNewRomanPSMT-6d" transform="scale(0.015625)"/>
       <path d="M 681 1784 
Q 678 1147 991 784 
Q 1303 422 1725 422 
Q 2006 422 2214 576 
Q 2422 731 2563 1106 
L 2659 1044 
Q 2594 616 2278 264 
Q 1963 -88 1488 -88 
Q 972 -88 605 314 
Q 238 716 238 1394 
Q 238 2128 614 2539 
Q 991 2950 1559 2950 
Q 2041 2950 2350 2633 
Q 2659 2316 2659 1784 
L 681 1784 
z
M 681 1966 
L 2006 1966 
Q 1991 2241 1941 2353 
Q 1863 2528 1708 2628 
Q 1553 2728 1384 2728 
Q 1125 2728 920 2526 
Q 716 2325 681 1966 
z
" id="TimesNewRomanPSMT-65" transform="scale(0.015625)"/>
       <path id="TimesNewRomanPSMT-20" transform="scale(0.015625)"/>
       <path d="M 1988 -1253 
L 1988 -1369 
Q 1516 -1131 1200 -813 
Q 750 -359 506 256 
Q 263 872 263 1534 
Q 263 2503 741 3301 
Q 1219 4100 1988 4444 
L 1988 4313 
Q 1603 4100 1356 3731 
Q 1109 3363 987 2797 
Q 866 2231 866 1616 
Q 866 947 969 400 
Q 1050 -31 1165 -292 
Q 1281 -553 1476 -793 
Q 1672 -1034 1988 -1253 
z
" id="TimesNewRomanPSMT-28" transform="scale(0.015625)"/>
       <path d="M 2050 2947 
L 2050 1972 
L 1947 1972 
Q 1828 2431 1642 2597 
Q 1456 2763 1169 2763 
Q 950 2763 815 2647 
Q 681 2531 681 2391 
Q 681 2216 781 2091 
Q 878 1963 1175 1819 
L 1631 1597 
Q 2266 1288 2266 781 
Q 2266 391 1970 151 
Q 1675 -88 1309 -88 
Q 1047 -88 709 6 
Q 606 38 541 38 
Q 469 38 428 -44 
L 325 -44 
L 325 978 
L 428 978 
Q 516 541 762 319 
Q 1009 97 1316 97 
Q 1531 97 1667 223 
Q 1803 350 1803 528 
Q 1803 744 1651 891 
Q 1500 1038 1047 1263 
Q 594 1488 453 1669 
Q 313 1847 313 2119 
Q 313 2472 555 2709 
Q 797 2947 1181 2947 
Q 1350 2947 1591 2875 
Q 1750 2828 1803 2828 
Q 1853 2828 1881 2850 
Q 1909 2872 1947 2947 
L 2050 2947 
z
" id="TimesNewRomanPSMT-73" transform="scale(0.015625)"/>
       <path d="M 2631 1088 
Q 2516 522 2178 217 
Q 1841 -88 1431 -88 
Q 944 -88 581 321 
Q 219 731 219 1428 
Q 219 2103 620 2525 
Q 1022 2947 1584 2947 
Q 2006 2947 2278 2723 
Q 2550 2500 2550 2259 
Q 2550 2141 2473 2067 
Q 2397 1994 2259 1994 
Q 2075 1994 1981 2113 
Q 1928 2178 1911 2362 
Q 1894 2547 1784 2644 
Q 1675 2738 1481 2738 
Q 1169 2738 978 2506 
Q 725 2200 725 1697 
Q 725 1184 976 792 
Q 1228 400 1656 400 
Q 1963 400 2206 609 
Q 2378 753 2541 1131 
L 2631 1088 
z
" id="TimesNewRomanPSMT-63" transform="scale(0.015625)"/>
       <path d="M 144 4313 
L 144 4444 
Q 619 4209 934 3891 
Q 1381 3434 1625 2820 
Q 1869 2206 1869 1541 
Q 1869 572 1392 -226 
Q 916 -1025 144 -1369 
L 144 -1253 
Q 528 -1038 776 -670 
Q 1025 -303 1145 264 
Q 1266 831 1266 1447 
Q 1266 2113 1163 2663 
Q 1084 3094 967 3353 
Q 850 3613 656 3853 
Q 463 4094 144 4313 
z
" id="TimesNewRomanPSMT-29" transform="scale(0.015625)"/>
      </defs>
      <use xlink:href="#TimesNewRomanPSMT-54"/>
      <use x="57.583984" xlink:href="#TimesNewRomanPSMT-69"/>
      <use x="85.367188" xlink:href="#TimesNewRomanPSMT-6d"/>
      <use x="163.150391" xlink:href="#TimesNewRomanPSMT-65"/>
      <use x="207.535156" xlink:href="#TimesNewRomanPSMT-20"/>
      <use x="232.535156" xlink:href="#TimesNewRomanPSMT-28"/>
      <use x="265.835938" xlink:href="#TimesNewRomanPSMT-73"/>
      <use x="304.751953" xlink:href="#TimesNewRomanPSMT-65"/>
      <use x="349.136719" xlink:href="#TimesNewRomanPSMT-63"/>
      <use x="393.521484" xlink:href="#TimesNewRomanPSMT-29"/>
     </g>
    </g>
   </g>
   <g id="matplotlib.axis_2">
    <g id="ytick_1">
     <g id="line2d_13">
      <path clip-path="url(#p9548a48a7d)" d="M 63.336875 282.66019 
L 398.136875 282.66019 
" style="fill:none;stroke:#000000;stroke-dasharray:0.5,0.825;stroke-dashoffset:0;stroke-width:0.5;"/>
     </g>
     <g id="line2d_14">
      <defs>
       <path d="M 0 0 
L -3.5 0 
" id="m2c63d895c1" style="stroke:#000000;stroke-width:0.8;"/>
      </defs>
      <g>
       <use style="stroke:#000000;stroke-width:0.8;" x="63.336875" xlink:href="#m2c63d895c1" y="282.66019"/>
      </g>
     </g>
     <g id="text_8">
      <!-- −0.04 -->
      <g transform="translate(23.942188 287.520815)scale(0.14 -0.14)">
       <defs>
        <path d="M 3484 2000 
L 116 2000 
L 116 2256 
L 3484 2256 
L 3484 2000 
z
" id="TimesNewRomanPSMT-2212" transform="scale(0.015625)"/>
       </defs>
       <use xlink:href="#TimesNewRomanPSMT-2212"/>
       <use x="56.396484" xlink:href="#TimesNewRomanPSMT-30"/>
       <use x="106.396484" xlink:href="#TimesNewRomanPSMT-2e"/>
       <use x="131.396484" xlink:href="#TimesNewRomanPSMT-30"/>
       <use x="181.396484" xlink:href="#TimesNewRomanPSMT-34"/>
      </g>
     </g>
    </g>
    <g id="ytick_2">
     <g id="line2d_15">
      <path clip-path="url(#p9548a48a7d)" d="M 63.336875 218.242669 
L 398.136875 218.242669 
" style="fill:none;stroke:#000000;stroke-dasharray:0.5,0.825;stroke-dashoffset:0;stroke-width:0.5;"/>
     </g>
     <g id="line2d_16">
      <g>
       <use style="stroke:#000000;stroke-width:0.8;" x="63.336875" xlink:href="#m2c63d895c1" y="218.242669"/>
      </g>
     </g>
     <g id="text_9">
      <!-- −0.02 -->
      <g transform="translate(23.942188 223.103294)scale(0.14 -0.14)">
       <use xlink:href="#TimesNewRomanPSMT-2212"/>
       <use x="56.396484" xlink:href="#TimesNewRomanPSMT-30"/>
       <use x="106.396484" xlink:href="#TimesNewRomanPSMT-2e"/>
       <use x="131.396484" xlink:href="#TimesNewRomanPSMT-30"/>
       <use x="181.396484" xlink:href="#TimesNewRomanPSMT-32"/>
      </g>
     </g>
    </g>
    <g id="ytick_3">
     <g id="line2d_17">
      <path clip-path="url(#p9548a48a7d)" d="M 63.336875 153.825148 
L 398.136875 153.825148 
" style="fill:none;stroke:#000000;stroke-dasharray:0.5,0.825;stroke-dashoffset:0;stroke-width:0.5;"/>
     </g>
     <g id="line2d_18">
      <g>
       <use style="stroke:#000000;stroke-width:0.8;" x="63.336875" xlink:href="#m2c63d895c1" y="153.825148"/>
      </g>
     </g>
     <g id="text_10">
      <!-- 0.00 -->
      <g transform="translate(31.836875 158.685773)scale(0.14 -0.14)">
       <use xlink:href="#TimesNewRomanPSMT-30"/>
       <use x="50" xlink:href="#TimesNewRomanPSMT-2e"/>
       <use x="75" xlink:href="#TimesNewRomanPSMT-30"/>
       <use x="125" xlink:href="#TimesNewRomanPSMT-30"/>
      </g>
     </g>
    </g>
    <g id="ytick_4">
     <g id="line2d_19">
      <path clip-path="url(#p9548a48a7d)" d="M 63.336875 89.407627 
L 398.136875 89.407627 
" style="fill:none;stroke:#000000;stroke-dasharray:0.5,0.825;stroke-dashoffset:0;stroke-width:0.5;"/>
     </g>
     <g id="line2d_20">
      <g>
       <use style="stroke:#000000;stroke-width:0.8;" x="63.336875" xlink:href="#m2c63d895c1" y="89.407627"/>
      </g>
     </g>
     <g id="text_11">
      <!-- 0.02 -->
      <g transform="translate(31.836875 94.268252)scale(0.14 -0.14)">
       <use xlink:href="#TimesNewRomanPSMT-30"/>
       <use x="50" xlink:href="#TimesNewRomanPSMT-2e"/>
       <use x="75" xlink:href="#TimesNewRomanPSMT-30"/>
       <use x="125" xlink:href="#TimesNewRomanPSMT-32"/>
      </g>
     </g>
    </g>
    <g id="ytick_5">
     <g id="line2d_21">
      <path clip-path="url(#p9548a48a7d)" d="M 63.336875 24.990106 
L 398.136875 24.990106 
" style="fill:none;stroke:#000000;stroke-dasharray:0.5,0.825;stroke-dashoffset:0;stroke-width:0.5;"/>
     </g>
     <g id="line2d_22">
      <g>
       <use style="stroke:#000000;stroke-width:0.8;" x="63.336875" xlink:href="#m2c63d895c1" y="24.990106"/>
      </g>
     </g>
     <g id="text_12">
      <!-- 0.04 -->
      <g transform="translate(31.836875 29.850731)scale(0.14 -0.14)">
       <use xlink:href="#TimesNewRomanPSMT-30"/>
       <use x="50" xlink:href="#TimesNewRomanPSMT-2e"/>
       <use x="75" xlink:href="#TimesNewRomanPSMT-30"/>
       <use x="125" xlink:href="#TimesNewRomanPSMT-34"/>
      </g>
     </g>
    </g>
    <g id="text_13">
     <!-- Volatage (V) -->
     <g transform="translate(16.92125 209.352344)rotate(-90)scale(0.14 -0.14)">
      <defs>
       <path d="M 4544 4238 
L 4544 4122 
Q 4319 4081 4203 3978 
Q 4038 3825 3909 3509 
L 2431 -97 
L 2316 -97 
L 728 3556 
Q 606 3838 556 3900 
Q 478 3997 364 4051 
Q 250 4106 56 4122 
L 56 4238 
L 1788 4238 
L 1788 4122 
Q 1494 4094 1406 4022 
Q 1319 3950 1319 3838 
Q 1319 3681 1463 3350 
L 2541 866 
L 3541 3319 
Q 3688 3681 3688 3822 
Q 3688 3913 3597 3995 
Q 3506 4078 3291 4113 
Q 3275 4116 3238 4122 
L 3238 4238 
L 4544 4238 
z
" id="TimesNewRomanPSMT-56" transform="scale(0.015625)"/>
       <path d="M 1600 2947 
Q 2250 2947 2644 2453 
Q 2978 2031 2978 1484 
Q 2978 1100 2793 706 
Q 2609 313 2286 112 
Q 1963 -88 1566 -88 
Q 919 -88 538 428 
Q 216 863 216 1403 
Q 216 1797 411 2186 
Q 606 2575 925 2761 
Q 1244 2947 1600 2947 
z
M 1503 2744 
Q 1338 2744 1170 2645 
Q 1003 2547 900 2300 
Q 797 2053 797 1666 
Q 797 1041 1045 587 
Q 1294 134 1700 134 
Q 2003 134 2200 384 
Q 2397 634 2397 1244 
Q 2397 2006 2069 2444 
Q 1847 2744 1503 2744 
z
" id="TimesNewRomanPSMT-6f" transform="scale(0.015625)"/>
       <path d="M 1184 4444 
L 1184 647 
Q 1184 378 1223 290 
Q 1263 203 1344 158 
Q 1425 113 1647 113 
L 1647 0 
L 244 0 
L 244 113 
Q 441 113 512 153 
Q 584 194 625 287 
Q 666 381 666 647 
L 666 3247 
Q 666 3731 644 3842 
Q 622 3953 573 3993 
Q 525 4034 450 4034 
Q 369 4034 244 3984 
L 191 4094 
L 1044 4444 
L 1184 4444 
z
" id="TimesNewRomanPSMT-6c" transform="scale(0.015625)"/>
       <path d="M 1822 413 
Q 1381 72 1269 19 
Q 1100 -59 909 -59 
Q 613 -59 420 144 
Q 228 347 228 678 
Q 228 888 322 1041 
Q 450 1253 767 1440 
Q 1084 1628 1822 1897 
L 1822 2009 
Q 1822 2438 1686 2597 
Q 1550 2756 1291 2756 
Q 1094 2756 978 2650 
Q 859 2544 859 2406 
L 866 2225 
Q 866 2081 792 2003 
Q 719 1925 600 1925 
Q 484 1925 411 2006 
Q 338 2088 338 2228 
Q 338 2497 613 2722 
Q 888 2947 1384 2947 
Q 1766 2947 2009 2819 
Q 2194 2722 2281 2516 
Q 2338 2381 2338 1966 
L 2338 994 
Q 2338 584 2353 492 
Q 2369 400 2405 369 
Q 2441 338 2488 338 
Q 2538 338 2575 359 
Q 2641 400 2828 588 
L 2828 413 
Q 2478 -56 2159 -56 
Q 2006 -56 1915 50 
Q 1825 156 1822 413 
z
M 1822 616 
L 1822 1706 
Q 1350 1519 1213 1441 
Q 966 1303 859 1153 
Q 753 1003 753 825 
Q 753 600 887 451 
Q 1022 303 1197 303 
Q 1434 303 1822 616 
z
" id="TimesNewRomanPSMT-61" transform="scale(0.015625)"/>
       <path d="M 1031 3803 
L 1031 2863 
L 1700 2863 
L 1700 2644 
L 1031 2644 
L 1031 788 
Q 1031 509 1111 412 
Q 1191 316 1316 316 
Q 1419 316 1516 380 
Q 1613 444 1666 569 
L 1788 569 
Q 1678 263 1478 108 
Q 1278 -47 1066 -47 
Q 922 -47 784 33 
Q 647 113 581 261 
Q 516 409 516 719 
L 516 2644 
L 63 2644 
L 63 2747 
Q 234 2816 414 2980 
Q 594 3144 734 3369 
Q 806 3488 934 3803 
L 1031 3803 
z
" id="TimesNewRomanPSMT-74" transform="scale(0.015625)"/>
       <path d="M 966 1044 
Q 703 1172 562 1401 
Q 422 1631 422 1909 
Q 422 2334 742 2640 
Q 1063 2947 1563 2947 
Q 1972 2947 2272 2747 
L 2878 2747 
Q 3013 2747 3034 2739 
Q 3056 2731 3066 2713 
Q 3084 2684 3084 2613 
Q 3084 2531 3069 2500 
Q 3059 2484 3036 2475 
Q 3013 2466 2878 2466 
L 2506 2466 
Q 2681 2241 2681 1891 
Q 2681 1491 2375 1206 
Q 2069 922 1553 922 
Q 1341 922 1119 984 
Q 981 866 932 777 
Q 884 688 884 625 
Q 884 572 936 522 
Q 988 472 1138 450 
Q 1225 438 1575 428 
Q 2219 413 2409 384 
Q 2700 344 2873 169 
Q 3047 -6 3047 -263 
Q 3047 -616 2716 -925 
Q 2228 -1381 1444 -1381 
Q 841 -1381 425 -1109 
Q 191 -953 191 -784 
Q 191 -709 225 -634 
Q 278 -519 444 -313 
Q 466 -284 763 25 
Q 600 122 533 198 
Q 466 275 466 372 
Q 466 481 555 628 
Q 644 775 966 1044 
z
M 1509 2797 
Q 1278 2797 1122 2612 
Q 966 2428 966 2047 
Q 966 1553 1178 1281 
Q 1341 1075 1591 1075 
Q 1828 1075 1981 1253 
Q 2134 1431 2134 1813 
Q 2134 2309 1919 2591 
Q 1759 2797 1509 2797 
z
M 934 0 
Q 788 -159 713 -296 
Q 638 -434 638 -550 
Q 638 -700 819 -813 
Q 1131 -1006 1722 -1006 
Q 2284 -1006 2551 -807 
Q 2819 -609 2819 -384 
Q 2819 -222 2659 -153 
Q 2497 -84 2016 -72 
Q 1313 -53 934 0 
z
" id="TimesNewRomanPSMT-67" transform="scale(0.015625)"/>
      </defs>
      <use xlink:href="#TimesNewRomanPSMT-56"/>
      <use x="59.341797" xlink:href="#TimesNewRomanPSMT-6f"/>
      <use x="109.341797" xlink:href="#TimesNewRomanPSMT-6c"/>
      <use x="137.125" xlink:href="#TimesNewRomanPSMT-61"/>
      <use x="181.509766" xlink:href="#TimesNewRomanPSMT-74"/>
      <use x="209.292969" xlink:href="#TimesNewRomanPSMT-61"/>
      <use x="253.677734" xlink:href="#TimesNewRomanPSMT-67"/>
      <use x="303.677734" xlink:href="#TimesNewRomanPSMT-65"/>
      <use x="348.0625" xlink:href="#TimesNewRomanPSMT-20"/>
      <use x="373.0625" xlink:href="#TimesNewRomanPSMT-28"/>
      <use x="406.363281" xlink:href="#TimesNewRomanPSMT-56"/>
      <use x="478.580078" xlink:href="#TimesNewRomanPSMT-29"/>
     </g>
    </g>
   </g>
   <g id="LineCollection_1">
    <path clip-path="url(#p9548a48a7d)" d="M 78.555057 153.825148 
L 382.918693 153.825148 
" style="fill:none;stroke:#1f77b4;stroke-width:1.5;"/>
   </g>
   <g id="line2d_23">
    <path clip-path="url(#p9548a48a7d)" d="M 78.555057 153.731743 
L 78.707239 153.772004 
L 78.85942 153.731743 
L 81.385639 153.812265 
L 81.416075 153.852526 
L 81.476948 153.772004 
L 82.359602 153.852526 
L 82.511784 153.933047 
L 82.663966 153.852526 
L 82.816148 153.892787 
L 82.87702 153.852526 
L 82.907457 153.892787 
L 83.029202 153.933047 
L 83.090075 153.852526 
L 83.120511 153.892787 
L 83.181384 153.933047 
L 83.21182 153.892787 
L 83.30313 153.892787 
L 83.424875 153.933047 
L 83.607493 153.852526 
L 83.759675 153.933047 
L 83.88142 153.852526 
L 88.112075 153.933047 
L 88.264257 153.973309 
L 88.446875 153.892787 
L 88.599057 153.933047 
L 106.952184 154.013569 
L 106.98262 154.05383 
L 107.043493 153.973309 
L 107.773966 154.013569 
L 107.804402 154.094091 
L 107.895711 154.05383 
L 108.047893 154.013569 
L 109.447966 154.05383 
L 109.478402 154.134352 
L 109.569711 154.094091 
L 110.695857 154.174613 
L 110.726293 154.255135 
L 110.787166 154.134352 
L 110.817602 154.214874 
L 110.908911 154.214874 
L 111.00022 154.255135 
L 111.030657 154.174613 
L 111.09153 154.214874 
L 111.243711 154.255135 
L 111.365457 154.255135 
L 111.882875 154.335657 
L 112.00462 154.375918 
L 112.126366 154.375918 
L 112.552475 154.45644 
L 112.704657 154.496701 
L 112.826402 154.496701 
L 113.43513 154.536962 
L 113.556875 154.617484 
L 113.587311 154.536962 
L 113.648184 154.577223 
L 113.830802 154.657745 
L 113.891675 154.577223 
L 113.952548 154.657745 
L 114.043857 154.698006 
L 114.074293 154.617484 
L 114.135166 154.657745 
L 114.165602 154.738267 
L 114.256911 154.698006 
L 114.500402 154.738267 
L 114.622148 154.818788 
L 115.048257 154.89931 
L 115.200439 154.979832 
L 115.291748 154.979832 
L 115.413493 155.060354 
L 115.565675 155.020093 
L 115.809166 155.100615 
L 115.839602 155.181137 
L 115.900475 155.060354 
L 115.930911 155.140876 
L 116.174402 155.221398 
L 116.326584 155.261659 
L 116.722257 155.30192 
L 116.752693 155.382442 
L 116.813566 155.30192 
L 116.996184 155.342181 
L 117.11793 155.422703 
L 117.513602 155.503225 
L 117.69622 155.583747 
L 117.78753 155.543486 
L 117.817966 155.583747 
L 118.244075 155.664268 
L 118.396257 155.785051 
L 118.487566 155.704529 
L 118.518002 155.74479 
L 118.70062 155.825312 
L 118.944111 155.905834 
L 119.096293 155.986356 
L 119.187602 155.986356 
L 119.400657 156.107139 
L 119.552839 156.1474 
L 119.674584 156.308444 
L 119.70502 156.227922 
L 119.765893 156.348705 
L 120.009384 156.429226 
L 120.252875 156.59027 
L 120.37462 156.670792 
L 120.678984 156.952619 
L 120.70942 156.912358 
L 120.770293 156.99288 
L 122.079057 158.885144 
L 122.596475 160.012451 
L 122.626911 160.012451 
L 122.931275 160.81767 
L 123.05302 161.099497 
L 123.38782 161.985237 
L 124.026984 163.958024 
L 126.888002 175.714222 
L 127.314111 177.807791 
L 128.531566 183.726152 
L 128.653311 184.289803 
L 129.292475 187.108072 
L 130.875166 192.945909 
L 131.027348 193.308257 
L 131.270839 194.032954 
L 131.910002 195.52261 
L 131.940439 195.482349 
L 131.970875 195.56287 
L 132.396984 195.96548 
L 132.670911 196.046002 
L 132.792657 196.046002 
L 132.944839 196.005741 
L 133.09702 195.925219 
L 133.675311 194.999217 
L 134.344911 193.509562 
L 134.466657 193.187474 
L 135.075384 191.29521 
L 136.079784 186.947026 
L 136.718948 182.759888 
L 137.479857 177.002572 
L 138.54513 167.702292 
L 140.493057 145.961379 
L 145.849857 69.626617 
L 147.432548 50.140314 
L 148.102148 42.933607 
L 148.893493 35.646378 
L 149.471784 31.137145 
L 149.867457 28.399404 
L 150.232693 26.507136 
L 150.567493 24.97722 
L 151.145784 23.125219 
L 151.754511 22.481044 
L 151.967566 22.400522 
L 152.119748 22.360267 
L 152.302366 22.440776 
L 152.393675 22.440776 
L 152.545857 22.642091 
L 152.94153 23.326521 
L 153.306766 24.333044 
L 153.61113 25.379835 
L 154.18942 28.479925 
L 154.341602 29.405927 
L 154.85902 33.230714 
L 155.224257 36.330808 
L 156.86782 54.891112 
L 157.993966 71.237055 
L 162.072439 154.295396 
L 166.91182 260.664831 
L 168.494511 288.002016 
L 169.651093 303.220649 
L 171.538148 319.687388 
L 171.994693 322.022513 
L 172.572984 323.874523 
L 172.60342 323.874523 
L 172.786039 324.357651 
L 172.846911 324.438173 
L 173.151275 324.72 
L 174.125239 323.31086 
L 175.61662 316.94963 
L 176.62102 309.622147 
L 178.568948 290.659236 
L 181.795202 246.533237 
L 184.41273 203.413756 
L 185.721493 182.759888 
L 186.299784 174.063522 
L 187.730293 153.007046 
L 188.308584 144.834072 
L 189.373857 130.944045 
L 191.230475 107.753737 
L 191.77833 101.67433 
L 193.939311 79.812637 
L 194.061057 78.967154 
L 194.761093 73.451407 
L 195.582875 67.291479 
L 197.256875 54.891112 
L 198.017784 50.583184 
L 198.078657 50.381883 
L 200.452693 41.363433 
L 200.757057 40.799783 
L 201.304911 39.632212 
L 201.548402 39.149074 
L 201.73102 38.947769 
L 201.944075 38.826993 
L 202.126693 38.907515 
L 202.218002 38.907515 
L 202.40062 38.988037 
L 202.431057 38.988037 
L 202.461493 38.867247 
L 202.552802 38.947769 
L 202.796293 38.786726 
L 202.948475 38.826993 
L 203.039784 38.786726 
L 203.07022 38.826993 
L 203.49633 39.229596 
L 203.587639 39.310118 
L 203.83113 39.471165 
L 204.105057 39.55169 
L 204.287675 39.632212 
L 204.378984 39.712737 
L 204.865966 40.719258 
L 205.200766 41.323165 
L 205.566002 42.007608 
L 205.718184 42.369957 
L 207.574802 47.563616 
L 208.000911 48.892231 
L 208.031348 48.892231 
L 209.85753 56.582072 
L 210.344511 59.118506 
L 211.257602 63.184865 
L 211.805457 66.083653 
L 212.840293 72.082535 
L 213.601202 77.276198 
L 213.87513 79.289242 
L 214.331675 83.033514 
L 215.336075 91.890923 
L 219.718911 139.439105 
L 222.336439 171.889432 
L 223.736511 190.651034 
L 224.375675 198.582442 
L 225.958366 218.712917 
L 226.871457 230.388593 
L 229.488984 260.262212 
L 230.341202 267.911802 
L 230.85862 271.696325 
L 231.86302 277.614681 
L 232.380439 279.788776 
L 233.415275 283.452529 
L 233.750075 284.056437 
L 233.841384 284.136959 
L 234.054439 284.418785 
L 234.419675 284.740876 
L 234.571857 284.700609 
L 234.754475 284.459053 
L 234.784911 284.459053 
L 234.997966 284.056437 
L 235.363202 283.372007 
L 235.63713 282.848611 
L 236.002366 281.600519 
L 236.489348 279.225123 
L 237.372002 273.991209 
L 239.015566 260.06091 
L 241.359166 234.132864 
L 246.25942 167.863337 
L 248.085602 140.606673 
L 250.824875 105.821212 
L 251.859711 96.037801 
L 252.438002 91.488313 
L 253.138039 86.777779 
L 254.62942 79.450289 
L 255.420766 76.752808 
L 256.607784 73.894281 
L 256.699093 73.813756 
L 256.912148 73.69297 
L 257.155639 73.612454 
L 257.338257 73.531929 
L 257.794802 73.612454 
L 258.220911 74.055322 
L 258.251348 74.015057 
L 258.31222 74.095582 
L 258.555711 74.25663 
L 258.920948 74.337145 
L 259.103566 74.538453 
L 259.620984 75.061842 
L 259.65142 75.021588 
L 259.681857 75.102103 
L 259.955784 75.343675 
L 260.047093 75.343675 
L 260.868875 76.591761 
L 261.264548 77.39698 
L 261.294984 77.39698 
L 261.568911 78.081417 
L 261.66022 78.322982 
L 262.42113 80.899683 
L 262.695057 81.906207 
L 263.273348 84.402386 
L 263.882075 87.260913 
L 265.830002 98.131367 
L 267.504002 109.927829 
L 268.11273 114.557838 
L 270.304148 131.105088 
L 270.578075 133.077875 
L 272.739057 149.38356 
L 273.104293 151.799217 
L 273.46953 154.214874 
L 273.743457 155.74479 
L 274.321748 158.844883 
L 275.234839 163.112544 
L 277.000148 169.67508 
L 277.669748 171.728388 
L 278.095857 173.016738 
L 278.248039 173.379087 
L 279.191566 175.593439 
L 279.800293 176.559701 
L 280.07422 177.002572 
L 280.652511 177.646747 
L 280.682948 177.606486 
L 280.713384 177.727269 
L 280.74382 177.687008 
L 280.956875 177.968835 
L 280.987311 177.928574 
L 281.048184 178.009096 
L 281.261239 178.290923 
L 281.291675 178.290923 
L 281.443857 178.492227 
L 281.535166 178.572749 
L 281.74822 178.733794 
L 281.869966 178.733794 
L 282.022148 178.854576 
L 282.296075 178.935097 
L 282.41782 179.015619 
L 282.661311 179.096142 
L 282.783057 179.136403 
L 282.935239 178.975359 
L 282.965675 179.096142 
L 283.056984 179.015619 
L 283.239602 178.894837 
L 283.270039 178.935097 
L 283.330911 178.854576 
L 283.574402 178.693532 
L 283.75702 178.61301 
L 284.122257 178.290923 
L 284.213566 178.210401 
L 284.42662 177.928574 
L 286.131057 175.553179 
L 286.344111 175.110308 
L 286.404984 175.029785 
L 286.648475 174.546655 
L 287.044148 173.781697 
L 287.378948 173.177781 
L 287.835493 172.25178 
L 289.266002 170.520559 
L 289.661675 170.440037 
L 289.78342 170.440037 
L 290.45302 170.520559 
L 291.670475 172.25178 
L 292.066148 173.379087 
L 293.22273 176.720745 
L 293.496657 177.646747 
L 293.55753 177.727269 
L 294.014075 179.096142 
L 294.105384 179.297446 
L 294.379311 180.223449 
L 294.957602 182.03519 
L 295.444584 183.524847 
L 297.118584 187.671723 
L 297.362075 188.154856 
L 297.727311 188.839292 
L 298.336039 189.483467 
L 298.396911 189.563989 
L 298.57953 189.805555 
L 298.609966 189.805555 
L 298.792584 190.087381 
L 299.066511 190.288686 
L 299.644802 190.369208 
L 299.91873 190.610774 
L 299.949166 190.570513 
L 299.979602 190.610774 
L 300.101348 190.731556 
L 300.16222 190.610774 
L 300.223093 190.651034 
L 300.283966 190.691295 
L 300.314402 190.610774 
L 300.557893 190.530252 
L 300.862257 190.248425 
L 300.984002 190.288686 
L 301.075311 190.208164 
L 301.105748 190.248425 
L 301.197057 190.288686 
L 301.349239 190.167903 
L 301.470984 190.087381 
L 302.444948 188.960075 
L 302.536257 188.919814 
L 302.688439 188.799031 
L 304.423311 186.343113 
L 306.158184 181.471537 
L 307.588693 175.392134 
L 307.86262 174.063522 
L 308.349602 171.728388 
L 308.988766 168.225685 
L 309.354002 166.33342 
L 310.236657 161.099497 
L 312.762875 143.706766 
L 313.188984 140.727456 
L 315.867384 123.737334 
L 317.054402 118.02028 
L 318.606657 112.303225 
L 319.124075 110.652526 
L 319.824111 108.31739 
L 321.163311 105.015993 
L 321.224184 104.935471 
L 321.863348 103.928947 
L 322.198148 103.325036 
L 322.228584 103.365297 
L 322.25902 103.244511 
L 322.532948 102.80164 
L 322.563384 102.841901 
L 322.59382 102.761376 
L 323.659093 101.191205 
L 323.963457 100.66781 
L 324.054766 100.627546 
L 324.26782 100.345722 
L 324.35913 100.265197 
L 324.967857 99.621025 
L 325.637457 99.701547 
L 325.911384 99.943113 
L 326.002693 99.943113 
L 326.185311 100.144421 
L 326.733166 101.030158 
L 327.311457 102.278251 
L 327.463639 102.6406 
L 328.62022 105.982255 
L 328.95502 107.190084 
L 329.746366 110.773308 
L 333.368293 130.460913 
L 333.794402 133.037614 
L 334.037893 134.446747 
L 335.042293 140.365108 
L 337.842439 154.617484 
L 338.390293 157.234445 
L 338.846839 159.52932 
L 339.820802 164.119068 
L 341.616548 170.802386 
L 342.34702 173.016738 
L 342.77313 174.305089 
L 342.925311 174.667438 
L 343.655784 176.318136 
L 343.899275 176.801267 
L 344.264511 177.485704 
L 344.629748 178.129878 
L 344.842802 178.411705 
L 345.421093 179.015619 
L 345.512402 179.096142 
L 346.151566 179.780578 
L 346.182002 179.740317 
L 346.212439 179.780578 
L 346.395057 180.022144 
L 346.425493 179.981883 
L 346.45593 180.062405 
L 347.46033 181.229973 
L 347.551639 181.270235 
L 347.70382 181.431278 
L 347.764693 181.391016 
L 347.79513 181.471537 
L 348.03862 181.63258 
L 348.221239 181.713103 
L 348.37342 181.753365 
L 349.073457 181.713103 
L 349.103893 181.63258 
L 349.195202 181.672842 
L 349.286511 181.63258 
L 349.316948 181.713103 
L 349.408257 181.672842 
L 349.773493 181.63258 
L 349.895239 181.55206 
L 350.108293 181.471537 
L 350.260475 181.431278 
L 350.595275 181.391016 
L 350.625711 181.270235 
L 350.71702 181.350755 
L 351.021384 181.270235 
L 351.204002 181.189711 
L 351.325748 181.109188 
L 351.72142 180.746841 
L 351.873602 180.666319 
L 352.330148 180.223449 
L 352.39102 180.223449 
L 352.573639 179.941622 
L 354.886802 177.002572 
L 354.917239 177.042834 
L 354.947675 176.962312 
L 355.40422 176.519441 
L 355.556402 176.43892 
L 355.860766 176.197353 
L 355.891202 176.237614 
L 355.952075 176.157093 
L 356.195566 176.076571 
L 356.347748 176.036309 
L 356.378184 176.076571 
L 356.40862 175.996049 
L 356.591239 175.915526 
L 356.865166 175.835004 
L 356.895602 175.754482 
L 356.986911 175.794744 
L 357.230402 175.633701 
L 357.686948 175.553179 
L 357.83913 175.512917 
L 358.08262 175.432395 
L 358.234802 175.311612 
L 358.478293 175.110308 
L 358.569602 175.150568 
L 358.600039 175.110308 
L 358.84353 174.909003 
L 358.965275 174.909003 
L 359.239202 174.707698 
L 359.330511 174.627176 
L 359.634875 174.385611 
L 359.75662 174.305089 
L 359.969675 174.184306 
L 360.121857 174.144044 
L 360.274039 174.023262 
L 361.156693 173.016738 
L 361.18713 173.016738 
L 361.339311 172.815433 
L 361.917602 171.889432 
L 362.313275 171.124474 
L 362.708948 170.440037 
L 363.165493 169.514036 
L 363.378548 169.071165 
L 363.86553 168.064641 
L 364.078584 167.662032 
L 364.291639 167.219161 
L 364.626439 166.655508 
L 364.77862 166.33342 
L 366.239566 164.561938 
L 366.300439 164.481417 
L 366.756984 164.038546 
L 366.78742 164.038546 
L 366.909166 163.877503 
L 367.030911 163.877503 
L 367.517893 163.394371 
L 367.639639 163.35411 
L 367.79182 163.193066 
L 367.852693 163.112544 
L 367.974439 163.032023 
L 368.096184 163.032023 
L 368.21793 162.951501 
L 368.491857 162.870978 
L 368.79622 162.629413 
L 368.917966 162.548891 
L 369.070148 162.428108 
L 369.100584 162.50863 
L 369.13102 162.387847 
L 369.161457 162.428108 
L 369.344075 162.267064 
L 369.374511 162.307325 
L 369.587566 162.226803 
L 369.80062 162.06576 
L 369.831057 162.106021 
L 369.861493 162.06576 
L 370.013675 161.904716 
L 370.104984 161.864455 
L 370.318039 161.582628 
L 370.409348 161.582628 
L 371.200693 160.656626 
L 371.23113 160.696887 
L 371.261566 160.616365 
L 374.061711 156.751314 
L 374.57913 155.664268 
L 374.640002 155.583747 
L 375.15742 154.45644 
L 375.218293 154.375918 
L 375.58353 153.369394 
L 379.205457 143.585984 
L 379.418511 142.901547 
L 379.905493 141.411892 
L 380.51422 139.519627 
L 380.818584 138.472842 
L 380.94033 138.150756 
L 381.427311 136.661099 
L 381.914293 135.090922 
L 382.431711 133.480484 
L 382.918693 132.031091 
L 382.918693 132.031091 
" style="fill:none;stroke:#0000ff;stroke-linecap:square;stroke-width:1.5;"/>
   </g>
   <g id="line2d_24">
    <path clip-path="url(#p9548a48a7d)" d="M 78.555057 153.820397 
L 78.768111 153.800267 
L 78.981166 153.820397 
L 79.19422 153.800267 
L 85.707602 153.880789 
L 85.798911 153.900919 
L 85.829348 153.860658 
L 86.072839 153.900919 
L 86.22502 153.92105 
L 94.168911 153.840528 
L 94.290657 153.820397 
L 94.534148 153.780136 
L 94.68633 153.800267 
L 99.677893 153.900919 
L 99.95182 153.961311 
L 100.317057 154.061963 
L 101.838875 155.18927 
L 102.660657 156.45749 
L 103.63462 158.631581 
L 104.365093 160.845933 
L 106.434766 169.502037 
L 107.07393 172.642392 
L 110.208875 186.653203 
L 111.152402 189.411078 
L 112.217675 191.303342 
L 112.400293 191.544908 
L 112.67422 191.866996 
L 113.43513 191.766343 
L 113.739493 191.524778 
L 113.861239 191.424125 
L 114.500402 190.437732 
L 116.143966 184.660287 
L 117.36142 177.63475 
L 118.487566 169.461777 
L 119.552839 160.906325 
L 121.957311 139.286194 
L 125.274875 109.593743 
L 127.40542 97.575849 
L 128.105457 94.435495 
L 129.07942 90.993184 
L 129.779457 89.402876 
L 130.144693 89.060662 
L 130.357748 88.859354 
L 131.209966 88.41648 
L 131.575202 88.537266 
L 131.818693 88.456741 
L 132.275239 88.034004 
L 132.883966 88.134656 
L 133.18833 88.376225 
L 133.43182 88.476875 
L 133.827493 88.617788 
L 133.949239 88.698313 
L 134.984075 89.886008 
L 135.10582 89.865874 
L 135.77542 90.429534 
L 136.688511 91.476315 
L 136.810257 91.556841 
L 138.54513 95.240717 
L 138.87993 96.669978 
L 139.488657 99.649292 
L 139.975639 101.984423 
L 141.193093 108.567089 
L 141.984439 113.338012 
L 146.854257 149.572867 
L 150.902293 183.432328 
L 152.758911 196.154787 
L 153.85462 202.012755 
L 154.28073 203.703715 
L 155.19382 206.884334 
L 156.137348 208.514902 
L 156.319966 208.736331 
L 156.53302 208.917505 
L 156.746075 209.038291 
L 157.29393 208.957766 
L 157.446111 208.897378 
L 157.567857 208.877251 
L 158.20702 208.333728 
L 158.572257 207.669419 
L 158.937493 206.984983 
L 159.089675 206.783675 
L 159.363602 206.340811 
L 159.759275 205.636241 
L 160.581057 203.764107 
L 162.65073 197.98666 
L 163.381202 195.128133 
L 163.624693 194.222261 
L 166.24222 182.627107 
L 167.733602 177.151618 
L 168.159711 176.306139 
L 169.25542 175.017788 
L 169.894584 175.11844 
L 170.655493 175.742485 
L 170.898984 176.245746 
L 171.325093 177.332793 
L 172.207748 179.909495 
L 172.755602 182.284889 
L 172.93822 183.049848 
L 173.638257 186.270725 
L 175.555748 197.000267 
L 178.62982 218.056747 
L 179.268984 221.941926 
L 180.30382 226.833631 
L 180.669057 227.880416 
L 181.095166 228.967462 
L 181.673457 230.497381 
L 182.921348 231.98703 
L 183.195275 231.886381 
L 183.377893 231.644815 
L 184.564911 228.202504 
L 185.32582 224.156278 
L 186.025857 218.841833 
L 186.75633 211.655256 
L 188.734693 186.874638 
L 190.956548 151.424871 
L 192.326184 127.268302 
L 195.36982 80.706514 
L 196.952511 63.152737 
L 197.926475 54.577151 
L 198.961311 47.229534 
L 200.81793 36.842199 
L 201.183166 35.433072 
L 201.700584 34.36616 
L 202.370184 33.661584 
L 202.674548 33.581075 
L 202.857166 33.681718 
L 203.131093 33.983678 
L 203.465893 34.406415 
L 203.73982 34.688241 
L 204.622475 36.681165 
L 205.474693 40.465688 
L 206.570402 48.437359 
L 208.792257 65.40735 
L 210.892366 82.518257 
L 215.427384 117.625803 
L 217.314439 132.139875 
L 217.923166 136.769885 
L 219.658039 149.653389 
L 223.066911 171.494955 
L 224.040875 177.23214 
L 225.410511 185.586286 
L 227.388875 195.470351 
L 227.754111 197.060658 
L 229.18462 202.294582 
L 229.915093 204.32776 
L 231.467348 207.166157 
L 231.984766 208.011634 
L 232.471748 209.018164 
L 232.86742 209.722727 
L 234.906657 213.990388 
L 235.332766 215.017046 
L 235.789311 215.922917 
L 236.30673 216.748263 
L 236.398039 216.828788 
L 236.854584 217.493091 
L 238.041602 218.882094 
L 238.89382 219.324967 
L 239.685166 219.224308 
L 239.959093 219.16392 
L 241.146111 219.264573 
L 241.541784 219.405483 
L 242.028766 219.506142 
L 242.180948 219.546396 
L 242.454875 219.647055 
L 242.972293 219.888617 
L 243.063602 219.928878 
L 243.550584 220.371752 
L 244.281057 221.519186 
L 247.142075 226.954417 
L 247.324693 227.19598 
L 248.329093 228.363551 
L 248.511711 228.4642 
L 248.69433 228.524591 
L 248.907384 228.544725 
L 249.211748 228.4642 
L 249.637857 228.363551 
L 250.155275 227.900543 
L 251.250984 226.269975 
L 251.585784 225.545278 
L 252.346693 223.250407 
L 253.168475 219.586657 
L 255.146839 207.146023 
L 256.333857 196.879484 
L 258.190475 177.373054 
L 259.560111 160.72515 
L 262.390693 121.853203 
L 264.00382 98.984983 
L 266.864839 64.400829 
L 267.68662 56.348633 
L 269.238875 44.874262 
L 269.969348 41.190385 
L 271.217239 38.170817 
L 271.338984 38.070158 
L 271.673784 37.969512 
L 272.160766 38.050037 
L 273.04342 39.398776 
L 273.926075 41.995604 
L 275.021784 47.591882 
L 277.456693 66.111913 
L 279.343748 84.611827 
L 285.948439 153.337266 
L 289.631239 186.431768 
L 291.274802 198.590574 
L 292.46182 206.421326 
L 293.648839 212.822817 
L 294.105384 214.674824 
L 295.018475 217.33205 
L 296.540293 220.110053 
L 297.301202 220.935402 
L 297.727311 221.116576 
L 297.879493 221.136704 
L 298.031675 221.136704 
L 298.396911 221.015924 
L 298.549093 220.915275 
L 299.279566 220.130183 
L 299.49262 219.86849 
L 300.131784 218.841833 
L 301.83622 214.030649 
L 302.26233 212.561128 
L 302.566693 211.453948 
L 303.144984 208.736331 
L 304.423311 200.5231 
L 305.732075 190.216297 
L 308.380039 170.085822 
L 309.62793 161.792066 
L 311.149748 154.323659 
L 312.64113 147.922168 
L 313.21942 145.627294 
L 315.89782 135.441274 
L 316.384802 133.871097 
L 316.871784 132.381441 
L 317.937057 129.261218 
L 318.363166 128.013127 
L 320.25022 123.322728 
L 320.402402 122.960379 
L 321.224184 120.48433 
L 321.619857 119.558328 
L 322.289457 117.988151 
L 322.746002 116.860845 
L 323.202548 115.954973 
L 323.476475 115.411451 
L 324.176511 113.780882 
L 324.785239 112.472401 
L 325.211348 111.385355 
L 326.002693 109.150873 
L 326.672293 107.600826 
L 326.976657 106.976781 
L 327.889748 105.406604 
L 328.28542 104.722168 
L 328.559348 104.279298 
L 329.898548 102.688993 
L 330.994257 102.085073 
L 331.694293 102.185731 
L 331.907348 102.286381 
L 332.485639 102.789643 
L 332.820439 103.212382 
L 334.037893 105.003995 
L 335.559711 109.332047 
L 336.838039 113.941926 
L 337.477202 116.377713 
L 338.694657 121.651898 
L 340.825202 133.488617 
L 344.812366 160.564107 
L 348.37342 187.941553 
L 349.773493 197.322355 
L 351.417057 206.44146 
L 352.573639 211.997471 
L 353.791093 216.385915 
L 354.186766 217.392438 
L 354.673748 218.660658 
L 354.917239 219.16392 
L 355.282475 219.828229 
L 355.891202 220.794489 
L 356.012948 220.895141 
L 356.256439 221.156837 
L 356.773857 221.056188 
L 357.230402 220.633442 
L 357.74782 219.848356 
L 357.960875 219.405483 
L 358.447857 218.157396 
L 358.873966 217.070351 
L 359.574002 214.37287 
L 360.76102 207.508372 
L 364.10902 182.385543 
L 365.569966 169.864386 
L 366.970039 157.866623 
L 368.157057 147.177341 
L 370.500657 126.100733 
L 371.626802 116.035495 
L 372.874693 106.996912 
L 374.792184 95.03941 
L 375.82702 90.771749 
L 376.466184 88.658052 
L 378.231493 84.289739 
L 378.444548 84.02804 
L 378.688039 83.766343 
L 379.388075 83.424122 
L 379.814184 83.524781 
L 380.757711 84.249478 
L 382.462148 87.872957 
L 382.918693 89.241836 
L 382.918693 89.241836 
" style="fill:none;stroke:#ff0000;stroke-linecap:square;stroke-width:1.5;"/>
   </g>
   <g id="line2d_25">
    <path clip-path="url(#p9548a48a7d)" d="M 123.540002 162.468369 
" style="fill:none;stroke:#ffffff;stroke-linecap:square;stroke-width:1.5;"/>
    <defs>
     <path d="M 0 -5 
L -1.12257 -1.545085 
L -4.755283 -1.545085 
L -1.816356 0.59017 
L -2.938926 4.045085 
L -0 1.90983 
L 2.938926 4.045085 
L 1.816356 0.59017 
L 4.755283 -1.545085 
L 1.12257 -1.545085 
z
" id="m2c2b514547" style="stroke:#ffffff;stroke-linejoin:bevel;"/>
    </defs>
    <g clip-path="url(#p9548a48a7d)">
     <use style="fill:#0000ff;stroke:#ffffff;stroke-linejoin:bevel;" x="123.540002" xlink:href="#m2c2b514547" y="162.468369"/>
    </g>
   </g>
   <g id="line2d_26">
    <path clip-path="url(#p9548a48a7d)" d="M 104.06073 159.899801 
" style="fill:none;stroke:#ffffff;stroke-linecap:square;stroke-width:1.5;"/>
    <defs>
     <path d="M 0 -5 
L -1.12257 -1.545085 
L -4.755283 -1.545085 
L -1.816356 0.59017 
L -2.938926 4.045085 
L -0 1.90983 
L 2.938926 4.045085 
L 1.816356 0.59017 
L 4.755283 -1.545085 
L 1.12257 -1.545085 
z
" id="m1e3ad185e2" style="stroke:#ffffff;stroke-linejoin:bevel;"/>
    </defs>
    <g clip-path="url(#p9548a48a7d)">
     <use style="fill:#ff0000;stroke:#ffffff;stroke-linejoin:bevel;" x="104.06073" xlink:href="#m1e3ad185e2" y="159.899801"/>
    </g>
   </g>
   <g id="patch_3">
    <path d="M 63.336875 339.84 
L 63.336875 7.2 
" style="fill:none;stroke:#000000;stroke-linecap:square;stroke-linejoin:miter;stroke-width:0.8;"/>
   </g>
   <g id="patch_4">
    <path d="M 398.136875 339.84 
L 398.136875 7.2 
" style="fill:none;stroke:#000000;stroke-linecap:square;stroke-linejoin:miter;stroke-width:0.8;"/>
   </g>
   <g id="patch_5">
    <path d="M 63.336875 339.84 
L 398.136875 339.84 
" style="fill:none;stroke:#000000;stroke-linecap:square;stroke-linejoin:miter;stroke-width:0.8;"/>
   </g>
   <g id="patch_6">
    <path d="M 63.336875 7.2 
L 398.136875 7.2 
" style="fill:none;stroke:#000000;stroke-linecap:square;stroke-linejoin:miter;stroke-width:0.8;"/>
   </g>
   <g id="text_14">
    <g id="patch_7">
     <path d="M 75.036875 331.242688 
L 166.79375 331.242688 
L 166.79375 293.760312 
L 75.036875 293.760312 
z
" style="fill:#ffffff;stroke:#000000;stroke-linejoin:miter;stroke-width:0.75;"/>
    </g>
    <!-- Auto_00154 -->
    <g transform="translate(80.076875 308.521562)scale(0.14 -0.14)">
     <defs>
      <path d="M 2928 1419 
L 1288 1419 
L 1000 750 
Q 894 503 894 381 
Q 894 284 986 211 
Q 1078 138 1384 116 
L 1384 0 
L 50 0 
L 50 116 
Q 316 163 394 238 
Q 553 388 747 847 
L 2238 4334 
L 2347 4334 
L 3822 809 
Q 4000 384 4145 257 
Q 4291 131 4550 116 
L 4550 0 
L 2878 0 
L 2878 116 
Q 3131 128 3220 200 
Q 3309 272 3309 375 
Q 3309 513 3184 809 
L 2928 1419 
z
M 2841 1650 
L 2122 3363 
L 1384 1650 
L 2841 1650 
z
" id="TimesNewRomanPSMT-41" transform="scale(0.015625)"/>
      <path d="M 2709 2863 
L 2709 1128 
Q 2709 631 2732 520 
Q 2756 409 2807 365 
Q 2859 322 2928 322 
Q 3025 322 3147 375 
L 3191 266 
L 2334 -88 
L 2194 -88 
L 2194 519 
Q 1825 119 1631 15 
Q 1438 -88 1222 -88 
Q 981 -88 804 51 
Q 628 191 559 409 
Q 491 628 491 1028 
L 491 2306 
Q 491 2509 447 2587 
Q 403 2666 317 2708 
Q 231 2750 6 2747 
L 6 2863 
L 1009 2863 
L 1009 947 
Q 1009 547 1148 422 
Q 1288 297 1484 297 
Q 1619 297 1789 381 
Q 1959 466 2194 703 
L 2194 2325 
Q 2194 2569 2105 2655 
Q 2016 2741 1734 2747 
L 1734 2863 
L 2709 2863 
z
" id="TimesNewRomanPSMT-75" transform="scale(0.015625)"/>
      <path d="M 3256 -1381 
L -53 -1381 
L -53 -1119 
L 3256 -1119 
L 3256 -1381 
z
" id="TimesNewRomanPSMT-5f" transform="scale(0.015625)"/>
     </defs>
     <use xlink:href="#TimesNewRomanPSMT-41"/>
     <use x="72.216797" xlink:href="#TimesNewRomanPSMT-75"/>
     <use x="122.216797" xlink:href="#TimesNewRomanPSMT-74"/>
     <use x="150" xlink:href="#TimesNewRomanPSMT-6f"/>
     <use x="200" xlink:href="#TimesNewRomanPSMT-5f"/>
     <use x="250" xlink:href="#TimesNewRomanPSMT-30"/>
     <use x="300" xlink:href="#TimesNewRomanPSMT-30"/>
     <use x="350" xlink:href="#TimesNewRomanPSMT-31"/>
     <use x="400" xlink:href="#TimesNewRomanPSMT-35"/>
     <use x="450" xlink:href="#TimesNewRomanPSMT-34"/>
    </g>
    <!-- Vs: 312.29m/s -->
    <g transform="translate(80.076875 323.208)scale(0.14 -0.14)">
     <defs>
      <path d="M 903 2950 
Q 1047 2950 1148 2848 
Q 1250 2747 1250 2603 
Q 1250 2459 1148 2357 
Q 1047 2256 903 2256 
Q 759 2256 657 2357 
Q 556 2459 556 2603 
Q 556 2747 657 2848 
Q 759 2950 903 2950 
z
M 897 609 
Q 1044 609 1145 506 
Q 1247 403 1247 259 
Q 1247 116 1144 14 
Q 1041 -88 897 -88 
Q 753 -88 651 14 
Q 550 116 550 259 
Q 550 403 651 506 
Q 753 609 897 609 
z
" id="TimesNewRomanPSMT-3a" transform="scale(0.015625)"/>
      <path d="M 338 -88 
L 338 28 
Q 744 34 1094 217 
Q 1444 400 1770 856 
Q 2097 1313 2225 1859 
Q 1734 1544 1338 1544 
Q 891 1544 572 1889 
Q 253 2234 253 2806 
Q 253 3363 572 3797 
Q 956 4325 1575 4325 
Q 2097 4325 2469 3894 
Q 2925 3359 2925 2575 
Q 2925 1869 2578 1258 
Q 2231 647 1613 244 
Q 1109 -88 516 -88 
L 338 -88 
z
M 2275 2091 
Q 2331 2497 2331 2741 
Q 2331 3044 2228 3395 
Q 2125 3747 1936 3934 
Q 1747 4122 1506 4122 
Q 1228 4122 1018 3872 
Q 809 3622 809 3128 
Q 809 2469 1088 2097 
Q 1291 1828 1588 1828 
Q 1731 1828 1928 1897 
Q 2125 1966 2275 2091 
z
" id="TimesNewRomanPSMT-39" transform="scale(0.015625)"/>
      <path d="M 1794 4444 
L 259 -88 
L 9 -88 
L 1544 4444 
L 1794 4444 
z
" id="TimesNewRomanPSMT-2f" transform="scale(0.015625)"/>
     </defs>
     <use xlink:href="#TimesNewRomanPSMT-56"/>
     <use x="72.216797" xlink:href="#TimesNewRomanPSMT-73"/>
     <use x="111.132812" xlink:href="#TimesNewRomanPSMT-3a"/>
     <use x="138.916016" xlink:href="#TimesNewRomanPSMT-20"/>
     <use x="163.916016" xlink:href="#TimesNewRomanPSMT-33"/>
     <use x="213.916016" xlink:href="#TimesNewRomanPSMT-31"/>
     <use x="263.916016" xlink:href="#TimesNewRomanPSMT-32"/>
     <use x="313.916016" xlink:href="#TimesNewRomanPSMT-2e"/>
     <use x="338.916016" xlink:href="#TimesNewRomanPSMT-32"/>
     <use x="388.916016" xlink:href="#TimesNewRomanPSMT-39"/>
     <use x="438.916016" xlink:href="#TimesNewRomanPSMT-6d"/>
     <use x="516.699219" xlink:href="#TimesNewRomanPSMT-2f"/>
     <use x="544.482422" xlink:href="#TimesNewRomanPSMT-73"/>
    </g>
   </g>
  </g>
 </g>
 <defs>
  <clipPath id="p9548a48a7d">
   <rect height="332.64" width="334.8" x="63.336875" y="7.2"/>
  </clipPath>
 </defs>
</svg>
