<?xml version="1.0" encoding="utf-8" standalone="no"?>
<!DOCTYPE svg PUBLIC "-//W3C//DTD SVG 1.1//EN"
  "http://www.w3.org/Graphics/SVG/1.1/DTD/svg11.dtd">
<svg height="383.471875pt" version="1.1" viewBox="0 0 421.086875 383.471875" width="421.086875pt" xmlns="http://www.w3.org/2000/svg" xmlns:xlink="http://www.w3.org/1999/xlink">
 <metadata>
  <rdf:RDF xmlns:cc="http://creativecommons.org/ns#" xmlns:dc="http://purl.org/dc/elements/1.1/" xmlns:rdf="http://www.w3.org/1999/02/22-rdf-syntax-ns#">
   <cc:Work>
    <dc:type rdf:resource="http://purl.org/dc/dcmitype/StillImage"/>
    <dc:date>2021-06-11T14:39:38.080845</dc:date>
    <dc:format>image/svg+xml</dc:format>
    <dc:creator>
     <cc:Agent>
      <dc:title>Matplotlib v3.4.2, https://matplotlib.org/</dc:title>
     </cc:Agent>
    </dc:creator>
   </cc:Work>
  </rdf:RDF>
 </metadata>
 <defs>
  <style type="text/css">*{stroke-linecap:butt;stroke-linejoin:round;}</style>
 </defs>
 <g id="figure_1">
  <g id="patch_1">
   <path d="M 0 383.471875 
L 421.086875 383.471875 
L 421.086875 0 
L 0 0 
z
" style="fill:#ffffff;"/>
  </g>
  <g id="axes_1">
   <g id="patch_2">
    <path d="M 63.336875 339.84 
L 398.136875 339.84 
L 398.136875 7.2 
L 63.336875 7.2 
z
" style="fill:#ffffff;"/>
   </g>
   <g id="matplotlib.axis_1">
    <g id="xtick_1">
     <g id="line2d_1">
      <path clip-path="url(#p63704307fd)" d="M 93.773239 339.84 
L 93.773239 7.2 
" style="fill:none;stroke:#000000;stroke-dasharray:0.5,0.825;stroke-dashoffset:0;stroke-width:0.5;"/>
     </g>
     <g id="line2d_2">
      <defs>
       <path d="M 0 0 
L 0 3.5 
" id="ma682b9169c" style="stroke:#000000;stroke-width:0.8;"/>
      </defs>
      <g>
       <use style="stroke:#000000;stroke-width:0.8;" x="93.773239" xlink:href="#ma682b9169c" y="339.84"/>
      </g>
     </g>
     <g id="text_1">
      <!-- 0.000 -->
      <g transform="translate(78.023239 356.56125)scale(0.14 -0.14)">
       <defs>
        <path d="M 231 2094 
Q 231 2819 450 3342 
Q 669 3866 1031 4122 
Q 1313 4325 1613 4325 
Q 2100 4325 2488 3828 
Q 2972 3213 2972 2159 
Q 2972 1422 2759 906 
Q 2547 391 2217 158 
Q 1888 -75 1581 -75 
Q 975 -75 572 641 
Q 231 1244 231 2094 
z
M 844 2016 
Q 844 1141 1059 588 
Q 1238 122 1591 122 
Q 1759 122 1940 273 
Q 2122 425 2216 781 
Q 2359 1319 2359 2297 
Q 2359 3022 2209 3506 
Q 2097 3866 1919 4016 
Q 1791 4119 1609 4119 
Q 1397 4119 1231 3928 
Q 1006 3669 925 3112 
Q 844 2556 844 2016 
z
" id="TimesNewRomanPSMT-30" transform="scale(0.015625)"/>
        <path d="M 800 606 
Q 947 606 1047 504 
Q 1147 403 1147 259 
Q 1147 116 1045 14 
Q 944 -88 800 -88 
Q 656 -88 554 14 
Q 453 116 453 259 
Q 453 406 554 506 
Q 656 606 800 606 
z
" id="TimesNewRomanPSMT-2e" transform="scale(0.015625)"/>
       </defs>
       <use xlink:href="#TimesNewRomanPSMT-30"/>
       <use x="50" xlink:href="#TimesNewRomanPSMT-2e"/>
       <use x="75" xlink:href="#TimesNewRomanPSMT-30"/>
       <use x="125" xlink:href="#TimesNewRomanPSMT-30"/>
       <use x="175" xlink:href="#TimesNewRomanPSMT-30"/>
      </g>
     </g>
    </g>
    <g id="xtick_2">
     <g id="line2d_3">
      <path clip-path="url(#p63704307fd)" d="M 154.645966 339.84 
L 154.645966 7.2 
" style="fill:none;stroke:#000000;stroke-dasharray:0.5,0.825;stroke-dashoffset:0;stroke-width:0.5;"/>
     </g>
     <g id="line2d_4">
      <g>
       <use style="stroke:#000000;stroke-width:0.8;" x="154.645966" xlink:href="#ma682b9169c" y="339.84"/>
      </g>
     </g>
     <g id="text_2">
      <!-- 0.001 -->
      <g transform="translate(138.895966 356.56125)scale(0.14 -0.14)">
       <defs>
        <path d="M 750 3822 
L 1781 4325 
L 1884 4325 
L 1884 747 
Q 1884 391 1914 303 
Q 1944 216 2037 169 
Q 2131 122 2419 116 
L 2419 0 
L 825 0 
L 825 116 
Q 1125 122 1212 167 
Q 1300 213 1334 289 
Q 1369 366 1369 747 
L 1369 3034 
Q 1369 3497 1338 3628 
Q 1316 3728 1258 3775 
Q 1200 3822 1119 3822 
Q 1003 3822 797 3725 
L 750 3822 
z
" id="TimesNewRomanPSMT-31" transform="scale(0.015625)"/>
       </defs>
       <use xlink:href="#TimesNewRomanPSMT-30"/>
       <use x="50" xlink:href="#TimesNewRomanPSMT-2e"/>
       <use x="75" xlink:href="#TimesNewRomanPSMT-30"/>
       <use x="125" xlink:href="#TimesNewRomanPSMT-30"/>
       <use x="175" xlink:href="#TimesNewRomanPSMT-31"/>
      </g>
     </g>
    </g>
    <g id="xtick_3">
     <g id="line2d_5">
      <path clip-path="url(#p63704307fd)" d="M 215.518693 339.84 
L 215.518693 7.2 
" style="fill:none;stroke:#000000;stroke-dasharray:0.5,0.825;stroke-dashoffset:0;stroke-width:0.5;"/>
     </g>
     <g id="line2d_6">
      <g>
       <use style="stroke:#000000;stroke-width:0.8;" x="215.518693" xlink:href="#ma682b9169c" y="339.84"/>
      </g>
     </g>
     <g id="text_3">
      <!-- 0.002 -->
      <g transform="translate(199.768693 356.56125)scale(0.14 -0.14)">
       <defs>
        <path d="M 2934 816 
L 2638 0 
L 138 0 
L 138 116 
Q 1241 1122 1691 1759 
Q 2141 2397 2141 2925 
Q 2141 3328 1894 3587 
Q 1647 3847 1303 3847 
Q 991 3847 742 3664 
Q 494 3481 375 3128 
L 259 3128 
Q 338 3706 661 4015 
Q 984 4325 1469 4325 
Q 1984 4325 2329 3994 
Q 2675 3663 2675 3213 
Q 2675 2891 2525 2569 
Q 2294 2063 1775 1497 
Q 997 647 803 472 
L 1909 472 
Q 2247 472 2383 497 
Q 2519 522 2628 598 
Q 2738 675 2819 816 
L 2934 816 
z
" id="TimesNewRomanPSMT-32" transform="scale(0.015625)"/>
       </defs>
       <use xlink:href="#TimesNewRomanPSMT-30"/>
       <use x="50" xlink:href="#TimesNewRomanPSMT-2e"/>
       <use x="75" xlink:href="#TimesNewRomanPSMT-30"/>
       <use x="125" xlink:href="#TimesNewRomanPSMT-30"/>
       <use x="175" xlink:href="#TimesNewRomanPSMT-32"/>
      </g>
     </g>
    </g>
    <g id="xtick_4">
     <g id="line2d_7">
      <path clip-path="url(#p63704307fd)" d="M 276.39142 339.84 
L 276.39142 7.2 
" style="fill:none;stroke:#000000;stroke-dasharray:0.5,0.825;stroke-dashoffset:0;stroke-width:0.5;"/>
     </g>
     <g id="line2d_8">
      <g>
       <use style="stroke:#000000;stroke-width:0.8;" x="276.39142" xlink:href="#ma682b9169c" y="339.84"/>
      </g>
     </g>
     <g id="text_4">
      <!-- 0.003 -->
      <g transform="translate(260.64142 356.56125)scale(0.14 -0.14)">
       <defs>
        <path d="M 325 3431 
Q 506 3859 782 4092 
Q 1059 4325 1472 4325 
Q 1981 4325 2253 3994 
Q 2459 3747 2459 3466 
Q 2459 3003 1878 2509 
Q 2269 2356 2469 2072 
Q 2669 1788 2669 1403 
Q 2669 853 2319 450 
Q 1863 -75 997 -75 
Q 569 -75 414 31 
Q 259 138 259 259 
Q 259 350 332 419 
Q 406 488 509 488 
Q 588 488 669 463 
Q 722 447 909 348 
Q 1097 250 1169 231 
Q 1284 197 1416 197 
Q 1734 197 1970 444 
Q 2206 691 2206 1028 
Q 2206 1275 2097 1509 
Q 2016 1684 1919 1775 
Q 1784 1900 1550 2001 
Q 1316 2103 1072 2103 
L 972 2103 
L 972 2197 
Q 1219 2228 1467 2375 
Q 1716 2522 1828 2728 
Q 1941 2934 1941 3181 
Q 1941 3503 1739 3701 
Q 1538 3900 1238 3900 
Q 753 3900 428 3381 
L 325 3431 
z
" id="TimesNewRomanPSMT-33" transform="scale(0.015625)"/>
       </defs>
       <use xlink:href="#TimesNewRomanPSMT-30"/>
       <use x="50" xlink:href="#TimesNewRomanPSMT-2e"/>
       <use x="75" xlink:href="#TimesNewRomanPSMT-30"/>
       <use x="125" xlink:href="#TimesNewRomanPSMT-30"/>
       <use x="175" xlink:href="#TimesNewRomanPSMT-33"/>
      </g>
     </g>
    </g>
    <g id="xtick_5">
     <g id="line2d_9">
      <path clip-path="url(#p63704307fd)" d="M 337.264148 339.84 
L 337.264148 7.2 
" style="fill:none;stroke:#000000;stroke-dasharray:0.5,0.825;stroke-dashoffset:0;stroke-width:0.5;"/>
     </g>
     <g id="line2d_10">
      <g>
       <use style="stroke:#000000;stroke-width:0.8;" x="337.264148" xlink:href="#ma682b9169c" y="339.84"/>
      </g>
     </g>
     <g id="text_5">
      <!-- 0.004 -->
      <g transform="translate(321.514148 356.56125)scale(0.14 -0.14)">
       <defs>
        <path d="M 2978 1563 
L 2978 1119 
L 2409 1119 
L 2409 0 
L 1894 0 
L 1894 1119 
L 100 1119 
L 100 1519 
L 2066 4325 
L 2409 4325 
L 2409 1563 
L 2978 1563 
z
M 1894 1563 
L 1894 3666 
L 406 1563 
L 1894 1563 
z
" id="TimesNewRomanPSMT-34" transform="scale(0.015625)"/>
       </defs>
       <use xlink:href="#TimesNewRomanPSMT-30"/>
       <use x="50" xlink:href="#TimesNewRomanPSMT-2e"/>
       <use x="75" xlink:href="#TimesNewRomanPSMT-30"/>
       <use x="125" xlink:href="#TimesNewRomanPSMT-30"/>
       <use x="175" xlink:href="#TimesNewRomanPSMT-34"/>
      </g>
     </g>
    </g>
    <g id="xtick_6">
     <g id="line2d_11">
      <path clip-path="url(#p63704307fd)" d="M 398.136875 339.84 
L 398.136875 7.2 
" style="fill:none;stroke:#000000;stroke-dasharray:0.5,0.825;stroke-dashoffset:0;stroke-width:0.5;"/>
     </g>
     <g id="line2d_12">
      <g>
       <use style="stroke:#000000;stroke-width:0.8;" x="398.136875" xlink:href="#ma682b9169c" y="339.84"/>
      </g>
     </g>
     <g id="text_6">
      <!-- 0.005 -->
      <g transform="translate(382.386875 356.56125)scale(0.14 -0.14)">
       <defs>
        <path d="M 2778 4238 
L 2534 3706 
L 1259 3706 
L 981 3138 
Q 1809 3016 2294 2522 
Q 2709 2097 2709 1522 
Q 2709 1188 2573 903 
Q 2438 619 2231 419 
Q 2025 219 1772 97 
Q 1413 -75 1034 -75 
Q 653 -75 479 54 
Q 306 184 306 341 
Q 306 428 378 495 
Q 450 563 559 563 
Q 641 563 702 538 
Q 763 513 909 409 
Q 1144 247 1384 247 
Q 1750 247 2026 523 
Q 2303 800 2303 1197 
Q 2303 1581 2056 1914 
Q 1809 2247 1375 2428 
Q 1034 2569 447 2591 
L 1259 4238 
L 2778 4238 
z
" id="TimesNewRomanPSMT-35" transform="scale(0.015625)"/>
       </defs>
       <use xlink:href="#TimesNewRomanPSMT-30"/>
       <use x="50" xlink:href="#TimesNewRomanPSMT-2e"/>
       <use x="75" xlink:href="#TimesNewRomanPSMT-30"/>
       <use x="125" xlink:href="#TimesNewRomanPSMT-30"/>
       <use x="175" xlink:href="#TimesNewRomanPSMT-35"/>
      </g>
     </g>
    </g>
    <g id="text_7">
     <!-- Time (sec) -->
     <g transform="translate(200.858906 373.277188)scale(0.14 -0.14)">
      <defs>
       <path d="M 3703 4238 
L 3750 3244 
L 3631 3244 
Q 3597 3506 3538 3619 
Q 3441 3800 3280 3886 
Q 3119 3972 2856 3972 
L 2259 3972 
L 2259 734 
Q 2259 344 2344 247 
Q 2463 116 2709 116 
L 2856 116 
L 2856 0 
L 1059 0 
L 1059 116 
L 1209 116 
Q 1478 116 1591 278 
Q 1659 378 1659 734 
L 1659 3972 
L 1150 3972 
Q 853 3972 728 3928 
Q 566 3869 450 3700 
Q 334 3531 313 3244 
L 194 3244 
L 244 4238 
L 3703 4238 
z
" id="TimesNewRomanPSMT-54" transform="scale(0.015625)"/>
       <path d="M 928 4444 
Q 1059 4444 1151 4351 
Q 1244 4259 1244 4128 
Q 1244 3997 1151 3903 
Q 1059 3809 928 3809 
Q 797 3809 703 3903 
Q 609 3997 609 4128 
Q 609 4259 701 4351 
Q 794 4444 928 4444 
z
M 1188 2947 
L 1188 647 
Q 1188 378 1227 289 
Q 1266 200 1342 156 
Q 1419 113 1622 113 
L 1622 0 
L 231 0 
L 231 113 
Q 441 113 512 153 
Q 584 194 626 287 
Q 669 381 669 647 
L 669 1750 
Q 669 2216 641 2353 
Q 619 2453 572 2492 
Q 525 2531 444 2531 
Q 356 2531 231 2484 
L 188 2597 
L 1050 2947 
L 1188 2947 
z
" id="TimesNewRomanPSMT-69" transform="scale(0.015625)"/>
       <path d="M 1050 2338 
Q 1363 2650 1419 2697 
Q 1559 2816 1721 2881 
Q 1884 2947 2044 2947 
Q 2313 2947 2506 2790 
Q 2700 2634 2766 2338 
Q 3088 2713 3309 2830 
Q 3531 2947 3766 2947 
Q 3994 2947 4170 2830 
Q 4347 2713 4450 2447 
Q 4519 2266 4519 1878 
L 4519 647 
Q 4519 378 4559 278 
Q 4591 209 4675 161 
Q 4759 113 4950 113 
L 4950 0 
L 3538 0 
L 3538 113 
L 3597 113 
Q 3781 113 3884 184 
Q 3956 234 3988 344 
Q 4000 397 4000 647 
L 4000 1878 
Q 4000 2228 3916 2372 
Q 3794 2572 3525 2572 
Q 3359 2572 3192 2489 
Q 3025 2406 2788 2181 
L 2781 2147 
L 2788 2013 
L 2788 647 
Q 2788 353 2820 281 
Q 2853 209 2943 161 
Q 3034 113 3253 113 
L 3253 0 
L 1806 0 
L 1806 113 
Q 2044 113 2133 169 
Q 2222 225 2256 338 
Q 2272 391 2272 647 
L 2272 1878 
Q 2272 2228 2169 2381 
Q 2031 2581 1784 2581 
Q 1616 2581 1450 2491 
Q 1191 2353 1050 2181 
L 1050 647 
Q 1050 366 1089 281 
Q 1128 197 1204 155 
Q 1281 113 1516 113 
L 1516 0 
L 100 0 
L 100 113 
Q 297 113 375 155 
Q 453 197 493 289 
Q 534 381 534 647 
L 534 1741 
Q 534 2213 506 2350 
Q 484 2453 437 2492 
Q 391 2531 309 2531 
Q 222 2531 100 2484 
L 53 2597 
L 916 2947 
L 1050 2947 
L 1050 2338 
z
" id="TimesNewRomanPSMT-6d" transform="scale(0.015625)"/>
       <path d="M 681 1784 
Q 678 1147 991 784 
Q 1303 422 1725 422 
Q 2006 422 2214 576 
Q 2422 731 2563 1106 
L 2659 1044 
Q 2594 616 2278 264 
Q 1963 -88 1488 -88 
Q 972 -88 605 314 
Q 238 716 238 1394 
Q 238 2128 614 2539 
Q 991 2950 1559 2950 
Q 2041 2950 2350 2633 
Q 2659 2316 2659 1784 
L 681 1784 
z
M 681 1966 
L 2006 1966 
Q 1991 2241 1941 2353 
Q 1863 2528 1708 2628 
Q 1553 2728 1384 2728 
Q 1125 2728 920 2526 
Q 716 2325 681 1966 
z
" id="TimesNewRomanPSMT-65" transform="scale(0.015625)"/>
       <path id="TimesNewRomanPSMT-20" transform="scale(0.015625)"/>
       <path d="M 1988 -1253 
L 1988 -1369 
Q 1516 -1131 1200 -813 
Q 750 -359 506 256 
Q 263 872 263 1534 
Q 263 2503 741 3301 
Q 1219 4100 1988 4444 
L 1988 4313 
Q 1603 4100 1356 3731 
Q 1109 3363 987 2797 
Q 866 2231 866 1616 
Q 866 947 969 400 
Q 1050 -31 1165 -292 
Q 1281 -553 1476 -793 
Q 1672 -1034 1988 -1253 
z
" id="TimesNewRomanPSMT-28" transform="scale(0.015625)"/>
       <path d="M 2050 2947 
L 2050 1972 
L 1947 1972 
Q 1828 2431 1642 2597 
Q 1456 2763 1169 2763 
Q 950 2763 815 2647 
Q 681 2531 681 2391 
Q 681 2216 781 2091 
Q 878 1963 1175 1819 
L 1631 1597 
Q 2266 1288 2266 781 
Q 2266 391 1970 151 
Q 1675 -88 1309 -88 
Q 1047 -88 709 6 
Q 606 38 541 38 
Q 469 38 428 -44 
L 325 -44 
L 325 978 
L 428 978 
Q 516 541 762 319 
Q 1009 97 1316 97 
Q 1531 97 1667 223 
Q 1803 350 1803 528 
Q 1803 744 1651 891 
Q 1500 1038 1047 1263 
Q 594 1488 453 1669 
Q 313 1847 313 2119 
Q 313 2472 555 2709 
Q 797 2947 1181 2947 
Q 1350 2947 1591 2875 
Q 1750 2828 1803 2828 
Q 1853 2828 1881 2850 
Q 1909 2872 1947 2947 
L 2050 2947 
z
" id="TimesNewRomanPSMT-73" transform="scale(0.015625)"/>
       <path d="M 2631 1088 
Q 2516 522 2178 217 
Q 1841 -88 1431 -88 
Q 944 -88 581 321 
Q 219 731 219 1428 
Q 219 2103 620 2525 
Q 1022 2947 1584 2947 
Q 2006 2947 2278 2723 
Q 2550 2500 2550 2259 
Q 2550 2141 2473 2067 
Q 2397 1994 2259 1994 
Q 2075 1994 1981 2113 
Q 1928 2178 1911 2362 
Q 1894 2547 1784 2644 
Q 1675 2738 1481 2738 
Q 1169 2738 978 2506 
Q 725 2200 725 1697 
Q 725 1184 976 792 
Q 1228 400 1656 400 
Q 1963 400 2206 609 
Q 2378 753 2541 1131 
L 2631 1088 
z
" id="TimesNewRomanPSMT-63" transform="scale(0.015625)"/>
       <path d="M 144 4313 
L 144 4444 
Q 619 4209 934 3891 
Q 1381 3434 1625 2820 
Q 1869 2206 1869 1541 
Q 1869 572 1392 -226 
Q 916 -1025 144 -1369 
L 144 -1253 
Q 528 -1038 776 -670 
Q 1025 -303 1145 264 
Q 1266 831 1266 1447 
Q 1266 2113 1163 2663 
Q 1084 3094 967 3353 
Q 850 3613 656 3853 
Q 463 4094 144 4313 
z
" id="TimesNewRomanPSMT-29" transform="scale(0.015625)"/>
      </defs>
      <use xlink:href="#TimesNewRomanPSMT-54"/>
      <use x="57.583984" xlink:href="#TimesNewRomanPSMT-69"/>
      <use x="85.367188" xlink:href="#TimesNewRomanPSMT-6d"/>
      <use x="163.150391" xlink:href="#TimesNewRomanPSMT-65"/>
      <use x="207.535156" xlink:href="#TimesNewRomanPSMT-20"/>
      <use x="232.535156" xlink:href="#TimesNewRomanPSMT-28"/>
      <use x="265.835938" xlink:href="#TimesNewRomanPSMT-73"/>
      <use x="304.751953" xlink:href="#TimesNewRomanPSMT-65"/>
      <use x="349.136719" xlink:href="#TimesNewRomanPSMT-63"/>
      <use x="393.521484" xlink:href="#TimesNewRomanPSMT-29"/>
     </g>
    </g>
   </g>
   <g id="matplotlib.axis_2">
    <g id="ytick_1">
     <g id="line2d_13">
      <path clip-path="url(#p63704307fd)" d="M 63.336875 282.833954 
L 398.136875 282.833954 
" style="fill:none;stroke:#000000;stroke-dasharray:0.5,0.825;stroke-dashoffset:0;stroke-width:0.5;"/>
     </g>
     <g id="line2d_14">
      <defs>
       <path d="M 0 0 
L -3.5 0 
" id="mea30e5187e" style="stroke:#000000;stroke-width:0.8;"/>
      </defs>
      <g>
       <use style="stroke:#000000;stroke-width:0.8;" x="63.336875" xlink:href="#mea30e5187e" y="282.833954"/>
      </g>
     </g>
     <g id="text_8">
      <!-- −0.04 -->
      <g transform="translate(23.942188 287.694579)scale(0.14 -0.14)">
       <defs>
        <path d="M 3484 2000 
L 116 2000 
L 116 2256 
L 3484 2256 
L 3484 2000 
z
" id="TimesNewRomanPSMT-2212" transform="scale(0.015625)"/>
       </defs>
       <use xlink:href="#TimesNewRomanPSMT-2212"/>
       <use x="56.396484" xlink:href="#TimesNewRomanPSMT-30"/>
       <use x="106.396484" xlink:href="#TimesNewRomanPSMT-2e"/>
       <use x="131.396484" xlink:href="#TimesNewRomanPSMT-30"/>
       <use x="181.396484" xlink:href="#TimesNewRomanPSMT-34"/>
      </g>
     </g>
    </g>
    <g id="ytick_2">
     <g id="line2d_15">
      <path clip-path="url(#p63704307fd)" d="M 63.336875 218.647164 
L 398.136875 218.647164 
" style="fill:none;stroke:#000000;stroke-dasharray:0.5,0.825;stroke-dashoffset:0;stroke-width:0.5;"/>
     </g>
     <g id="line2d_16">
      <g>
       <use style="stroke:#000000;stroke-width:0.8;" x="63.336875" xlink:href="#mea30e5187e" y="218.647164"/>
      </g>
     </g>
     <g id="text_9">
      <!-- −0.02 -->
      <g transform="translate(23.942188 223.507789)scale(0.14 -0.14)">
       <use xlink:href="#TimesNewRomanPSMT-2212"/>
       <use x="56.396484" xlink:href="#TimesNewRomanPSMT-30"/>
       <use x="106.396484" xlink:href="#TimesNewRomanPSMT-2e"/>
       <use x="131.396484" xlink:href="#TimesNewRomanPSMT-30"/>
       <use x="181.396484" xlink:href="#TimesNewRomanPSMT-32"/>
      </g>
     </g>
    </g>
    <g id="ytick_3">
     <g id="line2d_17">
      <path clip-path="url(#p63704307fd)" d="M 63.336875 154.460375 
L 398.136875 154.460375 
" style="fill:none;stroke:#000000;stroke-dasharray:0.5,0.825;stroke-dashoffset:0;stroke-width:0.5;"/>
     </g>
     <g id="line2d_18">
      <g>
       <use style="stroke:#000000;stroke-width:0.8;" x="63.336875" xlink:href="#mea30e5187e" y="154.460375"/>
      </g>
     </g>
     <g id="text_10">
      <!-- 0.00 -->
      <g transform="translate(31.836875 159.321)scale(0.14 -0.14)">
       <use xlink:href="#TimesNewRomanPSMT-30"/>
       <use x="50" xlink:href="#TimesNewRomanPSMT-2e"/>
       <use x="75" xlink:href="#TimesNewRomanPSMT-30"/>
       <use x="125" xlink:href="#TimesNewRomanPSMT-30"/>
      </g>
     </g>
    </g>
    <g id="ytick_4">
     <g id="line2d_19">
      <path clip-path="url(#p63704307fd)" d="M 63.336875 90.273585 
L 398.136875 90.273585 
" style="fill:none;stroke:#000000;stroke-dasharray:0.5,0.825;stroke-dashoffset:0;stroke-width:0.5;"/>
     </g>
     <g id="line2d_20">
      <g>
       <use style="stroke:#000000;stroke-width:0.8;" x="63.336875" xlink:href="#mea30e5187e" y="90.273585"/>
      </g>
     </g>
     <g id="text_11">
      <!-- 0.02 -->
      <g transform="translate(31.836875 95.13421)scale(0.14 -0.14)">
       <use xlink:href="#TimesNewRomanPSMT-30"/>
       <use x="50" xlink:href="#TimesNewRomanPSMT-2e"/>
       <use x="75" xlink:href="#TimesNewRomanPSMT-30"/>
       <use x="125" xlink:href="#TimesNewRomanPSMT-32"/>
      </g>
     </g>
    </g>
    <g id="ytick_5">
     <g id="line2d_21">
      <path clip-path="url(#p63704307fd)" d="M 63.336875 26.086795 
L 398.136875 26.086795 
" style="fill:none;stroke:#000000;stroke-dasharray:0.5,0.825;stroke-dashoffset:0;stroke-width:0.5;"/>
     </g>
     <g id="line2d_22">
      <g>
       <use style="stroke:#000000;stroke-width:0.8;" x="63.336875" xlink:href="#mea30e5187e" y="26.086795"/>
      </g>
     </g>
     <g id="text_12">
      <!-- 0.04 -->
      <g transform="translate(31.836875 30.94742)scale(0.14 -0.14)">
       <use xlink:href="#TimesNewRomanPSMT-30"/>
       <use x="50" xlink:href="#TimesNewRomanPSMT-2e"/>
       <use x="75" xlink:href="#TimesNewRomanPSMT-30"/>
       <use x="125" xlink:href="#TimesNewRomanPSMT-34"/>
      </g>
     </g>
    </g>
    <g id="text_13">
     <!-- Volatage (V) -->
     <g transform="translate(16.92125 209.352344)rotate(-90)scale(0.14 -0.14)">
      <defs>
       <path d="M 4544 4238 
L 4544 4122 
Q 4319 4081 4203 3978 
Q 4038 3825 3909 3509 
L 2431 -97 
L 2316 -97 
L 728 3556 
Q 606 3838 556 3900 
Q 478 3997 364 4051 
Q 250 4106 56 4122 
L 56 4238 
L 1788 4238 
L 1788 4122 
Q 1494 4094 1406 4022 
Q 1319 3950 1319 3838 
Q 1319 3681 1463 3350 
L 2541 866 
L 3541 3319 
Q 3688 3681 3688 3822 
Q 3688 3913 3597 3995 
Q 3506 4078 3291 4113 
Q 3275 4116 3238 4122 
L 3238 4238 
L 4544 4238 
z
" id="TimesNewRomanPSMT-56" transform="scale(0.015625)"/>
       <path d="M 1600 2947 
Q 2250 2947 2644 2453 
Q 2978 2031 2978 1484 
Q 2978 1100 2793 706 
Q 2609 313 2286 112 
Q 1963 -88 1566 -88 
Q 919 -88 538 428 
Q 216 863 216 1403 
Q 216 1797 411 2186 
Q 606 2575 925 2761 
Q 1244 2947 1600 2947 
z
M 1503 2744 
Q 1338 2744 1170 2645 
Q 1003 2547 900 2300 
Q 797 2053 797 1666 
Q 797 1041 1045 587 
Q 1294 134 1700 134 
Q 2003 134 2200 384 
Q 2397 634 2397 1244 
Q 2397 2006 2069 2444 
Q 1847 2744 1503 2744 
z
" id="TimesNewRomanPSMT-6f" transform="scale(0.015625)"/>
       <path d="M 1184 4444 
L 1184 647 
Q 1184 378 1223 290 
Q 1263 203 1344 158 
Q 1425 113 1647 113 
L 1647 0 
L 244 0 
L 244 113 
Q 441 113 512 153 
Q 584 194 625 287 
Q 666 381 666 647 
L 666 3247 
Q 666 3731 644 3842 
Q 622 3953 573 3993 
Q 525 4034 450 4034 
Q 369 4034 244 3984 
L 191 4094 
L 1044 4444 
L 1184 4444 
z
" id="TimesNewRomanPSMT-6c" transform="scale(0.015625)"/>
       <path d="M 1822 413 
Q 1381 72 1269 19 
Q 1100 -59 909 -59 
Q 613 -59 420 144 
Q 228 347 228 678 
Q 228 888 322 1041 
Q 450 1253 767 1440 
Q 1084 1628 1822 1897 
L 1822 2009 
Q 1822 2438 1686 2597 
Q 1550 2756 1291 2756 
Q 1094 2756 978 2650 
Q 859 2544 859 2406 
L 866 2225 
Q 866 2081 792 2003 
Q 719 1925 600 1925 
Q 484 1925 411 2006 
Q 338 2088 338 2228 
Q 338 2497 613 2722 
Q 888 2947 1384 2947 
Q 1766 2947 2009 2819 
Q 2194 2722 2281 2516 
Q 2338 2381 2338 1966 
L 2338 994 
Q 2338 584 2353 492 
Q 2369 400 2405 369 
Q 2441 338 2488 338 
Q 2538 338 2575 359 
Q 2641 400 2828 588 
L 2828 413 
Q 2478 -56 2159 -56 
Q 2006 -56 1915 50 
Q 1825 156 1822 413 
z
M 1822 616 
L 1822 1706 
Q 1350 1519 1213 1441 
Q 966 1303 859 1153 
Q 753 1003 753 825 
Q 753 600 887 451 
Q 1022 303 1197 303 
Q 1434 303 1822 616 
z
" id="TimesNewRomanPSMT-61" transform="scale(0.015625)"/>
       <path d="M 1031 3803 
L 1031 2863 
L 1700 2863 
L 1700 2644 
L 1031 2644 
L 1031 788 
Q 1031 509 1111 412 
Q 1191 316 1316 316 
Q 1419 316 1516 380 
Q 1613 444 1666 569 
L 1788 569 
Q 1678 263 1478 108 
Q 1278 -47 1066 -47 
Q 922 -47 784 33 
Q 647 113 581 261 
Q 516 409 516 719 
L 516 2644 
L 63 2644 
L 63 2747 
Q 234 2816 414 2980 
Q 594 3144 734 3369 
Q 806 3488 934 3803 
L 1031 3803 
z
" id="TimesNewRomanPSMT-74" transform="scale(0.015625)"/>
       <path d="M 966 1044 
Q 703 1172 562 1401 
Q 422 1631 422 1909 
Q 422 2334 742 2640 
Q 1063 2947 1563 2947 
Q 1972 2947 2272 2747 
L 2878 2747 
Q 3013 2747 3034 2739 
Q 3056 2731 3066 2713 
Q 3084 2684 3084 2613 
Q 3084 2531 3069 2500 
Q 3059 2484 3036 2475 
Q 3013 2466 2878 2466 
L 2506 2466 
Q 2681 2241 2681 1891 
Q 2681 1491 2375 1206 
Q 2069 922 1553 922 
Q 1341 922 1119 984 
Q 981 866 932 777 
Q 884 688 884 625 
Q 884 572 936 522 
Q 988 472 1138 450 
Q 1225 438 1575 428 
Q 2219 413 2409 384 
Q 2700 344 2873 169 
Q 3047 -6 3047 -263 
Q 3047 -616 2716 -925 
Q 2228 -1381 1444 -1381 
Q 841 -1381 425 -1109 
Q 191 -953 191 -784 
Q 191 -709 225 -634 
Q 278 -519 444 -313 
Q 466 -284 763 25 
Q 600 122 533 198 
Q 466 275 466 372 
Q 466 481 555 628 
Q 644 775 966 1044 
z
M 1509 2797 
Q 1278 2797 1122 2612 
Q 966 2428 966 2047 
Q 966 1553 1178 1281 
Q 1341 1075 1591 1075 
Q 1828 1075 1981 1253 
Q 2134 1431 2134 1813 
Q 2134 2309 1919 2591 
Q 1759 2797 1509 2797 
z
M 934 0 
Q 788 -159 713 -296 
Q 638 -434 638 -550 
Q 638 -700 819 -813 
Q 1131 -1006 1722 -1006 
Q 2284 -1006 2551 -807 
Q 2819 -609 2819 -384 
Q 2819 -222 2659 -153 
Q 2497 -84 2016 -72 
Q 1313 -53 934 0 
z
" id="TimesNewRomanPSMT-67" transform="scale(0.015625)"/>
      </defs>
      <use xlink:href="#TimesNewRomanPSMT-56"/>
      <use x="59.341797" xlink:href="#TimesNewRomanPSMT-6f"/>
      <use x="109.341797" xlink:href="#TimesNewRomanPSMT-6c"/>
      <use x="137.125" xlink:href="#TimesNewRomanPSMT-61"/>
      <use x="181.509766" xlink:href="#TimesNewRomanPSMT-74"/>
      <use x="209.292969" xlink:href="#TimesNewRomanPSMT-61"/>
      <use x="253.677734" xlink:href="#TimesNewRomanPSMT-67"/>
      <use x="303.677734" xlink:href="#TimesNewRomanPSMT-65"/>
      <use x="348.0625" xlink:href="#TimesNewRomanPSMT-20"/>
      <use x="373.0625" xlink:href="#TimesNewRomanPSMT-28"/>
      <use x="406.363281" xlink:href="#TimesNewRomanPSMT-56"/>
      <use x="478.580078" xlink:href="#TimesNewRomanPSMT-29"/>
     </g>
    </g>
   </g>
   <g id="LineCollection_1">
    <path clip-path="url(#p63704307fd)" d="M 78.555057 154.460375 
L 382.918693 154.460375 
" style="fill:none;stroke:#1f77b4;stroke-width:1.5;"/>
   </g>
   <g id="line2d_23">
    <path clip-path="url(#p63704307fd)" d="M 78.555057 154.42443 
L 78.707239 154.384313 
L 78.85942 154.464547 
L 78.981166 154.384313 
L 79.072475 154.464547 
L 79.102911 154.42443 
L 79.255093 154.464547 
L 87.65553 154.54478 
L 87.777275 154.54478 
L 99.830075 154.464547 
L 99.95182 154.464547 
L 107.134802 154.384313 
L 107.226111 154.344197 
L 107.256548 154.384313 
L 110.939348 154.464547 
L 111.061093 154.464547 
L 111.882875 154.54478 
L 112.00462 154.54478 
L 112.582911 154.584897 
L 112.613348 154.665131 
L 112.704657 154.625014 
L 112.856839 154.705247 
L 112.978584 154.705247 
L 113.496002 154.785481 
L 113.648184 154.825598 
L 114.074293 154.905831 
L 114.256911 155.026181 
L 114.34822 154.986064 
L 114.378657 155.026181 
L 114.804766 155.106415 
L 114.987384 155.186648 
L 115.413493 155.266882 
L 115.565675 155.347115 
L 115.656984 155.306998 
L 115.68742 155.347115 
L 115.870039 155.427349 
L 116.35702 155.507582 
L 116.478766 155.587816 
L 116.509202 155.547699 
L 116.996184 155.627932 
L 117.11793 155.708166 
L 117.148366 155.668049 
L 117.665784 155.748283 
L 117.848402 155.828516 
L 118.36582 155.90875 
L 118.548439 155.988983 
L 119.03542 156.069217 
L 119.187602 156.14945 
L 119.309348 156.109333 
L 119.46153 156.2698 
L 119.644148 156.350034 
L 119.826766 156.430267 
L 119.918075 156.430267 
L 120.161566 156.590734 
L 120.344184 156.630851 
L 120.46593 156.791318 
L 120.496366 156.751201 
L 120.952911 157.192485 
L 121.013784 157.232602 
L 121.196402 157.433186 
L 121.287711 157.513419 
L 122.079057 158.716922 
L 122.566039 159.759957 
L 122.626911 159.84019 
L 122.900839 160.522175 
L 123.05302 160.883226 
L 123.38782 161.765794 
L 124.14873 164.052449 
L 124.422657 164.975134 
L 124.48353 165.135601 
L 124.81833 166.339103 
L 125.092257 167.342021 
L 125.548802 169.187391 
L 126.461893 173.239182 
L 127.618475 178.81541 
L 127.74022 179.417161 
L 128.683748 183.830004 
L 131.301275 193.738839 
L 132.031748 195.383625 
L 132.396984 195.704559 
L 132.51873 195.784793 
L 132.670911 195.824909 
L 133.157893 195.744676 
L 133.797057 194.781874 
L 134.040548 194.22024 
L 134.10142 194.140006 
L 135.44062 190.328916 
L 136.11022 187.280043 
L 136.658075 183.830004 
L 137.571166 177.090391 
L 139.945202 154.18373 
L 143.049711 111.860565 
L 144.48022 90.959742 
L 145.606366 74.672344 
L 146.732511 59.949502 
L 147.676039 48.917388 
L 149.076111 35.237582 
L 149.623966 30.945093 
L 149.92833 28.859026 
L 150.93273 24.08513 
L 151.480584 22.921742 
L 151.998002 22.400221 
L 152.089311 22.400221 
L 152.241493 22.36011 
L 152.424111 22.440344 
L 152.637166 22.560691 
L 152.667602 22.560691 
L 152.880657 22.961865 
L 153.154584 23.483373 
L 154.311166 28.417739 
L 155.924293 42.057435 
L 156.472148 48.115066 
L 157.446111 60.912301 
L 158.450511 76.999112 
L 160.581057 118.279244 
L 166.972693 259.089011 
L 168.67713 288.614944 
L 170.35113 309.275063 
L 171.416402 318.100741 
L 172.116439 321.992065 
L 172.451239 323.15545 
L 172.877348 324.399072 
L 173.212148 324.72 
L 173.425202 324.599656 
L 173.546948 324.519419 
L 174.307857 323.356034 
L 174.551348 322.593819 
L 174.642657 322.313005 
L 175.61662 318.020504 
L 176.164475 314.570467 
L 177.808039 300.730191 
L 179.177675 285.124781 
L 180.273384 270.843217 
L 181.582148 252.148814 
L 182.860475 232.090446 
L 184.32142 207.177951 
L 185.99542 180.379963 
L 189.921711 125.058972 
L 193.087093 88.753321 
L 194.395857 77.681096 
L 197.165566 56.659926 
L 197.682984 53.370356 
L 198.04822 51.68545 
L 198.261275 50.923238 
L 198.596075 49.438909 
L 199.14393 47.072024 
L 199.783093 45.106301 
L 200.574439 42.378362 
L 200.939675 41.736497 
L 201.609275 40.252181 
L 201.883202 40.051588 
L 202.613675 39.971367 
L 202.82673 39.851007 
L 202.857166 39.89113 
L 202.918039 39.810897 
L 203.009348 39.810897 
L 203.191966 39.89113 
L 203.313711 39.971367 
L 203.557202 40.131825 
L 203.587639 40.131825 
L 203.709384 40.292291 
L 203.83113 40.292291 
L 204.257239 40.372528 
L 204.83553 41.29521 
L 205.17033 41.896964 
L 205.596439 42.578943 
L 205.900802 43.34117 
L 208.335711 50.040667 
L 208.944439 52.688368 
L 210.131457 57.823315 
L 210.831493 60.952418 
L 210.892366 61.153001 
L 212.170693 67.3711 
L 212.292439 67.972848 
L 212.53593 69.336817 
L 214.301239 81.692774 
L 215.396948 91.200442 
L 217.436184 111.539631 
L 218.105784 118.720528 
L 219.688475 136.57248 
L 222.57993 172.115914 
L 223.91913 189.927748 
L 226.810584 226.634572 
L 227.388875 233.895699 
L 228.484584 246.893524 
L 228.94113 252.108697 
L 229.641166 259.129134 
L 230.980366 270.562403 
L 231.406475 273.330461 
L 231.771711 275.697349 
L 232.076075 277.302022 
L 232.684802 280.150304 
L 233.232657 282.517189 
L 234.084875 284.482913 
L 234.571857 285.044547 
L 234.602293 285.004434 
L 234.906657 284.76373 
L 234.997966 284.683496 
L 235.576257 284.081739 
L 235.63713 284.001518 
L 235.97193 283.118947 
L 236.184984 282.316608 
L 236.824148 279.508436 
L 237.158948 277.743293 
L 238.132911 270.642636 
L 240.841748 244.64699 
L 242.546184 223.144409 
L 243.611457 209.264018 
L 244.859348 193.177204 
L 250.216148 117.035625 
L 252.346693 95.693514 
L 254.264184 83.778845 
L 254.446802 83.016623 
L 254.96422 80.850319 
L 255.816439 77.921803 
L 256.699093 75.875849 
L 256.759966 75.795613 
L 257.003457 75.595026 
L 257.125202 75.595026 
L 257.429566 75.354329 
L 257.673057 75.314212 
L 257.703493 75.233975 
L 257.794802 75.274095 
L 257.946984 75.394445 
L 258.099166 75.474682 
L 258.342657 75.635146 
L 259.042693 75.675262 
L 259.194875 75.835733 
L 259.377493 75.91596 
L 259.620984 76.156667 
L 259.65142 76.116547 
L 259.773166 76.116547 
L 260.016657 76.27701 
L 260.168839 76.317127 
L 260.351457 76.517717 
L 260.473202 76.597944 
L 260.74713 77.039232 
L 260.777566 77.039232 
L 260.960184 77.320046 
L 261.294984 77.921803 
L 261.508039 78.322971 
L 261.842839 79.245653 
L 261.903711 79.325886 
L 262.451566 81.050906 
L 262.75593 82.053825 
L 263.029857 83.136977 
L 264.277748 88.51262 
L 266.316984 99.825545 
L 268.325784 113.786169 
L 269.969348 125.901426 
L 270.882439 132.641038 
L 271.46073 137.013764 
L 272.069457 141.747539 
L 272.586875 145.518513 
L 273.37822 150.934274 
L 275.752257 162.889063 
L 277.274075 168.46529 
L 277.761057 170.029844 
L 278.339348 171.875214 
L 279.252439 174.121751 
L 279.282875 174.081635 
L 279.465493 174.442686 
L 279.678548 174.843853 
L 279.982911 175.405487 
L 280.043784 175.485721 
L 281.656911 177.451442 
L 281.687348 177.411324 
L 281.74822 177.491558 
L 281.930839 177.571791 
L 282.052584 177.652024 
L 282.326511 177.892726 
L 282.356948 177.812491 
L 282.448257 177.852608 
L 282.600439 178.013075 
L 283.270039 177.932842 
L 283.452657 177.852608 
L 283.696148 177.772375 
L 283.939639 177.611908 
L 284.09182 177.531675 
L 284.609239 177.010157 
L 284.670111 176.97004 
L 284.85273 176.72934 
L 284.974475 176.689222 
L 285.157093 176.448522 
L 285.217966 176.368289 
L 285.826693 175.405487 
L 286.161493 174.803736 
L 286.465857 174.282217 
L 286.648475 173.840933 
L 286.891966 173.399649 
L 287.135457 172.878131 
L 287.592002 171.955447 
L 287.805057 171.514163 
L 288.048548 171.112995 
L 288.078984 171.153112 
L 288.10942 171.032762 
L 289.326875 169.58856 
L 289.600802 169.548442 
L 289.722548 169.428092 
L 289.844293 169.428092 
L 290.057348 169.267625 
L 290.239966 169.347858 
L 290.331275 169.347858 
L 290.513893 169.548442 
L 291.061748 170.110077 
L 291.153057 170.150193 
L 291.426984 170.591477 
L 291.670475 171.072879 
L 293.13142 175.204903 
L 293.648839 176.809573 
L 294.288002 178.775294 
L 294.592366 179.858445 
L 294.683675 180.139263 
L 295.170657 181.663699 
L 295.444584 182.6265 
L 295.56633 182.947436 
L 296.175057 184.913157 
L 297.605566 188.443429 
L 297.666439 188.523662 
L 297.940366 188.964946 
L 297.970802 188.92483 
L 298.001239 189.04518 
L 298.518657 189.887631 
L 298.792584 190.369032 
L 298.883893 190.449266 
L 299.188257 190.689966 
L 299.431748 190.730083 
L 299.614366 190.930667 
L 300.16222 191.492301 
L 300.770948 191.412068 
L 300.892693 191.371951 
L 301.105748 191.492301 
L 301.562293 191.412068 
L 302.049275 190.930667 
L 302.201457 190.850433 
L 302.384075 190.689966 
L 302.414511 190.7702 
L 302.475384 190.730083 
L 302.688439 190.609733 
L 302.871057 190.569616 
L 303.053675 190.328916 
L 303.17542 190.248682 
L 303.723275 189.687048 
L 303.814584 189.646931 
L 304.027639 189.366114 
L 304.636366 188.403312 
L 304.879857 187.80156 
L 304.910293 187.80156 
L 305.18422 187.159693 
L 305.488584 186.598058 
L 306.27993 184.23117 
L 308.319166 175.766538 
L 308.86702 172.878131 
L 310.662766 162.889063 
L 311.423675 157.673886 
L 311.575857 156.630851 
L 312.732439 148.286569 
L 313.462911 143.392326 
L 313.949893 140.303336 
L 314.64993 135.609677 
L 315.167348 132.320105 
L 315.806511 128.147963 
L 316.293493 125.620607 
L 316.628293 123.895588 
L 317.084839 121.608934 
L 320.098039 110.095428 
L 320.219784 109.774495 
L 321.802475 105.88317 
L 321.954657 105.522123 
L 322.472075 104.398851 
L 322.502511 104.398851 
L 322.654693 104.118037 
L 322.989493 103.516283 
L 323.232984 103.034885 
L 323.93302 101.430212 
L 323.963457 101.430212 
L 324.146075 101.109278 
L 324.541748 100.46741 
L 324.724366 100.066243 
L 324.754802 100.106359 
L 324.785239 100.026126 
L 325.02873 99.665075 
L 325.333093 99.384258 
L 325.393966 99.424375 
L 325.424402 99.384258 
L 325.546148 99.344141 
L 325.69833 99.384258 
L 325.820075 99.304024 
L 325.850511 99.344141 
L 326.094002 99.384258 
L 326.246184 99.504611 
L 326.337493 99.584838 
L 327.585384 101.390092 
L 329.320257 106.244221 
L 330.29422 110.536713 
L 330.811639 113.224534 
L 334.890111 135.248627 
L 335.255348 137.334697 
L 335.620584 139.180068 
L 336.168439 142.068473 
L 339.66862 159.960541 
L 342.834002 172.035681 
L 344.660184 176.608989 
L 344.69062 176.608989 
L 344.873239 176.97004 
L 344.934111 177.050273 
L 346.516802 179.296812 
L 346.851602 179.898563 
L 348.403857 181.784049 
L 348.586475 181.824166 
L 348.677784 181.904401 
L 348.70822 181.864283 
L 348.890839 181.944515 
L 349.195202 182.02475 
L 349.316948 182.064867 
L 349.438693 182.064867 
L 349.621311 182.145099 
L 350.71702 182.225334 
L 350.838766 182.225334 
L 351.295311 182.145099 
L 351.47793 182.064867 
L 351.569239 182.02475 
L 351.690984 181.904401 
L 351.843166 181.944515 
L 352.14753 181.703817 
L 352.208402 181.623582 
L 352.664948 181.182299 
L 352.72582 181.102064 
L 353.212802 180.620664 
L 353.273675 180.580547 
L 353.48673 180.299729 
L 354.308511 179.296812 
L 354.338948 179.336927 
L 354.49113 179.256694 
L 354.947675 178.81541 
L 355.038984 178.81541 
L 355.373784 178.534593 
L 355.49553 178.534593 
L 355.647711 178.414243 
L 355.799893 178.33401 
L 355.952075 178.253775 
L 355.982511 178.33401 
L 356.043384 178.293892 
L 356.195566 178.253775 
L 356.530366 178.173542 
L 356.682548 178.133426 
L 357.230402 178.093308 
L 357.260839 178.013075 
L 357.352148 178.053192 
L 357.473893 178.053192 
L 357.960875 177.972959 
L 358.204366 177.812491 
L 358.295675 177.892726 
L 358.326111 177.852608 
L 358.600039 177.652024 
L 358.904402 177.571791 
L 359.117457 177.451442 
L 359.360948 177.371207 
L 359.665311 177.130507 
L 359.695748 177.170624 
L 359.75662 177.090391 
L 359.908802 177.050273 
L 360.152293 177.010157 
L 360.304475 176.889806 
L 360.943639 176.207822 
L 361.034948 176.167705 
L 361.217566 175.967121 
L 361.978475 174.843853 
L 362.19153 174.442686 
L 362.556766 173.7607 
L 362.617639 173.720584 
L 363.135057 172.637432 
L 363.408984 172.115914 
L 363.804657 171.353696 
L 364.048148 170.872295 
L 364.474257 170.029844 
L 365.11342 169.067042 
L 365.296039 168.786225 
L 366.635239 167.181555 
L 366.726548 167.101321 
L 367.000475 166.860621 
L 367.030911 166.900737 
L 367.091784 166.820504 
L 367.730948 166.138519 
L 367.88313 166.058286 
L 367.974439 165.937935 
L 368.004875 166.018169 
L 368.248366 165.857702 
L 368.430984 165.777469 
L 368.583166 165.617002 
L 368.674475 165.536768 
L 368.948402 165.336185 
L 369.039711 165.255951 
L 369.283202 165.095484 
L 369.344075 165.135601 
L 369.374511 165.055367 
L 369.55713 164.975134 
L 369.678875 164.8949 
L 369.983239 164.614083 
L 370.013675 164.6542 
L 370.044111 164.573966 
L 370.348475 164.293149 
L 370.378911 164.333265 
L 370.439784 164.253032 
L 370.591966 164.052449 
L 370.622402 164.092566 
L 370.652839 163.972215 
L 371.657239 162.80883 
L 371.718111 162.728596 
L 373.270366 160.802992 
L 373.300802 160.843109 
L 373.331239 160.762876 
L 373.605166 160.321591 
L 374.000839 159.719841 
L 374.183457 159.318673 
L 374.48782 158.757038 
L 375.005239 157.673886 
L 375.15742 157.312836 
L 379.235893 146.280731 
L 379.692439 144.916762 
L 380.240293 143.191743 
L 380.51422 142.269057 
L 380.909893 140.985322 
L 381.18382 140.102753 
L 381.914293 137.615515 
L 382.005602 137.334697 
L 382.462148 135.850378 
L 382.918693 134.285824 
L 382.918693 134.285824 
" style="fill:none;stroke:#0000ff;stroke-linecap:square;stroke-width:1.5;"/>
   </g>
   <g id="line2d_24">
    <path clip-path="url(#p63704307fd)" d="M 78.555057 154.434941 
L 78.828984 154.495116 
L 79.042039 154.475057 
L 79.224657 154.515174 
L 79.346402 154.515174 
L 79.559457 154.535233 
L 83.059639 154.434941 
L 83.242257 154.434941 
L 92.555784 154.354707 
L 92.707966 154.31459 
L 92.738402 154.374766 
L 92.829711 154.31459 
L 95.964657 154.234357 
L 96.086402 154.214299 
L 96.299457 154.234357 
L 98.795239 154.134065 
L 98.977857 154.134065 
L 100.28662 154.214299 
L 100.499675 154.31459 
L 101.778002 155.277392 
L 102.660657 156.621303 
L 103.665057 158.847783 
L 104.456402 161.234729 
L 105.339057 164.524302 
L 110.117566 186.046936 
L 111.152402 189.095807 
L 112.33942 191.201936 
L 112.826402 191.683337 
L 113.496002 191.583045 
L 113.861239 191.28217 
L 114.135166 190.981294 
L 114.865639 189.336508 
L 115.44393 187.47108 
L 115.77873 186.327751 
L 116.752693 181.313158 
L 117.483166 176.900317 
L 118.518002 169.378428 
L 120.70942 151.165426 
L 125.274875 110.065822 
L 126.218402 104.028252 
L 127.16193 99.093893 
L 128.16633 94.380176 
L 128.805493 91.912993 
L 129.962075 89.104821 
L 130.053384 89.044649 
L 130.75342 88.302492 
L 131.118657 88.182139 
L 131.42302 88.282431 
L 131.605639 88.262375 
L 131.727384 88.222255 
L 132.123057 87.861205 
L 132.366548 87.620507 
L 132.823093 87.700735 
L 133.09702 87.901321 
L 133.584002 88.001613 
L 134.253602 88.563245 
L 134.953639 89.305408 
L 135.410184 89.405699 
L 135.684111 89.706578 
L 136.20153 90.508907 
L 136.992875 91.110664 
L 137.358111 91.792649 
L 137.44942 91.953109 
L 138.423384 94.099362 
L 138.849493 95.864498 
L 140.371311 103.40644 
L 142.045311 112.813819 
L 143.47582 122.943297 
L 146.123784 143.021727 
L 146.671639 147.354335 
L 147.58473 155.437859 
L 148.376075 162.157414 
L 151.145784 184.943724 
L 152.363239 193.709233 
L 154.037239 202.9762 
L 154.95033 206.366062 
L 155.346002 207.529451 
L 156.015602 208.632658 
L 156.167784 208.833245 
L 156.472148 209.214354 
L 156.593893 209.314643 
L 156.928693 209.434996 
L 157.141748 209.414941 
L 157.689602 209.314643 
L 158.146148 208.913482 
L 159.150548 207.1684 
L 159.728839 206.225657 
L 160.398439 204.661104 
L 162.285493 199.40581 
L 164.416039 190.54001 
L 165.207384 186.949563 
L 167.520548 176.800025 
L 168.129275 175.175296 
L 168.524948 174.413079 
L 169.438039 173.390103 
L 170.35113 173.470336 
L 171.081602 174.573546 
L 171.477275 175.51629 
L 172.02513 176.840143 
L 172.69473 179.427672 
L 173.69913 183.800396 
L 174.460039 187.651604 
L 175.586184 194.150517 
L 176.529711 200.188087 
L 178.234148 212.142876 
L 179.421166 220.005761 
L 180.699493 225.421515 
L 182.190875 229.092197 
L 182.373493 229.312839 
L 182.64742 229.754127 
L 183.012657 230.055005 
L 183.286584 229.954707 
L 183.773566 229.132314 
L 184.65622 226.544787 
L 185.447566 222.372646 
L 185.964984 218.681902 
L 186.66502 212.283285 
L 187.66942 201.291297 
L 189.373857 178.605279 
L 190.621748 158.968133 
L 192.874039 120.81711 
L 195.765493 78.67447 
L 197.04382 64.774019 
L 198.443893 52.819226 
L 200.574439 39.480406 
L 201.426657 36.030369 
L 201.700584 35.488799 
L 202.309311 34.525991 
L 202.918039 34.225115 
L 204.135493 35.127749 
L 204.652911 36.371371 
L 205.352948 39.059183 
L 205.779057 41.506304 
L 210.131457 73.840403 
L 212.383748 92.193816 
L 215.305639 114.418489 
L 216.644839 124.909018 
L 217.831857 134.155927 
L 221.545093 160.271927 
L 223.553893 172.808409 
L 224.436548 178.043644 
L 225.532257 184.542556 
L 227.236693 192.947014 
L 228.362839 197.640673 
L 229.975966 202.595091 
L 231.436911 205.242796 
L 231.497784 205.32303 
L 233.20222 208.452133 
L 233.476148 208.993709 
L 234.602293 211.661472 
L 235.119711 212.925153 
L 235.88062 214.650169 
L 236.55022 215.713266 
L 237.067639 216.495543 
L 238.254657 217.899629 
L 238.285093 217.879574 
L 238.31553 217.939746 
L 238.55902 218.080154 
L 238.954693 218.220563 
L 239.137311 218.220563 
L 239.289493 218.200505 
L 239.89822 218.100216 
L 240.172148 218.040038 
L 240.872184 218.120271 
L 241.054802 218.200505 
L 241.32873 218.280741 
L 241.511348 218.340913 
L 241.937457 218.501377 
L 242.272257 218.601675 
L 242.485311 218.701964 
L 243.550584 219.524357 
L 244.159311 220.507217 
L 246.289857 224.940121 
L 246.563784 225.501752 
L 247.111639 226.404379 
L 247.59862 227.146535 
L 247.68993 227.246833 
L 248.085602 227.788409 
L 248.35953 228.069223 
L 248.572584 228.269807 
L 250.003093 228.169515 
L 250.520511 227.668056 
L 250.916184 227.28695 
L 251.737966 226.023273 
L 252.62062 223.415681 
L 253.351093 220.10605 
L 254.72073 212.30334 
L 255.664257 205.403263 
L 257.246948 190.921119 
L 259.042693 170.842689 
L 260.290584 154.735816 
L 266.408293 71.553752 
L 268.02142 54.704716 
L 268.69102 49.188667 
L 269.78673 42.027825 
L 270.517202 39.159478 
L 271.12593 37.514695 
L 271.765093 36.852765 
L 272.221639 36.672234 
L 272.830366 37.173693 
L 273.773893 39.259764 
L 274.504366 42.047887 
L 276.239239 52.999758 
L 277.426257 62.407128 
L 279.435057 81.943985 
L 281.230802 100.818913 
L 286.983275 160.332102 
L 290.422584 191.041469 
L 291.305239 197.700849 
L 291.88353 201.792756 
L 292.88793 208.271607 
L 293.922766 213.78766 
L 294.835857 216.956882 
L 296.022875 219.805174 
L 296.296802 220.326692 
L 296.601166 220.96856 
L 297.81862 222.412763 
L 298.062111 222.513054 
L 298.305602 222.553171 
L 298.670839 222.452883 
L 299.736111 221.630489 
L 300.192657 220.868271 
L 300.740511 219.704882 
L 300.92313 219.303715 
L 303.084111 211.801881 
L 303.966766 206.606769 
L 305.701639 193.227832 
L 307.010402 182.957945 
L 310.054039 161.676013 
L 310.96713 156.90212 
L 311.575857 154.053832 
L 312.397639 150.302916 
L 313.706402 144.686572 
L 314.22382 142.540326 
L 314.680366 140.654839 
L 315.441275 137.626025 
L 316.050002 135.740538 
L 316.476111 134.296335 
L 317.389202 131.668688 
L 318.028366 129.68291 
L 318.606657 128.158472 
L 318.819711 127.697131 
L 319.276257 126.553805 
L 322.106839 119.392965 
L 322.837311 117.708062 
L 323.232984 116.965902 
L 324.237384 114.739423 
L 324.815675 113.495804 
L 324.967857 113.134753 
L 325.911384 110.406815 
L 326.885348 108.140219 
L 328.589784 104.991051 
L 328.741966 104.770409 
L 329.259384 103.988136 
L 330.263784 102.824747 
L 330.415966 102.724455 
L 331.116002 102.383466 
L 331.29862 102.383466 
L 331.450802 102.383466 
L 331.755166 102.463703 
L 331.998657 102.54393 
L 332.242148 102.7044 
L 332.363893 102.804692 
L 332.759566 103.185798 
L 334.250948 105.332047 
L 334.798802 106.655899 
L 335.681457 109.263487 
L 336.533675 112.19201 
L 337.781566 116.665027 
L 340.246911 128.539582 
L 342.925311 145.468848 
L 343.412293 148.618013 
L 344.508002 156.561128 
L 345.390657 163.721966 
L 346.395057 171.986017 
L 350.260475 199.205226 
L 352.117093 209.555346 
L 353.638911 216.054256 
L 355.038984 220.286575 
L 355.860766 222.152004 
L 356.286875 222.793872 
L 356.378184 222.833988 
L 356.682548 222.954339 
L 356.83473 222.89416 
L 356.956475 222.874105 
L 357.74782 222.252292 
L 359.208766 219.12319 
L 359.695748 217.157472 
L 362.465457 200.067736 
L 363.317675 193.749349 
L 365.326475 177.000609 
L 366.635239 165.948446 
L 368.339675 150.423266 
L 369.496257 140.093205 
L 370.409348 131.327696 
L 371.748548 119.152265 
L 373.179057 108.721911 
L 374.426948 100.477924 
L 375.705275 94.320004 
L 376.983602 89.706578 
L 377.92713 86.958578 
L 378.718475 85.634729 
L 379.17502 85.213496 
L 379.448948 85.113208 
L 379.692439 85.073091 
L 379.905493 85.093153 
L 380.27073 85.17338 
L 380.51422 85.313795 
L 381.062075 85.795192 
L 381.792548 86.938516 
L 382.705639 89.044649 
L 382.918693 89.60628 
L 382.918693 89.60628 
" style="fill:none;stroke:#ff0000;stroke-linecap:square;stroke-width:1.5;"/>
   </g>
   <g id="line2d_25">
    <path clip-path="url(#p63704307fd)" d="M 123.81393 163.009413 
" style="fill:none;stroke:#ffffff;stroke-linecap:square;stroke-width:1.5;"/>
    <defs>
     <path d="M 0 -5 
L -1.12257 -1.545085 
L -4.755283 -1.545085 
L -1.816356 0.59017 
L -2.938926 4.045085 
L -0 1.90983 
L 2.938926 4.045085 
L 1.816356 0.59017 
L 4.755283 -1.545085 
L 1.12257 -1.545085 
z
" id="md26b3fde27" style="stroke:#ffffff;stroke-linejoin:bevel;"/>
    </defs>
    <g clip-path="url(#p63704307fd)">
     <use style="fill:#0000ff;stroke:#ffffff;stroke-linejoin:bevel;" x="123.81393" xlink:href="#md26b3fde27" y="163.009413"/>
    </g>
   </g>
   <g id="line2d_26">
    <path clip-path="url(#p63704307fd)" d="M 104.243348 160.59286 
" style="fill:none;stroke:#ffffff;stroke-linecap:square;stroke-width:1.5;"/>
    <defs>
     <path d="M 0 -5 
L -1.12257 -1.545085 
L -4.755283 -1.545085 
L -1.816356 0.59017 
L -2.938926 4.045085 
L -0 1.90983 
L 2.938926 4.045085 
L 1.816356 0.59017 
L 4.755283 -1.545085 
L 1.12257 -1.545085 
z
" id="m5d19441732" style="stroke:#ffffff;stroke-linejoin:bevel;"/>
    </defs>
    <g clip-path="url(#p63704307fd)">
     <use style="fill:#ff0000;stroke:#ffffff;stroke-linejoin:bevel;" x="104.243348" xlink:href="#m5d19441732" y="160.59286"/>
    </g>
   </g>
   <g id="patch_3">
    <path d="M 63.336875 339.84 
L 63.336875 7.2 
" style="fill:none;stroke:#000000;stroke-linecap:square;stroke-linejoin:miter;stroke-width:0.8;"/>
   </g>
   <g id="patch_4">
    <path d="M 398.136875 339.84 
L 398.136875 7.2 
" style="fill:none;stroke:#000000;stroke-linecap:square;stroke-linejoin:miter;stroke-width:0.8;"/>
   </g>
   <g id="patch_5">
    <path d="M 63.336875 339.84 
L 398.136875 339.84 
" style="fill:none;stroke:#000000;stroke-linecap:square;stroke-linejoin:miter;stroke-width:0.8;"/>
   </g>
   <g id="patch_6">
    <path d="M 63.336875 7.2 
L 398.136875 7.2 
" style="fill:none;stroke:#000000;stroke-linecap:square;stroke-linejoin:miter;stroke-width:0.8;"/>
   </g>
   <g id="text_14">
    <g id="patch_7">
     <path d="M 75.036875 331.242688 
L 166.79375 331.242688 
L 166.79375 293.760312 
L 75.036875 293.760312 
z
" style="fill:#ffffff;stroke:#000000;stroke-linejoin:miter;stroke-width:0.75;"/>
    </g>
    <!-- Auto_00137 -->
    <g transform="translate(80.076875 308.521562)scale(0.14 -0.14)">
     <defs>
      <path d="M 2928 1419 
L 1288 1419 
L 1000 750 
Q 894 503 894 381 
Q 894 284 986 211 
Q 1078 138 1384 116 
L 1384 0 
L 50 0 
L 50 116 
Q 316 163 394 238 
Q 553 388 747 847 
L 2238 4334 
L 2347 4334 
L 3822 809 
Q 4000 384 4145 257 
Q 4291 131 4550 116 
L 4550 0 
L 2878 0 
L 2878 116 
Q 3131 128 3220 200 
Q 3309 272 3309 375 
Q 3309 513 3184 809 
L 2928 1419 
z
M 2841 1650 
L 2122 3363 
L 1384 1650 
L 2841 1650 
z
" id="TimesNewRomanPSMT-41" transform="scale(0.015625)"/>
      <path d="M 2709 2863 
L 2709 1128 
Q 2709 631 2732 520 
Q 2756 409 2807 365 
Q 2859 322 2928 322 
Q 3025 322 3147 375 
L 3191 266 
L 2334 -88 
L 2194 -88 
L 2194 519 
Q 1825 119 1631 15 
Q 1438 -88 1222 -88 
Q 981 -88 804 51 
Q 628 191 559 409 
Q 491 628 491 1028 
L 491 2306 
Q 491 2509 447 2587 
Q 403 2666 317 2708 
Q 231 2750 6 2747 
L 6 2863 
L 1009 2863 
L 1009 947 
Q 1009 547 1148 422 
Q 1288 297 1484 297 
Q 1619 297 1789 381 
Q 1959 466 2194 703 
L 2194 2325 
Q 2194 2569 2105 2655 
Q 2016 2741 1734 2747 
L 1734 2863 
L 2709 2863 
z
" id="TimesNewRomanPSMT-75" transform="scale(0.015625)"/>
      <path d="M 3256 -1381 
L -53 -1381 
L -53 -1119 
L 3256 -1119 
L 3256 -1381 
z
" id="TimesNewRomanPSMT-5f" transform="scale(0.015625)"/>
      <path d="M 644 4238 
L 2916 4238 
L 2916 4119 
L 1503 -88 
L 1153 -88 
L 2419 3728 
L 1253 3728 
Q 900 3728 750 3644 
Q 488 3500 328 3200 
L 238 3234 
L 644 4238 
z
" id="TimesNewRomanPSMT-37" transform="scale(0.015625)"/>
     </defs>
     <use xlink:href="#TimesNewRomanPSMT-41"/>
     <use x="72.216797" xlink:href="#TimesNewRomanPSMT-75"/>
     <use x="122.216797" xlink:href="#TimesNewRomanPSMT-74"/>
     <use x="150" xlink:href="#TimesNewRomanPSMT-6f"/>
     <use x="200" xlink:href="#TimesNewRomanPSMT-5f"/>
     <use x="250" xlink:href="#TimesNewRomanPSMT-30"/>
     <use x="300" xlink:href="#TimesNewRomanPSMT-30"/>
     <use x="350" xlink:href="#TimesNewRomanPSMT-31"/>
     <use x="400" xlink:href="#TimesNewRomanPSMT-33"/>
     <use x="450" xlink:href="#TimesNewRomanPSMT-37"/>
    </g>
    <!-- Vs: 310.85m/s -->
    <g transform="translate(80.076875 323.208)scale(0.14 -0.14)">
     <defs>
      <path d="M 903 2950 
Q 1047 2950 1148 2848 
Q 1250 2747 1250 2603 
Q 1250 2459 1148 2357 
Q 1047 2256 903 2256 
Q 759 2256 657 2357 
Q 556 2459 556 2603 
Q 556 2747 657 2848 
Q 759 2950 903 2950 
z
M 897 609 
Q 1044 609 1145 506 
Q 1247 403 1247 259 
Q 1247 116 1144 14 
Q 1041 -88 897 -88 
Q 753 -88 651 14 
Q 550 116 550 259 
Q 550 403 651 506 
Q 753 609 897 609 
z
" id="TimesNewRomanPSMT-3a" transform="scale(0.015625)"/>
      <path d="M 1228 2134 
Q 725 2547 579 2797 
Q 434 3047 434 3316 
Q 434 3728 753 4026 
Q 1072 4325 1600 4325 
Q 2113 4325 2425 4047 
Q 2738 3769 2738 3413 
Q 2738 3175 2569 2928 
Q 2400 2681 1866 2347 
Q 2416 1922 2594 1678 
Q 2831 1359 2831 1006 
Q 2831 559 2490 242 
Q 2150 -75 1597 -75 
Q 994 -75 656 303 
Q 388 606 388 966 
Q 388 1247 577 1523 
Q 766 1800 1228 2134 
z
M 1719 2469 
Q 2094 2806 2194 3001 
Q 2294 3197 2294 3444 
Q 2294 3772 2109 3958 
Q 1925 4144 1606 4144 
Q 1288 4144 1088 3959 
Q 888 3775 888 3528 
Q 888 3366 970 3203 
Q 1053 3041 1206 2894 
L 1719 2469 
z
M 1375 2016 
Q 1116 1797 991 1539 
Q 866 1281 866 981 
Q 866 578 1086 336 
Q 1306 94 1647 94 
Q 1984 94 2187 284 
Q 2391 475 2391 747 
Q 2391 972 2272 1150 
Q 2050 1481 1375 2016 
z
" id="TimesNewRomanPSMT-38" transform="scale(0.015625)"/>
      <path d="M 1794 4444 
L 259 -88 
L 9 -88 
L 1544 4444 
L 1794 4444 
z
" id="TimesNewRomanPSMT-2f" transform="scale(0.015625)"/>
     </defs>
     <use xlink:href="#TimesNewRomanPSMT-56"/>
     <use x="72.216797" xlink:href="#TimesNewRomanPSMT-73"/>
     <use x="111.132812" xlink:href="#TimesNewRomanPSMT-3a"/>
     <use x="138.916016" xlink:href="#TimesNewRomanPSMT-20"/>
     <use x="163.916016" xlink:href="#TimesNewRomanPSMT-33"/>
     <use x="213.916016" xlink:href="#TimesNewRomanPSMT-31"/>
     <use x="263.916016" xlink:href="#TimesNewRomanPSMT-30"/>
     <use x="313.916016" xlink:href="#TimesNewRomanPSMT-2e"/>
     <use x="338.916016" xlink:href="#TimesNewRomanPSMT-38"/>
     <use x="388.916016" xlink:href="#TimesNewRomanPSMT-35"/>
     <use x="438.916016" xlink:href="#TimesNewRomanPSMT-6d"/>
     <use x="516.699219" xlink:href="#TimesNewRomanPSMT-2f"/>
     <use x="544.482422" xlink:href="#TimesNewRomanPSMT-73"/>
    </g>
   </g>
  </g>
 </g>
 <defs>
  <clipPath id="p63704307fd">
   <rect height="332.64" width="334.8" x="63.336875" y="7.2"/>
  </clipPath>
 </defs>
</svg>
