<?xml version="1.0" encoding="utf-8" standalone="no"?>
<!DOCTYPE svg PUBLIC "-//W3C//DTD SVG 1.1//EN"
  "http://www.w3.org/Graphics/SVG/1.1/DTD/svg11.dtd">
<svg height="383.471875pt" version="1.1" viewBox="0 0 421.086875 383.471875" width="421.086875pt" xmlns="http://www.w3.org/2000/svg" xmlns:xlink="http://www.w3.org/1999/xlink">
 <metadata>
  <rdf:RDF xmlns:cc="http://creativecommons.org/ns#" xmlns:dc="http://purl.org/dc/elements/1.1/" xmlns:rdf="http://www.w3.org/1999/02/22-rdf-syntax-ns#">
   <cc:Work>
    <dc:type rdf:resource="http://purl.org/dc/dcmitype/StillImage"/>
    <dc:date>2021-06-11T14:39:39.625849</dc:date>
    <dc:format>image/svg+xml</dc:format>
    <dc:creator>
     <cc:Agent>
      <dc:title>Matplotlib v3.4.2, https://matplotlib.org/</dc:title>
     </cc:Agent>
    </dc:creator>
   </cc:Work>
  </rdf:RDF>
 </metadata>
 <defs>
  <style type="text/css">*{stroke-linecap:butt;stroke-linejoin:round;}</style>
 </defs>
 <g id="figure_1">
  <g id="patch_1">
   <path d="M 0 383.471875 
L 421.086875 383.471875 
L 421.086875 0 
L 0 0 
z
" style="fill:#ffffff;"/>
  </g>
  <g id="axes_1">
   <g id="patch_2">
    <path d="M 63.336875 339.84 
L 398.136875 339.84 
L 398.136875 7.2 
L 63.336875 7.2 
z
" style="fill:#ffffff;"/>
   </g>
   <g id="matplotlib.axis_1">
    <g id="xtick_1">
     <g id="line2d_1">
      <path clip-path="url(#p1d77611dbb)" d="M 93.773239 339.84 
L 93.773239 7.2 
" style="fill:none;stroke:#000000;stroke-dasharray:0.5,0.825;stroke-dashoffset:0;stroke-width:0.5;"/>
     </g>
     <g id="line2d_2">
      <defs>
       <path d="M 0 0 
L 0 3.5 
" id="m894ac34636" style="stroke:#000000;stroke-width:0.8;"/>
      </defs>
      <g>
       <use style="stroke:#000000;stroke-width:0.8;" x="93.773239" xlink:href="#m894ac34636" y="339.84"/>
      </g>
     </g>
     <g id="text_1">
      <!-- 0.000 -->
      <g transform="translate(78.023239 356.56125)scale(0.14 -0.14)">
       <defs>
        <path d="M 231 2094 
Q 231 2819 450 3342 
Q 669 3866 1031 4122 
Q 1313 4325 1613 4325 
Q 2100 4325 2488 3828 
Q 2972 3213 2972 2159 
Q 2972 1422 2759 906 
Q 2547 391 2217 158 
Q 1888 -75 1581 -75 
Q 975 -75 572 641 
Q 231 1244 231 2094 
z
M 844 2016 
Q 844 1141 1059 588 
Q 1238 122 1591 122 
Q 1759 122 1940 273 
Q 2122 425 2216 781 
Q 2359 1319 2359 2297 
Q 2359 3022 2209 3506 
Q 2097 3866 1919 4016 
Q 1791 4119 1609 4119 
Q 1397 4119 1231 3928 
Q 1006 3669 925 3112 
Q 844 2556 844 2016 
z
" id="TimesNewRomanPSMT-30" transform="scale(0.015625)"/>
        <path d="M 800 606 
Q 947 606 1047 504 
Q 1147 403 1147 259 
Q 1147 116 1045 14 
Q 944 -88 800 -88 
Q 656 -88 554 14 
Q 453 116 453 259 
Q 453 406 554 506 
Q 656 606 800 606 
z
" id="TimesNewRomanPSMT-2e" transform="scale(0.015625)"/>
       </defs>
       <use xlink:href="#TimesNewRomanPSMT-30"/>
       <use x="50" xlink:href="#TimesNewRomanPSMT-2e"/>
       <use x="75" xlink:href="#TimesNewRomanPSMT-30"/>
       <use x="125" xlink:href="#TimesNewRomanPSMT-30"/>
       <use x="175" xlink:href="#TimesNewRomanPSMT-30"/>
      </g>
     </g>
    </g>
    <g id="xtick_2">
     <g id="line2d_3">
      <path clip-path="url(#p1d77611dbb)" d="M 154.645966 339.84 
L 154.645966 7.2 
" style="fill:none;stroke:#000000;stroke-dasharray:0.5,0.825;stroke-dashoffset:0;stroke-width:0.5;"/>
     </g>
     <g id="line2d_4">
      <g>
       <use style="stroke:#000000;stroke-width:0.8;" x="154.645966" xlink:href="#m894ac34636" y="339.84"/>
      </g>
     </g>
     <g id="text_2">
      <!-- 0.001 -->
      <g transform="translate(138.895966 356.56125)scale(0.14 -0.14)">
       <defs>
        <path d="M 750 3822 
L 1781 4325 
L 1884 4325 
L 1884 747 
Q 1884 391 1914 303 
Q 1944 216 2037 169 
Q 2131 122 2419 116 
L 2419 0 
L 825 0 
L 825 116 
Q 1125 122 1212 167 
Q 1300 213 1334 289 
Q 1369 366 1369 747 
L 1369 3034 
Q 1369 3497 1338 3628 
Q 1316 3728 1258 3775 
Q 1200 3822 1119 3822 
Q 1003 3822 797 3725 
L 750 3822 
z
" id="TimesNewRomanPSMT-31" transform="scale(0.015625)"/>
       </defs>
       <use xlink:href="#TimesNewRomanPSMT-30"/>
       <use x="50" xlink:href="#TimesNewRomanPSMT-2e"/>
       <use x="75" xlink:href="#TimesNewRomanPSMT-30"/>
       <use x="125" xlink:href="#TimesNewRomanPSMT-30"/>
       <use x="175" xlink:href="#TimesNewRomanPSMT-31"/>
      </g>
     </g>
    </g>
    <g id="xtick_3">
     <g id="line2d_5">
      <path clip-path="url(#p1d77611dbb)" d="M 215.518693 339.84 
L 215.518693 7.2 
" style="fill:none;stroke:#000000;stroke-dasharray:0.5,0.825;stroke-dashoffset:0;stroke-width:0.5;"/>
     </g>
     <g id="line2d_6">
      <g>
       <use style="stroke:#000000;stroke-width:0.8;" x="215.518693" xlink:href="#m894ac34636" y="339.84"/>
      </g>
     </g>
     <g id="text_3">
      <!-- 0.002 -->
      <g transform="translate(199.768693 356.56125)scale(0.14 -0.14)">
       <defs>
        <path d="M 2934 816 
L 2638 0 
L 138 0 
L 138 116 
Q 1241 1122 1691 1759 
Q 2141 2397 2141 2925 
Q 2141 3328 1894 3587 
Q 1647 3847 1303 3847 
Q 991 3847 742 3664 
Q 494 3481 375 3128 
L 259 3128 
Q 338 3706 661 4015 
Q 984 4325 1469 4325 
Q 1984 4325 2329 3994 
Q 2675 3663 2675 3213 
Q 2675 2891 2525 2569 
Q 2294 2063 1775 1497 
Q 997 647 803 472 
L 1909 472 
Q 2247 472 2383 497 
Q 2519 522 2628 598 
Q 2738 675 2819 816 
L 2934 816 
z
" id="TimesNewRomanPSMT-32" transform="scale(0.015625)"/>
       </defs>
       <use xlink:href="#TimesNewRomanPSMT-30"/>
       <use x="50" xlink:href="#TimesNewRomanPSMT-2e"/>
       <use x="75" xlink:href="#TimesNewRomanPSMT-30"/>
       <use x="125" xlink:href="#TimesNewRomanPSMT-30"/>
       <use x="175" xlink:href="#TimesNewRomanPSMT-32"/>
      </g>
     </g>
    </g>
    <g id="xtick_4">
     <g id="line2d_7">
      <path clip-path="url(#p1d77611dbb)" d="M 276.39142 339.84 
L 276.39142 7.2 
" style="fill:none;stroke:#000000;stroke-dasharray:0.5,0.825;stroke-dashoffset:0;stroke-width:0.5;"/>
     </g>
     <g id="line2d_8">
      <g>
       <use style="stroke:#000000;stroke-width:0.8;" x="276.39142" xlink:href="#m894ac34636" y="339.84"/>
      </g>
     </g>
     <g id="text_4">
      <!-- 0.003 -->
      <g transform="translate(260.64142 356.56125)scale(0.14 -0.14)">
       <defs>
        <path d="M 325 3431 
Q 506 3859 782 4092 
Q 1059 4325 1472 4325 
Q 1981 4325 2253 3994 
Q 2459 3747 2459 3466 
Q 2459 3003 1878 2509 
Q 2269 2356 2469 2072 
Q 2669 1788 2669 1403 
Q 2669 853 2319 450 
Q 1863 -75 997 -75 
Q 569 -75 414 31 
Q 259 138 259 259 
Q 259 350 332 419 
Q 406 488 509 488 
Q 588 488 669 463 
Q 722 447 909 348 
Q 1097 250 1169 231 
Q 1284 197 1416 197 
Q 1734 197 1970 444 
Q 2206 691 2206 1028 
Q 2206 1275 2097 1509 
Q 2016 1684 1919 1775 
Q 1784 1900 1550 2001 
Q 1316 2103 1072 2103 
L 972 2103 
L 972 2197 
Q 1219 2228 1467 2375 
Q 1716 2522 1828 2728 
Q 1941 2934 1941 3181 
Q 1941 3503 1739 3701 
Q 1538 3900 1238 3900 
Q 753 3900 428 3381 
L 325 3431 
z
" id="TimesNewRomanPSMT-33" transform="scale(0.015625)"/>
       </defs>
       <use xlink:href="#TimesNewRomanPSMT-30"/>
       <use x="50" xlink:href="#TimesNewRomanPSMT-2e"/>
       <use x="75" xlink:href="#TimesNewRomanPSMT-30"/>
       <use x="125" xlink:href="#TimesNewRomanPSMT-30"/>
       <use x="175" xlink:href="#TimesNewRomanPSMT-33"/>
      </g>
     </g>
    </g>
    <g id="xtick_5">
     <g id="line2d_9">
      <path clip-path="url(#p1d77611dbb)" d="M 337.264148 339.84 
L 337.264148 7.2 
" style="fill:none;stroke:#000000;stroke-dasharray:0.5,0.825;stroke-dashoffset:0;stroke-width:0.5;"/>
     </g>
     <g id="line2d_10">
      <g>
       <use style="stroke:#000000;stroke-width:0.8;" x="337.264148" xlink:href="#m894ac34636" y="339.84"/>
      </g>
     </g>
     <g id="text_5">
      <!-- 0.004 -->
      <g transform="translate(321.514148 356.56125)scale(0.14 -0.14)">
       <defs>
        <path d="M 2978 1563 
L 2978 1119 
L 2409 1119 
L 2409 0 
L 1894 0 
L 1894 1119 
L 100 1119 
L 100 1519 
L 2066 4325 
L 2409 4325 
L 2409 1563 
L 2978 1563 
z
M 1894 1563 
L 1894 3666 
L 406 1563 
L 1894 1563 
z
" id="TimesNewRomanPSMT-34" transform="scale(0.015625)"/>
       </defs>
       <use xlink:href="#TimesNewRomanPSMT-30"/>
       <use x="50" xlink:href="#TimesNewRomanPSMT-2e"/>
       <use x="75" xlink:href="#TimesNewRomanPSMT-30"/>
       <use x="125" xlink:href="#TimesNewRomanPSMT-30"/>
       <use x="175" xlink:href="#TimesNewRomanPSMT-34"/>
      </g>
     </g>
    </g>
    <g id="xtick_6">
     <g id="line2d_11">
      <path clip-path="url(#p1d77611dbb)" d="M 398.136875 339.84 
L 398.136875 7.2 
" style="fill:none;stroke:#000000;stroke-dasharray:0.5,0.825;stroke-dashoffset:0;stroke-width:0.5;"/>
     </g>
     <g id="line2d_12">
      <g>
       <use style="stroke:#000000;stroke-width:0.8;" x="398.136875" xlink:href="#m894ac34636" y="339.84"/>
      </g>
     </g>
     <g id="text_6">
      <!-- 0.005 -->
      <g transform="translate(382.386875 356.56125)scale(0.14 -0.14)">
       <defs>
        <path d="M 2778 4238 
L 2534 3706 
L 1259 3706 
L 981 3138 
Q 1809 3016 2294 2522 
Q 2709 2097 2709 1522 
Q 2709 1188 2573 903 
Q 2438 619 2231 419 
Q 2025 219 1772 97 
Q 1413 -75 1034 -75 
Q 653 -75 479 54 
Q 306 184 306 341 
Q 306 428 378 495 
Q 450 563 559 563 
Q 641 563 702 538 
Q 763 513 909 409 
Q 1144 247 1384 247 
Q 1750 247 2026 523 
Q 2303 800 2303 1197 
Q 2303 1581 2056 1914 
Q 1809 2247 1375 2428 
Q 1034 2569 447 2591 
L 1259 4238 
L 2778 4238 
z
" id="TimesNewRomanPSMT-35" transform="scale(0.015625)"/>
       </defs>
       <use xlink:href="#TimesNewRomanPSMT-30"/>
       <use x="50" xlink:href="#TimesNewRomanPSMT-2e"/>
       <use x="75" xlink:href="#TimesNewRomanPSMT-30"/>
       <use x="125" xlink:href="#TimesNewRomanPSMT-30"/>
       <use x="175" xlink:href="#TimesNewRomanPSMT-35"/>
      </g>
     </g>
    </g>
    <g id="text_7">
     <!-- Time (sec) -->
     <g transform="translate(200.858906 373.277188)scale(0.14 -0.14)">
      <defs>
       <path d="M 3703 4238 
L 3750 3244 
L 3631 3244 
Q 3597 3506 3538 3619 
Q 3441 3800 3280 3886 
Q 3119 3972 2856 3972 
L 2259 3972 
L 2259 734 
Q 2259 344 2344 247 
Q 2463 116 2709 116 
L 2856 116 
L 2856 0 
L 1059 0 
L 1059 116 
L 1209 116 
Q 1478 116 1591 278 
Q 1659 378 1659 734 
L 1659 3972 
L 1150 3972 
Q 853 3972 728 3928 
Q 566 3869 450 3700 
Q 334 3531 313 3244 
L 194 3244 
L 244 4238 
L 3703 4238 
z
" id="TimesNewRomanPSMT-54" transform="scale(0.015625)"/>
       <path d="M 928 4444 
Q 1059 4444 1151 4351 
Q 1244 4259 1244 4128 
Q 1244 3997 1151 3903 
Q 1059 3809 928 3809 
Q 797 3809 703 3903 
Q 609 3997 609 4128 
Q 609 4259 701 4351 
Q 794 4444 928 4444 
z
M 1188 2947 
L 1188 647 
Q 1188 378 1227 289 
Q 1266 200 1342 156 
Q 1419 113 1622 113 
L 1622 0 
L 231 0 
L 231 113 
Q 441 113 512 153 
Q 584 194 626 287 
Q 669 381 669 647 
L 669 1750 
Q 669 2216 641 2353 
Q 619 2453 572 2492 
Q 525 2531 444 2531 
Q 356 2531 231 2484 
L 188 2597 
L 1050 2947 
L 1188 2947 
z
" id="TimesNewRomanPSMT-69" transform="scale(0.015625)"/>
       <path d="M 1050 2338 
Q 1363 2650 1419 2697 
Q 1559 2816 1721 2881 
Q 1884 2947 2044 2947 
Q 2313 2947 2506 2790 
Q 2700 2634 2766 2338 
Q 3088 2713 3309 2830 
Q 3531 2947 3766 2947 
Q 3994 2947 4170 2830 
Q 4347 2713 4450 2447 
Q 4519 2266 4519 1878 
L 4519 647 
Q 4519 378 4559 278 
Q 4591 209 4675 161 
Q 4759 113 4950 113 
L 4950 0 
L 3538 0 
L 3538 113 
L 3597 113 
Q 3781 113 3884 184 
Q 3956 234 3988 344 
Q 4000 397 4000 647 
L 4000 1878 
Q 4000 2228 3916 2372 
Q 3794 2572 3525 2572 
Q 3359 2572 3192 2489 
Q 3025 2406 2788 2181 
L 2781 2147 
L 2788 2013 
L 2788 647 
Q 2788 353 2820 281 
Q 2853 209 2943 161 
Q 3034 113 3253 113 
L 3253 0 
L 1806 0 
L 1806 113 
Q 2044 113 2133 169 
Q 2222 225 2256 338 
Q 2272 391 2272 647 
L 2272 1878 
Q 2272 2228 2169 2381 
Q 2031 2581 1784 2581 
Q 1616 2581 1450 2491 
Q 1191 2353 1050 2181 
L 1050 647 
Q 1050 366 1089 281 
Q 1128 197 1204 155 
Q 1281 113 1516 113 
L 1516 0 
L 100 0 
L 100 113 
Q 297 113 375 155 
Q 453 197 493 289 
Q 534 381 534 647 
L 534 1741 
Q 534 2213 506 2350 
Q 484 2453 437 2492 
Q 391 2531 309 2531 
Q 222 2531 100 2484 
L 53 2597 
L 916 2947 
L 1050 2947 
L 1050 2338 
z
" id="TimesNewRomanPSMT-6d" transform="scale(0.015625)"/>
       <path d="M 681 1784 
Q 678 1147 991 784 
Q 1303 422 1725 422 
Q 2006 422 2214 576 
Q 2422 731 2563 1106 
L 2659 1044 
Q 2594 616 2278 264 
Q 1963 -88 1488 -88 
Q 972 -88 605 314 
Q 238 716 238 1394 
Q 238 2128 614 2539 
Q 991 2950 1559 2950 
Q 2041 2950 2350 2633 
Q 2659 2316 2659 1784 
L 681 1784 
z
M 681 1966 
L 2006 1966 
Q 1991 2241 1941 2353 
Q 1863 2528 1708 2628 
Q 1553 2728 1384 2728 
Q 1125 2728 920 2526 
Q 716 2325 681 1966 
z
" id="TimesNewRomanPSMT-65" transform="scale(0.015625)"/>
       <path id="TimesNewRomanPSMT-20" transform="scale(0.015625)"/>
       <path d="M 1988 -1253 
L 1988 -1369 
Q 1516 -1131 1200 -813 
Q 750 -359 506 256 
Q 263 872 263 1534 
Q 263 2503 741 3301 
Q 1219 4100 1988 4444 
L 1988 4313 
Q 1603 4100 1356 3731 
Q 1109 3363 987 2797 
Q 866 2231 866 1616 
Q 866 947 969 400 
Q 1050 -31 1165 -292 
Q 1281 -553 1476 -793 
Q 1672 -1034 1988 -1253 
z
" id="TimesNewRomanPSMT-28" transform="scale(0.015625)"/>
       <path d="M 2050 2947 
L 2050 1972 
L 1947 1972 
Q 1828 2431 1642 2597 
Q 1456 2763 1169 2763 
Q 950 2763 815 2647 
Q 681 2531 681 2391 
Q 681 2216 781 2091 
Q 878 1963 1175 1819 
L 1631 1597 
Q 2266 1288 2266 781 
Q 2266 391 1970 151 
Q 1675 -88 1309 -88 
Q 1047 -88 709 6 
Q 606 38 541 38 
Q 469 38 428 -44 
L 325 -44 
L 325 978 
L 428 978 
Q 516 541 762 319 
Q 1009 97 1316 97 
Q 1531 97 1667 223 
Q 1803 350 1803 528 
Q 1803 744 1651 891 
Q 1500 1038 1047 1263 
Q 594 1488 453 1669 
Q 313 1847 313 2119 
Q 313 2472 555 2709 
Q 797 2947 1181 2947 
Q 1350 2947 1591 2875 
Q 1750 2828 1803 2828 
Q 1853 2828 1881 2850 
Q 1909 2872 1947 2947 
L 2050 2947 
z
" id="TimesNewRomanPSMT-73" transform="scale(0.015625)"/>
       <path d="M 2631 1088 
Q 2516 522 2178 217 
Q 1841 -88 1431 -88 
Q 944 -88 581 321 
Q 219 731 219 1428 
Q 219 2103 620 2525 
Q 1022 2947 1584 2947 
Q 2006 2947 2278 2723 
Q 2550 2500 2550 2259 
Q 2550 2141 2473 2067 
Q 2397 1994 2259 1994 
Q 2075 1994 1981 2113 
Q 1928 2178 1911 2362 
Q 1894 2547 1784 2644 
Q 1675 2738 1481 2738 
Q 1169 2738 978 2506 
Q 725 2200 725 1697 
Q 725 1184 976 792 
Q 1228 400 1656 400 
Q 1963 400 2206 609 
Q 2378 753 2541 1131 
L 2631 1088 
z
" id="TimesNewRomanPSMT-63" transform="scale(0.015625)"/>
       <path d="M 144 4313 
L 144 4444 
Q 619 4209 934 3891 
Q 1381 3434 1625 2820 
Q 1869 2206 1869 1541 
Q 1869 572 1392 -226 
Q 916 -1025 144 -1369 
L 144 -1253 
Q 528 -1038 776 -670 
Q 1025 -303 1145 264 
Q 1266 831 1266 1447 
Q 1266 2113 1163 2663 
Q 1084 3094 967 3353 
Q 850 3613 656 3853 
Q 463 4094 144 4313 
z
" id="TimesNewRomanPSMT-29" transform="scale(0.015625)"/>
      </defs>
      <use xlink:href="#TimesNewRomanPSMT-54"/>
      <use x="57.583984" xlink:href="#TimesNewRomanPSMT-69"/>
      <use x="85.367188" xlink:href="#TimesNewRomanPSMT-6d"/>
      <use x="163.150391" xlink:href="#TimesNewRomanPSMT-65"/>
      <use x="207.535156" xlink:href="#TimesNewRomanPSMT-20"/>
      <use x="232.535156" xlink:href="#TimesNewRomanPSMT-28"/>
      <use x="265.835938" xlink:href="#TimesNewRomanPSMT-73"/>
      <use x="304.751953" xlink:href="#TimesNewRomanPSMT-65"/>
      <use x="349.136719" xlink:href="#TimesNewRomanPSMT-63"/>
      <use x="393.521484" xlink:href="#TimesNewRomanPSMT-29"/>
     </g>
    </g>
   </g>
   <g id="matplotlib.axis_2">
    <g id="ytick_1">
     <g id="line2d_13">
      <path clip-path="url(#p1d77611dbb)" d="M 63.336875 283.40601 
L 398.136875 283.40601 
" style="fill:none;stroke:#000000;stroke-dasharray:0.5,0.825;stroke-dashoffset:0;stroke-width:0.5;"/>
     </g>
     <g id="line2d_14">
      <defs>
       <path d="M 0 0 
L -3.5 0 
" id="mc79fa2dd7f" style="stroke:#000000;stroke-width:0.8;"/>
      </defs>
      <g>
       <use style="stroke:#000000;stroke-width:0.8;" x="63.336875" xlink:href="#mc79fa2dd7f" y="283.40601"/>
      </g>
     </g>
     <g id="text_8">
      <!-- −0.04 -->
      <g transform="translate(23.942188 288.266635)scale(0.14 -0.14)">
       <defs>
        <path d="M 3484 2000 
L 116 2000 
L 116 2256 
L 3484 2256 
L 3484 2000 
z
" id="TimesNewRomanPSMT-2212" transform="scale(0.015625)"/>
       </defs>
       <use xlink:href="#TimesNewRomanPSMT-2212"/>
       <use x="56.396484" xlink:href="#TimesNewRomanPSMT-30"/>
       <use x="106.396484" xlink:href="#TimesNewRomanPSMT-2e"/>
       <use x="131.396484" xlink:href="#TimesNewRomanPSMT-30"/>
       <use x="181.396484" xlink:href="#TimesNewRomanPSMT-34"/>
      </g>
     </g>
    </g>
    <g id="ytick_2">
     <g id="line2d_15">
      <path clip-path="url(#p1d77611dbb)" d="M 63.336875 218.608905 
L 398.136875 218.608905 
" style="fill:none;stroke:#000000;stroke-dasharray:0.5,0.825;stroke-dashoffset:0;stroke-width:0.5;"/>
     </g>
     <g id="line2d_16">
      <g>
       <use style="stroke:#000000;stroke-width:0.8;" x="63.336875" xlink:href="#mc79fa2dd7f" y="218.608905"/>
      </g>
     </g>
     <g id="text_9">
      <!-- −0.02 -->
      <g transform="translate(23.942188 223.46953)scale(0.14 -0.14)">
       <use xlink:href="#TimesNewRomanPSMT-2212"/>
       <use x="56.396484" xlink:href="#TimesNewRomanPSMT-30"/>
       <use x="106.396484" xlink:href="#TimesNewRomanPSMT-2e"/>
       <use x="131.396484" xlink:href="#TimesNewRomanPSMT-30"/>
       <use x="181.396484" xlink:href="#TimesNewRomanPSMT-32"/>
      </g>
     </g>
    </g>
    <g id="ytick_3">
     <g id="line2d_17">
      <path clip-path="url(#p1d77611dbb)" d="M 63.336875 153.8118 
L 398.136875 153.8118 
" style="fill:none;stroke:#000000;stroke-dasharray:0.5,0.825;stroke-dashoffset:0;stroke-width:0.5;"/>
     </g>
     <g id="line2d_18">
      <g>
       <use style="stroke:#000000;stroke-width:0.8;" x="63.336875" xlink:href="#mc79fa2dd7f" y="153.8118"/>
      </g>
     </g>
     <g id="text_10">
      <!-- 0.00 -->
      <g transform="translate(31.836875 158.672425)scale(0.14 -0.14)">
       <use xlink:href="#TimesNewRomanPSMT-30"/>
       <use x="50" xlink:href="#TimesNewRomanPSMT-2e"/>
       <use x="75" xlink:href="#TimesNewRomanPSMT-30"/>
       <use x="125" xlink:href="#TimesNewRomanPSMT-30"/>
      </g>
     </g>
    </g>
    <g id="ytick_4">
     <g id="line2d_19">
      <path clip-path="url(#p1d77611dbb)" d="M 63.336875 89.014695 
L 398.136875 89.014695 
" style="fill:none;stroke:#000000;stroke-dasharray:0.5,0.825;stroke-dashoffset:0;stroke-width:0.5;"/>
     </g>
     <g id="line2d_20">
      <g>
       <use style="stroke:#000000;stroke-width:0.8;" x="63.336875" xlink:href="#mc79fa2dd7f" y="89.014695"/>
      </g>
     </g>
     <g id="text_11">
      <!-- 0.02 -->
      <g transform="translate(31.836875 93.87532)scale(0.14 -0.14)">
       <use xlink:href="#TimesNewRomanPSMT-30"/>
       <use x="50" xlink:href="#TimesNewRomanPSMT-2e"/>
       <use x="75" xlink:href="#TimesNewRomanPSMT-30"/>
       <use x="125" xlink:href="#TimesNewRomanPSMT-32"/>
      </g>
     </g>
    </g>
    <g id="ytick_5">
     <g id="line2d_21">
      <path clip-path="url(#p1d77611dbb)" d="M 63.336875 24.21759 
L 398.136875 24.21759 
" style="fill:none;stroke:#000000;stroke-dasharray:0.5,0.825;stroke-dashoffset:0;stroke-width:0.5;"/>
     </g>
     <g id="line2d_22">
      <g>
       <use style="stroke:#000000;stroke-width:0.8;" x="63.336875" xlink:href="#mc79fa2dd7f" y="24.21759"/>
      </g>
     </g>
     <g id="text_12">
      <!-- 0.04 -->
      <g transform="translate(31.836875 29.078215)scale(0.14 -0.14)">
       <use xlink:href="#TimesNewRomanPSMT-30"/>
       <use x="50" xlink:href="#TimesNewRomanPSMT-2e"/>
       <use x="75" xlink:href="#TimesNewRomanPSMT-30"/>
       <use x="125" xlink:href="#TimesNewRomanPSMT-34"/>
      </g>
     </g>
    </g>
    <g id="text_13">
     <!-- Volatage (V) -->
     <g transform="translate(16.92125 209.352344)rotate(-90)scale(0.14 -0.14)">
      <defs>
       <path d="M 4544 4238 
L 4544 4122 
Q 4319 4081 4203 3978 
Q 4038 3825 3909 3509 
L 2431 -97 
L 2316 -97 
L 728 3556 
Q 606 3838 556 3900 
Q 478 3997 364 4051 
Q 250 4106 56 4122 
L 56 4238 
L 1788 4238 
L 1788 4122 
Q 1494 4094 1406 4022 
Q 1319 3950 1319 3838 
Q 1319 3681 1463 3350 
L 2541 866 
L 3541 3319 
Q 3688 3681 3688 3822 
Q 3688 3913 3597 3995 
Q 3506 4078 3291 4113 
Q 3275 4116 3238 4122 
L 3238 4238 
L 4544 4238 
z
" id="TimesNewRomanPSMT-56" transform="scale(0.015625)"/>
       <path d="M 1600 2947 
Q 2250 2947 2644 2453 
Q 2978 2031 2978 1484 
Q 2978 1100 2793 706 
Q 2609 313 2286 112 
Q 1963 -88 1566 -88 
Q 919 -88 538 428 
Q 216 863 216 1403 
Q 216 1797 411 2186 
Q 606 2575 925 2761 
Q 1244 2947 1600 2947 
z
M 1503 2744 
Q 1338 2744 1170 2645 
Q 1003 2547 900 2300 
Q 797 2053 797 1666 
Q 797 1041 1045 587 
Q 1294 134 1700 134 
Q 2003 134 2200 384 
Q 2397 634 2397 1244 
Q 2397 2006 2069 2444 
Q 1847 2744 1503 2744 
z
" id="TimesNewRomanPSMT-6f" transform="scale(0.015625)"/>
       <path d="M 1184 4444 
L 1184 647 
Q 1184 378 1223 290 
Q 1263 203 1344 158 
Q 1425 113 1647 113 
L 1647 0 
L 244 0 
L 244 113 
Q 441 113 512 153 
Q 584 194 625 287 
Q 666 381 666 647 
L 666 3247 
Q 666 3731 644 3842 
Q 622 3953 573 3993 
Q 525 4034 450 4034 
Q 369 4034 244 3984 
L 191 4094 
L 1044 4444 
L 1184 4444 
z
" id="TimesNewRomanPSMT-6c" transform="scale(0.015625)"/>
       <path d="M 1822 413 
Q 1381 72 1269 19 
Q 1100 -59 909 -59 
Q 613 -59 420 144 
Q 228 347 228 678 
Q 228 888 322 1041 
Q 450 1253 767 1440 
Q 1084 1628 1822 1897 
L 1822 2009 
Q 1822 2438 1686 2597 
Q 1550 2756 1291 2756 
Q 1094 2756 978 2650 
Q 859 2544 859 2406 
L 866 2225 
Q 866 2081 792 2003 
Q 719 1925 600 1925 
Q 484 1925 411 2006 
Q 338 2088 338 2228 
Q 338 2497 613 2722 
Q 888 2947 1384 2947 
Q 1766 2947 2009 2819 
Q 2194 2722 2281 2516 
Q 2338 2381 2338 1966 
L 2338 994 
Q 2338 584 2353 492 
Q 2369 400 2405 369 
Q 2441 338 2488 338 
Q 2538 338 2575 359 
Q 2641 400 2828 588 
L 2828 413 
Q 2478 -56 2159 -56 
Q 2006 -56 1915 50 
Q 1825 156 1822 413 
z
M 1822 616 
L 1822 1706 
Q 1350 1519 1213 1441 
Q 966 1303 859 1153 
Q 753 1003 753 825 
Q 753 600 887 451 
Q 1022 303 1197 303 
Q 1434 303 1822 616 
z
" id="TimesNewRomanPSMT-61" transform="scale(0.015625)"/>
       <path d="M 1031 3803 
L 1031 2863 
L 1700 2863 
L 1700 2644 
L 1031 2644 
L 1031 788 
Q 1031 509 1111 412 
Q 1191 316 1316 316 
Q 1419 316 1516 380 
Q 1613 444 1666 569 
L 1788 569 
Q 1678 263 1478 108 
Q 1278 -47 1066 -47 
Q 922 -47 784 33 
Q 647 113 581 261 
Q 516 409 516 719 
L 516 2644 
L 63 2644 
L 63 2747 
Q 234 2816 414 2980 
Q 594 3144 734 3369 
Q 806 3488 934 3803 
L 1031 3803 
z
" id="TimesNewRomanPSMT-74" transform="scale(0.015625)"/>
       <path d="M 966 1044 
Q 703 1172 562 1401 
Q 422 1631 422 1909 
Q 422 2334 742 2640 
Q 1063 2947 1563 2947 
Q 1972 2947 2272 2747 
L 2878 2747 
Q 3013 2747 3034 2739 
Q 3056 2731 3066 2713 
Q 3084 2684 3084 2613 
Q 3084 2531 3069 2500 
Q 3059 2484 3036 2475 
Q 3013 2466 2878 2466 
L 2506 2466 
Q 2681 2241 2681 1891 
Q 2681 1491 2375 1206 
Q 2069 922 1553 922 
Q 1341 922 1119 984 
Q 981 866 932 777 
Q 884 688 884 625 
Q 884 572 936 522 
Q 988 472 1138 450 
Q 1225 438 1575 428 
Q 2219 413 2409 384 
Q 2700 344 2873 169 
Q 3047 -6 3047 -263 
Q 3047 -616 2716 -925 
Q 2228 -1381 1444 -1381 
Q 841 -1381 425 -1109 
Q 191 -953 191 -784 
Q 191 -709 225 -634 
Q 278 -519 444 -313 
Q 466 -284 763 25 
Q 600 122 533 198 
Q 466 275 466 372 
Q 466 481 555 628 
Q 644 775 966 1044 
z
M 1509 2797 
Q 1278 2797 1122 2612 
Q 966 2428 966 2047 
Q 966 1553 1178 1281 
Q 1341 1075 1591 1075 
Q 1828 1075 1981 1253 
Q 2134 1431 2134 1813 
Q 2134 2309 1919 2591 
Q 1759 2797 1509 2797 
z
M 934 0 
Q 788 -159 713 -296 
Q 638 -434 638 -550 
Q 638 -700 819 -813 
Q 1131 -1006 1722 -1006 
Q 2284 -1006 2551 -807 
Q 2819 -609 2819 -384 
Q 2819 -222 2659 -153 
Q 2497 -84 2016 -72 
Q 1313 -53 934 0 
z
" id="TimesNewRomanPSMT-67" transform="scale(0.015625)"/>
      </defs>
      <use xlink:href="#TimesNewRomanPSMT-56"/>
      <use x="59.341797" xlink:href="#TimesNewRomanPSMT-6f"/>
      <use x="109.341797" xlink:href="#TimesNewRomanPSMT-6c"/>
      <use x="137.125" xlink:href="#TimesNewRomanPSMT-61"/>
      <use x="181.509766" xlink:href="#TimesNewRomanPSMT-74"/>
      <use x="209.292969" xlink:href="#TimesNewRomanPSMT-61"/>
      <use x="253.677734" xlink:href="#TimesNewRomanPSMT-67"/>
      <use x="303.677734" xlink:href="#TimesNewRomanPSMT-65"/>
      <use x="348.0625" xlink:href="#TimesNewRomanPSMT-20"/>
      <use x="373.0625" xlink:href="#TimesNewRomanPSMT-28"/>
      <use x="406.363281" xlink:href="#TimesNewRomanPSMT-56"/>
      <use x="478.580078" xlink:href="#TimesNewRomanPSMT-29"/>
     </g>
    </g>
   </g>
   <g id="LineCollection_1">
    <path clip-path="url(#p1d77611dbb)" d="M 78.555057 153.8118 
L 382.918693 153.8118 
" style="fill:none;stroke:#1f77b4;stroke-width:1.5;"/>
   </g>
   <g id="line2d_23">
    <path clip-path="url(#p1d77611dbb)" d="M 78.555057 153.85813 
L 78.676802 153.85813 
L 78.707239 153.817632 
L 78.768111 153.898628 
L 79.559457 153.817632 
L 79.681202 153.817632 
L 79.802948 153.817632 
L 87.594657 153.85813 
L 87.625093 153.939126 
L 87.685966 153.85813 
L 87.807711 153.817632 
L 87.959893 153.85813 
L 88.081639 153.817632 
L 88.203384 153.85813 
L 88.294693 153.817632 
L 88.32513 153.85813 
L 103.512875 153.898628 
L 103.543311 153.979625 
L 103.604184 153.898628 
L 103.72593 153.898628 
L 103.878111 153.979625 
L 103.908548 153.898628 
L 103.999857 153.939126 
L 110.08713 154.020123 
L 110.208875 154.020123 
L 110.939348 154.101119 
L 111.09153 154.141617 
L 111.822002 154.222614 
L 111.943748 154.30361 
L 111.974184 154.263112 
L 112.09593 154.263112 
L 112.248111 154.30361 
L 113.10033 154.384607 
L 113.222075 154.425105 
L 113.34382 154.425105 
L 113.465566 154.425105 
L 113.556875 154.465603 
L 113.648184 154.546599 
L 113.67862 154.465603 
L 113.76993 154.506101 
L 113.922111 154.587097 
L 114.01342 154.587097 
L 114.196039 154.668094 
L 114.530839 154.74909 
L 114.68302 154.830087 
L 114.804766 154.830087 
L 115.139566 154.911083 
L 115.261311 154.992079 
L 115.291748 154.951581 
L 115.322184 154.911083 
L 115.383057 154.992079 
L 115.504802 155.073076 
L 115.535239 154.992079 
L 115.596111 155.073076 
L 116.02222 155.154072 
L 116.11353 155.235068 
L 116.143966 155.19457 
L 116.265711 155.19457 
L 116.44833 155.275567 
L 117.057057 155.316065 
L 117.178802 155.397061 
L 117.300548 155.397061 
L 117.635348 155.478058 
L 117.78753 155.518556 
L 117.878839 155.437559 
L 118.000584 155.518556 
L 118.213639 155.518556 
L 118.36582 155.680549 
L 118.396257 155.599552 
L 118.487566 155.64005 
L 118.670184 155.761545 
L 118.731057 155.680549 
L 118.79193 155.761545 
L 119.096293 155.842541 
L 119.248475 155.923538 
L 119.278911 155.842541 
L 119.339784 155.923538 
L 119.46153 155.964036 
L 119.613711 156.085531 
L 119.79633 156.166527 
L 120.070257 156.369018 
L 120.344184 156.450014 
L 120.526802 156.652505 
L 120.618111 156.733502 
L 120.952911 157.097985 
L 120.983348 157.016989 
L 121.013784 157.138483 
L 122.13993 158.758411 
L 122.352984 159.203891 
L 122.535602 159.608873 
L 122.80953 160.297343 
L 122.931275 160.58083 
L 123.266075 161.47179 
L 123.966111 163.618194 
L 126.766257 175.200676 
L 127.16193 177.104092 
L 128.318511 182.77384 
L 128.348948 182.814335 
L 128.592439 184.069779 
L 129.322911 187.390633 
L 129.566402 188.322089 
L 130.875166 193.100877 
L 130.996911 193.424862 
L 131.970875 195.733259 
L 132.366548 196.097743 
L 132.396984 196.057245 
L 132.42742 196.178739 
L 132.457857 196.138241 
L 132.579602 196.178739 
L 132.701348 196.178739 
L 133.005711 196.097743 
L 133.76662 194.923295 
L 134.040548 194.275324 
L 134.223166 193.870342 
L 135.075384 191.359455 
L 135.44062 189.982516 
L 135.623239 189.213051 
L 136.049348 187.147642 
L 136.597202 183.6648 
L 137.479857 177.063593 
L 138.058148 172.082316 
L 139.640839 156.32852 
L 141.193093 136.484407 
L 146.306402 63.263677 
L 147.402111 50.101759 
L 148.893493 35.360421 
L 150.019639 27.260792 
L 151.237093 22.84648 
L 151.632766 22.441504 
L 151.724075 22.441504 
L 151.906693 22.360505 
L 152.028439 22.360505 
L 152.332802 22.441504 
L 152.971966 23.453959 
L 154.219857 28.840218 
L 155.711239 41.556647 
L 157.476548 63.952147 
L 158.389639 78.895979 
L 161.737639 147.864398 
L 166.759639 259.031931 
L 169.042366 296.614249 
L 169.864148 306.090829 
L 170.533748 312.813535 
L 171.568584 320.224701 
L 172.664293 324.153025 
L 173.151275 324.679495 
L 173.973057 323.424058 
L 174.61222 321.480138 
L 176.164475 312.732536 
L 176.651457 308.723215 
L 177.564548 300.542574 
L 178.325457 292.483437 
L 179.96902 271.586367 
L 180.821239 259.679902 
L 181.73433 246.07251 
L 187.578111 154.506101 
L 188.247711 145.191518 
L 189.069493 134.783483 
L 190.895675 111.902004 
L 191.44353 105.786778 
L 192.204439 97.120165 
L 193.421893 85.294693 
L 195.70462 67.961467 
L 196.252475 63.587663 
L 196.982948 58.646884 
L 197.896039 53.301116 
L 198.230839 52.005177 
L 198.291711 51.802689 
L 199.570039 47.145397 
L 199.996148 45.727964 
L 200.300511 44.594008 
L 200.452693 44.229524 
L 200.81793 43.541062 
L 201.15273 42.933586 
L 201.609275 42.00213 
L 201.852766 41.799639 
L 202.035384 41.880639 
L 202.857166 41.799639 
L 202.948475 41.799639 
L 203.100657 41.840134 
L 203.191966 41.921131 
L 203.557202 42.24511 
L 203.618075 42.326109 
L 203.83113 42.447611 
L 203.952875 42.447611 
L 204.07462 42.52861 
L 204.287675 42.609594 
L 204.805093 43.460065 
L 205.048584 43.986545 
L 205.566002 44.796496 
L 205.83993 45.484972 
L 205.961675 45.768459 
L 206.357348 46.902402 
L 207.026948 48.400845 
L 207.17913 48.765328 
L 207.75742 50.628239 
L 208.457457 52.734144 
L 209.035748 55.285531 
L 209.340111 56.378982 
L 210.19233 60.226316 
L 210.801057 62.899194 
L 210.86193 63.101681 
L 211.470657 65.896063 
L 211.805457 67.677983 
L 211.86633 67.880471 
L 213.083784 74.886655 
L 213.44902 77.276055 
L 214.362111 84.079751 
L 215.45782 93.71832 
L 216.766584 106.880229 
L 217.497057 114.331896 
L 218.166657 121.581072 
L 218.623202 126.683843 
L 223.310402 184.110278 
L 225.654002 213.835954 
L 227.632366 238.823337 
L 228.362839 247.12546 
L 230.067275 264.094202 
L 230.797748 269.925941 
L 231.86302 276.284164 
L 232.015202 276.932135 
L 232.441311 278.633049 
L 233.445711 282.237395 
L 234.510984 283.492842 
L 234.663166 283.371341 
L 235.241457 282.439886 
L 235.54582 281.913406 
L 235.667566 281.629919 
L 236.88502 276.36516 
L 238.102475 267.577043 
L 238.55902 263.851219 
L 239.22862 257.614488 
L 240.354766 246.194005 
L 241.23742 235.866966 
L 241.724402 229.508754 
L 242.880984 214.402925 
L 243.763639 203.10393 
L 245.01153 186.904652 
L 249.881348 117.207267 
L 251.342293 100.96749 
L 252.468439 91.450418 
L 254.020693 81.811849 
L 255.694693 75.575124 
L 256.63822 73.347727 
L 256.668657 73.388228 
L 256.699093 73.347727 
L 256.851275 73.145233 
L 256.912148 73.185734 
L 256.942584 73.145233 
L 257.033893 73.064243 
L 257.06433 73.104734 
L 257.277384 73.023745 
L 257.460002 72.902247 
L 257.581748 72.902247 
L 257.855675 72.983243 
L 258.007857 73.145233 
L 258.06873 73.226232 
L 258.373093 73.469218 
L 258.494839 73.550218 
L 258.616584 73.590716 
L 258.707893 73.590716 
L 258.860075 73.631214 
L 258.951384 73.671712 
L 259.134002 73.874203 
L 259.255748 73.914701 
L 259.468802 74.238687 
L 259.590548 74.319683 
L 259.864475 74.562669 
L 259.894911 74.522171 
L 259.925348 74.603171 
L 260.899311 76.020607 
L 261.112366 76.466088 
L 261.32542 76.871069 
L 261.66022 77.802528 
L 261.690657 77.802528 
L 261.934148 78.693488 
L 263.699457 86.145155 
L 264.216875 88.858534 
L 264.521239 90.518963 
L 265.586511 96.917677 
L 265.76913 98.05162 
L 266.651784 104.247846 
L 266.986584 106.556243 
L 270.273711 131.908111 
L 270.943311 137.051381 
L 271.521602 141.465684 
L 272.099893 146.001481 
L 272.617311 149.848809 
L 274.169566 159.44688 
L 275.234839 164.549652 
L 277.06102 171.393847 
L 277.091457 171.393847 
L 277.365384 172.325304 
L 278.15673 174.714699 
L 278.461093 175.524663 
L 278.582839 175.848648 
L 279.191566 177.185088 
L 279.708984 178.035549 
L 279.952475 178.400033 
L 280.774257 179.331492 
L 280.804693 179.290993 
L 280.83513 179.331492 
L 281.017748 179.574481 
L 281.07862 179.61498 
L 281.291675 179.898466 
L 281.717784 180.343946 
L 281.74822 180.26295 
L 281.809093 180.303449 
L 281.961275 180.424944 
L 281.991711 180.384445 
L 282.204766 180.465441 
L 282.387384 180.546437 
L 282.570002 180.627434 
L 282.722184 180.667933 
L 283.08742 180.586936 
L 283.361348 180.384445 
L 283.391784 180.424944 
L 283.452657 180.343946 
L 283.604839 180.26295 
L 283.878766 180.06046 
L 284.000511 180.06046 
L 284.213566 179.776972 
L 284.822293 179.129001 
L 284.883166 179.048005 
L 285.065784 178.845513 
L 285.157093 178.764517 
L 285.644075 177.954553 
L 285.978875 177.347081 
L 286.344111 176.699109 
L 286.831093 175.686655 
L 286.922402 175.605659 
L 287.135457 175.160179 
L 287.378948 174.6742 
L 287.77462 173.904735 
L 288.292039 173.094771 
L 288.474657 172.730287 
L 288.565966 172.689788 
L 288.809457 172.244308 
L 288.839893 172.284807 
L 288.87033 172.163312 
L 288.961639 172.082316 
L 289.266002 171.798828 
L 289.296439 171.839327 
L 289.357311 171.758331 
L 289.78342 171.677334 
L 289.905166 171.555839 
L 290.057348 171.596338 
L 290.179093 171.515342 
L 290.422584 171.596338 
L 290.87913 172.041818 
L 290.940002 172.122814 
L 291.79222 173.378259 
L 292.12702 174.269219 
L 292.279202 174.633703 
L 296.540293 185.689707 
L 297.14902 186.621166 
L 297.362075 187.026149 
L 298.092548 187.836111 
L 298.305602 187.917109 
L 298.853457 188.524581 
L 298.975202 188.524581 
L 299.431748 188.443585 
L 299.58393 188.403087 
L 299.888293 188.484083 
L 300.040475 188.524581 
L 300.344839 188.443585 
L 300.801384 187.957608 
L 300.83182 187.998104 
L 300.892693 187.917109 
L 301.014439 187.87661 
L 301.136184 187.795613 
L 301.288366 187.714618 
L 302.59713 186.054191 
L 302.627566 186.09469 
L 302.688439 186.013692 
L 304.210257 183.826792 
L 306.310366 177.954553 
L 307.771311 171.677334 
L 311.21062 152.845675 
L 312.001966 147.418918 
L 314.64993 130.531173 
L 315.532584 125.266407 
L 316.050002 122.51253 
L 316.99353 118.300719 
L 317.32833 117.045275 
L 317.90662 115.222856 
L 318.697966 112.509477 
L 318.789275 112.266488 
L 319.276257 110.768055 
L 321.102439 106.151261 
L 321.163311 106.070265 
L 324.206948 102.182439 
L 324.237384 102.222937 
L 324.298257 102.14194 
L 324.60262 101.858453 
L 324.633057 101.898955 
L 324.663493 101.817955 
L 324.93742 101.574969 
L 325.059166 101.574969 
L 325.120039 101.493969 
L 325.180911 101.534471 
L 325.485275 101.615461 
L 325.820075 101.898955 
L 325.911384 101.939453 
L 326.094002 102.14194 
L 326.154875 102.222937 
L 326.641857 103.032897 
L 327.463639 104.976814 
L 327.494075 104.976814 
L 327.889748 106.151261 
L 327.981057 106.434749 
L 328.589784 108.338164 
L 329.776802 113.521932 
L 332.089966 126.319359 
L 332.363893 127.979786 
L 332.698693 129.761707 
L 334.250948 138.590312 
L 335.224911 144.341055 
L 335.590148 146.24447 
L 336.07713 148.755358 
L 337.598948 156.288021 
L 338.207675 159.122895 
L 338.633784 161.269299 
L 338.816402 162.038765 
L 339.09033 163.415703 
L 340.033857 167.627515 
L 340.277348 168.599471 
L 340.642584 169.854915 
L 341.373057 172.365803 
L 341.464366 172.649291 
L 341.920911 174.066728 
L 342.042657 174.390712 
L 342.43833 175.56516 
L 342.590511 175.929644 
L 342.925311 176.820604 
L 343.10793 177.225585 
L 343.564475 178.157044 
L 343.594911 178.157044 
L 343.77753 178.602525 
L 344.173202 179.290993 
L 344.44713 179.776972 
L 344.538439 179.857968 
L 345.147166 180.50594 
L 345.238475 180.586936 
L 345.542839 180.829925 
L 345.69502 180.910921 
L 346.02982 181.194409 
L 346.060257 181.15391 
L 346.090693 181.234906 
L 346.45593 181.558891 
L 346.577675 181.59939 
L 346.729857 181.761382 
L 346.79073 181.84238 
L 347.216839 182.287859 
L 347.247275 182.247363 
L 347.277711 182.328358 
L 347.521202 182.530849 
L 347.551639 182.49035 
L 347.612511 182.571348 
L 347.79513 182.652343 
L 347.977748 182.77384 
L 348.099493 182.77384 
L 348.251675 182.814335 
L 348.79953 182.733341 
L 348.982148 182.571348 
L 349.012584 182.611847 
L 349.195202 182.571348 
L 349.316948 182.49035 
L 349.590875 182.409355 
L 349.80393 182.287859 
L 350.016984 182.206864 
L 350.290911 182.004373 
L 350.595275 181.923375 
L 350.656148 181.84238 
L 350.71702 181.882879 
L 350.747457 181.923375 
L 350.80833 181.84238 
L 351.05182 181.761382 
L 351.204002 181.639889 
L 351.295311 181.59939 
L 351.47793 181.356403 
L 351.508366 181.396899 
L 351.569239 181.315904 
L 352.117093 180.748929 
L 352.177966 180.70843 
L 352.39102 180.424944 
L 353.638911 178.602525 
L 353.943275 178.076048 
L 354.004148 178.035549 
L 354.247639 177.630568 
L 354.278075 177.671066 
L 354.308511 177.590069 
L 355.282475 176.45612 
L 355.434657 176.375124 
L 355.586839 176.253629 
L 355.982511 175.889145 
L 356.012948 175.929644 
L 356.07382 175.848648 
L 356.195566 175.767652 
L 356.40862 175.646156 
L 356.591239 175.56516 
L 356.804293 175.443665 
L 356.83473 175.443665 
L 356.956475 175.322171 
L 357.139093 175.241175 
L 357.352148 175.11968 
L 357.443457 175.11968 
L 357.626075 175.038684 
L 357.900002 174.957688 
L 358.052184 174.836192 
L 358.143493 174.755196 
L 358.478293 174.431211 
L 358.539166 174.471708 
L 358.569602 174.390712 
L 358.691348 174.309716 
L 358.934839 174.147724 
L 358.995711 174.107225 
L 359.147893 173.945232 
L 359.269639 173.864236 
L 359.787057 173.33776 
L 359.939239 173.256763 
L 360.274039 172.973276 
L 360.395784 172.89228 
L 361.643675 171.069862 
L 362.130657 170.057407 
L 362.465457 169.449934 
L 362.830693 168.761464 
L 363.013311 168.356482 
L 363.287239 167.708511 
L 363.469857 167.30353 
L 363.987275 166.210078 
L 364.322075 165.602606 
L 364.565566 165.076129 
L 364.839493 164.59015 
L 364.86993 164.59015 
L 365.052548 164.225667 
L 365.143857 164.14467 
L 365.356911 163.820685 
L 365.417784 163.739689 
L 366.78742 162.079263 
L 366.939602 161.998266 
L 367.091784 161.876772 
L 367.183093 161.795775 
L 367.700511 161.269299 
L 367.822257 161.188303 
L 368.065748 161.02631 
L 368.400548 160.945313 
L 368.704911 160.702324 
L 368.79622 160.621328 
L 369.039711 160.418837 
L 369.070148 160.499833 
L 369.100584 160.378339 
L 369.13102 160.378339 
L 369.252766 160.297343 
L 369.404948 160.256844 
L 369.709311 160.175848 
L 370.044111 159.89236 
L 370.165857 159.811364 
L 370.348475 159.608873 
L 370.500657 159.527877 
L 370.652839 159.406382 
L 370.774584 159.325386 
L 371.657239 158.312931 
L 371.778984 158.231935 
L 372.326839 157.66496 
L 372.387711 157.624462 
L 372.57033 157.421971 
L 373.118184 156.814498 
L 373.14862 156.854996 
L 373.209493 156.774 
L 374.91393 154.344108 
L 375.370475 153.41265 
L 375.522657 153.048166 
L 376.009639 152.035711 
L 376.314002 151.509235 
L 376.618366 150.739769 
L 377.531457 148.593365 
L 377.59233 148.512369 
L 378.535857 146.284968 
L 378.748911 145.879986 
L 378.961966 145.394008 
L 378.992402 145.394008 
L 379.296766 144.624542 
L 382.918693 135.147967 
L 382.918693 135.147967 
" style="fill:none;stroke:#0000ff;stroke-linecap:square;stroke-width:1.5;"/>
   </g>
   <g id="line2d_24">
    <path clip-path="url(#p1d77611dbb)" d="M 78.555057 153.968285 
L 79.772511 153.887288 
L 79.924693 153.846791 
L 84.246657 153.745545 
L 84.398839 153.765794 
L 95.325493 153.684798 
L 95.477675 153.664548 
L 95.69073 153.684798 
L 99.61702 153.786043 
L 99.860511 153.826541 
L 100.225748 153.927787 
L 100.438802 154.029032 
L 100.682293 154.130278 
L 101.595384 154.859245 
L 102.691093 156.479173 
L 103.39113 158.038353 
L 103.543311 158.423086 
L 103.847675 159.273548 
L 104.39553 161.01497 
L 105.247748 164.234576 
L 106.31302 168.932367 
L 107.439166 174.338875 
L 110.178439 186.609828 
L 111.061093 189.262459 
L 111.456766 190.234415 
L 112.278548 191.510108 
L 112.582911 191.874592 
L 113.00902 192.056834 
L 113.43513 191.894841 
L 113.587311 191.793595 
L 114.652584 190.193917 
L 114.926511 189.404202 
L 116.11353 185.070895 
L 118.152766 172.21272 
L 120.892039 149.493235 
L 122.961711 129.952859 
L 125.73142 106.949886 
L 127.101057 99.417219 
L 128.562002 93.119757 
L 128.927239 91.884562 
L 129.262039 90.831609 
L 129.74902 89.819148 
L 130.266439 89.353422 
L 130.692548 88.968689 
L 131.057784 88.847194 
L 131.544766 89.049689 
L 131.84913 88.968689 
L 132.244802 88.624454 
L 132.549166 88.502963 
L 132.792657 88.644707 
L 133.736184 89.150931 
L 133.888366 89.23193 
L 135.044948 90.608869 
L 135.349311 90.710111 
L 135.684111 91.034097 
L 136.292839 92.006053 
L 137.023311 92.593277 
L 138.332075 95.42815 
L 138.849493 97.513807 
L 140.280002 104.702236 
L 140.88873 108.043337 
L 142.014875 114.583795 
L 146.732511 149.918466 
L 150.780548 183.977446 
L 152.667602 196.997613 
L 153.763311 202.8901 
L 155.011202 207.446146 
L 155.650366 208.843337 
L 156.53302 209.855792 
L 157.476548 209.75454 
L 157.689602 209.653297 
L 158.146148 209.228066 
L 158.602693 208.316857 
L 161.037602 203.214085 
L 161.88982 200.64245 
L 163.837748 193.798256 
L 166.059602 183.957197 
L 166.972693 180.535099 
L 167.703166 178.04446 
L 168.129275 177.173748 
L 168.311893 176.930759 
L 169.072802 176.080298 
L 169.772839 176.181542 
L 170.503311 176.768767 
L 171.142475 178.287449 
L 172.69473 183.81545 
L 175.647057 200.075475 
L 176.28622 204.287287 
L 178.203711 217.773185 
L 179.329857 225.26535 
L 180.608184 230.732609 
L 181.825639 233.68897 
L 182.799602 234.822923 
L 183.225711 234.721677 
L 183.590948 234.07371 
L 184.41273 231.583068 
L 184.99102 228.829191 
L 185.478002 225.670332 
L 186.025857 221.31678 
L 186.543275 216.295004 
L 187.42593 206.393193 
L 189.00862 184.9899 
L 190.77393 156.31718 
L 193.391457 111.283192 
L 195.308948 82.387736 
L 196.03942 73.72112 
L 197.04382 62.9891 
L 198.291711 52.358321 
L 199.570039 43.81321 
L 200.513566 38.831926 
L 201.517966 35.247832 
L 202.49193 34.11389 
L 202.918039 34.194886 
L 204.40942 36.361536 
L 205.17033 39.257157 
L 205.900802 43.711961 
L 208.09222 60.316222 
L 209.248802 69.590308 
L 219.962402 154.231523 
L 223.766948 178.813925 
L 226.26273 193.109786 
L 228.058475 200.946186 
L 228.454148 202.302876 
L 229.549857 205.56298 
L 230.006402 206.474189 
L 230.645566 207.506893 
L 230.767311 207.689135 
L 231.132548 208.175113 
L 233.29353 211.232727 
L 233.658766 211.921196 
L 233.87182 212.366679 
L 234.389239 213.439878 
L 236.21542 216.841729 
L 236.458911 217.125214 
L 237.493748 218.340156 
L 237.585057 218.421156 
L 237.98073 218.765394 
L 238.711202 219.129877 
L 239.411239 219.028625 
L 239.776475 218.907134 
L 240.111275 218.805892 
L 240.354766 218.765394 
L 241.085239 218.866636 
L 241.389602 218.967881 
L 241.511348 219.008379 
L 241.876584 219.109625 
L 242.272257 219.251365 
L 242.546184 219.352617 
L 242.789675 219.494361 
L 243.520148 220.081578 
L 244.128875 221.053538 
L 244.554984 221.742007 
L 244.798475 222.268481 
L 247.324693 227.087769 
L 247.537748 227.35101 
L 247.811675 227.695241 
L 247.872548 227.755985 
L 248.146475 228.079977 
L 248.237784 228.140721 
L 248.450839 228.322963 
L 248.785639 228.424209 
L 249.27262 228.322963 
L 249.759602 228.120469 
L 249.911784 228.019227 
L 251.524911 225.690581 
L 253.077166 220.142329 
L 253.685893 216.780979 
L 254.477239 212.042694 
L 255.085966 207.729633 
L 256.090366 199.569248 
L 257.094766 189.930678 
L 257.916548 181.284314 
L 259.894911 157.694119 
L 262.847239 117.985643 
L 265.525639 83.825419 
L 267.077893 66.532695 
L 268.11273 57.299107 
L 269.421493 48.490744 
L 270.151966 45.190148 
L 270.821566 43.327225 
L 271.338984 42.517271 
L 271.491166 42.416019 
L 271.825966 42.31477 
L 271.978148 42.294531 
L 272.37382 42.395766 
L 272.647748 42.679254 
L 273.71302 45.048404 
L 274.47393 47.923769 
L 275.691384 54.970455 
L 276.72622 62.584118 
L 277.639311 70.035782 
L 280.256839 95.42815 
L 281.443857 107.597857 
L 282.41782 117.702155 
L 287.409384 166.421479 
L 290.818257 194.972703 
L 292.918366 208.215612 
L 293.983639 213.298135 
L 294.866293 215.849521 
L 296.327239 218.522398 
L 296.47942 218.745141 
L 297.270766 219.615849 
L 297.514257 219.717095 
L 297.696875 219.777845 
L 297.970802 219.838592 
L 298.214293 219.798091 
L 298.427348 219.717095 
L 298.853457 219.332365 
L 299.127384 219.028625 
L 300.25353 217.368203 
L 302.140584 212.042694 
L 303.479784 206.271698 
L 304.60593 198.86053 
L 309.445311 164.234576 
L 309.932293 161.865432 
L 310.87582 157.43088 
L 311.484548 155.041487 
L 312.367202 151.437148 
L 313.523784 147.205087 
L 315.136911 141.191106 
L 316.141311 138.214488 
L 316.99353 135.764348 
L 322.68513 120.921761 
L 324.237384 117.580661 
L 324.541748 116.93269 
L 325.211348 115.35326 
L 327.007093 110.857961 
L 327.524511 110.007499 
L 327.828875 109.481023 
L 328.28542 108.691308 
L 328.924584 107.658604 
L 329.776802 106.706897 
L 331.085566 105.957683 
L 331.694293 106.058925 
L 332.72913 106.868889 
L 334.190075 108.974795 
L 335.681457 113.247354 
L 337.65982 120.213043 
L 338.785966 124.931083 
L 339.272948 127.300225 
L 341.525239 139.874915 
L 343.68622 153.482307 
L 345.02542 163.120876 
L 346.486366 174.602113 
L 347.247275 180.251611 
L 348.099493 186.002354 
L 349.438693 194.992952 
L 350.686584 202.566114 
L 351.417057 206.494439 
L 352.238839 210.767001 
L 353.547602 216.355748 
L 354.308511 218.684394 
L 355.038984 220.729556 
L 355.647711 222.045741 
L 356.347748 223.220191 
L 356.712984 223.341686 
L 357.047784 223.240444 
L 357.808693 222.632964 
L 359.269639 219.494361 
L 359.75662 217.509946 
L 362.76982 198.799782 
L 364.474257 185.516376 
L 367.517893 160.326501 
L 368.826657 149.16925 
L 370.013675 138.801713 
L 371.961602 121.670978 
L 372.844257 115.474755 
L 374.274766 106.241167 
L 374.944366 102.474832 
L 376.009639 98.04028 
L 377.683639 92.836263 
L 378.809784 90.811357 
L 379.753311 90.305129 
L 380.51422 90.406375 
L 381.27513 91.034097 
L 381.85342 91.945306 
L 382.157784 92.512277 
L 382.918693 94.294198 
L 382.918693 94.294198 
" style="fill:none;stroke:#ff0000;stroke-linecap:square;stroke-width:1.5;"/>
   </g>
   <g id="line2d_25">
    <path clip-path="url(#p1d77611dbb)" d="M 123.570439 162.36275 
" style="fill:none;stroke:#ffffff;stroke-linecap:square;stroke-width:1.5;"/>
    <defs>
     <path d="M 0 -5 
L -1.12257 -1.545085 
L -4.755283 -1.545085 
L -1.816356 0.59017 
L -2.938926 4.045085 
L -0 1.90983 
L 2.938926 4.045085 
L 1.816356 0.59017 
L 4.755283 -1.545085 
L 1.12257 -1.545085 
z
" id="m76ba635612" style="stroke:#ffffff;stroke-linejoin:bevel;"/>
    </defs>
    <g clip-path="url(#p1d77611dbb)">
     <use style="fill:#0000ff;stroke:#ffffff;stroke-linejoin:bevel;" x="123.570439" xlink:href="#m76ba635612" y="162.36275"/>
    </g>
   </g>
   <g id="line2d_26">
    <path clip-path="url(#p1d77611dbb)" d="M 104.030293 159.860772 
" style="fill:none;stroke:#ffffff;stroke-linecap:square;stroke-width:1.5;"/>
    <defs>
     <path d="M 0 -5 
L -1.12257 -1.545085 
L -4.755283 -1.545085 
L -1.816356 0.59017 
L -2.938926 4.045085 
L -0 1.90983 
L 2.938926 4.045085 
L 1.816356 0.59017 
L 4.755283 -1.545085 
L 1.12257 -1.545085 
z
" id="ma7cf4bfd2b" style="stroke:#ffffff;stroke-linejoin:bevel;"/>
    </defs>
    <g clip-path="url(#p1d77611dbb)">
     <use style="fill:#ff0000;stroke:#ffffff;stroke-linejoin:bevel;" x="104.030293" xlink:href="#ma7cf4bfd2b" y="159.860772"/>
    </g>
   </g>
   <g id="patch_3">
    <path d="M 63.336875 339.84 
L 63.336875 7.2 
" style="fill:none;stroke:#000000;stroke-linecap:square;stroke-linejoin:miter;stroke-width:0.8;"/>
   </g>
   <g id="patch_4">
    <path d="M 398.136875 339.84 
L 398.136875 7.2 
" style="fill:none;stroke:#000000;stroke-linecap:square;stroke-linejoin:miter;stroke-width:0.8;"/>
   </g>
   <g id="patch_5">
    <path d="M 63.336875 339.84 
L 398.136875 339.84 
" style="fill:none;stroke:#000000;stroke-linecap:square;stroke-linejoin:miter;stroke-width:0.8;"/>
   </g>
   <g id="patch_6">
    <path d="M 63.336875 7.2 
L 398.136875 7.2 
" style="fill:none;stroke:#000000;stroke-linecap:square;stroke-linejoin:miter;stroke-width:0.8;"/>
   </g>
   <g id="text_14">
    <g id="patch_7">
     <path d="M 75.036875 331.242688 
L 166.26875 331.242688 
L 166.26875 293.760312 
L 75.036875 293.760312 
z
" style="fill:#ffffff;stroke:#000000;stroke-linejoin:miter;stroke-width:0.75;"/>
    </g>
    <!-- Auto_00175 -->
    <g transform="translate(80.076875 308.521562)scale(0.14 -0.14)">
     <defs>
      <path d="M 2928 1419 
L 1288 1419 
L 1000 750 
Q 894 503 894 381 
Q 894 284 986 211 
Q 1078 138 1384 116 
L 1384 0 
L 50 0 
L 50 116 
Q 316 163 394 238 
Q 553 388 747 847 
L 2238 4334 
L 2347 4334 
L 3822 809 
Q 4000 384 4145 257 
Q 4291 131 4550 116 
L 4550 0 
L 2878 0 
L 2878 116 
Q 3131 128 3220 200 
Q 3309 272 3309 375 
Q 3309 513 3184 809 
L 2928 1419 
z
M 2841 1650 
L 2122 3363 
L 1384 1650 
L 2841 1650 
z
" id="TimesNewRomanPSMT-41" transform="scale(0.015625)"/>
      <path d="M 2709 2863 
L 2709 1128 
Q 2709 631 2732 520 
Q 2756 409 2807 365 
Q 2859 322 2928 322 
Q 3025 322 3147 375 
L 3191 266 
L 2334 -88 
L 2194 -88 
L 2194 519 
Q 1825 119 1631 15 
Q 1438 -88 1222 -88 
Q 981 -88 804 51 
Q 628 191 559 409 
Q 491 628 491 1028 
L 491 2306 
Q 491 2509 447 2587 
Q 403 2666 317 2708 
Q 231 2750 6 2747 
L 6 2863 
L 1009 2863 
L 1009 947 
Q 1009 547 1148 422 
Q 1288 297 1484 297 
Q 1619 297 1789 381 
Q 1959 466 2194 703 
L 2194 2325 
Q 2194 2569 2105 2655 
Q 2016 2741 1734 2747 
L 1734 2863 
L 2709 2863 
z
" id="TimesNewRomanPSMT-75" transform="scale(0.015625)"/>
      <path d="M 3256 -1381 
L -53 -1381 
L -53 -1119 
L 3256 -1119 
L 3256 -1381 
z
" id="TimesNewRomanPSMT-5f" transform="scale(0.015625)"/>
      <path d="M 644 4238 
L 2916 4238 
L 2916 4119 
L 1503 -88 
L 1153 -88 
L 2419 3728 
L 1253 3728 
Q 900 3728 750 3644 
Q 488 3500 328 3200 
L 238 3234 
L 644 4238 
z
" id="TimesNewRomanPSMT-37" transform="scale(0.015625)"/>
     </defs>
     <use xlink:href="#TimesNewRomanPSMT-41"/>
     <use x="72.216797" xlink:href="#TimesNewRomanPSMT-75"/>
     <use x="122.216797" xlink:href="#TimesNewRomanPSMT-74"/>
     <use x="150" xlink:href="#TimesNewRomanPSMT-6f"/>
     <use x="200" xlink:href="#TimesNewRomanPSMT-5f"/>
     <use x="250" xlink:href="#TimesNewRomanPSMT-30"/>
     <use x="300" xlink:href="#TimesNewRomanPSMT-30"/>
     <use x="350" xlink:href="#TimesNewRomanPSMT-31"/>
     <use x="400" xlink:href="#TimesNewRomanPSMT-37"/>
     <use x="450" xlink:href="#TimesNewRomanPSMT-35"/>
    </g>
    <!-- Vs: 311.29m/s -->
    <g transform="translate(80.076875 323.208)scale(0.14 -0.14)">
     <defs>
      <path d="M 903 2950 
Q 1047 2950 1148 2848 
Q 1250 2747 1250 2603 
Q 1250 2459 1148 2357 
Q 1047 2256 903 2256 
Q 759 2256 657 2357 
Q 556 2459 556 2603 
Q 556 2747 657 2848 
Q 759 2950 903 2950 
z
M 897 609 
Q 1044 609 1145 506 
Q 1247 403 1247 259 
Q 1247 116 1144 14 
Q 1041 -88 897 -88 
Q 753 -88 651 14 
Q 550 116 550 259 
Q 550 403 651 506 
Q 753 609 897 609 
z
" id="TimesNewRomanPSMT-3a" transform="scale(0.015625)"/>
      <path d="M 338 -88 
L 338 28 
Q 744 34 1094 217 
Q 1444 400 1770 856 
Q 2097 1313 2225 1859 
Q 1734 1544 1338 1544 
Q 891 1544 572 1889 
Q 253 2234 253 2806 
Q 253 3363 572 3797 
Q 956 4325 1575 4325 
Q 2097 4325 2469 3894 
Q 2925 3359 2925 2575 
Q 2925 1869 2578 1258 
Q 2231 647 1613 244 
Q 1109 -88 516 -88 
L 338 -88 
z
M 2275 2091 
Q 2331 2497 2331 2741 
Q 2331 3044 2228 3395 
Q 2125 3747 1936 3934 
Q 1747 4122 1506 4122 
Q 1228 4122 1018 3872 
Q 809 3622 809 3128 
Q 809 2469 1088 2097 
Q 1291 1828 1588 1828 
Q 1731 1828 1928 1897 
Q 2125 1966 2275 2091 
z
" id="TimesNewRomanPSMT-39" transform="scale(0.015625)"/>
      <path d="M 1794 4444 
L 259 -88 
L 9 -88 
L 1544 4444 
L 1794 4444 
z
" id="TimesNewRomanPSMT-2f" transform="scale(0.015625)"/>
     </defs>
     <use xlink:href="#TimesNewRomanPSMT-56"/>
     <use x="72.216797" xlink:href="#TimesNewRomanPSMT-73"/>
     <use x="111.132812" xlink:href="#TimesNewRomanPSMT-3a"/>
     <use x="138.916016" xlink:href="#TimesNewRomanPSMT-20"/>
     <use x="163.916016" xlink:href="#TimesNewRomanPSMT-33"/>
     <use x="213.916016" xlink:href="#TimesNewRomanPSMT-31"/>
     <use x="260.166016" xlink:href="#TimesNewRomanPSMT-31"/>
     <use x="310.166016" xlink:href="#TimesNewRomanPSMT-2e"/>
     <use x="335.166016" xlink:href="#TimesNewRomanPSMT-32"/>
     <use x="385.166016" xlink:href="#TimesNewRomanPSMT-39"/>
     <use x="435.166016" xlink:href="#TimesNewRomanPSMT-6d"/>
     <use x="512.949219" xlink:href="#TimesNewRomanPSMT-2f"/>
     <use x="540.732422" xlink:href="#TimesNewRomanPSMT-73"/>
    </g>
   </g>
  </g>
 </g>
 <defs>
  <clipPath id="p1d77611dbb">
   <rect height="332.64" width="334.8" x="63.336875" y="7.2"/>
  </clipPath>
 </defs>
</svg>
