<?xml version="1.0" encoding="utf-8" standalone="no"?>
<!DOCTYPE svg PUBLIC "-//W3C//DTD SVG 1.1//EN"
  "http://www.w3.org/Graphics/SVG/1.1/DTD/svg11.dtd">
<svg height="383.471875pt" version="1.1" viewBox="0 0 421.086875 383.471875" width="421.086875pt" xmlns="http://www.w3.org/2000/svg" xmlns:xlink="http://www.w3.org/1999/xlink">
 <metadata>
  <rdf:RDF xmlns:cc="http://creativecommons.org/ns#" xmlns:dc="http://purl.org/dc/elements/1.1/" xmlns:rdf="http://www.w3.org/1999/02/22-rdf-syntax-ns#">
   <cc:Work>
    <dc:type rdf:resource="http://purl.org/dc/dcmitype/StillImage"/>
    <dc:date>2021-06-11T14:39:38.208623</dc:date>
    <dc:format>image/svg+xml</dc:format>
    <dc:creator>
     <cc:Agent>
      <dc:title>Matplotlib v3.4.2, https://matplotlib.org/</dc:title>
     </cc:Agent>
    </dc:creator>
   </cc:Work>
  </rdf:RDF>
 </metadata>
 <defs>
  <style type="text/css">*{stroke-linecap:butt;stroke-linejoin:round;}</style>
 </defs>
 <g id="figure_1">
  <g id="patch_1">
   <path d="M 0 383.471875 
L 421.086875 383.471875 
L 421.086875 0 
L 0 0 
z
" style="fill:#ffffff;"/>
  </g>
  <g id="axes_1">
   <g id="patch_2">
    <path d="M 63.336875 339.84 
L 398.136875 339.84 
L 398.136875 7.2 
L 63.336875 7.2 
z
" style="fill:#ffffff;"/>
   </g>
   <g id="matplotlib.axis_1">
    <g id="xtick_1">
     <g id="line2d_1">
      <path clip-path="url(#p7ace1c4165)" d="M 93.773239 339.84 
L 93.773239 7.2 
" style="fill:none;stroke:#000000;stroke-dasharray:0.5,0.825;stroke-dashoffset:0;stroke-width:0.5;"/>
     </g>
     <g id="line2d_2">
      <defs>
       <path d="M 0 0 
L 0 3.5 
" id="m598eefedaf" style="stroke:#000000;stroke-width:0.8;"/>
      </defs>
      <g>
       <use style="stroke:#000000;stroke-width:0.8;" x="93.773239" xlink:href="#m598eefedaf" y="339.84"/>
      </g>
     </g>
     <g id="text_1">
      <!-- 0.000 -->
      <g transform="translate(78.023239 356.56125)scale(0.14 -0.14)">
       <defs>
        <path d="M 231 2094 
Q 231 2819 450 3342 
Q 669 3866 1031 4122 
Q 1313 4325 1613 4325 
Q 2100 4325 2488 3828 
Q 2972 3213 2972 2159 
Q 2972 1422 2759 906 
Q 2547 391 2217 158 
Q 1888 -75 1581 -75 
Q 975 -75 572 641 
Q 231 1244 231 2094 
z
M 844 2016 
Q 844 1141 1059 588 
Q 1238 122 1591 122 
Q 1759 122 1940 273 
Q 2122 425 2216 781 
Q 2359 1319 2359 2297 
Q 2359 3022 2209 3506 
Q 2097 3866 1919 4016 
Q 1791 4119 1609 4119 
Q 1397 4119 1231 3928 
Q 1006 3669 925 3112 
Q 844 2556 844 2016 
z
" id="TimesNewRomanPSMT-30" transform="scale(0.015625)"/>
        <path d="M 800 606 
Q 947 606 1047 504 
Q 1147 403 1147 259 
Q 1147 116 1045 14 
Q 944 -88 800 -88 
Q 656 -88 554 14 
Q 453 116 453 259 
Q 453 406 554 506 
Q 656 606 800 606 
z
" id="TimesNewRomanPSMT-2e" transform="scale(0.015625)"/>
       </defs>
       <use xlink:href="#TimesNewRomanPSMT-30"/>
       <use x="50" xlink:href="#TimesNewRomanPSMT-2e"/>
       <use x="75" xlink:href="#TimesNewRomanPSMT-30"/>
       <use x="125" xlink:href="#TimesNewRomanPSMT-30"/>
       <use x="175" xlink:href="#TimesNewRomanPSMT-30"/>
      </g>
     </g>
    </g>
    <g id="xtick_2">
     <g id="line2d_3">
      <path clip-path="url(#p7ace1c4165)" d="M 154.645966 339.84 
L 154.645966 7.2 
" style="fill:none;stroke:#000000;stroke-dasharray:0.5,0.825;stroke-dashoffset:0;stroke-width:0.5;"/>
     </g>
     <g id="line2d_4">
      <g>
       <use style="stroke:#000000;stroke-width:0.8;" x="154.645966" xlink:href="#m598eefedaf" y="339.84"/>
      </g>
     </g>
     <g id="text_2">
      <!-- 0.001 -->
      <g transform="translate(138.895966 356.56125)scale(0.14 -0.14)">
       <defs>
        <path d="M 750 3822 
L 1781 4325 
L 1884 4325 
L 1884 747 
Q 1884 391 1914 303 
Q 1944 216 2037 169 
Q 2131 122 2419 116 
L 2419 0 
L 825 0 
L 825 116 
Q 1125 122 1212 167 
Q 1300 213 1334 289 
Q 1369 366 1369 747 
L 1369 3034 
Q 1369 3497 1338 3628 
Q 1316 3728 1258 3775 
Q 1200 3822 1119 3822 
Q 1003 3822 797 3725 
L 750 3822 
z
" id="TimesNewRomanPSMT-31" transform="scale(0.015625)"/>
       </defs>
       <use xlink:href="#TimesNewRomanPSMT-30"/>
       <use x="50" xlink:href="#TimesNewRomanPSMT-2e"/>
       <use x="75" xlink:href="#TimesNewRomanPSMT-30"/>
       <use x="125" xlink:href="#TimesNewRomanPSMT-30"/>
       <use x="175" xlink:href="#TimesNewRomanPSMT-31"/>
      </g>
     </g>
    </g>
    <g id="xtick_3">
     <g id="line2d_5">
      <path clip-path="url(#p7ace1c4165)" d="M 215.518693 339.84 
L 215.518693 7.2 
" style="fill:none;stroke:#000000;stroke-dasharray:0.5,0.825;stroke-dashoffset:0;stroke-width:0.5;"/>
     </g>
     <g id="line2d_6">
      <g>
       <use style="stroke:#000000;stroke-width:0.8;" x="215.518693" xlink:href="#m598eefedaf" y="339.84"/>
      </g>
     </g>
     <g id="text_3">
      <!-- 0.002 -->
      <g transform="translate(199.768693 356.56125)scale(0.14 -0.14)">
       <defs>
        <path d="M 2934 816 
L 2638 0 
L 138 0 
L 138 116 
Q 1241 1122 1691 1759 
Q 2141 2397 2141 2925 
Q 2141 3328 1894 3587 
Q 1647 3847 1303 3847 
Q 991 3847 742 3664 
Q 494 3481 375 3128 
L 259 3128 
Q 338 3706 661 4015 
Q 984 4325 1469 4325 
Q 1984 4325 2329 3994 
Q 2675 3663 2675 3213 
Q 2675 2891 2525 2569 
Q 2294 2063 1775 1497 
Q 997 647 803 472 
L 1909 472 
Q 2247 472 2383 497 
Q 2519 522 2628 598 
Q 2738 675 2819 816 
L 2934 816 
z
" id="TimesNewRomanPSMT-32" transform="scale(0.015625)"/>
       </defs>
       <use xlink:href="#TimesNewRomanPSMT-30"/>
       <use x="50" xlink:href="#TimesNewRomanPSMT-2e"/>
       <use x="75" xlink:href="#TimesNewRomanPSMT-30"/>
       <use x="125" xlink:href="#TimesNewRomanPSMT-30"/>
       <use x="175" xlink:href="#TimesNewRomanPSMT-32"/>
      </g>
     </g>
    </g>
    <g id="xtick_4">
     <g id="line2d_7">
      <path clip-path="url(#p7ace1c4165)" d="M 276.39142 339.84 
L 276.39142 7.2 
" style="fill:none;stroke:#000000;stroke-dasharray:0.5,0.825;stroke-dashoffset:0;stroke-width:0.5;"/>
     </g>
     <g id="line2d_8">
      <g>
       <use style="stroke:#000000;stroke-width:0.8;" x="276.39142" xlink:href="#m598eefedaf" y="339.84"/>
      </g>
     </g>
     <g id="text_4">
      <!-- 0.003 -->
      <g transform="translate(260.64142 356.56125)scale(0.14 -0.14)">
       <defs>
        <path d="M 325 3431 
Q 506 3859 782 4092 
Q 1059 4325 1472 4325 
Q 1981 4325 2253 3994 
Q 2459 3747 2459 3466 
Q 2459 3003 1878 2509 
Q 2269 2356 2469 2072 
Q 2669 1788 2669 1403 
Q 2669 853 2319 450 
Q 1863 -75 997 -75 
Q 569 -75 414 31 
Q 259 138 259 259 
Q 259 350 332 419 
Q 406 488 509 488 
Q 588 488 669 463 
Q 722 447 909 348 
Q 1097 250 1169 231 
Q 1284 197 1416 197 
Q 1734 197 1970 444 
Q 2206 691 2206 1028 
Q 2206 1275 2097 1509 
Q 2016 1684 1919 1775 
Q 1784 1900 1550 2001 
Q 1316 2103 1072 2103 
L 972 2103 
L 972 2197 
Q 1219 2228 1467 2375 
Q 1716 2522 1828 2728 
Q 1941 2934 1941 3181 
Q 1941 3503 1739 3701 
Q 1538 3900 1238 3900 
Q 753 3900 428 3381 
L 325 3431 
z
" id="TimesNewRomanPSMT-33" transform="scale(0.015625)"/>
       </defs>
       <use xlink:href="#TimesNewRomanPSMT-30"/>
       <use x="50" xlink:href="#TimesNewRomanPSMT-2e"/>
       <use x="75" xlink:href="#TimesNewRomanPSMT-30"/>
       <use x="125" xlink:href="#TimesNewRomanPSMT-30"/>
       <use x="175" xlink:href="#TimesNewRomanPSMT-33"/>
      </g>
     </g>
    </g>
    <g id="xtick_5">
     <g id="line2d_9">
      <path clip-path="url(#p7ace1c4165)" d="M 337.264148 339.84 
L 337.264148 7.2 
" style="fill:none;stroke:#000000;stroke-dasharray:0.5,0.825;stroke-dashoffset:0;stroke-width:0.5;"/>
     </g>
     <g id="line2d_10">
      <g>
       <use style="stroke:#000000;stroke-width:0.8;" x="337.264148" xlink:href="#m598eefedaf" y="339.84"/>
      </g>
     </g>
     <g id="text_5">
      <!-- 0.004 -->
      <g transform="translate(321.514148 356.56125)scale(0.14 -0.14)">
       <defs>
        <path d="M 2978 1563 
L 2978 1119 
L 2409 1119 
L 2409 0 
L 1894 0 
L 1894 1119 
L 100 1119 
L 100 1519 
L 2066 4325 
L 2409 4325 
L 2409 1563 
L 2978 1563 
z
M 1894 1563 
L 1894 3666 
L 406 1563 
L 1894 1563 
z
" id="TimesNewRomanPSMT-34" transform="scale(0.015625)"/>
       </defs>
       <use xlink:href="#TimesNewRomanPSMT-30"/>
       <use x="50" xlink:href="#TimesNewRomanPSMT-2e"/>
       <use x="75" xlink:href="#TimesNewRomanPSMT-30"/>
       <use x="125" xlink:href="#TimesNewRomanPSMT-30"/>
       <use x="175" xlink:href="#TimesNewRomanPSMT-34"/>
      </g>
     </g>
    </g>
    <g id="xtick_6">
     <g id="line2d_11">
      <path clip-path="url(#p7ace1c4165)" d="M 398.136875 339.84 
L 398.136875 7.2 
" style="fill:none;stroke:#000000;stroke-dasharray:0.5,0.825;stroke-dashoffset:0;stroke-width:0.5;"/>
     </g>
     <g id="line2d_12">
      <g>
       <use style="stroke:#000000;stroke-width:0.8;" x="398.136875" xlink:href="#m598eefedaf" y="339.84"/>
      </g>
     </g>
     <g id="text_6">
      <!-- 0.005 -->
      <g transform="translate(382.386875 356.56125)scale(0.14 -0.14)">
       <defs>
        <path d="M 2778 4238 
L 2534 3706 
L 1259 3706 
L 981 3138 
Q 1809 3016 2294 2522 
Q 2709 2097 2709 1522 
Q 2709 1188 2573 903 
Q 2438 619 2231 419 
Q 2025 219 1772 97 
Q 1413 -75 1034 -75 
Q 653 -75 479 54 
Q 306 184 306 341 
Q 306 428 378 495 
Q 450 563 559 563 
Q 641 563 702 538 
Q 763 513 909 409 
Q 1144 247 1384 247 
Q 1750 247 2026 523 
Q 2303 800 2303 1197 
Q 2303 1581 2056 1914 
Q 1809 2247 1375 2428 
Q 1034 2569 447 2591 
L 1259 4238 
L 2778 4238 
z
" id="TimesNewRomanPSMT-35" transform="scale(0.015625)"/>
       </defs>
       <use xlink:href="#TimesNewRomanPSMT-30"/>
       <use x="50" xlink:href="#TimesNewRomanPSMT-2e"/>
       <use x="75" xlink:href="#TimesNewRomanPSMT-30"/>
       <use x="125" xlink:href="#TimesNewRomanPSMT-30"/>
       <use x="175" xlink:href="#TimesNewRomanPSMT-35"/>
      </g>
     </g>
    </g>
    <g id="text_7">
     <!-- Time (sec) -->
     <g transform="translate(200.858906 373.277188)scale(0.14 -0.14)">
      <defs>
       <path d="M 3703 4238 
L 3750 3244 
L 3631 3244 
Q 3597 3506 3538 3619 
Q 3441 3800 3280 3886 
Q 3119 3972 2856 3972 
L 2259 3972 
L 2259 734 
Q 2259 344 2344 247 
Q 2463 116 2709 116 
L 2856 116 
L 2856 0 
L 1059 0 
L 1059 116 
L 1209 116 
Q 1478 116 1591 278 
Q 1659 378 1659 734 
L 1659 3972 
L 1150 3972 
Q 853 3972 728 3928 
Q 566 3869 450 3700 
Q 334 3531 313 3244 
L 194 3244 
L 244 4238 
L 3703 4238 
z
" id="TimesNewRomanPSMT-54" transform="scale(0.015625)"/>
       <path d="M 928 4444 
Q 1059 4444 1151 4351 
Q 1244 4259 1244 4128 
Q 1244 3997 1151 3903 
Q 1059 3809 928 3809 
Q 797 3809 703 3903 
Q 609 3997 609 4128 
Q 609 4259 701 4351 
Q 794 4444 928 4444 
z
M 1188 2947 
L 1188 647 
Q 1188 378 1227 289 
Q 1266 200 1342 156 
Q 1419 113 1622 113 
L 1622 0 
L 231 0 
L 231 113 
Q 441 113 512 153 
Q 584 194 626 287 
Q 669 381 669 647 
L 669 1750 
Q 669 2216 641 2353 
Q 619 2453 572 2492 
Q 525 2531 444 2531 
Q 356 2531 231 2484 
L 188 2597 
L 1050 2947 
L 1188 2947 
z
" id="TimesNewRomanPSMT-69" transform="scale(0.015625)"/>
       <path d="M 1050 2338 
Q 1363 2650 1419 2697 
Q 1559 2816 1721 2881 
Q 1884 2947 2044 2947 
Q 2313 2947 2506 2790 
Q 2700 2634 2766 2338 
Q 3088 2713 3309 2830 
Q 3531 2947 3766 2947 
Q 3994 2947 4170 2830 
Q 4347 2713 4450 2447 
Q 4519 2266 4519 1878 
L 4519 647 
Q 4519 378 4559 278 
Q 4591 209 4675 161 
Q 4759 113 4950 113 
L 4950 0 
L 3538 0 
L 3538 113 
L 3597 113 
Q 3781 113 3884 184 
Q 3956 234 3988 344 
Q 4000 397 4000 647 
L 4000 1878 
Q 4000 2228 3916 2372 
Q 3794 2572 3525 2572 
Q 3359 2572 3192 2489 
Q 3025 2406 2788 2181 
L 2781 2147 
L 2788 2013 
L 2788 647 
Q 2788 353 2820 281 
Q 2853 209 2943 161 
Q 3034 113 3253 113 
L 3253 0 
L 1806 0 
L 1806 113 
Q 2044 113 2133 169 
Q 2222 225 2256 338 
Q 2272 391 2272 647 
L 2272 1878 
Q 2272 2228 2169 2381 
Q 2031 2581 1784 2581 
Q 1616 2581 1450 2491 
Q 1191 2353 1050 2181 
L 1050 647 
Q 1050 366 1089 281 
Q 1128 197 1204 155 
Q 1281 113 1516 113 
L 1516 0 
L 100 0 
L 100 113 
Q 297 113 375 155 
Q 453 197 493 289 
Q 534 381 534 647 
L 534 1741 
Q 534 2213 506 2350 
Q 484 2453 437 2492 
Q 391 2531 309 2531 
Q 222 2531 100 2484 
L 53 2597 
L 916 2947 
L 1050 2947 
L 1050 2338 
z
" id="TimesNewRomanPSMT-6d" transform="scale(0.015625)"/>
       <path d="M 681 1784 
Q 678 1147 991 784 
Q 1303 422 1725 422 
Q 2006 422 2214 576 
Q 2422 731 2563 1106 
L 2659 1044 
Q 2594 616 2278 264 
Q 1963 -88 1488 -88 
Q 972 -88 605 314 
Q 238 716 238 1394 
Q 238 2128 614 2539 
Q 991 2950 1559 2950 
Q 2041 2950 2350 2633 
Q 2659 2316 2659 1784 
L 681 1784 
z
M 681 1966 
L 2006 1966 
Q 1991 2241 1941 2353 
Q 1863 2528 1708 2628 
Q 1553 2728 1384 2728 
Q 1125 2728 920 2526 
Q 716 2325 681 1966 
z
" id="TimesNewRomanPSMT-65" transform="scale(0.015625)"/>
       <path id="TimesNewRomanPSMT-20" transform="scale(0.015625)"/>
       <path d="M 1988 -1253 
L 1988 -1369 
Q 1516 -1131 1200 -813 
Q 750 -359 506 256 
Q 263 872 263 1534 
Q 263 2503 741 3301 
Q 1219 4100 1988 4444 
L 1988 4313 
Q 1603 4100 1356 3731 
Q 1109 3363 987 2797 
Q 866 2231 866 1616 
Q 866 947 969 400 
Q 1050 -31 1165 -292 
Q 1281 -553 1476 -793 
Q 1672 -1034 1988 -1253 
z
" id="TimesNewRomanPSMT-28" transform="scale(0.015625)"/>
       <path d="M 2050 2947 
L 2050 1972 
L 1947 1972 
Q 1828 2431 1642 2597 
Q 1456 2763 1169 2763 
Q 950 2763 815 2647 
Q 681 2531 681 2391 
Q 681 2216 781 2091 
Q 878 1963 1175 1819 
L 1631 1597 
Q 2266 1288 2266 781 
Q 2266 391 1970 151 
Q 1675 -88 1309 -88 
Q 1047 -88 709 6 
Q 606 38 541 38 
Q 469 38 428 -44 
L 325 -44 
L 325 978 
L 428 978 
Q 516 541 762 319 
Q 1009 97 1316 97 
Q 1531 97 1667 223 
Q 1803 350 1803 528 
Q 1803 744 1651 891 
Q 1500 1038 1047 1263 
Q 594 1488 453 1669 
Q 313 1847 313 2119 
Q 313 2472 555 2709 
Q 797 2947 1181 2947 
Q 1350 2947 1591 2875 
Q 1750 2828 1803 2828 
Q 1853 2828 1881 2850 
Q 1909 2872 1947 2947 
L 2050 2947 
z
" id="TimesNewRomanPSMT-73" transform="scale(0.015625)"/>
       <path d="M 2631 1088 
Q 2516 522 2178 217 
Q 1841 -88 1431 -88 
Q 944 -88 581 321 
Q 219 731 219 1428 
Q 219 2103 620 2525 
Q 1022 2947 1584 2947 
Q 2006 2947 2278 2723 
Q 2550 2500 2550 2259 
Q 2550 2141 2473 2067 
Q 2397 1994 2259 1994 
Q 2075 1994 1981 2113 
Q 1928 2178 1911 2362 
Q 1894 2547 1784 2644 
Q 1675 2738 1481 2738 
Q 1169 2738 978 2506 
Q 725 2200 725 1697 
Q 725 1184 976 792 
Q 1228 400 1656 400 
Q 1963 400 2206 609 
Q 2378 753 2541 1131 
L 2631 1088 
z
" id="TimesNewRomanPSMT-63" transform="scale(0.015625)"/>
       <path d="M 144 4313 
L 144 4444 
Q 619 4209 934 3891 
Q 1381 3434 1625 2820 
Q 1869 2206 1869 1541 
Q 1869 572 1392 -226 
Q 916 -1025 144 -1369 
L 144 -1253 
Q 528 -1038 776 -670 
Q 1025 -303 1145 264 
Q 1266 831 1266 1447 
Q 1266 2113 1163 2663 
Q 1084 3094 967 3353 
Q 850 3613 656 3853 
Q 463 4094 144 4313 
z
" id="TimesNewRomanPSMT-29" transform="scale(0.015625)"/>
      </defs>
      <use xlink:href="#TimesNewRomanPSMT-54"/>
      <use x="57.583984" xlink:href="#TimesNewRomanPSMT-69"/>
      <use x="85.367188" xlink:href="#TimesNewRomanPSMT-6d"/>
      <use x="163.150391" xlink:href="#TimesNewRomanPSMT-65"/>
      <use x="207.535156" xlink:href="#TimesNewRomanPSMT-20"/>
      <use x="232.535156" xlink:href="#TimesNewRomanPSMT-28"/>
      <use x="265.835938" xlink:href="#TimesNewRomanPSMT-73"/>
      <use x="304.751953" xlink:href="#TimesNewRomanPSMT-65"/>
      <use x="349.136719" xlink:href="#TimesNewRomanPSMT-63"/>
      <use x="393.521484" xlink:href="#TimesNewRomanPSMT-29"/>
     </g>
    </g>
   </g>
   <g id="matplotlib.axis_2">
    <g id="ytick_1">
     <g id="line2d_13">
      <path clip-path="url(#p7ace1c4165)" d="M 63.336875 312.62016 
L 398.136875 312.62016 
" style="fill:none;stroke:#000000;stroke-dasharray:0.5,0.825;stroke-dashoffset:0;stroke-width:0.5;"/>
     </g>
     <g id="line2d_14">
      <defs>
       <path d="M 0 0 
L -3.5 0 
" id="m19aecd5acc" style="stroke:#000000;stroke-width:0.8;"/>
      </defs>
      <g>
       <use style="stroke:#000000;stroke-width:0.8;" x="63.336875" xlink:href="#m19aecd5acc" y="312.62016"/>
      </g>
     </g>
     <g id="text_8">
      <!-- −0.06 -->
      <g transform="translate(23.942188 317.480785)scale(0.14 -0.14)">
       <defs>
        <path d="M 3484 2000 
L 116 2000 
L 116 2256 
L 3484 2256 
L 3484 2000 
z
" id="TimesNewRomanPSMT-2212" transform="scale(0.015625)"/>
        <path d="M 2869 4325 
L 2869 4209 
Q 2456 4169 2195 4045 
Q 1934 3922 1679 3669 
Q 1425 3416 1258 3105 
Q 1091 2794 978 2366 
Q 1428 2675 1881 2675 
Q 2316 2675 2634 2325 
Q 2953 1975 2953 1425 
Q 2953 894 2631 456 
Q 2244 -75 1606 -75 
Q 1172 -75 869 213 
Q 275 772 275 1663 
Q 275 2231 503 2743 
Q 731 3256 1154 3653 
Q 1578 4050 1965 4187 
Q 2353 4325 2688 4325 
L 2869 4325 
z
M 925 2138 
Q 869 1716 869 1456 
Q 869 1156 980 804 
Q 1091 453 1309 247 
Q 1469 100 1697 100 
Q 1969 100 2183 356 
Q 2397 613 2397 1088 
Q 2397 1622 2184 2012 
Q 1972 2403 1581 2403 
Q 1463 2403 1327 2353 
Q 1191 2303 925 2138 
z
" id="TimesNewRomanPSMT-36" transform="scale(0.015625)"/>
       </defs>
       <use xlink:href="#TimesNewRomanPSMT-2212"/>
       <use x="56.396484" xlink:href="#TimesNewRomanPSMT-30"/>
       <use x="106.396484" xlink:href="#TimesNewRomanPSMT-2e"/>
       <use x="131.396484" xlink:href="#TimesNewRomanPSMT-30"/>
       <use x="181.396484" xlink:href="#TimesNewRomanPSMT-36"/>
      </g>
     </g>
    </g>
    <g id="ytick_2">
     <g id="line2d_15">
      <path clip-path="url(#p7ace1c4165)" d="M 63.336875 261.52501 
L 398.136875 261.52501 
" style="fill:none;stroke:#000000;stroke-dasharray:0.5,0.825;stroke-dashoffset:0;stroke-width:0.5;"/>
     </g>
     <g id="line2d_16">
      <g>
       <use style="stroke:#000000;stroke-width:0.8;" x="63.336875" xlink:href="#m19aecd5acc" y="261.52501"/>
      </g>
     </g>
     <g id="text_9">
      <!-- −0.04 -->
      <g transform="translate(23.942188 266.385635)scale(0.14 -0.14)">
       <use xlink:href="#TimesNewRomanPSMT-2212"/>
       <use x="56.396484" xlink:href="#TimesNewRomanPSMT-30"/>
       <use x="106.396484" xlink:href="#TimesNewRomanPSMT-2e"/>
       <use x="131.396484" xlink:href="#TimesNewRomanPSMT-30"/>
       <use x="181.396484" xlink:href="#TimesNewRomanPSMT-34"/>
      </g>
     </g>
    </g>
    <g id="ytick_3">
     <g id="line2d_17">
      <path clip-path="url(#p7ace1c4165)" d="M 63.336875 210.42986 
L 398.136875 210.42986 
" style="fill:none;stroke:#000000;stroke-dasharray:0.5,0.825;stroke-dashoffset:0;stroke-width:0.5;"/>
     </g>
     <g id="line2d_18">
      <g>
       <use style="stroke:#000000;stroke-width:0.8;" x="63.336875" xlink:href="#m19aecd5acc" y="210.42986"/>
      </g>
     </g>
     <g id="text_10">
      <!-- −0.02 -->
      <g transform="translate(23.942188 215.290485)scale(0.14 -0.14)">
       <use xlink:href="#TimesNewRomanPSMT-2212"/>
       <use x="56.396484" xlink:href="#TimesNewRomanPSMT-30"/>
       <use x="106.396484" xlink:href="#TimesNewRomanPSMT-2e"/>
       <use x="131.396484" xlink:href="#TimesNewRomanPSMT-30"/>
       <use x="181.396484" xlink:href="#TimesNewRomanPSMT-32"/>
      </g>
     </g>
    </g>
    <g id="ytick_4">
     <g id="line2d_19">
      <path clip-path="url(#p7ace1c4165)" d="M 63.336875 159.33471 
L 398.136875 159.33471 
" style="fill:none;stroke:#000000;stroke-dasharray:0.5,0.825;stroke-dashoffset:0;stroke-width:0.5;"/>
     </g>
     <g id="line2d_20">
      <g>
       <use style="stroke:#000000;stroke-width:0.8;" x="63.336875" xlink:href="#m19aecd5acc" y="159.33471"/>
      </g>
     </g>
     <g id="text_11">
      <!-- 0.00 -->
      <g transform="translate(31.836875 164.195335)scale(0.14 -0.14)">
       <use xlink:href="#TimesNewRomanPSMT-30"/>
       <use x="50" xlink:href="#TimesNewRomanPSMT-2e"/>
       <use x="75" xlink:href="#TimesNewRomanPSMT-30"/>
       <use x="125" xlink:href="#TimesNewRomanPSMT-30"/>
      </g>
     </g>
    </g>
    <g id="ytick_5">
     <g id="line2d_21">
      <path clip-path="url(#p7ace1c4165)" d="M 63.336875 108.23956 
L 398.136875 108.23956 
" style="fill:none;stroke:#000000;stroke-dasharray:0.5,0.825;stroke-dashoffset:0;stroke-width:0.5;"/>
     </g>
     <g id="line2d_22">
      <g>
       <use style="stroke:#000000;stroke-width:0.8;" x="63.336875" xlink:href="#m19aecd5acc" y="108.23956"/>
      </g>
     </g>
     <g id="text_12">
      <!-- 0.02 -->
      <g transform="translate(31.836875 113.100185)scale(0.14 -0.14)">
       <use xlink:href="#TimesNewRomanPSMT-30"/>
       <use x="50" xlink:href="#TimesNewRomanPSMT-2e"/>
       <use x="75" xlink:href="#TimesNewRomanPSMT-30"/>
       <use x="125" xlink:href="#TimesNewRomanPSMT-32"/>
      </g>
     </g>
    </g>
    <g id="ytick_6">
     <g id="line2d_23">
      <path clip-path="url(#p7ace1c4165)" d="M 63.336875 57.14441 
L 398.136875 57.14441 
" style="fill:none;stroke:#000000;stroke-dasharray:0.5,0.825;stroke-dashoffset:0;stroke-width:0.5;"/>
     </g>
     <g id="line2d_24">
      <g>
       <use style="stroke:#000000;stroke-width:0.8;" x="63.336875" xlink:href="#m19aecd5acc" y="57.14441"/>
      </g>
     </g>
     <g id="text_13">
      <!-- 0.04 -->
      <g transform="translate(31.836875 62.005035)scale(0.14 -0.14)">
       <use xlink:href="#TimesNewRomanPSMT-30"/>
       <use x="50" xlink:href="#TimesNewRomanPSMT-2e"/>
       <use x="75" xlink:href="#TimesNewRomanPSMT-30"/>
       <use x="125" xlink:href="#TimesNewRomanPSMT-34"/>
      </g>
     </g>
    </g>
    <g id="text_14">
     <!-- Volatage (V) -->
     <g transform="translate(16.92125 209.352344)rotate(-90)scale(0.14 -0.14)">
      <defs>
       <path d="M 4544 4238 
L 4544 4122 
Q 4319 4081 4203 3978 
Q 4038 3825 3909 3509 
L 2431 -97 
L 2316 -97 
L 728 3556 
Q 606 3838 556 3900 
Q 478 3997 364 4051 
Q 250 4106 56 4122 
L 56 4238 
L 1788 4238 
L 1788 4122 
Q 1494 4094 1406 4022 
Q 1319 3950 1319 3838 
Q 1319 3681 1463 3350 
L 2541 866 
L 3541 3319 
Q 3688 3681 3688 3822 
Q 3688 3913 3597 3995 
Q 3506 4078 3291 4113 
Q 3275 4116 3238 4122 
L 3238 4238 
L 4544 4238 
z
" id="TimesNewRomanPSMT-56" transform="scale(0.015625)"/>
       <path d="M 1600 2947 
Q 2250 2947 2644 2453 
Q 2978 2031 2978 1484 
Q 2978 1100 2793 706 
Q 2609 313 2286 112 
Q 1963 -88 1566 -88 
Q 919 -88 538 428 
Q 216 863 216 1403 
Q 216 1797 411 2186 
Q 606 2575 925 2761 
Q 1244 2947 1600 2947 
z
M 1503 2744 
Q 1338 2744 1170 2645 
Q 1003 2547 900 2300 
Q 797 2053 797 1666 
Q 797 1041 1045 587 
Q 1294 134 1700 134 
Q 2003 134 2200 384 
Q 2397 634 2397 1244 
Q 2397 2006 2069 2444 
Q 1847 2744 1503 2744 
z
" id="TimesNewRomanPSMT-6f" transform="scale(0.015625)"/>
       <path d="M 1184 4444 
L 1184 647 
Q 1184 378 1223 290 
Q 1263 203 1344 158 
Q 1425 113 1647 113 
L 1647 0 
L 244 0 
L 244 113 
Q 441 113 512 153 
Q 584 194 625 287 
Q 666 381 666 647 
L 666 3247 
Q 666 3731 644 3842 
Q 622 3953 573 3993 
Q 525 4034 450 4034 
Q 369 4034 244 3984 
L 191 4094 
L 1044 4444 
L 1184 4444 
z
" id="TimesNewRomanPSMT-6c" transform="scale(0.015625)"/>
       <path d="M 1822 413 
Q 1381 72 1269 19 
Q 1100 -59 909 -59 
Q 613 -59 420 144 
Q 228 347 228 678 
Q 228 888 322 1041 
Q 450 1253 767 1440 
Q 1084 1628 1822 1897 
L 1822 2009 
Q 1822 2438 1686 2597 
Q 1550 2756 1291 2756 
Q 1094 2756 978 2650 
Q 859 2544 859 2406 
L 866 2225 
Q 866 2081 792 2003 
Q 719 1925 600 1925 
Q 484 1925 411 2006 
Q 338 2088 338 2228 
Q 338 2497 613 2722 
Q 888 2947 1384 2947 
Q 1766 2947 2009 2819 
Q 2194 2722 2281 2516 
Q 2338 2381 2338 1966 
L 2338 994 
Q 2338 584 2353 492 
Q 2369 400 2405 369 
Q 2441 338 2488 338 
Q 2538 338 2575 359 
Q 2641 400 2828 588 
L 2828 413 
Q 2478 -56 2159 -56 
Q 2006 -56 1915 50 
Q 1825 156 1822 413 
z
M 1822 616 
L 1822 1706 
Q 1350 1519 1213 1441 
Q 966 1303 859 1153 
Q 753 1003 753 825 
Q 753 600 887 451 
Q 1022 303 1197 303 
Q 1434 303 1822 616 
z
" id="TimesNewRomanPSMT-61" transform="scale(0.015625)"/>
       <path d="M 1031 3803 
L 1031 2863 
L 1700 2863 
L 1700 2644 
L 1031 2644 
L 1031 788 
Q 1031 509 1111 412 
Q 1191 316 1316 316 
Q 1419 316 1516 380 
Q 1613 444 1666 569 
L 1788 569 
Q 1678 263 1478 108 
Q 1278 -47 1066 -47 
Q 922 -47 784 33 
Q 647 113 581 261 
Q 516 409 516 719 
L 516 2644 
L 63 2644 
L 63 2747 
Q 234 2816 414 2980 
Q 594 3144 734 3369 
Q 806 3488 934 3803 
L 1031 3803 
z
" id="TimesNewRomanPSMT-74" transform="scale(0.015625)"/>
       <path d="M 966 1044 
Q 703 1172 562 1401 
Q 422 1631 422 1909 
Q 422 2334 742 2640 
Q 1063 2947 1563 2947 
Q 1972 2947 2272 2747 
L 2878 2747 
Q 3013 2747 3034 2739 
Q 3056 2731 3066 2713 
Q 3084 2684 3084 2613 
Q 3084 2531 3069 2500 
Q 3059 2484 3036 2475 
Q 3013 2466 2878 2466 
L 2506 2466 
Q 2681 2241 2681 1891 
Q 2681 1491 2375 1206 
Q 2069 922 1553 922 
Q 1341 922 1119 984 
Q 981 866 932 777 
Q 884 688 884 625 
Q 884 572 936 522 
Q 988 472 1138 450 
Q 1225 438 1575 428 
Q 2219 413 2409 384 
Q 2700 344 2873 169 
Q 3047 -6 3047 -263 
Q 3047 -616 2716 -925 
Q 2228 -1381 1444 -1381 
Q 841 -1381 425 -1109 
Q 191 -953 191 -784 
Q 191 -709 225 -634 
Q 278 -519 444 -313 
Q 466 -284 763 25 
Q 600 122 533 198 
Q 466 275 466 372 
Q 466 481 555 628 
Q 644 775 966 1044 
z
M 1509 2797 
Q 1278 2797 1122 2612 
Q 966 2428 966 2047 
Q 966 1553 1178 1281 
Q 1341 1075 1591 1075 
Q 1828 1075 1981 1253 
Q 2134 1431 2134 1813 
Q 2134 2309 1919 2591 
Q 1759 2797 1509 2797 
z
M 934 0 
Q 788 -159 713 -296 
Q 638 -434 638 -550 
Q 638 -700 819 -813 
Q 1131 -1006 1722 -1006 
Q 2284 -1006 2551 -807 
Q 2819 -609 2819 -384 
Q 2819 -222 2659 -153 
Q 2497 -84 2016 -72 
Q 1313 -53 934 0 
z
" id="TimesNewRomanPSMT-67" transform="scale(0.015625)"/>
      </defs>
      <use xlink:href="#TimesNewRomanPSMT-56"/>
      <use x="59.341797" xlink:href="#TimesNewRomanPSMT-6f"/>
      <use x="109.341797" xlink:href="#TimesNewRomanPSMT-6c"/>
      <use x="137.125" xlink:href="#TimesNewRomanPSMT-61"/>
      <use x="181.509766" xlink:href="#TimesNewRomanPSMT-74"/>
      <use x="209.292969" xlink:href="#TimesNewRomanPSMT-61"/>
      <use x="253.677734" xlink:href="#TimesNewRomanPSMT-67"/>
      <use x="303.677734" xlink:href="#TimesNewRomanPSMT-65"/>
      <use x="348.0625" xlink:href="#TimesNewRomanPSMT-20"/>
      <use x="373.0625" xlink:href="#TimesNewRomanPSMT-28"/>
      <use x="406.363281" xlink:href="#TimesNewRomanPSMT-56"/>
      <use x="478.580078" xlink:href="#TimesNewRomanPSMT-29"/>
     </g>
    </g>
   </g>
   <g id="LineCollection_1">
    <path clip-path="url(#p7ace1c4165)" d="M 78.555057 159.33471 
L 382.918693 159.33471 
" style="fill:none;stroke:#1f77b4;stroke-width:1.5;"/>
   </g>
   <g id="line2d_25">
    <path clip-path="url(#p7ace1c4165)" d="M 78.555057 159.363324 
L 96.664693 159.26752 
L 96.847311 159.235586 
L 105.64342 159.299455 
L 105.673857 159.363324 
L 105.765166 159.299455 
L 105.97822 159.363324 
L 109.204475 159.427192 
L 109.234911 159.491061 
L 109.32622 159.427192 
L 112.826402 159.491061 
L 112.856839 159.55493 
L 112.948148 159.491061 
L 113.161202 159.55493 
L 113.282948 159.522996 
L 113.313384 159.55493 
L 113.465566 159.55493 
L 114.135166 159.650734 
L 114.256911 159.650734 
L 114.409093 159.650734 
L 114.622148 159.714603 
L 115.10913 159.810406 
L 115.291748 159.842341 
L 115.68742 159.90621 
L 115.839602 159.970078 
L 116.326584 160.065882 
L 116.539639 160.129751 
L 117.11793 160.19362 
L 117.270111 160.289423 
L 117.45273 160.257489 
L 117.604911 160.321358 
L 118.548439 160.417161 
L 118.731057 160.48103 
L 118.79193 160.417161 
L 118.852802 160.48103 
L 118.974548 160.449095 
L 119.004984 160.48103 
L 120.222439 160.576833 
L 120.37462 160.576833 
L 121.318148 160.672637 
L 121.47033 160.704571 
L 121.592075 160.704571 
L 121.744257 160.76844 
L 121.926875 160.832309 
L 121.957311 160.800375 
L 122.018184 160.896178 
L 122.292111 160.960047 
L 122.47473 161.087785 
L 122.596475 161.119719 
L 122.779093 161.215523 
L 123.113893 161.40713 
L 123.296511 161.502933 
L 123.448693 161.598736 
L 123.540002 161.662605 
L 123.753057 161.854212 
L 123.874802 161.950015 
L 125.366184 163.642542 
L 125.609675 164.089625 
L 125.853166 164.504773 
L 127.222802 167.634351 
L 129.627275 175.554099 
L 131.75782 184.016734 
L 133.675311 189.733003 
L 133.888366 190.116217 
L 134.131857 190.659103 
L 134.314475 191.010382 
L 134.588402 191.521334 
L 135.10582 192.35163 
L 136.11022 193.245795 
L 136.353711 193.149991 
L 137.418984 191.872613 
L 138.45382 189.445593 
L 139.184293 186.795032 
L 140.036511 182.739355 
L 140.706111 178.683677 
L 141.55833 172.456456 
L 141.984439 169.103337 
L 143.871493 152.33774 
L 146.397711 124.682491 
L 151.054475 72.182221 
L 151.663202 66.913034 
L 152.484984 60.206798 
L 154.372039 48.965865 
L 154.554657 48.327173 
L 154.85902 47.305273 
L 155.315566 46.187572 
L 156.259093 45.35727 
L 156.472148 45.453071 
L 156.989566 46.155632 
L 157.689602 47.880093 
L 158.024402 49.285215 
L 158.420075 51.424817 
L 159.424475 58.418465 
L 160.428875 67.775265 
L 161.402839 79.111999 
L 163.929057 117.848514 
L 165.816111 153.423512 
L 169.468475 227.766956 
L 172.02513 273.976132 
L 173.27302 291.987172 
L 173.729566 297.35216 
L 174.520911 305.94254 
L 176.073166 318.077633 
L 176.590584 320.632396 
L 177.442802 323.761961 
L 178.021093 324.528401 
L 178.203711 324.656141 
L 178.599384 324.560323 
L 178.842875 324.14518 
L 179.29942 323.059418 
L 179.664657 322.0375 
L 180.456002 318.269242 
L 181.64302 310.125953 
L 182.586548 301.343974 
L 184.017057 283.556475 
L 185.41713 262.95874 
L 188.399893 211.033296 
L 190.408693 173.222883 
L 192.35662 136.530177 
L 194.274111 106.192436 
L 196.46553 77.770756 
L 197.591675 66.050803 
L 198.261275 60.781619 
L 198.961311 55.831771 
L 199.417857 53.245089 
L 200.72662 46.953991 
L 201.944075 43.441197 
L 203.283275 42.195755 
L 204.226802 42.259627 
L 204.470293 42.515108 
L 204.805093 43.026057 
L 206.022548 45.83629 
L 207.209566 49.923894 
L 208.396584 55.384691 
L 209.674911 62.66575 
L 212.170693 77.706887 
L 212.44462 79.303608 
L 215.336075 98.144944 
L 215.79262 101.466129 
L 219.110184 121.648716 
L 219.414548 123.405112 
L 220.388511 128.865906 
L 220.57113 129.792006 
L 224.649602 150.645213 
L 224.83222 151.539379 
L 225.349639 154.094136 
L 225.92793 157.000173 
L 227.17582 164.089625 
L 228.149784 170.508454 
L 228.393275 172.009373 
L 229.062875 176.927281 
L 229.884657 182.899028 
L 231.132548 192.862581 
L 232.654366 206.530534 
L 236.063239 241.147495 
L 237.463311 253.378399 
L 238.285093 259.254347 
L 238.772075 262.447789 
L 239.776475 268.132127 
L 241.206984 272.315542 
L 241.57222 272.539081 
L 241.724402 272.539081 
L 241.937457 272.634882 
L 242.089639 272.602952 
L 242.24182 272.634882 
L 242.789675 271.932331 
L 243.094039 271.325571 
L 243.33753 270.94236 
L 243.67233 270.239799 
L 244.068002 269.185956 
L 244.463675 267.685047 
L 245.285457 263.757102 
L 246.046366 258.264376 
L 247.385566 246.097341 
L 249.150875 226.425708 
L 252.681493 180.63168 
L 253.655457 167.953696 
L 255.63382 144.417992 
L 257.277384 128.32302 
L 259.103566 115.708905 
L 259.529675 113.441558 
L 260.107966 110.503584 
L 261.203675 106.320171 
L 261.294984 106.128564 
L 261.629784 105.202465 
L 262.451566 103.733477 
L 263.395093 102.90318 
L 263.42553 102.935117 
L 263.486402 102.839316 
L 263.973384 102.807382 
L 264.00382 102.711576 
L 264.09513 102.743511 
L 264.216875 102.711576 
L 264.247311 102.743511 
L 264.67342 102.807382 
L 264.825602 102.871246 
L 265.129966 103.030921 
L 265.34302 103.126727 
L 266.864839 104.883117 
L 269.573675 110.822931 
L 270.091093 112.132247 
L 270.212839 112.387723 
L 270.45633 113.154147 
L 270.69982 113.888638 
L 271.217239 115.581167 
L 271.430293 116.283725 
L 272.830366 121.68065 
L 273.408657 123.852194 
L 273.956511 125.672459 
L 275.691384 130.781974 
L 276.269675 132.25096 
L 276.847966 133.719945 
L 277.365384 135.061193 
L 278.126293 137.136933 
L 278.248039 137.424343 
L 278.887202 139.084935 
L 279.039384 139.372345 
L 279.40462 140.202642 
L 279.526366 140.458118 
L 279.922039 141.384218 
L 280.07422 141.703562 
L 280.439457 142.501924 
L 280.652511 142.885138 
L 282.265639 146.493732 
L 282.539566 147.164357 
L 282.904802 147.994653 
L 283.148293 148.377866 
L 283.452657 149.016555 
L 283.665711 149.39977 
L 284.304875 150.485541 
L 284.700548 151.028427 
L 284.913602 151.347772 
L 285.796257 152.114199 
L 285.887566 152.114199 
L 285.918002 152.146134 
L 286.831093 152.082264 
L 286.983275 151.922592 
L 287.013711 151.986461 
L 287.074584 151.858724 
L 287.19633 151.76292 
L 288.048548 150.709082 
L 289.996475 146.365995 
L 290.361711 145.280222 
L 290.483457 144.992813 
L 290.818257 144.034778 
L 291.092184 143.204482 
L 291.54873 141.735497 
L 292.035711 140.458118 
L 293.314039 136.75372 
L 293.405348 136.498245 
L 294.257566 134.167028 
L 294.440184 133.815749 
L 294.80542 133.017387 
L 295.47502 131.803877 
L 295.505457 131.835812 
L 295.535893 131.740008 
L 296.448984 130.941646 
L 296.631602 130.845843 
L 296.783784 130.75004 
L 297.362075 130.845843 
L 297.514257 131.005515 
L 298.457784 132.155156 
L 299.096948 133.815749 
L 299.462184 134.837653 
L 299.888293 136.530177 
L 300.557893 139.468151 
L 301.014439 141.863235 
L 301.805784 146.589536 
L 302.688439 152.848692 
L 303.51022 159.55493 
L 304.971166 172.743866 
L 306.27993 185.326046 
L 310.084475 220.198486 
L 311.21062 228.72499 
L 312.367202 235.303488 
L 313.036802 238.241461 
L 313.462911 239.933988 
L 313.88902 241.275236 
L 314.680366 242.680358 
L 315.076039 242.935828 
L 315.349966 242.871957 
L 315.502148 242.680358 
L 315.623893 242.584546 
L 316.445675 241.594586 
L 317.267457 239.359168 
L 317.510948 238.592743 
L 317.937057 236.900216 
L 318.393602 234.696738 
L 318.819711 232.46132 
L 320.34153 222.178424 
L 321.954657 209.532374 
L 323.68953 194.044157 
L 324.876548 182.70742 
L 326.002693 172.328718 
L 327.402766 160.161685 
L 329.837675 140.649724 
L 331.176875 131.61227 
L 333.97702 114.686999 
L 337.051093 102.264496 
L 337.41633 101.242588 
L 338.146802 99.294588 
L 339.120766 97.474326 
L 339.151202 97.474326 
L 339.33382 97.154979 
L 339.729493 96.580158 
L 340.09473 96.037272 
L 340.581711 95.270847 
L 342.560075 93.354774 
L 342.77313 93.29091 
L 342.955748 93.16317 
L 343.260111 93.0035 
L 343.594911 92.907694 
L 343.77753 92.87576 
L 343.960148 92.907694 
L 344.11233 92.87576 
L 344.325384 92.971566 
L 344.477566 92.971566 
L 344.903675 93.035429 
L 345.055857 93.131235 
L 345.299348 93.227039 
L 346.303748 94.440546 
L 347.155966 96.484355 
L 349.012584 102.679642 
L 350.656148 110.056504 
L 353.273675 123.213505 
L 354.004148 126.758231 
L 362.465457 170.572323 
L 362.708948 171.690029 
L 364.961239 181.621649 
L 365.752584 185.198308 
L 371.383311 208.350799 
L 372.47902 212.151 
L 373.118184 214.354479 
L 374.853057 219.463996 
L 376.557493 222.817113 
L 376.648802 222.912914 
L 378.231493 224.445771 
L 378.383675 224.445771 
L 378.535857 224.605441 
L 378.566293 224.573511 
L 379.418511 224.50964 
L 379.60113 224.349965 
L 379.631566 224.381902 
L 379.692439 224.31803 
L 380.575093 223.232258 
L 381.975166 220.038817 
L 382.462148 218.474025 
L 382.918693 216.813433 
L 382.918693 216.813433 
" style="fill:none;stroke:#0000ff;stroke-linecap:square;stroke-width:1.5;"/>
   </g>
   <g id="line2d_26">
    <path clip-path="url(#p7ace1c4165)" d="M 78.555057 159.366772 
L 78.707239 159.350805 
L 96.390766 159.255002 
L 96.634257 159.239035 
L 96.816875 159.255002 
L 96.969057 159.223067 
L 97.182111 159.223067 
L 100.438802 159.318871 
L 100.804039 159.414674 
L 100.986657 159.430641 
L 102.478039 160.324807 
L 103.482439 161.522349 
L 103.817239 162.09717 
L 105.339057 165.530125 
L 107.74353 173.449873 
L 110.391493 182.75877 
L 112.035057 186.782514 
L 113.313384 188.602779 
L 113.526439 188.698582 
L 114.074293 188.890189 
L 114.896075 188.36327 
L 116.174402 186.191726 
L 116.935311 183.812609 
L 117.574475 181.449459 
L 118.03102 179.373718 
L 120.557239 165.562059 
L 125.548802 129.699651 
L 127.009748 121.205082 
L 129.262039 109.964152 
L 129.901202 107.760668 
L 130.327311 106.611028 
L 131.301275 104.35965 
L 131.84913 103.305813 
L 132.670911 101.421676 
L 132.85353 101.214108 
L 133.52313 100.351874 
L 134.040548 99.713185 
L 134.314475 99.633349 
L 134.588402 99.505608 
L 134.953639 99.202233 
L 135.653675 98.627413 
L 136.505893 98.547579 
L 136.810257 98.371937 
L 137.023311 98.371937 
L 137.297239 98.467738 
L 137.571166 98.707249 
L 138.54513 99.888825 
L 139.153857 101.788928 
L 140.12782 105.205911 
L 141.162657 109.564966 
L 141.527893 111.289427 
L 142.89753 119.065473 
L 144.388911 129.971094 
L 145.57593 139.008547 
L 147.15862 152.34119 
L 152.789348 204.45824 
L 154.372039 216.034487 
L 155.559057 222.804597 
L 156.411275 226.349321 
L 156.62433 227.051881 
L 156.95913 228.025883 
L 158.176584 230.341129 
L 158.420075 230.4529 
L 159.576657 230.357094 
L 160.337566 229.41503 
L 161.463711 226.81237 
L 162.924657 221.032229 
L 163.624693 217.23203 
L 164.781275 209.24841 
L 166.029166 199.268891 
L 169.529348 169.010982 
L 171.751202 153.49083 
L 172.512111 149.387251 
L 173.668693 144.453376 
L 174.886148 140.956551 
L 175.312257 140.301895 
L 176.468839 139.806911 
L 177.260184 140.780912 
L 178.142839 142.824718 
L 178.782002 145.347541 
L 179.360293 147.519085 
L 180.273384 151.271385 
L 181.125602 154.784176 
L 181.429966 156.317031 
L 183.012657 165.21078 
L 183.864875 169.88918 
L 184.595348 173.865021 
L 185.295384 177.313944 
L 187.365057 184.4992 
L 187.699857 185.233693 
L 188.399893 186.527038 
L 188.734693 187.101859 
L 189.191239 187.628777 
L 189.34342 187.708613 
L 189.647784 187.884253 
L 190.256511 187.78845 
L 191.01742 186.3993 
L 192.934911 181.066243 
L 194.03062 176.627353 
L 196.37422 165.051108 
L 198.38302 152.836173 
L 199.600475 143.798719 
L 204.926839 100.01656 
L 206.113857 93.230488 
L 206.905202 89.653827 
L 208.76182 83.219032 
L 209.400984 82.021489 
L 210.070584 80.871848 
L 210.405384 80.664272 
L 211.44022 80.760078 
L 211.622839 80.967654 
L 211.896766 81.414734 
L 213.327275 84.656083 
L 214.87953 89.893333 
L 216.096984 95.465901 
L 217.436184 103.082274 
L 219.262366 114.259335 
L 221.118984 125.26076 
L 222.15382 131.280407 
L 223.006039 135.958806 
L 228.028039 161.729923 
L 232.684802 181.752834 
L 234.815348 192.339111 
L 236.398039 200.051286 
L 238.011166 206.358343 
L 238.924257 208.881166 
L 239.350366 209.695495 
L 239.928657 210.669496 
L 240.415639 211.340118 
L 241.115675 212.250255 
L 242.059202 213.096516 
L 242.211384 213.192319 
L 242.485311 213.336025 
L 242.698366 213.431831 
L 244.981093 214.741141 
L 245.528948 215.172257 
L 245.711566 215.252093 
L 246.046366 215.443697 
L 246.25942 215.539503 
L 246.533348 215.667243 
L 246.898584 215.763044 
L 247.081202 215.810948 
L 247.233384 215.842878 
L 247.811675 215.938684 
L 248.26822 216.066424 
L 248.60302 216.146258 
L 248.785639 216.178192 
L 249.02913 216.19416 
L 249.485675 216.289963 
L 250.337893 216.625275 
L 250.550948 216.705109 
L 254.020693 220.505313 
L 255.72513 222.996201 
L 257.916548 225.135808 
L 258.099166 225.21565 
L 258.342657 225.343385 
L 258.494839 225.359355 
L 258.64702 225.391284 
L 259.590548 224.800499 
L 260.047093 224.097943 
L 260.442766 223.283612 
L 260.868875 222.149935 
L 261.721093 219.116161 
L 262.603748 214.421797 
L 263.516839 208.018936 
L 265.129966 193.600523 
L 266.164802 181.577196 
L 267.412693 164.476287 
L 269.421493 133.34018 
L 271.065057 106.786667 
L 274.04782 61.583427 
L 275.356584 45.855709 
L 276.178366 37.935958 
L 277.578439 27.780797 
L 278.765457 23.262062 
L 279.06982 22.75111 
L 279.343748 22.495642 
L 279.861166 22.33597 
L 280.013348 22.415801 
L 280.40902 22.990621 
L 280.956875 24.379773 
L 281.869966 28.148038 
L 282.600439 32.570962 
L 283.270039 37.488868 
L 285.004911 53.951086 
L 287.044148 77.630505 
L 293.527093 161.266873 
L 295.748948 183.445361 
L 299.644802 215.236128 
L 301.50142 226.221585 
L 303.144984 233.454737 
L 303.540657 234.524545 
L 304.149384 235.578382 
L 304.27113 235.658216 
L 304.51462 235.801921 
L 304.666802 235.801921 
L 304.910293 235.817891 
L 305.488584 235.722087 
L 305.85382 235.41871 
L 307.071275 233.981659 
L 307.436511 233.215234 
L 307.923493 232.033656 
L 308.410475 230.756275 
L 308.836584 229.351158 
L 309.414875 227.403156 
L 309.688802 226.588832 
L 310.388839 224.050039 
L 312.001966 216.816879 
L 313.98033 204.76162 
L 319.611057 164.220812 
L 320.371966 159.765953 
L 321.711166 152.676501 
L 322.654693 148.716627 
L 323.111239 147.215707 
L 324.298257 143.814687 
L 324.60262 143.144062 
L 325.637457 140.733009 
L 326.215748 139.743041 
L 326.27662 139.663206 
L 327.646257 138.385827 
L 329.259384 137.651334 
L 330.689893 137.555531 
L 330.933384 137.523596 
L 331.146439 137.523596 
L 331.420366 137.491661 
L 331.602984 137.475693 
L 332.39433 137.379891 
L 332.820439 137.26812 
L 333.094366 137.188283 
L 333.520475 136.900872 
L 333.64222 136.821037 
L 334.342257 136.246217 
L 334.64662 135.974774 
L 335.833639 134.585625 
L 336.32062 133.819198 
L 336.716293 133.004869 
L 341.464366 120.837836 
L 341.920911 119.927704 
L 343.168802 117.564555 
L 344.538439 116.287174 
L 344.964548 116.382978 
L 345.36022 116.702325 
L 346.242875 117.788094 
L 347.155966 119.448687 
L 347.673384 120.454622 
L 348.403857 122.226985 
L 349.80393 126.985221 
L 350.71702 130.753489 
L 351.47793 134.425952 
L 353.243239 144.277736 
L 358.600039 177.297976 
L 359.574002 182.295722 
L 360.821893 187.053957 
L 362.76982 192.850063 
L 364.169893 195.564493 
L 364.291639 195.724165 
L 364.86993 196.442691 
L 365.082984 196.650265 
L 365.356911 196.90574 
L 365.478657 196.985577 
L 365.813457 197.193151 
L 366.087384 197.288954 
L 366.330875 197.304921 
L 366.665675 197.209118 
L 366.939602 196.953642 
L 368.79622 193.855999 
L 370.165857 189.193566 
L 370.987639 185.265626 
L 371.961602 180.267882 
L 372.57033 177.250075 
L 374.183457 168.21262 
L 375.400911 161.250906 
L 377.714075 147.263609 
L 379.692439 135.479791 
L 380.331602 131.935064 
L 381.488184 125.899449 
L 382.431711 121.524427 
L 382.918693 119.464651 
L 382.918693 119.464651 
" style="fill:none;stroke:#ff0000;stroke-linecap:square;stroke-width:1.5;"/>
   </g>
   <g id="line2d_27">
    <path clip-path="url(#p7ace1c4165)" d="M 127.222802 167.634351 
" style="fill:none;stroke:#ffffff;stroke-linecap:square;stroke-width:1.5;"/>
    <defs>
     <path d="M 0 -5 
L -1.12257 -1.545085 
L -4.755283 -1.545085 
L -1.816356 0.59017 
L -2.938926 4.045085 
L -0 1.90983 
L 2.938926 4.045085 
L 1.816356 0.59017 
L 4.755283 -1.545085 
L 1.12257 -1.545085 
z
" id="m504bcb7a1f" style="stroke:#ffffff;stroke-linejoin:bevel;"/>
    </defs>
    <g clip-path="url(#p7ace1c4165)">
     <use style="fill:#0000ff;stroke:#ffffff;stroke-linejoin:bevel;" x="127.222802" xlink:href="#m504bcb7a1f" y="167.634351"/>
    </g>
   </g>
   <g id="line2d_28">
    <path clip-path="url(#p7ace1c4165)" d="M 105.582548 166.248651 
" style="fill:none;stroke:#ffffff;stroke-linecap:square;stroke-width:1.5;"/>
    <defs>
     <path d="M 0 -5 
L -1.12257 -1.545085 
L -4.755283 -1.545085 
L -1.816356 0.59017 
L -2.938926 4.045085 
L -0 1.90983 
L 2.938926 4.045085 
L 1.816356 0.59017 
L 4.755283 -1.545085 
L 1.12257 -1.545085 
z
" id="m89e0ab2679" style="stroke:#ffffff;stroke-linejoin:bevel;"/>
    </defs>
    <g clip-path="url(#p7ace1c4165)">
     <use style="fill:#ff0000;stroke:#ffffff;stroke-linejoin:bevel;" x="105.582548" xlink:href="#m89e0ab2679" y="166.248651"/>
    </g>
   </g>
   <g id="patch_3">
    <path d="M 63.336875 339.84 
L 63.336875 7.2 
" style="fill:none;stroke:#000000;stroke-linecap:square;stroke-linejoin:miter;stroke-width:0.8;"/>
   </g>
   <g id="patch_4">
    <path d="M 398.136875 339.84 
L 398.136875 7.2 
" style="fill:none;stroke:#000000;stroke-linecap:square;stroke-linejoin:miter;stroke-width:0.8;"/>
   </g>
   <g id="patch_5">
    <path d="M 63.336875 339.84 
L 398.136875 339.84 
" style="fill:none;stroke:#000000;stroke-linecap:square;stroke-linejoin:miter;stroke-width:0.8;"/>
   </g>
   <g id="patch_6">
    <path d="M 63.336875 7.2 
L 398.136875 7.2 
" style="fill:none;stroke:#000000;stroke-linecap:square;stroke-linejoin:miter;stroke-width:0.8;"/>
   </g>
   <g id="text_15">
    <g id="patch_7">
     <path d="M 75.036875 331.242688 
L 166.79375 331.242688 
L 166.79375 293.760312 
L 75.036875 293.760312 
z
" style="fill:#ffffff;stroke:#000000;stroke-linejoin:miter;stroke-width:0.75;"/>
    </g>
    <!-- Auto_00069 -->
    <g transform="translate(80.076875 308.521562)scale(0.14 -0.14)">
     <defs>
      <path d="M 2928 1419 
L 1288 1419 
L 1000 750 
Q 894 503 894 381 
Q 894 284 986 211 
Q 1078 138 1384 116 
L 1384 0 
L 50 0 
L 50 116 
Q 316 163 394 238 
Q 553 388 747 847 
L 2238 4334 
L 2347 4334 
L 3822 809 
Q 4000 384 4145 257 
Q 4291 131 4550 116 
L 4550 0 
L 2878 0 
L 2878 116 
Q 3131 128 3220 200 
Q 3309 272 3309 375 
Q 3309 513 3184 809 
L 2928 1419 
z
M 2841 1650 
L 2122 3363 
L 1384 1650 
L 2841 1650 
z
" id="TimesNewRomanPSMT-41" transform="scale(0.015625)"/>
      <path d="M 2709 2863 
L 2709 1128 
Q 2709 631 2732 520 
Q 2756 409 2807 365 
Q 2859 322 2928 322 
Q 3025 322 3147 375 
L 3191 266 
L 2334 -88 
L 2194 -88 
L 2194 519 
Q 1825 119 1631 15 
Q 1438 -88 1222 -88 
Q 981 -88 804 51 
Q 628 191 559 409 
Q 491 628 491 1028 
L 491 2306 
Q 491 2509 447 2587 
Q 403 2666 317 2708 
Q 231 2750 6 2747 
L 6 2863 
L 1009 2863 
L 1009 947 
Q 1009 547 1148 422 
Q 1288 297 1484 297 
Q 1619 297 1789 381 
Q 1959 466 2194 703 
L 2194 2325 
Q 2194 2569 2105 2655 
Q 2016 2741 1734 2747 
L 1734 2863 
L 2709 2863 
z
" id="TimesNewRomanPSMT-75" transform="scale(0.015625)"/>
      <path d="M 3256 -1381 
L -53 -1381 
L -53 -1119 
L 3256 -1119 
L 3256 -1381 
z
" id="TimesNewRomanPSMT-5f" transform="scale(0.015625)"/>
      <path d="M 338 -88 
L 338 28 
Q 744 34 1094 217 
Q 1444 400 1770 856 
Q 2097 1313 2225 1859 
Q 1734 1544 1338 1544 
Q 891 1544 572 1889 
Q 253 2234 253 2806 
Q 253 3363 572 3797 
Q 956 4325 1575 4325 
Q 2097 4325 2469 3894 
Q 2925 3359 2925 2575 
Q 2925 1869 2578 1258 
Q 2231 647 1613 244 
Q 1109 -88 516 -88 
L 338 -88 
z
M 2275 2091 
Q 2331 2497 2331 2741 
Q 2331 3044 2228 3395 
Q 2125 3747 1936 3934 
Q 1747 4122 1506 4122 
Q 1228 4122 1018 3872 
Q 809 3622 809 3128 
Q 809 2469 1088 2097 
Q 1291 1828 1588 1828 
Q 1731 1828 1928 1897 
Q 2125 1966 2275 2091 
z
" id="TimesNewRomanPSMT-39" transform="scale(0.015625)"/>
     </defs>
     <use xlink:href="#TimesNewRomanPSMT-41"/>
     <use x="72.216797" xlink:href="#TimesNewRomanPSMT-75"/>
     <use x="122.216797" xlink:href="#TimesNewRomanPSMT-74"/>
     <use x="150" xlink:href="#TimesNewRomanPSMT-6f"/>
     <use x="200" xlink:href="#TimesNewRomanPSMT-5f"/>
     <use x="250" xlink:href="#TimesNewRomanPSMT-30"/>
     <use x="300" xlink:href="#TimesNewRomanPSMT-30"/>
     <use x="350" xlink:href="#TimesNewRomanPSMT-30"/>
     <use x="400" xlink:href="#TimesNewRomanPSMT-36"/>
     <use x="450" xlink:href="#TimesNewRomanPSMT-39"/>
    </g>
    <!-- Vs: 281.15m/s -->
    <g transform="translate(80.076875 323.208)scale(0.14 -0.14)">
     <defs>
      <path d="M 903 2950 
Q 1047 2950 1148 2848 
Q 1250 2747 1250 2603 
Q 1250 2459 1148 2357 
Q 1047 2256 903 2256 
Q 759 2256 657 2357 
Q 556 2459 556 2603 
Q 556 2747 657 2848 
Q 759 2950 903 2950 
z
M 897 609 
Q 1044 609 1145 506 
Q 1247 403 1247 259 
Q 1247 116 1144 14 
Q 1041 -88 897 -88 
Q 753 -88 651 14 
Q 550 116 550 259 
Q 550 403 651 506 
Q 753 609 897 609 
z
" id="TimesNewRomanPSMT-3a" transform="scale(0.015625)"/>
      <path d="M 1228 2134 
Q 725 2547 579 2797 
Q 434 3047 434 3316 
Q 434 3728 753 4026 
Q 1072 4325 1600 4325 
Q 2113 4325 2425 4047 
Q 2738 3769 2738 3413 
Q 2738 3175 2569 2928 
Q 2400 2681 1866 2347 
Q 2416 1922 2594 1678 
Q 2831 1359 2831 1006 
Q 2831 559 2490 242 
Q 2150 -75 1597 -75 
Q 994 -75 656 303 
Q 388 606 388 966 
Q 388 1247 577 1523 
Q 766 1800 1228 2134 
z
M 1719 2469 
Q 2094 2806 2194 3001 
Q 2294 3197 2294 3444 
Q 2294 3772 2109 3958 
Q 1925 4144 1606 4144 
Q 1288 4144 1088 3959 
Q 888 3775 888 3528 
Q 888 3366 970 3203 
Q 1053 3041 1206 2894 
L 1719 2469 
z
M 1375 2016 
Q 1116 1797 991 1539 
Q 866 1281 866 981 
Q 866 578 1086 336 
Q 1306 94 1647 94 
Q 1984 94 2187 284 
Q 2391 475 2391 747 
Q 2391 972 2272 1150 
Q 2050 1481 1375 2016 
z
" id="TimesNewRomanPSMT-38" transform="scale(0.015625)"/>
      <path d="M 1794 4444 
L 259 -88 
L 9 -88 
L 1544 4444 
L 1794 4444 
z
" id="TimesNewRomanPSMT-2f" transform="scale(0.015625)"/>
     </defs>
     <use xlink:href="#TimesNewRomanPSMT-56"/>
     <use x="72.216797" xlink:href="#TimesNewRomanPSMT-73"/>
     <use x="111.132812" xlink:href="#TimesNewRomanPSMT-3a"/>
     <use x="138.916016" xlink:href="#TimesNewRomanPSMT-20"/>
     <use x="163.916016" xlink:href="#TimesNewRomanPSMT-32"/>
     <use x="213.916016" xlink:href="#TimesNewRomanPSMT-38"/>
     <use x="263.916016" xlink:href="#TimesNewRomanPSMT-31"/>
     <use x="313.916016" xlink:href="#TimesNewRomanPSMT-2e"/>
     <use x="338.916016" xlink:href="#TimesNewRomanPSMT-31"/>
     <use x="388.916016" xlink:href="#TimesNewRomanPSMT-35"/>
     <use x="438.916016" xlink:href="#TimesNewRomanPSMT-6d"/>
     <use x="516.699219" xlink:href="#TimesNewRomanPSMT-2f"/>
     <use x="544.482422" xlink:href="#TimesNewRomanPSMT-73"/>
    </g>
   </g>
  </g>
 </g>
 <defs>
  <clipPath id="p7ace1c4165">
   <rect height="332.64" width="334.8" x="63.336875" y="7.2"/>
  </clipPath>
 </defs>
</svg>
