<?xml version="1.0" encoding="utf-8" standalone="no"?>
<!DOCTYPE svg PUBLIC "-//W3C//DTD SVG 1.1//EN"
  "http://www.w3.org/Graphics/SVG/1.1/DTD/svg11.dtd">
<svg height="383.471875pt" version="1.1" viewBox="0 0 421.086875 383.471875" width="421.086875pt" xmlns="http://www.w3.org/2000/svg" xmlns:xlink="http://www.w3.org/1999/xlink">
 <metadata>
  <rdf:RDF xmlns:cc="http://creativecommons.org/ns#" xmlns:dc="http://purl.org/dc/elements/1.1/" xmlns:rdf="http://www.w3.org/1999/02/22-rdf-syntax-ns#">
   <cc:Work>
    <dc:type rdf:resource="http://purl.org/dc/dcmitype/StillImage"/>
    <dc:date>2021-06-11T14:39:38.491217</dc:date>
    <dc:format>image/svg+xml</dc:format>
    <dc:creator>
     <cc:Agent>
      <dc:title>Matplotlib v3.4.2, https://matplotlib.org/</dc:title>
     </cc:Agent>
    </dc:creator>
   </cc:Work>
  </rdf:RDF>
 </metadata>
 <defs>
  <style type="text/css">*{stroke-linecap:butt;stroke-linejoin:round;}</style>
 </defs>
 <g id="figure_1">
  <g id="patch_1">
   <path d="M 0 383.471875 
L 421.086875 383.471875 
L 421.086875 0 
L 0 0 
z
" style="fill:#ffffff;"/>
  </g>
  <g id="axes_1">
   <g id="patch_2">
    <path d="M 63.336875 339.84 
L 398.136875 339.84 
L 398.136875 7.2 
L 63.336875 7.2 
z
" style="fill:#ffffff;"/>
   </g>
   <g id="matplotlib.axis_1">
    <g id="xtick_1">
     <g id="line2d_1">
      <path clip-path="url(#p93726293a9)" d="M 93.773239 339.84 
L 93.773239 7.2 
" style="fill:none;stroke:#000000;stroke-dasharray:0.5,0.825;stroke-dashoffset:0;stroke-width:0.5;"/>
     </g>
     <g id="line2d_2">
      <defs>
       <path d="M 0 0 
L 0 3.5 
" id="m58ce2c2d88" style="stroke:#000000;stroke-width:0.8;"/>
      </defs>
      <g>
       <use style="stroke:#000000;stroke-width:0.8;" x="93.773239" xlink:href="#m58ce2c2d88" y="339.84"/>
      </g>
     </g>
     <g id="text_1">
      <!-- 0.000 -->
      <g transform="translate(78.023239 356.56125)scale(0.14 -0.14)">
       <defs>
        <path d="M 231 2094 
Q 231 2819 450 3342 
Q 669 3866 1031 4122 
Q 1313 4325 1613 4325 
Q 2100 4325 2488 3828 
Q 2972 3213 2972 2159 
Q 2972 1422 2759 906 
Q 2547 391 2217 158 
Q 1888 -75 1581 -75 
Q 975 -75 572 641 
Q 231 1244 231 2094 
z
M 844 2016 
Q 844 1141 1059 588 
Q 1238 122 1591 122 
Q 1759 122 1940 273 
Q 2122 425 2216 781 
Q 2359 1319 2359 2297 
Q 2359 3022 2209 3506 
Q 2097 3866 1919 4016 
Q 1791 4119 1609 4119 
Q 1397 4119 1231 3928 
Q 1006 3669 925 3112 
Q 844 2556 844 2016 
z
" id="TimesNewRomanPSMT-30" transform="scale(0.015625)"/>
        <path d="M 800 606 
Q 947 606 1047 504 
Q 1147 403 1147 259 
Q 1147 116 1045 14 
Q 944 -88 800 -88 
Q 656 -88 554 14 
Q 453 116 453 259 
Q 453 406 554 506 
Q 656 606 800 606 
z
" id="TimesNewRomanPSMT-2e" transform="scale(0.015625)"/>
       </defs>
       <use xlink:href="#TimesNewRomanPSMT-30"/>
       <use x="50" xlink:href="#TimesNewRomanPSMT-2e"/>
       <use x="75" xlink:href="#TimesNewRomanPSMT-30"/>
       <use x="125" xlink:href="#TimesNewRomanPSMT-30"/>
       <use x="175" xlink:href="#TimesNewRomanPSMT-30"/>
      </g>
     </g>
    </g>
    <g id="xtick_2">
     <g id="line2d_3">
      <path clip-path="url(#p93726293a9)" d="M 154.645966 339.84 
L 154.645966 7.2 
" style="fill:none;stroke:#000000;stroke-dasharray:0.5,0.825;stroke-dashoffset:0;stroke-width:0.5;"/>
     </g>
     <g id="line2d_4">
      <g>
       <use style="stroke:#000000;stroke-width:0.8;" x="154.645966" xlink:href="#m58ce2c2d88" y="339.84"/>
      </g>
     </g>
     <g id="text_2">
      <!-- 0.001 -->
      <g transform="translate(138.895966 356.56125)scale(0.14 -0.14)">
       <defs>
        <path d="M 750 3822 
L 1781 4325 
L 1884 4325 
L 1884 747 
Q 1884 391 1914 303 
Q 1944 216 2037 169 
Q 2131 122 2419 116 
L 2419 0 
L 825 0 
L 825 116 
Q 1125 122 1212 167 
Q 1300 213 1334 289 
Q 1369 366 1369 747 
L 1369 3034 
Q 1369 3497 1338 3628 
Q 1316 3728 1258 3775 
Q 1200 3822 1119 3822 
Q 1003 3822 797 3725 
L 750 3822 
z
" id="TimesNewRomanPSMT-31" transform="scale(0.015625)"/>
       </defs>
       <use xlink:href="#TimesNewRomanPSMT-30"/>
       <use x="50" xlink:href="#TimesNewRomanPSMT-2e"/>
       <use x="75" xlink:href="#TimesNewRomanPSMT-30"/>
       <use x="125" xlink:href="#TimesNewRomanPSMT-30"/>
       <use x="175" xlink:href="#TimesNewRomanPSMT-31"/>
      </g>
     </g>
    </g>
    <g id="xtick_3">
     <g id="line2d_5">
      <path clip-path="url(#p93726293a9)" d="M 215.518693 339.84 
L 215.518693 7.2 
" style="fill:none;stroke:#000000;stroke-dasharray:0.5,0.825;stroke-dashoffset:0;stroke-width:0.5;"/>
     </g>
     <g id="line2d_6">
      <g>
       <use style="stroke:#000000;stroke-width:0.8;" x="215.518693" xlink:href="#m58ce2c2d88" y="339.84"/>
      </g>
     </g>
     <g id="text_3">
      <!-- 0.002 -->
      <g transform="translate(199.768693 356.56125)scale(0.14 -0.14)">
       <defs>
        <path d="M 2934 816 
L 2638 0 
L 138 0 
L 138 116 
Q 1241 1122 1691 1759 
Q 2141 2397 2141 2925 
Q 2141 3328 1894 3587 
Q 1647 3847 1303 3847 
Q 991 3847 742 3664 
Q 494 3481 375 3128 
L 259 3128 
Q 338 3706 661 4015 
Q 984 4325 1469 4325 
Q 1984 4325 2329 3994 
Q 2675 3663 2675 3213 
Q 2675 2891 2525 2569 
Q 2294 2063 1775 1497 
Q 997 647 803 472 
L 1909 472 
Q 2247 472 2383 497 
Q 2519 522 2628 598 
Q 2738 675 2819 816 
L 2934 816 
z
" id="TimesNewRomanPSMT-32" transform="scale(0.015625)"/>
       </defs>
       <use xlink:href="#TimesNewRomanPSMT-30"/>
       <use x="50" xlink:href="#TimesNewRomanPSMT-2e"/>
       <use x="75" xlink:href="#TimesNewRomanPSMT-30"/>
       <use x="125" xlink:href="#TimesNewRomanPSMT-30"/>
       <use x="175" xlink:href="#TimesNewRomanPSMT-32"/>
      </g>
     </g>
    </g>
    <g id="xtick_4">
     <g id="line2d_7">
      <path clip-path="url(#p93726293a9)" d="M 276.39142 339.84 
L 276.39142 7.2 
" style="fill:none;stroke:#000000;stroke-dasharray:0.5,0.825;stroke-dashoffset:0;stroke-width:0.5;"/>
     </g>
     <g id="line2d_8">
      <g>
       <use style="stroke:#000000;stroke-width:0.8;" x="276.39142" xlink:href="#m58ce2c2d88" y="339.84"/>
      </g>
     </g>
     <g id="text_4">
      <!-- 0.003 -->
      <g transform="translate(260.64142 356.56125)scale(0.14 -0.14)">
       <defs>
        <path d="M 325 3431 
Q 506 3859 782 4092 
Q 1059 4325 1472 4325 
Q 1981 4325 2253 3994 
Q 2459 3747 2459 3466 
Q 2459 3003 1878 2509 
Q 2269 2356 2469 2072 
Q 2669 1788 2669 1403 
Q 2669 853 2319 450 
Q 1863 -75 997 -75 
Q 569 -75 414 31 
Q 259 138 259 259 
Q 259 350 332 419 
Q 406 488 509 488 
Q 588 488 669 463 
Q 722 447 909 348 
Q 1097 250 1169 231 
Q 1284 197 1416 197 
Q 1734 197 1970 444 
Q 2206 691 2206 1028 
Q 2206 1275 2097 1509 
Q 2016 1684 1919 1775 
Q 1784 1900 1550 2001 
Q 1316 2103 1072 2103 
L 972 2103 
L 972 2197 
Q 1219 2228 1467 2375 
Q 1716 2522 1828 2728 
Q 1941 2934 1941 3181 
Q 1941 3503 1739 3701 
Q 1538 3900 1238 3900 
Q 753 3900 428 3381 
L 325 3431 
z
" id="TimesNewRomanPSMT-33" transform="scale(0.015625)"/>
       </defs>
       <use xlink:href="#TimesNewRomanPSMT-30"/>
       <use x="50" xlink:href="#TimesNewRomanPSMT-2e"/>
       <use x="75" xlink:href="#TimesNewRomanPSMT-30"/>
       <use x="125" xlink:href="#TimesNewRomanPSMT-30"/>
       <use x="175" xlink:href="#TimesNewRomanPSMT-33"/>
      </g>
     </g>
    </g>
    <g id="xtick_5">
     <g id="line2d_9">
      <path clip-path="url(#p93726293a9)" d="M 337.264148 339.84 
L 337.264148 7.2 
" style="fill:none;stroke:#000000;stroke-dasharray:0.5,0.825;stroke-dashoffset:0;stroke-width:0.5;"/>
     </g>
     <g id="line2d_10">
      <g>
       <use style="stroke:#000000;stroke-width:0.8;" x="337.264148" xlink:href="#m58ce2c2d88" y="339.84"/>
      </g>
     </g>
     <g id="text_5">
      <!-- 0.004 -->
      <g transform="translate(321.514148 356.56125)scale(0.14 -0.14)">
       <defs>
        <path d="M 2978 1563 
L 2978 1119 
L 2409 1119 
L 2409 0 
L 1894 0 
L 1894 1119 
L 100 1119 
L 100 1519 
L 2066 4325 
L 2409 4325 
L 2409 1563 
L 2978 1563 
z
M 1894 1563 
L 1894 3666 
L 406 1563 
L 1894 1563 
z
" id="TimesNewRomanPSMT-34" transform="scale(0.015625)"/>
       </defs>
       <use xlink:href="#TimesNewRomanPSMT-30"/>
       <use x="50" xlink:href="#TimesNewRomanPSMT-2e"/>
       <use x="75" xlink:href="#TimesNewRomanPSMT-30"/>
       <use x="125" xlink:href="#TimesNewRomanPSMT-30"/>
       <use x="175" xlink:href="#TimesNewRomanPSMT-34"/>
      </g>
     </g>
    </g>
    <g id="xtick_6">
     <g id="line2d_11">
      <path clip-path="url(#p93726293a9)" d="M 398.136875 339.84 
L 398.136875 7.2 
" style="fill:none;stroke:#000000;stroke-dasharray:0.5,0.825;stroke-dashoffset:0;stroke-width:0.5;"/>
     </g>
     <g id="line2d_12">
      <g>
       <use style="stroke:#000000;stroke-width:0.8;" x="398.136875" xlink:href="#m58ce2c2d88" y="339.84"/>
      </g>
     </g>
     <g id="text_6">
      <!-- 0.005 -->
      <g transform="translate(382.386875 356.56125)scale(0.14 -0.14)">
       <defs>
        <path d="M 2778 4238 
L 2534 3706 
L 1259 3706 
L 981 3138 
Q 1809 3016 2294 2522 
Q 2709 2097 2709 1522 
Q 2709 1188 2573 903 
Q 2438 619 2231 419 
Q 2025 219 1772 97 
Q 1413 -75 1034 -75 
Q 653 -75 479 54 
Q 306 184 306 341 
Q 306 428 378 495 
Q 450 563 559 563 
Q 641 563 702 538 
Q 763 513 909 409 
Q 1144 247 1384 247 
Q 1750 247 2026 523 
Q 2303 800 2303 1197 
Q 2303 1581 2056 1914 
Q 1809 2247 1375 2428 
Q 1034 2569 447 2591 
L 1259 4238 
L 2778 4238 
z
" id="TimesNewRomanPSMT-35" transform="scale(0.015625)"/>
       </defs>
       <use xlink:href="#TimesNewRomanPSMT-30"/>
       <use x="50" xlink:href="#TimesNewRomanPSMT-2e"/>
       <use x="75" xlink:href="#TimesNewRomanPSMT-30"/>
       <use x="125" xlink:href="#TimesNewRomanPSMT-30"/>
       <use x="175" xlink:href="#TimesNewRomanPSMT-35"/>
      </g>
     </g>
    </g>
    <g id="text_7">
     <!-- Time (sec) -->
     <g transform="translate(200.858906 373.277188)scale(0.14 -0.14)">
      <defs>
       <path d="M 3703 4238 
L 3750 3244 
L 3631 3244 
Q 3597 3506 3538 3619 
Q 3441 3800 3280 3886 
Q 3119 3972 2856 3972 
L 2259 3972 
L 2259 734 
Q 2259 344 2344 247 
Q 2463 116 2709 116 
L 2856 116 
L 2856 0 
L 1059 0 
L 1059 116 
L 1209 116 
Q 1478 116 1591 278 
Q 1659 378 1659 734 
L 1659 3972 
L 1150 3972 
Q 853 3972 728 3928 
Q 566 3869 450 3700 
Q 334 3531 313 3244 
L 194 3244 
L 244 4238 
L 3703 4238 
z
" id="TimesNewRomanPSMT-54" transform="scale(0.015625)"/>
       <path d="M 928 4444 
Q 1059 4444 1151 4351 
Q 1244 4259 1244 4128 
Q 1244 3997 1151 3903 
Q 1059 3809 928 3809 
Q 797 3809 703 3903 
Q 609 3997 609 4128 
Q 609 4259 701 4351 
Q 794 4444 928 4444 
z
M 1188 2947 
L 1188 647 
Q 1188 378 1227 289 
Q 1266 200 1342 156 
Q 1419 113 1622 113 
L 1622 0 
L 231 0 
L 231 113 
Q 441 113 512 153 
Q 584 194 626 287 
Q 669 381 669 647 
L 669 1750 
Q 669 2216 641 2353 
Q 619 2453 572 2492 
Q 525 2531 444 2531 
Q 356 2531 231 2484 
L 188 2597 
L 1050 2947 
L 1188 2947 
z
" id="TimesNewRomanPSMT-69" transform="scale(0.015625)"/>
       <path d="M 1050 2338 
Q 1363 2650 1419 2697 
Q 1559 2816 1721 2881 
Q 1884 2947 2044 2947 
Q 2313 2947 2506 2790 
Q 2700 2634 2766 2338 
Q 3088 2713 3309 2830 
Q 3531 2947 3766 2947 
Q 3994 2947 4170 2830 
Q 4347 2713 4450 2447 
Q 4519 2266 4519 1878 
L 4519 647 
Q 4519 378 4559 278 
Q 4591 209 4675 161 
Q 4759 113 4950 113 
L 4950 0 
L 3538 0 
L 3538 113 
L 3597 113 
Q 3781 113 3884 184 
Q 3956 234 3988 344 
Q 4000 397 4000 647 
L 4000 1878 
Q 4000 2228 3916 2372 
Q 3794 2572 3525 2572 
Q 3359 2572 3192 2489 
Q 3025 2406 2788 2181 
L 2781 2147 
L 2788 2013 
L 2788 647 
Q 2788 353 2820 281 
Q 2853 209 2943 161 
Q 3034 113 3253 113 
L 3253 0 
L 1806 0 
L 1806 113 
Q 2044 113 2133 169 
Q 2222 225 2256 338 
Q 2272 391 2272 647 
L 2272 1878 
Q 2272 2228 2169 2381 
Q 2031 2581 1784 2581 
Q 1616 2581 1450 2491 
Q 1191 2353 1050 2181 
L 1050 647 
Q 1050 366 1089 281 
Q 1128 197 1204 155 
Q 1281 113 1516 113 
L 1516 0 
L 100 0 
L 100 113 
Q 297 113 375 155 
Q 453 197 493 289 
Q 534 381 534 647 
L 534 1741 
Q 534 2213 506 2350 
Q 484 2453 437 2492 
Q 391 2531 309 2531 
Q 222 2531 100 2484 
L 53 2597 
L 916 2947 
L 1050 2947 
L 1050 2338 
z
" id="TimesNewRomanPSMT-6d" transform="scale(0.015625)"/>
       <path d="M 681 1784 
Q 678 1147 991 784 
Q 1303 422 1725 422 
Q 2006 422 2214 576 
Q 2422 731 2563 1106 
L 2659 1044 
Q 2594 616 2278 264 
Q 1963 -88 1488 -88 
Q 972 -88 605 314 
Q 238 716 238 1394 
Q 238 2128 614 2539 
Q 991 2950 1559 2950 
Q 2041 2950 2350 2633 
Q 2659 2316 2659 1784 
L 681 1784 
z
M 681 1966 
L 2006 1966 
Q 1991 2241 1941 2353 
Q 1863 2528 1708 2628 
Q 1553 2728 1384 2728 
Q 1125 2728 920 2526 
Q 716 2325 681 1966 
z
" id="TimesNewRomanPSMT-65" transform="scale(0.015625)"/>
       <path id="TimesNewRomanPSMT-20" transform="scale(0.015625)"/>
       <path d="M 1988 -1253 
L 1988 -1369 
Q 1516 -1131 1200 -813 
Q 750 -359 506 256 
Q 263 872 263 1534 
Q 263 2503 741 3301 
Q 1219 4100 1988 4444 
L 1988 4313 
Q 1603 4100 1356 3731 
Q 1109 3363 987 2797 
Q 866 2231 866 1616 
Q 866 947 969 400 
Q 1050 -31 1165 -292 
Q 1281 -553 1476 -793 
Q 1672 -1034 1988 -1253 
z
" id="TimesNewRomanPSMT-28" transform="scale(0.015625)"/>
       <path d="M 2050 2947 
L 2050 1972 
L 1947 1972 
Q 1828 2431 1642 2597 
Q 1456 2763 1169 2763 
Q 950 2763 815 2647 
Q 681 2531 681 2391 
Q 681 2216 781 2091 
Q 878 1963 1175 1819 
L 1631 1597 
Q 2266 1288 2266 781 
Q 2266 391 1970 151 
Q 1675 -88 1309 -88 
Q 1047 -88 709 6 
Q 606 38 541 38 
Q 469 38 428 -44 
L 325 -44 
L 325 978 
L 428 978 
Q 516 541 762 319 
Q 1009 97 1316 97 
Q 1531 97 1667 223 
Q 1803 350 1803 528 
Q 1803 744 1651 891 
Q 1500 1038 1047 1263 
Q 594 1488 453 1669 
Q 313 1847 313 2119 
Q 313 2472 555 2709 
Q 797 2947 1181 2947 
Q 1350 2947 1591 2875 
Q 1750 2828 1803 2828 
Q 1853 2828 1881 2850 
Q 1909 2872 1947 2947 
L 2050 2947 
z
" id="TimesNewRomanPSMT-73" transform="scale(0.015625)"/>
       <path d="M 2631 1088 
Q 2516 522 2178 217 
Q 1841 -88 1431 -88 
Q 944 -88 581 321 
Q 219 731 219 1428 
Q 219 2103 620 2525 
Q 1022 2947 1584 2947 
Q 2006 2947 2278 2723 
Q 2550 2500 2550 2259 
Q 2550 2141 2473 2067 
Q 2397 1994 2259 1994 
Q 2075 1994 1981 2113 
Q 1928 2178 1911 2362 
Q 1894 2547 1784 2644 
Q 1675 2738 1481 2738 
Q 1169 2738 978 2506 
Q 725 2200 725 1697 
Q 725 1184 976 792 
Q 1228 400 1656 400 
Q 1963 400 2206 609 
Q 2378 753 2541 1131 
L 2631 1088 
z
" id="TimesNewRomanPSMT-63" transform="scale(0.015625)"/>
       <path d="M 144 4313 
L 144 4444 
Q 619 4209 934 3891 
Q 1381 3434 1625 2820 
Q 1869 2206 1869 1541 
Q 1869 572 1392 -226 
Q 916 -1025 144 -1369 
L 144 -1253 
Q 528 -1038 776 -670 
Q 1025 -303 1145 264 
Q 1266 831 1266 1447 
Q 1266 2113 1163 2663 
Q 1084 3094 967 3353 
Q 850 3613 656 3853 
Q 463 4094 144 4313 
z
" id="TimesNewRomanPSMT-29" transform="scale(0.015625)"/>
      </defs>
      <use xlink:href="#TimesNewRomanPSMT-54"/>
      <use x="57.583984" xlink:href="#TimesNewRomanPSMT-69"/>
      <use x="85.367188" xlink:href="#TimesNewRomanPSMT-6d"/>
      <use x="163.150391" xlink:href="#TimesNewRomanPSMT-65"/>
      <use x="207.535156" xlink:href="#TimesNewRomanPSMT-20"/>
      <use x="232.535156" xlink:href="#TimesNewRomanPSMT-28"/>
      <use x="265.835938" xlink:href="#TimesNewRomanPSMT-73"/>
      <use x="304.751953" xlink:href="#TimesNewRomanPSMT-65"/>
      <use x="349.136719" xlink:href="#TimesNewRomanPSMT-63"/>
      <use x="393.521484" xlink:href="#TimesNewRomanPSMT-29"/>
     </g>
    </g>
   </g>
   <g id="matplotlib.axis_2">
    <g id="ytick_1">
     <g id="line2d_13">
      <path clip-path="url(#p93726293a9)" d="M 63.336875 312.672589 
L 398.136875 312.672589 
" style="fill:none;stroke:#000000;stroke-dasharray:0.5,0.825;stroke-dashoffset:0;stroke-width:0.5;"/>
     </g>
     <g id="line2d_14">
      <defs>
       <path d="M 0 0 
L -3.5 0 
" id="mf248942e31" style="stroke:#000000;stroke-width:0.8;"/>
      </defs>
      <g>
       <use style="stroke:#000000;stroke-width:0.8;" x="63.336875" xlink:href="#mf248942e31" y="312.672589"/>
      </g>
     </g>
     <g id="text_8">
      <!-- −0.06 -->
      <g transform="translate(23.942188 317.533214)scale(0.14 -0.14)">
       <defs>
        <path d="M 3484 2000 
L 116 2000 
L 116 2256 
L 3484 2256 
L 3484 2000 
z
" id="TimesNewRomanPSMT-2212" transform="scale(0.015625)"/>
        <path d="M 2869 4325 
L 2869 4209 
Q 2456 4169 2195 4045 
Q 1934 3922 1679 3669 
Q 1425 3416 1258 3105 
Q 1091 2794 978 2366 
Q 1428 2675 1881 2675 
Q 2316 2675 2634 2325 
Q 2953 1975 2953 1425 
Q 2953 894 2631 456 
Q 2244 -75 1606 -75 
Q 1172 -75 869 213 
Q 275 772 275 1663 
Q 275 2231 503 2743 
Q 731 3256 1154 3653 
Q 1578 4050 1965 4187 
Q 2353 4325 2688 4325 
L 2869 4325 
z
M 925 2138 
Q 869 1716 869 1456 
Q 869 1156 980 804 
Q 1091 453 1309 247 
Q 1469 100 1697 100 
Q 1969 100 2183 356 
Q 2397 613 2397 1088 
Q 2397 1622 2184 2012 
Q 1972 2403 1581 2403 
Q 1463 2403 1327 2353 
Q 1191 2303 925 2138 
z
" id="TimesNewRomanPSMT-36" transform="scale(0.015625)"/>
       </defs>
       <use xlink:href="#TimesNewRomanPSMT-2212"/>
       <use x="56.396484" xlink:href="#TimesNewRomanPSMT-30"/>
       <use x="106.396484" xlink:href="#TimesNewRomanPSMT-2e"/>
       <use x="131.396484" xlink:href="#TimesNewRomanPSMT-30"/>
       <use x="181.396484" xlink:href="#TimesNewRomanPSMT-36"/>
      </g>
     </g>
    </g>
    <g id="ytick_2">
     <g id="line2d_15">
      <path clip-path="url(#p93726293a9)" d="M 63.336875 261.103112 
L 398.136875 261.103112 
" style="fill:none;stroke:#000000;stroke-dasharray:0.5,0.825;stroke-dashoffset:0;stroke-width:0.5;"/>
     </g>
     <g id="line2d_16">
      <g>
       <use style="stroke:#000000;stroke-width:0.8;" x="63.336875" xlink:href="#mf248942e31" y="261.103112"/>
      </g>
     </g>
     <g id="text_9">
      <!-- −0.04 -->
      <g transform="translate(23.942188 265.963737)scale(0.14 -0.14)">
       <use xlink:href="#TimesNewRomanPSMT-2212"/>
       <use x="56.396484" xlink:href="#TimesNewRomanPSMT-30"/>
       <use x="106.396484" xlink:href="#TimesNewRomanPSMT-2e"/>
       <use x="131.396484" xlink:href="#TimesNewRomanPSMT-30"/>
       <use x="181.396484" xlink:href="#TimesNewRomanPSMT-34"/>
      </g>
     </g>
    </g>
    <g id="ytick_3">
     <g id="line2d_17">
      <path clip-path="url(#p93726293a9)" d="M 63.336875 209.533636 
L 398.136875 209.533636 
" style="fill:none;stroke:#000000;stroke-dasharray:0.5,0.825;stroke-dashoffset:0;stroke-width:0.5;"/>
     </g>
     <g id="line2d_18">
      <g>
       <use style="stroke:#000000;stroke-width:0.8;" x="63.336875" xlink:href="#mf248942e31" y="209.533636"/>
      </g>
     </g>
     <g id="text_10">
      <!-- −0.02 -->
      <g transform="translate(23.942188 214.394261)scale(0.14 -0.14)">
       <use xlink:href="#TimesNewRomanPSMT-2212"/>
       <use x="56.396484" xlink:href="#TimesNewRomanPSMT-30"/>
       <use x="106.396484" xlink:href="#TimesNewRomanPSMT-2e"/>
       <use x="131.396484" xlink:href="#TimesNewRomanPSMT-30"/>
       <use x="181.396484" xlink:href="#TimesNewRomanPSMT-32"/>
      </g>
     </g>
    </g>
    <g id="ytick_4">
     <g id="line2d_19">
      <path clip-path="url(#p93726293a9)" d="M 63.336875 157.964159 
L 398.136875 157.964159 
" style="fill:none;stroke:#000000;stroke-dasharray:0.5,0.825;stroke-dashoffset:0;stroke-width:0.5;"/>
     </g>
     <g id="line2d_20">
      <g>
       <use style="stroke:#000000;stroke-width:0.8;" x="63.336875" xlink:href="#mf248942e31" y="157.964159"/>
      </g>
     </g>
     <g id="text_11">
      <!-- 0.00 -->
      <g transform="translate(31.836875 162.824784)scale(0.14 -0.14)">
       <use xlink:href="#TimesNewRomanPSMT-30"/>
       <use x="50" xlink:href="#TimesNewRomanPSMT-2e"/>
       <use x="75" xlink:href="#TimesNewRomanPSMT-30"/>
       <use x="125" xlink:href="#TimesNewRomanPSMT-30"/>
      </g>
     </g>
    </g>
    <g id="ytick_5">
     <g id="line2d_21">
      <path clip-path="url(#p93726293a9)" d="M 63.336875 106.394682 
L 398.136875 106.394682 
" style="fill:none;stroke:#000000;stroke-dasharray:0.5,0.825;stroke-dashoffset:0;stroke-width:0.5;"/>
     </g>
     <g id="line2d_22">
      <g>
       <use style="stroke:#000000;stroke-width:0.8;" x="63.336875" xlink:href="#mf248942e31" y="106.394682"/>
      </g>
     </g>
     <g id="text_12">
      <!-- 0.02 -->
      <g transform="translate(31.836875 111.255307)scale(0.14 -0.14)">
       <use xlink:href="#TimesNewRomanPSMT-30"/>
       <use x="50" xlink:href="#TimesNewRomanPSMT-2e"/>
       <use x="75" xlink:href="#TimesNewRomanPSMT-30"/>
       <use x="125" xlink:href="#TimesNewRomanPSMT-32"/>
      </g>
     </g>
    </g>
    <g id="ytick_6">
     <g id="line2d_23">
      <path clip-path="url(#p93726293a9)" d="M 63.336875 54.825206 
L 398.136875 54.825206 
" style="fill:none;stroke:#000000;stroke-dasharray:0.5,0.825;stroke-dashoffset:0;stroke-width:0.5;"/>
     </g>
     <g id="line2d_24">
      <g>
       <use style="stroke:#000000;stroke-width:0.8;" x="63.336875" xlink:href="#mf248942e31" y="54.825206"/>
      </g>
     </g>
     <g id="text_13">
      <!-- 0.04 -->
      <g transform="translate(31.836875 59.685831)scale(0.14 -0.14)">
       <use xlink:href="#TimesNewRomanPSMT-30"/>
       <use x="50" xlink:href="#TimesNewRomanPSMT-2e"/>
       <use x="75" xlink:href="#TimesNewRomanPSMT-30"/>
       <use x="125" xlink:href="#TimesNewRomanPSMT-34"/>
      </g>
     </g>
    </g>
    <g id="text_14">
     <!-- Volatage (V) -->
     <g transform="translate(16.92125 209.352344)rotate(-90)scale(0.14 -0.14)">
      <defs>
       <path d="M 4544 4238 
L 4544 4122 
Q 4319 4081 4203 3978 
Q 4038 3825 3909 3509 
L 2431 -97 
L 2316 -97 
L 728 3556 
Q 606 3838 556 3900 
Q 478 3997 364 4051 
Q 250 4106 56 4122 
L 56 4238 
L 1788 4238 
L 1788 4122 
Q 1494 4094 1406 4022 
Q 1319 3950 1319 3838 
Q 1319 3681 1463 3350 
L 2541 866 
L 3541 3319 
Q 3688 3681 3688 3822 
Q 3688 3913 3597 3995 
Q 3506 4078 3291 4113 
Q 3275 4116 3238 4122 
L 3238 4238 
L 4544 4238 
z
" id="TimesNewRomanPSMT-56" transform="scale(0.015625)"/>
       <path d="M 1600 2947 
Q 2250 2947 2644 2453 
Q 2978 2031 2978 1484 
Q 2978 1100 2793 706 
Q 2609 313 2286 112 
Q 1963 -88 1566 -88 
Q 919 -88 538 428 
Q 216 863 216 1403 
Q 216 1797 411 2186 
Q 606 2575 925 2761 
Q 1244 2947 1600 2947 
z
M 1503 2744 
Q 1338 2744 1170 2645 
Q 1003 2547 900 2300 
Q 797 2053 797 1666 
Q 797 1041 1045 587 
Q 1294 134 1700 134 
Q 2003 134 2200 384 
Q 2397 634 2397 1244 
Q 2397 2006 2069 2444 
Q 1847 2744 1503 2744 
z
" id="TimesNewRomanPSMT-6f" transform="scale(0.015625)"/>
       <path d="M 1184 4444 
L 1184 647 
Q 1184 378 1223 290 
Q 1263 203 1344 158 
Q 1425 113 1647 113 
L 1647 0 
L 244 0 
L 244 113 
Q 441 113 512 153 
Q 584 194 625 287 
Q 666 381 666 647 
L 666 3247 
Q 666 3731 644 3842 
Q 622 3953 573 3993 
Q 525 4034 450 4034 
Q 369 4034 244 3984 
L 191 4094 
L 1044 4444 
L 1184 4444 
z
" id="TimesNewRomanPSMT-6c" transform="scale(0.015625)"/>
       <path d="M 1822 413 
Q 1381 72 1269 19 
Q 1100 -59 909 -59 
Q 613 -59 420 144 
Q 228 347 228 678 
Q 228 888 322 1041 
Q 450 1253 767 1440 
Q 1084 1628 1822 1897 
L 1822 2009 
Q 1822 2438 1686 2597 
Q 1550 2756 1291 2756 
Q 1094 2756 978 2650 
Q 859 2544 859 2406 
L 866 2225 
Q 866 2081 792 2003 
Q 719 1925 600 1925 
Q 484 1925 411 2006 
Q 338 2088 338 2228 
Q 338 2497 613 2722 
Q 888 2947 1384 2947 
Q 1766 2947 2009 2819 
Q 2194 2722 2281 2516 
Q 2338 2381 2338 1966 
L 2338 994 
Q 2338 584 2353 492 
Q 2369 400 2405 369 
Q 2441 338 2488 338 
Q 2538 338 2575 359 
Q 2641 400 2828 588 
L 2828 413 
Q 2478 -56 2159 -56 
Q 2006 -56 1915 50 
Q 1825 156 1822 413 
z
M 1822 616 
L 1822 1706 
Q 1350 1519 1213 1441 
Q 966 1303 859 1153 
Q 753 1003 753 825 
Q 753 600 887 451 
Q 1022 303 1197 303 
Q 1434 303 1822 616 
z
" id="TimesNewRomanPSMT-61" transform="scale(0.015625)"/>
       <path d="M 1031 3803 
L 1031 2863 
L 1700 2863 
L 1700 2644 
L 1031 2644 
L 1031 788 
Q 1031 509 1111 412 
Q 1191 316 1316 316 
Q 1419 316 1516 380 
Q 1613 444 1666 569 
L 1788 569 
Q 1678 263 1478 108 
Q 1278 -47 1066 -47 
Q 922 -47 784 33 
Q 647 113 581 261 
Q 516 409 516 719 
L 516 2644 
L 63 2644 
L 63 2747 
Q 234 2816 414 2980 
Q 594 3144 734 3369 
Q 806 3488 934 3803 
L 1031 3803 
z
" id="TimesNewRomanPSMT-74" transform="scale(0.015625)"/>
       <path d="M 966 1044 
Q 703 1172 562 1401 
Q 422 1631 422 1909 
Q 422 2334 742 2640 
Q 1063 2947 1563 2947 
Q 1972 2947 2272 2747 
L 2878 2747 
Q 3013 2747 3034 2739 
Q 3056 2731 3066 2713 
Q 3084 2684 3084 2613 
Q 3084 2531 3069 2500 
Q 3059 2484 3036 2475 
Q 3013 2466 2878 2466 
L 2506 2466 
Q 2681 2241 2681 1891 
Q 2681 1491 2375 1206 
Q 2069 922 1553 922 
Q 1341 922 1119 984 
Q 981 866 932 777 
Q 884 688 884 625 
Q 884 572 936 522 
Q 988 472 1138 450 
Q 1225 438 1575 428 
Q 2219 413 2409 384 
Q 2700 344 2873 169 
Q 3047 -6 3047 -263 
Q 3047 -616 2716 -925 
Q 2228 -1381 1444 -1381 
Q 841 -1381 425 -1109 
Q 191 -953 191 -784 
Q 191 -709 225 -634 
Q 278 -519 444 -313 
Q 466 -284 763 25 
Q 600 122 533 198 
Q 466 275 466 372 
Q 466 481 555 628 
Q 644 775 966 1044 
z
M 1509 2797 
Q 1278 2797 1122 2612 
Q 966 2428 966 2047 
Q 966 1553 1178 1281 
Q 1341 1075 1591 1075 
Q 1828 1075 1981 1253 
Q 2134 1431 2134 1813 
Q 2134 2309 1919 2591 
Q 1759 2797 1509 2797 
z
M 934 0 
Q 788 -159 713 -296 
Q 638 -434 638 -550 
Q 638 -700 819 -813 
Q 1131 -1006 1722 -1006 
Q 2284 -1006 2551 -807 
Q 2819 -609 2819 -384 
Q 2819 -222 2659 -153 
Q 2497 -84 2016 -72 
Q 1313 -53 934 0 
z
" id="TimesNewRomanPSMT-67" transform="scale(0.015625)"/>
      </defs>
      <use xlink:href="#TimesNewRomanPSMT-56"/>
      <use x="59.341797" xlink:href="#TimesNewRomanPSMT-6f"/>
      <use x="109.341797" xlink:href="#TimesNewRomanPSMT-6c"/>
      <use x="137.125" xlink:href="#TimesNewRomanPSMT-61"/>
      <use x="181.509766" xlink:href="#TimesNewRomanPSMT-74"/>
      <use x="209.292969" xlink:href="#TimesNewRomanPSMT-61"/>
      <use x="253.677734" xlink:href="#TimesNewRomanPSMT-67"/>
      <use x="303.677734" xlink:href="#TimesNewRomanPSMT-65"/>
      <use x="348.0625" xlink:href="#TimesNewRomanPSMT-20"/>
      <use x="373.0625" xlink:href="#TimesNewRomanPSMT-28"/>
      <use x="406.363281" xlink:href="#TimesNewRomanPSMT-56"/>
      <use x="478.580078" xlink:href="#TimesNewRomanPSMT-29"/>
     </g>
    </g>
   </g>
   <g id="LineCollection_1">
    <path clip-path="url(#p93726293a9)" d="M 78.555057 157.964159 
L 382.918693 157.964159 
" style="fill:none;stroke:#1f77b4;stroke-width:1.5;"/>
   </g>
   <g id="line2d_25">
    <path clip-path="url(#p93726293a9)" d="M 78.555057 157.924966 
L 78.707239 157.924966 
L 88.56862 157.989428 
L 88.599057 158.05389 
L 88.690366 157.989428 
L 88.872984 158.021659 
L 89.055602 157.989428 
L 89.207784 157.989428 
L 92.981893 158.086121 
L 93.164511 158.118352 
L 93.34713 158.086121 
L 95.93422 158.150583 
L 96.086402 158.215044 
L 96.299457 158.150583 
L 96.512511 158.215044 
L 96.664693 158.182813 
L 96.816875 158.182813 
L 99.890948 158.247275 
L 100.012693 158.279506 
L 103.573748 158.343968 
L 103.604184 158.40843 
L 103.695493 158.343968 
L 112.126366 158.40843 
L 112.278548 158.472892 
L 113.43513 158.569585 
L 113.556875 158.634046 
L 113.587311 158.569585 
L 114.34822 158.634046 
L 114.500402 158.698508 
L 115.10913 158.795201 
L 115.261311 158.827432 
L 115.383057 158.795201 
L 115.565675 158.859663 
L 115.717857 158.859663 
L 116.083093 158.956356 
L 116.265711 159.020817 
L 116.387457 158.988587 
L 116.417893 159.020817 
L 117.270111 159.11751 
L 117.483166 159.181972 
L 118.45713 159.278665 
L 118.639748 159.310896 
L 119.826766 159.407589 
L 120.009384 159.439819 
L 120.892039 159.504281 
L 121.04422 159.568743 
L 121.622511 159.665436 
L 121.866002 159.762129 
L 122.13993 159.858821 
L 122.322548 159.987745 
L 122.444293 160.019976 
L 122.779093 160.245592 
L 122.80953 160.213362 
L 122.870402 160.277824 
L 123.357384 160.664595 
L 123.47913 160.696825 
L 123.692184 160.890211 
L 125.15313 162.59845 
L 125.700984 163.565377 
L 125.73142 163.533147 
L 125.761857 163.629839 
L 127.040184 166.595084 
L 127.435857 167.787629 
L 127.709784 168.625633 
L 129.018548 173.137961 
L 130.08382 177.166827 
L 130.50993 178.875066 
L 132.153493 185.353482 
L 132.42742 186.191485 
L 132.883966 187.641877 
L 135.014511 191.896359 
L 135.958039 192.734363 
L 136.353711 192.63767 
L 137.20593 191.57405 
L 137.571166 190.768277 
L 138.21033 189.15673 
L 139.092984 185.9981 
L 140.766984 176.651133 
L 141.22353 173.331347 
L 142.288802 164.628998 
L 143.019275 158.021659 
L 143.90193 149.609388 
L 146.184657 124.275883 
L 150.84142 71.288243 
L 153.002402 53.915773 
L 154.554657 46.244818 
L 155.132948 44.729962 
L 156.046039 43.924192 
L 156.28953 43.988654 
L 156.53302 44.246506 
L 156.806948 44.697736 
L 157.29393 45.890275 
L 157.598293 46.792749 
L 157.902657 48.049752 
L 159.363602 58.041333 
L 159.820148 62.231358 
L 161.31153 79.12036 
L 162.955093 103.22909 
L 164.050802 122.374258 
L 164.963893 139.617802 
L 168.00753 201.72679 
L 171.02073 260.129223 
L 172.786039 288.202357 
L 174.186111 304.640125 
L 175.342693 314.663944 
L 176.438402 320.916733 
L 177.199311 323.656374 
L 177.473239 324.204295 
L 178.021093 324.655528 
L 178.173275 324.655528 
L 178.416766 324.591074 
L 179.177675 322.786129 
L 179.451602 321.883668 
L 179.63422 321.271276 
L 180.212511 318.3705 
L 180.912548 314.083788 
L 181.39953 310.280541 
L 182.434366 300.611264 
L 183.804002 283.367721 
L 184.504039 273.118287 
L 187.243311 227.8983 
L 190.226075 172.203264 
L 191.839202 141.938428 
L 195.03502 92.850733 
L 196.678584 73.318791 
L 197.348184 66.711449 
L 197.896039 62.005742 
L 199.843966 50.338143 
L 200.604875 46.889437 
L 201.06142 45.439045 
L 201.791893 43.472959 
L 203.131093 42.215955 
L 203.770257 42.312646 
L 203.983311 42.37711 
L 204.135493 42.37711 
L 204.83553 43.279571 
L 205.992111 45.986966 
L 206.479093 47.566283 
L 207.361748 50.692683 
L 207.696548 52.207539 
L 207.75742 52.433155 
L 210.557566 67.839536 
L 211.86633 75.446039 
L 212.77942 80.828598 
L 213.44902 85.050849 
L 213.722948 86.694624 
L 214.20993 89.853254 
L 214.666475 92.818502 
L 219.23193 121.117252 
L 223.432148 143.936746 
L 224.101748 147.482147 
L 224.771348 150.801932 
L 226.384475 159.858821 
L 226.749711 162.018293 
L 227.297566 165.499233 
L 227.967166 170.26941 
L 228.758511 175.974283 
L 232.806548 211.170451 
L 233.810948 221.581039 
L 236.21542 245.915388 
L 238.011166 260.193685 
L 238.376402 262.707702 
L 239.289493 267.800188 
L 240.385202 271.9902 
L 240.537384 272.280278 
L 240.750439 272.828209 
L 240.933057 273.150513 
L 241.115675 273.408366 
L 241.389602 273.537281 
L 241.541784 273.47283 
L 241.754839 273.376129 
L 241.967893 273.311668 
L 242.150511 273.214977 
L 242.546184 272.634821 
L 243.33753 270.70096 
L 244.402802 267.02664 
L 244.889784 264.609324 
L 245.194148 262.836618 
L 247.26382 244.368299 
L 248.663893 228.381764 
L 250.063966 210.78368 
L 251.829275 186.965028 
L 254.020693 158.279506 
L 256.577348 129.755139 
L 257.460002 122.43872 
L 257.886111 119.344551 
L 258.433966 115.895845 
L 259.012257 112.350441 
L 259.773166 108.643885 
L 260.351457 106.129873 
L 261.690657 102.1977 
L 261.75153 102.133238 
L 262.299384 101.230773 
L 262.877675 100.77954 
L 263.029857 100.715078 
L 263.182039 100.650613 
L 263.42553 100.553926 
L 264.216875 100.650613 
L 264.490802 100.77954 
L 264.582111 100.747309 
L 264.612548 100.811773 
L 265.09953 101.166308 
L 265.221275 101.230773 
L 265.403893 101.359696 
L 266.164802 102.326621 
L 266.377857 102.745626 
L 266.408293 102.713395 
L 266.469166 102.81009 
L 266.864839 103.390247 
L 268.721457 107.580264 
L 269.299748 109.062889 
L 269.938911 110.642202 
L 270.243275 111.447975 
L 270.45633 112.124825 
L 270.973748 113.833064 
L 271.79553 116.798306 
L 273.317348 122.761029 
L 276.178366 131.495609 
L 276.269675 131.688995 
L 276.574039 132.526999 
L 277.030584 133.751773 
L 277.334948 134.589777 
L 277.761057 135.750091 
L 278.095857 136.684789 
L 278.887202 138.84426 
L 279.952475 141.358271 
L 280.226402 142.035122 
L 281.535166 145.064828 
L 281.900402 145.870601 
L 284.365748 150.866394 
L 284.457057 150.963087 
L 284.76142 151.349858 
L 285.704948 152.187862 
L 286.070184 152.252324 
L 286.19193 152.284554 
L 286.648475 152.187862 
L 288.048548 150.544084 
L 288.322475 150.02839 
L 289.44862 147.385454 
L 290.635639 143.968976 
L 290.909566 143.163204 
L 291.21393 142.099583 
L 292.248766 139.134339 
L 292.340075 138.87649 
L 292.674875 137.909563 
L 292.979239 137.071559 
L 293.55753 135.588936 
L 294.105384 134.170775 
L 294.318439 133.784005 
L 294.622802 133.171617 
L 294.89673 132.720384 
L 295.109784 132.398075 
L 295.414148 131.979073 
L 295.535893 131.88238 
L 295.718511 131.753457 
L 295.748948 131.785688 
L 295.80982 131.688995 
L 296.053311 131.592302 
L 296.57073 131.52784 
L 296.631602 131.463378 
L 296.692475 131.495609 
L 296.935966 131.592302 
L 297.14902 131.688995 
L 297.849057 132.591461 
L 298.731711 134.718701 
L 299.15782 136.072401 
L 299.370875 136.717018 
L 300.344839 141.29381 
L 300.862257 143.968976 
L 302.50582 155.120876 
L 305.062475 177.714753 
L 306.127748 187.835263 
L 308.684402 211.13822 
L 309.29313 216.424091 
L 309.96273 221.742191 
L 310.814948 228.027221 
L 311.819348 233.699863 
L 312.458511 236.503954 
L 313.067239 238.598966 
L 313.828148 240.693979 
L 314.64993 241.435287 
L 314.832548 241.403062 
L 315.015166 241.338597 
L 315.380402 240.822902 
L 315.56302 240.500588 
L 315.836948 239.952668 
L 316.050002 239.565891 
L 316.536984 238.276657 
L 317.358766 235.311415 
L 318.119675 231.604858 
L 319.91542 219.486026 
L 321.376366 207.850663 
L 323.537348 188.641036 
L 324.724366 177.231288 
L 325.089602 173.78258 
L 325.850511 166.885163 
L 326.459239 161.56706 
L 329.04633 140.58473 
L 330.446402 131.012145 
L 331.085566 127.079973 
L 331.511675 124.404806 
L 333.06393 115.251224 
L 334.281384 109.385194 
L 335.74233 103.680325 
L 335.955384 102.971242 
L 336.503239 101.134082 
L 337.32502 98.877918 
L 338.785966 96.041597 
L 341.555675 93.269732 
L 341.738293 93.173044 
L 341.981784 93.044118 
L 342.073093 93.044118 
L 342.10353 93.011887 
L 342.316584 92.947423 
L 343.747093 93.011887 
L 343.838402 93.10858 
L 343.899275 93.076349 
L 344.35582 93.398658 
L 344.508002 93.495349 
L 344.69062 93.624275 
L 345.877639 95.010205 
L 346.212439 95.719287 
L 346.36462 96.041597 
L 346.79073 97.201905 
L 347.277711 98.781223 
L 347.490766 99.4903 
L 348.12993 101.84316 
L 348.495166 103.22909 
L 348.890839 104.840639 
L 350.169166 110.738897 
L 350.869202 114.477685 
L 354.125893 131.141069 
L 354.73462 134.203007 
L 359.482693 158.76297 
L 360.000111 161.438137 
L 360.608839 164.596767 
L 361.339311 168.174399 
L 361.76542 170.172717 
L 362.617639 174.10489 
L 368.917966 200.30863 
L 369.404948 202.210252 
L 370.22673 205.20773 
L 373.48342 215.199319 
L 373.605166 215.489397 
L 375.674839 219.647184 
L 375.766148 219.743879 
L 376.16182 220.356261 
L 376.25313 220.452957 
L 376.770548 220.871961 
L 376.892293 220.871961 
L 377.470584 221.323191 
L 377.683639 221.419887 
L 377.83582 221.452118 
L 378.018439 221.419887 
L 378.201057 221.452118 
L 378.627166 221.355422 
L 378.748911 221.323191 
L 378.93153 221.226496 
L 379.114148 221.097575 
L 379.966366 220.066183 
L 380.240293 219.550491 
L 380.392475 219.228179 
L 380.757711 218.390175 
L 380.879457 218.13233 
L 382.918693 211.363836 
L 382.918693 211.363836 
" style="fill:none;stroke:#0000ff;stroke-linecap:square;stroke-width:1.5;"/>
   </g>
   <g id="line2d_26">
    <path clip-path="url(#p93726293a9)" d="M 78.555057 157.899375 
L 78.768111 157.899375 
L 83.333566 157.996068 
L 83.577057 158.012183 
L 95.35593 158.09276 
L 95.477675 158.108876 
L 95.629857 158.09276 
L 100.37793 158.173338 
L 100.590984 158.237799 
L 100.743166 158.27003 
L 101.04753 158.366723 
L 102.356293 159.172496 
L 103.360693 160.397271 
L 104.152039 161.847663 
L 105.156439 164.232751 
L 107.500039 172.032635 
L 110.452366 182.556032 
L 112.00462 186.35928 
L 112.795966 187.77744 
L 113.161202 188.164211 
L 114.074293 188.534867 
L 114.409093 188.45429 
L 115.535239 187.100591 
L 115.991784 186.198125 
L 116.69182 184.054769 
L 118.000584 178.785012 
L 120.587675 164.490598 
L 121.866002 155.659326 
L 125.944475 126.248608 
L 128.014148 114.806631 
L 130.144693 106.233203 
L 130.601239 105.008433 
L 131.209966 103.703078 
L 131.84913 102.526647 
L 132.336111 101.31799 
L 132.823093 100.544447 
L 133.066584 100.302715 
L 133.797057 99.33579 
L 134.19273 99.077943 
L 135.227566 98.417204 
L 135.562366 98.175477 
L 135.714548 98.19159 
L 135.897166 98.175477 
L 136.049348 98.223821 
L 136.231966 98.207708 
L 136.87113 97.965974 
L 137.084184 98.030438 
L 137.266802 98.111013 
L 137.479857 98.304398 
L 137.753784 98.562243 
L 138.088584 98.836208 
L 138.636439 99.899829 
L 139.153857 101.559721 
L 139.701711 103.413 
L 140.158257 105.185703 
L 140.766984 107.844754 
L 141.375711 110.487685 
L 142.867093 118.980535 
L 144.358475 129.987395 
L 145.545493 139.108747 
L 146.184657 144.265694 
L 149.50222 175.126803 
L 152.60673 203.651167 
L 153.85462 213.288213 
L 155.072075 220.910829 
L 156.350402 226.470663 
L 157.20262 228.839636 
L 157.993966 230.257797 
L 158.20702 230.418954 
L 158.511384 230.483411 
L 158.754875 230.451185 
L 158.96793 230.451185 
L 159.363602 230.370602 
L 160.428875 229.081368 
L 160.946293 228.066094 
L 162.468111 222.876915 
L 163.472511 217.574926 
L 164.355166 211.789475 
L 165.450875 203.522246 
L 167.824911 182.475453 
L 168.67713 175.400766 
L 170.077202 164.474483 
L 170.92942 158.576224 
L 172.60342 149.454873 
L 174.216548 143.862808 
L 175.28182 141.832259 
L 176.073166 141.735567 
L 176.255784 141.735567 
L 176.590584 142.00953 
L 177.442802 143.540498 
L 178.173275 145.764432 
L 181.521275 160.397271 
L 184.65622 178.011471 
L 186.056293 184.151461 
L 187.182439 187.374554 
L 187.638984 188.293135 
L 188.67382 189.759642 
L 188.76513 189.824104 
L 188.978184 189.985259 
L 189.404293 190.098067 
L 189.952148 190.001374 
L 190.469566 189.292294 
L 191.656584 185.8597 
L 192.35662 183.37792 
L 192.813166 181.863067 
L 193.300148 179.977557 
L 194.061057 176.303231 
L 195.552439 168.245501 
L 196.343784 163.942673 
L 198.961311 146.634668 
L 204.865966 97.530856 
L 205.718184 92.390026 
L 207.483493 85.36368 
L 207.970475 83.768249 
L 208.548766 82.011667 
L 209.066184 81.173663 
L 210.009711 79.86831 
L 210.19233 79.803846 
L 210.588002 79.900541 
L 210.801057 79.981116 
L 211.166293 80.206738 
L 211.288039 80.287312 
L 212.962039 84.090559 
L 213.479457 85.766567 
L 214.179493 88.248353 
L 214.483857 89.360315 
L 215.670875 94.855687 
L 218.653639 112.872775 
L 222.123384 134.209645 
L 224.193057 145.619393 
L 224.771348 148.874716 
L 225.50182 152.823004 
L 229.732475 172.451637 
L 230.249893 174.449954 
L 231.741275 180.380443 
L 237.037202 205.117677 
L 238.924257 210.774201 
L 239.56342 211.886171 
L 239.959093 212.450209 
L 240.293893 212.901445 
L 240.780875 213.497717 
L 240.99393 213.723331 
L 241.359166 214.126222 
L 241.754839 214.432414 
L 241.967893 214.577453 
L 242.24182 214.722492 
L 242.515748 214.819187 
L 243.154911 215.060917 
L 243.307093 215.093147 
L 243.67233 215.318761 
L 244.707166 215.9795 
L 245.376766 216.527426 
L 246.92902 217.236504 
L 247.324693 217.333197 
L 247.568184 217.429887 
L 248.663893 217.897238 
L 248.93782 217.9617 
L 249.059566 218.026161 
L 249.181311 218.042277 
L 249.424802 218.13897 
L 250.885748 219.009205 
L 251.098802 219.283165 
L 252.438002 220.862483 
L 252.924984 221.442639 
L 253.138039 221.668256 
L 253.95982 222.699643 
L 255.664257 225.229773 
L 255.877311 225.439276 
L 256.181675 225.761586 
L 256.30342 225.84216 
L 257.216511 226.647933 
L 258.129602 227.018589 
L 258.342657 227.018589 
L 258.525275 227.002476 
L 258.768766 226.921894 
L 259.773166 225.697121 
L 260.594948 223.714919 
L 261.32542 221.039755 
L 262.360257 215.576609 
L 262.938548 211.579979 
L 263.821202 204.263555 
L 265.464766 187.551824 
L 266.408293 175.287958 
L 268.417093 145.023121 
L 274.108693 56.29139 
L 275.204402 43.737448 
L 276.05662 35.873103 
L 277.15233 28.024868 
L 277.700184 25.414163 
L 278.674148 22.626186 
L 279.06982 22.352226 
L 279.617675 22.448926 
L 279.83073 22.658422 
L 280.317711 23.625347 
L 280.83513 25.301355 
L 281.474293 28.040986 
L 282.600439 35.244603 
L 283.483093 42.593253 
L 284.944039 57.564512 
L 287.43982 87.909923 
L 293.070548 160.977428 
L 294.835857 179.413516 
L 296.875093 197.785142 
L 299.370875 216.720809 
L 300.49702 223.714919 
L 302.292766 232.626767 
L 303.023239 235.269705 
L 303.723275 236.832905 
L 304.118948 237.268022 
L 304.362439 237.364718 
L 304.788548 237.268022 
L 305.549457 236.752328 
L 305.975566 236.13994 
L 306.432111 235.430857 
L 306.797348 234.89905 
L 307.61913 232.916845 
L 309.140948 227.727672 
L 310.814948 221.12033 
L 313.249857 207.631689 
L 315.410839 191.355073 
L 319.032766 165.328602 
L 320.00673 159.365882 
L 321.954657 149.599912 
L 322.411202 147.794981 
L 323.202548 145.264853 
L 323.68953 143.975616 
L 324.511311 142.106223 
L 325.089602 140.994255 
L 326.063566 139.189324 
L 326.61142 138.512474 
L 326.885348 138.254627 
L 327.128839 138.061242 
L 328.62022 137.384392 
L 329.076766 137.2877 
L 329.350693 137.239353 
L 329.563748 137.239353 
L 329.807239 137.223237 
L 330.415966 137.126545 
L 330.781202 137.029853 
L 330.933384 136.997622 
L 331.29862 136.900927 
L 331.998657 136.64308 
L 332.211711 136.562504 
L 332.455202 136.449696 
L 332.63782 136.353002 
L 333.216111 135.966232 
L 333.459602 135.708385 
L 333.824839 135.305499 
L 334.007457 135.095996 
L 335.07273 133.806759 
L 336.442366 131.453902 
L 341.190439 119.190036 
L 341.67742 118.223109 
L 342.34702 117.062795 
L 342.68182 116.547101 
L 343.10793 115.886367 
L 343.929711 115.161171 
L 344.11233 115.145053 
L 344.386257 115.112827 
L 345.02542 115.515714 
L 345.268911 115.854136 
L 346.395057 117.820222 
L 347.216839 119.705731 
L 347.46033 120.285888 
L 347.977748 121.639586 
L 349.103893 125.571759 
L 349.864802 128.810967 
L 351.782293 138.480244 
L 354.125893 152.774658 
L 357.047784 172.129327 
L 358.204366 178.768897 
L 358.813093 182.185375 
L 359.51313 185.617968 
L 361.217566 191.548458 
L 361.552366 192.515386 
L 362.404584 194.868243 
L 363.804657 197.575641 
L 365.052548 198.752072 
L 365.265602 198.84876 
L 365.78302 199.009917 
L 366.361311 198.929342 
L 367.21353 197.865719 
L 367.944002 196.51202 
L 368.79622 194.449241 
L 369.374511 192.612079 
L 370.044111 189.727411 
L 371.13982 183.974191 
L 376.435748 152.484579 
L 380.575093 126.877111 
L 382.309966 118.28757 
L 382.918693 115.757443 
L 382.918693 115.757443 
" style="fill:none;stroke:#ff0000;stroke-linecap:square;stroke-width:1.5;"/>
   </g>
   <g id="line2d_27">
    <path clip-path="url(#p93726293a9)" d="M 126.948875 166.369468 
" style="fill:none;stroke:#ffffff;stroke-linecap:square;stroke-width:1.5;"/>
    <defs>
     <path d="M 0 -5 
L -1.12257 -1.545085 
L -4.755283 -1.545085 
L -1.816356 0.59017 
L -2.938926 4.045085 
L -0 1.90983 
L 2.938926 4.045085 
L 1.816356 0.59017 
L 4.755283 -1.545085 
L 1.12257 -1.545085 
z
" id="m8cda979afb" style="stroke:#ffffff;stroke-linejoin:bevel;"/>
    </defs>
    <g clip-path="url(#p93726293a9)">
     <use style="fill:#0000ff;stroke:#ffffff;stroke-linejoin:bevel;" x="126.948875" xlink:href="#m8cda979afb" y="166.369468"/>
    </g>
   </g>
   <g id="line2d_28">
    <path clip-path="url(#p93726293a9)" d="M 105.339057 164.764561 
" style="fill:none;stroke:#ffffff;stroke-linecap:square;stroke-width:1.5;"/>
    <defs>
     <path d="M 0 -5 
L -1.12257 -1.545085 
L -4.755283 -1.545085 
L -1.816356 0.59017 
L -2.938926 4.045085 
L -0 1.90983 
L 2.938926 4.045085 
L 1.816356 0.59017 
L 4.755283 -1.545085 
L 1.12257 -1.545085 
z
" id="m2f0ff30000" style="stroke:#ffffff;stroke-linejoin:bevel;"/>
    </defs>
    <g clip-path="url(#p93726293a9)">
     <use style="fill:#ff0000;stroke:#ffffff;stroke-linejoin:bevel;" x="105.339057" xlink:href="#m2f0ff30000" y="164.764561"/>
    </g>
   </g>
   <g id="patch_3">
    <path d="M 63.336875 339.84 
L 63.336875 7.2 
" style="fill:none;stroke:#000000;stroke-linecap:square;stroke-linejoin:miter;stroke-width:0.8;"/>
   </g>
   <g id="patch_4">
    <path d="M 398.136875 339.84 
L 398.136875 7.2 
" style="fill:none;stroke:#000000;stroke-linecap:square;stroke-linejoin:miter;stroke-width:0.8;"/>
   </g>
   <g id="patch_5">
    <path d="M 63.336875 339.84 
L 398.136875 339.84 
" style="fill:none;stroke:#000000;stroke-linecap:square;stroke-linejoin:miter;stroke-width:0.8;"/>
   </g>
   <g id="patch_6">
    <path d="M 63.336875 7.2 
L 398.136875 7.2 
" style="fill:none;stroke:#000000;stroke-linecap:square;stroke-linejoin:miter;stroke-width:0.8;"/>
   </g>
   <g id="text_15">
    <g id="patch_7">
     <path d="M 75.036875 331.242688 
L 166.79375 331.242688 
L 166.79375 293.760312 
L 75.036875 293.760312 
z
" style="fill:#ffffff;stroke:#000000;stroke-linejoin:miter;stroke-width:0.75;"/>
    </g>
    <!-- Auto_00071 -->
    <g transform="translate(80.076875 308.521562)scale(0.14 -0.14)">
     <defs>
      <path d="M 2928 1419 
L 1288 1419 
L 1000 750 
Q 894 503 894 381 
Q 894 284 986 211 
Q 1078 138 1384 116 
L 1384 0 
L 50 0 
L 50 116 
Q 316 163 394 238 
Q 553 388 747 847 
L 2238 4334 
L 2347 4334 
L 3822 809 
Q 4000 384 4145 257 
Q 4291 131 4550 116 
L 4550 0 
L 2878 0 
L 2878 116 
Q 3131 128 3220 200 
Q 3309 272 3309 375 
Q 3309 513 3184 809 
L 2928 1419 
z
M 2841 1650 
L 2122 3363 
L 1384 1650 
L 2841 1650 
z
" id="TimesNewRomanPSMT-41" transform="scale(0.015625)"/>
      <path d="M 2709 2863 
L 2709 1128 
Q 2709 631 2732 520 
Q 2756 409 2807 365 
Q 2859 322 2928 322 
Q 3025 322 3147 375 
L 3191 266 
L 2334 -88 
L 2194 -88 
L 2194 519 
Q 1825 119 1631 15 
Q 1438 -88 1222 -88 
Q 981 -88 804 51 
Q 628 191 559 409 
Q 491 628 491 1028 
L 491 2306 
Q 491 2509 447 2587 
Q 403 2666 317 2708 
Q 231 2750 6 2747 
L 6 2863 
L 1009 2863 
L 1009 947 
Q 1009 547 1148 422 
Q 1288 297 1484 297 
Q 1619 297 1789 381 
Q 1959 466 2194 703 
L 2194 2325 
Q 2194 2569 2105 2655 
Q 2016 2741 1734 2747 
L 1734 2863 
L 2709 2863 
z
" id="TimesNewRomanPSMT-75" transform="scale(0.015625)"/>
      <path d="M 3256 -1381 
L -53 -1381 
L -53 -1119 
L 3256 -1119 
L 3256 -1381 
z
" id="TimesNewRomanPSMT-5f" transform="scale(0.015625)"/>
      <path d="M 644 4238 
L 2916 4238 
L 2916 4119 
L 1503 -88 
L 1153 -88 
L 2419 3728 
L 1253 3728 
Q 900 3728 750 3644 
Q 488 3500 328 3200 
L 238 3234 
L 644 4238 
z
" id="TimesNewRomanPSMT-37" transform="scale(0.015625)"/>
     </defs>
     <use xlink:href="#TimesNewRomanPSMT-41"/>
     <use x="72.216797" xlink:href="#TimesNewRomanPSMT-75"/>
     <use x="122.216797" xlink:href="#TimesNewRomanPSMT-74"/>
     <use x="150" xlink:href="#TimesNewRomanPSMT-6f"/>
     <use x="200" xlink:href="#TimesNewRomanPSMT-5f"/>
     <use x="250" xlink:href="#TimesNewRomanPSMT-30"/>
     <use x="300" xlink:href="#TimesNewRomanPSMT-30"/>
     <use x="350" xlink:href="#TimesNewRomanPSMT-30"/>
     <use x="400" xlink:href="#TimesNewRomanPSMT-37"/>
     <use x="450" xlink:href="#TimesNewRomanPSMT-31"/>
    </g>
    <!-- Vs: 281.55m/s -->
    <g transform="translate(80.076875 323.208)scale(0.14 -0.14)">
     <defs>
      <path d="M 903 2950 
Q 1047 2950 1148 2848 
Q 1250 2747 1250 2603 
Q 1250 2459 1148 2357 
Q 1047 2256 903 2256 
Q 759 2256 657 2357 
Q 556 2459 556 2603 
Q 556 2747 657 2848 
Q 759 2950 903 2950 
z
M 897 609 
Q 1044 609 1145 506 
Q 1247 403 1247 259 
Q 1247 116 1144 14 
Q 1041 -88 897 -88 
Q 753 -88 651 14 
Q 550 116 550 259 
Q 550 403 651 506 
Q 753 609 897 609 
z
" id="TimesNewRomanPSMT-3a" transform="scale(0.015625)"/>
      <path d="M 1228 2134 
Q 725 2547 579 2797 
Q 434 3047 434 3316 
Q 434 3728 753 4026 
Q 1072 4325 1600 4325 
Q 2113 4325 2425 4047 
Q 2738 3769 2738 3413 
Q 2738 3175 2569 2928 
Q 2400 2681 1866 2347 
Q 2416 1922 2594 1678 
Q 2831 1359 2831 1006 
Q 2831 559 2490 242 
Q 2150 -75 1597 -75 
Q 994 -75 656 303 
Q 388 606 388 966 
Q 388 1247 577 1523 
Q 766 1800 1228 2134 
z
M 1719 2469 
Q 2094 2806 2194 3001 
Q 2294 3197 2294 3444 
Q 2294 3772 2109 3958 
Q 1925 4144 1606 4144 
Q 1288 4144 1088 3959 
Q 888 3775 888 3528 
Q 888 3366 970 3203 
Q 1053 3041 1206 2894 
L 1719 2469 
z
M 1375 2016 
Q 1116 1797 991 1539 
Q 866 1281 866 981 
Q 866 578 1086 336 
Q 1306 94 1647 94 
Q 1984 94 2187 284 
Q 2391 475 2391 747 
Q 2391 972 2272 1150 
Q 2050 1481 1375 2016 
z
" id="TimesNewRomanPSMT-38" transform="scale(0.015625)"/>
      <path d="M 1794 4444 
L 259 -88 
L 9 -88 
L 1544 4444 
L 1794 4444 
z
" id="TimesNewRomanPSMT-2f" transform="scale(0.015625)"/>
     </defs>
     <use xlink:href="#TimesNewRomanPSMT-56"/>
     <use x="72.216797" xlink:href="#TimesNewRomanPSMT-73"/>
     <use x="111.132812" xlink:href="#TimesNewRomanPSMT-3a"/>
     <use x="138.916016" xlink:href="#TimesNewRomanPSMT-20"/>
     <use x="163.916016" xlink:href="#TimesNewRomanPSMT-32"/>
     <use x="213.916016" xlink:href="#TimesNewRomanPSMT-38"/>
     <use x="263.916016" xlink:href="#TimesNewRomanPSMT-31"/>
     <use x="313.916016" xlink:href="#TimesNewRomanPSMT-2e"/>
     <use x="338.916016" xlink:href="#TimesNewRomanPSMT-35"/>
     <use x="388.916016" xlink:href="#TimesNewRomanPSMT-35"/>
     <use x="438.916016" xlink:href="#TimesNewRomanPSMT-6d"/>
     <use x="516.699219" xlink:href="#TimesNewRomanPSMT-2f"/>
     <use x="544.482422" xlink:href="#TimesNewRomanPSMT-73"/>
    </g>
   </g>
  </g>
 </g>
 <defs>
  <clipPath id="p93726293a9">
   <rect height="332.64" width="334.8" x="63.336875" y="7.2"/>
  </clipPath>
 </defs>
</svg>
