<?xml version="1.0" encoding="utf-8" standalone="no"?>
<!DOCTYPE svg PUBLIC "-//W3C//DTD SVG 1.1//EN"
  "http://www.w3.org/Graphics/SVG/1.1/DTD/svg11.dtd">
<svg height="383.471875pt" version="1.1" viewBox="0 0 421.086875 383.471875" width="421.086875pt" xmlns="http://www.w3.org/2000/svg" xmlns:xlink="http://www.w3.org/1999/xlink">
 <metadata>
  <rdf:RDF xmlns:cc="http://creativecommons.org/ns#" xmlns:dc="http://purl.org/dc/elements/1.1/" xmlns:rdf="http://www.w3.org/1999/02/22-rdf-syntax-ns#">
   <cc:Work>
    <dc:type rdf:resource="http://purl.org/dc/dcmitype/StillImage"/>
    <dc:date>2021-06-11T14:39:36.909001</dc:date>
    <dc:format>image/svg+xml</dc:format>
    <dc:creator>
     <cc:Agent>
      <dc:title>Matplotlib v3.4.2, https://matplotlib.org/</dc:title>
     </cc:Agent>
    </dc:creator>
   </cc:Work>
  </rdf:RDF>
 </metadata>
 <defs>
  <style type="text/css">*{stroke-linecap:butt;stroke-linejoin:round;}</style>
 </defs>
 <g id="figure_1">
  <g id="patch_1">
   <path d="M 0 383.471875 
L 421.086875 383.471875 
L 421.086875 0 
L 0 0 
z
" style="fill:#ffffff;"/>
  </g>
  <g id="axes_1">
   <g id="patch_2">
    <path d="M 63.336875 339.84 
L 398.136875 339.84 
L 398.136875 7.2 
L 63.336875 7.2 
z
" style="fill:#ffffff;"/>
   </g>
   <g id="matplotlib.axis_1">
    <g id="xtick_1">
     <g id="line2d_1">
      <path clip-path="url(#p5a91362c93)" d="M 93.773239 339.84 
L 93.773239 7.2 
" style="fill:none;stroke:#000000;stroke-dasharray:0.5,0.825;stroke-dashoffset:0;stroke-width:0.5;"/>
     </g>
     <g id="line2d_2">
      <defs>
       <path d="M 0 0 
L 0 3.5 
" id="mf46f56c3a8" style="stroke:#000000;stroke-width:0.8;"/>
      </defs>
      <g>
       <use style="stroke:#000000;stroke-width:0.8;" x="93.773239" xlink:href="#mf46f56c3a8" y="339.84"/>
      </g>
     </g>
     <g id="text_1">
      <!-- 0.000 -->
      <g transform="translate(78.023239 356.56125)scale(0.14 -0.14)">
       <defs>
        <path d="M 231 2094 
Q 231 2819 450 3342 
Q 669 3866 1031 4122 
Q 1313 4325 1613 4325 
Q 2100 4325 2488 3828 
Q 2972 3213 2972 2159 
Q 2972 1422 2759 906 
Q 2547 391 2217 158 
Q 1888 -75 1581 -75 
Q 975 -75 572 641 
Q 231 1244 231 2094 
z
M 844 2016 
Q 844 1141 1059 588 
Q 1238 122 1591 122 
Q 1759 122 1940 273 
Q 2122 425 2216 781 
Q 2359 1319 2359 2297 
Q 2359 3022 2209 3506 
Q 2097 3866 1919 4016 
Q 1791 4119 1609 4119 
Q 1397 4119 1231 3928 
Q 1006 3669 925 3112 
Q 844 2556 844 2016 
z
" id="TimesNewRomanPSMT-30" transform="scale(0.015625)"/>
        <path d="M 800 606 
Q 947 606 1047 504 
Q 1147 403 1147 259 
Q 1147 116 1045 14 
Q 944 -88 800 -88 
Q 656 -88 554 14 
Q 453 116 453 259 
Q 453 406 554 506 
Q 656 606 800 606 
z
" id="TimesNewRomanPSMT-2e" transform="scale(0.015625)"/>
       </defs>
       <use xlink:href="#TimesNewRomanPSMT-30"/>
       <use x="50" xlink:href="#TimesNewRomanPSMT-2e"/>
       <use x="75" xlink:href="#TimesNewRomanPSMT-30"/>
       <use x="125" xlink:href="#TimesNewRomanPSMT-30"/>
       <use x="175" xlink:href="#TimesNewRomanPSMT-30"/>
      </g>
     </g>
    </g>
    <g id="xtick_2">
     <g id="line2d_3">
      <path clip-path="url(#p5a91362c93)" d="M 154.645966 339.84 
L 154.645966 7.2 
" style="fill:none;stroke:#000000;stroke-dasharray:0.5,0.825;stroke-dashoffset:0;stroke-width:0.5;"/>
     </g>
     <g id="line2d_4">
      <g>
       <use style="stroke:#000000;stroke-width:0.8;" x="154.645966" xlink:href="#mf46f56c3a8" y="339.84"/>
      </g>
     </g>
     <g id="text_2">
      <!-- 0.001 -->
      <g transform="translate(138.895966 356.56125)scale(0.14 -0.14)">
       <defs>
        <path d="M 750 3822 
L 1781 4325 
L 1884 4325 
L 1884 747 
Q 1884 391 1914 303 
Q 1944 216 2037 169 
Q 2131 122 2419 116 
L 2419 0 
L 825 0 
L 825 116 
Q 1125 122 1212 167 
Q 1300 213 1334 289 
Q 1369 366 1369 747 
L 1369 3034 
Q 1369 3497 1338 3628 
Q 1316 3728 1258 3775 
Q 1200 3822 1119 3822 
Q 1003 3822 797 3725 
L 750 3822 
z
" id="TimesNewRomanPSMT-31" transform="scale(0.015625)"/>
       </defs>
       <use xlink:href="#TimesNewRomanPSMT-30"/>
       <use x="50" xlink:href="#TimesNewRomanPSMT-2e"/>
       <use x="75" xlink:href="#TimesNewRomanPSMT-30"/>
       <use x="125" xlink:href="#TimesNewRomanPSMT-30"/>
       <use x="175" xlink:href="#TimesNewRomanPSMT-31"/>
      </g>
     </g>
    </g>
    <g id="xtick_3">
     <g id="line2d_5">
      <path clip-path="url(#p5a91362c93)" d="M 215.518693 339.84 
L 215.518693 7.2 
" style="fill:none;stroke:#000000;stroke-dasharray:0.5,0.825;stroke-dashoffset:0;stroke-width:0.5;"/>
     </g>
     <g id="line2d_6">
      <g>
       <use style="stroke:#000000;stroke-width:0.8;" x="215.518693" xlink:href="#mf46f56c3a8" y="339.84"/>
      </g>
     </g>
     <g id="text_3">
      <!-- 0.002 -->
      <g transform="translate(199.768693 356.56125)scale(0.14 -0.14)">
       <defs>
        <path d="M 2934 816 
L 2638 0 
L 138 0 
L 138 116 
Q 1241 1122 1691 1759 
Q 2141 2397 2141 2925 
Q 2141 3328 1894 3587 
Q 1647 3847 1303 3847 
Q 991 3847 742 3664 
Q 494 3481 375 3128 
L 259 3128 
Q 338 3706 661 4015 
Q 984 4325 1469 4325 
Q 1984 4325 2329 3994 
Q 2675 3663 2675 3213 
Q 2675 2891 2525 2569 
Q 2294 2063 1775 1497 
Q 997 647 803 472 
L 1909 472 
Q 2247 472 2383 497 
Q 2519 522 2628 598 
Q 2738 675 2819 816 
L 2934 816 
z
" id="TimesNewRomanPSMT-32" transform="scale(0.015625)"/>
       </defs>
       <use xlink:href="#TimesNewRomanPSMT-30"/>
       <use x="50" xlink:href="#TimesNewRomanPSMT-2e"/>
       <use x="75" xlink:href="#TimesNewRomanPSMT-30"/>
       <use x="125" xlink:href="#TimesNewRomanPSMT-30"/>
       <use x="175" xlink:href="#TimesNewRomanPSMT-32"/>
      </g>
     </g>
    </g>
    <g id="xtick_4">
     <g id="line2d_7">
      <path clip-path="url(#p5a91362c93)" d="M 276.39142 339.84 
L 276.39142 7.2 
" style="fill:none;stroke:#000000;stroke-dasharray:0.5,0.825;stroke-dashoffset:0;stroke-width:0.5;"/>
     </g>
     <g id="line2d_8">
      <g>
       <use style="stroke:#000000;stroke-width:0.8;" x="276.39142" xlink:href="#mf46f56c3a8" y="339.84"/>
      </g>
     </g>
     <g id="text_4">
      <!-- 0.003 -->
      <g transform="translate(260.64142 356.56125)scale(0.14 -0.14)">
       <defs>
        <path d="M 325 3431 
Q 506 3859 782 4092 
Q 1059 4325 1472 4325 
Q 1981 4325 2253 3994 
Q 2459 3747 2459 3466 
Q 2459 3003 1878 2509 
Q 2269 2356 2469 2072 
Q 2669 1788 2669 1403 
Q 2669 853 2319 450 
Q 1863 -75 997 -75 
Q 569 -75 414 31 
Q 259 138 259 259 
Q 259 350 332 419 
Q 406 488 509 488 
Q 588 488 669 463 
Q 722 447 909 348 
Q 1097 250 1169 231 
Q 1284 197 1416 197 
Q 1734 197 1970 444 
Q 2206 691 2206 1028 
Q 2206 1275 2097 1509 
Q 2016 1684 1919 1775 
Q 1784 1900 1550 2001 
Q 1316 2103 1072 2103 
L 972 2103 
L 972 2197 
Q 1219 2228 1467 2375 
Q 1716 2522 1828 2728 
Q 1941 2934 1941 3181 
Q 1941 3503 1739 3701 
Q 1538 3900 1238 3900 
Q 753 3900 428 3381 
L 325 3431 
z
" id="TimesNewRomanPSMT-33" transform="scale(0.015625)"/>
       </defs>
       <use xlink:href="#TimesNewRomanPSMT-30"/>
       <use x="50" xlink:href="#TimesNewRomanPSMT-2e"/>
       <use x="75" xlink:href="#TimesNewRomanPSMT-30"/>
       <use x="125" xlink:href="#TimesNewRomanPSMT-30"/>
       <use x="175" xlink:href="#TimesNewRomanPSMT-33"/>
      </g>
     </g>
    </g>
    <g id="xtick_5">
     <g id="line2d_9">
      <path clip-path="url(#p5a91362c93)" d="M 337.264148 339.84 
L 337.264148 7.2 
" style="fill:none;stroke:#000000;stroke-dasharray:0.5,0.825;stroke-dashoffset:0;stroke-width:0.5;"/>
     </g>
     <g id="line2d_10">
      <g>
       <use style="stroke:#000000;stroke-width:0.8;" x="337.264148" xlink:href="#mf46f56c3a8" y="339.84"/>
      </g>
     </g>
     <g id="text_5">
      <!-- 0.004 -->
      <g transform="translate(321.514148 356.56125)scale(0.14 -0.14)">
       <defs>
        <path d="M 2978 1563 
L 2978 1119 
L 2409 1119 
L 2409 0 
L 1894 0 
L 1894 1119 
L 100 1119 
L 100 1519 
L 2066 4325 
L 2409 4325 
L 2409 1563 
L 2978 1563 
z
M 1894 1563 
L 1894 3666 
L 406 1563 
L 1894 1563 
z
" id="TimesNewRomanPSMT-34" transform="scale(0.015625)"/>
       </defs>
       <use xlink:href="#TimesNewRomanPSMT-30"/>
       <use x="50" xlink:href="#TimesNewRomanPSMT-2e"/>
       <use x="75" xlink:href="#TimesNewRomanPSMT-30"/>
       <use x="125" xlink:href="#TimesNewRomanPSMT-30"/>
       <use x="175" xlink:href="#TimesNewRomanPSMT-34"/>
      </g>
     </g>
    </g>
    <g id="xtick_6">
     <g id="line2d_11">
      <path clip-path="url(#p5a91362c93)" d="M 398.136875 339.84 
L 398.136875 7.2 
" style="fill:none;stroke:#000000;stroke-dasharray:0.5,0.825;stroke-dashoffset:0;stroke-width:0.5;"/>
     </g>
     <g id="line2d_12">
      <g>
       <use style="stroke:#000000;stroke-width:0.8;" x="398.136875" xlink:href="#mf46f56c3a8" y="339.84"/>
      </g>
     </g>
     <g id="text_6">
      <!-- 0.005 -->
      <g transform="translate(382.386875 356.56125)scale(0.14 -0.14)">
       <defs>
        <path d="M 2778 4238 
L 2534 3706 
L 1259 3706 
L 981 3138 
Q 1809 3016 2294 2522 
Q 2709 2097 2709 1522 
Q 2709 1188 2573 903 
Q 2438 619 2231 419 
Q 2025 219 1772 97 
Q 1413 -75 1034 -75 
Q 653 -75 479 54 
Q 306 184 306 341 
Q 306 428 378 495 
Q 450 563 559 563 
Q 641 563 702 538 
Q 763 513 909 409 
Q 1144 247 1384 247 
Q 1750 247 2026 523 
Q 2303 800 2303 1197 
Q 2303 1581 2056 1914 
Q 1809 2247 1375 2428 
Q 1034 2569 447 2591 
L 1259 4238 
L 2778 4238 
z
" id="TimesNewRomanPSMT-35" transform="scale(0.015625)"/>
       </defs>
       <use xlink:href="#TimesNewRomanPSMT-30"/>
       <use x="50" xlink:href="#TimesNewRomanPSMT-2e"/>
       <use x="75" xlink:href="#TimesNewRomanPSMT-30"/>
       <use x="125" xlink:href="#TimesNewRomanPSMT-30"/>
       <use x="175" xlink:href="#TimesNewRomanPSMT-35"/>
      </g>
     </g>
    </g>
    <g id="text_7">
     <!-- Time (sec) -->
     <g transform="translate(200.858906 373.277188)scale(0.14 -0.14)">
      <defs>
       <path d="M 3703 4238 
L 3750 3244 
L 3631 3244 
Q 3597 3506 3538 3619 
Q 3441 3800 3280 3886 
Q 3119 3972 2856 3972 
L 2259 3972 
L 2259 734 
Q 2259 344 2344 247 
Q 2463 116 2709 116 
L 2856 116 
L 2856 0 
L 1059 0 
L 1059 116 
L 1209 116 
Q 1478 116 1591 278 
Q 1659 378 1659 734 
L 1659 3972 
L 1150 3972 
Q 853 3972 728 3928 
Q 566 3869 450 3700 
Q 334 3531 313 3244 
L 194 3244 
L 244 4238 
L 3703 4238 
z
" id="TimesNewRomanPSMT-54" transform="scale(0.015625)"/>
       <path d="M 928 4444 
Q 1059 4444 1151 4351 
Q 1244 4259 1244 4128 
Q 1244 3997 1151 3903 
Q 1059 3809 928 3809 
Q 797 3809 703 3903 
Q 609 3997 609 4128 
Q 609 4259 701 4351 
Q 794 4444 928 4444 
z
M 1188 2947 
L 1188 647 
Q 1188 378 1227 289 
Q 1266 200 1342 156 
Q 1419 113 1622 113 
L 1622 0 
L 231 0 
L 231 113 
Q 441 113 512 153 
Q 584 194 626 287 
Q 669 381 669 647 
L 669 1750 
Q 669 2216 641 2353 
Q 619 2453 572 2492 
Q 525 2531 444 2531 
Q 356 2531 231 2484 
L 188 2597 
L 1050 2947 
L 1188 2947 
z
" id="TimesNewRomanPSMT-69" transform="scale(0.015625)"/>
       <path d="M 1050 2338 
Q 1363 2650 1419 2697 
Q 1559 2816 1721 2881 
Q 1884 2947 2044 2947 
Q 2313 2947 2506 2790 
Q 2700 2634 2766 2338 
Q 3088 2713 3309 2830 
Q 3531 2947 3766 2947 
Q 3994 2947 4170 2830 
Q 4347 2713 4450 2447 
Q 4519 2266 4519 1878 
L 4519 647 
Q 4519 378 4559 278 
Q 4591 209 4675 161 
Q 4759 113 4950 113 
L 4950 0 
L 3538 0 
L 3538 113 
L 3597 113 
Q 3781 113 3884 184 
Q 3956 234 3988 344 
Q 4000 397 4000 647 
L 4000 1878 
Q 4000 2228 3916 2372 
Q 3794 2572 3525 2572 
Q 3359 2572 3192 2489 
Q 3025 2406 2788 2181 
L 2781 2147 
L 2788 2013 
L 2788 647 
Q 2788 353 2820 281 
Q 2853 209 2943 161 
Q 3034 113 3253 113 
L 3253 0 
L 1806 0 
L 1806 113 
Q 2044 113 2133 169 
Q 2222 225 2256 338 
Q 2272 391 2272 647 
L 2272 1878 
Q 2272 2228 2169 2381 
Q 2031 2581 1784 2581 
Q 1616 2581 1450 2491 
Q 1191 2353 1050 2181 
L 1050 647 
Q 1050 366 1089 281 
Q 1128 197 1204 155 
Q 1281 113 1516 113 
L 1516 0 
L 100 0 
L 100 113 
Q 297 113 375 155 
Q 453 197 493 289 
Q 534 381 534 647 
L 534 1741 
Q 534 2213 506 2350 
Q 484 2453 437 2492 
Q 391 2531 309 2531 
Q 222 2531 100 2484 
L 53 2597 
L 916 2947 
L 1050 2947 
L 1050 2338 
z
" id="TimesNewRomanPSMT-6d" transform="scale(0.015625)"/>
       <path d="M 681 1784 
Q 678 1147 991 784 
Q 1303 422 1725 422 
Q 2006 422 2214 576 
Q 2422 731 2563 1106 
L 2659 1044 
Q 2594 616 2278 264 
Q 1963 -88 1488 -88 
Q 972 -88 605 314 
Q 238 716 238 1394 
Q 238 2128 614 2539 
Q 991 2950 1559 2950 
Q 2041 2950 2350 2633 
Q 2659 2316 2659 1784 
L 681 1784 
z
M 681 1966 
L 2006 1966 
Q 1991 2241 1941 2353 
Q 1863 2528 1708 2628 
Q 1553 2728 1384 2728 
Q 1125 2728 920 2526 
Q 716 2325 681 1966 
z
" id="TimesNewRomanPSMT-65" transform="scale(0.015625)"/>
       <path id="TimesNewRomanPSMT-20" transform="scale(0.015625)"/>
       <path d="M 1988 -1253 
L 1988 -1369 
Q 1516 -1131 1200 -813 
Q 750 -359 506 256 
Q 263 872 263 1534 
Q 263 2503 741 3301 
Q 1219 4100 1988 4444 
L 1988 4313 
Q 1603 4100 1356 3731 
Q 1109 3363 987 2797 
Q 866 2231 866 1616 
Q 866 947 969 400 
Q 1050 -31 1165 -292 
Q 1281 -553 1476 -793 
Q 1672 -1034 1988 -1253 
z
" id="TimesNewRomanPSMT-28" transform="scale(0.015625)"/>
       <path d="M 2050 2947 
L 2050 1972 
L 1947 1972 
Q 1828 2431 1642 2597 
Q 1456 2763 1169 2763 
Q 950 2763 815 2647 
Q 681 2531 681 2391 
Q 681 2216 781 2091 
Q 878 1963 1175 1819 
L 1631 1597 
Q 2266 1288 2266 781 
Q 2266 391 1970 151 
Q 1675 -88 1309 -88 
Q 1047 -88 709 6 
Q 606 38 541 38 
Q 469 38 428 -44 
L 325 -44 
L 325 978 
L 428 978 
Q 516 541 762 319 
Q 1009 97 1316 97 
Q 1531 97 1667 223 
Q 1803 350 1803 528 
Q 1803 744 1651 891 
Q 1500 1038 1047 1263 
Q 594 1488 453 1669 
Q 313 1847 313 2119 
Q 313 2472 555 2709 
Q 797 2947 1181 2947 
Q 1350 2947 1591 2875 
Q 1750 2828 1803 2828 
Q 1853 2828 1881 2850 
Q 1909 2872 1947 2947 
L 2050 2947 
z
" id="TimesNewRomanPSMT-73" transform="scale(0.015625)"/>
       <path d="M 2631 1088 
Q 2516 522 2178 217 
Q 1841 -88 1431 -88 
Q 944 -88 581 321 
Q 219 731 219 1428 
Q 219 2103 620 2525 
Q 1022 2947 1584 2947 
Q 2006 2947 2278 2723 
Q 2550 2500 2550 2259 
Q 2550 2141 2473 2067 
Q 2397 1994 2259 1994 
Q 2075 1994 1981 2113 
Q 1928 2178 1911 2362 
Q 1894 2547 1784 2644 
Q 1675 2738 1481 2738 
Q 1169 2738 978 2506 
Q 725 2200 725 1697 
Q 725 1184 976 792 
Q 1228 400 1656 400 
Q 1963 400 2206 609 
Q 2378 753 2541 1131 
L 2631 1088 
z
" id="TimesNewRomanPSMT-63" transform="scale(0.015625)"/>
       <path d="M 144 4313 
L 144 4444 
Q 619 4209 934 3891 
Q 1381 3434 1625 2820 
Q 1869 2206 1869 1541 
Q 1869 572 1392 -226 
Q 916 -1025 144 -1369 
L 144 -1253 
Q 528 -1038 776 -670 
Q 1025 -303 1145 264 
Q 1266 831 1266 1447 
Q 1266 2113 1163 2663 
Q 1084 3094 967 3353 
Q 850 3613 656 3853 
Q 463 4094 144 4313 
z
" id="TimesNewRomanPSMT-29" transform="scale(0.015625)"/>
      </defs>
      <use xlink:href="#TimesNewRomanPSMT-54"/>
      <use x="57.583984" xlink:href="#TimesNewRomanPSMT-69"/>
      <use x="85.367188" xlink:href="#TimesNewRomanPSMT-6d"/>
      <use x="163.150391" xlink:href="#TimesNewRomanPSMT-65"/>
      <use x="207.535156" xlink:href="#TimesNewRomanPSMT-20"/>
      <use x="232.535156" xlink:href="#TimesNewRomanPSMT-28"/>
      <use x="265.835938" xlink:href="#TimesNewRomanPSMT-73"/>
      <use x="304.751953" xlink:href="#TimesNewRomanPSMT-65"/>
      <use x="349.136719" xlink:href="#TimesNewRomanPSMT-63"/>
      <use x="393.521484" xlink:href="#TimesNewRomanPSMT-29"/>
     </g>
    </g>
   </g>
   <g id="matplotlib.axis_2">
    <g id="ytick_1">
     <g id="line2d_13">
      <path clip-path="url(#p5a91362c93)" d="M 63.336875 282.375025 
L 398.136875 282.375025 
" style="fill:none;stroke:#000000;stroke-dasharray:0.5,0.825;stroke-dashoffset:0;stroke-width:0.5;"/>
     </g>
     <g id="line2d_14">
      <defs>
       <path d="M 0 0 
L -3.5 0 
" id="mf975946ee0" style="stroke:#000000;stroke-width:0.8;"/>
      </defs>
      <g>
       <use style="stroke:#000000;stroke-width:0.8;" x="63.336875" xlink:href="#mf975946ee0" y="282.375025"/>
      </g>
     </g>
     <g id="text_8">
      <!-- −0.04 -->
      <g transform="translate(23.942188 287.23565)scale(0.14 -0.14)">
       <defs>
        <path d="M 3484 2000 
L 116 2000 
L 116 2256 
L 3484 2256 
L 3484 2000 
z
" id="TimesNewRomanPSMT-2212" transform="scale(0.015625)"/>
       </defs>
       <use xlink:href="#TimesNewRomanPSMT-2212"/>
       <use x="56.396484" xlink:href="#TimesNewRomanPSMT-30"/>
       <use x="106.396484" xlink:href="#TimesNewRomanPSMT-2e"/>
       <use x="131.396484" xlink:href="#TimesNewRomanPSMT-30"/>
       <use x="181.396484" xlink:href="#TimesNewRomanPSMT-34"/>
      </g>
     </g>
    </g>
    <g id="ytick_2">
     <g id="line2d_15">
      <path clip-path="url(#p5a91362c93)" d="M 63.336875 218.247789 
L 398.136875 218.247789 
" style="fill:none;stroke:#000000;stroke-dasharray:0.5,0.825;stroke-dashoffset:0;stroke-width:0.5;"/>
     </g>
     <g id="line2d_16">
      <g>
       <use style="stroke:#000000;stroke-width:0.8;" x="63.336875" xlink:href="#mf975946ee0" y="218.247789"/>
      </g>
     </g>
     <g id="text_9">
      <!-- −0.02 -->
      <g transform="translate(23.942188 223.108414)scale(0.14 -0.14)">
       <use xlink:href="#TimesNewRomanPSMT-2212"/>
       <use x="56.396484" xlink:href="#TimesNewRomanPSMT-30"/>
       <use x="106.396484" xlink:href="#TimesNewRomanPSMT-2e"/>
       <use x="131.396484" xlink:href="#TimesNewRomanPSMT-30"/>
       <use x="181.396484" xlink:href="#TimesNewRomanPSMT-32"/>
      </g>
     </g>
    </g>
    <g id="ytick_3">
     <g id="line2d_17">
      <path clip-path="url(#p5a91362c93)" d="M 63.336875 154.120552 
L 398.136875 154.120552 
" style="fill:none;stroke:#000000;stroke-dasharray:0.5,0.825;stroke-dashoffset:0;stroke-width:0.5;"/>
     </g>
     <g id="line2d_18">
      <g>
       <use style="stroke:#000000;stroke-width:0.8;" x="63.336875" xlink:href="#mf975946ee0" y="154.120552"/>
      </g>
     </g>
     <g id="text_10">
      <!-- 0.00 -->
      <g transform="translate(31.836875 158.981177)scale(0.14 -0.14)">
       <use xlink:href="#TimesNewRomanPSMT-30"/>
       <use x="50" xlink:href="#TimesNewRomanPSMT-2e"/>
       <use x="75" xlink:href="#TimesNewRomanPSMT-30"/>
       <use x="125" xlink:href="#TimesNewRomanPSMT-30"/>
      </g>
     </g>
    </g>
    <g id="ytick_4">
     <g id="line2d_19">
      <path clip-path="url(#p5a91362c93)" d="M 63.336875 89.993316 
L 398.136875 89.993316 
" style="fill:none;stroke:#000000;stroke-dasharray:0.5,0.825;stroke-dashoffset:0;stroke-width:0.5;"/>
     </g>
     <g id="line2d_20">
      <g>
       <use style="stroke:#000000;stroke-width:0.8;" x="63.336875" xlink:href="#mf975946ee0" y="89.993316"/>
      </g>
     </g>
     <g id="text_11">
      <!-- 0.02 -->
      <g transform="translate(31.836875 94.853941)scale(0.14 -0.14)">
       <use xlink:href="#TimesNewRomanPSMT-30"/>
       <use x="50" xlink:href="#TimesNewRomanPSMT-2e"/>
       <use x="75" xlink:href="#TimesNewRomanPSMT-30"/>
       <use x="125" xlink:href="#TimesNewRomanPSMT-32"/>
      </g>
     </g>
    </g>
    <g id="ytick_5">
     <g id="line2d_21">
      <path clip-path="url(#p5a91362c93)" d="M 63.336875 25.866079 
L 398.136875 25.866079 
" style="fill:none;stroke:#000000;stroke-dasharray:0.5,0.825;stroke-dashoffset:0;stroke-width:0.5;"/>
     </g>
     <g id="line2d_22">
      <g>
       <use style="stroke:#000000;stroke-width:0.8;" x="63.336875" xlink:href="#mf975946ee0" y="25.866079"/>
      </g>
     </g>
     <g id="text_12">
      <!-- 0.04 -->
      <g transform="translate(31.836875 30.726704)scale(0.14 -0.14)">
       <use xlink:href="#TimesNewRomanPSMT-30"/>
       <use x="50" xlink:href="#TimesNewRomanPSMT-2e"/>
       <use x="75" xlink:href="#TimesNewRomanPSMT-30"/>
       <use x="125" xlink:href="#TimesNewRomanPSMT-34"/>
      </g>
     </g>
    </g>
    <g id="text_13">
     <!-- Volatage (V) -->
     <g transform="translate(16.92125 209.352344)rotate(-90)scale(0.14 -0.14)">
      <defs>
       <path d="M 4544 4238 
L 4544 4122 
Q 4319 4081 4203 3978 
Q 4038 3825 3909 3509 
L 2431 -97 
L 2316 -97 
L 728 3556 
Q 606 3838 556 3900 
Q 478 3997 364 4051 
Q 250 4106 56 4122 
L 56 4238 
L 1788 4238 
L 1788 4122 
Q 1494 4094 1406 4022 
Q 1319 3950 1319 3838 
Q 1319 3681 1463 3350 
L 2541 866 
L 3541 3319 
Q 3688 3681 3688 3822 
Q 3688 3913 3597 3995 
Q 3506 4078 3291 4113 
Q 3275 4116 3238 4122 
L 3238 4238 
L 4544 4238 
z
" id="TimesNewRomanPSMT-56" transform="scale(0.015625)"/>
       <path d="M 1600 2947 
Q 2250 2947 2644 2453 
Q 2978 2031 2978 1484 
Q 2978 1100 2793 706 
Q 2609 313 2286 112 
Q 1963 -88 1566 -88 
Q 919 -88 538 428 
Q 216 863 216 1403 
Q 216 1797 411 2186 
Q 606 2575 925 2761 
Q 1244 2947 1600 2947 
z
M 1503 2744 
Q 1338 2744 1170 2645 
Q 1003 2547 900 2300 
Q 797 2053 797 1666 
Q 797 1041 1045 587 
Q 1294 134 1700 134 
Q 2003 134 2200 384 
Q 2397 634 2397 1244 
Q 2397 2006 2069 2444 
Q 1847 2744 1503 2744 
z
" id="TimesNewRomanPSMT-6f" transform="scale(0.015625)"/>
       <path d="M 1184 4444 
L 1184 647 
Q 1184 378 1223 290 
Q 1263 203 1344 158 
Q 1425 113 1647 113 
L 1647 0 
L 244 0 
L 244 113 
Q 441 113 512 153 
Q 584 194 625 287 
Q 666 381 666 647 
L 666 3247 
Q 666 3731 644 3842 
Q 622 3953 573 3993 
Q 525 4034 450 4034 
Q 369 4034 244 3984 
L 191 4094 
L 1044 4444 
L 1184 4444 
z
" id="TimesNewRomanPSMT-6c" transform="scale(0.015625)"/>
       <path d="M 1822 413 
Q 1381 72 1269 19 
Q 1100 -59 909 -59 
Q 613 -59 420 144 
Q 228 347 228 678 
Q 228 888 322 1041 
Q 450 1253 767 1440 
Q 1084 1628 1822 1897 
L 1822 2009 
Q 1822 2438 1686 2597 
Q 1550 2756 1291 2756 
Q 1094 2756 978 2650 
Q 859 2544 859 2406 
L 866 2225 
Q 866 2081 792 2003 
Q 719 1925 600 1925 
Q 484 1925 411 2006 
Q 338 2088 338 2228 
Q 338 2497 613 2722 
Q 888 2947 1384 2947 
Q 1766 2947 2009 2819 
Q 2194 2722 2281 2516 
Q 2338 2381 2338 1966 
L 2338 994 
Q 2338 584 2353 492 
Q 2369 400 2405 369 
Q 2441 338 2488 338 
Q 2538 338 2575 359 
Q 2641 400 2828 588 
L 2828 413 
Q 2478 -56 2159 -56 
Q 2006 -56 1915 50 
Q 1825 156 1822 413 
z
M 1822 616 
L 1822 1706 
Q 1350 1519 1213 1441 
Q 966 1303 859 1153 
Q 753 1003 753 825 
Q 753 600 887 451 
Q 1022 303 1197 303 
Q 1434 303 1822 616 
z
" id="TimesNewRomanPSMT-61" transform="scale(0.015625)"/>
       <path d="M 1031 3803 
L 1031 2863 
L 1700 2863 
L 1700 2644 
L 1031 2644 
L 1031 788 
Q 1031 509 1111 412 
Q 1191 316 1316 316 
Q 1419 316 1516 380 
Q 1613 444 1666 569 
L 1788 569 
Q 1678 263 1478 108 
Q 1278 -47 1066 -47 
Q 922 -47 784 33 
Q 647 113 581 261 
Q 516 409 516 719 
L 516 2644 
L 63 2644 
L 63 2747 
Q 234 2816 414 2980 
Q 594 3144 734 3369 
Q 806 3488 934 3803 
L 1031 3803 
z
" id="TimesNewRomanPSMT-74" transform="scale(0.015625)"/>
       <path d="M 966 1044 
Q 703 1172 562 1401 
Q 422 1631 422 1909 
Q 422 2334 742 2640 
Q 1063 2947 1563 2947 
Q 1972 2947 2272 2747 
L 2878 2747 
Q 3013 2747 3034 2739 
Q 3056 2731 3066 2713 
Q 3084 2684 3084 2613 
Q 3084 2531 3069 2500 
Q 3059 2484 3036 2475 
Q 3013 2466 2878 2466 
L 2506 2466 
Q 2681 2241 2681 1891 
Q 2681 1491 2375 1206 
Q 2069 922 1553 922 
Q 1341 922 1119 984 
Q 981 866 932 777 
Q 884 688 884 625 
Q 884 572 936 522 
Q 988 472 1138 450 
Q 1225 438 1575 428 
Q 2219 413 2409 384 
Q 2700 344 2873 169 
Q 3047 -6 3047 -263 
Q 3047 -616 2716 -925 
Q 2228 -1381 1444 -1381 
Q 841 -1381 425 -1109 
Q 191 -953 191 -784 
Q 191 -709 225 -634 
Q 278 -519 444 -313 
Q 466 -284 763 25 
Q 600 122 533 198 
Q 466 275 466 372 
Q 466 481 555 628 
Q 644 775 966 1044 
z
M 1509 2797 
Q 1278 2797 1122 2612 
Q 966 2428 966 2047 
Q 966 1553 1178 1281 
Q 1341 1075 1591 1075 
Q 1828 1075 1981 1253 
Q 2134 1431 2134 1813 
Q 2134 2309 1919 2591 
Q 1759 2797 1509 2797 
z
M 934 0 
Q 788 -159 713 -296 
Q 638 -434 638 -550 
Q 638 -700 819 -813 
Q 1131 -1006 1722 -1006 
Q 2284 -1006 2551 -807 
Q 2819 -609 2819 -384 
Q 2819 -222 2659 -153 
Q 2497 -84 2016 -72 
Q 1313 -53 934 0 
z
" id="TimesNewRomanPSMT-67" transform="scale(0.015625)"/>
      </defs>
      <use xlink:href="#TimesNewRomanPSMT-56"/>
      <use x="59.341797" xlink:href="#TimesNewRomanPSMT-6f"/>
      <use x="109.341797" xlink:href="#TimesNewRomanPSMT-6c"/>
      <use x="137.125" xlink:href="#TimesNewRomanPSMT-61"/>
      <use x="181.509766" xlink:href="#TimesNewRomanPSMT-74"/>
      <use x="209.292969" xlink:href="#TimesNewRomanPSMT-61"/>
      <use x="253.677734" xlink:href="#TimesNewRomanPSMT-67"/>
      <use x="303.677734" xlink:href="#TimesNewRomanPSMT-65"/>
      <use x="348.0625" xlink:href="#TimesNewRomanPSMT-20"/>
      <use x="373.0625" xlink:href="#TimesNewRomanPSMT-28"/>
      <use x="406.363281" xlink:href="#TimesNewRomanPSMT-56"/>
      <use x="478.580078" xlink:href="#TimesNewRomanPSMT-29"/>
     </g>
    </g>
   </g>
   <g id="LineCollection_1">
    <path clip-path="url(#p5a91362c93)" d="M 78.555057 154.120552 
L 382.918693 154.120552 
" style="fill:none;stroke:#1f77b4;stroke-width:1.5;"/>
   </g>
   <g id="line2d_23">
    <path clip-path="url(#p5a91362c93)" d="M 78.555057 154.101474 
L 78.707239 154.061395 
L 80.168184 154.141554 
L 80.28993 154.141554 
L 91.67313 154.061395 
L 91.794875 154.061395 
L 91.825311 154.141554 
L 91.91662 154.101474 
L 92.038366 154.061395 
L 92.129675 154.141554 
L 92.160111 154.101474 
L 92.25142 154.061395 
L 92.281857 154.141554 
L 92.373166 154.101474 
L 92.494911 154.101474 
L 96.451639 154.021315 
L 96.542948 153.981236 
L 96.573384 154.021315 
L 108.230511 153.941156 
L 108.352257 153.941156 
L 108.474002 153.981236 
L 108.626184 153.941156 
L 110.848039 154.021315 
L 111.00022 154.061395 
L 111.030657 153.981236 
L 111.09153 154.061395 
L 112.00462 154.141554 
L 112.09593 154.181633 
L 112.126366 154.141554 
L 112.248111 154.141554 
L 112.400293 154.181633 
L 113.039457 154.261792 
L 113.191639 154.341952 
L 113.34382 154.261792 
L 113.465566 154.382031 
L 113.617748 154.341952 
L 113.648184 154.422111 
L 113.739493 154.382031 
L 113.861239 154.46219 
L 113.891675 154.382031 
L 113.952548 154.422111 
L 114.135166 154.50227 
L 114.165602 154.422111 
L 114.226475 154.50227 
L 114.652584 154.582429 
L 114.835202 154.662588 
L 115.078693 154.742747 
L 115.230875 154.782826 
L 115.748293 154.862985 
L 115.961348 154.983224 
L 116.661384 155.063383 
L 116.813566 155.103462 
L 117.209239 155.143542 
L 117.330984 155.223701 
L 117.848402 155.263781 
L 117.909275 155.384019 
L 117.970148 155.30386 
L 118.152766 155.384019 
L 118.396257 155.464178 
L 118.578875 155.544337 
L 118.79193 155.624496 
L 118.974548 155.704655 
L 119.065857 155.704655 
L 119.248475 155.784814 
L 119.431093 155.864973 
L 119.644148 155.985212 
L 119.826766 156.065371 
L 120.03982 156.18561 
L 120.222439 156.265769 
L 120.526802 156.506246 
L 120.557239 156.466166 
L 120.587675 156.546325 
L 120.892039 156.786802 
L 120.983348 156.866961 
L 121.196402 157.147518 
L 121.318148 157.227677 
L 121.987748 158.229665 
L 122.200802 158.63046 
L 122.748657 159.792767 
L 122.900839 160.153482 
L 123.235639 161.035232 
L 123.357384 161.315788 
L 123.753057 162.438015 
L 123.844366 162.718572 
L 124.513966 164.963025 
L 124.605275 165.243582 
L 124.848766 166.125332 
L 125.274875 167.808671 
L 125.48793 168.650341 
L 126.005348 170.854715 
L 126.187966 171.616227 
L 127.344548 177.1472 
L 127.801093 179.391653 
L 128.83593 184.281355 
L 131.270839 193.459566 
L 131.392584 193.780202 
L 132.001311 195.102826 
L 132.42742 195.543701 
L 132.549166 195.543701 
L 132.731784 195.62386 
L 132.85353 195.583781 
L 132.975275 195.583781 
L 133.127457 195.503621 
L 133.310075 195.263144 
L 133.340511 195.303224 
L 133.370948 195.223065 
L 133.76662 194.541713 
L 134.010111 193.9806 
L 134.040548 193.9806 
L 134.223166 193.539725 
L 134.375348 193.219089 
L 134.77102 192.096862 
L 134.892766 191.776226 
L 136.231966 186.044854 
L 136.749384 182.758335 
L 137.297239 178.670223 
L 137.510293 176.986883 
L 137.936402 173.459885 
L 139.732148 155.945132 
L 141.253966 136.626802 
L 142.684475 116.346564 
L 146.732511 59.273323 
L 148.436948 40.355792 
L 149.045675 35.065288 
L 150.110948 27.490255 
L 150.84142 24.163664 
L 151.450148 22.800964 
L 151.51102 22.720802 
L 151.815384 22.480321 
L 151.998002 22.400159 
L 152.028439 22.32 
L 152.119748 22.360086 
L 152.424111 22.440245 
L 153.124148 23.522395 
L 153.61113 25.085493 
L 154.737275 31.578376 
L 155.680802 39.914917 
L 156.837384 53.261388 
L 157.53742 62.800321 
L 159.028802 88.0905 
L 160.459311 116.506882 
L 162.55942 163.079288 
L 165.420439 228.328754 
L 167.459675 268.96939 
L 169.103239 295.261547 
L 170.107639 307.08501 
L 171.477275 318.708078 
L 172.420802 323.116816 
L 172.816475 324.239049 
L 173.242584 324.72 
L 173.27302 324.679927 
L 173.668693 324.279125 
L 173.69913 324.319211 
L 173.729566 324.239049 
L 174.216548 323.437458 
L 175.768802 316.864414 
L 176.651457 310.37154 
L 178.690693 290.572253 
L 179.238548 283.638492 
L 180.242948 270.492415 
L 182.98222 229.2105 
L 185.782366 183.07897 
L 186.543275 171.616227 
L 189.830402 125.604935 
L 193.208839 86.807955 
L 194.426293 76.58768 
L 197.013384 57.02887 
L 198.017784 51.097094 
L 198.200402 50.375676 
L 198.839566 47.570096 
L 199.661348 44.76453 
L 199.935275 43.842704 
L 200.209202 42.720484 
L 200.270075 42.560162 
L 200.48313 41.91889 
L 200.696184 41.478015 
L 201.06142 40.79667 
L 201.274475 40.355792 
L 201.639711 39.674433 
L 201.73102 39.594274 
L 201.852766 39.514115 
L 202.004948 39.554201 
L 202.82673 39.474039 
L 202.978911 39.433966 
L 203.131093 39.514115 
L 203.49633 39.834755 
L 203.587639 39.874831 
L 203.73982 39.995076 
L 203.892002 40.075235 
L 203.952875 40.035149 
L 203.983311 40.075235 
L 204.16593 40.155384 
L 204.318111 40.235547 
L 204.470293 40.435954 
L 204.683348 40.836743 
L 204.926839 41.397853 
L 205.231202 41.958963 
L 205.535566 42.520086 
L 205.566002 42.520086 
L 205.961675 43.642309 
L 206.08342 43.962952 
L 206.448657 45.005013 
L 206.692148 45.485961 
L 207.635675 48.251454 
L 208.061784 49.493923 
L 208.396584 50.656229 
L 209.827093 56.748313 
L 210.314075 59.233244 
L 211.257602 63.401514 
L 212.992475 73.100762 
L 213.692511 77.74998 
L 214.331675 82.639688 
L 214.849093 86.928191 
L 215.183893 89.853999 
L 217.436184 112.45885 
L 217.831857 116.466802 
L 218.56233 124.723185 
L 219.171057 131.296227 
L 222.458184 171.536066 
L 227.84542 241.033963 
L 229.397675 258.188002 
L 230.94993 271.534476 
L 232.106511 278.548396 
L 232.136948 278.548396 
L 232.380439 279.630543 
L 233.658766 284.239692 
L 233.902257 284.680553 
L 233.932693 284.64048 
L 233.96313 284.760716 
L 234.54142 285.401985 
L 235.789311 283.598406 
L 236.854584 278.949188 
L 237.402439 275.502349 
L 239.167748 260.672926 
L 240.263457 249.610974 
L 242.363566 223.519208 
L 243.154911 212.657657 
L 244.402802 196.665928 
L 245.102839 187.3274 
L 250.246584 114.382667 
L 252.194511 95.024254 
L 252.742366 90.976226 
L 253.990257 83.481355 
L 255.786002 76.828154 
L 256.577348 75.024576 
L 257.06433 74.543625 
L 257.094766 74.623777 
L 257.155639 74.543625 
L 257.368693 74.383303 
L 257.39913 74.463462 
L 257.460002 74.343224 
L 257.551311 74.343224 
L 257.673057 74.303144 
L 257.764366 74.423383 
L 257.794802 74.383303 
L 257.946984 74.463462 
L 258.281784 74.744019 
L 258.555711 74.824181 
L 258.677457 74.824181 
L 258.98182 74.904334 
L 259.103566 75.024576 
L 259.225311 75.064655 
L 259.40793 75.26505 
L 259.74273 75.545613 
L 259.773166 75.50553 
L 259.834039 75.585692 
L 259.98622 75.665845 
L 260.260148 75.946408 
L 260.290584 75.866246 
L 260.32102 75.946408 
L 260.594948 76.387276 
L 260.65582 76.427359 
L 260.960184 76.948396 
L 261.32542 77.589665 
L 262.573311 81.156743 
L 262.99942 82.880162 
L 263.060293 83.080557 
L 263.608148 85.405175 
L 264.216875 88.170659 
L 264.521239 89.733757 
L 265.921311 97.589347 
L 266.316984 100.274678 
L 266.499602 101.396899 
L 267.595311 109.212409 
L 267.899675 111.376703 
L 268.538839 116.266405 
L 270.091093 127.648989 
L 270.912875 133.781156 
L 272.79993 147.808989 
L 274.200002 156.345928 
L 274.565239 158.229665 
L 274.930475 159.953085 
L 277.39582 169.251534 
L 277.882802 170.774556 
L 278.126293 171.495988 
L 278.49153 172.538055 
L 278.613275 172.85869 
L 279.313311 174.461872 
L 279.343748 174.421793 
L 279.374184 174.501952 
L 279.861166 175.303542 
L 280.16553 175.864655 
L 280.226402 175.904735 
L 280.439457 176.185292 
L 280.530766 176.225371 
L 280.682948 176.385688 
L 280.74382 176.465849 
L 281.322111 177.10712 
L 281.352548 177.067041 
L 281.382984 177.1472 
L 281.74822 177.467836 
L 282.052584 177.547995 
L 282.235202 177.628154 
L 282.387384 177.708313 
L 282.41782 177.788473 
L 282.50913 177.748393 
L 282.691748 177.828552 
L 283.117857 177.748393 
L 283.330911 177.628154 
L 283.483093 177.547995 
L 283.665711 177.467836 
L 283.817893 177.387677 
L 284.030948 177.187279 
L 284.061384 177.227359 
L 284.152693 177.1472 
L 284.700548 176.586086 
L 284.791857 176.505928 
L 286.10062 174.622189 
L 286.313675 174.221395 
L 286.557166 173.74044 
L 287.013711 172.818612 
L 287.10502 172.738453 
L 287.378948 172.09718 
L 287.43982 172.057101 
L 287.835493 171.295589 
L 289.235566 169.612249 
L 289.53993 169.53209 
L 289.631239 169.492012 
L 289.661675 169.53209 
L 289.966039 169.451932 
L 290.087784 169.451932 
L 290.300839 169.492012 
L 290.513893 169.772567 
L 290.605202 169.812647 
L 290.818257 170.133283 
L 290.909566 170.213442 
L 291.12262 170.493999 
L 291.518293 171.175352 
L 293.040111 175.46386 
L 293.344475 176.505928 
L 293.435784 176.746404 
L 293.861893 177.98887 
L 294.288002 179.391653 
L 294.927166 181.555946 
L 294.957602 181.555946 
L 295.718511 184.121037 
L 297.757748 189.211136 
L 297.81862 189.251216 
L 298.031675 189.571852 
L 298.062111 189.531773 
L 298.092548 189.611932 
L 298.731711 190.61392 
L 298.91433 190.854397 
L 299.066511 190.934556 
L 299.24913 191.014715 
L 299.49262 191.094874 
L 299.766548 191.295272 
L 299.857857 191.335351 
L 300.010039 191.495669 
L 300.16222 191.615908 
L 300.466584 191.535749 
L 300.649202 191.45559 
L 300.892693 191.375431 
L 300.984002 191.335351 
L 301.014439 191.375431 
L 301.470984 191.335351 
L 301.653602 191.094874 
L 301.684039 191.134954 
L 301.714475 191.094874 
L 301.957966 190.734158 
L 302.110148 190.653999 
L 302.26233 190.453602 
L 302.292766 190.533761 
L 302.353639 190.453602 
L 302.536257 190.333363 
L 302.566693 190.373443 
L 302.627566 190.293284 
L 302.962366 190.012727 
L 302.992802 190.052806 
L 303.023239 189.972647 
L 304.60593 187.728193 
L 305.51902 185.603978 
L 305.671202 185.243265 
L 306.097311 183.840479 
L 307.893057 176.305529 
L 310.723639 160.834834 
L 312.245457 150.093522 
L 312.793311 146.04549 
L 313.462911 141.556583 
L 313.675966 140.274039 
L 316.263057 123.961673 
L 316.65873 121.997777 
L 317.054402 119.9938 
L 317.115275 119.753323 
L 317.358766 118.831494 
L 319.824111 109.533045 
L 321.558984 105.20446 
L 321.619857 105.124297 
L 321.985093 104.483028 
L 322.472075 103.481034 
L 322.502511 103.481034 
L 322.68513 103.200477 
L 322.989493 102.679447 
L 323.293857 102.198492 
L 323.476475 101.757614 
L 323.902584 100.915948 
L 325.180911 99.312763 
L 325.211348 99.352846 
L 326.094002 99.433005 
L 327.159275 100.95603 
L 327.402766 101.477061 
L 327.61582 101.917936 
L 328.985457 105.805649 
L 330.05073 110.454874 
L 334.098766 132.298214 
L 334.555311 135.023621 
L 334.798802 136.426404 
L 335.559711 140.714914 
L 335.681457 141.276026 
L 339.059893 158.510222 
L 339.546875 160.874914 
L 340.246911 164.001117 
L 341.799166 169.692408 
L 342.225275 171.055113 
L 342.499202 172.017021 
L 342.590511 172.257498 
L 343.047057 173.620202 
L 344.35582 176.786484 
L 344.660184 177.347598 
L 344.934111 177.788473 
L 345.02542 177.868632 
L 345.299348 178.309507 
L 345.390657 178.349585 
L 345.634148 178.710301 
L 346.942911 180.594039 
L 347.216839 181.074993 
L 347.247275 181.034914 
L 347.277711 181.115073 
L 347.977748 181.876585 
L 348.099493 181.956742 
L 348.403857 182.197221 
L 348.677784 182.237301 
L 348.79953 182.317458 
L 348.829966 182.237301 
L 348.921275 182.277378 
L 349.103893 182.357538 
L 349.225639 182.357538 
L 349.347384 182.357538 
L 349.864802 182.397618 
L 349.895239 182.477776 
L 349.956111 182.397618 
L 351.204002 182.317458 
L 351.417057 182.197221 
L 351.508366 182.197221 
L 351.72142 182.036903 
L 351.843166 182.036903 
L 351.964911 181.876585 
L 351.995348 181.916662 
L 352.421457 181.515869 
L 352.48233 181.435709 
L 353.304111 180.513881 
L 353.39542 180.433722 
L 354.49113 179.151176 
L 354.643311 179.071017 
L 354.82593 178.870619 
L 354.947675 178.79046 
L 355.312911 178.469825 
L 355.434657 178.389666 
L 355.525966 178.309507 
L 355.556402 178.349585 
L 355.860766 178.109109 
L 356.07382 178.02895 
L 356.256439 177.948791 
L 356.49993 177.868632 
L 356.652111 177.788473 
L 356.712984 177.828552 
L 356.74342 177.788473 
L 356.773857 177.668234 
L 356.865166 177.708313 
L 356.895602 177.748393 
L 356.956475 177.668234 
L 357.41302 177.668234 
L 357.443457 177.547995 
L 357.534766 177.588075 
L 357.930439 177.547995 
L 358.052184 177.427757 
L 358.143493 177.427757 
L 358.41742 177.227359 
L 358.660911 177.1472 
L 358.873966 177.026961 
L 359.026148 176.946802 
L 359.269639 176.786484 
L 359.360948 176.746404 
L 359.482693 176.586086 
L 359.51313 176.626167 
L 359.574002 176.586086 
L 359.726184 176.465849 
L 359.939239 176.34561 
L 360.030548 176.34561 
L 360.274039 176.145212 
L 360.334911 176.185292 
L 360.365348 176.105133 
L 361.18713 175.183303 
L 361.278439 175.103144 
L 361.85673 174.221395 
L 362.069784 173.78052 
L 362.495893 173.059088 
L 362.86113 172.377737 
L 362.891566 172.377737 
L 363.135057 171.856703 
L 363.713348 170.614238 
L 363.987275 170.093204 
L 364.413384 169.251534 
L 365.082984 168.209466 
L 365.296039 167.92891 
L 366.726548 166.205491 
L 366.87873 166.125332 
L 367.061348 165.924934 
L 367.45702 165.564218 
L 367.54833 165.484059 
L 367.730948 165.283662 
L 367.88313 165.203502 
L 368.096184 165.083264 
L 368.248366 165.003105 
L 368.46142 164.842787 
L 368.55273 164.842787 
L 368.735348 164.642389 
L 369.039711 164.401912 
L 369.191893 164.321752 
L 369.374511 164.241593 
L 369.587566 164.201514 
L 369.739748 164.041196 
L 369.89193 163.961037 
L 370.409348 163.440003 
L 370.439784 163.480083 
L 370.500657 163.399923 
L 370.56153 163.359844 
L 370.744148 163.119367 
L 370.865893 163.039208 
L 371.078948 162.758651 
L 374.213893 158.470142 
L 374.640002 157.628472 
L 374.883493 157.147518 
L 379.083711 145.805013 
L 379.570693 144.241912 
L 379.60113 144.241912 
L 379.814184 143.52048 
L 380.331602 141.917299 
L 380.666402 140.714914 
L 380.757711 140.474437 
L 381.305566 138.710938 
L 381.366439 138.550619 
L 381.640366 137.628791 
L 382.036039 136.306167 
L 382.583893 134.582746 
L 382.918693 133.46052 
L 382.918693 133.46052 
" style="fill:none;stroke:#0000ff;stroke-linecap:square;stroke-width:1.5;"/>
   </g>
   <g id="line2d_24">
    <path clip-path="url(#p5a91362c93)" d="M 78.555057 154.158948 
L 85.31193 154.05875 
L 85.494548 154.03871 
L 85.677166 154.05875 
L 85.89022 154.03871 
L 86.072839 154.03871 
L 94.960257 153.938511 
L 95.142875 153.918471 
L 95.325493 153.918471 
L 100.164875 153.978591 
L 100.317057 154.05875 
L 100.469239 154.078789 
L 101.808439 155.080777 
L 102.691093 156.383362 
L 102.995457 157.024634 
L 103.573748 158.407378 
L 105.552111 165.281016 
L 110.148002 185.942011 
L 111.243711 189.168412 
L 112.217675 190.851752 
L 112.826402 191.493024 
L 113.374257 191.412865 
L 113.67862 191.172388 
L 113.830802 191.072189 
L 114.165602 190.651354 
L 114.469966 190.090241 
L 115.413493 187.304714 
L 116.02222 184.940021 
L 117.391857 177.144554 
L 119.552839 160.691911 
L 120.831166 149.710121 
L 122.079057 138.08706 
L 125.244439 109.891115 
L 126.248839 103.418272 
L 128.07502 94.38034 
L 129.779457 89.089843 
L 130.17513 88.709084 
L 130.41862 88.448574 
L 130.540366 88.348369 
L 130.936039 88.007696 
L 131.51433 88.107895 
L 131.666511 88.087855 
L 132.123057 87.667017 
L 132.396984 87.466622 
L 132.792657 87.546781 
L 133.066584 87.747179 
L 133.279639 87.827338 
L 133.462257 87.887454 
L 133.797057 87.987659 
L 134.162293 88.328332 
L 134.588402 88.949565 
L 135.227566 89.250158 
L 135.44062 89.33032 
L 136.688511 90.793226 
L 136.77982 90.833299 
L 137.053748 91.133899 
L 137.418984 91.795214 
L 137.905966 92.777156 
L 138.423384 94.019624 
L 140.55393 104.340102 
L 143.171457 120.472109 
L 149.076111 168.006424 
L 151.145784 184.819783 
L 153.85462 201.993859 
L 155.19382 206.883561 
L 156.015602 208.286344 
L 156.19822 208.526818 
L 156.654766 208.967696 
L 157.689602 208.867497 
L 157.96353 208.687139 
L 158.20702 208.406586 
L 158.63313 207.584956 
L 158.96793 206.96372 
L 160.915857 202.875608 
L 161.676766 200.571036 
L 163.381202 194.579147 
L 164.294293 190.531115 
L 165.176948 186.443004 
L 165.90742 183.116404 
L 167.216184 177.605469 
L 167.91622 175.280856 
L 168.34233 174.459227 
L 169.407602 173.236802 
L 170.138075 173.336999 
L 170.716366 173.837994 
L 170.990293 174.359028 
L 171.294657 175.120539 
L 171.903384 176.563402 
L 172.664293 179.449127 
L 173.638257 183.737636 
L 174.642657 188.887855 
L 175.494875 193.957915 
L 176.438402 199.989883 
L 178.264584 212.735168 
L 179.39073 220.129843 
L 180.364693 224.698909 
L 181.034293 226.522524 
L 182.099566 229.027497 
L 183.043093 230.109647 
L 183.469202 229.728886 
L 184.199675 228.045549 
L 184.595348 226.763007 
L 185.75193 220.14988 
L 186.66502 212.053816 
L 187.912911 197.805549 
L 189.830402 171.092547 
L 190.865239 153.778193 
L 193.056657 116.724674 
L 195.765493 77.30646 
L 197.04382 63.418909 
L 198.443893 51.495247 
L 199.904839 41.695804 
L 201.15273 35.703922 
L 201.48753 34.802129 
L 201.791893 34.301135 
L 202.15713 33.820184 
L 202.613675 33.399349 
L 202.857166 33.439426 
L 203.009348 33.539628 
L 203.344148 33.8803 
L 203.678948 34.160857 
L 203.800693 34.220973 
L 204.74422 36.285078 
L 205.535566 39.812076 
L 206.205166 44.441251 
L 208.031348 58.00817 
L 208.76182 63.499068 
L 210.344511 76.104081 
L 211.470657 85.061851 
L 213.570766 102.095651 
L 215.488257 116.363958 
L 216.157857 121.474098 
L 217.527493 132.255489 
L 218.22753 137.586066 
L 221.24073 158.647855 
L 221.727711 161.794098 
L 222.701675 168.086583 
L 223.614766 173.437199 
L 224.284366 177.48523 
L 224.801784 180.771751 
L 225.410511 184.439027 
L 225.714875 186.082288 
L 226.567093 190.491036 
L 228.393275 198.386702 
L 229.975966 203.256364 
L 230.219457 203.737318 
L 230.493384 204.278392 
L 231.467348 205.961735 
L 231.923893 206.703203 
L 232.228257 207.324436 
L 234.784911 212.614933 
L 235.606693 214.47863 
L 236.30673 215.620897 
L 238.102475 217.805234 
L 238.954693 218.246102 
L 239.472111 218.145907 
L 239.776475 218.065744 
L 240.172148 217.965549 
L 240.354766 217.945512 
L 240.506948 217.925469 
L 241.267857 218.005628 
L 241.450475 218.085787 
L 241.876584 218.185986 
L 242.150511 218.246102 
L 242.515748 218.346307 
L 243.58102 219.167938 
L 244.189748 220.129843 
L 244.58542 220.831232 
L 245.58982 223.055651 
L 246.046366 223.957441 
L 247.35513 226.302086 
L 247.507311 226.522524 
L 248.633457 227.825111 
L 248.876948 227.885228 
L 249.090002 227.865191 
L 249.27262 227.865191 
L 249.790039 227.764992 
L 250.27702 227.324117 
L 251.768402 225.199903 
L 252.498875 222.995526 
L 253.351093 219.187974 
L 254.568548 212.194094 
L 256.759966 194.018034 
L 257.73393 184.018194 
L 259.560111 162.355211 
L 262.147202 126.844754 
L 264.916911 88.308296 
L 267.138766 61.895884 
L 268.082293 53.058358 
L 269.36062 43.799982 
L 270.060657 40.293027 
L 270.669384 38.329124 
L 271.217239 37.166818 
L 271.308548 37.066626 
L 271.978148 36.745986 
L 272.404257 36.846188 
L 273.04342 37.868219 
L 274.13913 41.054532 
L 275.600075 49.310923 
L 276.300111 54.601414 
L 278.856766 77.366586 
L 280.682948 96.564674 
L 286.52673 156.964515 
L 287.835493 169.088571 
L 289.418184 183.617398 
L 290.78782 194.418829 
L 292.674875 207.324436 
L 294.288002 215.280224 
L 295.322839 218.306228 
L 296.783784 220.971516 
L 296.996839 221.232027 
L 297.24033 221.492547 
L 298.122984 221.973501 
L 298.48822 221.853263 
L 298.701275 221.753064 
L 299.279566 221.25207 
L 300.314402 219.709011 
L 300.740511 218.68698 
L 301.16662 217.604833 
L 301.653602 216.021692 
L 302.84062 211.753226 
L 304.058075 204.759346 
L 304.51462 201.392666 
L 305.123348 196.663282 
L 306.158184 188.366821 
L 308.593093 170.010399 
L 309.688802 162.876245 
L 311.393239 154.479585 
L 312.854184 148.267258 
L 316.263057 135.241413 
L 317.450075 131.714415 
L 318.058802 129.830678 
L 318.424039 128.828691 
L 320.158911 124.560222 
L 320.58502 123.478074 
L 322.92862 117.606424 
L 324.298257 114.700658 
L 324.541748 114.179624 
L 324.906984 113.317915 
L 325.02873 113.017318 
L 326.03313 110.071473 
L 326.641857 108.62861 
L 326.976657 107.8671 
L 327.402766 107.145668 
L 327.737566 106.544475 
L 328.011493 106.023441 
L 328.407166 105.28197 
L 329.137639 104.079581 
L 329.320257 103.839107 
L 330.081166 103.017477 
L 330.202911 102.917282 
L 331.207311 102.376205 
L 331.29862 102.436324 
L 331.329057 102.396245 
L 331.602984 102.476404 
L 331.755166 102.49644 
L 332.72913 103.257954 
L 334.220511 105.402209 
L 334.768366 106.724833 
L 335.65102 109.350042 
L 337.264148 115.041334 
L 338.907711 121.955052 
L 340.916511 133.09716 
L 344.69062 158.667895 
L 346.973348 177.304872 
L 348.12993 185.641412 
L 349.986548 198.326583 
L 351.356184 206.10201 
L 351.964911 209.388528 
L 352.908439 213.797278 
L 353.912839 217.324276 
L 355.769457 221.933422 
L 355.891202 222.133816 
L 356.469493 222.714972 
L 356.926039 222.614773 
L 357.260839 222.354257 
L 357.565202 222.053663 
L 358.995711 218.98758 
L 359.360948 217.725072 
L 359.939239 214.999667 
L 360.487093 211.9937 
L 362.982875 194.839664 
L 363.987275 186.76364 
L 369.770184 136.343601 
L 371.535493 119.991155 
L 373.270366 107.145668 
L 375.553093 94.260102 
L 376.192257 91.815251 
L 377.744511 87.065827 
L 378.627166 85.542802 
L 379.570693 85.041808 
L 379.814184 85.101934 
L 379.93593 85.142013 
L 380.209857 85.242209 
L 380.909893 85.823365 
L 381.549057 86.82535 
L 382.370839 88.689048 
L 382.675202 89.510678 
L 382.918693 90.212073 
L 382.918693 90.212073 
" style="fill:none;stroke:#ff0000;stroke-linecap:square;stroke-width:1.5;"/>
   </g>
   <g id="line2d_25">
    <path clip-path="url(#p5a91362c93)" d="M 123.844366 162.718572 
" style="fill:none;stroke:#ffffff;stroke-linecap:square;stroke-width:1.5;"/>
    <defs>
     <path d="M 0 -5 
L -1.12257 -1.545085 
L -4.755283 -1.545085 
L -1.816356 0.59017 
L -2.938926 4.045085 
L -0 1.90983 
L 2.938926 4.045085 
L 1.816356 0.59017 
L 4.755283 -1.545085 
L 1.12257 -1.545085 
z
" id="m33c9e2029d" style="stroke:#ffffff;stroke-linejoin:bevel;"/>
    </defs>
    <g clip-path="url(#p5a91362c93)">
     <use style="fill:#0000ff;stroke:#ffffff;stroke-linejoin:bevel;" x="123.844366" xlink:href="#m33c9e2029d" y="162.718572"/>
    </g>
   </g>
   <g id="line2d_26">
    <path clip-path="url(#p5a91362c93)" d="M 104.182475 160.210956 
" style="fill:none;stroke:#ffffff;stroke-linecap:square;stroke-width:1.5;"/>
    <defs>
     <path d="M 0 -5 
L -1.12257 -1.545085 
L -4.755283 -1.545085 
L -1.816356 0.59017 
L -2.938926 4.045085 
L -0 1.90983 
L 2.938926 4.045085 
L 1.816356 0.59017 
L 4.755283 -1.545085 
L 1.12257 -1.545085 
z
" id="mef61bf44dc" style="stroke:#ffffff;stroke-linejoin:bevel;"/>
    </defs>
    <g clip-path="url(#p5a91362c93)">
     <use style="fill:#ff0000;stroke:#ffffff;stroke-linejoin:bevel;" x="104.182475" xlink:href="#mef61bf44dc" y="160.210956"/>
    </g>
   </g>
   <g id="patch_3">
    <path d="M 63.336875 339.84 
L 63.336875 7.2 
" style="fill:none;stroke:#000000;stroke-linecap:square;stroke-linejoin:miter;stroke-width:0.8;"/>
   </g>
   <g id="patch_4">
    <path d="M 398.136875 339.84 
L 398.136875 7.2 
" style="fill:none;stroke:#000000;stroke-linecap:square;stroke-linejoin:miter;stroke-width:0.8;"/>
   </g>
   <g id="patch_5">
    <path d="M 63.336875 339.84 
L 398.136875 339.84 
" style="fill:none;stroke:#000000;stroke-linecap:square;stroke-linejoin:miter;stroke-width:0.8;"/>
   </g>
   <g id="patch_6">
    <path d="M 63.336875 7.2 
L 398.136875 7.2 
" style="fill:none;stroke:#000000;stroke-linecap:square;stroke-linejoin:miter;stroke-width:0.8;"/>
   </g>
   <g id="text_14">
    <g id="patch_7">
     <path d="M 75.036875 331.242688 
L 166.79375 331.242688 
L 166.79375 293.760312 
L 75.036875 293.760312 
z
" style="fill:#ffffff;stroke:#000000;stroke-linejoin:miter;stroke-width:0.75;"/>
    </g>
    <!-- Auto_00146 -->
    <g transform="translate(80.076875 308.521563)scale(0.14 -0.14)">
     <defs>
      <path d="M 2928 1419 
L 1288 1419 
L 1000 750 
Q 894 503 894 381 
Q 894 284 986 211 
Q 1078 138 1384 116 
L 1384 0 
L 50 0 
L 50 116 
Q 316 163 394 238 
Q 553 388 747 847 
L 2238 4334 
L 2347 4334 
L 3822 809 
Q 4000 384 4145 257 
Q 4291 131 4550 116 
L 4550 0 
L 2878 0 
L 2878 116 
Q 3131 128 3220 200 
Q 3309 272 3309 375 
Q 3309 513 3184 809 
L 2928 1419 
z
M 2841 1650 
L 2122 3363 
L 1384 1650 
L 2841 1650 
z
" id="TimesNewRomanPSMT-41" transform="scale(0.015625)"/>
      <path d="M 2709 2863 
L 2709 1128 
Q 2709 631 2732 520 
Q 2756 409 2807 365 
Q 2859 322 2928 322 
Q 3025 322 3147 375 
L 3191 266 
L 2334 -88 
L 2194 -88 
L 2194 519 
Q 1825 119 1631 15 
Q 1438 -88 1222 -88 
Q 981 -88 804 51 
Q 628 191 559 409 
Q 491 628 491 1028 
L 491 2306 
Q 491 2509 447 2587 
Q 403 2666 317 2708 
Q 231 2750 6 2747 
L 6 2863 
L 1009 2863 
L 1009 947 
Q 1009 547 1148 422 
Q 1288 297 1484 297 
Q 1619 297 1789 381 
Q 1959 466 2194 703 
L 2194 2325 
Q 2194 2569 2105 2655 
Q 2016 2741 1734 2747 
L 1734 2863 
L 2709 2863 
z
" id="TimesNewRomanPSMT-75" transform="scale(0.015625)"/>
      <path d="M 3256 -1381 
L -53 -1381 
L -53 -1119 
L 3256 -1119 
L 3256 -1381 
z
" id="TimesNewRomanPSMT-5f" transform="scale(0.015625)"/>
      <path d="M 2869 4325 
L 2869 4209 
Q 2456 4169 2195 4045 
Q 1934 3922 1679 3669 
Q 1425 3416 1258 3105 
Q 1091 2794 978 2366 
Q 1428 2675 1881 2675 
Q 2316 2675 2634 2325 
Q 2953 1975 2953 1425 
Q 2953 894 2631 456 
Q 2244 -75 1606 -75 
Q 1172 -75 869 213 
Q 275 772 275 1663 
Q 275 2231 503 2743 
Q 731 3256 1154 3653 
Q 1578 4050 1965 4187 
Q 2353 4325 2688 4325 
L 2869 4325 
z
M 925 2138 
Q 869 1716 869 1456 
Q 869 1156 980 804 
Q 1091 453 1309 247 
Q 1469 100 1697 100 
Q 1969 100 2183 356 
Q 2397 613 2397 1088 
Q 2397 1622 2184 2012 
Q 1972 2403 1581 2403 
Q 1463 2403 1327 2353 
Q 1191 2303 925 2138 
z
" id="TimesNewRomanPSMT-36" transform="scale(0.015625)"/>
     </defs>
     <use xlink:href="#TimesNewRomanPSMT-41"/>
     <use x="72.216797" xlink:href="#TimesNewRomanPSMT-75"/>
     <use x="122.216797" xlink:href="#TimesNewRomanPSMT-74"/>
     <use x="150" xlink:href="#TimesNewRomanPSMT-6f"/>
     <use x="200" xlink:href="#TimesNewRomanPSMT-5f"/>
     <use x="250" xlink:href="#TimesNewRomanPSMT-30"/>
     <use x="300" xlink:href="#TimesNewRomanPSMT-30"/>
     <use x="350" xlink:href="#TimesNewRomanPSMT-31"/>
     <use x="400" xlink:href="#TimesNewRomanPSMT-34"/>
     <use x="450" xlink:href="#TimesNewRomanPSMT-36"/>
    </g>
    <!-- Vs: 309.40m/s -->
    <g transform="translate(80.076875 323.208)scale(0.14 -0.14)">
     <defs>
      <path d="M 903 2950 
Q 1047 2950 1148 2848 
Q 1250 2747 1250 2603 
Q 1250 2459 1148 2357 
Q 1047 2256 903 2256 
Q 759 2256 657 2357 
Q 556 2459 556 2603 
Q 556 2747 657 2848 
Q 759 2950 903 2950 
z
M 897 609 
Q 1044 609 1145 506 
Q 1247 403 1247 259 
Q 1247 116 1144 14 
Q 1041 -88 897 -88 
Q 753 -88 651 14 
Q 550 116 550 259 
Q 550 403 651 506 
Q 753 609 897 609 
z
" id="TimesNewRomanPSMT-3a" transform="scale(0.015625)"/>
      <path d="M 338 -88 
L 338 28 
Q 744 34 1094 217 
Q 1444 400 1770 856 
Q 2097 1313 2225 1859 
Q 1734 1544 1338 1544 
Q 891 1544 572 1889 
Q 253 2234 253 2806 
Q 253 3363 572 3797 
Q 956 4325 1575 4325 
Q 2097 4325 2469 3894 
Q 2925 3359 2925 2575 
Q 2925 1869 2578 1258 
Q 2231 647 1613 244 
Q 1109 -88 516 -88 
L 338 -88 
z
M 2275 2091 
Q 2331 2497 2331 2741 
Q 2331 3044 2228 3395 
Q 2125 3747 1936 3934 
Q 1747 4122 1506 4122 
Q 1228 4122 1018 3872 
Q 809 3622 809 3128 
Q 809 2469 1088 2097 
Q 1291 1828 1588 1828 
Q 1731 1828 1928 1897 
Q 2125 1966 2275 2091 
z
" id="TimesNewRomanPSMT-39" transform="scale(0.015625)"/>
      <path d="M 1794 4444 
L 259 -88 
L 9 -88 
L 1544 4444 
L 1794 4444 
z
" id="TimesNewRomanPSMT-2f" transform="scale(0.015625)"/>
     </defs>
     <use xlink:href="#TimesNewRomanPSMT-56"/>
     <use x="72.216797" xlink:href="#TimesNewRomanPSMT-73"/>
     <use x="111.132812" xlink:href="#TimesNewRomanPSMT-3a"/>
     <use x="138.916016" xlink:href="#TimesNewRomanPSMT-20"/>
     <use x="163.916016" xlink:href="#TimesNewRomanPSMT-33"/>
     <use x="213.916016" xlink:href="#TimesNewRomanPSMT-30"/>
     <use x="263.916016" xlink:href="#TimesNewRomanPSMT-39"/>
     <use x="313.916016" xlink:href="#TimesNewRomanPSMT-2e"/>
     <use x="338.916016" xlink:href="#TimesNewRomanPSMT-34"/>
     <use x="388.916016" xlink:href="#TimesNewRomanPSMT-30"/>
     <use x="438.916016" xlink:href="#TimesNewRomanPSMT-6d"/>
     <use x="516.699219" xlink:href="#TimesNewRomanPSMT-2f"/>
     <use x="544.482422" xlink:href="#TimesNewRomanPSMT-73"/>
    </g>
   </g>
  </g>
 </g>
 <defs>
  <clipPath id="p5a91362c93">
   <rect height="332.64" width="334.8" x="63.336875" y="7.2"/>
  </clipPath>
 </defs>
</svg>
