<?xml version="1.0" encoding="utf-8" standalone="no"?>
<!DOCTYPE svg PUBLIC "-//W3C//DTD SVG 1.1//EN"
  "http://www.w3.org/Graphics/SVG/1.1/DTD/svg11.dtd">
<svg height="383.471875pt" version="1.1" viewBox="0 0 421.086875 383.471875" width="421.086875pt" xmlns="http://www.w3.org/2000/svg" xmlns:xlink="http://www.w3.org/1999/xlink">
 <metadata>
  <rdf:RDF xmlns:cc="http://creativecommons.org/ns#" xmlns:dc="http://purl.org/dc/elements/1.1/" xmlns:rdf="http://www.w3.org/1999/02/22-rdf-syntax-ns#">
   <cc:Work>
    <dc:type rdf:resource="http://purl.org/dc/dcmitype/StillImage"/>
    <dc:date>2021-06-11T14:39:38.358623</dc:date>
    <dc:format>image/svg+xml</dc:format>
    <dc:creator>
     <cc:Agent>
      <dc:title>Matplotlib v3.4.2, https://matplotlib.org/</dc:title>
     </cc:Agent>
    </dc:creator>
   </cc:Work>
  </rdf:RDF>
 </metadata>
 <defs>
  <style type="text/css">*{stroke-linecap:butt;stroke-linejoin:round;}</style>
 </defs>
 <g id="figure_1">
  <g id="patch_1">
   <path d="M 0 383.471875 
L 421.086875 383.471875 
L 421.086875 0 
L 0 0 
z
" style="fill:#ffffff;"/>
  </g>
  <g id="axes_1">
   <g id="patch_2">
    <path d="M 63.336875 339.84 
L 398.136875 339.84 
L 398.136875 7.2 
L 63.336875 7.2 
z
" style="fill:#ffffff;"/>
   </g>
   <g id="matplotlib.axis_1">
    <g id="xtick_1">
     <g id="line2d_1">
      <path clip-path="url(#p46cd47b3f8)" d="M 93.773239 339.84 
L 93.773239 7.2 
" style="fill:none;stroke:#000000;stroke-dasharray:0.5,0.825;stroke-dashoffset:0;stroke-width:0.5;"/>
     </g>
     <g id="line2d_2">
      <defs>
       <path d="M 0 0 
L 0 3.5 
" id="m5e386943c3" style="stroke:#000000;stroke-width:0.8;"/>
      </defs>
      <g>
       <use style="stroke:#000000;stroke-width:0.8;" x="93.773239" xlink:href="#m5e386943c3" y="339.84"/>
      </g>
     </g>
     <g id="text_1">
      <!-- 0.000 -->
      <g transform="translate(78.023239 356.56125)scale(0.14 -0.14)">
       <defs>
        <path d="M 231 2094 
Q 231 2819 450 3342 
Q 669 3866 1031 4122 
Q 1313 4325 1613 4325 
Q 2100 4325 2488 3828 
Q 2972 3213 2972 2159 
Q 2972 1422 2759 906 
Q 2547 391 2217 158 
Q 1888 -75 1581 -75 
Q 975 -75 572 641 
Q 231 1244 231 2094 
z
M 844 2016 
Q 844 1141 1059 588 
Q 1238 122 1591 122 
Q 1759 122 1940 273 
Q 2122 425 2216 781 
Q 2359 1319 2359 2297 
Q 2359 3022 2209 3506 
Q 2097 3866 1919 4016 
Q 1791 4119 1609 4119 
Q 1397 4119 1231 3928 
Q 1006 3669 925 3112 
Q 844 2556 844 2016 
z
" id="TimesNewRomanPSMT-30" transform="scale(0.015625)"/>
        <path d="M 800 606 
Q 947 606 1047 504 
Q 1147 403 1147 259 
Q 1147 116 1045 14 
Q 944 -88 800 -88 
Q 656 -88 554 14 
Q 453 116 453 259 
Q 453 406 554 506 
Q 656 606 800 606 
z
" id="TimesNewRomanPSMT-2e" transform="scale(0.015625)"/>
       </defs>
       <use xlink:href="#TimesNewRomanPSMT-30"/>
       <use x="50" xlink:href="#TimesNewRomanPSMT-2e"/>
       <use x="75" xlink:href="#TimesNewRomanPSMT-30"/>
       <use x="125" xlink:href="#TimesNewRomanPSMT-30"/>
       <use x="175" xlink:href="#TimesNewRomanPSMT-30"/>
      </g>
     </g>
    </g>
    <g id="xtick_2">
     <g id="line2d_3">
      <path clip-path="url(#p46cd47b3f8)" d="M 154.645966 339.84 
L 154.645966 7.2 
" style="fill:none;stroke:#000000;stroke-dasharray:0.5,0.825;stroke-dashoffset:0;stroke-width:0.5;"/>
     </g>
     <g id="line2d_4">
      <g>
       <use style="stroke:#000000;stroke-width:0.8;" x="154.645966" xlink:href="#m5e386943c3" y="339.84"/>
      </g>
     </g>
     <g id="text_2">
      <!-- 0.001 -->
      <g transform="translate(138.895966 356.56125)scale(0.14 -0.14)">
       <defs>
        <path d="M 750 3822 
L 1781 4325 
L 1884 4325 
L 1884 747 
Q 1884 391 1914 303 
Q 1944 216 2037 169 
Q 2131 122 2419 116 
L 2419 0 
L 825 0 
L 825 116 
Q 1125 122 1212 167 
Q 1300 213 1334 289 
Q 1369 366 1369 747 
L 1369 3034 
Q 1369 3497 1338 3628 
Q 1316 3728 1258 3775 
Q 1200 3822 1119 3822 
Q 1003 3822 797 3725 
L 750 3822 
z
" id="TimesNewRomanPSMT-31" transform="scale(0.015625)"/>
       </defs>
       <use xlink:href="#TimesNewRomanPSMT-30"/>
       <use x="50" xlink:href="#TimesNewRomanPSMT-2e"/>
       <use x="75" xlink:href="#TimesNewRomanPSMT-30"/>
       <use x="125" xlink:href="#TimesNewRomanPSMT-30"/>
       <use x="175" xlink:href="#TimesNewRomanPSMT-31"/>
      </g>
     </g>
    </g>
    <g id="xtick_3">
     <g id="line2d_5">
      <path clip-path="url(#p46cd47b3f8)" d="M 215.518693 339.84 
L 215.518693 7.2 
" style="fill:none;stroke:#000000;stroke-dasharray:0.5,0.825;stroke-dashoffset:0;stroke-width:0.5;"/>
     </g>
     <g id="line2d_6">
      <g>
       <use style="stroke:#000000;stroke-width:0.8;" x="215.518693" xlink:href="#m5e386943c3" y="339.84"/>
      </g>
     </g>
     <g id="text_3">
      <!-- 0.002 -->
      <g transform="translate(199.768693 356.56125)scale(0.14 -0.14)">
       <defs>
        <path d="M 2934 816 
L 2638 0 
L 138 0 
L 138 116 
Q 1241 1122 1691 1759 
Q 2141 2397 2141 2925 
Q 2141 3328 1894 3587 
Q 1647 3847 1303 3847 
Q 991 3847 742 3664 
Q 494 3481 375 3128 
L 259 3128 
Q 338 3706 661 4015 
Q 984 4325 1469 4325 
Q 1984 4325 2329 3994 
Q 2675 3663 2675 3213 
Q 2675 2891 2525 2569 
Q 2294 2063 1775 1497 
Q 997 647 803 472 
L 1909 472 
Q 2247 472 2383 497 
Q 2519 522 2628 598 
Q 2738 675 2819 816 
L 2934 816 
z
" id="TimesNewRomanPSMT-32" transform="scale(0.015625)"/>
       </defs>
       <use xlink:href="#TimesNewRomanPSMT-30"/>
       <use x="50" xlink:href="#TimesNewRomanPSMT-2e"/>
       <use x="75" xlink:href="#TimesNewRomanPSMT-30"/>
       <use x="125" xlink:href="#TimesNewRomanPSMT-30"/>
       <use x="175" xlink:href="#TimesNewRomanPSMT-32"/>
      </g>
     </g>
    </g>
    <g id="xtick_4">
     <g id="line2d_7">
      <path clip-path="url(#p46cd47b3f8)" d="M 276.39142 339.84 
L 276.39142 7.2 
" style="fill:none;stroke:#000000;stroke-dasharray:0.5,0.825;stroke-dashoffset:0;stroke-width:0.5;"/>
     </g>
     <g id="line2d_8">
      <g>
       <use style="stroke:#000000;stroke-width:0.8;" x="276.39142" xlink:href="#m5e386943c3" y="339.84"/>
      </g>
     </g>
     <g id="text_4">
      <!-- 0.003 -->
      <g transform="translate(260.64142 356.56125)scale(0.14 -0.14)">
       <defs>
        <path d="M 325 3431 
Q 506 3859 782 4092 
Q 1059 4325 1472 4325 
Q 1981 4325 2253 3994 
Q 2459 3747 2459 3466 
Q 2459 3003 1878 2509 
Q 2269 2356 2469 2072 
Q 2669 1788 2669 1403 
Q 2669 853 2319 450 
Q 1863 -75 997 -75 
Q 569 -75 414 31 
Q 259 138 259 259 
Q 259 350 332 419 
Q 406 488 509 488 
Q 588 488 669 463 
Q 722 447 909 348 
Q 1097 250 1169 231 
Q 1284 197 1416 197 
Q 1734 197 1970 444 
Q 2206 691 2206 1028 
Q 2206 1275 2097 1509 
Q 2016 1684 1919 1775 
Q 1784 1900 1550 2001 
Q 1316 2103 1072 2103 
L 972 2103 
L 972 2197 
Q 1219 2228 1467 2375 
Q 1716 2522 1828 2728 
Q 1941 2934 1941 3181 
Q 1941 3503 1739 3701 
Q 1538 3900 1238 3900 
Q 753 3900 428 3381 
L 325 3431 
z
" id="TimesNewRomanPSMT-33" transform="scale(0.015625)"/>
       </defs>
       <use xlink:href="#TimesNewRomanPSMT-30"/>
       <use x="50" xlink:href="#TimesNewRomanPSMT-2e"/>
       <use x="75" xlink:href="#TimesNewRomanPSMT-30"/>
       <use x="125" xlink:href="#TimesNewRomanPSMT-30"/>
       <use x="175" xlink:href="#TimesNewRomanPSMT-33"/>
      </g>
     </g>
    </g>
    <g id="xtick_5">
     <g id="line2d_9">
      <path clip-path="url(#p46cd47b3f8)" d="M 337.264148 339.84 
L 337.264148 7.2 
" style="fill:none;stroke:#000000;stroke-dasharray:0.5,0.825;stroke-dashoffset:0;stroke-width:0.5;"/>
     </g>
     <g id="line2d_10">
      <g>
       <use style="stroke:#000000;stroke-width:0.8;" x="337.264148" xlink:href="#m5e386943c3" y="339.84"/>
      </g>
     </g>
     <g id="text_5">
      <!-- 0.004 -->
      <g transform="translate(321.514148 356.56125)scale(0.14 -0.14)">
       <defs>
        <path d="M 2978 1563 
L 2978 1119 
L 2409 1119 
L 2409 0 
L 1894 0 
L 1894 1119 
L 100 1119 
L 100 1519 
L 2066 4325 
L 2409 4325 
L 2409 1563 
L 2978 1563 
z
M 1894 1563 
L 1894 3666 
L 406 1563 
L 1894 1563 
z
" id="TimesNewRomanPSMT-34" transform="scale(0.015625)"/>
       </defs>
       <use xlink:href="#TimesNewRomanPSMT-30"/>
       <use x="50" xlink:href="#TimesNewRomanPSMT-2e"/>
       <use x="75" xlink:href="#TimesNewRomanPSMT-30"/>
       <use x="125" xlink:href="#TimesNewRomanPSMT-30"/>
       <use x="175" xlink:href="#TimesNewRomanPSMT-34"/>
      </g>
     </g>
    </g>
    <g id="xtick_6">
     <g id="line2d_11">
      <path clip-path="url(#p46cd47b3f8)" d="M 398.136875 339.84 
L 398.136875 7.2 
" style="fill:none;stroke:#000000;stroke-dasharray:0.5,0.825;stroke-dashoffset:0;stroke-width:0.5;"/>
     </g>
     <g id="line2d_12">
      <g>
       <use style="stroke:#000000;stroke-width:0.8;" x="398.136875" xlink:href="#m5e386943c3" y="339.84"/>
      </g>
     </g>
     <g id="text_6">
      <!-- 0.005 -->
      <g transform="translate(382.386875 356.56125)scale(0.14 -0.14)">
       <defs>
        <path d="M 2778 4238 
L 2534 3706 
L 1259 3706 
L 981 3138 
Q 1809 3016 2294 2522 
Q 2709 2097 2709 1522 
Q 2709 1188 2573 903 
Q 2438 619 2231 419 
Q 2025 219 1772 97 
Q 1413 -75 1034 -75 
Q 653 -75 479 54 
Q 306 184 306 341 
Q 306 428 378 495 
Q 450 563 559 563 
Q 641 563 702 538 
Q 763 513 909 409 
Q 1144 247 1384 247 
Q 1750 247 2026 523 
Q 2303 800 2303 1197 
Q 2303 1581 2056 1914 
Q 1809 2247 1375 2428 
Q 1034 2569 447 2591 
L 1259 4238 
L 2778 4238 
z
" id="TimesNewRomanPSMT-35" transform="scale(0.015625)"/>
       </defs>
       <use xlink:href="#TimesNewRomanPSMT-30"/>
       <use x="50" xlink:href="#TimesNewRomanPSMT-2e"/>
       <use x="75" xlink:href="#TimesNewRomanPSMT-30"/>
       <use x="125" xlink:href="#TimesNewRomanPSMT-30"/>
       <use x="175" xlink:href="#TimesNewRomanPSMT-35"/>
      </g>
     </g>
    </g>
    <g id="text_7">
     <!-- Time (sec) -->
     <g transform="translate(200.858906 373.277188)scale(0.14 -0.14)">
      <defs>
       <path d="M 3703 4238 
L 3750 3244 
L 3631 3244 
Q 3597 3506 3538 3619 
Q 3441 3800 3280 3886 
Q 3119 3972 2856 3972 
L 2259 3972 
L 2259 734 
Q 2259 344 2344 247 
Q 2463 116 2709 116 
L 2856 116 
L 2856 0 
L 1059 0 
L 1059 116 
L 1209 116 
Q 1478 116 1591 278 
Q 1659 378 1659 734 
L 1659 3972 
L 1150 3972 
Q 853 3972 728 3928 
Q 566 3869 450 3700 
Q 334 3531 313 3244 
L 194 3244 
L 244 4238 
L 3703 4238 
z
" id="TimesNewRomanPSMT-54" transform="scale(0.015625)"/>
       <path d="M 928 4444 
Q 1059 4444 1151 4351 
Q 1244 4259 1244 4128 
Q 1244 3997 1151 3903 
Q 1059 3809 928 3809 
Q 797 3809 703 3903 
Q 609 3997 609 4128 
Q 609 4259 701 4351 
Q 794 4444 928 4444 
z
M 1188 2947 
L 1188 647 
Q 1188 378 1227 289 
Q 1266 200 1342 156 
Q 1419 113 1622 113 
L 1622 0 
L 231 0 
L 231 113 
Q 441 113 512 153 
Q 584 194 626 287 
Q 669 381 669 647 
L 669 1750 
Q 669 2216 641 2353 
Q 619 2453 572 2492 
Q 525 2531 444 2531 
Q 356 2531 231 2484 
L 188 2597 
L 1050 2947 
L 1188 2947 
z
" id="TimesNewRomanPSMT-69" transform="scale(0.015625)"/>
       <path d="M 1050 2338 
Q 1363 2650 1419 2697 
Q 1559 2816 1721 2881 
Q 1884 2947 2044 2947 
Q 2313 2947 2506 2790 
Q 2700 2634 2766 2338 
Q 3088 2713 3309 2830 
Q 3531 2947 3766 2947 
Q 3994 2947 4170 2830 
Q 4347 2713 4450 2447 
Q 4519 2266 4519 1878 
L 4519 647 
Q 4519 378 4559 278 
Q 4591 209 4675 161 
Q 4759 113 4950 113 
L 4950 0 
L 3538 0 
L 3538 113 
L 3597 113 
Q 3781 113 3884 184 
Q 3956 234 3988 344 
Q 4000 397 4000 647 
L 4000 1878 
Q 4000 2228 3916 2372 
Q 3794 2572 3525 2572 
Q 3359 2572 3192 2489 
Q 3025 2406 2788 2181 
L 2781 2147 
L 2788 2013 
L 2788 647 
Q 2788 353 2820 281 
Q 2853 209 2943 161 
Q 3034 113 3253 113 
L 3253 0 
L 1806 0 
L 1806 113 
Q 2044 113 2133 169 
Q 2222 225 2256 338 
Q 2272 391 2272 647 
L 2272 1878 
Q 2272 2228 2169 2381 
Q 2031 2581 1784 2581 
Q 1616 2581 1450 2491 
Q 1191 2353 1050 2181 
L 1050 647 
Q 1050 366 1089 281 
Q 1128 197 1204 155 
Q 1281 113 1516 113 
L 1516 0 
L 100 0 
L 100 113 
Q 297 113 375 155 
Q 453 197 493 289 
Q 534 381 534 647 
L 534 1741 
Q 534 2213 506 2350 
Q 484 2453 437 2492 
Q 391 2531 309 2531 
Q 222 2531 100 2484 
L 53 2597 
L 916 2947 
L 1050 2947 
L 1050 2338 
z
" id="TimesNewRomanPSMT-6d" transform="scale(0.015625)"/>
       <path d="M 681 1784 
Q 678 1147 991 784 
Q 1303 422 1725 422 
Q 2006 422 2214 576 
Q 2422 731 2563 1106 
L 2659 1044 
Q 2594 616 2278 264 
Q 1963 -88 1488 -88 
Q 972 -88 605 314 
Q 238 716 238 1394 
Q 238 2128 614 2539 
Q 991 2950 1559 2950 
Q 2041 2950 2350 2633 
Q 2659 2316 2659 1784 
L 681 1784 
z
M 681 1966 
L 2006 1966 
Q 1991 2241 1941 2353 
Q 1863 2528 1708 2628 
Q 1553 2728 1384 2728 
Q 1125 2728 920 2526 
Q 716 2325 681 1966 
z
" id="TimesNewRomanPSMT-65" transform="scale(0.015625)"/>
       <path id="TimesNewRomanPSMT-20" transform="scale(0.015625)"/>
       <path d="M 1988 -1253 
L 1988 -1369 
Q 1516 -1131 1200 -813 
Q 750 -359 506 256 
Q 263 872 263 1534 
Q 263 2503 741 3301 
Q 1219 4100 1988 4444 
L 1988 4313 
Q 1603 4100 1356 3731 
Q 1109 3363 987 2797 
Q 866 2231 866 1616 
Q 866 947 969 400 
Q 1050 -31 1165 -292 
Q 1281 -553 1476 -793 
Q 1672 -1034 1988 -1253 
z
" id="TimesNewRomanPSMT-28" transform="scale(0.015625)"/>
       <path d="M 2050 2947 
L 2050 1972 
L 1947 1972 
Q 1828 2431 1642 2597 
Q 1456 2763 1169 2763 
Q 950 2763 815 2647 
Q 681 2531 681 2391 
Q 681 2216 781 2091 
Q 878 1963 1175 1819 
L 1631 1597 
Q 2266 1288 2266 781 
Q 2266 391 1970 151 
Q 1675 -88 1309 -88 
Q 1047 -88 709 6 
Q 606 38 541 38 
Q 469 38 428 -44 
L 325 -44 
L 325 978 
L 428 978 
Q 516 541 762 319 
Q 1009 97 1316 97 
Q 1531 97 1667 223 
Q 1803 350 1803 528 
Q 1803 744 1651 891 
Q 1500 1038 1047 1263 
Q 594 1488 453 1669 
Q 313 1847 313 2119 
Q 313 2472 555 2709 
Q 797 2947 1181 2947 
Q 1350 2947 1591 2875 
Q 1750 2828 1803 2828 
Q 1853 2828 1881 2850 
Q 1909 2872 1947 2947 
L 2050 2947 
z
" id="TimesNewRomanPSMT-73" transform="scale(0.015625)"/>
       <path d="M 2631 1088 
Q 2516 522 2178 217 
Q 1841 -88 1431 -88 
Q 944 -88 581 321 
Q 219 731 219 1428 
Q 219 2103 620 2525 
Q 1022 2947 1584 2947 
Q 2006 2947 2278 2723 
Q 2550 2500 2550 2259 
Q 2550 2141 2473 2067 
Q 2397 1994 2259 1994 
Q 2075 1994 1981 2113 
Q 1928 2178 1911 2362 
Q 1894 2547 1784 2644 
Q 1675 2738 1481 2738 
Q 1169 2738 978 2506 
Q 725 2200 725 1697 
Q 725 1184 976 792 
Q 1228 400 1656 400 
Q 1963 400 2206 609 
Q 2378 753 2541 1131 
L 2631 1088 
z
" id="TimesNewRomanPSMT-63" transform="scale(0.015625)"/>
       <path d="M 144 4313 
L 144 4444 
Q 619 4209 934 3891 
Q 1381 3434 1625 2820 
Q 1869 2206 1869 1541 
Q 1869 572 1392 -226 
Q 916 -1025 144 -1369 
L 144 -1253 
Q 528 -1038 776 -670 
Q 1025 -303 1145 264 
Q 1266 831 1266 1447 
Q 1266 2113 1163 2663 
Q 1084 3094 967 3353 
Q 850 3613 656 3853 
Q 463 4094 144 4313 
z
" id="TimesNewRomanPSMT-29" transform="scale(0.015625)"/>
      </defs>
      <use xlink:href="#TimesNewRomanPSMT-54"/>
      <use x="57.583984" xlink:href="#TimesNewRomanPSMT-69"/>
      <use x="85.367188" xlink:href="#TimesNewRomanPSMT-6d"/>
      <use x="163.150391" xlink:href="#TimesNewRomanPSMT-65"/>
      <use x="207.535156" xlink:href="#TimesNewRomanPSMT-20"/>
      <use x="232.535156" xlink:href="#TimesNewRomanPSMT-28"/>
      <use x="265.835938" xlink:href="#TimesNewRomanPSMT-73"/>
      <use x="304.751953" xlink:href="#TimesNewRomanPSMT-65"/>
      <use x="349.136719" xlink:href="#TimesNewRomanPSMT-63"/>
      <use x="393.521484" xlink:href="#TimesNewRomanPSMT-29"/>
     </g>
    </g>
   </g>
   <g id="matplotlib.axis_2">
    <g id="ytick_1">
     <g id="line2d_13">
      <path clip-path="url(#p46cd47b3f8)" d="M 63.336875 318.745161 
L 398.136875 318.745161 
" style="fill:none;stroke:#000000;stroke-dasharray:0.5,0.825;stroke-dashoffset:0;stroke-width:0.5;"/>
     </g>
     <g id="line2d_14">
      <defs>
       <path d="M 0 0 
L -3.5 0 
" id="m7db3eb7ee5" style="stroke:#000000;stroke-width:0.8;"/>
      </defs>
      <g>
       <use style="stroke:#000000;stroke-width:0.8;" x="63.336875" xlink:href="#m7db3eb7ee5" y="318.745161"/>
      </g>
     </g>
     <g id="text_8">
      <!-- −0.06 -->
      <g transform="translate(23.942188 323.605786)scale(0.14 -0.14)">
       <defs>
        <path d="M 3484 2000 
L 116 2000 
L 116 2256 
L 3484 2256 
L 3484 2000 
z
" id="TimesNewRomanPSMT-2212" transform="scale(0.015625)"/>
        <path d="M 2869 4325 
L 2869 4209 
Q 2456 4169 2195 4045 
Q 1934 3922 1679 3669 
Q 1425 3416 1258 3105 
Q 1091 2794 978 2366 
Q 1428 2675 1881 2675 
Q 2316 2675 2634 2325 
Q 2953 1975 2953 1425 
Q 2953 894 2631 456 
Q 2244 -75 1606 -75 
Q 1172 -75 869 213 
Q 275 772 275 1663 
Q 275 2231 503 2743 
Q 731 3256 1154 3653 
Q 1578 4050 1965 4187 
Q 2353 4325 2688 4325 
L 2869 4325 
z
M 925 2138 
Q 869 1716 869 1456 
Q 869 1156 980 804 
Q 1091 453 1309 247 
Q 1469 100 1697 100 
Q 1969 100 2183 356 
Q 2397 613 2397 1088 
Q 2397 1622 2184 2012 
Q 1972 2403 1581 2403 
Q 1463 2403 1327 2353 
Q 1191 2303 925 2138 
z
" id="TimesNewRomanPSMT-36" transform="scale(0.015625)"/>
       </defs>
       <use xlink:href="#TimesNewRomanPSMT-2212"/>
       <use x="56.396484" xlink:href="#TimesNewRomanPSMT-30"/>
       <use x="106.396484" xlink:href="#TimesNewRomanPSMT-2e"/>
       <use x="131.396484" xlink:href="#TimesNewRomanPSMT-30"/>
       <use x="181.396484" xlink:href="#TimesNewRomanPSMT-36"/>
      </g>
     </g>
    </g>
    <g id="ytick_2">
     <g id="line2d_15">
      <path clip-path="url(#p46cd47b3f8)" d="M 63.336875 264.927505 
L 398.136875 264.927505 
" style="fill:none;stroke:#000000;stroke-dasharray:0.5,0.825;stroke-dashoffset:0;stroke-width:0.5;"/>
     </g>
     <g id="line2d_16">
      <g>
       <use style="stroke:#000000;stroke-width:0.8;" x="63.336875" xlink:href="#m7db3eb7ee5" y="264.927505"/>
      </g>
     </g>
     <g id="text_9">
      <!-- −0.04 -->
      <g transform="translate(23.942188 269.78813)scale(0.14 -0.14)">
       <use xlink:href="#TimesNewRomanPSMT-2212"/>
       <use x="56.396484" xlink:href="#TimesNewRomanPSMT-30"/>
       <use x="106.396484" xlink:href="#TimesNewRomanPSMT-2e"/>
       <use x="131.396484" xlink:href="#TimesNewRomanPSMT-30"/>
       <use x="181.396484" xlink:href="#TimesNewRomanPSMT-34"/>
      </g>
     </g>
    </g>
    <g id="ytick_3">
     <g id="line2d_17">
      <path clip-path="url(#p46cd47b3f8)" d="M 63.336875 211.109849 
L 398.136875 211.109849 
" style="fill:none;stroke:#000000;stroke-dasharray:0.5,0.825;stroke-dashoffset:0;stroke-width:0.5;"/>
     </g>
     <g id="line2d_18">
      <g>
       <use style="stroke:#000000;stroke-width:0.8;" x="63.336875" xlink:href="#m7db3eb7ee5" y="211.109849"/>
      </g>
     </g>
     <g id="text_10">
      <!-- −0.02 -->
      <g transform="translate(23.942188 215.970474)scale(0.14 -0.14)">
       <use xlink:href="#TimesNewRomanPSMT-2212"/>
       <use x="56.396484" xlink:href="#TimesNewRomanPSMT-30"/>
       <use x="106.396484" xlink:href="#TimesNewRomanPSMT-2e"/>
       <use x="131.396484" xlink:href="#TimesNewRomanPSMT-30"/>
       <use x="181.396484" xlink:href="#TimesNewRomanPSMT-32"/>
      </g>
     </g>
    </g>
    <g id="ytick_4">
     <g id="line2d_19">
      <path clip-path="url(#p46cd47b3f8)" d="M 63.336875 157.292193 
L 398.136875 157.292193 
" style="fill:none;stroke:#000000;stroke-dasharray:0.5,0.825;stroke-dashoffset:0;stroke-width:0.5;"/>
     </g>
     <g id="line2d_20">
      <g>
       <use style="stroke:#000000;stroke-width:0.8;" x="63.336875" xlink:href="#m7db3eb7ee5" y="157.292193"/>
      </g>
     </g>
     <g id="text_11">
      <!-- 0.00 -->
      <g transform="translate(31.836875 162.152818)scale(0.14 -0.14)">
       <use xlink:href="#TimesNewRomanPSMT-30"/>
       <use x="50" xlink:href="#TimesNewRomanPSMT-2e"/>
       <use x="75" xlink:href="#TimesNewRomanPSMT-30"/>
       <use x="125" xlink:href="#TimesNewRomanPSMT-30"/>
      </g>
     </g>
    </g>
    <g id="ytick_5">
     <g id="line2d_21">
      <path clip-path="url(#p46cd47b3f8)" d="M 63.336875 103.474536 
L 398.136875 103.474536 
" style="fill:none;stroke:#000000;stroke-dasharray:0.5,0.825;stroke-dashoffset:0;stroke-width:0.5;"/>
     </g>
     <g id="line2d_22">
      <g>
       <use style="stroke:#000000;stroke-width:0.8;" x="63.336875" xlink:href="#m7db3eb7ee5" y="103.474536"/>
      </g>
     </g>
     <g id="text_12">
      <!-- 0.02 -->
      <g transform="translate(31.836875 108.335161)scale(0.14 -0.14)">
       <use xlink:href="#TimesNewRomanPSMT-30"/>
       <use x="50" xlink:href="#TimesNewRomanPSMT-2e"/>
       <use x="75" xlink:href="#TimesNewRomanPSMT-30"/>
       <use x="125" xlink:href="#TimesNewRomanPSMT-32"/>
      </g>
     </g>
    </g>
    <g id="ytick_6">
     <g id="line2d_23">
      <path clip-path="url(#p46cd47b3f8)" d="M 63.336875 49.65688 
L 398.136875 49.65688 
" style="fill:none;stroke:#000000;stroke-dasharray:0.5,0.825;stroke-dashoffset:0;stroke-width:0.5;"/>
     </g>
     <g id="line2d_24">
      <g>
       <use style="stroke:#000000;stroke-width:0.8;" x="63.336875" xlink:href="#m7db3eb7ee5" y="49.65688"/>
      </g>
     </g>
     <g id="text_13">
      <!-- 0.04 -->
      <g transform="translate(31.836875 54.517505)scale(0.14 -0.14)">
       <use xlink:href="#TimesNewRomanPSMT-30"/>
       <use x="50" xlink:href="#TimesNewRomanPSMT-2e"/>
       <use x="75" xlink:href="#TimesNewRomanPSMT-30"/>
       <use x="125" xlink:href="#TimesNewRomanPSMT-34"/>
      </g>
     </g>
    </g>
    <g id="text_14">
     <!-- Volatage (V) -->
     <g transform="translate(16.92125 209.352344)rotate(-90)scale(0.14 -0.14)">
      <defs>
       <path d="M 4544 4238 
L 4544 4122 
Q 4319 4081 4203 3978 
Q 4038 3825 3909 3509 
L 2431 -97 
L 2316 -97 
L 728 3556 
Q 606 3838 556 3900 
Q 478 3997 364 4051 
Q 250 4106 56 4122 
L 56 4238 
L 1788 4238 
L 1788 4122 
Q 1494 4094 1406 4022 
Q 1319 3950 1319 3838 
Q 1319 3681 1463 3350 
L 2541 866 
L 3541 3319 
Q 3688 3681 3688 3822 
Q 3688 3913 3597 3995 
Q 3506 4078 3291 4113 
Q 3275 4116 3238 4122 
L 3238 4238 
L 4544 4238 
z
" id="TimesNewRomanPSMT-56" transform="scale(0.015625)"/>
       <path d="M 1600 2947 
Q 2250 2947 2644 2453 
Q 2978 2031 2978 1484 
Q 2978 1100 2793 706 
Q 2609 313 2286 112 
Q 1963 -88 1566 -88 
Q 919 -88 538 428 
Q 216 863 216 1403 
Q 216 1797 411 2186 
Q 606 2575 925 2761 
Q 1244 2947 1600 2947 
z
M 1503 2744 
Q 1338 2744 1170 2645 
Q 1003 2547 900 2300 
Q 797 2053 797 1666 
Q 797 1041 1045 587 
Q 1294 134 1700 134 
Q 2003 134 2200 384 
Q 2397 634 2397 1244 
Q 2397 2006 2069 2444 
Q 1847 2744 1503 2744 
z
" id="TimesNewRomanPSMT-6f" transform="scale(0.015625)"/>
       <path d="M 1184 4444 
L 1184 647 
Q 1184 378 1223 290 
Q 1263 203 1344 158 
Q 1425 113 1647 113 
L 1647 0 
L 244 0 
L 244 113 
Q 441 113 512 153 
Q 584 194 625 287 
Q 666 381 666 647 
L 666 3247 
Q 666 3731 644 3842 
Q 622 3953 573 3993 
Q 525 4034 450 4034 
Q 369 4034 244 3984 
L 191 4094 
L 1044 4444 
L 1184 4444 
z
" id="TimesNewRomanPSMT-6c" transform="scale(0.015625)"/>
       <path d="M 1822 413 
Q 1381 72 1269 19 
Q 1100 -59 909 -59 
Q 613 -59 420 144 
Q 228 347 228 678 
Q 228 888 322 1041 
Q 450 1253 767 1440 
Q 1084 1628 1822 1897 
L 1822 2009 
Q 1822 2438 1686 2597 
Q 1550 2756 1291 2756 
Q 1094 2756 978 2650 
Q 859 2544 859 2406 
L 866 2225 
Q 866 2081 792 2003 
Q 719 1925 600 1925 
Q 484 1925 411 2006 
Q 338 2088 338 2228 
Q 338 2497 613 2722 
Q 888 2947 1384 2947 
Q 1766 2947 2009 2819 
Q 2194 2722 2281 2516 
Q 2338 2381 2338 1966 
L 2338 994 
Q 2338 584 2353 492 
Q 2369 400 2405 369 
Q 2441 338 2488 338 
Q 2538 338 2575 359 
Q 2641 400 2828 588 
L 2828 413 
Q 2478 -56 2159 -56 
Q 2006 -56 1915 50 
Q 1825 156 1822 413 
z
M 1822 616 
L 1822 1706 
Q 1350 1519 1213 1441 
Q 966 1303 859 1153 
Q 753 1003 753 825 
Q 753 600 887 451 
Q 1022 303 1197 303 
Q 1434 303 1822 616 
z
" id="TimesNewRomanPSMT-61" transform="scale(0.015625)"/>
       <path d="M 1031 3803 
L 1031 2863 
L 1700 2863 
L 1700 2644 
L 1031 2644 
L 1031 788 
Q 1031 509 1111 412 
Q 1191 316 1316 316 
Q 1419 316 1516 380 
Q 1613 444 1666 569 
L 1788 569 
Q 1678 263 1478 108 
Q 1278 -47 1066 -47 
Q 922 -47 784 33 
Q 647 113 581 261 
Q 516 409 516 719 
L 516 2644 
L 63 2644 
L 63 2747 
Q 234 2816 414 2980 
Q 594 3144 734 3369 
Q 806 3488 934 3803 
L 1031 3803 
z
" id="TimesNewRomanPSMT-74" transform="scale(0.015625)"/>
       <path d="M 966 1044 
Q 703 1172 562 1401 
Q 422 1631 422 1909 
Q 422 2334 742 2640 
Q 1063 2947 1563 2947 
Q 1972 2947 2272 2747 
L 2878 2747 
Q 3013 2747 3034 2739 
Q 3056 2731 3066 2713 
Q 3084 2684 3084 2613 
Q 3084 2531 3069 2500 
Q 3059 2484 3036 2475 
Q 3013 2466 2878 2466 
L 2506 2466 
Q 2681 2241 2681 1891 
Q 2681 1491 2375 1206 
Q 2069 922 1553 922 
Q 1341 922 1119 984 
Q 981 866 932 777 
Q 884 688 884 625 
Q 884 572 936 522 
Q 988 472 1138 450 
Q 1225 438 1575 428 
Q 2219 413 2409 384 
Q 2700 344 2873 169 
Q 3047 -6 3047 -263 
Q 3047 -616 2716 -925 
Q 2228 -1381 1444 -1381 
Q 841 -1381 425 -1109 
Q 191 -953 191 -784 
Q 191 -709 225 -634 
Q 278 -519 444 -313 
Q 466 -284 763 25 
Q 600 122 533 198 
Q 466 275 466 372 
Q 466 481 555 628 
Q 644 775 966 1044 
z
M 1509 2797 
Q 1278 2797 1122 2612 
Q 966 2428 966 2047 
Q 966 1553 1178 1281 
Q 1341 1075 1591 1075 
Q 1828 1075 1981 1253 
Q 2134 1431 2134 1813 
Q 2134 2309 1919 2591 
Q 1759 2797 1509 2797 
z
M 934 0 
Q 788 -159 713 -296 
Q 638 -434 638 -550 
Q 638 -700 819 -813 
Q 1131 -1006 1722 -1006 
Q 2284 -1006 2551 -807 
Q 2819 -609 2819 -384 
Q 2819 -222 2659 -153 
Q 2497 -84 2016 -72 
Q 1313 -53 934 0 
z
" id="TimesNewRomanPSMT-67" transform="scale(0.015625)"/>
      </defs>
      <use xlink:href="#TimesNewRomanPSMT-56"/>
      <use x="59.341797" xlink:href="#TimesNewRomanPSMT-6f"/>
      <use x="109.341797" xlink:href="#TimesNewRomanPSMT-6c"/>
      <use x="137.125" xlink:href="#TimesNewRomanPSMT-61"/>
      <use x="181.509766" xlink:href="#TimesNewRomanPSMT-74"/>
      <use x="209.292969" xlink:href="#TimesNewRomanPSMT-61"/>
      <use x="253.677734" xlink:href="#TimesNewRomanPSMT-67"/>
      <use x="303.677734" xlink:href="#TimesNewRomanPSMT-65"/>
      <use x="348.0625" xlink:href="#TimesNewRomanPSMT-20"/>
      <use x="373.0625" xlink:href="#TimesNewRomanPSMT-28"/>
      <use x="406.363281" xlink:href="#TimesNewRomanPSMT-56"/>
      <use x="478.580078" xlink:href="#TimesNewRomanPSMT-29"/>
     </g>
    </g>
   </g>
   <g id="LineCollection_1">
    <path clip-path="url(#p46cd47b3f8)" d="M 78.555057 157.292193 
L 382.918693 157.292193 
" style="fill:none;stroke:#1f77b4;stroke-width:1.5;"/>
   </g>
   <g id="line2d_25">
    <path clip-path="url(#p46cd47b3f8)" d="M 78.555057 157.313451 
L 95.660293 157.380723 
L 95.69073 157.447995 
L 95.751602 157.347087 
L 101.534511 157.447995 
L 101.62582 157.481631 
L 101.656257 157.447995 
L 103.665057 157.548903 
L 103.756366 157.582539 
L 103.786802 157.548903 
L 113.313384 157.649811 
L 113.465566 157.683447 
L 114.34822 157.750719 
L 114.500402 157.851627 
L 114.622148 157.817991 
L 115.048257 157.918899 
L 115.139566 157.952535 
L 115.200439 157.885263 
L 115.230875 157.952535 
L 115.35262 157.952535 
L 115.870039 158.053443 
L 116.02222 158.120715 
L 116.11353 158.120715 
L 116.265711 158.154351 
L 116.874439 158.25526 
L 116.996184 158.25526 
L 117.270111 158.356168 
L 117.391857 158.356168 
L 118.152766 158.457076 
L 118.335384 158.524348 
L 119.339784 158.625256 
L 119.431093 158.625256 
L 119.552839 158.625256 
L 120.46593 158.726164 
L 120.648548 158.793436 
L 120.770293 158.793436 
L 121.13553 158.894344 
L 121.348584 158.995252 
L 121.439893 158.961616 
L 121.47033 158.995252 
L 121.652948 159.09616 
L 121.896439 159.230705 
L 122.079057 159.297977 
L 122.261675 159.432521 
L 122.444293 159.533429 
L 122.961711 159.970697 
L 123.05302 160.037969 
L 123.326948 160.37433 
L 123.47913 160.475238 
L 123.661748 160.744326 
L 123.783493 160.845234 
L 124.209602 161.450683 
L 124.605275 162.056132 
L 124.848766 162.459764 
L 126.522766 166.428816 
L 128.714184 174.064196 
L 129.109857 175.678726 
L 129.688148 177.965977 
L 131.118657 183.818645 
L 131.636075 185.90408 
L 132.153493 187.720426 
L 132.944839 189.974041 
L 133.066584 190.209493 
L 133.370948 190.882214 
L 133.918802 191.622206 
L 134.253602 192.126747 
L 134.344911 192.227655 
L 135.014511 192.833104 
L 135.19713 192.934012 
L 135.410184 193.03492 
L 135.988475 192.934012 
L 136.414584 192.362199 
L 136.718948 191.723114 
L 136.840693 191.454026 
L 137.358111 190.041313 
L 138.423384 186.139533 
L 139.184293 182.33866 
L 140.949602 169.926963 
L 142.714911 153.378035 
L 145.880293 117.219297 
L 147.280366 100.098555 
L 148.436948 86.105964 
L 149.867457 70.061573 
L 150.719675 61.820752 
L 151.754511 53.64719 
L 153.124148 45.271823 
L 154.006802 41.840939 
L 154.098111 41.605487 
L 154.706839 40.529137 
L 154.85902 40.428231 
L 155.102511 40.293684 
L 155.132948 40.39459 
L 155.224257 40.360959 
L 155.985166 41.336404 
L 156.53302 42.816384 
L 156.95913 44.531828 
L 157.415675 46.819075 
L 158.054839 50.922672 
L 158.846184 57.885333 
L 159.88102 69.287947 
L 161.037602 84.693251 
L 162.163748 102.453077 
L 162.98553 116.8493 
L 164.23342 140.831793 
L 166.66833 191.454026 
L 169.68153 252.402525 
L 171.081602 276.687742 
L 172.512111 297.172087 
L 173.516511 308.070157 
L 175.099202 319.47277 
L 175.555748 321.760029 
L 176.28622 323.811827 
L 176.37753 323.879102 
L 176.590584 324.215457 
L 177.138439 324.72 
L 177.838475 323.811827 
L 178.447202 322.230933 
L 179.177675 318.564608 
L 180.699493 307.733802 
L 181.612584 298.719342 
L 182.799602 284.390389 
L 183.834439 269.32145 
L 185.173639 247.592566 
L 186.117166 231.346367 
L 189.799966 164.208838 
L 193.756693 100.434915 
L 196.678584 69.321577 
L 198.169966 58.591688 
L 198.778693 55.429898 
L 199.14393 53.680824 
L 199.935275 50.720853 
L 200.300511 49.308145 
L 201.944075 45.944536 
L 202.06582 45.877272 
L 202.096257 45.910902 
L 202.339748 45.809997 
L 202.583239 45.675453 
L 202.704984 45.608178 
L 202.82673 45.540906 
L 202.948475 45.540906 
L 203.283275 45.641809 
L 203.587639 45.877272 
L 203.648511 45.84363 
L 203.678948 45.910902 
L 203.83113 45.978177 
L 203.861566 45.944536 
L 203.922439 46.011808 
L 204.135493 46.07908 
L 204.348548 46.280901 
L 204.622475 46.718173 
L 204.957275 47.458157 
L 205.961675 49.947224 
L 207.544366 55.49717 
L 207.84873 56.775342 
L 208.335711 58.894412 
L 208.42702 59.298042 
L 210.922802 72.48337 
L 211.470657 75.3088 
L 211.77502 76.889688 
L 212.53593 80.724196 
L 215.518693 97.777671 
L 216.066548 101.174908 
L 217.070948 107.09485 
L 222.24513 136.223657 
L 222.57993 138.443635 
L 223.310402 143.085408 
L 226.080111 162.15704 
L 229.367239 192.160383 
L 230.94993 208.47386 
L 231.558657 214.831068 
L 232.136948 221.121009 
L 232.989166 230.707279 
L 235.241457 254.420681 
L 236.97633 268.884179 
L 237.280693 270.666884 
L 237.615493 272.415957 
L 238.89382 277.629545 
L 239.928657 279.714985 
L 240.080839 279.681344 
L 240.23302 279.614072 
L 240.415639 279.479535 
L 241.085239 278.604993 
L 241.420039 277.629545 
L 241.754839 276.351376 
L 242.302693 274.232306 
L 243.124475 269.523261 
L 243.489711 267.471463 
L 244.768039 258.288825 
L 245.711566 248.971652 
L 246.502911 240.024458 
L 249.972657 192.564015 
L 250.916184 178.705969 
L 252.924984 151.427144 
L 254.172875 136.324564 
L 255.603384 121.726525 
L 256.486039 114.057509 
L 257.764366 106.287585 
L 259.134002 100.704003 
L 259.529675 99.560381 
L 260.168839 97.777671 
L 260.260148 97.57585 
L 260.503639 97.104948 
L 260.808002 96.634046 
L 261.142802 96.163139 
L 261.690657 95.692234 
L 261.721093 95.725873 
L 261.781966 95.658598 
L 262.634184 95.759509 
L 262.908111 95.994959 
L 262.938548 95.927687 
L 262.99942 96.028597 
L 264.977784 98.349481 
L 265.373457 98.988568 
L 265.464766 99.089471 
L 265.738693 99.526742 
L 268.295348 105.413048 
L 268.599711 106.354857 
L 268.69102 106.59031 
L 269.391057 108.574836 
L 269.45193 108.743019 
L 269.756293 109.617553 
L 270.151966 110.727542 
L 270.638948 112.409341 
L 271.491166 115.60477 
L 273.80433 125.359217 
L 275.660948 131.884608 
L 276.026184 133.061869 
L 276.300111 133.936406 
L 279.252439 143.388132 
L 279.343748 143.589948 
L 279.617675 144.329941 
L 280.256839 146.079014 
L 281.200366 148.433537 
L 281.717784 149.778979 
L 281.869966 150.081703 
L 282.235202 150.989876 
L 282.296075 151.090784 
L 283.300475 153.041674 
L 283.604839 153.512579 
L 283.939639 153.983483 
L 284.548366 154.588932 
L 284.578802 154.52166 
L 284.639675 154.622568 
L 284.974475 154.85802 
L 285.918002 154.757112 
L 287.074584 153.344398 
L 287.348511 152.772586 
L 287.53113 152.469862 
L 287.744184 151.931685 
L 287.896366 151.628961 
L 288.505093 149.980795 
L 288.565966 149.778979 
L 288.961639 148.66899 
L 289.266002 147.794452 
L 290.54433 143.892673 
L 290.635639 143.690857 
L 291.426984 141.437242 
L 292.279202 139.822712 
L 292.431384 139.519988 
L 292.88793 138.779995 
L 293.89233 137.80455 
L 294.744548 137.905459 
L 295.170657 138.241818 
L 295.261966 138.342727 
L 295.596766 138.847267 
L 296.844657 141.87451 
L 297.696875 145.069934 
L 298.82302 150.485336 
L 299.188257 152.469862 
L 299.91873 157.077998 
L 300.770948 162.82976 
L 301.59273 169.018791 
L 302.871057 179.345054 
L 303.84502 187.720426 
L 305.732075 203.462091 
L 306.584293 209.852937 
L 307.466948 215.840152 
L 308.806148 223.980075 
L 309.780111 228.790025 
L 311.241057 233.263618 
L 311.54542 233.66725 
L 311.88022 233.902703 
L 311.97153 233.902703 
L 312.123711 233.936339 
L 312.367202 233.83543 
L 313.523784 232.422717 
L 314.102075 230.875459 
L 314.741239 228.386395 
L 316.628293 217.353773 
L 317.845748 208.541135 
L 319.184948 197.340332 
L 324.541748 150.95624 
L 327.220148 131.077343 
L 328.95502 120.313812 
L 329.563748 117.152025 
L 329.989857 115.066588 
L 330.537711 112.611163 
L 330.994257 110.727542 
L 332.242148 105.682137 
L 332.363893 105.244871 
L 332.63782 104.168515 
L 334.129202 99.594017 
L 334.220511 99.425834 
L 334.433566 98.887658 
L 334.616184 98.584933 
L 334.829239 98.181298 
L 334.890111 98.114031 
L 335.498839 97.037676 
L 335.681457 96.701313 
L 336.07713 96.095864 
L 337.264148 94.918603 
L 337.629384 94.8177 
L 337.720693 94.750425 
L 337.75113 94.8177 
L 338.572911 94.918603 
L 339.029457 95.288602 
L 339.181639 95.38951 
L 339.394693 95.658598 
L 339.42513 95.624962 
L 339.455566 95.692234 
L 341.251311 97.777671 
L 341.464366 98.147662 
L 341.555675 98.248573 
L 341.76873 98.652205 
L 341.829602 98.753111 
L 342.073093 99.156746 
L 343.838402 103.327614 
L 346.303748 111.803892 
L 346.69942 113.687513 
L 347.338584 116.983844 
L 347.886439 119.91018 
L 348.342984 122.36561 
L 348.921275 125.460125 
L 353.578039 150.586244 
L 361.43062 184.827726 
L 364.261202 193.875821 
L 364.352511 194.111273 
L 364.900366 195.557622 
L 365.20473 196.465795 
L 365.752584 197.945781 
L 365.996075 198.584866 
L 366.909166 200.872119 
L 367.274402 201.71302 
L 368.88753 205.009351 
L 369.070148 205.312075 
L 369.374511 205.951155 
L 369.861493 206.792061 
L 369.922366 206.859328 
L 370.22673 207.296599 
L 370.318039 207.39751 
L 370.652839 207.868411 
L 372.23553 209.482938 
L 372.357275 209.583849 
L 372.844257 209.987482 
L 372.935566 210.054756 
L 373.087748 210.222934 
L 373.118184 210.189298 
L 373.179057 210.25657 
L 373.513857 210.525658 
L 373.605166 210.525658 
L 373.787784 210.592933 
L 374.061711 210.693836 
L 374.213893 210.727474 
L 375.279166 210.626569 
L 375.58353 210.424747 
L 375.796584 210.323845 
L 375.948766 210.222934 
L 376.100948 210.122023 
L 377.622766 208.305677 
L 377.866257 207.868411 
L 378.018439 207.565687 
L 378.748911 206.220243 
L 378.84022 206.052065 
L 379.083711 205.446617 
L 379.631566 204.000267 
L 379.84462 203.361183 
L 380.118548 202.520282 
L 380.60553 200.804844 
L 380.788148 200.132123 
L 381.51862 197.340332 
L 382.918693 190.983122 
L 382.918693 190.983122 
" style="fill:none;stroke:#0000ff;stroke-linecap:square;stroke-width:1.5;"/>
   </g>
   <g id="line2d_26">
    <path clip-path="url(#p46cd47b3f8)" d="M 78.555057 157.183683 
L 81.781311 157.284591 
L 81.994366 157.284591 
L 85.859784 157.385499 
L 86.133711 157.419135 
L 86.346766 157.402317 
L 86.590257 157.435953 
L 86.803311 157.435953 
L 87.077239 157.469589 
L 87.290293 157.452771 
L 87.56422 157.486407 
L 89.968693 157.553679 
L 90.090439 157.570497 
L 90.33393 157.604133 
L 90.546984 157.604133 
L 90.760039 157.620951 
L 90.91222 157.604133 
L 91.186148 157.637769 
L 99.586584 157.738677 
L 99.860511 157.772313 
L 100.530111 157.873221 
L 100.71273 157.940494 
L 100.834475 157.957312 
L 102.082366 158.764576 
L 103.147639 160.0932 
L 104.030293 161.758184 
L 106.221711 168.098576 
L 106.921748 170.722187 
L 107.65222 173.513977 
L 110.42193 183.789786 
L 111.76113 187.187026 
L 113.130766 189.255642 
L 113.43513 189.44064 
L 113.556875 189.457458 
L 114.409093 189.35655 
L 114.652584 189.121098 
L 115.048257 188.515649 
L 115.900475 186.90112 
L 116.539639 184.815685 
L 117.330984 181.82208 
L 118.183202 177.567121 
L 120.03982 166.702681 
L 123.38782 141.862469 
L 125.031384 129.131229 
L 127.770657 113.154116 
L 128.562002 109.386874 
L 130.053384 104.055565 
L 130.814293 102.272855 
L 131.240402 101.600135 
L 131.727384 100.927411 
L 132.670911 99.111071 
L 133.18833 98.69062 
L 133.462257 98.421527 
L 133.736184 98.135623 
L 133.888366 98.034715 
L 134.223166 97.96744 
L 134.923202 97.88335 
L 135.349311 97.54699 
L 135.501493 97.513359 
L 135.836293 97.614265 
L 136.11022 97.765627 
L 137.145057 97.866535 
L 137.54073 98.320621 
L 138.301639 99.296069 
L 138.758184 100.540597 
L 140.584366 108.041435 
L 141.710511 113.507291 
L 144.23673 130.947575 
L 145.271566 139.121132 
L 146.854257 152.205549 
L 148.345639 166.36632 
L 152.51542 204.509584 
L 154.128548 216.181288 
L 155.650366 223.984846 
L 156.86782 227.667992 
L 157.324366 228.424802 
L 158.176584 229.215252 
L 158.511384 229.114347 
L 158.724439 228.946164 
L 159.363602 228.475262 
L 159.88102 227.752087 
L 161.189784 224.590294 
L 162.072439 221.293963 
L 162.742039 218.283541 
L 164.537784 206.712744 
L 165.876984 196.31921 
L 169.133675 170.217646 
L 170.716366 160.42956 
L 171.842511 155.367337 
L 172.451239 153.450083 
L 172.846911 152.508274 
L 173.36433 151.381467 
L 173.516511 151.179651 
L 173.760002 150.910562 
L 174.003493 150.691928 
L 174.977457 150.271478 
L 175.251384 150.50693 
L 175.768802 151.381467 
L 176.438402 152.693272 
L 176.986257 154.526436 
L 177.808039 157.620951 
L 179.208111 165.138605 
L 179.847275 168.636753 
L 180.547311 172.235809 
L 181.73433 178.693927 
L 184.686657 194.418774 
L 185.630184 197.647833 
L 186.147602 198.77464 
L 186.573711 199.279181 
L 187.060693 199.665995 
L 187.42593 199.750085 
L 188.125966 199.245545 
L 188.460766 198.875548 
L 188.612948 198.673732 
L 189.221675 197.479653 
L 190.500002 192.905152 
L 191.10873 189.339732 
L 192.630548 179.417103 
L 193.848002 170.621278 
L 196.46553 149.531485 
L 203.222402 90.752511 
L 204.531166 81.435332 
L 205.809493 75.616295 
L 206.113857 74.943577 
L 206.75302 73.682228 
L 207.148693 73.059959 
L 207.666111 72.639509 
L 208.18353 72.235879 
L 208.42702 72.118153 
L 208.670511 72.219058 
L 209.979275 73.816775 
L 210.618439 75.481753 
L 211.957639 80.274888 
L 214.727348 94.603839 
L 216.21873 104.324654 
L 220.692875 135.690256 
L 221.697275 141.84565 
L 222.762548 148.202862 
L 224.071311 155.24961 
L 225.349639 162.346814 
L 227.60193 172.992619 
L 229.549857 181.115721 
L 230.736875 185.269771 
L 231.28473 187.102936 
L 232.410875 191.189714 
L 233.171784 194.065595 
L 233.719639 196.251938 
L 235.698002 204.509584 
L 237.828548 211.203158 
L 238.467711 212.666323 
L 239.198184 213.675406 
L 239.472111 213.944492 
L 239.98953 214.364942 
L 240.750439 214.903119 
L 241.146111 215.189028 
L 241.90702 215.491752 
L 242.941857 215.592658 
L 243.094039 215.609478 
L 243.307093 215.609478 
L 243.520148 215.693566 
L 245.072402 216.669014 
L 245.285457 216.904463 
L 246.046366 217.44264 
L 246.35073 217.745364 
L 246.959457 218.19945 
L 247.416002 218.56945 
L 247.537748 218.653537 
L 249.090002 220.234433 
L 249.181311 220.3017 
L 249.668293 220.907149 
L 250.429202 221.899412 
L 251.433602 223.766217 
L 252.28582 225.380744 
L 253.655457 227.466178 
L 253.807639 227.667992 
L 254.172875 228.222989 
L 254.812039 229.097526 
L 255.085966 229.366614 
L 255.664257 229.854337 
L 256.120802 229.988883 
L 256.881711 229.904788 
L 257.033893 229.820701 
L 257.155639 229.770247 
L 257.30782 229.669338 
L 257.673057 229.349796 
L 258.768766 227.331637 
L 259.377493 225.33029 
L 259.834039 223.446672 
L 260.473202 220.167159 
L 261.508039 213.221317 
L 262.360257 205.82139 
L 263.547275 192.938788 
L 264.76473 177.533484 
L 265.860439 161.539549 
L 267.321384 137.271149 
L 270.091093 90.231158 
L 271.734657 65.643216 
L 273.13473 47.765663 
L 274.595675 33.571256 
L 275.113093 29.972195 
L 275.904439 25.818148 
L 276.634911 23.429992 
L 276.969711 22.689999 
L 277.182766 22.420905 
L 277.39582 22.32 
L 278.187166 22.874997 
L 278.369784 23.211352 
L 278.795893 24.388619 
L 279.648111 28.071765 
L 280.987311 36.867582 
L 281.930839 44.99069 
L 284.335311 71.378157 
L 287.19633 107.486438 
L 289.387748 136.24525 
L 292.340075 170.823095 
L 294.196693 189.205188 
L 297.788184 216.147652 
L 299.614366 226.608462 
L 301.440548 234.227018 
L 303.053675 238.381072 
L 303.875457 238.717435 
L 304.210257 238.431526 
L 304.971166 236.968361 
L 306.706039 231.872499 
L 307.893057 226.843911 
L 308.653966 222.992585 
L 311.788911 205.064579 
L 313.64553 192.013797 
L 315.197784 180.073004 
L 317.206584 166.416775 
L 317.99793 161.421823 
L 318.880584 156.712778 
L 321.285057 146.537878 
L 322.68513 142.989276 
L 323.050366 142.451099 
L 323.385166 141.980194 
L 326.70273 138.465229 
L 328.559348 137.321604 
L 328.802839 137.102971 
L 329.168075 136.783428 
L 329.533311 136.379796 
L 330.355093 135.320261 
L 332.39433 131.754841 
L 332.911748 130.644851 
L 333.216111 129.955312 
L 334.585748 126.490801 
L 334.829239 125.885352 
L 335.681457 123.732646 
L 338.846839 115.290001 
L 339.029457 114.953641 
L 339.66862 113.810015 
L 339.972984 113.339114 
L 340.216475 112.969115 
L 340.551275 112.66639 
L 340.977384 112.346845 
L 341.160002 112.24594 
L 341.616548 112.094578 
L 341.829602 112.094578 
L 342.34702 112.195483 
L 343.44273 112.901843 
L 344.386257 114.667737 
L 344.812366 115.878629 
L 346.45593 122.656293 
L 349.04302 136.077072 
L 349.864802 141.240202 
L 351.356184 151.162833 
L 352.634511 160.362288 
L 354.39982 173.160799 
L 356.926039 190.533812 
L 359.239202 202.726874 
L 360.121857 205.720481 
L 360.943639 207.671369 
L 361.156693 208.041368 
L 361.917602 209.454079 
L 362.495893 210.210889 
L 363.165493 210.799523 
L 363.408984 210.900434 
L 363.652475 210.917249 
L 364.86993 210.143623 
L 365.296039 209.639077 
L 365.44822 209.437263 
L 365.935202 208.629998 
L 366.11782 208.293638 
L 366.78742 206.544564 
L 367.183093 205.148669 
L 368.613602 199.178273 
L 369.709311 193.241512 
L 371.778984 178.088479 
L 373.81822 162.649538 
L 375.674839 148.186043 
L 378.17062 129.736678 
L 379.26633 122.622657 
L 381.427311 111.304131 
L 382.005602 108.966424 
L 382.462148 107.385535 
L 382.918693 105.922365 
L 382.918693 105.922365 
" style="fill:none;stroke:#ff0000;stroke-linecap:square;stroke-width:1.5;"/>
   </g>
   <g id="line2d_27">
    <path clip-path="url(#p46cd47b3f8)" d="M 126.279275 165.722459 
" style="fill:none;stroke:#ffffff;stroke-linecap:square;stroke-width:1.5;"/>
    <defs>
     <path d="M 0 -5 
L -1.12257 -1.545085 
L -4.755283 -1.545085 
L -1.816356 0.59017 
L -2.938926 4.045085 
L -0 1.90983 
L 2.938926 4.045085 
L 1.816356 0.59017 
L 4.755283 -1.545085 
L 1.12257 -1.545085 
z
" id="m9a30b5cd63" style="stroke:#ffffff;stroke-linejoin:bevel;"/>
    </defs>
    <g clip-path="url(#p46cd47b3f8)">
     <use style="fill:#0000ff;stroke:#ffffff;stroke-linejoin:bevel;" x="126.279275" xlink:href="#m9a30b5cd63" y="165.722459"/>
    </g>
   </g>
   <g id="line2d_28">
    <path clip-path="url(#p46cd47b3f8)" d="M 104.97382 164.062252 
" style="fill:none;stroke:#ffffff;stroke-linecap:square;stroke-width:1.5;"/>
    <defs>
     <path d="M 0 -5 
L -1.12257 -1.545085 
L -4.755283 -1.545085 
L -1.816356 0.59017 
L -2.938926 4.045085 
L -0 1.90983 
L 2.938926 4.045085 
L 1.816356 0.59017 
L 4.755283 -1.545085 
L 1.12257 -1.545085 
z
" id="m0e4436cbfb" style="stroke:#ffffff;stroke-linejoin:bevel;"/>
    </defs>
    <g clip-path="url(#p46cd47b3f8)">
     <use style="fill:#ff0000;stroke:#ffffff;stroke-linejoin:bevel;" x="104.97382" xlink:href="#m0e4436cbfb" y="164.062252"/>
    </g>
   </g>
   <g id="patch_3">
    <path d="M 63.336875 339.84 
L 63.336875 7.2 
" style="fill:none;stroke:#000000;stroke-linecap:square;stroke-linejoin:miter;stroke-width:0.8;"/>
   </g>
   <g id="patch_4">
    <path d="M 398.136875 339.84 
L 398.136875 7.2 
" style="fill:none;stroke:#000000;stroke-linecap:square;stroke-linejoin:miter;stroke-width:0.8;"/>
   </g>
   <g id="patch_5">
    <path d="M 63.336875 339.84 
L 398.136875 339.84 
" style="fill:none;stroke:#000000;stroke-linecap:square;stroke-linejoin:miter;stroke-width:0.8;"/>
   </g>
   <g id="patch_6">
    <path d="M 63.336875 7.2 
L 398.136875 7.2 
" style="fill:none;stroke:#000000;stroke-linecap:square;stroke-linejoin:miter;stroke-width:0.8;"/>
   </g>
   <g id="text_15">
    <g id="patch_7">
     <path d="M 75.036875 331.242688 
L 166.79375 331.242688 
L 166.79375 293.760312 
L 75.036875 293.760312 
z
" style="fill:#ffffff;stroke:#000000;stroke-linejoin:miter;stroke-width:0.75;"/>
    </g>
    <!-- Auto_00083 -->
    <g transform="translate(80.076875 308.521562)scale(0.14 -0.14)">
     <defs>
      <path d="M 2928 1419 
L 1288 1419 
L 1000 750 
Q 894 503 894 381 
Q 894 284 986 211 
Q 1078 138 1384 116 
L 1384 0 
L 50 0 
L 50 116 
Q 316 163 394 238 
Q 553 388 747 847 
L 2238 4334 
L 2347 4334 
L 3822 809 
Q 4000 384 4145 257 
Q 4291 131 4550 116 
L 4550 0 
L 2878 0 
L 2878 116 
Q 3131 128 3220 200 
Q 3309 272 3309 375 
Q 3309 513 3184 809 
L 2928 1419 
z
M 2841 1650 
L 2122 3363 
L 1384 1650 
L 2841 1650 
z
" id="TimesNewRomanPSMT-41" transform="scale(0.015625)"/>
      <path d="M 2709 2863 
L 2709 1128 
Q 2709 631 2732 520 
Q 2756 409 2807 365 
Q 2859 322 2928 322 
Q 3025 322 3147 375 
L 3191 266 
L 2334 -88 
L 2194 -88 
L 2194 519 
Q 1825 119 1631 15 
Q 1438 -88 1222 -88 
Q 981 -88 804 51 
Q 628 191 559 409 
Q 491 628 491 1028 
L 491 2306 
Q 491 2509 447 2587 
Q 403 2666 317 2708 
Q 231 2750 6 2747 
L 6 2863 
L 1009 2863 
L 1009 947 
Q 1009 547 1148 422 
Q 1288 297 1484 297 
Q 1619 297 1789 381 
Q 1959 466 2194 703 
L 2194 2325 
Q 2194 2569 2105 2655 
Q 2016 2741 1734 2747 
L 1734 2863 
L 2709 2863 
z
" id="TimesNewRomanPSMT-75" transform="scale(0.015625)"/>
      <path d="M 3256 -1381 
L -53 -1381 
L -53 -1119 
L 3256 -1119 
L 3256 -1381 
z
" id="TimesNewRomanPSMT-5f" transform="scale(0.015625)"/>
      <path d="M 1228 2134 
Q 725 2547 579 2797 
Q 434 3047 434 3316 
Q 434 3728 753 4026 
Q 1072 4325 1600 4325 
Q 2113 4325 2425 4047 
Q 2738 3769 2738 3413 
Q 2738 3175 2569 2928 
Q 2400 2681 1866 2347 
Q 2416 1922 2594 1678 
Q 2831 1359 2831 1006 
Q 2831 559 2490 242 
Q 2150 -75 1597 -75 
Q 994 -75 656 303 
Q 388 606 388 966 
Q 388 1247 577 1523 
Q 766 1800 1228 2134 
z
M 1719 2469 
Q 2094 2806 2194 3001 
Q 2294 3197 2294 3444 
Q 2294 3772 2109 3958 
Q 1925 4144 1606 4144 
Q 1288 4144 1088 3959 
Q 888 3775 888 3528 
Q 888 3366 970 3203 
Q 1053 3041 1206 2894 
L 1719 2469 
z
M 1375 2016 
Q 1116 1797 991 1539 
Q 866 1281 866 981 
Q 866 578 1086 336 
Q 1306 94 1647 94 
Q 1984 94 2187 284 
Q 2391 475 2391 747 
Q 2391 972 2272 1150 
Q 2050 1481 1375 2016 
z
" id="TimesNewRomanPSMT-38" transform="scale(0.015625)"/>
     </defs>
     <use xlink:href="#TimesNewRomanPSMT-41"/>
     <use x="72.216797" xlink:href="#TimesNewRomanPSMT-75"/>
     <use x="122.216797" xlink:href="#TimesNewRomanPSMT-74"/>
     <use x="150" xlink:href="#TimesNewRomanPSMT-6f"/>
     <use x="200" xlink:href="#TimesNewRomanPSMT-5f"/>
     <use x="250" xlink:href="#TimesNewRomanPSMT-30"/>
     <use x="300" xlink:href="#TimesNewRomanPSMT-30"/>
     <use x="350" xlink:href="#TimesNewRomanPSMT-30"/>
     <use x="400" xlink:href="#TimesNewRomanPSMT-38"/>
     <use x="450" xlink:href="#TimesNewRomanPSMT-33"/>
    </g>
    <!-- Vs: 285.57m/s -->
    <g transform="translate(80.076875 323.208)scale(0.14 -0.14)">
     <defs>
      <path d="M 903 2950 
Q 1047 2950 1148 2848 
Q 1250 2747 1250 2603 
Q 1250 2459 1148 2357 
Q 1047 2256 903 2256 
Q 759 2256 657 2357 
Q 556 2459 556 2603 
Q 556 2747 657 2848 
Q 759 2950 903 2950 
z
M 897 609 
Q 1044 609 1145 506 
Q 1247 403 1247 259 
Q 1247 116 1144 14 
Q 1041 -88 897 -88 
Q 753 -88 651 14 
Q 550 116 550 259 
Q 550 403 651 506 
Q 753 609 897 609 
z
" id="TimesNewRomanPSMT-3a" transform="scale(0.015625)"/>
      <path d="M 644 4238 
L 2916 4238 
L 2916 4119 
L 1503 -88 
L 1153 -88 
L 2419 3728 
L 1253 3728 
Q 900 3728 750 3644 
Q 488 3500 328 3200 
L 238 3234 
L 644 4238 
z
" id="TimesNewRomanPSMT-37" transform="scale(0.015625)"/>
      <path d="M 1794 4444 
L 259 -88 
L 9 -88 
L 1544 4444 
L 1794 4444 
z
" id="TimesNewRomanPSMT-2f" transform="scale(0.015625)"/>
     </defs>
     <use xlink:href="#TimesNewRomanPSMT-56"/>
     <use x="72.216797" xlink:href="#TimesNewRomanPSMT-73"/>
     <use x="111.132812" xlink:href="#TimesNewRomanPSMT-3a"/>
     <use x="138.916016" xlink:href="#TimesNewRomanPSMT-20"/>
     <use x="163.916016" xlink:href="#TimesNewRomanPSMT-32"/>
     <use x="213.916016" xlink:href="#TimesNewRomanPSMT-38"/>
     <use x="263.916016" xlink:href="#TimesNewRomanPSMT-35"/>
     <use x="313.916016" xlink:href="#TimesNewRomanPSMT-2e"/>
     <use x="338.916016" xlink:href="#TimesNewRomanPSMT-35"/>
     <use x="388.916016" xlink:href="#TimesNewRomanPSMT-37"/>
     <use x="438.916016" xlink:href="#TimesNewRomanPSMT-6d"/>
     <use x="516.699219" xlink:href="#TimesNewRomanPSMT-2f"/>
     <use x="544.482422" xlink:href="#TimesNewRomanPSMT-73"/>
    </g>
   </g>
  </g>
 </g>
 <defs>
  <clipPath id="p46cd47b3f8">
   <rect height="332.64" width="334.8" x="63.336875" y="7.2"/>
  </clipPath>
 </defs>
</svg>
