<?xml version="1.0" encoding="utf-8" standalone="no"?>
<!DOCTYPE svg PUBLIC "-//W3C//DTD SVG 1.1//EN"
  "http://www.w3.org/Graphics/SVG/1.1/DTD/svg11.dtd">
<svg height="383.471875pt" version="1.1" viewBox="0 0 421.086875 383.471875" width="421.086875pt" xmlns="http://www.w3.org/2000/svg" xmlns:xlink="http://www.w3.org/1999/xlink">
 <metadata>
  <rdf:RDF xmlns:cc="http://creativecommons.org/ns#" xmlns:dc="http://purl.org/dc/elements/1.1/" xmlns:rdf="http://www.w3.org/1999/02/22-rdf-syntax-ns#">
   <cc:Work>
    <dc:type rdf:resource="http://purl.org/dc/dcmitype/StillImage"/>
    <dc:date>2021-06-11T14:39:36.902950</dc:date>
    <dc:format>image/svg+xml</dc:format>
    <dc:creator>
     <cc:Agent>
      <dc:title>Matplotlib v3.4.2, https://matplotlib.org/</dc:title>
     </cc:Agent>
    </dc:creator>
   </cc:Work>
  </rdf:RDF>
 </metadata>
 <defs>
  <style type="text/css">*{stroke-linecap:butt;stroke-linejoin:round;}</style>
 </defs>
 <g id="figure_1">
  <g id="patch_1">
   <path d="M 0 383.471875 
L 421.086875 383.471875 
L 421.086875 0 
L 0 0 
z
" style="fill:#ffffff;"/>
  </g>
  <g id="axes_1">
   <g id="patch_2">
    <path d="M 63.336875 339.84 
L 398.136875 339.84 
L 398.136875 7.2 
L 63.336875 7.2 
z
" style="fill:#ffffff;"/>
   </g>
   <g id="matplotlib.axis_1">
    <g id="xtick_1">
     <g id="line2d_1">
      <path clip-path="url(#p7270e162e5)" d="M 93.773239 339.84 
L 93.773239 7.2 
" style="fill:none;stroke:#000000;stroke-dasharray:0.5,0.825;stroke-dashoffset:0;stroke-width:0.5;"/>
     </g>
     <g id="line2d_2">
      <defs>
       <path d="M 0 0 
L 0 3.5 
" id="md0d4c72cc7" style="stroke:#000000;stroke-width:0.8;"/>
      </defs>
      <g>
       <use style="stroke:#000000;stroke-width:0.8;" x="93.773239" xlink:href="#md0d4c72cc7" y="339.84"/>
      </g>
     </g>
     <g id="text_1">
      <!-- 0.000 -->
      <g transform="translate(78.023239 356.56125)scale(0.14 -0.14)">
       <defs>
        <path d="M 231 2094 
Q 231 2819 450 3342 
Q 669 3866 1031 4122 
Q 1313 4325 1613 4325 
Q 2100 4325 2488 3828 
Q 2972 3213 2972 2159 
Q 2972 1422 2759 906 
Q 2547 391 2217 158 
Q 1888 -75 1581 -75 
Q 975 -75 572 641 
Q 231 1244 231 2094 
z
M 844 2016 
Q 844 1141 1059 588 
Q 1238 122 1591 122 
Q 1759 122 1940 273 
Q 2122 425 2216 781 
Q 2359 1319 2359 2297 
Q 2359 3022 2209 3506 
Q 2097 3866 1919 4016 
Q 1791 4119 1609 4119 
Q 1397 4119 1231 3928 
Q 1006 3669 925 3112 
Q 844 2556 844 2016 
z
" id="TimesNewRomanPSMT-30" transform="scale(0.015625)"/>
        <path d="M 800 606 
Q 947 606 1047 504 
Q 1147 403 1147 259 
Q 1147 116 1045 14 
Q 944 -88 800 -88 
Q 656 -88 554 14 
Q 453 116 453 259 
Q 453 406 554 506 
Q 656 606 800 606 
z
" id="TimesNewRomanPSMT-2e" transform="scale(0.015625)"/>
       </defs>
       <use xlink:href="#TimesNewRomanPSMT-30"/>
       <use x="50" xlink:href="#TimesNewRomanPSMT-2e"/>
       <use x="75" xlink:href="#TimesNewRomanPSMT-30"/>
       <use x="125" xlink:href="#TimesNewRomanPSMT-30"/>
       <use x="175" xlink:href="#TimesNewRomanPSMT-30"/>
      </g>
     </g>
    </g>
    <g id="xtick_2">
     <g id="line2d_3">
      <path clip-path="url(#p7270e162e5)" d="M 154.645966 339.84 
L 154.645966 7.2 
" style="fill:none;stroke:#000000;stroke-dasharray:0.5,0.825;stroke-dashoffset:0;stroke-width:0.5;"/>
     </g>
     <g id="line2d_4">
      <g>
       <use style="stroke:#000000;stroke-width:0.8;" x="154.645966" xlink:href="#md0d4c72cc7" y="339.84"/>
      </g>
     </g>
     <g id="text_2">
      <!-- 0.001 -->
      <g transform="translate(138.895966 356.56125)scale(0.14 -0.14)">
       <defs>
        <path d="M 750 3822 
L 1781 4325 
L 1884 4325 
L 1884 747 
Q 1884 391 1914 303 
Q 1944 216 2037 169 
Q 2131 122 2419 116 
L 2419 0 
L 825 0 
L 825 116 
Q 1125 122 1212 167 
Q 1300 213 1334 289 
Q 1369 366 1369 747 
L 1369 3034 
Q 1369 3497 1338 3628 
Q 1316 3728 1258 3775 
Q 1200 3822 1119 3822 
Q 1003 3822 797 3725 
L 750 3822 
z
" id="TimesNewRomanPSMT-31" transform="scale(0.015625)"/>
       </defs>
       <use xlink:href="#TimesNewRomanPSMT-30"/>
       <use x="50" xlink:href="#TimesNewRomanPSMT-2e"/>
       <use x="75" xlink:href="#TimesNewRomanPSMT-30"/>
       <use x="125" xlink:href="#TimesNewRomanPSMT-30"/>
       <use x="175" xlink:href="#TimesNewRomanPSMT-31"/>
      </g>
     </g>
    </g>
    <g id="xtick_3">
     <g id="line2d_5">
      <path clip-path="url(#p7270e162e5)" d="M 215.518693 339.84 
L 215.518693 7.2 
" style="fill:none;stroke:#000000;stroke-dasharray:0.5,0.825;stroke-dashoffset:0;stroke-width:0.5;"/>
     </g>
     <g id="line2d_6">
      <g>
       <use style="stroke:#000000;stroke-width:0.8;" x="215.518693" xlink:href="#md0d4c72cc7" y="339.84"/>
      </g>
     </g>
     <g id="text_3">
      <!-- 0.002 -->
      <g transform="translate(199.768693 356.56125)scale(0.14 -0.14)">
       <defs>
        <path d="M 2934 816 
L 2638 0 
L 138 0 
L 138 116 
Q 1241 1122 1691 1759 
Q 2141 2397 2141 2925 
Q 2141 3328 1894 3587 
Q 1647 3847 1303 3847 
Q 991 3847 742 3664 
Q 494 3481 375 3128 
L 259 3128 
Q 338 3706 661 4015 
Q 984 4325 1469 4325 
Q 1984 4325 2329 3994 
Q 2675 3663 2675 3213 
Q 2675 2891 2525 2569 
Q 2294 2063 1775 1497 
Q 997 647 803 472 
L 1909 472 
Q 2247 472 2383 497 
Q 2519 522 2628 598 
Q 2738 675 2819 816 
L 2934 816 
z
" id="TimesNewRomanPSMT-32" transform="scale(0.015625)"/>
       </defs>
       <use xlink:href="#TimesNewRomanPSMT-30"/>
       <use x="50" xlink:href="#TimesNewRomanPSMT-2e"/>
       <use x="75" xlink:href="#TimesNewRomanPSMT-30"/>
       <use x="125" xlink:href="#TimesNewRomanPSMT-30"/>
       <use x="175" xlink:href="#TimesNewRomanPSMT-32"/>
      </g>
     </g>
    </g>
    <g id="xtick_4">
     <g id="line2d_7">
      <path clip-path="url(#p7270e162e5)" d="M 276.39142 339.84 
L 276.39142 7.2 
" style="fill:none;stroke:#000000;stroke-dasharray:0.5,0.825;stroke-dashoffset:0;stroke-width:0.5;"/>
     </g>
     <g id="line2d_8">
      <g>
       <use style="stroke:#000000;stroke-width:0.8;" x="276.39142" xlink:href="#md0d4c72cc7" y="339.84"/>
      </g>
     </g>
     <g id="text_4">
      <!-- 0.003 -->
      <g transform="translate(260.64142 356.56125)scale(0.14 -0.14)">
       <defs>
        <path d="M 325 3431 
Q 506 3859 782 4092 
Q 1059 4325 1472 4325 
Q 1981 4325 2253 3994 
Q 2459 3747 2459 3466 
Q 2459 3003 1878 2509 
Q 2269 2356 2469 2072 
Q 2669 1788 2669 1403 
Q 2669 853 2319 450 
Q 1863 -75 997 -75 
Q 569 -75 414 31 
Q 259 138 259 259 
Q 259 350 332 419 
Q 406 488 509 488 
Q 588 488 669 463 
Q 722 447 909 348 
Q 1097 250 1169 231 
Q 1284 197 1416 197 
Q 1734 197 1970 444 
Q 2206 691 2206 1028 
Q 2206 1275 2097 1509 
Q 2016 1684 1919 1775 
Q 1784 1900 1550 2001 
Q 1316 2103 1072 2103 
L 972 2103 
L 972 2197 
Q 1219 2228 1467 2375 
Q 1716 2522 1828 2728 
Q 1941 2934 1941 3181 
Q 1941 3503 1739 3701 
Q 1538 3900 1238 3900 
Q 753 3900 428 3381 
L 325 3431 
z
" id="TimesNewRomanPSMT-33" transform="scale(0.015625)"/>
       </defs>
       <use xlink:href="#TimesNewRomanPSMT-30"/>
       <use x="50" xlink:href="#TimesNewRomanPSMT-2e"/>
       <use x="75" xlink:href="#TimesNewRomanPSMT-30"/>
       <use x="125" xlink:href="#TimesNewRomanPSMT-30"/>
       <use x="175" xlink:href="#TimesNewRomanPSMT-33"/>
      </g>
     </g>
    </g>
    <g id="xtick_5">
     <g id="line2d_9">
      <path clip-path="url(#p7270e162e5)" d="M 337.264148 339.84 
L 337.264148 7.2 
" style="fill:none;stroke:#000000;stroke-dasharray:0.5,0.825;stroke-dashoffset:0;stroke-width:0.5;"/>
     </g>
     <g id="line2d_10">
      <g>
       <use style="stroke:#000000;stroke-width:0.8;" x="337.264148" xlink:href="#md0d4c72cc7" y="339.84"/>
      </g>
     </g>
     <g id="text_5">
      <!-- 0.004 -->
      <g transform="translate(321.514148 356.56125)scale(0.14 -0.14)">
       <defs>
        <path d="M 2978 1563 
L 2978 1119 
L 2409 1119 
L 2409 0 
L 1894 0 
L 1894 1119 
L 100 1119 
L 100 1519 
L 2066 4325 
L 2409 4325 
L 2409 1563 
L 2978 1563 
z
M 1894 1563 
L 1894 3666 
L 406 1563 
L 1894 1563 
z
" id="TimesNewRomanPSMT-34" transform="scale(0.015625)"/>
       </defs>
       <use xlink:href="#TimesNewRomanPSMT-30"/>
       <use x="50" xlink:href="#TimesNewRomanPSMT-2e"/>
       <use x="75" xlink:href="#TimesNewRomanPSMT-30"/>
       <use x="125" xlink:href="#TimesNewRomanPSMT-30"/>
       <use x="175" xlink:href="#TimesNewRomanPSMT-34"/>
      </g>
     </g>
    </g>
    <g id="xtick_6">
     <g id="line2d_11">
      <path clip-path="url(#p7270e162e5)" d="M 398.136875 339.84 
L 398.136875 7.2 
" style="fill:none;stroke:#000000;stroke-dasharray:0.5,0.825;stroke-dashoffset:0;stroke-width:0.5;"/>
     </g>
     <g id="line2d_12">
      <g>
       <use style="stroke:#000000;stroke-width:0.8;" x="398.136875" xlink:href="#md0d4c72cc7" y="339.84"/>
      </g>
     </g>
     <g id="text_6">
      <!-- 0.005 -->
      <g transform="translate(382.386875 356.56125)scale(0.14 -0.14)">
       <defs>
        <path d="M 2778 4238 
L 2534 3706 
L 1259 3706 
L 981 3138 
Q 1809 3016 2294 2522 
Q 2709 2097 2709 1522 
Q 2709 1188 2573 903 
Q 2438 619 2231 419 
Q 2025 219 1772 97 
Q 1413 -75 1034 -75 
Q 653 -75 479 54 
Q 306 184 306 341 
Q 306 428 378 495 
Q 450 563 559 563 
Q 641 563 702 538 
Q 763 513 909 409 
Q 1144 247 1384 247 
Q 1750 247 2026 523 
Q 2303 800 2303 1197 
Q 2303 1581 2056 1914 
Q 1809 2247 1375 2428 
Q 1034 2569 447 2591 
L 1259 4238 
L 2778 4238 
z
" id="TimesNewRomanPSMT-35" transform="scale(0.015625)"/>
       </defs>
       <use xlink:href="#TimesNewRomanPSMT-30"/>
       <use x="50" xlink:href="#TimesNewRomanPSMT-2e"/>
       <use x="75" xlink:href="#TimesNewRomanPSMT-30"/>
       <use x="125" xlink:href="#TimesNewRomanPSMT-30"/>
       <use x="175" xlink:href="#TimesNewRomanPSMT-35"/>
      </g>
     </g>
    </g>
    <g id="text_7">
     <!-- Time (sec) -->
     <g transform="translate(200.858906 373.277188)scale(0.14 -0.14)">
      <defs>
       <path d="M 3703 4238 
L 3750 3244 
L 3631 3244 
Q 3597 3506 3538 3619 
Q 3441 3800 3280 3886 
Q 3119 3972 2856 3972 
L 2259 3972 
L 2259 734 
Q 2259 344 2344 247 
Q 2463 116 2709 116 
L 2856 116 
L 2856 0 
L 1059 0 
L 1059 116 
L 1209 116 
Q 1478 116 1591 278 
Q 1659 378 1659 734 
L 1659 3972 
L 1150 3972 
Q 853 3972 728 3928 
Q 566 3869 450 3700 
Q 334 3531 313 3244 
L 194 3244 
L 244 4238 
L 3703 4238 
z
" id="TimesNewRomanPSMT-54" transform="scale(0.015625)"/>
       <path d="M 928 4444 
Q 1059 4444 1151 4351 
Q 1244 4259 1244 4128 
Q 1244 3997 1151 3903 
Q 1059 3809 928 3809 
Q 797 3809 703 3903 
Q 609 3997 609 4128 
Q 609 4259 701 4351 
Q 794 4444 928 4444 
z
M 1188 2947 
L 1188 647 
Q 1188 378 1227 289 
Q 1266 200 1342 156 
Q 1419 113 1622 113 
L 1622 0 
L 231 0 
L 231 113 
Q 441 113 512 153 
Q 584 194 626 287 
Q 669 381 669 647 
L 669 1750 
Q 669 2216 641 2353 
Q 619 2453 572 2492 
Q 525 2531 444 2531 
Q 356 2531 231 2484 
L 188 2597 
L 1050 2947 
L 1188 2947 
z
" id="TimesNewRomanPSMT-69" transform="scale(0.015625)"/>
       <path d="M 1050 2338 
Q 1363 2650 1419 2697 
Q 1559 2816 1721 2881 
Q 1884 2947 2044 2947 
Q 2313 2947 2506 2790 
Q 2700 2634 2766 2338 
Q 3088 2713 3309 2830 
Q 3531 2947 3766 2947 
Q 3994 2947 4170 2830 
Q 4347 2713 4450 2447 
Q 4519 2266 4519 1878 
L 4519 647 
Q 4519 378 4559 278 
Q 4591 209 4675 161 
Q 4759 113 4950 113 
L 4950 0 
L 3538 0 
L 3538 113 
L 3597 113 
Q 3781 113 3884 184 
Q 3956 234 3988 344 
Q 4000 397 4000 647 
L 4000 1878 
Q 4000 2228 3916 2372 
Q 3794 2572 3525 2572 
Q 3359 2572 3192 2489 
Q 3025 2406 2788 2181 
L 2781 2147 
L 2788 2013 
L 2788 647 
Q 2788 353 2820 281 
Q 2853 209 2943 161 
Q 3034 113 3253 113 
L 3253 0 
L 1806 0 
L 1806 113 
Q 2044 113 2133 169 
Q 2222 225 2256 338 
Q 2272 391 2272 647 
L 2272 1878 
Q 2272 2228 2169 2381 
Q 2031 2581 1784 2581 
Q 1616 2581 1450 2491 
Q 1191 2353 1050 2181 
L 1050 647 
Q 1050 366 1089 281 
Q 1128 197 1204 155 
Q 1281 113 1516 113 
L 1516 0 
L 100 0 
L 100 113 
Q 297 113 375 155 
Q 453 197 493 289 
Q 534 381 534 647 
L 534 1741 
Q 534 2213 506 2350 
Q 484 2453 437 2492 
Q 391 2531 309 2531 
Q 222 2531 100 2484 
L 53 2597 
L 916 2947 
L 1050 2947 
L 1050 2338 
z
" id="TimesNewRomanPSMT-6d" transform="scale(0.015625)"/>
       <path d="M 681 1784 
Q 678 1147 991 784 
Q 1303 422 1725 422 
Q 2006 422 2214 576 
Q 2422 731 2563 1106 
L 2659 1044 
Q 2594 616 2278 264 
Q 1963 -88 1488 -88 
Q 972 -88 605 314 
Q 238 716 238 1394 
Q 238 2128 614 2539 
Q 991 2950 1559 2950 
Q 2041 2950 2350 2633 
Q 2659 2316 2659 1784 
L 681 1784 
z
M 681 1966 
L 2006 1966 
Q 1991 2241 1941 2353 
Q 1863 2528 1708 2628 
Q 1553 2728 1384 2728 
Q 1125 2728 920 2526 
Q 716 2325 681 1966 
z
" id="TimesNewRomanPSMT-65" transform="scale(0.015625)"/>
       <path id="TimesNewRomanPSMT-20" transform="scale(0.015625)"/>
       <path d="M 1988 -1253 
L 1988 -1369 
Q 1516 -1131 1200 -813 
Q 750 -359 506 256 
Q 263 872 263 1534 
Q 263 2503 741 3301 
Q 1219 4100 1988 4444 
L 1988 4313 
Q 1603 4100 1356 3731 
Q 1109 3363 987 2797 
Q 866 2231 866 1616 
Q 866 947 969 400 
Q 1050 -31 1165 -292 
Q 1281 -553 1476 -793 
Q 1672 -1034 1988 -1253 
z
" id="TimesNewRomanPSMT-28" transform="scale(0.015625)"/>
       <path d="M 2050 2947 
L 2050 1972 
L 1947 1972 
Q 1828 2431 1642 2597 
Q 1456 2763 1169 2763 
Q 950 2763 815 2647 
Q 681 2531 681 2391 
Q 681 2216 781 2091 
Q 878 1963 1175 1819 
L 1631 1597 
Q 2266 1288 2266 781 
Q 2266 391 1970 151 
Q 1675 -88 1309 -88 
Q 1047 -88 709 6 
Q 606 38 541 38 
Q 469 38 428 -44 
L 325 -44 
L 325 978 
L 428 978 
Q 516 541 762 319 
Q 1009 97 1316 97 
Q 1531 97 1667 223 
Q 1803 350 1803 528 
Q 1803 744 1651 891 
Q 1500 1038 1047 1263 
Q 594 1488 453 1669 
Q 313 1847 313 2119 
Q 313 2472 555 2709 
Q 797 2947 1181 2947 
Q 1350 2947 1591 2875 
Q 1750 2828 1803 2828 
Q 1853 2828 1881 2850 
Q 1909 2872 1947 2947 
L 2050 2947 
z
" id="TimesNewRomanPSMT-73" transform="scale(0.015625)"/>
       <path d="M 2631 1088 
Q 2516 522 2178 217 
Q 1841 -88 1431 -88 
Q 944 -88 581 321 
Q 219 731 219 1428 
Q 219 2103 620 2525 
Q 1022 2947 1584 2947 
Q 2006 2947 2278 2723 
Q 2550 2500 2550 2259 
Q 2550 2141 2473 2067 
Q 2397 1994 2259 1994 
Q 2075 1994 1981 2113 
Q 1928 2178 1911 2362 
Q 1894 2547 1784 2644 
Q 1675 2738 1481 2738 
Q 1169 2738 978 2506 
Q 725 2200 725 1697 
Q 725 1184 976 792 
Q 1228 400 1656 400 
Q 1963 400 2206 609 
Q 2378 753 2541 1131 
L 2631 1088 
z
" id="TimesNewRomanPSMT-63" transform="scale(0.015625)"/>
       <path d="M 144 4313 
L 144 4444 
Q 619 4209 934 3891 
Q 1381 3434 1625 2820 
Q 1869 2206 1869 1541 
Q 1869 572 1392 -226 
Q 916 -1025 144 -1369 
L 144 -1253 
Q 528 -1038 776 -670 
Q 1025 -303 1145 264 
Q 1266 831 1266 1447 
Q 1266 2113 1163 2663 
Q 1084 3094 967 3353 
Q 850 3613 656 3853 
Q 463 4094 144 4313 
z
" id="TimesNewRomanPSMT-29" transform="scale(0.015625)"/>
      </defs>
      <use xlink:href="#TimesNewRomanPSMT-54"/>
      <use x="57.583984" xlink:href="#TimesNewRomanPSMT-69"/>
      <use x="85.367188" xlink:href="#TimesNewRomanPSMT-6d"/>
      <use x="163.150391" xlink:href="#TimesNewRomanPSMT-65"/>
      <use x="207.535156" xlink:href="#TimesNewRomanPSMT-20"/>
      <use x="232.535156" xlink:href="#TimesNewRomanPSMT-28"/>
      <use x="265.835938" xlink:href="#TimesNewRomanPSMT-73"/>
      <use x="304.751953" xlink:href="#TimesNewRomanPSMT-65"/>
      <use x="349.136719" xlink:href="#TimesNewRomanPSMT-63"/>
      <use x="393.521484" xlink:href="#TimesNewRomanPSMT-29"/>
     </g>
    </g>
   </g>
   <g id="matplotlib.axis_2">
    <g id="ytick_1">
     <g id="line2d_13">
      <path clip-path="url(#p7270e162e5)" d="M 63.336875 281.328323 
L 398.136875 281.328323 
" style="fill:none;stroke:#000000;stroke-dasharray:0.5,0.825;stroke-dashoffset:0;stroke-width:0.5;"/>
     </g>
     <g id="line2d_14">
      <defs>
       <path d="M 0 0 
L -3.5 0 
" id="m735e9331fc" style="stroke:#000000;stroke-width:0.8;"/>
      </defs>
      <g>
       <use style="stroke:#000000;stroke-width:0.8;" x="63.336875" xlink:href="#m735e9331fc" y="281.328323"/>
      </g>
     </g>
     <g id="text_8">
      <!-- −0.04 -->
      <g transform="translate(23.942188 286.188948)scale(0.14 -0.14)">
       <defs>
        <path d="M 3484 2000 
L 116 2000 
L 116 2256 
L 3484 2256 
L 3484 2000 
z
" id="TimesNewRomanPSMT-2212" transform="scale(0.015625)"/>
       </defs>
       <use xlink:href="#TimesNewRomanPSMT-2212"/>
       <use x="56.396484" xlink:href="#TimesNewRomanPSMT-30"/>
       <use x="106.396484" xlink:href="#TimesNewRomanPSMT-2e"/>
       <use x="131.396484" xlink:href="#TimesNewRomanPSMT-30"/>
       <use x="181.396484" xlink:href="#TimesNewRomanPSMT-34"/>
      </g>
     </g>
    </g>
    <g id="ytick_2">
     <g id="line2d_15">
      <path clip-path="url(#p7270e162e5)" d="M 63.336875 217.192588 
L 398.136875 217.192588 
" style="fill:none;stroke:#000000;stroke-dasharray:0.5,0.825;stroke-dashoffset:0;stroke-width:0.5;"/>
     </g>
     <g id="line2d_16">
      <g>
       <use style="stroke:#000000;stroke-width:0.8;" x="63.336875" xlink:href="#m735e9331fc" y="217.192588"/>
      </g>
     </g>
     <g id="text_9">
      <!-- −0.02 -->
      <g transform="translate(23.942188 222.053213)scale(0.14 -0.14)">
       <use xlink:href="#TimesNewRomanPSMT-2212"/>
       <use x="56.396484" xlink:href="#TimesNewRomanPSMT-30"/>
       <use x="106.396484" xlink:href="#TimesNewRomanPSMT-2e"/>
       <use x="131.396484" xlink:href="#TimesNewRomanPSMT-30"/>
       <use x="181.396484" xlink:href="#TimesNewRomanPSMT-32"/>
      </g>
     </g>
    </g>
    <g id="ytick_3">
     <g id="line2d_17">
      <path clip-path="url(#p7270e162e5)" d="M 63.336875 153.056852 
L 398.136875 153.056852 
" style="fill:none;stroke:#000000;stroke-dasharray:0.5,0.825;stroke-dashoffset:0;stroke-width:0.5;"/>
     </g>
     <g id="line2d_18">
      <g>
       <use style="stroke:#000000;stroke-width:0.8;" x="63.336875" xlink:href="#m735e9331fc" y="153.056852"/>
      </g>
     </g>
     <g id="text_10">
      <!-- 0.00 -->
      <g transform="translate(31.836875 157.917477)scale(0.14 -0.14)">
       <use xlink:href="#TimesNewRomanPSMT-30"/>
       <use x="50" xlink:href="#TimesNewRomanPSMT-2e"/>
       <use x="75" xlink:href="#TimesNewRomanPSMT-30"/>
       <use x="125" xlink:href="#TimesNewRomanPSMT-30"/>
      </g>
     </g>
    </g>
    <g id="ytick_4">
     <g id="line2d_19">
      <path clip-path="url(#p7270e162e5)" d="M 63.336875 88.921116 
L 398.136875 88.921116 
" style="fill:none;stroke:#000000;stroke-dasharray:0.5,0.825;stroke-dashoffset:0;stroke-width:0.5;"/>
     </g>
     <g id="line2d_20">
      <g>
       <use style="stroke:#000000;stroke-width:0.8;" x="63.336875" xlink:href="#m735e9331fc" y="88.921116"/>
      </g>
     </g>
     <g id="text_11">
      <!-- 0.02 -->
      <g transform="translate(31.836875 93.781741)scale(0.14 -0.14)">
       <use xlink:href="#TimesNewRomanPSMT-30"/>
       <use x="50" xlink:href="#TimesNewRomanPSMT-2e"/>
       <use x="75" xlink:href="#TimesNewRomanPSMT-30"/>
       <use x="125" xlink:href="#TimesNewRomanPSMT-32"/>
      </g>
     </g>
    </g>
    <g id="ytick_5">
     <g id="line2d_21">
      <path clip-path="url(#p7270e162e5)" d="M 63.336875 24.785381 
L 398.136875 24.785381 
" style="fill:none;stroke:#000000;stroke-dasharray:0.5,0.825;stroke-dashoffset:0;stroke-width:0.5;"/>
     </g>
     <g id="line2d_22">
      <g>
       <use style="stroke:#000000;stroke-width:0.8;" x="63.336875" xlink:href="#m735e9331fc" y="24.785381"/>
      </g>
     </g>
     <g id="text_12">
      <!-- 0.04 -->
      <g transform="translate(31.836875 29.646006)scale(0.14 -0.14)">
       <use xlink:href="#TimesNewRomanPSMT-30"/>
       <use x="50" xlink:href="#TimesNewRomanPSMT-2e"/>
       <use x="75" xlink:href="#TimesNewRomanPSMT-30"/>
       <use x="125" xlink:href="#TimesNewRomanPSMT-34"/>
      </g>
     </g>
    </g>
    <g id="text_13">
     <!-- Volatage (V) -->
     <g transform="translate(16.92125 209.352344)rotate(-90)scale(0.14 -0.14)">
      <defs>
       <path d="M 4544 4238 
L 4544 4122 
Q 4319 4081 4203 3978 
Q 4038 3825 3909 3509 
L 2431 -97 
L 2316 -97 
L 728 3556 
Q 606 3838 556 3900 
Q 478 3997 364 4051 
Q 250 4106 56 4122 
L 56 4238 
L 1788 4238 
L 1788 4122 
Q 1494 4094 1406 4022 
Q 1319 3950 1319 3838 
Q 1319 3681 1463 3350 
L 2541 866 
L 3541 3319 
Q 3688 3681 3688 3822 
Q 3688 3913 3597 3995 
Q 3506 4078 3291 4113 
Q 3275 4116 3238 4122 
L 3238 4238 
L 4544 4238 
z
" id="TimesNewRomanPSMT-56" transform="scale(0.015625)"/>
       <path d="M 1600 2947 
Q 2250 2947 2644 2453 
Q 2978 2031 2978 1484 
Q 2978 1100 2793 706 
Q 2609 313 2286 112 
Q 1963 -88 1566 -88 
Q 919 -88 538 428 
Q 216 863 216 1403 
Q 216 1797 411 2186 
Q 606 2575 925 2761 
Q 1244 2947 1600 2947 
z
M 1503 2744 
Q 1338 2744 1170 2645 
Q 1003 2547 900 2300 
Q 797 2053 797 1666 
Q 797 1041 1045 587 
Q 1294 134 1700 134 
Q 2003 134 2200 384 
Q 2397 634 2397 1244 
Q 2397 2006 2069 2444 
Q 1847 2744 1503 2744 
z
" id="TimesNewRomanPSMT-6f" transform="scale(0.015625)"/>
       <path d="M 1184 4444 
L 1184 647 
Q 1184 378 1223 290 
Q 1263 203 1344 158 
Q 1425 113 1647 113 
L 1647 0 
L 244 0 
L 244 113 
Q 441 113 512 153 
Q 584 194 625 287 
Q 666 381 666 647 
L 666 3247 
Q 666 3731 644 3842 
Q 622 3953 573 3993 
Q 525 4034 450 4034 
Q 369 4034 244 3984 
L 191 4094 
L 1044 4444 
L 1184 4444 
z
" id="TimesNewRomanPSMT-6c" transform="scale(0.015625)"/>
       <path d="M 1822 413 
Q 1381 72 1269 19 
Q 1100 -59 909 -59 
Q 613 -59 420 144 
Q 228 347 228 678 
Q 228 888 322 1041 
Q 450 1253 767 1440 
Q 1084 1628 1822 1897 
L 1822 2009 
Q 1822 2438 1686 2597 
Q 1550 2756 1291 2756 
Q 1094 2756 978 2650 
Q 859 2544 859 2406 
L 866 2225 
Q 866 2081 792 2003 
Q 719 1925 600 1925 
Q 484 1925 411 2006 
Q 338 2088 338 2228 
Q 338 2497 613 2722 
Q 888 2947 1384 2947 
Q 1766 2947 2009 2819 
Q 2194 2722 2281 2516 
Q 2338 2381 2338 1966 
L 2338 994 
Q 2338 584 2353 492 
Q 2369 400 2405 369 
Q 2441 338 2488 338 
Q 2538 338 2575 359 
Q 2641 400 2828 588 
L 2828 413 
Q 2478 -56 2159 -56 
Q 2006 -56 1915 50 
Q 1825 156 1822 413 
z
M 1822 616 
L 1822 1706 
Q 1350 1519 1213 1441 
Q 966 1303 859 1153 
Q 753 1003 753 825 
Q 753 600 887 451 
Q 1022 303 1197 303 
Q 1434 303 1822 616 
z
" id="TimesNewRomanPSMT-61" transform="scale(0.015625)"/>
       <path d="M 1031 3803 
L 1031 2863 
L 1700 2863 
L 1700 2644 
L 1031 2644 
L 1031 788 
Q 1031 509 1111 412 
Q 1191 316 1316 316 
Q 1419 316 1516 380 
Q 1613 444 1666 569 
L 1788 569 
Q 1678 263 1478 108 
Q 1278 -47 1066 -47 
Q 922 -47 784 33 
Q 647 113 581 261 
Q 516 409 516 719 
L 516 2644 
L 63 2644 
L 63 2747 
Q 234 2816 414 2980 
Q 594 3144 734 3369 
Q 806 3488 934 3803 
L 1031 3803 
z
" id="TimesNewRomanPSMT-74" transform="scale(0.015625)"/>
       <path d="M 966 1044 
Q 703 1172 562 1401 
Q 422 1631 422 1909 
Q 422 2334 742 2640 
Q 1063 2947 1563 2947 
Q 1972 2947 2272 2747 
L 2878 2747 
Q 3013 2747 3034 2739 
Q 3056 2731 3066 2713 
Q 3084 2684 3084 2613 
Q 3084 2531 3069 2500 
Q 3059 2484 3036 2475 
Q 3013 2466 2878 2466 
L 2506 2466 
Q 2681 2241 2681 1891 
Q 2681 1491 2375 1206 
Q 2069 922 1553 922 
Q 1341 922 1119 984 
Q 981 866 932 777 
Q 884 688 884 625 
Q 884 572 936 522 
Q 988 472 1138 450 
Q 1225 438 1575 428 
Q 2219 413 2409 384 
Q 2700 344 2873 169 
Q 3047 -6 3047 -263 
Q 3047 -616 2716 -925 
Q 2228 -1381 1444 -1381 
Q 841 -1381 425 -1109 
Q 191 -953 191 -784 
Q 191 -709 225 -634 
Q 278 -519 444 -313 
Q 466 -284 763 25 
Q 600 122 533 198 
Q 466 275 466 372 
Q 466 481 555 628 
Q 644 775 966 1044 
z
M 1509 2797 
Q 1278 2797 1122 2612 
Q 966 2428 966 2047 
Q 966 1553 1178 1281 
Q 1341 1075 1591 1075 
Q 1828 1075 1981 1253 
Q 2134 1431 2134 1813 
Q 2134 2309 1919 2591 
Q 1759 2797 1509 2797 
z
M 934 0 
Q 788 -159 713 -296 
Q 638 -434 638 -550 
Q 638 -700 819 -813 
Q 1131 -1006 1722 -1006 
Q 2284 -1006 2551 -807 
Q 2819 -609 2819 -384 
Q 2819 -222 2659 -153 
Q 2497 -84 2016 -72 
Q 1313 -53 934 0 
z
" id="TimesNewRomanPSMT-67" transform="scale(0.015625)"/>
      </defs>
      <use xlink:href="#TimesNewRomanPSMT-56"/>
      <use x="59.341797" xlink:href="#TimesNewRomanPSMT-6f"/>
      <use x="109.341797" xlink:href="#TimesNewRomanPSMT-6c"/>
      <use x="137.125" xlink:href="#TimesNewRomanPSMT-61"/>
      <use x="181.509766" xlink:href="#TimesNewRomanPSMT-74"/>
      <use x="209.292969" xlink:href="#TimesNewRomanPSMT-61"/>
      <use x="253.677734" xlink:href="#TimesNewRomanPSMT-67"/>
      <use x="303.677734" xlink:href="#TimesNewRomanPSMT-65"/>
      <use x="348.0625" xlink:href="#TimesNewRomanPSMT-20"/>
      <use x="373.0625" xlink:href="#TimesNewRomanPSMT-28"/>
      <use x="406.363281" xlink:href="#TimesNewRomanPSMT-56"/>
      <use x="478.580078" xlink:href="#TimesNewRomanPSMT-29"/>
     </g>
    </g>
   </g>
   <g id="LineCollection_1">
    <path clip-path="url(#p7270e162e5)" d="M 78.555057 153.056852 
L 382.918693 153.056852 
" style="fill:none;stroke:#1f77b4;stroke-width:1.5;"/>
   </g>
   <g id="line2d_23">
    <path clip-path="url(#p7270e162e5)" d="M 78.555057 153.076734 
L 81.690002 152.996565 
L 81.720439 152.95648 
L 81.781311 153.036649 
L 81.903057 153.036649 
L 81.933493 152.996565 
L 81.994366 153.076734 
L 86.22502 153.036649 
L 86.255457 152.95648 
L 86.31633 152.996565 
L 86.438075 153.036649 
L 86.529384 152.996565 
L 86.55982 153.036649 
L 86.681566 153.036649 
L 86.772875 152.95648 
L 86.803311 153.036649 
L 90.607857 152.996565 
L 90.638293 152.916395 
L 90.729602 152.95648 
L 97.821275 152.916395 
L 97.851711 152.836225 
L 97.912584 152.916395 
L 98.643057 152.87631 
L 98.673493 152.79614 
L 98.734366 152.836225 
L 98.856111 152.836225 
L 110.117566 152.916395 
L 110.239311 152.916395 
L 111.182839 152.996565 
L 111.33502 153.036649 
L 111.76113 153.116819 
L 111.852439 153.156904 
L 111.882875 153.116819 
L 112.461166 153.196989 
L 112.582911 153.237074 
L 112.704657 153.237074 
L 112.856839 153.277158 
L 113.00902 153.237074 
L 113.191639 153.317243 
L 113.526439 153.397413 
L 113.648184 153.437498 
L 113.739493 153.397413 
L 113.76993 153.437498 
L 114.10473 153.477583 
L 114.165602 153.597837 
L 114.226475 153.517667 
L 114.378657 153.597837 
L 114.530839 153.637922 
L 114.561275 153.597837 
L 114.622148 153.678007 
L 114.865639 153.758177 
L 115.01782 153.838346 
L 115.139566 153.798261 
L 115.322184 153.878431 
L 115.809166 153.958601 
L 115.961348 154.03877 
L 116.02222 153.998685 
L 116.052657 154.03877 
L 116.174402 154.11894 
L 116.204839 154.078855 
L 116.509202 154.159025 
L 116.600511 154.19911 
L 116.630948 154.159025 
L 116.965748 154.239194 
L 117.148366 154.319364 
L 117.239675 154.279279 
L 117.270111 154.319364 
L 117.513602 154.399534 
L 117.635348 154.479703 
L 117.665784 154.439619 
L 118.03102 154.519788 
L 118.213639 154.599958 
L 118.518002 154.680128 
L 118.70062 154.760297 
L 118.822366 154.840467 
L 118.974548 154.880552 
L 119.248475 154.960721 
L 119.491966 155.121061 
L 119.674584 155.201231 
L 119.887639 155.36157 
L 119.918075 155.321485 
L 119.948511 155.401655 
L 120.13113 155.481824 
L 120.252875 155.561994 
L 120.405057 155.722333 
L 120.587675 155.802503 
L 120.770293 156.002927 
L 122.170366 158.007169 
L 122.687784 159.089459 
L 122.839966 159.450223 
L 124.087857 163.017773 
L 124.970511 166.064221 
L 125.214002 166.986172 
L 125.761857 169.311093 
L 125.914039 169.992535 
L 126.614075 173.159236 
L 127.040184 175.243649 
L 127.435857 177.24789 
L 128.622875 182.98002 
L 128.714184 183.420955 
L 129.07942 185.144602 
L 129.231602 185.785961 
L 129.688148 187.629862 
L 130.905602 191.999109 
L 132.062184 194.764962 
L 132.457857 195.125726 
L 132.579602 195.125726 
L 132.670911 195.205896 
L 132.701348 195.165811 
L 132.85353 195.205896 
L 133.127457 195.125726 
L 133.76662 194.123605 
L 134.314475 192.92106 
L 134.375348 192.84089 
L 135.136257 190.556055 
L 135.501493 189.19317 
L 135.714548 188.351389 
L 136.079784 186.467403 
L 136.658075 182.859766 
L 137.510293 176.606532 
L 138.027711 172.237286 
L 138.423384 168.910244 
L 140.614802 144.699004 
L 145.971602 68.658072 
L 148.650002 38.193601 
L 150.141384 27.29052 
L 150.810984 24.28416 
L 151.480584 22.801028 
L 151.876257 22.440264 
L 152.150184 22.360091 
L 152.27193 22.360091 
L 152.51542 22.520421 
L 152.60673 22.600594 
L 152.971966 23.241948 
L 153.27633 24.003566 
L 153.580693 25.045769 
L 154.676402 31.379169 
L 155.19382 35.507914 
L 156.228657 46.010137 
L 158.115711 72.225623 
L 160.611493 120.287339 
L 161.615893 142.293914 
L 163.015966 174.121272 
L 165.542184 231.442586 
L 167.398802 268.280553 
L 168.58582 288.162634 
L 170.320693 309.608017 
L 171.294657 317.584896 
L 172.086002 322.074404 
L 172.633857 323.83813 
L 172.664293 323.83813 
L 172.877348 324.439406 
L 172.968657 324.519579 
L 173.120839 324.679909 
L 173.394766 324.599736 
L 174.216548 323.397197 
L 175.70793 317.103885 
L 176.681893 309.968781 
L 177.655857 301.430705 
L 180.577748 265.514693 
L 182.860475 230.841317 
L 185.812802 182.178324 
L 189.739093 126.861251 
L 193.11753 88.099217 
L 193.756693 82.166662 
L 194.334984 77.797411 
L 194.882839 73.468256 
L 195.308948 70.141211 
L 197.013384 57.514488 
L 197.439493 54.708547 
L 197.987348 51.782357 
L 200.330948 42.923608 
L 200.48313 42.562845 
L 200.72662 42.001657 
L 201.06142 41.400381 
L 201.335348 40.718946 
L 201.365784 40.718946 
L 201.578839 40.318091 
L 201.791893 40.037497 
L 201.913639 39.997419 
L 202.06582 40.037497 
L 202.674548 39.957327 
L 202.857166 39.877158 
L 202.978911 39.917249 
L 203.100657 39.877158 
L 203.252839 39.997419 
L 203.678948 40.39826 
L 203.892002 40.478433 
L 204.044184 40.518512 
L 204.287675 40.598685 
L 204.805093 41.440473 
L 205.231202 42.282251 
L 205.657311 43.003778 
L 206.052984 44.12615 
L 208.274839 50.25913 
L 209.887966 57.073555 
L 210.344511 59.398472 
L 211.348911 63.807807 
L 211.805457 66.09264 
L 212.962039 72.746729 
L 214.331675 82.48734 
L 215.396948 91.746937 
L 217.46662 112.390627 
L 218.13622 119.565812 
L 223.24953 181.456797 
L 224.345239 195.726998 
L 225.745311 213.564753 
L 226.810584 227.474188 
L 227.388875 234.689461 
L 228.088911 243.267609 
L 228.636766 249.320423 
L 229.580293 259.261462 
L 230.919493 270.605463 
L 232.076075 277.540146 
L 232.228257 278.1815 
L 232.86742 280.987439 
L 233.080475 281.82923 
L 233.445711 282.831348 
L 233.810948 283.472705 
L 234.084875 283.913641 
L 234.480548 284.274405 
L 234.754475 284.073971 
L 234.815348 283.993798 
L 235.667566 282.711087 
L 236.063239 281.428375 
L 237.524184 273.170902 
L 239.106875 259.782568 
L 240.32433 247.55669 
L 242.424439 221.461462 
L 243.185348 211.079493 
L 244.554984 193.602502 
L 249.850911 118.483522 
L 251.342293 102.048743 
L 252.529311 92.067616 
L 253.95982 83.28904 
L 254.081566 82.767934 
L 254.38593 81.40505 
L 254.62942 80.483102 
L 255.025093 78.91979 
L 255.603384 77.156057 
L 255.846875 76.43453 
L 256.577348 74.791052 
L 256.912148 74.510461 
L 257.033893 74.470376 
L 257.186075 74.350119 
L 257.39913 74.310034 
L 257.520875 74.229861 
L 257.673057 74.269946 
L 257.886111 74.310034 
L 258.038293 74.470376 
L 258.129602 74.55054 
L 258.373093 74.710882 
L 258.64702 74.791052 
L 258.768766 74.791052 
L 258.98182 74.83114 
L 259.134002 74.951388 
L 259.164439 74.911303 
L 259.225311 74.991476 
L 259.40793 75.191903 
L 259.712293 75.432409 
L 259.834039 75.512579 
L 260.016657 75.672915 
L 260.047093 75.63283 
L 260.138402 75.713003 
L 261.142802 77.196142 
L 262.634184 81.40505 
L 263.060293 83.08861 
L 263.973384 87.137181 
L 266.195239 99.40314 
L 268.082293 112.550966 
L 269.756293 124.937179 
L 270.091093 127.2621 
L 272.282511 143.696883 
L 274.200002 155.642164 
L 274.626111 157.76666 
L 275.021784 159.650647 
L 277.15233 167.62753 
L 277.243639 167.868038 
L 277.82193 169.752026 
L 277.943675 170.03262 
L 278.187166 170.794231 
L 279.313311 173.479916 
L 279.708984 174.121272 
L 279.922039 174.522121 
L 281.41342 176.325938 
L 281.50473 176.366024 
L 281.656911 176.526363 
L 281.809093 176.566448 
L 281.83953 176.646618 
L 281.930839 176.606532 
L 282.143893 176.766871 
L 282.235202 176.766871 
L 282.41782 176.887126 
L 282.448257 176.847041 
L 282.50913 176.92721 
L 282.783057 177.007381 
L 282.904802 177.007381 
L 283.17873 176.92721 
L 283.330911 176.806957 
L 283.51353 176.726787 
L 283.787457 176.646618 
L 284.000511 176.526363 
L 284.122257 176.446193 
L 284.609239 175.965174 
L 284.700548 175.92509 
L 284.883166 175.724666 
L 284.913602 175.764751 
L 284.944039 175.644496 
L 285.004911 175.604411 
L 285.18753 175.403988 
L 286.070184 174.081188 
L 286.374548 173.560085 
L 286.709348 172.958812 
L 287.135457 172.117031 
L 287.19633 172.076945 
L 287.622439 171.235164 
L 287.683311 171.195079 
L 287.987675 170.673976 
L 289.022511 169.391262 
L 289.052948 169.431346 
L 289.11382 169.351177 
L 289.20513 169.311093 
L 289.235566 169.351177 
L 289.722548 169.271007 
L 289.844293 169.190838 
L 289.935602 169.190838 
L 290.087784 169.150754 
L 290.270402 169.230923 
L 291.670475 171.235164 
L 292.096584 172.477795 
L 292.21833 172.798473 
L 293.070548 175.323818 
L 293.618402 177.047465 
L 294.166257 178.731029 
L 294.47062 179.813319 
L 294.89673 181.216287 
L 295.505457 183.180444 
L 295.962002 184.663584 
L 296.327239 185.745875 
L 296.357675 185.745875 
L 296.692475 186.627742 
L 296.90553 187.068674 
L 297.57513 188.551813 
L 298.792584 190.315546 
L 298.975202 190.51597 
L 299.15782 190.59614 
L 299.49262 190.676309 
L 299.857857 190.996988 
L 299.949166 191.077158 
L 300.131784 191.197412 
L 300.16222 191.157327 
L 300.223093 191.237497 
L 300.405711 191.197412 
L 300.557893 191.077158 
L 300.649202 190.996988 
L 300.801384 190.956903 
L 301.440548 190.876733 
L 302.17102 190.075037 
L 302.323202 189.994867 
L 302.566693 189.834528 
L 302.749311 189.754358 
L 302.93193 189.553934 
L 303.479784 188.912577 
L 303.51022 188.992746 
L 303.540657 188.872492 
L 303.723275 188.672068 
L 304.484184 187.509608 
L 305.366839 185.425197 
L 305.427711 185.345026 
L 306.18862 183.060191 
L 307.984366 175.524241 
L 308.410475 173.43983 
L 310.388839 162.456586 
L 312.762875 146.101973 
L 313.188984 143.135695 
L 316.019566 125.177689 
L 316.536984 122.692429 
L 317.32833 119.084794 
L 317.602257 118.122758 
L 318.058802 116.278856 
L 319.611057 110.586809 
L 321.711166 105.335696 
L 322.01553 104.774508 
L 322.502511 103.772391 
L 322.59382 103.692218 
L 323.172111 102.77027 
L 323.68953 101.687979 
L 324.115639 100.966452 
L 324.328693 100.685852 
L 324.420002 100.605689 
L 325.27222 99.603561 
L 325.36353 99.683734 
L 325.485275 99.603561 
L 325.69833 99.683734 
L 325.880948 99.763904 
L 326.063566 99.844074 
L 327.341893 101.687979 
L 329.168075 106.77875 
L 329.746366 109.26401 
L 330.233348 111.58893 
L 330.811639 114.675463 
L 334.768366 136.080764 
L 335.468402 140.009078 
L 335.864075 142.01332 
L 338.146802 153.517667 
L 338.268548 154.078855 
L 339.790366 161.534634 
L 342.01222 169.912365 
L 342.10353 170.152874 
L 342.407893 171.195079 
L 344.538439 176.526363 
L 344.842802 177.087551 
L 345.055857 177.408229 
L 345.11673 177.488399 
L 348.251675 181.456797 
L 348.282111 181.456797 
L 348.312548 181.617136 
L 348.403857 181.577051 
L 348.677784 181.657222 
L 348.860402 181.73739 
L 349.012584 181.697307 
L 349.225639 181.777475 
L 349.37782 181.817561 
L 351.447493 181.73739 
L 351.569239 181.657222 
L 351.751857 181.577051 
L 351.964911 181.416711 
L 351.995348 181.456797 
L 352.025784 181.376629 
L 352.512766 180.895609 
L 352.604075 180.815439 
L 352.786693 180.574931 
L 352.878002 180.494761 
L 353.091057 180.214167 
L 353.243239 180.133998 
L 354.369384 178.771114 
L 354.39982 178.811198 
L 354.460693 178.731029 
L 354.552002 178.650859 
L 354.917239 178.330181 
L 355.06942 178.25001 
L 355.373784 178.009501 
L 355.617275 177.929332 
L 355.83033 177.768992 
L 355.952075 177.809077 
L 356.16513 177.648738 
L 356.286875 177.648738 
L 356.591239 177.568568 
L 356.773857 177.488399 
L 357.108657 177.408229 
L 357.260839 177.368143 
L 357.41302 177.408229 
L 357.565202 177.368143 
L 357.869566 177.328059 
L 357.991311 177.24789 
L 358.234802 177.16772 
L 358.478293 177.007381 
L 358.721784 176.92721 
L 358.934839 176.806957 
L 359.147893 176.766871 
L 359.300075 176.646618 
L 359.543566 176.446193 
L 359.574002 176.486277 
L 359.604439 176.406107 
L 359.75662 176.285854 
L 359.878366 176.285854 
L 360.000111 176.245768 
L 360.152293 176.125515 
L 360.213166 176.165599 
L 360.243602 176.125515 
L 360.913202 175.403988 
L 361.004511 175.323818 
L 361.156693 175.083308 
L 361.18713 175.163478 
L 361.248002 175.043224 
L 361.308875 174.963054 
L 361.978475 173.920849 
L 362.19153 173.52 
L 362.52633 172.918728 
L 362.952439 172.1972 
L 363.53073 170.95457 
L 363.86553 170.353298 
L 364.322075 169.431346 
L 364.748184 168.749904 
L 364.930802 168.46931 
L 366.696111 166.30473 
L 366.78742 166.22456 
L 367.091784 165.984051 
L 367.183093 165.903881 
L 367.730948 165.342694 
L 367.852693 165.262524 
L 368.096184 165.102185 
L 368.248366 165.0621 
L 368.400548 164.941846 
L 368.55273 164.861675 
L 368.978839 164.420742 
L 369.100584 164.420742 
L 369.283202 164.220318 
L 369.404948 164.220318 
L 369.618002 164.100064 
L 369.739748 164.019894 
L 370.196293 163.578961 
L 370.287602 163.538876 
L 370.500657 163.258283 
L 370.622402 163.178113 
L 370.80502 162.977688 
L 373.848657 158.808866 
L 373.879093 158.84895 
L 374.061711 158.408017 
L 374.48782 157.566236 
L 374.731311 157.085218 
L 377.988002 148.22647 
L 378.383675 147.064009 
L 378.535857 146.74333 
L 378.961966 145.5007 
L 379.783748 143.055525 
L 380.057675 142.133575 
L 380.148984 141.893066 
L 380.94033 139.207381 
L 381.51862 137.443649 
L 381.822984 136.361358 
L 382.431711 134.477372 
L 382.918693 132.914062 
L 382.918693 132.914062 
" style="fill:none;stroke:#0000ff;stroke-linecap:square;stroke-width:1.5;"/>
   </g>
   <g id="line2d_24">
    <path clip-path="url(#p7270e162e5)" d="M 78.555057 153.097979 
L 86.164148 152.997767 
L 86.377202 152.977725 
L 86.590257 152.997767 
L 86.803311 152.977725 
L 97.02993 152.877513 
L 97.242984 152.85747 
L 100.225748 152.957682 
L 100.590984 153.077937 
L 100.804039 153.178149 
L 101.108402 153.398615 
L 101.260584 153.498828 
L 101.473639 153.699252 
L 101.778002 154.01993 
L 102.143239 154.520991 
L 102.29542 154.741457 
L 103.665057 157.687693 
L 105.460802 163.96097 
L 110.178439 185.185888 
L 111.09153 187.891616 
L 111.517639 188.913779 
L 112.948148 190.637427 
L 113.313384 190.537215 
L 114.01342 189.955985 
L 114.530839 189.094161 
L 115.291748 186.829368 
L 115.717857 185.386313 
L 116.083093 183.823005 
L 117.422293 176.186844 
L 118.518002 168.270089 
L 120.739857 149.851108 
L 122.80953 130.510174 
L 124.422657 115.758956 
L 125.183566 109.766273 
L 125.853166 105.356941 
L 127.101057 98.60265 
L 128.714184 91.66797 
L 129.627275 89.002328 
L 130.41862 88.140504 
L 131.17953 87.699568 
L 131.331711 87.759699 
L 131.544766 87.839871 
L 131.696948 87.779741 
L 132.18393 87.338805 
L 132.42742 87.178468 
L 132.823093 87.318765 
L 132.914402 87.418977 
L 133.553566 87.719614 
L 133.797057 87.819826 
L 134.131857 88.140504 
L 134.618839 88.862031 
L 135.258002 89.162668 
L 135.44062 89.242841 
L 136.627639 90.625764 
L 136.810257 90.725973 
L 137.023311 90.986528 
L 137.358111 91.587797 
L 137.966839 92.890557 
L 138.179893 93.35153 
L 138.45382 94.113142 
L 138.849493 95.776665 
L 140.371311 103.312618 
L 143.110584 120.168287 
L 149.136984 168.670938 
L 151.145784 184.945381 
L 153.885057 202.262029 
L 155.28513 207.3528 
L 155.61993 207.974118 
L 156.046039 208.575387 
L 156.685202 209.23679 
L 156.928693 209.276875 
L 157.506984 209.176666 
L 158.29833 208.575387 
L 158.724439 207.753651 
L 159.515784 206.531064 
L 160.520184 204.306356 
L 162.072439 199.937109 
L 162.528984 198.554182 
L 162.802911 197.572103 
L 163.65513 194.164892 
L 163.868184 193.303068 
L 164.416039 190.697554 
L 166.850948 179.994904 
L 167.398802 177.81028 
L 167.885784 176.327141 
L 168.768439 174.823959 
L 169.25542 174.342942 
L 170.198948 174.443153 
L 170.472875 174.623535 
L 170.564184 174.723747 
L 170.92942 175.345062 
L 171.416402 176.587692 
L 171.629457 177.028625 
L 172.846911 181.397873 
L 174.642657 190.196494 
L 175.434002 194.926504 
L 178.38633 215.089173 
L 179.329857 221.141983 
L 180.760366 227.214842 
L 182.190875 230.702223 
L 182.373493 230.942728 
L 183.012657 231.604131 
L 183.225711 231.503913 
L 183.40833 231.263407 
L 183.712693 230.682177 
L 184.564911 228.13679 
L 185.08233 225.691615 
L 185.873675 220.340293 
L 186.391093 215.790661 
L 187.578111 202.983556 
L 188.734693 187.991828 
L 190.195639 166.265847 
L 191.991384 134.879422 
L 193.178402 115.738913 
L 194.882839 89.503386 
L 196.03942 75.012721 
L 197.80473 57.53573 
L 199.204802 47.354182 
L 200.39182 40.239127 
L 201.39622 36.09035 
L 201.761457 35.408904 
L 202.552802 34.527035 
L 202.948475 34.607204 
L 203.465893 35.108265 
L 203.983311 35.569247 
L 204.592039 36.992255 
L 205.231202 39.457476 
L 205.718184 42.22332 
L 208.85313 65.713039 
L 210.43582 78.339759 
L 211.53153 87.07826 
L 217.344875 132.153653 
L 218.105784 137.865742 
L 219.779784 150.231914 
L 221.058111 158.469347 
L 222.15382 165.62449 
L 226.567093 191.15853 
L 227.26713 194.365317 
L 228.362839 198.914945 
L 228.788948 200.337957 
L 229.915093 203.664998 
L 230.249893 204.286313 
L 230.676002 205.108052 
L 231.467348 206.430852 
L 232.045639 207.372845 
L 235.150148 213.746334 
L 235.819748 215.229476 
L 237.158948 217.153545 
L 237.372002 217.454185 
L 237.615493 217.71473 
L 237.828548 217.935196 
L 237.950293 218.015369 
L 238.163348 218.215797 
L 238.832948 218.556514 
L 239.046002 218.536475 
L 239.593857 218.436257 
L 239.746039 218.396178 
L 240.476511 218.316005 
L 240.598257 218.316005 
L 240.841748 218.356093 
L 241.267857 218.456302 
L 241.633093 218.596599 
L 241.754839 218.616638 
L 242.059202 218.696811 
L 242.33313 218.79702 
L 243.611457 219.759063 
L 244.25062 220.78122 
L 247.476875 226.934242 
L 247.629057 227.114623 
L 247.872548 227.455348 
L 248.481275 228.116751 
L 248.572584 228.156829 
L 248.907384 228.257048 
L 249.120439 228.237002 
L 249.729166 228.156829 
L 249.972657 228.016532 
L 250.307457 227.675814 
L 251.61622 225.771788 
L 252.04233 224.689497 
L 252.95542 221.302326 
L 253.777202 217.013248 
L 255.786002 203.103811 
L 256.97302 192.000311 
L 259.012257 169.372422 
L 261.08193 142.094692 
L 262.603748 120.589178 
L 264.76473 90.86627 
L 267.01702 64.009437 
L 268.417093 51.242411 
L 269.330184 44.90901 
L 269.908475 41.822478 
L 270.973748 38.695854 
L 271.338984 38.214843 
L 271.582475 38.074546 
L 272.46513 38.174761 
L 272.678184 38.415264 
L 273.560839 40.379424 
L 274.443493 43.646341 
L 275.539202 49.999781 
L 276.452293 56.713994 
L 278.034984 70.102326 
L 279.465493 84.312406 
L 281.535166 105.858001 
L 283.726584 129.14729 
L 288.292039 173.140396 
L 291.061748 195.96871 
L 291.700911 200.398084 
L 292.79662 207.553227 
L 293.374911 210.739972 
L 293.831457 213.024807 
L 294.683675 215.950997 
L 295.414148 217.975284 
L 296.90553 220.681011 
L 297.453384 221.222156 
L 298.214293 221.602959 
L 298.48822 221.542835 
L 298.670839 221.442622 
L 299.614366 220.701056 
L 299.979602 220.220035 
L 300.25353 219.67889 
L 301.075311 217.834987 
L 303.023239 211.080693 
L 303.723275 207.172418 
L 304.17982 204.186101 
L 305.884257 191.07836 
L 306.584293 185.626823 
L 309.810548 163.039019 
L 311.241057 156.064257 
L 311.575857 154.581118 
L 312.793311 149.490344 
L 316.110875 136.803494 
L 316.293493 136.202221 
L 317.57182 132.53446 
L 318.119675 130.810811 
L 320.371966 125.17889 
L 320.493711 124.878255 
L 321.437239 122.132444 
L 321.68073 121.651426 
L 322.806875 118.985785 
L 323.080802 118.44464 
L 324.115639 116.159804 
L 324.724366 114.857047 
L 325.089602 113.915053 
L 326.002693 111.289497 
L 326.854911 109.345382 
L 327.159275 108.764152 
L 328.528911 106.278892 
L 328.650657 106.078468 
L 330.263784 104.134354 
L 331.116002 103.69342 
L 331.876911 103.793629 
L 332.698693 104.455032 
L 334.31182 106.75991 
L 335.681457 110.668182 
L 337.355457 116.560652 
L 338.359857 120.669348 
L 338.99902 123.615583 
L 340.916511 134.27815 
L 344.69062 159.852274 
L 348.921275 192.40116 
L 350.169166 200.658636 
L 351.873602 210.138699 
L 352.330148 212.363407 
L 353.030184 215.490021 
L 353.851966 218.316005 
L 354.095457 219.017487 
L 354.552002 220.380371 
L 355.647711 222.965849 
L 356.286875 223.98801 
L 356.49993 224.088218 
L 356.682548 224.088218 
L 356.956475 224.008055 
L 357.260839 223.787585 
L 357.565202 223.46691 
L 358.08262 222.605086 
L 358.691348 221.302326 
L 359.056584 220.360332 
L 359.695748 217.875072 
L 362.221966 202.241987 
L 363.10462 195.708159 
L 365.996075 171.997978 
L 368.704911 148.04729 
L 370.409348 132.53446 
L 371.657239 121.290663 
L 373.087748 110.868606 
L 374.91393 99.564682 
L 376.983602 91.808264 
L 378.414111 88.340932 
L 379.083711 87.639444 
L 379.296766 87.559271 
L 379.418511 87.499147 
L 379.448948 87.539232 
L 379.662002 87.519186 
L 379.93593 87.579317 
L 380.209857 87.679529 
L 380.970766 88.300844 
L 381.60993 89.323004 
L 382.492584 91.307206 
L 382.918693 92.469667 
L 382.918693 92.469667 
" style="fill:none;stroke:#ff0000;stroke-linecap:square;stroke-width:1.5;"/>
   </g>
   <g id="line2d_25">
    <path clip-path="url(#p7270e162e5)" d="M 123.661748 161.654889 
" style="fill:none;stroke:#ffffff;stroke-linecap:square;stroke-width:1.5;"/>
    <defs>
     <path d="M 0 -5 
L -1.12257 -1.545085 
L -4.755283 -1.545085 
L -1.816356 0.59017 
L -2.938926 4.045085 
L -0 1.90983 
L 2.938926 4.045085 
L 1.816356 0.59017 
L 4.755283 -1.545085 
L 1.12257 -1.545085 
z
" id="m2fb2cf3ddf" style="stroke:#ffffff;stroke-linejoin:bevel;"/>
    </defs>
    <g clip-path="url(#p7270e162e5)">
     <use style="fill:#0000ff;stroke:#ffffff;stroke-linejoin:bevel;" x="123.661748" xlink:href="#m2fb2cf3ddf" y="161.654889"/>
    </g>
   </g>
   <g id="line2d_26">
    <path clip-path="url(#p7270e162e5)" d="M 104.121602 159.030535 
" style="fill:none;stroke:#ffffff;stroke-linecap:square;stroke-width:1.5;"/>
    <defs>
     <path d="M 0 -5 
L -1.12257 -1.545085 
L -4.755283 -1.545085 
L -1.816356 0.59017 
L -2.938926 4.045085 
L -0 1.90983 
L 2.938926 4.045085 
L 1.816356 0.59017 
L 4.755283 -1.545085 
L 1.12257 -1.545085 
z
" id="mf802b0c28f" style="stroke:#ffffff;stroke-linejoin:bevel;"/>
    </defs>
    <g clip-path="url(#p7270e162e5)">
     <use style="fill:#ff0000;stroke:#ffffff;stroke-linejoin:bevel;" x="104.121602" xlink:href="#mf802b0c28f" y="159.030535"/>
    </g>
   </g>
   <g id="patch_3">
    <path d="M 63.336875 339.84 
L 63.336875 7.2 
" style="fill:none;stroke:#000000;stroke-linecap:square;stroke-linejoin:miter;stroke-width:0.8;"/>
   </g>
   <g id="patch_4">
    <path d="M 398.136875 339.84 
L 398.136875 7.2 
" style="fill:none;stroke:#000000;stroke-linecap:square;stroke-linejoin:miter;stroke-width:0.8;"/>
   </g>
   <g id="patch_5">
    <path d="M 63.336875 339.84 
L 398.136875 339.84 
" style="fill:none;stroke:#000000;stroke-linecap:square;stroke-linejoin:miter;stroke-width:0.8;"/>
   </g>
   <g id="patch_6">
    <path d="M 63.336875 7.2 
L 398.136875 7.2 
" style="fill:none;stroke:#000000;stroke-linecap:square;stroke-linejoin:miter;stroke-width:0.8;"/>
   </g>
   <g id="text_14">
    <g id="patch_7">
     <path d="M 75.036875 331.242688 
L 166.26875 331.242688 
L 166.26875 293.760312 
L 75.036875 293.760312 
z
" style="fill:#ffffff;stroke:#000000;stroke-linejoin:miter;stroke-width:0.75;"/>
    </g>
    <!-- Auto_00147 -->
    <g transform="translate(80.076875 308.521562)scale(0.14 -0.14)">
     <defs>
      <path d="M 2928 1419 
L 1288 1419 
L 1000 750 
Q 894 503 894 381 
Q 894 284 986 211 
Q 1078 138 1384 116 
L 1384 0 
L 50 0 
L 50 116 
Q 316 163 394 238 
Q 553 388 747 847 
L 2238 4334 
L 2347 4334 
L 3822 809 
Q 4000 384 4145 257 
Q 4291 131 4550 116 
L 4550 0 
L 2878 0 
L 2878 116 
Q 3131 128 3220 200 
Q 3309 272 3309 375 
Q 3309 513 3184 809 
L 2928 1419 
z
M 2841 1650 
L 2122 3363 
L 1384 1650 
L 2841 1650 
z
" id="TimesNewRomanPSMT-41" transform="scale(0.015625)"/>
      <path d="M 2709 2863 
L 2709 1128 
Q 2709 631 2732 520 
Q 2756 409 2807 365 
Q 2859 322 2928 322 
Q 3025 322 3147 375 
L 3191 266 
L 2334 -88 
L 2194 -88 
L 2194 519 
Q 1825 119 1631 15 
Q 1438 -88 1222 -88 
Q 981 -88 804 51 
Q 628 191 559 409 
Q 491 628 491 1028 
L 491 2306 
Q 491 2509 447 2587 
Q 403 2666 317 2708 
Q 231 2750 6 2747 
L 6 2863 
L 1009 2863 
L 1009 947 
Q 1009 547 1148 422 
Q 1288 297 1484 297 
Q 1619 297 1789 381 
Q 1959 466 2194 703 
L 2194 2325 
Q 2194 2569 2105 2655 
Q 2016 2741 1734 2747 
L 1734 2863 
L 2709 2863 
z
" id="TimesNewRomanPSMT-75" transform="scale(0.015625)"/>
      <path d="M 3256 -1381 
L -53 -1381 
L -53 -1119 
L 3256 -1119 
L 3256 -1381 
z
" id="TimesNewRomanPSMT-5f" transform="scale(0.015625)"/>
      <path d="M 644 4238 
L 2916 4238 
L 2916 4119 
L 1503 -88 
L 1153 -88 
L 2419 3728 
L 1253 3728 
Q 900 3728 750 3644 
Q 488 3500 328 3200 
L 238 3234 
L 644 4238 
z
" id="TimesNewRomanPSMT-37" transform="scale(0.015625)"/>
     </defs>
     <use xlink:href="#TimesNewRomanPSMT-41"/>
     <use x="72.216797" xlink:href="#TimesNewRomanPSMT-75"/>
     <use x="122.216797" xlink:href="#TimesNewRomanPSMT-74"/>
     <use x="150" xlink:href="#TimesNewRomanPSMT-6f"/>
     <use x="200" xlink:href="#TimesNewRomanPSMT-5f"/>
     <use x="250" xlink:href="#TimesNewRomanPSMT-30"/>
     <use x="300" xlink:href="#TimesNewRomanPSMT-30"/>
     <use x="350" xlink:href="#TimesNewRomanPSMT-31"/>
     <use x="400" xlink:href="#TimesNewRomanPSMT-34"/>
     <use x="450" xlink:href="#TimesNewRomanPSMT-37"/>
    </g>
    <!-- Vs: 311.32m/s -->
    <g transform="translate(80.076875 323.208)scale(0.14 -0.14)">
     <defs>
      <path d="M 903 2950 
Q 1047 2950 1148 2848 
Q 1250 2747 1250 2603 
Q 1250 2459 1148 2357 
Q 1047 2256 903 2256 
Q 759 2256 657 2357 
Q 556 2459 556 2603 
Q 556 2747 657 2848 
Q 759 2950 903 2950 
z
M 897 609 
Q 1044 609 1145 506 
Q 1247 403 1247 259 
Q 1247 116 1144 14 
Q 1041 -88 897 -88 
Q 753 -88 651 14 
Q 550 116 550 259 
Q 550 403 651 506 
Q 753 609 897 609 
z
" id="TimesNewRomanPSMT-3a" transform="scale(0.015625)"/>
      <path d="M 1794 4444 
L 259 -88 
L 9 -88 
L 1544 4444 
L 1794 4444 
z
" id="TimesNewRomanPSMT-2f" transform="scale(0.015625)"/>
     </defs>
     <use xlink:href="#TimesNewRomanPSMT-56"/>
     <use x="72.216797" xlink:href="#TimesNewRomanPSMT-73"/>
     <use x="111.132812" xlink:href="#TimesNewRomanPSMT-3a"/>
     <use x="138.916016" xlink:href="#TimesNewRomanPSMT-20"/>
     <use x="163.916016" xlink:href="#TimesNewRomanPSMT-33"/>
     <use x="213.916016" xlink:href="#TimesNewRomanPSMT-31"/>
     <use x="260.166016" xlink:href="#TimesNewRomanPSMT-31"/>
     <use x="310.166016" xlink:href="#TimesNewRomanPSMT-2e"/>
     <use x="335.166016" xlink:href="#TimesNewRomanPSMT-33"/>
     <use x="385.166016" xlink:href="#TimesNewRomanPSMT-32"/>
     <use x="435.166016" xlink:href="#TimesNewRomanPSMT-6d"/>
     <use x="512.949219" xlink:href="#TimesNewRomanPSMT-2f"/>
     <use x="540.732422" xlink:href="#TimesNewRomanPSMT-73"/>
    </g>
   </g>
  </g>
 </g>
 <defs>
  <clipPath id="p7270e162e5">
   <rect height="332.64" width="334.8" x="63.336875" y="7.2"/>
  </clipPath>
 </defs>
</svg>
