<?xml version="1.0" encoding="utf-8" standalone="no"?>
<!DOCTYPE svg PUBLIC "-//W3C//DTD SVG 1.1//EN"
  "http://www.w3.org/Graphics/SVG/1.1/DTD/svg11.dtd">
<svg height="383.471875pt" version="1.1" viewBox="0 0 421.086875 383.471875" width="421.086875pt" xmlns="http://www.w3.org/2000/svg" xmlns:xlink="http://www.w3.org/1999/xlink">
 <metadata>
  <rdf:RDF xmlns:cc="http://creativecommons.org/ns#" xmlns:dc="http://purl.org/dc/elements/1.1/" xmlns:rdf="http://www.w3.org/1999/02/22-rdf-syntax-ns#">
   <cc:Work>
    <dc:type rdf:resource="http://purl.org/dc/dcmitype/StillImage"/>
    <dc:date>2021-06-11T14:39:37.678438</dc:date>
    <dc:format>image/svg+xml</dc:format>
    <dc:creator>
     <cc:Agent>
      <dc:title>Matplotlib v3.4.2, https://matplotlib.org/</dc:title>
     </cc:Agent>
    </dc:creator>
   </cc:Work>
  </rdf:RDF>
 </metadata>
 <defs>
  <style type="text/css">*{stroke-linecap:butt;stroke-linejoin:round;}</style>
 </defs>
 <g id="figure_1">
  <g id="patch_1">
   <path d="M 0 383.471875 
L 421.086875 383.471875 
L 421.086875 0 
L 0 0 
z
" style="fill:#ffffff;"/>
  </g>
  <g id="axes_1">
   <g id="patch_2">
    <path d="M 63.336875 339.84 
L 398.136875 339.84 
L 398.136875 7.2 
L 63.336875 7.2 
z
" style="fill:#ffffff;"/>
   </g>
   <g id="matplotlib.axis_1">
    <g id="xtick_1">
     <g id="line2d_1">
      <path clip-path="url(#p93a2aaa45a)" d="M 93.773239 339.84 
L 93.773239 7.2 
" style="fill:none;stroke:#000000;stroke-dasharray:0.5,0.825;stroke-dashoffset:0;stroke-width:0.5;"/>
     </g>
     <g id="line2d_2">
      <defs>
       <path d="M 0 0 
L 0 3.5 
" id="m85881b1fbe" style="stroke:#000000;stroke-width:0.8;"/>
      </defs>
      <g>
       <use style="stroke:#000000;stroke-width:0.8;" x="93.773239" xlink:href="#m85881b1fbe" y="339.84"/>
      </g>
     </g>
     <g id="text_1">
      <!-- 0.000 -->
      <g transform="translate(78.023239 356.56125)scale(0.14 -0.14)">
       <defs>
        <path d="M 231 2094 
Q 231 2819 450 3342 
Q 669 3866 1031 4122 
Q 1313 4325 1613 4325 
Q 2100 4325 2488 3828 
Q 2972 3213 2972 2159 
Q 2972 1422 2759 906 
Q 2547 391 2217 158 
Q 1888 -75 1581 -75 
Q 975 -75 572 641 
Q 231 1244 231 2094 
z
M 844 2016 
Q 844 1141 1059 588 
Q 1238 122 1591 122 
Q 1759 122 1940 273 
Q 2122 425 2216 781 
Q 2359 1319 2359 2297 
Q 2359 3022 2209 3506 
Q 2097 3866 1919 4016 
Q 1791 4119 1609 4119 
Q 1397 4119 1231 3928 
Q 1006 3669 925 3112 
Q 844 2556 844 2016 
z
" id="TimesNewRomanPSMT-30" transform="scale(0.015625)"/>
        <path d="M 800 606 
Q 947 606 1047 504 
Q 1147 403 1147 259 
Q 1147 116 1045 14 
Q 944 -88 800 -88 
Q 656 -88 554 14 
Q 453 116 453 259 
Q 453 406 554 506 
Q 656 606 800 606 
z
" id="TimesNewRomanPSMT-2e" transform="scale(0.015625)"/>
       </defs>
       <use xlink:href="#TimesNewRomanPSMT-30"/>
       <use x="50" xlink:href="#TimesNewRomanPSMT-2e"/>
       <use x="75" xlink:href="#TimesNewRomanPSMT-30"/>
       <use x="125" xlink:href="#TimesNewRomanPSMT-30"/>
       <use x="175" xlink:href="#TimesNewRomanPSMT-30"/>
      </g>
     </g>
    </g>
    <g id="xtick_2">
     <g id="line2d_3">
      <path clip-path="url(#p93a2aaa45a)" d="M 154.645966 339.84 
L 154.645966 7.2 
" style="fill:none;stroke:#000000;stroke-dasharray:0.5,0.825;stroke-dashoffset:0;stroke-width:0.5;"/>
     </g>
     <g id="line2d_4">
      <g>
       <use style="stroke:#000000;stroke-width:0.8;" x="154.645966" xlink:href="#m85881b1fbe" y="339.84"/>
      </g>
     </g>
     <g id="text_2">
      <!-- 0.001 -->
      <g transform="translate(138.895966 356.56125)scale(0.14 -0.14)">
       <defs>
        <path d="M 750 3822 
L 1781 4325 
L 1884 4325 
L 1884 747 
Q 1884 391 1914 303 
Q 1944 216 2037 169 
Q 2131 122 2419 116 
L 2419 0 
L 825 0 
L 825 116 
Q 1125 122 1212 167 
Q 1300 213 1334 289 
Q 1369 366 1369 747 
L 1369 3034 
Q 1369 3497 1338 3628 
Q 1316 3728 1258 3775 
Q 1200 3822 1119 3822 
Q 1003 3822 797 3725 
L 750 3822 
z
" id="TimesNewRomanPSMT-31" transform="scale(0.015625)"/>
       </defs>
       <use xlink:href="#TimesNewRomanPSMT-30"/>
       <use x="50" xlink:href="#TimesNewRomanPSMT-2e"/>
       <use x="75" xlink:href="#TimesNewRomanPSMT-30"/>
       <use x="125" xlink:href="#TimesNewRomanPSMT-30"/>
       <use x="175" xlink:href="#TimesNewRomanPSMT-31"/>
      </g>
     </g>
    </g>
    <g id="xtick_3">
     <g id="line2d_5">
      <path clip-path="url(#p93a2aaa45a)" d="M 215.518693 339.84 
L 215.518693 7.2 
" style="fill:none;stroke:#000000;stroke-dasharray:0.5,0.825;stroke-dashoffset:0;stroke-width:0.5;"/>
     </g>
     <g id="line2d_6">
      <g>
       <use style="stroke:#000000;stroke-width:0.8;" x="215.518693" xlink:href="#m85881b1fbe" y="339.84"/>
      </g>
     </g>
     <g id="text_3">
      <!-- 0.002 -->
      <g transform="translate(199.768693 356.56125)scale(0.14 -0.14)">
       <defs>
        <path d="M 2934 816 
L 2638 0 
L 138 0 
L 138 116 
Q 1241 1122 1691 1759 
Q 2141 2397 2141 2925 
Q 2141 3328 1894 3587 
Q 1647 3847 1303 3847 
Q 991 3847 742 3664 
Q 494 3481 375 3128 
L 259 3128 
Q 338 3706 661 4015 
Q 984 4325 1469 4325 
Q 1984 4325 2329 3994 
Q 2675 3663 2675 3213 
Q 2675 2891 2525 2569 
Q 2294 2063 1775 1497 
Q 997 647 803 472 
L 1909 472 
Q 2247 472 2383 497 
Q 2519 522 2628 598 
Q 2738 675 2819 816 
L 2934 816 
z
" id="TimesNewRomanPSMT-32" transform="scale(0.015625)"/>
       </defs>
       <use xlink:href="#TimesNewRomanPSMT-30"/>
       <use x="50" xlink:href="#TimesNewRomanPSMT-2e"/>
       <use x="75" xlink:href="#TimesNewRomanPSMT-30"/>
       <use x="125" xlink:href="#TimesNewRomanPSMT-30"/>
       <use x="175" xlink:href="#TimesNewRomanPSMT-32"/>
      </g>
     </g>
    </g>
    <g id="xtick_4">
     <g id="line2d_7">
      <path clip-path="url(#p93a2aaa45a)" d="M 276.39142 339.84 
L 276.39142 7.2 
" style="fill:none;stroke:#000000;stroke-dasharray:0.5,0.825;stroke-dashoffset:0;stroke-width:0.5;"/>
     </g>
     <g id="line2d_8">
      <g>
       <use style="stroke:#000000;stroke-width:0.8;" x="276.39142" xlink:href="#m85881b1fbe" y="339.84"/>
      </g>
     </g>
     <g id="text_4">
      <!-- 0.003 -->
      <g transform="translate(260.64142 356.56125)scale(0.14 -0.14)">
       <defs>
        <path d="M 325 3431 
Q 506 3859 782 4092 
Q 1059 4325 1472 4325 
Q 1981 4325 2253 3994 
Q 2459 3747 2459 3466 
Q 2459 3003 1878 2509 
Q 2269 2356 2469 2072 
Q 2669 1788 2669 1403 
Q 2669 853 2319 450 
Q 1863 -75 997 -75 
Q 569 -75 414 31 
Q 259 138 259 259 
Q 259 350 332 419 
Q 406 488 509 488 
Q 588 488 669 463 
Q 722 447 909 348 
Q 1097 250 1169 231 
Q 1284 197 1416 197 
Q 1734 197 1970 444 
Q 2206 691 2206 1028 
Q 2206 1275 2097 1509 
Q 2016 1684 1919 1775 
Q 1784 1900 1550 2001 
Q 1316 2103 1072 2103 
L 972 2103 
L 972 2197 
Q 1219 2228 1467 2375 
Q 1716 2522 1828 2728 
Q 1941 2934 1941 3181 
Q 1941 3503 1739 3701 
Q 1538 3900 1238 3900 
Q 753 3900 428 3381 
L 325 3431 
z
" id="TimesNewRomanPSMT-33" transform="scale(0.015625)"/>
       </defs>
       <use xlink:href="#TimesNewRomanPSMT-30"/>
       <use x="50" xlink:href="#TimesNewRomanPSMT-2e"/>
       <use x="75" xlink:href="#TimesNewRomanPSMT-30"/>
       <use x="125" xlink:href="#TimesNewRomanPSMT-30"/>
       <use x="175" xlink:href="#TimesNewRomanPSMT-33"/>
      </g>
     </g>
    </g>
    <g id="xtick_5">
     <g id="line2d_9">
      <path clip-path="url(#p93a2aaa45a)" d="M 337.264148 339.84 
L 337.264148 7.2 
" style="fill:none;stroke:#000000;stroke-dasharray:0.5,0.825;stroke-dashoffset:0;stroke-width:0.5;"/>
     </g>
     <g id="line2d_10">
      <g>
       <use style="stroke:#000000;stroke-width:0.8;" x="337.264148" xlink:href="#m85881b1fbe" y="339.84"/>
      </g>
     </g>
     <g id="text_5">
      <!-- 0.004 -->
      <g transform="translate(321.514148 356.56125)scale(0.14 -0.14)">
       <defs>
        <path d="M 2978 1563 
L 2978 1119 
L 2409 1119 
L 2409 0 
L 1894 0 
L 1894 1119 
L 100 1119 
L 100 1519 
L 2066 4325 
L 2409 4325 
L 2409 1563 
L 2978 1563 
z
M 1894 1563 
L 1894 3666 
L 406 1563 
L 1894 1563 
z
" id="TimesNewRomanPSMT-34" transform="scale(0.015625)"/>
       </defs>
       <use xlink:href="#TimesNewRomanPSMT-30"/>
       <use x="50" xlink:href="#TimesNewRomanPSMT-2e"/>
       <use x="75" xlink:href="#TimesNewRomanPSMT-30"/>
       <use x="125" xlink:href="#TimesNewRomanPSMT-30"/>
       <use x="175" xlink:href="#TimesNewRomanPSMT-34"/>
      </g>
     </g>
    </g>
    <g id="xtick_6">
     <g id="line2d_11">
      <path clip-path="url(#p93a2aaa45a)" d="M 398.136875 339.84 
L 398.136875 7.2 
" style="fill:none;stroke:#000000;stroke-dasharray:0.5,0.825;stroke-dashoffset:0;stroke-width:0.5;"/>
     </g>
     <g id="line2d_12">
      <g>
       <use style="stroke:#000000;stroke-width:0.8;" x="398.136875" xlink:href="#m85881b1fbe" y="339.84"/>
      </g>
     </g>
     <g id="text_6">
      <!-- 0.005 -->
      <g transform="translate(382.386875 356.56125)scale(0.14 -0.14)">
       <defs>
        <path d="M 2778 4238 
L 2534 3706 
L 1259 3706 
L 981 3138 
Q 1809 3016 2294 2522 
Q 2709 2097 2709 1522 
Q 2709 1188 2573 903 
Q 2438 619 2231 419 
Q 2025 219 1772 97 
Q 1413 -75 1034 -75 
Q 653 -75 479 54 
Q 306 184 306 341 
Q 306 428 378 495 
Q 450 563 559 563 
Q 641 563 702 538 
Q 763 513 909 409 
Q 1144 247 1384 247 
Q 1750 247 2026 523 
Q 2303 800 2303 1197 
Q 2303 1581 2056 1914 
Q 1809 2247 1375 2428 
Q 1034 2569 447 2591 
L 1259 4238 
L 2778 4238 
z
" id="TimesNewRomanPSMT-35" transform="scale(0.015625)"/>
       </defs>
       <use xlink:href="#TimesNewRomanPSMT-30"/>
       <use x="50" xlink:href="#TimesNewRomanPSMT-2e"/>
       <use x="75" xlink:href="#TimesNewRomanPSMT-30"/>
       <use x="125" xlink:href="#TimesNewRomanPSMT-30"/>
       <use x="175" xlink:href="#TimesNewRomanPSMT-35"/>
      </g>
     </g>
    </g>
    <g id="text_7">
     <!-- Time (sec) -->
     <g transform="translate(200.858906 373.277188)scale(0.14 -0.14)">
      <defs>
       <path d="M 3703 4238 
L 3750 3244 
L 3631 3244 
Q 3597 3506 3538 3619 
Q 3441 3800 3280 3886 
Q 3119 3972 2856 3972 
L 2259 3972 
L 2259 734 
Q 2259 344 2344 247 
Q 2463 116 2709 116 
L 2856 116 
L 2856 0 
L 1059 0 
L 1059 116 
L 1209 116 
Q 1478 116 1591 278 
Q 1659 378 1659 734 
L 1659 3972 
L 1150 3972 
Q 853 3972 728 3928 
Q 566 3869 450 3700 
Q 334 3531 313 3244 
L 194 3244 
L 244 4238 
L 3703 4238 
z
" id="TimesNewRomanPSMT-54" transform="scale(0.015625)"/>
       <path d="M 928 4444 
Q 1059 4444 1151 4351 
Q 1244 4259 1244 4128 
Q 1244 3997 1151 3903 
Q 1059 3809 928 3809 
Q 797 3809 703 3903 
Q 609 3997 609 4128 
Q 609 4259 701 4351 
Q 794 4444 928 4444 
z
M 1188 2947 
L 1188 647 
Q 1188 378 1227 289 
Q 1266 200 1342 156 
Q 1419 113 1622 113 
L 1622 0 
L 231 0 
L 231 113 
Q 441 113 512 153 
Q 584 194 626 287 
Q 669 381 669 647 
L 669 1750 
Q 669 2216 641 2353 
Q 619 2453 572 2492 
Q 525 2531 444 2531 
Q 356 2531 231 2484 
L 188 2597 
L 1050 2947 
L 1188 2947 
z
" id="TimesNewRomanPSMT-69" transform="scale(0.015625)"/>
       <path d="M 1050 2338 
Q 1363 2650 1419 2697 
Q 1559 2816 1721 2881 
Q 1884 2947 2044 2947 
Q 2313 2947 2506 2790 
Q 2700 2634 2766 2338 
Q 3088 2713 3309 2830 
Q 3531 2947 3766 2947 
Q 3994 2947 4170 2830 
Q 4347 2713 4450 2447 
Q 4519 2266 4519 1878 
L 4519 647 
Q 4519 378 4559 278 
Q 4591 209 4675 161 
Q 4759 113 4950 113 
L 4950 0 
L 3538 0 
L 3538 113 
L 3597 113 
Q 3781 113 3884 184 
Q 3956 234 3988 344 
Q 4000 397 4000 647 
L 4000 1878 
Q 4000 2228 3916 2372 
Q 3794 2572 3525 2572 
Q 3359 2572 3192 2489 
Q 3025 2406 2788 2181 
L 2781 2147 
L 2788 2013 
L 2788 647 
Q 2788 353 2820 281 
Q 2853 209 2943 161 
Q 3034 113 3253 113 
L 3253 0 
L 1806 0 
L 1806 113 
Q 2044 113 2133 169 
Q 2222 225 2256 338 
Q 2272 391 2272 647 
L 2272 1878 
Q 2272 2228 2169 2381 
Q 2031 2581 1784 2581 
Q 1616 2581 1450 2491 
Q 1191 2353 1050 2181 
L 1050 647 
Q 1050 366 1089 281 
Q 1128 197 1204 155 
Q 1281 113 1516 113 
L 1516 0 
L 100 0 
L 100 113 
Q 297 113 375 155 
Q 453 197 493 289 
Q 534 381 534 647 
L 534 1741 
Q 534 2213 506 2350 
Q 484 2453 437 2492 
Q 391 2531 309 2531 
Q 222 2531 100 2484 
L 53 2597 
L 916 2947 
L 1050 2947 
L 1050 2338 
z
" id="TimesNewRomanPSMT-6d" transform="scale(0.015625)"/>
       <path d="M 681 1784 
Q 678 1147 991 784 
Q 1303 422 1725 422 
Q 2006 422 2214 576 
Q 2422 731 2563 1106 
L 2659 1044 
Q 2594 616 2278 264 
Q 1963 -88 1488 -88 
Q 972 -88 605 314 
Q 238 716 238 1394 
Q 238 2128 614 2539 
Q 991 2950 1559 2950 
Q 2041 2950 2350 2633 
Q 2659 2316 2659 1784 
L 681 1784 
z
M 681 1966 
L 2006 1966 
Q 1991 2241 1941 2353 
Q 1863 2528 1708 2628 
Q 1553 2728 1384 2728 
Q 1125 2728 920 2526 
Q 716 2325 681 1966 
z
" id="TimesNewRomanPSMT-65" transform="scale(0.015625)"/>
       <path id="TimesNewRomanPSMT-20" transform="scale(0.015625)"/>
       <path d="M 1988 -1253 
L 1988 -1369 
Q 1516 -1131 1200 -813 
Q 750 -359 506 256 
Q 263 872 263 1534 
Q 263 2503 741 3301 
Q 1219 4100 1988 4444 
L 1988 4313 
Q 1603 4100 1356 3731 
Q 1109 3363 987 2797 
Q 866 2231 866 1616 
Q 866 947 969 400 
Q 1050 -31 1165 -292 
Q 1281 -553 1476 -793 
Q 1672 -1034 1988 -1253 
z
" id="TimesNewRomanPSMT-28" transform="scale(0.015625)"/>
       <path d="M 2050 2947 
L 2050 1972 
L 1947 1972 
Q 1828 2431 1642 2597 
Q 1456 2763 1169 2763 
Q 950 2763 815 2647 
Q 681 2531 681 2391 
Q 681 2216 781 2091 
Q 878 1963 1175 1819 
L 1631 1597 
Q 2266 1288 2266 781 
Q 2266 391 1970 151 
Q 1675 -88 1309 -88 
Q 1047 -88 709 6 
Q 606 38 541 38 
Q 469 38 428 -44 
L 325 -44 
L 325 978 
L 428 978 
Q 516 541 762 319 
Q 1009 97 1316 97 
Q 1531 97 1667 223 
Q 1803 350 1803 528 
Q 1803 744 1651 891 
Q 1500 1038 1047 1263 
Q 594 1488 453 1669 
Q 313 1847 313 2119 
Q 313 2472 555 2709 
Q 797 2947 1181 2947 
Q 1350 2947 1591 2875 
Q 1750 2828 1803 2828 
Q 1853 2828 1881 2850 
Q 1909 2872 1947 2947 
L 2050 2947 
z
" id="TimesNewRomanPSMT-73" transform="scale(0.015625)"/>
       <path d="M 2631 1088 
Q 2516 522 2178 217 
Q 1841 -88 1431 -88 
Q 944 -88 581 321 
Q 219 731 219 1428 
Q 219 2103 620 2525 
Q 1022 2947 1584 2947 
Q 2006 2947 2278 2723 
Q 2550 2500 2550 2259 
Q 2550 2141 2473 2067 
Q 2397 1994 2259 1994 
Q 2075 1994 1981 2113 
Q 1928 2178 1911 2362 
Q 1894 2547 1784 2644 
Q 1675 2738 1481 2738 
Q 1169 2738 978 2506 
Q 725 2200 725 1697 
Q 725 1184 976 792 
Q 1228 400 1656 400 
Q 1963 400 2206 609 
Q 2378 753 2541 1131 
L 2631 1088 
z
" id="TimesNewRomanPSMT-63" transform="scale(0.015625)"/>
       <path d="M 144 4313 
L 144 4444 
Q 619 4209 934 3891 
Q 1381 3434 1625 2820 
Q 1869 2206 1869 1541 
Q 1869 572 1392 -226 
Q 916 -1025 144 -1369 
L 144 -1253 
Q 528 -1038 776 -670 
Q 1025 -303 1145 264 
Q 1266 831 1266 1447 
Q 1266 2113 1163 2663 
Q 1084 3094 967 3353 
Q 850 3613 656 3853 
Q 463 4094 144 4313 
z
" id="TimesNewRomanPSMT-29" transform="scale(0.015625)"/>
      </defs>
      <use xlink:href="#TimesNewRomanPSMT-54"/>
      <use x="57.583984" xlink:href="#TimesNewRomanPSMT-69"/>
      <use x="85.367188" xlink:href="#TimesNewRomanPSMT-6d"/>
      <use x="163.150391" xlink:href="#TimesNewRomanPSMT-65"/>
      <use x="207.535156" xlink:href="#TimesNewRomanPSMT-20"/>
      <use x="232.535156" xlink:href="#TimesNewRomanPSMT-28"/>
      <use x="265.835938" xlink:href="#TimesNewRomanPSMT-73"/>
      <use x="304.751953" xlink:href="#TimesNewRomanPSMT-65"/>
      <use x="349.136719" xlink:href="#TimesNewRomanPSMT-63"/>
      <use x="393.521484" xlink:href="#TimesNewRomanPSMT-29"/>
     </g>
    </g>
   </g>
   <g id="matplotlib.axis_2">
    <g id="ytick_1">
     <g id="line2d_13">
      <path clip-path="url(#p93a2aaa45a)" d="M 63.336875 280.829187 
L 398.136875 280.829187 
" style="fill:none;stroke:#000000;stroke-dasharray:0.5,0.825;stroke-dashoffset:0;stroke-width:0.5;"/>
     </g>
     <g id="line2d_14">
      <defs>
       <path d="M 0 0 
L -3.5 0 
" id="mfd792c6477" style="stroke:#000000;stroke-width:0.8;"/>
      </defs>
      <g>
       <use style="stroke:#000000;stroke-width:0.8;" x="63.336875" xlink:href="#mfd792c6477" y="280.829187"/>
      </g>
     </g>
     <g id="text_8">
      <!-- −0.04 -->
      <g transform="translate(23.942188 285.689812)scale(0.14 -0.14)">
       <defs>
        <path d="M 3484 2000 
L 116 2000 
L 116 2256 
L 3484 2256 
L 3484 2000 
z
" id="TimesNewRomanPSMT-2212" transform="scale(0.015625)"/>
       </defs>
       <use xlink:href="#TimesNewRomanPSMT-2212"/>
       <use x="56.396484" xlink:href="#TimesNewRomanPSMT-30"/>
       <use x="106.396484" xlink:href="#TimesNewRomanPSMT-2e"/>
       <use x="131.396484" xlink:href="#TimesNewRomanPSMT-30"/>
       <use x="181.396484" xlink:href="#TimesNewRomanPSMT-34"/>
      </g>
     </g>
    </g>
    <g id="ytick_2">
     <g id="line2d_15">
      <path clip-path="url(#p93a2aaa45a)" d="M 63.336875 217.283089 
L 398.136875 217.283089 
" style="fill:none;stroke:#000000;stroke-dasharray:0.5,0.825;stroke-dashoffset:0;stroke-width:0.5;"/>
     </g>
     <g id="line2d_16">
      <g>
       <use style="stroke:#000000;stroke-width:0.8;" x="63.336875" xlink:href="#mfd792c6477" y="217.283089"/>
      </g>
     </g>
     <g id="text_9">
      <!-- −0.02 -->
      <g transform="translate(23.942188 222.143714)scale(0.14 -0.14)">
       <use xlink:href="#TimesNewRomanPSMT-2212"/>
       <use x="56.396484" xlink:href="#TimesNewRomanPSMT-30"/>
       <use x="106.396484" xlink:href="#TimesNewRomanPSMT-2e"/>
       <use x="131.396484" xlink:href="#TimesNewRomanPSMT-30"/>
       <use x="181.396484" xlink:href="#TimesNewRomanPSMT-32"/>
      </g>
     </g>
    </g>
    <g id="ytick_3">
     <g id="line2d_17">
      <path clip-path="url(#p93a2aaa45a)" d="M 63.336875 153.736991 
L 398.136875 153.736991 
" style="fill:none;stroke:#000000;stroke-dasharray:0.5,0.825;stroke-dashoffset:0;stroke-width:0.5;"/>
     </g>
     <g id="line2d_18">
      <g>
       <use style="stroke:#000000;stroke-width:0.8;" x="63.336875" xlink:href="#mfd792c6477" y="153.736991"/>
      </g>
     </g>
     <g id="text_10">
      <!-- 0.00 -->
      <g transform="translate(31.836875 158.597616)scale(0.14 -0.14)">
       <use xlink:href="#TimesNewRomanPSMT-30"/>
       <use x="50" xlink:href="#TimesNewRomanPSMT-2e"/>
       <use x="75" xlink:href="#TimesNewRomanPSMT-30"/>
       <use x="125" xlink:href="#TimesNewRomanPSMT-30"/>
      </g>
     </g>
    </g>
    <g id="ytick_4">
     <g id="line2d_19">
      <path clip-path="url(#p93a2aaa45a)" d="M 63.336875 90.190893 
L 398.136875 90.190893 
" style="fill:none;stroke:#000000;stroke-dasharray:0.5,0.825;stroke-dashoffset:0;stroke-width:0.5;"/>
     </g>
     <g id="line2d_20">
      <g>
       <use style="stroke:#000000;stroke-width:0.8;" x="63.336875" xlink:href="#mfd792c6477" y="90.190893"/>
      </g>
     </g>
     <g id="text_11">
      <!-- 0.02 -->
      <g transform="translate(31.836875 95.051518)scale(0.14 -0.14)">
       <use xlink:href="#TimesNewRomanPSMT-30"/>
       <use x="50" xlink:href="#TimesNewRomanPSMT-2e"/>
       <use x="75" xlink:href="#TimesNewRomanPSMT-30"/>
       <use x="125" xlink:href="#TimesNewRomanPSMT-32"/>
      </g>
     </g>
    </g>
    <g id="ytick_5">
     <g id="line2d_21">
      <path clip-path="url(#p93a2aaa45a)" d="M 63.336875 26.644795 
L 398.136875 26.644795 
" style="fill:none;stroke:#000000;stroke-dasharray:0.5,0.825;stroke-dashoffset:0;stroke-width:0.5;"/>
     </g>
     <g id="line2d_22">
      <g>
       <use style="stroke:#000000;stroke-width:0.8;" x="63.336875" xlink:href="#mfd792c6477" y="26.644795"/>
      </g>
     </g>
     <g id="text_12">
      <!-- 0.04 -->
      <g transform="translate(31.836875 31.50542)scale(0.14 -0.14)">
       <use xlink:href="#TimesNewRomanPSMT-30"/>
       <use x="50" xlink:href="#TimesNewRomanPSMT-2e"/>
       <use x="75" xlink:href="#TimesNewRomanPSMT-30"/>
       <use x="125" xlink:href="#TimesNewRomanPSMT-34"/>
      </g>
     </g>
    </g>
    <g id="text_13">
     <!-- Volatage (V) -->
     <g transform="translate(16.92125 209.352344)rotate(-90)scale(0.14 -0.14)">
      <defs>
       <path d="M 4544 4238 
L 4544 4122 
Q 4319 4081 4203 3978 
Q 4038 3825 3909 3509 
L 2431 -97 
L 2316 -97 
L 728 3556 
Q 606 3838 556 3900 
Q 478 3997 364 4051 
Q 250 4106 56 4122 
L 56 4238 
L 1788 4238 
L 1788 4122 
Q 1494 4094 1406 4022 
Q 1319 3950 1319 3838 
Q 1319 3681 1463 3350 
L 2541 866 
L 3541 3319 
Q 3688 3681 3688 3822 
Q 3688 3913 3597 3995 
Q 3506 4078 3291 4113 
Q 3275 4116 3238 4122 
L 3238 4238 
L 4544 4238 
z
" id="TimesNewRomanPSMT-56" transform="scale(0.015625)"/>
       <path d="M 1600 2947 
Q 2250 2947 2644 2453 
Q 2978 2031 2978 1484 
Q 2978 1100 2793 706 
Q 2609 313 2286 112 
Q 1963 -88 1566 -88 
Q 919 -88 538 428 
Q 216 863 216 1403 
Q 216 1797 411 2186 
Q 606 2575 925 2761 
Q 1244 2947 1600 2947 
z
M 1503 2744 
Q 1338 2744 1170 2645 
Q 1003 2547 900 2300 
Q 797 2053 797 1666 
Q 797 1041 1045 587 
Q 1294 134 1700 134 
Q 2003 134 2200 384 
Q 2397 634 2397 1244 
Q 2397 2006 2069 2444 
Q 1847 2744 1503 2744 
z
" id="TimesNewRomanPSMT-6f" transform="scale(0.015625)"/>
       <path d="M 1184 4444 
L 1184 647 
Q 1184 378 1223 290 
Q 1263 203 1344 158 
Q 1425 113 1647 113 
L 1647 0 
L 244 0 
L 244 113 
Q 441 113 512 153 
Q 584 194 625 287 
Q 666 381 666 647 
L 666 3247 
Q 666 3731 644 3842 
Q 622 3953 573 3993 
Q 525 4034 450 4034 
Q 369 4034 244 3984 
L 191 4094 
L 1044 4444 
L 1184 4444 
z
" id="TimesNewRomanPSMT-6c" transform="scale(0.015625)"/>
       <path d="M 1822 413 
Q 1381 72 1269 19 
Q 1100 -59 909 -59 
Q 613 -59 420 144 
Q 228 347 228 678 
Q 228 888 322 1041 
Q 450 1253 767 1440 
Q 1084 1628 1822 1897 
L 1822 2009 
Q 1822 2438 1686 2597 
Q 1550 2756 1291 2756 
Q 1094 2756 978 2650 
Q 859 2544 859 2406 
L 866 2225 
Q 866 2081 792 2003 
Q 719 1925 600 1925 
Q 484 1925 411 2006 
Q 338 2088 338 2228 
Q 338 2497 613 2722 
Q 888 2947 1384 2947 
Q 1766 2947 2009 2819 
Q 2194 2722 2281 2516 
Q 2338 2381 2338 1966 
L 2338 994 
Q 2338 584 2353 492 
Q 2369 400 2405 369 
Q 2441 338 2488 338 
Q 2538 338 2575 359 
Q 2641 400 2828 588 
L 2828 413 
Q 2478 -56 2159 -56 
Q 2006 -56 1915 50 
Q 1825 156 1822 413 
z
M 1822 616 
L 1822 1706 
Q 1350 1519 1213 1441 
Q 966 1303 859 1153 
Q 753 1003 753 825 
Q 753 600 887 451 
Q 1022 303 1197 303 
Q 1434 303 1822 616 
z
" id="TimesNewRomanPSMT-61" transform="scale(0.015625)"/>
       <path d="M 1031 3803 
L 1031 2863 
L 1700 2863 
L 1700 2644 
L 1031 2644 
L 1031 788 
Q 1031 509 1111 412 
Q 1191 316 1316 316 
Q 1419 316 1516 380 
Q 1613 444 1666 569 
L 1788 569 
Q 1678 263 1478 108 
Q 1278 -47 1066 -47 
Q 922 -47 784 33 
Q 647 113 581 261 
Q 516 409 516 719 
L 516 2644 
L 63 2644 
L 63 2747 
Q 234 2816 414 2980 
Q 594 3144 734 3369 
Q 806 3488 934 3803 
L 1031 3803 
z
" id="TimesNewRomanPSMT-74" transform="scale(0.015625)"/>
       <path d="M 966 1044 
Q 703 1172 562 1401 
Q 422 1631 422 1909 
Q 422 2334 742 2640 
Q 1063 2947 1563 2947 
Q 1972 2947 2272 2747 
L 2878 2747 
Q 3013 2747 3034 2739 
Q 3056 2731 3066 2713 
Q 3084 2684 3084 2613 
Q 3084 2531 3069 2500 
Q 3059 2484 3036 2475 
Q 3013 2466 2878 2466 
L 2506 2466 
Q 2681 2241 2681 1891 
Q 2681 1491 2375 1206 
Q 2069 922 1553 922 
Q 1341 922 1119 984 
Q 981 866 932 777 
Q 884 688 884 625 
Q 884 572 936 522 
Q 988 472 1138 450 
Q 1225 438 1575 428 
Q 2219 413 2409 384 
Q 2700 344 2873 169 
Q 3047 -6 3047 -263 
Q 3047 -616 2716 -925 
Q 2228 -1381 1444 -1381 
Q 841 -1381 425 -1109 
Q 191 -953 191 -784 
Q 191 -709 225 -634 
Q 278 -519 444 -313 
Q 466 -284 763 25 
Q 600 122 533 198 
Q 466 275 466 372 
Q 466 481 555 628 
Q 644 775 966 1044 
z
M 1509 2797 
Q 1278 2797 1122 2612 
Q 966 2428 966 2047 
Q 966 1553 1178 1281 
Q 1341 1075 1591 1075 
Q 1828 1075 1981 1253 
Q 2134 1431 2134 1813 
Q 2134 2309 1919 2591 
Q 1759 2797 1509 2797 
z
M 934 0 
Q 788 -159 713 -296 
Q 638 -434 638 -550 
Q 638 -700 819 -813 
Q 1131 -1006 1722 -1006 
Q 2284 -1006 2551 -807 
Q 2819 -609 2819 -384 
Q 2819 -222 2659 -153 
Q 2497 -84 2016 -72 
Q 1313 -53 934 0 
z
" id="TimesNewRomanPSMT-67" transform="scale(0.015625)"/>
      </defs>
      <use xlink:href="#TimesNewRomanPSMT-56"/>
      <use x="59.341797" xlink:href="#TimesNewRomanPSMT-6f"/>
      <use x="109.341797" xlink:href="#TimesNewRomanPSMT-6c"/>
      <use x="137.125" xlink:href="#TimesNewRomanPSMT-61"/>
      <use x="181.509766" xlink:href="#TimesNewRomanPSMT-74"/>
      <use x="209.292969" xlink:href="#TimesNewRomanPSMT-61"/>
      <use x="253.677734" xlink:href="#TimesNewRomanPSMT-67"/>
      <use x="303.677734" xlink:href="#TimesNewRomanPSMT-65"/>
      <use x="348.0625" xlink:href="#TimesNewRomanPSMT-20"/>
      <use x="373.0625" xlink:href="#TimesNewRomanPSMT-28"/>
      <use x="406.363281" xlink:href="#TimesNewRomanPSMT-56"/>
      <use x="478.580078" xlink:href="#TimesNewRomanPSMT-29"/>
     </g>
    </g>
   </g>
   <g id="LineCollection_1">
    <path clip-path="url(#p93a2aaa45a)" d="M 78.555057 153.736991 
L 382.918693 153.736991 
" style="fill:none;stroke:#1f77b4;stroke-width:1.5;"/>
   </g>
   <g id="line2d_23">
    <path clip-path="url(#p93a2aaa45a)" d="M 78.555057 153.701564 
L 78.585493 153.74128 
L 78.646366 153.661848 
L 79.376839 153.701564 
L 79.407275 153.780996 
L 79.437711 153.661848 
L 79.468148 153.701564 
L 83.424875 153.780996 
L 83.54662 153.780996 
L 92.129675 153.860429 
L 92.25142 153.900145 
L 92.403602 153.860429 
L 101.38233 153.860429 
L 101.412766 153.74128 
L 101.504075 153.780996 
L 101.656257 153.820713 
L 106.465202 153.74128 
L 106.495639 153.701564 
L 106.556511 153.780996 
L 108.504439 153.701564 
L 108.595748 153.701564 
L 108.74793 153.780996 
L 108.869675 153.701564 
L 109.021857 153.74128 
L 109.174039 153.701564 
L 111.548075 153.780996 
L 111.700257 153.820713 
L 111.822002 153.780996 
L 111.913311 153.860429 
L 111.943748 153.820713 
L 112.917711 153.900145 
L 113.039457 153.939862 
L 113.161202 153.939862 
L 113.282948 153.939862 
L 113.587311 154.019294 
L 113.739493 154.059011 
L 113.861239 154.059011 
L 114.10473 154.138443 
L 114.256911 154.17816 
L 114.34822 154.17816 
L 114.530839 154.257592 
L 114.956948 154.297309 
L 115.078693 154.376741 
L 115.35262 154.456174 
L 115.504802 154.49589 
L 115.870039 154.535606 
L 116.02222 154.654755 
L 116.296148 154.734188 
L 116.478766 154.813621 
L 116.570075 154.773904 
L 116.600511 154.813621 
L 117.239675 154.893053 
L 117.36142 154.93277 
L 117.483166 154.93277 
L 117.544039 155.012202 
L 117.604911 154.972486 
L 118.12233 155.012202 
L 118.213639 155.091635 
L 118.244075 155.051918 
L 118.426693 155.131351 
L 118.548439 155.210784 
L 118.578875 155.171067 
L 118.79193 155.210784 
L 118.822366 155.290216 
L 118.913675 155.2505 
L 119.187602 155.329933 
L 119.339784 155.449082 
L 119.37022 155.409365 
L 119.400657 155.369649 
L 119.46153 155.449082 
L 119.70502 155.488798 
L 119.826766 155.607947 
L 120.009384 155.647663 
L 120.13113 155.727096 
L 120.313748 155.806528 
L 120.435493 155.885961 
L 120.526802 155.965394 
L 120.739857 156.084543 
L 120.80073 156.163975 
L 121.165966 156.481706 
L 121.226839 156.481706 
L 121.37902 156.720003 
L 121.439893 156.799436 
L 122.352984 158.149791 
L 122.566039 158.626386 
L 122.626911 158.705819 
L 124.787893 164.62355 
L 126.82713 173.043408 
L 128.16633 179.517166 
L 128.318511 180.192344 
L 129.383784 185.236315 
L 129.444657 185.434897 
L 131.331711 192.385251 
L 131.42302 192.623549 
L 131.75782 193.57674 
L 131.788257 193.57674 
L 132.031748 194.132769 
L 132.123057 194.212201 
L 132.305675 194.490216 
L 132.336111 194.450499 
L 132.396984 194.529932 
L 132.701348 194.76823 
L 132.975275 194.847662 
L 133.09702 194.847662 
L 133.340511 194.688797 
L 133.43182 194.609364 
L 133.675311 194.251918 
L 134.19273 193.417875 
L 134.86233 191.948372 
L 134.984075 191.630641 
L 135.592802 189.763974 
L 137.145057 181.145534 
L 139.092984 165.020713 
L 142.014875 129.434897 
L 143.47582 108.980997 
L 144.23673 97.939866 
L 145.728111 76.294476 
L 146.610766 64.657594 
L 147.91953 49.009364 
L 148.802184 39.914335 
L 149.92833 30.620715 
L 150.384875 27.880296 
L 150.750111 26.013626 
L 151.17622 24.305825 
L 151.297966 24.027814 
L 151.571893 23.39234 
L 151.876257 22.876038 
L 152.424111 22.32 
L 152.576293 22.359723 
L 152.789348 22.439158 
L 153.458948 23.432063 
L 154.52422 28.039152 
L 155.011202 31.137027 
L 155.467748 34.830644 
L 156.046039 40.152624 
L 157.902657 63.188091 
L 159.21142 85.389512 
L 160.063639 101.712912 
L 167.155311 256.606526 
L 169.133675 290.802277 
L 170.138075 303.670355 
L 170.959857 312.129936 
L 172.238184 321.264675 
L 172.786039 323.568224 
L 173.120839 324.441986 
L 173.425202 324.72 
L 173.577384 324.640564 
L 173.60782 324.72 
L 173.668693 324.68029 
L 173.820875 324.600854 
L 173.912184 324.640564 
L 174.03393 324.561132 
L 174.094802 324.481699 
L 174.581784 323.68737 
L 175.068766 322.138437 
L 176.012293 318.047666 
L 177.351493 308.6349 
L 178.690693 295.449075 
L 181.825639 253.151207 
L 183.773566 220.980995 
L 185.32582 194.609364 
L 189.191239 135.710076 
L 189.76953 127.647662 
L 192.174002 97.701562 
L 193.087093 88.24908 
L 194.669784 74.785253 
L 197.04382 57.071782 
L 197.987348 51.590925 
L 198.200402 50.756888 
L 200.239639 43.210789 
L 200.330948 42.972488 
L 200.635311 42.217885 
L 201.000548 41.622134 
L 201.304911 40.867517 
L 201.639711 40.271782 
L 201.852766 40.112914 
L 201.974511 40.152624 
L 202.035384 40.073201 
L 202.096257 40.152624 
L 202.644111 40.073201 
L 202.704984 39.954045 
L 202.765857 39.993768 
L 202.796293 40.033478 
L 202.857166 39.954045 
L 202.978911 39.914335 
L 203.252839 40.112914 
L 203.374584 40.192346 
L 203.678948 40.430651 
L 203.861566 40.510071 
L 204.013748 40.549793 
L 204.226802 40.629229 
L 204.713784 41.383833 
L 204.987711 42.019294 
L 205.018148 42.019294 
L 205.231202 42.416463 
L 205.626875 43.210789 
L 205.687748 43.250502 
L 206.144293 44.600857 
L 208.031348 49.763981 
L 208.305275 50.63773 
L 210.040148 57.826385 
L 210.405384 59.534193 
L 211.653275 64.856172 
L 213.78382 76.532771 
L 214.727348 83.40369 
L 215.762184 92.379583 
L 218.440584 117.798019 
L 218.89713 122.365394 
L 219.505857 128.918585 
L 224.375675 187.380996 
L 228.697639 242.38809 
L 231.223857 267.607948 
L 232.28913 275.114321 
L 232.928293 278.966803 
L 233.263093 280.793763 
L 234.328366 284.566809 
L 234.906657 285.24198 
L 234.937093 285.20227 
L 235.119711 285.24198 
L 235.21102 285.321416 
L 235.241457 285.281703 
L 235.454511 285.400849 
L 235.667566 285.361139 
L 235.850184 285.16256 
L 236.032802 284.765388 
L 236.671966 282.859008 
L 237.037202 281.508657 
L 237.158948 280.952628 
L 237.706802 277.576739 
L 238.345966 273.446245 
L 238.924257 268.958302 
L 240.019966 259.505814 
L 241.450475 243.460424 
L 246.046366 182.059009 
L 248.755202 141.349791 
L 251.342293 109.020714 
L 252.346693 99.647664 
L 252.985857 94.762558 
L 253.807639 89.122842 
L 254.142439 87.375324 
L 254.568548 85.230643 
L 254.72073 84.595182 
L 255.329457 81.973903 
L 256.242548 78.836314 
L 256.759966 77.724264 
L 256.851275 77.644828 
L 257.246948 77.247665 
L 257.277384 77.287381 
L 257.30782 77.207948 
L 257.64262 76.890218 
L 257.794802 76.929934 
L 257.825239 76.850502 
L 257.886111 76.929934 
L 258.160039 77.00937 
L 258.251348 77.04908 
L 258.281784 76.969654 
L 258.342657 77.088796 
L 258.555711 76.969654 
L 258.677457 76.969654 
L 258.860075 76.890218 
L 259.438366 76.969654 
L 259.590548 77.04908 
L 259.712293 77.04908 
L 260.168839 77.128516 
L 260.381893 77.287381 
L 260.41233 77.247665 
L 260.473202 77.327101 
L 260.65582 77.525679 
L 261.842839 79.23348 
L 263.242911 83.165395 
L 265.34302 91.783832 
L 265.799566 94.087384 
L 266.073493 95.556887 
L 267.138766 101.792348 
L 267.504002 104.21504 
L 268.264911 109.338444 
L 268.569275 111.483125 
L 270.760693 126.456174 
L 271.278111 130.229225 
L 271.399857 131.102982 
L 273.04342 143.097308 
L 274.260875 150.365394 
L 274.626111 152.23206 
L 275.082657 154.49589 
L 275.234839 155.171067 
L 278.004548 165.576741 
L 278.795893 167.880288 
L 278.978511 168.317167 
L 279.435057 169.349791 
L 279.465493 169.310074 
L 279.73942 169.826386 
L 279.952475 170.263265 
L 280.378584 170.898727 
L 280.530766 171.137024 
L 281.991711 172.884542 
L 282.022148 172.844826 
L 282.08302 172.924259 
L 282.17433 173.003691 
L 282.539566 173.321421 
L 282.570002 173.281706 
L 282.600439 173.361138 
L 282.783057 173.440571 
L 283.361348 173.361138 
L 283.51353 173.321421 
L 283.909202 173.241989 
L 284.152693 173.083124 
L 284.213566 173.043408 
L 284.396184 172.844826 
L 284.730984 172.566812 
L 284.791857 172.487379 
L 285.126657 172.209365 
L 285.18753 172.129932 
L 285.43102 171.772485 
L 286.070184 170.779577 
L 286.283239 170.382415 
L 286.709348 169.548373 
L 286.77022 169.468939 
L 287.378948 168.158301 
L 287.43982 168.078868 
L 287.86593 167.244826 
L 288.261602 166.569649 
L 288.53553 166.093053 
L 288.596402 166.053337 
L 288.839893 165.656174 
L 288.931202 165.576741 
L 289.144257 165.298726 
L 289.326875 165.219294 
L 289.479057 165.139862 
L 289.570366 165.139862 
L 289.813857 164.980997 
L 289.935602 164.980997 
L 290.057348 164.901563 
L 290.392148 164.980997 
L 290.87913 165.457592 
L 290.940002 165.537025 
L 291.640039 166.609365 
L 291.88353 167.324259 
L 291.974839 167.602273 
L 292.948802 170.422132 
L 293.709711 173.003691 
L 293.80102 173.281706 
L 296.875093 184.878868 
L 296.966402 185.156881 
L 297.636002 187.380996 
L 297.727311 187.65901 
L 298.001239 188.373904 
L 298.031675 188.373904 
L 298.396911 189.366811 
L 299.24913 191.312911 
L 299.58393 191.868939 
L 299.857857 192.5044 
L 300.101348 192.941279 
L 300.283966 193.219294 
L 300.58833 193.457591 
L 300.679639 193.537024 
L 301.470984 194.410783 
L 302.110148 194.490216 
L 302.353639 194.649081 
L 302.50582 194.728513 
L 302.658002 194.847662 
L 302.901493 194.927095 
L 303.053675 194.966811 
L 303.997202 194.927095 
L 304.149384 194.807946 
L 304.17982 194.847662 
L 304.210257 194.807946 
L 304.362439 194.688797 
L 305.792948 192.663265 
L 307.101711 188.969648 
L 308.684402 182.37674 
L 309.080075 180.510074 
L 309.53662 178.285961 
L 310.693202 171.693053 
L 312.093275 161.883124 
L 312.732439 157.037734 
L 313.767275 149.769649 
L 314.041202 147.783834 
L 315.623893 136.266103 
L 317.054402 127.607948 
L 317.57182 125.185254 
L 318.058802 122.722841 
L 319.306693 116.765394 
L 321.650293 108.027806 
L 322.319893 106.04199 
L 322.563384 105.3271 
L 323.446039 102.745537 
L 324.02433 100.918586 
L 325.333093 97.741281 
L 325.393966 97.661846 
L 326.124439 96.867523 
L 326.36793 96.78809 
L 326.459239 96.708657 
L 326.489675 96.748374 
L 326.641857 96.78809 
L 327.098402 96.867523 
L 327.341893 97.026385 
L 327.524511 97.10582 
L 329.015893 99.210785 
L 329.442002 100.441994 
L 329.898548 101.911491 
L 330.29422 103.420714 
L 331.72473 109.417877 
L 332.120402 111.284543 
L 333.003057 115.176742 
L 338.694657 145.400855 
L 339.059893 147.505819 
L 339.181639 148.061848 
L 339.577311 150.285961 
L 339.66862 150.762557 
L 340.855639 156.402273 
L 341.616548 159.817876 
L 342.164402 162.121422 
L 342.316584 162.756883 
L 342.77313 164.62355 
L 342.834002 164.822131 
L 343.899275 168.555465 
L 343.929711 168.555465 
L 344.173202 169.468939 
L 347.490766 177.849082 
L 347.70382 178.246244 
L 347.977748 178.881706 
L 348.008184 178.881706 
L 348.221239 179.318585 
L 349.71262 181.10582 
L 349.834366 181.185251 
L 350.230039 181.542698 
L 350.351784 181.622132 
L 350.869202 182.138444 
L 350.960511 182.217874 
L 351.14313 182.337026 
L 351.264875 182.337026 
L 351.447493 182.416457 
L 352.39102 182.337026 
L 352.604075 182.178161 
L 352.634511 182.217874 
L 352.695384 182.138444 
L 352.878002 182.019293 
L 352.938875 182.059009 
L 352.969311 182.019293 
L 353.212802 181.860428 
L 353.39542 181.780997 
L 353.517166 181.661846 
L 353.547602 181.701563 
L 353.608475 181.622132 
L 353.943275 181.344116 
L 354.034584 181.264685 
L 354.247639 181.145534 
L 354.430257 181.066103 
L 354.612875 180.986669 
L 354.82593 180.907238 
L 355.008548 180.827804 
L 355.282475 180.748373 
L 355.434657 180.708656 
L 355.708584 180.668939 
L 355.73902 180.589508 
L 355.83033 180.629222 
L 357.230402 180.708656 
L 357.352148 180.708656 
L 357.778257 180.748373 
L 357.808693 180.827804 
L 357.869566 180.788087 
L 358.021748 180.748373 
L 358.386984 180.668939 
L 358.478293 180.629222 
L 358.50873 180.668939 
L 359.056584 180.589508 
L 359.239202 180.510074 
L 359.452257 180.430643 
L 359.634875 180.351209 
L 360.274039 180.311492 
L 360.42622 180.152627 
L 360.547966 180.073196 
L 361.004511 179.636315 
L 361.126257 179.596599 
L 361.308875 179.358301 
L 361.43062 179.278868 
L 362.648075 177.53135 
L 363.043748 176.737024 
L 363.10462 176.697308 
L 363.348111 176.14128 
L 363.622039 175.664685 
L 363.835093 175.267521 
L 364.20033 174.632059 
L 364.44382 174.115748 
L 367.030911 170.859011 
L 367.12222 170.898727 
L 367.335275 170.620712 
L 367.426584 170.54128 
L 367.852693 170.144117 
L 367.944002 170.183833 
L 368.096184 170.064685 
L 368.370111 169.985252 
L 368.55273 169.78667 
L 368.644039 169.78667 
L 368.826657 169.548373 
L 368.857093 169.588088 
L 368.88753 169.508656 
L 369.009275 169.429223 
L 369.100584 169.389506 
L 369.22233 169.310074 
L 369.46582 169.230641 
L 369.678875 169.111493 
L 369.80062 169.032059 
L 370.257166 168.59518 
L 370.287602 168.634897 
L 370.348475 168.555465 
L 370.744148 168.198017 
L 370.865893 168.118585 
L 371.718111 167.165394 
L 371.778984 167.08596 
L 372.783384 165.934188 
L 372.874693 165.854755 
L 374.092148 164.107238 
L 374.457384 163.392344 
L 374.518257 163.312912 
L 374.792184 162.796599 
L 377.805384 154.694472 
L 378.079311 153.820713 
L 378.779348 151.755465 
L 379.022839 151.000855 
L 379.388075 149.769649 
L 380.27073 146.75121 
L 380.51422 145.877451 
L 380.879457 144.527096 
L 382.918693 136.742699 
L 382.918693 136.742699 
" style="fill:none;stroke:#0000ff;stroke-linecap:square;stroke-width:1.5;"/>
   </g>
   <g id="line2d_24">
    <path clip-path="url(#p93a2aaa45a)" d="M 78.555057 153.761694 
L 85.433675 153.682262 
L 85.585857 153.662404 
L 94.503711 153.563113 
L 94.68633 153.563113 
L 100.225748 153.662404 
L 100.408366 153.721978 
L 101.017093 154.01985 
L 101.108402 154.059567 
L 101.778002 154.615595 
L 102.904148 156.263822 
L 103.695493 158.051056 
L 104.456402 160.314886 
L 106.678257 169.449638 
L 110.208875 185.078006 
L 111.213275 187.977296 
L 111.76113 189.109211 
L 111.913311 189.327651 
L 112.948148 190.51914 
L 113.10033 190.499282 
L 113.222075 190.499282 
L 114.226475 189.724814 
L 114.561275 189.109211 
L 114.896075 188.255311 
L 115.383057 186.765948 
L 115.809166 185.375877 
L 116.35702 182.814176 
L 117.513602 176.241126 
L 119.674584 159.957439 
L 125.000948 112.297865 
L 126.309711 103.699284 
L 127.253239 98.814178 
L 128.288075 93.988646 
L 129.870766 89.20283 
L 130.205566 88.785809 
L 130.41862 88.547515 
L 130.75342 88.130487 
L 131.209966 87.951763 
L 131.453457 87.991483 
L 131.75782 87.892192 
L 132.488293 87.097866 
L 132.640475 87.078008 
L 132.914402 87.157444 
L 133.127457 87.256731 
L 133.85793 87.356022 
L 134.284039 87.753185 
L 134.923202 88.408507 
L 135.410184 88.487934 
L 136.53633 89.778717 
L 137.084184 90.255316 
L 138.45382 93.134745 
L 140.493057 102.964529 
L 142.014875 111.463823 
L 142.654039 115.594319 
L 143.993239 125.960276 
L 144.90633 133.287937 
L 145.788984 139.741837 
L 147.341239 152.748928 
L 149.684839 173.143255 
L 153.093711 198.978715 
L 154.128548 204.399991 
L 154.919893 207.49786 
L 155.376439 208.887931 
L 156.228657 210.317718 
L 156.776511 210.853889 
L 157.841784 210.754601 
L 158.663566 209.503537 
L 159.028802 208.82836 
L 159.515784 208.014176 
L 160.185384 206.465236 
L 161.494148 202.771622 
L 161.88982 201.460984 
L 162.863784 197.906374 
L 164.56822 189.66524 
L 164.963893 187.61985 
L 165.937857 182.655311 
L 166.455275 179.954601 
L 168.068402 173.083679 
L 168.58582 171.753183 
L 169.559784 170.085099 
L 169.742402 169.985808 
L 170.01633 169.807084 
L 170.290257 169.707794 
L 170.503311 169.687935 
L 170.655493 169.787226 
L 170.898984 170.045382 
L 172.35993 173.143255 
L 174.460039 181.801411 
L 175.312257 186.209922 
L 178.29502 206.38581 
L 179.238548 212.919137 
L 180.029893 217.36737 
L 180.790802 220.326235 
L 181.125602 221.478002 
L 181.886511 224.019849 
L 182.769166 226.045378 
L 183.256148 226.541832 
L 183.864875 226.045378 
L 184.838839 223.940413 
L 185.508439 220.921977 
L 186.33022 215.460984 
L 187.486802 204.73758 
L 189.130366 185.276588 
L 190.743493 161.724814 
L 194.45673 102.944674 
L 195.917675 83.563111 
L 197.835166 63.506377 
L 198.656948 56.51631 
L 200.270075 44.74042 
L 201.122293 39.89503 
L 201.670148 37.909218 
L 202.583239 35.824108 
L 202.857166 35.526236 
L 203.49633 35.426951 
L 203.770257 35.367367 
L 204.196366 35.4468 
L 204.652911 36.221268 
L 205.687748 39.974466 
L 208.85313 61.341835 
L 220.297202 150.068077 
L 223.006039 167.026942 
L 224.010439 172.845382 
L 226.414911 186.309211 
L 228.51502 195.404247 
L 230.158584 200.408502 
L 233.506584 207.199994 
L 235.88062 213.09786 
L 236.732839 214.527647 
L 238.467711 216.612757 
L 238.924257 216.811338 
L 239.167748 216.771619 
L 241.176548 216.870916 
L 241.541784 216.990062 
L 242.059202 217.069494 
L 242.272257 217.168785 
L 243.033166 217.546093 
L 243.185348 217.645381 
L 244.189748 219.134743 
L 245.315893 221.577299 
L 246.046366 223.205665 
L 246.228984 223.602828 
L 246.868148 224.973037 
L 246.959457 225.151761 
L 248.35953 227.673753 
L 248.542148 227.912047 
L 248.968257 228.289349 
L 249.911784 228.785803 
L 250.429202 228.686512 
L 250.764002 228.587225 
L 250.885748 228.547508 
L 251.190111 228.448218 
L 251.585784 228.110626 
L 251.768402 227.892192 
L 252.681493 225.866654 
L 253.442402 223.026941 
L 254.781602 216.434033 
L 256.151239 206.802828 
L 257.64262 193.21985 
L 259.225311 175.546091 
L 260.351457 161.029779 
L 261.75153 141.310631 
L 267.290948 63.347512 
L 268.660584 49.387232 
L 269.878039 39.974466 
L 270.608511 36.340423 
L 271.36942 33.798573 
L 271.643348 33.262406 
L 272.13033 32.527651 
L 272.252075 32.42837 
L 272.647748 32.229779 
L 272.830366 32.368786 
L 273.195602 32.726233 
L 274.260875 35.029782 
L 274.960911 38.207093 
L 275.600075 41.642545 
L 276.939275 51.09503 
L 277.608875 56.675168 
L 278.187166 61.878005 
L 280.530766 85.90638 
L 285.76582 142.760276 
L 286.374548 148.817014 
L 287.318075 158.090772 
L 288.018111 164.961694 
L 289.357311 177.849637 
L 290.605202 188.493609 
L 291.974839 199.177296 
L 292.918366 205.730488 
L 294.379311 213.653892 
L 295.14022 216.612757 
L 296.175057 219.611342 
L 297.422948 222.570204 
L 298.457784 223.741835 
L 299.888293 223.662402 
L 301.105748 221.895029 
L 302.749311 217.32765 
L 303.327602 214.646799 
L 304.118948 209.980133 
L 305.94513 196.099282 
L 306.52342 191.531906 
L 309.354002 170.224105 
L 311.21062 159.977297 
L 312.275893 154.595737 
L 313.006366 151.358858 
L 315.745639 139.364532 
L 316.080439 138.1929 
L 316.56742 136.465241 
L 317.450075 133.863822 
L 318.058802 131.897864 
L 318.393602 131.004248 
L 318.758839 130.170205 
L 318.941457 129.753183 
L 319.33713 128.740417 
L 319.884984 127.330488 
L 320.493711 125.920559 
L 321.34593 123.497864 
L 322.289457 121.412759 
L 322.959057 119.963114 
L 323.324293 119.307794 
L 324.298257 117.063823 
L 324.998293 115.455312 
L 326.307057 111.563114 
L 327.585384 108.504958 
L 327.768002 108.087936 
L 328.28542 106.836873 
L 329.04633 105.129074 
L 329.320257 104.612759 
L 329.71593 103.878007 
L 330.233348 103.02411 
L 330.689893 102.368788 
L 330.96382 102.070912 
L 331.38993 101.69361 
L 332.029093 101.395735 
L 332.850875 101.475171 
L 333.033493 101.554603 
L 333.276984 101.634039 
L 333.520475 101.773043 
L 334.007457 102.190064 
L 334.464002 102.845387 
L 334.829239 103.500699 
L 337.720693 111.344674 
L 338.725093 114.998575 
L 339.546875 118.731908 
L 340.033857 121.055312 
L 343.747093 143.514886 
L 344.568875 149.571624 
L 345.055857 153.463822 
L 346.486366 165.517723 
L 347.856002 176.201411 
L 350.016984 192.2468 
L 352.48233 207.617012 
L 353.364984 212.164533 
L 354.39982 216.374456 
L 355.434657 219.988643 
L 356.195566 222.113469 
L 356.682548 222.828363 
L 356.804293 222.907789 
L 357.07822 223.086512 
L 357.41302 223.18581 
L 357.595639 223.205665 
L 358.630475 222.4312 
L 359.574002 220.34609 
L 360.09142 218.300697 
L 362.313275 206.127651 
L 364.900366 186.765948 
L 366.756984 171.35602 
L 368.12662 158.805666 
L 368.978839 151.060985 
L 370.439784 136.723397 
L 371.778984 123.855311 
L 374.640002 102.309213 
L 375.82702 95.99432 
L 377.50102 88.865245 
L 378.657602 85.469497 
L 378.901093 84.973043 
L 379.357639 84.317724 
L 379.814184 83.900703 
L 379.93593 83.82127 
L 380.148984 83.702118 
L 380.392475 83.622692 
L 380.544657 83.582972 
L 381.031639 83.682263 
L 381.701239 84.238288 
L 382.492584 85.429781 
L 382.918693 86.283682 
L 382.918693 86.283682 
" style="fill:none;stroke:#ff0000;stroke-linecap:square;stroke-width:1.5;"/>
   </g>
   <g id="line2d_25">
    <path clip-path="url(#p93a2aaa45a)" d="M 124.05742 162.35972 
" style="fill:none;stroke:#ffffff;stroke-linecap:square;stroke-width:1.5;"/>
    <defs>
     <path d="M 0 -5 
L -1.12257 -1.545085 
L -4.755283 -1.545085 
L -1.816356 0.59017 
L -2.938926 4.045085 
L -0 1.90983 
L 2.938926 4.045085 
L 1.816356 0.59017 
L 4.755283 -1.545085 
L 1.12257 -1.545085 
z
" id="mafe3098fa9" style="stroke:#ffffff;stroke-linejoin:bevel;"/>
    </defs>
    <g clip-path="url(#p93a2aaa45a)">
     <use style="fill:#0000ff;stroke:#ffffff;stroke-linejoin:bevel;" x="124.05742" xlink:href="#mafe3098fa9" y="162.35972"/>
    </g>
   </g>
   <g id="line2d_26">
    <path clip-path="url(#p93a2aaa45a)" d="M 104.30422 159.83829 
" style="fill:none;stroke:#ffffff;stroke-linecap:square;stroke-width:1.5;"/>
    <defs>
     <path d="M 0 -5 
L -1.12257 -1.545085 
L -4.755283 -1.545085 
L -1.816356 0.59017 
L -2.938926 4.045085 
L -0 1.90983 
L 2.938926 4.045085 
L 1.816356 0.59017 
L 4.755283 -1.545085 
L 1.12257 -1.545085 
z
" id="m71dd3e4df4" style="stroke:#ffffff;stroke-linejoin:bevel;"/>
    </defs>
    <g clip-path="url(#p93a2aaa45a)">
     <use style="fill:#ff0000;stroke:#ffffff;stroke-linejoin:bevel;" x="104.30422" xlink:href="#m71dd3e4df4" y="159.83829"/>
    </g>
   </g>
   <g id="patch_3">
    <path d="M 63.336875 339.84 
L 63.336875 7.2 
" style="fill:none;stroke:#000000;stroke-linecap:square;stroke-linejoin:miter;stroke-width:0.8;"/>
   </g>
   <g id="patch_4">
    <path d="M 398.136875 339.84 
L 398.136875 7.2 
" style="fill:none;stroke:#000000;stroke-linecap:square;stroke-linejoin:miter;stroke-width:0.8;"/>
   </g>
   <g id="patch_5">
    <path d="M 63.336875 339.84 
L 398.136875 339.84 
" style="fill:none;stroke:#000000;stroke-linecap:square;stroke-linejoin:miter;stroke-width:0.8;"/>
   </g>
   <g id="patch_6">
    <path d="M 63.336875 7.2 
L 398.136875 7.2 
" style="fill:none;stroke:#000000;stroke-linecap:square;stroke-linejoin:miter;stroke-width:0.8;"/>
   </g>
   <g id="text_14">
    <g id="patch_7">
     <path d="M 75.036875 331.242688 
L 166.79375 331.242688 
L 166.79375 293.760312 
L 75.036875 293.760312 
z
" style="fill:#ffffff;stroke:#000000;stroke-linejoin:miter;stroke-width:0.75;"/>
    </g>
    <!-- Auto_00131 -->
    <g transform="translate(80.076875 308.521563)scale(0.14 -0.14)">
     <defs>
      <path d="M 2928 1419 
L 1288 1419 
L 1000 750 
Q 894 503 894 381 
Q 894 284 986 211 
Q 1078 138 1384 116 
L 1384 0 
L 50 0 
L 50 116 
Q 316 163 394 238 
Q 553 388 747 847 
L 2238 4334 
L 2347 4334 
L 3822 809 
Q 4000 384 4145 257 
Q 4291 131 4550 116 
L 4550 0 
L 2878 0 
L 2878 116 
Q 3131 128 3220 200 
Q 3309 272 3309 375 
Q 3309 513 3184 809 
L 2928 1419 
z
M 2841 1650 
L 2122 3363 
L 1384 1650 
L 2841 1650 
z
" id="TimesNewRomanPSMT-41" transform="scale(0.015625)"/>
      <path d="M 2709 2863 
L 2709 1128 
Q 2709 631 2732 520 
Q 2756 409 2807 365 
Q 2859 322 2928 322 
Q 3025 322 3147 375 
L 3191 266 
L 2334 -88 
L 2194 -88 
L 2194 519 
Q 1825 119 1631 15 
Q 1438 -88 1222 -88 
Q 981 -88 804 51 
Q 628 191 559 409 
Q 491 628 491 1028 
L 491 2306 
Q 491 2509 447 2587 
Q 403 2666 317 2708 
Q 231 2750 6 2747 
L 6 2863 
L 1009 2863 
L 1009 947 
Q 1009 547 1148 422 
Q 1288 297 1484 297 
Q 1619 297 1789 381 
Q 1959 466 2194 703 
L 2194 2325 
Q 2194 2569 2105 2655 
Q 2016 2741 1734 2747 
L 1734 2863 
L 2709 2863 
z
" id="TimesNewRomanPSMT-75" transform="scale(0.015625)"/>
      <path d="M 3256 -1381 
L -53 -1381 
L -53 -1119 
L 3256 -1119 
L 3256 -1381 
z
" id="TimesNewRomanPSMT-5f" transform="scale(0.015625)"/>
     </defs>
     <use xlink:href="#TimesNewRomanPSMT-41"/>
     <use x="72.216797" xlink:href="#TimesNewRomanPSMT-75"/>
     <use x="122.216797" xlink:href="#TimesNewRomanPSMT-74"/>
     <use x="150" xlink:href="#TimesNewRomanPSMT-6f"/>
     <use x="200" xlink:href="#TimesNewRomanPSMT-5f"/>
     <use x="250" xlink:href="#TimesNewRomanPSMT-30"/>
     <use x="300" xlink:href="#TimesNewRomanPSMT-30"/>
     <use x="350" xlink:href="#TimesNewRomanPSMT-31"/>
     <use x="400" xlink:href="#TimesNewRomanPSMT-33"/>
     <use x="450" xlink:href="#TimesNewRomanPSMT-31"/>
    </g>
    <!-- Vs: 307.98m/s -->
    <g transform="translate(80.076875 323.208)scale(0.14 -0.14)">
     <defs>
      <path d="M 903 2950 
Q 1047 2950 1148 2848 
Q 1250 2747 1250 2603 
Q 1250 2459 1148 2357 
Q 1047 2256 903 2256 
Q 759 2256 657 2357 
Q 556 2459 556 2603 
Q 556 2747 657 2848 
Q 759 2950 903 2950 
z
M 897 609 
Q 1044 609 1145 506 
Q 1247 403 1247 259 
Q 1247 116 1144 14 
Q 1041 -88 897 -88 
Q 753 -88 651 14 
Q 550 116 550 259 
Q 550 403 651 506 
Q 753 609 897 609 
z
" id="TimesNewRomanPSMT-3a" transform="scale(0.015625)"/>
      <path d="M 644 4238 
L 2916 4238 
L 2916 4119 
L 1503 -88 
L 1153 -88 
L 2419 3728 
L 1253 3728 
Q 900 3728 750 3644 
Q 488 3500 328 3200 
L 238 3234 
L 644 4238 
z
" id="TimesNewRomanPSMT-37" transform="scale(0.015625)"/>
      <path d="M 338 -88 
L 338 28 
Q 744 34 1094 217 
Q 1444 400 1770 856 
Q 2097 1313 2225 1859 
Q 1734 1544 1338 1544 
Q 891 1544 572 1889 
Q 253 2234 253 2806 
Q 253 3363 572 3797 
Q 956 4325 1575 4325 
Q 2097 4325 2469 3894 
Q 2925 3359 2925 2575 
Q 2925 1869 2578 1258 
Q 2231 647 1613 244 
Q 1109 -88 516 -88 
L 338 -88 
z
M 2275 2091 
Q 2331 2497 2331 2741 
Q 2331 3044 2228 3395 
Q 2125 3747 1936 3934 
Q 1747 4122 1506 4122 
Q 1228 4122 1018 3872 
Q 809 3622 809 3128 
Q 809 2469 1088 2097 
Q 1291 1828 1588 1828 
Q 1731 1828 1928 1897 
Q 2125 1966 2275 2091 
z
" id="TimesNewRomanPSMT-39" transform="scale(0.015625)"/>
      <path d="M 1228 2134 
Q 725 2547 579 2797 
Q 434 3047 434 3316 
Q 434 3728 753 4026 
Q 1072 4325 1600 4325 
Q 2113 4325 2425 4047 
Q 2738 3769 2738 3413 
Q 2738 3175 2569 2928 
Q 2400 2681 1866 2347 
Q 2416 1922 2594 1678 
Q 2831 1359 2831 1006 
Q 2831 559 2490 242 
Q 2150 -75 1597 -75 
Q 994 -75 656 303 
Q 388 606 388 966 
Q 388 1247 577 1523 
Q 766 1800 1228 2134 
z
M 1719 2469 
Q 2094 2806 2194 3001 
Q 2294 3197 2294 3444 
Q 2294 3772 2109 3958 
Q 1925 4144 1606 4144 
Q 1288 4144 1088 3959 
Q 888 3775 888 3528 
Q 888 3366 970 3203 
Q 1053 3041 1206 2894 
L 1719 2469 
z
M 1375 2016 
Q 1116 1797 991 1539 
Q 866 1281 866 981 
Q 866 578 1086 336 
Q 1306 94 1647 94 
Q 1984 94 2187 284 
Q 2391 475 2391 747 
Q 2391 972 2272 1150 
Q 2050 1481 1375 2016 
z
" id="TimesNewRomanPSMT-38" transform="scale(0.015625)"/>
      <path d="M 1794 4444 
L 259 -88 
L 9 -88 
L 1544 4444 
L 1794 4444 
z
" id="TimesNewRomanPSMT-2f" transform="scale(0.015625)"/>
     </defs>
     <use xlink:href="#TimesNewRomanPSMT-56"/>
     <use x="72.216797" xlink:href="#TimesNewRomanPSMT-73"/>
     <use x="111.132812" xlink:href="#TimesNewRomanPSMT-3a"/>
     <use x="138.916016" xlink:href="#TimesNewRomanPSMT-20"/>
     <use x="163.916016" xlink:href="#TimesNewRomanPSMT-33"/>
     <use x="213.916016" xlink:href="#TimesNewRomanPSMT-30"/>
     <use x="263.916016" xlink:href="#TimesNewRomanPSMT-37"/>
     <use x="313.916016" xlink:href="#TimesNewRomanPSMT-2e"/>
     <use x="338.916016" xlink:href="#TimesNewRomanPSMT-39"/>
     <use x="388.916016" xlink:href="#TimesNewRomanPSMT-38"/>
     <use x="438.916016" xlink:href="#TimesNewRomanPSMT-6d"/>
     <use x="516.699219" xlink:href="#TimesNewRomanPSMT-2f"/>
     <use x="544.482422" xlink:href="#TimesNewRomanPSMT-73"/>
    </g>
   </g>
  </g>
 </g>
 <defs>
  <clipPath id="p93a2aaa45a">
   <rect height="332.64" width="334.8" x="63.336875" y="7.2"/>
  </clipPath>
 </defs>
</svg>
