<?xml version="1.0" encoding="utf-8" standalone="no"?>
<!DOCTYPE svg PUBLIC "-//W3C//DTD SVG 1.1//EN"
  "http://www.w3.org/Graphics/SVG/1.1/DTD/svg11.dtd">
<svg height="383.471875pt" version="1.1" viewBox="0 0 421.086875 383.471875" width="421.086875pt" xmlns="http://www.w3.org/2000/svg" xmlns:xlink="http://www.w3.org/1999/xlink">
 <metadata>
  <rdf:RDF xmlns:cc="http://creativecommons.org/ns#" xmlns:dc="http://purl.org/dc/elements/1.1/" xmlns:rdf="http://www.w3.org/1999/02/22-rdf-syntax-ns#">
   <cc:Work>
    <dc:type rdf:resource="http://purl.org/dc/dcmitype/StillImage"/>
    <dc:date>2021-06-11T14:39:39.535064</dc:date>
    <dc:format>image/svg+xml</dc:format>
    <dc:creator>
     <cc:Agent>
      <dc:title>Matplotlib v3.4.2, https://matplotlib.org/</dc:title>
     </cc:Agent>
    </dc:creator>
   </cc:Work>
  </rdf:RDF>
 </metadata>
 <defs>
  <style type="text/css">*{stroke-linecap:butt;stroke-linejoin:round;}</style>
 </defs>
 <g id="figure_1">
  <g id="patch_1">
   <path d="M 0 383.471875 
L 421.086875 383.471875 
L 421.086875 0 
L 0 0 
z
" style="fill:#ffffff;"/>
  </g>
  <g id="axes_1">
   <g id="patch_2">
    <path d="M 63.336875 339.84 
L 398.136875 339.84 
L 398.136875 7.2 
L 63.336875 7.2 
z
" style="fill:#ffffff;"/>
   </g>
   <g id="matplotlib.axis_1">
    <g id="xtick_1">
     <g id="line2d_1">
      <path clip-path="url(#pc19fb51377)" d="M 93.773239 339.84 
L 93.773239 7.2 
" style="fill:none;stroke:#000000;stroke-dasharray:0.5,0.825;stroke-dashoffset:0;stroke-width:0.5;"/>
     </g>
     <g id="line2d_2">
      <defs>
       <path d="M 0 0 
L 0 3.5 
" id="m968c521bc0" style="stroke:#000000;stroke-width:0.8;"/>
      </defs>
      <g>
       <use style="stroke:#000000;stroke-width:0.8;" x="93.773239" xlink:href="#m968c521bc0" y="339.84"/>
      </g>
     </g>
     <g id="text_1">
      <!-- 0.000 -->
      <g transform="translate(78.023239 356.56125)scale(0.14 -0.14)">
       <defs>
        <path d="M 231 2094 
Q 231 2819 450 3342 
Q 669 3866 1031 4122 
Q 1313 4325 1613 4325 
Q 2100 4325 2488 3828 
Q 2972 3213 2972 2159 
Q 2972 1422 2759 906 
Q 2547 391 2217 158 
Q 1888 -75 1581 -75 
Q 975 -75 572 641 
Q 231 1244 231 2094 
z
M 844 2016 
Q 844 1141 1059 588 
Q 1238 122 1591 122 
Q 1759 122 1940 273 
Q 2122 425 2216 781 
Q 2359 1319 2359 2297 
Q 2359 3022 2209 3506 
Q 2097 3866 1919 4016 
Q 1791 4119 1609 4119 
Q 1397 4119 1231 3928 
Q 1006 3669 925 3112 
Q 844 2556 844 2016 
z
" id="TimesNewRomanPSMT-30" transform="scale(0.015625)"/>
        <path d="M 800 606 
Q 947 606 1047 504 
Q 1147 403 1147 259 
Q 1147 116 1045 14 
Q 944 -88 800 -88 
Q 656 -88 554 14 
Q 453 116 453 259 
Q 453 406 554 506 
Q 656 606 800 606 
z
" id="TimesNewRomanPSMT-2e" transform="scale(0.015625)"/>
       </defs>
       <use xlink:href="#TimesNewRomanPSMT-30"/>
       <use x="50" xlink:href="#TimesNewRomanPSMT-2e"/>
       <use x="75" xlink:href="#TimesNewRomanPSMT-30"/>
       <use x="125" xlink:href="#TimesNewRomanPSMT-30"/>
       <use x="175" xlink:href="#TimesNewRomanPSMT-30"/>
      </g>
     </g>
    </g>
    <g id="xtick_2">
     <g id="line2d_3">
      <path clip-path="url(#pc19fb51377)" d="M 154.645966 339.84 
L 154.645966 7.2 
" style="fill:none;stroke:#000000;stroke-dasharray:0.5,0.825;stroke-dashoffset:0;stroke-width:0.5;"/>
     </g>
     <g id="line2d_4">
      <g>
       <use style="stroke:#000000;stroke-width:0.8;" x="154.645966" xlink:href="#m968c521bc0" y="339.84"/>
      </g>
     </g>
     <g id="text_2">
      <!-- 0.001 -->
      <g transform="translate(138.895966 356.56125)scale(0.14 -0.14)">
       <defs>
        <path d="M 750 3822 
L 1781 4325 
L 1884 4325 
L 1884 747 
Q 1884 391 1914 303 
Q 1944 216 2037 169 
Q 2131 122 2419 116 
L 2419 0 
L 825 0 
L 825 116 
Q 1125 122 1212 167 
Q 1300 213 1334 289 
Q 1369 366 1369 747 
L 1369 3034 
Q 1369 3497 1338 3628 
Q 1316 3728 1258 3775 
Q 1200 3822 1119 3822 
Q 1003 3822 797 3725 
L 750 3822 
z
" id="TimesNewRomanPSMT-31" transform="scale(0.015625)"/>
       </defs>
       <use xlink:href="#TimesNewRomanPSMT-30"/>
       <use x="50" xlink:href="#TimesNewRomanPSMT-2e"/>
       <use x="75" xlink:href="#TimesNewRomanPSMT-30"/>
       <use x="125" xlink:href="#TimesNewRomanPSMT-30"/>
       <use x="175" xlink:href="#TimesNewRomanPSMT-31"/>
      </g>
     </g>
    </g>
    <g id="xtick_3">
     <g id="line2d_5">
      <path clip-path="url(#pc19fb51377)" d="M 215.518693 339.84 
L 215.518693 7.2 
" style="fill:none;stroke:#000000;stroke-dasharray:0.5,0.825;stroke-dashoffset:0;stroke-width:0.5;"/>
     </g>
     <g id="line2d_6">
      <g>
       <use style="stroke:#000000;stroke-width:0.8;" x="215.518693" xlink:href="#m968c521bc0" y="339.84"/>
      </g>
     </g>
     <g id="text_3">
      <!-- 0.002 -->
      <g transform="translate(199.768693 356.56125)scale(0.14 -0.14)">
       <defs>
        <path d="M 2934 816 
L 2638 0 
L 138 0 
L 138 116 
Q 1241 1122 1691 1759 
Q 2141 2397 2141 2925 
Q 2141 3328 1894 3587 
Q 1647 3847 1303 3847 
Q 991 3847 742 3664 
Q 494 3481 375 3128 
L 259 3128 
Q 338 3706 661 4015 
Q 984 4325 1469 4325 
Q 1984 4325 2329 3994 
Q 2675 3663 2675 3213 
Q 2675 2891 2525 2569 
Q 2294 2063 1775 1497 
Q 997 647 803 472 
L 1909 472 
Q 2247 472 2383 497 
Q 2519 522 2628 598 
Q 2738 675 2819 816 
L 2934 816 
z
" id="TimesNewRomanPSMT-32" transform="scale(0.015625)"/>
       </defs>
       <use xlink:href="#TimesNewRomanPSMT-30"/>
       <use x="50" xlink:href="#TimesNewRomanPSMT-2e"/>
       <use x="75" xlink:href="#TimesNewRomanPSMT-30"/>
       <use x="125" xlink:href="#TimesNewRomanPSMT-30"/>
       <use x="175" xlink:href="#TimesNewRomanPSMT-32"/>
      </g>
     </g>
    </g>
    <g id="xtick_4">
     <g id="line2d_7">
      <path clip-path="url(#pc19fb51377)" d="M 276.39142 339.84 
L 276.39142 7.2 
" style="fill:none;stroke:#000000;stroke-dasharray:0.5,0.825;stroke-dashoffset:0;stroke-width:0.5;"/>
     </g>
     <g id="line2d_8">
      <g>
       <use style="stroke:#000000;stroke-width:0.8;" x="276.39142" xlink:href="#m968c521bc0" y="339.84"/>
      </g>
     </g>
     <g id="text_4">
      <!-- 0.003 -->
      <g transform="translate(260.64142 356.56125)scale(0.14 -0.14)">
       <defs>
        <path d="M 325 3431 
Q 506 3859 782 4092 
Q 1059 4325 1472 4325 
Q 1981 4325 2253 3994 
Q 2459 3747 2459 3466 
Q 2459 3003 1878 2509 
Q 2269 2356 2469 2072 
Q 2669 1788 2669 1403 
Q 2669 853 2319 450 
Q 1863 -75 997 -75 
Q 569 -75 414 31 
Q 259 138 259 259 
Q 259 350 332 419 
Q 406 488 509 488 
Q 588 488 669 463 
Q 722 447 909 348 
Q 1097 250 1169 231 
Q 1284 197 1416 197 
Q 1734 197 1970 444 
Q 2206 691 2206 1028 
Q 2206 1275 2097 1509 
Q 2016 1684 1919 1775 
Q 1784 1900 1550 2001 
Q 1316 2103 1072 2103 
L 972 2103 
L 972 2197 
Q 1219 2228 1467 2375 
Q 1716 2522 1828 2728 
Q 1941 2934 1941 3181 
Q 1941 3503 1739 3701 
Q 1538 3900 1238 3900 
Q 753 3900 428 3381 
L 325 3431 
z
" id="TimesNewRomanPSMT-33" transform="scale(0.015625)"/>
       </defs>
       <use xlink:href="#TimesNewRomanPSMT-30"/>
       <use x="50" xlink:href="#TimesNewRomanPSMT-2e"/>
       <use x="75" xlink:href="#TimesNewRomanPSMT-30"/>
       <use x="125" xlink:href="#TimesNewRomanPSMT-30"/>
       <use x="175" xlink:href="#TimesNewRomanPSMT-33"/>
      </g>
     </g>
    </g>
    <g id="xtick_5">
     <g id="line2d_9">
      <path clip-path="url(#pc19fb51377)" d="M 337.264148 339.84 
L 337.264148 7.2 
" style="fill:none;stroke:#000000;stroke-dasharray:0.5,0.825;stroke-dashoffset:0;stroke-width:0.5;"/>
     </g>
     <g id="line2d_10">
      <g>
       <use style="stroke:#000000;stroke-width:0.8;" x="337.264148" xlink:href="#m968c521bc0" y="339.84"/>
      </g>
     </g>
     <g id="text_5">
      <!-- 0.004 -->
      <g transform="translate(321.514148 356.56125)scale(0.14 -0.14)">
       <defs>
        <path d="M 2978 1563 
L 2978 1119 
L 2409 1119 
L 2409 0 
L 1894 0 
L 1894 1119 
L 100 1119 
L 100 1519 
L 2066 4325 
L 2409 4325 
L 2409 1563 
L 2978 1563 
z
M 1894 1563 
L 1894 3666 
L 406 1563 
L 1894 1563 
z
" id="TimesNewRomanPSMT-34" transform="scale(0.015625)"/>
       </defs>
       <use xlink:href="#TimesNewRomanPSMT-30"/>
       <use x="50" xlink:href="#TimesNewRomanPSMT-2e"/>
       <use x="75" xlink:href="#TimesNewRomanPSMT-30"/>
       <use x="125" xlink:href="#TimesNewRomanPSMT-30"/>
       <use x="175" xlink:href="#TimesNewRomanPSMT-34"/>
      </g>
     </g>
    </g>
    <g id="xtick_6">
     <g id="line2d_11">
      <path clip-path="url(#pc19fb51377)" d="M 398.136875 339.84 
L 398.136875 7.2 
" style="fill:none;stroke:#000000;stroke-dasharray:0.5,0.825;stroke-dashoffset:0;stroke-width:0.5;"/>
     </g>
     <g id="line2d_12">
      <g>
       <use style="stroke:#000000;stroke-width:0.8;" x="398.136875" xlink:href="#m968c521bc0" y="339.84"/>
      </g>
     </g>
     <g id="text_6">
      <!-- 0.005 -->
      <g transform="translate(382.386875 356.56125)scale(0.14 -0.14)">
       <defs>
        <path d="M 2778 4238 
L 2534 3706 
L 1259 3706 
L 981 3138 
Q 1809 3016 2294 2522 
Q 2709 2097 2709 1522 
Q 2709 1188 2573 903 
Q 2438 619 2231 419 
Q 2025 219 1772 97 
Q 1413 -75 1034 -75 
Q 653 -75 479 54 
Q 306 184 306 341 
Q 306 428 378 495 
Q 450 563 559 563 
Q 641 563 702 538 
Q 763 513 909 409 
Q 1144 247 1384 247 
Q 1750 247 2026 523 
Q 2303 800 2303 1197 
Q 2303 1581 2056 1914 
Q 1809 2247 1375 2428 
Q 1034 2569 447 2591 
L 1259 4238 
L 2778 4238 
z
" id="TimesNewRomanPSMT-35" transform="scale(0.015625)"/>
       </defs>
       <use xlink:href="#TimesNewRomanPSMT-30"/>
       <use x="50" xlink:href="#TimesNewRomanPSMT-2e"/>
       <use x="75" xlink:href="#TimesNewRomanPSMT-30"/>
       <use x="125" xlink:href="#TimesNewRomanPSMT-30"/>
       <use x="175" xlink:href="#TimesNewRomanPSMT-35"/>
      </g>
     </g>
    </g>
    <g id="text_7">
     <!-- Time (sec) -->
     <g transform="translate(200.858906 373.277188)scale(0.14 -0.14)">
      <defs>
       <path d="M 3703 4238 
L 3750 3244 
L 3631 3244 
Q 3597 3506 3538 3619 
Q 3441 3800 3280 3886 
Q 3119 3972 2856 3972 
L 2259 3972 
L 2259 734 
Q 2259 344 2344 247 
Q 2463 116 2709 116 
L 2856 116 
L 2856 0 
L 1059 0 
L 1059 116 
L 1209 116 
Q 1478 116 1591 278 
Q 1659 378 1659 734 
L 1659 3972 
L 1150 3972 
Q 853 3972 728 3928 
Q 566 3869 450 3700 
Q 334 3531 313 3244 
L 194 3244 
L 244 4238 
L 3703 4238 
z
" id="TimesNewRomanPSMT-54" transform="scale(0.015625)"/>
       <path d="M 928 4444 
Q 1059 4444 1151 4351 
Q 1244 4259 1244 4128 
Q 1244 3997 1151 3903 
Q 1059 3809 928 3809 
Q 797 3809 703 3903 
Q 609 3997 609 4128 
Q 609 4259 701 4351 
Q 794 4444 928 4444 
z
M 1188 2947 
L 1188 647 
Q 1188 378 1227 289 
Q 1266 200 1342 156 
Q 1419 113 1622 113 
L 1622 0 
L 231 0 
L 231 113 
Q 441 113 512 153 
Q 584 194 626 287 
Q 669 381 669 647 
L 669 1750 
Q 669 2216 641 2353 
Q 619 2453 572 2492 
Q 525 2531 444 2531 
Q 356 2531 231 2484 
L 188 2597 
L 1050 2947 
L 1188 2947 
z
" id="TimesNewRomanPSMT-69" transform="scale(0.015625)"/>
       <path d="M 1050 2338 
Q 1363 2650 1419 2697 
Q 1559 2816 1721 2881 
Q 1884 2947 2044 2947 
Q 2313 2947 2506 2790 
Q 2700 2634 2766 2338 
Q 3088 2713 3309 2830 
Q 3531 2947 3766 2947 
Q 3994 2947 4170 2830 
Q 4347 2713 4450 2447 
Q 4519 2266 4519 1878 
L 4519 647 
Q 4519 378 4559 278 
Q 4591 209 4675 161 
Q 4759 113 4950 113 
L 4950 0 
L 3538 0 
L 3538 113 
L 3597 113 
Q 3781 113 3884 184 
Q 3956 234 3988 344 
Q 4000 397 4000 647 
L 4000 1878 
Q 4000 2228 3916 2372 
Q 3794 2572 3525 2572 
Q 3359 2572 3192 2489 
Q 3025 2406 2788 2181 
L 2781 2147 
L 2788 2013 
L 2788 647 
Q 2788 353 2820 281 
Q 2853 209 2943 161 
Q 3034 113 3253 113 
L 3253 0 
L 1806 0 
L 1806 113 
Q 2044 113 2133 169 
Q 2222 225 2256 338 
Q 2272 391 2272 647 
L 2272 1878 
Q 2272 2228 2169 2381 
Q 2031 2581 1784 2581 
Q 1616 2581 1450 2491 
Q 1191 2353 1050 2181 
L 1050 647 
Q 1050 366 1089 281 
Q 1128 197 1204 155 
Q 1281 113 1516 113 
L 1516 0 
L 100 0 
L 100 113 
Q 297 113 375 155 
Q 453 197 493 289 
Q 534 381 534 647 
L 534 1741 
Q 534 2213 506 2350 
Q 484 2453 437 2492 
Q 391 2531 309 2531 
Q 222 2531 100 2484 
L 53 2597 
L 916 2947 
L 1050 2947 
L 1050 2338 
z
" id="TimesNewRomanPSMT-6d" transform="scale(0.015625)"/>
       <path d="M 681 1784 
Q 678 1147 991 784 
Q 1303 422 1725 422 
Q 2006 422 2214 576 
Q 2422 731 2563 1106 
L 2659 1044 
Q 2594 616 2278 264 
Q 1963 -88 1488 -88 
Q 972 -88 605 314 
Q 238 716 238 1394 
Q 238 2128 614 2539 
Q 991 2950 1559 2950 
Q 2041 2950 2350 2633 
Q 2659 2316 2659 1784 
L 681 1784 
z
M 681 1966 
L 2006 1966 
Q 1991 2241 1941 2353 
Q 1863 2528 1708 2628 
Q 1553 2728 1384 2728 
Q 1125 2728 920 2526 
Q 716 2325 681 1966 
z
" id="TimesNewRomanPSMT-65" transform="scale(0.015625)"/>
       <path id="TimesNewRomanPSMT-20" transform="scale(0.015625)"/>
       <path d="M 1988 -1253 
L 1988 -1369 
Q 1516 -1131 1200 -813 
Q 750 -359 506 256 
Q 263 872 263 1534 
Q 263 2503 741 3301 
Q 1219 4100 1988 4444 
L 1988 4313 
Q 1603 4100 1356 3731 
Q 1109 3363 987 2797 
Q 866 2231 866 1616 
Q 866 947 969 400 
Q 1050 -31 1165 -292 
Q 1281 -553 1476 -793 
Q 1672 -1034 1988 -1253 
z
" id="TimesNewRomanPSMT-28" transform="scale(0.015625)"/>
       <path d="M 2050 2947 
L 2050 1972 
L 1947 1972 
Q 1828 2431 1642 2597 
Q 1456 2763 1169 2763 
Q 950 2763 815 2647 
Q 681 2531 681 2391 
Q 681 2216 781 2091 
Q 878 1963 1175 1819 
L 1631 1597 
Q 2266 1288 2266 781 
Q 2266 391 1970 151 
Q 1675 -88 1309 -88 
Q 1047 -88 709 6 
Q 606 38 541 38 
Q 469 38 428 -44 
L 325 -44 
L 325 978 
L 428 978 
Q 516 541 762 319 
Q 1009 97 1316 97 
Q 1531 97 1667 223 
Q 1803 350 1803 528 
Q 1803 744 1651 891 
Q 1500 1038 1047 1263 
Q 594 1488 453 1669 
Q 313 1847 313 2119 
Q 313 2472 555 2709 
Q 797 2947 1181 2947 
Q 1350 2947 1591 2875 
Q 1750 2828 1803 2828 
Q 1853 2828 1881 2850 
Q 1909 2872 1947 2947 
L 2050 2947 
z
" id="TimesNewRomanPSMT-73" transform="scale(0.015625)"/>
       <path d="M 2631 1088 
Q 2516 522 2178 217 
Q 1841 -88 1431 -88 
Q 944 -88 581 321 
Q 219 731 219 1428 
Q 219 2103 620 2525 
Q 1022 2947 1584 2947 
Q 2006 2947 2278 2723 
Q 2550 2500 2550 2259 
Q 2550 2141 2473 2067 
Q 2397 1994 2259 1994 
Q 2075 1994 1981 2113 
Q 1928 2178 1911 2362 
Q 1894 2547 1784 2644 
Q 1675 2738 1481 2738 
Q 1169 2738 978 2506 
Q 725 2200 725 1697 
Q 725 1184 976 792 
Q 1228 400 1656 400 
Q 1963 400 2206 609 
Q 2378 753 2541 1131 
L 2631 1088 
z
" id="TimesNewRomanPSMT-63" transform="scale(0.015625)"/>
       <path d="M 144 4313 
L 144 4444 
Q 619 4209 934 3891 
Q 1381 3434 1625 2820 
Q 1869 2206 1869 1541 
Q 1869 572 1392 -226 
Q 916 -1025 144 -1369 
L 144 -1253 
Q 528 -1038 776 -670 
Q 1025 -303 1145 264 
Q 1266 831 1266 1447 
Q 1266 2113 1163 2663 
Q 1084 3094 967 3353 
Q 850 3613 656 3853 
Q 463 4094 144 4313 
z
" id="TimesNewRomanPSMT-29" transform="scale(0.015625)"/>
      </defs>
      <use xlink:href="#TimesNewRomanPSMT-54"/>
      <use x="57.583984" xlink:href="#TimesNewRomanPSMT-69"/>
      <use x="85.367188" xlink:href="#TimesNewRomanPSMT-6d"/>
      <use x="163.150391" xlink:href="#TimesNewRomanPSMT-65"/>
      <use x="207.535156" xlink:href="#TimesNewRomanPSMT-20"/>
      <use x="232.535156" xlink:href="#TimesNewRomanPSMT-28"/>
      <use x="265.835938" xlink:href="#TimesNewRomanPSMT-73"/>
      <use x="304.751953" xlink:href="#TimesNewRomanPSMT-65"/>
      <use x="349.136719" xlink:href="#TimesNewRomanPSMT-63"/>
      <use x="393.521484" xlink:href="#TimesNewRomanPSMT-29"/>
     </g>
    </g>
   </g>
   <g id="matplotlib.axis_2">
    <g id="ytick_1">
     <g id="line2d_13">
      <path clip-path="url(#pc19fb51377)" d="M 63.336875 283.141228 
L 398.136875 283.141228 
" style="fill:none;stroke:#000000;stroke-dasharray:0.5,0.825;stroke-dashoffset:0;stroke-width:0.5;"/>
     </g>
     <g id="line2d_14">
      <defs>
       <path d="M 0 0 
L -3.5 0 
" id="mcddfb0f0a1" style="stroke:#000000;stroke-width:0.8;"/>
      </defs>
      <g>
       <use style="stroke:#000000;stroke-width:0.8;" x="63.336875" xlink:href="#mcddfb0f0a1" y="283.141228"/>
      </g>
     </g>
     <g id="text_8">
      <!-- −0.04 -->
      <g transform="translate(23.942188 288.001853)scale(0.14 -0.14)">
       <defs>
        <path d="M 3484 2000 
L 116 2000 
L 116 2256 
L 3484 2256 
L 3484 2000 
z
" id="TimesNewRomanPSMT-2212" transform="scale(0.015625)"/>
       </defs>
       <use xlink:href="#TimesNewRomanPSMT-2212"/>
       <use x="56.396484" xlink:href="#TimesNewRomanPSMT-30"/>
       <use x="106.396484" xlink:href="#TimesNewRomanPSMT-2e"/>
       <use x="131.396484" xlink:href="#TimesNewRomanPSMT-30"/>
       <use x="181.396484" xlink:href="#TimesNewRomanPSMT-34"/>
      </g>
     </g>
    </g>
    <g id="ytick_2">
     <g id="line2d_15">
      <path clip-path="url(#pc19fb51377)" d="M 63.336875 218.517213 
L 398.136875 218.517213 
" style="fill:none;stroke:#000000;stroke-dasharray:0.5,0.825;stroke-dashoffset:0;stroke-width:0.5;"/>
     </g>
     <g id="line2d_16">
      <g>
       <use style="stroke:#000000;stroke-width:0.8;" x="63.336875" xlink:href="#mcddfb0f0a1" y="218.517213"/>
      </g>
     </g>
     <g id="text_9">
      <!-- −0.02 -->
      <g transform="translate(23.942188 223.377838)scale(0.14 -0.14)">
       <use xlink:href="#TimesNewRomanPSMT-2212"/>
       <use x="56.396484" xlink:href="#TimesNewRomanPSMT-30"/>
       <use x="106.396484" xlink:href="#TimesNewRomanPSMT-2e"/>
       <use x="131.396484" xlink:href="#TimesNewRomanPSMT-30"/>
       <use x="181.396484" xlink:href="#TimesNewRomanPSMT-32"/>
      </g>
     </g>
    </g>
    <g id="ytick_3">
     <g id="line2d_17">
      <path clip-path="url(#pc19fb51377)" d="M 63.336875 153.893197 
L 398.136875 153.893197 
" style="fill:none;stroke:#000000;stroke-dasharray:0.5,0.825;stroke-dashoffset:0;stroke-width:0.5;"/>
     </g>
     <g id="line2d_18">
      <g>
       <use style="stroke:#000000;stroke-width:0.8;" x="63.336875" xlink:href="#mcddfb0f0a1" y="153.893197"/>
      </g>
     </g>
     <g id="text_10">
      <!-- 0.00 -->
      <g transform="translate(31.836875 158.753822)scale(0.14 -0.14)">
       <use xlink:href="#TimesNewRomanPSMT-30"/>
       <use x="50" xlink:href="#TimesNewRomanPSMT-2e"/>
       <use x="75" xlink:href="#TimesNewRomanPSMT-30"/>
       <use x="125" xlink:href="#TimesNewRomanPSMT-30"/>
      </g>
     </g>
    </g>
    <g id="ytick_4">
     <g id="line2d_19">
      <path clip-path="url(#pc19fb51377)" d="M 63.336875 89.269181 
L 398.136875 89.269181 
" style="fill:none;stroke:#000000;stroke-dasharray:0.5,0.825;stroke-dashoffset:0;stroke-width:0.5;"/>
     </g>
     <g id="line2d_20">
      <g>
       <use style="stroke:#000000;stroke-width:0.8;" x="63.336875" xlink:href="#mcddfb0f0a1" y="89.269181"/>
      </g>
     </g>
     <g id="text_11">
      <!-- 0.02 -->
      <g transform="translate(31.836875 94.129806)scale(0.14 -0.14)">
       <use xlink:href="#TimesNewRomanPSMT-30"/>
       <use x="50" xlink:href="#TimesNewRomanPSMT-2e"/>
       <use x="75" xlink:href="#TimesNewRomanPSMT-30"/>
       <use x="125" xlink:href="#TimesNewRomanPSMT-32"/>
      </g>
     </g>
    </g>
    <g id="ytick_5">
     <g id="line2d_21">
      <path clip-path="url(#pc19fb51377)" d="M 63.336875 24.645166 
L 398.136875 24.645166 
" style="fill:none;stroke:#000000;stroke-dasharray:0.5,0.825;stroke-dashoffset:0;stroke-width:0.5;"/>
     </g>
     <g id="line2d_22">
      <g>
       <use style="stroke:#000000;stroke-width:0.8;" x="63.336875" xlink:href="#mcddfb0f0a1" y="24.645166"/>
      </g>
     </g>
     <g id="text_12">
      <!-- 0.04 -->
      <g transform="translate(31.836875 29.505791)scale(0.14 -0.14)">
       <use xlink:href="#TimesNewRomanPSMT-30"/>
       <use x="50" xlink:href="#TimesNewRomanPSMT-2e"/>
       <use x="75" xlink:href="#TimesNewRomanPSMT-30"/>
       <use x="125" xlink:href="#TimesNewRomanPSMT-34"/>
      </g>
     </g>
    </g>
    <g id="text_13">
     <!-- Volatage (V) -->
     <g transform="translate(16.92125 209.352344)rotate(-90)scale(0.14 -0.14)">
      <defs>
       <path d="M 4544 4238 
L 4544 4122 
Q 4319 4081 4203 3978 
Q 4038 3825 3909 3509 
L 2431 -97 
L 2316 -97 
L 728 3556 
Q 606 3838 556 3900 
Q 478 3997 364 4051 
Q 250 4106 56 4122 
L 56 4238 
L 1788 4238 
L 1788 4122 
Q 1494 4094 1406 4022 
Q 1319 3950 1319 3838 
Q 1319 3681 1463 3350 
L 2541 866 
L 3541 3319 
Q 3688 3681 3688 3822 
Q 3688 3913 3597 3995 
Q 3506 4078 3291 4113 
Q 3275 4116 3238 4122 
L 3238 4238 
L 4544 4238 
z
" id="TimesNewRomanPSMT-56" transform="scale(0.015625)"/>
       <path d="M 1600 2947 
Q 2250 2947 2644 2453 
Q 2978 2031 2978 1484 
Q 2978 1100 2793 706 
Q 2609 313 2286 112 
Q 1963 -88 1566 -88 
Q 919 -88 538 428 
Q 216 863 216 1403 
Q 216 1797 411 2186 
Q 606 2575 925 2761 
Q 1244 2947 1600 2947 
z
M 1503 2744 
Q 1338 2744 1170 2645 
Q 1003 2547 900 2300 
Q 797 2053 797 1666 
Q 797 1041 1045 587 
Q 1294 134 1700 134 
Q 2003 134 2200 384 
Q 2397 634 2397 1244 
Q 2397 2006 2069 2444 
Q 1847 2744 1503 2744 
z
" id="TimesNewRomanPSMT-6f" transform="scale(0.015625)"/>
       <path d="M 1184 4444 
L 1184 647 
Q 1184 378 1223 290 
Q 1263 203 1344 158 
Q 1425 113 1647 113 
L 1647 0 
L 244 0 
L 244 113 
Q 441 113 512 153 
Q 584 194 625 287 
Q 666 381 666 647 
L 666 3247 
Q 666 3731 644 3842 
Q 622 3953 573 3993 
Q 525 4034 450 4034 
Q 369 4034 244 3984 
L 191 4094 
L 1044 4444 
L 1184 4444 
z
" id="TimesNewRomanPSMT-6c" transform="scale(0.015625)"/>
       <path d="M 1822 413 
Q 1381 72 1269 19 
Q 1100 -59 909 -59 
Q 613 -59 420 144 
Q 228 347 228 678 
Q 228 888 322 1041 
Q 450 1253 767 1440 
Q 1084 1628 1822 1897 
L 1822 2009 
Q 1822 2438 1686 2597 
Q 1550 2756 1291 2756 
Q 1094 2756 978 2650 
Q 859 2544 859 2406 
L 866 2225 
Q 866 2081 792 2003 
Q 719 1925 600 1925 
Q 484 1925 411 2006 
Q 338 2088 338 2228 
Q 338 2497 613 2722 
Q 888 2947 1384 2947 
Q 1766 2947 2009 2819 
Q 2194 2722 2281 2516 
Q 2338 2381 2338 1966 
L 2338 994 
Q 2338 584 2353 492 
Q 2369 400 2405 369 
Q 2441 338 2488 338 
Q 2538 338 2575 359 
Q 2641 400 2828 588 
L 2828 413 
Q 2478 -56 2159 -56 
Q 2006 -56 1915 50 
Q 1825 156 1822 413 
z
M 1822 616 
L 1822 1706 
Q 1350 1519 1213 1441 
Q 966 1303 859 1153 
Q 753 1003 753 825 
Q 753 600 887 451 
Q 1022 303 1197 303 
Q 1434 303 1822 616 
z
" id="TimesNewRomanPSMT-61" transform="scale(0.015625)"/>
       <path d="M 1031 3803 
L 1031 2863 
L 1700 2863 
L 1700 2644 
L 1031 2644 
L 1031 788 
Q 1031 509 1111 412 
Q 1191 316 1316 316 
Q 1419 316 1516 380 
Q 1613 444 1666 569 
L 1788 569 
Q 1678 263 1478 108 
Q 1278 -47 1066 -47 
Q 922 -47 784 33 
Q 647 113 581 261 
Q 516 409 516 719 
L 516 2644 
L 63 2644 
L 63 2747 
Q 234 2816 414 2980 
Q 594 3144 734 3369 
Q 806 3488 934 3803 
L 1031 3803 
z
" id="TimesNewRomanPSMT-74" transform="scale(0.015625)"/>
       <path d="M 966 1044 
Q 703 1172 562 1401 
Q 422 1631 422 1909 
Q 422 2334 742 2640 
Q 1063 2947 1563 2947 
Q 1972 2947 2272 2747 
L 2878 2747 
Q 3013 2747 3034 2739 
Q 3056 2731 3066 2713 
Q 3084 2684 3084 2613 
Q 3084 2531 3069 2500 
Q 3059 2484 3036 2475 
Q 3013 2466 2878 2466 
L 2506 2466 
Q 2681 2241 2681 1891 
Q 2681 1491 2375 1206 
Q 2069 922 1553 922 
Q 1341 922 1119 984 
Q 981 866 932 777 
Q 884 688 884 625 
Q 884 572 936 522 
Q 988 472 1138 450 
Q 1225 438 1575 428 
Q 2219 413 2409 384 
Q 2700 344 2873 169 
Q 3047 -6 3047 -263 
Q 3047 -616 2716 -925 
Q 2228 -1381 1444 -1381 
Q 841 -1381 425 -1109 
Q 191 -953 191 -784 
Q 191 -709 225 -634 
Q 278 -519 444 -313 
Q 466 -284 763 25 
Q 600 122 533 198 
Q 466 275 466 372 
Q 466 481 555 628 
Q 644 775 966 1044 
z
M 1509 2797 
Q 1278 2797 1122 2612 
Q 966 2428 966 2047 
Q 966 1553 1178 1281 
Q 1341 1075 1591 1075 
Q 1828 1075 1981 1253 
Q 2134 1431 2134 1813 
Q 2134 2309 1919 2591 
Q 1759 2797 1509 2797 
z
M 934 0 
Q 788 -159 713 -296 
Q 638 -434 638 -550 
Q 638 -700 819 -813 
Q 1131 -1006 1722 -1006 
Q 2284 -1006 2551 -807 
Q 2819 -609 2819 -384 
Q 2819 -222 2659 -153 
Q 2497 -84 2016 -72 
Q 1313 -53 934 0 
z
" id="TimesNewRomanPSMT-67" transform="scale(0.015625)"/>
      </defs>
      <use xlink:href="#TimesNewRomanPSMT-56"/>
      <use x="59.341797" xlink:href="#TimesNewRomanPSMT-6f"/>
      <use x="109.341797" xlink:href="#TimesNewRomanPSMT-6c"/>
      <use x="137.125" xlink:href="#TimesNewRomanPSMT-61"/>
      <use x="181.509766" xlink:href="#TimesNewRomanPSMT-74"/>
      <use x="209.292969" xlink:href="#TimesNewRomanPSMT-61"/>
      <use x="253.677734" xlink:href="#TimesNewRomanPSMT-67"/>
      <use x="303.677734" xlink:href="#TimesNewRomanPSMT-65"/>
      <use x="348.0625" xlink:href="#TimesNewRomanPSMT-20"/>
      <use x="373.0625" xlink:href="#TimesNewRomanPSMT-28"/>
      <use x="406.363281" xlink:href="#TimesNewRomanPSMT-56"/>
      <use x="478.580078" xlink:href="#TimesNewRomanPSMT-29"/>
     </g>
    </g>
   </g>
   <g id="LineCollection_1">
    <path clip-path="url(#pc19fb51377)" d="M 78.555057 153.893197 
L 382.918693 153.893197 
" style="fill:none;stroke:#1f77b4;stroke-width:1.5;"/>
   </g>
   <g id="line2d_23">
    <path clip-path="url(#pc19fb51377)" d="M 78.555057 153.829865 
L 78.676802 153.870255 
L 78.828984 153.829865 
L 81.903057 153.870255 
L 81.96393 153.951035 
L 82.024802 153.910645 
L 82.176984 153.870255 
L 83.029202 153.951035 
L 83.120511 153.951035 
L 83.272693 153.910645 
L 83.424875 153.951035 
L 102.204111 154.031815 
L 102.325857 154.031815 
L 106.40433 154.112595 
L 106.465202 154.152985 
L 106.495639 154.072205 
L 111.09153 154.112595 
L 111.182839 154.193375 
L 111.213275 154.112595 
L 111.274148 154.193375 
L 112.035057 154.274155 
L 112.156802 154.274155 
L 112.67422 154.354936 
L 112.795966 154.395326 
L 112.917711 154.395326 
L 113.252511 154.476106 
L 113.404693 154.516496 
L 113.800366 154.597276 
L 113.982984 154.678056 
L 114.378657 154.758836 
L 114.409093 154.839616 
L 114.469966 154.758836 
L 114.77433 154.839616 
L 114.987384 154.960786 
L 115.413493 155.041566 
L 115.535239 155.041566 
L 115.77873 155.122346 
L 115.900475 155.162736 
L 115.930911 155.122346 
L 115.961348 155.203126 
L 116.143966 155.283906 
L 116.235275 155.243516 
L 116.265711 155.283906 
L 116.874439 155.364686 
L 117.02662 155.405076 
L 117.36142 155.485856 
L 117.513602 155.526246 
L 118.152766 155.566636 
L 118.274511 155.687806 
L 118.548439 155.768586 
L 118.731057 155.849366 
L 119.096293 155.930146 
L 119.187602 156.010926 
L 119.218039 155.970536 
L 119.46153 156.132096 
L 119.644148 156.212876 
L 119.857202 156.334046 
L 120.070257 156.414826 
L 120.37462 156.657166 
L 120.496366 156.697556 
L 120.618111 156.859116 
L 120.648548 156.778336 
L 120.678984 156.859116 
L 120.861602 157.061066 
L 121.013784 157.141846 
L 121.226839 157.424576 
L 121.866002 158.353546 
L 122.04862 158.757447 
L 122.535602 159.767197 
L 122.596475 159.847977 
L 124.087857 164.088928 
L 126.796693 175.276961 
L 127.222802 177.377241 
L 128.531566 183.758862 
L 131.17953 193.856365 
L 131.970875 195.673916 
L 132.336111 196.037426 
L 132.366548 195.997036 
L 132.42742 196.077816 
L 133.157893 195.997036 
L 133.43182 195.552745 
L 133.705748 195.027675 
L 135.258002 190.705944 
L 135.501493 189.736584 
L 135.714548 188.888394 
L 136.627639 183.516521 
L 138.819057 165.219848 
L 140.340875 147.932924 
L 142.593166 116.630666 
L 143.780184 99.384129 
L 144.267166 92.275487 
L 145.57593 73.130626 
L 146.002039 67.435634 
L 148.528257 38.556781 
L 150.080511 27.086018 
L 150.719675 24.218321 
L 151.389275 22.723894 
L 151.693639 22.48155 
L 151.84582 22.400767 
L 151.998002 22.360384 
L 152.27193 22.441164 
L 153.063275 23.652861 
L 153.51982 25.147301 
L 154.067675 27.772642 
L 154.432911 30.155662 
L 155.072075 35.08324 
L 156.137348 45.907756 
L 158.115711 73.615306 
L 159.515784 99.626475 
L 161.31153 137.552691 
L 166.790075 258.722724 
L 169.133675 297.295183 
L 170.442439 311.63363 
L 171.081602 316.601608 
L 171.994693 322.054263 
L 172.055566 322.256209 
L 172.512111 323.669853 
L 172.664293 323.99298 
L 172.877348 324.518053 
L 172.907784 324.477657 
L 172.968657 324.558437 
L 173.151275 324.72 
L 173.303457 324.59882 
L 173.851311 323.750633 
L 174.094802 323.225563 
L 174.125239 323.26596 
L 174.155675 323.144793 
L 175.464439 317.530575 
L 176.742766 308.321656 
L 178.477639 291.196289 
L 181.703893 247.009618 
L 182.282184 238.285379 
L 184.169239 206.498438 
L 184.808402 195.956646 
L 186.908511 163.725418 
L 187.578111 154.072205 
L 191.200039 107.462134 
L 193.878439 80.158484 
L 194.761093 73.615306 
L 195.36982 68.970455 
L 196.13073 63.235073 
L 196.526402 60.165436 
L 197.865602 51.966264 
L 199.600475 45.503859 
L 199.935275 44.413329 
L 200.178766 43.443965 
L 200.909239 41.787975 
L 201.15273 41.303301 
L 201.548402 40.495498 
L 201.578839 40.495498 
L 201.73102 40.293551 
L 202.857166 40.212768 
L 202.918039 40.172371 
L 202.948475 40.212768 
L 203.07022 40.212768 
L 203.191966 40.293551 
L 203.648511 40.737841 
L 203.83113 40.778228 
L 203.922439 40.859008 
L 203.952875 40.818624 
L 204.16593 40.939788 
L 204.196366 40.899392 
L 204.257239 40.980175 
L 204.774657 41.828371 
L 205.17033 42.595778 
L 205.50513 43.161235 
L 205.779057 43.807476 
L 208.274839 50.673784 
L 208.76182 52.693284 
L 208.944439 53.460688 
L 209.400984 55.318628 
L 210.10102 58.549832 
L 210.801057 61.70025 
L 210.86193 61.942596 
L 211.074984 62.79078 
L 211.501093 64.931454 
L 211.957639 67.233684 
L 212.353311 69.212795 
L 214.392548 83.470468 
L 215.427384 92.598607 
L 216.066548 99.020619 
L 216.523093 103.544306 
L 219.779784 139.289461 
L 222.610366 174.34799 
L 223.858257 191.029064 
L 224.58873 199.955257 
L 225.50182 211.668363 
L 226.019239 218.292321 
L 227.93673 242.283984 
L 229.215057 256.29932 
L 230.006402 263.488742 
L 230.85862 270.395437 
L 231.589093 274.838328 
L 231.923893 276.696278 
L 233.506584 282.633607 
L 233.567457 282.71439 
L 234.510984 283.845304 
L 235.576257 282.270096 
L 236.97633 276.251985 
L 237.919857 269.26451 
L 239.31993 257.228287 
L 240.354766 246.605715 
L 242.66793 217.686474 
L 246.381166 166.956618 
L 248.207348 139.572192 
L 250.916184 105.07912 
L 251.981457 94.941231 
L 252.164075 93.446801 
L 253.229348 85.813092 
L 254.812039 77.97743 
L 255.664257 75.028956 
L 255.755566 74.786619 
L 256.212111 73.413353 
L 256.425166 73.009459 
L 256.607784 72.726723 
L 256.790402 72.484386 
L 256.820839 72.524776 
L 256.881711 72.443996 
L 257.125202 72.282439 
L 257.216511 72.282439 
L 257.368693 72.161266 
L 257.886111 72.242049 
L 258.281784 72.605559 
L 258.525275 72.645949 
L 258.64702 72.726723 
L 258.98182 72.807506 
L 259.347057 73.130626 
L 259.438366 73.211406 
L 259.834039 73.615306 
L 259.864475 73.574916 
L 259.925348 73.655699 
L 260.047093 73.696089 
L 260.168839 73.898036 
L 260.199275 73.857646 
L 260.442766 74.221156 
L 260.74713 74.786619 
L 260.960184 75.190513 
L 262.32982 79.067954 
L 262.725493 80.643168 
L 262.908111 81.410578 
L 264.247311 87.953763 
L 264.521239 89.48858 
L 265.43433 94.900841 
L 266.073493 99.101402 
L 267.321384 108.067984 
L 268.082293 114.166876 
L 268.325784 116.024816 
L 268.78233 119.740697 
L 272.526002 148.700334 
L 272.860802 151.002565 
L 273.560839 155.687806 
L 274.260875 159.646027 
L 274.686984 161.786698 
L 275.508766 165.623748 
L 275.691384 166.391158 
L 276.969711 171.0764 
L 277.06102 171.318739 
L 277.669748 173.29785 
L 279.49593 177.902311 
L 279.556802 177.942702 
L 279.861166 178.467772 
L 280.74382 179.477521 
L 280.774257 179.437132 
L 280.83513 179.517912 
L 280.926439 179.598692 
L 281.596039 180.366101 
L 281.626475 180.325712 
L 281.687348 180.406492 
L 281.961275 180.487272 
L 282.143893 180.568052 
L 282.235202 180.568052 
L 282.265639 180.648832 
L 282.356948 180.608443 
L 282.570002 180.689222 
L 282.75262 180.770002 
L 283.056984 180.689222 
L 283.330911 180.487272 
L 283.483093 180.406492 
L 283.75702 180.204541 
L 283.909202 180.164152 
L 284.030948 179.962202 
L 284.061384 180.002591 
L 284.122257 179.962202 
L 284.365748 179.598692 
L 284.457057 179.558301 
L 284.609239 179.315961 
L 284.730984 179.235182 
L 284.944039 178.952451 
L 285.004911 178.871671 
L 285.735384 177.740751 
L 286.070184 177.134901 
L 286.131057 177.054122 
L 286.587602 176.125151 
L 286.800657 175.680861 
L 287.226766 174.832671 
L 287.409384 174.469161 
L 287.652875 173.944091 
L 288.078984 173.21707 
L 288.383348 172.692 
L 289.235566 171.72264 
L 289.479057 171.64186 
L 289.631239 171.60147 
L 289.844293 171.561079 
L 289.996475 171.399519 
L 290.026911 171.480299 
L 290.057348 171.35913 
L 290.087784 171.399519 
L 290.148657 171.35913 
L 290.179093 171.399519 
L 290.300839 171.43991 
L 290.392148 171.43991 
L 290.87913 171.924589 
L 290.970439 171.96498 
L 291.12262 172.20732 
L 291.153057 172.16693 
L 291.731348 173.0959 
L 292.096584 174.105651 
L 292.309639 174.549941 
L 292.492257 175.03462 
L 292.644439 175.39813 
L 293.009675 176.44827 
L 293.13142 176.731001 
L 293.527093 177.861922 
L 296.722911 186.061093 
L 297.301202 186.990064 
L 297.605566 187.555524 
L 297.696875 187.595915 
L 297.879493 187.838253 
L 298.031675 187.919035 
L 298.275166 188.120984 
L 298.305602 188.080594 
L 298.366475 188.161374 
L 298.883893 188.726834 
L 299.005639 188.726834 
L 299.127384 188.726834 
L 299.370875 188.646054 
L 299.49262 188.605664 
L 299.644802 188.646054 
L 299.857857 188.646054 
L 300.010039 188.807614 
L 300.070911 188.726834 
L 300.101348 188.767224 
L 300.16222 188.848004 
L 300.223093 188.807614 
L 300.58833 188.484494 
L 300.649202 188.403714 
L 300.953566 188.161374 
L 301.197057 188.080594 
L 301.440548 187.919035 
L 301.470984 187.959422 
L 301.50142 187.878644 
L 304.27113 184.041594 
L 306.27993 178.427381 
L 307.680002 172.449659 
L 308.045239 170.75328 
L 308.501784 168.53183 
L 309.019202 165.785308 
L 309.445311 163.644638 
L 310.327966 158.474716 
L 310.601893 156.939896 
L 311.21062 153.183625 
L 312.032402 147.529024 
L 314.954293 128.86884 
L 315.56302 125.112568 
L 315.89782 123.214238 
L 316.050002 122.527608 
L 316.841348 118.852117 
L 317.023966 118.125097 
L 317.358766 116.913396 
L 318.271857 113.722586 
L 318.728402 112.228155 
L 319.306693 110.370215 
L 321.224184 105.563804 
L 323.659093 102.171046 
L 323.902584 101.807536 
L 324.298257 101.403636 
L 324.328693 101.444026 
L 324.389566 101.363243 
L 324.906984 100.838169 
L 325.089602 100.797779 
L 325.211348 100.717006 
L 325.36353 100.757389 
L 325.393966 100.717006 
L 325.454839 100.797779 
L 325.60702 100.878563 
L 325.759202 100.999733 
L 326.063566 101.242073 
L 326.154875 101.322853 
L 326.580984 102.049873 
L 326.61142 102.009483 
L 326.794039 102.453776 
L 328.71153 107.825644 
L 329.776802 112.510885 
L 331.846475 124.062428 
L 332.607384 128.384161 
L 332.942184 130.12093 
L 333.30742 132.261601 
L 333.39873 132.74628 
L 334.372693 138.481662 
L 335.346657 144.217043 
L 337.99462 157.707306 
L 338.512039 160.171097 
L 338.938148 162.311767 
L 339.059893 162.877227 
L 339.820802 166.350768 
L 341.220875 171.480299 
L 341.586111 172.73239 
L 341.799166 173.37863 
L 341.890475 173.62097 
L 342.316584 174.87306 
L 343.594911 177.983091 
L 343.838402 178.427381 
L 344.051457 178.871671 
L 345.329784 180.406492 
L 345.421093 180.487272 
L 345.664584 180.689222 
L 345.69502 180.648832 
L 345.725457 180.729612 
L 346.090693 181.052731 
L 346.242875 181.133512 
L 346.425493 181.335463 
L 346.547239 181.416241 
L 347.064657 181.941311 
L 347.12553 182.022093 
L 347.429893 182.304821 
L 347.46033 182.264434 
L 347.490766 182.385603 
L 347.734257 182.466381 
L 347.916875 182.547163 
L 348.069057 182.627941 
L 348.221239 182.668332 
L 348.79953 182.587553 
L 348.982148 182.466381 
L 349.073457 182.466381 
L 349.225639 182.385603 
L 349.256075 182.466381 
L 349.316948 182.425994 
L 349.499566 182.304821 
L 349.621311 182.304821 
L 349.834366 182.224043 
L 350.13873 181.981702 
L 350.260475 182.022093 
L 350.534402 181.820142 
L 350.747457 181.739361 
L 350.930075 181.658582 
L 351.112693 181.577801 
L 351.417057 181.335463 
L 351.508366 181.254681 
L 351.660548 181.093122 
L 351.751857 181.012343 
L 353.638911 178.346601 
L 353.912839 177.902311 
L 355.525966 175.9232 
L 355.647711 175.84242 
L 355.799893 175.680861 
L 355.921639 175.600081 
L 356.134693 175.47891 
L 356.195566 175.39813 
L 356.439057 175.236571 
L 356.682548 175.155791 
L 356.83473 175.03462 
L 357.017348 174.87306 
L 357.047784 174.913451 
L 357.16953 174.832671 
L 357.291275 174.751891 
L 357.565202 174.67111 
L 357.74782 174.59033 
L 357.869566 174.50955 
L 358.08262 174.388381 
L 358.113057 174.388381 
L 358.265239 174.186431 
L 358.356548 174.186431 
L 358.691348 173.863311 
L 358.721784 173.9037 
L 358.782657 173.82292 
L 358.904402 173.742141 
L 359.391384 173.257459 
L 359.51313 173.17668 
L 359.939239 172.77278 
L 359.969675 172.813169 
L 360.030548 172.73239 
L 360.365348 172.449659 
L 360.456657 172.368879 
L 361.795857 170.430159 
L 362.039348 169.905089 
L 362.313275 169.380019 
L 362.648075 168.774169 
L 362.891566 168.289489 
L 363.743784 166.310378 
L 363.987275 165.866088 
L 364.230766 165.341018 
L 364.717748 164.331268 
L 364.77862 164.290878 
L 365.052548 163.806197 
L 365.11342 163.725418 
L 367.030911 161.302017 
L 367.061348 161.342408 
L 367.12222 161.261627 
L 367.639639 160.696167 
L 367.670075 160.736557 
L 367.730948 160.655777 
L 367.852693 160.574997 
L 368.065748 160.373047 
L 368.096184 160.413437 
L 368.157057 160.332657 
L 368.187493 160.413437 
L 368.309239 160.332657 
L 368.339675 160.373047 
L 368.370111 160.251877 
L 368.400548 160.292267 
L 368.704911 160.009537 
L 368.735348 160.049927 
L 368.765784 159.969147 
L 368.978839 159.807587 
L 369.009275 159.847977 
L 369.039711 159.767197 
L 369.283202 159.605637 
L 369.55713 159.524857 
L 369.770184 159.363297 
L 369.89193 159.363297 
L 370.348475 158.878616 
L 370.378911 158.919007 
L 370.439784 158.838227 
L 370.774584 158.555497 
L 370.865893 158.515107 
L 371.048511 158.313157 
L 371.870293 157.384186 
L 371.961602 157.343796 
L 372.14422 157.101456 
L 372.23553 157.020676 
L 372.874693 156.334046 
L 372.966002 156.253266 
L 373.757348 155.324296 
L 373.787784 155.364686 
L 373.81822 155.324296 
L 374.092148 154.839616 
L 374.183457 154.758836 
L 374.609566 154.072205 
L 374.82262 153.668305 
L 374.853057 153.708695 
L 374.883493 153.587525 
L 375.24873 152.941285 
L 375.857457 151.608415 
L 376.16182 151.042955 
L 376.405311 150.517885 
L 376.58793 150.113984 
L 377.561893 147.811754 
L 377.59233 147.811754 
L 377.866257 147.165514 
L 378.59673 145.509523 
L 378.779348 145.105623 
L 378.809784 145.146013 
L 378.992402 144.661333 
L 379.144584 144.297823 
L 382.918693 134.442661 
L 382.918693 134.442661 
" style="fill:none;stroke:#0000ff;stroke-linecap:square;stroke-width:1.5;"/>
   </g>
   <g id="line2d_24">
    <path clip-path="url(#pc19fb51377)" d="M 78.555057 153.991345 
L 81.690002 153.89037 
L 81.87262 153.870175 
L 82.055239 153.870175 
L 98.03433 153.7692 
L 98.186511 153.749005 
L 98.338693 153.7692 
L 98.521311 153.749005 
L 98.643057 153.7692 
L 98.825675 153.7692 
L 99.982257 153.870175 
L 100.317057 153.97115 
L 100.590984 154.05193 
L 100.864911 154.233685 
L 101.595384 154.839535 
L 102.751966 156.55611 
L 103.604184 158.494831 
L 105.521675 165.239963 
L 110.148002 186.242767 
L 111.913311 190.645279 
L 112.856839 191.715614 
L 113.069893 191.735809 
L 113.374257 191.634834 
L 114.01342 191.089569 
L 114.530839 190.241378 
L 115.322184 187.838173 
L 116.417893 183.031761 
L 118.03102 172.732309 
L 118.883239 166.391078 
L 122.231239 136.58325 
L 123.205202 127.394522 
L 125.122693 110.612474 
L 127.618475 96.374996 
L 128.531566 92.659112 
L 129.262039 90.175129 
L 129.74902 89.165382 
L 130.327311 88.579724 
L 131.17953 88.135434 
L 131.392584 88.236405 
L 131.636075 88.276799 
L 132.610039 87.670949 
L 132.640475 87.731534 
L 132.823093 87.812314 
L 133.127457 88.034459 
L 133.52313 88.175824 
L 133.827493 88.276799 
L 134.923202 89.549084 
L 135.075384 89.569282 
L 135.805857 90.175129 
L 136.688511 91.164688 
L 137.053748 91.528198 
L 137.358111 92.113846 
L 137.936402 93.345742 
L 138.423384 94.537253 
L 139.21473 98.131958 
L 139.762584 100.73712 
L 140.493057 104.634753 
L 143.171457 121.295632 
L 144.510657 131.877814 
L 149.228293 170.308909 
L 150.110948 177.478135 
L 153.154584 198.884841 
L 153.885057 202.580526 
L 154.980766 206.498361 
L 155.61993 207.912011 
L 155.741675 208.012983 
L 156.046039 208.376493 
L 156.350402 208.699613 
L 156.563457 208.881368 
L 156.837384 208.94195 
L 157.233057 208.840978 
L 157.415675 208.760195 
L 157.598293 208.699613 
L 157.780911 208.57844 
L 158.085275 208.255323 
L 158.480948 207.548501 
L 160.55062 203.186377 
L 161.98113 199.086791 
L 163.472511 193.755309 
L 164.385602 189.675918 
L 166.546584 180.143877 
L 168.159711 175.155709 
L 169.194548 173.964205 
L 169.316293 173.94401 
L 169.498911 173.94401 
L 169.742402 174.024789 
L 169.985893 174.166154 
L 170.168511 174.267129 
L 170.564184 174.650835 
L 170.838111 175.155709 
L 171.446839 176.791505 
L 171.812075 177.760865 
L 172.207748 179.113931 
L 172.542548 180.56797 
L 173.303457 184.021318 
L 174.155675 188.504608 
L 175.464439 196.037345 
L 176.103602 200.278296 
L 176.894948 205.650167 
L 179.025493 220.432907 
L 180.334257 226.794337 
L 180.699493 227.844478 
L 181.216911 229.116763 
L 181.551711 230.005346 
L 181.947384 230.752558 
L 182.769166 231.661333 
L 183.043093 231.721918 
L 183.164839 231.681525 
L 183.469202 231.176653 
L 183.895311 230.146711 
L 184.260548 228.975398 
L 184.534475 227.965648 
L 185.021457 225.582634 
L 185.782366 220.412716 
L 187.182439 206.377187 
L 188.552075 188.706558 
L 191.01742 149.447469 
L 192.660984 120.911927 
L 195.308948 80.420942 
L 196.526402 66.445998 
L 197.317748 58.751702 
L 198.687384 47.846392 
L 200.270075 38.051815 
L 201.335348 33.608924 
L 201.639711 32.982872 
L 202.035384 32.437613 
L 202.309311 32.134685 
L 202.583239 31.952937 
L 202.765857 31.952937 
L 203.313711 32.437613 
L 203.861566 32.982872 
L 204.07462 33.245414 
L 204.318111 33.750289 
L 204.592039 34.537891 
L 204.896402 35.608223 
L 205.779057 40.192492 
L 209.157493 65.618003 
L 209.796657 70.545584 
L 210.709748 77.997544 
L 212.87073 95.688366 
L 215.092584 112.712755 
L 216.249166 121.739921 
L 220.358075 153.56725 
L 225.16702 184.768533 
L 225.775748 188.120903 
L 226.567093 192.200294 
L 227.60193 196.764365 
L 228.27153 199.369521 
L 229.732475 203.832617 
L 230.067275 204.458662 
L 230.767311 205.609777 
L 232.654366 208.295713 
L 233.019602 208.820786 
L 233.110911 208.921758 
L 233.62833 209.769945 
L 234.145748 210.860475 
L 234.450111 211.446134 
L 236.093675 214.495579 
L 236.30673 214.758114 
L 237.432875 216.070793 
L 237.858984 216.474693 
L 238.193784 216.737222 
L 238.802511 217.019958 
L 239.015566 216.979568 
L 239.198184 216.99976 
L 239.380802 216.939175 
L 239.65473 216.858395 
L 239.837348 216.858395 
L 239.98953 216.75742 
L 240.111275 216.737222 
L 241.085239 216.838203 
L 241.359166 216.918977 
L 241.480911 216.95937 
L 241.815711 217.060342 
L 242.211384 217.161323 
L 242.728802 217.383468 
L 242.941857 217.48444 
L 243.215784 217.666195 
L 243.550584 218.009507 
L 244.189748 219.019257 
L 244.524548 219.625114 
L 244.798475 220.170379 
L 245.620257 222.048511 
L 247.111639 224.774837 
L 247.172511 224.875812 
L 247.568184 225.421077 
L 247.811675 225.703807 
L 248.389966 226.289462 
L 248.816075 226.451025 
L 249.242184 226.370242 
L 249.394366 226.329852 
L 249.668293 226.22888 
L 250.185711 225.784587 
L 250.581384 225.219124 
L 250.764002 224.976787 
L 251.433602 223.906455 
L 251.95102 222.634166 
L 252.864111 219.241402 
L 253.685893 214.899479 
L 254.477239 210.133455 
L 255.481639 202.742086 
L 256.090366 197.51158 
L 258.586148 171.561 
L 259.773166 156.939815 
L 261.690657 131.393135 
L 263.912511 100.535167 
L 266.43873 70.081099 
L 267.899675 55.722454 
L 269.147566 46.614497 
L 270.243275 41.363806 
L 271.217239 39.081764 
L 271.856402 38.778835 
L 272.404257 38.879817 
L 273.04342 39.889567 
L 273.499966 41.020494 
L 274.13913 42.999595 
L 275.082657 47.886789 
L 276.908839 60.690422 
L 278.917639 78.966901 
L 281.596039 106.735033 
L 286.10062 153.405689 
L 289.905166 187.737198 
L 291.396548 198.72328 
L 292.522693 206.17524 
L 294.105384 214.031094 
L 294.89673 216.27274 
L 295.56633 217.746978 
L 295.992439 218.393218 
L 296.083748 218.49419 
L 297.362075 220.008816 
L 297.757748 220.089596 
L 297.90993 220.129986 
L 298.275166 220.029014 
L 298.883893 219.50394 
L 300.101348 217.706588 
L 301.653602 213.304074 
L 303.418911 205.831922 
L 304.027639 202.015066 
L 305.85382 187.898758 
L 306.797348 180.709335 
L 308.319166 169.460718 
L 309.901857 159.686336 
L 310.96713 154.61739 
L 311.088875 154.152905 
L 312.275893 149.144543 
L 313.188984 145.751783 
L 314.102075 142.035902 
L 314.89342 139.026847 
L 315.441275 137.007345 
L 316.354366 134.28102 
L 317.176148 131.938399 
L 317.32833 131.554695 
L 317.602257 130.787283 
L 318.515348 128.141738 
L 319.215384 126.526138 
L 319.824111 124.870146 
L 320.524148 123.234353 
L 322.776439 117.559556 
L 324.785239 113.318605 
L 326.854911 108.108294 
L 327.37233 107.239908 
L 327.981057 106.270548 
L 328.498475 105.422358 
L 328.772402 104.978068 
L 329.594184 104.069293 
L 330.781202 103.402857 
L 331.542111 103.483637 
L 331.816039 103.685587 
L 331.96822 103.766367 
L 332.576948 104.392413 
L 332.759566 104.614558 
L 333.155239 105.159823 
L 333.916148 106.331133 
L 335.681457 111.319299 
L 336.868475 115.60064 
L 337.75113 118.892426 
L 340.490402 132.140349 
L 341.951348 141.106931 
L 343.77753 152.678669 
L 344.994984 161.483691 
L 346.45593 173.136209 
L 347.521202 180.931481 
L 348.982148 190.786644 
L 350.47353 199.955176 
L 351.508366 205.488604 
L 353.608475 214.737916 
L 354.612875 217.68639 
L 355.465093 219.645306 
L 356.226002 220.937789 
L 356.712984 221.139736 
L 357.017348 221.038761 
L 357.291275 220.857006 
L 357.626075 220.513691 
L 358.143493 219.645306 
L 358.721784 218.393218 
L 358.904402 217.989315 
L 359.42182 216.35352 
L 361.339311 205.609777 
L 363.469857 190.786644 
L 365.87433 170.995539 
L 366.696111 164.230212 
L 368.735348 146.297048 
L 369.831057 136.724616 
L 371.352875 122.689088 
L 372.387711 114.651475 
L 372.752948 112.147294 
L 373.90953 104.513583 
L 375.857457 94.7392 
L 376.618366 92.113846 
L 376.83142 91.467609 
L 377.744511 88.822064 
L 378.688039 87.186268 
L 379.114148 86.802563 
L 379.50982 86.661202 
L 380.148984 86.762173 
L 380.60553 86.943928 
L 380.727275 87.024712 
L 382.005602 88.902844 
L 382.766511 90.659806 
L 382.918693 91.063706 
L 382.918693 91.063706 
" style="fill:none;stroke:#ff0000;stroke-linecap:square;stroke-width:1.5;"/>
   </g>
   <g id="line2d_25">
    <path clip-path="url(#pc19fb51377)" d="M 123.570439 162.473327 
" style="fill:none;stroke:#ffffff;stroke-linecap:square;stroke-width:1.5;"/>
    <defs>
     <path d="M 0 -5 
L -1.12257 -1.545085 
L -4.755283 -1.545085 
L -1.816356 0.59017 
L -2.938926 4.045085 
L -0 1.90983 
L 2.938926 4.045085 
L 1.816356 0.59017 
L 4.755283 -1.545085 
L 1.12257 -1.545085 
z
" id="mb813b51d30" style="stroke:#ffffff;stroke-linejoin:bevel;"/>
    </defs>
    <g clip-path="url(#pc19fb51377)">
     <use style="fill:#0000ff;stroke:#ffffff;stroke-linejoin:bevel;" x="123.570439" xlink:href="#mb813b51d30" y="162.473327"/>
    </g>
   </g>
   <g id="line2d_26">
    <path clip-path="url(#pc19fb51377)" d="M 104.121602 160.049846 
" style="fill:none;stroke:#ffffff;stroke-linecap:square;stroke-width:1.5;"/>
    <defs>
     <path d="M 0 -5 
L -1.12257 -1.545085 
L -4.755283 -1.545085 
L -1.816356 0.59017 
L -2.938926 4.045085 
L -0 1.90983 
L 2.938926 4.045085 
L 1.816356 0.59017 
L 4.755283 -1.545085 
L 1.12257 -1.545085 
z
" id="me1752da0c4" style="stroke:#ffffff;stroke-linejoin:bevel;"/>
    </defs>
    <g clip-path="url(#pc19fb51377)">
     <use style="fill:#ff0000;stroke:#ffffff;stroke-linejoin:bevel;" x="104.121602" xlink:href="#me1752da0c4" y="160.049846"/>
    </g>
   </g>
   <g id="patch_3">
    <path d="M 63.336875 339.84 
L 63.336875 7.2 
" style="fill:none;stroke:#000000;stroke-linecap:square;stroke-linejoin:miter;stroke-width:0.8;"/>
   </g>
   <g id="patch_4">
    <path d="M 398.136875 339.84 
L 398.136875 7.2 
" style="fill:none;stroke:#000000;stroke-linecap:square;stroke-linejoin:miter;stroke-width:0.8;"/>
   </g>
   <g id="patch_5">
    <path d="M 63.336875 339.84 
L 398.136875 339.84 
" style="fill:none;stroke:#000000;stroke-linecap:square;stroke-linejoin:miter;stroke-width:0.8;"/>
   </g>
   <g id="patch_6">
    <path d="M 63.336875 7.2 
L 398.136875 7.2 
" style="fill:none;stroke:#000000;stroke-linecap:square;stroke-linejoin:miter;stroke-width:0.8;"/>
   </g>
   <g id="text_14">
    <g id="patch_7">
     <path d="M 75.036875 331.242688 
L 166.79375 331.242688 
L 166.79375 293.760312 
L 75.036875 293.760312 
z
" style="fill:#ffffff;stroke:#000000;stroke-linejoin:miter;stroke-width:0.75;"/>
    </g>
    <!-- Auto_00160 -->
    <g transform="translate(80.076875 308.521562)scale(0.14 -0.14)">
     <defs>
      <path d="M 2928 1419 
L 1288 1419 
L 1000 750 
Q 894 503 894 381 
Q 894 284 986 211 
Q 1078 138 1384 116 
L 1384 0 
L 50 0 
L 50 116 
Q 316 163 394 238 
Q 553 388 747 847 
L 2238 4334 
L 2347 4334 
L 3822 809 
Q 4000 384 4145 257 
Q 4291 131 4550 116 
L 4550 0 
L 2878 0 
L 2878 116 
Q 3131 128 3220 200 
Q 3309 272 3309 375 
Q 3309 513 3184 809 
L 2928 1419 
z
M 2841 1650 
L 2122 3363 
L 1384 1650 
L 2841 1650 
z
" id="TimesNewRomanPSMT-41" transform="scale(0.015625)"/>
      <path d="M 2709 2863 
L 2709 1128 
Q 2709 631 2732 520 
Q 2756 409 2807 365 
Q 2859 322 2928 322 
Q 3025 322 3147 375 
L 3191 266 
L 2334 -88 
L 2194 -88 
L 2194 519 
Q 1825 119 1631 15 
Q 1438 -88 1222 -88 
Q 981 -88 804 51 
Q 628 191 559 409 
Q 491 628 491 1028 
L 491 2306 
Q 491 2509 447 2587 
Q 403 2666 317 2708 
Q 231 2750 6 2747 
L 6 2863 
L 1009 2863 
L 1009 947 
Q 1009 547 1148 422 
Q 1288 297 1484 297 
Q 1619 297 1789 381 
Q 1959 466 2194 703 
L 2194 2325 
Q 2194 2569 2105 2655 
Q 2016 2741 1734 2747 
L 1734 2863 
L 2709 2863 
z
" id="TimesNewRomanPSMT-75" transform="scale(0.015625)"/>
      <path d="M 3256 -1381 
L -53 -1381 
L -53 -1119 
L 3256 -1119 
L 3256 -1381 
z
" id="TimesNewRomanPSMT-5f" transform="scale(0.015625)"/>
      <path d="M 2869 4325 
L 2869 4209 
Q 2456 4169 2195 4045 
Q 1934 3922 1679 3669 
Q 1425 3416 1258 3105 
Q 1091 2794 978 2366 
Q 1428 2675 1881 2675 
Q 2316 2675 2634 2325 
Q 2953 1975 2953 1425 
Q 2953 894 2631 456 
Q 2244 -75 1606 -75 
Q 1172 -75 869 213 
Q 275 772 275 1663 
Q 275 2231 503 2743 
Q 731 3256 1154 3653 
Q 1578 4050 1965 4187 
Q 2353 4325 2688 4325 
L 2869 4325 
z
M 925 2138 
Q 869 1716 869 1456 
Q 869 1156 980 804 
Q 1091 453 1309 247 
Q 1469 100 1697 100 
Q 1969 100 2183 356 
Q 2397 613 2397 1088 
Q 2397 1622 2184 2012 
Q 1972 2403 1581 2403 
Q 1463 2403 1327 2353 
Q 1191 2303 925 2138 
z
" id="TimesNewRomanPSMT-36" transform="scale(0.015625)"/>
     </defs>
     <use xlink:href="#TimesNewRomanPSMT-41"/>
     <use x="72.216797" xlink:href="#TimesNewRomanPSMT-75"/>
     <use x="122.216797" xlink:href="#TimesNewRomanPSMT-74"/>
     <use x="150" xlink:href="#TimesNewRomanPSMT-6f"/>
     <use x="200" xlink:href="#TimesNewRomanPSMT-5f"/>
     <use x="250" xlink:href="#TimesNewRomanPSMT-30"/>
     <use x="300" xlink:href="#TimesNewRomanPSMT-30"/>
     <use x="350" xlink:href="#TimesNewRomanPSMT-31"/>
     <use x="400" xlink:href="#TimesNewRomanPSMT-36"/>
     <use x="450" xlink:href="#TimesNewRomanPSMT-30"/>
    </g>
    <!-- Vs: 312.77m/s -->
    <g transform="translate(80.076875 323.208)scale(0.14 -0.14)">
     <defs>
      <path d="M 903 2950 
Q 1047 2950 1148 2848 
Q 1250 2747 1250 2603 
Q 1250 2459 1148 2357 
Q 1047 2256 903 2256 
Q 759 2256 657 2357 
Q 556 2459 556 2603 
Q 556 2747 657 2848 
Q 759 2950 903 2950 
z
M 897 609 
Q 1044 609 1145 506 
Q 1247 403 1247 259 
Q 1247 116 1144 14 
Q 1041 -88 897 -88 
Q 753 -88 651 14 
Q 550 116 550 259 
Q 550 403 651 506 
Q 753 609 897 609 
z
" id="TimesNewRomanPSMT-3a" transform="scale(0.015625)"/>
      <path d="M 644 4238 
L 2916 4238 
L 2916 4119 
L 1503 -88 
L 1153 -88 
L 2419 3728 
L 1253 3728 
Q 900 3728 750 3644 
Q 488 3500 328 3200 
L 238 3234 
L 644 4238 
z
" id="TimesNewRomanPSMT-37" transform="scale(0.015625)"/>
      <path d="M 1794 4444 
L 259 -88 
L 9 -88 
L 1544 4444 
L 1794 4444 
z
" id="TimesNewRomanPSMT-2f" transform="scale(0.015625)"/>
     </defs>
     <use xlink:href="#TimesNewRomanPSMT-56"/>
     <use x="72.216797" xlink:href="#TimesNewRomanPSMT-73"/>
     <use x="111.132812" xlink:href="#TimesNewRomanPSMT-3a"/>
     <use x="138.916016" xlink:href="#TimesNewRomanPSMT-20"/>
     <use x="163.916016" xlink:href="#TimesNewRomanPSMT-33"/>
     <use x="213.916016" xlink:href="#TimesNewRomanPSMT-31"/>
     <use x="263.916016" xlink:href="#TimesNewRomanPSMT-32"/>
     <use x="313.916016" xlink:href="#TimesNewRomanPSMT-2e"/>
     <use x="338.916016" xlink:href="#TimesNewRomanPSMT-37"/>
     <use x="388.916016" xlink:href="#TimesNewRomanPSMT-37"/>
     <use x="438.916016" xlink:href="#TimesNewRomanPSMT-6d"/>
     <use x="516.699219" xlink:href="#TimesNewRomanPSMT-2f"/>
     <use x="544.482422" xlink:href="#TimesNewRomanPSMT-73"/>
    </g>
   </g>
  </g>
 </g>
 <defs>
  <clipPath id="pc19fb51377">
   <rect height="332.64" width="334.8" x="63.336875" y="7.2"/>
  </clipPath>
 </defs>
</svg>
