<?xml version="1.0" encoding="utf-8" standalone="no"?>
<!DOCTYPE svg PUBLIC "-//W3C//DTD SVG 1.1//EN"
  "http://www.w3.org/Graphics/SVG/1.1/DTD/svg11.dtd">
<svg height="383.471875pt" version="1.1" viewBox="0 0 421.086875 383.471875" width="421.086875pt" xmlns="http://www.w3.org/2000/svg" xmlns:xlink="http://www.w3.org/1999/xlink">
 <metadata>
  <rdf:RDF xmlns:cc="http://creativecommons.org/ns#" xmlns:dc="http://purl.org/dc/elements/1.1/" xmlns:rdf="http://www.w3.org/1999/02/22-rdf-syntax-ns#">
   <cc:Work>
    <dc:type rdf:resource="http://purl.org/dc/dcmitype/StillImage"/>
    <dc:date>2021-06-11T14:39:37.900008</dc:date>
    <dc:format>image/svg+xml</dc:format>
    <dc:creator>
     <cc:Agent>
      <dc:title>Matplotlib v3.4.2, https://matplotlib.org/</dc:title>
     </cc:Agent>
    </dc:creator>
   </cc:Work>
  </rdf:RDF>
 </metadata>
 <defs>
  <style type="text/css">*{stroke-linecap:butt;stroke-linejoin:round;}</style>
 </defs>
 <g id="figure_1">
  <g id="patch_1">
   <path d="M 0 383.471875 
L 421.086875 383.471875 
L 421.086875 0 
L 0 0 
z
" style="fill:#ffffff;"/>
  </g>
  <g id="axes_1">
   <g id="patch_2">
    <path d="M 63.336875 339.84 
L 398.136875 339.84 
L 398.136875 7.2 
L 63.336875 7.2 
z
" style="fill:#ffffff;"/>
   </g>
   <g id="matplotlib.axis_1">
    <g id="xtick_1">
     <g id="line2d_1">
      <path clip-path="url(#pfb902c59cf)" d="M 93.773239 339.84 
L 93.773239 7.2 
" style="fill:none;stroke:#000000;stroke-dasharray:0.5,0.825;stroke-dashoffset:0;stroke-width:0.5;"/>
     </g>
     <g id="line2d_2">
      <defs>
       <path d="M 0 0 
L 0 3.5 
" id="mc3ed1ddf21" style="stroke:#000000;stroke-width:0.8;"/>
      </defs>
      <g>
       <use style="stroke:#000000;stroke-width:0.8;" x="93.773239" xlink:href="#mc3ed1ddf21" y="339.84"/>
      </g>
     </g>
     <g id="text_1">
      <!-- 0.000 -->
      <g transform="translate(78.023239 356.56125)scale(0.14 -0.14)">
       <defs>
        <path d="M 231 2094 
Q 231 2819 450 3342 
Q 669 3866 1031 4122 
Q 1313 4325 1613 4325 
Q 2100 4325 2488 3828 
Q 2972 3213 2972 2159 
Q 2972 1422 2759 906 
Q 2547 391 2217 158 
Q 1888 -75 1581 -75 
Q 975 -75 572 641 
Q 231 1244 231 2094 
z
M 844 2016 
Q 844 1141 1059 588 
Q 1238 122 1591 122 
Q 1759 122 1940 273 
Q 2122 425 2216 781 
Q 2359 1319 2359 2297 
Q 2359 3022 2209 3506 
Q 2097 3866 1919 4016 
Q 1791 4119 1609 4119 
Q 1397 4119 1231 3928 
Q 1006 3669 925 3112 
Q 844 2556 844 2016 
z
" id="TimesNewRomanPSMT-30" transform="scale(0.015625)"/>
        <path d="M 800 606 
Q 947 606 1047 504 
Q 1147 403 1147 259 
Q 1147 116 1045 14 
Q 944 -88 800 -88 
Q 656 -88 554 14 
Q 453 116 453 259 
Q 453 406 554 506 
Q 656 606 800 606 
z
" id="TimesNewRomanPSMT-2e" transform="scale(0.015625)"/>
       </defs>
       <use xlink:href="#TimesNewRomanPSMT-30"/>
       <use x="50" xlink:href="#TimesNewRomanPSMT-2e"/>
       <use x="75" xlink:href="#TimesNewRomanPSMT-30"/>
       <use x="125" xlink:href="#TimesNewRomanPSMT-30"/>
       <use x="175" xlink:href="#TimesNewRomanPSMT-30"/>
      </g>
     </g>
    </g>
    <g id="xtick_2">
     <g id="line2d_3">
      <path clip-path="url(#pfb902c59cf)" d="M 154.645966 339.84 
L 154.645966 7.2 
" style="fill:none;stroke:#000000;stroke-dasharray:0.5,0.825;stroke-dashoffset:0;stroke-width:0.5;"/>
     </g>
     <g id="line2d_4">
      <g>
       <use style="stroke:#000000;stroke-width:0.8;" x="154.645966" xlink:href="#mc3ed1ddf21" y="339.84"/>
      </g>
     </g>
     <g id="text_2">
      <!-- 0.001 -->
      <g transform="translate(138.895966 356.56125)scale(0.14 -0.14)">
       <defs>
        <path d="M 750 3822 
L 1781 4325 
L 1884 4325 
L 1884 747 
Q 1884 391 1914 303 
Q 1944 216 2037 169 
Q 2131 122 2419 116 
L 2419 0 
L 825 0 
L 825 116 
Q 1125 122 1212 167 
Q 1300 213 1334 289 
Q 1369 366 1369 747 
L 1369 3034 
Q 1369 3497 1338 3628 
Q 1316 3728 1258 3775 
Q 1200 3822 1119 3822 
Q 1003 3822 797 3725 
L 750 3822 
z
" id="TimesNewRomanPSMT-31" transform="scale(0.015625)"/>
       </defs>
       <use xlink:href="#TimesNewRomanPSMT-30"/>
       <use x="50" xlink:href="#TimesNewRomanPSMT-2e"/>
       <use x="75" xlink:href="#TimesNewRomanPSMT-30"/>
       <use x="125" xlink:href="#TimesNewRomanPSMT-30"/>
       <use x="175" xlink:href="#TimesNewRomanPSMT-31"/>
      </g>
     </g>
    </g>
    <g id="xtick_3">
     <g id="line2d_5">
      <path clip-path="url(#pfb902c59cf)" d="M 215.518693 339.84 
L 215.518693 7.2 
" style="fill:none;stroke:#000000;stroke-dasharray:0.5,0.825;stroke-dashoffset:0;stroke-width:0.5;"/>
     </g>
     <g id="line2d_6">
      <g>
       <use style="stroke:#000000;stroke-width:0.8;" x="215.518693" xlink:href="#mc3ed1ddf21" y="339.84"/>
      </g>
     </g>
     <g id="text_3">
      <!-- 0.002 -->
      <g transform="translate(199.768693 356.56125)scale(0.14 -0.14)">
       <defs>
        <path d="M 2934 816 
L 2638 0 
L 138 0 
L 138 116 
Q 1241 1122 1691 1759 
Q 2141 2397 2141 2925 
Q 2141 3328 1894 3587 
Q 1647 3847 1303 3847 
Q 991 3847 742 3664 
Q 494 3481 375 3128 
L 259 3128 
Q 338 3706 661 4015 
Q 984 4325 1469 4325 
Q 1984 4325 2329 3994 
Q 2675 3663 2675 3213 
Q 2675 2891 2525 2569 
Q 2294 2063 1775 1497 
Q 997 647 803 472 
L 1909 472 
Q 2247 472 2383 497 
Q 2519 522 2628 598 
Q 2738 675 2819 816 
L 2934 816 
z
" id="TimesNewRomanPSMT-32" transform="scale(0.015625)"/>
       </defs>
       <use xlink:href="#TimesNewRomanPSMT-30"/>
       <use x="50" xlink:href="#TimesNewRomanPSMT-2e"/>
       <use x="75" xlink:href="#TimesNewRomanPSMT-30"/>
       <use x="125" xlink:href="#TimesNewRomanPSMT-30"/>
       <use x="175" xlink:href="#TimesNewRomanPSMT-32"/>
      </g>
     </g>
    </g>
    <g id="xtick_4">
     <g id="line2d_7">
      <path clip-path="url(#pfb902c59cf)" d="M 276.39142 339.84 
L 276.39142 7.2 
" style="fill:none;stroke:#000000;stroke-dasharray:0.5,0.825;stroke-dashoffset:0;stroke-width:0.5;"/>
     </g>
     <g id="line2d_8">
      <g>
       <use style="stroke:#000000;stroke-width:0.8;" x="276.39142" xlink:href="#mc3ed1ddf21" y="339.84"/>
      </g>
     </g>
     <g id="text_4">
      <!-- 0.003 -->
      <g transform="translate(260.64142 356.56125)scale(0.14 -0.14)">
       <defs>
        <path d="M 325 3431 
Q 506 3859 782 4092 
Q 1059 4325 1472 4325 
Q 1981 4325 2253 3994 
Q 2459 3747 2459 3466 
Q 2459 3003 1878 2509 
Q 2269 2356 2469 2072 
Q 2669 1788 2669 1403 
Q 2669 853 2319 450 
Q 1863 -75 997 -75 
Q 569 -75 414 31 
Q 259 138 259 259 
Q 259 350 332 419 
Q 406 488 509 488 
Q 588 488 669 463 
Q 722 447 909 348 
Q 1097 250 1169 231 
Q 1284 197 1416 197 
Q 1734 197 1970 444 
Q 2206 691 2206 1028 
Q 2206 1275 2097 1509 
Q 2016 1684 1919 1775 
Q 1784 1900 1550 2001 
Q 1316 2103 1072 2103 
L 972 2103 
L 972 2197 
Q 1219 2228 1467 2375 
Q 1716 2522 1828 2728 
Q 1941 2934 1941 3181 
Q 1941 3503 1739 3701 
Q 1538 3900 1238 3900 
Q 753 3900 428 3381 
L 325 3431 
z
" id="TimesNewRomanPSMT-33" transform="scale(0.015625)"/>
       </defs>
       <use xlink:href="#TimesNewRomanPSMT-30"/>
       <use x="50" xlink:href="#TimesNewRomanPSMT-2e"/>
       <use x="75" xlink:href="#TimesNewRomanPSMT-30"/>
       <use x="125" xlink:href="#TimesNewRomanPSMT-30"/>
       <use x="175" xlink:href="#TimesNewRomanPSMT-33"/>
      </g>
     </g>
    </g>
    <g id="xtick_5">
     <g id="line2d_9">
      <path clip-path="url(#pfb902c59cf)" d="M 337.264148 339.84 
L 337.264148 7.2 
" style="fill:none;stroke:#000000;stroke-dasharray:0.5,0.825;stroke-dashoffset:0;stroke-width:0.5;"/>
     </g>
     <g id="line2d_10">
      <g>
       <use style="stroke:#000000;stroke-width:0.8;" x="337.264148" xlink:href="#mc3ed1ddf21" y="339.84"/>
      </g>
     </g>
     <g id="text_5">
      <!-- 0.004 -->
      <g transform="translate(321.514148 356.56125)scale(0.14 -0.14)">
       <defs>
        <path d="M 2978 1563 
L 2978 1119 
L 2409 1119 
L 2409 0 
L 1894 0 
L 1894 1119 
L 100 1119 
L 100 1519 
L 2066 4325 
L 2409 4325 
L 2409 1563 
L 2978 1563 
z
M 1894 1563 
L 1894 3666 
L 406 1563 
L 1894 1563 
z
" id="TimesNewRomanPSMT-34" transform="scale(0.015625)"/>
       </defs>
       <use xlink:href="#TimesNewRomanPSMT-30"/>
       <use x="50" xlink:href="#TimesNewRomanPSMT-2e"/>
       <use x="75" xlink:href="#TimesNewRomanPSMT-30"/>
       <use x="125" xlink:href="#TimesNewRomanPSMT-30"/>
       <use x="175" xlink:href="#TimesNewRomanPSMT-34"/>
      </g>
     </g>
    </g>
    <g id="xtick_6">
     <g id="line2d_11">
      <path clip-path="url(#pfb902c59cf)" d="M 398.136875 339.84 
L 398.136875 7.2 
" style="fill:none;stroke:#000000;stroke-dasharray:0.5,0.825;stroke-dashoffset:0;stroke-width:0.5;"/>
     </g>
     <g id="line2d_12">
      <g>
       <use style="stroke:#000000;stroke-width:0.8;" x="398.136875" xlink:href="#mc3ed1ddf21" y="339.84"/>
      </g>
     </g>
     <g id="text_6">
      <!-- 0.005 -->
      <g transform="translate(382.386875 356.56125)scale(0.14 -0.14)">
       <defs>
        <path d="M 2778 4238 
L 2534 3706 
L 1259 3706 
L 981 3138 
Q 1809 3016 2294 2522 
Q 2709 2097 2709 1522 
Q 2709 1188 2573 903 
Q 2438 619 2231 419 
Q 2025 219 1772 97 
Q 1413 -75 1034 -75 
Q 653 -75 479 54 
Q 306 184 306 341 
Q 306 428 378 495 
Q 450 563 559 563 
Q 641 563 702 538 
Q 763 513 909 409 
Q 1144 247 1384 247 
Q 1750 247 2026 523 
Q 2303 800 2303 1197 
Q 2303 1581 2056 1914 
Q 1809 2247 1375 2428 
Q 1034 2569 447 2591 
L 1259 4238 
L 2778 4238 
z
" id="TimesNewRomanPSMT-35" transform="scale(0.015625)"/>
       </defs>
       <use xlink:href="#TimesNewRomanPSMT-30"/>
       <use x="50" xlink:href="#TimesNewRomanPSMT-2e"/>
       <use x="75" xlink:href="#TimesNewRomanPSMT-30"/>
       <use x="125" xlink:href="#TimesNewRomanPSMT-30"/>
       <use x="175" xlink:href="#TimesNewRomanPSMT-35"/>
      </g>
     </g>
    </g>
    <g id="text_7">
     <!-- Time (sec) -->
     <g transform="translate(200.858906 373.277188)scale(0.14 -0.14)">
      <defs>
       <path d="M 3703 4238 
L 3750 3244 
L 3631 3244 
Q 3597 3506 3538 3619 
Q 3441 3800 3280 3886 
Q 3119 3972 2856 3972 
L 2259 3972 
L 2259 734 
Q 2259 344 2344 247 
Q 2463 116 2709 116 
L 2856 116 
L 2856 0 
L 1059 0 
L 1059 116 
L 1209 116 
Q 1478 116 1591 278 
Q 1659 378 1659 734 
L 1659 3972 
L 1150 3972 
Q 853 3972 728 3928 
Q 566 3869 450 3700 
Q 334 3531 313 3244 
L 194 3244 
L 244 4238 
L 3703 4238 
z
" id="TimesNewRomanPSMT-54" transform="scale(0.015625)"/>
       <path d="M 928 4444 
Q 1059 4444 1151 4351 
Q 1244 4259 1244 4128 
Q 1244 3997 1151 3903 
Q 1059 3809 928 3809 
Q 797 3809 703 3903 
Q 609 3997 609 4128 
Q 609 4259 701 4351 
Q 794 4444 928 4444 
z
M 1188 2947 
L 1188 647 
Q 1188 378 1227 289 
Q 1266 200 1342 156 
Q 1419 113 1622 113 
L 1622 0 
L 231 0 
L 231 113 
Q 441 113 512 153 
Q 584 194 626 287 
Q 669 381 669 647 
L 669 1750 
Q 669 2216 641 2353 
Q 619 2453 572 2492 
Q 525 2531 444 2531 
Q 356 2531 231 2484 
L 188 2597 
L 1050 2947 
L 1188 2947 
z
" id="TimesNewRomanPSMT-69" transform="scale(0.015625)"/>
       <path d="M 1050 2338 
Q 1363 2650 1419 2697 
Q 1559 2816 1721 2881 
Q 1884 2947 2044 2947 
Q 2313 2947 2506 2790 
Q 2700 2634 2766 2338 
Q 3088 2713 3309 2830 
Q 3531 2947 3766 2947 
Q 3994 2947 4170 2830 
Q 4347 2713 4450 2447 
Q 4519 2266 4519 1878 
L 4519 647 
Q 4519 378 4559 278 
Q 4591 209 4675 161 
Q 4759 113 4950 113 
L 4950 0 
L 3538 0 
L 3538 113 
L 3597 113 
Q 3781 113 3884 184 
Q 3956 234 3988 344 
Q 4000 397 4000 647 
L 4000 1878 
Q 4000 2228 3916 2372 
Q 3794 2572 3525 2572 
Q 3359 2572 3192 2489 
Q 3025 2406 2788 2181 
L 2781 2147 
L 2788 2013 
L 2788 647 
Q 2788 353 2820 281 
Q 2853 209 2943 161 
Q 3034 113 3253 113 
L 3253 0 
L 1806 0 
L 1806 113 
Q 2044 113 2133 169 
Q 2222 225 2256 338 
Q 2272 391 2272 647 
L 2272 1878 
Q 2272 2228 2169 2381 
Q 2031 2581 1784 2581 
Q 1616 2581 1450 2491 
Q 1191 2353 1050 2181 
L 1050 647 
Q 1050 366 1089 281 
Q 1128 197 1204 155 
Q 1281 113 1516 113 
L 1516 0 
L 100 0 
L 100 113 
Q 297 113 375 155 
Q 453 197 493 289 
Q 534 381 534 647 
L 534 1741 
Q 534 2213 506 2350 
Q 484 2453 437 2492 
Q 391 2531 309 2531 
Q 222 2531 100 2484 
L 53 2597 
L 916 2947 
L 1050 2947 
L 1050 2338 
z
" id="TimesNewRomanPSMT-6d" transform="scale(0.015625)"/>
       <path d="M 681 1784 
Q 678 1147 991 784 
Q 1303 422 1725 422 
Q 2006 422 2214 576 
Q 2422 731 2563 1106 
L 2659 1044 
Q 2594 616 2278 264 
Q 1963 -88 1488 -88 
Q 972 -88 605 314 
Q 238 716 238 1394 
Q 238 2128 614 2539 
Q 991 2950 1559 2950 
Q 2041 2950 2350 2633 
Q 2659 2316 2659 1784 
L 681 1784 
z
M 681 1966 
L 2006 1966 
Q 1991 2241 1941 2353 
Q 1863 2528 1708 2628 
Q 1553 2728 1384 2728 
Q 1125 2728 920 2526 
Q 716 2325 681 1966 
z
" id="TimesNewRomanPSMT-65" transform="scale(0.015625)"/>
       <path id="TimesNewRomanPSMT-20" transform="scale(0.015625)"/>
       <path d="M 1988 -1253 
L 1988 -1369 
Q 1516 -1131 1200 -813 
Q 750 -359 506 256 
Q 263 872 263 1534 
Q 263 2503 741 3301 
Q 1219 4100 1988 4444 
L 1988 4313 
Q 1603 4100 1356 3731 
Q 1109 3363 987 2797 
Q 866 2231 866 1616 
Q 866 947 969 400 
Q 1050 -31 1165 -292 
Q 1281 -553 1476 -793 
Q 1672 -1034 1988 -1253 
z
" id="TimesNewRomanPSMT-28" transform="scale(0.015625)"/>
       <path d="M 2050 2947 
L 2050 1972 
L 1947 1972 
Q 1828 2431 1642 2597 
Q 1456 2763 1169 2763 
Q 950 2763 815 2647 
Q 681 2531 681 2391 
Q 681 2216 781 2091 
Q 878 1963 1175 1819 
L 1631 1597 
Q 2266 1288 2266 781 
Q 2266 391 1970 151 
Q 1675 -88 1309 -88 
Q 1047 -88 709 6 
Q 606 38 541 38 
Q 469 38 428 -44 
L 325 -44 
L 325 978 
L 428 978 
Q 516 541 762 319 
Q 1009 97 1316 97 
Q 1531 97 1667 223 
Q 1803 350 1803 528 
Q 1803 744 1651 891 
Q 1500 1038 1047 1263 
Q 594 1488 453 1669 
Q 313 1847 313 2119 
Q 313 2472 555 2709 
Q 797 2947 1181 2947 
Q 1350 2947 1591 2875 
Q 1750 2828 1803 2828 
Q 1853 2828 1881 2850 
Q 1909 2872 1947 2947 
L 2050 2947 
z
" id="TimesNewRomanPSMT-73" transform="scale(0.015625)"/>
       <path d="M 2631 1088 
Q 2516 522 2178 217 
Q 1841 -88 1431 -88 
Q 944 -88 581 321 
Q 219 731 219 1428 
Q 219 2103 620 2525 
Q 1022 2947 1584 2947 
Q 2006 2947 2278 2723 
Q 2550 2500 2550 2259 
Q 2550 2141 2473 2067 
Q 2397 1994 2259 1994 
Q 2075 1994 1981 2113 
Q 1928 2178 1911 2362 
Q 1894 2547 1784 2644 
Q 1675 2738 1481 2738 
Q 1169 2738 978 2506 
Q 725 2200 725 1697 
Q 725 1184 976 792 
Q 1228 400 1656 400 
Q 1963 400 2206 609 
Q 2378 753 2541 1131 
L 2631 1088 
z
" id="TimesNewRomanPSMT-63" transform="scale(0.015625)"/>
       <path d="M 144 4313 
L 144 4444 
Q 619 4209 934 3891 
Q 1381 3434 1625 2820 
Q 1869 2206 1869 1541 
Q 1869 572 1392 -226 
Q 916 -1025 144 -1369 
L 144 -1253 
Q 528 -1038 776 -670 
Q 1025 -303 1145 264 
Q 1266 831 1266 1447 
Q 1266 2113 1163 2663 
Q 1084 3094 967 3353 
Q 850 3613 656 3853 
Q 463 4094 144 4313 
z
" id="TimesNewRomanPSMT-29" transform="scale(0.015625)"/>
      </defs>
      <use xlink:href="#TimesNewRomanPSMT-54"/>
      <use x="57.583984" xlink:href="#TimesNewRomanPSMT-69"/>
      <use x="85.367188" xlink:href="#TimesNewRomanPSMT-6d"/>
      <use x="163.150391" xlink:href="#TimesNewRomanPSMT-65"/>
      <use x="207.535156" xlink:href="#TimesNewRomanPSMT-20"/>
      <use x="232.535156" xlink:href="#TimesNewRomanPSMT-28"/>
      <use x="265.835938" xlink:href="#TimesNewRomanPSMT-73"/>
      <use x="304.751953" xlink:href="#TimesNewRomanPSMT-65"/>
      <use x="349.136719" xlink:href="#TimesNewRomanPSMT-63"/>
      <use x="393.521484" xlink:href="#TimesNewRomanPSMT-29"/>
     </g>
    </g>
   </g>
   <g id="matplotlib.axis_2">
    <g id="ytick_1">
     <g id="line2d_13">
      <path clip-path="url(#pfb902c59cf)" d="M 63.336875 297.637265 
L 398.136875 297.637265 
" style="fill:none;stroke:#000000;stroke-dasharray:0.5,0.825;stroke-dashoffset:0;stroke-width:0.5;"/>
     </g>
     <g id="line2d_14">
      <defs>
       <path d="M 0 0 
L -3.5 0 
" id="m508c507201" style="stroke:#000000;stroke-width:0.8;"/>
      </defs>
      <g>
       <use style="stroke:#000000;stroke-width:0.8;" x="63.336875" xlink:href="#m508c507201" y="297.637265"/>
      </g>
     </g>
     <g id="text_8">
      <!-- −0.06 -->
      <g transform="translate(23.942188 302.49789)scale(0.14 -0.14)">
       <defs>
        <path d="M 3484 2000 
L 116 2000 
L 116 2256 
L 3484 2256 
L 3484 2000 
z
" id="TimesNewRomanPSMT-2212" transform="scale(0.015625)"/>
        <path d="M 2869 4325 
L 2869 4209 
Q 2456 4169 2195 4045 
Q 1934 3922 1679 3669 
Q 1425 3416 1258 3105 
Q 1091 2794 978 2366 
Q 1428 2675 1881 2675 
Q 2316 2675 2634 2325 
Q 2953 1975 2953 1425 
Q 2953 894 2631 456 
Q 2244 -75 1606 -75 
Q 1172 -75 869 213 
Q 275 772 275 1663 
Q 275 2231 503 2743 
Q 731 3256 1154 3653 
Q 1578 4050 1965 4187 
Q 2353 4325 2688 4325 
L 2869 4325 
z
M 925 2138 
Q 869 1716 869 1456 
Q 869 1156 980 804 
Q 1091 453 1309 247 
Q 1469 100 1697 100 
Q 1969 100 2183 356 
Q 2397 613 2397 1088 
Q 2397 1622 2184 2012 
Q 1972 2403 1581 2403 
Q 1463 2403 1327 2353 
Q 1191 2303 925 2138 
z
" id="TimesNewRomanPSMT-36" transform="scale(0.015625)"/>
       </defs>
       <use xlink:href="#TimesNewRomanPSMT-2212"/>
       <use x="56.396484" xlink:href="#TimesNewRomanPSMT-30"/>
       <use x="106.396484" xlink:href="#TimesNewRomanPSMT-2e"/>
       <use x="131.396484" xlink:href="#TimesNewRomanPSMT-30"/>
       <use x="181.396484" xlink:href="#TimesNewRomanPSMT-36"/>
      </g>
     </g>
    </g>
    <g id="ytick_2">
     <g id="line2d_15">
      <path clip-path="url(#pfb902c59cf)" d="M 63.336875 249.175727 
L 398.136875 249.175727 
" style="fill:none;stroke:#000000;stroke-dasharray:0.5,0.825;stroke-dashoffset:0;stroke-width:0.5;"/>
     </g>
     <g id="line2d_16">
      <g>
       <use style="stroke:#000000;stroke-width:0.8;" x="63.336875" xlink:href="#m508c507201" y="249.175727"/>
      </g>
     </g>
     <g id="text_9">
      <!-- −0.04 -->
      <g transform="translate(23.942188 254.036352)scale(0.14 -0.14)">
       <use xlink:href="#TimesNewRomanPSMT-2212"/>
       <use x="56.396484" xlink:href="#TimesNewRomanPSMT-30"/>
       <use x="106.396484" xlink:href="#TimesNewRomanPSMT-2e"/>
       <use x="131.396484" xlink:href="#TimesNewRomanPSMT-30"/>
       <use x="181.396484" xlink:href="#TimesNewRomanPSMT-34"/>
      </g>
     </g>
    </g>
    <g id="ytick_3">
     <g id="line2d_17">
      <path clip-path="url(#pfb902c59cf)" d="M 63.336875 200.714188 
L 398.136875 200.714188 
" style="fill:none;stroke:#000000;stroke-dasharray:0.5,0.825;stroke-dashoffset:0;stroke-width:0.5;"/>
     </g>
     <g id="line2d_18">
      <g>
       <use style="stroke:#000000;stroke-width:0.8;" x="63.336875" xlink:href="#m508c507201" y="200.714188"/>
      </g>
     </g>
     <g id="text_10">
      <!-- −0.02 -->
      <g transform="translate(23.942188 205.574813)scale(0.14 -0.14)">
       <use xlink:href="#TimesNewRomanPSMT-2212"/>
       <use x="56.396484" xlink:href="#TimesNewRomanPSMT-30"/>
       <use x="106.396484" xlink:href="#TimesNewRomanPSMT-2e"/>
       <use x="131.396484" xlink:href="#TimesNewRomanPSMT-30"/>
       <use x="181.396484" xlink:href="#TimesNewRomanPSMT-32"/>
      </g>
     </g>
    </g>
    <g id="ytick_4">
     <g id="line2d_19">
      <path clip-path="url(#pfb902c59cf)" d="M 63.336875 152.25265 
L 398.136875 152.25265 
" style="fill:none;stroke:#000000;stroke-dasharray:0.5,0.825;stroke-dashoffset:0;stroke-width:0.5;"/>
     </g>
     <g id="line2d_20">
      <g>
       <use style="stroke:#000000;stroke-width:0.8;" x="63.336875" xlink:href="#m508c507201" y="152.25265"/>
      </g>
     </g>
     <g id="text_11">
      <!-- 0.00 -->
      <g transform="translate(31.836875 157.113275)scale(0.14 -0.14)">
       <use xlink:href="#TimesNewRomanPSMT-30"/>
       <use x="50" xlink:href="#TimesNewRomanPSMT-2e"/>
       <use x="75" xlink:href="#TimesNewRomanPSMT-30"/>
       <use x="125" xlink:href="#TimesNewRomanPSMT-30"/>
      </g>
     </g>
    </g>
    <g id="ytick_5">
     <g id="line2d_21">
      <path clip-path="url(#pfb902c59cf)" d="M 63.336875 103.791112 
L 398.136875 103.791112 
" style="fill:none;stroke:#000000;stroke-dasharray:0.5,0.825;stroke-dashoffset:0;stroke-width:0.5;"/>
     </g>
     <g id="line2d_22">
      <g>
       <use style="stroke:#000000;stroke-width:0.8;" x="63.336875" xlink:href="#m508c507201" y="103.791112"/>
      </g>
     </g>
     <g id="text_12">
      <!-- 0.02 -->
      <g transform="translate(31.836875 108.651737)scale(0.14 -0.14)">
       <use xlink:href="#TimesNewRomanPSMT-30"/>
       <use x="50" xlink:href="#TimesNewRomanPSMT-2e"/>
       <use x="75" xlink:href="#TimesNewRomanPSMT-30"/>
       <use x="125" xlink:href="#TimesNewRomanPSMT-32"/>
      </g>
     </g>
    </g>
    <g id="ytick_6">
     <g id="line2d_23">
      <path clip-path="url(#pfb902c59cf)" d="M 63.336875 55.329574 
L 398.136875 55.329574 
" style="fill:none;stroke:#000000;stroke-dasharray:0.5,0.825;stroke-dashoffset:0;stroke-width:0.5;"/>
     </g>
     <g id="line2d_24">
      <g>
       <use style="stroke:#000000;stroke-width:0.8;" x="63.336875" xlink:href="#m508c507201" y="55.329574"/>
      </g>
     </g>
     <g id="text_13">
      <!-- 0.04 -->
      <g transform="translate(31.836875 60.190199)scale(0.14 -0.14)">
       <use xlink:href="#TimesNewRomanPSMT-30"/>
       <use x="50" xlink:href="#TimesNewRomanPSMT-2e"/>
       <use x="75" xlink:href="#TimesNewRomanPSMT-30"/>
       <use x="125" xlink:href="#TimesNewRomanPSMT-34"/>
      </g>
     </g>
    </g>
    <g id="text_14">
     <!-- Volatage (V) -->
     <g transform="translate(16.92125 209.352344)rotate(-90)scale(0.14 -0.14)">
      <defs>
       <path d="M 4544 4238 
L 4544 4122 
Q 4319 4081 4203 3978 
Q 4038 3825 3909 3509 
L 2431 -97 
L 2316 -97 
L 728 3556 
Q 606 3838 556 3900 
Q 478 3997 364 4051 
Q 250 4106 56 4122 
L 56 4238 
L 1788 4238 
L 1788 4122 
Q 1494 4094 1406 4022 
Q 1319 3950 1319 3838 
Q 1319 3681 1463 3350 
L 2541 866 
L 3541 3319 
Q 3688 3681 3688 3822 
Q 3688 3913 3597 3995 
Q 3506 4078 3291 4113 
Q 3275 4116 3238 4122 
L 3238 4238 
L 4544 4238 
z
" id="TimesNewRomanPSMT-56" transform="scale(0.015625)"/>
       <path d="M 1600 2947 
Q 2250 2947 2644 2453 
Q 2978 2031 2978 1484 
Q 2978 1100 2793 706 
Q 2609 313 2286 112 
Q 1963 -88 1566 -88 
Q 919 -88 538 428 
Q 216 863 216 1403 
Q 216 1797 411 2186 
Q 606 2575 925 2761 
Q 1244 2947 1600 2947 
z
M 1503 2744 
Q 1338 2744 1170 2645 
Q 1003 2547 900 2300 
Q 797 2053 797 1666 
Q 797 1041 1045 587 
Q 1294 134 1700 134 
Q 2003 134 2200 384 
Q 2397 634 2397 1244 
Q 2397 2006 2069 2444 
Q 1847 2744 1503 2744 
z
" id="TimesNewRomanPSMT-6f" transform="scale(0.015625)"/>
       <path d="M 1184 4444 
L 1184 647 
Q 1184 378 1223 290 
Q 1263 203 1344 158 
Q 1425 113 1647 113 
L 1647 0 
L 244 0 
L 244 113 
Q 441 113 512 153 
Q 584 194 625 287 
Q 666 381 666 647 
L 666 3247 
Q 666 3731 644 3842 
Q 622 3953 573 3993 
Q 525 4034 450 4034 
Q 369 4034 244 3984 
L 191 4094 
L 1044 4444 
L 1184 4444 
z
" id="TimesNewRomanPSMT-6c" transform="scale(0.015625)"/>
       <path d="M 1822 413 
Q 1381 72 1269 19 
Q 1100 -59 909 -59 
Q 613 -59 420 144 
Q 228 347 228 678 
Q 228 888 322 1041 
Q 450 1253 767 1440 
Q 1084 1628 1822 1897 
L 1822 2009 
Q 1822 2438 1686 2597 
Q 1550 2756 1291 2756 
Q 1094 2756 978 2650 
Q 859 2544 859 2406 
L 866 2225 
Q 866 2081 792 2003 
Q 719 1925 600 1925 
Q 484 1925 411 2006 
Q 338 2088 338 2228 
Q 338 2497 613 2722 
Q 888 2947 1384 2947 
Q 1766 2947 2009 2819 
Q 2194 2722 2281 2516 
Q 2338 2381 2338 1966 
L 2338 994 
Q 2338 584 2353 492 
Q 2369 400 2405 369 
Q 2441 338 2488 338 
Q 2538 338 2575 359 
Q 2641 400 2828 588 
L 2828 413 
Q 2478 -56 2159 -56 
Q 2006 -56 1915 50 
Q 1825 156 1822 413 
z
M 1822 616 
L 1822 1706 
Q 1350 1519 1213 1441 
Q 966 1303 859 1153 
Q 753 1003 753 825 
Q 753 600 887 451 
Q 1022 303 1197 303 
Q 1434 303 1822 616 
z
" id="TimesNewRomanPSMT-61" transform="scale(0.015625)"/>
       <path d="M 1031 3803 
L 1031 2863 
L 1700 2863 
L 1700 2644 
L 1031 2644 
L 1031 788 
Q 1031 509 1111 412 
Q 1191 316 1316 316 
Q 1419 316 1516 380 
Q 1613 444 1666 569 
L 1788 569 
Q 1678 263 1478 108 
Q 1278 -47 1066 -47 
Q 922 -47 784 33 
Q 647 113 581 261 
Q 516 409 516 719 
L 516 2644 
L 63 2644 
L 63 2747 
Q 234 2816 414 2980 
Q 594 3144 734 3369 
Q 806 3488 934 3803 
L 1031 3803 
z
" id="TimesNewRomanPSMT-74" transform="scale(0.015625)"/>
       <path d="M 966 1044 
Q 703 1172 562 1401 
Q 422 1631 422 1909 
Q 422 2334 742 2640 
Q 1063 2947 1563 2947 
Q 1972 2947 2272 2747 
L 2878 2747 
Q 3013 2747 3034 2739 
Q 3056 2731 3066 2713 
Q 3084 2684 3084 2613 
Q 3084 2531 3069 2500 
Q 3059 2484 3036 2475 
Q 3013 2466 2878 2466 
L 2506 2466 
Q 2681 2241 2681 1891 
Q 2681 1491 2375 1206 
Q 2069 922 1553 922 
Q 1341 922 1119 984 
Q 981 866 932 777 
Q 884 688 884 625 
Q 884 572 936 522 
Q 988 472 1138 450 
Q 1225 438 1575 428 
Q 2219 413 2409 384 
Q 2700 344 2873 169 
Q 3047 -6 3047 -263 
Q 3047 -616 2716 -925 
Q 2228 -1381 1444 -1381 
Q 841 -1381 425 -1109 
Q 191 -953 191 -784 
Q 191 -709 225 -634 
Q 278 -519 444 -313 
Q 466 -284 763 25 
Q 600 122 533 198 
Q 466 275 466 372 
Q 466 481 555 628 
Q 644 775 966 1044 
z
M 1509 2797 
Q 1278 2797 1122 2612 
Q 966 2428 966 2047 
Q 966 1553 1178 1281 
Q 1341 1075 1591 1075 
Q 1828 1075 1981 1253 
Q 2134 1431 2134 1813 
Q 2134 2309 1919 2591 
Q 1759 2797 1509 2797 
z
M 934 0 
Q 788 -159 713 -296 
Q 638 -434 638 -550 
Q 638 -700 819 -813 
Q 1131 -1006 1722 -1006 
Q 2284 -1006 2551 -807 
Q 2819 -609 2819 -384 
Q 2819 -222 2659 -153 
Q 2497 -84 2016 -72 
Q 1313 -53 934 0 
z
" id="TimesNewRomanPSMT-67" transform="scale(0.015625)"/>
      </defs>
      <use xlink:href="#TimesNewRomanPSMT-56"/>
      <use x="59.341797" xlink:href="#TimesNewRomanPSMT-6f"/>
      <use x="109.341797" xlink:href="#TimesNewRomanPSMT-6c"/>
      <use x="137.125" xlink:href="#TimesNewRomanPSMT-61"/>
      <use x="181.509766" xlink:href="#TimesNewRomanPSMT-74"/>
      <use x="209.292969" xlink:href="#TimesNewRomanPSMT-61"/>
      <use x="253.677734" xlink:href="#TimesNewRomanPSMT-67"/>
      <use x="303.677734" xlink:href="#TimesNewRomanPSMT-65"/>
      <use x="348.0625" xlink:href="#TimesNewRomanPSMT-20"/>
      <use x="373.0625" xlink:href="#TimesNewRomanPSMT-28"/>
      <use x="406.363281" xlink:href="#TimesNewRomanPSMT-56"/>
      <use x="478.580078" xlink:href="#TimesNewRomanPSMT-29"/>
     </g>
    </g>
   </g>
   <g id="LineCollection_1">
    <path clip-path="url(#pfb902c59cf)" d="M 78.555057 152.25265 
L 382.918693 152.25265 
" style="fill:none;stroke:#1f77b4;stroke-width:1.5;"/>
   </g>
   <g id="line2d_25">
    <path clip-path="url(#pfb902c59cf)" d="M 78.555057 152.257496 
L 93.164511 152.318073 
L 93.25582 152.37865 
L 93.286257 152.318073 
L 98.795239 152.408939 
L 98.977857 152.439227 
L 108.717493 152.499804 
L 108.839239 152.530093 
L 108.99142 152.499804 
L 109.143602 152.499804 
L 113.130766 152.560381 
L 113.282948 152.620958 
L 113.404693 152.59067 
L 114.256911 152.681535 
L 114.409093 152.711823 
L 114.561275 152.711823 
L 115.139566 152.802689 
L 115.322184 152.832977 
L 115.809166 152.923843 
L 116.02222 153.014708 
L 116.174402 153.014708 
L 116.661384 153.075285 
L 116.78313 153.105573 
L 117.239675 153.196439 
L 117.422293 153.257016 
L 117.544039 153.257016 
L 117.726657 153.287304 
L 117.909275 153.257016 
L 118.12233 153.317593 
L 118.609311 153.37817 
L 118.70062 153.438747 
L 118.731057 153.408458 
L 119.37022 153.499323 
L 119.552839 153.529612 
L 120.739857 153.620477 
L 120.892039 153.650766 
L 121.013784 153.620477 
L 121.13553 153.681054 
L 121.318148 153.650766 
L 121.866002 153.741631 
L 122.079057 153.802208 
L 122.200802 153.77192 
L 122.444293 153.862785 
L 122.596475 153.862785 
L 122.80953 153.923362 
L 123.205202 154.014227 
L 123.418257 154.074804 
L 123.661748 154.16567 
L 123.905239 154.256535 
L 124.026984 154.256535 
L 124.209602 154.377689 
L 124.453093 154.468554 
L 124.787893 154.650285 
L 125.000948 154.74115 
L 125.214002 154.922881 
L 126.766257 156.588747 
L 127.009748 157.012785 
L 127.192366 157.345958 
L 128.622875 160.435381 
L 129.018548 161.556054 
L 129.322911 162.404131 
L 130.814293 167.189708 
L 131.240402 168.764708 
L 131.605639 170.188266 
L 132.062184 171.914708 
L 133.005711 175.216151 
L 135.77542 183.212304 
L 135.805857 183.212304 
L 136.018911 183.636342 
L 136.505893 184.363266 
L 137.297239 185.029612 
L 137.479857 184.999323 
L 137.601602 185.0599 
L 137.723348 185.029612 
L 138.271202 184.938746 
L 138.575566 184.757016 
L 138.606002 184.787304 
L 138.666875 184.696439 
L 139.153857 184.090669 
L 139.427784 183.606054 
L 139.975639 182.273362 
L 140.645239 179.94115 
L 141.436584 176.397401 
L 141.771384 174.580092 
L 143.719311 162.282977 
L 145.362875 148.319996 
L 146.24553 139.869515 
L 147.097748 131.237303 
L 148.25433 118.637304 
L 150.293566 95.587783 
L 152.484984 72.780574 
L 154.737275 53.607973 
L 155.559057 48.61038 
L 156.685202 43.552207 
L 157.567857 41.219995 
L 158.20702 40.735382 
L 158.389639 40.856538 
L 158.420075 40.826243 
L 158.480948 40.917115 
L 158.998366 41.522884 
L 159.30273 42.310382 
L 159.54622 43.037308 
L 160.063639 45.066627 
L 160.611493 47.671445 
L 161.402839 53.062781 
L 162.407239 61.907016 
L 163.32033 72.083942 
L 164.202984 83.926728 
L 165.207384 99.43442 
L 167.155311 134.205573 
L 173.94262 267.111347 
L 175.007893 283.255094 
L 176.316657 300.034897 
L 177.990657 315.633452 
L 178.568948 319.419505 
L 179.208111 322.084899 
L 180.090766 324.386825 
L 180.212511 324.417118 
L 180.608184 324.659413 
L 180.97342 324.598844 
L 181.73433 322.842111 
L 182.64742 318.813745 
L 184.41273 303.881536 
L 185.99542 285.375286 
L 187.638984 260.993073 
L 189.617348 225.646441 
L 191.413093 189.633458 
L 194.213239 133.357498 
L 197.409057 78.081055 
L 198.443893 64.269512 
L 199.904839 48.065187 
L 201.578839 34.041632 
L 202.613675 28.529127 
L 203.252839 25.894036 
L 204.348548 22.925762 
L 204.987711 22.410863 
L 205.109457 22.380579 
L 205.687748 22.441149 
L 206.235602 23.289231 
L 206.479093 23.682983 
L 207.270439 25.500284 
L 207.696548 27.075284 
L 208.700948 31.527687 
L 210.801057 44.733464 
L 212.748984 59.059899 
L 214.940402 77.354132 
L 216.249166 89.287786 
L 218.531893 108.732978 
L 221.301602 129.904611 
L 222.306002 136.537785 
L 222.853857 140.081535 
L 223.340839 143.049805 
L 223.980002 146.775285 
L 224.680039 149.985862 
L 225.227893 152.620958 
L 229.336802 168.552689 
L 229.61073 169.340188 
L 230.036839 170.915189 
L 230.158584 171.339227 
L 230.645566 173.247399 
L 230.85862 173.913746 
L 231.376039 175.79163 
L 232.502184 180.698362 
L 235.363202 198.417112 
L 235.97193 202.899804 
L 239.624293 229.099325 
L 240.23302 233.097402 
L 241.754839 241.517592 
L 242.485311 244.849325 
L 242.759239 245.87913 
L 243.24622 247.66615 
L 244.128875 250.75557 
L 244.189748 250.846443 
L 244.737602 252.148844 
L 245.041966 252.603166 
L 245.25502 252.7849 
L 245.528948 252.724323 
L 245.802875 252.42144 
L 245.894184 252.391147 
L 246.076802 252.148844 
L 246.411602 251.694515 
L 247.750802 247.36327 
L 248.724766 242.214224 
L 249.27262 238.94307 
L 250.550948 229.311337 
L 251.768402 218.286342 
L 252.803239 208.018554 
L 258.555711 146.260381 
L 259.529675 137.62817 
L 260.625384 128.814227 
L 261.903711 120.575766 
L 262.055893 119.788266 
L 262.66462 116.819997 
L 263.33422 114.033458 
L 264.125566 111.337783 
L 264.612548 109.853651 
L 265.221275 108.399802 
L 265.495202 107.763747 
L 266.256111 106.491634 
L 266.956148 105.673845 
L 267.10833 105.552689 
L 267.260511 105.461821 
L 267.68662 105.401249 
L 267.838802 105.34067 
L 268.02142 105.370958 
L 268.173602 105.370958 
L 268.417093 105.431538 
L 268.538839 105.522401 
L 268.569275 105.49211 
L 268.721457 105.582978 
L 269.147566 105.855574 
L 269.330184 105.946442 
L 270.608511 107.369997 
L 271.734657 109.853651 
L 277.669748 127.239228 
L 278.004548 128.117593 
L 278.339348 128.995958 
L 278.917639 130.389228 
L 280.926439 134.144997 
L 281.109057 134.47817 
L 281.900402 135.810862 
L 282.113457 136.144035 
L 282.356948 136.568074 
L 282.50913 136.870958 
L 282.935239 137.507016 
L 282.996111 137.537304 
L 283.209166 137.840189 
L 283.300475 137.931054 
L 283.726584 138.506535 
L 284.030948 138.900285 
L 284.122257 138.991151 
L 284.365748 139.233458 
L 285.85713 140.56615 
L 286.10062 140.657016 
L 286.374548 140.77817 
L 287.409384 140.687304 
L 287.561566 140.626727 
L 287.926802 140.414708 
L 288.170293 140.323843 
L 288.383348 140.142112 
L 289.966039 138.476246 
L 290.148657 138.112785 
L 290.20953 138.082496 
L 290.392148 137.8099 
L 290.45302 137.749323 
L 291.54873 135.810862 
L 291.79222 135.417112 
L 292.918366 132.933459 
L 293.22273 132.176246 
L 293.527093 131.32817 
L 295.23153 125.906535 
L 295.870693 123.816631 
L 296.57073 121.423843 
L 296.966402 120.000285 
L 297.57513 118.031535 
L 299.675239 112.094999 
L 300.010039 111.610379 
L 300.679639 110.519994 
L 301.16662 110.186826 
L 301.440548 110.156535 
L 301.562293 110.06567 
L 302.231893 110.156535 
L 302.658002 110.732019 
L 303.662402 112.973362 
L 304.240693 115.002692 
L 304.758111 117.032016 
L 305.305966 119.636824 
L 307.101711 130.994996 
L 308.745275 144.957977 
L 310.693202 165.432977 
L 312.245457 182.667112 
L 313.21942 193.419518 
L 314.436875 206.655573 
L 317.510948 233.188263 
L 318.302293 237.943556 
L 318.91102 240.91182 
L 319.641493 243.365188 
L 320.219784 244.788746 
L 320.432839 245.152205 
L 320.767639 245.606534 
L 320.889384 245.697397 
L 321.285057 245.969993 
L 321.406802 245.969993 
L 321.558984 246.030573 
L 321.68073 246.030573 
L 321.893784 245.848837 
L 322.045966 245.757977 
L 322.25902 245.455094 
L 323.26342 243.213746 
L 324.663493 237.186344 
L 327.463639 219.831051 
L 328.133239 214.833458 
L 328.802839 209.442109 
L 329.442002 204.171919 
L 330.05073 199.174323 
L 331.450802 187.149804 
L 337.812002 131.176728 
L 340.490402 113.245958 
L 340.946948 110.429131 
L 343.10793 98.192596 
L 343.503602 96.193555 
L 344.142766 93.043555 
L 345.542839 86.622401 
L 345.938511 85.107978 
L 346.69942 82.533456 
L 347.46033 80.564709 
L 347.551639 80.322403 
L 349.103893 77.444995 
L 349.195202 77.354132 
L 350.199602 76.475766 
L 350.321348 76.44548 
L 350.47353 76.44548 
L 351.264875 76.50605 
L 351.417057 76.566629 
L 351.660548 76.6575 
L 352.05622 76.899802 
L 352.299711 76.990675 
L 352.451893 77.111822 
L 352.573639 77.263271 
L 352.604075 77.232975 
L 352.634511 77.202692 
L 352.695384 77.293555 
L 353.669348 78.383939 
L 353.912839 78.777687 
L 354.186766 79.201728 
L 355.221602 81.503651 
L 356.865166 86.743557 
L 357.534766 89.530093 
L 358.50873 93.861343 
L 359.117457 96.829612 
L 359.543566 98.949805 
L 360.76102 105.552689 
L 361.643675 110.459422 
L 362.19153 113.518555 
L 362.922002 117.698362 
L 363.53073 121.181535 
L 364.230766 125.209901 
L 365.022111 129.965189 
L 368.278802 150.076727 
L 369.13102 155.256054 
L 376.283566 198.629131 
L 377.105348 203.626727 
L 377.50102 206.140669 
L 380.544657 223.707977 
L 380.727275 224.556056 
L 381.305566 227.34259 
L 381.975166 230.129126 
L 382.888257 233.339705 
L 382.918693 233.400282 
L 382.918693 233.400282 
" style="fill:none;stroke:#0000ff;stroke-linecap:square;stroke-width:1.5;"/>
   </g>
   <g id="line2d_26">
    <path clip-path="url(#pfb902c59cf)" d="M 78.555057 152.249076 
L 99.403966 152.339942 
L 99.586584 152.37023 
L 99.738766 152.355086 
L 100.743166 152.461096 
L 101.29102 152.627682 
L 101.412766 152.673115 
L 102.782402 153.475759 
L 103.756366 154.596432 
L 104.760766 156.292586 
L 105.521675 158.034173 
L 108.626184 167.650759 
L 110.452366 173.617586 
L 111.548075 176.540422 
L 111.882875 177.237057 
L 113.10033 179.43297 
L 114.135166 180.311336 
L 114.926511 180.22047 
L 115.383057 179.902441 
L 115.565675 179.796432 
L 116.509202 178.191144 
L 117.148366 176.616144 
L 117.422293 175.828642 
L 118.000584 173.753884 
L 118.883239 170.300999 
L 120.283311 163.531528 
L 121.744257 154.929605 
L 123.661748 141.799557 
L 126.279275 124.338259 
L 128.16633 113.722156 
L 129.870766 105.756291 
L 132.85353 97.184656 
L 133.036148 96.866622 
L 134.223166 94.731288 
L 134.923202 93.883211 
L 135.836293 92.701964 
L 136.049348 92.611096 
L 136.353711 92.353642 
L 137.20593 91.65701 
L 138.027711 91.763019 
L 138.45382 92.065904 
L 139.245166 93.883211 
L 140.097384 96.276 
L 141.619202 101.970231 
L 143.019275 109.481771 
L 143.780184 114.691384 
L 146.610766 136.635375 
L 148.132584 151.249557 
L 153.824184 206.798598 
L 154.980766 215.642823 
L 155.95473 221.685374 
L 157.476548 228.727439 
L 158.572257 231.665424 
L 159.728839 233.194994 
L 160.124511 233.270708 
L 160.520184 233.194994 
L 160.794111 233.088975 
L 161.31153 232.422636 
L 162.31593 230.181287 
L 162.65073 229.090903 
L 163.624693 224.774799 
L 164.537784 219.201722 
L 166.029166 208.040422 
L 167.520548 194.501482 
L 172.26862 150.643788 
L 173.638257 139.997393 
L 175.920984 125.958692 
L 176.95582 121.794028 
L 178.142839 119.1135 
L 178.355893 118.992346 
L 178.599384 118.90148 
L 179.268984 118.659173 
L 179.421166 118.674317 
L 179.786402 118.780327 
L 180.942984 119.476961 
L 181.156039 119.825279 
L 182.31262 122.990423 
L 182.921348 125.489221 
L 185.264948 136.483932 
L 190.378257 161.381047 
L 191.139166 163.970711 
L 192.69142 168.953163 
L 193.300148 170.952201 
L 194.608911 173.920471 
L 195.12633 174.723115 
L 195.36982 175.101721 
L 195.856802 176.025518 
L 196.37422 176.616144 
L 197.530802 177.07047 
L 198.04822 176.691865 
L 198.535202 176.146672 
L 198.687384 175.964941 
L 199.38742 174.329365 
L 201.030984 167.33273 
L 202.370184 160.139221 
L 204.287675 147.009173 
L 209.85753 108.966868 
L 211.348911 100.713259 
L 212.048948 97.760137 
L 213.631639 92.641384 
L 214.666475 90.354606 
L 215.153457 89.824555 
L 215.670875 89.461098 
L 215.853493 89.385372 
L 216.005675 89.400519 
L 217.649239 91.172394 
L 218.13622 92.096192 
L 218.531893 92.868546 
L 220.084148 97.018067 
L 221.879893 102.697154 
L 222.610366 105.483695 
L 223.188657 107.558449 
L 224.862657 114.676243 
L 225.897493 119.264942 
L 232.19782 147.978403 
L 234.450111 162.092826 
L 237.037202 180.568788 
L 238.65033 191.033451 
L 239.532984 195.652439 
L 240.872184 201.770708 
L 243.094039 209.130807 
L 245.498511 214.840182 
L 246.92902 216.778646 
L 247.081202 216.884653 
L 247.93342 217.429847 
L 248.207348 217.550999 
L 249.637857 217.444989 
L 251.190111 216.793787 
L 251.342293 216.763499 
L 251.646657 216.612057 
L 252.62062 216.006287 
L 253.685893 215.097631 
L 255.512075 214.310131 
L 255.877311 214.204121 
L 256.212111 214.022393 
L 256.607784 213.916384 
L 256.881711 213.901237 
L 257.277384 213.976963 
L 257.794802 214.08297 
L 258.73833 214.431287 
L 259.286184 214.537297 
L 259.590548 214.567585 
L 259.834039 214.567585 
L 260.07753 214.582727 
L 260.594948 214.446429 
L 260.808002 214.34042 
L 261.173239 214.128403 
L 261.66022 213.764939 
L 262.75593 211.932489 
L 263.851639 208.91879 
L 265.221275 203.754602 
L 266.134366 198.666146 
L 267.169202 191.260614 
L 269.208439 173.087538 
L 271.70422 144.586096 
L 273.256475 123.899077 
L 276.239239 82.449315 
L 278.187166 57.74908 
L 279.435057 44.740183 
L 280.530766 35.426479 
L 281.474293 29.187061 
L 282.022148 26.582253 
L 282.783057 23.977445 
L 283.239602 23.129363 
L 283.543966 22.871914 
L 284.152693 22.977924 
L 284.396184 23.220236 
L 284.609239 23.568546 
L 285.065784 24.71951 
L 285.704948 26.960859 
L 286.283239 29.68682 
L 287.470257 37.395231 
L 288.474657 46.239459 
L 290.666075 70.273361 
L 292.705311 95.942824 
L 295.688075 133.106769 
L 300.070911 182.00749 
L 301.59273 196.061333 
L 303.26673 209.282249 
L 304.027639 213.825518 
L 304.545057 216.278884 
L 305.579893 220.443547 
L 305.975566 221.70052 
L 307.010402 224.911097 
L 307.801748 226.592105 
L 309.110511 228.348835 
L 310.327966 229.43922 
L 310.510584 229.469508 
L 310.906257 229.54523 
L 311.149748 229.54523 
L 311.423675 229.454367 
L 312.154148 228.575999 
L 312.945493 227.197876 
L 313.523784 225.486573 
L 314.041202 223.654124 
L 314.64993 221.140179 
L 317.23702 207.722396 
L 322.319893 174.117345 
L 323.385166 167.469028 
L 326.459239 149.765422 
L 327.676693 144.268066 
L 328.62022 140.542586 
L 329.259384 138.452683 
L 330.172475 136.075038 
L 330.872511 134.621193 
L 331.116002 134.227443 
L 331.511675 133.682251 
L 332.485639 132.849317 
L 332.759566 132.743308 
L 333.185675 132.637297 
L 333.337857 132.60701 
L 333.611784 132.576721 
L 333.794402 132.60701 
L 334.768366 133.197634 
L 335.164039 133.591383 
L 335.894511 134.46975 
L 336.472802 135.136096 
L 337.781566 136.302201 
L 337.933748 136.393067 
L 338.207675 136.605086 
L 338.877275 137.059413 
L 339.394693 137.438019 
L 339.607748 137.544028 
L 339.851239 137.634894 
L 340.886075 138.043788 
L 341.09913 138.058933 
L 341.951348 137.952922 
L 342.894875 137.377442 
L 343.290548 136.968548 
L 343.534039 136.72624 
L 344.994984 135.423836 
L 345.238475 135.317826 
L 346.182002 134.742346 
L 346.486366 134.46975 
L 346.912475 134.136576 
L 347.36902 133.651962 
L 349.621311 131.562058 
L 350.625711 131.168306 
L 350.80833 131.153164 
L 351.05182 131.13802 
L 352.451893 131.955808 
L 353.212802 132.864462 
L 354.460693 134.908931 
L 354.947675 136.029605 
L 355.434657 137.241144 
L 355.921639 138.740422 
L 356.682548 140.906048 
L 357.382584 142.950518 
L 359.117457 148.463019 
L 359.574002 149.825999 
L 363.317675 159.427442 
L 363.804657 160.53297 
L 364.139457 161.214461 
L 364.900366 162.819749 
L 366.361311 165.485134 
L 367.304839 166.272634 
L 367.578766 166.378644 
L 367.913566 166.560374 
L 368.096184 166.590663 
L 369.252766 166.484653 
L 369.55713 166.212057 
L 370.013675 165.545711 
L 370.622402 164.455327 
L 371.657239 162.153403 
L 372.083348 161.32047 
L 373.635602 157.98874 
L 377.196657 148.841625 
L 380.970766 137.922635 
L 382.918693 132.925037 
L 382.918693 132.925037 
" style="fill:none;stroke:#ff0000;stroke-linecap:square;stroke-width:1.5;"/>
   </g>
   <g id="line2d_27">
    <path clip-path="url(#pfb902c59cf)" d="M 128.805493 160.980573 
" style="fill:none;stroke:#ffffff;stroke-linecap:square;stroke-width:1.5;"/>
    <defs>
     <path d="M 0 -5 
L -1.12257 -1.545085 
L -4.755283 -1.545085 
L -1.816356 0.59017 
L -2.938926 4.045085 
L -0 1.90983 
L 2.938926 4.045085 
L 1.816356 0.59017 
L 4.755283 -1.545085 
L 1.12257 -1.545085 
z
" id="m444a53e3d7" style="stroke:#ffffff;stroke-linejoin:bevel;"/>
    </defs>
    <g clip-path="url(#pfb902c59cf)">
     <use style="fill:#0000ff;stroke:#ffffff;stroke-linejoin:bevel;" x="128.805493" xlink:href="#m444a53e3d7" y="160.980573"/>
    </g>
   </g>
   <g id="line2d_28">
    <path clip-path="url(#pfb902c59cf)" d="M 105.795602 158.761096 
" style="fill:none;stroke:#ffffff;stroke-linecap:square;stroke-width:1.5;"/>
    <defs>
     <path d="M 0 -5 
L -1.12257 -1.545085 
L -4.755283 -1.545085 
L -1.816356 0.59017 
L -2.938926 4.045085 
L -0 1.90983 
L 2.938926 4.045085 
L 1.816356 0.59017 
L 4.755283 -1.545085 
L 1.12257 -1.545085 
z
" id="m2c7cbd901b" style="stroke:#ffffff;stroke-linejoin:bevel;"/>
    </defs>
    <g clip-path="url(#pfb902c59cf)">
     <use style="fill:#ff0000;stroke:#ffffff;stroke-linejoin:bevel;" x="105.795602" xlink:href="#m2c7cbd901b" y="158.761096"/>
    </g>
   </g>
   <g id="patch_3">
    <path d="M 63.336875 339.84 
L 63.336875 7.2 
" style="fill:none;stroke:#000000;stroke-linecap:square;stroke-linejoin:miter;stroke-width:0.8;"/>
   </g>
   <g id="patch_4">
    <path d="M 398.136875 339.84 
L 398.136875 7.2 
" style="fill:none;stroke:#000000;stroke-linecap:square;stroke-linejoin:miter;stroke-width:0.8;"/>
   </g>
   <g id="patch_5">
    <path d="M 63.336875 339.84 
L 398.136875 339.84 
" style="fill:none;stroke:#000000;stroke-linecap:square;stroke-linejoin:miter;stroke-width:0.8;"/>
   </g>
   <g id="patch_6">
    <path d="M 63.336875 7.2 
L 398.136875 7.2 
" style="fill:none;stroke:#000000;stroke-linecap:square;stroke-linejoin:miter;stroke-width:0.8;"/>
   </g>
   <g id="text_15">
    <g id="patch_7">
     <path d="M 75.036875 331.242688 
L 166.79375 331.242688 
L 166.79375 293.760312 
L 75.036875 293.760312 
z
" style="fill:#ffffff;stroke:#000000;stroke-linejoin:miter;stroke-width:0.75;"/>
    </g>
    <!-- Auto_00046 -->
    <g transform="translate(80.076875 308.521562)scale(0.14 -0.14)">
     <defs>
      <path d="M 2928 1419 
L 1288 1419 
L 1000 750 
Q 894 503 894 381 
Q 894 284 986 211 
Q 1078 138 1384 116 
L 1384 0 
L 50 0 
L 50 116 
Q 316 163 394 238 
Q 553 388 747 847 
L 2238 4334 
L 2347 4334 
L 3822 809 
Q 4000 384 4145 257 
Q 4291 131 4550 116 
L 4550 0 
L 2878 0 
L 2878 116 
Q 3131 128 3220 200 
Q 3309 272 3309 375 
Q 3309 513 3184 809 
L 2928 1419 
z
M 2841 1650 
L 2122 3363 
L 1384 1650 
L 2841 1650 
z
" id="TimesNewRomanPSMT-41" transform="scale(0.015625)"/>
      <path d="M 2709 2863 
L 2709 1128 
Q 2709 631 2732 520 
Q 2756 409 2807 365 
Q 2859 322 2928 322 
Q 3025 322 3147 375 
L 3191 266 
L 2334 -88 
L 2194 -88 
L 2194 519 
Q 1825 119 1631 15 
Q 1438 -88 1222 -88 
Q 981 -88 804 51 
Q 628 191 559 409 
Q 491 628 491 1028 
L 491 2306 
Q 491 2509 447 2587 
Q 403 2666 317 2708 
Q 231 2750 6 2747 
L 6 2863 
L 1009 2863 
L 1009 947 
Q 1009 547 1148 422 
Q 1288 297 1484 297 
Q 1619 297 1789 381 
Q 1959 466 2194 703 
L 2194 2325 
Q 2194 2569 2105 2655 
Q 2016 2741 1734 2747 
L 1734 2863 
L 2709 2863 
z
" id="TimesNewRomanPSMT-75" transform="scale(0.015625)"/>
      <path d="M 3256 -1381 
L -53 -1381 
L -53 -1119 
L 3256 -1119 
L 3256 -1381 
z
" id="TimesNewRomanPSMT-5f" transform="scale(0.015625)"/>
     </defs>
     <use xlink:href="#TimesNewRomanPSMT-41"/>
     <use x="72.216797" xlink:href="#TimesNewRomanPSMT-75"/>
     <use x="122.216797" xlink:href="#TimesNewRomanPSMT-74"/>
     <use x="150" xlink:href="#TimesNewRomanPSMT-6f"/>
     <use x="200" xlink:href="#TimesNewRomanPSMT-5f"/>
     <use x="250" xlink:href="#TimesNewRomanPSMT-30"/>
     <use x="300" xlink:href="#TimesNewRomanPSMT-30"/>
     <use x="350" xlink:href="#TimesNewRomanPSMT-30"/>
     <use x="400" xlink:href="#TimesNewRomanPSMT-34"/>
     <use x="450" xlink:href="#TimesNewRomanPSMT-36"/>
    </g>
    <!-- Vs: 264.41m/s -->
    <g transform="translate(80.076875 323.208)scale(0.14 -0.14)">
     <defs>
      <path d="M 903 2950 
Q 1047 2950 1148 2848 
Q 1250 2747 1250 2603 
Q 1250 2459 1148 2357 
Q 1047 2256 903 2256 
Q 759 2256 657 2357 
Q 556 2459 556 2603 
Q 556 2747 657 2848 
Q 759 2950 903 2950 
z
M 897 609 
Q 1044 609 1145 506 
Q 1247 403 1247 259 
Q 1247 116 1144 14 
Q 1041 -88 897 -88 
Q 753 -88 651 14 
Q 550 116 550 259 
Q 550 403 651 506 
Q 753 609 897 609 
z
" id="TimesNewRomanPSMT-3a" transform="scale(0.015625)"/>
      <path d="M 1794 4444 
L 259 -88 
L 9 -88 
L 1544 4444 
L 1794 4444 
z
" id="TimesNewRomanPSMT-2f" transform="scale(0.015625)"/>
     </defs>
     <use xlink:href="#TimesNewRomanPSMT-56"/>
     <use x="72.216797" xlink:href="#TimesNewRomanPSMT-73"/>
     <use x="111.132812" xlink:href="#TimesNewRomanPSMT-3a"/>
     <use x="138.916016" xlink:href="#TimesNewRomanPSMT-20"/>
     <use x="163.916016" xlink:href="#TimesNewRomanPSMT-32"/>
     <use x="213.916016" xlink:href="#TimesNewRomanPSMT-36"/>
     <use x="263.916016" xlink:href="#TimesNewRomanPSMT-34"/>
     <use x="313.916016" xlink:href="#TimesNewRomanPSMT-2e"/>
     <use x="338.916016" xlink:href="#TimesNewRomanPSMT-34"/>
     <use x="388.916016" xlink:href="#TimesNewRomanPSMT-31"/>
     <use x="438.916016" xlink:href="#TimesNewRomanPSMT-6d"/>
     <use x="516.699219" xlink:href="#TimesNewRomanPSMT-2f"/>
     <use x="544.482422" xlink:href="#TimesNewRomanPSMT-73"/>
    </g>
   </g>
  </g>
 </g>
 <defs>
  <clipPath id="pfb902c59cf">
   <rect height="332.64" width="334.8" x="63.336875" y="7.2"/>
  </clipPath>
 </defs>
</svg>
