<?xml version="1.0" encoding="utf-8" standalone="no"?>
<!DOCTYPE svg PUBLIC "-//W3C//DTD SVG 1.1//EN"
  "http://www.w3.org/Graphics/SVG/1.1/DTD/svg11.dtd">
<svg height="383.471875pt" version="1.1" viewBox="0 0 421.086875 383.471875" width="421.086875pt" xmlns="http://www.w3.org/2000/svg" xmlns:xlink="http://www.w3.org/1999/xlink">
 <metadata>
  <rdf:RDF xmlns:cc="http://creativecommons.org/ns#" xmlns:dc="http://purl.org/dc/elements/1.1/" xmlns:rdf="http://www.w3.org/1999/02/22-rdf-syntax-ns#">
   <cc:Work>
    <dc:type rdf:resource="http://purl.org/dc/dcmitype/StillImage"/>
    <dc:date>2021-06-11T14:39:38.885272</dc:date>
    <dc:format>image/svg+xml</dc:format>
    <dc:creator>
     <cc:Agent>
      <dc:title>Matplotlib v3.4.2, https://matplotlib.org/</dc:title>
     </cc:Agent>
    </dc:creator>
   </cc:Work>
  </rdf:RDF>
 </metadata>
 <defs>
  <style type="text/css">*{stroke-linecap:butt;stroke-linejoin:round;}</style>
 </defs>
 <g id="figure_1">
  <g id="patch_1">
   <path d="M 0 383.471875 
L 421.086875 383.471875 
L 421.086875 0 
L 0 0 
z
" style="fill:#ffffff;"/>
  </g>
  <g id="axes_1">
   <g id="patch_2">
    <path d="M 63.336875 339.84 
L 398.136875 339.84 
L 398.136875 7.2 
L 63.336875 7.2 
z
" style="fill:#ffffff;"/>
   </g>
   <g id="matplotlib.axis_1">
    <g id="xtick_1">
     <g id="line2d_1">
      <path clip-path="url(#pa7d8345119)" d="M 93.773239 339.84 
L 93.773239 7.2 
" style="fill:none;stroke:#000000;stroke-dasharray:0.5,0.825;stroke-dashoffset:0;stroke-width:0.5;"/>
     </g>
     <g id="line2d_2">
      <defs>
       <path d="M 0 0 
L 0 3.5 
" id="m1a664c4762" style="stroke:#000000;stroke-width:0.8;"/>
      </defs>
      <g>
       <use style="stroke:#000000;stroke-width:0.8;" x="93.773239" xlink:href="#m1a664c4762" y="339.84"/>
      </g>
     </g>
     <g id="text_1">
      <!-- 0.000 -->
      <g transform="translate(78.023239 356.56125)scale(0.14 -0.14)">
       <defs>
        <path d="M 231 2094 
Q 231 2819 450 3342 
Q 669 3866 1031 4122 
Q 1313 4325 1613 4325 
Q 2100 4325 2488 3828 
Q 2972 3213 2972 2159 
Q 2972 1422 2759 906 
Q 2547 391 2217 158 
Q 1888 -75 1581 -75 
Q 975 -75 572 641 
Q 231 1244 231 2094 
z
M 844 2016 
Q 844 1141 1059 588 
Q 1238 122 1591 122 
Q 1759 122 1940 273 
Q 2122 425 2216 781 
Q 2359 1319 2359 2297 
Q 2359 3022 2209 3506 
Q 2097 3866 1919 4016 
Q 1791 4119 1609 4119 
Q 1397 4119 1231 3928 
Q 1006 3669 925 3112 
Q 844 2556 844 2016 
z
" id="TimesNewRomanPSMT-30" transform="scale(0.015625)"/>
        <path d="M 800 606 
Q 947 606 1047 504 
Q 1147 403 1147 259 
Q 1147 116 1045 14 
Q 944 -88 800 -88 
Q 656 -88 554 14 
Q 453 116 453 259 
Q 453 406 554 506 
Q 656 606 800 606 
z
" id="TimesNewRomanPSMT-2e" transform="scale(0.015625)"/>
       </defs>
       <use xlink:href="#TimesNewRomanPSMT-30"/>
       <use x="50" xlink:href="#TimesNewRomanPSMT-2e"/>
       <use x="75" xlink:href="#TimesNewRomanPSMT-30"/>
       <use x="125" xlink:href="#TimesNewRomanPSMT-30"/>
       <use x="175" xlink:href="#TimesNewRomanPSMT-30"/>
      </g>
     </g>
    </g>
    <g id="xtick_2">
     <g id="line2d_3">
      <path clip-path="url(#pa7d8345119)" d="M 154.645966 339.84 
L 154.645966 7.2 
" style="fill:none;stroke:#000000;stroke-dasharray:0.5,0.825;stroke-dashoffset:0;stroke-width:0.5;"/>
     </g>
     <g id="line2d_4">
      <g>
       <use style="stroke:#000000;stroke-width:0.8;" x="154.645966" xlink:href="#m1a664c4762" y="339.84"/>
      </g>
     </g>
     <g id="text_2">
      <!-- 0.001 -->
      <g transform="translate(138.895966 356.56125)scale(0.14 -0.14)">
       <defs>
        <path d="M 750 3822 
L 1781 4325 
L 1884 4325 
L 1884 747 
Q 1884 391 1914 303 
Q 1944 216 2037 169 
Q 2131 122 2419 116 
L 2419 0 
L 825 0 
L 825 116 
Q 1125 122 1212 167 
Q 1300 213 1334 289 
Q 1369 366 1369 747 
L 1369 3034 
Q 1369 3497 1338 3628 
Q 1316 3728 1258 3775 
Q 1200 3822 1119 3822 
Q 1003 3822 797 3725 
L 750 3822 
z
" id="TimesNewRomanPSMT-31" transform="scale(0.015625)"/>
       </defs>
       <use xlink:href="#TimesNewRomanPSMT-30"/>
       <use x="50" xlink:href="#TimesNewRomanPSMT-2e"/>
       <use x="75" xlink:href="#TimesNewRomanPSMT-30"/>
       <use x="125" xlink:href="#TimesNewRomanPSMT-30"/>
       <use x="175" xlink:href="#TimesNewRomanPSMT-31"/>
      </g>
     </g>
    </g>
    <g id="xtick_3">
     <g id="line2d_5">
      <path clip-path="url(#pa7d8345119)" d="M 215.518693 339.84 
L 215.518693 7.2 
" style="fill:none;stroke:#000000;stroke-dasharray:0.5,0.825;stroke-dashoffset:0;stroke-width:0.5;"/>
     </g>
     <g id="line2d_6">
      <g>
       <use style="stroke:#000000;stroke-width:0.8;" x="215.518693" xlink:href="#m1a664c4762" y="339.84"/>
      </g>
     </g>
     <g id="text_3">
      <!-- 0.002 -->
      <g transform="translate(199.768693 356.56125)scale(0.14 -0.14)">
       <defs>
        <path d="M 2934 816 
L 2638 0 
L 138 0 
L 138 116 
Q 1241 1122 1691 1759 
Q 2141 2397 2141 2925 
Q 2141 3328 1894 3587 
Q 1647 3847 1303 3847 
Q 991 3847 742 3664 
Q 494 3481 375 3128 
L 259 3128 
Q 338 3706 661 4015 
Q 984 4325 1469 4325 
Q 1984 4325 2329 3994 
Q 2675 3663 2675 3213 
Q 2675 2891 2525 2569 
Q 2294 2063 1775 1497 
Q 997 647 803 472 
L 1909 472 
Q 2247 472 2383 497 
Q 2519 522 2628 598 
Q 2738 675 2819 816 
L 2934 816 
z
" id="TimesNewRomanPSMT-32" transform="scale(0.015625)"/>
       </defs>
       <use xlink:href="#TimesNewRomanPSMT-30"/>
       <use x="50" xlink:href="#TimesNewRomanPSMT-2e"/>
       <use x="75" xlink:href="#TimesNewRomanPSMT-30"/>
       <use x="125" xlink:href="#TimesNewRomanPSMT-30"/>
       <use x="175" xlink:href="#TimesNewRomanPSMT-32"/>
      </g>
     </g>
    </g>
    <g id="xtick_4">
     <g id="line2d_7">
      <path clip-path="url(#pa7d8345119)" d="M 276.39142 339.84 
L 276.39142 7.2 
" style="fill:none;stroke:#000000;stroke-dasharray:0.5,0.825;stroke-dashoffset:0;stroke-width:0.5;"/>
     </g>
     <g id="line2d_8">
      <g>
       <use style="stroke:#000000;stroke-width:0.8;" x="276.39142" xlink:href="#m1a664c4762" y="339.84"/>
      </g>
     </g>
     <g id="text_4">
      <!-- 0.003 -->
      <g transform="translate(260.64142 356.56125)scale(0.14 -0.14)">
       <defs>
        <path d="M 325 3431 
Q 506 3859 782 4092 
Q 1059 4325 1472 4325 
Q 1981 4325 2253 3994 
Q 2459 3747 2459 3466 
Q 2459 3003 1878 2509 
Q 2269 2356 2469 2072 
Q 2669 1788 2669 1403 
Q 2669 853 2319 450 
Q 1863 -75 997 -75 
Q 569 -75 414 31 
Q 259 138 259 259 
Q 259 350 332 419 
Q 406 488 509 488 
Q 588 488 669 463 
Q 722 447 909 348 
Q 1097 250 1169 231 
Q 1284 197 1416 197 
Q 1734 197 1970 444 
Q 2206 691 2206 1028 
Q 2206 1275 2097 1509 
Q 2016 1684 1919 1775 
Q 1784 1900 1550 2001 
Q 1316 2103 1072 2103 
L 972 2103 
L 972 2197 
Q 1219 2228 1467 2375 
Q 1716 2522 1828 2728 
Q 1941 2934 1941 3181 
Q 1941 3503 1739 3701 
Q 1538 3900 1238 3900 
Q 753 3900 428 3381 
L 325 3431 
z
" id="TimesNewRomanPSMT-33" transform="scale(0.015625)"/>
       </defs>
       <use xlink:href="#TimesNewRomanPSMT-30"/>
       <use x="50" xlink:href="#TimesNewRomanPSMT-2e"/>
       <use x="75" xlink:href="#TimesNewRomanPSMT-30"/>
       <use x="125" xlink:href="#TimesNewRomanPSMT-30"/>
       <use x="175" xlink:href="#TimesNewRomanPSMT-33"/>
      </g>
     </g>
    </g>
    <g id="xtick_5">
     <g id="line2d_9">
      <path clip-path="url(#pa7d8345119)" d="M 337.264148 339.84 
L 337.264148 7.2 
" style="fill:none;stroke:#000000;stroke-dasharray:0.5,0.825;stroke-dashoffset:0;stroke-width:0.5;"/>
     </g>
     <g id="line2d_10">
      <g>
       <use style="stroke:#000000;stroke-width:0.8;" x="337.264148" xlink:href="#m1a664c4762" y="339.84"/>
      </g>
     </g>
     <g id="text_5">
      <!-- 0.004 -->
      <g transform="translate(321.514148 356.56125)scale(0.14 -0.14)">
       <defs>
        <path d="M 2978 1563 
L 2978 1119 
L 2409 1119 
L 2409 0 
L 1894 0 
L 1894 1119 
L 100 1119 
L 100 1519 
L 2066 4325 
L 2409 4325 
L 2409 1563 
L 2978 1563 
z
M 1894 1563 
L 1894 3666 
L 406 1563 
L 1894 1563 
z
" id="TimesNewRomanPSMT-34" transform="scale(0.015625)"/>
       </defs>
       <use xlink:href="#TimesNewRomanPSMT-30"/>
       <use x="50" xlink:href="#TimesNewRomanPSMT-2e"/>
       <use x="75" xlink:href="#TimesNewRomanPSMT-30"/>
       <use x="125" xlink:href="#TimesNewRomanPSMT-30"/>
       <use x="175" xlink:href="#TimesNewRomanPSMT-34"/>
      </g>
     </g>
    </g>
    <g id="xtick_6">
     <g id="line2d_11">
      <path clip-path="url(#pa7d8345119)" d="M 398.136875 339.84 
L 398.136875 7.2 
" style="fill:none;stroke:#000000;stroke-dasharray:0.5,0.825;stroke-dashoffset:0;stroke-width:0.5;"/>
     </g>
     <g id="line2d_12">
      <g>
       <use style="stroke:#000000;stroke-width:0.8;" x="398.136875" xlink:href="#m1a664c4762" y="339.84"/>
      </g>
     </g>
     <g id="text_6">
      <!-- 0.005 -->
      <g transform="translate(382.386875 356.56125)scale(0.14 -0.14)">
       <defs>
        <path d="M 2778 4238 
L 2534 3706 
L 1259 3706 
L 981 3138 
Q 1809 3016 2294 2522 
Q 2709 2097 2709 1522 
Q 2709 1188 2573 903 
Q 2438 619 2231 419 
Q 2025 219 1772 97 
Q 1413 -75 1034 -75 
Q 653 -75 479 54 
Q 306 184 306 341 
Q 306 428 378 495 
Q 450 563 559 563 
Q 641 563 702 538 
Q 763 513 909 409 
Q 1144 247 1384 247 
Q 1750 247 2026 523 
Q 2303 800 2303 1197 
Q 2303 1581 2056 1914 
Q 1809 2247 1375 2428 
Q 1034 2569 447 2591 
L 1259 4238 
L 2778 4238 
z
" id="TimesNewRomanPSMT-35" transform="scale(0.015625)"/>
       </defs>
       <use xlink:href="#TimesNewRomanPSMT-30"/>
       <use x="50" xlink:href="#TimesNewRomanPSMT-2e"/>
       <use x="75" xlink:href="#TimesNewRomanPSMT-30"/>
       <use x="125" xlink:href="#TimesNewRomanPSMT-30"/>
       <use x="175" xlink:href="#TimesNewRomanPSMT-35"/>
      </g>
     </g>
    </g>
    <g id="text_7">
     <!-- Time (sec) -->
     <g transform="translate(200.858906 373.277188)scale(0.14 -0.14)">
      <defs>
       <path d="M 3703 4238 
L 3750 3244 
L 3631 3244 
Q 3597 3506 3538 3619 
Q 3441 3800 3280 3886 
Q 3119 3972 2856 3972 
L 2259 3972 
L 2259 734 
Q 2259 344 2344 247 
Q 2463 116 2709 116 
L 2856 116 
L 2856 0 
L 1059 0 
L 1059 116 
L 1209 116 
Q 1478 116 1591 278 
Q 1659 378 1659 734 
L 1659 3972 
L 1150 3972 
Q 853 3972 728 3928 
Q 566 3869 450 3700 
Q 334 3531 313 3244 
L 194 3244 
L 244 4238 
L 3703 4238 
z
" id="TimesNewRomanPSMT-54" transform="scale(0.015625)"/>
       <path d="M 928 4444 
Q 1059 4444 1151 4351 
Q 1244 4259 1244 4128 
Q 1244 3997 1151 3903 
Q 1059 3809 928 3809 
Q 797 3809 703 3903 
Q 609 3997 609 4128 
Q 609 4259 701 4351 
Q 794 4444 928 4444 
z
M 1188 2947 
L 1188 647 
Q 1188 378 1227 289 
Q 1266 200 1342 156 
Q 1419 113 1622 113 
L 1622 0 
L 231 0 
L 231 113 
Q 441 113 512 153 
Q 584 194 626 287 
Q 669 381 669 647 
L 669 1750 
Q 669 2216 641 2353 
Q 619 2453 572 2492 
Q 525 2531 444 2531 
Q 356 2531 231 2484 
L 188 2597 
L 1050 2947 
L 1188 2947 
z
" id="TimesNewRomanPSMT-69" transform="scale(0.015625)"/>
       <path d="M 1050 2338 
Q 1363 2650 1419 2697 
Q 1559 2816 1721 2881 
Q 1884 2947 2044 2947 
Q 2313 2947 2506 2790 
Q 2700 2634 2766 2338 
Q 3088 2713 3309 2830 
Q 3531 2947 3766 2947 
Q 3994 2947 4170 2830 
Q 4347 2713 4450 2447 
Q 4519 2266 4519 1878 
L 4519 647 
Q 4519 378 4559 278 
Q 4591 209 4675 161 
Q 4759 113 4950 113 
L 4950 0 
L 3538 0 
L 3538 113 
L 3597 113 
Q 3781 113 3884 184 
Q 3956 234 3988 344 
Q 4000 397 4000 647 
L 4000 1878 
Q 4000 2228 3916 2372 
Q 3794 2572 3525 2572 
Q 3359 2572 3192 2489 
Q 3025 2406 2788 2181 
L 2781 2147 
L 2788 2013 
L 2788 647 
Q 2788 353 2820 281 
Q 2853 209 2943 161 
Q 3034 113 3253 113 
L 3253 0 
L 1806 0 
L 1806 113 
Q 2044 113 2133 169 
Q 2222 225 2256 338 
Q 2272 391 2272 647 
L 2272 1878 
Q 2272 2228 2169 2381 
Q 2031 2581 1784 2581 
Q 1616 2581 1450 2491 
Q 1191 2353 1050 2181 
L 1050 647 
Q 1050 366 1089 281 
Q 1128 197 1204 155 
Q 1281 113 1516 113 
L 1516 0 
L 100 0 
L 100 113 
Q 297 113 375 155 
Q 453 197 493 289 
Q 534 381 534 647 
L 534 1741 
Q 534 2213 506 2350 
Q 484 2453 437 2492 
Q 391 2531 309 2531 
Q 222 2531 100 2484 
L 53 2597 
L 916 2947 
L 1050 2947 
L 1050 2338 
z
" id="TimesNewRomanPSMT-6d" transform="scale(0.015625)"/>
       <path d="M 681 1784 
Q 678 1147 991 784 
Q 1303 422 1725 422 
Q 2006 422 2214 576 
Q 2422 731 2563 1106 
L 2659 1044 
Q 2594 616 2278 264 
Q 1963 -88 1488 -88 
Q 972 -88 605 314 
Q 238 716 238 1394 
Q 238 2128 614 2539 
Q 991 2950 1559 2950 
Q 2041 2950 2350 2633 
Q 2659 2316 2659 1784 
L 681 1784 
z
M 681 1966 
L 2006 1966 
Q 1991 2241 1941 2353 
Q 1863 2528 1708 2628 
Q 1553 2728 1384 2728 
Q 1125 2728 920 2526 
Q 716 2325 681 1966 
z
" id="TimesNewRomanPSMT-65" transform="scale(0.015625)"/>
       <path id="TimesNewRomanPSMT-20" transform="scale(0.015625)"/>
       <path d="M 1988 -1253 
L 1988 -1369 
Q 1516 -1131 1200 -813 
Q 750 -359 506 256 
Q 263 872 263 1534 
Q 263 2503 741 3301 
Q 1219 4100 1988 4444 
L 1988 4313 
Q 1603 4100 1356 3731 
Q 1109 3363 987 2797 
Q 866 2231 866 1616 
Q 866 947 969 400 
Q 1050 -31 1165 -292 
Q 1281 -553 1476 -793 
Q 1672 -1034 1988 -1253 
z
" id="TimesNewRomanPSMT-28" transform="scale(0.015625)"/>
       <path d="M 2050 2947 
L 2050 1972 
L 1947 1972 
Q 1828 2431 1642 2597 
Q 1456 2763 1169 2763 
Q 950 2763 815 2647 
Q 681 2531 681 2391 
Q 681 2216 781 2091 
Q 878 1963 1175 1819 
L 1631 1597 
Q 2266 1288 2266 781 
Q 2266 391 1970 151 
Q 1675 -88 1309 -88 
Q 1047 -88 709 6 
Q 606 38 541 38 
Q 469 38 428 -44 
L 325 -44 
L 325 978 
L 428 978 
Q 516 541 762 319 
Q 1009 97 1316 97 
Q 1531 97 1667 223 
Q 1803 350 1803 528 
Q 1803 744 1651 891 
Q 1500 1038 1047 1263 
Q 594 1488 453 1669 
Q 313 1847 313 2119 
Q 313 2472 555 2709 
Q 797 2947 1181 2947 
Q 1350 2947 1591 2875 
Q 1750 2828 1803 2828 
Q 1853 2828 1881 2850 
Q 1909 2872 1947 2947 
L 2050 2947 
z
" id="TimesNewRomanPSMT-73" transform="scale(0.015625)"/>
       <path d="M 2631 1088 
Q 2516 522 2178 217 
Q 1841 -88 1431 -88 
Q 944 -88 581 321 
Q 219 731 219 1428 
Q 219 2103 620 2525 
Q 1022 2947 1584 2947 
Q 2006 2947 2278 2723 
Q 2550 2500 2550 2259 
Q 2550 2141 2473 2067 
Q 2397 1994 2259 1994 
Q 2075 1994 1981 2113 
Q 1928 2178 1911 2362 
Q 1894 2547 1784 2644 
Q 1675 2738 1481 2738 
Q 1169 2738 978 2506 
Q 725 2200 725 1697 
Q 725 1184 976 792 
Q 1228 400 1656 400 
Q 1963 400 2206 609 
Q 2378 753 2541 1131 
L 2631 1088 
z
" id="TimesNewRomanPSMT-63" transform="scale(0.015625)"/>
       <path d="M 144 4313 
L 144 4444 
Q 619 4209 934 3891 
Q 1381 3434 1625 2820 
Q 1869 2206 1869 1541 
Q 1869 572 1392 -226 
Q 916 -1025 144 -1369 
L 144 -1253 
Q 528 -1038 776 -670 
Q 1025 -303 1145 264 
Q 1266 831 1266 1447 
Q 1266 2113 1163 2663 
Q 1084 3094 967 3353 
Q 850 3613 656 3853 
Q 463 4094 144 4313 
z
" id="TimesNewRomanPSMT-29" transform="scale(0.015625)"/>
      </defs>
      <use xlink:href="#TimesNewRomanPSMT-54"/>
      <use x="57.583984" xlink:href="#TimesNewRomanPSMT-69"/>
      <use x="85.367188" xlink:href="#TimesNewRomanPSMT-6d"/>
      <use x="163.150391" xlink:href="#TimesNewRomanPSMT-65"/>
      <use x="207.535156" xlink:href="#TimesNewRomanPSMT-20"/>
      <use x="232.535156" xlink:href="#TimesNewRomanPSMT-28"/>
      <use x="265.835938" xlink:href="#TimesNewRomanPSMT-73"/>
      <use x="304.751953" xlink:href="#TimesNewRomanPSMT-65"/>
      <use x="349.136719" xlink:href="#TimesNewRomanPSMT-63"/>
      <use x="393.521484" xlink:href="#TimesNewRomanPSMT-29"/>
     </g>
    </g>
   </g>
   <g id="matplotlib.axis_2">
    <g id="ytick_1">
     <g id="line2d_13">
      <path clip-path="url(#pa7d8345119)" d="M 63.336875 329.615123 
L 398.136875 329.615123 
" style="fill:none;stroke:#000000;stroke-dasharray:0.5,0.825;stroke-dashoffset:0;stroke-width:0.5;"/>
     </g>
     <g id="line2d_14">
      <defs>
       <path d="M 0 0 
L -3.5 0 
" id="me0505b5ba8" style="stroke:#000000;stroke-width:0.8;"/>
      </defs>
      <g>
       <use style="stroke:#000000;stroke-width:0.8;" x="63.336875" xlink:href="#me0505b5ba8" y="329.615123"/>
      </g>
     </g>
     <g id="text_8">
      <!-- −0.06 -->
      <g transform="translate(23.942188 334.475748)scale(0.14 -0.14)">
       <defs>
        <path d="M 3484 2000 
L 116 2000 
L 116 2256 
L 3484 2256 
L 3484 2000 
z
" id="TimesNewRomanPSMT-2212" transform="scale(0.015625)"/>
        <path d="M 2869 4325 
L 2869 4209 
Q 2456 4169 2195 4045 
Q 1934 3922 1679 3669 
Q 1425 3416 1258 3105 
Q 1091 2794 978 2366 
Q 1428 2675 1881 2675 
Q 2316 2675 2634 2325 
Q 2953 1975 2953 1425 
Q 2953 894 2631 456 
Q 2244 -75 1606 -75 
Q 1172 -75 869 213 
Q 275 772 275 1663 
Q 275 2231 503 2743 
Q 731 3256 1154 3653 
Q 1578 4050 1965 4187 
Q 2353 4325 2688 4325 
L 2869 4325 
z
M 925 2138 
Q 869 1716 869 1456 
Q 869 1156 980 804 
Q 1091 453 1309 247 
Q 1469 100 1697 100 
Q 1969 100 2183 356 
Q 2397 613 2397 1088 
Q 2397 1622 2184 2012 
Q 1972 2403 1581 2403 
Q 1463 2403 1327 2353 
Q 1191 2303 925 2138 
z
" id="TimesNewRomanPSMT-36" transform="scale(0.015625)"/>
       </defs>
       <use xlink:href="#TimesNewRomanPSMT-2212"/>
       <use x="56.396484" xlink:href="#TimesNewRomanPSMT-30"/>
       <use x="106.396484" xlink:href="#TimesNewRomanPSMT-2e"/>
       <use x="131.396484" xlink:href="#TimesNewRomanPSMT-30"/>
       <use x="181.396484" xlink:href="#TimesNewRomanPSMT-36"/>
      </g>
     </g>
    </g>
    <g id="ytick_2">
     <g id="line2d_15">
      <path clip-path="url(#pa7d8345119)" d="M 63.336875 271.51795 
L 398.136875 271.51795 
" style="fill:none;stroke:#000000;stroke-dasharray:0.5,0.825;stroke-dashoffset:0;stroke-width:0.5;"/>
     </g>
     <g id="line2d_16">
      <g>
       <use style="stroke:#000000;stroke-width:0.8;" x="63.336875" xlink:href="#me0505b5ba8" y="271.51795"/>
      </g>
     </g>
     <g id="text_9">
      <!-- −0.04 -->
      <g transform="translate(23.942188 276.378575)scale(0.14 -0.14)">
       <use xlink:href="#TimesNewRomanPSMT-2212"/>
       <use x="56.396484" xlink:href="#TimesNewRomanPSMT-30"/>
       <use x="106.396484" xlink:href="#TimesNewRomanPSMT-2e"/>
       <use x="131.396484" xlink:href="#TimesNewRomanPSMT-30"/>
       <use x="181.396484" xlink:href="#TimesNewRomanPSMT-34"/>
      </g>
     </g>
    </g>
    <g id="ytick_3">
     <g id="line2d_17">
      <path clip-path="url(#pa7d8345119)" d="M 63.336875 213.420777 
L 398.136875 213.420777 
" style="fill:none;stroke:#000000;stroke-dasharray:0.5,0.825;stroke-dashoffset:0;stroke-width:0.5;"/>
     </g>
     <g id="line2d_18">
      <g>
       <use style="stroke:#000000;stroke-width:0.8;" x="63.336875" xlink:href="#me0505b5ba8" y="213.420777"/>
      </g>
     </g>
     <g id="text_10">
      <!-- −0.02 -->
      <g transform="translate(23.942188 218.281402)scale(0.14 -0.14)">
       <use xlink:href="#TimesNewRomanPSMT-2212"/>
       <use x="56.396484" xlink:href="#TimesNewRomanPSMT-30"/>
       <use x="106.396484" xlink:href="#TimesNewRomanPSMT-2e"/>
       <use x="131.396484" xlink:href="#TimesNewRomanPSMT-30"/>
       <use x="181.396484" xlink:href="#TimesNewRomanPSMT-32"/>
      </g>
     </g>
    </g>
    <g id="ytick_4">
     <g id="line2d_19">
      <path clip-path="url(#pa7d8345119)" d="M 63.336875 155.323604 
L 398.136875 155.323604 
" style="fill:none;stroke:#000000;stroke-dasharray:0.5,0.825;stroke-dashoffset:0;stroke-width:0.5;"/>
     </g>
     <g id="line2d_20">
      <g>
       <use style="stroke:#000000;stroke-width:0.8;" x="63.336875" xlink:href="#me0505b5ba8" y="155.323604"/>
      </g>
     </g>
     <g id="text_11">
      <!-- 0.00 -->
      <g transform="translate(31.836875 160.184229)scale(0.14 -0.14)">
       <use xlink:href="#TimesNewRomanPSMT-30"/>
       <use x="50" xlink:href="#TimesNewRomanPSMT-2e"/>
       <use x="75" xlink:href="#TimesNewRomanPSMT-30"/>
       <use x="125" xlink:href="#TimesNewRomanPSMT-30"/>
      </g>
     </g>
    </g>
    <g id="ytick_5">
     <g id="line2d_21">
      <path clip-path="url(#pa7d8345119)" d="M 63.336875 97.226431 
L 398.136875 97.226431 
" style="fill:none;stroke:#000000;stroke-dasharray:0.5,0.825;stroke-dashoffset:0;stroke-width:0.5;"/>
     </g>
     <g id="line2d_22">
      <g>
       <use style="stroke:#000000;stroke-width:0.8;" x="63.336875" xlink:href="#me0505b5ba8" y="97.226431"/>
      </g>
     </g>
     <g id="text_12">
      <!-- 0.02 -->
      <g transform="translate(31.836875 102.087056)scale(0.14 -0.14)">
       <use xlink:href="#TimesNewRomanPSMT-30"/>
       <use x="50" xlink:href="#TimesNewRomanPSMT-2e"/>
       <use x="75" xlink:href="#TimesNewRomanPSMT-30"/>
       <use x="125" xlink:href="#TimesNewRomanPSMT-32"/>
      </g>
     </g>
    </g>
    <g id="ytick_6">
     <g id="line2d_23">
      <path clip-path="url(#pa7d8345119)" d="M 63.336875 39.129258 
L 398.136875 39.129258 
" style="fill:none;stroke:#000000;stroke-dasharray:0.5,0.825;stroke-dashoffset:0;stroke-width:0.5;"/>
     </g>
     <g id="line2d_24">
      <g>
       <use style="stroke:#000000;stroke-width:0.8;" x="63.336875" xlink:href="#me0505b5ba8" y="39.129258"/>
      </g>
     </g>
     <g id="text_13">
      <!-- 0.04 -->
      <g transform="translate(31.836875 43.989883)scale(0.14 -0.14)">
       <use xlink:href="#TimesNewRomanPSMT-30"/>
       <use x="50" xlink:href="#TimesNewRomanPSMT-2e"/>
       <use x="75" xlink:href="#TimesNewRomanPSMT-30"/>
       <use x="125" xlink:href="#TimesNewRomanPSMT-34"/>
      </g>
     </g>
    </g>
    <g id="text_14">
     <!-- Volatage (V) -->
     <g transform="translate(16.92125 209.352344)rotate(-90)scale(0.14 -0.14)">
      <defs>
       <path d="M 4544 4238 
L 4544 4122 
Q 4319 4081 4203 3978 
Q 4038 3825 3909 3509 
L 2431 -97 
L 2316 -97 
L 728 3556 
Q 606 3838 556 3900 
Q 478 3997 364 4051 
Q 250 4106 56 4122 
L 56 4238 
L 1788 4238 
L 1788 4122 
Q 1494 4094 1406 4022 
Q 1319 3950 1319 3838 
Q 1319 3681 1463 3350 
L 2541 866 
L 3541 3319 
Q 3688 3681 3688 3822 
Q 3688 3913 3597 3995 
Q 3506 4078 3291 4113 
Q 3275 4116 3238 4122 
L 3238 4238 
L 4544 4238 
z
" id="TimesNewRomanPSMT-56" transform="scale(0.015625)"/>
       <path d="M 1600 2947 
Q 2250 2947 2644 2453 
Q 2978 2031 2978 1484 
Q 2978 1100 2793 706 
Q 2609 313 2286 112 
Q 1963 -88 1566 -88 
Q 919 -88 538 428 
Q 216 863 216 1403 
Q 216 1797 411 2186 
Q 606 2575 925 2761 
Q 1244 2947 1600 2947 
z
M 1503 2744 
Q 1338 2744 1170 2645 
Q 1003 2547 900 2300 
Q 797 2053 797 1666 
Q 797 1041 1045 587 
Q 1294 134 1700 134 
Q 2003 134 2200 384 
Q 2397 634 2397 1244 
Q 2397 2006 2069 2444 
Q 1847 2744 1503 2744 
z
" id="TimesNewRomanPSMT-6f" transform="scale(0.015625)"/>
       <path d="M 1184 4444 
L 1184 647 
Q 1184 378 1223 290 
Q 1263 203 1344 158 
Q 1425 113 1647 113 
L 1647 0 
L 244 0 
L 244 113 
Q 441 113 512 153 
Q 584 194 625 287 
Q 666 381 666 647 
L 666 3247 
Q 666 3731 644 3842 
Q 622 3953 573 3993 
Q 525 4034 450 4034 
Q 369 4034 244 3984 
L 191 4094 
L 1044 4444 
L 1184 4444 
z
" id="TimesNewRomanPSMT-6c" transform="scale(0.015625)"/>
       <path d="M 1822 413 
Q 1381 72 1269 19 
Q 1100 -59 909 -59 
Q 613 -59 420 144 
Q 228 347 228 678 
Q 228 888 322 1041 
Q 450 1253 767 1440 
Q 1084 1628 1822 1897 
L 1822 2009 
Q 1822 2438 1686 2597 
Q 1550 2756 1291 2756 
Q 1094 2756 978 2650 
Q 859 2544 859 2406 
L 866 2225 
Q 866 2081 792 2003 
Q 719 1925 600 1925 
Q 484 1925 411 2006 
Q 338 2088 338 2228 
Q 338 2497 613 2722 
Q 888 2947 1384 2947 
Q 1766 2947 2009 2819 
Q 2194 2722 2281 2516 
Q 2338 2381 2338 1966 
L 2338 994 
Q 2338 584 2353 492 
Q 2369 400 2405 369 
Q 2441 338 2488 338 
Q 2538 338 2575 359 
Q 2641 400 2828 588 
L 2828 413 
Q 2478 -56 2159 -56 
Q 2006 -56 1915 50 
Q 1825 156 1822 413 
z
M 1822 616 
L 1822 1706 
Q 1350 1519 1213 1441 
Q 966 1303 859 1153 
Q 753 1003 753 825 
Q 753 600 887 451 
Q 1022 303 1197 303 
Q 1434 303 1822 616 
z
" id="TimesNewRomanPSMT-61" transform="scale(0.015625)"/>
       <path d="M 1031 3803 
L 1031 2863 
L 1700 2863 
L 1700 2644 
L 1031 2644 
L 1031 788 
Q 1031 509 1111 412 
Q 1191 316 1316 316 
Q 1419 316 1516 380 
Q 1613 444 1666 569 
L 1788 569 
Q 1678 263 1478 108 
Q 1278 -47 1066 -47 
Q 922 -47 784 33 
Q 647 113 581 261 
Q 516 409 516 719 
L 516 2644 
L 63 2644 
L 63 2747 
Q 234 2816 414 2980 
Q 594 3144 734 3369 
Q 806 3488 934 3803 
L 1031 3803 
z
" id="TimesNewRomanPSMT-74" transform="scale(0.015625)"/>
       <path d="M 966 1044 
Q 703 1172 562 1401 
Q 422 1631 422 1909 
Q 422 2334 742 2640 
Q 1063 2947 1563 2947 
Q 1972 2947 2272 2747 
L 2878 2747 
Q 3013 2747 3034 2739 
Q 3056 2731 3066 2713 
Q 3084 2684 3084 2613 
Q 3084 2531 3069 2500 
Q 3059 2484 3036 2475 
Q 3013 2466 2878 2466 
L 2506 2466 
Q 2681 2241 2681 1891 
Q 2681 1491 2375 1206 
Q 2069 922 1553 922 
Q 1341 922 1119 984 
Q 981 866 932 777 
Q 884 688 884 625 
Q 884 572 936 522 
Q 988 472 1138 450 
Q 1225 438 1575 428 
Q 2219 413 2409 384 
Q 2700 344 2873 169 
Q 3047 -6 3047 -263 
Q 3047 -616 2716 -925 
Q 2228 -1381 1444 -1381 
Q 841 -1381 425 -1109 
Q 191 -953 191 -784 
Q 191 -709 225 -634 
Q 278 -519 444 -313 
Q 466 -284 763 25 
Q 600 122 533 198 
Q 466 275 466 372 
Q 466 481 555 628 
Q 644 775 966 1044 
z
M 1509 2797 
Q 1278 2797 1122 2612 
Q 966 2428 966 2047 
Q 966 1553 1178 1281 
Q 1341 1075 1591 1075 
Q 1828 1075 1981 1253 
Q 2134 1431 2134 1813 
Q 2134 2309 1919 2591 
Q 1759 2797 1509 2797 
z
M 934 0 
Q 788 -159 713 -296 
Q 638 -434 638 -550 
Q 638 -700 819 -813 
Q 1131 -1006 1722 -1006 
Q 2284 -1006 2551 -807 
Q 2819 -609 2819 -384 
Q 2819 -222 2659 -153 
Q 2497 -84 2016 -72 
Q 1313 -53 934 0 
z
" id="TimesNewRomanPSMT-67" transform="scale(0.015625)"/>
      </defs>
      <use xlink:href="#TimesNewRomanPSMT-56"/>
      <use x="59.341797" xlink:href="#TimesNewRomanPSMT-6f"/>
      <use x="109.341797" xlink:href="#TimesNewRomanPSMT-6c"/>
      <use x="137.125" xlink:href="#TimesNewRomanPSMT-61"/>
      <use x="181.509766" xlink:href="#TimesNewRomanPSMT-74"/>
      <use x="209.292969" xlink:href="#TimesNewRomanPSMT-61"/>
      <use x="253.677734" xlink:href="#TimesNewRomanPSMT-67"/>
      <use x="303.677734" xlink:href="#TimesNewRomanPSMT-65"/>
      <use x="348.0625" xlink:href="#TimesNewRomanPSMT-20"/>
      <use x="373.0625" xlink:href="#TimesNewRomanPSMT-28"/>
      <use x="406.363281" xlink:href="#TimesNewRomanPSMT-56"/>
      <use x="478.580078" xlink:href="#TimesNewRomanPSMT-29"/>
     </g>
    </g>
   </g>
   <g id="LineCollection_1">
    <path clip-path="url(#pa7d8345119)" d="M 78.555057 155.323604 
L 382.918693 155.323604 
" style="fill:none;stroke:#1f77b4;stroke-width:1.5;"/>
   </g>
   <g id="line2d_25">
    <path clip-path="url(#pa7d8345119)" d="M 78.555057 155.366741 
L 78.676802 155.33043 
L 78.798548 155.366741 
L 78.85942 155.29412 
L 78.920293 155.33043 
L 79.011602 155.366741 
L 79.133348 155.29412 
L 79.19422 155.366741 
L 79.255093 155.33043 
L 86.438075 155.257809 
L 86.498948 155.185187 
L 86.529384 155.257809 
L 89.299093 155.185187 
L 89.420839 155.148877 
L 89.57302 155.185187 
L 91.703566 155.076255 
L 91.825311 155.039944 
L 91.947057 155.112566 
L 99.677893 155.039944 
L 99.799639 154.967323 
L 99.921384 155.003634 
L 100.073566 154.967323 
L 100.134439 155.003634 
L 100.164875 154.967323 
L 100.28662 154.967323 
L 108.808802 154.894701 
L 108.930548 154.858391 
L 109.052293 154.858391 
L 110.695857 154.967323 
L 110.848039 155.003634 
L 111.00022 154.967323 
L 111.121966 155.003634 
L 111.243711 155.003634 
L 112.582911 155.112566 
L 112.67422 155.148877 
L 112.76553 155.076255 
L 112.795966 155.112566 
L 113.526439 155.185187 
L 113.648184 155.257809 
L 113.739493 155.221498 
L 113.76993 155.257809 
L 113.922111 155.33043 
L 114.043857 155.29412 
L 114.226475 155.366741 
L 114.865639 155.439362 
L 114.987384 155.548295 
L 115.048257 155.511984 
L 115.078693 155.548295 
L 115.200439 155.584605 
L 115.35262 155.548295 
L 115.504802 155.657227 
L 115.991784 155.766159 
L 116.174402 155.83878 
L 116.296148 155.83878 
L 116.996184 155.911402 
L 117.148366 156.020334 
L 117.909275 156.129266 
L 118.061457 156.165577 
L 118.45713 156.274509 
L 118.609311 156.347131 
L 118.731057 156.31082 
L 118.822366 156.383441 
L 118.852802 156.347131 
L 118.974548 156.347131 
L 119.522402 156.456063 
L 119.674584 156.564995 
L 119.70502 156.456063 
L 119.765893 156.528684 
L 119.918075 156.564995 
L 120.03982 156.564995 
L 120.587675 156.673927 
L 120.70942 156.710238 
L 120.952911 156.855481 
L 121.287711 156.964413 
L 121.500766 157.073345 
L 121.683384 157.182278 
L 123.570439 159.578786 
L 124.179166 160.77704 
L 124.300911 161.067526 
L 125.609675 164.444424 
L 125.944475 165.533746 
L 126.218402 166.441515 
L 126.705384 168.257051 
L 127.588039 171.815503 
L 128.83593 177.262114 
L 129.383784 179.585999 
L 129.779457 181.292606 
L 130.722984 185.286786 
L 132.42742 191.023881 
L 132.488293 191.132813 
L 133.005711 192.113203 
L 133.614439 192.694175 
L 134.284039 192.803107 
L 134.405784 192.803107 
L 134.831893 192.694175 
L 135.227566 192.367378 
L 135.379748 192.258446 
L 135.623239 191.895338 
L 135.684111 191.822717 
L 136.475457 189.716694 
L 136.77982 188.48213 
L 136.962439 187.792226 
L 137.571166 184.814747 
L 138.240766 181.111052 
L 139.12342 175.192401 
L 140.827857 160.159758 
L 141.436584 153.587515 
L 142.836657 137.429239 
L 148.102148 69.782346 
L 149.532657 54.023485 
L 150.232693 47.560174 
L 150.537057 45.127352 
L 151.237093 40.189096 
L 152.880657 32.854333 
L 153.51982 31.583452 
L 153.85462 31.329277 
L 154.18942 31.438206 
L 154.402475 31.692378 
L 154.645966 32.128116 
L 155.254693 33.762099 
L 155.741675 36.013358 
L 156.350402 39.426573 
L 156.837384 42.985019 
L 157.476548 48.359013 
L 158.328766 57.509321 
L 160.794111 94.328399 
L 163.746439 152.752368 
L 165.176948 184.270085 
L 168.890184 261.720878 
L 170.381566 286.448487 
L 171.325093 299.375111 
L 172.146875 308.706973 
L 173.516511 319.273396 
L 174.399166 322.977088 
L 174.733966 323.775927 
L 174.977457 324.139028 
L 175.068766 324.247958 
L 175.555748 324.683695 
L 175.890548 324.574754 
L 176.194911 324.066407 
L 176.590584 323.049709 
L 177.108002 321.56096 
L 178.173275 315.96911 
L 179.147239 308.271235 
L 181.73433 279.367889 
L 183.438766 253.478336 
L 188.369457 167.167729 
L 192.69142 101.808407 
L 193.574075 91.677715 
L 194.395857 83.97984 
L 197.409057 59.687959 
L 198.109093 56.093194 
L 198.291711 55.403296 
L 199.174366 51.699601 
L 199.600475 50.428722 
L 200.635311 47.124449 
L 200.72662 47.015508 
L 201.517966 45.381525 
L 201.578839 45.34522 
L 201.761457 45.091045 
L 202.49193 44.982115 
L 202.704984 44.873177 
L 203.313711 44.982115 
L 203.618075 45.23629 
L 203.648511 45.199974 
L 203.709384 45.272595 
L 204.07462 45.381525 
L 204.805093 46.398231 
L 205.444257 47.70542 
L 205.50513 47.814347 
L 206.113857 49.520954 
L 206.41822 50.465039 
L 207.026948 52.171635 
L 208.670511 58.453394 
L 210.709748 67.676321 
L 211.379348 70.435939 
L 211.805457 72.324097 
L 214.727348 86.775763 
L 216.370911 97.196947 
L 216.918766 100.864328 
L 217.649239 105.294243 
L 218.257966 109.578907 
L 221.210293 131.510589 
L 223.340839 150.174306 
L 223.980002 156.528684 
L 224.771348 164.045006 
L 227.419311 193.601943 
L 229.18462 215.315758 
L 232.076075 248.503774 
L 233.780511 265.642437 
L 235.241457 276.935078 
L 235.911057 280.929262 
L 237.098075 284.778199 
L 237.463311 285.104984 
L 237.585057 285.032372 
L 237.615493 285.104984 
L 237.64593 284.996055 
L 237.676366 284.996055 
L 237.919857 284.887129 
L 238.132911 284.778199 
L 238.31553 284.705575 
L 238.467711 284.487708 
L 238.498148 284.524013 
L 238.65033 284.233536 
L 239.167748 282.781103 
L 239.65473 281.401293 
L 240.476511 277.0077 
L 241.967893 265.533508 
L 243.946257 245.598916 
L 245.194148 231.11093 
L 248.176911 186.884457 
L 249.36393 168.874334 
L 252.04233 132.055251 
L 253.259784 118.801833 
L 254.598984 107.073466 
L 256.090366 97.196947 
L 257.033893 93.202763 
L 257.490439 91.859272 
L 257.794802 91.133054 
L 258.342657 90.334215 
L 258.555711 89.934803 
L 258.860075 89.46276 
L 259.042693 89.208585 
L 259.225311 88.990724 
L 259.377493 88.881789 
L 260.107966 88.155574 
L 260.290584 88.046639 
L 260.473202 87.974023 
L 261.690657 88.08295 
L 261.99502 88.373436 
L 262.025457 88.337131 
L 262.116766 88.44606 
L 262.299384 88.627616 
L 263.121166 89.716933 
L 263.303784 90.007419 
L 263.638584 90.552085 
L 263.973384 91.096743 
L 264.308184 91.641404 
L 264.825602 92.621794 
L 265.00822 92.984902 
L 265.190839 93.420633 
L 265.403893 93.783741 
L 265.67782 94.364709 
L 265.76913 94.582574 
L 266.286548 96.035006 
L 267.077893 98.177336 
L 269.543239 107.400263 
L 272.099893 120.109019 
L 272.617311 123.050189 
L 273.195602 126.318154 
L 273.621711 128.60573 
L 276.269675 140.733516 
L 277.304511 144.836628 
L 277.943675 147.37838 
L 279.556802 152.752368 
L 279.648111 152.970233 
L 280.16553 154.422662 
L 280.226402 154.567905 
L 280.439457 155.076255 
L 281.900402 158.30791 
L 282.17433 158.77995 
L 282.630875 159.615097 
L 283.391784 160.377622 
L 283.574402 160.486554 
L 283.878766 160.704419 
L 285.126657 160.595487 
L 286.43542 158.888882 
L 290.270402 149.992753 
L 291.183493 149.048673 
L 291.396548 148.939741 
L 291.426984 148.86712 
L 291.487857 148.90343 
L 291.700911 149.012363 
L 291.88353 149.121295 
L 292.035711 149.230227 
L 292.492257 149.629645 
L 292.583566 149.702267 
L 292.88793 150.174306 
L 293.070548 150.537413 
L 294.47062 154.132176 
L 295.535893 158.344221 
L 297.331639 167.385593 
L 297.879493 170.508317 
L 298.396911 173.449486 
L 299.15782 178.09726 
L 299.614366 180.747943 
L 300.466584 186.04931 
L 300.953566 188.881548 
L 303.084111 200.936711 
L 303.966766 205.620798 
L 304.332002 207.436332 
L 305.092911 210.559055 
L 305.762511 213.246049 
L 306.52342 215.243143 
L 306.736475 215.860425 
L 306.919093 216.223527 
L 307.19302 216.622948 
L 307.771311 217.203916 
L 307.801748 217.167612 
L 307.86262 217.240227 
L 308.28873 217.603337 
L 308.714839 217.567024 
L 308.836584 217.421784 
L 308.897457 217.494408 
L 308.927893 217.421784 
L 309.262693 217.312852 
L 309.87142 216.441394 
L 310.145348 215.860425 
L 310.936693 213.718086 
L 311.54542 211.140024 
L 314.162948 194.872819 
L 314.771675 190.116112 
L 315.380402 184.996298 
L 316.263057 177.62522 
L 316.871784 172.505407 
L 317.480511 167.748701 
L 318.363166 160.668108 
L 318.941457 156.165577 
L 322.502511 131.437966 
L 322.68513 130.421268 
L 323.659093 124.248443 
L 325.972257 111.103954 
L 326.398366 109.179486 
L 327.159275 106.056765 
L 329.259384 98.939859 
L 329.320257 98.867243 
L 330.020293 97.451122 
L 330.142039 97.342187 
L 330.415966 96.942774 
L 331.146439 96.216557 
L 331.237748 96.143935 
L 331.450802 95.88976 
L 331.602984 95.780825 
L 331.785602 95.599274 
L 331.907348 95.599274 
L 332.029093 95.454028 
L 332.05953 95.490342 
L 332.242148 95.381413 
L 332.333457 95.381413 
L 332.546511 95.272478 
L 332.576948 95.308788 
L 332.63782 95.236167 
L 333.06393 95.127232 
L 333.155239 95.090921 
L 333.30742 95.199856 
L 333.64222 95.454028 
L 333.763966 95.562964 
L 334.768366 96.906461 
L 335.346657 98.032093 
L 335.65102 98.540447 
L 337.355457 102.861421 
L 339.242511 110.014635 
L 340.368657 114.916584 
L 340.520839 115.533867 
L 346.882039 146.361679 
L 347.429893 149.520713 
L 347.673384 150.791589 
L 348.586475 155.620916 
L 348.921275 157.182278 
L 349.256075 158.852571 
L 349.560439 160.341311 
L 351.417057 168.69278 
L 352.81713 173.304243 
L 353.73022 175.737063 
L 354.095457 176.64483 
L 354.247639 176.935317 
L 354.460693 177.479978 
L 356.104257 181.655711 
L 356.560802 182.890278 
L 357.808693 186.121932 
L 358.143493 186.957079 
L 358.295675 187.247565 
L 358.630475 188.046401 
L 360.18273 191.49592 
L 360.365348 191.859028 
L 360.669711 192.331067 
L 360.730584 192.439999 
L 361.18713 193.093593 
L 361.400184 193.493011 
L 361.43062 193.4567 
L 361.491493 193.529321 
L 361.917602 193.892429 
L 362.10022 194.001361 
L 362.404584 194.219225 
L 362.587202 194.291847 
L 362.739384 194.43709 
L 362.86113 194.43709 
L 362.982875 194.4734 
L 363.10462 194.4734 
L 364.20033 194.364468 
L 364.382948 194.291847 
L 364.474257 194.291847 
L 364.596002 194.219225 
L 364.626439 194.255536 
L 364.900366 194.182915 
L 365.022111 194.146604 
L 365.174293 194.110293 
L 365.722148 194.001361 
L 365.87433 193.892429 
L 365.904766 193.928739 
L 366.087384 193.819807 
L 366.239566 193.747186 
L 366.330875 193.747186 
L 366.574366 193.601943 
L 366.604802 193.674564 
L 366.665675 193.638254 
L 366.848293 193.529321 
L 366.970039 193.529321 
L 367.183093 193.420389 
L 367.487457 193.311457 
L 367.700511 193.129903 
L 367.730948 193.166214 
L 368.248366 193.057282 
L 368.430984 192.98466 
L 368.46142 193.020971 
L 368.522293 192.94835 
L 368.735348 192.839417 
L 368.88753 192.730485 
L 369.070148 192.657864 
L 369.709311 192.585242 
L 369.89193 192.403689 
L 370.074548 192.331067 
L 370.257166 192.149514 
L 370.287602 192.185824 
L 370.348475 192.113203 
L 370.652839 192.040581 
L 370.80502 191.895338 
L 371.23113 191.532231 
L 371.383311 191.423299 
L 371.778984 191.096502 
L 372.022475 190.98757 
L 372.174657 190.842327 
L 372.357275 190.733395 
L 372.722511 190.442909 
L 372.844257 190.333977 
L 373.057311 190.188734 
L 373.087748 190.225045 
L 373.14862 190.152423 
L 373.270366 190.079802 
L 373.392111 189.97087 
L 373.422548 190.00718 
L 373.452984 189.934559 
L 375.096548 187.828536 
L 375.644402 186.775525 
L 375.82702 186.412418 
L 378.566293 179.622311 
L 379.26633 177.516288 
L 379.479384 176.790073 
L 379.84462 175.555509 
L 380.088111 174.720361 
L 380.331602 173.739972 
L 381.001202 171.052977 
L 381.701239 168.148119 
L 382.918693 162.519955 
L 382.918693 162.519955 
" style="fill:none;stroke:#0000ff;stroke-linecap:square;stroke-width:1.5;"/>
   </g>
   <g id="line2d_26">
    <path clip-path="url(#pa7d8345119)" d="M 78.555057 155.416995 
L 82.329166 155.308063 
L 82.572657 155.289907 
L 82.785711 155.289907 
L 83.029202 155.271752 
L 87.32073 155.16282 
L 87.56422 155.144665 
L 87.716402 155.16282 
L 91.429639 155.053888 
L 91.642693 155.035732 
L 91.794875 155.053888 
L 92.068802 155.017577 
L 92.312293 155.035732 
L 97.060366 154.9268 
L 97.303857 154.908645 
L 99.190911 154.799712 
L 99.434402 154.781557 
L 99.70833 154.817868 
L 100.438802 154.908645 
L 100.651857 154.999422 
L 100.925784 155.108354 
L 101.930184 155.834568 
L 102.234548 156.17952 
L 102.417166 156.397385 
L 102.934584 157.105444 
L 103.238948 157.63195 
L 104.97382 162.025548 
L 106.830439 169.06983 
L 110.208875 182.722667 
L 110.66542 184.084318 
L 111.578511 186.480827 
L 112.76553 188.405296 
L 113.496002 188.713937 
L 113.800366 188.659471 
L 114.10473 188.550539 
L 114.896075 187.461217 
L 116.083093 184.374803 
L 117.422293 178.329067 
L 119.431093 165.711088 
L 120.192002 160.282633 
L 120.831166 155.362529 
L 125.640111 116.110626 
L 126.82713 109.011878 
L 127.861966 103.583421 
L 128.257639 101.695263 
L 129.688148 96.194189 
L 130.114257 95.268263 
L 131.17953 93.561661 
L 131.666511 93.162243 
L 132.51873 91.855057 
L 132.792657 91.691658 
L 133.218766 91.582729 
L 133.949239 91.237774 
L 134.131857 91.310396 
L 134.314475 91.419331 
L 134.892766 91.655345 
L 135.379748 91.491947 
L 135.684111 91.600882 
L 136.262402 92.127387 
L 136.840693 92.236317 
L 137.20593 92.563113 
L 138.606002 95.268263 
L 138.940802 96.61176 
L 139.579966 99.298757 
L 141.649639 109.701782 
L 142.958402 118.162183 
L 146.641202 147.573877 
L 147.554293 156.070588 
L 148.345639 163.423512 
L 149.410911 173.245565 
L 152.60673 200.859877 
L 154.585093 213.132908 
L 155.498184 216.999998 
L 156.350402 219.196798 
L 156.746075 219.886704 
L 157.20262 220.286117 
L 157.385239 220.395052 
L 157.87222 220.576603 
L 158.389639 220.159032 
L 159.028802 219.233111 
L 159.63753 218.343495 
L 160.094075 217.308642 
L 160.520184 216.164851 
L 161.068039 214.585335 
L 163.046402 205.925225 
L 163.594257 202.802505 
L 164.172548 199.116962 
L 165.755239 188.024033 
L 166.698766 181.070528 
L 168.34233 170.086532 
L 170.35113 161.027003 
L 170.716366 159.937681 
L 172.02513 157.795348 
L 172.299057 157.722727 
L 172.481675 157.795348 
L 172.786039 157.90428 
L 172.999093 158.013212 
L 173.181711 158.122145 
L 173.516511 158.448941 
L 173.820875 158.975447 
L 174.216548 159.810594 
L 174.855711 161.172246 
L 175.434002 163.241958 
L 176.742766 169.178763 
L 178.660257 181.288393 
L 179.786402 188.550539 
L 181.003857 195.140937 
L 183.31702 206.996391 
L 184.07793 209.320281 
L 184.32142 209.973874 
L 184.838839 210.954264 
L 185.295384 211.335524 
L 185.386693 211.317366 
L 185.41713 211.353676 
L 186.117166 210.809018 
L 186.543275 209.828629 
L 187.395493 206.960081 
L 188.521639 201.077742 
L 189.404293 195.159092 
L 190.43913 186.35374 
L 193.513202 152.185339 
L 195.430693 129.545597 
L 196.495966 118.144027 
L 198.352584 99.371381 
L 199.691784 86.390291 
L 200.330948 80.380865 
L 201.457093 70.667744 
L 202.644111 62.95171 
L 203.283275 59.792682 
L 204.805093 53.910341 
L 205.07902 53.42014 
L 205.383384 53.093343 
L 205.718184 53.202284 
L 206.113857 53.837719 
L 206.813893 55.290151 
L 208.640075 61.063552 
L 210.496693 70.449882 
L 211.988075 79.999602 
L 213.418584 90.239232 
L 216.157857 110.645861 
L 218.257966 127.294332 
L 219.079748 133.394534 
L 220.175457 141.0561 
L 225.045275 169.451094 
L 228.27153 184.320339 
L 229.51942 189.058889 
L 234.054439 202.911434 
L 234.450111 204.273083 
L 236.093675 209.756004 
L 237.88942 213.768343 
L 238.589457 214.803202 
L 239.593857 215.275238 
L 240.141711 215.384174 
L 240.476511 215.456789 
L 241.054802 215.565724 
L 241.32873 215.620188 
L 241.511348 215.638346 
L 243.550584 215.747281 
L 244.00713 216.146693 
L 244.128875 216.255628 
L 244.402802 216.527962 
L 245.041966 217.472041 
L 245.163711 217.67175 
L 245.559384 218.289032 
L 245.894184 218.815532 
L 246.228984 219.360196 
L 246.715966 220.249806 
L 246.837711 220.431363 
L 249.69873 225.76904 
L 250.155275 226.586032 
L 250.459639 227.094385 
L 251.129239 228.419724 
L 252.194511 230.108173 
L 252.742366 230.598368 
L 253.168475 230.743614 
L 253.472839 230.670989 
L 253.655457 230.652831 
L 253.990257 230.562057 
L 254.172875 230.489433 
L 254.29462 230.43497 
L 254.477239 230.326034 
L 255.238148 229.254868 
L 256.272984 226.513407 
L 257.246948 222.628165 
L 258.099166 218.05301 
L 259.31662 209.356592 
L 259.98622 203.329004 
L 260.99062 192.708118 
L 262.451566 173.953624 
L 264.977784 134.6291 
L 266.77353 103.928375 
L 269.02582 68.144145 
L 270.12153 53.401993 
L 271.278111 40.929254 
L 272.495566 31.016423 
L 273.073857 27.62137 
L 274.017384 23.60904 
L 274.443493 22.683113 
L 275.204402 22.356317 
L 275.660948 22.755735 
L 276.087057 23.736124 
L 276.969711 26.677297 
L 277.73062 30.798556 
L 278.887202 39.11372 
L 280.682948 56.179761 
L 284.487493 100.551474 
L 286.952839 130.053947 
L 291.21393 177.094503 
L 293.435784 197.246959 
L 294.348875 204.000756 
L 294.89673 207.504739 
L 295.56633 211.535236 
L 298.122984 224.661563 
L 298.670839 226.767588 
L 300.58833 232.177888 
L 300.984002 232.813323 
L 301.227493 233.140119 
L 301.623166 233.448763 
L 301.714475 233.466916 
L 301.897093 233.594003 
L 302.140584 233.702935 
L 302.353639 233.793712 
L 302.688439 233.721088 
L 303.023239 233.339828 
L 303.26673 232.904096 
L 304.362439 229.30934 
L 306.61473 216.636891 
L 308.562657 203.129301 
L 309.840984 194.06977 
L 316.354366 152.058252 
L 317.267457 147.75543 
L 318.363166 143.035035 
L 320.706766 136.390171 
L 321.619857 134.483859 
L 322.532948 133.067738 
L 322.746002 132.813564 
L 325.211348 129.708995 
L 326.063566 127.947925 
L 327.798439 124.643649 
L 328.498475 122.864423 
L 328.62022 122.592092 
L 329.655057 119.850632 
L 329.868111 119.26966 
L 330.415966 117.690143 
L 330.994257 116.038005 
L 332.242148 112.624796 
L 332.363893 112.352466 
L 332.911748 111.063435 
L 334.372693 107.831779 
L 336.016257 106.016243 
L 336.168439 105.90731 
L 337.629384 105.16294 
L 337.781566 105.144788 
L 337.964184 105.16294 
L 338.359857 105.271876 
L 338.542475 105.380802 
L 338.99902 105.780223 
L 339.75993 106.924011 
L 340.033857 107.377895 
L 340.703457 109.030031 
L 341.220875 110.536929 
L 343.320984 118.452669 
L 343.899275 121.303061 
L 345.725457 132.849875 
L 349.316948 159.35671 
L 353.608475 191.818505 
L 354.460693 197.573756 
L 355.678148 205.489496 
L 356.49993 210.173578 
L 357.199966 213.35077 
L 358.08262 216.600577 
L 358.41742 217.67175 
L 359.330511 220.086408 
L 359.939239 220.649227 
L 360.76102 220.55845 
L 362.43502 218.397962 
L 363.53073 215.511258 
L 364.44382 211.862032 
L 366.391748 202.039976 
L 366.909166 198.663078 
L 368.826657 184.175096 
L 370.987639 163.877396 
L 372.083348 153.256506 
L 373.422548 141.146877 
L 374.792184 129.091713 
L 378.079311 106.343039 
L 379.50982 99.244294 
L 381.27513 93.307489 
L 382.127348 91.546418 
L 382.918693 90.54787 
L 382.918693 90.54787 
" style="fill:none;stroke:#ff0000;stroke-linecap:square;stroke-width:1.5;"/>
   </g>
   <g id="line2d_27">
    <path clip-path="url(#pa7d8345119)" d="M 125.427057 163.899764 
" style="fill:none;stroke:#ffffff;stroke-linecap:square;stroke-width:1.5;"/>
    <defs>
     <path d="M 0 -5 
L -1.12257 -1.545085 
L -4.755283 -1.545085 
L -1.816356 0.59017 
L -2.938926 4.045085 
L -0 1.90983 
L 2.938926 4.045085 
L 1.816356 0.59017 
L 4.755283 -1.545085 
L 1.12257 -1.545085 
z
" id="m4efd906aa4" style="stroke:#ffffff;stroke-linejoin:bevel;"/>
    </defs>
    <g clip-path="url(#pa7d8345119)">
     <use style="fill:#0000ff;stroke:#ffffff;stroke-linejoin:bevel;" x="125.427057" xlink:href="#m4efd906aa4" y="163.899764"/>
    </g>
   </g>
   <g id="line2d_28">
    <path clip-path="url(#pa7d8345119)" d="M 104.97382 162.025548 
" style="fill:none;stroke:#ffffff;stroke-linecap:square;stroke-width:1.5;"/>
    <defs>
     <path d="M 0 -5 
L -1.12257 -1.545085 
L -4.755283 -1.545085 
L -1.816356 0.59017 
L -2.938926 4.045085 
L -0 1.90983 
L 2.938926 4.045085 
L 1.816356 0.59017 
L 4.755283 -1.545085 
L 1.12257 -1.545085 
z
" id="m80a2097d45" style="stroke:#ffffff;stroke-linejoin:bevel;"/>
    </defs>
    <g clip-path="url(#pa7d8345119)">
     <use style="fill:#ff0000;stroke:#ffffff;stroke-linejoin:bevel;" x="104.97382" xlink:href="#m80a2097d45" y="162.025548"/>
    </g>
   </g>
   <g id="patch_3">
    <path d="M 63.336875 339.84 
L 63.336875 7.2 
" style="fill:none;stroke:#000000;stroke-linecap:square;stroke-linejoin:miter;stroke-width:0.8;"/>
   </g>
   <g id="patch_4">
    <path d="M 398.136875 339.84 
L 398.136875 7.2 
" style="fill:none;stroke:#000000;stroke-linecap:square;stroke-linejoin:miter;stroke-width:0.8;"/>
   </g>
   <g id="patch_5">
    <path d="M 63.336875 339.84 
L 398.136875 339.84 
" style="fill:none;stroke:#000000;stroke-linecap:square;stroke-linejoin:miter;stroke-width:0.8;"/>
   </g>
   <g id="patch_6">
    <path d="M 63.336875 7.2 
L 398.136875 7.2 
" style="fill:none;stroke:#000000;stroke-linecap:square;stroke-linejoin:miter;stroke-width:0.8;"/>
   </g>
   <g id="text_15">
    <g id="patch_7">
     <path d="M 75.036875 331.242688 
L 166.79375 331.242688 
L 166.79375 293.760312 
L 75.036875 293.760312 
z
" style="fill:#ffffff;stroke:#000000;stroke-linejoin:miter;stroke-width:0.75;"/>
    </g>
    <!-- Auto_00103 -->
    <g transform="translate(80.076875 308.521563)scale(0.14 -0.14)">
     <defs>
      <path d="M 2928 1419 
L 1288 1419 
L 1000 750 
Q 894 503 894 381 
Q 894 284 986 211 
Q 1078 138 1384 116 
L 1384 0 
L 50 0 
L 50 116 
Q 316 163 394 238 
Q 553 388 747 847 
L 2238 4334 
L 2347 4334 
L 3822 809 
Q 4000 384 4145 257 
Q 4291 131 4550 116 
L 4550 0 
L 2878 0 
L 2878 116 
Q 3131 128 3220 200 
Q 3309 272 3309 375 
Q 3309 513 3184 809 
L 2928 1419 
z
M 2841 1650 
L 2122 3363 
L 1384 1650 
L 2841 1650 
z
" id="TimesNewRomanPSMT-41" transform="scale(0.015625)"/>
      <path d="M 2709 2863 
L 2709 1128 
Q 2709 631 2732 520 
Q 2756 409 2807 365 
Q 2859 322 2928 322 
Q 3025 322 3147 375 
L 3191 266 
L 2334 -88 
L 2194 -88 
L 2194 519 
Q 1825 119 1631 15 
Q 1438 -88 1222 -88 
Q 981 -88 804 51 
Q 628 191 559 409 
Q 491 628 491 1028 
L 491 2306 
Q 491 2509 447 2587 
Q 403 2666 317 2708 
Q 231 2750 6 2747 
L 6 2863 
L 1009 2863 
L 1009 947 
Q 1009 547 1148 422 
Q 1288 297 1484 297 
Q 1619 297 1789 381 
Q 1959 466 2194 703 
L 2194 2325 
Q 2194 2569 2105 2655 
Q 2016 2741 1734 2747 
L 1734 2863 
L 2709 2863 
z
" id="TimesNewRomanPSMT-75" transform="scale(0.015625)"/>
      <path d="M 3256 -1381 
L -53 -1381 
L -53 -1119 
L 3256 -1119 
L 3256 -1381 
z
" id="TimesNewRomanPSMT-5f" transform="scale(0.015625)"/>
     </defs>
     <use xlink:href="#TimesNewRomanPSMT-41"/>
     <use x="72.216797" xlink:href="#TimesNewRomanPSMT-75"/>
     <use x="122.216797" xlink:href="#TimesNewRomanPSMT-74"/>
     <use x="150" xlink:href="#TimesNewRomanPSMT-6f"/>
     <use x="200" xlink:href="#TimesNewRomanPSMT-5f"/>
     <use x="250" xlink:href="#TimesNewRomanPSMT-30"/>
     <use x="300" xlink:href="#TimesNewRomanPSMT-30"/>
     <use x="350" xlink:href="#TimesNewRomanPSMT-31"/>
     <use x="400" xlink:href="#TimesNewRomanPSMT-30"/>
     <use x="450" xlink:href="#TimesNewRomanPSMT-33"/>
    </g>
    <!-- Vs: 297.46m/s -->
    <g transform="translate(80.076875 323.208)scale(0.14 -0.14)">
     <defs>
      <path d="M 903 2950 
Q 1047 2950 1148 2848 
Q 1250 2747 1250 2603 
Q 1250 2459 1148 2357 
Q 1047 2256 903 2256 
Q 759 2256 657 2357 
Q 556 2459 556 2603 
Q 556 2747 657 2848 
Q 759 2950 903 2950 
z
M 897 609 
Q 1044 609 1145 506 
Q 1247 403 1247 259 
Q 1247 116 1144 14 
Q 1041 -88 897 -88 
Q 753 -88 651 14 
Q 550 116 550 259 
Q 550 403 651 506 
Q 753 609 897 609 
z
" id="TimesNewRomanPSMT-3a" transform="scale(0.015625)"/>
      <path d="M 338 -88 
L 338 28 
Q 744 34 1094 217 
Q 1444 400 1770 856 
Q 2097 1313 2225 1859 
Q 1734 1544 1338 1544 
Q 891 1544 572 1889 
Q 253 2234 253 2806 
Q 253 3363 572 3797 
Q 956 4325 1575 4325 
Q 2097 4325 2469 3894 
Q 2925 3359 2925 2575 
Q 2925 1869 2578 1258 
Q 2231 647 1613 244 
Q 1109 -88 516 -88 
L 338 -88 
z
M 2275 2091 
Q 2331 2497 2331 2741 
Q 2331 3044 2228 3395 
Q 2125 3747 1936 3934 
Q 1747 4122 1506 4122 
Q 1228 4122 1018 3872 
Q 809 3622 809 3128 
Q 809 2469 1088 2097 
Q 1291 1828 1588 1828 
Q 1731 1828 1928 1897 
Q 2125 1966 2275 2091 
z
" id="TimesNewRomanPSMT-39" transform="scale(0.015625)"/>
      <path d="M 644 4238 
L 2916 4238 
L 2916 4119 
L 1503 -88 
L 1153 -88 
L 2419 3728 
L 1253 3728 
Q 900 3728 750 3644 
Q 488 3500 328 3200 
L 238 3234 
L 644 4238 
z
" id="TimesNewRomanPSMT-37" transform="scale(0.015625)"/>
      <path d="M 1794 4444 
L 259 -88 
L 9 -88 
L 1544 4444 
L 1794 4444 
z
" id="TimesNewRomanPSMT-2f" transform="scale(0.015625)"/>
     </defs>
     <use xlink:href="#TimesNewRomanPSMT-56"/>
     <use x="72.216797" xlink:href="#TimesNewRomanPSMT-73"/>
     <use x="111.132812" xlink:href="#TimesNewRomanPSMT-3a"/>
     <use x="138.916016" xlink:href="#TimesNewRomanPSMT-20"/>
     <use x="163.916016" xlink:href="#TimesNewRomanPSMT-32"/>
     <use x="213.916016" xlink:href="#TimesNewRomanPSMT-39"/>
     <use x="263.916016" xlink:href="#TimesNewRomanPSMT-37"/>
     <use x="313.916016" xlink:href="#TimesNewRomanPSMT-2e"/>
     <use x="338.916016" xlink:href="#TimesNewRomanPSMT-34"/>
     <use x="388.916016" xlink:href="#TimesNewRomanPSMT-36"/>
     <use x="438.916016" xlink:href="#TimesNewRomanPSMT-6d"/>
     <use x="516.699219" xlink:href="#TimesNewRomanPSMT-2f"/>
     <use x="544.482422" xlink:href="#TimesNewRomanPSMT-73"/>
    </g>
   </g>
  </g>
 </g>
 <defs>
  <clipPath id="pa7d8345119">
   <rect height="332.64" width="334.8" x="63.336875" y="7.2"/>
  </clipPath>
 </defs>
</svg>
