<?xml version="1.0" encoding="utf-8" standalone="no"?>
<!DOCTYPE svg PUBLIC "-//W3C//DTD SVG 1.1//EN"
  "http://www.w3.org/Graphics/SVG/1.1/DTD/svg11.dtd">
<svg height="383.471875pt" version="1.1" viewBox="0 0 421.086875 383.471875" width="421.086875pt" xmlns="http://www.w3.org/2000/svg" xmlns:xlink="http://www.w3.org/1999/xlink">
 <metadata>
  <rdf:RDF xmlns:cc="http://creativecommons.org/ns#" xmlns:dc="http://purl.org/dc/elements/1.1/" xmlns:rdf="http://www.w3.org/1999/02/22-rdf-syntax-ns#">
   <cc:Work>
    <dc:type rdf:resource="http://purl.org/dc/dcmitype/StillImage"/>
    <dc:date>2021-06-11T14:39:37.783519</dc:date>
    <dc:format>image/svg+xml</dc:format>
    <dc:creator>
     <cc:Agent>
      <dc:title>Matplotlib v3.4.2, https://matplotlib.org/</dc:title>
     </cc:Agent>
    </dc:creator>
   </cc:Work>
  </rdf:RDF>
 </metadata>
 <defs>
  <style type="text/css">*{stroke-linecap:butt;stroke-linejoin:round;}</style>
 </defs>
 <g id="figure_1">
  <g id="patch_1">
   <path d="M 0 383.471875 
L 421.086875 383.471875 
L 421.086875 0 
L 0 0 
z
" style="fill:#ffffff;"/>
  </g>
  <g id="axes_1">
   <g id="patch_2">
    <path d="M 63.336875 339.84 
L 398.136875 339.84 
L 398.136875 7.2 
L 63.336875 7.2 
z
" style="fill:#ffffff;"/>
   </g>
   <g id="matplotlib.axis_1">
    <g id="xtick_1">
     <g id="line2d_1">
      <path clip-path="url(#p514640973a)" d="M 93.773239 339.84 
L 93.773239 7.2 
" style="fill:none;stroke:#000000;stroke-dasharray:0.5,0.825;stroke-dashoffset:0;stroke-width:0.5;"/>
     </g>
     <g id="line2d_2">
      <defs>
       <path d="M 0 0 
L 0 3.5 
" id="m65019b507d" style="stroke:#000000;stroke-width:0.8;"/>
      </defs>
      <g>
       <use style="stroke:#000000;stroke-width:0.8;" x="93.773239" xlink:href="#m65019b507d" y="339.84"/>
      </g>
     </g>
     <g id="text_1">
      <!-- 0.000 -->
      <g transform="translate(78.023239 356.56125)scale(0.14 -0.14)">
       <defs>
        <path d="M 231 2094 
Q 231 2819 450 3342 
Q 669 3866 1031 4122 
Q 1313 4325 1613 4325 
Q 2100 4325 2488 3828 
Q 2972 3213 2972 2159 
Q 2972 1422 2759 906 
Q 2547 391 2217 158 
Q 1888 -75 1581 -75 
Q 975 -75 572 641 
Q 231 1244 231 2094 
z
M 844 2016 
Q 844 1141 1059 588 
Q 1238 122 1591 122 
Q 1759 122 1940 273 
Q 2122 425 2216 781 
Q 2359 1319 2359 2297 
Q 2359 3022 2209 3506 
Q 2097 3866 1919 4016 
Q 1791 4119 1609 4119 
Q 1397 4119 1231 3928 
Q 1006 3669 925 3112 
Q 844 2556 844 2016 
z
" id="TimesNewRomanPSMT-30" transform="scale(0.015625)"/>
        <path d="M 800 606 
Q 947 606 1047 504 
Q 1147 403 1147 259 
Q 1147 116 1045 14 
Q 944 -88 800 -88 
Q 656 -88 554 14 
Q 453 116 453 259 
Q 453 406 554 506 
Q 656 606 800 606 
z
" id="TimesNewRomanPSMT-2e" transform="scale(0.015625)"/>
       </defs>
       <use xlink:href="#TimesNewRomanPSMT-30"/>
       <use x="50" xlink:href="#TimesNewRomanPSMT-2e"/>
       <use x="75" xlink:href="#TimesNewRomanPSMT-30"/>
       <use x="125" xlink:href="#TimesNewRomanPSMT-30"/>
       <use x="175" xlink:href="#TimesNewRomanPSMT-30"/>
      </g>
     </g>
    </g>
    <g id="xtick_2">
     <g id="line2d_3">
      <path clip-path="url(#p514640973a)" d="M 154.645966 339.84 
L 154.645966 7.2 
" style="fill:none;stroke:#000000;stroke-dasharray:0.5,0.825;stroke-dashoffset:0;stroke-width:0.5;"/>
     </g>
     <g id="line2d_4">
      <g>
       <use style="stroke:#000000;stroke-width:0.8;" x="154.645966" xlink:href="#m65019b507d" y="339.84"/>
      </g>
     </g>
     <g id="text_2">
      <!-- 0.001 -->
      <g transform="translate(138.895966 356.56125)scale(0.14 -0.14)">
       <defs>
        <path d="M 750 3822 
L 1781 4325 
L 1884 4325 
L 1884 747 
Q 1884 391 1914 303 
Q 1944 216 2037 169 
Q 2131 122 2419 116 
L 2419 0 
L 825 0 
L 825 116 
Q 1125 122 1212 167 
Q 1300 213 1334 289 
Q 1369 366 1369 747 
L 1369 3034 
Q 1369 3497 1338 3628 
Q 1316 3728 1258 3775 
Q 1200 3822 1119 3822 
Q 1003 3822 797 3725 
L 750 3822 
z
" id="TimesNewRomanPSMT-31" transform="scale(0.015625)"/>
       </defs>
       <use xlink:href="#TimesNewRomanPSMT-30"/>
       <use x="50" xlink:href="#TimesNewRomanPSMT-2e"/>
       <use x="75" xlink:href="#TimesNewRomanPSMT-30"/>
       <use x="125" xlink:href="#TimesNewRomanPSMT-30"/>
       <use x="175" xlink:href="#TimesNewRomanPSMT-31"/>
      </g>
     </g>
    </g>
    <g id="xtick_3">
     <g id="line2d_5">
      <path clip-path="url(#p514640973a)" d="M 215.518693 339.84 
L 215.518693 7.2 
" style="fill:none;stroke:#000000;stroke-dasharray:0.5,0.825;stroke-dashoffset:0;stroke-width:0.5;"/>
     </g>
     <g id="line2d_6">
      <g>
       <use style="stroke:#000000;stroke-width:0.8;" x="215.518693" xlink:href="#m65019b507d" y="339.84"/>
      </g>
     </g>
     <g id="text_3">
      <!-- 0.002 -->
      <g transform="translate(199.768693 356.56125)scale(0.14 -0.14)">
       <defs>
        <path d="M 2934 816 
L 2638 0 
L 138 0 
L 138 116 
Q 1241 1122 1691 1759 
Q 2141 2397 2141 2925 
Q 2141 3328 1894 3587 
Q 1647 3847 1303 3847 
Q 991 3847 742 3664 
Q 494 3481 375 3128 
L 259 3128 
Q 338 3706 661 4015 
Q 984 4325 1469 4325 
Q 1984 4325 2329 3994 
Q 2675 3663 2675 3213 
Q 2675 2891 2525 2569 
Q 2294 2063 1775 1497 
Q 997 647 803 472 
L 1909 472 
Q 2247 472 2383 497 
Q 2519 522 2628 598 
Q 2738 675 2819 816 
L 2934 816 
z
" id="TimesNewRomanPSMT-32" transform="scale(0.015625)"/>
       </defs>
       <use xlink:href="#TimesNewRomanPSMT-30"/>
       <use x="50" xlink:href="#TimesNewRomanPSMT-2e"/>
       <use x="75" xlink:href="#TimesNewRomanPSMT-30"/>
       <use x="125" xlink:href="#TimesNewRomanPSMT-30"/>
       <use x="175" xlink:href="#TimesNewRomanPSMT-32"/>
      </g>
     </g>
    </g>
    <g id="xtick_4">
     <g id="line2d_7">
      <path clip-path="url(#p514640973a)" d="M 276.39142 339.84 
L 276.39142 7.2 
" style="fill:none;stroke:#000000;stroke-dasharray:0.5,0.825;stroke-dashoffset:0;stroke-width:0.5;"/>
     </g>
     <g id="line2d_8">
      <g>
       <use style="stroke:#000000;stroke-width:0.8;" x="276.39142" xlink:href="#m65019b507d" y="339.84"/>
      </g>
     </g>
     <g id="text_4">
      <!-- 0.003 -->
      <g transform="translate(260.64142 356.56125)scale(0.14 -0.14)">
       <defs>
        <path d="M 325 3431 
Q 506 3859 782 4092 
Q 1059 4325 1472 4325 
Q 1981 4325 2253 3994 
Q 2459 3747 2459 3466 
Q 2459 3003 1878 2509 
Q 2269 2356 2469 2072 
Q 2669 1788 2669 1403 
Q 2669 853 2319 450 
Q 1863 -75 997 -75 
Q 569 -75 414 31 
Q 259 138 259 259 
Q 259 350 332 419 
Q 406 488 509 488 
Q 588 488 669 463 
Q 722 447 909 348 
Q 1097 250 1169 231 
Q 1284 197 1416 197 
Q 1734 197 1970 444 
Q 2206 691 2206 1028 
Q 2206 1275 2097 1509 
Q 2016 1684 1919 1775 
Q 1784 1900 1550 2001 
Q 1316 2103 1072 2103 
L 972 2103 
L 972 2197 
Q 1219 2228 1467 2375 
Q 1716 2522 1828 2728 
Q 1941 2934 1941 3181 
Q 1941 3503 1739 3701 
Q 1538 3900 1238 3900 
Q 753 3900 428 3381 
L 325 3431 
z
" id="TimesNewRomanPSMT-33" transform="scale(0.015625)"/>
       </defs>
       <use xlink:href="#TimesNewRomanPSMT-30"/>
       <use x="50" xlink:href="#TimesNewRomanPSMT-2e"/>
       <use x="75" xlink:href="#TimesNewRomanPSMT-30"/>
       <use x="125" xlink:href="#TimesNewRomanPSMT-30"/>
       <use x="175" xlink:href="#TimesNewRomanPSMT-33"/>
      </g>
     </g>
    </g>
    <g id="xtick_5">
     <g id="line2d_9">
      <path clip-path="url(#p514640973a)" d="M 337.264148 339.84 
L 337.264148 7.2 
" style="fill:none;stroke:#000000;stroke-dasharray:0.5,0.825;stroke-dashoffset:0;stroke-width:0.5;"/>
     </g>
     <g id="line2d_10">
      <g>
       <use style="stroke:#000000;stroke-width:0.8;" x="337.264148" xlink:href="#m65019b507d" y="339.84"/>
      </g>
     </g>
     <g id="text_5">
      <!-- 0.004 -->
      <g transform="translate(321.514148 356.56125)scale(0.14 -0.14)">
       <defs>
        <path d="M 2978 1563 
L 2978 1119 
L 2409 1119 
L 2409 0 
L 1894 0 
L 1894 1119 
L 100 1119 
L 100 1519 
L 2066 4325 
L 2409 4325 
L 2409 1563 
L 2978 1563 
z
M 1894 1563 
L 1894 3666 
L 406 1563 
L 1894 1563 
z
" id="TimesNewRomanPSMT-34" transform="scale(0.015625)"/>
       </defs>
       <use xlink:href="#TimesNewRomanPSMT-30"/>
       <use x="50" xlink:href="#TimesNewRomanPSMT-2e"/>
       <use x="75" xlink:href="#TimesNewRomanPSMT-30"/>
       <use x="125" xlink:href="#TimesNewRomanPSMT-30"/>
       <use x="175" xlink:href="#TimesNewRomanPSMT-34"/>
      </g>
     </g>
    </g>
    <g id="xtick_6">
     <g id="line2d_11">
      <path clip-path="url(#p514640973a)" d="M 398.136875 339.84 
L 398.136875 7.2 
" style="fill:none;stroke:#000000;stroke-dasharray:0.5,0.825;stroke-dashoffset:0;stroke-width:0.5;"/>
     </g>
     <g id="line2d_12">
      <g>
       <use style="stroke:#000000;stroke-width:0.8;" x="398.136875" xlink:href="#m65019b507d" y="339.84"/>
      </g>
     </g>
     <g id="text_6">
      <!-- 0.005 -->
      <g transform="translate(382.386875 356.56125)scale(0.14 -0.14)">
       <defs>
        <path d="M 2778 4238 
L 2534 3706 
L 1259 3706 
L 981 3138 
Q 1809 3016 2294 2522 
Q 2709 2097 2709 1522 
Q 2709 1188 2573 903 
Q 2438 619 2231 419 
Q 2025 219 1772 97 
Q 1413 -75 1034 -75 
Q 653 -75 479 54 
Q 306 184 306 341 
Q 306 428 378 495 
Q 450 563 559 563 
Q 641 563 702 538 
Q 763 513 909 409 
Q 1144 247 1384 247 
Q 1750 247 2026 523 
Q 2303 800 2303 1197 
Q 2303 1581 2056 1914 
Q 1809 2247 1375 2428 
Q 1034 2569 447 2591 
L 1259 4238 
L 2778 4238 
z
" id="TimesNewRomanPSMT-35" transform="scale(0.015625)"/>
       </defs>
       <use xlink:href="#TimesNewRomanPSMT-30"/>
       <use x="50" xlink:href="#TimesNewRomanPSMT-2e"/>
       <use x="75" xlink:href="#TimesNewRomanPSMT-30"/>
       <use x="125" xlink:href="#TimesNewRomanPSMT-30"/>
       <use x="175" xlink:href="#TimesNewRomanPSMT-35"/>
      </g>
     </g>
    </g>
    <g id="text_7">
     <!-- Time (sec) -->
     <g transform="translate(200.858906 373.277188)scale(0.14 -0.14)">
      <defs>
       <path d="M 3703 4238 
L 3750 3244 
L 3631 3244 
Q 3597 3506 3538 3619 
Q 3441 3800 3280 3886 
Q 3119 3972 2856 3972 
L 2259 3972 
L 2259 734 
Q 2259 344 2344 247 
Q 2463 116 2709 116 
L 2856 116 
L 2856 0 
L 1059 0 
L 1059 116 
L 1209 116 
Q 1478 116 1591 278 
Q 1659 378 1659 734 
L 1659 3972 
L 1150 3972 
Q 853 3972 728 3928 
Q 566 3869 450 3700 
Q 334 3531 313 3244 
L 194 3244 
L 244 4238 
L 3703 4238 
z
" id="TimesNewRomanPSMT-54" transform="scale(0.015625)"/>
       <path d="M 928 4444 
Q 1059 4444 1151 4351 
Q 1244 4259 1244 4128 
Q 1244 3997 1151 3903 
Q 1059 3809 928 3809 
Q 797 3809 703 3903 
Q 609 3997 609 4128 
Q 609 4259 701 4351 
Q 794 4444 928 4444 
z
M 1188 2947 
L 1188 647 
Q 1188 378 1227 289 
Q 1266 200 1342 156 
Q 1419 113 1622 113 
L 1622 0 
L 231 0 
L 231 113 
Q 441 113 512 153 
Q 584 194 626 287 
Q 669 381 669 647 
L 669 1750 
Q 669 2216 641 2353 
Q 619 2453 572 2492 
Q 525 2531 444 2531 
Q 356 2531 231 2484 
L 188 2597 
L 1050 2947 
L 1188 2947 
z
" id="TimesNewRomanPSMT-69" transform="scale(0.015625)"/>
       <path d="M 1050 2338 
Q 1363 2650 1419 2697 
Q 1559 2816 1721 2881 
Q 1884 2947 2044 2947 
Q 2313 2947 2506 2790 
Q 2700 2634 2766 2338 
Q 3088 2713 3309 2830 
Q 3531 2947 3766 2947 
Q 3994 2947 4170 2830 
Q 4347 2713 4450 2447 
Q 4519 2266 4519 1878 
L 4519 647 
Q 4519 378 4559 278 
Q 4591 209 4675 161 
Q 4759 113 4950 113 
L 4950 0 
L 3538 0 
L 3538 113 
L 3597 113 
Q 3781 113 3884 184 
Q 3956 234 3988 344 
Q 4000 397 4000 647 
L 4000 1878 
Q 4000 2228 3916 2372 
Q 3794 2572 3525 2572 
Q 3359 2572 3192 2489 
Q 3025 2406 2788 2181 
L 2781 2147 
L 2788 2013 
L 2788 647 
Q 2788 353 2820 281 
Q 2853 209 2943 161 
Q 3034 113 3253 113 
L 3253 0 
L 1806 0 
L 1806 113 
Q 2044 113 2133 169 
Q 2222 225 2256 338 
Q 2272 391 2272 647 
L 2272 1878 
Q 2272 2228 2169 2381 
Q 2031 2581 1784 2581 
Q 1616 2581 1450 2491 
Q 1191 2353 1050 2181 
L 1050 647 
Q 1050 366 1089 281 
Q 1128 197 1204 155 
Q 1281 113 1516 113 
L 1516 0 
L 100 0 
L 100 113 
Q 297 113 375 155 
Q 453 197 493 289 
Q 534 381 534 647 
L 534 1741 
Q 534 2213 506 2350 
Q 484 2453 437 2492 
Q 391 2531 309 2531 
Q 222 2531 100 2484 
L 53 2597 
L 916 2947 
L 1050 2947 
L 1050 2338 
z
" id="TimesNewRomanPSMT-6d" transform="scale(0.015625)"/>
       <path d="M 681 1784 
Q 678 1147 991 784 
Q 1303 422 1725 422 
Q 2006 422 2214 576 
Q 2422 731 2563 1106 
L 2659 1044 
Q 2594 616 2278 264 
Q 1963 -88 1488 -88 
Q 972 -88 605 314 
Q 238 716 238 1394 
Q 238 2128 614 2539 
Q 991 2950 1559 2950 
Q 2041 2950 2350 2633 
Q 2659 2316 2659 1784 
L 681 1784 
z
M 681 1966 
L 2006 1966 
Q 1991 2241 1941 2353 
Q 1863 2528 1708 2628 
Q 1553 2728 1384 2728 
Q 1125 2728 920 2526 
Q 716 2325 681 1966 
z
" id="TimesNewRomanPSMT-65" transform="scale(0.015625)"/>
       <path id="TimesNewRomanPSMT-20" transform="scale(0.015625)"/>
       <path d="M 1988 -1253 
L 1988 -1369 
Q 1516 -1131 1200 -813 
Q 750 -359 506 256 
Q 263 872 263 1534 
Q 263 2503 741 3301 
Q 1219 4100 1988 4444 
L 1988 4313 
Q 1603 4100 1356 3731 
Q 1109 3363 987 2797 
Q 866 2231 866 1616 
Q 866 947 969 400 
Q 1050 -31 1165 -292 
Q 1281 -553 1476 -793 
Q 1672 -1034 1988 -1253 
z
" id="TimesNewRomanPSMT-28" transform="scale(0.015625)"/>
       <path d="M 2050 2947 
L 2050 1972 
L 1947 1972 
Q 1828 2431 1642 2597 
Q 1456 2763 1169 2763 
Q 950 2763 815 2647 
Q 681 2531 681 2391 
Q 681 2216 781 2091 
Q 878 1963 1175 1819 
L 1631 1597 
Q 2266 1288 2266 781 
Q 2266 391 1970 151 
Q 1675 -88 1309 -88 
Q 1047 -88 709 6 
Q 606 38 541 38 
Q 469 38 428 -44 
L 325 -44 
L 325 978 
L 428 978 
Q 516 541 762 319 
Q 1009 97 1316 97 
Q 1531 97 1667 223 
Q 1803 350 1803 528 
Q 1803 744 1651 891 
Q 1500 1038 1047 1263 
Q 594 1488 453 1669 
Q 313 1847 313 2119 
Q 313 2472 555 2709 
Q 797 2947 1181 2947 
Q 1350 2947 1591 2875 
Q 1750 2828 1803 2828 
Q 1853 2828 1881 2850 
Q 1909 2872 1947 2947 
L 2050 2947 
z
" id="TimesNewRomanPSMT-73" transform="scale(0.015625)"/>
       <path d="M 2631 1088 
Q 2516 522 2178 217 
Q 1841 -88 1431 -88 
Q 944 -88 581 321 
Q 219 731 219 1428 
Q 219 2103 620 2525 
Q 1022 2947 1584 2947 
Q 2006 2947 2278 2723 
Q 2550 2500 2550 2259 
Q 2550 2141 2473 2067 
Q 2397 1994 2259 1994 
Q 2075 1994 1981 2113 
Q 1928 2178 1911 2362 
Q 1894 2547 1784 2644 
Q 1675 2738 1481 2738 
Q 1169 2738 978 2506 
Q 725 2200 725 1697 
Q 725 1184 976 792 
Q 1228 400 1656 400 
Q 1963 400 2206 609 
Q 2378 753 2541 1131 
L 2631 1088 
z
" id="TimesNewRomanPSMT-63" transform="scale(0.015625)"/>
       <path d="M 144 4313 
L 144 4444 
Q 619 4209 934 3891 
Q 1381 3434 1625 2820 
Q 1869 2206 1869 1541 
Q 1869 572 1392 -226 
Q 916 -1025 144 -1369 
L 144 -1253 
Q 528 -1038 776 -670 
Q 1025 -303 1145 264 
Q 1266 831 1266 1447 
Q 1266 2113 1163 2663 
Q 1084 3094 967 3353 
Q 850 3613 656 3853 
Q 463 4094 144 4313 
z
" id="TimesNewRomanPSMT-29" transform="scale(0.015625)"/>
      </defs>
      <use xlink:href="#TimesNewRomanPSMT-54"/>
      <use x="57.583984" xlink:href="#TimesNewRomanPSMT-69"/>
      <use x="85.367188" xlink:href="#TimesNewRomanPSMT-6d"/>
      <use x="163.150391" xlink:href="#TimesNewRomanPSMT-65"/>
      <use x="207.535156" xlink:href="#TimesNewRomanPSMT-20"/>
      <use x="232.535156" xlink:href="#TimesNewRomanPSMT-28"/>
      <use x="265.835938" xlink:href="#TimesNewRomanPSMT-73"/>
      <use x="304.751953" xlink:href="#TimesNewRomanPSMT-65"/>
      <use x="349.136719" xlink:href="#TimesNewRomanPSMT-63"/>
      <use x="393.521484" xlink:href="#TimesNewRomanPSMT-29"/>
     </g>
    </g>
   </g>
   <g id="matplotlib.axis_2">
    <g id="ytick_1">
     <g id="line2d_13">
      <path clip-path="url(#p514640973a)" d="M 63.336875 323.242718 
L 398.136875 323.242718 
" style="fill:none;stroke:#000000;stroke-dasharray:0.5,0.825;stroke-dashoffset:0;stroke-width:0.5;"/>
     </g>
     <g id="line2d_14">
      <defs>
       <path d="M 0 0 
L -3.5 0 
" id="m0c09c4a6c0" style="stroke:#000000;stroke-width:0.8;"/>
      </defs>
      <g>
       <use style="stroke:#000000;stroke-width:0.8;" x="63.336875" xlink:href="#m0c09c4a6c0" y="323.242718"/>
      </g>
     </g>
     <g id="text_8">
      <!-- −0.06 -->
      <g transform="translate(23.942188 328.103343)scale(0.14 -0.14)">
       <defs>
        <path d="M 3484 2000 
L 116 2000 
L 116 2256 
L 3484 2256 
L 3484 2000 
z
" id="TimesNewRomanPSMT-2212" transform="scale(0.015625)"/>
        <path d="M 2869 4325 
L 2869 4209 
Q 2456 4169 2195 4045 
Q 1934 3922 1679 3669 
Q 1425 3416 1258 3105 
Q 1091 2794 978 2366 
Q 1428 2675 1881 2675 
Q 2316 2675 2634 2325 
Q 2953 1975 2953 1425 
Q 2953 894 2631 456 
Q 2244 -75 1606 -75 
Q 1172 -75 869 213 
Q 275 772 275 1663 
Q 275 2231 503 2743 
Q 731 3256 1154 3653 
Q 1578 4050 1965 4187 
Q 2353 4325 2688 4325 
L 2869 4325 
z
M 925 2138 
Q 869 1716 869 1456 
Q 869 1156 980 804 
Q 1091 453 1309 247 
Q 1469 100 1697 100 
Q 1969 100 2183 356 
Q 2397 613 2397 1088 
Q 2397 1622 2184 2012 
Q 1972 2403 1581 2403 
Q 1463 2403 1327 2353 
Q 1191 2303 925 2138 
z
" id="TimesNewRomanPSMT-36" transform="scale(0.015625)"/>
       </defs>
       <use xlink:href="#TimesNewRomanPSMT-2212"/>
       <use x="56.396484" xlink:href="#TimesNewRomanPSMT-30"/>
       <use x="106.396484" xlink:href="#TimesNewRomanPSMT-2e"/>
       <use x="131.396484" xlink:href="#TimesNewRomanPSMT-30"/>
       <use x="181.396484" xlink:href="#TimesNewRomanPSMT-36"/>
      </g>
     </g>
    </g>
    <g id="ytick_2">
     <g id="line2d_15">
      <path clip-path="url(#p514640973a)" d="M 63.336875 268.406626 
L 398.136875 268.406626 
" style="fill:none;stroke:#000000;stroke-dasharray:0.5,0.825;stroke-dashoffset:0;stroke-width:0.5;"/>
     </g>
     <g id="line2d_16">
      <g>
       <use style="stroke:#000000;stroke-width:0.8;" x="63.336875" xlink:href="#m0c09c4a6c0" y="268.406626"/>
      </g>
     </g>
     <g id="text_9">
      <!-- −0.04 -->
      <g transform="translate(23.942188 273.267251)scale(0.14 -0.14)">
       <use xlink:href="#TimesNewRomanPSMT-2212"/>
       <use x="56.396484" xlink:href="#TimesNewRomanPSMT-30"/>
       <use x="106.396484" xlink:href="#TimesNewRomanPSMT-2e"/>
       <use x="131.396484" xlink:href="#TimesNewRomanPSMT-30"/>
       <use x="181.396484" xlink:href="#TimesNewRomanPSMT-34"/>
      </g>
     </g>
    </g>
    <g id="ytick_3">
     <g id="line2d_17">
      <path clip-path="url(#p514640973a)" d="M 63.336875 213.570534 
L 398.136875 213.570534 
" style="fill:none;stroke:#000000;stroke-dasharray:0.5,0.825;stroke-dashoffset:0;stroke-width:0.5;"/>
     </g>
     <g id="line2d_18">
      <g>
       <use style="stroke:#000000;stroke-width:0.8;" x="63.336875" xlink:href="#m0c09c4a6c0" y="213.570534"/>
      </g>
     </g>
     <g id="text_10">
      <!-- −0.02 -->
      <g transform="translate(23.942188 218.431159)scale(0.14 -0.14)">
       <use xlink:href="#TimesNewRomanPSMT-2212"/>
       <use x="56.396484" xlink:href="#TimesNewRomanPSMT-30"/>
       <use x="106.396484" xlink:href="#TimesNewRomanPSMT-2e"/>
       <use x="131.396484" xlink:href="#TimesNewRomanPSMT-30"/>
       <use x="181.396484" xlink:href="#TimesNewRomanPSMT-32"/>
      </g>
     </g>
    </g>
    <g id="ytick_4">
     <g id="line2d_19">
      <path clip-path="url(#p514640973a)" d="M 63.336875 158.734442 
L 398.136875 158.734442 
" style="fill:none;stroke:#000000;stroke-dasharray:0.5,0.825;stroke-dashoffset:0;stroke-width:0.5;"/>
     </g>
     <g id="line2d_20">
      <g>
       <use style="stroke:#000000;stroke-width:0.8;" x="63.336875" xlink:href="#m0c09c4a6c0" y="158.734442"/>
      </g>
     </g>
     <g id="text_11">
      <!-- 0.00 -->
      <g transform="translate(31.836875 163.595067)scale(0.14 -0.14)">
       <use xlink:href="#TimesNewRomanPSMT-30"/>
       <use x="50" xlink:href="#TimesNewRomanPSMT-2e"/>
       <use x="75" xlink:href="#TimesNewRomanPSMT-30"/>
       <use x="125" xlink:href="#TimesNewRomanPSMT-30"/>
      </g>
     </g>
    </g>
    <g id="ytick_5">
     <g id="line2d_21">
      <path clip-path="url(#p514640973a)" d="M 63.336875 103.898349 
L 398.136875 103.898349 
" style="fill:none;stroke:#000000;stroke-dasharray:0.5,0.825;stroke-dashoffset:0;stroke-width:0.5;"/>
     </g>
     <g id="line2d_22">
      <g>
       <use style="stroke:#000000;stroke-width:0.8;" x="63.336875" xlink:href="#m0c09c4a6c0" y="103.898349"/>
      </g>
     </g>
     <g id="text_12">
      <!-- 0.02 -->
      <g transform="translate(31.836875 108.758974)scale(0.14 -0.14)">
       <use xlink:href="#TimesNewRomanPSMT-30"/>
       <use x="50" xlink:href="#TimesNewRomanPSMT-2e"/>
       <use x="75" xlink:href="#TimesNewRomanPSMT-30"/>
       <use x="125" xlink:href="#TimesNewRomanPSMT-32"/>
      </g>
     </g>
    </g>
    <g id="ytick_6">
     <g id="line2d_23">
      <path clip-path="url(#p514640973a)" d="M 63.336875 49.062257 
L 398.136875 49.062257 
" style="fill:none;stroke:#000000;stroke-dasharray:0.5,0.825;stroke-dashoffset:0;stroke-width:0.5;"/>
     </g>
     <g id="line2d_24">
      <g>
       <use style="stroke:#000000;stroke-width:0.8;" x="63.336875" xlink:href="#m0c09c4a6c0" y="49.062257"/>
      </g>
     </g>
     <g id="text_13">
      <!-- 0.04 -->
      <g transform="translate(31.836875 53.922882)scale(0.14 -0.14)">
       <use xlink:href="#TimesNewRomanPSMT-30"/>
       <use x="50" xlink:href="#TimesNewRomanPSMT-2e"/>
       <use x="75" xlink:href="#TimesNewRomanPSMT-30"/>
       <use x="125" xlink:href="#TimesNewRomanPSMT-34"/>
      </g>
     </g>
    </g>
    <g id="text_14">
     <!-- Volatage (V) -->
     <g transform="translate(16.92125 209.352344)rotate(-90)scale(0.14 -0.14)">
      <defs>
       <path d="M 4544 4238 
L 4544 4122 
Q 4319 4081 4203 3978 
Q 4038 3825 3909 3509 
L 2431 -97 
L 2316 -97 
L 728 3556 
Q 606 3838 556 3900 
Q 478 3997 364 4051 
Q 250 4106 56 4122 
L 56 4238 
L 1788 4238 
L 1788 4122 
Q 1494 4094 1406 4022 
Q 1319 3950 1319 3838 
Q 1319 3681 1463 3350 
L 2541 866 
L 3541 3319 
Q 3688 3681 3688 3822 
Q 3688 3913 3597 3995 
Q 3506 4078 3291 4113 
Q 3275 4116 3238 4122 
L 3238 4238 
L 4544 4238 
z
" id="TimesNewRomanPSMT-56" transform="scale(0.015625)"/>
       <path d="M 1600 2947 
Q 2250 2947 2644 2453 
Q 2978 2031 2978 1484 
Q 2978 1100 2793 706 
Q 2609 313 2286 112 
Q 1963 -88 1566 -88 
Q 919 -88 538 428 
Q 216 863 216 1403 
Q 216 1797 411 2186 
Q 606 2575 925 2761 
Q 1244 2947 1600 2947 
z
M 1503 2744 
Q 1338 2744 1170 2645 
Q 1003 2547 900 2300 
Q 797 2053 797 1666 
Q 797 1041 1045 587 
Q 1294 134 1700 134 
Q 2003 134 2200 384 
Q 2397 634 2397 1244 
Q 2397 2006 2069 2444 
Q 1847 2744 1503 2744 
z
" id="TimesNewRomanPSMT-6f" transform="scale(0.015625)"/>
       <path d="M 1184 4444 
L 1184 647 
Q 1184 378 1223 290 
Q 1263 203 1344 158 
Q 1425 113 1647 113 
L 1647 0 
L 244 0 
L 244 113 
Q 441 113 512 153 
Q 584 194 625 287 
Q 666 381 666 647 
L 666 3247 
Q 666 3731 644 3842 
Q 622 3953 573 3993 
Q 525 4034 450 4034 
Q 369 4034 244 3984 
L 191 4094 
L 1044 4444 
L 1184 4444 
z
" id="TimesNewRomanPSMT-6c" transform="scale(0.015625)"/>
       <path d="M 1822 413 
Q 1381 72 1269 19 
Q 1100 -59 909 -59 
Q 613 -59 420 144 
Q 228 347 228 678 
Q 228 888 322 1041 
Q 450 1253 767 1440 
Q 1084 1628 1822 1897 
L 1822 2009 
Q 1822 2438 1686 2597 
Q 1550 2756 1291 2756 
Q 1094 2756 978 2650 
Q 859 2544 859 2406 
L 866 2225 
Q 866 2081 792 2003 
Q 719 1925 600 1925 
Q 484 1925 411 2006 
Q 338 2088 338 2228 
Q 338 2497 613 2722 
Q 888 2947 1384 2947 
Q 1766 2947 2009 2819 
Q 2194 2722 2281 2516 
Q 2338 2381 2338 1966 
L 2338 994 
Q 2338 584 2353 492 
Q 2369 400 2405 369 
Q 2441 338 2488 338 
Q 2538 338 2575 359 
Q 2641 400 2828 588 
L 2828 413 
Q 2478 -56 2159 -56 
Q 2006 -56 1915 50 
Q 1825 156 1822 413 
z
M 1822 616 
L 1822 1706 
Q 1350 1519 1213 1441 
Q 966 1303 859 1153 
Q 753 1003 753 825 
Q 753 600 887 451 
Q 1022 303 1197 303 
Q 1434 303 1822 616 
z
" id="TimesNewRomanPSMT-61" transform="scale(0.015625)"/>
       <path d="M 1031 3803 
L 1031 2863 
L 1700 2863 
L 1700 2644 
L 1031 2644 
L 1031 788 
Q 1031 509 1111 412 
Q 1191 316 1316 316 
Q 1419 316 1516 380 
Q 1613 444 1666 569 
L 1788 569 
Q 1678 263 1478 108 
Q 1278 -47 1066 -47 
Q 922 -47 784 33 
Q 647 113 581 261 
Q 516 409 516 719 
L 516 2644 
L 63 2644 
L 63 2747 
Q 234 2816 414 2980 
Q 594 3144 734 3369 
Q 806 3488 934 3803 
L 1031 3803 
z
" id="TimesNewRomanPSMT-74" transform="scale(0.015625)"/>
       <path d="M 966 1044 
Q 703 1172 562 1401 
Q 422 1631 422 1909 
Q 422 2334 742 2640 
Q 1063 2947 1563 2947 
Q 1972 2947 2272 2747 
L 2878 2747 
Q 3013 2747 3034 2739 
Q 3056 2731 3066 2713 
Q 3084 2684 3084 2613 
Q 3084 2531 3069 2500 
Q 3059 2484 3036 2475 
Q 3013 2466 2878 2466 
L 2506 2466 
Q 2681 2241 2681 1891 
Q 2681 1491 2375 1206 
Q 2069 922 1553 922 
Q 1341 922 1119 984 
Q 981 866 932 777 
Q 884 688 884 625 
Q 884 572 936 522 
Q 988 472 1138 450 
Q 1225 438 1575 428 
Q 2219 413 2409 384 
Q 2700 344 2873 169 
Q 3047 -6 3047 -263 
Q 3047 -616 2716 -925 
Q 2228 -1381 1444 -1381 
Q 841 -1381 425 -1109 
Q 191 -953 191 -784 
Q 191 -709 225 -634 
Q 278 -519 444 -313 
Q 466 -284 763 25 
Q 600 122 533 198 
Q 466 275 466 372 
Q 466 481 555 628 
Q 644 775 966 1044 
z
M 1509 2797 
Q 1278 2797 1122 2612 
Q 966 2428 966 2047 
Q 966 1553 1178 1281 
Q 1341 1075 1591 1075 
Q 1828 1075 1981 1253 
Q 2134 1431 2134 1813 
Q 2134 2309 1919 2591 
Q 1759 2797 1509 2797 
z
M 934 0 
Q 788 -159 713 -296 
Q 638 -434 638 -550 
Q 638 -700 819 -813 
Q 1131 -1006 1722 -1006 
Q 2284 -1006 2551 -807 
Q 2819 -609 2819 -384 
Q 2819 -222 2659 -153 
Q 2497 -84 2016 -72 
Q 1313 -53 934 0 
z
" id="TimesNewRomanPSMT-67" transform="scale(0.015625)"/>
      </defs>
      <use xlink:href="#TimesNewRomanPSMT-56"/>
      <use x="59.341797" xlink:href="#TimesNewRomanPSMT-6f"/>
      <use x="109.341797" xlink:href="#TimesNewRomanPSMT-6c"/>
      <use x="137.125" xlink:href="#TimesNewRomanPSMT-61"/>
      <use x="181.509766" xlink:href="#TimesNewRomanPSMT-74"/>
      <use x="209.292969" xlink:href="#TimesNewRomanPSMT-61"/>
      <use x="253.677734" xlink:href="#TimesNewRomanPSMT-67"/>
      <use x="303.677734" xlink:href="#TimesNewRomanPSMT-65"/>
      <use x="348.0625" xlink:href="#TimesNewRomanPSMT-20"/>
      <use x="373.0625" xlink:href="#TimesNewRomanPSMT-28"/>
      <use x="406.363281" xlink:href="#TimesNewRomanPSMT-56"/>
      <use x="478.580078" xlink:href="#TimesNewRomanPSMT-29"/>
     </g>
    </g>
   </g>
   <g id="LineCollection_1">
    <path clip-path="url(#p514640973a)" d="M 78.555057 158.734442 
L 382.918693 158.734442 
" style="fill:none;stroke:#1f77b4;stroke-width:1.5;"/>
   </g>
   <g id="line2d_25">
    <path clip-path="url(#p514640973a)" d="M 78.555057 158.669461 
L 78.676802 158.738006 
L 78.707239 158.703733 
L 87.838148 158.806551 
L 87.959893 158.806551 
L 95.538548 158.875096 
L 95.568984 158.943641 
L 95.629857 158.875096 
L 104.121602 158.943641 
L 104.243348 158.977914 
L 104.365093 158.977914 
L 104.486839 159.012186 
L 104.608584 158.943641 
L 104.63902 158.977914 
L 106.98262 159.046459 
L 107.013057 159.115004 
L 107.07393 159.046459 
L 107.104366 159.012186 
L 107.165239 159.080732 
L 112.369857 159.183549 
L 112.491602 159.183549 
L 113.556875 159.252094 
L 113.617748 159.320639 
L 113.67862 159.286367 
L 113.830802 159.320639 
L 113.922111 159.320639 
L 114.074293 159.354912 
L 114.804766 159.45773 
L 114.956948 159.560547 
L 114.987384 159.492002 
L 115.048257 159.526275 
L 115.200439 159.560547 
L 115.748293 159.663365 
L 115.900475 159.766183 
L 115.930911 159.697638 
L 115.991784 159.766183 
L 116.78313 159.869 
L 116.996184 159.971818 
L 117.11793 159.971818 
L 117.270111 160.006091 
L 117.878839 160.108908 
L 118.000584 160.108908 
L 118.396257 160.211726 
L 118.518002 160.245999 
L 118.639748 160.245999 
L 118.79193 160.280271 
L 118.913675 160.280271 
L 119.03542 160.348816 
L 119.065857 160.314544 
L 119.187602 160.280271 
L 119.309348 160.383089 
L 119.37022 160.314544 
L 119.400657 160.348816 
L 119.552839 160.383089 
L 120.252875 160.485906 
L 120.37462 160.520179 
L 120.496366 160.520179 
L 120.831166 160.622997 
L 120.952911 160.691542 
L 120.983348 160.622997 
L 121.04422 160.691542 
L 121.257275 160.794359 
L 121.592075 160.897177 
L 121.71382 160.965722 
L 121.835566 161.06854 
L 122.109493 161.239903 
L 122.261675 161.34272 
L 123.083457 162.165262 
L 123.113893 162.130989 
L 123.14433 162.233807 
L 123.844366 163.124893 
L 124.026984 163.399074 
L 124.209602 163.707527 
L 124.453093 164.15307 
L 126.248839 168.43714 
L 128.348948 175.908557 
L 129.627275 181.186531 
L 129.74902 181.666346 
L 130.905602 186.39596 
L 131.544766 188.932129 
L 132.031748 190.645757 
L 132.42742 191.776752 
L 132.85353 192.839201 
L 133.401384 193.833105 
L 134.43622 194.861282 
L 134.618839 194.964099 
L 134.801457 195.032645 
L 135.744984 194.929827 
L 136.171093 194.312921 
L 136.962439 192.29084 
L 137.78422 189.137765 
L 138.940802 183.482792 
L 140.55393 171.864396 
L 142.22793 155.790566 
L 143.749748 139.23692 
L 149.16742 73.502161 
L 150.324002 61.712395 
L 151.389275 53.109983 
L 151.967566 49.408547 
L 152.60673 45.844201 
L 153.580693 41.937124 
L 154.18942 40.806138 
L 154.493784 40.6005 
L 155.041639 40.703312 
L 155.346002 41.148858 
L 155.802548 42.314125 
L 156.046039 43.068124 
L 157.172184 48.620281 
L 158.146148 55.954608 
L 158.96793 64.351379 
L 160.672366 86.83418 
L 162.468111 116.856938 
L 165.055202 168.505685 
L 168.707566 244.28231 
L 170.412002 274.784892 
L 171.93382 297.062054 
L 172.999093 308.954623 
L 173.881748 315.911953 
L 174.673093 320.573026 
L 174.794839 321.052842 
L 175.434002 323.451921 
L 176.073166 324.651455 
L 176.255784 324.72 
L 176.407966 324.685733 
L 176.529711 324.72 
L 176.651457 324.651455 
L 176.773202 324.651455 
L 176.95582 324.54864 
L 176.986257 324.582907 
L 177.016693 324.514373 
L 177.38193 323.966001 
L 178.508075 319.819027 
L 179.238548 315.089417 
L 180.090766 308.577623 
L 181.338657 296.3766 
L 183.134402 272.797081 
L 185.66062 231.224463 
L 187.243311 203.01815 
L 189.373857 165.215519 
L 190.378257 148.010696 
L 191.10873 135.706847 
L 192.387057 115.965851 
L 193.513202 101.057291 
L 194.395857 91.495251 
L 196.526402 71.034534 
L 197.226439 65.653739 
L 197.409057 64.351379 
L 198.13953 60.170127 
L 199.630911 53.93253 
L 200.878802 50.093998 
L 201.73102 48.41464 
L 201.974511 48.27755 
L 202.431057 48.174735 
L 202.704984 48.003375 
L 202.796293 48.003375 
L 202.978911 47.934827 
L 203.252839 48.037642 
L 203.526766 48.209013 
L 203.678948 48.311828 
L 203.83113 48.41464 
L 203.861566 48.380373 
L 204.135493 48.41464 
L 204.287675 48.551733 
L 204.896402 49.717 
L 204.957275 49.819815 
L 206.052984 52.527347 
L 208.244402 60.30722 
L 209.18793 65.036833 
L 210.43582 71.445802 
L 212.505493 81.247756 
L 214.970839 94.511236 
L 215.275202 96.361948 
L 215.823057 99.857752 
L 219.56673 121.552281 
L 220.784184 129.057971 
L 220.997239 130.463146 
L 224.406111 154.248301 
L 226.140984 168.779865 
L 227.571493 182.591706 
L 228.18022 188.795039 
L 228.758511 194.998372 
L 233.567457 247.915201 
L 235.54582 266.833656 
L 237.31113 278.006504 
L 237.524184 278.726225 
L 238.345966 281.125304 
L 238.741639 281.845036 
L 238.772075 281.810758 
L 238.802511 281.879303 
L 239.046002 282.050663 
L 239.076439 282.016396 
L 239.137311 282.084941 
L 239.31993 282.153489 
L 239.441675 282.290582 
L 239.472111 282.256304 
L 239.65473 282.324849 
L 240.141711 281.673676 
L 240.872184 279.58305 
L 241.054802 278.931866 
L 241.359166 277.526691 
L 242.66793 269.575455 
L 244.950657 250.725548 
L 245.772439 241.266325 
L 246.624657 230.470469 
L 248.60302 202.298427 
L 249.36393 191.296936 
L 250.94662 168.094414 
L 252.316257 149.655778 
L 253.320657 137.48902 
L 253.777202 132.416682 
L 254.72073 122.991728 
L 256.181675 110.790701 
L 256.39473 109.351248 
L 257.033893 105.786904 
L 257.673057 102.805192 
L 257.855675 102.222558 
L 258.129602 101.297199 
L 258.464402 100.303292 
L 259.134002 98.418307 
L 260.168839 96.293409 
L 260.260148 96.190588 
L 261.173239 95.299502 
L 261.508039 95.230957 
L 261.599348 95.162409 
L 261.629784 95.196681 
L 261.75153 95.162409 
L 261.964584 95.265229 
L 262.055893 95.265229 
L 262.208075 95.36805 
L 262.238511 95.333774 
L 262.299384 95.402322 
L 262.542875 95.607955 
L 262.573311 95.573682 
L 262.634184 95.642227 
L 262.816802 95.81359 
L 264.216875 97.527221 
L 264.521239 97.972761 
L 264.582111 98.075582 
L 264.947348 98.658212 
L 265.221275 99.103753 
L 265.67782 99.892027 
L 265.860439 100.20048 
L 266.225675 101.091564 
L 266.256111 101.057291 
L 266.469166 101.57138 
L 266.651784 101.914105 
L 267.564875 104.210364 
L 268.264911 106.198175 
L 268.538839 107.020716 
L 268.873639 108.048896 
L 271.430293 117.062576 
L 275.234839 133.719038 
L 276.208802 137.386203 
L 276.72622 139.23692 
L 277.882802 143.52099 
L 278.430657 145.508799 
L 278.613275 146.159977 
L 279.922039 150.204139 
L 279.982911 150.375502 
L 280.530766 151.849222 
L 281.048184 153.220124 
L 281.322111 154.008393 
L 283.361348 158.361008 
L 284.51793 159.526275 
L 284.730984 159.59482 
L 284.883166 159.73191 
L 285.491893 159.629092 
L 285.613639 159.560547 
L 285.735384 159.45773 
L 286.77022 158.155373 
L 288.292039 154.488209 
L 289.296439 151.437951 
L 289.357311 151.369406 
L 289.661675 150.478319 
L 289.905166 149.724323 
L 290.20953 148.798964 
L 291.79222 145.440254 
L 291.913966 145.337436 
L 292.157457 145.028982 
L 292.279202 144.926166 
L 292.735748 144.549167 
L 293.922766 144.651984 
L 294.683675 145.645889 
L 295.779384 148.353421 
L 297.027275 152.945944 
L 298.24473 158.909369 
L 299.614366 167.2376 
L 300.466584 173.098207 
L 300.92313 176.251282 
L 302.018839 184.065425 
L 302.353639 186.567323 
L 303.053675 191.879569 
L 303.84502 197.980084 
L 305.032039 206.479676 
L 306.553857 216.041725 
L 308.95833 226.392032 
L 309.688802 228.482658 
L 310.114911 229.202385 
L 310.20622 229.305202 
L 310.480148 229.682203 
L 310.784511 229.922111 
L 310.906257 229.887836 
L 311.028002 229.956384 
L 311.149748 229.853563 
L 311.180184 229.887836 
L 311.241057 229.819291 
L 311.454111 229.579383 
L 311.54542 229.476565 
L 311.849784 228.996749 
L 312.64113 227.008938 
L 313.128111 225.26104 
L 313.31073 224.609859 
L 313.858584 222.382148 
L 315.31953 213.539826 
L 316.56742 204.38905 
L 317.419639 197.671631 
L 317.937057 193.490379 
L 318.637093 187.492683 
L 319.611057 178.958816 
L 320.311093 172.995391 
L 321.498111 163.261984 
L 322.198148 157.778374 
L 325.302657 134.130308 
L 326.063566 129.229334 
L 326.915784 124.22554 
L 328.863711 113.875225 
L 329.228948 112.298693 
L 329.62462 110.653608 
L 332.089966 102.702371 
L 332.181275 102.462466 
L 332.759566 100.920198 
L 333.003057 100.26902 
L 333.64222 99.035213 
L 333.73353 98.966665 
L 333.946584 98.62394 
L 334.037893 98.521122 
L 334.73793 97.869941 
L 335.042293 97.767126 
L 335.164039 97.630036 
L 335.194475 97.664308 
L 335.377093 97.59576 
L 335.529275 97.492948 
L 335.74233 97.390128 
L 335.772766 97.4244 
L 335.833639 97.355855 
L 336.959784 97.458673 
L 337.294584 97.698581 
L 337.385893 97.801401 
L 338.481602 99.172301 
L 338.75553 99.720659 
L 340.916511 104.82727 
L 341.738293 107.260622 
L 341.829602 107.466262 
L 342.194839 108.700075 
L 342.255711 108.837162 
L 342.712257 110.4137 
L 343.899275 114.766312 
L 344.325384 116.548485 
L 347.095093 129.503514 
L 347.856002 133.890402 
L 351.964911 156.441745 
L 352.299711 157.915465 
L 352.756257 159.903273 
L 353.212802 161.822536 
L 353.912839 164.495796 
L 354.82593 167.957324 
L 355.40422 170.116495 
L 355.525966 170.562039 
L 355.860766 171.830123 
L 356.804293 175.394469 
L 357.595639 178.513271 
L 357.74782 179.027361 
L 358.052184 180.158355 
L 359.452257 185.230694 
L 359.75662 186.361687 
L 359.939239 187.012866 
L 360.42622 188.760766 
L 360.700148 189.61758 
L 361.065384 190.782847 
L 361.826293 193.010564 
L 361.948039 193.250472 
L 362.404584 194.450011 
L 362.52633 194.724192 
L 362.891566 195.581005 
L 363.074184 195.889458 
L 363.348111 196.472092 
L 363.408984 196.540637 
L 363.682911 197.088998 
L 363.743784 197.157543 
L 363.956839 197.568814 
L 364.017711 197.637359 
L 364.230766 197.980084 
L 364.474257 198.391355 
L 364.930802 199.179624 
L 364.991675 199.248169 
L 365.417784 199.967893 
L 365.843893 200.584799 
L 366.056948 200.858979 
L 366.178693 200.961797 
L 366.361311 201.235977 
L 366.45262 201.304523 
L 366.726548 201.681521 
L 367.822257 202.778243 
L 367.913566 202.88106 
L 368.12662 203.120971 
L 368.613602 203.600784 
L 368.644039 203.532239 
L 368.704911 203.566511 
L 368.857093 203.669332 
L 369.435384 204.183417 
L 369.55713 204.286238 
L 369.739748 204.38905 
L 369.770184 204.354777 
L 369.831057 204.423325 
L 370.013675 204.49187 
L 370.044111 204.457598 
L 370.104984 204.526143 
L 370.348475 204.628963 
L 370.531093 204.697503 
L 371.322439 204.800323 
L 371.47462 204.834596 
L 371.596366 204.800323 
L 371.778984 204.868869 
L 371.90073 204.834596 
L 372.052911 204.868869 
L 373.666039 204.800323 
L 373.787784 204.731778 
L 374.031275 204.628963 
L 374.305202 204.457598 
L 374.335639 204.49187 
L 374.396511 204.423325 
L 374.670439 204.251963 
L 374.792184 204.183417 
L 374.91393 204.046324 
L 374.944366 204.080597 
L 375.948766 202.812515 
L 376.192257 202.504062 
L 376.435748 202.092791 
L 377.25753 200.481981 
L 377.531457 200.036438 
L 377.896693 199.179624 
L 378.018439 198.905444 
L 378.414111 197.945812 
L 379.144584 196.060821 
L 381.27513 188.520859 
L 381.762111 186.361687 
L 382.127348 184.750878 
L 382.85782 181.255076 
L 382.918693 180.980896 
L 382.918693 180.980896 
" style="fill:none;stroke:#0000ff;stroke-linecap:square;stroke-width:1.5;"/>
   </g>
   <g id="line2d_26">
    <path clip-path="url(#p514640973a)" d="M 78.555057 158.673368 
L 78.798548 158.690504 
L 78.981166 158.70764 
L 97.182111 158.810458 
L 97.395166 158.827594 
L 97.60822 158.827594 
L 100.04313 158.913276 
L 100.225748 158.981821 
L 100.408366 158.998957 
L 100.864911 159.136047 
L 101.108402 159.221729 
L 101.412766 159.410228 
L 102.021493 159.872907 
L 103.238948 161.3809 
L 105.217311 166.093377 
L 107.013057 172.536618 
L 110.33062 185.166056 
L 111.730693 188.78181 
L 112.978584 190.683937 
L 113.556875 190.889572 
L 113.76993 190.889572 
L 114.196039 190.786754 
L 114.561275 190.461165 
L 115.809166 188.147768 
L 117.11793 183.34961 
L 117.69622 180.624942 
L 118.731057 174.901424 
L 119.644148 169.143634 
L 120.344184 164.499702 
L 120.952911 160.04427 
L 122.413857 148.648645 
L 123.47913 140.063369 
L 125.06182 127.639567 
L 126.461893 118.882928 
L 127.131493 115.369991 
L 128.288075 109.492248 
L 129.931639 103.408869 
L 130.08382 103.083277 
L 130.540366 102.106512 
L 130.936039 101.318245 
L 131.84913 100.135839 
L 132.488293 98.919166 
L 132.579602 98.83348 
L 132.914402 98.593574 
L 133.066584 98.490759 
L 133.553566 98.09662 
L 133.888366 97.873853 
L 134.162293 97.839578 
L 134.618839 97.976666 
L 134.953639 97.890987 
L 135.288439 97.668213 
L 135.805857 97.753899 
L 136.11022 97.959532 
L 136.932002 98.045213 
L 138.21033 99.621751 
L 139.092984 102.397831 
L 139.54953 104.145729 
L 140.493057 108.309847 
L 142.56273 119.345608 
L 143.323639 124.7264 
L 147.341239 157.251057 
L 148.650002 169.383542 
L 152.94153 207.066222 
L 154.158984 215.171676 
L 154.919893 219.232975 
L 155.741675 222.4546 
L 156.472148 224.56236 
L 157.506984 226.104625 
L 157.902657 226.430217 
L 158.085275 226.447351 
L 158.328766 226.34453 
L 159.88102 224.459545 
L 160.915857 221.871967 
L 161.372402 220.295427 
L 162.346366 216.405491 
L 162.620293 215.154543 
L 164.963893 199.9718 
L 168.646693 171.799757 
L 169.711966 165.322244 
L 171.142475 158.604823 
L 171.69033 156.736968 
L 172.116439 155.48602 
L 172.542548 154.766296 
L 173.668693 153.652438 
L 173.973057 153.720983 
L 174.125239 153.73812 
L 174.338293 153.823801 
L 175.03833 154.303617 
L 176.164475 157.09683 
L 176.71233 158.964685 
L 178.173275 165.990559 
L 179.238548 172.4338 
L 179.999457 176.854959 
L 183.469202 195.773412 
L 184.595348 200.348798 
L 185.234511 202.14811 
L 185.812802 203.193423 
L 186.208475 203.501876 
L 186.75633 203.399056 
L 187.33462 202.95351 
L 187.912911 201.805384 
L 188.369457 200.622979 
L 188.76513 199.474848 
L 189.952148 194.368237 
L 190.713057 189.450125 
L 195.004584 152.281536 
L 197.196002 132.369181 
L 199.752657 108.344114 
L 201.82233 89.545619 
L 204.105057 73.626019 
L 204.957275 69.444761 
L 205.566002 67.45695 
L 206.052984 66.822916 
L 206.205166 66.72009 
L 207.17913 66.291683 
L 208.396584 67.097091 
L 208.944439 68.210949 
L 210.588002 73.163339 
L 211.592402 77.550224 
L 212.596802 83.18806 
L 215.944802 104.608408 
L 218.410148 123.166998 
L 220.47982 137.510064 
L 222.975602 152.298672 
L 223.310402 154.063709 
L 225.684439 166.795964 
L 227.17582 173.787566 
L 228.84982 180.830576 
L 229.549857 183.572381 
L 230.249893 185.902916 
L 231.132548 188.696128 
L 231.467348 189.741441 
L 232.106511 191.849204 
L 233.263093 195.979047 
L 233.62833 197.332813 
L 236.093675 206.620676 
L 236.458911 207.700262 
L 237.950293 211.5902 
L 238.163348 211.984331 
L 238.406839 212.447011 
L 239.502548 213.526596 
L 240.598257 214.023551 
L 240.811311 214.10923 
L 240.99393 214.177778 
L 241.298293 214.28059 
L 241.57222 214.314865 
L 241.815711 214.297729 
L 242.66793 214.194911 
L 242.941857 214.160639 
L 243.67233 214.246317 
L 243.976693 214.434817 
L 244.768039 215.000316 
L 248.35953 219.198702 
L 249.02913 220.124061 
L 249.516111 220.826654 
L 249.94222 221.563514 
L 250.063966 221.752013 
L 251.098802 223.688413 
L 251.61622 224.819404 
L 253.472839 227.749711 
L 253.71633 227.972477 
L 253.95982 228.263796 
L 254.355493 228.726476 
L 255.512075 229.257703 
L 256.455602 228.606522 
L 257.155639 227.664024 
L 257.64262 226.63585 
L 258.64702 223.517047 
L 259.712293 218.221937 
L 260.686257 211.521652 
L 261.386293 205.609636 
L 262.268948 196.681634 
L 263.395093 182.784111 
L 265.76913 147.860376 
L 269.664984 81.800021 
L 271.308548 58.426134 
L 272.79993 41.289863 
L 273.956511 31.282268 
L 274.595675 27.409472 
L 275.265275 24.547719 
L 275.965311 22.868358 
L 276.513166 22.405676 
L 277.091457 22.508499 
L 277.639311 23.639488 
L 278.978511 29.294457 
L 281.048184 45.214069 
L 282.478693 59.95126 
L 283.665711 73.814512 
L 291.183493 165.562152 
L 293.314039 187.205272 
L 295.353275 203.501876 
L 296.783784 213.183871 
L 298.48822 223.054367 
L 300.527457 231.759594 
L 302.079711 235.803759 
L 302.26233 236.163621 
L 302.658002 236.797666 
L 302.901493 237.020432 
L 303.205857 237.106119 
L 303.358039 237.054705 
L 303.814584 236.677712 
L 304.362439 235.580987 
L 304.910293 233.85022 
L 305.458148 231.982369 
L 307.680002 221.494966 
L 308.927893 213.835049 
L 312.154148 193.168697 
L 316.23262 164.105568 
L 317.937057 154.235072 
L 320.00673 145.392752 
L 321.376366 141.108682 
L 322.045966 139.772052 
L 322.59382 138.795284 
L 324.146075 137.201612 
L 324.876548 136.687522 
L 325.120039 136.396206 
L 327.098402 134.322717 
L 327.585384 133.945717 
L 327.95062 133.517311 
L 328.133239 133.294538 
L 328.772402 132.420588 
L 330.659457 129.027606 
L 331.268184 127.622431 
L 331.602984 126.851298 
L 332.485639 124.674991 
L 332.72913 124.075221 
L 334.829239 118.488794 
L 337.903311 111.805645 
L 338.116366 111.428647 
L 338.512039 110.777466 
L 339.486002 109.81784 
L 339.66862 109.732153 
L 339.851239 109.612202 
L 340.703457 109.715019 
L 341.068693 109.972066 
L 341.43393 110.297653 
L 342.133966 111.223012 
L 342.590511 111.994144 
L 343.320984 113.399319 
L 344.994984 119.414153 
L 345.725457 123.201271 
L 346.882039 129.69592 
L 347.247275 131.820818 
L 349.590875 147.003562 
L 356.226002 194.779507 
L 357.382584 201.274157 
L 358.873966 208.265759 
L 359.665311 210.939018 
L 360.578402 212.738325 
L 361.552366 213.697959 
L 361.674111 213.783638 
L 362.069784 214.092091 
L 363.135057 213.989276 
L 363.469857 213.766504 
L 363.652475 213.560872 
L 365.082984 210.939018 
L 366.54393 206.500722 
L 367.822257 200.263117 
L 369.404948 190.735346 
L 370.591966 181.258985 
L 376.314002 133.860037 
L 378.870657 115.952625 
L 379.814184 110.777466 
L 381.701239 102.75769 
L 382.553457 100.255793 
L 382.918693 99.347571 
L 382.918693 99.347571 
" style="fill:none;stroke:#ff0000;stroke-linecap:square;stroke-width:1.5;"/>
   </g>
   <g id="line2d_27">
    <path clip-path="url(#p514640973a)" d="M 125.761857 167.066237 
" style="fill:none;stroke:#ffffff;stroke-linecap:square;stroke-width:1.5;"/>
    <defs>
     <path d="M 0 -5 
L -1.12257 -1.545085 
L -4.755283 -1.545085 
L -1.816356 0.59017 
L -2.938926 4.045085 
L -0 1.90983 
L 2.938926 4.045085 
L 1.816356 0.59017 
L 4.755283 -1.545085 
L 1.12257 -1.545085 
z
" id="m46f9a35a0c" style="stroke:#ffffff;stroke-linejoin:bevel;"/>
    </defs>
    <g clip-path="url(#p514640973a)">
     <use style="fill:#0000ff;stroke:#ffffff;stroke-linejoin:bevel;" x="125.761857" xlink:href="#m46f9a35a0c" y="167.066237"/>
    </g>
   </g>
   <g id="line2d_28">
    <path clip-path="url(#p514640973a)" d="M 105.06513 165.613561 
" style="fill:none;stroke:#ffffff;stroke-linecap:square;stroke-width:1.5;"/>
    <defs>
     <path d="M 0 -5 
L -1.12257 -1.545085 
L -4.755283 -1.545085 
L -1.816356 0.59017 
L -2.938926 4.045085 
L -0 1.90983 
L 2.938926 4.045085 
L 1.816356 0.59017 
L 4.755283 -1.545085 
L 1.12257 -1.545085 
z
" id="m97e0f41da8" style="stroke:#ffffff;stroke-linejoin:bevel;"/>
    </defs>
    <g clip-path="url(#p514640973a)">
     <use style="fill:#ff0000;stroke:#ffffff;stroke-linejoin:bevel;" x="105.06513" xlink:href="#m97e0f41da8" y="165.613561"/>
    </g>
   </g>
   <g id="patch_3">
    <path d="M 63.336875 339.84 
L 63.336875 7.2 
" style="fill:none;stroke:#000000;stroke-linecap:square;stroke-linejoin:miter;stroke-width:0.8;"/>
   </g>
   <g id="patch_4">
    <path d="M 398.136875 339.84 
L 398.136875 7.2 
" style="fill:none;stroke:#000000;stroke-linecap:square;stroke-linejoin:miter;stroke-width:0.8;"/>
   </g>
   <g id="patch_5">
    <path d="M 63.336875 339.84 
L 398.136875 339.84 
" style="fill:none;stroke:#000000;stroke-linecap:square;stroke-linejoin:miter;stroke-width:0.8;"/>
   </g>
   <g id="patch_6">
    <path d="M 63.336875 7.2 
L 398.136875 7.2 
" style="fill:none;stroke:#000000;stroke-linecap:square;stroke-linejoin:miter;stroke-width:0.8;"/>
   </g>
   <g id="text_15">
    <g id="patch_7">
     <path d="M 75.036875 331.242688 
L 166.79375 331.242688 
L 166.79375 293.760312 
L 75.036875 293.760312 
z
" style="fill:#ffffff;stroke:#000000;stroke-linejoin:miter;stroke-width:0.75;"/>
    </g>
    <!-- Auto_00090 -->
    <g transform="translate(80.076875 308.521562)scale(0.14 -0.14)">
     <defs>
      <path d="M 2928 1419 
L 1288 1419 
L 1000 750 
Q 894 503 894 381 
Q 894 284 986 211 
Q 1078 138 1384 116 
L 1384 0 
L 50 0 
L 50 116 
Q 316 163 394 238 
Q 553 388 747 847 
L 2238 4334 
L 2347 4334 
L 3822 809 
Q 4000 384 4145 257 
Q 4291 131 4550 116 
L 4550 0 
L 2878 0 
L 2878 116 
Q 3131 128 3220 200 
Q 3309 272 3309 375 
Q 3309 513 3184 809 
L 2928 1419 
z
M 2841 1650 
L 2122 3363 
L 1384 1650 
L 2841 1650 
z
" id="TimesNewRomanPSMT-41" transform="scale(0.015625)"/>
      <path d="M 2709 2863 
L 2709 1128 
Q 2709 631 2732 520 
Q 2756 409 2807 365 
Q 2859 322 2928 322 
Q 3025 322 3147 375 
L 3191 266 
L 2334 -88 
L 2194 -88 
L 2194 519 
Q 1825 119 1631 15 
Q 1438 -88 1222 -88 
Q 981 -88 804 51 
Q 628 191 559 409 
Q 491 628 491 1028 
L 491 2306 
Q 491 2509 447 2587 
Q 403 2666 317 2708 
Q 231 2750 6 2747 
L 6 2863 
L 1009 2863 
L 1009 947 
Q 1009 547 1148 422 
Q 1288 297 1484 297 
Q 1619 297 1789 381 
Q 1959 466 2194 703 
L 2194 2325 
Q 2194 2569 2105 2655 
Q 2016 2741 1734 2747 
L 1734 2863 
L 2709 2863 
z
" id="TimesNewRomanPSMT-75" transform="scale(0.015625)"/>
      <path d="M 3256 -1381 
L -53 -1381 
L -53 -1119 
L 3256 -1119 
L 3256 -1381 
z
" id="TimesNewRomanPSMT-5f" transform="scale(0.015625)"/>
      <path d="M 338 -88 
L 338 28 
Q 744 34 1094 217 
Q 1444 400 1770 856 
Q 2097 1313 2225 1859 
Q 1734 1544 1338 1544 
Q 891 1544 572 1889 
Q 253 2234 253 2806 
Q 253 3363 572 3797 
Q 956 4325 1575 4325 
Q 2097 4325 2469 3894 
Q 2925 3359 2925 2575 
Q 2925 1869 2578 1258 
Q 2231 647 1613 244 
Q 1109 -88 516 -88 
L 338 -88 
z
M 2275 2091 
Q 2331 2497 2331 2741 
Q 2331 3044 2228 3395 
Q 2125 3747 1936 3934 
Q 1747 4122 1506 4122 
Q 1228 4122 1018 3872 
Q 809 3622 809 3128 
Q 809 2469 1088 2097 
Q 1291 1828 1588 1828 
Q 1731 1828 1928 1897 
Q 2125 1966 2275 2091 
z
" id="TimesNewRomanPSMT-39" transform="scale(0.015625)"/>
     </defs>
     <use xlink:href="#TimesNewRomanPSMT-41"/>
     <use x="72.216797" xlink:href="#TimesNewRomanPSMT-75"/>
     <use x="122.216797" xlink:href="#TimesNewRomanPSMT-74"/>
     <use x="150" xlink:href="#TimesNewRomanPSMT-6f"/>
     <use x="200" xlink:href="#TimesNewRomanPSMT-5f"/>
     <use x="250" xlink:href="#TimesNewRomanPSMT-30"/>
     <use x="300" xlink:href="#TimesNewRomanPSMT-30"/>
     <use x="350" xlink:href="#TimesNewRomanPSMT-30"/>
     <use x="400" xlink:href="#TimesNewRomanPSMT-39"/>
     <use x="450" xlink:href="#TimesNewRomanPSMT-30"/>
    </g>
    <!-- Vs: 293.97m/s -->
    <g transform="translate(80.076875 323.208)scale(0.14 -0.14)">
     <defs>
      <path d="M 903 2950 
Q 1047 2950 1148 2848 
Q 1250 2747 1250 2603 
Q 1250 2459 1148 2357 
Q 1047 2256 903 2256 
Q 759 2256 657 2357 
Q 556 2459 556 2603 
Q 556 2747 657 2848 
Q 759 2950 903 2950 
z
M 897 609 
Q 1044 609 1145 506 
Q 1247 403 1247 259 
Q 1247 116 1144 14 
Q 1041 -88 897 -88 
Q 753 -88 651 14 
Q 550 116 550 259 
Q 550 403 651 506 
Q 753 609 897 609 
z
" id="TimesNewRomanPSMT-3a" transform="scale(0.015625)"/>
      <path d="M 644 4238 
L 2916 4238 
L 2916 4119 
L 1503 -88 
L 1153 -88 
L 2419 3728 
L 1253 3728 
Q 900 3728 750 3644 
Q 488 3500 328 3200 
L 238 3234 
L 644 4238 
z
" id="TimesNewRomanPSMT-37" transform="scale(0.015625)"/>
      <path d="M 1794 4444 
L 259 -88 
L 9 -88 
L 1544 4444 
L 1794 4444 
z
" id="TimesNewRomanPSMT-2f" transform="scale(0.015625)"/>
     </defs>
     <use xlink:href="#TimesNewRomanPSMT-56"/>
     <use x="72.216797" xlink:href="#TimesNewRomanPSMT-73"/>
     <use x="111.132812" xlink:href="#TimesNewRomanPSMT-3a"/>
     <use x="138.916016" xlink:href="#TimesNewRomanPSMT-20"/>
     <use x="163.916016" xlink:href="#TimesNewRomanPSMT-32"/>
     <use x="213.916016" xlink:href="#TimesNewRomanPSMT-39"/>
     <use x="263.916016" xlink:href="#TimesNewRomanPSMT-33"/>
     <use x="313.916016" xlink:href="#TimesNewRomanPSMT-2e"/>
     <use x="338.916016" xlink:href="#TimesNewRomanPSMT-39"/>
     <use x="388.916016" xlink:href="#TimesNewRomanPSMT-37"/>
     <use x="438.916016" xlink:href="#TimesNewRomanPSMT-6d"/>
     <use x="516.699219" xlink:href="#TimesNewRomanPSMT-2f"/>
     <use x="544.482422" xlink:href="#TimesNewRomanPSMT-73"/>
    </g>
   </g>
  </g>
 </g>
 <defs>
  <clipPath id="p514640973a">
   <rect height="332.64" width="334.8" x="63.336875" y="7.2"/>
  </clipPath>
 </defs>
</svg>
