<?xml version="1.0" encoding="utf-8" standalone="no"?>
<!DOCTYPE svg PUBLIC "-//W3C//DTD SVG 1.1//EN"
  "http://www.w3.org/Graphics/SVG/1.1/DTD/svg11.dtd">
<svg height="383.471875pt" version="1.1" viewBox="0 0 421.086875 383.471875" width="421.086875pt" xmlns="http://www.w3.org/2000/svg" xmlns:xlink="http://www.w3.org/1999/xlink">
 <metadata>
  <rdf:RDF xmlns:cc="http://creativecommons.org/ns#" xmlns:dc="http://purl.org/dc/elements/1.1/" xmlns:rdf="http://www.w3.org/1999/02/22-rdf-syntax-ns#">
   <cc:Work>
    <dc:type rdf:resource="http://purl.org/dc/dcmitype/StillImage"/>
    <dc:date>2021-06-11T14:39:39.318152</dc:date>
    <dc:format>image/svg+xml</dc:format>
    <dc:creator>
     <cc:Agent>
      <dc:title>Matplotlib v3.4.2, https://matplotlib.org/</dc:title>
     </cc:Agent>
    </dc:creator>
   </cc:Work>
  </rdf:RDF>
 </metadata>
 <defs>
  <style type="text/css">*{stroke-linecap:butt;stroke-linejoin:round;}</style>
 </defs>
 <g id="figure_1">
  <g id="patch_1">
   <path d="M 0 383.471875 
L 421.086875 383.471875 
L 421.086875 0 
L 0 0 
z
" style="fill:#ffffff;"/>
  </g>
  <g id="axes_1">
   <g id="patch_2">
    <path d="M 63.336875 339.84 
L 398.136875 339.84 
L 398.136875 7.2 
L 63.336875 7.2 
z
" style="fill:#ffffff;"/>
   </g>
   <g id="matplotlib.axis_1">
    <g id="xtick_1">
     <g id="line2d_1">
      <path clip-path="url(#pef0b1516e8)" d="M 93.773239 339.84 
L 93.773239 7.2 
" style="fill:none;stroke:#000000;stroke-dasharray:0.5,0.825;stroke-dashoffset:0;stroke-width:0.5;"/>
     </g>
     <g id="line2d_2">
      <defs>
       <path d="M 0 0 
L 0 3.5 
" id="m2eafa1c54f" style="stroke:#000000;stroke-width:0.8;"/>
      </defs>
      <g>
       <use style="stroke:#000000;stroke-width:0.8;" x="93.773239" xlink:href="#m2eafa1c54f" y="339.84"/>
      </g>
     </g>
     <g id="text_1">
      <!-- 0.000 -->
      <g transform="translate(78.023239 356.56125)scale(0.14 -0.14)">
       <defs>
        <path d="M 231 2094 
Q 231 2819 450 3342 
Q 669 3866 1031 4122 
Q 1313 4325 1613 4325 
Q 2100 4325 2488 3828 
Q 2972 3213 2972 2159 
Q 2972 1422 2759 906 
Q 2547 391 2217 158 
Q 1888 -75 1581 -75 
Q 975 -75 572 641 
Q 231 1244 231 2094 
z
M 844 2016 
Q 844 1141 1059 588 
Q 1238 122 1591 122 
Q 1759 122 1940 273 
Q 2122 425 2216 781 
Q 2359 1319 2359 2297 
Q 2359 3022 2209 3506 
Q 2097 3866 1919 4016 
Q 1791 4119 1609 4119 
Q 1397 4119 1231 3928 
Q 1006 3669 925 3112 
Q 844 2556 844 2016 
z
" id="TimesNewRomanPSMT-30" transform="scale(0.015625)"/>
        <path d="M 800 606 
Q 947 606 1047 504 
Q 1147 403 1147 259 
Q 1147 116 1045 14 
Q 944 -88 800 -88 
Q 656 -88 554 14 
Q 453 116 453 259 
Q 453 406 554 506 
Q 656 606 800 606 
z
" id="TimesNewRomanPSMT-2e" transform="scale(0.015625)"/>
       </defs>
       <use xlink:href="#TimesNewRomanPSMT-30"/>
       <use x="50" xlink:href="#TimesNewRomanPSMT-2e"/>
       <use x="75" xlink:href="#TimesNewRomanPSMT-30"/>
       <use x="125" xlink:href="#TimesNewRomanPSMT-30"/>
       <use x="175" xlink:href="#TimesNewRomanPSMT-30"/>
      </g>
     </g>
    </g>
    <g id="xtick_2">
     <g id="line2d_3">
      <path clip-path="url(#pef0b1516e8)" d="M 154.645966 339.84 
L 154.645966 7.2 
" style="fill:none;stroke:#000000;stroke-dasharray:0.5,0.825;stroke-dashoffset:0;stroke-width:0.5;"/>
     </g>
     <g id="line2d_4">
      <g>
       <use style="stroke:#000000;stroke-width:0.8;" x="154.645966" xlink:href="#m2eafa1c54f" y="339.84"/>
      </g>
     </g>
     <g id="text_2">
      <!-- 0.001 -->
      <g transform="translate(138.895966 356.56125)scale(0.14 -0.14)">
       <defs>
        <path d="M 750 3822 
L 1781 4325 
L 1884 4325 
L 1884 747 
Q 1884 391 1914 303 
Q 1944 216 2037 169 
Q 2131 122 2419 116 
L 2419 0 
L 825 0 
L 825 116 
Q 1125 122 1212 167 
Q 1300 213 1334 289 
Q 1369 366 1369 747 
L 1369 3034 
Q 1369 3497 1338 3628 
Q 1316 3728 1258 3775 
Q 1200 3822 1119 3822 
Q 1003 3822 797 3725 
L 750 3822 
z
" id="TimesNewRomanPSMT-31" transform="scale(0.015625)"/>
       </defs>
       <use xlink:href="#TimesNewRomanPSMT-30"/>
       <use x="50" xlink:href="#TimesNewRomanPSMT-2e"/>
       <use x="75" xlink:href="#TimesNewRomanPSMT-30"/>
       <use x="125" xlink:href="#TimesNewRomanPSMT-30"/>
       <use x="175" xlink:href="#TimesNewRomanPSMT-31"/>
      </g>
     </g>
    </g>
    <g id="xtick_3">
     <g id="line2d_5">
      <path clip-path="url(#pef0b1516e8)" d="M 215.518693 339.84 
L 215.518693 7.2 
" style="fill:none;stroke:#000000;stroke-dasharray:0.5,0.825;stroke-dashoffset:0;stroke-width:0.5;"/>
     </g>
     <g id="line2d_6">
      <g>
       <use style="stroke:#000000;stroke-width:0.8;" x="215.518693" xlink:href="#m2eafa1c54f" y="339.84"/>
      </g>
     </g>
     <g id="text_3">
      <!-- 0.002 -->
      <g transform="translate(199.768693 356.56125)scale(0.14 -0.14)">
       <defs>
        <path d="M 2934 816 
L 2638 0 
L 138 0 
L 138 116 
Q 1241 1122 1691 1759 
Q 2141 2397 2141 2925 
Q 2141 3328 1894 3587 
Q 1647 3847 1303 3847 
Q 991 3847 742 3664 
Q 494 3481 375 3128 
L 259 3128 
Q 338 3706 661 4015 
Q 984 4325 1469 4325 
Q 1984 4325 2329 3994 
Q 2675 3663 2675 3213 
Q 2675 2891 2525 2569 
Q 2294 2063 1775 1497 
Q 997 647 803 472 
L 1909 472 
Q 2247 472 2383 497 
Q 2519 522 2628 598 
Q 2738 675 2819 816 
L 2934 816 
z
" id="TimesNewRomanPSMT-32" transform="scale(0.015625)"/>
       </defs>
       <use xlink:href="#TimesNewRomanPSMT-30"/>
       <use x="50" xlink:href="#TimesNewRomanPSMT-2e"/>
       <use x="75" xlink:href="#TimesNewRomanPSMT-30"/>
       <use x="125" xlink:href="#TimesNewRomanPSMT-30"/>
       <use x="175" xlink:href="#TimesNewRomanPSMT-32"/>
      </g>
     </g>
    </g>
    <g id="xtick_4">
     <g id="line2d_7">
      <path clip-path="url(#pef0b1516e8)" d="M 276.39142 339.84 
L 276.39142 7.2 
" style="fill:none;stroke:#000000;stroke-dasharray:0.5,0.825;stroke-dashoffset:0;stroke-width:0.5;"/>
     </g>
     <g id="line2d_8">
      <g>
       <use style="stroke:#000000;stroke-width:0.8;" x="276.39142" xlink:href="#m2eafa1c54f" y="339.84"/>
      </g>
     </g>
     <g id="text_4">
      <!-- 0.003 -->
      <g transform="translate(260.64142 356.56125)scale(0.14 -0.14)">
       <defs>
        <path d="M 325 3431 
Q 506 3859 782 4092 
Q 1059 4325 1472 4325 
Q 1981 4325 2253 3994 
Q 2459 3747 2459 3466 
Q 2459 3003 1878 2509 
Q 2269 2356 2469 2072 
Q 2669 1788 2669 1403 
Q 2669 853 2319 450 
Q 1863 -75 997 -75 
Q 569 -75 414 31 
Q 259 138 259 259 
Q 259 350 332 419 
Q 406 488 509 488 
Q 588 488 669 463 
Q 722 447 909 348 
Q 1097 250 1169 231 
Q 1284 197 1416 197 
Q 1734 197 1970 444 
Q 2206 691 2206 1028 
Q 2206 1275 2097 1509 
Q 2016 1684 1919 1775 
Q 1784 1900 1550 2001 
Q 1316 2103 1072 2103 
L 972 2103 
L 972 2197 
Q 1219 2228 1467 2375 
Q 1716 2522 1828 2728 
Q 1941 2934 1941 3181 
Q 1941 3503 1739 3701 
Q 1538 3900 1238 3900 
Q 753 3900 428 3381 
L 325 3431 
z
" id="TimesNewRomanPSMT-33" transform="scale(0.015625)"/>
       </defs>
       <use xlink:href="#TimesNewRomanPSMT-30"/>
       <use x="50" xlink:href="#TimesNewRomanPSMT-2e"/>
       <use x="75" xlink:href="#TimesNewRomanPSMT-30"/>
       <use x="125" xlink:href="#TimesNewRomanPSMT-30"/>
       <use x="175" xlink:href="#TimesNewRomanPSMT-33"/>
      </g>
     </g>
    </g>
    <g id="xtick_5">
     <g id="line2d_9">
      <path clip-path="url(#pef0b1516e8)" d="M 337.264148 339.84 
L 337.264148 7.2 
" style="fill:none;stroke:#000000;stroke-dasharray:0.5,0.825;stroke-dashoffset:0;stroke-width:0.5;"/>
     </g>
     <g id="line2d_10">
      <g>
       <use style="stroke:#000000;stroke-width:0.8;" x="337.264148" xlink:href="#m2eafa1c54f" y="339.84"/>
      </g>
     </g>
     <g id="text_5">
      <!-- 0.004 -->
      <g transform="translate(321.514148 356.56125)scale(0.14 -0.14)">
       <defs>
        <path d="M 2978 1563 
L 2978 1119 
L 2409 1119 
L 2409 0 
L 1894 0 
L 1894 1119 
L 100 1119 
L 100 1519 
L 2066 4325 
L 2409 4325 
L 2409 1563 
L 2978 1563 
z
M 1894 1563 
L 1894 3666 
L 406 1563 
L 1894 1563 
z
" id="TimesNewRomanPSMT-34" transform="scale(0.015625)"/>
       </defs>
       <use xlink:href="#TimesNewRomanPSMT-30"/>
       <use x="50" xlink:href="#TimesNewRomanPSMT-2e"/>
       <use x="75" xlink:href="#TimesNewRomanPSMT-30"/>
       <use x="125" xlink:href="#TimesNewRomanPSMT-30"/>
       <use x="175" xlink:href="#TimesNewRomanPSMT-34"/>
      </g>
     </g>
    </g>
    <g id="xtick_6">
     <g id="line2d_11">
      <path clip-path="url(#pef0b1516e8)" d="M 398.136875 339.84 
L 398.136875 7.2 
" style="fill:none;stroke:#000000;stroke-dasharray:0.5,0.825;stroke-dashoffset:0;stroke-width:0.5;"/>
     </g>
     <g id="line2d_12">
      <g>
       <use style="stroke:#000000;stroke-width:0.8;" x="398.136875" xlink:href="#m2eafa1c54f" y="339.84"/>
      </g>
     </g>
     <g id="text_6">
      <!-- 0.005 -->
      <g transform="translate(382.386875 356.56125)scale(0.14 -0.14)">
       <defs>
        <path d="M 2778 4238 
L 2534 3706 
L 1259 3706 
L 981 3138 
Q 1809 3016 2294 2522 
Q 2709 2097 2709 1522 
Q 2709 1188 2573 903 
Q 2438 619 2231 419 
Q 2025 219 1772 97 
Q 1413 -75 1034 -75 
Q 653 -75 479 54 
Q 306 184 306 341 
Q 306 428 378 495 
Q 450 563 559 563 
Q 641 563 702 538 
Q 763 513 909 409 
Q 1144 247 1384 247 
Q 1750 247 2026 523 
Q 2303 800 2303 1197 
Q 2303 1581 2056 1914 
Q 1809 2247 1375 2428 
Q 1034 2569 447 2591 
L 1259 4238 
L 2778 4238 
z
" id="TimesNewRomanPSMT-35" transform="scale(0.015625)"/>
       </defs>
       <use xlink:href="#TimesNewRomanPSMT-30"/>
       <use x="50" xlink:href="#TimesNewRomanPSMT-2e"/>
       <use x="75" xlink:href="#TimesNewRomanPSMT-30"/>
       <use x="125" xlink:href="#TimesNewRomanPSMT-30"/>
       <use x="175" xlink:href="#TimesNewRomanPSMT-35"/>
      </g>
     </g>
    </g>
    <g id="text_7">
     <!-- Time (sec) -->
     <g transform="translate(200.858906 373.277188)scale(0.14 -0.14)">
      <defs>
       <path d="M 3703 4238 
L 3750 3244 
L 3631 3244 
Q 3597 3506 3538 3619 
Q 3441 3800 3280 3886 
Q 3119 3972 2856 3972 
L 2259 3972 
L 2259 734 
Q 2259 344 2344 247 
Q 2463 116 2709 116 
L 2856 116 
L 2856 0 
L 1059 0 
L 1059 116 
L 1209 116 
Q 1478 116 1591 278 
Q 1659 378 1659 734 
L 1659 3972 
L 1150 3972 
Q 853 3972 728 3928 
Q 566 3869 450 3700 
Q 334 3531 313 3244 
L 194 3244 
L 244 4238 
L 3703 4238 
z
" id="TimesNewRomanPSMT-54" transform="scale(0.015625)"/>
       <path d="M 928 4444 
Q 1059 4444 1151 4351 
Q 1244 4259 1244 4128 
Q 1244 3997 1151 3903 
Q 1059 3809 928 3809 
Q 797 3809 703 3903 
Q 609 3997 609 4128 
Q 609 4259 701 4351 
Q 794 4444 928 4444 
z
M 1188 2947 
L 1188 647 
Q 1188 378 1227 289 
Q 1266 200 1342 156 
Q 1419 113 1622 113 
L 1622 0 
L 231 0 
L 231 113 
Q 441 113 512 153 
Q 584 194 626 287 
Q 669 381 669 647 
L 669 1750 
Q 669 2216 641 2353 
Q 619 2453 572 2492 
Q 525 2531 444 2531 
Q 356 2531 231 2484 
L 188 2597 
L 1050 2947 
L 1188 2947 
z
" id="TimesNewRomanPSMT-69" transform="scale(0.015625)"/>
       <path d="M 1050 2338 
Q 1363 2650 1419 2697 
Q 1559 2816 1721 2881 
Q 1884 2947 2044 2947 
Q 2313 2947 2506 2790 
Q 2700 2634 2766 2338 
Q 3088 2713 3309 2830 
Q 3531 2947 3766 2947 
Q 3994 2947 4170 2830 
Q 4347 2713 4450 2447 
Q 4519 2266 4519 1878 
L 4519 647 
Q 4519 378 4559 278 
Q 4591 209 4675 161 
Q 4759 113 4950 113 
L 4950 0 
L 3538 0 
L 3538 113 
L 3597 113 
Q 3781 113 3884 184 
Q 3956 234 3988 344 
Q 4000 397 4000 647 
L 4000 1878 
Q 4000 2228 3916 2372 
Q 3794 2572 3525 2572 
Q 3359 2572 3192 2489 
Q 3025 2406 2788 2181 
L 2781 2147 
L 2788 2013 
L 2788 647 
Q 2788 353 2820 281 
Q 2853 209 2943 161 
Q 3034 113 3253 113 
L 3253 0 
L 1806 0 
L 1806 113 
Q 2044 113 2133 169 
Q 2222 225 2256 338 
Q 2272 391 2272 647 
L 2272 1878 
Q 2272 2228 2169 2381 
Q 2031 2581 1784 2581 
Q 1616 2581 1450 2491 
Q 1191 2353 1050 2181 
L 1050 647 
Q 1050 366 1089 281 
Q 1128 197 1204 155 
Q 1281 113 1516 113 
L 1516 0 
L 100 0 
L 100 113 
Q 297 113 375 155 
Q 453 197 493 289 
Q 534 381 534 647 
L 534 1741 
Q 534 2213 506 2350 
Q 484 2453 437 2492 
Q 391 2531 309 2531 
Q 222 2531 100 2484 
L 53 2597 
L 916 2947 
L 1050 2947 
L 1050 2338 
z
" id="TimesNewRomanPSMT-6d" transform="scale(0.015625)"/>
       <path d="M 681 1784 
Q 678 1147 991 784 
Q 1303 422 1725 422 
Q 2006 422 2214 576 
Q 2422 731 2563 1106 
L 2659 1044 
Q 2594 616 2278 264 
Q 1963 -88 1488 -88 
Q 972 -88 605 314 
Q 238 716 238 1394 
Q 238 2128 614 2539 
Q 991 2950 1559 2950 
Q 2041 2950 2350 2633 
Q 2659 2316 2659 1784 
L 681 1784 
z
M 681 1966 
L 2006 1966 
Q 1991 2241 1941 2353 
Q 1863 2528 1708 2628 
Q 1553 2728 1384 2728 
Q 1125 2728 920 2526 
Q 716 2325 681 1966 
z
" id="TimesNewRomanPSMT-65" transform="scale(0.015625)"/>
       <path id="TimesNewRomanPSMT-20" transform="scale(0.015625)"/>
       <path d="M 1988 -1253 
L 1988 -1369 
Q 1516 -1131 1200 -813 
Q 750 -359 506 256 
Q 263 872 263 1534 
Q 263 2503 741 3301 
Q 1219 4100 1988 4444 
L 1988 4313 
Q 1603 4100 1356 3731 
Q 1109 3363 987 2797 
Q 866 2231 866 1616 
Q 866 947 969 400 
Q 1050 -31 1165 -292 
Q 1281 -553 1476 -793 
Q 1672 -1034 1988 -1253 
z
" id="TimesNewRomanPSMT-28" transform="scale(0.015625)"/>
       <path d="M 2050 2947 
L 2050 1972 
L 1947 1972 
Q 1828 2431 1642 2597 
Q 1456 2763 1169 2763 
Q 950 2763 815 2647 
Q 681 2531 681 2391 
Q 681 2216 781 2091 
Q 878 1963 1175 1819 
L 1631 1597 
Q 2266 1288 2266 781 
Q 2266 391 1970 151 
Q 1675 -88 1309 -88 
Q 1047 -88 709 6 
Q 606 38 541 38 
Q 469 38 428 -44 
L 325 -44 
L 325 978 
L 428 978 
Q 516 541 762 319 
Q 1009 97 1316 97 
Q 1531 97 1667 223 
Q 1803 350 1803 528 
Q 1803 744 1651 891 
Q 1500 1038 1047 1263 
Q 594 1488 453 1669 
Q 313 1847 313 2119 
Q 313 2472 555 2709 
Q 797 2947 1181 2947 
Q 1350 2947 1591 2875 
Q 1750 2828 1803 2828 
Q 1853 2828 1881 2850 
Q 1909 2872 1947 2947 
L 2050 2947 
z
" id="TimesNewRomanPSMT-73" transform="scale(0.015625)"/>
       <path d="M 2631 1088 
Q 2516 522 2178 217 
Q 1841 -88 1431 -88 
Q 944 -88 581 321 
Q 219 731 219 1428 
Q 219 2103 620 2525 
Q 1022 2947 1584 2947 
Q 2006 2947 2278 2723 
Q 2550 2500 2550 2259 
Q 2550 2141 2473 2067 
Q 2397 1994 2259 1994 
Q 2075 1994 1981 2113 
Q 1928 2178 1911 2362 
Q 1894 2547 1784 2644 
Q 1675 2738 1481 2738 
Q 1169 2738 978 2506 
Q 725 2200 725 1697 
Q 725 1184 976 792 
Q 1228 400 1656 400 
Q 1963 400 2206 609 
Q 2378 753 2541 1131 
L 2631 1088 
z
" id="TimesNewRomanPSMT-63" transform="scale(0.015625)"/>
       <path d="M 144 4313 
L 144 4444 
Q 619 4209 934 3891 
Q 1381 3434 1625 2820 
Q 1869 2206 1869 1541 
Q 1869 572 1392 -226 
Q 916 -1025 144 -1369 
L 144 -1253 
Q 528 -1038 776 -670 
Q 1025 -303 1145 264 
Q 1266 831 1266 1447 
Q 1266 2113 1163 2663 
Q 1084 3094 967 3353 
Q 850 3613 656 3853 
Q 463 4094 144 4313 
z
" id="TimesNewRomanPSMT-29" transform="scale(0.015625)"/>
      </defs>
      <use xlink:href="#TimesNewRomanPSMT-54"/>
      <use x="57.583984" xlink:href="#TimesNewRomanPSMT-69"/>
      <use x="85.367188" xlink:href="#TimesNewRomanPSMT-6d"/>
      <use x="163.150391" xlink:href="#TimesNewRomanPSMT-65"/>
      <use x="207.535156" xlink:href="#TimesNewRomanPSMT-20"/>
      <use x="232.535156" xlink:href="#TimesNewRomanPSMT-28"/>
      <use x="265.835938" xlink:href="#TimesNewRomanPSMT-73"/>
      <use x="304.751953" xlink:href="#TimesNewRomanPSMT-65"/>
      <use x="349.136719" xlink:href="#TimesNewRomanPSMT-63"/>
      <use x="393.521484" xlink:href="#TimesNewRomanPSMT-29"/>
     </g>
    </g>
   </g>
   <g id="matplotlib.axis_2">
    <g id="ytick_1">
     <g id="line2d_13">
      <path clip-path="url(#pef0b1516e8)" d="M 63.336875 297.206542 
L 398.136875 297.206542 
" style="fill:none;stroke:#000000;stroke-dasharray:0.5,0.825;stroke-dashoffset:0;stroke-width:0.5;"/>
     </g>
     <g id="line2d_14">
      <defs>
       <path d="M 0 0 
L -3.5 0 
" id="mb8dd53dacd" style="stroke:#000000;stroke-width:0.8;"/>
      </defs>
      <g>
       <use style="stroke:#000000;stroke-width:0.8;" x="63.336875" xlink:href="#mb8dd53dacd" y="297.206542"/>
      </g>
     </g>
     <g id="text_8">
      <!-- −0.06 -->
      <g transform="translate(23.942188 302.067167)scale(0.14 -0.14)">
       <defs>
        <path d="M 3484 2000 
L 116 2000 
L 116 2256 
L 3484 2256 
L 3484 2000 
z
" id="TimesNewRomanPSMT-2212" transform="scale(0.015625)"/>
        <path d="M 2869 4325 
L 2869 4209 
Q 2456 4169 2195 4045 
Q 1934 3922 1679 3669 
Q 1425 3416 1258 3105 
Q 1091 2794 978 2366 
Q 1428 2675 1881 2675 
Q 2316 2675 2634 2325 
Q 2953 1975 2953 1425 
Q 2953 894 2631 456 
Q 2244 -75 1606 -75 
Q 1172 -75 869 213 
Q 275 772 275 1663 
Q 275 2231 503 2743 
Q 731 3256 1154 3653 
Q 1578 4050 1965 4187 
Q 2353 4325 2688 4325 
L 2869 4325 
z
M 925 2138 
Q 869 1716 869 1456 
Q 869 1156 980 804 
Q 1091 453 1309 247 
Q 1469 100 1697 100 
Q 1969 100 2183 356 
Q 2397 613 2397 1088 
Q 2397 1622 2184 2012 
Q 1972 2403 1581 2403 
Q 1463 2403 1327 2353 
Q 1191 2303 925 2138 
z
" id="TimesNewRomanPSMT-36" transform="scale(0.015625)"/>
       </defs>
       <use xlink:href="#TimesNewRomanPSMT-2212"/>
       <use x="56.396484" xlink:href="#TimesNewRomanPSMT-30"/>
       <use x="106.396484" xlink:href="#TimesNewRomanPSMT-2e"/>
       <use x="131.396484" xlink:href="#TimesNewRomanPSMT-30"/>
       <use x="181.396484" xlink:href="#TimesNewRomanPSMT-36"/>
      </g>
     </g>
    </g>
    <g id="ytick_2">
     <g id="line2d_15">
      <path clip-path="url(#pef0b1516e8)" d="M 63.336875 249.813066 
L 398.136875 249.813066 
" style="fill:none;stroke:#000000;stroke-dasharray:0.5,0.825;stroke-dashoffset:0;stroke-width:0.5;"/>
     </g>
     <g id="line2d_16">
      <g>
       <use style="stroke:#000000;stroke-width:0.8;" x="63.336875" xlink:href="#mb8dd53dacd" y="249.813066"/>
      </g>
     </g>
     <g id="text_9">
      <!-- −0.04 -->
      <g transform="translate(23.942188 254.673691)scale(0.14 -0.14)">
       <use xlink:href="#TimesNewRomanPSMT-2212"/>
       <use x="56.396484" xlink:href="#TimesNewRomanPSMT-30"/>
       <use x="106.396484" xlink:href="#TimesNewRomanPSMT-2e"/>
       <use x="131.396484" xlink:href="#TimesNewRomanPSMT-30"/>
       <use x="181.396484" xlink:href="#TimesNewRomanPSMT-34"/>
      </g>
     </g>
    </g>
    <g id="ytick_3">
     <g id="line2d_17">
      <path clip-path="url(#pef0b1516e8)" d="M 63.336875 202.41959 
L 398.136875 202.41959 
" style="fill:none;stroke:#000000;stroke-dasharray:0.5,0.825;stroke-dashoffset:0;stroke-width:0.5;"/>
     </g>
     <g id="line2d_18">
      <g>
       <use style="stroke:#000000;stroke-width:0.8;" x="63.336875" xlink:href="#mb8dd53dacd" y="202.41959"/>
      </g>
     </g>
     <g id="text_10">
      <!-- −0.02 -->
      <g transform="translate(23.942188 207.280215)scale(0.14 -0.14)">
       <use xlink:href="#TimesNewRomanPSMT-2212"/>
       <use x="56.396484" xlink:href="#TimesNewRomanPSMT-30"/>
       <use x="106.396484" xlink:href="#TimesNewRomanPSMT-2e"/>
       <use x="131.396484" xlink:href="#TimesNewRomanPSMT-30"/>
       <use x="181.396484" xlink:href="#TimesNewRomanPSMT-32"/>
      </g>
     </g>
    </g>
    <g id="ytick_4">
     <g id="line2d_19">
      <path clip-path="url(#pef0b1516e8)" d="M 63.336875 155.026114 
L 398.136875 155.026114 
" style="fill:none;stroke:#000000;stroke-dasharray:0.5,0.825;stroke-dashoffset:0;stroke-width:0.5;"/>
     </g>
     <g id="line2d_20">
      <g>
       <use style="stroke:#000000;stroke-width:0.8;" x="63.336875" xlink:href="#mb8dd53dacd" y="155.026114"/>
      </g>
     </g>
     <g id="text_11">
      <!-- 0.00 -->
      <g transform="translate(31.836875 159.886739)scale(0.14 -0.14)">
       <use xlink:href="#TimesNewRomanPSMT-30"/>
       <use x="50" xlink:href="#TimesNewRomanPSMT-2e"/>
       <use x="75" xlink:href="#TimesNewRomanPSMT-30"/>
       <use x="125" xlink:href="#TimesNewRomanPSMT-30"/>
      </g>
     </g>
    </g>
    <g id="ytick_5">
     <g id="line2d_21">
      <path clip-path="url(#pef0b1516e8)" d="M 63.336875 107.632638 
L 398.136875 107.632638 
" style="fill:none;stroke:#000000;stroke-dasharray:0.5,0.825;stroke-dashoffset:0;stroke-width:0.5;"/>
     </g>
     <g id="line2d_22">
      <g>
       <use style="stroke:#000000;stroke-width:0.8;" x="63.336875" xlink:href="#mb8dd53dacd" y="107.632638"/>
      </g>
     </g>
     <g id="text_12">
      <!-- 0.02 -->
      <g transform="translate(31.836875 112.493263)scale(0.14 -0.14)">
       <use xlink:href="#TimesNewRomanPSMT-30"/>
       <use x="50" xlink:href="#TimesNewRomanPSMT-2e"/>
       <use x="75" xlink:href="#TimesNewRomanPSMT-30"/>
       <use x="125" xlink:href="#TimesNewRomanPSMT-32"/>
      </g>
     </g>
    </g>
    <g id="ytick_6">
     <g id="line2d_23">
      <path clip-path="url(#pef0b1516e8)" d="M 63.336875 60.239162 
L 398.136875 60.239162 
" style="fill:none;stroke:#000000;stroke-dasharray:0.5,0.825;stroke-dashoffset:0;stroke-width:0.5;"/>
     </g>
     <g id="line2d_24">
      <g>
       <use style="stroke:#000000;stroke-width:0.8;" x="63.336875" xlink:href="#mb8dd53dacd" y="60.239162"/>
      </g>
     </g>
     <g id="text_13">
      <!-- 0.04 -->
      <g transform="translate(31.836875 65.099787)scale(0.14 -0.14)">
       <use xlink:href="#TimesNewRomanPSMT-30"/>
       <use x="50" xlink:href="#TimesNewRomanPSMT-2e"/>
       <use x="75" xlink:href="#TimesNewRomanPSMT-30"/>
       <use x="125" xlink:href="#TimesNewRomanPSMT-34"/>
      </g>
     </g>
    </g>
    <g id="ytick_7">
     <g id="line2d_25">
      <path clip-path="url(#pef0b1516e8)" d="M 63.336875 12.845686 
L 398.136875 12.845686 
" style="fill:none;stroke:#000000;stroke-dasharray:0.5,0.825;stroke-dashoffset:0;stroke-width:0.5;"/>
     </g>
     <g id="line2d_26">
      <g>
       <use style="stroke:#000000;stroke-width:0.8;" x="63.336875" xlink:href="#mb8dd53dacd" y="12.845686"/>
      </g>
     </g>
     <g id="text_14">
      <!-- 0.06 -->
      <g transform="translate(31.836875 17.706311)scale(0.14 -0.14)">
       <use xlink:href="#TimesNewRomanPSMT-30"/>
       <use x="50" xlink:href="#TimesNewRomanPSMT-2e"/>
       <use x="75" xlink:href="#TimesNewRomanPSMT-30"/>
       <use x="125" xlink:href="#TimesNewRomanPSMT-36"/>
      </g>
     </g>
    </g>
    <g id="text_15">
     <!-- Volatage (V) -->
     <g transform="translate(16.92125 209.352344)rotate(-90)scale(0.14 -0.14)">
      <defs>
       <path d="M 4544 4238 
L 4544 4122 
Q 4319 4081 4203 3978 
Q 4038 3825 3909 3509 
L 2431 -97 
L 2316 -97 
L 728 3556 
Q 606 3838 556 3900 
Q 478 3997 364 4051 
Q 250 4106 56 4122 
L 56 4238 
L 1788 4238 
L 1788 4122 
Q 1494 4094 1406 4022 
Q 1319 3950 1319 3838 
Q 1319 3681 1463 3350 
L 2541 866 
L 3541 3319 
Q 3688 3681 3688 3822 
Q 3688 3913 3597 3995 
Q 3506 4078 3291 4113 
Q 3275 4116 3238 4122 
L 3238 4238 
L 4544 4238 
z
" id="TimesNewRomanPSMT-56" transform="scale(0.015625)"/>
       <path d="M 1600 2947 
Q 2250 2947 2644 2453 
Q 2978 2031 2978 1484 
Q 2978 1100 2793 706 
Q 2609 313 2286 112 
Q 1963 -88 1566 -88 
Q 919 -88 538 428 
Q 216 863 216 1403 
Q 216 1797 411 2186 
Q 606 2575 925 2761 
Q 1244 2947 1600 2947 
z
M 1503 2744 
Q 1338 2744 1170 2645 
Q 1003 2547 900 2300 
Q 797 2053 797 1666 
Q 797 1041 1045 587 
Q 1294 134 1700 134 
Q 2003 134 2200 384 
Q 2397 634 2397 1244 
Q 2397 2006 2069 2444 
Q 1847 2744 1503 2744 
z
" id="TimesNewRomanPSMT-6f" transform="scale(0.015625)"/>
       <path d="M 1184 4444 
L 1184 647 
Q 1184 378 1223 290 
Q 1263 203 1344 158 
Q 1425 113 1647 113 
L 1647 0 
L 244 0 
L 244 113 
Q 441 113 512 153 
Q 584 194 625 287 
Q 666 381 666 647 
L 666 3247 
Q 666 3731 644 3842 
Q 622 3953 573 3993 
Q 525 4034 450 4034 
Q 369 4034 244 3984 
L 191 4094 
L 1044 4444 
L 1184 4444 
z
" id="TimesNewRomanPSMT-6c" transform="scale(0.015625)"/>
       <path d="M 1822 413 
Q 1381 72 1269 19 
Q 1100 -59 909 -59 
Q 613 -59 420 144 
Q 228 347 228 678 
Q 228 888 322 1041 
Q 450 1253 767 1440 
Q 1084 1628 1822 1897 
L 1822 2009 
Q 1822 2438 1686 2597 
Q 1550 2756 1291 2756 
Q 1094 2756 978 2650 
Q 859 2544 859 2406 
L 866 2225 
Q 866 2081 792 2003 
Q 719 1925 600 1925 
Q 484 1925 411 2006 
Q 338 2088 338 2228 
Q 338 2497 613 2722 
Q 888 2947 1384 2947 
Q 1766 2947 2009 2819 
Q 2194 2722 2281 2516 
Q 2338 2381 2338 1966 
L 2338 994 
Q 2338 584 2353 492 
Q 2369 400 2405 369 
Q 2441 338 2488 338 
Q 2538 338 2575 359 
Q 2641 400 2828 588 
L 2828 413 
Q 2478 -56 2159 -56 
Q 2006 -56 1915 50 
Q 1825 156 1822 413 
z
M 1822 616 
L 1822 1706 
Q 1350 1519 1213 1441 
Q 966 1303 859 1153 
Q 753 1003 753 825 
Q 753 600 887 451 
Q 1022 303 1197 303 
Q 1434 303 1822 616 
z
" id="TimesNewRomanPSMT-61" transform="scale(0.015625)"/>
       <path d="M 1031 3803 
L 1031 2863 
L 1700 2863 
L 1700 2644 
L 1031 2644 
L 1031 788 
Q 1031 509 1111 412 
Q 1191 316 1316 316 
Q 1419 316 1516 380 
Q 1613 444 1666 569 
L 1788 569 
Q 1678 263 1478 108 
Q 1278 -47 1066 -47 
Q 922 -47 784 33 
Q 647 113 581 261 
Q 516 409 516 719 
L 516 2644 
L 63 2644 
L 63 2747 
Q 234 2816 414 2980 
Q 594 3144 734 3369 
Q 806 3488 934 3803 
L 1031 3803 
z
" id="TimesNewRomanPSMT-74" transform="scale(0.015625)"/>
       <path d="M 966 1044 
Q 703 1172 562 1401 
Q 422 1631 422 1909 
Q 422 2334 742 2640 
Q 1063 2947 1563 2947 
Q 1972 2947 2272 2747 
L 2878 2747 
Q 3013 2747 3034 2739 
Q 3056 2731 3066 2713 
Q 3084 2684 3084 2613 
Q 3084 2531 3069 2500 
Q 3059 2484 3036 2475 
Q 3013 2466 2878 2466 
L 2506 2466 
Q 2681 2241 2681 1891 
Q 2681 1491 2375 1206 
Q 2069 922 1553 922 
Q 1341 922 1119 984 
Q 981 866 932 777 
Q 884 688 884 625 
Q 884 572 936 522 
Q 988 472 1138 450 
Q 1225 438 1575 428 
Q 2219 413 2409 384 
Q 2700 344 2873 169 
Q 3047 -6 3047 -263 
Q 3047 -616 2716 -925 
Q 2228 -1381 1444 -1381 
Q 841 -1381 425 -1109 
Q 191 -953 191 -784 
Q 191 -709 225 -634 
Q 278 -519 444 -313 
Q 466 -284 763 25 
Q 600 122 533 198 
Q 466 275 466 372 
Q 466 481 555 628 
Q 644 775 966 1044 
z
M 1509 2797 
Q 1278 2797 1122 2612 
Q 966 2428 966 2047 
Q 966 1553 1178 1281 
Q 1341 1075 1591 1075 
Q 1828 1075 1981 1253 
Q 2134 1431 2134 1813 
Q 2134 2309 1919 2591 
Q 1759 2797 1509 2797 
z
M 934 0 
Q 788 -159 713 -296 
Q 638 -434 638 -550 
Q 638 -700 819 -813 
Q 1131 -1006 1722 -1006 
Q 2284 -1006 2551 -807 
Q 2819 -609 2819 -384 
Q 2819 -222 2659 -153 
Q 2497 -84 2016 -72 
Q 1313 -53 934 0 
z
" id="TimesNewRomanPSMT-67" transform="scale(0.015625)"/>
      </defs>
      <use xlink:href="#TimesNewRomanPSMT-56"/>
      <use x="59.341797" xlink:href="#TimesNewRomanPSMT-6f"/>
      <use x="109.341797" xlink:href="#TimesNewRomanPSMT-6c"/>
      <use x="137.125" xlink:href="#TimesNewRomanPSMT-61"/>
      <use x="181.509766" xlink:href="#TimesNewRomanPSMT-74"/>
      <use x="209.292969" xlink:href="#TimesNewRomanPSMT-61"/>
      <use x="253.677734" xlink:href="#TimesNewRomanPSMT-67"/>
      <use x="303.677734" xlink:href="#TimesNewRomanPSMT-65"/>
      <use x="348.0625" xlink:href="#TimesNewRomanPSMT-20"/>
      <use x="373.0625" xlink:href="#TimesNewRomanPSMT-28"/>
      <use x="406.363281" xlink:href="#TimesNewRomanPSMT-56"/>
      <use x="478.580078" xlink:href="#TimesNewRomanPSMT-29"/>
     </g>
    </g>
   </g>
   <g id="LineCollection_1">
    <path clip-path="url(#pef0b1516e8)" d="M 78.555057 155.026114 
L 382.918693 155.026114 
" style="fill:none;stroke:#1f77b4;stroke-width:1.5;"/>
   </g>
   <g id="line2d_27">
    <path clip-path="url(#pef0b1516e8)" d="M 78.555057 154.992109 
L 78.737675 155.02173 
L 85.494548 155.080972 
L 85.524984 155.140214 
L 85.616293 155.080972 
L 85.798911 155.110593 
L 85.920657 155.080972 
L 86.103275 155.110593 
L 86.285893 155.051351 
L 86.468511 155.110593 
L 86.620693 155.110593 
L 100.71273 155.169835 
L 100.834475 155.199456 
L 100.95622 155.169835 
L 101.138839 155.199456 
L 107.773966 155.288319 
L 107.926148 155.288319 
L 113.191639 155.347561 
L 113.313384 155.406802 
L 113.465566 155.406802 
L 113.617748 155.406802 
L 114.68302 155.495665 
L 114.865639 155.525286 
L 115.01782 155.525286 
L 115.230875 155.584528 
L 115.35262 155.554907 
L 115.504802 155.614149 
L 115.656984 155.614149 
L 115.839602 155.673391 
L 115.991784 155.64377 
L 116.11353 155.732632 
L 116.143966 155.703012 
L 116.326584 155.732632 
L 116.904875 155.821495 
L 117.057057 155.851116 
L 117.148366 155.851116 
L 117.270111 155.939979 
L 117.300548 155.910358 
L 117.513602 155.9696 
L 117.665784 155.939979 
L 117.848402 155.999221 
L 118.000584 155.999221 
L 118.152766 156.028842 
L 118.183202 155.9696 
L 118.274511 156.028842 
L 118.639748 156.117704 
L 118.852802 156.176946 
L 119.004984 156.176946 
L 119.644148 156.236188 
L 119.765893 156.29543 
L 119.918075 156.29543 
L 121.561639 156.384293 
L 121.744257 156.443535 
L 121.926875 156.413914 
L 122.170366 156.502776 
L 122.322548 156.502776 
L 122.839966 156.591639 
L 123.05302 156.650881 
L 123.38782 156.710123 
L 123.47913 156.769365 
L 123.509566 156.739744 
L 123.631311 156.769365 
L 123.966111 156.858228 
L 124.270475 157.035953 
L 124.422657 157.035953 
L 124.635711 157.124816 
L 124.757457 157.154437 
L 125.122693 157.361783 
L 125.244439 157.450646 
L 125.761857 157.806097 
L 125.853166 157.89496 
L 126.888002 159.050176 
L 127.131493 159.435248 
L 127.192366 159.464869 
L 127.40542 159.879562 
L 128.83593 162.871275 
L 129.17073 163.730282 
L 131.057784 169.565604 
L 132.457857 174.57154 
L 133.127457 176.85235 
L 133.614439 178.333397 
L 133.888366 179.103541 
L 136.11022 185.323934 
L 136.140657 185.294313 
L 136.171093 185.353555 
L 136.44502 185.82749 
L 137.601602 186.80498 
L 137.936402 186.893843 
L 138.11902 186.923464 
L 138.636439 186.864222 
L 138.849493 186.656876 
L 138.940802 186.568013 
L 139.45822 185.916353 
L 139.79302 185.264692 
L 140.158257 184.316823 
L 140.919166 181.799044 
L 142.958402 171.402101 
L 143.536693 167.758727 
L 144.662839 159.346385 
L 147.067311 137.308419 
L 148.345639 123.801278 
L 153.398075 70.898313 
L 154.798148 59.583116 
L 155.95473 52.444481 
L 156.989566 47.942093 
L 157.96353 45.365078 
L 158.085275 45.27621 
L 158.328766 45.18735 
L 158.846184 45.27621 
L 159.333166 45.868629 
L 160.520184 49.630483 
L 161.281093 53.836657 
L 162.31593 61.626962 
L 162.833348 66.484795 
L 164.081239 80.999047 
L 165.57262 102.770423 
L 167.398802 134.790641 
L 174.338293 267.758959 
L 175.434002 284.050469 
L 176.134039 293.32182 
L 178.173275 314.056463 
L 179.147239 319.951034 
L 179.877711 322.972358 
L 180.273384 323.80174 
L 180.790802 324.601514 
L 180.882111 324.63114 
L 181.003857 324.72 
L 181.034293 324.690374 
L 181.125602 324.660749 
L 181.582148 324.097963 
L 181.947384 323.35744 
L 182.038693 323.179703 
L 182.373493 322.083743 
L 182.799602 320.010269 
L 183.712693 314.086089 
L 185.32582 298.979411 
L 186.269348 287.693837 
L 186.908511 278.955672 
L 188.491202 254.251821 
L 190.591311 215.537277 
L 191.747893 192.107125 
L 197.04382 91.188645 
L 198.230839 73.29761 
L 201.030984 41.869804 
L 201.73102 36.123345 
L 202.674548 30.436128 
L 203.73982 25.785648 
L 204.40942 23.623316 
L 204.957275 22.793932 
L 205.048584 22.734691 
L 205.292075 22.497718 
L 205.566002 22.32 
L 205.687748 22.349616 
L 205.779057 22.379242 
L 206.722584 23.445595 
L 207.42262 25.045125 
L 208.85313 31.028549 
L 210.648875 42.166018 
L 212.170693 53.185001 
L 212.505493 55.791642 
L 216.766584 94.061874 
L 217.253566 98.505008 
L 217.679675 102.148386 
L 218.379711 108.457638 
L 219.171057 115.092727 
L 220.936366 129.577358 
L 222.336439 139.61885 
L 223.219093 145.424551 
L 223.675639 148.475507 
L 224.649602 153.511063 
L 226.140984 160.235013 
L 228.18022 167.729106 
L 228.27153 167.966073 
L 229.215057 171.194754 
L 229.51942 172.02414 
L 231.680402 178.629605 
L 232.045639 179.932926 
L 232.228257 180.525345 
L 233.050039 184.168718 
L 233.62833 186.893843 
L 233.780511 187.634366 
L 234.63273 192.284851 
L 235.21102 195.483913 
L 235.576257 197.794345 
L 236.915457 206.265926 
L 237.463311 209.701953 
L 238.65033 217.284909 
L 240.506948 229.192518 
L 241.085239 232.539682 
L 241.815711 236.18306 
L 242.24182 238.286141 
L 243.00273 241.455585 
L 244.859348 248.238773 
L 245.163711 248.831192 
L 245.68113 249.186641 
L 245.863748 249.157024 
L 245.985493 249.157024 
L 246.168111 249.09778 
L 246.289857 249.068164 
L 246.807275 248.475743 
L 247.081202 247.853699 
L 247.659493 246.491139 
L 248.02473 245.247058 
L 249.120439 240.537334 
L 249.729166 237.071686 
L 251.61622 223.475682 
L 252.498875 215.774242 
L 255.420766 186.271804 
L 256.790402 171.550205 
L 258.06873 159.050176 
L 259.529675 145.898486 
L 260.838439 135.383059 
L 262.32982 125.963605 
L 263.09073 122.172127 
L 265.069093 114.915004 
L 265.312584 114.23372 
L 265.556075 113.552439 
L 266.043057 112.456465 
L 266.256111 112.101011 
L 267.047457 110.76807 
L 267.077893 110.797691 
L 267.138766 110.708833 
L 267.808366 110.205277 
L 267.990984 110.116412 
L 268.234475 110.027547 
L 269.817166 110.116412 
L 270.182402 110.323758 
L 270.273711 110.412621 
L 270.79113 111.064279 
L 272.160766 113.967132 
L 274.291311 119.861695 
L 274.534802 120.513356 
L 274.778293 121.224258 
L 275.113093 122.112885 
L 275.539202 123.327343 
L 275.843566 124.156729 
L 277.000148 127.207684 
L 277.304511 128.03707 
L 277.669748 129.044181 
L 278.034984 129.992051 
L 278.430657 131.088025 
L 279.130693 132.806039 
L 282.296075 138.759843 
L 282.356948 138.848707 
L 282.661311 139.411504 
L 282.965675 139.855819 
L 283.391784 140.448236 
L 283.483093 140.537099 
L 283.939639 141.218381 
L 284.000511 141.277623 
L 284.335311 141.692315 
L 284.365748 141.662695 
L 284.396184 141.721936 
L 284.670111 142.047766 
L 284.76142 142.13663 
L 285.065784 142.49208 
L 285.826693 143.084499 
L 285.978875 143.14374 
L 286.161493 143.262224 
L 286.43542 143.380707 
L 286.557166 143.380707 
L 286.77022 143.46957 
L 286.831093 143.410329 
L 286.891966 143.46957 
L 287.43982 143.380707 
L 287.683311 143.291845 
L 287.805057 143.291845 
L 287.987675 143.14374 
L 288.10942 143.14374 
L 288.931202 142.49208 
L 288.961639 142.521702 
L 289.022511 142.432838 
L 290.20953 141.129518 
L 290.54433 140.685204 
L 290.635639 140.596341 
L 291.487857 139.174537 
L 291.822657 138.700602 
L 293.46622 135.264575 
L 296.327239 126.585645 
L 297.514257 122.409095 
L 297.970802 120.779944 
L 298.336039 119.535865 
L 300.131784 114.618794 
L 300.223093 114.441064 
L 300.527457 113.641299 
L 300.58833 113.552439 
L 301.227493 112.54533 
L 301.92753 111.715942 
L 302.110148 111.597458 
L 302.566693 111.686321 
L 302.718875 111.745565 
L 303.662402 112.811918 
L 304.392875 114.470687 
L 304.788548 115.566662 
L 305.27553 117.284673 
L 307.345202 127.888965 
L 307.923493 131.88779 
L 309.354002 143.884264 
L 311.728039 168.054936 
L 316.841348 221.668806 
L 319.093639 238.375011 
L 319.702366 241.277857 
L 320.34153 243.884498 
L 321.528548 247.053934 
L 321.58942 247.142802 
L 322.472075 247.853699 
L 322.92862 247.764839 
L 323.202548 247.468634 
L 323.26342 247.379764 
L 324.085202 245.543272 
L 326.27662 236.597751 
L 328.650657 222.083501 
L 329.898548 212.871392 
L 331.024693 203.955494 
L 331.481239 200.134398 
L 335.498839 163.99687 
L 336.198875 157.657993 
L 338.451166 138.878328 
L 340.155602 126.526403 
L 341.281748 118.617614 
L 342.164402 112.811918 
L 343.320984 105.673273 
L 343.534039 104.399574 
L 345.45153 93.854523 
L 346.729857 88.167308 
L 347.612511 85.175598 
L 347.79513 84.612798 
L 348.190802 83.516823 
L 349.13433 81.058289 
L 349.286511 80.762075 
L 350.169166 79.281032 
L 351.38662 78.244304 
L 351.569239 78.155434 
L 351.843166 78.036948 
L 352.14753 77.948088 
L 352.360584 77.888846 
L 353.304111 77.888846 
L 353.39542 78.007332 
L 353.425857 77.977713 
L 353.82153 78.214676 
L 353.973711 78.303536 
L 354.217202 78.540509 
L 354.247639 78.510892 
L 354.278075 78.59975 
L 354.704184 79.132927 
L 354.917239 79.488376 
L 354.978111 79.577246 
L 355.221602 79.96231 
L 356.195566 82.095017 
L 357.595639 86.478918 
L 358.113057 88.463518 
L 358.447857 89.737217 
L 359.452257 94.09149 
L 360.000111 96.668515 
L 360.700148 100.134161 
L 361.065384 101.941035 
L 361.52193 104.310711 
L 362.76982 110.945798 
L 363.682911 115.922115 
L 364.352511 119.743212 
L 366.87873 135.146092 
L 367.426584 138.582118 
L 369.100584 149.008683 
L 370.348475 156.769365 
L 373.48342 175.726756 
L 374.700875 183.28009 
L 375.096548 185.738627 
L 377.014039 197.557377 
L 377.683639 201.911651 
L 379.235893 211.745797 
L 379.692439 214.500545 
L 381.762111 225.934219 
L 382.309966 228.481618 
L 382.736075 230.347731 
L 382.918693 231.088264 
L 382.918693 231.088264 
" style="fill:none;stroke:#0000ff;stroke-linecap:square;stroke-width:1.5;"/>
   </g>
   <g id="line2d_28">
    <path clip-path="url(#pef0b1516e8)" d="M 78.555057 155.111245 
L 82.176984 155.022382 
L 82.329166 155.007572 
L 82.603093 155.022382 
L 92.160111 154.933519 
L 92.312293 154.918709 
L 98.36913 154.815036 
L 98.643057 154.800225 
L 101.017093 154.903898 
L 101.656257 155.096434 
L 101.899748 155.200108 
L 102.812839 155.762905 
L 103.878111 156.932932 
L 104.517275 157.940043 
L 104.912948 158.695376 
L 106.769566 163.493966 
L 107.256548 164.945391 
L 108.41313 168.648006 
L 109.143602 171.062111 
L 109.478402 172.158086 
L 110.056693 173.979772 
L 111.578511 178.08227 
L 112.369857 179.726231 
L 113.130766 180.97031 
L 113.587311 181.444245 
L 113.709057 181.547918 
L 114.196039 181.873748 
L 115.048257 181.770075 
L 115.44393 181.518297 
L 115.626548 181.414624 
L 116.539639 179.903957 
L 117.69622 176.823382 
L 118.944111 172.187706 
L 120.46593 165.049065 
L 121.80513 157.303193 
L 123.783493 144.077451 
L 125.427057 132.880743 
L 126.979311 123.757498 
L 129.718584 109.68756 
L 131.331711 104.548328 
L 131.696948 103.615273 
L 132.670911 100.6828 
L 133.462257 99.038841 
L 134.375348 97.498548 
L 135.927602 95.425084 
L 137.236366 94.284678 
L 138.301639 94.388351 
L 138.484257 94.595703 
L 138.727748 94.980772 
L 139.275602 96.269285 
L 141.22353 102.282332 
L 142.13662 106.281152 
L 143.110584 111.553678 
L 144.48022 120.9287 
L 145.81942 130.777657 
L 147.554293 146.047242 
L 151.26753 182.88086 
L 152.119748 191.293202 
L 153.367639 202.904603 
L 155.254693 217.641015 
L 156.593893 225.401694 
L 157.993966 231.074098 
L 158.572257 232.436665 
L 159.485348 233.991766 
L 160.033202 234.376831 
L 160.88542 234.287971 
L 161.463711 233.577066 
L 162.528984 231.281442 
L 162.98553 229.622678 
L 164.172548 223.9947 
L 166.211784 209.361964 
L 167.550984 197.380299 
L 170.807675 166.752268 
L 173.881748 140.774718 
L 176.164475 125.979068 
L 177.168875 121.639602 
L 178.081966 118.914478 
L 178.812439 118.011039 
L 178.903748 117.936987 
L 179.329857 117.492673 
L 180.121202 117.226085 
L 180.577748 117.122414 
L 180.821239 117.122414 
L 181.186475 117.418623 
L 181.795202 118.499785 
L 183.195275 122.928112 
L 184.686657 129.163317 
L 185.264948 131.918062 
L 185.75193 134.258115 
L 189.799966 154.489205 
L 190.408693 157.406866 
L 191.35222 161.06505 
L 192.35662 164.871338 
L 193.513202 169.477392 
L 193.908875 170.70666 
L 194.821966 173.446595 
L 195.856802 176.230962 
L 196.222039 177.11959 
L 197.104693 178.600636 
L 197.987348 179.326349 
L 198.200402 179.341159 
L 198.778693 179.237486 
L 199.083057 178.970898 
L 199.752657 177.445421 
L 200.787493 174.113066 
L 202.796293 164.826907 
L 203.73982 159.213743 
L 210.52713 113.730816 
L 211.988075 105.83684 
L 214.483857 96.565494 
L 215.001275 95.395467 
L 215.823057 94.01809 
L 216.249166 93.751501 
L 216.55353 93.707072 
L 216.857893 93.736693 
L 217.405748 93.840367 
L 217.923166 94.210628 
L 218.80582 95.21774 
L 219.292802 96.121175 
L 219.931966 97.394875 
L 220.418948 98.298313 
L 222.306002 103.156147 
L 222.762548 104.489091 
L 224.92353 112.234957 
L 226.17142 117.226085 
L 226.475784 118.410922 
L 227.145384 121.121236 
L 232.258693 143.988589 
L 233.96313 154.578068 
L 235.515384 165.908071 
L 237.432875 179.978009 
L 238.832948 189.382652 
L 241.480911 202.978656 
L 242.424439 206.636837 
L 243.428839 209.909949 
L 244.402802 212.857236 
L 246.228984 217.048594 
L 246.502911 217.463284 
L 246.868148 217.96684 
L 247.081202 218.188999 
L 247.476875 218.574074 
L 247.842111 218.870283 
L 248.26822 219.136866 
L 248.785639 219.270161 
L 249.455239 219.166487 
L 252.28582 217.670635 
L 255.603384 214.590055 
L 255.999057 214.279037 
L 256.699093 213.745861 
L 257.033893 213.657 
L 257.246948 213.597759 
L 257.581748 213.494085 
L 257.97742 213.420028 
L 258.220911 213.434841 
L 258.373093 213.420028 
L 259.620984 213.316355 
L 259.864475 213.227497 
L 260.07753 213.212684 
L 261.629784 212.35368 
L 262.99942 210.19135 
L 263.821202 208.132696 
L 264.490802 206.236955 
L 266.043057 199.764785 
L 267.412693 191.145097 
L 268.934511 179.237486 
L 270.273711 166.53011 
L 271.521602 153.3488 
L 273.621711 127.593408 
L 275.38702 104.252123 
L 277.517566 76.704663 
L 279.313311 56.192177 
L 281.017748 40.670806 
L 281.869966 34.879918 
L 282.691748 30.703373 
L 283.270039 28.629908 
L 284.244002 26.971134 
L 284.639675 26.882274 
L 285.004911 27.178481 
L 285.339711 27.652413 
L 285.948439 29.074215 
L 286.283239 30.155383 
L 287.074584 33.680273 
L 287.43982 35.76855 
L 288.078984 40.152442 
L 289.20513 49.764439 
L 290.574766 63.449298 
L 292.857493 90.226614 
L 298.518657 157.777128 
L 301.288366 186.287266 
L 303.479784 204.548564 
L 304.636366 211.154032 
L 305.823384 216.396931 
L 308.014802 223.491144 
L 309.749675 226.630962 
L 310.480148 227.504779 
L 311.180184 228.052764 
L 311.88022 227.949093 
L 312.397639 227.593644 
L 313.432475 225.890441 
L 314.680366 221.921235 
L 316.050002 216.145156 
L 317.66313 207.762434 
L 319.945857 193.781361 
L 322.867748 174.631432 
L 325.94182 155.866578 
L 326.672293 151.764081 
L 327.494075 147.617151 
L 329.837675 137.842247 
L 331.359493 133.739749 
L 331.846475 132.821501 
L 332.120402 132.406807 
L 332.72913 131.710717 
L 333.490039 131.118298 
L 334.129202 130.925762 
L 334.677057 131.073866 
L 334.859675 131.162729 
L 335.346657 131.488559 
L 335.65102 131.755147 
L 336.198875 132.362377 
L 341.038257 136.923998 
L 341.220875 137.027672 
L 342.499202 137.546038 
L 342.742693 137.516417 
L 342.894875 137.516417 
L 343.594911 137.294259 
L 344.051457 137.205397 
L 344.234075 137.131345 
L 344.873239 136.938809 
L 345.147166 136.95362 
L 345.390657 136.95362 
L 345.877639 136.864757 
L 346.090693 136.790704 
L 346.36462 136.701842 
L 346.638548 136.583357 
L 347.36902 136.109423 
L 349.256075 134.421031 
L 350.169166 133.858233 
L 350.412657 133.680506 
L 351.356184 133.339867 
L 352.117093 133.44354 
L 353.608475 134.287737 
L 354.49113 135.265226 
L 354.82593 135.798403 
L 355.434657 136.879567 
L 356.469493 139.115947 
L 356.865166 139.87128 
L 357.83913 141.959555 
L 358.41742 143.322118 
L 360.334911 147.706014 
L 365.904766 158.310304 
L 366.756984 159.361847 
L 368.157057 159.939455 
L 368.370111 159.954266 
L 369.344075 159.850592 
L 370.044111 159.021207 
L 370.774584 157.777128 
L 371.535493 156.207219 
L 374.457384 150.283034 
L 375.15742 148.86123 
L 376.709675 145.602929 
L 377.653202 143.188823 
L 381.85342 133.251004 
L 382.918693 131.088677 
L 382.918693 131.088677 
" style="fill:none;stroke:#ff0000;stroke-linecap:square;stroke-width:1.5;"/>
   </g>
   <g id="line2d_29">
    <path clip-path="url(#pef0b1516e8)" d="M 129.109857 163.611798 
" style="fill:none;stroke:#ffffff;stroke-linecap:square;stroke-width:1.5;"/>
    <defs>
     <path d="M 0 -5 
L -1.12257 -1.545085 
L -4.755283 -1.545085 
L -1.816356 0.59017 
L -2.938926 4.045085 
L -0 1.90983 
L 2.938926 4.045085 
L 1.816356 0.59017 
L 4.755283 -1.545085 
L 1.12257 -1.545085 
z
" id="m6b3e4e28e7" style="stroke:#ffffff;stroke-linejoin:bevel;"/>
    </defs>
    <g clip-path="url(#pef0b1516e8)">
     <use style="fill:#0000ff;stroke:#ffffff;stroke-linejoin:bevel;" x="129.109857" xlink:href="#m6b3e4e28e7" y="163.611798"/>
    </g>
   </g>
   <g id="line2d_30">
    <path clip-path="url(#pef0b1516e8)" d="M 106.06953 161.479743 
" style="fill:none;stroke:#ffffff;stroke-linecap:square;stroke-width:1.5;"/>
    <defs>
     <path d="M 0 -5 
L -1.12257 -1.545085 
L -4.755283 -1.545085 
L -1.816356 0.59017 
L -2.938926 4.045085 
L -0 1.90983 
L 2.938926 4.045085 
L 1.816356 0.59017 
L 4.755283 -1.545085 
L 1.12257 -1.545085 
z
" id="mcc915a9357" style="stroke:#ffffff;stroke-linejoin:bevel;"/>
    </defs>
    <g clip-path="url(#pef0b1516e8)">
     <use style="fill:#ff0000;stroke:#ffffff;stroke-linejoin:bevel;" x="106.06953" xlink:href="#mcc915a9357" y="161.479743"/>
    </g>
   </g>
   <g id="patch_3">
    <path d="M 63.336875 339.84 
L 63.336875 7.2 
" style="fill:none;stroke:#000000;stroke-linecap:square;stroke-linejoin:miter;stroke-width:0.8;"/>
   </g>
   <g id="patch_4">
    <path d="M 398.136875 339.84 
L 398.136875 7.2 
" style="fill:none;stroke:#000000;stroke-linecap:square;stroke-linejoin:miter;stroke-width:0.8;"/>
   </g>
   <g id="patch_5">
    <path d="M 63.336875 339.84 
L 398.136875 339.84 
" style="fill:none;stroke:#000000;stroke-linecap:square;stroke-linejoin:miter;stroke-width:0.8;"/>
   </g>
   <g id="patch_6">
    <path d="M 63.336875 7.2 
L 398.136875 7.2 
" style="fill:none;stroke:#000000;stroke-linecap:square;stroke-linejoin:miter;stroke-width:0.8;"/>
   </g>
   <g id="text_16">
    <g id="patch_7">
     <path d="M 75.036875 331.242688 
L 166.79375 331.242688 
L 166.79375 293.760312 
L 75.036875 293.760312 
z
" style="fill:#ffffff;stroke:#000000;stroke-linejoin:miter;stroke-width:0.75;"/>
    </g>
    <!-- Auto_00039 -->
    <g transform="translate(80.076875 308.521563)scale(0.14 -0.14)">
     <defs>
      <path d="M 2928 1419 
L 1288 1419 
L 1000 750 
Q 894 503 894 381 
Q 894 284 986 211 
Q 1078 138 1384 116 
L 1384 0 
L 50 0 
L 50 116 
Q 316 163 394 238 
Q 553 388 747 847 
L 2238 4334 
L 2347 4334 
L 3822 809 
Q 4000 384 4145 257 
Q 4291 131 4550 116 
L 4550 0 
L 2878 0 
L 2878 116 
Q 3131 128 3220 200 
Q 3309 272 3309 375 
Q 3309 513 3184 809 
L 2928 1419 
z
M 2841 1650 
L 2122 3363 
L 1384 1650 
L 2841 1650 
z
" id="TimesNewRomanPSMT-41" transform="scale(0.015625)"/>
      <path d="M 2709 2863 
L 2709 1128 
Q 2709 631 2732 520 
Q 2756 409 2807 365 
Q 2859 322 2928 322 
Q 3025 322 3147 375 
L 3191 266 
L 2334 -88 
L 2194 -88 
L 2194 519 
Q 1825 119 1631 15 
Q 1438 -88 1222 -88 
Q 981 -88 804 51 
Q 628 191 559 409 
Q 491 628 491 1028 
L 491 2306 
Q 491 2509 447 2587 
Q 403 2666 317 2708 
Q 231 2750 6 2747 
L 6 2863 
L 1009 2863 
L 1009 947 
Q 1009 547 1148 422 
Q 1288 297 1484 297 
Q 1619 297 1789 381 
Q 1959 466 2194 703 
L 2194 2325 
Q 2194 2569 2105 2655 
Q 2016 2741 1734 2747 
L 1734 2863 
L 2709 2863 
z
" id="TimesNewRomanPSMT-75" transform="scale(0.015625)"/>
      <path d="M 3256 -1381 
L -53 -1381 
L -53 -1119 
L 3256 -1119 
L 3256 -1381 
z
" id="TimesNewRomanPSMT-5f" transform="scale(0.015625)"/>
      <path d="M 338 -88 
L 338 28 
Q 744 34 1094 217 
Q 1444 400 1770 856 
Q 2097 1313 2225 1859 
Q 1734 1544 1338 1544 
Q 891 1544 572 1889 
Q 253 2234 253 2806 
Q 253 3363 572 3797 
Q 956 4325 1575 4325 
Q 2097 4325 2469 3894 
Q 2925 3359 2925 2575 
Q 2925 1869 2578 1258 
Q 2231 647 1613 244 
Q 1109 -88 516 -88 
L 338 -88 
z
M 2275 2091 
Q 2331 2497 2331 2741 
Q 2331 3044 2228 3395 
Q 2125 3747 1936 3934 
Q 1747 4122 1506 4122 
Q 1228 4122 1018 3872 
Q 809 3622 809 3128 
Q 809 2469 1088 2097 
Q 1291 1828 1588 1828 
Q 1731 1828 1928 1897 
Q 2125 1966 2275 2091 
z
" id="TimesNewRomanPSMT-39" transform="scale(0.015625)"/>
     </defs>
     <use xlink:href="#TimesNewRomanPSMT-41"/>
     <use x="72.216797" xlink:href="#TimesNewRomanPSMT-75"/>
     <use x="122.216797" xlink:href="#TimesNewRomanPSMT-74"/>
     <use x="150" xlink:href="#TimesNewRomanPSMT-6f"/>
     <use x="200" xlink:href="#TimesNewRomanPSMT-5f"/>
     <use x="250" xlink:href="#TimesNewRomanPSMT-30"/>
     <use x="300" xlink:href="#TimesNewRomanPSMT-30"/>
     <use x="350" xlink:href="#TimesNewRomanPSMT-30"/>
     <use x="400" xlink:href="#TimesNewRomanPSMT-33"/>
     <use x="450" xlink:href="#TimesNewRomanPSMT-39"/>
    </g>
    <!-- Vs: 264.06m/s -->
    <g transform="translate(80.076875 323.208)scale(0.14 -0.14)">
     <defs>
      <path d="M 903 2950 
Q 1047 2950 1148 2848 
Q 1250 2747 1250 2603 
Q 1250 2459 1148 2357 
Q 1047 2256 903 2256 
Q 759 2256 657 2357 
Q 556 2459 556 2603 
Q 556 2747 657 2848 
Q 759 2950 903 2950 
z
M 897 609 
Q 1044 609 1145 506 
Q 1247 403 1247 259 
Q 1247 116 1144 14 
Q 1041 -88 897 -88 
Q 753 -88 651 14 
Q 550 116 550 259 
Q 550 403 651 506 
Q 753 609 897 609 
z
" id="TimesNewRomanPSMT-3a" transform="scale(0.015625)"/>
      <path d="M 1794 4444 
L 259 -88 
L 9 -88 
L 1544 4444 
L 1794 4444 
z
" id="TimesNewRomanPSMT-2f" transform="scale(0.015625)"/>
     </defs>
     <use xlink:href="#TimesNewRomanPSMT-56"/>
     <use x="72.216797" xlink:href="#TimesNewRomanPSMT-73"/>
     <use x="111.132812" xlink:href="#TimesNewRomanPSMT-3a"/>
     <use x="138.916016" xlink:href="#TimesNewRomanPSMT-20"/>
     <use x="163.916016" xlink:href="#TimesNewRomanPSMT-32"/>
     <use x="213.916016" xlink:href="#TimesNewRomanPSMT-36"/>
     <use x="263.916016" xlink:href="#TimesNewRomanPSMT-34"/>
     <use x="313.916016" xlink:href="#TimesNewRomanPSMT-2e"/>
     <use x="338.916016" xlink:href="#TimesNewRomanPSMT-30"/>
     <use x="388.916016" xlink:href="#TimesNewRomanPSMT-36"/>
     <use x="438.916016" xlink:href="#TimesNewRomanPSMT-6d"/>
     <use x="516.699219" xlink:href="#TimesNewRomanPSMT-2f"/>
     <use x="544.482422" xlink:href="#TimesNewRomanPSMT-73"/>
    </g>
   </g>
  </g>
 </g>
 <defs>
  <clipPath id="pef0b1516e8">
   <rect height="332.64" width="334.8" x="63.336875" y="7.2"/>
  </clipPath>
 </defs>
</svg>
