<?xml version="1.0" encoding="utf-8" standalone="no"?>
<!DOCTYPE svg PUBLIC "-//W3C//DTD SVG 1.1//EN"
  "http://www.w3.org/Graphics/SVG/1.1/DTD/svg11.dtd">
<svg height="383.471875pt" version="1.1" viewBox="0 0 421.086875 383.471875" width="421.086875pt" xmlns="http://www.w3.org/2000/svg" xmlns:xlink="http://www.w3.org/1999/xlink">
 <metadata>
  <rdf:RDF xmlns:cc="http://creativecommons.org/ns#" xmlns:dc="http://purl.org/dc/elements/1.1/" xmlns:rdf="http://www.w3.org/1999/02/22-rdf-syntax-ns#">
   <cc:Work>
    <dc:type rdf:resource="http://purl.org/dc/dcmitype/StillImage"/>
    <dc:date>2021-06-11T14:39:38.665100</dc:date>
    <dc:format>image/svg+xml</dc:format>
    <dc:creator>
     <cc:Agent>
      <dc:title>Matplotlib v3.4.2, https://matplotlib.org/</dc:title>
     </cc:Agent>
    </dc:creator>
   </cc:Work>
  </rdf:RDF>
 </metadata>
 <defs>
  <style type="text/css">*{stroke-linecap:butt;stroke-linejoin:round;}</style>
 </defs>
 <g id="figure_1">
  <g id="patch_1">
   <path d="M 0 383.471875 
L 421.086875 383.471875 
L 421.086875 0 
L 0 0 
z
" style="fill:#ffffff;"/>
  </g>
  <g id="axes_1">
   <g id="patch_2">
    <path d="M 63.336875 339.84 
L 398.136875 339.84 
L 398.136875 7.2 
L 63.336875 7.2 
z
" style="fill:#ffffff;"/>
   </g>
   <g id="matplotlib.axis_1">
    <g id="xtick_1">
     <g id="line2d_1">
      <path clip-path="url(#p1a618bf0be)" d="M 93.773239 339.84 
L 93.773239 7.2 
" style="fill:none;stroke:#000000;stroke-dasharray:0.5,0.825;stroke-dashoffset:0;stroke-width:0.5;"/>
     </g>
     <g id="line2d_2">
      <defs>
       <path d="M 0 0 
L 0 3.5 
" id="m607fddcf0b" style="stroke:#000000;stroke-width:0.8;"/>
      </defs>
      <g>
       <use style="stroke:#000000;stroke-width:0.8;" x="93.773239" xlink:href="#m607fddcf0b" y="339.84"/>
      </g>
     </g>
     <g id="text_1">
      <!-- 0.000 -->
      <g transform="translate(78.023239 356.56125)scale(0.14 -0.14)">
       <defs>
        <path d="M 231 2094 
Q 231 2819 450 3342 
Q 669 3866 1031 4122 
Q 1313 4325 1613 4325 
Q 2100 4325 2488 3828 
Q 2972 3213 2972 2159 
Q 2972 1422 2759 906 
Q 2547 391 2217 158 
Q 1888 -75 1581 -75 
Q 975 -75 572 641 
Q 231 1244 231 2094 
z
M 844 2016 
Q 844 1141 1059 588 
Q 1238 122 1591 122 
Q 1759 122 1940 273 
Q 2122 425 2216 781 
Q 2359 1319 2359 2297 
Q 2359 3022 2209 3506 
Q 2097 3866 1919 4016 
Q 1791 4119 1609 4119 
Q 1397 4119 1231 3928 
Q 1006 3669 925 3112 
Q 844 2556 844 2016 
z
" id="TimesNewRomanPSMT-30" transform="scale(0.015625)"/>
        <path d="M 800 606 
Q 947 606 1047 504 
Q 1147 403 1147 259 
Q 1147 116 1045 14 
Q 944 -88 800 -88 
Q 656 -88 554 14 
Q 453 116 453 259 
Q 453 406 554 506 
Q 656 606 800 606 
z
" id="TimesNewRomanPSMT-2e" transform="scale(0.015625)"/>
       </defs>
       <use xlink:href="#TimesNewRomanPSMT-30"/>
       <use x="50" xlink:href="#TimesNewRomanPSMT-2e"/>
       <use x="75" xlink:href="#TimesNewRomanPSMT-30"/>
       <use x="125" xlink:href="#TimesNewRomanPSMT-30"/>
       <use x="175" xlink:href="#TimesNewRomanPSMT-30"/>
      </g>
     </g>
    </g>
    <g id="xtick_2">
     <g id="line2d_3">
      <path clip-path="url(#p1a618bf0be)" d="M 154.645966 339.84 
L 154.645966 7.2 
" style="fill:none;stroke:#000000;stroke-dasharray:0.5,0.825;stroke-dashoffset:0;stroke-width:0.5;"/>
     </g>
     <g id="line2d_4">
      <g>
       <use style="stroke:#000000;stroke-width:0.8;" x="154.645966" xlink:href="#m607fddcf0b" y="339.84"/>
      </g>
     </g>
     <g id="text_2">
      <!-- 0.001 -->
      <g transform="translate(138.895966 356.56125)scale(0.14 -0.14)">
       <defs>
        <path d="M 750 3822 
L 1781 4325 
L 1884 4325 
L 1884 747 
Q 1884 391 1914 303 
Q 1944 216 2037 169 
Q 2131 122 2419 116 
L 2419 0 
L 825 0 
L 825 116 
Q 1125 122 1212 167 
Q 1300 213 1334 289 
Q 1369 366 1369 747 
L 1369 3034 
Q 1369 3497 1338 3628 
Q 1316 3728 1258 3775 
Q 1200 3822 1119 3822 
Q 1003 3822 797 3725 
L 750 3822 
z
" id="TimesNewRomanPSMT-31" transform="scale(0.015625)"/>
       </defs>
       <use xlink:href="#TimesNewRomanPSMT-30"/>
       <use x="50" xlink:href="#TimesNewRomanPSMT-2e"/>
       <use x="75" xlink:href="#TimesNewRomanPSMT-30"/>
       <use x="125" xlink:href="#TimesNewRomanPSMT-30"/>
       <use x="175" xlink:href="#TimesNewRomanPSMT-31"/>
      </g>
     </g>
    </g>
    <g id="xtick_3">
     <g id="line2d_5">
      <path clip-path="url(#p1a618bf0be)" d="M 215.518693 339.84 
L 215.518693 7.2 
" style="fill:none;stroke:#000000;stroke-dasharray:0.5,0.825;stroke-dashoffset:0;stroke-width:0.5;"/>
     </g>
     <g id="line2d_6">
      <g>
       <use style="stroke:#000000;stroke-width:0.8;" x="215.518693" xlink:href="#m607fddcf0b" y="339.84"/>
      </g>
     </g>
     <g id="text_3">
      <!-- 0.002 -->
      <g transform="translate(199.768693 356.56125)scale(0.14 -0.14)">
       <defs>
        <path d="M 2934 816 
L 2638 0 
L 138 0 
L 138 116 
Q 1241 1122 1691 1759 
Q 2141 2397 2141 2925 
Q 2141 3328 1894 3587 
Q 1647 3847 1303 3847 
Q 991 3847 742 3664 
Q 494 3481 375 3128 
L 259 3128 
Q 338 3706 661 4015 
Q 984 4325 1469 4325 
Q 1984 4325 2329 3994 
Q 2675 3663 2675 3213 
Q 2675 2891 2525 2569 
Q 2294 2063 1775 1497 
Q 997 647 803 472 
L 1909 472 
Q 2247 472 2383 497 
Q 2519 522 2628 598 
Q 2738 675 2819 816 
L 2934 816 
z
" id="TimesNewRomanPSMT-32" transform="scale(0.015625)"/>
       </defs>
       <use xlink:href="#TimesNewRomanPSMT-30"/>
       <use x="50" xlink:href="#TimesNewRomanPSMT-2e"/>
       <use x="75" xlink:href="#TimesNewRomanPSMT-30"/>
       <use x="125" xlink:href="#TimesNewRomanPSMT-30"/>
       <use x="175" xlink:href="#TimesNewRomanPSMT-32"/>
      </g>
     </g>
    </g>
    <g id="xtick_4">
     <g id="line2d_7">
      <path clip-path="url(#p1a618bf0be)" d="M 276.39142 339.84 
L 276.39142 7.2 
" style="fill:none;stroke:#000000;stroke-dasharray:0.5,0.825;stroke-dashoffset:0;stroke-width:0.5;"/>
     </g>
     <g id="line2d_8">
      <g>
       <use style="stroke:#000000;stroke-width:0.8;" x="276.39142" xlink:href="#m607fddcf0b" y="339.84"/>
      </g>
     </g>
     <g id="text_4">
      <!-- 0.003 -->
      <g transform="translate(260.64142 356.56125)scale(0.14 -0.14)">
       <defs>
        <path d="M 325 3431 
Q 506 3859 782 4092 
Q 1059 4325 1472 4325 
Q 1981 4325 2253 3994 
Q 2459 3747 2459 3466 
Q 2459 3003 1878 2509 
Q 2269 2356 2469 2072 
Q 2669 1788 2669 1403 
Q 2669 853 2319 450 
Q 1863 -75 997 -75 
Q 569 -75 414 31 
Q 259 138 259 259 
Q 259 350 332 419 
Q 406 488 509 488 
Q 588 488 669 463 
Q 722 447 909 348 
Q 1097 250 1169 231 
Q 1284 197 1416 197 
Q 1734 197 1970 444 
Q 2206 691 2206 1028 
Q 2206 1275 2097 1509 
Q 2016 1684 1919 1775 
Q 1784 1900 1550 2001 
Q 1316 2103 1072 2103 
L 972 2103 
L 972 2197 
Q 1219 2228 1467 2375 
Q 1716 2522 1828 2728 
Q 1941 2934 1941 3181 
Q 1941 3503 1739 3701 
Q 1538 3900 1238 3900 
Q 753 3900 428 3381 
L 325 3431 
z
" id="TimesNewRomanPSMT-33" transform="scale(0.015625)"/>
       </defs>
       <use xlink:href="#TimesNewRomanPSMT-30"/>
       <use x="50" xlink:href="#TimesNewRomanPSMT-2e"/>
       <use x="75" xlink:href="#TimesNewRomanPSMT-30"/>
       <use x="125" xlink:href="#TimesNewRomanPSMT-30"/>
       <use x="175" xlink:href="#TimesNewRomanPSMT-33"/>
      </g>
     </g>
    </g>
    <g id="xtick_5">
     <g id="line2d_9">
      <path clip-path="url(#p1a618bf0be)" d="M 337.264148 339.84 
L 337.264148 7.2 
" style="fill:none;stroke:#000000;stroke-dasharray:0.5,0.825;stroke-dashoffset:0;stroke-width:0.5;"/>
     </g>
     <g id="line2d_10">
      <g>
       <use style="stroke:#000000;stroke-width:0.8;" x="337.264148" xlink:href="#m607fddcf0b" y="339.84"/>
      </g>
     </g>
     <g id="text_5">
      <!-- 0.004 -->
      <g transform="translate(321.514148 356.56125)scale(0.14 -0.14)">
       <defs>
        <path d="M 2978 1563 
L 2978 1119 
L 2409 1119 
L 2409 0 
L 1894 0 
L 1894 1119 
L 100 1119 
L 100 1519 
L 2066 4325 
L 2409 4325 
L 2409 1563 
L 2978 1563 
z
M 1894 1563 
L 1894 3666 
L 406 1563 
L 1894 1563 
z
" id="TimesNewRomanPSMT-34" transform="scale(0.015625)"/>
       </defs>
       <use xlink:href="#TimesNewRomanPSMT-30"/>
       <use x="50" xlink:href="#TimesNewRomanPSMT-2e"/>
       <use x="75" xlink:href="#TimesNewRomanPSMT-30"/>
       <use x="125" xlink:href="#TimesNewRomanPSMT-30"/>
       <use x="175" xlink:href="#TimesNewRomanPSMT-34"/>
      </g>
     </g>
    </g>
    <g id="xtick_6">
     <g id="line2d_11">
      <path clip-path="url(#p1a618bf0be)" d="M 398.136875 339.84 
L 398.136875 7.2 
" style="fill:none;stroke:#000000;stroke-dasharray:0.5,0.825;stroke-dashoffset:0;stroke-width:0.5;"/>
     </g>
     <g id="line2d_12">
      <g>
       <use style="stroke:#000000;stroke-width:0.8;" x="398.136875" xlink:href="#m607fddcf0b" y="339.84"/>
      </g>
     </g>
     <g id="text_6">
      <!-- 0.005 -->
      <g transform="translate(382.386875 356.56125)scale(0.14 -0.14)">
       <defs>
        <path d="M 2778 4238 
L 2534 3706 
L 1259 3706 
L 981 3138 
Q 1809 3016 2294 2522 
Q 2709 2097 2709 1522 
Q 2709 1188 2573 903 
Q 2438 619 2231 419 
Q 2025 219 1772 97 
Q 1413 -75 1034 -75 
Q 653 -75 479 54 
Q 306 184 306 341 
Q 306 428 378 495 
Q 450 563 559 563 
Q 641 563 702 538 
Q 763 513 909 409 
Q 1144 247 1384 247 
Q 1750 247 2026 523 
Q 2303 800 2303 1197 
Q 2303 1581 2056 1914 
Q 1809 2247 1375 2428 
Q 1034 2569 447 2591 
L 1259 4238 
L 2778 4238 
z
" id="TimesNewRomanPSMT-35" transform="scale(0.015625)"/>
       </defs>
       <use xlink:href="#TimesNewRomanPSMT-30"/>
       <use x="50" xlink:href="#TimesNewRomanPSMT-2e"/>
       <use x="75" xlink:href="#TimesNewRomanPSMT-30"/>
       <use x="125" xlink:href="#TimesNewRomanPSMT-30"/>
       <use x="175" xlink:href="#TimesNewRomanPSMT-35"/>
      </g>
     </g>
    </g>
    <g id="text_7">
     <!-- Time (sec) -->
     <g transform="translate(200.858906 373.277188)scale(0.14 -0.14)">
      <defs>
       <path d="M 3703 4238 
L 3750 3244 
L 3631 3244 
Q 3597 3506 3538 3619 
Q 3441 3800 3280 3886 
Q 3119 3972 2856 3972 
L 2259 3972 
L 2259 734 
Q 2259 344 2344 247 
Q 2463 116 2709 116 
L 2856 116 
L 2856 0 
L 1059 0 
L 1059 116 
L 1209 116 
Q 1478 116 1591 278 
Q 1659 378 1659 734 
L 1659 3972 
L 1150 3972 
Q 853 3972 728 3928 
Q 566 3869 450 3700 
Q 334 3531 313 3244 
L 194 3244 
L 244 4238 
L 3703 4238 
z
" id="TimesNewRomanPSMT-54" transform="scale(0.015625)"/>
       <path d="M 928 4444 
Q 1059 4444 1151 4351 
Q 1244 4259 1244 4128 
Q 1244 3997 1151 3903 
Q 1059 3809 928 3809 
Q 797 3809 703 3903 
Q 609 3997 609 4128 
Q 609 4259 701 4351 
Q 794 4444 928 4444 
z
M 1188 2947 
L 1188 647 
Q 1188 378 1227 289 
Q 1266 200 1342 156 
Q 1419 113 1622 113 
L 1622 0 
L 231 0 
L 231 113 
Q 441 113 512 153 
Q 584 194 626 287 
Q 669 381 669 647 
L 669 1750 
Q 669 2216 641 2353 
Q 619 2453 572 2492 
Q 525 2531 444 2531 
Q 356 2531 231 2484 
L 188 2597 
L 1050 2947 
L 1188 2947 
z
" id="TimesNewRomanPSMT-69" transform="scale(0.015625)"/>
       <path d="M 1050 2338 
Q 1363 2650 1419 2697 
Q 1559 2816 1721 2881 
Q 1884 2947 2044 2947 
Q 2313 2947 2506 2790 
Q 2700 2634 2766 2338 
Q 3088 2713 3309 2830 
Q 3531 2947 3766 2947 
Q 3994 2947 4170 2830 
Q 4347 2713 4450 2447 
Q 4519 2266 4519 1878 
L 4519 647 
Q 4519 378 4559 278 
Q 4591 209 4675 161 
Q 4759 113 4950 113 
L 4950 0 
L 3538 0 
L 3538 113 
L 3597 113 
Q 3781 113 3884 184 
Q 3956 234 3988 344 
Q 4000 397 4000 647 
L 4000 1878 
Q 4000 2228 3916 2372 
Q 3794 2572 3525 2572 
Q 3359 2572 3192 2489 
Q 3025 2406 2788 2181 
L 2781 2147 
L 2788 2013 
L 2788 647 
Q 2788 353 2820 281 
Q 2853 209 2943 161 
Q 3034 113 3253 113 
L 3253 0 
L 1806 0 
L 1806 113 
Q 2044 113 2133 169 
Q 2222 225 2256 338 
Q 2272 391 2272 647 
L 2272 1878 
Q 2272 2228 2169 2381 
Q 2031 2581 1784 2581 
Q 1616 2581 1450 2491 
Q 1191 2353 1050 2181 
L 1050 647 
Q 1050 366 1089 281 
Q 1128 197 1204 155 
Q 1281 113 1516 113 
L 1516 0 
L 100 0 
L 100 113 
Q 297 113 375 155 
Q 453 197 493 289 
Q 534 381 534 647 
L 534 1741 
Q 534 2213 506 2350 
Q 484 2453 437 2492 
Q 391 2531 309 2531 
Q 222 2531 100 2484 
L 53 2597 
L 916 2947 
L 1050 2947 
L 1050 2338 
z
" id="TimesNewRomanPSMT-6d" transform="scale(0.015625)"/>
       <path d="M 681 1784 
Q 678 1147 991 784 
Q 1303 422 1725 422 
Q 2006 422 2214 576 
Q 2422 731 2563 1106 
L 2659 1044 
Q 2594 616 2278 264 
Q 1963 -88 1488 -88 
Q 972 -88 605 314 
Q 238 716 238 1394 
Q 238 2128 614 2539 
Q 991 2950 1559 2950 
Q 2041 2950 2350 2633 
Q 2659 2316 2659 1784 
L 681 1784 
z
M 681 1966 
L 2006 1966 
Q 1991 2241 1941 2353 
Q 1863 2528 1708 2628 
Q 1553 2728 1384 2728 
Q 1125 2728 920 2526 
Q 716 2325 681 1966 
z
" id="TimesNewRomanPSMT-65" transform="scale(0.015625)"/>
       <path id="TimesNewRomanPSMT-20" transform="scale(0.015625)"/>
       <path d="M 1988 -1253 
L 1988 -1369 
Q 1516 -1131 1200 -813 
Q 750 -359 506 256 
Q 263 872 263 1534 
Q 263 2503 741 3301 
Q 1219 4100 1988 4444 
L 1988 4313 
Q 1603 4100 1356 3731 
Q 1109 3363 987 2797 
Q 866 2231 866 1616 
Q 866 947 969 400 
Q 1050 -31 1165 -292 
Q 1281 -553 1476 -793 
Q 1672 -1034 1988 -1253 
z
" id="TimesNewRomanPSMT-28" transform="scale(0.015625)"/>
       <path d="M 2050 2947 
L 2050 1972 
L 1947 1972 
Q 1828 2431 1642 2597 
Q 1456 2763 1169 2763 
Q 950 2763 815 2647 
Q 681 2531 681 2391 
Q 681 2216 781 2091 
Q 878 1963 1175 1819 
L 1631 1597 
Q 2266 1288 2266 781 
Q 2266 391 1970 151 
Q 1675 -88 1309 -88 
Q 1047 -88 709 6 
Q 606 38 541 38 
Q 469 38 428 -44 
L 325 -44 
L 325 978 
L 428 978 
Q 516 541 762 319 
Q 1009 97 1316 97 
Q 1531 97 1667 223 
Q 1803 350 1803 528 
Q 1803 744 1651 891 
Q 1500 1038 1047 1263 
Q 594 1488 453 1669 
Q 313 1847 313 2119 
Q 313 2472 555 2709 
Q 797 2947 1181 2947 
Q 1350 2947 1591 2875 
Q 1750 2828 1803 2828 
Q 1853 2828 1881 2850 
Q 1909 2872 1947 2947 
L 2050 2947 
z
" id="TimesNewRomanPSMT-73" transform="scale(0.015625)"/>
       <path d="M 2631 1088 
Q 2516 522 2178 217 
Q 1841 -88 1431 -88 
Q 944 -88 581 321 
Q 219 731 219 1428 
Q 219 2103 620 2525 
Q 1022 2947 1584 2947 
Q 2006 2947 2278 2723 
Q 2550 2500 2550 2259 
Q 2550 2141 2473 2067 
Q 2397 1994 2259 1994 
Q 2075 1994 1981 2113 
Q 1928 2178 1911 2362 
Q 1894 2547 1784 2644 
Q 1675 2738 1481 2738 
Q 1169 2738 978 2506 
Q 725 2200 725 1697 
Q 725 1184 976 792 
Q 1228 400 1656 400 
Q 1963 400 2206 609 
Q 2378 753 2541 1131 
L 2631 1088 
z
" id="TimesNewRomanPSMT-63" transform="scale(0.015625)"/>
       <path d="M 144 4313 
L 144 4444 
Q 619 4209 934 3891 
Q 1381 3434 1625 2820 
Q 1869 2206 1869 1541 
Q 1869 572 1392 -226 
Q 916 -1025 144 -1369 
L 144 -1253 
Q 528 -1038 776 -670 
Q 1025 -303 1145 264 
Q 1266 831 1266 1447 
Q 1266 2113 1163 2663 
Q 1084 3094 967 3353 
Q 850 3613 656 3853 
Q 463 4094 144 4313 
z
" id="TimesNewRomanPSMT-29" transform="scale(0.015625)"/>
      </defs>
      <use xlink:href="#TimesNewRomanPSMT-54"/>
      <use x="57.583984" xlink:href="#TimesNewRomanPSMT-69"/>
      <use x="85.367188" xlink:href="#TimesNewRomanPSMT-6d"/>
      <use x="163.150391" xlink:href="#TimesNewRomanPSMT-65"/>
      <use x="207.535156" xlink:href="#TimesNewRomanPSMT-20"/>
      <use x="232.535156" xlink:href="#TimesNewRomanPSMT-28"/>
      <use x="265.835938" xlink:href="#TimesNewRomanPSMT-73"/>
      <use x="304.751953" xlink:href="#TimesNewRomanPSMT-65"/>
      <use x="349.136719" xlink:href="#TimesNewRomanPSMT-63"/>
      <use x="393.521484" xlink:href="#TimesNewRomanPSMT-29"/>
     </g>
    </g>
   </g>
   <g id="matplotlib.axis_2">
    <g id="ytick_1">
     <g id="line2d_13">
      <path clip-path="url(#p1a618bf0be)" d="M 63.336875 326.699478 
L 398.136875 326.699478 
" style="fill:none;stroke:#000000;stroke-dasharray:0.5,0.825;stroke-dashoffset:0;stroke-width:0.5;"/>
     </g>
     <g id="line2d_14">
      <defs>
       <path d="M 0 0 
L -3.5 0 
" id="m61ca92f4a8" style="stroke:#000000;stroke-width:0.8;"/>
      </defs>
      <g>
       <use style="stroke:#000000;stroke-width:0.8;" x="63.336875" xlink:href="#m61ca92f4a8" y="326.699478"/>
      </g>
     </g>
     <g id="text_8">
      <!-- −0.06 -->
      <g transform="translate(23.942188 331.560103)scale(0.14 -0.14)">
       <defs>
        <path d="M 3484 2000 
L 116 2000 
L 116 2256 
L 3484 2256 
L 3484 2000 
z
" id="TimesNewRomanPSMT-2212" transform="scale(0.015625)"/>
        <path d="M 2869 4325 
L 2869 4209 
Q 2456 4169 2195 4045 
Q 1934 3922 1679 3669 
Q 1425 3416 1258 3105 
Q 1091 2794 978 2366 
Q 1428 2675 1881 2675 
Q 2316 2675 2634 2325 
Q 2953 1975 2953 1425 
Q 2953 894 2631 456 
Q 2244 -75 1606 -75 
Q 1172 -75 869 213 
Q 275 772 275 1663 
Q 275 2231 503 2743 
Q 731 3256 1154 3653 
Q 1578 4050 1965 4187 
Q 2353 4325 2688 4325 
L 2869 4325 
z
M 925 2138 
Q 869 1716 869 1456 
Q 869 1156 980 804 
Q 1091 453 1309 247 
Q 1469 100 1697 100 
Q 1969 100 2183 356 
Q 2397 613 2397 1088 
Q 2397 1622 2184 2012 
Q 1972 2403 1581 2403 
Q 1463 2403 1327 2353 
Q 1191 2303 925 2138 
z
" id="TimesNewRomanPSMT-36" transform="scale(0.015625)"/>
       </defs>
       <use xlink:href="#TimesNewRomanPSMT-2212"/>
       <use x="56.396484" xlink:href="#TimesNewRomanPSMT-30"/>
       <use x="106.396484" xlink:href="#TimesNewRomanPSMT-2e"/>
       <use x="131.396484" xlink:href="#TimesNewRomanPSMT-30"/>
       <use x="181.396484" xlink:href="#TimesNewRomanPSMT-36"/>
      </g>
     </g>
    </g>
    <g id="ytick_2">
     <g id="line2d_15">
      <path clip-path="url(#p1a618bf0be)" d="M 63.336875 269.51814 
L 398.136875 269.51814 
" style="fill:none;stroke:#000000;stroke-dasharray:0.5,0.825;stroke-dashoffset:0;stroke-width:0.5;"/>
     </g>
     <g id="line2d_16">
      <g>
       <use style="stroke:#000000;stroke-width:0.8;" x="63.336875" xlink:href="#m61ca92f4a8" y="269.51814"/>
      </g>
     </g>
     <g id="text_9">
      <!-- −0.04 -->
      <g transform="translate(23.942188 274.378765)scale(0.14 -0.14)">
       <use xlink:href="#TimesNewRomanPSMT-2212"/>
       <use x="56.396484" xlink:href="#TimesNewRomanPSMT-30"/>
       <use x="106.396484" xlink:href="#TimesNewRomanPSMT-2e"/>
       <use x="131.396484" xlink:href="#TimesNewRomanPSMT-30"/>
       <use x="181.396484" xlink:href="#TimesNewRomanPSMT-34"/>
      </g>
     </g>
    </g>
    <g id="ytick_3">
     <g id="line2d_17">
      <path clip-path="url(#p1a618bf0be)" d="M 63.336875 212.336802 
L 398.136875 212.336802 
" style="fill:none;stroke:#000000;stroke-dasharray:0.5,0.825;stroke-dashoffset:0;stroke-width:0.5;"/>
     </g>
     <g id="line2d_18">
      <g>
       <use style="stroke:#000000;stroke-width:0.8;" x="63.336875" xlink:href="#m61ca92f4a8" y="212.336802"/>
      </g>
     </g>
     <g id="text_10">
      <!-- −0.02 -->
      <g transform="translate(23.942188 217.197427)scale(0.14 -0.14)">
       <use xlink:href="#TimesNewRomanPSMT-2212"/>
       <use x="56.396484" xlink:href="#TimesNewRomanPSMT-30"/>
       <use x="106.396484" xlink:href="#TimesNewRomanPSMT-2e"/>
       <use x="131.396484" xlink:href="#TimesNewRomanPSMT-30"/>
       <use x="181.396484" xlink:href="#TimesNewRomanPSMT-32"/>
      </g>
     </g>
    </g>
    <g id="ytick_4">
     <g id="line2d_19">
      <path clip-path="url(#p1a618bf0be)" d="M 63.336875 155.155464 
L 398.136875 155.155464 
" style="fill:none;stroke:#000000;stroke-dasharray:0.5,0.825;stroke-dashoffset:0;stroke-width:0.5;"/>
     </g>
     <g id="line2d_20">
      <g>
       <use style="stroke:#000000;stroke-width:0.8;" x="63.336875" xlink:href="#m61ca92f4a8" y="155.155464"/>
      </g>
     </g>
     <g id="text_11">
      <!-- 0.00 -->
      <g transform="translate(31.836875 160.016089)scale(0.14 -0.14)">
       <use xlink:href="#TimesNewRomanPSMT-30"/>
       <use x="50" xlink:href="#TimesNewRomanPSMT-2e"/>
       <use x="75" xlink:href="#TimesNewRomanPSMT-30"/>
       <use x="125" xlink:href="#TimesNewRomanPSMT-30"/>
      </g>
     </g>
    </g>
    <g id="ytick_5">
     <g id="line2d_21">
      <path clip-path="url(#p1a618bf0be)" d="M 63.336875 97.974126 
L 398.136875 97.974126 
" style="fill:none;stroke:#000000;stroke-dasharray:0.5,0.825;stroke-dashoffset:0;stroke-width:0.5;"/>
     </g>
     <g id="line2d_22">
      <g>
       <use style="stroke:#000000;stroke-width:0.8;" x="63.336875" xlink:href="#m61ca92f4a8" y="97.974126"/>
      </g>
     </g>
     <g id="text_12">
      <!-- 0.02 -->
      <g transform="translate(31.836875 102.834751)scale(0.14 -0.14)">
       <use xlink:href="#TimesNewRomanPSMT-30"/>
       <use x="50" xlink:href="#TimesNewRomanPSMT-2e"/>
       <use x="75" xlink:href="#TimesNewRomanPSMT-30"/>
       <use x="125" xlink:href="#TimesNewRomanPSMT-32"/>
      </g>
     </g>
    </g>
    <g id="ytick_6">
     <g id="line2d_23">
      <path clip-path="url(#p1a618bf0be)" d="M 63.336875 40.792789 
L 398.136875 40.792789 
" style="fill:none;stroke:#000000;stroke-dasharray:0.5,0.825;stroke-dashoffset:0;stroke-width:0.5;"/>
     </g>
     <g id="line2d_24">
      <g>
       <use style="stroke:#000000;stroke-width:0.8;" x="63.336875" xlink:href="#m61ca92f4a8" y="40.792789"/>
      </g>
     </g>
     <g id="text_13">
      <!-- 0.04 -->
      <g transform="translate(31.836875 45.653414)scale(0.14 -0.14)">
       <use xlink:href="#TimesNewRomanPSMT-30"/>
       <use x="50" xlink:href="#TimesNewRomanPSMT-2e"/>
       <use x="75" xlink:href="#TimesNewRomanPSMT-30"/>
       <use x="125" xlink:href="#TimesNewRomanPSMT-34"/>
      </g>
     </g>
    </g>
    <g id="text_14">
     <!-- Volatage (V) -->
     <g transform="translate(16.92125 209.352344)rotate(-90)scale(0.14 -0.14)">
      <defs>
       <path d="M 4544 4238 
L 4544 4122 
Q 4319 4081 4203 3978 
Q 4038 3825 3909 3509 
L 2431 -97 
L 2316 -97 
L 728 3556 
Q 606 3838 556 3900 
Q 478 3997 364 4051 
Q 250 4106 56 4122 
L 56 4238 
L 1788 4238 
L 1788 4122 
Q 1494 4094 1406 4022 
Q 1319 3950 1319 3838 
Q 1319 3681 1463 3350 
L 2541 866 
L 3541 3319 
Q 3688 3681 3688 3822 
Q 3688 3913 3597 3995 
Q 3506 4078 3291 4113 
Q 3275 4116 3238 4122 
L 3238 4238 
L 4544 4238 
z
" id="TimesNewRomanPSMT-56" transform="scale(0.015625)"/>
       <path d="M 1600 2947 
Q 2250 2947 2644 2453 
Q 2978 2031 2978 1484 
Q 2978 1100 2793 706 
Q 2609 313 2286 112 
Q 1963 -88 1566 -88 
Q 919 -88 538 428 
Q 216 863 216 1403 
Q 216 1797 411 2186 
Q 606 2575 925 2761 
Q 1244 2947 1600 2947 
z
M 1503 2744 
Q 1338 2744 1170 2645 
Q 1003 2547 900 2300 
Q 797 2053 797 1666 
Q 797 1041 1045 587 
Q 1294 134 1700 134 
Q 2003 134 2200 384 
Q 2397 634 2397 1244 
Q 2397 2006 2069 2444 
Q 1847 2744 1503 2744 
z
" id="TimesNewRomanPSMT-6f" transform="scale(0.015625)"/>
       <path d="M 1184 4444 
L 1184 647 
Q 1184 378 1223 290 
Q 1263 203 1344 158 
Q 1425 113 1647 113 
L 1647 0 
L 244 0 
L 244 113 
Q 441 113 512 153 
Q 584 194 625 287 
Q 666 381 666 647 
L 666 3247 
Q 666 3731 644 3842 
Q 622 3953 573 3993 
Q 525 4034 450 4034 
Q 369 4034 244 3984 
L 191 4094 
L 1044 4444 
L 1184 4444 
z
" id="TimesNewRomanPSMT-6c" transform="scale(0.015625)"/>
       <path d="M 1822 413 
Q 1381 72 1269 19 
Q 1100 -59 909 -59 
Q 613 -59 420 144 
Q 228 347 228 678 
Q 228 888 322 1041 
Q 450 1253 767 1440 
Q 1084 1628 1822 1897 
L 1822 2009 
Q 1822 2438 1686 2597 
Q 1550 2756 1291 2756 
Q 1094 2756 978 2650 
Q 859 2544 859 2406 
L 866 2225 
Q 866 2081 792 2003 
Q 719 1925 600 1925 
Q 484 1925 411 2006 
Q 338 2088 338 2228 
Q 338 2497 613 2722 
Q 888 2947 1384 2947 
Q 1766 2947 2009 2819 
Q 2194 2722 2281 2516 
Q 2338 2381 2338 1966 
L 2338 994 
Q 2338 584 2353 492 
Q 2369 400 2405 369 
Q 2441 338 2488 338 
Q 2538 338 2575 359 
Q 2641 400 2828 588 
L 2828 413 
Q 2478 -56 2159 -56 
Q 2006 -56 1915 50 
Q 1825 156 1822 413 
z
M 1822 616 
L 1822 1706 
Q 1350 1519 1213 1441 
Q 966 1303 859 1153 
Q 753 1003 753 825 
Q 753 600 887 451 
Q 1022 303 1197 303 
Q 1434 303 1822 616 
z
" id="TimesNewRomanPSMT-61" transform="scale(0.015625)"/>
       <path d="M 1031 3803 
L 1031 2863 
L 1700 2863 
L 1700 2644 
L 1031 2644 
L 1031 788 
Q 1031 509 1111 412 
Q 1191 316 1316 316 
Q 1419 316 1516 380 
Q 1613 444 1666 569 
L 1788 569 
Q 1678 263 1478 108 
Q 1278 -47 1066 -47 
Q 922 -47 784 33 
Q 647 113 581 261 
Q 516 409 516 719 
L 516 2644 
L 63 2644 
L 63 2747 
Q 234 2816 414 2980 
Q 594 3144 734 3369 
Q 806 3488 934 3803 
L 1031 3803 
z
" id="TimesNewRomanPSMT-74" transform="scale(0.015625)"/>
       <path d="M 966 1044 
Q 703 1172 562 1401 
Q 422 1631 422 1909 
Q 422 2334 742 2640 
Q 1063 2947 1563 2947 
Q 1972 2947 2272 2747 
L 2878 2747 
Q 3013 2747 3034 2739 
Q 3056 2731 3066 2713 
Q 3084 2684 3084 2613 
Q 3084 2531 3069 2500 
Q 3059 2484 3036 2475 
Q 3013 2466 2878 2466 
L 2506 2466 
Q 2681 2241 2681 1891 
Q 2681 1491 2375 1206 
Q 2069 922 1553 922 
Q 1341 922 1119 984 
Q 981 866 932 777 
Q 884 688 884 625 
Q 884 572 936 522 
Q 988 472 1138 450 
Q 1225 438 1575 428 
Q 2219 413 2409 384 
Q 2700 344 2873 169 
Q 3047 -6 3047 -263 
Q 3047 -616 2716 -925 
Q 2228 -1381 1444 -1381 
Q 841 -1381 425 -1109 
Q 191 -953 191 -784 
Q 191 -709 225 -634 
Q 278 -519 444 -313 
Q 466 -284 763 25 
Q 600 122 533 198 
Q 466 275 466 372 
Q 466 481 555 628 
Q 644 775 966 1044 
z
M 1509 2797 
Q 1278 2797 1122 2612 
Q 966 2428 966 2047 
Q 966 1553 1178 1281 
Q 1341 1075 1591 1075 
Q 1828 1075 1981 1253 
Q 2134 1431 2134 1813 
Q 2134 2309 1919 2591 
Q 1759 2797 1509 2797 
z
M 934 0 
Q 788 -159 713 -296 
Q 638 -434 638 -550 
Q 638 -700 819 -813 
Q 1131 -1006 1722 -1006 
Q 2284 -1006 2551 -807 
Q 2819 -609 2819 -384 
Q 2819 -222 2659 -153 
Q 2497 -84 2016 -72 
Q 1313 -53 934 0 
z
" id="TimesNewRomanPSMT-67" transform="scale(0.015625)"/>
      </defs>
      <use xlink:href="#TimesNewRomanPSMT-56"/>
      <use x="59.341797" xlink:href="#TimesNewRomanPSMT-6f"/>
      <use x="109.341797" xlink:href="#TimesNewRomanPSMT-6c"/>
      <use x="137.125" xlink:href="#TimesNewRomanPSMT-61"/>
      <use x="181.509766" xlink:href="#TimesNewRomanPSMT-74"/>
      <use x="209.292969" xlink:href="#TimesNewRomanPSMT-61"/>
      <use x="253.677734" xlink:href="#TimesNewRomanPSMT-67"/>
      <use x="303.677734" xlink:href="#TimesNewRomanPSMT-65"/>
      <use x="348.0625" xlink:href="#TimesNewRomanPSMT-20"/>
      <use x="373.0625" xlink:href="#TimesNewRomanPSMT-28"/>
      <use x="406.363281" xlink:href="#TimesNewRomanPSMT-56"/>
      <use x="478.580078" xlink:href="#TimesNewRomanPSMT-29"/>
     </g>
    </g>
   </g>
   <g id="LineCollection_1">
    <path clip-path="url(#p1a618bf0be)" d="M 78.555057 155.155464 
L 382.918693 155.155464 
" style="fill:none;stroke:#1f77b4;stroke-width:1.5;"/>
   </g>
   <g id="line2d_25">
    <path clip-path="url(#p1a618bf0be)" d="M 78.555057 155.141598 
L 87.685966 155.213074 
L 87.716402 155.284551 
L 87.777275 155.213074 
L 96.208148 155.320289 
L 96.329893 155.320289 
L 106.252148 155.427504 
L 106.40433 155.463243 
L 110.969784 155.570458 
L 111.121966 155.606196 
L 112.887275 155.713411 
L 113.00902 155.74915 
L 113.130766 155.74915 
L 113.252511 155.820626 
L 113.282948 155.784888 
L 113.891675 155.892103 
L 114.043857 155.927841 
L 114.622148 155.999318 
L 114.743893 156.035056 
L 115.170002 156.142271 
L 115.291748 156.213748 
L 115.322184 156.142271 
L 115.383057 156.249486 
L 115.474366 156.178009 
L 115.504802 156.249486 
L 115.930911 156.356701 
L 116.11353 156.463916 
L 116.235275 156.428178 
L 116.387457 156.499655 
L 116.509202 156.499655 
L 116.874439 156.571131 
L 116.996184 156.60687 
L 117.148366 156.678346 
L 117.209239 156.642608 
L 117.239675 156.678346 
L 117.270111 156.749823 
L 117.330984 156.714085 
L 117.36142 156.678346 
L 117.422293 156.749823 
L 118.335384 156.8213 
L 118.426693 156.892776 
L 118.45713 156.857038 
L 118.639748 156.928515 
L 119.491966 156.999991 
L 119.583275 157.107206 
L 119.613711 157.071468 
L 120.283311 157.178683 
L 120.46593 157.285898 
L 120.618111 157.25016 
L 120.861602 157.393113 
L 121.165966 157.46459 
L 121.318148 157.571805 
L 121.500766 157.643281 
L 121.683384 157.821973 
L 121.835566 157.929188 
L 123.570439 160.073488 
L 123.783493 160.46661 
L 123.966111 160.788255 
L 124.209602 161.32433 
L 124.270475 161.395807 
L 125.82273 165.291285 
L 127.801093 172.617644 
L 128.16633 174.154393 
L 128.653311 176.262954 
L 129.901202 181.623704 
L 130.327311 183.446361 
L 130.570802 184.51851 
L 130.631675 184.732941 
L 131.331711 187.52053 
L 132.42742 190.987149 
L 133.066584 192.237991 
L 133.705748 192.845542 
L 133.949239 192.952757 
L 134.223166 193.131449 
L 135.136257 193.024234 
L 135.53193 192.702589 
L 135.623239 192.595374 
L 135.897166 192.202252 
L 136.140657 191.558962 
L 136.231966 191.308794 
L 136.566766 190.308121 
L 137.175493 187.94939 
L 137.510293 186.376904 
L 138.423384 181.623704 
L 140.310439 167.542801 
L 143.628002 131.304127 
L 144.784584 116.472718 
L 146.397711 95.279888 
L 146.945566 88.34665 
L 148.710875 66.903646 
L 149.410911 59.291386 
L 150.445748 49.499076 
L 150.719675 47.319038 
L 151.206657 43.780939 
L 152.393675 37.419516 
L 153.51982 33.845685 
L 153.763311 33.52404 
L 153.885057 33.452563 
L 153.94593 33.345351 
L 154.006802 33.416828 
L 154.128548 33.345351 
L 154.158984 33.381084 
L 154.463348 33.488307 
L 154.61553 33.666996 
L 154.919893 34.16733 
L 155.406875 35.561122 
L 155.95473 37.884117 
L 156.563457 41.243523 
L 157.020002 44.531442 
L 158.146148 54.645396 
L 159.485348 71.656847 
L 160.672366 89.883396 
L 164.020366 154.784214 
L 167.277057 225.010042 
L 169.833711 273.900089 
L 171.812075 302.419284 
L 172.420802 308.887923 
L 173.333893 316.535927 
L 173.820875 319.323511 
L 174.36873 321.968151 
L 174.70353 323.004563 
L 175.007893 323.683588 
L 175.220948 324.07671 
L 175.555748 324.612791 
L 175.586184 324.577047 
L 175.61662 324.648523 
L 175.799239 324.72 
L 176.012293 324.612791 
L 176.438402 323.969501 
L 177.412366 321.432073 
L 179.05593 311.210915 
L 179.603784 306.600661 
L 180.760366 294.735536 
L 182.160439 277.045062 
L 183.286584 259.640493 
L 185.66062 218.827313 
L 187.76073 181.409276 
L 192.44793 106.180077 
L 193.756693 90.633898 
L 196.46553 66.224612 
L 197.013384 62.36488 
L 197.896039 56.86117 
L 198.443893 54.538187 
L 199.204802 51.464679 
L 200.330948 47.855115 
L 200.48313 47.53347 
L 200.970111 46.640012 
L 201.15273 46.282623 
L 201.670148 45.317688 
L 201.883202 45.210476 
L 202.004948 45.210476 
L 202.704984 45.103266 
L 202.857166 45.067522 
L 203.222402 45.174732 
L 203.678948 45.567856 
L 203.892002 45.675077 
L 204.135493 45.818022 
L 204.287675 45.925245 
L 204.652911 46.497059 
L 204.957275 47.211825 
L 205.139893 47.569203 
L 206.08342 50.035154 
L 206.813893 52.215192 
L 206.935639 52.501093 
L 207.574802 55.002777 
L 207.787857 55.717544 
L 208.335711 57.79037 
L 208.640075 59.255642 
L 209.218366 62.007491 
L 209.644475 63.865884 
L 210.43582 67.868581 
L 210.588002 68.476133 
L 210.953239 69.977143 
L 211.409784 71.978492 
L 214.605602 87.453192 
L 215.21433 90.955543 
L 215.488257 92.742466 
L 216.340475 97.96026 
L 218.592766 111.790996 
L 219.018875 114.399895 
L 222.24513 137.879981 
L 224.132184 154.605523 
L 224.619166 158.786908 
L 228.51502 201.101098 
L 230.219457 221.722121 
L 231.649966 238.018799 
L 233.171784 254.637126 
L 235.089275 271.648574 
L 236.245857 279.010668 
L 237.037202 282.262862 
L 237.524184 283.156321 
L 237.767675 283.299266 
L 237.98073 283.406489 
L 238.254657 283.585178 
L 238.65033 283.477966 
L 238.98513 282.977632 
L 239.259057 282.405807 
L 239.472111 282.048429 
L 240.506948 278.009997 
L 240.99393 275.365361 
L 241.480911 271.863007 
L 242.363566 264.858293 
L 244.494111 243.808413 
L 245.407202 232.979694 
L 248.237784 191.558962 
L 248.998693 180.051217 
L 252.681493 129.660165 
L 253.411966 121.79773 
L 254.020693 115.865166 
L 255.72513 102.713459 
L 256.851275 96.67368 
L 257.06433 95.923178 
L 257.429566 94.672336 
L 258.768766 91.777528 
L 258.98182 91.384406 
L 259.225311 91.062761 
L 260.351457 89.883396 
L 260.534075 89.811919 
L 260.65582 89.776181 
L 260.777566 89.811919 
L 260.929748 89.776181 
L 261.690657 89.883396 
L 262.08633 90.205041 
L 262.238511 90.312253 
L 263.303784 91.706051 
L 263.608148 92.170652 
L 263.882075 92.635248 
L 264.186439 93.099849 
L 264.460366 93.564445 
L 265.190839 95.029713 
L 265.464766 95.494315 
L 267.047457 99.461267 
L 270.852002 113.256268 
L 272.069457 119.474738 
L 272.495566 121.690515 
L 273.439093 126.586667 
L 275.447893 135.556989 
L 275.600075 136.093065 
L 275.965311 137.594075 
L 276.14793 138.273103 
L 276.665348 140.202973 
L 280.104657 151.925148 
L 280.226402 152.211054 
L 280.561202 152.997298 
L 282.204766 156.60687 
L 282.41782 156.999991 
L 282.783057 157.607543 
L 283.574402 158.429525 
L 283.604839 158.393786 
L 283.665711 158.465263 
L 283.84833 158.643955 
L 284.030948 158.75117 
L 284.061384 158.715431 
L 284.122257 158.786908 
L 285.309275 158.679693 
L 285.491893 158.501001 
L 286.313675 157.393113 
L 286.952839 156.142271 
L 287.074584 155.856365 
L 288.413784 152.461223 
L 288.931202 151.031689 
L 290.513893 147.493594 
L 290.54433 147.529332 
L 290.574766 147.493594 
L 290.848693 147.100472 
L 291.579166 146.349967 
L 291.79222 146.49292 
L 291.913966 146.457182 
L 292.21833 146.564397 
L 292.340075 146.600135 
L 292.55313 146.70735 
L 292.735748 146.814566 
L 293.009675 147.243426 
L 293.100984 147.35064 
L 293.405348 147.850977 
L 293.46622 147.922454 
L 293.861893 148.601482 
L 294.014075 148.923127 
L 294.531493 150.388399 
L 295.80982 155.284551 
L 297.331639 162.896817 
L 297.879493 166.006052 
L 298.336039 168.61495 
L 299.370875 175.155066 
L 299.644802 176.941983 
L 300.618766 183.303408 
L 301.897093 191.523224 
L 303.205857 199.850256 
L 304.088511 205.282483 
L 305.062475 210.393065 
L 305.305966 211.643907 
L 306.371239 216.146935 
L 306.584293 216.861704 
L 306.94953 218.076805 
L 308.075675 220.471279 
L 308.927893 221.328996 
L 309.110511 221.436214 
L 309.354002 221.579165 
L 309.719239 221.471953 
L 310.723639 220.149634 
L 311.241057 218.684357 
L 311.941093 215.861028 
L 312.30633 214.074114 
L 312.519384 212.966229 
L 314.345566 201.637173 
L 321.102439 146.957519 
L 321.34593 145.313555 
L 321.985093 140.953479 
L 322.837311 135.342559 
L 323.476475 130.982482 
L 325.02873 120.832795 
L 326.398366 113.434959 
L 327.920184 106.787629 
L 328.741966 103.499705 
L 329.137639 102.105907 
L 329.259384 101.82 
L 329.837675 100.176037 
L 330.62902 98.53207 
L 330.72033 98.424861 
L 331.116002 97.74583 
L 331.38993 97.31697 
L 331.602984 96.923845 
L 333.368293 94.993981 
L 333.429166 95.065452 
L 333.490039 94.993981 
L 334.159639 95.101193 
L 334.281384 95.17267 
L 334.31182 95.101193 
L 334.342257 95.208408 
L 334.372693 95.208408 
L 335.194475 96.03039 
L 335.285784 96.101866 
L 335.468402 96.316294 
L 335.590148 96.387773 
L 335.894511 96.852374 
L 336.564111 97.781571 
L 336.807602 98.246167 
L 338.268548 101.927218 
L 338.633784 103.17806 
L 338.907711 104.035777 
L 339.394693 105.822694 
L 341.00782 111.862473 
L 341.373057 113.363483 
L 342.712257 119.153093 
L 343.138366 121.047225 
L 346.486366 137.27243 
L 348.921275 150.924474 
L 350.016984 156.571131 
L 350.80833 160.573825 
L 352.208402 166.649342 
L 353.851966 172.045831 
L 354.247639 173.189458 
L 354.552002 174.154393 
L 354.643311 174.368823 
L 354.947675 175.298019 
L 355.038984 175.548188 
L 355.769457 177.728226 
L 356.134693 178.836114 
L 357.07822 181.766657 
L 357.443457 182.874545 
L 358.234802 185.269015 
L 358.691348 186.555595 
L 358.965275 187.341839 
L 359.42182 188.556942 
L 360.000111 190.165167 
L 360.42622 191.273056 
L 361.248002 192.952757 
L 361.400184 193.274402 
L 361.704548 193.739001 
L 361.76542 193.774739 
L 361.948039 194.060646 
L 362.039348 194.167861 
L 363.226366 195.418703 
L 363.378548 195.525918 
L 363.622039 195.704609 
L 363.652475 195.668871 
L 363.713348 195.740348 
L 363.956839 195.847563 
L 364.139457 195.919039 
L 364.169893 195.883301 
L 364.20033 195.954778 
L 364.352511 195.990516 
L 364.717748 196.097731 
L 364.900366 196.204946 
L 364.991675 196.169208 
L 365.143857 196.276423 
L 365.174293 196.240684 
L 365.235166 196.312161 
L 365.569966 196.419376 
L 365.722148 196.455114 
L 366.756984 196.562329 
L 366.87873 196.669544 
L 366.909166 196.633806 
L 367.030911 196.633806 
L 369.039711 196.526591 
L 369.191893 196.490853 
L 369.313639 196.562329 
L 369.344075 196.490853 
L 369.404948 196.526591 
L 369.496257 196.598068 
L 369.526693 196.562329 
L 369.678875 196.526591 
L 370.044111 196.419376 
L 370.287602 196.276423 
L 370.683275 196.204946 
L 370.80502 196.133469 
L 371.018075 196.026254 
L 371.261566 195.883301 
L 371.413748 195.811824 
L 371.535493 195.704609 
L 371.626802 195.704609 
L 371.90073 195.525918 
L 372.23553 195.418703 
L 372.57033 195.168534 
L 372.722511 195.097058 
L 372.844257 195.025581 
L 373.087748 194.918366 
L 373.300802 194.811151 
L 373.48342 194.703936 
L 374.122584 194.060646 
L 374.15302 194.096384 
L 374.213893 194.024908 
L 375.218293 192.738327 
L 375.461784 192.237991 
L 375.705275 191.809131 
L 375.948766 191.344532 
L 376.192257 190.951411 
L 376.49662 190.236644 
L 376.648802 189.914999 
L 378.231493 185.948044 
L 378.748911 184.51851 
L 379.114148 183.410622 
L 381.122948 175.941309 
L 382.918693 167.685754 
L 382.918693 167.685754 
" style="fill:none;stroke:#0000ff;stroke-linecap:square;stroke-width:1.5;"/>
   </g>
   <g id="line2d_26">
    <path clip-path="url(#p1a618bf0be)" d="M 78.555057 155.159395 
L 78.768111 155.159395 
L 93.194948 155.26661 
L 93.377566 155.26661 
L 93.59062 155.248741 
L 93.773239 155.26661 
L 93.894984 155.26661 
L 99.464839 155.373825 
L 99.738766 155.427433 
L 99.890948 155.427433 
L 100.04313 155.463171 
L 100.469239 155.570386 
L 102.143239 156.678275 
L 102.508475 157.107135 
L 102.660657 157.321565 
L 103.05633 157.946986 
L 103.938984 159.716033 
L 104.852075 162.128371 
L 105.64342 164.790877 
L 106.160839 166.702878 
L 110.361057 183.517765 
L 110.908911 185.072383 
L 111.243711 186.019449 
L 112.065493 187.681281 
L 112.308984 188.110141 
L 112.643784 188.646216 
L 113.10033 189.057207 
L 113.252511 189.092946 
L 114.135166 188.985731 
L 114.500402 188.664086 
L 115.565675 186.591262 
L 116.387457 183.875149 
L 118.152766 175.083518 
L 120.648548 158.2865 
L 125.48793 119.40319 
L 126.431457 113.506365 
L 128.714184 102.034359 
L 129.657711 98.621345 
L 130.388184 97.120338 
L 130.692548 96.548524 
L 131.17953 95.905234 
L 131.605639 95.547851 
L 132.610039 93.993236 
L 133.888366 93.367812 
L 134.649275 93.689457 
L 135.10582 93.600111 
L 135.318875 93.492896 
L 136.53633 94.082579 
L 136.932002 94.189791 
L 137.20593 94.457832 
L 137.966839 95.583589 
L 138.240766 96.066057 
L 138.666875 97.334765 
L 139.336475 100.086622 
L 141.619202 111.272719 
L 142.593166 117.348236 
L 143.323639 122.762594 
L 146.123784 144.97397 
L 147.402111 156.374499 
L 148.954366 170.777048 
L 153.154584 206.801288 
L 154.158984 213.091236 
L 154.919893 216.897371 
L 155.559057 219.381183 
L 156.472148 221.739916 
L 157.050439 222.544028 
L 157.446111 222.847801 
L 157.96353 223.026496 
L 158.450511 222.633374 
L 158.937493 221.990084 
L 159.54622 221.114492 
L 160.094075 219.953002 
L 161.524584 215.432102 
L 162.011566 213.448619 
L 162.833348 209.606751 
L 164.476911 199.296241 
L 166.57702 183.714327 
L 168.220584 172.010021 
L 168.92062 167.864374 
L 170.655493 160.162763 
L 170.898984 159.519473 
L 172.02513 157.142873 
L 172.329493 156.928443 
L 173.546948 157.035658 
L 173.760002 157.285827 
L 174.186111 157.946986 
L 175.129639 159.823248 
L 175.61662 161.592296 
L 177.077566 168.043065 
L 178.203711 174.583182 
L 179.177675 181.194774 
L 182.190875 198.24196 
L 184.108366 206.729817 
L 184.99102 209.017065 
L 185.173639 209.249367 
L 185.569311 209.553143 
L 186.08673 209.4638 
L 186.360657 209.088545 
L 186.938948 207.855575 
L 187.42593 206.461777 
L 188.125966 203.60271 
L 188.76513 200.511344 
L 189.221675 197.884576 
L 190.256511 190.486741 
L 191.321784 180.122623 
L 199.022184 99.9258 
L 201.304911 78.250496 
L 202.644111 68.833447 
L 204.07462 61.096098 
L 204.652911 58.880315 
L 205.109457 57.647351 
L 205.596439 57.004061 
L 206.205166 57.486523 
L 206.996511 58.576542 
L 208.487893 62.32907 
L 209.09662 64.866489 
L 210.344511 70.4238 
L 212.688111 84.82635 
L 216.431784 111.987485 
L 220.327639 140.88193 
L 225.106148 168.275365 
L 226.59753 175.565985 
L 229.915093 188.753432 
L 232.836984 197.652277 
L 233.323966 199.189026 
L 233.902257 201.226111 
L 234.724039 204.138782 
L 236.21542 209.017065 
L 236.458911 209.660355 
L 238.22422 213.555837 
L 239.137311 214.485034 
L 239.441675 214.592251 
L 239.65473 214.681594 
L 239.837348 214.699461 
L 240.32433 214.788812 
L 240.506948 214.842417 
L 240.99393 214.949635 
L 241.32873 215.021106 
L 243.398402 215.110457 
L 243.733202 215.360623 
L 243.885384 215.449969 
L 244.128875 215.682268 
L 244.58542 216.075392 
L 245.163711 216.879499 
L 245.285457 217.058194 
L 245.894184 217.915914 
L 246.046366 218.112475 
L 246.989893 219.559877 
L 247.35513 220.131691 
L 247.811675 220.935803 
L 249.94222 224.902756 
L 250.36833 225.653264 
L 250.61182 226.099993 
L 251.220548 227.386573 
L 251.585784 228.137081 
L 252.590184 229.691696 
L 252.681493 229.763172 
L 252.95542 230.049079 
L 253.138039 230.156294 
L 253.71633 230.370724 
L 254.142439 230.477942 
L 254.38593 230.531546 
L 254.538111 230.460067 
L 254.659857 230.406462 
L 254.812039 230.299244 
L 255.846875 228.941193 
L 256.63822 226.832626 
L 257.946984 221.829262 
L 259.042693 215.449969 
L 259.65142 210.821854 
L 260.381893 204.406823 
L 261.721093 189.968535 
L 262.66462 177.62094 
L 263.821202 160.538015 
L 266.590911 114.918029 
L 268.660584 80.376927 
L 270.091093 59.434265 
L 271.308548 45.138922 
L 272.556439 33.774131 
L 273.37822 28.324038 
L 274.291311 24.071181 
L 274.747857 23.052642 
L 275.173966 22.480817 
L 275.356584 22.373608 
L 275.539202 22.32 
L 275.904439 22.659517 
L 276.178366 23.124107 
L 277.121893 25.60793 
L 277.761057 28.681427 
L 278.887202 35.954181 
L 279.922039 44.65646 
L 281.443857 59.988206 
L 282.75262 74.998305 
L 285.035348 103.08864 
L 286.800657 124.460165 
L 290.848693 170.705572 
L 292.431384 186.251749 
L 294.318439 201.88727 
L 295.748948 211.179237 
L 297.879493 223.026496 
L 298.609966 226.332292 
L 300.58833 232.908146 
L 301.044875 233.926688 
L 301.653602 234.802278 
L 301.83622 235.034577 
L 302.536257 235.695736 
L 302.992802 235.588518 
L 303.236293 235.320484 
L 303.571093 234.784411 
L 304.240693 232.979623 
L 305.579893 227.02919 
L 308.501784 209.231498 
L 309.597493 201.654971 
L 310.114911 198.331306 
L 312.367202 183.249729 
L 313.21942 177.585201 
L 314.467311 168.900786 
L 315.197784 163.951026 
L 316.23262 157.982724 
L 317.084839 153.622647 
L 318.697966 146.546456 
L 319.976293 142.436548 
L 321.193748 139.18436 
L 322.563384 136.986452 
L 323.324293 136.253816 
L 323.628657 135.95004 
L 325.36353 133.752131 
L 327.220148 130.696505 
L 327.646257 130.035345 
L 330.476839 123.119977 
L 332.668257 117.026591 
L 333.39873 115.043113 
L 334.220511 112.952421 
L 336.07713 109.896793 
L 336.259748 109.682366 
L 336.533675 109.289241 
L 336.716293 109.056942 
L 337.08153 108.610213 
L 337.385893 108.30644 
L 337.842439 107.931184 
L 338.025057 107.841838 
L 338.268548 107.716754 
L 338.542475 107.66315 
L 338.785966 107.681016 
L 339.059893 107.770362 
L 339.394693 108.002661 
L 339.577311 108.109879 
L 340.520839 109.378587 
L 341.09913 110.611559 
L 341.920911 112.809467 
L 343.01662 116.365432 
L 344.44713 122.691117 
L 345.208039 127.265624 
L 350.747457 167.078131 
L 354.582439 195.507977 
L 356.256439 206.533254 
L 357.16953 211.250714 
L 359.026148 218.43412 
L 359.817493 220.060211 
L 360.09142 220.328252 
L 360.304475 220.524812 
L 361.308875 220.435469 
L 361.552366 220.310385 
L 362.313275 219.756438 
L 363.652475 217.183278 
L 364.626439 214.002566 
L 366.422184 206.211609 
L 368.917966 189.396722 
L 369.952802 180.658698 
L 374.609566 137.933518 
L 377.653202 115.525581 
L 378.901093 108.127745 
L 379.540257 105.036376 
L 380.148984 102.409608 
L 381.092511 98.996603 
L 381.85342 96.941649 
L 382.27953 96.030318 
L 382.796948 95.083255 
L 382.918693 94.904561 
L 382.918693 94.904561 
" style="fill:none;stroke:#ff0000;stroke-linecap:square;stroke-width:1.5;"/>
   </g>
   <g id="line2d_27">
    <path clip-path="url(#p1a618bf0be)" d="M 125.244439 163.68306 
" style="fill:none;stroke:#ffffff;stroke-linecap:square;stroke-width:1.5;"/>
    <defs>
     <path d="M 0 -5 
L -1.12257 -1.545085 
L -4.755283 -1.545085 
L -1.816356 0.59017 
L -2.938926 4.045085 
L -0 1.90983 
L 2.938926 4.045085 
L 1.816356 0.59017 
L 4.755283 -1.545085 
L 1.12257 -1.545085 
z
" id="mcb6ce503f5" style="stroke:#ffffff;stroke-linejoin:bevel;"/>
    </defs>
    <g clip-path="url(#p1a618bf0be)">
     <use style="fill:#0000ff;stroke:#ffffff;stroke-linejoin:bevel;" x="125.244439" xlink:href="#mcb6ce503f5" y="163.68306"/>
    </g>
   </g>
   <g id="line2d_28">
    <path clip-path="url(#p1a618bf0be)" d="M 104.760766 161.860334 
" style="fill:none;stroke:#ffffff;stroke-linecap:square;stroke-width:1.5;"/>
    <defs>
     <path d="M 0 -5 
L -1.12257 -1.545085 
L -4.755283 -1.545085 
L -1.816356 0.59017 
L -2.938926 4.045085 
L -0 1.90983 
L 2.938926 4.045085 
L 1.816356 0.59017 
L 4.755283 -1.545085 
L 1.12257 -1.545085 
z
" id="m39c525aa7e" style="stroke:#ffffff;stroke-linejoin:bevel;"/>
    </defs>
    <g clip-path="url(#p1a618bf0be)">
     <use style="fill:#ff0000;stroke:#ffffff;stroke-linejoin:bevel;" x="104.760766" xlink:href="#m39c525aa7e" y="161.860334"/>
    </g>
   </g>
   <g id="patch_3">
    <path d="M 63.336875 339.84 
L 63.336875 7.2 
" style="fill:none;stroke:#000000;stroke-linecap:square;stroke-linejoin:miter;stroke-width:0.8;"/>
   </g>
   <g id="patch_4">
    <path d="M 398.136875 339.84 
L 398.136875 7.2 
" style="fill:none;stroke:#000000;stroke-linecap:square;stroke-linejoin:miter;stroke-width:0.8;"/>
   </g>
   <g id="patch_5">
    <path d="M 63.336875 339.84 
L 398.136875 339.84 
" style="fill:none;stroke:#000000;stroke-linecap:square;stroke-linejoin:miter;stroke-width:0.8;"/>
   </g>
   <g id="patch_6">
    <path d="M 63.336875 7.2 
L 398.136875 7.2 
" style="fill:none;stroke:#000000;stroke-linecap:square;stroke-linejoin:miter;stroke-width:0.8;"/>
   </g>
   <g id="text_15">
    <g id="patch_7">
     <path d="M 75.036875 331.242688 
L 166.79375 331.242688 
L 166.79375 293.760312 
L 75.036875 293.760312 
z
" style="fill:#ffffff;stroke:#000000;stroke-linejoin:miter;stroke-width:0.75;"/>
    </g>
    <!-- Auto_00099 -->
    <g transform="translate(80.076875 308.521562)scale(0.14 -0.14)">
     <defs>
      <path d="M 2928 1419 
L 1288 1419 
L 1000 750 
Q 894 503 894 381 
Q 894 284 986 211 
Q 1078 138 1384 116 
L 1384 0 
L 50 0 
L 50 116 
Q 316 163 394 238 
Q 553 388 747 847 
L 2238 4334 
L 2347 4334 
L 3822 809 
Q 4000 384 4145 257 
Q 4291 131 4550 116 
L 4550 0 
L 2878 0 
L 2878 116 
Q 3131 128 3220 200 
Q 3309 272 3309 375 
Q 3309 513 3184 809 
L 2928 1419 
z
M 2841 1650 
L 2122 3363 
L 1384 1650 
L 2841 1650 
z
" id="TimesNewRomanPSMT-41" transform="scale(0.015625)"/>
      <path d="M 2709 2863 
L 2709 1128 
Q 2709 631 2732 520 
Q 2756 409 2807 365 
Q 2859 322 2928 322 
Q 3025 322 3147 375 
L 3191 266 
L 2334 -88 
L 2194 -88 
L 2194 519 
Q 1825 119 1631 15 
Q 1438 -88 1222 -88 
Q 981 -88 804 51 
Q 628 191 559 409 
Q 491 628 491 1028 
L 491 2306 
Q 491 2509 447 2587 
Q 403 2666 317 2708 
Q 231 2750 6 2747 
L 6 2863 
L 1009 2863 
L 1009 947 
Q 1009 547 1148 422 
Q 1288 297 1484 297 
Q 1619 297 1789 381 
Q 1959 466 2194 703 
L 2194 2325 
Q 2194 2569 2105 2655 
Q 2016 2741 1734 2747 
L 1734 2863 
L 2709 2863 
z
" id="TimesNewRomanPSMT-75" transform="scale(0.015625)"/>
      <path d="M 3256 -1381 
L -53 -1381 
L -53 -1119 
L 3256 -1119 
L 3256 -1381 
z
" id="TimesNewRomanPSMT-5f" transform="scale(0.015625)"/>
      <path d="M 338 -88 
L 338 28 
Q 744 34 1094 217 
Q 1444 400 1770 856 
Q 2097 1313 2225 1859 
Q 1734 1544 1338 1544 
Q 891 1544 572 1889 
Q 253 2234 253 2806 
Q 253 3363 572 3797 
Q 956 4325 1575 4325 
Q 2097 4325 2469 3894 
Q 2925 3359 2925 2575 
Q 2925 1869 2578 1258 
Q 2231 647 1613 244 
Q 1109 -88 516 -88 
L 338 -88 
z
M 2275 2091 
Q 2331 2497 2331 2741 
Q 2331 3044 2228 3395 
Q 2125 3747 1936 3934 
Q 1747 4122 1506 4122 
Q 1228 4122 1018 3872 
Q 809 3622 809 3128 
Q 809 2469 1088 2097 
Q 1291 1828 1588 1828 
Q 1731 1828 1928 1897 
Q 2125 1966 2275 2091 
z
" id="TimesNewRomanPSMT-39" transform="scale(0.015625)"/>
     </defs>
     <use xlink:href="#TimesNewRomanPSMT-41"/>
     <use x="72.216797" xlink:href="#TimesNewRomanPSMT-75"/>
     <use x="122.216797" xlink:href="#TimesNewRomanPSMT-74"/>
     <use x="150" xlink:href="#TimesNewRomanPSMT-6f"/>
     <use x="200" xlink:href="#TimesNewRomanPSMT-5f"/>
     <use x="250" xlink:href="#TimesNewRomanPSMT-30"/>
     <use x="300" xlink:href="#TimesNewRomanPSMT-30"/>
     <use x="350" xlink:href="#TimesNewRomanPSMT-30"/>
     <use x="400" xlink:href="#TimesNewRomanPSMT-39"/>
     <use x="450" xlink:href="#TimesNewRomanPSMT-39"/>
    </g>
    <!-- Vs: 297.02m/s -->
    <g transform="translate(80.076875 323.208)scale(0.14 -0.14)">
     <defs>
      <path d="M 903 2950 
Q 1047 2950 1148 2848 
Q 1250 2747 1250 2603 
Q 1250 2459 1148 2357 
Q 1047 2256 903 2256 
Q 759 2256 657 2357 
Q 556 2459 556 2603 
Q 556 2747 657 2848 
Q 759 2950 903 2950 
z
M 897 609 
Q 1044 609 1145 506 
Q 1247 403 1247 259 
Q 1247 116 1144 14 
Q 1041 -88 897 -88 
Q 753 -88 651 14 
Q 550 116 550 259 
Q 550 403 651 506 
Q 753 609 897 609 
z
" id="TimesNewRomanPSMT-3a" transform="scale(0.015625)"/>
      <path d="M 644 4238 
L 2916 4238 
L 2916 4119 
L 1503 -88 
L 1153 -88 
L 2419 3728 
L 1253 3728 
Q 900 3728 750 3644 
Q 488 3500 328 3200 
L 238 3234 
L 644 4238 
z
" id="TimesNewRomanPSMT-37" transform="scale(0.015625)"/>
      <path d="M 1794 4444 
L 259 -88 
L 9 -88 
L 1544 4444 
L 1794 4444 
z
" id="TimesNewRomanPSMT-2f" transform="scale(0.015625)"/>
     </defs>
     <use xlink:href="#TimesNewRomanPSMT-56"/>
     <use x="72.216797" xlink:href="#TimesNewRomanPSMT-73"/>
     <use x="111.132812" xlink:href="#TimesNewRomanPSMT-3a"/>
     <use x="138.916016" xlink:href="#TimesNewRomanPSMT-20"/>
     <use x="163.916016" xlink:href="#TimesNewRomanPSMT-32"/>
     <use x="213.916016" xlink:href="#TimesNewRomanPSMT-39"/>
     <use x="263.916016" xlink:href="#TimesNewRomanPSMT-37"/>
     <use x="313.916016" xlink:href="#TimesNewRomanPSMT-2e"/>
     <use x="338.916016" xlink:href="#TimesNewRomanPSMT-30"/>
     <use x="388.916016" xlink:href="#TimesNewRomanPSMT-32"/>
     <use x="438.916016" xlink:href="#TimesNewRomanPSMT-6d"/>
     <use x="516.699219" xlink:href="#TimesNewRomanPSMT-2f"/>
     <use x="544.482422" xlink:href="#TimesNewRomanPSMT-73"/>
    </g>
   </g>
  </g>
 </g>
 <defs>
  <clipPath id="p1a618bf0be">
   <rect height="332.64" width="334.8" x="63.336875" y="7.2"/>
  </clipPath>
 </defs>
</svg>
