<?xml version="1.0" encoding="utf-8" standalone="no"?>
<!DOCTYPE svg PUBLIC "-//W3C//DTD SVG 1.1//EN"
  "http://www.w3.org/Graphics/SVG/1.1/DTD/svg11.dtd">
<svg height="383.471875pt" version="1.1" viewBox="0 0 421.086875 383.471875" width="421.086875pt" xmlns="http://www.w3.org/2000/svg" xmlns:xlink="http://www.w3.org/1999/xlink">
 <metadata>
  <rdf:RDF xmlns:cc="http://creativecommons.org/ns#" xmlns:dc="http://purl.org/dc/elements/1.1/" xmlns:rdf="http://www.w3.org/1999/02/22-rdf-syntax-ns#">
   <cc:Work>
    <dc:type rdf:resource="http://purl.org/dc/dcmitype/StillImage"/>
    <dc:date>2021-06-11T14:39:38.945954</dc:date>
    <dc:format>image/svg+xml</dc:format>
    <dc:creator>
     <cc:Agent>
      <dc:title>Matplotlib v3.4.2, https://matplotlib.org/</dc:title>
     </cc:Agent>
    </dc:creator>
   </cc:Work>
  </rdf:RDF>
 </metadata>
 <defs>
  <style type="text/css">*{stroke-linecap:butt;stroke-linejoin:round;}</style>
 </defs>
 <g id="figure_1">
  <g id="patch_1">
   <path d="M 0 383.471875 
L 421.086875 383.471875 
L 421.086875 0 
L 0 0 
z
" style="fill:#ffffff;"/>
  </g>
  <g id="axes_1">
   <g id="patch_2">
    <path d="M 63.336875 339.84 
L 398.136875 339.84 
L 398.136875 7.2 
L 63.336875 7.2 
z
" style="fill:#ffffff;"/>
   </g>
   <g id="matplotlib.axis_1">
    <g id="xtick_1">
     <g id="line2d_1">
      <path clip-path="url(#pcf97f40a01)" d="M 93.773239 339.84 
L 93.773239 7.2 
" style="fill:none;stroke:#000000;stroke-dasharray:0.5,0.825;stroke-dashoffset:0;stroke-width:0.5;"/>
     </g>
     <g id="line2d_2">
      <defs>
       <path d="M 0 0 
L 0 3.5 
" id="m8d7e45d110" style="stroke:#000000;stroke-width:0.8;"/>
      </defs>
      <g>
       <use style="stroke:#000000;stroke-width:0.8;" x="93.773239" xlink:href="#m8d7e45d110" y="339.84"/>
      </g>
     </g>
     <g id="text_1">
      <!-- 0.000 -->
      <g transform="translate(78.023239 356.56125)scale(0.14 -0.14)">
       <defs>
        <path d="M 231 2094 
Q 231 2819 450 3342 
Q 669 3866 1031 4122 
Q 1313 4325 1613 4325 
Q 2100 4325 2488 3828 
Q 2972 3213 2972 2159 
Q 2972 1422 2759 906 
Q 2547 391 2217 158 
Q 1888 -75 1581 -75 
Q 975 -75 572 641 
Q 231 1244 231 2094 
z
M 844 2016 
Q 844 1141 1059 588 
Q 1238 122 1591 122 
Q 1759 122 1940 273 
Q 2122 425 2216 781 
Q 2359 1319 2359 2297 
Q 2359 3022 2209 3506 
Q 2097 3866 1919 4016 
Q 1791 4119 1609 4119 
Q 1397 4119 1231 3928 
Q 1006 3669 925 3112 
Q 844 2556 844 2016 
z
" id="TimesNewRomanPSMT-30" transform="scale(0.015625)"/>
        <path d="M 800 606 
Q 947 606 1047 504 
Q 1147 403 1147 259 
Q 1147 116 1045 14 
Q 944 -88 800 -88 
Q 656 -88 554 14 
Q 453 116 453 259 
Q 453 406 554 506 
Q 656 606 800 606 
z
" id="TimesNewRomanPSMT-2e" transform="scale(0.015625)"/>
       </defs>
       <use xlink:href="#TimesNewRomanPSMT-30"/>
       <use x="50" xlink:href="#TimesNewRomanPSMT-2e"/>
       <use x="75" xlink:href="#TimesNewRomanPSMT-30"/>
       <use x="125" xlink:href="#TimesNewRomanPSMT-30"/>
       <use x="175" xlink:href="#TimesNewRomanPSMT-30"/>
      </g>
     </g>
    </g>
    <g id="xtick_2">
     <g id="line2d_3">
      <path clip-path="url(#pcf97f40a01)" d="M 154.645966 339.84 
L 154.645966 7.2 
" style="fill:none;stroke:#000000;stroke-dasharray:0.5,0.825;stroke-dashoffset:0;stroke-width:0.5;"/>
     </g>
     <g id="line2d_4">
      <g>
       <use style="stroke:#000000;stroke-width:0.8;" x="154.645966" xlink:href="#m8d7e45d110" y="339.84"/>
      </g>
     </g>
     <g id="text_2">
      <!-- 0.001 -->
      <g transform="translate(138.895966 356.56125)scale(0.14 -0.14)">
       <defs>
        <path d="M 750 3822 
L 1781 4325 
L 1884 4325 
L 1884 747 
Q 1884 391 1914 303 
Q 1944 216 2037 169 
Q 2131 122 2419 116 
L 2419 0 
L 825 0 
L 825 116 
Q 1125 122 1212 167 
Q 1300 213 1334 289 
Q 1369 366 1369 747 
L 1369 3034 
Q 1369 3497 1338 3628 
Q 1316 3728 1258 3775 
Q 1200 3822 1119 3822 
Q 1003 3822 797 3725 
L 750 3822 
z
" id="TimesNewRomanPSMT-31" transform="scale(0.015625)"/>
       </defs>
       <use xlink:href="#TimesNewRomanPSMT-30"/>
       <use x="50" xlink:href="#TimesNewRomanPSMT-2e"/>
       <use x="75" xlink:href="#TimesNewRomanPSMT-30"/>
       <use x="125" xlink:href="#TimesNewRomanPSMT-30"/>
       <use x="175" xlink:href="#TimesNewRomanPSMT-31"/>
      </g>
     </g>
    </g>
    <g id="xtick_3">
     <g id="line2d_5">
      <path clip-path="url(#pcf97f40a01)" d="M 215.518693 339.84 
L 215.518693 7.2 
" style="fill:none;stroke:#000000;stroke-dasharray:0.5,0.825;stroke-dashoffset:0;stroke-width:0.5;"/>
     </g>
     <g id="line2d_6">
      <g>
       <use style="stroke:#000000;stroke-width:0.8;" x="215.518693" xlink:href="#m8d7e45d110" y="339.84"/>
      </g>
     </g>
     <g id="text_3">
      <!-- 0.002 -->
      <g transform="translate(199.768693 356.56125)scale(0.14 -0.14)">
       <defs>
        <path d="M 2934 816 
L 2638 0 
L 138 0 
L 138 116 
Q 1241 1122 1691 1759 
Q 2141 2397 2141 2925 
Q 2141 3328 1894 3587 
Q 1647 3847 1303 3847 
Q 991 3847 742 3664 
Q 494 3481 375 3128 
L 259 3128 
Q 338 3706 661 4015 
Q 984 4325 1469 4325 
Q 1984 4325 2329 3994 
Q 2675 3663 2675 3213 
Q 2675 2891 2525 2569 
Q 2294 2063 1775 1497 
Q 997 647 803 472 
L 1909 472 
Q 2247 472 2383 497 
Q 2519 522 2628 598 
Q 2738 675 2819 816 
L 2934 816 
z
" id="TimesNewRomanPSMT-32" transform="scale(0.015625)"/>
       </defs>
       <use xlink:href="#TimesNewRomanPSMT-30"/>
       <use x="50" xlink:href="#TimesNewRomanPSMT-2e"/>
       <use x="75" xlink:href="#TimesNewRomanPSMT-30"/>
       <use x="125" xlink:href="#TimesNewRomanPSMT-30"/>
       <use x="175" xlink:href="#TimesNewRomanPSMT-32"/>
      </g>
     </g>
    </g>
    <g id="xtick_4">
     <g id="line2d_7">
      <path clip-path="url(#pcf97f40a01)" d="M 276.39142 339.84 
L 276.39142 7.2 
" style="fill:none;stroke:#000000;stroke-dasharray:0.5,0.825;stroke-dashoffset:0;stroke-width:0.5;"/>
     </g>
     <g id="line2d_8">
      <g>
       <use style="stroke:#000000;stroke-width:0.8;" x="276.39142" xlink:href="#m8d7e45d110" y="339.84"/>
      </g>
     </g>
     <g id="text_4">
      <!-- 0.003 -->
      <g transform="translate(260.64142 356.56125)scale(0.14 -0.14)">
       <defs>
        <path d="M 325 3431 
Q 506 3859 782 4092 
Q 1059 4325 1472 4325 
Q 1981 4325 2253 3994 
Q 2459 3747 2459 3466 
Q 2459 3003 1878 2509 
Q 2269 2356 2469 2072 
Q 2669 1788 2669 1403 
Q 2669 853 2319 450 
Q 1863 -75 997 -75 
Q 569 -75 414 31 
Q 259 138 259 259 
Q 259 350 332 419 
Q 406 488 509 488 
Q 588 488 669 463 
Q 722 447 909 348 
Q 1097 250 1169 231 
Q 1284 197 1416 197 
Q 1734 197 1970 444 
Q 2206 691 2206 1028 
Q 2206 1275 2097 1509 
Q 2016 1684 1919 1775 
Q 1784 1900 1550 2001 
Q 1316 2103 1072 2103 
L 972 2103 
L 972 2197 
Q 1219 2228 1467 2375 
Q 1716 2522 1828 2728 
Q 1941 2934 1941 3181 
Q 1941 3503 1739 3701 
Q 1538 3900 1238 3900 
Q 753 3900 428 3381 
L 325 3431 
z
" id="TimesNewRomanPSMT-33" transform="scale(0.015625)"/>
       </defs>
       <use xlink:href="#TimesNewRomanPSMT-30"/>
       <use x="50" xlink:href="#TimesNewRomanPSMT-2e"/>
       <use x="75" xlink:href="#TimesNewRomanPSMT-30"/>
       <use x="125" xlink:href="#TimesNewRomanPSMT-30"/>
       <use x="175" xlink:href="#TimesNewRomanPSMT-33"/>
      </g>
     </g>
    </g>
    <g id="xtick_5">
     <g id="line2d_9">
      <path clip-path="url(#pcf97f40a01)" d="M 337.264148 339.84 
L 337.264148 7.2 
" style="fill:none;stroke:#000000;stroke-dasharray:0.5,0.825;stroke-dashoffset:0;stroke-width:0.5;"/>
     </g>
     <g id="line2d_10">
      <g>
       <use style="stroke:#000000;stroke-width:0.8;" x="337.264148" xlink:href="#m8d7e45d110" y="339.84"/>
      </g>
     </g>
     <g id="text_5">
      <!-- 0.004 -->
      <g transform="translate(321.514148 356.56125)scale(0.14 -0.14)">
       <defs>
        <path d="M 2978 1563 
L 2978 1119 
L 2409 1119 
L 2409 0 
L 1894 0 
L 1894 1119 
L 100 1119 
L 100 1519 
L 2066 4325 
L 2409 4325 
L 2409 1563 
L 2978 1563 
z
M 1894 1563 
L 1894 3666 
L 406 1563 
L 1894 1563 
z
" id="TimesNewRomanPSMT-34" transform="scale(0.015625)"/>
       </defs>
       <use xlink:href="#TimesNewRomanPSMT-30"/>
       <use x="50" xlink:href="#TimesNewRomanPSMT-2e"/>
       <use x="75" xlink:href="#TimesNewRomanPSMT-30"/>
       <use x="125" xlink:href="#TimesNewRomanPSMT-30"/>
       <use x="175" xlink:href="#TimesNewRomanPSMT-34"/>
      </g>
     </g>
    </g>
    <g id="xtick_6">
     <g id="line2d_11">
      <path clip-path="url(#pcf97f40a01)" d="M 398.136875 339.84 
L 398.136875 7.2 
" style="fill:none;stroke:#000000;stroke-dasharray:0.5,0.825;stroke-dashoffset:0;stroke-width:0.5;"/>
     </g>
     <g id="line2d_12">
      <g>
       <use style="stroke:#000000;stroke-width:0.8;" x="398.136875" xlink:href="#m8d7e45d110" y="339.84"/>
      </g>
     </g>
     <g id="text_6">
      <!-- 0.005 -->
      <g transform="translate(382.386875 356.56125)scale(0.14 -0.14)">
       <defs>
        <path d="M 2778 4238 
L 2534 3706 
L 1259 3706 
L 981 3138 
Q 1809 3016 2294 2522 
Q 2709 2097 2709 1522 
Q 2709 1188 2573 903 
Q 2438 619 2231 419 
Q 2025 219 1772 97 
Q 1413 -75 1034 -75 
Q 653 -75 479 54 
Q 306 184 306 341 
Q 306 428 378 495 
Q 450 563 559 563 
Q 641 563 702 538 
Q 763 513 909 409 
Q 1144 247 1384 247 
Q 1750 247 2026 523 
Q 2303 800 2303 1197 
Q 2303 1581 2056 1914 
Q 1809 2247 1375 2428 
Q 1034 2569 447 2591 
L 1259 4238 
L 2778 4238 
z
" id="TimesNewRomanPSMT-35" transform="scale(0.015625)"/>
       </defs>
       <use xlink:href="#TimesNewRomanPSMT-30"/>
       <use x="50" xlink:href="#TimesNewRomanPSMT-2e"/>
       <use x="75" xlink:href="#TimesNewRomanPSMT-30"/>
       <use x="125" xlink:href="#TimesNewRomanPSMT-30"/>
       <use x="175" xlink:href="#TimesNewRomanPSMT-35"/>
      </g>
     </g>
    </g>
    <g id="text_7">
     <!-- Time (sec) -->
     <g transform="translate(200.858906 373.277188)scale(0.14 -0.14)">
      <defs>
       <path d="M 3703 4238 
L 3750 3244 
L 3631 3244 
Q 3597 3506 3538 3619 
Q 3441 3800 3280 3886 
Q 3119 3972 2856 3972 
L 2259 3972 
L 2259 734 
Q 2259 344 2344 247 
Q 2463 116 2709 116 
L 2856 116 
L 2856 0 
L 1059 0 
L 1059 116 
L 1209 116 
Q 1478 116 1591 278 
Q 1659 378 1659 734 
L 1659 3972 
L 1150 3972 
Q 853 3972 728 3928 
Q 566 3869 450 3700 
Q 334 3531 313 3244 
L 194 3244 
L 244 4238 
L 3703 4238 
z
" id="TimesNewRomanPSMT-54" transform="scale(0.015625)"/>
       <path d="M 928 4444 
Q 1059 4444 1151 4351 
Q 1244 4259 1244 4128 
Q 1244 3997 1151 3903 
Q 1059 3809 928 3809 
Q 797 3809 703 3903 
Q 609 3997 609 4128 
Q 609 4259 701 4351 
Q 794 4444 928 4444 
z
M 1188 2947 
L 1188 647 
Q 1188 378 1227 289 
Q 1266 200 1342 156 
Q 1419 113 1622 113 
L 1622 0 
L 231 0 
L 231 113 
Q 441 113 512 153 
Q 584 194 626 287 
Q 669 381 669 647 
L 669 1750 
Q 669 2216 641 2353 
Q 619 2453 572 2492 
Q 525 2531 444 2531 
Q 356 2531 231 2484 
L 188 2597 
L 1050 2947 
L 1188 2947 
z
" id="TimesNewRomanPSMT-69" transform="scale(0.015625)"/>
       <path d="M 1050 2338 
Q 1363 2650 1419 2697 
Q 1559 2816 1721 2881 
Q 1884 2947 2044 2947 
Q 2313 2947 2506 2790 
Q 2700 2634 2766 2338 
Q 3088 2713 3309 2830 
Q 3531 2947 3766 2947 
Q 3994 2947 4170 2830 
Q 4347 2713 4450 2447 
Q 4519 2266 4519 1878 
L 4519 647 
Q 4519 378 4559 278 
Q 4591 209 4675 161 
Q 4759 113 4950 113 
L 4950 0 
L 3538 0 
L 3538 113 
L 3597 113 
Q 3781 113 3884 184 
Q 3956 234 3988 344 
Q 4000 397 4000 647 
L 4000 1878 
Q 4000 2228 3916 2372 
Q 3794 2572 3525 2572 
Q 3359 2572 3192 2489 
Q 3025 2406 2788 2181 
L 2781 2147 
L 2788 2013 
L 2788 647 
Q 2788 353 2820 281 
Q 2853 209 2943 161 
Q 3034 113 3253 113 
L 3253 0 
L 1806 0 
L 1806 113 
Q 2044 113 2133 169 
Q 2222 225 2256 338 
Q 2272 391 2272 647 
L 2272 1878 
Q 2272 2228 2169 2381 
Q 2031 2581 1784 2581 
Q 1616 2581 1450 2491 
Q 1191 2353 1050 2181 
L 1050 647 
Q 1050 366 1089 281 
Q 1128 197 1204 155 
Q 1281 113 1516 113 
L 1516 0 
L 100 0 
L 100 113 
Q 297 113 375 155 
Q 453 197 493 289 
Q 534 381 534 647 
L 534 1741 
Q 534 2213 506 2350 
Q 484 2453 437 2492 
Q 391 2531 309 2531 
Q 222 2531 100 2484 
L 53 2597 
L 916 2947 
L 1050 2947 
L 1050 2338 
z
" id="TimesNewRomanPSMT-6d" transform="scale(0.015625)"/>
       <path d="M 681 1784 
Q 678 1147 991 784 
Q 1303 422 1725 422 
Q 2006 422 2214 576 
Q 2422 731 2563 1106 
L 2659 1044 
Q 2594 616 2278 264 
Q 1963 -88 1488 -88 
Q 972 -88 605 314 
Q 238 716 238 1394 
Q 238 2128 614 2539 
Q 991 2950 1559 2950 
Q 2041 2950 2350 2633 
Q 2659 2316 2659 1784 
L 681 1784 
z
M 681 1966 
L 2006 1966 
Q 1991 2241 1941 2353 
Q 1863 2528 1708 2628 
Q 1553 2728 1384 2728 
Q 1125 2728 920 2526 
Q 716 2325 681 1966 
z
" id="TimesNewRomanPSMT-65" transform="scale(0.015625)"/>
       <path id="TimesNewRomanPSMT-20" transform="scale(0.015625)"/>
       <path d="M 1988 -1253 
L 1988 -1369 
Q 1516 -1131 1200 -813 
Q 750 -359 506 256 
Q 263 872 263 1534 
Q 263 2503 741 3301 
Q 1219 4100 1988 4444 
L 1988 4313 
Q 1603 4100 1356 3731 
Q 1109 3363 987 2797 
Q 866 2231 866 1616 
Q 866 947 969 400 
Q 1050 -31 1165 -292 
Q 1281 -553 1476 -793 
Q 1672 -1034 1988 -1253 
z
" id="TimesNewRomanPSMT-28" transform="scale(0.015625)"/>
       <path d="M 2050 2947 
L 2050 1972 
L 1947 1972 
Q 1828 2431 1642 2597 
Q 1456 2763 1169 2763 
Q 950 2763 815 2647 
Q 681 2531 681 2391 
Q 681 2216 781 2091 
Q 878 1963 1175 1819 
L 1631 1597 
Q 2266 1288 2266 781 
Q 2266 391 1970 151 
Q 1675 -88 1309 -88 
Q 1047 -88 709 6 
Q 606 38 541 38 
Q 469 38 428 -44 
L 325 -44 
L 325 978 
L 428 978 
Q 516 541 762 319 
Q 1009 97 1316 97 
Q 1531 97 1667 223 
Q 1803 350 1803 528 
Q 1803 744 1651 891 
Q 1500 1038 1047 1263 
Q 594 1488 453 1669 
Q 313 1847 313 2119 
Q 313 2472 555 2709 
Q 797 2947 1181 2947 
Q 1350 2947 1591 2875 
Q 1750 2828 1803 2828 
Q 1853 2828 1881 2850 
Q 1909 2872 1947 2947 
L 2050 2947 
z
" id="TimesNewRomanPSMT-73" transform="scale(0.015625)"/>
       <path d="M 2631 1088 
Q 2516 522 2178 217 
Q 1841 -88 1431 -88 
Q 944 -88 581 321 
Q 219 731 219 1428 
Q 219 2103 620 2525 
Q 1022 2947 1584 2947 
Q 2006 2947 2278 2723 
Q 2550 2500 2550 2259 
Q 2550 2141 2473 2067 
Q 2397 1994 2259 1994 
Q 2075 1994 1981 2113 
Q 1928 2178 1911 2362 
Q 1894 2547 1784 2644 
Q 1675 2738 1481 2738 
Q 1169 2738 978 2506 
Q 725 2200 725 1697 
Q 725 1184 976 792 
Q 1228 400 1656 400 
Q 1963 400 2206 609 
Q 2378 753 2541 1131 
L 2631 1088 
z
" id="TimesNewRomanPSMT-63" transform="scale(0.015625)"/>
       <path d="M 144 4313 
L 144 4444 
Q 619 4209 934 3891 
Q 1381 3434 1625 2820 
Q 1869 2206 1869 1541 
Q 1869 572 1392 -226 
Q 916 -1025 144 -1369 
L 144 -1253 
Q 528 -1038 776 -670 
Q 1025 -303 1145 264 
Q 1266 831 1266 1447 
Q 1266 2113 1163 2663 
Q 1084 3094 967 3353 
Q 850 3613 656 3853 
Q 463 4094 144 4313 
z
" id="TimesNewRomanPSMT-29" transform="scale(0.015625)"/>
      </defs>
      <use xlink:href="#TimesNewRomanPSMT-54"/>
      <use x="57.583984" xlink:href="#TimesNewRomanPSMT-69"/>
      <use x="85.367188" xlink:href="#TimesNewRomanPSMT-6d"/>
      <use x="163.150391" xlink:href="#TimesNewRomanPSMT-65"/>
      <use x="207.535156" xlink:href="#TimesNewRomanPSMT-20"/>
      <use x="232.535156" xlink:href="#TimesNewRomanPSMT-28"/>
      <use x="265.835938" xlink:href="#TimesNewRomanPSMT-73"/>
      <use x="304.751953" xlink:href="#TimesNewRomanPSMT-65"/>
      <use x="349.136719" xlink:href="#TimesNewRomanPSMT-63"/>
      <use x="393.521484" xlink:href="#TimesNewRomanPSMT-29"/>
     </g>
    </g>
   </g>
   <g id="matplotlib.axis_2">
    <g id="ytick_1">
     <g id="line2d_13">
      <path clip-path="url(#pcf97f40a01)" d="M 63.336875 336.479017 
L 398.136875 336.479017 
" style="fill:none;stroke:#000000;stroke-dasharray:0.5,0.825;stroke-dashoffset:0;stroke-width:0.5;"/>
     </g>
     <g id="line2d_14">
      <defs>
       <path d="M 0 0 
L -3.5 0 
" id="md6a4ef72f4" style="stroke:#000000;stroke-width:0.8;"/>
      </defs>
      <g>
       <use style="stroke:#000000;stroke-width:0.8;" x="63.336875" xlink:href="#md6a4ef72f4" y="336.479017"/>
      </g>
     </g>
     <g id="text_8">
      <!-- −0.06 -->
      <g transform="translate(23.942188 341.339642)scale(0.14 -0.14)">
       <defs>
        <path d="M 3484 2000 
L 116 2000 
L 116 2256 
L 3484 2256 
L 3484 2000 
z
" id="TimesNewRomanPSMT-2212" transform="scale(0.015625)"/>
        <path d="M 2869 4325 
L 2869 4209 
Q 2456 4169 2195 4045 
Q 1934 3922 1679 3669 
Q 1425 3416 1258 3105 
Q 1091 2794 978 2366 
Q 1428 2675 1881 2675 
Q 2316 2675 2634 2325 
Q 2953 1975 2953 1425 
Q 2953 894 2631 456 
Q 2244 -75 1606 -75 
Q 1172 -75 869 213 
Q 275 772 275 1663 
Q 275 2231 503 2743 
Q 731 3256 1154 3653 
Q 1578 4050 1965 4187 
Q 2353 4325 2688 4325 
L 2869 4325 
z
M 925 2138 
Q 869 1716 869 1456 
Q 869 1156 980 804 
Q 1091 453 1309 247 
Q 1469 100 1697 100 
Q 1969 100 2183 356 
Q 2397 613 2397 1088 
Q 2397 1622 2184 2012 
Q 1972 2403 1581 2403 
Q 1463 2403 1327 2353 
Q 1191 2303 925 2138 
z
" id="TimesNewRomanPSMT-36" transform="scale(0.015625)"/>
       </defs>
       <use xlink:href="#TimesNewRomanPSMT-2212"/>
       <use x="56.396484" xlink:href="#TimesNewRomanPSMT-30"/>
       <use x="106.396484" xlink:href="#TimesNewRomanPSMT-2e"/>
       <use x="131.396484" xlink:href="#TimesNewRomanPSMT-30"/>
       <use x="181.396484" xlink:href="#TimesNewRomanPSMT-36"/>
      </g>
     </g>
    </g>
    <g id="ytick_2">
     <g id="line2d_15">
      <path clip-path="url(#pcf97f40a01)" d="M 63.336875 274.929596 
L 398.136875 274.929596 
" style="fill:none;stroke:#000000;stroke-dasharray:0.5,0.825;stroke-dashoffset:0;stroke-width:0.5;"/>
     </g>
     <g id="line2d_16">
      <g>
       <use style="stroke:#000000;stroke-width:0.8;" x="63.336875" xlink:href="#md6a4ef72f4" y="274.929596"/>
      </g>
     </g>
     <g id="text_9">
      <!-- −0.04 -->
      <g transform="translate(23.942188 279.790221)scale(0.14 -0.14)">
       <use xlink:href="#TimesNewRomanPSMT-2212"/>
       <use x="56.396484" xlink:href="#TimesNewRomanPSMT-30"/>
       <use x="106.396484" xlink:href="#TimesNewRomanPSMT-2e"/>
       <use x="131.396484" xlink:href="#TimesNewRomanPSMT-30"/>
       <use x="181.396484" xlink:href="#TimesNewRomanPSMT-34"/>
      </g>
     </g>
    </g>
    <g id="ytick_3">
     <g id="line2d_17">
      <path clip-path="url(#pcf97f40a01)" d="M 63.336875 213.380175 
L 398.136875 213.380175 
" style="fill:none;stroke:#000000;stroke-dasharray:0.5,0.825;stroke-dashoffset:0;stroke-width:0.5;"/>
     </g>
     <g id="line2d_18">
      <g>
       <use style="stroke:#000000;stroke-width:0.8;" x="63.336875" xlink:href="#md6a4ef72f4" y="213.380175"/>
      </g>
     </g>
     <g id="text_10">
      <!-- −0.02 -->
      <g transform="translate(23.942188 218.2408)scale(0.14 -0.14)">
       <use xlink:href="#TimesNewRomanPSMT-2212"/>
       <use x="56.396484" xlink:href="#TimesNewRomanPSMT-30"/>
       <use x="106.396484" xlink:href="#TimesNewRomanPSMT-2e"/>
       <use x="131.396484" xlink:href="#TimesNewRomanPSMT-30"/>
       <use x="181.396484" xlink:href="#TimesNewRomanPSMT-32"/>
      </g>
     </g>
    </g>
    <g id="ytick_4">
     <g id="line2d_19">
      <path clip-path="url(#pcf97f40a01)" d="M 63.336875 151.830753 
L 398.136875 151.830753 
" style="fill:none;stroke:#000000;stroke-dasharray:0.5,0.825;stroke-dashoffset:0;stroke-width:0.5;"/>
     </g>
     <g id="line2d_20">
      <g>
       <use style="stroke:#000000;stroke-width:0.8;" x="63.336875" xlink:href="#md6a4ef72f4" y="151.830753"/>
      </g>
     </g>
     <g id="text_11">
      <!-- 0.00 -->
      <g transform="translate(31.836875 156.691378)scale(0.14 -0.14)">
       <use xlink:href="#TimesNewRomanPSMT-30"/>
       <use x="50" xlink:href="#TimesNewRomanPSMT-2e"/>
       <use x="75" xlink:href="#TimesNewRomanPSMT-30"/>
       <use x="125" xlink:href="#TimesNewRomanPSMT-30"/>
      </g>
     </g>
    </g>
    <g id="ytick_5">
     <g id="line2d_21">
      <path clip-path="url(#pcf97f40a01)" d="M 63.336875 90.281332 
L 398.136875 90.281332 
" style="fill:none;stroke:#000000;stroke-dasharray:0.5,0.825;stroke-dashoffset:0;stroke-width:0.5;"/>
     </g>
     <g id="line2d_22">
      <g>
       <use style="stroke:#000000;stroke-width:0.8;" x="63.336875" xlink:href="#md6a4ef72f4" y="90.281332"/>
      </g>
     </g>
     <g id="text_12">
      <!-- 0.02 -->
      <g transform="translate(31.836875 95.141957)scale(0.14 -0.14)">
       <use xlink:href="#TimesNewRomanPSMT-30"/>
       <use x="50" xlink:href="#TimesNewRomanPSMT-2e"/>
       <use x="75" xlink:href="#TimesNewRomanPSMT-30"/>
       <use x="125" xlink:href="#TimesNewRomanPSMT-32"/>
      </g>
     </g>
    </g>
    <g id="ytick_6">
     <g id="line2d_23">
      <path clip-path="url(#pcf97f40a01)" d="M 63.336875 28.731911 
L 398.136875 28.731911 
" style="fill:none;stroke:#000000;stroke-dasharray:0.5,0.825;stroke-dashoffset:0;stroke-width:0.5;"/>
     </g>
     <g id="line2d_24">
      <g>
       <use style="stroke:#000000;stroke-width:0.8;" x="63.336875" xlink:href="#md6a4ef72f4" y="28.731911"/>
      </g>
     </g>
     <g id="text_13">
      <!-- 0.04 -->
      <g transform="translate(31.836875 33.592536)scale(0.14 -0.14)">
       <use xlink:href="#TimesNewRomanPSMT-30"/>
       <use x="50" xlink:href="#TimesNewRomanPSMT-2e"/>
       <use x="75" xlink:href="#TimesNewRomanPSMT-30"/>
       <use x="125" xlink:href="#TimesNewRomanPSMT-34"/>
      </g>
     </g>
    </g>
    <g id="text_14">
     <!-- Volatage (V) -->
     <g transform="translate(16.92125 209.352344)rotate(-90)scale(0.14 -0.14)">
      <defs>
       <path d="M 4544 4238 
L 4544 4122 
Q 4319 4081 4203 3978 
Q 4038 3825 3909 3509 
L 2431 -97 
L 2316 -97 
L 728 3556 
Q 606 3838 556 3900 
Q 478 3997 364 4051 
Q 250 4106 56 4122 
L 56 4238 
L 1788 4238 
L 1788 4122 
Q 1494 4094 1406 4022 
Q 1319 3950 1319 3838 
Q 1319 3681 1463 3350 
L 2541 866 
L 3541 3319 
Q 3688 3681 3688 3822 
Q 3688 3913 3597 3995 
Q 3506 4078 3291 4113 
Q 3275 4116 3238 4122 
L 3238 4238 
L 4544 4238 
z
" id="TimesNewRomanPSMT-56" transform="scale(0.015625)"/>
       <path d="M 1600 2947 
Q 2250 2947 2644 2453 
Q 2978 2031 2978 1484 
Q 2978 1100 2793 706 
Q 2609 313 2286 112 
Q 1963 -88 1566 -88 
Q 919 -88 538 428 
Q 216 863 216 1403 
Q 216 1797 411 2186 
Q 606 2575 925 2761 
Q 1244 2947 1600 2947 
z
M 1503 2744 
Q 1338 2744 1170 2645 
Q 1003 2547 900 2300 
Q 797 2053 797 1666 
Q 797 1041 1045 587 
Q 1294 134 1700 134 
Q 2003 134 2200 384 
Q 2397 634 2397 1244 
Q 2397 2006 2069 2444 
Q 1847 2744 1503 2744 
z
" id="TimesNewRomanPSMT-6f" transform="scale(0.015625)"/>
       <path d="M 1184 4444 
L 1184 647 
Q 1184 378 1223 290 
Q 1263 203 1344 158 
Q 1425 113 1647 113 
L 1647 0 
L 244 0 
L 244 113 
Q 441 113 512 153 
Q 584 194 625 287 
Q 666 381 666 647 
L 666 3247 
Q 666 3731 644 3842 
Q 622 3953 573 3993 
Q 525 4034 450 4034 
Q 369 4034 244 3984 
L 191 4094 
L 1044 4444 
L 1184 4444 
z
" id="TimesNewRomanPSMT-6c" transform="scale(0.015625)"/>
       <path d="M 1822 413 
Q 1381 72 1269 19 
Q 1100 -59 909 -59 
Q 613 -59 420 144 
Q 228 347 228 678 
Q 228 888 322 1041 
Q 450 1253 767 1440 
Q 1084 1628 1822 1897 
L 1822 2009 
Q 1822 2438 1686 2597 
Q 1550 2756 1291 2756 
Q 1094 2756 978 2650 
Q 859 2544 859 2406 
L 866 2225 
Q 866 2081 792 2003 
Q 719 1925 600 1925 
Q 484 1925 411 2006 
Q 338 2088 338 2228 
Q 338 2497 613 2722 
Q 888 2947 1384 2947 
Q 1766 2947 2009 2819 
Q 2194 2722 2281 2516 
Q 2338 2381 2338 1966 
L 2338 994 
Q 2338 584 2353 492 
Q 2369 400 2405 369 
Q 2441 338 2488 338 
Q 2538 338 2575 359 
Q 2641 400 2828 588 
L 2828 413 
Q 2478 -56 2159 -56 
Q 2006 -56 1915 50 
Q 1825 156 1822 413 
z
M 1822 616 
L 1822 1706 
Q 1350 1519 1213 1441 
Q 966 1303 859 1153 
Q 753 1003 753 825 
Q 753 600 887 451 
Q 1022 303 1197 303 
Q 1434 303 1822 616 
z
" id="TimesNewRomanPSMT-61" transform="scale(0.015625)"/>
       <path d="M 1031 3803 
L 1031 2863 
L 1700 2863 
L 1700 2644 
L 1031 2644 
L 1031 788 
Q 1031 509 1111 412 
Q 1191 316 1316 316 
Q 1419 316 1516 380 
Q 1613 444 1666 569 
L 1788 569 
Q 1678 263 1478 108 
Q 1278 -47 1066 -47 
Q 922 -47 784 33 
Q 647 113 581 261 
Q 516 409 516 719 
L 516 2644 
L 63 2644 
L 63 2747 
Q 234 2816 414 2980 
Q 594 3144 734 3369 
Q 806 3488 934 3803 
L 1031 3803 
z
" id="TimesNewRomanPSMT-74" transform="scale(0.015625)"/>
       <path d="M 966 1044 
Q 703 1172 562 1401 
Q 422 1631 422 1909 
Q 422 2334 742 2640 
Q 1063 2947 1563 2947 
Q 1972 2947 2272 2747 
L 2878 2747 
Q 3013 2747 3034 2739 
Q 3056 2731 3066 2713 
Q 3084 2684 3084 2613 
Q 3084 2531 3069 2500 
Q 3059 2484 3036 2475 
Q 3013 2466 2878 2466 
L 2506 2466 
Q 2681 2241 2681 1891 
Q 2681 1491 2375 1206 
Q 2069 922 1553 922 
Q 1341 922 1119 984 
Q 981 866 932 777 
Q 884 688 884 625 
Q 884 572 936 522 
Q 988 472 1138 450 
Q 1225 438 1575 428 
Q 2219 413 2409 384 
Q 2700 344 2873 169 
Q 3047 -6 3047 -263 
Q 3047 -616 2716 -925 
Q 2228 -1381 1444 -1381 
Q 841 -1381 425 -1109 
Q 191 -953 191 -784 
Q 191 -709 225 -634 
Q 278 -519 444 -313 
Q 466 -284 763 25 
Q 600 122 533 198 
Q 466 275 466 372 
Q 466 481 555 628 
Q 644 775 966 1044 
z
M 1509 2797 
Q 1278 2797 1122 2612 
Q 966 2428 966 2047 
Q 966 1553 1178 1281 
Q 1341 1075 1591 1075 
Q 1828 1075 1981 1253 
Q 2134 1431 2134 1813 
Q 2134 2309 1919 2591 
Q 1759 2797 1509 2797 
z
M 934 0 
Q 788 -159 713 -296 
Q 638 -434 638 -550 
Q 638 -700 819 -813 
Q 1131 -1006 1722 -1006 
Q 2284 -1006 2551 -807 
Q 2819 -609 2819 -384 
Q 2819 -222 2659 -153 
Q 2497 -84 2016 -72 
Q 1313 -53 934 0 
z
" id="TimesNewRomanPSMT-67" transform="scale(0.015625)"/>
      </defs>
      <use xlink:href="#TimesNewRomanPSMT-56"/>
      <use x="59.341797" xlink:href="#TimesNewRomanPSMT-6f"/>
      <use x="109.341797" xlink:href="#TimesNewRomanPSMT-6c"/>
      <use x="137.125" xlink:href="#TimesNewRomanPSMT-61"/>
      <use x="181.509766" xlink:href="#TimesNewRomanPSMT-74"/>
      <use x="209.292969" xlink:href="#TimesNewRomanPSMT-61"/>
      <use x="253.677734" xlink:href="#TimesNewRomanPSMT-67"/>
      <use x="303.677734" xlink:href="#TimesNewRomanPSMT-65"/>
      <use x="348.0625" xlink:href="#TimesNewRomanPSMT-20"/>
      <use x="373.0625" xlink:href="#TimesNewRomanPSMT-28"/>
      <use x="406.363281" xlink:href="#TimesNewRomanPSMT-56"/>
      <use x="478.580078" xlink:href="#TimesNewRomanPSMT-29"/>
     </g>
    </g>
   </g>
   <g id="LineCollection_1">
    <path clip-path="url(#pcf97f40a01)" d="M 78.555057 151.830753 
L 382.918693 151.830753 
" style="fill:none;stroke:#1f77b4;stroke-width:1.5;"/>
   </g>
   <g id="line2d_25">
    <path clip-path="url(#pcf97f40a01)" d="M 78.555057 151.881532 
L 78.676802 151.881532 
L 80.350802 151.843063 
L 80.381239 151.766127 
L 80.472548 151.804595 
L 80.563857 151.804595 
L 80.594293 151.766127 
L 80.655166 151.843063 
L 82.085675 151.804595 
L 82.116111 151.727658 
L 82.176984 151.766127 
L 82.29873 151.843063 
L 82.450911 151.804595 
L 84.398839 151.843063 
L 84.429275 151.92 
L 84.459711 151.804595 
L 84.520584 151.881532 
L 88.355566 151.843063 
L 88.386002 151.766127 
L 88.477311 151.804595 
L 88.629493 151.843063 
L 100.986657 151.804595 
L 101.017093 151.727658 
L 101.04753 151.843063 
L 101.077966 151.804595 
L 111.213275 151.881532 
L 111.274148 151.92 
L 111.304584 151.881532 
L 111.42633 151.881532 
L 112.00462 151.958468 
L 112.126366 151.996937 
L 112.156802 151.92 
L 112.217675 151.958468 
L 112.308984 152.035405 
L 112.33942 151.958468 
L 112.582911 151.996937 
L 112.613348 152.112342 
L 112.704657 152.035405 
L 112.826402 152.112342 
L 112.856839 152.073874 
L 113.313384 152.15081 
L 113.496002 152.227747 
L 114.074293 152.304684 
L 114.226475 152.420089 
L 114.256911 152.381621 
L 114.561275 152.458557 
L 114.743893 152.535494 
L 115.10913 152.612431 
L 115.291748 152.689368 
L 115.535239 152.727836 
L 115.565675 152.804773 
L 115.656984 152.766305 
L 115.748293 152.766305 
L 115.930911 152.843241 
L 116.265711 152.920178 
L 116.44833 152.997115 
L 116.570075 152.997115 
L 117.087493 153.035583 
L 117.178802 153.11252 
L 117.209239 153.074052 
L 117.391857 153.150988 
L 118.213639 153.227925 
L 118.304948 153.266394 
L 118.335384 153.227925 
L 118.731057 153.304862 
L 118.883239 153.34333 
L 119.522402 153.420267 
L 119.644148 153.497204 
L 119.918075 153.574141 
L 120.009384 153.612609 
L 120.03982 153.574141 
L 120.222439 153.651077 
L 120.344184 153.728014 
L 120.37462 153.689546 
L 120.496366 153.728014 
L 120.648548 153.843419 
L 120.80073 153.920356 
L 121.074657 154.112698 
L 121.226839 154.189635 
L 121.71382 154.689724 
L 121.744257 154.651256 
L 121.774693 154.728192 
L 122.779093 156.151523 
L 123.296511 157.190169 
L 123.509566 157.613321 
L 125.06182 161.806376 
L 127.435857 171.192663 
L 127.861966 173.193019 
L 128.40982 175.693463 
L 129.596839 181.155975 
L 130.41862 184.695067 
L 130.84473 186.349207 
L 131.149093 187.387854 
L 131.483893 188.618842 
L 131.575202 188.888121 
L 131.84913 189.734426 
L 131.970875 190.003704 
L 132.275239 190.734604 
L 133.249202 191.811719 
L 133.584002 191.734782 
L 133.76662 191.657845 
L 133.827493 191.657845 
L 133.85793 191.503972 
L 133.949239 191.54244 
L 134.223166 191.350098 
L 134.344911 191.273161 
L 134.52753 191.042351 
L 134.649275 190.965414 
L 134.831893 190.696135 
L 135.227566 189.926768 
L 135.288439 189.849831 
L 135.592802 189.118931 
L 136.049348 187.695601 
L 136.658075 185.002814 
L 138.849493 170.461763 
L 139.336475 166.153303 
L 141.193093 146.303615 
L 144.023675 109.143152 
L 145.758548 84.484912 
L 149.076111 43.939234 
L 150.780548 29.82133 
L 151.784948 25.243601 
L 152.058875 24.281891 
L 152.424111 23.320184 
L 152.789348 22.666215 
L 152.819784 22.704678 
L 152.85022 22.627753 
L 153.18502 22.358462 
L 153.550257 22.435402 
L 154.006802 23.166308 
L 154.52422 24.743508 
L 155.132948 27.474758 
L 155.589493 30.321422 
L 156.715639 39.630769 
L 158.389639 59.865147 
L 160.733239 100.06461 
L 165.511748 205.083309 
L 166.759639 232.395871 
L 167.946657 256.900235 
L 169.042366 276.826854 
L 169.894584 289.944574 
L 170.807675 302.215996 
L 171.994693 314.487409 
L 172.999093 321.257845 
L 173.69913 323.489015 
L 174.186111 324.489187 
L 174.27742 324.566123 
L 174.460039 324.681538 
L 174.490475 324.643063 
L 174.551348 324.72 
L 174.70353 324.643063 
L 175.220948 324.142971 
L 175.251384 324.142971 
L 175.403566 323.83523 
L 175.586184 323.489015 
L 176.773202 318.565058 
L 177.473239 314.525883 
L 177.838475 311.60228 
L 178.264584 308.217061 
L 178.690693 304.139412 
L 179.177675 298.907715 
L 182.160439 259.8623 
L 183.225711 242.051434 
L 184.564911 218.239498 
L 188.156402 156.651612 
L 191.473966 107.912164 
L 192.174002 98.718216 
L 193.11753 88.177884 
L 194.334984 76.945114 
L 196.03942 63.173425 
L 196.769893 57.63398 
L 197.165566 55.09507 
L 197.561239 52.47921 
L 198.352584 49.017065 
L 200.087457 42.785186 
L 200.117893 42.785186 
L 200.361384 41.938878 
L 200.848366 40.977168 
L 201.06142 40.554016 
L 201.609275 39.43843 
L 201.944075 39.169151 
L 202.613675 39.092214 
L 202.82673 38.976812 
L 203.191966 39.053752 
L 203.678948 39.51537 
L 204.013748 39.592306 
L 204.318111 39.82312 
L 204.378984 39.90006 
L 204.713784 40.438614 
L 204.987711 41.09257 
L 205.048584 41.169507 
L 205.474693 41.97734 
L 205.657311 42.36203 
L 206.113857 43.669955 
L 207.270439 46.862835 
L 208.122657 49.671024 
L 208.213966 49.901837 
L 209.005311 53.363992 
L 210.009711 57.595512 
L 210.405384 59.403529 
L 212.322875 67.097204 
L 214.362111 77.945289 
L 214.970839 81.753663 
L 215.244766 83.677079 
L 216.036111 89.716616 
L 218.714511 110.87423 
L 220.936366 131.493286 
L 223.188657 155.343687 
L 224.527857 170.884915 
L 225.958366 188.388032 
L 228.028039 215.700588 
L 228.484584 221.432378 
L 229.245493 231.395693 
L 232.015202 261.670315 
L 232.95873 270.171832 
L 233.384839 273.518575 
L 233.87182 276.865328 
L 234.784911 281.981624 
L 235.819748 285.520709 
L 235.850184 285.520709 
L 236.002366 285.828459 
L 236.032802 285.789985 
L 236.276293 285.943862 
L 236.30673 285.905399 
L 236.367602 285.982336 
L 236.915457 285.905399 
L 237.189384 285.482244 
L 237.31113 285.212968 
L 238.772075 279.250362 
L 239.411239 275.480466 
L 240.172148 269.97948 
L 242.57662 244.59035 
L 245.68113 203.967732 
L 247.811675 170.769511 
L 250.794439 127.184827 
L 251.555348 118.067818 
L 251.981457 113.336207 
L 253.472839 99.333716 
L 254.598984 91.601564 
L 256.455602 82.753841 
L 256.516475 82.561496 
L 256.820839 81.830594 
L 257.30782 80.868887 
L 257.338257 80.868887 
L 257.551311 80.4842 
L 257.73393 80.291861 
L 257.794802 80.253393 
L 257.97742 80.061054 
L 258.007857 80.099516 
L 258.038293 80.061054 
L 258.099166 79.984114 
L 258.160039 80.022585 
L 258.464402 79.753301 
L 258.494839 79.791769 
L 258.555711 79.714838 
L 258.73833 79.522493 
L 259.012257 79.253215 
L 259.042693 79.291683 
L 259.164439 79.253215 
L 259.194875 79.176278 
L 259.286184 79.214746 
L 259.40793 79.176278 
L 259.499239 79.176278 
L 259.712293 79.06087 
L 259.894911 78.983939 
L 260.107966 78.868531 
L 260.199275 78.906999 
L 260.229711 78.868531 
L 260.564511 78.945467 
L 260.686257 79.022407 
L 260.716693 78.983939 
L 260.868875 79.06087 
L 261.08193 79.176278 
L 261.264548 79.253215 
L 261.781966 79.753301 
L 261.842839 79.791769 
L 262.025457 80.061054 
L 262.451566 80.676548 
L 262.634184 81.061232 
L 263.09073 82.022942 
L 263.121166 81.98447 
L 263.151602 82.06141 
L 263.455966 82.792303 
L 263.638584 83.138519 
L 263.851639 83.754019 
L 263.882075 83.754019 
L 264.09513 84.292573 
L 264.916911 86.639145 
L 265.43433 88.216346 
L 265.525639 88.485631 
L 267.290948 95.602283 
L 270.12153 110.451077 
L 274.626111 138.225254 
L 276.087057 145.072627 
L 276.269675 145.803526 
L 279.008948 155.766839 
L 280.50033 159.267462 
L 280.83513 159.844488 
L 281.382984 160.960071 
L 282.965675 162.806554 
L 283.117857 162.883491 
L 283.239602 162.883491 
L 283.483093 162.921959 
L 283.604839 162.998896 
L 284.365748 162.960428 
L 284.51793 162.845022 
L 284.730984 162.729617 
L 284.883166 162.65268 
L 285.309275 162.267996 
L 285.400584 162.19106 
L 286.039748 161.267819 
L 286.283239 160.76773 
L 286.313675 160.76773 
L 286.557166 160.229172 
L 286.618039 160.190703 
L 287.409384 158.421158 
L 287.43982 158.421158 
L 287.652875 157.8826 
L 287.86593 157.459448 
L 288.383348 156.382333 
L 288.44422 156.305396 
L 288.626839 155.920712 
L 288.992075 155.26675 
L 289.661675 154.574319 
L 289.692111 154.612787 
L 289.722548 154.497382 
L 289.813857 154.420445 
L 289.996475 154.228103 
L 290.179093 154.151167 
L 290.270402 154.07423 
L 290.300839 154.112698 
L 290.392148 154.07423 
L 290.422584 154.112698 
L 290.696511 154.151167 
L 290.818257 154.266572 
L 291.031311 154.343508 
L 291.21393 154.458914 
L 291.244366 154.420445 
L 291.305239 154.497382 
L 291.731348 155.189813 
L 293.253166 159.228994 
L 293.46622 159.921425 
L 294.988039 166.076367 
L 295.292402 167.538166 
L 295.90113 170.692574 
L 299.24913 187.118575 
L 299.401311 187.695601 
L 299.82742 189.695957 
L 302.323202 198.736028 
L 302.627566 199.736207 
L 302.871057 200.505574 
L 302.962366 200.774853 
L 304.453748 204.275479 
L 304.545057 204.35241 
L 305.61033 205.544933 
L 305.792948 205.621873 
L 305.914693 205.660341 
L 306.158184 205.506465 
L 306.249493 205.544933 
L 306.401675 205.391057 
L 306.492984 205.391057 
L 306.675602 205.314126 
L 306.797348 205.237186 
L 307.314766 204.467818 
L 307.588693 203.852324 
L 307.801748 203.46764 
L 308.014802 203.082956 
L 308.86702 200.659448 
L 310.510584 194.004417 
L 311.271493 189.61902 
L 312.336766 182.194622 
L 315.289093 158.998183 
L 315.928257 153.651077 
L 316.476111 149.53496 
L 317.176148 144.26479 
L 317.57182 141.725877 
L 321.25462 119.144933 
L 321.406802 118.490971 
L 323.080802 110.566483 
L 323.415602 108.912342 
L 323.780839 106.950454 
L 324.35913 104.334604 
L 325.27222 100.256955 
L 325.576584 99.218308 
L 326.307057 96.871736 
L 327.463639 94.178949 
L 327.554948 94.102012 
L 327.889748 93.486518 
L 327.95062 93.44805 
L 328.254984 92.909496 
L 328.28542 92.947958 
L 328.315857 92.871027 
L 328.589784 92.447872 
L 328.985457 92.101656 
L 329.776802 92.178593 
L 331.329057 94.294351 
L 331.63342 94.794443 
L 331.816039 95.179127 
L 332.30302 96.140837 
L 332.485639 96.525521 
L 332.759566 97.141015 
L 332.97262 97.564167 
L 333.611784 99.449118 
L 336.685857 111.528192 
L 342.499202 141.456599 
L 343.047057 144.226322 
L 344.69062 151.996937 
L 345.725457 156.343865 
L 346.090693 157.959537 
L 347.338584 163.768264 
L 347.521202 164.499163 
L 348.160366 167.230418 
L 348.403857 168.115191 
L 348.769093 169.423117 
L 349.71262 172.577524 
L 350.351784 174.462476 
L 350.869202 176.001211 
L 351.934475 178.424719 
L 352.269275 179.001746 
L 352.512766 179.347962 
L 353.73022 180.732822 
L 353.851966 180.80976 
L 354.004148 180.963633 
L 354.095457 181.040571 
L 354.552002 181.463722 
L 354.673748 181.54066 
L 354.82593 181.733002 
L 355.252039 182.117684 
L 355.312911 182.194622 
L 356.74342 183.848762 
L 356.773857 183.848762 
L 356.956475 184.11804 
L 358.478293 185.926055 
L 358.569602 185.926055 
L 359.117457 186.503081 
L 359.239202 186.503081 
L 359.51313 186.695423 
L 359.634875 186.77236 
L 359.969675 187.041638 
L 360.09142 187.118575 
L 360.304475 187.23398 
L 361.156693 187.272449 
L 361.217566 187.349386 
L 361.248002 187.272449 
L 361.613239 187.195512 
L 361.76542 187.00317 
L 361.795857 187.041638 
L 361.85673 186.964702 
L 361.948039 186.887765 
L 362.282839 186.580018 
L 362.313275 186.618486 
L 362.374148 186.541549 
L 362.52633 186.503081 
L 362.678511 186.272271 
L 362.708948 186.349207 
L 362.739384 186.233802 
L 364.322075 184.079573 
L 364.565566 183.733358 
L 366.361311 181.617595 
L 366.422184 181.579126 
L 366.604802 181.348318 
L 366.696111 181.309849 
L 366.87873 181.117506 
L 366.909166 181.155975 
L 366.970039 181.079037 
L 367.609202 180.386609 
L 367.639639 180.425075 
L 367.700511 180.34814 
L 367.79182 180.271202 
L 368.004875 180.078859 
L 368.035311 180.117328 
L 368.157057 180.040393 
L 368.46142 179.809582 
L 368.583166 179.732644 
L 368.735348 179.540304 
L 368.765784 179.57877 
L 368.79622 179.501835 
L 369.161457 179.194088 
L 369.374511 179.11715 
L 369.587566 178.963277 
L 369.618002 179.001746 
L 369.648439 178.963277 
L 369.80062 178.809404 
L 370.22673 178.38625 
L 370.318039 178.38625 
L 370.500657 178.155442 
L 370.531093 178.232377 
L 370.591966 178.155442 
L 370.774584 177.92463 
L 370.89633 177.847695 
L 371.657239 177.039858 
L 371.718111 177.001389 
L 371.90073 176.809047 
L 371.992039 176.770579 
L 372.174657 176.539768 
L 372.23553 176.5013 
L 372.387711 176.347427 
L 372.448584 176.308958 
L 372.631202 176.078148 
L 372.752948 176.001211 
L 372.935566 175.808869 
L 373.331239 175.424186 
L 373.361675 175.462653 
L 373.392111 175.385717 
L 374.548693 173.770044 
L 374.853057 173.231488 
L 374.883493 173.231488 
L 375.126984 172.731397 
L 376.16182 170.346359 
L 376.192257 170.346359 
L 376.648802 169.038433 
L 377.59233 166.384113 
L 378.109748 164.845378 
L 378.748911 162.960428 
L 379.875057 159.113589 
L 380.057675 158.459626 
L 380.362039 157.190169 
L 381.579493 152.227747 
L 381.85342 150.996759 
L 382.218657 149.381086 
L 382.918693 146.149742 
L 382.918693 146.149742 
" style="fill:none;stroke:#0000ff;stroke-linecap:square;stroke-width:1.5;"/>
   </g>
   <g id="line2d_26">
    <path clip-path="url(#pcf97f40a01)" d="M 78.555057 151.78413 
L 83.242257 151.880301 
L 83.424875 151.880301 
L 95.26462 151.957237 
L 95.416802 151.995706 
L 99.890948 152.072643 
L 100.073566 152.130345 
L 100.37793 152.226516 
L 100.469239 152.226516 
L 100.62142 152.303453 
L 101.96062 153.245928 
L 102.38673 153.822954 
L 102.904148 154.650025 
L 103.695493 156.381102 
L 104.547711 158.823845 
L 105.39993 161.862847 
L 109.99582 181.712535 
L 111.487202 186.078698 
L 112.643784 188.040586 
L 112.978584 188.309864 
L 113.830802 188.213693 
L 114.34822 187.771307 
L 115.139566 186.040229 
L 115.900475 183.828298 
L 117.209239 177.55795 
L 119.12673 164.805679 
L 120.009384 157.97754 
L 122.261675 138.570238 
L 125.427057 111.526961 
L 126.218402 106.352963 
L 127.983711 96.947442 
L 129.809893 90.427053 
L 130.388184 89.523043 
L 130.631675 89.099891 
L 130.966475 88.676736 
L 131.940439 87.965074 
L 132.42742 87.272643 
L 132.792657 87.157234 
L 133.614439 87.061066 
L 133.827493 87.041835 
L 134.070984 87.118766 
L 134.314475 87.349579 
L 134.710148 87.695795 
L 134.86233 87.715029 
L 135.014511 87.695795 
L 135.227566 87.657326 
L 135.958039 88.234352 
L 136.384148 88.599805 
L 137.175493 89.215296 
L 137.54073 89.850022 
L 137.936402 90.56169 
L 138.058148 90.754032 
L 138.271202 91.177184 
L 139.519093 96.331948 
L 141.740948 108.122509 
L 142.56273 113.411912 
L 143.536693 120.932482 
L 147.797784 156.823489 
L 148.802184 165.863559 
L 151.024039 185.886356 
L 153.732875 205.582171 
L 154.463348 209.102028 
L 155.163384 212.083328 
L 155.61993 213.391253 
L 156.776511 215.372379 
L 157.20262 215.526249 
L 157.324366 215.564717 
L 158.024402 215.468546 
L 158.998366 213.852877 
L 159.424475 213.160443 
L 161.037602 208.851981 
L 161.524584 206.947801 
L 162.681166 202.177718 
L 165.481311 185.636311 
L 167.124875 174.980568 
L 168.037966 169.883506 
L 169.742402 163.843969 
L 170.442439 162.362936 
L 170.868548 161.978253 
L 171.93382 162.074424 
L 172.177311 162.343703 
L 172.481675 162.901494 
L 173.333893 164.747977 
L 173.851311 166.344415 
L 175.403566 172.595527 
L 175.95142 175.63453 
L 176.71233 180.000692 
L 177.534111 185.405501 
L 178.264584 190.694904 
L 179.573348 199.773444 
L 180.273384 203.908799 
L 181.795202 211.063913 
L 183.377893 216.699532 
L 184.32142 217.718947 
L 184.564911 217.77665 
L 185.051893 217.372732 
L 185.630184 216.064809 
L 186.208475 213.872108 
L 187.486802 206.024554 
L 189.069493 192.137469 
L 190.226075 179.327495 
L 192.234875 151.207104 
L 194.36542 121.855724 
L 196.435093 95.831859 
L 197.530802 84.002833 
L 198.748257 72.09686 
L 201.213602 51.208535 
L 201.944075 47.28475 
L 202.704984 43.976469 
L 203.131093 42.745483 
L 203.526766 41.783773 
L 204.044184 40.514314 
L 204.40942 40.014234 
L 205.018148 40.110396 
L 205.261639 40.360449 
L 205.687748 41.379858 
L 207.51393 49.939072 
L 208.153093 53.32429 
L 208.579202 55.709327 
L 208.944439 58.094373 
L 211.957639 79.790544 
L 214.514293 99.909508 
L 215.336075 106.372197 
L 218.80582 133.973265 
L 221.57553 152.476561 
L 222.032075 155.342456 
L 223.097348 161.401227 
L 224.25393 167.786979 
L 225.410511 174.403542 
L 227.297566 183.38591 
L 228.636766 188.809953 
L 229.884657 193.118413 
L 233.597893 202.793212 
L 234.328366 205.139784 
L 234.54142 205.774516 
L 235.058839 207.370948 
L 236.032802 210.102203 
L 237.098075 212.333376 
L 237.372002 212.87193 
L 238.924257 214.660707 
L 240.32433 214.756884 
L 240.628693 214.833815 
L 240.811311 214.833815 
L 241.115675 214.910755 
L 241.541784 214.987692 
L 241.724402 215.045394 
L 242.485311 215.122331 
L 242.66793 215.18003 
L 242.972293 215.276208 
L 243.67233 215.833993 
L 244.128875 216.487956 
L 244.281057 216.699532 
L 244.707166 217.411203 
L 245.407202 218.969173 
L 246.35073 221.065697 
L 247.142075 222.796774 
L 248.237784 225.277985 
L 249.69873 227.816896 
L 251.494475 229.93266 
L 251.737966 230.028828 
L 251.920584 230.105768 
L 252.04233 230.086534 
L 252.194511 230.067297 
L 252.438002 229.990366 
L 253.503275 228.470865 
L 254.812039 224.912539 
L 256.272984 217.949757 
L 257.06433 212.833462 
L 258.40353 201.850737 
L 259.225311 193.618502 
L 260.32102 180.712357 
L 262.238511 153.842188 
L 268.417093 57.940497 
L 269.938911 40.918229 
L 270.912875 33.22456 
L 271.825966 28.146727 
L 272.647748 24.992322 
L 273.499966 23.60746 
L 273.986948 23.415121 
L 274.13913 23.492058 
L 274.565239 24.203717 
L 275.72182 28.204426 
L 276.178366 30.704875 
L 277.73062 41.168282 
L 280.591639 69.346374 
L 284.883166 119.412981 
L 285.978875 131.876738 
L 290.605202 180.423845 
L 293.192293 202.350826 
L 294.22713 209.352073 
L 296.783784 221.758128 
L 297.362075 223.950823 
L 298.092548 226.297395 
L 299.096948 228.547795 
L 299.888293 229.836489 
L 300.649202 230.201936 
L 301.197057 230.125005 
L 301.775348 229.567211 
L 301.866657 229.471043 
L 302.17102 229.16329 
L 302.688439 228.336219 
L 303.723275 224.720194 
L 304.27113 221.81583 
L 305.792948 211.506305 
L 307.497384 198.888671 
L 309.171384 186.040229 
L 310.814948 175.365251 
L 315.98913 146.571663 
L 316.689166 143.571129 
L 318.302293 137.877807 
L 318.850148 136.473711 
L 319.00233 136.127496 
L 319.398002 135.031147 
L 321.34593 130.395706 
L 322.959057 127.568279 
L 323.628657 126.548867 
L 324.115639 125.606393 
L 325.150475 123.413693 
L 326.094002 120.797843 
L 328.163675 115.296863 
L 328.71153 113.642723 
L 329.38113 111.680835 
L 329.837675 110.37291 
L 330.598584 108.314851 
L 330.96382 107.410844 
L 331.359493 106.526071 
L 332.668257 104.256433 
L 332.850875 104.044857 
L 333.094366 103.698641 
L 334.007457 102.7177 
L 334.129202 102.679232 
L 334.342257 102.583061 
L 334.555311 102.563824 
L 335.011857 102.660001 
L 335.894511 103.333195 
L 337.75113 105.852874 
L 338.512039 107.526249 
L 339.303384 109.815118 
L 341.312184 117.855011 
L 343.503602 129.472465 
L 344.934111 139.185733 
L 349.773493 178.058039 
L 350.899639 186.636489 
L 352.117093 195.734263 
L 355.099857 213.891346 
L 356.012948 218.488318 
L 357.07822 222.104343 
L 357.565202 223.316098 
L 358.204366 224.297038 
L 358.478293 224.700963 
L 359.026148 225.220286 
L 359.482693 225.124109 
L 360.09142 224.220108 
L 360.547966 223.123753 
L 360.76102 222.508261 
L 361.978475 218.295973 
L 362.678511 215.218502 
L 363.43942 211.390897 
L 365.78302 195.888137 
L 368.522293 172.518591 
L 372.844257 129.914851 
L 374.853057 113.104165 
L 375.82702 106.564539 
L 376.800984 100.544237 
L 377.16622 98.428475 
L 378.292366 92.658217 
L 379.17502 89.253768 
L 380.148984 86.541743 
L 380.818584 85.137647 
L 381.762111 84.099001 
L 381.975166 84.022064 
L 382.18822 83.925893 
L 382.370839 83.925893 
L 382.553457 83.925893 
L 382.85782 84.022064 
L 382.918693 84.041301 
L 382.918693 84.041301 
" style="fill:none;stroke:#ff0000;stroke-linecap:square;stroke-width:1.5;"/>
   </g>
   <g id="line2d_27">
    <path clip-path="url(#pcf97f40a01)" d="M 124.635711 160.536919 
" style="fill:none;stroke:#ffffff;stroke-linecap:square;stroke-width:1.5;"/>
    <defs>
     <path d="M 0 -5 
L -1.12257 -1.545085 
L -4.755283 -1.545085 
L -1.816356 0.59017 
L -2.938926 4.045085 
L -0 1.90983 
L 2.938926 4.045085 
L 1.816356 0.59017 
L 4.755283 -1.545085 
L 1.12257 -1.545085 
z
" id="mcbce76d9ad" style="stroke:#ffffff;stroke-linejoin:bevel;"/>
    </defs>
    <g clip-path="url(#pcf97f40a01)">
     <use style="fill:#0000ff;stroke:#ffffff;stroke-linejoin:bevel;" x="124.635711" xlink:href="#mcbce76d9ad" y="160.536919"/>
    </g>
   </g>
   <g id="line2d_28">
    <path clip-path="url(#pcf97f40a01)" d="M 104.365093 158.266053 
" style="fill:none;stroke:#ffffff;stroke-linecap:square;stroke-width:1.5;"/>
    <defs>
     <path d="M 0 -5 
L -1.12257 -1.545085 
L -4.755283 -1.545085 
L -1.816356 0.59017 
L -2.938926 4.045085 
L -0 1.90983 
L 2.938926 4.045085 
L 1.816356 0.59017 
L 4.755283 -1.545085 
L 1.12257 -1.545085 
z
" id="m7924167576" style="stroke:#ffffff;stroke-linejoin:bevel;"/>
    </defs>
    <g clip-path="url(#pcf97f40a01)">
     <use style="fill:#ff0000;stroke:#ffffff;stroke-linejoin:bevel;" x="104.365093" xlink:href="#m7924167576" y="158.266053"/>
    </g>
   </g>
   <g id="patch_3">
    <path d="M 63.336875 339.84 
L 63.336875 7.2 
" style="fill:none;stroke:#000000;stroke-linecap:square;stroke-linejoin:miter;stroke-width:0.8;"/>
   </g>
   <g id="patch_4">
    <path d="M 398.136875 339.84 
L 398.136875 7.2 
" style="fill:none;stroke:#000000;stroke-linecap:square;stroke-linejoin:miter;stroke-width:0.8;"/>
   </g>
   <g id="patch_5">
    <path d="M 63.336875 339.84 
L 398.136875 339.84 
" style="fill:none;stroke:#000000;stroke-linecap:square;stroke-linejoin:miter;stroke-width:0.8;"/>
   </g>
   <g id="patch_6">
    <path d="M 63.336875 7.2 
L 398.136875 7.2 
" style="fill:none;stroke:#000000;stroke-linecap:square;stroke-linejoin:miter;stroke-width:0.8;"/>
   </g>
   <g id="text_15">
    <g id="patch_7">
     <path d="M 75.036875 331.242688 
L 166.79375 331.242688 
L 166.79375 293.760312 
L 75.036875 293.760312 
z
" style="fill:#ffffff;stroke:#000000;stroke-linejoin:miter;stroke-width:0.75;"/>
    </g>
    <!-- Auto_00116 -->
    <g transform="translate(80.076875 308.521563)scale(0.14 -0.14)">
     <defs>
      <path d="M 2928 1419 
L 1288 1419 
L 1000 750 
Q 894 503 894 381 
Q 894 284 986 211 
Q 1078 138 1384 116 
L 1384 0 
L 50 0 
L 50 116 
Q 316 163 394 238 
Q 553 388 747 847 
L 2238 4334 
L 2347 4334 
L 3822 809 
Q 4000 384 4145 257 
Q 4291 131 4550 116 
L 4550 0 
L 2878 0 
L 2878 116 
Q 3131 128 3220 200 
Q 3309 272 3309 375 
Q 3309 513 3184 809 
L 2928 1419 
z
M 2841 1650 
L 2122 3363 
L 1384 1650 
L 2841 1650 
z
" id="TimesNewRomanPSMT-41" transform="scale(0.015625)"/>
      <path d="M 2709 2863 
L 2709 1128 
Q 2709 631 2732 520 
Q 2756 409 2807 365 
Q 2859 322 2928 322 
Q 3025 322 3147 375 
L 3191 266 
L 2334 -88 
L 2194 -88 
L 2194 519 
Q 1825 119 1631 15 
Q 1438 -88 1222 -88 
Q 981 -88 804 51 
Q 628 191 559 409 
Q 491 628 491 1028 
L 491 2306 
Q 491 2509 447 2587 
Q 403 2666 317 2708 
Q 231 2750 6 2747 
L 6 2863 
L 1009 2863 
L 1009 947 
Q 1009 547 1148 422 
Q 1288 297 1484 297 
Q 1619 297 1789 381 
Q 1959 466 2194 703 
L 2194 2325 
Q 2194 2569 2105 2655 
Q 2016 2741 1734 2747 
L 1734 2863 
L 2709 2863 
z
" id="TimesNewRomanPSMT-75" transform="scale(0.015625)"/>
      <path d="M 3256 -1381 
L -53 -1381 
L -53 -1119 
L 3256 -1119 
L 3256 -1381 
z
" id="TimesNewRomanPSMT-5f" transform="scale(0.015625)"/>
     </defs>
     <use xlink:href="#TimesNewRomanPSMT-41"/>
     <use x="72.216797" xlink:href="#TimesNewRomanPSMT-75"/>
     <use x="122.216797" xlink:href="#TimesNewRomanPSMT-74"/>
     <use x="150" xlink:href="#TimesNewRomanPSMT-6f"/>
     <use x="200" xlink:href="#TimesNewRomanPSMT-5f"/>
     <use x="250" xlink:href="#TimesNewRomanPSMT-30"/>
     <use x="300" xlink:href="#TimesNewRomanPSMT-30"/>
     <use x="350" xlink:href="#TimesNewRomanPSMT-31"/>
     <use x="396.25" xlink:href="#TimesNewRomanPSMT-31"/>
     <use x="446.25" xlink:href="#TimesNewRomanPSMT-36"/>
    </g>
    <!-- Vs: 300.12m/s -->
    <g transform="translate(80.076875 323.208)scale(0.14 -0.14)">
     <defs>
      <path d="M 903 2950 
Q 1047 2950 1148 2848 
Q 1250 2747 1250 2603 
Q 1250 2459 1148 2357 
Q 1047 2256 903 2256 
Q 759 2256 657 2357 
Q 556 2459 556 2603 
Q 556 2747 657 2848 
Q 759 2950 903 2950 
z
M 897 609 
Q 1044 609 1145 506 
Q 1247 403 1247 259 
Q 1247 116 1144 14 
Q 1041 -88 897 -88 
Q 753 -88 651 14 
Q 550 116 550 259 
Q 550 403 651 506 
Q 753 609 897 609 
z
" id="TimesNewRomanPSMT-3a" transform="scale(0.015625)"/>
      <path d="M 1794 4444 
L 259 -88 
L 9 -88 
L 1544 4444 
L 1794 4444 
z
" id="TimesNewRomanPSMT-2f" transform="scale(0.015625)"/>
     </defs>
     <use xlink:href="#TimesNewRomanPSMT-56"/>
     <use x="72.216797" xlink:href="#TimesNewRomanPSMT-73"/>
     <use x="111.132812" xlink:href="#TimesNewRomanPSMT-3a"/>
     <use x="138.916016" xlink:href="#TimesNewRomanPSMT-20"/>
     <use x="163.916016" xlink:href="#TimesNewRomanPSMT-33"/>
     <use x="213.916016" xlink:href="#TimesNewRomanPSMT-30"/>
     <use x="263.916016" xlink:href="#TimesNewRomanPSMT-30"/>
     <use x="313.916016" xlink:href="#TimesNewRomanPSMT-2e"/>
     <use x="338.916016" xlink:href="#TimesNewRomanPSMT-31"/>
     <use x="388.916016" xlink:href="#TimesNewRomanPSMT-32"/>
     <use x="438.916016" xlink:href="#TimesNewRomanPSMT-6d"/>
     <use x="516.699219" xlink:href="#TimesNewRomanPSMT-2f"/>
     <use x="544.482422" xlink:href="#TimesNewRomanPSMT-73"/>
    </g>
   </g>
  </g>
 </g>
 <defs>
  <clipPath id="pcf97f40a01">
   <rect height="332.64" width="334.8" x="63.336875" y="7.2"/>
  </clipPath>
 </defs>
</svg>
