<?xml version="1.0" encoding="utf-8" standalone="no"?>
<!DOCTYPE svg PUBLIC "-//W3C//DTD SVG 1.1//EN"
  "http://www.w3.org/Graphics/SVG/1.1/DTD/svg11.dtd">
<svg height="383.471875pt" version="1.1" viewBox="0 0 421.086875 383.471875" width="421.086875pt" xmlns="http://www.w3.org/2000/svg" xmlns:xlink="http://www.w3.org/1999/xlink">
 <metadata>
  <rdf:RDF xmlns:cc="http://creativecommons.org/ns#" xmlns:dc="http://purl.org/dc/elements/1.1/" xmlns:rdf="http://www.w3.org/1999/02/22-rdf-syntax-ns#">
   <cc:Work>
    <dc:type rdf:resource="http://purl.org/dc/dcmitype/StillImage"/>
    <dc:date>2021-06-11T14:39:37.326696</dc:date>
    <dc:format>image/svg+xml</dc:format>
    <dc:creator>
     <cc:Agent>
      <dc:title>Matplotlib v3.4.2, https://matplotlib.org/</dc:title>
     </cc:Agent>
    </dc:creator>
   </cc:Work>
  </rdf:RDF>
 </metadata>
 <defs>
  <style type="text/css">*{stroke-linecap:butt;stroke-linejoin:round;}</style>
 </defs>
 <g id="figure_1">
  <g id="patch_1">
   <path d="M 0 383.471875 
L 421.086875 383.471875 
L 421.086875 0 
L 0 0 
z
" style="fill:#ffffff;"/>
  </g>
  <g id="axes_1">
   <g id="patch_2">
    <path d="M 63.336875 339.84 
L 398.136875 339.84 
L 398.136875 7.2 
L 63.336875 7.2 
z
" style="fill:#ffffff;"/>
   </g>
   <g id="matplotlib.axis_1">
    <g id="xtick_1">
     <g id="line2d_1">
      <path clip-path="url(#p871dd163a1)" d="M 93.773239 339.84 
L 93.773239 7.2 
" style="fill:none;stroke:#000000;stroke-dasharray:0.5,0.825;stroke-dashoffset:0;stroke-width:0.5;"/>
     </g>
     <g id="line2d_2">
      <defs>
       <path d="M 0 0 
L 0 3.5 
" id="m47df455c80" style="stroke:#000000;stroke-width:0.8;"/>
      </defs>
      <g>
       <use style="stroke:#000000;stroke-width:0.8;" x="93.773239" xlink:href="#m47df455c80" y="339.84"/>
      </g>
     </g>
     <g id="text_1">
      <!-- 0.000 -->
      <g transform="translate(78.023239 356.56125)scale(0.14 -0.14)">
       <defs>
        <path d="M 231 2094 
Q 231 2819 450 3342 
Q 669 3866 1031 4122 
Q 1313 4325 1613 4325 
Q 2100 4325 2488 3828 
Q 2972 3213 2972 2159 
Q 2972 1422 2759 906 
Q 2547 391 2217 158 
Q 1888 -75 1581 -75 
Q 975 -75 572 641 
Q 231 1244 231 2094 
z
M 844 2016 
Q 844 1141 1059 588 
Q 1238 122 1591 122 
Q 1759 122 1940 273 
Q 2122 425 2216 781 
Q 2359 1319 2359 2297 
Q 2359 3022 2209 3506 
Q 2097 3866 1919 4016 
Q 1791 4119 1609 4119 
Q 1397 4119 1231 3928 
Q 1006 3669 925 3112 
Q 844 2556 844 2016 
z
" id="TimesNewRomanPSMT-30" transform="scale(0.015625)"/>
        <path d="M 800 606 
Q 947 606 1047 504 
Q 1147 403 1147 259 
Q 1147 116 1045 14 
Q 944 -88 800 -88 
Q 656 -88 554 14 
Q 453 116 453 259 
Q 453 406 554 506 
Q 656 606 800 606 
z
" id="TimesNewRomanPSMT-2e" transform="scale(0.015625)"/>
       </defs>
       <use xlink:href="#TimesNewRomanPSMT-30"/>
       <use x="50" xlink:href="#TimesNewRomanPSMT-2e"/>
       <use x="75" xlink:href="#TimesNewRomanPSMT-30"/>
       <use x="125" xlink:href="#TimesNewRomanPSMT-30"/>
       <use x="175" xlink:href="#TimesNewRomanPSMT-30"/>
      </g>
     </g>
    </g>
    <g id="xtick_2">
     <g id="line2d_3">
      <path clip-path="url(#p871dd163a1)" d="M 154.645966 339.84 
L 154.645966 7.2 
" style="fill:none;stroke:#000000;stroke-dasharray:0.5,0.825;stroke-dashoffset:0;stroke-width:0.5;"/>
     </g>
     <g id="line2d_4">
      <g>
       <use style="stroke:#000000;stroke-width:0.8;" x="154.645966" xlink:href="#m47df455c80" y="339.84"/>
      </g>
     </g>
     <g id="text_2">
      <!-- 0.001 -->
      <g transform="translate(138.895966 356.56125)scale(0.14 -0.14)">
       <defs>
        <path d="M 750 3822 
L 1781 4325 
L 1884 4325 
L 1884 747 
Q 1884 391 1914 303 
Q 1944 216 2037 169 
Q 2131 122 2419 116 
L 2419 0 
L 825 0 
L 825 116 
Q 1125 122 1212 167 
Q 1300 213 1334 289 
Q 1369 366 1369 747 
L 1369 3034 
Q 1369 3497 1338 3628 
Q 1316 3728 1258 3775 
Q 1200 3822 1119 3822 
Q 1003 3822 797 3725 
L 750 3822 
z
" id="TimesNewRomanPSMT-31" transform="scale(0.015625)"/>
       </defs>
       <use xlink:href="#TimesNewRomanPSMT-30"/>
       <use x="50" xlink:href="#TimesNewRomanPSMT-2e"/>
       <use x="75" xlink:href="#TimesNewRomanPSMT-30"/>
       <use x="125" xlink:href="#TimesNewRomanPSMT-30"/>
       <use x="175" xlink:href="#TimesNewRomanPSMT-31"/>
      </g>
     </g>
    </g>
    <g id="xtick_3">
     <g id="line2d_5">
      <path clip-path="url(#p871dd163a1)" d="M 215.518693 339.84 
L 215.518693 7.2 
" style="fill:none;stroke:#000000;stroke-dasharray:0.5,0.825;stroke-dashoffset:0;stroke-width:0.5;"/>
     </g>
     <g id="line2d_6">
      <g>
       <use style="stroke:#000000;stroke-width:0.8;" x="215.518693" xlink:href="#m47df455c80" y="339.84"/>
      </g>
     </g>
     <g id="text_3">
      <!-- 0.002 -->
      <g transform="translate(199.768693 356.56125)scale(0.14 -0.14)">
       <defs>
        <path d="M 2934 816 
L 2638 0 
L 138 0 
L 138 116 
Q 1241 1122 1691 1759 
Q 2141 2397 2141 2925 
Q 2141 3328 1894 3587 
Q 1647 3847 1303 3847 
Q 991 3847 742 3664 
Q 494 3481 375 3128 
L 259 3128 
Q 338 3706 661 4015 
Q 984 4325 1469 4325 
Q 1984 4325 2329 3994 
Q 2675 3663 2675 3213 
Q 2675 2891 2525 2569 
Q 2294 2063 1775 1497 
Q 997 647 803 472 
L 1909 472 
Q 2247 472 2383 497 
Q 2519 522 2628 598 
Q 2738 675 2819 816 
L 2934 816 
z
" id="TimesNewRomanPSMT-32" transform="scale(0.015625)"/>
       </defs>
       <use xlink:href="#TimesNewRomanPSMT-30"/>
       <use x="50" xlink:href="#TimesNewRomanPSMT-2e"/>
       <use x="75" xlink:href="#TimesNewRomanPSMT-30"/>
       <use x="125" xlink:href="#TimesNewRomanPSMT-30"/>
       <use x="175" xlink:href="#TimesNewRomanPSMT-32"/>
      </g>
     </g>
    </g>
    <g id="xtick_4">
     <g id="line2d_7">
      <path clip-path="url(#p871dd163a1)" d="M 276.39142 339.84 
L 276.39142 7.2 
" style="fill:none;stroke:#000000;stroke-dasharray:0.5,0.825;stroke-dashoffset:0;stroke-width:0.5;"/>
     </g>
     <g id="line2d_8">
      <g>
       <use style="stroke:#000000;stroke-width:0.8;" x="276.39142" xlink:href="#m47df455c80" y="339.84"/>
      </g>
     </g>
     <g id="text_4">
      <!-- 0.003 -->
      <g transform="translate(260.64142 356.56125)scale(0.14 -0.14)">
       <defs>
        <path d="M 325 3431 
Q 506 3859 782 4092 
Q 1059 4325 1472 4325 
Q 1981 4325 2253 3994 
Q 2459 3747 2459 3466 
Q 2459 3003 1878 2509 
Q 2269 2356 2469 2072 
Q 2669 1788 2669 1403 
Q 2669 853 2319 450 
Q 1863 -75 997 -75 
Q 569 -75 414 31 
Q 259 138 259 259 
Q 259 350 332 419 
Q 406 488 509 488 
Q 588 488 669 463 
Q 722 447 909 348 
Q 1097 250 1169 231 
Q 1284 197 1416 197 
Q 1734 197 1970 444 
Q 2206 691 2206 1028 
Q 2206 1275 2097 1509 
Q 2016 1684 1919 1775 
Q 1784 1900 1550 2001 
Q 1316 2103 1072 2103 
L 972 2103 
L 972 2197 
Q 1219 2228 1467 2375 
Q 1716 2522 1828 2728 
Q 1941 2934 1941 3181 
Q 1941 3503 1739 3701 
Q 1538 3900 1238 3900 
Q 753 3900 428 3381 
L 325 3431 
z
" id="TimesNewRomanPSMT-33" transform="scale(0.015625)"/>
       </defs>
       <use xlink:href="#TimesNewRomanPSMT-30"/>
       <use x="50" xlink:href="#TimesNewRomanPSMT-2e"/>
       <use x="75" xlink:href="#TimesNewRomanPSMT-30"/>
       <use x="125" xlink:href="#TimesNewRomanPSMT-30"/>
       <use x="175" xlink:href="#TimesNewRomanPSMT-33"/>
      </g>
     </g>
    </g>
    <g id="xtick_5">
     <g id="line2d_9">
      <path clip-path="url(#p871dd163a1)" d="M 337.264148 339.84 
L 337.264148 7.2 
" style="fill:none;stroke:#000000;stroke-dasharray:0.5,0.825;stroke-dashoffset:0;stroke-width:0.5;"/>
     </g>
     <g id="line2d_10">
      <g>
       <use style="stroke:#000000;stroke-width:0.8;" x="337.264148" xlink:href="#m47df455c80" y="339.84"/>
      </g>
     </g>
     <g id="text_5">
      <!-- 0.004 -->
      <g transform="translate(321.514148 356.56125)scale(0.14 -0.14)">
       <defs>
        <path d="M 2978 1563 
L 2978 1119 
L 2409 1119 
L 2409 0 
L 1894 0 
L 1894 1119 
L 100 1119 
L 100 1519 
L 2066 4325 
L 2409 4325 
L 2409 1563 
L 2978 1563 
z
M 1894 1563 
L 1894 3666 
L 406 1563 
L 1894 1563 
z
" id="TimesNewRomanPSMT-34" transform="scale(0.015625)"/>
       </defs>
       <use xlink:href="#TimesNewRomanPSMT-30"/>
       <use x="50" xlink:href="#TimesNewRomanPSMT-2e"/>
       <use x="75" xlink:href="#TimesNewRomanPSMT-30"/>
       <use x="125" xlink:href="#TimesNewRomanPSMT-30"/>
       <use x="175" xlink:href="#TimesNewRomanPSMT-34"/>
      </g>
     </g>
    </g>
    <g id="xtick_6">
     <g id="line2d_11">
      <path clip-path="url(#p871dd163a1)" d="M 398.136875 339.84 
L 398.136875 7.2 
" style="fill:none;stroke:#000000;stroke-dasharray:0.5,0.825;stroke-dashoffset:0;stroke-width:0.5;"/>
     </g>
     <g id="line2d_12">
      <g>
       <use style="stroke:#000000;stroke-width:0.8;" x="398.136875" xlink:href="#m47df455c80" y="339.84"/>
      </g>
     </g>
     <g id="text_6">
      <!-- 0.005 -->
      <g transform="translate(382.386875 356.56125)scale(0.14 -0.14)">
       <defs>
        <path d="M 2778 4238 
L 2534 3706 
L 1259 3706 
L 981 3138 
Q 1809 3016 2294 2522 
Q 2709 2097 2709 1522 
Q 2709 1188 2573 903 
Q 2438 619 2231 419 
Q 2025 219 1772 97 
Q 1413 -75 1034 -75 
Q 653 -75 479 54 
Q 306 184 306 341 
Q 306 428 378 495 
Q 450 563 559 563 
Q 641 563 702 538 
Q 763 513 909 409 
Q 1144 247 1384 247 
Q 1750 247 2026 523 
Q 2303 800 2303 1197 
Q 2303 1581 2056 1914 
Q 1809 2247 1375 2428 
Q 1034 2569 447 2591 
L 1259 4238 
L 2778 4238 
z
" id="TimesNewRomanPSMT-35" transform="scale(0.015625)"/>
       </defs>
       <use xlink:href="#TimesNewRomanPSMT-30"/>
       <use x="50" xlink:href="#TimesNewRomanPSMT-2e"/>
       <use x="75" xlink:href="#TimesNewRomanPSMT-30"/>
       <use x="125" xlink:href="#TimesNewRomanPSMT-30"/>
       <use x="175" xlink:href="#TimesNewRomanPSMT-35"/>
      </g>
     </g>
    </g>
    <g id="text_7">
     <!-- Time (sec) -->
     <g transform="translate(200.858906 373.277188)scale(0.14 -0.14)">
      <defs>
       <path d="M 3703 4238 
L 3750 3244 
L 3631 3244 
Q 3597 3506 3538 3619 
Q 3441 3800 3280 3886 
Q 3119 3972 2856 3972 
L 2259 3972 
L 2259 734 
Q 2259 344 2344 247 
Q 2463 116 2709 116 
L 2856 116 
L 2856 0 
L 1059 0 
L 1059 116 
L 1209 116 
Q 1478 116 1591 278 
Q 1659 378 1659 734 
L 1659 3972 
L 1150 3972 
Q 853 3972 728 3928 
Q 566 3869 450 3700 
Q 334 3531 313 3244 
L 194 3244 
L 244 4238 
L 3703 4238 
z
" id="TimesNewRomanPSMT-54" transform="scale(0.015625)"/>
       <path d="M 928 4444 
Q 1059 4444 1151 4351 
Q 1244 4259 1244 4128 
Q 1244 3997 1151 3903 
Q 1059 3809 928 3809 
Q 797 3809 703 3903 
Q 609 3997 609 4128 
Q 609 4259 701 4351 
Q 794 4444 928 4444 
z
M 1188 2947 
L 1188 647 
Q 1188 378 1227 289 
Q 1266 200 1342 156 
Q 1419 113 1622 113 
L 1622 0 
L 231 0 
L 231 113 
Q 441 113 512 153 
Q 584 194 626 287 
Q 669 381 669 647 
L 669 1750 
Q 669 2216 641 2353 
Q 619 2453 572 2492 
Q 525 2531 444 2531 
Q 356 2531 231 2484 
L 188 2597 
L 1050 2947 
L 1188 2947 
z
" id="TimesNewRomanPSMT-69" transform="scale(0.015625)"/>
       <path d="M 1050 2338 
Q 1363 2650 1419 2697 
Q 1559 2816 1721 2881 
Q 1884 2947 2044 2947 
Q 2313 2947 2506 2790 
Q 2700 2634 2766 2338 
Q 3088 2713 3309 2830 
Q 3531 2947 3766 2947 
Q 3994 2947 4170 2830 
Q 4347 2713 4450 2447 
Q 4519 2266 4519 1878 
L 4519 647 
Q 4519 378 4559 278 
Q 4591 209 4675 161 
Q 4759 113 4950 113 
L 4950 0 
L 3538 0 
L 3538 113 
L 3597 113 
Q 3781 113 3884 184 
Q 3956 234 3988 344 
Q 4000 397 4000 647 
L 4000 1878 
Q 4000 2228 3916 2372 
Q 3794 2572 3525 2572 
Q 3359 2572 3192 2489 
Q 3025 2406 2788 2181 
L 2781 2147 
L 2788 2013 
L 2788 647 
Q 2788 353 2820 281 
Q 2853 209 2943 161 
Q 3034 113 3253 113 
L 3253 0 
L 1806 0 
L 1806 113 
Q 2044 113 2133 169 
Q 2222 225 2256 338 
Q 2272 391 2272 647 
L 2272 1878 
Q 2272 2228 2169 2381 
Q 2031 2581 1784 2581 
Q 1616 2581 1450 2491 
Q 1191 2353 1050 2181 
L 1050 647 
Q 1050 366 1089 281 
Q 1128 197 1204 155 
Q 1281 113 1516 113 
L 1516 0 
L 100 0 
L 100 113 
Q 297 113 375 155 
Q 453 197 493 289 
Q 534 381 534 647 
L 534 1741 
Q 534 2213 506 2350 
Q 484 2453 437 2492 
Q 391 2531 309 2531 
Q 222 2531 100 2484 
L 53 2597 
L 916 2947 
L 1050 2947 
L 1050 2338 
z
" id="TimesNewRomanPSMT-6d" transform="scale(0.015625)"/>
       <path d="M 681 1784 
Q 678 1147 991 784 
Q 1303 422 1725 422 
Q 2006 422 2214 576 
Q 2422 731 2563 1106 
L 2659 1044 
Q 2594 616 2278 264 
Q 1963 -88 1488 -88 
Q 972 -88 605 314 
Q 238 716 238 1394 
Q 238 2128 614 2539 
Q 991 2950 1559 2950 
Q 2041 2950 2350 2633 
Q 2659 2316 2659 1784 
L 681 1784 
z
M 681 1966 
L 2006 1966 
Q 1991 2241 1941 2353 
Q 1863 2528 1708 2628 
Q 1553 2728 1384 2728 
Q 1125 2728 920 2526 
Q 716 2325 681 1966 
z
" id="TimesNewRomanPSMT-65" transform="scale(0.015625)"/>
       <path id="TimesNewRomanPSMT-20" transform="scale(0.015625)"/>
       <path d="M 1988 -1253 
L 1988 -1369 
Q 1516 -1131 1200 -813 
Q 750 -359 506 256 
Q 263 872 263 1534 
Q 263 2503 741 3301 
Q 1219 4100 1988 4444 
L 1988 4313 
Q 1603 4100 1356 3731 
Q 1109 3363 987 2797 
Q 866 2231 866 1616 
Q 866 947 969 400 
Q 1050 -31 1165 -292 
Q 1281 -553 1476 -793 
Q 1672 -1034 1988 -1253 
z
" id="TimesNewRomanPSMT-28" transform="scale(0.015625)"/>
       <path d="M 2050 2947 
L 2050 1972 
L 1947 1972 
Q 1828 2431 1642 2597 
Q 1456 2763 1169 2763 
Q 950 2763 815 2647 
Q 681 2531 681 2391 
Q 681 2216 781 2091 
Q 878 1963 1175 1819 
L 1631 1597 
Q 2266 1288 2266 781 
Q 2266 391 1970 151 
Q 1675 -88 1309 -88 
Q 1047 -88 709 6 
Q 606 38 541 38 
Q 469 38 428 -44 
L 325 -44 
L 325 978 
L 428 978 
Q 516 541 762 319 
Q 1009 97 1316 97 
Q 1531 97 1667 223 
Q 1803 350 1803 528 
Q 1803 744 1651 891 
Q 1500 1038 1047 1263 
Q 594 1488 453 1669 
Q 313 1847 313 2119 
Q 313 2472 555 2709 
Q 797 2947 1181 2947 
Q 1350 2947 1591 2875 
Q 1750 2828 1803 2828 
Q 1853 2828 1881 2850 
Q 1909 2872 1947 2947 
L 2050 2947 
z
" id="TimesNewRomanPSMT-73" transform="scale(0.015625)"/>
       <path d="M 2631 1088 
Q 2516 522 2178 217 
Q 1841 -88 1431 -88 
Q 944 -88 581 321 
Q 219 731 219 1428 
Q 219 2103 620 2525 
Q 1022 2947 1584 2947 
Q 2006 2947 2278 2723 
Q 2550 2500 2550 2259 
Q 2550 2141 2473 2067 
Q 2397 1994 2259 1994 
Q 2075 1994 1981 2113 
Q 1928 2178 1911 2362 
Q 1894 2547 1784 2644 
Q 1675 2738 1481 2738 
Q 1169 2738 978 2506 
Q 725 2200 725 1697 
Q 725 1184 976 792 
Q 1228 400 1656 400 
Q 1963 400 2206 609 
Q 2378 753 2541 1131 
L 2631 1088 
z
" id="TimesNewRomanPSMT-63" transform="scale(0.015625)"/>
       <path d="M 144 4313 
L 144 4444 
Q 619 4209 934 3891 
Q 1381 3434 1625 2820 
Q 1869 2206 1869 1541 
Q 1869 572 1392 -226 
Q 916 -1025 144 -1369 
L 144 -1253 
Q 528 -1038 776 -670 
Q 1025 -303 1145 264 
Q 1266 831 1266 1447 
Q 1266 2113 1163 2663 
Q 1084 3094 967 3353 
Q 850 3613 656 3853 
Q 463 4094 144 4313 
z
" id="TimesNewRomanPSMT-29" transform="scale(0.015625)"/>
      </defs>
      <use xlink:href="#TimesNewRomanPSMT-54"/>
      <use x="57.583984" xlink:href="#TimesNewRomanPSMT-69"/>
      <use x="85.367188" xlink:href="#TimesNewRomanPSMT-6d"/>
      <use x="163.150391" xlink:href="#TimesNewRomanPSMT-65"/>
      <use x="207.535156" xlink:href="#TimesNewRomanPSMT-20"/>
      <use x="232.535156" xlink:href="#TimesNewRomanPSMT-28"/>
      <use x="265.835938" xlink:href="#TimesNewRomanPSMT-73"/>
      <use x="304.751953" xlink:href="#TimesNewRomanPSMT-65"/>
      <use x="349.136719" xlink:href="#TimesNewRomanPSMT-63"/>
      <use x="393.521484" xlink:href="#TimesNewRomanPSMT-29"/>
     </g>
    </g>
   </g>
   <g id="matplotlib.axis_2">
    <g id="ytick_1">
     <g id="line2d_13">
      <path clip-path="url(#p871dd163a1)" d="M 63.336875 295.296692 
L 398.136875 295.296692 
" style="fill:none;stroke:#000000;stroke-dasharray:0.5,0.825;stroke-dashoffset:0;stroke-width:0.5;"/>
     </g>
     <g id="line2d_14">
      <defs>
       <path d="M 0 0 
L -3.5 0 
" id="mb938733517" style="stroke:#000000;stroke-width:0.8;"/>
      </defs>
      <g>
       <use style="stroke:#000000;stroke-width:0.8;" x="63.336875" xlink:href="#mb938733517" y="295.296692"/>
      </g>
     </g>
     <g id="text_8">
      <!-- −0.06 -->
      <g transform="translate(23.942188 300.157317)scale(0.14 -0.14)">
       <defs>
        <path d="M 3484 2000 
L 116 2000 
L 116 2256 
L 3484 2256 
L 3484 2000 
z
" id="TimesNewRomanPSMT-2212" transform="scale(0.015625)"/>
        <path d="M 2869 4325 
L 2869 4209 
Q 2456 4169 2195 4045 
Q 1934 3922 1679 3669 
Q 1425 3416 1258 3105 
Q 1091 2794 978 2366 
Q 1428 2675 1881 2675 
Q 2316 2675 2634 2325 
Q 2953 1975 2953 1425 
Q 2953 894 2631 456 
Q 2244 -75 1606 -75 
Q 1172 -75 869 213 
Q 275 772 275 1663 
Q 275 2231 503 2743 
Q 731 3256 1154 3653 
Q 1578 4050 1965 4187 
Q 2353 4325 2688 4325 
L 2869 4325 
z
M 925 2138 
Q 869 1716 869 1456 
Q 869 1156 980 804 
Q 1091 453 1309 247 
Q 1469 100 1697 100 
Q 1969 100 2183 356 
Q 2397 613 2397 1088 
Q 2397 1622 2184 2012 
Q 1972 2403 1581 2403 
Q 1463 2403 1327 2353 
Q 1191 2303 925 2138 
z
" id="TimesNewRomanPSMT-36" transform="scale(0.015625)"/>
       </defs>
       <use xlink:href="#TimesNewRomanPSMT-2212"/>
       <use x="56.396484" xlink:href="#TimesNewRomanPSMT-30"/>
       <use x="106.396484" xlink:href="#TimesNewRomanPSMT-2e"/>
       <use x="131.396484" xlink:href="#TimesNewRomanPSMT-30"/>
       <use x="181.396484" xlink:href="#TimesNewRomanPSMT-36"/>
      </g>
     </g>
    </g>
    <g id="ytick_2">
     <g id="line2d_15">
      <path clip-path="url(#p871dd163a1)" d="M 63.336875 249.058159 
L 398.136875 249.058159 
" style="fill:none;stroke:#000000;stroke-dasharray:0.5,0.825;stroke-dashoffset:0;stroke-width:0.5;"/>
     </g>
     <g id="line2d_16">
      <g>
       <use style="stroke:#000000;stroke-width:0.8;" x="63.336875" xlink:href="#mb938733517" y="249.058159"/>
      </g>
     </g>
     <g id="text_9">
      <!-- −0.04 -->
      <g transform="translate(23.942188 253.918784)scale(0.14 -0.14)">
       <use xlink:href="#TimesNewRomanPSMT-2212"/>
       <use x="56.396484" xlink:href="#TimesNewRomanPSMT-30"/>
       <use x="106.396484" xlink:href="#TimesNewRomanPSMT-2e"/>
       <use x="131.396484" xlink:href="#TimesNewRomanPSMT-30"/>
       <use x="181.396484" xlink:href="#TimesNewRomanPSMT-34"/>
      </g>
     </g>
    </g>
    <g id="ytick_3">
     <g id="line2d_17">
      <path clip-path="url(#p871dd163a1)" d="M 63.336875 202.819626 
L 398.136875 202.819626 
" style="fill:none;stroke:#000000;stroke-dasharray:0.5,0.825;stroke-dashoffset:0;stroke-width:0.5;"/>
     </g>
     <g id="line2d_18">
      <g>
       <use style="stroke:#000000;stroke-width:0.8;" x="63.336875" xlink:href="#mb938733517" y="202.819626"/>
      </g>
     </g>
     <g id="text_10">
      <!-- −0.02 -->
      <g transform="translate(23.942188 207.680251)scale(0.14 -0.14)">
       <use xlink:href="#TimesNewRomanPSMT-2212"/>
       <use x="56.396484" xlink:href="#TimesNewRomanPSMT-30"/>
       <use x="106.396484" xlink:href="#TimesNewRomanPSMT-2e"/>
       <use x="131.396484" xlink:href="#TimesNewRomanPSMT-30"/>
       <use x="181.396484" xlink:href="#TimesNewRomanPSMT-32"/>
      </g>
     </g>
    </g>
    <g id="ytick_4">
     <g id="line2d_19">
      <path clip-path="url(#p871dd163a1)" d="M 63.336875 156.581093 
L 398.136875 156.581093 
" style="fill:none;stroke:#000000;stroke-dasharray:0.5,0.825;stroke-dashoffset:0;stroke-width:0.5;"/>
     </g>
     <g id="line2d_20">
      <g>
       <use style="stroke:#000000;stroke-width:0.8;" x="63.336875" xlink:href="#mb938733517" y="156.581093"/>
      </g>
     </g>
     <g id="text_11">
      <!-- 0.00 -->
      <g transform="translate(31.836875 161.441718)scale(0.14 -0.14)">
       <use xlink:href="#TimesNewRomanPSMT-30"/>
       <use x="50" xlink:href="#TimesNewRomanPSMT-2e"/>
       <use x="75" xlink:href="#TimesNewRomanPSMT-30"/>
       <use x="125" xlink:href="#TimesNewRomanPSMT-30"/>
      </g>
     </g>
    </g>
    <g id="ytick_5">
     <g id="line2d_21">
      <path clip-path="url(#p871dd163a1)" d="M 63.336875 110.342559 
L 398.136875 110.342559 
" style="fill:none;stroke:#000000;stroke-dasharray:0.5,0.825;stroke-dashoffset:0;stroke-width:0.5;"/>
     </g>
     <g id="line2d_22">
      <g>
       <use style="stroke:#000000;stroke-width:0.8;" x="63.336875" xlink:href="#mb938733517" y="110.342559"/>
      </g>
     </g>
     <g id="text_12">
      <!-- 0.02 -->
      <g transform="translate(31.836875 115.203184)scale(0.14 -0.14)">
       <use xlink:href="#TimesNewRomanPSMT-30"/>
       <use x="50" xlink:href="#TimesNewRomanPSMT-2e"/>
       <use x="75" xlink:href="#TimesNewRomanPSMT-30"/>
       <use x="125" xlink:href="#TimesNewRomanPSMT-32"/>
      </g>
     </g>
    </g>
    <g id="ytick_6">
     <g id="line2d_23">
      <path clip-path="url(#p871dd163a1)" d="M 63.336875 64.104026 
L 398.136875 64.104026 
" style="fill:none;stroke:#000000;stroke-dasharray:0.5,0.825;stroke-dashoffset:0;stroke-width:0.5;"/>
     </g>
     <g id="line2d_24">
      <g>
       <use style="stroke:#000000;stroke-width:0.8;" x="63.336875" xlink:href="#mb938733517" y="64.104026"/>
      </g>
     </g>
     <g id="text_13">
      <!-- 0.04 -->
      <g transform="translate(31.836875 68.964651)scale(0.14 -0.14)">
       <use xlink:href="#TimesNewRomanPSMT-30"/>
       <use x="50" xlink:href="#TimesNewRomanPSMT-2e"/>
       <use x="75" xlink:href="#TimesNewRomanPSMT-30"/>
       <use x="125" xlink:href="#TimesNewRomanPSMT-34"/>
      </g>
     </g>
    </g>
    <g id="ytick_7">
     <g id="line2d_25">
      <path clip-path="url(#p871dd163a1)" d="M 63.336875 17.865493 
L 398.136875 17.865493 
" style="fill:none;stroke:#000000;stroke-dasharray:0.5,0.825;stroke-dashoffset:0;stroke-width:0.5;"/>
     </g>
     <g id="line2d_26">
      <g>
       <use style="stroke:#000000;stroke-width:0.8;" x="63.336875" xlink:href="#mb938733517" y="17.865493"/>
      </g>
     </g>
     <g id="text_14">
      <!-- 0.06 -->
      <g transform="translate(31.836875 22.726118)scale(0.14 -0.14)">
       <use xlink:href="#TimesNewRomanPSMT-30"/>
       <use x="50" xlink:href="#TimesNewRomanPSMT-2e"/>
       <use x="75" xlink:href="#TimesNewRomanPSMT-30"/>
       <use x="125" xlink:href="#TimesNewRomanPSMT-36"/>
      </g>
     </g>
    </g>
    <g id="text_15">
     <!-- Volatage (V) -->
     <g transform="translate(16.92125 209.352344)rotate(-90)scale(0.14 -0.14)">
      <defs>
       <path d="M 4544 4238 
L 4544 4122 
Q 4319 4081 4203 3978 
Q 4038 3825 3909 3509 
L 2431 -97 
L 2316 -97 
L 728 3556 
Q 606 3838 556 3900 
Q 478 3997 364 4051 
Q 250 4106 56 4122 
L 56 4238 
L 1788 4238 
L 1788 4122 
Q 1494 4094 1406 4022 
Q 1319 3950 1319 3838 
Q 1319 3681 1463 3350 
L 2541 866 
L 3541 3319 
Q 3688 3681 3688 3822 
Q 3688 3913 3597 3995 
Q 3506 4078 3291 4113 
Q 3275 4116 3238 4122 
L 3238 4238 
L 4544 4238 
z
" id="TimesNewRomanPSMT-56" transform="scale(0.015625)"/>
       <path d="M 1600 2947 
Q 2250 2947 2644 2453 
Q 2978 2031 2978 1484 
Q 2978 1100 2793 706 
Q 2609 313 2286 112 
Q 1963 -88 1566 -88 
Q 919 -88 538 428 
Q 216 863 216 1403 
Q 216 1797 411 2186 
Q 606 2575 925 2761 
Q 1244 2947 1600 2947 
z
M 1503 2744 
Q 1338 2744 1170 2645 
Q 1003 2547 900 2300 
Q 797 2053 797 1666 
Q 797 1041 1045 587 
Q 1294 134 1700 134 
Q 2003 134 2200 384 
Q 2397 634 2397 1244 
Q 2397 2006 2069 2444 
Q 1847 2744 1503 2744 
z
" id="TimesNewRomanPSMT-6f" transform="scale(0.015625)"/>
       <path d="M 1184 4444 
L 1184 647 
Q 1184 378 1223 290 
Q 1263 203 1344 158 
Q 1425 113 1647 113 
L 1647 0 
L 244 0 
L 244 113 
Q 441 113 512 153 
Q 584 194 625 287 
Q 666 381 666 647 
L 666 3247 
Q 666 3731 644 3842 
Q 622 3953 573 3993 
Q 525 4034 450 4034 
Q 369 4034 244 3984 
L 191 4094 
L 1044 4444 
L 1184 4444 
z
" id="TimesNewRomanPSMT-6c" transform="scale(0.015625)"/>
       <path d="M 1822 413 
Q 1381 72 1269 19 
Q 1100 -59 909 -59 
Q 613 -59 420 144 
Q 228 347 228 678 
Q 228 888 322 1041 
Q 450 1253 767 1440 
Q 1084 1628 1822 1897 
L 1822 2009 
Q 1822 2438 1686 2597 
Q 1550 2756 1291 2756 
Q 1094 2756 978 2650 
Q 859 2544 859 2406 
L 866 2225 
Q 866 2081 792 2003 
Q 719 1925 600 1925 
Q 484 1925 411 2006 
Q 338 2088 338 2228 
Q 338 2497 613 2722 
Q 888 2947 1384 2947 
Q 1766 2947 2009 2819 
Q 2194 2722 2281 2516 
Q 2338 2381 2338 1966 
L 2338 994 
Q 2338 584 2353 492 
Q 2369 400 2405 369 
Q 2441 338 2488 338 
Q 2538 338 2575 359 
Q 2641 400 2828 588 
L 2828 413 
Q 2478 -56 2159 -56 
Q 2006 -56 1915 50 
Q 1825 156 1822 413 
z
M 1822 616 
L 1822 1706 
Q 1350 1519 1213 1441 
Q 966 1303 859 1153 
Q 753 1003 753 825 
Q 753 600 887 451 
Q 1022 303 1197 303 
Q 1434 303 1822 616 
z
" id="TimesNewRomanPSMT-61" transform="scale(0.015625)"/>
       <path d="M 1031 3803 
L 1031 2863 
L 1700 2863 
L 1700 2644 
L 1031 2644 
L 1031 788 
Q 1031 509 1111 412 
Q 1191 316 1316 316 
Q 1419 316 1516 380 
Q 1613 444 1666 569 
L 1788 569 
Q 1678 263 1478 108 
Q 1278 -47 1066 -47 
Q 922 -47 784 33 
Q 647 113 581 261 
Q 516 409 516 719 
L 516 2644 
L 63 2644 
L 63 2747 
Q 234 2816 414 2980 
Q 594 3144 734 3369 
Q 806 3488 934 3803 
L 1031 3803 
z
" id="TimesNewRomanPSMT-74" transform="scale(0.015625)"/>
       <path d="M 966 1044 
Q 703 1172 562 1401 
Q 422 1631 422 1909 
Q 422 2334 742 2640 
Q 1063 2947 1563 2947 
Q 1972 2947 2272 2747 
L 2878 2747 
Q 3013 2747 3034 2739 
Q 3056 2731 3066 2713 
Q 3084 2684 3084 2613 
Q 3084 2531 3069 2500 
Q 3059 2484 3036 2475 
Q 3013 2466 2878 2466 
L 2506 2466 
Q 2681 2241 2681 1891 
Q 2681 1491 2375 1206 
Q 2069 922 1553 922 
Q 1341 922 1119 984 
Q 981 866 932 777 
Q 884 688 884 625 
Q 884 572 936 522 
Q 988 472 1138 450 
Q 1225 438 1575 428 
Q 2219 413 2409 384 
Q 2700 344 2873 169 
Q 3047 -6 3047 -263 
Q 3047 -616 2716 -925 
Q 2228 -1381 1444 -1381 
Q 841 -1381 425 -1109 
Q 191 -953 191 -784 
Q 191 -709 225 -634 
Q 278 -519 444 -313 
Q 466 -284 763 25 
Q 600 122 533 198 
Q 466 275 466 372 
Q 466 481 555 628 
Q 644 775 966 1044 
z
M 1509 2797 
Q 1278 2797 1122 2612 
Q 966 2428 966 2047 
Q 966 1553 1178 1281 
Q 1341 1075 1591 1075 
Q 1828 1075 1981 1253 
Q 2134 1431 2134 1813 
Q 2134 2309 1919 2591 
Q 1759 2797 1509 2797 
z
M 934 0 
Q 788 -159 713 -296 
Q 638 -434 638 -550 
Q 638 -700 819 -813 
Q 1131 -1006 1722 -1006 
Q 2284 -1006 2551 -807 
Q 2819 -609 2819 -384 
Q 2819 -222 2659 -153 
Q 2497 -84 2016 -72 
Q 1313 -53 934 0 
z
" id="TimesNewRomanPSMT-67" transform="scale(0.015625)"/>
      </defs>
      <use xlink:href="#TimesNewRomanPSMT-56"/>
      <use x="59.341797" xlink:href="#TimesNewRomanPSMT-6f"/>
      <use x="109.341797" xlink:href="#TimesNewRomanPSMT-6c"/>
      <use x="137.125" xlink:href="#TimesNewRomanPSMT-61"/>
      <use x="181.509766" xlink:href="#TimesNewRomanPSMT-74"/>
      <use x="209.292969" xlink:href="#TimesNewRomanPSMT-61"/>
      <use x="253.677734" xlink:href="#TimesNewRomanPSMT-67"/>
      <use x="303.677734" xlink:href="#TimesNewRomanPSMT-65"/>
      <use x="348.0625" xlink:href="#TimesNewRomanPSMT-20"/>
      <use x="373.0625" xlink:href="#TimesNewRomanPSMT-28"/>
      <use x="406.363281" xlink:href="#TimesNewRomanPSMT-56"/>
      <use x="478.580078" xlink:href="#TimesNewRomanPSMT-29"/>
     </g>
    </g>
   </g>
   <g id="LineCollection_1">
    <path clip-path="url(#p871dd163a1)" d="M 78.555057 156.581093 
L 382.918693 156.581093 
" style="fill:none;stroke:#1f77b4;stroke-width:1.5;"/>
   </g>
   <g id="line2d_27">
    <path clip-path="url(#p871dd163a1)" d="M 78.555057 156.52734 
L 78.707239 156.52734 
L 78.85942 156.52734 
L 81.87262 156.585138 
L 82.024802 156.642937 
L 85.007566 156.585138 
L 85.038002 156.52734 
L 85.129311 156.585138 
L 85.342366 156.52734 
L 85.494548 156.585138 
L 85.677166 156.556239 
L 109.99582 156.498441 
L 110.026257 156.440643 
L 110.117566 156.498441 
L 110.269748 156.498441 
L 115.048257 156.585138 
L 115.261311 156.642937 
L 115.413493 156.642937 
L 116.02222 156.700735 
L 116.143966 156.758533 
L 116.296148 156.758533 
L 116.44833 156.787432 
L 116.600511 156.787432 
L 117.239675 156.874129 
L 117.422293 156.903028 
L 118.244075 156.989726 
L 118.426693 157.018625 
L 119.096293 157.076423 
L 119.187602 157.105322 
L 119.218039 157.076423 
L 119.644148 157.105322 
L 119.674584 157.192019 
L 119.765893 157.134221 
L 119.948511 157.192019 
L 120.100693 157.16312 
L 120.283311 157.192019 
L 120.46593 157.16312 
L 120.587675 157.192019 
L 120.70942 157.192019 
L 120.892039 157.220918 
L 122.079057 157.307615 
L 122.261675 157.336515 
L 122.839966 157.423212 
L 123.05302 157.509909 
L 123.174766 157.509909 
L 123.38782 157.567707 
L 123.509566 157.567707 
L 123.753057 157.654404 
L 124.118293 157.741102 
L 124.331348 157.827799 
L 124.453093 157.827799 
L 124.72702 157.943395 
L 124.848766 157.972294 
L 125.000948 158.030093 
L 125.183566 158.087891 
L 125.366184 158.232386 
L 125.579239 158.319083 
L 126.096657 158.665872 
L 126.218402 158.75257 
L 126.461893 158.983762 
L 127.16193 159.792937 
L 128.014148 161.180093 
L 128.16633 161.440185 
L 128.50113 162.075964 
L 129.109857 163.46312 
L 131.727384 171.236974 
L 132.701348 174.50257 
L 134.284039 179.328717 
L 134.923202 181.322754 
L 136.323275 184.992937 
L 136.384148 185.079634 
L 136.597202 185.426423 
L 137.084184 186.120001 
L 137.936402 186.78468 
L 138.088584 186.871378 
L 138.392948 187.015873 
L 138.910366 186.929176 
L 139.092984 186.78468 
L 139.21473 186.697983 
L 139.914766 185.888809 
L 140.827857 183.605781 
L 140.980039 183.114497 
L 142.258366 177.854863 
L 144.541093 164.214496 
L 146.093348 151.585597 
L 149.015239 122.80211 
L 153.915493 72.777799 
L 155.254693 62.287432 
L 156.472148 54.889262 
L 157.567857 50.207608 
L 158.237457 48.589267 
L 158.328766 48.502565 
L 158.511384 48.271377 
L 158.602693 48.184673 
L 158.937493 47.982381 
L 159.089675 47.982381 
L 159.241857 48.011285 
L 159.394039 48.184673 
L 159.454911 48.271377 
L 159.759275 48.647067 
L 160.002766 49.138347 
L 160.489748 50.294313 
L 160.88542 51.739264 
L 161.88982 57.027797 
L 162.711602 63.154402 
L 164.142111 77.777336 
L 164.963893 88.325504 
L 166.546584 112.369543 
L 168.433639 146.499359 
L 169.742402 172.046148 
L 172.207748 221.261289 
L 174.338293 259.639267 
L 176.103602 286.342024 
L 177.442802 302.7278 
L 178.873311 315.27 
L 179.786402 320.645225 
L 180.334257 322.725961 
L 180.547311 323.332856 
L 180.912548 324.286511 
L 180.97342 324.344319 
L 181.156039 324.604404 
L 181.39953 324.72 
L 181.64302 324.633307 
L 181.764766 324.604404 
L 181.916948 324.517709 
L 182.282184 324.055333 
L 183.499639 319.026885 
L 184.717093 310.212665 
L 185.356257 304.548451 
L 187.42593 279.753033 
L 188.856439 257.876423 
L 190.621748 225.827344 
L 192.387057 190.194772 
L 196.46553 111.011284 
L 198.504766 78.037428 
L 199.448293 65.379629 
L 200.270075 55.236058 
L 201.883202 39.514948 
L 203.07022 31.336512 
L 203.587639 28.591099 
L 203.770257 27.753025 
L 204.531166 24.660826 
L 205.109457 23.331463 
L 205.687748 22.464493 
L 205.992111 22.32 
L 206.205166 22.406695 
L 206.326911 22.406695 
L 206.600839 22.522291 
L 206.783457 22.608986 
L 207.209566 23.158073 
L 207.666111 24.227337 
L 208.122657 25.527796 
L 208.274839 26.047979 
L 208.51833 27.030548 
L 209.827093 33.764032 
L 210.801057 39.948436 
L 212.231566 50.149819 
L 215.275202 77.083763 
L 216.979639 93.729632 
L 220.053711 121.906239 
L 220.936366 129.448899 
L 221.605966 134.79523 
L 224.071311 152.683762 
L 225.623566 160.891102 
L 227.084511 167.306699 
L 229.002002 174.18468 
L 229.245493 174.878259 
L 229.458548 175.398442 
L 230.980366 179.444313 
L 231.102111 179.704405 
L 231.436911 180.571377 
L 231.893457 181.871836 
L 232.897857 185.050735 
L 233.445711 187.131469 
L 234.54142 191.726424 
L 234.96753 193.575963 
L 235.150148 194.414038 
L 236.702402 202.303488 
L 237.828548 208.112204 
L 238.102475 209.55716 
L 238.832948 213.747525 
L 239.106875 215.221376 
L 241.480911 228.110372 
L 241.967893 230.393399 
L 243.215784 235.797528 
L 243.824511 238.542941 
L 244.402802 240.768168 
L 245.102839 243.022301 
L 245.711566 243.947069 
L 246.442039 244.525053 
L 246.807275 244.32275 
L 246.898584 244.264962 
L 247.172511 243.947069 
L 247.26382 243.918166 
L 247.476875 243.600276 
L 247.537748 243.542475 
L 248.26822 241.95303 
L 248.542148 241.143858 
L 248.785639 240.450278 
L 249.303057 238.687434 
L 250.824875 230.942477 
L 252.742366 217.504404 
L 255.085966 196.523671 
L 260.107966 149.880551 
L 261.112366 142.251194 
L 261.964584 136.615873 
L 262.695057 132.483303 
L 263.486402 128.581927 
L 263.699457 127.657156 
L 265.799566 120.085594 
L 266.34742 118.814034 
L 266.925711 117.484676 
L 267.077893 117.224589 
L 267.35182 116.762199 
L 267.382257 116.791101 
L 267.44313 116.704406 
L 267.808366 116.242016 
L 268.873639 115.375046 
L 269.086693 115.288348 
L 269.36062 115.172754 
L 269.817166 115.114954 
L 269.938911 115.086055 
L 270.334584 115.172754 
L 271.521602 116.444314 
L 272.70862 118.929633 
L 273.408657 120.634679 
L 273.530402 120.865872 
L 274.078257 122.108532 
L 274.565239 123.206697 
L 274.778293 123.75578 
L 275.295711 124.969541 
L 275.995748 126.674587 
L 276.117493 126.934679 
L 276.847966 128.697523 
L 277.213202 129.622294 
L 277.548002 130.460367 
L 278.613275 133.176881 
L 279.465493 135.026422 
L 279.891602 135.922294 
L 280.043784 136.211285 
L 280.378584 136.847065 
L 280.622075 137.222753 
L 280.956875 137.858533 
L 282.996111 141.528716 
L 283.056984 141.586514 
L 283.51353 142.251194 
L 283.574402 142.308992 
L 283.75702 142.597982 
L 284.18313 143.175964 
L 284.213566 143.147064 
L 284.244002 143.262661 
L 284.365748 143.349358 
L 285.065784 144.158533 
L 285.278839 144.331927 
L 285.76582 144.649817 
L 285.948439 144.707615 
L 286.161493 144.881009 
L 286.313675 144.881009 
L 286.465857 144.938808 
L 286.648475 144.996606 
L 286.831093 144.938808 
L 287.013711 144.967707 
L 287.19633 144.938808 
L 287.500693 144.852111 
L 287.805057 144.707615 
L 287.957239 144.707615 
L 288.10942 144.620918 
L 288.505093 144.389725 
L 288.626839 144.303028 
L 288.87033 144.071835 
L 289.022511 143.985138 
L 289.235566 143.811744 
L 289.387748 143.725046 
L 290.270402 142.742478 
L 290.54433 142.453486 
L 290.970439 141.904404 
L 291.487857 141.124129 
L 291.518293 141.124129 
L 291.700911 140.864037 
L 292.309639 139.939266 
L 292.46182 139.650275 
L 293.709711 137.078257 
L 294.044511 136.211285 
L 294.440184 135.228715 
L 296.631602 128.697523 
L 296.935966 127.599358 
L 297.605566 125.374128 
L 298.640402 121.84844 
L 298.701275 121.732844 
L 299.066511 120.490186 
L 301.288366 114.479172 
L 302.444948 112.485137 
L 302.59713 112.398438 
L 303.023239 112.138351 
L 303.753711 112.225046 
L 304.94073 113.496605 
L 305.579893 114.941557 
L 306.61473 118.178257 
L 308.471348 127.483762 
L 309.62793 135.864495 
L 311.697602 154.504405 
L 318.515348 224.584679 
L 320.158911 236.288808 
L 321.01113 240.854863 
L 321.58942 243.513581 
L 322.411202 246.201193 
L 323.385166 247.819544 
L 323.811275 247.848448 
L 323.93302 247.906237 
L 324.085202 247.848448 
L 324.26782 247.790647 
L 324.541748 247.501652 
L 324.876548 247.039269 
L 326.063566 244.553948 
L 326.580984 242.993397 
L 326.763602 242.415413 
L 327.341893 240.190186 
L 327.95062 237.444773 
L 328.802839 232.907615 
L 329.685493 227.734681 
L 330.05073 225.509452 
L 330.933384 219.642938 
L 331.816039 213.053947 
L 333.124802 202.274589 
L 340.520839 140.025964 
L 344.264511 112.398438 
L 344.873239 108.294773 
L 345.634148 103.324128 
L 347.399457 93.903027 
L 348.495166 89.221378 
L 350.04742 83.730554 
L 350.13873 83.528251 
L 350.503966 82.574589 
L 350.625711 82.314494 
L 351.112693 81.245224 
L 352.604075 78.61541 
L 352.664948 78.528717 
L 354.278075 77.141563 
L 354.430257 77.141563 
L 355.130293 77.199352 
L 355.312911 77.343854 
L 355.465093 77.430549 
L 356.378184 78.442013 
L 357.808693 81.389726 
L 359.634875 86.909451 
L 361.18713 93.238348 
L 364.626439 110.086516 
L 366.665675 122.339725 
L 369.952802 143.493854 
L 370.13542 144.620918 
L 372.205093 157.654404 
L 373.118184 163.46312 
L 373.848657 168.173671 
L 374.792184 174.155781 
L 375.431348 178.172754 
L 380.331602 210.019543 
L 382.918693 224.844771 
L 382.918693 224.844771 
" style="fill:none;stroke:#0000ff;stroke-linecap:square;stroke-width:1.5;"/>
   </g>
   <g id="line2d_28">
    <path clip-path="url(#p871dd163a1)" d="M 78.555057 156.604212 
L 78.85942 156.633111 
L 79.133348 156.618661 
L 85.098875 156.517515 
L 85.372802 156.503065 
L 85.64673 156.517515 
L 85.920657 156.503065 
L 88.264257 156.401918 
L 88.538184 156.387469 
L 98.186511 156.286322 
L 98.460439 156.271872 
L 101.412766 156.373019 
L 101.686693 156.488615 
L 101.838875 156.531964 
L 102.082366 156.633111 
L 102.843275 157.109946 
L 103.908548 158.25146 
L 104.486839 159.118432 
L 104.699893 159.450772 
L 105.034693 160.101001 
L 105.30862 160.678983 
L 106.891311 164.710404 
L 108.74793 170.331277 
L 110.452366 175.634258 
L 112.826402 181.009488 
L 113.34382 181.645267 
L 113.739493 182.020955 
L 114.226475 182.367744 
L 114.469966 182.454442 
L 114.835202 182.396644 
L 115.10913 182.295497 
L 115.474366 182.093203 
L 115.656984 182.006506 
L 116.143966 181.414075 
L 116.844002 180.026919 
L 117.36142 178.813157 
L 119.248475 172.166368 
L 120.587675 165.967515 
L 121.866002 158.728294 
L 123.996548 144.900084 
L 125.427057 135.493432 
L 127.131493 125.667743 
L 128.957675 115.885401 
L 129.444657 113.602374 
L 130.296875 110.437924 
L 131.118657 107.721412 
L 131.483893 106.796644 
L 132.731784 103.010864 
L 134.040548 100.164302 
L 135.349311 98.112465 
L 135.623239 97.736779 
L 135.988475 97.404442 
L 136.231966 97.202144 
L 136.627639 96.667513 
L 137.327675 96.132882 
L 138.45382 96.219577 
L 138.727748 96.624167 
L 140.401748 100.857883 
L 141.832257 105.973016 
L 142.775784 110.466825 
L 144.541093 122.026459 
L 147.24993 143.41178 
L 148.954366 159.783111 
L 153.763311 206.628525 
L 155.132948 217.378982 
L 156.502584 225.774167 
L 157.993966 232.319808 
L 158.937493 234.675085 
L 159.850584 236.177837 
L 160.21582 236.394581 
L 160.64193 236.495727 
L 160.854984 236.495727 
L 161.341966 236.148941 
L 161.950693 235.20972 
L 162.163748 234.862927 
L 162.620293 233.764769 
L 163.594257 230.152376 
L 164.507348 225.311782 
L 165.846548 216.381965 
L 167.58142 201.513387 
L 172.238184 158.352606 
L 174.855711 136.909487 
L 176.164475 128.369807 
L 176.986257 123.977147 
L 177.594984 121.231734 
L 178.142839 119.353293 
L 179.360293 116.737929 
L 179.908148 115.9143 
L 180.608184 115.105131 
L 180.912548 114.859486 
L 181.369093 114.946186 
L 182.130002 115.798706 
L 182.769166 117.24366 
L 183.621384 119.714532 
L 183.804002 120.278064 
L 184.595348 123.283569 
L 187.486802 136.114762 
L 188.856439 143.151688 
L 190.530439 152.067056 
L 194.943711 172.513157 
L 195.491566 174.695038 
L 196.282911 177.917285 
L 197.287311 181.096185 
L 197.622111 181.977607 
L 198.687384 183.7838 
L 199.326548 183.986093 
L 200.209202 183.003524 
L 200.878802 181.500772 
L 201.670148 179.34779 
L 202.309311 177.194809 
L 203.313711 172.961092 
L 204.378984 166.848937 
L 205.657311 159.089533 
L 207.574802 147.529899 
L 209.52273 133.860633 
L 210.709748 125.682193 
L 212.748984 113.79022 
L 213.87513 108.487241 
L 214.757784 104.817055 
L 215.914366 101.349167 
L 216.370911 100.53999 
L 216.79702 99.947561 
L 218.13622 98.820495 
L 219.171057 98.907194 
L 219.779784 99.369577 
L 219.90153 99.427378 
L 220.510257 99.831963 
L 220.81462 100.193201 
L 220.997239 100.395493 
L 221.423348 100.973477 
L 221.697275 101.378061 
L 222.48862 102.996412 
L 222.884293 103.747789 
L 223.462584 105.077146 
L 224.314802 107.360174 
L 228.088911 120.278064 
L 230.767311 130.869578 
L 231.497784 134.106275 
L 232.502184 139.380358 
L 234.724039 153.786551 
L 239.015566 185.575543 
L 241.511348 200.328527 
L 242.546184 205.226919 
L 243.520148 209.31614 
L 245.742002 217.335635 
L 247.202948 220.543436 
L 248.481275 222.176234 
L 249.485675 222.537472 
L 249.668293 222.55192 
L 249.94222 222.566372 
L 250.642257 222.349626 
L 251.311857 222.248479 
L 252.194511 221.713844 
L 253.259784 220.557883 
L 254.142439 219.488617 
L 254.994657 218.534947 
L 255.29902 218.173709 
L 255.96862 217.393433 
L 256.820839 216.353066 
L 257.155639 216.078527 
L 258.007857 215.413846 
L 258.220911 215.312699 
L 258.525275 215.168206 
L 259.31662 214.676922 
L 259.864475 214.301231 
L 260.351457 213.95444 
L 262.08633 212.162702 
L 263.638584 208.998247 
L 265.67782 202.871646 
L 266.530039 198.753525 
L 268.325784 187.901919 
L 269.238875 181.110634 
L 271.065057 165.47623 
L 271.917275 157.29779 
L 274.80873 124.540679 
L 278.856766 75.932426 
L 280.682948 57.19137 
L 282.265639 44.605815 
L 283.17873 39.273936 
L 283.726584 36.990909 
L 284.213566 35.387009 
L 284.85273 34.115445 
L 285.43102 33.696408 
L 285.918002 33.797555 
L 286.404984 34.404441 
L 286.952839 35.661544 
L 287.470257 37.467743 
L 288.170293 40.935633 
L 289.296439 48.55054 
L 290.513893 58.62187 
L 292.21833 75.845721 
L 295.14022 108.964073 
L 301.25793 177.426001 
L 303.297166 195.733573 
L 304.118948 201.498935 
L 305.18422 207.379901 
L 307.253893 216.670956 
L 307.832184 218.636094 
L 308.501784 220.760177 
L 309.749675 223.996872 
L 310.327966 225.311782 
L 311.484548 227.27692 
L 311.758475 227.493663 
L 312.732439 227.869351 
L 313.736839 226.785635 
L 314.619493 224.907193 
L 317.206584 215.93403 
L 318.058802 211.81591 
L 320.554584 198.20444 
L 321.954657 189.635864 
L 327.28102 157.442285 
L 329.776802 144.98678 
L 330.476839 142.183569 
L 332.181275 136.895037 
L 332.97262 135.26224 
L 333.155239 134.944349 
L 333.520475 134.337468 
L 334.190075 133.571642 
L 335.194475 133.195954 
L 335.894511 133.441597 
L 335.98582 133.456046 
L 336.198875 133.571642 
L 337.446766 134.26522 
L 337.75113 134.525311 
L 338.055493 134.785403 
L 339.242511 136.042513 
L 339.638184 136.562697 
L 341.890475 139.582652 
L 343.320984 140.796413 
L 343.929711 141.201001 
L 344.386257 141.489991 
L 344.903675 141.85123 
L 345.238475 142.140221 
L 345.847202 142.573707 
L 346.851602 142.934946 
L 347.582075 142.833798 
L 351.47793 141.099853 
L 353.882402 141.186551 
L 354.095457 141.302147 
L 354.552002 141.620037 
L 354.856366 141.865679 
L 355.617275 142.718202 
L 356.07382 143.368432 
L 356.986911 144.3799 
L 357.321711 144.798936 
L 357.808693 145.391367 
L 358.204366 145.94045 
L 358.295675 146.070496 
L 359.269639 147.688845 
L 360.060984 148.628065 
L 361.491493 150.116368 
L 361.76542 150.506505 
L 364.10902 153.656505 
L 364.596002 154.263386 
L 365.752584 155.72279 
L 366.909166 156.676459 
L 367.304839 156.748707 
L 367.517893 156.763157 
L 367.670075 156.806505 
L 369.070148 156.705359 
L 369.496257 156.387469 
L 370.744148 154.422331 
L 374.48782 147.096413 
L 374.853057 146.373936 
L 377.988002 140.189533 
L 378.748911 138.657881 
L 379.144584 137.906505 
L 381.457748 133.745037 
L 381.670802 133.412697 
L 382.27953 132.487927 
L 382.52302 132.126688 
L 382.918693 131.548707 
L 382.918693 131.548707 
" style="fill:none;stroke:#ff0000;stroke-linecap:square;stroke-width:1.5;"/>
   </g>
   <g id="line2d_29">
    <path clip-path="url(#p871dd163a1)" d="M 129.74902 165.023671 
" style="fill:none;stroke:#ffffff;stroke-linecap:square;stroke-width:1.5;"/>
    <defs>
     <path d="M 0 -5 
L -1.12257 -1.545085 
L -4.755283 -1.545085 
L -1.816356 0.59017 
L -2.938926 4.045085 
L -0 1.90983 
L 2.938926 4.045085 
L 1.816356 0.59017 
L 4.755283 -1.545085 
L 1.12257 -1.545085 
z
" id="m753749f2b4" style="stroke:#ffffff;stroke-linejoin:bevel;"/>
    </defs>
    <g clip-path="url(#p871dd163a1)">
     <use style="fill:#0000ff;stroke:#ffffff;stroke-linejoin:bevel;" x="129.74902" xlink:href="#m753749f2b4" y="165.023671"/>
    </g>
   </g>
   <g id="line2d_30">
    <path clip-path="url(#p871dd163a1)" d="M 106.191275 162.759717 
" style="fill:none;stroke:#ffffff;stroke-linecap:square;stroke-width:1.5;"/>
    <defs>
     <path d="M 0 -5 
L -1.12257 -1.545085 
L -4.755283 -1.545085 
L -1.816356 0.59017 
L -2.938926 4.045085 
L -0 1.90983 
L 2.938926 4.045085 
L 1.816356 0.59017 
L 4.755283 -1.545085 
L 1.12257 -1.545085 
z
" id="m063f07bbce" style="stroke:#ffffff;stroke-linejoin:bevel;"/>
    </defs>
    <g clip-path="url(#p871dd163a1)">
     <use style="fill:#ff0000;stroke:#ffffff;stroke-linejoin:bevel;" x="106.191275" xlink:href="#m063f07bbce" y="162.759717"/>
    </g>
   </g>
   <g id="patch_3">
    <path d="M 63.336875 339.84 
L 63.336875 7.2 
" style="fill:none;stroke:#000000;stroke-linecap:square;stroke-linejoin:miter;stroke-width:0.8;"/>
   </g>
   <g id="patch_4">
    <path d="M 398.136875 339.84 
L 398.136875 7.2 
" style="fill:none;stroke:#000000;stroke-linecap:square;stroke-linejoin:miter;stroke-width:0.8;"/>
   </g>
   <g id="patch_5">
    <path d="M 63.336875 339.84 
L 398.136875 339.84 
" style="fill:none;stroke:#000000;stroke-linecap:square;stroke-linejoin:miter;stroke-width:0.8;"/>
   </g>
   <g id="patch_6">
    <path d="M 63.336875 7.2 
L 398.136875 7.2 
" style="fill:none;stroke:#000000;stroke-linecap:square;stroke-linejoin:miter;stroke-width:0.8;"/>
   </g>
   <g id="text_16">
    <g id="patch_7">
     <path d="M 75.036875 331.242688 
L 166.79375 331.242688 
L 166.79375 293.760312 
L 75.036875 293.760312 
z
" style="fill:#ffffff;stroke:#000000;stroke-linejoin:miter;stroke-width:0.75;"/>
    </g>
    <!-- Auto_00034 -->
    <g transform="translate(80.076875 308.521563)scale(0.14 -0.14)">
     <defs>
      <path d="M 2928 1419 
L 1288 1419 
L 1000 750 
Q 894 503 894 381 
Q 894 284 986 211 
Q 1078 138 1384 116 
L 1384 0 
L 50 0 
L 50 116 
Q 316 163 394 238 
Q 553 388 747 847 
L 2238 4334 
L 2347 4334 
L 3822 809 
Q 4000 384 4145 257 
Q 4291 131 4550 116 
L 4550 0 
L 2878 0 
L 2878 116 
Q 3131 128 3220 200 
Q 3309 272 3309 375 
Q 3309 513 3184 809 
L 2928 1419 
z
M 2841 1650 
L 2122 3363 
L 1384 1650 
L 2841 1650 
z
" id="TimesNewRomanPSMT-41" transform="scale(0.015625)"/>
      <path d="M 2709 2863 
L 2709 1128 
Q 2709 631 2732 520 
Q 2756 409 2807 365 
Q 2859 322 2928 322 
Q 3025 322 3147 375 
L 3191 266 
L 2334 -88 
L 2194 -88 
L 2194 519 
Q 1825 119 1631 15 
Q 1438 -88 1222 -88 
Q 981 -88 804 51 
Q 628 191 559 409 
Q 491 628 491 1028 
L 491 2306 
Q 491 2509 447 2587 
Q 403 2666 317 2708 
Q 231 2750 6 2747 
L 6 2863 
L 1009 2863 
L 1009 947 
Q 1009 547 1148 422 
Q 1288 297 1484 297 
Q 1619 297 1789 381 
Q 1959 466 2194 703 
L 2194 2325 
Q 2194 2569 2105 2655 
Q 2016 2741 1734 2747 
L 1734 2863 
L 2709 2863 
z
" id="TimesNewRomanPSMT-75" transform="scale(0.015625)"/>
      <path d="M 3256 -1381 
L -53 -1381 
L -53 -1119 
L 3256 -1119 
L 3256 -1381 
z
" id="TimesNewRomanPSMT-5f" transform="scale(0.015625)"/>
     </defs>
     <use xlink:href="#TimesNewRomanPSMT-41"/>
     <use x="72.216797" xlink:href="#TimesNewRomanPSMT-75"/>
     <use x="122.216797" xlink:href="#TimesNewRomanPSMT-74"/>
     <use x="150" xlink:href="#TimesNewRomanPSMT-6f"/>
     <use x="200" xlink:href="#TimesNewRomanPSMT-5f"/>
     <use x="250" xlink:href="#TimesNewRomanPSMT-30"/>
     <use x="300" xlink:href="#TimesNewRomanPSMT-30"/>
     <use x="350" xlink:href="#TimesNewRomanPSMT-30"/>
     <use x="400" xlink:href="#TimesNewRomanPSMT-33"/>
     <use x="450" xlink:href="#TimesNewRomanPSMT-34"/>
    </g>
    <!-- Vs: 258.26m/s -->
    <g transform="translate(80.076875 323.208)scale(0.14 -0.14)">
     <defs>
      <path d="M 903 2950 
Q 1047 2950 1148 2848 
Q 1250 2747 1250 2603 
Q 1250 2459 1148 2357 
Q 1047 2256 903 2256 
Q 759 2256 657 2357 
Q 556 2459 556 2603 
Q 556 2747 657 2848 
Q 759 2950 903 2950 
z
M 897 609 
Q 1044 609 1145 506 
Q 1247 403 1247 259 
Q 1247 116 1144 14 
Q 1041 -88 897 -88 
Q 753 -88 651 14 
Q 550 116 550 259 
Q 550 403 651 506 
Q 753 609 897 609 
z
" id="TimesNewRomanPSMT-3a" transform="scale(0.015625)"/>
      <path d="M 1228 2134 
Q 725 2547 579 2797 
Q 434 3047 434 3316 
Q 434 3728 753 4026 
Q 1072 4325 1600 4325 
Q 2113 4325 2425 4047 
Q 2738 3769 2738 3413 
Q 2738 3175 2569 2928 
Q 2400 2681 1866 2347 
Q 2416 1922 2594 1678 
Q 2831 1359 2831 1006 
Q 2831 559 2490 242 
Q 2150 -75 1597 -75 
Q 994 -75 656 303 
Q 388 606 388 966 
Q 388 1247 577 1523 
Q 766 1800 1228 2134 
z
M 1719 2469 
Q 2094 2806 2194 3001 
Q 2294 3197 2294 3444 
Q 2294 3772 2109 3958 
Q 1925 4144 1606 4144 
Q 1288 4144 1088 3959 
Q 888 3775 888 3528 
Q 888 3366 970 3203 
Q 1053 3041 1206 2894 
L 1719 2469 
z
M 1375 2016 
Q 1116 1797 991 1539 
Q 866 1281 866 981 
Q 866 578 1086 336 
Q 1306 94 1647 94 
Q 1984 94 2187 284 
Q 2391 475 2391 747 
Q 2391 972 2272 1150 
Q 2050 1481 1375 2016 
z
" id="TimesNewRomanPSMT-38" transform="scale(0.015625)"/>
      <path d="M 1794 4444 
L 259 -88 
L 9 -88 
L 1544 4444 
L 1794 4444 
z
" id="TimesNewRomanPSMT-2f" transform="scale(0.015625)"/>
     </defs>
     <use xlink:href="#TimesNewRomanPSMT-56"/>
     <use x="72.216797" xlink:href="#TimesNewRomanPSMT-73"/>
     <use x="111.132812" xlink:href="#TimesNewRomanPSMT-3a"/>
     <use x="138.916016" xlink:href="#TimesNewRomanPSMT-20"/>
     <use x="163.916016" xlink:href="#TimesNewRomanPSMT-32"/>
     <use x="213.916016" xlink:href="#TimesNewRomanPSMT-35"/>
     <use x="263.916016" xlink:href="#TimesNewRomanPSMT-38"/>
     <use x="313.916016" xlink:href="#TimesNewRomanPSMT-2e"/>
     <use x="338.916016" xlink:href="#TimesNewRomanPSMT-32"/>
     <use x="388.916016" xlink:href="#TimesNewRomanPSMT-36"/>
     <use x="438.916016" xlink:href="#TimesNewRomanPSMT-6d"/>
     <use x="516.699219" xlink:href="#TimesNewRomanPSMT-2f"/>
     <use x="544.482422" xlink:href="#TimesNewRomanPSMT-73"/>
    </g>
   </g>
  </g>
 </g>
 <defs>
  <clipPath id="p871dd163a1">
   <rect height="332.64" width="334.8" x="63.336875" y="7.2"/>
  </clipPath>
 </defs>
</svg>
