<?xml version="1.0" encoding="utf-8" standalone="no"?>
<!DOCTYPE svg PUBLIC "-//W3C//DTD SVG 1.1//EN"
  "http://www.w3.org/Graphics/SVG/1.1/DTD/svg11.dtd">
<svg height="383.471875pt" version="1.1" viewBox="0 0 421.086875 383.471875" width="421.086875pt" xmlns="http://www.w3.org/2000/svg" xmlns:xlink="http://www.w3.org/1999/xlink">
 <metadata>
  <rdf:RDF xmlns:cc="http://creativecommons.org/ns#" xmlns:dc="http://purl.org/dc/elements/1.1/" xmlns:rdf="http://www.w3.org/1999/02/22-rdf-syntax-ns#">
   <cc:Work>
    <dc:type rdf:resource="http://purl.org/dc/dcmitype/StillImage"/>
    <dc:date>2021-06-11T14:39:37.955113</dc:date>
    <dc:format>image/svg+xml</dc:format>
    <dc:creator>
     <cc:Agent>
      <dc:title>Matplotlib v3.4.2, https://matplotlib.org/</dc:title>
     </cc:Agent>
    </dc:creator>
   </cc:Work>
  </rdf:RDF>
 </metadata>
 <defs>
  <style type="text/css">*{stroke-linecap:butt;stroke-linejoin:round;}</style>
 </defs>
 <g id="figure_1">
  <g id="patch_1">
   <path d="M 0 383.471875 
L 421.086875 383.471875 
L 421.086875 0 
L 0 0 
z
" style="fill:#ffffff;"/>
  </g>
  <g id="axes_1">
   <g id="patch_2">
    <path d="M 63.336875 339.84 
L 398.136875 339.84 
L 398.136875 7.2 
L 63.336875 7.2 
z
" style="fill:#ffffff;"/>
   </g>
   <g id="matplotlib.axis_1">
    <g id="xtick_1">
     <g id="line2d_1">
      <path clip-path="url(#p0964583a5e)" d="M 93.773239 339.84 
L 93.773239 7.2 
" style="fill:none;stroke:#000000;stroke-dasharray:0.5,0.825;stroke-dashoffset:0;stroke-width:0.5;"/>
     </g>
     <g id="line2d_2">
      <defs>
       <path d="M 0 0 
L 0 3.5 
" id="m5746e0c9ef" style="stroke:#000000;stroke-width:0.8;"/>
      </defs>
      <g>
       <use style="stroke:#000000;stroke-width:0.8;" x="93.773239" xlink:href="#m5746e0c9ef" y="339.84"/>
      </g>
     </g>
     <g id="text_1">
      <!-- 0.000 -->
      <g transform="translate(78.023239 356.56125)scale(0.14 -0.14)">
       <defs>
        <path d="M 231 2094 
Q 231 2819 450 3342 
Q 669 3866 1031 4122 
Q 1313 4325 1613 4325 
Q 2100 4325 2488 3828 
Q 2972 3213 2972 2159 
Q 2972 1422 2759 906 
Q 2547 391 2217 158 
Q 1888 -75 1581 -75 
Q 975 -75 572 641 
Q 231 1244 231 2094 
z
M 844 2016 
Q 844 1141 1059 588 
Q 1238 122 1591 122 
Q 1759 122 1940 273 
Q 2122 425 2216 781 
Q 2359 1319 2359 2297 
Q 2359 3022 2209 3506 
Q 2097 3866 1919 4016 
Q 1791 4119 1609 4119 
Q 1397 4119 1231 3928 
Q 1006 3669 925 3112 
Q 844 2556 844 2016 
z
" id="TimesNewRomanPSMT-30" transform="scale(0.015625)"/>
        <path d="M 800 606 
Q 947 606 1047 504 
Q 1147 403 1147 259 
Q 1147 116 1045 14 
Q 944 -88 800 -88 
Q 656 -88 554 14 
Q 453 116 453 259 
Q 453 406 554 506 
Q 656 606 800 606 
z
" id="TimesNewRomanPSMT-2e" transform="scale(0.015625)"/>
       </defs>
       <use xlink:href="#TimesNewRomanPSMT-30"/>
       <use x="50" xlink:href="#TimesNewRomanPSMT-2e"/>
       <use x="75" xlink:href="#TimesNewRomanPSMT-30"/>
       <use x="125" xlink:href="#TimesNewRomanPSMT-30"/>
       <use x="175" xlink:href="#TimesNewRomanPSMT-30"/>
      </g>
     </g>
    </g>
    <g id="xtick_2">
     <g id="line2d_3">
      <path clip-path="url(#p0964583a5e)" d="M 154.645966 339.84 
L 154.645966 7.2 
" style="fill:none;stroke:#000000;stroke-dasharray:0.5,0.825;stroke-dashoffset:0;stroke-width:0.5;"/>
     </g>
     <g id="line2d_4">
      <g>
       <use style="stroke:#000000;stroke-width:0.8;" x="154.645966" xlink:href="#m5746e0c9ef" y="339.84"/>
      </g>
     </g>
     <g id="text_2">
      <!-- 0.001 -->
      <g transform="translate(138.895966 356.56125)scale(0.14 -0.14)">
       <defs>
        <path d="M 750 3822 
L 1781 4325 
L 1884 4325 
L 1884 747 
Q 1884 391 1914 303 
Q 1944 216 2037 169 
Q 2131 122 2419 116 
L 2419 0 
L 825 0 
L 825 116 
Q 1125 122 1212 167 
Q 1300 213 1334 289 
Q 1369 366 1369 747 
L 1369 3034 
Q 1369 3497 1338 3628 
Q 1316 3728 1258 3775 
Q 1200 3822 1119 3822 
Q 1003 3822 797 3725 
L 750 3822 
z
" id="TimesNewRomanPSMT-31" transform="scale(0.015625)"/>
       </defs>
       <use xlink:href="#TimesNewRomanPSMT-30"/>
       <use x="50" xlink:href="#TimesNewRomanPSMT-2e"/>
       <use x="75" xlink:href="#TimesNewRomanPSMT-30"/>
       <use x="125" xlink:href="#TimesNewRomanPSMT-30"/>
       <use x="175" xlink:href="#TimesNewRomanPSMT-31"/>
      </g>
     </g>
    </g>
    <g id="xtick_3">
     <g id="line2d_5">
      <path clip-path="url(#p0964583a5e)" d="M 215.518693 339.84 
L 215.518693 7.2 
" style="fill:none;stroke:#000000;stroke-dasharray:0.5,0.825;stroke-dashoffset:0;stroke-width:0.5;"/>
     </g>
     <g id="line2d_6">
      <g>
       <use style="stroke:#000000;stroke-width:0.8;" x="215.518693" xlink:href="#m5746e0c9ef" y="339.84"/>
      </g>
     </g>
     <g id="text_3">
      <!-- 0.002 -->
      <g transform="translate(199.768693 356.56125)scale(0.14 -0.14)">
       <defs>
        <path d="M 2934 816 
L 2638 0 
L 138 0 
L 138 116 
Q 1241 1122 1691 1759 
Q 2141 2397 2141 2925 
Q 2141 3328 1894 3587 
Q 1647 3847 1303 3847 
Q 991 3847 742 3664 
Q 494 3481 375 3128 
L 259 3128 
Q 338 3706 661 4015 
Q 984 4325 1469 4325 
Q 1984 4325 2329 3994 
Q 2675 3663 2675 3213 
Q 2675 2891 2525 2569 
Q 2294 2063 1775 1497 
Q 997 647 803 472 
L 1909 472 
Q 2247 472 2383 497 
Q 2519 522 2628 598 
Q 2738 675 2819 816 
L 2934 816 
z
" id="TimesNewRomanPSMT-32" transform="scale(0.015625)"/>
       </defs>
       <use xlink:href="#TimesNewRomanPSMT-30"/>
       <use x="50" xlink:href="#TimesNewRomanPSMT-2e"/>
       <use x="75" xlink:href="#TimesNewRomanPSMT-30"/>
       <use x="125" xlink:href="#TimesNewRomanPSMT-30"/>
       <use x="175" xlink:href="#TimesNewRomanPSMT-32"/>
      </g>
     </g>
    </g>
    <g id="xtick_4">
     <g id="line2d_7">
      <path clip-path="url(#p0964583a5e)" d="M 276.39142 339.84 
L 276.39142 7.2 
" style="fill:none;stroke:#000000;stroke-dasharray:0.5,0.825;stroke-dashoffset:0;stroke-width:0.5;"/>
     </g>
     <g id="line2d_8">
      <g>
       <use style="stroke:#000000;stroke-width:0.8;" x="276.39142" xlink:href="#m5746e0c9ef" y="339.84"/>
      </g>
     </g>
     <g id="text_4">
      <!-- 0.003 -->
      <g transform="translate(260.64142 356.56125)scale(0.14 -0.14)">
       <defs>
        <path d="M 325 3431 
Q 506 3859 782 4092 
Q 1059 4325 1472 4325 
Q 1981 4325 2253 3994 
Q 2459 3747 2459 3466 
Q 2459 3003 1878 2509 
Q 2269 2356 2469 2072 
Q 2669 1788 2669 1403 
Q 2669 853 2319 450 
Q 1863 -75 997 -75 
Q 569 -75 414 31 
Q 259 138 259 259 
Q 259 350 332 419 
Q 406 488 509 488 
Q 588 488 669 463 
Q 722 447 909 348 
Q 1097 250 1169 231 
Q 1284 197 1416 197 
Q 1734 197 1970 444 
Q 2206 691 2206 1028 
Q 2206 1275 2097 1509 
Q 2016 1684 1919 1775 
Q 1784 1900 1550 2001 
Q 1316 2103 1072 2103 
L 972 2103 
L 972 2197 
Q 1219 2228 1467 2375 
Q 1716 2522 1828 2728 
Q 1941 2934 1941 3181 
Q 1941 3503 1739 3701 
Q 1538 3900 1238 3900 
Q 753 3900 428 3381 
L 325 3431 
z
" id="TimesNewRomanPSMT-33" transform="scale(0.015625)"/>
       </defs>
       <use xlink:href="#TimesNewRomanPSMT-30"/>
       <use x="50" xlink:href="#TimesNewRomanPSMT-2e"/>
       <use x="75" xlink:href="#TimesNewRomanPSMT-30"/>
       <use x="125" xlink:href="#TimesNewRomanPSMT-30"/>
       <use x="175" xlink:href="#TimesNewRomanPSMT-33"/>
      </g>
     </g>
    </g>
    <g id="xtick_5">
     <g id="line2d_9">
      <path clip-path="url(#p0964583a5e)" d="M 337.264148 339.84 
L 337.264148 7.2 
" style="fill:none;stroke:#000000;stroke-dasharray:0.5,0.825;stroke-dashoffset:0;stroke-width:0.5;"/>
     </g>
     <g id="line2d_10">
      <g>
       <use style="stroke:#000000;stroke-width:0.8;" x="337.264148" xlink:href="#m5746e0c9ef" y="339.84"/>
      </g>
     </g>
     <g id="text_5">
      <!-- 0.004 -->
      <g transform="translate(321.514148 356.56125)scale(0.14 -0.14)">
       <defs>
        <path d="M 2978 1563 
L 2978 1119 
L 2409 1119 
L 2409 0 
L 1894 0 
L 1894 1119 
L 100 1119 
L 100 1519 
L 2066 4325 
L 2409 4325 
L 2409 1563 
L 2978 1563 
z
M 1894 1563 
L 1894 3666 
L 406 1563 
L 1894 1563 
z
" id="TimesNewRomanPSMT-34" transform="scale(0.015625)"/>
       </defs>
       <use xlink:href="#TimesNewRomanPSMT-30"/>
       <use x="50" xlink:href="#TimesNewRomanPSMT-2e"/>
       <use x="75" xlink:href="#TimesNewRomanPSMT-30"/>
       <use x="125" xlink:href="#TimesNewRomanPSMT-30"/>
       <use x="175" xlink:href="#TimesNewRomanPSMT-34"/>
      </g>
     </g>
    </g>
    <g id="xtick_6">
     <g id="line2d_11">
      <path clip-path="url(#p0964583a5e)" d="M 398.136875 339.84 
L 398.136875 7.2 
" style="fill:none;stroke:#000000;stroke-dasharray:0.5,0.825;stroke-dashoffset:0;stroke-width:0.5;"/>
     </g>
     <g id="line2d_12">
      <g>
       <use style="stroke:#000000;stroke-width:0.8;" x="398.136875" xlink:href="#m5746e0c9ef" y="339.84"/>
      </g>
     </g>
     <g id="text_6">
      <!-- 0.005 -->
      <g transform="translate(382.386875 356.56125)scale(0.14 -0.14)">
       <defs>
        <path d="M 2778 4238 
L 2534 3706 
L 1259 3706 
L 981 3138 
Q 1809 3016 2294 2522 
Q 2709 2097 2709 1522 
Q 2709 1188 2573 903 
Q 2438 619 2231 419 
Q 2025 219 1772 97 
Q 1413 -75 1034 -75 
Q 653 -75 479 54 
Q 306 184 306 341 
Q 306 428 378 495 
Q 450 563 559 563 
Q 641 563 702 538 
Q 763 513 909 409 
Q 1144 247 1384 247 
Q 1750 247 2026 523 
Q 2303 800 2303 1197 
Q 2303 1581 2056 1914 
Q 1809 2247 1375 2428 
Q 1034 2569 447 2591 
L 1259 4238 
L 2778 4238 
z
" id="TimesNewRomanPSMT-35" transform="scale(0.015625)"/>
       </defs>
       <use xlink:href="#TimesNewRomanPSMT-30"/>
       <use x="50" xlink:href="#TimesNewRomanPSMT-2e"/>
       <use x="75" xlink:href="#TimesNewRomanPSMT-30"/>
       <use x="125" xlink:href="#TimesNewRomanPSMT-30"/>
       <use x="175" xlink:href="#TimesNewRomanPSMT-35"/>
      </g>
     </g>
    </g>
    <g id="text_7">
     <!-- Time (sec) -->
     <g transform="translate(200.858906 373.277188)scale(0.14 -0.14)">
      <defs>
       <path d="M 3703 4238 
L 3750 3244 
L 3631 3244 
Q 3597 3506 3538 3619 
Q 3441 3800 3280 3886 
Q 3119 3972 2856 3972 
L 2259 3972 
L 2259 734 
Q 2259 344 2344 247 
Q 2463 116 2709 116 
L 2856 116 
L 2856 0 
L 1059 0 
L 1059 116 
L 1209 116 
Q 1478 116 1591 278 
Q 1659 378 1659 734 
L 1659 3972 
L 1150 3972 
Q 853 3972 728 3928 
Q 566 3869 450 3700 
Q 334 3531 313 3244 
L 194 3244 
L 244 4238 
L 3703 4238 
z
" id="TimesNewRomanPSMT-54" transform="scale(0.015625)"/>
       <path d="M 928 4444 
Q 1059 4444 1151 4351 
Q 1244 4259 1244 4128 
Q 1244 3997 1151 3903 
Q 1059 3809 928 3809 
Q 797 3809 703 3903 
Q 609 3997 609 4128 
Q 609 4259 701 4351 
Q 794 4444 928 4444 
z
M 1188 2947 
L 1188 647 
Q 1188 378 1227 289 
Q 1266 200 1342 156 
Q 1419 113 1622 113 
L 1622 0 
L 231 0 
L 231 113 
Q 441 113 512 153 
Q 584 194 626 287 
Q 669 381 669 647 
L 669 1750 
Q 669 2216 641 2353 
Q 619 2453 572 2492 
Q 525 2531 444 2531 
Q 356 2531 231 2484 
L 188 2597 
L 1050 2947 
L 1188 2947 
z
" id="TimesNewRomanPSMT-69" transform="scale(0.015625)"/>
       <path d="M 1050 2338 
Q 1363 2650 1419 2697 
Q 1559 2816 1721 2881 
Q 1884 2947 2044 2947 
Q 2313 2947 2506 2790 
Q 2700 2634 2766 2338 
Q 3088 2713 3309 2830 
Q 3531 2947 3766 2947 
Q 3994 2947 4170 2830 
Q 4347 2713 4450 2447 
Q 4519 2266 4519 1878 
L 4519 647 
Q 4519 378 4559 278 
Q 4591 209 4675 161 
Q 4759 113 4950 113 
L 4950 0 
L 3538 0 
L 3538 113 
L 3597 113 
Q 3781 113 3884 184 
Q 3956 234 3988 344 
Q 4000 397 4000 647 
L 4000 1878 
Q 4000 2228 3916 2372 
Q 3794 2572 3525 2572 
Q 3359 2572 3192 2489 
Q 3025 2406 2788 2181 
L 2781 2147 
L 2788 2013 
L 2788 647 
Q 2788 353 2820 281 
Q 2853 209 2943 161 
Q 3034 113 3253 113 
L 3253 0 
L 1806 0 
L 1806 113 
Q 2044 113 2133 169 
Q 2222 225 2256 338 
Q 2272 391 2272 647 
L 2272 1878 
Q 2272 2228 2169 2381 
Q 2031 2581 1784 2581 
Q 1616 2581 1450 2491 
Q 1191 2353 1050 2181 
L 1050 647 
Q 1050 366 1089 281 
Q 1128 197 1204 155 
Q 1281 113 1516 113 
L 1516 0 
L 100 0 
L 100 113 
Q 297 113 375 155 
Q 453 197 493 289 
Q 534 381 534 647 
L 534 1741 
Q 534 2213 506 2350 
Q 484 2453 437 2492 
Q 391 2531 309 2531 
Q 222 2531 100 2484 
L 53 2597 
L 916 2947 
L 1050 2947 
L 1050 2338 
z
" id="TimesNewRomanPSMT-6d" transform="scale(0.015625)"/>
       <path d="M 681 1784 
Q 678 1147 991 784 
Q 1303 422 1725 422 
Q 2006 422 2214 576 
Q 2422 731 2563 1106 
L 2659 1044 
Q 2594 616 2278 264 
Q 1963 -88 1488 -88 
Q 972 -88 605 314 
Q 238 716 238 1394 
Q 238 2128 614 2539 
Q 991 2950 1559 2950 
Q 2041 2950 2350 2633 
Q 2659 2316 2659 1784 
L 681 1784 
z
M 681 1966 
L 2006 1966 
Q 1991 2241 1941 2353 
Q 1863 2528 1708 2628 
Q 1553 2728 1384 2728 
Q 1125 2728 920 2526 
Q 716 2325 681 1966 
z
" id="TimesNewRomanPSMT-65" transform="scale(0.015625)"/>
       <path id="TimesNewRomanPSMT-20" transform="scale(0.015625)"/>
       <path d="M 1988 -1253 
L 1988 -1369 
Q 1516 -1131 1200 -813 
Q 750 -359 506 256 
Q 263 872 263 1534 
Q 263 2503 741 3301 
Q 1219 4100 1988 4444 
L 1988 4313 
Q 1603 4100 1356 3731 
Q 1109 3363 987 2797 
Q 866 2231 866 1616 
Q 866 947 969 400 
Q 1050 -31 1165 -292 
Q 1281 -553 1476 -793 
Q 1672 -1034 1988 -1253 
z
" id="TimesNewRomanPSMT-28" transform="scale(0.015625)"/>
       <path d="M 2050 2947 
L 2050 1972 
L 1947 1972 
Q 1828 2431 1642 2597 
Q 1456 2763 1169 2763 
Q 950 2763 815 2647 
Q 681 2531 681 2391 
Q 681 2216 781 2091 
Q 878 1963 1175 1819 
L 1631 1597 
Q 2266 1288 2266 781 
Q 2266 391 1970 151 
Q 1675 -88 1309 -88 
Q 1047 -88 709 6 
Q 606 38 541 38 
Q 469 38 428 -44 
L 325 -44 
L 325 978 
L 428 978 
Q 516 541 762 319 
Q 1009 97 1316 97 
Q 1531 97 1667 223 
Q 1803 350 1803 528 
Q 1803 744 1651 891 
Q 1500 1038 1047 1263 
Q 594 1488 453 1669 
Q 313 1847 313 2119 
Q 313 2472 555 2709 
Q 797 2947 1181 2947 
Q 1350 2947 1591 2875 
Q 1750 2828 1803 2828 
Q 1853 2828 1881 2850 
Q 1909 2872 1947 2947 
L 2050 2947 
z
" id="TimesNewRomanPSMT-73" transform="scale(0.015625)"/>
       <path d="M 2631 1088 
Q 2516 522 2178 217 
Q 1841 -88 1431 -88 
Q 944 -88 581 321 
Q 219 731 219 1428 
Q 219 2103 620 2525 
Q 1022 2947 1584 2947 
Q 2006 2947 2278 2723 
Q 2550 2500 2550 2259 
Q 2550 2141 2473 2067 
Q 2397 1994 2259 1994 
Q 2075 1994 1981 2113 
Q 1928 2178 1911 2362 
Q 1894 2547 1784 2644 
Q 1675 2738 1481 2738 
Q 1169 2738 978 2506 
Q 725 2200 725 1697 
Q 725 1184 976 792 
Q 1228 400 1656 400 
Q 1963 400 2206 609 
Q 2378 753 2541 1131 
L 2631 1088 
z
" id="TimesNewRomanPSMT-63" transform="scale(0.015625)"/>
       <path d="M 144 4313 
L 144 4444 
Q 619 4209 934 3891 
Q 1381 3434 1625 2820 
Q 1869 2206 1869 1541 
Q 1869 572 1392 -226 
Q 916 -1025 144 -1369 
L 144 -1253 
Q 528 -1038 776 -670 
Q 1025 -303 1145 264 
Q 1266 831 1266 1447 
Q 1266 2113 1163 2663 
Q 1084 3094 967 3353 
Q 850 3613 656 3853 
Q 463 4094 144 4313 
z
" id="TimesNewRomanPSMT-29" transform="scale(0.015625)"/>
      </defs>
      <use xlink:href="#TimesNewRomanPSMT-54"/>
      <use x="57.583984" xlink:href="#TimesNewRomanPSMT-69"/>
      <use x="85.367188" xlink:href="#TimesNewRomanPSMT-6d"/>
      <use x="163.150391" xlink:href="#TimesNewRomanPSMT-65"/>
      <use x="207.535156" xlink:href="#TimesNewRomanPSMT-20"/>
      <use x="232.535156" xlink:href="#TimesNewRomanPSMT-28"/>
      <use x="265.835938" xlink:href="#TimesNewRomanPSMT-73"/>
      <use x="304.751953" xlink:href="#TimesNewRomanPSMT-65"/>
      <use x="349.136719" xlink:href="#TimesNewRomanPSMT-63"/>
      <use x="393.521484" xlink:href="#TimesNewRomanPSMT-29"/>
     </g>
    </g>
   </g>
   <g id="matplotlib.axis_2">
    <g id="ytick_1">
     <g id="line2d_13">
      <path clip-path="url(#p0964583a5e)" d="M 63.336875 317.705872 
L 398.136875 317.705872 
" style="fill:none;stroke:#000000;stroke-dasharray:0.5,0.825;stroke-dashoffset:0;stroke-width:0.5;"/>
     </g>
     <g id="line2d_14">
      <defs>
       <path d="M 0 0 
L -3.5 0 
" id="mf240509ae0" style="stroke:#000000;stroke-width:0.8;"/>
      </defs>
      <g>
       <use style="stroke:#000000;stroke-width:0.8;" x="63.336875" xlink:href="#mf240509ae0" y="317.705872"/>
      </g>
     </g>
     <g id="text_8">
      <!-- −0.06 -->
      <g transform="translate(23.942188 322.566497)scale(0.14 -0.14)">
       <defs>
        <path d="M 3484 2000 
L 116 2000 
L 116 2256 
L 3484 2256 
L 3484 2000 
z
" id="TimesNewRomanPSMT-2212" transform="scale(0.015625)"/>
        <path d="M 2869 4325 
L 2869 4209 
Q 2456 4169 2195 4045 
Q 1934 3922 1679 3669 
Q 1425 3416 1258 3105 
Q 1091 2794 978 2366 
Q 1428 2675 1881 2675 
Q 2316 2675 2634 2325 
Q 2953 1975 2953 1425 
Q 2953 894 2631 456 
Q 2244 -75 1606 -75 
Q 1172 -75 869 213 
Q 275 772 275 1663 
Q 275 2231 503 2743 
Q 731 3256 1154 3653 
Q 1578 4050 1965 4187 
Q 2353 4325 2688 4325 
L 2869 4325 
z
M 925 2138 
Q 869 1716 869 1456 
Q 869 1156 980 804 
Q 1091 453 1309 247 
Q 1469 100 1697 100 
Q 1969 100 2183 356 
Q 2397 613 2397 1088 
Q 2397 1622 2184 2012 
Q 1972 2403 1581 2403 
Q 1463 2403 1327 2353 
Q 1191 2303 925 2138 
z
" id="TimesNewRomanPSMT-36" transform="scale(0.015625)"/>
       </defs>
       <use xlink:href="#TimesNewRomanPSMT-2212"/>
       <use x="56.396484" xlink:href="#TimesNewRomanPSMT-30"/>
       <use x="106.396484" xlink:href="#TimesNewRomanPSMT-2e"/>
       <use x="131.396484" xlink:href="#TimesNewRomanPSMT-30"/>
       <use x="181.396484" xlink:href="#TimesNewRomanPSMT-36"/>
      </g>
     </g>
    </g>
    <g id="ytick_2">
     <g id="line2d_15">
      <path clip-path="url(#p0964583a5e)" d="M 63.336875 264.831886 
L 398.136875 264.831886 
" style="fill:none;stroke:#000000;stroke-dasharray:0.5,0.825;stroke-dashoffset:0;stroke-width:0.5;"/>
     </g>
     <g id="line2d_16">
      <g>
       <use style="stroke:#000000;stroke-width:0.8;" x="63.336875" xlink:href="#mf240509ae0" y="264.831886"/>
      </g>
     </g>
     <g id="text_9">
      <!-- −0.04 -->
      <g transform="translate(23.942188 269.692511)scale(0.14 -0.14)">
       <use xlink:href="#TimesNewRomanPSMT-2212"/>
       <use x="56.396484" xlink:href="#TimesNewRomanPSMT-30"/>
       <use x="106.396484" xlink:href="#TimesNewRomanPSMT-2e"/>
       <use x="131.396484" xlink:href="#TimesNewRomanPSMT-30"/>
       <use x="181.396484" xlink:href="#TimesNewRomanPSMT-34"/>
      </g>
     </g>
    </g>
    <g id="ytick_3">
     <g id="line2d_17">
      <path clip-path="url(#p0964583a5e)" d="M 63.336875 211.957901 
L 398.136875 211.957901 
" style="fill:none;stroke:#000000;stroke-dasharray:0.5,0.825;stroke-dashoffset:0;stroke-width:0.5;"/>
     </g>
     <g id="line2d_18">
      <g>
       <use style="stroke:#000000;stroke-width:0.8;" x="63.336875" xlink:href="#mf240509ae0" y="211.957901"/>
      </g>
     </g>
     <g id="text_10">
      <!-- −0.02 -->
      <g transform="translate(23.942188 216.818526)scale(0.14 -0.14)">
       <use xlink:href="#TimesNewRomanPSMT-2212"/>
       <use x="56.396484" xlink:href="#TimesNewRomanPSMT-30"/>
       <use x="106.396484" xlink:href="#TimesNewRomanPSMT-2e"/>
       <use x="131.396484" xlink:href="#TimesNewRomanPSMT-30"/>
       <use x="181.396484" xlink:href="#TimesNewRomanPSMT-32"/>
      </g>
     </g>
    </g>
    <g id="ytick_4">
     <g id="line2d_19">
      <path clip-path="url(#p0964583a5e)" d="M 63.336875 159.083915 
L 398.136875 159.083915 
" style="fill:none;stroke:#000000;stroke-dasharray:0.5,0.825;stroke-dashoffset:0;stroke-width:0.5;"/>
     </g>
     <g id="line2d_20">
      <g>
       <use style="stroke:#000000;stroke-width:0.8;" x="63.336875" xlink:href="#mf240509ae0" y="159.083915"/>
      </g>
     </g>
     <g id="text_11">
      <!-- 0.00 -->
      <g transform="translate(31.836875 163.94454)scale(0.14 -0.14)">
       <use xlink:href="#TimesNewRomanPSMT-30"/>
       <use x="50" xlink:href="#TimesNewRomanPSMT-2e"/>
       <use x="75" xlink:href="#TimesNewRomanPSMT-30"/>
       <use x="125" xlink:href="#TimesNewRomanPSMT-30"/>
      </g>
     </g>
    </g>
    <g id="ytick_5">
     <g id="line2d_21">
      <path clip-path="url(#p0964583a5e)" d="M 63.336875 106.209929 
L 398.136875 106.209929 
" style="fill:none;stroke:#000000;stroke-dasharray:0.5,0.825;stroke-dashoffset:0;stroke-width:0.5;"/>
     </g>
     <g id="line2d_22">
      <g>
       <use style="stroke:#000000;stroke-width:0.8;" x="63.336875" xlink:href="#mf240509ae0" y="106.209929"/>
      </g>
     </g>
     <g id="text_12">
      <!-- 0.02 -->
      <g transform="translate(31.836875 111.070554)scale(0.14 -0.14)">
       <use xlink:href="#TimesNewRomanPSMT-30"/>
       <use x="50" xlink:href="#TimesNewRomanPSMT-2e"/>
       <use x="75" xlink:href="#TimesNewRomanPSMT-30"/>
       <use x="125" xlink:href="#TimesNewRomanPSMT-32"/>
      </g>
     </g>
    </g>
    <g id="ytick_6">
     <g id="line2d_23">
      <path clip-path="url(#p0964583a5e)" d="M 63.336875 53.335943 
L 398.136875 53.335943 
" style="fill:none;stroke:#000000;stroke-dasharray:0.5,0.825;stroke-dashoffset:0;stroke-width:0.5;"/>
     </g>
     <g id="line2d_24">
      <g>
       <use style="stroke:#000000;stroke-width:0.8;" x="63.336875" xlink:href="#mf240509ae0" y="53.335943"/>
      </g>
     </g>
     <g id="text_13">
      <!-- 0.04 -->
      <g transform="translate(31.836875 58.196568)scale(0.14 -0.14)">
       <use xlink:href="#TimesNewRomanPSMT-30"/>
       <use x="50" xlink:href="#TimesNewRomanPSMT-2e"/>
       <use x="75" xlink:href="#TimesNewRomanPSMT-30"/>
       <use x="125" xlink:href="#TimesNewRomanPSMT-34"/>
      </g>
     </g>
    </g>
    <g id="text_14">
     <!-- Volatage (V) -->
     <g transform="translate(16.92125 209.352344)rotate(-90)scale(0.14 -0.14)">
      <defs>
       <path d="M 4544 4238 
L 4544 4122 
Q 4319 4081 4203 3978 
Q 4038 3825 3909 3509 
L 2431 -97 
L 2316 -97 
L 728 3556 
Q 606 3838 556 3900 
Q 478 3997 364 4051 
Q 250 4106 56 4122 
L 56 4238 
L 1788 4238 
L 1788 4122 
Q 1494 4094 1406 4022 
Q 1319 3950 1319 3838 
Q 1319 3681 1463 3350 
L 2541 866 
L 3541 3319 
Q 3688 3681 3688 3822 
Q 3688 3913 3597 3995 
Q 3506 4078 3291 4113 
Q 3275 4116 3238 4122 
L 3238 4238 
L 4544 4238 
z
" id="TimesNewRomanPSMT-56" transform="scale(0.015625)"/>
       <path d="M 1600 2947 
Q 2250 2947 2644 2453 
Q 2978 2031 2978 1484 
Q 2978 1100 2793 706 
Q 2609 313 2286 112 
Q 1963 -88 1566 -88 
Q 919 -88 538 428 
Q 216 863 216 1403 
Q 216 1797 411 2186 
Q 606 2575 925 2761 
Q 1244 2947 1600 2947 
z
M 1503 2744 
Q 1338 2744 1170 2645 
Q 1003 2547 900 2300 
Q 797 2053 797 1666 
Q 797 1041 1045 587 
Q 1294 134 1700 134 
Q 2003 134 2200 384 
Q 2397 634 2397 1244 
Q 2397 2006 2069 2444 
Q 1847 2744 1503 2744 
z
" id="TimesNewRomanPSMT-6f" transform="scale(0.015625)"/>
       <path d="M 1184 4444 
L 1184 647 
Q 1184 378 1223 290 
Q 1263 203 1344 158 
Q 1425 113 1647 113 
L 1647 0 
L 244 0 
L 244 113 
Q 441 113 512 153 
Q 584 194 625 287 
Q 666 381 666 647 
L 666 3247 
Q 666 3731 644 3842 
Q 622 3953 573 3993 
Q 525 4034 450 4034 
Q 369 4034 244 3984 
L 191 4094 
L 1044 4444 
L 1184 4444 
z
" id="TimesNewRomanPSMT-6c" transform="scale(0.015625)"/>
       <path d="M 1822 413 
Q 1381 72 1269 19 
Q 1100 -59 909 -59 
Q 613 -59 420 144 
Q 228 347 228 678 
Q 228 888 322 1041 
Q 450 1253 767 1440 
Q 1084 1628 1822 1897 
L 1822 2009 
Q 1822 2438 1686 2597 
Q 1550 2756 1291 2756 
Q 1094 2756 978 2650 
Q 859 2544 859 2406 
L 866 2225 
Q 866 2081 792 2003 
Q 719 1925 600 1925 
Q 484 1925 411 2006 
Q 338 2088 338 2228 
Q 338 2497 613 2722 
Q 888 2947 1384 2947 
Q 1766 2947 2009 2819 
Q 2194 2722 2281 2516 
Q 2338 2381 2338 1966 
L 2338 994 
Q 2338 584 2353 492 
Q 2369 400 2405 369 
Q 2441 338 2488 338 
Q 2538 338 2575 359 
Q 2641 400 2828 588 
L 2828 413 
Q 2478 -56 2159 -56 
Q 2006 -56 1915 50 
Q 1825 156 1822 413 
z
M 1822 616 
L 1822 1706 
Q 1350 1519 1213 1441 
Q 966 1303 859 1153 
Q 753 1003 753 825 
Q 753 600 887 451 
Q 1022 303 1197 303 
Q 1434 303 1822 616 
z
" id="TimesNewRomanPSMT-61" transform="scale(0.015625)"/>
       <path d="M 1031 3803 
L 1031 2863 
L 1700 2863 
L 1700 2644 
L 1031 2644 
L 1031 788 
Q 1031 509 1111 412 
Q 1191 316 1316 316 
Q 1419 316 1516 380 
Q 1613 444 1666 569 
L 1788 569 
Q 1678 263 1478 108 
Q 1278 -47 1066 -47 
Q 922 -47 784 33 
Q 647 113 581 261 
Q 516 409 516 719 
L 516 2644 
L 63 2644 
L 63 2747 
Q 234 2816 414 2980 
Q 594 3144 734 3369 
Q 806 3488 934 3803 
L 1031 3803 
z
" id="TimesNewRomanPSMT-74" transform="scale(0.015625)"/>
       <path d="M 966 1044 
Q 703 1172 562 1401 
Q 422 1631 422 1909 
Q 422 2334 742 2640 
Q 1063 2947 1563 2947 
Q 1972 2947 2272 2747 
L 2878 2747 
Q 3013 2747 3034 2739 
Q 3056 2731 3066 2713 
Q 3084 2684 3084 2613 
Q 3084 2531 3069 2500 
Q 3059 2484 3036 2475 
Q 3013 2466 2878 2466 
L 2506 2466 
Q 2681 2241 2681 1891 
Q 2681 1491 2375 1206 
Q 2069 922 1553 922 
Q 1341 922 1119 984 
Q 981 866 932 777 
Q 884 688 884 625 
Q 884 572 936 522 
Q 988 472 1138 450 
Q 1225 438 1575 428 
Q 2219 413 2409 384 
Q 2700 344 2873 169 
Q 3047 -6 3047 -263 
Q 3047 -616 2716 -925 
Q 2228 -1381 1444 -1381 
Q 841 -1381 425 -1109 
Q 191 -953 191 -784 
Q 191 -709 225 -634 
Q 278 -519 444 -313 
Q 466 -284 763 25 
Q 600 122 533 198 
Q 466 275 466 372 
Q 466 481 555 628 
Q 644 775 966 1044 
z
M 1509 2797 
Q 1278 2797 1122 2612 
Q 966 2428 966 2047 
Q 966 1553 1178 1281 
Q 1341 1075 1591 1075 
Q 1828 1075 1981 1253 
Q 2134 1431 2134 1813 
Q 2134 2309 1919 2591 
Q 1759 2797 1509 2797 
z
M 934 0 
Q 788 -159 713 -296 
Q 638 -434 638 -550 
Q 638 -700 819 -813 
Q 1131 -1006 1722 -1006 
Q 2284 -1006 2551 -807 
Q 2819 -609 2819 -384 
Q 2819 -222 2659 -153 
Q 2497 -84 2016 -72 
Q 1313 -53 934 0 
z
" id="TimesNewRomanPSMT-67" transform="scale(0.015625)"/>
      </defs>
      <use xlink:href="#TimesNewRomanPSMT-56"/>
      <use x="59.341797" xlink:href="#TimesNewRomanPSMT-6f"/>
      <use x="109.341797" xlink:href="#TimesNewRomanPSMT-6c"/>
      <use x="137.125" xlink:href="#TimesNewRomanPSMT-61"/>
      <use x="181.509766" xlink:href="#TimesNewRomanPSMT-74"/>
      <use x="209.292969" xlink:href="#TimesNewRomanPSMT-61"/>
      <use x="253.677734" xlink:href="#TimesNewRomanPSMT-67"/>
      <use x="303.677734" xlink:href="#TimesNewRomanPSMT-65"/>
      <use x="348.0625" xlink:href="#TimesNewRomanPSMT-20"/>
      <use x="373.0625" xlink:href="#TimesNewRomanPSMT-28"/>
      <use x="406.363281" xlink:href="#TimesNewRomanPSMT-56"/>
      <use x="478.580078" xlink:href="#TimesNewRomanPSMT-29"/>
     </g>
    </g>
   </g>
   <g id="LineCollection_1">
    <path clip-path="url(#p0964583a5e)" d="M 78.555057 159.083915 
L 382.918693 159.083915 
" style="fill:none;stroke:#1f77b4;stroke-width:1.5;"/>
   </g>
   <g id="line2d_25">
    <path clip-path="url(#p0964583a5e)" d="M 78.555057 159.092243 
L 92.67753 159.158335 
L 92.799275 159.191381 
L 92.92102 159.158335 
L 93.01233 159.224427 
L 93.042766 159.158335 
L 105.704293 159.257474 
L 105.826039 159.257474 
L 112.248111 159.356612 
L 112.400293 159.389659 
L 113.648184 159.455751 
L 113.67862 159.521844 
L 113.76993 159.455751 
L 114.317784 159.55489 
L 114.43953 159.55489 
L 114.956948 159.620982 
L 115.10913 159.687075 
L 115.839602 159.786214 
L 116.02222 159.885352 
L 116.052657 159.81926 
L 116.11353 159.885352 
L 116.235275 159.951445 
L 116.265711 159.885352 
L 116.35702 159.951445 
L 116.478766 159.951445 
L 117.178802 160.017537 
L 117.330984 160.116676 
L 117.45273 160.116676 
L 117.604911 160.149722 
L 117.726657 160.116676 
L 117.878839 160.149722 
L 118.396257 160.215815 
L 118.548439 160.281907 
L 119.218039 160.381046 
L 119.400657 160.447138 
L 119.46153 160.381046 
L 119.522402 160.447138 
L 120.587675 160.546277 
L 120.770293 160.61237 
L 121.318148 160.711508 
L 121.500766 160.777601 
L 121.744257 160.87674 
L 121.957311 161.041971 
L 121.987748 160.975878 
L 122.079057 161.041971 
L 122.261675 161.174156 
L 122.596475 161.438526 
L 122.626911 161.405479 
L 122.687784 161.471572 
L 123.570439 162.297728 
L 123.661748 162.36382 
L 123.966111 162.793422 
L 124.05742 162.89256 
L 124.574839 163.586531 
L 125.122693 164.544872 
L 125.183566 164.644011 
L 126.522766 167.81645 
L 128.775057 175.483178 
L 129.07942 176.738935 
L 130.327311 181.695871 
L 130.814293 183.645601 
L 131.940439 188.073796 
L 133.005711 191.180143 
L 133.76662 192.568085 
L 134.131857 193.096825 
L 134.466657 193.592518 
L 134.557966 193.691657 
L 135.19713 194.253443 
L 135.349311 194.352582 
L 135.592802 194.484767 
L 135.988475 194.385628 
L 136.627639 193.559472 
L 137.510293 191.37842 
L 138.575566 187.545056 
L 139.306039 183.90997 
L 141.040911 171.94723 
L 142.501857 158.76178 
L 143.262766 151.227237 
L 145.697675 123.60058 
L 150.050075 72.940687 
L 150.902293 64.844366 
L 151.876257 57.309823 
L 153.337202 48.51952 
L 154.067675 45.776682 
L 154.919893 44.157413 
L 155.132948 44.058277 
L 155.28513 44.025234 
L 155.559057 44.190465 
L 155.61993 44.256557 
L 155.86342 44.553974 
L 155.95473 44.65311 
L 156.19822 45.148806 
L 156.259093 45.247942 
L 156.654766 46.371514 
L 157.111311 48.222104 
L 157.811348 51.725005 
L 159.089675 62.233713 
L 160.033202 72.544137 
L 162.681166 111.43956 
L 163.685566 129.581949 
L 166.881384 194.154304 
L 168.159711 220.789577 
L 169.34673 244.15327 
L 170.68593 268.210928 
L 172.907784 300.298833 
L 173.973057 310.675353 
L 174.429602 314.343483 
L 174.855711 317.119365 
L 175.981857 322.638087 
L 176.95582 324.488679 
L 177.260184 324.686959 
L 177.503675 324.587815 
L 177.899348 324.026034 
L 178.62982 322.175442 
L 179.421166 318.275988 
L 180.821239 308.428208 
L 181.73433 299.571813 
L 183.530075 276.902094 
L 187.638984 208.265052 
L 189.130366 181.200178 
L 190.10433 163.553485 
L 191.930511 131.86214 
L 193.45233 108.861953 
L 194.334984 97.956697 
L 196.952511 70.726597 
L 198.322148 61.143181 
L 198.71782 58.995176 
L 199.14393 56.880219 
L 199.752657 54.533941 
L 200.544002 51.526725 
L 202.035384 48.552564 
L 202.248439 48.453427 
L 202.613675 48.189052 
L 202.674548 48.156011 
L 202.796293 48.056875 
L 202.948475 47.957731 
L 203.07022 47.957731 
L 203.435457 48.056875 
L 203.678948 48.222104 
L 203.709384 48.156011 
L 203.800693 48.222104 
L 204.16593 48.288199 
L 204.40942 48.552564 
L 204.713784 49.015219 
L 205.018148 49.676133 
L 205.231202 50.039644 
L 205.961675 51.857193 
L 206.387784 53.24513 
L 207.605239 57.541144 
L 208.031348 59.259548 
L 208.85313 63.29119 
L 209.400984 66.133166 
L 215.305639 98.782853 
L 217.162257 110.150759 
L 222.123384 137.678279 
L 224.314802 151.227237 
L 224.58873 152.879549 
L 225.075711 156.118081 
L 228.423711 182.389842 
L 229.458548 192.303715 
L 230.767311 205.323934 
L 232.745675 225.746513 
L 235.515384 254.661977 
L 237.067639 267.219543 
L 237.767675 271.085956 
L 239.198184 276.835999 
L 239.806911 278.455268 
L 240.080839 278.686592 
L 240.111275 278.65354 
L 240.628693 278.587445 
L 240.811311 278.455268 
L 241.206984 277.926531 
L 242.637493 272.903494 
L 244.433239 262.560018 
L 245.528948 253.47231 
L 247.507311 230.868678 
L 252.072766 167.981681 
L 254.264184 140.784624 
L 256.881711 116.29736 
L 257.97742 109.88639 
L 259.560111 103.442373 
L 259.834039 102.58317 
L 260.442766 100.963907 
L 261.142802 99.708147 
L 262.055893 98.848945 
L 263.060293 98.948081 
L 263.364657 99.146361 
L 263.486402 99.212456 
L 263.699457 99.410731 
L 264.186439 99.807283 
L 264.308184 99.906425 
L 264.551675 100.170795 
L 264.612548 100.236887 
L 264.886475 100.600396 
L 264.947348 100.699532 
L 265.799566 101.757014 
L 266.743093 103.541514 
L 266.803966 103.640647 
L 268.264911 107.077456 
L 268.934511 108.895002 
L 269.512802 110.415129 
L 270.273711 112.563138 
L 270.334584 112.69532 
L 270.760693 114.149355 
L 270.821566 114.347629 
L 271.03462 115.074649 
L 271.70422 117.61921 
L 273.71302 125.88077 
L 280.104657 146.336393 
L 280.865566 148.253076 
L 281.16993 149.112278 
L 281.778657 150.731543 
L 282.570002 152.714318 
L 282.904802 153.441335 
L 283.08742 153.771798 
L 283.330911 154.201399 
L 284.000511 155.391063 
L 285.248402 156.646821 
L 285.370148 156.646821 
L 286.039748 156.547682 
L 286.344111 156.349404 
L 286.496293 156.250266 
L 286.800657 155.853711 
L 286.86153 155.754572 
L 287.19633 155.258879 
L 288.809457 151.491607 
L 290.331275 146.898179 
L 290.78782 145.642423 
L 291.640039 143.230047 
L 292.979239 140.586347 
L 293.374911 140.02456 
L 293.740148 139.495821 
L 294.166257 139.132314 
L 294.196693 139.165358 
L 294.257566 139.099267 
L 294.440184 139.033173 
L 294.56193 139.033173 
L 294.592366 138.967082 
L 294.683675 139.033173 
L 294.80542 139.000127 
L 294.957602 139.033173 
L 295.23153 139.132314 
L 295.383711 139.297543 
L 296.053311 140.156746 
L 297.270766 143.03177 
L 297.57513 144.089249 
L 299.553493 153.143919 
L 302.049275 170.096641 
L 305.579893 199.805211 
L 308.28873 219.599913 
L 310.662766 231.926155 
L 311.393239 233.975025 
L 311.606293 234.338533 
L 311.97153 234.900319 
L 312.123711 234.999458 
L 312.397639 235.164689 
L 312.54982 235.131641 
L 312.702002 235.164689 
L 312.854184 235.065553 
L 312.88462 235.131641 
L 312.915057 235.032507 
L 312.945493 235.065553 
L 313.249857 234.867273 
L 313.402039 234.801178 
L 313.706402 234.404626 
L 313.797711 234.305487 
L 314.436875 232.587083 
L 314.680366 231.827022 
L 315.928257 225.977834 
L 318.789275 206.645783 
L 319.763239 198.218992 
L 320.645893 190.684449 
L 325.759202 147.228642 
L 327.433202 135.331996 
L 329.533311 122.377869 
L 330.202911 119.007149 
L 330.902948 115.801664 
L 333.368293 105.524286 
L 333.611784 104.76422 
L 333.946584 103.739789 
L 334.372693 102.58317 
L 334.616184 101.988338 
L 336.290184 98.617624 
L 336.777166 97.956697 
L 337.051093 97.593188 
L 337.172839 97.527093 
L 337.32502 97.361864 
L 337.355457 97.39491 
L 337.75113 97.097494 
L 337.964184 96.998356 
L 338.116366 96.93226 
L 338.207675 96.93226 
L 338.32942 96.93226 
L 338.451166 96.965309 
L 338.481602 96.93226 
L 338.542475 96.998356 
L 338.938148 97.064448 
L 339.09033 97.163589 
L 339.33382 97.262725 
L 339.729493 97.560142 
L 339.851239 97.65928 
L 340.155602 97.890604 
L 340.186039 97.857558 
L 340.246911 97.92365 
L 340.399093 98.022792 
L 340.581711 98.154974 
L 340.612148 98.121925 
L 340.642584 98.121925 
L 340.733893 98.254113 
L 340.76433 98.221066 
L 341.038257 98.551529 
L 341.129566 98.650665 
L 341.43393 99.047222 
L 341.525239 99.113315 
L 341.890475 99.642055 
L 342.225275 100.137746 
L 342.468766 100.600396 
L 342.651384 100.897815 
L 342.955748 101.525693 
L 343.138366 101.85615 
L 344.386257 104.830315 
L 345.238475 107.24269 
L 345.481966 108.0358 
L 346.303748 111.076054 
L 347.490766 116.693913 
L 353.517166 148.847908 
L 353.791093 150.070619 
L 354.49113 153.276104 
L 356.926039 164.313549 
L 357.717384 168.014728 
L 362.161093 186.88413 
L 362.343711 187.545056 
L 365.661275 197.987668 
L 365.722148 198.152899 
L 366.422184 200.102628 
L 366.483057 200.234813 
L 366.78742 201.094015 
L 367.426584 202.74633 
L 367.822257 203.671619 
L 370.318039 208.826838 
L 370.531093 209.1573 
L 370.744148 209.520804 
L 371.413748 210.313919 
L 371.56593 210.54524 
L 373.90953 212.957618 
L 374.000839 212.957618 
L 374.274766 213.155893 
L 374.305202 213.0898 
L 374.366075 213.155893 
L 374.57913 213.255029 
L 375.035675 213.35417 
L 375.066111 213.387217 
L 375.126984 213.321124 
L 375.49222 213.221988 
L 375.705275 213.122847 
L 376.100948 213.023705 
L 376.283566 212.891523 
L 378.079311 210.842656 
L 378.322802 210.413055 
L 378.566293 210.049549 
L 378.84022 209.520804 
L 378.901093 209.454716 
L 379.327202 208.43028 
L 379.996802 206.744922 
L 380.392475 205.489165 
L 381.549057 201.391431 
L 382.066475 199.144287 
L 382.401275 197.690252 
L 382.918693 195.310923 
L 382.918693 195.310923 
" style="fill:none;stroke:#0000ff;stroke-linecap:square;stroke-width:1.5;"/>
   </g>
   <g id="line2d_26">
    <path clip-path="url(#p0964583a5e)" d="M 78.555057 159.015773 
L 78.828984 159.04882 
L 86.590257 159.147958 
L 86.833748 159.164482 
L 87.046802 159.164482 
L 100.225748 159.26362 
L 100.590984 159.346236 
L 100.895348 159.428851 
L 101.108402 159.511467 
L 102.143239 160.188915 
L 102.478039 160.535901 
L 102.691093 160.767224 
L 103.238948 161.494241 
L 103.543311 162.006458 
L 105.126002 165.674591 
L 105.73473 167.57475 
L 106.282584 169.37577 
L 110.269748 184.09787 
L 111.882875 188.179081 
L 112.065493 188.526067 
L 113.130766 190.07924 
L 113.76993 190.310564 
L 114.378657 190.227948 
L 114.713457 189.880963 
L 115.078693 189.3357 
L 115.626548 188.377359 
L 115.717857 188.212127 
L 115.991784 187.567726 
L 116.265711 186.725047 
L 117.239675 183.189098 
L 117.757093 180.80977 
L 119.187602 173.275226 
L 120.831166 162.832614 
L 121.866002 155.298071 
L 123.113893 145.731185 
L 125.000948 131.273454 
L 126.096657 124.31722 
L 126.888002 119.889024 
L 127.40542 117.162712 
L 128.562002 111.478756 
L 129.718584 106.934895 
L 130.722984 104.489478 
L 131.08822 103.778984 
L 131.636075 103.051964 
L 132.670911 101.052669 
L 132.792657 100.953528 
L 133.827493 99.978666 
L 134.284039 99.846479 
L 134.923202 99.747343 
L 135.744984 99.400355 
L 135.988475 99.516014 
L 137.145057 99.598635 
L 138.423384 101.118757 
L 138.78862 102.159716 
L 139.427784 104.47295 
L 140.066948 106.918374 
L 141.588766 114.006793 
L 143.354075 125.209469 
L 145.362875 140.658587 
L 146.215093 147.416543 
L 148.650002 169.524478 
L 152.758911 206.437129 
L 154.18942 216.532756 
L 154.85902 220.349594 
L 155.61993 223.885542 
L 156.989566 228.016325 
L 157.29393 228.495495 
L 157.689602 229.090328 
L 158.115711 229.404264 
L 158.54182 229.305131 
L 158.87662 229.090328 
L 159.54622 228.611157 
L 159.911457 228.065892 
L 161.281093 224.827365 
L 162.133311 221.687967 
L 162.772475 218.845993 
L 164.020366 211.509725 
L 166.91182 188.724344 
L 168.068402 179.041796 
L 169.772839 166.930348 
L 171.325093 158.305279 
L 172.207748 154.504961 
L 172.572984 153.464005 
L 173.181711 151.844739 
L 173.820875 150.721167 
L 174.825275 149.779349 
L 175.220948 149.861965 
L 175.890548 150.73769 
L 176.62102 152.109109 
L 177.260184 154.157976 
L 177.96022 156.801675 
L 179.816839 166.418132 
L 180.456002 169.59057 
L 181.856075 176.976405 
L 183.682257 187.22074 
L 185.173639 193.962173 
L 185.843239 196.077133 
L 186.604148 197.465075 
L 187.030257 197.960769 
L 187.395493 198.225138 
L 187.943348 198.126 
L 188.156402 197.977292 
L 188.278148 197.944245 
L 188.734693 197.580737 
L 189.09993 197.035474 
L 189.586911 196.01104 
L 189.799966 195.498824 
L 190.560875 192.67337 
L 191.565275 187.237263 
L 192.904475 179.240073 
L 193.421893 175.852834 
L 195.004584 163.92314 
L 195.765493 158.272233 
L 200.14833 121.706567 
L 201.761457 107.00099 
L 204.257239 87.586321 
L 205.566002 80.398769 
L 206.326911 78.267281 
L 207.483493 76.003613 
L 207.696548 75.77229 
L 208.640075 74.880041 
L 209.370548 75.392263 
L 209.674911 75.57402 
L 209.796657 75.673154 
L 209.979275 75.871436 
L 211.348911 79.109963 
L 211.714148 80.382243 
L 213.753384 89.701283 
L 214.45342 93.220705 
L 215.823057 101.250944 
L 217.710111 114.271163 
L 219.201493 124.763345 
L 220.510257 133.223182 
L 223.523457 150.555936 
L 226.414911 165.641545 
L 230.006402 180.776723 
L 231.558657 186.179784 
L 232.684802 190.591457 
L 234.20662 196.787627 
L 234.997966 200.108774 
L 236.245857 205.065708 
L 237.858984 209.956557 
L 238.528584 211.476678 
L 239.259057 212.501115 
L 239.350366 212.600256 
L 239.959093 213.145516 
L 240.050402 213.178563 
L 240.293893 213.376837 
L 240.99393 213.872536 
L 241.298293 214.070811 
L 241.480911 214.153427 
L 241.693966 214.23604 
L 241.99833 214.302135 
L 242.150511 214.302135 
L 242.302693 214.318661 
L 242.57662 214.351707 
L 243.611457 214.450843 
L 245.072402 215.343091 
L 245.34633 215.590938 
L 245.711566 215.838782 
L 247.050766 216.664944 
L 247.233384 216.76408 
L 247.629057 217.044973 
L 248.085602 217.408484 
L 248.785639 218.019837 
L 248.93782 218.118978 
L 250.916184 220.415689 
L 251.311857 221.175756 
L 252.072766 222.563695 
L 252.164075 222.695877 
L 252.742366 223.687267 
L 252.864111 223.852496 
L 253.868511 225.29001 
L 254.142439 225.736134 
L 254.872911 226.744045 
L 255.116402 226.991894 
L 255.786002 227.603247 
L 255.907748 227.652813 
L 256.364293 227.751955 
L 256.63822 227.801522 
L 256.820839 227.801522 
L 257.06433 227.818047 
L 258.007857 227.190169 
L 258.464402 226.56229 
L 259.377493 224.315146 
L 259.74273 223.042868 
L 260.808002 217.97027 
L 261.781966 211.509725 
L 262.360257 206.684976 
L 263.486402 195.300546 
L 265.069093 176.034587 
L 266.651784 152.142155 
L 267.899675 131.504778 
L 272.282511 61.876345 
L 273.499966 46.790744 
L 274.656548 35.422832 
L 275.539202 29.12752 
L 276.14793 26.136843 
L 277.121893 22.865263 
L 277.73062 22.353041 
L 278.187166 22.452185 
L 278.40022 22.683509 
L 278.613275 23.063535 
L 278.856766 23.658367 
L 279.73942 26.880379 
L 280.287275 29.70583 
L 281.200366 35.802866 
L 282.143893 43.783528 
L 283.909202 62.124192 
L 292.583566 169.061831 
L 294.074948 184.0483 
L 296.022875 200.026159 
L 296.57073 204.289126 
L 297.544693 211.31145 
L 299.370875 222.497603 
L 300.557893 228.330267 
L 301.59273 232.345382 
L 302.871057 236.1457 
L 303.418911 236.856194 
L 303.905893 237.021428 
L 304.818984 235.897851 
L 305.123348 235.269977 
L 305.305966 234.922987 
L 306.979966 230.065192 
L 307.497384 228.016325 
L 308.806148 221.869724 
L 312.154148 203.099459 
L 313.55422 193.251679 
L 315.532584 178.017362 
L 319.276257 154.323207 
L 320.645893 148.176606 
L 321.437239 145.202445 
L 322.25902 142.889208 
L 323.415602 140.62554 
L 323.780839 140.080278 
L 324.146075 139.551538 
L 326.459239 137.172209 
L 326.580984 137.089592 
L 326.885348 136.907839 
L 327.341893 136.775652 
L 327.676693 136.676514 
L 327.981057 136.494759 
L 329.442002 135.585989 
L 329.868111 135.255526 
L 329.989857 135.156388 
L 330.324657 134.858972 
L 331.572548 133.355367 
L 333.550911 129.951604 
L 334.250948 128.365385 
L 336.351057 123.540634 
L 336.777166 122.334446 
L 339.181639 116.105227 
L 339.851239 114.816429 
L 340.33822 114.006793 
L 340.42953 113.924178 
L 340.794766 113.527623 
L 341.220875 113.197158 
L 341.43393 113.031929 
L 341.981784 112.850175 
L 342.133966 112.833654 
L 342.34702 112.833654 
L 343.077493 112.93279 
L 343.68622 113.378915 
L 344.721057 115.262553 
L 346.090693 120.070778 
L 348.403857 130.579483 
L 350.016984 139.93157 
L 353.39542 162.65086 
L 354.856366 172.911718 
L 357.047784 187.633818 
L 357.778257 191.748075 
L 359.330511 199.580034 
L 359.939239 201.761086 
L 361.278439 205.082233 
L 362.374148 207.197196 
L 363.561166 208.353814 
L 363.713348 208.38686 
L 364.352511 208.287719 
L 365.417784 207.626794 
L 365.661275 207.329378 
L 365.813457 207.1311 
L 366.178693 206.602363 
L 367.030911 204.487401 
L 368.248366 200.158344 
L 369.039711 196.754581 
L 370.378911 188.873052 
L 371.626802 180.016659 
L 374.426948 159.478421 
L 375.49222 151.712554 
L 378.018439 133.355367 
L 380.209857 119.773362 
L 380.727275 117.04705 
L 381.51862 113.345866 
L 382.462148 109.727305 
L 382.918693 108.190655 
L 382.918693 108.190655 
" style="fill:none;stroke:#ff0000;stroke-linecap:square;stroke-width:1.5;"/>
   </g>
   <g id="line2d_27">
    <path clip-path="url(#p0964583a5e)" d="M 126.370584 167.386849 
" style="fill:none;stroke:#ffffff;stroke-linecap:square;stroke-width:1.5;"/>
    <defs>
     <path d="M 0 -5 
L -1.12257 -1.545085 
L -4.755283 -1.545085 
L -1.816356 0.59017 
L -2.938926 4.045085 
L -0 1.90983 
L 2.938926 4.045085 
L 1.816356 0.59017 
L 4.755283 -1.545085 
L 1.12257 -1.545085 
z
" id="m954ccfd3fd" style="stroke:#ffffff;stroke-linejoin:bevel;"/>
    </defs>
    <g clip-path="url(#p0964583a5e)">
     <use style="fill:#0000ff;stroke:#ffffff;stroke-linejoin:bevel;" x="126.370584" xlink:href="#m954ccfd3fd" y="167.386849"/>
    </g>
   </g>
   <g id="line2d_28">
    <path clip-path="url(#p0964583a5e)" d="M 105.217311 165.955484 
" style="fill:none;stroke:#ffffff;stroke-linecap:square;stroke-width:1.5;"/>
    <defs>
     <path d="M 0 -5 
L -1.12257 -1.545085 
L -4.755283 -1.545085 
L -1.816356 0.59017 
L -2.938926 4.045085 
L -0 1.90983 
L 2.938926 4.045085 
L 1.816356 0.59017 
L 4.755283 -1.545085 
L 1.12257 -1.545085 
z
" id="mc266697093" style="stroke:#ffffff;stroke-linejoin:bevel;"/>
    </defs>
    <g clip-path="url(#p0964583a5e)">
     <use style="fill:#ff0000;stroke:#ffffff;stroke-linejoin:bevel;" x="105.217311" xlink:href="#mc266697093" y="165.955484"/>
    </g>
   </g>
   <g id="patch_3">
    <path d="M 63.336875 339.84 
L 63.336875 7.2 
" style="fill:none;stroke:#000000;stroke-linecap:square;stroke-linejoin:miter;stroke-width:0.8;"/>
   </g>
   <g id="patch_4">
    <path d="M 398.136875 339.84 
L 398.136875 7.2 
" style="fill:none;stroke:#000000;stroke-linecap:square;stroke-linejoin:miter;stroke-width:0.8;"/>
   </g>
   <g id="patch_5">
    <path d="M 63.336875 339.84 
L 398.136875 339.84 
" style="fill:none;stroke:#000000;stroke-linecap:square;stroke-linejoin:miter;stroke-width:0.8;"/>
   </g>
   <g id="patch_6">
    <path d="M 63.336875 7.2 
L 398.136875 7.2 
" style="fill:none;stroke:#000000;stroke-linecap:square;stroke-linejoin:miter;stroke-width:0.8;"/>
   </g>
   <g id="text_15">
    <g id="patch_7">
     <path d="M 75.036875 331.242688 
L 166.79375 331.242688 
L 166.79375 293.760312 
L 75.036875 293.760312 
z
" style="fill:#ffffff;stroke:#000000;stroke-linejoin:miter;stroke-width:0.75;"/>
    </g>
    <!-- Auto_00081 -->
    <g transform="translate(80.076875 308.521563)scale(0.14 -0.14)">
     <defs>
      <path d="M 2928 1419 
L 1288 1419 
L 1000 750 
Q 894 503 894 381 
Q 894 284 986 211 
Q 1078 138 1384 116 
L 1384 0 
L 50 0 
L 50 116 
Q 316 163 394 238 
Q 553 388 747 847 
L 2238 4334 
L 2347 4334 
L 3822 809 
Q 4000 384 4145 257 
Q 4291 131 4550 116 
L 4550 0 
L 2878 0 
L 2878 116 
Q 3131 128 3220 200 
Q 3309 272 3309 375 
Q 3309 513 3184 809 
L 2928 1419 
z
M 2841 1650 
L 2122 3363 
L 1384 1650 
L 2841 1650 
z
" id="TimesNewRomanPSMT-41" transform="scale(0.015625)"/>
      <path d="M 2709 2863 
L 2709 1128 
Q 2709 631 2732 520 
Q 2756 409 2807 365 
Q 2859 322 2928 322 
Q 3025 322 3147 375 
L 3191 266 
L 2334 -88 
L 2194 -88 
L 2194 519 
Q 1825 119 1631 15 
Q 1438 -88 1222 -88 
Q 981 -88 804 51 
Q 628 191 559 409 
Q 491 628 491 1028 
L 491 2306 
Q 491 2509 447 2587 
Q 403 2666 317 2708 
Q 231 2750 6 2747 
L 6 2863 
L 1009 2863 
L 1009 947 
Q 1009 547 1148 422 
Q 1288 297 1484 297 
Q 1619 297 1789 381 
Q 1959 466 2194 703 
L 2194 2325 
Q 2194 2569 2105 2655 
Q 2016 2741 1734 2747 
L 1734 2863 
L 2709 2863 
z
" id="TimesNewRomanPSMT-75" transform="scale(0.015625)"/>
      <path d="M 3256 -1381 
L -53 -1381 
L -53 -1119 
L 3256 -1119 
L 3256 -1381 
z
" id="TimesNewRomanPSMT-5f" transform="scale(0.015625)"/>
      <path d="M 1228 2134 
Q 725 2547 579 2797 
Q 434 3047 434 3316 
Q 434 3728 753 4026 
Q 1072 4325 1600 4325 
Q 2113 4325 2425 4047 
Q 2738 3769 2738 3413 
Q 2738 3175 2569 2928 
Q 2400 2681 1866 2347 
Q 2416 1922 2594 1678 
Q 2831 1359 2831 1006 
Q 2831 559 2490 242 
Q 2150 -75 1597 -75 
Q 994 -75 656 303 
Q 388 606 388 966 
Q 388 1247 577 1523 
Q 766 1800 1228 2134 
z
M 1719 2469 
Q 2094 2806 2194 3001 
Q 2294 3197 2294 3444 
Q 2294 3772 2109 3958 
Q 1925 4144 1606 4144 
Q 1288 4144 1088 3959 
Q 888 3775 888 3528 
Q 888 3366 970 3203 
Q 1053 3041 1206 2894 
L 1719 2469 
z
M 1375 2016 
Q 1116 1797 991 1539 
Q 866 1281 866 981 
Q 866 578 1086 336 
Q 1306 94 1647 94 
Q 1984 94 2187 284 
Q 2391 475 2391 747 
Q 2391 972 2272 1150 
Q 2050 1481 1375 2016 
z
" id="TimesNewRomanPSMT-38" transform="scale(0.015625)"/>
     </defs>
     <use xlink:href="#TimesNewRomanPSMT-41"/>
     <use x="72.216797" xlink:href="#TimesNewRomanPSMT-75"/>
     <use x="122.216797" xlink:href="#TimesNewRomanPSMT-74"/>
     <use x="150" xlink:href="#TimesNewRomanPSMT-6f"/>
     <use x="200" xlink:href="#TimesNewRomanPSMT-5f"/>
     <use x="250" xlink:href="#TimesNewRomanPSMT-30"/>
     <use x="300" xlink:href="#TimesNewRomanPSMT-30"/>
     <use x="350" xlink:href="#TimesNewRomanPSMT-30"/>
     <use x="400" xlink:href="#TimesNewRomanPSMT-38"/>
     <use x="450" xlink:href="#TimesNewRomanPSMT-31"/>
    </g>
    <!-- Vs: 287.62m/s -->
    <g transform="translate(80.076875 323.208)scale(0.14 -0.14)">
     <defs>
      <path d="M 903 2950 
Q 1047 2950 1148 2848 
Q 1250 2747 1250 2603 
Q 1250 2459 1148 2357 
Q 1047 2256 903 2256 
Q 759 2256 657 2357 
Q 556 2459 556 2603 
Q 556 2747 657 2848 
Q 759 2950 903 2950 
z
M 897 609 
Q 1044 609 1145 506 
Q 1247 403 1247 259 
Q 1247 116 1144 14 
Q 1041 -88 897 -88 
Q 753 -88 651 14 
Q 550 116 550 259 
Q 550 403 651 506 
Q 753 609 897 609 
z
" id="TimesNewRomanPSMT-3a" transform="scale(0.015625)"/>
      <path d="M 644 4238 
L 2916 4238 
L 2916 4119 
L 1503 -88 
L 1153 -88 
L 2419 3728 
L 1253 3728 
Q 900 3728 750 3644 
Q 488 3500 328 3200 
L 238 3234 
L 644 4238 
z
" id="TimesNewRomanPSMT-37" transform="scale(0.015625)"/>
      <path d="M 1794 4444 
L 259 -88 
L 9 -88 
L 1544 4444 
L 1794 4444 
z
" id="TimesNewRomanPSMT-2f" transform="scale(0.015625)"/>
     </defs>
     <use xlink:href="#TimesNewRomanPSMT-56"/>
     <use x="72.216797" xlink:href="#TimesNewRomanPSMT-73"/>
     <use x="111.132812" xlink:href="#TimesNewRomanPSMT-3a"/>
     <use x="138.916016" xlink:href="#TimesNewRomanPSMT-20"/>
     <use x="163.916016" xlink:href="#TimesNewRomanPSMT-32"/>
     <use x="213.916016" xlink:href="#TimesNewRomanPSMT-38"/>
     <use x="263.916016" xlink:href="#TimesNewRomanPSMT-37"/>
     <use x="313.916016" xlink:href="#TimesNewRomanPSMT-2e"/>
     <use x="338.916016" xlink:href="#TimesNewRomanPSMT-36"/>
     <use x="388.916016" xlink:href="#TimesNewRomanPSMT-32"/>
     <use x="438.916016" xlink:href="#TimesNewRomanPSMT-6d"/>
     <use x="516.699219" xlink:href="#TimesNewRomanPSMT-2f"/>
     <use x="544.482422" xlink:href="#TimesNewRomanPSMT-73"/>
    </g>
   </g>
  </g>
 </g>
 <defs>
  <clipPath id="p0964583a5e">
   <rect height="332.64" width="334.8" x="63.336875" y="7.2"/>
  </clipPath>
 </defs>
</svg>
