<?xml version="1.0" encoding="utf-8" standalone="no"?>
<!DOCTYPE svg PUBLIC "-//W3C//DTD SVG 1.1//EN"
  "http://www.w3.org/Graphics/SVG/1.1/DTD/svg11.dtd">
<svg height="383.610365pt" version="1.1" viewBox="0 0 421.086875 383.610365" width="421.086875pt" xmlns="http://www.w3.org/2000/svg" xmlns:xlink="http://www.w3.org/1999/xlink">
 <metadata>
  <rdf:RDF xmlns:cc="http://creativecommons.org/ns#" xmlns:dc="http://purl.org/dc/elements/1.1/" xmlns:rdf="http://www.w3.org/1999/02/22-rdf-syntax-ns#">
   <cc:Work>
    <dc:type rdf:resource="http://purl.org/dc/dcmitype/StillImage"/>
    <dc:date>2021-06-11T14:39:39.727912</dc:date>
    <dc:format>image/svg+xml</dc:format>
    <dc:creator>
     <cc:Agent>
      <dc:title>Matplotlib v3.4.2, https://matplotlib.org/</dc:title>
     </cc:Agent>
    </dc:creator>
   </cc:Work>
  </rdf:RDF>
 </metadata>
 <defs>
  <style type="text/css">*{stroke-linecap:butt;stroke-linejoin:round;}</style>
 </defs>
 <g id="figure_1">
  <g id="patch_1">
   <path d="M 0 383.610365 
L 421.086875 383.610365 
L 421.086875 0 
L 0 0 
z
" style="fill:#ffffff;"/>
  </g>
  <g id="axes_1">
   <g id="patch_2">
    <path d="M 63.336875 339.97849 
L 398.136875 339.97849 
L 398.136875 7.33849 
L 63.336875 7.33849 
z
" style="fill:#ffffff;"/>
   </g>
   <g id="matplotlib.axis_1">
    <g id="xtick_1">
     <g id="line2d_1">
      <path clip-path="url(#p30e8fd0785)" d="M 93.773239 339.97849 
L 93.773239 7.33849 
" style="fill:none;stroke:#000000;stroke-dasharray:0.5,0.825;stroke-dashoffset:0;stroke-width:0.5;"/>
     </g>
     <g id="line2d_2">
      <defs>
       <path d="M 0 0 
L 0 3.5 
" id="m3a68fb6487" style="stroke:#000000;stroke-width:0.8;"/>
      </defs>
      <g>
       <use style="stroke:#000000;stroke-width:0.8;" x="93.773239" xlink:href="#m3a68fb6487" y="339.97849"/>
      </g>
     </g>
     <g id="text_1">
      <!-- 0.000 -->
      <g transform="translate(78.023239 356.69974)scale(0.14 -0.14)">
       <defs>
        <path d="M 231 2094 
Q 231 2819 450 3342 
Q 669 3866 1031 4122 
Q 1313 4325 1613 4325 
Q 2100 4325 2488 3828 
Q 2972 3213 2972 2159 
Q 2972 1422 2759 906 
Q 2547 391 2217 158 
Q 1888 -75 1581 -75 
Q 975 -75 572 641 
Q 231 1244 231 2094 
z
M 844 2016 
Q 844 1141 1059 588 
Q 1238 122 1591 122 
Q 1759 122 1940 273 
Q 2122 425 2216 781 
Q 2359 1319 2359 2297 
Q 2359 3022 2209 3506 
Q 2097 3866 1919 4016 
Q 1791 4119 1609 4119 
Q 1397 4119 1231 3928 
Q 1006 3669 925 3112 
Q 844 2556 844 2016 
z
" id="TimesNewRomanPSMT-30" transform="scale(0.015625)"/>
        <path d="M 800 606 
Q 947 606 1047 504 
Q 1147 403 1147 259 
Q 1147 116 1045 14 
Q 944 -88 800 -88 
Q 656 -88 554 14 
Q 453 116 453 259 
Q 453 406 554 506 
Q 656 606 800 606 
z
" id="TimesNewRomanPSMT-2e" transform="scale(0.015625)"/>
       </defs>
       <use xlink:href="#TimesNewRomanPSMT-30"/>
       <use x="50" xlink:href="#TimesNewRomanPSMT-2e"/>
       <use x="75" xlink:href="#TimesNewRomanPSMT-30"/>
       <use x="125" xlink:href="#TimesNewRomanPSMT-30"/>
       <use x="175" xlink:href="#TimesNewRomanPSMT-30"/>
      </g>
     </g>
    </g>
    <g id="xtick_2">
     <g id="line2d_3">
      <path clip-path="url(#p30e8fd0785)" d="M 154.645966 339.97849 
L 154.645966 7.33849 
" style="fill:none;stroke:#000000;stroke-dasharray:0.5,0.825;stroke-dashoffset:0;stroke-width:0.5;"/>
     </g>
     <g id="line2d_4">
      <g>
       <use style="stroke:#000000;stroke-width:0.8;" x="154.645966" xlink:href="#m3a68fb6487" y="339.97849"/>
      </g>
     </g>
     <g id="text_2">
      <!-- 0.001 -->
      <g transform="translate(138.895966 356.69974)scale(0.14 -0.14)">
       <defs>
        <path d="M 750 3822 
L 1781 4325 
L 1884 4325 
L 1884 747 
Q 1884 391 1914 303 
Q 1944 216 2037 169 
Q 2131 122 2419 116 
L 2419 0 
L 825 0 
L 825 116 
Q 1125 122 1212 167 
Q 1300 213 1334 289 
Q 1369 366 1369 747 
L 1369 3034 
Q 1369 3497 1338 3628 
Q 1316 3728 1258 3775 
Q 1200 3822 1119 3822 
Q 1003 3822 797 3725 
L 750 3822 
z
" id="TimesNewRomanPSMT-31" transform="scale(0.015625)"/>
       </defs>
       <use xlink:href="#TimesNewRomanPSMT-30"/>
       <use x="50" xlink:href="#TimesNewRomanPSMT-2e"/>
       <use x="75" xlink:href="#TimesNewRomanPSMT-30"/>
       <use x="125" xlink:href="#TimesNewRomanPSMT-30"/>
       <use x="175" xlink:href="#TimesNewRomanPSMT-31"/>
      </g>
     </g>
    </g>
    <g id="xtick_3">
     <g id="line2d_5">
      <path clip-path="url(#p30e8fd0785)" d="M 215.518693 339.97849 
L 215.518693 7.33849 
" style="fill:none;stroke:#000000;stroke-dasharray:0.5,0.825;stroke-dashoffset:0;stroke-width:0.5;"/>
     </g>
     <g id="line2d_6">
      <g>
       <use style="stroke:#000000;stroke-width:0.8;" x="215.518693" xlink:href="#m3a68fb6487" y="339.97849"/>
      </g>
     </g>
     <g id="text_3">
      <!-- 0.002 -->
      <g transform="translate(199.768693 356.69974)scale(0.14 -0.14)">
       <defs>
        <path d="M 2934 816 
L 2638 0 
L 138 0 
L 138 116 
Q 1241 1122 1691 1759 
Q 2141 2397 2141 2925 
Q 2141 3328 1894 3587 
Q 1647 3847 1303 3847 
Q 991 3847 742 3664 
Q 494 3481 375 3128 
L 259 3128 
Q 338 3706 661 4015 
Q 984 4325 1469 4325 
Q 1984 4325 2329 3994 
Q 2675 3663 2675 3213 
Q 2675 2891 2525 2569 
Q 2294 2063 1775 1497 
Q 997 647 803 472 
L 1909 472 
Q 2247 472 2383 497 
Q 2519 522 2628 598 
Q 2738 675 2819 816 
L 2934 816 
z
" id="TimesNewRomanPSMT-32" transform="scale(0.015625)"/>
       </defs>
       <use xlink:href="#TimesNewRomanPSMT-30"/>
       <use x="50" xlink:href="#TimesNewRomanPSMT-2e"/>
       <use x="75" xlink:href="#TimesNewRomanPSMT-30"/>
       <use x="125" xlink:href="#TimesNewRomanPSMT-30"/>
       <use x="175" xlink:href="#TimesNewRomanPSMT-32"/>
      </g>
     </g>
    </g>
    <g id="xtick_4">
     <g id="line2d_7">
      <path clip-path="url(#p30e8fd0785)" d="M 276.39142 339.97849 
L 276.39142 7.33849 
" style="fill:none;stroke:#000000;stroke-dasharray:0.5,0.825;stroke-dashoffset:0;stroke-width:0.5;"/>
     </g>
     <g id="line2d_8">
      <g>
       <use style="stroke:#000000;stroke-width:0.8;" x="276.39142" xlink:href="#m3a68fb6487" y="339.97849"/>
      </g>
     </g>
     <g id="text_4">
      <!-- 0.003 -->
      <g transform="translate(260.64142 356.69974)scale(0.14 -0.14)">
       <defs>
        <path d="M 325 3431 
Q 506 3859 782 4092 
Q 1059 4325 1472 4325 
Q 1981 4325 2253 3994 
Q 2459 3747 2459 3466 
Q 2459 3003 1878 2509 
Q 2269 2356 2469 2072 
Q 2669 1788 2669 1403 
Q 2669 853 2319 450 
Q 1863 -75 997 -75 
Q 569 -75 414 31 
Q 259 138 259 259 
Q 259 350 332 419 
Q 406 488 509 488 
Q 588 488 669 463 
Q 722 447 909 348 
Q 1097 250 1169 231 
Q 1284 197 1416 197 
Q 1734 197 1970 444 
Q 2206 691 2206 1028 
Q 2206 1275 2097 1509 
Q 2016 1684 1919 1775 
Q 1784 1900 1550 2001 
Q 1316 2103 1072 2103 
L 972 2103 
L 972 2197 
Q 1219 2228 1467 2375 
Q 1716 2522 1828 2728 
Q 1941 2934 1941 3181 
Q 1941 3503 1739 3701 
Q 1538 3900 1238 3900 
Q 753 3900 428 3381 
L 325 3431 
z
" id="TimesNewRomanPSMT-33" transform="scale(0.015625)"/>
       </defs>
       <use xlink:href="#TimesNewRomanPSMT-30"/>
       <use x="50" xlink:href="#TimesNewRomanPSMT-2e"/>
       <use x="75" xlink:href="#TimesNewRomanPSMT-30"/>
       <use x="125" xlink:href="#TimesNewRomanPSMT-30"/>
       <use x="175" xlink:href="#TimesNewRomanPSMT-33"/>
      </g>
     </g>
    </g>
    <g id="xtick_5">
     <g id="line2d_9">
      <path clip-path="url(#p30e8fd0785)" d="M 337.264148 339.97849 
L 337.264148 7.33849 
" style="fill:none;stroke:#000000;stroke-dasharray:0.5,0.825;stroke-dashoffset:0;stroke-width:0.5;"/>
     </g>
     <g id="line2d_10">
      <g>
       <use style="stroke:#000000;stroke-width:0.8;" x="337.264148" xlink:href="#m3a68fb6487" y="339.97849"/>
      </g>
     </g>
     <g id="text_5">
      <!-- 0.004 -->
      <g transform="translate(321.514148 356.69974)scale(0.14 -0.14)">
       <defs>
        <path d="M 2978 1563 
L 2978 1119 
L 2409 1119 
L 2409 0 
L 1894 0 
L 1894 1119 
L 100 1119 
L 100 1519 
L 2066 4325 
L 2409 4325 
L 2409 1563 
L 2978 1563 
z
M 1894 1563 
L 1894 3666 
L 406 1563 
L 1894 1563 
z
" id="TimesNewRomanPSMT-34" transform="scale(0.015625)"/>
       </defs>
       <use xlink:href="#TimesNewRomanPSMT-30"/>
       <use x="50" xlink:href="#TimesNewRomanPSMT-2e"/>
       <use x="75" xlink:href="#TimesNewRomanPSMT-30"/>
       <use x="125" xlink:href="#TimesNewRomanPSMT-30"/>
       <use x="175" xlink:href="#TimesNewRomanPSMT-34"/>
      </g>
     </g>
    </g>
    <g id="xtick_6">
     <g id="line2d_11">
      <path clip-path="url(#p30e8fd0785)" d="M 398.136875 339.97849 
L 398.136875 7.33849 
" style="fill:none;stroke:#000000;stroke-dasharray:0.5,0.825;stroke-dashoffset:0;stroke-width:0.5;"/>
     </g>
     <g id="line2d_12">
      <g>
       <use style="stroke:#000000;stroke-width:0.8;" x="398.136875" xlink:href="#m3a68fb6487" y="339.97849"/>
      </g>
     </g>
     <g id="text_6">
      <!-- 0.005 -->
      <g transform="translate(382.386875 356.69974)scale(0.14 -0.14)">
       <defs>
        <path d="M 2778 4238 
L 2534 3706 
L 1259 3706 
L 981 3138 
Q 1809 3016 2294 2522 
Q 2709 2097 2709 1522 
Q 2709 1188 2573 903 
Q 2438 619 2231 419 
Q 2025 219 1772 97 
Q 1413 -75 1034 -75 
Q 653 -75 479 54 
Q 306 184 306 341 
Q 306 428 378 495 
Q 450 563 559 563 
Q 641 563 702 538 
Q 763 513 909 409 
Q 1144 247 1384 247 
Q 1750 247 2026 523 
Q 2303 800 2303 1197 
Q 2303 1581 2056 1914 
Q 1809 2247 1375 2428 
Q 1034 2569 447 2591 
L 1259 4238 
L 2778 4238 
z
" id="TimesNewRomanPSMT-35" transform="scale(0.015625)"/>
       </defs>
       <use xlink:href="#TimesNewRomanPSMT-30"/>
       <use x="50" xlink:href="#TimesNewRomanPSMT-2e"/>
       <use x="75" xlink:href="#TimesNewRomanPSMT-30"/>
       <use x="125" xlink:href="#TimesNewRomanPSMT-30"/>
       <use x="175" xlink:href="#TimesNewRomanPSMT-35"/>
      </g>
     </g>
    </g>
    <g id="text_7">
     <!-- Time (sec) -->
     <g transform="translate(200.858906 373.415678)scale(0.14 -0.14)">
      <defs>
       <path d="M 3703 4238 
L 3750 3244 
L 3631 3244 
Q 3597 3506 3538 3619 
Q 3441 3800 3280 3886 
Q 3119 3972 2856 3972 
L 2259 3972 
L 2259 734 
Q 2259 344 2344 247 
Q 2463 116 2709 116 
L 2856 116 
L 2856 0 
L 1059 0 
L 1059 116 
L 1209 116 
Q 1478 116 1591 278 
Q 1659 378 1659 734 
L 1659 3972 
L 1150 3972 
Q 853 3972 728 3928 
Q 566 3869 450 3700 
Q 334 3531 313 3244 
L 194 3244 
L 244 4238 
L 3703 4238 
z
" id="TimesNewRomanPSMT-54" transform="scale(0.015625)"/>
       <path d="M 928 4444 
Q 1059 4444 1151 4351 
Q 1244 4259 1244 4128 
Q 1244 3997 1151 3903 
Q 1059 3809 928 3809 
Q 797 3809 703 3903 
Q 609 3997 609 4128 
Q 609 4259 701 4351 
Q 794 4444 928 4444 
z
M 1188 2947 
L 1188 647 
Q 1188 378 1227 289 
Q 1266 200 1342 156 
Q 1419 113 1622 113 
L 1622 0 
L 231 0 
L 231 113 
Q 441 113 512 153 
Q 584 194 626 287 
Q 669 381 669 647 
L 669 1750 
Q 669 2216 641 2353 
Q 619 2453 572 2492 
Q 525 2531 444 2531 
Q 356 2531 231 2484 
L 188 2597 
L 1050 2947 
L 1188 2947 
z
" id="TimesNewRomanPSMT-69" transform="scale(0.015625)"/>
       <path d="M 1050 2338 
Q 1363 2650 1419 2697 
Q 1559 2816 1721 2881 
Q 1884 2947 2044 2947 
Q 2313 2947 2506 2790 
Q 2700 2634 2766 2338 
Q 3088 2713 3309 2830 
Q 3531 2947 3766 2947 
Q 3994 2947 4170 2830 
Q 4347 2713 4450 2447 
Q 4519 2266 4519 1878 
L 4519 647 
Q 4519 378 4559 278 
Q 4591 209 4675 161 
Q 4759 113 4950 113 
L 4950 0 
L 3538 0 
L 3538 113 
L 3597 113 
Q 3781 113 3884 184 
Q 3956 234 3988 344 
Q 4000 397 4000 647 
L 4000 1878 
Q 4000 2228 3916 2372 
Q 3794 2572 3525 2572 
Q 3359 2572 3192 2489 
Q 3025 2406 2788 2181 
L 2781 2147 
L 2788 2013 
L 2788 647 
Q 2788 353 2820 281 
Q 2853 209 2943 161 
Q 3034 113 3253 113 
L 3253 0 
L 1806 0 
L 1806 113 
Q 2044 113 2133 169 
Q 2222 225 2256 338 
Q 2272 391 2272 647 
L 2272 1878 
Q 2272 2228 2169 2381 
Q 2031 2581 1784 2581 
Q 1616 2581 1450 2491 
Q 1191 2353 1050 2181 
L 1050 647 
Q 1050 366 1089 281 
Q 1128 197 1204 155 
Q 1281 113 1516 113 
L 1516 0 
L 100 0 
L 100 113 
Q 297 113 375 155 
Q 453 197 493 289 
Q 534 381 534 647 
L 534 1741 
Q 534 2213 506 2350 
Q 484 2453 437 2492 
Q 391 2531 309 2531 
Q 222 2531 100 2484 
L 53 2597 
L 916 2947 
L 1050 2947 
L 1050 2338 
z
" id="TimesNewRomanPSMT-6d" transform="scale(0.015625)"/>
       <path d="M 681 1784 
Q 678 1147 991 784 
Q 1303 422 1725 422 
Q 2006 422 2214 576 
Q 2422 731 2563 1106 
L 2659 1044 
Q 2594 616 2278 264 
Q 1963 -88 1488 -88 
Q 972 -88 605 314 
Q 238 716 238 1394 
Q 238 2128 614 2539 
Q 991 2950 1559 2950 
Q 2041 2950 2350 2633 
Q 2659 2316 2659 1784 
L 681 1784 
z
M 681 1966 
L 2006 1966 
Q 1991 2241 1941 2353 
Q 1863 2528 1708 2628 
Q 1553 2728 1384 2728 
Q 1125 2728 920 2526 
Q 716 2325 681 1966 
z
" id="TimesNewRomanPSMT-65" transform="scale(0.015625)"/>
       <path id="TimesNewRomanPSMT-20" transform="scale(0.015625)"/>
       <path d="M 1988 -1253 
L 1988 -1369 
Q 1516 -1131 1200 -813 
Q 750 -359 506 256 
Q 263 872 263 1534 
Q 263 2503 741 3301 
Q 1219 4100 1988 4444 
L 1988 4313 
Q 1603 4100 1356 3731 
Q 1109 3363 987 2797 
Q 866 2231 866 1616 
Q 866 947 969 400 
Q 1050 -31 1165 -292 
Q 1281 -553 1476 -793 
Q 1672 -1034 1988 -1253 
z
" id="TimesNewRomanPSMT-28" transform="scale(0.015625)"/>
       <path d="M 2050 2947 
L 2050 1972 
L 1947 1972 
Q 1828 2431 1642 2597 
Q 1456 2763 1169 2763 
Q 950 2763 815 2647 
Q 681 2531 681 2391 
Q 681 2216 781 2091 
Q 878 1963 1175 1819 
L 1631 1597 
Q 2266 1288 2266 781 
Q 2266 391 1970 151 
Q 1675 -88 1309 -88 
Q 1047 -88 709 6 
Q 606 38 541 38 
Q 469 38 428 -44 
L 325 -44 
L 325 978 
L 428 978 
Q 516 541 762 319 
Q 1009 97 1316 97 
Q 1531 97 1667 223 
Q 1803 350 1803 528 
Q 1803 744 1651 891 
Q 1500 1038 1047 1263 
Q 594 1488 453 1669 
Q 313 1847 313 2119 
Q 313 2472 555 2709 
Q 797 2947 1181 2947 
Q 1350 2947 1591 2875 
Q 1750 2828 1803 2828 
Q 1853 2828 1881 2850 
Q 1909 2872 1947 2947 
L 2050 2947 
z
" id="TimesNewRomanPSMT-73" transform="scale(0.015625)"/>
       <path d="M 2631 1088 
Q 2516 522 2178 217 
Q 1841 -88 1431 -88 
Q 944 -88 581 321 
Q 219 731 219 1428 
Q 219 2103 620 2525 
Q 1022 2947 1584 2947 
Q 2006 2947 2278 2723 
Q 2550 2500 2550 2259 
Q 2550 2141 2473 2067 
Q 2397 1994 2259 1994 
Q 2075 1994 1981 2113 
Q 1928 2178 1911 2362 
Q 1894 2547 1784 2644 
Q 1675 2738 1481 2738 
Q 1169 2738 978 2506 
Q 725 2200 725 1697 
Q 725 1184 976 792 
Q 1228 400 1656 400 
Q 1963 400 2206 609 
Q 2378 753 2541 1131 
L 2631 1088 
z
" id="TimesNewRomanPSMT-63" transform="scale(0.015625)"/>
       <path d="M 144 4313 
L 144 4444 
Q 619 4209 934 3891 
Q 1381 3434 1625 2820 
Q 1869 2206 1869 1541 
Q 1869 572 1392 -226 
Q 916 -1025 144 -1369 
L 144 -1253 
Q 528 -1038 776 -670 
Q 1025 -303 1145 264 
Q 1266 831 1266 1447 
Q 1266 2113 1163 2663 
Q 1084 3094 967 3353 
Q 850 3613 656 3853 
Q 463 4094 144 4313 
z
" id="TimesNewRomanPSMT-29" transform="scale(0.015625)"/>
      </defs>
      <use xlink:href="#TimesNewRomanPSMT-54"/>
      <use x="57.583984" xlink:href="#TimesNewRomanPSMT-69"/>
      <use x="85.367188" xlink:href="#TimesNewRomanPSMT-6d"/>
      <use x="163.150391" xlink:href="#TimesNewRomanPSMT-65"/>
      <use x="207.535156" xlink:href="#TimesNewRomanPSMT-20"/>
      <use x="232.535156" xlink:href="#TimesNewRomanPSMT-28"/>
      <use x="265.835938" xlink:href="#TimesNewRomanPSMT-73"/>
      <use x="304.751953" xlink:href="#TimesNewRomanPSMT-65"/>
      <use x="349.136719" xlink:href="#TimesNewRomanPSMT-63"/>
      <use x="393.521484" xlink:href="#TimesNewRomanPSMT-29"/>
     </g>
    </g>
   </g>
   <g id="matplotlib.axis_2">
    <g id="ytick_1">
     <g id="line2d_13">
      <path clip-path="url(#p30e8fd0785)" d="M 63.336875 319.797948 
L 398.136875 319.797948 
" style="fill:none;stroke:#000000;stroke-dasharray:0.5,0.825;stroke-dashoffset:0;stroke-width:0.5;"/>
     </g>
     <g id="line2d_14">
      <defs>
       <path d="M 0 0 
L -3.5 0 
" id="m867d9434df" style="stroke:#000000;stroke-width:0.8;"/>
      </defs>
      <g>
       <use style="stroke:#000000;stroke-width:0.8;" x="63.336875" xlink:href="#m867d9434df" y="319.797948"/>
      </g>
     </g>
     <g id="text_8">
      <!-- −0.08 -->
      <g transform="translate(23.942188 324.658573)scale(0.14 -0.14)">
       <defs>
        <path d="M 3484 2000 
L 116 2000 
L 116 2256 
L 3484 2256 
L 3484 2000 
z
" id="TimesNewRomanPSMT-2212" transform="scale(0.015625)"/>
        <path d="M 1228 2134 
Q 725 2547 579 2797 
Q 434 3047 434 3316 
Q 434 3728 753 4026 
Q 1072 4325 1600 4325 
Q 2113 4325 2425 4047 
Q 2738 3769 2738 3413 
Q 2738 3175 2569 2928 
Q 2400 2681 1866 2347 
Q 2416 1922 2594 1678 
Q 2831 1359 2831 1006 
Q 2831 559 2490 242 
Q 2150 -75 1597 -75 
Q 994 -75 656 303 
Q 388 606 388 966 
Q 388 1247 577 1523 
Q 766 1800 1228 2134 
z
M 1719 2469 
Q 2094 2806 2194 3001 
Q 2294 3197 2294 3444 
Q 2294 3772 2109 3958 
Q 1925 4144 1606 4144 
Q 1288 4144 1088 3959 
Q 888 3775 888 3528 
Q 888 3366 970 3203 
Q 1053 3041 1206 2894 
L 1719 2469 
z
M 1375 2016 
Q 1116 1797 991 1539 
Q 866 1281 866 981 
Q 866 578 1086 336 
Q 1306 94 1647 94 
Q 1984 94 2187 284 
Q 2391 475 2391 747 
Q 2391 972 2272 1150 
Q 2050 1481 1375 2016 
z
" id="TimesNewRomanPSMT-38" transform="scale(0.015625)"/>
       </defs>
       <use xlink:href="#TimesNewRomanPSMT-2212"/>
       <use x="56.396484" xlink:href="#TimesNewRomanPSMT-30"/>
       <use x="106.396484" xlink:href="#TimesNewRomanPSMT-2e"/>
       <use x="131.396484" xlink:href="#TimesNewRomanPSMT-30"/>
       <use x="181.396484" xlink:href="#TimesNewRomanPSMT-38"/>
      </g>
     </g>
    </g>
    <g id="ytick_2">
     <g id="line2d_15">
      <path clip-path="url(#p30e8fd0785)" d="M 63.336875 281.330783 
L 398.136875 281.330783 
" style="fill:none;stroke:#000000;stroke-dasharray:0.5,0.825;stroke-dashoffset:0;stroke-width:0.5;"/>
     </g>
     <g id="line2d_16">
      <g>
       <use style="stroke:#000000;stroke-width:0.8;" x="63.336875" xlink:href="#m867d9434df" y="281.330783"/>
      </g>
     </g>
     <g id="text_9">
      <!-- −0.06 -->
      <g transform="translate(23.942188 286.191408)scale(0.14 -0.14)">
       <defs>
        <path d="M 2869 4325 
L 2869 4209 
Q 2456 4169 2195 4045 
Q 1934 3922 1679 3669 
Q 1425 3416 1258 3105 
Q 1091 2794 978 2366 
Q 1428 2675 1881 2675 
Q 2316 2675 2634 2325 
Q 2953 1975 2953 1425 
Q 2953 894 2631 456 
Q 2244 -75 1606 -75 
Q 1172 -75 869 213 
Q 275 772 275 1663 
Q 275 2231 503 2743 
Q 731 3256 1154 3653 
Q 1578 4050 1965 4187 
Q 2353 4325 2688 4325 
L 2869 4325 
z
M 925 2138 
Q 869 1716 869 1456 
Q 869 1156 980 804 
Q 1091 453 1309 247 
Q 1469 100 1697 100 
Q 1969 100 2183 356 
Q 2397 613 2397 1088 
Q 2397 1622 2184 2012 
Q 1972 2403 1581 2403 
Q 1463 2403 1327 2353 
Q 1191 2303 925 2138 
z
" id="TimesNewRomanPSMT-36" transform="scale(0.015625)"/>
       </defs>
       <use xlink:href="#TimesNewRomanPSMT-2212"/>
       <use x="56.396484" xlink:href="#TimesNewRomanPSMT-30"/>
       <use x="106.396484" xlink:href="#TimesNewRomanPSMT-2e"/>
       <use x="131.396484" xlink:href="#TimesNewRomanPSMT-30"/>
       <use x="181.396484" xlink:href="#TimesNewRomanPSMT-36"/>
      </g>
     </g>
    </g>
    <g id="ytick_3">
     <g id="line2d_17">
      <path clip-path="url(#p30e8fd0785)" d="M 63.336875 242.863617 
L 398.136875 242.863617 
" style="fill:none;stroke:#000000;stroke-dasharray:0.5,0.825;stroke-dashoffset:0;stroke-width:0.5;"/>
     </g>
     <g id="line2d_18">
      <g>
       <use style="stroke:#000000;stroke-width:0.8;" x="63.336875" xlink:href="#m867d9434df" y="242.863617"/>
      </g>
     </g>
     <g id="text_10">
      <!-- −0.04 -->
      <g transform="translate(23.942188 247.724242)scale(0.14 -0.14)">
       <use xlink:href="#TimesNewRomanPSMT-2212"/>
       <use x="56.396484" xlink:href="#TimesNewRomanPSMT-30"/>
       <use x="106.396484" xlink:href="#TimesNewRomanPSMT-2e"/>
       <use x="131.396484" xlink:href="#TimesNewRomanPSMT-30"/>
       <use x="181.396484" xlink:href="#TimesNewRomanPSMT-34"/>
      </g>
     </g>
    </g>
    <g id="ytick_4">
     <g id="line2d_19">
      <path clip-path="url(#p30e8fd0785)" d="M 63.336875 204.396452 
L 398.136875 204.396452 
" style="fill:none;stroke:#000000;stroke-dasharray:0.5,0.825;stroke-dashoffset:0;stroke-width:0.5;"/>
     </g>
     <g id="line2d_20">
      <g>
       <use style="stroke:#000000;stroke-width:0.8;" x="63.336875" xlink:href="#m867d9434df" y="204.396452"/>
      </g>
     </g>
     <g id="text_11">
      <!-- −0.02 -->
      <g transform="translate(23.942188 209.257077)scale(0.14 -0.14)">
       <use xlink:href="#TimesNewRomanPSMT-2212"/>
       <use x="56.396484" xlink:href="#TimesNewRomanPSMT-30"/>
       <use x="106.396484" xlink:href="#TimesNewRomanPSMT-2e"/>
       <use x="131.396484" xlink:href="#TimesNewRomanPSMT-30"/>
       <use x="181.396484" xlink:href="#TimesNewRomanPSMT-32"/>
      </g>
     </g>
    </g>
    <g id="ytick_5">
     <g id="line2d_21">
      <path clip-path="url(#p30e8fd0785)" d="M 63.336875 165.929287 
L 398.136875 165.929287 
" style="fill:none;stroke:#000000;stroke-dasharray:0.5,0.825;stroke-dashoffset:0;stroke-width:0.5;"/>
     </g>
     <g id="line2d_22">
      <g>
       <use style="stroke:#000000;stroke-width:0.8;" x="63.336875" xlink:href="#m867d9434df" y="165.929287"/>
      </g>
     </g>
     <g id="text_12">
      <!-- 0.00 -->
      <g transform="translate(31.836875 170.789912)scale(0.14 -0.14)">
       <use xlink:href="#TimesNewRomanPSMT-30"/>
       <use x="50" xlink:href="#TimesNewRomanPSMT-2e"/>
       <use x="75" xlink:href="#TimesNewRomanPSMT-30"/>
       <use x="125" xlink:href="#TimesNewRomanPSMT-30"/>
      </g>
     </g>
    </g>
    <g id="ytick_6">
     <g id="line2d_23">
      <path clip-path="url(#p30e8fd0785)" d="M 63.336875 127.462121 
L 398.136875 127.462121 
" style="fill:none;stroke:#000000;stroke-dasharray:0.5,0.825;stroke-dashoffset:0;stroke-width:0.5;"/>
     </g>
     <g id="line2d_24">
      <g>
       <use style="stroke:#000000;stroke-width:0.8;" x="63.336875" xlink:href="#m867d9434df" y="127.462121"/>
      </g>
     </g>
     <g id="text_13">
      <!-- 0.02 -->
      <g transform="translate(31.836875 132.322746)scale(0.14 -0.14)">
       <use xlink:href="#TimesNewRomanPSMT-30"/>
       <use x="50" xlink:href="#TimesNewRomanPSMT-2e"/>
       <use x="75" xlink:href="#TimesNewRomanPSMT-30"/>
       <use x="125" xlink:href="#TimesNewRomanPSMT-32"/>
      </g>
     </g>
    </g>
    <g id="ytick_7">
     <g id="line2d_25">
      <path clip-path="url(#p30e8fd0785)" d="M 63.336875 88.994956 
L 398.136875 88.994956 
" style="fill:none;stroke:#000000;stroke-dasharray:0.5,0.825;stroke-dashoffset:0;stroke-width:0.5;"/>
     </g>
     <g id="line2d_26">
      <g>
       <use style="stroke:#000000;stroke-width:0.8;" x="63.336875" xlink:href="#m867d9434df" y="88.994956"/>
      </g>
     </g>
     <g id="text_14">
      <!-- 0.04 -->
      <g transform="translate(31.836875 93.855581)scale(0.14 -0.14)">
       <use xlink:href="#TimesNewRomanPSMT-30"/>
       <use x="50" xlink:href="#TimesNewRomanPSMT-2e"/>
       <use x="75" xlink:href="#TimesNewRomanPSMT-30"/>
       <use x="125" xlink:href="#TimesNewRomanPSMT-34"/>
      </g>
     </g>
    </g>
    <g id="ytick_8">
     <g id="line2d_27">
      <path clip-path="url(#p30e8fd0785)" d="M 63.336875 50.52779 
L 398.136875 50.52779 
" style="fill:none;stroke:#000000;stroke-dasharray:0.5,0.825;stroke-dashoffset:0;stroke-width:0.5;"/>
     </g>
     <g id="line2d_28">
      <g>
       <use style="stroke:#000000;stroke-width:0.8;" x="63.336875" xlink:href="#m867d9434df" y="50.52779"/>
      </g>
     </g>
     <g id="text_15">
      <!-- 0.06 -->
      <g transform="translate(31.836875 55.388415)scale(0.14 -0.14)">
       <use xlink:href="#TimesNewRomanPSMT-30"/>
       <use x="50" xlink:href="#TimesNewRomanPSMT-2e"/>
       <use x="75" xlink:href="#TimesNewRomanPSMT-30"/>
       <use x="125" xlink:href="#TimesNewRomanPSMT-36"/>
      </g>
     </g>
    </g>
    <g id="ytick_9">
     <g id="line2d_29">
      <path clip-path="url(#p30e8fd0785)" d="M 63.336875 12.060625 
L 398.136875 12.060625 
" style="fill:none;stroke:#000000;stroke-dasharray:0.5,0.825;stroke-dashoffset:0;stroke-width:0.5;"/>
     </g>
     <g id="line2d_30">
      <g>
       <use style="stroke:#000000;stroke-width:0.8;" x="63.336875" xlink:href="#m867d9434df" y="12.060625"/>
      </g>
     </g>
     <g id="text_16">
      <!-- 0.08 -->
      <g transform="translate(31.836875 16.92125)scale(0.14 -0.14)">
       <use xlink:href="#TimesNewRomanPSMT-30"/>
       <use x="50" xlink:href="#TimesNewRomanPSMT-2e"/>
       <use x="75" xlink:href="#TimesNewRomanPSMT-30"/>
       <use x="125" xlink:href="#TimesNewRomanPSMT-38"/>
      </g>
     </g>
    </g>
    <g id="text_17">
     <!-- Volatage (V) -->
     <g transform="translate(16.92125 209.490834)rotate(-90)scale(0.14 -0.14)">
      <defs>
       <path d="M 4544 4238 
L 4544 4122 
Q 4319 4081 4203 3978 
Q 4038 3825 3909 3509 
L 2431 -97 
L 2316 -97 
L 728 3556 
Q 606 3838 556 3900 
Q 478 3997 364 4051 
Q 250 4106 56 4122 
L 56 4238 
L 1788 4238 
L 1788 4122 
Q 1494 4094 1406 4022 
Q 1319 3950 1319 3838 
Q 1319 3681 1463 3350 
L 2541 866 
L 3541 3319 
Q 3688 3681 3688 3822 
Q 3688 3913 3597 3995 
Q 3506 4078 3291 4113 
Q 3275 4116 3238 4122 
L 3238 4238 
L 4544 4238 
z
" id="TimesNewRomanPSMT-56" transform="scale(0.015625)"/>
       <path d="M 1600 2947 
Q 2250 2947 2644 2453 
Q 2978 2031 2978 1484 
Q 2978 1100 2793 706 
Q 2609 313 2286 112 
Q 1963 -88 1566 -88 
Q 919 -88 538 428 
Q 216 863 216 1403 
Q 216 1797 411 2186 
Q 606 2575 925 2761 
Q 1244 2947 1600 2947 
z
M 1503 2744 
Q 1338 2744 1170 2645 
Q 1003 2547 900 2300 
Q 797 2053 797 1666 
Q 797 1041 1045 587 
Q 1294 134 1700 134 
Q 2003 134 2200 384 
Q 2397 634 2397 1244 
Q 2397 2006 2069 2444 
Q 1847 2744 1503 2744 
z
" id="TimesNewRomanPSMT-6f" transform="scale(0.015625)"/>
       <path d="M 1184 4444 
L 1184 647 
Q 1184 378 1223 290 
Q 1263 203 1344 158 
Q 1425 113 1647 113 
L 1647 0 
L 244 0 
L 244 113 
Q 441 113 512 153 
Q 584 194 625 287 
Q 666 381 666 647 
L 666 3247 
Q 666 3731 644 3842 
Q 622 3953 573 3993 
Q 525 4034 450 4034 
Q 369 4034 244 3984 
L 191 4094 
L 1044 4444 
L 1184 4444 
z
" id="TimesNewRomanPSMT-6c" transform="scale(0.015625)"/>
       <path d="M 1822 413 
Q 1381 72 1269 19 
Q 1100 -59 909 -59 
Q 613 -59 420 144 
Q 228 347 228 678 
Q 228 888 322 1041 
Q 450 1253 767 1440 
Q 1084 1628 1822 1897 
L 1822 2009 
Q 1822 2438 1686 2597 
Q 1550 2756 1291 2756 
Q 1094 2756 978 2650 
Q 859 2544 859 2406 
L 866 2225 
Q 866 2081 792 2003 
Q 719 1925 600 1925 
Q 484 1925 411 2006 
Q 338 2088 338 2228 
Q 338 2497 613 2722 
Q 888 2947 1384 2947 
Q 1766 2947 2009 2819 
Q 2194 2722 2281 2516 
Q 2338 2381 2338 1966 
L 2338 994 
Q 2338 584 2353 492 
Q 2369 400 2405 369 
Q 2441 338 2488 338 
Q 2538 338 2575 359 
Q 2641 400 2828 588 
L 2828 413 
Q 2478 -56 2159 -56 
Q 2006 -56 1915 50 
Q 1825 156 1822 413 
z
M 1822 616 
L 1822 1706 
Q 1350 1519 1213 1441 
Q 966 1303 859 1153 
Q 753 1003 753 825 
Q 753 600 887 451 
Q 1022 303 1197 303 
Q 1434 303 1822 616 
z
" id="TimesNewRomanPSMT-61" transform="scale(0.015625)"/>
       <path d="M 1031 3803 
L 1031 2863 
L 1700 2863 
L 1700 2644 
L 1031 2644 
L 1031 788 
Q 1031 509 1111 412 
Q 1191 316 1316 316 
Q 1419 316 1516 380 
Q 1613 444 1666 569 
L 1788 569 
Q 1678 263 1478 108 
Q 1278 -47 1066 -47 
Q 922 -47 784 33 
Q 647 113 581 261 
Q 516 409 516 719 
L 516 2644 
L 63 2644 
L 63 2747 
Q 234 2816 414 2980 
Q 594 3144 734 3369 
Q 806 3488 934 3803 
L 1031 3803 
z
" id="TimesNewRomanPSMT-74" transform="scale(0.015625)"/>
       <path d="M 966 1044 
Q 703 1172 562 1401 
Q 422 1631 422 1909 
Q 422 2334 742 2640 
Q 1063 2947 1563 2947 
Q 1972 2947 2272 2747 
L 2878 2747 
Q 3013 2747 3034 2739 
Q 3056 2731 3066 2713 
Q 3084 2684 3084 2613 
Q 3084 2531 3069 2500 
Q 3059 2484 3036 2475 
Q 3013 2466 2878 2466 
L 2506 2466 
Q 2681 2241 2681 1891 
Q 2681 1491 2375 1206 
Q 2069 922 1553 922 
Q 1341 922 1119 984 
Q 981 866 932 777 
Q 884 688 884 625 
Q 884 572 936 522 
Q 988 472 1138 450 
Q 1225 438 1575 428 
Q 2219 413 2409 384 
Q 2700 344 2873 169 
Q 3047 -6 3047 -263 
Q 3047 -616 2716 -925 
Q 2228 -1381 1444 -1381 
Q 841 -1381 425 -1109 
Q 191 -953 191 -784 
Q 191 -709 225 -634 
Q 278 -519 444 -313 
Q 466 -284 763 25 
Q 600 122 533 198 
Q 466 275 466 372 
Q 466 481 555 628 
Q 644 775 966 1044 
z
M 1509 2797 
Q 1278 2797 1122 2612 
Q 966 2428 966 2047 
Q 966 1553 1178 1281 
Q 1341 1075 1591 1075 
Q 1828 1075 1981 1253 
Q 2134 1431 2134 1813 
Q 2134 2309 1919 2591 
Q 1759 2797 1509 2797 
z
M 934 0 
Q 788 -159 713 -296 
Q 638 -434 638 -550 
Q 638 -700 819 -813 
Q 1131 -1006 1722 -1006 
Q 2284 -1006 2551 -807 
Q 2819 -609 2819 -384 
Q 2819 -222 2659 -153 
Q 2497 -84 2016 -72 
Q 1313 -53 934 0 
z
" id="TimesNewRomanPSMT-67" transform="scale(0.015625)"/>
      </defs>
      <use xlink:href="#TimesNewRomanPSMT-56"/>
      <use x="59.341797" xlink:href="#TimesNewRomanPSMT-6f"/>
      <use x="109.341797" xlink:href="#TimesNewRomanPSMT-6c"/>
      <use x="137.125" xlink:href="#TimesNewRomanPSMT-61"/>
      <use x="181.509766" xlink:href="#TimesNewRomanPSMT-74"/>
      <use x="209.292969" xlink:href="#TimesNewRomanPSMT-61"/>
      <use x="253.677734" xlink:href="#TimesNewRomanPSMT-67"/>
      <use x="303.677734" xlink:href="#TimesNewRomanPSMT-65"/>
      <use x="348.0625" xlink:href="#TimesNewRomanPSMT-20"/>
      <use x="373.0625" xlink:href="#TimesNewRomanPSMT-28"/>
      <use x="406.363281" xlink:href="#TimesNewRomanPSMT-56"/>
      <use x="478.580078" xlink:href="#TimesNewRomanPSMT-29"/>
     </g>
    </g>
   </g>
   <g id="LineCollection_1">
    <path clip-path="url(#p30e8fd0785)" d="M 78.555057 165.929287 
L 382.918693 165.929287 
" style="fill:none;stroke:#1f77b4;stroke-width:1.5;"/>
   </g>
   <g id="line2d_31">
    <path clip-path="url(#p30e8fd0785)" d="M 78.555057 165.941019 
L 78.676802 165.916977 
L 94.35153 165.989103 
L 94.473275 166.013145 
L 94.625457 166.013145 
L 108.839239 166.085271 
L 108.930548 166.133355 
L 108.960984 166.085271 
L 114.926511 166.181439 
L 115.078693 166.181439 
L 115.961348 166.277607 
L 116.11353 166.277607 
L 116.235275 166.277607 
L 116.417893 166.301649 
L 117.513602 166.397817 
L 117.665784 166.397817 
L 118.578875 166.469943 
L 118.731057 166.518026 
L 119.674584 166.614194 
L 119.857202 166.638236 
L 120.70942 166.734404 
L 120.861602 166.758446 
L 120.983348 166.758446 
L 121.105093 166.80653 
L 121.257275 166.80653 
L 122.018184 166.902698 
L 122.200802 166.92674 
L 122.352984 166.92674 
L 122.566039 166.974824 
L 122.71822 166.974824 
L 123.600875 167.070992 
L 123.753057 167.070992 
L 126.583639 167.16716 
L 126.766257 167.191202 
L 127.314111 167.28737 
L 127.527166 167.359496 
L 127.618475 167.383538 
L 127.801093 167.479706 
L 128.07502 167.551832 
L 128.227202 167.623958 
L 128.50113 167.720125 
L 128.714184 167.888419 
L 128.74462 167.864377 
L 128.775057 167.912461 
L 128.957675 168.032671 
L 129.109857 168.128839 
L 130.266439 169.138602 
L 130.50993 169.47519 
L 130.814293 169.835819 
L 132.031748 171.951514 
L 132.549166 172.913193 
L 133.005711 173.826788 
L 133.310075 174.451879 
L 133.76662 175.365475 
L 135.044948 178.635184 
L 135.501493 180.005576 
L 135.927602 181.279801 
L 136.658075 183.251243 
L 136.87113 183.780166 
L 139.579966 189.934913 
L 140.340875 190.944676 
L 140.432184 191.016802 
L 140.706111 191.281264 
L 140.827857 191.377432 
L 141.040911 191.521684 
L 142.532293 191.425516 
L 143.688875 190.391711 
L 144.14542 189.550242 
L 144.23673 189.381948 
L 145.088948 187.09796 
L 146.15422 183.419538 
L 146.610766 181.496179 
L 147.15862 178.923688 
L 148.83262 169.066476 
L 149.654402 163.200233 
L 153.337202 133.243928 
L 154.85902 119.876588 
L 157.263493 99.94579 
L 158.63313 89.992407 
L 159.485348 84.703176 
L 160.30713 80.27945 
L 160.763675 78.067586 
L 161.98113 73.667904 
L 162.22462 73.0909 
L 162.468111 72.561977 
L 163.198584 71.600296 
L 163.502948 71.480086 
L 163.685566 71.576256 
L 163.89862 71.672418 
L 164.111675 71.912842 
L 164.781275 73.163024 
L 165.207384 74.437246 
L 166.181348 78.692681 
L 166.972693 83.669371 
L 167.703166 89.655822 
L 169.711966 111.38977 
L 170.868548 127.377688 
L 172.02513 145.385127 
L 175.03833 197.171549 
L 178.264584 253.766364 
L 179.268984 269.345564 
L 180.699493 289.15616 
L 182.343057 307.331888 
L 183.043093 312.909637 
L 183.925748 318.439292 
L 184.838839 322.261957 
L 185.538875 324.113195 
L 185.782366 324.425735 
L 186.08673 324.73829 
L 186.238911 324.834458 
L 186.42153 324.85849 
L 186.938948 324.353611 
L 187.973784 321.636875 
L 189.069493 315.987004 
L 190.500002 303.845811 
L 192.478366 279.106609 
L 193.848002 258.093922 
L 195.765493 224.507278 
L 202.552802 97.926258 
L 204.50073 68.859514 
L 206.205166 48.712331 
L 207.818293 34.431392 
L 208.670511 29.142166 
L 209.583602 25.319488 
L 210.131457 23.925051 
L 210.253202 23.732711 
L 210.679311 22.987416 
L 211.074984 22.55466 
L 211.348911 22.45849 
L 211.561966 22.530614 
L 211.683711 22.55466 
L 212.383748 23.227832 
L 213.144657 25.295442 
L 213.662075 27.24285 
L 213.936002 28.444949 
L 214.666475 32.411873 
L 215.670875 39.456167 
L 216.949202 50.419315 
L 218.531893 66.479356 
L 220.23633 86.554408 
L 223.645202 131.032064 
L 225.106148 149.207802 
L 228.241093 182.650194 
L 229.793348 195.248191 
L 230.18902 198.013018 
L 230.736875 201.523145 
L 231.041239 203.158003 
L 233.841384 215.92429 
L 235.819748 221.814575 
L 236.458911 223.016676 
L 236.854584 223.689853 
L 237.402439 224.363024 
L 237.524184 224.459194 
L 238.65033 225.228536 
L 239.198184 225.324706 
L 239.532984 225.468957 
L 239.867784 225.565125 
L 239.98953 225.565125 
L 240.537384 225.25258 
L 240.811311 225.156414 
L 241.785275 224.2909 
L 241.967893 224.122609 
L 242.120075 224.026439 
L 242.607057 223.521555 
L 243.124475 222.872422 
L 243.185348 222.872422 
L 243.215784 222.824342 
L 245.315893 221.045233 
L 245.742002 220.203764 
L 246.046366 219.554631 
L 246.168111 219.338253 
L 246.68553 218.32849 
L 249.546548 211.308232 
L 249.881348 210.418677 
L 250.642257 208.351069 
L 251.70753 205.34582 
L 252.164075 204.023515 
L 252.529311 202.989706 
L 253.04673 201.523145 
L 253.38153 200.465298 
L 256.029493 191.738062 
L 257.155639 187.723051 
L 258.64702 182.650194 
L 259.194875 180.558542 
L 259.864475 178.10626 
L 260.564511 175.293348 
L 261.142802 173.105529 
L 262.299384 168.946266 
L 262.573311 168.032671 
L 264.856039 161.180707 
L 265.586511 159.185223 
L 266.073493 158.007166 
L 267.321384 155.314465 
L 268.873639 153.054518 
L 269.208439 152.693889 
L 269.421493 152.453469 
L 270.638948 151.612 
L 270.79113 151.612 
L 271.582475 151.708168 
L 272.586875 152.621763 
L 273.04342 153.174728 
L 273.104293 153.222812 
L 273.347784 153.535358 
L 273.834766 154.112365 
L 274.13913 154.472996 
L 274.869602 155.434674 
L 275.113093 155.747221 
L 277.608875 159.858399 
L 277.882802 160.36328 
L 278.49153 161.541337 
L 281.809093 166.590152 
L 282.052584 166.902698 
L 282.874366 168.008629 
L 283.635275 168.729888 
L 283.970075 169.066476 
L 284.122257 169.162644 
L 284.639675 169.451148 
L 284.791857 169.547316 
L 285.217966 169.787736 
L 285.309275 169.787736 
L 285.461457 169.835819 
L 286.648475 169.739651 
L 287.135457 169.47519 
L 287.318075 169.379022 
L 287.561566 169.186686 
L 288.170293 168.585637 
L 288.809457 167.768209 
L 288.992075 167.503748 
L 290.970439 164.185955 
L 291.79222 162.503016 
L 292.21833 161.637505 
L 294.257566 156.540606 
L 295.47502 153.054518 
L 295.627202 152.621763 
L 299.796984 139.807389 
L 300.010039 139.302507 
L 300.405711 138.148492 
L 300.557893 137.715736 
L 301.227493 135.93663 
L 301.470984 135.359623 
L 302.17102 133.484348 
L 302.566693 132.666923 
L 303.236293 131.344612 
L 306.85822 125.814957 
L 307.132148 125.478371 
L 307.801748 124.588816 
L 307.923493 124.492646 
L 309.049639 123.723305 
L 309.506184 123.627135 
L 309.780111 123.530969 
L 311.180184 123.627135 
L 311.423675 123.699263 
L 311.728039 123.795433 
L 312.367202 124.180103 
L 312.519384 124.276269 
L 312.793311 124.51669 
L 313.128111 124.90136 
L 314.528184 127.30556 
L 316.263057 131.633118 
L 316.65873 133.003509 
L 316.963093 133.989228 
L 318.363166 139.95164 
L 320.402402 150.145439 
L 321.772039 158.319712 
L 326.580984 189.381948 
L 327.28102 194.070134 
L 330.811639 215.68387 
L 332.089966 222.175206 
L 334.64662 231.840082 
L 335.772766 235.037665 
L 336.685857 236.936981 
L 338.055493 238.908421 
L 338.877275 239.653725 
L 339.059893 239.822017 
L 339.303384 239.918186 
L 339.607748 240.038394 
L 340.368657 239.942225 
L 340.67302 239.653725 
L 341.09913 239.220969 
L 341.373057 238.836297 
L 341.616548 238.52375 
L 342.255711 237.321653 
L 343.381857 234.41257 
L 345.664584 224.964078 
L 348.921275 206.379625 
L 349.71262 200.946139 
L 350.13873 197.988976 
L 351.417057 188.732814 
L 351.964911 184.573552 
L 354.886802 160.627742 
L 356.530366 147.308486 
L 357.900002 136.778099 
L 359.452257 125.35816 
L 364.078584 96.820331 
L 364.900366 92.853405 
L 365.265602 91.33876 
L 366.604802 86.482277 
L 367.45702 84.150205 
L 368.248366 82.539398 
L 368.430984 82.298974 
L 368.765784 81.770057 
L 369.009275 81.457509 
L 369.283202 81.217085 
L 369.770184 80.952629 
L 370.044111 80.856459 
L 370.318039 80.76029 
L 370.744148 80.832414 
L 370.926766 80.928584 
L 371.200693 81.024753 
L 371.931166 81.697925 
L 372.23553 82.154726 
L 372.90513 83.404909 
L 373.209493 84.174251 
L 373.757348 85.736981 
L 374.883493 89.655822 
L 376.009639 94.536343 
L 377.105348 100.234292 
L 379.540257 116.318376 
L 381.244693 129.228918 
L 382.918693 142.668384 
L 382.918693 142.668384 
" style="fill:none;stroke:#0000ff;stroke-linecap:square;stroke-width:1.5;"/>
   </g>
   <g id="line2d_32">
    <path clip-path="url(#p30e8fd0785)" d="M 78.555057 165.836869 
L 78.85942 165.84889 
L 83.607493 165.957079 
L 83.88142 165.9691 
L 84.155348 165.9691 
L 84.459711 165.981121 
L 89.90782 166.077289 
L 90.060002 166.08931 
L 90.273057 166.08931 
L 90.455675 166.113352 
L 93.468875 166.221541 
L 93.742802 166.233562 
L 93.894984 166.233562 
L 98.643057 166.32973 
L 98.825675 166.341751 
L 100.682293 166.44994 
L 101.077966 166.498024 
L 101.71713 166.594191 
L 101.991057 166.678338 
L 102.38673 166.774506 
L 102.599784 166.870674 
L 102.904148 166.978863 
L 103.543311 167.339493 
L 104.63902 168.337235 
L 106.98262 172.244056 
L 108.07833 174.648254 
L 109.934948 179.324419 
L 110.75673 181.27182 
L 112.278548 184.601634 
L 112.735093 185.515228 
L 113.130766 186.176383 
L 114.865639 188.063678 
L 115.839602 188.352182 
L 116.570075 187.955489 
L 117.11793 187.47465 
L 117.422293 187.11402 
L 118.426693 185.322893 
L 120.161566 180.935232 
L 120.80073 178.843579 
L 123.81393 165.271883 
L 129.688148 135.68823 
L 130.601239 132.190122 
L 132.031748 127.333639 
L 132.610039 125.278054 
L 134.679711 119.868605 
L 135.166693 118.666508 
L 135.744984 117.392283 
L 137.266802 114.627455 
L 137.78422 114.014383 
L 138.45382 113.377272 
L 138.910366 113.485461 
L 140.12782 114.56735 
L 141.527893 116.971546 
L 142.319239 119.111282 
L 143.171457 122.152593 
L 144.358475 127.790436 
L 145.81942 135.868543 
L 146.793384 142.299772 
L 147.82822 150.450004 
L 150.202257 171.053978 
L 153.18502 199.411492 
L 154.980766 215.387387 
L 156.015602 223.417407 
L 157.598293 233.887689 
L 158.359202 237.986846 
L 159.150548 241.496977 
L 160.154948 245.019123 
L 160.824548 246.786208 
L 161.31153 247.687781 
L 162.194184 248.589363 
L 162.498548 248.673509 
L 162.620293 248.685525 
L 162.98553 248.433084 
L 163.381202 247.988305 
L 163.868184 247.24301 
L 164.476911 245.536026 
L 165.32913 242.614927 
L 165.816111 240.48721 
L 167.216184 232.733676 
L 169.711966 215.255156 
L 172.086002 195.62488 
L 174.216548 177.040431 
L 175.95142 161.653565 
L 179.877711 131.516947 
L 182.06913 117.524514 
L 182.799602 114.062469 
L 183.438766 111.381786 
L 183.895311 109.566617 
L 185.295384 105.479482 
L 186.634584 103.075288 
L 186.969384 102.738695 
L 187.973784 102.450193 
L 188.217275 102.546363 
L 189.160802 103.832607 
L 189.526039 104.589925 
L 191.44353 110.203731 
L 192.387057 114.33895 
L 193.513202 121.154854 
L 195.004584 131.889594 
L 196.008984 140.700981 
L 197.682984 156.917295 
L 202.278875 199.435534 
L 203.922439 210.95164 
L 204.987711 216.601508 
L 206.41822 222.852421 
L 207.240002 225.088327 
L 207.696548 225.917773 
L 208.061784 226.218298 
L 208.274839 226.230321 
L 208.51833 226.218298 
L 209.370548 225.797563 
L 209.887966 224.775779 
L 210.953239 221.98691 
L 211.622839 219.510586 
L 212.627239 215.110904 
L 213.722948 208.932115 
L 215.183893 198.990755 
L 217.375311 182.618171 
L 223.462584 135.411744 
L 225.136584 124.905401 
L 227.662802 111.538061 
L 229.336802 104.758227 
L 230.676002 100.406623 
L 231.467348 98.543376 
L 231.984766 97.762009 
L 232.563057 97.425416 
L 233.232657 97.521586 
L 233.689202 98.01445 
L 234.237057 99.084316 
L 234.96753 101.079802 
L 235.54582 103.255598 
L 236.489348 107.414862 
L 237.280693 111.682311 
L 239.532984 126.624401 
L 240.720002 135.856524 
L 242.66793 152.926327 
L 244.494111 170.525055 
L 247.172511 196.911126 
L 249.637857 218.308489 
L 250.70313 226.230321 
L 251.798839 233.659288 
L 253.168475 241.112305 
L 253.898948 244.285843 
L 255.481639 249.514975 
L 256.151239 250.83728 
L 256.851275 251.750877 
L 257.033893 251.919169 
L 257.429566 252.219694 
L 258.007857 252.339909 
L 258.525275 252.231716 
L 258.920948 251.967255 
L 259.803602 250.765156 
L 260.777566 248.613401 
L 262.482002 242.867368 
L 265.586511 227.624754 
L 267.869239 213.452009 
L 272.252075 184.769927 
L 279.100257 142.203604 
L 281.16993 130.146552 
L 282.356948 123.354693 
L 284.730984 110.816804 
L 287.287639 100.202268 
L 288.139857 97.858173 
L 288.87033 96.391613 
L 289.813857 95.105367 
L 290.87913 94.396134 
L 291.305239 94.311987 
L 291.518293 94.360066 
L 291.640039 94.396134 
L 293.070548 95.658332 
L 294.927166 98.795814 
L 296.692475 103.976861 
L 298.122984 110.0715 
L 299.340439 116.358478 
L 301.531857 129.990277 
L 304.088511 147.396671 
L 309.20182 177.02841 
L 312.54982 194.927663 
L 313.828148 199.988499 
L 315.410839 204.628599 
L 317.297893 208.835946 
L 318.119675 209.929859 
L 319.367566 211.240145 
L 320.189348 211.672901 
L 320.524148 211.805132 
L 321.041566 211.708962 
L 321.985093 211.600773 
L 323.01993 211.083871 
L 324.785239 209.557207 
L 325.241784 208.847968 
L 327.61582 203.931386 
L 331.450802 193.016326 
L 332.881311 188.340161 
L 334.098766 184.132814 
L 335.772766 178.591138 
L 336.351057 176.667781 
L 340.246911 163.228315 
L 340.977384 161.220809 
L 342.194839 158.179499 
L 343.35142 155.715197 
L 344.69062 153.791838 
L 345.299348 153.44323 
L 346.242875 153.178768 
L 346.425493 153.166747 
L 346.608111 153.142704 
L 346.882039 153.142704 
L 348.282111 153.250893 
L 348.556039 153.419187 
L 348.951711 153.683649 
L 349.925675 154.585223 
L 351.264875 156.340288 
L 352.999748 160.006689 
L 355.769457 167.976605 
L 356.804293 171.246314 
L 358.021748 174.732401 
L 359.634875 178.867621 
L 360.304475 179.961531 
L 362.008911 181.812764 
L 362.922002 182.425834 
L 363.043748 182.473918 
L 363.895966 182.702317 
L 364.44382 182.594128 
L 364.77862 182.497961 
L 365.20473 182.293604 
L 365.691711 181.993078 
L 366.45262 181.259798 
L 366.939602 180.514497 
L 368.370111 177.449145 
L 369.89193 172.917232 
L 370.622402 169.911984 
L 372.752948 160.162962 
L 374.548693 151.123178 
L 375.674839 145.509376 
L 378.809784 129.990277 
L 380.148984 124.160098 
L 382.18822 116.550814 
L 382.553457 115.40882 
L 382.918693 114.326931 
L 382.918693 114.326931 
" style="fill:none;stroke:#ff0000;stroke-linecap:square;stroke-width:1.5;"/>
   </g>
   <g id="line2d_33">
    <path clip-path="url(#p30e8fd0785)" d="M 133.036148 173.922956 
" style="fill:none;stroke:#ffffff;stroke-linecap:square;stroke-width:1.5;"/>
    <defs>
     <path d="M 0 -5 
L -1.12257 -1.545085 
L -4.755283 -1.545085 
L -1.816356 0.59017 
L -2.938926 4.045085 
L -0 1.90983 
L 2.938926 4.045085 
L 1.816356 0.59017 
L 4.755283 -1.545085 
L 1.12257 -1.545085 
z
" id="mc387e805ba" style="stroke:#ffffff;stroke-linejoin:bevel;"/>
    </defs>
    <g clip-path="url(#p30e8fd0785)">
     <use style="fill:#0000ff;stroke:#ffffff;stroke-linejoin:bevel;" x="133.036148" xlink:href="#mc387e805ba" y="173.922956"/>
    </g>
   </g>
   <g id="line2d_34">
    <path clip-path="url(#p30e8fd0785)" d="M 105.947784 170.260593 
" style="fill:none;stroke:#ffffff;stroke-linecap:square;stroke-width:1.5;"/>
    <defs>
     <path d="M 0 -5 
L -1.12257 -1.545085 
L -4.755283 -1.545085 
L -1.816356 0.59017 
L -2.938926 4.045085 
L -0 1.90983 
L 2.938926 4.045085 
L 1.816356 0.59017 
L 4.755283 -1.545085 
L 1.12257 -1.545085 
z
" id="mba20c7f72c" style="stroke:#ffffff;stroke-linejoin:bevel;"/>
    </defs>
    <g clip-path="url(#p30e8fd0785)">
     <use style="fill:#ff0000;stroke:#ffffff;stroke-linejoin:bevel;" x="105.947784" xlink:href="#mba20c7f72c" y="170.260593"/>
    </g>
   </g>
   <g id="patch_3">
    <path d="M 63.336875 339.97849 
L 63.336875 7.33849 
" style="fill:none;stroke:#000000;stroke-linecap:square;stroke-linejoin:miter;stroke-width:0.8;"/>
   </g>
   <g id="patch_4">
    <path d="M 398.136875 339.97849 
L 398.136875 7.33849 
" style="fill:none;stroke:#000000;stroke-linecap:square;stroke-linejoin:miter;stroke-width:0.8;"/>
   </g>
   <g id="patch_5">
    <path d="M 63.336875 339.97849 
L 398.136875 339.97849 
" style="fill:none;stroke:#000000;stroke-linecap:square;stroke-linejoin:miter;stroke-width:0.8;"/>
   </g>
   <g id="patch_6">
    <path d="M 63.336875 7.33849 
L 398.136875 7.33849 
" style="fill:none;stroke:#000000;stroke-linecap:square;stroke-linejoin:miter;stroke-width:0.8;"/>
   </g>
   <g id="text_18">
    <g id="patch_7">
     <path d="M 75.036875 331.381178 
L 166.79375 331.381178 
L 166.79375 293.898803 
L 75.036875 293.898803 
z
" style="fill:#ffffff;stroke:#000000;stroke-linejoin:miter;stroke-width:0.75;"/>
    </g>
    <!-- Auto_00002 -->
    <g transform="translate(80.076875 308.660053)scale(0.14 -0.14)">
     <defs>
      <path d="M 2928 1419 
L 1288 1419 
L 1000 750 
Q 894 503 894 381 
Q 894 284 986 211 
Q 1078 138 1384 116 
L 1384 0 
L 50 0 
L 50 116 
Q 316 163 394 238 
Q 553 388 747 847 
L 2238 4334 
L 2347 4334 
L 3822 809 
Q 4000 384 4145 257 
Q 4291 131 4550 116 
L 4550 0 
L 2878 0 
L 2878 116 
Q 3131 128 3220 200 
Q 3309 272 3309 375 
Q 3309 513 3184 809 
L 2928 1419 
z
M 2841 1650 
L 2122 3363 
L 1384 1650 
L 2841 1650 
z
" id="TimesNewRomanPSMT-41" transform="scale(0.015625)"/>
      <path d="M 2709 2863 
L 2709 1128 
Q 2709 631 2732 520 
Q 2756 409 2807 365 
Q 2859 322 2928 322 
Q 3025 322 3147 375 
L 3191 266 
L 2334 -88 
L 2194 -88 
L 2194 519 
Q 1825 119 1631 15 
Q 1438 -88 1222 -88 
Q 981 -88 804 51 
Q 628 191 559 409 
Q 491 628 491 1028 
L 491 2306 
Q 491 2509 447 2587 
Q 403 2666 317 2708 
Q 231 2750 6 2747 
L 6 2863 
L 1009 2863 
L 1009 947 
Q 1009 547 1148 422 
Q 1288 297 1484 297 
Q 1619 297 1789 381 
Q 1959 466 2194 703 
L 2194 2325 
Q 2194 2569 2105 2655 
Q 2016 2741 1734 2747 
L 1734 2863 
L 2709 2863 
z
" id="TimesNewRomanPSMT-75" transform="scale(0.015625)"/>
      <path d="M 3256 -1381 
L -53 -1381 
L -53 -1119 
L 3256 -1119 
L 3256 -1381 
z
" id="TimesNewRomanPSMT-5f" transform="scale(0.015625)"/>
     </defs>
     <use xlink:href="#TimesNewRomanPSMT-41"/>
     <use x="72.216797" xlink:href="#TimesNewRomanPSMT-75"/>
     <use x="122.216797" xlink:href="#TimesNewRomanPSMT-74"/>
     <use x="150" xlink:href="#TimesNewRomanPSMT-6f"/>
     <use x="200" xlink:href="#TimesNewRomanPSMT-5f"/>
     <use x="250" xlink:href="#TimesNewRomanPSMT-30"/>
     <use x="300" xlink:href="#TimesNewRomanPSMT-30"/>
     <use x="350" xlink:href="#TimesNewRomanPSMT-30"/>
     <use x="400" xlink:href="#TimesNewRomanPSMT-30"/>
     <use x="450" xlink:href="#TimesNewRomanPSMT-32"/>
    </g>
    <!-- Vs: 224.60m/s -->
    <g transform="translate(80.076875 323.34649)scale(0.14 -0.14)">
     <defs>
      <path d="M 903 2950 
Q 1047 2950 1148 2848 
Q 1250 2747 1250 2603 
Q 1250 2459 1148 2357 
Q 1047 2256 903 2256 
Q 759 2256 657 2357 
Q 556 2459 556 2603 
Q 556 2747 657 2848 
Q 759 2950 903 2950 
z
M 897 609 
Q 1044 609 1145 506 
Q 1247 403 1247 259 
Q 1247 116 1144 14 
Q 1041 -88 897 -88 
Q 753 -88 651 14 
Q 550 116 550 259 
Q 550 403 651 506 
Q 753 609 897 609 
z
" id="TimesNewRomanPSMT-3a" transform="scale(0.015625)"/>
      <path d="M 1794 4444 
L 259 -88 
L 9 -88 
L 1544 4444 
L 1794 4444 
z
" id="TimesNewRomanPSMT-2f" transform="scale(0.015625)"/>
     </defs>
     <use xlink:href="#TimesNewRomanPSMT-56"/>
     <use x="72.216797" xlink:href="#TimesNewRomanPSMT-73"/>
     <use x="111.132812" xlink:href="#TimesNewRomanPSMT-3a"/>
     <use x="138.916016" xlink:href="#TimesNewRomanPSMT-20"/>
     <use x="163.916016" xlink:href="#TimesNewRomanPSMT-32"/>
     <use x="213.916016" xlink:href="#TimesNewRomanPSMT-32"/>
     <use x="263.916016" xlink:href="#TimesNewRomanPSMT-34"/>
     <use x="313.916016" xlink:href="#TimesNewRomanPSMT-2e"/>
     <use x="338.916016" xlink:href="#TimesNewRomanPSMT-36"/>
     <use x="388.916016" xlink:href="#TimesNewRomanPSMT-30"/>
     <use x="438.916016" xlink:href="#TimesNewRomanPSMT-6d"/>
     <use x="516.699219" xlink:href="#TimesNewRomanPSMT-2f"/>
     <use x="544.482422" xlink:href="#TimesNewRomanPSMT-73"/>
    </g>
   </g>
  </g>
 </g>
 <defs>
  <clipPath id="p30e8fd0785">
   <rect height="332.64" width="334.8" x="63.336875" y="7.33849"/>
  </clipPath>
 </defs>
</svg>
