<?xml version="1.0" encoding="utf-8" standalone="no"?>
<!DOCTYPE svg PUBLIC "-//W3C//DTD SVG 1.1//EN"
  "http://www.w3.org/Graphics/SVG/1.1/DTD/svg11.dtd">
<svg height="385.222344pt" version="1.1" viewBox="0 0 421.086875 385.222344" width="421.086875pt" xmlns="http://www.w3.org/2000/svg" xmlns:xlink="http://www.w3.org/1999/xlink">
 <metadata>
  <rdf:RDF xmlns:cc="http://creativecommons.org/ns#" xmlns:dc="http://purl.org/dc/elements/1.1/" xmlns:rdf="http://www.w3.org/1999/02/22-rdf-syntax-ns#">
   <cc:Work>
    <dc:type rdf:resource="http://purl.org/dc/dcmitype/StillImage"/>
    <dc:date>2021-06-11T14:39:38.207167</dc:date>
    <dc:format>image/svg+xml</dc:format>
    <dc:creator>
     <cc:Agent>
      <dc:title>Matplotlib v3.4.2, https://matplotlib.org/</dc:title>
     </cc:Agent>
    </dc:creator>
   </cc:Work>
  </rdf:RDF>
 </metadata>
 <defs>
  <style type="text/css">*{stroke-linecap:butt;stroke-linejoin:round;}</style>
 </defs>
 <g id="figure_1">
  <g id="patch_1">
   <path d="M 0 385.222344 
L 421.086875 385.222344 
L 421.086875 0 
L 0 0 
z
" style="fill:#ffffff;"/>
  </g>
  <g id="axes_1">
   <g id="patch_2">
    <path d="M 63.336875 341.590469 
L 398.136875 341.590469 
L 398.136875 8.950469 
L 63.336875 8.950469 
z
" style="fill:#ffffff;"/>
   </g>
   <g id="matplotlib.axis_1">
    <g id="xtick_1">
     <g id="line2d_1">
      <path clip-path="url(#pb4532fb8bb)" d="M 93.773239 341.590469 
L 93.773239 8.950469 
" style="fill:none;stroke:#000000;stroke-dasharray:0.5,0.825;stroke-dashoffset:0;stroke-width:0.5;"/>
     </g>
     <g id="line2d_2">
      <defs>
       <path d="M 0 0 
L 0 3.5 
" id="me0384599f7" style="stroke:#000000;stroke-width:0.8;"/>
      </defs>
      <g>
       <use style="stroke:#000000;stroke-width:0.8;" x="93.773239" xlink:href="#me0384599f7" y="341.590469"/>
      </g>
     </g>
     <g id="text_1">
      <!-- 0.000 -->
      <g transform="translate(78.023239 358.311719)scale(0.14 -0.14)">
       <defs>
        <path d="M 231 2094 
Q 231 2819 450 3342 
Q 669 3866 1031 4122 
Q 1313 4325 1613 4325 
Q 2100 4325 2488 3828 
Q 2972 3213 2972 2159 
Q 2972 1422 2759 906 
Q 2547 391 2217 158 
Q 1888 -75 1581 -75 
Q 975 -75 572 641 
Q 231 1244 231 2094 
z
M 844 2016 
Q 844 1141 1059 588 
Q 1238 122 1591 122 
Q 1759 122 1940 273 
Q 2122 425 2216 781 
Q 2359 1319 2359 2297 
Q 2359 3022 2209 3506 
Q 2097 3866 1919 4016 
Q 1791 4119 1609 4119 
Q 1397 4119 1231 3928 
Q 1006 3669 925 3112 
Q 844 2556 844 2016 
z
" id="TimesNewRomanPSMT-30" transform="scale(0.015625)"/>
        <path d="M 800 606 
Q 947 606 1047 504 
Q 1147 403 1147 259 
Q 1147 116 1045 14 
Q 944 -88 800 -88 
Q 656 -88 554 14 
Q 453 116 453 259 
Q 453 406 554 506 
Q 656 606 800 606 
z
" id="TimesNewRomanPSMT-2e" transform="scale(0.015625)"/>
       </defs>
       <use xlink:href="#TimesNewRomanPSMT-30"/>
       <use x="50" xlink:href="#TimesNewRomanPSMT-2e"/>
       <use x="75" xlink:href="#TimesNewRomanPSMT-30"/>
       <use x="125" xlink:href="#TimesNewRomanPSMT-30"/>
       <use x="175" xlink:href="#TimesNewRomanPSMT-30"/>
      </g>
     </g>
    </g>
    <g id="xtick_2">
     <g id="line2d_3">
      <path clip-path="url(#pb4532fb8bb)" d="M 154.645966 341.590469 
L 154.645966 8.950469 
" style="fill:none;stroke:#000000;stroke-dasharray:0.5,0.825;stroke-dashoffset:0;stroke-width:0.5;"/>
     </g>
     <g id="line2d_4">
      <g>
       <use style="stroke:#000000;stroke-width:0.8;" x="154.645966" xlink:href="#me0384599f7" y="341.590469"/>
      </g>
     </g>
     <g id="text_2">
      <!-- 0.001 -->
      <g transform="translate(138.895966 358.311719)scale(0.14 -0.14)">
       <defs>
        <path d="M 750 3822 
L 1781 4325 
L 1884 4325 
L 1884 747 
Q 1884 391 1914 303 
Q 1944 216 2037 169 
Q 2131 122 2419 116 
L 2419 0 
L 825 0 
L 825 116 
Q 1125 122 1212 167 
Q 1300 213 1334 289 
Q 1369 366 1369 747 
L 1369 3034 
Q 1369 3497 1338 3628 
Q 1316 3728 1258 3775 
Q 1200 3822 1119 3822 
Q 1003 3822 797 3725 
L 750 3822 
z
" id="TimesNewRomanPSMT-31" transform="scale(0.015625)"/>
       </defs>
       <use xlink:href="#TimesNewRomanPSMT-30"/>
       <use x="50" xlink:href="#TimesNewRomanPSMT-2e"/>
       <use x="75" xlink:href="#TimesNewRomanPSMT-30"/>
       <use x="125" xlink:href="#TimesNewRomanPSMT-30"/>
       <use x="175" xlink:href="#TimesNewRomanPSMT-31"/>
      </g>
     </g>
    </g>
    <g id="xtick_3">
     <g id="line2d_5">
      <path clip-path="url(#pb4532fb8bb)" d="M 215.518693 341.590469 
L 215.518693 8.950469 
" style="fill:none;stroke:#000000;stroke-dasharray:0.5,0.825;stroke-dashoffset:0;stroke-width:0.5;"/>
     </g>
     <g id="line2d_6">
      <g>
       <use style="stroke:#000000;stroke-width:0.8;" x="215.518693" xlink:href="#me0384599f7" y="341.590469"/>
      </g>
     </g>
     <g id="text_3">
      <!-- 0.002 -->
      <g transform="translate(199.768693 358.311719)scale(0.14 -0.14)">
       <defs>
        <path d="M 2934 816 
L 2638 0 
L 138 0 
L 138 116 
Q 1241 1122 1691 1759 
Q 2141 2397 2141 2925 
Q 2141 3328 1894 3587 
Q 1647 3847 1303 3847 
Q 991 3847 742 3664 
Q 494 3481 375 3128 
L 259 3128 
Q 338 3706 661 4015 
Q 984 4325 1469 4325 
Q 1984 4325 2329 3994 
Q 2675 3663 2675 3213 
Q 2675 2891 2525 2569 
Q 2294 2063 1775 1497 
Q 997 647 803 472 
L 1909 472 
Q 2247 472 2383 497 
Q 2519 522 2628 598 
Q 2738 675 2819 816 
L 2934 816 
z
" id="TimesNewRomanPSMT-32" transform="scale(0.015625)"/>
       </defs>
       <use xlink:href="#TimesNewRomanPSMT-30"/>
       <use x="50" xlink:href="#TimesNewRomanPSMT-2e"/>
       <use x="75" xlink:href="#TimesNewRomanPSMT-30"/>
       <use x="125" xlink:href="#TimesNewRomanPSMT-30"/>
       <use x="175" xlink:href="#TimesNewRomanPSMT-32"/>
      </g>
     </g>
    </g>
    <g id="xtick_4">
     <g id="line2d_7">
      <path clip-path="url(#pb4532fb8bb)" d="M 276.39142 341.590469 
L 276.39142 8.950469 
" style="fill:none;stroke:#000000;stroke-dasharray:0.5,0.825;stroke-dashoffset:0;stroke-width:0.5;"/>
     </g>
     <g id="line2d_8">
      <g>
       <use style="stroke:#000000;stroke-width:0.8;" x="276.39142" xlink:href="#me0384599f7" y="341.590469"/>
      </g>
     </g>
     <g id="text_4">
      <!-- 0.003 -->
      <g transform="translate(260.64142 358.311719)scale(0.14 -0.14)">
       <defs>
        <path d="M 325 3431 
Q 506 3859 782 4092 
Q 1059 4325 1472 4325 
Q 1981 4325 2253 3994 
Q 2459 3747 2459 3466 
Q 2459 3003 1878 2509 
Q 2269 2356 2469 2072 
Q 2669 1788 2669 1403 
Q 2669 853 2319 450 
Q 1863 -75 997 -75 
Q 569 -75 414 31 
Q 259 138 259 259 
Q 259 350 332 419 
Q 406 488 509 488 
Q 588 488 669 463 
Q 722 447 909 348 
Q 1097 250 1169 231 
Q 1284 197 1416 197 
Q 1734 197 1970 444 
Q 2206 691 2206 1028 
Q 2206 1275 2097 1509 
Q 2016 1684 1919 1775 
Q 1784 1900 1550 2001 
Q 1316 2103 1072 2103 
L 972 2103 
L 972 2197 
Q 1219 2228 1467 2375 
Q 1716 2522 1828 2728 
Q 1941 2934 1941 3181 
Q 1941 3503 1739 3701 
Q 1538 3900 1238 3900 
Q 753 3900 428 3381 
L 325 3431 
z
" id="TimesNewRomanPSMT-33" transform="scale(0.015625)"/>
       </defs>
       <use xlink:href="#TimesNewRomanPSMT-30"/>
       <use x="50" xlink:href="#TimesNewRomanPSMT-2e"/>
       <use x="75" xlink:href="#TimesNewRomanPSMT-30"/>
       <use x="125" xlink:href="#TimesNewRomanPSMT-30"/>
       <use x="175" xlink:href="#TimesNewRomanPSMT-33"/>
      </g>
     </g>
    </g>
    <g id="xtick_5">
     <g id="line2d_9">
      <path clip-path="url(#pb4532fb8bb)" d="M 337.264148 341.590469 
L 337.264148 8.950469 
" style="fill:none;stroke:#000000;stroke-dasharray:0.5,0.825;stroke-dashoffset:0;stroke-width:0.5;"/>
     </g>
     <g id="line2d_10">
      <g>
       <use style="stroke:#000000;stroke-width:0.8;" x="337.264148" xlink:href="#me0384599f7" y="341.590469"/>
      </g>
     </g>
     <g id="text_5">
      <!-- 0.004 -->
      <g transform="translate(321.514148 358.311719)scale(0.14 -0.14)">
       <defs>
        <path d="M 2978 1563 
L 2978 1119 
L 2409 1119 
L 2409 0 
L 1894 0 
L 1894 1119 
L 100 1119 
L 100 1519 
L 2066 4325 
L 2409 4325 
L 2409 1563 
L 2978 1563 
z
M 1894 1563 
L 1894 3666 
L 406 1563 
L 1894 1563 
z
" id="TimesNewRomanPSMT-34" transform="scale(0.015625)"/>
       </defs>
       <use xlink:href="#TimesNewRomanPSMT-30"/>
       <use x="50" xlink:href="#TimesNewRomanPSMT-2e"/>
       <use x="75" xlink:href="#TimesNewRomanPSMT-30"/>
       <use x="125" xlink:href="#TimesNewRomanPSMT-30"/>
       <use x="175" xlink:href="#TimesNewRomanPSMT-34"/>
      </g>
     </g>
    </g>
    <g id="xtick_6">
     <g id="line2d_11">
      <path clip-path="url(#pb4532fb8bb)" d="M 398.136875 341.590469 
L 398.136875 8.950469 
" style="fill:none;stroke:#000000;stroke-dasharray:0.5,0.825;stroke-dashoffset:0;stroke-width:0.5;"/>
     </g>
     <g id="line2d_12">
      <g>
       <use style="stroke:#000000;stroke-width:0.8;" x="398.136875" xlink:href="#me0384599f7" y="341.590469"/>
      </g>
     </g>
     <g id="text_6">
      <!-- 0.005 -->
      <g transform="translate(382.386875 358.311719)scale(0.14 -0.14)">
       <defs>
        <path d="M 2778 4238 
L 2534 3706 
L 1259 3706 
L 981 3138 
Q 1809 3016 2294 2522 
Q 2709 2097 2709 1522 
Q 2709 1188 2573 903 
Q 2438 619 2231 419 
Q 2025 219 1772 97 
Q 1413 -75 1034 -75 
Q 653 -75 479 54 
Q 306 184 306 341 
Q 306 428 378 495 
Q 450 563 559 563 
Q 641 563 702 538 
Q 763 513 909 409 
Q 1144 247 1384 247 
Q 1750 247 2026 523 
Q 2303 800 2303 1197 
Q 2303 1581 2056 1914 
Q 1809 2247 1375 2428 
Q 1034 2569 447 2591 
L 1259 4238 
L 2778 4238 
z
" id="TimesNewRomanPSMT-35" transform="scale(0.015625)"/>
       </defs>
       <use xlink:href="#TimesNewRomanPSMT-30"/>
       <use x="50" xlink:href="#TimesNewRomanPSMT-2e"/>
       <use x="75" xlink:href="#TimesNewRomanPSMT-30"/>
       <use x="125" xlink:href="#TimesNewRomanPSMT-30"/>
       <use x="175" xlink:href="#TimesNewRomanPSMT-35"/>
      </g>
     </g>
    </g>
    <g id="text_7">
     <!-- Time (sec) -->
     <g transform="translate(200.858906 375.027657)scale(0.14 -0.14)">
      <defs>
       <path d="M 3703 4238 
L 3750 3244 
L 3631 3244 
Q 3597 3506 3538 3619 
Q 3441 3800 3280 3886 
Q 3119 3972 2856 3972 
L 2259 3972 
L 2259 734 
Q 2259 344 2344 247 
Q 2463 116 2709 116 
L 2856 116 
L 2856 0 
L 1059 0 
L 1059 116 
L 1209 116 
Q 1478 116 1591 278 
Q 1659 378 1659 734 
L 1659 3972 
L 1150 3972 
Q 853 3972 728 3928 
Q 566 3869 450 3700 
Q 334 3531 313 3244 
L 194 3244 
L 244 4238 
L 3703 4238 
z
" id="TimesNewRomanPSMT-54" transform="scale(0.015625)"/>
       <path d="M 928 4444 
Q 1059 4444 1151 4351 
Q 1244 4259 1244 4128 
Q 1244 3997 1151 3903 
Q 1059 3809 928 3809 
Q 797 3809 703 3903 
Q 609 3997 609 4128 
Q 609 4259 701 4351 
Q 794 4444 928 4444 
z
M 1188 2947 
L 1188 647 
Q 1188 378 1227 289 
Q 1266 200 1342 156 
Q 1419 113 1622 113 
L 1622 0 
L 231 0 
L 231 113 
Q 441 113 512 153 
Q 584 194 626 287 
Q 669 381 669 647 
L 669 1750 
Q 669 2216 641 2353 
Q 619 2453 572 2492 
Q 525 2531 444 2531 
Q 356 2531 231 2484 
L 188 2597 
L 1050 2947 
L 1188 2947 
z
" id="TimesNewRomanPSMT-69" transform="scale(0.015625)"/>
       <path d="M 1050 2338 
Q 1363 2650 1419 2697 
Q 1559 2816 1721 2881 
Q 1884 2947 2044 2947 
Q 2313 2947 2506 2790 
Q 2700 2634 2766 2338 
Q 3088 2713 3309 2830 
Q 3531 2947 3766 2947 
Q 3994 2947 4170 2830 
Q 4347 2713 4450 2447 
Q 4519 2266 4519 1878 
L 4519 647 
Q 4519 378 4559 278 
Q 4591 209 4675 161 
Q 4759 113 4950 113 
L 4950 0 
L 3538 0 
L 3538 113 
L 3597 113 
Q 3781 113 3884 184 
Q 3956 234 3988 344 
Q 4000 397 4000 647 
L 4000 1878 
Q 4000 2228 3916 2372 
Q 3794 2572 3525 2572 
Q 3359 2572 3192 2489 
Q 3025 2406 2788 2181 
L 2781 2147 
L 2788 2013 
L 2788 647 
Q 2788 353 2820 281 
Q 2853 209 2943 161 
Q 3034 113 3253 113 
L 3253 0 
L 1806 0 
L 1806 113 
Q 2044 113 2133 169 
Q 2222 225 2256 338 
Q 2272 391 2272 647 
L 2272 1878 
Q 2272 2228 2169 2381 
Q 2031 2581 1784 2581 
Q 1616 2581 1450 2491 
Q 1191 2353 1050 2181 
L 1050 647 
Q 1050 366 1089 281 
Q 1128 197 1204 155 
Q 1281 113 1516 113 
L 1516 0 
L 100 0 
L 100 113 
Q 297 113 375 155 
Q 453 197 493 289 
Q 534 381 534 647 
L 534 1741 
Q 534 2213 506 2350 
Q 484 2453 437 2492 
Q 391 2531 309 2531 
Q 222 2531 100 2484 
L 53 2597 
L 916 2947 
L 1050 2947 
L 1050 2338 
z
" id="TimesNewRomanPSMT-6d" transform="scale(0.015625)"/>
       <path d="M 681 1784 
Q 678 1147 991 784 
Q 1303 422 1725 422 
Q 2006 422 2214 576 
Q 2422 731 2563 1106 
L 2659 1044 
Q 2594 616 2278 264 
Q 1963 -88 1488 -88 
Q 972 -88 605 314 
Q 238 716 238 1394 
Q 238 2128 614 2539 
Q 991 2950 1559 2950 
Q 2041 2950 2350 2633 
Q 2659 2316 2659 1784 
L 681 1784 
z
M 681 1966 
L 2006 1966 
Q 1991 2241 1941 2353 
Q 1863 2528 1708 2628 
Q 1553 2728 1384 2728 
Q 1125 2728 920 2526 
Q 716 2325 681 1966 
z
" id="TimesNewRomanPSMT-65" transform="scale(0.015625)"/>
       <path id="TimesNewRomanPSMT-20" transform="scale(0.015625)"/>
       <path d="M 1988 -1253 
L 1988 -1369 
Q 1516 -1131 1200 -813 
Q 750 -359 506 256 
Q 263 872 263 1534 
Q 263 2503 741 3301 
Q 1219 4100 1988 4444 
L 1988 4313 
Q 1603 4100 1356 3731 
Q 1109 3363 987 2797 
Q 866 2231 866 1616 
Q 866 947 969 400 
Q 1050 -31 1165 -292 
Q 1281 -553 1476 -793 
Q 1672 -1034 1988 -1253 
z
" id="TimesNewRomanPSMT-28" transform="scale(0.015625)"/>
       <path d="M 2050 2947 
L 2050 1972 
L 1947 1972 
Q 1828 2431 1642 2597 
Q 1456 2763 1169 2763 
Q 950 2763 815 2647 
Q 681 2531 681 2391 
Q 681 2216 781 2091 
Q 878 1963 1175 1819 
L 1631 1597 
Q 2266 1288 2266 781 
Q 2266 391 1970 151 
Q 1675 -88 1309 -88 
Q 1047 -88 709 6 
Q 606 38 541 38 
Q 469 38 428 -44 
L 325 -44 
L 325 978 
L 428 978 
Q 516 541 762 319 
Q 1009 97 1316 97 
Q 1531 97 1667 223 
Q 1803 350 1803 528 
Q 1803 744 1651 891 
Q 1500 1038 1047 1263 
Q 594 1488 453 1669 
Q 313 1847 313 2119 
Q 313 2472 555 2709 
Q 797 2947 1181 2947 
Q 1350 2947 1591 2875 
Q 1750 2828 1803 2828 
Q 1853 2828 1881 2850 
Q 1909 2872 1947 2947 
L 2050 2947 
z
" id="TimesNewRomanPSMT-73" transform="scale(0.015625)"/>
       <path d="M 2631 1088 
Q 2516 522 2178 217 
Q 1841 -88 1431 -88 
Q 944 -88 581 321 
Q 219 731 219 1428 
Q 219 2103 620 2525 
Q 1022 2947 1584 2947 
Q 2006 2947 2278 2723 
Q 2550 2500 2550 2259 
Q 2550 2141 2473 2067 
Q 2397 1994 2259 1994 
Q 2075 1994 1981 2113 
Q 1928 2178 1911 2362 
Q 1894 2547 1784 2644 
Q 1675 2738 1481 2738 
Q 1169 2738 978 2506 
Q 725 2200 725 1697 
Q 725 1184 976 792 
Q 1228 400 1656 400 
Q 1963 400 2206 609 
Q 2378 753 2541 1131 
L 2631 1088 
z
" id="TimesNewRomanPSMT-63" transform="scale(0.015625)"/>
       <path d="M 144 4313 
L 144 4444 
Q 619 4209 934 3891 
Q 1381 3434 1625 2820 
Q 1869 2206 1869 1541 
Q 1869 572 1392 -226 
Q 916 -1025 144 -1369 
L 144 -1253 
Q 528 -1038 776 -670 
Q 1025 -303 1145 264 
Q 1266 831 1266 1447 
Q 1266 2113 1163 2663 
Q 1084 3094 967 3353 
Q 850 3613 656 3853 
Q 463 4094 144 4313 
z
" id="TimesNewRomanPSMT-29" transform="scale(0.015625)"/>
      </defs>
      <use xlink:href="#TimesNewRomanPSMT-54"/>
      <use x="57.583984" xlink:href="#TimesNewRomanPSMT-69"/>
      <use x="85.367188" xlink:href="#TimesNewRomanPSMT-6d"/>
      <use x="163.150391" xlink:href="#TimesNewRomanPSMT-65"/>
      <use x="207.535156" xlink:href="#TimesNewRomanPSMT-20"/>
      <use x="232.535156" xlink:href="#TimesNewRomanPSMT-28"/>
      <use x="265.835938" xlink:href="#TimesNewRomanPSMT-73"/>
      <use x="304.751953" xlink:href="#TimesNewRomanPSMT-65"/>
      <use x="349.136719" xlink:href="#TimesNewRomanPSMT-63"/>
      <use x="393.521484" xlink:href="#TimesNewRomanPSMT-29"/>
     </g>
    </g>
   </g>
   <g id="matplotlib.axis_2">
    <g id="ytick_1">
     <g id="line2d_13">
      <path clip-path="url(#pb4532fb8bb)" d="M 63.336875 298.046242 
L 398.136875 298.046242 
" style="fill:none;stroke:#000000;stroke-dasharray:0.5,0.825;stroke-dashoffset:0;stroke-width:0.5;"/>
     </g>
     <g id="line2d_14">
      <defs>
       <path d="M 0 0 
L -3.5 0 
" id="mfd2714cb33" style="stroke:#000000;stroke-width:0.8;"/>
      </defs>
      <g>
       <use style="stroke:#000000;stroke-width:0.8;" x="63.336875" xlink:href="#mfd2714cb33" y="298.046242"/>
      </g>
     </g>
     <g id="text_8">
      <!-- −0.06 -->
      <g transform="translate(23.942188 302.906867)scale(0.14 -0.14)">
       <defs>
        <path d="M 3484 2000 
L 116 2000 
L 116 2256 
L 3484 2256 
L 3484 2000 
z
" id="TimesNewRomanPSMT-2212" transform="scale(0.015625)"/>
        <path d="M 2869 4325 
L 2869 4209 
Q 2456 4169 2195 4045 
Q 1934 3922 1679 3669 
Q 1425 3416 1258 3105 
Q 1091 2794 978 2366 
Q 1428 2675 1881 2675 
Q 2316 2675 2634 2325 
Q 2953 1975 2953 1425 
Q 2953 894 2631 456 
Q 2244 -75 1606 -75 
Q 1172 -75 869 213 
Q 275 772 275 1663 
Q 275 2231 503 2743 
Q 731 3256 1154 3653 
Q 1578 4050 1965 4187 
Q 2353 4325 2688 4325 
L 2869 4325 
z
M 925 2138 
Q 869 1716 869 1456 
Q 869 1156 980 804 
Q 1091 453 1309 247 
Q 1469 100 1697 100 
Q 1969 100 2183 356 
Q 2397 613 2397 1088 
Q 2397 1622 2184 2012 
Q 1972 2403 1581 2403 
Q 1463 2403 1327 2353 
Q 1191 2303 925 2138 
z
" id="TimesNewRomanPSMT-36" transform="scale(0.015625)"/>
       </defs>
       <use xlink:href="#TimesNewRomanPSMT-2212"/>
       <use x="56.396484" xlink:href="#TimesNewRomanPSMT-30"/>
       <use x="106.396484" xlink:href="#TimesNewRomanPSMT-2e"/>
       <use x="131.396484" xlink:href="#TimesNewRomanPSMT-30"/>
       <use x="181.396484" xlink:href="#TimesNewRomanPSMT-36"/>
      </g>
     </g>
    </g>
    <g id="ytick_2">
     <g id="line2d_15">
      <path clip-path="url(#pb4532fb8bb)" d="M 63.336875 250.381973 
L 398.136875 250.381973 
" style="fill:none;stroke:#000000;stroke-dasharray:0.5,0.825;stroke-dashoffset:0;stroke-width:0.5;"/>
     </g>
     <g id="line2d_16">
      <g>
       <use style="stroke:#000000;stroke-width:0.8;" x="63.336875" xlink:href="#mfd2714cb33" y="250.381973"/>
      </g>
     </g>
     <g id="text_9">
      <!-- −0.04 -->
      <g transform="translate(23.942188 255.242598)scale(0.14 -0.14)">
       <use xlink:href="#TimesNewRomanPSMT-2212"/>
       <use x="56.396484" xlink:href="#TimesNewRomanPSMT-30"/>
       <use x="106.396484" xlink:href="#TimesNewRomanPSMT-2e"/>
       <use x="131.396484" xlink:href="#TimesNewRomanPSMT-30"/>
       <use x="181.396484" xlink:href="#TimesNewRomanPSMT-34"/>
      </g>
     </g>
    </g>
    <g id="ytick_3">
     <g id="line2d_17">
      <path clip-path="url(#pb4532fb8bb)" d="M 63.336875 202.717703 
L 398.136875 202.717703 
" style="fill:none;stroke:#000000;stroke-dasharray:0.5,0.825;stroke-dashoffset:0;stroke-width:0.5;"/>
     </g>
     <g id="line2d_18">
      <g>
       <use style="stroke:#000000;stroke-width:0.8;" x="63.336875" xlink:href="#mfd2714cb33" y="202.717703"/>
      </g>
     </g>
     <g id="text_10">
      <!-- −0.02 -->
      <g transform="translate(23.942188 207.578328)scale(0.14 -0.14)">
       <use xlink:href="#TimesNewRomanPSMT-2212"/>
       <use x="56.396484" xlink:href="#TimesNewRomanPSMT-30"/>
       <use x="106.396484" xlink:href="#TimesNewRomanPSMT-2e"/>
       <use x="131.396484" xlink:href="#TimesNewRomanPSMT-30"/>
       <use x="181.396484" xlink:href="#TimesNewRomanPSMT-32"/>
      </g>
     </g>
    </g>
    <g id="ytick_4">
     <g id="line2d_19">
      <path clip-path="url(#pb4532fb8bb)" d="M 63.336875 155.053434 
L 398.136875 155.053434 
" style="fill:none;stroke:#000000;stroke-dasharray:0.5,0.825;stroke-dashoffset:0;stroke-width:0.5;"/>
     </g>
     <g id="line2d_20">
      <g>
       <use style="stroke:#000000;stroke-width:0.8;" x="63.336875" xlink:href="#mfd2714cb33" y="155.053434"/>
      </g>
     </g>
     <g id="text_11">
      <!-- 0.00 -->
      <g transform="translate(31.836875 159.914059)scale(0.14 -0.14)">
       <use xlink:href="#TimesNewRomanPSMT-30"/>
       <use x="50" xlink:href="#TimesNewRomanPSMT-2e"/>
       <use x="75" xlink:href="#TimesNewRomanPSMT-30"/>
       <use x="125" xlink:href="#TimesNewRomanPSMT-30"/>
      </g>
     </g>
    </g>
    <g id="ytick_5">
     <g id="line2d_21">
      <path clip-path="url(#pb4532fb8bb)" d="M 63.336875 107.389164 
L 398.136875 107.389164 
" style="fill:none;stroke:#000000;stroke-dasharray:0.5,0.825;stroke-dashoffset:0;stroke-width:0.5;"/>
     </g>
     <g id="line2d_22">
      <g>
       <use style="stroke:#000000;stroke-width:0.8;" x="63.336875" xlink:href="#mfd2714cb33" y="107.389164"/>
      </g>
     </g>
     <g id="text_12">
      <!-- 0.02 -->
      <g transform="translate(31.836875 112.249789)scale(0.14 -0.14)">
       <use xlink:href="#TimesNewRomanPSMT-30"/>
       <use x="50" xlink:href="#TimesNewRomanPSMT-2e"/>
       <use x="75" xlink:href="#TimesNewRomanPSMT-30"/>
       <use x="125" xlink:href="#TimesNewRomanPSMT-32"/>
      </g>
     </g>
    </g>
    <g id="ytick_6">
     <g id="line2d_23">
      <path clip-path="url(#pb4532fb8bb)" d="M 63.336875 59.724895 
L 398.136875 59.724895 
" style="fill:none;stroke:#000000;stroke-dasharray:0.5,0.825;stroke-dashoffset:0;stroke-width:0.5;"/>
     </g>
     <g id="line2d_24">
      <g>
       <use style="stroke:#000000;stroke-width:0.8;" x="63.336875" xlink:href="#mfd2714cb33" y="59.724895"/>
      </g>
     </g>
     <g id="text_13">
      <!-- 0.04 -->
      <g transform="translate(31.836875 64.58552)scale(0.14 -0.14)">
       <use xlink:href="#TimesNewRomanPSMT-30"/>
       <use x="50" xlink:href="#TimesNewRomanPSMT-2e"/>
       <use x="75" xlink:href="#TimesNewRomanPSMT-30"/>
       <use x="125" xlink:href="#TimesNewRomanPSMT-34"/>
      </g>
     </g>
    </g>
    <g id="ytick_7">
     <g id="line2d_25">
      <path clip-path="url(#pb4532fb8bb)" d="M 63.336875 12.060625 
L 398.136875 12.060625 
" style="fill:none;stroke:#000000;stroke-dasharray:0.5,0.825;stroke-dashoffset:0;stroke-width:0.5;"/>
     </g>
     <g id="line2d_26">
      <g>
       <use style="stroke:#000000;stroke-width:0.8;" x="63.336875" xlink:href="#mfd2714cb33" y="12.060625"/>
      </g>
     </g>
     <g id="text_14">
      <!-- 0.06 -->
      <g transform="translate(31.836875 16.92125)scale(0.14 -0.14)">
       <use xlink:href="#TimesNewRomanPSMT-30"/>
       <use x="50" xlink:href="#TimesNewRomanPSMT-2e"/>
       <use x="75" xlink:href="#TimesNewRomanPSMT-30"/>
       <use x="125" xlink:href="#TimesNewRomanPSMT-36"/>
      </g>
     </g>
    </g>
    <g id="text_15">
     <!-- Volatage (V) -->
     <g transform="translate(16.92125 211.102813)rotate(-90)scale(0.14 -0.14)">
      <defs>
       <path d="M 4544 4238 
L 4544 4122 
Q 4319 4081 4203 3978 
Q 4038 3825 3909 3509 
L 2431 -97 
L 2316 -97 
L 728 3556 
Q 606 3838 556 3900 
Q 478 3997 364 4051 
Q 250 4106 56 4122 
L 56 4238 
L 1788 4238 
L 1788 4122 
Q 1494 4094 1406 4022 
Q 1319 3950 1319 3838 
Q 1319 3681 1463 3350 
L 2541 866 
L 3541 3319 
Q 3688 3681 3688 3822 
Q 3688 3913 3597 3995 
Q 3506 4078 3291 4113 
Q 3275 4116 3238 4122 
L 3238 4238 
L 4544 4238 
z
" id="TimesNewRomanPSMT-56" transform="scale(0.015625)"/>
       <path d="M 1600 2947 
Q 2250 2947 2644 2453 
Q 2978 2031 2978 1484 
Q 2978 1100 2793 706 
Q 2609 313 2286 112 
Q 1963 -88 1566 -88 
Q 919 -88 538 428 
Q 216 863 216 1403 
Q 216 1797 411 2186 
Q 606 2575 925 2761 
Q 1244 2947 1600 2947 
z
M 1503 2744 
Q 1338 2744 1170 2645 
Q 1003 2547 900 2300 
Q 797 2053 797 1666 
Q 797 1041 1045 587 
Q 1294 134 1700 134 
Q 2003 134 2200 384 
Q 2397 634 2397 1244 
Q 2397 2006 2069 2444 
Q 1847 2744 1503 2744 
z
" id="TimesNewRomanPSMT-6f" transform="scale(0.015625)"/>
       <path d="M 1184 4444 
L 1184 647 
Q 1184 378 1223 290 
Q 1263 203 1344 158 
Q 1425 113 1647 113 
L 1647 0 
L 244 0 
L 244 113 
Q 441 113 512 153 
Q 584 194 625 287 
Q 666 381 666 647 
L 666 3247 
Q 666 3731 644 3842 
Q 622 3953 573 3993 
Q 525 4034 450 4034 
Q 369 4034 244 3984 
L 191 4094 
L 1044 4444 
L 1184 4444 
z
" id="TimesNewRomanPSMT-6c" transform="scale(0.015625)"/>
       <path d="M 1822 413 
Q 1381 72 1269 19 
Q 1100 -59 909 -59 
Q 613 -59 420 144 
Q 228 347 228 678 
Q 228 888 322 1041 
Q 450 1253 767 1440 
Q 1084 1628 1822 1897 
L 1822 2009 
Q 1822 2438 1686 2597 
Q 1550 2756 1291 2756 
Q 1094 2756 978 2650 
Q 859 2544 859 2406 
L 866 2225 
Q 866 2081 792 2003 
Q 719 1925 600 1925 
Q 484 1925 411 2006 
Q 338 2088 338 2228 
Q 338 2497 613 2722 
Q 888 2947 1384 2947 
Q 1766 2947 2009 2819 
Q 2194 2722 2281 2516 
Q 2338 2381 2338 1966 
L 2338 994 
Q 2338 584 2353 492 
Q 2369 400 2405 369 
Q 2441 338 2488 338 
Q 2538 338 2575 359 
Q 2641 400 2828 588 
L 2828 413 
Q 2478 -56 2159 -56 
Q 2006 -56 1915 50 
Q 1825 156 1822 413 
z
M 1822 616 
L 1822 1706 
Q 1350 1519 1213 1441 
Q 966 1303 859 1153 
Q 753 1003 753 825 
Q 753 600 887 451 
Q 1022 303 1197 303 
Q 1434 303 1822 616 
z
" id="TimesNewRomanPSMT-61" transform="scale(0.015625)"/>
       <path d="M 1031 3803 
L 1031 2863 
L 1700 2863 
L 1700 2644 
L 1031 2644 
L 1031 788 
Q 1031 509 1111 412 
Q 1191 316 1316 316 
Q 1419 316 1516 380 
Q 1613 444 1666 569 
L 1788 569 
Q 1678 263 1478 108 
Q 1278 -47 1066 -47 
Q 922 -47 784 33 
Q 647 113 581 261 
Q 516 409 516 719 
L 516 2644 
L 63 2644 
L 63 2747 
Q 234 2816 414 2980 
Q 594 3144 734 3369 
Q 806 3488 934 3803 
L 1031 3803 
z
" id="TimesNewRomanPSMT-74" transform="scale(0.015625)"/>
       <path d="M 966 1044 
Q 703 1172 562 1401 
Q 422 1631 422 1909 
Q 422 2334 742 2640 
Q 1063 2947 1563 2947 
Q 1972 2947 2272 2747 
L 2878 2747 
Q 3013 2747 3034 2739 
Q 3056 2731 3066 2713 
Q 3084 2684 3084 2613 
Q 3084 2531 3069 2500 
Q 3059 2484 3036 2475 
Q 3013 2466 2878 2466 
L 2506 2466 
Q 2681 2241 2681 1891 
Q 2681 1491 2375 1206 
Q 2069 922 1553 922 
Q 1341 922 1119 984 
Q 981 866 932 777 
Q 884 688 884 625 
Q 884 572 936 522 
Q 988 472 1138 450 
Q 1225 438 1575 428 
Q 2219 413 2409 384 
Q 2700 344 2873 169 
Q 3047 -6 3047 -263 
Q 3047 -616 2716 -925 
Q 2228 -1381 1444 -1381 
Q 841 -1381 425 -1109 
Q 191 -953 191 -784 
Q 191 -709 225 -634 
Q 278 -519 444 -313 
Q 466 -284 763 25 
Q 600 122 533 198 
Q 466 275 466 372 
Q 466 481 555 628 
Q 644 775 966 1044 
z
M 1509 2797 
Q 1278 2797 1122 2612 
Q 966 2428 966 2047 
Q 966 1553 1178 1281 
Q 1341 1075 1591 1075 
Q 1828 1075 1981 1253 
Q 2134 1431 2134 1813 
Q 2134 2309 1919 2591 
Q 1759 2797 1509 2797 
z
M 934 0 
Q 788 -159 713 -296 
Q 638 -434 638 -550 
Q 638 -700 819 -813 
Q 1131 -1006 1722 -1006 
Q 2284 -1006 2551 -807 
Q 2819 -609 2819 -384 
Q 2819 -222 2659 -153 
Q 2497 -84 2016 -72 
Q 1313 -53 934 0 
z
" id="TimesNewRomanPSMT-67" transform="scale(0.015625)"/>
      </defs>
      <use xlink:href="#TimesNewRomanPSMT-56"/>
      <use x="59.341797" xlink:href="#TimesNewRomanPSMT-6f"/>
      <use x="109.341797" xlink:href="#TimesNewRomanPSMT-6c"/>
      <use x="137.125" xlink:href="#TimesNewRomanPSMT-61"/>
      <use x="181.509766" xlink:href="#TimesNewRomanPSMT-74"/>
      <use x="209.292969" xlink:href="#TimesNewRomanPSMT-61"/>
      <use x="253.677734" xlink:href="#TimesNewRomanPSMT-67"/>
      <use x="303.677734" xlink:href="#TimesNewRomanPSMT-65"/>
      <use x="348.0625" xlink:href="#TimesNewRomanPSMT-20"/>
      <use x="373.0625" xlink:href="#TimesNewRomanPSMT-28"/>
      <use x="406.363281" xlink:href="#TimesNewRomanPSMT-56"/>
      <use x="478.580078" xlink:href="#TimesNewRomanPSMT-29"/>
     </g>
    </g>
   </g>
   <g id="LineCollection_1">
    <path clip-path="url(#pb4532fb8bb)" d="M 78.555057 155.053434 
L 382.918693 155.053434 
" style="fill:none;stroke:#1f77b4;stroke-width:1.5;"/>
   </g>
   <g id="line2d_27">
    <path clip-path="url(#pb4532fb8bb)" d="M 78.555057 155.087633 
L 86.98593 155.028052 
L 87.138111 154.968472 
L 87.32073 155.028052 
L 87.472911 154.998262 
L 87.625093 154.998262 
L 87.807711 154.968472 
L 87.99033 154.998262 
L 93.316693 155.028052 
L 93.438439 155.117423 
L 93.529748 155.057843 
L 93.560184 155.087633 
L 101.351893 155.177003 
L 101.504075 155.177003 
L 106.221711 155.206793 
L 106.252148 155.296164 
L 106.31302 155.266374 
L 106.434766 155.236584 
L 106.617384 155.266374 
L 110.787166 155.355744 
L 110.939348 155.385534 
L 111.09153 155.355744 
L 111.182839 155.355744 
L 111.213275 155.296164 
L 111.304584 155.355744 
L 114.226475 155.445115 
L 114.378657 155.474905 
L 114.409093 155.415325 
L 114.500402 155.474905 
L 114.652584 155.474905 
L 115.10913 155.534485 
L 115.230875 155.594066 
L 115.413493 155.564275 
L 115.656984 155.653646 
L 115.809166 155.653646 
L 116.417893 155.743016 
L 116.600511 155.772807 
L 116.752693 155.743016 
L 116.965748 155.802597 
L 117.574475 155.891967 
L 117.726657 155.951548 
L 117.878839 155.891967 
L 118.03102 155.951548 
L 118.578875 156.040918 
L 118.79193 156.100498 
L 119.613711 156.189869 
L 119.765893 156.189869 
L 120.892039 156.219659 
L 120.952911 156.30903 
L 121.013784 156.279239 
L 121.13553 156.279239 
L 121.257275 156.30903 
L 122.13993 156.3984 
L 122.352984 156.487771 
L 122.505166 156.487771 
L 122.931275 156.577141 
L 123.205202 156.696302 
L 123.631311 156.785672 
L 123.874802 156.875043 
L 124.087857 156.964413 
L 124.300911 157.053784 
L 124.39222 157.083574 
L 124.666148 157.202735 
L 124.879202 157.292105 
L 125.39662 157.649587 
L 125.427057 157.619797 
L 125.457493 157.709167 
L 126.766257 159.109305 
L 127.009748 159.496578 
L 127.283675 159.91364 
L 128.74462 163.011818 
L 129.109857 163.994893 
L 129.444657 164.888598 
L 130.814293 169.208173 
L 131.240402 170.757262 
L 132.640475 175.7918 
L 136.171093 185.860877 
L 136.475457 186.307729 
L 136.77982 186.695001 
L 136.901566 186.784372 
L 137.388548 187.141854 
L 137.510293 187.112064 
L 137.632039 187.201434 
L 137.78422 187.171644 
L 137.966839 187.231224 
L 138.149457 187.201434 
L 138.332075 187.231224 
L 138.636439 187.082274 
L 138.697311 187.022693 
L 139.001675 186.665211 
L 139.062548 186.605631 
L 140.249566 184.103257 
L 140.614802 182.85207 
L 141.619202 178.532495 
L 142.075748 176.149281 
L 143.841057 165.12692 
L 145.545493 150.946799 
L 148.58913 120.113975 
L 150.476184 99.231067 
L 152.637166 77.096969 
L 153.154584 72.211389 
L 154.067675 64.316989 
L 155.254693 55.856579 
L 157.080875 47.366384 
L 157.20262 47.098272 
L 157.446111 46.383306 
L 158.085275 45.37044 
L 158.237457 45.37044 
L 158.359202 45.340654 
L 158.511384 45.400235 
L 159.272293 46.264143 
L 160.276693 49.511278 
L 161.189784 54.516022 
L 161.737639 58.388748 
L 162.22462 62.470004 
L 163.533384 76.352217 
L 164.872584 94.732751 
L 166.607457 123.629215 
L 168.951057 169.237963 
L 170.92942 209.454693 
L 172.907784 247.85422 
L 174.673093 277.018797 
L 175.768802 292.50968 
L 176.986257 306.600432 
L 178.081966 316.312024 
L 178.995057 321.823213 
L 180.090766 325.666144 
L 180.121202 325.636349 
L 180.182075 325.725715 
L 180.39513 326.023615 
L 180.669057 326.321531 
L 180.790802 326.410896 
L 180.97342 326.440675 
L 181.125602 326.351306 
L 181.429966 325.934246 
L 182.556111 322.299846 
L 182.799602 320.959298 
L 184.047493 311.694546 
L 185.66062 294.833318 
L 186.66502 281.815012 
L 189.282548 239.1257 
L 193.269711 158.900774 
L 194.913275 127.382776 
L 196.982948 90.919612 
L 198.443893 69.768588 
L 199.417857 57.941891 
L 201.639711 37.178144 
L 202.004948 34.884301 
L 202.552802 31.875491 
L 203.526766 27.645287 
L 204.683348 24.547112 
L 204.774657 24.517324 
L 205.292075 24.159845 
L 205.322511 24.189633 
L 205.352948 24.13005 
L 205.474693 24.100264 
L 205.779057 24.189633 
L 206.296475 24.845019 
L 207.42262 27.287808 
L 208.76182 32.977735 
L 209.492293 37.029195 
L 210.283639 42.36163 
L 212.44462 57.912106 
L 220.632002 129.051025 
L 224.16262 152.495888 
L 224.680039 154.968472 
L 225.288766 157.887909 
L 225.410511 158.304971 
L 226.354039 162.386224 
L 227.967166 168.254887 
L 228.910693 171.353065 
L 229.458548 173.080894 
L 229.732475 173.825649 
L 230.554257 176.596135 
L 231.771711 180.498646 
L 233.019602 185.801296 
L 233.415275 187.797238 
L 234.29793 192.623245 
L 234.937093 196.257646 
L 236.002366 203.168967 
L 238.954693 222.651732 
L 239.532984 226.703198 
L 240.202584 231.082352 
L 241.90702 240.466258 
L 242.424439 242.938835 
L 242.972293 245.113524 
L 243.24622 246.245551 
L 244.524548 250.833234 
L 244.615857 251.041765 
L 245.102839 252.143997 
L 245.528948 252.412108 
L 245.711566 252.382323 
L 245.92462 252.322743 
L 246.046366 252.26316 
L 246.137675 252.233374 
L 246.68553 251.577988 
L 248.176911 246.900927 
L 249.60742 239.393812 
L 251.068366 228.639556 
L 252.164075 219.196078 
L 252.71193 214.012584 
L 253.472839 206.326725 
L 254.812039 192.146602 
L 258.555711 153.002321 
L 260.960184 132.804587 
L 262.299384 124.373969 
L 263.029857 120.709778 
L 264.825602 114.096359 
L 265.129966 113.262234 
L 265.860439 111.445034 
L 266.712657 109.985318 
L 266.77353 109.925737 
L 266.986584 109.627833 
L 267.230075 109.359722 
L 267.260511 109.389514 
L 267.321384 109.300146 
L 267.504002 109.210773 
L 267.77793 109.09161 
L 268.02142 109.002244 
L 268.264911 108.912872 
L 268.44753 108.942662 
L 268.599711 108.942662 
L 269.056257 109.002244 
L 269.208439 109.09161 
L 269.482366 109.180983 
L 269.756293 109.329932 
L 269.878039 109.359722 
L 270.730257 110.342802 
L 271.917275 112.904754 
L 276.695784 126.608232 
L 276.969711 127.382776 
L 278.704584 132.149203 
L 279.465493 133.817452 
L 279.648111 134.264305 
L 279.800293 134.532417 
L 280.043784 135.03885 
L 280.348148 135.604863 
L 282.722184 140.013808 
L 283.056984 140.490451 
L 283.42222 140.996883 
L 283.452657 140.996883 
L 283.665711 141.384155 
L 284.030948 141.890588 
L 284.335311 142.24807 
L 286.070184 143.82695 
L 286.222366 143.82695 
L 286.404984 143.94611 
L 286.709348 144.00569 
L 286.831093 144.03548 
L 287.470257 143.94611 
L 287.652875 143.856739 
L 287.683311 143.916319 
L 287.744184 143.856739 
L 287.987675 143.737579 
L 288.139857 143.737579 
L 288.322475 143.588627 
L 288.413784 143.558838 
L 288.53553 143.409887 
L 288.565966 143.439677 
L 290.239966 141.652267 
L 290.45302 141.354365 
L 290.848693 140.818142 
L 291.944402 138.911572 
L 292.12702 138.58388 
L 293.070548 136.498568 
L 296.083748 127.323196 
L 296.47942 125.923058 
L 296.966402 124.195228 
L 297.331639 122.944041 
L 297.970802 120.739568 
L 298.336039 119.488381 
L 299.82742 115.377336 
L 299.857857 115.377336 
L 300.070911 114.960276 
L 301.197057 112.994122 
L 301.227493 113.023912 
L 301.288366 112.934547 
L 302.110148 112.279161 
L 302.444948 112.368531 
L 303.327602 113.381397 
L 303.571093 113.91762 
L 304.027639 115.049649 
L 304.484184 116.419992 
L 304.666802 117.015797 
L 305.092911 118.594676 
L 305.732075 121.514113 
L 307.801748 134.294096 
L 309.049639 144.929185 
L 315.89782 217.498036 
L 317.99793 235.104025 
L 318.363166 237.397868 
L 319.00233 241.062064 
L 319.702366 243.95171 
L 320.432839 246.364704 
L 321.650293 248.509599 
L 321.954657 248.688342 
L 322.167711 248.628759 
L 322.472075 248.539394 
L 323.141675 247.735059 
L 324.541748 243.326109 
L 326.915784 231.171718 
L 327.828875 225.154109 
L 331.96822 191.908281 
L 332.820439 183.894726 
L 338.785966 132.298154 
L 342.377457 108.436229 
L 342.925311 105.218891 
L 344.568875 96.222257 
L 346.395057 87.82143 
L 348.647348 81.535704 
L 348.769093 81.267593 
L 349.71262 79.629138 
L 349.834366 79.53977 
L 350.199602 79.063118 
L 350.625711 78.795007 
L 350.869202 78.735436 
L 350.990948 78.646058 
L 351.021384 78.675853 
L 351.234439 78.616273 
L 352.604075 78.705641 
L 352.847566 78.795007 
L 352.999748 78.884384 
L 354.39982 80.403678 
L 355.891202 83.561441 
L 357.047784 87.255422 
L 357.565202 89.25136 
L 357.900002 90.562128 
L 358.721784 94.07737 
L 358.934839 95.000863 
L 359.51313 97.741561 
L 359.878366 99.588551 
L 360.882766 104.831621 
L 361.826293 109.985318 
L 362.343711 112.785591 
L 367.944002 146.299533 
L 368.522293 149.993514 
L 368.978839 152.764 
L 370.013675 159.139096 
L 370.500657 162.058532 
L 371.292002 166.735588 
L 374.213893 184.550109 
L 375.279166 191.133737 
L 375.49222 192.384924 
L 377.409711 204.271198 
L 378.018439 208.173715 
L 378.414111 210.646297 
L 381.549057 228.401235 
L 382.918693 234.150742 
L 382.918693 234.150742 
" style="fill:none;stroke:#0000ff;stroke-linecap:square;stroke-width:1.5;"/>
   </g>
   <g id="line2d_28">
    <path clip-path="url(#pb4532fb8bb)" d="M 78.555057 154.968472 
L 78.768111 154.968472 
L 79.042039 154.983367 
L 79.28553 154.968472 
L 79.589893 154.998262 
L 79.86382 154.983367 
L 83.485748 155.087633 
L 83.729239 155.087633 
L 86.620693 155.191898 
L 86.833748 155.191898 
L 87.077239 155.191898 
L 87.351166 155.206793 
L 87.625093 155.191898 
L 91.24702 155.296164 
L 91.551384 155.325954 
L 97.760402 155.415325 
L 97.912584 155.43022 
L 100.012693 155.51959 
L 100.164875 155.54938 
L 100.834475 155.653646 
L 101.351893 155.802597 
L 101.504075 155.832387 
L 101.808439 155.981338 
L 102.63022 156.502666 
L 103.817239 157.813433 
L 104.791202 159.436997 
L 106.769566 164.546011 
L 108.260948 169.282648 
L 108.565311 170.280618 
L 109.447966 173.289425 
L 111.852439 180.007108 
L 113.191639 182.390322 
L 114.196039 183.224447 
L 114.987384 183.120181 
L 115.383057 182.866965 
L 115.535239 182.777594 
L 116.11353 182.077525 
L 117.02662 180.051794 
L 118.12233 176.506763 
L 119.735457 169.75929 
L 121.13553 162.356434 
L 124.209602 142.099119 
L 125.39662 134.18983 
L 128.40982 117.149853 
L 129.901202 110.387487 
L 131.240402 106.187071 
L 131.696948 105.055045 
L 133.036148 101.465329 
L 133.827493 99.811975 
L 134.253602 99.201277 
L 134.497093 98.962955 
L 134.892766 98.426732 
L 135.86673 97.16065 
L 135.988475 97.115965 
L 137.11462 96.147784 
L 138.149457 96.237157 
L 139.032111 97.711771 
L 140.12782 100.660993 
L 141.649639 106.261547 
L 143.110584 113.947412 
L 145.393311 130.346898 
L 146.48902 139.194577 
L 147.949966 153.047006 
L 149.776148 171.055163 
L 154.18942 213.193359 
L 155.52862 222.860264 
L 156.86782 230.069487 
L 157.53742 232.795282 
L 158.389639 235.342349 
L 159.424475 237.129752 
L 160.063639 237.606404 
L 160.854984 237.502129 
L 161.128911 237.263812 
L 161.737639 236.176469 
L 162.802911 233.316617 
L 163.685566 229.443893 
L 165.207384 219.851459 
L 165.99873 213.684892 
L 167.490111 200.353796 
L 172.907784 151.00638 
L 174.94702 135.902765 
L 175.586184 132.268364 
L 176.71233 126.801868 
L 177.229748 124.999563 
L 178.05153 122.884461 
L 179.238548 121.8567 
L 179.63422 121.752434 
L 179.847275 121.767329 
L 180.608184 121.871595 
L 181.369093 122.73551 
L 182.495239 125.759212 
L 184.41273 133.713188 
L 191.200039 166.378107 
L 193.36102 174.421452 
L 193.969748 176.193968 
L 194.913275 178.621866 
L 195.065457 178.904873 
L 196.282911 181.615778 
L 196.404657 181.779624 
L 197.13513 182.658434 
L 197.652548 183.015916 
L 197.865602 183.030811 
L 198.078657 182.956335 
L 198.322148 182.85207 
L 198.870002 182.464798 
L 199.113493 182.077525 
L 200.604875 177.355784 
L 202.218002 169.75929 
L 202.918039 165.782303 
L 203.922439 159.258256 
L 205.352948 148.906173 
L 206.631275 140.743667 
L 208.000911 131.329973 
L 209.887966 118.296775 
L 210.801057 112.785593 
L 212.231566 105.665743 
L 213.78382 100.035404 
L 214.483857 98.024565 
L 214.849093 97.264916 
L 215.853493 95.969046 
L 216.21873 95.894566 
L 216.46222 95.998836 
L 216.705711 96.103102 
L 217.010075 96.25205 
L 217.46662 96.579742 
L 218.288402 97.592608 
L 218.592766 98.039458 
L 219.871093 100.780156 
L 221.727711 105.606161 
L 222.640802 108.629863 
L 224.49742 115.362443 
L 227.388875 127.621097 
L 227.754111 129.214871 
L 228.362839 131.895987 
L 232.045639 148.593376 
L 234.024002 160.837135 
L 238.467711 192.63814 
L 239.56342 198.908973 
L 240.963493 205.85008 
L 242.941857 213.163566 
L 243.550584 214.936084 
L 244.189748 216.753284 
L 245.863748 220.58132 
L 247.02033 222.100619 
L 247.537748 222.472994 
L 247.963857 222.741105 
L 248.207348 222.845371 
L 248.663893 222.949636 
L 249.120439 222.860264 
L 249.333493 222.785791 
L 249.759602 222.681525 
L 251.768402 221.579289 
L 254.994657 218.570484 
L 255.664257 218.123627 
L 256.212111 217.736357 
L 257.155639 217.393772 
L 259.925348 217.289507 
L 261.629784 216.351117 
L 262.816802 214.414753 
L 264.156002 210.854828 
L 264.947348 208.218401 
L 266.134366 202.498683 
L 267.138766 195.944846 
L 268.204039 187.886608 
L 269.421493 176.864245 
L 271.095493 159.436997 
L 273.347784 131.70235 
L 278.765457 61.516716 
L 280.16553 47.619605 
L 281.200366 39.471991 
L 281.778657 35.792908 
L 282.904802 30.832838 
L 283.270039 29.849767 
L 283.787457 29.075218 
L 284.061384 28.866689 
L 284.274439 28.807106 
L 284.548366 28.896474 
L 285.035348 29.522075 
L 285.978875 32.084027 
L 287.074584 37.38668 
L 288.018111 44.059675 
L 289.174693 54.605395 
L 290.54433 69.098311 
L 292.248766 89.534367 
L 295.931566 134.979269 
L 299.857857 179.798577 
L 301.075311 191.744435 
L 302.810184 206.862943 
L 303.753711 213.431678 
L 304.697239 218.347055 
L 306.036439 223.768864 
L 307.466948 228.296972 
L 307.710439 228.848087 
L 308.86702 230.873819 
L 309.414875 231.559 
L 310.236657 232.571863 
L 311.362802 233.033608 
L 311.788911 232.750599 
L 311.910657 232.646334 
L 312.123711 232.437803 
L 313.188984 230.680185 
L 313.462911 229.920533 
L 314.31513 227.075575 
L 315.22822 223.053902 
L 316.445675 217.200134 
L 318.058802 207.935392 
L 319.945857 195.766108 
L 321.406802 185.756611 
L 323.293857 173.587328 
L 327.433202 149.919039 
L 328.163675 146.627225 
L 328.802839 144.020585 
L 330.38553 138.971152 
L 330.598584 138.464719 
L 331.116002 137.288006 
L 331.907348 135.977239 
L 332.424766 135.411227 
L 332.97262 135.023955 
L 333.216111 134.919688 
L 333.824839 134.740948 
L 334.31182 134.845213 
L 334.768366 135.143116 
L 335.194475 135.470807 
L 335.65102 135.947448 
L 335.803202 136.12619 
L 336.41193 136.856051 
L 336.564111 136.960316 
L 336.807602 137.213532 
L 337.051093 137.422062 
L 337.294584 137.67528 
L 339.577311 139.760591 
L 340.246911 140.192548 
L 340.459966 140.386184 
L 342.164402 141.116043 
L 342.43833 141.101148 
L 342.77313 140.996883 
L 347.064657 138.792411 
L 347.490766 138.360453 
L 349.438693 136.602832 
L 351.325748 135.798499 
L 351.72142 135.872974 
L 352.05622 135.977239 
L 352.938875 136.528358 
L 353.304111 136.870944 
L 354.308511 138.002972 
L 354.73462 138.777516 
L 355.191166 139.641431 
L 355.799893 141.071359 
L 358.84353 148.787012 
L 359.42182 150.395681 
L 360.669711 153.166167 
L 361.826293 155.668541 
L 363.591602 159.720004 
L 363.77422 160.047696 
L 365.935202 164.039578 
L 366.817857 165.141814 
L 368.339675 165.767408 
L 368.55273 165.782303 
L 369.313639 165.678038 
L 369.983239 164.873703 
L 370.622402 163.741677 
L 371.47462 161.939371 
L 371.931166 161.090352 
L 372.357275 160.330702 
L 373.848657 157.172945 
L 374.731311 154.923787 
L 375.91833 152.361832 
L 376.435748 151.15533 
L 376.648802 150.648897 
L 377.653202 147.908202 
L 378.93153 144.497228 
L 379.022839 144.288697 
L 379.93593 141.950168 
L 382.918693 134.696262 
L 382.918693 134.696262 
" style="fill:none;stroke:#ff0000;stroke-linecap:square;stroke-width:1.5;"/>
   </g>
   <g id="line2d_29">
    <path clip-path="url(#pb4532fb8bb)" d="M 128.988111 163.667201 
" style="fill:none;stroke:#ffffff;stroke-linecap:square;stroke-width:1.5;"/>
    <defs>
     <path d="M 0 -5 
L -1.12257 -1.545085 
L -4.755283 -1.545085 
L -1.816356 0.59017 
L -2.938926 4.045085 
L -0 1.90983 
L 2.938926 4.045085 
L 1.816356 0.59017 
L 4.755283 -1.545085 
L 1.12257 -1.545085 
z
" id="m7a60db4f32" style="stroke:#ffffff;stroke-linejoin:bevel;"/>
    </defs>
    <g clip-path="url(#pb4532fb8bb)">
     <use style="fill:#0000ff;stroke:#ffffff;stroke-linejoin:bevel;" x="128.988111" xlink:href="#m7a60db4f32" y="163.667201"/>
    </g>
   </g>
   <g id="line2d_30">
    <path clip-path="url(#pb4532fb8bb)" d="M 105.64342 161.432939 
" style="fill:none;stroke:#ffffff;stroke-linecap:square;stroke-width:1.5;"/>
    <defs>
     <path d="M 0 -5 
L -1.12257 -1.545085 
L -4.755283 -1.545085 
L -1.816356 0.59017 
L -2.938926 4.045085 
L -0 1.90983 
L 2.938926 4.045085 
L 1.816356 0.59017 
L 4.755283 -1.545085 
L 1.12257 -1.545085 
z
" id="m5fe41c227e" style="stroke:#ffffff;stroke-linejoin:bevel;"/>
    </defs>
    <g clip-path="url(#pb4532fb8bb)">
     <use style="fill:#ff0000;stroke:#ffffff;stroke-linejoin:bevel;" x="105.64342" xlink:href="#m5fe41c227e" y="161.432939"/>
    </g>
   </g>
   <g id="patch_3">
    <path d="M 63.336875 341.590469 
L 63.336875 8.950469 
" style="fill:none;stroke:#000000;stroke-linecap:square;stroke-linejoin:miter;stroke-width:0.8;"/>
   </g>
   <g id="patch_4">
    <path d="M 398.136875 341.590469 
L 398.136875 8.950469 
" style="fill:none;stroke:#000000;stroke-linecap:square;stroke-linejoin:miter;stroke-width:0.8;"/>
   </g>
   <g id="patch_5">
    <path d="M 63.336875 341.590469 
L 398.136875 341.590469 
" style="fill:none;stroke:#000000;stroke-linecap:square;stroke-linejoin:miter;stroke-width:0.8;"/>
   </g>
   <g id="patch_6">
    <path d="M 63.336875 8.950469 
L 398.136875 8.950469 
" style="fill:none;stroke:#000000;stroke-linecap:square;stroke-linejoin:miter;stroke-width:0.8;"/>
   </g>
   <g id="text_16">
    <g id="patch_7">
     <path d="M 75.036875 332.993157 
L 166.79375 332.993157 
L 166.79375 295.510782 
L 75.036875 295.510782 
z
" style="fill:#ffffff;stroke:#000000;stroke-linejoin:miter;stroke-width:0.75;"/>
    </g>
    <!-- Auto_00041 -->
    <g transform="translate(80.076875 310.272032)scale(0.14 -0.14)">
     <defs>
      <path d="M 2928 1419 
L 1288 1419 
L 1000 750 
Q 894 503 894 381 
Q 894 284 986 211 
Q 1078 138 1384 116 
L 1384 0 
L 50 0 
L 50 116 
Q 316 163 394 238 
Q 553 388 747 847 
L 2238 4334 
L 2347 4334 
L 3822 809 
Q 4000 384 4145 257 
Q 4291 131 4550 116 
L 4550 0 
L 2878 0 
L 2878 116 
Q 3131 128 3220 200 
Q 3309 272 3309 375 
Q 3309 513 3184 809 
L 2928 1419 
z
M 2841 1650 
L 2122 3363 
L 1384 1650 
L 2841 1650 
z
" id="TimesNewRomanPSMT-41" transform="scale(0.015625)"/>
      <path d="M 2709 2863 
L 2709 1128 
Q 2709 631 2732 520 
Q 2756 409 2807 365 
Q 2859 322 2928 322 
Q 3025 322 3147 375 
L 3191 266 
L 2334 -88 
L 2194 -88 
L 2194 519 
Q 1825 119 1631 15 
Q 1438 -88 1222 -88 
Q 981 -88 804 51 
Q 628 191 559 409 
Q 491 628 491 1028 
L 491 2306 
Q 491 2509 447 2587 
Q 403 2666 317 2708 
Q 231 2750 6 2747 
L 6 2863 
L 1009 2863 
L 1009 947 
Q 1009 547 1148 422 
Q 1288 297 1484 297 
Q 1619 297 1789 381 
Q 1959 466 2194 703 
L 2194 2325 
Q 2194 2569 2105 2655 
Q 2016 2741 1734 2747 
L 1734 2863 
L 2709 2863 
z
" id="TimesNewRomanPSMT-75" transform="scale(0.015625)"/>
      <path d="M 3256 -1381 
L -53 -1381 
L -53 -1119 
L 3256 -1119 
L 3256 -1381 
z
" id="TimesNewRomanPSMT-5f" transform="scale(0.015625)"/>
     </defs>
     <use xlink:href="#TimesNewRomanPSMT-41"/>
     <use x="72.216797" xlink:href="#TimesNewRomanPSMT-75"/>
     <use x="122.216797" xlink:href="#TimesNewRomanPSMT-74"/>
     <use x="150" xlink:href="#TimesNewRomanPSMT-6f"/>
     <use x="200" xlink:href="#TimesNewRomanPSMT-5f"/>
     <use x="250" xlink:href="#TimesNewRomanPSMT-30"/>
     <use x="300" xlink:href="#TimesNewRomanPSMT-30"/>
     <use x="350" xlink:href="#TimesNewRomanPSMT-30"/>
     <use x="400" xlink:href="#TimesNewRomanPSMT-34"/>
     <use x="450" xlink:href="#TimesNewRomanPSMT-31"/>
    </g>
    <!-- Vs: 260.62m/s -->
    <g transform="translate(80.076875 324.958469)scale(0.14 -0.14)">
     <defs>
      <path d="M 903 2950 
Q 1047 2950 1148 2848 
Q 1250 2747 1250 2603 
Q 1250 2459 1148 2357 
Q 1047 2256 903 2256 
Q 759 2256 657 2357 
Q 556 2459 556 2603 
Q 556 2747 657 2848 
Q 759 2950 903 2950 
z
M 897 609 
Q 1044 609 1145 506 
Q 1247 403 1247 259 
Q 1247 116 1144 14 
Q 1041 -88 897 -88 
Q 753 -88 651 14 
Q 550 116 550 259 
Q 550 403 651 506 
Q 753 609 897 609 
z
" id="TimesNewRomanPSMT-3a" transform="scale(0.015625)"/>
      <path d="M 1794 4444 
L 259 -88 
L 9 -88 
L 1544 4444 
L 1794 4444 
z
" id="TimesNewRomanPSMT-2f" transform="scale(0.015625)"/>
     </defs>
     <use xlink:href="#TimesNewRomanPSMT-56"/>
     <use x="72.216797" xlink:href="#TimesNewRomanPSMT-73"/>
     <use x="111.132812" xlink:href="#TimesNewRomanPSMT-3a"/>
     <use x="138.916016" xlink:href="#TimesNewRomanPSMT-20"/>
     <use x="163.916016" xlink:href="#TimesNewRomanPSMT-32"/>
     <use x="213.916016" xlink:href="#TimesNewRomanPSMT-36"/>
     <use x="263.916016" xlink:href="#TimesNewRomanPSMT-30"/>
     <use x="313.916016" xlink:href="#TimesNewRomanPSMT-2e"/>
     <use x="338.916016" xlink:href="#TimesNewRomanPSMT-36"/>
     <use x="388.916016" xlink:href="#TimesNewRomanPSMT-32"/>
     <use x="438.916016" xlink:href="#TimesNewRomanPSMT-6d"/>
     <use x="516.699219" xlink:href="#TimesNewRomanPSMT-2f"/>
     <use x="544.482422" xlink:href="#TimesNewRomanPSMT-73"/>
    </g>
   </g>
  </g>
 </g>
 <defs>
  <clipPath id="pb4532fb8bb">
   <rect height="332.64" width="334.8" x="63.336875" y="8.950469"/>
  </clipPath>
 </defs>
</svg>
