<?xml version="1.0" encoding="utf-8" standalone="no"?>
<!DOCTYPE svg PUBLIC "-//W3C//DTD SVG 1.1//EN"
  "http://www.w3.org/Graphics/SVG/1.1/DTD/svg11.dtd">
<svg height="383.471875pt" version="1.1" viewBox="0 0 421.086875 383.471875" width="421.086875pt" xmlns="http://www.w3.org/2000/svg" xmlns:xlink="http://www.w3.org/1999/xlink">
 <metadata>
  <rdf:RDF xmlns:cc="http://creativecommons.org/ns#" xmlns:dc="http://purl.org/dc/elements/1.1/" xmlns:rdf="http://www.w3.org/1999/02/22-rdf-syntax-ns#">
   <cc:Work>
    <dc:type rdf:resource="http://purl.org/dc/dcmitype/StillImage"/>
    <dc:date>2021-06-11T14:39:38.357550</dc:date>
    <dc:format>image/svg+xml</dc:format>
    <dc:creator>
     <cc:Agent>
      <dc:title>Matplotlib v3.4.2, https://matplotlib.org/</dc:title>
     </cc:Agent>
    </dc:creator>
   </cc:Work>
  </rdf:RDF>
 </metadata>
 <defs>
  <style type="text/css">*{stroke-linecap:butt;stroke-linejoin:round;}</style>
 </defs>
 <g id="figure_1">
  <g id="patch_1">
   <path d="M 0 383.471875 
L 421.086875 383.471875 
L 421.086875 0 
L 0 0 
z
" style="fill:#ffffff;"/>
  </g>
  <g id="axes_1">
   <g id="patch_2">
    <path d="M 63.336875 339.84 
L 398.136875 339.84 
L 398.136875 7.2 
L 63.336875 7.2 
z
" style="fill:#ffffff;"/>
   </g>
   <g id="matplotlib.axis_1">
    <g id="xtick_1">
     <g id="line2d_1">
      <path clip-path="url(#p8368e03a97)" d="M 93.773239 339.84 
L 93.773239 7.2 
" style="fill:none;stroke:#000000;stroke-dasharray:0.5,0.825;stroke-dashoffset:0;stroke-width:0.5;"/>
     </g>
     <g id="line2d_2">
      <defs>
       <path d="M 0 0 
L 0 3.5 
" id="mc39b227987" style="stroke:#000000;stroke-width:0.8;"/>
      </defs>
      <g>
       <use style="stroke:#000000;stroke-width:0.8;" x="93.773239" xlink:href="#mc39b227987" y="339.84"/>
      </g>
     </g>
     <g id="text_1">
      <!-- 0.000 -->
      <g transform="translate(78.023239 356.56125)scale(0.14 -0.14)">
       <defs>
        <path d="M 231 2094 
Q 231 2819 450 3342 
Q 669 3866 1031 4122 
Q 1313 4325 1613 4325 
Q 2100 4325 2488 3828 
Q 2972 3213 2972 2159 
Q 2972 1422 2759 906 
Q 2547 391 2217 158 
Q 1888 -75 1581 -75 
Q 975 -75 572 641 
Q 231 1244 231 2094 
z
M 844 2016 
Q 844 1141 1059 588 
Q 1238 122 1591 122 
Q 1759 122 1940 273 
Q 2122 425 2216 781 
Q 2359 1319 2359 2297 
Q 2359 3022 2209 3506 
Q 2097 3866 1919 4016 
Q 1791 4119 1609 4119 
Q 1397 4119 1231 3928 
Q 1006 3669 925 3112 
Q 844 2556 844 2016 
z
" id="TimesNewRomanPSMT-30" transform="scale(0.015625)"/>
        <path d="M 800 606 
Q 947 606 1047 504 
Q 1147 403 1147 259 
Q 1147 116 1045 14 
Q 944 -88 800 -88 
Q 656 -88 554 14 
Q 453 116 453 259 
Q 453 406 554 506 
Q 656 606 800 606 
z
" id="TimesNewRomanPSMT-2e" transform="scale(0.015625)"/>
       </defs>
       <use xlink:href="#TimesNewRomanPSMT-30"/>
       <use x="50" xlink:href="#TimesNewRomanPSMT-2e"/>
       <use x="75" xlink:href="#TimesNewRomanPSMT-30"/>
       <use x="125" xlink:href="#TimesNewRomanPSMT-30"/>
       <use x="175" xlink:href="#TimesNewRomanPSMT-30"/>
      </g>
     </g>
    </g>
    <g id="xtick_2">
     <g id="line2d_3">
      <path clip-path="url(#p8368e03a97)" d="M 154.645966 339.84 
L 154.645966 7.2 
" style="fill:none;stroke:#000000;stroke-dasharray:0.5,0.825;stroke-dashoffset:0;stroke-width:0.5;"/>
     </g>
     <g id="line2d_4">
      <g>
       <use style="stroke:#000000;stroke-width:0.8;" x="154.645966" xlink:href="#mc39b227987" y="339.84"/>
      </g>
     </g>
     <g id="text_2">
      <!-- 0.001 -->
      <g transform="translate(138.895966 356.56125)scale(0.14 -0.14)">
       <defs>
        <path d="M 750 3822 
L 1781 4325 
L 1884 4325 
L 1884 747 
Q 1884 391 1914 303 
Q 1944 216 2037 169 
Q 2131 122 2419 116 
L 2419 0 
L 825 0 
L 825 116 
Q 1125 122 1212 167 
Q 1300 213 1334 289 
Q 1369 366 1369 747 
L 1369 3034 
Q 1369 3497 1338 3628 
Q 1316 3728 1258 3775 
Q 1200 3822 1119 3822 
Q 1003 3822 797 3725 
L 750 3822 
z
" id="TimesNewRomanPSMT-31" transform="scale(0.015625)"/>
       </defs>
       <use xlink:href="#TimesNewRomanPSMT-30"/>
       <use x="50" xlink:href="#TimesNewRomanPSMT-2e"/>
       <use x="75" xlink:href="#TimesNewRomanPSMT-30"/>
       <use x="125" xlink:href="#TimesNewRomanPSMT-30"/>
       <use x="175" xlink:href="#TimesNewRomanPSMT-31"/>
      </g>
     </g>
    </g>
    <g id="xtick_3">
     <g id="line2d_5">
      <path clip-path="url(#p8368e03a97)" d="M 215.518693 339.84 
L 215.518693 7.2 
" style="fill:none;stroke:#000000;stroke-dasharray:0.5,0.825;stroke-dashoffset:0;stroke-width:0.5;"/>
     </g>
     <g id="line2d_6">
      <g>
       <use style="stroke:#000000;stroke-width:0.8;" x="215.518693" xlink:href="#mc39b227987" y="339.84"/>
      </g>
     </g>
     <g id="text_3">
      <!-- 0.002 -->
      <g transform="translate(199.768693 356.56125)scale(0.14 -0.14)">
       <defs>
        <path d="M 2934 816 
L 2638 0 
L 138 0 
L 138 116 
Q 1241 1122 1691 1759 
Q 2141 2397 2141 2925 
Q 2141 3328 1894 3587 
Q 1647 3847 1303 3847 
Q 991 3847 742 3664 
Q 494 3481 375 3128 
L 259 3128 
Q 338 3706 661 4015 
Q 984 4325 1469 4325 
Q 1984 4325 2329 3994 
Q 2675 3663 2675 3213 
Q 2675 2891 2525 2569 
Q 2294 2063 1775 1497 
Q 997 647 803 472 
L 1909 472 
Q 2247 472 2383 497 
Q 2519 522 2628 598 
Q 2738 675 2819 816 
L 2934 816 
z
" id="TimesNewRomanPSMT-32" transform="scale(0.015625)"/>
       </defs>
       <use xlink:href="#TimesNewRomanPSMT-30"/>
       <use x="50" xlink:href="#TimesNewRomanPSMT-2e"/>
       <use x="75" xlink:href="#TimesNewRomanPSMT-30"/>
       <use x="125" xlink:href="#TimesNewRomanPSMT-30"/>
       <use x="175" xlink:href="#TimesNewRomanPSMT-32"/>
      </g>
     </g>
    </g>
    <g id="xtick_4">
     <g id="line2d_7">
      <path clip-path="url(#p8368e03a97)" d="M 276.39142 339.84 
L 276.39142 7.2 
" style="fill:none;stroke:#000000;stroke-dasharray:0.5,0.825;stroke-dashoffset:0;stroke-width:0.5;"/>
     </g>
     <g id="line2d_8">
      <g>
       <use style="stroke:#000000;stroke-width:0.8;" x="276.39142" xlink:href="#mc39b227987" y="339.84"/>
      </g>
     </g>
     <g id="text_4">
      <!-- 0.003 -->
      <g transform="translate(260.64142 356.56125)scale(0.14 -0.14)">
       <defs>
        <path d="M 325 3431 
Q 506 3859 782 4092 
Q 1059 4325 1472 4325 
Q 1981 4325 2253 3994 
Q 2459 3747 2459 3466 
Q 2459 3003 1878 2509 
Q 2269 2356 2469 2072 
Q 2669 1788 2669 1403 
Q 2669 853 2319 450 
Q 1863 -75 997 -75 
Q 569 -75 414 31 
Q 259 138 259 259 
Q 259 350 332 419 
Q 406 488 509 488 
Q 588 488 669 463 
Q 722 447 909 348 
Q 1097 250 1169 231 
Q 1284 197 1416 197 
Q 1734 197 1970 444 
Q 2206 691 2206 1028 
Q 2206 1275 2097 1509 
Q 2016 1684 1919 1775 
Q 1784 1900 1550 2001 
Q 1316 2103 1072 2103 
L 972 2103 
L 972 2197 
Q 1219 2228 1467 2375 
Q 1716 2522 1828 2728 
Q 1941 2934 1941 3181 
Q 1941 3503 1739 3701 
Q 1538 3900 1238 3900 
Q 753 3900 428 3381 
L 325 3431 
z
" id="TimesNewRomanPSMT-33" transform="scale(0.015625)"/>
       </defs>
       <use xlink:href="#TimesNewRomanPSMT-30"/>
       <use x="50" xlink:href="#TimesNewRomanPSMT-2e"/>
       <use x="75" xlink:href="#TimesNewRomanPSMT-30"/>
       <use x="125" xlink:href="#TimesNewRomanPSMT-30"/>
       <use x="175" xlink:href="#TimesNewRomanPSMT-33"/>
      </g>
     </g>
    </g>
    <g id="xtick_5">
     <g id="line2d_9">
      <path clip-path="url(#p8368e03a97)" d="M 337.264148 339.84 
L 337.264148 7.2 
" style="fill:none;stroke:#000000;stroke-dasharray:0.5,0.825;stroke-dashoffset:0;stroke-width:0.5;"/>
     </g>
     <g id="line2d_10">
      <g>
       <use style="stroke:#000000;stroke-width:0.8;" x="337.264148" xlink:href="#mc39b227987" y="339.84"/>
      </g>
     </g>
     <g id="text_5">
      <!-- 0.004 -->
      <g transform="translate(321.514148 356.56125)scale(0.14 -0.14)">
       <defs>
        <path d="M 2978 1563 
L 2978 1119 
L 2409 1119 
L 2409 0 
L 1894 0 
L 1894 1119 
L 100 1119 
L 100 1519 
L 2066 4325 
L 2409 4325 
L 2409 1563 
L 2978 1563 
z
M 1894 1563 
L 1894 3666 
L 406 1563 
L 1894 1563 
z
" id="TimesNewRomanPSMT-34" transform="scale(0.015625)"/>
       </defs>
       <use xlink:href="#TimesNewRomanPSMT-30"/>
       <use x="50" xlink:href="#TimesNewRomanPSMT-2e"/>
       <use x="75" xlink:href="#TimesNewRomanPSMT-30"/>
       <use x="125" xlink:href="#TimesNewRomanPSMT-30"/>
       <use x="175" xlink:href="#TimesNewRomanPSMT-34"/>
      </g>
     </g>
    </g>
    <g id="xtick_6">
     <g id="line2d_11">
      <path clip-path="url(#p8368e03a97)" d="M 398.136875 339.84 
L 398.136875 7.2 
" style="fill:none;stroke:#000000;stroke-dasharray:0.5,0.825;stroke-dashoffset:0;stroke-width:0.5;"/>
     </g>
     <g id="line2d_12">
      <g>
       <use style="stroke:#000000;stroke-width:0.8;" x="398.136875" xlink:href="#mc39b227987" y="339.84"/>
      </g>
     </g>
     <g id="text_6">
      <!-- 0.005 -->
      <g transform="translate(382.386875 356.56125)scale(0.14 -0.14)">
       <defs>
        <path d="M 2778 4238 
L 2534 3706 
L 1259 3706 
L 981 3138 
Q 1809 3016 2294 2522 
Q 2709 2097 2709 1522 
Q 2709 1188 2573 903 
Q 2438 619 2231 419 
Q 2025 219 1772 97 
Q 1413 -75 1034 -75 
Q 653 -75 479 54 
Q 306 184 306 341 
Q 306 428 378 495 
Q 450 563 559 563 
Q 641 563 702 538 
Q 763 513 909 409 
Q 1144 247 1384 247 
Q 1750 247 2026 523 
Q 2303 800 2303 1197 
Q 2303 1581 2056 1914 
Q 1809 2247 1375 2428 
Q 1034 2569 447 2591 
L 1259 4238 
L 2778 4238 
z
" id="TimesNewRomanPSMT-35" transform="scale(0.015625)"/>
       </defs>
       <use xlink:href="#TimesNewRomanPSMT-30"/>
       <use x="50" xlink:href="#TimesNewRomanPSMT-2e"/>
       <use x="75" xlink:href="#TimesNewRomanPSMT-30"/>
       <use x="125" xlink:href="#TimesNewRomanPSMT-30"/>
       <use x="175" xlink:href="#TimesNewRomanPSMT-35"/>
      </g>
     </g>
    </g>
    <g id="text_7">
     <!-- Time (sec) -->
     <g transform="translate(200.858906 373.277188)scale(0.14 -0.14)">
      <defs>
       <path d="M 3703 4238 
L 3750 3244 
L 3631 3244 
Q 3597 3506 3538 3619 
Q 3441 3800 3280 3886 
Q 3119 3972 2856 3972 
L 2259 3972 
L 2259 734 
Q 2259 344 2344 247 
Q 2463 116 2709 116 
L 2856 116 
L 2856 0 
L 1059 0 
L 1059 116 
L 1209 116 
Q 1478 116 1591 278 
Q 1659 378 1659 734 
L 1659 3972 
L 1150 3972 
Q 853 3972 728 3928 
Q 566 3869 450 3700 
Q 334 3531 313 3244 
L 194 3244 
L 244 4238 
L 3703 4238 
z
" id="TimesNewRomanPSMT-54" transform="scale(0.015625)"/>
       <path d="M 928 4444 
Q 1059 4444 1151 4351 
Q 1244 4259 1244 4128 
Q 1244 3997 1151 3903 
Q 1059 3809 928 3809 
Q 797 3809 703 3903 
Q 609 3997 609 4128 
Q 609 4259 701 4351 
Q 794 4444 928 4444 
z
M 1188 2947 
L 1188 647 
Q 1188 378 1227 289 
Q 1266 200 1342 156 
Q 1419 113 1622 113 
L 1622 0 
L 231 0 
L 231 113 
Q 441 113 512 153 
Q 584 194 626 287 
Q 669 381 669 647 
L 669 1750 
Q 669 2216 641 2353 
Q 619 2453 572 2492 
Q 525 2531 444 2531 
Q 356 2531 231 2484 
L 188 2597 
L 1050 2947 
L 1188 2947 
z
" id="TimesNewRomanPSMT-69" transform="scale(0.015625)"/>
       <path d="M 1050 2338 
Q 1363 2650 1419 2697 
Q 1559 2816 1721 2881 
Q 1884 2947 2044 2947 
Q 2313 2947 2506 2790 
Q 2700 2634 2766 2338 
Q 3088 2713 3309 2830 
Q 3531 2947 3766 2947 
Q 3994 2947 4170 2830 
Q 4347 2713 4450 2447 
Q 4519 2266 4519 1878 
L 4519 647 
Q 4519 378 4559 278 
Q 4591 209 4675 161 
Q 4759 113 4950 113 
L 4950 0 
L 3538 0 
L 3538 113 
L 3597 113 
Q 3781 113 3884 184 
Q 3956 234 3988 344 
Q 4000 397 4000 647 
L 4000 1878 
Q 4000 2228 3916 2372 
Q 3794 2572 3525 2572 
Q 3359 2572 3192 2489 
Q 3025 2406 2788 2181 
L 2781 2147 
L 2788 2013 
L 2788 647 
Q 2788 353 2820 281 
Q 2853 209 2943 161 
Q 3034 113 3253 113 
L 3253 0 
L 1806 0 
L 1806 113 
Q 2044 113 2133 169 
Q 2222 225 2256 338 
Q 2272 391 2272 647 
L 2272 1878 
Q 2272 2228 2169 2381 
Q 2031 2581 1784 2581 
Q 1616 2581 1450 2491 
Q 1191 2353 1050 2181 
L 1050 647 
Q 1050 366 1089 281 
Q 1128 197 1204 155 
Q 1281 113 1516 113 
L 1516 0 
L 100 0 
L 100 113 
Q 297 113 375 155 
Q 453 197 493 289 
Q 534 381 534 647 
L 534 1741 
Q 534 2213 506 2350 
Q 484 2453 437 2492 
Q 391 2531 309 2531 
Q 222 2531 100 2484 
L 53 2597 
L 916 2947 
L 1050 2947 
L 1050 2338 
z
" id="TimesNewRomanPSMT-6d" transform="scale(0.015625)"/>
       <path d="M 681 1784 
Q 678 1147 991 784 
Q 1303 422 1725 422 
Q 2006 422 2214 576 
Q 2422 731 2563 1106 
L 2659 1044 
Q 2594 616 2278 264 
Q 1963 -88 1488 -88 
Q 972 -88 605 314 
Q 238 716 238 1394 
Q 238 2128 614 2539 
Q 991 2950 1559 2950 
Q 2041 2950 2350 2633 
Q 2659 2316 2659 1784 
L 681 1784 
z
M 681 1966 
L 2006 1966 
Q 1991 2241 1941 2353 
Q 1863 2528 1708 2628 
Q 1553 2728 1384 2728 
Q 1125 2728 920 2526 
Q 716 2325 681 1966 
z
" id="TimesNewRomanPSMT-65" transform="scale(0.015625)"/>
       <path id="TimesNewRomanPSMT-20" transform="scale(0.015625)"/>
       <path d="M 1988 -1253 
L 1988 -1369 
Q 1516 -1131 1200 -813 
Q 750 -359 506 256 
Q 263 872 263 1534 
Q 263 2503 741 3301 
Q 1219 4100 1988 4444 
L 1988 4313 
Q 1603 4100 1356 3731 
Q 1109 3363 987 2797 
Q 866 2231 866 1616 
Q 866 947 969 400 
Q 1050 -31 1165 -292 
Q 1281 -553 1476 -793 
Q 1672 -1034 1988 -1253 
z
" id="TimesNewRomanPSMT-28" transform="scale(0.015625)"/>
       <path d="M 2050 2947 
L 2050 1972 
L 1947 1972 
Q 1828 2431 1642 2597 
Q 1456 2763 1169 2763 
Q 950 2763 815 2647 
Q 681 2531 681 2391 
Q 681 2216 781 2091 
Q 878 1963 1175 1819 
L 1631 1597 
Q 2266 1288 2266 781 
Q 2266 391 1970 151 
Q 1675 -88 1309 -88 
Q 1047 -88 709 6 
Q 606 38 541 38 
Q 469 38 428 -44 
L 325 -44 
L 325 978 
L 428 978 
Q 516 541 762 319 
Q 1009 97 1316 97 
Q 1531 97 1667 223 
Q 1803 350 1803 528 
Q 1803 744 1651 891 
Q 1500 1038 1047 1263 
Q 594 1488 453 1669 
Q 313 1847 313 2119 
Q 313 2472 555 2709 
Q 797 2947 1181 2947 
Q 1350 2947 1591 2875 
Q 1750 2828 1803 2828 
Q 1853 2828 1881 2850 
Q 1909 2872 1947 2947 
L 2050 2947 
z
" id="TimesNewRomanPSMT-73" transform="scale(0.015625)"/>
       <path d="M 2631 1088 
Q 2516 522 2178 217 
Q 1841 -88 1431 -88 
Q 944 -88 581 321 
Q 219 731 219 1428 
Q 219 2103 620 2525 
Q 1022 2947 1584 2947 
Q 2006 2947 2278 2723 
Q 2550 2500 2550 2259 
Q 2550 2141 2473 2067 
Q 2397 1994 2259 1994 
Q 2075 1994 1981 2113 
Q 1928 2178 1911 2362 
Q 1894 2547 1784 2644 
Q 1675 2738 1481 2738 
Q 1169 2738 978 2506 
Q 725 2200 725 1697 
Q 725 1184 976 792 
Q 1228 400 1656 400 
Q 1963 400 2206 609 
Q 2378 753 2541 1131 
L 2631 1088 
z
" id="TimesNewRomanPSMT-63" transform="scale(0.015625)"/>
       <path d="M 144 4313 
L 144 4444 
Q 619 4209 934 3891 
Q 1381 3434 1625 2820 
Q 1869 2206 1869 1541 
Q 1869 572 1392 -226 
Q 916 -1025 144 -1369 
L 144 -1253 
Q 528 -1038 776 -670 
Q 1025 -303 1145 264 
Q 1266 831 1266 1447 
Q 1266 2113 1163 2663 
Q 1084 3094 967 3353 
Q 850 3613 656 3853 
Q 463 4094 144 4313 
z
" id="TimesNewRomanPSMT-29" transform="scale(0.015625)"/>
      </defs>
      <use xlink:href="#TimesNewRomanPSMT-54"/>
      <use x="57.583984" xlink:href="#TimesNewRomanPSMT-69"/>
      <use x="85.367188" xlink:href="#TimesNewRomanPSMT-6d"/>
      <use x="163.150391" xlink:href="#TimesNewRomanPSMT-65"/>
      <use x="207.535156" xlink:href="#TimesNewRomanPSMT-20"/>
      <use x="232.535156" xlink:href="#TimesNewRomanPSMT-28"/>
      <use x="265.835938" xlink:href="#TimesNewRomanPSMT-73"/>
      <use x="304.751953" xlink:href="#TimesNewRomanPSMT-65"/>
      <use x="349.136719" xlink:href="#TimesNewRomanPSMT-63"/>
      <use x="393.521484" xlink:href="#TimesNewRomanPSMT-29"/>
     </g>
    </g>
   </g>
   <g id="matplotlib.axis_2">
    <g id="ytick_1">
     <g id="line2d_13">
      <path clip-path="url(#p8368e03a97)" d="M 63.336875 337.752018 
L 398.136875 337.752018 
" style="fill:none;stroke:#000000;stroke-dasharray:0.5,0.825;stroke-dashoffset:0;stroke-width:0.5;"/>
     </g>
     <g id="line2d_14">
      <defs>
       <path d="M 0 0 
L -3.5 0 
" id="m6bab2bfc33" style="stroke:#000000;stroke-width:0.8;"/>
      </defs>
      <g>
       <use style="stroke:#000000;stroke-width:0.8;" x="63.336875" xlink:href="#m6bab2bfc33" y="337.752018"/>
      </g>
     </g>
     <g id="text_8">
      <!-- −0.06 -->
      <g transform="translate(23.942188 342.612643)scale(0.14 -0.14)">
       <defs>
        <path d="M 3484 2000 
L 116 2000 
L 116 2256 
L 3484 2256 
L 3484 2000 
z
" id="TimesNewRomanPSMT-2212" transform="scale(0.015625)"/>
        <path d="M 2869 4325 
L 2869 4209 
Q 2456 4169 2195 4045 
Q 1934 3922 1679 3669 
Q 1425 3416 1258 3105 
Q 1091 2794 978 2366 
Q 1428 2675 1881 2675 
Q 2316 2675 2634 2325 
Q 2953 1975 2953 1425 
Q 2953 894 2631 456 
Q 2244 -75 1606 -75 
Q 1172 -75 869 213 
Q 275 772 275 1663 
Q 275 2231 503 2743 
Q 731 3256 1154 3653 
Q 1578 4050 1965 4187 
Q 2353 4325 2688 4325 
L 2869 4325 
z
M 925 2138 
Q 869 1716 869 1456 
Q 869 1156 980 804 
Q 1091 453 1309 247 
Q 1469 100 1697 100 
Q 1969 100 2183 356 
Q 2397 613 2397 1088 
Q 2397 1622 2184 2012 
Q 1972 2403 1581 2403 
Q 1463 2403 1327 2353 
Q 1191 2303 925 2138 
z
" id="TimesNewRomanPSMT-36" transform="scale(0.015625)"/>
       </defs>
       <use xlink:href="#TimesNewRomanPSMT-2212"/>
       <use x="56.396484" xlink:href="#TimesNewRomanPSMT-30"/>
       <use x="106.396484" xlink:href="#TimesNewRomanPSMT-2e"/>
       <use x="131.396484" xlink:href="#TimesNewRomanPSMT-30"/>
       <use x="181.396484" xlink:href="#TimesNewRomanPSMT-36"/>
      </g>
     </g>
    </g>
    <g id="ytick_2">
     <g id="line2d_15">
      <path clip-path="url(#p8368e03a97)" d="M 63.336875 275.574892 
L 398.136875 275.574892 
" style="fill:none;stroke:#000000;stroke-dasharray:0.5,0.825;stroke-dashoffset:0;stroke-width:0.5;"/>
     </g>
     <g id="line2d_16">
      <g>
       <use style="stroke:#000000;stroke-width:0.8;" x="63.336875" xlink:href="#m6bab2bfc33" y="275.574892"/>
      </g>
     </g>
     <g id="text_9">
      <!-- −0.04 -->
      <g transform="translate(23.942188 280.435517)scale(0.14 -0.14)">
       <use xlink:href="#TimesNewRomanPSMT-2212"/>
       <use x="56.396484" xlink:href="#TimesNewRomanPSMT-30"/>
       <use x="106.396484" xlink:href="#TimesNewRomanPSMT-2e"/>
       <use x="131.396484" xlink:href="#TimesNewRomanPSMT-30"/>
       <use x="181.396484" xlink:href="#TimesNewRomanPSMT-34"/>
      </g>
     </g>
    </g>
    <g id="ytick_3">
     <g id="line2d_17">
      <path clip-path="url(#p8368e03a97)" d="M 63.336875 213.397767 
L 398.136875 213.397767 
" style="fill:none;stroke:#000000;stroke-dasharray:0.5,0.825;stroke-dashoffset:0;stroke-width:0.5;"/>
     </g>
     <g id="line2d_18">
      <g>
       <use style="stroke:#000000;stroke-width:0.8;" x="63.336875" xlink:href="#m6bab2bfc33" y="213.397767"/>
      </g>
     </g>
     <g id="text_10">
      <!-- −0.02 -->
      <g transform="translate(23.942188 218.258392)scale(0.14 -0.14)">
       <use xlink:href="#TimesNewRomanPSMT-2212"/>
       <use x="56.396484" xlink:href="#TimesNewRomanPSMT-30"/>
       <use x="106.396484" xlink:href="#TimesNewRomanPSMT-2e"/>
       <use x="131.396484" xlink:href="#TimesNewRomanPSMT-30"/>
       <use x="181.396484" xlink:href="#TimesNewRomanPSMT-32"/>
      </g>
     </g>
    </g>
    <g id="ytick_4">
     <g id="line2d_19">
      <path clip-path="url(#p8368e03a97)" d="M 63.336875 151.220642 
L 398.136875 151.220642 
" style="fill:none;stroke:#000000;stroke-dasharray:0.5,0.825;stroke-dashoffset:0;stroke-width:0.5;"/>
     </g>
     <g id="line2d_20">
      <g>
       <use style="stroke:#000000;stroke-width:0.8;" x="63.336875" xlink:href="#m6bab2bfc33" y="151.220642"/>
      </g>
     </g>
     <g id="text_11">
      <!-- 0.00 -->
      <g transform="translate(31.836875 156.081267)scale(0.14 -0.14)">
       <use xlink:href="#TimesNewRomanPSMT-30"/>
       <use x="50" xlink:href="#TimesNewRomanPSMT-2e"/>
       <use x="75" xlink:href="#TimesNewRomanPSMT-30"/>
       <use x="125" xlink:href="#TimesNewRomanPSMT-30"/>
      </g>
     </g>
    </g>
    <g id="ytick_5">
     <g id="line2d_21">
      <path clip-path="url(#p8368e03a97)" d="M 63.336875 89.043517 
L 398.136875 89.043517 
" style="fill:none;stroke:#000000;stroke-dasharray:0.5,0.825;stroke-dashoffset:0;stroke-width:0.5;"/>
     </g>
     <g id="line2d_22">
      <g>
       <use style="stroke:#000000;stroke-width:0.8;" x="63.336875" xlink:href="#m6bab2bfc33" y="89.043517"/>
      </g>
     </g>
     <g id="text_12">
      <!-- 0.02 -->
      <g transform="translate(31.836875 93.904142)scale(0.14 -0.14)">
       <use xlink:href="#TimesNewRomanPSMT-30"/>
       <use x="50" xlink:href="#TimesNewRomanPSMT-2e"/>
       <use x="75" xlink:href="#TimesNewRomanPSMT-30"/>
       <use x="125" xlink:href="#TimesNewRomanPSMT-32"/>
      </g>
     </g>
    </g>
    <g id="ytick_6">
     <g id="line2d_23">
      <path clip-path="url(#p8368e03a97)" d="M 63.336875 26.866391 
L 398.136875 26.866391 
" style="fill:none;stroke:#000000;stroke-dasharray:0.5,0.825;stroke-dashoffset:0;stroke-width:0.5;"/>
     </g>
     <g id="line2d_24">
      <g>
       <use style="stroke:#000000;stroke-width:0.8;" x="63.336875" xlink:href="#m6bab2bfc33" y="26.866391"/>
      </g>
     </g>
     <g id="text_13">
      <!-- 0.04 -->
      <g transform="translate(31.836875 31.727016)scale(0.14 -0.14)">
       <use xlink:href="#TimesNewRomanPSMT-30"/>
       <use x="50" xlink:href="#TimesNewRomanPSMT-2e"/>
       <use x="75" xlink:href="#TimesNewRomanPSMT-30"/>
       <use x="125" xlink:href="#TimesNewRomanPSMT-34"/>
      </g>
     </g>
    </g>
    <g id="text_14">
     <!-- Volatage (V) -->
     <g transform="translate(16.92125 209.352344)rotate(-90)scale(0.14 -0.14)">
      <defs>
       <path d="M 4544 4238 
L 4544 4122 
Q 4319 4081 4203 3978 
Q 4038 3825 3909 3509 
L 2431 -97 
L 2316 -97 
L 728 3556 
Q 606 3838 556 3900 
Q 478 3997 364 4051 
Q 250 4106 56 4122 
L 56 4238 
L 1788 4238 
L 1788 4122 
Q 1494 4094 1406 4022 
Q 1319 3950 1319 3838 
Q 1319 3681 1463 3350 
L 2541 866 
L 3541 3319 
Q 3688 3681 3688 3822 
Q 3688 3913 3597 3995 
Q 3506 4078 3291 4113 
Q 3275 4116 3238 4122 
L 3238 4238 
L 4544 4238 
z
" id="TimesNewRomanPSMT-56" transform="scale(0.015625)"/>
       <path d="M 1600 2947 
Q 2250 2947 2644 2453 
Q 2978 2031 2978 1484 
Q 2978 1100 2793 706 
Q 2609 313 2286 112 
Q 1963 -88 1566 -88 
Q 919 -88 538 428 
Q 216 863 216 1403 
Q 216 1797 411 2186 
Q 606 2575 925 2761 
Q 1244 2947 1600 2947 
z
M 1503 2744 
Q 1338 2744 1170 2645 
Q 1003 2547 900 2300 
Q 797 2053 797 1666 
Q 797 1041 1045 587 
Q 1294 134 1700 134 
Q 2003 134 2200 384 
Q 2397 634 2397 1244 
Q 2397 2006 2069 2444 
Q 1847 2744 1503 2744 
z
" id="TimesNewRomanPSMT-6f" transform="scale(0.015625)"/>
       <path d="M 1184 4444 
L 1184 647 
Q 1184 378 1223 290 
Q 1263 203 1344 158 
Q 1425 113 1647 113 
L 1647 0 
L 244 0 
L 244 113 
Q 441 113 512 153 
Q 584 194 625 287 
Q 666 381 666 647 
L 666 3247 
Q 666 3731 644 3842 
Q 622 3953 573 3993 
Q 525 4034 450 4034 
Q 369 4034 244 3984 
L 191 4094 
L 1044 4444 
L 1184 4444 
z
" id="TimesNewRomanPSMT-6c" transform="scale(0.015625)"/>
       <path d="M 1822 413 
Q 1381 72 1269 19 
Q 1100 -59 909 -59 
Q 613 -59 420 144 
Q 228 347 228 678 
Q 228 888 322 1041 
Q 450 1253 767 1440 
Q 1084 1628 1822 1897 
L 1822 2009 
Q 1822 2438 1686 2597 
Q 1550 2756 1291 2756 
Q 1094 2756 978 2650 
Q 859 2544 859 2406 
L 866 2225 
Q 866 2081 792 2003 
Q 719 1925 600 1925 
Q 484 1925 411 2006 
Q 338 2088 338 2228 
Q 338 2497 613 2722 
Q 888 2947 1384 2947 
Q 1766 2947 2009 2819 
Q 2194 2722 2281 2516 
Q 2338 2381 2338 1966 
L 2338 994 
Q 2338 584 2353 492 
Q 2369 400 2405 369 
Q 2441 338 2488 338 
Q 2538 338 2575 359 
Q 2641 400 2828 588 
L 2828 413 
Q 2478 -56 2159 -56 
Q 2006 -56 1915 50 
Q 1825 156 1822 413 
z
M 1822 616 
L 1822 1706 
Q 1350 1519 1213 1441 
Q 966 1303 859 1153 
Q 753 1003 753 825 
Q 753 600 887 451 
Q 1022 303 1197 303 
Q 1434 303 1822 616 
z
" id="TimesNewRomanPSMT-61" transform="scale(0.015625)"/>
       <path d="M 1031 3803 
L 1031 2863 
L 1700 2863 
L 1700 2644 
L 1031 2644 
L 1031 788 
Q 1031 509 1111 412 
Q 1191 316 1316 316 
Q 1419 316 1516 380 
Q 1613 444 1666 569 
L 1788 569 
Q 1678 263 1478 108 
Q 1278 -47 1066 -47 
Q 922 -47 784 33 
Q 647 113 581 261 
Q 516 409 516 719 
L 516 2644 
L 63 2644 
L 63 2747 
Q 234 2816 414 2980 
Q 594 3144 734 3369 
Q 806 3488 934 3803 
L 1031 3803 
z
" id="TimesNewRomanPSMT-74" transform="scale(0.015625)"/>
       <path d="M 966 1044 
Q 703 1172 562 1401 
Q 422 1631 422 1909 
Q 422 2334 742 2640 
Q 1063 2947 1563 2947 
Q 1972 2947 2272 2747 
L 2878 2747 
Q 3013 2747 3034 2739 
Q 3056 2731 3066 2713 
Q 3084 2684 3084 2613 
Q 3084 2531 3069 2500 
Q 3059 2484 3036 2475 
Q 3013 2466 2878 2466 
L 2506 2466 
Q 2681 2241 2681 1891 
Q 2681 1491 2375 1206 
Q 2069 922 1553 922 
Q 1341 922 1119 984 
Q 981 866 932 777 
Q 884 688 884 625 
Q 884 572 936 522 
Q 988 472 1138 450 
Q 1225 438 1575 428 
Q 2219 413 2409 384 
Q 2700 344 2873 169 
Q 3047 -6 3047 -263 
Q 3047 -616 2716 -925 
Q 2228 -1381 1444 -1381 
Q 841 -1381 425 -1109 
Q 191 -953 191 -784 
Q 191 -709 225 -634 
Q 278 -519 444 -313 
Q 466 -284 763 25 
Q 600 122 533 198 
Q 466 275 466 372 
Q 466 481 555 628 
Q 644 775 966 1044 
z
M 1509 2797 
Q 1278 2797 1122 2612 
Q 966 2428 966 2047 
Q 966 1553 1178 1281 
Q 1341 1075 1591 1075 
Q 1828 1075 1981 1253 
Q 2134 1431 2134 1813 
Q 2134 2309 1919 2591 
Q 1759 2797 1509 2797 
z
M 934 0 
Q 788 -159 713 -296 
Q 638 -434 638 -550 
Q 638 -700 819 -813 
Q 1131 -1006 1722 -1006 
Q 2284 -1006 2551 -807 
Q 2819 -609 2819 -384 
Q 2819 -222 2659 -153 
Q 2497 -84 2016 -72 
Q 1313 -53 934 0 
z
" id="TimesNewRomanPSMT-67" transform="scale(0.015625)"/>
      </defs>
      <use xlink:href="#TimesNewRomanPSMT-56"/>
      <use x="59.341797" xlink:href="#TimesNewRomanPSMT-6f"/>
      <use x="109.341797" xlink:href="#TimesNewRomanPSMT-6c"/>
      <use x="137.125" xlink:href="#TimesNewRomanPSMT-61"/>
      <use x="181.509766" xlink:href="#TimesNewRomanPSMT-74"/>
      <use x="209.292969" xlink:href="#TimesNewRomanPSMT-61"/>
      <use x="253.677734" xlink:href="#TimesNewRomanPSMT-67"/>
      <use x="303.677734" xlink:href="#TimesNewRomanPSMT-65"/>
      <use x="348.0625" xlink:href="#TimesNewRomanPSMT-20"/>
      <use x="373.0625" xlink:href="#TimesNewRomanPSMT-28"/>
      <use x="406.363281" xlink:href="#TimesNewRomanPSMT-56"/>
      <use x="478.580078" xlink:href="#TimesNewRomanPSMT-29"/>
     </g>
    </g>
   </g>
   <g id="LineCollection_1">
    <path clip-path="url(#p8368e03a97)" d="M 78.555057 151.220642 
L 382.918693 151.220642 
" style="fill:none;stroke:#1f77b4;stroke-width:1.5;"/>
   </g>
   <g id="line2d_25">
    <path clip-path="url(#p8368e03a97)" d="M 78.555057 151.245824 
L 85.22062 151.206963 
L 85.251057 151.129241 
L 85.31193 151.206963 
L 85.433675 151.245824 
L 85.585857 151.206963 
L 106.40433 151.245824 
L 106.526075 151.323545 
L 106.678257 151.284684 
L 106.830439 151.323545 
L 109.874075 151.362406 
L 109.934948 151.440127 
L 109.99582 151.401266 
L 110.117566 151.362406 
L 110.208875 151.440127 
L 110.239311 151.362406 
L 110.817602 151.440127 
L 110.908911 151.478988 
L 110.939348 151.440127 
L 111.700257 151.517849 
L 111.822002 151.556709 
L 111.943748 151.556709 
L 112.582911 151.634431 
L 112.613348 151.712152 
L 112.67422 151.673291 
L 112.826402 151.634431 
L 112.978584 151.712152 
L 113.10033 151.712152 
L 113.617748 151.751013 
L 113.648184 151.828734 
L 113.709057 151.789873 
L 113.739493 151.751013 
L 113.800366 151.828734 
L 114.226475 151.906456 
L 114.378657 151.945316 
L 114.469966 151.945316 
L 114.652584 152.023038 
L 114.987384 152.100759 
L 115.170002 152.178481 
L 115.596111 152.256202 
L 115.77873 152.333923 
L 115.870039 152.295063 
L 116.02222 152.411645 
L 116.265711 152.450505 
L 116.296148 152.528227 
L 116.387457 152.489366 
L 116.509202 152.567088 
L 116.539639 152.489366 
L 116.630948 152.528227 
L 116.722257 152.605948 
L 116.752693 152.567088 
L 116.904875 152.605948 
L 116.965748 152.68367 
L 116.996184 152.605948 
L 117.178802 152.68367 
L 117.544039 152.761391 
L 117.726657 152.839113 
L 117.757093 152.761391 
L 117.848402 152.800252 
L 118.000584 152.761391 
L 118.12233 152.839113 
L 118.213639 152.839113 
L 118.396257 152.916834 
L 118.883239 152.994555 
L 119.03542 153.033416 
L 119.37022 153.072277 
L 119.46153 153.149998 
L 119.491966 153.111137 
L 119.613711 153.188859 
L 119.79633 153.26658 
L 120.100693 153.344302 
L 120.222439 153.422023 
L 120.435493 153.499744 
L 120.678984 153.655187 
L 120.831166 153.732909 
L 121.105093 153.927212 
L 121.257275 154.004934 
L 122.71822 156.02569 
L 123.174766 156.958347 
L 123.235639 157.036068 
L 123.448693 157.580118 
L 124.909639 161.582771 
L 127.222802 170.870478 
L 128.683748 177.826546 
L 128.805493 178.370594 
L 129.201166 180.235907 
L 129.353348 180.896542 
L 130.388184 185.2878 
L 130.783857 186.764506 
L 131.027348 187.619442 
L 131.362148 188.824124 
L 132.610039 191.738676 
L 133.09702 192.205005 
L 133.492693 192.127284 
L 133.827493 191.855259 
L 133.918802 191.777537 
L 134.284039 191.427791 
L 134.314475 191.466652 
L 134.344911 191.38893 
L 134.953639 190.456273 
L 136.018911 187.50286 
L 137.388548 179.963883 
L 138.362511 173.046678 
L 139.397348 164.264159 
L 141.010475 146.699121 
L 143.871493 108.771075 
L 145.57593 84.288832 
L 146.184657 76.05036 
L 147.432548 60.078614 
L 148.619566 46.321925 
L 149.897893 34.391689 
L 150.810984 28.251698 
L 151.480584 25.337148 
L 151.60233 25.026256 
L 152.028439 23.782717 
L 152.150184 23.471825 
L 152.545857 22.733478 
L 152.85022 22.500307 
L 153.093711 22.461453 
L 153.124148 22.383732 
L 153.18502 22.422599 
L 153.337202 22.539178 
L 153.367639 22.461453 
L 153.398075 22.578032 
L 153.885057 23.355246 
L 155.041639 28.173976 
L 155.924293 34.508268 
L 157.080875 45.816733 
L 158.724439 68.200501 
L 159.667966 84.327693 
L 162.133311 133.564204 
L 166.66833 235.340389 
L 169.498911 287.452586 
L 170.503311 301.209278 
L 171.720766 313.994452 
L 172.299057 318.269129 
L 172.481675 319.396081 
L 172.907784 321.80545 
L 173.486075 323.631907 
L 173.881748 324.292532 
L 174.094802 324.564557 
L 174.27742 324.72 
L 174.307857 324.681146 
L 174.581784 324.603424 
L 175.251384 323.631907 
L 175.525311 322.971268 
L 175.647057 322.699247 
L 176.347093 319.590393 
L 178.021093 308.243062 
L 179.025493 298.294728 
L 182.160439 256.869212 
L 183.31702 237.477721 
L 185.264948 203.319166 
L 187.517239 165.041373 
L 191.10873 111.685628 
L 191.595711 105.623358 
L 193.056657 88.369206 
L 195.70462 65.674558 
L 197.622111 51.840145 
L 198.017784 50.013689 
L 198.565639 47.759765 
L 199.81353 43.407375 
L 200.026584 42.591304 
L 200.574439 40.920281 
L 200.787493 40.53168 
L 200.970111 40.220801 
L 201.122293 39.909909 
L 201.39622 39.249271 
L 201.974511 38.666369 
L 202.644111 38.588645 
L 202.674548 38.510923 
L 202.765857 38.549778 
L 202.948475 38.472069 
L 203.07022 38.510923 
L 203.100657 38.472069 
L 203.16153 38.549778 
L 203.557202 38.899524 
L 203.648511 38.977249 
L 203.770257 39.05497 
L 203.800693 39.016116 
L 203.83113 38.977249 
L 203.861566 39.093837 
L 203.892002 39.05497 
L 204.105057 39.171562 
L 204.135493 39.132695 
L 204.196366 39.210416 
L 204.318111 39.249271 
L 204.622475 39.832187 
L 204.652911 39.79333 
L 204.683348 39.909909 
L 205.352948 41.347752 
L 205.596439 41.814086 
L 206.205166 43.640543 
L 206.570402 44.650915 
L 206.722584 45.000661 
L 207.42262 47.060284 
L 207.75742 48.226102 
L 208.213966 49.663942 
L 209.644475 55.570778 
L 210.070584 57.591529 
L 210.740184 60.467221 
L 211.805457 64.936202 
L 212.10982 66.218605 
L 212.292439 66.956958 
L 213.996875 76.205806 
L 215.396948 85.804399 
L 216.340475 93.265654 
L 218.044911 107.177786 
L 218.56233 111.879931 
L 220.57113 130.766233 
L 221.179857 137.178249 
L 221.971202 145.222414 
L 223.127784 158.590497 
L 223.645202 164.963652 
L 225.25833 184.199699 
L 225.83662 191.233487 
L 226.59753 201.220688 
L 228.058475 220.262436 
L 228.575893 226.635588 
L 229.549857 238.760131 
L 230.432511 248.902771 
L 231.162984 256.091995 
L 233.263093 273.967922 
L 233.96313 278.087156 
L 234.358802 280.302225 
L 234.754475 281.817787 
L 235.97193 284.654615 
L 236.276293 284.576894 
L 236.580657 284.343736 
L 236.64153 284.266014 
L 237.158948 283.44993 
L 237.463311 282.400703 
L 239.31993 272.374633 
L 240.598257 261.726806 
L 242.150511 244.744676 
L 243.367966 229.511283 
L 245.650693 199.005628 
L 247.446439 170.987061 
L 247.963857 163.020616 
L 250.216148 130.183322 
L 251.342293 115.882584 
L 253.29022 97.112867 
L 254.416366 89.34072 
L 255.177275 85.14377 
L 255.29902 84.599714 
L 256.029493 81.413143 
L 256.72953 79.159219 
L 257.125202 78.420863 
L 258.038293 77.410484 
L 258.281784 77.332769 
L 258.494839 77.177323 
L 258.525275 77.216184 
L 258.586148 77.138463 
L 258.920948 76.827577 
L 258.951384 76.866438 
L 259.012257 76.788716 
L 259.134002 76.749855 
L 259.255748 76.749855 
L 259.681857 76.672131 
L 259.803602 76.594416 
L 259.894911 76.594416 
L 260.07753 76.477831 
L 260.107966 76.555552 
L 260.168839 76.516691 
L 260.229711 76.43897 
L 260.260148 76.477831 
L 260.32102 76.555552 
L 260.381893 76.516691 
L 260.564511 76.594416 
L 260.777566 76.749855 
L 260.808002 76.710992 
L 260.838439 76.749855 
L 260.99062 76.866438 
L 261.173239 76.944162 
L 261.568911 77.293908 
L 261.599348 77.293908 
L 261.781966 77.604794 
L 261.812402 77.604794 
L 261.99502 77.915677 
L 262.390693 78.576309 
L 262.908111 79.625548 
L 263.060293 79.975294 
L 264.521239 83.977946 
L 264.856039 85.182631 
L 265.190839 86.309585 
L 266.560475 91.983254 
L 268.477966 102.320195 
L 272.647748 129.639272 
L 273.46953 135.118631 
L 274.443493 140.597991 
L 274.778293 142.385583 
L 275.173966 144.328618 
L 276.178366 148.914181 
L 276.360984 149.613674 
L 276.81753 151.440127 
L 277.030584 152.217341 
L 277.426257 153.694048 
L 278.765457 158.396193 
L 280.378584 162.243402 
L 280.439457 162.282264 
L 280.652511 162.709731 
L 280.682948 162.67087 
L 280.713384 162.787453 
L 280.74382 162.748592 
L 280.987311 163.253781 
L 281.048184 163.331502 
L 281.382984 163.914413 
L 281.596039 164.225299 
L 281.687348 164.264159 
L 281.809093 164.458463 
L 281.83953 164.419602 
L 282.052584 164.691627 
L 282.113457 164.730487 
L 282.296075 164.963652 
L 282.356948 165.041373 
L 282.691748 165.313398 
L 282.874366 165.391119 
L 283.026548 165.42998 
L 284.09182 165.391119 
L 284.244002 165.274538 
L 284.335311 165.196816 
L 284.609239 164.924792 
L 284.639675 165.002513 
L 284.700548 164.924792 
L 285.004911 164.691627 
L 285.126657 164.613906 
L 285.339711 164.30302 
L 285.400584 164.225299 
L 285.887566 163.448084 
L 286.283239 162.709731 
L 286.496293 162.282264 
L 286.77022 161.660492 
L 287.013711 161.194164 
L 287.287639 160.572393 
L 288.048548 158.901382 
L 288.078984 158.901382 
L 288.322475 158.357332 
L 288.352911 158.357332 
L 288.626839 157.735561 
L 288.687711 157.696701 
L 289.022511 157.11379 
L 289.692111 156.375437 
L 289.722548 156.414298 
L 289.752984 156.375437 
L 289.87473 156.181133 
L 289.905166 156.219994 
L 290.239966 155.947969 
L 290.574766 156.02569 
L 290.696511 156.142272 
L 290.78782 156.142272 
L 291.000875 156.258854 
L 291.183493 156.336576 
L 291.335675 156.492019 
L 291.396548 156.56974 
L 291.913966 157.65784 
L 291.974839 157.735561 
L 292.157457 158.20189 
L 292.279202 158.473914 
L 292.55313 159.095686 
L 293.009675 160.494671 
L 293.344475 161.660492 
L 295.201093 169.199469 
L 296.783784 176.738445 
L 297.270766 178.992367 
L 297.696875 181.051984 
L 297.90993 181.868058 
L 298.24473 183.344764 
L 298.944766 186.453621 
L 299.310002 187.774885 
L 299.553493 188.62982 
L 300.070911 190.767159 
L 300.649202 192.515891 
L 301.349239 194.808672 
L 301.440548 195.080697 
L 302.962366 198.694742 
L 303.297166 199.277653 
L 303.571093 199.899424 
L 303.905893 200.521195 
L 303.966766 200.598917 
L 304.210257 200.948663 
L 304.636366 201.33727 
L 304.971166 201.414992 
L 305.214657 201.570434 
L 305.458148 201.648156 
L 305.61033 201.725877 
L 305.762511 201.687017 
L 305.85382 201.648156 
L 305.975566 201.492713 
L 306.006002 201.531574 
L 307.132148 199.977146 
L 307.375639 199.277653 
L 308.501784 196.129936 
L 308.775711 195.041836 
L 309.080075 194.031458 
L 309.354002 192.943358 
L 309.506184 192.282726 
L 311.271493 182.761855 
L 317.297893 137.411414 
L 317.510948 136.16787 
L 317.937057 133.447622 
L 319.854548 121.867132 
L 320.189348 120.157261 
L 321.619857 113.395499 
L 322.319893 110.286642 
L 322.654693 108.848796 
L 322.837311 108.149304 
L 323.841711 103.52488 
L 324.02433 102.786527 
L 324.663493 100.066277 
L 324.815675 99.444506 
L 325.241784 97.81236 
L 325.759202 96.257929 
L 326.672293 94.198311 
L 327.585384 92.915908 
L 327.737566 92.721608 
L 327.920184 92.643883 
L 328.072366 92.527301 
L 328.37673 92.294137 
L 328.498475 92.216415 
L 328.650657 92.138694 
L 328.681093 92.177555 
L 328.741966 92.09983 
L 329.107202 92.177555 
L 330.324657 93.848565 
L 330.598584 94.470333 
L 332.455202 99.483367 
L 333.033493 101.270962 
L 333.124802 101.542984 
L 333.550911 103.213994 
L 333.611784 103.408295 
L 334.555311 107.449811 
L 335.681457 112.657145 
L 336.229311 115.183091 
L 339.272948 131.271422 
L 340.155602 136.206732 
L 340.551275 138.149767 
L 341.129566 141.180902 
L 341.494802 143.007354 
L 343.534039 152.916834 
L 343.655784 153.422023 
L 344.051457 155.248476 
L 348.860402 173.240982 
L 349.012584 173.590729 
L 351.112693 178.681482 
L 351.569239 179.380972 
L 351.751857 179.69186 
L 352.451893 180.469073 
L 352.543202 180.430211 
L 352.695384 180.585654 
L 352.908439 180.663376 
L 353.121493 180.818819 
L 353.15193 180.779958 
L 353.212802 180.85768 
L 353.39542 180.9354 
L 353.608475 180.974261 
L 353.699784 181.051984 
L 353.73022 181.013123 
L 353.912839 181.090843 
L 353.943275 181.013123 
L 354.034584 181.051984 
L 354.247639 181.129704 
L 354.430257 181.207427 
L 354.673748 181.246288 
L 354.82593 181.362869 
L 355.06942 181.440589 
L 355.282475 181.557173 
L 355.434657 181.596032 
L 355.586839 181.712616 
L 355.83033 181.868058 
L 355.952075 181.945778 
L 356.256439 182.217805 
L 356.286875 182.178943 
L 356.347748 182.256666 
L 356.49993 182.373247 
L 356.865166 182.684132 
L 356.986911 182.722994 
L 357.16953 182.917297 
L 357.626075 183.344764 
L 357.74782 183.422487 
L 357.991311 183.577929 
L 358.08262 183.577929 
L 358.204366 183.69451 
L 358.356548 183.772233 
L 358.569602 183.888814 
L 358.721784 183.966537 
L 358.904402 184.044257 
L 358.965275 184.083118 
L 359.08702 184.160838 
L 359.208766 184.160838 
L 359.543566 184.238561 
L 359.726184 184.316282 
L 359.75662 184.277421 
L 359.817493 184.355143 
L 359.939239 184.394004 
L 359.969675 184.355143 
L 360.000111 184.471725 
L 360.030548 184.432864 
L 360.791457 184.355143 
L 360.943639 184.277421 
L 361.065384 184.277421 
L 361.18713 184.238561 
L 361.308875 184.160838 
L 361.400184 184.160838 
L 362.161093 183.344764 
L 362.252402 183.267044 
L 363.77422 181.168565 
L 364.048148 180.741096 
L 364.474257 180.041606 
L 364.717748 179.652998 
L 364.809057 179.575275 
L 365.022111 179.225529 
L 365.052548 179.26439 
L 365.082984 179.225529 
L 365.296039 178.953505 
L 366.696111 177.321356 
L 366.78742 177.243634 
L 367.091784 177.010471 
L 367.12222 177.010471 
L 367.274402 176.816167 
L 367.822257 176.272116 
L 367.913566 176.194395 
L 368.12662 176.077812 
L 368.309239 176.038952 
L 368.46142 175.92237 
L 368.88753 175.533764 
L 368.917966 175.572623 
L 368.978839 175.494902 
L 369.22233 175.33946 
L 369.587566 175.261738 
L 369.739748 175.106296 
L 369.89193 175.028574 
L 370.287602 174.678828 
L 370.348475 174.601107 
L 370.56153 174.484524 
L 370.622402 174.445664 
L 370.774584 174.29022 
L 370.865893 174.212499 
L 371.596366 173.435285 
L 371.718111 173.396425 
L 371.870293 173.163261 
L 371.90073 173.202121 
L 371.961602 173.1244 
L 372.022475 173.046678 
L 372.661639 172.386047 
L 372.752948 172.347186 
L 372.935566 172.152881 
L 374.57913 169.898962 
L 375.005239 169.082886 
L 375.218293 168.655418 
L 377.83582 161.699353 
L 378.444548 159.756318 
L 378.474984 159.756318 
L 379.205457 157.385815 
L 379.479384 156.414298 
L 382.005602 146.349375 
L 382.370839 144.717225 
L 382.918693 142.269002 
L 382.918693 142.269002 
" style="fill:none;stroke:#0000ff;stroke-linecap:square;stroke-width:1.5;"/>
   </g>
   <g id="line2d_26">
    <path clip-path="url(#p8368e03a97)" d="M 78.555057 151.201522 
L 78.676802 151.201522 
L 87.107675 151.298674 
L 87.32073 151.318104 
L 87.56422 151.279244 
L 87.807711 151.318104 
L 91.064402 151.395826 
L 91.186148 151.415256 
L 91.399202 151.395826 
L 98.490875 151.473547 
L 98.643057 151.492978 
L 99.799639 151.590129 
L 100.104002 151.667851 
L 100.530111 151.765003 
L 101.899748 152.73652 
L 102.234548 153.183418 
L 102.325857 153.26114 
L 102.599784 153.688607 
L 102.995457 154.36867 
L 103.695493 155.942528 
L 104.63902 158.643347 
L 105.156439 160.4698 
L 105.612984 162.276823 
L 110.208875 182.309514 
L 111.456766 185.923561 
L 111.548075 186.098434 
L 112.522039 187.730584 
L 112.948148 188.119191 
L 113.76993 188.022039 
L 114.287348 187.594571 
L 115.139566 185.748688 
L 115.535239 184.641158 
L 115.717857 184.116538 
L 117.209239 176.985599 
L 119.065857 164.433592 
L 120.922475 149.355639 
L 125.39662 110.320063 
L 126.49233 103.383427 
L 128.622875 93.04648 
L 129.992511 89.004967 
L 131.240402 87.567121 
L 131.575202 87.469969 
L 131.940439 87.120223 
L 132.610039 86.440157 
L 133.218766 86.537315 
L 133.401384 86.537315 
L 134.10142 86.61503 
L 134.375348 86.925922 
L 135.10582 87.275669 
L 135.592802 87.372817 
L 135.836293 87.70313 
L 136.353711 88.208322 
L 136.658075 88.305474 
L 137.175493 88.752372 
L 138.484257 91.472618 
L 138.87993 93.085341 
L 142.014875 109.659431 
L 143.90193 123.688144 
L 149.015239 167.03726 
L 150.780548 182.872995 
L 152.60673 197.115443 
L 154.158984 206.32543 
L 155.28513 210.852699 
L 155.741675 211.940802 
L 155.985166 212.42656 
L 156.654766 213.475799 
L 156.928693 213.650673 
L 158.024402 213.572948 
L 158.602693 212.659728 
L 160.30713 209.181692 
L 162.133311 202.98341 
L 162.924657 199.524807 
L 164.446475 191.189186 
L 166.485711 178.850914 
L 166.881384 176.577562 
L 168.098839 170.223836 
L 168.524948 168.611117 
L 169.25542 166.221184 
L 170.564184 163.947833 
L 170.777239 163.831251 
L 171.081602 163.928403 
L 172.116439 164.686186 
L 173.69913 169.019154 
L 175.190511 175.100855 
L 176.225348 181.007682 
L 177.108002 186.720205 
L 178.325457 195.191839 
L 179.116802 200.865501 
L 180.364693 208.132453 
L 182.160439 215.671429 
L 183.377893 219.18832 
L 183.74313 219.499212 
L 184.138802 219.59636 
L 184.290984 219.576927 
L 184.564911 219.499212 
L 185.112766 218.624846 
L 185.964984 215.593705 
L 187.060693 208.695933 
L 188.582511 195.152978 
L 189.43473 185.962422 
L 190.530439 172.10858 
L 193.45233 129.51725 
L 195.522002 100.702039 
L 197.226439 81.329978 
L 200.087457 55.001855 
L 201.39622 45.811292 
L 202.218002 42.158392 
L 202.918039 39.885035 
L 203.40502 38.932951 
L 203.648511 38.447192 
L 204.013748 37.786557 
L 204.378984 37.475677 
L 204.652911 37.57282 
L 205.048584 37.942003 
L 205.809493 40.15706 
L 206.783457 45.014654 
L 207.818293 50.863187 
L 210.466257 68.467088 
L 212.688111 85.993259 
L 216.705711 117.587014 
L 217.375311 122.949793 
L 220.388511 145.178113 
L 221.545093 152.425635 
L 222.214693 156.719742 
L 223.188657 162.237962 
L 224.314802 168.552827 
L 225.471384 175.236868 
L 226.384475 179.841861 
L 228.728075 189.809631 
L 229.793348 193.481968 
L 231.802148 198.320125 
L 232.19782 199.291643 
L 232.776111 200.78778 
L 233.29353 202.011895 
L 234.328366 204.945878 
L 235.454511 208.171313 
L 236.30673 210.056058 
L 237.432875 212.018523 
L 237.524184 212.115675 
L 237.919857 212.640294 
L 238.528584 213.242635 
L 238.89382 213.378648 
L 239.076439 213.359214 
L 239.22862 213.398075 
L 239.624293 213.300926 
L 239.89822 213.242635 
L 240.050402 213.223202 
L 240.32433 213.145487 
L 240.476511 213.164914 
L 240.628693 213.126053 
L 241.359166 213.203775 
L 241.511348 213.242635 
L 241.66353 213.262066 
L 242.972293 213.359214 
L 243.215784 213.495233 
L 243.367966 213.572948 
L 244.67673 215.418831 
L 245.559384 217.3813 
L 246.442039 219.285478 
L 246.837711 220.179271 
L 247.050766 220.606738 
L 247.720366 222.044588 
L 247.93342 222.491483 
L 249.181311 224.648252 
L 249.333493 224.861985 
L 250.307457 225.930655 
L 251.007493 226.494135 
L 251.342293 226.74673 
L 252.194511 226.649581 
L 252.529311 226.319262 
L 253.016293 225.522617 
L 253.472839 224.434518 
L 254.96422 219.324338 
L 256.212111 212.40713 
L 257.06433 206.267142 
L 258.038293 197.950948 
L 259.864475 178.170851 
L 261.112366 161.732773 
L 262.75593 137.133948 
L 267.230075 67.495564 
L 268.477966 51.484958 
L 269.999784 36.096126 
L 271.308548 27.682777 
L 272.191202 24.224178 
L 272.891239 22.68918 
L 273.012984 22.611458 
L 273.226039 22.417158 
L 273.347784 22.378291 
L 273.956511 22.475446 
L 274.38262 23.174939 
L 274.869602 24.709936 
L 275.752257 28.498846 
L 276.969711 36.13498 
L 277.48713 40.118202 
L 278.887202 52.650776 
L 283.391784 102.742222 
L 284.670111 117.645305 
L 286.891966 141.933245 
L 291.12262 184.058246 
L 293.496657 202.8474 
L 294.592366 209.181692 
L 296.81422 218.605412 
L 297.48382 220.762178 
L 298.640402 223.443567 
L 298.792584 223.637873 
L 299.15782 224.104205 
L 299.340439 224.337366 
L 299.58393 224.609391 
L 299.675239 224.70654 
L 299.91873 224.842552 
L 300.557893 224.745403 
L 300.770948 224.648252 
L 301.25793 224.240217 
L 301.92753 223.190978 
L 302.323202 222.510913 
L 302.749311 221.481107 
L 303.449348 218.877434 
L 304.453748 213.242635 
L 305.214657 207.841001 
L 305.85382 203.061134 
L 307.040839 194.103739 
L 307.923493 187.147673 
L 309.354002 176.188954 
L 311.849784 160.955559 
L 313.88902 149.880258 
L 315.867384 140.339956 
L 316.750039 136.900784 
L 317.632693 133.94737 
L 318.789275 130.60535 
L 319.215384 129.556111 
L 320.34153 126.952443 
L 320.493711 126.622128 
L 321.163311 124.853964 
L 321.558984 124.115613 
L 321.985093 123.39669 
L 322.563384 122.211438 
L 323.141675 121.298211 
L 325.059166 117.412141 
L 325.637457 115.605118 
L 328.163675 108.882217 
L 328.681093 107.327788 
L 331.329057 100.838051 
L 331.816039 100.04141 
L 332.242148 99.458493 
L 332.63782 99.089319 
L 333.094366 98.681285 
L 334.098766 98.156662 
L 334.616184 98.253814 
L 334.950984 98.506412 
L 335.31622 98.856158 
L 336.07713 100.002546 
L 336.838039 101.226658 
L 336.959784 101.401531 
L 338.08593 103.791464 
L 338.99902 106.414562 
L 339.790366 109.309684 
L 340.612148 112.865439 
L 341.586111 117.820178 
L 342.742693 124.290486 
L 344.994984 139.349008 
L 349.316948 174.323641 
L 350.260475 181.726605 
L 352.208402 195.81361 
L 352.999748 200.982083 
L 353.638911 204.69328 
L 356.16513 217.031554 
L 356.682548 218.585985 
L 357.07822 219.518639 
L 357.382584 220.082119 
L 357.656511 220.50959 
L 358.113057 220.917624 
L 359.026148 221.383956 
L 359.452257 220.995349 
L 360.152293 219.421487 
L 361.126257 215.943451 
L 362.069784 211.940802 
L 364.44382 197.659493 
L 366.239566 184.271981 
L 367.091784 176.907878 
L 368.12662 167.464727 
L 369.80062 151.551269 
L 371.870293 130.294464 
L 374.305202 109.523418 
L 375.431348 101.731844 
L 377.866257 88.363762 
L 379.327202 83.195289 
L 379.783748 82.107195 
L 380.84902 80.300166 
L 381.822984 79.79498 
L 382.066475 79.833841 
L 382.18822 79.872705 
L 382.431711 79.969853 
L 382.918693 80.3196 
L 382.918693 80.3196 
" style="fill:none;stroke:#ff0000;stroke-linecap:square;stroke-width:1.5;"/>
   </g>
   <g id="line2d_27">
    <path clip-path="url(#p8368e03a97)" d="M 124.361784 159.911761 
" style="fill:none;stroke:#ffffff;stroke-linecap:square;stroke-width:1.5;"/>
    <defs>
     <path d="M 0 -5 
L -1.12257 -1.545085 
L -4.755283 -1.545085 
L -1.816356 0.59017 
L -2.938926 4.045085 
L -0 1.90983 
L 2.938926 4.045085 
L 1.816356 0.59017 
L 4.755283 -1.545085 
L 1.12257 -1.545085 
z
" id="maa5d7b0d2d" style="stroke:#ffffff;stroke-linejoin:bevel;"/>
    </defs>
    <g clip-path="url(#p8368e03a97)">
     <use style="fill:#0000ff;stroke:#ffffff;stroke-linejoin:bevel;" x="124.361784" xlink:href="#maa5d7b0d2d" y="159.911761"/>
    </g>
   </g>
   <g id="line2d_28">
    <path clip-path="url(#p8368e03a97)" d="M 104.334657 157.71069 
" style="fill:none;stroke:#ffffff;stroke-linecap:square;stroke-width:1.5;"/>
    <defs>
     <path d="M 0 -5 
L -1.12257 -1.545085 
L -4.755283 -1.545085 
L -1.816356 0.59017 
L -2.938926 4.045085 
L -0 1.90983 
L 2.938926 4.045085 
L 1.816356 0.59017 
L 4.755283 -1.545085 
L 1.12257 -1.545085 
z
" id="m4a0614ae54" style="stroke:#ffffff;stroke-linejoin:bevel;"/>
    </defs>
    <g clip-path="url(#p8368e03a97)">
     <use style="fill:#ff0000;stroke:#ffffff;stroke-linejoin:bevel;" x="104.334657" xlink:href="#m4a0614ae54" y="157.71069"/>
    </g>
   </g>
   <g id="patch_3">
    <path d="M 63.336875 339.84 
L 63.336875 7.2 
" style="fill:none;stroke:#000000;stroke-linecap:square;stroke-linejoin:miter;stroke-width:0.8;"/>
   </g>
   <g id="patch_4">
    <path d="M 398.136875 339.84 
L 398.136875 7.2 
" style="fill:none;stroke:#000000;stroke-linecap:square;stroke-linejoin:miter;stroke-width:0.8;"/>
   </g>
   <g id="patch_5">
    <path d="M 63.336875 339.84 
L 398.136875 339.84 
" style="fill:none;stroke:#000000;stroke-linecap:square;stroke-linejoin:miter;stroke-width:0.8;"/>
   </g>
   <g id="patch_6">
    <path d="M 63.336875 7.2 
L 398.136875 7.2 
" style="fill:none;stroke:#000000;stroke-linecap:square;stroke-linejoin:miter;stroke-width:0.8;"/>
   </g>
   <g id="text_15">
    <g id="patch_7">
     <path d="M 75.036875 331.242688 
L 166.79375 331.242688 
L 166.79375 293.760312 
L 75.036875 293.760312 
z
" style="fill:#ffffff;stroke:#000000;stroke-linejoin:miter;stroke-width:0.75;"/>
    </g>
    <!-- Auto_00120 -->
    <g transform="translate(80.076875 308.521563)scale(0.14 -0.14)">
     <defs>
      <path d="M 2928 1419 
L 1288 1419 
L 1000 750 
Q 894 503 894 381 
Q 894 284 986 211 
Q 1078 138 1384 116 
L 1384 0 
L 50 0 
L 50 116 
Q 316 163 394 238 
Q 553 388 747 847 
L 2238 4334 
L 2347 4334 
L 3822 809 
Q 4000 384 4145 257 
Q 4291 131 4550 116 
L 4550 0 
L 2878 0 
L 2878 116 
Q 3131 128 3220 200 
Q 3309 272 3309 375 
Q 3309 513 3184 809 
L 2928 1419 
z
M 2841 1650 
L 2122 3363 
L 1384 1650 
L 2841 1650 
z
" id="TimesNewRomanPSMT-41" transform="scale(0.015625)"/>
      <path d="M 2709 2863 
L 2709 1128 
Q 2709 631 2732 520 
Q 2756 409 2807 365 
Q 2859 322 2928 322 
Q 3025 322 3147 375 
L 3191 266 
L 2334 -88 
L 2194 -88 
L 2194 519 
Q 1825 119 1631 15 
Q 1438 -88 1222 -88 
Q 981 -88 804 51 
Q 628 191 559 409 
Q 491 628 491 1028 
L 491 2306 
Q 491 2509 447 2587 
Q 403 2666 317 2708 
Q 231 2750 6 2747 
L 6 2863 
L 1009 2863 
L 1009 947 
Q 1009 547 1148 422 
Q 1288 297 1484 297 
Q 1619 297 1789 381 
Q 1959 466 2194 703 
L 2194 2325 
Q 2194 2569 2105 2655 
Q 2016 2741 1734 2747 
L 1734 2863 
L 2709 2863 
z
" id="TimesNewRomanPSMT-75" transform="scale(0.015625)"/>
      <path d="M 3256 -1381 
L -53 -1381 
L -53 -1119 
L 3256 -1119 
L 3256 -1381 
z
" id="TimesNewRomanPSMT-5f" transform="scale(0.015625)"/>
     </defs>
     <use xlink:href="#TimesNewRomanPSMT-41"/>
     <use x="72.216797" xlink:href="#TimesNewRomanPSMT-75"/>
     <use x="122.216797" xlink:href="#TimesNewRomanPSMT-74"/>
     <use x="150" xlink:href="#TimesNewRomanPSMT-6f"/>
     <use x="200" xlink:href="#TimesNewRomanPSMT-5f"/>
     <use x="250" xlink:href="#TimesNewRomanPSMT-30"/>
     <use x="300" xlink:href="#TimesNewRomanPSMT-30"/>
     <use x="350" xlink:href="#TimesNewRomanPSMT-31"/>
     <use x="400" xlink:href="#TimesNewRomanPSMT-32"/>
     <use x="450" xlink:href="#TimesNewRomanPSMT-30"/>
    </g>
    <!-- Vs: 303.78m/s -->
    <g transform="translate(80.076875 323.208)scale(0.14 -0.14)">
     <defs>
      <path d="M 903 2950 
Q 1047 2950 1148 2848 
Q 1250 2747 1250 2603 
Q 1250 2459 1148 2357 
Q 1047 2256 903 2256 
Q 759 2256 657 2357 
Q 556 2459 556 2603 
Q 556 2747 657 2848 
Q 759 2950 903 2950 
z
M 897 609 
Q 1044 609 1145 506 
Q 1247 403 1247 259 
Q 1247 116 1144 14 
Q 1041 -88 897 -88 
Q 753 -88 651 14 
Q 550 116 550 259 
Q 550 403 651 506 
Q 753 609 897 609 
z
" id="TimesNewRomanPSMT-3a" transform="scale(0.015625)"/>
      <path d="M 644 4238 
L 2916 4238 
L 2916 4119 
L 1503 -88 
L 1153 -88 
L 2419 3728 
L 1253 3728 
Q 900 3728 750 3644 
Q 488 3500 328 3200 
L 238 3234 
L 644 4238 
z
" id="TimesNewRomanPSMT-37" transform="scale(0.015625)"/>
      <path d="M 1228 2134 
Q 725 2547 579 2797 
Q 434 3047 434 3316 
Q 434 3728 753 4026 
Q 1072 4325 1600 4325 
Q 2113 4325 2425 4047 
Q 2738 3769 2738 3413 
Q 2738 3175 2569 2928 
Q 2400 2681 1866 2347 
Q 2416 1922 2594 1678 
Q 2831 1359 2831 1006 
Q 2831 559 2490 242 
Q 2150 -75 1597 -75 
Q 994 -75 656 303 
Q 388 606 388 966 
Q 388 1247 577 1523 
Q 766 1800 1228 2134 
z
M 1719 2469 
Q 2094 2806 2194 3001 
Q 2294 3197 2294 3444 
Q 2294 3772 2109 3958 
Q 1925 4144 1606 4144 
Q 1288 4144 1088 3959 
Q 888 3775 888 3528 
Q 888 3366 970 3203 
Q 1053 3041 1206 2894 
L 1719 2469 
z
M 1375 2016 
Q 1116 1797 991 1539 
Q 866 1281 866 981 
Q 866 578 1086 336 
Q 1306 94 1647 94 
Q 1984 94 2187 284 
Q 2391 475 2391 747 
Q 2391 972 2272 1150 
Q 2050 1481 1375 2016 
z
" id="TimesNewRomanPSMT-38" transform="scale(0.015625)"/>
      <path d="M 1794 4444 
L 259 -88 
L 9 -88 
L 1544 4444 
L 1794 4444 
z
" id="TimesNewRomanPSMT-2f" transform="scale(0.015625)"/>
     </defs>
     <use xlink:href="#TimesNewRomanPSMT-56"/>
     <use x="72.216797" xlink:href="#TimesNewRomanPSMT-73"/>
     <use x="111.132812" xlink:href="#TimesNewRomanPSMT-3a"/>
     <use x="138.916016" xlink:href="#TimesNewRomanPSMT-20"/>
     <use x="163.916016" xlink:href="#TimesNewRomanPSMT-33"/>
     <use x="213.916016" xlink:href="#TimesNewRomanPSMT-30"/>
     <use x="263.916016" xlink:href="#TimesNewRomanPSMT-33"/>
     <use x="313.916016" xlink:href="#TimesNewRomanPSMT-2e"/>
     <use x="338.916016" xlink:href="#TimesNewRomanPSMT-37"/>
     <use x="388.916016" xlink:href="#TimesNewRomanPSMT-38"/>
     <use x="438.916016" xlink:href="#TimesNewRomanPSMT-6d"/>
     <use x="516.699219" xlink:href="#TimesNewRomanPSMT-2f"/>
     <use x="544.482422" xlink:href="#TimesNewRomanPSMT-73"/>
    </g>
   </g>
  </g>
 </g>
 <defs>
  <clipPath id="p8368e03a97">
   <rect height="332.64" width="334.8" x="63.336875" y="7.2"/>
  </clipPath>
 </defs>
</svg>
