<?xml version="1.0" encoding="utf-8" standalone="no"?>
<!DOCTYPE svg PUBLIC "-//W3C//DTD SVG 1.1//EN"
  "http://www.w3.org/Graphics/SVG/1.1/DTD/svg11.dtd">
<svg height="383.471875pt" version="1.1" viewBox="0 0 421.086875 383.471875" width="421.086875pt" xmlns="http://www.w3.org/2000/svg" xmlns:xlink="http://www.w3.org/1999/xlink">
 <metadata>
  <rdf:RDF xmlns:cc="http://creativecommons.org/ns#" xmlns:dc="http://purl.org/dc/elements/1.1/" xmlns:rdf="http://www.w3.org/1999/02/22-rdf-syntax-ns#">
   <cc:Work>
    <dc:type rdf:resource="http://purl.org/dc/dcmitype/StillImage"/>
    <dc:date>2021-06-11T14:39:39.240753</dc:date>
    <dc:format>image/svg+xml</dc:format>
    <dc:creator>
     <cc:Agent>
      <dc:title>Matplotlib v3.4.2, https://matplotlib.org/</dc:title>
     </cc:Agent>
    </dc:creator>
   </cc:Work>
  </rdf:RDF>
 </metadata>
 <defs>
  <style type="text/css">*{stroke-linecap:butt;stroke-linejoin:round;}</style>
 </defs>
 <g id="figure_1">
  <g id="patch_1">
   <path d="M 0 383.471875 
L 421.086875 383.471875 
L 421.086875 0 
L 0 0 
z
" style="fill:#ffffff;"/>
  </g>
  <g id="axes_1">
   <g id="patch_2">
    <path d="M 63.336875 339.84 
L 398.136875 339.84 
L 398.136875 7.2 
L 63.336875 7.2 
z
" style="fill:#ffffff;"/>
   </g>
   <g id="matplotlib.axis_1">
    <g id="xtick_1">
     <g id="line2d_1">
      <path clip-path="url(#pa057b0692a)" d="M 93.773239 339.84 
L 93.773239 7.2 
" style="fill:none;stroke:#000000;stroke-dasharray:0.5,0.825;stroke-dashoffset:0;stroke-width:0.5;"/>
     </g>
     <g id="line2d_2">
      <defs>
       <path d="M 0 0 
L 0 3.5 
" id="m446f294714" style="stroke:#000000;stroke-width:0.8;"/>
      </defs>
      <g>
       <use style="stroke:#000000;stroke-width:0.8;" x="93.773239" xlink:href="#m446f294714" y="339.84"/>
      </g>
     </g>
     <g id="text_1">
      <!-- 0.000 -->
      <g transform="translate(78.023239 356.56125)scale(0.14 -0.14)">
       <defs>
        <path d="M 231 2094 
Q 231 2819 450 3342 
Q 669 3866 1031 4122 
Q 1313 4325 1613 4325 
Q 2100 4325 2488 3828 
Q 2972 3213 2972 2159 
Q 2972 1422 2759 906 
Q 2547 391 2217 158 
Q 1888 -75 1581 -75 
Q 975 -75 572 641 
Q 231 1244 231 2094 
z
M 844 2016 
Q 844 1141 1059 588 
Q 1238 122 1591 122 
Q 1759 122 1940 273 
Q 2122 425 2216 781 
Q 2359 1319 2359 2297 
Q 2359 3022 2209 3506 
Q 2097 3866 1919 4016 
Q 1791 4119 1609 4119 
Q 1397 4119 1231 3928 
Q 1006 3669 925 3112 
Q 844 2556 844 2016 
z
" id="TimesNewRomanPSMT-30" transform="scale(0.015625)"/>
        <path d="M 800 606 
Q 947 606 1047 504 
Q 1147 403 1147 259 
Q 1147 116 1045 14 
Q 944 -88 800 -88 
Q 656 -88 554 14 
Q 453 116 453 259 
Q 453 406 554 506 
Q 656 606 800 606 
z
" id="TimesNewRomanPSMT-2e" transform="scale(0.015625)"/>
       </defs>
       <use xlink:href="#TimesNewRomanPSMT-30"/>
       <use x="50" xlink:href="#TimesNewRomanPSMT-2e"/>
       <use x="75" xlink:href="#TimesNewRomanPSMT-30"/>
       <use x="125" xlink:href="#TimesNewRomanPSMT-30"/>
       <use x="175" xlink:href="#TimesNewRomanPSMT-30"/>
      </g>
     </g>
    </g>
    <g id="xtick_2">
     <g id="line2d_3">
      <path clip-path="url(#pa057b0692a)" d="M 154.645966 339.84 
L 154.645966 7.2 
" style="fill:none;stroke:#000000;stroke-dasharray:0.5,0.825;stroke-dashoffset:0;stroke-width:0.5;"/>
     </g>
     <g id="line2d_4">
      <g>
       <use style="stroke:#000000;stroke-width:0.8;" x="154.645966" xlink:href="#m446f294714" y="339.84"/>
      </g>
     </g>
     <g id="text_2">
      <!-- 0.001 -->
      <g transform="translate(138.895966 356.56125)scale(0.14 -0.14)">
       <defs>
        <path d="M 750 3822 
L 1781 4325 
L 1884 4325 
L 1884 747 
Q 1884 391 1914 303 
Q 1944 216 2037 169 
Q 2131 122 2419 116 
L 2419 0 
L 825 0 
L 825 116 
Q 1125 122 1212 167 
Q 1300 213 1334 289 
Q 1369 366 1369 747 
L 1369 3034 
Q 1369 3497 1338 3628 
Q 1316 3728 1258 3775 
Q 1200 3822 1119 3822 
Q 1003 3822 797 3725 
L 750 3822 
z
" id="TimesNewRomanPSMT-31" transform="scale(0.015625)"/>
       </defs>
       <use xlink:href="#TimesNewRomanPSMT-30"/>
       <use x="50" xlink:href="#TimesNewRomanPSMT-2e"/>
       <use x="75" xlink:href="#TimesNewRomanPSMT-30"/>
       <use x="125" xlink:href="#TimesNewRomanPSMT-30"/>
       <use x="175" xlink:href="#TimesNewRomanPSMT-31"/>
      </g>
     </g>
    </g>
    <g id="xtick_3">
     <g id="line2d_5">
      <path clip-path="url(#pa057b0692a)" d="M 215.518693 339.84 
L 215.518693 7.2 
" style="fill:none;stroke:#000000;stroke-dasharray:0.5,0.825;stroke-dashoffset:0;stroke-width:0.5;"/>
     </g>
     <g id="line2d_6">
      <g>
       <use style="stroke:#000000;stroke-width:0.8;" x="215.518693" xlink:href="#m446f294714" y="339.84"/>
      </g>
     </g>
     <g id="text_3">
      <!-- 0.002 -->
      <g transform="translate(199.768693 356.56125)scale(0.14 -0.14)">
       <defs>
        <path d="M 2934 816 
L 2638 0 
L 138 0 
L 138 116 
Q 1241 1122 1691 1759 
Q 2141 2397 2141 2925 
Q 2141 3328 1894 3587 
Q 1647 3847 1303 3847 
Q 991 3847 742 3664 
Q 494 3481 375 3128 
L 259 3128 
Q 338 3706 661 4015 
Q 984 4325 1469 4325 
Q 1984 4325 2329 3994 
Q 2675 3663 2675 3213 
Q 2675 2891 2525 2569 
Q 2294 2063 1775 1497 
Q 997 647 803 472 
L 1909 472 
Q 2247 472 2383 497 
Q 2519 522 2628 598 
Q 2738 675 2819 816 
L 2934 816 
z
" id="TimesNewRomanPSMT-32" transform="scale(0.015625)"/>
       </defs>
       <use xlink:href="#TimesNewRomanPSMT-30"/>
       <use x="50" xlink:href="#TimesNewRomanPSMT-2e"/>
       <use x="75" xlink:href="#TimesNewRomanPSMT-30"/>
       <use x="125" xlink:href="#TimesNewRomanPSMT-30"/>
       <use x="175" xlink:href="#TimesNewRomanPSMT-32"/>
      </g>
     </g>
    </g>
    <g id="xtick_4">
     <g id="line2d_7">
      <path clip-path="url(#pa057b0692a)" d="M 276.39142 339.84 
L 276.39142 7.2 
" style="fill:none;stroke:#000000;stroke-dasharray:0.5,0.825;stroke-dashoffset:0;stroke-width:0.5;"/>
     </g>
     <g id="line2d_8">
      <g>
       <use style="stroke:#000000;stroke-width:0.8;" x="276.39142" xlink:href="#m446f294714" y="339.84"/>
      </g>
     </g>
     <g id="text_4">
      <!-- 0.003 -->
      <g transform="translate(260.64142 356.56125)scale(0.14 -0.14)">
       <defs>
        <path d="M 325 3431 
Q 506 3859 782 4092 
Q 1059 4325 1472 4325 
Q 1981 4325 2253 3994 
Q 2459 3747 2459 3466 
Q 2459 3003 1878 2509 
Q 2269 2356 2469 2072 
Q 2669 1788 2669 1403 
Q 2669 853 2319 450 
Q 1863 -75 997 -75 
Q 569 -75 414 31 
Q 259 138 259 259 
Q 259 350 332 419 
Q 406 488 509 488 
Q 588 488 669 463 
Q 722 447 909 348 
Q 1097 250 1169 231 
Q 1284 197 1416 197 
Q 1734 197 1970 444 
Q 2206 691 2206 1028 
Q 2206 1275 2097 1509 
Q 2016 1684 1919 1775 
Q 1784 1900 1550 2001 
Q 1316 2103 1072 2103 
L 972 2103 
L 972 2197 
Q 1219 2228 1467 2375 
Q 1716 2522 1828 2728 
Q 1941 2934 1941 3181 
Q 1941 3503 1739 3701 
Q 1538 3900 1238 3900 
Q 753 3900 428 3381 
L 325 3431 
z
" id="TimesNewRomanPSMT-33" transform="scale(0.015625)"/>
       </defs>
       <use xlink:href="#TimesNewRomanPSMT-30"/>
       <use x="50" xlink:href="#TimesNewRomanPSMT-2e"/>
       <use x="75" xlink:href="#TimesNewRomanPSMT-30"/>
       <use x="125" xlink:href="#TimesNewRomanPSMT-30"/>
       <use x="175" xlink:href="#TimesNewRomanPSMT-33"/>
      </g>
     </g>
    </g>
    <g id="xtick_5">
     <g id="line2d_9">
      <path clip-path="url(#pa057b0692a)" d="M 337.264148 339.84 
L 337.264148 7.2 
" style="fill:none;stroke:#000000;stroke-dasharray:0.5,0.825;stroke-dashoffset:0;stroke-width:0.5;"/>
     </g>
     <g id="line2d_10">
      <g>
       <use style="stroke:#000000;stroke-width:0.8;" x="337.264148" xlink:href="#m446f294714" y="339.84"/>
      </g>
     </g>
     <g id="text_5">
      <!-- 0.004 -->
      <g transform="translate(321.514148 356.56125)scale(0.14 -0.14)">
       <defs>
        <path d="M 2978 1563 
L 2978 1119 
L 2409 1119 
L 2409 0 
L 1894 0 
L 1894 1119 
L 100 1119 
L 100 1519 
L 2066 4325 
L 2409 4325 
L 2409 1563 
L 2978 1563 
z
M 1894 1563 
L 1894 3666 
L 406 1563 
L 1894 1563 
z
" id="TimesNewRomanPSMT-34" transform="scale(0.015625)"/>
       </defs>
       <use xlink:href="#TimesNewRomanPSMT-30"/>
       <use x="50" xlink:href="#TimesNewRomanPSMT-2e"/>
       <use x="75" xlink:href="#TimesNewRomanPSMT-30"/>
       <use x="125" xlink:href="#TimesNewRomanPSMT-30"/>
       <use x="175" xlink:href="#TimesNewRomanPSMT-34"/>
      </g>
     </g>
    </g>
    <g id="xtick_6">
     <g id="line2d_11">
      <path clip-path="url(#pa057b0692a)" d="M 398.136875 339.84 
L 398.136875 7.2 
" style="fill:none;stroke:#000000;stroke-dasharray:0.5,0.825;stroke-dashoffset:0;stroke-width:0.5;"/>
     </g>
     <g id="line2d_12">
      <g>
       <use style="stroke:#000000;stroke-width:0.8;" x="398.136875" xlink:href="#m446f294714" y="339.84"/>
      </g>
     </g>
     <g id="text_6">
      <!-- 0.005 -->
      <g transform="translate(382.386875 356.56125)scale(0.14 -0.14)">
       <defs>
        <path d="M 2778 4238 
L 2534 3706 
L 1259 3706 
L 981 3138 
Q 1809 3016 2294 2522 
Q 2709 2097 2709 1522 
Q 2709 1188 2573 903 
Q 2438 619 2231 419 
Q 2025 219 1772 97 
Q 1413 -75 1034 -75 
Q 653 -75 479 54 
Q 306 184 306 341 
Q 306 428 378 495 
Q 450 563 559 563 
Q 641 563 702 538 
Q 763 513 909 409 
Q 1144 247 1384 247 
Q 1750 247 2026 523 
Q 2303 800 2303 1197 
Q 2303 1581 2056 1914 
Q 1809 2247 1375 2428 
Q 1034 2569 447 2591 
L 1259 4238 
L 2778 4238 
z
" id="TimesNewRomanPSMT-35" transform="scale(0.015625)"/>
       </defs>
       <use xlink:href="#TimesNewRomanPSMT-30"/>
       <use x="50" xlink:href="#TimesNewRomanPSMT-2e"/>
       <use x="75" xlink:href="#TimesNewRomanPSMT-30"/>
       <use x="125" xlink:href="#TimesNewRomanPSMT-30"/>
       <use x="175" xlink:href="#TimesNewRomanPSMT-35"/>
      </g>
     </g>
    </g>
    <g id="text_7">
     <!-- Time (sec) -->
     <g transform="translate(200.858906 373.277188)scale(0.14 -0.14)">
      <defs>
       <path d="M 3703 4238 
L 3750 3244 
L 3631 3244 
Q 3597 3506 3538 3619 
Q 3441 3800 3280 3886 
Q 3119 3972 2856 3972 
L 2259 3972 
L 2259 734 
Q 2259 344 2344 247 
Q 2463 116 2709 116 
L 2856 116 
L 2856 0 
L 1059 0 
L 1059 116 
L 1209 116 
Q 1478 116 1591 278 
Q 1659 378 1659 734 
L 1659 3972 
L 1150 3972 
Q 853 3972 728 3928 
Q 566 3869 450 3700 
Q 334 3531 313 3244 
L 194 3244 
L 244 4238 
L 3703 4238 
z
" id="TimesNewRomanPSMT-54" transform="scale(0.015625)"/>
       <path d="M 928 4444 
Q 1059 4444 1151 4351 
Q 1244 4259 1244 4128 
Q 1244 3997 1151 3903 
Q 1059 3809 928 3809 
Q 797 3809 703 3903 
Q 609 3997 609 4128 
Q 609 4259 701 4351 
Q 794 4444 928 4444 
z
M 1188 2947 
L 1188 647 
Q 1188 378 1227 289 
Q 1266 200 1342 156 
Q 1419 113 1622 113 
L 1622 0 
L 231 0 
L 231 113 
Q 441 113 512 153 
Q 584 194 626 287 
Q 669 381 669 647 
L 669 1750 
Q 669 2216 641 2353 
Q 619 2453 572 2492 
Q 525 2531 444 2531 
Q 356 2531 231 2484 
L 188 2597 
L 1050 2947 
L 1188 2947 
z
" id="TimesNewRomanPSMT-69" transform="scale(0.015625)"/>
       <path d="M 1050 2338 
Q 1363 2650 1419 2697 
Q 1559 2816 1721 2881 
Q 1884 2947 2044 2947 
Q 2313 2947 2506 2790 
Q 2700 2634 2766 2338 
Q 3088 2713 3309 2830 
Q 3531 2947 3766 2947 
Q 3994 2947 4170 2830 
Q 4347 2713 4450 2447 
Q 4519 2266 4519 1878 
L 4519 647 
Q 4519 378 4559 278 
Q 4591 209 4675 161 
Q 4759 113 4950 113 
L 4950 0 
L 3538 0 
L 3538 113 
L 3597 113 
Q 3781 113 3884 184 
Q 3956 234 3988 344 
Q 4000 397 4000 647 
L 4000 1878 
Q 4000 2228 3916 2372 
Q 3794 2572 3525 2572 
Q 3359 2572 3192 2489 
Q 3025 2406 2788 2181 
L 2781 2147 
L 2788 2013 
L 2788 647 
Q 2788 353 2820 281 
Q 2853 209 2943 161 
Q 3034 113 3253 113 
L 3253 0 
L 1806 0 
L 1806 113 
Q 2044 113 2133 169 
Q 2222 225 2256 338 
Q 2272 391 2272 647 
L 2272 1878 
Q 2272 2228 2169 2381 
Q 2031 2581 1784 2581 
Q 1616 2581 1450 2491 
Q 1191 2353 1050 2181 
L 1050 647 
Q 1050 366 1089 281 
Q 1128 197 1204 155 
Q 1281 113 1516 113 
L 1516 0 
L 100 0 
L 100 113 
Q 297 113 375 155 
Q 453 197 493 289 
Q 534 381 534 647 
L 534 1741 
Q 534 2213 506 2350 
Q 484 2453 437 2492 
Q 391 2531 309 2531 
Q 222 2531 100 2484 
L 53 2597 
L 916 2947 
L 1050 2947 
L 1050 2338 
z
" id="TimesNewRomanPSMT-6d" transform="scale(0.015625)"/>
       <path d="M 681 1784 
Q 678 1147 991 784 
Q 1303 422 1725 422 
Q 2006 422 2214 576 
Q 2422 731 2563 1106 
L 2659 1044 
Q 2594 616 2278 264 
Q 1963 -88 1488 -88 
Q 972 -88 605 314 
Q 238 716 238 1394 
Q 238 2128 614 2539 
Q 991 2950 1559 2950 
Q 2041 2950 2350 2633 
Q 2659 2316 2659 1784 
L 681 1784 
z
M 681 1966 
L 2006 1966 
Q 1991 2241 1941 2353 
Q 1863 2528 1708 2628 
Q 1553 2728 1384 2728 
Q 1125 2728 920 2526 
Q 716 2325 681 1966 
z
" id="TimesNewRomanPSMT-65" transform="scale(0.015625)"/>
       <path id="TimesNewRomanPSMT-20" transform="scale(0.015625)"/>
       <path d="M 1988 -1253 
L 1988 -1369 
Q 1516 -1131 1200 -813 
Q 750 -359 506 256 
Q 263 872 263 1534 
Q 263 2503 741 3301 
Q 1219 4100 1988 4444 
L 1988 4313 
Q 1603 4100 1356 3731 
Q 1109 3363 987 2797 
Q 866 2231 866 1616 
Q 866 947 969 400 
Q 1050 -31 1165 -292 
Q 1281 -553 1476 -793 
Q 1672 -1034 1988 -1253 
z
" id="TimesNewRomanPSMT-28" transform="scale(0.015625)"/>
       <path d="M 2050 2947 
L 2050 1972 
L 1947 1972 
Q 1828 2431 1642 2597 
Q 1456 2763 1169 2763 
Q 950 2763 815 2647 
Q 681 2531 681 2391 
Q 681 2216 781 2091 
Q 878 1963 1175 1819 
L 1631 1597 
Q 2266 1288 2266 781 
Q 2266 391 1970 151 
Q 1675 -88 1309 -88 
Q 1047 -88 709 6 
Q 606 38 541 38 
Q 469 38 428 -44 
L 325 -44 
L 325 978 
L 428 978 
Q 516 541 762 319 
Q 1009 97 1316 97 
Q 1531 97 1667 223 
Q 1803 350 1803 528 
Q 1803 744 1651 891 
Q 1500 1038 1047 1263 
Q 594 1488 453 1669 
Q 313 1847 313 2119 
Q 313 2472 555 2709 
Q 797 2947 1181 2947 
Q 1350 2947 1591 2875 
Q 1750 2828 1803 2828 
Q 1853 2828 1881 2850 
Q 1909 2872 1947 2947 
L 2050 2947 
z
" id="TimesNewRomanPSMT-73" transform="scale(0.015625)"/>
       <path d="M 2631 1088 
Q 2516 522 2178 217 
Q 1841 -88 1431 -88 
Q 944 -88 581 321 
Q 219 731 219 1428 
Q 219 2103 620 2525 
Q 1022 2947 1584 2947 
Q 2006 2947 2278 2723 
Q 2550 2500 2550 2259 
Q 2550 2141 2473 2067 
Q 2397 1994 2259 1994 
Q 2075 1994 1981 2113 
Q 1928 2178 1911 2362 
Q 1894 2547 1784 2644 
Q 1675 2738 1481 2738 
Q 1169 2738 978 2506 
Q 725 2200 725 1697 
Q 725 1184 976 792 
Q 1228 400 1656 400 
Q 1963 400 2206 609 
Q 2378 753 2541 1131 
L 2631 1088 
z
" id="TimesNewRomanPSMT-63" transform="scale(0.015625)"/>
       <path d="M 144 4313 
L 144 4444 
Q 619 4209 934 3891 
Q 1381 3434 1625 2820 
Q 1869 2206 1869 1541 
Q 1869 572 1392 -226 
Q 916 -1025 144 -1369 
L 144 -1253 
Q 528 -1038 776 -670 
Q 1025 -303 1145 264 
Q 1266 831 1266 1447 
Q 1266 2113 1163 2663 
Q 1084 3094 967 3353 
Q 850 3613 656 3853 
Q 463 4094 144 4313 
z
" id="TimesNewRomanPSMT-29" transform="scale(0.015625)"/>
      </defs>
      <use xlink:href="#TimesNewRomanPSMT-54"/>
      <use x="57.583984" xlink:href="#TimesNewRomanPSMT-69"/>
      <use x="85.367188" xlink:href="#TimesNewRomanPSMT-6d"/>
      <use x="163.150391" xlink:href="#TimesNewRomanPSMT-65"/>
      <use x="207.535156" xlink:href="#TimesNewRomanPSMT-20"/>
      <use x="232.535156" xlink:href="#TimesNewRomanPSMT-28"/>
      <use x="265.835938" xlink:href="#TimesNewRomanPSMT-73"/>
      <use x="304.751953" xlink:href="#TimesNewRomanPSMT-65"/>
      <use x="349.136719" xlink:href="#TimesNewRomanPSMT-63"/>
      <use x="393.521484" xlink:href="#TimesNewRomanPSMT-29"/>
     </g>
    </g>
   </g>
   <g id="matplotlib.axis_2">
    <g id="ytick_1">
     <g id="line2d_13">
      <path clip-path="url(#pa057b0692a)" d="M 63.336875 289.608677 
L 398.136875 289.608677 
" style="fill:none;stroke:#000000;stroke-dasharray:0.5,0.825;stroke-dashoffset:0;stroke-width:0.5;"/>
     </g>
     <g id="line2d_14">
      <defs>
       <path d="M 0 0 
L -3.5 0 
" id="m426278569d" style="stroke:#000000;stroke-width:0.8;"/>
      </defs>
      <g>
       <use style="stroke:#000000;stroke-width:0.8;" x="63.336875" xlink:href="#m426278569d" y="289.608677"/>
      </g>
     </g>
     <g id="text_8">
      <!-- −0.04 -->
      <g transform="translate(23.942188 294.469302)scale(0.14 -0.14)">
       <defs>
        <path d="M 3484 2000 
L 116 2000 
L 116 2256 
L 3484 2256 
L 3484 2000 
z
" id="TimesNewRomanPSMT-2212" transform="scale(0.015625)"/>
       </defs>
       <use xlink:href="#TimesNewRomanPSMT-2212"/>
       <use x="56.396484" xlink:href="#TimesNewRomanPSMT-30"/>
       <use x="106.396484" xlink:href="#TimesNewRomanPSMT-2e"/>
       <use x="131.396484" xlink:href="#TimesNewRomanPSMT-30"/>
       <use x="181.396484" xlink:href="#TimesNewRomanPSMT-34"/>
      </g>
     </g>
    </g>
    <g id="ytick_2">
     <g id="line2d_15">
      <path clip-path="url(#pa057b0692a)" d="M 63.336875 227.038942 
L 398.136875 227.038942 
" style="fill:none;stroke:#000000;stroke-dasharray:0.5,0.825;stroke-dashoffset:0;stroke-width:0.5;"/>
     </g>
     <g id="line2d_16">
      <g>
       <use style="stroke:#000000;stroke-width:0.8;" x="63.336875" xlink:href="#m426278569d" y="227.038942"/>
      </g>
     </g>
     <g id="text_9">
      <!-- −0.02 -->
      <g transform="translate(23.942188 231.899567)scale(0.14 -0.14)">
       <use xlink:href="#TimesNewRomanPSMT-2212"/>
       <use x="56.396484" xlink:href="#TimesNewRomanPSMT-30"/>
       <use x="106.396484" xlink:href="#TimesNewRomanPSMT-2e"/>
       <use x="131.396484" xlink:href="#TimesNewRomanPSMT-30"/>
       <use x="181.396484" xlink:href="#TimesNewRomanPSMT-32"/>
      </g>
     </g>
    </g>
    <g id="ytick_3">
     <g id="line2d_17">
      <path clip-path="url(#pa057b0692a)" d="M 63.336875 164.469206 
L 398.136875 164.469206 
" style="fill:none;stroke:#000000;stroke-dasharray:0.5,0.825;stroke-dashoffset:0;stroke-width:0.5;"/>
     </g>
     <g id="line2d_18">
      <g>
       <use style="stroke:#000000;stroke-width:0.8;" x="63.336875" xlink:href="#m426278569d" y="164.469206"/>
      </g>
     </g>
     <g id="text_10">
      <!-- 0.00 -->
      <g transform="translate(31.836875 169.329831)scale(0.14 -0.14)">
       <use xlink:href="#TimesNewRomanPSMT-30"/>
       <use x="50" xlink:href="#TimesNewRomanPSMT-2e"/>
       <use x="75" xlink:href="#TimesNewRomanPSMT-30"/>
       <use x="125" xlink:href="#TimesNewRomanPSMT-30"/>
      </g>
     </g>
    </g>
    <g id="ytick_4">
     <g id="line2d_19">
      <path clip-path="url(#pa057b0692a)" d="M 63.336875 101.899471 
L 398.136875 101.899471 
" style="fill:none;stroke:#000000;stroke-dasharray:0.5,0.825;stroke-dashoffset:0;stroke-width:0.5;"/>
     </g>
     <g id="line2d_20">
      <g>
       <use style="stroke:#000000;stroke-width:0.8;" x="63.336875" xlink:href="#m426278569d" y="101.899471"/>
      </g>
     </g>
     <g id="text_11">
      <!-- 0.02 -->
      <g transform="translate(31.836875 106.760096)scale(0.14 -0.14)">
       <use xlink:href="#TimesNewRomanPSMT-30"/>
       <use x="50" xlink:href="#TimesNewRomanPSMT-2e"/>
       <use x="75" xlink:href="#TimesNewRomanPSMT-30"/>
       <use x="125" xlink:href="#TimesNewRomanPSMT-32"/>
      </g>
     </g>
    </g>
    <g id="ytick_5">
     <g id="line2d_21">
      <path clip-path="url(#pa057b0692a)" d="M 63.336875 39.329736 
L 398.136875 39.329736 
" style="fill:none;stroke:#000000;stroke-dasharray:0.5,0.825;stroke-dashoffset:0;stroke-width:0.5;"/>
     </g>
     <g id="line2d_22">
      <g>
       <use style="stroke:#000000;stroke-width:0.8;" x="63.336875" xlink:href="#m426278569d" y="39.329736"/>
      </g>
     </g>
     <g id="text_12">
      <!-- 0.04 -->
      <g transform="translate(31.836875 44.190361)scale(0.14 -0.14)">
       <use xlink:href="#TimesNewRomanPSMT-30"/>
       <use x="50" xlink:href="#TimesNewRomanPSMT-2e"/>
       <use x="75" xlink:href="#TimesNewRomanPSMT-30"/>
       <use x="125" xlink:href="#TimesNewRomanPSMT-34"/>
      </g>
     </g>
    </g>
    <g id="text_13">
     <!-- Volatage (V) -->
     <g transform="translate(16.92125 209.352344)rotate(-90)scale(0.14 -0.14)">
      <defs>
       <path d="M 4544 4238 
L 4544 4122 
Q 4319 4081 4203 3978 
Q 4038 3825 3909 3509 
L 2431 -97 
L 2316 -97 
L 728 3556 
Q 606 3838 556 3900 
Q 478 3997 364 4051 
Q 250 4106 56 4122 
L 56 4238 
L 1788 4238 
L 1788 4122 
Q 1494 4094 1406 4022 
Q 1319 3950 1319 3838 
Q 1319 3681 1463 3350 
L 2541 866 
L 3541 3319 
Q 3688 3681 3688 3822 
Q 3688 3913 3597 3995 
Q 3506 4078 3291 4113 
Q 3275 4116 3238 4122 
L 3238 4238 
L 4544 4238 
z
" id="TimesNewRomanPSMT-56" transform="scale(0.015625)"/>
       <path d="M 1600 2947 
Q 2250 2947 2644 2453 
Q 2978 2031 2978 1484 
Q 2978 1100 2793 706 
Q 2609 313 2286 112 
Q 1963 -88 1566 -88 
Q 919 -88 538 428 
Q 216 863 216 1403 
Q 216 1797 411 2186 
Q 606 2575 925 2761 
Q 1244 2947 1600 2947 
z
M 1503 2744 
Q 1338 2744 1170 2645 
Q 1003 2547 900 2300 
Q 797 2053 797 1666 
Q 797 1041 1045 587 
Q 1294 134 1700 134 
Q 2003 134 2200 384 
Q 2397 634 2397 1244 
Q 2397 2006 2069 2444 
Q 1847 2744 1503 2744 
z
" id="TimesNewRomanPSMT-6f" transform="scale(0.015625)"/>
       <path d="M 1184 4444 
L 1184 647 
Q 1184 378 1223 290 
Q 1263 203 1344 158 
Q 1425 113 1647 113 
L 1647 0 
L 244 0 
L 244 113 
Q 441 113 512 153 
Q 584 194 625 287 
Q 666 381 666 647 
L 666 3247 
Q 666 3731 644 3842 
Q 622 3953 573 3993 
Q 525 4034 450 4034 
Q 369 4034 244 3984 
L 191 4094 
L 1044 4444 
L 1184 4444 
z
" id="TimesNewRomanPSMT-6c" transform="scale(0.015625)"/>
       <path d="M 1822 413 
Q 1381 72 1269 19 
Q 1100 -59 909 -59 
Q 613 -59 420 144 
Q 228 347 228 678 
Q 228 888 322 1041 
Q 450 1253 767 1440 
Q 1084 1628 1822 1897 
L 1822 2009 
Q 1822 2438 1686 2597 
Q 1550 2756 1291 2756 
Q 1094 2756 978 2650 
Q 859 2544 859 2406 
L 866 2225 
Q 866 2081 792 2003 
Q 719 1925 600 1925 
Q 484 1925 411 2006 
Q 338 2088 338 2228 
Q 338 2497 613 2722 
Q 888 2947 1384 2947 
Q 1766 2947 2009 2819 
Q 2194 2722 2281 2516 
Q 2338 2381 2338 1966 
L 2338 994 
Q 2338 584 2353 492 
Q 2369 400 2405 369 
Q 2441 338 2488 338 
Q 2538 338 2575 359 
Q 2641 400 2828 588 
L 2828 413 
Q 2478 -56 2159 -56 
Q 2006 -56 1915 50 
Q 1825 156 1822 413 
z
M 1822 616 
L 1822 1706 
Q 1350 1519 1213 1441 
Q 966 1303 859 1153 
Q 753 1003 753 825 
Q 753 600 887 451 
Q 1022 303 1197 303 
Q 1434 303 1822 616 
z
" id="TimesNewRomanPSMT-61" transform="scale(0.015625)"/>
       <path d="M 1031 3803 
L 1031 2863 
L 1700 2863 
L 1700 2644 
L 1031 2644 
L 1031 788 
Q 1031 509 1111 412 
Q 1191 316 1316 316 
Q 1419 316 1516 380 
Q 1613 444 1666 569 
L 1788 569 
Q 1678 263 1478 108 
Q 1278 -47 1066 -47 
Q 922 -47 784 33 
Q 647 113 581 261 
Q 516 409 516 719 
L 516 2644 
L 63 2644 
L 63 2747 
Q 234 2816 414 2980 
Q 594 3144 734 3369 
Q 806 3488 934 3803 
L 1031 3803 
z
" id="TimesNewRomanPSMT-74" transform="scale(0.015625)"/>
       <path d="M 966 1044 
Q 703 1172 562 1401 
Q 422 1631 422 1909 
Q 422 2334 742 2640 
Q 1063 2947 1563 2947 
Q 1972 2947 2272 2747 
L 2878 2747 
Q 3013 2747 3034 2739 
Q 3056 2731 3066 2713 
Q 3084 2684 3084 2613 
Q 3084 2531 3069 2500 
Q 3059 2484 3036 2475 
Q 3013 2466 2878 2466 
L 2506 2466 
Q 2681 2241 2681 1891 
Q 2681 1491 2375 1206 
Q 2069 922 1553 922 
Q 1341 922 1119 984 
Q 981 866 932 777 
Q 884 688 884 625 
Q 884 572 936 522 
Q 988 472 1138 450 
Q 1225 438 1575 428 
Q 2219 413 2409 384 
Q 2700 344 2873 169 
Q 3047 -6 3047 -263 
Q 3047 -616 2716 -925 
Q 2228 -1381 1444 -1381 
Q 841 -1381 425 -1109 
Q 191 -953 191 -784 
Q 191 -709 225 -634 
Q 278 -519 444 -313 
Q 466 -284 763 25 
Q 600 122 533 198 
Q 466 275 466 372 
Q 466 481 555 628 
Q 644 775 966 1044 
z
M 1509 2797 
Q 1278 2797 1122 2612 
Q 966 2428 966 2047 
Q 966 1553 1178 1281 
Q 1341 1075 1591 1075 
Q 1828 1075 1981 1253 
Q 2134 1431 2134 1813 
Q 2134 2309 1919 2591 
Q 1759 2797 1509 2797 
z
M 934 0 
Q 788 -159 713 -296 
Q 638 -434 638 -550 
Q 638 -700 819 -813 
Q 1131 -1006 1722 -1006 
Q 2284 -1006 2551 -807 
Q 2819 -609 2819 -384 
Q 2819 -222 2659 -153 
Q 2497 -84 2016 -72 
Q 1313 -53 934 0 
z
" id="TimesNewRomanPSMT-67" transform="scale(0.015625)"/>
      </defs>
      <use xlink:href="#TimesNewRomanPSMT-56"/>
      <use x="59.341797" xlink:href="#TimesNewRomanPSMT-6f"/>
      <use x="109.341797" xlink:href="#TimesNewRomanPSMT-6c"/>
      <use x="137.125" xlink:href="#TimesNewRomanPSMT-61"/>
      <use x="181.509766" xlink:href="#TimesNewRomanPSMT-74"/>
      <use x="209.292969" xlink:href="#TimesNewRomanPSMT-61"/>
      <use x="253.677734" xlink:href="#TimesNewRomanPSMT-67"/>
      <use x="303.677734" xlink:href="#TimesNewRomanPSMT-65"/>
      <use x="348.0625" xlink:href="#TimesNewRomanPSMT-20"/>
      <use x="373.0625" xlink:href="#TimesNewRomanPSMT-28"/>
      <use x="406.363281" xlink:href="#TimesNewRomanPSMT-56"/>
      <use x="478.580078" xlink:href="#TimesNewRomanPSMT-29"/>
     </g>
    </g>
   </g>
   <g id="LineCollection_1">
    <path clip-path="url(#pa057b0692a)" d="M 78.555057 164.469206 
L 382.918693 164.469206 
" style="fill:none;stroke:#1f77b4;stroke-width:1.5;"/>
   </g>
   <g id="line2d_23">
    <path clip-path="url(#pa057b0692a)" d="M 78.555057 164.424156 
L 78.707239 164.306838 
L 78.737675 164.345944 
L 78.85942 164.345944 
L 80.442111 164.38505 
L 80.472548 164.463262 
L 80.563857 164.424156 
L 83.820548 164.502368 
L 83.911857 164.541474 
L 83.942293 164.502368 
L 84.064039 164.502368 
L 84.21622 164.541474 
L 85.829348 164.619687 
L 85.98153 164.658793 
L 86.072839 164.619687 
L 86.103275 164.658793 
L 86.22502 164.658793 
L 87.22942 164.737005 
L 87.381602 164.776111 
L 88.294693 164.776111 
L 88.32513 164.893429 
L 88.416439 164.854323 
L 88.629493 164.854323 
L 88.65993 164.971641 
L 88.751239 164.932535 
L 88.872984 164.893429 
L 89.025166 164.932535 
L 90.090439 165.010747 
L 90.151311 165.049854 
L 90.181748 165.010747 
L 90.303493 165.010747 
L 91.368766 165.049854 
L 91.399202 165.128066 
L 91.460075 165.08896 
L 91.520948 165.167172 
L 91.58182 165.08896 
L 91.67313 165.167172 
L 91.703566 165.128066 
L 91.825311 165.206278 
L 91.855748 165.167172 
L 92.464475 165.245384 
L 92.616657 165.28449 
L 92.647093 165.206278 
L 92.738402 165.245384 
L 93.042766 165.323596 
L 93.164511 165.323596 
L 93.59062 165.362702 
L 93.621057 165.440914 
L 93.68193 165.362702 
L 94.321093 165.440914 
L 94.412402 165.480021 
L 94.442839 165.440914 
L 95.508111 165.519127 
L 95.660293 165.558233 
L 95.69073 165.480021 
L 95.751602 165.519127 
L 95.873348 165.558233 
L 95.995093 165.519127 
L 96.147275 165.597339 
L 96.238584 165.558233 
L 96.26902 165.597339 
L 97.151675 165.675551 
L 97.27342 165.714657 
L 97.425602 165.675551 
L 97.577784 165.753763 
L 97.60822 165.675551 
L 97.669093 165.714657 
L 97.821275 165.753763 
L 98.521311 165.831975 
L 98.643057 165.831975 
L 99.28222 165.910188 
L 99.434402 165.949294 
L 99.586584 165.910188 
L 99.677893 165.9884 
L 99.70833 165.949294 
L 99.830075 165.9884 
L 99.921384 165.9884 
L 100.073566 166.027506 
L 100.71273 166.027506 
L 100.743166 166.144824 
L 100.834475 166.105718 
L 100.95622 166.105718 
L 101.169275 166.144824 
L 101.29102 166.223036 
L 101.321457 166.144824 
L 101.412766 166.18393 
L 101.808439 166.262142 
L 101.96062 166.301248 
L 102.569348 166.37946 
L 102.72153 166.418566 
L 103.29982 166.457672 
L 103.421566 166.535885 
L 103.908548 166.614097 
L 104.06073 166.653203 
L 104.152039 166.653203 
L 104.30422 166.692309 
L 105.126002 166.770521 
L 105.247748 166.809627 
L 105.369493 166.809627 
L 105.521675 166.848733 
L 106.008657 166.926946 
L 106.160839 166.966052 
L 106.252148 166.926946 
L 106.282584 166.966052 
L 106.434766 167.005158 
L 107.07393 167.08337 
L 107.165239 167.122476 
L 107.195675 167.08337 
L 107.530475 167.161582 
L 107.65222 167.161582 
L 107.895711 167.200688 
L 107.926148 167.2789 
L 107.98702 167.239794 
L 108.108766 167.239794 
L 108.260948 167.2789 
L 108.687057 167.357113 
L 108.839239 167.396219 
L 108.960984 167.396219 
L 109.32622 167.474431 
L 109.478402 167.513537 
L 109.600148 167.513537 
L 109.934948 167.552643 
L 109.965384 167.630855 
L 110.056693 167.591749 
L 110.208875 167.630855 
L 110.695857 167.709067 
L 110.817602 167.748173 
L 110.939348 167.748173 
L 111.365457 167.826386 
L 111.395893 167.904598 
L 111.487202 167.865492 
L 111.700257 167.943704 
L 111.822002 167.943704 
L 112.00462 168.021916 
L 112.126366 168.021916 
L 112.369857 168.100128 
L 112.491602 168.100128 
L 112.948148 168.17834 
L 113.130766 168.256553 
L 113.161202 168.217446 
L 113.191639 168.334765 
L 113.222075 168.295659 
L 113.496002 168.373871 
L 113.648184 168.452083 
L 113.739493 168.412977 
L 113.891675 168.530295 
L 114.01342 168.530295 
L 114.165602 168.569401 
L 114.287348 168.647613 
L 114.561275 168.725826 
L 114.77433 168.843144 
L 115.01782 168.921356 
L 115.170002 169.038674 
L 115.261311 168.960462 
L 115.383057 169.07778 
L 115.535239 169.038674 
L 115.77873 169.195099 
L 115.870039 169.195099 
L 116.083093 169.312417 
L 116.11353 169.273311 
L 116.174402 169.351523 
L 116.661384 169.390629 
L 116.78313 169.468841 
L 116.813566 169.390629 
L 116.874439 169.468841 
L 117.02662 169.58616 
L 117.057057 169.547053 
L 117.178802 169.547053 
L 117.36142 169.664372 
L 117.422293 169.625266 
L 117.45273 169.664372 
L 117.604911 169.742584 
L 117.726657 169.703478 
L 117.909275 169.78169 
L 118.12233 169.820796 
L 118.244075 169.899008 
L 118.487566 169.97722 
L 118.670184 170.055433 
L 118.852802 170.094539 
L 119.004984 170.211857 
L 119.187602 170.290069 
L 119.37022 170.368281 
L 119.46153 170.368281 
L 119.735457 170.563812 
L 119.918075 170.642024 
L 120.13113 170.798448 
L 120.161566 170.759342 
L 120.222439 170.837554 
L 120.344184 170.915767 
L 120.496366 171.033085 
L 120.587675 171.111297 
L 121.105093 171.658782 
L 121.13553 171.619675 
L 121.165966 171.697888 
L 121.987748 172.871071 
L 122.200802 173.262131 
L 122.870402 174.748163 
L 122.900839 174.748163 
L 123.113893 175.295648 
L 123.205202 175.530284 
L 123.540002 176.390618 
L 124.240039 178.463241 
L 124.544402 179.519104 
L 124.848766 180.535864 
L 125.214002 181.86547 
L 126.674948 187.926912 
L 127.83153 193.323553 
L 128.531566 196.452039 
L 129.201166 199.34589 
L 130.75342 204.898954 
L 130.875166 205.172696 
L 131.301275 206.384985 
L 131.453457 206.73694 
L 131.940439 207.714592 
L 132.457857 208.222971 
L 133.127457 208.144759 
L 133.736184 207.206213 
L 134.375348 205.798394 
L 134.405784 205.798394 
L 134.77102 204.820742 
L 135.166693 203.608453 
L 135.410184 202.669907 
L 135.653675 201.809573 
L 136.77982 195.513493 
L 138.849493 178.736983 
L 141.832257 142.994022 
L 143.262766 123.206343 
L 146.641202 77.022057 
L 147.645602 65.524868 
L 148.436948 57.429906 
L 149.045675 52.307009 
L 149.745711 46.949484 
L 150.415311 43.351722 
L 150.93273 41.161778 
L 151.054475 40.848923 
L 151.480584 40.027698 
L 151.51102 40.066814 
L 151.663202 39.793058 
L 151.754511 39.714856 
L 151.906693 39.597531 
L 152.119748 39.441104 
L 152.241493 39.480216 
L 152.363239 39.441104 
L 152.484984 39.480216 
L 152.51542 39.441104 
L 152.545857 39.558431 
L 152.698039 39.636644 
L 153.124148 40.301441 
L 153.489384 41.279093 
L 153.580693 41.513732 
L 154.980766 49.178528 
L 156.654766 65.172914 
L 158.29833 87.5807 
L 159.272293 104.239892 
L 160.154948 120.820872 
L 163.624693 194.418524 
L 166.455275 253.859772 
L 167.91622 279.982639 
L 169.316293 299.88763 
L 170.503311 312.36248 
L 171.720766 320.92671 
L 172.633857 324.01609 
L 172.968657 324.602675 
L 173.151275 324.72 
L 173.394766 324.563573 
L 173.455639 324.48536 
L 173.881748 323.781451 
L 174.70353 321.43508 
L 175.007893 319.949061 
L 175.129639 319.362463 
L 176.04273 314.122254 
L 177.108002 305.518909 
L 177.594984 300.904394 
L 178.842875 286.943525 
L 180.699493 262.228467 
L 181.216911 255.032957 
L 184.351857 205.094484 
L 184.930148 196.060979 
L 187.121566 163.915777 
L 189.982584 128.485665 
L 190.165202 126.647679 
L 191.047857 116.714733 
L 192.843602 99.351632 
L 194.730657 85.625396 
L 195.03502 83.552773 
L 195.613311 79.95501 
L 195.948111 77.725967 
L 196.739457 72.446645 
L 197.04382 70.882405 
L 197.37862 68.848889 
L 197.682984 67.245536 
L 198.078657 65.681293 
L 198.169966 65.407553 
L 198.504766 64.351689 
L 198.778693 63.217609 
L 199.083057 62.161745 
L 199.296111 61.575151 
L 200.117893 59.18968 
L 200.513566 58.0556 
L 201.030984 57.234375 
L 201.548402 56.139411 
L 201.578839 56.139411 
L 201.761457 55.865669 
L 201.944075 55.787456 
L 202.035384 55.826556 
L 202.06582 55.748344 
L 202.15713 55.787456 
L 202.583239 55.709241 
L 202.82673 55.552817 
L 202.887602 55.591929 
L 202.918039 55.552817 
L 203.009348 55.513714 
L 203.039784 55.552817 
L 203.283275 55.631029 
L 203.557202 55.865669 
L 203.709384 55.826556 
L 203.861566 55.865669 
L 204.013748 55.826556 
L 204.470293 55.904772 
L 205.596439 57.234375 
L 205.626875 57.195275 
L 205.687748 57.273488 
L 205.900802 57.664545 
L 206.266039 58.368455 
L 206.326911 58.446667 
L 206.600839 58.876837 
L 206.722584 58.955049 
L 207.331311 59.893589 
L 207.574802 60.401971 
L 207.909602 61.027666 
L 207.940039 61.027666 
L 208.122657 61.34052 
L 208.335711 61.731578 
L 208.85313 63.295825 
L 209.887966 66.189669 
L 210.283639 67.714809 
L 211.288039 70.569556 
L 212.231566 73.815358 
L 212.292439 74.010892 
L 214.727348 87.033215 
L 217.070948 105.921454 
L 217.618802 110.418653 
L 218.13622 115.267808 
L 219.536293 128.837619 
L 221.14942 146.239827 
L 222.306002 159.262153 
L 223.797384 177.759331 
L 224.466984 185.697867 
L 225.988802 204.546999 
L 228.819384 239.507839 
L 229.85422 250.262015 
L 231.436911 263.518975 
L 232.776111 271.41841 
L 233.53702 274.78153 
L 234.693602 277.479844 
L 234.845784 277.518956 
L 235.058839 277.440744 
L 235.150148 277.401631 
L 235.180584 277.440744 
L 235.54582 277.362528 
L 236.093675 276.502191 
L 236.519784 275.172588 
L 236.824148 274.11672 
L 237.037202 273.334599 
L 237.88942 268.446341 
L 238.254657 266.099973 
L 239.167748 259.530157 
L 240.32433 249.792739 
L 242.394002 227.384952 
L 245.34633 191.993947 
L 249.668293 132.43538 
L 251.585784 111.513627 
L 252.316257 105.139332 
L 253.62502 95.910296 
L 255.238148 88.167288 
L 255.481639 87.306957 
L 255.846875 85.977351 
L 256.425166 84.178471 
L 256.881711 83.279034 
L 257.551311 82.575124 
L 257.581748 82.61423 
L 257.612184 82.536015 
L 257.764366 82.496909 
L 259.377493 82.536015 
L 259.499239 82.65333 
L 259.560111 82.61423 
L 259.590548 82.65333 
L 259.74273 82.731546 
L 259.864475 82.731546 
L 260.229711 82.809758 
L 261.568911 84.686853 
L 261.903711 85.547184 
L 262.025457 85.860032 
L 262.847239 88.597458 
L 263.029857 89.262259 
L 263.364657 90.748293 
L 264.064693 93.87678 
L 265.799566 103.301343 
L 266.195239 105.921454 
L 267.504002 115.033171 
L 272.891239 155.742605 
L 273.226039 158.010758 
L 274.352184 164.541474 
L 274.686984 166.262142 
L 275.752257 171.189509 
L 277.974111 179.323575 
L 278.06542 179.597316 
L 278.613275 181.278879 
L 278.704584 181.552622 
L 279.678548 183.781668 
L 279.982911 184.329153 
L 280.378584 185.072169 
L 281.200366 186.245351 
L 281.41342 186.636413 
L 282.08302 187.379428 
L 282.113457 187.340321 
L 282.17433 187.418535 
L 282.722184 187.966019 
L 282.84393 187.966019 
L 284.152693 187.926912 
L 284.274439 187.809595 
L 284.304875 187.848702 
L 284.365748 187.770488 
L 284.487493 187.692276 
L 284.670111 187.614064 
L 284.85273 187.535852 
L 285.065784 187.379428 
L 285.09622 187.418535 
L 285.126657 187.340321 
L 285.491893 186.988368 
L 285.52233 187.027473 
L 285.552766 186.949261 
L 287.226766 184.642002 
L 287.470257 184.25094 
L 287.500693 184.25094 
L 287.713748 183.85988 
L 288.961639 182.412955 
L 289.11382 182.334744 
L 289.296439 182.256531 
L 289.905166 182.178318 
L 290.087784 182.100106 
L 290.422584 182.178318 
L 290.909566 182.647592 
L 290.970439 182.725804 
L 291.88353 184.055411 
L 292.21833 184.915745 
L 292.400948 185.306805 
L 294.014075 189.217414 
L 294.044511 189.217414 
L 294.409748 190.195066 
L 294.531493 190.507914 
L 295.748948 193.362659 
L 295.90113 193.714615 
L 296.448984 194.84869 
L 296.509857 194.887796 
L 296.783784 195.357069 
L 296.81422 195.357069 
L 296.966402 195.591706 
L 296.996839 195.5526 
L 297.027275 195.669918 
L 297.118584 195.709024 
L 297.392511 196.139191 
L 297.879493 196.608464 
L 298.15342 196.686676 
L 298.366475 196.8431 
L 298.457784 196.8431 
L 298.792584 197.116843 
L 299.431748 197.038631 
L 299.614366 196.960419 
L 300.344839 196.882206 
L 301.044875 196.139191 
L 301.197057 196.060979 
L 302.962366 193.949249 
L 303.023239 193.871039 
L 304.332002 192.033051 
L 305.336402 189.725793 
L 305.51902 189.373839 
L 305.823384 188.630822 
L 306.310366 187.105685 
L 306.888657 185.306805 
L 307.132148 184.407366 
L 307.740875 181.826364 
L 307.95393 181.005136 
L 308.86702 177.094528 
L 309.171384 175.804027 
L 309.840984 172.792858 
L 310.358402 170.172751 
L 311.788911 162.351534 
L 312.154148 160.044274 
L 313.432475 152.535907 
L 315.593457 140.882293 
L 316.019566 138.848776 
L 316.445675 137.167215 
L 316.476111 137.128108 
L 316.719602 136.072246 
L 317.632693 132.982865 
L 318.089239 131.535939 
L 318.697966 129.619741 
L 318.789275 129.424211 
L 319.032766 128.720301 
L 319.58062 127.038739 
L 319.67193 126.804103 
L 319.884984 126.217512 
L 320.524148 124.809693 
L 320.554584 124.809693 
L 320.828511 124.144889 
L 321.01113 123.753828 
L 321.193748 123.480086 
L 321.437239 123.089025 
L 321.498111 123.049919 
L 321.711166 122.776176 
L 322.289457 121.876736 
L 322.532948 121.524781 
L 323.750402 119.804114 
L 323.963457 119.530371 
L 324.815675 118.552719 
L 324.846111 118.591825 
L 324.906984 118.513613 
L 325.211348 118.278976 
L 325.576584 118.357189 
L 325.759202 118.435401 
L 325.911384 118.513613 
L 326.124439 118.670037 
L 326.154875 118.630931 
L 326.215748 118.709143 
L 326.885348 119.725902 
L 327.28102 120.508023 
L 327.341893 120.586235 
L 327.554948 121.016402 
L 327.889748 121.876736 
L 328.802839 124.457738 
L 329.04633 125.318072 
L 329.71593 128.211922 
L 330.172475 130.401863 
L 333.520475 148.156025 
L 334.555311 154.10015 
L 339.029457 176.547043 
L 339.820802 180.027483 
L 340.307784 181.982789 
L 340.946948 184.094516 
L 340.977384 184.094516 
L 341.312184 185.306805 
L 343.564475 190.820765 
L 343.929711 191.446461 
L 344.11233 191.720202 
L 344.35582 192.111264 
L 344.386257 192.072157 
L 344.44713 192.150371 
L 344.994984 192.697857 
L 345.208039 192.776067 
L 345.36022 192.893385 
L 345.45153 192.893385 
L 345.573275 192.971598 
L 345.78633 193.049811 
L 345.816766 193.128022 
L 345.877639 193.049811 
L 345.938511 193.128022 
L 346.12113 193.206235 
L 346.334184 193.284446 
L 346.516802 193.401766 
L 346.547239 193.323553 
L 346.608111 193.362659 
L 346.729857 193.479977 
L 346.851602 193.479977 
L 347.155966 193.714615 
L 347.338584 193.792825 
L 347.46033 193.871039 
L 347.490766 193.831932 
L 348.434293 193.792825 
L 348.586475 193.675508 
L 348.982148 193.323553 
L 349.103893 193.245339 
L 349.46913 192.893385 
L 349.560439 192.893385 
L 349.743057 192.697857 
L 350.351784 191.993947 
L 350.38222 192.072157 
L 350.412657 191.95484 
L 350.443093 191.95484 
L 350.960511 191.446461 
L 351.05182 191.368248 
L 352.025784 189.999535 
L 352.238839 189.608476 
L 352.81713 188.396187 
L 353.030184 188.005126 
L 353.273675 187.418535 
L 353.304111 187.45764 
L 353.334548 187.379428 
L 353.578039 186.871049 
L 354.217202 185.502336 
L 354.460693 185.033062 
L 354.82593 184.329153 
L 354.917239 184.25094 
L 355.130293 183.85988 
L 355.434657 183.351501 
L 357.50433 180.848712 
L 357.595639 180.7705 
L 360.700148 176.625255 
L 361.09582 175.843133 
L 361.156693 175.764921 
L 361.582802 175.061011 
L 361.85673 174.435314 
L 362.008911 174.083359 
L 362.952439 171.932524 
L 363.074184 171.619675 
L 364.565566 168.061022 
L 364.717748 167.748173 
L 364.930802 167.318006 
L 365.417784 166.535885 
L 365.661275 166.18393 
L 366.178693 165.362702 
L 366.45262 164.932535 
L 366.54393 164.893429 
L 366.726548 164.580581 
L 366.756984 164.619687 
L 367.21353 164.18952 
L 367.274402 164.111308 
L 367.913566 163.446504 
L 368.004875 163.407398 
L 368.12662 163.329186 
L 368.309239 163.250974 
L 368.46142 163.172762 
L 368.55273 163.172762 
L 368.948402 162.820807 
L 369.070148 162.742595 
L 369.283202 162.625276 
L 369.374511 162.625276 
L 369.587566 162.507958 
L 369.709311 162.507958 
L 369.89193 162.429746 
L 370.22673 162.156003 
L 370.348475 162.077791 
L 370.622402 161.882261 
L 370.713711 161.882261 
L 370.987639 161.647624 
L 371.018075 161.68673 
L 371.078948 161.608518 
L 371.200693 161.530306 
L 371.596366 161.178351 
L 371.778984 161.100139 
L 371.992039 160.943715 
L 372.022475 160.982821 
L 372.083348 160.904609 
L 372.23553 160.826396 
L 372.357275 160.826396 
L 372.509457 160.669972 
L 372.539893 160.709078 
L 372.600766 160.630866 
L 372.81382 160.552654 
L 372.966002 160.474442 
L 372.996439 160.513548 
L 373.057311 160.435336 
L 373.270366 160.357123 
L 373.422548 160.239805 
L 373.452984 160.278911 
L 373.635602 160.200699 
L 373.879093 160.005169 
L 373.90953 160.044274 
L 373.970402 159.966063 
L 374.335639 159.653214 
L 374.396511 159.614108 
L 374.518257 159.457683 
L 374.548693 159.49679 
L 374.640002 159.418577 
L 375.005239 159.105729 
L 375.096548 159.066623 
L 375.279166 158.79288 
L 380.453348 152.027528 
L 380.696839 151.519148 
L 381.092511 150.893451 
L 381.305566 150.50239 
L 381.701239 149.837586 
L 382.096911 149.055465 
L 382.127348 149.055465 
L 382.340402 148.625298 
L 382.675202 148.077814 
L 382.888257 147.647647 
L 382.918693 147.60854 
L 382.918693 147.60854 
" style="fill:none;stroke:#0000ff;stroke-linecap:square;stroke-width:1.5;"/>
   </g>
   <g id="line2d_24">
    <path clip-path="url(#pa057b0692a)" d="M 78.555057 161.694082 
L 78.889857 161.987378 
L 78.981166 162.026484 
L 79.28553 162.26112 
L 79.437711 162.358886 
L 80.95953 163.453856 
L 81.263893 163.66894 
L 82.420475 164.529273 
L 82.755275 164.783463 
L 82.907457 164.861675 
L 83.242257 165.115865 
L 84.581457 166.073964 
L 84.794511 166.249941 
L 84.916257 166.347706 
L 86.31633 167.364465 
L 86.681566 167.65776 
L 86.803311 167.755525 
L 87.959893 168.615859 
L 88.172948 168.791837 
L 89.299093 169.632617 
L 89.57302 169.828148 
L 89.725202 169.925913 
L 90.060002 170.180102 
L 91.186148 171.00133 
L 91.399202 171.196861 
L 92.099239 171.744346 
L 92.312293 171.939876 
L 93.164511 172.585127 
L 93.34713 172.721998 
L 94.138475 173.347696 
L 94.290657 173.484566 
L 94.321093 173.465014 
L 94.716766 173.816969 
L 94.838511 173.914733 
L 95.203748 174.20803 
L 95.964657 174.814174 
L 96.147275 174.951045 
L 96.634257 175.381212 
L 97.182111 175.909144 
L 97.669093 176.319758 
L 97.912584 176.554394 
L 98.27782 176.886796 
L 98.521311 177.121433 
L 98.977857 177.532046 
L 99.434402 177.94266 
L 99.799639 178.294615 
L 101.534511 180.680087 
L 101.838875 181.286231 
L 102.478039 182.752709 
L 103.421566 185.470582 
L 104.273784 188.579516 
L 105.247748 192.763868 
L 110.604548 219.747062 
L 112.126366 224.283371 
L 113.069893 225.867167 
L 113.313384 226.023595 
L 113.739493 226.1018 
L 113.861239 226.1018 
L 114.165602 226.023595 
L 114.987384 224.811303 
L 116.143966 221.545945 
L 117.483166 215.054335 
L 119.644148 200.467765 
L 120.861602 191.140964 
L 121.774693 183.417513 
L 122.231239 179.467798 
L 123.326948 169.984573 
L 125.335748 154.107502 
L 126.035784 149.903597 
L 127.374984 143.392435 
L 127.74022 141.730426 
L 128.440257 139.090764 
L 129.535966 135.923173 
L 129.688148 135.708089 
L 130.144693 135.277923 
L 130.296875 135.180157 
L 131.149093 134.749991 
L 131.362148 134.886862 
L 131.483893 134.906415 
L 131.727384 134.945522 
L 132.123057 134.613117 
L 132.610039 134.398036 
L 133.584002 134.925968 
L 133.705748 134.945522 
L 134.223166 135.395241 
L 134.984075 136.196915 
L 135.471057 136.275128 
L 136.44502 137.370096 
L 136.688511 137.44831 
L 136.901566 137.565627 
L 136.992875 137.663394 
L 137.632039 138.660599 
L 137.966839 139.247191 
L 138.088584 139.442719 
L 138.332075 139.931547 
L 138.54513 140.557244 
L 139.001675 142.395229 
L 141.314839 153.305827 
L 142.22793 158.565595 
L 143.14102 164.490167 
L 146.702075 190.437054 
L 151.876257 229.46493 
L 152.85022 235.037544 
L 153.793748 239.31966 
L 154.889457 242.467697 
L 155.52862 243.484455 
L 155.95473 243.640882 
L 156.106911 243.640882 
L 156.350402 243.679989 
L 156.62433 243.582226 
L 156.928693 243.288928 
L 157.385239 242.643674 
L 157.933093 241.763787 
L 158.267893 240.883907 
L 158.754875 239.339216 
L 161.159348 231.244254 
L 162.681166 224.948171 
L 167.33793 201.582289 
L 168.098839 199.059946 
L 168.707566 197.788998 
L 169.620657 196.791793 
L 169.772839 196.791793 
L 169.92502 196.77224 
L 170.412002 196.870005 
L 170.746802 197.202407 
L 171.720766 199.314136 
L 172.35993 201.230334 
L 173.881748 207.50686 
L 176.012293 219.023602 
L 177.929784 230.755428 
L 178.96462 237.305694 
L 180.364693 243.11295 
L 180.699493 243.81686 
L 181.06473 244.442557 
L 181.490839 245.283338 
L 181.612584 245.478872 
L 181.916948 245.830826 
L 182.586548 246.143672 
L 183.012657 246.04591 
L 183.438766 245.322444 
L 184.960584 239.085024 
L 185.782366 233.121349 
L 186.75633 223.364374 
L 187.456366 215.112991 
L 190.01302 177.434281 
L 191.77833 144.898018 
L 194.578475 96.465133 
L 196.222039 72.766846 
L 197.46993 58.121617 
L 198.596075 47.015489 
L 199.935275 35.928914 
L 201.122293 28.264122 
L 201.944075 25.07697 
L 202.918039 22.867482 
L 203.892002 22.339544 
L 204.044184 22.32 
L 204.257239 22.417759 
L 204.470293 22.632842 
L 205.535566 25.585352 
L 207.361748 36.789251 
L 209.005311 48.051797 
L 214.87953 92.476316 
L 216.401348 104.012608 
L 217.284002 110.953934 
L 221.605966 140.713668 
L 224.680039 157.842133 
L 226.17142 164.95944 
L 226.627966 166.797426 
L 227.236693 169.026473 
L 227.997602 171.548815 
L 229.367239 174.775067 
L 229.458548 174.931492 
L 229.915093 175.576742 
L 230.341202 175.967803 
L 230.736875 176.300205 
L 231.61953 176.749925 
L 231.802148 176.84769 
L 232.471748 177.395176 
L 232.806548 177.649365 
L 233.567457 178.255509 
L 235.21102 180.543215 
L 235.515384 181.032042 
L 235.850184 181.462209 
L 236.21542 181.814162 
L 236.611093 182.166117 
L 236.732839 182.263882 
L 237.158948 182.654944 
L 237.402439 182.88958 
L 237.524184 182.967792 
L 237.706802 183.104663 
L 237.828548 183.202428 
L 238.741639 183.671702 
L 238.954693 183.652149 
L 239.624293 183.573937 
L 239.776475 183.554383 
L 240.019966 183.476171 
L 240.172148 183.495725 
L 240.385202 183.515278 
L 240.689566 183.613043 
L 241.633093 184.101869 
L 241.815711 184.180081 
L 242.089639 184.375612 
L 242.24182 184.473377 
L 242.880984 184.981756 
L 243.124475 185.235946 
L 243.307093 185.451028 
L 243.67233 186.09628 
L 244.58542 188.090689 
L 246.411602 193.057162 
L 246.746402 193.93705 
L 246.92902 194.347662 
L 247.750802 196.166096 
L 248.785639 197.945423 
L 250.063966 198.688438 
L 250.246584 198.629779 
L 250.764002 198.414696 
L 251.03793 198.31693 
L 251.61622 197.828104 
L 252.590184 195.755481 
L 253.990257 189.967782 
L 255.96862 177.884001 
L 257.277384 166.934298 
L 259.560111 143.900814 
L 264.642984 83.169068 
L 267.625748 53.604861 
L 268.78233 45.549011 
L 269.847602 40.035047 
L 270.36502 38.470813 
L 270.760693 37.571376 
L 271.095493 36.984779 
L 271.430293 36.711039 
L 272.343384 36.808795 
L 272.678184 37.141206 
L 273.591275 39.13561 
L 274.200002 40.993155 
L 275.204402 46.018281 
L 277.030584 58.434472 
L 278.856766 74.585279 
L 283.635275 124.797491 
L 284.639675 135.727642 
L 286.678911 156.786268 
L 291.45742 201.777819 
L 293.435784 216.168855 
L 294.196693 220.372765 
L 294.835857 223.090635 
L 295.444584 225.339235 
L 296.296802 227.822468 
L 297.057711 229.914647 
L 298.15342 231.830842 
L 298.275166 231.928613 
L 298.670839 232.261012 
L 299.340439 232.573861 
L 299.58393 232.671623 
L 299.736111 232.710732 
L 299.949166 232.671623 
L 300.101348 232.652073 
L 301.25793 231.791736 
L 302.079711 230.5599 
L 303.084111 228.428616 
L 304.332002 223.207953 
L 305.397275 217.205169 
L 306.158184 212.610204 
L 307.61913 204.534798 
L 308.319166 200.702402 
L 309.019202 197.045983 
L 309.62793 194.484535 
L 310.054039 193.096269 
L 311.332366 189.342084 
L 311.63673 188.520856 
L 315.410839 179.115843 
L 317.084839 176.124227 
L 317.541384 175.361659 
L 318.91102 172.956635 
L 319.398002 172.174513 
L 319.824111 171.372839 
L 320.311093 170.649376 
L 320.432839 170.453845 
L 320.67633 169.965019 
L 322.654693 166.386812 
L 323.963457 164.529273 
L 324.724366 163.297432 
L 325.059166 162.691287 
L 325.576584 161.459446 
L 326.185311 160.168945 
L 326.459239 159.660566 
L 326.885348 158.858891 
L 327.402766 158.096322 
L 327.585384 157.881239 
L 328.102802 157.118671 
L 328.28542 156.884034 
L 328.498475 156.551632 
L 329.776802 155.085154 
L 329.928984 154.987388 
L 331.146439 154.322586 
L 331.876911 154.42035 
L 333.094366 155.300237 
L 333.30742 155.495768 
L 333.611784 155.808617 
L 334.372693 156.962246 
L 335.103166 158.585149 
L 336.016257 161.146597 
L 337.172839 164.411955 
L 339.09033 170.923118 
L 341.920911 184.140974 
L 342.925311 189.302977 
L 344.416693 197.534809 
L 345.299348 203.283403 
L 349.195202 227.607391 
L 350.80833 236.288935 
L 352.48233 244.325242 
L 353.517166 248.470481 
L 355.130293 253.280535 
L 355.73902 254.688348 
L 356.195566 255.587791 
L 356.682548 256.037511 
L 357.565202 255.939746 
L 358.873966 254.08221 
L 360.060984 249.897856 
L 360.76102 246.241437 
L 363.713348 226.571077 
L 365.296039 213.333667 
L 367.54833 193.604648 
L 372.113784 150.666166 
L 373.726911 138.09356 
L 374.15302 134.984626 
L 374.700875 131.034912 
L 376.344439 122.157831 
L 378.079311 114.864546 
L 378.627166 113.182984 
L 379.479384 111.286339 
L 381.031639 109.467906 
L 381.427311 109.331038 
L 382.27953 109.4288 
L 382.918693 109.819861 
L 382.918693 109.819861 
" style="fill:none;stroke:#ff0000;stroke-linecap:square;stroke-width:1.5;"/>
   </g>
   <g id="line2d_25">
    <path clip-path="url(#pa057b0692a)" d="M 121.774693 172.519115 
" style="fill:none;stroke:#ffffff;stroke-linecap:square;stroke-width:1.5;"/>
    <defs>
     <path d="M 0 -5 
L -1.12257 -1.545085 
L -4.755283 -1.545085 
L -1.816356 0.59017 
L -2.938926 4.045085 
L -0 1.90983 
L 2.938926 4.045085 
L 1.816356 0.59017 
L 4.755283 -1.545085 
L 1.12257 -1.545085 
z
" id="m3569066858" style="stroke:#ffffff;stroke-linejoin:bevel;"/>
    </defs>
    <g clip-path="url(#pa057b0692a)">
     <use style="fill:#0000ff;stroke:#ffffff;stroke-linejoin:bevel;" x="121.774693" xlink:href="#m3569066858" y="172.519115"/>
    </g>
   </g>
   <g id="line2d_26">
    <path clip-path="url(#pa057b0692a)" d="M 91.886184 171.607475 
" style="fill:none;stroke:#ffffff;stroke-linecap:square;stroke-width:1.5;"/>
    <defs>
     <path d="M 0 -5 
L -1.12257 -1.545085 
L -4.755283 -1.545085 
L -1.816356 0.59017 
L -2.938926 4.045085 
L -0 1.90983 
L 2.938926 4.045085 
L 1.816356 0.59017 
L 4.755283 -1.545085 
L 1.12257 -1.545085 
z
" id="mdbc66457e0" style="stroke:#ffffff;stroke-linejoin:bevel;"/>
    </defs>
    <g clip-path="url(#pa057b0692a)">
     <use style="fill:#ff0000;stroke:#ffffff;stroke-linejoin:bevel;" x="91.886184" xlink:href="#mdbc66457e0" y="171.607475"/>
    </g>
   </g>
   <g id="patch_3">
    <path d="M 63.336875 339.84 
L 63.336875 7.2 
" style="fill:none;stroke:#000000;stroke-linecap:square;stroke-linejoin:miter;stroke-width:0.8;"/>
   </g>
   <g id="patch_4">
    <path d="M 398.136875 339.84 
L 398.136875 7.2 
" style="fill:none;stroke:#000000;stroke-linecap:square;stroke-linejoin:miter;stroke-width:0.8;"/>
   </g>
   <g id="patch_5">
    <path d="M 63.336875 339.84 
L 398.136875 339.84 
" style="fill:none;stroke:#000000;stroke-linecap:square;stroke-linejoin:miter;stroke-width:0.8;"/>
   </g>
   <g id="patch_6">
    <path d="M 63.336875 7.2 
L 398.136875 7.2 
" style="fill:none;stroke:#000000;stroke-linecap:square;stroke-linejoin:miter;stroke-width:0.8;"/>
   </g>
   <g id="text_14">
    <g id="patch_7">
     <path d="M 75.036875 331.242688 
L 166.79375 331.242688 
L 166.79375 293.760312 
L 75.036875 293.760312 
z
" style="fill:#ffffff;stroke:#000000;stroke-linejoin:miter;stroke-width:0.75;"/>
    </g>
    <!-- Auto_00173 -->
    <g transform="translate(80.076875 308.521562)scale(0.14 -0.14)">
     <defs>
      <path d="M 2928 1419 
L 1288 1419 
L 1000 750 
Q 894 503 894 381 
Q 894 284 986 211 
Q 1078 138 1384 116 
L 1384 0 
L 50 0 
L 50 116 
Q 316 163 394 238 
Q 553 388 747 847 
L 2238 4334 
L 2347 4334 
L 3822 809 
Q 4000 384 4145 257 
Q 4291 131 4550 116 
L 4550 0 
L 2878 0 
L 2878 116 
Q 3131 128 3220 200 
Q 3309 272 3309 375 
Q 3309 513 3184 809 
L 2928 1419 
z
M 2841 1650 
L 2122 3363 
L 1384 1650 
L 2841 1650 
z
" id="TimesNewRomanPSMT-41" transform="scale(0.015625)"/>
      <path d="M 2709 2863 
L 2709 1128 
Q 2709 631 2732 520 
Q 2756 409 2807 365 
Q 2859 322 2928 322 
Q 3025 322 3147 375 
L 3191 266 
L 2334 -88 
L 2194 -88 
L 2194 519 
Q 1825 119 1631 15 
Q 1438 -88 1222 -88 
Q 981 -88 804 51 
Q 628 191 559 409 
Q 491 628 491 1028 
L 491 2306 
Q 491 2509 447 2587 
Q 403 2666 317 2708 
Q 231 2750 6 2747 
L 6 2863 
L 1009 2863 
L 1009 947 
Q 1009 547 1148 422 
Q 1288 297 1484 297 
Q 1619 297 1789 381 
Q 1959 466 2194 703 
L 2194 2325 
Q 2194 2569 2105 2655 
Q 2016 2741 1734 2747 
L 1734 2863 
L 2709 2863 
z
" id="TimesNewRomanPSMT-75" transform="scale(0.015625)"/>
      <path d="M 3256 -1381 
L -53 -1381 
L -53 -1119 
L 3256 -1119 
L 3256 -1381 
z
" id="TimesNewRomanPSMT-5f" transform="scale(0.015625)"/>
      <path d="M 644 4238 
L 2916 4238 
L 2916 4119 
L 1503 -88 
L 1153 -88 
L 2419 3728 
L 1253 3728 
Q 900 3728 750 3644 
Q 488 3500 328 3200 
L 238 3234 
L 644 4238 
z
" id="TimesNewRomanPSMT-37" transform="scale(0.015625)"/>
     </defs>
     <use xlink:href="#TimesNewRomanPSMT-41"/>
     <use x="72.216797" xlink:href="#TimesNewRomanPSMT-75"/>
     <use x="122.216797" xlink:href="#TimesNewRomanPSMT-74"/>
     <use x="150" xlink:href="#TimesNewRomanPSMT-6f"/>
     <use x="200" xlink:href="#TimesNewRomanPSMT-5f"/>
     <use x="250" xlink:href="#TimesNewRomanPSMT-30"/>
     <use x="300" xlink:href="#TimesNewRomanPSMT-30"/>
     <use x="350" xlink:href="#TimesNewRomanPSMT-31"/>
     <use x="400" xlink:href="#TimesNewRomanPSMT-37"/>
     <use x="450" xlink:href="#TimesNewRomanPSMT-33"/>
    </g>
    <!-- Vs: 203.51m/s -->
    <g transform="translate(80.076875 323.208)scale(0.14 -0.14)">
     <defs>
      <path d="M 903 2950 
Q 1047 2950 1148 2848 
Q 1250 2747 1250 2603 
Q 1250 2459 1148 2357 
Q 1047 2256 903 2256 
Q 759 2256 657 2357 
Q 556 2459 556 2603 
Q 556 2747 657 2848 
Q 759 2950 903 2950 
z
M 897 609 
Q 1044 609 1145 506 
Q 1247 403 1247 259 
Q 1247 116 1144 14 
Q 1041 -88 897 -88 
Q 753 -88 651 14 
Q 550 116 550 259 
Q 550 403 651 506 
Q 753 609 897 609 
z
" id="TimesNewRomanPSMT-3a" transform="scale(0.015625)"/>
      <path d="M 1794 4444 
L 259 -88 
L 9 -88 
L 1544 4444 
L 1794 4444 
z
" id="TimesNewRomanPSMT-2f" transform="scale(0.015625)"/>
     </defs>
     <use xlink:href="#TimesNewRomanPSMT-56"/>
     <use x="72.216797" xlink:href="#TimesNewRomanPSMT-73"/>
     <use x="111.132812" xlink:href="#TimesNewRomanPSMT-3a"/>
     <use x="138.916016" xlink:href="#TimesNewRomanPSMT-20"/>
     <use x="163.916016" xlink:href="#TimesNewRomanPSMT-32"/>
     <use x="213.916016" xlink:href="#TimesNewRomanPSMT-30"/>
     <use x="263.916016" xlink:href="#TimesNewRomanPSMT-33"/>
     <use x="313.916016" xlink:href="#TimesNewRomanPSMT-2e"/>
     <use x="338.916016" xlink:href="#TimesNewRomanPSMT-35"/>
     <use x="388.916016" xlink:href="#TimesNewRomanPSMT-31"/>
     <use x="438.916016" xlink:href="#TimesNewRomanPSMT-6d"/>
     <use x="516.699219" xlink:href="#TimesNewRomanPSMT-2f"/>
     <use x="544.482422" xlink:href="#TimesNewRomanPSMT-73"/>
    </g>
   </g>
  </g>
 </g>
 <defs>
  <clipPath id="pa057b0692a">
   <rect height="332.64" width="334.8" x="63.336875" y="7.2"/>
  </clipPath>
 </defs>
</svg>
