<?xml version="1.0" encoding="utf-8" standalone="no"?>
<!DOCTYPE svg PUBLIC "-//W3C//DTD SVG 1.1//EN"
  "http://www.w3.org/Graphics/SVG/1.1/DTD/svg11.dtd">
<svg height="388.167704pt" version="1.1" viewBox="0 0 421.086875 388.167704" width="421.086875pt" xmlns="http://www.w3.org/2000/svg" xmlns:xlink="http://www.w3.org/1999/xlink">
 <metadata>
  <rdf:RDF xmlns:cc="http://creativecommons.org/ns#" xmlns:dc="http://purl.org/dc/elements/1.1/" xmlns:rdf="http://www.w3.org/1999/02/22-rdf-syntax-ns#">
   <cc:Work>
    <dc:type rdf:resource="http://purl.org/dc/dcmitype/StillImage"/>
    <dc:date>2021-06-11T14:39:39.214654</dc:date>
    <dc:format>image/svg+xml</dc:format>
    <dc:creator>
     <cc:Agent>
      <dc:title>Matplotlib v3.4.2, https://matplotlib.org/</dc:title>
     </cc:Agent>
    </dc:creator>
   </cc:Work>
  </rdf:RDF>
 </metadata>
 <defs>
  <style type="text/css">*{stroke-linecap:butt;stroke-linejoin:round;}</style>
 </defs>
 <g id="figure_1">
  <g id="patch_1">
   <path d="M 0 388.167704 
L 421.086875 388.167704 
L 421.086875 0 
L 0 0 
z
" style="fill:#ffffff;"/>
  </g>
  <g id="axes_1">
   <g id="patch_2">
    <path d="M 63.336875 344.535829 
L 398.136875 344.535829 
L 398.136875 11.895829 
L 63.336875 11.895829 
z
" style="fill:#ffffff;"/>
   </g>
   <g id="matplotlib.axis_1">
    <g id="xtick_1">
     <g id="line2d_1">
      <path clip-path="url(#pba101bae7d)" d="M 93.773239 344.535829 
L 93.773239 11.895829 
" style="fill:none;stroke:#000000;stroke-dasharray:0.5,0.825;stroke-dashoffset:0;stroke-width:0.5;"/>
     </g>
     <g id="line2d_2">
      <defs>
       <path d="M 0 0 
L 0 3.5 
" id="m49708f34d6" style="stroke:#000000;stroke-width:0.8;"/>
      </defs>
      <g>
       <use style="stroke:#000000;stroke-width:0.8;" x="93.773239" xlink:href="#m49708f34d6" y="344.535829"/>
      </g>
     </g>
     <g id="text_1">
      <!-- 0.000 -->
      <g transform="translate(78.023239 361.257079)scale(0.14 -0.14)">
       <defs>
        <path d="M 231 2094 
Q 231 2819 450 3342 
Q 669 3866 1031 4122 
Q 1313 4325 1613 4325 
Q 2100 4325 2488 3828 
Q 2972 3213 2972 2159 
Q 2972 1422 2759 906 
Q 2547 391 2217 158 
Q 1888 -75 1581 -75 
Q 975 -75 572 641 
Q 231 1244 231 2094 
z
M 844 2016 
Q 844 1141 1059 588 
Q 1238 122 1591 122 
Q 1759 122 1940 273 
Q 2122 425 2216 781 
Q 2359 1319 2359 2297 
Q 2359 3022 2209 3506 
Q 2097 3866 1919 4016 
Q 1791 4119 1609 4119 
Q 1397 4119 1231 3928 
Q 1006 3669 925 3112 
Q 844 2556 844 2016 
z
" id="TimesNewRomanPSMT-30" transform="scale(0.015625)"/>
        <path d="M 800 606 
Q 947 606 1047 504 
Q 1147 403 1147 259 
Q 1147 116 1045 14 
Q 944 -88 800 -88 
Q 656 -88 554 14 
Q 453 116 453 259 
Q 453 406 554 506 
Q 656 606 800 606 
z
" id="TimesNewRomanPSMT-2e" transform="scale(0.015625)"/>
       </defs>
       <use xlink:href="#TimesNewRomanPSMT-30"/>
       <use x="50" xlink:href="#TimesNewRomanPSMT-2e"/>
       <use x="75" xlink:href="#TimesNewRomanPSMT-30"/>
       <use x="125" xlink:href="#TimesNewRomanPSMT-30"/>
       <use x="175" xlink:href="#TimesNewRomanPSMT-30"/>
      </g>
     </g>
    </g>
    <g id="xtick_2">
     <g id="line2d_3">
      <path clip-path="url(#pba101bae7d)" d="M 154.645966 344.535829 
L 154.645966 11.895829 
" style="fill:none;stroke:#000000;stroke-dasharray:0.5,0.825;stroke-dashoffset:0;stroke-width:0.5;"/>
     </g>
     <g id="line2d_4">
      <g>
       <use style="stroke:#000000;stroke-width:0.8;" x="154.645966" xlink:href="#m49708f34d6" y="344.535829"/>
      </g>
     </g>
     <g id="text_2">
      <!-- 0.001 -->
      <g transform="translate(138.895966 361.257079)scale(0.14 -0.14)">
       <defs>
        <path d="M 750 3822 
L 1781 4325 
L 1884 4325 
L 1884 747 
Q 1884 391 1914 303 
Q 1944 216 2037 169 
Q 2131 122 2419 116 
L 2419 0 
L 825 0 
L 825 116 
Q 1125 122 1212 167 
Q 1300 213 1334 289 
Q 1369 366 1369 747 
L 1369 3034 
Q 1369 3497 1338 3628 
Q 1316 3728 1258 3775 
Q 1200 3822 1119 3822 
Q 1003 3822 797 3725 
L 750 3822 
z
" id="TimesNewRomanPSMT-31" transform="scale(0.015625)"/>
       </defs>
       <use xlink:href="#TimesNewRomanPSMT-30"/>
       <use x="50" xlink:href="#TimesNewRomanPSMT-2e"/>
       <use x="75" xlink:href="#TimesNewRomanPSMT-30"/>
       <use x="125" xlink:href="#TimesNewRomanPSMT-30"/>
       <use x="175" xlink:href="#TimesNewRomanPSMT-31"/>
      </g>
     </g>
    </g>
    <g id="xtick_3">
     <g id="line2d_5">
      <path clip-path="url(#pba101bae7d)" d="M 215.518693 344.535829 
L 215.518693 11.895829 
" style="fill:none;stroke:#000000;stroke-dasharray:0.5,0.825;stroke-dashoffset:0;stroke-width:0.5;"/>
     </g>
     <g id="line2d_6">
      <g>
       <use style="stroke:#000000;stroke-width:0.8;" x="215.518693" xlink:href="#m49708f34d6" y="344.535829"/>
      </g>
     </g>
     <g id="text_3">
      <!-- 0.002 -->
      <g transform="translate(199.768693 361.257079)scale(0.14 -0.14)">
       <defs>
        <path d="M 2934 816 
L 2638 0 
L 138 0 
L 138 116 
Q 1241 1122 1691 1759 
Q 2141 2397 2141 2925 
Q 2141 3328 1894 3587 
Q 1647 3847 1303 3847 
Q 991 3847 742 3664 
Q 494 3481 375 3128 
L 259 3128 
Q 338 3706 661 4015 
Q 984 4325 1469 4325 
Q 1984 4325 2329 3994 
Q 2675 3663 2675 3213 
Q 2675 2891 2525 2569 
Q 2294 2063 1775 1497 
Q 997 647 803 472 
L 1909 472 
Q 2247 472 2383 497 
Q 2519 522 2628 598 
Q 2738 675 2819 816 
L 2934 816 
z
" id="TimesNewRomanPSMT-32" transform="scale(0.015625)"/>
       </defs>
       <use xlink:href="#TimesNewRomanPSMT-30"/>
       <use x="50" xlink:href="#TimesNewRomanPSMT-2e"/>
       <use x="75" xlink:href="#TimesNewRomanPSMT-30"/>
       <use x="125" xlink:href="#TimesNewRomanPSMT-30"/>
       <use x="175" xlink:href="#TimesNewRomanPSMT-32"/>
      </g>
     </g>
    </g>
    <g id="xtick_4">
     <g id="line2d_7">
      <path clip-path="url(#pba101bae7d)" d="M 276.39142 344.535829 
L 276.39142 11.895829 
" style="fill:none;stroke:#000000;stroke-dasharray:0.5,0.825;stroke-dashoffset:0;stroke-width:0.5;"/>
     </g>
     <g id="line2d_8">
      <g>
       <use style="stroke:#000000;stroke-width:0.8;" x="276.39142" xlink:href="#m49708f34d6" y="344.535829"/>
      </g>
     </g>
     <g id="text_4">
      <!-- 0.003 -->
      <g transform="translate(260.64142 361.257079)scale(0.14 -0.14)">
       <defs>
        <path d="M 325 3431 
Q 506 3859 782 4092 
Q 1059 4325 1472 4325 
Q 1981 4325 2253 3994 
Q 2459 3747 2459 3466 
Q 2459 3003 1878 2509 
Q 2269 2356 2469 2072 
Q 2669 1788 2669 1403 
Q 2669 853 2319 450 
Q 1863 -75 997 -75 
Q 569 -75 414 31 
Q 259 138 259 259 
Q 259 350 332 419 
Q 406 488 509 488 
Q 588 488 669 463 
Q 722 447 909 348 
Q 1097 250 1169 231 
Q 1284 197 1416 197 
Q 1734 197 1970 444 
Q 2206 691 2206 1028 
Q 2206 1275 2097 1509 
Q 2016 1684 1919 1775 
Q 1784 1900 1550 2001 
Q 1316 2103 1072 2103 
L 972 2103 
L 972 2197 
Q 1219 2228 1467 2375 
Q 1716 2522 1828 2728 
Q 1941 2934 1941 3181 
Q 1941 3503 1739 3701 
Q 1538 3900 1238 3900 
Q 753 3900 428 3381 
L 325 3431 
z
" id="TimesNewRomanPSMT-33" transform="scale(0.015625)"/>
       </defs>
       <use xlink:href="#TimesNewRomanPSMT-30"/>
       <use x="50" xlink:href="#TimesNewRomanPSMT-2e"/>
       <use x="75" xlink:href="#TimesNewRomanPSMT-30"/>
       <use x="125" xlink:href="#TimesNewRomanPSMT-30"/>
       <use x="175" xlink:href="#TimesNewRomanPSMT-33"/>
      </g>
     </g>
    </g>
    <g id="xtick_5">
     <g id="line2d_9">
      <path clip-path="url(#pba101bae7d)" d="M 337.264148 344.535829 
L 337.264148 11.895829 
" style="fill:none;stroke:#000000;stroke-dasharray:0.5,0.825;stroke-dashoffset:0;stroke-width:0.5;"/>
     </g>
     <g id="line2d_10">
      <g>
       <use style="stroke:#000000;stroke-width:0.8;" x="337.264148" xlink:href="#m49708f34d6" y="344.535829"/>
      </g>
     </g>
     <g id="text_5">
      <!-- 0.004 -->
      <g transform="translate(321.514148 361.257079)scale(0.14 -0.14)">
       <defs>
        <path d="M 2978 1563 
L 2978 1119 
L 2409 1119 
L 2409 0 
L 1894 0 
L 1894 1119 
L 100 1119 
L 100 1519 
L 2066 4325 
L 2409 4325 
L 2409 1563 
L 2978 1563 
z
M 1894 1563 
L 1894 3666 
L 406 1563 
L 1894 1563 
z
" id="TimesNewRomanPSMT-34" transform="scale(0.015625)"/>
       </defs>
       <use xlink:href="#TimesNewRomanPSMT-30"/>
       <use x="50" xlink:href="#TimesNewRomanPSMT-2e"/>
       <use x="75" xlink:href="#TimesNewRomanPSMT-30"/>
       <use x="125" xlink:href="#TimesNewRomanPSMT-30"/>
       <use x="175" xlink:href="#TimesNewRomanPSMT-34"/>
      </g>
     </g>
    </g>
    <g id="xtick_6">
     <g id="line2d_11">
      <path clip-path="url(#pba101bae7d)" d="M 398.136875 344.535829 
L 398.136875 11.895829 
" style="fill:none;stroke:#000000;stroke-dasharray:0.5,0.825;stroke-dashoffset:0;stroke-width:0.5;"/>
     </g>
     <g id="line2d_12">
      <g>
       <use style="stroke:#000000;stroke-width:0.8;" x="398.136875" xlink:href="#m49708f34d6" y="344.535829"/>
      </g>
     </g>
     <g id="text_6">
      <!-- 0.005 -->
      <g transform="translate(382.386875 361.257079)scale(0.14 -0.14)">
       <defs>
        <path d="M 2778 4238 
L 2534 3706 
L 1259 3706 
L 981 3138 
Q 1809 3016 2294 2522 
Q 2709 2097 2709 1522 
Q 2709 1188 2573 903 
Q 2438 619 2231 419 
Q 2025 219 1772 97 
Q 1413 -75 1034 -75 
Q 653 -75 479 54 
Q 306 184 306 341 
Q 306 428 378 495 
Q 450 563 559 563 
Q 641 563 702 538 
Q 763 513 909 409 
Q 1144 247 1384 247 
Q 1750 247 2026 523 
Q 2303 800 2303 1197 
Q 2303 1581 2056 1914 
Q 1809 2247 1375 2428 
Q 1034 2569 447 2591 
L 1259 4238 
L 2778 4238 
z
" id="TimesNewRomanPSMT-35" transform="scale(0.015625)"/>
       </defs>
       <use xlink:href="#TimesNewRomanPSMT-30"/>
       <use x="50" xlink:href="#TimesNewRomanPSMT-2e"/>
       <use x="75" xlink:href="#TimesNewRomanPSMT-30"/>
       <use x="125" xlink:href="#TimesNewRomanPSMT-30"/>
       <use x="175" xlink:href="#TimesNewRomanPSMT-35"/>
      </g>
     </g>
    </g>
    <g id="text_7">
     <!-- Time (sec) -->
     <g transform="translate(200.858906 377.973017)scale(0.14 -0.14)">
      <defs>
       <path d="M 3703 4238 
L 3750 3244 
L 3631 3244 
Q 3597 3506 3538 3619 
Q 3441 3800 3280 3886 
Q 3119 3972 2856 3972 
L 2259 3972 
L 2259 734 
Q 2259 344 2344 247 
Q 2463 116 2709 116 
L 2856 116 
L 2856 0 
L 1059 0 
L 1059 116 
L 1209 116 
Q 1478 116 1591 278 
Q 1659 378 1659 734 
L 1659 3972 
L 1150 3972 
Q 853 3972 728 3928 
Q 566 3869 450 3700 
Q 334 3531 313 3244 
L 194 3244 
L 244 4238 
L 3703 4238 
z
" id="TimesNewRomanPSMT-54" transform="scale(0.015625)"/>
       <path d="M 928 4444 
Q 1059 4444 1151 4351 
Q 1244 4259 1244 4128 
Q 1244 3997 1151 3903 
Q 1059 3809 928 3809 
Q 797 3809 703 3903 
Q 609 3997 609 4128 
Q 609 4259 701 4351 
Q 794 4444 928 4444 
z
M 1188 2947 
L 1188 647 
Q 1188 378 1227 289 
Q 1266 200 1342 156 
Q 1419 113 1622 113 
L 1622 0 
L 231 0 
L 231 113 
Q 441 113 512 153 
Q 584 194 626 287 
Q 669 381 669 647 
L 669 1750 
Q 669 2216 641 2353 
Q 619 2453 572 2492 
Q 525 2531 444 2531 
Q 356 2531 231 2484 
L 188 2597 
L 1050 2947 
L 1188 2947 
z
" id="TimesNewRomanPSMT-69" transform="scale(0.015625)"/>
       <path d="M 1050 2338 
Q 1363 2650 1419 2697 
Q 1559 2816 1721 2881 
Q 1884 2947 2044 2947 
Q 2313 2947 2506 2790 
Q 2700 2634 2766 2338 
Q 3088 2713 3309 2830 
Q 3531 2947 3766 2947 
Q 3994 2947 4170 2830 
Q 4347 2713 4450 2447 
Q 4519 2266 4519 1878 
L 4519 647 
Q 4519 378 4559 278 
Q 4591 209 4675 161 
Q 4759 113 4950 113 
L 4950 0 
L 3538 0 
L 3538 113 
L 3597 113 
Q 3781 113 3884 184 
Q 3956 234 3988 344 
Q 4000 397 4000 647 
L 4000 1878 
Q 4000 2228 3916 2372 
Q 3794 2572 3525 2572 
Q 3359 2572 3192 2489 
Q 3025 2406 2788 2181 
L 2781 2147 
L 2788 2013 
L 2788 647 
Q 2788 353 2820 281 
Q 2853 209 2943 161 
Q 3034 113 3253 113 
L 3253 0 
L 1806 0 
L 1806 113 
Q 2044 113 2133 169 
Q 2222 225 2256 338 
Q 2272 391 2272 647 
L 2272 1878 
Q 2272 2228 2169 2381 
Q 2031 2581 1784 2581 
Q 1616 2581 1450 2491 
Q 1191 2353 1050 2181 
L 1050 647 
Q 1050 366 1089 281 
Q 1128 197 1204 155 
Q 1281 113 1516 113 
L 1516 0 
L 100 0 
L 100 113 
Q 297 113 375 155 
Q 453 197 493 289 
Q 534 381 534 647 
L 534 1741 
Q 534 2213 506 2350 
Q 484 2453 437 2492 
Q 391 2531 309 2531 
Q 222 2531 100 2484 
L 53 2597 
L 916 2947 
L 1050 2947 
L 1050 2338 
z
" id="TimesNewRomanPSMT-6d" transform="scale(0.015625)"/>
       <path d="M 681 1784 
Q 678 1147 991 784 
Q 1303 422 1725 422 
Q 2006 422 2214 576 
Q 2422 731 2563 1106 
L 2659 1044 
Q 2594 616 2278 264 
Q 1963 -88 1488 -88 
Q 972 -88 605 314 
Q 238 716 238 1394 
Q 238 2128 614 2539 
Q 991 2950 1559 2950 
Q 2041 2950 2350 2633 
Q 2659 2316 2659 1784 
L 681 1784 
z
M 681 1966 
L 2006 1966 
Q 1991 2241 1941 2353 
Q 1863 2528 1708 2628 
Q 1553 2728 1384 2728 
Q 1125 2728 920 2526 
Q 716 2325 681 1966 
z
" id="TimesNewRomanPSMT-65" transform="scale(0.015625)"/>
       <path id="TimesNewRomanPSMT-20" transform="scale(0.015625)"/>
       <path d="M 1988 -1253 
L 1988 -1369 
Q 1516 -1131 1200 -813 
Q 750 -359 506 256 
Q 263 872 263 1534 
Q 263 2503 741 3301 
Q 1219 4100 1988 4444 
L 1988 4313 
Q 1603 4100 1356 3731 
Q 1109 3363 987 2797 
Q 866 2231 866 1616 
Q 866 947 969 400 
Q 1050 -31 1165 -292 
Q 1281 -553 1476 -793 
Q 1672 -1034 1988 -1253 
z
" id="TimesNewRomanPSMT-28" transform="scale(0.015625)"/>
       <path d="M 2050 2947 
L 2050 1972 
L 1947 1972 
Q 1828 2431 1642 2597 
Q 1456 2763 1169 2763 
Q 950 2763 815 2647 
Q 681 2531 681 2391 
Q 681 2216 781 2091 
Q 878 1963 1175 1819 
L 1631 1597 
Q 2266 1288 2266 781 
Q 2266 391 1970 151 
Q 1675 -88 1309 -88 
Q 1047 -88 709 6 
Q 606 38 541 38 
Q 469 38 428 -44 
L 325 -44 
L 325 978 
L 428 978 
Q 516 541 762 319 
Q 1009 97 1316 97 
Q 1531 97 1667 223 
Q 1803 350 1803 528 
Q 1803 744 1651 891 
Q 1500 1038 1047 1263 
Q 594 1488 453 1669 
Q 313 1847 313 2119 
Q 313 2472 555 2709 
Q 797 2947 1181 2947 
Q 1350 2947 1591 2875 
Q 1750 2828 1803 2828 
Q 1853 2828 1881 2850 
Q 1909 2872 1947 2947 
L 2050 2947 
z
" id="TimesNewRomanPSMT-73" transform="scale(0.015625)"/>
       <path d="M 2631 1088 
Q 2516 522 2178 217 
Q 1841 -88 1431 -88 
Q 944 -88 581 321 
Q 219 731 219 1428 
Q 219 2103 620 2525 
Q 1022 2947 1584 2947 
Q 2006 2947 2278 2723 
Q 2550 2500 2550 2259 
Q 2550 2141 2473 2067 
Q 2397 1994 2259 1994 
Q 2075 1994 1981 2113 
Q 1928 2178 1911 2362 
Q 1894 2547 1784 2644 
Q 1675 2738 1481 2738 
Q 1169 2738 978 2506 
Q 725 2200 725 1697 
Q 725 1184 976 792 
Q 1228 400 1656 400 
Q 1963 400 2206 609 
Q 2378 753 2541 1131 
L 2631 1088 
z
" id="TimesNewRomanPSMT-63" transform="scale(0.015625)"/>
       <path d="M 144 4313 
L 144 4444 
Q 619 4209 934 3891 
Q 1381 3434 1625 2820 
Q 1869 2206 1869 1541 
Q 1869 572 1392 -226 
Q 916 -1025 144 -1369 
L 144 -1253 
Q 528 -1038 776 -670 
Q 1025 -303 1145 264 
Q 1266 831 1266 1447 
Q 1266 2113 1163 2663 
Q 1084 3094 967 3353 
Q 850 3613 656 3853 
Q 463 4094 144 4313 
z
" id="TimesNewRomanPSMT-29" transform="scale(0.015625)"/>
      </defs>
      <use xlink:href="#TimesNewRomanPSMT-54"/>
      <use x="57.583984" xlink:href="#TimesNewRomanPSMT-69"/>
      <use x="85.367188" xlink:href="#TimesNewRomanPSMT-6d"/>
      <use x="163.150391" xlink:href="#TimesNewRomanPSMT-65"/>
      <use x="207.535156" xlink:href="#TimesNewRomanPSMT-20"/>
      <use x="232.535156" xlink:href="#TimesNewRomanPSMT-28"/>
      <use x="265.835938" xlink:href="#TimesNewRomanPSMT-73"/>
      <use x="304.751953" xlink:href="#TimesNewRomanPSMT-65"/>
      <use x="349.136719" xlink:href="#TimesNewRomanPSMT-63"/>
      <use x="393.521484" xlink:href="#TimesNewRomanPSMT-29"/>
     </g>
    </g>
   </g>
   <g id="matplotlib.axis_2">
    <g id="ytick_1">
     <g id="line2d_13">
      <path clip-path="url(#pba101bae7d)" d="M 63.336875 326.140469 
L 398.136875 326.140469 
" style="fill:none;stroke:#000000;stroke-dasharray:0.5,0.825;stroke-dashoffset:0;stroke-width:0.5;"/>
     </g>
     <g id="line2d_14">
      <defs>
       <path d="M 0 0 
L -3.5 0 
" id="mdcbd2b45d5" style="stroke:#000000;stroke-width:0.8;"/>
      </defs>
      <g>
       <use style="stroke:#000000;stroke-width:0.8;" x="63.336875" xlink:href="#mdcbd2b45d5" y="326.140469"/>
      </g>
     </g>
     <g id="text_8">
      <!-- −0.08 -->
      <g transform="translate(23.942188 331.001094)scale(0.14 -0.14)">
       <defs>
        <path d="M 3484 2000 
L 116 2000 
L 116 2256 
L 3484 2256 
L 3484 2000 
z
" id="TimesNewRomanPSMT-2212" transform="scale(0.015625)"/>
        <path d="M 1228 2134 
Q 725 2547 579 2797 
Q 434 3047 434 3316 
Q 434 3728 753 4026 
Q 1072 4325 1600 4325 
Q 2113 4325 2425 4047 
Q 2738 3769 2738 3413 
Q 2738 3175 2569 2928 
Q 2400 2681 1866 2347 
Q 2416 1922 2594 1678 
Q 2831 1359 2831 1006 
Q 2831 559 2490 242 
Q 2150 -75 1597 -75 
Q 994 -75 656 303 
Q 388 606 388 966 
Q 388 1247 577 1523 
Q 766 1800 1228 2134 
z
M 1719 2469 
Q 2094 2806 2194 3001 
Q 2294 3197 2294 3444 
Q 2294 3772 2109 3958 
Q 1925 4144 1606 4144 
Q 1288 4144 1088 3959 
Q 888 3775 888 3528 
Q 888 3366 970 3203 
Q 1053 3041 1206 2894 
L 1719 2469 
z
M 1375 2016 
Q 1116 1797 991 1539 
Q 866 1281 866 981 
Q 866 578 1086 336 
Q 1306 94 1647 94 
Q 1984 94 2187 284 
Q 2391 475 2391 747 
Q 2391 972 2272 1150 
Q 2050 1481 1375 2016 
z
" id="TimesNewRomanPSMT-38" transform="scale(0.015625)"/>
       </defs>
       <use xlink:href="#TimesNewRomanPSMT-2212"/>
       <use x="56.396484" xlink:href="#TimesNewRomanPSMT-30"/>
       <use x="106.396484" xlink:href="#TimesNewRomanPSMT-2e"/>
       <use x="131.396484" xlink:href="#TimesNewRomanPSMT-30"/>
       <use x="181.396484" xlink:href="#TimesNewRomanPSMT-38"/>
      </g>
     </g>
    </g>
    <g id="ytick_2">
     <g id="line2d_15">
      <path clip-path="url(#pba101bae7d)" d="M 63.336875 286.880489 
L 398.136875 286.880489 
" style="fill:none;stroke:#000000;stroke-dasharray:0.5,0.825;stroke-dashoffset:0;stroke-width:0.5;"/>
     </g>
     <g id="line2d_16">
      <g>
       <use style="stroke:#000000;stroke-width:0.8;" x="63.336875" xlink:href="#mdcbd2b45d5" y="286.880489"/>
      </g>
     </g>
     <g id="text_9">
      <!-- −0.06 -->
      <g transform="translate(23.942188 291.741114)scale(0.14 -0.14)">
       <defs>
        <path d="M 2869 4325 
L 2869 4209 
Q 2456 4169 2195 4045 
Q 1934 3922 1679 3669 
Q 1425 3416 1258 3105 
Q 1091 2794 978 2366 
Q 1428 2675 1881 2675 
Q 2316 2675 2634 2325 
Q 2953 1975 2953 1425 
Q 2953 894 2631 456 
Q 2244 -75 1606 -75 
Q 1172 -75 869 213 
Q 275 772 275 1663 
Q 275 2231 503 2743 
Q 731 3256 1154 3653 
Q 1578 4050 1965 4187 
Q 2353 4325 2688 4325 
L 2869 4325 
z
M 925 2138 
Q 869 1716 869 1456 
Q 869 1156 980 804 
Q 1091 453 1309 247 
Q 1469 100 1697 100 
Q 1969 100 2183 356 
Q 2397 613 2397 1088 
Q 2397 1622 2184 2012 
Q 1972 2403 1581 2403 
Q 1463 2403 1327 2353 
Q 1191 2303 925 2138 
z
" id="TimesNewRomanPSMT-36" transform="scale(0.015625)"/>
       </defs>
       <use xlink:href="#TimesNewRomanPSMT-2212"/>
       <use x="56.396484" xlink:href="#TimesNewRomanPSMT-30"/>
       <use x="106.396484" xlink:href="#TimesNewRomanPSMT-2e"/>
       <use x="131.396484" xlink:href="#TimesNewRomanPSMT-30"/>
       <use x="181.396484" xlink:href="#TimesNewRomanPSMT-36"/>
      </g>
     </g>
    </g>
    <g id="ytick_3">
     <g id="line2d_17">
      <path clip-path="url(#pba101bae7d)" d="M 63.336875 247.620508 
L 398.136875 247.620508 
" style="fill:none;stroke:#000000;stroke-dasharray:0.5,0.825;stroke-dashoffset:0;stroke-width:0.5;"/>
     </g>
     <g id="line2d_18">
      <g>
       <use style="stroke:#000000;stroke-width:0.8;" x="63.336875" xlink:href="#mdcbd2b45d5" y="247.620508"/>
      </g>
     </g>
     <g id="text_10">
      <!-- −0.04 -->
      <g transform="translate(23.942188 252.481133)scale(0.14 -0.14)">
       <use xlink:href="#TimesNewRomanPSMT-2212"/>
       <use x="56.396484" xlink:href="#TimesNewRomanPSMT-30"/>
       <use x="106.396484" xlink:href="#TimesNewRomanPSMT-2e"/>
       <use x="131.396484" xlink:href="#TimesNewRomanPSMT-30"/>
       <use x="181.396484" xlink:href="#TimesNewRomanPSMT-34"/>
      </g>
     </g>
    </g>
    <g id="ytick_4">
     <g id="line2d_19">
      <path clip-path="url(#pba101bae7d)" d="M 63.336875 208.360528 
L 398.136875 208.360528 
" style="fill:none;stroke:#000000;stroke-dasharray:0.5,0.825;stroke-dashoffset:0;stroke-width:0.5;"/>
     </g>
     <g id="line2d_20">
      <g>
       <use style="stroke:#000000;stroke-width:0.8;" x="63.336875" xlink:href="#mdcbd2b45d5" y="208.360528"/>
      </g>
     </g>
     <g id="text_11">
      <!-- −0.02 -->
      <g transform="translate(23.942188 213.221153)scale(0.14 -0.14)">
       <use xlink:href="#TimesNewRomanPSMT-2212"/>
       <use x="56.396484" xlink:href="#TimesNewRomanPSMT-30"/>
       <use x="106.396484" xlink:href="#TimesNewRomanPSMT-2e"/>
       <use x="131.396484" xlink:href="#TimesNewRomanPSMT-30"/>
       <use x="181.396484" xlink:href="#TimesNewRomanPSMT-32"/>
      </g>
     </g>
    </g>
    <g id="ytick_5">
     <g id="line2d_21">
      <path clip-path="url(#pba101bae7d)" d="M 63.336875 169.100547 
L 398.136875 169.100547 
" style="fill:none;stroke:#000000;stroke-dasharray:0.5,0.825;stroke-dashoffset:0;stroke-width:0.5;"/>
     </g>
     <g id="line2d_22">
      <g>
       <use style="stroke:#000000;stroke-width:0.8;" x="63.336875" xlink:href="#mdcbd2b45d5" y="169.100547"/>
      </g>
     </g>
     <g id="text_12">
      <!-- 0.00 -->
      <g transform="translate(31.836875 173.961172)scale(0.14 -0.14)">
       <use xlink:href="#TimesNewRomanPSMT-30"/>
       <use x="50" xlink:href="#TimesNewRomanPSMT-2e"/>
       <use x="75" xlink:href="#TimesNewRomanPSMT-30"/>
       <use x="125" xlink:href="#TimesNewRomanPSMT-30"/>
      </g>
     </g>
    </g>
    <g id="ytick_6">
     <g id="line2d_23">
      <path clip-path="url(#pba101bae7d)" d="M 63.336875 129.840567 
L 398.136875 129.840567 
" style="fill:none;stroke:#000000;stroke-dasharray:0.5,0.825;stroke-dashoffset:0;stroke-width:0.5;"/>
     </g>
     <g id="line2d_24">
      <g>
       <use style="stroke:#000000;stroke-width:0.8;" x="63.336875" xlink:href="#mdcbd2b45d5" y="129.840567"/>
      </g>
     </g>
     <g id="text_13">
      <!-- 0.02 -->
      <g transform="translate(31.836875 134.701192)scale(0.14 -0.14)">
       <use xlink:href="#TimesNewRomanPSMT-30"/>
       <use x="50" xlink:href="#TimesNewRomanPSMT-2e"/>
       <use x="75" xlink:href="#TimesNewRomanPSMT-30"/>
       <use x="125" xlink:href="#TimesNewRomanPSMT-32"/>
      </g>
     </g>
    </g>
    <g id="ytick_7">
     <g id="line2d_25">
      <path clip-path="url(#pba101bae7d)" d="M 63.336875 90.580586 
L 398.136875 90.580586 
" style="fill:none;stroke:#000000;stroke-dasharray:0.5,0.825;stroke-dashoffset:0;stroke-width:0.5;"/>
     </g>
     <g id="line2d_26">
      <g>
       <use style="stroke:#000000;stroke-width:0.8;" x="63.336875" xlink:href="#mdcbd2b45d5" y="90.580586"/>
      </g>
     </g>
     <g id="text_14">
      <!-- 0.04 -->
      <g transform="translate(31.836875 95.441211)scale(0.14 -0.14)">
       <use xlink:href="#TimesNewRomanPSMT-30"/>
       <use x="50" xlink:href="#TimesNewRomanPSMT-2e"/>
       <use x="75" xlink:href="#TimesNewRomanPSMT-30"/>
       <use x="125" xlink:href="#TimesNewRomanPSMT-34"/>
      </g>
     </g>
    </g>
    <g id="ytick_8">
     <g id="line2d_27">
      <path clip-path="url(#pba101bae7d)" d="M 63.336875 51.320606 
L 398.136875 51.320606 
" style="fill:none;stroke:#000000;stroke-dasharray:0.5,0.825;stroke-dashoffset:0;stroke-width:0.5;"/>
     </g>
     <g id="line2d_28">
      <g>
       <use style="stroke:#000000;stroke-width:0.8;" x="63.336875" xlink:href="#mdcbd2b45d5" y="51.320606"/>
      </g>
     </g>
     <g id="text_15">
      <!-- 0.06 -->
      <g transform="translate(31.836875 56.181231)scale(0.14 -0.14)">
       <use xlink:href="#TimesNewRomanPSMT-30"/>
       <use x="50" xlink:href="#TimesNewRomanPSMT-2e"/>
       <use x="75" xlink:href="#TimesNewRomanPSMT-30"/>
       <use x="125" xlink:href="#TimesNewRomanPSMT-36"/>
      </g>
     </g>
    </g>
    <g id="ytick_9">
     <g id="line2d_29">
      <path clip-path="url(#pba101bae7d)" d="M 63.336875 12.060625 
L 398.136875 12.060625 
" style="fill:none;stroke:#000000;stroke-dasharray:0.5,0.825;stroke-dashoffset:0;stroke-width:0.5;"/>
     </g>
     <g id="line2d_30">
      <g>
       <use style="stroke:#000000;stroke-width:0.8;" x="63.336875" xlink:href="#mdcbd2b45d5" y="12.060625"/>
      </g>
     </g>
     <g id="text_16">
      <!-- 0.08 -->
      <g transform="translate(31.836875 16.92125)scale(0.14 -0.14)">
       <use xlink:href="#TimesNewRomanPSMT-30"/>
       <use x="50" xlink:href="#TimesNewRomanPSMT-2e"/>
       <use x="75" xlink:href="#TimesNewRomanPSMT-30"/>
       <use x="125" xlink:href="#TimesNewRomanPSMT-38"/>
      </g>
     </g>
    </g>
    <g id="text_17">
     <!-- Volatage (V) -->
     <g transform="translate(16.92125 214.048173)rotate(-90)scale(0.14 -0.14)">
      <defs>
       <path d="M 4544 4238 
L 4544 4122 
Q 4319 4081 4203 3978 
Q 4038 3825 3909 3509 
L 2431 -97 
L 2316 -97 
L 728 3556 
Q 606 3838 556 3900 
Q 478 3997 364 4051 
Q 250 4106 56 4122 
L 56 4238 
L 1788 4238 
L 1788 4122 
Q 1494 4094 1406 4022 
Q 1319 3950 1319 3838 
Q 1319 3681 1463 3350 
L 2541 866 
L 3541 3319 
Q 3688 3681 3688 3822 
Q 3688 3913 3597 3995 
Q 3506 4078 3291 4113 
Q 3275 4116 3238 4122 
L 3238 4238 
L 4544 4238 
z
" id="TimesNewRomanPSMT-56" transform="scale(0.015625)"/>
       <path d="M 1600 2947 
Q 2250 2947 2644 2453 
Q 2978 2031 2978 1484 
Q 2978 1100 2793 706 
Q 2609 313 2286 112 
Q 1963 -88 1566 -88 
Q 919 -88 538 428 
Q 216 863 216 1403 
Q 216 1797 411 2186 
Q 606 2575 925 2761 
Q 1244 2947 1600 2947 
z
M 1503 2744 
Q 1338 2744 1170 2645 
Q 1003 2547 900 2300 
Q 797 2053 797 1666 
Q 797 1041 1045 587 
Q 1294 134 1700 134 
Q 2003 134 2200 384 
Q 2397 634 2397 1244 
Q 2397 2006 2069 2444 
Q 1847 2744 1503 2744 
z
" id="TimesNewRomanPSMT-6f" transform="scale(0.015625)"/>
       <path d="M 1184 4444 
L 1184 647 
Q 1184 378 1223 290 
Q 1263 203 1344 158 
Q 1425 113 1647 113 
L 1647 0 
L 244 0 
L 244 113 
Q 441 113 512 153 
Q 584 194 625 287 
Q 666 381 666 647 
L 666 3247 
Q 666 3731 644 3842 
Q 622 3953 573 3993 
Q 525 4034 450 4034 
Q 369 4034 244 3984 
L 191 4094 
L 1044 4444 
L 1184 4444 
z
" id="TimesNewRomanPSMT-6c" transform="scale(0.015625)"/>
       <path d="M 1822 413 
Q 1381 72 1269 19 
Q 1100 -59 909 -59 
Q 613 -59 420 144 
Q 228 347 228 678 
Q 228 888 322 1041 
Q 450 1253 767 1440 
Q 1084 1628 1822 1897 
L 1822 2009 
Q 1822 2438 1686 2597 
Q 1550 2756 1291 2756 
Q 1094 2756 978 2650 
Q 859 2544 859 2406 
L 866 2225 
Q 866 2081 792 2003 
Q 719 1925 600 1925 
Q 484 1925 411 2006 
Q 338 2088 338 2228 
Q 338 2497 613 2722 
Q 888 2947 1384 2947 
Q 1766 2947 2009 2819 
Q 2194 2722 2281 2516 
Q 2338 2381 2338 1966 
L 2338 994 
Q 2338 584 2353 492 
Q 2369 400 2405 369 
Q 2441 338 2488 338 
Q 2538 338 2575 359 
Q 2641 400 2828 588 
L 2828 413 
Q 2478 -56 2159 -56 
Q 2006 -56 1915 50 
Q 1825 156 1822 413 
z
M 1822 616 
L 1822 1706 
Q 1350 1519 1213 1441 
Q 966 1303 859 1153 
Q 753 1003 753 825 
Q 753 600 887 451 
Q 1022 303 1197 303 
Q 1434 303 1822 616 
z
" id="TimesNewRomanPSMT-61" transform="scale(0.015625)"/>
       <path d="M 1031 3803 
L 1031 2863 
L 1700 2863 
L 1700 2644 
L 1031 2644 
L 1031 788 
Q 1031 509 1111 412 
Q 1191 316 1316 316 
Q 1419 316 1516 380 
Q 1613 444 1666 569 
L 1788 569 
Q 1678 263 1478 108 
Q 1278 -47 1066 -47 
Q 922 -47 784 33 
Q 647 113 581 261 
Q 516 409 516 719 
L 516 2644 
L 63 2644 
L 63 2747 
Q 234 2816 414 2980 
Q 594 3144 734 3369 
Q 806 3488 934 3803 
L 1031 3803 
z
" id="TimesNewRomanPSMT-74" transform="scale(0.015625)"/>
       <path d="M 966 1044 
Q 703 1172 562 1401 
Q 422 1631 422 1909 
Q 422 2334 742 2640 
Q 1063 2947 1563 2947 
Q 1972 2947 2272 2747 
L 2878 2747 
Q 3013 2747 3034 2739 
Q 3056 2731 3066 2713 
Q 3084 2684 3084 2613 
Q 3084 2531 3069 2500 
Q 3059 2484 3036 2475 
Q 3013 2466 2878 2466 
L 2506 2466 
Q 2681 2241 2681 1891 
Q 2681 1491 2375 1206 
Q 2069 922 1553 922 
Q 1341 922 1119 984 
Q 981 866 932 777 
Q 884 688 884 625 
Q 884 572 936 522 
Q 988 472 1138 450 
Q 1225 438 1575 428 
Q 2219 413 2409 384 
Q 2700 344 2873 169 
Q 3047 -6 3047 -263 
Q 3047 -616 2716 -925 
Q 2228 -1381 1444 -1381 
Q 841 -1381 425 -1109 
Q 191 -953 191 -784 
Q 191 -709 225 -634 
Q 278 -519 444 -313 
Q 466 -284 763 25 
Q 600 122 533 198 
Q 466 275 466 372 
Q 466 481 555 628 
Q 644 775 966 1044 
z
M 1509 2797 
Q 1278 2797 1122 2612 
Q 966 2428 966 2047 
Q 966 1553 1178 1281 
Q 1341 1075 1591 1075 
Q 1828 1075 1981 1253 
Q 2134 1431 2134 1813 
Q 2134 2309 1919 2591 
Q 1759 2797 1509 2797 
z
M 934 0 
Q 788 -159 713 -296 
Q 638 -434 638 -550 
Q 638 -700 819 -813 
Q 1131 -1006 1722 -1006 
Q 2284 -1006 2551 -807 
Q 2819 -609 2819 -384 
Q 2819 -222 2659 -153 
Q 2497 -84 2016 -72 
Q 1313 -53 934 0 
z
" id="TimesNewRomanPSMT-67" transform="scale(0.015625)"/>
      </defs>
      <use xlink:href="#TimesNewRomanPSMT-56"/>
      <use x="59.341797" xlink:href="#TimesNewRomanPSMT-6f"/>
      <use x="109.341797" xlink:href="#TimesNewRomanPSMT-6c"/>
      <use x="137.125" xlink:href="#TimesNewRomanPSMT-61"/>
      <use x="181.509766" xlink:href="#TimesNewRomanPSMT-74"/>
      <use x="209.292969" xlink:href="#TimesNewRomanPSMT-61"/>
      <use x="253.677734" xlink:href="#TimesNewRomanPSMT-67"/>
      <use x="303.677734" xlink:href="#TimesNewRomanPSMT-65"/>
      <use x="348.0625" xlink:href="#TimesNewRomanPSMT-20"/>
      <use x="373.0625" xlink:href="#TimesNewRomanPSMT-28"/>
      <use x="406.363281" xlink:href="#TimesNewRomanPSMT-56"/>
      <use x="478.580078" xlink:href="#TimesNewRomanPSMT-29"/>
     </g>
    </g>
   </g>
   <g id="LineCollection_1">
    <path clip-path="url(#pba101bae7d)" d="M 78.555057 169.100547 
L 382.918693 169.100547 
" style="fill:none;stroke:#1f77b4;stroke-width:1.5;"/>
   </g>
   <g id="line2d_31">
    <path clip-path="url(#pba101bae7d)" d="M 78.555057 169.087886 
L 106.860875 168.989736 
L 107.013057 168.989736 
L 115.322184 169.087886 
L 115.44393 169.087886 
L 115.596111 169.087886 
L 116.600511 169.161498 
L 116.722257 169.210573 
L 116.904875 169.186036 
L 117.087493 169.210573 
L 117.939711 169.308723 
L 118.12233 169.357798 
L 118.274511 169.333261 
L 118.487566 169.382336 
L 118.609311 169.382336 
L 118.70062 169.431411 
L 118.731057 169.406873 
L 119.400657 169.505023 
L 119.552839 169.505023 
L 120.496366 169.578636 
L 120.648548 169.62771 
L 121.744257 169.72586 
L 121.957311 169.774935 
L 122.566039 169.873085 
L 122.748657 169.897623 
L 122.870402 169.897623 
L 123.05302 169.92216 
L 126.248839 170.02031 
L 126.40102 170.069385 
L 126.522766 170.069385 
L 126.674948 170.11846 
L 126.796693 170.093923 
L 127.040184 170.192073 
L 127.16193 170.192073 
L 127.344548 170.290223 
L 127.74022 170.486523 
L 127.861966 170.486523 
L 128.227202 170.658285 
L 128.40982 170.756435 
L 130.114257 172.253222 
L 130.357748 172.596747 
L 130.601239 172.915734 
L 131.84913 175.124108 
L 132.123057 175.663932 
L 132.640475 176.694507 
L 133.553566 178.632968 
L 133.918802 179.418168 
L 134.588402 181.209405 
L 135.19713 182.951566 
L 136.384148 186.411352 
L 139.245166 193.061011 
L 140.158257 194.336961 
L 141.010475 194.92586 
L 141.162657 194.92586 
L 141.284402 194.950398 
L 141.436584 194.876785 
L 141.923566 194.778636 
L 142.410548 194.508723 
L 142.532293 194.435111 
L 142.836657 194.140661 
L 143.23233 193.698986 
L 144.14542 192.030437 
L 144.875893 189.993825 
L 145.758548 186.779415 
L 146.762948 182.313592 
L 148.528257 171.737934 
L 149.471784 164.941051 
L 152.911093 136.330338 
L 157.172184 99.524108 
L 159.272293 85.046986 
L 161.31153 75.698211 
L 162.589857 72.851857 
L 163.198584 72.483792 
L 163.929057 73.170846 
L 164.90302 75.77182 
L 165.816111 79.86958 
L 167.094439 88.825765 
L 168.129275 98.984281 
L 168.768439 106.198301 
L 170.625057 131.520994 
L 175.28182 212.224789 
L 176.894948 241.301714 
L 178.234148 264.097035 
L 180.212511 292.781366 
L 181.856075 311.331699 
L 182.73873 318.791103 
L 183.773566 324.77825 
L 184.564911 327.526451 
L 185.08233 328.826933 
L 185.32582 329.170458 
L 185.75193 329.415829 
L 185.964984 329.36676 
L 186.056293 329.391288 
L 186.08673 329.342219 
L 186.299784 329.244067 
L 186.634584 328.704242 
L 186.878075 328.115346 
L 187.304184 326.814863 
L 187.791166 324.900928 
L 189.039057 317.245233 
L 190.408693 304.19129 
L 191.930511 284.463152 
L 194.091493 249.668998 
L 196.161166 211.022454 
L 201.244039 114.786425 
L 202.49193 94.592075 
L 203.678948 77.219531 
L 205.07902 59.55254 
L 205.74862 52.264904 
L 207.08782 40.388756 
L 207.75742 35.849329 
L 208.700948 31.064515 
L 208.792257 30.770075 
L 209.370548 28.88068 
L 209.76622 27.948262 
L 210.131457 27.555656 
L 210.314075 27.359352 
L 210.892366 27.015829 
L 211.074984 27.064912 
L 211.166293 27.08944 
L 211.561966 27.531115 
L 211.77502 27.801027 
L 212.231566 28.635309 
L 212.44462 29.175136 
L 213.175093 31.898795 
L 213.87513 35.162281 
L 214.362111 38.033161 
L 215.45782 45.787007 
L 216.766584 57.221481 
L 218.744948 77.440369 
L 219.749348 89.120213 
L 223.462584 135.34884 
L 224.862657 151.985257 
L 226.871457 173.406484 
L 229.488984 195.661985 
L 231.071675 205.157993 
L 231.497784 207.317292 
L 232.836984 213.279901 
L 233.20222 214.825763 
L 234.176184 218.334624 
L 234.29793 218.727224 
L 235.119711 221.033747 
L 235.30233 221.524497 
L 235.911057 223.119436 
L 236.428475 224.100933 
L 237.615493 225.818558 
L 237.767675 225.91671 
L 238.011166 226.113007 
L 238.376402 226.530145 
L 238.619893 226.750982 
L 238.863384 226.84913 
L 239.837348 227.511644 
L 239.928657 227.487105 
L 239.959093 227.536182 
L 240.32433 227.438034 
L 240.506948 227.413496 
L 241.267857 227.315344 
L 241.967893 226.84913 
L 242.089639 226.824593 
L 242.33313 226.726445 
L 242.607057 226.48107 
L 243.33753 226.014858 
L 243.854948 225.91671 
L 244.159311 225.769481 
L 244.25062 225.744943 
L 244.554984 225.622258 
L 244.67673 225.59772 
L 244.981093 225.499572 
L 245.315893 225.156045 
L 245.528948 224.861598 
L 247.781239 221.033747 
L 248.785639 218.825372 
L 248.876948 218.727224 
L 249.211748 217.991097 
L 249.485675 217.377662 
L 249.850911 216.51885 
L 249.94222 216.32255 
L 250.27702 215.610961 
L 251.007493 213.623428 
L 252.438002 209.918267 
L 252.772802 208.985841 
L 253.198911 207.734429 
L 253.503275 206.802005 
L 254.020693 205.157993 
L 255.694693 199.391683 
L 258.190475 189.772988 
L 258.64702 187.932676 
L 260.229711 181.135792 
L 260.564511 179.663543 
L 261.538475 175.467633 
L 262.025457 173.553709 
L 262.542875 171.590709 
L 263.42553 168.474449 
L 266.134366 160.107165 
L 266.408293 159.493728 
L 266.895275 158.291391 
L 267.534439 157.015442 
L 269.086693 154.708918 
L 269.147566 154.610768 
L 269.573675 154.144556 
L 269.908475 153.801031 
L 270.547639 153.383894 
L 270.69982 153.383894 
L 270.943311 153.310282 
L 271.12593 153.334818 
L 271.278111 153.310282 
L 271.552039 153.408432 
L 271.734657 153.506581 
L 272.03902 153.801031 
L 272.860802 154.586231 
L 273.439093 155.322355 
L 273.865202 155.788567 
L 274.504366 156.647379 
L 274.626111 156.74553 
L 274.839166 157.064517 
L 274.900039 157.138129 
L 280.956875 166.707749 
L 281.109057 166.953124 
L 281.778657 167.861011 
L 281.869966 167.959161 
L 282.143893 168.302686 
L 282.783057 169.136961 
L 283.909202 170.167535 
L 284.122257 170.31476 
L 284.304875 170.41291 
L 284.822293 170.70736 
L 285.035348 170.780972 
L 285.18753 170.90366 
L 285.217966 170.879122 
L 286.678911 170.80551 
L 286.86153 170.682822 
L 287.044148 170.584672 
L 288.413784 169.357798 
L 288.657275 169.038811 
L 289.44862 167.959161 
L 289.631239 167.689249 
L 291.000875 165.309113 
L 291.335675 164.597525 
L 291.79222 163.763251 
L 292.370511 162.634526 
L 295.170657 155.616805 
L 295.505457 154.684381 
L 296.327239 152.426932 
L 296.783784 151.028295 
L 298.396911 146.19441 
L 299.096948 144.231411 
L 299.91873 141.949424 
L 300.801384 139.54475 
L 301.227493 138.514174 
L 301.50142 137.876201 
L 301.83622 136.968312 
L 302.292766 135.864129 
L 302.810184 134.833551 
L 303.388475 133.70483 
L 307.071275 127.963056 
L 307.253893 127.693142 
L 307.832184 126.957019 
L 307.984366 126.858869 
L 309.140948 126.049132 
L 309.262693 126.024595 
L 309.658366 125.926447 
L 309.932293 125.828295 
L 310.571457 125.926447 
L 310.814948 126.000057 
L 311.119311 126.07367 
L 311.271493 126.147284 
L 311.514984 126.245432 
L 312.97593 127.545919 
L 313.584657 128.72372 
L 315.776075 134.293728 
L 316.445675 136.821089 
L 317.450075 141.286912 
L 319.33713 151.322745 
L 319.854548 154.316317 
L 320.706766 159.690028 
L 321.315493 163.738713 
L 324.206948 183.908529 
L 325.637457 193.821673 
L 326.520111 200.054195 
L 328.163675 211.194215 
L 328.62022 213.942414 
L 329.320257 218.236474 
L 331.694293 231.045043 
L 333.216111 236.737738 
L 334.464002 240.393823 
L 335.529275 242.700349 
L 336.32062 243.779995 
L 337.598948 244.712421 
L 337.720693 244.712421 
L 337.842439 244.761496 
L 337.99462 244.736963 
L 338.177239 244.761496 
L 338.816402 244.663344 
L 339.212075 244.467048 
L 339.364257 244.39344 
L 339.546875 244.197136 
L 339.972984 243.730928 
L 340.886075 242.062371 
L 342.042657 238.995189 
L 343.077493 235.314569 
L 345.421093 223.462959 
L 349.286511 197.845821 
L 350.990948 184.96364 
L 351.47793 181.160329 
L 352.878002 169.72586 
L 357.869566 130.343192 
L 361.948039 104.750591 
L 363.074184 99.008824 
L 364.413384 93.070746 
L 366.330875 87.255362 
L 366.909166 86.126639 
L 367.852693 84.801615 
L 368.55273 84.35994 
L 368.79622 84.261788 
L 369.009275 84.188178 
L 369.22233 84.261788 
L 369.344075 84.28633 
L 369.55713 84.384474 
L 370.744148 85.464127 
L 371.870293 87.476199 
L 372.783384 89.954488 
L 373.757348 93.438811 
L 376.770548 108.553903 
L 378.688039 121.607849 
L 382.918693 154.954293 
L 382.918693 154.954293 
" style="fill:none;stroke:#0000ff;stroke-linecap:square;stroke-width:1.5;"/>
   </g>
   <g id="line2d_32">
    <path clip-path="url(#pba101bae7d)" d="M 78.555057 169.029487 
L 78.737675 169.054024 
L 79.011602 169.054024 
L 86.468511 169.164443 
L 86.772875 169.176711 
L 90.029566 169.28713 
L 90.303493 169.28713 
L 100.864911 169.397549 
L 101.260584 169.446624 
L 101.869311 169.557043 
L 103.695493 170.391317 
L 103.999857 170.673498 
L 104.63902 171.323742 
L 105.491239 172.51381 
L 108.565311 178.9549 
L 112.735093 188.757626 
L 113.313384 189.677783 
L 113.556875 189.99677 
L 114.10473 190.696088 
L 114.196039 190.769701 
L 114.469966 191.027344 
L 115.77873 191.444482 
L 116.11353 191.334063 
L 116.417893 191.100957 
L 117.178802 190.364832 
L 118.335384 188.303684 
L 118.852802 187.174959 
L 119.278911 186.070771 
L 119.887639 184.316341 
L 121.196402 179.7401 
L 123.448693 169.250324 
L 124.270475 164.735426 
L 125.39662 158.601054 
L 127.49673 147.90271 
L 129.596839 137.486546 
L 131.149093 131.671161 
L 134.131857 122.395991 
L 135.044948 120.322573 
L 135.501493 119.206119 
L 137.023311 116.384308 
L 137.571166 115.709524 
L 138.332075 114.936593 
L 138.910366 115.047011 
L 139.336475 115.390538 
L 140.036511 116.089857 
L 140.401748 116.691025 
L 142.045311 120.248959 
L 143.628002 126.40787 
L 145.788984 138.308554 
L 146.732511 144.67603 
L 148.436948 158.564248 
L 150.050075 173.151784 
L 154.554657 215.699786 
L 157.324366 236.065907 
L 158.176584 240.850713 
L 159.728839 247.242729 
L 160.88542 250.187228 
L 161.341966 250.86201 
L 162.285493 251.499981 
L 162.681166 251.4141 
L 163.685566 250.039999 
L 164.142111 248.886743 
L 164.720402 246.92374 
L 165.66393 243.108164 
L 167.033566 235.378852 
L 169.407602 218.349837 
L 170.990293 205.381777 
L 177.168875 151.558796 
L 179.421166 135.155485 
L 182.160439 118.187812 
L 183.377893 113.280316 
L 184.382293 110.053635 
L 185.08233 108.397356 
L 185.812802 107.170476 
L 186.451966 106.348474 
L 186.878075 106.004949 
L 187.852039 106.103101 
L 188.399893 106.679734 
L 189.586911 109.317508 
L 190.01302 110.617995 
L 191.504402 115.770871 
L 192.813166 122.629095 
L 195.095893 139.00787 
L 196.526402 152.061814 
L 199.72222 183.15081 
L 201.791893 200.523352 
L 202.887602 208.461229 
L 203.800693 213.957625 
L 205.17033 220.067461 
L 206.052984 223.28187 
L 206.570402 224.754123 
L 207.574802 226.189562 
L 207.940039 226.263177 
L 208.274839 226.030073 
L 208.944439 225.35529 
L 209.340111 224.705046 
L 209.674911 223.809426 
L 211.10542 218.840587 
L 212.048948 214.595603 
L 213.966439 203.16113 
L 221.879893 143.375543 
L 224.619166 126.43241 
L 226.232293 118.568145 
L 227.754111 112.311085 
L 228.880257 108.630458 
L 230.128148 105.428318 
L 231.132548 103.637083 
L 231.802148 102.999107 
L 232.015202 102.95003 
L 232.380439 103.048182 
L 233.263093 103.882456 
L 233.719639 104.80261 
L 234.845784 108.311477 
L 235.758875 112.421504 
L 237.31113 121.13231 
L 238.285093 127.68382 
L 239.867784 139.290051 
L 243.611457 171.912641 
L 248.60302 217.17204 
L 250.337893 229.624811 
L 252.681493 243.132698 
L 253.777202 247.500373 
L 255.177275 251.647208 
L 256.029493 253.143995 
L 257.338257 254.076419 
L 257.551311 254.08869 
L 257.794802 254.076419 
L 258.06873 253.99054 
L 258.31222 253.892388 
L 259.164439 253.070384 
L 259.620984 252.358797 
L 260.74713 249.843703 
L 262.695057 243.218579 
L 264.399493 235.51381 
L 265.495202 230.152371 
L 268.264911 213.920821 
L 269.969348 202.989368 
L 270.608511 199.051103 
L 272.099893 189.591902 
L 281.596039 129.070188 
L 284.487493 112.249738 
L 285.978875 105.011177 
L 287.165893 100.226371 
L 288.139857 97.441364 
L 288.809457 96.104077 
L 289.600802 95.024423 
L 289.752984 94.852661 
L 290.605202 94.300563 
L 291.54873 94.410986 
L 292.187893 95.061228 
L 293.861893 97.944386 
L 294.348875 98.987226 
L 295.23153 101.391905 
L 296.357675 105.379243 
L 297.788184 112.212933 
L 299.58393 122.972624 
L 300.984002 132.701736 
L 304.210257 156.564443 
L 307.649566 178.022476 
L 309.993166 191.518094 
L 312.854184 205.93387 
L 313.858584 209.553146 
L 315.745639 214.558795 
L 317.267457 217.380606 
L 317.754439 217.981775 
L 317.876184 218.067656 
L 318.424039 218.558408 
L 319.33713 219.171843 
L 319.793675 219.282262 
L 320.067602 219.38041 
L 320.798075 219.269991 
L 321.224184 219.061424 
L 322.289457 218.521598 
L 323.659093 217.306992 
L 324.02433 216.791707 
L 324.146075 216.632213 
L 324.389566 216.300957 
L 324.906984 215.503487 
L 325.36353 214.558795 
L 328.011493 207.872332 
L 329.28982 203.946332 
L 330.507275 199.946721 
L 331.816039 195.358211 
L 332.911748 191.395407 
L 340.33822 164.845845 
L 342.590511 159.680703 
L 344.142766 157.386449 
L 344.629748 156.969311 
L 344.78193 156.932505 
L 345.02542 156.871161 
L 345.299348 156.871161 
L 346.060257 156.98158 
L 348.03862 157.889467 
L 348.79953 158.625592 
L 349.347384 159.300372 
L 349.864802 160.097841 
L 351.264875 162.539321 
L 351.995348 164.269214 
L 353.091057 167.201444 
L 353.973711 169.67973 
L 354.795493 172.31751 
L 355.434657 174.440003 
L 357.686948 181.347306 
L 359.665311 185.862203 
L 360.243602 186.586058 
L 361.491493 187.457139 
L 362.76982 187.862009 
L 363.652475 187.763859 
L 365.935202 185.788591 
L 367.12222 183.666098 
L 367.822257 182.009818 
L 369.648439 176.537958 
L 370.378911 173.470772 
L 371.109384 170.084598 
L 378.322802 135.707578 
L 378.992402 132.885767 
L 379.631566 130.321599 
L 381.85342 122.678172 
L 382.61433 120.592486 
L 382.918693 119.795017 
L 382.918693 119.795017 
" style="fill:none;stroke:#ff0000;stroke-linecap:square;stroke-width:1.5;"/>
   </g>
   <g id="line2d_33">
    <path clip-path="url(#pba101bae7d)" d="M 132.85353 177.136182 
" style="fill:none;stroke:#ffffff;stroke-linecap:square;stroke-width:1.5;"/>
    <defs>
     <path d="M 0 -5 
L -1.12257 -1.545085 
L -4.755283 -1.545085 
L -1.816356 0.59017 
L -2.938926 4.045085 
L -0 1.90983 
L 2.938926 4.045085 
L 1.816356 0.59017 
L 4.755283 -1.545085 
L 1.12257 -1.545085 
z
" id="m0d1d0bfdc8" style="stroke:#ffffff;stroke-linejoin:bevel;"/>
    </defs>
    <g clip-path="url(#pba101bae7d)">
     <use style="fill:#0000ff;stroke:#ffffff;stroke-linejoin:bevel;" x="132.85353" xlink:href="#m0d1d0bfdc8" y="177.136182"/>
    </g>
   </g>
   <g id="line2d_34">
    <path clip-path="url(#pba101bae7d)" d="M 106.008657 173.372622 
" style="fill:none;stroke:#ffffff;stroke-linecap:square;stroke-width:1.5;"/>
    <defs>
     <path d="M 0 -5 
L -1.12257 -1.545085 
L -4.755283 -1.545085 
L -1.816356 0.59017 
L -2.938926 4.045085 
L -0 1.90983 
L 2.938926 4.045085 
L 1.816356 0.59017 
L 4.755283 -1.545085 
L 1.12257 -1.545085 
z
" id="mae36e4283d" style="stroke:#ffffff;stroke-linejoin:bevel;"/>
    </defs>
    <g clip-path="url(#pba101bae7d)">
     <use style="fill:#ff0000;stroke:#ffffff;stroke-linejoin:bevel;" x="106.008657" xlink:href="#mae36e4283d" y="173.372622"/>
    </g>
   </g>
   <g id="patch_3">
    <path d="M 63.336875 344.535829 
L 63.336875 11.895829 
" style="fill:none;stroke:#000000;stroke-linecap:square;stroke-linejoin:miter;stroke-width:0.8;"/>
   </g>
   <g id="patch_4">
    <path d="M 398.136875 344.535829 
L 398.136875 11.895829 
" style="fill:none;stroke:#000000;stroke-linecap:square;stroke-linejoin:miter;stroke-width:0.8;"/>
   </g>
   <g id="patch_5">
    <path d="M 63.336875 344.535829 
L 398.136875 344.535829 
" style="fill:none;stroke:#000000;stroke-linecap:square;stroke-linejoin:miter;stroke-width:0.8;"/>
   </g>
   <g id="patch_6">
    <path d="M 63.336875 11.895829 
L 398.136875 11.895829 
" style="fill:none;stroke:#000000;stroke-linecap:square;stroke-linejoin:miter;stroke-width:0.8;"/>
   </g>
   <g id="text_18">
    <g id="patch_7">
     <path d="M 75.036875 335.938517 
L 166.79375 335.938517 
L 166.79375 298.456142 
L 75.036875 298.456142 
z
" style="fill:#ffffff;stroke:#000000;stroke-linejoin:miter;stroke-width:0.75;"/>
    </g>
    <!-- Auto_00006 -->
    <g transform="translate(80.076875 313.217392)scale(0.14 -0.14)">
     <defs>
      <path d="M 2928 1419 
L 1288 1419 
L 1000 750 
Q 894 503 894 381 
Q 894 284 986 211 
Q 1078 138 1384 116 
L 1384 0 
L 50 0 
L 50 116 
Q 316 163 394 238 
Q 553 388 747 847 
L 2238 4334 
L 2347 4334 
L 3822 809 
Q 4000 384 4145 257 
Q 4291 131 4550 116 
L 4550 0 
L 2878 0 
L 2878 116 
Q 3131 128 3220 200 
Q 3309 272 3309 375 
Q 3309 513 3184 809 
L 2928 1419 
z
M 2841 1650 
L 2122 3363 
L 1384 1650 
L 2841 1650 
z
" id="TimesNewRomanPSMT-41" transform="scale(0.015625)"/>
      <path d="M 2709 2863 
L 2709 1128 
Q 2709 631 2732 520 
Q 2756 409 2807 365 
Q 2859 322 2928 322 
Q 3025 322 3147 375 
L 3191 266 
L 2334 -88 
L 2194 -88 
L 2194 519 
Q 1825 119 1631 15 
Q 1438 -88 1222 -88 
Q 981 -88 804 51 
Q 628 191 559 409 
Q 491 628 491 1028 
L 491 2306 
Q 491 2509 447 2587 
Q 403 2666 317 2708 
Q 231 2750 6 2747 
L 6 2863 
L 1009 2863 
L 1009 947 
Q 1009 547 1148 422 
Q 1288 297 1484 297 
Q 1619 297 1789 381 
Q 1959 466 2194 703 
L 2194 2325 
Q 2194 2569 2105 2655 
Q 2016 2741 1734 2747 
L 1734 2863 
L 2709 2863 
z
" id="TimesNewRomanPSMT-75" transform="scale(0.015625)"/>
      <path d="M 3256 -1381 
L -53 -1381 
L -53 -1119 
L 3256 -1119 
L 3256 -1381 
z
" id="TimesNewRomanPSMT-5f" transform="scale(0.015625)"/>
     </defs>
     <use xlink:href="#TimesNewRomanPSMT-41"/>
     <use x="72.216797" xlink:href="#TimesNewRomanPSMT-75"/>
     <use x="122.216797" xlink:href="#TimesNewRomanPSMT-74"/>
     <use x="150" xlink:href="#TimesNewRomanPSMT-6f"/>
     <use x="200" xlink:href="#TimesNewRomanPSMT-5f"/>
     <use x="250" xlink:href="#TimesNewRomanPSMT-30"/>
     <use x="300" xlink:href="#TimesNewRomanPSMT-30"/>
     <use x="350" xlink:href="#TimesNewRomanPSMT-30"/>
     <use x="400" xlink:href="#TimesNewRomanPSMT-30"/>
     <use x="450" xlink:href="#TimesNewRomanPSMT-36"/>
    </g>
    <!-- Vs: 226.64m/s -->
    <g transform="translate(80.076875 327.903829)scale(0.14 -0.14)">
     <defs>
      <path d="M 903 2950 
Q 1047 2950 1148 2848 
Q 1250 2747 1250 2603 
Q 1250 2459 1148 2357 
Q 1047 2256 903 2256 
Q 759 2256 657 2357 
Q 556 2459 556 2603 
Q 556 2747 657 2848 
Q 759 2950 903 2950 
z
M 897 609 
Q 1044 609 1145 506 
Q 1247 403 1247 259 
Q 1247 116 1144 14 
Q 1041 -88 897 -88 
Q 753 -88 651 14 
Q 550 116 550 259 
Q 550 403 651 506 
Q 753 609 897 609 
z
" id="TimesNewRomanPSMT-3a" transform="scale(0.015625)"/>
      <path d="M 1794 4444 
L 259 -88 
L 9 -88 
L 1544 4444 
L 1794 4444 
z
" id="TimesNewRomanPSMT-2f" transform="scale(0.015625)"/>
     </defs>
     <use xlink:href="#TimesNewRomanPSMT-56"/>
     <use x="72.216797" xlink:href="#TimesNewRomanPSMT-73"/>
     <use x="111.132812" xlink:href="#TimesNewRomanPSMT-3a"/>
     <use x="138.916016" xlink:href="#TimesNewRomanPSMT-20"/>
     <use x="163.916016" xlink:href="#TimesNewRomanPSMT-32"/>
     <use x="213.916016" xlink:href="#TimesNewRomanPSMT-32"/>
     <use x="263.916016" xlink:href="#TimesNewRomanPSMT-36"/>
     <use x="313.916016" xlink:href="#TimesNewRomanPSMT-2e"/>
     <use x="338.916016" xlink:href="#TimesNewRomanPSMT-36"/>
     <use x="388.916016" xlink:href="#TimesNewRomanPSMT-34"/>
     <use x="438.916016" xlink:href="#TimesNewRomanPSMT-6d"/>
     <use x="516.699219" xlink:href="#TimesNewRomanPSMT-2f"/>
     <use x="544.482422" xlink:href="#TimesNewRomanPSMT-73"/>
    </g>
   </g>
  </g>
 </g>
 <defs>
  <clipPath id="pba101bae7d">
   <rect height="332.64" width="334.8" x="63.336875" y="11.895829"/>
  </clipPath>
 </defs>
</svg>
