<?xml version="1.0" encoding="utf-8" standalone="no"?>
<!DOCTYPE svg PUBLIC "-//W3C//DTD SVG 1.1//EN"
  "http://www.w3.org/Graphics/SVG/1.1/DTD/svg11.dtd">
<svg height="383.471875pt" version="1.1" viewBox="0 0 421.086875 383.471875" width="421.086875pt" xmlns="http://www.w3.org/2000/svg" xmlns:xlink="http://www.w3.org/1999/xlink">
 <metadata>
  <rdf:RDF xmlns:cc="http://creativecommons.org/ns#" xmlns:dc="http://purl.org/dc/elements/1.1/" xmlns:rdf="http://www.w3.org/1999/02/22-rdf-syntax-ns#">
   <cc:Work>
    <dc:type rdf:resource="http://purl.org/dc/dcmitype/StillImage"/>
    <dc:date>2021-06-11T14:39:38.052111</dc:date>
    <dc:format>image/svg+xml</dc:format>
    <dc:creator>
     <cc:Agent>
      <dc:title>Matplotlib v3.4.2, https://matplotlib.org/</dc:title>
     </cc:Agent>
    </dc:creator>
   </cc:Work>
  </rdf:RDF>
 </metadata>
 <defs>
  <style type="text/css">*{stroke-linecap:butt;stroke-linejoin:round;}</style>
 </defs>
 <g id="figure_1">
  <g id="patch_1">
   <path d="M 0 383.471875 
L 421.086875 383.471875 
L 421.086875 0 
L 0 0 
z
" style="fill:#ffffff;"/>
  </g>
  <g id="axes_1">
   <g id="patch_2">
    <path d="M 63.336875 339.84 
L 398.136875 339.84 
L 398.136875 7.2 
L 63.336875 7.2 
z
" style="fill:#ffffff;"/>
   </g>
   <g id="matplotlib.axis_1">
    <g id="xtick_1">
     <g id="line2d_1">
      <path clip-path="url(#p1508c70561)" d="M 93.773239 339.84 
L 93.773239 7.2 
" style="fill:none;stroke:#000000;stroke-dasharray:0.5,0.825;stroke-dashoffset:0;stroke-width:0.5;"/>
     </g>
     <g id="line2d_2">
      <defs>
       <path d="M 0 0 
L 0 3.5 
" id="m660bad5b4f" style="stroke:#000000;stroke-width:0.8;"/>
      </defs>
      <g>
       <use style="stroke:#000000;stroke-width:0.8;" x="93.773239" xlink:href="#m660bad5b4f" y="339.84"/>
      </g>
     </g>
     <g id="text_1">
      <!-- 0.000 -->
      <g transform="translate(78.023239 356.56125)scale(0.14 -0.14)">
       <defs>
        <path d="M 231 2094 
Q 231 2819 450 3342 
Q 669 3866 1031 4122 
Q 1313 4325 1613 4325 
Q 2100 4325 2488 3828 
Q 2972 3213 2972 2159 
Q 2972 1422 2759 906 
Q 2547 391 2217 158 
Q 1888 -75 1581 -75 
Q 975 -75 572 641 
Q 231 1244 231 2094 
z
M 844 2016 
Q 844 1141 1059 588 
Q 1238 122 1591 122 
Q 1759 122 1940 273 
Q 2122 425 2216 781 
Q 2359 1319 2359 2297 
Q 2359 3022 2209 3506 
Q 2097 3866 1919 4016 
Q 1791 4119 1609 4119 
Q 1397 4119 1231 3928 
Q 1006 3669 925 3112 
Q 844 2556 844 2016 
z
" id="TimesNewRomanPSMT-30" transform="scale(0.015625)"/>
        <path d="M 800 606 
Q 947 606 1047 504 
Q 1147 403 1147 259 
Q 1147 116 1045 14 
Q 944 -88 800 -88 
Q 656 -88 554 14 
Q 453 116 453 259 
Q 453 406 554 506 
Q 656 606 800 606 
z
" id="TimesNewRomanPSMT-2e" transform="scale(0.015625)"/>
       </defs>
       <use xlink:href="#TimesNewRomanPSMT-30"/>
       <use x="50" xlink:href="#TimesNewRomanPSMT-2e"/>
       <use x="75" xlink:href="#TimesNewRomanPSMT-30"/>
       <use x="125" xlink:href="#TimesNewRomanPSMT-30"/>
       <use x="175" xlink:href="#TimesNewRomanPSMT-30"/>
      </g>
     </g>
    </g>
    <g id="xtick_2">
     <g id="line2d_3">
      <path clip-path="url(#p1508c70561)" d="M 154.645966 339.84 
L 154.645966 7.2 
" style="fill:none;stroke:#000000;stroke-dasharray:0.5,0.825;stroke-dashoffset:0;stroke-width:0.5;"/>
     </g>
     <g id="line2d_4">
      <g>
       <use style="stroke:#000000;stroke-width:0.8;" x="154.645966" xlink:href="#m660bad5b4f" y="339.84"/>
      </g>
     </g>
     <g id="text_2">
      <!-- 0.001 -->
      <g transform="translate(138.895966 356.56125)scale(0.14 -0.14)">
       <defs>
        <path d="M 750 3822 
L 1781 4325 
L 1884 4325 
L 1884 747 
Q 1884 391 1914 303 
Q 1944 216 2037 169 
Q 2131 122 2419 116 
L 2419 0 
L 825 0 
L 825 116 
Q 1125 122 1212 167 
Q 1300 213 1334 289 
Q 1369 366 1369 747 
L 1369 3034 
Q 1369 3497 1338 3628 
Q 1316 3728 1258 3775 
Q 1200 3822 1119 3822 
Q 1003 3822 797 3725 
L 750 3822 
z
" id="TimesNewRomanPSMT-31" transform="scale(0.015625)"/>
       </defs>
       <use xlink:href="#TimesNewRomanPSMT-30"/>
       <use x="50" xlink:href="#TimesNewRomanPSMT-2e"/>
       <use x="75" xlink:href="#TimesNewRomanPSMT-30"/>
       <use x="125" xlink:href="#TimesNewRomanPSMT-30"/>
       <use x="175" xlink:href="#TimesNewRomanPSMT-31"/>
      </g>
     </g>
    </g>
    <g id="xtick_3">
     <g id="line2d_5">
      <path clip-path="url(#p1508c70561)" d="M 215.518693 339.84 
L 215.518693 7.2 
" style="fill:none;stroke:#000000;stroke-dasharray:0.5,0.825;stroke-dashoffset:0;stroke-width:0.5;"/>
     </g>
     <g id="line2d_6">
      <g>
       <use style="stroke:#000000;stroke-width:0.8;" x="215.518693" xlink:href="#m660bad5b4f" y="339.84"/>
      </g>
     </g>
     <g id="text_3">
      <!-- 0.002 -->
      <g transform="translate(199.768693 356.56125)scale(0.14 -0.14)">
       <defs>
        <path d="M 2934 816 
L 2638 0 
L 138 0 
L 138 116 
Q 1241 1122 1691 1759 
Q 2141 2397 2141 2925 
Q 2141 3328 1894 3587 
Q 1647 3847 1303 3847 
Q 991 3847 742 3664 
Q 494 3481 375 3128 
L 259 3128 
Q 338 3706 661 4015 
Q 984 4325 1469 4325 
Q 1984 4325 2329 3994 
Q 2675 3663 2675 3213 
Q 2675 2891 2525 2569 
Q 2294 2063 1775 1497 
Q 997 647 803 472 
L 1909 472 
Q 2247 472 2383 497 
Q 2519 522 2628 598 
Q 2738 675 2819 816 
L 2934 816 
z
" id="TimesNewRomanPSMT-32" transform="scale(0.015625)"/>
       </defs>
       <use xlink:href="#TimesNewRomanPSMT-30"/>
       <use x="50" xlink:href="#TimesNewRomanPSMT-2e"/>
       <use x="75" xlink:href="#TimesNewRomanPSMT-30"/>
       <use x="125" xlink:href="#TimesNewRomanPSMT-30"/>
       <use x="175" xlink:href="#TimesNewRomanPSMT-32"/>
      </g>
     </g>
    </g>
    <g id="xtick_4">
     <g id="line2d_7">
      <path clip-path="url(#p1508c70561)" d="M 276.39142 339.84 
L 276.39142 7.2 
" style="fill:none;stroke:#000000;stroke-dasharray:0.5,0.825;stroke-dashoffset:0;stroke-width:0.5;"/>
     </g>
     <g id="line2d_8">
      <g>
       <use style="stroke:#000000;stroke-width:0.8;" x="276.39142" xlink:href="#m660bad5b4f" y="339.84"/>
      </g>
     </g>
     <g id="text_4">
      <!-- 0.003 -->
      <g transform="translate(260.64142 356.56125)scale(0.14 -0.14)">
       <defs>
        <path d="M 325 3431 
Q 506 3859 782 4092 
Q 1059 4325 1472 4325 
Q 1981 4325 2253 3994 
Q 2459 3747 2459 3466 
Q 2459 3003 1878 2509 
Q 2269 2356 2469 2072 
Q 2669 1788 2669 1403 
Q 2669 853 2319 450 
Q 1863 -75 997 -75 
Q 569 -75 414 31 
Q 259 138 259 259 
Q 259 350 332 419 
Q 406 488 509 488 
Q 588 488 669 463 
Q 722 447 909 348 
Q 1097 250 1169 231 
Q 1284 197 1416 197 
Q 1734 197 1970 444 
Q 2206 691 2206 1028 
Q 2206 1275 2097 1509 
Q 2016 1684 1919 1775 
Q 1784 1900 1550 2001 
Q 1316 2103 1072 2103 
L 972 2103 
L 972 2197 
Q 1219 2228 1467 2375 
Q 1716 2522 1828 2728 
Q 1941 2934 1941 3181 
Q 1941 3503 1739 3701 
Q 1538 3900 1238 3900 
Q 753 3900 428 3381 
L 325 3431 
z
" id="TimesNewRomanPSMT-33" transform="scale(0.015625)"/>
       </defs>
       <use xlink:href="#TimesNewRomanPSMT-30"/>
       <use x="50" xlink:href="#TimesNewRomanPSMT-2e"/>
       <use x="75" xlink:href="#TimesNewRomanPSMT-30"/>
       <use x="125" xlink:href="#TimesNewRomanPSMT-30"/>
       <use x="175" xlink:href="#TimesNewRomanPSMT-33"/>
      </g>
     </g>
    </g>
    <g id="xtick_5">
     <g id="line2d_9">
      <path clip-path="url(#p1508c70561)" d="M 337.264148 339.84 
L 337.264148 7.2 
" style="fill:none;stroke:#000000;stroke-dasharray:0.5,0.825;stroke-dashoffset:0;stroke-width:0.5;"/>
     </g>
     <g id="line2d_10">
      <g>
       <use style="stroke:#000000;stroke-width:0.8;" x="337.264148" xlink:href="#m660bad5b4f" y="339.84"/>
      </g>
     </g>
     <g id="text_5">
      <!-- 0.004 -->
      <g transform="translate(321.514148 356.56125)scale(0.14 -0.14)">
       <defs>
        <path d="M 2978 1563 
L 2978 1119 
L 2409 1119 
L 2409 0 
L 1894 0 
L 1894 1119 
L 100 1119 
L 100 1519 
L 2066 4325 
L 2409 4325 
L 2409 1563 
L 2978 1563 
z
M 1894 1563 
L 1894 3666 
L 406 1563 
L 1894 1563 
z
" id="TimesNewRomanPSMT-34" transform="scale(0.015625)"/>
       </defs>
       <use xlink:href="#TimesNewRomanPSMT-30"/>
       <use x="50" xlink:href="#TimesNewRomanPSMT-2e"/>
       <use x="75" xlink:href="#TimesNewRomanPSMT-30"/>
       <use x="125" xlink:href="#TimesNewRomanPSMT-30"/>
       <use x="175" xlink:href="#TimesNewRomanPSMT-34"/>
      </g>
     </g>
    </g>
    <g id="xtick_6">
     <g id="line2d_11">
      <path clip-path="url(#p1508c70561)" d="M 398.136875 339.84 
L 398.136875 7.2 
" style="fill:none;stroke:#000000;stroke-dasharray:0.5,0.825;stroke-dashoffset:0;stroke-width:0.5;"/>
     </g>
     <g id="line2d_12">
      <g>
       <use style="stroke:#000000;stroke-width:0.8;" x="398.136875" xlink:href="#m660bad5b4f" y="339.84"/>
      </g>
     </g>
     <g id="text_6">
      <!-- 0.005 -->
      <g transform="translate(382.386875 356.56125)scale(0.14 -0.14)">
       <defs>
        <path d="M 2778 4238 
L 2534 3706 
L 1259 3706 
L 981 3138 
Q 1809 3016 2294 2522 
Q 2709 2097 2709 1522 
Q 2709 1188 2573 903 
Q 2438 619 2231 419 
Q 2025 219 1772 97 
Q 1413 -75 1034 -75 
Q 653 -75 479 54 
Q 306 184 306 341 
Q 306 428 378 495 
Q 450 563 559 563 
Q 641 563 702 538 
Q 763 513 909 409 
Q 1144 247 1384 247 
Q 1750 247 2026 523 
Q 2303 800 2303 1197 
Q 2303 1581 2056 1914 
Q 1809 2247 1375 2428 
Q 1034 2569 447 2591 
L 1259 4238 
L 2778 4238 
z
" id="TimesNewRomanPSMT-35" transform="scale(0.015625)"/>
       </defs>
       <use xlink:href="#TimesNewRomanPSMT-30"/>
       <use x="50" xlink:href="#TimesNewRomanPSMT-2e"/>
       <use x="75" xlink:href="#TimesNewRomanPSMT-30"/>
       <use x="125" xlink:href="#TimesNewRomanPSMT-30"/>
       <use x="175" xlink:href="#TimesNewRomanPSMT-35"/>
      </g>
     </g>
    </g>
    <g id="text_7">
     <!-- Time (sec) -->
     <g transform="translate(200.858906 373.277188)scale(0.14 -0.14)">
      <defs>
       <path d="M 3703 4238 
L 3750 3244 
L 3631 3244 
Q 3597 3506 3538 3619 
Q 3441 3800 3280 3886 
Q 3119 3972 2856 3972 
L 2259 3972 
L 2259 734 
Q 2259 344 2344 247 
Q 2463 116 2709 116 
L 2856 116 
L 2856 0 
L 1059 0 
L 1059 116 
L 1209 116 
Q 1478 116 1591 278 
Q 1659 378 1659 734 
L 1659 3972 
L 1150 3972 
Q 853 3972 728 3928 
Q 566 3869 450 3700 
Q 334 3531 313 3244 
L 194 3244 
L 244 4238 
L 3703 4238 
z
" id="TimesNewRomanPSMT-54" transform="scale(0.015625)"/>
       <path d="M 928 4444 
Q 1059 4444 1151 4351 
Q 1244 4259 1244 4128 
Q 1244 3997 1151 3903 
Q 1059 3809 928 3809 
Q 797 3809 703 3903 
Q 609 3997 609 4128 
Q 609 4259 701 4351 
Q 794 4444 928 4444 
z
M 1188 2947 
L 1188 647 
Q 1188 378 1227 289 
Q 1266 200 1342 156 
Q 1419 113 1622 113 
L 1622 0 
L 231 0 
L 231 113 
Q 441 113 512 153 
Q 584 194 626 287 
Q 669 381 669 647 
L 669 1750 
Q 669 2216 641 2353 
Q 619 2453 572 2492 
Q 525 2531 444 2531 
Q 356 2531 231 2484 
L 188 2597 
L 1050 2947 
L 1188 2947 
z
" id="TimesNewRomanPSMT-69" transform="scale(0.015625)"/>
       <path d="M 1050 2338 
Q 1363 2650 1419 2697 
Q 1559 2816 1721 2881 
Q 1884 2947 2044 2947 
Q 2313 2947 2506 2790 
Q 2700 2634 2766 2338 
Q 3088 2713 3309 2830 
Q 3531 2947 3766 2947 
Q 3994 2947 4170 2830 
Q 4347 2713 4450 2447 
Q 4519 2266 4519 1878 
L 4519 647 
Q 4519 378 4559 278 
Q 4591 209 4675 161 
Q 4759 113 4950 113 
L 4950 0 
L 3538 0 
L 3538 113 
L 3597 113 
Q 3781 113 3884 184 
Q 3956 234 3988 344 
Q 4000 397 4000 647 
L 4000 1878 
Q 4000 2228 3916 2372 
Q 3794 2572 3525 2572 
Q 3359 2572 3192 2489 
Q 3025 2406 2788 2181 
L 2781 2147 
L 2788 2013 
L 2788 647 
Q 2788 353 2820 281 
Q 2853 209 2943 161 
Q 3034 113 3253 113 
L 3253 0 
L 1806 0 
L 1806 113 
Q 2044 113 2133 169 
Q 2222 225 2256 338 
Q 2272 391 2272 647 
L 2272 1878 
Q 2272 2228 2169 2381 
Q 2031 2581 1784 2581 
Q 1616 2581 1450 2491 
Q 1191 2353 1050 2181 
L 1050 647 
Q 1050 366 1089 281 
Q 1128 197 1204 155 
Q 1281 113 1516 113 
L 1516 0 
L 100 0 
L 100 113 
Q 297 113 375 155 
Q 453 197 493 289 
Q 534 381 534 647 
L 534 1741 
Q 534 2213 506 2350 
Q 484 2453 437 2492 
Q 391 2531 309 2531 
Q 222 2531 100 2484 
L 53 2597 
L 916 2947 
L 1050 2947 
L 1050 2338 
z
" id="TimesNewRomanPSMT-6d" transform="scale(0.015625)"/>
       <path d="M 681 1784 
Q 678 1147 991 784 
Q 1303 422 1725 422 
Q 2006 422 2214 576 
Q 2422 731 2563 1106 
L 2659 1044 
Q 2594 616 2278 264 
Q 1963 -88 1488 -88 
Q 972 -88 605 314 
Q 238 716 238 1394 
Q 238 2128 614 2539 
Q 991 2950 1559 2950 
Q 2041 2950 2350 2633 
Q 2659 2316 2659 1784 
L 681 1784 
z
M 681 1966 
L 2006 1966 
Q 1991 2241 1941 2353 
Q 1863 2528 1708 2628 
Q 1553 2728 1384 2728 
Q 1125 2728 920 2526 
Q 716 2325 681 1966 
z
" id="TimesNewRomanPSMT-65" transform="scale(0.015625)"/>
       <path id="TimesNewRomanPSMT-20" transform="scale(0.015625)"/>
       <path d="M 1988 -1253 
L 1988 -1369 
Q 1516 -1131 1200 -813 
Q 750 -359 506 256 
Q 263 872 263 1534 
Q 263 2503 741 3301 
Q 1219 4100 1988 4444 
L 1988 4313 
Q 1603 4100 1356 3731 
Q 1109 3363 987 2797 
Q 866 2231 866 1616 
Q 866 947 969 400 
Q 1050 -31 1165 -292 
Q 1281 -553 1476 -793 
Q 1672 -1034 1988 -1253 
z
" id="TimesNewRomanPSMT-28" transform="scale(0.015625)"/>
       <path d="M 2050 2947 
L 2050 1972 
L 1947 1972 
Q 1828 2431 1642 2597 
Q 1456 2763 1169 2763 
Q 950 2763 815 2647 
Q 681 2531 681 2391 
Q 681 2216 781 2091 
Q 878 1963 1175 1819 
L 1631 1597 
Q 2266 1288 2266 781 
Q 2266 391 1970 151 
Q 1675 -88 1309 -88 
Q 1047 -88 709 6 
Q 606 38 541 38 
Q 469 38 428 -44 
L 325 -44 
L 325 978 
L 428 978 
Q 516 541 762 319 
Q 1009 97 1316 97 
Q 1531 97 1667 223 
Q 1803 350 1803 528 
Q 1803 744 1651 891 
Q 1500 1038 1047 1263 
Q 594 1488 453 1669 
Q 313 1847 313 2119 
Q 313 2472 555 2709 
Q 797 2947 1181 2947 
Q 1350 2947 1591 2875 
Q 1750 2828 1803 2828 
Q 1853 2828 1881 2850 
Q 1909 2872 1947 2947 
L 2050 2947 
z
" id="TimesNewRomanPSMT-73" transform="scale(0.015625)"/>
       <path d="M 2631 1088 
Q 2516 522 2178 217 
Q 1841 -88 1431 -88 
Q 944 -88 581 321 
Q 219 731 219 1428 
Q 219 2103 620 2525 
Q 1022 2947 1584 2947 
Q 2006 2947 2278 2723 
Q 2550 2500 2550 2259 
Q 2550 2141 2473 2067 
Q 2397 1994 2259 1994 
Q 2075 1994 1981 2113 
Q 1928 2178 1911 2362 
Q 1894 2547 1784 2644 
Q 1675 2738 1481 2738 
Q 1169 2738 978 2506 
Q 725 2200 725 1697 
Q 725 1184 976 792 
Q 1228 400 1656 400 
Q 1963 400 2206 609 
Q 2378 753 2541 1131 
L 2631 1088 
z
" id="TimesNewRomanPSMT-63" transform="scale(0.015625)"/>
       <path d="M 144 4313 
L 144 4444 
Q 619 4209 934 3891 
Q 1381 3434 1625 2820 
Q 1869 2206 1869 1541 
Q 1869 572 1392 -226 
Q 916 -1025 144 -1369 
L 144 -1253 
Q 528 -1038 776 -670 
Q 1025 -303 1145 264 
Q 1266 831 1266 1447 
Q 1266 2113 1163 2663 
Q 1084 3094 967 3353 
Q 850 3613 656 3853 
Q 463 4094 144 4313 
z
" id="TimesNewRomanPSMT-29" transform="scale(0.015625)"/>
      </defs>
      <use xlink:href="#TimesNewRomanPSMT-54"/>
      <use x="57.583984" xlink:href="#TimesNewRomanPSMT-69"/>
      <use x="85.367188" xlink:href="#TimesNewRomanPSMT-6d"/>
      <use x="163.150391" xlink:href="#TimesNewRomanPSMT-65"/>
      <use x="207.535156" xlink:href="#TimesNewRomanPSMT-20"/>
      <use x="232.535156" xlink:href="#TimesNewRomanPSMT-28"/>
      <use x="265.835938" xlink:href="#TimesNewRomanPSMT-73"/>
      <use x="304.751953" xlink:href="#TimesNewRomanPSMT-65"/>
      <use x="349.136719" xlink:href="#TimesNewRomanPSMT-63"/>
      <use x="393.521484" xlink:href="#TimesNewRomanPSMT-29"/>
     </g>
    </g>
   </g>
   <g id="matplotlib.axis_2">
    <g id="ytick_1">
     <g id="line2d_13">
      <path clip-path="url(#p1508c70561)" d="M 63.336875 338.536088 
L 398.136875 338.536088 
" style="fill:none;stroke:#000000;stroke-dasharray:0.5,0.825;stroke-dashoffset:0;stroke-width:0.5;"/>
     </g>
     <g id="line2d_14">
      <defs>
       <path d="M 0 0 
L -3.5 0 
" id="m9485992265" style="stroke:#000000;stroke-width:0.8;"/>
      </defs>
      <g>
       <use style="stroke:#000000;stroke-width:0.8;" x="63.336875" xlink:href="#m9485992265" y="338.536088"/>
      </g>
     </g>
     <g id="text_8">
      <!-- −0.06 -->
      <g transform="translate(23.942188 343.396713)scale(0.14 -0.14)">
       <defs>
        <path d="M 3484 2000 
L 116 2000 
L 116 2256 
L 3484 2256 
L 3484 2000 
z
" id="TimesNewRomanPSMT-2212" transform="scale(0.015625)"/>
        <path d="M 2869 4325 
L 2869 4209 
Q 2456 4169 2195 4045 
Q 1934 3922 1679 3669 
Q 1425 3416 1258 3105 
Q 1091 2794 978 2366 
Q 1428 2675 1881 2675 
Q 2316 2675 2634 2325 
Q 2953 1975 2953 1425 
Q 2953 894 2631 456 
Q 2244 -75 1606 -75 
Q 1172 -75 869 213 
Q 275 772 275 1663 
Q 275 2231 503 2743 
Q 731 3256 1154 3653 
Q 1578 4050 1965 4187 
Q 2353 4325 2688 4325 
L 2869 4325 
z
M 925 2138 
Q 869 1716 869 1456 
Q 869 1156 980 804 
Q 1091 453 1309 247 
Q 1469 100 1697 100 
Q 1969 100 2183 356 
Q 2397 613 2397 1088 
Q 2397 1622 2184 2012 
Q 1972 2403 1581 2403 
Q 1463 2403 1327 2353 
Q 1191 2303 925 2138 
z
" id="TimesNewRomanPSMT-36" transform="scale(0.015625)"/>
       </defs>
       <use xlink:href="#TimesNewRomanPSMT-2212"/>
       <use x="56.396484" xlink:href="#TimesNewRomanPSMT-30"/>
       <use x="106.396484" xlink:href="#TimesNewRomanPSMT-2e"/>
       <use x="131.396484" xlink:href="#TimesNewRomanPSMT-30"/>
       <use x="181.396484" xlink:href="#TimesNewRomanPSMT-36"/>
      </g>
     </g>
    </g>
    <g id="ytick_2">
     <g id="line2d_15">
      <path clip-path="url(#p1508c70561)" d="M 63.336875 276.129277 
L 398.136875 276.129277 
" style="fill:none;stroke:#000000;stroke-dasharray:0.5,0.825;stroke-dashoffset:0;stroke-width:0.5;"/>
     </g>
     <g id="line2d_16">
      <g>
       <use style="stroke:#000000;stroke-width:0.8;" x="63.336875" xlink:href="#m9485992265" y="276.129277"/>
      </g>
     </g>
     <g id="text_9">
      <!-- −0.04 -->
      <g transform="translate(23.942188 280.989902)scale(0.14 -0.14)">
       <use xlink:href="#TimesNewRomanPSMT-2212"/>
       <use x="56.396484" xlink:href="#TimesNewRomanPSMT-30"/>
       <use x="106.396484" xlink:href="#TimesNewRomanPSMT-2e"/>
       <use x="131.396484" xlink:href="#TimesNewRomanPSMT-30"/>
       <use x="181.396484" xlink:href="#TimesNewRomanPSMT-34"/>
      </g>
     </g>
    </g>
    <g id="ytick_3">
     <g id="line2d_17">
      <path clip-path="url(#p1508c70561)" d="M 63.336875 213.722466 
L 398.136875 213.722466 
" style="fill:none;stroke:#000000;stroke-dasharray:0.5,0.825;stroke-dashoffset:0;stroke-width:0.5;"/>
     </g>
     <g id="line2d_18">
      <g>
       <use style="stroke:#000000;stroke-width:0.8;" x="63.336875" xlink:href="#m9485992265" y="213.722466"/>
      </g>
     </g>
     <g id="text_10">
      <!-- −0.02 -->
      <g transform="translate(23.942188 218.583091)scale(0.14 -0.14)">
       <use xlink:href="#TimesNewRomanPSMT-2212"/>
       <use x="56.396484" xlink:href="#TimesNewRomanPSMT-30"/>
       <use x="106.396484" xlink:href="#TimesNewRomanPSMT-2e"/>
       <use x="131.396484" xlink:href="#TimesNewRomanPSMT-30"/>
       <use x="181.396484" xlink:href="#TimesNewRomanPSMT-32"/>
      </g>
     </g>
    </g>
    <g id="ytick_4">
     <g id="line2d_19">
      <path clip-path="url(#p1508c70561)" d="M 63.336875 151.315655 
L 398.136875 151.315655 
" style="fill:none;stroke:#000000;stroke-dasharray:0.5,0.825;stroke-dashoffset:0;stroke-width:0.5;"/>
     </g>
     <g id="line2d_20">
      <g>
       <use style="stroke:#000000;stroke-width:0.8;" x="63.336875" xlink:href="#m9485992265" y="151.315655"/>
      </g>
     </g>
     <g id="text_11">
      <!-- 0.00 -->
      <g transform="translate(31.836875 156.17628)scale(0.14 -0.14)">
       <use xlink:href="#TimesNewRomanPSMT-30"/>
       <use x="50" xlink:href="#TimesNewRomanPSMT-2e"/>
       <use x="75" xlink:href="#TimesNewRomanPSMT-30"/>
       <use x="125" xlink:href="#TimesNewRomanPSMT-30"/>
      </g>
     </g>
    </g>
    <g id="ytick_5">
     <g id="line2d_21">
      <path clip-path="url(#p1508c70561)" d="M 63.336875 88.908844 
L 398.136875 88.908844 
" style="fill:none;stroke:#000000;stroke-dasharray:0.5,0.825;stroke-dashoffset:0;stroke-width:0.5;"/>
     </g>
     <g id="line2d_22">
      <g>
       <use style="stroke:#000000;stroke-width:0.8;" x="63.336875" xlink:href="#m9485992265" y="88.908844"/>
      </g>
     </g>
     <g id="text_12">
      <!-- 0.02 -->
      <g transform="translate(31.836875 93.769469)scale(0.14 -0.14)">
       <use xlink:href="#TimesNewRomanPSMT-30"/>
       <use x="50" xlink:href="#TimesNewRomanPSMT-2e"/>
       <use x="75" xlink:href="#TimesNewRomanPSMT-30"/>
       <use x="125" xlink:href="#TimesNewRomanPSMT-32"/>
      </g>
     </g>
    </g>
    <g id="ytick_6">
     <g id="line2d_23">
      <path clip-path="url(#p1508c70561)" d="M 63.336875 26.502033 
L 398.136875 26.502033 
" style="fill:none;stroke:#000000;stroke-dasharray:0.5,0.825;stroke-dashoffset:0;stroke-width:0.5;"/>
     </g>
     <g id="line2d_24">
      <g>
       <use style="stroke:#000000;stroke-width:0.8;" x="63.336875" xlink:href="#m9485992265" y="26.502033"/>
      </g>
     </g>
     <g id="text_13">
      <!-- 0.04 -->
      <g transform="translate(31.836875 31.362658)scale(0.14 -0.14)">
       <use xlink:href="#TimesNewRomanPSMT-30"/>
       <use x="50" xlink:href="#TimesNewRomanPSMT-2e"/>
       <use x="75" xlink:href="#TimesNewRomanPSMT-30"/>
       <use x="125" xlink:href="#TimesNewRomanPSMT-34"/>
      </g>
     </g>
    </g>
    <g id="text_14">
     <!-- Volatage (V) -->
     <g transform="translate(16.92125 209.352344)rotate(-90)scale(0.14 -0.14)">
      <defs>
       <path d="M 4544 4238 
L 4544 4122 
Q 4319 4081 4203 3978 
Q 4038 3825 3909 3509 
L 2431 -97 
L 2316 -97 
L 728 3556 
Q 606 3838 556 3900 
Q 478 3997 364 4051 
Q 250 4106 56 4122 
L 56 4238 
L 1788 4238 
L 1788 4122 
Q 1494 4094 1406 4022 
Q 1319 3950 1319 3838 
Q 1319 3681 1463 3350 
L 2541 866 
L 3541 3319 
Q 3688 3681 3688 3822 
Q 3688 3913 3597 3995 
Q 3506 4078 3291 4113 
Q 3275 4116 3238 4122 
L 3238 4238 
L 4544 4238 
z
" id="TimesNewRomanPSMT-56" transform="scale(0.015625)"/>
       <path d="M 1600 2947 
Q 2250 2947 2644 2453 
Q 2978 2031 2978 1484 
Q 2978 1100 2793 706 
Q 2609 313 2286 112 
Q 1963 -88 1566 -88 
Q 919 -88 538 428 
Q 216 863 216 1403 
Q 216 1797 411 2186 
Q 606 2575 925 2761 
Q 1244 2947 1600 2947 
z
M 1503 2744 
Q 1338 2744 1170 2645 
Q 1003 2547 900 2300 
Q 797 2053 797 1666 
Q 797 1041 1045 587 
Q 1294 134 1700 134 
Q 2003 134 2200 384 
Q 2397 634 2397 1244 
Q 2397 2006 2069 2444 
Q 1847 2744 1503 2744 
z
" id="TimesNewRomanPSMT-6f" transform="scale(0.015625)"/>
       <path d="M 1184 4444 
L 1184 647 
Q 1184 378 1223 290 
Q 1263 203 1344 158 
Q 1425 113 1647 113 
L 1647 0 
L 244 0 
L 244 113 
Q 441 113 512 153 
Q 584 194 625 287 
Q 666 381 666 647 
L 666 3247 
Q 666 3731 644 3842 
Q 622 3953 573 3993 
Q 525 4034 450 4034 
Q 369 4034 244 3984 
L 191 4094 
L 1044 4444 
L 1184 4444 
z
" id="TimesNewRomanPSMT-6c" transform="scale(0.015625)"/>
       <path d="M 1822 413 
Q 1381 72 1269 19 
Q 1100 -59 909 -59 
Q 613 -59 420 144 
Q 228 347 228 678 
Q 228 888 322 1041 
Q 450 1253 767 1440 
Q 1084 1628 1822 1897 
L 1822 2009 
Q 1822 2438 1686 2597 
Q 1550 2756 1291 2756 
Q 1094 2756 978 2650 
Q 859 2544 859 2406 
L 866 2225 
Q 866 2081 792 2003 
Q 719 1925 600 1925 
Q 484 1925 411 2006 
Q 338 2088 338 2228 
Q 338 2497 613 2722 
Q 888 2947 1384 2947 
Q 1766 2947 2009 2819 
Q 2194 2722 2281 2516 
Q 2338 2381 2338 1966 
L 2338 994 
Q 2338 584 2353 492 
Q 2369 400 2405 369 
Q 2441 338 2488 338 
Q 2538 338 2575 359 
Q 2641 400 2828 588 
L 2828 413 
Q 2478 -56 2159 -56 
Q 2006 -56 1915 50 
Q 1825 156 1822 413 
z
M 1822 616 
L 1822 1706 
Q 1350 1519 1213 1441 
Q 966 1303 859 1153 
Q 753 1003 753 825 
Q 753 600 887 451 
Q 1022 303 1197 303 
Q 1434 303 1822 616 
z
" id="TimesNewRomanPSMT-61" transform="scale(0.015625)"/>
       <path d="M 1031 3803 
L 1031 2863 
L 1700 2863 
L 1700 2644 
L 1031 2644 
L 1031 788 
Q 1031 509 1111 412 
Q 1191 316 1316 316 
Q 1419 316 1516 380 
Q 1613 444 1666 569 
L 1788 569 
Q 1678 263 1478 108 
Q 1278 -47 1066 -47 
Q 922 -47 784 33 
Q 647 113 581 261 
Q 516 409 516 719 
L 516 2644 
L 63 2644 
L 63 2747 
Q 234 2816 414 2980 
Q 594 3144 734 3369 
Q 806 3488 934 3803 
L 1031 3803 
z
" id="TimesNewRomanPSMT-74" transform="scale(0.015625)"/>
       <path d="M 966 1044 
Q 703 1172 562 1401 
Q 422 1631 422 1909 
Q 422 2334 742 2640 
Q 1063 2947 1563 2947 
Q 1972 2947 2272 2747 
L 2878 2747 
Q 3013 2747 3034 2739 
Q 3056 2731 3066 2713 
Q 3084 2684 3084 2613 
Q 3084 2531 3069 2500 
Q 3059 2484 3036 2475 
Q 3013 2466 2878 2466 
L 2506 2466 
Q 2681 2241 2681 1891 
Q 2681 1491 2375 1206 
Q 2069 922 1553 922 
Q 1341 922 1119 984 
Q 981 866 932 777 
Q 884 688 884 625 
Q 884 572 936 522 
Q 988 472 1138 450 
Q 1225 438 1575 428 
Q 2219 413 2409 384 
Q 2700 344 2873 169 
Q 3047 -6 3047 -263 
Q 3047 -616 2716 -925 
Q 2228 -1381 1444 -1381 
Q 841 -1381 425 -1109 
Q 191 -953 191 -784 
Q 191 -709 225 -634 
Q 278 -519 444 -313 
Q 466 -284 763 25 
Q 600 122 533 198 
Q 466 275 466 372 
Q 466 481 555 628 
Q 644 775 966 1044 
z
M 1509 2797 
Q 1278 2797 1122 2612 
Q 966 2428 966 2047 
Q 966 1553 1178 1281 
Q 1341 1075 1591 1075 
Q 1828 1075 1981 1253 
Q 2134 1431 2134 1813 
Q 2134 2309 1919 2591 
Q 1759 2797 1509 2797 
z
M 934 0 
Q 788 -159 713 -296 
Q 638 -434 638 -550 
Q 638 -700 819 -813 
Q 1131 -1006 1722 -1006 
Q 2284 -1006 2551 -807 
Q 2819 -609 2819 -384 
Q 2819 -222 2659 -153 
Q 2497 -84 2016 -72 
Q 1313 -53 934 0 
z
" id="TimesNewRomanPSMT-67" transform="scale(0.015625)"/>
      </defs>
      <use xlink:href="#TimesNewRomanPSMT-56"/>
      <use x="59.341797" xlink:href="#TimesNewRomanPSMT-6f"/>
      <use x="109.341797" xlink:href="#TimesNewRomanPSMT-6c"/>
      <use x="137.125" xlink:href="#TimesNewRomanPSMT-61"/>
      <use x="181.509766" xlink:href="#TimesNewRomanPSMT-74"/>
      <use x="209.292969" xlink:href="#TimesNewRomanPSMT-61"/>
      <use x="253.677734" xlink:href="#TimesNewRomanPSMT-67"/>
      <use x="303.677734" xlink:href="#TimesNewRomanPSMT-65"/>
      <use x="348.0625" xlink:href="#TimesNewRomanPSMT-20"/>
      <use x="373.0625" xlink:href="#TimesNewRomanPSMT-28"/>
      <use x="406.363281" xlink:href="#TimesNewRomanPSMT-56"/>
      <use x="478.580078" xlink:href="#TimesNewRomanPSMT-29"/>
     </g>
    </g>
   </g>
   <g id="LineCollection_1">
    <path clip-path="url(#p1508c70561)" d="M 78.555057 151.315655 
L 382.918693 151.315655 
" style="fill:none;stroke:#1f77b4;stroke-width:1.5;"/>
   </g>
   <g id="line2d_25">
    <path clip-path="url(#p1508c70561)" d="M 78.555057 151.385083 
L 78.737675 151.307074 
L 87.625093 151.346078 
L 87.65553 151.424087 
L 87.685966 151.307074 
L 87.716402 151.307074 
L 88.355566 151.385083 
L 88.477311 151.385083 
L 99.312657 151.424087 
L 99.343093 151.502095 
L 99.434402 151.463091 
L 101.778002 151.502095 
L 101.838875 151.580104 
L 101.899748 151.5411 
L 103.147639 151.580104 
L 103.178075 151.658112 
L 103.269384 151.619108 
L 108.900111 151.697117 
L 109.021857 151.697117 
L 110.604548 151.775125 
L 110.695857 151.775125 
L 110.848039 151.736121 
L 111.00022 151.814129 
L 111.152402 151.775125 
L 111.639384 151.853134 
L 111.76113 151.853134 
L 112.156802 151.931142 
L 112.278548 151.931142 
L 112.795966 152.009151 
L 112.887275 152.009151 
L 112.917711 151.931142 
L 112.978584 152.009151 
L 113.526439 152.048155 
L 113.556875 152.126164 
L 113.648184 152.087159 
L 114.01342 152.165168 
L 114.135166 152.165168 
L 114.469966 152.243176 
L 114.591711 152.243176 
L 114.77433 152.321185 
L 114.956948 152.399193 
L 115.078693 152.399193 
L 115.474366 152.477202 
L 115.656984 152.55521 
L 115.870039 152.633219 
L 115.991784 152.633219 
L 116.174402 152.672223 
L 116.296148 152.750232 
L 116.509202 152.82824 
L 116.630948 152.82824 
L 117.02662 152.906249 
L 117.209239 152.984257 
L 117.330984 152.984257 
L 117.513602 153.062266 
L 118.061457 153.140274 
L 118.183202 153.140274 
L 118.518002 153.218283 
L 118.670184 153.257287 
L 119.03542 153.335296 
L 119.187602 153.3743 
L 119.46153 153.452308 
L 119.644148 153.530317 
L 119.765893 153.608325 
L 119.918075 153.64733 
L 120.13113 153.725338 
L 120.252875 153.803347 
L 120.405057 153.842351 
L 120.557239 153.959364 
L 120.587675 153.920359 
L 120.618111 154.037372 
L 120.739857 154.076376 
L 120.861602 154.193389 
L 120.892039 154.154385 
L 120.952911 154.232393 
L 121.04422 154.310402 
L 121.409457 154.66144 
L 121.439893 154.622436 
L 121.47033 154.700445 
L 122.657348 156.377628 
L 122.900839 156.884683 
L 123.113893 157.31373 
L 124.879202 162.111253 
L 127.192366 171.394266 
L 127.648911 173.656514 
L 128.135893 175.91876 
L 128.562002 177.946982 
L 129.018548 180.13122 
L 129.718584 183.212556 
L 129.870766 183.875628 
L 130.41862 186.137876 
L 131.666511 190.506352 
L 132.336111 191.988514 
L 132.366548 191.988514 
L 132.549166 192.300548 
L 132.610039 192.378557 
L 132.944839 192.651586 
L 133.005711 192.690591 
L 133.127457 192.768599 
L 133.218766 192.690591 
L 133.249202 192.729595 
L 133.340511 192.768599 
L 133.370948 192.729595 
L 133.43182 192.690591 
L 133.553566 192.573578 
L 133.584002 192.612582 
L 133.614439 192.573578 
L 133.797057 192.378557 
L 134.953639 190.779382 
L 135.258002 190.038301 
L 135.288439 190.038301 
L 135.53193 189.336225 
L 135.897166 188.127093 
L 136.475457 185.474803 
L 138.514693 171.7063 
L 140.158257 155.987585 
L 141.80182 135.78338 
L 146.762948 67.408915 
L 148.436948 47.360727 
L 149.197857 39.832911 
L 150.324002 30.705909 
L 151.632766 24.504238 
L 151.754511 24.192201 
L 152.454548 22.671038 
L 152.545857 22.593027 
L 152.819784 22.358998 
L 152.94153 22.398009 
L 152.971966 22.32 
L 153.032839 22.358998 
L 153.215457 22.437007 
L 153.306766 22.476017 
L 153.51982 22.749047 
L 153.763311 23.217095 
L 154.980766 28.326652 
L 155.346002 30.705909 
L 156.441711 39.949918 
L 157.53742 52.275263 
L 158.480948 65.770739 
L 160.337566 98.49531 
L 161.920257 131.02486 
L 164.750839 195.108855 
L 166.059602 224.362047 
L 168.738002 277.017794 
L 169.559784 289.850198 
L 171.35553 311.49756 
L 172.26862 318.713348 
L 172.725166 321.365637 
L 173.212148 323.315847 
L 173.60782 324.056921 
L 174.186111 324.641991 
L 174.520911 324.56398 
L 175.007893 323.783895 
L 175.251384 323.276849 
L 175.860111 321.443646 
L 177.138439 314.344868 
L 178.416766 303.657704 
L 178.903748 298.39213 
L 182.06913 256.423546 
L 183.347457 235.166226 
L 184.717093 210.905575 
L 189.34342 135.666367 
L 190.743493 115.8132 
L 191.930511 100.601543 
L 193.756693 80.748377 
L 195.095893 69.710172 
L 197.348184 53.211371 
L 198.748257 46.54164 
L 198.961311 45.722554 
L 199.539602 43.928352 
L 199.904839 42.719226 
L 200.270075 41.393085 
L 200.574439 40.612996 
L 200.939675 40.027929 
L 201.183166 39.481873 
L 201.39622 39.052823 
L 201.670148 38.623776 
L 201.791893 38.545765 
L 201.913639 38.467756 
L 201.944075 38.506767 
L 202.49193 38.545765 
L 202.522366 38.623776 
L 202.552802 38.506767 
L 202.583239 38.506767 
L 202.82673 38.467756 
L 202.948475 38.389744 
L 203.16153 38.545765 
L 203.222402 38.506767 
L 203.252839 38.584775 
L 203.618075 38.896803 
L 203.648511 38.896803 
L 203.770257 39.013825 
L 203.922439 39.052823 
L 204.044184 39.130832 
L 204.196366 39.208843 
L 204.683348 39.949918 
L 204.957275 40.573986 
L 205.444257 41.549092 
L 205.626875 41.939141 
L 206.326911 43.967363 
L 206.539966 44.552417 
L 207.392184 47.009688 
L 208.09222 49.310949 
L 208.213966 49.622977 
L 208.85313 52.353275 
L 209.005311 53.01635 
L 210.10102 57.657854 
L 210.466257 59.335037 
L 211.835893 65.029655 
L 214.240366 77.862059 
L 218.166657 108.909447 
L 219.049311 116.827311 
L 220.14502 127.592485 
L 221.271166 139.332768 
L 222.701675 155.129491 
L 225.106148 184.109654 
L 230.18902 247.881614 
L 231.923893 264.575442 
L 233.689202 277.290824 
L 234.754475 282.20536 
L 235.058839 282.946438 
L 235.21102 283.258478 
L 235.424075 283.804535 
L 235.758875 284.389602 
L 235.97193 284.506611 
L 236.154548 284.311593 
L 236.184984 284.350591 
L 236.245857 284.272583 
L 237.037202 283.102458 
L 237.372002 281.971331 
L 237.828548 279.78709 
L 238.954693 273.46841 
L 239.89822 266.72067 
L 241.085239 255.097405 
L 243.00273 231.772859 
L 243.946257 220.032575 
L 245.58982 197.566123 
L 247.324693 170.497169 
L 248.542148 151.775125 
L 249.36393 139.917832 
L 250.337893 126.61738 
L 251.28142 114.79909 
L 253.107602 97.208173 
L 254.29462 88.939271 
L 254.994657 85.155858 
L 255.755566 81.801485 
L 255.938184 81.060411 
L 256.668657 78.681151 
L 257.003457 78.057077 
L 257.06433 78.018072 
L 257.338257 77.589032 
L 257.886111 77.042966 
L 258.007857 77.042966 
L 258.373093 76.964964 
L 258.677457 76.730935 
L 258.768766 76.730935 
L 258.920948 76.574921 
L 259.225311 76.49691 
L 259.347057 76.49691 
L 259.803602 76.418901 
L 259.98622 76.340889 
L 260.07753 76.379897 
L 260.107966 76.340889 
L 260.503639 76.418901 
L 260.716693 76.535914 
L 260.74713 76.49691 
L 260.808002 76.574921 
L 261.021057 76.652924 
L 261.355857 76.964964 
L 261.386293 76.92596 
L 261.41673 76.964964 
L 261.629784 77.23799 
L 261.99502 77.862059 
L 262.360257 78.525131 
L 262.573311 78.954178 
L 264.125566 83.205639 
L 266.712657 93.580774 
L 268.02142 100.835566 
L 272.221639 128.450579 
L 273.286911 135.78338 
L 273.895639 139.44978 
L 274.595675 143.272197 
L 274.71742 143.857261 
L 275.904439 149.395866 
L 276.087057 150.136946 
L 278.582839 159.341951 
L 278.674148 159.575977 
L 279.100257 160.785108 
L 280.043784 162.930342 
L 280.104657 163.008352 
L 280.439457 163.593415 
L 281.017748 164.451509 
L 281.230802 164.880556 
L 281.261239 164.880556 
L 281.474293 165.270598 
L 282.022148 165.816658 
L 282.08302 165.855663 
L 282.296075 166.128691 
L 282.630875 166.47973 
L 282.661311 166.440726 
L 282.722184 166.440726 
L 282.813493 166.557738 
L 282.84393 166.518735 
L 283.026548 166.596743 
L 283.909202 166.518735 
L 283.939639 166.440726 
L 284.030948 166.47973 
L 284.335311 166.245705 
L 284.365748 166.284709 
L 284.42662 166.206701 
L 284.791857 165.894666 
L 284.944039 165.816658 
L 285.09622 165.660641 
L 285.18753 165.582632 
L 285.85713 164.607525 
L 286.070184 164.217483 
L 286.465857 163.476403 
L 286.678911 163.08636 
L 286.922402 162.579305 
L 287.835493 160.512079 
L 288.078984 160.083032 
L 288.322475 159.575977 
L 288.596402 159.068921 
L 288.809457 158.639874 
L 289.44862 157.937798 
L 289.479057 157.976802 
L 289.509493 157.859789 
L 289.53993 157.898794 
L 290.057348 157.391738 
L 290.605202 157.430743 
L 290.757384 157.58676 
L 290.909566 157.664768 
L 291.061748 157.781781 
L 291.183493 157.859789 
L 291.670475 158.60087 
L 292.035711 159.575977 
L 292.157457 159.88801 
L 292.979239 162.228266 
L 293.344475 163.554411 
L 293.740148 164.841551 
L 294.13582 166.362718 
L 294.288002 167.02579 
L 295.23153 171.082233 
L 296.540293 177.283909 
L 296.692475 177.907977 
L 297.057711 179.546157 
L 297.544693 181.847407 
L 298.062111 183.953637 
L 298.24473 184.655714 
L 298.883893 187.386012 
L 300.192657 191.988514 
L 300.283966 192.22254 
L 300.618766 193.080633 
L 301.897093 196.083961 
L 301.92753 196.083961 
L 302.201457 196.708029 
L 302.384075 197.059067 
L 302.688439 197.800148 
L 303.023239 198.385212 
L 303.358039 198.970276 
L 304.60593 200.413434 
L 305.27553 200.491442 
L 305.427711 200.530446 
L 305.549457 200.491442 
L 305.640766 200.530446 
L 305.792948 200.413434 
L 306.888657 198.853263 
L 308.136548 195.459893 
L 308.349602 194.679808 
L 309.780111 188.829169 
L 310.054039 187.347007 
L 310.662766 184.148659 
L 311.149748 181.14533 
L 311.606293 177.985987 
L 312.336766 172.603398 
L 317.297893 135.276325 
L 317.389202 134.808273 
L 317.937057 131.453907 
L 319.458875 122.404919 
L 321.467675 112.614851 
L 321.68073 111.795762 
L 323.385166 104.853004 
L 323.750402 103.136814 
L 323.902584 102.512749 
L 324.176511 101.381622 
L 324.237384 101.225608 
L 324.785239 98.963358 
L 325.059166 97.988252 
L 325.546148 96.545101 
L 326.398366 94.555877 
L 326.428802 94.594885 
L 326.459239 94.516873 
L 326.733166 94.087833 
L 327.676693 93.034714 
L 327.768002 93.034714 
L 327.981057 92.917702 
L 328.224548 92.83969 
L 328.37673 92.722684 
L 328.407166 92.761688 
L 328.437602 92.800686 
L 328.498475 92.722684 
L 328.802839 92.800686 
L 329.107202 93.034714 
L 329.228948 93.112726 
L 329.472439 93.463758 
L 329.868111 94.126837 
L 331.998657 99.860459 
L 332.668257 102.044695 
L 332.759566 102.317731 
L 333.094366 103.448848 
L 334.129202 107.856332 
L 335.74233 115.579175 
L 336.259748 117.997439 
L 336.716293 120.220681 
L 339.059893 132.780052 
L 339.972984 137.928614 
L 342.986184 152.82824 
L 343.807966 156.416632 
L 344.44713 159.14693 
L 347.582075 170.770198 
L 347.977748 172.057338 
L 348.46473 173.500497 
L 348.525602 173.656514 
L 348.738657 174.241577 
L 348.769093 174.241577 
L 349.103893 175.099671 
L 350.04742 177.244905 
L 350.077857 177.244905 
L 350.321348 177.790965 
L 350.503966 178.142004 
L 350.747457 178.688064 
L 351.082257 179.273126 
L 351.325748 179.624164 
L 352.238839 180.67728 
L 352.330148 180.67728 
L 352.48233 180.794291 
L 352.573639 180.794291 
L 352.756257 180.911306 
L 352.878002 180.911306 
L 353.06062 180.989313 
L 353.39542 181.067323 
L 353.547602 181.106325 
L 354.247639 181.184335 
L 354.39982 181.22334 
L 354.49113 181.184335 
L 354.521566 181.22334 
L 354.73462 181.301347 
L 354.917239 181.379357 
L 354.947675 181.340352 
L 355.008548 181.418361 
L 355.465093 181.496368 
L 355.678148 181.613383 
L 355.83033 181.652385 
L 355.952075 181.7694 
L 356.012948 181.730395 
L 356.043384 181.7694 
L 356.286875 181.925417 
L 356.469493 182.003424 
L 356.712984 182.15944 
L 356.83473 182.23745 
L 356.956475 182.315457 
L 357.108657 182.393467 
L 357.352148 182.549484 
L 357.50433 182.627494 
L 357.83913 182.900522 
L 358.08262 182.978532 
L 358.234802 183.056539 
L 358.326111 183.056539 
L 358.50873 183.134549 
L 358.813093 183.212556 
L 358.965275 183.290565 
L 359.056584 183.251561 
L 359.147893 183.329571 
L 359.17833 183.290565 
L 359.330511 183.368572 
L 359.360948 183.290565 
L 359.42182 183.329571 
L 359.574002 183.368572 
L 359.908802 183.446582 
L 360.060984 183.485587 
L 360.18273 183.485587 
L 360.274039 183.524589 
L 360.304475 183.485587 
L 360.42622 183.485587 
L 360.608839 183.446582 
L 360.76102 183.329571 
L 361.034948 183.251561 
L 361.248002 183.134549 
L 361.278439 183.173551 
L 361.339311 183.095544 
L 361.43062 183.017534 
L 362.495893 181.808402 
L 362.556766 181.730395 
L 363.19593 180.75529 
L 363.408984 180.365246 
L 363.835093 179.702174 
L 364.048148 179.312131 
L 364.382948 178.727066 
L 364.717748 178.142004 
L 364.809057 178.063994 
L 366.78742 175.684735 
L 366.817857 175.72374 
L 366.87873 175.645731 
L 367.396148 175.138674 
L 367.45702 175.099671 
L 367.639639 174.865646 
L 367.670075 174.904649 
L 367.730948 174.826641 
L 367.88313 174.709628 
L 368.004875 174.631619 
L 368.187493 174.553611 
L 368.21793 174.592616 
L 368.278802 174.514607 
L 368.55273 174.280581 
L 368.583166 174.319586 
L 368.644039 174.241577 
L 368.978839 173.968547 
L 369.100584 173.929544 
L 369.252766 173.773525 
L 369.374511 173.773525 
L 369.587566 173.656514 
L 369.770184 173.578505 
L 370.196293 173.188462 
L 370.22673 173.227467 
L 370.257166 173.149459 
L 370.56153 172.915432 
L 370.652839 172.837424 
L 371.292002 172.174352 
L 371.383311 172.096343 
L 371.56593 171.901321 
L 371.657239 171.823313 
L 371.80942 171.667297 
L 371.931166 171.589288 
L 372.600766 170.887211 
L 372.692075 170.848206 
L 372.874693 170.575178 
L 372.90513 170.614181 
L 372.966002 170.536173 
L 373.026875 170.497169 
L 373.14862 170.341151 
L 373.179057 170.380156 
L 374.305202 168.780982 
L 374.700875 168.0399 
L 375.005239 167.493841 
L 376.283566 164.490513 
L 376.374875 164.256487 
L 376.892293 162.696317 
L 377.896693 159.849006 
L 378.566293 157.703772 
L 379.022839 156.299619 
L 379.357639 155.129491 
L 382.27953 143.506223 
L 382.644766 141.868044 
L 382.918693 140.658912 
L 382.918693 140.658912 
" style="fill:none;stroke:#0000ff;stroke-linecap:square;stroke-width:1.5;"/>
   </g>
   <g id="line2d_26">
    <path clip-path="url(#p1508c70561)" d="M 78.555057 151.273062 
L 94.655893 151.351071 
L 94.777639 151.370573 
L 94.960257 151.370573 
L 99.61702 151.448582 
L 99.738766 151.468084 
L 100.256184 151.565594 
L 100.651857 151.702109 
L 100.895348 151.79962 
L 101.808439 152.501697 
L 102.843275 154.00336 
L 103.665057 155.817058 
L 105.704293 162.720812 
L 106.556511 166.426216 
L 107.591348 171.165233 
L 110.239311 182.554476 
L 111.395893 185.88934 
L 112.491602 187.781047 
L 112.795966 188.093081 
L 113.00902 188.190592 
L 113.252511 188.229596 
L 114.317784 187.430009 
L 114.622148 186.864447 
L 114.987384 185.947847 
L 116.296148 181.403851 
L 117.11793 177.230395 
L 118.061457 171.165233 
L 119.826766 157.94279 
L 121.04422 147.743177 
L 125.39662 109.65552 
L 126.431457 103.122304 
L 128.622875 92.454643 
L 129.962075 88.534715 
L 130.357748 88.008158 
L 131.149093 87.169566 
L 131.270839 87.150061 
L 131.636075 87.052551 
L 131.940439 86.74052 
L 132.366548 86.13595 
L 132.731784 85.999436 
L 132.914402 86.077447 
L 133.036148 86.116451 
L 134.10142 86.213962 
L 134.405784 86.584506 
L 135.136257 86.935544 
L 135.349311 86.916039 
L 135.805857 87.306081 
L 136.20153 87.832639 
L 136.353711 87.930149 
L 136.566766 88.027657 
L 136.77982 88.125174 
L 137.11462 88.437205 
L 137.510293 89.158784 
L 137.87553 89.802354 
L 138.423384 91.05049 
L 139.245166 94.638885 
L 141.954002 109.089959 
L 142.745348 114.297027 
L 143.262766 118.275461 
L 145.545493 136.412441 
L 146.002039 140.020334 
L 147.554293 153.827841 
L 148.436948 161.765207 
L 150.141384 176.840354 
L 150.93273 183.861119 
L 151.906693 191.466949 
L 152.545857 196.244971 
L 154.067675 205.293955 
L 155.650366 210.98858 
L 156.563457 212.529248 
L 157.141748 212.782779 
L 157.29393 212.782779 
L 157.53742 212.841282 
L 157.689602 212.782779 
L 157.811348 212.743774 
L 157.993966 212.646257 
L 158.572257 211.729664 
L 160.21582 208.336293 
L 162.528984 200.554941 
L 163.685566 194.879822 
L 168.129275 169.897595 
L 169.01193 166.933271 
L 169.742402 165.3536 
L 169.864148 165.17808 
L 170.381566 164.417497 
L 170.655493 164.222476 
L 171.02073 164.319986 
L 171.781639 164.90505 
L 172.69473 166.874765 
L 174.216548 172.120838 
L 175.160075 176.138276 
L 177.04713 187.644532 
L 179.938584 207.283178 
L 182.099566 216.468675 
L 182.860475 218.984455 
L 183.31702 219.88155 
L 183.621384 220.096074 
L 184.443166 220.018065 
L 184.960584 219.198973 
L 185.508439 217.52179 
L 186.08673 214.869503 
L 186.847639 209.837957 
L 187.882475 201.081502 
L 190.317384 173.368973 
L 191.321784 158.391339 
L 195.70462 95.438469 
L 197.80473 72.445456 
L 200.48313 49.41344 
L 201.457093 43.250767 
L 202.857166 38.277724 
L 203.222402 37.634163 
L 203.709384 36.854078 
L 203.983311 36.444537 
L 204.287675 36.23001 
L 204.561602 36.308022 
L 205.261639 37.361124 
L 205.870366 39.662385 
L 207.392184 47.989794 
L 208.09222 52.163243 
L 208.944439 57.721356 
L 211.44022 76.092357 
L 213.418584 92.162108 
L 214.696911 101.893676 
L 217.740548 126.134819 
L 218.318839 130.620309 
L 220.205893 144.271798 
L 223.036475 161.726203 
L 224.193057 168.220411 
L 226.354039 180.038702 
L 227.328002 184.465685 
L 228.60633 189.711758 
L 228.910693 190.764873 
L 229.488984 192.8516 
L 229.732475 193.534175 
L 230.28033 194.918826 
L 230.828184 196.205966 
L 231.497784 197.629622 
L 231.741275 198.117175 
L 235.30233 207.5367 
L 235.850184 208.960361 
L 236.124111 209.486919 
L 237.250257 211.437129 
L 237.372002 211.612648 
L 237.706802 212.041695 
L 237.798111 212.139205 
L 238.041602 212.412235 
L 238.254657 212.646257 
L 238.345966 212.704767 
L 238.619893 212.880286 
L 238.924257 212.958298 
L 239.137311 212.919294 
L 239.289493 212.899788 
L 239.867784 212.802278 
L 240.111275 212.743774 
L 240.263457 212.763273 
L 240.506948 212.724269 
L 241.480911 212.821777 
L 241.693966 212.841282 
L 242.607057 212.899788 
L 242.759239 212.977797 
L 242.880984 212.997296 
L 243.641893 213.582363 
L 244.159311 214.342946 
L 244.58542 215.045022 
L 245.498511 217.112248 
L 245.711566 217.560797 
L 246.624657 219.608524 
L 247.568184 221.656244 
L 248.298657 223.255422 
L 248.69433 223.937993 
L 249.120439 224.523054 
L 250.063966 225.576169 
L 250.27702 225.673685 
L 250.459639 225.790695 
L 251.433602 226.297754 
L 251.920584 226.200243 
L 252.37713 225.829699 
L 252.681493 225.342146 
L 252.803239 225.147128 
L 253.016293 224.698573 
L 253.38153 223.762474 
L 254.751166 219.042959 
L 256.090366 211.612648 
L 258.038293 195.796422 
L 260.32102 169.761081 
L 261.629784 151.585097 
L 265.403893 92.903192 
L 267.564875 61.309744 
L 269.664984 38.297229 
L 270.486766 32.368589 
L 271.095493 28.858202 
L 271.643348 26.576447 
L 272.556439 24.021675 
L 272.647748 23.865654 
L 272.921675 23.573123 
L 273.317348 23.417115 
L 273.621711 23.514616 
L 273.743457 23.553627 
L 274.352184 24.509228 
L 275.204402 27.610069 
L 275.691384 29.872307 
L 276.878402 37.341631 
L 277.73062 44.108864 
L 279.343748 59.554549 
L 281.352548 81.279924 
L 283.42222 105.033516 
L 286.709348 141.678015 
L 290.635639 180.818786 
L 293.314039 202.212619 
L 294.501057 209.116375 
L 296.357675 216.936729 
L 297.301202 220.135081 
L 297.636002 220.993172 
L 298.092548 222.085291 
L 298.457784 222.728864 
L 298.792584 223.157905 
L 299.066511 223.45044 
L 299.644802 224.0355 
L 300.527457 223.937993 
L 300.770948 223.801478 
L 301.197057 223.411435 
L 301.623166 222.68986 
L 302.688439 220.427607 
L 303.723275 216.059133 
L 304.727675 209.662438 
L 309.597493 173.05694 
L 311.119311 163.988451 
L 311.606293 161.297156 
L 313.432475 151.409577 
L 315.684766 140.429879 
L 316.476111 137.387548 
L 318.91102 129.957236 
L 320.402402 126.42735 
L 320.737202 125.549754 
L 321.619857 123.560538 
L 321.92422 122.994976 
L 324.998293 116.871308 
L 326.520111 112.346814 
L 326.794039 111.586231 
L 327.37233 110.104069 
L 327.737566 109.167967 
L 331.085566 100.87956 
L 331.663857 99.982465 
L 331.907348 99.631426 
L 332.089966 99.397401 
L 332.607384 98.909848 
L 333.97702 98.149262 
L 334.372693 98.246778 
L 334.768366 98.578312 
L 335.042293 98.851338 
L 335.437966 99.377896 
L 335.833639 100.060473 
L 337.99462 104.448452 
L 338.816402 106.847214 
L 339.546875 109.538508 
L 341.646984 119.426087 
L 342.68182 125.354733 
L 343.44273 129.820722 
L 344.44713 136.685471 
L 345.329784 143.686735 
L 346.942911 157.162705 
L 352.421457 198.429209 
L 354.917239 212.17821 
L 355.708584 215.66909 
L 357.047784 219.589018 
L 357.41302 220.232589 
L 357.991311 220.817652 
L 358.234802 220.91516 
L 358.691348 221.090679 
L 359.117457 221.012677 
L 359.665311 220.135081 
L 360.000111 219.257485 
L 360.456657 217.794819 
L 360.943639 215.883614 
L 362.678511 207.614711 
L 364.930802 192.48106 
L 366.148257 183.159043 
L 369.831057 149.147331 
L 372.47902 123.111988 
L 375.005239 102.96629 
L 376.314002 95.282449 
L 377.440148 89.412311 
L 379.357639 82.450054 
L 380.696839 80.109793 
L 381.51862 79.680749 
L 381.670802 79.719756 
L 382.096911 79.817264 
L 382.340402 79.953779 
L 382.462148 80.05129 
L 382.85782 80.402328 
L 382.918693 80.480336 
L 382.918693 80.480336 
" style="fill:none;stroke:#ff0000;stroke-linecap:square;stroke-width:1.5;"/>
   </g>
   <g id="line2d_27">
    <path clip-path="url(#p1508c70561)" d="M 124.209602 160.083032 
" style="fill:none;stroke:#ffffff;stroke-linecap:square;stroke-width:1.5;"/>
    <defs>
     <path d="M 0 -5 
L -1.12257 -1.545085 
L -4.755283 -1.545085 
L -1.816356 0.59017 
L -2.938926 4.045085 
L -0 1.90983 
L 2.938926 4.045085 
L 1.816356 0.59017 
L 4.755283 -1.545085 
L 1.12257 -1.545085 
z
" id="ma70862e3c4" style="stroke:#ffffff;stroke-linejoin:bevel;"/>
    </defs>
    <g clip-path="url(#p1508c70561)">
     <use style="fill:#0000ff;stroke:#ffffff;stroke-linejoin:bevel;" x="124.209602" xlink:href="#ma70862e3c4" y="160.083032"/>
    </g>
   </g>
   <g id="line2d_28">
    <path clip-path="url(#p1508c70561)" d="M 104.365093 157.806276 
" style="fill:none;stroke:#ffffff;stroke-linecap:square;stroke-width:1.5;"/>
    <defs>
     <path d="M 0 -5 
L -1.12257 -1.545085 
L -4.755283 -1.545085 
L -1.816356 0.59017 
L -2.938926 4.045085 
L -0 1.90983 
L 2.938926 4.045085 
L 1.816356 0.59017 
L 4.755283 -1.545085 
L 1.12257 -1.545085 
z
" id="m6608e0f090" style="stroke:#ffffff;stroke-linejoin:bevel;"/>
    </defs>
    <g clip-path="url(#p1508c70561)">
     <use style="fill:#ff0000;stroke:#ffffff;stroke-linejoin:bevel;" x="104.365093" xlink:href="#m6608e0f090" y="157.806276"/>
    </g>
   </g>
   <g id="patch_3">
    <path d="M 63.336875 339.84 
L 63.336875 7.2 
" style="fill:none;stroke:#000000;stroke-linecap:square;stroke-linejoin:miter;stroke-width:0.8;"/>
   </g>
   <g id="patch_4">
    <path d="M 398.136875 339.84 
L 398.136875 7.2 
" style="fill:none;stroke:#000000;stroke-linecap:square;stroke-linejoin:miter;stroke-width:0.8;"/>
   </g>
   <g id="patch_5">
    <path d="M 63.336875 339.84 
L 398.136875 339.84 
" style="fill:none;stroke:#000000;stroke-linecap:square;stroke-linejoin:miter;stroke-width:0.8;"/>
   </g>
   <g id="patch_6">
    <path d="M 63.336875 7.2 
L 398.136875 7.2 
" style="fill:none;stroke:#000000;stroke-linecap:square;stroke-linejoin:miter;stroke-width:0.8;"/>
   </g>
   <g id="text_15">
    <g id="patch_7">
     <path d="M 75.036875 331.242688 
L 166.79375 331.242688 
L 166.79375 293.760312 
L 75.036875 293.760312 
z
" style="fill:#ffffff;stroke:#000000;stroke-linejoin:miter;stroke-width:0.75;"/>
    </g>
    <!-- Auto_00122 -->
    <g transform="translate(80.076875 308.521562)scale(0.14 -0.14)">
     <defs>
      <path d="M 2928 1419 
L 1288 1419 
L 1000 750 
Q 894 503 894 381 
Q 894 284 986 211 
Q 1078 138 1384 116 
L 1384 0 
L 50 0 
L 50 116 
Q 316 163 394 238 
Q 553 388 747 847 
L 2238 4334 
L 2347 4334 
L 3822 809 
Q 4000 384 4145 257 
Q 4291 131 4550 116 
L 4550 0 
L 2878 0 
L 2878 116 
Q 3131 128 3220 200 
Q 3309 272 3309 375 
Q 3309 513 3184 809 
L 2928 1419 
z
M 2841 1650 
L 2122 3363 
L 1384 1650 
L 2841 1650 
z
" id="TimesNewRomanPSMT-41" transform="scale(0.015625)"/>
      <path d="M 2709 2863 
L 2709 1128 
Q 2709 631 2732 520 
Q 2756 409 2807 365 
Q 2859 322 2928 322 
Q 3025 322 3147 375 
L 3191 266 
L 2334 -88 
L 2194 -88 
L 2194 519 
Q 1825 119 1631 15 
Q 1438 -88 1222 -88 
Q 981 -88 804 51 
Q 628 191 559 409 
Q 491 628 491 1028 
L 491 2306 
Q 491 2509 447 2587 
Q 403 2666 317 2708 
Q 231 2750 6 2747 
L 6 2863 
L 1009 2863 
L 1009 947 
Q 1009 547 1148 422 
Q 1288 297 1484 297 
Q 1619 297 1789 381 
Q 1959 466 2194 703 
L 2194 2325 
Q 2194 2569 2105 2655 
Q 2016 2741 1734 2747 
L 1734 2863 
L 2709 2863 
z
" id="TimesNewRomanPSMT-75" transform="scale(0.015625)"/>
      <path d="M 3256 -1381 
L -53 -1381 
L -53 -1119 
L 3256 -1119 
L 3256 -1381 
z
" id="TimesNewRomanPSMT-5f" transform="scale(0.015625)"/>
     </defs>
     <use xlink:href="#TimesNewRomanPSMT-41"/>
     <use x="72.216797" xlink:href="#TimesNewRomanPSMT-75"/>
     <use x="122.216797" xlink:href="#TimesNewRomanPSMT-74"/>
     <use x="150" xlink:href="#TimesNewRomanPSMT-6f"/>
     <use x="200" xlink:href="#TimesNewRomanPSMT-5f"/>
     <use x="250" xlink:href="#TimesNewRomanPSMT-30"/>
     <use x="300" xlink:href="#TimesNewRomanPSMT-30"/>
     <use x="350" xlink:href="#TimesNewRomanPSMT-31"/>
     <use x="400" xlink:href="#TimesNewRomanPSMT-32"/>
     <use x="450" xlink:href="#TimesNewRomanPSMT-32"/>
    </g>
    <!-- Vs: 306.57m/s -->
    <g transform="translate(80.076875 323.208)scale(0.14 -0.14)">
     <defs>
      <path d="M 903 2950 
Q 1047 2950 1148 2848 
Q 1250 2747 1250 2603 
Q 1250 2459 1148 2357 
Q 1047 2256 903 2256 
Q 759 2256 657 2357 
Q 556 2459 556 2603 
Q 556 2747 657 2848 
Q 759 2950 903 2950 
z
M 897 609 
Q 1044 609 1145 506 
Q 1247 403 1247 259 
Q 1247 116 1144 14 
Q 1041 -88 897 -88 
Q 753 -88 651 14 
Q 550 116 550 259 
Q 550 403 651 506 
Q 753 609 897 609 
z
" id="TimesNewRomanPSMT-3a" transform="scale(0.015625)"/>
      <path d="M 644 4238 
L 2916 4238 
L 2916 4119 
L 1503 -88 
L 1153 -88 
L 2419 3728 
L 1253 3728 
Q 900 3728 750 3644 
Q 488 3500 328 3200 
L 238 3234 
L 644 4238 
z
" id="TimesNewRomanPSMT-37" transform="scale(0.015625)"/>
      <path d="M 1794 4444 
L 259 -88 
L 9 -88 
L 1544 4444 
L 1794 4444 
z
" id="TimesNewRomanPSMT-2f" transform="scale(0.015625)"/>
     </defs>
     <use xlink:href="#TimesNewRomanPSMT-56"/>
     <use x="72.216797" xlink:href="#TimesNewRomanPSMT-73"/>
     <use x="111.132812" xlink:href="#TimesNewRomanPSMT-3a"/>
     <use x="138.916016" xlink:href="#TimesNewRomanPSMT-20"/>
     <use x="163.916016" xlink:href="#TimesNewRomanPSMT-33"/>
     <use x="213.916016" xlink:href="#TimesNewRomanPSMT-30"/>
     <use x="263.916016" xlink:href="#TimesNewRomanPSMT-36"/>
     <use x="313.916016" xlink:href="#TimesNewRomanPSMT-2e"/>
     <use x="338.916016" xlink:href="#TimesNewRomanPSMT-35"/>
     <use x="388.916016" xlink:href="#TimesNewRomanPSMT-37"/>
     <use x="438.916016" xlink:href="#TimesNewRomanPSMT-6d"/>
     <use x="516.699219" xlink:href="#TimesNewRomanPSMT-2f"/>
     <use x="544.482422" xlink:href="#TimesNewRomanPSMT-73"/>
    </g>
   </g>
  </g>
 </g>
 <defs>
  <clipPath id="p1508c70561">
   <rect height="332.64" width="334.8" x="63.336875" y="7.2"/>
  </clipPath>
 </defs>
</svg>
