<?xml version="1.0" encoding="utf-8" standalone="no"?>
<!DOCTYPE svg PUBLIC "-//W3C//DTD SVG 1.1//EN"
  "http://www.w3.org/Graphics/SVG/1.1/DTD/svg11.dtd">
<svg height="383.471875pt" version="1.1" viewBox="0 0 421.086875 383.471875" width="421.086875pt" xmlns="http://www.w3.org/2000/svg" xmlns:xlink="http://www.w3.org/1999/xlink">
 <metadata>
  <rdf:RDF xmlns:cc="http://creativecommons.org/ns#" xmlns:dc="http://purl.org/dc/elements/1.1/" xmlns:rdf="http://www.w3.org/1999/02/22-rdf-syntax-ns#">
   <cc:Work>
    <dc:type rdf:resource="http://purl.org/dc/dcmitype/StillImage"/>
    <dc:date>2021-06-11T14:39:38.622755</dc:date>
    <dc:format>image/svg+xml</dc:format>
    <dc:creator>
     <cc:Agent>
      <dc:title>Matplotlib v3.4.2, https://matplotlib.org/</dc:title>
     </cc:Agent>
    </dc:creator>
   </cc:Work>
  </rdf:RDF>
 </metadata>
 <defs>
  <style type="text/css">*{stroke-linecap:butt;stroke-linejoin:round;}</style>
 </defs>
 <g id="figure_1">
  <g id="patch_1">
   <path d="M 0 383.471875 
L 421.086875 383.471875 
L 421.086875 0 
L 0 0 
z
" style="fill:#ffffff;"/>
  </g>
  <g id="axes_1">
   <g id="patch_2">
    <path d="M 63.336875 339.84 
L 398.136875 339.84 
L 398.136875 7.2 
L 63.336875 7.2 
z
" style="fill:#ffffff;"/>
   </g>
   <g id="matplotlib.axis_1">
    <g id="xtick_1">
     <g id="line2d_1">
      <path clip-path="url(#p76e75c6021)" d="M 93.773239 339.84 
L 93.773239 7.2 
" style="fill:none;stroke:#000000;stroke-dasharray:0.5,0.825;stroke-dashoffset:0;stroke-width:0.5;"/>
     </g>
     <g id="line2d_2">
      <defs>
       <path d="M 0 0 
L 0 3.5 
" id="m931d8e6008" style="stroke:#000000;stroke-width:0.8;"/>
      </defs>
      <g>
       <use style="stroke:#000000;stroke-width:0.8;" x="93.773239" xlink:href="#m931d8e6008" y="339.84"/>
      </g>
     </g>
     <g id="text_1">
      <!-- 0.000 -->
      <g transform="translate(78.023239 356.56125)scale(0.14 -0.14)">
       <defs>
        <path d="M 231 2094 
Q 231 2819 450 3342 
Q 669 3866 1031 4122 
Q 1313 4325 1613 4325 
Q 2100 4325 2488 3828 
Q 2972 3213 2972 2159 
Q 2972 1422 2759 906 
Q 2547 391 2217 158 
Q 1888 -75 1581 -75 
Q 975 -75 572 641 
Q 231 1244 231 2094 
z
M 844 2016 
Q 844 1141 1059 588 
Q 1238 122 1591 122 
Q 1759 122 1940 273 
Q 2122 425 2216 781 
Q 2359 1319 2359 2297 
Q 2359 3022 2209 3506 
Q 2097 3866 1919 4016 
Q 1791 4119 1609 4119 
Q 1397 4119 1231 3928 
Q 1006 3669 925 3112 
Q 844 2556 844 2016 
z
" id="TimesNewRomanPSMT-30" transform="scale(0.015625)"/>
        <path d="M 800 606 
Q 947 606 1047 504 
Q 1147 403 1147 259 
Q 1147 116 1045 14 
Q 944 -88 800 -88 
Q 656 -88 554 14 
Q 453 116 453 259 
Q 453 406 554 506 
Q 656 606 800 606 
z
" id="TimesNewRomanPSMT-2e" transform="scale(0.015625)"/>
       </defs>
       <use xlink:href="#TimesNewRomanPSMT-30"/>
       <use x="50" xlink:href="#TimesNewRomanPSMT-2e"/>
       <use x="75" xlink:href="#TimesNewRomanPSMT-30"/>
       <use x="125" xlink:href="#TimesNewRomanPSMT-30"/>
       <use x="175" xlink:href="#TimesNewRomanPSMT-30"/>
      </g>
     </g>
    </g>
    <g id="xtick_2">
     <g id="line2d_3">
      <path clip-path="url(#p76e75c6021)" d="M 154.645966 339.84 
L 154.645966 7.2 
" style="fill:none;stroke:#000000;stroke-dasharray:0.5,0.825;stroke-dashoffset:0;stroke-width:0.5;"/>
     </g>
     <g id="line2d_4">
      <g>
       <use style="stroke:#000000;stroke-width:0.8;" x="154.645966" xlink:href="#m931d8e6008" y="339.84"/>
      </g>
     </g>
     <g id="text_2">
      <!-- 0.001 -->
      <g transform="translate(138.895966 356.56125)scale(0.14 -0.14)">
       <defs>
        <path d="M 750 3822 
L 1781 4325 
L 1884 4325 
L 1884 747 
Q 1884 391 1914 303 
Q 1944 216 2037 169 
Q 2131 122 2419 116 
L 2419 0 
L 825 0 
L 825 116 
Q 1125 122 1212 167 
Q 1300 213 1334 289 
Q 1369 366 1369 747 
L 1369 3034 
Q 1369 3497 1338 3628 
Q 1316 3728 1258 3775 
Q 1200 3822 1119 3822 
Q 1003 3822 797 3725 
L 750 3822 
z
" id="TimesNewRomanPSMT-31" transform="scale(0.015625)"/>
       </defs>
       <use xlink:href="#TimesNewRomanPSMT-30"/>
       <use x="50" xlink:href="#TimesNewRomanPSMT-2e"/>
       <use x="75" xlink:href="#TimesNewRomanPSMT-30"/>
       <use x="125" xlink:href="#TimesNewRomanPSMT-30"/>
       <use x="175" xlink:href="#TimesNewRomanPSMT-31"/>
      </g>
     </g>
    </g>
    <g id="xtick_3">
     <g id="line2d_5">
      <path clip-path="url(#p76e75c6021)" d="M 215.518693 339.84 
L 215.518693 7.2 
" style="fill:none;stroke:#000000;stroke-dasharray:0.5,0.825;stroke-dashoffset:0;stroke-width:0.5;"/>
     </g>
     <g id="line2d_6">
      <g>
       <use style="stroke:#000000;stroke-width:0.8;" x="215.518693" xlink:href="#m931d8e6008" y="339.84"/>
      </g>
     </g>
     <g id="text_3">
      <!-- 0.002 -->
      <g transform="translate(199.768693 356.56125)scale(0.14 -0.14)">
       <defs>
        <path d="M 2934 816 
L 2638 0 
L 138 0 
L 138 116 
Q 1241 1122 1691 1759 
Q 2141 2397 2141 2925 
Q 2141 3328 1894 3587 
Q 1647 3847 1303 3847 
Q 991 3847 742 3664 
Q 494 3481 375 3128 
L 259 3128 
Q 338 3706 661 4015 
Q 984 4325 1469 4325 
Q 1984 4325 2329 3994 
Q 2675 3663 2675 3213 
Q 2675 2891 2525 2569 
Q 2294 2063 1775 1497 
Q 997 647 803 472 
L 1909 472 
Q 2247 472 2383 497 
Q 2519 522 2628 598 
Q 2738 675 2819 816 
L 2934 816 
z
" id="TimesNewRomanPSMT-32" transform="scale(0.015625)"/>
       </defs>
       <use xlink:href="#TimesNewRomanPSMT-30"/>
       <use x="50" xlink:href="#TimesNewRomanPSMT-2e"/>
       <use x="75" xlink:href="#TimesNewRomanPSMT-30"/>
       <use x="125" xlink:href="#TimesNewRomanPSMT-30"/>
       <use x="175" xlink:href="#TimesNewRomanPSMT-32"/>
      </g>
     </g>
    </g>
    <g id="xtick_4">
     <g id="line2d_7">
      <path clip-path="url(#p76e75c6021)" d="M 276.39142 339.84 
L 276.39142 7.2 
" style="fill:none;stroke:#000000;stroke-dasharray:0.5,0.825;stroke-dashoffset:0;stroke-width:0.5;"/>
     </g>
     <g id="line2d_8">
      <g>
       <use style="stroke:#000000;stroke-width:0.8;" x="276.39142" xlink:href="#m931d8e6008" y="339.84"/>
      </g>
     </g>
     <g id="text_4">
      <!-- 0.003 -->
      <g transform="translate(260.64142 356.56125)scale(0.14 -0.14)">
       <defs>
        <path d="M 325 3431 
Q 506 3859 782 4092 
Q 1059 4325 1472 4325 
Q 1981 4325 2253 3994 
Q 2459 3747 2459 3466 
Q 2459 3003 1878 2509 
Q 2269 2356 2469 2072 
Q 2669 1788 2669 1403 
Q 2669 853 2319 450 
Q 1863 -75 997 -75 
Q 569 -75 414 31 
Q 259 138 259 259 
Q 259 350 332 419 
Q 406 488 509 488 
Q 588 488 669 463 
Q 722 447 909 348 
Q 1097 250 1169 231 
Q 1284 197 1416 197 
Q 1734 197 1970 444 
Q 2206 691 2206 1028 
Q 2206 1275 2097 1509 
Q 2016 1684 1919 1775 
Q 1784 1900 1550 2001 
Q 1316 2103 1072 2103 
L 972 2103 
L 972 2197 
Q 1219 2228 1467 2375 
Q 1716 2522 1828 2728 
Q 1941 2934 1941 3181 
Q 1941 3503 1739 3701 
Q 1538 3900 1238 3900 
Q 753 3900 428 3381 
L 325 3431 
z
" id="TimesNewRomanPSMT-33" transform="scale(0.015625)"/>
       </defs>
       <use xlink:href="#TimesNewRomanPSMT-30"/>
       <use x="50" xlink:href="#TimesNewRomanPSMT-2e"/>
       <use x="75" xlink:href="#TimesNewRomanPSMT-30"/>
       <use x="125" xlink:href="#TimesNewRomanPSMT-30"/>
       <use x="175" xlink:href="#TimesNewRomanPSMT-33"/>
      </g>
     </g>
    </g>
    <g id="xtick_5">
     <g id="line2d_9">
      <path clip-path="url(#p76e75c6021)" d="M 337.264148 339.84 
L 337.264148 7.2 
" style="fill:none;stroke:#000000;stroke-dasharray:0.5,0.825;stroke-dashoffset:0;stroke-width:0.5;"/>
     </g>
     <g id="line2d_10">
      <g>
       <use style="stroke:#000000;stroke-width:0.8;" x="337.264148" xlink:href="#m931d8e6008" y="339.84"/>
      </g>
     </g>
     <g id="text_5">
      <!-- 0.004 -->
      <g transform="translate(321.514148 356.56125)scale(0.14 -0.14)">
       <defs>
        <path d="M 2978 1563 
L 2978 1119 
L 2409 1119 
L 2409 0 
L 1894 0 
L 1894 1119 
L 100 1119 
L 100 1519 
L 2066 4325 
L 2409 4325 
L 2409 1563 
L 2978 1563 
z
M 1894 1563 
L 1894 3666 
L 406 1563 
L 1894 1563 
z
" id="TimesNewRomanPSMT-34" transform="scale(0.015625)"/>
       </defs>
       <use xlink:href="#TimesNewRomanPSMT-30"/>
       <use x="50" xlink:href="#TimesNewRomanPSMT-2e"/>
       <use x="75" xlink:href="#TimesNewRomanPSMT-30"/>
       <use x="125" xlink:href="#TimesNewRomanPSMT-30"/>
       <use x="175" xlink:href="#TimesNewRomanPSMT-34"/>
      </g>
     </g>
    </g>
    <g id="xtick_6">
     <g id="line2d_11">
      <path clip-path="url(#p76e75c6021)" d="M 398.136875 339.84 
L 398.136875 7.2 
" style="fill:none;stroke:#000000;stroke-dasharray:0.5,0.825;stroke-dashoffset:0;stroke-width:0.5;"/>
     </g>
     <g id="line2d_12">
      <g>
       <use style="stroke:#000000;stroke-width:0.8;" x="398.136875" xlink:href="#m931d8e6008" y="339.84"/>
      </g>
     </g>
     <g id="text_6">
      <!-- 0.005 -->
      <g transform="translate(382.386875 356.56125)scale(0.14 -0.14)">
       <defs>
        <path d="M 2778 4238 
L 2534 3706 
L 1259 3706 
L 981 3138 
Q 1809 3016 2294 2522 
Q 2709 2097 2709 1522 
Q 2709 1188 2573 903 
Q 2438 619 2231 419 
Q 2025 219 1772 97 
Q 1413 -75 1034 -75 
Q 653 -75 479 54 
Q 306 184 306 341 
Q 306 428 378 495 
Q 450 563 559 563 
Q 641 563 702 538 
Q 763 513 909 409 
Q 1144 247 1384 247 
Q 1750 247 2026 523 
Q 2303 800 2303 1197 
Q 2303 1581 2056 1914 
Q 1809 2247 1375 2428 
Q 1034 2569 447 2591 
L 1259 4238 
L 2778 4238 
z
" id="TimesNewRomanPSMT-35" transform="scale(0.015625)"/>
       </defs>
       <use xlink:href="#TimesNewRomanPSMT-30"/>
       <use x="50" xlink:href="#TimesNewRomanPSMT-2e"/>
       <use x="75" xlink:href="#TimesNewRomanPSMT-30"/>
       <use x="125" xlink:href="#TimesNewRomanPSMT-30"/>
       <use x="175" xlink:href="#TimesNewRomanPSMT-35"/>
      </g>
     </g>
    </g>
    <g id="text_7">
     <!-- Time (sec) -->
     <g transform="translate(200.858906 373.277188)scale(0.14 -0.14)">
      <defs>
       <path d="M 3703 4238 
L 3750 3244 
L 3631 3244 
Q 3597 3506 3538 3619 
Q 3441 3800 3280 3886 
Q 3119 3972 2856 3972 
L 2259 3972 
L 2259 734 
Q 2259 344 2344 247 
Q 2463 116 2709 116 
L 2856 116 
L 2856 0 
L 1059 0 
L 1059 116 
L 1209 116 
Q 1478 116 1591 278 
Q 1659 378 1659 734 
L 1659 3972 
L 1150 3972 
Q 853 3972 728 3928 
Q 566 3869 450 3700 
Q 334 3531 313 3244 
L 194 3244 
L 244 4238 
L 3703 4238 
z
" id="TimesNewRomanPSMT-54" transform="scale(0.015625)"/>
       <path d="M 928 4444 
Q 1059 4444 1151 4351 
Q 1244 4259 1244 4128 
Q 1244 3997 1151 3903 
Q 1059 3809 928 3809 
Q 797 3809 703 3903 
Q 609 3997 609 4128 
Q 609 4259 701 4351 
Q 794 4444 928 4444 
z
M 1188 2947 
L 1188 647 
Q 1188 378 1227 289 
Q 1266 200 1342 156 
Q 1419 113 1622 113 
L 1622 0 
L 231 0 
L 231 113 
Q 441 113 512 153 
Q 584 194 626 287 
Q 669 381 669 647 
L 669 1750 
Q 669 2216 641 2353 
Q 619 2453 572 2492 
Q 525 2531 444 2531 
Q 356 2531 231 2484 
L 188 2597 
L 1050 2947 
L 1188 2947 
z
" id="TimesNewRomanPSMT-69" transform="scale(0.015625)"/>
       <path d="M 1050 2338 
Q 1363 2650 1419 2697 
Q 1559 2816 1721 2881 
Q 1884 2947 2044 2947 
Q 2313 2947 2506 2790 
Q 2700 2634 2766 2338 
Q 3088 2713 3309 2830 
Q 3531 2947 3766 2947 
Q 3994 2947 4170 2830 
Q 4347 2713 4450 2447 
Q 4519 2266 4519 1878 
L 4519 647 
Q 4519 378 4559 278 
Q 4591 209 4675 161 
Q 4759 113 4950 113 
L 4950 0 
L 3538 0 
L 3538 113 
L 3597 113 
Q 3781 113 3884 184 
Q 3956 234 3988 344 
Q 4000 397 4000 647 
L 4000 1878 
Q 4000 2228 3916 2372 
Q 3794 2572 3525 2572 
Q 3359 2572 3192 2489 
Q 3025 2406 2788 2181 
L 2781 2147 
L 2788 2013 
L 2788 647 
Q 2788 353 2820 281 
Q 2853 209 2943 161 
Q 3034 113 3253 113 
L 3253 0 
L 1806 0 
L 1806 113 
Q 2044 113 2133 169 
Q 2222 225 2256 338 
Q 2272 391 2272 647 
L 2272 1878 
Q 2272 2228 2169 2381 
Q 2031 2581 1784 2581 
Q 1616 2581 1450 2491 
Q 1191 2353 1050 2181 
L 1050 647 
Q 1050 366 1089 281 
Q 1128 197 1204 155 
Q 1281 113 1516 113 
L 1516 0 
L 100 0 
L 100 113 
Q 297 113 375 155 
Q 453 197 493 289 
Q 534 381 534 647 
L 534 1741 
Q 534 2213 506 2350 
Q 484 2453 437 2492 
Q 391 2531 309 2531 
Q 222 2531 100 2484 
L 53 2597 
L 916 2947 
L 1050 2947 
L 1050 2338 
z
" id="TimesNewRomanPSMT-6d" transform="scale(0.015625)"/>
       <path d="M 681 1784 
Q 678 1147 991 784 
Q 1303 422 1725 422 
Q 2006 422 2214 576 
Q 2422 731 2563 1106 
L 2659 1044 
Q 2594 616 2278 264 
Q 1963 -88 1488 -88 
Q 972 -88 605 314 
Q 238 716 238 1394 
Q 238 2128 614 2539 
Q 991 2950 1559 2950 
Q 2041 2950 2350 2633 
Q 2659 2316 2659 1784 
L 681 1784 
z
M 681 1966 
L 2006 1966 
Q 1991 2241 1941 2353 
Q 1863 2528 1708 2628 
Q 1553 2728 1384 2728 
Q 1125 2728 920 2526 
Q 716 2325 681 1966 
z
" id="TimesNewRomanPSMT-65" transform="scale(0.015625)"/>
       <path id="TimesNewRomanPSMT-20" transform="scale(0.015625)"/>
       <path d="M 1988 -1253 
L 1988 -1369 
Q 1516 -1131 1200 -813 
Q 750 -359 506 256 
Q 263 872 263 1534 
Q 263 2503 741 3301 
Q 1219 4100 1988 4444 
L 1988 4313 
Q 1603 4100 1356 3731 
Q 1109 3363 987 2797 
Q 866 2231 866 1616 
Q 866 947 969 400 
Q 1050 -31 1165 -292 
Q 1281 -553 1476 -793 
Q 1672 -1034 1988 -1253 
z
" id="TimesNewRomanPSMT-28" transform="scale(0.015625)"/>
       <path d="M 2050 2947 
L 2050 1972 
L 1947 1972 
Q 1828 2431 1642 2597 
Q 1456 2763 1169 2763 
Q 950 2763 815 2647 
Q 681 2531 681 2391 
Q 681 2216 781 2091 
Q 878 1963 1175 1819 
L 1631 1597 
Q 2266 1288 2266 781 
Q 2266 391 1970 151 
Q 1675 -88 1309 -88 
Q 1047 -88 709 6 
Q 606 38 541 38 
Q 469 38 428 -44 
L 325 -44 
L 325 978 
L 428 978 
Q 516 541 762 319 
Q 1009 97 1316 97 
Q 1531 97 1667 223 
Q 1803 350 1803 528 
Q 1803 744 1651 891 
Q 1500 1038 1047 1263 
Q 594 1488 453 1669 
Q 313 1847 313 2119 
Q 313 2472 555 2709 
Q 797 2947 1181 2947 
Q 1350 2947 1591 2875 
Q 1750 2828 1803 2828 
Q 1853 2828 1881 2850 
Q 1909 2872 1947 2947 
L 2050 2947 
z
" id="TimesNewRomanPSMT-73" transform="scale(0.015625)"/>
       <path d="M 2631 1088 
Q 2516 522 2178 217 
Q 1841 -88 1431 -88 
Q 944 -88 581 321 
Q 219 731 219 1428 
Q 219 2103 620 2525 
Q 1022 2947 1584 2947 
Q 2006 2947 2278 2723 
Q 2550 2500 2550 2259 
Q 2550 2141 2473 2067 
Q 2397 1994 2259 1994 
Q 2075 1994 1981 2113 
Q 1928 2178 1911 2362 
Q 1894 2547 1784 2644 
Q 1675 2738 1481 2738 
Q 1169 2738 978 2506 
Q 725 2200 725 1697 
Q 725 1184 976 792 
Q 1228 400 1656 400 
Q 1963 400 2206 609 
Q 2378 753 2541 1131 
L 2631 1088 
z
" id="TimesNewRomanPSMT-63" transform="scale(0.015625)"/>
       <path d="M 144 4313 
L 144 4444 
Q 619 4209 934 3891 
Q 1381 3434 1625 2820 
Q 1869 2206 1869 1541 
Q 1869 572 1392 -226 
Q 916 -1025 144 -1369 
L 144 -1253 
Q 528 -1038 776 -670 
Q 1025 -303 1145 264 
Q 1266 831 1266 1447 
Q 1266 2113 1163 2663 
Q 1084 3094 967 3353 
Q 850 3613 656 3853 
Q 463 4094 144 4313 
z
" id="TimesNewRomanPSMT-29" transform="scale(0.015625)"/>
      </defs>
      <use xlink:href="#TimesNewRomanPSMT-54"/>
      <use x="57.583984" xlink:href="#TimesNewRomanPSMT-69"/>
      <use x="85.367188" xlink:href="#TimesNewRomanPSMT-6d"/>
      <use x="163.150391" xlink:href="#TimesNewRomanPSMT-65"/>
      <use x="207.535156" xlink:href="#TimesNewRomanPSMT-20"/>
      <use x="232.535156" xlink:href="#TimesNewRomanPSMT-28"/>
      <use x="265.835938" xlink:href="#TimesNewRomanPSMT-73"/>
      <use x="304.751953" xlink:href="#TimesNewRomanPSMT-65"/>
      <use x="349.136719" xlink:href="#TimesNewRomanPSMT-63"/>
      <use x="393.521484" xlink:href="#TimesNewRomanPSMT-29"/>
     </g>
    </g>
   </g>
   <g id="matplotlib.axis_2">
    <g id="ytick_1">
     <g id="line2d_13">
      <path clip-path="url(#p76e75c6021)" d="M 63.336875 281.350339 
L 398.136875 281.350339 
" style="fill:none;stroke:#000000;stroke-dasharray:0.5,0.825;stroke-dashoffset:0;stroke-width:0.5;"/>
     </g>
     <g id="line2d_14">
      <defs>
       <path d="M 0 0 
L -3.5 0 
" id="mb299e641a1" style="stroke:#000000;stroke-width:0.8;"/>
      </defs>
      <g>
       <use style="stroke:#000000;stroke-width:0.8;" x="63.336875" xlink:href="#mb299e641a1" y="281.350339"/>
      </g>
     </g>
     <g id="text_8">
      <!-- −0.04 -->
      <g transform="translate(23.942188 286.210964)scale(0.14 -0.14)">
       <defs>
        <path d="M 3484 2000 
L 116 2000 
L 116 2256 
L 3484 2256 
L 3484 2000 
z
" id="TimesNewRomanPSMT-2212" transform="scale(0.015625)"/>
       </defs>
       <use xlink:href="#TimesNewRomanPSMT-2212"/>
       <use x="56.396484" xlink:href="#TimesNewRomanPSMT-30"/>
       <use x="106.396484" xlink:href="#TimesNewRomanPSMT-2e"/>
       <use x="131.396484" xlink:href="#TimesNewRomanPSMT-30"/>
       <use x="181.396484" xlink:href="#TimesNewRomanPSMT-34"/>
      </g>
     </g>
    </g>
    <g id="ytick_2">
     <g id="line2d_15">
      <path clip-path="url(#p76e75c6021)" d="M 63.336875 217.197595 
L 398.136875 217.197595 
" style="fill:none;stroke:#000000;stroke-dasharray:0.5,0.825;stroke-dashoffset:0;stroke-width:0.5;"/>
     </g>
     <g id="line2d_16">
      <g>
       <use style="stroke:#000000;stroke-width:0.8;" x="63.336875" xlink:href="#mb299e641a1" y="217.197595"/>
      </g>
     </g>
     <g id="text_9">
      <!-- −0.02 -->
      <g transform="translate(23.942188 222.05822)scale(0.14 -0.14)">
       <use xlink:href="#TimesNewRomanPSMT-2212"/>
       <use x="56.396484" xlink:href="#TimesNewRomanPSMT-30"/>
       <use x="106.396484" xlink:href="#TimesNewRomanPSMT-2e"/>
       <use x="131.396484" xlink:href="#TimesNewRomanPSMT-30"/>
       <use x="181.396484" xlink:href="#TimesNewRomanPSMT-32"/>
      </g>
     </g>
    </g>
    <g id="ytick_3">
     <g id="line2d_17">
      <path clip-path="url(#p76e75c6021)" d="M 63.336875 153.044851 
L 398.136875 153.044851 
" style="fill:none;stroke:#000000;stroke-dasharray:0.5,0.825;stroke-dashoffset:0;stroke-width:0.5;"/>
     </g>
     <g id="line2d_18">
      <g>
       <use style="stroke:#000000;stroke-width:0.8;" x="63.336875" xlink:href="#mb299e641a1" y="153.044851"/>
      </g>
     </g>
     <g id="text_10">
      <!-- 0.00 -->
      <g transform="translate(31.836875 157.905476)scale(0.14 -0.14)">
       <use xlink:href="#TimesNewRomanPSMT-30"/>
       <use x="50" xlink:href="#TimesNewRomanPSMT-2e"/>
       <use x="75" xlink:href="#TimesNewRomanPSMT-30"/>
       <use x="125" xlink:href="#TimesNewRomanPSMT-30"/>
      </g>
     </g>
    </g>
    <g id="ytick_4">
     <g id="line2d_19">
      <path clip-path="url(#p76e75c6021)" d="M 63.336875 88.892108 
L 398.136875 88.892108 
" style="fill:none;stroke:#000000;stroke-dasharray:0.5,0.825;stroke-dashoffset:0;stroke-width:0.5;"/>
     </g>
     <g id="line2d_20">
      <g>
       <use style="stroke:#000000;stroke-width:0.8;" x="63.336875" xlink:href="#mb299e641a1" y="88.892108"/>
      </g>
     </g>
     <g id="text_11">
      <!-- 0.02 -->
      <g transform="translate(31.836875 93.752733)scale(0.14 -0.14)">
       <use xlink:href="#TimesNewRomanPSMT-30"/>
       <use x="50" xlink:href="#TimesNewRomanPSMT-2e"/>
       <use x="75" xlink:href="#TimesNewRomanPSMT-30"/>
       <use x="125" xlink:href="#TimesNewRomanPSMT-32"/>
      </g>
     </g>
    </g>
    <g id="ytick_5">
     <g id="line2d_21">
      <path clip-path="url(#p76e75c6021)" d="M 63.336875 24.739364 
L 398.136875 24.739364 
" style="fill:none;stroke:#000000;stroke-dasharray:0.5,0.825;stroke-dashoffset:0;stroke-width:0.5;"/>
     </g>
     <g id="line2d_22">
      <g>
       <use style="stroke:#000000;stroke-width:0.8;" x="63.336875" xlink:href="#mb299e641a1" y="24.739364"/>
      </g>
     </g>
     <g id="text_12">
      <!-- 0.04 -->
      <g transform="translate(31.836875 29.599989)scale(0.14 -0.14)">
       <use xlink:href="#TimesNewRomanPSMT-30"/>
       <use x="50" xlink:href="#TimesNewRomanPSMT-2e"/>
       <use x="75" xlink:href="#TimesNewRomanPSMT-30"/>
       <use x="125" xlink:href="#TimesNewRomanPSMT-34"/>
      </g>
     </g>
    </g>
    <g id="text_13">
     <!-- Volatage (V) -->
     <g transform="translate(16.92125 209.352344)rotate(-90)scale(0.14 -0.14)">
      <defs>
       <path d="M 4544 4238 
L 4544 4122 
Q 4319 4081 4203 3978 
Q 4038 3825 3909 3509 
L 2431 -97 
L 2316 -97 
L 728 3556 
Q 606 3838 556 3900 
Q 478 3997 364 4051 
Q 250 4106 56 4122 
L 56 4238 
L 1788 4238 
L 1788 4122 
Q 1494 4094 1406 4022 
Q 1319 3950 1319 3838 
Q 1319 3681 1463 3350 
L 2541 866 
L 3541 3319 
Q 3688 3681 3688 3822 
Q 3688 3913 3597 3995 
Q 3506 4078 3291 4113 
Q 3275 4116 3238 4122 
L 3238 4238 
L 4544 4238 
z
" id="TimesNewRomanPSMT-56" transform="scale(0.015625)"/>
       <path d="M 1600 2947 
Q 2250 2947 2644 2453 
Q 2978 2031 2978 1484 
Q 2978 1100 2793 706 
Q 2609 313 2286 112 
Q 1963 -88 1566 -88 
Q 919 -88 538 428 
Q 216 863 216 1403 
Q 216 1797 411 2186 
Q 606 2575 925 2761 
Q 1244 2947 1600 2947 
z
M 1503 2744 
Q 1338 2744 1170 2645 
Q 1003 2547 900 2300 
Q 797 2053 797 1666 
Q 797 1041 1045 587 
Q 1294 134 1700 134 
Q 2003 134 2200 384 
Q 2397 634 2397 1244 
Q 2397 2006 2069 2444 
Q 1847 2744 1503 2744 
z
" id="TimesNewRomanPSMT-6f" transform="scale(0.015625)"/>
       <path d="M 1184 4444 
L 1184 647 
Q 1184 378 1223 290 
Q 1263 203 1344 158 
Q 1425 113 1647 113 
L 1647 0 
L 244 0 
L 244 113 
Q 441 113 512 153 
Q 584 194 625 287 
Q 666 381 666 647 
L 666 3247 
Q 666 3731 644 3842 
Q 622 3953 573 3993 
Q 525 4034 450 4034 
Q 369 4034 244 3984 
L 191 4094 
L 1044 4444 
L 1184 4444 
z
" id="TimesNewRomanPSMT-6c" transform="scale(0.015625)"/>
       <path d="M 1822 413 
Q 1381 72 1269 19 
Q 1100 -59 909 -59 
Q 613 -59 420 144 
Q 228 347 228 678 
Q 228 888 322 1041 
Q 450 1253 767 1440 
Q 1084 1628 1822 1897 
L 1822 2009 
Q 1822 2438 1686 2597 
Q 1550 2756 1291 2756 
Q 1094 2756 978 2650 
Q 859 2544 859 2406 
L 866 2225 
Q 866 2081 792 2003 
Q 719 1925 600 1925 
Q 484 1925 411 2006 
Q 338 2088 338 2228 
Q 338 2497 613 2722 
Q 888 2947 1384 2947 
Q 1766 2947 2009 2819 
Q 2194 2722 2281 2516 
Q 2338 2381 2338 1966 
L 2338 994 
Q 2338 584 2353 492 
Q 2369 400 2405 369 
Q 2441 338 2488 338 
Q 2538 338 2575 359 
Q 2641 400 2828 588 
L 2828 413 
Q 2478 -56 2159 -56 
Q 2006 -56 1915 50 
Q 1825 156 1822 413 
z
M 1822 616 
L 1822 1706 
Q 1350 1519 1213 1441 
Q 966 1303 859 1153 
Q 753 1003 753 825 
Q 753 600 887 451 
Q 1022 303 1197 303 
Q 1434 303 1822 616 
z
" id="TimesNewRomanPSMT-61" transform="scale(0.015625)"/>
       <path d="M 1031 3803 
L 1031 2863 
L 1700 2863 
L 1700 2644 
L 1031 2644 
L 1031 788 
Q 1031 509 1111 412 
Q 1191 316 1316 316 
Q 1419 316 1516 380 
Q 1613 444 1666 569 
L 1788 569 
Q 1678 263 1478 108 
Q 1278 -47 1066 -47 
Q 922 -47 784 33 
Q 647 113 581 261 
Q 516 409 516 719 
L 516 2644 
L 63 2644 
L 63 2747 
Q 234 2816 414 2980 
Q 594 3144 734 3369 
Q 806 3488 934 3803 
L 1031 3803 
z
" id="TimesNewRomanPSMT-74" transform="scale(0.015625)"/>
       <path d="M 966 1044 
Q 703 1172 562 1401 
Q 422 1631 422 1909 
Q 422 2334 742 2640 
Q 1063 2947 1563 2947 
Q 1972 2947 2272 2747 
L 2878 2747 
Q 3013 2747 3034 2739 
Q 3056 2731 3066 2713 
Q 3084 2684 3084 2613 
Q 3084 2531 3069 2500 
Q 3059 2484 3036 2475 
Q 3013 2466 2878 2466 
L 2506 2466 
Q 2681 2241 2681 1891 
Q 2681 1491 2375 1206 
Q 2069 922 1553 922 
Q 1341 922 1119 984 
Q 981 866 932 777 
Q 884 688 884 625 
Q 884 572 936 522 
Q 988 472 1138 450 
Q 1225 438 1575 428 
Q 2219 413 2409 384 
Q 2700 344 2873 169 
Q 3047 -6 3047 -263 
Q 3047 -616 2716 -925 
Q 2228 -1381 1444 -1381 
Q 841 -1381 425 -1109 
Q 191 -953 191 -784 
Q 191 -709 225 -634 
Q 278 -519 444 -313 
Q 466 -284 763 25 
Q 600 122 533 198 
Q 466 275 466 372 
Q 466 481 555 628 
Q 644 775 966 1044 
z
M 1509 2797 
Q 1278 2797 1122 2612 
Q 966 2428 966 2047 
Q 966 1553 1178 1281 
Q 1341 1075 1591 1075 
Q 1828 1075 1981 1253 
Q 2134 1431 2134 1813 
Q 2134 2309 1919 2591 
Q 1759 2797 1509 2797 
z
M 934 0 
Q 788 -159 713 -296 
Q 638 -434 638 -550 
Q 638 -700 819 -813 
Q 1131 -1006 1722 -1006 
Q 2284 -1006 2551 -807 
Q 2819 -609 2819 -384 
Q 2819 -222 2659 -153 
Q 2497 -84 2016 -72 
Q 1313 -53 934 0 
z
" id="TimesNewRomanPSMT-67" transform="scale(0.015625)"/>
      </defs>
      <use xlink:href="#TimesNewRomanPSMT-56"/>
      <use x="59.341797" xlink:href="#TimesNewRomanPSMT-6f"/>
      <use x="109.341797" xlink:href="#TimesNewRomanPSMT-6c"/>
      <use x="137.125" xlink:href="#TimesNewRomanPSMT-61"/>
      <use x="181.509766" xlink:href="#TimesNewRomanPSMT-74"/>
      <use x="209.292969" xlink:href="#TimesNewRomanPSMT-61"/>
      <use x="253.677734" xlink:href="#TimesNewRomanPSMT-67"/>
      <use x="303.677734" xlink:href="#TimesNewRomanPSMT-65"/>
      <use x="348.0625" xlink:href="#TimesNewRomanPSMT-20"/>
      <use x="373.0625" xlink:href="#TimesNewRomanPSMT-28"/>
      <use x="406.363281" xlink:href="#TimesNewRomanPSMT-56"/>
      <use x="478.580078" xlink:href="#TimesNewRomanPSMT-29"/>
     </g>
    </g>
   </g>
   <g id="LineCollection_1">
    <path clip-path="url(#p76e75c6021)" d="M 78.555057 153.044851 
L 382.918693 153.044851 
" style="fill:none;stroke:#1f77b4;stroke-width:1.5;"/>
   </g>
   <g id="line2d_23">
    <path clip-path="url(#p76e75c6021)" d="M 78.555057 153.11141 
L 78.676802 153.11141 
L 79.985566 153.071314 
L 80.016002 152.991124 
L 80.076875 153.031219 
L 80.19862 153.031219 
L 90.638293 153.071314 
L 90.66873 153.151505 
L 90.760039 153.11141 
L 90.91222 153.071314 
L 93.803675 153.151505 
L 93.894984 153.151505 
L 94.01673 153.151505 
L 100.04313 153.071314 
L 100.073566 153.031219 
L 100.134439 153.11141 
L 100.986657 153.071314 
L 101.017093 152.991124 
L 101.077966 153.071314 
L 110.148002 153.151505 
L 110.269748 153.151505 
L 111.152402 153.231696 
L 111.274148 153.271792 
L 111.395893 153.231696 
L 111.517639 153.271792 
L 111.639384 153.231696 
L 111.791566 153.271792 
L 112.126366 153.311887 
L 112.156802 153.392078 
L 112.217675 153.311887 
L 112.613348 153.351983 
L 112.643784 153.432174 
L 112.704657 153.392078 
L 112.735093 153.351983 
L 112.795966 153.432174 
L 113.374257 153.432174 
L 113.465566 153.55246 
L 113.496002 153.512365 
L 113.617748 153.55246 
L 113.67862 153.512365 
L 113.709057 153.55246 
L 113.891675 153.672746 
L 113.982984 153.592555 
L 114.01342 153.632651 
L 114.10473 153.632651 
L 114.256911 153.672746 
L 114.652584 153.752937 
L 114.77433 153.793033 
L 114.865639 153.793033 
L 115.048257 153.873224 
L 115.44393 153.953415 
L 115.596111 153.99351 
L 115.991784 154.073701 
L 116.204839 154.193987 
L 116.509202 154.234083 
L 116.539639 154.314274 
L 116.600511 154.274178 
L 116.722257 154.274178 
L 116.996184 154.354369 
L 117.148366 154.43456 
L 117.270111 154.43456 
L 117.544039 154.474656 
L 117.574475 154.554847 
L 117.665784 154.514751 
L 118.061457 154.594942 
L 118.244075 154.675133 
L 118.335384 154.635038 
L 118.36582 154.675133 
L 118.518002 154.715229 
L 118.822366 154.795419 
L 119.03542 154.915706 
L 119.157166 154.915706 
L 119.339784 155.035992 
L 119.37022 154.955801 
L 119.46153 154.995897 
L 119.735457 155.196374 
L 119.887639 155.276565 
L 120.100693 155.396851 
L 120.13113 155.356756 
L 120.192002 155.436947 
L 120.46593 155.637424 
L 120.618111 155.717615 
L 121.105093 156.198761 
L 121.196402 156.278952 
L 122.018184 157.481816 
L 122.231239 157.922866 
L 122.444293 158.32382 
L 122.71822 158.965348 
L 122.870402 159.326207 
L 124.118293 162.894703 
L 124.940075 165.741481 
L 125.000948 165.941959 
L 125.457493 167.78635 
L 126.461893 172.156756 
L 126.888002 174.281815 
L 126.948875 174.522389 
L 127.435857 176.888021 
L 128.683748 182.902339 
L 130.205566 189.317615 
L 130.449057 190.23981 
L 130.540366 190.480383 
L 131.08822 192.204488 
L 132.09262 194.570121 
L 132.549166 195.011171 
L 133.218766 194.93098 
L 133.401384 194.690407 
L 133.462257 194.610216 
L 133.76662 194.088975 
L 134.010111 193.567734 
L 135.44062 189.518092 
L 136.11022 186.510933 
L 136.627639 183.303295 
L 137.571166 176.36678 
L 139.945202 153.55246 
L 143.171457 109.60783 
L 144.601966 88.718096 
L 146.702075 59.889454 
L 147.676039 48.462243 
L 149.92833 28.614991 
L 150.902293 24.044105 
L 151.450148 22.881346 
L 151.876257 22.440293 
L 151.998002 22.440293 
L 152.211057 22.32 
L 152.241493 22.400191 
L 152.332802 22.360102 
L 153.215457 23.683246 
L 154.250293 28.173941 
L 155.254693 35.511408 
L 156.989566 54.917613 
L 158.602693 79.856999 
L 160.55062 117.827401 
L 162.589857 163.135276 
L 167.064002 260.928118 
L 169.285857 297.13432 
L 169.864148 303.910454 
L 170.68593 312.450785 
L 171.842511 320.750549 
L 172.299057 322.635036 
L 173.181711 324.679898 
L 173.425202 324.599717 
L 174.36873 323.196372 
L 174.764402 321.873216 
L 175.37313 319.226918 
L 175.799239 317.101865 
L 176.164475 314.656042 
L 177.838475 300.542438 
L 180.608184 266.4212 
L 181.703893 250.54339 
L 182.951784 230.856517 
L 184.41273 206.037424 
L 185.99542 180.817376 
L 187.821602 153.672746 
L 191.808766 102.591124 
L 192.995784 89.720483 
L 193.543639 84.508066 
L 193.939311 81.099955 
L 196.952511 58.125253 
L 197.104693 57.162962 
L 197.682984 53.434081 
L 198.291711 50.787783 
L 198.443893 50.146256 
L 199.05262 47.499958 
L 199.661348 45.535277 
L 199.965711 44.492789 
L 200.239639 43.370122 
L 201.06142 41.485632 
L 201.091857 41.485632 
L 201.39622 40.683723 
L 201.457093 40.643631 
L 201.73102 40.202581 
L 201.913639 40.082297 
L 202.035384 40.162492 
L 202.06582 40.12239 
L 202.674548 40.042196 
L 202.82673 39.962005 
L 202.948475 39.962005 
L 203.07022 39.921912 
L 203.222402 40.082297 
L 203.374584 40.162492 
L 203.709384 40.443157 
L 204.07462 40.523351 
L 204.257239 40.603529 
L 204.348548 40.683723 
L 204.774657 41.405441 
L 205.17033 42.167262 
L 205.626875 42.929072 
L 205.931239 43.730982 
L 205.992111 43.851265 
L 206.17473 44.412611 
L 208.031348 49.504732 
L 208.274839 50.386835 
L 208.487893 51.188732 
L 209.127057 53.995414 
L 210.131457 58.405918 
L 210.801057 61.413082 
L 210.983675 62.1348 
L 213.266402 74.724776 
L 215.88393 96.296136 
L 220.601566 147.177281 
L 222.853857 175.163915 
L 226.688839 224.240768 
L 229.671602 258.402101 
L 230.28033 264.055558 
L 230.645566 267.142919 
L 231.376039 272.034565 
L 233.29353 281.617382 
L 233.96313 283.100907 
L 234.145748 283.461767 
L 234.328366 283.782524 
L 234.389239 283.822626 
L 234.480548 283.90282 
L 234.510984 283.862718 
L 234.845784 283.782524 
L 235.058839 283.501859 
L 235.850184 282.298998 
L 237.067639 277.046492 
L 237.493748 274.23981 
L 238.132911 269.348163 
L 239.472111 257.88086 
L 240.385202 248.498521 
L 242.66793 220.151027 
L 246.168111 172.677997 
L 247.142075 157.88277 
L 248.663893 135.549596 
L 249.546548 123.841721 
L 250.27702 114.820241 
L 251.524911 101.227878 
L 253.685893 84.989215 
L 254.659857 80.418332 
L 255.846875 76.128117 
L 255.96862 75.847449 
L 256.212111 75.125731 
L 256.486039 74.484203 
L 257.094766 73.842679 
L 257.246948 73.762485 
L 257.460002 73.642198 
L 257.581748 73.642198 
L 258.007857 73.722389 
L 258.160039 73.80258 
L 258.190475 73.762485 
L 258.220911 73.842679 
L 258.342657 73.922863 
L 258.373093 73.882774 
L 258.586148 73.962959 
L 258.677457 74.003058 
L 258.707893 73.882774 
L 258.799202 73.962959 
L 259.164439 74.043153 
L 259.499239 74.323818 
L 259.620984 74.404012 
L 259.834039 74.524299 
L 259.864475 74.484203 
L 259.925348 74.564397 
L 260.107966 74.644582 
L 261.386293 76.448878 
L 261.66022 77.090405 
L 262.512439 79.576324 
L 262.877675 80.979665 
L 263.121166 81.861769 
L 263.729893 84.508066 
L 264.33862 87.354844 
L 266.10393 97.17824 
L 266.68222 100.907115 
L 267.077893 103.513323 
L 269.02582 118.067974 
L 269.299748 120.072747 
L 270.486766 128.613081 
L 272.891239 146.736231 
L 274.230439 154.87561 
L 274.565239 156.639811 
L 275.417457 160.609262 
L 275.47833 160.849834 
L 277.213202 167.265109 
L 277.669748 168.748641 
L 278.217602 170.472747 
L 279.40462 173.319524 
L 279.952475 174.201624 
L 280.226402 174.722865 
L 280.256839 174.68277 
L 280.317711 174.762961 
L 280.926439 175.404489 
L 280.987311 175.48468 
L 281.717784 176.286589 
L 281.930839 176.36678 
L 282.143893 176.487065 
L 282.326511 176.567258 
L 282.539566 176.687543 
L 282.570002 176.647449 
L 282.630875 176.727639 
L 283.17873 176.647449 
L 283.391784 176.487065 
L 283.42222 176.527161 
L 283.483093 176.446971 
L 283.696148 176.36678 
L 283.84833 176.326684 
L 283.970075 176.246493 
L 284.609239 175.56487 
L 284.730984 175.48468 
L 284.883166 175.324298 
L 284.944039 175.244107 
L 285.948439 173.80067 
L 286.19193 173.279429 
L 286.283239 173.199238 
L 286.52673 172.677997 
L 286.831093 172.11666 
L 287.348511 171.034082 
L 287.53113 170.673223 
L 287.744184 170.232173 
L 288.383348 169.229787 
L 288.657275 168.788737 
L 288.718148 168.708546 
L 289.296439 168.107113 
L 289.661675 168.026923 
L 289.87473 167.906637 
L 290.179093 167.866541 
L 290.20953 167.78635 
L 290.300839 167.826446 
L 290.909566 168.467972 
L 291.000875 168.548163 
L 291.640039 169.550551 
L 293.100984 173.600192 
L 293.344475 174.522389 
L 294.13582 176.888021 
L 294.440184 178.010693 
L 294.531493 178.291362 
L 295.14022 180.256039 
L 295.505457 181.498998 
L 296.14462 183.583965 
L 297.757748 187.553414 
L 297.788184 187.553414 
L 297.970802 187.834083 
L 298.518657 188.716183 
L 298.853457 189.317615 
L 299.218693 189.638379 
L 299.462184 189.718569 
L 299.949166 190.199715 
L 300.010039 190.279906 
L 300.223093 190.400192 
L 300.770948 190.320001 
L 300.892693 190.279906 
L 301.044875 190.320001 
L 301.684039 190.23981 
L 301.866657 190.039333 
L 302.201457 189.718569 
L 302.323202 189.718569 
L 302.59713 189.678474 
L 302.658002 189.598283 
L 302.718875 189.638379 
L 303.084111 189.317615 
L 303.205857 189.237424 
L 303.631966 188.836469 
L 303.753711 188.756278 
L 304.727675 187.312842 
L 305.336402 185.949595 
L 305.366839 185.949595 
L 305.61033 185.388258 
L 305.640766 185.388258 
L 306.18862 183.664154 
L 306.249493 183.463676 
L 308.410475 174.522389 
L 308.927893 171.835992 
L 310.723639 161.812126 
L 312.458511 149.703295 
L 312.945493 146.134799 
L 313.371602 143.328116 
L 316.293493 124.763917 
L 316.65873 122.879428 
L 317.450075 119.270838 
L 320.037166 109.487544 
L 321.985093 104.635993 
L 322.198148 104.194946 
L 322.441639 103.673702 
L 322.837311 103.032174 
L 323.050366 102.63122 
L 323.293857 102.150071 
L 323.902584 100.826924 
L 324.572184 99.784442 
L 324.846111 99.343388 
L 325.241784 98.94244 
L 325.333093 98.94244 
L 325.454839 98.862246 
L 325.485275 98.902345 
L 326.03313 98.94244 
L 326.154875 99.022624 
L 326.246184 99.062723 
L 326.428802 99.263204 
L 327.37233 100.666545 
L 327.585384 101.0675 
L 329.168075 105.477998 
L 329.685493 107.643153 
L 330.233348 110.169167 
L 330.537711 111.772986 
L 330.872511 113.497091 
L 331.420366 116.424059 
L 331.785602 118.268451 
L 332.363893 121.395897 
L 332.698693 123.079906 
L 333.003057 124.643628 
L 334.372693 132.382054 
L 334.829239 135.148642 
L 335.103166 136.67227 
L 335.711893 139.960097 
L 339.546875 159.606875 
L 340.216475 162.694226 
L 340.642584 164.378235 
L 340.825202 165.019763 
L 341.038257 165.901863 
L 342.286148 170.392556 
L 342.68182 171.67561 
L 342.955748 172.55771 
L 343.077493 172.878474 
L 344.416693 176.126207 
L 344.751493 176.727639 
L 345.02542 177.208784 
L 345.086293 177.288975 
L 346.69942 179.534321 
L 346.882039 179.855086 
L 348.312548 181.57919 
L 348.46473 181.619286 
L 348.586475 181.699476 
L 349.012584 181.779668 
L 349.195202 181.859857 
L 349.316948 181.859857 
L 349.621311 181.94005 
L 349.71262 181.94005 
L 349.80393 181.899954 
L 349.834366 181.980146 
L 349.925675 181.94005 
L 350.016984 181.899954 
L 350.04742 181.94005 
L 350.990948 181.980146 
L 351.021384 182.060335 
L 351.082257 182.020239 
L 351.234439 181.94005 
L 351.325748 181.94005 
L 351.538802 181.819764 
L 351.690984 181.779668 
L 351.81273 181.65938 
L 351.934475 181.619286 
L 352.086657 181.498998 
L 352.634511 180.937664 
L 352.664948 180.937664 
L 352.847566 180.656994 
L 352.938875 180.576805 
L 353.669348 179.774894 
L 353.760657 179.694704 
L 353.912839 179.454131 
L 354.034584 179.37394 
L 354.582439 178.812603 
L 354.704184 178.732412 
L 355.038984 178.451743 
L 355.16073 178.371553 
L 355.40422 178.211171 
L 355.525966 178.13098 
L 355.73902 178.010693 
L 355.952075 177.930503 
L 356.16513 177.810216 
L 356.286875 177.850312 
L 356.49993 177.68993 
L 356.621675 177.730025 
L 356.804293 177.649834 
L 357.07822 177.569643 
L 357.230402 177.529549 
L 357.352148 177.529549 
L 358.021748 177.449358 
L 358.234802 177.329071 
L 358.447857 177.24888 
L 358.660911 177.088499 
L 358.75222 177.128593 
L 358.782657 177.088499 
L 358.995711 177.048403 
L 359.147893 176.928115 
L 359.17833 176.968212 
L 359.208766 176.928115 
L 359.330511 176.847925 
L 359.452257 176.80783 
L 359.574002 176.687543 
L 359.695748 176.607352 
L 359.908802 176.487065 
L 360.060984 176.527161 
L 360.304475 176.36678 
L 360.395784 176.326684 
L 360.547966 176.166302 
L 360.608839 176.086111 
L 361.217566 175.404489 
L 361.248002 175.444584 
L 361.308875 175.364393 
L 361.917602 174.442198 
L 362.069784 174.121433 
L 362.10022 174.161529 
L 362.404584 173.640288 
L 362.800257 172.958664 
L 363.348111 171.795897 
L 363.622039 171.274656 
L 364.017711 170.472747 
L 364.048148 170.472747 
L 364.291639 169.951506 
L 364.596002 169.309978 
L 364.626439 169.350073 
L 365.20473 168.467972 
L 365.387348 168.187305 
L 366.756984 166.503295 
L 366.78742 166.54339 
L 366.848293 166.4632 
L 367.152657 166.182531 
L 367.183093 166.222627 
L 367.243966 166.142436 
L 367.79182 165.5811 
L 367.913566 165.500909 
L 368.065748 165.380623 
L 368.096184 165.420718 
L 368.12662 165.460813 
L 368.187493 165.380623 
L 368.339675 165.300431 
L 368.370111 165.340527 
L 368.430984 165.260335 
L 368.522293 165.22024 
L 368.704911 165.019763 
L 368.826657 164.939572 
L 368.978839 164.77919 
L 369.009275 164.819285 
L 369.039711 164.739095 
L 369.283202 164.578713 
L 369.404948 164.618808 
L 369.709311 164.378235 
L 369.831057 164.33814 
L 370.013675 164.097568 
L 370.13542 164.017377 
L 370.531093 163.616422 
L 370.56153 163.656518 
L 370.622402 163.576327 
L 371.931166 162.012603 
L 371.961602 162.052699 
L 371.992039 161.932413 
L 372.083348 161.852222 
L 373.90953 159.286112 
L 374.305202 158.524298 
L 374.640002 157.922866 
L 375.948766 154.755324 
L 376.070511 154.474656 
L 376.374875 153.672746 
L 376.49662 153.351983 
L 377.014039 151.748164 
L 379.296766 145.453176 
L 379.570693 144.571076 
L 380.088111 142.967258 
L 380.453348 141.724297 
L 381.214257 139.158187 
L 381.336002 138.837424 
L 382.127348 136.151029 
L 382.553457 134.747686 
L 382.918693 133.584919 
L 382.918693 133.584919 
" style="fill:none;stroke:#0000ff;stroke-linecap:square;stroke-width:1.5;"/>
   </g>
   <g id="line2d_24">
    <path clip-path="url(#p76e75c6021)" d="M 78.555057 153.085027 
L 78.737675 153.105075 
L 78.95073 153.085027 
L 86.31633 153.004836 
L 86.468511 152.984788 
L 91.429639 153.085027 
L 91.58182 153.085027 
L 91.794875 153.044932 
L 91.947057 153.105075 
L 92.099239 153.064979 
L 92.220984 153.064979 
L 99.738766 153.165218 
L 99.982257 153.205313 
L 100.37793 153.305552 
L 101.838875 154.38813 
L 102.660657 155.651137 
L 103.63462 157.816292 
L 105.552111 164.492187 
L 110.269748 185.722735 
L 111.274148 188.669752 
L 112.248111 190.393857 
L 112.308984 190.454 
L 112.643784 190.895051 
L 112.795966 190.995289 
L 113.10033 191.07548 
L 114.196039 190.253523 
L 114.896075 188.669752 
L 115.474366 186.805313 
L 115.809166 185.662594 
L 116.78313 180.670707 
L 117.970148 172.972378 
L 120.983348 148.293619 
L 123.022584 129.248274 
L 125.122693 110.88455 
L 125.82273 106.213429 
L 126.705384 101.101254 
L 127.983711 94.926555 
L 129.201166 90.536102 
L 130.17513 88.832044 
L 130.540366 88.471185 
L 130.905602 88.170473 
L 131.118657 88.130377 
L 131.301275 88.190517 
L 131.605639 88.270708 
L 131.84913 88.170473 
L 132.336111 87.709368 
L 132.457857 87.669273 
L 132.610039 87.689324 
L 133.492693 88.150422 
L 133.827493 88.250657 
L 134.19273 88.591472 
L 134.679711 89.31319 
L 135.166693 89.533718 
L 135.318875 89.533718 
L 135.714548 89.914622 
L 136.627639 90.957104 
L 136.810257 91.05734 
L 137.084184 91.358059 
L 137.388548 91.919392 
L 137.936402 93.062119 
L 138.179893 93.563309 
L 138.636439 95.026794 
L 140.310439 103.266412 
L 140.766984 105.772378 
L 142.014875 112.869276 
L 142.593166 116.558059 
L 143.414948 122.692663 
L 145.941166 141.778106 
L 146.976002 150.037772 
L 148.710875 165.013428 
L 152.789348 196.388129 
L 153.580693 200.918917 
L 154.737275 205.730369 
L 155.559057 208.096005 
L 155.711239 208.296482 
L 155.985166 208.737532 
L 156.776511 209.61963 
L 156.928693 209.63968 
L 157.720039 209.539445 
L 158.176584 209.138487 
L 159.241857 207.274051 
L 159.759275 206.411999 
L 160.581057 204.567604 
L 161.007166 203.54517 
L 161.707202 201.400062 
L 163.624693 194.70412 
L 164.32473 191.51653 
L 165.23782 187.286459 
L 165.876984 184.319394 
L 167.398802 177.823929 
L 167.91622 176.180016 
L 169.042366 174.195289 
L 169.377166 173.934669 
L 169.620657 173.894574 
L 170.25982 173.994811 
L 170.716366 174.395767 
L 171.720766 176.621066 
L 172.968657 181.111756 
L 173.760002 184.660205 
L 174.581784 188.890277 
L 174.94702 190.754716 
L 175.525311 194.383356 
L 178.477639 214.531327 
L 179.116802 218.701256 
L 179.786402 222.410086 
L 180.97342 226.660205 
L 182.221311 229.707464 
L 182.31262 229.807703 
L 183.043093 230.609605 
L 183.469202 230.228702 
L 184.169239 228.604835 
L 184.65622 227.021065 
L 185.41713 223.011515 
L 185.964984 219.10221 
L 186.299784 216.255432 
L 187.699857 201.319871 
L 190.01302 169.464025 
L 195.217639 85.524169 
L 196.252475 73.33515 
L 197.409057 61.607221 
L 198.900439 49.759011 
L 200.544002 39.634912 
L 201.213602 36.647794 
L 201.913639 35.104125 
L 202.40062 34.382406 
L 202.857166 34.20197 
L 204.07462 35.124163 
L 204.40942 35.745652 
L 205.41382 39.434438 
L 205.961675 42.862594 
L 207.42262 53.527991 
L 210.009711 73.074527 
L 212.353311 92.220111 
L 213.753384 103.166173 
L 215.336075 114.793858 
L 216.88833 126.822498 
L 217.923166 134.741352 
L 218.836257 141.47739 
L 221.179857 157.65591 
L 222.275566 164.812951 
L 223.371275 171.308416 
L 224.284366 176.66116 
L 225.075711 181.632997 
L 227.419311 193.401017 
L 228.362839 197.230134 
L 229.94553 202.121781 
L 230.036839 202.282163 
L 230.493384 203.184311 
L 231.376039 204.687887 
L 231.984766 205.670229 
L 234.63273 211.14326 
L 235.454511 213.047795 
L 235.54582 213.208177 
L 236.30673 214.511283 
L 236.367602 214.571423 
L 236.702402 215.012476 
L 236.88502 215.253046 
L 238.102475 216.676431 
L 238.954693 217.117485 
L 239.532984 217.017246 
L 239.837348 216.937055 
L 241.359166 217.037291 
L 241.693966 217.137536 
L 242.089639 217.237771 
L 242.454875 217.358061 
L 242.698366 217.458299 
L 242.972293 217.638729 
L 243.094039 217.678824 
L 244.58542 219.823929 
L 245.650693 222.169513 
L 246.107239 223.071661 
L 246.35073 223.532759 
L 246.624657 224.074048 
L 247.324693 225.23682 
L 247.507311 225.477389 
L 247.872548 225.978582 
L 248.055166 226.219152 
L 248.511711 226.660205 
L 248.663893 226.740396 
L 248.816075 226.780492 
L 249.911784 226.680256 
L 250.520511 226.058773 
L 250.61182 225.958538 
L 250.885748 225.657819 
L 251.737966 224.354716 
L 252.62062 221.728463 
L 253.04673 219.964263 
L 253.95982 215.253046 
L 255.207711 207.233956 
L 256.607784 195.305552 
L 258.464402 175.899347 
L 260.260148 153.345648 
L 266.469166 68.984786 
L 267.656184 56.194339 
L 268.569275 48.275485 
L 269.78673 40.256385 
L 270.304148 38.09123 
L 271.095493 35.845884 
L 271.46073 35.364742 
L 271.765093 35.144217 
L 272.160766 35.003883 
L 272.495566 35.084074 
L 273.256475 36.266896 
L 274.230439 39.133719 
L 274.686984 41.359017 
L 276.117493 50.50078 
L 277.365384 60.324169 
L 279.40462 80.131329 
L 281.139493 98.314622 
L 282.448257 112.348035 
L 286.618039 155.129896 
L 290.361711 188.629657 
L 291.853093 199.555671 
L 293.435784 209.298866 
L 294.531493 213.829653 
L 296.175057 217.859254 
L 296.418548 218.340396 
L 296.81422 219.142306 
L 296.875093 219.202446 
L 297.209893 219.643499 
L 298.305602 220.244928 
L 299.82742 219.122261 
L 301.227493 216.135143 
L 302.992802 209.960444 
L 303.631966 206.492183 
L 306.18862 187.166172 
L 307.071275 180.550422 
L 309.901857 160.823452 
L 311.454111 153.225361 
L 312.062839 150.378583 
L 312.97593 146.689801 
L 314.497748 140.254479 
L 315.076039 137.788608 
L 315.806511 135.342783 
L 316.384802 133.51844 
L 316.90222 131.914621 
L 317.99793 128.727031 
L 318.606657 127.103165 
L 320.158911 123.294097 
L 320.34153 122.893141 
L 322.715566 116.938965 
L 324.876548 112.428226 
L 327.250584 106.474049 
L 328.894148 103.466892 
L 330.263784 101.843023 
L 331.268184 101.301734 
L 331.96822 101.401973 
L 332.820439 102.083596 
L 333.094366 102.384312 
L 333.337857 102.644935 
L 333.672657 103.065935 
L 333.824839 103.266412 
L 334.890111 105.611997 
L 338.025057 116.317486 
L 340.125166 126.521783 
L 340.946948 131.433476 
L 344.751493 157.174765 
L 346.942911 175.037295 
L 347.947311 182.374764 
L 349.103893 190.63443 
L 350.230039 198.032043 
L 351.72142 206.472139 
L 352.48233 210.341348 
L 353.638911 215.172855 
L 354.217202 216.977151 
L 354.704184 218.460683 
L 355.708584 220.826315 
L 356.621675 221.888848 
L 356.865166 221.84875 
L 357.047784 221.748514 
L 357.717384 221.187174 
L 358.143493 220.445408 
L 358.600039 219.54326 
L 359.08702 218.360447 
L 359.695748 215.994808 
L 360.487093 211.824883 
L 361.826293 203.224406 
L 363.135057 193.882163 
L 370.013675 134.039681 
L 371.748548 118.001495 
L 373.209493 107.336102 
L 374.366075 99.717963 
L 375.735711 93.042068 
L 378.17062 85.383835 
L 378.688039 84.601976 
L 379.144584 84.180967 
L 379.540257 84.040636 
L 379.753311 84.060687 
L 380.17942 84.140872 
L 380.422911 84.281212 
L 381.031639 84.80245 
L 381.762111 85.945168 
L 382.583893 87.809613 
L 382.918693 88.711755 
L 382.918693 88.711755 
" style="fill:none;stroke:#ff0000;stroke-linecap:square;stroke-width:1.5;"/>
   </g>
   <g id="line2d_25">
    <path clip-path="url(#p76e75c6021)" d="M 123.753057 161.731935 
" style="fill:none;stroke:#ffffff;stroke-linecap:square;stroke-width:1.5;"/>
    <defs>
     <path d="M 0 -5 
L -1.12257 -1.545085 
L -4.755283 -1.545085 
L -1.816356 0.59017 
L -2.938926 4.045085 
L -0 1.90983 
L 2.938926 4.045085 
L 1.816356 0.59017 
L 4.755283 -1.545085 
L 1.12257 -1.545085 
z
" id="mf60fae3f6b" style="stroke:#ffffff;stroke-linejoin:bevel;"/>
    </defs>
    <g clip-path="url(#p76e75c6021)">
     <use style="fill:#0000ff;stroke:#ffffff;stroke-linejoin:bevel;" x="123.753057" xlink:href="#mf60fae3f6b" y="161.731935"/>
    </g>
   </g>
   <g id="line2d_26">
    <path clip-path="url(#p76e75c6021)" d="M 104.06073 159.059251 
" style="fill:none;stroke:#ffffff;stroke-linecap:square;stroke-width:1.5;"/>
    <defs>
     <path d="M 0 -5 
L -1.12257 -1.545085 
L -4.755283 -1.545085 
L -1.816356 0.59017 
L -2.938926 4.045085 
L -0 1.90983 
L 2.938926 4.045085 
L 1.816356 0.59017 
L 4.755283 -1.545085 
L 1.12257 -1.545085 
z
" id="m4bdb10e742" style="stroke:#ffffff;stroke-linejoin:bevel;"/>
    </defs>
    <g clip-path="url(#p76e75c6021)">
     <use style="fill:#ff0000;stroke:#ffffff;stroke-linejoin:bevel;" x="104.06073" xlink:href="#m4bdb10e742" y="159.059251"/>
    </g>
   </g>
   <g id="patch_3">
    <path d="M 63.336875 339.84 
L 63.336875 7.2 
" style="fill:none;stroke:#000000;stroke-linecap:square;stroke-linejoin:miter;stroke-width:0.8;"/>
   </g>
   <g id="patch_4">
    <path d="M 398.136875 339.84 
L 398.136875 7.2 
" style="fill:none;stroke:#000000;stroke-linecap:square;stroke-linejoin:miter;stroke-width:0.8;"/>
   </g>
   <g id="patch_5">
    <path d="M 63.336875 339.84 
L 398.136875 339.84 
" style="fill:none;stroke:#000000;stroke-linecap:square;stroke-linejoin:miter;stroke-width:0.8;"/>
   </g>
   <g id="patch_6">
    <path d="M 63.336875 7.2 
L 398.136875 7.2 
" style="fill:none;stroke:#000000;stroke-linecap:square;stroke-linejoin:miter;stroke-width:0.8;"/>
   </g>
   <g id="text_14">
    <g id="patch_7">
     <path d="M 75.036875 331.242688 
L 166.79375 331.242688 
L 166.79375 293.760312 
L 75.036875 293.760312 
z
" style="fill:#ffffff;stroke:#000000;stroke-linejoin:miter;stroke-width:0.75;"/>
    </g>
    <!-- Auto_00138 -->
    <g transform="translate(80.076875 308.521562)scale(0.14 -0.14)">
     <defs>
      <path d="M 2928 1419 
L 1288 1419 
L 1000 750 
Q 894 503 894 381 
Q 894 284 986 211 
Q 1078 138 1384 116 
L 1384 0 
L 50 0 
L 50 116 
Q 316 163 394 238 
Q 553 388 747 847 
L 2238 4334 
L 2347 4334 
L 3822 809 
Q 4000 384 4145 257 
Q 4291 131 4550 116 
L 4550 0 
L 2878 0 
L 2878 116 
Q 3131 128 3220 200 
Q 3309 272 3309 375 
Q 3309 513 3184 809 
L 2928 1419 
z
M 2841 1650 
L 2122 3363 
L 1384 1650 
L 2841 1650 
z
" id="TimesNewRomanPSMT-41" transform="scale(0.015625)"/>
      <path d="M 2709 2863 
L 2709 1128 
Q 2709 631 2732 520 
Q 2756 409 2807 365 
Q 2859 322 2928 322 
Q 3025 322 3147 375 
L 3191 266 
L 2334 -88 
L 2194 -88 
L 2194 519 
Q 1825 119 1631 15 
Q 1438 -88 1222 -88 
Q 981 -88 804 51 
Q 628 191 559 409 
Q 491 628 491 1028 
L 491 2306 
Q 491 2509 447 2587 
Q 403 2666 317 2708 
Q 231 2750 6 2747 
L 6 2863 
L 1009 2863 
L 1009 947 
Q 1009 547 1148 422 
Q 1288 297 1484 297 
Q 1619 297 1789 381 
Q 1959 466 2194 703 
L 2194 2325 
Q 2194 2569 2105 2655 
Q 2016 2741 1734 2747 
L 1734 2863 
L 2709 2863 
z
" id="TimesNewRomanPSMT-75" transform="scale(0.015625)"/>
      <path d="M 3256 -1381 
L -53 -1381 
L -53 -1119 
L 3256 -1119 
L 3256 -1381 
z
" id="TimesNewRomanPSMT-5f" transform="scale(0.015625)"/>
      <path d="M 1228 2134 
Q 725 2547 579 2797 
Q 434 3047 434 3316 
Q 434 3728 753 4026 
Q 1072 4325 1600 4325 
Q 2113 4325 2425 4047 
Q 2738 3769 2738 3413 
Q 2738 3175 2569 2928 
Q 2400 2681 1866 2347 
Q 2416 1922 2594 1678 
Q 2831 1359 2831 1006 
Q 2831 559 2490 242 
Q 2150 -75 1597 -75 
Q 994 -75 656 303 
Q 388 606 388 966 
Q 388 1247 577 1523 
Q 766 1800 1228 2134 
z
M 1719 2469 
Q 2094 2806 2194 3001 
Q 2294 3197 2294 3444 
Q 2294 3772 2109 3958 
Q 1925 4144 1606 4144 
Q 1288 4144 1088 3959 
Q 888 3775 888 3528 
Q 888 3366 970 3203 
Q 1053 3041 1206 2894 
L 1719 2469 
z
M 1375 2016 
Q 1116 1797 991 1539 
Q 866 1281 866 981 
Q 866 578 1086 336 
Q 1306 94 1647 94 
Q 1984 94 2187 284 
Q 2391 475 2391 747 
Q 2391 972 2272 1150 
Q 2050 1481 1375 2016 
z
" id="TimesNewRomanPSMT-38" transform="scale(0.015625)"/>
     </defs>
     <use xlink:href="#TimesNewRomanPSMT-41"/>
     <use x="72.216797" xlink:href="#TimesNewRomanPSMT-75"/>
     <use x="122.216797" xlink:href="#TimesNewRomanPSMT-74"/>
     <use x="150" xlink:href="#TimesNewRomanPSMT-6f"/>
     <use x="200" xlink:href="#TimesNewRomanPSMT-5f"/>
     <use x="250" xlink:href="#TimesNewRomanPSMT-30"/>
     <use x="300" xlink:href="#TimesNewRomanPSMT-30"/>
     <use x="350" xlink:href="#TimesNewRomanPSMT-31"/>
     <use x="400" xlink:href="#TimesNewRomanPSMT-33"/>
     <use x="450" xlink:href="#TimesNewRomanPSMT-38"/>
    </g>
    <!-- Vs: 308.93m/s -->
    <g transform="translate(80.076875 323.208)scale(0.14 -0.14)">
     <defs>
      <path d="M 903 2950 
Q 1047 2950 1148 2848 
Q 1250 2747 1250 2603 
Q 1250 2459 1148 2357 
Q 1047 2256 903 2256 
Q 759 2256 657 2357 
Q 556 2459 556 2603 
Q 556 2747 657 2848 
Q 759 2950 903 2950 
z
M 897 609 
Q 1044 609 1145 506 
Q 1247 403 1247 259 
Q 1247 116 1144 14 
Q 1041 -88 897 -88 
Q 753 -88 651 14 
Q 550 116 550 259 
Q 550 403 651 506 
Q 753 609 897 609 
z
" id="TimesNewRomanPSMT-3a" transform="scale(0.015625)"/>
      <path d="M 338 -88 
L 338 28 
Q 744 34 1094 217 
Q 1444 400 1770 856 
Q 2097 1313 2225 1859 
Q 1734 1544 1338 1544 
Q 891 1544 572 1889 
Q 253 2234 253 2806 
Q 253 3363 572 3797 
Q 956 4325 1575 4325 
Q 2097 4325 2469 3894 
Q 2925 3359 2925 2575 
Q 2925 1869 2578 1258 
Q 2231 647 1613 244 
Q 1109 -88 516 -88 
L 338 -88 
z
M 2275 2091 
Q 2331 2497 2331 2741 
Q 2331 3044 2228 3395 
Q 2125 3747 1936 3934 
Q 1747 4122 1506 4122 
Q 1228 4122 1018 3872 
Q 809 3622 809 3128 
Q 809 2469 1088 2097 
Q 1291 1828 1588 1828 
Q 1731 1828 1928 1897 
Q 2125 1966 2275 2091 
z
" id="TimesNewRomanPSMT-39" transform="scale(0.015625)"/>
      <path d="M 1794 4444 
L 259 -88 
L 9 -88 
L 1544 4444 
L 1794 4444 
z
" id="TimesNewRomanPSMT-2f" transform="scale(0.015625)"/>
     </defs>
     <use xlink:href="#TimesNewRomanPSMT-56"/>
     <use x="72.216797" xlink:href="#TimesNewRomanPSMT-73"/>
     <use x="111.132812" xlink:href="#TimesNewRomanPSMT-3a"/>
     <use x="138.916016" xlink:href="#TimesNewRomanPSMT-20"/>
     <use x="163.916016" xlink:href="#TimesNewRomanPSMT-33"/>
     <use x="213.916016" xlink:href="#TimesNewRomanPSMT-30"/>
     <use x="263.916016" xlink:href="#TimesNewRomanPSMT-38"/>
     <use x="313.916016" xlink:href="#TimesNewRomanPSMT-2e"/>
     <use x="338.916016" xlink:href="#TimesNewRomanPSMT-39"/>
     <use x="388.916016" xlink:href="#TimesNewRomanPSMT-33"/>
     <use x="438.916016" xlink:href="#TimesNewRomanPSMT-6d"/>
     <use x="516.699219" xlink:href="#TimesNewRomanPSMT-2f"/>
     <use x="544.482422" xlink:href="#TimesNewRomanPSMT-73"/>
    </g>
   </g>
  </g>
 </g>
 <defs>
  <clipPath id="p76e75c6021">
   <rect height="332.64" width="334.8" x="63.336875" y="7.2"/>
  </clipPath>
 </defs>
</svg>
