<?xml version="1.0" encoding="utf-8" standalone="no"?>
<!DOCTYPE svg PUBLIC "-//W3C//DTD SVG 1.1//EN"
  "http://www.w3.org/Graphics/SVG/1.1/DTD/svg11.dtd">
<svg height="383.471875pt" version="1.1" viewBox="0 0 421.086875 383.471875" width="421.086875pt" xmlns="http://www.w3.org/2000/svg" xmlns:xlink="http://www.w3.org/1999/xlink">
 <metadata>
  <rdf:RDF xmlns:cc="http://creativecommons.org/ns#" xmlns:dc="http://purl.org/dc/elements/1.1/" xmlns:rdf="http://www.w3.org/1999/02/22-rdf-syntax-ns#">
   <cc:Work>
    <dc:type rdf:resource="http://purl.org/dc/dcmitype/StillImage"/>
    <dc:date>2021-06-11T14:39:37.652990</dc:date>
    <dc:format>image/svg+xml</dc:format>
    <dc:creator>
     <cc:Agent>
      <dc:title>Matplotlib v3.4.2, https://matplotlib.org/</dc:title>
     </cc:Agent>
    </dc:creator>
   </cc:Work>
  </rdf:RDF>
 </metadata>
 <defs>
  <style type="text/css">*{stroke-linecap:butt;stroke-linejoin:round;}</style>
 </defs>
 <g id="figure_1">
  <g id="patch_1">
   <path d="M 0 383.471875 
L 421.086875 383.471875 
L 421.086875 0 
L 0 0 
z
" style="fill:#ffffff;"/>
  </g>
  <g id="axes_1">
   <g id="patch_2">
    <path d="M 63.336875 339.84 
L 398.136875 339.84 
L 398.136875 7.2 
L 63.336875 7.2 
z
" style="fill:#ffffff;"/>
   </g>
   <g id="matplotlib.axis_1">
    <g id="xtick_1">
     <g id="line2d_1">
      <path clip-path="url(#pe0fe85bab7)" d="M 93.773239 339.84 
L 93.773239 7.2 
" style="fill:none;stroke:#000000;stroke-dasharray:0.5,0.825;stroke-dashoffset:0;stroke-width:0.5;"/>
     </g>
     <g id="line2d_2">
      <defs>
       <path d="M 0 0 
L 0 3.5 
" id="m9e8e60d673" style="stroke:#000000;stroke-width:0.8;"/>
      </defs>
      <g>
       <use style="stroke:#000000;stroke-width:0.8;" x="93.773239" xlink:href="#m9e8e60d673" y="339.84"/>
      </g>
     </g>
     <g id="text_1">
      <!-- 0.000 -->
      <g transform="translate(78.023239 356.56125)scale(0.14 -0.14)">
       <defs>
        <path d="M 231 2094 
Q 231 2819 450 3342 
Q 669 3866 1031 4122 
Q 1313 4325 1613 4325 
Q 2100 4325 2488 3828 
Q 2972 3213 2972 2159 
Q 2972 1422 2759 906 
Q 2547 391 2217 158 
Q 1888 -75 1581 -75 
Q 975 -75 572 641 
Q 231 1244 231 2094 
z
M 844 2016 
Q 844 1141 1059 588 
Q 1238 122 1591 122 
Q 1759 122 1940 273 
Q 2122 425 2216 781 
Q 2359 1319 2359 2297 
Q 2359 3022 2209 3506 
Q 2097 3866 1919 4016 
Q 1791 4119 1609 4119 
Q 1397 4119 1231 3928 
Q 1006 3669 925 3112 
Q 844 2556 844 2016 
z
" id="TimesNewRomanPSMT-30" transform="scale(0.015625)"/>
        <path d="M 800 606 
Q 947 606 1047 504 
Q 1147 403 1147 259 
Q 1147 116 1045 14 
Q 944 -88 800 -88 
Q 656 -88 554 14 
Q 453 116 453 259 
Q 453 406 554 506 
Q 656 606 800 606 
z
" id="TimesNewRomanPSMT-2e" transform="scale(0.015625)"/>
       </defs>
       <use xlink:href="#TimesNewRomanPSMT-30"/>
       <use x="50" xlink:href="#TimesNewRomanPSMT-2e"/>
       <use x="75" xlink:href="#TimesNewRomanPSMT-30"/>
       <use x="125" xlink:href="#TimesNewRomanPSMT-30"/>
       <use x="175" xlink:href="#TimesNewRomanPSMT-30"/>
      </g>
     </g>
    </g>
    <g id="xtick_2">
     <g id="line2d_3">
      <path clip-path="url(#pe0fe85bab7)" d="M 154.645966 339.84 
L 154.645966 7.2 
" style="fill:none;stroke:#000000;stroke-dasharray:0.5,0.825;stroke-dashoffset:0;stroke-width:0.5;"/>
     </g>
     <g id="line2d_4">
      <g>
       <use style="stroke:#000000;stroke-width:0.8;" x="154.645966" xlink:href="#m9e8e60d673" y="339.84"/>
      </g>
     </g>
     <g id="text_2">
      <!-- 0.001 -->
      <g transform="translate(138.895966 356.56125)scale(0.14 -0.14)">
       <defs>
        <path d="M 750 3822 
L 1781 4325 
L 1884 4325 
L 1884 747 
Q 1884 391 1914 303 
Q 1944 216 2037 169 
Q 2131 122 2419 116 
L 2419 0 
L 825 0 
L 825 116 
Q 1125 122 1212 167 
Q 1300 213 1334 289 
Q 1369 366 1369 747 
L 1369 3034 
Q 1369 3497 1338 3628 
Q 1316 3728 1258 3775 
Q 1200 3822 1119 3822 
Q 1003 3822 797 3725 
L 750 3822 
z
" id="TimesNewRomanPSMT-31" transform="scale(0.015625)"/>
       </defs>
       <use xlink:href="#TimesNewRomanPSMT-30"/>
       <use x="50" xlink:href="#TimesNewRomanPSMT-2e"/>
       <use x="75" xlink:href="#TimesNewRomanPSMT-30"/>
       <use x="125" xlink:href="#TimesNewRomanPSMT-30"/>
       <use x="175" xlink:href="#TimesNewRomanPSMT-31"/>
      </g>
     </g>
    </g>
    <g id="xtick_3">
     <g id="line2d_5">
      <path clip-path="url(#pe0fe85bab7)" d="M 215.518693 339.84 
L 215.518693 7.2 
" style="fill:none;stroke:#000000;stroke-dasharray:0.5,0.825;stroke-dashoffset:0;stroke-width:0.5;"/>
     </g>
     <g id="line2d_6">
      <g>
       <use style="stroke:#000000;stroke-width:0.8;" x="215.518693" xlink:href="#m9e8e60d673" y="339.84"/>
      </g>
     </g>
     <g id="text_3">
      <!-- 0.002 -->
      <g transform="translate(199.768693 356.56125)scale(0.14 -0.14)">
       <defs>
        <path d="M 2934 816 
L 2638 0 
L 138 0 
L 138 116 
Q 1241 1122 1691 1759 
Q 2141 2397 2141 2925 
Q 2141 3328 1894 3587 
Q 1647 3847 1303 3847 
Q 991 3847 742 3664 
Q 494 3481 375 3128 
L 259 3128 
Q 338 3706 661 4015 
Q 984 4325 1469 4325 
Q 1984 4325 2329 3994 
Q 2675 3663 2675 3213 
Q 2675 2891 2525 2569 
Q 2294 2063 1775 1497 
Q 997 647 803 472 
L 1909 472 
Q 2247 472 2383 497 
Q 2519 522 2628 598 
Q 2738 675 2819 816 
L 2934 816 
z
" id="TimesNewRomanPSMT-32" transform="scale(0.015625)"/>
       </defs>
       <use xlink:href="#TimesNewRomanPSMT-30"/>
       <use x="50" xlink:href="#TimesNewRomanPSMT-2e"/>
       <use x="75" xlink:href="#TimesNewRomanPSMT-30"/>
       <use x="125" xlink:href="#TimesNewRomanPSMT-30"/>
       <use x="175" xlink:href="#TimesNewRomanPSMT-32"/>
      </g>
     </g>
    </g>
    <g id="xtick_4">
     <g id="line2d_7">
      <path clip-path="url(#pe0fe85bab7)" d="M 276.39142 339.84 
L 276.39142 7.2 
" style="fill:none;stroke:#000000;stroke-dasharray:0.5,0.825;stroke-dashoffset:0;stroke-width:0.5;"/>
     </g>
     <g id="line2d_8">
      <g>
       <use style="stroke:#000000;stroke-width:0.8;" x="276.39142" xlink:href="#m9e8e60d673" y="339.84"/>
      </g>
     </g>
     <g id="text_4">
      <!-- 0.003 -->
      <g transform="translate(260.64142 356.56125)scale(0.14 -0.14)">
       <defs>
        <path d="M 325 3431 
Q 506 3859 782 4092 
Q 1059 4325 1472 4325 
Q 1981 4325 2253 3994 
Q 2459 3747 2459 3466 
Q 2459 3003 1878 2509 
Q 2269 2356 2469 2072 
Q 2669 1788 2669 1403 
Q 2669 853 2319 450 
Q 1863 -75 997 -75 
Q 569 -75 414 31 
Q 259 138 259 259 
Q 259 350 332 419 
Q 406 488 509 488 
Q 588 488 669 463 
Q 722 447 909 348 
Q 1097 250 1169 231 
Q 1284 197 1416 197 
Q 1734 197 1970 444 
Q 2206 691 2206 1028 
Q 2206 1275 2097 1509 
Q 2016 1684 1919 1775 
Q 1784 1900 1550 2001 
Q 1316 2103 1072 2103 
L 972 2103 
L 972 2197 
Q 1219 2228 1467 2375 
Q 1716 2522 1828 2728 
Q 1941 2934 1941 3181 
Q 1941 3503 1739 3701 
Q 1538 3900 1238 3900 
Q 753 3900 428 3381 
L 325 3431 
z
" id="TimesNewRomanPSMT-33" transform="scale(0.015625)"/>
       </defs>
       <use xlink:href="#TimesNewRomanPSMT-30"/>
       <use x="50" xlink:href="#TimesNewRomanPSMT-2e"/>
       <use x="75" xlink:href="#TimesNewRomanPSMT-30"/>
       <use x="125" xlink:href="#TimesNewRomanPSMT-30"/>
       <use x="175" xlink:href="#TimesNewRomanPSMT-33"/>
      </g>
     </g>
    </g>
    <g id="xtick_5">
     <g id="line2d_9">
      <path clip-path="url(#pe0fe85bab7)" d="M 337.264148 339.84 
L 337.264148 7.2 
" style="fill:none;stroke:#000000;stroke-dasharray:0.5,0.825;stroke-dashoffset:0;stroke-width:0.5;"/>
     </g>
     <g id="line2d_10">
      <g>
       <use style="stroke:#000000;stroke-width:0.8;" x="337.264148" xlink:href="#m9e8e60d673" y="339.84"/>
      </g>
     </g>
     <g id="text_5">
      <!-- 0.004 -->
      <g transform="translate(321.514148 356.56125)scale(0.14 -0.14)">
       <defs>
        <path d="M 2978 1563 
L 2978 1119 
L 2409 1119 
L 2409 0 
L 1894 0 
L 1894 1119 
L 100 1119 
L 100 1519 
L 2066 4325 
L 2409 4325 
L 2409 1563 
L 2978 1563 
z
M 1894 1563 
L 1894 3666 
L 406 1563 
L 1894 1563 
z
" id="TimesNewRomanPSMT-34" transform="scale(0.015625)"/>
       </defs>
       <use xlink:href="#TimesNewRomanPSMT-30"/>
       <use x="50" xlink:href="#TimesNewRomanPSMT-2e"/>
       <use x="75" xlink:href="#TimesNewRomanPSMT-30"/>
       <use x="125" xlink:href="#TimesNewRomanPSMT-30"/>
       <use x="175" xlink:href="#TimesNewRomanPSMT-34"/>
      </g>
     </g>
    </g>
    <g id="xtick_6">
     <g id="line2d_11">
      <path clip-path="url(#pe0fe85bab7)" d="M 398.136875 339.84 
L 398.136875 7.2 
" style="fill:none;stroke:#000000;stroke-dasharray:0.5,0.825;stroke-dashoffset:0;stroke-width:0.5;"/>
     </g>
     <g id="line2d_12">
      <g>
       <use style="stroke:#000000;stroke-width:0.8;" x="398.136875" xlink:href="#m9e8e60d673" y="339.84"/>
      </g>
     </g>
     <g id="text_6">
      <!-- 0.005 -->
      <g transform="translate(382.386875 356.56125)scale(0.14 -0.14)">
       <defs>
        <path d="M 2778 4238 
L 2534 3706 
L 1259 3706 
L 981 3138 
Q 1809 3016 2294 2522 
Q 2709 2097 2709 1522 
Q 2709 1188 2573 903 
Q 2438 619 2231 419 
Q 2025 219 1772 97 
Q 1413 -75 1034 -75 
Q 653 -75 479 54 
Q 306 184 306 341 
Q 306 428 378 495 
Q 450 563 559 563 
Q 641 563 702 538 
Q 763 513 909 409 
Q 1144 247 1384 247 
Q 1750 247 2026 523 
Q 2303 800 2303 1197 
Q 2303 1581 2056 1914 
Q 1809 2247 1375 2428 
Q 1034 2569 447 2591 
L 1259 4238 
L 2778 4238 
z
" id="TimesNewRomanPSMT-35" transform="scale(0.015625)"/>
       </defs>
       <use xlink:href="#TimesNewRomanPSMT-30"/>
       <use x="50" xlink:href="#TimesNewRomanPSMT-2e"/>
       <use x="75" xlink:href="#TimesNewRomanPSMT-30"/>
       <use x="125" xlink:href="#TimesNewRomanPSMT-30"/>
       <use x="175" xlink:href="#TimesNewRomanPSMT-35"/>
      </g>
     </g>
    </g>
    <g id="text_7">
     <!-- Time (sec) -->
     <g transform="translate(200.858906 373.277188)scale(0.14 -0.14)">
      <defs>
       <path d="M 3703 4238 
L 3750 3244 
L 3631 3244 
Q 3597 3506 3538 3619 
Q 3441 3800 3280 3886 
Q 3119 3972 2856 3972 
L 2259 3972 
L 2259 734 
Q 2259 344 2344 247 
Q 2463 116 2709 116 
L 2856 116 
L 2856 0 
L 1059 0 
L 1059 116 
L 1209 116 
Q 1478 116 1591 278 
Q 1659 378 1659 734 
L 1659 3972 
L 1150 3972 
Q 853 3972 728 3928 
Q 566 3869 450 3700 
Q 334 3531 313 3244 
L 194 3244 
L 244 4238 
L 3703 4238 
z
" id="TimesNewRomanPSMT-54" transform="scale(0.015625)"/>
       <path d="M 928 4444 
Q 1059 4444 1151 4351 
Q 1244 4259 1244 4128 
Q 1244 3997 1151 3903 
Q 1059 3809 928 3809 
Q 797 3809 703 3903 
Q 609 3997 609 4128 
Q 609 4259 701 4351 
Q 794 4444 928 4444 
z
M 1188 2947 
L 1188 647 
Q 1188 378 1227 289 
Q 1266 200 1342 156 
Q 1419 113 1622 113 
L 1622 0 
L 231 0 
L 231 113 
Q 441 113 512 153 
Q 584 194 626 287 
Q 669 381 669 647 
L 669 1750 
Q 669 2216 641 2353 
Q 619 2453 572 2492 
Q 525 2531 444 2531 
Q 356 2531 231 2484 
L 188 2597 
L 1050 2947 
L 1188 2947 
z
" id="TimesNewRomanPSMT-69" transform="scale(0.015625)"/>
       <path d="M 1050 2338 
Q 1363 2650 1419 2697 
Q 1559 2816 1721 2881 
Q 1884 2947 2044 2947 
Q 2313 2947 2506 2790 
Q 2700 2634 2766 2338 
Q 3088 2713 3309 2830 
Q 3531 2947 3766 2947 
Q 3994 2947 4170 2830 
Q 4347 2713 4450 2447 
Q 4519 2266 4519 1878 
L 4519 647 
Q 4519 378 4559 278 
Q 4591 209 4675 161 
Q 4759 113 4950 113 
L 4950 0 
L 3538 0 
L 3538 113 
L 3597 113 
Q 3781 113 3884 184 
Q 3956 234 3988 344 
Q 4000 397 4000 647 
L 4000 1878 
Q 4000 2228 3916 2372 
Q 3794 2572 3525 2572 
Q 3359 2572 3192 2489 
Q 3025 2406 2788 2181 
L 2781 2147 
L 2788 2013 
L 2788 647 
Q 2788 353 2820 281 
Q 2853 209 2943 161 
Q 3034 113 3253 113 
L 3253 0 
L 1806 0 
L 1806 113 
Q 2044 113 2133 169 
Q 2222 225 2256 338 
Q 2272 391 2272 647 
L 2272 1878 
Q 2272 2228 2169 2381 
Q 2031 2581 1784 2581 
Q 1616 2581 1450 2491 
Q 1191 2353 1050 2181 
L 1050 647 
Q 1050 366 1089 281 
Q 1128 197 1204 155 
Q 1281 113 1516 113 
L 1516 0 
L 100 0 
L 100 113 
Q 297 113 375 155 
Q 453 197 493 289 
Q 534 381 534 647 
L 534 1741 
Q 534 2213 506 2350 
Q 484 2453 437 2492 
Q 391 2531 309 2531 
Q 222 2531 100 2484 
L 53 2597 
L 916 2947 
L 1050 2947 
L 1050 2338 
z
" id="TimesNewRomanPSMT-6d" transform="scale(0.015625)"/>
       <path d="M 681 1784 
Q 678 1147 991 784 
Q 1303 422 1725 422 
Q 2006 422 2214 576 
Q 2422 731 2563 1106 
L 2659 1044 
Q 2594 616 2278 264 
Q 1963 -88 1488 -88 
Q 972 -88 605 314 
Q 238 716 238 1394 
Q 238 2128 614 2539 
Q 991 2950 1559 2950 
Q 2041 2950 2350 2633 
Q 2659 2316 2659 1784 
L 681 1784 
z
M 681 1966 
L 2006 1966 
Q 1991 2241 1941 2353 
Q 1863 2528 1708 2628 
Q 1553 2728 1384 2728 
Q 1125 2728 920 2526 
Q 716 2325 681 1966 
z
" id="TimesNewRomanPSMT-65" transform="scale(0.015625)"/>
       <path id="TimesNewRomanPSMT-20" transform="scale(0.015625)"/>
       <path d="M 1988 -1253 
L 1988 -1369 
Q 1516 -1131 1200 -813 
Q 750 -359 506 256 
Q 263 872 263 1534 
Q 263 2503 741 3301 
Q 1219 4100 1988 4444 
L 1988 4313 
Q 1603 4100 1356 3731 
Q 1109 3363 987 2797 
Q 866 2231 866 1616 
Q 866 947 969 400 
Q 1050 -31 1165 -292 
Q 1281 -553 1476 -793 
Q 1672 -1034 1988 -1253 
z
" id="TimesNewRomanPSMT-28" transform="scale(0.015625)"/>
       <path d="M 2050 2947 
L 2050 1972 
L 1947 1972 
Q 1828 2431 1642 2597 
Q 1456 2763 1169 2763 
Q 950 2763 815 2647 
Q 681 2531 681 2391 
Q 681 2216 781 2091 
Q 878 1963 1175 1819 
L 1631 1597 
Q 2266 1288 2266 781 
Q 2266 391 1970 151 
Q 1675 -88 1309 -88 
Q 1047 -88 709 6 
Q 606 38 541 38 
Q 469 38 428 -44 
L 325 -44 
L 325 978 
L 428 978 
Q 516 541 762 319 
Q 1009 97 1316 97 
Q 1531 97 1667 223 
Q 1803 350 1803 528 
Q 1803 744 1651 891 
Q 1500 1038 1047 1263 
Q 594 1488 453 1669 
Q 313 1847 313 2119 
Q 313 2472 555 2709 
Q 797 2947 1181 2947 
Q 1350 2947 1591 2875 
Q 1750 2828 1803 2828 
Q 1853 2828 1881 2850 
Q 1909 2872 1947 2947 
L 2050 2947 
z
" id="TimesNewRomanPSMT-73" transform="scale(0.015625)"/>
       <path d="M 2631 1088 
Q 2516 522 2178 217 
Q 1841 -88 1431 -88 
Q 944 -88 581 321 
Q 219 731 219 1428 
Q 219 2103 620 2525 
Q 1022 2947 1584 2947 
Q 2006 2947 2278 2723 
Q 2550 2500 2550 2259 
Q 2550 2141 2473 2067 
Q 2397 1994 2259 1994 
Q 2075 1994 1981 2113 
Q 1928 2178 1911 2362 
Q 1894 2547 1784 2644 
Q 1675 2738 1481 2738 
Q 1169 2738 978 2506 
Q 725 2200 725 1697 
Q 725 1184 976 792 
Q 1228 400 1656 400 
Q 1963 400 2206 609 
Q 2378 753 2541 1131 
L 2631 1088 
z
" id="TimesNewRomanPSMT-63" transform="scale(0.015625)"/>
       <path d="M 144 4313 
L 144 4444 
Q 619 4209 934 3891 
Q 1381 3434 1625 2820 
Q 1869 2206 1869 1541 
Q 1869 572 1392 -226 
Q 916 -1025 144 -1369 
L 144 -1253 
Q 528 -1038 776 -670 
Q 1025 -303 1145 264 
Q 1266 831 1266 1447 
Q 1266 2113 1163 2663 
Q 1084 3094 967 3353 
Q 850 3613 656 3853 
Q 463 4094 144 4313 
z
" id="TimesNewRomanPSMT-29" transform="scale(0.015625)"/>
      </defs>
      <use xlink:href="#TimesNewRomanPSMT-54"/>
      <use x="57.583984" xlink:href="#TimesNewRomanPSMT-69"/>
      <use x="85.367188" xlink:href="#TimesNewRomanPSMT-6d"/>
      <use x="163.150391" xlink:href="#TimesNewRomanPSMT-65"/>
      <use x="207.535156" xlink:href="#TimesNewRomanPSMT-20"/>
      <use x="232.535156" xlink:href="#TimesNewRomanPSMT-28"/>
      <use x="265.835938" xlink:href="#TimesNewRomanPSMT-73"/>
      <use x="304.751953" xlink:href="#TimesNewRomanPSMT-65"/>
      <use x="349.136719" xlink:href="#TimesNewRomanPSMT-63"/>
      <use x="393.521484" xlink:href="#TimesNewRomanPSMT-29"/>
     </g>
    </g>
   </g>
   <g id="matplotlib.axis_2">
    <g id="ytick_1">
     <g id="line2d_13">
      <path clip-path="url(#pe0fe85bab7)" d="M 63.336875 279.003479 
L 398.136875 279.003479 
" style="fill:none;stroke:#000000;stroke-dasharray:0.5,0.825;stroke-dashoffset:0;stroke-width:0.5;"/>
     </g>
     <g id="line2d_14">
      <defs>
       <path d="M 0 0 
L -3.5 0 
" id="m511c85e799" style="stroke:#000000;stroke-width:0.8;"/>
      </defs>
      <g>
       <use style="stroke:#000000;stroke-width:0.8;" x="63.336875" xlink:href="#m511c85e799" y="279.003479"/>
      </g>
     </g>
     <g id="text_8">
      <!-- −0.04 -->
      <g transform="translate(23.942188 283.864104)scale(0.14 -0.14)">
       <defs>
        <path d="M 3484 2000 
L 116 2000 
L 116 2256 
L 3484 2256 
L 3484 2000 
z
" id="TimesNewRomanPSMT-2212" transform="scale(0.015625)"/>
       </defs>
       <use xlink:href="#TimesNewRomanPSMT-2212"/>
       <use x="56.396484" xlink:href="#TimesNewRomanPSMT-30"/>
       <use x="106.396484" xlink:href="#TimesNewRomanPSMT-2e"/>
       <use x="131.396484" xlink:href="#TimesNewRomanPSMT-30"/>
       <use x="181.396484" xlink:href="#TimesNewRomanPSMT-34"/>
      </g>
     </g>
    </g>
    <g id="ytick_2">
     <g id="line2d_15">
      <path clip-path="url(#pe0fe85bab7)" d="M 63.336875 215.706776 
L 398.136875 215.706776 
" style="fill:none;stroke:#000000;stroke-dasharray:0.5,0.825;stroke-dashoffset:0;stroke-width:0.5;"/>
     </g>
     <g id="line2d_16">
      <g>
       <use style="stroke:#000000;stroke-width:0.8;" x="63.336875" xlink:href="#m511c85e799" y="215.706776"/>
      </g>
     </g>
     <g id="text_9">
      <!-- −0.02 -->
      <g transform="translate(23.942188 220.567401)scale(0.14 -0.14)">
       <use xlink:href="#TimesNewRomanPSMT-2212"/>
       <use x="56.396484" xlink:href="#TimesNewRomanPSMT-30"/>
       <use x="106.396484" xlink:href="#TimesNewRomanPSMT-2e"/>
       <use x="131.396484" xlink:href="#TimesNewRomanPSMT-30"/>
       <use x="181.396484" xlink:href="#TimesNewRomanPSMT-32"/>
      </g>
     </g>
    </g>
    <g id="ytick_3">
     <g id="line2d_17">
      <path clip-path="url(#pe0fe85bab7)" d="M 63.336875 152.410073 
L 398.136875 152.410073 
" style="fill:none;stroke:#000000;stroke-dasharray:0.5,0.825;stroke-dashoffset:0;stroke-width:0.5;"/>
     </g>
     <g id="line2d_18">
      <g>
       <use style="stroke:#000000;stroke-width:0.8;" x="63.336875" xlink:href="#m511c85e799" y="152.410073"/>
      </g>
     </g>
     <g id="text_10">
      <!-- 0.00 -->
      <g transform="translate(31.836875 157.270698)scale(0.14 -0.14)">
       <use xlink:href="#TimesNewRomanPSMT-30"/>
       <use x="50" xlink:href="#TimesNewRomanPSMT-2e"/>
       <use x="75" xlink:href="#TimesNewRomanPSMT-30"/>
       <use x="125" xlink:href="#TimesNewRomanPSMT-30"/>
      </g>
     </g>
    </g>
    <g id="ytick_4">
     <g id="line2d_19">
      <path clip-path="url(#pe0fe85bab7)" d="M 63.336875 89.113371 
L 398.136875 89.113371 
" style="fill:none;stroke:#000000;stroke-dasharray:0.5,0.825;stroke-dashoffset:0;stroke-width:0.5;"/>
     </g>
     <g id="line2d_20">
      <g>
       <use style="stroke:#000000;stroke-width:0.8;" x="63.336875" xlink:href="#m511c85e799" y="89.113371"/>
      </g>
     </g>
     <g id="text_11">
      <!-- 0.02 -->
      <g transform="translate(31.836875 93.973996)scale(0.14 -0.14)">
       <use xlink:href="#TimesNewRomanPSMT-30"/>
       <use x="50" xlink:href="#TimesNewRomanPSMT-2e"/>
       <use x="75" xlink:href="#TimesNewRomanPSMT-30"/>
       <use x="125" xlink:href="#TimesNewRomanPSMT-32"/>
      </g>
     </g>
    </g>
    <g id="ytick_5">
     <g id="line2d_21">
      <path clip-path="url(#pe0fe85bab7)" d="M 63.336875 25.816668 
L 398.136875 25.816668 
" style="fill:none;stroke:#000000;stroke-dasharray:0.5,0.825;stroke-dashoffset:0;stroke-width:0.5;"/>
     </g>
     <g id="line2d_22">
      <g>
       <use style="stroke:#000000;stroke-width:0.8;" x="63.336875" xlink:href="#m511c85e799" y="25.816668"/>
      </g>
     </g>
     <g id="text_12">
      <!-- 0.04 -->
      <g transform="translate(31.836875 30.677293)scale(0.14 -0.14)">
       <use xlink:href="#TimesNewRomanPSMT-30"/>
       <use x="50" xlink:href="#TimesNewRomanPSMT-2e"/>
       <use x="75" xlink:href="#TimesNewRomanPSMT-30"/>
       <use x="125" xlink:href="#TimesNewRomanPSMT-34"/>
      </g>
     </g>
    </g>
    <g id="text_13">
     <!-- Volatage (V) -->
     <g transform="translate(16.92125 209.352344)rotate(-90)scale(0.14 -0.14)">
      <defs>
       <path d="M 4544 4238 
L 4544 4122 
Q 4319 4081 4203 3978 
Q 4038 3825 3909 3509 
L 2431 -97 
L 2316 -97 
L 728 3556 
Q 606 3838 556 3900 
Q 478 3997 364 4051 
Q 250 4106 56 4122 
L 56 4238 
L 1788 4238 
L 1788 4122 
Q 1494 4094 1406 4022 
Q 1319 3950 1319 3838 
Q 1319 3681 1463 3350 
L 2541 866 
L 3541 3319 
Q 3688 3681 3688 3822 
Q 3688 3913 3597 3995 
Q 3506 4078 3291 4113 
Q 3275 4116 3238 4122 
L 3238 4238 
L 4544 4238 
z
" id="TimesNewRomanPSMT-56" transform="scale(0.015625)"/>
       <path d="M 1600 2947 
Q 2250 2947 2644 2453 
Q 2978 2031 2978 1484 
Q 2978 1100 2793 706 
Q 2609 313 2286 112 
Q 1963 -88 1566 -88 
Q 919 -88 538 428 
Q 216 863 216 1403 
Q 216 1797 411 2186 
Q 606 2575 925 2761 
Q 1244 2947 1600 2947 
z
M 1503 2744 
Q 1338 2744 1170 2645 
Q 1003 2547 900 2300 
Q 797 2053 797 1666 
Q 797 1041 1045 587 
Q 1294 134 1700 134 
Q 2003 134 2200 384 
Q 2397 634 2397 1244 
Q 2397 2006 2069 2444 
Q 1847 2744 1503 2744 
z
" id="TimesNewRomanPSMT-6f" transform="scale(0.015625)"/>
       <path d="M 1184 4444 
L 1184 647 
Q 1184 378 1223 290 
Q 1263 203 1344 158 
Q 1425 113 1647 113 
L 1647 0 
L 244 0 
L 244 113 
Q 441 113 512 153 
Q 584 194 625 287 
Q 666 381 666 647 
L 666 3247 
Q 666 3731 644 3842 
Q 622 3953 573 3993 
Q 525 4034 450 4034 
Q 369 4034 244 3984 
L 191 4094 
L 1044 4444 
L 1184 4444 
z
" id="TimesNewRomanPSMT-6c" transform="scale(0.015625)"/>
       <path d="M 1822 413 
Q 1381 72 1269 19 
Q 1100 -59 909 -59 
Q 613 -59 420 144 
Q 228 347 228 678 
Q 228 888 322 1041 
Q 450 1253 767 1440 
Q 1084 1628 1822 1897 
L 1822 2009 
Q 1822 2438 1686 2597 
Q 1550 2756 1291 2756 
Q 1094 2756 978 2650 
Q 859 2544 859 2406 
L 866 2225 
Q 866 2081 792 2003 
Q 719 1925 600 1925 
Q 484 1925 411 2006 
Q 338 2088 338 2228 
Q 338 2497 613 2722 
Q 888 2947 1384 2947 
Q 1766 2947 2009 2819 
Q 2194 2722 2281 2516 
Q 2338 2381 2338 1966 
L 2338 994 
Q 2338 584 2353 492 
Q 2369 400 2405 369 
Q 2441 338 2488 338 
Q 2538 338 2575 359 
Q 2641 400 2828 588 
L 2828 413 
Q 2478 -56 2159 -56 
Q 2006 -56 1915 50 
Q 1825 156 1822 413 
z
M 1822 616 
L 1822 1706 
Q 1350 1519 1213 1441 
Q 966 1303 859 1153 
Q 753 1003 753 825 
Q 753 600 887 451 
Q 1022 303 1197 303 
Q 1434 303 1822 616 
z
" id="TimesNewRomanPSMT-61" transform="scale(0.015625)"/>
       <path d="M 1031 3803 
L 1031 2863 
L 1700 2863 
L 1700 2644 
L 1031 2644 
L 1031 788 
Q 1031 509 1111 412 
Q 1191 316 1316 316 
Q 1419 316 1516 380 
Q 1613 444 1666 569 
L 1788 569 
Q 1678 263 1478 108 
Q 1278 -47 1066 -47 
Q 922 -47 784 33 
Q 647 113 581 261 
Q 516 409 516 719 
L 516 2644 
L 63 2644 
L 63 2747 
Q 234 2816 414 2980 
Q 594 3144 734 3369 
Q 806 3488 934 3803 
L 1031 3803 
z
" id="TimesNewRomanPSMT-74" transform="scale(0.015625)"/>
       <path d="M 966 1044 
Q 703 1172 562 1401 
Q 422 1631 422 1909 
Q 422 2334 742 2640 
Q 1063 2947 1563 2947 
Q 1972 2947 2272 2747 
L 2878 2747 
Q 3013 2747 3034 2739 
Q 3056 2731 3066 2713 
Q 3084 2684 3084 2613 
Q 3084 2531 3069 2500 
Q 3059 2484 3036 2475 
Q 3013 2466 2878 2466 
L 2506 2466 
Q 2681 2241 2681 1891 
Q 2681 1491 2375 1206 
Q 2069 922 1553 922 
Q 1341 922 1119 984 
Q 981 866 932 777 
Q 884 688 884 625 
Q 884 572 936 522 
Q 988 472 1138 450 
Q 1225 438 1575 428 
Q 2219 413 2409 384 
Q 2700 344 2873 169 
Q 3047 -6 3047 -263 
Q 3047 -616 2716 -925 
Q 2228 -1381 1444 -1381 
Q 841 -1381 425 -1109 
Q 191 -953 191 -784 
Q 191 -709 225 -634 
Q 278 -519 444 -313 
Q 466 -284 763 25 
Q 600 122 533 198 
Q 466 275 466 372 
Q 466 481 555 628 
Q 644 775 966 1044 
z
M 1509 2797 
Q 1278 2797 1122 2612 
Q 966 2428 966 2047 
Q 966 1553 1178 1281 
Q 1341 1075 1591 1075 
Q 1828 1075 1981 1253 
Q 2134 1431 2134 1813 
Q 2134 2309 1919 2591 
Q 1759 2797 1509 2797 
z
M 934 0 
Q 788 -159 713 -296 
Q 638 -434 638 -550 
Q 638 -700 819 -813 
Q 1131 -1006 1722 -1006 
Q 2284 -1006 2551 -807 
Q 2819 -609 2819 -384 
Q 2819 -222 2659 -153 
Q 2497 -84 2016 -72 
Q 1313 -53 934 0 
z
" id="TimesNewRomanPSMT-67" transform="scale(0.015625)"/>
      </defs>
      <use xlink:href="#TimesNewRomanPSMT-56"/>
      <use x="59.341797" xlink:href="#TimesNewRomanPSMT-6f"/>
      <use x="109.341797" xlink:href="#TimesNewRomanPSMT-6c"/>
      <use x="137.125" xlink:href="#TimesNewRomanPSMT-61"/>
      <use x="181.509766" xlink:href="#TimesNewRomanPSMT-74"/>
      <use x="209.292969" xlink:href="#TimesNewRomanPSMT-61"/>
      <use x="253.677734" xlink:href="#TimesNewRomanPSMT-67"/>
      <use x="303.677734" xlink:href="#TimesNewRomanPSMT-65"/>
      <use x="348.0625" xlink:href="#TimesNewRomanPSMT-20"/>
      <use x="373.0625" xlink:href="#TimesNewRomanPSMT-28"/>
      <use x="406.363281" xlink:href="#TimesNewRomanPSMT-56"/>
      <use x="478.580078" xlink:href="#TimesNewRomanPSMT-29"/>
     </g>
    </g>
   </g>
   <g id="LineCollection_1">
    <path clip-path="url(#pe0fe85bab7)" d="M 78.555057 152.410073 
L 382.918693 152.410073 
" style="fill:none;stroke:#1f77b4;stroke-width:1.5;"/>
   </g>
   <g id="line2d_23">
    <path clip-path="url(#pe0fe85bab7)" d="M 78.555057 152.434284 
L 78.676802 152.355163 
L 78.707239 152.394724 
L 78.798548 152.473845 
L 78.828984 152.434284 
L 78.95073 152.394724 
L 79.102911 152.434284 
L 79.224657 152.434284 
L 86.55982 152.355163 
L 86.681566 152.355163 
L 94.655893 152.315603 
L 94.68633 152.236482 
L 94.747202 152.315603 
L 109.843639 152.394724 
L 109.874075 152.434284 
L 109.904511 152.355163 
L 109.965384 152.434284 
L 109.99582 152.355163 
L 110.148002 152.394724 
L 110.300184 152.355163 
L 110.391493 152.394724 
L 110.42193 152.315603 
L 110.482802 152.355163 
L 110.604548 152.434284 
L 110.634984 152.394724 
L 111.730693 152.473845 
L 111.882875 152.513405 
L 112.00462 152.513405 
L 112.67422 152.592526 
L 112.795966 152.592526 
L 113.222075 152.632087 
L 113.34382 152.711207 
L 113.43513 152.711207 
L 113.587311 152.750768 
L 113.922111 152.829889 
L 114.074293 152.869449 
L 114.409093 152.90901 
L 114.530839 152.988131 
L 114.652584 152.988131 
L 114.804766 153.027691 
L 114.956948 153.106812 
L 115.10913 153.146372 
L 115.413493 153.185933 
L 115.535239 153.265054 
L 115.870039 153.344174 
L 116.02222 153.423295 
L 116.143966 153.423295 
L 116.478766 153.502416 
L 116.69182 153.621098 
L 116.722257 153.541977 
L 116.813566 153.581537 
L 116.965748 153.621098 
L 117.209239 153.700218 
L 117.391857 153.779339 
L 118.000584 153.85846 
L 118.183202 153.937581 
L 118.45713 154.016702 
L 118.578875 154.095823 
L 118.609311 154.016702 
L 118.670184 154.056262 
L 118.852802 154.174944 
L 118.974548 154.135383 
L 119.12673 154.214504 
L 119.218039 154.214504 
L 119.400657 154.372746 
L 119.431093 154.293625 
L 119.491966 154.372746 
L 119.735457 154.451867 
L 119.948511 154.570548 
L 120.161566 154.610109 
L 120.283311 154.72879 
L 120.37462 154.72879 
L 120.648548 155.005713 
L 120.678984 154.926592 
L 120.739857 154.966152 
L 120.922475 155.163955 
L 121.318148 155.519999 
L 121.37902 155.559559 
L 121.592075 155.836482 
L 122.13993 156.706812 
L 122.444293 157.221097 
L 122.657348 157.616702 
L 122.931275 158.289229 
L 123.113893 158.684834 
L 124.361784 162.166152 
L 124.666148 163.234284 
L 124.757457 163.511208 
L 125.092257 164.737581 
L 125.335748 165.60791 
L 125.82273 167.585933 
L 126.73582 171.541977 
L 127.131493 173.440878 
L 127.557602 175.537581 
L 128.775057 181.313406 
L 129.627275 185.071646 
L 130.17513 187.366152 
L 131.17953 190.887031 
L 131.270839 191.124394 
L 131.696948 192.390328 
L 131.879566 192.785932 
L 132.214366 193.379339 
L 132.670911 193.854064 
L 132.76222 193.854064 
L 132.914402 193.972745 
L 132.944839 193.933185 
L 133.279639 193.854064 
L 134.466657 192.152965 
L 134.740584 191.480438 
L 134.77102 191.480438 
L 135.166693 190.372745 
L 135.653675 188.829888 
L 136.292839 185.902415 
L 136.962439 181.86725 
L 137.845093 175.418899 
L 140.188693 153.106812 
L 141.497457 136.570548 
L 146.58033 65.440879 
L 148.92393 39.212304 
L 150.59793 27.027695 
L 150.993602 25.168355 
L 151.450148 23.783733 
L 151.663202 23.388132 
L 151.876257 22.992521 
L 152.119748 22.596923 
L 152.241493 22.517799 
L 152.51542 22.32 
L 152.545857 22.399124 
L 152.60673 22.32 
L 152.819784 22.399124 
L 153.002402 22.596923 
L 153.489384 23.388132 
L 154.585093 28.095827 
L 155.041639 31.02329 
L 155.498184 34.662854 
L 156.62433 45.858464 
L 158.359202 69.713406 
L 160.915857 118.214504 
L 162.772475 159.119999 
L 166.150911 235.629885 
L 168.829311 285.752961 
L 169.803275 299.243071 
L 171.112039 313.287033 
L 171.872948 319.221093 
L 172.390366 321.871648 
L 172.542548 322.54417 
L 173.120839 324.363956 
L 173.303457 324.601309 
L 173.486075 324.680433 
L 173.60782 324.680433 
L 173.851311 324.601309 
L 174.003493 324.561755 
L 174.125239 324.482634 
L 174.338293 324.205711 
L 174.551348 323.810113 
L 175.220948 321.634279 
L 175.494875 320.645272 
L 176.468839 315.067253 
L 178.173275 300.904612 
L 178.751566 294.69362 
L 179.482039 285.832085 
L 180.334257 274.596917 
L 181.277784 261.541976 
L 181.947384 251.414503 
L 182.799602 237.726588 
L 184.838839 202.636482 
L 189.586911 130.240878 
L 190.621748 116.90901 
L 191.413093 107.137582 
L 192.204439 97.801318 
L 192.78273 91.709013 
L 193.878439 81.423296 
L 197.013384 57.805714 
L 197.409057 55.234289 
L 197.835166 52.781535 
L 200.48313 42.891422 
L 200.696184 42.495824 
L 200.939675 41.981535 
L 201.609275 40.517805 
L 201.944075 40.240882 
L 202.06582 40.240882 
L 202.522366 40.161761 
L 202.796293 39.963959 
L 203.344148 40.04307 
L 203.618075 40.240882 
L 204.044184 40.320006 
L 204.196366 40.35956 
L 204.348548 40.399114 
L 204.652911 40.913403 
L 205.018148 41.54637 
L 205.322511 42.060659 
L 205.687748 42.693623 
L 206.052984 43.682634 
L 206.17473 43.999124 
L 206.479093 44.750766 
L 206.661711 45.10681 
L 206.905202 45.621099 
L 207.026948 45.937589 
L 207.726984 48.034285 
L 208.09222 49.023296 
L 208.487893 50.289227 
L 209.066184 52.741981 
L 211.348911 62.038681 
L 211.744584 63.937579 
L 212.475057 67.221098 
L 213.78382 75.014508 
L 214.11862 77.30901 
L 214.87953 82.926593 
L 218.501457 116.86945 
L 220.753748 141.436482 
L 223.15822 170.790328 
L 224.284366 185.30901 
L 224.801784 191.796921 
L 225.83662 205.010105 
L 226.50622 214.109009 
L 229.215057 247.933184 
L 230.980366 265.181539 
L 231.558657 269.651869 
L 232.045639 273.093621 
L 232.745675 277.287027 
L 233.171784 279.779335 
L 233.62833 281.599121 
L 233.96313 282.70681 
L 234.267493 283.735385 
L 234.419675 284.091432 
L 234.693602 284.526584 
L 234.845784 284.566151 
L 234.937093 284.645275 
L 234.96753 284.605708 
L 235.089275 284.645275 
L 235.21102 284.724396 
L 235.728439 284.645275 
L 236.093675 284.012308 
L 236.64153 282.271642 
L 236.702402 282.113398 
L 238.072039 274.478239 
L 240.111275 257.783737 
L 242.941857 223.405709 
L 243.946257 210.62769 
L 244.372366 205.089229 
L 245.742002 185.902415 
L 246.776839 170.276042 
L 248.93782 138.271648 
L 251.342293 108.443076 
L 253.138039 93.093629 
L 254.416366 85.498018 
L 255.177275 82.095824 
L 256.242548 78.377142 
L 256.759966 77.26945 
L 256.790402 77.30901 
L 256.820839 77.22989 
L 257.368693 76.676043 
L 257.460002 76.636483 
L 257.551311 76.478238 
L 257.581748 76.517802 
L 257.612184 76.557362 
L 257.64262 76.438678 
L 258.160039 76.517802 
L 258.190475 76.596923 
L 258.251348 76.557362 
L 258.40353 76.517802 
L 258.555711 76.557362 
L 258.707893 76.478238 
L 258.799202 76.478238 
L 258.951384 76.359563 
L 258.98182 76.399123 
L 259.286184 76.478238 
L 259.468802 76.557362 
L 260.138402 76.636483 
L 260.351457 76.755167 
L 260.503639 76.834282 
L 260.625384 77.032087 
L 260.65582 76.992527 
L 261.203675 77.585933 
L 261.234111 77.54637 
L 261.264548 77.625494 
L 261.781966 78.456266 
L 263.455966 83.005717 
L 263.699457 83.915604 
L 265.525639 91.471644 
L 267.230075 100.847469 
L 267.960548 105.673845 
L 270.760693 124.583734 
L 272.678184 138.667251 
L 274.352184 148.834284 
L 274.71742 150.693625 
L 275.14353 152.750768 
L 275.904439 156.152966 
L 277.882802 163.471647 
L 277.913239 163.471647 
L 278.15673 164.381537 
L 280.104657 169.16835 
L 280.16553 169.247471 
L 280.378584 169.643075 
L 281.352548 171.067251 
L 281.596039 171.423295 
L 281.687348 171.502416 
L 282.052584 171.85846 
L 282.08302 171.818899 
L 282.113457 171.89802 
L 282.600439 172.372746 
L 282.691748 172.451867 
L 282.813493 172.530987 
L 282.84393 172.491428 
L 284.152693 172.412307 
L 284.457057 172.174943 
L 284.609239 172.135383 
L 284.76142 172.016702 
L 285.126657 171.700219 
L 285.157093 171.739778 
L 285.217966 171.660657 
L 285.43102 171.344175 
L 285.491893 171.304614 
L 285.704948 170.988131 
L 285.735384 170.988131 
L 285.918002 170.711207 
L 286.19193 170.236483 
L 286.252802 170.196922 
L 286.43542 169.840878 
L 286.496293 169.761757 
L 286.709348 169.366153 
L 287.074584 168.733186 
L 287.500693 167.902416 
L 287.77462 167.427691 
L 287.957239 167.071647 
L 287.987675 167.111207 
L 288.018111 167.032086 
L 288.20073 166.755163 
L 288.261602 166.676042 
L 288.53553 166.240878 
L 289.266002 165.449669 
L 289.53993 165.370548 
L 289.692111 165.291427 
L 289.813857 165.291427 
L 289.935602 165.251867 
L 290.057348 165.172745 
L 290.179093 165.172745 
L 290.392148 165.251867 
L 291.640039 167.032086 
L 292.827057 170.394724 
L 293.770584 173.67824 
L 293.861893 173.915602 
L 294.22713 175.260658 
L 297.179457 186.377141 
L 297.301202 186.693625 
L 297.605566 187.722196 
L 297.970802 188.711207 
L 299.279566 191.836482 
L 299.675239 192.469449 
L 299.91873 193.023295 
L 300.801384 194.012306 
L 300.862257 194.051866 
L 301.105748 194.40791 
L 301.197057 194.447471 
L 301.349239 194.605712 
L 301.470984 194.684833 
L 301.623166 194.724394 
L 302.323202 194.803515 
L 302.50582 194.961756 
L 302.536257 194.922196 
L 302.658002 195.001317 
L 302.779748 195.001317 
L 303.814584 194.922196 
L 303.997202 194.843075 
L 304.17982 194.763954 
L 305.732075 192.627691 
L 306.006002 191.955163 
L 306.127748 191.63868 
L 306.979966 189.225493 
L 307.253893 188.157361 
L 307.771311 185.941976 
L 307.832184 185.704612 
L 308.075675 184.834283 
L 308.410475 183.291426 
L 308.562657 182.618899 
L 308.988766 180.561757 
L 310.845384 170.394724 
L 312.001966 162.245274 
L 312.64113 157.45846 
L 313.036802 154.491427 
L 313.341166 152.355163 
L 314.55862 143.691427 
L 314.89342 141.436482 
L 316.019566 133.524394 
L 316.23262 132.298021 
L 317.176148 126.87824 
L 318.697966 119.519999 
L 319.398002 116.394724 
L 319.763239 114.693625 
L 319.854548 114.416702 
L 320.128475 113.34857 
L 320.524148 111.845274 
L 321.34593 109.076043 
L 322.198148 106.583735 
L 322.59382 105.396922 
L 322.624257 105.396922 
L 322.837311 104.803516 
L 323.446039 102.983735 
L 323.750402 101.9156 
L 323.811275 101.717801 
L 324.146075 100.847469 
L 325.36353 97.919999 
L 325.393966 97.919999 
L 325.576584 97.643079 
L 326.002693 97.207911 
L 326.03313 97.247475 
L 326.063566 97.168351 
L 326.27662 97.010106 
L 326.398366 97.049666 
L 326.520111 96.970552 
L 326.672293 97.010106 
L 326.94622 97.049666 
L 326.976657 97.12879 
L 327.067966 97.08923 
L 327.220148 97.168351 
L 327.311457 97.168351 
L 327.524511 97.287035 
L 327.61582 97.36615 
L 328.468039 98.355167 
L 328.498475 98.315607 
L 328.559348 98.394721 
L 328.772402 98.790326 
L 328.802839 98.790326 
L 329.076766 99.423293 
L 329.228948 99.779337 
L 329.868111 101.678241 
L 330.233348 103.023296 
L 332.05953 110.57934 
L 332.759566 113.665054 
L 332.942184 114.416702 
L 333.337857 116.355164 
L 333.459602 116.94857 
L 333.824839 118.807911 
L 338.99902 146.262856 
L 339.607748 149.585933 
L 339.66862 149.823295 
L 340.855639 155.480438 
L 341.00782 156.152966 
L 342.164402 161.098021 
L 342.468766 162.363955 
L 343.929711 167.625494 
L 344.416693 169.16835 
L 344.812366 170.276042 
L 347.521202 177.080438 
L 347.551639 177.080438 
L 347.79513 177.673845 
L 347.856002 177.752965 
L 348.221239 178.465053 
L 348.251675 178.465053 
L 348.46473 178.860657 
L 348.70822 179.216701 
L 348.79953 179.295822 
L 348.982148 179.493624 
L 349.956111 180.601318 
L 350.108293 180.680437 
L 350.290911 180.87824 
L 350.747457 181.313406 
L 350.80833 181.392525 
L 351.112693 181.629889 
L 351.417057 181.709008 
L 351.599675 181.788131 
L 352.330148 181.748569 
L 352.360584 181.66945 
L 352.451893 181.709008 
L 352.664948 181.590328 
L 352.847566 181.511209 
L 353.091057 181.352964 
L 353.243239 181.313406 
L 353.39542 181.194723 
L 353.547602 181.115603 
L 353.699784 180.99692 
L 353.791093 180.99692 
L 353.943275 180.838679 
L 354.095457 180.759559 
L 354.338948 180.601318 
L 354.612875 180.522196 
L 354.856366 180.363954 
L 354.947675 180.403515 
L 354.978111 180.363954 
L 355.099857 180.284835 
L 355.191166 180.284835 
L 355.373784 180.205713 
L 355.49553 180.245274 
L 355.586839 180.166152 
L 355.617275 180.205713 
L 355.83033 180.12659 
L 355.952075 180.087032 
L 356.134693 180.166152 
L 357.291275 180.245274 
L 357.473893 180.324393 
L 357.595639 180.284835 
L 357.74782 180.324393 
L 358.660911 180.245274 
L 358.84353 180.166152 
L 358.934839 180.205713 
L 358.965275 180.166152 
L 359.300075 180.087032 
L 359.51313 179.968349 
L 359.939239 179.88923 
L 360.060984 179.849669 
L 360.152293 179.849669 
L 360.243602 179.770549 
L 360.274039 179.810107 
L 360.578402 179.572747 
L 360.669711 179.493624 
L 361.065384 179.13758 
L 361.09582 179.177142 
L 361.156693 179.098021 
L 361.308875 178.979339 
L 362.130657 177.792526 
L 362.343711 177.396921 
L 362.404584 177.3178 
L 362.708948 176.803515 
L 363.074184 176.170547 
L 363.53073 175.260658 
L 363.835093 174.706811 
L 364.230766 173.955164 
L 364.44382 173.519999 
L 364.748184 173.005713 
L 364.809057 172.926592 
L 366.026511 171.265054 
L 366.178693 170.988131 
L 367.000475 170.07824 
L 367.030911 170.117801 
L 367.061348 169.999119 
L 367.639639 169.405713 
L 367.670075 169.445274 
L 367.700511 169.366153 
L 367.88313 169.16835 
L 368.065748 169.128789 
L 368.21793 169.010109 
L 368.370111 168.930988 
L 368.79622 168.535383 
L 368.826657 168.574944 
L 368.857093 168.495823 
L 369.161457 168.25846 
L 369.404948 168.179339 
L 369.55713 168.021097 
L 369.739748 167.941977 
L 370.196293 167.506812 
L 370.318039 167.427691 
L 370.531093 167.150768 
L 370.713711 167.071647 
L 372.326839 165.133185 
L 372.418148 165.054064 
L 372.631202 164.777141 
L 374.183457 162.601317 
L 374.57913 161.849669 
L 374.883493 161.295822 
L 375.15742 160.662856 
L 377.866257 153.344174 
L 378.353239 151.880438 
L 379.144584 149.546372 
L 379.905493 147.014504 
L 380.27073 145.788131 
L 382.918693 135.779339 
L 382.918693 135.779339 
" style="fill:none;stroke:#0000ff;stroke-linecap:square;stroke-width:1.5;"/>
   </g>
   <g id="line2d_24">
    <path clip-path="url(#pe0fe85bab7)" d="M 78.555057 152.430091 
L 78.768111 152.449871 
L 78.95073 152.449871 
L 87.259857 152.35097 
L 87.442475 152.35097 
L 87.625093 152.35097 
L 91.33833 152.271849 
L 91.490511 152.252069 
L 94.808075 152.153168 
L 95.02113 152.133388 
L 99.95182 152.232289 
L 100.317057 152.37075 
L 100.438802 152.410311 
L 101.869311 153.458662 
L 102.72153 154.744377 
L 103.695493 156.88064 
L 104.517275 159.313607 
L 105.369493 162.438882 
L 110.056693 183.267454 
L 111.33502 187.065255 
L 111.578511 187.559761 
L 112.248111 188.647673 
L 112.400293 188.845475 
L 112.643784 189.181739 
L 113.161202 189.399321 
L 113.313384 189.359761 
L 113.496002 189.28064 
L 113.739493 189.122398 
L 113.891675 189.023497 
L 114.196039 188.707014 
L 114.561275 188.054266 
L 115.656984 184.90921 
L 117.11793 177.748772 
L 117.970148 172.13119 
L 119.735457 158.739981 
L 122.231239 136.724596 
L 124.05742 120.010311 
L 125.183566 110.733388 
L 126.918439 100.150971 
L 129.231602 90.14218 
L 129.596839 89.153172 
L 131.027348 87.47185 
L 131.727384 87.372949 
L 132.001311 87.096029 
L 132.305675 86.739985 
L 132.549166 86.601517 
L 132.914402 86.700424 
L 133.310075 86.838883 
L 133.918802 86.937784 
L 134.253602 87.274051 
L 134.618839 87.788333 
L 134.740584 87.867454 
L 134.953639 87.966355 
L 135.410184 88.065253 
L 135.744984 88.381737 
L 136.049348 88.876242 
L 136.353711 89.232286 
L 136.597202 89.370754 
L 137.084184 89.805913 
L 137.418984 90.419103 
L 137.905966 91.388333 
L 138.179893 91.902616 
L 138.940802 94.731194 
L 139.519093 97.480641 
L 140.432184 102.128989 
L 143.019275 117.913608 
L 144.997639 133.698223 
L 146.458584 144.913607 
L 149.045675 167.70042 
L 150.963166 184.157564 
L 152.698039 196.836684 
L 153.763311 203.107014 
L 155.589493 209.832291 
L 156.167784 210.761955 
L 156.441711 211.177343 
L 156.53302 211.256467 
L 156.776511 211.394929 
L 157.050439 211.454266 
L 157.263493 211.414706 
L 157.446111 211.414706 
L 157.841784 211.315805 
L 158.754875 209.950966 
L 160.55062 206.212511 
L 161.433275 203.641079 
L 162.194184 201.109211 
L 162.833348 198.656464 
L 163.685566 194.779541 
L 164.081239 192.821299 
L 164.811711 188.786135 
L 167.58142 174.959761 
L 168.037966 173.397124 
L 168.372766 172.507014 
L 169.164111 170.746574 
L 169.468475 170.35097 
L 169.59022 170.271849 
L 169.894584 170.054266 
L 170.412002 169.836684 
L 170.716366 169.935586 
L 171.294657 170.845475 
L 171.416402 171.043278 
L 172.329493 173.06086 
L 172.664293 174.227892 
L 173.516511 177.372947 
L 175.28182 185.918004 
L 176.62102 194.403717 
L 177.594984 201.128992 
L 179.847275 216.438885 
L 180.273384 218.555365 
L 181.703893 223.737783 
L 181.97782 224.469654 
L 182.282184 225.221296 
L 182.98222 226.744379 
L 183.286584 226.961955 
L 183.560511 226.882841 
L 184.625784 225.320203 
L 185.051893 223.915805 
L 185.904111 219.544376 
L 187.33462 207.537783 
L 188.734693 191.852069 
L 190.530439 167.067454 
L 195.613311 89.430092 
L 198.017784 64.09163 
L 198.961311 56.496026 
L 200.970111 42.867452 
L 201.700584 40.0191 
L 202.644111 37.863062 
L 203.40502 37.487235 
L 203.73982 37.388328 
L 203.952875 37.348773 
L 204.470293 37.803725 
L 204.987711 39.030089 
L 205.596439 41.364152 
L 207.08782 50.739976 
L 208.061784 57.46526 
L 208.670511 61.638883 
L 220.297202 151.46086 
L 221.697275 160.302618 
L 222.610366 166.058663 
L 226.201857 186.412508 
L 227.236693 191.219102 
L 228.484584 196.381739 
L 229.428111 199.625695 
L 230.85862 203.047673 
L 232.745675 206.964153 
L 233.050039 207.577343 
L 236.093675 215.192728 
L 236.55022 215.964156 
L 237.31113 217.21031 
L 237.463311 217.427892 
L 237.828548 217.902615 
L 238.498148 218.594925 
L 238.711202 218.693827 
L 238.954693 218.772947 
L 239.076439 218.772947 
L 240.872184 218.852071 
L 241.085239 218.970746 
L 241.206984 219.010307 
L 241.480911 219.109208 
L 241.66353 219.188332 
L 241.99833 219.28723 
L 242.363566 219.405914 
L 242.607057 219.504812 
L 243.550584 220.236684 
L 244.189748 221.245472 
L 245.224584 223.50042 
L 246.046366 225.33998 
L 248.481275 229.84987 
L 248.755202 230.12679 
L 248.93782 230.285035 
L 249.02913 230.324596 
L 249.850911 230.759764 
L 250.063966 230.720203 
L 250.216148 230.70042 
L 250.733566 230.482834 
L 251.03793 230.383936 
L 251.585784 229.909208 
L 252.011893 229.216903 
L 252.37713 228.405914 
L 252.681493 227.575145 
L 253.411966 224.825698 
L 254.812039 217.961958 
L 255.72513 211.988332 
L 257.06433 200.693827 
L 258.160039 189.755365 
L 259.803602 170.37075 
L 262.695057 129.425696 
L 264.795166 98.370751 
L 267.473566 63.280641 
L 268.660584 51.333386 
L 269.908475 41.720196 
L 270.912875 37.052067 
L 271.36942 35.687232 
L 272.160766 34.381744 
L 272.46513 34.144378 
L 272.830366 34.223499 
L 273.834766 35.667458 
L 274.778293 39.10921 
L 275.934875 45.69602 
L 276.48273 49.553166 
L 278.278475 64.408114 
L 280.439457 86.54218 
L 285.826693 144.854267 
L 290.45302 188.885036 
L 293.070548 208.447676 
L 294.044511 214.085035 
L 294.988039 217.86306 
L 295.688075 220.197123 
L 296.022875 221.087233 
L 297.696875 225.142181 
L 298.092548 225.696024 
L 299.005639 226.19053 
L 299.188257 226.19053 
L 299.431748 226.23009 
L 299.857857 226.131189 
L 301.105748 224.331186 
L 301.59273 223.183936 
L 301.957966 222.194929 
L 302.718875 219.920203 
L 303.358039 217.052065 
L 305.305966 203.70042 
L 306.736475 192.524596 
L 307.801748 184.157564 
L 308.53222 178.50042 
L 309.658366 170.588332 
L 311.514984 160.361959 
L 312.97593 153.24108 
L 313.493348 150.590531 
L 314.132511 147.485036 
L 315.928257 139.830092 
L 316.932657 136.328993 
L 317.541384 134.469651 
L 317.99793 132.907014 
L 321.68073 123.63009 
L 322.35033 122.087234 
L 323.01993 120.643278 
L 324.085202 118.348773 
L 324.420002 117.616905 
L 324.998293 116.27185 
L 326.215748 112.69163 
L 327.554948 109.487234 
L 327.646257 109.309212 
L 328.924584 106.282839 
L 330.202911 104.027894 
L 331.268184 102.8213 
L 331.450802 102.742179 
L 331.663857 102.643278 
L 332.029093 102.54438 
L 332.272584 102.504817 
L 332.576948 102.583941 
L 332.759566 102.663055 
L 332.97262 102.761963 
L 334.037893 103.572949 
L 334.616184 104.502622 
L 337.203275 111.524597 
L 338.603348 116.449872 
L 340.551275 125.825697 
L 341.494802 131.304817 
L 343.320984 142.638883 
L 344.568875 151.46086 
L 345.36022 157.909212 
L 347.642948 176.265256 
L 351.538802 203.324596 
L 352.39102 208.328991 
L 353.030184 211.77075 
L 353.760657 214.994922 
L 355.49553 221.344379 
L 356.560802 223.856464 
L 356.682548 223.955365 
L 356.986911 224.192724 
L 357.199966 224.291632 
L 357.50433 224.39053 
L 358.539166 223.599321 
L 359.239202 222.511412 
L 359.726184 220.968552 
L 360.608839 217.091626 
L 361.18713 213.986137 
L 361.734984 210.860863 
L 362.43502 206.64767 
L 364.900366 188.271849 
L 365.965639 179.568552 
L 366.909166 171.35976 
L 370.165857 140.739981 
L 371.718111 125.667455 
L 372.600766 118.566355 
L 373.666039 110.496025 
L 375.126984 100.843281 
L 376.49662 94.276242 
L 378.353239 87.452073 
L 379.022839 86.008114 
L 379.448948 85.414707 
L 379.875057 85.03888 
L 380.60553 84.682842 
L 380.788148 84.682842 
L 381.092511 84.781743 
L 381.792548 85.35537 
L 382.157784 85.830092 
L 382.583893 86.561963 
L 382.918693 87.214707 
L 382.918693 87.214707 
" style="fill:none;stroke:#ff0000;stroke-linecap:square;stroke-width:1.5;"/>
   </g>
   <g id="line2d_25">
    <path clip-path="url(#pe0fe85bab7)" d="M 123.996548 161.05846 
" style="fill:none;stroke:#ffffff;stroke-linecap:square;stroke-width:1.5;"/>
    <defs>
     <path d="M 0 -5 
L -1.12257 -1.545085 
L -4.755283 -1.545085 
L -1.816356 0.59017 
L -2.938926 4.045085 
L -0 1.90983 
L 2.938926 4.045085 
L 1.816356 0.59017 
L 4.755283 -1.545085 
L 1.12257 -1.545085 
z
" id="m5c1a8b360d" style="stroke:#ffffff;stroke-linejoin:bevel;"/>
    </defs>
    <g clip-path="url(#pe0fe85bab7)">
     <use style="fill:#0000ff;stroke:#ffffff;stroke-linejoin:bevel;" x="123.996548" xlink:href="#m5c1a8b360d" y="161.05846"/>
    </g>
   </g>
   <g id="line2d_26">
    <path clip-path="url(#pe0fe85bab7)" d="M 104.212911 158.344377 
" style="fill:none;stroke:#ffffff;stroke-linecap:square;stroke-width:1.5;"/>
    <defs>
     <path d="M 0 -5 
L -1.12257 -1.545085 
L -4.755283 -1.545085 
L -1.816356 0.59017 
L -2.938926 4.045085 
L -0 1.90983 
L 2.938926 4.045085 
L 1.816356 0.59017 
L 4.755283 -1.545085 
L 1.12257 -1.545085 
z
" id="m3a7c758c03" style="stroke:#ffffff;stroke-linejoin:bevel;"/>
    </defs>
    <g clip-path="url(#pe0fe85bab7)">
     <use style="fill:#ff0000;stroke:#ffffff;stroke-linejoin:bevel;" x="104.212911" xlink:href="#m3a7c758c03" y="158.344377"/>
    </g>
   </g>
   <g id="patch_3">
    <path d="M 63.336875 339.84 
L 63.336875 7.2 
" style="fill:none;stroke:#000000;stroke-linecap:square;stroke-linejoin:miter;stroke-width:0.8;"/>
   </g>
   <g id="patch_4">
    <path d="M 398.136875 339.84 
L 398.136875 7.2 
" style="fill:none;stroke:#000000;stroke-linecap:square;stroke-linejoin:miter;stroke-width:0.8;"/>
   </g>
   <g id="patch_5">
    <path d="M 63.336875 339.84 
L 398.136875 339.84 
" style="fill:none;stroke:#000000;stroke-linecap:square;stroke-linejoin:miter;stroke-width:0.8;"/>
   </g>
   <g id="patch_6">
    <path d="M 63.336875 7.2 
L 398.136875 7.2 
" style="fill:none;stroke:#000000;stroke-linecap:square;stroke-linejoin:miter;stroke-width:0.8;"/>
   </g>
   <g id="text_14">
    <g id="patch_7">
     <path d="M 75.036875 331.242688 
L 166.79375 331.242688 
L 166.79375 293.760312 
L 75.036875 293.760312 
z
" style="fill:#ffffff;stroke:#000000;stroke-linejoin:miter;stroke-width:0.75;"/>
    </g>
    <!-- Auto_00130 -->
    <g transform="translate(80.076875 308.521563)scale(0.14 -0.14)">
     <defs>
      <path d="M 2928 1419 
L 1288 1419 
L 1000 750 
Q 894 503 894 381 
Q 894 284 986 211 
Q 1078 138 1384 116 
L 1384 0 
L 50 0 
L 50 116 
Q 316 163 394 238 
Q 553 388 747 847 
L 2238 4334 
L 2347 4334 
L 3822 809 
Q 4000 384 4145 257 
Q 4291 131 4550 116 
L 4550 0 
L 2878 0 
L 2878 116 
Q 3131 128 3220 200 
Q 3309 272 3309 375 
Q 3309 513 3184 809 
L 2928 1419 
z
M 2841 1650 
L 2122 3363 
L 1384 1650 
L 2841 1650 
z
" id="TimesNewRomanPSMT-41" transform="scale(0.015625)"/>
      <path d="M 2709 2863 
L 2709 1128 
Q 2709 631 2732 520 
Q 2756 409 2807 365 
Q 2859 322 2928 322 
Q 3025 322 3147 375 
L 3191 266 
L 2334 -88 
L 2194 -88 
L 2194 519 
Q 1825 119 1631 15 
Q 1438 -88 1222 -88 
Q 981 -88 804 51 
Q 628 191 559 409 
Q 491 628 491 1028 
L 491 2306 
Q 491 2509 447 2587 
Q 403 2666 317 2708 
Q 231 2750 6 2747 
L 6 2863 
L 1009 2863 
L 1009 947 
Q 1009 547 1148 422 
Q 1288 297 1484 297 
Q 1619 297 1789 381 
Q 1959 466 2194 703 
L 2194 2325 
Q 2194 2569 2105 2655 
Q 2016 2741 1734 2747 
L 1734 2863 
L 2709 2863 
z
" id="TimesNewRomanPSMT-75" transform="scale(0.015625)"/>
      <path d="M 3256 -1381 
L -53 -1381 
L -53 -1119 
L 3256 -1119 
L 3256 -1381 
z
" id="TimesNewRomanPSMT-5f" transform="scale(0.015625)"/>
     </defs>
     <use xlink:href="#TimesNewRomanPSMT-41"/>
     <use x="72.216797" xlink:href="#TimesNewRomanPSMT-75"/>
     <use x="122.216797" xlink:href="#TimesNewRomanPSMT-74"/>
     <use x="150" xlink:href="#TimesNewRomanPSMT-6f"/>
     <use x="200" xlink:href="#TimesNewRomanPSMT-5f"/>
     <use x="250" xlink:href="#TimesNewRomanPSMT-30"/>
     <use x="300" xlink:href="#TimesNewRomanPSMT-30"/>
     <use x="350" xlink:href="#TimesNewRomanPSMT-31"/>
     <use x="400" xlink:href="#TimesNewRomanPSMT-33"/>
     <use x="450" xlink:href="#TimesNewRomanPSMT-30"/>
    </g>
    <!-- Vs: 307.51m/s -->
    <g transform="translate(80.076875 323.208)scale(0.14 -0.14)">
     <defs>
      <path d="M 903 2950 
Q 1047 2950 1148 2848 
Q 1250 2747 1250 2603 
Q 1250 2459 1148 2357 
Q 1047 2256 903 2256 
Q 759 2256 657 2357 
Q 556 2459 556 2603 
Q 556 2747 657 2848 
Q 759 2950 903 2950 
z
M 897 609 
Q 1044 609 1145 506 
Q 1247 403 1247 259 
Q 1247 116 1144 14 
Q 1041 -88 897 -88 
Q 753 -88 651 14 
Q 550 116 550 259 
Q 550 403 651 506 
Q 753 609 897 609 
z
" id="TimesNewRomanPSMT-3a" transform="scale(0.015625)"/>
      <path d="M 644 4238 
L 2916 4238 
L 2916 4119 
L 1503 -88 
L 1153 -88 
L 2419 3728 
L 1253 3728 
Q 900 3728 750 3644 
Q 488 3500 328 3200 
L 238 3234 
L 644 4238 
z
" id="TimesNewRomanPSMT-37" transform="scale(0.015625)"/>
      <path d="M 1794 4444 
L 259 -88 
L 9 -88 
L 1544 4444 
L 1794 4444 
z
" id="TimesNewRomanPSMT-2f" transform="scale(0.015625)"/>
     </defs>
     <use xlink:href="#TimesNewRomanPSMT-56"/>
     <use x="72.216797" xlink:href="#TimesNewRomanPSMT-73"/>
     <use x="111.132812" xlink:href="#TimesNewRomanPSMT-3a"/>
     <use x="138.916016" xlink:href="#TimesNewRomanPSMT-20"/>
     <use x="163.916016" xlink:href="#TimesNewRomanPSMT-33"/>
     <use x="213.916016" xlink:href="#TimesNewRomanPSMT-30"/>
     <use x="263.916016" xlink:href="#TimesNewRomanPSMT-37"/>
     <use x="313.916016" xlink:href="#TimesNewRomanPSMT-2e"/>
     <use x="338.916016" xlink:href="#TimesNewRomanPSMT-35"/>
     <use x="388.916016" xlink:href="#TimesNewRomanPSMT-31"/>
     <use x="438.916016" xlink:href="#TimesNewRomanPSMT-6d"/>
     <use x="516.699219" xlink:href="#TimesNewRomanPSMT-2f"/>
     <use x="544.482422" xlink:href="#TimesNewRomanPSMT-73"/>
    </g>
   </g>
  </g>
 </g>
 <defs>
  <clipPath id="pe0fe85bab7">
   <rect height="332.64" width="334.8" x="63.336875" y="7.2"/>
  </clipPath>
 </defs>
</svg>
