<?xml version="1.0" encoding="utf-8" standalone="no"?>
<!DOCTYPE svg PUBLIC "-//W3C//DTD SVG 1.1//EN"
  "http://www.w3.org/Graphics/SVG/1.1/DTD/svg11.dtd">
<svg height="383.471875pt" version="1.1" viewBox="0 0 421.086875 383.471875" width="421.086875pt" xmlns="http://www.w3.org/2000/svg" xmlns:xlink="http://www.w3.org/1999/xlink">
 <metadata>
  <rdf:RDF xmlns:cc="http://creativecommons.org/ns#" xmlns:dc="http://purl.org/dc/elements/1.1/" xmlns:rdf="http://www.w3.org/1999/02/22-rdf-syntax-ns#">
   <cc:Work>
    <dc:type rdf:resource="http://purl.org/dc/dcmitype/StillImage"/>
    <dc:date>2021-06-11T14:39:37.058856</dc:date>
    <dc:format>image/svg+xml</dc:format>
    <dc:creator>
     <cc:Agent>
      <dc:title>Matplotlib v3.4.2, https://matplotlib.org/</dc:title>
     </cc:Agent>
    </dc:creator>
   </cc:Work>
  </rdf:RDF>
 </metadata>
 <defs>
  <style type="text/css">*{stroke-linecap:butt;stroke-linejoin:round;}</style>
 </defs>
 <g id="figure_1">
  <g id="patch_1">
   <path d="M 0 383.471875 
L 421.086875 383.471875 
L 421.086875 0 
L 0 0 
z
" style="fill:#ffffff;"/>
  </g>
  <g id="axes_1">
   <g id="patch_2">
    <path d="M 63.336875 339.84 
L 398.136875 339.84 
L 398.136875 7.2 
L 63.336875 7.2 
z
" style="fill:#ffffff;"/>
   </g>
   <g id="matplotlib.axis_1">
    <g id="xtick_1">
     <g id="line2d_1">
      <path clip-path="url(#p4b373dfcb1)" d="M 93.773239 339.84 
L 93.773239 7.2 
" style="fill:none;stroke:#000000;stroke-dasharray:0.5,0.825;stroke-dashoffset:0;stroke-width:0.5;"/>
     </g>
     <g id="line2d_2">
      <defs>
       <path d="M 0 0 
L 0 3.5 
" id="mfbf638c2bb" style="stroke:#000000;stroke-width:0.8;"/>
      </defs>
      <g>
       <use style="stroke:#000000;stroke-width:0.8;" x="93.773239" xlink:href="#mfbf638c2bb" y="339.84"/>
      </g>
     </g>
     <g id="text_1">
      <!-- 0.000 -->
      <g transform="translate(78.023239 356.56125)scale(0.14 -0.14)">
       <defs>
        <path d="M 231 2094 
Q 231 2819 450 3342 
Q 669 3866 1031 4122 
Q 1313 4325 1613 4325 
Q 2100 4325 2488 3828 
Q 2972 3213 2972 2159 
Q 2972 1422 2759 906 
Q 2547 391 2217 158 
Q 1888 -75 1581 -75 
Q 975 -75 572 641 
Q 231 1244 231 2094 
z
M 844 2016 
Q 844 1141 1059 588 
Q 1238 122 1591 122 
Q 1759 122 1940 273 
Q 2122 425 2216 781 
Q 2359 1319 2359 2297 
Q 2359 3022 2209 3506 
Q 2097 3866 1919 4016 
Q 1791 4119 1609 4119 
Q 1397 4119 1231 3928 
Q 1006 3669 925 3112 
Q 844 2556 844 2016 
z
" id="TimesNewRomanPSMT-30" transform="scale(0.015625)"/>
        <path d="M 800 606 
Q 947 606 1047 504 
Q 1147 403 1147 259 
Q 1147 116 1045 14 
Q 944 -88 800 -88 
Q 656 -88 554 14 
Q 453 116 453 259 
Q 453 406 554 506 
Q 656 606 800 606 
z
" id="TimesNewRomanPSMT-2e" transform="scale(0.015625)"/>
       </defs>
       <use xlink:href="#TimesNewRomanPSMT-30"/>
       <use x="50" xlink:href="#TimesNewRomanPSMT-2e"/>
       <use x="75" xlink:href="#TimesNewRomanPSMT-30"/>
       <use x="125" xlink:href="#TimesNewRomanPSMT-30"/>
       <use x="175" xlink:href="#TimesNewRomanPSMT-30"/>
      </g>
     </g>
    </g>
    <g id="xtick_2">
     <g id="line2d_3">
      <path clip-path="url(#p4b373dfcb1)" d="M 154.645966 339.84 
L 154.645966 7.2 
" style="fill:none;stroke:#000000;stroke-dasharray:0.5,0.825;stroke-dashoffset:0;stroke-width:0.5;"/>
     </g>
     <g id="line2d_4">
      <g>
       <use style="stroke:#000000;stroke-width:0.8;" x="154.645966" xlink:href="#mfbf638c2bb" y="339.84"/>
      </g>
     </g>
     <g id="text_2">
      <!-- 0.001 -->
      <g transform="translate(138.895966 356.56125)scale(0.14 -0.14)">
       <defs>
        <path d="M 750 3822 
L 1781 4325 
L 1884 4325 
L 1884 747 
Q 1884 391 1914 303 
Q 1944 216 2037 169 
Q 2131 122 2419 116 
L 2419 0 
L 825 0 
L 825 116 
Q 1125 122 1212 167 
Q 1300 213 1334 289 
Q 1369 366 1369 747 
L 1369 3034 
Q 1369 3497 1338 3628 
Q 1316 3728 1258 3775 
Q 1200 3822 1119 3822 
Q 1003 3822 797 3725 
L 750 3822 
z
" id="TimesNewRomanPSMT-31" transform="scale(0.015625)"/>
       </defs>
       <use xlink:href="#TimesNewRomanPSMT-30"/>
       <use x="50" xlink:href="#TimesNewRomanPSMT-2e"/>
       <use x="75" xlink:href="#TimesNewRomanPSMT-30"/>
       <use x="125" xlink:href="#TimesNewRomanPSMT-30"/>
       <use x="175" xlink:href="#TimesNewRomanPSMT-31"/>
      </g>
     </g>
    </g>
    <g id="xtick_3">
     <g id="line2d_5">
      <path clip-path="url(#p4b373dfcb1)" d="M 215.518693 339.84 
L 215.518693 7.2 
" style="fill:none;stroke:#000000;stroke-dasharray:0.5,0.825;stroke-dashoffset:0;stroke-width:0.5;"/>
     </g>
     <g id="line2d_6">
      <g>
       <use style="stroke:#000000;stroke-width:0.8;" x="215.518693" xlink:href="#mfbf638c2bb" y="339.84"/>
      </g>
     </g>
     <g id="text_3">
      <!-- 0.002 -->
      <g transform="translate(199.768693 356.56125)scale(0.14 -0.14)">
       <defs>
        <path d="M 2934 816 
L 2638 0 
L 138 0 
L 138 116 
Q 1241 1122 1691 1759 
Q 2141 2397 2141 2925 
Q 2141 3328 1894 3587 
Q 1647 3847 1303 3847 
Q 991 3847 742 3664 
Q 494 3481 375 3128 
L 259 3128 
Q 338 3706 661 4015 
Q 984 4325 1469 4325 
Q 1984 4325 2329 3994 
Q 2675 3663 2675 3213 
Q 2675 2891 2525 2569 
Q 2294 2063 1775 1497 
Q 997 647 803 472 
L 1909 472 
Q 2247 472 2383 497 
Q 2519 522 2628 598 
Q 2738 675 2819 816 
L 2934 816 
z
" id="TimesNewRomanPSMT-32" transform="scale(0.015625)"/>
       </defs>
       <use xlink:href="#TimesNewRomanPSMT-30"/>
       <use x="50" xlink:href="#TimesNewRomanPSMT-2e"/>
       <use x="75" xlink:href="#TimesNewRomanPSMT-30"/>
       <use x="125" xlink:href="#TimesNewRomanPSMT-30"/>
       <use x="175" xlink:href="#TimesNewRomanPSMT-32"/>
      </g>
     </g>
    </g>
    <g id="xtick_4">
     <g id="line2d_7">
      <path clip-path="url(#p4b373dfcb1)" d="M 276.39142 339.84 
L 276.39142 7.2 
" style="fill:none;stroke:#000000;stroke-dasharray:0.5,0.825;stroke-dashoffset:0;stroke-width:0.5;"/>
     </g>
     <g id="line2d_8">
      <g>
       <use style="stroke:#000000;stroke-width:0.8;" x="276.39142" xlink:href="#mfbf638c2bb" y="339.84"/>
      </g>
     </g>
     <g id="text_4">
      <!-- 0.003 -->
      <g transform="translate(260.64142 356.56125)scale(0.14 -0.14)">
       <defs>
        <path d="M 325 3431 
Q 506 3859 782 4092 
Q 1059 4325 1472 4325 
Q 1981 4325 2253 3994 
Q 2459 3747 2459 3466 
Q 2459 3003 1878 2509 
Q 2269 2356 2469 2072 
Q 2669 1788 2669 1403 
Q 2669 853 2319 450 
Q 1863 -75 997 -75 
Q 569 -75 414 31 
Q 259 138 259 259 
Q 259 350 332 419 
Q 406 488 509 488 
Q 588 488 669 463 
Q 722 447 909 348 
Q 1097 250 1169 231 
Q 1284 197 1416 197 
Q 1734 197 1970 444 
Q 2206 691 2206 1028 
Q 2206 1275 2097 1509 
Q 2016 1684 1919 1775 
Q 1784 1900 1550 2001 
Q 1316 2103 1072 2103 
L 972 2103 
L 972 2197 
Q 1219 2228 1467 2375 
Q 1716 2522 1828 2728 
Q 1941 2934 1941 3181 
Q 1941 3503 1739 3701 
Q 1538 3900 1238 3900 
Q 753 3900 428 3381 
L 325 3431 
z
" id="TimesNewRomanPSMT-33" transform="scale(0.015625)"/>
       </defs>
       <use xlink:href="#TimesNewRomanPSMT-30"/>
       <use x="50" xlink:href="#TimesNewRomanPSMT-2e"/>
       <use x="75" xlink:href="#TimesNewRomanPSMT-30"/>
       <use x="125" xlink:href="#TimesNewRomanPSMT-30"/>
       <use x="175" xlink:href="#TimesNewRomanPSMT-33"/>
      </g>
     </g>
    </g>
    <g id="xtick_5">
     <g id="line2d_9">
      <path clip-path="url(#p4b373dfcb1)" d="M 337.264148 339.84 
L 337.264148 7.2 
" style="fill:none;stroke:#000000;stroke-dasharray:0.5,0.825;stroke-dashoffset:0;stroke-width:0.5;"/>
     </g>
     <g id="line2d_10">
      <g>
       <use style="stroke:#000000;stroke-width:0.8;" x="337.264148" xlink:href="#mfbf638c2bb" y="339.84"/>
      </g>
     </g>
     <g id="text_5">
      <!-- 0.004 -->
      <g transform="translate(321.514148 356.56125)scale(0.14 -0.14)">
       <defs>
        <path d="M 2978 1563 
L 2978 1119 
L 2409 1119 
L 2409 0 
L 1894 0 
L 1894 1119 
L 100 1119 
L 100 1519 
L 2066 4325 
L 2409 4325 
L 2409 1563 
L 2978 1563 
z
M 1894 1563 
L 1894 3666 
L 406 1563 
L 1894 1563 
z
" id="TimesNewRomanPSMT-34" transform="scale(0.015625)"/>
       </defs>
       <use xlink:href="#TimesNewRomanPSMT-30"/>
       <use x="50" xlink:href="#TimesNewRomanPSMT-2e"/>
       <use x="75" xlink:href="#TimesNewRomanPSMT-30"/>
       <use x="125" xlink:href="#TimesNewRomanPSMT-30"/>
       <use x="175" xlink:href="#TimesNewRomanPSMT-34"/>
      </g>
     </g>
    </g>
    <g id="xtick_6">
     <g id="line2d_11">
      <path clip-path="url(#p4b373dfcb1)" d="M 398.136875 339.84 
L 398.136875 7.2 
" style="fill:none;stroke:#000000;stroke-dasharray:0.5,0.825;stroke-dashoffset:0;stroke-width:0.5;"/>
     </g>
     <g id="line2d_12">
      <g>
       <use style="stroke:#000000;stroke-width:0.8;" x="398.136875" xlink:href="#mfbf638c2bb" y="339.84"/>
      </g>
     </g>
     <g id="text_6">
      <!-- 0.005 -->
      <g transform="translate(382.386875 356.56125)scale(0.14 -0.14)">
       <defs>
        <path d="M 2778 4238 
L 2534 3706 
L 1259 3706 
L 981 3138 
Q 1809 3016 2294 2522 
Q 2709 2097 2709 1522 
Q 2709 1188 2573 903 
Q 2438 619 2231 419 
Q 2025 219 1772 97 
Q 1413 -75 1034 -75 
Q 653 -75 479 54 
Q 306 184 306 341 
Q 306 428 378 495 
Q 450 563 559 563 
Q 641 563 702 538 
Q 763 513 909 409 
Q 1144 247 1384 247 
Q 1750 247 2026 523 
Q 2303 800 2303 1197 
Q 2303 1581 2056 1914 
Q 1809 2247 1375 2428 
Q 1034 2569 447 2591 
L 1259 4238 
L 2778 4238 
z
" id="TimesNewRomanPSMT-35" transform="scale(0.015625)"/>
       </defs>
       <use xlink:href="#TimesNewRomanPSMT-30"/>
       <use x="50" xlink:href="#TimesNewRomanPSMT-2e"/>
       <use x="75" xlink:href="#TimesNewRomanPSMT-30"/>
       <use x="125" xlink:href="#TimesNewRomanPSMT-30"/>
       <use x="175" xlink:href="#TimesNewRomanPSMT-35"/>
      </g>
     </g>
    </g>
    <g id="text_7">
     <!-- Time (sec) -->
     <g transform="translate(200.858906 373.277188)scale(0.14 -0.14)">
      <defs>
       <path d="M 3703 4238 
L 3750 3244 
L 3631 3244 
Q 3597 3506 3538 3619 
Q 3441 3800 3280 3886 
Q 3119 3972 2856 3972 
L 2259 3972 
L 2259 734 
Q 2259 344 2344 247 
Q 2463 116 2709 116 
L 2856 116 
L 2856 0 
L 1059 0 
L 1059 116 
L 1209 116 
Q 1478 116 1591 278 
Q 1659 378 1659 734 
L 1659 3972 
L 1150 3972 
Q 853 3972 728 3928 
Q 566 3869 450 3700 
Q 334 3531 313 3244 
L 194 3244 
L 244 4238 
L 3703 4238 
z
" id="TimesNewRomanPSMT-54" transform="scale(0.015625)"/>
       <path d="M 928 4444 
Q 1059 4444 1151 4351 
Q 1244 4259 1244 4128 
Q 1244 3997 1151 3903 
Q 1059 3809 928 3809 
Q 797 3809 703 3903 
Q 609 3997 609 4128 
Q 609 4259 701 4351 
Q 794 4444 928 4444 
z
M 1188 2947 
L 1188 647 
Q 1188 378 1227 289 
Q 1266 200 1342 156 
Q 1419 113 1622 113 
L 1622 0 
L 231 0 
L 231 113 
Q 441 113 512 153 
Q 584 194 626 287 
Q 669 381 669 647 
L 669 1750 
Q 669 2216 641 2353 
Q 619 2453 572 2492 
Q 525 2531 444 2531 
Q 356 2531 231 2484 
L 188 2597 
L 1050 2947 
L 1188 2947 
z
" id="TimesNewRomanPSMT-69" transform="scale(0.015625)"/>
       <path d="M 1050 2338 
Q 1363 2650 1419 2697 
Q 1559 2816 1721 2881 
Q 1884 2947 2044 2947 
Q 2313 2947 2506 2790 
Q 2700 2634 2766 2338 
Q 3088 2713 3309 2830 
Q 3531 2947 3766 2947 
Q 3994 2947 4170 2830 
Q 4347 2713 4450 2447 
Q 4519 2266 4519 1878 
L 4519 647 
Q 4519 378 4559 278 
Q 4591 209 4675 161 
Q 4759 113 4950 113 
L 4950 0 
L 3538 0 
L 3538 113 
L 3597 113 
Q 3781 113 3884 184 
Q 3956 234 3988 344 
Q 4000 397 4000 647 
L 4000 1878 
Q 4000 2228 3916 2372 
Q 3794 2572 3525 2572 
Q 3359 2572 3192 2489 
Q 3025 2406 2788 2181 
L 2781 2147 
L 2788 2013 
L 2788 647 
Q 2788 353 2820 281 
Q 2853 209 2943 161 
Q 3034 113 3253 113 
L 3253 0 
L 1806 0 
L 1806 113 
Q 2044 113 2133 169 
Q 2222 225 2256 338 
Q 2272 391 2272 647 
L 2272 1878 
Q 2272 2228 2169 2381 
Q 2031 2581 1784 2581 
Q 1616 2581 1450 2491 
Q 1191 2353 1050 2181 
L 1050 647 
Q 1050 366 1089 281 
Q 1128 197 1204 155 
Q 1281 113 1516 113 
L 1516 0 
L 100 0 
L 100 113 
Q 297 113 375 155 
Q 453 197 493 289 
Q 534 381 534 647 
L 534 1741 
Q 534 2213 506 2350 
Q 484 2453 437 2492 
Q 391 2531 309 2531 
Q 222 2531 100 2484 
L 53 2597 
L 916 2947 
L 1050 2947 
L 1050 2338 
z
" id="TimesNewRomanPSMT-6d" transform="scale(0.015625)"/>
       <path d="M 681 1784 
Q 678 1147 991 784 
Q 1303 422 1725 422 
Q 2006 422 2214 576 
Q 2422 731 2563 1106 
L 2659 1044 
Q 2594 616 2278 264 
Q 1963 -88 1488 -88 
Q 972 -88 605 314 
Q 238 716 238 1394 
Q 238 2128 614 2539 
Q 991 2950 1559 2950 
Q 2041 2950 2350 2633 
Q 2659 2316 2659 1784 
L 681 1784 
z
M 681 1966 
L 2006 1966 
Q 1991 2241 1941 2353 
Q 1863 2528 1708 2628 
Q 1553 2728 1384 2728 
Q 1125 2728 920 2526 
Q 716 2325 681 1966 
z
" id="TimesNewRomanPSMT-65" transform="scale(0.015625)"/>
       <path id="TimesNewRomanPSMT-20" transform="scale(0.015625)"/>
       <path d="M 1988 -1253 
L 1988 -1369 
Q 1516 -1131 1200 -813 
Q 750 -359 506 256 
Q 263 872 263 1534 
Q 263 2503 741 3301 
Q 1219 4100 1988 4444 
L 1988 4313 
Q 1603 4100 1356 3731 
Q 1109 3363 987 2797 
Q 866 2231 866 1616 
Q 866 947 969 400 
Q 1050 -31 1165 -292 
Q 1281 -553 1476 -793 
Q 1672 -1034 1988 -1253 
z
" id="TimesNewRomanPSMT-28" transform="scale(0.015625)"/>
       <path d="M 2050 2947 
L 2050 1972 
L 1947 1972 
Q 1828 2431 1642 2597 
Q 1456 2763 1169 2763 
Q 950 2763 815 2647 
Q 681 2531 681 2391 
Q 681 2216 781 2091 
Q 878 1963 1175 1819 
L 1631 1597 
Q 2266 1288 2266 781 
Q 2266 391 1970 151 
Q 1675 -88 1309 -88 
Q 1047 -88 709 6 
Q 606 38 541 38 
Q 469 38 428 -44 
L 325 -44 
L 325 978 
L 428 978 
Q 516 541 762 319 
Q 1009 97 1316 97 
Q 1531 97 1667 223 
Q 1803 350 1803 528 
Q 1803 744 1651 891 
Q 1500 1038 1047 1263 
Q 594 1488 453 1669 
Q 313 1847 313 2119 
Q 313 2472 555 2709 
Q 797 2947 1181 2947 
Q 1350 2947 1591 2875 
Q 1750 2828 1803 2828 
Q 1853 2828 1881 2850 
Q 1909 2872 1947 2947 
L 2050 2947 
z
" id="TimesNewRomanPSMT-73" transform="scale(0.015625)"/>
       <path d="M 2631 1088 
Q 2516 522 2178 217 
Q 1841 -88 1431 -88 
Q 944 -88 581 321 
Q 219 731 219 1428 
Q 219 2103 620 2525 
Q 1022 2947 1584 2947 
Q 2006 2947 2278 2723 
Q 2550 2500 2550 2259 
Q 2550 2141 2473 2067 
Q 2397 1994 2259 1994 
Q 2075 1994 1981 2113 
Q 1928 2178 1911 2362 
Q 1894 2547 1784 2644 
Q 1675 2738 1481 2738 
Q 1169 2738 978 2506 
Q 725 2200 725 1697 
Q 725 1184 976 792 
Q 1228 400 1656 400 
Q 1963 400 2206 609 
Q 2378 753 2541 1131 
L 2631 1088 
z
" id="TimesNewRomanPSMT-63" transform="scale(0.015625)"/>
       <path d="M 144 4313 
L 144 4444 
Q 619 4209 934 3891 
Q 1381 3434 1625 2820 
Q 1869 2206 1869 1541 
Q 1869 572 1392 -226 
Q 916 -1025 144 -1369 
L 144 -1253 
Q 528 -1038 776 -670 
Q 1025 -303 1145 264 
Q 1266 831 1266 1447 
Q 1266 2113 1163 2663 
Q 1084 3094 967 3353 
Q 850 3613 656 3853 
Q 463 4094 144 4313 
z
" id="TimesNewRomanPSMT-29" transform="scale(0.015625)"/>
      </defs>
      <use xlink:href="#TimesNewRomanPSMT-54"/>
      <use x="57.583984" xlink:href="#TimesNewRomanPSMT-69"/>
      <use x="85.367188" xlink:href="#TimesNewRomanPSMT-6d"/>
      <use x="163.150391" xlink:href="#TimesNewRomanPSMT-65"/>
      <use x="207.535156" xlink:href="#TimesNewRomanPSMT-20"/>
      <use x="232.535156" xlink:href="#TimesNewRomanPSMT-28"/>
      <use x="265.835938" xlink:href="#TimesNewRomanPSMT-73"/>
      <use x="304.751953" xlink:href="#TimesNewRomanPSMT-65"/>
      <use x="349.136719" xlink:href="#TimesNewRomanPSMT-63"/>
      <use x="393.521484" xlink:href="#TimesNewRomanPSMT-29"/>
     </g>
    </g>
   </g>
   <g id="matplotlib.axis_2">
    <g id="ytick_1">
     <g id="line2d_13">
      <path clip-path="url(#p4b373dfcb1)" d="M 63.336875 337.912885 
L 398.136875 337.912885 
" style="fill:none;stroke:#000000;stroke-dasharray:0.5,0.825;stroke-dashoffset:0;stroke-width:0.5;"/>
     </g>
     <g id="line2d_14">
      <defs>
       <path d="M 0 0 
L -3.5 0 
" id="m34737800d0" style="stroke:#000000;stroke-width:0.8;"/>
      </defs>
      <g>
       <use style="stroke:#000000;stroke-width:0.8;" x="63.336875" xlink:href="#m34737800d0" y="337.912885"/>
      </g>
     </g>
     <g id="text_8">
      <!-- −0.08 -->
      <g transform="translate(23.942188 342.77351)scale(0.14 -0.14)">
       <defs>
        <path d="M 3484 2000 
L 116 2000 
L 116 2256 
L 3484 2256 
L 3484 2000 
z
" id="TimesNewRomanPSMT-2212" transform="scale(0.015625)"/>
        <path d="M 1228 2134 
Q 725 2547 579 2797 
Q 434 3047 434 3316 
Q 434 3728 753 4026 
Q 1072 4325 1600 4325 
Q 2113 4325 2425 4047 
Q 2738 3769 2738 3413 
Q 2738 3175 2569 2928 
Q 2400 2681 1866 2347 
Q 2416 1922 2594 1678 
Q 2831 1359 2831 1006 
Q 2831 559 2490 242 
Q 2150 -75 1597 -75 
Q 994 -75 656 303 
Q 388 606 388 966 
Q 388 1247 577 1523 
Q 766 1800 1228 2134 
z
M 1719 2469 
Q 2094 2806 2194 3001 
Q 2294 3197 2294 3444 
Q 2294 3772 2109 3958 
Q 1925 4144 1606 4144 
Q 1288 4144 1088 3959 
Q 888 3775 888 3528 
Q 888 3366 970 3203 
Q 1053 3041 1206 2894 
L 1719 2469 
z
M 1375 2016 
Q 1116 1797 991 1539 
Q 866 1281 866 981 
Q 866 578 1086 336 
Q 1306 94 1647 94 
Q 1984 94 2187 284 
Q 2391 475 2391 747 
Q 2391 972 2272 1150 
Q 2050 1481 1375 2016 
z
" id="TimesNewRomanPSMT-38" transform="scale(0.015625)"/>
       </defs>
       <use xlink:href="#TimesNewRomanPSMT-2212"/>
       <use x="56.396484" xlink:href="#TimesNewRomanPSMT-30"/>
       <use x="106.396484" xlink:href="#TimesNewRomanPSMT-2e"/>
       <use x="131.396484" xlink:href="#TimesNewRomanPSMT-30"/>
       <use x="181.396484" xlink:href="#TimesNewRomanPSMT-38"/>
      </g>
     </g>
    </g>
    <g id="ytick_2">
     <g id="line2d_15">
      <path clip-path="url(#p4b373dfcb1)" d="M 63.336875 292.64766 
L 398.136875 292.64766 
" style="fill:none;stroke:#000000;stroke-dasharray:0.5,0.825;stroke-dashoffset:0;stroke-width:0.5;"/>
     </g>
     <g id="line2d_16">
      <g>
       <use style="stroke:#000000;stroke-width:0.8;" x="63.336875" xlink:href="#m34737800d0" y="292.64766"/>
      </g>
     </g>
     <g id="text_9">
      <!-- −0.06 -->
      <g transform="translate(23.942188 297.508285)scale(0.14 -0.14)">
       <defs>
        <path d="M 2869 4325 
L 2869 4209 
Q 2456 4169 2195 4045 
Q 1934 3922 1679 3669 
Q 1425 3416 1258 3105 
Q 1091 2794 978 2366 
Q 1428 2675 1881 2675 
Q 2316 2675 2634 2325 
Q 2953 1975 2953 1425 
Q 2953 894 2631 456 
Q 2244 -75 1606 -75 
Q 1172 -75 869 213 
Q 275 772 275 1663 
Q 275 2231 503 2743 
Q 731 3256 1154 3653 
Q 1578 4050 1965 4187 
Q 2353 4325 2688 4325 
L 2869 4325 
z
M 925 2138 
Q 869 1716 869 1456 
Q 869 1156 980 804 
Q 1091 453 1309 247 
Q 1469 100 1697 100 
Q 1969 100 2183 356 
Q 2397 613 2397 1088 
Q 2397 1622 2184 2012 
Q 1972 2403 1581 2403 
Q 1463 2403 1327 2353 
Q 1191 2303 925 2138 
z
" id="TimesNewRomanPSMT-36" transform="scale(0.015625)"/>
       </defs>
       <use xlink:href="#TimesNewRomanPSMT-2212"/>
       <use x="56.396484" xlink:href="#TimesNewRomanPSMT-30"/>
       <use x="106.396484" xlink:href="#TimesNewRomanPSMT-2e"/>
       <use x="131.396484" xlink:href="#TimesNewRomanPSMT-30"/>
       <use x="181.396484" xlink:href="#TimesNewRomanPSMT-36"/>
      </g>
     </g>
    </g>
    <g id="ytick_3">
     <g id="line2d_17">
      <path clip-path="url(#p4b373dfcb1)" d="M 63.336875 247.382434 
L 398.136875 247.382434 
" style="fill:none;stroke:#000000;stroke-dasharray:0.5,0.825;stroke-dashoffset:0;stroke-width:0.5;"/>
     </g>
     <g id="line2d_18">
      <g>
       <use style="stroke:#000000;stroke-width:0.8;" x="63.336875" xlink:href="#m34737800d0" y="247.382434"/>
      </g>
     </g>
     <g id="text_10">
      <!-- −0.04 -->
      <g transform="translate(23.942188 252.243059)scale(0.14 -0.14)">
       <use xlink:href="#TimesNewRomanPSMT-2212"/>
       <use x="56.396484" xlink:href="#TimesNewRomanPSMT-30"/>
       <use x="106.396484" xlink:href="#TimesNewRomanPSMT-2e"/>
       <use x="131.396484" xlink:href="#TimesNewRomanPSMT-30"/>
       <use x="181.396484" xlink:href="#TimesNewRomanPSMT-34"/>
      </g>
     </g>
    </g>
    <g id="ytick_4">
     <g id="line2d_19">
      <path clip-path="url(#p4b373dfcb1)" d="M 63.336875 202.117209 
L 398.136875 202.117209 
" style="fill:none;stroke:#000000;stroke-dasharray:0.5,0.825;stroke-dashoffset:0;stroke-width:0.5;"/>
     </g>
     <g id="line2d_20">
      <g>
       <use style="stroke:#000000;stroke-width:0.8;" x="63.336875" xlink:href="#m34737800d0" y="202.117209"/>
      </g>
     </g>
     <g id="text_11">
      <!-- −0.02 -->
      <g transform="translate(23.942188 206.977834)scale(0.14 -0.14)">
       <use xlink:href="#TimesNewRomanPSMT-2212"/>
       <use x="56.396484" xlink:href="#TimesNewRomanPSMT-30"/>
       <use x="106.396484" xlink:href="#TimesNewRomanPSMT-2e"/>
       <use x="131.396484" xlink:href="#TimesNewRomanPSMT-30"/>
       <use x="181.396484" xlink:href="#TimesNewRomanPSMT-32"/>
      </g>
     </g>
    </g>
    <g id="ytick_5">
     <g id="line2d_21">
      <path clip-path="url(#p4b373dfcb1)" d="M 63.336875 156.851984 
L 398.136875 156.851984 
" style="fill:none;stroke:#000000;stroke-dasharray:0.5,0.825;stroke-dashoffset:0;stroke-width:0.5;"/>
     </g>
     <g id="line2d_22">
      <g>
       <use style="stroke:#000000;stroke-width:0.8;" x="63.336875" xlink:href="#m34737800d0" y="156.851984"/>
      </g>
     </g>
     <g id="text_12">
      <!-- 0.00 -->
      <g transform="translate(31.836875 161.712609)scale(0.14 -0.14)">
       <use xlink:href="#TimesNewRomanPSMT-30"/>
       <use x="50" xlink:href="#TimesNewRomanPSMT-2e"/>
       <use x="75" xlink:href="#TimesNewRomanPSMT-30"/>
       <use x="125" xlink:href="#TimesNewRomanPSMT-30"/>
      </g>
     </g>
    </g>
    <g id="ytick_6">
     <g id="line2d_23">
      <path clip-path="url(#p4b373dfcb1)" d="M 63.336875 111.586759 
L 398.136875 111.586759 
" style="fill:none;stroke:#000000;stroke-dasharray:0.5,0.825;stroke-dashoffset:0;stroke-width:0.5;"/>
     </g>
     <g id="line2d_24">
      <g>
       <use style="stroke:#000000;stroke-width:0.8;" x="63.336875" xlink:href="#m34737800d0" y="111.586759"/>
      </g>
     </g>
     <g id="text_13">
      <!-- 0.02 -->
      <g transform="translate(31.836875 116.447384)scale(0.14 -0.14)">
       <use xlink:href="#TimesNewRomanPSMT-30"/>
       <use x="50" xlink:href="#TimesNewRomanPSMT-2e"/>
       <use x="75" xlink:href="#TimesNewRomanPSMT-30"/>
       <use x="125" xlink:href="#TimesNewRomanPSMT-32"/>
      </g>
     </g>
    </g>
    <g id="ytick_7">
     <g id="line2d_25">
      <path clip-path="url(#p4b373dfcb1)" d="M 63.336875 66.321533 
L 398.136875 66.321533 
" style="fill:none;stroke:#000000;stroke-dasharray:0.5,0.825;stroke-dashoffset:0;stroke-width:0.5;"/>
     </g>
     <g id="line2d_26">
      <g>
       <use style="stroke:#000000;stroke-width:0.8;" x="63.336875" xlink:href="#m34737800d0" y="66.321533"/>
      </g>
     </g>
     <g id="text_14">
      <!-- 0.04 -->
      <g transform="translate(31.836875 71.182158)scale(0.14 -0.14)">
       <use xlink:href="#TimesNewRomanPSMT-30"/>
       <use x="50" xlink:href="#TimesNewRomanPSMT-2e"/>
       <use x="75" xlink:href="#TimesNewRomanPSMT-30"/>
       <use x="125" xlink:href="#TimesNewRomanPSMT-34"/>
      </g>
     </g>
    </g>
    <g id="ytick_8">
     <g id="line2d_27">
      <path clip-path="url(#p4b373dfcb1)" d="M 63.336875 21.056308 
L 398.136875 21.056308 
" style="fill:none;stroke:#000000;stroke-dasharray:0.5,0.825;stroke-dashoffset:0;stroke-width:0.5;"/>
     </g>
     <g id="line2d_28">
      <g>
       <use style="stroke:#000000;stroke-width:0.8;" x="63.336875" xlink:href="#m34737800d0" y="21.056308"/>
      </g>
     </g>
     <g id="text_15">
      <!-- 0.06 -->
      <g transform="translate(31.836875 25.916933)scale(0.14 -0.14)">
       <use xlink:href="#TimesNewRomanPSMT-30"/>
       <use x="50" xlink:href="#TimesNewRomanPSMT-2e"/>
       <use x="75" xlink:href="#TimesNewRomanPSMT-30"/>
       <use x="125" xlink:href="#TimesNewRomanPSMT-36"/>
      </g>
     </g>
    </g>
    <g id="text_16">
     <!-- Volatage (V) -->
     <g transform="translate(16.92125 209.352344)rotate(-90)scale(0.14 -0.14)">
      <defs>
       <path d="M 4544 4238 
L 4544 4122 
Q 4319 4081 4203 3978 
Q 4038 3825 3909 3509 
L 2431 -97 
L 2316 -97 
L 728 3556 
Q 606 3838 556 3900 
Q 478 3997 364 4051 
Q 250 4106 56 4122 
L 56 4238 
L 1788 4238 
L 1788 4122 
Q 1494 4094 1406 4022 
Q 1319 3950 1319 3838 
Q 1319 3681 1463 3350 
L 2541 866 
L 3541 3319 
Q 3688 3681 3688 3822 
Q 3688 3913 3597 3995 
Q 3506 4078 3291 4113 
Q 3275 4116 3238 4122 
L 3238 4238 
L 4544 4238 
z
" id="TimesNewRomanPSMT-56" transform="scale(0.015625)"/>
       <path d="M 1600 2947 
Q 2250 2947 2644 2453 
Q 2978 2031 2978 1484 
Q 2978 1100 2793 706 
Q 2609 313 2286 112 
Q 1963 -88 1566 -88 
Q 919 -88 538 428 
Q 216 863 216 1403 
Q 216 1797 411 2186 
Q 606 2575 925 2761 
Q 1244 2947 1600 2947 
z
M 1503 2744 
Q 1338 2744 1170 2645 
Q 1003 2547 900 2300 
Q 797 2053 797 1666 
Q 797 1041 1045 587 
Q 1294 134 1700 134 
Q 2003 134 2200 384 
Q 2397 634 2397 1244 
Q 2397 2006 2069 2444 
Q 1847 2744 1503 2744 
z
" id="TimesNewRomanPSMT-6f" transform="scale(0.015625)"/>
       <path d="M 1184 4444 
L 1184 647 
Q 1184 378 1223 290 
Q 1263 203 1344 158 
Q 1425 113 1647 113 
L 1647 0 
L 244 0 
L 244 113 
Q 441 113 512 153 
Q 584 194 625 287 
Q 666 381 666 647 
L 666 3247 
Q 666 3731 644 3842 
Q 622 3953 573 3993 
Q 525 4034 450 4034 
Q 369 4034 244 3984 
L 191 4094 
L 1044 4444 
L 1184 4444 
z
" id="TimesNewRomanPSMT-6c" transform="scale(0.015625)"/>
       <path d="M 1822 413 
Q 1381 72 1269 19 
Q 1100 -59 909 -59 
Q 613 -59 420 144 
Q 228 347 228 678 
Q 228 888 322 1041 
Q 450 1253 767 1440 
Q 1084 1628 1822 1897 
L 1822 2009 
Q 1822 2438 1686 2597 
Q 1550 2756 1291 2756 
Q 1094 2756 978 2650 
Q 859 2544 859 2406 
L 866 2225 
Q 866 2081 792 2003 
Q 719 1925 600 1925 
Q 484 1925 411 2006 
Q 338 2088 338 2228 
Q 338 2497 613 2722 
Q 888 2947 1384 2947 
Q 1766 2947 2009 2819 
Q 2194 2722 2281 2516 
Q 2338 2381 2338 1966 
L 2338 994 
Q 2338 584 2353 492 
Q 2369 400 2405 369 
Q 2441 338 2488 338 
Q 2538 338 2575 359 
Q 2641 400 2828 588 
L 2828 413 
Q 2478 -56 2159 -56 
Q 2006 -56 1915 50 
Q 1825 156 1822 413 
z
M 1822 616 
L 1822 1706 
Q 1350 1519 1213 1441 
Q 966 1303 859 1153 
Q 753 1003 753 825 
Q 753 600 887 451 
Q 1022 303 1197 303 
Q 1434 303 1822 616 
z
" id="TimesNewRomanPSMT-61" transform="scale(0.015625)"/>
       <path d="M 1031 3803 
L 1031 2863 
L 1700 2863 
L 1700 2644 
L 1031 2644 
L 1031 788 
Q 1031 509 1111 412 
Q 1191 316 1316 316 
Q 1419 316 1516 380 
Q 1613 444 1666 569 
L 1788 569 
Q 1678 263 1478 108 
Q 1278 -47 1066 -47 
Q 922 -47 784 33 
Q 647 113 581 261 
Q 516 409 516 719 
L 516 2644 
L 63 2644 
L 63 2747 
Q 234 2816 414 2980 
Q 594 3144 734 3369 
Q 806 3488 934 3803 
L 1031 3803 
z
" id="TimesNewRomanPSMT-74" transform="scale(0.015625)"/>
       <path d="M 966 1044 
Q 703 1172 562 1401 
Q 422 1631 422 1909 
Q 422 2334 742 2640 
Q 1063 2947 1563 2947 
Q 1972 2947 2272 2747 
L 2878 2747 
Q 3013 2747 3034 2739 
Q 3056 2731 3066 2713 
Q 3084 2684 3084 2613 
Q 3084 2531 3069 2500 
Q 3059 2484 3036 2475 
Q 3013 2466 2878 2466 
L 2506 2466 
Q 2681 2241 2681 1891 
Q 2681 1491 2375 1206 
Q 2069 922 1553 922 
Q 1341 922 1119 984 
Q 981 866 932 777 
Q 884 688 884 625 
Q 884 572 936 522 
Q 988 472 1138 450 
Q 1225 438 1575 428 
Q 2219 413 2409 384 
Q 2700 344 2873 169 
Q 3047 -6 3047 -263 
Q 3047 -616 2716 -925 
Q 2228 -1381 1444 -1381 
Q 841 -1381 425 -1109 
Q 191 -953 191 -784 
Q 191 -709 225 -634 
Q 278 -519 444 -313 
Q 466 -284 763 25 
Q 600 122 533 198 
Q 466 275 466 372 
Q 466 481 555 628 
Q 644 775 966 1044 
z
M 1509 2797 
Q 1278 2797 1122 2612 
Q 966 2428 966 2047 
Q 966 1553 1178 1281 
Q 1341 1075 1591 1075 
Q 1828 1075 1981 1253 
Q 2134 1431 2134 1813 
Q 2134 2309 1919 2591 
Q 1759 2797 1509 2797 
z
M 934 0 
Q 788 -159 713 -296 
Q 638 -434 638 -550 
Q 638 -700 819 -813 
Q 1131 -1006 1722 -1006 
Q 2284 -1006 2551 -807 
Q 2819 -609 2819 -384 
Q 2819 -222 2659 -153 
Q 2497 -84 2016 -72 
Q 1313 -53 934 0 
z
" id="TimesNewRomanPSMT-67" transform="scale(0.015625)"/>
      </defs>
      <use xlink:href="#TimesNewRomanPSMT-56"/>
      <use x="59.341797" xlink:href="#TimesNewRomanPSMT-6f"/>
      <use x="109.341797" xlink:href="#TimesNewRomanPSMT-6c"/>
      <use x="137.125" xlink:href="#TimesNewRomanPSMT-61"/>
      <use x="181.509766" xlink:href="#TimesNewRomanPSMT-74"/>
      <use x="209.292969" xlink:href="#TimesNewRomanPSMT-61"/>
      <use x="253.677734" xlink:href="#TimesNewRomanPSMT-67"/>
      <use x="303.677734" xlink:href="#TimesNewRomanPSMT-65"/>
      <use x="348.0625" xlink:href="#TimesNewRomanPSMT-20"/>
      <use x="373.0625" xlink:href="#TimesNewRomanPSMT-28"/>
      <use x="406.363281" xlink:href="#TimesNewRomanPSMT-56"/>
      <use x="478.580078" xlink:href="#TimesNewRomanPSMT-29"/>
     </g>
    </g>
   </g>
   <g id="LineCollection_1">
    <path clip-path="url(#p4b373dfcb1)" d="M 78.555057 156.851984 
L 382.918693 156.851984 
" style="fill:none;stroke:#1f77b4;stroke-width:1.5;"/>
   </g>
   <g id="line2d_29">
    <path clip-path="url(#p4b373dfcb1)" d="M 78.555057 156.927464 
L 78.737675 156.899173 
L 84.88582 156.842591 
L 85.007566 156.814301 
L 85.159748 156.842591 
L 85.342366 156.814301 
L 85.494548 156.842591 
L 85.64673 156.814301 
L 85.798911 156.814301 
L 91.58182 156.757719 
L 91.703566 156.729428 
L 100.895348 156.672847 
L 100.925784 156.616265 
L 101.017093 156.672847 
L 101.199711 156.644556 
L 103.29982 156.672847 
L 103.330257 156.757719 
L 103.421566 156.701137 
L 114.226475 156.78601 
L 114.34822 156.814301 
L 114.469966 156.78601 
L 114.652584 156.814301 
L 115.656984 156.899173 
L 115.870039 156.955754 
L 116.02222 156.955754 
L 116.935311 157.012336 
L 117.087493 157.097208 
L 117.239675 157.097208 
L 117.817966 157.18208 
L 117.970148 157.210371 
L 118.091893 157.18208 
L 118.244075 157.238662 
L 118.883239 157.323534 
L 119.03542 157.351825 
L 119.218039 157.323534 
L 119.431093 157.408407 
L 119.583275 157.408407 
L 119.765893 157.436697 
L 119.918075 157.436697 
L 121.561639 157.52157 
L 121.744257 157.578151 
L 121.866002 157.52157 
L 122.018184 157.578151 
L 122.200802 157.606442 
L 122.71822 157.691314 
L 122.931275 157.747896 
L 123.540002 157.832768 
L 123.72262 157.861059 
L 123.905239 157.91764 
L 124.05742 157.974222 
L 124.48353 158.059094 
L 124.666148 158.115676 
L 124.81833 158.115676 
L 125.06182 158.228839 
L 125.15313 158.25713 
L 125.39662 158.342002 
L 125.548802 158.426874 
L 125.914039 158.62491 
L 126.06622 158.709782 
L 126.279275 158.879526 
L 126.370584 158.964399 
L 127.435857 160.096029 
L 128.014148 160.944752 
L 128.257639 161.312532 
L 129.596839 164.028446 
L 131.696948 170.167542 
L 132.09262 171.497208 
L 132.914402 174.071668 
L 133.18833 175.005263 
L 133.462257 175.712531 
L 133.736184 176.532965 
L 133.979675 177.211942 
L 134.740584 179.644949 
L 135.410184 181.710174 
L 136.414584 184.228053 
L 136.597202 184.539251 
L 136.901566 185.076776 
L 137.388548 185.755754 
L 137.479857 185.812335 
L 137.753784 186.095243 
L 138.54513 186.71764 
L 138.697311 186.71764 
L 139.245166 186.689349 
L 139.397348 186.576186 
L 140.097384 185.812335 
L 140.523493 184.935322 
L 140.980039 183.860273 
L 142.958402 176.080311 
L 143.749748 171.94986 
L 144.541093 166.885813 
L 144.936766 164.085027 
L 148.193457 135.935716 
L 154.158984 76.015871 
L 156.715639 57.824909 
L 158.085275 51.940432 
L 159.180984 50.129825 
L 159.728839 50.186407 
L 159.97233 50.412728 
L 160.094075 50.497598 
L 160.915857 52.223344 
L 161.88982 56.212337 
L 163.289893 65.972652 
L 164.446475 77.713322 
L 165.876984 96.272062 
L 167.398802 120.517248 
L 168.707566 144.253201 
L 174.338293 252.04102 
L 175.677493 273.796619 
L 177.168875 294.364006 
L 178.325457 307.094846 
L 179.72553 317.873628 
L 180.547311 321.834335 
L 181.216911 323.984436 
L 181.277784 324.069306 
L 181.582148 324.408802 
L 182.06913 324.72 
L 182.616984 324.069306 
L 183.347457 321.72117 
L 183.804002 319.599365 
L 184.595348 314.563617 
L 185.295384 309.301521 
L 186.117166 301.521568 
L 187.030257 291.053984 
L 188.065093 277.276379 
L 190.469566 237.527851 
L 192.295748 201.513713 
L 195.46113 139.0477 
L 199.113493 76.496819 
L 200.574439 57.598587 
L 201.974511 43.170297 
L 203.252839 33.381687 
L 204.713784 25.828055 
L 205.322511 23.960867 
L 206.113857 22.659487 
L 206.205166 22.631198 
L 206.631275 22.376582 
L 207.17913 22.461452 
L 208.366148 24.837874 
L 209.248802 28.459094 
L 209.43142 29.25124 
L 210.070584 32.674418 
L 210.618439 35.956151 
L 211.014111 38.304278 
L 212.414184 48.121176 
L 214.87953 69.678742 
L 216.492657 85.691318 
L 217.375311 94.34829 
L 222.82342 144.026875 
L 223.371275 148.270489 
L 223.91913 152.37265 
L 224.558293 156.333357 
L 226.962766 169.149074 
L 227.51062 171.610371 
L 228.119348 173.930214 
L 229.397675 178.286992 
L 229.488984 178.485027 
L 230.94993 182.247699 
L 231.010802 182.332571 
L 231.95433 184.652414 
L 232.471748 185.840626 
L 233.019602 187.651235 
L 233.354402 188.726284 
L 234.024002 190.876383 
L 234.602293 193.054774 
L 235.119711 194.78051 
L 235.63713 197.072058 
L 235.88062 198.062235 
L 236.824148 201.994656 
L 237.737239 205.729037 
L 238.285093 208.190331 
L 242.820111 228.757718 
L 243.124475 229.917637 
L 244.220184 234.52903 
L 244.554984 235.773828 
L 245.285457 238.06538 
L 246.076802 239.310171 
L 246.807275 239.875987 
L 246.989893 239.791117 
L 247.02033 239.8477 
L 247.081202 239.791117 
L 247.26382 239.762821 
L 247.537748 239.677951 
L 248.116039 238.99898 
L 248.450839 238.376581 
L 248.633457 238.121964 
L 248.876948 237.641016 
L 250.063966 234.07638 
L 250.550948 231.954572 
L 250.916184 230.172254 
L 252.864111 218.714494 
L 254.172875 208.699567 
L 254.96422 201.994656 
L 256.151239 191.15929 
L 257.125202 182.332571 
L 258.98182 166.093671 
L 261.203675 148.440234 
L 262.99942 137.463416 
L 263.851639 133.304674 
L 264.490802 130.503888 
L 265.069093 128.268918 
L 265.190839 127.872847 
L 265.647384 126.231983 
L 267.230075 122.129822 
L 268.173602 120.602118 
L 269.02582 119.696816 
L 269.208439 119.49878 
L 269.817166 119.074421 
L 270.060657 119.017837 
L 270.212839 118.961256 
L 270.36502 118.961256 
L 270.638948 119.04613 
L 270.912875 119.215873 
L 270.943311 119.159291 
L 271.004184 119.215873 
L 271.856402 120.149466 
L 272.160766 120.686993 
L 275.234839 126.628053 
L 275.752257 127.787975 
L 275.874002 127.98601 
L 276.14793 128.580116 
L 276.939275 130.277562 
L 277.639311 131.946717 
L 277.761057 132.201334 
L 278.095857 133.021767 
L 278.49153 133.983653 
L 279.008948 135.143574 
L 279.16113 135.398191 
L 279.556802 136.218622 
L 279.708984 136.50153 
L 280.135093 137.378544 
L 280.317711 137.689744 
L 280.561202 138.085812 
L 280.74382 138.397012 
L 281.139493 139.189154 
L 283.117857 142.640627 
L 283.452657 143.09328 
L 284.030948 143.942002 
L 284.670111 144.677562 
L 285.004911 145.073633 
L 285.887566 145.752611 
L 286.131057 145.837483 
L 286.374548 145.922355 
L 287.713748 145.837483 
L 287.957239 145.752611 
L 288.048548 145.72432 
L 288.413784 145.526285 
L 288.53553 145.469703 
L 288.77902 145.243377 
L 288.87033 145.215086 
L 289.083384 145.045342 
L 290.87913 143.263024 
L 291.153057 142.810371 
L 291.609602 142.244556 
L 291.88353 141.933358 
L 291.974839 141.848486 
L 294.257566 137.378544 
L 295.56633 134.011943 
L 295.627202 133.89878 
L 295.931566 132.993476 
L 296.175057 132.314497 
L 296.935966 129.909782 
L 297.727311 127.391904 
L 298.214293 125.637877 
L 299.036075 123.035126 
L 299.796984 120.630409 
L 300.070911 119.894849 
L 300.801384 117.575011 
L 301.318802 116.386794 
L 302.201457 114.236698 
L 302.84062 113.274812 
L 302.901493 113.246521 
L 303.114548 112.935323 
L 303.205857 112.850453 
L 303.418911 112.652413 
L 303.571093 112.567545 
L 303.814584 112.45438 
L 303.93633 112.426087 
L 305.032039 112.510961 
L 305.579893 113.161647 
L 306.036439 113.784046 
L 306.097311 113.868916 
L 306.827784 115.453201 
L 307.801748 118.452022 
L 308.380039 121.083066 
L 308.562657 121.903496 
L 308.86702 123.431197 
L 309.475748 127.165578 
L 310.145348 131.522356 
L 311.758475 144.338073 
L 314.22382 168.27206 
L 316.23262 189.490135 
L 316.65873 193.960076 
L 319.24582 219.308602 
L 321.772039 237.273234 
L 323.293857 243.836694 
L 323.841711 245.081492 
L 323.963457 245.307814 
L 324.237384 245.788759 
L 324.998293 246.354577 
L 325.302657 246.439447 
L 325.454839 246.439447 
L 325.576584 246.439447 
L 325.69833 246.411158 
L 325.911384 246.326281 
L 326.854911 245.307814 
L 327.554948 243.78011 
L 327.828875 242.987973 
L 328.04193 242.393869 
L 329.563748 236.311348 
L 330.902948 229.57815 
L 331.846475 223.693669 
L 332.911748 216.055164 
L 335.194475 198.260275 
L 342.620948 137.067347 
L 344.78193 120.177759 
L 345.755893 112.935323 
L 347.764693 100.543967 
L 348.586475 96.215478 
L 349.408257 92.22648 
L 350.47353 87.841414 
L 350.869202 86.483455 
L 351.599675 84.135319 
L 352.208402 82.296426 
L 353.425857 79.212728 
L 354.704184 77.062634 
L 354.82593 76.977757 
L 355.556402 76.41194 
L 355.647711 76.383653 
L 355.799893 76.327072 
L 356.439057 76.41194 
L 356.804293 76.609984 
L 356.895602 76.63827 
L 357.047784 76.808017 
L 357.139093 76.892887 
L 357.717384 77.571868 
L 359.574002 81.221377 
L 360.121857 82.833948 
L 361.034948 85.691318 
L 363.43942 95.055559 
L 365.235166 103.910566 
L 366.087384 108.748289 
L 367.426584 116.81116 
L 367.913566 119.951433 
L 368.644039 124.619409 
L 369.648439 131.267739 
L 378.627166 190.39544 
L 379.205457 194.299567 
L 382.705639 216.366363 
L 382.918693 217.582865 
L 382.918693 217.582865 
" style="fill:none;stroke:#0000ff;stroke-linecap:square;stroke-width:1.5;"/>
   </g>
   <g id="line2d_30">
    <path clip-path="url(#p4b373dfcb1)" d="M 78.555057 156.844062 
L 78.85942 156.815772 
L 86.529384 156.914789 
L 86.772875 156.928935 
L 87.016366 156.928935 
L 87.32073 156.957226 
L 87.503348 156.928935 
L 87.746839 156.94308 
L 88.020766 156.928935 
L 88.294693 156.94308 
L 88.56862 156.928935 
L 88.812111 156.928935 
L 94.838511 157.013807 
L 94.990693 157.027952 
L 100.438802 157.12697 
L 100.773602 157.169406 
L 101.260584 157.254279 
L 101.473639 157.325005 
L 101.747566 157.424023 
L 102.782402 158.003984 
L 103.117202 158.286891 
L 103.330257 158.499072 
L 103.96942 159.234632 
L 104.97382 160.818915 
L 105.765166 162.516361 
L 106.800002 165.175693 
L 107.74353 167.877461 
L 108.717493 170.918718 
L 110.452366 176.194946 
L 111.639384 179.193767 
L 111.913311 179.759583 
L 113.43513 182.362333 
L 114.43953 183.154475 
L 114.713457 183.182765 
L 115.413493 182.956439 
L 115.535239 182.914003 
L 115.930911 182.61695 
L 117.604911 179.278641 
L 119.431093 172.983944 
L 121.71382 161.851528 
L 124.240039 145.909681 
L 125.457493 138.186303 
L 129.262039 117.590623 
L 130.053384 114.436207 
L 132.701348 106.161153 
L 133.218766 104.972943 
L 134.284039 102.766264 
L 135.044948 101.535613 
L 135.501493 100.715183 
L 136.414584 99.739152 
L 136.718948 99.272356 
L 137.388548 98.777266 
L 137.814657 98.678248 
L 137.997275 98.621666 
L 138.666875 99.031883 
L 139.79302 101.351728 
L 140.310439 102.808698 
L 141.984439 108.608307 
L 142.836657 112.611448 
L 144.601966 123.927756 
L 147.15862 143.745438 
L 154.311166 212.477851 
L 155.772111 223.185908 
L 157.141748 230.810265 
L 158.146148 234.954869 
L 159.333166 237.939543 
L 159.789711 238.731689 
L 160.276693 239.226775 
L 160.702802 239.481392 
L 161.281093 239.382374 
L 161.859384 238.703393 
L 162.528984 237.585908 
L 163.289893 235.138754 
L 164.081239 231.800446 
L 166.059602 219.168619 
L 167.155311 210.214594 
L 170.168511 182.645241 
L 172.390366 162.021273 
L 175.738366 134.918719 
L 177.229748 125.922255 
L 177.96022 122.428346 
L 178.690693 120.122648 
L 179.938584 116.968228 
L 180.699493 115.468817 
L 181.06473 115.016165 
L 181.612584 114.874709 
L 181.856075 114.959584 
L 182.343057 115.299075 
L 183.804002 118.213022 
L 185.66062 124.62088 
L 186.360657 127.365085 
L 186.817202 129.203984 
L 188.947748 139.614986 
L 190.378257 147.592982 
L 192.995784 161.54033 
L 195.095893 172.63031 
L 197.317748 183.423237 
L 198.47433 187.299072 
L 199.113493 188.784337 
L 199.356984 189.010663 
L 199.691784 189.180408 
L 200.14833 189.279425 
L 200.330948 189.26528 
L 200.696184 188.996518 
L 202.004948 187.016164 
L 203.40502 182.80084 
L 204.987711 174.936007 
L 205.83993 170.437775 
L 206.357348 167.849171 
L 210.222766 141.977265 
L 212.170693 129.161548 
L 213.996875 118.80713 
L 214.909966 114.337189 
L 216.066548 109.923827 
L 217.89273 105.934827 
L 218.836257 104.803199 
L 220.266766 104.237383 
L 220.47982 104.22324 
L 221.058111 104.322256 
L 221.849457 104.803199 
L 222.336439 105.383159 
L 222.640802 105.722651 
L 223.127784 106.288462 
L 223.401711 106.755262 
L 223.858257 107.561548 
L 225.83662 112.427562 
L 227.814984 118.269603 
L 229.732475 124.875497 
L 231.741275 132.754475 
L 232.684802 137.662924 
L 233.506584 142.415772 
L 235.119711 153.633061 
L 236.398039 163.393375 
L 240.598257 193.820093 
L 242.850548 206.748973 
L 244.494111 214.599661 
L 246.228984 221.40359 
L 247.659493 225.081387 
L 248.755202 226.906146 
L 249.881348 227.811448 
L 250.429202 227.9529 
L 250.94662 228.051918 
L 251.342293 228.122649 
L 252.803239 227.330505 
L 253.351093 226.693963 
L 253.71633 226.241313 
L 254.507675 225.321861 
L 254.842475 224.883354 
L 255.359893 224.147794 
L 258.190475 220.385122 
L 258.433966 220.158796 
L 259.31662 219.19691 
L 260.016657 218.404769 
L 260.564511 217.768227 
L 260.99062 217.202409 
L 262.360257 215.108895 
L 263.182039 213.354867 
L 264.582111 209.832669 
L 265.495202 206.975299 
L 266.956148 200.397696 
L 269.02582 188.260958 
L 270.760693 175.38866 
L 272.13033 163.690428 
L 273.743457 147.691999 
L 280.287275 75.932475 
L 281.869966 61.518325 
L 283.42222 50.796125 
L 284.244002 46.807131 
L 285.09622 44.034629 
L 286.039748 42.506928 
L 286.52673 42.379624 
L 286.983275 42.690823 
L 287.43982 43.497109 
L 288.20073 45.930115 
L 289.326875 51.673141 
L 290.422584 58.958015 
L 291.913966 71.603987 
L 296.14462 115.992194 
L 302.140584 181.640919 
L 303.144984 190.778836 
L 303.997202 197.342294 
L 304.575493 201.076675 
L 305.975566 208.870778 
L 308.380039 219.550545 
L 309.140948 221.997696 
L 310.693202 226.708106 
L 311.028002 227.556832 
L 311.393239 228.377266 
L 311.758475 228.97137 
L 312.732439 230.145441 
L 313.21942 230.258597 
L 313.462911 230.15958 
L 314.55862 228.999661 
L 314.862984 228.405557 
L 316.597857 224.105358 
L 317.297893 221.842097 
L 318.24142 217.923826 
L 320.67633 206.08414 
L 322.198148 197.554474 
L 323.35473 191.090034 
L 328.04193 163.449956 
L 331.024693 148.738759 
L 332.63782 143.151331 
L 334.494439 139.105752 
L 335.711893 138.10143 
L 335.864075 138.058995 
L 336.381493 137.959975 
L 336.868475 137.846813 
L 337.720693 137.94583 
L 338.75553 138.525792 
L 339.42513 139.289643 
L 339.577311 139.459386 
L 341.890475 142.854279 
L 342.255711 143.43424 
L 342.560075 143.858601 
L 343.412293 144.862923 
L 343.807966 145.372157 
L 346.516802 148.965084 
L 346.79073 149.205555 
L 347.338584 149.573335 
L 347.977748 149.757226 
L 348.403857 149.842098 
L 348.616911 149.898679 
L 348.79953 149.92697 
L 350.38222 149.842098 
L 350.595275 149.757226 
L 350.747457 149.74308 
L 350.960511 149.686499 
L 351.264875 149.658208 
L 353.48673 149.573335 
L 353.669348 149.530899 
L 353.912839 149.530899 
L 354.247639 149.629917 
L 355.647711 150.393768 
L 356.469493 151.016165 
L 358.08262 151.879033 
L 359.482693 153.038954 
L 360.395784 153.350153 
L 360.85233 153.449171 
L 361.065384 153.505752 
L 361.400184 153.60477 
L 362.008911 154.043277 
L 362.19153 154.128149 
L 362.43502 154.283748 
L 362.587202 154.36862 
L 363.469857 155.061744 
L 363.713348 155.160762 
L 364.048148 155.344652 
L 364.230766 155.44367 
L 364.77862 155.81145 
L 365.143857 156.094357 
L 365.904766 156.660172 
L 366.848293 156.985516 
L 367.243966 156.886499 
L 367.670075 156.801626 
L 368.035311 156.730899 
L 368.21793 156.660172 
L 369.344075 156.02363 
L 369.678875 155.585123 
L 371.23113 152.473139 
L 372.083348 150.747403 
L 372.23553 150.47864 
L 372.935566 149.120683 
L 373.23993 148.512432 
L 374.061711 146.758404 
L 374.640002 145.457029 
L 380.453348 134.876283 
L 382.52302 132.160369 
L 382.675202 131.976479 
L 382.918693 131.707717 
L 382.918693 131.707717 
" style="fill:none;stroke:#ff0000;stroke-linecap:square;stroke-width:1.5;"/>
   </g>
   <g id="line2d_31">
    <path clip-path="url(#p4b373dfcb1)" d="M 130.08382 165.27324 
" style="fill:none;stroke:#ffffff;stroke-linecap:square;stroke-width:1.5;"/>
    <defs>
     <path d="M 0 -5 
L -1.12257 -1.545085 
L -4.755283 -1.545085 
L -1.816356 0.59017 
L -2.938926 4.045085 
L -0 1.90983 
L 2.938926 4.045085 
L 1.816356 0.59017 
L 4.755283 -1.545085 
L 1.12257 -1.545085 
z
" id="m91a31e3407" style="stroke:#ffffff;stroke-linejoin:bevel;"/>
    </defs>
    <g clip-path="url(#p4b373dfcb1)">
     <use style="fill:#0000ff;stroke:#ffffff;stroke-linejoin:bevel;" x="130.08382" xlink:href="#m91a31e3407" y="165.27324"/>
    </g>
   </g>
   <g id="line2d_32">
    <path clip-path="url(#p4b373dfcb1)" d="M 105.795602 162.587088 
" style="fill:none;stroke:#ffffff;stroke-linecap:square;stroke-width:1.5;"/>
    <defs>
     <path d="M 0 -5 
L -1.12257 -1.545085 
L -4.755283 -1.545085 
L -1.816356 0.59017 
L -2.938926 4.045085 
L -0 1.90983 
L 2.938926 4.045085 
L 1.816356 0.59017 
L 4.755283 -1.545085 
L 1.12257 -1.545085 
z
" id="mac2032314e" style="stroke:#ffffff;stroke-linejoin:bevel;"/>
    </defs>
    <g clip-path="url(#p4b373dfcb1)">
     <use style="fill:#ff0000;stroke:#ffffff;stroke-linejoin:bevel;" x="105.795602" xlink:href="#mac2032314e" y="162.587088"/>
    </g>
   </g>
   <g id="patch_3">
    <path d="M 63.336875 339.84 
L 63.336875 7.2 
" style="fill:none;stroke:#000000;stroke-linecap:square;stroke-linejoin:miter;stroke-width:0.8;"/>
   </g>
   <g id="patch_4">
    <path d="M 398.136875 339.84 
L 398.136875 7.2 
" style="fill:none;stroke:#000000;stroke-linecap:square;stroke-linejoin:miter;stroke-width:0.8;"/>
   </g>
   <g id="patch_5">
    <path d="M 63.336875 339.84 
L 398.136875 339.84 
" style="fill:none;stroke:#000000;stroke-linecap:square;stroke-linejoin:miter;stroke-width:0.8;"/>
   </g>
   <g id="patch_6">
    <path d="M 63.336875 7.2 
L 398.136875 7.2 
" style="fill:none;stroke:#000000;stroke-linecap:square;stroke-linejoin:miter;stroke-width:0.8;"/>
   </g>
   <g id="text_17">
    <g id="patch_7">
     <path d="M 75.036875 331.242688 
L 166.79375 331.242688 
L 166.79375 293.760312 
L 75.036875 293.760312 
z
" style="fill:#ffffff;stroke:#000000;stroke-linejoin:miter;stroke-width:0.75;"/>
    </g>
    <!-- Auto_00030 -->
    <g transform="translate(80.076875 308.521562)scale(0.14 -0.14)">
     <defs>
      <path d="M 2928 1419 
L 1288 1419 
L 1000 750 
Q 894 503 894 381 
Q 894 284 986 211 
Q 1078 138 1384 116 
L 1384 0 
L 50 0 
L 50 116 
Q 316 163 394 238 
Q 553 388 747 847 
L 2238 4334 
L 2347 4334 
L 3822 809 
Q 4000 384 4145 257 
Q 4291 131 4550 116 
L 4550 0 
L 2878 0 
L 2878 116 
Q 3131 128 3220 200 
Q 3309 272 3309 375 
Q 3309 513 3184 809 
L 2928 1419 
z
M 2841 1650 
L 2122 3363 
L 1384 1650 
L 2841 1650 
z
" id="TimesNewRomanPSMT-41" transform="scale(0.015625)"/>
      <path d="M 2709 2863 
L 2709 1128 
Q 2709 631 2732 520 
Q 2756 409 2807 365 
Q 2859 322 2928 322 
Q 3025 322 3147 375 
L 3191 266 
L 2334 -88 
L 2194 -88 
L 2194 519 
Q 1825 119 1631 15 
Q 1438 -88 1222 -88 
Q 981 -88 804 51 
Q 628 191 559 409 
Q 491 628 491 1028 
L 491 2306 
Q 491 2509 447 2587 
Q 403 2666 317 2708 
Q 231 2750 6 2747 
L 6 2863 
L 1009 2863 
L 1009 947 
Q 1009 547 1148 422 
Q 1288 297 1484 297 
Q 1619 297 1789 381 
Q 1959 466 2194 703 
L 2194 2325 
Q 2194 2569 2105 2655 
Q 2016 2741 1734 2747 
L 1734 2863 
L 2709 2863 
z
" id="TimesNewRomanPSMT-75" transform="scale(0.015625)"/>
      <path d="M 3256 -1381 
L -53 -1381 
L -53 -1119 
L 3256 -1119 
L 3256 -1381 
z
" id="TimesNewRomanPSMT-5f" transform="scale(0.015625)"/>
     </defs>
     <use xlink:href="#TimesNewRomanPSMT-41"/>
     <use x="72.216797" xlink:href="#TimesNewRomanPSMT-75"/>
     <use x="122.216797" xlink:href="#TimesNewRomanPSMT-74"/>
     <use x="150" xlink:href="#TimesNewRomanPSMT-6f"/>
     <use x="200" xlink:href="#TimesNewRomanPSMT-5f"/>
     <use x="250" xlink:href="#TimesNewRomanPSMT-30"/>
     <use x="300" xlink:href="#TimesNewRomanPSMT-30"/>
     <use x="350" xlink:href="#TimesNewRomanPSMT-30"/>
     <use x="400" xlink:href="#TimesNewRomanPSMT-33"/>
     <use x="450" xlink:href="#TimesNewRomanPSMT-30"/>
    </g>
    <!-- Vs: 250.50m/s -->
    <g transform="translate(80.076875 323.208)scale(0.14 -0.14)">
     <defs>
      <path d="M 903 2950 
Q 1047 2950 1148 2848 
Q 1250 2747 1250 2603 
Q 1250 2459 1148 2357 
Q 1047 2256 903 2256 
Q 759 2256 657 2357 
Q 556 2459 556 2603 
Q 556 2747 657 2848 
Q 759 2950 903 2950 
z
M 897 609 
Q 1044 609 1145 506 
Q 1247 403 1247 259 
Q 1247 116 1144 14 
Q 1041 -88 897 -88 
Q 753 -88 651 14 
Q 550 116 550 259 
Q 550 403 651 506 
Q 753 609 897 609 
z
" id="TimesNewRomanPSMT-3a" transform="scale(0.015625)"/>
      <path d="M 1794 4444 
L 259 -88 
L 9 -88 
L 1544 4444 
L 1794 4444 
z
" id="TimesNewRomanPSMT-2f" transform="scale(0.015625)"/>
     </defs>
     <use xlink:href="#TimesNewRomanPSMT-56"/>
     <use x="72.216797" xlink:href="#TimesNewRomanPSMT-73"/>
     <use x="111.132812" xlink:href="#TimesNewRomanPSMT-3a"/>
     <use x="138.916016" xlink:href="#TimesNewRomanPSMT-20"/>
     <use x="163.916016" xlink:href="#TimesNewRomanPSMT-32"/>
     <use x="213.916016" xlink:href="#TimesNewRomanPSMT-35"/>
     <use x="263.916016" xlink:href="#TimesNewRomanPSMT-30"/>
     <use x="313.916016" xlink:href="#TimesNewRomanPSMT-2e"/>
     <use x="338.916016" xlink:href="#TimesNewRomanPSMT-35"/>
     <use x="388.916016" xlink:href="#TimesNewRomanPSMT-30"/>
     <use x="438.916016" xlink:href="#TimesNewRomanPSMT-6d"/>
     <use x="516.699219" xlink:href="#TimesNewRomanPSMT-2f"/>
     <use x="544.482422" xlink:href="#TimesNewRomanPSMT-73"/>
    </g>
   </g>
  </g>
 </g>
 <defs>
  <clipPath id="p4b373dfcb1">
   <rect height="332.64" width="334.8" x="63.336875" y="7.2"/>
  </clipPath>
 </defs>
</svg>
