<?xml version="1.0" encoding="utf-8" standalone="no"?>
<!DOCTYPE svg PUBLIC "-//W3C//DTD SVG 1.1//EN"
  "http://www.w3.org/Graphics/SVG/1.1/DTD/svg11.dtd">
<svg height="383.471875pt" version="1.1" viewBox="0 0 421.086875 383.471875" width="421.086875pt" xmlns="http://www.w3.org/2000/svg" xmlns:xlink="http://www.w3.org/1999/xlink">
 <metadata>
  <rdf:RDF xmlns:cc="http://creativecommons.org/ns#" xmlns:dc="http://purl.org/dc/elements/1.1/" xmlns:rdf="http://www.w3.org/1999/02/22-rdf-syntax-ns#">
   <cc:Work>
    <dc:type rdf:resource="http://purl.org/dc/dcmitype/StillImage"/>
    <dc:date>2021-06-11T14:39:38.800279</dc:date>
    <dc:format>image/svg+xml</dc:format>
    <dc:creator>
     <cc:Agent>
      <dc:title>Matplotlib v3.4.2, https://matplotlib.org/</dc:title>
     </cc:Agent>
    </dc:creator>
   </cc:Work>
  </rdf:RDF>
 </metadata>
 <defs>
  <style type="text/css">*{stroke-linecap:butt;stroke-linejoin:round;}</style>
 </defs>
 <g id="figure_1">
  <g id="patch_1">
   <path d="M 0 383.471875 
L 421.086875 383.471875 
L 421.086875 0 
L 0 0 
z
" style="fill:#ffffff;"/>
  </g>
  <g id="axes_1">
   <g id="patch_2">
    <path d="M 63.336875 339.84 
L 398.136875 339.84 
L 398.136875 7.2 
L 63.336875 7.2 
z
" style="fill:#ffffff;"/>
   </g>
   <g id="matplotlib.axis_1">
    <g id="xtick_1">
     <g id="line2d_1">
      <path clip-path="url(#p628ce34dff)" d="M 93.773239 339.84 
L 93.773239 7.2 
" style="fill:none;stroke:#000000;stroke-dasharray:0.5,0.825;stroke-dashoffset:0;stroke-width:0.5;"/>
     </g>
     <g id="line2d_2">
      <defs>
       <path d="M 0 0 
L 0 3.5 
" id="m0feafc14a5" style="stroke:#000000;stroke-width:0.8;"/>
      </defs>
      <g>
       <use style="stroke:#000000;stroke-width:0.8;" x="93.773239" xlink:href="#m0feafc14a5" y="339.84"/>
      </g>
     </g>
     <g id="text_1">
      <!-- 0.000 -->
      <g transform="translate(78.023239 356.56125)scale(0.14 -0.14)">
       <defs>
        <path d="M 231 2094 
Q 231 2819 450 3342 
Q 669 3866 1031 4122 
Q 1313 4325 1613 4325 
Q 2100 4325 2488 3828 
Q 2972 3213 2972 2159 
Q 2972 1422 2759 906 
Q 2547 391 2217 158 
Q 1888 -75 1581 -75 
Q 975 -75 572 641 
Q 231 1244 231 2094 
z
M 844 2016 
Q 844 1141 1059 588 
Q 1238 122 1591 122 
Q 1759 122 1940 273 
Q 2122 425 2216 781 
Q 2359 1319 2359 2297 
Q 2359 3022 2209 3506 
Q 2097 3866 1919 4016 
Q 1791 4119 1609 4119 
Q 1397 4119 1231 3928 
Q 1006 3669 925 3112 
Q 844 2556 844 2016 
z
" id="TimesNewRomanPSMT-30" transform="scale(0.015625)"/>
        <path d="M 800 606 
Q 947 606 1047 504 
Q 1147 403 1147 259 
Q 1147 116 1045 14 
Q 944 -88 800 -88 
Q 656 -88 554 14 
Q 453 116 453 259 
Q 453 406 554 506 
Q 656 606 800 606 
z
" id="TimesNewRomanPSMT-2e" transform="scale(0.015625)"/>
       </defs>
       <use xlink:href="#TimesNewRomanPSMT-30"/>
       <use x="50" xlink:href="#TimesNewRomanPSMT-2e"/>
       <use x="75" xlink:href="#TimesNewRomanPSMT-30"/>
       <use x="125" xlink:href="#TimesNewRomanPSMT-30"/>
       <use x="175" xlink:href="#TimesNewRomanPSMT-30"/>
      </g>
     </g>
    </g>
    <g id="xtick_2">
     <g id="line2d_3">
      <path clip-path="url(#p628ce34dff)" d="M 154.645966 339.84 
L 154.645966 7.2 
" style="fill:none;stroke:#000000;stroke-dasharray:0.5,0.825;stroke-dashoffset:0;stroke-width:0.5;"/>
     </g>
     <g id="line2d_4">
      <g>
       <use style="stroke:#000000;stroke-width:0.8;" x="154.645966" xlink:href="#m0feafc14a5" y="339.84"/>
      </g>
     </g>
     <g id="text_2">
      <!-- 0.001 -->
      <g transform="translate(138.895966 356.56125)scale(0.14 -0.14)">
       <defs>
        <path d="M 750 3822 
L 1781 4325 
L 1884 4325 
L 1884 747 
Q 1884 391 1914 303 
Q 1944 216 2037 169 
Q 2131 122 2419 116 
L 2419 0 
L 825 0 
L 825 116 
Q 1125 122 1212 167 
Q 1300 213 1334 289 
Q 1369 366 1369 747 
L 1369 3034 
Q 1369 3497 1338 3628 
Q 1316 3728 1258 3775 
Q 1200 3822 1119 3822 
Q 1003 3822 797 3725 
L 750 3822 
z
" id="TimesNewRomanPSMT-31" transform="scale(0.015625)"/>
       </defs>
       <use xlink:href="#TimesNewRomanPSMT-30"/>
       <use x="50" xlink:href="#TimesNewRomanPSMT-2e"/>
       <use x="75" xlink:href="#TimesNewRomanPSMT-30"/>
       <use x="125" xlink:href="#TimesNewRomanPSMT-30"/>
       <use x="175" xlink:href="#TimesNewRomanPSMT-31"/>
      </g>
     </g>
    </g>
    <g id="xtick_3">
     <g id="line2d_5">
      <path clip-path="url(#p628ce34dff)" d="M 215.518693 339.84 
L 215.518693 7.2 
" style="fill:none;stroke:#000000;stroke-dasharray:0.5,0.825;stroke-dashoffset:0;stroke-width:0.5;"/>
     </g>
     <g id="line2d_6">
      <g>
       <use style="stroke:#000000;stroke-width:0.8;" x="215.518693" xlink:href="#m0feafc14a5" y="339.84"/>
      </g>
     </g>
     <g id="text_3">
      <!-- 0.002 -->
      <g transform="translate(199.768693 356.56125)scale(0.14 -0.14)">
       <defs>
        <path d="M 2934 816 
L 2638 0 
L 138 0 
L 138 116 
Q 1241 1122 1691 1759 
Q 2141 2397 2141 2925 
Q 2141 3328 1894 3587 
Q 1647 3847 1303 3847 
Q 991 3847 742 3664 
Q 494 3481 375 3128 
L 259 3128 
Q 338 3706 661 4015 
Q 984 4325 1469 4325 
Q 1984 4325 2329 3994 
Q 2675 3663 2675 3213 
Q 2675 2891 2525 2569 
Q 2294 2063 1775 1497 
Q 997 647 803 472 
L 1909 472 
Q 2247 472 2383 497 
Q 2519 522 2628 598 
Q 2738 675 2819 816 
L 2934 816 
z
" id="TimesNewRomanPSMT-32" transform="scale(0.015625)"/>
       </defs>
       <use xlink:href="#TimesNewRomanPSMT-30"/>
       <use x="50" xlink:href="#TimesNewRomanPSMT-2e"/>
       <use x="75" xlink:href="#TimesNewRomanPSMT-30"/>
       <use x="125" xlink:href="#TimesNewRomanPSMT-30"/>
       <use x="175" xlink:href="#TimesNewRomanPSMT-32"/>
      </g>
     </g>
    </g>
    <g id="xtick_4">
     <g id="line2d_7">
      <path clip-path="url(#p628ce34dff)" d="M 276.39142 339.84 
L 276.39142 7.2 
" style="fill:none;stroke:#000000;stroke-dasharray:0.5,0.825;stroke-dashoffset:0;stroke-width:0.5;"/>
     </g>
     <g id="line2d_8">
      <g>
       <use style="stroke:#000000;stroke-width:0.8;" x="276.39142" xlink:href="#m0feafc14a5" y="339.84"/>
      </g>
     </g>
     <g id="text_4">
      <!-- 0.003 -->
      <g transform="translate(260.64142 356.56125)scale(0.14 -0.14)">
       <defs>
        <path d="M 325 3431 
Q 506 3859 782 4092 
Q 1059 4325 1472 4325 
Q 1981 4325 2253 3994 
Q 2459 3747 2459 3466 
Q 2459 3003 1878 2509 
Q 2269 2356 2469 2072 
Q 2669 1788 2669 1403 
Q 2669 853 2319 450 
Q 1863 -75 997 -75 
Q 569 -75 414 31 
Q 259 138 259 259 
Q 259 350 332 419 
Q 406 488 509 488 
Q 588 488 669 463 
Q 722 447 909 348 
Q 1097 250 1169 231 
Q 1284 197 1416 197 
Q 1734 197 1970 444 
Q 2206 691 2206 1028 
Q 2206 1275 2097 1509 
Q 2016 1684 1919 1775 
Q 1784 1900 1550 2001 
Q 1316 2103 1072 2103 
L 972 2103 
L 972 2197 
Q 1219 2228 1467 2375 
Q 1716 2522 1828 2728 
Q 1941 2934 1941 3181 
Q 1941 3503 1739 3701 
Q 1538 3900 1238 3900 
Q 753 3900 428 3381 
L 325 3431 
z
" id="TimesNewRomanPSMT-33" transform="scale(0.015625)"/>
       </defs>
       <use xlink:href="#TimesNewRomanPSMT-30"/>
       <use x="50" xlink:href="#TimesNewRomanPSMT-2e"/>
       <use x="75" xlink:href="#TimesNewRomanPSMT-30"/>
       <use x="125" xlink:href="#TimesNewRomanPSMT-30"/>
       <use x="175" xlink:href="#TimesNewRomanPSMT-33"/>
      </g>
     </g>
    </g>
    <g id="xtick_5">
     <g id="line2d_9">
      <path clip-path="url(#p628ce34dff)" d="M 337.264148 339.84 
L 337.264148 7.2 
" style="fill:none;stroke:#000000;stroke-dasharray:0.5,0.825;stroke-dashoffset:0;stroke-width:0.5;"/>
     </g>
     <g id="line2d_10">
      <g>
       <use style="stroke:#000000;stroke-width:0.8;" x="337.264148" xlink:href="#m0feafc14a5" y="339.84"/>
      </g>
     </g>
     <g id="text_5">
      <!-- 0.004 -->
      <g transform="translate(321.514148 356.56125)scale(0.14 -0.14)">
       <defs>
        <path d="M 2978 1563 
L 2978 1119 
L 2409 1119 
L 2409 0 
L 1894 0 
L 1894 1119 
L 100 1119 
L 100 1519 
L 2066 4325 
L 2409 4325 
L 2409 1563 
L 2978 1563 
z
M 1894 1563 
L 1894 3666 
L 406 1563 
L 1894 1563 
z
" id="TimesNewRomanPSMT-34" transform="scale(0.015625)"/>
       </defs>
       <use xlink:href="#TimesNewRomanPSMT-30"/>
       <use x="50" xlink:href="#TimesNewRomanPSMT-2e"/>
       <use x="75" xlink:href="#TimesNewRomanPSMT-30"/>
       <use x="125" xlink:href="#TimesNewRomanPSMT-30"/>
       <use x="175" xlink:href="#TimesNewRomanPSMT-34"/>
      </g>
     </g>
    </g>
    <g id="xtick_6">
     <g id="line2d_11">
      <path clip-path="url(#p628ce34dff)" d="M 398.136875 339.84 
L 398.136875 7.2 
" style="fill:none;stroke:#000000;stroke-dasharray:0.5,0.825;stroke-dashoffset:0;stroke-width:0.5;"/>
     </g>
     <g id="line2d_12">
      <g>
       <use style="stroke:#000000;stroke-width:0.8;" x="398.136875" xlink:href="#m0feafc14a5" y="339.84"/>
      </g>
     </g>
     <g id="text_6">
      <!-- 0.005 -->
      <g transform="translate(382.386875 356.56125)scale(0.14 -0.14)">
       <defs>
        <path d="M 2778 4238 
L 2534 3706 
L 1259 3706 
L 981 3138 
Q 1809 3016 2294 2522 
Q 2709 2097 2709 1522 
Q 2709 1188 2573 903 
Q 2438 619 2231 419 
Q 2025 219 1772 97 
Q 1413 -75 1034 -75 
Q 653 -75 479 54 
Q 306 184 306 341 
Q 306 428 378 495 
Q 450 563 559 563 
Q 641 563 702 538 
Q 763 513 909 409 
Q 1144 247 1384 247 
Q 1750 247 2026 523 
Q 2303 800 2303 1197 
Q 2303 1581 2056 1914 
Q 1809 2247 1375 2428 
Q 1034 2569 447 2591 
L 1259 4238 
L 2778 4238 
z
" id="TimesNewRomanPSMT-35" transform="scale(0.015625)"/>
       </defs>
       <use xlink:href="#TimesNewRomanPSMT-30"/>
       <use x="50" xlink:href="#TimesNewRomanPSMT-2e"/>
       <use x="75" xlink:href="#TimesNewRomanPSMT-30"/>
       <use x="125" xlink:href="#TimesNewRomanPSMT-30"/>
       <use x="175" xlink:href="#TimesNewRomanPSMT-35"/>
      </g>
     </g>
    </g>
    <g id="text_7">
     <!-- Time (sec) -->
     <g transform="translate(200.858906 373.277188)scale(0.14 -0.14)">
      <defs>
       <path d="M 3703 4238 
L 3750 3244 
L 3631 3244 
Q 3597 3506 3538 3619 
Q 3441 3800 3280 3886 
Q 3119 3972 2856 3972 
L 2259 3972 
L 2259 734 
Q 2259 344 2344 247 
Q 2463 116 2709 116 
L 2856 116 
L 2856 0 
L 1059 0 
L 1059 116 
L 1209 116 
Q 1478 116 1591 278 
Q 1659 378 1659 734 
L 1659 3972 
L 1150 3972 
Q 853 3972 728 3928 
Q 566 3869 450 3700 
Q 334 3531 313 3244 
L 194 3244 
L 244 4238 
L 3703 4238 
z
" id="TimesNewRomanPSMT-54" transform="scale(0.015625)"/>
       <path d="M 928 4444 
Q 1059 4444 1151 4351 
Q 1244 4259 1244 4128 
Q 1244 3997 1151 3903 
Q 1059 3809 928 3809 
Q 797 3809 703 3903 
Q 609 3997 609 4128 
Q 609 4259 701 4351 
Q 794 4444 928 4444 
z
M 1188 2947 
L 1188 647 
Q 1188 378 1227 289 
Q 1266 200 1342 156 
Q 1419 113 1622 113 
L 1622 0 
L 231 0 
L 231 113 
Q 441 113 512 153 
Q 584 194 626 287 
Q 669 381 669 647 
L 669 1750 
Q 669 2216 641 2353 
Q 619 2453 572 2492 
Q 525 2531 444 2531 
Q 356 2531 231 2484 
L 188 2597 
L 1050 2947 
L 1188 2947 
z
" id="TimesNewRomanPSMT-69" transform="scale(0.015625)"/>
       <path d="M 1050 2338 
Q 1363 2650 1419 2697 
Q 1559 2816 1721 2881 
Q 1884 2947 2044 2947 
Q 2313 2947 2506 2790 
Q 2700 2634 2766 2338 
Q 3088 2713 3309 2830 
Q 3531 2947 3766 2947 
Q 3994 2947 4170 2830 
Q 4347 2713 4450 2447 
Q 4519 2266 4519 1878 
L 4519 647 
Q 4519 378 4559 278 
Q 4591 209 4675 161 
Q 4759 113 4950 113 
L 4950 0 
L 3538 0 
L 3538 113 
L 3597 113 
Q 3781 113 3884 184 
Q 3956 234 3988 344 
Q 4000 397 4000 647 
L 4000 1878 
Q 4000 2228 3916 2372 
Q 3794 2572 3525 2572 
Q 3359 2572 3192 2489 
Q 3025 2406 2788 2181 
L 2781 2147 
L 2788 2013 
L 2788 647 
Q 2788 353 2820 281 
Q 2853 209 2943 161 
Q 3034 113 3253 113 
L 3253 0 
L 1806 0 
L 1806 113 
Q 2044 113 2133 169 
Q 2222 225 2256 338 
Q 2272 391 2272 647 
L 2272 1878 
Q 2272 2228 2169 2381 
Q 2031 2581 1784 2581 
Q 1616 2581 1450 2491 
Q 1191 2353 1050 2181 
L 1050 647 
Q 1050 366 1089 281 
Q 1128 197 1204 155 
Q 1281 113 1516 113 
L 1516 0 
L 100 0 
L 100 113 
Q 297 113 375 155 
Q 453 197 493 289 
Q 534 381 534 647 
L 534 1741 
Q 534 2213 506 2350 
Q 484 2453 437 2492 
Q 391 2531 309 2531 
Q 222 2531 100 2484 
L 53 2597 
L 916 2947 
L 1050 2947 
L 1050 2338 
z
" id="TimesNewRomanPSMT-6d" transform="scale(0.015625)"/>
       <path d="M 681 1784 
Q 678 1147 991 784 
Q 1303 422 1725 422 
Q 2006 422 2214 576 
Q 2422 731 2563 1106 
L 2659 1044 
Q 2594 616 2278 264 
Q 1963 -88 1488 -88 
Q 972 -88 605 314 
Q 238 716 238 1394 
Q 238 2128 614 2539 
Q 991 2950 1559 2950 
Q 2041 2950 2350 2633 
Q 2659 2316 2659 1784 
L 681 1784 
z
M 681 1966 
L 2006 1966 
Q 1991 2241 1941 2353 
Q 1863 2528 1708 2628 
Q 1553 2728 1384 2728 
Q 1125 2728 920 2526 
Q 716 2325 681 1966 
z
" id="TimesNewRomanPSMT-65" transform="scale(0.015625)"/>
       <path id="TimesNewRomanPSMT-20" transform="scale(0.015625)"/>
       <path d="M 1988 -1253 
L 1988 -1369 
Q 1516 -1131 1200 -813 
Q 750 -359 506 256 
Q 263 872 263 1534 
Q 263 2503 741 3301 
Q 1219 4100 1988 4444 
L 1988 4313 
Q 1603 4100 1356 3731 
Q 1109 3363 987 2797 
Q 866 2231 866 1616 
Q 866 947 969 400 
Q 1050 -31 1165 -292 
Q 1281 -553 1476 -793 
Q 1672 -1034 1988 -1253 
z
" id="TimesNewRomanPSMT-28" transform="scale(0.015625)"/>
       <path d="M 2050 2947 
L 2050 1972 
L 1947 1972 
Q 1828 2431 1642 2597 
Q 1456 2763 1169 2763 
Q 950 2763 815 2647 
Q 681 2531 681 2391 
Q 681 2216 781 2091 
Q 878 1963 1175 1819 
L 1631 1597 
Q 2266 1288 2266 781 
Q 2266 391 1970 151 
Q 1675 -88 1309 -88 
Q 1047 -88 709 6 
Q 606 38 541 38 
Q 469 38 428 -44 
L 325 -44 
L 325 978 
L 428 978 
Q 516 541 762 319 
Q 1009 97 1316 97 
Q 1531 97 1667 223 
Q 1803 350 1803 528 
Q 1803 744 1651 891 
Q 1500 1038 1047 1263 
Q 594 1488 453 1669 
Q 313 1847 313 2119 
Q 313 2472 555 2709 
Q 797 2947 1181 2947 
Q 1350 2947 1591 2875 
Q 1750 2828 1803 2828 
Q 1853 2828 1881 2850 
Q 1909 2872 1947 2947 
L 2050 2947 
z
" id="TimesNewRomanPSMT-73" transform="scale(0.015625)"/>
       <path d="M 2631 1088 
Q 2516 522 2178 217 
Q 1841 -88 1431 -88 
Q 944 -88 581 321 
Q 219 731 219 1428 
Q 219 2103 620 2525 
Q 1022 2947 1584 2947 
Q 2006 2947 2278 2723 
Q 2550 2500 2550 2259 
Q 2550 2141 2473 2067 
Q 2397 1994 2259 1994 
Q 2075 1994 1981 2113 
Q 1928 2178 1911 2362 
Q 1894 2547 1784 2644 
Q 1675 2738 1481 2738 
Q 1169 2738 978 2506 
Q 725 2200 725 1697 
Q 725 1184 976 792 
Q 1228 400 1656 400 
Q 1963 400 2206 609 
Q 2378 753 2541 1131 
L 2631 1088 
z
" id="TimesNewRomanPSMT-63" transform="scale(0.015625)"/>
       <path d="M 144 4313 
L 144 4444 
Q 619 4209 934 3891 
Q 1381 3434 1625 2820 
Q 1869 2206 1869 1541 
Q 1869 572 1392 -226 
Q 916 -1025 144 -1369 
L 144 -1253 
Q 528 -1038 776 -670 
Q 1025 -303 1145 264 
Q 1266 831 1266 1447 
Q 1266 2113 1163 2663 
Q 1084 3094 967 3353 
Q 850 3613 656 3853 
Q 463 4094 144 4313 
z
" id="TimesNewRomanPSMT-29" transform="scale(0.015625)"/>
      </defs>
      <use xlink:href="#TimesNewRomanPSMT-54"/>
      <use x="57.583984" xlink:href="#TimesNewRomanPSMT-69"/>
      <use x="85.367188" xlink:href="#TimesNewRomanPSMT-6d"/>
      <use x="163.150391" xlink:href="#TimesNewRomanPSMT-65"/>
      <use x="207.535156" xlink:href="#TimesNewRomanPSMT-20"/>
      <use x="232.535156" xlink:href="#TimesNewRomanPSMT-28"/>
      <use x="265.835938" xlink:href="#TimesNewRomanPSMT-73"/>
      <use x="304.751953" xlink:href="#TimesNewRomanPSMT-65"/>
      <use x="349.136719" xlink:href="#TimesNewRomanPSMT-63"/>
      <use x="393.521484" xlink:href="#TimesNewRomanPSMT-29"/>
     </g>
    </g>
   </g>
   <g id="matplotlib.axis_2">
    <g id="ytick_1">
     <g id="line2d_13">
      <path clip-path="url(#p628ce34dff)" d="M 63.336875 326.381499 
L 398.136875 326.381499 
" style="fill:none;stroke:#000000;stroke-dasharray:0.5,0.825;stroke-dashoffset:0;stroke-width:0.5;"/>
     </g>
     <g id="line2d_14">
      <defs>
       <path d="M 0 0 
L -3.5 0 
" id="m7b7ac562ce" style="stroke:#000000;stroke-width:0.8;"/>
      </defs>
      <g>
       <use style="stroke:#000000;stroke-width:0.8;" x="63.336875" xlink:href="#m7b7ac562ce" y="326.381499"/>
      </g>
     </g>
     <g id="text_8">
      <!-- −0.06 -->
      <g transform="translate(23.942188 331.242124)scale(0.14 -0.14)">
       <defs>
        <path d="M 3484 2000 
L 116 2000 
L 116 2256 
L 3484 2256 
L 3484 2000 
z
" id="TimesNewRomanPSMT-2212" transform="scale(0.015625)"/>
        <path d="M 2869 4325 
L 2869 4209 
Q 2456 4169 2195 4045 
Q 1934 3922 1679 3669 
Q 1425 3416 1258 3105 
Q 1091 2794 978 2366 
Q 1428 2675 1881 2675 
Q 2316 2675 2634 2325 
Q 2953 1975 2953 1425 
Q 2953 894 2631 456 
Q 2244 -75 1606 -75 
Q 1172 -75 869 213 
Q 275 772 275 1663 
Q 275 2231 503 2743 
Q 731 3256 1154 3653 
Q 1578 4050 1965 4187 
Q 2353 4325 2688 4325 
L 2869 4325 
z
M 925 2138 
Q 869 1716 869 1456 
Q 869 1156 980 804 
Q 1091 453 1309 247 
Q 1469 100 1697 100 
Q 1969 100 2183 356 
Q 2397 613 2397 1088 
Q 2397 1622 2184 2012 
Q 1972 2403 1581 2403 
Q 1463 2403 1327 2353 
Q 1191 2303 925 2138 
z
" id="TimesNewRomanPSMT-36" transform="scale(0.015625)"/>
       </defs>
       <use xlink:href="#TimesNewRomanPSMT-2212"/>
       <use x="56.396484" xlink:href="#TimesNewRomanPSMT-30"/>
       <use x="106.396484" xlink:href="#TimesNewRomanPSMT-2e"/>
       <use x="131.396484" xlink:href="#TimesNewRomanPSMT-30"/>
       <use x="181.396484" xlink:href="#TimesNewRomanPSMT-36"/>
      </g>
     </g>
    </g>
    <g id="ytick_2">
     <g id="line2d_15">
      <path clip-path="url(#p628ce34dff)" d="M 63.336875 269.93983 
L 398.136875 269.93983 
" style="fill:none;stroke:#000000;stroke-dasharray:0.5,0.825;stroke-dashoffset:0;stroke-width:0.5;"/>
     </g>
     <g id="line2d_16">
      <g>
       <use style="stroke:#000000;stroke-width:0.8;" x="63.336875" xlink:href="#m7b7ac562ce" y="269.93983"/>
      </g>
     </g>
     <g id="text_9">
      <!-- −0.04 -->
      <g transform="translate(23.942188 274.800455)scale(0.14 -0.14)">
       <use xlink:href="#TimesNewRomanPSMT-2212"/>
       <use x="56.396484" xlink:href="#TimesNewRomanPSMT-30"/>
       <use x="106.396484" xlink:href="#TimesNewRomanPSMT-2e"/>
       <use x="131.396484" xlink:href="#TimesNewRomanPSMT-30"/>
       <use x="181.396484" xlink:href="#TimesNewRomanPSMT-34"/>
      </g>
     </g>
    </g>
    <g id="ytick_3">
     <g id="line2d_17">
      <path clip-path="url(#p628ce34dff)" d="M 63.336875 213.498161 
L 398.136875 213.498161 
" style="fill:none;stroke:#000000;stroke-dasharray:0.5,0.825;stroke-dashoffset:0;stroke-width:0.5;"/>
     </g>
     <g id="line2d_18">
      <g>
       <use style="stroke:#000000;stroke-width:0.8;" x="63.336875" xlink:href="#m7b7ac562ce" y="213.498161"/>
      </g>
     </g>
     <g id="text_10">
      <!-- −0.02 -->
      <g transform="translate(23.942188 218.358786)scale(0.14 -0.14)">
       <use xlink:href="#TimesNewRomanPSMT-2212"/>
       <use x="56.396484" xlink:href="#TimesNewRomanPSMT-30"/>
       <use x="106.396484" xlink:href="#TimesNewRomanPSMT-2e"/>
       <use x="131.396484" xlink:href="#TimesNewRomanPSMT-30"/>
       <use x="181.396484" xlink:href="#TimesNewRomanPSMT-32"/>
      </g>
     </g>
    </g>
    <g id="ytick_4">
     <g id="line2d_19">
      <path clip-path="url(#p628ce34dff)" d="M 63.336875 157.056491 
L 398.136875 157.056491 
" style="fill:none;stroke:#000000;stroke-dasharray:0.5,0.825;stroke-dashoffset:0;stroke-width:0.5;"/>
     </g>
     <g id="line2d_20">
      <g>
       <use style="stroke:#000000;stroke-width:0.8;" x="63.336875" xlink:href="#m7b7ac562ce" y="157.056491"/>
      </g>
     </g>
     <g id="text_11">
      <!-- 0.00 -->
      <g transform="translate(31.836875 161.917116)scale(0.14 -0.14)">
       <use xlink:href="#TimesNewRomanPSMT-30"/>
       <use x="50" xlink:href="#TimesNewRomanPSMT-2e"/>
       <use x="75" xlink:href="#TimesNewRomanPSMT-30"/>
       <use x="125" xlink:href="#TimesNewRomanPSMT-30"/>
      </g>
     </g>
    </g>
    <g id="ytick_5">
     <g id="line2d_21">
      <path clip-path="url(#p628ce34dff)" d="M 63.336875 100.614822 
L 398.136875 100.614822 
" style="fill:none;stroke:#000000;stroke-dasharray:0.5,0.825;stroke-dashoffset:0;stroke-width:0.5;"/>
     </g>
     <g id="line2d_22">
      <g>
       <use style="stroke:#000000;stroke-width:0.8;" x="63.336875" xlink:href="#m7b7ac562ce" y="100.614822"/>
      </g>
     </g>
     <g id="text_12">
      <!-- 0.02 -->
      <g transform="translate(31.836875 105.475447)scale(0.14 -0.14)">
       <use xlink:href="#TimesNewRomanPSMT-30"/>
       <use x="50" xlink:href="#TimesNewRomanPSMT-2e"/>
       <use x="75" xlink:href="#TimesNewRomanPSMT-30"/>
       <use x="125" xlink:href="#TimesNewRomanPSMT-32"/>
      </g>
     </g>
    </g>
    <g id="ytick_6">
     <g id="line2d_23">
      <path clip-path="url(#p628ce34dff)" d="M 63.336875 44.173153 
L 398.136875 44.173153 
" style="fill:none;stroke:#000000;stroke-dasharray:0.5,0.825;stroke-dashoffset:0;stroke-width:0.5;"/>
     </g>
     <g id="line2d_24">
      <g>
       <use style="stroke:#000000;stroke-width:0.8;" x="63.336875" xlink:href="#m7b7ac562ce" y="44.173153"/>
      </g>
     </g>
     <g id="text_13">
      <!-- 0.04 -->
      <g transform="translate(31.836875 49.033778)scale(0.14 -0.14)">
       <use xlink:href="#TimesNewRomanPSMT-30"/>
       <use x="50" xlink:href="#TimesNewRomanPSMT-2e"/>
       <use x="75" xlink:href="#TimesNewRomanPSMT-30"/>
       <use x="125" xlink:href="#TimesNewRomanPSMT-34"/>
      </g>
     </g>
    </g>
    <g id="text_14">
     <!-- Volatage (V) -->
     <g transform="translate(16.92125 209.352344)rotate(-90)scale(0.14 -0.14)">
      <defs>
       <path d="M 4544 4238 
L 4544 4122 
Q 4319 4081 4203 3978 
Q 4038 3825 3909 3509 
L 2431 -97 
L 2316 -97 
L 728 3556 
Q 606 3838 556 3900 
Q 478 3997 364 4051 
Q 250 4106 56 4122 
L 56 4238 
L 1788 4238 
L 1788 4122 
Q 1494 4094 1406 4022 
Q 1319 3950 1319 3838 
Q 1319 3681 1463 3350 
L 2541 866 
L 3541 3319 
Q 3688 3681 3688 3822 
Q 3688 3913 3597 3995 
Q 3506 4078 3291 4113 
Q 3275 4116 3238 4122 
L 3238 4238 
L 4544 4238 
z
" id="TimesNewRomanPSMT-56" transform="scale(0.015625)"/>
       <path d="M 1600 2947 
Q 2250 2947 2644 2453 
Q 2978 2031 2978 1484 
Q 2978 1100 2793 706 
Q 2609 313 2286 112 
Q 1963 -88 1566 -88 
Q 919 -88 538 428 
Q 216 863 216 1403 
Q 216 1797 411 2186 
Q 606 2575 925 2761 
Q 1244 2947 1600 2947 
z
M 1503 2744 
Q 1338 2744 1170 2645 
Q 1003 2547 900 2300 
Q 797 2053 797 1666 
Q 797 1041 1045 587 
Q 1294 134 1700 134 
Q 2003 134 2200 384 
Q 2397 634 2397 1244 
Q 2397 2006 2069 2444 
Q 1847 2744 1503 2744 
z
" id="TimesNewRomanPSMT-6f" transform="scale(0.015625)"/>
       <path d="M 1184 4444 
L 1184 647 
Q 1184 378 1223 290 
Q 1263 203 1344 158 
Q 1425 113 1647 113 
L 1647 0 
L 244 0 
L 244 113 
Q 441 113 512 153 
Q 584 194 625 287 
Q 666 381 666 647 
L 666 3247 
Q 666 3731 644 3842 
Q 622 3953 573 3993 
Q 525 4034 450 4034 
Q 369 4034 244 3984 
L 191 4094 
L 1044 4444 
L 1184 4444 
z
" id="TimesNewRomanPSMT-6c" transform="scale(0.015625)"/>
       <path d="M 1822 413 
Q 1381 72 1269 19 
Q 1100 -59 909 -59 
Q 613 -59 420 144 
Q 228 347 228 678 
Q 228 888 322 1041 
Q 450 1253 767 1440 
Q 1084 1628 1822 1897 
L 1822 2009 
Q 1822 2438 1686 2597 
Q 1550 2756 1291 2756 
Q 1094 2756 978 2650 
Q 859 2544 859 2406 
L 866 2225 
Q 866 2081 792 2003 
Q 719 1925 600 1925 
Q 484 1925 411 2006 
Q 338 2088 338 2228 
Q 338 2497 613 2722 
Q 888 2947 1384 2947 
Q 1766 2947 2009 2819 
Q 2194 2722 2281 2516 
Q 2338 2381 2338 1966 
L 2338 994 
Q 2338 584 2353 492 
Q 2369 400 2405 369 
Q 2441 338 2488 338 
Q 2538 338 2575 359 
Q 2641 400 2828 588 
L 2828 413 
Q 2478 -56 2159 -56 
Q 2006 -56 1915 50 
Q 1825 156 1822 413 
z
M 1822 616 
L 1822 1706 
Q 1350 1519 1213 1441 
Q 966 1303 859 1153 
Q 753 1003 753 825 
Q 753 600 887 451 
Q 1022 303 1197 303 
Q 1434 303 1822 616 
z
" id="TimesNewRomanPSMT-61" transform="scale(0.015625)"/>
       <path d="M 1031 3803 
L 1031 2863 
L 1700 2863 
L 1700 2644 
L 1031 2644 
L 1031 788 
Q 1031 509 1111 412 
Q 1191 316 1316 316 
Q 1419 316 1516 380 
Q 1613 444 1666 569 
L 1788 569 
Q 1678 263 1478 108 
Q 1278 -47 1066 -47 
Q 922 -47 784 33 
Q 647 113 581 261 
Q 516 409 516 719 
L 516 2644 
L 63 2644 
L 63 2747 
Q 234 2816 414 2980 
Q 594 3144 734 3369 
Q 806 3488 934 3803 
L 1031 3803 
z
" id="TimesNewRomanPSMT-74" transform="scale(0.015625)"/>
       <path d="M 966 1044 
Q 703 1172 562 1401 
Q 422 1631 422 1909 
Q 422 2334 742 2640 
Q 1063 2947 1563 2947 
Q 1972 2947 2272 2747 
L 2878 2747 
Q 3013 2747 3034 2739 
Q 3056 2731 3066 2713 
Q 3084 2684 3084 2613 
Q 3084 2531 3069 2500 
Q 3059 2484 3036 2475 
Q 3013 2466 2878 2466 
L 2506 2466 
Q 2681 2241 2681 1891 
Q 2681 1491 2375 1206 
Q 2069 922 1553 922 
Q 1341 922 1119 984 
Q 981 866 932 777 
Q 884 688 884 625 
Q 884 572 936 522 
Q 988 472 1138 450 
Q 1225 438 1575 428 
Q 2219 413 2409 384 
Q 2700 344 2873 169 
Q 3047 -6 3047 -263 
Q 3047 -616 2716 -925 
Q 2228 -1381 1444 -1381 
Q 841 -1381 425 -1109 
Q 191 -953 191 -784 
Q 191 -709 225 -634 
Q 278 -519 444 -313 
Q 466 -284 763 25 
Q 600 122 533 198 
Q 466 275 466 372 
Q 466 481 555 628 
Q 644 775 966 1044 
z
M 1509 2797 
Q 1278 2797 1122 2612 
Q 966 2428 966 2047 
Q 966 1553 1178 1281 
Q 1341 1075 1591 1075 
Q 1828 1075 1981 1253 
Q 2134 1431 2134 1813 
Q 2134 2309 1919 2591 
Q 1759 2797 1509 2797 
z
M 934 0 
Q 788 -159 713 -296 
Q 638 -434 638 -550 
Q 638 -700 819 -813 
Q 1131 -1006 1722 -1006 
Q 2284 -1006 2551 -807 
Q 2819 -609 2819 -384 
Q 2819 -222 2659 -153 
Q 2497 -84 2016 -72 
Q 1313 -53 934 0 
z
" id="TimesNewRomanPSMT-67" transform="scale(0.015625)"/>
      </defs>
      <use xlink:href="#TimesNewRomanPSMT-56"/>
      <use x="59.341797" xlink:href="#TimesNewRomanPSMT-6f"/>
      <use x="109.341797" xlink:href="#TimesNewRomanPSMT-6c"/>
      <use x="137.125" xlink:href="#TimesNewRomanPSMT-61"/>
      <use x="181.509766" xlink:href="#TimesNewRomanPSMT-74"/>
      <use x="209.292969" xlink:href="#TimesNewRomanPSMT-61"/>
      <use x="253.677734" xlink:href="#TimesNewRomanPSMT-67"/>
      <use x="303.677734" xlink:href="#TimesNewRomanPSMT-65"/>
      <use x="348.0625" xlink:href="#TimesNewRomanPSMT-20"/>
      <use x="373.0625" xlink:href="#TimesNewRomanPSMT-28"/>
      <use x="406.363281" xlink:href="#TimesNewRomanPSMT-56"/>
      <use x="478.580078" xlink:href="#TimesNewRomanPSMT-29"/>
     </g>
    </g>
   </g>
   <g id="LineCollection_1">
    <path clip-path="url(#p628ce34dff)" d="M 78.555057 157.056491 
L 382.918693 157.056491 
" style="fill:none;stroke:#1f77b4;stroke-width:1.5;"/>
   </g>
   <g id="line2d_25">
    <path clip-path="url(#p628ce34dff)" d="M 78.555057 157.08824 
L 78.707239 157.123516 
L 82.20742 157.017688 
L 82.329166 156.982412 
L 82.450911 157.052964 
L 82.481348 157.017688 
L 82.54222 156.982412 
L 82.572657 157.017688 
L 82.724839 157.052964 
L 82.846584 157.017688 
L 82.998766 157.052964 
L 97.729966 157.123516 
L 97.760402 157.194068 
L 97.790839 157.08824 
L 97.821275 157.123516 
L 110.148002 157.229344 
L 110.269748 157.229344 
L 112.369857 157.335172 
L 112.522039 157.370448 
L 112.643784 157.370448 
L 113.496002 157.476276 
L 113.67862 157.546828 
L 113.76993 157.546828 
L 113.922111 157.582105 
L 114.01342 157.546828 
L 114.043857 157.582105 
L 114.591711 157.687933 
L 114.77433 157.758485 
L 114.804766 157.723209 
L 114.865639 157.793761 
L 115.383057 157.899589 
L 115.504802 157.970141 
L 115.565675 157.934865 
L 115.596111 157.970141 
L 115.77873 158.040693 
L 116.174402 158.146521 
L 116.326584 158.181797 
L 116.935311 158.252349 
L 117.02662 158.322901 
L 117.057057 158.287625 
L 117.209239 158.393453 
L 117.239675 158.358177 
L 117.939711 158.464006 
L 118.000584 158.393453 
L 118.091893 158.499282 
L 118.152766 158.42873 
L 118.183202 158.464006 
L 118.335384 158.534558 
L 118.36582 158.464006 
L 118.426693 158.534558 
L 118.518002 158.569834 
L 118.548439 158.534558 
L 119.431093 158.640386 
L 119.552839 158.675662 
L 120.161566 158.746214 
L 120.252875 158.816766 
L 120.283311 158.78149 
L 120.313748 158.746214 
L 120.37462 158.816766 
L 120.739857 158.922594 
L 120.770293 159.028422 
L 120.861602 158.95787 
L 121.105093 159.098974 
L 121.226839 159.098974 
L 121.37902 159.169526 
L 121.500766 159.240079 
L 121.683384 159.345907 
L 121.835566 159.487011 
L 121.987748 159.592839 
L 123.661748 161.674125 
L 124.14873 162.556027 
L 124.300911 162.873511 
L 125.944475 166.930256 
L 126.340148 168.270746 
L 126.40102 168.447126 
L 127.648911 173.174116 
L 128.805493 178.04221 
L 129.322911 180.194048 
L 129.718584 181.887299 
L 129.84033 182.416438 
L 130.296875 184.391898 
L 131.027348 187.284533 
L 131.17953 187.84895 
L 131.727384 189.930236 
L 131.970875 190.741585 
L 132.457857 192.046799 
L 132.579602 192.293731 
L 132.883966 192.963976 
L 133.918802 194.022257 
L 133.949239 193.986981 
L 134.010111 194.057533 
L 134.253602 194.198637 
L 134.618839 194.304465 
L 134.710148 194.304465 
L 134.831893 194.304465 
L 135.075384 194.198637 
L 135.288439 194.092809 
L 135.471057 193.986981 
L 135.988475 193.246184 
L 136.566766 191.658762 
L 137.418984 188.342814 
L 138.21033 184.391898 
L 138.423384 183.298341 
L 140.371311 168.976267 
L 141.832257 154.407261 
L 143.293202 138.039176 
L 148.650002 71.155799 
L 150.567493 52.283118 
L 151.419711 46.215639 
L 152.484984 40.677297 
L 153.550257 37.361346 
L 153.793748 37.008589 
L 153.915493 36.902764 
L 154.128548 36.79693 
L 154.250293 36.902764 
L 154.28073 36.832211 
L 154.493784 36.938037 
L 155.011202 37.678831 
L 156.259093 42.405826 
L 156.654766 44.734042 
L 157.780911 53.341394 
L 158.176584 57.362869 
L 159.607093 75.177268 
L 160.337566 86.007013 
L 160.97673 96.307617 
L 164.020366 154.760021 
L 169.559784 268.03139 
L 170.503311 283.482305 
L 171.751202 300.697012 
L 172.451239 308.175536 
L 173.02953 313.608044 
L 174.064366 320.028286 
L 174.520911 322.074288 
L 175.03833 323.485333 
L 175.586184 324.543611 
L 175.738366 324.649448 
L 175.920984 324.72 
L 176.073166 324.614166 
L 176.71233 323.767547 
L 176.95582 323.308955 
L 177.108002 322.991471 
L 177.868911 319.957731 
L 178.538511 316.430133 
L 180.334257 301.014496 
L 181.612584 286.516045 
L 183.65182 256.637231 
L 185.66062 222.243089 
L 188.156402 178.006933 
L 190.834802 133.276911 
L 193.878439 92.391979 
L 195.187202 79.904257 
L 196.587275 67.875129 
L 197.13513 64.100587 
L 197.561239 61.172684 
L 197.896039 59.303048 
L 198.352584 57.362869 
L 198.870002 54.999371 
L 199.296111 53.517774 
L 200.513566 49.637415 
L 200.787493 49.178827 
L 201.457093 47.838334 
L 201.548402 47.732509 
L 201.944075 47.415024 
L 202.06582 47.485579 
L 202.096257 47.450295 
L 202.674548 47.344472 
L 202.82673 47.273917 
L 202.948475 47.309191 
L 203.039784 47.273917 
L 203.07022 47.309191 
L 203.222402 47.379743 
L 203.374584 47.52085 
L 203.465893 47.591402 
L 203.618075 47.767779 
L 203.73982 47.767779 
L 204.044184 47.979441 
L 204.257239 48.085266 
L 205.07902 49.74324 
L 205.200766 50.025454 
L 205.992111 52.106738 
L 206.387784 53.447219 
L 206.813893 54.681886 
L 207.940039 58.985564 
L 213.996875 87.559159 
L 218.318839 113.240115 
L 219.14062 118.178764 
L 219.384111 119.766186 
L 219.992839 123.858207 
L 220.723311 128.726301 
L 222.519057 141.990093 
L 224.893093 162.062162 
L 225.410511 166.789152 
L 226.567093 178.536075 
L 228.51502 199.983908 
L 229.915093 216.422545 
L 233.050039 251.486934 
L 234.571857 266.197036 
L 235.88062 275.968503 
L 236.671966 279.954696 
L 237.524184 282.565126 
L 237.64593 282.670948 
L 237.828548 282.847337 
L 238.498148 283.482305 
L 238.680766 283.411753 
L 238.711202 283.447024 
L 238.741639 283.341201 
L 238.863384 283.235365 
L 239.137311 282.847337 
L 239.65473 282.106534 
L 240.019966 281.012985 
L 240.446075 279.143349 
L 241.23742 274.980779 
L 243.946257 252.157176 
L 246.472475 221.713951 
L 247.68993 203.758445 
L 248.93782 184.885761 
L 251.464039 148.445609 
L 253.29022 126.539186 
L 255.481639 107.207915 
L 257.216511 97.753932 
L 258.007857 95.39044 
L 259.07313 93.132774 
L 259.134002 93.062219 
L 259.40793 92.674188 
L 260.65582 91.368971 
L 260.99062 91.263143 
L 261.112366 91.192588 
L 261.142802 91.227864 
L 261.721093 91.333695 
L 261.964584 91.474802 
L 262.055893 91.580628 
L 262.573311 92.039219 
L 262.66462 92.145042 
L 263.42553 93.097495 
L 263.608148 93.450258 
L 263.942948 93.979396 
L 264.034257 94.085227 
L 264.42993 94.755472 
L 264.490802 94.861302 
L 264.703857 95.249333 
L 264.947348 95.707925 
L 265.586511 96.942586 
L 265.738693 97.224795 
L 265.951748 97.753932 
L 267.01702 100.434917 
L 267.35182 101.493196 
L 267.595311 102.304548 
L 270.36502 112.287662 
L 270.882439 114.686436 
L 271.247675 116.34441 
L 272.586875 123.470171 
L 273.743457 129.325994 
L 274.260875 131.724765 
L 274.352184 132.148077 
L 275.782693 138.286109 
L 275.934875 138.885801 
L 277.15233 143.506964 
L 277.761057 145.835182 
L 279.73942 152.325974 
L 281.109057 155.74775 
L 281.474293 156.629651 
L 282.052584 157.723209 
L 282.113457 157.829037 
L 282.296075 158.181797 
L 282.691748 158.887318 
L 282.722184 158.852042 
L 282.75262 158.95787 
L 283.452657 159.663391 
L 283.483093 159.628115 
L 283.543966 159.698667 
L 283.726584 159.875047 
L 284.030948 160.086704 
L 284.152693 160.086704 
L 285.248402 159.980875 
L 286.344111 158.569834 
L 288.170293 154.089776 
L 288.900766 151.937937 
L 289.022511 151.65573 
L 291.031311 147.246224 
L 291.700911 146.575979 
L 291.853093 146.611255 
L 291.974839 146.540703 
L 292.005275 146.575979 
L 292.766184 146.681807 
L 293.861893 148.092849 
L 294.196693 148.868922 
L 294.288002 149.080578 
L 294.927166 150.914932 
L 295.170657 151.726281 
L 297.849057 164.637313 
L 299.58393 175.325954 
L 300.314402 180.370428 
L 301.197057 186.120422 
L 301.744911 189.683304 
L 303.84502 203.546792 
L 304.149384 205.416422 
L 304.818984 209.296784 
L 305.032039 210.390344 
L 305.975566 215.258435 
L 306.036439 215.434813 
L 306.432111 217.128065 
L 307.61913 220.867326 
L 308.593093 222.878058 
L 308.684402 222.948613 
L 308.95833 223.336649 
L 309.080075 223.44248 
L 309.53662 223.830511 
L 309.719239 223.759964 
L 309.96273 223.654133 
L 310.114911 223.548305 
L 310.419275 223.301373 
L 310.449711 223.336649 
L 310.480148 223.266097 
L 310.845384 222.70168 
L 311.393239 221.255365 
L 311.697602 220.126529 
L 311.88022 219.49156 
L 313.21942 212.824388 
L 314.102075 207.46243 
L 314.589057 204.040653 
L 322.076402 144.141933 
L 322.746002 139.626599 
L 325.515711 121.141952 
L 326.124439 117.826004 
L 326.854911 114.227847 
L 328.650657 106.396563 
L 329.928984 102.339824 
L 331.024693 100.046878 
L 331.268184 99.623563 
L 331.816039 98.600563 
L 331.907348 98.494732 
L 332.211711 98.036141 
L 332.759566 97.295347 
L 332.942184 97.048417 
L 333.155239 96.766203 
L 333.185675 96.836758 
L 333.246548 96.730933 
L 333.276984 96.766203 
L 333.337857 96.695657 
L 334.524875 96.801479 
L 334.98142 97.189519 
L 335.07273 97.295347 
L 335.468402 97.612831 
L 335.590148 97.718656 
L 336.624984 99.023873 
L 336.868475 99.482461 
L 338.451166 103.398102 
L 341.525239 114.474777 
L 342.77313 119.766186 
L 343.168802 121.529988 
L 346.547239 137.686416 
L 347.216839 141.566781 
L 349.256075 152.749287 
L 350.290911 158.040693 
L 351.14313 162.34437 
L 352.330148 167.353568 
L 354.06502 172.997735 
L 354.460693 174.161845 
L 355.282475 176.666444 
L 355.373784 176.8781 
L 355.678148 177.795277 
L 356.804293 181.358157 
L 356.895602 181.605091 
L 358.021748 185.132695 
L 358.41742 186.296803 
L 359.117457 188.342814 
L 359.208766 188.55447 
L 359.787057 190.177168 
L 361.887166 194.79833 
L 362.282839 195.362747 
L 362.495893 195.715507 
L 363.348111 196.562132 
L 363.53073 196.66796 
L 363.895966 196.950169 
L 364.10902 197.055997 
L 364.261202 197.091273 
L 364.504693 197.197101 
L 364.626439 197.232377 
L 364.930802 197.444033 
L 365.174293 197.549861 
L 365.417784 197.690966 
L 365.722148 197.761518 
L 365.813457 197.83207 
L 365.843893 197.796794 
L 366.026511 197.867346 
L 366.513493 197.937898 
L 366.635239 198.00845 
L 366.665675 197.973174 
L 366.726548 198.043726 
L 367.21353 198.114278 
L 367.335275 198.18483 
L 368.157057 198.290658 
L 368.309239 198.325934 
L 370.439784 198.220106 
L 370.622402 198.149554 
L 371.018075 198.079002 
L 371.170257 197.937898 
L 371.47462 197.83207 
L 371.596366 197.726242 
L 371.626802 197.761518 
L 371.687675 197.690966 
L 371.839857 197.65569 
L 372.113784 197.585137 
L 372.23553 197.479309 
L 372.326839 197.479309 
L 372.539893 197.302929 
L 372.57033 197.338205 
L 372.844257 197.232377 
L 373.087748 197.091273 
L 373.300802 197.055997 
L 373.422548 196.950169 
L 373.544293 196.950169 
L 374.031275 196.49158 
L 374.061711 196.526856 
L 374.122584 196.456304 
L 375.461784 194.763054 
L 375.82702 194.128085 
L 375.857457 194.163361 
L 376.040075 193.810601 
L 376.344439 193.316736 
L 378.688039 187.637293 
L 381.549057 177.301413 
L 382.066475 174.937918 
L 382.918693 170.916449 
L 382.918693 170.916449 
" style="fill:none;stroke:#0000ff;stroke-linecap:square;stroke-width:1.5;"/>
   </g>
   <g id="line2d_26">
    <path clip-path="url(#p628ce34dff)" d="M 78.555057 157.021568 
L 87.533784 157.127396 
L 87.685966 157.109758 
L 87.89902 157.109758 
L 99.860511 157.197948 
L 100.012693 157.215586 
L 100.408366 157.321415 
L 100.71273 157.409605 
L 100.95622 157.550709 
L 101.169275 157.638899 
L 101.473639 157.832917 
L 101.62582 157.938745 
L 102.05193 158.309144 
L 103.086766 159.649633 
L 105.156439 164.711745 
L 105.97822 167.586743 
L 106.373893 169.068337 
L 107.104366 171.996249 
L 110.361057 184.766176 
L 111.608948 188.046848 
L 111.852439 188.470161 
L 112.369857 189.422614 
L 113.222075 190.251601 
L 113.496002 190.286877 
L 114.10473 190.181049 
L 114.987384 188.999301 
L 115.626548 187.694088 
L 116.387457 185.154213 
L 116.965748 182.755441 
L 117.574475 179.82753 
L 119.46153 168.23935 
L 120.587675 160.355154 
L 125.457493 121.727887 
L 128.07502 107.176516 
L 129.809893 100.579902 
L 130.662111 98.869014 
L 131.209966 98.128214 
L 131.636075 97.775454 
L 132.640475 96.240949 
L 132.944839 96.135118 
L 133.157893 96.029287 
L 133.370948 95.923464 
L 133.705748 95.676526 
L 134.405784 95.782357 
L 134.649275 95.905823 
L 135.075384 95.782357 
L 135.805857 95.870544 
L 136.049348 96.082206 
L 136.53633 96.240949 
L 136.749384 96.240949 
L 136.992875 96.346771 
L 137.266802 96.628979 
L 137.966839 97.634352 
L 138.271202 98.145855 
L 138.971239 100.491706 
L 140.401748 106.735566 
L 142.501857 118.253197 
L 144.023675 129.594446 
L 147.736911 160.584449 
L 148.528257 167.727848 
L 149.319602 175.047627 
L 151.693639 196.036872 
L 152.911093 205.649594 
L 154.18942 213.815998 
L 155.741675 220.518443 
L 155.95473 221.100501 
L 156.95913 223.164149 
L 157.080875 223.252339 
L 157.598293 223.69329 
L 157.993966 223.799118 
L 158.511384 223.375805 
L 159.515784 222.052954 
L 160.094075 220.835927 
L 161.585457 216.197131 
L 162.863784 210.58824 
L 164.416039 200.95788 
L 166.272657 187.288413 
L 167.733602 176.335202 
L 168.372766 172.313733 
L 170.59462 161.289969 
L 171.720766 158.362058 
L 172.146875 157.638899 
L 172.35993 157.444881 
L 172.542548 157.427243 
L 172.907784 157.339053 
L 173.090402 157.321415 
L 173.303457 157.303776 
L 173.577384 157.462519 
L 173.820875 157.727089 
L 174.642657 158.838284 
L 175.160075 159.931842 
L 175.738366 161.942576 
L 176.681893 165.611285 
L 177.594984 170.338274 
L 178.538511 176.458667 
L 179.664657 183.549153 
L 182.525675 199.052974 
L 183.347457 203.16263 
L 184.260548 206.425664 
L 185.021457 208.330573 
L 185.173639 208.542232 
L 185.66062 208.983183 
L 185.782366 209.000818 
L 186.08673 208.894987 
L 186.33022 208.630419 
L 186.634584 208.136552 
L 187.060693 207.237018 
L 187.517239 205.914161 
L 188.247711 203.003888 
L 189.34342 197.412638 
L 190.10433 192.368163 
L 190.834802 186.036114 
L 194.061057 153.158841 
L 195.582875 136.737843 
L 196.343784 129.18877 
L 198.291711 110.033879 
L 202.126693 75.428083 
L 204.561602 61.934991 
L 204.987711 60.665053 
L 205.383384 59.853704 
L 205.626875 59.642057 
L 205.809493 59.642057 
L 206.41822 60.18883 
L 206.722584 60.488673 
L 207.17913 61.176556 
L 207.635675 62.14665 
L 207.970475 62.922726 
L 208.700948 64.880546 
L 209.674911 68.655077 
L 210.466257 72.30615 
L 212.962039 87.4043 
L 216.492657 112.732496 
L 220.23633 140.141981 
L 222.306002 152.770805 
L 222.82342 155.628164 
L 223.523457 159.385063 
L 227.084511 177.375846 
L 230.006402 188.787645 
L 232.380439 195.983958 
L 232.928293 197.765398 
L 233.780511 200.569843 
L 234.693602 203.815239 
L 236.367602 209.24775 
L 236.489348 209.547596 
L 238.072039 212.969373 
L 239.137311 214.045292 
L 239.593857 214.151117 
L 239.928657 214.221672 
L 240.111275 214.239313 
L 240.415639 214.292224 
L 240.598257 214.292224 
L 240.750439 214.309859 
L 241.115675 214.398055 
L 241.32873 214.398055 
L 242.180948 214.292224 
L 242.485311 214.239313 
L 242.66793 214.221672 
L 243.641893 214.309859 
L 244.00713 214.592073 
L 244.128875 214.644985 
L 244.707166 215.10357 
L 246.320293 217.131943 
L 246.92902 217.978574 
L 247.507311 218.807555 
L 247.781239 219.266146 
L 250.916184 224.910313 
L 251.403166 225.986233 
L 252.072766 227.273808 
L 252.651057 228.08516 
L 252.864111 228.332089 
L 253.29022 228.684853 
L 253.503275 228.77304 
L 253.746766 228.914141 
L 253.990257 229.019972 
L 254.233748 229.143438 
L 254.507675 229.196355 
L 255.63382 228.437915 
L 256.364293 226.956324 
L 257.06433 225.104334 
L 258.64702 218.225503 
L 259.194875 214.821362 
L 260.168839 207.307565 
L 261.538475 193.602825 
L 262.75593 178.275384 
L 265.251711 140.512379 
L 267.077893 109.099063 
L 268.964948 78.161971 
L 270.547639 55.973337 
L 271.36942 46.431173 
L 272.556439 35.160477 
L 273.37822 29.357573 
L 274.108693 25.35374 
L 274.626111 23.695763 
L 275.021784 22.884417 
L 275.630511 22.32 
L 275.843566 22.425825 
L 276.48273 23.325367 
L 277.274075 25.424292 
L 277.943675 28.581498 
L 278.978511 35.19575 
L 280.104657 44.490993 
L 281.535166 58.777785 
L 283.604839 82.747862 
L 286.313675 115.889702 
L 291.45742 174.236277 
L 293.405348 192.350525 
L 294.348875 199.635028 
L 297.392511 218.331328 
L 298.214293 222.44099 
L 300.070911 229.54911 
L 301.531857 232.706322 
L 301.714475 232.917975 
L 302.140584 233.447113 
L 302.627566 233.852793 
L 303.023239 233.746962 
L 303.327602 233.447113 
L 304.453748 230.572118 
L 305.640766 225.298353 
L 308.562657 207.748521 
L 309.688802 200.075979 
L 310.175784 196.971687 
L 313.158548 177.252379 
L 313.98033 171.44947 
L 316.810911 154.111295 
L 318.058802 148.167282 
L 319.124075 144.304555 
L 321.34593 138.184161 
L 322.502511 136.385083 
L 323.293857 135.626648 
L 323.659093 135.291526 
L 324.420002 134.55073 
L 324.541748 134.462538 
L 325.393966 133.316068 
L 325.820075 132.592908 
L 326.398366 131.763922 
L 327.189711 130.599812 
L 327.676693 129.876654 
L 328.407166 128.412697 
L 328.894148 127.336778 
L 330.263784 123.915002 
L 330.902948 122.080647 
L 334.159639 112.96179 
L 334.524875 112.115168 
L 335.437966 110.263173 
L 336.41193 108.781579 
L 336.838039 108.128969 
L 337.385893 107.388175 
L 338.298984 106.471001 
L 338.512039 106.36517 
L 338.694657 106.294615 
L 339.486002 106.400446 
L 340.368657 107.035415 
L 341.555675 109.31072 
L 342.286148 111.250902 
L 344.325384 118.729423 
L 344.751493 120.916538 
L 346.060257 129.153494 
L 348.069057 142.664219 
L 349.773493 155.293042 
L 351.72142 170.19717 
L 355.06942 194.590554 
L 357.07822 206.725513 
L 358.569602 213.128115 
L 359.51313 216.038388 
L 360.18273 217.00848 
L 361.065384 217.396516 
L 361.308875 217.36124 
L 361.52193 217.36124 
L 361.887166 217.27305 
L 362.130657 217.167222 
L 363.226366 215.738539 
L 363.682911 214.733175 
L 364.930802 210.782258 
L 366.635239 203.409568 
L 367.274402 199.493924 
L 369.80062 181.203295 
L 374.700875 136.755482 
L 377.92713 113.279275 
L 378.748911 108.428819 
L 379.357639 105.218699 
L 381.457748 97.140485 
L 382.218657 95.270852 
L 382.85782 94.053834 
L 382.918693 93.948003 
L 382.918693 93.948003 
" style="fill:none;stroke:#ff0000;stroke-linecap:square;stroke-width:1.5;"/>
   </g>
   <g id="line2d_27">
    <path clip-path="url(#p628ce34dff)" d="M 125.427057 165.448662 
" style="fill:none;stroke:#ffffff;stroke-linecap:square;stroke-width:1.5;"/>
    <defs>
     <path d="M 0 -5 
L -1.12257 -1.545085 
L -4.755283 -1.545085 
L -1.816356 0.59017 
L -2.938926 4.045085 
L -0 1.90983 
L 2.938926 4.045085 
L 1.816356 0.59017 
L 4.755283 -1.545085 
L 1.12257 -1.545085 
z
" id="m89e06ca63f" style="stroke:#ffffff;stroke-linejoin:bevel;"/>
    </defs>
    <g clip-path="url(#p628ce34dff)">
     <use style="fill:#0000ff;stroke:#ffffff;stroke-linejoin:bevel;" x="125.427057" xlink:href="#m89e06ca63f" y="165.448662"/>
    </g>
   </g>
   <g id="line2d_28">
    <path clip-path="url(#p628ce34dff)" d="M 104.882511 163.865121 
" style="fill:none;stroke:#ffffff;stroke-linecap:square;stroke-width:1.5;"/>
    <defs>
     <path d="M 0 -5 
L -1.12257 -1.545085 
L -4.755283 -1.545085 
L -1.816356 0.59017 
L -2.938926 4.045085 
L -0 1.90983 
L 2.938926 4.045085 
L 1.816356 0.59017 
L 4.755283 -1.545085 
L 1.12257 -1.545085 
z
" id="m9dcad4db53" style="stroke:#ffffff;stroke-linejoin:bevel;"/>
    </defs>
    <g clip-path="url(#p628ce34dff)">
     <use style="fill:#ff0000;stroke:#ffffff;stroke-linejoin:bevel;" x="104.882511" xlink:href="#m9dcad4db53" y="163.865121"/>
    </g>
   </g>
   <g id="patch_3">
    <path d="M 63.336875 339.84 
L 63.336875 7.2 
" style="fill:none;stroke:#000000;stroke-linecap:square;stroke-linejoin:miter;stroke-width:0.8;"/>
   </g>
   <g id="patch_4">
    <path d="M 398.136875 339.84 
L 398.136875 7.2 
" style="fill:none;stroke:#000000;stroke-linecap:square;stroke-linejoin:miter;stroke-width:0.8;"/>
   </g>
   <g id="patch_5">
    <path d="M 63.336875 339.84 
L 398.136875 339.84 
" style="fill:none;stroke:#000000;stroke-linecap:square;stroke-linejoin:miter;stroke-width:0.8;"/>
   </g>
   <g id="patch_6">
    <path d="M 63.336875 7.2 
L 398.136875 7.2 
" style="fill:none;stroke:#000000;stroke-linecap:square;stroke-linejoin:miter;stroke-width:0.8;"/>
   </g>
   <g id="text_15">
    <g id="patch_7">
     <path d="M 75.036875 331.242688 
L 166.79375 331.242688 
L 166.79375 293.760312 
L 75.036875 293.760312 
z
" style="fill:#ffffff;stroke:#000000;stroke-linejoin:miter;stroke-width:0.75;"/>
    </g>
    <!-- Auto_00098 -->
    <g transform="translate(80.076875 308.521563)scale(0.14 -0.14)">
     <defs>
      <path d="M 2928 1419 
L 1288 1419 
L 1000 750 
Q 894 503 894 381 
Q 894 284 986 211 
Q 1078 138 1384 116 
L 1384 0 
L 50 0 
L 50 116 
Q 316 163 394 238 
Q 553 388 747 847 
L 2238 4334 
L 2347 4334 
L 3822 809 
Q 4000 384 4145 257 
Q 4291 131 4550 116 
L 4550 0 
L 2878 0 
L 2878 116 
Q 3131 128 3220 200 
Q 3309 272 3309 375 
Q 3309 513 3184 809 
L 2928 1419 
z
M 2841 1650 
L 2122 3363 
L 1384 1650 
L 2841 1650 
z
" id="TimesNewRomanPSMT-41" transform="scale(0.015625)"/>
      <path d="M 2709 2863 
L 2709 1128 
Q 2709 631 2732 520 
Q 2756 409 2807 365 
Q 2859 322 2928 322 
Q 3025 322 3147 375 
L 3191 266 
L 2334 -88 
L 2194 -88 
L 2194 519 
Q 1825 119 1631 15 
Q 1438 -88 1222 -88 
Q 981 -88 804 51 
Q 628 191 559 409 
Q 491 628 491 1028 
L 491 2306 
Q 491 2509 447 2587 
Q 403 2666 317 2708 
Q 231 2750 6 2747 
L 6 2863 
L 1009 2863 
L 1009 947 
Q 1009 547 1148 422 
Q 1288 297 1484 297 
Q 1619 297 1789 381 
Q 1959 466 2194 703 
L 2194 2325 
Q 2194 2569 2105 2655 
Q 2016 2741 1734 2747 
L 1734 2863 
L 2709 2863 
z
" id="TimesNewRomanPSMT-75" transform="scale(0.015625)"/>
      <path d="M 3256 -1381 
L -53 -1381 
L -53 -1119 
L 3256 -1119 
L 3256 -1381 
z
" id="TimesNewRomanPSMT-5f" transform="scale(0.015625)"/>
      <path d="M 338 -88 
L 338 28 
Q 744 34 1094 217 
Q 1444 400 1770 856 
Q 2097 1313 2225 1859 
Q 1734 1544 1338 1544 
Q 891 1544 572 1889 
Q 253 2234 253 2806 
Q 253 3363 572 3797 
Q 956 4325 1575 4325 
Q 2097 4325 2469 3894 
Q 2925 3359 2925 2575 
Q 2925 1869 2578 1258 
Q 2231 647 1613 244 
Q 1109 -88 516 -88 
L 338 -88 
z
M 2275 2091 
Q 2331 2497 2331 2741 
Q 2331 3044 2228 3395 
Q 2125 3747 1936 3934 
Q 1747 4122 1506 4122 
Q 1228 4122 1018 3872 
Q 809 3622 809 3128 
Q 809 2469 1088 2097 
Q 1291 1828 1588 1828 
Q 1731 1828 1928 1897 
Q 2125 1966 2275 2091 
z
" id="TimesNewRomanPSMT-39" transform="scale(0.015625)"/>
      <path d="M 1228 2134 
Q 725 2547 579 2797 
Q 434 3047 434 3316 
Q 434 3728 753 4026 
Q 1072 4325 1600 4325 
Q 2113 4325 2425 4047 
Q 2738 3769 2738 3413 
Q 2738 3175 2569 2928 
Q 2400 2681 1866 2347 
Q 2416 1922 2594 1678 
Q 2831 1359 2831 1006 
Q 2831 559 2490 242 
Q 2150 -75 1597 -75 
Q 994 -75 656 303 
Q 388 606 388 966 
Q 388 1247 577 1523 
Q 766 1800 1228 2134 
z
M 1719 2469 
Q 2094 2806 2194 3001 
Q 2294 3197 2294 3444 
Q 2294 3772 2109 3958 
Q 1925 4144 1606 4144 
Q 1288 4144 1088 3959 
Q 888 3775 888 3528 
Q 888 3366 970 3203 
Q 1053 3041 1206 2894 
L 1719 2469 
z
M 1375 2016 
Q 1116 1797 991 1539 
Q 866 1281 866 981 
Q 866 578 1086 336 
Q 1306 94 1647 94 
Q 1984 94 2187 284 
Q 2391 475 2391 747 
Q 2391 972 2272 1150 
Q 2050 1481 1375 2016 
z
" id="TimesNewRomanPSMT-38" transform="scale(0.015625)"/>
     </defs>
     <use xlink:href="#TimesNewRomanPSMT-41"/>
     <use x="72.216797" xlink:href="#TimesNewRomanPSMT-75"/>
     <use x="122.216797" xlink:href="#TimesNewRomanPSMT-74"/>
     <use x="150" xlink:href="#TimesNewRomanPSMT-6f"/>
     <use x="200" xlink:href="#TimesNewRomanPSMT-5f"/>
     <use x="250" xlink:href="#TimesNewRomanPSMT-30"/>
     <use x="300" xlink:href="#TimesNewRomanPSMT-30"/>
     <use x="350" xlink:href="#TimesNewRomanPSMT-30"/>
     <use x="400" xlink:href="#TimesNewRomanPSMT-39"/>
     <use x="450" xlink:href="#TimesNewRomanPSMT-38"/>
    </g>
    <!-- Vs: 296.14m/s -->
    <g transform="translate(80.076875 323.208)scale(0.14 -0.14)">
     <defs>
      <path d="M 903 2950 
Q 1047 2950 1148 2848 
Q 1250 2747 1250 2603 
Q 1250 2459 1148 2357 
Q 1047 2256 903 2256 
Q 759 2256 657 2357 
Q 556 2459 556 2603 
Q 556 2747 657 2848 
Q 759 2950 903 2950 
z
M 897 609 
Q 1044 609 1145 506 
Q 1247 403 1247 259 
Q 1247 116 1144 14 
Q 1041 -88 897 -88 
Q 753 -88 651 14 
Q 550 116 550 259 
Q 550 403 651 506 
Q 753 609 897 609 
z
" id="TimesNewRomanPSMT-3a" transform="scale(0.015625)"/>
      <path d="M 1794 4444 
L 259 -88 
L 9 -88 
L 1544 4444 
L 1794 4444 
z
" id="TimesNewRomanPSMT-2f" transform="scale(0.015625)"/>
     </defs>
     <use xlink:href="#TimesNewRomanPSMT-56"/>
     <use x="72.216797" xlink:href="#TimesNewRomanPSMT-73"/>
     <use x="111.132812" xlink:href="#TimesNewRomanPSMT-3a"/>
     <use x="138.916016" xlink:href="#TimesNewRomanPSMT-20"/>
     <use x="163.916016" xlink:href="#TimesNewRomanPSMT-32"/>
     <use x="213.916016" xlink:href="#TimesNewRomanPSMT-39"/>
     <use x="263.916016" xlink:href="#TimesNewRomanPSMT-36"/>
     <use x="313.916016" xlink:href="#TimesNewRomanPSMT-2e"/>
     <use x="338.916016" xlink:href="#TimesNewRomanPSMT-31"/>
     <use x="388.916016" xlink:href="#TimesNewRomanPSMT-34"/>
     <use x="438.916016" xlink:href="#TimesNewRomanPSMT-6d"/>
     <use x="516.699219" xlink:href="#TimesNewRomanPSMT-2f"/>
     <use x="544.482422" xlink:href="#TimesNewRomanPSMT-73"/>
    </g>
   </g>
  </g>
 </g>
 <defs>
  <clipPath id="p628ce34dff">
   <rect height="332.64" width="334.8" x="63.336875" y="7.2"/>
  </clipPath>
 </defs>
</svg>
