<?xml version="1.0" encoding="utf-8" standalone="no"?>
<!DOCTYPE svg PUBLIC "-//W3C//DTD SVG 1.1//EN"
  "http://www.w3.org/Graphics/SVG/1.1/DTD/svg11.dtd">
<svg height="383.471875pt" version="1.1" viewBox="0 0 421.086875 383.471875" width="421.086875pt" xmlns="http://www.w3.org/2000/svg" xmlns:xlink="http://www.w3.org/1999/xlink">
 <metadata>
  <rdf:RDF xmlns:cc="http://creativecommons.org/ns#" xmlns:dc="http://purl.org/dc/elements/1.1/" xmlns:rdf="http://www.w3.org/1999/02/22-rdf-syntax-ns#">
   <cc:Work>
    <dc:type rdf:resource="http://purl.org/dc/dcmitype/StillImage"/>
    <dc:date>2021-06-11T14:39:37.853247</dc:date>
    <dc:format>image/svg+xml</dc:format>
    <dc:creator>
     <cc:Agent>
      <dc:title>Matplotlib v3.4.2, https://matplotlib.org/</dc:title>
     </cc:Agent>
    </dc:creator>
   </cc:Work>
  </rdf:RDF>
 </metadata>
 <defs>
  <style type="text/css">*{stroke-linecap:butt;stroke-linejoin:round;}</style>
 </defs>
 <g id="figure_1">
  <g id="patch_1">
   <path d="M 0 383.471875 
L 421.086875 383.471875 
L 421.086875 0 
L 0 0 
z
" style="fill:#ffffff;"/>
  </g>
  <g id="axes_1">
   <g id="patch_2">
    <path d="M 63.336875 339.84 
L 398.136875 339.84 
L 398.136875 7.2 
L 63.336875 7.2 
z
" style="fill:#ffffff;"/>
   </g>
   <g id="matplotlib.axis_1">
    <g id="xtick_1">
     <g id="line2d_1">
      <path clip-path="url(#p1298b05188)" d="M 93.773239 339.84 
L 93.773239 7.2 
" style="fill:none;stroke:#000000;stroke-dasharray:0.5,0.825;stroke-dashoffset:0;stroke-width:0.5;"/>
     </g>
     <g id="line2d_2">
      <defs>
       <path d="M 0 0 
L 0 3.5 
" id="mb64b4fc428" style="stroke:#000000;stroke-width:0.8;"/>
      </defs>
      <g>
       <use style="stroke:#000000;stroke-width:0.8;" x="93.773239" xlink:href="#mb64b4fc428" y="339.84"/>
      </g>
     </g>
     <g id="text_1">
      <!-- 0.000 -->
      <g transform="translate(78.023239 356.56125)scale(0.14 -0.14)">
       <defs>
        <path d="M 231 2094 
Q 231 2819 450 3342 
Q 669 3866 1031 4122 
Q 1313 4325 1613 4325 
Q 2100 4325 2488 3828 
Q 2972 3213 2972 2159 
Q 2972 1422 2759 906 
Q 2547 391 2217 158 
Q 1888 -75 1581 -75 
Q 975 -75 572 641 
Q 231 1244 231 2094 
z
M 844 2016 
Q 844 1141 1059 588 
Q 1238 122 1591 122 
Q 1759 122 1940 273 
Q 2122 425 2216 781 
Q 2359 1319 2359 2297 
Q 2359 3022 2209 3506 
Q 2097 3866 1919 4016 
Q 1791 4119 1609 4119 
Q 1397 4119 1231 3928 
Q 1006 3669 925 3112 
Q 844 2556 844 2016 
z
" id="TimesNewRomanPSMT-30" transform="scale(0.015625)"/>
        <path d="M 800 606 
Q 947 606 1047 504 
Q 1147 403 1147 259 
Q 1147 116 1045 14 
Q 944 -88 800 -88 
Q 656 -88 554 14 
Q 453 116 453 259 
Q 453 406 554 506 
Q 656 606 800 606 
z
" id="TimesNewRomanPSMT-2e" transform="scale(0.015625)"/>
       </defs>
       <use xlink:href="#TimesNewRomanPSMT-30"/>
       <use x="50" xlink:href="#TimesNewRomanPSMT-2e"/>
       <use x="75" xlink:href="#TimesNewRomanPSMT-30"/>
       <use x="125" xlink:href="#TimesNewRomanPSMT-30"/>
       <use x="175" xlink:href="#TimesNewRomanPSMT-30"/>
      </g>
     </g>
    </g>
    <g id="xtick_2">
     <g id="line2d_3">
      <path clip-path="url(#p1298b05188)" d="M 154.645966 339.84 
L 154.645966 7.2 
" style="fill:none;stroke:#000000;stroke-dasharray:0.5,0.825;stroke-dashoffset:0;stroke-width:0.5;"/>
     </g>
     <g id="line2d_4">
      <g>
       <use style="stroke:#000000;stroke-width:0.8;" x="154.645966" xlink:href="#mb64b4fc428" y="339.84"/>
      </g>
     </g>
     <g id="text_2">
      <!-- 0.001 -->
      <g transform="translate(138.895966 356.56125)scale(0.14 -0.14)">
       <defs>
        <path d="M 750 3822 
L 1781 4325 
L 1884 4325 
L 1884 747 
Q 1884 391 1914 303 
Q 1944 216 2037 169 
Q 2131 122 2419 116 
L 2419 0 
L 825 0 
L 825 116 
Q 1125 122 1212 167 
Q 1300 213 1334 289 
Q 1369 366 1369 747 
L 1369 3034 
Q 1369 3497 1338 3628 
Q 1316 3728 1258 3775 
Q 1200 3822 1119 3822 
Q 1003 3822 797 3725 
L 750 3822 
z
" id="TimesNewRomanPSMT-31" transform="scale(0.015625)"/>
       </defs>
       <use xlink:href="#TimesNewRomanPSMT-30"/>
       <use x="50" xlink:href="#TimesNewRomanPSMT-2e"/>
       <use x="75" xlink:href="#TimesNewRomanPSMT-30"/>
       <use x="125" xlink:href="#TimesNewRomanPSMT-30"/>
       <use x="175" xlink:href="#TimesNewRomanPSMT-31"/>
      </g>
     </g>
    </g>
    <g id="xtick_3">
     <g id="line2d_5">
      <path clip-path="url(#p1298b05188)" d="M 215.518693 339.84 
L 215.518693 7.2 
" style="fill:none;stroke:#000000;stroke-dasharray:0.5,0.825;stroke-dashoffset:0;stroke-width:0.5;"/>
     </g>
     <g id="line2d_6">
      <g>
       <use style="stroke:#000000;stroke-width:0.8;" x="215.518693" xlink:href="#mb64b4fc428" y="339.84"/>
      </g>
     </g>
     <g id="text_3">
      <!-- 0.002 -->
      <g transform="translate(199.768693 356.56125)scale(0.14 -0.14)">
       <defs>
        <path d="M 2934 816 
L 2638 0 
L 138 0 
L 138 116 
Q 1241 1122 1691 1759 
Q 2141 2397 2141 2925 
Q 2141 3328 1894 3587 
Q 1647 3847 1303 3847 
Q 991 3847 742 3664 
Q 494 3481 375 3128 
L 259 3128 
Q 338 3706 661 4015 
Q 984 4325 1469 4325 
Q 1984 4325 2329 3994 
Q 2675 3663 2675 3213 
Q 2675 2891 2525 2569 
Q 2294 2063 1775 1497 
Q 997 647 803 472 
L 1909 472 
Q 2247 472 2383 497 
Q 2519 522 2628 598 
Q 2738 675 2819 816 
L 2934 816 
z
" id="TimesNewRomanPSMT-32" transform="scale(0.015625)"/>
       </defs>
       <use xlink:href="#TimesNewRomanPSMT-30"/>
       <use x="50" xlink:href="#TimesNewRomanPSMT-2e"/>
       <use x="75" xlink:href="#TimesNewRomanPSMT-30"/>
       <use x="125" xlink:href="#TimesNewRomanPSMT-30"/>
       <use x="175" xlink:href="#TimesNewRomanPSMT-32"/>
      </g>
     </g>
    </g>
    <g id="xtick_4">
     <g id="line2d_7">
      <path clip-path="url(#p1298b05188)" d="M 276.39142 339.84 
L 276.39142 7.2 
" style="fill:none;stroke:#000000;stroke-dasharray:0.5,0.825;stroke-dashoffset:0;stroke-width:0.5;"/>
     </g>
     <g id="line2d_8">
      <g>
       <use style="stroke:#000000;stroke-width:0.8;" x="276.39142" xlink:href="#mb64b4fc428" y="339.84"/>
      </g>
     </g>
     <g id="text_4">
      <!-- 0.003 -->
      <g transform="translate(260.64142 356.56125)scale(0.14 -0.14)">
       <defs>
        <path d="M 325 3431 
Q 506 3859 782 4092 
Q 1059 4325 1472 4325 
Q 1981 4325 2253 3994 
Q 2459 3747 2459 3466 
Q 2459 3003 1878 2509 
Q 2269 2356 2469 2072 
Q 2669 1788 2669 1403 
Q 2669 853 2319 450 
Q 1863 -75 997 -75 
Q 569 -75 414 31 
Q 259 138 259 259 
Q 259 350 332 419 
Q 406 488 509 488 
Q 588 488 669 463 
Q 722 447 909 348 
Q 1097 250 1169 231 
Q 1284 197 1416 197 
Q 1734 197 1970 444 
Q 2206 691 2206 1028 
Q 2206 1275 2097 1509 
Q 2016 1684 1919 1775 
Q 1784 1900 1550 2001 
Q 1316 2103 1072 2103 
L 972 2103 
L 972 2197 
Q 1219 2228 1467 2375 
Q 1716 2522 1828 2728 
Q 1941 2934 1941 3181 
Q 1941 3503 1739 3701 
Q 1538 3900 1238 3900 
Q 753 3900 428 3381 
L 325 3431 
z
" id="TimesNewRomanPSMT-33" transform="scale(0.015625)"/>
       </defs>
       <use xlink:href="#TimesNewRomanPSMT-30"/>
       <use x="50" xlink:href="#TimesNewRomanPSMT-2e"/>
       <use x="75" xlink:href="#TimesNewRomanPSMT-30"/>
       <use x="125" xlink:href="#TimesNewRomanPSMT-30"/>
       <use x="175" xlink:href="#TimesNewRomanPSMT-33"/>
      </g>
     </g>
    </g>
    <g id="xtick_5">
     <g id="line2d_9">
      <path clip-path="url(#p1298b05188)" d="M 337.264148 339.84 
L 337.264148 7.2 
" style="fill:none;stroke:#000000;stroke-dasharray:0.5,0.825;stroke-dashoffset:0;stroke-width:0.5;"/>
     </g>
     <g id="line2d_10">
      <g>
       <use style="stroke:#000000;stroke-width:0.8;" x="337.264148" xlink:href="#mb64b4fc428" y="339.84"/>
      </g>
     </g>
     <g id="text_5">
      <!-- 0.004 -->
      <g transform="translate(321.514148 356.56125)scale(0.14 -0.14)">
       <defs>
        <path d="M 2978 1563 
L 2978 1119 
L 2409 1119 
L 2409 0 
L 1894 0 
L 1894 1119 
L 100 1119 
L 100 1519 
L 2066 4325 
L 2409 4325 
L 2409 1563 
L 2978 1563 
z
M 1894 1563 
L 1894 3666 
L 406 1563 
L 1894 1563 
z
" id="TimesNewRomanPSMT-34" transform="scale(0.015625)"/>
       </defs>
       <use xlink:href="#TimesNewRomanPSMT-30"/>
       <use x="50" xlink:href="#TimesNewRomanPSMT-2e"/>
       <use x="75" xlink:href="#TimesNewRomanPSMT-30"/>
       <use x="125" xlink:href="#TimesNewRomanPSMT-30"/>
       <use x="175" xlink:href="#TimesNewRomanPSMT-34"/>
      </g>
     </g>
    </g>
    <g id="xtick_6">
     <g id="line2d_11">
      <path clip-path="url(#p1298b05188)" d="M 398.136875 339.84 
L 398.136875 7.2 
" style="fill:none;stroke:#000000;stroke-dasharray:0.5,0.825;stroke-dashoffset:0;stroke-width:0.5;"/>
     </g>
     <g id="line2d_12">
      <g>
       <use style="stroke:#000000;stroke-width:0.8;" x="398.136875" xlink:href="#mb64b4fc428" y="339.84"/>
      </g>
     </g>
     <g id="text_6">
      <!-- 0.005 -->
      <g transform="translate(382.386875 356.56125)scale(0.14 -0.14)">
       <defs>
        <path d="M 2778 4238 
L 2534 3706 
L 1259 3706 
L 981 3138 
Q 1809 3016 2294 2522 
Q 2709 2097 2709 1522 
Q 2709 1188 2573 903 
Q 2438 619 2231 419 
Q 2025 219 1772 97 
Q 1413 -75 1034 -75 
Q 653 -75 479 54 
Q 306 184 306 341 
Q 306 428 378 495 
Q 450 563 559 563 
Q 641 563 702 538 
Q 763 513 909 409 
Q 1144 247 1384 247 
Q 1750 247 2026 523 
Q 2303 800 2303 1197 
Q 2303 1581 2056 1914 
Q 1809 2247 1375 2428 
Q 1034 2569 447 2591 
L 1259 4238 
L 2778 4238 
z
" id="TimesNewRomanPSMT-35" transform="scale(0.015625)"/>
       </defs>
       <use xlink:href="#TimesNewRomanPSMT-30"/>
       <use x="50" xlink:href="#TimesNewRomanPSMT-2e"/>
       <use x="75" xlink:href="#TimesNewRomanPSMT-30"/>
       <use x="125" xlink:href="#TimesNewRomanPSMT-30"/>
       <use x="175" xlink:href="#TimesNewRomanPSMT-35"/>
      </g>
     </g>
    </g>
    <g id="text_7">
     <!-- Time (sec) -->
     <g transform="translate(200.858906 373.277188)scale(0.14 -0.14)">
      <defs>
       <path d="M 3703 4238 
L 3750 3244 
L 3631 3244 
Q 3597 3506 3538 3619 
Q 3441 3800 3280 3886 
Q 3119 3972 2856 3972 
L 2259 3972 
L 2259 734 
Q 2259 344 2344 247 
Q 2463 116 2709 116 
L 2856 116 
L 2856 0 
L 1059 0 
L 1059 116 
L 1209 116 
Q 1478 116 1591 278 
Q 1659 378 1659 734 
L 1659 3972 
L 1150 3972 
Q 853 3972 728 3928 
Q 566 3869 450 3700 
Q 334 3531 313 3244 
L 194 3244 
L 244 4238 
L 3703 4238 
z
" id="TimesNewRomanPSMT-54" transform="scale(0.015625)"/>
       <path d="M 928 4444 
Q 1059 4444 1151 4351 
Q 1244 4259 1244 4128 
Q 1244 3997 1151 3903 
Q 1059 3809 928 3809 
Q 797 3809 703 3903 
Q 609 3997 609 4128 
Q 609 4259 701 4351 
Q 794 4444 928 4444 
z
M 1188 2947 
L 1188 647 
Q 1188 378 1227 289 
Q 1266 200 1342 156 
Q 1419 113 1622 113 
L 1622 0 
L 231 0 
L 231 113 
Q 441 113 512 153 
Q 584 194 626 287 
Q 669 381 669 647 
L 669 1750 
Q 669 2216 641 2353 
Q 619 2453 572 2492 
Q 525 2531 444 2531 
Q 356 2531 231 2484 
L 188 2597 
L 1050 2947 
L 1188 2947 
z
" id="TimesNewRomanPSMT-69" transform="scale(0.015625)"/>
       <path d="M 1050 2338 
Q 1363 2650 1419 2697 
Q 1559 2816 1721 2881 
Q 1884 2947 2044 2947 
Q 2313 2947 2506 2790 
Q 2700 2634 2766 2338 
Q 3088 2713 3309 2830 
Q 3531 2947 3766 2947 
Q 3994 2947 4170 2830 
Q 4347 2713 4450 2447 
Q 4519 2266 4519 1878 
L 4519 647 
Q 4519 378 4559 278 
Q 4591 209 4675 161 
Q 4759 113 4950 113 
L 4950 0 
L 3538 0 
L 3538 113 
L 3597 113 
Q 3781 113 3884 184 
Q 3956 234 3988 344 
Q 4000 397 4000 647 
L 4000 1878 
Q 4000 2228 3916 2372 
Q 3794 2572 3525 2572 
Q 3359 2572 3192 2489 
Q 3025 2406 2788 2181 
L 2781 2147 
L 2788 2013 
L 2788 647 
Q 2788 353 2820 281 
Q 2853 209 2943 161 
Q 3034 113 3253 113 
L 3253 0 
L 1806 0 
L 1806 113 
Q 2044 113 2133 169 
Q 2222 225 2256 338 
Q 2272 391 2272 647 
L 2272 1878 
Q 2272 2228 2169 2381 
Q 2031 2581 1784 2581 
Q 1616 2581 1450 2491 
Q 1191 2353 1050 2181 
L 1050 647 
Q 1050 366 1089 281 
Q 1128 197 1204 155 
Q 1281 113 1516 113 
L 1516 0 
L 100 0 
L 100 113 
Q 297 113 375 155 
Q 453 197 493 289 
Q 534 381 534 647 
L 534 1741 
Q 534 2213 506 2350 
Q 484 2453 437 2492 
Q 391 2531 309 2531 
Q 222 2531 100 2484 
L 53 2597 
L 916 2947 
L 1050 2947 
L 1050 2338 
z
" id="TimesNewRomanPSMT-6d" transform="scale(0.015625)"/>
       <path d="M 681 1784 
Q 678 1147 991 784 
Q 1303 422 1725 422 
Q 2006 422 2214 576 
Q 2422 731 2563 1106 
L 2659 1044 
Q 2594 616 2278 264 
Q 1963 -88 1488 -88 
Q 972 -88 605 314 
Q 238 716 238 1394 
Q 238 2128 614 2539 
Q 991 2950 1559 2950 
Q 2041 2950 2350 2633 
Q 2659 2316 2659 1784 
L 681 1784 
z
M 681 1966 
L 2006 1966 
Q 1991 2241 1941 2353 
Q 1863 2528 1708 2628 
Q 1553 2728 1384 2728 
Q 1125 2728 920 2526 
Q 716 2325 681 1966 
z
" id="TimesNewRomanPSMT-65" transform="scale(0.015625)"/>
       <path id="TimesNewRomanPSMT-20" transform="scale(0.015625)"/>
       <path d="M 1988 -1253 
L 1988 -1369 
Q 1516 -1131 1200 -813 
Q 750 -359 506 256 
Q 263 872 263 1534 
Q 263 2503 741 3301 
Q 1219 4100 1988 4444 
L 1988 4313 
Q 1603 4100 1356 3731 
Q 1109 3363 987 2797 
Q 866 2231 866 1616 
Q 866 947 969 400 
Q 1050 -31 1165 -292 
Q 1281 -553 1476 -793 
Q 1672 -1034 1988 -1253 
z
" id="TimesNewRomanPSMT-28" transform="scale(0.015625)"/>
       <path d="M 2050 2947 
L 2050 1972 
L 1947 1972 
Q 1828 2431 1642 2597 
Q 1456 2763 1169 2763 
Q 950 2763 815 2647 
Q 681 2531 681 2391 
Q 681 2216 781 2091 
Q 878 1963 1175 1819 
L 1631 1597 
Q 2266 1288 2266 781 
Q 2266 391 1970 151 
Q 1675 -88 1309 -88 
Q 1047 -88 709 6 
Q 606 38 541 38 
Q 469 38 428 -44 
L 325 -44 
L 325 978 
L 428 978 
Q 516 541 762 319 
Q 1009 97 1316 97 
Q 1531 97 1667 223 
Q 1803 350 1803 528 
Q 1803 744 1651 891 
Q 1500 1038 1047 1263 
Q 594 1488 453 1669 
Q 313 1847 313 2119 
Q 313 2472 555 2709 
Q 797 2947 1181 2947 
Q 1350 2947 1591 2875 
Q 1750 2828 1803 2828 
Q 1853 2828 1881 2850 
Q 1909 2872 1947 2947 
L 2050 2947 
z
" id="TimesNewRomanPSMT-73" transform="scale(0.015625)"/>
       <path d="M 2631 1088 
Q 2516 522 2178 217 
Q 1841 -88 1431 -88 
Q 944 -88 581 321 
Q 219 731 219 1428 
Q 219 2103 620 2525 
Q 1022 2947 1584 2947 
Q 2006 2947 2278 2723 
Q 2550 2500 2550 2259 
Q 2550 2141 2473 2067 
Q 2397 1994 2259 1994 
Q 2075 1994 1981 2113 
Q 1928 2178 1911 2362 
Q 1894 2547 1784 2644 
Q 1675 2738 1481 2738 
Q 1169 2738 978 2506 
Q 725 2200 725 1697 
Q 725 1184 976 792 
Q 1228 400 1656 400 
Q 1963 400 2206 609 
Q 2378 753 2541 1131 
L 2631 1088 
z
" id="TimesNewRomanPSMT-63" transform="scale(0.015625)"/>
       <path d="M 144 4313 
L 144 4444 
Q 619 4209 934 3891 
Q 1381 3434 1625 2820 
Q 1869 2206 1869 1541 
Q 1869 572 1392 -226 
Q 916 -1025 144 -1369 
L 144 -1253 
Q 528 -1038 776 -670 
Q 1025 -303 1145 264 
Q 1266 831 1266 1447 
Q 1266 2113 1163 2663 
Q 1084 3094 967 3353 
Q 850 3613 656 3853 
Q 463 4094 144 4313 
z
" id="TimesNewRomanPSMT-29" transform="scale(0.015625)"/>
      </defs>
      <use xlink:href="#TimesNewRomanPSMT-54"/>
      <use x="57.583984" xlink:href="#TimesNewRomanPSMT-69"/>
      <use x="85.367188" xlink:href="#TimesNewRomanPSMT-6d"/>
      <use x="163.150391" xlink:href="#TimesNewRomanPSMT-65"/>
      <use x="207.535156" xlink:href="#TimesNewRomanPSMT-20"/>
      <use x="232.535156" xlink:href="#TimesNewRomanPSMT-28"/>
      <use x="265.835938" xlink:href="#TimesNewRomanPSMT-73"/>
      <use x="304.751953" xlink:href="#TimesNewRomanPSMT-65"/>
      <use x="349.136719" xlink:href="#TimesNewRomanPSMT-63"/>
      <use x="393.521484" xlink:href="#TimesNewRomanPSMT-29"/>
     </g>
    </g>
   </g>
   <g id="matplotlib.axis_2">
    <g id="ytick_1">
     <g id="line2d_13">
      <path clip-path="url(#p1298b05188)" d="M 63.336875 302.164315 
L 398.136875 302.164315 
" style="fill:none;stroke:#000000;stroke-dasharray:0.5,0.825;stroke-dashoffset:0;stroke-width:0.5;"/>
     </g>
     <g id="line2d_14">
      <defs>
       <path d="M 0 0 
L -3.5 0 
" id="ma5e86d9814" style="stroke:#000000;stroke-width:0.8;"/>
      </defs>
      <g>
       <use style="stroke:#000000;stroke-width:0.8;" x="63.336875" xlink:href="#ma5e86d9814" y="302.164315"/>
      </g>
     </g>
     <g id="text_8">
      <!-- −0.06 -->
      <g transform="translate(23.942188 307.02494)scale(0.14 -0.14)">
       <defs>
        <path d="M 3484 2000 
L 116 2000 
L 116 2256 
L 3484 2256 
L 3484 2000 
z
" id="TimesNewRomanPSMT-2212" transform="scale(0.015625)"/>
        <path d="M 2869 4325 
L 2869 4209 
Q 2456 4169 2195 4045 
Q 1934 3922 1679 3669 
Q 1425 3416 1258 3105 
Q 1091 2794 978 2366 
Q 1428 2675 1881 2675 
Q 2316 2675 2634 2325 
Q 2953 1975 2953 1425 
Q 2953 894 2631 456 
Q 2244 -75 1606 -75 
Q 1172 -75 869 213 
Q 275 772 275 1663 
Q 275 2231 503 2743 
Q 731 3256 1154 3653 
Q 1578 4050 1965 4187 
Q 2353 4325 2688 4325 
L 2869 4325 
z
M 925 2138 
Q 869 1716 869 1456 
Q 869 1156 980 804 
Q 1091 453 1309 247 
Q 1469 100 1697 100 
Q 1969 100 2183 356 
Q 2397 613 2397 1088 
Q 2397 1622 2184 2012 
Q 1972 2403 1581 2403 
Q 1463 2403 1327 2353 
Q 1191 2303 925 2138 
z
" id="TimesNewRomanPSMT-36" transform="scale(0.015625)"/>
       </defs>
       <use xlink:href="#TimesNewRomanPSMT-2212"/>
       <use x="56.396484" xlink:href="#TimesNewRomanPSMT-30"/>
       <use x="106.396484" xlink:href="#TimesNewRomanPSMT-2e"/>
       <use x="131.396484" xlink:href="#TimesNewRomanPSMT-30"/>
       <use x="181.396484" xlink:href="#TimesNewRomanPSMT-36"/>
      </g>
     </g>
    </g>
    <g id="ytick_2">
     <g id="line2d_15">
      <path clip-path="url(#p1298b05188)" d="M 63.336875 252.781045 
L 398.136875 252.781045 
" style="fill:none;stroke:#000000;stroke-dasharray:0.5,0.825;stroke-dashoffset:0;stroke-width:0.5;"/>
     </g>
     <g id="line2d_16">
      <g>
       <use style="stroke:#000000;stroke-width:0.8;" x="63.336875" xlink:href="#ma5e86d9814" y="252.781045"/>
      </g>
     </g>
     <g id="text_9">
      <!-- −0.04 -->
      <g transform="translate(23.942188 257.64167)scale(0.14 -0.14)">
       <use xlink:href="#TimesNewRomanPSMT-2212"/>
       <use x="56.396484" xlink:href="#TimesNewRomanPSMT-30"/>
       <use x="106.396484" xlink:href="#TimesNewRomanPSMT-2e"/>
       <use x="131.396484" xlink:href="#TimesNewRomanPSMT-30"/>
       <use x="181.396484" xlink:href="#TimesNewRomanPSMT-34"/>
      </g>
     </g>
    </g>
    <g id="ytick_3">
     <g id="line2d_17">
      <path clip-path="url(#p1298b05188)" d="M 63.336875 203.397776 
L 398.136875 203.397776 
" style="fill:none;stroke:#000000;stroke-dasharray:0.5,0.825;stroke-dashoffset:0;stroke-width:0.5;"/>
     </g>
     <g id="line2d_18">
      <g>
       <use style="stroke:#000000;stroke-width:0.8;" x="63.336875" xlink:href="#ma5e86d9814" y="203.397776"/>
      </g>
     </g>
     <g id="text_10">
      <!-- −0.02 -->
      <g transform="translate(23.942188 208.258401)scale(0.14 -0.14)">
       <use xlink:href="#TimesNewRomanPSMT-2212"/>
       <use x="56.396484" xlink:href="#TimesNewRomanPSMT-30"/>
       <use x="106.396484" xlink:href="#TimesNewRomanPSMT-2e"/>
       <use x="131.396484" xlink:href="#TimesNewRomanPSMT-30"/>
       <use x="181.396484" xlink:href="#TimesNewRomanPSMT-32"/>
      </g>
     </g>
    </g>
    <g id="ytick_4">
     <g id="line2d_19">
      <path clip-path="url(#p1298b05188)" d="M 63.336875 154.014506 
L 398.136875 154.014506 
" style="fill:none;stroke:#000000;stroke-dasharray:0.5,0.825;stroke-dashoffset:0;stroke-width:0.5;"/>
     </g>
     <g id="line2d_20">
      <g>
       <use style="stroke:#000000;stroke-width:0.8;" x="63.336875" xlink:href="#ma5e86d9814" y="154.014506"/>
      </g>
     </g>
     <g id="text_11">
      <!-- 0.00 -->
      <g transform="translate(31.836875 158.875131)scale(0.14 -0.14)">
       <use xlink:href="#TimesNewRomanPSMT-30"/>
       <use x="50" xlink:href="#TimesNewRomanPSMT-2e"/>
       <use x="75" xlink:href="#TimesNewRomanPSMT-30"/>
       <use x="125" xlink:href="#TimesNewRomanPSMT-30"/>
      </g>
     </g>
    </g>
    <g id="ytick_5">
     <g id="line2d_21">
      <path clip-path="url(#p1298b05188)" d="M 63.336875 104.631236 
L 398.136875 104.631236 
" style="fill:none;stroke:#000000;stroke-dasharray:0.5,0.825;stroke-dashoffset:0;stroke-width:0.5;"/>
     </g>
     <g id="line2d_22">
      <g>
       <use style="stroke:#000000;stroke-width:0.8;" x="63.336875" xlink:href="#ma5e86d9814" y="104.631236"/>
      </g>
     </g>
     <g id="text_12">
      <!-- 0.02 -->
      <g transform="translate(31.836875 109.491861)scale(0.14 -0.14)">
       <use xlink:href="#TimesNewRomanPSMT-30"/>
       <use x="50" xlink:href="#TimesNewRomanPSMT-2e"/>
       <use x="75" xlink:href="#TimesNewRomanPSMT-30"/>
       <use x="125" xlink:href="#TimesNewRomanPSMT-32"/>
      </g>
     </g>
    </g>
    <g id="ytick_6">
     <g id="line2d_23">
      <path clip-path="url(#p1298b05188)" d="M 63.336875 55.247967 
L 398.136875 55.247967 
" style="fill:none;stroke:#000000;stroke-dasharray:0.5,0.825;stroke-dashoffset:0;stroke-width:0.5;"/>
     </g>
     <g id="line2d_24">
      <g>
       <use style="stroke:#000000;stroke-width:0.8;" x="63.336875" xlink:href="#ma5e86d9814" y="55.247967"/>
      </g>
     </g>
     <g id="text_13">
      <!-- 0.04 -->
      <g transform="translate(31.836875 60.108592)scale(0.14 -0.14)">
       <use xlink:href="#TimesNewRomanPSMT-30"/>
       <use x="50" xlink:href="#TimesNewRomanPSMT-2e"/>
       <use x="75" xlink:href="#TimesNewRomanPSMT-30"/>
       <use x="125" xlink:href="#TimesNewRomanPSMT-34"/>
      </g>
     </g>
    </g>
    <g id="text_14">
     <!-- Volatage (V) -->
     <g transform="translate(16.92125 209.352344)rotate(-90)scale(0.14 -0.14)">
      <defs>
       <path d="M 4544 4238 
L 4544 4122 
Q 4319 4081 4203 3978 
Q 4038 3825 3909 3509 
L 2431 -97 
L 2316 -97 
L 728 3556 
Q 606 3838 556 3900 
Q 478 3997 364 4051 
Q 250 4106 56 4122 
L 56 4238 
L 1788 4238 
L 1788 4122 
Q 1494 4094 1406 4022 
Q 1319 3950 1319 3838 
Q 1319 3681 1463 3350 
L 2541 866 
L 3541 3319 
Q 3688 3681 3688 3822 
Q 3688 3913 3597 3995 
Q 3506 4078 3291 4113 
Q 3275 4116 3238 4122 
L 3238 4238 
L 4544 4238 
z
" id="TimesNewRomanPSMT-56" transform="scale(0.015625)"/>
       <path d="M 1600 2947 
Q 2250 2947 2644 2453 
Q 2978 2031 2978 1484 
Q 2978 1100 2793 706 
Q 2609 313 2286 112 
Q 1963 -88 1566 -88 
Q 919 -88 538 428 
Q 216 863 216 1403 
Q 216 1797 411 2186 
Q 606 2575 925 2761 
Q 1244 2947 1600 2947 
z
M 1503 2744 
Q 1338 2744 1170 2645 
Q 1003 2547 900 2300 
Q 797 2053 797 1666 
Q 797 1041 1045 587 
Q 1294 134 1700 134 
Q 2003 134 2200 384 
Q 2397 634 2397 1244 
Q 2397 2006 2069 2444 
Q 1847 2744 1503 2744 
z
" id="TimesNewRomanPSMT-6f" transform="scale(0.015625)"/>
       <path d="M 1184 4444 
L 1184 647 
Q 1184 378 1223 290 
Q 1263 203 1344 158 
Q 1425 113 1647 113 
L 1647 0 
L 244 0 
L 244 113 
Q 441 113 512 153 
Q 584 194 625 287 
Q 666 381 666 647 
L 666 3247 
Q 666 3731 644 3842 
Q 622 3953 573 3993 
Q 525 4034 450 4034 
Q 369 4034 244 3984 
L 191 4094 
L 1044 4444 
L 1184 4444 
z
" id="TimesNewRomanPSMT-6c" transform="scale(0.015625)"/>
       <path d="M 1822 413 
Q 1381 72 1269 19 
Q 1100 -59 909 -59 
Q 613 -59 420 144 
Q 228 347 228 678 
Q 228 888 322 1041 
Q 450 1253 767 1440 
Q 1084 1628 1822 1897 
L 1822 2009 
Q 1822 2438 1686 2597 
Q 1550 2756 1291 2756 
Q 1094 2756 978 2650 
Q 859 2544 859 2406 
L 866 2225 
Q 866 2081 792 2003 
Q 719 1925 600 1925 
Q 484 1925 411 2006 
Q 338 2088 338 2228 
Q 338 2497 613 2722 
Q 888 2947 1384 2947 
Q 1766 2947 2009 2819 
Q 2194 2722 2281 2516 
Q 2338 2381 2338 1966 
L 2338 994 
Q 2338 584 2353 492 
Q 2369 400 2405 369 
Q 2441 338 2488 338 
Q 2538 338 2575 359 
Q 2641 400 2828 588 
L 2828 413 
Q 2478 -56 2159 -56 
Q 2006 -56 1915 50 
Q 1825 156 1822 413 
z
M 1822 616 
L 1822 1706 
Q 1350 1519 1213 1441 
Q 966 1303 859 1153 
Q 753 1003 753 825 
Q 753 600 887 451 
Q 1022 303 1197 303 
Q 1434 303 1822 616 
z
" id="TimesNewRomanPSMT-61" transform="scale(0.015625)"/>
       <path d="M 1031 3803 
L 1031 2863 
L 1700 2863 
L 1700 2644 
L 1031 2644 
L 1031 788 
Q 1031 509 1111 412 
Q 1191 316 1316 316 
Q 1419 316 1516 380 
Q 1613 444 1666 569 
L 1788 569 
Q 1678 263 1478 108 
Q 1278 -47 1066 -47 
Q 922 -47 784 33 
Q 647 113 581 261 
Q 516 409 516 719 
L 516 2644 
L 63 2644 
L 63 2747 
Q 234 2816 414 2980 
Q 594 3144 734 3369 
Q 806 3488 934 3803 
L 1031 3803 
z
" id="TimesNewRomanPSMT-74" transform="scale(0.015625)"/>
       <path d="M 966 1044 
Q 703 1172 562 1401 
Q 422 1631 422 1909 
Q 422 2334 742 2640 
Q 1063 2947 1563 2947 
Q 1972 2947 2272 2747 
L 2878 2747 
Q 3013 2747 3034 2739 
Q 3056 2731 3066 2713 
Q 3084 2684 3084 2613 
Q 3084 2531 3069 2500 
Q 3059 2484 3036 2475 
Q 3013 2466 2878 2466 
L 2506 2466 
Q 2681 2241 2681 1891 
Q 2681 1491 2375 1206 
Q 2069 922 1553 922 
Q 1341 922 1119 984 
Q 981 866 932 777 
Q 884 688 884 625 
Q 884 572 936 522 
Q 988 472 1138 450 
Q 1225 438 1575 428 
Q 2219 413 2409 384 
Q 2700 344 2873 169 
Q 3047 -6 3047 -263 
Q 3047 -616 2716 -925 
Q 2228 -1381 1444 -1381 
Q 841 -1381 425 -1109 
Q 191 -953 191 -784 
Q 191 -709 225 -634 
Q 278 -519 444 -313 
Q 466 -284 763 25 
Q 600 122 533 198 
Q 466 275 466 372 
Q 466 481 555 628 
Q 644 775 966 1044 
z
M 1509 2797 
Q 1278 2797 1122 2612 
Q 966 2428 966 2047 
Q 966 1553 1178 1281 
Q 1341 1075 1591 1075 
Q 1828 1075 1981 1253 
Q 2134 1431 2134 1813 
Q 2134 2309 1919 2591 
Q 1759 2797 1509 2797 
z
M 934 0 
Q 788 -159 713 -296 
Q 638 -434 638 -550 
Q 638 -700 819 -813 
Q 1131 -1006 1722 -1006 
Q 2284 -1006 2551 -807 
Q 2819 -609 2819 -384 
Q 2819 -222 2659 -153 
Q 2497 -84 2016 -72 
Q 1313 -53 934 0 
z
" id="TimesNewRomanPSMT-67" transform="scale(0.015625)"/>
      </defs>
      <use xlink:href="#TimesNewRomanPSMT-56"/>
      <use x="59.341797" xlink:href="#TimesNewRomanPSMT-6f"/>
      <use x="109.341797" xlink:href="#TimesNewRomanPSMT-6c"/>
      <use x="137.125" xlink:href="#TimesNewRomanPSMT-61"/>
      <use x="181.509766" xlink:href="#TimesNewRomanPSMT-74"/>
      <use x="209.292969" xlink:href="#TimesNewRomanPSMT-61"/>
      <use x="253.677734" xlink:href="#TimesNewRomanPSMT-67"/>
      <use x="303.677734" xlink:href="#TimesNewRomanPSMT-65"/>
      <use x="348.0625" xlink:href="#TimesNewRomanPSMT-20"/>
      <use x="373.0625" xlink:href="#TimesNewRomanPSMT-28"/>
      <use x="406.363281" xlink:href="#TimesNewRomanPSMT-56"/>
      <use x="478.580078" xlink:href="#TimesNewRomanPSMT-29"/>
     </g>
    </g>
   </g>
   <g id="LineCollection_1">
    <path clip-path="url(#p1298b05188)" d="M 78.555057 154.014506 
L 382.918693 154.014506 
" style="fill:none;stroke:#1f77b4;stroke-width:1.5;"/>
   </g>
   <g id="line2d_25">
    <path clip-path="url(#p1298b05188)" d="M 78.555057 154.069939 
L 78.707239 154.069939 
L 82.846584 153.977345 
L 82.998766 153.977345 
L 83.120511 154.00821 
L 83.150948 153.977345 
L 85.89022 154.039074 
L 85.920657 154.100803 
L 86.011966 154.039074 
L 86.194584 154.069939 
L 86.377202 154.039074 
L 86.529384 154.039074 
L 101.62582 154.131668 
L 101.747566 154.131668 
L 101.899748 154.100803 
L 102.082366 154.131668 
L 108.595748 154.224261 
L 108.717493 154.224261 
L 108.808802 154.224261 
L 108.839239 154.255126 
L 112.704657 154.34772 
L 112.887275 154.378584 
L 112.978584 154.316855 
L 113.039457 154.378584 
L 113.922111 154.440313 
L 114.043857 154.502042 
L 114.165602 154.471178 
L 114.196039 154.502042 
L 114.804766 154.563771 
L 114.956948 154.656365 
L 115.596111 154.718094 
L 115.748293 154.779823 
L 116.143966 154.841552 
L 116.204839 154.903281 
L 116.265711 154.872417 
L 116.813566 154.965011 
L 116.965748 155.02674 
L 116.996184 154.965011 
L 117.087493 155.02674 
L 117.544039 155.119333 
L 117.69622 155.119333 
L 118.335384 155.181062 
L 118.45713 155.242791 
L 118.578875 155.273656 
L 118.761493 155.30452 
L 119.552839 155.36625 
L 119.70502 155.427979 
L 119.857202 155.427979 
L 121.500766 155.489708 
L 121.622511 155.520572 
L 121.652948 155.458843 
L 121.683384 155.551437 
L 121.744257 155.520572 
L 121.987748 155.613166 
L 122.170366 155.64403 
L 122.38342 155.736624 
L 122.566039 155.798353 
L 122.596475 155.736624 
L 122.657348 155.767489 
L 122.839966 155.890947 
L 122.931275 155.890947 
L 123.083457 155.952676 
L 123.357384 156.076134 
L 123.540002 156.137863 
L 123.72262 156.261321 
L 123.753057 156.230457 
L 123.81393 156.292186 
L 124.087857 156.415644 
L 124.240039 156.508238 
L 124.696584 156.816883 
L 124.72702 156.786019 
L 124.787893 156.847748 
L 125.031384 157.094664 
L 125.06182 157.063799 
L 125.122693 157.125529 
L 125.39662 157.434174 
L 126.15753 158.36011 
L 126.796693 159.409505 
L 126.857566 159.502098 
L 127.922839 161.909533 
L 130.84473 171.138032 
L 131.331711 173.051634 
L 132.731784 178.267741 
L 134.679711 183.854223 
L 135.318875 185.39745 
L 135.714548 186.261658 
L 136.140657 186.909813 
L 136.231966 186.940678 
L 136.384148 187.095 
L 136.505893 187.156729 
L 136.658075 187.280188 
L 136.77982 187.280188 
L 136.962439 187.403646 
L 137.145057 187.372781 
L 137.510293 187.280188 
L 138.849493 185.767825 
L 139.45822 184.286327 
L 140.188693 181.755434 
L 141.954002 172.280019 
L 142.654039 167.465151 
L 143.262766 163.082386 
L 144.845457 149.347664 
L 146.062911 137.217898 
L 147.736911 119.131275 
L 149.776148 95.643358 
L 151.663202 75.797461 
L 154.006802 55.426858 
L 154.372039 53.050288 
L 155.011202 49.223084 
L 156.502584 43.605735 
L 157.141748 42.55634 
L 157.62873 42.185968 
L 157.87222 42.27856 
L 157.96353 42.371161 
L 158.20702 42.772392 
L 158.754875 44.130437 
L 159.272293 46.044034 
L 159.698402 48.17369 
L 160.398439 52.371265 
L 160.854984 55.79723 
L 162.285493 69.80974 
L 163.65513 87.742035 
L 165.268257 113.884303 
L 169.651093 200.459348 
L 172.390366 253.824143 
L 174.03393 280.27506 
L 174.977457 292.991247 
L 175.920984 304.040756 
L 176.95582 313.454449 
L 177.686293 318.485357 
L 178.690693 323.053315 
L 179.025493 323.763207 
L 179.268984 324.164438 
L 179.603784 324.596539 
L 179.847275 324.72 
L 179.96902 324.627409 
L 179.999457 324.658278 
L 180.39513 324.133569 
L 180.608184 323.794059 
L 180.790802 323.454546 
L 181.125602 322.528622 
L 181.947384 318.763148 
L 182.769166 313.145789 
L 184.138802 299.657991 
L 185.964984 276.139206 
L 187.121566 258.14518 
L 188.612948 232.188096 
L 192.143566 162.032991 
L 193.087093 143.452536 
L 194.213239 122.835021 
L 196.495966 85.365465 
L 197.682984 68.976397 
L 198.38302 61.167658 
L 199.843966 47.432938 
L 200.909239 39.68594 
L 202.40062 32.617965 
L 202.613675 31.938942 
L 202.918039 30.951279 
L 204.013748 28.975941 
L 204.470293 28.636431 
L 204.683348 28.69816 
L 204.896402 28.790761 
L 205.809493 29.840153 
L 206.479093 31.537701 
L 206.905202 32.648824 
L 207.42262 34.562421 
L 208.122657 37.556282 
L 208.548766 39.747669 
L 211.074984 55.79723 
L 213.936002 76.846853 
L 214.909966 84.717309 
L 218.836257 115.674444 
L 219.14062 117.773236 
L 220.053711 124.285654 
L 223.888693 146.940229 
L 224.193057 148.205676 
L 230.036839 172.372614 
L 230.61513 175.21215 
L 232.563057 185.644367 
L 234.724039 201.724796 
L 236.032802 212.681704 
L 236.732839 218.422512 
L 237.615493 225.459628 
L 239.289493 238.114088 
L 240.111275 243.916627 
L 241.23742 250.120401 
L 242.637493 255.39824 
L 242.759239 255.645152 
L 243.459275 257.435298 
L 244.25062 258.824202 
L 244.372366 258.885931 
L 244.58542 259.101983 
L 244.798475 259.132842 
L 244.828911 259.225434 
L 244.92022 259.163714 
L 245.163711 259.071113 
L 245.985493 257.188376 
L 246.289857 256.200713 
L 247.111639 252.435239 
L 247.568184 249.935211 
L 247.994293 247.219131 
L 250.550948 225.583086 
L 252.316257 206.570527 
L 254.325057 182.959151 
L 255.481639 169.162701 
L 256.120802 161.570023 
L 257.886111 143.113026 
L 259.681857 127.742483 
L 261.41673 116.199141 
L 262.451566 111.476869 
L 262.573311 111.013898 
L 263.242911 108.760789 
L 264.00382 106.754593 
L 264.125566 106.476813 
L 264.551675 105.520014 
L 265.129966 104.594075 
L 265.464766 104.100243 
L 265.738693 103.791597 
L 266.134366 103.544681 
L 266.408293 103.452085 
L 266.68222 103.328629 
L 267.412693 103.42122 
L 267.930111 103.791597 
L 267.960548 103.760733 
L 268.02142 103.822462 
L 269.11713 105.087906 
L 269.573675 105.766928 
L 269.634548 105.797795 
L 269.878039 106.229896 
L 270.091093 106.600273 
L 270.912875 108.483008 
L 271.247675 109.439809 
L 271.36942 109.71759 
L 272.191202 112.557128 
L 273.256475 116.415198 
L 277.243639 128.205451 
L 277.669748 129.316575 
L 278.369784 131.106718 
L 280.682948 135.551212 
L 280.896002 135.921588 
L 281.930839 137.77346 
L 282.17433 138.174699 
L 282.996111 139.594468 
L 283.330911 140.057436 
L 283.574402 140.458675 
L 283.878766 140.921644 
L 284.213566 141.384612 
L 284.274439 141.415476 
L 284.457057 141.631527 
L 285.004911 142.341413 
L 285.248402 142.619194 
L 285.400584 142.711786 
L 285.613639 142.896973 
L 286.10062 143.236483 
L 286.404984 143.298214 
L 286.52673 143.390806 
L 286.557166 143.359943 
L 287.470257 143.329077 
L 287.592002 143.236483 
L 287.77462 143.174754 
L 287.987675 142.989567 
L 288.018111 143.020433 
L 288.078984 142.958704 
L 289.692111 141.16856 
L 290.726948 139.316687 
L 290.87913 139.008042 
L 291.822657 136.878388 
L 292.096584 136.230233 
L 292.46182 135.242568 
L 292.827057 134.193172 
L 293.253166 133.082048 
L 294.683675 128.390639 
L 295.383711 126.014069 
L 298.15342 117.927558 
L 298.853457 116.754703 
L 299.15782 116.291737 
L 299.523057 115.797905 
L 299.796984 115.674444 
L 300.010039 115.736176 
L 300.862257 115.828769 
L 301.25793 116.384334 
L 301.866657 117.371996 
L 301.988402 117.618913 
L 302.992802 121.014013 
L 304.60593 129.748678 
L 306.371239 143.020433 
L 308.714839 165.397226 
L 312.54982 206.940899 
L 314.284693 223.422568 
L 315.471711 232.218961 
L 315.928257 235.089366 
L 316.841348 239.965963 
L 318.028366 244.317859 
L 318.819711 245.706766 
L 319.032766 245.799365 
L 319.184948 245.861096 
L 319.215384 245.830227 
L 319.489311 245.706766 
L 319.67193 245.614175 
L 320.432839 244.719101 
L 320.91982 243.577117 
L 321.01113 243.391928 
L 321.406802 242.249942 
L 321.650293 241.54006 
L 322.25902 239.00916 
L 322.898184 235.98444 
L 323.993893 228.978183 
L 324.572184 224.811475 
L 325.333093 218.885478 
L 328.224548 194.56422 
L 329.350693 184.255462 
L 330.568148 173.514601 
L 331.572548 164.440426 
L 332.516075 155.921811 
L 333.490039 147.125416 
L 336.442366 124.038738 
L 336.74673 121.970813 
L 337.75113 115.61272 
L 338.877275 109.439809 
L 340.216475 103.205171 
L 343.747093 89.346991 
L 345.725457 83.667915 
L 346.69942 81.939498 
L 347.338584 81.445665 
L 347.521202 81.383941 
L 347.70382 81.229616 
L 348.160366 81.13702 
L 348.342984 81.10616 
L 348.37342 81.167884 
L 348.46473 81.10616 
L 349.13433 81.198751 
L 349.864802 81.816042 
L 349.895239 81.785178 
L 349.925675 81.816042 
L 350.108293 82.062959 
L 350.169166 82.124688 
L 352.81713 87.742035 
L 354.886802 94.377914 
L 356.439057 101.137247 
L 359.026148 114.810237 
L 359.543566 117.742371 
L 359.817493 119.316463 
L 361.85673 131.075853 
L 362.008911 131.878331 
L 363.378548 139.532739 
L 364.748184 147.032823 
L 365.296039 150.150141 
L 366.78742 158.545298 
L 367.913566 164.8108 
L 369.313639 172.650393 
L 370.652839 179.996155 
L 371.505057 184.502379 
L 372.81382 191.693817 
L 374.305202 200.088976 
L 375.766148 208.021158 
L 376.25313 210.737238 
L 379.114148 224.688014 
L 380.392475 229.441157 
L 380.666402 230.212768 
L 381.062075 231.385618 
L 381.18382 231.632539 
L 381.60993 232.589338 
L 381.670802 232.651067 
L 381.94473 233.175759 
L 382.918693 234.101703 
L 382.918693 234.101703 
" style="fill:none;stroke:#0000ff;stroke-linecap:square;stroke-width:1.5;"/>
   </g>
   <g id="line2d_26">
    <path clip-path="url(#p1298b05188)" d="M 78.555057 153.86469 
L 81.263893 153.972715 
L 81.507384 153.972715 
L 84.094475 154.080741 
L 84.368402 154.096174 
L 85.859784 154.188767 
L 86.011966 154.188767 
L 88.203384 154.281361 
L 88.355566 154.281361 
L 92.647093 154.389387 
L 92.890584 154.389387 
L 95.416802 154.497413 
L 95.69073 154.512845 
L 99.982257 154.620871 
L 100.28662 154.651735 
L 100.499675 154.667168 
L 101.017093 154.775194 
L 102.751966 155.762859 
L 103.208511 156.272124 
L 103.39113 156.488176 
L 103.756366 157.012873 
L 104.517275 158.340048 
L 104.912948 159.188823 
L 105.126002 159.698088 
L 106.343457 163.077756 
L 107.773966 167.784598 
L 110.42193 176.781613 
L 112.43073 181.58105 
L 113.039457 182.568715 
L 113.465566 183.016251 
L 114.591711 183.479219 
L 115.200439 183.047115 
L 116.02222 182.05945 
L 116.630948 180.577952 
L 118.03102 175.963703 
L 118.731057 173.077868 
L 120.03982 166.596314 
L 121.592075 157.321518 
L 122.566039 150.731938 
L 126.06622 126.657594 
L 127.709784 117.336502 
L 129.688148 107.87652 
L 131.453457 102.861031 
L 131.696948 102.29004 
L 133.18833 98.786912 
L 134.588402 96.842445 
L 134.801457 96.626394 
L 135.258002 95.947371 
L 135.653675 95.546134 
L 135.897166 95.453541 
L 136.171093 95.330085 
L 136.718948 94.944278 
L 136.962439 94.774521 
L 137.236366 94.759086 
L 138.423384 95.438109 
L 139.88433 99.419635 
L 141.345275 104.990685 
L 142.410548 110.345683 
L 143.293202 115.885869 
L 144.388911 123.848921 
L 146.641202 141.796653 
L 148.680439 161.41107 
L 152.60673 200.130638 
L 154.554657 215.964151 
L 156.106911 225.454998 
L 156.989566 229.374793 
L 157.993966 232.538411 
L 158.602693 233.526074 
L 159.667966 234.482877 
L 159.97233 234.436583 
L 160.124511 234.390286 
L 161.250657 233.124842 
L 162.528984 229.621709 
L 163.959493 222.584593 
L 164.811711 216.720332 
L 167.24662 196.071953 
L 172.02513 153.478883 
L 172.907784 147.197948 
L 174.581784 136.873758 
L 175.95142 131.117521 
L 176.834075 128.787248 
L 177.71673 127.64526 
L 177.868911 127.598963 
L 178.112402 127.691557 
L 179.39073 129.126758 
L 180.577748 131.287276 
L 180.942984 132.043457 
L 181.856075 135.176208 
L 182.830039 139.589838 
L 187.486802 162.661084 
L 188.156402 165.438894 
L 190.34782 173.895778 
L 191.44353 175.88654 
L 191.930511 176.534698 
L 193.330584 178.46373 
L 193.604511 178.58719 
L 194.304548 178.695215 
L 194.517602 178.695215 
L 196.191602 177.722982 
L 197.530802 175.485301 
L 197.926475 174.435908 
L 198.443893 172.846384 
L 199.326548 169.327825 
L 199.874402 166.318533 
L 200.970111 159.590062 
L 203.374584 143.00037 
L 206.661711 118.833433 
L 210.161893 98.200485 
L 210.740184 95.823915 
L 211.622839 92.706594 
L 213.175093 89.805329 
L 214.696911 89.141742 
L 216.036111 90.623242 
L 217.527493 94.681927 
L 219.444984 101.873368 
L 220.418948 105.808598 
L 220.997239 108.262326 
L 224.740911 125.839684 
L 225.806184 131.179251 
L 226.445348 134.23484 
L 229.671602 149.466492 
L 230.462948 152.907889 
L 231.406475 157.182628 
L 233.20222 166.858663 
L 237.31113 193.20155 
L 238.863384 201.272626 
L 240.141711 205.994904 
L 241.815711 210.732611 
L 243.00273 212.893129 
L 245.772439 216.90552 
L 246.472475 217.476516 
L 246.68553 217.569105 
L 246.959457 217.707995 
L 247.111639 217.738862 
L 247.507311 217.831456 
L 247.68993 217.862323 
L 249.059566 217.754297 
L 249.36393 217.599972 
L 249.69873 217.491946 
L 250.94662 216.982679 
L 251.829275 216.874653 
L 252.316257 216.735762 
L 252.468439 216.704898 
L 252.742366 216.581442 
L 253.016293 216.473416 
L 253.259784 216.380822 
L 253.62502 216.288231 
L 253.807639 216.241932 
L 254.233748 216.334526 
L 254.690293 216.427122 
L 254.903348 216.488846 
L 256.05993 216.951819 
L 256.39473 217.04441 
L 256.72953 217.2296 
L 257.216511 217.599972 
L 257.490439 217.816021 
L 258.06873 218.232693 
L 258.281784 218.417885 
L 258.890511 218.880851 
L 259.65142 219.158631 
L 259.894911 219.158631 
L 260.534075 219.050605 
L 261.173239 218.618499 
L 262.360257 216.627739 
L 263.608148 212.476458 
L 264.125566 210.254211 
L 265.525639 202.599801 
L 266.256111 197.059616 
L 266.925711 191.149058 
L 268.11273 179.34337 
L 270.45633 150.731938 
L 274.230439 95.592431 
L 275.843566 72.675508 
L 278.06542 45.885081 
L 278.795893 38.955991 
L 279.73942 31.749121 
L 280.530766 27.242902 
L 281.16993 24.573119 
L 281.50473 23.523725 
L 282.08302 22.566921 
L 282.75262 22.350869 
L 283.300475 23.045319 
L 283.726584 24.156443 
L 284.09182 25.360165 
L 284.883166 29.002179 
L 286.161493 37.443634 
L 287.378948 48.184492 
L 289.052948 67.150757 
L 292.827057 116.395136 
L 294.440184 136.981785 
L 296.631602 162.306142 
L 298.640402 183.479219 
L 300.740511 202.646103 
L 301.897093 211.65855 
L 303.418911 221.674092 
L 304.088511 224.791413 
L 304.727675 226.936494 
L 305.032039 227.800704 
L 305.671202 229.390228 
L 306.097311 230.177271 
L 306.310366 230.547648 
L 307.040839 231.782227 
L 307.740875 232.26063 
L 308.014802 232.399523 
L 308.806148 232.291495 
L 310.20622 231.473587 
L 311.697602 229.004423 
L 312.702002 226.180318 
L 313.462911 223.093861 
L 314.497748 217.893188 
L 317.480511 199.081243 
L 322.563384 163.78764 
L 323.841711 156.688795 
L 326.063566 145.994231 
L 327.159275 141.997273 
L 328.37673 138.64847 
L 329.04633 137.228701 
L 330.263784 135.577447 
L 330.96382 135.021885 
L 331.207311 134.929292 
L 331.420366 134.867562 
L 331.72473 134.836699 
L 332.424766 134.944725 
L 332.668257 135.068183 
L 332.790002 135.099048 
L 333.155239 135.315099 
L 333.39873 135.423124 
L 333.763966 135.65461 
L 333.885711 135.716338 
L 336.442366 138.154636 
L 337.111966 138.370688 
L 338.32942 138.262663 
L 339.912111 137.336726 
L 341.555675 135.515719 
L 342.073093 134.713241 
L 342.316584 134.327433 
L 344.386257 130.36134 
L 344.721057 129.867507 
L 345.208039 129.296513 
L 345.329784 129.188487 
L 347.247275 127.382911 
L 347.36902 127.290318 
L 348.221239 126.580433 
L 348.525602 126.472407 
L 348.70822 126.42611 
L 349.743057 126.534136 
L 350.686584 127.120563 
L 352.238839 129.666887 
L 354.15633 134.821267 
L 355.556402 140.191696 
L 356.378184 143.818281 
L 357.07822 146.704115 
L 359.42182 156.920279 
L 359.969675 158.926475 
L 360.42622 160.531431 
L 362.039348 165.793835 
L 362.891566 168.417322 
L 363.987275 171.411183 
L 366.483057 176.241484 
L 367.000475 176.611858 
L 367.578766 176.781613 
L 368.674475 176.68902 
L 368.948402 176.56556 
L 369.344075 176.241484 
L 370.165857 174.806281 
L 373.209493 166.812365 
L 373.544293 165.762971 
L 374.305202 163.124053 
L 374.761748 161.519096 
L 375.24873 159.991302 
L 377.774948 150.623912 
L 380.635966 139.481812 
L 382.918693 131.45703 
L 382.918693 131.45703 
" style="fill:none;stroke:#ff0000;stroke-linecap:square;stroke-width:1.5;"/>
   </g>
   <g id="line2d_27">
    <path clip-path="url(#p1298b05188)" d="M 128.196766 162.588553 
" style="fill:none;stroke:#ffffff;stroke-linecap:square;stroke-width:1.5;"/>
    <defs>
     <path d="M 0 -5 
L -1.12257 -1.545085 
L -4.755283 -1.545085 
L -1.816356 0.59017 
L -2.938926 4.045085 
L -0 1.90983 
L 2.938926 4.045085 
L 1.816356 0.59017 
L 4.755283 -1.545085 
L 1.12257 -1.545085 
z
" id="m61e85634db" style="stroke:#ffffff;stroke-linejoin:bevel;"/>
    </defs>
    <g clip-path="url(#p1298b05188)">
     <use style="fill:#0000ff;stroke:#ffffff;stroke-linejoin:bevel;" x="128.196766" xlink:href="#m61e85634db" y="162.588553"/>
    </g>
   </g>
   <g id="line2d_28">
    <path clip-path="url(#p1298b05188)" d="M 105.491239 160.624025 
" style="fill:none;stroke:#ffffff;stroke-linecap:square;stroke-width:1.5;"/>
    <defs>
     <path d="M 0 -5 
L -1.12257 -1.545085 
L -4.755283 -1.545085 
L -1.816356 0.59017 
L -2.938926 4.045085 
L -0 1.90983 
L 2.938926 4.045085 
L 1.816356 0.59017 
L 4.755283 -1.545085 
L 1.12257 -1.545085 
z
" id="m3765c4cd75" style="stroke:#ffffff;stroke-linejoin:bevel;"/>
    </defs>
    <g clip-path="url(#p1298b05188)">
     <use style="fill:#ff0000;stroke:#ffffff;stroke-linejoin:bevel;" x="105.491239" xlink:href="#m3765c4cd75" y="160.624025"/>
    </g>
   </g>
   <g id="patch_3">
    <path d="M 63.336875 339.84 
L 63.336875 7.2 
" style="fill:none;stroke:#000000;stroke-linecap:square;stroke-linejoin:miter;stroke-width:0.8;"/>
   </g>
   <g id="patch_4">
    <path d="M 398.136875 339.84 
L 398.136875 7.2 
" style="fill:none;stroke:#000000;stroke-linecap:square;stroke-linejoin:miter;stroke-width:0.8;"/>
   </g>
   <g id="patch_5">
    <path d="M 63.336875 339.84 
L 398.136875 339.84 
" style="fill:none;stroke:#000000;stroke-linecap:square;stroke-linejoin:miter;stroke-width:0.8;"/>
   </g>
   <g id="patch_6">
    <path d="M 63.336875 7.2 
L 398.136875 7.2 
" style="fill:none;stroke:#000000;stroke-linecap:square;stroke-linejoin:miter;stroke-width:0.8;"/>
   </g>
   <g id="text_15">
    <g id="patch_7">
     <path d="M 75.036875 331.242688 
L 166.79375 331.242688 
L 166.79375 293.760312 
L 75.036875 293.760312 
z
" style="fill:#ffffff;stroke:#000000;stroke-linejoin:miter;stroke-width:0.75;"/>
    </g>
    <!-- Auto_00053 -->
    <g transform="translate(80.076875 308.521562)scale(0.14 -0.14)">
     <defs>
      <path d="M 2928 1419 
L 1288 1419 
L 1000 750 
Q 894 503 894 381 
Q 894 284 986 211 
Q 1078 138 1384 116 
L 1384 0 
L 50 0 
L 50 116 
Q 316 163 394 238 
Q 553 388 747 847 
L 2238 4334 
L 2347 4334 
L 3822 809 
Q 4000 384 4145 257 
Q 4291 131 4550 116 
L 4550 0 
L 2878 0 
L 2878 116 
Q 3131 128 3220 200 
Q 3309 272 3309 375 
Q 3309 513 3184 809 
L 2928 1419 
z
M 2841 1650 
L 2122 3363 
L 1384 1650 
L 2841 1650 
z
" id="TimesNewRomanPSMT-41" transform="scale(0.015625)"/>
      <path d="M 2709 2863 
L 2709 1128 
Q 2709 631 2732 520 
Q 2756 409 2807 365 
Q 2859 322 2928 322 
Q 3025 322 3147 375 
L 3191 266 
L 2334 -88 
L 2194 -88 
L 2194 519 
Q 1825 119 1631 15 
Q 1438 -88 1222 -88 
Q 981 -88 804 51 
Q 628 191 559 409 
Q 491 628 491 1028 
L 491 2306 
Q 491 2509 447 2587 
Q 403 2666 317 2708 
Q 231 2750 6 2747 
L 6 2863 
L 1009 2863 
L 1009 947 
Q 1009 547 1148 422 
Q 1288 297 1484 297 
Q 1619 297 1789 381 
Q 1959 466 2194 703 
L 2194 2325 
Q 2194 2569 2105 2655 
Q 2016 2741 1734 2747 
L 1734 2863 
L 2709 2863 
z
" id="TimesNewRomanPSMT-75" transform="scale(0.015625)"/>
      <path d="M 3256 -1381 
L -53 -1381 
L -53 -1119 
L 3256 -1119 
L 3256 -1381 
z
" id="TimesNewRomanPSMT-5f" transform="scale(0.015625)"/>
     </defs>
     <use xlink:href="#TimesNewRomanPSMT-41"/>
     <use x="72.216797" xlink:href="#TimesNewRomanPSMT-75"/>
     <use x="122.216797" xlink:href="#TimesNewRomanPSMT-74"/>
     <use x="150" xlink:href="#TimesNewRomanPSMT-6f"/>
     <use x="200" xlink:href="#TimesNewRomanPSMT-5f"/>
     <use x="250" xlink:href="#TimesNewRomanPSMT-30"/>
     <use x="300" xlink:href="#TimesNewRomanPSMT-30"/>
     <use x="350" xlink:href="#TimesNewRomanPSMT-30"/>
     <use x="400" xlink:href="#TimesNewRomanPSMT-35"/>
     <use x="450" xlink:href="#TimesNewRomanPSMT-33"/>
    </g>
    <!-- Vs: 267.96m/s -->
    <g transform="translate(80.076875 323.208)scale(0.14 -0.14)">
     <defs>
      <path d="M 903 2950 
Q 1047 2950 1148 2848 
Q 1250 2747 1250 2603 
Q 1250 2459 1148 2357 
Q 1047 2256 903 2256 
Q 759 2256 657 2357 
Q 556 2459 556 2603 
Q 556 2747 657 2848 
Q 759 2950 903 2950 
z
M 897 609 
Q 1044 609 1145 506 
Q 1247 403 1247 259 
Q 1247 116 1144 14 
Q 1041 -88 897 -88 
Q 753 -88 651 14 
Q 550 116 550 259 
Q 550 403 651 506 
Q 753 609 897 609 
z
" id="TimesNewRomanPSMT-3a" transform="scale(0.015625)"/>
      <path d="M 644 4238 
L 2916 4238 
L 2916 4119 
L 1503 -88 
L 1153 -88 
L 2419 3728 
L 1253 3728 
Q 900 3728 750 3644 
Q 488 3500 328 3200 
L 238 3234 
L 644 4238 
z
" id="TimesNewRomanPSMT-37" transform="scale(0.015625)"/>
      <path d="M 338 -88 
L 338 28 
Q 744 34 1094 217 
Q 1444 400 1770 856 
Q 2097 1313 2225 1859 
Q 1734 1544 1338 1544 
Q 891 1544 572 1889 
Q 253 2234 253 2806 
Q 253 3363 572 3797 
Q 956 4325 1575 4325 
Q 2097 4325 2469 3894 
Q 2925 3359 2925 2575 
Q 2925 1869 2578 1258 
Q 2231 647 1613 244 
Q 1109 -88 516 -88 
L 338 -88 
z
M 2275 2091 
Q 2331 2497 2331 2741 
Q 2331 3044 2228 3395 
Q 2125 3747 1936 3934 
Q 1747 4122 1506 4122 
Q 1228 4122 1018 3872 
Q 809 3622 809 3128 
Q 809 2469 1088 2097 
Q 1291 1828 1588 1828 
Q 1731 1828 1928 1897 
Q 2125 1966 2275 2091 
z
" id="TimesNewRomanPSMT-39" transform="scale(0.015625)"/>
      <path d="M 1794 4444 
L 259 -88 
L 9 -88 
L 1544 4444 
L 1794 4444 
z
" id="TimesNewRomanPSMT-2f" transform="scale(0.015625)"/>
     </defs>
     <use xlink:href="#TimesNewRomanPSMT-56"/>
     <use x="72.216797" xlink:href="#TimesNewRomanPSMT-73"/>
     <use x="111.132812" xlink:href="#TimesNewRomanPSMT-3a"/>
     <use x="138.916016" xlink:href="#TimesNewRomanPSMT-20"/>
     <use x="163.916016" xlink:href="#TimesNewRomanPSMT-32"/>
     <use x="213.916016" xlink:href="#TimesNewRomanPSMT-36"/>
     <use x="263.916016" xlink:href="#TimesNewRomanPSMT-37"/>
     <use x="313.916016" xlink:href="#TimesNewRomanPSMT-2e"/>
     <use x="338.916016" xlink:href="#TimesNewRomanPSMT-39"/>
     <use x="388.916016" xlink:href="#TimesNewRomanPSMT-36"/>
     <use x="438.916016" xlink:href="#TimesNewRomanPSMT-6d"/>
     <use x="516.699219" xlink:href="#TimesNewRomanPSMT-2f"/>
     <use x="544.482422" xlink:href="#TimesNewRomanPSMT-73"/>
    </g>
   </g>
  </g>
 </g>
 <defs>
  <clipPath id="p1298b05188">
   <rect height="332.64" width="334.8" x="63.336875" y="7.2"/>
  </clipPath>
 </defs>
</svg>
