<?xml version="1.0" encoding="utf-8" standalone="no"?>
<!DOCTYPE svg PUBLIC "-//W3C//DTD SVG 1.1//EN"
  "http://www.w3.org/Graphics/SVG/1.1/DTD/svg11.dtd">
<svg height="386.040233pt" version="1.1" viewBox="0 0 421.086875 386.040233" width="421.086875pt" xmlns="http://www.w3.org/2000/svg" xmlns:xlink="http://www.w3.org/1999/xlink">
 <metadata>
  <rdf:RDF xmlns:cc="http://creativecommons.org/ns#" xmlns:dc="http://purl.org/dc/elements/1.1/" xmlns:rdf="http://www.w3.org/1999/02/22-rdf-syntax-ns#">
   <cc:Work>
    <dc:type rdf:resource="http://purl.org/dc/dcmitype/StillImage"/>
    <dc:date>2021-06-11T14:39:38.224440</dc:date>
    <dc:format>image/svg+xml</dc:format>
    <dc:creator>
     <cc:Agent>
      <dc:title>Matplotlib v3.4.2, https://matplotlib.org/</dc:title>
     </cc:Agent>
    </dc:creator>
   </cc:Work>
  </rdf:RDF>
 </metadata>
 <defs>
  <style type="text/css">*{stroke-linecap:butt;stroke-linejoin:round;}</style>
 </defs>
 <g id="figure_1">
  <g id="patch_1">
   <path d="M 0 386.040233 
L 421.086875 386.040233 
L 421.086875 0 
L 0 0 
z
" style="fill:#ffffff;"/>
  </g>
  <g id="axes_1">
   <g id="patch_2">
    <path d="M 63.336875 342.408358 
L 398.136875 342.408358 
L 398.136875 9.768358 
L 63.336875 9.768358 
z
" style="fill:#ffffff;"/>
   </g>
   <g id="matplotlib.axis_1">
    <g id="xtick_1">
     <g id="line2d_1">
      <path clip-path="url(#pfe3bea4ecb)" d="M 93.773239 342.408358 
L 93.773239 9.768358 
" style="fill:none;stroke:#000000;stroke-dasharray:0.5,0.825;stroke-dashoffset:0;stroke-width:0.5;"/>
     </g>
     <g id="line2d_2">
      <defs>
       <path d="M 0 0 
L 0 3.5 
" id="m04dfbe6817" style="stroke:#000000;stroke-width:0.8;"/>
      </defs>
      <g>
       <use style="stroke:#000000;stroke-width:0.8;" x="93.773239" xlink:href="#m04dfbe6817" y="342.408358"/>
      </g>
     </g>
     <g id="text_1">
      <!-- 0.000 -->
      <g transform="translate(78.023239 359.129608)scale(0.14 -0.14)">
       <defs>
        <path d="M 231 2094 
Q 231 2819 450 3342 
Q 669 3866 1031 4122 
Q 1313 4325 1613 4325 
Q 2100 4325 2488 3828 
Q 2972 3213 2972 2159 
Q 2972 1422 2759 906 
Q 2547 391 2217 158 
Q 1888 -75 1581 -75 
Q 975 -75 572 641 
Q 231 1244 231 2094 
z
M 844 2016 
Q 844 1141 1059 588 
Q 1238 122 1591 122 
Q 1759 122 1940 273 
Q 2122 425 2216 781 
Q 2359 1319 2359 2297 
Q 2359 3022 2209 3506 
Q 2097 3866 1919 4016 
Q 1791 4119 1609 4119 
Q 1397 4119 1231 3928 
Q 1006 3669 925 3112 
Q 844 2556 844 2016 
z
" id="TimesNewRomanPSMT-30" transform="scale(0.015625)"/>
        <path d="M 800 606 
Q 947 606 1047 504 
Q 1147 403 1147 259 
Q 1147 116 1045 14 
Q 944 -88 800 -88 
Q 656 -88 554 14 
Q 453 116 453 259 
Q 453 406 554 506 
Q 656 606 800 606 
z
" id="TimesNewRomanPSMT-2e" transform="scale(0.015625)"/>
       </defs>
       <use xlink:href="#TimesNewRomanPSMT-30"/>
       <use x="50" xlink:href="#TimesNewRomanPSMT-2e"/>
       <use x="75" xlink:href="#TimesNewRomanPSMT-30"/>
       <use x="125" xlink:href="#TimesNewRomanPSMT-30"/>
       <use x="175" xlink:href="#TimesNewRomanPSMT-30"/>
      </g>
     </g>
    </g>
    <g id="xtick_2">
     <g id="line2d_3">
      <path clip-path="url(#pfe3bea4ecb)" d="M 154.645966 342.408358 
L 154.645966 9.768358 
" style="fill:none;stroke:#000000;stroke-dasharray:0.5,0.825;stroke-dashoffset:0;stroke-width:0.5;"/>
     </g>
     <g id="line2d_4">
      <g>
       <use style="stroke:#000000;stroke-width:0.8;" x="154.645966" xlink:href="#m04dfbe6817" y="342.408358"/>
      </g>
     </g>
     <g id="text_2">
      <!-- 0.001 -->
      <g transform="translate(138.895966 359.129608)scale(0.14 -0.14)">
       <defs>
        <path d="M 750 3822 
L 1781 4325 
L 1884 4325 
L 1884 747 
Q 1884 391 1914 303 
Q 1944 216 2037 169 
Q 2131 122 2419 116 
L 2419 0 
L 825 0 
L 825 116 
Q 1125 122 1212 167 
Q 1300 213 1334 289 
Q 1369 366 1369 747 
L 1369 3034 
Q 1369 3497 1338 3628 
Q 1316 3728 1258 3775 
Q 1200 3822 1119 3822 
Q 1003 3822 797 3725 
L 750 3822 
z
" id="TimesNewRomanPSMT-31" transform="scale(0.015625)"/>
       </defs>
       <use xlink:href="#TimesNewRomanPSMT-30"/>
       <use x="50" xlink:href="#TimesNewRomanPSMT-2e"/>
       <use x="75" xlink:href="#TimesNewRomanPSMT-30"/>
       <use x="125" xlink:href="#TimesNewRomanPSMT-30"/>
       <use x="175" xlink:href="#TimesNewRomanPSMT-31"/>
      </g>
     </g>
    </g>
    <g id="xtick_3">
     <g id="line2d_5">
      <path clip-path="url(#pfe3bea4ecb)" d="M 215.518693 342.408358 
L 215.518693 9.768358 
" style="fill:none;stroke:#000000;stroke-dasharray:0.5,0.825;stroke-dashoffset:0;stroke-width:0.5;"/>
     </g>
     <g id="line2d_6">
      <g>
       <use style="stroke:#000000;stroke-width:0.8;" x="215.518693" xlink:href="#m04dfbe6817" y="342.408358"/>
      </g>
     </g>
     <g id="text_3">
      <!-- 0.002 -->
      <g transform="translate(199.768693 359.129608)scale(0.14 -0.14)">
       <defs>
        <path d="M 2934 816 
L 2638 0 
L 138 0 
L 138 116 
Q 1241 1122 1691 1759 
Q 2141 2397 2141 2925 
Q 2141 3328 1894 3587 
Q 1647 3847 1303 3847 
Q 991 3847 742 3664 
Q 494 3481 375 3128 
L 259 3128 
Q 338 3706 661 4015 
Q 984 4325 1469 4325 
Q 1984 4325 2329 3994 
Q 2675 3663 2675 3213 
Q 2675 2891 2525 2569 
Q 2294 2063 1775 1497 
Q 997 647 803 472 
L 1909 472 
Q 2247 472 2383 497 
Q 2519 522 2628 598 
Q 2738 675 2819 816 
L 2934 816 
z
" id="TimesNewRomanPSMT-32" transform="scale(0.015625)"/>
       </defs>
       <use xlink:href="#TimesNewRomanPSMT-30"/>
       <use x="50" xlink:href="#TimesNewRomanPSMT-2e"/>
       <use x="75" xlink:href="#TimesNewRomanPSMT-30"/>
       <use x="125" xlink:href="#TimesNewRomanPSMT-30"/>
       <use x="175" xlink:href="#TimesNewRomanPSMT-32"/>
      </g>
     </g>
    </g>
    <g id="xtick_4">
     <g id="line2d_7">
      <path clip-path="url(#pfe3bea4ecb)" d="M 276.39142 342.408358 
L 276.39142 9.768358 
" style="fill:none;stroke:#000000;stroke-dasharray:0.5,0.825;stroke-dashoffset:0;stroke-width:0.5;"/>
     </g>
     <g id="line2d_8">
      <g>
       <use style="stroke:#000000;stroke-width:0.8;" x="276.39142" xlink:href="#m04dfbe6817" y="342.408358"/>
      </g>
     </g>
     <g id="text_4">
      <!-- 0.003 -->
      <g transform="translate(260.64142 359.129608)scale(0.14 -0.14)">
       <defs>
        <path d="M 325 3431 
Q 506 3859 782 4092 
Q 1059 4325 1472 4325 
Q 1981 4325 2253 3994 
Q 2459 3747 2459 3466 
Q 2459 3003 1878 2509 
Q 2269 2356 2469 2072 
Q 2669 1788 2669 1403 
Q 2669 853 2319 450 
Q 1863 -75 997 -75 
Q 569 -75 414 31 
Q 259 138 259 259 
Q 259 350 332 419 
Q 406 488 509 488 
Q 588 488 669 463 
Q 722 447 909 348 
Q 1097 250 1169 231 
Q 1284 197 1416 197 
Q 1734 197 1970 444 
Q 2206 691 2206 1028 
Q 2206 1275 2097 1509 
Q 2016 1684 1919 1775 
Q 1784 1900 1550 2001 
Q 1316 2103 1072 2103 
L 972 2103 
L 972 2197 
Q 1219 2228 1467 2375 
Q 1716 2522 1828 2728 
Q 1941 2934 1941 3181 
Q 1941 3503 1739 3701 
Q 1538 3900 1238 3900 
Q 753 3900 428 3381 
L 325 3431 
z
" id="TimesNewRomanPSMT-33" transform="scale(0.015625)"/>
       </defs>
       <use xlink:href="#TimesNewRomanPSMT-30"/>
       <use x="50" xlink:href="#TimesNewRomanPSMT-2e"/>
       <use x="75" xlink:href="#TimesNewRomanPSMT-30"/>
       <use x="125" xlink:href="#TimesNewRomanPSMT-30"/>
       <use x="175" xlink:href="#TimesNewRomanPSMT-33"/>
      </g>
     </g>
    </g>
    <g id="xtick_5">
     <g id="line2d_9">
      <path clip-path="url(#pfe3bea4ecb)" d="M 337.264148 342.408358 
L 337.264148 9.768358 
" style="fill:none;stroke:#000000;stroke-dasharray:0.5,0.825;stroke-dashoffset:0;stroke-width:0.5;"/>
     </g>
     <g id="line2d_10">
      <g>
       <use style="stroke:#000000;stroke-width:0.8;" x="337.264148" xlink:href="#m04dfbe6817" y="342.408358"/>
      </g>
     </g>
     <g id="text_5">
      <!-- 0.004 -->
      <g transform="translate(321.514148 359.129608)scale(0.14 -0.14)">
       <defs>
        <path d="M 2978 1563 
L 2978 1119 
L 2409 1119 
L 2409 0 
L 1894 0 
L 1894 1119 
L 100 1119 
L 100 1519 
L 2066 4325 
L 2409 4325 
L 2409 1563 
L 2978 1563 
z
M 1894 1563 
L 1894 3666 
L 406 1563 
L 1894 1563 
z
" id="TimesNewRomanPSMT-34" transform="scale(0.015625)"/>
       </defs>
       <use xlink:href="#TimesNewRomanPSMT-30"/>
       <use x="50" xlink:href="#TimesNewRomanPSMT-2e"/>
       <use x="75" xlink:href="#TimesNewRomanPSMT-30"/>
       <use x="125" xlink:href="#TimesNewRomanPSMT-30"/>
       <use x="175" xlink:href="#TimesNewRomanPSMT-34"/>
      </g>
     </g>
    </g>
    <g id="xtick_6">
     <g id="line2d_11">
      <path clip-path="url(#pfe3bea4ecb)" d="M 398.136875 342.408358 
L 398.136875 9.768358 
" style="fill:none;stroke:#000000;stroke-dasharray:0.5,0.825;stroke-dashoffset:0;stroke-width:0.5;"/>
     </g>
     <g id="line2d_12">
      <g>
       <use style="stroke:#000000;stroke-width:0.8;" x="398.136875" xlink:href="#m04dfbe6817" y="342.408358"/>
      </g>
     </g>
     <g id="text_6">
      <!-- 0.005 -->
      <g transform="translate(382.386875 359.129608)scale(0.14 -0.14)">
       <defs>
        <path d="M 2778 4238 
L 2534 3706 
L 1259 3706 
L 981 3138 
Q 1809 3016 2294 2522 
Q 2709 2097 2709 1522 
Q 2709 1188 2573 903 
Q 2438 619 2231 419 
Q 2025 219 1772 97 
Q 1413 -75 1034 -75 
Q 653 -75 479 54 
Q 306 184 306 341 
Q 306 428 378 495 
Q 450 563 559 563 
Q 641 563 702 538 
Q 763 513 909 409 
Q 1144 247 1384 247 
Q 1750 247 2026 523 
Q 2303 800 2303 1197 
Q 2303 1581 2056 1914 
Q 1809 2247 1375 2428 
Q 1034 2569 447 2591 
L 1259 4238 
L 2778 4238 
z
" id="TimesNewRomanPSMT-35" transform="scale(0.015625)"/>
       </defs>
       <use xlink:href="#TimesNewRomanPSMT-30"/>
       <use x="50" xlink:href="#TimesNewRomanPSMT-2e"/>
       <use x="75" xlink:href="#TimesNewRomanPSMT-30"/>
       <use x="125" xlink:href="#TimesNewRomanPSMT-30"/>
       <use x="175" xlink:href="#TimesNewRomanPSMT-35"/>
      </g>
     </g>
    </g>
    <g id="text_7">
     <!-- Time (sec) -->
     <g transform="translate(200.858906 375.845545)scale(0.14 -0.14)">
      <defs>
       <path d="M 3703 4238 
L 3750 3244 
L 3631 3244 
Q 3597 3506 3538 3619 
Q 3441 3800 3280 3886 
Q 3119 3972 2856 3972 
L 2259 3972 
L 2259 734 
Q 2259 344 2344 247 
Q 2463 116 2709 116 
L 2856 116 
L 2856 0 
L 1059 0 
L 1059 116 
L 1209 116 
Q 1478 116 1591 278 
Q 1659 378 1659 734 
L 1659 3972 
L 1150 3972 
Q 853 3972 728 3928 
Q 566 3869 450 3700 
Q 334 3531 313 3244 
L 194 3244 
L 244 4238 
L 3703 4238 
z
" id="TimesNewRomanPSMT-54" transform="scale(0.015625)"/>
       <path d="M 928 4444 
Q 1059 4444 1151 4351 
Q 1244 4259 1244 4128 
Q 1244 3997 1151 3903 
Q 1059 3809 928 3809 
Q 797 3809 703 3903 
Q 609 3997 609 4128 
Q 609 4259 701 4351 
Q 794 4444 928 4444 
z
M 1188 2947 
L 1188 647 
Q 1188 378 1227 289 
Q 1266 200 1342 156 
Q 1419 113 1622 113 
L 1622 0 
L 231 0 
L 231 113 
Q 441 113 512 153 
Q 584 194 626 287 
Q 669 381 669 647 
L 669 1750 
Q 669 2216 641 2353 
Q 619 2453 572 2492 
Q 525 2531 444 2531 
Q 356 2531 231 2484 
L 188 2597 
L 1050 2947 
L 1188 2947 
z
" id="TimesNewRomanPSMT-69" transform="scale(0.015625)"/>
       <path d="M 1050 2338 
Q 1363 2650 1419 2697 
Q 1559 2816 1721 2881 
Q 1884 2947 2044 2947 
Q 2313 2947 2506 2790 
Q 2700 2634 2766 2338 
Q 3088 2713 3309 2830 
Q 3531 2947 3766 2947 
Q 3994 2947 4170 2830 
Q 4347 2713 4450 2447 
Q 4519 2266 4519 1878 
L 4519 647 
Q 4519 378 4559 278 
Q 4591 209 4675 161 
Q 4759 113 4950 113 
L 4950 0 
L 3538 0 
L 3538 113 
L 3597 113 
Q 3781 113 3884 184 
Q 3956 234 3988 344 
Q 4000 397 4000 647 
L 4000 1878 
Q 4000 2228 3916 2372 
Q 3794 2572 3525 2572 
Q 3359 2572 3192 2489 
Q 3025 2406 2788 2181 
L 2781 2147 
L 2788 2013 
L 2788 647 
Q 2788 353 2820 281 
Q 2853 209 2943 161 
Q 3034 113 3253 113 
L 3253 0 
L 1806 0 
L 1806 113 
Q 2044 113 2133 169 
Q 2222 225 2256 338 
Q 2272 391 2272 647 
L 2272 1878 
Q 2272 2228 2169 2381 
Q 2031 2581 1784 2581 
Q 1616 2581 1450 2491 
Q 1191 2353 1050 2181 
L 1050 647 
Q 1050 366 1089 281 
Q 1128 197 1204 155 
Q 1281 113 1516 113 
L 1516 0 
L 100 0 
L 100 113 
Q 297 113 375 155 
Q 453 197 493 289 
Q 534 381 534 647 
L 534 1741 
Q 534 2213 506 2350 
Q 484 2453 437 2492 
Q 391 2531 309 2531 
Q 222 2531 100 2484 
L 53 2597 
L 916 2947 
L 1050 2947 
L 1050 2338 
z
" id="TimesNewRomanPSMT-6d" transform="scale(0.015625)"/>
       <path d="M 681 1784 
Q 678 1147 991 784 
Q 1303 422 1725 422 
Q 2006 422 2214 576 
Q 2422 731 2563 1106 
L 2659 1044 
Q 2594 616 2278 264 
Q 1963 -88 1488 -88 
Q 972 -88 605 314 
Q 238 716 238 1394 
Q 238 2128 614 2539 
Q 991 2950 1559 2950 
Q 2041 2950 2350 2633 
Q 2659 2316 2659 1784 
L 681 1784 
z
M 681 1966 
L 2006 1966 
Q 1991 2241 1941 2353 
Q 1863 2528 1708 2628 
Q 1553 2728 1384 2728 
Q 1125 2728 920 2526 
Q 716 2325 681 1966 
z
" id="TimesNewRomanPSMT-65" transform="scale(0.015625)"/>
       <path id="TimesNewRomanPSMT-20" transform="scale(0.015625)"/>
       <path d="M 1988 -1253 
L 1988 -1369 
Q 1516 -1131 1200 -813 
Q 750 -359 506 256 
Q 263 872 263 1534 
Q 263 2503 741 3301 
Q 1219 4100 1988 4444 
L 1988 4313 
Q 1603 4100 1356 3731 
Q 1109 3363 987 2797 
Q 866 2231 866 1616 
Q 866 947 969 400 
Q 1050 -31 1165 -292 
Q 1281 -553 1476 -793 
Q 1672 -1034 1988 -1253 
z
" id="TimesNewRomanPSMT-28" transform="scale(0.015625)"/>
       <path d="M 2050 2947 
L 2050 1972 
L 1947 1972 
Q 1828 2431 1642 2597 
Q 1456 2763 1169 2763 
Q 950 2763 815 2647 
Q 681 2531 681 2391 
Q 681 2216 781 2091 
Q 878 1963 1175 1819 
L 1631 1597 
Q 2266 1288 2266 781 
Q 2266 391 1970 151 
Q 1675 -88 1309 -88 
Q 1047 -88 709 6 
Q 606 38 541 38 
Q 469 38 428 -44 
L 325 -44 
L 325 978 
L 428 978 
Q 516 541 762 319 
Q 1009 97 1316 97 
Q 1531 97 1667 223 
Q 1803 350 1803 528 
Q 1803 744 1651 891 
Q 1500 1038 1047 1263 
Q 594 1488 453 1669 
Q 313 1847 313 2119 
Q 313 2472 555 2709 
Q 797 2947 1181 2947 
Q 1350 2947 1591 2875 
Q 1750 2828 1803 2828 
Q 1853 2828 1881 2850 
Q 1909 2872 1947 2947 
L 2050 2947 
z
" id="TimesNewRomanPSMT-73" transform="scale(0.015625)"/>
       <path d="M 2631 1088 
Q 2516 522 2178 217 
Q 1841 -88 1431 -88 
Q 944 -88 581 321 
Q 219 731 219 1428 
Q 219 2103 620 2525 
Q 1022 2947 1584 2947 
Q 2006 2947 2278 2723 
Q 2550 2500 2550 2259 
Q 2550 2141 2473 2067 
Q 2397 1994 2259 1994 
Q 2075 1994 1981 2113 
Q 1928 2178 1911 2362 
Q 1894 2547 1784 2644 
Q 1675 2738 1481 2738 
Q 1169 2738 978 2506 
Q 725 2200 725 1697 
Q 725 1184 976 792 
Q 1228 400 1656 400 
Q 1963 400 2206 609 
Q 2378 753 2541 1131 
L 2631 1088 
z
" id="TimesNewRomanPSMT-63" transform="scale(0.015625)"/>
       <path d="M 144 4313 
L 144 4444 
Q 619 4209 934 3891 
Q 1381 3434 1625 2820 
Q 1869 2206 1869 1541 
Q 1869 572 1392 -226 
Q 916 -1025 144 -1369 
L 144 -1253 
Q 528 -1038 776 -670 
Q 1025 -303 1145 264 
Q 1266 831 1266 1447 
Q 1266 2113 1163 2663 
Q 1084 3094 967 3353 
Q 850 3613 656 3853 
Q 463 4094 144 4313 
z
" id="TimesNewRomanPSMT-29" transform="scale(0.015625)"/>
      </defs>
      <use xlink:href="#TimesNewRomanPSMT-54"/>
      <use x="57.583984" xlink:href="#TimesNewRomanPSMT-69"/>
      <use x="85.367188" xlink:href="#TimesNewRomanPSMT-6d"/>
      <use x="163.150391" xlink:href="#TimesNewRomanPSMT-65"/>
      <use x="207.535156" xlink:href="#TimesNewRomanPSMT-20"/>
      <use x="232.535156" xlink:href="#TimesNewRomanPSMT-28"/>
      <use x="265.835938" xlink:href="#TimesNewRomanPSMT-73"/>
      <use x="304.751953" xlink:href="#TimesNewRomanPSMT-65"/>
      <use x="349.136719" xlink:href="#TimesNewRomanPSMT-63"/>
      <use x="393.521484" xlink:href="#TimesNewRomanPSMT-29"/>
     </g>
    </g>
   </g>
   <g id="matplotlib.axis_2">
    <g id="ytick_1">
     <g id="line2d_13">
      <path clip-path="url(#pfe3bea4ecb)" d="M 63.336875 307.284832 
L 398.136875 307.284832 
" style="fill:none;stroke:#000000;stroke-dasharray:0.5,0.825;stroke-dashoffset:0;stroke-width:0.5;"/>
     </g>
     <g id="line2d_14">
      <defs>
       <path d="M 0 0 
L -3.5 0 
" id="mc478323468" style="stroke:#000000;stroke-width:0.8;"/>
      </defs>
      <g>
       <use style="stroke:#000000;stroke-width:0.8;" x="63.336875" xlink:href="#mc478323468" y="307.284832"/>
      </g>
     </g>
     <g id="text_8">
      <!-- −0.06 -->
      <g transform="translate(23.942188 312.145457)scale(0.14 -0.14)">
       <defs>
        <path d="M 3484 2000 
L 116 2000 
L 116 2256 
L 3484 2256 
L 3484 2000 
z
" id="TimesNewRomanPSMT-2212" transform="scale(0.015625)"/>
        <path d="M 2869 4325 
L 2869 4209 
Q 2456 4169 2195 4045 
Q 1934 3922 1679 3669 
Q 1425 3416 1258 3105 
Q 1091 2794 978 2366 
Q 1428 2675 1881 2675 
Q 2316 2675 2634 2325 
Q 2953 1975 2953 1425 
Q 2953 894 2631 456 
Q 2244 -75 1606 -75 
Q 1172 -75 869 213 
Q 275 772 275 1663 
Q 275 2231 503 2743 
Q 731 3256 1154 3653 
Q 1578 4050 1965 4187 
Q 2353 4325 2688 4325 
L 2869 4325 
z
M 925 2138 
Q 869 1716 869 1456 
Q 869 1156 980 804 
Q 1091 453 1309 247 
Q 1469 100 1697 100 
Q 1969 100 2183 356 
Q 2397 613 2397 1088 
Q 2397 1622 2184 2012 
Q 1972 2403 1581 2403 
Q 1463 2403 1327 2353 
Q 1191 2303 925 2138 
z
" id="TimesNewRomanPSMT-36" transform="scale(0.015625)"/>
       </defs>
       <use xlink:href="#TimesNewRomanPSMT-2212"/>
       <use x="56.396484" xlink:href="#TimesNewRomanPSMT-30"/>
       <use x="106.396484" xlink:href="#TimesNewRomanPSMT-2e"/>
       <use x="131.396484" xlink:href="#TimesNewRomanPSMT-30"/>
       <use x="181.396484" xlink:href="#TimesNewRomanPSMT-36"/>
      </g>
     </g>
    </g>
    <g id="ytick_2">
     <g id="line2d_15">
      <path clip-path="url(#pfe3bea4ecb)" d="M 63.336875 258.080797 
L 398.136875 258.080797 
" style="fill:none;stroke:#000000;stroke-dasharray:0.5,0.825;stroke-dashoffset:0;stroke-width:0.5;"/>
     </g>
     <g id="line2d_16">
      <g>
       <use style="stroke:#000000;stroke-width:0.8;" x="63.336875" xlink:href="#mc478323468" y="258.080797"/>
      </g>
     </g>
     <g id="text_9">
      <!-- −0.04 -->
      <g transform="translate(23.942188 262.941422)scale(0.14 -0.14)">
       <use xlink:href="#TimesNewRomanPSMT-2212"/>
       <use x="56.396484" xlink:href="#TimesNewRomanPSMT-30"/>
       <use x="106.396484" xlink:href="#TimesNewRomanPSMT-2e"/>
       <use x="131.396484" xlink:href="#TimesNewRomanPSMT-30"/>
       <use x="181.396484" xlink:href="#TimesNewRomanPSMT-34"/>
      </g>
     </g>
    </g>
    <g id="ytick_3">
     <g id="line2d_17">
      <path clip-path="url(#pfe3bea4ecb)" d="M 63.336875 208.876763 
L 398.136875 208.876763 
" style="fill:none;stroke:#000000;stroke-dasharray:0.5,0.825;stroke-dashoffset:0;stroke-width:0.5;"/>
     </g>
     <g id="line2d_18">
      <g>
       <use style="stroke:#000000;stroke-width:0.8;" x="63.336875" xlink:href="#mc478323468" y="208.876763"/>
      </g>
     </g>
     <g id="text_10">
      <!-- −0.02 -->
      <g transform="translate(23.942188 213.737388)scale(0.14 -0.14)">
       <use xlink:href="#TimesNewRomanPSMT-2212"/>
       <use x="56.396484" xlink:href="#TimesNewRomanPSMT-30"/>
       <use x="106.396484" xlink:href="#TimesNewRomanPSMT-2e"/>
       <use x="131.396484" xlink:href="#TimesNewRomanPSMT-30"/>
       <use x="181.396484" xlink:href="#TimesNewRomanPSMT-32"/>
      </g>
     </g>
    </g>
    <g id="ytick_4">
     <g id="line2d_19">
      <path clip-path="url(#pfe3bea4ecb)" d="M 63.336875 159.672728 
L 398.136875 159.672728 
" style="fill:none;stroke:#000000;stroke-dasharray:0.5,0.825;stroke-dashoffset:0;stroke-width:0.5;"/>
     </g>
     <g id="line2d_20">
      <g>
       <use style="stroke:#000000;stroke-width:0.8;" x="63.336875" xlink:href="#mc478323468" y="159.672728"/>
      </g>
     </g>
     <g id="text_11">
      <!-- 0.00 -->
      <g transform="translate(31.836875 164.533353)scale(0.14 -0.14)">
       <use xlink:href="#TimesNewRomanPSMT-30"/>
       <use x="50" xlink:href="#TimesNewRomanPSMT-2e"/>
       <use x="75" xlink:href="#TimesNewRomanPSMT-30"/>
       <use x="125" xlink:href="#TimesNewRomanPSMT-30"/>
      </g>
     </g>
    </g>
    <g id="ytick_5">
     <g id="line2d_21">
      <path clip-path="url(#pfe3bea4ecb)" d="M 63.336875 110.468694 
L 398.136875 110.468694 
" style="fill:none;stroke:#000000;stroke-dasharray:0.5,0.825;stroke-dashoffset:0;stroke-width:0.5;"/>
     </g>
     <g id="line2d_22">
      <g>
       <use style="stroke:#000000;stroke-width:0.8;" x="63.336875" xlink:href="#mc478323468" y="110.468694"/>
      </g>
     </g>
     <g id="text_12">
      <!-- 0.02 -->
      <g transform="translate(31.836875 115.329319)scale(0.14 -0.14)">
       <use xlink:href="#TimesNewRomanPSMT-30"/>
       <use x="50" xlink:href="#TimesNewRomanPSMT-2e"/>
       <use x="75" xlink:href="#TimesNewRomanPSMT-30"/>
       <use x="125" xlink:href="#TimesNewRomanPSMT-32"/>
      </g>
     </g>
    </g>
    <g id="ytick_6">
     <g id="line2d_23">
      <path clip-path="url(#pfe3bea4ecb)" d="M 63.336875 61.264659 
L 398.136875 61.264659 
" style="fill:none;stroke:#000000;stroke-dasharray:0.5,0.825;stroke-dashoffset:0;stroke-width:0.5;"/>
     </g>
     <g id="line2d_24">
      <g>
       <use style="stroke:#000000;stroke-width:0.8;" x="63.336875" xlink:href="#mc478323468" y="61.264659"/>
      </g>
     </g>
     <g id="text_13">
      <!-- 0.04 -->
      <g transform="translate(31.836875 66.125284)scale(0.14 -0.14)">
       <use xlink:href="#TimesNewRomanPSMT-30"/>
       <use x="50" xlink:href="#TimesNewRomanPSMT-2e"/>
       <use x="75" xlink:href="#TimesNewRomanPSMT-30"/>
       <use x="125" xlink:href="#TimesNewRomanPSMT-34"/>
      </g>
     </g>
    </g>
    <g id="ytick_7">
     <g id="line2d_25">
      <path clip-path="url(#pfe3bea4ecb)" d="M 63.336875 12.060625 
L 398.136875 12.060625 
" style="fill:none;stroke:#000000;stroke-dasharray:0.5,0.825;stroke-dashoffset:0;stroke-width:0.5;"/>
     </g>
     <g id="line2d_26">
      <g>
       <use style="stroke:#000000;stroke-width:0.8;" x="63.336875" xlink:href="#mc478323468" y="12.060625"/>
      </g>
     </g>
     <g id="text_14">
      <!-- 0.06 -->
      <g transform="translate(31.836875 16.92125)scale(0.14 -0.14)">
       <use xlink:href="#TimesNewRomanPSMT-30"/>
       <use x="50" xlink:href="#TimesNewRomanPSMT-2e"/>
       <use x="75" xlink:href="#TimesNewRomanPSMT-30"/>
       <use x="125" xlink:href="#TimesNewRomanPSMT-36"/>
      </g>
     </g>
    </g>
    <g id="text_15">
     <!-- Volatage (V) -->
     <g transform="translate(16.92125 211.920702)rotate(-90)scale(0.14 -0.14)">
      <defs>
       <path d="M 4544 4238 
L 4544 4122 
Q 4319 4081 4203 3978 
Q 4038 3825 3909 3509 
L 2431 -97 
L 2316 -97 
L 728 3556 
Q 606 3838 556 3900 
Q 478 3997 364 4051 
Q 250 4106 56 4122 
L 56 4238 
L 1788 4238 
L 1788 4122 
Q 1494 4094 1406 4022 
Q 1319 3950 1319 3838 
Q 1319 3681 1463 3350 
L 2541 866 
L 3541 3319 
Q 3688 3681 3688 3822 
Q 3688 3913 3597 3995 
Q 3506 4078 3291 4113 
Q 3275 4116 3238 4122 
L 3238 4238 
L 4544 4238 
z
" id="TimesNewRomanPSMT-56" transform="scale(0.015625)"/>
       <path d="M 1600 2947 
Q 2250 2947 2644 2453 
Q 2978 2031 2978 1484 
Q 2978 1100 2793 706 
Q 2609 313 2286 112 
Q 1963 -88 1566 -88 
Q 919 -88 538 428 
Q 216 863 216 1403 
Q 216 1797 411 2186 
Q 606 2575 925 2761 
Q 1244 2947 1600 2947 
z
M 1503 2744 
Q 1338 2744 1170 2645 
Q 1003 2547 900 2300 
Q 797 2053 797 1666 
Q 797 1041 1045 587 
Q 1294 134 1700 134 
Q 2003 134 2200 384 
Q 2397 634 2397 1244 
Q 2397 2006 2069 2444 
Q 1847 2744 1503 2744 
z
" id="TimesNewRomanPSMT-6f" transform="scale(0.015625)"/>
       <path d="M 1184 4444 
L 1184 647 
Q 1184 378 1223 290 
Q 1263 203 1344 158 
Q 1425 113 1647 113 
L 1647 0 
L 244 0 
L 244 113 
Q 441 113 512 153 
Q 584 194 625 287 
Q 666 381 666 647 
L 666 3247 
Q 666 3731 644 3842 
Q 622 3953 573 3993 
Q 525 4034 450 4034 
Q 369 4034 244 3984 
L 191 4094 
L 1044 4444 
L 1184 4444 
z
" id="TimesNewRomanPSMT-6c" transform="scale(0.015625)"/>
       <path d="M 1822 413 
Q 1381 72 1269 19 
Q 1100 -59 909 -59 
Q 613 -59 420 144 
Q 228 347 228 678 
Q 228 888 322 1041 
Q 450 1253 767 1440 
Q 1084 1628 1822 1897 
L 1822 2009 
Q 1822 2438 1686 2597 
Q 1550 2756 1291 2756 
Q 1094 2756 978 2650 
Q 859 2544 859 2406 
L 866 2225 
Q 866 2081 792 2003 
Q 719 1925 600 1925 
Q 484 1925 411 2006 
Q 338 2088 338 2228 
Q 338 2497 613 2722 
Q 888 2947 1384 2947 
Q 1766 2947 2009 2819 
Q 2194 2722 2281 2516 
Q 2338 2381 2338 1966 
L 2338 994 
Q 2338 584 2353 492 
Q 2369 400 2405 369 
Q 2441 338 2488 338 
Q 2538 338 2575 359 
Q 2641 400 2828 588 
L 2828 413 
Q 2478 -56 2159 -56 
Q 2006 -56 1915 50 
Q 1825 156 1822 413 
z
M 1822 616 
L 1822 1706 
Q 1350 1519 1213 1441 
Q 966 1303 859 1153 
Q 753 1003 753 825 
Q 753 600 887 451 
Q 1022 303 1197 303 
Q 1434 303 1822 616 
z
" id="TimesNewRomanPSMT-61" transform="scale(0.015625)"/>
       <path d="M 1031 3803 
L 1031 2863 
L 1700 2863 
L 1700 2644 
L 1031 2644 
L 1031 788 
Q 1031 509 1111 412 
Q 1191 316 1316 316 
Q 1419 316 1516 380 
Q 1613 444 1666 569 
L 1788 569 
Q 1678 263 1478 108 
Q 1278 -47 1066 -47 
Q 922 -47 784 33 
Q 647 113 581 261 
Q 516 409 516 719 
L 516 2644 
L 63 2644 
L 63 2747 
Q 234 2816 414 2980 
Q 594 3144 734 3369 
Q 806 3488 934 3803 
L 1031 3803 
z
" id="TimesNewRomanPSMT-74" transform="scale(0.015625)"/>
       <path d="M 966 1044 
Q 703 1172 562 1401 
Q 422 1631 422 1909 
Q 422 2334 742 2640 
Q 1063 2947 1563 2947 
Q 1972 2947 2272 2747 
L 2878 2747 
Q 3013 2747 3034 2739 
Q 3056 2731 3066 2713 
Q 3084 2684 3084 2613 
Q 3084 2531 3069 2500 
Q 3059 2484 3036 2475 
Q 3013 2466 2878 2466 
L 2506 2466 
Q 2681 2241 2681 1891 
Q 2681 1491 2375 1206 
Q 2069 922 1553 922 
Q 1341 922 1119 984 
Q 981 866 932 777 
Q 884 688 884 625 
Q 884 572 936 522 
Q 988 472 1138 450 
Q 1225 438 1575 428 
Q 2219 413 2409 384 
Q 2700 344 2873 169 
Q 3047 -6 3047 -263 
Q 3047 -616 2716 -925 
Q 2228 -1381 1444 -1381 
Q 841 -1381 425 -1109 
Q 191 -953 191 -784 
Q 191 -709 225 -634 
Q 278 -519 444 -313 
Q 466 -284 763 25 
Q 600 122 533 198 
Q 466 275 466 372 
Q 466 481 555 628 
Q 644 775 966 1044 
z
M 1509 2797 
Q 1278 2797 1122 2612 
Q 966 2428 966 2047 
Q 966 1553 1178 1281 
Q 1341 1075 1591 1075 
Q 1828 1075 1981 1253 
Q 2134 1431 2134 1813 
Q 2134 2309 1919 2591 
Q 1759 2797 1509 2797 
z
M 934 0 
Q 788 -159 713 -296 
Q 638 -434 638 -550 
Q 638 -700 819 -813 
Q 1131 -1006 1722 -1006 
Q 2284 -1006 2551 -807 
Q 2819 -609 2819 -384 
Q 2819 -222 2659 -153 
Q 2497 -84 2016 -72 
Q 1313 -53 934 0 
z
" id="TimesNewRomanPSMT-67" transform="scale(0.015625)"/>
      </defs>
      <use xlink:href="#TimesNewRomanPSMT-56"/>
      <use x="59.341797" xlink:href="#TimesNewRomanPSMT-6f"/>
      <use x="109.341797" xlink:href="#TimesNewRomanPSMT-6c"/>
      <use x="137.125" xlink:href="#TimesNewRomanPSMT-61"/>
      <use x="181.509766" xlink:href="#TimesNewRomanPSMT-74"/>
      <use x="209.292969" xlink:href="#TimesNewRomanPSMT-61"/>
      <use x="253.677734" xlink:href="#TimesNewRomanPSMT-67"/>
      <use x="303.677734" xlink:href="#TimesNewRomanPSMT-65"/>
      <use x="348.0625" xlink:href="#TimesNewRomanPSMT-20"/>
      <use x="373.0625" xlink:href="#TimesNewRomanPSMT-28"/>
      <use x="406.363281" xlink:href="#TimesNewRomanPSMT-56"/>
      <use x="478.580078" xlink:href="#TimesNewRomanPSMT-29"/>
     </g>
    </g>
   </g>
   <g id="LineCollection_1">
    <path clip-path="url(#pfe3bea4ecb)" d="M 78.555057 159.672728 
L 382.918693 159.672728 
" style="fill:none;stroke:#1f77b4;stroke-width:1.5;"/>
   </g>
   <g id="line2d_27">
    <path clip-path="url(#pfe3bea4ecb)" d="M 78.555057 159.68712 
L 78.737675 159.656368 
L 88.812111 159.748626 
L 88.964293 159.748626 
L 109.934948 159.810131 
L 109.99582 159.779378 
L 110.056693 159.840883 
L 112.43073 159.933141 
L 112.582911 159.933141 
L 113.617748 160.025398 
L 113.800366 160.056151 
L 114.530839 160.148408 
L 114.713457 160.179161 
L 114.865639 160.179161 
L 115.413493 160.271418 
L 115.596111 160.332923 
L 115.717857 160.302171 
L 115.991784 160.363676 
L 116.143966 160.425181 
L 116.935311 160.517439 
L 117.11793 160.609696 
L 117.148366 160.578944 
L 117.604911 160.671201 
L 117.78753 160.701954 
L 117.878839 160.671201 
L 117.909275 160.701954 
L 118.12233 160.763459 
L 118.639748 160.855716 
L 118.79193 160.917221 
L 118.822366 160.886469 
L 118.944111 160.855716 
L 118.974548 160.886469 
L 119.096293 160.917221 
L 119.583275 160.978726 
L 119.613711 161.040231 
L 119.70502 160.978726 
L 119.887639 161.070984 
L 119.918075 161.040231 
L 120.070257 161.040231 
L 121.074657 161.070984 
L 121.105093 161.163242 
L 121.196402 161.132489 
L 121.866002 161.224747 
L 122.109493 161.317004 
L 122.535602 161.409262 
L 122.779093 161.501519 
L 123.022584 161.593777 
L 123.14433 161.624529 
L 123.326948 161.716787 
L 123.600875 161.839797 
L 123.783493 161.932055 
L 124.209602 162.208827 
L 124.361784 162.270332 
L 124.544402 162.424095 
L 124.72702 162.516353 
L 124.970511 162.762373 
L 125.092257 162.85463 
L 126.005348 163.930968 
L 126.674948 165.068812 
L 126.705384 165.038059 
L 126.73582 165.16107 
L 127.801093 167.529013 
L 128.014148 168.082559 
L 128.40982 169.128145 
L 128.896802 170.635019 
L 130.144693 174.755857 
L 132.062184 182.074957 
L 132.244802 182.690006 
L 134.679711 189.732334 
L 136.20153 192.592319 
L 136.292839 192.653824 
L 136.44502 192.746081 
L 136.718948 192.807586 
L 136.87113 192.899844 
L 137.053748 192.838339 
L 137.11462 192.869091 
L 137.175493 192.807586 
L 137.327675 192.715329 
L 138.636439 191.26996 
L 139.12342 190.101364 
L 139.21473 189.916849 
L 139.671275 188.502233 
L 139.823457 187.97944 
L 140.79742 183.581831 
L 142.623602 171.834367 
L 144.845457 153.044576 
L 146.093348 140.343784 
L 146.458584 136.561224 
L 151.93713 76.870575 
L 153.702439 61.832599 
L 155.376439 52.33007 
L 156.076475 49.931369 
L 157.050439 48.209225 
L 157.233057 48.116972 
L 157.385239 48.055465 
L 157.750475 48.14773 
L 158.115711 48.639768 
L 158.480948 49.685353 
L 158.694002 50.300406 
L 160.337566 59.126378 
L 161.55502 69.797505 
L 163.076839 87.941488 
L 165.176948 121.369481 
L 167.520548 165.991387 
L 170.107639 218.547449 
L 172.93822 270.857483 
L 174.642657 295.121225 
L 175.342693 303.301398 
L 176.316657 312.896183 
L 177.473239 321.383884 
L 178.447202 325.781492 
L 178.842875 326.642557 
L 178.96462 326.734812 
L 179.63422 327.288358 
L 180.273384 326.488787 
L 180.942984 324.889666 
L 181.612584 321.752902 
L 182.677857 314.679822 
L 183.895311 302.686346 
L 186.75633 263.661391 
L 191.382657 177.554335 
L 193.69582 132.993932 
L 195.70462 100.365506 
L 197.439493 75.732737 
L 198.13953 67.860094 
L 198.596075 63.308718 
L 199.47873 55.497573 
L 201.365784 42.919794 
L 201.791893 40.982385 
L 203.222402 36.953805 
L 203.892002 36.123487 
L 204.196366 35.754459 
L 204.774657 35.846714 
L 204.957275 36.000474 
L 205.07902 36.061982 
L 205.352948 36.369512 
L 205.474693 36.461767 
L 206.387784 38.552936 
L 207.574802 42.489261 
L 209.644475 53.467909 
L 211.53153 66.045688 
L 212.475057 72.442219 
L 214.20993 85.481286 
L 215.001275 91.66254 
L 217.710111 112.666515 
L 220.845057 134.07027 
L 222.701675 144.67989 
L 223.127784 146.863319 
L 223.949566 151.168672 
L 224.314802 152.614041 
L 227.60193 166.360417 
L 228.27153 169.18965 
L 228.971566 172.480169 
L 229.458548 174.755857 
L 230.036839 177.554335 
L 231.649966 186.226547 
L 234.389239 206.338696 
L 236.184984 221.653451 
L 239.472111 247.331804 
L 240.385202 253.082528 
L 240.720002 254.866177 
L 241.267857 257.510894 
L 242.180948 260.739904 
L 242.728802 262.093017 
L 242.941857 262.462045 
L 243.854948 264.061176 
L 243.976693 264.153441 
L 244.311493 264.337949 
L 244.950657 264.245694 
L 245.68113 262.523552 
L 246.898584 257.141866 
L 247.446439 253.851341 
L 248.876948 242.964946 
L 250.672693 225.651277 
L 253.838075 189.240294 
L 256.668657 156.242838 
L 258.31222 140.682063 
L 258.586148 138.344871 
L 259.712293 129.611154 
L 260.442766 124.598493 
L 262.512439 114.665427 
L 263.638584 111.590177 
L 264.734293 109.622015 
L 266.01262 108.484172 
L 266.712657 108.391917 
L 266.834402 108.391917 
L 267.077893 108.484172 
L 267.169202 108.484172 
L 267.321384 108.607182 
L 268.78233 110.206313 
L 269.02582 110.606094 
L 269.238875 110.975126 
L 270.060657 112.420497 
L 270.12153 112.51275 
L 270.730257 113.958121 
L 271.095493 114.972954 
L 272.191202 118.632507 
L 273.165166 122.107539 
L 276.72622 132.594149 
L 276.847966 132.840169 
L 277.548002 134.623815 
L 277.974111 135.730906 
L 278.49153 136.961007 
L 278.613275 137.23778 
L 279.008948 138.098851 
L 279.222002 138.467881 
L 279.526366 139.08293 
L 279.73942 139.451962 
L 280.530766 140.805073 
L 280.804693 141.204856 
L 281.109057 141.789153 
L 282.204766 143.757315 
L 282.387384 144.095593 
L 282.600439 144.526127 
L 283.239602 145.571713 
L 283.51353 146.002248 
L 284.09182 146.924824 
L 284.670111 147.662885 
L 285.065784 148.21643 
L 286.10062 149.108254 
L 286.313675 149.20051 
L 286.557166 149.292768 
L 287.500693 149.20051 
L 287.652875 149.108254 
L 287.835493 149.046748 
L 288.018111 148.923738 
L 289.53993 147.232349 
L 292.12702 141.7584 
L 297.666439 125.305801 
L 297.788184 125.029029 
L 298.57953 123.675918 
L 298.640402 123.614413 
L 298.883893 123.368393 
L 298.975202 123.276135 
L 299.24913 122.937857 
L 299.431748 122.8456 
L 299.644802 122.784095 
L 299.949166 122.937857 
L 300.131784 123.030115 
L 300.375275 123.122372 
L 300.557893 123.21463 
L 300.984002 123.737423 
L 301.16662 124.167958 
L 301.288366 124.444731 
L 301.988402 126.105367 
L 303.388475 132.194366 
L 304.971166 142.434956 
L 307.040839 160.056151 
L 307.86262 167.990301 
L 308.714839 176.75477 
L 311.758475 209.383193 
L 312.30633 214.703381 
L 313.55422 226.204822 
L 315.836948 241.581083 
L 316.719602 245.517408 
L 316.90222 246.132458 
L 317.937057 248.961693 
L 318.089239 249.053948 
L 318.33273 249.361468 
L 318.424039 249.361468 
L 318.454475 249.392228 
L 318.697966 249.545988 
L 318.728402 249.515238 
L 318.880584 249.515238 
L 319.063202 249.422976 
L 319.519748 248.807923 
L 320.58502 246.439981 
L 322.532948 238.106048 
L 322.92862 235.768859 
L 323.293857 233.400915 
L 324.754802 222.330009 
L 325.94182 212.550705 
L 327.554948 198.619813 
L 332.424766 155.351015 
L 335.74233 129.426639 
L 338.633784 112.574258 
L 342.34702 97.997562 
L 342.590511 97.259504 
L 343.10793 95.629621 
L 343.35142 94.953063 
L 343.625348 94.122745 
L 343.929711 93.261672 
L 344.599311 91.539533 
L 344.69062 91.355015 
L 344.994984 90.586202 
L 345.45153 89.540619 
L 346.182002 88.310518 
L 346.942911 87.664715 
L 346.973348 87.695468 
L 347.03422 87.633963 
L 347.247275 87.572455 
L 348.221239 87.664715 
L 348.495166 87.81848 
L 348.647348 87.81848 
L 349.925675 89.233091 
L 350.169166 89.632876 
L 351.082257 91.724048 
L 352.269275 94.983815 
L 352.360584 95.229835 
L 352.756257 96.398431 
L 352.969311 97.044232 
L 353.273675 98.05907 
L 354.034584 100.703784 
L 356.043384 109.252983 
L 356.439057 111.282652 
L 358.204366 120.754428 
L 359.695748 129.119114 
L 360.334911 132.901674 
L 361.887166 141.666143 
L 362.221966 143.480542 
L 363.652475 151.230177 
L 364.10902 153.690379 
L 365.78302 162.700868 
L 366.848293 168.482342 
L 368.400548 176.847028 
L 368.826657 179.091962 
L 369.80062 184.31989 
L 373.300802 202.556138 
L 374.305202 207.968582 
L 377.561893 223.867633 
L 379.753311 232.263071 
L 380.51422 234.292735 
L 380.575093 234.384995 
L 381.488184 235.984126 
L 382.249093 236.599177 
L 382.918693 236.506917 
L 382.918693 236.506917 
" style="fill:none;stroke:#0000ff;stroke-linecap:square;stroke-width:1.5;"/>
   </g>
   <g id="line2d_28">
    <path clip-path="url(#pfe3bea4ecb)" d="M 78.555057 159.722793 
L 89.146911 159.61516 
L 89.420839 159.599783 
L 100.743166 159.707417 
L 101.351893 159.891932 
L 101.504075 159.938061 
L 102.569348 160.583864 
L 102.904148 160.906766 
L 103.117202 161.106657 
L 103.452002 161.537192 
L 104.608584 163.474601 
L 106.586948 168.764035 
L 107.926148 173.177022 
L 110.269748 181.065043 
L 111.456766 184.309434 
L 112.978584 187.154043 
L 113.830802 187.876727 
L 113.982984 187.922856 
L 114.196039 188.015113 
L 114.34822 188.015113 
L 115.139566 187.507697 
L 115.383057 187.261676 
L 115.870039 186.615873 
L 116.570075 184.955237 
L 117.300548 182.864067 
L 118.12233 179.635052 
L 118.70062 177.190225 
L 119.309348 174.268736 
L 120.739857 166.488348 
L 122.231239 156.81668 
L 123.083457 150.804562 
L 126.279275 128.985648 
L 127.374984 122.881273 
L 128.348948 117.653344 
L 130.053384 110.395751 
L 130.570802 108.796615 
L 131.270839 107.012972 
L 131.910002 105.475348 
L 133.036148 102.922886 
L 134.43622 101.000854 
L 135.258002 100.01677 
L 135.592802 99.693871 
L 137.297239 98.955811 
L 137.571166 99.078819 
L 138.392948 99.601611 
L 139.001675 101.077735 
L 140.432184 105.767494 
L 142.014875 112.609928 
L 142.958402 117.914738 
L 144.328039 127.617161 
L 147.645602 155.309807 
L 149.50222 173.207774 
L 151.054475 188.507154 
L 154.067675 214.923567 
L 155.52862 224.47223 
L 156.19822 227.855005 
L 157.111311 231.514557 
L 157.841784 233.697986 
L 158.480948 234.758946 
L 158.785311 235.035719 
L 159.089675 235.312491 
L 159.820148 235.558511 
L 160.033202 235.450878 
L 160.459311 235.112597 
L 161.494148 233.344327 
L 162.833348 228.946722 
L 163.776875 224.180079 
L 165.450875 212.447992 
L 166.33353 204.959753 
L 167.67273 192.520358 
L 169.651093 174.576262 
L 171.26422 160.891389 
L 174.003493 142.270737 
L 175.494875 135.274538 
L 176.651457 132.107029 
L 177.199311 131.476602 
L 177.442802 131.230582 
L 177.747166 131.07682 
L 177.899348 131.107572 
L 178.142839 131.32284 
L 178.599384 132.014772 
L 178.96462 132.537564 
L 179.695093 133.844547 
L 180.516875 135.628194 
L 180.790802 136.243243 
L 181.06473 137.012055 
L 182.73873 144.223522 
L 187.608548 168.256618 
L 188.521639 171.885416 
L 189.160802 174.284112 
L 189.799966 176.436788 
L 190.713057 178.45108 
L 191.382657 179.26602 
L 193.11753 180.865151 
L 193.391457 180.911281 
L 193.604511 180.849777 
L 194.669784 180.188596 
L 195.065457 179.635052 
L 195.582875 179.035377 
L 195.735057 178.927744 
L 196.13073 178.40495 
L 197.013384 176.467541 
L 197.530802 175.191312 
L 198.291711 172.546595 
L 199.356984 167.779954 
L 200.48313 160.922142 
L 203.800693 136.689155 
L 205.322511 124.557285 
L 206.326911 118.237644 
L 207.879166 108.765868 
L 209.157493 101.677409 
L 210.405384 95.942064 
L 211.470657 92.574663 
L 211.896766 91.775097 
L 212.414184 91.113918 
L 212.718548 90.729514 
L 212.992475 90.468115 
L 213.266402 90.345107 
L 214.575166 90.43736 
L 215.12302 91.144673 
L 215.88393 92.482405 
L 216.583966 94.542827 
L 217.162257 96.41873 
L 217.80142 98.709793 
L 219.718911 106.920712 
L 223.706075 125.525989 
L 224.314802 128.555113 
L 227.997602 146.591466 
L 228.84982 150.497037 
L 229.975966 155.617332 
L 230.52382 157.954523 
L 232.471748 167.318666 
L 238.072039 200.592892 
L 239.350366 205.913083 
L 239.746039 207.204687 
L 240.476511 209.388116 
L 242.120075 213.262936 
L 244.67673 216.937857 
L 245.102839 217.522155 
L 245.437639 217.952695 
L 245.802875 218.244842 
L 246.076802 218.475486 
L 247.385566 219.029031 
L 247.568184 219.059786 
L 247.93342 219.121286 
L 248.846511 219.029031 
L 249.120439 218.906021 
L 250.490075 218.321721 
L 250.642257 218.306347 
L 250.824875 218.275594 
L 252.346693 218.183334 
L 252.498875 218.167961 
L 253.04673 218.060327 
L 253.411966 217.983448 
L 253.655457 217.983448 
L 254.081566 218.091082 
L 254.38593 218.244842 
L 254.690293 218.352476 
L 256.851275 219.5672 
L 258.525275 221.104829 
L 259.864475 221.658374 
L 260.41233 221.566114 
L 261.781966 220.043864 
L 262.877675 217.014743 
L 264.247311 211.017999 
L 265.495202 203.468255 
L 266.499602 195.042064 
L 267.625748 183.786642 
L 269.208439 165.012227 
L 271.521602 133.183367 
L 273.226039 107.535764 
L 274.747857 84.73277 
L 276.178366 65.40481 
L 277.608875 48.721567 
L 278.582839 39.557318 
L 279.313311 34.237127 
L 280.16553 29.332102 
L 280.804693 26.918032 
L 281.656911 25.042128 
L 281.900402 24.888358 
L 281.930839 24.919115 
L 282.17433 24.919115 
L 282.691748 25.288143 
L 283.117857 26.13384 
L 283.84833 28.670923 
L 284.730984 33.191544 
L 285.948439 41.909881 
L 287.287639 54.349278 
L 288.626839 69.725542 
L 292.066148 114.547339 
L 294.105384 140.871498 
L 298.366475 187.015656 
L 299.675239 199.116773 
L 302.110148 217.906562 
L 303.084111 224.072445 
L 304.392875 229.515641 
L 305.61033 232.298744 
L 306.85822 233.990133 
L 307.253893 234.236153 
L 307.680002 234.328411 
L 308.380039 234.236153 
L 310.358402 232.09885 
L 311.788911 228.992848 
L 313.402039 222.903846 
L 315.623893 209.941661 
L 317.937057 194.042607 
L 318.850148 187.538449 
L 322.228584 164.412553 
L 323.446039 157.693127 
L 326.520111 144.208147 
L 327.250584 142.070846 
L 327.859311 140.563972 
L 329.259384 137.965383 
L 330.38553 136.981304 
L 330.62902 136.873669 
L 330.872511 136.781412 
L 332.242148 136.873669 
L 332.455202 137.012055 
L 332.63782 137.088938 
L 332.881311 137.258077 
L 333.06393 137.365711 
L 334.037893 137.965383 
L 334.342257 138.242156 
L 334.677057 138.534306 
L 335.955384 139.67215 
L 336.777166 139.964299 
L 337.051093 139.948923 
L 337.568511 139.841289 
L 337.872875 139.67215 
L 338.055493 139.579891 
L 338.512039 139.272367 
L 338.938148 138.934088 
L 340.368657 137.334958 
L 342.407893 134.044438 
L 343.199239 132.322297 
L 343.534039 131.630365 
L 344.02102 130.692413 
L 344.69062 129.569946 
L 346.090693 128.309093 
L 347.095093 127.678666 
L 347.46033 127.463398 
L 348.342984 127.140497 
L 349.012584 127.232754 
L 349.256075 127.325012 
L 349.682184 127.66329 
L 350.169166 128.201459 
L 350.351784 128.40135 
L 351.538802 130.400264 
L 352.14753 131.891761 
L 352.938875 134.182824 
L 355.191166 142.54751 
L 355.860766 145.71502 
L 357.017348 151.004453 
L 358.052184 155.648084 
L 359.391384 161.860094 
L 360.639275 166.457596 
L 361.09582 167.902964 
L 362.495893 172.454337 
L 363.135057 174.360994 
L 363.926402 176.406037 
L 364.230766 177.067216 
L 364.961239 178.620218 
L 365.44822 179.542793 
L 365.78302 180.096339 
L 366.574366 181.126549 
L 366.726548 181.234183 
L 367.183093 181.357193 
L 367.396148 181.372569 
L 367.578766 181.418697 
L 367.79182 181.434073 
L 368.400548 181.341816 
L 368.583166 181.249559 
L 369.252766 180.803647 
L 369.922366 179.619676 
L 370.622402 177.851404 
L 371.292002 175.867867 
L 371.931166 174.007339 
L 372.844257 171.408752 
L 373.422548 169.502096 
L 373.757348 168.364252 
L 376.58793 157.954523 
L 378.657602 149.143927 
L 379.26633 146.606843 
L 380.088111 143.300947 
L 381.062075 139.364624 
L 382.918693 132.599069 
L 382.918693 132.599069 
" style="fill:none;stroke:#ff0000;stroke-linecap:square;stroke-width:1.5;"/>
   </g>
   <g id="line2d_29">
    <path clip-path="url(#pfe3bea4ecb)" d="M 128.014148 168.082559 
" style="fill:none;stroke:#ffffff;stroke-linecap:square;stroke-width:1.5;"/>
    <defs>
     <path d="M 0 -5 
L -1.12257 -1.545085 
L -4.755283 -1.545085 
L -1.816356 0.59017 
L -2.938926 4.045085 
L -0 1.90983 
L 2.938926 4.045085 
L 1.816356 0.59017 
L 4.755283 -1.545085 
L 1.12257 -1.545085 
z
" id="m202edd697f" style="stroke:#ffffff;stroke-linejoin:bevel;"/>
    </defs>
    <g clip-path="url(#pfe3bea4ecb)">
     <use style="fill:#0000ff;stroke:#ffffff;stroke-linejoin:bevel;" x="128.014148" xlink:href="#m202edd697f" y="168.082559"/>
    </g>
   </g>
   <g id="line2d_30">
    <path clip-path="url(#pfe3bea4ecb)" d="M 105.826039 166.488348 
" style="fill:none;stroke:#ffffff;stroke-linecap:square;stroke-width:1.5;"/>
    <defs>
     <path d="M 0 -5 
L -1.12257 -1.545085 
L -4.755283 -1.545085 
L -1.816356 0.59017 
L -2.938926 4.045085 
L -0 1.90983 
L 2.938926 4.045085 
L 1.816356 0.59017 
L 4.755283 -1.545085 
L 1.12257 -1.545085 
z
" id="md26a20dce4" style="stroke:#ffffff;stroke-linejoin:bevel;"/>
    </defs>
    <g clip-path="url(#pfe3bea4ecb)">
     <use style="fill:#ff0000;stroke:#ffffff;stroke-linejoin:bevel;" x="105.826039" xlink:href="#md26a20dce4" y="166.488348"/>
    </g>
   </g>
   <g id="patch_3">
    <path d="M 63.336875 342.408358 
L 63.336875 9.768358 
" style="fill:none;stroke:#000000;stroke-linecap:square;stroke-linejoin:miter;stroke-width:0.8;"/>
   </g>
   <g id="patch_4">
    <path d="M 398.136875 342.408358 
L 398.136875 9.768358 
" style="fill:none;stroke:#000000;stroke-linecap:square;stroke-linejoin:miter;stroke-width:0.8;"/>
   </g>
   <g id="patch_5">
    <path d="M 63.336875 342.408358 
L 398.136875 342.408358 
" style="fill:none;stroke:#000000;stroke-linecap:square;stroke-linejoin:miter;stroke-width:0.8;"/>
   </g>
   <g id="patch_6">
    <path d="M 63.336875 9.768358 
L 398.136875 9.768358 
" style="fill:none;stroke:#000000;stroke-linecap:square;stroke-linejoin:miter;stroke-width:0.8;"/>
   </g>
   <g id="text_16">
    <g id="patch_7">
     <path d="M 75.036875 333.811045 
L 166.79375 333.811045 
L 166.79375 296.32867 
L 75.036875 296.32867 
z
" style="fill:#ffffff;stroke:#000000;stroke-linejoin:miter;stroke-width:0.75;"/>
    </g>
    <!-- Auto_00055 -->
    <g transform="translate(80.076875 311.08992)scale(0.14 -0.14)">
     <defs>
      <path d="M 2928 1419 
L 1288 1419 
L 1000 750 
Q 894 503 894 381 
Q 894 284 986 211 
Q 1078 138 1384 116 
L 1384 0 
L 50 0 
L 50 116 
Q 316 163 394 238 
Q 553 388 747 847 
L 2238 4334 
L 2347 4334 
L 3822 809 
Q 4000 384 4145 257 
Q 4291 131 4550 116 
L 4550 0 
L 2878 0 
L 2878 116 
Q 3131 128 3220 200 
Q 3309 272 3309 375 
Q 3309 513 3184 809 
L 2928 1419 
z
M 2841 1650 
L 2122 3363 
L 1384 1650 
L 2841 1650 
z
" id="TimesNewRomanPSMT-41" transform="scale(0.015625)"/>
      <path d="M 2709 2863 
L 2709 1128 
Q 2709 631 2732 520 
Q 2756 409 2807 365 
Q 2859 322 2928 322 
Q 3025 322 3147 375 
L 3191 266 
L 2334 -88 
L 2194 -88 
L 2194 519 
Q 1825 119 1631 15 
Q 1438 -88 1222 -88 
Q 981 -88 804 51 
Q 628 191 559 409 
Q 491 628 491 1028 
L 491 2306 
Q 491 2509 447 2587 
Q 403 2666 317 2708 
Q 231 2750 6 2747 
L 6 2863 
L 1009 2863 
L 1009 947 
Q 1009 547 1148 422 
Q 1288 297 1484 297 
Q 1619 297 1789 381 
Q 1959 466 2194 703 
L 2194 2325 
Q 2194 2569 2105 2655 
Q 2016 2741 1734 2747 
L 1734 2863 
L 2709 2863 
z
" id="TimesNewRomanPSMT-75" transform="scale(0.015625)"/>
      <path d="M 3256 -1381 
L -53 -1381 
L -53 -1119 
L 3256 -1119 
L 3256 -1381 
z
" id="TimesNewRomanPSMT-5f" transform="scale(0.015625)"/>
     </defs>
     <use xlink:href="#TimesNewRomanPSMT-41"/>
     <use x="72.216797" xlink:href="#TimesNewRomanPSMT-75"/>
     <use x="122.216797" xlink:href="#TimesNewRomanPSMT-74"/>
     <use x="150" xlink:href="#TimesNewRomanPSMT-6f"/>
     <use x="200" xlink:href="#TimesNewRomanPSMT-5f"/>
     <use x="250" xlink:href="#TimesNewRomanPSMT-30"/>
     <use x="300" xlink:href="#TimesNewRomanPSMT-30"/>
     <use x="350" xlink:href="#TimesNewRomanPSMT-30"/>
     <use x="400" xlink:href="#TimesNewRomanPSMT-35"/>
     <use x="450" xlink:href="#TimesNewRomanPSMT-35"/>
    </g>
    <!-- Vs: 274.21m/s -->
    <g transform="translate(80.076875 325.776358)scale(0.14 -0.14)">
     <defs>
      <path d="M 903 2950 
Q 1047 2950 1148 2848 
Q 1250 2747 1250 2603 
Q 1250 2459 1148 2357 
Q 1047 2256 903 2256 
Q 759 2256 657 2357 
Q 556 2459 556 2603 
Q 556 2747 657 2848 
Q 759 2950 903 2950 
z
M 897 609 
Q 1044 609 1145 506 
Q 1247 403 1247 259 
Q 1247 116 1144 14 
Q 1041 -88 897 -88 
Q 753 -88 651 14 
Q 550 116 550 259 
Q 550 403 651 506 
Q 753 609 897 609 
z
" id="TimesNewRomanPSMT-3a" transform="scale(0.015625)"/>
      <path d="M 644 4238 
L 2916 4238 
L 2916 4119 
L 1503 -88 
L 1153 -88 
L 2419 3728 
L 1253 3728 
Q 900 3728 750 3644 
Q 488 3500 328 3200 
L 238 3234 
L 644 4238 
z
" id="TimesNewRomanPSMT-37" transform="scale(0.015625)"/>
      <path d="M 1794 4444 
L 259 -88 
L 9 -88 
L 1544 4444 
L 1794 4444 
z
" id="TimesNewRomanPSMT-2f" transform="scale(0.015625)"/>
     </defs>
     <use xlink:href="#TimesNewRomanPSMT-56"/>
     <use x="72.216797" xlink:href="#TimesNewRomanPSMT-73"/>
     <use x="111.132812" xlink:href="#TimesNewRomanPSMT-3a"/>
     <use x="138.916016" xlink:href="#TimesNewRomanPSMT-20"/>
     <use x="163.916016" xlink:href="#TimesNewRomanPSMT-32"/>
     <use x="213.916016" xlink:href="#TimesNewRomanPSMT-37"/>
     <use x="263.916016" xlink:href="#TimesNewRomanPSMT-34"/>
     <use x="313.916016" xlink:href="#TimesNewRomanPSMT-2e"/>
     <use x="338.916016" xlink:href="#TimesNewRomanPSMT-32"/>
     <use x="388.916016" xlink:href="#TimesNewRomanPSMT-31"/>
     <use x="438.916016" xlink:href="#TimesNewRomanPSMT-6d"/>
     <use x="516.699219" xlink:href="#TimesNewRomanPSMT-2f"/>
     <use x="544.482422" xlink:href="#TimesNewRomanPSMT-73"/>
    </g>
   </g>
  </g>
 </g>
 <defs>
  <clipPath id="pfe3bea4ecb">
   <rect height="332.64" width="334.8" x="63.336875" y="9.768358"/>
  </clipPath>
 </defs>
</svg>
