<?xml version="1.0" encoding="utf-8" standalone="no"?>
<!DOCTYPE svg PUBLIC "-//W3C//DTD SVG 1.1//EN"
  "http://www.w3.org/Graphics/SVG/1.1/DTD/svg11.dtd">
<svg height="383.471875pt" version="1.1" viewBox="0 0 421.086875 383.471875" width="421.086875pt" xmlns="http://www.w3.org/2000/svg" xmlns:xlink="http://www.w3.org/1999/xlink">
 <metadata>
  <rdf:RDF xmlns:cc="http://creativecommons.org/ns#" xmlns:dc="http://purl.org/dc/elements/1.1/" xmlns:rdf="http://www.w3.org/1999/02/22-rdf-syntax-ns#">
   <cc:Work>
    <dc:type rdf:resource="http://purl.org/dc/dcmitype/StillImage"/>
    <dc:date>2021-06-11T14:39:38.745544</dc:date>
    <dc:format>image/svg+xml</dc:format>
    <dc:creator>
     <cc:Agent>
      <dc:title>Matplotlib v3.4.2, https://matplotlib.org/</dc:title>
     </cc:Agent>
    </dc:creator>
   </cc:Work>
  </rdf:RDF>
 </metadata>
 <defs>
  <style type="text/css">*{stroke-linecap:butt;stroke-linejoin:round;}</style>
 </defs>
 <g id="figure_1">
  <g id="patch_1">
   <path d="M 0 383.471875 
L 421.086875 383.471875 
L 421.086875 0 
L 0 0 
z
" style="fill:#ffffff;"/>
  </g>
  <g id="axes_1">
   <g id="patch_2">
    <path d="M 63.336875 339.84 
L 398.136875 339.84 
L 398.136875 7.2 
L 63.336875 7.2 
z
" style="fill:#ffffff;"/>
   </g>
   <g id="matplotlib.axis_1">
    <g id="xtick_1">
     <g id="line2d_1">
      <path clip-path="url(#p3068bafec2)" d="M 93.773239 339.84 
L 93.773239 7.2 
" style="fill:none;stroke:#000000;stroke-dasharray:0.5,0.825;stroke-dashoffset:0;stroke-width:0.5;"/>
     </g>
     <g id="line2d_2">
      <defs>
       <path d="M 0 0 
L 0 3.5 
" id="mb8f459aca0" style="stroke:#000000;stroke-width:0.8;"/>
      </defs>
      <g>
       <use style="stroke:#000000;stroke-width:0.8;" x="93.773239" xlink:href="#mb8f459aca0" y="339.84"/>
      </g>
     </g>
     <g id="text_1">
      <!-- 0.000 -->
      <g transform="translate(78.023239 356.56125)scale(0.14 -0.14)">
       <defs>
        <path d="M 231 2094 
Q 231 2819 450 3342 
Q 669 3866 1031 4122 
Q 1313 4325 1613 4325 
Q 2100 4325 2488 3828 
Q 2972 3213 2972 2159 
Q 2972 1422 2759 906 
Q 2547 391 2217 158 
Q 1888 -75 1581 -75 
Q 975 -75 572 641 
Q 231 1244 231 2094 
z
M 844 2016 
Q 844 1141 1059 588 
Q 1238 122 1591 122 
Q 1759 122 1940 273 
Q 2122 425 2216 781 
Q 2359 1319 2359 2297 
Q 2359 3022 2209 3506 
Q 2097 3866 1919 4016 
Q 1791 4119 1609 4119 
Q 1397 4119 1231 3928 
Q 1006 3669 925 3112 
Q 844 2556 844 2016 
z
" id="TimesNewRomanPSMT-30" transform="scale(0.015625)"/>
        <path d="M 800 606 
Q 947 606 1047 504 
Q 1147 403 1147 259 
Q 1147 116 1045 14 
Q 944 -88 800 -88 
Q 656 -88 554 14 
Q 453 116 453 259 
Q 453 406 554 506 
Q 656 606 800 606 
z
" id="TimesNewRomanPSMT-2e" transform="scale(0.015625)"/>
       </defs>
       <use xlink:href="#TimesNewRomanPSMT-30"/>
       <use x="50" xlink:href="#TimesNewRomanPSMT-2e"/>
       <use x="75" xlink:href="#TimesNewRomanPSMT-30"/>
       <use x="125" xlink:href="#TimesNewRomanPSMT-30"/>
       <use x="175" xlink:href="#TimesNewRomanPSMT-30"/>
      </g>
     </g>
    </g>
    <g id="xtick_2">
     <g id="line2d_3">
      <path clip-path="url(#p3068bafec2)" d="M 154.645966 339.84 
L 154.645966 7.2 
" style="fill:none;stroke:#000000;stroke-dasharray:0.5,0.825;stroke-dashoffset:0;stroke-width:0.5;"/>
     </g>
     <g id="line2d_4">
      <g>
       <use style="stroke:#000000;stroke-width:0.8;" x="154.645966" xlink:href="#mb8f459aca0" y="339.84"/>
      </g>
     </g>
     <g id="text_2">
      <!-- 0.001 -->
      <g transform="translate(138.895966 356.56125)scale(0.14 -0.14)">
       <defs>
        <path d="M 750 3822 
L 1781 4325 
L 1884 4325 
L 1884 747 
Q 1884 391 1914 303 
Q 1944 216 2037 169 
Q 2131 122 2419 116 
L 2419 0 
L 825 0 
L 825 116 
Q 1125 122 1212 167 
Q 1300 213 1334 289 
Q 1369 366 1369 747 
L 1369 3034 
Q 1369 3497 1338 3628 
Q 1316 3728 1258 3775 
Q 1200 3822 1119 3822 
Q 1003 3822 797 3725 
L 750 3822 
z
" id="TimesNewRomanPSMT-31" transform="scale(0.015625)"/>
       </defs>
       <use xlink:href="#TimesNewRomanPSMT-30"/>
       <use x="50" xlink:href="#TimesNewRomanPSMT-2e"/>
       <use x="75" xlink:href="#TimesNewRomanPSMT-30"/>
       <use x="125" xlink:href="#TimesNewRomanPSMT-30"/>
       <use x="175" xlink:href="#TimesNewRomanPSMT-31"/>
      </g>
     </g>
    </g>
    <g id="xtick_3">
     <g id="line2d_5">
      <path clip-path="url(#p3068bafec2)" d="M 215.518693 339.84 
L 215.518693 7.2 
" style="fill:none;stroke:#000000;stroke-dasharray:0.5,0.825;stroke-dashoffset:0;stroke-width:0.5;"/>
     </g>
     <g id="line2d_6">
      <g>
       <use style="stroke:#000000;stroke-width:0.8;" x="215.518693" xlink:href="#mb8f459aca0" y="339.84"/>
      </g>
     </g>
     <g id="text_3">
      <!-- 0.002 -->
      <g transform="translate(199.768693 356.56125)scale(0.14 -0.14)">
       <defs>
        <path d="M 2934 816 
L 2638 0 
L 138 0 
L 138 116 
Q 1241 1122 1691 1759 
Q 2141 2397 2141 2925 
Q 2141 3328 1894 3587 
Q 1647 3847 1303 3847 
Q 991 3847 742 3664 
Q 494 3481 375 3128 
L 259 3128 
Q 338 3706 661 4015 
Q 984 4325 1469 4325 
Q 1984 4325 2329 3994 
Q 2675 3663 2675 3213 
Q 2675 2891 2525 2569 
Q 2294 2063 1775 1497 
Q 997 647 803 472 
L 1909 472 
Q 2247 472 2383 497 
Q 2519 522 2628 598 
Q 2738 675 2819 816 
L 2934 816 
z
" id="TimesNewRomanPSMT-32" transform="scale(0.015625)"/>
       </defs>
       <use xlink:href="#TimesNewRomanPSMT-30"/>
       <use x="50" xlink:href="#TimesNewRomanPSMT-2e"/>
       <use x="75" xlink:href="#TimesNewRomanPSMT-30"/>
       <use x="125" xlink:href="#TimesNewRomanPSMT-30"/>
       <use x="175" xlink:href="#TimesNewRomanPSMT-32"/>
      </g>
     </g>
    </g>
    <g id="xtick_4">
     <g id="line2d_7">
      <path clip-path="url(#p3068bafec2)" d="M 276.39142 339.84 
L 276.39142 7.2 
" style="fill:none;stroke:#000000;stroke-dasharray:0.5,0.825;stroke-dashoffset:0;stroke-width:0.5;"/>
     </g>
     <g id="line2d_8">
      <g>
       <use style="stroke:#000000;stroke-width:0.8;" x="276.39142" xlink:href="#mb8f459aca0" y="339.84"/>
      </g>
     </g>
     <g id="text_4">
      <!-- 0.003 -->
      <g transform="translate(260.64142 356.56125)scale(0.14 -0.14)">
       <defs>
        <path d="M 325 3431 
Q 506 3859 782 4092 
Q 1059 4325 1472 4325 
Q 1981 4325 2253 3994 
Q 2459 3747 2459 3466 
Q 2459 3003 1878 2509 
Q 2269 2356 2469 2072 
Q 2669 1788 2669 1403 
Q 2669 853 2319 450 
Q 1863 -75 997 -75 
Q 569 -75 414 31 
Q 259 138 259 259 
Q 259 350 332 419 
Q 406 488 509 488 
Q 588 488 669 463 
Q 722 447 909 348 
Q 1097 250 1169 231 
Q 1284 197 1416 197 
Q 1734 197 1970 444 
Q 2206 691 2206 1028 
Q 2206 1275 2097 1509 
Q 2016 1684 1919 1775 
Q 1784 1900 1550 2001 
Q 1316 2103 1072 2103 
L 972 2103 
L 972 2197 
Q 1219 2228 1467 2375 
Q 1716 2522 1828 2728 
Q 1941 2934 1941 3181 
Q 1941 3503 1739 3701 
Q 1538 3900 1238 3900 
Q 753 3900 428 3381 
L 325 3431 
z
" id="TimesNewRomanPSMT-33" transform="scale(0.015625)"/>
       </defs>
       <use xlink:href="#TimesNewRomanPSMT-30"/>
       <use x="50" xlink:href="#TimesNewRomanPSMT-2e"/>
       <use x="75" xlink:href="#TimesNewRomanPSMT-30"/>
       <use x="125" xlink:href="#TimesNewRomanPSMT-30"/>
       <use x="175" xlink:href="#TimesNewRomanPSMT-33"/>
      </g>
     </g>
    </g>
    <g id="xtick_5">
     <g id="line2d_9">
      <path clip-path="url(#p3068bafec2)" d="M 337.264148 339.84 
L 337.264148 7.2 
" style="fill:none;stroke:#000000;stroke-dasharray:0.5,0.825;stroke-dashoffset:0;stroke-width:0.5;"/>
     </g>
     <g id="line2d_10">
      <g>
       <use style="stroke:#000000;stroke-width:0.8;" x="337.264148" xlink:href="#mb8f459aca0" y="339.84"/>
      </g>
     </g>
     <g id="text_5">
      <!-- 0.004 -->
      <g transform="translate(321.514148 356.56125)scale(0.14 -0.14)">
       <defs>
        <path d="M 2978 1563 
L 2978 1119 
L 2409 1119 
L 2409 0 
L 1894 0 
L 1894 1119 
L 100 1119 
L 100 1519 
L 2066 4325 
L 2409 4325 
L 2409 1563 
L 2978 1563 
z
M 1894 1563 
L 1894 3666 
L 406 1563 
L 1894 1563 
z
" id="TimesNewRomanPSMT-34" transform="scale(0.015625)"/>
       </defs>
       <use xlink:href="#TimesNewRomanPSMT-30"/>
       <use x="50" xlink:href="#TimesNewRomanPSMT-2e"/>
       <use x="75" xlink:href="#TimesNewRomanPSMT-30"/>
       <use x="125" xlink:href="#TimesNewRomanPSMT-30"/>
       <use x="175" xlink:href="#TimesNewRomanPSMT-34"/>
      </g>
     </g>
    </g>
    <g id="xtick_6">
     <g id="line2d_11">
      <path clip-path="url(#p3068bafec2)" d="M 398.136875 339.84 
L 398.136875 7.2 
" style="fill:none;stroke:#000000;stroke-dasharray:0.5,0.825;stroke-dashoffset:0;stroke-width:0.5;"/>
     </g>
     <g id="line2d_12">
      <g>
       <use style="stroke:#000000;stroke-width:0.8;" x="398.136875" xlink:href="#mb8f459aca0" y="339.84"/>
      </g>
     </g>
     <g id="text_6">
      <!-- 0.005 -->
      <g transform="translate(382.386875 356.56125)scale(0.14 -0.14)">
       <defs>
        <path d="M 2778 4238 
L 2534 3706 
L 1259 3706 
L 981 3138 
Q 1809 3016 2294 2522 
Q 2709 2097 2709 1522 
Q 2709 1188 2573 903 
Q 2438 619 2231 419 
Q 2025 219 1772 97 
Q 1413 -75 1034 -75 
Q 653 -75 479 54 
Q 306 184 306 341 
Q 306 428 378 495 
Q 450 563 559 563 
Q 641 563 702 538 
Q 763 513 909 409 
Q 1144 247 1384 247 
Q 1750 247 2026 523 
Q 2303 800 2303 1197 
Q 2303 1581 2056 1914 
Q 1809 2247 1375 2428 
Q 1034 2569 447 2591 
L 1259 4238 
L 2778 4238 
z
" id="TimesNewRomanPSMT-35" transform="scale(0.015625)"/>
       </defs>
       <use xlink:href="#TimesNewRomanPSMT-30"/>
       <use x="50" xlink:href="#TimesNewRomanPSMT-2e"/>
       <use x="75" xlink:href="#TimesNewRomanPSMT-30"/>
       <use x="125" xlink:href="#TimesNewRomanPSMT-30"/>
       <use x="175" xlink:href="#TimesNewRomanPSMT-35"/>
      </g>
     </g>
    </g>
    <g id="text_7">
     <!-- Time (sec) -->
     <g transform="translate(200.858906 373.277188)scale(0.14 -0.14)">
      <defs>
       <path d="M 3703 4238 
L 3750 3244 
L 3631 3244 
Q 3597 3506 3538 3619 
Q 3441 3800 3280 3886 
Q 3119 3972 2856 3972 
L 2259 3972 
L 2259 734 
Q 2259 344 2344 247 
Q 2463 116 2709 116 
L 2856 116 
L 2856 0 
L 1059 0 
L 1059 116 
L 1209 116 
Q 1478 116 1591 278 
Q 1659 378 1659 734 
L 1659 3972 
L 1150 3972 
Q 853 3972 728 3928 
Q 566 3869 450 3700 
Q 334 3531 313 3244 
L 194 3244 
L 244 4238 
L 3703 4238 
z
" id="TimesNewRomanPSMT-54" transform="scale(0.015625)"/>
       <path d="M 928 4444 
Q 1059 4444 1151 4351 
Q 1244 4259 1244 4128 
Q 1244 3997 1151 3903 
Q 1059 3809 928 3809 
Q 797 3809 703 3903 
Q 609 3997 609 4128 
Q 609 4259 701 4351 
Q 794 4444 928 4444 
z
M 1188 2947 
L 1188 647 
Q 1188 378 1227 289 
Q 1266 200 1342 156 
Q 1419 113 1622 113 
L 1622 0 
L 231 0 
L 231 113 
Q 441 113 512 153 
Q 584 194 626 287 
Q 669 381 669 647 
L 669 1750 
Q 669 2216 641 2353 
Q 619 2453 572 2492 
Q 525 2531 444 2531 
Q 356 2531 231 2484 
L 188 2597 
L 1050 2947 
L 1188 2947 
z
" id="TimesNewRomanPSMT-69" transform="scale(0.015625)"/>
       <path d="M 1050 2338 
Q 1363 2650 1419 2697 
Q 1559 2816 1721 2881 
Q 1884 2947 2044 2947 
Q 2313 2947 2506 2790 
Q 2700 2634 2766 2338 
Q 3088 2713 3309 2830 
Q 3531 2947 3766 2947 
Q 3994 2947 4170 2830 
Q 4347 2713 4450 2447 
Q 4519 2266 4519 1878 
L 4519 647 
Q 4519 378 4559 278 
Q 4591 209 4675 161 
Q 4759 113 4950 113 
L 4950 0 
L 3538 0 
L 3538 113 
L 3597 113 
Q 3781 113 3884 184 
Q 3956 234 3988 344 
Q 4000 397 4000 647 
L 4000 1878 
Q 4000 2228 3916 2372 
Q 3794 2572 3525 2572 
Q 3359 2572 3192 2489 
Q 3025 2406 2788 2181 
L 2781 2147 
L 2788 2013 
L 2788 647 
Q 2788 353 2820 281 
Q 2853 209 2943 161 
Q 3034 113 3253 113 
L 3253 0 
L 1806 0 
L 1806 113 
Q 2044 113 2133 169 
Q 2222 225 2256 338 
Q 2272 391 2272 647 
L 2272 1878 
Q 2272 2228 2169 2381 
Q 2031 2581 1784 2581 
Q 1616 2581 1450 2491 
Q 1191 2353 1050 2181 
L 1050 647 
Q 1050 366 1089 281 
Q 1128 197 1204 155 
Q 1281 113 1516 113 
L 1516 0 
L 100 0 
L 100 113 
Q 297 113 375 155 
Q 453 197 493 289 
Q 534 381 534 647 
L 534 1741 
Q 534 2213 506 2350 
Q 484 2453 437 2492 
Q 391 2531 309 2531 
Q 222 2531 100 2484 
L 53 2597 
L 916 2947 
L 1050 2947 
L 1050 2338 
z
" id="TimesNewRomanPSMT-6d" transform="scale(0.015625)"/>
       <path d="M 681 1784 
Q 678 1147 991 784 
Q 1303 422 1725 422 
Q 2006 422 2214 576 
Q 2422 731 2563 1106 
L 2659 1044 
Q 2594 616 2278 264 
Q 1963 -88 1488 -88 
Q 972 -88 605 314 
Q 238 716 238 1394 
Q 238 2128 614 2539 
Q 991 2950 1559 2950 
Q 2041 2950 2350 2633 
Q 2659 2316 2659 1784 
L 681 1784 
z
M 681 1966 
L 2006 1966 
Q 1991 2241 1941 2353 
Q 1863 2528 1708 2628 
Q 1553 2728 1384 2728 
Q 1125 2728 920 2526 
Q 716 2325 681 1966 
z
" id="TimesNewRomanPSMT-65" transform="scale(0.015625)"/>
       <path id="TimesNewRomanPSMT-20" transform="scale(0.015625)"/>
       <path d="M 1988 -1253 
L 1988 -1369 
Q 1516 -1131 1200 -813 
Q 750 -359 506 256 
Q 263 872 263 1534 
Q 263 2503 741 3301 
Q 1219 4100 1988 4444 
L 1988 4313 
Q 1603 4100 1356 3731 
Q 1109 3363 987 2797 
Q 866 2231 866 1616 
Q 866 947 969 400 
Q 1050 -31 1165 -292 
Q 1281 -553 1476 -793 
Q 1672 -1034 1988 -1253 
z
" id="TimesNewRomanPSMT-28" transform="scale(0.015625)"/>
       <path d="M 2050 2947 
L 2050 1972 
L 1947 1972 
Q 1828 2431 1642 2597 
Q 1456 2763 1169 2763 
Q 950 2763 815 2647 
Q 681 2531 681 2391 
Q 681 2216 781 2091 
Q 878 1963 1175 1819 
L 1631 1597 
Q 2266 1288 2266 781 
Q 2266 391 1970 151 
Q 1675 -88 1309 -88 
Q 1047 -88 709 6 
Q 606 38 541 38 
Q 469 38 428 -44 
L 325 -44 
L 325 978 
L 428 978 
Q 516 541 762 319 
Q 1009 97 1316 97 
Q 1531 97 1667 223 
Q 1803 350 1803 528 
Q 1803 744 1651 891 
Q 1500 1038 1047 1263 
Q 594 1488 453 1669 
Q 313 1847 313 2119 
Q 313 2472 555 2709 
Q 797 2947 1181 2947 
Q 1350 2947 1591 2875 
Q 1750 2828 1803 2828 
Q 1853 2828 1881 2850 
Q 1909 2872 1947 2947 
L 2050 2947 
z
" id="TimesNewRomanPSMT-73" transform="scale(0.015625)"/>
       <path d="M 2631 1088 
Q 2516 522 2178 217 
Q 1841 -88 1431 -88 
Q 944 -88 581 321 
Q 219 731 219 1428 
Q 219 2103 620 2525 
Q 1022 2947 1584 2947 
Q 2006 2947 2278 2723 
Q 2550 2500 2550 2259 
Q 2550 2141 2473 2067 
Q 2397 1994 2259 1994 
Q 2075 1994 1981 2113 
Q 1928 2178 1911 2362 
Q 1894 2547 1784 2644 
Q 1675 2738 1481 2738 
Q 1169 2738 978 2506 
Q 725 2200 725 1697 
Q 725 1184 976 792 
Q 1228 400 1656 400 
Q 1963 400 2206 609 
Q 2378 753 2541 1131 
L 2631 1088 
z
" id="TimesNewRomanPSMT-63" transform="scale(0.015625)"/>
       <path d="M 144 4313 
L 144 4444 
Q 619 4209 934 3891 
Q 1381 3434 1625 2820 
Q 1869 2206 1869 1541 
Q 1869 572 1392 -226 
Q 916 -1025 144 -1369 
L 144 -1253 
Q 528 -1038 776 -670 
Q 1025 -303 1145 264 
Q 1266 831 1266 1447 
Q 1266 2113 1163 2663 
Q 1084 3094 967 3353 
Q 850 3613 656 3853 
Q 463 4094 144 4313 
z
" id="TimesNewRomanPSMT-29" transform="scale(0.015625)"/>
      </defs>
      <use xlink:href="#TimesNewRomanPSMT-54"/>
      <use x="57.583984" xlink:href="#TimesNewRomanPSMT-69"/>
      <use x="85.367188" xlink:href="#TimesNewRomanPSMT-6d"/>
      <use x="163.150391" xlink:href="#TimesNewRomanPSMT-65"/>
      <use x="207.535156" xlink:href="#TimesNewRomanPSMT-20"/>
      <use x="232.535156" xlink:href="#TimesNewRomanPSMT-28"/>
      <use x="265.835938" xlink:href="#TimesNewRomanPSMT-73"/>
      <use x="304.751953" xlink:href="#TimesNewRomanPSMT-65"/>
      <use x="349.136719" xlink:href="#TimesNewRomanPSMT-63"/>
      <use x="393.521484" xlink:href="#TimesNewRomanPSMT-29"/>
     </g>
    </g>
   </g>
   <g id="matplotlib.axis_2">
    <g id="ytick_1">
     <g id="line2d_13">
      <path clip-path="url(#p3068bafec2)" d="M 63.336875 333.530207 
L 398.136875 333.530207 
" style="fill:none;stroke:#000000;stroke-dasharray:0.5,0.825;stroke-dashoffset:0;stroke-width:0.5;"/>
     </g>
     <g id="line2d_14">
      <defs>
       <path d="M 0 0 
L -3.5 0 
" id="m2f8973e214" style="stroke:#000000;stroke-width:0.8;"/>
      </defs>
      <g>
       <use style="stroke:#000000;stroke-width:0.8;" x="63.336875" xlink:href="#m2f8973e214" y="333.530207"/>
      </g>
     </g>
     <g id="text_8">
      <!-- −0.06 -->
      <g transform="translate(23.942188 338.390832)scale(0.14 -0.14)">
       <defs>
        <path d="M 3484 2000 
L 116 2000 
L 116 2256 
L 3484 2256 
L 3484 2000 
z
" id="TimesNewRomanPSMT-2212" transform="scale(0.015625)"/>
        <path d="M 2869 4325 
L 2869 4209 
Q 2456 4169 2195 4045 
Q 1934 3922 1679 3669 
Q 1425 3416 1258 3105 
Q 1091 2794 978 2366 
Q 1428 2675 1881 2675 
Q 2316 2675 2634 2325 
Q 2953 1975 2953 1425 
Q 2953 894 2631 456 
Q 2244 -75 1606 -75 
Q 1172 -75 869 213 
Q 275 772 275 1663 
Q 275 2231 503 2743 
Q 731 3256 1154 3653 
Q 1578 4050 1965 4187 
Q 2353 4325 2688 4325 
L 2869 4325 
z
M 925 2138 
Q 869 1716 869 1456 
Q 869 1156 980 804 
Q 1091 453 1309 247 
Q 1469 100 1697 100 
Q 1969 100 2183 356 
Q 2397 613 2397 1088 
Q 2397 1622 2184 2012 
Q 1972 2403 1581 2403 
Q 1463 2403 1327 2353 
Q 1191 2303 925 2138 
z
" id="TimesNewRomanPSMT-36" transform="scale(0.015625)"/>
       </defs>
       <use xlink:href="#TimesNewRomanPSMT-2212"/>
       <use x="56.396484" xlink:href="#TimesNewRomanPSMT-30"/>
       <use x="106.396484" xlink:href="#TimesNewRomanPSMT-2e"/>
       <use x="131.396484" xlink:href="#TimesNewRomanPSMT-30"/>
       <use x="181.396484" xlink:href="#TimesNewRomanPSMT-36"/>
      </g>
     </g>
    </g>
    <g id="ytick_2">
     <g id="line2d_15">
      <path clip-path="url(#p3068bafec2)" d="M 63.336875 273.097286 
L 398.136875 273.097286 
" style="fill:none;stroke:#000000;stroke-dasharray:0.5,0.825;stroke-dashoffset:0;stroke-width:0.5;"/>
     </g>
     <g id="line2d_16">
      <g>
       <use style="stroke:#000000;stroke-width:0.8;" x="63.336875" xlink:href="#m2f8973e214" y="273.097286"/>
      </g>
     </g>
     <g id="text_9">
      <!-- −0.04 -->
      <g transform="translate(23.942188 277.957911)scale(0.14 -0.14)">
       <use xlink:href="#TimesNewRomanPSMT-2212"/>
       <use x="56.396484" xlink:href="#TimesNewRomanPSMT-30"/>
       <use x="106.396484" xlink:href="#TimesNewRomanPSMT-2e"/>
       <use x="131.396484" xlink:href="#TimesNewRomanPSMT-30"/>
       <use x="181.396484" xlink:href="#TimesNewRomanPSMT-34"/>
      </g>
     </g>
    </g>
    <g id="ytick_3">
     <g id="line2d_17">
      <path clip-path="url(#p3068bafec2)" d="M 63.336875 212.664365 
L 398.136875 212.664365 
" style="fill:none;stroke:#000000;stroke-dasharray:0.5,0.825;stroke-dashoffset:0;stroke-width:0.5;"/>
     </g>
     <g id="line2d_18">
      <g>
       <use style="stroke:#000000;stroke-width:0.8;" x="63.336875" xlink:href="#m2f8973e214" y="212.664365"/>
      </g>
     </g>
     <g id="text_10">
      <!-- −0.02 -->
      <g transform="translate(23.942188 217.52499)scale(0.14 -0.14)">
       <use xlink:href="#TimesNewRomanPSMT-2212"/>
       <use x="56.396484" xlink:href="#TimesNewRomanPSMT-30"/>
       <use x="106.396484" xlink:href="#TimesNewRomanPSMT-2e"/>
       <use x="131.396484" xlink:href="#TimesNewRomanPSMT-30"/>
       <use x="181.396484" xlink:href="#TimesNewRomanPSMT-32"/>
      </g>
     </g>
    </g>
    <g id="ytick_4">
     <g id="line2d_19">
      <path clip-path="url(#p3068bafec2)" d="M 63.336875 152.231445 
L 398.136875 152.231445 
" style="fill:none;stroke:#000000;stroke-dasharray:0.5,0.825;stroke-dashoffset:0;stroke-width:0.5;"/>
     </g>
     <g id="line2d_20">
      <g>
       <use style="stroke:#000000;stroke-width:0.8;" x="63.336875" xlink:href="#m2f8973e214" y="152.231445"/>
      </g>
     </g>
     <g id="text_11">
      <!-- 0.00 -->
      <g transform="translate(31.836875 157.09207)scale(0.14 -0.14)">
       <use xlink:href="#TimesNewRomanPSMT-30"/>
       <use x="50" xlink:href="#TimesNewRomanPSMT-2e"/>
       <use x="75" xlink:href="#TimesNewRomanPSMT-30"/>
       <use x="125" xlink:href="#TimesNewRomanPSMT-30"/>
      </g>
     </g>
    </g>
    <g id="ytick_5">
     <g id="line2d_21">
      <path clip-path="url(#p3068bafec2)" d="M 63.336875 91.798524 
L 398.136875 91.798524 
" style="fill:none;stroke:#000000;stroke-dasharray:0.5,0.825;stroke-dashoffset:0;stroke-width:0.5;"/>
     </g>
     <g id="line2d_22">
      <g>
       <use style="stroke:#000000;stroke-width:0.8;" x="63.336875" xlink:href="#m2f8973e214" y="91.798524"/>
      </g>
     </g>
     <g id="text_12">
      <!-- 0.02 -->
      <g transform="translate(31.836875 96.659149)scale(0.14 -0.14)">
       <use xlink:href="#TimesNewRomanPSMT-30"/>
       <use x="50" xlink:href="#TimesNewRomanPSMT-2e"/>
       <use x="75" xlink:href="#TimesNewRomanPSMT-30"/>
       <use x="125" xlink:href="#TimesNewRomanPSMT-32"/>
      </g>
     </g>
    </g>
    <g id="ytick_6">
     <g id="line2d_23">
      <path clip-path="url(#p3068bafec2)" d="M 63.336875 31.365603 
L 398.136875 31.365603 
" style="fill:none;stroke:#000000;stroke-dasharray:0.5,0.825;stroke-dashoffset:0;stroke-width:0.5;"/>
     </g>
     <g id="line2d_24">
      <g>
       <use style="stroke:#000000;stroke-width:0.8;" x="63.336875" xlink:href="#m2f8973e214" y="31.365603"/>
      </g>
     </g>
     <g id="text_13">
      <!-- 0.04 -->
      <g transform="translate(31.836875 36.226228)scale(0.14 -0.14)">
       <use xlink:href="#TimesNewRomanPSMT-30"/>
       <use x="50" xlink:href="#TimesNewRomanPSMT-2e"/>
       <use x="75" xlink:href="#TimesNewRomanPSMT-30"/>
       <use x="125" xlink:href="#TimesNewRomanPSMT-34"/>
      </g>
     </g>
    </g>
    <g id="text_14">
     <!-- Volatage (V) -->
     <g transform="translate(16.92125 209.352344)rotate(-90)scale(0.14 -0.14)">
      <defs>
       <path d="M 4544 4238 
L 4544 4122 
Q 4319 4081 4203 3978 
Q 4038 3825 3909 3509 
L 2431 -97 
L 2316 -97 
L 728 3556 
Q 606 3838 556 3900 
Q 478 3997 364 4051 
Q 250 4106 56 4122 
L 56 4238 
L 1788 4238 
L 1788 4122 
Q 1494 4094 1406 4022 
Q 1319 3950 1319 3838 
Q 1319 3681 1463 3350 
L 2541 866 
L 3541 3319 
Q 3688 3681 3688 3822 
Q 3688 3913 3597 3995 
Q 3506 4078 3291 4113 
Q 3275 4116 3238 4122 
L 3238 4238 
L 4544 4238 
z
" id="TimesNewRomanPSMT-56" transform="scale(0.015625)"/>
       <path d="M 1600 2947 
Q 2250 2947 2644 2453 
Q 2978 2031 2978 1484 
Q 2978 1100 2793 706 
Q 2609 313 2286 112 
Q 1963 -88 1566 -88 
Q 919 -88 538 428 
Q 216 863 216 1403 
Q 216 1797 411 2186 
Q 606 2575 925 2761 
Q 1244 2947 1600 2947 
z
M 1503 2744 
Q 1338 2744 1170 2645 
Q 1003 2547 900 2300 
Q 797 2053 797 1666 
Q 797 1041 1045 587 
Q 1294 134 1700 134 
Q 2003 134 2200 384 
Q 2397 634 2397 1244 
Q 2397 2006 2069 2444 
Q 1847 2744 1503 2744 
z
" id="TimesNewRomanPSMT-6f" transform="scale(0.015625)"/>
       <path d="M 1184 4444 
L 1184 647 
Q 1184 378 1223 290 
Q 1263 203 1344 158 
Q 1425 113 1647 113 
L 1647 0 
L 244 0 
L 244 113 
Q 441 113 512 153 
Q 584 194 625 287 
Q 666 381 666 647 
L 666 3247 
Q 666 3731 644 3842 
Q 622 3953 573 3993 
Q 525 4034 450 4034 
Q 369 4034 244 3984 
L 191 4094 
L 1044 4444 
L 1184 4444 
z
" id="TimesNewRomanPSMT-6c" transform="scale(0.015625)"/>
       <path d="M 1822 413 
Q 1381 72 1269 19 
Q 1100 -59 909 -59 
Q 613 -59 420 144 
Q 228 347 228 678 
Q 228 888 322 1041 
Q 450 1253 767 1440 
Q 1084 1628 1822 1897 
L 1822 2009 
Q 1822 2438 1686 2597 
Q 1550 2756 1291 2756 
Q 1094 2756 978 2650 
Q 859 2544 859 2406 
L 866 2225 
Q 866 2081 792 2003 
Q 719 1925 600 1925 
Q 484 1925 411 2006 
Q 338 2088 338 2228 
Q 338 2497 613 2722 
Q 888 2947 1384 2947 
Q 1766 2947 2009 2819 
Q 2194 2722 2281 2516 
Q 2338 2381 2338 1966 
L 2338 994 
Q 2338 584 2353 492 
Q 2369 400 2405 369 
Q 2441 338 2488 338 
Q 2538 338 2575 359 
Q 2641 400 2828 588 
L 2828 413 
Q 2478 -56 2159 -56 
Q 2006 -56 1915 50 
Q 1825 156 1822 413 
z
M 1822 616 
L 1822 1706 
Q 1350 1519 1213 1441 
Q 966 1303 859 1153 
Q 753 1003 753 825 
Q 753 600 887 451 
Q 1022 303 1197 303 
Q 1434 303 1822 616 
z
" id="TimesNewRomanPSMT-61" transform="scale(0.015625)"/>
       <path d="M 1031 3803 
L 1031 2863 
L 1700 2863 
L 1700 2644 
L 1031 2644 
L 1031 788 
Q 1031 509 1111 412 
Q 1191 316 1316 316 
Q 1419 316 1516 380 
Q 1613 444 1666 569 
L 1788 569 
Q 1678 263 1478 108 
Q 1278 -47 1066 -47 
Q 922 -47 784 33 
Q 647 113 581 261 
Q 516 409 516 719 
L 516 2644 
L 63 2644 
L 63 2747 
Q 234 2816 414 2980 
Q 594 3144 734 3369 
Q 806 3488 934 3803 
L 1031 3803 
z
" id="TimesNewRomanPSMT-74" transform="scale(0.015625)"/>
       <path d="M 966 1044 
Q 703 1172 562 1401 
Q 422 1631 422 1909 
Q 422 2334 742 2640 
Q 1063 2947 1563 2947 
Q 1972 2947 2272 2747 
L 2878 2747 
Q 3013 2747 3034 2739 
Q 3056 2731 3066 2713 
Q 3084 2684 3084 2613 
Q 3084 2531 3069 2500 
Q 3059 2484 3036 2475 
Q 3013 2466 2878 2466 
L 2506 2466 
Q 2681 2241 2681 1891 
Q 2681 1491 2375 1206 
Q 2069 922 1553 922 
Q 1341 922 1119 984 
Q 981 866 932 777 
Q 884 688 884 625 
Q 884 572 936 522 
Q 988 472 1138 450 
Q 1225 438 1575 428 
Q 2219 413 2409 384 
Q 2700 344 2873 169 
Q 3047 -6 3047 -263 
Q 3047 -616 2716 -925 
Q 2228 -1381 1444 -1381 
Q 841 -1381 425 -1109 
Q 191 -953 191 -784 
Q 191 -709 225 -634 
Q 278 -519 444 -313 
Q 466 -284 763 25 
Q 600 122 533 198 
Q 466 275 466 372 
Q 466 481 555 628 
Q 644 775 966 1044 
z
M 1509 2797 
Q 1278 2797 1122 2612 
Q 966 2428 966 2047 
Q 966 1553 1178 1281 
Q 1341 1075 1591 1075 
Q 1828 1075 1981 1253 
Q 2134 1431 2134 1813 
Q 2134 2309 1919 2591 
Q 1759 2797 1509 2797 
z
M 934 0 
Q 788 -159 713 -296 
Q 638 -434 638 -550 
Q 638 -700 819 -813 
Q 1131 -1006 1722 -1006 
Q 2284 -1006 2551 -807 
Q 2819 -609 2819 -384 
Q 2819 -222 2659 -153 
Q 2497 -84 2016 -72 
Q 1313 -53 934 0 
z
" id="TimesNewRomanPSMT-67" transform="scale(0.015625)"/>
      </defs>
      <use xlink:href="#TimesNewRomanPSMT-56"/>
      <use x="59.341797" xlink:href="#TimesNewRomanPSMT-6f"/>
      <use x="109.341797" xlink:href="#TimesNewRomanPSMT-6c"/>
      <use x="137.125" xlink:href="#TimesNewRomanPSMT-61"/>
      <use x="181.509766" xlink:href="#TimesNewRomanPSMT-74"/>
      <use x="209.292969" xlink:href="#TimesNewRomanPSMT-61"/>
      <use x="253.677734" xlink:href="#TimesNewRomanPSMT-67"/>
      <use x="303.677734" xlink:href="#TimesNewRomanPSMT-65"/>
      <use x="348.0625" xlink:href="#TimesNewRomanPSMT-20"/>
      <use x="373.0625" xlink:href="#TimesNewRomanPSMT-28"/>
      <use x="406.363281" xlink:href="#TimesNewRomanPSMT-56"/>
      <use x="478.580078" xlink:href="#TimesNewRomanPSMT-29"/>
     </g>
    </g>
   </g>
   <g id="LineCollection_1">
    <path clip-path="url(#p3068bafec2)" d="M 78.555057 152.231445 
L 382.918693 152.231445 
" style="fill:none;stroke:#1f77b4;stroke-width:1.5;"/>
   </g>
   <g id="line2d_25">
    <path clip-path="url(#p3068bafec2)" d="M 78.555057 152.184005 
L 81.020402 152.221775 
L 81.050839 152.297316 
L 81.111711 152.259546 
L 81.142148 152.184005 
L 81.20302 152.259546 
L 87.442475 152.184005 
L 87.56422 152.146234 
L 87.716402 152.184005 
L 92.707966 152.259546 
L 92.738402 152.297316 
L 92.799275 152.221775 
L 92.829711 152.184005 
L 92.890584 152.259546 
L 95.842911 152.184005 
L 95.93422 152.184005 
L 96.055966 152.221775 
L 96.238584 152.146234 
L 96.390766 152.184005 
L 98.856111 152.259546 
L 98.977857 152.259546 
L 105.704293 152.297316 
L 105.73473 152.372857 
L 105.795602 152.297316 
L 110.726293 152.372857 
L 110.817602 152.410628 
L 110.939348 152.335087 
L 111.09153 152.410628 
L 111.213275 152.372857 
L 111.365457 152.410628 
L 111.487202 152.372857 
L 111.66982 152.448399 
L 112.643784 152.486169 
L 112.76553 152.56171 
L 112.887275 152.486169 
L 113.00902 152.56171 
L 113.739493 152.637252 
L 113.891675 152.675022 
L 114.469966 152.750563 
L 114.652584 152.826104 
L 114.743893 152.826104 
L 114.835202 152.901646 
L 114.865639 152.863875 
L 115.078693 152.977187 
L 115.413493 153.052728 
L 115.565675 153.090499 
L 115.930911 153.16604 
L 116.143966 153.279351 
L 116.204839 153.20381 
L 116.235275 153.279351 
L 116.874439 153.317122 
L 116.996184 153.392663 
L 117.11793 153.392663 
L 117.239675 153.468204 
L 117.36142 153.430434 
L 117.483166 153.505975 
L 117.513602 153.468204 
L 117.939711 153.543745 
L 118.091893 153.581516 
L 118.396257 153.657057 
L 118.578875 153.732598 
L 119.218039 153.808139 
L 119.400657 153.883681 
L 119.491966 153.883681 
L 119.644148 153.996992 
L 119.674584 153.921451 
L 119.765893 153.959222 
L 120.13113 154.034763 
L 120.222439 154.110304 
L 120.252875 154.072533 
L 120.313748 154.034763 
L 120.344184 154.110304 
L 120.648548 154.185845 
L 120.952911 154.412469 
L 121.196402 154.48801 
L 121.318148 154.639092 
L 121.348584 154.601322 
L 121.957311 155.205651 
L 121.987748 155.205651 
L 122.170366 155.470045 
L 122.900839 156.527621 
L 123.326948 157.320803 
L 123.38782 157.396344 
L 123.600875 157.81182 
L 125.244439 162.117666 
L 125.548802 163.137471 
L 125.82273 164.081736 
L 126.279275 165.819182 
L 126.49233 166.612365 
L 127.192366 169.558469 
L 127.648911 171.635851 
L 128.044584 173.411068 
L 129.262039 178.963342 
L 129.41422 179.605442 
L 130.296875 183.458041 
L 132.153493 189.992351 
L 132.336111 190.370057 
L 132.701348 191.012156 
L 133.340511 191.692027 
L 133.492693 191.654256 
L 133.644875 191.692027 
L 133.76662 191.616486 
L 134.10142 191.540944 
L 134.314475 191.427633 
L 134.466657 191.352092 
L 135.592802 189.803498 
L 136.171093 188.103822 
L 137.966839 178.661178 
L 138.849493 172.504574 
L 140.523493 157.018638 
L 141.375711 147.462682 
L 144.388911 108.747843 
L 146.002039 86.349891 
L 147.82822 62.932138 
L 148.984802 49.901286 
L 150.354439 37.399222 
L 151.237093 31.620324 
L 151.998002 28.372055 
L 152.27193 27.42779 
L 152.667602 26.332444 
L 152.971966 25.803659 
L 153.18502 25.5015 
L 153.215457 25.577029 
L 153.245893 25.5015 
L 153.398075 25.388179 
L 153.763311 25.463724 
L 154.219857 26.143594 
L 154.676402 27.42779 
L 154.889457 28.22097 
L 155.315566 30.185052 
L 156.502584 38.192402 
L 158.146148 55.566869 
L 160.21582 88.011797 
L 161.494148 112.147195 
L 163.259457 149.351212 
L 168.129275 255.675376 
L 169.316293 277.129066 
L 170.68593 297.449641 
L 172.420802 315.655053 
L 173.242584 320.98071 
L 174.125239 323.851268 
L 174.307857 324.228979 
L 174.551348 324.568915 
L 174.70353 324.644456 
L 174.794839 324.72 
L 174.886148 324.606679 
L 174.916584 324.644456 
L 175.068766 324.568915 
L 175.251384 324.493371 
L 175.434002 324.417829 
L 175.677493 324.077894 
L 175.890548 323.662415 
L 177.168875 318.487843 
L 177.594984 315.843903 
L 178.842875 305.796942 
L 181.277784 277.431236 
L 182.586548 258.054925 
L 183.377893 244.646374 
L 184.443166 225.723315 
L 186.33022 192.636291 
L 187.973784 164.34613 
L 188.826002 150.446558 
L 192.478366 97.643294 
L 194.061057 81.099781 
L 194.821966 74.64101 
L 195.278511 70.750644 
L 197.835166 52.469685 
L 198.900439 48.126069 
L 199.14393 47.219569 
L 199.81353 45.331043 
L 200.209202 43.895761 
L 200.574439 42.91373 
L 201.000548 42.233859 
L 201.578839 41.025204 
L 201.670148 40.949663 
L 201.913639 40.798577 
L 202.035384 40.798577 
L 202.704984 40.723033 
L 202.82673 40.647492 
L 202.857166 40.685269 
L 203.16153 40.723033 
L 203.344148 40.911886 
L 203.770257 41.289598 
L 204.07462 41.365139 
L 204.226802 41.478448 
L 204.683348 42.158318 
L 204.987711 42.91373 
L 205.048584 42.951497 
L 207.026948 48.126069 
L 209.279239 56.92661 
L 210.43582 62.138952 
L 211.653275 67.086898 
L 212.170693 69.126509 
L 212.688111 71.468285 
L 213.327275 74.792095 
L 213.692511 76.529545 
L 214.149057 79.097941 
L 214.757784 82.648375 
L 215.914366 90.504658 
L 217.679675 102.817865 
L 218.105784 106.141676 
L 218.653639 110.485289 
L 218.89713 112.222736 
L 222.336439 143.043525 
L 223.645202 157.13195 
L 226.780148 193.353932 
L 231.649966 252.50265 
L 232.654366 262.171924 
L 233.689202 271.350168 
L 234.176184 275.013913 
L 234.602293 277.846716 
L 235.88062 283.663381 
L 236.337166 284.569866 
L 236.367602 284.569866 
L 236.55022 284.834272 
L 236.611093 284.909801 
L 236.97633 285.211972 
L 237.006766 285.136431 
L 237.067639 285.211972 
L 237.189384 285.136431 
L 237.55462 284.532102 
L 237.919857 283.587837 
L 238.589457 281.661535 
L 239.046002 279.546392 
L 240.050402 274.031885 
L 241.085239 265.495734 
L 241.693966 259.263593 
L 242.698366 248.272349 
L 243.489711 238.980787 
L 244.707166 224.212489 
L 246.472475 198.641813 
L 247.68993 179.37882 
L 248.35953 168.765287 
L 249.820475 146.933894 
L 252.011893 118.492651 
L 253.077166 107.728037 
L 253.594584 103.082256 
L 254.112002 99.003034 
L 256.090366 87.407468 
L 256.63822 85.216777 
L 257.673057 82.912766 
L 258.190475 82.421752 
L 258.31222 82.34621 
L 259.134002 81.439717 
L 259.194875 81.477487 
L 259.225311 81.439717 
L 259.40793 81.364175 
L 259.590548 81.288631 
L 259.834039 81.137552 
L 259.98622 81.062011 
L 260.016657 80.948696 
L 260.107966 80.98647 
L 260.138402 80.98647 
L 260.168839 80.873161 
L 260.260148 80.910926 
L 260.868875 80.948696 
L 260.99062 81.02424 
L 261.08193 80.98647 
L 261.112366 81.02424 
L 261.355857 81.062011 
L 261.508039 81.175326 
L 262.877675 83.026081 
L 263.33422 83.894807 
L 263.547275 84.31028 
L 263.821202 84.952377 
L 264.00382 85.330086 
L 265.708257 89.824787 
L 267.747493 97.756605 
L 268.02142 99.003034 
L 270.882439 113.695788 
L 271.521602 117.623928 
L 274.626111 136.207052 
L 276.117493 143.081296 
L 279.343748 154.676863 
L 279.49593 155.016798 
L 280.622075 157.585197 
L 280.682948 157.660738 
L 280.926439 158.151756 
L 281.535166 159.398185 
L 282.41782 160.644613 
L 282.630875 160.909008 
L 282.996111 161.211173 
L 283.239602 161.286713 
L 283.42222 161.362255 
L 283.635275 161.437795 
L 283.787457 161.513337 
L 283.817893 161.437795 
L 283.878766 161.475566 
L 284.030948 161.513337 
L 284.244002 161.400025 
L 284.365748 161.324484 
L 284.548366 161.248943 
L 284.76142 161.173402 
L 285.065784 160.946778 
L 285.18753 160.871237 
L 286.070184 159.624808 
L 286.587602 158.605003 
L 286.648475 158.567232 
L 286.952839 157.81182 
L 287.10502 157.509656 
L 287.43982 156.678703 
L 288.748584 153.694828 
L 288.931202 153.317122 
L 289.235566 152.788334 
L 289.296439 152.712793 
L 289.996475 151.692987 
L 290.179093 151.466364 
L 290.300839 151.390823 
L 290.45302 151.277511 
L 291.45742 151.353052 
L 291.913966 152.070693 
L 292.279202 152.712793 
L 292.522693 153.128269 
L 292.79662 153.770369 
L 292.88793 154.034763 
L 293.55753 156.112145 
L 293.922766 157.245262 
L 294.56193 159.889202 
L 294.714111 160.531302 
L 295.23153 162.835307 
L 295.840257 165.970265 
L 296.114184 167.405546 
L 297.514257 174.88412 
L 298.275166 178.925571 
L 298.366475 179.416588 
L 299.24913 184.251223 
L 299.614366 186.02644 
L 301.805784 196.413349 
L 302.018839 197.206531 
L 302.749311 200.303718 
L 304.453748 206.233701 
L 305.305966 208.084457 
L 305.488584 208.424392 
L 305.671202 208.839871 
L 306.127748 209.255341 
L 306.310366 209.330886 
L 306.52342 209.444197 
L 306.61473 209.519741 
L 306.766911 209.557512 
L 307.162584 209.481968 
L 308.501784 207.66898 
L 309.780111 204.269625 
L 310.084475 203.06097 
L 310.784511 200.114865 
L 311.21062 197.773089 
L 312.610693 188.405987 
L 315.045602 169.482928 
L 315.928257 161.777731 
L 320.158911 131.108024 
L 321.58942 122.911809 
L 323.415602 113.318082 
L 324.206948 109.087778 
L 325.911384 101.11819 
L 326.185311 100.173925 
L 326.459239 99.15412 
L 327.007093 97.529979 
L 327.463639 96.245779 
L 328.71153 93.412989 
L 328.741966 93.412989 
L 328.924584 93.110824 
L 329.472439 92.582033 
L 329.71593 92.506498 
L 329.898548 92.430954 
L 329.989857 92.468728 
L 330.020293 92.393184 
L 330.05073 92.506498 
L 330.081166 92.468728 
L 330.38553 92.544263 
L 330.62902 92.695348 
L 330.659457 92.657578 
L 330.689893 92.733119 
L 330.811639 92.808663 
L 330.872511 92.808663 
L 331.024693 92.959742 
L 331.176875 93.073054 
L 331.572548 93.412989 
L 331.694293 93.488533 
L 333.124802 95.41483 
L 334.524875 99.078575 
L 334.73793 99.871754 
L 337.842439 111.84503 
L 348.251675 162.986389 
L 351.599675 175.035204 
L 352.634511 177.339208 
L 352.878002 177.792454 
L 353.182366 178.321243 
L 353.243239 178.396785 
L 353.547602 178.887803 
L 354.856366 180.663019 
L 355.099857 181.040725 
L 355.16073 181.078494 
L 355.465093 181.569511 
L 355.49553 181.569511 
L 355.708584 181.947218 
L 355.769457 182.02276 
L 356.286875 182.815941 
L 356.621675 183.382501 
L 357.047784 184.062369 
L 357.443457 184.780011 
L 357.869566 185.459882 
L 358.143493 185.875358 
L 360.51753 188.670381 
L 360.639275 188.670381 
L 360.700148 188.708151 
L 360.85233 188.821463 
L 361.034948 188.897004 
L 361.217566 188.972545 
L 361.369748 189.048086 
L 361.52193 189.085857 
L 361.643675 189.048086 
L 361.734984 189.048086 
L 361.887166 188.972545 
L 361.948039 189.010316 
L 361.978475 188.934775 
L 362.130657 188.897004 
L 362.313275 188.821463 
L 362.495893 188.745922 
L 362.556766 188.783692 
L 362.587202 188.745922 
L 362.76982 188.63261 
L 362.800257 188.670381 
L 362.86113 188.59484 
L 363.408984 188.066051 
L 363.500293 187.99051 
L 364.53513 186.857393 
L 364.565566 186.895164 
L 364.596002 186.781852 
L 364.961239 186.441917 
L 364.991675 186.479687 
L 365.022111 186.404146 
L 365.44822 186.02644 
L 365.569966 185.950899 
L 366.20913 185.271029 
L 366.300439 185.271029 
L 366.726548 184.893323 
L 366.87873 184.817782 
L 367.243966 184.515617 
L 367.335275 184.440076 
L 367.79182 184.024601 
L 367.974439 183.949058 
L 368.12662 183.873519 
L 368.187493 183.911287 
L 368.21793 183.873519 
L 368.430984 183.760205 
L 368.55273 183.684665 
L 368.704911 183.495812 
L 368.735348 183.533583 
L 368.79622 183.458041 
L 369.070148 183.269188 
L 369.191893 183.193648 
L 369.374511 183.080335 
L 369.46582 183.155877 
L 369.587566 183.004795 
L 369.678875 183.004795 
L 369.983239 182.77817 
L 370.074548 182.702631 
L 370.348475 182.476006 
L 370.378911 182.513777 
L 370.409348 182.400464 
L 370.439784 182.438235 
L 370.56153 182.362695 
L 371.018075 181.947218 
L 371.078948 181.909446 
L 371.23113 181.682825 
L 371.261566 181.720596 
L 371.687675 181.34289 
L 371.748548 181.267347 
L 372.083348 181.002954 
L 372.174657 180.927412 
L 372.539893 180.549708 
L 372.57033 180.587477 
L 372.661639 180.511937 
L 373.087748 180.13423 
L 373.23993 180.058691 
L 373.392111 179.832066 
L 373.422548 179.869837 
L 374.731311 178.094619 
L 375.15742 177.301437 
L 375.187857 177.301437 
L 375.49222 176.583797 
L 375.674839 176.20609 
L 378.079311 170.011716 
L 378.353239 169.180764 
L 378.93153 167.481087 
L 379.296766 166.196889 
L 381.427311 157.849591 
L 381.822984 156.074374 
L 381.94473 155.507815 
L 382.462148 153.20381 
L 382.888257 151.164199 
L 382.918693 151.088658 
L 382.918693 151.088658 
" style="fill:none;stroke:#0000ff;stroke-linecap:square;stroke-width:1.5;"/>
   </g>
   <g id="line2d_26">
    <path clip-path="url(#p3068bafec2)" d="M 78.555057 152.080815 
L 80.076875 152.175242 
L 80.229057 152.213012 
L 84.398839 152.307439 
L 84.581457 152.326324 
L 84.794511 152.288554 
L 85.007566 152.307439 
L 91.399202 152.401865 
L 91.58182 152.420751 
L 91.764439 152.420751 
L 94.473275 152.496292 
L 94.625457 152.515177 
L 94.808075 152.496292 
L 95.02113 152.515177 
L 95.234184 152.496292 
L 97.577784 152.590718 
L 97.790839 152.609604 
L 99.830075 152.70403 
L 100.073566 152.741801 
L 100.499675 152.836227 
L 101.991057 153.874918 
L 102.904148 155.178003 
L 103.786802 157.028761 
L 105.704293 163.336447 
L 110.208875 182.410588 
L 110.787166 184.166919 
L 112.126366 187.207451 
L 113.191639 188.359453 
L 113.34382 188.340568 
L 113.617748 188.283912 
L 113.739493 188.265027 
L 114.409093 187.736239 
L 114.743893 187.150795 
L 115.170002 186.16876 
L 115.504802 185.337807 
L 115.961348 183.959181 
L 117.330984 177.538183 
L 119.278911 164.771729 
L 120.313748 156.95322 
L 121.500766 146.944017 
L 121.926875 143.299156 
L 122.961711 134.102022 
L 125.335748 114.442437 
L 126.15753 109.0979 
L 126.461893 107.284913 
L 129.17073 94.348491 
L 129.962075 92.252227 
L 130.388184 91.553468 
L 130.722984 91.005792 
L 131.057784 90.609204 
L 131.879566 89.985986 
L 132.823093 88.966181 
L 133.005711 88.985069 
L 133.18833 88.985069 
L 133.553566 88.890646 
L 133.85793 88.796213 
L 134.953639 89.38166 
L 135.288439 89.287234 
L 135.592802 89.362775 
L 135.927602 89.759366 
L 136.171093 90.023757 
L 136.44502 90.193724 
L 136.810257 90.288151 
L 137.753784 91.629009 
L 138.484257 93.196488 
L 138.910366 94.877279 
L 141.89313 110.231018 
L 145.849857 140.52302 
L 148.92393 168.189966 
L 151.389275 190.13467 
L 153.94593 208.377858 
L 155.254693 214.345609 
L 155.95473 216.177482 
L 156.928693 217.782735 
L 157.111311 217.877158 
L 157.324366 218.009355 
L 157.415675 218.047126 
L 157.689602 218.141552 
L 157.841784 218.12267 
L 158.29833 217.726076 
L 159.30273 216.083059 
L 159.576657 215.573156 
L 160.033202 214.496689 
L 161.768075 208.755567 
L 162.711602 204.827427 
L 163.594257 200.011676 
L 163.807311 198.840788 
L 164.446475 194.667139 
L 167.703166 173.175682 
L 169.194548 166.301438 
L 169.59022 165.055008 
L 170.077202 163.638612 
L 170.807675 162.090018 
L 171.872948 161.523459 
L 172.055566 161.599 
L 172.177311 161.655656 
L 172.725166 162.448839 
L 173.212148 163.223135 
L 173.729566 164.394023 
L 175.28182 169.530822 
L 176.803639 177.632611 
L 180.182075 199.95502 
L 182.890911 212.872554 
L 183.499639 214.723315 
L 183.925748 215.516494 
L 184.74753 216.366332 
L 185.051893 216.290797 
L 185.721493 215.327644 
L 186.543275 212.419313 
L 187.212875 209.057729 
L 188.826002 197.31108 
L 189.556475 190.550147 
L 190.591311 179.181203 
L 192.600111 152.892883 
L 195.36982 116.576474 
L 197.46993 93.120947 
L 200.361384 65.472886 
L 201.73102 55.23706 
L 203.252839 48.230615 
L 203.618075 47.040848 
L 204.226802 45.190087 
L 204.987711 44.415784 
L 205.566002 44.86904 
L 206.052984 46.342089 
L 207.42262 51.837708 
L 209.218366 61.280352 
L 211.288039 74.802218 
L 214.088184 96.520299 
L 215.092584 104.131067 
L 219.505857 138.842229 
L 220.47982 145.282112 
L 223.310402 162.165559 
L 224.406111 168.152195 
L 226.354039 178.425793 
L 229.093311 189.832506 
L 229.975966 192.703069 
L 232.228257 198.576394 
L 232.745675 200.106102 
L 233.567457 202.410107 
L 234.054439 204.034242 
L 234.784911 206.338247 
L 236.276293 210.625211 
L 238.376402 214.326721 
L 239.22862 214.761089 
L 239.380802 214.7422 
L 240.963493 214.836624 
L 241.206984 214.874394 
L 242.698366 214.798859 
L 242.820111 214.798859 
L 243.24622 214.893286 
L 243.794075 215.327644 
L 244.159311 215.799776 
L 244.34193 216.026397 
L 246.624657 220.50221 
L 246.989893 221.276513 
L 247.172511 221.654213 
L 248.055166 223.580518 
L 248.237784 223.958218 
L 248.572584 224.656976 
L 250.185711 227.451996 
L 250.36833 227.678622 
L 250.977057 228.603999 
L 251.494475 229.340528 
L 251.95102 229.737119 
L 252.407566 229.925975 
L 252.681493 229.869316 
L 252.894548 229.774889 
L 253.107602 229.604922 
L 254.081566 228.226299 
L 254.812039 226.639929 
L 255.816439 223.183921 
L 257.186075 215.856429 
L 258.007857 210.077537 
L 259.225311 199.369576 
L 260.290584 187.717354 
L 261.538475 171.70263 
L 262.451566 158.388502 
L 265.282148 112.780532 
L 267.899675 70.760766 
L 269.45193 50.15692 
L 270.36502 40.695385 
L 271.521602 31.611562 
L 272.830366 24.926176 
L 273.286911 23.623088 
L 274.078257 22.338888 
L 274.260875 22.338888 
L 274.413057 22.414432 
L 274.900039 23.18872 
L 275.356584 24.246305 
L 275.965311 26.493655 
L 276.72622 30.251821 
L 277.913239 38.259183 
L 279.83073 55.879153 
L 283.878766 102.299194 
L 286.009311 127.378859 
L 289.905166 169.70079 
L 293.009675 197.556588 
L 294.47062 207.622447 
L 296.266366 217.02732 
L 297.422948 222.220777 
L 298.15342 224.902488 
L 298.670839 226.432197 
L 299.066511 227.395343 
L 299.91873 229.227216 
L 300.740511 230.095942 
L 300.892693 230.190369 
L 301.227493 230.303674 
L 301.562293 230.209251 
L 301.775348 230.114825 
L 302.59713 229.529381 
L 302.901493 228.925051 
L 303.205857 228.131866 
L 303.814584 225.922294 
L 304.818984 220.407787 
L 308.380039 195.34701 
L 310.480148 180.540944 
L 311.758475 172.571353 
L 314.954293 153.421671 
L 315.958693 148.435955 
L 317.754439 141.127348 
L 318.66753 138.124587 
L 321.650293 131.004834 
L 322.076402 130.306079 
L 323.01993 128.757486 
L 323.111239 128.663058 
L 323.750402 127.699909 
L 324.115639 127.076695 
L 325.302657 124.659377 
L 326.124439 122.449799 
L 326.459239 121.618846 
L 327.067966 120.089138 
L 328.37673 116.557589 
L 329.015893 114.593519 
L 330.96382 108.890162 
L 331.268184 108.115865 
L 331.846475 106.680584 
L 332.607384 105.056449 
L 332.911748 104.508775 
L 333.429166 103.507855 
L 334.768366 101.997029 
L 335.042293 101.902606 
L 335.285784 101.827062 
L 335.40753 101.827062 
L 335.803202 101.921494 
L 336.046693 102.053691 
L 336.564111 102.280312 
L 336.685857 102.318082 
L 336.898911 102.412509 
L 337.08153 102.525823 
L 337.538075 102.922411 
L 338.66422 104.471002 
L 340.277348 108.73908 
L 343.381857 122.714193 
L 344.508002 129.626207 
L 347.095093 149.720154 
L 351.264875 182.486128 
L 352.299711 190.285753 
L 353.243239 197.0278 
L 354.217202 203.071089 
L 354.82593 206.810379 
L 356.469493 215.422071 
L 358.326111 220.842145 
L 359.239202 222.334083 
L 359.787057 222.258548 
L 360.700148 220.974342 
L 362.161093 217.065094 
L 362.739384 214.912168 
L 364.017711 208.868873 
L 366.635239 191.966543 
L 367.54833 184.336887 
L 369.89193 163.053168 
L 372.326839 138.502294 
L 373.300802 129.777289 
L 374.792184 116.91641 
L 376.344439 106.189569 
L 377.531457 98.824304 
L 379.388075 90.118189 
L 380.970766 85.566835 
L 381.062075 85.41575 
L 381.731675 84.395944 
L 382.066475 84.074897 
L 382.401275 83.829385 
L 382.766511 83.716074 
L 382.918693 83.716074 
L 382.918693 83.716074 
" style="fill:none;stroke:#ff0000;stroke-linecap:square;stroke-width:1.5;"/>
   </g>
   <g id="line2d_27">
    <path clip-path="url(#p3068bafec2)" d="M 124.848766 160.984549 
" style="fill:none;stroke:#ffffff;stroke-linecap:square;stroke-width:1.5;"/>
    <defs>
     <path d="M 0 -5 
L -1.12257 -1.545085 
L -4.755283 -1.545085 
L -1.816356 0.59017 
L -2.938926 4.045085 
L -0 1.90983 
L 2.938926 4.045085 
L 1.816356 0.59017 
L 4.755283 -1.545085 
L 1.12257 -1.545085 
z
" id="m84c482a742" style="stroke:#ffffff;stroke-linejoin:bevel;"/>
    </defs>
    <g clip-path="url(#p3068bafec2)">
     <use style="fill:#0000ff;stroke:#ffffff;stroke-linejoin:bevel;" x="124.848766" xlink:href="#m84c482a742" y="160.984549"/>
    </g>
   </g>
   <g id="line2d_28">
    <path clip-path="url(#p3068bafec2)" d="M 104.39553 158.728436 
" style="fill:none;stroke:#ffffff;stroke-linecap:square;stroke-width:1.5;"/>
    <defs>
     <path d="M 0 -5 
L -1.12257 -1.545085 
L -4.755283 -1.545085 
L -1.816356 0.59017 
L -2.938926 4.045085 
L -0 1.90983 
L 2.938926 4.045085 
L 1.816356 0.59017 
L 4.755283 -1.545085 
L 1.12257 -1.545085 
z
" id="m9a388fbb2c" style="stroke:#ffffff;stroke-linejoin:bevel;"/>
    </defs>
    <g clip-path="url(#p3068bafec2)">
     <use style="fill:#ff0000;stroke:#ffffff;stroke-linejoin:bevel;" x="104.39553" xlink:href="#m9a388fbb2c" y="158.728436"/>
    </g>
   </g>
   <g id="patch_3">
    <path d="M 63.336875 339.84 
L 63.336875 7.2 
" style="fill:none;stroke:#000000;stroke-linecap:square;stroke-linejoin:miter;stroke-width:0.8;"/>
   </g>
   <g id="patch_4">
    <path d="M 398.136875 339.84 
L 398.136875 7.2 
" style="fill:none;stroke:#000000;stroke-linecap:square;stroke-linejoin:miter;stroke-width:0.8;"/>
   </g>
   <g id="patch_5">
    <path d="M 63.336875 339.84 
L 398.136875 339.84 
" style="fill:none;stroke:#000000;stroke-linecap:square;stroke-linejoin:miter;stroke-width:0.8;"/>
   </g>
   <g id="patch_6">
    <path d="M 63.336875 7.2 
L 398.136875 7.2 
" style="fill:none;stroke:#000000;stroke-linecap:square;stroke-linejoin:miter;stroke-width:0.8;"/>
   </g>
   <g id="text_15">
    <g id="patch_7">
     <path d="M 75.036875 331.242688 
L 166.79375 331.242688 
L 166.79375 293.760312 
L 75.036875 293.760312 
z
" style="fill:#ffffff;stroke:#000000;stroke-linejoin:miter;stroke-width:0.75;"/>
    </g>
    <!-- Auto_00112 -->
    <g transform="translate(80.076875 308.521563)scale(0.14 -0.14)">
     <defs>
      <path d="M 2928 1419 
L 1288 1419 
L 1000 750 
Q 894 503 894 381 
Q 894 284 986 211 
Q 1078 138 1384 116 
L 1384 0 
L 50 0 
L 50 116 
Q 316 163 394 238 
Q 553 388 747 847 
L 2238 4334 
L 2347 4334 
L 3822 809 
Q 4000 384 4145 257 
Q 4291 131 4550 116 
L 4550 0 
L 2878 0 
L 2878 116 
Q 3131 128 3220 200 
Q 3309 272 3309 375 
Q 3309 513 3184 809 
L 2928 1419 
z
M 2841 1650 
L 2122 3363 
L 1384 1650 
L 2841 1650 
z
" id="TimesNewRomanPSMT-41" transform="scale(0.015625)"/>
      <path d="M 2709 2863 
L 2709 1128 
Q 2709 631 2732 520 
Q 2756 409 2807 365 
Q 2859 322 2928 322 
Q 3025 322 3147 375 
L 3191 266 
L 2334 -88 
L 2194 -88 
L 2194 519 
Q 1825 119 1631 15 
Q 1438 -88 1222 -88 
Q 981 -88 804 51 
Q 628 191 559 409 
Q 491 628 491 1028 
L 491 2306 
Q 491 2509 447 2587 
Q 403 2666 317 2708 
Q 231 2750 6 2747 
L 6 2863 
L 1009 2863 
L 1009 947 
Q 1009 547 1148 422 
Q 1288 297 1484 297 
Q 1619 297 1789 381 
Q 1959 466 2194 703 
L 2194 2325 
Q 2194 2569 2105 2655 
Q 2016 2741 1734 2747 
L 1734 2863 
L 2709 2863 
z
" id="TimesNewRomanPSMT-75" transform="scale(0.015625)"/>
      <path d="M 3256 -1381 
L -53 -1381 
L -53 -1119 
L 3256 -1119 
L 3256 -1381 
z
" id="TimesNewRomanPSMT-5f" transform="scale(0.015625)"/>
     </defs>
     <use xlink:href="#TimesNewRomanPSMT-41"/>
     <use x="72.216797" xlink:href="#TimesNewRomanPSMT-75"/>
     <use x="122.216797" xlink:href="#TimesNewRomanPSMT-74"/>
     <use x="150" xlink:href="#TimesNewRomanPSMT-6f"/>
     <use x="200" xlink:href="#TimesNewRomanPSMT-5f"/>
     <use x="250" xlink:href="#TimesNewRomanPSMT-30"/>
     <use x="300" xlink:href="#TimesNewRomanPSMT-30"/>
     <use x="350" xlink:href="#TimesNewRomanPSMT-31"/>
     <use x="396.25" xlink:href="#TimesNewRomanPSMT-31"/>
     <use x="446.25" xlink:href="#TimesNewRomanPSMT-32"/>
    </g>
    <!-- Vs: 297.45m/s -->
    <g transform="translate(80.076875 323.208)scale(0.14 -0.14)">
     <defs>
      <path d="M 903 2950 
Q 1047 2950 1148 2848 
Q 1250 2747 1250 2603 
Q 1250 2459 1148 2357 
Q 1047 2256 903 2256 
Q 759 2256 657 2357 
Q 556 2459 556 2603 
Q 556 2747 657 2848 
Q 759 2950 903 2950 
z
M 897 609 
Q 1044 609 1145 506 
Q 1247 403 1247 259 
Q 1247 116 1144 14 
Q 1041 -88 897 -88 
Q 753 -88 651 14 
Q 550 116 550 259 
Q 550 403 651 506 
Q 753 609 897 609 
z
" id="TimesNewRomanPSMT-3a" transform="scale(0.015625)"/>
      <path d="M 338 -88 
L 338 28 
Q 744 34 1094 217 
Q 1444 400 1770 856 
Q 2097 1313 2225 1859 
Q 1734 1544 1338 1544 
Q 891 1544 572 1889 
Q 253 2234 253 2806 
Q 253 3363 572 3797 
Q 956 4325 1575 4325 
Q 2097 4325 2469 3894 
Q 2925 3359 2925 2575 
Q 2925 1869 2578 1258 
Q 2231 647 1613 244 
Q 1109 -88 516 -88 
L 338 -88 
z
M 2275 2091 
Q 2331 2497 2331 2741 
Q 2331 3044 2228 3395 
Q 2125 3747 1936 3934 
Q 1747 4122 1506 4122 
Q 1228 4122 1018 3872 
Q 809 3622 809 3128 
Q 809 2469 1088 2097 
Q 1291 1828 1588 1828 
Q 1731 1828 1928 1897 
Q 2125 1966 2275 2091 
z
" id="TimesNewRomanPSMT-39" transform="scale(0.015625)"/>
      <path d="M 644 4238 
L 2916 4238 
L 2916 4119 
L 1503 -88 
L 1153 -88 
L 2419 3728 
L 1253 3728 
Q 900 3728 750 3644 
Q 488 3500 328 3200 
L 238 3234 
L 644 4238 
z
" id="TimesNewRomanPSMT-37" transform="scale(0.015625)"/>
      <path d="M 1794 4444 
L 259 -88 
L 9 -88 
L 1544 4444 
L 1794 4444 
z
" id="TimesNewRomanPSMT-2f" transform="scale(0.015625)"/>
     </defs>
     <use xlink:href="#TimesNewRomanPSMT-56"/>
     <use x="72.216797" xlink:href="#TimesNewRomanPSMT-73"/>
     <use x="111.132812" xlink:href="#TimesNewRomanPSMT-3a"/>
     <use x="138.916016" xlink:href="#TimesNewRomanPSMT-20"/>
     <use x="163.916016" xlink:href="#TimesNewRomanPSMT-32"/>
     <use x="213.916016" xlink:href="#TimesNewRomanPSMT-39"/>
     <use x="263.916016" xlink:href="#TimesNewRomanPSMT-37"/>
     <use x="313.916016" xlink:href="#TimesNewRomanPSMT-2e"/>
     <use x="338.916016" xlink:href="#TimesNewRomanPSMT-34"/>
     <use x="388.916016" xlink:href="#TimesNewRomanPSMT-35"/>
     <use x="438.916016" xlink:href="#TimesNewRomanPSMT-6d"/>
     <use x="516.699219" xlink:href="#TimesNewRomanPSMT-2f"/>
     <use x="544.482422" xlink:href="#TimesNewRomanPSMT-73"/>
    </g>
   </g>
  </g>
 </g>
 <defs>
  <clipPath id="p3068bafec2">
   <rect height="332.64" width="334.8" x="63.336875" y="7.2"/>
  </clipPath>
 </defs>
</svg>
