<?xml version="1.0" encoding="utf-8" standalone="no"?>
<!DOCTYPE svg PUBLIC "-//W3C//DTD SVG 1.1//EN"
  "http://www.w3.org/Graphics/SVG/1.1/DTD/svg11.dtd">
<svg height="383.471875pt" version="1.1" viewBox="0 0 421.086875 383.471875" width="421.086875pt" xmlns="http://www.w3.org/2000/svg" xmlns:xlink="http://www.w3.org/1999/xlink">
 <metadata>
  <rdf:RDF xmlns:cc="http://creativecommons.org/ns#" xmlns:dc="http://purl.org/dc/elements/1.1/" xmlns:rdf="http://www.w3.org/1999/02/22-rdf-syntax-ns#">
   <cc:Work>
    <dc:type rdf:resource="http://purl.org/dc/dcmitype/StillImage"/>
    <dc:date>2021-06-11T14:39:36.948424</dc:date>
    <dc:format>image/svg+xml</dc:format>
    <dc:creator>
     <cc:Agent>
      <dc:title>Matplotlib v3.4.2, https://matplotlib.org/</dc:title>
     </cc:Agent>
    </dc:creator>
   </cc:Work>
  </rdf:RDF>
 </metadata>
 <defs>
  <style type="text/css">*{stroke-linecap:butt;stroke-linejoin:round;}</style>
 </defs>
 <g id="figure_1">
  <g id="patch_1">
   <path d="M 0 383.471875 
L 421.086875 383.471875 
L 421.086875 0 
L 0 0 
z
" style="fill:#ffffff;"/>
  </g>
  <g id="axes_1">
   <g id="patch_2">
    <path d="M 63.336875 339.84 
L 398.136875 339.84 
L 398.136875 7.2 
L 63.336875 7.2 
z
" style="fill:#ffffff;"/>
   </g>
   <g id="matplotlib.axis_1">
    <g id="xtick_1">
     <g id="line2d_1">
      <path clip-path="url(#p0c912af134)" d="M 93.773239 339.84 
L 93.773239 7.2 
" style="fill:none;stroke:#000000;stroke-dasharray:0.5,0.825;stroke-dashoffset:0;stroke-width:0.5;"/>
     </g>
     <g id="line2d_2">
      <defs>
       <path d="M 0 0 
L 0 3.5 
" id="m6c16b7d7b0" style="stroke:#000000;stroke-width:0.8;"/>
      </defs>
      <g>
       <use style="stroke:#000000;stroke-width:0.8;" x="93.773239" xlink:href="#m6c16b7d7b0" y="339.84"/>
      </g>
     </g>
     <g id="text_1">
      <!-- 0.000 -->
      <g transform="translate(78.023239 356.56125)scale(0.14 -0.14)">
       <defs>
        <path d="M 231 2094 
Q 231 2819 450 3342 
Q 669 3866 1031 4122 
Q 1313 4325 1613 4325 
Q 2100 4325 2488 3828 
Q 2972 3213 2972 2159 
Q 2972 1422 2759 906 
Q 2547 391 2217 158 
Q 1888 -75 1581 -75 
Q 975 -75 572 641 
Q 231 1244 231 2094 
z
M 844 2016 
Q 844 1141 1059 588 
Q 1238 122 1591 122 
Q 1759 122 1940 273 
Q 2122 425 2216 781 
Q 2359 1319 2359 2297 
Q 2359 3022 2209 3506 
Q 2097 3866 1919 4016 
Q 1791 4119 1609 4119 
Q 1397 4119 1231 3928 
Q 1006 3669 925 3112 
Q 844 2556 844 2016 
z
" id="TimesNewRomanPSMT-30" transform="scale(0.015625)"/>
        <path d="M 800 606 
Q 947 606 1047 504 
Q 1147 403 1147 259 
Q 1147 116 1045 14 
Q 944 -88 800 -88 
Q 656 -88 554 14 
Q 453 116 453 259 
Q 453 406 554 506 
Q 656 606 800 606 
z
" id="TimesNewRomanPSMT-2e" transform="scale(0.015625)"/>
       </defs>
       <use xlink:href="#TimesNewRomanPSMT-30"/>
       <use x="50" xlink:href="#TimesNewRomanPSMT-2e"/>
       <use x="75" xlink:href="#TimesNewRomanPSMT-30"/>
       <use x="125" xlink:href="#TimesNewRomanPSMT-30"/>
       <use x="175" xlink:href="#TimesNewRomanPSMT-30"/>
      </g>
     </g>
    </g>
    <g id="xtick_2">
     <g id="line2d_3">
      <path clip-path="url(#p0c912af134)" d="M 154.645966 339.84 
L 154.645966 7.2 
" style="fill:none;stroke:#000000;stroke-dasharray:0.5,0.825;stroke-dashoffset:0;stroke-width:0.5;"/>
     </g>
     <g id="line2d_4">
      <g>
       <use style="stroke:#000000;stroke-width:0.8;" x="154.645966" xlink:href="#m6c16b7d7b0" y="339.84"/>
      </g>
     </g>
     <g id="text_2">
      <!-- 0.001 -->
      <g transform="translate(138.895966 356.56125)scale(0.14 -0.14)">
       <defs>
        <path d="M 750 3822 
L 1781 4325 
L 1884 4325 
L 1884 747 
Q 1884 391 1914 303 
Q 1944 216 2037 169 
Q 2131 122 2419 116 
L 2419 0 
L 825 0 
L 825 116 
Q 1125 122 1212 167 
Q 1300 213 1334 289 
Q 1369 366 1369 747 
L 1369 3034 
Q 1369 3497 1338 3628 
Q 1316 3728 1258 3775 
Q 1200 3822 1119 3822 
Q 1003 3822 797 3725 
L 750 3822 
z
" id="TimesNewRomanPSMT-31" transform="scale(0.015625)"/>
       </defs>
       <use xlink:href="#TimesNewRomanPSMT-30"/>
       <use x="50" xlink:href="#TimesNewRomanPSMT-2e"/>
       <use x="75" xlink:href="#TimesNewRomanPSMT-30"/>
       <use x="125" xlink:href="#TimesNewRomanPSMT-30"/>
       <use x="175" xlink:href="#TimesNewRomanPSMT-31"/>
      </g>
     </g>
    </g>
    <g id="xtick_3">
     <g id="line2d_5">
      <path clip-path="url(#p0c912af134)" d="M 215.518693 339.84 
L 215.518693 7.2 
" style="fill:none;stroke:#000000;stroke-dasharray:0.5,0.825;stroke-dashoffset:0;stroke-width:0.5;"/>
     </g>
     <g id="line2d_6">
      <g>
       <use style="stroke:#000000;stroke-width:0.8;" x="215.518693" xlink:href="#m6c16b7d7b0" y="339.84"/>
      </g>
     </g>
     <g id="text_3">
      <!-- 0.002 -->
      <g transform="translate(199.768693 356.56125)scale(0.14 -0.14)">
       <defs>
        <path d="M 2934 816 
L 2638 0 
L 138 0 
L 138 116 
Q 1241 1122 1691 1759 
Q 2141 2397 2141 2925 
Q 2141 3328 1894 3587 
Q 1647 3847 1303 3847 
Q 991 3847 742 3664 
Q 494 3481 375 3128 
L 259 3128 
Q 338 3706 661 4015 
Q 984 4325 1469 4325 
Q 1984 4325 2329 3994 
Q 2675 3663 2675 3213 
Q 2675 2891 2525 2569 
Q 2294 2063 1775 1497 
Q 997 647 803 472 
L 1909 472 
Q 2247 472 2383 497 
Q 2519 522 2628 598 
Q 2738 675 2819 816 
L 2934 816 
z
" id="TimesNewRomanPSMT-32" transform="scale(0.015625)"/>
       </defs>
       <use xlink:href="#TimesNewRomanPSMT-30"/>
       <use x="50" xlink:href="#TimesNewRomanPSMT-2e"/>
       <use x="75" xlink:href="#TimesNewRomanPSMT-30"/>
       <use x="125" xlink:href="#TimesNewRomanPSMT-30"/>
       <use x="175" xlink:href="#TimesNewRomanPSMT-32"/>
      </g>
     </g>
    </g>
    <g id="xtick_4">
     <g id="line2d_7">
      <path clip-path="url(#p0c912af134)" d="M 276.39142 339.84 
L 276.39142 7.2 
" style="fill:none;stroke:#000000;stroke-dasharray:0.5,0.825;stroke-dashoffset:0;stroke-width:0.5;"/>
     </g>
     <g id="line2d_8">
      <g>
       <use style="stroke:#000000;stroke-width:0.8;" x="276.39142" xlink:href="#m6c16b7d7b0" y="339.84"/>
      </g>
     </g>
     <g id="text_4">
      <!-- 0.003 -->
      <g transform="translate(260.64142 356.56125)scale(0.14 -0.14)">
       <defs>
        <path d="M 325 3431 
Q 506 3859 782 4092 
Q 1059 4325 1472 4325 
Q 1981 4325 2253 3994 
Q 2459 3747 2459 3466 
Q 2459 3003 1878 2509 
Q 2269 2356 2469 2072 
Q 2669 1788 2669 1403 
Q 2669 853 2319 450 
Q 1863 -75 997 -75 
Q 569 -75 414 31 
Q 259 138 259 259 
Q 259 350 332 419 
Q 406 488 509 488 
Q 588 488 669 463 
Q 722 447 909 348 
Q 1097 250 1169 231 
Q 1284 197 1416 197 
Q 1734 197 1970 444 
Q 2206 691 2206 1028 
Q 2206 1275 2097 1509 
Q 2016 1684 1919 1775 
Q 1784 1900 1550 2001 
Q 1316 2103 1072 2103 
L 972 2103 
L 972 2197 
Q 1219 2228 1467 2375 
Q 1716 2522 1828 2728 
Q 1941 2934 1941 3181 
Q 1941 3503 1739 3701 
Q 1538 3900 1238 3900 
Q 753 3900 428 3381 
L 325 3431 
z
" id="TimesNewRomanPSMT-33" transform="scale(0.015625)"/>
       </defs>
       <use xlink:href="#TimesNewRomanPSMT-30"/>
       <use x="50" xlink:href="#TimesNewRomanPSMT-2e"/>
       <use x="75" xlink:href="#TimesNewRomanPSMT-30"/>
       <use x="125" xlink:href="#TimesNewRomanPSMT-30"/>
       <use x="175" xlink:href="#TimesNewRomanPSMT-33"/>
      </g>
     </g>
    </g>
    <g id="xtick_5">
     <g id="line2d_9">
      <path clip-path="url(#p0c912af134)" d="M 337.264148 339.84 
L 337.264148 7.2 
" style="fill:none;stroke:#000000;stroke-dasharray:0.5,0.825;stroke-dashoffset:0;stroke-width:0.5;"/>
     </g>
     <g id="line2d_10">
      <g>
       <use style="stroke:#000000;stroke-width:0.8;" x="337.264148" xlink:href="#m6c16b7d7b0" y="339.84"/>
      </g>
     </g>
     <g id="text_5">
      <!-- 0.004 -->
      <g transform="translate(321.514148 356.56125)scale(0.14 -0.14)">
       <defs>
        <path d="M 2978 1563 
L 2978 1119 
L 2409 1119 
L 2409 0 
L 1894 0 
L 1894 1119 
L 100 1119 
L 100 1519 
L 2066 4325 
L 2409 4325 
L 2409 1563 
L 2978 1563 
z
M 1894 1563 
L 1894 3666 
L 406 1563 
L 1894 1563 
z
" id="TimesNewRomanPSMT-34" transform="scale(0.015625)"/>
       </defs>
       <use xlink:href="#TimesNewRomanPSMT-30"/>
       <use x="50" xlink:href="#TimesNewRomanPSMT-2e"/>
       <use x="75" xlink:href="#TimesNewRomanPSMT-30"/>
       <use x="125" xlink:href="#TimesNewRomanPSMT-30"/>
       <use x="175" xlink:href="#TimesNewRomanPSMT-34"/>
      </g>
     </g>
    </g>
    <g id="xtick_6">
     <g id="line2d_11">
      <path clip-path="url(#p0c912af134)" d="M 398.136875 339.84 
L 398.136875 7.2 
" style="fill:none;stroke:#000000;stroke-dasharray:0.5,0.825;stroke-dashoffset:0;stroke-width:0.5;"/>
     </g>
     <g id="line2d_12">
      <g>
       <use style="stroke:#000000;stroke-width:0.8;" x="398.136875" xlink:href="#m6c16b7d7b0" y="339.84"/>
      </g>
     </g>
     <g id="text_6">
      <!-- 0.005 -->
      <g transform="translate(382.386875 356.56125)scale(0.14 -0.14)">
       <defs>
        <path d="M 2778 4238 
L 2534 3706 
L 1259 3706 
L 981 3138 
Q 1809 3016 2294 2522 
Q 2709 2097 2709 1522 
Q 2709 1188 2573 903 
Q 2438 619 2231 419 
Q 2025 219 1772 97 
Q 1413 -75 1034 -75 
Q 653 -75 479 54 
Q 306 184 306 341 
Q 306 428 378 495 
Q 450 563 559 563 
Q 641 563 702 538 
Q 763 513 909 409 
Q 1144 247 1384 247 
Q 1750 247 2026 523 
Q 2303 800 2303 1197 
Q 2303 1581 2056 1914 
Q 1809 2247 1375 2428 
Q 1034 2569 447 2591 
L 1259 4238 
L 2778 4238 
z
" id="TimesNewRomanPSMT-35" transform="scale(0.015625)"/>
       </defs>
       <use xlink:href="#TimesNewRomanPSMT-30"/>
       <use x="50" xlink:href="#TimesNewRomanPSMT-2e"/>
       <use x="75" xlink:href="#TimesNewRomanPSMT-30"/>
       <use x="125" xlink:href="#TimesNewRomanPSMT-30"/>
       <use x="175" xlink:href="#TimesNewRomanPSMT-35"/>
      </g>
     </g>
    </g>
    <g id="text_7">
     <!-- Time (sec) -->
     <g transform="translate(200.858906 373.277188)scale(0.14 -0.14)">
      <defs>
       <path d="M 3703 4238 
L 3750 3244 
L 3631 3244 
Q 3597 3506 3538 3619 
Q 3441 3800 3280 3886 
Q 3119 3972 2856 3972 
L 2259 3972 
L 2259 734 
Q 2259 344 2344 247 
Q 2463 116 2709 116 
L 2856 116 
L 2856 0 
L 1059 0 
L 1059 116 
L 1209 116 
Q 1478 116 1591 278 
Q 1659 378 1659 734 
L 1659 3972 
L 1150 3972 
Q 853 3972 728 3928 
Q 566 3869 450 3700 
Q 334 3531 313 3244 
L 194 3244 
L 244 4238 
L 3703 4238 
z
" id="TimesNewRomanPSMT-54" transform="scale(0.015625)"/>
       <path d="M 928 4444 
Q 1059 4444 1151 4351 
Q 1244 4259 1244 4128 
Q 1244 3997 1151 3903 
Q 1059 3809 928 3809 
Q 797 3809 703 3903 
Q 609 3997 609 4128 
Q 609 4259 701 4351 
Q 794 4444 928 4444 
z
M 1188 2947 
L 1188 647 
Q 1188 378 1227 289 
Q 1266 200 1342 156 
Q 1419 113 1622 113 
L 1622 0 
L 231 0 
L 231 113 
Q 441 113 512 153 
Q 584 194 626 287 
Q 669 381 669 647 
L 669 1750 
Q 669 2216 641 2353 
Q 619 2453 572 2492 
Q 525 2531 444 2531 
Q 356 2531 231 2484 
L 188 2597 
L 1050 2947 
L 1188 2947 
z
" id="TimesNewRomanPSMT-69" transform="scale(0.015625)"/>
       <path d="M 1050 2338 
Q 1363 2650 1419 2697 
Q 1559 2816 1721 2881 
Q 1884 2947 2044 2947 
Q 2313 2947 2506 2790 
Q 2700 2634 2766 2338 
Q 3088 2713 3309 2830 
Q 3531 2947 3766 2947 
Q 3994 2947 4170 2830 
Q 4347 2713 4450 2447 
Q 4519 2266 4519 1878 
L 4519 647 
Q 4519 378 4559 278 
Q 4591 209 4675 161 
Q 4759 113 4950 113 
L 4950 0 
L 3538 0 
L 3538 113 
L 3597 113 
Q 3781 113 3884 184 
Q 3956 234 3988 344 
Q 4000 397 4000 647 
L 4000 1878 
Q 4000 2228 3916 2372 
Q 3794 2572 3525 2572 
Q 3359 2572 3192 2489 
Q 3025 2406 2788 2181 
L 2781 2147 
L 2788 2013 
L 2788 647 
Q 2788 353 2820 281 
Q 2853 209 2943 161 
Q 3034 113 3253 113 
L 3253 0 
L 1806 0 
L 1806 113 
Q 2044 113 2133 169 
Q 2222 225 2256 338 
Q 2272 391 2272 647 
L 2272 1878 
Q 2272 2228 2169 2381 
Q 2031 2581 1784 2581 
Q 1616 2581 1450 2491 
Q 1191 2353 1050 2181 
L 1050 647 
Q 1050 366 1089 281 
Q 1128 197 1204 155 
Q 1281 113 1516 113 
L 1516 0 
L 100 0 
L 100 113 
Q 297 113 375 155 
Q 453 197 493 289 
Q 534 381 534 647 
L 534 1741 
Q 534 2213 506 2350 
Q 484 2453 437 2492 
Q 391 2531 309 2531 
Q 222 2531 100 2484 
L 53 2597 
L 916 2947 
L 1050 2947 
L 1050 2338 
z
" id="TimesNewRomanPSMT-6d" transform="scale(0.015625)"/>
       <path d="M 681 1784 
Q 678 1147 991 784 
Q 1303 422 1725 422 
Q 2006 422 2214 576 
Q 2422 731 2563 1106 
L 2659 1044 
Q 2594 616 2278 264 
Q 1963 -88 1488 -88 
Q 972 -88 605 314 
Q 238 716 238 1394 
Q 238 2128 614 2539 
Q 991 2950 1559 2950 
Q 2041 2950 2350 2633 
Q 2659 2316 2659 1784 
L 681 1784 
z
M 681 1966 
L 2006 1966 
Q 1991 2241 1941 2353 
Q 1863 2528 1708 2628 
Q 1553 2728 1384 2728 
Q 1125 2728 920 2526 
Q 716 2325 681 1966 
z
" id="TimesNewRomanPSMT-65" transform="scale(0.015625)"/>
       <path id="TimesNewRomanPSMT-20" transform="scale(0.015625)"/>
       <path d="M 1988 -1253 
L 1988 -1369 
Q 1516 -1131 1200 -813 
Q 750 -359 506 256 
Q 263 872 263 1534 
Q 263 2503 741 3301 
Q 1219 4100 1988 4444 
L 1988 4313 
Q 1603 4100 1356 3731 
Q 1109 3363 987 2797 
Q 866 2231 866 1616 
Q 866 947 969 400 
Q 1050 -31 1165 -292 
Q 1281 -553 1476 -793 
Q 1672 -1034 1988 -1253 
z
" id="TimesNewRomanPSMT-28" transform="scale(0.015625)"/>
       <path d="M 2050 2947 
L 2050 1972 
L 1947 1972 
Q 1828 2431 1642 2597 
Q 1456 2763 1169 2763 
Q 950 2763 815 2647 
Q 681 2531 681 2391 
Q 681 2216 781 2091 
Q 878 1963 1175 1819 
L 1631 1597 
Q 2266 1288 2266 781 
Q 2266 391 1970 151 
Q 1675 -88 1309 -88 
Q 1047 -88 709 6 
Q 606 38 541 38 
Q 469 38 428 -44 
L 325 -44 
L 325 978 
L 428 978 
Q 516 541 762 319 
Q 1009 97 1316 97 
Q 1531 97 1667 223 
Q 1803 350 1803 528 
Q 1803 744 1651 891 
Q 1500 1038 1047 1263 
Q 594 1488 453 1669 
Q 313 1847 313 2119 
Q 313 2472 555 2709 
Q 797 2947 1181 2947 
Q 1350 2947 1591 2875 
Q 1750 2828 1803 2828 
Q 1853 2828 1881 2850 
Q 1909 2872 1947 2947 
L 2050 2947 
z
" id="TimesNewRomanPSMT-73" transform="scale(0.015625)"/>
       <path d="M 2631 1088 
Q 2516 522 2178 217 
Q 1841 -88 1431 -88 
Q 944 -88 581 321 
Q 219 731 219 1428 
Q 219 2103 620 2525 
Q 1022 2947 1584 2947 
Q 2006 2947 2278 2723 
Q 2550 2500 2550 2259 
Q 2550 2141 2473 2067 
Q 2397 1994 2259 1994 
Q 2075 1994 1981 2113 
Q 1928 2178 1911 2362 
Q 1894 2547 1784 2644 
Q 1675 2738 1481 2738 
Q 1169 2738 978 2506 
Q 725 2200 725 1697 
Q 725 1184 976 792 
Q 1228 400 1656 400 
Q 1963 400 2206 609 
Q 2378 753 2541 1131 
L 2631 1088 
z
" id="TimesNewRomanPSMT-63" transform="scale(0.015625)"/>
       <path d="M 144 4313 
L 144 4444 
Q 619 4209 934 3891 
Q 1381 3434 1625 2820 
Q 1869 2206 1869 1541 
Q 1869 572 1392 -226 
Q 916 -1025 144 -1369 
L 144 -1253 
Q 528 -1038 776 -670 
Q 1025 -303 1145 264 
Q 1266 831 1266 1447 
Q 1266 2113 1163 2663 
Q 1084 3094 967 3353 
Q 850 3613 656 3853 
Q 463 4094 144 4313 
z
" id="TimesNewRomanPSMT-29" transform="scale(0.015625)"/>
      </defs>
      <use xlink:href="#TimesNewRomanPSMT-54"/>
      <use x="57.583984" xlink:href="#TimesNewRomanPSMT-69"/>
      <use x="85.367188" xlink:href="#TimesNewRomanPSMT-6d"/>
      <use x="163.150391" xlink:href="#TimesNewRomanPSMT-65"/>
      <use x="207.535156" xlink:href="#TimesNewRomanPSMT-20"/>
      <use x="232.535156" xlink:href="#TimesNewRomanPSMT-28"/>
      <use x="265.835938" xlink:href="#TimesNewRomanPSMT-73"/>
      <use x="304.751953" xlink:href="#TimesNewRomanPSMT-65"/>
      <use x="349.136719" xlink:href="#TimesNewRomanPSMT-63"/>
      <use x="393.521484" xlink:href="#TimesNewRomanPSMT-29"/>
     </g>
    </g>
   </g>
   <g id="matplotlib.axis_2">
    <g id="ytick_1">
     <g id="line2d_13">
      <path clip-path="url(#p0c912af134)" d="M 63.336875 334.358239 
L 398.136875 334.358239 
" style="fill:none;stroke:#000000;stroke-dasharray:0.5,0.825;stroke-dashoffset:0;stroke-width:0.5;"/>
     </g>
     <g id="line2d_14">
      <defs>
       <path d="M 0 0 
L -3.5 0 
" id="m947494253d" style="stroke:#000000;stroke-width:0.8;"/>
      </defs>
      <g>
       <use style="stroke:#000000;stroke-width:0.8;" x="63.336875" xlink:href="#m947494253d" y="334.358239"/>
      </g>
     </g>
     <g id="text_8">
      <!-- −0.08 -->
      <g transform="translate(23.942188 339.218864)scale(0.14 -0.14)">
       <defs>
        <path d="M 3484 2000 
L 116 2000 
L 116 2256 
L 3484 2256 
L 3484 2000 
z
" id="TimesNewRomanPSMT-2212" transform="scale(0.015625)"/>
        <path d="M 1228 2134 
Q 725 2547 579 2797 
Q 434 3047 434 3316 
Q 434 3728 753 4026 
Q 1072 4325 1600 4325 
Q 2113 4325 2425 4047 
Q 2738 3769 2738 3413 
Q 2738 3175 2569 2928 
Q 2400 2681 1866 2347 
Q 2416 1922 2594 1678 
Q 2831 1359 2831 1006 
Q 2831 559 2490 242 
Q 2150 -75 1597 -75 
Q 994 -75 656 303 
Q 388 606 388 966 
Q 388 1247 577 1523 
Q 766 1800 1228 2134 
z
M 1719 2469 
Q 2094 2806 2194 3001 
Q 2294 3197 2294 3444 
Q 2294 3772 2109 3958 
Q 1925 4144 1606 4144 
Q 1288 4144 1088 3959 
Q 888 3775 888 3528 
Q 888 3366 970 3203 
Q 1053 3041 1206 2894 
L 1719 2469 
z
M 1375 2016 
Q 1116 1797 991 1539 
Q 866 1281 866 981 
Q 866 578 1086 336 
Q 1306 94 1647 94 
Q 1984 94 2187 284 
Q 2391 475 2391 747 
Q 2391 972 2272 1150 
Q 2050 1481 1375 2016 
z
" id="TimesNewRomanPSMT-38" transform="scale(0.015625)"/>
       </defs>
       <use xlink:href="#TimesNewRomanPSMT-2212"/>
       <use x="56.396484" xlink:href="#TimesNewRomanPSMT-30"/>
       <use x="106.396484" xlink:href="#TimesNewRomanPSMT-2e"/>
       <use x="131.396484" xlink:href="#TimesNewRomanPSMT-30"/>
       <use x="181.396484" xlink:href="#TimesNewRomanPSMT-38"/>
      </g>
     </g>
    </g>
    <g id="ytick_2">
     <g id="line2d_15">
      <path clip-path="url(#p0c912af134)" d="M 63.336875 290.424707 
L 398.136875 290.424707 
" style="fill:none;stroke:#000000;stroke-dasharray:0.5,0.825;stroke-dashoffset:0;stroke-width:0.5;"/>
     </g>
     <g id="line2d_16">
      <g>
       <use style="stroke:#000000;stroke-width:0.8;" x="63.336875" xlink:href="#m947494253d" y="290.424707"/>
      </g>
     </g>
     <g id="text_9">
      <!-- −0.06 -->
      <g transform="translate(23.942188 295.285332)scale(0.14 -0.14)">
       <defs>
        <path d="M 2869 4325 
L 2869 4209 
Q 2456 4169 2195 4045 
Q 1934 3922 1679 3669 
Q 1425 3416 1258 3105 
Q 1091 2794 978 2366 
Q 1428 2675 1881 2675 
Q 2316 2675 2634 2325 
Q 2953 1975 2953 1425 
Q 2953 894 2631 456 
Q 2244 -75 1606 -75 
Q 1172 -75 869 213 
Q 275 772 275 1663 
Q 275 2231 503 2743 
Q 731 3256 1154 3653 
Q 1578 4050 1965 4187 
Q 2353 4325 2688 4325 
L 2869 4325 
z
M 925 2138 
Q 869 1716 869 1456 
Q 869 1156 980 804 
Q 1091 453 1309 247 
Q 1469 100 1697 100 
Q 1969 100 2183 356 
Q 2397 613 2397 1088 
Q 2397 1622 2184 2012 
Q 1972 2403 1581 2403 
Q 1463 2403 1327 2353 
Q 1191 2303 925 2138 
z
" id="TimesNewRomanPSMT-36" transform="scale(0.015625)"/>
       </defs>
       <use xlink:href="#TimesNewRomanPSMT-2212"/>
       <use x="56.396484" xlink:href="#TimesNewRomanPSMT-30"/>
       <use x="106.396484" xlink:href="#TimesNewRomanPSMT-2e"/>
       <use x="131.396484" xlink:href="#TimesNewRomanPSMT-30"/>
       <use x="181.396484" xlink:href="#TimesNewRomanPSMT-36"/>
      </g>
     </g>
    </g>
    <g id="ytick_3">
     <g id="line2d_17">
      <path clip-path="url(#p0c912af134)" d="M 63.336875 246.491176 
L 398.136875 246.491176 
" style="fill:none;stroke:#000000;stroke-dasharray:0.5,0.825;stroke-dashoffset:0;stroke-width:0.5;"/>
     </g>
     <g id="line2d_18">
      <g>
       <use style="stroke:#000000;stroke-width:0.8;" x="63.336875" xlink:href="#m947494253d" y="246.491176"/>
      </g>
     </g>
     <g id="text_10">
      <!-- −0.04 -->
      <g transform="translate(23.942188 251.351801)scale(0.14 -0.14)">
       <use xlink:href="#TimesNewRomanPSMT-2212"/>
       <use x="56.396484" xlink:href="#TimesNewRomanPSMT-30"/>
       <use x="106.396484" xlink:href="#TimesNewRomanPSMT-2e"/>
       <use x="131.396484" xlink:href="#TimesNewRomanPSMT-30"/>
       <use x="181.396484" xlink:href="#TimesNewRomanPSMT-34"/>
      </g>
     </g>
    </g>
    <g id="ytick_4">
     <g id="line2d_19">
      <path clip-path="url(#p0c912af134)" d="M 63.336875 202.557644 
L 398.136875 202.557644 
" style="fill:none;stroke:#000000;stroke-dasharray:0.5,0.825;stroke-dashoffset:0;stroke-width:0.5;"/>
     </g>
     <g id="line2d_20">
      <g>
       <use style="stroke:#000000;stroke-width:0.8;" x="63.336875" xlink:href="#m947494253d" y="202.557644"/>
      </g>
     </g>
     <g id="text_11">
      <!-- −0.02 -->
      <g transform="translate(23.942188 207.418269)scale(0.14 -0.14)">
       <use xlink:href="#TimesNewRomanPSMT-2212"/>
       <use x="56.396484" xlink:href="#TimesNewRomanPSMT-30"/>
       <use x="106.396484" xlink:href="#TimesNewRomanPSMT-2e"/>
       <use x="131.396484" xlink:href="#TimesNewRomanPSMT-30"/>
       <use x="181.396484" xlink:href="#TimesNewRomanPSMT-32"/>
      </g>
     </g>
    </g>
    <g id="ytick_5">
     <g id="line2d_21">
      <path clip-path="url(#p0c912af134)" d="M 63.336875 158.624112 
L 398.136875 158.624112 
" style="fill:none;stroke:#000000;stroke-dasharray:0.5,0.825;stroke-dashoffset:0;stroke-width:0.5;"/>
     </g>
     <g id="line2d_22">
      <g>
       <use style="stroke:#000000;stroke-width:0.8;" x="63.336875" xlink:href="#m947494253d" y="158.624112"/>
      </g>
     </g>
     <g id="text_12">
      <!-- 0.00 -->
      <g transform="translate(31.836875 163.484737)scale(0.14 -0.14)">
       <use xlink:href="#TimesNewRomanPSMT-30"/>
       <use x="50" xlink:href="#TimesNewRomanPSMT-2e"/>
       <use x="75" xlink:href="#TimesNewRomanPSMT-30"/>
       <use x="125" xlink:href="#TimesNewRomanPSMT-30"/>
      </g>
     </g>
    </g>
    <g id="ytick_6">
     <g id="line2d_23">
      <path clip-path="url(#p0c912af134)" d="M 63.336875 114.69058 
L 398.136875 114.69058 
" style="fill:none;stroke:#000000;stroke-dasharray:0.5,0.825;stroke-dashoffset:0;stroke-width:0.5;"/>
     </g>
     <g id="line2d_24">
      <g>
       <use style="stroke:#000000;stroke-width:0.8;" x="63.336875" xlink:href="#m947494253d" y="114.69058"/>
      </g>
     </g>
     <g id="text_13">
      <!-- 0.02 -->
      <g transform="translate(31.836875 119.551205)scale(0.14 -0.14)">
       <use xlink:href="#TimesNewRomanPSMT-30"/>
       <use x="50" xlink:href="#TimesNewRomanPSMT-2e"/>
       <use x="75" xlink:href="#TimesNewRomanPSMT-30"/>
       <use x="125" xlink:href="#TimesNewRomanPSMT-32"/>
      </g>
     </g>
    </g>
    <g id="ytick_7">
     <g id="line2d_25">
      <path clip-path="url(#p0c912af134)" d="M 63.336875 70.757048 
L 398.136875 70.757048 
" style="fill:none;stroke:#000000;stroke-dasharray:0.5,0.825;stroke-dashoffset:0;stroke-width:0.5;"/>
     </g>
     <g id="line2d_26">
      <g>
       <use style="stroke:#000000;stroke-width:0.8;" x="63.336875" xlink:href="#m947494253d" y="70.757048"/>
      </g>
     </g>
     <g id="text_14">
      <!-- 0.04 -->
      <g transform="translate(31.836875 75.617673)scale(0.14 -0.14)">
       <use xlink:href="#TimesNewRomanPSMT-30"/>
       <use x="50" xlink:href="#TimesNewRomanPSMT-2e"/>
       <use x="75" xlink:href="#TimesNewRomanPSMT-30"/>
       <use x="125" xlink:href="#TimesNewRomanPSMT-34"/>
      </g>
     </g>
    </g>
    <g id="ytick_8">
     <g id="line2d_27">
      <path clip-path="url(#p0c912af134)" d="M 63.336875 26.823517 
L 398.136875 26.823517 
" style="fill:none;stroke:#000000;stroke-dasharray:0.5,0.825;stroke-dashoffset:0;stroke-width:0.5;"/>
     </g>
     <g id="line2d_28">
      <g>
       <use style="stroke:#000000;stroke-width:0.8;" x="63.336875" xlink:href="#m947494253d" y="26.823517"/>
      </g>
     </g>
     <g id="text_15">
      <!-- 0.06 -->
      <g transform="translate(31.836875 31.684142)scale(0.14 -0.14)">
       <use xlink:href="#TimesNewRomanPSMT-30"/>
       <use x="50" xlink:href="#TimesNewRomanPSMT-2e"/>
       <use x="75" xlink:href="#TimesNewRomanPSMT-30"/>
       <use x="125" xlink:href="#TimesNewRomanPSMT-36"/>
      </g>
     </g>
    </g>
    <g id="text_16">
     <!-- Volatage (V) -->
     <g transform="translate(16.92125 209.352344)rotate(-90)scale(0.14 -0.14)">
      <defs>
       <path d="M 4544 4238 
L 4544 4122 
Q 4319 4081 4203 3978 
Q 4038 3825 3909 3509 
L 2431 -97 
L 2316 -97 
L 728 3556 
Q 606 3838 556 3900 
Q 478 3997 364 4051 
Q 250 4106 56 4122 
L 56 4238 
L 1788 4238 
L 1788 4122 
Q 1494 4094 1406 4022 
Q 1319 3950 1319 3838 
Q 1319 3681 1463 3350 
L 2541 866 
L 3541 3319 
Q 3688 3681 3688 3822 
Q 3688 3913 3597 3995 
Q 3506 4078 3291 4113 
Q 3275 4116 3238 4122 
L 3238 4238 
L 4544 4238 
z
" id="TimesNewRomanPSMT-56" transform="scale(0.015625)"/>
       <path d="M 1600 2947 
Q 2250 2947 2644 2453 
Q 2978 2031 2978 1484 
Q 2978 1100 2793 706 
Q 2609 313 2286 112 
Q 1963 -88 1566 -88 
Q 919 -88 538 428 
Q 216 863 216 1403 
Q 216 1797 411 2186 
Q 606 2575 925 2761 
Q 1244 2947 1600 2947 
z
M 1503 2744 
Q 1338 2744 1170 2645 
Q 1003 2547 900 2300 
Q 797 2053 797 1666 
Q 797 1041 1045 587 
Q 1294 134 1700 134 
Q 2003 134 2200 384 
Q 2397 634 2397 1244 
Q 2397 2006 2069 2444 
Q 1847 2744 1503 2744 
z
" id="TimesNewRomanPSMT-6f" transform="scale(0.015625)"/>
       <path d="M 1184 4444 
L 1184 647 
Q 1184 378 1223 290 
Q 1263 203 1344 158 
Q 1425 113 1647 113 
L 1647 0 
L 244 0 
L 244 113 
Q 441 113 512 153 
Q 584 194 625 287 
Q 666 381 666 647 
L 666 3247 
Q 666 3731 644 3842 
Q 622 3953 573 3993 
Q 525 4034 450 4034 
Q 369 4034 244 3984 
L 191 4094 
L 1044 4444 
L 1184 4444 
z
" id="TimesNewRomanPSMT-6c" transform="scale(0.015625)"/>
       <path d="M 1822 413 
Q 1381 72 1269 19 
Q 1100 -59 909 -59 
Q 613 -59 420 144 
Q 228 347 228 678 
Q 228 888 322 1041 
Q 450 1253 767 1440 
Q 1084 1628 1822 1897 
L 1822 2009 
Q 1822 2438 1686 2597 
Q 1550 2756 1291 2756 
Q 1094 2756 978 2650 
Q 859 2544 859 2406 
L 866 2225 
Q 866 2081 792 2003 
Q 719 1925 600 1925 
Q 484 1925 411 2006 
Q 338 2088 338 2228 
Q 338 2497 613 2722 
Q 888 2947 1384 2947 
Q 1766 2947 2009 2819 
Q 2194 2722 2281 2516 
Q 2338 2381 2338 1966 
L 2338 994 
Q 2338 584 2353 492 
Q 2369 400 2405 369 
Q 2441 338 2488 338 
Q 2538 338 2575 359 
Q 2641 400 2828 588 
L 2828 413 
Q 2478 -56 2159 -56 
Q 2006 -56 1915 50 
Q 1825 156 1822 413 
z
M 1822 616 
L 1822 1706 
Q 1350 1519 1213 1441 
Q 966 1303 859 1153 
Q 753 1003 753 825 
Q 753 600 887 451 
Q 1022 303 1197 303 
Q 1434 303 1822 616 
z
" id="TimesNewRomanPSMT-61" transform="scale(0.015625)"/>
       <path d="M 1031 3803 
L 1031 2863 
L 1700 2863 
L 1700 2644 
L 1031 2644 
L 1031 788 
Q 1031 509 1111 412 
Q 1191 316 1316 316 
Q 1419 316 1516 380 
Q 1613 444 1666 569 
L 1788 569 
Q 1678 263 1478 108 
Q 1278 -47 1066 -47 
Q 922 -47 784 33 
Q 647 113 581 261 
Q 516 409 516 719 
L 516 2644 
L 63 2644 
L 63 2747 
Q 234 2816 414 2980 
Q 594 3144 734 3369 
Q 806 3488 934 3803 
L 1031 3803 
z
" id="TimesNewRomanPSMT-74" transform="scale(0.015625)"/>
       <path d="M 966 1044 
Q 703 1172 562 1401 
Q 422 1631 422 1909 
Q 422 2334 742 2640 
Q 1063 2947 1563 2947 
Q 1972 2947 2272 2747 
L 2878 2747 
Q 3013 2747 3034 2739 
Q 3056 2731 3066 2713 
Q 3084 2684 3084 2613 
Q 3084 2531 3069 2500 
Q 3059 2484 3036 2475 
Q 3013 2466 2878 2466 
L 2506 2466 
Q 2681 2241 2681 1891 
Q 2681 1491 2375 1206 
Q 2069 922 1553 922 
Q 1341 922 1119 984 
Q 981 866 932 777 
Q 884 688 884 625 
Q 884 572 936 522 
Q 988 472 1138 450 
Q 1225 438 1575 428 
Q 2219 413 2409 384 
Q 2700 344 2873 169 
Q 3047 -6 3047 -263 
Q 3047 -616 2716 -925 
Q 2228 -1381 1444 -1381 
Q 841 -1381 425 -1109 
Q 191 -953 191 -784 
Q 191 -709 225 -634 
Q 278 -519 444 -313 
Q 466 -284 763 25 
Q 600 122 533 198 
Q 466 275 466 372 
Q 466 481 555 628 
Q 644 775 966 1044 
z
M 1509 2797 
Q 1278 2797 1122 2612 
Q 966 2428 966 2047 
Q 966 1553 1178 1281 
Q 1341 1075 1591 1075 
Q 1828 1075 1981 1253 
Q 2134 1431 2134 1813 
Q 2134 2309 1919 2591 
Q 1759 2797 1509 2797 
z
M 934 0 
Q 788 -159 713 -296 
Q 638 -434 638 -550 
Q 638 -700 819 -813 
Q 1131 -1006 1722 -1006 
Q 2284 -1006 2551 -807 
Q 2819 -609 2819 -384 
Q 2819 -222 2659 -153 
Q 2497 -84 2016 -72 
Q 1313 -53 934 0 
z
" id="TimesNewRomanPSMT-67" transform="scale(0.015625)"/>
      </defs>
      <use xlink:href="#TimesNewRomanPSMT-56"/>
      <use x="59.341797" xlink:href="#TimesNewRomanPSMT-6f"/>
      <use x="109.341797" xlink:href="#TimesNewRomanPSMT-6c"/>
      <use x="137.125" xlink:href="#TimesNewRomanPSMT-61"/>
      <use x="181.509766" xlink:href="#TimesNewRomanPSMT-74"/>
      <use x="209.292969" xlink:href="#TimesNewRomanPSMT-61"/>
      <use x="253.677734" xlink:href="#TimesNewRomanPSMT-67"/>
      <use x="303.677734" xlink:href="#TimesNewRomanPSMT-65"/>
      <use x="348.0625" xlink:href="#TimesNewRomanPSMT-20"/>
      <use x="373.0625" xlink:href="#TimesNewRomanPSMT-28"/>
      <use x="406.363281" xlink:href="#TimesNewRomanPSMT-56"/>
      <use x="478.580078" xlink:href="#TimesNewRomanPSMT-29"/>
     </g>
    </g>
   </g>
   <g id="LineCollection_1">
    <path clip-path="url(#p0c912af134)" d="M 78.555057 158.624112 
L 382.918693 158.624112 
" style="fill:none;stroke:#1f77b4;stroke-width:1.5;"/>
   </g>
   <g id="line2d_29">
    <path clip-path="url(#p0c912af134)" d="M 78.555057 158.596324 
L 78.707239 158.623782 
L 78.889857 158.596324 
L 93.773239 158.678699 
L 93.894984 158.706158 
L 94.047166 158.706158 
L 104.517275 158.815992 
L 104.669457 158.84345 
L 104.852075 158.815992 
L 114.804766 158.925826 
L 114.956948 158.925826 
L 115.748293 159.008201 
L 115.870039 159.035659 
L 116.722257 159.145493 
L 116.874439 159.172952 
L 117.02662 159.145493 
L 117.270111 159.227869 
L 117.970148 159.282785 
L 118.061457 159.365161 
L 118.091893 159.337702 
L 118.761493 159.420078 
L 118.883239 159.447536 
L 119.03542 159.447536 
L 119.218039 159.474995 
L 120.37462 159.584828 
L 120.557239 159.612287 
L 121.926875 159.722121 
L 122.109493 159.749579 
L 123.05302 159.831955 
L 123.174766 159.886872 
L 123.844366 159.969247 
L 123.935675 159.996705 
L 123.966111 159.969247 
L 124.209602 160.051622 
L 124.757457 160.133998 
L 124.879202 160.161456 
L 125.274875 160.27129 
L 125.518366 160.353665 
L 125.792293 160.463499 
L 126.127093 160.655708 
L 126.218402 160.683167 
L 127.83153 162.248299 
L 128.044584 162.550342 
L 128.348948 162.962219 
L 129.962075 166.065024 
L 130.388184 167.190821 
L 130.692548 167.9322 
L 131.270839 169.607165 
L 131.818693 171.364506 
L 132.18393 172.517762 
L 133.005711 174.989023 
L 133.249202 175.75786 
L 134.466657 179.354918 
L 135.44062 182.457723 
L 135.623239 182.979434 
L 135.927602 183.885563 
L 136.658075 185.560529 
L 137.78422 187.372787 
L 138.11902 187.784664 
L 138.332075 188.059249 
L 138.575566 188.306375 
L 138.606002 188.278916 
L 138.666875 188.361292 
L 138.971239 188.471126 
L 139.184293 188.553501 
L 139.397348 188.498584 
L 139.54953 188.498584 
L 139.79302 188.38875 
L 140.340875 187.757206 
L 141.345275 185.780197 
L 141.649639 184.846609 
L 141.832257 184.324899 
L 142.22793 183.006893 
L 142.349675 182.595016 
L 144.48022 172.490304 
L 145.028075 168.920704 
L 147.128184 152.994798 
L 149.410911 131.467368 
L 150.232693 123.119997 
L 151.115348 114.223457 
L 151.784948 107.633427 
L 152.880657 96.759878 
L 153.793748 88.055547 
L 155.346002 75.012784 
L 156.228657 68.752256 
L 156.95913 64.276521 
L 157.567857 61.036425 
L 157.933093 59.388913 
L 158.694002 57.054951 
L 159.180984 56.038983 
L 159.515784 55.654565 
L 159.911457 55.434904 
L 160.489748 55.544731 
L 160.854984 56.011527 
L 162.042002 59.526212 
L 163.381202 67.379326 
L 164.537784 77.648789 
L 165.90742 93.602153 
L 167.368366 114.800087 
L 170.290257 166.778944 
L 171.842511 196.791036 
L 173.760002 232.651784 
L 175.068766 255.359932 
L 176.37753 275.898854 
L 177.838475 295.476734 
L 179.360293 310.798558 
L 180.06033 316.125498 
L 181.369093 322.633153 
L 181.612584 323.292151 
L 182.160439 324.472865 
L 182.40393 324.692535 
L 182.708293 324.582701 
L 183.043093 324.143357 
L 183.621384 322.880272 
L 183.956184 321.672096 
L 184.351857 319.832384 
L 185.478002 313.187433 
L 186.786766 301.682343 
L 187.699857 291.550177 
L 189.130366 272.164506 
L 192.082693 219.691394 
L 197.71342 110.07723 
L 200.14833 72.294395 
L 201.639711 53.595183 
L 203.344148 37.724197 
L 204.652911 29.019861 
L 205.74862 24.544135 
L 207.08782 22.32 
L 207.544366 22.429836 
L 208.244402 23.171214 
L 209.157493 25.944521 
L 209.887966 28.964944 
L 211.653275 39.124574 
L 212.44462 44.643721 
L 212.840293 47.828909 
L 215.731748 74.902948 
L 217.923166 97.418879 
L 223.006039 146.761728 
L 224.83222 160.683167 
L 225.623566 165.625689 
L 227.875857 177.268074 
L 228.210657 178.476247 
L 229.61073 183.144185 
L 229.85422 183.803188 
L 230.919493 186.411741 
L 231.102111 186.713784 
L 231.741275 188.03179 
L 231.95433 188.498584 
L 232.745675 190.118633 
L 233.20222 191.409181 
L 233.29353 191.60139 
L 233.567457 192.178017 
L 236.489348 200.388094 
L 237.463311 203.490904 
L 238.285093 206.01708 
L 238.832948 207.994089 
L 239.198184 209.284639 
L 240.99393 216.176709 
L 241.450475 217.769302 
L 241.876584 219.197142 
L 242.485311 221.476191 
L 242.637493 221.942983 
L 245.498511 231.855486 
L 246.59422 233.640288 
L 246.807275 233.750124 
L 247.050766 233.832497 
L 247.324693 233.91487 
L 247.446439 233.99725 
L 247.476875 233.969787 
L 248.055166 233.85996 
L 249.211748 232.679238 
L 249.729166 231.553443 
L 249.881348 231.278863 
L 250.824875 228.423183 
L 251.433602 226.144129 
L 251.646657 225.320373 
L 254.112002 211.371479 
L 256.090366 196.296784 
L 257.216511 187.125661 
L 260.808002 158.84345 
L 261.173239 156.262355 
L 263.364657 143.109754 
L 265.616948 133.444377 
L 266.377857 131.08295 
L 266.956148 129.407984 
L 267.564875 128.062519 
L 267.625748 127.952686 
L 268.02142 127.183849 
L 268.812766 125.975677 
L 269.269311 125.453966 
L 269.482366 125.179381 
L 270.45633 124.438005 
L 270.608511 124.438005 
L 271.338984 124.547837 
L 271.552039 124.71259 
L 272.099893 125.344132 
L 272.46513 125.783467 
L 272.769493 126.195344 
L 273.04342 126.63468 
L 273.256475 126.964181 
L 273.926075 127.952686 
L 274.108693 128.254729 
L 275.173966 129.957153 
L 275.326148 130.204279 
L 275.660948 130.808365 
L 278.034984 135.311552 
L 278.308911 135.915638 
L 283.330911 144.757262 
L 283.543966 145.086763 
L 284.152693 145.965434 
L 284.244002 146.075268 
L 284.76142 146.679354 
L 285.126657 147.146147 
L 285.278839 147.255981 
L 285.491893 147.475649 
L 285.583202 147.503107 
L 286.10062 147.832609 
L 286.222366 147.832609 
L 286.404984 147.942443 
L 286.618039 148.024817 
L 286.77022 148.024817 
L 288.078984 147.914984 
L 288.322475 147.832609 
L 288.505093 147.722774 
L 289.022511 147.393273 
L 289.20513 147.310898 
L 289.387748 147.173606 
L 289.418184 147.201064 
L 289.479057 147.118688 
L 289.631239 147.008855 
L 289.905166 146.734271 
L 290.970439 145.663391 
L 291.183493 145.388806 
L 291.609602 144.812179 
L 291.731348 144.729803 
L 292.066148 144.345384 
L 292.340075 144.015883 
L 292.522693 143.658923 
L 294.622802 139.649989 
L 295.596766 137.288561 
L 295.688075 137.096352 
L 297.453384 132.016537 
L 298.518657 128.58423 
L 299.188257 126.469929 
L 299.58393 125.179381 
L 300.101348 123.724085 
L 300.710075 121.774535 
L 301.014439 120.89586 
L 301.318802 120.154481 
L 301.897093 118.452057 
L 302.26233 117.573389 
L 302.536257 116.969305 
L 302.688439 116.722179 
L 303.084111 115.925881 
L 303.236293 115.651297 
L 303.784148 114.88246 
L 303.905893 114.800087 
L 304.210257 114.470583 
L 305.153784 113.756663 
L 306.158184 113.866495 
L 306.340802 113.976331 
L 307.010402 114.717709 
L 308.136548 116.969305 
L 308.86702 119.248355 
L 309.414875 121.637238 
L 311.484548 133.444377 
L 313.158548 146.322394 
L 315.289093 166.367067 
L 316.202184 175.538192 
L 317.084839 184.599483 
L 318.91102 203.216317 
L 321.437239 225.018335 
L 323.750402 238.939766 
L 325.089602 243.388038 
L 325.393966 244.156879 
L 325.850511 245.090467 
L 326.428802 245.914219 
L 327.159275 246.435925 
L 327.70713 246.326098 
L 327.920184 246.161345 
L 328.407166 245.584719 
L 328.741966 244.925714 
L 328.802839 244.870795 
L 329.04633 244.349089 
L 329.168075 244.101963 
L 329.563748 243.168375 
L 330.62902 240.010652 
L 330.994257 238.610267 
L 331.542111 236.221385 
L 332.363893 232.020241 
L 333.246548 226.638381 
L 334.250948 220.185646 
L 335.40753 212.195235 
L 337.32502 197.532414 
L 338.66422 187.070744 
L 345.086293 134.021005 
L 346.12113 125.646175 
L 346.729857 121.115527 
L 348.221239 111.148112 
L 350.077857 100.109808 
L 351.173566 94.782867 
L 353.030184 86.902287 
L 353.364984 85.721574 
L 353.82153 84.12899 
L 353.882402 83.964237 
L 355.434657 80.03768 
L 355.647711 79.708174 
L 355.921639 79.268838 
L 356.317311 78.774586 
L 357.16953 78.143044 
L 357.291275 78.170507 
L 357.41302 78.115588 
L 357.595639 78.143044 
L 357.74782 78.143044 
L 357.930439 78.170507 
L 358.295675 78.280334 
L 359.75662 79.735637 
L 360.09142 80.367179 
L 360.243602 80.641759 
L 360.639275 81.410602 
L 360.791457 81.685183 
L 361.217566 82.673687 
L 363.256802 88.49488 
L 364.77862 94.370992 
L 365.813457 99.368429 
L 366.54393 103.13024 
L 367.609202 109.171101 
L 368.55273 114.88246 
L 372.81382 142.450751 
L 373.57473 147.722774 
L 375.066111 157.827487 
L 376.679239 168.673578 
L 377.135784 171.748925 
L 379.50982 188.114166 
L 379.93593 190.997304 
L 381.214257 199.427048 
L 382.918693 209.998558 
L 382.918693 209.998558 
" style="fill:none;stroke:#0000ff;stroke-linecap:square;stroke-width:1.5;"/>
   </g>
   <g id="line2d_30">
    <path clip-path="url(#p0c912af134)" d="M 78.555057 158.751959 
L 78.85942 158.7245 
L 79.133348 158.738229 
L 79.437711 158.710771 
L 82.663966 158.600937 
L 82.937893 158.587208 
L 87.65553 158.491103 
L 87.807711 158.477374 
L 88.020766 158.477374 
L 88.294693 158.463645 
L 99.738766 158.353811 
L 99.982257 158.353811 
L 100.225748 158.353811 
L 101.260584 158.463645 
L 102.234548 158.793146 
L 102.447602 158.90298 
L 103.05633 159.287398 
L 104.06073 160.317091 
L 104.365093 160.756426 
L 105.034693 161.841035 
L 105.917348 163.653293 
L 107.043493 166.454056 
L 109.021857 172.110498 
L 109.721893 174.238529 
L 111.791566 179.524282 
L 113.556875 182.517253 
L 113.76993 182.723192 
L 114.165602 183.080152 
L 114.500402 183.244903 
L 114.68302 183.272361 
L 115.200439 183.162527 
L 116.052657 182.668275 
L 116.752693 181.542478 
L 118.12233 178.220004 
L 120.618111 168.815483 
L 122.231239 160.289632 
L 125.883602 137.924719 
L 127.770657 127.517963 
L 129.41422 119.21178 
L 130.17513 116.259998 
L 133.18833 107.1026 
L 134.466657 104.480318 
L 134.923202 103.697751 
L 135.562366 102.489579 
L 136.140657 101.844306 
L 136.749384 100.965635 
L 137.236366 100.485112 
L 137.510293 100.37528 
L 137.753784 100.265444 
L 137.87553 100.224257 
L 138.271202 100.128152 
L 138.910366 100.814613 
L 139.275602 101.501075 
L 139.671275 102.214995 
L 141.740948 108.118565 
L 142.501857 111.262556 
L 144.267166 121.422186 
L 145.758548 131.526898 
L 147.432548 145.173752 
L 152.332802 192.649424 
L 153.398075 202.575657 
L 155.346002 218.336813 
L 156.046039 222.908642 
L 157.993966 232.876064 
L 158.815748 235.44343 
L 159.759275 237.695021 
L 160.246257 238.367758 
L 160.97673 238.916929 
L 161.859384 238.422677 
L 162.711602 237.118396 
L 163.594257 234.427472 
L 164.23342 231.709082 
L 165.32913 225.736868 
L 166.363966 218.515289 
L 167.764039 206.92782 
L 169.164111 194.653892 
L 170.59462 181.446374 
L 175.464439 138.487617 
L 176.803639 129.041908 
L 178.62982 119.74722 
L 180.608184 113.019898 
L 181.429966 111.399851 
L 182.099566 110.933057 
L 182.586548 111.029162 
L 183.347457 111.852913 
L 183.773566 112.41581 
L 183.956184 112.717855 
L 184.443166 113.816195 
L 185.873675 118.003608 
L 186.938948 121.69677 
L 189.191239 132.350652 
L 192.874039 152.86212 
L 194.12193 160.550487 
L 198.261275 184.192219 
L 199.326548 188.063862 
L 199.752657 188.901345 
L 200.452693 189.944766 
L 201.122293 190.164434 
L 201.274475 190.164434 
L 201.48753 190.178163 
L 201.761457 190.191892 
L 202.004948 190.082058 
L 202.248439 189.862391 
L 203.191966 188.407093 
L 203.709384 186.979253 
L 204.044184 185.771081 
L 206.783457 174.197341 
L 207.818293 168.540899 
L 213.936002 127.888652 
L 215.731748 118.017337 
L 216.766584 113.857381 
L 217.984039 109.875902 
L 219.14062 107.061415 
L 219.627602 106.2102 
L 219.81022 105.908155 
L 220.358075 104.933382 
L 221.392911 103.711479 
L 221.81902 103.450625 
L 222.57993 103.340789 
L 222.945166 103.285877 
L 224.25393 103.972336 
L 225.92793 106.416141 
L 227.571493 109.587591 
L 230.676002 118.305653 
L 232.076075 123.769884 
L 233.506584 131.389606 
L 235.089275 142.084675 
L 241.785275 192.594507 
L 243.094039 200.694752 
L 245.285457 212.886307 
L 246.320293 217.47187 
L 247.872548 222.661516 
L 248.724766 224.652258 
L 249.576984 225.970262 
L 250.124839 226.546892 
L 250.61182 226.876389 
L 251.129239 227.205893 
L 251.70753 227.370646 
L 252.04233 227.329451 
L 252.316257 227.233347 
L 253.71633 225.832972 
L 255.512075 223.224414 
L 258.464402 218.117146 
L 259.225311 216.908973 
L 261.234111 213.490393 
L 261.41673 213.20208 
L 262.32982 211.334907 
L 264.125566 206.776803 
L 264.42993 206.007966 
L 265.616948 202.493281 
L 266.469166 199.006059 
L 269.178002 185.029702 
L 270.395457 177.245229 
L 272.03902 165.383176 
L 273.834766 149.896606 
L 277.182766 117.138666 
L 280.896002 79.767708 
L 282.296075 67.534965 
L 283.452657 59.022839 
L 284.548366 52.789774 
L 285.52233 48.904404 
L 286.222366 47.050952 
L 286.831093 46.158552 
L 287.19633 45.952611 
L 287.53113 46.062447 
L 287.744184 46.268388 
L 288.352911 47.270624 
L 288.839893 48.616082 
L 289.935602 52.981981 
L 290.605202 56.51039 
L 292.035711 66.230684 
L 292.88793 73.177674 
L 294.683675 89.488002 
L 299.370875 139.242725 
L 300.710075 153.685873 
L 303.723275 182.530983 
L 305.305966 193.171133 
L 306.310366 198.827577 
L 307.984366 207.298509 
L 309.110511 211.870344 
L 309.53662 213.559037 
L 310.236657 216.208781 
L 311.332366 219.750919 
L 312.154148 221.673011 
L 312.275893 221.906411 
L 312.88462 223.018478 
L 313.31073 223.416628 
L 313.584657 223.52646 
L 314.010766 223.622562 
L 314.89342 223.114583 
L 315.22822 222.730166 
L 316.56742 220.739426 
L 317.23702 219.325318 
L 319.276257 212.556806 
L 322.989493 195.312892 
L 326.763602 174.293446 
L 327.737566 168.842942 
L 329.837675 157.186826 
L 331.085566 151.022403 
L 332.607384 144.66577 
L 333.429166 141.768903 
L 335.164039 137.389278 
L 335.864075 136.345857 
L 336.716293 135.371082 
L 336.929348 135.178873 
L 337.264148 134.890559 
L 338.42073 134.478682 
L 338.725093 134.51987 
L 338.877275 134.533599 
L 339.212075 134.69835 
L 339.75993 135.05531 
L 340.703457 136.030085 
L 341.251311 136.798922 
L 342.225275 138.281679 
L 342.620948 138.913224 
L 342.864439 139.270184 
L 343.747093 140.643105 
L 344.264511 141.562964 
L 344.599311 142.16705 
L 345.147166 143.347764 
L 345.36022 143.787099 
L 345.847202 144.789333 
L 346.547239 146.107339 
L 348.586475 148.688433 
L 350.108293 149.924064 
L 353.273675 151.24207 
L 354.15633 151.351905 
L 356.682548 152.381596 
L 356.895602 152.395326 
L 358.295675 152.505159 
L 359.117457 152.766015 
L 359.726184 152.683639 
L 359.908802 152.601264 
L 360.213166 152.49143 
L 361.917602 151.832428 
L 362.587202 151.722593 
L 362.922002 151.681406 
L 363.895966 151.571572 
L 364.261202 151.516655 
L 366.665675 151.406821 
L 367.061348 151.118507 
L 367.426584 150.802735 
L 367.852693 150.500692 
L 369.313639 149.045393 
L 369.770184 148.249099 
L 370.348475 146.999739 
L 375.735711 135.110227 
L 377.653202 131.430793 
L 378.231493 130.373643 
L 378.84022 129.371409 
L 379.50982 128.369175 
L 379.783748 127.998486 
L 380.362039 127.174733 
L 381.488184 125.829268 
L 382.918693 124.621096 
L 382.918693 124.621096 
" style="fill:none;stroke:#ff0000;stroke-linecap:square;stroke-width:1.5;"/>
   </g>
   <g id="line2d_31">
    <path clip-path="url(#p0c912af134)" d="M 130.296875 166.943695 
" style="fill:none;stroke:#ffffff;stroke-linecap:square;stroke-width:1.5;"/>
    <defs>
     <path d="M 0 -5 
L -1.12257 -1.545085 
L -4.755283 -1.545085 
L -1.816356 0.59017 
L -2.938926 4.045085 
L -0 1.90983 
L 2.938926 4.045085 
L 1.816356 0.59017 
L 4.755283 -1.545085 
L 1.12257 -1.545085 
z
" id="mbf04764b7f" style="stroke:#ffffff;stroke-linejoin:bevel;"/>
    </defs>
    <g clip-path="url(#p0c912af134)">
     <use style="fill:#0000ff;stroke:#ffffff;stroke-linejoin:bevel;" x="130.296875" xlink:href="#mbf04764b7f" y="166.943695"/>
    </g>
   </g>
   <g id="line2d_32">
    <path clip-path="url(#p0c912af134)" d="M 106.191275 164.271108 
" style="fill:none;stroke:#ffffff;stroke-linecap:square;stroke-width:1.5;"/>
    <defs>
     <path d="M 0 -5 
L -1.12257 -1.545085 
L -4.755283 -1.545085 
L -1.816356 0.59017 
L -2.938926 4.045085 
L -0 1.90983 
L 2.938926 4.045085 
L 1.816356 0.59017 
L 4.755283 -1.545085 
L 1.12257 -1.545085 
z
" id="mc3a238c4d1" style="stroke:#ffffff;stroke-linejoin:bevel;"/>
    </defs>
    <g clip-path="url(#p0c912af134)">
     <use style="fill:#ff0000;stroke:#ffffff;stroke-linejoin:bevel;" x="106.191275" xlink:href="#mc3a238c4d1" y="164.271108"/>
    </g>
   </g>
   <g id="patch_3">
    <path d="M 63.336875 339.84 
L 63.336875 7.2 
" style="fill:none;stroke:#000000;stroke-linecap:square;stroke-linejoin:miter;stroke-width:0.8;"/>
   </g>
   <g id="patch_4">
    <path d="M 398.136875 339.84 
L 398.136875 7.2 
" style="fill:none;stroke:#000000;stroke-linecap:square;stroke-linejoin:miter;stroke-width:0.8;"/>
   </g>
   <g id="patch_5">
    <path d="M 63.336875 339.84 
L 398.136875 339.84 
" style="fill:none;stroke:#000000;stroke-linecap:square;stroke-linejoin:miter;stroke-width:0.8;"/>
   </g>
   <g id="patch_6">
    <path d="M 63.336875 7.2 
L 398.136875 7.2 
" style="fill:none;stroke:#000000;stroke-linecap:square;stroke-linejoin:miter;stroke-width:0.8;"/>
   </g>
   <g id="text_17">
    <g id="patch_7">
     <path d="M 75.036875 331.242688 
L 166.79375 331.242688 
L 166.79375 293.760312 
L 75.036875 293.760312 
z
" style="fill:#ffffff;stroke:#000000;stroke-linejoin:miter;stroke-width:0.75;"/>
    </g>
    <!-- Auto_00026 -->
    <g transform="translate(80.076875 308.521562)scale(0.14 -0.14)">
     <defs>
      <path d="M 2928 1419 
L 1288 1419 
L 1000 750 
Q 894 503 894 381 
Q 894 284 986 211 
Q 1078 138 1384 116 
L 1384 0 
L 50 0 
L 50 116 
Q 316 163 394 238 
Q 553 388 747 847 
L 2238 4334 
L 2347 4334 
L 3822 809 
Q 4000 384 4145 257 
Q 4291 131 4550 116 
L 4550 0 
L 2878 0 
L 2878 116 
Q 3131 128 3220 200 
Q 3309 272 3309 375 
Q 3309 513 3184 809 
L 2928 1419 
z
M 2841 1650 
L 2122 3363 
L 1384 1650 
L 2841 1650 
z
" id="TimesNewRomanPSMT-41" transform="scale(0.015625)"/>
      <path d="M 2709 2863 
L 2709 1128 
Q 2709 631 2732 520 
Q 2756 409 2807 365 
Q 2859 322 2928 322 
Q 3025 322 3147 375 
L 3191 266 
L 2334 -88 
L 2194 -88 
L 2194 519 
Q 1825 119 1631 15 
Q 1438 -88 1222 -88 
Q 981 -88 804 51 
Q 628 191 559 409 
Q 491 628 491 1028 
L 491 2306 
Q 491 2509 447 2587 
Q 403 2666 317 2708 
Q 231 2750 6 2747 
L 6 2863 
L 1009 2863 
L 1009 947 
Q 1009 547 1148 422 
Q 1288 297 1484 297 
Q 1619 297 1789 381 
Q 1959 466 2194 703 
L 2194 2325 
Q 2194 2569 2105 2655 
Q 2016 2741 1734 2747 
L 1734 2863 
L 2709 2863 
z
" id="TimesNewRomanPSMT-75" transform="scale(0.015625)"/>
      <path d="M 3256 -1381 
L -53 -1381 
L -53 -1119 
L 3256 -1119 
L 3256 -1381 
z
" id="TimesNewRomanPSMT-5f" transform="scale(0.015625)"/>
     </defs>
     <use xlink:href="#TimesNewRomanPSMT-41"/>
     <use x="72.216797" xlink:href="#TimesNewRomanPSMT-75"/>
     <use x="122.216797" xlink:href="#TimesNewRomanPSMT-74"/>
     <use x="150" xlink:href="#TimesNewRomanPSMT-6f"/>
     <use x="200" xlink:href="#TimesNewRomanPSMT-5f"/>
     <use x="250" xlink:href="#TimesNewRomanPSMT-30"/>
     <use x="300" xlink:href="#TimesNewRomanPSMT-30"/>
     <use x="350" xlink:href="#TimesNewRomanPSMT-30"/>
     <use x="400" xlink:href="#TimesNewRomanPSMT-32"/>
     <use x="450" xlink:href="#TimesNewRomanPSMT-36"/>
    </g>
    <!-- Vs: 252.40m/s -->
    <g transform="translate(80.076875 323.208)scale(0.14 -0.14)">
     <defs>
      <path d="M 903 2950 
Q 1047 2950 1148 2848 
Q 1250 2747 1250 2603 
Q 1250 2459 1148 2357 
Q 1047 2256 903 2256 
Q 759 2256 657 2357 
Q 556 2459 556 2603 
Q 556 2747 657 2848 
Q 759 2950 903 2950 
z
M 897 609 
Q 1044 609 1145 506 
Q 1247 403 1247 259 
Q 1247 116 1144 14 
Q 1041 -88 897 -88 
Q 753 -88 651 14 
Q 550 116 550 259 
Q 550 403 651 506 
Q 753 609 897 609 
z
" id="TimesNewRomanPSMT-3a" transform="scale(0.015625)"/>
      <path d="M 1794 4444 
L 259 -88 
L 9 -88 
L 1544 4444 
L 1794 4444 
z
" id="TimesNewRomanPSMT-2f" transform="scale(0.015625)"/>
     </defs>
     <use xlink:href="#TimesNewRomanPSMT-56"/>
     <use x="72.216797" xlink:href="#TimesNewRomanPSMT-73"/>
     <use x="111.132812" xlink:href="#TimesNewRomanPSMT-3a"/>
     <use x="138.916016" xlink:href="#TimesNewRomanPSMT-20"/>
     <use x="163.916016" xlink:href="#TimesNewRomanPSMT-32"/>
     <use x="213.916016" xlink:href="#TimesNewRomanPSMT-35"/>
     <use x="263.916016" xlink:href="#TimesNewRomanPSMT-32"/>
     <use x="313.916016" xlink:href="#TimesNewRomanPSMT-2e"/>
     <use x="338.916016" xlink:href="#TimesNewRomanPSMT-34"/>
     <use x="388.916016" xlink:href="#TimesNewRomanPSMT-30"/>
     <use x="438.916016" xlink:href="#TimesNewRomanPSMT-6d"/>
     <use x="516.699219" xlink:href="#TimesNewRomanPSMT-2f"/>
     <use x="544.482422" xlink:href="#TimesNewRomanPSMT-73"/>
    </g>
   </g>
  </g>
 </g>
 <defs>
  <clipPath id="p0c912af134">
   <rect height="332.64" width="334.8" x="63.336875" y="7.2"/>
  </clipPath>
 </defs>
</svg>
