<?xml version="1.0" encoding="utf-8" standalone="no"?>
<!DOCTYPE svg PUBLIC "-//W3C//DTD SVG 1.1//EN"
  "http://www.w3.org/Graphics/SVG/1.1/DTD/svg11.dtd">
<svg height="383.471875pt" version="1.1" viewBox="0 0 421.086875 383.471875" width="421.086875pt" xmlns="http://www.w3.org/2000/svg" xmlns:xlink="http://www.w3.org/1999/xlink">
 <metadata>
  <rdf:RDF xmlns:cc="http://creativecommons.org/ns#" xmlns:dc="http://purl.org/dc/elements/1.1/" xmlns:rdf="http://www.w3.org/1999/02/22-rdf-syntax-ns#">
   <cc:Work>
    <dc:type rdf:resource="http://purl.org/dc/dcmitype/StillImage"/>
    <dc:date>2021-06-11T14:39:37.678245</dc:date>
    <dc:format>image/svg+xml</dc:format>
    <dc:creator>
     <cc:Agent>
      <dc:title>Matplotlib v3.4.2, https://matplotlib.org/</dc:title>
     </cc:Agent>
    </dc:creator>
   </cc:Work>
  </rdf:RDF>
 </metadata>
 <defs>
  <style type="text/css">*{stroke-linecap:butt;stroke-linejoin:round;}</style>
 </defs>
 <g id="figure_1">
  <g id="patch_1">
   <path d="M 0 383.471875 
L 421.086875 383.471875 
L 421.086875 0 
L 0 0 
z
" style="fill:#ffffff;"/>
  </g>
  <g id="axes_1">
   <g id="patch_2">
    <path d="M 63.336875 339.84 
L 398.136875 339.84 
L 398.136875 7.2 
L 63.336875 7.2 
z
" style="fill:#ffffff;"/>
   </g>
   <g id="matplotlib.axis_1">
    <g id="xtick_1">
     <g id="line2d_1">
      <path clip-path="url(#p2d59773c14)" d="M 93.773239 339.84 
L 93.773239 7.2 
" style="fill:none;stroke:#000000;stroke-dasharray:0.5,0.825;stroke-dashoffset:0;stroke-width:0.5;"/>
     </g>
     <g id="line2d_2">
      <defs>
       <path d="M 0 0 
L 0 3.5 
" id="m1b8ec5e7e2" style="stroke:#000000;stroke-width:0.8;"/>
      </defs>
      <g>
       <use style="stroke:#000000;stroke-width:0.8;" x="93.773239" xlink:href="#m1b8ec5e7e2" y="339.84"/>
      </g>
     </g>
     <g id="text_1">
      <!-- 0.000 -->
      <g transform="translate(78.023239 356.56125)scale(0.14 -0.14)">
       <defs>
        <path d="M 231 2094 
Q 231 2819 450 3342 
Q 669 3866 1031 4122 
Q 1313 4325 1613 4325 
Q 2100 4325 2488 3828 
Q 2972 3213 2972 2159 
Q 2972 1422 2759 906 
Q 2547 391 2217 158 
Q 1888 -75 1581 -75 
Q 975 -75 572 641 
Q 231 1244 231 2094 
z
M 844 2016 
Q 844 1141 1059 588 
Q 1238 122 1591 122 
Q 1759 122 1940 273 
Q 2122 425 2216 781 
Q 2359 1319 2359 2297 
Q 2359 3022 2209 3506 
Q 2097 3866 1919 4016 
Q 1791 4119 1609 4119 
Q 1397 4119 1231 3928 
Q 1006 3669 925 3112 
Q 844 2556 844 2016 
z
" id="TimesNewRomanPSMT-30" transform="scale(0.015625)"/>
        <path d="M 800 606 
Q 947 606 1047 504 
Q 1147 403 1147 259 
Q 1147 116 1045 14 
Q 944 -88 800 -88 
Q 656 -88 554 14 
Q 453 116 453 259 
Q 453 406 554 506 
Q 656 606 800 606 
z
" id="TimesNewRomanPSMT-2e" transform="scale(0.015625)"/>
       </defs>
       <use xlink:href="#TimesNewRomanPSMT-30"/>
       <use x="50" xlink:href="#TimesNewRomanPSMT-2e"/>
       <use x="75" xlink:href="#TimesNewRomanPSMT-30"/>
       <use x="125" xlink:href="#TimesNewRomanPSMT-30"/>
       <use x="175" xlink:href="#TimesNewRomanPSMT-30"/>
      </g>
     </g>
    </g>
    <g id="xtick_2">
     <g id="line2d_3">
      <path clip-path="url(#p2d59773c14)" d="M 154.645966 339.84 
L 154.645966 7.2 
" style="fill:none;stroke:#000000;stroke-dasharray:0.5,0.825;stroke-dashoffset:0;stroke-width:0.5;"/>
     </g>
     <g id="line2d_4">
      <g>
       <use style="stroke:#000000;stroke-width:0.8;" x="154.645966" xlink:href="#m1b8ec5e7e2" y="339.84"/>
      </g>
     </g>
     <g id="text_2">
      <!-- 0.001 -->
      <g transform="translate(138.895966 356.56125)scale(0.14 -0.14)">
       <defs>
        <path d="M 750 3822 
L 1781 4325 
L 1884 4325 
L 1884 747 
Q 1884 391 1914 303 
Q 1944 216 2037 169 
Q 2131 122 2419 116 
L 2419 0 
L 825 0 
L 825 116 
Q 1125 122 1212 167 
Q 1300 213 1334 289 
Q 1369 366 1369 747 
L 1369 3034 
Q 1369 3497 1338 3628 
Q 1316 3728 1258 3775 
Q 1200 3822 1119 3822 
Q 1003 3822 797 3725 
L 750 3822 
z
" id="TimesNewRomanPSMT-31" transform="scale(0.015625)"/>
       </defs>
       <use xlink:href="#TimesNewRomanPSMT-30"/>
       <use x="50" xlink:href="#TimesNewRomanPSMT-2e"/>
       <use x="75" xlink:href="#TimesNewRomanPSMT-30"/>
       <use x="125" xlink:href="#TimesNewRomanPSMT-30"/>
       <use x="175" xlink:href="#TimesNewRomanPSMT-31"/>
      </g>
     </g>
    </g>
    <g id="xtick_3">
     <g id="line2d_5">
      <path clip-path="url(#p2d59773c14)" d="M 215.518693 339.84 
L 215.518693 7.2 
" style="fill:none;stroke:#000000;stroke-dasharray:0.5,0.825;stroke-dashoffset:0;stroke-width:0.5;"/>
     </g>
     <g id="line2d_6">
      <g>
       <use style="stroke:#000000;stroke-width:0.8;" x="215.518693" xlink:href="#m1b8ec5e7e2" y="339.84"/>
      </g>
     </g>
     <g id="text_3">
      <!-- 0.002 -->
      <g transform="translate(199.768693 356.56125)scale(0.14 -0.14)">
       <defs>
        <path d="M 2934 816 
L 2638 0 
L 138 0 
L 138 116 
Q 1241 1122 1691 1759 
Q 2141 2397 2141 2925 
Q 2141 3328 1894 3587 
Q 1647 3847 1303 3847 
Q 991 3847 742 3664 
Q 494 3481 375 3128 
L 259 3128 
Q 338 3706 661 4015 
Q 984 4325 1469 4325 
Q 1984 4325 2329 3994 
Q 2675 3663 2675 3213 
Q 2675 2891 2525 2569 
Q 2294 2063 1775 1497 
Q 997 647 803 472 
L 1909 472 
Q 2247 472 2383 497 
Q 2519 522 2628 598 
Q 2738 675 2819 816 
L 2934 816 
z
" id="TimesNewRomanPSMT-32" transform="scale(0.015625)"/>
       </defs>
       <use xlink:href="#TimesNewRomanPSMT-30"/>
       <use x="50" xlink:href="#TimesNewRomanPSMT-2e"/>
       <use x="75" xlink:href="#TimesNewRomanPSMT-30"/>
       <use x="125" xlink:href="#TimesNewRomanPSMT-30"/>
       <use x="175" xlink:href="#TimesNewRomanPSMT-32"/>
      </g>
     </g>
    </g>
    <g id="xtick_4">
     <g id="line2d_7">
      <path clip-path="url(#p2d59773c14)" d="M 276.39142 339.84 
L 276.39142 7.2 
" style="fill:none;stroke:#000000;stroke-dasharray:0.5,0.825;stroke-dashoffset:0;stroke-width:0.5;"/>
     </g>
     <g id="line2d_8">
      <g>
       <use style="stroke:#000000;stroke-width:0.8;" x="276.39142" xlink:href="#m1b8ec5e7e2" y="339.84"/>
      </g>
     </g>
     <g id="text_4">
      <!-- 0.003 -->
      <g transform="translate(260.64142 356.56125)scale(0.14 -0.14)">
       <defs>
        <path d="M 325 3431 
Q 506 3859 782 4092 
Q 1059 4325 1472 4325 
Q 1981 4325 2253 3994 
Q 2459 3747 2459 3466 
Q 2459 3003 1878 2509 
Q 2269 2356 2469 2072 
Q 2669 1788 2669 1403 
Q 2669 853 2319 450 
Q 1863 -75 997 -75 
Q 569 -75 414 31 
Q 259 138 259 259 
Q 259 350 332 419 
Q 406 488 509 488 
Q 588 488 669 463 
Q 722 447 909 348 
Q 1097 250 1169 231 
Q 1284 197 1416 197 
Q 1734 197 1970 444 
Q 2206 691 2206 1028 
Q 2206 1275 2097 1509 
Q 2016 1684 1919 1775 
Q 1784 1900 1550 2001 
Q 1316 2103 1072 2103 
L 972 2103 
L 972 2197 
Q 1219 2228 1467 2375 
Q 1716 2522 1828 2728 
Q 1941 2934 1941 3181 
Q 1941 3503 1739 3701 
Q 1538 3900 1238 3900 
Q 753 3900 428 3381 
L 325 3431 
z
" id="TimesNewRomanPSMT-33" transform="scale(0.015625)"/>
       </defs>
       <use xlink:href="#TimesNewRomanPSMT-30"/>
       <use x="50" xlink:href="#TimesNewRomanPSMT-2e"/>
       <use x="75" xlink:href="#TimesNewRomanPSMT-30"/>
       <use x="125" xlink:href="#TimesNewRomanPSMT-30"/>
       <use x="175" xlink:href="#TimesNewRomanPSMT-33"/>
      </g>
     </g>
    </g>
    <g id="xtick_5">
     <g id="line2d_9">
      <path clip-path="url(#p2d59773c14)" d="M 337.264148 339.84 
L 337.264148 7.2 
" style="fill:none;stroke:#000000;stroke-dasharray:0.5,0.825;stroke-dashoffset:0;stroke-width:0.5;"/>
     </g>
     <g id="line2d_10">
      <g>
       <use style="stroke:#000000;stroke-width:0.8;" x="337.264148" xlink:href="#m1b8ec5e7e2" y="339.84"/>
      </g>
     </g>
     <g id="text_5">
      <!-- 0.004 -->
      <g transform="translate(321.514148 356.56125)scale(0.14 -0.14)">
       <defs>
        <path d="M 2978 1563 
L 2978 1119 
L 2409 1119 
L 2409 0 
L 1894 0 
L 1894 1119 
L 100 1119 
L 100 1519 
L 2066 4325 
L 2409 4325 
L 2409 1563 
L 2978 1563 
z
M 1894 1563 
L 1894 3666 
L 406 1563 
L 1894 1563 
z
" id="TimesNewRomanPSMT-34" transform="scale(0.015625)"/>
       </defs>
       <use xlink:href="#TimesNewRomanPSMT-30"/>
       <use x="50" xlink:href="#TimesNewRomanPSMT-2e"/>
       <use x="75" xlink:href="#TimesNewRomanPSMT-30"/>
       <use x="125" xlink:href="#TimesNewRomanPSMT-30"/>
       <use x="175" xlink:href="#TimesNewRomanPSMT-34"/>
      </g>
     </g>
    </g>
    <g id="xtick_6">
     <g id="line2d_11">
      <path clip-path="url(#p2d59773c14)" d="M 398.136875 339.84 
L 398.136875 7.2 
" style="fill:none;stroke:#000000;stroke-dasharray:0.5,0.825;stroke-dashoffset:0;stroke-width:0.5;"/>
     </g>
     <g id="line2d_12">
      <g>
       <use style="stroke:#000000;stroke-width:0.8;" x="398.136875" xlink:href="#m1b8ec5e7e2" y="339.84"/>
      </g>
     </g>
     <g id="text_6">
      <!-- 0.005 -->
      <g transform="translate(382.386875 356.56125)scale(0.14 -0.14)">
       <defs>
        <path d="M 2778 4238 
L 2534 3706 
L 1259 3706 
L 981 3138 
Q 1809 3016 2294 2522 
Q 2709 2097 2709 1522 
Q 2709 1188 2573 903 
Q 2438 619 2231 419 
Q 2025 219 1772 97 
Q 1413 -75 1034 -75 
Q 653 -75 479 54 
Q 306 184 306 341 
Q 306 428 378 495 
Q 450 563 559 563 
Q 641 563 702 538 
Q 763 513 909 409 
Q 1144 247 1384 247 
Q 1750 247 2026 523 
Q 2303 800 2303 1197 
Q 2303 1581 2056 1914 
Q 1809 2247 1375 2428 
Q 1034 2569 447 2591 
L 1259 4238 
L 2778 4238 
z
" id="TimesNewRomanPSMT-35" transform="scale(0.015625)"/>
       </defs>
       <use xlink:href="#TimesNewRomanPSMT-30"/>
       <use x="50" xlink:href="#TimesNewRomanPSMT-2e"/>
       <use x="75" xlink:href="#TimesNewRomanPSMT-30"/>
       <use x="125" xlink:href="#TimesNewRomanPSMT-30"/>
       <use x="175" xlink:href="#TimesNewRomanPSMT-35"/>
      </g>
     </g>
    </g>
    <g id="text_7">
     <!-- Time (sec) -->
     <g transform="translate(200.858906 373.277188)scale(0.14 -0.14)">
      <defs>
       <path d="M 3703 4238 
L 3750 3244 
L 3631 3244 
Q 3597 3506 3538 3619 
Q 3441 3800 3280 3886 
Q 3119 3972 2856 3972 
L 2259 3972 
L 2259 734 
Q 2259 344 2344 247 
Q 2463 116 2709 116 
L 2856 116 
L 2856 0 
L 1059 0 
L 1059 116 
L 1209 116 
Q 1478 116 1591 278 
Q 1659 378 1659 734 
L 1659 3972 
L 1150 3972 
Q 853 3972 728 3928 
Q 566 3869 450 3700 
Q 334 3531 313 3244 
L 194 3244 
L 244 4238 
L 3703 4238 
z
" id="TimesNewRomanPSMT-54" transform="scale(0.015625)"/>
       <path d="M 928 4444 
Q 1059 4444 1151 4351 
Q 1244 4259 1244 4128 
Q 1244 3997 1151 3903 
Q 1059 3809 928 3809 
Q 797 3809 703 3903 
Q 609 3997 609 4128 
Q 609 4259 701 4351 
Q 794 4444 928 4444 
z
M 1188 2947 
L 1188 647 
Q 1188 378 1227 289 
Q 1266 200 1342 156 
Q 1419 113 1622 113 
L 1622 0 
L 231 0 
L 231 113 
Q 441 113 512 153 
Q 584 194 626 287 
Q 669 381 669 647 
L 669 1750 
Q 669 2216 641 2353 
Q 619 2453 572 2492 
Q 525 2531 444 2531 
Q 356 2531 231 2484 
L 188 2597 
L 1050 2947 
L 1188 2947 
z
" id="TimesNewRomanPSMT-69" transform="scale(0.015625)"/>
       <path d="M 1050 2338 
Q 1363 2650 1419 2697 
Q 1559 2816 1721 2881 
Q 1884 2947 2044 2947 
Q 2313 2947 2506 2790 
Q 2700 2634 2766 2338 
Q 3088 2713 3309 2830 
Q 3531 2947 3766 2947 
Q 3994 2947 4170 2830 
Q 4347 2713 4450 2447 
Q 4519 2266 4519 1878 
L 4519 647 
Q 4519 378 4559 278 
Q 4591 209 4675 161 
Q 4759 113 4950 113 
L 4950 0 
L 3538 0 
L 3538 113 
L 3597 113 
Q 3781 113 3884 184 
Q 3956 234 3988 344 
Q 4000 397 4000 647 
L 4000 1878 
Q 4000 2228 3916 2372 
Q 3794 2572 3525 2572 
Q 3359 2572 3192 2489 
Q 3025 2406 2788 2181 
L 2781 2147 
L 2788 2013 
L 2788 647 
Q 2788 353 2820 281 
Q 2853 209 2943 161 
Q 3034 113 3253 113 
L 3253 0 
L 1806 0 
L 1806 113 
Q 2044 113 2133 169 
Q 2222 225 2256 338 
Q 2272 391 2272 647 
L 2272 1878 
Q 2272 2228 2169 2381 
Q 2031 2581 1784 2581 
Q 1616 2581 1450 2491 
Q 1191 2353 1050 2181 
L 1050 647 
Q 1050 366 1089 281 
Q 1128 197 1204 155 
Q 1281 113 1516 113 
L 1516 0 
L 100 0 
L 100 113 
Q 297 113 375 155 
Q 453 197 493 289 
Q 534 381 534 647 
L 534 1741 
Q 534 2213 506 2350 
Q 484 2453 437 2492 
Q 391 2531 309 2531 
Q 222 2531 100 2484 
L 53 2597 
L 916 2947 
L 1050 2947 
L 1050 2338 
z
" id="TimesNewRomanPSMT-6d" transform="scale(0.015625)"/>
       <path d="M 681 1784 
Q 678 1147 991 784 
Q 1303 422 1725 422 
Q 2006 422 2214 576 
Q 2422 731 2563 1106 
L 2659 1044 
Q 2594 616 2278 264 
Q 1963 -88 1488 -88 
Q 972 -88 605 314 
Q 238 716 238 1394 
Q 238 2128 614 2539 
Q 991 2950 1559 2950 
Q 2041 2950 2350 2633 
Q 2659 2316 2659 1784 
L 681 1784 
z
M 681 1966 
L 2006 1966 
Q 1991 2241 1941 2353 
Q 1863 2528 1708 2628 
Q 1553 2728 1384 2728 
Q 1125 2728 920 2526 
Q 716 2325 681 1966 
z
" id="TimesNewRomanPSMT-65" transform="scale(0.015625)"/>
       <path id="TimesNewRomanPSMT-20" transform="scale(0.015625)"/>
       <path d="M 1988 -1253 
L 1988 -1369 
Q 1516 -1131 1200 -813 
Q 750 -359 506 256 
Q 263 872 263 1534 
Q 263 2503 741 3301 
Q 1219 4100 1988 4444 
L 1988 4313 
Q 1603 4100 1356 3731 
Q 1109 3363 987 2797 
Q 866 2231 866 1616 
Q 866 947 969 400 
Q 1050 -31 1165 -292 
Q 1281 -553 1476 -793 
Q 1672 -1034 1988 -1253 
z
" id="TimesNewRomanPSMT-28" transform="scale(0.015625)"/>
       <path d="M 2050 2947 
L 2050 1972 
L 1947 1972 
Q 1828 2431 1642 2597 
Q 1456 2763 1169 2763 
Q 950 2763 815 2647 
Q 681 2531 681 2391 
Q 681 2216 781 2091 
Q 878 1963 1175 1819 
L 1631 1597 
Q 2266 1288 2266 781 
Q 2266 391 1970 151 
Q 1675 -88 1309 -88 
Q 1047 -88 709 6 
Q 606 38 541 38 
Q 469 38 428 -44 
L 325 -44 
L 325 978 
L 428 978 
Q 516 541 762 319 
Q 1009 97 1316 97 
Q 1531 97 1667 223 
Q 1803 350 1803 528 
Q 1803 744 1651 891 
Q 1500 1038 1047 1263 
Q 594 1488 453 1669 
Q 313 1847 313 2119 
Q 313 2472 555 2709 
Q 797 2947 1181 2947 
Q 1350 2947 1591 2875 
Q 1750 2828 1803 2828 
Q 1853 2828 1881 2850 
Q 1909 2872 1947 2947 
L 2050 2947 
z
" id="TimesNewRomanPSMT-73" transform="scale(0.015625)"/>
       <path d="M 2631 1088 
Q 2516 522 2178 217 
Q 1841 -88 1431 -88 
Q 944 -88 581 321 
Q 219 731 219 1428 
Q 219 2103 620 2525 
Q 1022 2947 1584 2947 
Q 2006 2947 2278 2723 
Q 2550 2500 2550 2259 
Q 2550 2141 2473 2067 
Q 2397 1994 2259 1994 
Q 2075 1994 1981 2113 
Q 1928 2178 1911 2362 
Q 1894 2547 1784 2644 
Q 1675 2738 1481 2738 
Q 1169 2738 978 2506 
Q 725 2200 725 1697 
Q 725 1184 976 792 
Q 1228 400 1656 400 
Q 1963 400 2206 609 
Q 2378 753 2541 1131 
L 2631 1088 
z
" id="TimesNewRomanPSMT-63" transform="scale(0.015625)"/>
       <path d="M 144 4313 
L 144 4444 
Q 619 4209 934 3891 
Q 1381 3434 1625 2820 
Q 1869 2206 1869 1541 
Q 1869 572 1392 -226 
Q 916 -1025 144 -1369 
L 144 -1253 
Q 528 -1038 776 -670 
Q 1025 -303 1145 264 
Q 1266 831 1266 1447 
Q 1266 2113 1163 2663 
Q 1084 3094 967 3353 
Q 850 3613 656 3853 
Q 463 4094 144 4313 
z
" id="TimesNewRomanPSMT-29" transform="scale(0.015625)"/>
      </defs>
      <use xlink:href="#TimesNewRomanPSMT-54"/>
      <use x="57.583984" xlink:href="#TimesNewRomanPSMT-69"/>
      <use x="85.367188" xlink:href="#TimesNewRomanPSMT-6d"/>
      <use x="163.150391" xlink:href="#TimesNewRomanPSMT-65"/>
      <use x="207.535156" xlink:href="#TimesNewRomanPSMT-20"/>
      <use x="232.535156" xlink:href="#TimesNewRomanPSMT-28"/>
      <use x="265.835938" xlink:href="#TimesNewRomanPSMT-73"/>
      <use x="304.751953" xlink:href="#TimesNewRomanPSMT-65"/>
      <use x="349.136719" xlink:href="#TimesNewRomanPSMT-63"/>
      <use x="393.521484" xlink:href="#TimesNewRomanPSMT-29"/>
     </g>
    </g>
   </g>
   <g id="matplotlib.axis_2">
    <g id="ytick_1">
     <g id="line2d_13">
      <path clip-path="url(#p2d59773c14)" d="M 63.336875 278.131822 
L 398.136875 278.131822 
" style="fill:none;stroke:#000000;stroke-dasharray:0.5,0.825;stroke-dashoffset:0;stroke-width:0.5;"/>
     </g>
     <g id="line2d_14">
      <defs>
       <path d="M 0 0 
L -3.5 0 
" id="m742cb8c04c" style="stroke:#000000;stroke-width:0.8;"/>
      </defs>
      <g>
       <use style="stroke:#000000;stroke-width:0.8;" x="63.336875" xlink:href="#m742cb8c04c" y="278.131822"/>
      </g>
     </g>
     <g id="text_8">
      <!-- −0.04 -->
      <g transform="translate(23.942188 282.992447)scale(0.14 -0.14)">
       <defs>
        <path d="M 3484 2000 
L 116 2000 
L 116 2256 
L 3484 2256 
L 3484 2000 
z
" id="TimesNewRomanPSMT-2212" transform="scale(0.015625)"/>
       </defs>
       <use xlink:href="#TimesNewRomanPSMT-2212"/>
       <use x="56.396484" xlink:href="#TimesNewRomanPSMT-30"/>
       <use x="106.396484" xlink:href="#TimesNewRomanPSMT-2e"/>
       <use x="131.396484" xlink:href="#TimesNewRomanPSMT-30"/>
       <use x="181.396484" xlink:href="#TimesNewRomanPSMT-34"/>
      </g>
     </g>
    </g>
    <g id="ytick_2">
     <g id="line2d_15">
      <path clip-path="url(#p2d59773c14)" d="M 63.336875 215.433882 
L 398.136875 215.433882 
" style="fill:none;stroke:#000000;stroke-dasharray:0.5,0.825;stroke-dashoffset:0;stroke-width:0.5;"/>
     </g>
     <g id="line2d_16">
      <g>
       <use style="stroke:#000000;stroke-width:0.8;" x="63.336875" xlink:href="#m742cb8c04c" y="215.433882"/>
      </g>
     </g>
     <g id="text_9">
      <!-- −0.02 -->
      <g transform="translate(23.942188 220.294507)scale(0.14 -0.14)">
       <use xlink:href="#TimesNewRomanPSMT-2212"/>
       <use x="56.396484" xlink:href="#TimesNewRomanPSMT-30"/>
       <use x="106.396484" xlink:href="#TimesNewRomanPSMT-2e"/>
       <use x="131.396484" xlink:href="#TimesNewRomanPSMT-30"/>
       <use x="181.396484" xlink:href="#TimesNewRomanPSMT-32"/>
      </g>
     </g>
    </g>
    <g id="ytick_3">
     <g id="line2d_17">
      <path clip-path="url(#p2d59773c14)" d="M 63.336875 152.735942 
L 398.136875 152.735942 
" style="fill:none;stroke:#000000;stroke-dasharray:0.5,0.825;stroke-dashoffset:0;stroke-width:0.5;"/>
     </g>
     <g id="line2d_18">
      <g>
       <use style="stroke:#000000;stroke-width:0.8;" x="63.336875" xlink:href="#m742cb8c04c" y="152.735942"/>
      </g>
     </g>
     <g id="text_10">
      <!-- 0.00 -->
      <g transform="translate(31.836875 157.596567)scale(0.14 -0.14)">
       <use xlink:href="#TimesNewRomanPSMT-30"/>
       <use x="50" xlink:href="#TimesNewRomanPSMT-2e"/>
       <use x="75" xlink:href="#TimesNewRomanPSMT-30"/>
       <use x="125" xlink:href="#TimesNewRomanPSMT-30"/>
      </g>
     </g>
    </g>
    <g id="ytick_4">
     <g id="line2d_19">
      <path clip-path="url(#p2d59773c14)" d="M 63.336875 90.038001 
L 398.136875 90.038001 
" style="fill:none;stroke:#000000;stroke-dasharray:0.5,0.825;stroke-dashoffset:0;stroke-width:0.5;"/>
     </g>
     <g id="line2d_20">
      <g>
       <use style="stroke:#000000;stroke-width:0.8;" x="63.336875" xlink:href="#m742cb8c04c" y="90.038001"/>
      </g>
     </g>
     <g id="text_11">
      <!-- 0.02 -->
      <g transform="translate(31.836875 94.898626)scale(0.14 -0.14)">
       <use xlink:href="#TimesNewRomanPSMT-30"/>
       <use x="50" xlink:href="#TimesNewRomanPSMT-2e"/>
       <use x="75" xlink:href="#TimesNewRomanPSMT-30"/>
       <use x="125" xlink:href="#TimesNewRomanPSMT-32"/>
      </g>
     </g>
    </g>
    <g id="ytick_5">
     <g id="line2d_21">
      <path clip-path="url(#p2d59773c14)" d="M 63.336875 27.340061 
L 398.136875 27.340061 
" style="fill:none;stroke:#000000;stroke-dasharray:0.5,0.825;stroke-dashoffset:0;stroke-width:0.5;"/>
     </g>
     <g id="line2d_22">
      <g>
       <use style="stroke:#000000;stroke-width:0.8;" x="63.336875" xlink:href="#m742cb8c04c" y="27.340061"/>
      </g>
     </g>
     <g id="text_12">
      <!-- 0.04 -->
      <g transform="translate(31.836875 32.200686)scale(0.14 -0.14)">
       <use xlink:href="#TimesNewRomanPSMT-30"/>
       <use x="50" xlink:href="#TimesNewRomanPSMT-2e"/>
       <use x="75" xlink:href="#TimesNewRomanPSMT-30"/>
       <use x="125" xlink:href="#TimesNewRomanPSMT-34"/>
      </g>
     </g>
    </g>
    <g id="text_13">
     <!-- Volatage (V) -->
     <g transform="translate(16.92125 209.352344)rotate(-90)scale(0.14 -0.14)">
      <defs>
       <path d="M 4544 4238 
L 4544 4122 
Q 4319 4081 4203 3978 
Q 4038 3825 3909 3509 
L 2431 -97 
L 2316 -97 
L 728 3556 
Q 606 3838 556 3900 
Q 478 3997 364 4051 
Q 250 4106 56 4122 
L 56 4238 
L 1788 4238 
L 1788 4122 
Q 1494 4094 1406 4022 
Q 1319 3950 1319 3838 
Q 1319 3681 1463 3350 
L 2541 866 
L 3541 3319 
Q 3688 3681 3688 3822 
Q 3688 3913 3597 3995 
Q 3506 4078 3291 4113 
Q 3275 4116 3238 4122 
L 3238 4238 
L 4544 4238 
z
" id="TimesNewRomanPSMT-56" transform="scale(0.015625)"/>
       <path d="M 1600 2947 
Q 2250 2947 2644 2453 
Q 2978 2031 2978 1484 
Q 2978 1100 2793 706 
Q 2609 313 2286 112 
Q 1963 -88 1566 -88 
Q 919 -88 538 428 
Q 216 863 216 1403 
Q 216 1797 411 2186 
Q 606 2575 925 2761 
Q 1244 2947 1600 2947 
z
M 1503 2744 
Q 1338 2744 1170 2645 
Q 1003 2547 900 2300 
Q 797 2053 797 1666 
Q 797 1041 1045 587 
Q 1294 134 1700 134 
Q 2003 134 2200 384 
Q 2397 634 2397 1244 
Q 2397 2006 2069 2444 
Q 1847 2744 1503 2744 
z
" id="TimesNewRomanPSMT-6f" transform="scale(0.015625)"/>
       <path d="M 1184 4444 
L 1184 647 
Q 1184 378 1223 290 
Q 1263 203 1344 158 
Q 1425 113 1647 113 
L 1647 0 
L 244 0 
L 244 113 
Q 441 113 512 153 
Q 584 194 625 287 
Q 666 381 666 647 
L 666 3247 
Q 666 3731 644 3842 
Q 622 3953 573 3993 
Q 525 4034 450 4034 
Q 369 4034 244 3984 
L 191 4094 
L 1044 4444 
L 1184 4444 
z
" id="TimesNewRomanPSMT-6c" transform="scale(0.015625)"/>
       <path d="M 1822 413 
Q 1381 72 1269 19 
Q 1100 -59 909 -59 
Q 613 -59 420 144 
Q 228 347 228 678 
Q 228 888 322 1041 
Q 450 1253 767 1440 
Q 1084 1628 1822 1897 
L 1822 2009 
Q 1822 2438 1686 2597 
Q 1550 2756 1291 2756 
Q 1094 2756 978 2650 
Q 859 2544 859 2406 
L 866 2225 
Q 866 2081 792 2003 
Q 719 1925 600 1925 
Q 484 1925 411 2006 
Q 338 2088 338 2228 
Q 338 2497 613 2722 
Q 888 2947 1384 2947 
Q 1766 2947 2009 2819 
Q 2194 2722 2281 2516 
Q 2338 2381 2338 1966 
L 2338 994 
Q 2338 584 2353 492 
Q 2369 400 2405 369 
Q 2441 338 2488 338 
Q 2538 338 2575 359 
Q 2641 400 2828 588 
L 2828 413 
Q 2478 -56 2159 -56 
Q 2006 -56 1915 50 
Q 1825 156 1822 413 
z
M 1822 616 
L 1822 1706 
Q 1350 1519 1213 1441 
Q 966 1303 859 1153 
Q 753 1003 753 825 
Q 753 600 887 451 
Q 1022 303 1197 303 
Q 1434 303 1822 616 
z
" id="TimesNewRomanPSMT-61" transform="scale(0.015625)"/>
       <path d="M 1031 3803 
L 1031 2863 
L 1700 2863 
L 1700 2644 
L 1031 2644 
L 1031 788 
Q 1031 509 1111 412 
Q 1191 316 1316 316 
Q 1419 316 1516 380 
Q 1613 444 1666 569 
L 1788 569 
Q 1678 263 1478 108 
Q 1278 -47 1066 -47 
Q 922 -47 784 33 
Q 647 113 581 261 
Q 516 409 516 719 
L 516 2644 
L 63 2644 
L 63 2747 
Q 234 2816 414 2980 
Q 594 3144 734 3369 
Q 806 3488 934 3803 
L 1031 3803 
z
" id="TimesNewRomanPSMT-74" transform="scale(0.015625)"/>
       <path d="M 966 1044 
Q 703 1172 562 1401 
Q 422 1631 422 1909 
Q 422 2334 742 2640 
Q 1063 2947 1563 2947 
Q 1972 2947 2272 2747 
L 2878 2747 
Q 3013 2747 3034 2739 
Q 3056 2731 3066 2713 
Q 3084 2684 3084 2613 
Q 3084 2531 3069 2500 
Q 3059 2484 3036 2475 
Q 3013 2466 2878 2466 
L 2506 2466 
Q 2681 2241 2681 1891 
Q 2681 1491 2375 1206 
Q 2069 922 1553 922 
Q 1341 922 1119 984 
Q 981 866 932 777 
Q 884 688 884 625 
Q 884 572 936 522 
Q 988 472 1138 450 
Q 1225 438 1575 428 
Q 2219 413 2409 384 
Q 2700 344 2873 169 
Q 3047 -6 3047 -263 
Q 3047 -616 2716 -925 
Q 2228 -1381 1444 -1381 
Q 841 -1381 425 -1109 
Q 191 -953 191 -784 
Q 191 -709 225 -634 
Q 278 -519 444 -313 
Q 466 -284 763 25 
Q 600 122 533 198 
Q 466 275 466 372 
Q 466 481 555 628 
Q 644 775 966 1044 
z
M 1509 2797 
Q 1278 2797 1122 2612 
Q 966 2428 966 2047 
Q 966 1553 1178 1281 
Q 1341 1075 1591 1075 
Q 1828 1075 1981 1253 
Q 2134 1431 2134 1813 
Q 2134 2309 1919 2591 
Q 1759 2797 1509 2797 
z
M 934 0 
Q 788 -159 713 -296 
Q 638 -434 638 -550 
Q 638 -700 819 -813 
Q 1131 -1006 1722 -1006 
Q 2284 -1006 2551 -807 
Q 2819 -609 2819 -384 
Q 2819 -222 2659 -153 
Q 2497 -84 2016 -72 
Q 1313 -53 934 0 
z
" id="TimesNewRomanPSMT-67" transform="scale(0.015625)"/>
      </defs>
      <use xlink:href="#TimesNewRomanPSMT-56"/>
      <use x="59.341797" xlink:href="#TimesNewRomanPSMT-6f"/>
      <use x="109.341797" xlink:href="#TimesNewRomanPSMT-6c"/>
      <use x="137.125" xlink:href="#TimesNewRomanPSMT-61"/>
      <use x="181.509766" xlink:href="#TimesNewRomanPSMT-74"/>
      <use x="209.292969" xlink:href="#TimesNewRomanPSMT-61"/>
      <use x="253.677734" xlink:href="#TimesNewRomanPSMT-67"/>
      <use x="303.677734" xlink:href="#TimesNewRomanPSMT-65"/>
      <use x="348.0625" xlink:href="#TimesNewRomanPSMT-20"/>
      <use x="373.0625" xlink:href="#TimesNewRomanPSMT-28"/>
      <use x="406.363281" xlink:href="#TimesNewRomanPSMT-56"/>
      <use x="478.580078" xlink:href="#TimesNewRomanPSMT-29"/>
     </g>
    </g>
   </g>
   <g id="LineCollection_1">
    <path clip-path="url(#p2d59773c14)" d="M 78.555057 152.735942 
L 382.918693 152.735942 
" style="fill:none;stroke:#1f77b4;stroke-width:1.5;"/>
   </g>
   <g id="line2d_23">
    <path clip-path="url(#p2d59773c14)" d="M 78.555057 152.73171 
L 78.61593 152.653337 
L 78.646366 152.73171 
L 87.99033 152.770896 
L 88.020766 152.849268 
L 88.081639 152.770896 
L 98.247384 152.692523 
L 98.27782 152.653337 
L 98.338693 152.73171 
L 100.864911 152.692523 
L 100.895348 152.614151 
L 100.925784 152.73171 
L 100.986657 152.653337 
L 101.077966 152.692523 
L 101.108402 152.653337 
L 103.878111 152.574965 
L 103.999857 152.574965 
L 104.121602 152.574965 
L 106.465202 152.653337 
L 106.495639 152.692523 
L 106.556511 152.614151 
L 111.09153 152.614151 
L 111.152402 152.73171 
L 111.213275 152.653337 
L 111.365457 152.692523 
L 111.487202 152.653337 
L 111.66982 152.73171 
L 112.704657 152.810082 
L 112.795966 152.849268 
L 112.826402 152.810082 
L 113.222075 152.888454 
L 113.313384 152.92764 
L 113.34382 152.888454 
L 113.648184 152.966827 
L 113.800366 153.006013 
L 114.43953 153.084385 
L 114.561275 153.162758 
L 114.591711 153.084385 
L 114.622148 153.201944 
L 114.652584 153.162758 
L 114.926511 153.24113 
L 115.01782 153.280316 
L 115.048257 153.24113 
L 115.261311 153.319503 
L 115.413493 153.397875 
L 115.504802 153.397875 
L 115.656984 153.437061 
L 115.991784 153.515434 
L 116.083093 153.55462 
L 116.11353 153.515434 
L 116.296148 153.593806 
L 116.417893 153.593806 
L 116.996184 153.672179 
L 117.148366 153.711365 
L 117.391857 153.789737 
L 117.45273 153.828923 
L 117.483166 153.789737 
L 117.574475 153.789737 
L 117.726657 153.86811 
L 117.878839 153.828923 
L 118.03102 153.907296 
L 118.183202 153.86811 
L 118.396257 153.985668 
L 118.79193 154.064041 
L 118.944111 154.103227 
L 119.339784 154.181599 
L 119.552839 154.299158 
L 119.674584 154.37753 
L 119.79633 154.37753 
L 119.978948 154.455903 
L 120.100693 154.495089 
L 120.192002 154.495089 
L 120.344184 154.612648 
L 120.587675 154.651834 
L 120.739857 154.808579 
L 121.074657 155.082882 
L 121.165966 155.161255 
L 121.348584 155.357186 
L 121.409457 155.396372 
L 121.592075 155.592303 
L 122.38342 156.767889 
L 122.931275 157.904289 
L 123.174766 158.374524 
L 123.47913 159.158248 
L 123.631311 159.510924 
L 124.635711 162.371518 
L 127.192366 172.677492 
L 128.653311 179.652638 
L 129.322911 182.669975 
L 129.931639 185.256265 
L 131.575202 191.21257 
L 131.727384 191.565246 
L 132.031748 192.309784 
L 132.275239 192.740833 
L 132.305675 192.701646 
L 132.336111 192.819205 
L 132.883966 193.367812 
L 133.492693 193.28944 
L 133.675311 193.054322 
L 133.76662 192.97595 
L 134.740584 191.565246 
L 135.044948 190.781522 
L 135.166693 190.468032 
L 135.805857 188.547908 
L 136.171093 186.902087 
L 137.084184 181.69032 
L 137.571166 178.28112 
L 139.245166 164.487574 
L 140.858293 146.736219 
L 142.410548 126.320202 
L 143.90193 105.708251 
L 147.371675 58.136192 
L 149.045675 39.992969 
L 150.202257 30.509909 
L 150.993602 26.121063 
L 151.632766 24.044187 
L 151.754511 23.769884 
L 152.028439 23.103712 
L 152.089311 23.064532 
L 152.393675 22.555108 
L 152.667602 22.32 
L 152.789348 22.35918 
L 152.880657 22.32 
L 153.032839 22.437552 
L 153.702439 23.456391 
L 154.098111 24.710359 
L 155.315566 31.528757 
L 156.259093 39.679486 
L 157.354802 52.101512 
L 158.389639 66.835531 
L 159.424475 84.508513 
L 160.854984 112.213166 
L 165.146511 208.572063 
L 166.729202 242.703254 
L 167.885784 265.666378 
L 169.316293 289.452409 
L 170.533748 305.166083 
L 171.35553 313.434368 
L 172.451239 321.075673 
L 172.572984 321.663469 
L 172.907784 323.113368 
L 173.303457 324.210576 
L 173.333893 324.171396 
L 173.36433 324.249759 
L 173.69913 324.52406 
L 173.729566 324.48488 
L 173.760002 324.602435 
L 173.790439 324.563252 
L 174.003493 324.680808 
L 174.338293 324.602435 
L 174.764402 323.936276 
L 175.160075 322.799872 
L 175.190511 322.799872 
L 176.225348 318.37183 
L 177.62542 308.65365 
L 179.816839 285.024367 
L 180.608184 274.404903 
L 181.186475 266.528477 
L 183.621384 227.2247 
L 188.643384 144.972839 
L 189.76953 129.063236 
L 191.291348 109.078269 
L 193.45233 85.292241 
L 194.517602 76.632088 
L 194.913275 73.418815 
L 195.522002 68.912401 
L 196.008984 65.072152 
L 197.226439 56.490371 
L 198.71782 49.358477 
L 199.72222 45.870908 
L 199.783093 45.714163 
L 200.209202 44.068348 
L 201.48753 41.051 
L 202.035384 40.502393 
L 202.187566 40.541586 
L 202.49193 40.463213 
L 202.644111 40.306465 
L 202.887602 40.228093 
L 202.918039 40.149717 
L 202.978911 40.18891 
L 203.100657 40.228093 
L 203.16153 40.18891 
L 203.191966 40.267285 
L 203.344148 40.306465 
L 203.526766 40.502393 
L 203.770257 40.541586 
L 203.892002 40.619961 
L 204.287675 40.659141 
L 204.50073 40.933445 
L 204.83553 41.521241 
L 205.200766 42.1874 
L 205.596439 42.853572 
L 208.274839 49.985454 
L 208.731384 51.788029 
L 210.314075 58.332126 
L 210.709748 59.899572 
L 210.77062 60.095506 
L 211.86633 64.758662 
L 213.966439 76.083478 
L 216.918766 99.751953 
L 219.384111 122.950188 
L 221.210293 142.856784 
L 222.24513 154.651834 
L 223.553893 171.070856 
L 224.132184 178.320306 
L 225.50182 195.444681 
L 230.097711 253.205159 
L 230.889057 261.159963 
L 233.445711 280.047708 
L 234.115311 283.025863 
L 234.389239 284.162267 
L 234.906657 285.220294 
L 234.997966 285.29867 
L 235.180584 285.612153 
L 235.758875 286.23913 
L 235.941493 286.043202 
L 235.97193 286.121574 
L 236.002366 286.043202 
L 236.519784 284.985174 
L 236.55022 284.985174 
L 236.945893 283.887963 
L 237.067639 283.57447 
L 237.524184 281.380052 
L 239.624293 267.233829 
L 241.876584 242.938374 
L 245.711566 192.192226 
L 247.172511 169.581781 
L 249.546548 134.588492 
L 250.520511 122.048905 
L 251.220548 113.702242 
L 252.651057 100.104629 
L 254.081566 89.877024 
L 255.451202 83.372113 
L 256.486039 79.766985 
L 256.820839 79.179188 
L 257.06433 78.826509 
L 257.73393 78.121157 
L 257.825239 78.121157 
L 257.97742 78.081971 
L 258.494839 78.003605 
L 258.707893 77.886043 
L 258.98182 77.807671 
L 259.134002 77.768482 
L 260.016657 77.729295 
L 260.047093 77.650929 
L 260.138402 77.690115 
L 260.381893 77.768482 
L 260.625384 77.92523 
L 260.808002 78.003605 
L 261.142802 78.317092 
L 261.173239 78.277905 
L 261.234111 78.356281 
L 261.32542 78.434647 
L 261.873275 79.257561 
L 262.08633 79.688609 
L 262.32982 80.15884 
L 263.882075 84.430141 
L 266.408293 94.618553 
L 267.990984 103.278706 
L 268.569275 106.923027 
L 269.11713 110.293041 
L 271.856402 128.632189 
L 273.04342 136.939665 
L 273.46953 139.6827 
L 273.895639 142.112246 
L 276.05662 152.73171 
L 276.239239 153.476247 
L 278.461093 161.62698 
L 278.552402 161.901284 
L 278.978511 163.194429 
L 279.008948 163.194429 
L 279.374184 164.174084 
L 279.40462 164.174084 
L 279.678548 164.840249 
L 279.83073 165.192925 
L 280.256839 166.055022 
L 280.317711 166.133394 
L 280.896002 167.034677 
L 281.230802 167.62247 
L 282.813493 169.503409 
L 283.604839 169.581781 
L 283.75702 169.620967 
L 284.030948 169.581781 
L 284.18313 169.425037 
L 284.365748 169.38585 
L 284.51793 169.229105 
L 284.548366 169.268291 
L 284.609239 169.189918 
L 284.85273 169.033174 
L 284.883166 169.072361 
L 284.913602 168.993988 
L 285.248402 168.719685 
L 285.339711 168.680498 
L 285.52233 168.406194 
L 286.10062 167.544098 
L 286.313675 167.152236 
L 286.648475 166.564442 
L 287.165893 165.506415 
L 287.43982 164.996994 
L 287.86593 164.134898 
L 287.926802 164.056525 
L 288.474657 163.194429 
L 288.657275 162.841753 
L 288.718148 162.76338 
L 288.961639 162.410704 
L 289.266002 162.175587 
L 289.44862 162.097214 
L 289.722548 161.901284 
L 289.905166 161.822911 
L 290.026911 161.744538 
L 290.422584 161.783724 
L 290.605202 161.979656 
L 290.726948 162.058028 
L 290.909566 162.293145 
L 291.031311 162.332332 
L 291.183493 162.489076 
L 291.244366 162.528263 
L 291.579166 163.116056 
L 291.700911 163.429546 
L 292.88793 166.721188 
L 293.253166 168.092705 
L 293.618402 169.307478 
L 295.627202 177.458209 
L 295.992439 179.10403 
L 296.509857 181.259273 
L 296.722911 182.042996 
L 297.209893 184.002308 
L 298.549093 188.783025 
L 298.609966 188.93977 
L 298.853457 189.801867 
L 299.218693 190.781522 
L 299.340439 191.055825 
L 299.766548 192.270598 
L 300.618766 194.190722 
L 300.892693 194.700143 
L 301.379675 195.679799 
L 302.018839 196.345964 
L 302.110148 196.38515 
L 302.384075 196.855385 
L 302.444948 196.933757 
L 303.17542 197.717482 
L 303.327602 197.795854 
L 303.662402 198.070158 
L 303.784148 198.14853 
L 303.966766 198.226902 
L 304.60593 198.14853 
L 304.94073 197.874226 
L 305.062475 197.795854 
L 305.27553 197.639109 
L 305.366839 197.639109 
L 305.51902 197.521551 
L 306.097311 196.659454 
L 306.340802 196.150033 
L 307.497384 192.897577 
L 307.801748 191.83955 
L 307.893057 191.565246 
L 308.19742 190.507218 
L 309.354002 185.608941 
L 310.906257 177.066348 
L 312.032402 169.111546 
L 312.762875 163.507918 
L 313.767275 156.336841 
L 316.293493 137.684204 
L 317.632693 129.729401 
L 317.90662 128.240327 
L 318.606657 124.439264 
L 320.554584 114.9562 
L 322.715566 107.001399 
L 322.806875 106.727096 
L 324.450439 100.809981 
L 324.724366 99.869509 
L 324.998293 99.007412 
L 325.880948 97.008918 
L 326.915784 95.833329 
L 327.03753 95.754956 
L 327.28102 95.598215 
L 327.311457 95.637401 
L 327.37233 95.559025 
L 328.37673 95.637401 
L 328.589784 95.754956 
L 328.71153 95.833329 
L 329.442002 96.891356 
L 329.71593 97.518336 
L 329.868111 97.871012 
L 330.233348 98.850667 
L 330.659457 100.222185 
L 331.359493 102.534174 
L 331.450802 102.808475 
L 331.755166 103.866505 
L 332.120402 105.198834 
L 333.763966 111.978048 
L 336.32062 124.596008 
L 336.65542 126.320202 
L 338.99902 138.898976 
L 339.394693 141.093404 
L 342.316584 155.592303 
L 343.10793 159.079876 
L 343.655784 161.352676 
L 345.299348 167.269795 
L 345.421093 167.583284 
L 345.877639 169.033174 
L 346.486366 170.992484 
L 346.577675 171.266788 
L 347.429893 174.127382 
L 347.521202 174.401685 
L 349.103893 178.202748 
L 349.37782 178.712169 
L 349.834366 179.613451 
L 350.47353 180.593108 
L 350.838766 181.259273 
L 350.930075 181.337644 
L 351.173566 181.69032 
L 351.599675 182.082183 
L 351.660548 182.12137 
L 351.81273 182.278114 
L 351.904039 182.356485 
L 352.177966 182.552417 
L 352.634511 182.630791 
L 352.786693 182.669975 
L 353.669348 182.591604 
L 353.82153 182.552417 
L 353.943275 182.591604 
L 354.095457 182.552417 
L 355.860766 182.591604 
L 355.982511 182.669975 
L 356.317311 182.748348 
L 356.40862 182.826722 
L 356.439057 182.787535 
L 356.591239 182.865906 
L 356.74342 182.905093 
L 357.108657 182.983467 
L 357.230402 183.101024 
L 357.260839 183.061837 
L 357.321711 183.140211 
L 357.534766 183.218582 
L 357.686948 183.336143 
L 357.930439 183.375327 
L 357.960875 183.453701 
L 358.052184 183.414514 
L 358.691348 183.492887 
L 358.782657 183.532071 
L 358.813093 183.492887 
L 358.84353 183.453701 
L 358.904402 183.532071 
L 358.995711 183.571258 
L 359.026148 183.532071 
L 359.147893 183.453701 
L 359.17833 183.571258 
L 359.269639 183.492887 
L 359.391384 183.492887 
L 359.543566 183.453701 
L 360.487093 183.375327 
L 360.791457 183.140211 
L 360.913202 183.061837 
L 361.18713 182.826722 
L 361.217566 182.905093 
L 361.278439 182.787535 
L 361.308875 182.826722 
L 361.339311 182.787535 
L 361.491493 182.630791 
L 361.552366 182.552417 
L 362.891566 180.710666 
L 363.10462 180.279616 
L 363.408984 179.731012 
L 363.743784 179.143217 
L 364.078584 178.555424 
L 364.44382 177.850072 
L 364.504693 177.7717 
L 364.717748 177.379837 
L 364.961239 177.027161 
L 365.022111 176.948789 
L 365.235166 176.635299 
L 365.296039 176.556927 
L 365.509093 176.282623 
L 367.243966 174.205754 
L 367.304839 174.127382 
L 367.913566 173.500402 
L 368.065748 173.461216 
L 368.21793 173.343657 
L 368.339675 173.265285 
L 368.704911 172.951796 
L 368.765784 172.873423 
L 369.100584 172.59912 
L 369.252766 172.520748 
L 369.496257 172.364001 
L 369.648439 172.285629 
L 369.983239 172.011327 
L 370.074548 171.932953 
L 370.56153 171.462719 
L 370.591966 171.501905 
L 370.622402 171.384347 
L 370.713711 171.34516 
L 370.926766 171.070856 
L 371.048511 170.992484 
L 371.200693 170.796554 
L 372.174657 169.699339 
L 372.265966 169.620967 
L 372.47902 169.346663 
L 374.48782 166.642815 
L 374.700875 166.211767 
L 374.91393 165.780719 
L 375.979202 163.272801 
L 376.009639 163.272801 
L 376.314002 162.449891 
L 376.344439 162.449891 
L 376.648802 161.431048 
L 376.679239 161.431048 
L 377.227093 159.746042 
L 377.379275 159.393366 
L 377.957566 157.669172 
L 378.231493 156.807076 
L 378.657602 155.553117 
L 378.779348 155.278813 
L 379.083711 154.259972 
L 379.448948 153.045199 
L 382.918693 139.643515 
L 382.918693 139.643515 
" style="fill:none;stroke:#0000ff;stroke-linecap:square;stroke-width:1.5;"/>
   </g>
   <g id="line2d_24">
    <path clip-path="url(#p2d59773c14)" d="M 78.555057 152.737352 
L 85.677166 152.835318 
L 85.829348 152.815725 
L 88.720802 152.717759 
L 88.933857 152.698166 
L 99.860511 152.796132 
L 100.104002 152.835318 
L 100.438802 152.933283 
L 100.62142 153.011656 
L 100.804039 153.090028 
L 101.04753 153.246773 
L 101.169275 153.305552 
L 101.321457 153.442704 
L 101.747566 153.834566 
L 102.812839 155.362829 
L 103.117202 155.970215 
L 103.695493 157.322139 
L 104.578148 159.888836 
L 106.526075 167.843637 
L 110.300184 184.341033 
L 110.513239 184.987605 
L 111.974184 188.494771 
L 112.065493 188.651516 
L 112.582911 189.415647 
L 113.191639 189.689951 
L 113.526439 189.591985 
L 114.165602 189.082565 
L 115.048257 187.16244 
L 115.504802 185.810515 
L 115.870039 184.615336 
L 117.757093 174.328956 
L 119.887639 158.458539 
L 121.013784 148.93629 
L 121.896439 140.981488 
L 123.022584 130.655921 
L 124.513966 117.293423 
L 126.005348 106.61518 
L 126.857566 101.814869 
L 128.440257 94.23234 
L 129.17073 91.450119 
L 129.992511 89.627954 
L 131.08822 88.373998 
L 131.636075 88.276032 
L 131.970875 87.942947 
L 132.305675 87.511904 
L 132.701348 87.355156 
L 133.127457 87.511904 
L 134.010111 87.609867 
L 134.284039 87.90376 
L 134.801457 88.393594 
L 135.014511 88.413184 
L 135.53193 88.491557 
L 136.505893 89.569178 
L 136.627639 89.608364 
L 136.810257 89.686736 
L 137.510293 90.744764 
L 137.905966 91.469709 
L 138.45382 92.743261 
L 138.849493 94.369492 
L 140.310439 101.462193 
L 141.740948 109.397401 
L 143.171457 119.252734 
L 144.175857 127.305499 
L 147.067311 150.484145 
L 151.26753 187.338778 
L 153.824184 204.678677 
L 154.52422 207.735202 
L 155.52862 211.203185 
L 155.832984 211.771379 
L 156.53302 212.888192 
L 157.080875 213.123306 
L 157.811348 213.025341 
L 158.176584 212.672665 
L 160.276693 208.381777 
L 161.250657 205.599553 
L 163.259457 197.448821 
L 165.146511 187.16244 
L 166.029166 182.068233 
L 166.759639 178.071239 
L 168.068402 171.879817 
L 168.646693 170.077251 
L 169.224984 168.588175 
L 169.742402 167.80445 
L 169.833711 167.706486 
L 170.107639 167.412589 
L 170.472875 167.0991 
L 170.868548 167.177472 
L 171.172911 167.54974 
L 171.385966 167.80445 
L 172.177311 168.980038 
L 172.846911 170.978535 
L 175.068766 179.991363 
L 175.738366 184.007951 
L 176.95582 191.708041 
L 177.868911 197.899462 
L 178.416766 202.131573 
L 179.116802 207.069036 
L 180.212511 213.456386 
L 181.39953 218.295886 
L 182.343057 221.509159 
L 183.31702 223.723177 
L 183.530075 223.821142 
L 183.98662 223.74277 
L 184.32142 223.488056 
L 184.504039 223.272538 
L 185.051893 221.979387 
L 185.569311 219.961303 
L 186.117166 217.002744 
L 186.878075 211.438299 
L 187.943348 201.622153 
L 189.282548 186.692206 
L 190.195639 174.85797 
L 196.161166 88.17807 
L 197.256875 76.128307 
L 198.991748 60.434228 
L 199.570039 55.555542 
L 200.422257 49.305341 
L 201.761457 42.114671 
L 202.187566 40.723563 
L 202.765857 39.234484 
L 203.73982 38.156873 
L 204.287675 37.902153 
L 204.592039 38.176456 
L 204.987711 38.901405 
L 205.292075 39.704725 
L 205.687748 41.291764 
L 208.18353 56.398042 
L 209.157493 63.373197 
L 211.288039 79.243614 
L 212.718548 91.156219 
L 213.509893 97.504389 
L 214.240366 103.108011 
L 215.610002 113.590326 
L 220.418948 149.896352 
L 220.90593 152.952877 
L 221.849457 158.869995 
L 226.232293 183.635681 
L 226.719275 185.947666 
L 227.541057 189.611578 
L 228.51502 193.510607 
L 230.554257 199.721621 
L 230.706439 200.09389 
L 231.86302 202.543029 
L 232.441311 204.032102 
L 232.95873 205.26647 
L 235.119711 211.124809 
L 235.819748 213.005744 
L 235.911057 213.182082 
L 237.432875 215.885931 
L 238.619893 217.237858 
L 239.046002 217.394606 
L 240.476511 217.472973 
L 240.65913 217.531758 
L 241.054802 217.629721 
L 241.57222 217.845245 
L 241.66353 217.884434 
L 241.937457 217.9628 
L 242.059202 217.982396 
L 242.424439 218.139138 
L 242.515748 218.139138 
L 242.728802 218.2567 
L 242.941857 218.354662 
L 243.154911 218.531 
L 243.428839 218.785714 
L 243.67233 219.13839 
L 244.159311 219.941707 
L 245.376766 222.508404 
L 245.742002 223.311718 
L 246.381166 224.761611 
L 246.746402 225.584522 
L 246.989893 226.054753 
L 247.507311 227.132377 
L 247.59862 227.289119 
L 248.116039 228.327557 
L 248.542148 229.052498 
L 248.876948 229.48355 
L 249.27262 229.855816 
L 249.790039 230.34565 
L 250.185711 230.482801 
L 250.794439 230.580764 
L 251.03793 230.639543 
L 251.220548 230.639543 
L 251.585784 230.541578 
L 251.768402 230.404426 
L 252.072766 230.090936 
L 253.04673 227.974881 
L 253.442402 226.701329 
L 254.264184 223.507652 
L 254.781602 221.117293 
L 256.820839 207.30415 
L 258.038293 196.234048 
L 259.438366 180.677122 
L 261.599348 151.483393 
L 265.982184 85.454625 
L 267.838802 60.728125 
L 268.721457 51.264651 
L 269.847602 41.428915 
L 271.217239 34.140283 
L 271.612911 32.866731 
L 272.37382 31.181724 
L 272.79993 30.809452 
L 273.226039 30.887824 
L 273.591275 31.181724 
L 273.834766 31.456027 
L 274.13913 32.024227 
L 274.900039 34.826038 
L 275.782693 39.29326 
L 277.15233 48.776333 
L 278.674148 62.393536 
L 281.74822 95.15321 
L 283.17873 111.317526 
L 288.078984 163.748678 
L 291.12262 192.060717 
L 292.735748 204.659087 
L 293.983639 212.77063 
L 295.90113 220.921359 
L 297.666439 226.250687 
L 297.757748 226.407429 
L 298.183857 227.210753 
L 298.975202 228.053256 
L 299.127384 228.151219 
L 299.82742 228.484298 
L 300.070911 228.386336 
L 300.710075 227.876918 
L 301.105748 227.347904 
L 301.16662 227.269529 
L 301.50142 226.681739 
L 301.866657 225.819639 
L 301.957966 225.662897 
L 302.536257 224.31097 
L 303.631966 219.647814 
L 304.027639 217.394606 
L 305.062475 210.027595 
L 309.780111 174.407328 
L 312.88462 157.067429 
L 315.532584 143.979233 
L 317.115275 138.27764 
L 317.541384 136.906123 
L 318.302293 134.398205 
L 318.789275 133.203026 
L 321.711166 125.953575 
L 321.954657 125.483341 
L 322.715566 123.817928 
L 325.02873 119.115582 
L 326.246184 115.56923 
L 329.533311 107.398904 
L 331.207311 104.401162 
L 331.876911 103.7154 
L 332.607384 103.362724 
L 332.790002 103.362724 
L 333.033493 103.303945 
L 333.155239 103.303945 
L 333.794402 103.382321 
L 334.037893 103.539062 
L 334.159639 103.617435 
L 334.433566 103.950514 
L 334.524875 104.02889 
L 336.564111 108.202222 
L 338.238111 112.806602 
L 338.816402 114.903064 
L 339.942548 119.683782 
L 340.825202 124.170604 
L 343.929711 142.803648 
L 345.299348 153.285959 
L 346.12113 160.143547 
L 347.977748 174.760004 
L 350.686584 194.823345 
L 352.299711 205.481995 
L 353.851966 213.828658 
L 354.795493 218.139138 
L 356.317311 223.625214 
L 357.108657 224.918356 
L 357.595639 225.388587 
L 358.873966 225.310221 
L 359.482693 224.350156 
L 360.09142 222.508404 
L 362.19153 212.535516 
L 362.952439 207.91154 
L 363.408984 204.992167 
L 365.11342 192.139089 
L 366.78742 178.365135 
L 369.587566 152.149559 
L 372.174657 126.60015 
L 374.48782 108.163035 
L 375.400911 102.481035 
L 376.131384 98.484041 
L 378.535857 88.158474 
L 379.114148 86.669401 
L 379.418511 86.101201 
L 379.722875 85.591777 
L 380.666402 84.533749 
L 380.818584 84.435784 
L 381.153384 84.337818 
L 381.305566 84.377007 
L 381.427311 84.396597 
L 382.52302 85.219508 
L 382.918693 85.748525 
L 382.918693 85.748525 
" style="fill:none;stroke:#ff0000;stroke-linecap:square;stroke-width:1.5;"/>
   </g>
   <g id="line2d_25">
    <path clip-path="url(#p2d59773c14)" d="M 124.300911 161.352676 
" style="fill:none;stroke:#ffffff;stroke-linecap:square;stroke-width:1.5;"/>
    <defs>
     <path d="M 0 -5 
L -1.12257 -1.545085 
L -4.755283 -1.545085 
L -1.816356 0.59017 
L -2.938926 4.045085 
L -0 1.90983 
L 2.938926 4.045085 
L 1.816356 0.59017 
L 4.755283 -1.545085 
L 1.12257 -1.545085 
z
" id="m89c7926b6b" style="stroke:#ffffff;stroke-linejoin:bevel;"/>
    </defs>
    <g clip-path="url(#p2d59773c14)">
     <use style="fill:#0000ff;stroke:#ffffff;stroke-linejoin:bevel;" x="124.300911" xlink:href="#m89c7926b6b" y="161.352676"/>
    </g>
   </g>
   <g id="line2d_26">
    <path clip-path="url(#p2d59773c14)" d="M 104.273784 158.909181 
" style="fill:none;stroke:#ffffff;stroke-linecap:square;stroke-width:1.5;"/>
    <defs>
     <path d="M 0 -5 
L -1.12257 -1.545085 
L -4.755283 -1.545085 
L -1.816356 0.59017 
L -2.938926 4.045085 
L -0 1.90983 
L 2.938926 4.045085 
L 1.816356 0.59017 
L 4.755283 -1.545085 
L 1.12257 -1.545085 
z
" id="ma0390f8554" style="stroke:#ffffff;stroke-linejoin:bevel;"/>
    </defs>
    <g clip-path="url(#p2d59773c14)">
     <use style="fill:#ff0000;stroke:#ffffff;stroke-linejoin:bevel;" x="104.273784" xlink:href="#ma0390f8554" y="158.909181"/>
    </g>
   </g>
   <g id="patch_3">
    <path d="M 63.336875 339.84 
L 63.336875 7.2 
" style="fill:none;stroke:#000000;stroke-linecap:square;stroke-linejoin:miter;stroke-width:0.8;"/>
   </g>
   <g id="patch_4">
    <path d="M 398.136875 339.84 
L 398.136875 7.2 
" style="fill:none;stroke:#000000;stroke-linecap:square;stroke-linejoin:miter;stroke-width:0.8;"/>
   </g>
   <g id="patch_5">
    <path d="M 63.336875 339.84 
L 398.136875 339.84 
" style="fill:none;stroke:#000000;stroke-linecap:square;stroke-linejoin:miter;stroke-width:0.8;"/>
   </g>
   <g id="patch_6">
    <path d="M 63.336875 7.2 
L 398.136875 7.2 
" style="fill:none;stroke:#000000;stroke-linecap:square;stroke-linejoin:miter;stroke-width:0.8;"/>
   </g>
   <g id="text_14">
    <g id="patch_7">
     <path d="M 75.036875 331.242688 
L 166.79375 331.242688 
L 166.79375 293.760312 
L 75.036875 293.760312 
z
" style="fill:#ffffff;stroke:#000000;stroke-linejoin:miter;stroke-width:0.75;"/>
    </g>
    <!-- Auto_00125 -->
    <g transform="translate(80.076875 308.521563)scale(0.14 -0.14)">
     <defs>
      <path d="M 2928 1419 
L 1288 1419 
L 1000 750 
Q 894 503 894 381 
Q 894 284 986 211 
Q 1078 138 1384 116 
L 1384 0 
L 50 0 
L 50 116 
Q 316 163 394 238 
Q 553 388 747 847 
L 2238 4334 
L 2347 4334 
L 3822 809 
Q 4000 384 4145 257 
Q 4291 131 4550 116 
L 4550 0 
L 2878 0 
L 2878 116 
Q 3131 128 3220 200 
Q 3309 272 3309 375 
Q 3309 513 3184 809 
L 2928 1419 
z
M 2841 1650 
L 2122 3363 
L 1384 1650 
L 2841 1650 
z
" id="TimesNewRomanPSMT-41" transform="scale(0.015625)"/>
      <path d="M 2709 2863 
L 2709 1128 
Q 2709 631 2732 520 
Q 2756 409 2807 365 
Q 2859 322 2928 322 
Q 3025 322 3147 375 
L 3191 266 
L 2334 -88 
L 2194 -88 
L 2194 519 
Q 1825 119 1631 15 
Q 1438 -88 1222 -88 
Q 981 -88 804 51 
Q 628 191 559 409 
Q 491 628 491 1028 
L 491 2306 
Q 491 2509 447 2587 
Q 403 2666 317 2708 
Q 231 2750 6 2747 
L 6 2863 
L 1009 2863 
L 1009 947 
Q 1009 547 1148 422 
Q 1288 297 1484 297 
Q 1619 297 1789 381 
Q 1959 466 2194 703 
L 2194 2325 
Q 2194 2569 2105 2655 
Q 2016 2741 1734 2747 
L 1734 2863 
L 2709 2863 
z
" id="TimesNewRomanPSMT-75" transform="scale(0.015625)"/>
      <path d="M 3256 -1381 
L -53 -1381 
L -53 -1119 
L 3256 -1119 
L 3256 -1381 
z
" id="TimesNewRomanPSMT-5f" transform="scale(0.015625)"/>
     </defs>
     <use xlink:href="#TimesNewRomanPSMT-41"/>
     <use x="72.216797" xlink:href="#TimesNewRomanPSMT-75"/>
     <use x="122.216797" xlink:href="#TimesNewRomanPSMT-74"/>
     <use x="150" xlink:href="#TimesNewRomanPSMT-6f"/>
     <use x="200" xlink:href="#TimesNewRomanPSMT-5f"/>
     <use x="250" xlink:href="#TimesNewRomanPSMT-30"/>
     <use x="300" xlink:href="#TimesNewRomanPSMT-30"/>
     <use x="350" xlink:href="#TimesNewRomanPSMT-31"/>
     <use x="400" xlink:href="#TimesNewRomanPSMT-32"/>
     <use x="450" xlink:href="#TimesNewRomanPSMT-35"/>
    </g>
    <!-- Vs: 303.77m/s -->
    <g transform="translate(80.076875 323.208)scale(0.14 -0.14)">
     <defs>
      <path d="M 903 2950 
Q 1047 2950 1148 2848 
Q 1250 2747 1250 2603 
Q 1250 2459 1148 2357 
Q 1047 2256 903 2256 
Q 759 2256 657 2357 
Q 556 2459 556 2603 
Q 556 2747 657 2848 
Q 759 2950 903 2950 
z
M 897 609 
Q 1044 609 1145 506 
Q 1247 403 1247 259 
Q 1247 116 1144 14 
Q 1041 -88 897 -88 
Q 753 -88 651 14 
Q 550 116 550 259 
Q 550 403 651 506 
Q 753 609 897 609 
z
" id="TimesNewRomanPSMT-3a" transform="scale(0.015625)"/>
      <path d="M 644 4238 
L 2916 4238 
L 2916 4119 
L 1503 -88 
L 1153 -88 
L 2419 3728 
L 1253 3728 
Q 900 3728 750 3644 
Q 488 3500 328 3200 
L 238 3234 
L 644 4238 
z
" id="TimesNewRomanPSMT-37" transform="scale(0.015625)"/>
      <path d="M 1794 4444 
L 259 -88 
L 9 -88 
L 1544 4444 
L 1794 4444 
z
" id="TimesNewRomanPSMT-2f" transform="scale(0.015625)"/>
     </defs>
     <use xlink:href="#TimesNewRomanPSMT-56"/>
     <use x="72.216797" xlink:href="#TimesNewRomanPSMT-73"/>
     <use x="111.132812" xlink:href="#TimesNewRomanPSMT-3a"/>
     <use x="138.916016" xlink:href="#TimesNewRomanPSMT-20"/>
     <use x="163.916016" xlink:href="#TimesNewRomanPSMT-33"/>
     <use x="213.916016" xlink:href="#TimesNewRomanPSMT-30"/>
     <use x="263.916016" xlink:href="#TimesNewRomanPSMT-33"/>
     <use x="313.916016" xlink:href="#TimesNewRomanPSMT-2e"/>
     <use x="338.916016" xlink:href="#TimesNewRomanPSMT-37"/>
     <use x="388.916016" xlink:href="#TimesNewRomanPSMT-37"/>
     <use x="438.916016" xlink:href="#TimesNewRomanPSMT-6d"/>
     <use x="516.699219" xlink:href="#TimesNewRomanPSMT-2f"/>
     <use x="544.482422" xlink:href="#TimesNewRomanPSMT-73"/>
    </g>
   </g>
  </g>
 </g>
 <defs>
  <clipPath id="p2d59773c14">
   <rect height="332.64" width="334.8" x="63.336875" y="7.2"/>
  </clipPath>
 </defs>
</svg>
