<?xml version="1.0" encoding="utf-8" standalone="no"?>
<!DOCTYPE svg PUBLIC "-//W3C//DTD SVG 1.1//EN"
  "http://www.w3.org/Graphics/SVG/1.1/DTD/svg11.dtd">
<svg height="383.471875pt" version="1.1" viewBox="0 0 421.086875 383.471875" width="421.086875pt" xmlns="http://www.w3.org/2000/svg" xmlns:xlink="http://www.w3.org/1999/xlink">
 <metadata>
  <rdf:RDF xmlns:cc="http://creativecommons.org/ns#" xmlns:dc="http://purl.org/dc/elements/1.1/" xmlns:rdf="http://www.w3.org/1999/02/22-rdf-syntax-ns#">
   <cc:Work>
    <dc:type rdf:resource="http://purl.org/dc/dcmitype/StillImage"/>
    <dc:date>2021-06-11T14:39:39.564034</dc:date>
    <dc:format>image/svg+xml</dc:format>
    <dc:creator>
     <cc:Agent>
      <dc:title>Matplotlib v3.4.2, https://matplotlib.org/</dc:title>
     </cc:Agent>
    </dc:creator>
   </cc:Work>
  </rdf:RDF>
 </metadata>
 <defs>
  <style type="text/css">*{stroke-linecap:butt;stroke-linejoin:round;}</style>
 </defs>
 <g id="figure_1">
  <g id="patch_1">
   <path d="M 0 383.471875 
L 421.086875 383.471875 
L 421.086875 0 
L 0 0 
z
" style="fill:#ffffff;"/>
  </g>
  <g id="axes_1">
   <g id="patch_2">
    <path d="M 63.336875 339.84 
L 398.136875 339.84 
L 398.136875 7.2 
L 63.336875 7.2 
z
" style="fill:#ffffff;"/>
   </g>
   <g id="matplotlib.axis_1">
    <g id="xtick_1">
     <g id="line2d_1">
      <path clip-path="url(#p95f762b4aa)" d="M 93.773239 339.84 
L 93.773239 7.2 
" style="fill:none;stroke:#000000;stroke-dasharray:0.5,0.825;stroke-dashoffset:0;stroke-width:0.5;"/>
     </g>
     <g id="line2d_2">
      <defs>
       <path d="M 0 0 
L 0 3.5 
" id="m720afa818e" style="stroke:#000000;stroke-width:0.8;"/>
      </defs>
      <g>
       <use style="stroke:#000000;stroke-width:0.8;" x="93.773239" xlink:href="#m720afa818e" y="339.84"/>
      </g>
     </g>
     <g id="text_1">
      <!-- 0.000 -->
      <g transform="translate(78.023239 356.56125)scale(0.14 -0.14)">
       <defs>
        <path d="M 231 2094 
Q 231 2819 450 3342 
Q 669 3866 1031 4122 
Q 1313 4325 1613 4325 
Q 2100 4325 2488 3828 
Q 2972 3213 2972 2159 
Q 2972 1422 2759 906 
Q 2547 391 2217 158 
Q 1888 -75 1581 -75 
Q 975 -75 572 641 
Q 231 1244 231 2094 
z
M 844 2016 
Q 844 1141 1059 588 
Q 1238 122 1591 122 
Q 1759 122 1940 273 
Q 2122 425 2216 781 
Q 2359 1319 2359 2297 
Q 2359 3022 2209 3506 
Q 2097 3866 1919 4016 
Q 1791 4119 1609 4119 
Q 1397 4119 1231 3928 
Q 1006 3669 925 3112 
Q 844 2556 844 2016 
z
" id="TimesNewRomanPSMT-30" transform="scale(0.015625)"/>
        <path d="M 800 606 
Q 947 606 1047 504 
Q 1147 403 1147 259 
Q 1147 116 1045 14 
Q 944 -88 800 -88 
Q 656 -88 554 14 
Q 453 116 453 259 
Q 453 406 554 506 
Q 656 606 800 606 
z
" id="TimesNewRomanPSMT-2e" transform="scale(0.015625)"/>
       </defs>
       <use xlink:href="#TimesNewRomanPSMT-30"/>
       <use x="50" xlink:href="#TimesNewRomanPSMT-2e"/>
       <use x="75" xlink:href="#TimesNewRomanPSMT-30"/>
       <use x="125" xlink:href="#TimesNewRomanPSMT-30"/>
       <use x="175" xlink:href="#TimesNewRomanPSMT-30"/>
      </g>
     </g>
    </g>
    <g id="xtick_2">
     <g id="line2d_3">
      <path clip-path="url(#p95f762b4aa)" d="M 154.645966 339.84 
L 154.645966 7.2 
" style="fill:none;stroke:#000000;stroke-dasharray:0.5,0.825;stroke-dashoffset:0;stroke-width:0.5;"/>
     </g>
     <g id="line2d_4">
      <g>
       <use style="stroke:#000000;stroke-width:0.8;" x="154.645966" xlink:href="#m720afa818e" y="339.84"/>
      </g>
     </g>
     <g id="text_2">
      <!-- 0.001 -->
      <g transform="translate(138.895966 356.56125)scale(0.14 -0.14)">
       <defs>
        <path d="M 750 3822 
L 1781 4325 
L 1884 4325 
L 1884 747 
Q 1884 391 1914 303 
Q 1944 216 2037 169 
Q 2131 122 2419 116 
L 2419 0 
L 825 0 
L 825 116 
Q 1125 122 1212 167 
Q 1300 213 1334 289 
Q 1369 366 1369 747 
L 1369 3034 
Q 1369 3497 1338 3628 
Q 1316 3728 1258 3775 
Q 1200 3822 1119 3822 
Q 1003 3822 797 3725 
L 750 3822 
z
" id="TimesNewRomanPSMT-31" transform="scale(0.015625)"/>
       </defs>
       <use xlink:href="#TimesNewRomanPSMT-30"/>
       <use x="50" xlink:href="#TimesNewRomanPSMT-2e"/>
       <use x="75" xlink:href="#TimesNewRomanPSMT-30"/>
       <use x="125" xlink:href="#TimesNewRomanPSMT-30"/>
       <use x="175" xlink:href="#TimesNewRomanPSMT-31"/>
      </g>
     </g>
    </g>
    <g id="xtick_3">
     <g id="line2d_5">
      <path clip-path="url(#p95f762b4aa)" d="M 215.518693 339.84 
L 215.518693 7.2 
" style="fill:none;stroke:#000000;stroke-dasharray:0.5,0.825;stroke-dashoffset:0;stroke-width:0.5;"/>
     </g>
     <g id="line2d_6">
      <g>
       <use style="stroke:#000000;stroke-width:0.8;" x="215.518693" xlink:href="#m720afa818e" y="339.84"/>
      </g>
     </g>
     <g id="text_3">
      <!-- 0.002 -->
      <g transform="translate(199.768693 356.56125)scale(0.14 -0.14)">
       <defs>
        <path d="M 2934 816 
L 2638 0 
L 138 0 
L 138 116 
Q 1241 1122 1691 1759 
Q 2141 2397 2141 2925 
Q 2141 3328 1894 3587 
Q 1647 3847 1303 3847 
Q 991 3847 742 3664 
Q 494 3481 375 3128 
L 259 3128 
Q 338 3706 661 4015 
Q 984 4325 1469 4325 
Q 1984 4325 2329 3994 
Q 2675 3663 2675 3213 
Q 2675 2891 2525 2569 
Q 2294 2063 1775 1497 
Q 997 647 803 472 
L 1909 472 
Q 2247 472 2383 497 
Q 2519 522 2628 598 
Q 2738 675 2819 816 
L 2934 816 
z
" id="TimesNewRomanPSMT-32" transform="scale(0.015625)"/>
       </defs>
       <use xlink:href="#TimesNewRomanPSMT-30"/>
       <use x="50" xlink:href="#TimesNewRomanPSMT-2e"/>
       <use x="75" xlink:href="#TimesNewRomanPSMT-30"/>
       <use x="125" xlink:href="#TimesNewRomanPSMT-30"/>
       <use x="175" xlink:href="#TimesNewRomanPSMT-32"/>
      </g>
     </g>
    </g>
    <g id="xtick_4">
     <g id="line2d_7">
      <path clip-path="url(#p95f762b4aa)" d="M 276.39142 339.84 
L 276.39142 7.2 
" style="fill:none;stroke:#000000;stroke-dasharray:0.5,0.825;stroke-dashoffset:0;stroke-width:0.5;"/>
     </g>
     <g id="line2d_8">
      <g>
       <use style="stroke:#000000;stroke-width:0.8;" x="276.39142" xlink:href="#m720afa818e" y="339.84"/>
      </g>
     </g>
     <g id="text_4">
      <!-- 0.003 -->
      <g transform="translate(260.64142 356.56125)scale(0.14 -0.14)">
       <defs>
        <path d="M 325 3431 
Q 506 3859 782 4092 
Q 1059 4325 1472 4325 
Q 1981 4325 2253 3994 
Q 2459 3747 2459 3466 
Q 2459 3003 1878 2509 
Q 2269 2356 2469 2072 
Q 2669 1788 2669 1403 
Q 2669 853 2319 450 
Q 1863 -75 997 -75 
Q 569 -75 414 31 
Q 259 138 259 259 
Q 259 350 332 419 
Q 406 488 509 488 
Q 588 488 669 463 
Q 722 447 909 348 
Q 1097 250 1169 231 
Q 1284 197 1416 197 
Q 1734 197 1970 444 
Q 2206 691 2206 1028 
Q 2206 1275 2097 1509 
Q 2016 1684 1919 1775 
Q 1784 1900 1550 2001 
Q 1316 2103 1072 2103 
L 972 2103 
L 972 2197 
Q 1219 2228 1467 2375 
Q 1716 2522 1828 2728 
Q 1941 2934 1941 3181 
Q 1941 3503 1739 3701 
Q 1538 3900 1238 3900 
Q 753 3900 428 3381 
L 325 3431 
z
" id="TimesNewRomanPSMT-33" transform="scale(0.015625)"/>
       </defs>
       <use xlink:href="#TimesNewRomanPSMT-30"/>
       <use x="50" xlink:href="#TimesNewRomanPSMT-2e"/>
       <use x="75" xlink:href="#TimesNewRomanPSMT-30"/>
       <use x="125" xlink:href="#TimesNewRomanPSMT-30"/>
       <use x="175" xlink:href="#TimesNewRomanPSMT-33"/>
      </g>
     </g>
    </g>
    <g id="xtick_5">
     <g id="line2d_9">
      <path clip-path="url(#p95f762b4aa)" d="M 337.264148 339.84 
L 337.264148 7.2 
" style="fill:none;stroke:#000000;stroke-dasharray:0.5,0.825;stroke-dashoffset:0;stroke-width:0.5;"/>
     </g>
     <g id="line2d_10">
      <g>
       <use style="stroke:#000000;stroke-width:0.8;" x="337.264148" xlink:href="#m720afa818e" y="339.84"/>
      </g>
     </g>
     <g id="text_5">
      <!-- 0.004 -->
      <g transform="translate(321.514148 356.56125)scale(0.14 -0.14)">
       <defs>
        <path d="M 2978 1563 
L 2978 1119 
L 2409 1119 
L 2409 0 
L 1894 0 
L 1894 1119 
L 100 1119 
L 100 1519 
L 2066 4325 
L 2409 4325 
L 2409 1563 
L 2978 1563 
z
M 1894 1563 
L 1894 3666 
L 406 1563 
L 1894 1563 
z
" id="TimesNewRomanPSMT-34" transform="scale(0.015625)"/>
       </defs>
       <use xlink:href="#TimesNewRomanPSMT-30"/>
       <use x="50" xlink:href="#TimesNewRomanPSMT-2e"/>
       <use x="75" xlink:href="#TimesNewRomanPSMT-30"/>
       <use x="125" xlink:href="#TimesNewRomanPSMT-30"/>
       <use x="175" xlink:href="#TimesNewRomanPSMT-34"/>
      </g>
     </g>
    </g>
    <g id="xtick_6">
     <g id="line2d_11">
      <path clip-path="url(#p95f762b4aa)" d="M 398.136875 339.84 
L 398.136875 7.2 
" style="fill:none;stroke:#000000;stroke-dasharray:0.5,0.825;stroke-dashoffset:0;stroke-width:0.5;"/>
     </g>
     <g id="line2d_12">
      <g>
       <use style="stroke:#000000;stroke-width:0.8;" x="398.136875" xlink:href="#m720afa818e" y="339.84"/>
      </g>
     </g>
     <g id="text_6">
      <!-- 0.005 -->
      <g transform="translate(382.386875 356.56125)scale(0.14 -0.14)">
       <defs>
        <path d="M 2778 4238 
L 2534 3706 
L 1259 3706 
L 981 3138 
Q 1809 3016 2294 2522 
Q 2709 2097 2709 1522 
Q 2709 1188 2573 903 
Q 2438 619 2231 419 
Q 2025 219 1772 97 
Q 1413 -75 1034 -75 
Q 653 -75 479 54 
Q 306 184 306 341 
Q 306 428 378 495 
Q 450 563 559 563 
Q 641 563 702 538 
Q 763 513 909 409 
Q 1144 247 1384 247 
Q 1750 247 2026 523 
Q 2303 800 2303 1197 
Q 2303 1581 2056 1914 
Q 1809 2247 1375 2428 
Q 1034 2569 447 2591 
L 1259 4238 
L 2778 4238 
z
" id="TimesNewRomanPSMT-35" transform="scale(0.015625)"/>
       </defs>
       <use xlink:href="#TimesNewRomanPSMT-30"/>
       <use x="50" xlink:href="#TimesNewRomanPSMT-2e"/>
       <use x="75" xlink:href="#TimesNewRomanPSMT-30"/>
       <use x="125" xlink:href="#TimesNewRomanPSMT-30"/>
       <use x="175" xlink:href="#TimesNewRomanPSMT-35"/>
      </g>
     </g>
    </g>
    <g id="text_7">
     <!-- Time (sec) -->
     <g transform="translate(200.858906 373.277188)scale(0.14 -0.14)">
      <defs>
       <path d="M 3703 4238 
L 3750 3244 
L 3631 3244 
Q 3597 3506 3538 3619 
Q 3441 3800 3280 3886 
Q 3119 3972 2856 3972 
L 2259 3972 
L 2259 734 
Q 2259 344 2344 247 
Q 2463 116 2709 116 
L 2856 116 
L 2856 0 
L 1059 0 
L 1059 116 
L 1209 116 
Q 1478 116 1591 278 
Q 1659 378 1659 734 
L 1659 3972 
L 1150 3972 
Q 853 3972 728 3928 
Q 566 3869 450 3700 
Q 334 3531 313 3244 
L 194 3244 
L 244 4238 
L 3703 4238 
z
" id="TimesNewRomanPSMT-54" transform="scale(0.015625)"/>
       <path d="M 928 4444 
Q 1059 4444 1151 4351 
Q 1244 4259 1244 4128 
Q 1244 3997 1151 3903 
Q 1059 3809 928 3809 
Q 797 3809 703 3903 
Q 609 3997 609 4128 
Q 609 4259 701 4351 
Q 794 4444 928 4444 
z
M 1188 2947 
L 1188 647 
Q 1188 378 1227 289 
Q 1266 200 1342 156 
Q 1419 113 1622 113 
L 1622 0 
L 231 0 
L 231 113 
Q 441 113 512 153 
Q 584 194 626 287 
Q 669 381 669 647 
L 669 1750 
Q 669 2216 641 2353 
Q 619 2453 572 2492 
Q 525 2531 444 2531 
Q 356 2531 231 2484 
L 188 2597 
L 1050 2947 
L 1188 2947 
z
" id="TimesNewRomanPSMT-69" transform="scale(0.015625)"/>
       <path d="M 1050 2338 
Q 1363 2650 1419 2697 
Q 1559 2816 1721 2881 
Q 1884 2947 2044 2947 
Q 2313 2947 2506 2790 
Q 2700 2634 2766 2338 
Q 3088 2713 3309 2830 
Q 3531 2947 3766 2947 
Q 3994 2947 4170 2830 
Q 4347 2713 4450 2447 
Q 4519 2266 4519 1878 
L 4519 647 
Q 4519 378 4559 278 
Q 4591 209 4675 161 
Q 4759 113 4950 113 
L 4950 0 
L 3538 0 
L 3538 113 
L 3597 113 
Q 3781 113 3884 184 
Q 3956 234 3988 344 
Q 4000 397 4000 647 
L 4000 1878 
Q 4000 2228 3916 2372 
Q 3794 2572 3525 2572 
Q 3359 2572 3192 2489 
Q 3025 2406 2788 2181 
L 2781 2147 
L 2788 2013 
L 2788 647 
Q 2788 353 2820 281 
Q 2853 209 2943 161 
Q 3034 113 3253 113 
L 3253 0 
L 1806 0 
L 1806 113 
Q 2044 113 2133 169 
Q 2222 225 2256 338 
Q 2272 391 2272 647 
L 2272 1878 
Q 2272 2228 2169 2381 
Q 2031 2581 1784 2581 
Q 1616 2581 1450 2491 
Q 1191 2353 1050 2181 
L 1050 647 
Q 1050 366 1089 281 
Q 1128 197 1204 155 
Q 1281 113 1516 113 
L 1516 0 
L 100 0 
L 100 113 
Q 297 113 375 155 
Q 453 197 493 289 
Q 534 381 534 647 
L 534 1741 
Q 534 2213 506 2350 
Q 484 2453 437 2492 
Q 391 2531 309 2531 
Q 222 2531 100 2484 
L 53 2597 
L 916 2947 
L 1050 2947 
L 1050 2338 
z
" id="TimesNewRomanPSMT-6d" transform="scale(0.015625)"/>
       <path d="M 681 1784 
Q 678 1147 991 784 
Q 1303 422 1725 422 
Q 2006 422 2214 576 
Q 2422 731 2563 1106 
L 2659 1044 
Q 2594 616 2278 264 
Q 1963 -88 1488 -88 
Q 972 -88 605 314 
Q 238 716 238 1394 
Q 238 2128 614 2539 
Q 991 2950 1559 2950 
Q 2041 2950 2350 2633 
Q 2659 2316 2659 1784 
L 681 1784 
z
M 681 1966 
L 2006 1966 
Q 1991 2241 1941 2353 
Q 1863 2528 1708 2628 
Q 1553 2728 1384 2728 
Q 1125 2728 920 2526 
Q 716 2325 681 1966 
z
" id="TimesNewRomanPSMT-65" transform="scale(0.015625)"/>
       <path id="TimesNewRomanPSMT-20" transform="scale(0.015625)"/>
       <path d="M 1988 -1253 
L 1988 -1369 
Q 1516 -1131 1200 -813 
Q 750 -359 506 256 
Q 263 872 263 1534 
Q 263 2503 741 3301 
Q 1219 4100 1988 4444 
L 1988 4313 
Q 1603 4100 1356 3731 
Q 1109 3363 987 2797 
Q 866 2231 866 1616 
Q 866 947 969 400 
Q 1050 -31 1165 -292 
Q 1281 -553 1476 -793 
Q 1672 -1034 1988 -1253 
z
" id="TimesNewRomanPSMT-28" transform="scale(0.015625)"/>
       <path d="M 2050 2947 
L 2050 1972 
L 1947 1972 
Q 1828 2431 1642 2597 
Q 1456 2763 1169 2763 
Q 950 2763 815 2647 
Q 681 2531 681 2391 
Q 681 2216 781 2091 
Q 878 1963 1175 1819 
L 1631 1597 
Q 2266 1288 2266 781 
Q 2266 391 1970 151 
Q 1675 -88 1309 -88 
Q 1047 -88 709 6 
Q 606 38 541 38 
Q 469 38 428 -44 
L 325 -44 
L 325 978 
L 428 978 
Q 516 541 762 319 
Q 1009 97 1316 97 
Q 1531 97 1667 223 
Q 1803 350 1803 528 
Q 1803 744 1651 891 
Q 1500 1038 1047 1263 
Q 594 1488 453 1669 
Q 313 1847 313 2119 
Q 313 2472 555 2709 
Q 797 2947 1181 2947 
Q 1350 2947 1591 2875 
Q 1750 2828 1803 2828 
Q 1853 2828 1881 2850 
Q 1909 2872 1947 2947 
L 2050 2947 
z
" id="TimesNewRomanPSMT-73" transform="scale(0.015625)"/>
       <path d="M 2631 1088 
Q 2516 522 2178 217 
Q 1841 -88 1431 -88 
Q 944 -88 581 321 
Q 219 731 219 1428 
Q 219 2103 620 2525 
Q 1022 2947 1584 2947 
Q 2006 2947 2278 2723 
Q 2550 2500 2550 2259 
Q 2550 2141 2473 2067 
Q 2397 1994 2259 1994 
Q 2075 1994 1981 2113 
Q 1928 2178 1911 2362 
Q 1894 2547 1784 2644 
Q 1675 2738 1481 2738 
Q 1169 2738 978 2506 
Q 725 2200 725 1697 
Q 725 1184 976 792 
Q 1228 400 1656 400 
Q 1963 400 2206 609 
Q 2378 753 2541 1131 
L 2631 1088 
z
" id="TimesNewRomanPSMT-63" transform="scale(0.015625)"/>
       <path d="M 144 4313 
L 144 4444 
Q 619 4209 934 3891 
Q 1381 3434 1625 2820 
Q 1869 2206 1869 1541 
Q 1869 572 1392 -226 
Q 916 -1025 144 -1369 
L 144 -1253 
Q 528 -1038 776 -670 
Q 1025 -303 1145 264 
Q 1266 831 1266 1447 
Q 1266 2113 1163 2663 
Q 1084 3094 967 3353 
Q 850 3613 656 3853 
Q 463 4094 144 4313 
z
" id="TimesNewRomanPSMT-29" transform="scale(0.015625)"/>
      </defs>
      <use xlink:href="#TimesNewRomanPSMT-54"/>
      <use x="57.583984" xlink:href="#TimesNewRomanPSMT-69"/>
      <use x="85.367188" xlink:href="#TimesNewRomanPSMT-6d"/>
      <use x="163.150391" xlink:href="#TimesNewRomanPSMT-65"/>
      <use x="207.535156" xlink:href="#TimesNewRomanPSMT-20"/>
      <use x="232.535156" xlink:href="#TimesNewRomanPSMT-28"/>
      <use x="265.835938" xlink:href="#TimesNewRomanPSMT-73"/>
      <use x="304.751953" xlink:href="#TimesNewRomanPSMT-65"/>
      <use x="349.136719" xlink:href="#TimesNewRomanPSMT-63"/>
      <use x="393.521484" xlink:href="#TimesNewRomanPSMT-29"/>
     </g>
    </g>
   </g>
   <g id="matplotlib.axis_2">
    <g id="ytick_1">
     <g id="line2d_13">
      <path clip-path="url(#p95f762b4aa)" d="M 63.336875 282.505073 
L 398.136875 282.505073 
" style="fill:none;stroke:#000000;stroke-dasharray:0.5,0.825;stroke-dashoffset:0;stroke-width:0.5;"/>
     </g>
     <g id="line2d_14">
      <defs>
       <path d="M 0 0 
L -3.5 0 
" id="mc8ad647403" style="stroke:#000000;stroke-width:0.8;"/>
      </defs>
      <g>
       <use style="stroke:#000000;stroke-width:0.8;" x="63.336875" xlink:href="#mc8ad647403" y="282.505073"/>
      </g>
     </g>
     <g id="text_8">
      <!-- −0.04 -->
      <g transform="translate(23.942188 287.365698)scale(0.14 -0.14)">
       <defs>
        <path d="M 3484 2000 
L 116 2000 
L 116 2256 
L 3484 2256 
L 3484 2000 
z
" id="TimesNewRomanPSMT-2212" transform="scale(0.015625)"/>
       </defs>
       <use xlink:href="#TimesNewRomanPSMT-2212"/>
       <use x="56.396484" xlink:href="#TimesNewRomanPSMT-30"/>
       <use x="106.396484" xlink:href="#TimesNewRomanPSMT-2e"/>
       <use x="131.396484" xlink:href="#TimesNewRomanPSMT-30"/>
       <use x="181.396484" xlink:href="#TimesNewRomanPSMT-34"/>
      </g>
     </g>
    </g>
    <g id="ytick_2">
     <g id="line2d_15">
      <path clip-path="url(#p95f762b4aa)" d="M 63.336875 217.932807 
L 398.136875 217.932807 
" style="fill:none;stroke:#000000;stroke-dasharray:0.5,0.825;stroke-dashoffset:0;stroke-width:0.5;"/>
     </g>
     <g id="line2d_16">
      <g>
       <use style="stroke:#000000;stroke-width:0.8;" x="63.336875" xlink:href="#mc8ad647403" y="217.932807"/>
      </g>
     </g>
     <g id="text_9">
      <!-- −0.02 -->
      <g transform="translate(23.942188 222.793432)scale(0.14 -0.14)">
       <use xlink:href="#TimesNewRomanPSMT-2212"/>
       <use x="56.396484" xlink:href="#TimesNewRomanPSMT-30"/>
       <use x="106.396484" xlink:href="#TimesNewRomanPSMT-2e"/>
       <use x="131.396484" xlink:href="#TimesNewRomanPSMT-30"/>
       <use x="181.396484" xlink:href="#TimesNewRomanPSMT-32"/>
      </g>
     </g>
    </g>
    <g id="ytick_3">
     <g id="line2d_17">
      <path clip-path="url(#p95f762b4aa)" d="M 63.336875 153.36054 
L 398.136875 153.36054 
" style="fill:none;stroke:#000000;stroke-dasharray:0.5,0.825;stroke-dashoffset:0;stroke-width:0.5;"/>
     </g>
     <g id="line2d_18">
      <g>
       <use style="stroke:#000000;stroke-width:0.8;" x="63.336875" xlink:href="#mc8ad647403" y="153.36054"/>
      </g>
     </g>
     <g id="text_10">
      <!-- 0.00 -->
      <g transform="translate(31.836875 158.221165)scale(0.14 -0.14)">
       <use xlink:href="#TimesNewRomanPSMT-30"/>
       <use x="50" xlink:href="#TimesNewRomanPSMT-2e"/>
       <use x="75" xlink:href="#TimesNewRomanPSMT-30"/>
       <use x="125" xlink:href="#TimesNewRomanPSMT-30"/>
      </g>
     </g>
    </g>
    <g id="ytick_4">
     <g id="line2d_19">
      <path clip-path="url(#p95f762b4aa)" d="M 63.336875 88.788273 
L 398.136875 88.788273 
" style="fill:none;stroke:#000000;stroke-dasharray:0.5,0.825;stroke-dashoffset:0;stroke-width:0.5;"/>
     </g>
     <g id="line2d_20">
      <g>
       <use style="stroke:#000000;stroke-width:0.8;" x="63.336875" xlink:href="#mc8ad647403" y="88.788273"/>
      </g>
     </g>
     <g id="text_11">
      <!-- 0.02 -->
      <g transform="translate(31.836875 93.648898)scale(0.14 -0.14)">
       <use xlink:href="#TimesNewRomanPSMT-30"/>
       <use x="50" xlink:href="#TimesNewRomanPSMT-2e"/>
       <use x="75" xlink:href="#TimesNewRomanPSMT-30"/>
       <use x="125" xlink:href="#TimesNewRomanPSMT-32"/>
      </g>
     </g>
    </g>
    <g id="ytick_5">
     <g id="line2d_21">
      <path clip-path="url(#p95f762b4aa)" d="M 63.336875 24.216006 
L 398.136875 24.216006 
" style="fill:none;stroke:#000000;stroke-dasharray:0.5,0.825;stroke-dashoffset:0;stroke-width:0.5;"/>
     </g>
     <g id="line2d_22">
      <g>
       <use style="stroke:#000000;stroke-width:0.8;" x="63.336875" xlink:href="#mc8ad647403" y="24.216006"/>
      </g>
     </g>
     <g id="text_12">
      <!-- 0.04 -->
      <g transform="translate(31.836875 29.076631)scale(0.14 -0.14)">
       <use xlink:href="#TimesNewRomanPSMT-30"/>
       <use x="50" xlink:href="#TimesNewRomanPSMT-2e"/>
       <use x="75" xlink:href="#TimesNewRomanPSMT-30"/>
       <use x="125" xlink:href="#TimesNewRomanPSMT-34"/>
      </g>
     </g>
    </g>
    <g id="text_13">
     <!-- Volatage (V) -->
     <g transform="translate(16.92125 209.352344)rotate(-90)scale(0.14 -0.14)">
      <defs>
       <path d="M 4544 4238 
L 4544 4122 
Q 4319 4081 4203 3978 
Q 4038 3825 3909 3509 
L 2431 -97 
L 2316 -97 
L 728 3556 
Q 606 3838 556 3900 
Q 478 3997 364 4051 
Q 250 4106 56 4122 
L 56 4238 
L 1788 4238 
L 1788 4122 
Q 1494 4094 1406 4022 
Q 1319 3950 1319 3838 
Q 1319 3681 1463 3350 
L 2541 866 
L 3541 3319 
Q 3688 3681 3688 3822 
Q 3688 3913 3597 3995 
Q 3506 4078 3291 4113 
Q 3275 4116 3238 4122 
L 3238 4238 
L 4544 4238 
z
" id="TimesNewRomanPSMT-56" transform="scale(0.015625)"/>
       <path d="M 1600 2947 
Q 2250 2947 2644 2453 
Q 2978 2031 2978 1484 
Q 2978 1100 2793 706 
Q 2609 313 2286 112 
Q 1963 -88 1566 -88 
Q 919 -88 538 428 
Q 216 863 216 1403 
Q 216 1797 411 2186 
Q 606 2575 925 2761 
Q 1244 2947 1600 2947 
z
M 1503 2744 
Q 1338 2744 1170 2645 
Q 1003 2547 900 2300 
Q 797 2053 797 1666 
Q 797 1041 1045 587 
Q 1294 134 1700 134 
Q 2003 134 2200 384 
Q 2397 634 2397 1244 
Q 2397 2006 2069 2444 
Q 1847 2744 1503 2744 
z
" id="TimesNewRomanPSMT-6f" transform="scale(0.015625)"/>
       <path d="M 1184 4444 
L 1184 647 
Q 1184 378 1223 290 
Q 1263 203 1344 158 
Q 1425 113 1647 113 
L 1647 0 
L 244 0 
L 244 113 
Q 441 113 512 153 
Q 584 194 625 287 
Q 666 381 666 647 
L 666 3247 
Q 666 3731 644 3842 
Q 622 3953 573 3993 
Q 525 4034 450 4034 
Q 369 4034 244 3984 
L 191 4094 
L 1044 4444 
L 1184 4444 
z
" id="TimesNewRomanPSMT-6c" transform="scale(0.015625)"/>
       <path d="M 1822 413 
Q 1381 72 1269 19 
Q 1100 -59 909 -59 
Q 613 -59 420 144 
Q 228 347 228 678 
Q 228 888 322 1041 
Q 450 1253 767 1440 
Q 1084 1628 1822 1897 
L 1822 2009 
Q 1822 2438 1686 2597 
Q 1550 2756 1291 2756 
Q 1094 2756 978 2650 
Q 859 2544 859 2406 
L 866 2225 
Q 866 2081 792 2003 
Q 719 1925 600 1925 
Q 484 1925 411 2006 
Q 338 2088 338 2228 
Q 338 2497 613 2722 
Q 888 2947 1384 2947 
Q 1766 2947 2009 2819 
Q 2194 2722 2281 2516 
Q 2338 2381 2338 1966 
L 2338 994 
Q 2338 584 2353 492 
Q 2369 400 2405 369 
Q 2441 338 2488 338 
Q 2538 338 2575 359 
Q 2641 400 2828 588 
L 2828 413 
Q 2478 -56 2159 -56 
Q 2006 -56 1915 50 
Q 1825 156 1822 413 
z
M 1822 616 
L 1822 1706 
Q 1350 1519 1213 1441 
Q 966 1303 859 1153 
Q 753 1003 753 825 
Q 753 600 887 451 
Q 1022 303 1197 303 
Q 1434 303 1822 616 
z
" id="TimesNewRomanPSMT-61" transform="scale(0.015625)"/>
       <path d="M 1031 3803 
L 1031 2863 
L 1700 2863 
L 1700 2644 
L 1031 2644 
L 1031 788 
Q 1031 509 1111 412 
Q 1191 316 1316 316 
Q 1419 316 1516 380 
Q 1613 444 1666 569 
L 1788 569 
Q 1678 263 1478 108 
Q 1278 -47 1066 -47 
Q 922 -47 784 33 
Q 647 113 581 261 
Q 516 409 516 719 
L 516 2644 
L 63 2644 
L 63 2747 
Q 234 2816 414 2980 
Q 594 3144 734 3369 
Q 806 3488 934 3803 
L 1031 3803 
z
" id="TimesNewRomanPSMT-74" transform="scale(0.015625)"/>
       <path d="M 966 1044 
Q 703 1172 562 1401 
Q 422 1631 422 1909 
Q 422 2334 742 2640 
Q 1063 2947 1563 2947 
Q 1972 2947 2272 2747 
L 2878 2747 
Q 3013 2747 3034 2739 
Q 3056 2731 3066 2713 
Q 3084 2684 3084 2613 
Q 3084 2531 3069 2500 
Q 3059 2484 3036 2475 
Q 3013 2466 2878 2466 
L 2506 2466 
Q 2681 2241 2681 1891 
Q 2681 1491 2375 1206 
Q 2069 922 1553 922 
Q 1341 922 1119 984 
Q 981 866 932 777 
Q 884 688 884 625 
Q 884 572 936 522 
Q 988 472 1138 450 
Q 1225 438 1575 428 
Q 2219 413 2409 384 
Q 2700 344 2873 169 
Q 3047 -6 3047 -263 
Q 3047 -616 2716 -925 
Q 2228 -1381 1444 -1381 
Q 841 -1381 425 -1109 
Q 191 -953 191 -784 
Q 191 -709 225 -634 
Q 278 -519 444 -313 
Q 466 -284 763 25 
Q 600 122 533 198 
Q 466 275 466 372 
Q 466 481 555 628 
Q 644 775 966 1044 
z
M 1509 2797 
Q 1278 2797 1122 2612 
Q 966 2428 966 2047 
Q 966 1553 1178 1281 
Q 1341 1075 1591 1075 
Q 1828 1075 1981 1253 
Q 2134 1431 2134 1813 
Q 2134 2309 1919 2591 
Q 1759 2797 1509 2797 
z
M 934 0 
Q 788 -159 713 -296 
Q 638 -434 638 -550 
Q 638 -700 819 -813 
Q 1131 -1006 1722 -1006 
Q 2284 -1006 2551 -807 
Q 2819 -609 2819 -384 
Q 2819 -222 2659 -153 
Q 2497 -84 2016 -72 
Q 1313 -53 934 0 
z
" id="TimesNewRomanPSMT-67" transform="scale(0.015625)"/>
      </defs>
      <use xlink:href="#TimesNewRomanPSMT-56"/>
      <use x="59.341797" xlink:href="#TimesNewRomanPSMT-6f"/>
      <use x="109.341797" xlink:href="#TimesNewRomanPSMT-6c"/>
      <use x="137.125" xlink:href="#TimesNewRomanPSMT-61"/>
      <use x="181.509766" xlink:href="#TimesNewRomanPSMT-74"/>
      <use x="209.292969" xlink:href="#TimesNewRomanPSMT-61"/>
      <use x="253.677734" xlink:href="#TimesNewRomanPSMT-67"/>
      <use x="303.677734" xlink:href="#TimesNewRomanPSMT-65"/>
      <use x="348.0625" xlink:href="#TimesNewRomanPSMT-20"/>
      <use x="373.0625" xlink:href="#TimesNewRomanPSMT-28"/>
      <use x="406.363281" xlink:href="#TimesNewRomanPSMT-56"/>
      <use x="478.580078" xlink:href="#TimesNewRomanPSMT-29"/>
     </g>
    </g>
   </g>
   <g id="LineCollection_1">
    <path clip-path="url(#p95f762b4aa)" d="M 78.555057 153.36054 
L 382.918693 153.36054 
" style="fill:none;stroke:#1f77b4;stroke-width:1.5;"/>
   </g>
   <g id="line2d_23">
    <path clip-path="url(#p95f762b4aa)" d="M 78.555057 153.361347 
L 78.585493 153.320989 
L 78.646366 153.401705 
L 78.737675 153.361347 
L 78.768111 153.280632 
L 78.828984 153.361347 
L 87.412039 153.280632 
L 87.503348 153.240274 
L 87.533784 153.280632 
L 104.547711 153.280632 
L 104.578148 153.401705 
L 104.669457 153.361347 
L 108.565311 153.401705 
L 108.595748 153.48242 
L 108.687057 153.442062 
L 110.726293 153.522778 
L 110.848039 153.522778 
L 110.969784 153.522778 
L 111.700257 153.603493 
L 111.852439 153.643851 
L 112.856839 153.724566 
L 113.00902 153.764924 
L 113.556875 153.845639 
L 113.67862 153.926354 
L 113.709057 153.885997 
L 114.043857 153.966712 
L 114.226475 154.047427 
L 114.34822 154.047427 
L 114.622148 154.128143 
L 114.804766 154.208858 
L 115.078693 154.289573 
L 115.230875 154.329931 
L 115.504802 154.410646 
L 115.656984 154.491362 
L 115.748293 154.451004 
L 115.900475 154.572077 
L 116.02222 154.572077 
L 116.143966 154.612435 
L 116.235275 154.612435 
L 116.387457 154.69315 
L 116.539639 154.652792 
L 116.722257 154.733508 
L 117.11793 154.814223 
L 117.300548 154.894938 
L 117.78753 154.975654 
L 117.909275 154.975654 
L 118.335384 155.056369 
L 118.487566 155.137084 
L 118.578875 155.096727 
L 118.70062 155.2178 
L 118.731057 155.137084 
L 118.79193 155.258157 
L 119.309348 155.338873 
L 119.552839 155.500303 
L 119.765893 155.581019 
L 120.070257 155.823165 
L 120.192002 155.823165 
L 120.46593 156.024953 
L 120.618111 156.105668 
L 121.074657 156.58996 
L 121.105093 156.549603 
L 121.13553 156.670676 
L 121.196402 156.751391 
L 122.079057 158.042836 
L 122.292111 158.486771 
L 122.322548 158.486771 
L 122.596475 159.132494 
L 122.779093 159.53607 
L 123.113893 160.423939 
L 124.087857 163.289333 
L 126.857566 174.750911 
L 128.318511 181.934574 
L 128.440257 182.499582 
L 129.292475 186.454634 
L 130.875166 192.306495 
L 130.996911 192.629357 
L 132.001311 195.010459 
L 132.42742 195.414036 
L 132.640475 195.454393 
L 132.731784 195.535109 
L 132.76222 195.494751 
L 133.09702 195.414036 
L 133.76662 194.364736 
L 135.349311 189.885035 
L 136.079784 186.535348 
L 136.658075 182.903159 
L 137.44942 176.970583 
L 139.853893 153.684208 
L 143.019275 110.259359 
L 146.48902 61.265152 
L 148.315202 40.76346 
L 148.954366 35.153738 
L 150.050075 27.324351 
L 151.26753 22.844653 
L 151.297966 22.885004 
L 151.328402 22.844653 
L 151.51102 22.562149 
L 151.693639 22.481434 
L 151.815384 22.441083 
L 151.906693 22.32 
L 151.93713 22.360364 
L 152.363239 22.441083 
L 153.002402 23.450021 
L 153.215457 24.095744 
L 153.306766 24.297529 
L 153.824184 26.476843 
L 154.098111 27.970073 
L 155.132948 35.557324 
L 156.137348 45.848526 
L 157.29393 60.901933 
L 158.420075 78.861091 
L 161.768075 147.549843 
L 164.872584 219.023271 
L 166.516148 253.609788 
L 167.91622 279.317631 
L 169.25542 298.971805 
L 170.412002 311.482689 
L 171.659893 320.563154 
L 171.781639 321.168525 
L 172.542548 323.75141 
L 172.968657 324.639281 
L 173.36433 324.558566 
L 173.638257 324.114629 
L 173.912184 323.589989 
L 174.673093 321.329956 
L 176.194911 312.693415 
L 177.077566 305.469396 
L 177.351493 302.967214 
L 178.234148 293.806031 
L 179.96902 271.851463 
L 180.851675 259.542365 
L 181.703893 246.8297 
L 187.912911 149.769515 
L 189.00862 135.361828 
L 192.965348 89.394449 
L 194.213239 78.820733 
L 194.943711 73.251379 
L 196.70902 60.094779 
L 196.922075 58.803334 
L 197.956911 52.668975 
L 198.322148 51.25645 
L 198.535202 50.408942 
L 198.900439 48.713917 
L 199.47873 46.857468 
L 199.935275 45.364228 
L 200.300511 43.992067 
L 200.604875 43.225278 
L 200.939675 42.579555 
L 201.000548 42.49884 
L 201.244039 41.974187 
L 201.365784 41.691683 
L 201.578839 41.247749 
L 201.913639 40.924894 
L 202.06582 40.965245 
L 202.218002 40.924894 
L 202.370184 41.045961 
L 202.583239 40.924894 
L 202.82673 40.844175 
L 202.948475 40.76346 
L 202.978911 40.803811 
L 203.222402 40.88453 
L 203.557202 41.16703 
L 203.709384 41.247749 
L 203.892002 41.328464 
L 204.257239 41.409183 
L 204.439857 41.651332 
L 204.531166 41.732034 
L 204.805093 42.216336 
L 205.048584 42.78134 
L 205.687748 43.790282 
L 205.992111 44.557071 
L 206.84433 46.5346 
L 206.905202 46.615319 
L 208.335711 50.651082 
L 208.822693 52.668975 
L 210.131457 58.278684 
L 210.52713 60.175495 
L 210.740184 60.982651 
L 211.592402 64.978054 
L 211.714148 65.583425 
L 212.292439 68.327743 
L 212.901166 72.081003 
L 213.570766 76.560707 
L 213.905566 78.820733 
L 214.87953 86.851912 
L 215.427384 92.098409 
L 219.779784 139.437952 
L 222.214693 169.786917 
L 226.871457 230.121632 
L 227.449748 237.345652 
L 228.088911 245.09432 
L 228.728075 251.995485 
L 229.488984 259.824865 
L 231.52822 275.160785 
L 231.802148 276.69438 
L 232.136948 278.227974 
L 233.384839 282.748023 
L 233.62833 283.111242 
L 234.358802 283.999114 
L 234.389239 283.918399 
L 234.450111 283.95875 
L 234.54142 283.95875 
L 235.058839 283.111242 
L 235.424075 282.425169 
L 235.63713 281.981234 
L 236.002366 280.770494 
L 237.493748 272.295384 
L 239.015566 259.300225 
L 239.532984 254.416945 
L 241.267857 234.843476 
L 242.485311 219.023271 
L 246.289857 167.163669 
L 247.93342 142.706923 
L 250.94662 104.205709 
L 251.829275 96.013103 
L 253.198911 85.923683 
L 253.411966 84.632241 
L 253.95982 81.686128 
L 255.542511 75.834269 
L 256.577348 73.332094 
L 256.668657 73.251379 
L 256.851275 73.130302 
L 256.942584 73.130302 
L 257.186075 72.968875 
L 257.855675 73.049594 
L 258.220911 73.45317 
L 258.251348 73.372452 
L 258.31222 73.493521 
L 258.40353 73.533879 
L 258.525275 73.614598 
L 258.768766 73.695313 
L 258.98182 73.816383 
L 259.012257 73.776032 
L 259.07313 73.85674 
L 259.560111 74.381393 
L 259.590548 74.341036 
L 259.620984 74.381393 
L 259.773166 74.583178 
L 259.864475 74.583178 
L 261.08193 76.358916 
L 262.299384 79.870033 
L 263.790766 86.246551 
L 264.09513 87.860854 
L 264.216875 88.3855 
L 264.977784 92.744132 
L 265.221275 94.15665 
L 265.890875 98.232774 
L 266.712657 103.882848 
L 267.077893 106.385023 
L 267.77793 111.712235 
L 268.44753 116.918374 
L 270.517202 132.496433 
L 271.247675 138.065792 
L 273.04342 151.464537 
L 274.169566 158.204267 
L 275.326148 163.773625 
L 277.06102 170.230851 
L 277.548002 171.764443 
L 277.791493 172.571596 
L 277.882802 172.813742 
L 278.339348 174.185903 
L 279.282875 176.405575 
L 279.73942 177.17237 
L 280.043784 177.737378 
L 280.104657 177.818093 
L 280.987311 178.827035 
L 281.048184 178.90775 
L 281.74822 179.714904 
L 281.83953 179.714904 
L 282.08302 179.876334 
L 282.296075 179.957049 
L 282.539566 180.11848 
L 282.783057 180.199195 
L 282.935239 180.239553 
L 283.148293 180.11848 
L 283.270039 180.11848 
L 283.452657 180.078123 
L 283.604839 179.957049 
L 283.726584 179.916691 
L 283.84833 179.835976 
L 284.000511 179.795619 
L 284.18313 179.59383 
L 284.213566 179.634189 
L 284.274439 179.553472 
L 284.791857 179.028822 
L 284.883166 178.948107 
L 285.339711 178.463816 
L 285.370148 178.504173 
L 285.400584 178.383101 
L 285.644075 178.019882 
L 286.252802 177.051298 
L 286.618039 176.365216 
L 286.922402 175.80021 
L 287.257202 175.154487 
L 287.318075 175.073772 
L 287.713748 174.306977 
L 289.235566 172.450523 
L 289.692111 172.369807 
L 289.844293 172.289092 
L 289.966039 172.289092 
L 290.11822 172.248735 
L 290.270402 172.289092 
L 290.45302 172.369807 
L 290.605202 172.490881 
L 291.761784 174.145545 
L 292.12702 175.154487 
L 292.309639 175.558063 
L 292.55313 176.123071 
L 292.705311 176.48629 
L 293.192293 177.979523 
L 296.783784 187.261786 
L 296.875093 187.342503 
L 297.453384 188.270729 
L 297.696875 188.633948 
L 297.940366 188.835736 
L 297.970802 188.795378 
L 298.001239 188.835736 
L 298.031675 188.916451 
L 298.122984 188.876094 
L 298.427348 189.11824 
L 298.518657 189.158597 
L 298.701275 189.400743 
L 298.853457 189.481459 
L 299.036075 189.602532 
L 299.218693 189.481459 
L 299.310002 189.481459 
L 299.49262 189.400743 
L 300.070911 189.441101 
L 300.16222 189.521816 
L 300.314402 189.400743 
L 300.405711 189.320028 
L 300.984002 188.714663 
L 301.197057 188.633948 
L 303.571093 185.324618 
L 303.814584 184.961399 
L 304.149384 184.356036 
L 306.127748 178.867392 
L 306.371239 177.939167 
L 307.558257 172.773385 
L 311.119311 153.361347 
L 311.910657 147.913062 
L 312.093275 146.74269 
L 314.589057 130.882126 
L 314.832548 129.509965 
L 315.867384 123.375601 
L 316.65873 119.743411 
L 317.876184 115.304067 
L 317.937057 115.102279 
L 318.271857 113.891549 
L 318.758839 112.398315 
L 319.519748 110.097928 
L 319.763239 109.331133 
L 319.91542 108.967914 
L 320.524148 107.636111 
L 320.67633 107.313249 
L 320.91982 106.748242 
L 320.950257 106.748242 
L 321.163311 106.344665 
L 324.26782 102.389614 
L 324.298257 102.429972 
L 324.328693 102.349256 
L 324.663493 102.026395 
L 324.69393 102.066753 
L 324.754802 101.986037 
L 325.089602 101.703534 
L 325.211348 101.743891 
L 325.333093 101.743891 
L 325.515711 101.784249 
L 325.637457 101.945676 
L 325.667893 101.864968 
L 325.728766 101.986037 
L 325.820075 102.026395 
L 325.972257 102.187829 
L 326.002693 102.147468 
L 326.063566 102.228187 
L 326.246184 102.470329 
L 326.337493 102.51069 
L 326.489675 102.833548 
L 326.763602 103.317837 
L 327.03753 103.963566 
L 327.189711 104.286428 
L 327.463639 104.932147 
L 327.61582 105.295366 
L 328.468039 107.797541 
L 328.772402 108.846841 
L 329.807239 113.366899 
L 330.415966 116.676228 
L 330.689893 118.209819 
L 333.368293 132.980726 
L 333.794402 135.482901 
L 334.585748 140.043317 
L 334.829239 141.455835 
L 335.498839 145.168741 
L 337.568511 155.581019 
L 338.116366 158.204267 
L 339.151202 163.16826 
L 339.303384 163.85434 
L 341.494802 172.16802 
L 341.586111 172.450523 
L 342.620948 175.396633 
L 342.803566 175.921282 
L 343.381857 177.17237 
L 343.534039 177.535589 
L 343.990584 178.463816 
L 344.599311 179.351685 
L 344.751493 179.59383 
L 344.842802 179.674546 
L 345.329784 180.158838 
L 345.36022 180.078123 
L 345.421093 180.199195 
L 345.725457 180.481699 
L 345.755893 180.441341 
L 345.816766 180.522057 
L 345.908075 180.602773 
L 346.303748 181.00635 
L 346.36462 180.965992 
L 346.395057 181.00635 
L 346.577675 181.208136 
L 346.608111 181.16778 
L 346.638548 181.208136 
L 346.821166 181.409924 
L 347.338584 181.934574 
L 347.399457 182.015291 
L 347.673384 182.257438 
L 347.70382 182.176721 
L 347.764693 182.257438 
L 347.977748 182.37851 
L 348.160366 182.459224 
L 348.282111 182.499582 
L 348.403857 182.499582 
L 348.860402 182.418868 
L 349.012584 182.297793 
L 349.04302 182.338152 
L 349.073457 182.37851 
L 349.103893 182.297793 
L 349.164766 182.37851 
L 349.225639 182.257438 
L 349.37782 182.297793 
L 349.46913 182.21708 
L 349.499566 182.257438 
L 349.71262 182.176721 
L 349.895239 182.096005 
L 349.986548 182.015291 
L 350.169166 181.934574 
L 350.290911 181.894219 
L 350.443093 181.773144 
L 350.564839 181.773144 
L 350.686584 181.69243 
L 350.71702 181.773144 
L 350.747457 181.652072 
L 350.777893 181.652072 
L 351.05182 181.571355 
L 351.356184 181.329211 
L 351.47793 181.288852 
L 351.630111 181.087064 
L 351.72142 181.087064 
L 351.934475 180.80456 
L 351.995348 180.844918 
L 352.025784 180.764203 
L 353.699784 178.383101 
L 353.973711 177.898808 
L 354.06502 177.818093 
L 355.16073 176.48629 
L 355.191166 176.526648 
L 355.221602 176.445932 
L 355.647711 176.042356 
L 355.799893 175.961641 
L 355.921639 175.840567 
L 355.952075 175.880925 
L 356.012948 175.80021 
L 356.16513 175.719495 
L 356.439057 175.517706 
L 356.652111 175.436991 
L 356.865166 175.315917 
L 356.986911 175.235202 
L 357.199966 175.114129 
L 357.41302 175.033413 
L 357.595639 174.912341 
L 357.717384 174.912341 
L 357.960875 174.750911 
L 358.08262 174.670194 
L 358.386984 174.428049 
L 358.478293 174.347334 
L 358.630475 174.22626 
L 358.813093 174.06483 
L 358.84353 174.145545 
L 358.904402 174.024473 
L 359.026148 173.903399 
L 359.08702 173.943758 
L 359.117457 173.863042 
L 359.17833 173.782326 
L 359.604439 173.37875 
L 359.695748 173.298035 
L 359.969675 173.096246 
L 360.121857 173.015531 
L 361.978475 170.392283 
L 362.465457 169.383341 
L 362.76982 168.858691 
L 363.043748 168.212968 
L 363.165493 167.930465 
L 363.43942 167.284742 
L 363.956839 166.195085 
L 363.987275 166.195085 
L 364.261202 165.549362 
L 364.748184 164.540421 
L 366.087384 162.603253 
L 366.300439 162.320749 
L 366.970039 161.594311 
L 367.061348 161.513596 
L 367.639639 160.908231 
L 367.700511 160.827515 
L 368.004875 160.585369 
L 368.21793 160.504654 
L 368.339675 160.423939 
L 368.522293 160.343223 
L 369.009275 159.858931 
L 369.039711 159.899289 
L 369.100584 159.818574 
L 369.252766 159.737858 
L 369.404948 159.657143 
L 369.435384 159.697501 
L 369.496257 159.616785 
L 369.739748 159.455355 
L 369.770184 159.495712 
L 369.831057 159.414997 
L 369.983239 159.334282 
L 370.318039 159.01142 
L 370.348475 159.051778 
L 370.378911 158.971063 
L 370.531093 158.84999 
L 370.987639 158.406055 
L 371.048511 158.32534 
L 371.778984 157.518187 
L 371.80942 157.558544 
L 371.839857 157.477829 
L 372.022475 157.276041 
L 372.874693 156.307457 
L 372.966002 156.226741 
L 373.513857 155.581019 
L 373.544293 155.661734 
L 373.605166 155.540661 
L 373.635602 155.540661 
L 373.81822 155.258157 
L 373.848657 155.258157 
L 374.031275 154.935296 
L 374.518257 154.128143 
L 374.792184 153.684208 
L 375.126984 153.078843 
L 375.857457 151.424179 
L 376.070511 151.020602 
L 376.314002 150.455595 
L 376.344439 150.455595 
L 376.618366 149.769515 
L 376.770548 149.406296 
L 377.135784 148.397354 
L 377.653202 147.307697 
L 377.83582 146.90412 
L 378.140184 146.096967 
L 378.201057 146.016252 
L 378.414111 145.451244 
L 378.627166 145.00731 
L 379.50982 142.94907 
L 379.631566 142.626207 
L 382.918693 133.989666 
L 382.918693 133.989666 
" style="fill:none;stroke:#0000ff;stroke-linecap:square;stroke-width:1.5;"/>
   </g>
   <g id="line2d_24">
    <path clip-path="url(#p95f762b4aa)" d="M 78.555057 153.337213 
L 85.372802 153.417929 
L 85.524984 153.438107 
L 85.738039 153.417929 
L 99.982257 153.518823 
L 100.438802 153.700432 
L 100.560548 153.720611 
L 101.747566 154.628658 
L 102.72153 156.081535 
L 103.421566 157.635305 
L 103.72593 158.442458 
L 104.182475 159.834798 
L 104.63902 161.34821 
L 105.30862 163.910922 
L 105.97822 166.87721 
L 110.269748 186.289246 
L 111.152402 188.831781 
L 112.278548 190.829486 
L 112.461166 191.071632 
L 112.826402 191.394493 
L 113.43513 191.293599 
L 113.982984 190.809307 
L 115.048257 188.448383 
L 116.083093 184.654764 
L 118.152766 171.639415 
L 119.46153 161.328031 
L 124.81833 112.636506 
L 126.187966 103.434955 
L 127.953275 94.636987 
L 129.140293 90.359071 
L 129.809893 88.886019 
L 130.144693 88.542976 
L 130.722984 87.957796 
L 130.996911 87.856896 
L 131.149093 87.877078 
L 131.392584 87.977972 
L 131.636075 88.01833 
L 131.84913 87.897257 
L 131.940439 87.856896 
L 132.366548 87.453319 
L 132.823093 87.534038 
L 133.157893 87.796362 
L 133.462257 87.897257 
L 134.284039 88.563158 
L 135.014511 89.350133 
L 135.349311 89.451024 
L 135.501493 89.551924 
L 135.714548 89.794067 
L 136.262402 90.641575 
L 136.627639 90.94426 
L 137.053748 91.347837 
L 137.327675 91.832132 
L 137.571166 92.376961 
L 138.149457 93.60787 
L 138.45382 94.455377 
L 139.153857 97.643633 
L 139.671275 100.12563 
L 139.914766 101.255648 
L 140.55393 104.807122 
L 141.375711 109.145568 
L 142.014875 113.100619 
L 146.184657 144.317275 
L 147.645602 156.828151 
L 148.376075 163.002874 
L 150.902293 183.827429 
L 152.758911 196.64099 
L 153.002402 198.01315 
L 153.885057 202.613924 
L 154.493784 204.93449 
L 155.498184 207.900779 
L 155.86342 208.405249 
L 156.076475 208.667574 
L 156.593893 209.172045 
L 156.86782 209.232582 
L 157.29393 209.071154 
L 157.415675 209.050972 
L 158.146148 208.485965 
L 158.572257 207.658636 
L 158.815748 207.154165 
L 160.794111 202.977143 
L 161.585457 200.575862 
L 163.716002 193.129873 
L 164.446475 189.780186 
L 166.303093 181.688473 
L 167.185748 178.399325 
L 167.611857 176.885912 
L 168.707566 174.928565 
L 168.768439 174.84785 
L 169.133675 174.524988 
L 169.833711 174.625882 
L 170.625057 175.271605 
L 172.238184 179.8522 
L 174.307857 189.981975 
L 175.403566 196.378665 
L 178.203711 215.649451 
L 179.05593 221.582024 
L 179.999457 226.566199 
L 180.516875 228.463013 
L 181.947384 231.953948 
L 182.860475 232.983068 
L 183.07353 233.003247 
L 183.682257 232.034663 
L 184.41273 229.794813 
L 184.777966 228.220864 
L 185.508439 223.801699 
L 186.269348 217.485721 
L 187.42593 204.873954 
L 188.521639 190.506624 
L 190.043457 167.825616 
L 191.626148 139.777038 
L 193.239275 112.818116 
L 195.70462 76.819077 
L 197.317748 59.889036 
L 198.109093 53.108954 
L 198.900439 47.680835 
L 200.757057 37.268564 
L 201.304911 35.230498 
L 201.944075 34.201375 
L 202.431057 33.717089 
L 202.552802 33.676735 
L 202.887602 33.757453 
L 203.709384 34.665494 
L 203.952875 34.947998 
L 204.318111 35.613899 
L 204.805093 37.208027 
L 205.261639 39.104841 
L 206.205166 45.380451 
L 208.85313 65.478573 
L 210.618439 79.745008 
L 219.81022 152.00541 
L 224.953966 185.381202 
L 226.354039 193.069336 
L 226.962766 195.93473 
L 227.632366 198.901019 
L 228.362839 201.786592 
L 229.702039 205.842538 
L 230.006402 206.427724 
L 230.310766 206.952373 
L 230.919493 207.941136 
L 231.254293 208.385074 
L 231.467348 208.647392 
L 232.350002 209.999377 
L 232.715239 210.665282 
L 233.476148 211.85583 
L 235.484948 216.073203 
L 235.758875 216.618031 
L 236.367602 217.586622 
L 236.580657 217.84894 
L 238.102475 219.685217 
L 238.193784 219.786111 
L 238.802511 220.088797 
L 238.954693 220.088797 
L 239.106875 220.108973 
L 239.259057 220.088797 
L 239.532984 220.028254 
L 240.050402 219.927363 
L 240.263457 219.907188 
L 241.054802 219.987897 
L 241.206984 220.04844 
L 241.57222 220.169506 
L 241.99833 220.250225 
L 242.180948 220.310758 
L 242.515748 220.411659 
L 243.641893 221.279345 
L 244.494111 222.732224 
L 244.768039 223.277053 
L 247.294257 228.079612 
L 247.385566 228.160327 
L 247.59862 228.422655 
L 248.298657 229.169269 
L 248.785639 229.371054 
L 249.27262 229.270163 
L 250.307457 228.463013 
L 250.794439 227.716393 
L 250.916184 227.554966 
L 251.220548 227.050495 
L 251.859711 225.557261 
L 252.833675 221.945243 
L 254.416366 212.985848 
L 255.451202 205.398603 
L 256.090366 199.930139 
L 258.555711 174.303021 
L 262.055893 128.84011 
L 264.795166 92.195351 
L 267.077893 66.265547 
L 268.44753 54.541648 
L 270.151966 45.037415 
L 271.156366 42.676485 
L 271.491166 42.414166 
L 271.643348 42.414166 
L 271.856402 42.373812 
L 272.13033 42.434348 
L 272.343384 42.535233 
L 272.617311 42.837918 
L 273.499966 44.835629 
L 274.108693 46.752612 
L 274.656548 49.355682 
L 275.630511 55.106652 
L 276.14793 58.839737 
L 278.369784 77.384081 
L 279.83073 91.973384 
L 285.004911 145.709614 
L 289.935602 190.446088 
L 292.55313 208.728111 
L 294.13582 216.577674 
L 295.718511 220.512549 
L 295.90113 220.734517 
L 296.540293 221.763634 
L 297.24033 222.530433 
L 297.392511 222.611148 
L 297.57513 222.691863 
L 297.727311 222.712042 
L 297.970802 222.7524 
L 298.396911 222.651506 
L 298.944766 222.167214 
L 300.25353 220.250225 
L 301.805784 215.83106 
L 302.84062 212.057618 
L 304.118948 204.712523 
L 305.94513 190.607518 
L 306.827784 183.948504 
L 307.649566 177.79396 
L 308.775711 169.702247 
L 309.840984 163.345915 
L 312.610693 151.016647 
L 315.776075 138.848811 
L 316.019566 138.122373 
L 316.506548 136.528245 
L 317.389202 133.985712 
L 318.058802 131.907292 
L 318.637093 130.3737 
L 319.215384 128.981361 
L 319.91542 127.044193 
L 320.524148 125.591317 
L 321.528548 122.645208 
L 322.776439 119.638561 
L 323.080802 119.053375 
L 324.876548 115.239576 
L 326.976657 109.9729 
L 327.737566 108.782349 
L 328.468039 107.571619 
L 329.685493 106.138922 
L 330.659457 105.614272 
L 331.602984 105.715166 
L 332.39433 106.360889 
L 333.824839 108.439309 
L 335.711893 113.705984 
L 336.32062 116.006371 
L 339.242511 128.053134 
L 341.251311 139.292745 
L 343.564475 153.760969 
L 344.934111 163.507345 
L 345.725457 169.843499 
L 349.164766 194.118635 
L 349.743057 197.771004 
L 351.295311 206.367187 
L 352.664948 213.046381 
L 353.456293 216.194279 
L 354.338948 218.736812 
L 355.434657 221.339882 
L 356.286875 222.792758 
L 356.682548 222.954192 
L 357.74782 222.147035 
L 359.117457 219.18075 
L 359.75662 216.678574 
L 360.578402 212.340119 
L 362.19153 202.069096 
L 364.382948 185.300485 
L 366.483057 168.148477 
L 367.426584 159.774261 
L 369.039711 145.830687 
L 372.90513 113.44366 
L 373.939966 106.703929 
L 374.91393 100.952962 
L 376.009639 96.372363 
L 376.405311 95.020388 
L 376.953166 93.264826 
L 378.414111 89.693176 
L 379.114148 88.946556 
L 379.50982 88.805304 
L 380.17942 88.906195 
L 380.362039 88.986914 
L 380.575093 89.087805 
L 381.062075 89.531742 
L 381.94473 90.883724 
L 382.736075 92.67964 
L 382.918693 93.163932 
L 382.918693 93.163932 
" style="fill:none;stroke:#ff0000;stroke-linecap:square;stroke-width:1.5;"/>
   </g>
   <g id="line2d_25">
    <path clip-path="url(#p95f762b4aa)" d="M 123.661748 161.95753 
" style="fill:none;stroke:#ffffff;stroke-linecap:square;stroke-width:1.5;"/>
    <defs>
     <path d="M 0 -5 
L -1.12257 -1.545085 
L -4.755283 -1.545085 
L -1.816356 0.59017 
L -2.938926 4.045085 
L -0 1.90983 
L 2.938926 4.045085 
L 1.816356 0.59017 
L 4.755283 -1.545085 
L 1.12257 -1.545085 
z
" id="m3f33df0d41" style="stroke:#ffffff;stroke-linejoin:bevel;"/>
    </defs>
    <g clip-path="url(#p95f762b4aa)">
     <use style="fill:#0000ff;stroke:#ffffff;stroke-linejoin:bevel;" x="123.661748" xlink:href="#m3f33df0d41" y="161.95753"/>
    </g>
   </g>
   <g id="line2d_26">
    <path clip-path="url(#p95f762b4aa)" d="M 104.030293 159.350506 
" style="fill:none;stroke:#ffffff;stroke-linecap:square;stroke-width:1.5;"/>
    <defs>
     <path d="M 0 -5 
L -1.12257 -1.545085 
L -4.755283 -1.545085 
L -1.816356 0.59017 
L -2.938926 4.045085 
L -0 1.90983 
L 2.938926 4.045085 
L 1.816356 0.59017 
L 4.755283 -1.545085 
L 1.12257 -1.545085 
z
" id="m917fc509fd" style="stroke:#ffffff;stroke-linejoin:bevel;"/>
    </defs>
    <g clip-path="url(#p95f762b4aa)">
     <use style="fill:#ff0000;stroke:#ffffff;stroke-linejoin:bevel;" x="104.030293" xlink:href="#m917fc509fd" y="159.350506"/>
    </g>
   </g>
   <g id="patch_3">
    <path d="M 63.336875 339.84 
L 63.336875 7.2 
" style="fill:none;stroke:#000000;stroke-linecap:square;stroke-linejoin:miter;stroke-width:0.8;"/>
   </g>
   <g id="patch_4">
    <path d="M 398.136875 339.84 
L 398.136875 7.2 
" style="fill:none;stroke:#000000;stroke-linecap:square;stroke-linejoin:miter;stroke-width:0.8;"/>
   </g>
   <g id="patch_5">
    <path d="M 63.336875 339.84 
L 398.136875 339.84 
" style="fill:none;stroke:#000000;stroke-linecap:square;stroke-linejoin:miter;stroke-width:0.8;"/>
   </g>
   <g id="patch_6">
    <path d="M 63.336875 7.2 
L 398.136875 7.2 
" style="fill:none;stroke:#000000;stroke-linecap:square;stroke-linejoin:miter;stroke-width:0.8;"/>
   </g>
   <g id="text_14">
    <g id="patch_7">
     <path d="M 75.036875 331.242688 
L 166.79375 331.242688 
L 166.79375 293.760312 
L 75.036875 293.760312 
z
" style="fill:#ffffff;stroke:#000000;stroke-linejoin:miter;stroke-width:0.75;"/>
    </g>
    <!-- Auto_00161 -->
    <g transform="translate(80.076875 308.521562)scale(0.14 -0.14)">
     <defs>
      <path d="M 2928 1419 
L 1288 1419 
L 1000 750 
Q 894 503 894 381 
Q 894 284 986 211 
Q 1078 138 1384 116 
L 1384 0 
L 50 0 
L 50 116 
Q 316 163 394 238 
Q 553 388 747 847 
L 2238 4334 
L 2347 4334 
L 3822 809 
Q 4000 384 4145 257 
Q 4291 131 4550 116 
L 4550 0 
L 2878 0 
L 2878 116 
Q 3131 128 3220 200 
Q 3309 272 3309 375 
Q 3309 513 3184 809 
L 2928 1419 
z
M 2841 1650 
L 2122 3363 
L 1384 1650 
L 2841 1650 
z
" id="TimesNewRomanPSMT-41" transform="scale(0.015625)"/>
      <path d="M 2709 2863 
L 2709 1128 
Q 2709 631 2732 520 
Q 2756 409 2807 365 
Q 2859 322 2928 322 
Q 3025 322 3147 375 
L 3191 266 
L 2334 -88 
L 2194 -88 
L 2194 519 
Q 1825 119 1631 15 
Q 1438 -88 1222 -88 
Q 981 -88 804 51 
Q 628 191 559 409 
Q 491 628 491 1028 
L 491 2306 
Q 491 2509 447 2587 
Q 403 2666 317 2708 
Q 231 2750 6 2747 
L 6 2863 
L 1009 2863 
L 1009 947 
Q 1009 547 1148 422 
Q 1288 297 1484 297 
Q 1619 297 1789 381 
Q 1959 466 2194 703 
L 2194 2325 
Q 2194 2569 2105 2655 
Q 2016 2741 1734 2747 
L 1734 2863 
L 2709 2863 
z
" id="TimesNewRomanPSMT-75" transform="scale(0.015625)"/>
      <path d="M 3256 -1381 
L -53 -1381 
L -53 -1119 
L 3256 -1119 
L 3256 -1381 
z
" id="TimesNewRomanPSMT-5f" transform="scale(0.015625)"/>
      <path d="M 2869 4325 
L 2869 4209 
Q 2456 4169 2195 4045 
Q 1934 3922 1679 3669 
Q 1425 3416 1258 3105 
Q 1091 2794 978 2366 
Q 1428 2675 1881 2675 
Q 2316 2675 2634 2325 
Q 2953 1975 2953 1425 
Q 2953 894 2631 456 
Q 2244 -75 1606 -75 
Q 1172 -75 869 213 
Q 275 772 275 1663 
Q 275 2231 503 2743 
Q 731 3256 1154 3653 
Q 1578 4050 1965 4187 
Q 2353 4325 2688 4325 
L 2869 4325 
z
M 925 2138 
Q 869 1716 869 1456 
Q 869 1156 980 804 
Q 1091 453 1309 247 
Q 1469 100 1697 100 
Q 1969 100 2183 356 
Q 2397 613 2397 1088 
Q 2397 1622 2184 2012 
Q 1972 2403 1581 2403 
Q 1463 2403 1327 2353 
Q 1191 2303 925 2138 
z
" id="TimesNewRomanPSMT-36" transform="scale(0.015625)"/>
     </defs>
     <use xlink:href="#TimesNewRomanPSMT-41"/>
     <use x="72.216797" xlink:href="#TimesNewRomanPSMT-75"/>
     <use x="122.216797" xlink:href="#TimesNewRomanPSMT-74"/>
     <use x="150" xlink:href="#TimesNewRomanPSMT-6f"/>
     <use x="200" xlink:href="#TimesNewRomanPSMT-5f"/>
     <use x="250" xlink:href="#TimesNewRomanPSMT-30"/>
     <use x="300" xlink:href="#TimesNewRomanPSMT-30"/>
     <use x="350" xlink:href="#TimesNewRomanPSMT-31"/>
     <use x="400" xlink:href="#TimesNewRomanPSMT-36"/>
     <use x="450" xlink:href="#TimesNewRomanPSMT-31"/>
    </g>
    <!-- Vs: 309.86m/s -->
    <g transform="translate(80.076875 323.208)scale(0.14 -0.14)">
     <defs>
      <path d="M 903 2950 
Q 1047 2950 1148 2848 
Q 1250 2747 1250 2603 
Q 1250 2459 1148 2357 
Q 1047 2256 903 2256 
Q 759 2256 657 2357 
Q 556 2459 556 2603 
Q 556 2747 657 2848 
Q 759 2950 903 2950 
z
M 897 609 
Q 1044 609 1145 506 
Q 1247 403 1247 259 
Q 1247 116 1144 14 
Q 1041 -88 897 -88 
Q 753 -88 651 14 
Q 550 116 550 259 
Q 550 403 651 506 
Q 753 609 897 609 
z
" id="TimesNewRomanPSMT-3a" transform="scale(0.015625)"/>
      <path d="M 338 -88 
L 338 28 
Q 744 34 1094 217 
Q 1444 400 1770 856 
Q 2097 1313 2225 1859 
Q 1734 1544 1338 1544 
Q 891 1544 572 1889 
Q 253 2234 253 2806 
Q 253 3363 572 3797 
Q 956 4325 1575 4325 
Q 2097 4325 2469 3894 
Q 2925 3359 2925 2575 
Q 2925 1869 2578 1258 
Q 2231 647 1613 244 
Q 1109 -88 516 -88 
L 338 -88 
z
M 2275 2091 
Q 2331 2497 2331 2741 
Q 2331 3044 2228 3395 
Q 2125 3747 1936 3934 
Q 1747 4122 1506 4122 
Q 1228 4122 1018 3872 
Q 809 3622 809 3128 
Q 809 2469 1088 2097 
Q 1291 1828 1588 1828 
Q 1731 1828 1928 1897 
Q 2125 1966 2275 2091 
z
" id="TimesNewRomanPSMT-39" transform="scale(0.015625)"/>
      <path d="M 1228 2134 
Q 725 2547 579 2797 
Q 434 3047 434 3316 
Q 434 3728 753 4026 
Q 1072 4325 1600 4325 
Q 2113 4325 2425 4047 
Q 2738 3769 2738 3413 
Q 2738 3175 2569 2928 
Q 2400 2681 1866 2347 
Q 2416 1922 2594 1678 
Q 2831 1359 2831 1006 
Q 2831 559 2490 242 
Q 2150 -75 1597 -75 
Q 994 -75 656 303 
Q 388 606 388 966 
Q 388 1247 577 1523 
Q 766 1800 1228 2134 
z
M 1719 2469 
Q 2094 2806 2194 3001 
Q 2294 3197 2294 3444 
Q 2294 3772 2109 3958 
Q 1925 4144 1606 4144 
Q 1288 4144 1088 3959 
Q 888 3775 888 3528 
Q 888 3366 970 3203 
Q 1053 3041 1206 2894 
L 1719 2469 
z
M 1375 2016 
Q 1116 1797 991 1539 
Q 866 1281 866 981 
Q 866 578 1086 336 
Q 1306 94 1647 94 
Q 1984 94 2187 284 
Q 2391 475 2391 747 
Q 2391 972 2272 1150 
Q 2050 1481 1375 2016 
z
" id="TimesNewRomanPSMT-38" transform="scale(0.015625)"/>
      <path d="M 1794 4444 
L 259 -88 
L 9 -88 
L 1544 4444 
L 1794 4444 
z
" id="TimesNewRomanPSMT-2f" transform="scale(0.015625)"/>
     </defs>
     <use xlink:href="#TimesNewRomanPSMT-56"/>
     <use x="72.216797" xlink:href="#TimesNewRomanPSMT-73"/>
     <use x="111.132812" xlink:href="#TimesNewRomanPSMT-3a"/>
     <use x="138.916016" xlink:href="#TimesNewRomanPSMT-20"/>
     <use x="163.916016" xlink:href="#TimesNewRomanPSMT-33"/>
     <use x="213.916016" xlink:href="#TimesNewRomanPSMT-30"/>
     <use x="263.916016" xlink:href="#TimesNewRomanPSMT-39"/>
     <use x="313.916016" xlink:href="#TimesNewRomanPSMT-2e"/>
     <use x="338.916016" xlink:href="#TimesNewRomanPSMT-38"/>
     <use x="388.916016" xlink:href="#TimesNewRomanPSMT-36"/>
     <use x="438.916016" xlink:href="#TimesNewRomanPSMT-6d"/>
     <use x="516.699219" xlink:href="#TimesNewRomanPSMT-2f"/>
     <use x="544.482422" xlink:href="#TimesNewRomanPSMT-73"/>
    </g>
   </g>
  </g>
 </g>
 <defs>
  <clipPath id="p95f762b4aa">
   <rect height="332.64" width="334.8" x="63.336875" y="7.2"/>
  </clipPath>
 </defs>
</svg>
