<?xml version="1.0" encoding="utf-8" standalone="no"?>
<!DOCTYPE svg PUBLIC "-//W3C//DTD SVG 1.1//EN"
  "http://www.w3.org/Graphics/SVG/1.1/DTD/svg11.dtd">
<svg height="383.471875pt" version="1.1" viewBox="0 0 421.086875 383.471875" width="421.086875pt" xmlns="http://www.w3.org/2000/svg" xmlns:xlink="http://www.w3.org/1999/xlink">
 <metadata>
  <rdf:RDF xmlns:cc="http://creativecommons.org/ns#" xmlns:dc="http://purl.org/dc/elements/1.1/" xmlns:rdf="http://www.w3.org/1999/02/22-rdf-syntax-ns#">
   <cc:Work>
    <dc:type rdf:resource="http://purl.org/dc/dcmitype/StillImage"/>
    <dc:date>2021-06-11T14:39:39.432640</dc:date>
    <dc:format>image/svg+xml</dc:format>
    <dc:creator>
     <cc:Agent>
      <dc:title>Matplotlib v3.4.2, https://matplotlib.org/</dc:title>
     </cc:Agent>
    </dc:creator>
   </cc:Work>
  </rdf:RDF>
 </metadata>
 <defs>
  <style type="text/css">*{stroke-linecap:butt;stroke-linejoin:round;}</style>
 </defs>
 <g id="figure_1">
  <g id="patch_1">
   <path d="M 0 383.471875 
L 421.086875 383.471875 
L 421.086875 0 
L 0 0 
z
" style="fill:#ffffff;"/>
  </g>
  <g id="axes_1">
   <g id="patch_2">
    <path d="M 63.336875 339.84 
L 398.136875 339.84 
L 398.136875 7.2 
L 63.336875 7.2 
z
" style="fill:#ffffff;"/>
   </g>
   <g id="matplotlib.axis_1">
    <g id="xtick_1">
     <g id="line2d_1">
      <path clip-path="url(#p181121cd9d)" d="M 93.773239 339.84 
L 93.773239 7.2 
" style="fill:none;stroke:#000000;stroke-dasharray:0.5,0.825;stroke-dashoffset:0;stroke-width:0.5;"/>
     </g>
     <g id="line2d_2">
      <defs>
       <path d="M 0 0 
L 0 3.5 
" id="m1373c79ec8" style="stroke:#000000;stroke-width:0.8;"/>
      </defs>
      <g>
       <use style="stroke:#000000;stroke-width:0.8;" x="93.773239" xlink:href="#m1373c79ec8" y="339.84"/>
      </g>
     </g>
     <g id="text_1">
      <!-- 0.000 -->
      <g transform="translate(78.023239 356.56125)scale(0.14 -0.14)">
       <defs>
        <path d="M 231 2094 
Q 231 2819 450 3342 
Q 669 3866 1031 4122 
Q 1313 4325 1613 4325 
Q 2100 4325 2488 3828 
Q 2972 3213 2972 2159 
Q 2972 1422 2759 906 
Q 2547 391 2217 158 
Q 1888 -75 1581 -75 
Q 975 -75 572 641 
Q 231 1244 231 2094 
z
M 844 2016 
Q 844 1141 1059 588 
Q 1238 122 1591 122 
Q 1759 122 1940 273 
Q 2122 425 2216 781 
Q 2359 1319 2359 2297 
Q 2359 3022 2209 3506 
Q 2097 3866 1919 4016 
Q 1791 4119 1609 4119 
Q 1397 4119 1231 3928 
Q 1006 3669 925 3112 
Q 844 2556 844 2016 
z
" id="TimesNewRomanPSMT-30" transform="scale(0.015625)"/>
        <path d="M 800 606 
Q 947 606 1047 504 
Q 1147 403 1147 259 
Q 1147 116 1045 14 
Q 944 -88 800 -88 
Q 656 -88 554 14 
Q 453 116 453 259 
Q 453 406 554 506 
Q 656 606 800 606 
z
" id="TimesNewRomanPSMT-2e" transform="scale(0.015625)"/>
       </defs>
       <use xlink:href="#TimesNewRomanPSMT-30"/>
       <use x="50" xlink:href="#TimesNewRomanPSMT-2e"/>
       <use x="75" xlink:href="#TimesNewRomanPSMT-30"/>
       <use x="125" xlink:href="#TimesNewRomanPSMT-30"/>
       <use x="175" xlink:href="#TimesNewRomanPSMT-30"/>
      </g>
     </g>
    </g>
    <g id="xtick_2">
     <g id="line2d_3">
      <path clip-path="url(#p181121cd9d)" d="M 154.645966 339.84 
L 154.645966 7.2 
" style="fill:none;stroke:#000000;stroke-dasharray:0.5,0.825;stroke-dashoffset:0;stroke-width:0.5;"/>
     </g>
     <g id="line2d_4">
      <g>
       <use style="stroke:#000000;stroke-width:0.8;" x="154.645966" xlink:href="#m1373c79ec8" y="339.84"/>
      </g>
     </g>
     <g id="text_2">
      <!-- 0.001 -->
      <g transform="translate(138.895966 356.56125)scale(0.14 -0.14)">
       <defs>
        <path d="M 750 3822 
L 1781 4325 
L 1884 4325 
L 1884 747 
Q 1884 391 1914 303 
Q 1944 216 2037 169 
Q 2131 122 2419 116 
L 2419 0 
L 825 0 
L 825 116 
Q 1125 122 1212 167 
Q 1300 213 1334 289 
Q 1369 366 1369 747 
L 1369 3034 
Q 1369 3497 1338 3628 
Q 1316 3728 1258 3775 
Q 1200 3822 1119 3822 
Q 1003 3822 797 3725 
L 750 3822 
z
" id="TimesNewRomanPSMT-31" transform="scale(0.015625)"/>
       </defs>
       <use xlink:href="#TimesNewRomanPSMT-30"/>
       <use x="50" xlink:href="#TimesNewRomanPSMT-2e"/>
       <use x="75" xlink:href="#TimesNewRomanPSMT-30"/>
       <use x="125" xlink:href="#TimesNewRomanPSMT-30"/>
       <use x="175" xlink:href="#TimesNewRomanPSMT-31"/>
      </g>
     </g>
    </g>
    <g id="xtick_3">
     <g id="line2d_5">
      <path clip-path="url(#p181121cd9d)" d="M 215.518693 339.84 
L 215.518693 7.2 
" style="fill:none;stroke:#000000;stroke-dasharray:0.5,0.825;stroke-dashoffset:0;stroke-width:0.5;"/>
     </g>
     <g id="line2d_6">
      <g>
       <use style="stroke:#000000;stroke-width:0.8;" x="215.518693" xlink:href="#m1373c79ec8" y="339.84"/>
      </g>
     </g>
     <g id="text_3">
      <!-- 0.002 -->
      <g transform="translate(199.768693 356.56125)scale(0.14 -0.14)">
       <defs>
        <path d="M 2934 816 
L 2638 0 
L 138 0 
L 138 116 
Q 1241 1122 1691 1759 
Q 2141 2397 2141 2925 
Q 2141 3328 1894 3587 
Q 1647 3847 1303 3847 
Q 991 3847 742 3664 
Q 494 3481 375 3128 
L 259 3128 
Q 338 3706 661 4015 
Q 984 4325 1469 4325 
Q 1984 4325 2329 3994 
Q 2675 3663 2675 3213 
Q 2675 2891 2525 2569 
Q 2294 2063 1775 1497 
Q 997 647 803 472 
L 1909 472 
Q 2247 472 2383 497 
Q 2519 522 2628 598 
Q 2738 675 2819 816 
L 2934 816 
z
" id="TimesNewRomanPSMT-32" transform="scale(0.015625)"/>
       </defs>
       <use xlink:href="#TimesNewRomanPSMT-30"/>
       <use x="50" xlink:href="#TimesNewRomanPSMT-2e"/>
       <use x="75" xlink:href="#TimesNewRomanPSMT-30"/>
       <use x="125" xlink:href="#TimesNewRomanPSMT-30"/>
       <use x="175" xlink:href="#TimesNewRomanPSMT-32"/>
      </g>
     </g>
    </g>
    <g id="xtick_4">
     <g id="line2d_7">
      <path clip-path="url(#p181121cd9d)" d="M 276.39142 339.84 
L 276.39142 7.2 
" style="fill:none;stroke:#000000;stroke-dasharray:0.5,0.825;stroke-dashoffset:0;stroke-width:0.5;"/>
     </g>
     <g id="line2d_8">
      <g>
       <use style="stroke:#000000;stroke-width:0.8;" x="276.39142" xlink:href="#m1373c79ec8" y="339.84"/>
      </g>
     </g>
     <g id="text_4">
      <!-- 0.003 -->
      <g transform="translate(260.64142 356.56125)scale(0.14 -0.14)">
       <defs>
        <path d="M 325 3431 
Q 506 3859 782 4092 
Q 1059 4325 1472 4325 
Q 1981 4325 2253 3994 
Q 2459 3747 2459 3466 
Q 2459 3003 1878 2509 
Q 2269 2356 2469 2072 
Q 2669 1788 2669 1403 
Q 2669 853 2319 450 
Q 1863 -75 997 -75 
Q 569 -75 414 31 
Q 259 138 259 259 
Q 259 350 332 419 
Q 406 488 509 488 
Q 588 488 669 463 
Q 722 447 909 348 
Q 1097 250 1169 231 
Q 1284 197 1416 197 
Q 1734 197 1970 444 
Q 2206 691 2206 1028 
Q 2206 1275 2097 1509 
Q 2016 1684 1919 1775 
Q 1784 1900 1550 2001 
Q 1316 2103 1072 2103 
L 972 2103 
L 972 2197 
Q 1219 2228 1467 2375 
Q 1716 2522 1828 2728 
Q 1941 2934 1941 3181 
Q 1941 3503 1739 3701 
Q 1538 3900 1238 3900 
Q 753 3900 428 3381 
L 325 3431 
z
" id="TimesNewRomanPSMT-33" transform="scale(0.015625)"/>
       </defs>
       <use xlink:href="#TimesNewRomanPSMT-30"/>
       <use x="50" xlink:href="#TimesNewRomanPSMT-2e"/>
       <use x="75" xlink:href="#TimesNewRomanPSMT-30"/>
       <use x="125" xlink:href="#TimesNewRomanPSMT-30"/>
       <use x="175" xlink:href="#TimesNewRomanPSMT-33"/>
      </g>
     </g>
    </g>
    <g id="xtick_5">
     <g id="line2d_9">
      <path clip-path="url(#p181121cd9d)" d="M 337.264148 339.84 
L 337.264148 7.2 
" style="fill:none;stroke:#000000;stroke-dasharray:0.5,0.825;stroke-dashoffset:0;stroke-width:0.5;"/>
     </g>
     <g id="line2d_10">
      <g>
       <use style="stroke:#000000;stroke-width:0.8;" x="337.264148" xlink:href="#m1373c79ec8" y="339.84"/>
      </g>
     </g>
     <g id="text_5">
      <!-- 0.004 -->
      <g transform="translate(321.514148 356.56125)scale(0.14 -0.14)">
       <defs>
        <path d="M 2978 1563 
L 2978 1119 
L 2409 1119 
L 2409 0 
L 1894 0 
L 1894 1119 
L 100 1119 
L 100 1519 
L 2066 4325 
L 2409 4325 
L 2409 1563 
L 2978 1563 
z
M 1894 1563 
L 1894 3666 
L 406 1563 
L 1894 1563 
z
" id="TimesNewRomanPSMT-34" transform="scale(0.015625)"/>
       </defs>
       <use xlink:href="#TimesNewRomanPSMT-30"/>
       <use x="50" xlink:href="#TimesNewRomanPSMT-2e"/>
       <use x="75" xlink:href="#TimesNewRomanPSMT-30"/>
       <use x="125" xlink:href="#TimesNewRomanPSMT-30"/>
       <use x="175" xlink:href="#TimesNewRomanPSMT-34"/>
      </g>
     </g>
    </g>
    <g id="xtick_6">
     <g id="line2d_11">
      <path clip-path="url(#p181121cd9d)" d="M 398.136875 339.84 
L 398.136875 7.2 
" style="fill:none;stroke:#000000;stroke-dasharray:0.5,0.825;stroke-dashoffset:0;stroke-width:0.5;"/>
     </g>
     <g id="line2d_12">
      <g>
       <use style="stroke:#000000;stroke-width:0.8;" x="398.136875" xlink:href="#m1373c79ec8" y="339.84"/>
      </g>
     </g>
     <g id="text_6">
      <!-- 0.005 -->
      <g transform="translate(382.386875 356.56125)scale(0.14 -0.14)">
       <defs>
        <path d="M 2778 4238 
L 2534 3706 
L 1259 3706 
L 981 3138 
Q 1809 3016 2294 2522 
Q 2709 2097 2709 1522 
Q 2709 1188 2573 903 
Q 2438 619 2231 419 
Q 2025 219 1772 97 
Q 1413 -75 1034 -75 
Q 653 -75 479 54 
Q 306 184 306 341 
Q 306 428 378 495 
Q 450 563 559 563 
Q 641 563 702 538 
Q 763 513 909 409 
Q 1144 247 1384 247 
Q 1750 247 2026 523 
Q 2303 800 2303 1197 
Q 2303 1581 2056 1914 
Q 1809 2247 1375 2428 
Q 1034 2569 447 2591 
L 1259 4238 
L 2778 4238 
z
" id="TimesNewRomanPSMT-35" transform="scale(0.015625)"/>
       </defs>
       <use xlink:href="#TimesNewRomanPSMT-30"/>
       <use x="50" xlink:href="#TimesNewRomanPSMT-2e"/>
       <use x="75" xlink:href="#TimesNewRomanPSMT-30"/>
       <use x="125" xlink:href="#TimesNewRomanPSMT-30"/>
       <use x="175" xlink:href="#TimesNewRomanPSMT-35"/>
      </g>
     </g>
    </g>
    <g id="text_7">
     <!-- Time (sec) -->
     <g transform="translate(200.858906 373.277188)scale(0.14 -0.14)">
      <defs>
       <path d="M 3703 4238 
L 3750 3244 
L 3631 3244 
Q 3597 3506 3538 3619 
Q 3441 3800 3280 3886 
Q 3119 3972 2856 3972 
L 2259 3972 
L 2259 734 
Q 2259 344 2344 247 
Q 2463 116 2709 116 
L 2856 116 
L 2856 0 
L 1059 0 
L 1059 116 
L 1209 116 
Q 1478 116 1591 278 
Q 1659 378 1659 734 
L 1659 3972 
L 1150 3972 
Q 853 3972 728 3928 
Q 566 3869 450 3700 
Q 334 3531 313 3244 
L 194 3244 
L 244 4238 
L 3703 4238 
z
" id="TimesNewRomanPSMT-54" transform="scale(0.015625)"/>
       <path d="M 928 4444 
Q 1059 4444 1151 4351 
Q 1244 4259 1244 4128 
Q 1244 3997 1151 3903 
Q 1059 3809 928 3809 
Q 797 3809 703 3903 
Q 609 3997 609 4128 
Q 609 4259 701 4351 
Q 794 4444 928 4444 
z
M 1188 2947 
L 1188 647 
Q 1188 378 1227 289 
Q 1266 200 1342 156 
Q 1419 113 1622 113 
L 1622 0 
L 231 0 
L 231 113 
Q 441 113 512 153 
Q 584 194 626 287 
Q 669 381 669 647 
L 669 1750 
Q 669 2216 641 2353 
Q 619 2453 572 2492 
Q 525 2531 444 2531 
Q 356 2531 231 2484 
L 188 2597 
L 1050 2947 
L 1188 2947 
z
" id="TimesNewRomanPSMT-69" transform="scale(0.015625)"/>
       <path d="M 1050 2338 
Q 1363 2650 1419 2697 
Q 1559 2816 1721 2881 
Q 1884 2947 2044 2947 
Q 2313 2947 2506 2790 
Q 2700 2634 2766 2338 
Q 3088 2713 3309 2830 
Q 3531 2947 3766 2947 
Q 3994 2947 4170 2830 
Q 4347 2713 4450 2447 
Q 4519 2266 4519 1878 
L 4519 647 
Q 4519 378 4559 278 
Q 4591 209 4675 161 
Q 4759 113 4950 113 
L 4950 0 
L 3538 0 
L 3538 113 
L 3597 113 
Q 3781 113 3884 184 
Q 3956 234 3988 344 
Q 4000 397 4000 647 
L 4000 1878 
Q 4000 2228 3916 2372 
Q 3794 2572 3525 2572 
Q 3359 2572 3192 2489 
Q 3025 2406 2788 2181 
L 2781 2147 
L 2788 2013 
L 2788 647 
Q 2788 353 2820 281 
Q 2853 209 2943 161 
Q 3034 113 3253 113 
L 3253 0 
L 1806 0 
L 1806 113 
Q 2044 113 2133 169 
Q 2222 225 2256 338 
Q 2272 391 2272 647 
L 2272 1878 
Q 2272 2228 2169 2381 
Q 2031 2581 1784 2581 
Q 1616 2581 1450 2491 
Q 1191 2353 1050 2181 
L 1050 647 
Q 1050 366 1089 281 
Q 1128 197 1204 155 
Q 1281 113 1516 113 
L 1516 0 
L 100 0 
L 100 113 
Q 297 113 375 155 
Q 453 197 493 289 
Q 534 381 534 647 
L 534 1741 
Q 534 2213 506 2350 
Q 484 2453 437 2492 
Q 391 2531 309 2531 
Q 222 2531 100 2484 
L 53 2597 
L 916 2947 
L 1050 2947 
L 1050 2338 
z
" id="TimesNewRomanPSMT-6d" transform="scale(0.015625)"/>
       <path d="M 681 1784 
Q 678 1147 991 784 
Q 1303 422 1725 422 
Q 2006 422 2214 576 
Q 2422 731 2563 1106 
L 2659 1044 
Q 2594 616 2278 264 
Q 1963 -88 1488 -88 
Q 972 -88 605 314 
Q 238 716 238 1394 
Q 238 2128 614 2539 
Q 991 2950 1559 2950 
Q 2041 2950 2350 2633 
Q 2659 2316 2659 1784 
L 681 1784 
z
M 681 1966 
L 2006 1966 
Q 1991 2241 1941 2353 
Q 1863 2528 1708 2628 
Q 1553 2728 1384 2728 
Q 1125 2728 920 2526 
Q 716 2325 681 1966 
z
" id="TimesNewRomanPSMT-65" transform="scale(0.015625)"/>
       <path id="TimesNewRomanPSMT-20" transform="scale(0.015625)"/>
       <path d="M 1988 -1253 
L 1988 -1369 
Q 1516 -1131 1200 -813 
Q 750 -359 506 256 
Q 263 872 263 1534 
Q 263 2503 741 3301 
Q 1219 4100 1988 4444 
L 1988 4313 
Q 1603 4100 1356 3731 
Q 1109 3363 987 2797 
Q 866 2231 866 1616 
Q 866 947 969 400 
Q 1050 -31 1165 -292 
Q 1281 -553 1476 -793 
Q 1672 -1034 1988 -1253 
z
" id="TimesNewRomanPSMT-28" transform="scale(0.015625)"/>
       <path d="M 2050 2947 
L 2050 1972 
L 1947 1972 
Q 1828 2431 1642 2597 
Q 1456 2763 1169 2763 
Q 950 2763 815 2647 
Q 681 2531 681 2391 
Q 681 2216 781 2091 
Q 878 1963 1175 1819 
L 1631 1597 
Q 2266 1288 2266 781 
Q 2266 391 1970 151 
Q 1675 -88 1309 -88 
Q 1047 -88 709 6 
Q 606 38 541 38 
Q 469 38 428 -44 
L 325 -44 
L 325 978 
L 428 978 
Q 516 541 762 319 
Q 1009 97 1316 97 
Q 1531 97 1667 223 
Q 1803 350 1803 528 
Q 1803 744 1651 891 
Q 1500 1038 1047 1263 
Q 594 1488 453 1669 
Q 313 1847 313 2119 
Q 313 2472 555 2709 
Q 797 2947 1181 2947 
Q 1350 2947 1591 2875 
Q 1750 2828 1803 2828 
Q 1853 2828 1881 2850 
Q 1909 2872 1947 2947 
L 2050 2947 
z
" id="TimesNewRomanPSMT-73" transform="scale(0.015625)"/>
       <path d="M 2631 1088 
Q 2516 522 2178 217 
Q 1841 -88 1431 -88 
Q 944 -88 581 321 
Q 219 731 219 1428 
Q 219 2103 620 2525 
Q 1022 2947 1584 2947 
Q 2006 2947 2278 2723 
Q 2550 2500 2550 2259 
Q 2550 2141 2473 2067 
Q 2397 1994 2259 1994 
Q 2075 1994 1981 2113 
Q 1928 2178 1911 2362 
Q 1894 2547 1784 2644 
Q 1675 2738 1481 2738 
Q 1169 2738 978 2506 
Q 725 2200 725 1697 
Q 725 1184 976 792 
Q 1228 400 1656 400 
Q 1963 400 2206 609 
Q 2378 753 2541 1131 
L 2631 1088 
z
" id="TimesNewRomanPSMT-63" transform="scale(0.015625)"/>
       <path d="M 144 4313 
L 144 4444 
Q 619 4209 934 3891 
Q 1381 3434 1625 2820 
Q 1869 2206 1869 1541 
Q 1869 572 1392 -226 
Q 916 -1025 144 -1369 
L 144 -1253 
Q 528 -1038 776 -670 
Q 1025 -303 1145 264 
Q 1266 831 1266 1447 
Q 1266 2113 1163 2663 
Q 1084 3094 967 3353 
Q 850 3613 656 3853 
Q 463 4094 144 4313 
z
" id="TimesNewRomanPSMT-29" transform="scale(0.015625)"/>
      </defs>
      <use xlink:href="#TimesNewRomanPSMT-54"/>
      <use x="57.583984" xlink:href="#TimesNewRomanPSMT-69"/>
      <use x="85.367188" xlink:href="#TimesNewRomanPSMT-6d"/>
      <use x="163.150391" xlink:href="#TimesNewRomanPSMT-65"/>
      <use x="207.535156" xlink:href="#TimesNewRomanPSMT-20"/>
      <use x="232.535156" xlink:href="#TimesNewRomanPSMT-28"/>
      <use x="265.835938" xlink:href="#TimesNewRomanPSMT-73"/>
      <use x="304.751953" xlink:href="#TimesNewRomanPSMT-65"/>
      <use x="349.136719" xlink:href="#TimesNewRomanPSMT-63"/>
      <use x="393.521484" xlink:href="#TimesNewRomanPSMT-29"/>
     </g>
    </g>
   </g>
   <g id="matplotlib.axis_2">
    <g id="ytick_1">
     <g id="line2d_13">
      <path clip-path="url(#p181121cd9d)" d="M 63.336875 283.074975 
L 398.136875 283.074975 
" style="fill:none;stroke:#000000;stroke-dasharray:0.5,0.825;stroke-dashoffset:0;stroke-width:0.5;"/>
     </g>
     <g id="line2d_14">
      <defs>
       <path d="M 0 0 
L -3.5 0 
" id="m1a66438f44" style="stroke:#000000;stroke-width:0.8;"/>
      </defs>
      <g>
       <use style="stroke:#000000;stroke-width:0.8;" x="63.336875" xlink:href="#m1a66438f44" y="283.074975"/>
      </g>
     </g>
     <g id="text_8">
      <!-- −0.04 -->
      <g transform="translate(23.942188 287.9356)scale(0.14 -0.14)">
       <defs>
        <path d="M 3484 2000 
L 116 2000 
L 116 2256 
L 3484 2256 
L 3484 2000 
z
" id="TimesNewRomanPSMT-2212" transform="scale(0.015625)"/>
       </defs>
       <use xlink:href="#TimesNewRomanPSMT-2212"/>
       <use x="56.396484" xlink:href="#TimesNewRomanPSMT-30"/>
       <use x="106.396484" xlink:href="#TimesNewRomanPSMT-2e"/>
       <use x="131.396484" xlink:href="#TimesNewRomanPSMT-30"/>
       <use x="181.396484" xlink:href="#TimesNewRomanPSMT-34"/>
      </g>
     </g>
    </g>
    <g id="ytick_2">
     <g id="line2d_15">
      <path clip-path="url(#p181121cd9d)" d="M 63.336875 218.648876 
L 398.136875 218.648876 
" style="fill:none;stroke:#000000;stroke-dasharray:0.5,0.825;stroke-dashoffset:0;stroke-width:0.5;"/>
     </g>
     <g id="line2d_16">
      <g>
       <use style="stroke:#000000;stroke-width:0.8;" x="63.336875" xlink:href="#m1a66438f44" y="218.648876"/>
      </g>
     </g>
     <g id="text_9">
      <!-- −0.02 -->
      <g transform="translate(23.942188 223.509501)scale(0.14 -0.14)">
       <use xlink:href="#TimesNewRomanPSMT-2212"/>
       <use x="56.396484" xlink:href="#TimesNewRomanPSMT-30"/>
       <use x="106.396484" xlink:href="#TimesNewRomanPSMT-2e"/>
       <use x="131.396484" xlink:href="#TimesNewRomanPSMT-30"/>
       <use x="181.396484" xlink:href="#TimesNewRomanPSMT-32"/>
      </g>
     </g>
    </g>
    <g id="ytick_3">
     <g id="line2d_17">
      <path clip-path="url(#p181121cd9d)" d="M 63.336875 154.222776 
L 398.136875 154.222776 
" style="fill:none;stroke:#000000;stroke-dasharray:0.5,0.825;stroke-dashoffset:0;stroke-width:0.5;"/>
     </g>
     <g id="line2d_18">
      <g>
       <use style="stroke:#000000;stroke-width:0.8;" x="63.336875" xlink:href="#m1a66438f44" y="154.222776"/>
      </g>
     </g>
     <g id="text_10">
      <!-- 0.00 -->
      <g transform="translate(31.836875 159.083401)scale(0.14 -0.14)">
       <use xlink:href="#TimesNewRomanPSMT-30"/>
       <use x="50" xlink:href="#TimesNewRomanPSMT-2e"/>
       <use x="75" xlink:href="#TimesNewRomanPSMT-30"/>
       <use x="125" xlink:href="#TimesNewRomanPSMT-30"/>
      </g>
     </g>
    </g>
    <g id="ytick_4">
     <g id="line2d_19">
      <path clip-path="url(#p181121cd9d)" d="M 63.336875 89.796676 
L 398.136875 89.796676 
" style="fill:none;stroke:#000000;stroke-dasharray:0.5,0.825;stroke-dashoffset:0;stroke-width:0.5;"/>
     </g>
     <g id="line2d_20">
      <g>
       <use style="stroke:#000000;stroke-width:0.8;" x="63.336875" xlink:href="#m1a66438f44" y="89.796676"/>
      </g>
     </g>
     <g id="text_11">
      <!-- 0.02 -->
      <g transform="translate(31.836875 94.657301)scale(0.14 -0.14)">
       <use xlink:href="#TimesNewRomanPSMT-30"/>
       <use x="50" xlink:href="#TimesNewRomanPSMT-2e"/>
       <use x="75" xlink:href="#TimesNewRomanPSMT-30"/>
       <use x="125" xlink:href="#TimesNewRomanPSMT-32"/>
      </g>
     </g>
    </g>
    <g id="ytick_5">
     <g id="line2d_21">
      <path clip-path="url(#p181121cd9d)" d="M 63.336875 25.370576 
L 398.136875 25.370576 
" style="fill:none;stroke:#000000;stroke-dasharray:0.5,0.825;stroke-dashoffset:0;stroke-width:0.5;"/>
     </g>
     <g id="line2d_22">
      <g>
       <use style="stroke:#000000;stroke-width:0.8;" x="63.336875" xlink:href="#m1a66438f44" y="25.370576"/>
      </g>
     </g>
     <g id="text_12">
      <!-- 0.04 -->
      <g transform="translate(31.836875 30.231201)scale(0.14 -0.14)">
       <use xlink:href="#TimesNewRomanPSMT-30"/>
       <use x="50" xlink:href="#TimesNewRomanPSMT-2e"/>
       <use x="75" xlink:href="#TimesNewRomanPSMT-30"/>
       <use x="125" xlink:href="#TimesNewRomanPSMT-34"/>
      </g>
     </g>
    </g>
    <g id="text_13">
     <!-- Volatage (V) -->
     <g transform="translate(16.92125 209.352344)rotate(-90)scale(0.14 -0.14)">
      <defs>
       <path d="M 4544 4238 
L 4544 4122 
Q 4319 4081 4203 3978 
Q 4038 3825 3909 3509 
L 2431 -97 
L 2316 -97 
L 728 3556 
Q 606 3838 556 3900 
Q 478 3997 364 4051 
Q 250 4106 56 4122 
L 56 4238 
L 1788 4238 
L 1788 4122 
Q 1494 4094 1406 4022 
Q 1319 3950 1319 3838 
Q 1319 3681 1463 3350 
L 2541 866 
L 3541 3319 
Q 3688 3681 3688 3822 
Q 3688 3913 3597 3995 
Q 3506 4078 3291 4113 
Q 3275 4116 3238 4122 
L 3238 4238 
L 4544 4238 
z
" id="TimesNewRomanPSMT-56" transform="scale(0.015625)"/>
       <path d="M 1600 2947 
Q 2250 2947 2644 2453 
Q 2978 2031 2978 1484 
Q 2978 1100 2793 706 
Q 2609 313 2286 112 
Q 1963 -88 1566 -88 
Q 919 -88 538 428 
Q 216 863 216 1403 
Q 216 1797 411 2186 
Q 606 2575 925 2761 
Q 1244 2947 1600 2947 
z
M 1503 2744 
Q 1338 2744 1170 2645 
Q 1003 2547 900 2300 
Q 797 2053 797 1666 
Q 797 1041 1045 587 
Q 1294 134 1700 134 
Q 2003 134 2200 384 
Q 2397 634 2397 1244 
Q 2397 2006 2069 2444 
Q 1847 2744 1503 2744 
z
" id="TimesNewRomanPSMT-6f" transform="scale(0.015625)"/>
       <path d="M 1184 4444 
L 1184 647 
Q 1184 378 1223 290 
Q 1263 203 1344 158 
Q 1425 113 1647 113 
L 1647 0 
L 244 0 
L 244 113 
Q 441 113 512 153 
Q 584 194 625 287 
Q 666 381 666 647 
L 666 3247 
Q 666 3731 644 3842 
Q 622 3953 573 3993 
Q 525 4034 450 4034 
Q 369 4034 244 3984 
L 191 4094 
L 1044 4444 
L 1184 4444 
z
" id="TimesNewRomanPSMT-6c" transform="scale(0.015625)"/>
       <path d="M 1822 413 
Q 1381 72 1269 19 
Q 1100 -59 909 -59 
Q 613 -59 420 144 
Q 228 347 228 678 
Q 228 888 322 1041 
Q 450 1253 767 1440 
Q 1084 1628 1822 1897 
L 1822 2009 
Q 1822 2438 1686 2597 
Q 1550 2756 1291 2756 
Q 1094 2756 978 2650 
Q 859 2544 859 2406 
L 866 2225 
Q 866 2081 792 2003 
Q 719 1925 600 1925 
Q 484 1925 411 2006 
Q 338 2088 338 2228 
Q 338 2497 613 2722 
Q 888 2947 1384 2947 
Q 1766 2947 2009 2819 
Q 2194 2722 2281 2516 
Q 2338 2381 2338 1966 
L 2338 994 
Q 2338 584 2353 492 
Q 2369 400 2405 369 
Q 2441 338 2488 338 
Q 2538 338 2575 359 
Q 2641 400 2828 588 
L 2828 413 
Q 2478 -56 2159 -56 
Q 2006 -56 1915 50 
Q 1825 156 1822 413 
z
M 1822 616 
L 1822 1706 
Q 1350 1519 1213 1441 
Q 966 1303 859 1153 
Q 753 1003 753 825 
Q 753 600 887 451 
Q 1022 303 1197 303 
Q 1434 303 1822 616 
z
" id="TimesNewRomanPSMT-61" transform="scale(0.015625)"/>
       <path d="M 1031 3803 
L 1031 2863 
L 1700 2863 
L 1700 2644 
L 1031 2644 
L 1031 788 
Q 1031 509 1111 412 
Q 1191 316 1316 316 
Q 1419 316 1516 380 
Q 1613 444 1666 569 
L 1788 569 
Q 1678 263 1478 108 
Q 1278 -47 1066 -47 
Q 922 -47 784 33 
Q 647 113 581 261 
Q 516 409 516 719 
L 516 2644 
L 63 2644 
L 63 2747 
Q 234 2816 414 2980 
Q 594 3144 734 3369 
Q 806 3488 934 3803 
L 1031 3803 
z
" id="TimesNewRomanPSMT-74" transform="scale(0.015625)"/>
       <path d="M 966 1044 
Q 703 1172 562 1401 
Q 422 1631 422 1909 
Q 422 2334 742 2640 
Q 1063 2947 1563 2947 
Q 1972 2947 2272 2747 
L 2878 2747 
Q 3013 2747 3034 2739 
Q 3056 2731 3066 2713 
Q 3084 2684 3084 2613 
Q 3084 2531 3069 2500 
Q 3059 2484 3036 2475 
Q 3013 2466 2878 2466 
L 2506 2466 
Q 2681 2241 2681 1891 
Q 2681 1491 2375 1206 
Q 2069 922 1553 922 
Q 1341 922 1119 984 
Q 981 866 932 777 
Q 884 688 884 625 
Q 884 572 936 522 
Q 988 472 1138 450 
Q 1225 438 1575 428 
Q 2219 413 2409 384 
Q 2700 344 2873 169 
Q 3047 -6 3047 -263 
Q 3047 -616 2716 -925 
Q 2228 -1381 1444 -1381 
Q 841 -1381 425 -1109 
Q 191 -953 191 -784 
Q 191 -709 225 -634 
Q 278 -519 444 -313 
Q 466 -284 763 25 
Q 600 122 533 198 
Q 466 275 466 372 
Q 466 481 555 628 
Q 644 775 966 1044 
z
M 1509 2797 
Q 1278 2797 1122 2612 
Q 966 2428 966 2047 
Q 966 1553 1178 1281 
Q 1341 1075 1591 1075 
Q 1828 1075 1981 1253 
Q 2134 1431 2134 1813 
Q 2134 2309 1919 2591 
Q 1759 2797 1509 2797 
z
M 934 0 
Q 788 -159 713 -296 
Q 638 -434 638 -550 
Q 638 -700 819 -813 
Q 1131 -1006 1722 -1006 
Q 2284 -1006 2551 -807 
Q 2819 -609 2819 -384 
Q 2819 -222 2659 -153 
Q 2497 -84 2016 -72 
Q 1313 -53 934 0 
z
" id="TimesNewRomanPSMT-67" transform="scale(0.015625)"/>
      </defs>
      <use xlink:href="#TimesNewRomanPSMT-56"/>
      <use x="59.341797" xlink:href="#TimesNewRomanPSMT-6f"/>
      <use x="109.341797" xlink:href="#TimesNewRomanPSMT-6c"/>
      <use x="137.125" xlink:href="#TimesNewRomanPSMT-61"/>
      <use x="181.509766" xlink:href="#TimesNewRomanPSMT-74"/>
      <use x="209.292969" xlink:href="#TimesNewRomanPSMT-61"/>
      <use x="253.677734" xlink:href="#TimesNewRomanPSMT-67"/>
      <use x="303.677734" xlink:href="#TimesNewRomanPSMT-65"/>
      <use x="348.0625" xlink:href="#TimesNewRomanPSMT-20"/>
      <use x="373.0625" xlink:href="#TimesNewRomanPSMT-28"/>
      <use x="406.363281" xlink:href="#TimesNewRomanPSMT-56"/>
      <use x="478.580078" xlink:href="#TimesNewRomanPSMT-29"/>
     </g>
    </g>
   </g>
   <g id="LineCollection_1">
    <path clip-path="url(#p181121cd9d)" d="M 78.555057 154.222776 
L 382.918693 154.222776 
" style="fill:none;stroke:#1f77b4;stroke-width:1.5;"/>
   </g>
   <g id="line2d_23">
    <path clip-path="url(#p181121cd9d)" d="M 78.555057 154.353238 
L 78.676802 154.272706 
L 78.707239 154.312972 
L 80.776911 154.23244 
L 80.837784 154.192173 
L 80.86822 154.272706 
L 81.355202 154.192173 
L 81.476948 154.192173 
L 81.598693 154.23244 
L 81.750875 154.192173 
L 89.177348 154.111641 
L 89.268657 154.071374 
L 89.299093 154.111641 
L 89.420839 154.151907 
L 89.542584 154.111641 
L 89.66433 154.151907 
L 89.846948 154.071374 
L 89.968693 154.111641 
L 90.090439 154.111641 
L 99.343093 154.031108 
L 99.37353 153.990842 
L 99.434402 154.071374 
L 99.982257 154.031108 
L 100.012693 153.950575 
L 100.073566 153.990842 
L 100.225748 154.031108 
L 101.321457 153.950575 
L 101.443202 153.870043 
L 101.534511 153.990842 
L 101.564948 153.910309 
L 101.595384 153.990842 
L 101.656257 153.950575 
L 101.747566 153.910309 
L 101.778002 153.990842 
L 101.838875 153.950575 
L 101.930184 153.870043 
L 101.96062 153.950575 
L 105.491239 153.870043 
L 105.582548 153.870043 
L 105.73473 153.910309 
L 105.765166 153.829776 
L 105.856475 153.870043 
L 110.42193 153.950575 
L 110.574111 154.031108 
L 110.726293 153.950575 
L 110.908911 154.071374 
L 111.030657 154.031108 
L 111.152402 154.031108 
L 111.882875 154.111641 
L 112.035057 154.151907 
L 112.735093 154.192173 
L 112.856839 154.272706 
L 113.00902 154.23244 
L 113.191639 154.312972 
L 113.313384 154.312972 
L 113.496002 154.393505 
L 113.617748 154.393505 
L 113.922111 154.474037 
L 114.074293 154.514304 
L 114.591711 154.594836 
L 114.713457 154.675369 
L 114.743893 154.635103 
L 114.865639 154.675369 
L 114.896075 154.755902 
L 114.987384 154.715635 
L 115.170002 154.796168 
L 115.322184 154.755902 
L 115.413493 154.836434 
L 115.44393 154.796168 
L 115.626548 154.876701 
L 115.748293 154.876701 
L 116.02222 154.916967 
L 116.174402 155.037766 
L 116.326584 154.997499 
L 116.478766 155.118298 
L 116.509202 155.078032 
L 116.630948 155.078032 
L 117.02662 155.158565 
L 117.178802 155.198831 
L 117.483166 155.279364 
L 117.665784 155.359896 
L 117.817966 155.31963 
L 118.061457 155.359896 
L 118.152766 155.440429 
L 118.183202 155.400163 
L 118.396257 155.520962 
L 118.518002 155.480695 
L 118.761493 155.64176 
L 119.096293 155.722293 
L 119.278911 155.802826 
L 119.309348 155.762559 
L 119.339784 155.802826 
L 119.46153 155.923625 
L 119.583275 155.883358 
L 119.735457 156.004157 
L 119.79633 156.08469 
L 119.978948 156.205489 
L 120.100693 156.205489 
L 120.283311 156.245755 
L 120.435493 156.40682 
L 120.46593 156.366554 
L 120.496366 156.447087 
L 120.770293 156.688685 
L 120.80073 156.648418 
L 120.831166 156.728951 
L 122.231239 158.742267 
L 124.331348 164.580882 
L 126.644511 174.20453 
L 128.014148 180.929004 
L 128.135893 181.452466 
L 128.531566 183.344985 
L 129.231602 186.566287 
L 129.688148 188.418539 
L 129.870766 189.143332 
L 130.266439 190.713719 
L 130.327311 190.874784 
L 130.631675 191.921708 
L 131.057784 193.169964 
L 132.001311 195.384611 
L 132.09262 195.424877 
L 132.275239 195.626209 
L 132.336111 195.585942 
L 132.366548 195.666475 
L 132.640475 195.747008 
L 132.792657 195.787274 
L 133.036148 195.706741 
L 133.18833 195.50541 
L 133.218766 195.545676 
L 133.279639 195.465144 
L 133.675311 194.780616 
L 133.949239 194.136355 
L 134.070984 193.814225 
L 134.10142 193.854491 
L 134.314475 193.290763 
L 134.466657 192.928366 
L 135.044948 191.116382 
L 136.079784 186.566287 
L 136.627639 183.103386 
L 137.44942 176.942639 
L 138.606002 166.876062 
L 139.54953 157.131614 
L 141.22353 135.951534 
L 146.428148 61.821256 
L 147.462984 49.54003 
L 148.92393 35.205223 
L 150.019639 27.393555 
L 151.26753 22.803193 
L 151.389275 22.722657 
L 151.693639 22.481068 
L 151.84582 22.400533 
L 151.998002 22.32 
L 152.150184 22.36026 
L 152.302366 22.400533 
L 152.454548 22.561601 
L 152.51542 22.642137 
L 152.880657 23.286395 
L 153.550257 25.33997 
L 154.037239 27.715679 
L 155.132948 35.688413 
L 156.106911 45.634198 
L 158.115711 73.659548 
L 159.515784 99.63132 
L 161.615893 144.367193 
L 163.015966 176.258112 
L 164.385602 207.907431 
L 165.755239 237.986373 
L 168.037966 281.111584 
L 168.890184 293.916271 
L 169.985893 307.002823 
L 171.294657 318.156594 
L 171.964257 321.861098 
L 172.26862 322.988549 
L 172.390366 323.310686 
L 172.725166 324.196548 
L 172.755602 324.196548 
L 172.968657 324.63948 
L 173.333893 324.558944 
L 173.516511 324.357603 
L 173.94262 323.63281 
L 174.70353 321.377906 
L 176.225348 312.760915 
L 176.773202 308.45241 
L 178.508075 291.379493 
L 179.086366 284.091294 
L 180.212511 269.3941 
L 181.64302 249.099872 
L 182.860475 230.053906 
L 188.156402 147.709297 
L 189.191239 134.220082 
L 193.239275 87.269562 
L 194.304548 78.410973 
L 197.04382 57.553027 
L 198.017784 51.835207 
L 198.504766 49.821895 
L 200.270075 43.218216 
L 200.361384 42.936352 
L 200.635311 42.292094 
L 200.970111 41.688093 
L 201.48753 40.560643 
L 201.548402 40.480107 
L 201.944075 40.11771 
L 202.218002 40.198246 
L 202.339748 40.198246 
L 202.704984 40.11771 
L 202.918039 39.996918 
L 203.131093 40.077437 
L 203.587639 40.52037 
L 203.770257 40.600903 
L 203.892002 40.721711 
L 203.983311 40.681438 
L 204.013748 40.721711 
L 204.196366 40.802231 
L 204.74422 41.647833 
L 204.957275 42.090763 
L 205.352948 42.775283 
L 206.722584 46.157651 
L 206.75302 46.157651 
L 207.057384 46.92272 
L 207.17913 47.244844 
L 207.483493 48.291772 
L 208.18353 50.38562 
L 208.609639 52.076811 
L 209.76622 57.069828 
L 210.314075 59.969002 
L 210.953239 62.787644 
L 211.409784 65.002294 
L 211.77502 67.055873 
L 211.927202 67.700134 
L 212.809857 72.934755 
L 214.149057 82.518137 
L 215.275202 92.302854 
L 219.840657 141.790149 
L 222.397311 173.479736 
L 223.706075 190.91505 
L 226.567093 227.3158 
L 229.458548 260.454972 
L 230.767311 271.568468 
L 231.86302 278.131886 
L 231.923893 278.373478 
L 233.445711 283.970498 
L 234.328366 284.977156 
L 234.450111 284.977156 
L 234.571857 284.936896 
L 234.784911 284.655019 
L 235.058839 284.171827 
L 235.271893 283.728897 
L 235.515384 283.245705 
L 236.032802 281.635049 
L 237.432875 273.662316 
L 238.376402 265.931187 
L 239.046002 259.770451 
L 241.359166 234.161067 
L 246.198548 168.688046 
L 247.811675 144.810122 
L 250.94662 104.785405 
L 251.768402 97.215341 
L 253.107602 87.470894 
L 253.868511 83.081869 
L 254.020693 82.477868 
L 254.325057 81.149082 
L 255.39033 77.323783 
L 255.481639 77.082188 
L 255.786002 76.236592 
L 255.816439 76.236592 
L 256.029493 75.632601 
L 256.577348 74.464875 
L 256.668657 74.384342 
L 256.881711 74.263546 
L 257.094766 74.22328 
L 257.186075 74.142744 
L 257.216511 74.18301 
L 257.429566 74.062211 
L 257.551311 74.062211 
L 257.825239 74.142744 
L 257.946984 74.303806 
L 257.97742 74.263546 
L 258.433966 74.746739 
L 258.525275 74.746739 
L 258.707893 74.867538 
L 258.73833 74.787005 
L 258.799202 74.867538 
L 259.012257 74.948074 
L 259.560111 75.511799 
L 259.712293 75.592331 
L 260.047093 75.874196 
L 260.138402 75.954728 
L 260.838439 77.041922 
L 261.234111 77.847242 
L 261.264548 77.847242 
L 261.568911 78.612305 
L 262.116766 80.303487 
L 262.482002 81.672548 
L 262.725493 82.558403 
L 263.33422 85.215983 
L 263.912511 87.913823 
L 264.399493 90.450601 
L 264.521239 91.054595 
L 265.76913 98.221999 
L 266.499602 103.174755 
L 266.925711 105.953131 
L 269.299748 123.911906 
L 270.45633 132.287299 
L 272.70862 149.279683 
L 274.04782 157.413478 
L 275.173966 162.809164 
L 276.878402 169.211508 
L 276.908839 169.211508 
L 277.15233 170.016835 
L 277.274075 170.338965 
L 277.548002 171.265089 
L 279.374184 175.815183 
L 279.435057 175.895715 
L 279.678548 176.258112 
L 281.139493 178.02983 
L 281.200366 178.070097 
L 281.382984 178.311694 
L 281.443857 178.35196 
L 281.596039 178.47276 
L 281.687348 178.513027 
L 281.809093 178.593559 
L 282.08302 178.674092 
L 282.204766 178.714357 
L 282.296075 178.714357 
L 282.448257 178.79489 
L 282.478693 178.754624 
L 282.50913 178.875423 
L 282.539566 178.835156 
L 282.661311 178.875423 
L 282.783057 178.875423 
L 283.08742 178.835156 
L 283.209166 178.674092 
L 283.239602 178.754624 
L 283.300475 178.674092 
L 283.42222 178.593559 
L 283.604839 178.47276 
L 283.635275 178.513027 
L 283.665711 178.47276 
L 283.787457 178.392227 
L 283.909202 178.35196 
L 284.061384 178.190895 
L 284.122257 178.110363 
L 284.730984 177.425836 
L 284.76142 177.466101 
L 284.791857 177.425836 
L 285.004911 177.143971 
L 285.126657 177.063439 
L 285.796257 176.05678 
L 285.978875 175.73465 
L 286.344111 175.090389 
L 286.800657 174.164265 
L 286.891966 174.083732 
L 287.074584 173.640803 
L 287.135457 173.56027 
L 287.409384 173.036807 
L 287.77462 172.312014 
L 287.835493 172.231482 
L 288.078984 171.869085 
L 289.20513 170.540297 
L 289.78342 170.459764 
L 289.935602 170.37923 
L 289.966039 170.459764 
L 290.026911 170.419497 
L 290.179093 170.37923 
L 290.392148 170.459764 
L 291.609602 172.231482 
L 293.070548 176.338645 
L 293.344475 177.224504 
L 294.257566 179.922347 
L 294.531493 180.848472 
L 295.322839 183.224184 
L 295.779384 184.593241 
L 297.057711 187.734012 
L 297.118584 187.814543 
L 297.605566 188.821202 
L 299.005639 190.512387 
L 299.036075 190.472121 
L 299.096948 190.552653 
L 299.218693 190.59292 
L 299.401311 190.512387 
L 299.675239 190.59292 
L 299.949166 190.794251 
L 299.979602 190.753985 
L 300.010039 190.834518 
L 300.192657 190.91505 
L 300.375275 190.834518 
L 300.405711 190.874784 
L 300.436148 190.794251 
L 300.801384 190.472121 
L 301.044875 190.391588 
L 301.197057 190.351322 
L 301.440548 190.270789 
L 301.653602 189.988925 
L 301.714475 189.908392 
L 302.50582 189.022534 
L 302.566693 189.022534 
L 302.718875 188.861468 
L 304.332002 186.566287 
L 306.249493 181.291401 
L 306.52342 180.163945 
L 307.558257 175.613851 
L 310.754075 158.138272 
L 312.428075 146.340242 
L 313.341166 139.978164 
L 313.98033 136.032066 
L 314.619493 131.84437 
L 315.958693 123.670308 
L 316.56742 120.8114 
L 317.23702 117.791427 
L 317.602257 116.583437 
L 317.967493 115.214383 
L 318.210984 114.288258 
L 318.545784 113.040002 
L 319.093639 111.30855 
L 319.854548 108.731507 
L 319.976293 108.409376 
L 321.132875 105.631 
L 322.045966 104.261946 
L 322.319893 103.819016 
L 323.659093 101.886237 
L 323.93302 101.443304 
L 324.480875 100.879572 
L 324.541748 100.839312 
L 324.754802 100.517176 
L 324.785239 100.557442 
L 324.846111 100.476916 
L 324.998293 100.436649 
L 325.150475 100.275581 
L 325.454839 100.356114 
L 325.69833 100.517176 
L 325.728766 100.476916 
L 325.789639 100.557442 
L 325.911384 100.637978 
L 326.794039 101.966763 
L 327.494075 103.577419 
L 327.524511 103.577419 
L 327.70713 104.100877 
L 328.163675 105.469932 
L 328.772402 107.362452 
L 329.807239 111.912545 
L 333.246548 130.63638 
L 333.672657 133.132892 
L 334.616184 138.689643 
L 335.40753 143.19947 
L 337.75113 155.037766 
L 338.298984 157.655076 
L 339.546875 163.695023 
L 339.699057 164.339284 
L 340.033857 165.869404 
L 341.373057 170.741627 
L 342.01222 172.714677 
L 342.225275 173.358938 
L 342.316584 173.640803 
L 343.990584 177.788233 
L 344.264511 178.311694 
L 344.568875 178.835156 
L 345.512402 179.922347 
L 345.603711 180.00288 
L 346.090693 180.526342 
L 346.12113 180.486075 
L 346.151566 180.606874 
L 346.182002 180.566607 
L 346.395057 180.848472 
L 347.429893 182.056462 
L 347.551639 182.136993 
L 347.886439 182.418859 
L 348.03862 182.49939 
L 348.282111 182.660455 
L 348.403857 182.660455 
L 349.256075 182.579924 
L 349.37782 182.579924 
L 349.895239 182.49939 
L 350.108293 182.378592 
L 350.443093 182.298058 
L 350.534402 182.298058 
L 350.625711 182.298058 
L 350.777893 182.257794 
L 350.899639 182.257794 
L 351.05182 182.217527 
L 351.204002 182.136993 
L 351.47793 181.935664 
L 351.599675 181.85513 
L 351.904039 181.613531 
L 352.025784 181.533 
L 354.552002 178.35196 
L 354.643311 178.311694 
L 354.82593 178.070097 
L 354.978111 177.989565 
L 355.130293 177.828498 
L 355.343348 177.627168 
L 355.373784 177.667433 
L 355.434657 177.586901 
L 355.617275 177.466101 
L 355.647711 177.506368 
L 355.678148 177.425836 
L 355.860766 177.305036 
L 355.982511 177.305036 
L 356.16513 177.224504 
L 356.378184 177.143971 
L 356.530366 177.063439 
L 356.621675 177.063439 
L 356.804293 176.942639 
L 356.83473 177.023172 
L 356.895602 176.942639 
L 357.139093 176.902374 
L 357.260839 176.821841 
L 357.291275 176.902374 
L 357.352148 176.821841 
L 357.83913 176.741309 
L 358.052184 176.620509 
L 358.265239 176.539977 
L 358.478293 176.419177 
L 358.569602 176.338645 
L 358.75222 176.258112 
L 358.934839 176.17758 
L 359.208766 175.976248 
L 359.391384 175.895715 
L 359.543566 175.73465 
L 359.574002 175.774917 
L 359.604439 175.654118 
L 359.817493 175.573585 
L 360.000111 175.452786 
L 360.121857 175.452786 
L 360.487093 175.130656 
L 360.578402 175.050123 
L 361.400184 174.123998 
L 361.461057 174.043465 
L 361.948039 173.278406 
L 362.161093 172.835476 
L 362.739384 171.90935 
L 363.135057 171.144291 
L 363.348111 170.741627 
L 363.591602 170.218165 
L 363.804657 169.815503 
L 364.017711 169.372573 
L 364.352511 168.768578 
L 364.687311 168.164584 
L 364.717748 168.164584 
L 364.900366 167.842453 
L 366.54393 165.829138 
L 366.635239 165.788871 
L 366.817857 165.58754 
L 366.909166 165.507007 
L 367.21353 165.265409 
L 367.243966 165.305675 
L 367.304839 165.225143 
L 367.79182 164.741947 
L 367.974439 164.661414 
L 368.21793 164.50035 
L 368.46142 164.419816 
L 368.79622 164.137953 
L 368.88753 164.097686 
L 369.070148 163.896355 
L 369.100584 163.936621 
L 369.161457 163.856088 
L 369.283202 163.775556 
L 369.404948 163.695023 
L 369.435384 163.775556 
L 369.496257 163.695023 
L 369.648439 163.614491 
L 369.861493 163.453425 
L 369.952802 163.453425 
L 370.531093 162.849431 
L 370.591966 162.768898 
L 373.939966 158.218804 
L 374.15302 157.775875 
L 374.366075 157.332946 
L 374.944366 156.08469 
L 375.005239 156.004157 
L 377.59233 148.957552 
L 377.774948 148.434091 
L 379.357639 143.96453 
L 379.84462 142.474676 
L 380.453348 140.58216 
L 380.757711 139.535235 
L 381.244693 138.045382 
L 381.701239 136.595795 
L 381.975166 135.66967 
L 382.675202 133.535555 
L 382.918693 132.810761 
L 382.918693 132.810761 
" style="fill:none;stroke:#0000ff;stroke-linecap:square;stroke-width:1.5;"/>
   </g>
   <g id="line2d_24">
    <path clip-path="url(#p181121cd9d)" d="M 78.555057 154.289618 
L 82.359602 154.188952 
L 82.54222 154.188952 
L 91.33833 154.088286 
L 91.520948 154.088286 
L 94.655893 153.98762 
L 94.868948 153.947354 
L 94.990693 153.967487 
L 95.173311 153.967487 
L 95.325493 153.967487 
L 95.538548 153.947354 
L 100.256184 154.04802 
L 100.469239 154.148686 
L 101.778002 155.13521 
L 102.72153 156.564664 
L 103.512875 158.376648 
L 105.521675 165.382987 
L 110.148002 186.301337 
L 111.182839 189.341443 
L 111.365457 189.764239 
L 112.09593 190.972228 
L 112.856839 191.797688 
L 113.282948 191.737288 
L 113.465566 191.596356 
L 113.891675 191.213826 
L 114.956948 188.858247 
L 115.991784 185.073215 
L 117.391857 177.100483 
L 119.522402 160.792628 
L 124.787893 113.036781 
L 125.73142 106.412972 
L 127.131493 98.722107 
L 127.374984 97.554384 
L 128.135893 94.111611 
L 129.17073 90.447379 
L 129.292475 90.125252 
L 129.657711 89.299793 
L 129.901202 89.017922 
L 130.357748 88.595129 
L 131.149093 88.172336 
L 131.575202 88.333395 
L 131.84913 88.232732 
L 132.640475 87.809936 
L 133.705748 88.393801 
L 133.888366 88.494463 
L 134.19273 88.816594 
L 134.984075 89.682319 
L 135.258002 89.742716 
L 135.44062 89.823252 
L 136.749384 91.373505 
L 137.053748 91.695632 
L 137.327675 92.219097 
L 137.905966 93.44722 
L 138.11902 93.890152 
L 138.666875 95.621604 
L 139.79302 100.997153 
L 140.493057 104.762053 
L 142.106184 113.882373 
L 143.049711 120.143785 
L 145.606366 139.552147 
L 146.032475 142.733186 
L 149.50222 171.624265 
L 150.476184 179.516462 
L 151.328402 185.898673 
L 152.363239 193.247275 
L 153.885057 201.662934 
L 154.128548 202.58906 
L 154.706839 204.76344 
L 155.498184 207.038484 
L 156.746075 208.508211 
L 157.354802 208.407545 
L 157.750475 208.266606 
L 157.841784 208.226346 
L 158.115711 207.924346 
L 158.54182 207.199552 
L 158.907057 206.515025 
L 159.698402 205.307036 
L 160.428875 203.67625 
L 161.189784 201.924665 
L 162.072439 199.367755 
L 162.22462 199.005358 
L 163.65513 193.891536 
L 164.32473 190.931962 
L 166.24222 182.576703 
L 167.733602 177.100483 
L 168.190148 176.194492 
L 169.316293 174.885836 
L 169.498911 174.845571 
L 169.711966 174.946237 
L 169.772839 174.926103 
L 169.803275 174.966369 
L 170.68593 175.671029 
L 171.233784 176.979685 
L 171.568584 177.885676 
L 171.720766 178.248073 
L 172.60342 181.549913 
L 173.486075 185.475875 
L 175.525311 196.85111 
L 176.773202 205.14597 
L 177.534111 210.320195 
L 179.238548 221.937019 
L 180.669057 228.037372 
L 181.947384 231.117739 
L 182.31262 231.621074 
L 182.556111 231.902938 
L 182.890911 232.164663 
L 183.195275 232.084137 
L 184.017057 230.211747 
L 184.443166 228.802426 
L 184.99102 226.205249 
L 185.782366 220.890095 
L 186.786766 211.306713 
L 188.125966 194.99886 
L 190.134766 165.564185 
L 193.056657 115.33196 
L 195.339384 80.823731 
L 196.556839 66.911723 
L 197.287311 59.905378 
L 198.656948 49.053607 
L 200.787493 37.013986 
L 201.304911 35.141602 
L 201.639711 34.517468 
L 201.852766 34.25574 
L 202.339748 33.792675 
L 202.674548 33.692015 
L 202.82673 33.772548 
L 204.287675 35.886523 
L 204.74422 37.396506 
L 205.718184 42.369406 
L 208.548766 63.750814 
L 210.892366 82.957845 
L 211.805457 90.366847 
L 212.748984 98.097979 
L 216.46222 125.921999 
L 217.497057 133.874597 
L 221.118984 159.423573 
L 223.219093 172.61079 
L 224.132184 178.006475 
L 224.92353 182.959233 
L 225.654002 187.106662 
L 226.50622 191.55609 
L 227.084511 194.354599 
L 229.51942 203.575584 
L 229.915093 204.521843 
L 231.315166 207.05862 
L 232.076075 208.246476 
L 235.728439 215.736011 
L 236.032802 216.239339 
L 238.072039 218.755981 
L 238.954693 219.21905 
L 239.076439 219.198913 
L 239.22862 219.178783 
L 239.776475 219.078111 
L 240.080839 218.997585 
L 240.263457 218.997585 
L 240.415639 218.977449 
L 240.65913 219.017715 
L 240.780875 219.037851 
L 241.054802 219.098248 
L 241.450475 219.198913 
L 241.724402 219.25931 
L 242.24182 219.359982 
L 242.515748 219.440508 
L 242.637493 219.480774 
L 242.880984 219.58144 
L 243.611457 220.165302 
L 243.885384 220.608234 
L 244.494111 221.594759 
L 247.35513 227.030708 
L 248.389966 228.218571 
L 248.846511 228.399769 
L 249.02913 228.339363 
L 249.27262 228.278967 
L 249.394366 228.258837 
L 249.729166 228.138035 
L 249.820475 228.117898 
L 251.524911 225.68179 
L 251.95102 224.594599 
L 253.38153 218.494256 
L 254.29462 213.098567 
L 255.420766 204.924506 
L 255.999057 199.971749 
L 258.342657 175.630763 
L 260.199275 152.236036 
L 262.573311 119.398858 
L 264.00382 99.265702 
L 266.743093 66.227196 
L 267.44313 59.180591 
L 268.234475 52.41585 
L 268.843202 48.087222 
L 269.725857 42.973394 
L 270.243275 41.10101 
L 271.065057 39.20849 
L 271.36942 38.966902 
L 272.282511 39.067561 
L 272.556439 39.369559 
L 272.891239 39.97356 
L 273.956511 43.094199 
L 274.352184 44.785378 
L 274.900039 47.845621 
L 276.48273 59.019523 
L 277.913239 71.260478 
L 281.261239 105.527113 
L 283.300475 126.848125 
L 284.85273 143.055317 
L 289.844293 188.314652 
L 290.666075 194.455264 
L 291.244366 198.481896 
L 292.400948 206.112362 
L 294.166257 214.910554 
L 295.748948 218.79625 
L 296.509857 219.984103 
L 296.90553 220.567968 
L 296.996839 220.628371 
L 297.209893 220.809569 
L 297.453384 220.950501 
L 297.849057 221.111563 
L 298.001239 221.091433 
L 298.183857 221.091433 
L 299.15782 220.32637 
L 300.25353 218.695584 
L 300.953566 217.084935 
L 301.440548 215.595078 
L 301.83622 214.246157 
L 303.388475 207.642485 
L 304.423311 200.837475 
L 307.801748 174.905969 
L 308.319166 171.181335 
L 309.567057 162.886476 
L 310.997566 155.880137 
L 312.062839 151.209245 
L 312.702002 148.773133 
L 315.684766 137.377767 
L 316.384802 135.223519 
L 317.267457 132.666608 
L 317.510948 131.982081 
L 317.99793 130.451961 
L 318.302293 129.606369 
L 318.728402 128.559445 
L 318.819711 128.378247 
L 319.032766 127.915182 
L 319.67193 126.163598 
L 320.280657 124.714011 
L 321.102439 122.257766 
L 321.437239 121.351774 
L 321.68073 120.868578 
L 322.076402 119.942453 
L 322.532948 118.794863 
L 323.111239 117.566741 
L 323.232984 117.365409 
L 323.811275 116.117154 
L 323.993893 115.694357 
L 324.69393 114.144104 
L 325.150475 112.996514 
L 327.189711 107.902826 
L 327.920184 106.694836 
L 328.407166 105.869377 
L 329.015893 104.902986 
L 329.837675 103.996994 
L 331.05513 103.312466 
L 331.663857 103.413132 
L 332.576948 104.117792 
L 332.942184 104.600985 
L 334.06833 106.27204 
L 334.616184 107.600828 
L 335.07273 108.969883 
L 336.685857 114.687699 
L 337.264148 116.841947 
L 337.507639 117.768072 
L 338.694657 122.902027 
L 340.733893 134.257128 
L 344.568875 160.349698 
L 345.45153 167.577501 
L 348.312548 189.421975 
L 350.838766 205.407701 
L 352.604075 214.185761 
L 353.699784 218.111723 
L 355.130293 221.594759 
L 355.617275 222.400088 
L 355.891202 222.822882 
L 356.16513 223.145012 
L 356.560802 223.285944 
L 357.291275 222.681949 
L 357.686948 222.138354 
L 357.960875 221.594759 
L 359.360948 217.608394 
L 359.84793 215.252815 
L 360.76102 209.857126 
L 361.613239 203.978247 
L 362.86113 194.99886 
L 363.956839 186.240936 
L 365.387348 174.020111 
L 367.000475 160.349698 
L 369.435384 138.827353 
L 370.957202 124.794545 
L 372.022475 115.915822 
L 374.853057 97.91678 
L 375.735711 94.333075 
L 377.318402 89.480991 
L 378.59673 87.185808 
L 378.961966 86.883807 
L 379.296766 86.763015 
L 379.570693 86.823411 
L 379.84462 86.924077 
L 380.088111 87.065006 
L 380.635966 87.548205 
L 381.366439 88.655525 
L 381.670802 89.299793 
L 382.309966 90.78964 
L 382.736075 92.037899 
L 382.918693 92.581494 
L 382.918693 92.581494 
" style="fill:none;stroke:#ff0000;stroke-linecap:square;stroke-width:1.5;"/>
   </g>
   <g id="line2d_25">
    <path clip-path="url(#p181121cd9d)" d="M 123.81393 162.889697 
" style="fill:none;stroke:#ffffff;stroke-linecap:square;stroke-width:1.5;"/>
    <defs>
     <path d="M 0 -5 
L -1.12257 -1.545085 
L -4.755283 -1.545085 
L -1.816356 0.59017 
L -2.938926 4.045085 
L -0 1.90983 
L 2.938926 4.045085 
L 1.816356 0.59017 
L 4.755283 -1.545085 
L 1.12257 -1.545085 
z
" id="mc8e354b71e" style="stroke:#ffffff;stroke-linejoin:bevel;"/>
    </defs>
    <g clip-path="url(#p181121cd9d)">
     <use style="fill:#0000ff;stroke:#ffffff;stroke-linejoin:bevel;" x="123.81393" xlink:href="#mc8e354b71e" y="162.889697"/>
    </g>
   </g>
   <g id="line2d_26">
    <path clip-path="url(#p181121cd9d)" d="M 104.152039 160.269165 
" style="fill:none;stroke:#ffffff;stroke-linecap:square;stroke-width:1.5;"/>
    <defs>
     <path d="M 0 -5 
L -1.12257 -1.545085 
L -4.755283 -1.545085 
L -1.816356 0.59017 
L -2.938926 4.045085 
L -0 1.90983 
L 2.938926 4.045085 
L 1.816356 0.59017 
L 4.755283 -1.545085 
L 1.12257 -1.545085 
z
" id="m1377c4b1c1" style="stroke:#ffffff;stroke-linejoin:bevel;"/>
    </defs>
    <g clip-path="url(#p181121cd9d)">
     <use style="fill:#ff0000;stroke:#ffffff;stroke-linejoin:bevel;" x="104.152039" xlink:href="#m1377c4b1c1" y="160.269165"/>
    </g>
   </g>
   <g id="patch_3">
    <path d="M 63.336875 339.84 
L 63.336875 7.2 
" style="fill:none;stroke:#000000;stroke-linecap:square;stroke-linejoin:miter;stroke-width:0.8;"/>
   </g>
   <g id="patch_4">
    <path d="M 398.136875 339.84 
L 398.136875 7.2 
" style="fill:none;stroke:#000000;stroke-linecap:square;stroke-linejoin:miter;stroke-width:0.8;"/>
   </g>
   <g id="patch_5">
    <path d="M 63.336875 339.84 
L 398.136875 339.84 
" style="fill:none;stroke:#000000;stroke-linecap:square;stroke-linejoin:miter;stroke-width:0.8;"/>
   </g>
   <g id="patch_6">
    <path d="M 63.336875 7.2 
L 398.136875 7.2 
" style="fill:none;stroke:#000000;stroke-linecap:square;stroke-linejoin:miter;stroke-width:0.8;"/>
   </g>
   <g id="text_14">
    <g id="patch_7">
     <path d="M 75.036875 331.242688 
L 166.79375 331.242688 
L 166.79375 293.760312 
L 75.036875 293.760312 
z
" style="fill:#ffffff;stroke:#000000;stroke-linejoin:miter;stroke-width:0.75;"/>
    </g>
    <!-- Auto_00158 -->
    <g transform="translate(80.076875 308.521563)scale(0.14 -0.14)">
     <defs>
      <path d="M 2928 1419 
L 1288 1419 
L 1000 750 
Q 894 503 894 381 
Q 894 284 986 211 
Q 1078 138 1384 116 
L 1384 0 
L 50 0 
L 50 116 
Q 316 163 394 238 
Q 553 388 747 847 
L 2238 4334 
L 2347 4334 
L 3822 809 
Q 4000 384 4145 257 
Q 4291 131 4550 116 
L 4550 0 
L 2878 0 
L 2878 116 
Q 3131 128 3220 200 
Q 3309 272 3309 375 
Q 3309 513 3184 809 
L 2928 1419 
z
M 2841 1650 
L 2122 3363 
L 1384 1650 
L 2841 1650 
z
" id="TimesNewRomanPSMT-41" transform="scale(0.015625)"/>
      <path d="M 2709 2863 
L 2709 1128 
Q 2709 631 2732 520 
Q 2756 409 2807 365 
Q 2859 322 2928 322 
Q 3025 322 3147 375 
L 3191 266 
L 2334 -88 
L 2194 -88 
L 2194 519 
Q 1825 119 1631 15 
Q 1438 -88 1222 -88 
Q 981 -88 804 51 
Q 628 191 559 409 
Q 491 628 491 1028 
L 491 2306 
Q 491 2509 447 2587 
Q 403 2666 317 2708 
Q 231 2750 6 2747 
L 6 2863 
L 1009 2863 
L 1009 947 
Q 1009 547 1148 422 
Q 1288 297 1484 297 
Q 1619 297 1789 381 
Q 1959 466 2194 703 
L 2194 2325 
Q 2194 2569 2105 2655 
Q 2016 2741 1734 2747 
L 1734 2863 
L 2709 2863 
z
" id="TimesNewRomanPSMT-75" transform="scale(0.015625)"/>
      <path d="M 3256 -1381 
L -53 -1381 
L -53 -1119 
L 3256 -1119 
L 3256 -1381 
z
" id="TimesNewRomanPSMT-5f" transform="scale(0.015625)"/>
      <path d="M 1228 2134 
Q 725 2547 579 2797 
Q 434 3047 434 3316 
Q 434 3728 753 4026 
Q 1072 4325 1600 4325 
Q 2113 4325 2425 4047 
Q 2738 3769 2738 3413 
Q 2738 3175 2569 2928 
Q 2400 2681 1866 2347 
Q 2416 1922 2594 1678 
Q 2831 1359 2831 1006 
Q 2831 559 2490 242 
Q 2150 -75 1597 -75 
Q 994 -75 656 303 
Q 388 606 388 966 
Q 388 1247 577 1523 
Q 766 1800 1228 2134 
z
M 1719 2469 
Q 2094 2806 2194 3001 
Q 2294 3197 2294 3444 
Q 2294 3772 2109 3958 
Q 1925 4144 1606 4144 
Q 1288 4144 1088 3959 
Q 888 3775 888 3528 
Q 888 3366 970 3203 
Q 1053 3041 1206 2894 
L 1719 2469 
z
M 1375 2016 
Q 1116 1797 991 1539 
Q 866 1281 866 981 
Q 866 578 1086 336 
Q 1306 94 1647 94 
Q 1984 94 2187 284 
Q 2391 475 2391 747 
Q 2391 972 2272 1150 
Q 2050 1481 1375 2016 
z
" id="TimesNewRomanPSMT-38" transform="scale(0.015625)"/>
     </defs>
     <use xlink:href="#TimesNewRomanPSMT-41"/>
     <use x="72.216797" xlink:href="#TimesNewRomanPSMT-75"/>
     <use x="122.216797" xlink:href="#TimesNewRomanPSMT-74"/>
     <use x="150" xlink:href="#TimesNewRomanPSMT-6f"/>
     <use x="200" xlink:href="#TimesNewRomanPSMT-5f"/>
     <use x="250" xlink:href="#TimesNewRomanPSMT-30"/>
     <use x="300" xlink:href="#TimesNewRomanPSMT-30"/>
     <use x="350" xlink:href="#TimesNewRomanPSMT-31"/>
     <use x="400" xlink:href="#TimesNewRomanPSMT-35"/>
     <use x="450" xlink:href="#TimesNewRomanPSMT-38"/>
    </g>
    <!-- Vs: 309.38m/s -->
    <g transform="translate(80.076875 323.208)scale(0.14 -0.14)">
     <defs>
      <path d="M 903 2950 
Q 1047 2950 1148 2848 
Q 1250 2747 1250 2603 
Q 1250 2459 1148 2357 
Q 1047 2256 903 2256 
Q 759 2256 657 2357 
Q 556 2459 556 2603 
Q 556 2747 657 2848 
Q 759 2950 903 2950 
z
M 897 609 
Q 1044 609 1145 506 
Q 1247 403 1247 259 
Q 1247 116 1144 14 
Q 1041 -88 897 -88 
Q 753 -88 651 14 
Q 550 116 550 259 
Q 550 403 651 506 
Q 753 609 897 609 
z
" id="TimesNewRomanPSMT-3a" transform="scale(0.015625)"/>
      <path d="M 338 -88 
L 338 28 
Q 744 34 1094 217 
Q 1444 400 1770 856 
Q 2097 1313 2225 1859 
Q 1734 1544 1338 1544 
Q 891 1544 572 1889 
Q 253 2234 253 2806 
Q 253 3363 572 3797 
Q 956 4325 1575 4325 
Q 2097 4325 2469 3894 
Q 2925 3359 2925 2575 
Q 2925 1869 2578 1258 
Q 2231 647 1613 244 
Q 1109 -88 516 -88 
L 338 -88 
z
M 2275 2091 
Q 2331 2497 2331 2741 
Q 2331 3044 2228 3395 
Q 2125 3747 1936 3934 
Q 1747 4122 1506 4122 
Q 1228 4122 1018 3872 
Q 809 3622 809 3128 
Q 809 2469 1088 2097 
Q 1291 1828 1588 1828 
Q 1731 1828 1928 1897 
Q 2125 1966 2275 2091 
z
" id="TimesNewRomanPSMT-39" transform="scale(0.015625)"/>
      <path d="M 1794 4444 
L 259 -88 
L 9 -88 
L 1544 4444 
L 1794 4444 
z
" id="TimesNewRomanPSMT-2f" transform="scale(0.015625)"/>
     </defs>
     <use xlink:href="#TimesNewRomanPSMT-56"/>
     <use x="72.216797" xlink:href="#TimesNewRomanPSMT-73"/>
     <use x="111.132812" xlink:href="#TimesNewRomanPSMT-3a"/>
     <use x="138.916016" xlink:href="#TimesNewRomanPSMT-20"/>
     <use x="163.916016" xlink:href="#TimesNewRomanPSMT-33"/>
     <use x="213.916016" xlink:href="#TimesNewRomanPSMT-30"/>
     <use x="263.916016" xlink:href="#TimesNewRomanPSMT-39"/>
     <use x="313.916016" xlink:href="#TimesNewRomanPSMT-2e"/>
     <use x="338.916016" xlink:href="#TimesNewRomanPSMT-33"/>
     <use x="388.916016" xlink:href="#TimesNewRomanPSMT-38"/>
     <use x="438.916016" xlink:href="#TimesNewRomanPSMT-6d"/>
     <use x="516.699219" xlink:href="#TimesNewRomanPSMT-2f"/>
     <use x="544.482422" xlink:href="#TimesNewRomanPSMT-73"/>
    </g>
   </g>
  </g>
 </g>
 <defs>
  <clipPath id="p181121cd9d">
   <rect height="332.64" width="334.8" x="63.336875" y="7.2"/>
  </clipPath>
 </defs>
</svg>
