<?xml version="1.0" encoding="utf-8" standalone="no"?>
<!DOCTYPE svg PUBLIC "-//W3C//DTD SVG 1.1//EN"
  "http://www.w3.org/Graphics/SVG/1.1/DTD/svg11.dtd">
<svg height="383.471875pt" version="1.1" viewBox="0 0 421.086875 383.471875" width="421.086875pt" xmlns="http://www.w3.org/2000/svg" xmlns:xlink="http://www.w3.org/1999/xlink">
 <metadata>
  <rdf:RDF xmlns:cc="http://creativecommons.org/ns#" xmlns:dc="http://purl.org/dc/elements/1.1/" xmlns:rdf="http://www.w3.org/1999/02/22-rdf-syntax-ns#">
   <cc:Work>
    <dc:type rdf:resource="http://purl.org/dc/dcmitype/StillImage"/>
    <dc:date>2021-06-11T14:39:37.100614</dc:date>
    <dc:format>image/svg+xml</dc:format>
    <dc:creator>
     <cc:Agent>
      <dc:title>Matplotlib v3.4.2, https://matplotlib.org/</dc:title>
     </cc:Agent>
    </dc:creator>
   </cc:Work>
  </rdf:RDF>
 </metadata>
 <defs>
  <style type="text/css">*{stroke-linecap:butt;stroke-linejoin:round;}</style>
 </defs>
 <g id="figure_1">
  <g id="patch_1">
   <path d="M 0 383.471875 
L 421.086875 383.471875 
L 421.086875 0 
L 0 0 
z
" style="fill:#ffffff;"/>
  </g>
  <g id="axes_1">
   <g id="patch_2">
    <path d="M 63.336875 339.84 
L 398.136875 339.84 
L 398.136875 7.2 
L 63.336875 7.2 
z
" style="fill:#ffffff;"/>
   </g>
   <g id="matplotlib.axis_1">
    <g id="xtick_1">
     <g id="line2d_1">
      <path clip-path="url(#p50bcae368b)" d="M 93.773239 339.84 
L 93.773239 7.2 
" style="fill:none;stroke:#000000;stroke-dasharray:0.5,0.825;stroke-dashoffset:0;stroke-width:0.5;"/>
     </g>
     <g id="line2d_2">
      <defs>
       <path d="M 0 0 
L 0 3.5 
" id="m3d404a7c2d" style="stroke:#000000;stroke-width:0.8;"/>
      </defs>
      <g>
       <use style="stroke:#000000;stroke-width:0.8;" x="93.773239" xlink:href="#m3d404a7c2d" y="339.84"/>
      </g>
     </g>
     <g id="text_1">
      <!-- 0.000 -->
      <g transform="translate(78.023239 356.56125)scale(0.14 -0.14)">
       <defs>
        <path d="M 231 2094 
Q 231 2819 450 3342 
Q 669 3866 1031 4122 
Q 1313 4325 1613 4325 
Q 2100 4325 2488 3828 
Q 2972 3213 2972 2159 
Q 2972 1422 2759 906 
Q 2547 391 2217 158 
Q 1888 -75 1581 -75 
Q 975 -75 572 641 
Q 231 1244 231 2094 
z
M 844 2016 
Q 844 1141 1059 588 
Q 1238 122 1591 122 
Q 1759 122 1940 273 
Q 2122 425 2216 781 
Q 2359 1319 2359 2297 
Q 2359 3022 2209 3506 
Q 2097 3866 1919 4016 
Q 1791 4119 1609 4119 
Q 1397 4119 1231 3928 
Q 1006 3669 925 3112 
Q 844 2556 844 2016 
z
" id="TimesNewRomanPSMT-30" transform="scale(0.015625)"/>
        <path d="M 800 606 
Q 947 606 1047 504 
Q 1147 403 1147 259 
Q 1147 116 1045 14 
Q 944 -88 800 -88 
Q 656 -88 554 14 
Q 453 116 453 259 
Q 453 406 554 506 
Q 656 606 800 606 
z
" id="TimesNewRomanPSMT-2e" transform="scale(0.015625)"/>
       </defs>
       <use xlink:href="#TimesNewRomanPSMT-30"/>
       <use x="50" xlink:href="#TimesNewRomanPSMT-2e"/>
       <use x="75" xlink:href="#TimesNewRomanPSMT-30"/>
       <use x="125" xlink:href="#TimesNewRomanPSMT-30"/>
       <use x="175" xlink:href="#TimesNewRomanPSMT-30"/>
      </g>
     </g>
    </g>
    <g id="xtick_2">
     <g id="line2d_3">
      <path clip-path="url(#p50bcae368b)" d="M 154.645966 339.84 
L 154.645966 7.2 
" style="fill:none;stroke:#000000;stroke-dasharray:0.5,0.825;stroke-dashoffset:0;stroke-width:0.5;"/>
     </g>
     <g id="line2d_4">
      <g>
       <use style="stroke:#000000;stroke-width:0.8;" x="154.645966" xlink:href="#m3d404a7c2d" y="339.84"/>
      </g>
     </g>
     <g id="text_2">
      <!-- 0.001 -->
      <g transform="translate(138.895966 356.56125)scale(0.14 -0.14)">
       <defs>
        <path d="M 750 3822 
L 1781 4325 
L 1884 4325 
L 1884 747 
Q 1884 391 1914 303 
Q 1944 216 2037 169 
Q 2131 122 2419 116 
L 2419 0 
L 825 0 
L 825 116 
Q 1125 122 1212 167 
Q 1300 213 1334 289 
Q 1369 366 1369 747 
L 1369 3034 
Q 1369 3497 1338 3628 
Q 1316 3728 1258 3775 
Q 1200 3822 1119 3822 
Q 1003 3822 797 3725 
L 750 3822 
z
" id="TimesNewRomanPSMT-31" transform="scale(0.015625)"/>
       </defs>
       <use xlink:href="#TimesNewRomanPSMT-30"/>
       <use x="50" xlink:href="#TimesNewRomanPSMT-2e"/>
       <use x="75" xlink:href="#TimesNewRomanPSMT-30"/>
       <use x="125" xlink:href="#TimesNewRomanPSMT-30"/>
       <use x="175" xlink:href="#TimesNewRomanPSMT-31"/>
      </g>
     </g>
    </g>
    <g id="xtick_3">
     <g id="line2d_5">
      <path clip-path="url(#p50bcae368b)" d="M 215.518693 339.84 
L 215.518693 7.2 
" style="fill:none;stroke:#000000;stroke-dasharray:0.5,0.825;stroke-dashoffset:0;stroke-width:0.5;"/>
     </g>
     <g id="line2d_6">
      <g>
       <use style="stroke:#000000;stroke-width:0.8;" x="215.518693" xlink:href="#m3d404a7c2d" y="339.84"/>
      </g>
     </g>
     <g id="text_3">
      <!-- 0.002 -->
      <g transform="translate(199.768693 356.56125)scale(0.14 -0.14)">
       <defs>
        <path d="M 2934 816 
L 2638 0 
L 138 0 
L 138 116 
Q 1241 1122 1691 1759 
Q 2141 2397 2141 2925 
Q 2141 3328 1894 3587 
Q 1647 3847 1303 3847 
Q 991 3847 742 3664 
Q 494 3481 375 3128 
L 259 3128 
Q 338 3706 661 4015 
Q 984 4325 1469 4325 
Q 1984 4325 2329 3994 
Q 2675 3663 2675 3213 
Q 2675 2891 2525 2569 
Q 2294 2063 1775 1497 
Q 997 647 803 472 
L 1909 472 
Q 2247 472 2383 497 
Q 2519 522 2628 598 
Q 2738 675 2819 816 
L 2934 816 
z
" id="TimesNewRomanPSMT-32" transform="scale(0.015625)"/>
       </defs>
       <use xlink:href="#TimesNewRomanPSMT-30"/>
       <use x="50" xlink:href="#TimesNewRomanPSMT-2e"/>
       <use x="75" xlink:href="#TimesNewRomanPSMT-30"/>
       <use x="125" xlink:href="#TimesNewRomanPSMT-30"/>
       <use x="175" xlink:href="#TimesNewRomanPSMT-32"/>
      </g>
     </g>
    </g>
    <g id="xtick_4">
     <g id="line2d_7">
      <path clip-path="url(#p50bcae368b)" d="M 276.39142 339.84 
L 276.39142 7.2 
" style="fill:none;stroke:#000000;stroke-dasharray:0.5,0.825;stroke-dashoffset:0;stroke-width:0.5;"/>
     </g>
     <g id="line2d_8">
      <g>
       <use style="stroke:#000000;stroke-width:0.8;" x="276.39142" xlink:href="#m3d404a7c2d" y="339.84"/>
      </g>
     </g>
     <g id="text_4">
      <!-- 0.003 -->
      <g transform="translate(260.64142 356.56125)scale(0.14 -0.14)">
       <defs>
        <path d="M 325 3431 
Q 506 3859 782 4092 
Q 1059 4325 1472 4325 
Q 1981 4325 2253 3994 
Q 2459 3747 2459 3466 
Q 2459 3003 1878 2509 
Q 2269 2356 2469 2072 
Q 2669 1788 2669 1403 
Q 2669 853 2319 450 
Q 1863 -75 997 -75 
Q 569 -75 414 31 
Q 259 138 259 259 
Q 259 350 332 419 
Q 406 488 509 488 
Q 588 488 669 463 
Q 722 447 909 348 
Q 1097 250 1169 231 
Q 1284 197 1416 197 
Q 1734 197 1970 444 
Q 2206 691 2206 1028 
Q 2206 1275 2097 1509 
Q 2016 1684 1919 1775 
Q 1784 1900 1550 2001 
Q 1316 2103 1072 2103 
L 972 2103 
L 972 2197 
Q 1219 2228 1467 2375 
Q 1716 2522 1828 2728 
Q 1941 2934 1941 3181 
Q 1941 3503 1739 3701 
Q 1538 3900 1238 3900 
Q 753 3900 428 3381 
L 325 3431 
z
" id="TimesNewRomanPSMT-33" transform="scale(0.015625)"/>
       </defs>
       <use xlink:href="#TimesNewRomanPSMT-30"/>
       <use x="50" xlink:href="#TimesNewRomanPSMT-2e"/>
       <use x="75" xlink:href="#TimesNewRomanPSMT-30"/>
       <use x="125" xlink:href="#TimesNewRomanPSMT-30"/>
       <use x="175" xlink:href="#TimesNewRomanPSMT-33"/>
      </g>
     </g>
    </g>
    <g id="xtick_5">
     <g id="line2d_9">
      <path clip-path="url(#p50bcae368b)" d="M 337.264148 339.84 
L 337.264148 7.2 
" style="fill:none;stroke:#000000;stroke-dasharray:0.5,0.825;stroke-dashoffset:0;stroke-width:0.5;"/>
     </g>
     <g id="line2d_10">
      <g>
       <use style="stroke:#000000;stroke-width:0.8;" x="337.264148" xlink:href="#m3d404a7c2d" y="339.84"/>
      </g>
     </g>
     <g id="text_5">
      <!-- 0.004 -->
      <g transform="translate(321.514148 356.56125)scale(0.14 -0.14)">
       <defs>
        <path d="M 2978 1563 
L 2978 1119 
L 2409 1119 
L 2409 0 
L 1894 0 
L 1894 1119 
L 100 1119 
L 100 1519 
L 2066 4325 
L 2409 4325 
L 2409 1563 
L 2978 1563 
z
M 1894 1563 
L 1894 3666 
L 406 1563 
L 1894 1563 
z
" id="TimesNewRomanPSMT-34" transform="scale(0.015625)"/>
       </defs>
       <use xlink:href="#TimesNewRomanPSMT-30"/>
       <use x="50" xlink:href="#TimesNewRomanPSMT-2e"/>
       <use x="75" xlink:href="#TimesNewRomanPSMT-30"/>
       <use x="125" xlink:href="#TimesNewRomanPSMT-30"/>
       <use x="175" xlink:href="#TimesNewRomanPSMT-34"/>
      </g>
     </g>
    </g>
    <g id="xtick_6">
     <g id="line2d_11">
      <path clip-path="url(#p50bcae368b)" d="M 398.136875 339.84 
L 398.136875 7.2 
" style="fill:none;stroke:#000000;stroke-dasharray:0.5,0.825;stroke-dashoffset:0;stroke-width:0.5;"/>
     </g>
     <g id="line2d_12">
      <g>
       <use style="stroke:#000000;stroke-width:0.8;" x="398.136875" xlink:href="#m3d404a7c2d" y="339.84"/>
      </g>
     </g>
     <g id="text_6">
      <!-- 0.005 -->
      <g transform="translate(382.386875 356.56125)scale(0.14 -0.14)">
       <defs>
        <path d="M 2778 4238 
L 2534 3706 
L 1259 3706 
L 981 3138 
Q 1809 3016 2294 2522 
Q 2709 2097 2709 1522 
Q 2709 1188 2573 903 
Q 2438 619 2231 419 
Q 2025 219 1772 97 
Q 1413 -75 1034 -75 
Q 653 -75 479 54 
Q 306 184 306 341 
Q 306 428 378 495 
Q 450 563 559 563 
Q 641 563 702 538 
Q 763 513 909 409 
Q 1144 247 1384 247 
Q 1750 247 2026 523 
Q 2303 800 2303 1197 
Q 2303 1581 2056 1914 
Q 1809 2247 1375 2428 
Q 1034 2569 447 2591 
L 1259 4238 
L 2778 4238 
z
" id="TimesNewRomanPSMT-35" transform="scale(0.015625)"/>
       </defs>
       <use xlink:href="#TimesNewRomanPSMT-30"/>
       <use x="50" xlink:href="#TimesNewRomanPSMT-2e"/>
       <use x="75" xlink:href="#TimesNewRomanPSMT-30"/>
       <use x="125" xlink:href="#TimesNewRomanPSMT-30"/>
       <use x="175" xlink:href="#TimesNewRomanPSMT-35"/>
      </g>
     </g>
    </g>
    <g id="text_7">
     <!-- Time (sec) -->
     <g transform="translate(200.858906 373.277188)scale(0.14 -0.14)">
      <defs>
       <path d="M 3703 4238 
L 3750 3244 
L 3631 3244 
Q 3597 3506 3538 3619 
Q 3441 3800 3280 3886 
Q 3119 3972 2856 3972 
L 2259 3972 
L 2259 734 
Q 2259 344 2344 247 
Q 2463 116 2709 116 
L 2856 116 
L 2856 0 
L 1059 0 
L 1059 116 
L 1209 116 
Q 1478 116 1591 278 
Q 1659 378 1659 734 
L 1659 3972 
L 1150 3972 
Q 853 3972 728 3928 
Q 566 3869 450 3700 
Q 334 3531 313 3244 
L 194 3244 
L 244 4238 
L 3703 4238 
z
" id="TimesNewRomanPSMT-54" transform="scale(0.015625)"/>
       <path d="M 928 4444 
Q 1059 4444 1151 4351 
Q 1244 4259 1244 4128 
Q 1244 3997 1151 3903 
Q 1059 3809 928 3809 
Q 797 3809 703 3903 
Q 609 3997 609 4128 
Q 609 4259 701 4351 
Q 794 4444 928 4444 
z
M 1188 2947 
L 1188 647 
Q 1188 378 1227 289 
Q 1266 200 1342 156 
Q 1419 113 1622 113 
L 1622 0 
L 231 0 
L 231 113 
Q 441 113 512 153 
Q 584 194 626 287 
Q 669 381 669 647 
L 669 1750 
Q 669 2216 641 2353 
Q 619 2453 572 2492 
Q 525 2531 444 2531 
Q 356 2531 231 2484 
L 188 2597 
L 1050 2947 
L 1188 2947 
z
" id="TimesNewRomanPSMT-69" transform="scale(0.015625)"/>
       <path d="M 1050 2338 
Q 1363 2650 1419 2697 
Q 1559 2816 1721 2881 
Q 1884 2947 2044 2947 
Q 2313 2947 2506 2790 
Q 2700 2634 2766 2338 
Q 3088 2713 3309 2830 
Q 3531 2947 3766 2947 
Q 3994 2947 4170 2830 
Q 4347 2713 4450 2447 
Q 4519 2266 4519 1878 
L 4519 647 
Q 4519 378 4559 278 
Q 4591 209 4675 161 
Q 4759 113 4950 113 
L 4950 0 
L 3538 0 
L 3538 113 
L 3597 113 
Q 3781 113 3884 184 
Q 3956 234 3988 344 
Q 4000 397 4000 647 
L 4000 1878 
Q 4000 2228 3916 2372 
Q 3794 2572 3525 2572 
Q 3359 2572 3192 2489 
Q 3025 2406 2788 2181 
L 2781 2147 
L 2788 2013 
L 2788 647 
Q 2788 353 2820 281 
Q 2853 209 2943 161 
Q 3034 113 3253 113 
L 3253 0 
L 1806 0 
L 1806 113 
Q 2044 113 2133 169 
Q 2222 225 2256 338 
Q 2272 391 2272 647 
L 2272 1878 
Q 2272 2228 2169 2381 
Q 2031 2581 1784 2581 
Q 1616 2581 1450 2491 
Q 1191 2353 1050 2181 
L 1050 647 
Q 1050 366 1089 281 
Q 1128 197 1204 155 
Q 1281 113 1516 113 
L 1516 0 
L 100 0 
L 100 113 
Q 297 113 375 155 
Q 453 197 493 289 
Q 534 381 534 647 
L 534 1741 
Q 534 2213 506 2350 
Q 484 2453 437 2492 
Q 391 2531 309 2531 
Q 222 2531 100 2484 
L 53 2597 
L 916 2947 
L 1050 2947 
L 1050 2338 
z
" id="TimesNewRomanPSMT-6d" transform="scale(0.015625)"/>
       <path d="M 681 1784 
Q 678 1147 991 784 
Q 1303 422 1725 422 
Q 2006 422 2214 576 
Q 2422 731 2563 1106 
L 2659 1044 
Q 2594 616 2278 264 
Q 1963 -88 1488 -88 
Q 972 -88 605 314 
Q 238 716 238 1394 
Q 238 2128 614 2539 
Q 991 2950 1559 2950 
Q 2041 2950 2350 2633 
Q 2659 2316 2659 1784 
L 681 1784 
z
M 681 1966 
L 2006 1966 
Q 1991 2241 1941 2353 
Q 1863 2528 1708 2628 
Q 1553 2728 1384 2728 
Q 1125 2728 920 2526 
Q 716 2325 681 1966 
z
" id="TimesNewRomanPSMT-65" transform="scale(0.015625)"/>
       <path id="TimesNewRomanPSMT-20" transform="scale(0.015625)"/>
       <path d="M 1988 -1253 
L 1988 -1369 
Q 1516 -1131 1200 -813 
Q 750 -359 506 256 
Q 263 872 263 1534 
Q 263 2503 741 3301 
Q 1219 4100 1988 4444 
L 1988 4313 
Q 1603 4100 1356 3731 
Q 1109 3363 987 2797 
Q 866 2231 866 1616 
Q 866 947 969 400 
Q 1050 -31 1165 -292 
Q 1281 -553 1476 -793 
Q 1672 -1034 1988 -1253 
z
" id="TimesNewRomanPSMT-28" transform="scale(0.015625)"/>
       <path d="M 2050 2947 
L 2050 1972 
L 1947 1972 
Q 1828 2431 1642 2597 
Q 1456 2763 1169 2763 
Q 950 2763 815 2647 
Q 681 2531 681 2391 
Q 681 2216 781 2091 
Q 878 1963 1175 1819 
L 1631 1597 
Q 2266 1288 2266 781 
Q 2266 391 1970 151 
Q 1675 -88 1309 -88 
Q 1047 -88 709 6 
Q 606 38 541 38 
Q 469 38 428 -44 
L 325 -44 
L 325 978 
L 428 978 
Q 516 541 762 319 
Q 1009 97 1316 97 
Q 1531 97 1667 223 
Q 1803 350 1803 528 
Q 1803 744 1651 891 
Q 1500 1038 1047 1263 
Q 594 1488 453 1669 
Q 313 1847 313 2119 
Q 313 2472 555 2709 
Q 797 2947 1181 2947 
Q 1350 2947 1591 2875 
Q 1750 2828 1803 2828 
Q 1853 2828 1881 2850 
Q 1909 2872 1947 2947 
L 2050 2947 
z
" id="TimesNewRomanPSMT-73" transform="scale(0.015625)"/>
       <path d="M 2631 1088 
Q 2516 522 2178 217 
Q 1841 -88 1431 -88 
Q 944 -88 581 321 
Q 219 731 219 1428 
Q 219 2103 620 2525 
Q 1022 2947 1584 2947 
Q 2006 2947 2278 2723 
Q 2550 2500 2550 2259 
Q 2550 2141 2473 2067 
Q 2397 1994 2259 1994 
Q 2075 1994 1981 2113 
Q 1928 2178 1911 2362 
Q 1894 2547 1784 2644 
Q 1675 2738 1481 2738 
Q 1169 2738 978 2506 
Q 725 2200 725 1697 
Q 725 1184 976 792 
Q 1228 400 1656 400 
Q 1963 400 2206 609 
Q 2378 753 2541 1131 
L 2631 1088 
z
" id="TimesNewRomanPSMT-63" transform="scale(0.015625)"/>
       <path d="M 144 4313 
L 144 4444 
Q 619 4209 934 3891 
Q 1381 3434 1625 2820 
Q 1869 2206 1869 1541 
Q 1869 572 1392 -226 
Q 916 -1025 144 -1369 
L 144 -1253 
Q 528 -1038 776 -670 
Q 1025 -303 1145 264 
Q 1266 831 1266 1447 
Q 1266 2113 1163 2663 
Q 1084 3094 967 3353 
Q 850 3613 656 3853 
Q 463 4094 144 4313 
z
" id="TimesNewRomanPSMT-29" transform="scale(0.015625)"/>
      </defs>
      <use xlink:href="#TimesNewRomanPSMT-54"/>
      <use x="57.583984" xlink:href="#TimesNewRomanPSMT-69"/>
      <use x="85.367188" xlink:href="#TimesNewRomanPSMT-6d"/>
      <use x="163.150391" xlink:href="#TimesNewRomanPSMT-65"/>
      <use x="207.535156" xlink:href="#TimesNewRomanPSMT-20"/>
      <use x="232.535156" xlink:href="#TimesNewRomanPSMT-28"/>
      <use x="265.835938" xlink:href="#TimesNewRomanPSMT-73"/>
      <use x="304.751953" xlink:href="#TimesNewRomanPSMT-65"/>
      <use x="349.136719" xlink:href="#TimesNewRomanPSMT-63"/>
      <use x="393.521484" xlink:href="#TimesNewRomanPSMT-29"/>
     </g>
    </g>
   </g>
   <g id="matplotlib.axis_2">
    <g id="ytick_1">
     <g id="line2d_13">
      <path clip-path="url(#p50bcae368b)" d="M 63.336875 281.446249 
L 398.136875 281.446249 
" style="fill:none;stroke:#000000;stroke-dasharray:0.5,0.825;stroke-dashoffset:0;stroke-width:0.5;"/>
     </g>
     <g id="line2d_14">
      <defs>
       <path d="M 0 0 
L -3.5 0 
" id="m729a974a47" style="stroke:#000000;stroke-width:0.8;"/>
      </defs>
      <g>
       <use style="stroke:#000000;stroke-width:0.8;" x="63.336875" xlink:href="#m729a974a47" y="281.446249"/>
      </g>
     </g>
     <g id="text_8">
      <!-- −0.04 -->
      <g transform="translate(23.942188 286.306874)scale(0.14 -0.14)">
       <defs>
        <path d="M 3484 2000 
L 116 2000 
L 116 2256 
L 3484 2256 
L 3484 2000 
z
" id="TimesNewRomanPSMT-2212" transform="scale(0.015625)"/>
       </defs>
       <use xlink:href="#TimesNewRomanPSMT-2212"/>
       <use x="56.396484" xlink:href="#TimesNewRomanPSMT-30"/>
       <use x="106.396484" xlink:href="#TimesNewRomanPSMT-2e"/>
       <use x="131.396484" xlink:href="#TimesNewRomanPSMT-30"/>
       <use x="181.396484" xlink:href="#TimesNewRomanPSMT-34"/>
      </g>
     </g>
    </g>
    <g id="ytick_2">
     <g id="line2d_15">
      <path clip-path="url(#p50bcae368b)" d="M 63.336875 217.293502 
L 398.136875 217.293502 
" style="fill:none;stroke:#000000;stroke-dasharray:0.5,0.825;stroke-dashoffset:0;stroke-width:0.5;"/>
     </g>
     <g id="line2d_16">
      <g>
       <use style="stroke:#000000;stroke-width:0.8;" x="63.336875" xlink:href="#m729a974a47" y="217.293502"/>
      </g>
     </g>
     <g id="text_9">
      <!-- −0.02 -->
      <g transform="translate(23.942188 222.154127)scale(0.14 -0.14)">
       <use xlink:href="#TimesNewRomanPSMT-2212"/>
       <use x="56.396484" xlink:href="#TimesNewRomanPSMT-30"/>
       <use x="106.396484" xlink:href="#TimesNewRomanPSMT-2e"/>
       <use x="131.396484" xlink:href="#TimesNewRomanPSMT-30"/>
       <use x="181.396484" xlink:href="#TimesNewRomanPSMT-32"/>
      </g>
     </g>
    </g>
    <g id="ytick_3">
     <g id="line2d_17">
      <path clip-path="url(#p50bcae368b)" d="M 63.336875 153.140756 
L 398.136875 153.140756 
" style="fill:none;stroke:#000000;stroke-dasharray:0.5,0.825;stroke-dashoffset:0;stroke-width:0.5;"/>
     </g>
     <g id="line2d_18">
      <g>
       <use style="stroke:#000000;stroke-width:0.8;" x="63.336875" xlink:href="#m729a974a47" y="153.140756"/>
      </g>
     </g>
     <g id="text_10">
      <!-- 0.00 -->
      <g transform="translate(31.836875 158.001381)scale(0.14 -0.14)">
       <use xlink:href="#TimesNewRomanPSMT-30"/>
       <use x="50" xlink:href="#TimesNewRomanPSMT-2e"/>
       <use x="75" xlink:href="#TimesNewRomanPSMT-30"/>
       <use x="125" xlink:href="#TimesNewRomanPSMT-30"/>
      </g>
     </g>
    </g>
    <g id="ytick_4">
     <g id="line2d_19">
      <path clip-path="url(#p50bcae368b)" d="M 63.336875 88.988009 
L 398.136875 88.988009 
" style="fill:none;stroke:#000000;stroke-dasharray:0.5,0.825;stroke-dashoffset:0;stroke-width:0.5;"/>
     </g>
     <g id="line2d_20">
      <g>
       <use style="stroke:#000000;stroke-width:0.8;" x="63.336875" xlink:href="#m729a974a47" y="88.988009"/>
      </g>
     </g>
     <g id="text_11">
      <!-- 0.02 -->
      <g transform="translate(31.836875 93.848634)scale(0.14 -0.14)">
       <use xlink:href="#TimesNewRomanPSMT-30"/>
       <use x="50" xlink:href="#TimesNewRomanPSMT-2e"/>
       <use x="75" xlink:href="#TimesNewRomanPSMT-30"/>
       <use x="125" xlink:href="#TimesNewRomanPSMT-32"/>
      </g>
     </g>
    </g>
    <g id="ytick_5">
     <g id="line2d_21">
      <path clip-path="url(#p50bcae368b)" d="M 63.336875 24.835262 
L 398.136875 24.835262 
" style="fill:none;stroke:#000000;stroke-dasharray:0.5,0.825;stroke-dashoffset:0;stroke-width:0.5;"/>
     </g>
     <g id="line2d_22">
      <g>
       <use style="stroke:#000000;stroke-width:0.8;" x="63.336875" xlink:href="#m729a974a47" y="24.835262"/>
      </g>
     </g>
     <g id="text_12">
      <!-- 0.04 -->
      <g transform="translate(31.836875 29.695887)scale(0.14 -0.14)">
       <use xlink:href="#TimesNewRomanPSMT-30"/>
       <use x="50" xlink:href="#TimesNewRomanPSMT-2e"/>
       <use x="75" xlink:href="#TimesNewRomanPSMT-30"/>
       <use x="125" xlink:href="#TimesNewRomanPSMT-34"/>
      </g>
     </g>
    </g>
    <g id="text_13">
     <!-- Volatage (V) -->
     <g transform="translate(16.92125 209.352344)rotate(-90)scale(0.14 -0.14)">
      <defs>
       <path d="M 4544 4238 
L 4544 4122 
Q 4319 4081 4203 3978 
Q 4038 3825 3909 3509 
L 2431 -97 
L 2316 -97 
L 728 3556 
Q 606 3838 556 3900 
Q 478 3997 364 4051 
Q 250 4106 56 4122 
L 56 4238 
L 1788 4238 
L 1788 4122 
Q 1494 4094 1406 4022 
Q 1319 3950 1319 3838 
Q 1319 3681 1463 3350 
L 2541 866 
L 3541 3319 
Q 3688 3681 3688 3822 
Q 3688 3913 3597 3995 
Q 3506 4078 3291 4113 
Q 3275 4116 3238 4122 
L 3238 4238 
L 4544 4238 
z
" id="TimesNewRomanPSMT-56" transform="scale(0.015625)"/>
       <path d="M 1600 2947 
Q 2250 2947 2644 2453 
Q 2978 2031 2978 1484 
Q 2978 1100 2793 706 
Q 2609 313 2286 112 
Q 1963 -88 1566 -88 
Q 919 -88 538 428 
Q 216 863 216 1403 
Q 216 1797 411 2186 
Q 606 2575 925 2761 
Q 1244 2947 1600 2947 
z
M 1503 2744 
Q 1338 2744 1170 2645 
Q 1003 2547 900 2300 
Q 797 2053 797 1666 
Q 797 1041 1045 587 
Q 1294 134 1700 134 
Q 2003 134 2200 384 
Q 2397 634 2397 1244 
Q 2397 2006 2069 2444 
Q 1847 2744 1503 2744 
z
" id="TimesNewRomanPSMT-6f" transform="scale(0.015625)"/>
       <path d="M 1184 4444 
L 1184 647 
Q 1184 378 1223 290 
Q 1263 203 1344 158 
Q 1425 113 1647 113 
L 1647 0 
L 244 0 
L 244 113 
Q 441 113 512 153 
Q 584 194 625 287 
Q 666 381 666 647 
L 666 3247 
Q 666 3731 644 3842 
Q 622 3953 573 3993 
Q 525 4034 450 4034 
Q 369 4034 244 3984 
L 191 4094 
L 1044 4444 
L 1184 4444 
z
" id="TimesNewRomanPSMT-6c" transform="scale(0.015625)"/>
       <path d="M 1822 413 
Q 1381 72 1269 19 
Q 1100 -59 909 -59 
Q 613 -59 420 144 
Q 228 347 228 678 
Q 228 888 322 1041 
Q 450 1253 767 1440 
Q 1084 1628 1822 1897 
L 1822 2009 
Q 1822 2438 1686 2597 
Q 1550 2756 1291 2756 
Q 1094 2756 978 2650 
Q 859 2544 859 2406 
L 866 2225 
Q 866 2081 792 2003 
Q 719 1925 600 1925 
Q 484 1925 411 2006 
Q 338 2088 338 2228 
Q 338 2497 613 2722 
Q 888 2947 1384 2947 
Q 1766 2947 2009 2819 
Q 2194 2722 2281 2516 
Q 2338 2381 2338 1966 
L 2338 994 
Q 2338 584 2353 492 
Q 2369 400 2405 369 
Q 2441 338 2488 338 
Q 2538 338 2575 359 
Q 2641 400 2828 588 
L 2828 413 
Q 2478 -56 2159 -56 
Q 2006 -56 1915 50 
Q 1825 156 1822 413 
z
M 1822 616 
L 1822 1706 
Q 1350 1519 1213 1441 
Q 966 1303 859 1153 
Q 753 1003 753 825 
Q 753 600 887 451 
Q 1022 303 1197 303 
Q 1434 303 1822 616 
z
" id="TimesNewRomanPSMT-61" transform="scale(0.015625)"/>
       <path d="M 1031 3803 
L 1031 2863 
L 1700 2863 
L 1700 2644 
L 1031 2644 
L 1031 788 
Q 1031 509 1111 412 
Q 1191 316 1316 316 
Q 1419 316 1516 380 
Q 1613 444 1666 569 
L 1788 569 
Q 1678 263 1478 108 
Q 1278 -47 1066 -47 
Q 922 -47 784 33 
Q 647 113 581 261 
Q 516 409 516 719 
L 516 2644 
L 63 2644 
L 63 2747 
Q 234 2816 414 2980 
Q 594 3144 734 3369 
Q 806 3488 934 3803 
L 1031 3803 
z
" id="TimesNewRomanPSMT-74" transform="scale(0.015625)"/>
       <path d="M 966 1044 
Q 703 1172 562 1401 
Q 422 1631 422 1909 
Q 422 2334 742 2640 
Q 1063 2947 1563 2947 
Q 1972 2947 2272 2747 
L 2878 2747 
Q 3013 2747 3034 2739 
Q 3056 2731 3066 2713 
Q 3084 2684 3084 2613 
Q 3084 2531 3069 2500 
Q 3059 2484 3036 2475 
Q 3013 2466 2878 2466 
L 2506 2466 
Q 2681 2241 2681 1891 
Q 2681 1491 2375 1206 
Q 2069 922 1553 922 
Q 1341 922 1119 984 
Q 981 866 932 777 
Q 884 688 884 625 
Q 884 572 936 522 
Q 988 472 1138 450 
Q 1225 438 1575 428 
Q 2219 413 2409 384 
Q 2700 344 2873 169 
Q 3047 -6 3047 -263 
Q 3047 -616 2716 -925 
Q 2228 -1381 1444 -1381 
Q 841 -1381 425 -1109 
Q 191 -953 191 -784 
Q 191 -709 225 -634 
Q 278 -519 444 -313 
Q 466 -284 763 25 
Q 600 122 533 198 
Q 466 275 466 372 
Q 466 481 555 628 
Q 644 775 966 1044 
z
M 1509 2797 
Q 1278 2797 1122 2612 
Q 966 2428 966 2047 
Q 966 1553 1178 1281 
Q 1341 1075 1591 1075 
Q 1828 1075 1981 1253 
Q 2134 1431 2134 1813 
Q 2134 2309 1919 2591 
Q 1759 2797 1509 2797 
z
M 934 0 
Q 788 -159 713 -296 
Q 638 -434 638 -550 
Q 638 -700 819 -813 
Q 1131 -1006 1722 -1006 
Q 2284 -1006 2551 -807 
Q 2819 -609 2819 -384 
Q 2819 -222 2659 -153 
Q 2497 -84 2016 -72 
Q 1313 -53 934 0 
z
" id="TimesNewRomanPSMT-67" transform="scale(0.015625)"/>
      </defs>
      <use xlink:href="#TimesNewRomanPSMT-56"/>
      <use x="59.341797" xlink:href="#TimesNewRomanPSMT-6f"/>
      <use x="109.341797" xlink:href="#TimesNewRomanPSMT-6c"/>
      <use x="137.125" xlink:href="#TimesNewRomanPSMT-61"/>
      <use x="181.509766" xlink:href="#TimesNewRomanPSMT-74"/>
      <use x="209.292969" xlink:href="#TimesNewRomanPSMT-61"/>
      <use x="253.677734" xlink:href="#TimesNewRomanPSMT-67"/>
      <use x="303.677734" xlink:href="#TimesNewRomanPSMT-65"/>
      <use x="348.0625" xlink:href="#TimesNewRomanPSMT-20"/>
      <use x="373.0625" xlink:href="#TimesNewRomanPSMT-28"/>
      <use x="406.363281" xlink:href="#TimesNewRomanPSMT-56"/>
      <use x="478.580078" xlink:href="#TimesNewRomanPSMT-29"/>
     </g>
    </g>
   </g>
   <g id="LineCollection_1">
    <path clip-path="url(#p50bcae368b)" d="M 78.555057 153.140756 
L 382.918693 153.140756 
" style="fill:none;stroke:#1f77b4;stroke-width:1.5;"/>
   </g>
   <g id="line2d_23">
    <path clip-path="url(#p50bcae368b)" d="M 78.555057 153.111406 
L 78.585493 153.07131 
L 78.646366 153.151501 
L 90.790475 153.151501 
L 90.820911 153.271788 
L 90.91222 153.191597 
L 93.34713 153.191597 
L 93.377566 153.311883 
L 93.468875 153.271788 
L 96.238584 153.351979 
L 96.26902 153.392074 
L 96.299457 153.311883 
L 96.451639 153.271788 
L 96.634257 153.351979 
L 98.582184 153.392074 
L 98.61262 153.472265 
L 98.673493 153.43217 
L 98.825675 153.392074 
L 98.916984 153.43217 
L 98.94742 153.351979 
L 99.008293 153.392074 
L 99.160475 153.472265 
L 99.28222 153.392074 
L 99.434402 153.43217 
L 103.39113 153.351979 
L 103.482439 153.351979 
L 103.573748 153.43217 
L 103.604184 153.392074 
L 103.72593 153.392074 
L 108.108766 153.43217 
L 108.230511 153.51236 
L 108.382693 153.472265 
L 109.356657 153.51236 
L 109.387093 153.592551 
L 109.478402 153.552456 
L 109.569711 153.592551 
L 109.600148 153.552456 
L 109.691457 153.552456 
L 109.813202 153.592551 
L 109.843639 153.51236 
L 109.934948 153.552456 
L 110.543675 153.632647 
L 110.66542 153.632647 
L 111.213275 153.712838 
L 111.365457 153.752933 
L 112.400293 153.833124 
L 112.522039 153.87322 
L 112.643784 153.833124 
L 112.826402 153.913315 
L 113.43513 153.993506 
L 113.587311 154.073697 
L 113.67862 154.033602 
L 113.709057 154.073697 
L 114.135166 154.113793 
L 114.287348 154.234079 
L 114.43953 154.193983 
L 114.561275 154.274174 
L 114.956948 154.31427 
L 115.10913 154.474652 
L 115.261311 154.434556 
L 115.413493 154.514747 
L 115.535239 154.514747 
L 115.77873 154.554843 
L 115.930911 154.675129 
L 116.02222 154.635034 
L 116.174402 154.75532 
L 116.296148 154.75532 
L 116.813566 154.835511 
L 116.965748 154.875606 
L 117.270111 154.955797 
L 117.422293 154.995893 
L 117.878839 155.076084 
L 118.03102 155.116179 
L 118.274511 155.156275 
L 118.396257 155.236466 
L 118.731057 155.316657 
L 118.852802 155.396847 
L 118.883239 155.356752 
L 119.065857 155.436943 
L 119.218039 155.477038 
L 119.400657 155.557229 
L 119.644148 155.717611 
L 119.826766 155.797802 
L 119.978948 155.877993 
L 120.009384 155.837898 
L 120.070257 155.918089 
L 120.192002 155.998279 
L 120.435493 156.07847 
L 120.892039 156.559616 
L 120.922475 156.519521 
L 120.952911 156.599711 
L 122.200802 158.363912 
L 122.413857 158.804962 
L 122.566039 159.125726 
L 122.839966 159.767253 
L 124.118293 163.415941 
L 126.918439 174.923339 
L 127.374984 177.208781 
L 127.83153 179.454128 
L 128.866366 184.345774 
L 129.018548 185.027396 
L 129.566402 187.352934 
L 129.779457 188.194939 
L 130.905602 192.244581 
L 130.996911 192.445059 
L 131.209966 193.126682 
L 131.240402 193.126682 
L 131.483893 193.888495 
L 131.636075 194.249355 
L 132.062184 195.091359 
L 132.366548 195.412123 
L 132.396984 195.372028 
L 132.51873 195.372028 
L 132.610039 195.53241 
L 132.640475 195.492314 
L 133.157893 195.412123 
L 133.827493 194.409737 
L 134.10142 193.768209 
L 134.314475 193.327159 
L 135.258002 190.560572 
L 136.11022 186.831693 
L 136.688511 183.14291 
L 137.54073 176.807827 
L 139.88433 154.193983 
L 141.22353 137.033124 
L 142.593166 117.586822 
L 143.749748 101.027395 
L 146.762948 58.927151 
L 148.436948 40.362954 
L 149.59353 30.699943 
L 150.415311 25.968681 
L 151.237093 23.161998 
L 151.51102 22.720948 
L 151.571893 22.680859 
L 151.724075 22.560563 
L 151.84582 22.480372 
L 152.089311 22.32 
L 152.363239 22.360089 
L 152.51542 22.480372 
L 153.063275 23.362476 
L 153.641566 25.166772 
L 154.098111 27.372016 
L 155.224257 35.431218 
L 156.95913 54.837417 
L 158.054839 70.675126 
L 158.96793 86.793501 
L 161.524584 139.478948 
L 164.781275 214.096611 
L 166.66833 253.911409 
L 168.098839 280.093749 
L 169.407602 299.058911 
L 170.59462 311.889451 
L 171.812075 320.710457 
L 172.816475 324.238858 
L 173.27302 324.679911 
L 174.338293 323.116178 
L 175.677493 317.422635 
L 176.894948 308.681817 
L 177.686293 301.544823 
L 178.508075 293.004492 
L 179.329857 282.659855 
L 179.877711 275.803527 
L 183.07353 227.889454 
L 184.564911 202.589212 
L 186.056293 178.932887 
L 190.043457 122.678947 
L 190.621748 115.421667 
L 191.717457 102.390637 
L 194.091493 78.493742 
L 194.669784 73.962955 
L 197.287311 54.155788 
L 198.017784 50.025964 
L 200.48313 40.723813 
L 200.72662 40.24267 
L 201.030984 39.681324 
L 201.06142 39.681324 
L 201.304911 39.0398 
L 201.335348 39.079902 
L 201.365784 38.959619 
L 201.670148 38.438374 
L 201.883202 38.277989 
L 202.035384 38.318078 
L 202.339748 38.398273 
L 202.431057 38.398273 
L 202.552802 38.318078 
L 202.857166 38.277989 
L 202.978911 38.197798 
L 203.252839 38.398273 
L 203.344148 38.478463 
L 203.73982 38.839323 
L 203.861566 38.799234 
L 204.07462 38.919517 
L 204.105057 38.839323 
L 204.16593 38.919517 
L 204.774657 39.881811 
L 205.231202 40.804004 
L 205.596439 41.405442 
L 205.809493 41.966775 
L 206.266039 43.330021 
L 206.357348 43.610686 
L 206.996511 45.054123 
L 207.026948 45.014021 
L 207.057384 45.134317 
L 207.696548 47.259371 
L 207.818293 47.580141 
L 208.366148 49.264141 
L 209.09662 52.551979 
L 210.040148 56.721907 
L 210.496693 59.007346 
L 211.318475 62.696129 
L 212.992475 72.078468 
L 213.692511 76.729542 
L 214.301239 81.46081 
L 215.427384 91.16391 
L 215.88393 95.814984 
L 216.979639 106.881333 
L 217.649239 113.53718 
L 218.22753 119.872264 
L 218.866693 126.848875 
L 222.549493 171.795894 
L 227.693239 238.113795 
L 229.488984 258.121433 
L 230.128148 264.055565 
L 230.706439 268.987301 
L 231.315166 272.956756 
L 233.20222 282.379187 
L 233.29353 282.619766 
L 233.597893 283.381574 
L 233.689202 283.461765 
L 234.145748 284.383961 
L 234.450111 284.624537 
L 234.693602 284.584447 
L 234.87622 284.343868 
L 234.96753 284.263677 
L 235.180584 283.862729 
L 235.271893 283.822627 
L 235.454511 283.50187 
L 235.728439 282.980626 
L 236.915457 277.848403 
L 237.432875 274.560578 
L 239.167748 260.005923 
L 241.420039 235.106632 
L 245.955057 173.920954 
L 248.146475 141.002576 
L 249.790039 118.789686 
L 251.464039 100.185393 
L 253.594584 84.227394 
L 254.081566 81.741475 
L 254.659857 79.255556 
L 254.872911 78.413551 
L 255.207711 77.210691 
L 255.786002 75.366296 
L 255.907748 75.045532 
L 256.668657 73.32143 
L 257.003457 73.040756 
L 257.125202 73.080851 
L 257.277384 72.960571 
L 257.946984 73.000667 
L 258.06873 73.161045 
L 258.099166 73.12095 
L 258.373093 73.32143 
L 258.555711 73.401615 
L 258.677457 73.44171 
L 258.799202 73.44171 
L 259.134002 73.521905 
L 259.560111 73.922859 
L 259.712293 73.962955 
L 259.834039 74.083238 
L 259.925348 74.083238 
L 260.168839 74.243623 
L 260.229711 74.283718 
L 260.41233 74.484193 
L 260.929748 75.286105 
L 261.112366 75.56677 
L 262.603748 79.736699 
L 263.029857 81.420715 
L 263.882075 85.229781 
L 266.134366 97.659379 
L 267.77793 109.166774 
L 268.417093 114.058421 
L 270.243275 127.650783 
L 270.517202 129.655558 
L 272.982548 148.259855 
L 274.291311 156.158661 
L 275.447893 161.731931 
L 275.630511 162.493745 
L 276.087057 164.378232 
L 276.360984 165.380619 
L 277.182766 168.187302 
L 277.669748 169.751025 
L 278.187166 171.354844 
L 279.343748 174.12143 
L 279.891602 175.00353 
L 280.07422 175.324295 
L 280.865566 176.206395 
L 280.956875 176.286586 
L 281.139493 176.527158 
L 281.16993 176.527158 
L 281.352548 176.807827 
L 281.565602 177.088496 
L 281.717784 177.168686 
L 281.900402 177.288972 
L 281.930839 177.248877 
L 281.961275 177.329068 
L 282.143893 177.409259 
L 282.296075 177.449355 
L 282.448257 177.56964 
L 282.50913 177.609736 
L 282.630875 177.730022 
L 282.722184 177.689927 
L 282.75262 177.730022 
L 282.783057 177.770118 
L 282.84393 177.689927 
L 283.17873 177.649831 
L 283.330911 177.529546 
L 283.543966 177.369163 
L 283.604839 177.449355 
L 283.635275 177.369163 
L 283.726584 177.329068 
L 283.84833 177.248877 
L 284.000511 177.168686 
L 284.609239 176.527158 
L 284.670111 176.446967 
L 284.822293 176.286586 
L 284.85273 176.286586 
L 285.004911 176.046012 
L 285.035348 176.086108 
L 285.09622 176.005917 
L 285.918002 174.762958 
L 286.313675 174.001145 
L 286.374548 173.920954 
L 286.800657 173.078948 
L 287.074584 172.557707 
L 287.348511 171.916179 
L 287.409384 171.876085 
L 287.622439 171.475129 
L 287.987675 170.793507 
L 288.048548 170.753411 
L 288.322475 170.272266 
L 288.352911 170.31236 
L 288.383348 170.192075 
L 288.505093 170.111884 
L 288.77902 169.670834 
L 289.20513 169.269879 
L 289.53993 169.189688 
L 289.661675 169.189688 
L 289.692111 169.229784 
L 289.752984 169.149593 
L 289.966039 169.069402 
L 290.057348 168.98921 
L 290.087784 169.029306 
L 290.239966 169.069402 
L 290.331275 169.069402 
L 291.700911 170.993984 
L 292.12702 172.236944 
L 293.13142 175.163912 
L 293.679275 176.888018 
L 294.348875 178.932887 
L 294.653239 179.975369 
L 295.322839 182.180618 
L 295.870693 183.904725 
L 296.357675 185.388256 
L 296.47942 185.668926 
L 296.753348 186.310452 
L 296.783784 186.310452 
L 296.966402 186.751504 
L 297.757748 188.555798 
L 297.81862 188.595894 
L 298.062111 188.956753 
L 298.792584 189.999235 
L 298.944766 190.319999 
L 299.096948 190.360094 
L 299.188257 190.480381 
L 299.218693 190.40019 
L 299.431748 190.480381 
L 299.675239 190.680858 
L 299.705675 190.640763 
L 299.736111 190.680858 
L 299.949166 190.961526 
L 300.192657 191.121908 
L 300.557893 191.041717 
L 300.740511 190.921431 
L 300.892693 190.961526 
L 301.044875 190.921431 
L 301.531857 190.84124 
L 302.201457 190.079426 
L 302.292766 190.079426 
L 302.50582 189.95914 
L 302.688439 189.878949 
L 303.023239 189.558185 
L 303.053675 189.598281 
L 303.114548 189.51809 
L 303.297166 189.317612 
L 303.358039 189.277517 
L 303.571093 188.996849 
L 304.636366 187.433126 
L 304.971166 186.551026 
L 305.123348 186.190167 
L 306.371239 182.621669 
L 306.706039 181.418806 
L 307.558257 177.609736 
L 310.87582 159.566776 
L 312.30633 149.422623 
L 313.402039 141.644102 
L 313.88902 138.516656 
L 316.32393 123.119997 
L 316.445675 122.518565 
L 316.841348 120.513791 
L 317.419639 118.027873 
L 319.793675 109.086583 
L 321.650293 104.475602 
L 321.985093 103.914268 
L 322.228584 103.393024 
L 322.59382 102.711401 
L 322.654693 102.631217 
L 322.92862 102.190163 
L 323.324293 101.50854 
L 323.567784 100.987296 
L 323.811275 100.506157 
L 324.054766 100.145298 
L 325.302657 98.661762 
L 325.880948 98.741956 
L 326.03313 98.862236 
L 326.063566 98.822141 
L 326.154875 98.862236 
L 326.307057 99.06272 
L 326.337493 99.022621 
L 326.36793 99.06272 
L 326.580984 99.383481 
L 326.61142 99.383481 
L 326.824475 99.784438 
L 327.159275 100.385867 
L 327.494075 100.987296 
L 328.985457 105.19732 
L 330.020293 109.728111 
L 334.007457 131.299473 
L 335.042293 137.393982 
L 339.242511 158.965344 
L 339.790366 161.571549 
L 340.399093 164.257946 
L 340.67302 165.260332 
L 342.133966 170.633125 
L 342.225275 170.913794 
L 342.834002 172.958661 
L 342.864439 172.958661 
L 343.229675 173.961049 
L 344.325384 176.607349 
L 344.386257 176.68754 
L 344.69062 177.248877 
L 344.994984 177.770118 
L 345.055857 177.850309 
L 348.099493 181.739569 
L 348.12993 181.699473 
L 348.160366 181.819762 
L 348.342984 181.859855 
L 348.495166 181.980143 
L 348.586475 181.940047 
L 348.616911 181.980143 
L 349.316948 182.020236 
L 349.438693 182.100429 
L 349.560439 182.100429 
L 351.234439 182.020236 
L 351.47793 181.859855 
L 351.569239 181.859855 
L 351.81273 181.699473 
L 351.904039 181.659377 
L 352.05622 181.539091 
L 353.39542 179.895178 
L 353.425857 179.935272 
L 353.456293 179.855082 
L 353.699784 179.494222 
L 354.82593 178.171072 
L 354.947675 178.090881 
L 355.343348 177.730022 
L 355.49553 177.730022 
L 355.647711 177.529546 
L 355.799893 177.449355 
L 356.043384 177.248877 
L 356.16513 177.288972 
L 356.317311 177.168686 
L 356.560802 177.12859 
L 356.712984 177.008305 
L 356.773857 177.048399 
L 356.804293 177.008305 
L 357.017348 176.888018 
L 357.352148 176.807827 
L 357.443457 176.727636 
L 357.473893 176.807827 
L 357.626075 176.727636 
L 357.808693 176.647445 
L 357.83913 176.68754 
L 357.900002 176.607349 
L 358.17393 176.527158 
L 358.386984 176.366777 
L 358.478293 176.366777 
L 358.721784 176.206395 
L 358.75222 176.24649 
L 358.782657 176.126204 
L 359.08702 176.046012 
L 359.391384 175.765345 
L 359.452257 175.80544 
L 359.482693 175.765345 
L 359.787057 175.524771 
L 360.000111 175.44458 
L 360.213166 175.324295 
L 360.334911 175.244104 
L 361.308875 174.081335 
L 361.339311 174.12143 
L 361.369748 174.041239 
L 361.552366 173.800667 
L 361.582802 173.800667 
L 361.826293 173.279426 
L 362.161093 172.677994 
L 362.495893 172.076561 
L 362.800257 171.515225 
L 363.256802 170.552934 
L 363.287239 170.552934 
L 363.561166 169.911406 
L 364.017711 168.98921 
L 364.322075 168.427874 
L 364.53513 167.986824 
L 364.596002 167.906633 
L 364.900366 167.385392 
L 364.961239 167.345297 
L 365.20473 166.984437 
L 366.665675 165.220236 
L 366.696111 165.260332 
L 366.726548 165.180141 
L 367.030911 164.899473 
L 367.061348 164.939569 
L 367.12222 164.859377 
L 367.639639 164.338136 
L 367.761384 164.257946 
L 367.974439 164.057469 
L 368.004875 164.097564 
L 368.12662 164.017373 
L 368.21793 163.977277 
L 368.248366 164.017373 
L 368.339675 163.937182 
L 368.613602 163.736705 
L 368.704911 163.696609 
L 368.857093 163.576323 
L 369.191893 163.295654 
L 369.526693 163.215464 
L 369.709311 163.135273 
L 369.80062 163.095177 
L 369.983239 162.8947 
L 370.13542 162.814509 
L 370.318039 162.614031 
L 370.439784 162.573936 
L 370.622402 162.373459 
L 371.748548 161.010213 
L 371.778984 161.050309 
L 371.80942 161.010213 
L 371.961602 160.76964 
L 372.083348 160.689449 
L 372.265966 160.448876 
L 372.326839 160.368685 
L 374.092148 157.882766 
L 374.518257 157.040762 
L 374.82262 156.479425 
L 375.096548 155.837898 
L 378.109748 147.618327 
L 378.474984 146.61594 
L 379.570693 143.448399 
L 380.057675 141.964866 
L 380.453348 140.681811 
L 380.757711 139.639329 
L 381.336002 137.754841 
L 381.457748 137.434078 
L 382.249093 134.747681 
L 382.85782 132.90329 
L 382.918693 132.662718 
L 382.918693 132.662718 
" style="fill:none;stroke:#0000ff;stroke-linecap:square;stroke-width:1.5;"/>
   </g>
   <g id="line2d_24">
    <path clip-path="url(#p50bcae368b)" d="M 78.555057 153.122392 
L 95.142875 153.202583 
L 95.295057 153.222631 
L 95.508111 153.202583 
L 95.721166 153.222631 
L 95.903784 153.222631 
L 99.921384 153.322869 
L 100.134439 153.342917 
L 100.499675 153.443156 
L 101.808439 154.405447 
L 102.204111 154.946736 
L 102.691093 155.748645 
L 103.39113 157.29232 
L 103.72593 158.194469 
L 104.365093 160.179194 
L 105.339057 163.767738 
L 110.239311 185.840292 
L 111.213275 188.667023 
L 111.730693 189.729553 
L 111.852439 189.909983 
L 112.126366 190.330985 
L 112.856839 191.112847 
L 113.00902 191.112847 
L 113.161202 191.092799 
L 113.404693 191.012608 
L 113.67862 190.812131 
L 113.76993 190.711892 
L 114.10473 190.371081 
L 114.469966 189.709505 
L 114.835202 188.767262 
L 115.413493 186.92287 
L 115.809166 185.579673 
L 116.752693 180.72812 
L 117.939711 173.049839 
L 119.491966 161.001152 
L 124.879202 112.345302 
L 125.73142 106.471317 
L 126.705384 100.757713 
L 128.014148 94.442677 
L 129.262039 89.951984 
L 129.809893 88.809267 
L 129.901202 88.729073 
L 130.449057 88.167733 
L 130.540366 88.067497 
L 131.209966 87.746734 
L 131.544766 87.86702 
L 132.670911 87.24554 
L 132.823093 87.345776 
L 133.52313 87.68659 
L 133.827493 87.786829 
L 134.162293 88.127644 
L 134.984075 89.029792 
L 135.410184 89.13003 
L 135.653675 89.390645 
L 136.140657 90.132414 
L 136.932002 90.773941 
L 137.388548 91.5558 
L 138.423384 93.841245 
L 138.666875 94.723342 
L 139.762584 99.915708 
L 140.432184 103.504249 
L 143.14102 120.204014 
L 144.601966 131.771557 
L 145.545493 138.708072 
L 146.854257 148.992559 
L 151.297966 186.100913 
L 152.424111 194.140054 
L 153.428511 200.054136 
L 154.706839 205.446976 
L 155.52862 207.792561 
L 155.711239 208.03313 
L 156.685202 209.155807 
L 157.659166 209.055568 
L 158.146148 208.614518 
L 158.480948 208.013086 
L 158.907057 207.191132 
L 160.97673 202.860818 
L 161.676766 200.715711 
L 163.442075 194.541009 
L 167.368366 176.959148 
L 168.129275 174.834088 
L 168.58582 174.052225 
L 168.829311 173.631223 
L 169.377166 173.069887 
L 169.529348 173.049839 
L 170.35113 173.150078 
L 170.716366 173.510937 
L 171.477275 175.25509 
L 172.35993 177.841248 
L 175.129639 191.092799 
L 176.28622 198.670842 
L 176.95582 203.301869 
L 177.686293 208.21356 
L 180.029893 222.948647 
L 180.547311 224.813083 
L 182.251748 229.003063 
L 182.98222 229.82502 
L 183.499639 229.363922 
L 183.74313 228.882773 
L 184.625784 226.276574 
L 185.143202 223.790655 
L 185.66062 220.522868 
L 186.66502 211.721917 
L 187.608548 201.297095 
L 189.252111 179.364875 
L 190.560875 158.795901 
L 195.308948 82.353893 
L 196.70902 66.195423 
L 198.596075 49.796374 
L 200.513566 37.888014 
L 201.213602 34.760574 
L 201.670148 33.637895 
L 202.765857 32.354843 
L 202.978911 32.455085 
L 203.191966 32.635511 
L 203.557202 32.936227 
L 204.07462 33.397332 
L 204.592039 34.640294 
L 205.261639 37.166296 
L 206.266039 43.762007 
L 209.09662 65.072747 
L 210.709748 77.943389 
L 211.805457 86.684207 
L 212.77942 94.643157 
L 215.79262 117.277045 
L 219.384111 144.782535 
L 220.90593 155.006879 
L 221.392911 158.154373 
L 222.458184 165.130984 
L 223.401711 170.644111 
L 224.223493 175.535759 
L 225.532257 183.434565 
L 226.536657 188.727166 
L 227.541057 193.438384 
L 229.549857 200.936236 
L 229.975966 201.95867 
L 231.52822 204.785404 
L 231.95433 205.527167 
L 234.754475 211.300917 
L 235.576257 213.165353 
L 236.367602 214.488504 
L 236.55022 214.709029 
L 236.97633 215.310461 
L 237.919857 216.372994 
L 238.863384 216.874184 
L 239.106875 216.834089 
L 239.685166 216.733853 
L 239.98953 216.633608 
L 240.141711 216.613564 
L 241.23742 216.713802 
L 241.57222 216.814038 
L 242.150511 216.914283 
L 242.485311 217.014518 
L 242.759239 217.114757 
L 243.67233 217.836475 
L 244.402802 218.979193 
L 247.385566 224.652705 
L 247.537748 224.853182 
L 247.93342 225.394471 
L 248.02473 225.494706 
L 248.298657 225.81547 
L 248.420402 225.875616 
L 248.633457 226.056046 
L 249.972657 225.95581 
L 250.307457 225.614996 
L 251.70753 223.610226 
L 252.529311 221.144351 
L 253.320657 217.61595 
L 255.29902 205.286597 
L 257.125202 188.707119 
L 257.855675 180.968694 
L 259.468802 161.682774 
L 262.055893 126.17824 
L 264.156002 96.046498 
L 265.525639 78.604967 
L 267.747493 53.545301 
L 269.086693 43.020237 
L 269.908475 38.329068 
L 270.395457 36.564874 
L 271.278111 34.540049 
L 271.399857 34.439807 
L 271.673784 34.259384 
L 272.495566 34.359613 
L 272.739057 34.640294 
L 273.499966 36.364396 
L 274.413057 39.712365 
L 275.417457 45.586357 
L 277.213202 59.359146 
L 279.222002 78.905686 
L 281.291675 100.837907 
L 287.19633 161.903299 
L 289.20513 180.64793 
L 292.12702 202.860818 
L 293.283602 209.817382 
L 293.46622 210.759629 
L 293.983639 213.185401 
L 294.622802 215.330512 
L 294.714111 215.591126 
L 295.383711 217.415473 
L 295.779384 218.17729 
L 296.175057 218.878957 
L 296.966402 220.202105 
L 297.422948 220.643158 
L 297.605566 220.743393 
L 297.81862 220.843638 
L 298.122984 220.923823 
L 298.366475 220.863683 
L 298.457784 220.823588 
L 299.188257 220.222156 
L 300.314402 218.598289 
L 300.710075 217.676097 
L 301.16662 216.533373 
L 301.684039 214.889458 
L 303.418911 207.592087 
L 304.362439 201.337191 
L 305.732075 190.631701 
L 306.553857 184.056046 
L 307.314766 178.342441 
L 308.319166 170.684207 
L 309.719239 161.321915 
L 310.601893 156.730984 
L 311.088875 154.485638 
L 312.945493 146.426449 
L 313.31073 144.862726 
L 314.497748 139.890889 
L 314.680366 139.149122 
L 315.441275 136.16201 
L 317.115275 131.02979 
L 317.937057 128.563919 
L 318.393602 127.200674 
L 319.184948 125.396377 
L 321.711166 119.021198 
L 321.92422 118.5601 
L 322.441639 117.297093 
L 322.989493 116.114276 
L 323.111239 115.933847 
L 323.385166 115.412606 
L 324.054766 113.949121 
L 325.089602 111.663679 
L 327.250584 106.270839 
L 328.37673 104.286114 
L 329.04633 103.223581 
L 329.411566 102.742441 
L 329.685493 102.441722 
L 330.142039 102.020723 
L 331.116002 101.499479 
L 331.876911 101.599714 
L 332.850875 102.361531 
L 334.129202 104.205923 
L 335.74233 108.73671 
L 336.716293 112.184921 
L 336.898911 112.786353 
L 338.99902 121.487069 
L 339.881675 126.057951 
L 340.855639 131.771557 
L 344.477566 156.289934 
L 345.481966 164.529552 
L 347.186402 178.182059 
L 348.403857 186.942918 
L 351.173566 204.504733 
L 351.782293 207.812605 
L 352.421457 210.960103 
L 353.48673 215.390652 
L 354.612875 218.658432 
L 355.008548 219.600676 
L 356.195566 221.705691 
L 356.439057 221.846025 
L 356.83473 221.765831 
L 357.139093 221.545306 
L 357.595639 221.124304 
L 357.960875 220.462728 
L 358.965275 218.257474 
L 359.634875 215.711415 
L 360.943639 208.233611 
L 361.734984 202.860818 
L 362.922002 194.320484 
L 363.956839 186.060817 
L 365.44822 173.31046 
L 366.756984 162.083729 
L 372.113784 113.708548 
L 373.209493 105.930028 
L 374.366075 98.331937 
L 375.279166 93.540529 
L 375.705275 91.776328 
L 376.283566 89.591125 
L 376.83142 87.846969 
L 377.744511 85.220716 
L 378.231493 84.238383 
L 378.657602 83.59685 
L 378.779348 83.496614 
L 379.570693 83.095656 
L 380.027239 83.195901 
L 380.240293 83.296137 
L 380.84902 83.817375 
L 381.549057 84.920006 
L 382.370839 86.784442 
L 382.918693 88.288022 
L 382.918693 88.288022 
" style="fill:none;stroke:#ff0000;stroke-linecap:square;stroke-width:1.5;"/>
   </g>
   <g id="line2d_25">
    <path clip-path="url(#p50bcae368b)" d="M 123.570439 161.731931 
" style="fill:none;stroke:#ffffff;stroke-linecap:square;stroke-width:1.5;"/>
    <defs>
     <path d="M 0 -5 
L -1.12257 -1.545085 
L -4.755283 -1.545085 
L -1.816356 0.59017 
L -2.938926 4.045085 
L -0 1.90983 
L 2.938926 4.045085 
L 1.816356 0.59017 
L 4.755283 -1.545085 
L 1.12257 -1.545085 
z
" id="ma7113265fe" style="stroke:#ffffff;stroke-linejoin:bevel;"/>
    </defs>
    <g clip-path="url(#p50bcae368b)">
     <use style="fill:#0000ff;stroke:#ffffff;stroke-linejoin:bevel;" x="123.570439" xlink:href="#ma7113265fe" y="161.731931"/>
    </g>
   </g>
   <g id="line2d_26">
    <path clip-path="url(#p50bcae368b)" d="M 104.06073 159.216903 
" style="fill:none;stroke:#ffffff;stroke-linecap:square;stroke-width:1.5;"/>
    <defs>
     <path d="M 0 -5 
L -1.12257 -1.545085 
L -4.755283 -1.545085 
L -1.816356 0.59017 
L -2.938926 4.045085 
L -0 1.90983 
L 2.938926 4.045085 
L 1.816356 0.59017 
L 4.755283 -1.545085 
L 1.12257 -1.545085 
z
" id="mc452149acb" style="stroke:#ffffff;stroke-linejoin:bevel;"/>
    </defs>
    <g clip-path="url(#p50bcae368b)">
     <use style="fill:#ff0000;stroke:#ffffff;stroke-linejoin:bevel;" x="104.06073" xlink:href="#mc452149acb" y="159.216903"/>
    </g>
   </g>
   <g id="patch_3">
    <path d="M 63.336875 339.84 
L 63.336875 7.2 
" style="fill:none;stroke:#000000;stroke-linecap:square;stroke-linejoin:miter;stroke-width:0.8;"/>
   </g>
   <g id="patch_4">
    <path d="M 398.136875 339.84 
L 398.136875 7.2 
" style="fill:none;stroke:#000000;stroke-linecap:square;stroke-linejoin:miter;stroke-width:0.8;"/>
   </g>
   <g id="patch_5">
    <path d="M 63.336875 339.84 
L 398.136875 339.84 
" style="fill:none;stroke:#000000;stroke-linecap:square;stroke-linejoin:miter;stroke-width:0.8;"/>
   </g>
   <g id="patch_6">
    <path d="M 63.336875 7.2 
L 398.136875 7.2 
" style="fill:none;stroke:#000000;stroke-linecap:square;stroke-linejoin:miter;stroke-width:0.8;"/>
   </g>
   <g id="text_14">
    <g id="patch_7">
     <path d="M 75.036875 331.242688 
L 166.26875 331.242688 
L 166.26875 293.760312 
L 75.036875 293.760312 
z
" style="fill:#ffffff;stroke:#000000;stroke-linejoin:miter;stroke-width:0.75;"/>
    </g>
    <!-- Auto_00145 -->
    <g transform="translate(80.076875 308.521563)scale(0.14 -0.14)">
     <defs>
      <path d="M 2928 1419 
L 1288 1419 
L 1000 750 
Q 894 503 894 381 
Q 894 284 986 211 
Q 1078 138 1384 116 
L 1384 0 
L 50 0 
L 50 116 
Q 316 163 394 238 
Q 553 388 747 847 
L 2238 4334 
L 2347 4334 
L 3822 809 
Q 4000 384 4145 257 
Q 4291 131 4550 116 
L 4550 0 
L 2878 0 
L 2878 116 
Q 3131 128 3220 200 
Q 3309 272 3309 375 
Q 3309 513 3184 809 
L 2928 1419 
z
M 2841 1650 
L 2122 3363 
L 1384 1650 
L 2841 1650 
z
" id="TimesNewRomanPSMT-41" transform="scale(0.015625)"/>
      <path d="M 2709 2863 
L 2709 1128 
Q 2709 631 2732 520 
Q 2756 409 2807 365 
Q 2859 322 2928 322 
Q 3025 322 3147 375 
L 3191 266 
L 2334 -88 
L 2194 -88 
L 2194 519 
Q 1825 119 1631 15 
Q 1438 -88 1222 -88 
Q 981 -88 804 51 
Q 628 191 559 409 
Q 491 628 491 1028 
L 491 2306 
Q 491 2509 447 2587 
Q 403 2666 317 2708 
Q 231 2750 6 2747 
L 6 2863 
L 1009 2863 
L 1009 947 
Q 1009 547 1148 422 
Q 1288 297 1484 297 
Q 1619 297 1789 381 
Q 1959 466 2194 703 
L 2194 2325 
Q 2194 2569 2105 2655 
Q 2016 2741 1734 2747 
L 1734 2863 
L 2709 2863 
z
" id="TimesNewRomanPSMT-75" transform="scale(0.015625)"/>
      <path d="M 3256 -1381 
L -53 -1381 
L -53 -1119 
L 3256 -1119 
L 3256 -1381 
z
" id="TimesNewRomanPSMT-5f" transform="scale(0.015625)"/>
     </defs>
     <use xlink:href="#TimesNewRomanPSMT-41"/>
     <use x="72.216797" xlink:href="#TimesNewRomanPSMT-75"/>
     <use x="122.216797" xlink:href="#TimesNewRomanPSMT-74"/>
     <use x="150" xlink:href="#TimesNewRomanPSMT-6f"/>
     <use x="200" xlink:href="#TimesNewRomanPSMT-5f"/>
     <use x="250" xlink:href="#TimesNewRomanPSMT-30"/>
     <use x="300" xlink:href="#TimesNewRomanPSMT-30"/>
     <use x="350" xlink:href="#TimesNewRomanPSMT-31"/>
     <use x="400" xlink:href="#TimesNewRomanPSMT-34"/>
     <use x="450" xlink:href="#TimesNewRomanPSMT-35"/>
    </g>
    <!-- Vs: 311.81m/s -->
    <g transform="translate(80.076875 323.208)scale(0.14 -0.14)">
     <defs>
      <path d="M 903 2950 
Q 1047 2950 1148 2848 
Q 1250 2747 1250 2603 
Q 1250 2459 1148 2357 
Q 1047 2256 903 2256 
Q 759 2256 657 2357 
Q 556 2459 556 2603 
Q 556 2747 657 2848 
Q 759 2950 903 2950 
z
M 897 609 
Q 1044 609 1145 506 
Q 1247 403 1247 259 
Q 1247 116 1144 14 
Q 1041 -88 897 -88 
Q 753 -88 651 14 
Q 550 116 550 259 
Q 550 403 651 506 
Q 753 609 897 609 
z
" id="TimesNewRomanPSMT-3a" transform="scale(0.015625)"/>
      <path d="M 1228 2134 
Q 725 2547 579 2797 
Q 434 3047 434 3316 
Q 434 3728 753 4026 
Q 1072 4325 1600 4325 
Q 2113 4325 2425 4047 
Q 2738 3769 2738 3413 
Q 2738 3175 2569 2928 
Q 2400 2681 1866 2347 
Q 2416 1922 2594 1678 
Q 2831 1359 2831 1006 
Q 2831 559 2490 242 
Q 2150 -75 1597 -75 
Q 994 -75 656 303 
Q 388 606 388 966 
Q 388 1247 577 1523 
Q 766 1800 1228 2134 
z
M 1719 2469 
Q 2094 2806 2194 3001 
Q 2294 3197 2294 3444 
Q 2294 3772 2109 3958 
Q 1925 4144 1606 4144 
Q 1288 4144 1088 3959 
Q 888 3775 888 3528 
Q 888 3366 970 3203 
Q 1053 3041 1206 2894 
L 1719 2469 
z
M 1375 2016 
Q 1116 1797 991 1539 
Q 866 1281 866 981 
Q 866 578 1086 336 
Q 1306 94 1647 94 
Q 1984 94 2187 284 
Q 2391 475 2391 747 
Q 2391 972 2272 1150 
Q 2050 1481 1375 2016 
z
" id="TimesNewRomanPSMT-38" transform="scale(0.015625)"/>
      <path d="M 1794 4444 
L 259 -88 
L 9 -88 
L 1544 4444 
L 1794 4444 
z
" id="TimesNewRomanPSMT-2f" transform="scale(0.015625)"/>
     </defs>
     <use xlink:href="#TimesNewRomanPSMT-56"/>
     <use x="72.216797" xlink:href="#TimesNewRomanPSMT-73"/>
     <use x="111.132812" xlink:href="#TimesNewRomanPSMT-3a"/>
     <use x="138.916016" xlink:href="#TimesNewRomanPSMT-20"/>
     <use x="163.916016" xlink:href="#TimesNewRomanPSMT-33"/>
     <use x="213.916016" xlink:href="#TimesNewRomanPSMT-31"/>
     <use x="260.166016" xlink:href="#TimesNewRomanPSMT-31"/>
     <use x="310.166016" xlink:href="#TimesNewRomanPSMT-2e"/>
     <use x="335.166016" xlink:href="#TimesNewRomanPSMT-38"/>
     <use x="385.166016" xlink:href="#TimesNewRomanPSMT-31"/>
     <use x="435.166016" xlink:href="#TimesNewRomanPSMT-6d"/>
     <use x="512.949219" xlink:href="#TimesNewRomanPSMT-2f"/>
     <use x="540.732422" xlink:href="#TimesNewRomanPSMT-73"/>
    </g>
   </g>
  </g>
 </g>
 <defs>
  <clipPath id="p50bcae368b">
   <rect height="332.64" width="334.8" x="63.336875" y="7.2"/>
  </clipPath>
 </defs>
</svg>
