<?xml version="1.0" encoding="utf-8" standalone="no"?>
<!DOCTYPE svg PUBLIC "-//W3C//DTD SVG 1.1//EN"
  "http://www.w3.org/Graphics/SVG/1.1/DTD/svg11.dtd">
<svg height="383.471875pt" version="1.1" viewBox="0 0 421.086875 383.471875" width="421.086875pt" xmlns="http://www.w3.org/2000/svg" xmlns:xlink="http://www.w3.org/1999/xlink">
 <metadata>
  <rdf:RDF xmlns:cc="http://creativecommons.org/ns#" xmlns:dc="http://purl.org/dc/elements/1.1/" xmlns:rdf="http://www.w3.org/1999/02/22-rdf-syntax-ns#">
   <cc:Work>
    <dc:type rdf:resource="http://purl.org/dc/dcmitype/StillImage"/>
    <dc:date>2021-06-11T14:39:38.516915</dc:date>
    <dc:format>image/svg+xml</dc:format>
    <dc:creator>
     <cc:Agent>
      <dc:title>Matplotlib v3.4.2, https://matplotlib.org/</dc:title>
     </cc:Agent>
    </dc:creator>
   </cc:Work>
  </rdf:RDF>
 </metadata>
 <defs>
  <style type="text/css">*{stroke-linecap:butt;stroke-linejoin:round;}</style>
 </defs>
 <g id="figure_1">
  <g id="patch_1">
   <path d="M 0 383.471875 
L 421.086875 383.471875 
L 421.086875 0 
L 0 0 
z
" style="fill:#ffffff;"/>
  </g>
  <g id="axes_1">
   <g id="patch_2">
    <path d="M 63.336875 339.84 
L 398.136875 339.84 
L 398.136875 7.2 
L 63.336875 7.2 
z
" style="fill:#ffffff;"/>
   </g>
   <g id="matplotlib.axis_1">
    <g id="xtick_1">
     <g id="line2d_1">
      <path clip-path="url(#p2a5967e3a3)" d="M 93.773239 339.84 
L 93.773239 7.2 
" style="fill:none;stroke:#000000;stroke-dasharray:0.5,0.825;stroke-dashoffset:0;stroke-width:0.5;"/>
     </g>
     <g id="line2d_2">
      <defs>
       <path d="M 0 0 
L 0 3.5 
" id="me75720f941" style="stroke:#000000;stroke-width:0.8;"/>
      </defs>
      <g>
       <use style="stroke:#000000;stroke-width:0.8;" x="93.773239" xlink:href="#me75720f941" y="339.84"/>
      </g>
     </g>
     <g id="text_1">
      <!-- 0.000 -->
      <g transform="translate(78.023239 356.56125)scale(0.14 -0.14)">
       <defs>
        <path d="M 231 2094 
Q 231 2819 450 3342 
Q 669 3866 1031 4122 
Q 1313 4325 1613 4325 
Q 2100 4325 2488 3828 
Q 2972 3213 2972 2159 
Q 2972 1422 2759 906 
Q 2547 391 2217 158 
Q 1888 -75 1581 -75 
Q 975 -75 572 641 
Q 231 1244 231 2094 
z
M 844 2016 
Q 844 1141 1059 588 
Q 1238 122 1591 122 
Q 1759 122 1940 273 
Q 2122 425 2216 781 
Q 2359 1319 2359 2297 
Q 2359 3022 2209 3506 
Q 2097 3866 1919 4016 
Q 1791 4119 1609 4119 
Q 1397 4119 1231 3928 
Q 1006 3669 925 3112 
Q 844 2556 844 2016 
z
" id="TimesNewRomanPSMT-30" transform="scale(0.015625)"/>
        <path d="M 800 606 
Q 947 606 1047 504 
Q 1147 403 1147 259 
Q 1147 116 1045 14 
Q 944 -88 800 -88 
Q 656 -88 554 14 
Q 453 116 453 259 
Q 453 406 554 506 
Q 656 606 800 606 
z
" id="TimesNewRomanPSMT-2e" transform="scale(0.015625)"/>
       </defs>
       <use xlink:href="#TimesNewRomanPSMT-30"/>
       <use x="50" xlink:href="#TimesNewRomanPSMT-2e"/>
       <use x="75" xlink:href="#TimesNewRomanPSMT-30"/>
       <use x="125" xlink:href="#TimesNewRomanPSMT-30"/>
       <use x="175" xlink:href="#TimesNewRomanPSMT-30"/>
      </g>
     </g>
    </g>
    <g id="xtick_2">
     <g id="line2d_3">
      <path clip-path="url(#p2a5967e3a3)" d="M 154.645966 339.84 
L 154.645966 7.2 
" style="fill:none;stroke:#000000;stroke-dasharray:0.5,0.825;stroke-dashoffset:0;stroke-width:0.5;"/>
     </g>
     <g id="line2d_4">
      <g>
       <use style="stroke:#000000;stroke-width:0.8;" x="154.645966" xlink:href="#me75720f941" y="339.84"/>
      </g>
     </g>
     <g id="text_2">
      <!-- 0.001 -->
      <g transform="translate(138.895966 356.56125)scale(0.14 -0.14)">
       <defs>
        <path d="M 750 3822 
L 1781 4325 
L 1884 4325 
L 1884 747 
Q 1884 391 1914 303 
Q 1944 216 2037 169 
Q 2131 122 2419 116 
L 2419 0 
L 825 0 
L 825 116 
Q 1125 122 1212 167 
Q 1300 213 1334 289 
Q 1369 366 1369 747 
L 1369 3034 
Q 1369 3497 1338 3628 
Q 1316 3728 1258 3775 
Q 1200 3822 1119 3822 
Q 1003 3822 797 3725 
L 750 3822 
z
" id="TimesNewRomanPSMT-31" transform="scale(0.015625)"/>
       </defs>
       <use xlink:href="#TimesNewRomanPSMT-30"/>
       <use x="50" xlink:href="#TimesNewRomanPSMT-2e"/>
       <use x="75" xlink:href="#TimesNewRomanPSMT-30"/>
       <use x="125" xlink:href="#TimesNewRomanPSMT-30"/>
       <use x="175" xlink:href="#TimesNewRomanPSMT-31"/>
      </g>
     </g>
    </g>
    <g id="xtick_3">
     <g id="line2d_5">
      <path clip-path="url(#p2a5967e3a3)" d="M 215.518693 339.84 
L 215.518693 7.2 
" style="fill:none;stroke:#000000;stroke-dasharray:0.5,0.825;stroke-dashoffset:0;stroke-width:0.5;"/>
     </g>
     <g id="line2d_6">
      <g>
       <use style="stroke:#000000;stroke-width:0.8;" x="215.518693" xlink:href="#me75720f941" y="339.84"/>
      </g>
     </g>
     <g id="text_3">
      <!-- 0.002 -->
      <g transform="translate(199.768693 356.56125)scale(0.14 -0.14)">
       <defs>
        <path d="M 2934 816 
L 2638 0 
L 138 0 
L 138 116 
Q 1241 1122 1691 1759 
Q 2141 2397 2141 2925 
Q 2141 3328 1894 3587 
Q 1647 3847 1303 3847 
Q 991 3847 742 3664 
Q 494 3481 375 3128 
L 259 3128 
Q 338 3706 661 4015 
Q 984 4325 1469 4325 
Q 1984 4325 2329 3994 
Q 2675 3663 2675 3213 
Q 2675 2891 2525 2569 
Q 2294 2063 1775 1497 
Q 997 647 803 472 
L 1909 472 
Q 2247 472 2383 497 
Q 2519 522 2628 598 
Q 2738 675 2819 816 
L 2934 816 
z
" id="TimesNewRomanPSMT-32" transform="scale(0.015625)"/>
       </defs>
       <use xlink:href="#TimesNewRomanPSMT-30"/>
       <use x="50" xlink:href="#TimesNewRomanPSMT-2e"/>
       <use x="75" xlink:href="#TimesNewRomanPSMT-30"/>
       <use x="125" xlink:href="#TimesNewRomanPSMT-30"/>
       <use x="175" xlink:href="#TimesNewRomanPSMT-32"/>
      </g>
     </g>
    </g>
    <g id="xtick_4">
     <g id="line2d_7">
      <path clip-path="url(#p2a5967e3a3)" d="M 276.39142 339.84 
L 276.39142 7.2 
" style="fill:none;stroke:#000000;stroke-dasharray:0.5,0.825;stroke-dashoffset:0;stroke-width:0.5;"/>
     </g>
     <g id="line2d_8">
      <g>
       <use style="stroke:#000000;stroke-width:0.8;" x="276.39142" xlink:href="#me75720f941" y="339.84"/>
      </g>
     </g>
     <g id="text_4">
      <!-- 0.003 -->
      <g transform="translate(260.64142 356.56125)scale(0.14 -0.14)">
       <defs>
        <path d="M 325 3431 
Q 506 3859 782 4092 
Q 1059 4325 1472 4325 
Q 1981 4325 2253 3994 
Q 2459 3747 2459 3466 
Q 2459 3003 1878 2509 
Q 2269 2356 2469 2072 
Q 2669 1788 2669 1403 
Q 2669 853 2319 450 
Q 1863 -75 997 -75 
Q 569 -75 414 31 
Q 259 138 259 259 
Q 259 350 332 419 
Q 406 488 509 488 
Q 588 488 669 463 
Q 722 447 909 348 
Q 1097 250 1169 231 
Q 1284 197 1416 197 
Q 1734 197 1970 444 
Q 2206 691 2206 1028 
Q 2206 1275 2097 1509 
Q 2016 1684 1919 1775 
Q 1784 1900 1550 2001 
Q 1316 2103 1072 2103 
L 972 2103 
L 972 2197 
Q 1219 2228 1467 2375 
Q 1716 2522 1828 2728 
Q 1941 2934 1941 3181 
Q 1941 3503 1739 3701 
Q 1538 3900 1238 3900 
Q 753 3900 428 3381 
L 325 3431 
z
" id="TimesNewRomanPSMT-33" transform="scale(0.015625)"/>
       </defs>
       <use xlink:href="#TimesNewRomanPSMT-30"/>
       <use x="50" xlink:href="#TimesNewRomanPSMT-2e"/>
       <use x="75" xlink:href="#TimesNewRomanPSMT-30"/>
       <use x="125" xlink:href="#TimesNewRomanPSMT-30"/>
       <use x="175" xlink:href="#TimesNewRomanPSMT-33"/>
      </g>
     </g>
    </g>
    <g id="xtick_5">
     <g id="line2d_9">
      <path clip-path="url(#p2a5967e3a3)" d="M 337.264148 339.84 
L 337.264148 7.2 
" style="fill:none;stroke:#000000;stroke-dasharray:0.5,0.825;stroke-dashoffset:0;stroke-width:0.5;"/>
     </g>
     <g id="line2d_10">
      <g>
       <use style="stroke:#000000;stroke-width:0.8;" x="337.264148" xlink:href="#me75720f941" y="339.84"/>
      </g>
     </g>
     <g id="text_5">
      <!-- 0.004 -->
      <g transform="translate(321.514148 356.56125)scale(0.14 -0.14)">
       <defs>
        <path d="M 2978 1563 
L 2978 1119 
L 2409 1119 
L 2409 0 
L 1894 0 
L 1894 1119 
L 100 1119 
L 100 1519 
L 2066 4325 
L 2409 4325 
L 2409 1563 
L 2978 1563 
z
M 1894 1563 
L 1894 3666 
L 406 1563 
L 1894 1563 
z
" id="TimesNewRomanPSMT-34" transform="scale(0.015625)"/>
       </defs>
       <use xlink:href="#TimesNewRomanPSMT-30"/>
       <use x="50" xlink:href="#TimesNewRomanPSMT-2e"/>
       <use x="75" xlink:href="#TimesNewRomanPSMT-30"/>
       <use x="125" xlink:href="#TimesNewRomanPSMT-30"/>
       <use x="175" xlink:href="#TimesNewRomanPSMT-34"/>
      </g>
     </g>
    </g>
    <g id="xtick_6">
     <g id="line2d_11">
      <path clip-path="url(#p2a5967e3a3)" d="M 398.136875 339.84 
L 398.136875 7.2 
" style="fill:none;stroke:#000000;stroke-dasharray:0.5,0.825;stroke-dashoffset:0;stroke-width:0.5;"/>
     </g>
     <g id="line2d_12">
      <g>
       <use style="stroke:#000000;stroke-width:0.8;" x="398.136875" xlink:href="#me75720f941" y="339.84"/>
      </g>
     </g>
     <g id="text_6">
      <!-- 0.005 -->
      <g transform="translate(382.386875 356.56125)scale(0.14 -0.14)">
       <defs>
        <path d="M 2778 4238 
L 2534 3706 
L 1259 3706 
L 981 3138 
Q 1809 3016 2294 2522 
Q 2709 2097 2709 1522 
Q 2709 1188 2573 903 
Q 2438 619 2231 419 
Q 2025 219 1772 97 
Q 1413 -75 1034 -75 
Q 653 -75 479 54 
Q 306 184 306 341 
Q 306 428 378 495 
Q 450 563 559 563 
Q 641 563 702 538 
Q 763 513 909 409 
Q 1144 247 1384 247 
Q 1750 247 2026 523 
Q 2303 800 2303 1197 
Q 2303 1581 2056 1914 
Q 1809 2247 1375 2428 
Q 1034 2569 447 2591 
L 1259 4238 
L 2778 4238 
z
" id="TimesNewRomanPSMT-35" transform="scale(0.015625)"/>
       </defs>
       <use xlink:href="#TimesNewRomanPSMT-30"/>
       <use x="50" xlink:href="#TimesNewRomanPSMT-2e"/>
       <use x="75" xlink:href="#TimesNewRomanPSMT-30"/>
       <use x="125" xlink:href="#TimesNewRomanPSMT-30"/>
       <use x="175" xlink:href="#TimesNewRomanPSMT-35"/>
      </g>
     </g>
    </g>
    <g id="text_7">
     <!-- Time (sec) -->
     <g transform="translate(200.858906 373.277188)scale(0.14 -0.14)">
      <defs>
       <path d="M 3703 4238 
L 3750 3244 
L 3631 3244 
Q 3597 3506 3538 3619 
Q 3441 3800 3280 3886 
Q 3119 3972 2856 3972 
L 2259 3972 
L 2259 734 
Q 2259 344 2344 247 
Q 2463 116 2709 116 
L 2856 116 
L 2856 0 
L 1059 0 
L 1059 116 
L 1209 116 
Q 1478 116 1591 278 
Q 1659 378 1659 734 
L 1659 3972 
L 1150 3972 
Q 853 3972 728 3928 
Q 566 3869 450 3700 
Q 334 3531 313 3244 
L 194 3244 
L 244 4238 
L 3703 4238 
z
" id="TimesNewRomanPSMT-54" transform="scale(0.015625)"/>
       <path d="M 928 4444 
Q 1059 4444 1151 4351 
Q 1244 4259 1244 4128 
Q 1244 3997 1151 3903 
Q 1059 3809 928 3809 
Q 797 3809 703 3903 
Q 609 3997 609 4128 
Q 609 4259 701 4351 
Q 794 4444 928 4444 
z
M 1188 2947 
L 1188 647 
Q 1188 378 1227 289 
Q 1266 200 1342 156 
Q 1419 113 1622 113 
L 1622 0 
L 231 0 
L 231 113 
Q 441 113 512 153 
Q 584 194 626 287 
Q 669 381 669 647 
L 669 1750 
Q 669 2216 641 2353 
Q 619 2453 572 2492 
Q 525 2531 444 2531 
Q 356 2531 231 2484 
L 188 2597 
L 1050 2947 
L 1188 2947 
z
" id="TimesNewRomanPSMT-69" transform="scale(0.015625)"/>
       <path d="M 1050 2338 
Q 1363 2650 1419 2697 
Q 1559 2816 1721 2881 
Q 1884 2947 2044 2947 
Q 2313 2947 2506 2790 
Q 2700 2634 2766 2338 
Q 3088 2713 3309 2830 
Q 3531 2947 3766 2947 
Q 3994 2947 4170 2830 
Q 4347 2713 4450 2447 
Q 4519 2266 4519 1878 
L 4519 647 
Q 4519 378 4559 278 
Q 4591 209 4675 161 
Q 4759 113 4950 113 
L 4950 0 
L 3538 0 
L 3538 113 
L 3597 113 
Q 3781 113 3884 184 
Q 3956 234 3988 344 
Q 4000 397 4000 647 
L 4000 1878 
Q 4000 2228 3916 2372 
Q 3794 2572 3525 2572 
Q 3359 2572 3192 2489 
Q 3025 2406 2788 2181 
L 2781 2147 
L 2788 2013 
L 2788 647 
Q 2788 353 2820 281 
Q 2853 209 2943 161 
Q 3034 113 3253 113 
L 3253 0 
L 1806 0 
L 1806 113 
Q 2044 113 2133 169 
Q 2222 225 2256 338 
Q 2272 391 2272 647 
L 2272 1878 
Q 2272 2228 2169 2381 
Q 2031 2581 1784 2581 
Q 1616 2581 1450 2491 
Q 1191 2353 1050 2181 
L 1050 647 
Q 1050 366 1089 281 
Q 1128 197 1204 155 
Q 1281 113 1516 113 
L 1516 0 
L 100 0 
L 100 113 
Q 297 113 375 155 
Q 453 197 493 289 
Q 534 381 534 647 
L 534 1741 
Q 534 2213 506 2350 
Q 484 2453 437 2492 
Q 391 2531 309 2531 
Q 222 2531 100 2484 
L 53 2597 
L 916 2947 
L 1050 2947 
L 1050 2338 
z
" id="TimesNewRomanPSMT-6d" transform="scale(0.015625)"/>
       <path d="M 681 1784 
Q 678 1147 991 784 
Q 1303 422 1725 422 
Q 2006 422 2214 576 
Q 2422 731 2563 1106 
L 2659 1044 
Q 2594 616 2278 264 
Q 1963 -88 1488 -88 
Q 972 -88 605 314 
Q 238 716 238 1394 
Q 238 2128 614 2539 
Q 991 2950 1559 2950 
Q 2041 2950 2350 2633 
Q 2659 2316 2659 1784 
L 681 1784 
z
M 681 1966 
L 2006 1966 
Q 1991 2241 1941 2353 
Q 1863 2528 1708 2628 
Q 1553 2728 1384 2728 
Q 1125 2728 920 2526 
Q 716 2325 681 1966 
z
" id="TimesNewRomanPSMT-65" transform="scale(0.015625)"/>
       <path id="TimesNewRomanPSMT-20" transform="scale(0.015625)"/>
       <path d="M 1988 -1253 
L 1988 -1369 
Q 1516 -1131 1200 -813 
Q 750 -359 506 256 
Q 263 872 263 1534 
Q 263 2503 741 3301 
Q 1219 4100 1988 4444 
L 1988 4313 
Q 1603 4100 1356 3731 
Q 1109 3363 987 2797 
Q 866 2231 866 1616 
Q 866 947 969 400 
Q 1050 -31 1165 -292 
Q 1281 -553 1476 -793 
Q 1672 -1034 1988 -1253 
z
" id="TimesNewRomanPSMT-28" transform="scale(0.015625)"/>
       <path d="M 2050 2947 
L 2050 1972 
L 1947 1972 
Q 1828 2431 1642 2597 
Q 1456 2763 1169 2763 
Q 950 2763 815 2647 
Q 681 2531 681 2391 
Q 681 2216 781 2091 
Q 878 1963 1175 1819 
L 1631 1597 
Q 2266 1288 2266 781 
Q 2266 391 1970 151 
Q 1675 -88 1309 -88 
Q 1047 -88 709 6 
Q 606 38 541 38 
Q 469 38 428 -44 
L 325 -44 
L 325 978 
L 428 978 
Q 516 541 762 319 
Q 1009 97 1316 97 
Q 1531 97 1667 223 
Q 1803 350 1803 528 
Q 1803 744 1651 891 
Q 1500 1038 1047 1263 
Q 594 1488 453 1669 
Q 313 1847 313 2119 
Q 313 2472 555 2709 
Q 797 2947 1181 2947 
Q 1350 2947 1591 2875 
Q 1750 2828 1803 2828 
Q 1853 2828 1881 2850 
Q 1909 2872 1947 2947 
L 2050 2947 
z
" id="TimesNewRomanPSMT-73" transform="scale(0.015625)"/>
       <path d="M 2631 1088 
Q 2516 522 2178 217 
Q 1841 -88 1431 -88 
Q 944 -88 581 321 
Q 219 731 219 1428 
Q 219 2103 620 2525 
Q 1022 2947 1584 2947 
Q 2006 2947 2278 2723 
Q 2550 2500 2550 2259 
Q 2550 2141 2473 2067 
Q 2397 1994 2259 1994 
Q 2075 1994 1981 2113 
Q 1928 2178 1911 2362 
Q 1894 2547 1784 2644 
Q 1675 2738 1481 2738 
Q 1169 2738 978 2506 
Q 725 2200 725 1697 
Q 725 1184 976 792 
Q 1228 400 1656 400 
Q 1963 400 2206 609 
Q 2378 753 2541 1131 
L 2631 1088 
z
" id="TimesNewRomanPSMT-63" transform="scale(0.015625)"/>
       <path d="M 144 4313 
L 144 4444 
Q 619 4209 934 3891 
Q 1381 3434 1625 2820 
Q 1869 2206 1869 1541 
Q 1869 572 1392 -226 
Q 916 -1025 144 -1369 
L 144 -1253 
Q 528 -1038 776 -670 
Q 1025 -303 1145 264 
Q 1266 831 1266 1447 
Q 1266 2113 1163 2663 
Q 1084 3094 967 3353 
Q 850 3613 656 3853 
Q 463 4094 144 4313 
z
" id="TimesNewRomanPSMT-29" transform="scale(0.015625)"/>
      </defs>
      <use xlink:href="#TimesNewRomanPSMT-54"/>
      <use x="57.583984" xlink:href="#TimesNewRomanPSMT-69"/>
      <use x="85.367188" xlink:href="#TimesNewRomanPSMT-6d"/>
      <use x="163.150391" xlink:href="#TimesNewRomanPSMT-65"/>
      <use x="207.535156" xlink:href="#TimesNewRomanPSMT-20"/>
      <use x="232.535156" xlink:href="#TimesNewRomanPSMT-28"/>
      <use x="265.835938" xlink:href="#TimesNewRomanPSMT-73"/>
      <use x="304.751953" xlink:href="#TimesNewRomanPSMT-65"/>
      <use x="349.136719" xlink:href="#TimesNewRomanPSMT-63"/>
      <use x="393.521484" xlink:href="#TimesNewRomanPSMT-29"/>
     </g>
    </g>
   </g>
   <g id="matplotlib.axis_2">
    <g id="ytick_1">
     <g id="line2d_13">
      <path clip-path="url(#p2a5967e3a3)" d="M 63.336875 309.565994 
L 398.136875 309.565994 
" style="fill:none;stroke:#000000;stroke-dasharray:0.5,0.825;stroke-dashoffset:0;stroke-width:0.5;"/>
     </g>
     <g id="line2d_14">
      <defs>
       <path d="M 0 0 
L -3.5 0 
" id="m81d5058c59" style="stroke:#000000;stroke-width:0.8;"/>
      </defs>
      <g>
       <use style="stroke:#000000;stroke-width:0.8;" x="63.336875" xlink:href="#m81d5058c59" y="309.565994"/>
      </g>
     </g>
     <g id="text_8">
      <!-- −0.06 -->
      <g transform="translate(23.942188 314.426619)scale(0.14 -0.14)">
       <defs>
        <path d="M 3484 2000 
L 116 2000 
L 116 2256 
L 3484 2256 
L 3484 2000 
z
" id="TimesNewRomanPSMT-2212" transform="scale(0.015625)"/>
        <path d="M 2869 4325 
L 2869 4209 
Q 2456 4169 2195 4045 
Q 1934 3922 1679 3669 
Q 1425 3416 1258 3105 
Q 1091 2794 978 2366 
Q 1428 2675 1881 2675 
Q 2316 2675 2634 2325 
Q 2953 1975 2953 1425 
Q 2953 894 2631 456 
Q 2244 -75 1606 -75 
Q 1172 -75 869 213 
Q 275 772 275 1663 
Q 275 2231 503 2743 
Q 731 3256 1154 3653 
Q 1578 4050 1965 4187 
Q 2353 4325 2688 4325 
L 2869 4325 
z
M 925 2138 
Q 869 1716 869 1456 
Q 869 1156 980 804 
Q 1091 453 1309 247 
Q 1469 100 1697 100 
Q 1969 100 2183 356 
Q 2397 613 2397 1088 
Q 2397 1622 2184 2012 
Q 1972 2403 1581 2403 
Q 1463 2403 1327 2353 
Q 1191 2303 925 2138 
z
" id="TimesNewRomanPSMT-36" transform="scale(0.015625)"/>
       </defs>
       <use xlink:href="#TimesNewRomanPSMT-2212"/>
       <use x="56.396484" xlink:href="#TimesNewRomanPSMT-30"/>
       <use x="106.396484" xlink:href="#TimesNewRomanPSMT-2e"/>
       <use x="131.396484" xlink:href="#TimesNewRomanPSMT-30"/>
       <use x="181.396484" xlink:href="#TimesNewRomanPSMT-36"/>
      </g>
     </g>
    </g>
    <g id="ytick_2">
     <g id="line2d_15">
      <path clip-path="url(#p2a5967e3a3)" d="M 63.336875 258.572484 
L 398.136875 258.572484 
" style="fill:none;stroke:#000000;stroke-dasharray:0.5,0.825;stroke-dashoffset:0;stroke-width:0.5;"/>
     </g>
     <g id="line2d_16">
      <g>
       <use style="stroke:#000000;stroke-width:0.8;" x="63.336875" xlink:href="#m81d5058c59" y="258.572484"/>
      </g>
     </g>
     <g id="text_9">
      <!-- −0.04 -->
      <g transform="translate(23.942188 263.433109)scale(0.14 -0.14)">
       <use xlink:href="#TimesNewRomanPSMT-2212"/>
       <use x="56.396484" xlink:href="#TimesNewRomanPSMT-30"/>
       <use x="106.396484" xlink:href="#TimesNewRomanPSMT-2e"/>
       <use x="131.396484" xlink:href="#TimesNewRomanPSMT-30"/>
       <use x="181.396484" xlink:href="#TimesNewRomanPSMT-34"/>
      </g>
     </g>
    </g>
    <g id="ytick_3">
     <g id="line2d_17">
      <path clip-path="url(#p2a5967e3a3)" d="M 63.336875 207.578974 
L 398.136875 207.578974 
" style="fill:none;stroke:#000000;stroke-dasharray:0.5,0.825;stroke-dashoffset:0;stroke-width:0.5;"/>
     </g>
     <g id="line2d_18">
      <g>
       <use style="stroke:#000000;stroke-width:0.8;" x="63.336875" xlink:href="#m81d5058c59" y="207.578974"/>
      </g>
     </g>
     <g id="text_10">
      <!-- −0.02 -->
      <g transform="translate(23.942188 212.439599)scale(0.14 -0.14)">
       <use xlink:href="#TimesNewRomanPSMT-2212"/>
       <use x="56.396484" xlink:href="#TimesNewRomanPSMT-30"/>
       <use x="106.396484" xlink:href="#TimesNewRomanPSMT-2e"/>
       <use x="131.396484" xlink:href="#TimesNewRomanPSMT-30"/>
       <use x="181.396484" xlink:href="#TimesNewRomanPSMT-32"/>
      </g>
     </g>
    </g>
    <g id="ytick_4">
     <g id="line2d_19">
      <path clip-path="url(#p2a5967e3a3)" d="M 63.336875 156.585465 
L 398.136875 156.585465 
" style="fill:none;stroke:#000000;stroke-dasharray:0.5,0.825;stroke-dashoffset:0;stroke-width:0.5;"/>
     </g>
     <g id="line2d_20">
      <g>
       <use style="stroke:#000000;stroke-width:0.8;" x="63.336875" xlink:href="#m81d5058c59" y="156.585465"/>
      </g>
     </g>
     <g id="text_11">
      <!-- 0.00 -->
      <g transform="translate(31.836875 161.44609)scale(0.14 -0.14)">
       <use xlink:href="#TimesNewRomanPSMT-30"/>
       <use x="50" xlink:href="#TimesNewRomanPSMT-2e"/>
       <use x="75" xlink:href="#TimesNewRomanPSMT-30"/>
       <use x="125" xlink:href="#TimesNewRomanPSMT-30"/>
      </g>
     </g>
    </g>
    <g id="ytick_5">
     <g id="line2d_21">
      <path clip-path="url(#p2a5967e3a3)" d="M 63.336875 105.591955 
L 398.136875 105.591955 
" style="fill:none;stroke:#000000;stroke-dasharray:0.5,0.825;stroke-dashoffset:0;stroke-width:0.5;"/>
     </g>
     <g id="line2d_22">
      <g>
       <use style="stroke:#000000;stroke-width:0.8;" x="63.336875" xlink:href="#m81d5058c59" y="105.591955"/>
      </g>
     </g>
     <g id="text_12">
      <!-- 0.02 -->
      <g transform="translate(31.836875 110.45258)scale(0.14 -0.14)">
       <use xlink:href="#TimesNewRomanPSMT-30"/>
       <use x="50" xlink:href="#TimesNewRomanPSMT-2e"/>
       <use x="75" xlink:href="#TimesNewRomanPSMT-30"/>
       <use x="125" xlink:href="#TimesNewRomanPSMT-32"/>
      </g>
     </g>
    </g>
    <g id="ytick_6">
     <g id="line2d_23">
      <path clip-path="url(#p2a5967e3a3)" d="M 63.336875 54.598445 
L 398.136875 54.598445 
" style="fill:none;stroke:#000000;stroke-dasharray:0.5,0.825;stroke-dashoffset:0;stroke-width:0.5;"/>
     </g>
     <g id="line2d_24">
      <g>
       <use style="stroke:#000000;stroke-width:0.8;" x="63.336875" xlink:href="#m81d5058c59" y="54.598445"/>
      </g>
     </g>
     <g id="text_13">
      <!-- 0.04 -->
      <g transform="translate(31.836875 59.45907)scale(0.14 -0.14)">
       <use xlink:href="#TimesNewRomanPSMT-30"/>
       <use x="50" xlink:href="#TimesNewRomanPSMT-2e"/>
       <use x="75" xlink:href="#TimesNewRomanPSMT-30"/>
       <use x="125" xlink:href="#TimesNewRomanPSMT-34"/>
      </g>
     </g>
    </g>
    <g id="text_14">
     <!-- Volatage (V) -->
     <g transform="translate(16.92125 209.352344)rotate(-90)scale(0.14 -0.14)">
      <defs>
       <path d="M 4544 4238 
L 4544 4122 
Q 4319 4081 4203 3978 
Q 4038 3825 3909 3509 
L 2431 -97 
L 2316 -97 
L 728 3556 
Q 606 3838 556 3900 
Q 478 3997 364 4051 
Q 250 4106 56 4122 
L 56 4238 
L 1788 4238 
L 1788 4122 
Q 1494 4094 1406 4022 
Q 1319 3950 1319 3838 
Q 1319 3681 1463 3350 
L 2541 866 
L 3541 3319 
Q 3688 3681 3688 3822 
Q 3688 3913 3597 3995 
Q 3506 4078 3291 4113 
Q 3275 4116 3238 4122 
L 3238 4238 
L 4544 4238 
z
" id="TimesNewRomanPSMT-56" transform="scale(0.015625)"/>
       <path d="M 1600 2947 
Q 2250 2947 2644 2453 
Q 2978 2031 2978 1484 
Q 2978 1100 2793 706 
Q 2609 313 2286 112 
Q 1963 -88 1566 -88 
Q 919 -88 538 428 
Q 216 863 216 1403 
Q 216 1797 411 2186 
Q 606 2575 925 2761 
Q 1244 2947 1600 2947 
z
M 1503 2744 
Q 1338 2744 1170 2645 
Q 1003 2547 900 2300 
Q 797 2053 797 1666 
Q 797 1041 1045 587 
Q 1294 134 1700 134 
Q 2003 134 2200 384 
Q 2397 634 2397 1244 
Q 2397 2006 2069 2444 
Q 1847 2744 1503 2744 
z
" id="TimesNewRomanPSMT-6f" transform="scale(0.015625)"/>
       <path d="M 1184 4444 
L 1184 647 
Q 1184 378 1223 290 
Q 1263 203 1344 158 
Q 1425 113 1647 113 
L 1647 0 
L 244 0 
L 244 113 
Q 441 113 512 153 
Q 584 194 625 287 
Q 666 381 666 647 
L 666 3247 
Q 666 3731 644 3842 
Q 622 3953 573 3993 
Q 525 4034 450 4034 
Q 369 4034 244 3984 
L 191 4094 
L 1044 4444 
L 1184 4444 
z
" id="TimesNewRomanPSMT-6c" transform="scale(0.015625)"/>
       <path d="M 1822 413 
Q 1381 72 1269 19 
Q 1100 -59 909 -59 
Q 613 -59 420 144 
Q 228 347 228 678 
Q 228 888 322 1041 
Q 450 1253 767 1440 
Q 1084 1628 1822 1897 
L 1822 2009 
Q 1822 2438 1686 2597 
Q 1550 2756 1291 2756 
Q 1094 2756 978 2650 
Q 859 2544 859 2406 
L 866 2225 
Q 866 2081 792 2003 
Q 719 1925 600 1925 
Q 484 1925 411 2006 
Q 338 2088 338 2228 
Q 338 2497 613 2722 
Q 888 2947 1384 2947 
Q 1766 2947 2009 2819 
Q 2194 2722 2281 2516 
Q 2338 2381 2338 1966 
L 2338 994 
Q 2338 584 2353 492 
Q 2369 400 2405 369 
Q 2441 338 2488 338 
Q 2538 338 2575 359 
Q 2641 400 2828 588 
L 2828 413 
Q 2478 -56 2159 -56 
Q 2006 -56 1915 50 
Q 1825 156 1822 413 
z
M 1822 616 
L 1822 1706 
Q 1350 1519 1213 1441 
Q 966 1303 859 1153 
Q 753 1003 753 825 
Q 753 600 887 451 
Q 1022 303 1197 303 
Q 1434 303 1822 616 
z
" id="TimesNewRomanPSMT-61" transform="scale(0.015625)"/>
       <path d="M 1031 3803 
L 1031 2863 
L 1700 2863 
L 1700 2644 
L 1031 2644 
L 1031 788 
Q 1031 509 1111 412 
Q 1191 316 1316 316 
Q 1419 316 1516 380 
Q 1613 444 1666 569 
L 1788 569 
Q 1678 263 1478 108 
Q 1278 -47 1066 -47 
Q 922 -47 784 33 
Q 647 113 581 261 
Q 516 409 516 719 
L 516 2644 
L 63 2644 
L 63 2747 
Q 234 2816 414 2980 
Q 594 3144 734 3369 
Q 806 3488 934 3803 
L 1031 3803 
z
" id="TimesNewRomanPSMT-74" transform="scale(0.015625)"/>
       <path d="M 966 1044 
Q 703 1172 562 1401 
Q 422 1631 422 1909 
Q 422 2334 742 2640 
Q 1063 2947 1563 2947 
Q 1972 2947 2272 2747 
L 2878 2747 
Q 3013 2747 3034 2739 
Q 3056 2731 3066 2713 
Q 3084 2684 3084 2613 
Q 3084 2531 3069 2500 
Q 3059 2484 3036 2475 
Q 3013 2466 2878 2466 
L 2506 2466 
Q 2681 2241 2681 1891 
Q 2681 1491 2375 1206 
Q 2069 922 1553 922 
Q 1341 922 1119 984 
Q 981 866 932 777 
Q 884 688 884 625 
Q 884 572 936 522 
Q 988 472 1138 450 
Q 1225 438 1575 428 
Q 2219 413 2409 384 
Q 2700 344 2873 169 
Q 3047 -6 3047 -263 
Q 3047 -616 2716 -925 
Q 2228 -1381 1444 -1381 
Q 841 -1381 425 -1109 
Q 191 -953 191 -784 
Q 191 -709 225 -634 
Q 278 -519 444 -313 
Q 466 -284 763 25 
Q 600 122 533 198 
Q 466 275 466 372 
Q 466 481 555 628 
Q 644 775 966 1044 
z
M 1509 2797 
Q 1278 2797 1122 2612 
Q 966 2428 966 2047 
Q 966 1553 1178 1281 
Q 1341 1075 1591 1075 
Q 1828 1075 1981 1253 
Q 2134 1431 2134 1813 
Q 2134 2309 1919 2591 
Q 1759 2797 1509 2797 
z
M 934 0 
Q 788 -159 713 -296 
Q 638 -434 638 -550 
Q 638 -700 819 -813 
Q 1131 -1006 1722 -1006 
Q 2284 -1006 2551 -807 
Q 2819 -609 2819 -384 
Q 2819 -222 2659 -153 
Q 2497 -84 2016 -72 
Q 1313 -53 934 0 
z
" id="TimesNewRomanPSMT-67" transform="scale(0.015625)"/>
      </defs>
      <use xlink:href="#TimesNewRomanPSMT-56"/>
      <use x="59.341797" xlink:href="#TimesNewRomanPSMT-6f"/>
      <use x="109.341797" xlink:href="#TimesNewRomanPSMT-6c"/>
      <use x="137.125" xlink:href="#TimesNewRomanPSMT-61"/>
      <use x="181.509766" xlink:href="#TimesNewRomanPSMT-74"/>
      <use x="209.292969" xlink:href="#TimesNewRomanPSMT-61"/>
      <use x="253.677734" xlink:href="#TimesNewRomanPSMT-67"/>
      <use x="303.677734" xlink:href="#TimesNewRomanPSMT-65"/>
      <use x="348.0625" xlink:href="#TimesNewRomanPSMT-20"/>
      <use x="373.0625" xlink:href="#TimesNewRomanPSMT-28"/>
      <use x="406.363281" xlink:href="#TimesNewRomanPSMT-56"/>
      <use x="478.580078" xlink:href="#TimesNewRomanPSMT-29"/>
     </g>
    </g>
   </g>
   <g id="LineCollection_1">
    <path clip-path="url(#p2a5967e3a3)" d="M 78.555057 156.585465 
L 382.918693 156.585465 
" style="fill:none;stroke:#1f77b4;stroke-width:1.5;"/>
   </g>
   <g id="line2d_25">
    <path clip-path="url(#p2a5967e3a3)" d="M 78.555057 156.568892 
L 78.707239 156.600763 
L 78.889857 156.568892 
L 97.547348 156.50515 
L 97.69953 156.441408 
L 97.851711 156.441408 
L 101.29102 156.345795 
L 101.412766 156.345795 
L 101.443202 156.409537 
L 101.534511 156.345795 
L 111.061093 156.409537 
L 111.152402 156.473279 
L 111.182839 156.441408 
L 112.917711 156.537021 
L 113.069893 156.537021 
L 114.01342 156.600763 
L 114.165602 156.664505 
L 114.835202 156.760117 
L 115.01782 156.85573 
L 115.048257 156.823859 
L 115.44393 156.919472 
L 115.596111 156.919472 
L 116.02222 156.983214 
L 116.143966 157.078827 
L 116.174402 157.046956 
L 116.35702 157.110698 
L 116.478766 157.110698 
L 116.661384 157.17444 
L 116.813566 157.17444 
L 116.965748 157.238182 
L 116.996184 157.206311 
L 117.45273 157.301923 
L 117.604911 157.365665 
L 118.396257 157.429407 
L 118.548439 157.493149 
L 118.639748 157.461278 
L 118.670184 157.493149 
L 118.79193 157.493149 
L 118.913675 157.52502 
L 119.948511 157.620633 
L 120.070257 157.684375 
L 120.100693 157.620633 
L 121.105093 157.716246 
L 121.318148 157.779988 
L 121.47033 157.779988 
L 121.622511 157.84373 
L 121.652948 157.779988 
L 121.744257 157.84373 
L 121.987748 157.939342 
L 122.261675 158.034955 
L 122.596475 158.226181 
L 122.748657 158.258052 
L 122.870402 158.385536 
L 122.900839 158.353665 
L 122.961711 158.417406 
L 123.205202 158.576761 
L 123.235639 158.513019 
L 123.296511 158.608632 
L 123.753057 158.927342 
L 123.874802 158.991084 
L 124.118293 159.246051 
L 124.14873 159.21418 
L 124.209602 159.277922 
L 125.548802 160.839598 
L 126.127093 161.827597 
L 126.15753 161.827597 
L 126.40102 162.401274 
L 126.461893 162.496887 
L 126.82713 163.325532 
L 126.979311 163.644241 
L 128.044584 166.671981 
L 128.135893 166.926948 
L 128.40982 167.755593 
L 129.444657 171.325138 
L 129.809893 172.695589 
L 130.296875 174.575975 
L 132.153493 181.87442 
L 133.675311 186.304482 
L 133.827493 186.591321 
L 134.070984 187.133127 
L 134.497093 188.152997 
L 134.679711 188.471706 
L 134.892766 188.917899 
L 135.19713 189.395964 
L 135.44062 189.810286 
L 135.744984 190.192737 
L 136.140657 190.447705 
L 136.597202 190.352092 
L 136.77982 190.224608 
L 137.662475 189.140996 
L 137.966839 188.535448 
L 138.11902 188.216739 
L 138.758184 186.655062 
L 140.432184 179.165392 
L 143.354075 156.951343 
L 144.206293 148.887994 
L 146.732511 121.287757 
L 151.389275 68.860055 
L 153.61113 51.139813 
L 154.372039 47.028454 
L 155.315566 43.554526 
L 155.650366 42.821494 
L 156.076475 42.215952 
L 156.28953 42.024723 
L 156.53302 41.929113 
L 156.685202 42.024723 
L 157.506984 43.044591 
L 158.328766 45.97672 
L 159.241857 51.331034 
L 160.185384 59.04381 
L 160.794111 65.035545 
L 162.22462 82.723918 
L 163.868184 108.443767 
L 165.937857 147.230706 
L 168.67713 203.865372 
L 169.59022 222.414264 
L 172.572984 276.626733 
L 173.638257 291.63795 
L 175.37313 310.346192 
L 175.890548 314.616906 
L 177.108002 321.596642 
L 177.62542 323.317673 
L 178.38633 324.688124 
L 178.751566 324.624369 
L 179.238548 323.859474 
L 179.451602 323.508891 
L 179.72553 322.807728 
L 179.938584 322.106565 
L 180.242948 320.799869 
L 180.97342 317.294052 
L 182.434366 305.820518 
L 183.590948 292.625952 
L 186.847639 243.353476 
L 187.973784 223.147293 
L 194.152366 108.762476 
L 197.317748 67.1709 
L 198.687384 55.251165 
L 200.635311 43.713878 
L 201.639711 39.984975 
L 202.004948 39.188204 
L 202.49193 38.518917 
L 202.857166 37.913372 
L 202.887602 37.94524 
L 203.283275 37.626533 
L 203.313711 37.658402 
L 203.435457 37.690278 
L 203.526766 37.626533 
L 203.557202 37.658402 
L 204.439857 37.722143 
L 204.957275 38.550793 
L 205.17033 38.901363 
L 205.444257 39.411308 
L 205.961675 40.718015 
L 206.479093 42.40717 
L 207.300875 45.307423 
L 208.09222 48.876974 
L 208.548766 51.203547 
L 208.944439 53.593876 
L 212.262002 73.736312 
L 212.688111 76.540955 
L 214.392548 87.918879 
L 215.001275 92.093973 
L 217.162257 107.168927 
L 217.89273 111.56712 
L 218.410148 114.977313 
L 219.353675 120.490984 
L 220.57113 127.438849 
L 224.49742 147.421931 
L 224.710475 148.40993 
L 225.714875 153.094959 
L 226.17142 155.48528 
L 226.810584 158.799858 
L 227.84542 164.791595 
L 230.219457 180.376486 
L 231.162984 187.356223 
L 231.558657 190.543318 
L 233.141348 204.725887 
L 235.058839 223.657225 
L 237.98073 250.141982 
L 239.685166 261.870489 
L 241.206984 267.79848 
L 241.480911 268.24468 
L 241.785275 268.627129 
L 242.485311 269.200806 
L 242.515748 269.105196 
L 242.607057 269.137064 
L 243.215784 268.658995 
L 243.398402 268.563387 
L 243.946257 267.830356 
L 244.524548 266.364297 
L 244.768039 265.59939 
L 245.133275 264.133331 
L 246.68553 253.743399 
L 248.93782 231.497477 
L 250.824875 208.486656 
L 256.668657 136.394585 
L 258.06873 124.251755 
L 258.799202 118.961178 
L 259.31662 115.55099 
L 259.620984 113.798086 
L 260.41233 109.527379 
L 261.690657 104.619256 
L 261.781966 104.428028 
L 262.055893 103.726867 
L 262.877675 102.260804 
L 263.851639 101.400289 
L 264.125566 101.336544 
L 264.308184 101.209065 
L 265.251711 101.304673 
L 265.464766 101.368418 
L 265.708257 101.46403 
L 267.199639 103.185064 
L 267.504002 103.790612 
L 269.482366 108.1888 
L 269.938911 109.272412 
L 270.395457 110.48351 
L 271.79553 115.200407 
L 272.252075 117.080793 
L 272.404257 117.65447 
L 273.012984 119.885436 
L 273.439093 121.542725 
L 275.782693 128.554332 
L 276.452293 130.211621 
L 277.000148 131.582072 
L 277.121893 131.868911 
L 277.700184 133.334973 
L 278.582839 135.438455 
L 278.978511 136.330842 
L 280.317711 138.880518 
L 280.530766 139.231099 
L 280.74382 139.613549 
L 280.83513 139.709163 
L 283.330911 144.68103 
L 283.543966 145.03161 
L 283.817893 145.573416 
L 283.909202 145.637158 
L 284.09182 145.955868 
L 284.700548 146.752642 
L 285.035348 147.198834 
L 285.735384 147.772511 
L 286.039748 147.868124 
L 286.252802 147.931866 
L 286.922402 147.836253 
L 287.43982 147.39006 
L 287.470257 147.421931 
L 287.53113 147.326318 
L 288.383348 146.274577 
L 288.657275 145.732771 
L 288.839893 145.38219 
L 289.144257 144.776643 
L 290.057348 142.609419 
L 290.392148 141.65329 
L 290.87913 140.410323 
L 291.366111 138.848647 
L 292.735748 134.896649 
L 293.13142 133.813038 
L 294.592366 129.574203 
L 296.357675 126.132141 
L 296.418548 126.068399 
L 296.601166 125.813431 
L 297.301202 125.239754 
L 297.422948 125.271625 
L 297.453384 125.239754 
L 298.122984 125.335367 
L 298.762148 126.164012 
L 299.857857 128.713687 
L 300.58833 131.358975 
L 301.379675 135.151616 
L 302.353639 140.792775 
L 303.388475 148.537414 
L 304.027639 153.955474 
L 304.727675 160.170308 
L 305.51902 167.723723 
L 307.19302 184.169129 
L 307.52782 187.324352 
L 308.410475 196.280087 
L 309.049639 202.558661 
L 311.514984 224.740837 
L 313.828148 238.572829 
L 314.528184 241.02689 
L 315.441275 242.747923 
L 315.56302 242.779799 
L 315.98913 243.098503 
L 316.110875 243.130369 
L 316.293493 243.162245 
L 316.536984 243.066638 
L 317.419639 241.983015 
L 317.99793 240.516957 
L 318.697966 237.967284 
L 320.34153 228.820321 
L 323.111239 207.721756 
L 327.768002 164.855337 
L 328.315857 160.074696 
L 328.985457 154.210442 
L 329.38113 151.023347 
L 330.659457 141.175226 
L 330.933384 139.199227 
L 333.459602 121.415241 
L 333.763966 119.662339 
L 334.677057 114.594859 
L 335.31622 111.439636 
L 336.381493 106.435898 
L 337.690257 101.400289 
L 337.903311 100.730996 
L 338.32942 99.392419 
L 338.451166 99.105581 
L 339.151202 97.384547 
L 339.516439 96.555903 
L 339.699057 96.237193 
L 340.064293 95.44042 
L 341.951348 91.74339 
L 342.407893 91.105974 
L 342.742693 90.627907 
L 342.834002 90.56417 
L 343.01662 90.277332 
L 344.35582 89.034362 
L 344.44713 88.970618 
L 344.629748 88.843137 
L 344.994984 88.620043 
L 345.329784 88.524427 
L 345.45153 88.460685 
L 345.634148 88.492556 
L 345.938511 88.588172 
L 346.36462 88.87501 
L 346.45593 88.938747 
L 346.668984 89.257457 
L 346.760293 89.353072 
L 348.677784 93.623778 
L 350.230039 98.850613 
L 351.995348 106.722736 
L 352.81713 110.451637 
L 353.73022 114.754211 
L 360.213166 149.270445 
L 360.943639 153.158701 
L 363.53073 166.130175 
L 364.382948 170.177785 
L 366.087384 178.527971 
L 366.756984 181.810679 
L 368.187493 188.758545 
L 368.400548 189.778415 
L 369.55713 195.260217 
L 369.80062 196.3757 
L 375.005239 217.72923 
L 375.24873 218.494138 
L 376.58793 222.350519 
L 378.292366 225.696968 
L 378.383675 225.792584 
L 379.479384 226.78058 
L 380.362039 226.716836 
L 380.575093 226.525613 
L 380.635966 226.461868 
L 380.879457 226.206903 
L 380.909893 226.238774 
L 380.970766 226.17503 
L 381.305566 225.696968 
L 381.366439 225.633226 
L 382.705639 222.573616 
L 382.918693 221.904329 
L 382.918693 221.904329 
" style="fill:none;stroke:#0000ff;stroke-linecap:square;stroke-width:1.5;"/>
   </g>
   <g id="line2d_26">
    <path clip-path="url(#p2a5967e3a3)" d="M 78.555057 156.592285 
L 78.768111 156.592285 
L 88.720802 156.687898 
L 88.964293 156.703833 
L 89.207784 156.687898 
L 89.420839 156.719769 
L 89.603457 156.671962 
L 89.846948 156.687898 
L 90.029566 156.656027 
L 90.303493 156.687898 
L 90.455675 156.671962 
L 100.864911 156.767575 
L 102.538911 157.755574 
L 103.482439 158.902928 
L 104.365093 160.48054 
L 105.247748 162.584022 
L 106.191275 165.340859 
L 109.41753 176.750657 
L 111.456766 182.822071 
L 111.639384 183.172653 
L 112.126366 184.144716 
L 113.313384 185.833876 
L 113.496002 185.913553 
L 113.67862 186.025101 
L 113.891675 186.104779 
L 114.10473 186.168521 
L 114.561275 186.072908 
L 114.896075 185.738263 
L 115.68742 184.750264 
L 116.44833 182.90175 
L 117.604911 178.933817 
L 118.731057 173.738853 
L 119.491966 169.6275 
L 120.526802 163.619828 
L 121.926875 154.138222 
L 126.06622 124.609793 
L 127.222802 118.044379 
L 129.383784 107.303873 
L 129.962075 105.343808 
L 131.51433 101.583039 
L 132.244802 99.798264 
L 132.579602 99.065235 
L 133.09702 98.364071 
L 134.040548 97.073298 
L 134.344911 96.913943 
L 134.923202 96.515559 
L 135.349311 96.03749 
L 135.684111 95.846267 
L 136.414584 95.750651 
L 137.084184 95.495684 
L 137.44942 95.718785 
L 137.571166 95.782522 
L 137.78422 95.957815 
L 137.966839 96.053428 
L 138.484257 96.722715 
L 140.310439 102.79413 
L 141.862693 109.773866 
L 142.89753 115.765606 
L 144.297602 126.02805 
L 147.036875 148.385517 
L 151.054475 187.268068 
L 152.150184 197.355222 
L 153.306766 207.203343 
L 155.132948 219.824237 
L 156.259093 225.146685 
L 157.263493 228.413456 
L 157.993966 230.054812 
L 158.54182 230.469132 
L 158.96793 230.580678 
L 159.728839 230.501003 
L 160.246257 229.87952 
L 160.64193 229.305843 
L 161.098475 228.397523 
L 162.589857 223.377847 
L 163.107275 220.748494 
L 164.050802 215.250757 
L 165.298693 206.040054 
L 167.24662 188.813809 
L 168.372766 178.694785 
L 170.290257 162.615893 
L 172.146875 149.787838 
L 173.820875 141.597006 
L 174.673093 138.505525 
L 175.129639 137.246622 
L 175.586184 136.545462 
L 176.529711 135.700882 
L 176.773202 135.796494 
L 177.229748 136.147075 
L 177.594984 136.529526 
L 177.838475 136.911976 
L 178.568948 139.127008 
L 179.786402 143.302102 
L 181.277784 149.15042 
L 184.017057 164.081957 
L 185.447566 171.683177 
L 186.238911 175.236787 
L 186.969384 177.882075 
L 187.365057 179.220655 
L 187.852039 180.607041 
L 188.065093 181.116976 
L 188.67382 182.694588 
L 189.495602 184.160651 
L 190.317384 184.861812 
L 190.834802 184.479361 
L 193.11753 180.702653 
L 193.78713 178.662914 
L 194.395857 176.591302 
L 195.978548 170.376469 
L 197.956911 160.560218 
L 200.452693 142.871844 
L 202.126693 128.960177 
L 205.200766 104.100844 
L 206.022548 99.208654 
L 208.822693 86.539951 
L 209.279239 85.328858 
L 210.040148 83.289115 
L 210.314075 82.87479 
L 210.709748 82.428599 
L 210.953239 82.189567 
L 211.348911 81.9346 
L 211.53153 81.950538 
L 211.714148 82.030213 
L 212.931602 83.464408 
L 214.301239 86.58776 
L 214.849093 88.308786 
L 216.12742 93.40814 
L 217.22313 99.0971 
L 223.888693 136.848236 
L 228.332402 159.540347 
L 228.84982 161.850991 
L 232.380439 177.117173 
L 237.31113 202.343024 
L 237.737239 204.032184 
L 238.55902 206.99618 
L 239.046002 208.27102 
L 239.776475 209.880505 
L 240.598257 211.346563 
L 240.933057 211.936178 
L 241.267857 212.446114 
L 241.815711 213.131339 
L 242.120075 213.402244 
L 242.363566 213.6094 
L 242.515748 213.705016 
L 242.972293 214.023725 
L 243.520148 214.422112 
L 244.646293 215.45792 
L 244.768039 215.553528 
L 245.711566 216.382173 
L 247.476875 217.194884 
L 247.781239 217.2905 
L 248.055166 217.417981 
L 248.389966 217.513594 
L 248.572584 217.577338 
L 248.785639 217.577338 
L 249.02913 217.609209 
L 249.242184 217.609209 
L 249.69873 217.73669 
L 249.850911 217.768561 
L 250.216148 217.848239 
L 250.398766 217.848239 
L 251.28142 218.405983 
L 251.494475 218.597206 
L 252.164075 219.139012 
L 252.559748 219.457721 
L 253.198911 219.967656 
L 253.533711 220.238562 
L 253.777202 220.509462 
L 254.29462 221.210626 
L 255.025093 222.166749 
L 255.512075 222.836041 
L 256.05993 223.505334 
L 256.39473 223.792172 
L 256.912148 224.413653 
L 257.094766 224.620817 
L 258.099166 225.513198 
L 259.012257 225.895652 
L 260.107966 225.210426 
L 260.65582 224.302107 
L 260.777566 224.04714 
L 261.842839 220.987529 
L 262.695057 216.939917 
L 263.364657 212.860433 
L 264.551675 204.079988 
L 265.921311 190.901356 
L 267.260511 174.216917 
L 269.056257 148.289904 
L 274.747857 60.565132 
L 275.934875 46.430371 
L 277.365384 33.299537 
L 278.034984 28.885412 
L 278.765457 25.299933 
L 279.191566 23.977289 
L 279.617675 22.989287 
L 280.013348 22.41561 
L 280.348148 22.335938 
L 280.774257 22.654642 
L 281.474293 23.945421 
L 282.052584 26.096707 
L 282.691748 29.220064 
L 283.787457 36.773478 
L 285.157093 49.123466 
L 287.044148 70.030808 
L 294.318439 163.826989 
L 295.718511 178.009558 
L 297.636002 195.984771 
L 299.949166 214.453983 
L 302.59713 230.421326 
L 303.327602 233.35345 
L 304.058075 235.297583 
L 304.332002 235.711902 
L 304.575493 235.96687 
L 305.062475 236.31745 
L 305.61033 236.49274 
L 305.914693 236.397128 
L 307.253893 235.584416 
L 308.19742 233.911194 
L 308.836584 232.333582 
L 309.29313 231.07468 
L 309.810548 229.799845 
L 310.510584 227.664489 
L 312.093275 221.449653 
L 312.823748 217.91198 
L 313.55422 213.497855 
L 314.802111 204.972377 
L 319.854548 168.75105 
L 321.68073 157.962736 
L 323.385166 150.441193 
L 325.759202 143.318037 
L 326.94622 141.087071 
L 328.62022 139.493524 
L 329.442002 139.174815 
L 330.111602 139.079202 
L 330.38553 139.04733 
L 332.333457 139.127008 
L 332.516075 139.174815 
L 333.824839 139.079202 
L 334.220511 138.967653 
L 334.372693 138.935782 
L 334.707493 138.840169 
L 334.950984 138.712686 
L 335.042293 138.680815 
L 335.468402 138.393977 
L 336.016257 138.011525 
L 337.538075 135.445915 
L 338.633784 132.880303 
L 339.42513 130.968046 
L 342.255711 123.860826 
L 344.081893 120.29128 
L 344.842802 119.621991 
L 345.02542 119.606055 
L 345.481966 119.701668 
L 346.638548 120.418764 
L 347.947311 121.948569 
L 349.408257 125.247212 
L 350.990948 130.56966 
L 352.421457 137.03946 
L 354.673748 149.421323 
L 357.83913 168.623567 
L 358.478293 172.161241 
L 359.300075 176.655044 
L 361.09582 183.714458 
L 361.552366 185.212392 
L 363.19593 190.024905 
L 363.804657 191.347549 
L 364.048148 191.761871 
L 364.596002 192.670193 
L 365.022111 193.275741 
L 365.53953 193.91316 
L 365.661275 194.008773 
L 366.239566 194.454966 
L 366.604802 194.534643 
L 366.817857 194.454966 
L 366.970039 194.375289 
L 367.243966 194.136257 
L 368.55273 192.606451 
L 369.252766 191.315678 
L 369.861493 189.451228 
L 373.026875 175.714852 
L 377.774948 150.281838 
L 378.901093 143.90765 
L 382.096911 127.749081 
L 382.918693 124.259213 
L 382.918693 124.259213 
" style="fill:none;stroke:#ff0000;stroke-linecap:square;stroke-width:1.5;"/>
   </g>
   <g id="line2d_27">
    <path clip-path="url(#p2a5967e3a3)" d="M 127.49673 165.046563 
" style="fill:none;stroke:#ffffff;stroke-linecap:square;stroke-width:1.5;"/>
    <defs>
     <path d="M 0 -5 
L -1.12257 -1.545085 
L -4.755283 -1.545085 
L -1.816356 0.59017 
L -2.938926 4.045085 
L -0 1.90983 
L 2.938926 4.045085 
L 1.816356 0.59017 
L 4.755283 -1.545085 
L 1.12257 -1.545085 
z
" id="m4d10e848e3" style="stroke:#ffffff;stroke-linejoin:bevel;"/>
    </defs>
    <g clip-path="url(#p2a5967e3a3)">
     <use style="fill:#0000ff;stroke:#ffffff;stroke-linejoin:bevel;" x="127.49673" xlink:href="#m4d10e848e3" y="165.046563"/>
    </g>
   </g>
   <g id="line2d_28">
    <path clip-path="url(#p2a5967e3a3)" d="M 105.521675 163.36486 
" style="fill:none;stroke:#ffffff;stroke-linecap:square;stroke-width:1.5;"/>
    <defs>
     <path d="M 0 -5 
L -1.12257 -1.545085 
L -4.755283 -1.545085 
L -1.816356 0.59017 
L -2.938926 4.045085 
L -0 1.90983 
L 2.938926 4.045085 
L 1.816356 0.59017 
L 4.755283 -1.545085 
L 1.12257 -1.545085 
z
" id="mf72337ddc2" style="stroke:#ffffff;stroke-linejoin:bevel;"/>
    </defs>
    <g clip-path="url(#p2a5967e3a3)">
     <use style="fill:#ff0000;stroke:#ffffff;stroke-linejoin:bevel;" x="105.521675" xlink:href="#mf72337ddc2" y="163.36486"/>
    </g>
   </g>
   <g id="patch_3">
    <path d="M 63.336875 339.84 
L 63.336875 7.2 
" style="fill:none;stroke:#000000;stroke-linecap:square;stroke-linejoin:miter;stroke-width:0.8;"/>
   </g>
   <g id="patch_4">
    <path d="M 398.136875 339.84 
L 398.136875 7.2 
" style="fill:none;stroke:#000000;stroke-linecap:square;stroke-linejoin:miter;stroke-width:0.8;"/>
   </g>
   <g id="patch_5">
    <path d="M 63.336875 339.84 
L 398.136875 339.84 
" style="fill:none;stroke:#000000;stroke-linecap:square;stroke-linejoin:miter;stroke-width:0.8;"/>
   </g>
   <g id="patch_6">
    <path d="M 63.336875 7.2 
L 398.136875 7.2 
" style="fill:none;stroke:#000000;stroke-linecap:square;stroke-linejoin:miter;stroke-width:0.8;"/>
   </g>
   <g id="text_15">
    <g id="patch_7">
     <path d="M 75.036875 331.242688 
L 166.79375 331.242688 
L 166.79375 293.760312 
L 75.036875 293.760312 
z
" style="fill:#ffffff;stroke:#000000;stroke-linejoin:miter;stroke-width:0.75;"/>
    </g>
    <!-- Auto_00065 -->
    <g transform="translate(80.076875 308.521563)scale(0.14 -0.14)">
     <defs>
      <path d="M 2928 1419 
L 1288 1419 
L 1000 750 
Q 894 503 894 381 
Q 894 284 986 211 
Q 1078 138 1384 116 
L 1384 0 
L 50 0 
L 50 116 
Q 316 163 394 238 
Q 553 388 747 847 
L 2238 4334 
L 2347 4334 
L 3822 809 
Q 4000 384 4145 257 
Q 4291 131 4550 116 
L 4550 0 
L 2878 0 
L 2878 116 
Q 3131 128 3220 200 
Q 3309 272 3309 375 
Q 3309 513 3184 809 
L 2928 1419 
z
M 2841 1650 
L 2122 3363 
L 1384 1650 
L 2841 1650 
z
" id="TimesNewRomanPSMT-41" transform="scale(0.015625)"/>
      <path d="M 2709 2863 
L 2709 1128 
Q 2709 631 2732 520 
Q 2756 409 2807 365 
Q 2859 322 2928 322 
Q 3025 322 3147 375 
L 3191 266 
L 2334 -88 
L 2194 -88 
L 2194 519 
Q 1825 119 1631 15 
Q 1438 -88 1222 -88 
Q 981 -88 804 51 
Q 628 191 559 409 
Q 491 628 491 1028 
L 491 2306 
Q 491 2509 447 2587 
Q 403 2666 317 2708 
Q 231 2750 6 2747 
L 6 2863 
L 1009 2863 
L 1009 947 
Q 1009 547 1148 422 
Q 1288 297 1484 297 
Q 1619 297 1789 381 
Q 1959 466 2194 703 
L 2194 2325 
Q 2194 2569 2105 2655 
Q 2016 2741 1734 2747 
L 1734 2863 
L 2709 2863 
z
" id="TimesNewRomanPSMT-75" transform="scale(0.015625)"/>
      <path d="M 3256 -1381 
L -53 -1381 
L -53 -1119 
L 3256 -1119 
L 3256 -1381 
z
" id="TimesNewRomanPSMT-5f" transform="scale(0.015625)"/>
     </defs>
     <use xlink:href="#TimesNewRomanPSMT-41"/>
     <use x="72.216797" xlink:href="#TimesNewRomanPSMT-75"/>
     <use x="122.216797" xlink:href="#TimesNewRomanPSMT-74"/>
     <use x="150" xlink:href="#TimesNewRomanPSMT-6f"/>
     <use x="200" xlink:href="#TimesNewRomanPSMT-5f"/>
     <use x="250" xlink:href="#TimesNewRomanPSMT-30"/>
     <use x="300" xlink:href="#TimesNewRomanPSMT-30"/>
     <use x="350" xlink:href="#TimesNewRomanPSMT-30"/>
     <use x="400" xlink:href="#TimesNewRomanPSMT-36"/>
     <use x="450" xlink:href="#TimesNewRomanPSMT-35"/>
    </g>
    <!-- Vs: 276.87m/s -->
    <g transform="translate(80.076875 323.208)scale(0.14 -0.14)">
     <defs>
      <path d="M 903 2950 
Q 1047 2950 1148 2848 
Q 1250 2747 1250 2603 
Q 1250 2459 1148 2357 
Q 1047 2256 903 2256 
Q 759 2256 657 2357 
Q 556 2459 556 2603 
Q 556 2747 657 2848 
Q 759 2950 903 2950 
z
M 897 609 
Q 1044 609 1145 506 
Q 1247 403 1247 259 
Q 1247 116 1144 14 
Q 1041 -88 897 -88 
Q 753 -88 651 14 
Q 550 116 550 259 
Q 550 403 651 506 
Q 753 609 897 609 
z
" id="TimesNewRomanPSMT-3a" transform="scale(0.015625)"/>
      <path d="M 644 4238 
L 2916 4238 
L 2916 4119 
L 1503 -88 
L 1153 -88 
L 2419 3728 
L 1253 3728 
Q 900 3728 750 3644 
Q 488 3500 328 3200 
L 238 3234 
L 644 4238 
z
" id="TimesNewRomanPSMT-37" transform="scale(0.015625)"/>
      <path d="M 1228 2134 
Q 725 2547 579 2797 
Q 434 3047 434 3316 
Q 434 3728 753 4026 
Q 1072 4325 1600 4325 
Q 2113 4325 2425 4047 
Q 2738 3769 2738 3413 
Q 2738 3175 2569 2928 
Q 2400 2681 1866 2347 
Q 2416 1922 2594 1678 
Q 2831 1359 2831 1006 
Q 2831 559 2490 242 
Q 2150 -75 1597 -75 
Q 994 -75 656 303 
Q 388 606 388 966 
Q 388 1247 577 1523 
Q 766 1800 1228 2134 
z
M 1719 2469 
Q 2094 2806 2194 3001 
Q 2294 3197 2294 3444 
Q 2294 3772 2109 3958 
Q 1925 4144 1606 4144 
Q 1288 4144 1088 3959 
Q 888 3775 888 3528 
Q 888 3366 970 3203 
Q 1053 3041 1206 2894 
L 1719 2469 
z
M 1375 2016 
Q 1116 1797 991 1539 
Q 866 1281 866 981 
Q 866 578 1086 336 
Q 1306 94 1647 94 
Q 1984 94 2187 284 
Q 2391 475 2391 747 
Q 2391 972 2272 1150 
Q 2050 1481 1375 2016 
z
" id="TimesNewRomanPSMT-38" transform="scale(0.015625)"/>
      <path d="M 1794 4444 
L 259 -88 
L 9 -88 
L 1544 4444 
L 1794 4444 
z
" id="TimesNewRomanPSMT-2f" transform="scale(0.015625)"/>
     </defs>
     <use xlink:href="#TimesNewRomanPSMT-56"/>
     <use x="72.216797" xlink:href="#TimesNewRomanPSMT-73"/>
     <use x="111.132812" xlink:href="#TimesNewRomanPSMT-3a"/>
     <use x="138.916016" xlink:href="#TimesNewRomanPSMT-20"/>
     <use x="163.916016" xlink:href="#TimesNewRomanPSMT-32"/>
     <use x="213.916016" xlink:href="#TimesNewRomanPSMT-37"/>
     <use x="263.916016" xlink:href="#TimesNewRomanPSMT-36"/>
     <use x="313.916016" xlink:href="#TimesNewRomanPSMT-2e"/>
     <use x="338.916016" xlink:href="#TimesNewRomanPSMT-38"/>
     <use x="388.916016" xlink:href="#TimesNewRomanPSMT-37"/>
     <use x="438.916016" xlink:href="#TimesNewRomanPSMT-6d"/>
     <use x="516.699219" xlink:href="#TimesNewRomanPSMT-2f"/>
     <use x="544.482422" xlink:href="#TimesNewRomanPSMT-73"/>
    </g>
   </g>
  </g>
 </g>
 <defs>
  <clipPath id="p2a5967e3a3">
   <rect height="332.64" width="334.8" x="63.336875" y="7.2"/>
  </clipPath>
 </defs>
</svg>
