<?xml version="1.0" encoding="utf-8" standalone="no"?>
<!DOCTYPE svg PUBLIC "-//W3C//DTD SVG 1.1//EN"
  "http://www.w3.org/Graphics/SVG/1.1/DTD/svg11.dtd">
<svg height="383.471875pt" version="1.1" viewBox="0 0 421.086875 383.471875" width="421.086875pt" xmlns="http://www.w3.org/2000/svg" xmlns:xlink="http://www.w3.org/1999/xlink">
 <metadata>
  <rdf:RDF xmlns:cc="http://creativecommons.org/ns#" xmlns:dc="http://purl.org/dc/elements/1.1/" xmlns:rdf="http://www.w3.org/1999/02/22-rdf-syntax-ns#">
   <cc:Work>
    <dc:type rdf:resource="http://purl.org/dc/dcmitype/StillImage"/>
    <dc:date>2021-06-11T14:39:38.208003</dc:date>
    <dc:format>image/svg+xml</dc:format>
    <dc:creator>
     <cc:Agent>
      <dc:title>Matplotlib v3.4.2, https://matplotlib.org/</dc:title>
     </cc:Agent>
    </dc:creator>
   </cc:Work>
  </rdf:RDF>
 </metadata>
 <defs>
  <style type="text/css">*{stroke-linecap:butt;stroke-linejoin:round;}</style>
 </defs>
 <g id="figure_1">
  <g id="patch_1">
   <path d="M 0 383.471875 
L 421.086875 383.471875 
L 421.086875 0 
L 0 0 
z
" style="fill:#ffffff;"/>
  </g>
  <g id="axes_1">
   <g id="patch_2">
    <path d="M 63.336875 339.84 
L 398.136875 339.84 
L 398.136875 7.2 
L 63.336875 7.2 
z
" style="fill:#ffffff;"/>
   </g>
   <g id="matplotlib.axis_1">
    <g id="xtick_1">
     <g id="line2d_1">
      <path clip-path="url(#pdaef04e596)" d="M 93.773239 339.84 
L 93.773239 7.2 
" style="fill:none;stroke:#000000;stroke-dasharray:0.5,0.825;stroke-dashoffset:0;stroke-width:0.5;"/>
     </g>
     <g id="line2d_2">
      <defs>
       <path d="M 0 0 
L 0 3.5 
" id="m40d298c35f" style="stroke:#000000;stroke-width:0.8;"/>
      </defs>
      <g>
       <use style="stroke:#000000;stroke-width:0.8;" x="93.773239" xlink:href="#m40d298c35f" y="339.84"/>
      </g>
     </g>
     <g id="text_1">
      <!-- 0.000 -->
      <g transform="translate(78.023239 356.56125)scale(0.14 -0.14)">
       <defs>
        <path d="M 231 2094 
Q 231 2819 450 3342 
Q 669 3866 1031 4122 
Q 1313 4325 1613 4325 
Q 2100 4325 2488 3828 
Q 2972 3213 2972 2159 
Q 2972 1422 2759 906 
Q 2547 391 2217 158 
Q 1888 -75 1581 -75 
Q 975 -75 572 641 
Q 231 1244 231 2094 
z
M 844 2016 
Q 844 1141 1059 588 
Q 1238 122 1591 122 
Q 1759 122 1940 273 
Q 2122 425 2216 781 
Q 2359 1319 2359 2297 
Q 2359 3022 2209 3506 
Q 2097 3866 1919 4016 
Q 1791 4119 1609 4119 
Q 1397 4119 1231 3928 
Q 1006 3669 925 3112 
Q 844 2556 844 2016 
z
" id="TimesNewRomanPSMT-30" transform="scale(0.015625)"/>
        <path d="M 800 606 
Q 947 606 1047 504 
Q 1147 403 1147 259 
Q 1147 116 1045 14 
Q 944 -88 800 -88 
Q 656 -88 554 14 
Q 453 116 453 259 
Q 453 406 554 506 
Q 656 606 800 606 
z
" id="TimesNewRomanPSMT-2e" transform="scale(0.015625)"/>
       </defs>
       <use xlink:href="#TimesNewRomanPSMT-30"/>
       <use x="50" xlink:href="#TimesNewRomanPSMT-2e"/>
       <use x="75" xlink:href="#TimesNewRomanPSMT-30"/>
       <use x="125" xlink:href="#TimesNewRomanPSMT-30"/>
       <use x="175" xlink:href="#TimesNewRomanPSMT-30"/>
      </g>
     </g>
    </g>
    <g id="xtick_2">
     <g id="line2d_3">
      <path clip-path="url(#pdaef04e596)" d="M 154.645966 339.84 
L 154.645966 7.2 
" style="fill:none;stroke:#000000;stroke-dasharray:0.5,0.825;stroke-dashoffset:0;stroke-width:0.5;"/>
     </g>
     <g id="line2d_4">
      <g>
       <use style="stroke:#000000;stroke-width:0.8;" x="154.645966" xlink:href="#m40d298c35f" y="339.84"/>
      </g>
     </g>
     <g id="text_2">
      <!-- 0.001 -->
      <g transform="translate(138.895966 356.56125)scale(0.14 -0.14)">
       <defs>
        <path d="M 750 3822 
L 1781 4325 
L 1884 4325 
L 1884 747 
Q 1884 391 1914 303 
Q 1944 216 2037 169 
Q 2131 122 2419 116 
L 2419 0 
L 825 0 
L 825 116 
Q 1125 122 1212 167 
Q 1300 213 1334 289 
Q 1369 366 1369 747 
L 1369 3034 
Q 1369 3497 1338 3628 
Q 1316 3728 1258 3775 
Q 1200 3822 1119 3822 
Q 1003 3822 797 3725 
L 750 3822 
z
" id="TimesNewRomanPSMT-31" transform="scale(0.015625)"/>
       </defs>
       <use xlink:href="#TimesNewRomanPSMT-30"/>
       <use x="50" xlink:href="#TimesNewRomanPSMT-2e"/>
       <use x="75" xlink:href="#TimesNewRomanPSMT-30"/>
       <use x="125" xlink:href="#TimesNewRomanPSMT-30"/>
       <use x="175" xlink:href="#TimesNewRomanPSMT-31"/>
      </g>
     </g>
    </g>
    <g id="xtick_3">
     <g id="line2d_5">
      <path clip-path="url(#pdaef04e596)" d="M 215.518693 339.84 
L 215.518693 7.2 
" style="fill:none;stroke:#000000;stroke-dasharray:0.5,0.825;stroke-dashoffset:0;stroke-width:0.5;"/>
     </g>
     <g id="line2d_6">
      <g>
       <use style="stroke:#000000;stroke-width:0.8;" x="215.518693" xlink:href="#m40d298c35f" y="339.84"/>
      </g>
     </g>
     <g id="text_3">
      <!-- 0.002 -->
      <g transform="translate(199.768693 356.56125)scale(0.14 -0.14)">
       <defs>
        <path d="M 2934 816 
L 2638 0 
L 138 0 
L 138 116 
Q 1241 1122 1691 1759 
Q 2141 2397 2141 2925 
Q 2141 3328 1894 3587 
Q 1647 3847 1303 3847 
Q 991 3847 742 3664 
Q 494 3481 375 3128 
L 259 3128 
Q 338 3706 661 4015 
Q 984 4325 1469 4325 
Q 1984 4325 2329 3994 
Q 2675 3663 2675 3213 
Q 2675 2891 2525 2569 
Q 2294 2063 1775 1497 
Q 997 647 803 472 
L 1909 472 
Q 2247 472 2383 497 
Q 2519 522 2628 598 
Q 2738 675 2819 816 
L 2934 816 
z
" id="TimesNewRomanPSMT-32" transform="scale(0.015625)"/>
       </defs>
       <use xlink:href="#TimesNewRomanPSMT-30"/>
       <use x="50" xlink:href="#TimesNewRomanPSMT-2e"/>
       <use x="75" xlink:href="#TimesNewRomanPSMT-30"/>
       <use x="125" xlink:href="#TimesNewRomanPSMT-30"/>
       <use x="175" xlink:href="#TimesNewRomanPSMT-32"/>
      </g>
     </g>
    </g>
    <g id="xtick_4">
     <g id="line2d_7">
      <path clip-path="url(#pdaef04e596)" d="M 276.39142 339.84 
L 276.39142 7.2 
" style="fill:none;stroke:#000000;stroke-dasharray:0.5,0.825;stroke-dashoffset:0;stroke-width:0.5;"/>
     </g>
     <g id="line2d_8">
      <g>
       <use style="stroke:#000000;stroke-width:0.8;" x="276.39142" xlink:href="#m40d298c35f" y="339.84"/>
      </g>
     </g>
     <g id="text_4">
      <!-- 0.003 -->
      <g transform="translate(260.64142 356.56125)scale(0.14 -0.14)">
       <defs>
        <path d="M 325 3431 
Q 506 3859 782 4092 
Q 1059 4325 1472 4325 
Q 1981 4325 2253 3994 
Q 2459 3747 2459 3466 
Q 2459 3003 1878 2509 
Q 2269 2356 2469 2072 
Q 2669 1788 2669 1403 
Q 2669 853 2319 450 
Q 1863 -75 997 -75 
Q 569 -75 414 31 
Q 259 138 259 259 
Q 259 350 332 419 
Q 406 488 509 488 
Q 588 488 669 463 
Q 722 447 909 348 
Q 1097 250 1169 231 
Q 1284 197 1416 197 
Q 1734 197 1970 444 
Q 2206 691 2206 1028 
Q 2206 1275 2097 1509 
Q 2016 1684 1919 1775 
Q 1784 1900 1550 2001 
Q 1316 2103 1072 2103 
L 972 2103 
L 972 2197 
Q 1219 2228 1467 2375 
Q 1716 2522 1828 2728 
Q 1941 2934 1941 3181 
Q 1941 3503 1739 3701 
Q 1538 3900 1238 3900 
Q 753 3900 428 3381 
L 325 3431 
z
" id="TimesNewRomanPSMT-33" transform="scale(0.015625)"/>
       </defs>
       <use xlink:href="#TimesNewRomanPSMT-30"/>
       <use x="50" xlink:href="#TimesNewRomanPSMT-2e"/>
       <use x="75" xlink:href="#TimesNewRomanPSMT-30"/>
       <use x="125" xlink:href="#TimesNewRomanPSMT-30"/>
       <use x="175" xlink:href="#TimesNewRomanPSMT-33"/>
      </g>
     </g>
    </g>
    <g id="xtick_5">
     <g id="line2d_9">
      <path clip-path="url(#pdaef04e596)" d="M 337.264148 339.84 
L 337.264148 7.2 
" style="fill:none;stroke:#000000;stroke-dasharray:0.5,0.825;stroke-dashoffset:0;stroke-width:0.5;"/>
     </g>
     <g id="line2d_10">
      <g>
       <use style="stroke:#000000;stroke-width:0.8;" x="337.264148" xlink:href="#m40d298c35f" y="339.84"/>
      </g>
     </g>
     <g id="text_5">
      <!-- 0.004 -->
      <g transform="translate(321.514148 356.56125)scale(0.14 -0.14)">
       <defs>
        <path d="M 2978 1563 
L 2978 1119 
L 2409 1119 
L 2409 0 
L 1894 0 
L 1894 1119 
L 100 1119 
L 100 1519 
L 2066 4325 
L 2409 4325 
L 2409 1563 
L 2978 1563 
z
M 1894 1563 
L 1894 3666 
L 406 1563 
L 1894 1563 
z
" id="TimesNewRomanPSMT-34" transform="scale(0.015625)"/>
       </defs>
       <use xlink:href="#TimesNewRomanPSMT-30"/>
       <use x="50" xlink:href="#TimesNewRomanPSMT-2e"/>
       <use x="75" xlink:href="#TimesNewRomanPSMT-30"/>
       <use x="125" xlink:href="#TimesNewRomanPSMT-30"/>
       <use x="175" xlink:href="#TimesNewRomanPSMT-34"/>
      </g>
     </g>
    </g>
    <g id="xtick_6">
     <g id="line2d_11">
      <path clip-path="url(#pdaef04e596)" d="M 398.136875 339.84 
L 398.136875 7.2 
" style="fill:none;stroke:#000000;stroke-dasharray:0.5,0.825;stroke-dashoffset:0;stroke-width:0.5;"/>
     </g>
     <g id="line2d_12">
      <g>
       <use style="stroke:#000000;stroke-width:0.8;" x="398.136875" xlink:href="#m40d298c35f" y="339.84"/>
      </g>
     </g>
     <g id="text_6">
      <!-- 0.005 -->
      <g transform="translate(382.386875 356.56125)scale(0.14 -0.14)">
       <defs>
        <path d="M 2778 4238 
L 2534 3706 
L 1259 3706 
L 981 3138 
Q 1809 3016 2294 2522 
Q 2709 2097 2709 1522 
Q 2709 1188 2573 903 
Q 2438 619 2231 419 
Q 2025 219 1772 97 
Q 1413 -75 1034 -75 
Q 653 -75 479 54 
Q 306 184 306 341 
Q 306 428 378 495 
Q 450 563 559 563 
Q 641 563 702 538 
Q 763 513 909 409 
Q 1144 247 1384 247 
Q 1750 247 2026 523 
Q 2303 800 2303 1197 
Q 2303 1581 2056 1914 
Q 1809 2247 1375 2428 
Q 1034 2569 447 2591 
L 1259 4238 
L 2778 4238 
z
" id="TimesNewRomanPSMT-35" transform="scale(0.015625)"/>
       </defs>
       <use xlink:href="#TimesNewRomanPSMT-30"/>
       <use x="50" xlink:href="#TimesNewRomanPSMT-2e"/>
       <use x="75" xlink:href="#TimesNewRomanPSMT-30"/>
       <use x="125" xlink:href="#TimesNewRomanPSMT-30"/>
       <use x="175" xlink:href="#TimesNewRomanPSMT-35"/>
      </g>
     </g>
    </g>
    <g id="text_7">
     <!-- Time (sec) -->
     <g transform="translate(200.858906 373.277188)scale(0.14 -0.14)">
      <defs>
       <path d="M 3703 4238 
L 3750 3244 
L 3631 3244 
Q 3597 3506 3538 3619 
Q 3441 3800 3280 3886 
Q 3119 3972 2856 3972 
L 2259 3972 
L 2259 734 
Q 2259 344 2344 247 
Q 2463 116 2709 116 
L 2856 116 
L 2856 0 
L 1059 0 
L 1059 116 
L 1209 116 
Q 1478 116 1591 278 
Q 1659 378 1659 734 
L 1659 3972 
L 1150 3972 
Q 853 3972 728 3928 
Q 566 3869 450 3700 
Q 334 3531 313 3244 
L 194 3244 
L 244 4238 
L 3703 4238 
z
" id="TimesNewRomanPSMT-54" transform="scale(0.015625)"/>
       <path d="M 928 4444 
Q 1059 4444 1151 4351 
Q 1244 4259 1244 4128 
Q 1244 3997 1151 3903 
Q 1059 3809 928 3809 
Q 797 3809 703 3903 
Q 609 3997 609 4128 
Q 609 4259 701 4351 
Q 794 4444 928 4444 
z
M 1188 2947 
L 1188 647 
Q 1188 378 1227 289 
Q 1266 200 1342 156 
Q 1419 113 1622 113 
L 1622 0 
L 231 0 
L 231 113 
Q 441 113 512 153 
Q 584 194 626 287 
Q 669 381 669 647 
L 669 1750 
Q 669 2216 641 2353 
Q 619 2453 572 2492 
Q 525 2531 444 2531 
Q 356 2531 231 2484 
L 188 2597 
L 1050 2947 
L 1188 2947 
z
" id="TimesNewRomanPSMT-69" transform="scale(0.015625)"/>
       <path d="M 1050 2338 
Q 1363 2650 1419 2697 
Q 1559 2816 1721 2881 
Q 1884 2947 2044 2947 
Q 2313 2947 2506 2790 
Q 2700 2634 2766 2338 
Q 3088 2713 3309 2830 
Q 3531 2947 3766 2947 
Q 3994 2947 4170 2830 
Q 4347 2713 4450 2447 
Q 4519 2266 4519 1878 
L 4519 647 
Q 4519 378 4559 278 
Q 4591 209 4675 161 
Q 4759 113 4950 113 
L 4950 0 
L 3538 0 
L 3538 113 
L 3597 113 
Q 3781 113 3884 184 
Q 3956 234 3988 344 
Q 4000 397 4000 647 
L 4000 1878 
Q 4000 2228 3916 2372 
Q 3794 2572 3525 2572 
Q 3359 2572 3192 2489 
Q 3025 2406 2788 2181 
L 2781 2147 
L 2788 2013 
L 2788 647 
Q 2788 353 2820 281 
Q 2853 209 2943 161 
Q 3034 113 3253 113 
L 3253 0 
L 1806 0 
L 1806 113 
Q 2044 113 2133 169 
Q 2222 225 2256 338 
Q 2272 391 2272 647 
L 2272 1878 
Q 2272 2228 2169 2381 
Q 2031 2581 1784 2581 
Q 1616 2581 1450 2491 
Q 1191 2353 1050 2181 
L 1050 647 
Q 1050 366 1089 281 
Q 1128 197 1204 155 
Q 1281 113 1516 113 
L 1516 0 
L 100 0 
L 100 113 
Q 297 113 375 155 
Q 453 197 493 289 
Q 534 381 534 647 
L 534 1741 
Q 534 2213 506 2350 
Q 484 2453 437 2492 
Q 391 2531 309 2531 
Q 222 2531 100 2484 
L 53 2597 
L 916 2947 
L 1050 2947 
L 1050 2338 
z
" id="TimesNewRomanPSMT-6d" transform="scale(0.015625)"/>
       <path d="M 681 1784 
Q 678 1147 991 784 
Q 1303 422 1725 422 
Q 2006 422 2214 576 
Q 2422 731 2563 1106 
L 2659 1044 
Q 2594 616 2278 264 
Q 1963 -88 1488 -88 
Q 972 -88 605 314 
Q 238 716 238 1394 
Q 238 2128 614 2539 
Q 991 2950 1559 2950 
Q 2041 2950 2350 2633 
Q 2659 2316 2659 1784 
L 681 1784 
z
M 681 1966 
L 2006 1966 
Q 1991 2241 1941 2353 
Q 1863 2528 1708 2628 
Q 1553 2728 1384 2728 
Q 1125 2728 920 2526 
Q 716 2325 681 1966 
z
" id="TimesNewRomanPSMT-65" transform="scale(0.015625)"/>
       <path id="TimesNewRomanPSMT-20" transform="scale(0.015625)"/>
       <path d="M 1988 -1253 
L 1988 -1369 
Q 1516 -1131 1200 -813 
Q 750 -359 506 256 
Q 263 872 263 1534 
Q 263 2503 741 3301 
Q 1219 4100 1988 4444 
L 1988 4313 
Q 1603 4100 1356 3731 
Q 1109 3363 987 2797 
Q 866 2231 866 1616 
Q 866 947 969 400 
Q 1050 -31 1165 -292 
Q 1281 -553 1476 -793 
Q 1672 -1034 1988 -1253 
z
" id="TimesNewRomanPSMT-28" transform="scale(0.015625)"/>
       <path d="M 2050 2947 
L 2050 1972 
L 1947 1972 
Q 1828 2431 1642 2597 
Q 1456 2763 1169 2763 
Q 950 2763 815 2647 
Q 681 2531 681 2391 
Q 681 2216 781 2091 
Q 878 1963 1175 1819 
L 1631 1597 
Q 2266 1288 2266 781 
Q 2266 391 1970 151 
Q 1675 -88 1309 -88 
Q 1047 -88 709 6 
Q 606 38 541 38 
Q 469 38 428 -44 
L 325 -44 
L 325 978 
L 428 978 
Q 516 541 762 319 
Q 1009 97 1316 97 
Q 1531 97 1667 223 
Q 1803 350 1803 528 
Q 1803 744 1651 891 
Q 1500 1038 1047 1263 
Q 594 1488 453 1669 
Q 313 1847 313 2119 
Q 313 2472 555 2709 
Q 797 2947 1181 2947 
Q 1350 2947 1591 2875 
Q 1750 2828 1803 2828 
Q 1853 2828 1881 2850 
Q 1909 2872 1947 2947 
L 2050 2947 
z
" id="TimesNewRomanPSMT-73" transform="scale(0.015625)"/>
       <path d="M 2631 1088 
Q 2516 522 2178 217 
Q 1841 -88 1431 -88 
Q 944 -88 581 321 
Q 219 731 219 1428 
Q 219 2103 620 2525 
Q 1022 2947 1584 2947 
Q 2006 2947 2278 2723 
Q 2550 2500 2550 2259 
Q 2550 2141 2473 2067 
Q 2397 1994 2259 1994 
Q 2075 1994 1981 2113 
Q 1928 2178 1911 2362 
Q 1894 2547 1784 2644 
Q 1675 2738 1481 2738 
Q 1169 2738 978 2506 
Q 725 2200 725 1697 
Q 725 1184 976 792 
Q 1228 400 1656 400 
Q 1963 400 2206 609 
Q 2378 753 2541 1131 
L 2631 1088 
z
" id="TimesNewRomanPSMT-63" transform="scale(0.015625)"/>
       <path d="M 144 4313 
L 144 4444 
Q 619 4209 934 3891 
Q 1381 3434 1625 2820 
Q 1869 2206 1869 1541 
Q 1869 572 1392 -226 
Q 916 -1025 144 -1369 
L 144 -1253 
Q 528 -1038 776 -670 
Q 1025 -303 1145 264 
Q 1266 831 1266 1447 
Q 1266 2113 1163 2663 
Q 1084 3094 967 3353 
Q 850 3613 656 3853 
Q 463 4094 144 4313 
z
" id="TimesNewRomanPSMT-29" transform="scale(0.015625)"/>
      </defs>
      <use xlink:href="#TimesNewRomanPSMT-54"/>
      <use x="57.583984" xlink:href="#TimesNewRomanPSMT-69"/>
      <use x="85.367188" xlink:href="#TimesNewRomanPSMT-6d"/>
      <use x="163.150391" xlink:href="#TimesNewRomanPSMT-65"/>
      <use x="207.535156" xlink:href="#TimesNewRomanPSMT-20"/>
      <use x="232.535156" xlink:href="#TimesNewRomanPSMT-28"/>
      <use x="265.835938" xlink:href="#TimesNewRomanPSMT-73"/>
      <use x="304.751953" xlink:href="#TimesNewRomanPSMT-65"/>
      <use x="349.136719" xlink:href="#TimesNewRomanPSMT-63"/>
      <use x="393.521484" xlink:href="#TimesNewRomanPSMT-29"/>
     </g>
    </g>
   </g>
   <g id="matplotlib.axis_2">
    <g id="ytick_1">
     <g id="line2d_13">
      <path clip-path="url(#pdaef04e596)" d="M 63.336875 318.896985 
L 398.136875 318.896985 
" style="fill:none;stroke:#000000;stroke-dasharray:0.5,0.825;stroke-dashoffset:0;stroke-width:0.5;"/>
     </g>
     <g id="line2d_14">
      <defs>
       <path d="M 0 0 
L -3.5 0 
" id="m3a9d7f5f4b" style="stroke:#000000;stroke-width:0.8;"/>
      </defs>
      <g>
       <use style="stroke:#000000;stroke-width:0.8;" x="63.336875" xlink:href="#m3a9d7f5f4b" y="318.896985"/>
      </g>
     </g>
     <g id="text_8">
      <!-- −0.06 -->
      <g transform="translate(23.942188 323.75761)scale(0.14 -0.14)">
       <defs>
        <path d="M 3484 2000 
L 116 2000 
L 116 2256 
L 3484 2256 
L 3484 2000 
z
" id="TimesNewRomanPSMT-2212" transform="scale(0.015625)"/>
        <path d="M 2869 4325 
L 2869 4209 
Q 2456 4169 2195 4045 
Q 1934 3922 1679 3669 
Q 1425 3416 1258 3105 
Q 1091 2794 978 2366 
Q 1428 2675 1881 2675 
Q 2316 2675 2634 2325 
Q 2953 1975 2953 1425 
Q 2953 894 2631 456 
Q 2244 -75 1606 -75 
Q 1172 -75 869 213 
Q 275 772 275 1663 
Q 275 2231 503 2743 
Q 731 3256 1154 3653 
Q 1578 4050 1965 4187 
Q 2353 4325 2688 4325 
L 2869 4325 
z
M 925 2138 
Q 869 1716 869 1456 
Q 869 1156 980 804 
Q 1091 453 1309 247 
Q 1469 100 1697 100 
Q 1969 100 2183 356 
Q 2397 613 2397 1088 
Q 2397 1622 2184 2012 
Q 1972 2403 1581 2403 
Q 1463 2403 1327 2353 
Q 1191 2303 925 2138 
z
" id="TimesNewRomanPSMT-36" transform="scale(0.015625)"/>
       </defs>
       <use xlink:href="#TimesNewRomanPSMT-2212"/>
       <use x="56.396484" xlink:href="#TimesNewRomanPSMT-30"/>
       <use x="106.396484" xlink:href="#TimesNewRomanPSMT-2e"/>
       <use x="131.396484" xlink:href="#TimesNewRomanPSMT-30"/>
       <use x="181.396484" xlink:href="#TimesNewRomanPSMT-36"/>
      </g>
     </g>
    </g>
    <g id="ytick_2">
     <g id="line2d_15">
      <path clip-path="url(#pdaef04e596)" d="M 63.336875 265.089814 
L 398.136875 265.089814 
" style="fill:none;stroke:#000000;stroke-dasharray:0.5,0.825;stroke-dashoffset:0;stroke-width:0.5;"/>
     </g>
     <g id="line2d_16">
      <g>
       <use style="stroke:#000000;stroke-width:0.8;" x="63.336875" xlink:href="#m3a9d7f5f4b" y="265.089814"/>
      </g>
     </g>
     <g id="text_9">
      <!-- −0.04 -->
      <g transform="translate(23.942188 269.950439)scale(0.14 -0.14)">
       <use xlink:href="#TimesNewRomanPSMT-2212"/>
       <use x="56.396484" xlink:href="#TimesNewRomanPSMT-30"/>
       <use x="106.396484" xlink:href="#TimesNewRomanPSMT-2e"/>
       <use x="131.396484" xlink:href="#TimesNewRomanPSMT-30"/>
       <use x="181.396484" xlink:href="#TimesNewRomanPSMT-34"/>
      </g>
     </g>
    </g>
    <g id="ytick_3">
     <g id="line2d_17">
      <path clip-path="url(#pdaef04e596)" d="M 63.336875 211.282642 
L 398.136875 211.282642 
" style="fill:none;stroke:#000000;stroke-dasharray:0.5,0.825;stroke-dashoffset:0;stroke-width:0.5;"/>
     </g>
     <g id="line2d_18">
      <g>
       <use style="stroke:#000000;stroke-width:0.8;" x="63.336875" xlink:href="#m3a9d7f5f4b" y="211.282642"/>
      </g>
     </g>
     <g id="text_10">
      <!-- −0.02 -->
      <g transform="translate(23.942188 216.143267)scale(0.14 -0.14)">
       <use xlink:href="#TimesNewRomanPSMT-2212"/>
       <use x="56.396484" xlink:href="#TimesNewRomanPSMT-30"/>
       <use x="106.396484" xlink:href="#TimesNewRomanPSMT-2e"/>
       <use x="131.396484" xlink:href="#TimesNewRomanPSMT-30"/>
       <use x="181.396484" xlink:href="#TimesNewRomanPSMT-32"/>
      </g>
     </g>
    </g>
    <g id="ytick_4">
     <g id="line2d_19">
      <path clip-path="url(#pdaef04e596)" d="M 63.336875 157.475471 
L 398.136875 157.475471 
" style="fill:none;stroke:#000000;stroke-dasharray:0.5,0.825;stroke-dashoffset:0;stroke-width:0.5;"/>
     </g>
     <g id="line2d_20">
      <g>
       <use style="stroke:#000000;stroke-width:0.8;" x="63.336875" xlink:href="#m3a9d7f5f4b" y="157.475471"/>
      </g>
     </g>
     <g id="text_11">
      <!-- 0.00 -->
      <g transform="translate(31.836875 162.336096)scale(0.14 -0.14)">
       <use xlink:href="#TimesNewRomanPSMT-30"/>
       <use x="50" xlink:href="#TimesNewRomanPSMT-2e"/>
       <use x="75" xlink:href="#TimesNewRomanPSMT-30"/>
       <use x="125" xlink:href="#TimesNewRomanPSMT-30"/>
      </g>
     </g>
    </g>
    <g id="ytick_5">
     <g id="line2d_21">
      <path clip-path="url(#pdaef04e596)" d="M 63.336875 103.668299 
L 398.136875 103.668299 
" style="fill:none;stroke:#000000;stroke-dasharray:0.5,0.825;stroke-dashoffset:0;stroke-width:0.5;"/>
     </g>
     <g id="line2d_22">
      <g>
       <use style="stroke:#000000;stroke-width:0.8;" x="63.336875" xlink:href="#m3a9d7f5f4b" y="103.668299"/>
      </g>
     </g>
     <g id="text_12">
      <!-- 0.02 -->
      <g transform="translate(31.836875 108.528924)scale(0.14 -0.14)">
       <use xlink:href="#TimesNewRomanPSMT-30"/>
       <use x="50" xlink:href="#TimesNewRomanPSMT-2e"/>
       <use x="75" xlink:href="#TimesNewRomanPSMT-30"/>
       <use x="125" xlink:href="#TimesNewRomanPSMT-32"/>
      </g>
     </g>
    </g>
    <g id="ytick_6">
     <g id="line2d_23">
      <path clip-path="url(#pdaef04e596)" d="M 63.336875 49.861128 
L 398.136875 49.861128 
" style="fill:none;stroke:#000000;stroke-dasharray:0.5,0.825;stroke-dashoffset:0;stroke-width:0.5;"/>
     </g>
     <g id="line2d_24">
      <g>
       <use style="stroke:#000000;stroke-width:0.8;" x="63.336875" xlink:href="#m3a9d7f5f4b" y="49.861128"/>
      </g>
     </g>
     <g id="text_13">
      <!-- 0.04 -->
      <g transform="translate(31.836875 54.721753)scale(0.14 -0.14)">
       <use xlink:href="#TimesNewRomanPSMT-30"/>
       <use x="50" xlink:href="#TimesNewRomanPSMT-2e"/>
       <use x="75" xlink:href="#TimesNewRomanPSMT-30"/>
       <use x="125" xlink:href="#TimesNewRomanPSMT-34"/>
      </g>
     </g>
    </g>
    <g id="text_14">
     <!-- Volatage (V) -->
     <g transform="translate(16.92125 209.352344)rotate(-90)scale(0.14 -0.14)">
      <defs>
       <path d="M 4544 4238 
L 4544 4122 
Q 4319 4081 4203 3978 
Q 4038 3825 3909 3509 
L 2431 -97 
L 2316 -97 
L 728 3556 
Q 606 3838 556 3900 
Q 478 3997 364 4051 
Q 250 4106 56 4122 
L 56 4238 
L 1788 4238 
L 1788 4122 
Q 1494 4094 1406 4022 
Q 1319 3950 1319 3838 
Q 1319 3681 1463 3350 
L 2541 866 
L 3541 3319 
Q 3688 3681 3688 3822 
Q 3688 3913 3597 3995 
Q 3506 4078 3291 4113 
Q 3275 4116 3238 4122 
L 3238 4238 
L 4544 4238 
z
" id="TimesNewRomanPSMT-56" transform="scale(0.015625)"/>
       <path d="M 1600 2947 
Q 2250 2947 2644 2453 
Q 2978 2031 2978 1484 
Q 2978 1100 2793 706 
Q 2609 313 2286 112 
Q 1963 -88 1566 -88 
Q 919 -88 538 428 
Q 216 863 216 1403 
Q 216 1797 411 2186 
Q 606 2575 925 2761 
Q 1244 2947 1600 2947 
z
M 1503 2744 
Q 1338 2744 1170 2645 
Q 1003 2547 900 2300 
Q 797 2053 797 1666 
Q 797 1041 1045 587 
Q 1294 134 1700 134 
Q 2003 134 2200 384 
Q 2397 634 2397 1244 
Q 2397 2006 2069 2444 
Q 1847 2744 1503 2744 
z
" id="TimesNewRomanPSMT-6f" transform="scale(0.015625)"/>
       <path d="M 1184 4444 
L 1184 647 
Q 1184 378 1223 290 
Q 1263 203 1344 158 
Q 1425 113 1647 113 
L 1647 0 
L 244 0 
L 244 113 
Q 441 113 512 153 
Q 584 194 625 287 
Q 666 381 666 647 
L 666 3247 
Q 666 3731 644 3842 
Q 622 3953 573 3993 
Q 525 4034 450 4034 
Q 369 4034 244 3984 
L 191 4094 
L 1044 4444 
L 1184 4444 
z
" id="TimesNewRomanPSMT-6c" transform="scale(0.015625)"/>
       <path d="M 1822 413 
Q 1381 72 1269 19 
Q 1100 -59 909 -59 
Q 613 -59 420 144 
Q 228 347 228 678 
Q 228 888 322 1041 
Q 450 1253 767 1440 
Q 1084 1628 1822 1897 
L 1822 2009 
Q 1822 2438 1686 2597 
Q 1550 2756 1291 2756 
Q 1094 2756 978 2650 
Q 859 2544 859 2406 
L 866 2225 
Q 866 2081 792 2003 
Q 719 1925 600 1925 
Q 484 1925 411 2006 
Q 338 2088 338 2228 
Q 338 2497 613 2722 
Q 888 2947 1384 2947 
Q 1766 2947 2009 2819 
Q 2194 2722 2281 2516 
Q 2338 2381 2338 1966 
L 2338 994 
Q 2338 584 2353 492 
Q 2369 400 2405 369 
Q 2441 338 2488 338 
Q 2538 338 2575 359 
Q 2641 400 2828 588 
L 2828 413 
Q 2478 -56 2159 -56 
Q 2006 -56 1915 50 
Q 1825 156 1822 413 
z
M 1822 616 
L 1822 1706 
Q 1350 1519 1213 1441 
Q 966 1303 859 1153 
Q 753 1003 753 825 
Q 753 600 887 451 
Q 1022 303 1197 303 
Q 1434 303 1822 616 
z
" id="TimesNewRomanPSMT-61" transform="scale(0.015625)"/>
       <path d="M 1031 3803 
L 1031 2863 
L 1700 2863 
L 1700 2644 
L 1031 2644 
L 1031 788 
Q 1031 509 1111 412 
Q 1191 316 1316 316 
Q 1419 316 1516 380 
Q 1613 444 1666 569 
L 1788 569 
Q 1678 263 1478 108 
Q 1278 -47 1066 -47 
Q 922 -47 784 33 
Q 647 113 581 261 
Q 516 409 516 719 
L 516 2644 
L 63 2644 
L 63 2747 
Q 234 2816 414 2980 
Q 594 3144 734 3369 
Q 806 3488 934 3803 
L 1031 3803 
z
" id="TimesNewRomanPSMT-74" transform="scale(0.015625)"/>
       <path d="M 966 1044 
Q 703 1172 562 1401 
Q 422 1631 422 1909 
Q 422 2334 742 2640 
Q 1063 2947 1563 2947 
Q 1972 2947 2272 2747 
L 2878 2747 
Q 3013 2747 3034 2739 
Q 3056 2731 3066 2713 
Q 3084 2684 3084 2613 
Q 3084 2531 3069 2500 
Q 3059 2484 3036 2475 
Q 3013 2466 2878 2466 
L 2506 2466 
Q 2681 2241 2681 1891 
Q 2681 1491 2375 1206 
Q 2069 922 1553 922 
Q 1341 922 1119 984 
Q 981 866 932 777 
Q 884 688 884 625 
Q 884 572 936 522 
Q 988 472 1138 450 
Q 1225 438 1575 428 
Q 2219 413 2409 384 
Q 2700 344 2873 169 
Q 3047 -6 3047 -263 
Q 3047 -616 2716 -925 
Q 2228 -1381 1444 -1381 
Q 841 -1381 425 -1109 
Q 191 -953 191 -784 
Q 191 -709 225 -634 
Q 278 -519 444 -313 
Q 466 -284 763 25 
Q 600 122 533 198 
Q 466 275 466 372 
Q 466 481 555 628 
Q 644 775 966 1044 
z
M 1509 2797 
Q 1278 2797 1122 2612 
Q 966 2428 966 2047 
Q 966 1553 1178 1281 
Q 1341 1075 1591 1075 
Q 1828 1075 1981 1253 
Q 2134 1431 2134 1813 
Q 2134 2309 1919 2591 
Q 1759 2797 1509 2797 
z
M 934 0 
Q 788 -159 713 -296 
Q 638 -434 638 -550 
Q 638 -700 819 -813 
Q 1131 -1006 1722 -1006 
Q 2284 -1006 2551 -807 
Q 2819 -609 2819 -384 
Q 2819 -222 2659 -153 
Q 2497 -84 2016 -72 
Q 1313 -53 934 0 
z
" id="TimesNewRomanPSMT-67" transform="scale(0.015625)"/>
      </defs>
      <use xlink:href="#TimesNewRomanPSMT-56"/>
      <use x="59.341797" xlink:href="#TimesNewRomanPSMT-6f"/>
      <use x="109.341797" xlink:href="#TimesNewRomanPSMT-6c"/>
      <use x="137.125" xlink:href="#TimesNewRomanPSMT-61"/>
      <use x="181.509766" xlink:href="#TimesNewRomanPSMT-74"/>
      <use x="209.292969" xlink:href="#TimesNewRomanPSMT-61"/>
      <use x="253.677734" xlink:href="#TimesNewRomanPSMT-67"/>
      <use x="303.677734" xlink:href="#TimesNewRomanPSMT-65"/>
      <use x="348.0625" xlink:href="#TimesNewRomanPSMT-20"/>
      <use x="373.0625" xlink:href="#TimesNewRomanPSMT-28"/>
      <use x="406.363281" xlink:href="#TimesNewRomanPSMT-56"/>
      <use x="478.580078" xlink:href="#TimesNewRomanPSMT-29"/>
     </g>
    </g>
   </g>
   <g id="LineCollection_1">
    <path clip-path="url(#pdaef04e596)" d="M 78.555057 157.475471 
L 382.918693 157.475471 
" style="fill:none;stroke:#1f77b4;stroke-width:1.5;"/>
   </g>
   <g id="line2d_25">
    <path clip-path="url(#pdaef04e596)" d="M 78.555057 157.379694 
L 78.707239 157.446953 
L 78.889857 157.379694 
L 80.95953 157.446953 
L 80.989966 157.514212 
L 81.081275 157.446953 
L 81.20302 157.446953 
L 81.324766 157.446953 
L 81.476948 157.514212 
L 81.62913 157.446953 
L 81.750875 157.514212 
L 81.781311 157.480583 
L 81.903057 157.480583 
L 113.404693 157.581471 
L 113.496002 157.615101 
L 113.526439 157.547842 
L 113.617748 157.615101 
L 113.739493 157.615101 
L 113.891675 157.64873 
L 114.01342 157.64873 
L 114.713457 157.749618 
L 114.865639 157.783248 
L 115.322184 157.884136 
L 115.413493 157.917766 
L 115.44393 157.884136 
L 115.870039 157.985025 
L 115.991784 158.052284 
L 116.02222 158.018654 
L 116.35702 158.119543 
L 116.509202 158.153172 
L 116.539639 158.119543 
L 116.600511 158.186802 
L 117.209239 158.28769 
L 117.36142 158.354949 
L 117.391857 158.28769 
L 117.483166 158.354949 
L 117.604911 158.354949 
L 118.244075 158.455838 
L 118.396257 158.523097 
L 118.487566 158.489467 
L 118.578875 158.590356 
L 118.639748 158.556726 
L 119.46153 158.657614 
L 119.613711 158.724873 
L 119.644148 158.657614 
L 119.735457 158.724873 
L 120.739857 158.825762 
L 120.892039 158.859391 
L 121.318148 158.96028 
L 121.500766 159.027539 
L 121.683384 159.128427 
L 121.896439 159.229316 
L 122.079057 159.330204 
L 122.413857 159.56561 
L 122.626911 159.632869 
L 122.80953 159.868276 
L 122.839966 159.834646 
L 122.870402 159.901905 
L 123.083457 160.103682 
L 123.205202 160.204571 
L 124.453093 161.717897 
L 124.970511 162.625893 
L 125.031384 162.726782 
L 125.214002 163.029447 
L 125.48793 163.634778 
L 125.548802 163.735666 
L 126.49233 166.08973 
L 128.866366 174.328953 
L 130.266439 180.045965 
L 130.814293 182.231881 
L 131.910002 186.603714 
L 132.914402 189.596738 
L 133.005711 189.798515 
L 133.310075 190.471105 
L 133.370948 190.571993 
L 133.675311 191.009176 
L 133.918802 191.44636 
L 134.466657 192.186208 
L 134.710148 192.455244 
L 135.19713 192.858798 
L 135.471057 192.959686 
L 135.623239 192.993316 
L 135.897166 192.959686 
L 136.049348 192.791539 
L 136.171093 192.69065 
L 136.688511 191.816284 
L 136.77982 191.648136 
L 137.023311 191.042806 
L 138.636439 185.359423 
L 140.188693 176.178574 
L 143.384511 146.954555 
L 144.358475 136.15949 
L 145.606366 121.026224 
L 146.671639 108.078873 
L 148.16302 89.750806 
L 149.989202 68.900524 
L 151.328402 56.693022 
L 152.51542 48.352908 
L 153.215457 44.451893 
L 154.067675 41.156209 
L 154.402475 40.349096 
L 154.493784 40.248211 
L 154.828584 39.777392 
L 154.95033 39.676507 
L 155.132948 39.609245 
L 155.467748 39.710141 
L 156.046039 40.449982 
L 157.29393 44.956338 
L 158.115711 50.034393 
L 160.30713 72.868811 
L 161.615893 91.667689 
L 162.376802 104.144221 
L 164.202984 138.311778 
L 169.620657 249.726249 
L 171.872948 287.593046 
L 173.333893 305.551192 
L 174.27742 313.824045 
L 174.764402 317.153364 
L 175.860111 322.634967 
L 176.803639 324.450961 
L 176.834075 324.417335 
L 176.864511 324.51822 
L 176.95582 324.585482 
L 177.138439 324.72 
L 177.29062 324.686365 
L 177.412366 324.585482 
L 177.808039 324.013775 
L 178.538511 322.130533 
L 179.268984 318.464911 
L 179.695093 316.009964 
L 180.486439 310.05754 
L 181.795202 297.513746 
L 182.799602 285.272617 
L 184.595348 257.965475 
L 193.02622 110.802861 
L 196.161166 74.045837 
L 196.830766 67.824383 
L 197.774293 60.392268 
L 199.235239 52.89289 
L 199.904839 50.303423 
L 200.48313 48.218398 
L 200.878802 47.276767 
L 201.852766 45.326265 
L 201.883202 45.359889 
L 201.944075 45.29263 
L 202.248439 45.225368 
L 202.40062 45.124483 
L 202.644111 45.0236 
L 202.857166 44.855444 
L 202.918039 44.922703 
L 202.978911 44.889079 
L 203.252839 44.989965 
L 203.618075 45.259003 
L 203.83113 45.359889 
L 204.044184 45.460775 
L 204.257239 45.561669 
L 204.592039 46.066106 
L 204.622475 46.066106 
L 204.83553 46.536916 
L 204.957275 46.805957 
L 205.992111 49.3618 
L 207.544366 54.87703 
L 209.066184 62.073739 
L 211.288039 73.743172 
L 211.988075 77.307897 
L 215.823057 99.099799 
L 216.827457 105.018588 
L 222.397311 136.394898 
L 222.945166 139.825104 
L 223.523457 143.625236 
L 226.201857 162.087822 
L 229.549857 192.657021 
L 231.28473 210.615167 
L 232.563057 224.403252 
L 234.115311 241.924212 
L 235.54582 256.51941 
L 237.006766 268.491506 
L 237.706802 272.392523 
L 239.015566 277.705981 
L 240.019966 279.75738 
L 240.050402 279.723753 
L 240.293893 279.656494 
L 240.476511 279.521973 
L 241.23742 278.546718 
L 242.33313 274.544807 
L 242.820111 271.921713 
L 244.068002 264.45596 
L 244.798475 258.974357 
L 245.376766 253.694536 
L 246.411602 242.327769 
L 250.246584 190.067551 
L 251.768402 168.242017 
L 254.233748 136.966598 
L 255.694693 122.001479 
L 256.942584 111.946264 
L 258.494839 103.976077 
L 260.381893 98.090917 
L 260.868875 97.283812 
L 260.960184 97.182921 
L 261.112366 96.947517 
L 261.690657 96.44307 
L 261.964584 96.342187 
L 261.99502 96.308555 
L 262.055893 96.375816 
L 262.634184 96.44307 
L 262.816802 96.57759 
L 262.847239 96.543961 
L 262.877675 96.57759 
L 263.09073 96.779367 
L 263.212475 96.846626 
L 263.42553 97.0484 
L 264.703857 98.56173 
L 264.916911 98.931654 
L 265.34302 99.503355 
L 265.556075 99.83965 
L 266.925711 102.59727 
L 267.047457 102.832674 
L 267.656184 104.480519 
L 268.386657 106.36377 
L 268.660584 107.103616 
L 269.391057 109.188644 
L 269.512802 109.457679 
L 271.917275 117.797794 
L 272.404257 119.916451 
L 272.891239 121.866961 
L 273.317348 123.716583 
L 273.37822 123.88473 
L 273.71302 125.129021 
L 274.260875 127.079531 
L 277.365384 137.000229 
L 277.700184 138.009112 
L 278.126293 139.421551 
L 279.06982 142.212797 
L 279.16113 142.448204 
L 279.191566 142.414574 
L 279.49593 143.288942 
L 280.195966 145.104933 
L 280.561202 145.945671 
L 280.682948 146.214706 
L 281.139493 147.425368 
L 281.16993 147.425368 
L 281.443857 148.198845 
L 283.42222 152.368902 
L 283.452657 152.335272 
L 283.483093 152.402531 
L 283.939639 153.176009 
L 284.061384 153.276897 
L 284.304875 153.545933 
L 284.335311 153.512304 
L 284.365748 153.545933 
L 284.487493 153.74771 
L 284.548366 153.714081 
L 284.700548 153.814969 
L 285.09622 154.117634 
L 285.918002 154.050375 
L 286.10062 153.848599 
L 286.19193 153.848599 
L 287.044148 152.806085 
L 287.318075 152.234383 
L 287.53113 151.864459 
L 287.86593 151.12461 
L 288.596402 149.241359 
L 289.357311 147.089072 
L 289.722548 146.012929 
L 290.148657 144.600491 
L 290.78782 142.851757 
L 291.12262 141.842873 
L 291.396548 141.103025 
L 292.735748 138.412666 
L 292.827057 138.311778 
L 294.074948 137.067486 
L 294.196693 137.067486 
L 294.257566 137.033859 
L 294.288002 137.067486 
L 294.440184 137.101116 
L 294.56193 137.101116 
L 294.714111 137.134746 
L 294.89673 137.235634 
L 295.779384 138.345407 
L 296.966402 141.237542 
L 297.81862 144.432343 
L 298.82302 149.342248 
L 299.553493 153.445045 
L 300.010039 156.572587 
L 300.83182 162.121451 
L 301.105748 164.17285 
L 301.83622 169.654455 
L 303.236293 181.323885 
L 306.006002 204.830893 
L 307.52782 215.760472 
L 309.110511 225.513022 
L 309.932293 229.481304 
L 310.480148 231.667223 
L 310.906257 233.079658 
L 311.575857 234.323952 
L 311.667166 234.424835 
L 312.093275 234.761133 
L 312.64113 234.660241 
L 313.767275 233.281435 
L 315.045602 228.741453 
L 315.806511 224.436882 
L 316.750039 218.618984 
L 320.00673 192.623391 
L 321.01113 183.677948 
L 321.406802 180.348631 
L 325.424402 145.743893 
L 325.759202 143.288942 
L 327.128839 133.536391 
L 327.341893 132.123954 
L 328.011493 127.78575 
L 328.833275 122.640439 
L 329.442002 119.277491 
L 329.655057 118.201347 
L 330.415966 114.602993 
L 332.455202 106.061104 
L 333.003057 103.875185 
L 333.459602 102.328235 
L 334.220511 100.175945 
L 335.833639 96.880256 
L 336.168439 96.375816 
L 336.533675 95.837739 
L 336.624984 95.736853 
L 337.385893 95.030634 
L 337.507639 94.929743 
L 337.75113 94.795228 
L 338.177239 94.694337 
L 338.207675 94.660707 
L 338.268548 94.727969 
L 338.66422 94.828857 
L 338.907711 94.963373 
L 338.99902 94.963373 
L 339.303384 95.165155 
L 339.455566 95.232408 
L 339.699057 95.50145 
L 339.851239 95.602335 
L 340.064293 95.804115 
L 340.186039 95.905001 
L 340.520839 96.140404 
L 340.612148 96.241296 
L 341.586111 97.418327 
L 341.799166 97.754622 
L 342.10353 98.225432 
L 343.077493 100.142316 
L 343.168802 100.243207 
L 343.503602 100.983053 
L 344.173202 102.731786 
L 344.934111 104.884073 
L 345.238475 105.825701 
L 346.334184 109.827606 
L 347.338584 114.737513 
L 347.886439 117.629646 
L 353.304111 146.954555 
L 356.134693 159.935535 
L 356.804293 163.029447 
L 360.152293 178.297233 
L 360.639275 180.382261 
L 361.887166 185.426683 
L 362.039348 186.032013 
L 365.11342 195.885451 
L 365.20473 196.087228 
L 366.087384 198.643069 
L 366.635239 200.089136 
L 366.909166 200.862617 
L 368.309239 204.22556 
L 368.613602 204.864523 
L 369.739748 207.084071 
L 369.952802 207.45399 
L 370.378911 208.126583 
L 370.80502 208.731913 
L 370.987639 208.967317 
L 373.270366 211.355013 
L 373.300802 211.321381 
L 373.331239 211.422272 
L 373.361675 211.388642 
L 373.57473 211.590417 
L 373.757348 211.691308 
L 373.939966 211.792196 
L 373.970402 211.758567 
L 374.031275 211.825828 
L 374.457384 211.926711 
L 374.640002 211.993973 
L 375.340039 211.893082 
L 375.613966 211.724937 
L 375.82702 211.657678 
L 375.979202 211.556793 
L 376.16182 211.489531 
L 376.344439 211.355013 
L 377.622766 209.808054 
L 378.201057 208.799172 
L 378.444548 208.395619 
L 379.966366 204.763632 
L 380.392475 203.351196 
L 380.60553 202.64498 
L 381.214257 200.425431 
L 381.670802 198.57581 
L 382.218657 196.154487 
L 382.492584 194.876567 
L 382.918693 192.825168 
L 382.918693 192.825168 
" style="fill:none;stroke:#0000ff;stroke-linecap:square;stroke-width:1.5;"/>
   </g>
   <g id="line2d_26">
    <path clip-path="url(#pdaef04e596)" d="M 78.555057 157.39281 
L 82.20742 157.493698 
L 82.450911 157.510513 
L 82.663966 157.510513 
L 99.890948 157.611401 
L 100.134439 157.628216 
L 100.651857 157.71229 
L 100.864911 157.796363 
L 101.169275 157.897252 
L 102.112802 158.519397 
L 102.38673 158.788433 
L 102.599784 159.02384 
L 103.269384 159.915021 
L 105.30862 164.673593 
L 107.286984 171.601265 
L 110.300184 182.850328 
L 110.75673 184.128248 
L 111.76113 186.5832 
L 112.522039 187.995638 
L 113.039457 188.651413 
L 113.800366 188.954079 
L 114.043857 188.937264 
L 114.34822 188.836375 
L 115.10913 187.844306 
L 116.417893 184.716764 
L 117.057057 182.379515 
L 117.726657 179.369676 
L 119.065857 172.172968 
L 122.079057 151.457206 
L 123.205202 142.579023 
L 125.792293 123.410218 
L 126.766257 117.676391 
L 128.440257 109.033617 
L 129.718584 103.871492 
L 130.722984 101.416537 
L 131.270839 100.474911 
L 131.696948 99.852768 
L 132.701348 97.902253 
L 132.944839 97.700479 
L 133.310075 97.381001 
L 133.979675 96.792483 
L 134.253602 96.742041 
L 134.52753 96.775671 
L 134.86233 96.67478 
L 135.318875 96.321673 
L 135.471057 96.254411 
L 135.653675 96.271223 
L 135.927602 96.372114 
L 136.323275 96.473005 
L 136.718948 96.372114 
L 136.901566 96.372114 
L 137.44942 96.775671 
L 137.723348 97.128778 
L 137.845093 97.212851 
L 138.697311 98.827069 
L 139.397348 101.450166 
L 140.036511 103.938745 
L 141.527893 111.000942 
L 143.384511 122.939405 
L 144.662839 132.893731 
L 147.797784 159.780503 
L 152.393675 201.901427 
L 153.732875 212.091162 
L 155.346002 221.255199 
L 156.015602 223.743778 
L 156.837384 226.114659 
L 157.933093 227.728872 
L 158.267893 227.796131 
L 159.485348 227.005838 
L 159.88102 226.434137 
L 161.159348 223.357039 
L 161.920257 220.481718 
L 163.168148 214.478856 
L 164.446475 206.05467 
L 166.942257 185.910611 
L 168.037966 176.645688 
L 169.620657 165.245294 
L 170.381566 160.419463 
L 171.142475 156.467999 
L 172.086002 152.314758 
L 173.425202 148.934995 
L 173.729566 148.531441 
L 174.399166 147.942925 
L 174.581784 147.842036 
L 174.794839 147.690704 
L 175.160075 147.791593 
L 175.61662 148.447367 
L 176.529711 150.145657 
L 177.108002 152.062537 
L 177.899348 155.055561 
L 178.38633 157.695475 
L 179.360293 162.941674 
L 181.39953 173.63585 
L 183.682257 186.852236 
L 185.691057 195.259607 
L 186.269348 196.537527 
L 186.75633 197.142858 
L 187.273748 197.563226 
L 187.821602 197.462338 
L 188.33902 197.075599 
L 188.67382 196.722489 
L 188.978184 196.251676 
L 189.891275 193.964871 
L 190.713057 190.349702 
L 191.382657 186.482312 
L 193.36102 173.787182 
L 197.622111 139.972738 
L 199.448293 123.931475 
L 201.578839 103.80423 
L 204.805093 79.691888 
L 205.596439 75.89176 
L 206.50953 73.672211 
L 207.605239 72.057999 
L 208.335711 71.402224 
L 208.579202 71.385406 
L 208.974875 71.721707 
L 209.309675 72.10844 
L 209.400984 72.192519 
L 210.070584 73.06688 
L 210.709748 74.748363 
L 211.53153 77.321013 
L 212.292439 80.700776 
L 213.418584 86.165566 
L 214.301239 90.890506 
L 214.727348 93.261387 
L 217.740548 113.977148 
L 219.292802 125.125322 
L 220.57113 133.515877 
L 223.736511 152.079351 
L 226.26273 165.413441 
L 227.662802 171.819857 
L 229.61073 179.958192 
L 231.86302 187.793862 
L 234.510984 198.454407 
L 235.363202 202.136838 
L 236.184984 205.281195 
L 236.671966 206.945849 
L 237.737239 210.123838 
L 239.015566 212.713305 
L 239.106875 212.797384 
L 240.141711 213.789451 
L 240.628693 214.17619 
L 240.872184 214.377964 
L 241.298293 214.697447 
L 242.059202 215.000113 
L 242.66793 215.100998 
L 242.91142 215.134628 
L 243.124475 215.134628 
L 243.307093 215.185077 
L 244.859348 216.160327 
L 245.224584 216.563883 
L 245.863748 217.118773 
L 246.228984 217.43825 
L 246.837711 217.959507 
L 247.324693 218.346246 
L 250.459639 221.944601 
L 251.494475 223.979182 
L 251.677093 224.315476 
L 252.04233 225.004881 
L 254.872911 229.511234 
L 254.96422 229.595305 
L 255.329457 229.998862 
L 255.694693 230.318339 
L 255.907748 230.41923 
L 257.216511 230.318339 
L 257.64262 229.98205 
L 258.951384 227.627986 
L 259.499239 225.795174 
L 259.98622 223.811037 
L 260.625384 220.515348 
L 261.66022 213.554048 
L 262.451566 206.592742 
L 263.303784 197.580041 
L 264.856039 178.327162 
L 266.621348 151.373132 
L 269.847602 96.271223 
L 272.495566 57.02562 
L 273.80433 41.774645 
L 274.778293 33.165503 
L 275.72182 27.145828 
L 276.543602 24.001471 
L 277.213202 22.45451 
L 277.39582 22.353624 
L 277.639311 22.336807 
L 277.913239 22.4377 
L 278.217602 22.723548 
L 278.674148 23.665171 
L 279.130693 25.24576 
L 279.526366 26.927231 
L 280.135093 30.071588 
L 280.956875 35.738155 
L 281.74822 42.211831 
L 282.783057 52.33431 
L 283.696148 62.490406 
L 285.735384 87.426672 
L 290.057348 143.285242 
L 292.492257 171.567637 
L 294.288002 189.256744 
L 296.662039 208.021995 
L 298.396911 219.70824 
L 299.82742 227.728872 
L 301.562293 234.942393 
L 302.231893 237.094682 
L 302.627566 238.204453 
L 303.144984 239.095637 
L 303.631966 239.482376 
L 304.088511 239.381484 
L 304.27113 239.17971 
L 305.245093 237.380536 
L 306.888657 232.537888 
L 308.136548 227.274871 
L 310.419275 215.370034 
L 311.910657 206.508668 
L 312.610693 201.918244 
L 313.280293 197.176487 
L 314.862984 185.019429 
L 316.445675 173.619035 
L 318.515348 160.638055 
L 319.24582 156.955626 
L 319.793675 154.298897 
L 321.92422 146.496858 
L 322.472075 145.033974 
L 323.232984 143.621536 
L 323.35473 143.436575 
L 323.811275 142.7808 
L 324.298257 142.175469 
L 326.824475 139.535555 
L 327.03753 139.434666 
L 327.250584 139.333777 
L 327.524511 139.249705 
L 327.859311 139.014298 
L 327.981057 138.930224 
L 328.437602 138.577115 
L 328.833275 138.257634 
L 329.107202 138.005413 
L 330.842075 135.937201 
L 332.790002 132.523808 
L 333.672657 130.40515 
L 334.859675 127.513015 
L 335.894511 124.957174 
L 336.138002 124.351843 
L 339.33382 115.82677 
L 340.733893 113.691295 
L 342.01222 113.069152 
L 342.133966 113.102782 
L 342.68182 113.186855 
L 342.864439 113.237297 
L 343.534039 113.724924 
L 343.929711 114.313443 
L 344.44713 115.355954 
L 345.268911 117.945427 
L 345.908075 120.434009 
L 346.79073 124.284584 
L 349.286511 137.231935 
L 351.021384 148.430552 
L 356.956475 190.282443 
L 359.360948 202.977573 
L 360.18273 205.735193 
L 362.19153 209.922061 
L 363.408984 211.115905 
L 363.713348 211.166354 
L 364.322075 210.94776 
L 364.504693 210.846869 
L 365.022111 210.44332 
L 365.904766 209.333542 
L 367.061348 206.52548 
L 367.670075 204.322749 
L 368.248366 202.035947 
L 369.435384 196.318935 
L 370.591966 188.617784 
L 373.848657 164.438186 
L 375.49222 151.726242 
L 379.60113 122.973035 
L 381.396875 113.657671 
L 382.370839 109.840722 
L 382.918693 107.9911 
L 382.918693 107.9911 
" style="fill:none;stroke:#ff0000;stroke-linecap:square;stroke-width:1.5;"/>
   </g>
   <g id="line2d_27">
    <path clip-path="url(#pdaef04e596)" d="M 126.40102 165.854323 
" style="fill:none;stroke:#ffffff;stroke-linecap:square;stroke-width:1.5;"/>
    <defs>
     <path d="M 0 -5 
L -1.12257 -1.545085 
L -4.755283 -1.545085 
L -1.816356 0.59017 
L -2.938926 4.045085 
L -0 1.90983 
L 2.938926 4.045085 
L 1.816356 0.59017 
L 4.755283 -1.545085 
L 1.12257 -1.545085 
z
" id="md2c78d12ba" style="stroke:#ffffff;stroke-linejoin:bevel;"/>
    </defs>
    <g clip-path="url(#pdaef04e596)">
     <use style="fill:#0000ff;stroke:#ffffff;stroke-linejoin:bevel;" x="126.40102" xlink:href="#md2c78d12ba" y="165.854323"/>
    </g>
   </g>
   <g id="line2d_28">
    <path clip-path="url(#pdaef04e596)" d="M 105.186875 164.286853 
" style="fill:none;stroke:#ffffff;stroke-linecap:square;stroke-width:1.5;"/>
    <defs>
     <path d="M 0 -5 
L -1.12257 -1.545085 
L -4.755283 -1.545085 
L -1.816356 0.59017 
L -2.938926 4.045085 
L -0 1.90983 
L 2.938926 4.045085 
L 1.816356 0.59017 
L 4.755283 -1.545085 
L 1.12257 -1.545085 
z
" id="m6222ab623f" style="stroke:#ffffff;stroke-linejoin:bevel;"/>
    </defs>
    <g clip-path="url(#pdaef04e596)">
     <use style="fill:#ff0000;stroke:#ffffff;stroke-linejoin:bevel;" x="105.186875" xlink:href="#m6222ab623f" y="164.286853"/>
    </g>
   </g>
   <g id="patch_3">
    <path d="M 63.336875 339.84 
L 63.336875 7.2 
" style="fill:none;stroke:#000000;stroke-linecap:square;stroke-linejoin:miter;stroke-width:0.8;"/>
   </g>
   <g id="patch_4">
    <path d="M 398.136875 339.84 
L 398.136875 7.2 
" style="fill:none;stroke:#000000;stroke-linecap:square;stroke-linejoin:miter;stroke-width:0.8;"/>
   </g>
   <g id="patch_5">
    <path d="M 63.336875 339.84 
L 398.136875 339.84 
" style="fill:none;stroke:#000000;stroke-linecap:square;stroke-linejoin:miter;stroke-width:0.8;"/>
   </g>
   <g id="patch_6">
    <path d="M 63.336875 7.2 
L 398.136875 7.2 
" style="fill:none;stroke:#000000;stroke-linecap:square;stroke-linejoin:miter;stroke-width:0.8;"/>
   </g>
   <g id="text_15">
    <g id="patch_7">
     <path d="M 75.036875 331.242688 
L 166.79375 331.242688 
L 166.79375 293.760312 
L 75.036875 293.760312 
z
" style="fill:#ffffff;stroke:#000000;stroke-linejoin:miter;stroke-width:0.75;"/>
    </g>
    <!-- Auto_00082 -->
    <g transform="translate(80.076875 308.521562)scale(0.14 -0.14)">
     <defs>
      <path d="M 2928 1419 
L 1288 1419 
L 1000 750 
Q 894 503 894 381 
Q 894 284 986 211 
Q 1078 138 1384 116 
L 1384 0 
L 50 0 
L 50 116 
Q 316 163 394 238 
Q 553 388 747 847 
L 2238 4334 
L 2347 4334 
L 3822 809 
Q 4000 384 4145 257 
Q 4291 131 4550 116 
L 4550 0 
L 2878 0 
L 2878 116 
Q 3131 128 3220 200 
Q 3309 272 3309 375 
Q 3309 513 3184 809 
L 2928 1419 
z
M 2841 1650 
L 2122 3363 
L 1384 1650 
L 2841 1650 
z
" id="TimesNewRomanPSMT-41" transform="scale(0.015625)"/>
      <path d="M 2709 2863 
L 2709 1128 
Q 2709 631 2732 520 
Q 2756 409 2807 365 
Q 2859 322 2928 322 
Q 3025 322 3147 375 
L 3191 266 
L 2334 -88 
L 2194 -88 
L 2194 519 
Q 1825 119 1631 15 
Q 1438 -88 1222 -88 
Q 981 -88 804 51 
Q 628 191 559 409 
Q 491 628 491 1028 
L 491 2306 
Q 491 2509 447 2587 
Q 403 2666 317 2708 
Q 231 2750 6 2747 
L 6 2863 
L 1009 2863 
L 1009 947 
Q 1009 547 1148 422 
Q 1288 297 1484 297 
Q 1619 297 1789 381 
Q 1959 466 2194 703 
L 2194 2325 
Q 2194 2569 2105 2655 
Q 2016 2741 1734 2747 
L 1734 2863 
L 2709 2863 
z
" id="TimesNewRomanPSMT-75" transform="scale(0.015625)"/>
      <path d="M 3256 -1381 
L -53 -1381 
L -53 -1119 
L 3256 -1119 
L 3256 -1381 
z
" id="TimesNewRomanPSMT-5f" transform="scale(0.015625)"/>
      <path d="M 1228 2134 
Q 725 2547 579 2797 
Q 434 3047 434 3316 
Q 434 3728 753 4026 
Q 1072 4325 1600 4325 
Q 2113 4325 2425 4047 
Q 2738 3769 2738 3413 
Q 2738 3175 2569 2928 
Q 2400 2681 1866 2347 
Q 2416 1922 2594 1678 
Q 2831 1359 2831 1006 
Q 2831 559 2490 242 
Q 2150 -75 1597 -75 
Q 994 -75 656 303 
Q 388 606 388 966 
Q 388 1247 577 1523 
Q 766 1800 1228 2134 
z
M 1719 2469 
Q 2094 2806 2194 3001 
Q 2294 3197 2294 3444 
Q 2294 3772 2109 3958 
Q 1925 4144 1606 4144 
Q 1288 4144 1088 3959 
Q 888 3775 888 3528 
Q 888 3366 970 3203 
Q 1053 3041 1206 2894 
L 1719 2469 
z
M 1375 2016 
Q 1116 1797 991 1539 
Q 866 1281 866 981 
Q 866 578 1086 336 
Q 1306 94 1647 94 
Q 1984 94 2187 284 
Q 2391 475 2391 747 
Q 2391 972 2272 1150 
Q 2050 1481 1375 2016 
z
" id="TimesNewRomanPSMT-38" transform="scale(0.015625)"/>
     </defs>
     <use xlink:href="#TimesNewRomanPSMT-41"/>
     <use x="72.216797" xlink:href="#TimesNewRomanPSMT-75"/>
     <use x="122.216797" xlink:href="#TimesNewRomanPSMT-74"/>
     <use x="150" xlink:href="#TimesNewRomanPSMT-6f"/>
     <use x="200" xlink:href="#TimesNewRomanPSMT-5f"/>
     <use x="250" xlink:href="#TimesNewRomanPSMT-30"/>
     <use x="300" xlink:href="#TimesNewRomanPSMT-30"/>
     <use x="350" xlink:href="#TimesNewRomanPSMT-30"/>
     <use x="400" xlink:href="#TimesNewRomanPSMT-38"/>
     <use x="450" xlink:href="#TimesNewRomanPSMT-32"/>
    </g>
    <!-- Vs: 286.80m/s -->
    <g transform="translate(80.076875 323.208)scale(0.14 -0.14)">
     <defs>
      <path d="M 903 2950 
Q 1047 2950 1148 2848 
Q 1250 2747 1250 2603 
Q 1250 2459 1148 2357 
Q 1047 2256 903 2256 
Q 759 2256 657 2357 
Q 556 2459 556 2603 
Q 556 2747 657 2848 
Q 759 2950 903 2950 
z
M 897 609 
Q 1044 609 1145 506 
Q 1247 403 1247 259 
Q 1247 116 1144 14 
Q 1041 -88 897 -88 
Q 753 -88 651 14 
Q 550 116 550 259 
Q 550 403 651 506 
Q 753 609 897 609 
z
" id="TimesNewRomanPSMT-3a" transform="scale(0.015625)"/>
      <path d="M 1794 4444 
L 259 -88 
L 9 -88 
L 1544 4444 
L 1794 4444 
z
" id="TimesNewRomanPSMT-2f" transform="scale(0.015625)"/>
     </defs>
     <use xlink:href="#TimesNewRomanPSMT-56"/>
     <use x="72.216797" xlink:href="#TimesNewRomanPSMT-73"/>
     <use x="111.132812" xlink:href="#TimesNewRomanPSMT-3a"/>
     <use x="138.916016" xlink:href="#TimesNewRomanPSMT-20"/>
     <use x="163.916016" xlink:href="#TimesNewRomanPSMT-32"/>
     <use x="213.916016" xlink:href="#TimesNewRomanPSMT-38"/>
     <use x="263.916016" xlink:href="#TimesNewRomanPSMT-36"/>
     <use x="313.916016" xlink:href="#TimesNewRomanPSMT-2e"/>
     <use x="338.916016" xlink:href="#TimesNewRomanPSMT-38"/>
     <use x="388.916016" xlink:href="#TimesNewRomanPSMT-30"/>
     <use x="438.916016" xlink:href="#TimesNewRomanPSMT-6d"/>
     <use x="516.699219" xlink:href="#TimesNewRomanPSMT-2f"/>
     <use x="544.482422" xlink:href="#TimesNewRomanPSMT-73"/>
    </g>
   </g>
  </g>
 </g>
 <defs>
  <clipPath id="pdaef04e596">
   <rect height="332.64" width="334.8" x="63.336875" y="7.2"/>
  </clipPath>
 </defs>
</svg>
