<?xml version="1.0" encoding="utf-8" standalone="no"?>
<!DOCTYPE svg PUBLIC "-//W3C//DTD SVG 1.1//EN"
  "http://www.w3.org/Graphics/SVG/1.1/DTD/svg11.dtd">
<svg height="383.471875pt" version="1.1" viewBox="0 0 421.086875 383.471875" width="421.086875pt" xmlns="http://www.w3.org/2000/svg" xmlns:xlink="http://www.w3.org/1999/xlink">
 <metadata>
  <rdf:RDF xmlns:cc="http://creativecommons.org/ns#" xmlns:dc="http://purl.org/dc/elements/1.1/" xmlns:rdf="http://www.w3.org/1999/02/22-rdf-syntax-ns#">
   <cc:Work>
    <dc:type rdf:resource="http://purl.org/dc/dcmitype/StillImage"/>
    <dc:date>2021-06-11T14:39:37.538394</dc:date>
    <dc:format>image/svg+xml</dc:format>
    <dc:creator>
     <cc:Agent>
      <dc:title>Matplotlib v3.4.2, https://matplotlib.org/</dc:title>
     </cc:Agent>
    </dc:creator>
   </cc:Work>
  </rdf:RDF>
 </metadata>
 <defs>
  <style type="text/css">*{stroke-linecap:butt;stroke-linejoin:round;}</style>
 </defs>
 <g id="figure_1">
  <g id="patch_1">
   <path d="M 0 383.471875 
L 421.086875 383.471875 
L 421.086875 0 
L 0 0 
z
" style="fill:#ffffff;"/>
  </g>
  <g id="axes_1">
   <g id="patch_2">
    <path d="M 63.336875 339.84 
L 398.136875 339.84 
L 398.136875 7.2 
L 63.336875 7.2 
z
" style="fill:#ffffff;"/>
   </g>
   <g id="matplotlib.axis_1">
    <g id="xtick_1">
     <g id="line2d_1">
      <path clip-path="url(#pafa31e9164)" d="M 93.773239 339.84 
L 93.773239 7.2 
" style="fill:none;stroke:#000000;stroke-dasharray:0.5,0.825;stroke-dashoffset:0;stroke-width:0.5;"/>
     </g>
     <g id="line2d_2">
      <defs>
       <path d="M 0 0 
L 0 3.5 
" id="m23b4a1ce30" style="stroke:#000000;stroke-width:0.8;"/>
      </defs>
      <g>
       <use style="stroke:#000000;stroke-width:0.8;" x="93.773239" xlink:href="#m23b4a1ce30" y="339.84"/>
      </g>
     </g>
     <g id="text_1">
      <!-- 0.000 -->
      <g transform="translate(78.023239 356.56125)scale(0.14 -0.14)">
       <defs>
        <path d="M 231 2094 
Q 231 2819 450 3342 
Q 669 3866 1031 4122 
Q 1313 4325 1613 4325 
Q 2100 4325 2488 3828 
Q 2972 3213 2972 2159 
Q 2972 1422 2759 906 
Q 2547 391 2217 158 
Q 1888 -75 1581 -75 
Q 975 -75 572 641 
Q 231 1244 231 2094 
z
M 844 2016 
Q 844 1141 1059 588 
Q 1238 122 1591 122 
Q 1759 122 1940 273 
Q 2122 425 2216 781 
Q 2359 1319 2359 2297 
Q 2359 3022 2209 3506 
Q 2097 3866 1919 4016 
Q 1791 4119 1609 4119 
Q 1397 4119 1231 3928 
Q 1006 3669 925 3112 
Q 844 2556 844 2016 
z
" id="TimesNewRomanPSMT-30" transform="scale(0.015625)"/>
        <path d="M 800 606 
Q 947 606 1047 504 
Q 1147 403 1147 259 
Q 1147 116 1045 14 
Q 944 -88 800 -88 
Q 656 -88 554 14 
Q 453 116 453 259 
Q 453 406 554 506 
Q 656 606 800 606 
z
" id="TimesNewRomanPSMT-2e" transform="scale(0.015625)"/>
       </defs>
       <use xlink:href="#TimesNewRomanPSMT-30"/>
       <use x="50" xlink:href="#TimesNewRomanPSMT-2e"/>
       <use x="75" xlink:href="#TimesNewRomanPSMT-30"/>
       <use x="125" xlink:href="#TimesNewRomanPSMT-30"/>
       <use x="175" xlink:href="#TimesNewRomanPSMT-30"/>
      </g>
     </g>
    </g>
    <g id="xtick_2">
     <g id="line2d_3">
      <path clip-path="url(#pafa31e9164)" d="M 154.645966 339.84 
L 154.645966 7.2 
" style="fill:none;stroke:#000000;stroke-dasharray:0.5,0.825;stroke-dashoffset:0;stroke-width:0.5;"/>
     </g>
     <g id="line2d_4">
      <g>
       <use style="stroke:#000000;stroke-width:0.8;" x="154.645966" xlink:href="#m23b4a1ce30" y="339.84"/>
      </g>
     </g>
     <g id="text_2">
      <!-- 0.001 -->
      <g transform="translate(138.895966 356.56125)scale(0.14 -0.14)">
       <defs>
        <path d="M 750 3822 
L 1781 4325 
L 1884 4325 
L 1884 747 
Q 1884 391 1914 303 
Q 1944 216 2037 169 
Q 2131 122 2419 116 
L 2419 0 
L 825 0 
L 825 116 
Q 1125 122 1212 167 
Q 1300 213 1334 289 
Q 1369 366 1369 747 
L 1369 3034 
Q 1369 3497 1338 3628 
Q 1316 3728 1258 3775 
Q 1200 3822 1119 3822 
Q 1003 3822 797 3725 
L 750 3822 
z
" id="TimesNewRomanPSMT-31" transform="scale(0.015625)"/>
       </defs>
       <use xlink:href="#TimesNewRomanPSMT-30"/>
       <use x="50" xlink:href="#TimesNewRomanPSMT-2e"/>
       <use x="75" xlink:href="#TimesNewRomanPSMT-30"/>
       <use x="125" xlink:href="#TimesNewRomanPSMT-30"/>
       <use x="175" xlink:href="#TimesNewRomanPSMT-31"/>
      </g>
     </g>
    </g>
    <g id="xtick_3">
     <g id="line2d_5">
      <path clip-path="url(#pafa31e9164)" d="M 215.518693 339.84 
L 215.518693 7.2 
" style="fill:none;stroke:#000000;stroke-dasharray:0.5,0.825;stroke-dashoffset:0;stroke-width:0.5;"/>
     </g>
     <g id="line2d_6">
      <g>
       <use style="stroke:#000000;stroke-width:0.8;" x="215.518693" xlink:href="#m23b4a1ce30" y="339.84"/>
      </g>
     </g>
     <g id="text_3">
      <!-- 0.002 -->
      <g transform="translate(199.768693 356.56125)scale(0.14 -0.14)">
       <defs>
        <path d="M 2934 816 
L 2638 0 
L 138 0 
L 138 116 
Q 1241 1122 1691 1759 
Q 2141 2397 2141 2925 
Q 2141 3328 1894 3587 
Q 1647 3847 1303 3847 
Q 991 3847 742 3664 
Q 494 3481 375 3128 
L 259 3128 
Q 338 3706 661 4015 
Q 984 4325 1469 4325 
Q 1984 4325 2329 3994 
Q 2675 3663 2675 3213 
Q 2675 2891 2525 2569 
Q 2294 2063 1775 1497 
Q 997 647 803 472 
L 1909 472 
Q 2247 472 2383 497 
Q 2519 522 2628 598 
Q 2738 675 2819 816 
L 2934 816 
z
" id="TimesNewRomanPSMT-32" transform="scale(0.015625)"/>
       </defs>
       <use xlink:href="#TimesNewRomanPSMT-30"/>
       <use x="50" xlink:href="#TimesNewRomanPSMT-2e"/>
       <use x="75" xlink:href="#TimesNewRomanPSMT-30"/>
       <use x="125" xlink:href="#TimesNewRomanPSMT-30"/>
       <use x="175" xlink:href="#TimesNewRomanPSMT-32"/>
      </g>
     </g>
    </g>
    <g id="xtick_4">
     <g id="line2d_7">
      <path clip-path="url(#pafa31e9164)" d="M 276.39142 339.84 
L 276.39142 7.2 
" style="fill:none;stroke:#000000;stroke-dasharray:0.5,0.825;stroke-dashoffset:0;stroke-width:0.5;"/>
     </g>
     <g id="line2d_8">
      <g>
       <use style="stroke:#000000;stroke-width:0.8;" x="276.39142" xlink:href="#m23b4a1ce30" y="339.84"/>
      </g>
     </g>
     <g id="text_4">
      <!-- 0.003 -->
      <g transform="translate(260.64142 356.56125)scale(0.14 -0.14)">
       <defs>
        <path d="M 325 3431 
Q 506 3859 782 4092 
Q 1059 4325 1472 4325 
Q 1981 4325 2253 3994 
Q 2459 3747 2459 3466 
Q 2459 3003 1878 2509 
Q 2269 2356 2469 2072 
Q 2669 1788 2669 1403 
Q 2669 853 2319 450 
Q 1863 -75 997 -75 
Q 569 -75 414 31 
Q 259 138 259 259 
Q 259 350 332 419 
Q 406 488 509 488 
Q 588 488 669 463 
Q 722 447 909 348 
Q 1097 250 1169 231 
Q 1284 197 1416 197 
Q 1734 197 1970 444 
Q 2206 691 2206 1028 
Q 2206 1275 2097 1509 
Q 2016 1684 1919 1775 
Q 1784 1900 1550 2001 
Q 1316 2103 1072 2103 
L 972 2103 
L 972 2197 
Q 1219 2228 1467 2375 
Q 1716 2522 1828 2728 
Q 1941 2934 1941 3181 
Q 1941 3503 1739 3701 
Q 1538 3900 1238 3900 
Q 753 3900 428 3381 
L 325 3431 
z
" id="TimesNewRomanPSMT-33" transform="scale(0.015625)"/>
       </defs>
       <use xlink:href="#TimesNewRomanPSMT-30"/>
       <use x="50" xlink:href="#TimesNewRomanPSMT-2e"/>
       <use x="75" xlink:href="#TimesNewRomanPSMT-30"/>
       <use x="125" xlink:href="#TimesNewRomanPSMT-30"/>
       <use x="175" xlink:href="#TimesNewRomanPSMT-33"/>
      </g>
     </g>
    </g>
    <g id="xtick_5">
     <g id="line2d_9">
      <path clip-path="url(#pafa31e9164)" d="M 337.264148 339.84 
L 337.264148 7.2 
" style="fill:none;stroke:#000000;stroke-dasharray:0.5,0.825;stroke-dashoffset:0;stroke-width:0.5;"/>
     </g>
     <g id="line2d_10">
      <g>
       <use style="stroke:#000000;stroke-width:0.8;" x="337.264148" xlink:href="#m23b4a1ce30" y="339.84"/>
      </g>
     </g>
     <g id="text_5">
      <!-- 0.004 -->
      <g transform="translate(321.514148 356.56125)scale(0.14 -0.14)">
       <defs>
        <path d="M 2978 1563 
L 2978 1119 
L 2409 1119 
L 2409 0 
L 1894 0 
L 1894 1119 
L 100 1119 
L 100 1519 
L 2066 4325 
L 2409 4325 
L 2409 1563 
L 2978 1563 
z
M 1894 1563 
L 1894 3666 
L 406 1563 
L 1894 1563 
z
" id="TimesNewRomanPSMT-34" transform="scale(0.015625)"/>
       </defs>
       <use xlink:href="#TimesNewRomanPSMT-30"/>
       <use x="50" xlink:href="#TimesNewRomanPSMT-2e"/>
       <use x="75" xlink:href="#TimesNewRomanPSMT-30"/>
       <use x="125" xlink:href="#TimesNewRomanPSMT-30"/>
       <use x="175" xlink:href="#TimesNewRomanPSMT-34"/>
      </g>
     </g>
    </g>
    <g id="xtick_6">
     <g id="line2d_11">
      <path clip-path="url(#pafa31e9164)" d="M 398.136875 339.84 
L 398.136875 7.2 
" style="fill:none;stroke:#000000;stroke-dasharray:0.5,0.825;stroke-dashoffset:0;stroke-width:0.5;"/>
     </g>
     <g id="line2d_12">
      <g>
       <use style="stroke:#000000;stroke-width:0.8;" x="398.136875" xlink:href="#m23b4a1ce30" y="339.84"/>
      </g>
     </g>
     <g id="text_6">
      <!-- 0.005 -->
      <g transform="translate(382.386875 356.56125)scale(0.14 -0.14)">
       <defs>
        <path d="M 2778 4238 
L 2534 3706 
L 1259 3706 
L 981 3138 
Q 1809 3016 2294 2522 
Q 2709 2097 2709 1522 
Q 2709 1188 2573 903 
Q 2438 619 2231 419 
Q 2025 219 1772 97 
Q 1413 -75 1034 -75 
Q 653 -75 479 54 
Q 306 184 306 341 
Q 306 428 378 495 
Q 450 563 559 563 
Q 641 563 702 538 
Q 763 513 909 409 
Q 1144 247 1384 247 
Q 1750 247 2026 523 
Q 2303 800 2303 1197 
Q 2303 1581 2056 1914 
Q 1809 2247 1375 2428 
Q 1034 2569 447 2591 
L 1259 4238 
L 2778 4238 
z
" id="TimesNewRomanPSMT-35" transform="scale(0.015625)"/>
       </defs>
       <use xlink:href="#TimesNewRomanPSMT-30"/>
       <use x="50" xlink:href="#TimesNewRomanPSMT-2e"/>
       <use x="75" xlink:href="#TimesNewRomanPSMT-30"/>
       <use x="125" xlink:href="#TimesNewRomanPSMT-30"/>
       <use x="175" xlink:href="#TimesNewRomanPSMT-35"/>
      </g>
     </g>
    </g>
    <g id="text_7">
     <!-- Time (sec) -->
     <g transform="translate(200.858906 373.277188)scale(0.14 -0.14)">
      <defs>
       <path d="M 3703 4238 
L 3750 3244 
L 3631 3244 
Q 3597 3506 3538 3619 
Q 3441 3800 3280 3886 
Q 3119 3972 2856 3972 
L 2259 3972 
L 2259 734 
Q 2259 344 2344 247 
Q 2463 116 2709 116 
L 2856 116 
L 2856 0 
L 1059 0 
L 1059 116 
L 1209 116 
Q 1478 116 1591 278 
Q 1659 378 1659 734 
L 1659 3972 
L 1150 3972 
Q 853 3972 728 3928 
Q 566 3869 450 3700 
Q 334 3531 313 3244 
L 194 3244 
L 244 4238 
L 3703 4238 
z
" id="TimesNewRomanPSMT-54" transform="scale(0.015625)"/>
       <path d="M 928 4444 
Q 1059 4444 1151 4351 
Q 1244 4259 1244 4128 
Q 1244 3997 1151 3903 
Q 1059 3809 928 3809 
Q 797 3809 703 3903 
Q 609 3997 609 4128 
Q 609 4259 701 4351 
Q 794 4444 928 4444 
z
M 1188 2947 
L 1188 647 
Q 1188 378 1227 289 
Q 1266 200 1342 156 
Q 1419 113 1622 113 
L 1622 0 
L 231 0 
L 231 113 
Q 441 113 512 153 
Q 584 194 626 287 
Q 669 381 669 647 
L 669 1750 
Q 669 2216 641 2353 
Q 619 2453 572 2492 
Q 525 2531 444 2531 
Q 356 2531 231 2484 
L 188 2597 
L 1050 2947 
L 1188 2947 
z
" id="TimesNewRomanPSMT-69" transform="scale(0.015625)"/>
       <path d="M 1050 2338 
Q 1363 2650 1419 2697 
Q 1559 2816 1721 2881 
Q 1884 2947 2044 2947 
Q 2313 2947 2506 2790 
Q 2700 2634 2766 2338 
Q 3088 2713 3309 2830 
Q 3531 2947 3766 2947 
Q 3994 2947 4170 2830 
Q 4347 2713 4450 2447 
Q 4519 2266 4519 1878 
L 4519 647 
Q 4519 378 4559 278 
Q 4591 209 4675 161 
Q 4759 113 4950 113 
L 4950 0 
L 3538 0 
L 3538 113 
L 3597 113 
Q 3781 113 3884 184 
Q 3956 234 3988 344 
Q 4000 397 4000 647 
L 4000 1878 
Q 4000 2228 3916 2372 
Q 3794 2572 3525 2572 
Q 3359 2572 3192 2489 
Q 3025 2406 2788 2181 
L 2781 2147 
L 2788 2013 
L 2788 647 
Q 2788 353 2820 281 
Q 2853 209 2943 161 
Q 3034 113 3253 113 
L 3253 0 
L 1806 0 
L 1806 113 
Q 2044 113 2133 169 
Q 2222 225 2256 338 
Q 2272 391 2272 647 
L 2272 1878 
Q 2272 2228 2169 2381 
Q 2031 2581 1784 2581 
Q 1616 2581 1450 2491 
Q 1191 2353 1050 2181 
L 1050 647 
Q 1050 366 1089 281 
Q 1128 197 1204 155 
Q 1281 113 1516 113 
L 1516 0 
L 100 0 
L 100 113 
Q 297 113 375 155 
Q 453 197 493 289 
Q 534 381 534 647 
L 534 1741 
Q 534 2213 506 2350 
Q 484 2453 437 2492 
Q 391 2531 309 2531 
Q 222 2531 100 2484 
L 53 2597 
L 916 2947 
L 1050 2947 
L 1050 2338 
z
" id="TimesNewRomanPSMT-6d" transform="scale(0.015625)"/>
       <path d="M 681 1784 
Q 678 1147 991 784 
Q 1303 422 1725 422 
Q 2006 422 2214 576 
Q 2422 731 2563 1106 
L 2659 1044 
Q 2594 616 2278 264 
Q 1963 -88 1488 -88 
Q 972 -88 605 314 
Q 238 716 238 1394 
Q 238 2128 614 2539 
Q 991 2950 1559 2950 
Q 2041 2950 2350 2633 
Q 2659 2316 2659 1784 
L 681 1784 
z
M 681 1966 
L 2006 1966 
Q 1991 2241 1941 2353 
Q 1863 2528 1708 2628 
Q 1553 2728 1384 2728 
Q 1125 2728 920 2526 
Q 716 2325 681 1966 
z
" id="TimesNewRomanPSMT-65" transform="scale(0.015625)"/>
       <path id="TimesNewRomanPSMT-20" transform="scale(0.015625)"/>
       <path d="M 1988 -1253 
L 1988 -1369 
Q 1516 -1131 1200 -813 
Q 750 -359 506 256 
Q 263 872 263 1534 
Q 263 2503 741 3301 
Q 1219 4100 1988 4444 
L 1988 4313 
Q 1603 4100 1356 3731 
Q 1109 3363 987 2797 
Q 866 2231 866 1616 
Q 866 947 969 400 
Q 1050 -31 1165 -292 
Q 1281 -553 1476 -793 
Q 1672 -1034 1988 -1253 
z
" id="TimesNewRomanPSMT-28" transform="scale(0.015625)"/>
       <path d="M 2050 2947 
L 2050 1972 
L 1947 1972 
Q 1828 2431 1642 2597 
Q 1456 2763 1169 2763 
Q 950 2763 815 2647 
Q 681 2531 681 2391 
Q 681 2216 781 2091 
Q 878 1963 1175 1819 
L 1631 1597 
Q 2266 1288 2266 781 
Q 2266 391 1970 151 
Q 1675 -88 1309 -88 
Q 1047 -88 709 6 
Q 606 38 541 38 
Q 469 38 428 -44 
L 325 -44 
L 325 978 
L 428 978 
Q 516 541 762 319 
Q 1009 97 1316 97 
Q 1531 97 1667 223 
Q 1803 350 1803 528 
Q 1803 744 1651 891 
Q 1500 1038 1047 1263 
Q 594 1488 453 1669 
Q 313 1847 313 2119 
Q 313 2472 555 2709 
Q 797 2947 1181 2947 
Q 1350 2947 1591 2875 
Q 1750 2828 1803 2828 
Q 1853 2828 1881 2850 
Q 1909 2872 1947 2947 
L 2050 2947 
z
" id="TimesNewRomanPSMT-73" transform="scale(0.015625)"/>
       <path d="M 2631 1088 
Q 2516 522 2178 217 
Q 1841 -88 1431 -88 
Q 944 -88 581 321 
Q 219 731 219 1428 
Q 219 2103 620 2525 
Q 1022 2947 1584 2947 
Q 2006 2947 2278 2723 
Q 2550 2500 2550 2259 
Q 2550 2141 2473 2067 
Q 2397 1994 2259 1994 
Q 2075 1994 1981 2113 
Q 1928 2178 1911 2362 
Q 1894 2547 1784 2644 
Q 1675 2738 1481 2738 
Q 1169 2738 978 2506 
Q 725 2200 725 1697 
Q 725 1184 976 792 
Q 1228 400 1656 400 
Q 1963 400 2206 609 
Q 2378 753 2541 1131 
L 2631 1088 
z
" id="TimesNewRomanPSMT-63" transform="scale(0.015625)"/>
       <path d="M 144 4313 
L 144 4444 
Q 619 4209 934 3891 
Q 1381 3434 1625 2820 
Q 1869 2206 1869 1541 
Q 1869 572 1392 -226 
Q 916 -1025 144 -1369 
L 144 -1253 
Q 528 -1038 776 -670 
Q 1025 -303 1145 264 
Q 1266 831 1266 1447 
Q 1266 2113 1163 2663 
Q 1084 3094 967 3353 
Q 850 3613 656 3853 
Q 463 4094 144 4313 
z
" id="TimesNewRomanPSMT-29" transform="scale(0.015625)"/>
      </defs>
      <use xlink:href="#TimesNewRomanPSMT-54"/>
      <use x="57.583984" xlink:href="#TimesNewRomanPSMT-69"/>
      <use x="85.367188" xlink:href="#TimesNewRomanPSMT-6d"/>
      <use x="163.150391" xlink:href="#TimesNewRomanPSMT-65"/>
      <use x="207.535156" xlink:href="#TimesNewRomanPSMT-20"/>
      <use x="232.535156" xlink:href="#TimesNewRomanPSMT-28"/>
      <use x="265.835938" xlink:href="#TimesNewRomanPSMT-73"/>
      <use x="304.751953" xlink:href="#TimesNewRomanPSMT-65"/>
      <use x="349.136719" xlink:href="#TimesNewRomanPSMT-63"/>
      <use x="393.521484" xlink:href="#TimesNewRomanPSMT-29"/>
     </g>
    </g>
   </g>
   <g id="matplotlib.axis_2">
    <g id="ytick_1">
     <g id="line2d_13">
      <path clip-path="url(#pafa31e9164)" d="M 63.336875 322.411958 
L 398.136875 322.411958 
" style="fill:none;stroke:#000000;stroke-dasharray:0.5,0.825;stroke-dashoffset:0;stroke-width:0.5;"/>
     </g>
     <g id="line2d_14">
      <defs>
       <path d="M 0 0 
L -3.5 0 
" id="m04bdc4559f" style="stroke:#000000;stroke-width:0.8;"/>
      </defs>
      <g>
       <use style="stroke:#000000;stroke-width:0.8;" x="63.336875" xlink:href="#m04bdc4559f" y="322.411958"/>
      </g>
     </g>
     <g id="text_8">
      <!-- −0.06 -->
      <g transform="translate(23.942188 327.272583)scale(0.14 -0.14)">
       <defs>
        <path d="M 3484 2000 
L 116 2000 
L 116 2256 
L 3484 2256 
L 3484 2000 
z
" id="TimesNewRomanPSMT-2212" transform="scale(0.015625)"/>
        <path d="M 2869 4325 
L 2869 4209 
Q 2456 4169 2195 4045 
Q 1934 3922 1679 3669 
Q 1425 3416 1258 3105 
Q 1091 2794 978 2366 
Q 1428 2675 1881 2675 
Q 2316 2675 2634 2325 
Q 2953 1975 2953 1425 
Q 2953 894 2631 456 
Q 2244 -75 1606 -75 
Q 1172 -75 869 213 
Q 275 772 275 1663 
Q 275 2231 503 2743 
Q 731 3256 1154 3653 
Q 1578 4050 1965 4187 
Q 2353 4325 2688 4325 
L 2869 4325 
z
M 925 2138 
Q 869 1716 869 1456 
Q 869 1156 980 804 
Q 1091 453 1309 247 
Q 1469 100 1697 100 
Q 1969 100 2183 356 
Q 2397 613 2397 1088 
Q 2397 1622 2184 2012 
Q 1972 2403 1581 2403 
Q 1463 2403 1327 2353 
Q 1191 2303 925 2138 
z
" id="TimesNewRomanPSMT-36" transform="scale(0.015625)"/>
       </defs>
       <use xlink:href="#TimesNewRomanPSMT-2212"/>
       <use x="56.396484" xlink:href="#TimesNewRomanPSMT-30"/>
       <use x="106.396484" xlink:href="#TimesNewRomanPSMT-2e"/>
       <use x="131.396484" xlink:href="#TimesNewRomanPSMT-30"/>
       <use x="181.396484" xlink:href="#TimesNewRomanPSMT-36"/>
      </g>
     </g>
    </g>
    <g id="ytick_2">
     <g id="line2d_15">
      <path clip-path="url(#pafa31e9164)" d="M 63.336875 267.989785 
L 398.136875 267.989785 
" style="fill:none;stroke:#000000;stroke-dasharray:0.5,0.825;stroke-dashoffset:0;stroke-width:0.5;"/>
     </g>
     <g id="line2d_16">
      <g>
       <use style="stroke:#000000;stroke-width:0.8;" x="63.336875" xlink:href="#m04bdc4559f" y="267.989785"/>
      </g>
     </g>
     <g id="text_9">
      <!-- −0.04 -->
      <g transform="translate(23.942188 272.85041)scale(0.14 -0.14)">
       <use xlink:href="#TimesNewRomanPSMT-2212"/>
       <use x="56.396484" xlink:href="#TimesNewRomanPSMT-30"/>
       <use x="106.396484" xlink:href="#TimesNewRomanPSMT-2e"/>
       <use x="131.396484" xlink:href="#TimesNewRomanPSMT-30"/>
       <use x="181.396484" xlink:href="#TimesNewRomanPSMT-34"/>
      </g>
     </g>
    </g>
    <g id="ytick_3">
     <g id="line2d_17">
      <path clip-path="url(#pafa31e9164)" d="M 63.336875 213.567612 
L 398.136875 213.567612 
" style="fill:none;stroke:#000000;stroke-dasharray:0.5,0.825;stroke-dashoffset:0;stroke-width:0.5;"/>
     </g>
     <g id="line2d_18">
      <g>
       <use style="stroke:#000000;stroke-width:0.8;" x="63.336875" xlink:href="#m04bdc4559f" y="213.567612"/>
      </g>
     </g>
     <g id="text_10">
      <!-- −0.02 -->
      <g transform="translate(23.942188 218.428237)scale(0.14 -0.14)">
       <use xlink:href="#TimesNewRomanPSMT-2212"/>
       <use x="56.396484" xlink:href="#TimesNewRomanPSMT-30"/>
       <use x="106.396484" xlink:href="#TimesNewRomanPSMT-2e"/>
       <use x="131.396484" xlink:href="#TimesNewRomanPSMT-30"/>
       <use x="181.396484" xlink:href="#TimesNewRomanPSMT-32"/>
      </g>
     </g>
    </g>
    <g id="ytick_4">
     <g id="line2d_19">
      <path clip-path="url(#pafa31e9164)" d="M 63.336875 159.145439 
L 398.136875 159.145439 
" style="fill:none;stroke:#000000;stroke-dasharray:0.5,0.825;stroke-dashoffset:0;stroke-width:0.5;"/>
     </g>
     <g id="line2d_20">
      <g>
       <use style="stroke:#000000;stroke-width:0.8;" x="63.336875" xlink:href="#m04bdc4559f" y="159.145439"/>
      </g>
     </g>
     <g id="text_11">
      <!-- 0.00 -->
      <g transform="translate(31.836875 164.006064)scale(0.14 -0.14)">
       <use xlink:href="#TimesNewRomanPSMT-30"/>
       <use x="50" xlink:href="#TimesNewRomanPSMT-2e"/>
       <use x="75" xlink:href="#TimesNewRomanPSMT-30"/>
       <use x="125" xlink:href="#TimesNewRomanPSMT-30"/>
      </g>
     </g>
    </g>
    <g id="ytick_5">
     <g id="line2d_21">
      <path clip-path="url(#pafa31e9164)" d="M 63.336875 104.723266 
L 398.136875 104.723266 
" style="fill:none;stroke:#000000;stroke-dasharray:0.5,0.825;stroke-dashoffset:0;stroke-width:0.5;"/>
     </g>
     <g id="line2d_22">
      <g>
       <use style="stroke:#000000;stroke-width:0.8;" x="63.336875" xlink:href="#m04bdc4559f" y="104.723266"/>
      </g>
     </g>
     <g id="text_12">
      <!-- 0.02 -->
      <g transform="translate(31.836875 109.583891)scale(0.14 -0.14)">
       <use xlink:href="#TimesNewRomanPSMT-30"/>
       <use x="50" xlink:href="#TimesNewRomanPSMT-2e"/>
       <use x="75" xlink:href="#TimesNewRomanPSMT-30"/>
       <use x="125" xlink:href="#TimesNewRomanPSMT-32"/>
      </g>
     </g>
    </g>
    <g id="ytick_6">
     <g id="line2d_23">
      <path clip-path="url(#pafa31e9164)" d="M 63.336875 50.301092 
L 398.136875 50.301092 
" style="fill:none;stroke:#000000;stroke-dasharray:0.5,0.825;stroke-dashoffset:0;stroke-width:0.5;"/>
     </g>
     <g id="line2d_24">
      <g>
       <use style="stroke:#000000;stroke-width:0.8;" x="63.336875" xlink:href="#m04bdc4559f" y="50.301092"/>
      </g>
     </g>
     <g id="text_13">
      <!-- 0.04 -->
      <g transform="translate(31.836875 55.161717)scale(0.14 -0.14)">
       <use xlink:href="#TimesNewRomanPSMT-30"/>
       <use x="50" xlink:href="#TimesNewRomanPSMT-2e"/>
       <use x="75" xlink:href="#TimesNewRomanPSMT-30"/>
       <use x="125" xlink:href="#TimesNewRomanPSMT-34"/>
      </g>
     </g>
    </g>
    <g id="text_14">
     <!-- Volatage (V) -->
     <g transform="translate(16.92125 209.352344)rotate(-90)scale(0.14 -0.14)">
      <defs>
       <path d="M 4544 4238 
L 4544 4122 
Q 4319 4081 4203 3978 
Q 4038 3825 3909 3509 
L 2431 -97 
L 2316 -97 
L 728 3556 
Q 606 3838 556 3900 
Q 478 3997 364 4051 
Q 250 4106 56 4122 
L 56 4238 
L 1788 4238 
L 1788 4122 
Q 1494 4094 1406 4022 
Q 1319 3950 1319 3838 
Q 1319 3681 1463 3350 
L 2541 866 
L 3541 3319 
Q 3688 3681 3688 3822 
Q 3688 3913 3597 3995 
Q 3506 4078 3291 4113 
Q 3275 4116 3238 4122 
L 3238 4238 
L 4544 4238 
z
" id="TimesNewRomanPSMT-56" transform="scale(0.015625)"/>
       <path d="M 1600 2947 
Q 2250 2947 2644 2453 
Q 2978 2031 2978 1484 
Q 2978 1100 2793 706 
Q 2609 313 2286 112 
Q 1963 -88 1566 -88 
Q 919 -88 538 428 
Q 216 863 216 1403 
Q 216 1797 411 2186 
Q 606 2575 925 2761 
Q 1244 2947 1600 2947 
z
M 1503 2744 
Q 1338 2744 1170 2645 
Q 1003 2547 900 2300 
Q 797 2053 797 1666 
Q 797 1041 1045 587 
Q 1294 134 1700 134 
Q 2003 134 2200 384 
Q 2397 634 2397 1244 
Q 2397 2006 2069 2444 
Q 1847 2744 1503 2744 
z
" id="TimesNewRomanPSMT-6f" transform="scale(0.015625)"/>
       <path d="M 1184 4444 
L 1184 647 
Q 1184 378 1223 290 
Q 1263 203 1344 158 
Q 1425 113 1647 113 
L 1647 0 
L 244 0 
L 244 113 
Q 441 113 512 153 
Q 584 194 625 287 
Q 666 381 666 647 
L 666 3247 
Q 666 3731 644 3842 
Q 622 3953 573 3993 
Q 525 4034 450 4034 
Q 369 4034 244 3984 
L 191 4094 
L 1044 4444 
L 1184 4444 
z
" id="TimesNewRomanPSMT-6c" transform="scale(0.015625)"/>
       <path d="M 1822 413 
Q 1381 72 1269 19 
Q 1100 -59 909 -59 
Q 613 -59 420 144 
Q 228 347 228 678 
Q 228 888 322 1041 
Q 450 1253 767 1440 
Q 1084 1628 1822 1897 
L 1822 2009 
Q 1822 2438 1686 2597 
Q 1550 2756 1291 2756 
Q 1094 2756 978 2650 
Q 859 2544 859 2406 
L 866 2225 
Q 866 2081 792 2003 
Q 719 1925 600 1925 
Q 484 1925 411 2006 
Q 338 2088 338 2228 
Q 338 2497 613 2722 
Q 888 2947 1384 2947 
Q 1766 2947 2009 2819 
Q 2194 2722 2281 2516 
Q 2338 2381 2338 1966 
L 2338 994 
Q 2338 584 2353 492 
Q 2369 400 2405 369 
Q 2441 338 2488 338 
Q 2538 338 2575 359 
Q 2641 400 2828 588 
L 2828 413 
Q 2478 -56 2159 -56 
Q 2006 -56 1915 50 
Q 1825 156 1822 413 
z
M 1822 616 
L 1822 1706 
Q 1350 1519 1213 1441 
Q 966 1303 859 1153 
Q 753 1003 753 825 
Q 753 600 887 451 
Q 1022 303 1197 303 
Q 1434 303 1822 616 
z
" id="TimesNewRomanPSMT-61" transform="scale(0.015625)"/>
       <path d="M 1031 3803 
L 1031 2863 
L 1700 2863 
L 1700 2644 
L 1031 2644 
L 1031 788 
Q 1031 509 1111 412 
Q 1191 316 1316 316 
Q 1419 316 1516 380 
Q 1613 444 1666 569 
L 1788 569 
Q 1678 263 1478 108 
Q 1278 -47 1066 -47 
Q 922 -47 784 33 
Q 647 113 581 261 
Q 516 409 516 719 
L 516 2644 
L 63 2644 
L 63 2747 
Q 234 2816 414 2980 
Q 594 3144 734 3369 
Q 806 3488 934 3803 
L 1031 3803 
z
" id="TimesNewRomanPSMT-74" transform="scale(0.015625)"/>
       <path d="M 966 1044 
Q 703 1172 562 1401 
Q 422 1631 422 1909 
Q 422 2334 742 2640 
Q 1063 2947 1563 2947 
Q 1972 2947 2272 2747 
L 2878 2747 
Q 3013 2747 3034 2739 
Q 3056 2731 3066 2713 
Q 3084 2684 3084 2613 
Q 3084 2531 3069 2500 
Q 3059 2484 3036 2475 
Q 3013 2466 2878 2466 
L 2506 2466 
Q 2681 2241 2681 1891 
Q 2681 1491 2375 1206 
Q 2069 922 1553 922 
Q 1341 922 1119 984 
Q 981 866 932 777 
Q 884 688 884 625 
Q 884 572 936 522 
Q 988 472 1138 450 
Q 1225 438 1575 428 
Q 2219 413 2409 384 
Q 2700 344 2873 169 
Q 3047 -6 3047 -263 
Q 3047 -616 2716 -925 
Q 2228 -1381 1444 -1381 
Q 841 -1381 425 -1109 
Q 191 -953 191 -784 
Q 191 -709 225 -634 
Q 278 -519 444 -313 
Q 466 -284 763 25 
Q 600 122 533 198 
Q 466 275 466 372 
Q 466 481 555 628 
Q 644 775 966 1044 
z
M 1509 2797 
Q 1278 2797 1122 2612 
Q 966 2428 966 2047 
Q 966 1553 1178 1281 
Q 1341 1075 1591 1075 
Q 1828 1075 1981 1253 
Q 2134 1431 2134 1813 
Q 2134 2309 1919 2591 
Q 1759 2797 1509 2797 
z
M 934 0 
Q 788 -159 713 -296 
Q 638 -434 638 -550 
Q 638 -700 819 -813 
Q 1131 -1006 1722 -1006 
Q 2284 -1006 2551 -807 
Q 2819 -609 2819 -384 
Q 2819 -222 2659 -153 
Q 2497 -84 2016 -72 
Q 1313 -53 934 0 
z
" id="TimesNewRomanPSMT-67" transform="scale(0.015625)"/>
      </defs>
      <use xlink:href="#TimesNewRomanPSMT-56"/>
      <use x="59.341797" xlink:href="#TimesNewRomanPSMT-6f"/>
      <use x="109.341797" xlink:href="#TimesNewRomanPSMT-6c"/>
      <use x="137.125" xlink:href="#TimesNewRomanPSMT-61"/>
      <use x="181.509766" xlink:href="#TimesNewRomanPSMT-74"/>
      <use x="209.292969" xlink:href="#TimesNewRomanPSMT-61"/>
      <use x="253.677734" xlink:href="#TimesNewRomanPSMT-67"/>
      <use x="303.677734" xlink:href="#TimesNewRomanPSMT-65"/>
      <use x="348.0625" xlink:href="#TimesNewRomanPSMT-20"/>
      <use x="373.0625" xlink:href="#TimesNewRomanPSMT-28"/>
      <use x="406.363281" xlink:href="#TimesNewRomanPSMT-56"/>
      <use x="478.580078" xlink:href="#TimesNewRomanPSMT-29"/>
     </g>
    </g>
   </g>
   <g id="LineCollection_1">
    <path clip-path="url(#pafa31e9164)" d="M 78.555057 159.145439 
L 382.918693 159.145439 
" style="fill:none;stroke:#1f77b4;stroke-width:1.5;"/>
   </g>
   <g id="line2d_25">
    <path clip-path="url(#pafa31e9164)" d="M 78.555057 159.174555 
L 84.55102 159.072513 
L 84.672766 159.072513 
L 84.764075 159.072513 
L 84.88582 159.038499 
L 85.007566 159.038499 
L 86.255457 159.004485 
L 86.285893 158.902444 
L 86.377202 158.936458 
L 86.498948 159.004485 
L 86.620693 158.936458 
L 99.03873 159.038499 
L 99.160475 159.072513 
L 99.28222 159.038499 
L 99.37353 159.072513 
L 99.403966 159.038499 
L 100.95622 159.140541 
L 101.077966 159.140541 
L 101.169275 159.106527 
L 101.199711 159.140541 
L 103.117202 159.242582 
L 103.147639 159.276596 
L 103.208511 159.208568 
L 107.31742 159.276596 
L 107.439166 159.31061 
L 107.591348 159.276596 
L 107.74353 159.31061 
L 111.822002 159.412652 
L 111.913311 159.446665 
L 111.974184 159.344624 
L 112.035057 159.378638 
L 113.526439 159.412652 
L 113.556875 159.514693 
L 113.648184 159.480679 
L 113.800366 159.446665 
L 113.830802 159.514693 
L 113.891675 159.480679 
L 113.982984 159.446665 
L 114.074293 159.514693 
L 114.10473 159.480679 
L 115.048257 159.582721 
L 115.200439 159.616735 
L 115.930911 159.718776 
L 116.083093 159.786804 
L 116.143966 159.718776 
L 116.174402 159.75279 
L 116.326584 159.820818 
L 116.387457 159.786804 
L 116.417893 159.854832 
L 117.330984 159.956873 
L 117.483166 159.990887 
L 118.335384 160.092929 
L 118.426693 160.126943 
L 118.45713 160.058915 
L 118.518002 160.126943 
L 118.670184 160.160956 
L 118.79193 160.160956 
L 120.557239 160.262998 
L 120.70942 160.297012 
L 120.983348 160.36504 
L 121.105093 160.433067 
L 121.226839 160.433067 
L 121.37902 160.501095 
L 121.409457 160.467081 
L 121.47033 160.535109 
L 121.71382 160.671164 
L 121.866002 160.705178 
L 122.018184 160.841234 
L 122.413857 161.147358 
L 122.535602 161.2494 
L 123.05302 161.759608 
L 123.083457 161.69158 
L 123.113893 161.759608 
L 123.326948 161.997705 
L 124.087857 162.950093 
L 124.270475 163.256218 
L 124.331348 163.324245 
L 124.757457 164.038536 
L 124.970511 164.412689 
L 126.248839 167.473936 
L 126.553202 168.358296 
L 128.50113 175.263109 
L 129.657711 179.957023 
L 130.114257 181.827783 
L 130.41862 183.154324 
L 131.605639 187.984293 
L 132.883966 191.9299 
L 133.036148 192.236025 
L 133.218766 192.644191 
L 133.675311 193.290454 
L 133.918802 193.596579 
L 134.010111 193.664607 
L 134.253602 194.004745 
L 134.284039 193.970732 
L 134.344911 194.038759 
L 134.497093 194.208829 
L 134.588402 194.31087 
L 134.892766 194.514953 
L 134.984075 194.514953 
L 135.19713 194.616995 
L 135.86673 194.514953 
L 136.262402 193.936718 
L 137.175493 191.657789 
L 137.997275 188.528514 
L 139.153857 182.882213 
L 140.675675 171.997779 
L 144.510657 132.303607 
L 145.515057 119.854534 
L 146.91513 102.541478 
L 149.623966 70.602468 
L 150.50662 61.962942 
L 151.237093 55.738409 
L 151.724075 52.439065 
L 152.119748 49.785989 
L 152.454548 47.813183 
L 152.94153 45.296154 
L 153.763311 42.098857 
L 154.128548 41.248513 
L 154.432911 40.772311 
L 154.52422 40.670272 
L 154.798148 40.432175 
L 154.828584 40.534214 
L 154.919893 40.466187 
L 155.163384 40.568234 
L 155.61993 41.214494 
L 156.28953 42.949204 
L 157.385239 48.323393 
L 158.29833 55.194187 
L 159.698402 70.364371 
L 160.824548 85.568565 
L 162.620293 115.364708 
L 165.146511 165.433105 
L 167.033566 205.127277 
L 170.381566 270.263818 
L 171.781639 291.896635 
L 173.333893 309.651866 
L 174.642657 319.073705 
L 175.799239 323.767617 
L 176.194911 324.413875 
L 176.407966 324.515925 
L 176.590584 324.617961 
L 176.681893 324.617961 
L 176.834075 324.72 
L 176.864511 324.651972 
L 176.925384 324.72 
L 177.168875 324.651972 
L 178.203711 322.066924 
L 178.62982 320.264185 
L 179.63422 314.039651 
L 180.212511 309.447778 
L 181.490839 297.032717 
L 182.64742 282.916976 
L 186.117166 226.93016 
L 191.747893 128.221944 
L 192.843602 111.657195 
L 194.213239 94.684282 
L 196.952511 68.221498 
L 198.504766 58.561559 
L 199.81353 53.18737 
L 200.909239 49.888025 
L 201.791893 48.119307 
L 201.974511 48.017269 
L 202.096257 47.983249 
L 202.126693 48.017269 
L 202.15713 47.915219 
L 202.187566 47.949238 
L 202.40062 47.847202 
L 202.613675 47.745152 
L 202.887602 47.575086 
L 203.313711 47.677125 
L 203.557202 47.813183 
L 203.709384 47.88121 
L 203.800693 47.949238 
L 203.83113 47.915219 
L 204.044184 48.017269 
L 204.07462 47.983249 
L 204.135493 48.051277 
L 204.287675 48.153327 
L 204.713784 48.765576 
L 204.987711 49.309795 
L 206.022548 51.826813 
L 206.41822 53.119342 
L 208.000911 58.799656 
L 209.43142 65.670461 
L 210.831493 72.881399 
L 212.048948 78.79981 
L 213.87513 88.391718 
L 214.240366 90.500578 
L 214.940402 94.44618 
L 215.244766 96.282928 
L 216.55353 104.344212 
L 216.827457 106.010894 
L 217.436184 109.344255 
L 219.779784 123.051837 
L 220.175457 125.330766 
L 220.510257 127.269556 
L 221.666839 134.276411 
L 222.336439 138.630185 
L 223.310402 145.398942 
L 224.801784 156.147321 
L 225.59313 162.235802 
L 226.019239 165.739229 
L 226.627966 171.317502 
L 227.023639 174.718888 
L 227.449748 178.902593 
L 228.545457 189.684985 
L 229.123748 196.045577 
L 231.132548 217.372266 
L 232.106511 228.018601 
L 233.110911 239.209163 
L 233.96313 248.32488 
L 234.997966 258.699104 
L 236.458911 270.80804 
L 237.402439 276.420327 
L 238.89382 281.080228 
L 239.411239 281.794514 
L 239.624293 282.032611 
L 240.080839 281.930572 
L 240.263457 281.590428 
L 240.354766 281.386353 
L 240.65913 280.740081 
L 241.146111 279.447555 
L 242.33313 273.665201 
L 242.941857 269.651569 
L 243.398402 266.556302 
L 243.824511 263.597102 
L 245.742002 245.467718 
L 246.381166 237.95065 
L 247.750802 219.753236 
L 248.998693 201.963988 
L 252.468439 153.154102 
L 254.416366 130.5689 
L 254.842475 126.419209 
L 255.451202 120.806922 
L 256.516475 112.269444 
L 256.790402 110.568754 
L 257.39913 107.235393 
L 258.342657 103.425838 
L 258.40353 103.255772 
L 258.860075 101.657118 
L 259.529675 99.922414 
L 259.894911 99.072067 
L 260.534075 97.881582 
L 261.41673 96.963208 
L 261.447166 96.997222 
L 261.629784 96.929194 
L 261.75153 96.861164 
L 262.208075 96.963208 
L 262.390693 97.031236 
L 262.634184 97.13328 
L 263.151602 97.575457 
L 263.182039 97.541443 
L 263.212475 97.609471 
L 265.00822 99.752344 
L 265.312584 100.194522 
L 265.708257 100.772757 
L 266.743093 102.881616 
L 266.803966 102.915633 
L 267.138766 103.663941 
L 267.838802 105.432659 
L 268.11273 106.180961 
L 268.599711 107.541518 
L 269.36062 109.752416 
L 269.482366 110.024527 
L 271.612911 117.541589 
L 272.282511 120.670867 
L 274.260875 129.07229 
L 274.443493 129.718553 
L 274.778293 131.01108 
L 274.900039 131.487274 
L 275.447893 133.460077 
L 277.852366 141.895515 
L 278.308911 143.460152 
L 280.013348 148.834341 
L 280.104657 149.072438 
L 280.804693 150.875173 
L 281.474293 152.745935 
L 281.565602 152.950019 
L 281.961275 153.902406 
L 283.300475 156.725557 
L 283.330911 156.691543 
L 283.361348 156.725557 
L 283.75702 157.37182 
L 283.84833 157.473862 
L 284.487493 158.086111 
L 284.51793 158.052097 
L 284.578802 158.120125 
L 284.883166 158.358222 
L 284.974475 158.358222 
L 285.09622 158.42625 
L 285.644075 158.358222 
L 285.796257 158.222167 
L 286.009311 158.120125 
L 286.800657 157.099709 
L 288.565966 152.916005 
L 289.479057 150.22891 
L 289.813857 149.242508 
L 290.605202 146.929566 
L 290.726948 146.657454 
L 291.366111 145.024789 
L 291.54873 144.650637 
L 291.853093 144.208457 
L 292.035711 143.97036 
L 292.400948 143.392124 
L 293.009675 142.847902 
L 293.040111 142.881917 
L 293.070548 142.779875 
L 293.100984 142.813889 
L 293.314039 142.745862 
L 293.435784 142.643819 
L 293.55753 142.643819 
L 294.257566 142.745862 
L 295.23153 143.97036 
L 296.175057 146.317316 
L 296.540293 147.473787 
L 296.753348 148.188078 
L 298.701275 157.37182 
L 299.82742 164.242619 
L 300.649202 169.820892 
L 301.044875 172.644042 
L 305.823384 209.20894 
L 306.492984 213.562717 
L 307.345202 218.528737 
L 307.95393 221.692023 
L 308.380039 223.834896 
L 308.836584 225.739675 
L 309.597493 228.698881 
L 310.267093 230.399571 
L 310.510584 231.011821 
L 310.87582 231.62407 
L 311.058439 231.726114 
L 311.271493 231.862172 
L 311.423675 231.828159 
L 311.667166 231.726114 
L 312.488948 230.671687 
L 313.432475 228.290712 
L 314.162948 225.467564 
L 314.89342 221.726037 
L 317.389202 204.242917 
L 319.215384 189.140764 
L 319.793675 183.902628 
L 320.219784 180.297161 
L 321.741602 167.644005 
L 322.25902 163.426287 
L 326.520111 130.943052 
L 326.824475 129.106304 
L 329.868111 112.711622 
L 330.750766 109.378269 
L 331.329057 107.26941 
L 333.429166 100.602691 
L 334.281384 98.902 
L 334.342257 98.83397 
L 334.585748 98.493831 
L 334.677057 98.391787 
L 336.07713 96.929194 
L 336.107566 96.963208 
L 336.168439 96.895177 
L 336.442366 96.691097 
L 336.564111 96.725111 
L 336.685857 96.589053 
L 336.716293 96.623069 
L 336.838039 96.555039 
L 336.868475 96.589053 
L 337.598948 96.691097 
L 337.781566 96.793141 
L 337.812002 96.759125 
L 337.842439 96.793141 
L 337.99462 96.895177 
L 339.059893 98.221721 
L 339.546875 99.072067 
L 339.607748 99.140095 
L 339.881675 99.684317 
L 340.09473 100.058472 
L 340.642584 101.078882 
L 340.733893 101.180926 
L 341.038257 101.82719 
L 342.194839 104.650337 
L 342.468766 105.432659 
L 342.77313 106.351035 
L 345.481966 115.806885 
L 346.912475 122.677685 
L 352.664948 154.208531 
L 354.582439 162.30383 
L 355.16073 164.616772 
L 355.586839 166.385493 
L 356.104257 168.494351 
L 356.530366 170.263072 
L 358.113057 176.861761 
L 358.75222 179.378786 
L 359.878366 183.936643 
L 359.969675 184.310797 
L 360.365348 185.909447 
L 360.882766 187.780209 
L 361.065384 188.426473 
L 362.76982 193.766648 
L 366.20913 201.249697 
L 366.300439 201.351739 
L 366.87873 202.406168 
L 367.061348 202.746307 
L 367.335275 203.154471 
L 367.426584 203.256515 
L 367.700511 203.630667 
L 368.004875 204.072845 
L 368.21793 204.412986 
L 368.522293 204.855169 
L 370.378911 206.793956 
L 370.56153 206.895998 
L 370.744148 207.066064 
L 370.957202 207.168109 
L 371.078948 207.202122 
L 371.109384 207.168109 
L 371.170257 207.236136 
L 371.47462 207.338175 
L 371.657239 207.440219 
L 371.718111 207.406206 
L 371.748548 207.440219 
L 371.992039 207.610291 
L 372.14422 207.576278 
L 372.357275 207.678314 
L 372.90513 207.780358 
L 373.057311 207.882402 
L 373.23993 207.950425 
L 374.48782 207.882402 
L 374.640002 207.780358 
L 374.731311 207.780358 
L 375.096548 207.508247 
L 375.218293 207.440219 
L 375.461784 207.134095 
L 376.648802 205.705513 
L 376.861857 205.297346 
L 376.92273 205.229316 
L 377.440148 204.310947 
L 377.50102 204.276933 
L 377.805384 203.630667 
L 379.388075 199.855129 
L 381.457748 192.576163 
L 381.792548 191.04554 
L 382.157784 189.480902 
L 382.918693 185.841418 
L 382.918693 185.841418 
" style="fill:none;stroke:#0000ff;stroke-linecap:square;stroke-width:1.5;"/>
   </g>
   <g id="line2d_26">
    <path clip-path="url(#pafa31e9164)" d="M 78.555057 159.157752 
L 78.768111 159.157752 
L 78.981166 159.157752 
L 86.89462 159.072717 
L 87.046802 159.05571 
L 87.290293 159.038703 
L 90.120875 158.936662 
L 90.33393 158.936662 
L 100.834475 159.038703 
L 101.017093 159.106731 
L 101.260584 159.208773 
L 102.082366 159.770001 
L 102.356293 160.025105 
L 103.178075 161.096542 
L 104.091166 162.831248 
L 106.130402 168.834695 
L 106.800002 171.35172 
L 107.621784 174.480995 
L 108.65662 178.613679 
L 109.447966 181.640913 
L 109.99582 183.613715 
L 111.791566 188.307628 
L 112.33942 189.29403 
L 112.643784 189.787231 
L 112.978584 190.144377 
L 113.617748 190.382474 
L 114.256911 190.297439 
L 114.530839 190.042335 
L 114.68302 189.855259 
L 115.68742 188.001504 
L 117.330984 182.134112 
L 118.061457 178.375582 
L 119.03542 172.933365 
L 121.896439 153.01825 
L 124.513966 132.014693 
L 125.579239 124.531644 
L 127.40542 113.987348 
L 128.470693 108.647175 
L 130.022948 102.966861 
L 130.17513 102.643726 
L 131.17953 100.636909 
L 131.818693 99.803569 
L 132.305675 98.766146 
L 132.76222 98.204915 
L 133.157893 97.89879 
L 133.279639 97.813756 
L 133.584002 97.507631 
L 134.284039 97.235523 
L 134.649275 97.320555 
L 135.592802 96.895382 
L 136.384148 97.218516 
L 136.718948 97.150488 
L 137.084184 97.235523 
L 137.418984 97.592671 
L 138.301639 98.732133 
L 138.575566 99.378396 
L 138.971239 100.772961 
L 139.732148 103.681149 
L 139.975639 104.667551 
L 141.588766 112.371692 
L 142.288802 116.436349 
L 143.323639 123.477214 
L 147.219493 154.820985 
L 151.389275 193.375693 
L 152.971966 206.539059 
L 154.28073 215.246607 
L 155.102511 219.634392 
L 155.832984 222.423531 
L 156.654766 224.804501 
L 157.141748 225.637835 
L 158.085275 226.556209 
L 158.937493 225.960969 
L 159.941893 224.685452 
L 161.037602 221.964344 
L 161.463711 220.467734 
L 163.381202 211.420045 
L 164.172548 206.368987 
L 169.194548 167.933327 
L 170.68593 159.429863 
L 171.294657 156.929844 
L 171.964257 154.412819 
L 172.420802 153.256347 
L 172.633857 152.865188 
L 173.60782 151.419599 
L 173.881748 151.317558 
L 174.155675 151.283544 
L 175.007893 151.368578 
L 175.37313 151.9128 
L 176.62102 154.95704 
L 177.96022 160.620348 
L 179.72553 170.807498 
L 181.460402 180.093282 
L 183.225711 190.297439 
L 185.112766 198.273689 
L 185.873675 200.09343 
L 186.299784 200.603638 
L 186.786766 200.773707 
L 187.030257 200.7567 
L 187.33462 200.654659 
L 188.00422 199.753292 
L 189.282548 196.641024 
L 189.647784 195.314483 
L 190.286948 192.372284 
L 191.413093 184.787195 
L 193.543639 168.52857 
L 202.857166 86.232037 
L 204.865966 73.476848 
L 205.474693 70.95982 
L 205.992111 69.83736 
L 206.479093 69.225111 
L 207.148693 68.595849 
L 207.331311 68.57885 
L 208.213966 68.663879 
L 208.487893 68.816947 
L 208.640075 69.004023 
L 209.492293 70.653695 
L 209.979275 71.674108 
L 210.314075 72.66051 
L 212.018511 79.718389 
L 212.87073 84.27624 
L 214.757784 95.449798 
L 220.266766 134.667773 
L 221.605966 142.916135 
L 226.26273 168.30748 
L 226.93233 171.368726 
L 227.875857 175.552432 
L 229.306366 181.453836 
L 232.654366 193.035555 
L 233.20222 194.991351 
L 236.702402 208.256753 
L 238.22422 212.185357 
L 238.711202 213.052707 
L 238.89382 213.256796 
L 239.198184 213.579925 
L 239.350366 213.681967 
L 239.746039 213.988091 
L 239.928657 214.073126 
L 240.202584 214.226188 
L 241.541784 214.855442 
L 243.215784 214.940482 
L 243.398402 214.9915 
L 243.67233 215.093544 
L 243.976693 215.297625 
L 244.159311 215.382659 
L 244.463675 215.569736 
L 244.950657 215.943888 
L 245.285457 216.301034 
L 245.985493 216.930287 
L 246.25942 217.185394 
L 246.563784 217.491519 
L 249.424802 220.841881 
L 251.646657 224.753475 
L 251.95102 225.399741 
L 253.594584 227.950783 
L 253.777202 228.171867 
L 254.538111 229.243304 
L 255.025093 229.617459 
L 255.207711 229.753517 
L 255.420766 229.855553 
L 255.63382 229.957598 
L 256.181675 229.855553 
L 256.912148 229.345348 
L 257.246948 228.988205 
L 257.64262 228.40997 
L 257.946984 227.746694 
L 258.616584 225.994986 
L 259.347057 223.171833 
L 260.047093 219.54936 
L 260.716693 215.212593 
L 261.690657 207.355389 
L 262.847239 195.314483 
L 263.821202 183.188542 
L 265.556075 158.460468 
L 267.990984 117.201658 
L 269.908475 84.871485 
L 271.46073 62.269277 
L 273.073857 42.966412 
L 274.230439 32.45613 
L 274.80873 28.765621 
L 275.447893 25.517305 
L 275.874002 24.088721 
L 276.330548 23.136338 
L 276.908839 22.371021 
L 277.15233 22.33701 
L 277.456693 22.609115 
L 278.095857 23.884635 
L 278.40022 24.803009 
L 278.887202 26.809824 
L 279.769857 31.77585 
L 280.74382 39.02081 
L 282.41782 54.9563 
L 283.391784 65.823727 
L 288.53553 130.416042 
L 289.905166 147.337935 
L 292.279202 173.936773 
L 294.257566 192.712423 
L 296.47942 209.243158 
L 298.396911 221.369099 
L 299.644802 227.72969 
L 300.679639 231.879381 
L 301.714475 234.991649 
L 302.901493 237.406633 
L 303.236293 237.64473 
L 303.479784 237.627723 
L 303.723275 237.542691 
L 303.997202 237.27058 
L 304.118948 237.117518 
L 305.153784 234.532462 
L 305.732075 232.593674 
L 307.345202 225.858928 
L 310.723639 206.35198 
L 311.454111 201.845141 
L 312.519384 194.634206 
L 317.176148 161.572736 
L 319.184948 150.943405 
L 321.315493 143.035183 
L 322.92862 139.667811 
L 324.754802 137.780043 
L 324.876548 137.677999 
L 326.94622 135.518121 
L 327.828875 134.905871 
L 328.163675 134.531718 
L 328.37673 134.293622 
L 329.411566 132.984089 
L 331.29862 129.633723 
L 331.785602 128.579293 
L 332.150839 127.762961 
L 333.30742 124.93981 
L 333.97702 123.069048 
L 334.798802 120.977196 
L 335.620584 118.987385 
L 336.016257 118.120032 
L 336.41193 117.150637 
L 337.264148 114.990757 
L 337.964184 113.358089 
L 338.816402 111.725426 
L 339.42513 110.909097 
L 340.246911 110.143785 
L 341.494802 110.228817 
L 342.01222 110.670994 
L 342.133966 110.756034 
L 343.168802 112.065568 
L 343.747093 113.222036 
L 345.299348 118.749288 
L 346.516802 124.956817 
L 346.821166 126.555469 
L 349.04302 139.582776 
L 351.995348 160.11014 
L 353.638911 172.100025 
L 354.308511 176.878972 
L 355.617275 186.266798 
L 357.260839 196.538982 
L 357.960875 200.178465 
L 359.817493 207.984643 
L 360.304475 209.260168 
L 361.887166 211.72617 
L 362.19153 212.015285 
L 362.465457 212.185357 
L 362.587202 212.236378 
L 362.952439 212.338419 
L 363.287239 212.40645 
L 364.10902 211.828209 
L 364.656875 211.11392 
L 364.961239 210.637724 
L 366.574366 206.794158 
L 367.091784 204.702308 
L 368.613602 197.406335 
L 369.739748 190.501522 
L 374.000839 156.317595 
L 374.883493 148.987608 
L 377.744511 127.439829 
L 380.575093 110.688004 
L 381.85342 105.466879 
L 382.918693 102.286581 
L 382.918693 102.286581 
" style="fill:none;stroke:#ff0000;stroke-linecap:square;stroke-width:1.5;"/>
   </g>
   <g id="line2d_27">
    <path clip-path="url(#pafa31e9164)" d="M 126.248839 167.473936 
" style="fill:none;stroke:#ffffff;stroke-linecap:square;stroke-width:1.5;"/>
    <defs>
     <path d="M 0 -5 
L -1.12257 -1.545085 
L -4.755283 -1.545085 
L -1.816356 0.59017 
L -2.938926 4.045085 
L -0 1.90983 
L 2.938926 4.045085 
L 1.816356 0.59017 
L 4.755283 -1.545085 
L 1.12257 -1.545085 
z
" id="m8ebef8e600" style="stroke:#ffffff;stroke-linejoin:bevel;"/>
    </defs>
    <g clip-path="url(#pafa31e9164)">
     <use style="fill:#0000ff;stroke:#ffffff;stroke-linejoin:bevel;" x="126.248839" xlink:href="#m8ebef8e600" y="167.473936"/>
    </g>
   </g>
   <g id="line2d_28">
    <path clip-path="url(#pafa31e9164)" d="M 105.30862 166.079572 
" style="fill:none;stroke:#ffffff;stroke-linecap:square;stroke-width:1.5;"/>
    <defs>
     <path d="M 0 -5 
L -1.12257 -1.545085 
L -4.755283 -1.545085 
L -1.816356 0.59017 
L -2.938926 4.045085 
L -0 1.90983 
L 2.938926 4.045085 
L 1.816356 0.59017 
L 4.755283 -1.545085 
L 1.12257 -1.545085 
z
" id="m47f35e418e" style="stroke:#ffffff;stroke-linejoin:bevel;"/>
    </defs>
    <g clip-path="url(#pafa31e9164)">
     <use style="fill:#ff0000;stroke:#ffffff;stroke-linejoin:bevel;" x="105.30862" xlink:href="#m47f35e418e" y="166.079572"/>
    </g>
   </g>
   <g id="patch_3">
    <path d="M 63.336875 339.84 
L 63.336875 7.2 
" style="fill:none;stroke:#000000;stroke-linecap:square;stroke-linejoin:miter;stroke-width:0.8;"/>
   </g>
   <g id="patch_4">
    <path d="M 398.136875 339.84 
L 398.136875 7.2 
" style="fill:none;stroke:#000000;stroke-linecap:square;stroke-linejoin:miter;stroke-width:0.8;"/>
   </g>
   <g id="patch_5">
    <path d="M 63.336875 339.84 
L 398.136875 339.84 
" style="fill:none;stroke:#000000;stroke-linecap:square;stroke-linejoin:miter;stroke-width:0.8;"/>
   </g>
   <g id="patch_6">
    <path d="M 63.336875 7.2 
L 398.136875 7.2 
" style="fill:none;stroke:#000000;stroke-linecap:square;stroke-linejoin:miter;stroke-width:0.8;"/>
   </g>
   <g id="text_15">
    <g id="patch_7">
     <path d="M 75.036875 331.242688 
L 166.79375 331.242688 
L 166.79375 293.760312 
L 75.036875 293.760312 
z
" style="fill:#ffffff;stroke:#000000;stroke-linejoin:miter;stroke-width:0.75;"/>
    </g>
    <!-- Auto_00087 -->
    <g transform="translate(80.076875 308.521563)scale(0.14 -0.14)">
     <defs>
      <path d="M 2928 1419 
L 1288 1419 
L 1000 750 
Q 894 503 894 381 
Q 894 284 986 211 
Q 1078 138 1384 116 
L 1384 0 
L 50 0 
L 50 116 
Q 316 163 394 238 
Q 553 388 747 847 
L 2238 4334 
L 2347 4334 
L 3822 809 
Q 4000 384 4145 257 
Q 4291 131 4550 116 
L 4550 0 
L 2878 0 
L 2878 116 
Q 3131 128 3220 200 
Q 3309 272 3309 375 
Q 3309 513 3184 809 
L 2928 1419 
z
M 2841 1650 
L 2122 3363 
L 1384 1650 
L 2841 1650 
z
" id="TimesNewRomanPSMT-41" transform="scale(0.015625)"/>
      <path d="M 2709 2863 
L 2709 1128 
Q 2709 631 2732 520 
Q 2756 409 2807 365 
Q 2859 322 2928 322 
Q 3025 322 3147 375 
L 3191 266 
L 2334 -88 
L 2194 -88 
L 2194 519 
Q 1825 119 1631 15 
Q 1438 -88 1222 -88 
Q 981 -88 804 51 
Q 628 191 559 409 
Q 491 628 491 1028 
L 491 2306 
Q 491 2509 447 2587 
Q 403 2666 317 2708 
Q 231 2750 6 2747 
L 6 2863 
L 1009 2863 
L 1009 947 
Q 1009 547 1148 422 
Q 1288 297 1484 297 
Q 1619 297 1789 381 
Q 1959 466 2194 703 
L 2194 2325 
Q 2194 2569 2105 2655 
Q 2016 2741 1734 2747 
L 1734 2863 
L 2709 2863 
z
" id="TimesNewRomanPSMT-75" transform="scale(0.015625)"/>
      <path d="M 3256 -1381 
L -53 -1381 
L -53 -1119 
L 3256 -1119 
L 3256 -1381 
z
" id="TimesNewRomanPSMT-5f" transform="scale(0.015625)"/>
      <path d="M 1228 2134 
Q 725 2547 579 2797 
Q 434 3047 434 3316 
Q 434 3728 753 4026 
Q 1072 4325 1600 4325 
Q 2113 4325 2425 4047 
Q 2738 3769 2738 3413 
Q 2738 3175 2569 2928 
Q 2400 2681 1866 2347 
Q 2416 1922 2594 1678 
Q 2831 1359 2831 1006 
Q 2831 559 2490 242 
Q 2150 -75 1597 -75 
Q 994 -75 656 303 
Q 388 606 388 966 
Q 388 1247 577 1523 
Q 766 1800 1228 2134 
z
M 1719 2469 
Q 2094 2806 2194 3001 
Q 2294 3197 2294 3444 
Q 2294 3772 2109 3958 
Q 1925 4144 1606 4144 
Q 1288 4144 1088 3959 
Q 888 3775 888 3528 
Q 888 3366 970 3203 
Q 1053 3041 1206 2894 
L 1719 2469 
z
M 1375 2016 
Q 1116 1797 991 1539 
Q 866 1281 866 981 
Q 866 578 1086 336 
Q 1306 94 1647 94 
Q 1984 94 2187 284 
Q 2391 475 2391 747 
Q 2391 972 2272 1150 
Q 2050 1481 1375 2016 
z
" id="TimesNewRomanPSMT-38" transform="scale(0.015625)"/>
      <path d="M 644 4238 
L 2916 4238 
L 2916 4119 
L 1503 -88 
L 1153 -88 
L 2419 3728 
L 1253 3728 
Q 900 3728 750 3644 
Q 488 3500 328 3200 
L 238 3234 
L 644 4238 
z
" id="TimesNewRomanPSMT-37" transform="scale(0.015625)"/>
     </defs>
     <use xlink:href="#TimesNewRomanPSMT-41"/>
     <use x="72.216797" xlink:href="#TimesNewRomanPSMT-75"/>
     <use x="122.216797" xlink:href="#TimesNewRomanPSMT-74"/>
     <use x="150" xlink:href="#TimesNewRomanPSMT-6f"/>
     <use x="200" xlink:href="#TimesNewRomanPSMT-5f"/>
     <use x="250" xlink:href="#TimesNewRomanPSMT-30"/>
     <use x="300" xlink:href="#TimesNewRomanPSMT-30"/>
     <use x="350" xlink:href="#TimesNewRomanPSMT-30"/>
     <use x="400" xlink:href="#TimesNewRomanPSMT-38"/>
     <use x="450" xlink:href="#TimesNewRomanPSMT-37"/>
    </g>
    <!-- Vs: 290.55m/s -->
    <g transform="translate(80.076875 323.208)scale(0.14 -0.14)">
     <defs>
      <path d="M 903 2950 
Q 1047 2950 1148 2848 
Q 1250 2747 1250 2603 
Q 1250 2459 1148 2357 
Q 1047 2256 903 2256 
Q 759 2256 657 2357 
Q 556 2459 556 2603 
Q 556 2747 657 2848 
Q 759 2950 903 2950 
z
M 897 609 
Q 1044 609 1145 506 
Q 1247 403 1247 259 
Q 1247 116 1144 14 
Q 1041 -88 897 -88 
Q 753 -88 651 14 
Q 550 116 550 259 
Q 550 403 651 506 
Q 753 609 897 609 
z
" id="TimesNewRomanPSMT-3a" transform="scale(0.015625)"/>
      <path d="M 338 -88 
L 338 28 
Q 744 34 1094 217 
Q 1444 400 1770 856 
Q 2097 1313 2225 1859 
Q 1734 1544 1338 1544 
Q 891 1544 572 1889 
Q 253 2234 253 2806 
Q 253 3363 572 3797 
Q 956 4325 1575 4325 
Q 2097 4325 2469 3894 
Q 2925 3359 2925 2575 
Q 2925 1869 2578 1258 
Q 2231 647 1613 244 
Q 1109 -88 516 -88 
L 338 -88 
z
M 2275 2091 
Q 2331 2497 2331 2741 
Q 2331 3044 2228 3395 
Q 2125 3747 1936 3934 
Q 1747 4122 1506 4122 
Q 1228 4122 1018 3872 
Q 809 3622 809 3128 
Q 809 2469 1088 2097 
Q 1291 1828 1588 1828 
Q 1731 1828 1928 1897 
Q 2125 1966 2275 2091 
z
" id="TimesNewRomanPSMT-39" transform="scale(0.015625)"/>
      <path d="M 1794 4444 
L 259 -88 
L 9 -88 
L 1544 4444 
L 1794 4444 
z
" id="TimesNewRomanPSMT-2f" transform="scale(0.015625)"/>
     </defs>
     <use xlink:href="#TimesNewRomanPSMT-56"/>
     <use x="72.216797" xlink:href="#TimesNewRomanPSMT-73"/>
     <use x="111.132812" xlink:href="#TimesNewRomanPSMT-3a"/>
     <use x="138.916016" xlink:href="#TimesNewRomanPSMT-20"/>
     <use x="163.916016" xlink:href="#TimesNewRomanPSMT-32"/>
     <use x="213.916016" xlink:href="#TimesNewRomanPSMT-39"/>
     <use x="263.916016" xlink:href="#TimesNewRomanPSMT-30"/>
     <use x="313.916016" xlink:href="#TimesNewRomanPSMT-2e"/>
     <use x="338.916016" xlink:href="#TimesNewRomanPSMT-35"/>
     <use x="388.916016" xlink:href="#TimesNewRomanPSMT-35"/>
     <use x="438.916016" xlink:href="#TimesNewRomanPSMT-6d"/>
     <use x="516.699219" xlink:href="#TimesNewRomanPSMT-2f"/>
     <use x="544.482422" xlink:href="#TimesNewRomanPSMT-73"/>
    </g>
   </g>
  </g>
 </g>
 <defs>
  <clipPath id="pafa31e9164">
   <rect height="332.64" width="334.8" x="63.336875" y="7.2"/>
  </clipPath>
 </defs>
</svg>
