<?xml version="1.0" encoding="utf-8" standalone="no"?>
<!DOCTYPE svg PUBLIC "-//W3C//DTD SVG 1.1//EN"
  "http://www.w3.org/Graphics/SVG/1.1/DTD/svg11.dtd">
<svg height="383.471875pt" version="1.1" viewBox="0 0 421.086875 383.471875" width="421.086875pt" xmlns="http://www.w3.org/2000/svg" xmlns:xlink="http://www.w3.org/1999/xlink">
 <metadata>
  <rdf:RDF xmlns:cc="http://creativecommons.org/ns#" xmlns:dc="http://purl.org/dc/elements/1.1/" xmlns:rdf="http://www.w3.org/1999/02/22-rdf-syntax-ns#">
   <cc:Work>
    <dc:type rdf:resource="http://purl.org/dc/dcmitype/StillImage"/>
    <dc:date>2021-06-11T14:39:39.451081</dc:date>
    <dc:format>image/svg+xml</dc:format>
    <dc:creator>
     <cc:Agent>
      <dc:title>Matplotlib v3.4.2, https://matplotlib.org/</dc:title>
     </cc:Agent>
    </dc:creator>
   </cc:Work>
  </rdf:RDF>
 </metadata>
 <defs>
  <style type="text/css">*{stroke-linecap:butt;stroke-linejoin:round;}</style>
 </defs>
 <g id="figure_1">
  <g id="patch_1">
   <path d="M 0 383.471875 
L 421.086875 383.471875 
L 421.086875 0 
L 0 0 
z
" style="fill:#ffffff;"/>
  </g>
  <g id="axes_1">
   <g id="patch_2">
    <path d="M 63.336875 339.84 
L 398.136875 339.84 
L 398.136875 7.2 
L 63.336875 7.2 
z
" style="fill:#ffffff;"/>
   </g>
   <g id="matplotlib.axis_1">
    <g id="xtick_1">
     <g id="line2d_1">
      <path clip-path="url(#pcf537f0f5b)" d="M 93.773239 339.84 
L 93.773239 7.2 
" style="fill:none;stroke:#000000;stroke-dasharray:0.5,0.825;stroke-dashoffset:0;stroke-width:0.5;"/>
     </g>
     <g id="line2d_2">
      <defs>
       <path d="M 0 0 
L 0 3.5 
" id="mab0ec5ad9b" style="stroke:#000000;stroke-width:0.8;"/>
      </defs>
      <g>
       <use style="stroke:#000000;stroke-width:0.8;" x="93.773239" xlink:href="#mab0ec5ad9b" y="339.84"/>
      </g>
     </g>
     <g id="text_1">
      <!-- 0.000 -->
      <g transform="translate(78.023239 356.56125)scale(0.14 -0.14)">
       <defs>
        <path d="M 231 2094 
Q 231 2819 450 3342 
Q 669 3866 1031 4122 
Q 1313 4325 1613 4325 
Q 2100 4325 2488 3828 
Q 2972 3213 2972 2159 
Q 2972 1422 2759 906 
Q 2547 391 2217 158 
Q 1888 -75 1581 -75 
Q 975 -75 572 641 
Q 231 1244 231 2094 
z
M 844 2016 
Q 844 1141 1059 588 
Q 1238 122 1591 122 
Q 1759 122 1940 273 
Q 2122 425 2216 781 
Q 2359 1319 2359 2297 
Q 2359 3022 2209 3506 
Q 2097 3866 1919 4016 
Q 1791 4119 1609 4119 
Q 1397 4119 1231 3928 
Q 1006 3669 925 3112 
Q 844 2556 844 2016 
z
" id="TimesNewRomanPSMT-30" transform="scale(0.015625)"/>
        <path d="M 800 606 
Q 947 606 1047 504 
Q 1147 403 1147 259 
Q 1147 116 1045 14 
Q 944 -88 800 -88 
Q 656 -88 554 14 
Q 453 116 453 259 
Q 453 406 554 506 
Q 656 606 800 606 
z
" id="TimesNewRomanPSMT-2e" transform="scale(0.015625)"/>
       </defs>
       <use xlink:href="#TimesNewRomanPSMT-30"/>
       <use x="50" xlink:href="#TimesNewRomanPSMT-2e"/>
       <use x="75" xlink:href="#TimesNewRomanPSMT-30"/>
       <use x="125" xlink:href="#TimesNewRomanPSMT-30"/>
       <use x="175" xlink:href="#TimesNewRomanPSMT-30"/>
      </g>
     </g>
    </g>
    <g id="xtick_2">
     <g id="line2d_3">
      <path clip-path="url(#pcf537f0f5b)" d="M 154.645966 339.84 
L 154.645966 7.2 
" style="fill:none;stroke:#000000;stroke-dasharray:0.5,0.825;stroke-dashoffset:0;stroke-width:0.5;"/>
     </g>
     <g id="line2d_4">
      <g>
       <use style="stroke:#000000;stroke-width:0.8;" x="154.645966" xlink:href="#mab0ec5ad9b" y="339.84"/>
      </g>
     </g>
     <g id="text_2">
      <!-- 0.001 -->
      <g transform="translate(138.895966 356.56125)scale(0.14 -0.14)">
       <defs>
        <path d="M 750 3822 
L 1781 4325 
L 1884 4325 
L 1884 747 
Q 1884 391 1914 303 
Q 1944 216 2037 169 
Q 2131 122 2419 116 
L 2419 0 
L 825 0 
L 825 116 
Q 1125 122 1212 167 
Q 1300 213 1334 289 
Q 1369 366 1369 747 
L 1369 3034 
Q 1369 3497 1338 3628 
Q 1316 3728 1258 3775 
Q 1200 3822 1119 3822 
Q 1003 3822 797 3725 
L 750 3822 
z
" id="TimesNewRomanPSMT-31" transform="scale(0.015625)"/>
       </defs>
       <use xlink:href="#TimesNewRomanPSMT-30"/>
       <use x="50" xlink:href="#TimesNewRomanPSMT-2e"/>
       <use x="75" xlink:href="#TimesNewRomanPSMT-30"/>
       <use x="125" xlink:href="#TimesNewRomanPSMT-30"/>
       <use x="175" xlink:href="#TimesNewRomanPSMT-31"/>
      </g>
     </g>
    </g>
    <g id="xtick_3">
     <g id="line2d_5">
      <path clip-path="url(#pcf537f0f5b)" d="M 215.518693 339.84 
L 215.518693 7.2 
" style="fill:none;stroke:#000000;stroke-dasharray:0.5,0.825;stroke-dashoffset:0;stroke-width:0.5;"/>
     </g>
     <g id="line2d_6">
      <g>
       <use style="stroke:#000000;stroke-width:0.8;" x="215.518693" xlink:href="#mab0ec5ad9b" y="339.84"/>
      </g>
     </g>
     <g id="text_3">
      <!-- 0.002 -->
      <g transform="translate(199.768693 356.56125)scale(0.14 -0.14)">
       <defs>
        <path d="M 2934 816 
L 2638 0 
L 138 0 
L 138 116 
Q 1241 1122 1691 1759 
Q 2141 2397 2141 2925 
Q 2141 3328 1894 3587 
Q 1647 3847 1303 3847 
Q 991 3847 742 3664 
Q 494 3481 375 3128 
L 259 3128 
Q 338 3706 661 4015 
Q 984 4325 1469 4325 
Q 1984 4325 2329 3994 
Q 2675 3663 2675 3213 
Q 2675 2891 2525 2569 
Q 2294 2063 1775 1497 
Q 997 647 803 472 
L 1909 472 
Q 2247 472 2383 497 
Q 2519 522 2628 598 
Q 2738 675 2819 816 
L 2934 816 
z
" id="TimesNewRomanPSMT-32" transform="scale(0.015625)"/>
       </defs>
       <use xlink:href="#TimesNewRomanPSMT-30"/>
       <use x="50" xlink:href="#TimesNewRomanPSMT-2e"/>
       <use x="75" xlink:href="#TimesNewRomanPSMT-30"/>
       <use x="125" xlink:href="#TimesNewRomanPSMT-30"/>
       <use x="175" xlink:href="#TimesNewRomanPSMT-32"/>
      </g>
     </g>
    </g>
    <g id="xtick_4">
     <g id="line2d_7">
      <path clip-path="url(#pcf537f0f5b)" d="M 276.39142 339.84 
L 276.39142 7.2 
" style="fill:none;stroke:#000000;stroke-dasharray:0.5,0.825;stroke-dashoffset:0;stroke-width:0.5;"/>
     </g>
     <g id="line2d_8">
      <g>
       <use style="stroke:#000000;stroke-width:0.8;" x="276.39142" xlink:href="#mab0ec5ad9b" y="339.84"/>
      </g>
     </g>
     <g id="text_4">
      <!-- 0.003 -->
      <g transform="translate(260.64142 356.56125)scale(0.14 -0.14)">
       <defs>
        <path d="M 325 3431 
Q 506 3859 782 4092 
Q 1059 4325 1472 4325 
Q 1981 4325 2253 3994 
Q 2459 3747 2459 3466 
Q 2459 3003 1878 2509 
Q 2269 2356 2469 2072 
Q 2669 1788 2669 1403 
Q 2669 853 2319 450 
Q 1863 -75 997 -75 
Q 569 -75 414 31 
Q 259 138 259 259 
Q 259 350 332 419 
Q 406 488 509 488 
Q 588 488 669 463 
Q 722 447 909 348 
Q 1097 250 1169 231 
Q 1284 197 1416 197 
Q 1734 197 1970 444 
Q 2206 691 2206 1028 
Q 2206 1275 2097 1509 
Q 2016 1684 1919 1775 
Q 1784 1900 1550 2001 
Q 1316 2103 1072 2103 
L 972 2103 
L 972 2197 
Q 1219 2228 1467 2375 
Q 1716 2522 1828 2728 
Q 1941 2934 1941 3181 
Q 1941 3503 1739 3701 
Q 1538 3900 1238 3900 
Q 753 3900 428 3381 
L 325 3431 
z
" id="TimesNewRomanPSMT-33" transform="scale(0.015625)"/>
       </defs>
       <use xlink:href="#TimesNewRomanPSMT-30"/>
       <use x="50" xlink:href="#TimesNewRomanPSMT-2e"/>
       <use x="75" xlink:href="#TimesNewRomanPSMT-30"/>
       <use x="125" xlink:href="#TimesNewRomanPSMT-30"/>
       <use x="175" xlink:href="#TimesNewRomanPSMT-33"/>
      </g>
     </g>
    </g>
    <g id="xtick_5">
     <g id="line2d_9">
      <path clip-path="url(#pcf537f0f5b)" d="M 337.264148 339.84 
L 337.264148 7.2 
" style="fill:none;stroke:#000000;stroke-dasharray:0.5,0.825;stroke-dashoffset:0;stroke-width:0.5;"/>
     </g>
     <g id="line2d_10">
      <g>
       <use style="stroke:#000000;stroke-width:0.8;" x="337.264148" xlink:href="#mab0ec5ad9b" y="339.84"/>
      </g>
     </g>
     <g id="text_5">
      <!-- 0.004 -->
      <g transform="translate(321.514148 356.56125)scale(0.14 -0.14)">
       <defs>
        <path d="M 2978 1563 
L 2978 1119 
L 2409 1119 
L 2409 0 
L 1894 0 
L 1894 1119 
L 100 1119 
L 100 1519 
L 2066 4325 
L 2409 4325 
L 2409 1563 
L 2978 1563 
z
M 1894 1563 
L 1894 3666 
L 406 1563 
L 1894 1563 
z
" id="TimesNewRomanPSMT-34" transform="scale(0.015625)"/>
       </defs>
       <use xlink:href="#TimesNewRomanPSMT-30"/>
       <use x="50" xlink:href="#TimesNewRomanPSMT-2e"/>
       <use x="75" xlink:href="#TimesNewRomanPSMT-30"/>
       <use x="125" xlink:href="#TimesNewRomanPSMT-30"/>
       <use x="175" xlink:href="#TimesNewRomanPSMT-34"/>
      </g>
     </g>
    </g>
    <g id="xtick_6">
     <g id="line2d_11">
      <path clip-path="url(#pcf537f0f5b)" d="M 398.136875 339.84 
L 398.136875 7.2 
" style="fill:none;stroke:#000000;stroke-dasharray:0.5,0.825;stroke-dashoffset:0;stroke-width:0.5;"/>
     </g>
     <g id="line2d_12">
      <g>
       <use style="stroke:#000000;stroke-width:0.8;" x="398.136875" xlink:href="#mab0ec5ad9b" y="339.84"/>
      </g>
     </g>
     <g id="text_6">
      <!-- 0.005 -->
      <g transform="translate(382.386875 356.56125)scale(0.14 -0.14)">
       <defs>
        <path d="M 2778 4238 
L 2534 3706 
L 1259 3706 
L 981 3138 
Q 1809 3016 2294 2522 
Q 2709 2097 2709 1522 
Q 2709 1188 2573 903 
Q 2438 619 2231 419 
Q 2025 219 1772 97 
Q 1413 -75 1034 -75 
Q 653 -75 479 54 
Q 306 184 306 341 
Q 306 428 378 495 
Q 450 563 559 563 
Q 641 563 702 538 
Q 763 513 909 409 
Q 1144 247 1384 247 
Q 1750 247 2026 523 
Q 2303 800 2303 1197 
Q 2303 1581 2056 1914 
Q 1809 2247 1375 2428 
Q 1034 2569 447 2591 
L 1259 4238 
L 2778 4238 
z
" id="TimesNewRomanPSMT-35" transform="scale(0.015625)"/>
       </defs>
       <use xlink:href="#TimesNewRomanPSMT-30"/>
       <use x="50" xlink:href="#TimesNewRomanPSMT-2e"/>
       <use x="75" xlink:href="#TimesNewRomanPSMT-30"/>
       <use x="125" xlink:href="#TimesNewRomanPSMT-30"/>
       <use x="175" xlink:href="#TimesNewRomanPSMT-35"/>
      </g>
     </g>
    </g>
    <g id="text_7">
     <!-- Time (sec) -->
     <g transform="translate(200.858906 373.277188)scale(0.14 -0.14)">
      <defs>
       <path d="M 3703 4238 
L 3750 3244 
L 3631 3244 
Q 3597 3506 3538 3619 
Q 3441 3800 3280 3886 
Q 3119 3972 2856 3972 
L 2259 3972 
L 2259 734 
Q 2259 344 2344 247 
Q 2463 116 2709 116 
L 2856 116 
L 2856 0 
L 1059 0 
L 1059 116 
L 1209 116 
Q 1478 116 1591 278 
Q 1659 378 1659 734 
L 1659 3972 
L 1150 3972 
Q 853 3972 728 3928 
Q 566 3869 450 3700 
Q 334 3531 313 3244 
L 194 3244 
L 244 4238 
L 3703 4238 
z
" id="TimesNewRomanPSMT-54" transform="scale(0.015625)"/>
       <path d="M 928 4444 
Q 1059 4444 1151 4351 
Q 1244 4259 1244 4128 
Q 1244 3997 1151 3903 
Q 1059 3809 928 3809 
Q 797 3809 703 3903 
Q 609 3997 609 4128 
Q 609 4259 701 4351 
Q 794 4444 928 4444 
z
M 1188 2947 
L 1188 647 
Q 1188 378 1227 289 
Q 1266 200 1342 156 
Q 1419 113 1622 113 
L 1622 0 
L 231 0 
L 231 113 
Q 441 113 512 153 
Q 584 194 626 287 
Q 669 381 669 647 
L 669 1750 
Q 669 2216 641 2353 
Q 619 2453 572 2492 
Q 525 2531 444 2531 
Q 356 2531 231 2484 
L 188 2597 
L 1050 2947 
L 1188 2947 
z
" id="TimesNewRomanPSMT-69" transform="scale(0.015625)"/>
       <path d="M 1050 2338 
Q 1363 2650 1419 2697 
Q 1559 2816 1721 2881 
Q 1884 2947 2044 2947 
Q 2313 2947 2506 2790 
Q 2700 2634 2766 2338 
Q 3088 2713 3309 2830 
Q 3531 2947 3766 2947 
Q 3994 2947 4170 2830 
Q 4347 2713 4450 2447 
Q 4519 2266 4519 1878 
L 4519 647 
Q 4519 378 4559 278 
Q 4591 209 4675 161 
Q 4759 113 4950 113 
L 4950 0 
L 3538 0 
L 3538 113 
L 3597 113 
Q 3781 113 3884 184 
Q 3956 234 3988 344 
Q 4000 397 4000 647 
L 4000 1878 
Q 4000 2228 3916 2372 
Q 3794 2572 3525 2572 
Q 3359 2572 3192 2489 
Q 3025 2406 2788 2181 
L 2781 2147 
L 2788 2013 
L 2788 647 
Q 2788 353 2820 281 
Q 2853 209 2943 161 
Q 3034 113 3253 113 
L 3253 0 
L 1806 0 
L 1806 113 
Q 2044 113 2133 169 
Q 2222 225 2256 338 
Q 2272 391 2272 647 
L 2272 1878 
Q 2272 2228 2169 2381 
Q 2031 2581 1784 2581 
Q 1616 2581 1450 2491 
Q 1191 2353 1050 2181 
L 1050 647 
Q 1050 366 1089 281 
Q 1128 197 1204 155 
Q 1281 113 1516 113 
L 1516 0 
L 100 0 
L 100 113 
Q 297 113 375 155 
Q 453 197 493 289 
Q 534 381 534 647 
L 534 1741 
Q 534 2213 506 2350 
Q 484 2453 437 2492 
Q 391 2531 309 2531 
Q 222 2531 100 2484 
L 53 2597 
L 916 2947 
L 1050 2947 
L 1050 2338 
z
" id="TimesNewRomanPSMT-6d" transform="scale(0.015625)"/>
       <path d="M 681 1784 
Q 678 1147 991 784 
Q 1303 422 1725 422 
Q 2006 422 2214 576 
Q 2422 731 2563 1106 
L 2659 1044 
Q 2594 616 2278 264 
Q 1963 -88 1488 -88 
Q 972 -88 605 314 
Q 238 716 238 1394 
Q 238 2128 614 2539 
Q 991 2950 1559 2950 
Q 2041 2950 2350 2633 
Q 2659 2316 2659 1784 
L 681 1784 
z
M 681 1966 
L 2006 1966 
Q 1991 2241 1941 2353 
Q 1863 2528 1708 2628 
Q 1553 2728 1384 2728 
Q 1125 2728 920 2526 
Q 716 2325 681 1966 
z
" id="TimesNewRomanPSMT-65" transform="scale(0.015625)"/>
       <path id="TimesNewRomanPSMT-20" transform="scale(0.015625)"/>
       <path d="M 1988 -1253 
L 1988 -1369 
Q 1516 -1131 1200 -813 
Q 750 -359 506 256 
Q 263 872 263 1534 
Q 263 2503 741 3301 
Q 1219 4100 1988 4444 
L 1988 4313 
Q 1603 4100 1356 3731 
Q 1109 3363 987 2797 
Q 866 2231 866 1616 
Q 866 947 969 400 
Q 1050 -31 1165 -292 
Q 1281 -553 1476 -793 
Q 1672 -1034 1988 -1253 
z
" id="TimesNewRomanPSMT-28" transform="scale(0.015625)"/>
       <path d="M 2050 2947 
L 2050 1972 
L 1947 1972 
Q 1828 2431 1642 2597 
Q 1456 2763 1169 2763 
Q 950 2763 815 2647 
Q 681 2531 681 2391 
Q 681 2216 781 2091 
Q 878 1963 1175 1819 
L 1631 1597 
Q 2266 1288 2266 781 
Q 2266 391 1970 151 
Q 1675 -88 1309 -88 
Q 1047 -88 709 6 
Q 606 38 541 38 
Q 469 38 428 -44 
L 325 -44 
L 325 978 
L 428 978 
Q 516 541 762 319 
Q 1009 97 1316 97 
Q 1531 97 1667 223 
Q 1803 350 1803 528 
Q 1803 744 1651 891 
Q 1500 1038 1047 1263 
Q 594 1488 453 1669 
Q 313 1847 313 2119 
Q 313 2472 555 2709 
Q 797 2947 1181 2947 
Q 1350 2947 1591 2875 
Q 1750 2828 1803 2828 
Q 1853 2828 1881 2850 
Q 1909 2872 1947 2947 
L 2050 2947 
z
" id="TimesNewRomanPSMT-73" transform="scale(0.015625)"/>
       <path d="M 2631 1088 
Q 2516 522 2178 217 
Q 1841 -88 1431 -88 
Q 944 -88 581 321 
Q 219 731 219 1428 
Q 219 2103 620 2525 
Q 1022 2947 1584 2947 
Q 2006 2947 2278 2723 
Q 2550 2500 2550 2259 
Q 2550 2141 2473 2067 
Q 2397 1994 2259 1994 
Q 2075 1994 1981 2113 
Q 1928 2178 1911 2362 
Q 1894 2547 1784 2644 
Q 1675 2738 1481 2738 
Q 1169 2738 978 2506 
Q 725 2200 725 1697 
Q 725 1184 976 792 
Q 1228 400 1656 400 
Q 1963 400 2206 609 
Q 2378 753 2541 1131 
L 2631 1088 
z
" id="TimesNewRomanPSMT-63" transform="scale(0.015625)"/>
       <path d="M 144 4313 
L 144 4444 
Q 619 4209 934 3891 
Q 1381 3434 1625 2820 
Q 1869 2206 1869 1541 
Q 1869 572 1392 -226 
Q 916 -1025 144 -1369 
L 144 -1253 
Q 528 -1038 776 -670 
Q 1025 -303 1145 264 
Q 1266 831 1266 1447 
Q 1266 2113 1163 2663 
Q 1084 3094 967 3353 
Q 850 3613 656 3853 
Q 463 4094 144 4313 
z
" id="TimesNewRomanPSMT-29" transform="scale(0.015625)"/>
      </defs>
      <use xlink:href="#TimesNewRomanPSMT-54"/>
      <use x="57.583984" xlink:href="#TimesNewRomanPSMT-69"/>
      <use x="85.367188" xlink:href="#TimesNewRomanPSMT-6d"/>
      <use x="163.150391" xlink:href="#TimesNewRomanPSMT-65"/>
      <use x="207.535156" xlink:href="#TimesNewRomanPSMT-20"/>
      <use x="232.535156" xlink:href="#TimesNewRomanPSMT-28"/>
      <use x="265.835938" xlink:href="#TimesNewRomanPSMT-73"/>
      <use x="304.751953" xlink:href="#TimesNewRomanPSMT-65"/>
      <use x="349.136719" xlink:href="#TimesNewRomanPSMT-63"/>
      <use x="393.521484" xlink:href="#TimesNewRomanPSMT-29"/>
     </g>
    </g>
   </g>
   <g id="matplotlib.axis_2">
    <g id="ytick_1">
     <g id="line2d_13">
      <path clip-path="url(#pcf537f0f5b)" d="M 63.336875 296.352116 
L 398.136875 296.352116 
" style="fill:none;stroke:#000000;stroke-dasharray:0.5,0.825;stroke-dashoffset:0;stroke-width:0.5;"/>
     </g>
     <g id="line2d_14">
      <defs>
       <path d="M 0 0 
L -3.5 0 
" id="mbd5361b7a7" style="stroke:#000000;stroke-width:0.8;"/>
      </defs>
      <g>
       <use style="stroke:#000000;stroke-width:0.8;" x="63.336875" xlink:href="#mbd5361b7a7" y="296.352116"/>
      </g>
     </g>
     <g id="text_8">
      <!-- −0.06 -->
      <g transform="translate(23.942188 301.212741)scale(0.14 -0.14)">
       <defs>
        <path d="M 3484 2000 
L 116 2000 
L 116 2256 
L 3484 2256 
L 3484 2000 
z
" id="TimesNewRomanPSMT-2212" transform="scale(0.015625)"/>
        <path d="M 2869 4325 
L 2869 4209 
Q 2456 4169 2195 4045 
Q 1934 3922 1679 3669 
Q 1425 3416 1258 3105 
Q 1091 2794 978 2366 
Q 1428 2675 1881 2675 
Q 2316 2675 2634 2325 
Q 2953 1975 2953 1425 
Q 2953 894 2631 456 
Q 2244 -75 1606 -75 
Q 1172 -75 869 213 
Q 275 772 275 1663 
Q 275 2231 503 2743 
Q 731 3256 1154 3653 
Q 1578 4050 1965 4187 
Q 2353 4325 2688 4325 
L 2869 4325 
z
M 925 2138 
Q 869 1716 869 1456 
Q 869 1156 980 804 
Q 1091 453 1309 247 
Q 1469 100 1697 100 
Q 1969 100 2183 356 
Q 2397 613 2397 1088 
Q 2397 1622 2184 2012 
Q 1972 2403 1581 2403 
Q 1463 2403 1327 2353 
Q 1191 2303 925 2138 
z
" id="TimesNewRomanPSMT-36" transform="scale(0.015625)"/>
       </defs>
       <use xlink:href="#TimesNewRomanPSMT-2212"/>
       <use x="56.396484" xlink:href="#TimesNewRomanPSMT-30"/>
       <use x="106.396484" xlink:href="#TimesNewRomanPSMT-2e"/>
       <use x="131.396484" xlink:href="#TimesNewRomanPSMT-30"/>
       <use x="181.396484" xlink:href="#TimesNewRomanPSMT-36"/>
      </g>
     </g>
    </g>
    <g id="ytick_2">
     <g id="line2d_15">
      <path clip-path="url(#pcf537f0f5b)" d="M 63.336875 249.139002 
L 398.136875 249.139002 
" style="fill:none;stroke:#000000;stroke-dasharray:0.5,0.825;stroke-dashoffset:0;stroke-width:0.5;"/>
     </g>
     <g id="line2d_16">
      <g>
       <use style="stroke:#000000;stroke-width:0.8;" x="63.336875" xlink:href="#mbd5361b7a7" y="249.139002"/>
      </g>
     </g>
     <g id="text_9">
      <!-- −0.04 -->
      <g transform="translate(23.942188 253.999627)scale(0.14 -0.14)">
       <use xlink:href="#TimesNewRomanPSMT-2212"/>
       <use x="56.396484" xlink:href="#TimesNewRomanPSMT-30"/>
       <use x="106.396484" xlink:href="#TimesNewRomanPSMT-2e"/>
       <use x="131.396484" xlink:href="#TimesNewRomanPSMT-30"/>
       <use x="181.396484" xlink:href="#TimesNewRomanPSMT-34"/>
      </g>
     </g>
    </g>
    <g id="ytick_3">
     <g id="line2d_17">
      <path clip-path="url(#pcf537f0f5b)" d="M 63.336875 201.925887 
L 398.136875 201.925887 
" style="fill:none;stroke:#000000;stroke-dasharray:0.5,0.825;stroke-dashoffset:0;stroke-width:0.5;"/>
     </g>
     <g id="line2d_18">
      <g>
       <use style="stroke:#000000;stroke-width:0.8;" x="63.336875" xlink:href="#mbd5361b7a7" y="201.925887"/>
      </g>
     </g>
     <g id="text_10">
      <!-- −0.02 -->
      <g transform="translate(23.942188 206.786512)scale(0.14 -0.14)">
       <use xlink:href="#TimesNewRomanPSMT-2212"/>
       <use x="56.396484" xlink:href="#TimesNewRomanPSMT-30"/>
       <use x="106.396484" xlink:href="#TimesNewRomanPSMT-2e"/>
       <use x="131.396484" xlink:href="#TimesNewRomanPSMT-30"/>
       <use x="181.396484" xlink:href="#TimesNewRomanPSMT-32"/>
      </g>
     </g>
    </g>
    <g id="ytick_4">
     <g id="line2d_19">
      <path clip-path="url(#pcf537f0f5b)" d="M 63.336875 154.712773 
L 398.136875 154.712773 
" style="fill:none;stroke:#000000;stroke-dasharray:0.5,0.825;stroke-dashoffset:0;stroke-width:0.5;"/>
     </g>
     <g id="line2d_20">
      <g>
       <use style="stroke:#000000;stroke-width:0.8;" x="63.336875" xlink:href="#mbd5361b7a7" y="154.712773"/>
      </g>
     </g>
     <g id="text_11">
      <!-- 0.00 -->
      <g transform="translate(31.836875 159.573398)scale(0.14 -0.14)">
       <use xlink:href="#TimesNewRomanPSMT-30"/>
       <use x="50" xlink:href="#TimesNewRomanPSMT-2e"/>
       <use x="75" xlink:href="#TimesNewRomanPSMT-30"/>
       <use x="125" xlink:href="#TimesNewRomanPSMT-30"/>
      </g>
     </g>
    </g>
    <g id="ytick_5">
     <g id="line2d_21">
      <path clip-path="url(#pcf537f0f5b)" d="M 63.336875 107.499658 
L 398.136875 107.499658 
" style="fill:none;stroke:#000000;stroke-dasharray:0.5,0.825;stroke-dashoffset:0;stroke-width:0.5;"/>
     </g>
     <g id="line2d_22">
      <g>
       <use style="stroke:#000000;stroke-width:0.8;" x="63.336875" xlink:href="#mbd5361b7a7" y="107.499658"/>
      </g>
     </g>
     <g id="text_12">
      <!-- 0.02 -->
      <g transform="translate(31.836875 112.360283)scale(0.14 -0.14)">
       <use xlink:href="#TimesNewRomanPSMT-30"/>
       <use x="50" xlink:href="#TimesNewRomanPSMT-2e"/>
       <use x="75" xlink:href="#TimesNewRomanPSMT-30"/>
       <use x="125" xlink:href="#TimesNewRomanPSMT-32"/>
      </g>
     </g>
    </g>
    <g id="ytick_6">
     <g id="line2d_23">
      <path clip-path="url(#pcf537f0f5b)" d="M 63.336875 60.286544 
L 398.136875 60.286544 
" style="fill:none;stroke:#000000;stroke-dasharray:0.5,0.825;stroke-dashoffset:0;stroke-width:0.5;"/>
     </g>
     <g id="line2d_24">
      <g>
       <use style="stroke:#000000;stroke-width:0.8;" x="63.336875" xlink:href="#mbd5361b7a7" y="60.286544"/>
      </g>
     </g>
     <g id="text_13">
      <!-- 0.04 -->
      <g transform="translate(31.836875 65.147169)scale(0.14 -0.14)">
       <use xlink:href="#TimesNewRomanPSMT-30"/>
       <use x="50" xlink:href="#TimesNewRomanPSMT-2e"/>
       <use x="75" xlink:href="#TimesNewRomanPSMT-30"/>
       <use x="125" xlink:href="#TimesNewRomanPSMT-34"/>
      </g>
     </g>
    </g>
    <g id="ytick_7">
     <g id="line2d_25">
      <path clip-path="url(#pcf537f0f5b)" d="M 63.336875 13.07343 
L 398.136875 13.07343 
" style="fill:none;stroke:#000000;stroke-dasharray:0.5,0.825;stroke-dashoffset:0;stroke-width:0.5;"/>
     </g>
     <g id="line2d_26">
      <g>
       <use style="stroke:#000000;stroke-width:0.8;" x="63.336875" xlink:href="#mbd5361b7a7" y="13.07343"/>
      </g>
     </g>
     <g id="text_14">
      <!-- 0.06 -->
      <g transform="translate(31.836875 17.934055)scale(0.14 -0.14)">
       <use xlink:href="#TimesNewRomanPSMT-30"/>
       <use x="50" xlink:href="#TimesNewRomanPSMT-2e"/>
       <use x="75" xlink:href="#TimesNewRomanPSMT-30"/>
       <use x="125" xlink:href="#TimesNewRomanPSMT-36"/>
      </g>
     </g>
    </g>
    <g id="text_15">
     <!-- Volatage (V) -->
     <g transform="translate(16.92125 209.352344)rotate(-90)scale(0.14 -0.14)">
      <defs>
       <path d="M 4544 4238 
L 4544 4122 
Q 4319 4081 4203 3978 
Q 4038 3825 3909 3509 
L 2431 -97 
L 2316 -97 
L 728 3556 
Q 606 3838 556 3900 
Q 478 3997 364 4051 
Q 250 4106 56 4122 
L 56 4238 
L 1788 4238 
L 1788 4122 
Q 1494 4094 1406 4022 
Q 1319 3950 1319 3838 
Q 1319 3681 1463 3350 
L 2541 866 
L 3541 3319 
Q 3688 3681 3688 3822 
Q 3688 3913 3597 3995 
Q 3506 4078 3291 4113 
Q 3275 4116 3238 4122 
L 3238 4238 
L 4544 4238 
z
" id="TimesNewRomanPSMT-56" transform="scale(0.015625)"/>
       <path d="M 1600 2947 
Q 2250 2947 2644 2453 
Q 2978 2031 2978 1484 
Q 2978 1100 2793 706 
Q 2609 313 2286 112 
Q 1963 -88 1566 -88 
Q 919 -88 538 428 
Q 216 863 216 1403 
Q 216 1797 411 2186 
Q 606 2575 925 2761 
Q 1244 2947 1600 2947 
z
M 1503 2744 
Q 1338 2744 1170 2645 
Q 1003 2547 900 2300 
Q 797 2053 797 1666 
Q 797 1041 1045 587 
Q 1294 134 1700 134 
Q 2003 134 2200 384 
Q 2397 634 2397 1244 
Q 2397 2006 2069 2444 
Q 1847 2744 1503 2744 
z
" id="TimesNewRomanPSMT-6f" transform="scale(0.015625)"/>
       <path d="M 1184 4444 
L 1184 647 
Q 1184 378 1223 290 
Q 1263 203 1344 158 
Q 1425 113 1647 113 
L 1647 0 
L 244 0 
L 244 113 
Q 441 113 512 153 
Q 584 194 625 287 
Q 666 381 666 647 
L 666 3247 
Q 666 3731 644 3842 
Q 622 3953 573 3993 
Q 525 4034 450 4034 
Q 369 4034 244 3984 
L 191 4094 
L 1044 4444 
L 1184 4444 
z
" id="TimesNewRomanPSMT-6c" transform="scale(0.015625)"/>
       <path d="M 1822 413 
Q 1381 72 1269 19 
Q 1100 -59 909 -59 
Q 613 -59 420 144 
Q 228 347 228 678 
Q 228 888 322 1041 
Q 450 1253 767 1440 
Q 1084 1628 1822 1897 
L 1822 2009 
Q 1822 2438 1686 2597 
Q 1550 2756 1291 2756 
Q 1094 2756 978 2650 
Q 859 2544 859 2406 
L 866 2225 
Q 866 2081 792 2003 
Q 719 1925 600 1925 
Q 484 1925 411 2006 
Q 338 2088 338 2228 
Q 338 2497 613 2722 
Q 888 2947 1384 2947 
Q 1766 2947 2009 2819 
Q 2194 2722 2281 2516 
Q 2338 2381 2338 1966 
L 2338 994 
Q 2338 584 2353 492 
Q 2369 400 2405 369 
Q 2441 338 2488 338 
Q 2538 338 2575 359 
Q 2641 400 2828 588 
L 2828 413 
Q 2478 -56 2159 -56 
Q 2006 -56 1915 50 
Q 1825 156 1822 413 
z
M 1822 616 
L 1822 1706 
Q 1350 1519 1213 1441 
Q 966 1303 859 1153 
Q 753 1003 753 825 
Q 753 600 887 451 
Q 1022 303 1197 303 
Q 1434 303 1822 616 
z
" id="TimesNewRomanPSMT-61" transform="scale(0.015625)"/>
       <path d="M 1031 3803 
L 1031 2863 
L 1700 2863 
L 1700 2644 
L 1031 2644 
L 1031 788 
Q 1031 509 1111 412 
Q 1191 316 1316 316 
Q 1419 316 1516 380 
Q 1613 444 1666 569 
L 1788 569 
Q 1678 263 1478 108 
Q 1278 -47 1066 -47 
Q 922 -47 784 33 
Q 647 113 581 261 
Q 516 409 516 719 
L 516 2644 
L 63 2644 
L 63 2747 
Q 234 2816 414 2980 
Q 594 3144 734 3369 
Q 806 3488 934 3803 
L 1031 3803 
z
" id="TimesNewRomanPSMT-74" transform="scale(0.015625)"/>
       <path d="M 966 1044 
Q 703 1172 562 1401 
Q 422 1631 422 1909 
Q 422 2334 742 2640 
Q 1063 2947 1563 2947 
Q 1972 2947 2272 2747 
L 2878 2747 
Q 3013 2747 3034 2739 
Q 3056 2731 3066 2713 
Q 3084 2684 3084 2613 
Q 3084 2531 3069 2500 
Q 3059 2484 3036 2475 
Q 3013 2466 2878 2466 
L 2506 2466 
Q 2681 2241 2681 1891 
Q 2681 1491 2375 1206 
Q 2069 922 1553 922 
Q 1341 922 1119 984 
Q 981 866 932 777 
Q 884 688 884 625 
Q 884 572 936 522 
Q 988 472 1138 450 
Q 1225 438 1575 428 
Q 2219 413 2409 384 
Q 2700 344 2873 169 
Q 3047 -6 3047 -263 
Q 3047 -616 2716 -925 
Q 2228 -1381 1444 -1381 
Q 841 -1381 425 -1109 
Q 191 -953 191 -784 
Q 191 -709 225 -634 
Q 278 -519 444 -313 
Q 466 -284 763 25 
Q 600 122 533 198 
Q 466 275 466 372 
Q 466 481 555 628 
Q 644 775 966 1044 
z
M 1509 2797 
Q 1278 2797 1122 2612 
Q 966 2428 966 2047 
Q 966 1553 1178 1281 
Q 1341 1075 1591 1075 
Q 1828 1075 1981 1253 
Q 2134 1431 2134 1813 
Q 2134 2309 1919 2591 
Q 1759 2797 1509 2797 
z
M 934 0 
Q 788 -159 713 -296 
Q 638 -434 638 -550 
Q 638 -700 819 -813 
Q 1131 -1006 1722 -1006 
Q 2284 -1006 2551 -807 
Q 2819 -609 2819 -384 
Q 2819 -222 2659 -153 
Q 2497 -84 2016 -72 
Q 1313 -53 934 0 
z
" id="TimesNewRomanPSMT-67" transform="scale(0.015625)"/>
      </defs>
      <use xlink:href="#TimesNewRomanPSMT-56"/>
      <use x="59.341797" xlink:href="#TimesNewRomanPSMT-6f"/>
      <use x="109.341797" xlink:href="#TimesNewRomanPSMT-6c"/>
      <use x="137.125" xlink:href="#TimesNewRomanPSMT-61"/>
      <use x="181.509766" xlink:href="#TimesNewRomanPSMT-74"/>
      <use x="209.292969" xlink:href="#TimesNewRomanPSMT-61"/>
      <use x="253.677734" xlink:href="#TimesNewRomanPSMT-67"/>
      <use x="303.677734" xlink:href="#TimesNewRomanPSMT-65"/>
      <use x="348.0625" xlink:href="#TimesNewRomanPSMT-20"/>
      <use x="373.0625" xlink:href="#TimesNewRomanPSMT-28"/>
      <use x="406.363281" xlink:href="#TimesNewRomanPSMT-56"/>
      <use x="478.580078" xlink:href="#TimesNewRomanPSMT-29"/>
     </g>
    </g>
   </g>
   <g id="LineCollection_1">
    <path clip-path="url(#pcf537f0f5b)" d="M 78.555057 154.712773 
L 382.918693 154.712773 
" style="fill:none;stroke:#1f77b4;stroke-width:1.5;"/>
   </g>
   <g id="line2d_27">
    <path clip-path="url(#pcf537f0f5b)" d="M 78.555057 154.693769 
L 78.707239 154.723278 
L 78.828984 154.664261 
L 78.95073 154.693769 
L 79.102911 154.693769 
L 79.255093 154.723278 
L 79.437711 154.693769 
L 79.62033 154.723278 
L 98.764802 154.811802 
L 98.886548 154.811802 
L 99.03873 154.811802 
L 107.956584 154.752786 
L 108.07833 154.693769 
L 108.230511 154.693769 
L 113.952548 154.782294 
L 114.10473 154.782294 
L 114.256911 154.782294 
L 115.01782 154.870819 
L 115.230875 154.929835 
L 115.383057 154.929835 
L 116.02222 154.988851 
L 116.174402 155.047868 
L 116.874439 155.106884 
L 117.02662 155.165901 
L 117.574475 155.254425 
L 117.757093 155.283933 
L 118.304948 155.372458 
L 118.45713 155.372458 
L 119.004984 155.460983 
L 119.12673 155.431474 
L 119.248475 155.460983 
L 119.37022 155.490491 
L 119.46153 155.460983 
L 119.491966 155.490491 
L 120.952911 155.549507 
L 121.074657 155.579015 
L 121.226839 155.579015 
L 122.261675 155.66754 
L 122.413857 155.726556 
L 122.444293 155.66754 
L 122.535602 155.726556 
L 122.900839 155.815081 
L 123.083457 155.903606 
L 123.205202 155.874097 
L 123.418257 155.933114 
L 123.783493 156.021638 
L 124.05742 156.139671 
L 124.361784 156.228196 
L 124.605275 156.31672 
L 124.757457 156.346228 
L 124.909639 156.464261 
L 125.274875 156.670819 
L 125.427057 156.759343 
L 127.040184 158.470819 
L 129.17073 162.808523 
L 129.50553 163.664261 
L 131.027348 168.385572 
L 131.483893 170.126557 
L 131.636075 170.657703 
L 132.153493 172.487212 
L 132.51873 173.726556 
L 133.310075 176.352786 
L 136.171093 184.349507 
L 136.353711 184.644589 
L 136.597202 185.028195 
L 136.658075 185.087212 
L 136.992875 185.500327 
L 137.510293 185.854425 
L 137.632039 185.883933 
L 137.845093 185.94295 
L 137.997275 186.001966 
L 138.21033 186.060982 
L 138.666875 186.001966 
L 138.87993 185.824917 
L 139.610402 184.969179 
L 140.21913 183.552786 
L 141.040911 180.838032 
L 141.771384 177.562623 
L 142.836657 171.897048 
L 144.997639 156.493769 
L 146.306402 144.86754 
L 147.280366 135.395408 
L 148.436948 123.149507 
L 149.228293 114.562622 
L 151.084911 94.231475 
L 152.94153 75.611801 
L 154.219857 64.280653 
L 155.559057 54.749508 
L 156.654766 49.024918 
L 157.62873 45.690492 
L 157.96353 45.011805 
L 158.480948 44.6577 
L 158.63313 44.6577 
L 158.815748 44.628197 
L 158.96793 44.746232 
L 159.363602 45.247866 
L 160.672366 49.379014 
L 161.372402 53.274098 
L 162.407239 61.034749 
L 163.289893 69.680653 
L 164.111675 79.62492 
L 164.750839 88.329836 
L 165.694366 102.611803 
L 167.398802 132.474098 
L 171.112039 206.598685 
L 172.116439 226.63475 
L 175.403566 282.139668 
L 176.95582 301.703602 
L 177.71673 309.316714 
L 178.447202 315.336384 
L 179.177675 319.585564 
L 180.364693 323.805251 
L 180.547311 324.129843 
L 180.912548 324.631478 
L 181.369093 324.542956 
L 182.40393 322.30033 
L 182.830039 320.205253 
L 183.864875 313.536384 
L 186.117166 290.638031 
L 187.304184 274.349504 
L 189.252111 242.42164 
L 190.530439 218.195408 
L 195.339384 122.500327 
L 196.282911 105.179016 
L 197.165566 90.218362 
L 198.04822 76.674096 
L 199.630911 56.697047 
L 200.757057 44.805248 
L 202.73542 30.287215 
L 203.344148 27.365904 
L 204.439857 23.559349 
L 204.622475 23.234756 
L 204.957275 22.821635 
L 205.626875 22.32 
L 205.931239 22.408522 
L 206.235602 22.792131 
L 206.266039 22.762625 
L 206.326911 22.851148 
L 206.631275 23.234756 
L 206.722584 23.323279 
L 206.996511 23.79541 
L 207.331311 24.680651 
L 208.122657 27.306888 
L 208.670511 29.874094 
L 209.492293 34.38885 
L 210.405384 40.319997 
L 211.409784 47.283934 
L 211.805457 50.205248 
L 213.936002 67.556063 
L 216.401348 90.42492 
L 216.949202 95.529835 
L 218.22753 106.860981 
L 220.81462 128.460983 
L 222.640802 141.798688 
L 222.945166 143.805245 
L 225.349639 157.14295 
L 226.445348 161.923278 
L 228.18022 168.238032 
L 228.393275 168.857704 
L 229.27593 171.897048 
L 229.397675 172.162622 
L 229.641166 172.841311 
L 229.884657 173.549507 
L 231.710839 179.185573 
L 233.658766 187.182294 
L 235.028402 194.352788 
L 237.158948 207.395406 
L 237.858984 211.408523 
L 238.89382 218.077373 
L 240.56782 228.700324 
L 241.846148 235.51672 
L 242.272257 237.611806 
L 242.728802 239.618361 
L 242.850548 240.090492 
L 245.01153 248.057698 
L 245.072402 248.14623 
L 245.437639 248.618361 
L 245.711566 248.7659 
L 245.863748 248.7659 
L 246.168111 248.854422 
L 246.289857 248.824916 
L 246.472475 248.736394 
L 246.868148 248.205246 
L 247.781239 246.198691 
L 248.237784 244.575734 
L 248.907384 241.86098 
L 249.120439 240.916717 
L 250.885748 230.028197 
L 252.833675 214.064263 
L 255.542511 186.739671 
L 258.038293 161.274098 
L 261.234111 134.362622 
L 262.360257 127.428196 
L 264.064693 119.697048 
L 265.00822 116.480653 
L 266.043057 113.765901 
L 266.256111 113.411803 
L 266.68222 112.497048 
L 266.743093 112.438032 
L 266.986584 112.02492 
L 267.047457 111.965901 
L 267.35182 111.611803 
L 267.504002 111.523276 
L 268.02142 111.139671 
L 268.051857 111.16918 
L 268.082293 111.080655 
L 268.295348 110.992133 
L 268.44753 110.992133 
L 268.660584 110.933114 
L 269.512802 111.021636 
L 269.725857 111.080655 
L 269.847602 111.110163 
L 270.060657 111.198688 
L 270.882439 112.14295 
L 272.099893 114.739671 
L 273.956511 119.815081 
L 274.260875 120.641311 
L 276.087057 125.687212 
L 276.117493 125.687212 
L 276.543602 126.897048 
L 276.908839 127.841311 
L 277.304511 128.962622 
L 277.39582 129.169179 
L 278.765457 132.857705 
L 278.887202 133.123279 
L 279.40462 134.303607 
L 282.356948 139.821638 
L 282.387384 139.821638 
L 282.600439 140.264261 
L 282.935239 140.736392 
L 283.300475 141.208524 
L 283.604839 141.621638 
L 283.817893 141.946228 
L 285.796257 143.775737 
L 285.887566 143.746229 
L 285.918002 143.775737 
L 286.19193 143.893769 
L 287.561566 143.834753 
L 287.683311 143.71672 
L 287.713748 143.746229 
L 287.926802 143.657704 
L 288.505093 143.244589 
L 288.596402 143.156065 
L 290.11822 141.533114 
L 290.300839 141.297048 
L 290.696511 140.765901 
L 291.761784 138.936393 
L 292.035711 138.523278 
L 293.13142 136.162621 
L 296.327239 126.54295 
L 297.453384 122.61836 
L 298.001239 120.729835 
L 298.366475 119.490491 
L 300.375275 113.94295 
L 300.49702 113.677376 
L 300.892693 112.851144 
L 301.288366 112.319997 
L 301.379675 112.231475 
L 301.805784 111.611803 
L 301.866657 111.582294 
L 302.049275 111.346229 
L 302.140584 111.316718 
L 302.323202 111.28721 
L 302.536257 111.346229 
L 302.84062 111.405245 
L 303.023239 111.523276 
L 303.753711 112.379016 
L 304.727675 114.503606 
L 306.645166 122.382294 
L 307.345202 126.306884 
L 308.836584 137.136393 
L 312.580257 174.493769 
L 317.115275 221.706881 
L 318.484911 232.713441 
L 319.458875 238.58557 
L 319.641493 239.44131 
L 320.189348 242.008528 
L 321.132875 245.224916 
L 321.498111 246.169179 
L 321.832911 246.877378 
L 321.92422 246.9659 
L 322.198148 247.260977 
L 322.289457 247.349509 
L 322.654693 247.556064 
L 323.111239 247.467544 
L 323.506911 246.995403 
L 323.719966 246.552787 
L 323.872148 246.257701 
L 325.485275 241.24131 
L 327.920184 228.936389 
L 330.446402 211.083933 
L 338.725093 139.821638 
L 340.794766 124.624917 
L 343.899275 104.234756 
L 344.11233 102.995407 
L 346.02982 92.460983 
L 348.37342 83.785571 
L 348.586475 83.136393 
L 349.46913 80.893772 
L 350.595275 78.887217 
L 350.625711 78.916721 
L 350.656148 78.857704 
L 350.899639 78.562625 
L 350.930075 78.592128 
L 350.990948 78.503608 
L 352.025784 77.647868 
L 352.269275 77.559346 
L 352.451893 77.441313 
L 352.695384 77.352791 
L 352.908439 77.293772 
L 353.06062 77.323278 
L 353.212802 77.293772 
L 353.334548 77.323278 
L 353.456293 77.352791 
L 353.82153 77.411798 
L 354.004148 77.529833 
L 354.217202 77.618365 
L 354.430257 77.82492 
L 354.521566 77.883929 
L 354.82593 78.238035 
L 355.282475 78.828199 
L 356.682548 81.749512 
L 357.139093 83.077377 
L 357.230402 83.313442 
L 358.143493 86.411803 
L 358.569602 87.975737 
L 359.939239 93.700327 
L 360.51753 96.444592 
L 361.034948 98.89377 
L 362.922002 108.572458 
L 368.035311 138.9659 
L 368.644039 142.831475 
L 370.074548 151.801966 
L 372.326839 165.523277 
L 372.874693 168.946229 
L 374.335639 178.093768 
L 375.553093 185.677376 
L 375.735711 186.769179 
L 377.774948 199.870816 
L 378.718475 206.008523 
L 380.088111 214.595411 
L 380.666402 217.929835 
L 382.157784 225.956064 
L 382.766511 228.759343 
L 382.918693 229.408521 
L 382.918693 229.408521 
" style="fill:none;stroke:#0000ff;stroke-linecap:square;stroke-width:1.5;"/>
   </g>
   <g id="line2d_28">
    <path clip-path="url(#pcf537f0f5b)" d="M 78.555057 154.700851 
L 78.737675 154.745114 
L 78.920293 154.715606 
L 79.224657 154.745114 
L 79.468148 154.73036 
L 79.742075 154.759868 
L 80.016002 154.73036 
L 80.168184 154.759868 
L 80.442111 154.73036 
L 80.716039 154.745114 
L 80.95953 154.73036 
L 81.172584 154.745114 
L 81.324766 154.73036 
L 90.24262 154.641835 
L 90.394802 154.641835 
L 90.638293 154.627081 
L 90.881784 154.627081 
L 100.986657 154.715606 
L 101.199711 154.774622 
L 101.534511 154.877901 
L 102.72153 155.556589 
L 102.934584 155.748392 
L 103.72593 156.648392 
L 104.365093 157.651671 
L 104.882511 158.581179 
L 106.800002 163.509048 
L 108.352257 168.333639 
L 108.808802 169.868064 
L 109.143602 170.959867 
L 111.943748 178.779539 
L 112.248111 179.413965 
L 112.826402 180.550032 
L 113.556875 181.420523 
L 113.861239 181.686097 
L 114.287348 181.951671 
L 114.591711 182.010687 
L 114.77433 181.966425 
L 115.01782 181.8779 
L 115.230875 181.745114 
L 115.809166 181.346753 
L 116.11353 180.918884 
L 117.178802 178.617246 
L 118.152766 175.445114 
L 119.096293 171.859867 
L 121.37902 160.277901 
L 124.14873 142.115605 
L 125.031384 136.081179 
L 128.866366 114.422163 
L 129.901202 109.936917 
L 130.601239 107.561508 
L 131.331711 105.466426 
L 133.005711 100.907409 
L 133.310075 100.287735 
L 134.010111 98.841835 
L 134.557966 98.163149 
L 136.049348 96.186098 
L 136.353711 95.920524 
L 136.962439 95.227079 
L 138.362511 95.315606 
L 138.666875 95.758227 
L 139.245166 97.115606 
L 140.188693 99.682819 
L 141.710511 105.215604 
L 142.684475 109.936917 
L 143.354075 114.082819 
L 146.732511 139.415606 
L 148.984802 161.148392 
L 150.202257 173.482818 
L 153.367639 204.584455 
L 155.376439 220.25331 
L 157.080875 229.533638 
L 157.689602 231.98282 
L 158.267893 233.797567 
L 158.937493 235.154952 
L 160.033202 236.571343 
L 160.398439 236.630359 
L 160.946293 236.52708 
L 161.189784 236.305769 
L 161.88982 235.095933 
L 162.55942 233.561507 
L 162.98553 231.98282 
L 163.837748 228.235277 
L 164.689966 223.100853 
L 165.724802 215.915607 
L 167.520548 200.202493 
L 170.92942 168.230359 
L 172.816475 151.853311 
L 175.312257 133.336917 
L 176.681893 126.018884 
L 177.229748 123.909048 
L 178.112402 121.253311 
L 179.05593 120.058229 
L 179.238548 119.851671 
L 179.755966 119.497571 
L 180.669057 119.172985 
L 181.003857 119.231997 
L 181.30822 119.586098 
L 181.886511 120.60413 
L 182.708293 122.861507 
L 184.07793 127.892655 
L 184.74753 130.931999 
L 191.565275 163.435278 
L 193.665384 172.110687 
L 195.36982 177.525441 
L 195.735057 178.676261 
L 196.161166 179.915606 
L 196.922075 181.494294 
L 197.409057 182.394294 
L 197.71342 182.763146 
L 198.13953 183.043474 
L 198.261275 183.087736 
L 198.71782 183.191015 
L 199.174366 182.866425 
L 200.14833 180.756589 
L 200.939675 178.115604 
L 202.40062 172.022163 
L 203.526766 166.017245 
L 206.17473 148.784458 
L 207.17913 142.307408 
L 209.218366 128.291016 
L 212.10982 110.763147 
L 212.87073 107.281177 
L 214.54473 101.232002 
L 215.670875 98.782819 
L 216.005675 98.354948 
L 216.370911 98.148393 
L 216.857893 98.030362 
L 217.070948 98.015606 
L 217.618802 98.118885 
L 218.288402 98.546754 
L 218.744948 99.018885 
L 219.049311 99.446754 
L 220.114584 101.276262 
L 220.23633 101.453309 
L 220.662439 102.264786 
L 222.519057 107.045112 
L 224.101748 111.987737 
L 228.088911 127.892655 
L 232.136948 146.040196 
L 233.29353 152.782819 
L 234.602293 161.709048 
L 237.037202 179.75331 
L 239.715602 197.192652 
L 240.841748 203.094296 
L 241.724402 207.210687 
L 243.489711 213.62872 
L 245.955057 220.459867 
L 246.898584 222.05331 
L 248.481275 223.440195 
L 248.876948 223.528717 
L 249.150875 223.513966 
L 249.972657 223.425439 
L 250.307457 223.248392 
L 251.03793 223.012326 
L 251.190111 222.968066 
L 251.494475 222.864783 
L 252.04233 222.481179 
L 252.407566 222.186097 
L 253.533711 220.946753 
L 253.807639 220.651671 
L 253.929384 220.563144 
L 255.238148 219.42708 
L 255.39033 219.323802 
L 255.816439 219.013966 
L 256.212111 218.630359 
L 256.333857 218.52708 
L 257.703493 217.981179 
L 258.768766 217.877902 
L 259.286184 217.730359 
L 259.438366 217.715605 
L 259.65142 217.656589 
L 261.568911 216.60905 
L 262.938548 214.425441 
L 263.486402 213.12708 
L 264.399493 210.633638 
L 265.129966 208.184455 
L 265.921311 204.687734 
L 266.530039 201.220521 
L 268.143166 190.346753 
L 269.086693 182.718884 
L 271.247675 161.797572 
L 272.769493 144.402491 
L 274.991348 116.133636 
L 277.304511 86.241833 
L 278.917639 67.268068 
L 280.50033 51.554948 
L 281.382984 44.413967 
L 282.204766 39.235281 
L 282.935239 35.620524 
L 283.543966 33.687735 
L 283.970075 32.758229 
L 284.51793 32.123803 
L 285.035348 32.227082 
L 285.278839 32.448396 
L 285.918002 33.554951 
L 286.404984 34.986098 
L 287.287639 38.836916 
L 288.231166 44.959871 
L 289.44862 55.228721 
L 290.818257 68.846754 
L 293.22273 96.864789 
L 295.414148 123.082819 
L 300.192657 177.392655 
L 301.92753 193.931999 
L 303.17542 204.42216 
L 303.966766 209.74839 
L 304.910293 214.60249 
L 305.94513 219.072984 
L 307.52782 224.768066 
L 308.501784 227.276261 
L 309.080075 228.309048 
L 310.327966 230.492656 
L 311.54542 231.540195 
L 312.062839 231.436916 
L 312.30633 231.333638 
L 312.54982 231.230359 
L 313.128111 230.52216 
L 313.858584 228.869703 
L 314.89342 225.520523 
L 317.632693 213.12708 
L 318.971893 205.395935 
L 319.611057 201.412326 
L 326.459239 158.950032 
L 328.346293 149.448393 
L 330.689893 140.802491 
L 332.05953 137.748392 
L 333.094366 136.420523 
L 333.39873 136.154951 
L 333.824839 135.874623 
L 334.920548 135.963147 
L 335.31622 136.199212 
L 335.65102 136.47954 
L 336.07713 136.907409 
L 336.351057 137.143475 
L 336.65542 137.394294 
L 337.051093 137.704131 
L 337.446766 138.087738 
L 341.738293 142.115605 
L 341.890475 142.218885 
L 342.620948 142.45495 
L 342.864439 142.45495 
L 343.594911 142.351672 
L 343.868839 142.322163 
L 344.081893 142.307408 
L 345.908075 142.20413 
L 346.425493 142.071343 
L 346.69942 141.968065 
L 347.36902 141.525441 
L 347.734257 141.171344 
L 347.977748 140.935277 
L 348.282111 140.65495 
L 348.434293 140.551671 
L 349.46913 139.695934 
L 349.651748 139.592655 
L 350.443093 139.10577 
L 350.656148 138.972983 
L 350.899639 138.869704 
L 351.325748 138.766426 
L 351.569239 138.766426 
L 352.421457 138.869704 
L 352.695384 138.987736 
L 354.095457 139.784458 
L 355.860766 142.52872 
L 356.40862 143.605769 
L 356.49993 143.768065 
L 356.712984 144.122163 
L 358.630475 148.076261 
L 359.269639 149.595933 
L 359.84793 150.717245 
L 360.395784 151.705769 
L 360.791457 152.399212 
L 360.974075 152.694294 
L 361.400184 153.446753 
L 365.691711 161.531999 
L 366.696111 162.815605 
L 368.157057 163.405769 
L 369.374511 163.317245 
L 370.044111 162.520524 
L 370.774584 161.266425 
L 371.200693 160.366425 
L 371.778984 159.245114 
L 374.609566 153.520524 
L 375.005239 152.709048 
L 375.461784 151.868064 
L 376.16182 150.451671 
L 376.953166 148.695933 
L 377.83582 146.45331 
L 378.414111 145.095933 
L 379.053275 143.576262 
L 379.84462 141.80577 
L 381.549057 137.954951 
L 381.883857 137.276262 
L 382.918693 135.240197 
L 382.918693 135.240197 
" style="fill:none;stroke:#ff0000;stroke-linecap:square;stroke-width:1.5;"/>
   </g>
   <g id="line2d_29">
    <path clip-path="url(#pcf537f0f5b)" d="M 129.322911 163.221638 
" style="fill:none;stroke:#ffffff;stroke-linecap:square;stroke-width:1.5;"/>
    <defs>
     <path d="M 0 -5 
L -1.12257 -1.545085 
L -4.755283 -1.545085 
L -1.816356 0.59017 
L -2.938926 4.045085 
L -0 1.90983 
L 2.938926 4.045085 
L 1.816356 0.59017 
L 4.755283 -1.545085 
L 1.12257 -1.545085 
z
" id="m97ad4e5506" style="stroke:#ffffff;stroke-linejoin:bevel;"/>
    </defs>
    <g clip-path="url(#pcf537f0f5b)">
     <use style="fill:#0000ff;stroke:#ffffff;stroke-linejoin:bevel;" x="129.322911" xlink:href="#m97ad4e5506" y="163.221638"/>
    </g>
   </g>
   <g id="line2d_30">
    <path clip-path="url(#pcf537f0f5b)" d="M 105.856475 160.868065 
" style="fill:none;stroke:#ffffff;stroke-linecap:square;stroke-width:1.5;"/>
    <defs>
     <path d="M 0 -5 
L -1.12257 -1.545085 
L -4.755283 -1.545085 
L -1.816356 0.59017 
L -2.938926 4.045085 
L -0 1.90983 
L 2.938926 4.045085 
L 1.816356 0.59017 
L 4.755283 -1.545085 
L 1.12257 -1.545085 
z
" id="mcbef945399" style="stroke:#ffffff;stroke-linejoin:bevel;"/>
    </defs>
    <g clip-path="url(#pcf537f0f5b)">
     <use style="fill:#ff0000;stroke:#ffffff;stroke-linejoin:bevel;" x="105.856475" xlink:href="#mcbef945399" y="160.868065"/>
    </g>
   </g>
   <g id="patch_3">
    <path d="M 63.336875 339.84 
L 63.336875 7.2 
" style="fill:none;stroke:#000000;stroke-linecap:square;stroke-linejoin:miter;stroke-width:0.8;"/>
   </g>
   <g id="patch_4">
    <path d="M 398.136875 339.84 
L 398.136875 7.2 
" style="fill:none;stroke:#000000;stroke-linecap:square;stroke-linejoin:miter;stroke-width:0.8;"/>
   </g>
   <g id="patch_5">
    <path d="M 63.336875 339.84 
L 398.136875 339.84 
" style="fill:none;stroke:#000000;stroke-linecap:square;stroke-linejoin:miter;stroke-width:0.8;"/>
   </g>
   <g id="patch_6">
    <path d="M 63.336875 7.2 
L 398.136875 7.2 
" style="fill:none;stroke:#000000;stroke-linecap:square;stroke-linejoin:miter;stroke-width:0.8;"/>
   </g>
   <g id="text_16">
    <g id="patch_7">
     <path d="M 75.036875 331.242688 
L 166.79375 331.242688 
L 166.79375 293.760312 
L 75.036875 293.760312 
z
" style="fill:#ffffff;stroke:#000000;stroke-linejoin:miter;stroke-width:0.75;"/>
    </g>
    <!-- Auto_00038 -->
    <g transform="translate(80.076875 308.521562)scale(0.14 -0.14)">
     <defs>
      <path d="M 2928 1419 
L 1288 1419 
L 1000 750 
Q 894 503 894 381 
Q 894 284 986 211 
Q 1078 138 1384 116 
L 1384 0 
L 50 0 
L 50 116 
Q 316 163 394 238 
Q 553 388 747 847 
L 2238 4334 
L 2347 4334 
L 3822 809 
Q 4000 384 4145 257 
Q 4291 131 4550 116 
L 4550 0 
L 2878 0 
L 2878 116 
Q 3131 128 3220 200 
Q 3309 272 3309 375 
Q 3309 513 3184 809 
L 2928 1419 
z
M 2841 1650 
L 2122 3363 
L 1384 1650 
L 2841 1650 
z
" id="TimesNewRomanPSMT-41" transform="scale(0.015625)"/>
      <path d="M 2709 2863 
L 2709 1128 
Q 2709 631 2732 520 
Q 2756 409 2807 365 
Q 2859 322 2928 322 
Q 3025 322 3147 375 
L 3191 266 
L 2334 -88 
L 2194 -88 
L 2194 519 
Q 1825 119 1631 15 
Q 1438 -88 1222 -88 
Q 981 -88 804 51 
Q 628 191 559 409 
Q 491 628 491 1028 
L 491 2306 
Q 491 2509 447 2587 
Q 403 2666 317 2708 
Q 231 2750 6 2747 
L 6 2863 
L 1009 2863 
L 1009 947 
Q 1009 547 1148 422 
Q 1288 297 1484 297 
Q 1619 297 1789 381 
Q 1959 466 2194 703 
L 2194 2325 
Q 2194 2569 2105 2655 
Q 2016 2741 1734 2747 
L 1734 2863 
L 2709 2863 
z
" id="TimesNewRomanPSMT-75" transform="scale(0.015625)"/>
      <path d="M 3256 -1381 
L -53 -1381 
L -53 -1119 
L 3256 -1119 
L 3256 -1381 
z
" id="TimesNewRomanPSMT-5f" transform="scale(0.015625)"/>
      <path d="M 1228 2134 
Q 725 2547 579 2797 
Q 434 3047 434 3316 
Q 434 3728 753 4026 
Q 1072 4325 1600 4325 
Q 2113 4325 2425 4047 
Q 2738 3769 2738 3413 
Q 2738 3175 2569 2928 
Q 2400 2681 1866 2347 
Q 2416 1922 2594 1678 
Q 2831 1359 2831 1006 
Q 2831 559 2490 242 
Q 2150 -75 1597 -75 
Q 994 -75 656 303 
Q 388 606 388 966 
Q 388 1247 577 1523 
Q 766 1800 1228 2134 
z
M 1719 2469 
Q 2094 2806 2194 3001 
Q 2294 3197 2294 3444 
Q 2294 3772 2109 3958 
Q 1925 4144 1606 4144 
Q 1288 4144 1088 3959 
Q 888 3775 888 3528 
Q 888 3366 970 3203 
Q 1053 3041 1206 2894 
L 1719 2469 
z
M 1375 2016 
Q 1116 1797 991 1539 
Q 866 1281 866 981 
Q 866 578 1086 336 
Q 1306 94 1647 94 
Q 1984 94 2187 284 
Q 2391 475 2391 747 
Q 2391 972 2272 1150 
Q 2050 1481 1375 2016 
z
" id="TimesNewRomanPSMT-38" transform="scale(0.015625)"/>
     </defs>
     <use xlink:href="#TimesNewRomanPSMT-41"/>
     <use x="72.216797" xlink:href="#TimesNewRomanPSMT-75"/>
     <use x="122.216797" xlink:href="#TimesNewRomanPSMT-74"/>
     <use x="150" xlink:href="#TimesNewRomanPSMT-6f"/>
     <use x="200" xlink:href="#TimesNewRomanPSMT-5f"/>
     <use x="250" xlink:href="#TimesNewRomanPSMT-30"/>
     <use x="300" xlink:href="#TimesNewRomanPSMT-30"/>
     <use x="350" xlink:href="#TimesNewRomanPSMT-30"/>
     <use x="400" xlink:href="#TimesNewRomanPSMT-33"/>
     <use x="450" xlink:href="#TimesNewRomanPSMT-38"/>
    </g>
    <!-- Vs: 259.27m/s -->
    <g transform="translate(80.076875 323.208)scale(0.14 -0.14)">
     <defs>
      <path d="M 903 2950 
Q 1047 2950 1148 2848 
Q 1250 2747 1250 2603 
Q 1250 2459 1148 2357 
Q 1047 2256 903 2256 
Q 759 2256 657 2357 
Q 556 2459 556 2603 
Q 556 2747 657 2848 
Q 759 2950 903 2950 
z
M 897 609 
Q 1044 609 1145 506 
Q 1247 403 1247 259 
Q 1247 116 1144 14 
Q 1041 -88 897 -88 
Q 753 -88 651 14 
Q 550 116 550 259 
Q 550 403 651 506 
Q 753 609 897 609 
z
" id="TimesNewRomanPSMT-3a" transform="scale(0.015625)"/>
      <path d="M 338 -88 
L 338 28 
Q 744 34 1094 217 
Q 1444 400 1770 856 
Q 2097 1313 2225 1859 
Q 1734 1544 1338 1544 
Q 891 1544 572 1889 
Q 253 2234 253 2806 
Q 253 3363 572 3797 
Q 956 4325 1575 4325 
Q 2097 4325 2469 3894 
Q 2925 3359 2925 2575 
Q 2925 1869 2578 1258 
Q 2231 647 1613 244 
Q 1109 -88 516 -88 
L 338 -88 
z
M 2275 2091 
Q 2331 2497 2331 2741 
Q 2331 3044 2228 3395 
Q 2125 3747 1936 3934 
Q 1747 4122 1506 4122 
Q 1228 4122 1018 3872 
Q 809 3622 809 3128 
Q 809 2469 1088 2097 
Q 1291 1828 1588 1828 
Q 1731 1828 1928 1897 
Q 2125 1966 2275 2091 
z
" id="TimesNewRomanPSMT-39" transform="scale(0.015625)"/>
      <path d="M 644 4238 
L 2916 4238 
L 2916 4119 
L 1503 -88 
L 1153 -88 
L 2419 3728 
L 1253 3728 
Q 900 3728 750 3644 
Q 488 3500 328 3200 
L 238 3234 
L 644 4238 
z
" id="TimesNewRomanPSMT-37" transform="scale(0.015625)"/>
      <path d="M 1794 4444 
L 259 -88 
L 9 -88 
L 1544 4444 
L 1794 4444 
z
" id="TimesNewRomanPSMT-2f" transform="scale(0.015625)"/>
     </defs>
     <use xlink:href="#TimesNewRomanPSMT-56"/>
     <use x="72.216797" xlink:href="#TimesNewRomanPSMT-73"/>
     <use x="111.132812" xlink:href="#TimesNewRomanPSMT-3a"/>
     <use x="138.916016" xlink:href="#TimesNewRomanPSMT-20"/>
     <use x="163.916016" xlink:href="#TimesNewRomanPSMT-32"/>
     <use x="213.916016" xlink:href="#TimesNewRomanPSMT-35"/>
     <use x="263.916016" xlink:href="#TimesNewRomanPSMT-39"/>
     <use x="313.916016" xlink:href="#TimesNewRomanPSMT-2e"/>
     <use x="338.916016" xlink:href="#TimesNewRomanPSMT-32"/>
     <use x="388.916016" xlink:href="#TimesNewRomanPSMT-37"/>
     <use x="438.916016" xlink:href="#TimesNewRomanPSMT-6d"/>
     <use x="516.699219" xlink:href="#TimesNewRomanPSMT-2f"/>
     <use x="544.482422" xlink:href="#TimesNewRomanPSMT-73"/>
    </g>
   </g>
  </g>
 </g>
 <defs>
  <clipPath id="pcf537f0f5b">
   <rect height="332.64" width="334.8" x="63.336875" y="7.2"/>
  </clipPath>
 </defs>
</svg>
