<?xml version="1.0" encoding="utf-8" standalone="no"?>
<!DOCTYPE svg PUBLIC "-//W3C//DTD SVG 1.1//EN"
  "http://www.w3.org/Graphics/SVG/1.1/DTD/svg11.dtd">
<svg height="383.471875pt" version="1.1" viewBox="0 0 421.086875 383.471875" width="421.086875pt" xmlns="http://www.w3.org/2000/svg" xmlns:xlink="http://www.w3.org/1999/xlink">
 <metadata>
  <rdf:RDF xmlns:cc="http://creativecommons.org/ns#" xmlns:dc="http://purl.org/dc/elements/1.1/" xmlns:rdf="http://www.w3.org/1999/02/22-rdf-syntax-ns#">
   <cc:Work>
    <dc:type rdf:resource="http://purl.org/dc/dcmitype/StillImage"/>
    <dc:date>2021-06-11T14:39:38.464475</dc:date>
    <dc:format>image/svg+xml</dc:format>
    <dc:creator>
     <cc:Agent>
      <dc:title>Matplotlib v3.4.2, https://matplotlib.org/</dc:title>
     </cc:Agent>
    </dc:creator>
   </cc:Work>
  </rdf:RDF>
 </metadata>
 <defs>
  <style type="text/css">*{stroke-linecap:butt;stroke-linejoin:round;}</style>
 </defs>
 <g id="figure_1">
  <g id="patch_1">
   <path d="M 0 383.471875 
L 421.086875 383.471875 
L 421.086875 0 
L 0 0 
z
" style="fill:#ffffff;"/>
  </g>
  <g id="axes_1">
   <g id="patch_2">
    <path d="M 63.336875 339.84 
L 398.136875 339.84 
L 398.136875 7.2 
L 63.336875 7.2 
z
" style="fill:#ffffff;"/>
   </g>
   <g id="matplotlib.axis_1">
    <g id="xtick_1">
     <g id="line2d_1">
      <path clip-path="url(#p30e1311fe7)" d="M 93.773239 339.84 
L 93.773239 7.2 
" style="fill:none;stroke:#000000;stroke-dasharray:0.5,0.825;stroke-dashoffset:0;stroke-width:0.5;"/>
     </g>
     <g id="line2d_2">
      <defs>
       <path d="M 0 0 
L 0 3.5 
" id="m0f01a94b88" style="stroke:#000000;stroke-width:0.8;"/>
      </defs>
      <g>
       <use style="stroke:#000000;stroke-width:0.8;" x="93.773239" xlink:href="#m0f01a94b88" y="339.84"/>
      </g>
     </g>
     <g id="text_1">
      <!-- 0.000 -->
      <g transform="translate(78.023239 356.56125)scale(0.14 -0.14)">
       <defs>
        <path d="M 231 2094 
Q 231 2819 450 3342 
Q 669 3866 1031 4122 
Q 1313 4325 1613 4325 
Q 2100 4325 2488 3828 
Q 2972 3213 2972 2159 
Q 2972 1422 2759 906 
Q 2547 391 2217 158 
Q 1888 -75 1581 -75 
Q 975 -75 572 641 
Q 231 1244 231 2094 
z
M 844 2016 
Q 844 1141 1059 588 
Q 1238 122 1591 122 
Q 1759 122 1940 273 
Q 2122 425 2216 781 
Q 2359 1319 2359 2297 
Q 2359 3022 2209 3506 
Q 2097 3866 1919 4016 
Q 1791 4119 1609 4119 
Q 1397 4119 1231 3928 
Q 1006 3669 925 3112 
Q 844 2556 844 2016 
z
" id="TimesNewRomanPSMT-30" transform="scale(0.015625)"/>
        <path d="M 800 606 
Q 947 606 1047 504 
Q 1147 403 1147 259 
Q 1147 116 1045 14 
Q 944 -88 800 -88 
Q 656 -88 554 14 
Q 453 116 453 259 
Q 453 406 554 506 
Q 656 606 800 606 
z
" id="TimesNewRomanPSMT-2e" transform="scale(0.015625)"/>
       </defs>
       <use xlink:href="#TimesNewRomanPSMT-30"/>
       <use x="50" xlink:href="#TimesNewRomanPSMT-2e"/>
       <use x="75" xlink:href="#TimesNewRomanPSMT-30"/>
       <use x="125" xlink:href="#TimesNewRomanPSMT-30"/>
       <use x="175" xlink:href="#TimesNewRomanPSMT-30"/>
      </g>
     </g>
    </g>
    <g id="xtick_2">
     <g id="line2d_3">
      <path clip-path="url(#p30e1311fe7)" d="M 154.645966 339.84 
L 154.645966 7.2 
" style="fill:none;stroke:#000000;stroke-dasharray:0.5,0.825;stroke-dashoffset:0;stroke-width:0.5;"/>
     </g>
     <g id="line2d_4">
      <g>
       <use style="stroke:#000000;stroke-width:0.8;" x="154.645966" xlink:href="#m0f01a94b88" y="339.84"/>
      </g>
     </g>
     <g id="text_2">
      <!-- 0.001 -->
      <g transform="translate(138.895966 356.56125)scale(0.14 -0.14)">
       <defs>
        <path d="M 750 3822 
L 1781 4325 
L 1884 4325 
L 1884 747 
Q 1884 391 1914 303 
Q 1944 216 2037 169 
Q 2131 122 2419 116 
L 2419 0 
L 825 0 
L 825 116 
Q 1125 122 1212 167 
Q 1300 213 1334 289 
Q 1369 366 1369 747 
L 1369 3034 
Q 1369 3497 1338 3628 
Q 1316 3728 1258 3775 
Q 1200 3822 1119 3822 
Q 1003 3822 797 3725 
L 750 3822 
z
" id="TimesNewRomanPSMT-31" transform="scale(0.015625)"/>
       </defs>
       <use xlink:href="#TimesNewRomanPSMT-30"/>
       <use x="50" xlink:href="#TimesNewRomanPSMT-2e"/>
       <use x="75" xlink:href="#TimesNewRomanPSMT-30"/>
       <use x="125" xlink:href="#TimesNewRomanPSMT-30"/>
       <use x="175" xlink:href="#TimesNewRomanPSMT-31"/>
      </g>
     </g>
    </g>
    <g id="xtick_3">
     <g id="line2d_5">
      <path clip-path="url(#p30e1311fe7)" d="M 215.518693 339.84 
L 215.518693 7.2 
" style="fill:none;stroke:#000000;stroke-dasharray:0.5,0.825;stroke-dashoffset:0;stroke-width:0.5;"/>
     </g>
     <g id="line2d_6">
      <g>
       <use style="stroke:#000000;stroke-width:0.8;" x="215.518693" xlink:href="#m0f01a94b88" y="339.84"/>
      </g>
     </g>
     <g id="text_3">
      <!-- 0.002 -->
      <g transform="translate(199.768693 356.56125)scale(0.14 -0.14)">
       <defs>
        <path d="M 2934 816 
L 2638 0 
L 138 0 
L 138 116 
Q 1241 1122 1691 1759 
Q 2141 2397 2141 2925 
Q 2141 3328 1894 3587 
Q 1647 3847 1303 3847 
Q 991 3847 742 3664 
Q 494 3481 375 3128 
L 259 3128 
Q 338 3706 661 4015 
Q 984 4325 1469 4325 
Q 1984 4325 2329 3994 
Q 2675 3663 2675 3213 
Q 2675 2891 2525 2569 
Q 2294 2063 1775 1497 
Q 997 647 803 472 
L 1909 472 
Q 2247 472 2383 497 
Q 2519 522 2628 598 
Q 2738 675 2819 816 
L 2934 816 
z
" id="TimesNewRomanPSMT-32" transform="scale(0.015625)"/>
       </defs>
       <use xlink:href="#TimesNewRomanPSMT-30"/>
       <use x="50" xlink:href="#TimesNewRomanPSMT-2e"/>
       <use x="75" xlink:href="#TimesNewRomanPSMT-30"/>
       <use x="125" xlink:href="#TimesNewRomanPSMT-30"/>
       <use x="175" xlink:href="#TimesNewRomanPSMT-32"/>
      </g>
     </g>
    </g>
    <g id="xtick_4">
     <g id="line2d_7">
      <path clip-path="url(#p30e1311fe7)" d="M 276.39142 339.84 
L 276.39142 7.2 
" style="fill:none;stroke:#000000;stroke-dasharray:0.5,0.825;stroke-dashoffset:0;stroke-width:0.5;"/>
     </g>
     <g id="line2d_8">
      <g>
       <use style="stroke:#000000;stroke-width:0.8;" x="276.39142" xlink:href="#m0f01a94b88" y="339.84"/>
      </g>
     </g>
     <g id="text_4">
      <!-- 0.003 -->
      <g transform="translate(260.64142 356.56125)scale(0.14 -0.14)">
       <defs>
        <path d="M 325 3431 
Q 506 3859 782 4092 
Q 1059 4325 1472 4325 
Q 1981 4325 2253 3994 
Q 2459 3747 2459 3466 
Q 2459 3003 1878 2509 
Q 2269 2356 2469 2072 
Q 2669 1788 2669 1403 
Q 2669 853 2319 450 
Q 1863 -75 997 -75 
Q 569 -75 414 31 
Q 259 138 259 259 
Q 259 350 332 419 
Q 406 488 509 488 
Q 588 488 669 463 
Q 722 447 909 348 
Q 1097 250 1169 231 
Q 1284 197 1416 197 
Q 1734 197 1970 444 
Q 2206 691 2206 1028 
Q 2206 1275 2097 1509 
Q 2016 1684 1919 1775 
Q 1784 1900 1550 2001 
Q 1316 2103 1072 2103 
L 972 2103 
L 972 2197 
Q 1219 2228 1467 2375 
Q 1716 2522 1828 2728 
Q 1941 2934 1941 3181 
Q 1941 3503 1739 3701 
Q 1538 3900 1238 3900 
Q 753 3900 428 3381 
L 325 3431 
z
" id="TimesNewRomanPSMT-33" transform="scale(0.015625)"/>
       </defs>
       <use xlink:href="#TimesNewRomanPSMT-30"/>
       <use x="50" xlink:href="#TimesNewRomanPSMT-2e"/>
       <use x="75" xlink:href="#TimesNewRomanPSMT-30"/>
       <use x="125" xlink:href="#TimesNewRomanPSMT-30"/>
       <use x="175" xlink:href="#TimesNewRomanPSMT-33"/>
      </g>
     </g>
    </g>
    <g id="xtick_5">
     <g id="line2d_9">
      <path clip-path="url(#p30e1311fe7)" d="M 337.264148 339.84 
L 337.264148 7.2 
" style="fill:none;stroke:#000000;stroke-dasharray:0.5,0.825;stroke-dashoffset:0;stroke-width:0.5;"/>
     </g>
     <g id="line2d_10">
      <g>
       <use style="stroke:#000000;stroke-width:0.8;" x="337.264148" xlink:href="#m0f01a94b88" y="339.84"/>
      </g>
     </g>
     <g id="text_5">
      <!-- 0.004 -->
      <g transform="translate(321.514148 356.56125)scale(0.14 -0.14)">
       <defs>
        <path d="M 2978 1563 
L 2978 1119 
L 2409 1119 
L 2409 0 
L 1894 0 
L 1894 1119 
L 100 1119 
L 100 1519 
L 2066 4325 
L 2409 4325 
L 2409 1563 
L 2978 1563 
z
M 1894 1563 
L 1894 3666 
L 406 1563 
L 1894 1563 
z
" id="TimesNewRomanPSMT-34" transform="scale(0.015625)"/>
       </defs>
       <use xlink:href="#TimesNewRomanPSMT-30"/>
       <use x="50" xlink:href="#TimesNewRomanPSMT-2e"/>
       <use x="75" xlink:href="#TimesNewRomanPSMT-30"/>
       <use x="125" xlink:href="#TimesNewRomanPSMT-30"/>
       <use x="175" xlink:href="#TimesNewRomanPSMT-34"/>
      </g>
     </g>
    </g>
    <g id="xtick_6">
     <g id="line2d_11">
      <path clip-path="url(#p30e1311fe7)" d="M 398.136875 339.84 
L 398.136875 7.2 
" style="fill:none;stroke:#000000;stroke-dasharray:0.5,0.825;stroke-dashoffset:0;stroke-width:0.5;"/>
     </g>
     <g id="line2d_12">
      <g>
       <use style="stroke:#000000;stroke-width:0.8;" x="398.136875" xlink:href="#m0f01a94b88" y="339.84"/>
      </g>
     </g>
     <g id="text_6">
      <!-- 0.005 -->
      <g transform="translate(382.386875 356.56125)scale(0.14 -0.14)">
       <defs>
        <path d="M 2778 4238 
L 2534 3706 
L 1259 3706 
L 981 3138 
Q 1809 3016 2294 2522 
Q 2709 2097 2709 1522 
Q 2709 1188 2573 903 
Q 2438 619 2231 419 
Q 2025 219 1772 97 
Q 1413 -75 1034 -75 
Q 653 -75 479 54 
Q 306 184 306 341 
Q 306 428 378 495 
Q 450 563 559 563 
Q 641 563 702 538 
Q 763 513 909 409 
Q 1144 247 1384 247 
Q 1750 247 2026 523 
Q 2303 800 2303 1197 
Q 2303 1581 2056 1914 
Q 1809 2247 1375 2428 
Q 1034 2569 447 2591 
L 1259 4238 
L 2778 4238 
z
" id="TimesNewRomanPSMT-35" transform="scale(0.015625)"/>
       </defs>
       <use xlink:href="#TimesNewRomanPSMT-30"/>
       <use x="50" xlink:href="#TimesNewRomanPSMT-2e"/>
       <use x="75" xlink:href="#TimesNewRomanPSMT-30"/>
       <use x="125" xlink:href="#TimesNewRomanPSMT-30"/>
       <use x="175" xlink:href="#TimesNewRomanPSMT-35"/>
      </g>
     </g>
    </g>
    <g id="text_7">
     <!-- Time (sec) -->
     <g transform="translate(200.858906 373.277188)scale(0.14 -0.14)">
      <defs>
       <path d="M 3703 4238 
L 3750 3244 
L 3631 3244 
Q 3597 3506 3538 3619 
Q 3441 3800 3280 3886 
Q 3119 3972 2856 3972 
L 2259 3972 
L 2259 734 
Q 2259 344 2344 247 
Q 2463 116 2709 116 
L 2856 116 
L 2856 0 
L 1059 0 
L 1059 116 
L 1209 116 
Q 1478 116 1591 278 
Q 1659 378 1659 734 
L 1659 3972 
L 1150 3972 
Q 853 3972 728 3928 
Q 566 3869 450 3700 
Q 334 3531 313 3244 
L 194 3244 
L 244 4238 
L 3703 4238 
z
" id="TimesNewRomanPSMT-54" transform="scale(0.015625)"/>
       <path d="M 928 4444 
Q 1059 4444 1151 4351 
Q 1244 4259 1244 4128 
Q 1244 3997 1151 3903 
Q 1059 3809 928 3809 
Q 797 3809 703 3903 
Q 609 3997 609 4128 
Q 609 4259 701 4351 
Q 794 4444 928 4444 
z
M 1188 2947 
L 1188 647 
Q 1188 378 1227 289 
Q 1266 200 1342 156 
Q 1419 113 1622 113 
L 1622 0 
L 231 0 
L 231 113 
Q 441 113 512 153 
Q 584 194 626 287 
Q 669 381 669 647 
L 669 1750 
Q 669 2216 641 2353 
Q 619 2453 572 2492 
Q 525 2531 444 2531 
Q 356 2531 231 2484 
L 188 2597 
L 1050 2947 
L 1188 2947 
z
" id="TimesNewRomanPSMT-69" transform="scale(0.015625)"/>
       <path d="M 1050 2338 
Q 1363 2650 1419 2697 
Q 1559 2816 1721 2881 
Q 1884 2947 2044 2947 
Q 2313 2947 2506 2790 
Q 2700 2634 2766 2338 
Q 3088 2713 3309 2830 
Q 3531 2947 3766 2947 
Q 3994 2947 4170 2830 
Q 4347 2713 4450 2447 
Q 4519 2266 4519 1878 
L 4519 647 
Q 4519 378 4559 278 
Q 4591 209 4675 161 
Q 4759 113 4950 113 
L 4950 0 
L 3538 0 
L 3538 113 
L 3597 113 
Q 3781 113 3884 184 
Q 3956 234 3988 344 
Q 4000 397 4000 647 
L 4000 1878 
Q 4000 2228 3916 2372 
Q 3794 2572 3525 2572 
Q 3359 2572 3192 2489 
Q 3025 2406 2788 2181 
L 2781 2147 
L 2788 2013 
L 2788 647 
Q 2788 353 2820 281 
Q 2853 209 2943 161 
Q 3034 113 3253 113 
L 3253 0 
L 1806 0 
L 1806 113 
Q 2044 113 2133 169 
Q 2222 225 2256 338 
Q 2272 391 2272 647 
L 2272 1878 
Q 2272 2228 2169 2381 
Q 2031 2581 1784 2581 
Q 1616 2581 1450 2491 
Q 1191 2353 1050 2181 
L 1050 647 
Q 1050 366 1089 281 
Q 1128 197 1204 155 
Q 1281 113 1516 113 
L 1516 0 
L 100 0 
L 100 113 
Q 297 113 375 155 
Q 453 197 493 289 
Q 534 381 534 647 
L 534 1741 
Q 534 2213 506 2350 
Q 484 2453 437 2492 
Q 391 2531 309 2531 
Q 222 2531 100 2484 
L 53 2597 
L 916 2947 
L 1050 2947 
L 1050 2338 
z
" id="TimesNewRomanPSMT-6d" transform="scale(0.015625)"/>
       <path d="M 681 1784 
Q 678 1147 991 784 
Q 1303 422 1725 422 
Q 2006 422 2214 576 
Q 2422 731 2563 1106 
L 2659 1044 
Q 2594 616 2278 264 
Q 1963 -88 1488 -88 
Q 972 -88 605 314 
Q 238 716 238 1394 
Q 238 2128 614 2539 
Q 991 2950 1559 2950 
Q 2041 2950 2350 2633 
Q 2659 2316 2659 1784 
L 681 1784 
z
M 681 1966 
L 2006 1966 
Q 1991 2241 1941 2353 
Q 1863 2528 1708 2628 
Q 1553 2728 1384 2728 
Q 1125 2728 920 2526 
Q 716 2325 681 1966 
z
" id="TimesNewRomanPSMT-65" transform="scale(0.015625)"/>
       <path id="TimesNewRomanPSMT-20" transform="scale(0.015625)"/>
       <path d="M 1988 -1253 
L 1988 -1369 
Q 1516 -1131 1200 -813 
Q 750 -359 506 256 
Q 263 872 263 1534 
Q 263 2503 741 3301 
Q 1219 4100 1988 4444 
L 1988 4313 
Q 1603 4100 1356 3731 
Q 1109 3363 987 2797 
Q 866 2231 866 1616 
Q 866 947 969 400 
Q 1050 -31 1165 -292 
Q 1281 -553 1476 -793 
Q 1672 -1034 1988 -1253 
z
" id="TimesNewRomanPSMT-28" transform="scale(0.015625)"/>
       <path d="M 2050 2947 
L 2050 1972 
L 1947 1972 
Q 1828 2431 1642 2597 
Q 1456 2763 1169 2763 
Q 950 2763 815 2647 
Q 681 2531 681 2391 
Q 681 2216 781 2091 
Q 878 1963 1175 1819 
L 1631 1597 
Q 2266 1288 2266 781 
Q 2266 391 1970 151 
Q 1675 -88 1309 -88 
Q 1047 -88 709 6 
Q 606 38 541 38 
Q 469 38 428 -44 
L 325 -44 
L 325 978 
L 428 978 
Q 516 541 762 319 
Q 1009 97 1316 97 
Q 1531 97 1667 223 
Q 1803 350 1803 528 
Q 1803 744 1651 891 
Q 1500 1038 1047 1263 
Q 594 1488 453 1669 
Q 313 1847 313 2119 
Q 313 2472 555 2709 
Q 797 2947 1181 2947 
Q 1350 2947 1591 2875 
Q 1750 2828 1803 2828 
Q 1853 2828 1881 2850 
Q 1909 2872 1947 2947 
L 2050 2947 
z
" id="TimesNewRomanPSMT-73" transform="scale(0.015625)"/>
       <path d="M 2631 1088 
Q 2516 522 2178 217 
Q 1841 -88 1431 -88 
Q 944 -88 581 321 
Q 219 731 219 1428 
Q 219 2103 620 2525 
Q 1022 2947 1584 2947 
Q 2006 2947 2278 2723 
Q 2550 2500 2550 2259 
Q 2550 2141 2473 2067 
Q 2397 1994 2259 1994 
Q 2075 1994 1981 2113 
Q 1928 2178 1911 2362 
Q 1894 2547 1784 2644 
Q 1675 2738 1481 2738 
Q 1169 2738 978 2506 
Q 725 2200 725 1697 
Q 725 1184 976 792 
Q 1228 400 1656 400 
Q 1963 400 2206 609 
Q 2378 753 2541 1131 
L 2631 1088 
z
" id="TimesNewRomanPSMT-63" transform="scale(0.015625)"/>
       <path d="M 144 4313 
L 144 4444 
Q 619 4209 934 3891 
Q 1381 3434 1625 2820 
Q 1869 2206 1869 1541 
Q 1869 572 1392 -226 
Q 916 -1025 144 -1369 
L 144 -1253 
Q 528 -1038 776 -670 
Q 1025 -303 1145 264 
Q 1266 831 1266 1447 
Q 1266 2113 1163 2663 
Q 1084 3094 967 3353 
Q 850 3613 656 3853 
Q 463 4094 144 4313 
z
" id="TimesNewRomanPSMT-29" transform="scale(0.015625)"/>
      </defs>
      <use xlink:href="#TimesNewRomanPSMT-54"/>
      <use x="57.583984" xlink:href="#TimesNewRomanPSMT-69"/>
      <use x="85.367188" xlink:href="#TimesNewRomanPSMT-6d"/>
      <use x="163.150391" xlink:href="#TimesNewRomanPSMT-65"/>
      <use x="207.535156" xlink:href="#TimesNewRomanPSMT-20"/>
      <use x="232.535156" xlink:href="#TimesNewRomanPSMT-28"/>
      <use x="265.835938" xlink:href="#TimesNewRomanPSMT-73"/>
      <use x="304.751953" xlink:href="#TimesNewRomanPSMT-65"/>
      <use x="349.136719" xlink:href="#TimesNewRomanPSMT-63"/>
      <use x="393.521484" xlink:href="#TimesNewRomanPSMT-29"/>
     </g>
    </g>
   </g>
   <g id="matplotlib.axis_2">
    <g id="ytick_1">
     <g id="line2d_13">
      <path clip-path="url(#p30e1311fe7)" d="M 63.336875 306.560878 
L 398.136875 306.560878 
" style="fill:none;stroke:#000000;stroke-dasharray:0.5,0.825;stroke-dashoffset:0;stroke-width:0.5;"/>
     </g>
     <g id="line2d_14">
      <defs>
       <path d="M 0 0 
L -3.5 0 
" id="mebf4db6984" style="stroke:#000000;stroke-width:0.8;"/>
      </defs>
      <g>
       <use style="stroke:#000000;stroke-width:0.8;" x="63.336875" xlink:href="#mebf4db6984" y="306.560878"/>
      </g>
     </g>
     <g id="text_8">
      <!-- −0.06 -->
      <g transform="translate(23.942188 311.421503)scale(0.14 -0.14)">
       <defs>
        <path d="M 3484 2000 
L 116 2000 
L 116 2256 
L 3484 2256 
L 3484 2000 
z
" id="TimesNewRomanPSMT-2212" transform="scale(0.015625)"/>
        <path d="M 2869 4325 
L 2869 4209 
Q 2456 4169 2195 4045 
Q 1934 3922 1679 3669 
Q 1425 3416 1258 3105 
Q 1091 2794 978 2366 
Q 1428 2675 1881 2675 
Q 2316 2675 2634 2325 
Q 2953 1975 2953 1425 
Q 2953 894 2631 456 
Q 2244 -75 1606 -75 
Q 1172 -75 869 213 
Q 275 772 275 1663 
Q 275 2231 503 2743 
Q 731 3256 1154 3653 
Q 1578 4050 1965 4187 
Q 2353 4325 2688 4325 
L 2869 4325 
z
M 925 2138 
Q 869 1716 869 1456 
Q 869 1156 980 804 
Q 1091 453 1309 247 
Q 1469 100 1697 100 
Q 1969 100 2183 356 
Q 2397 613 2397 1088 
Q 2397 1622 2184 2012 
Q 1972 2403 1581 2403 
Q 1463 2403 1327 2353 
Q 1191 2303 925 2138 
z
" id="TimesNewRomanPSMT-36" transform="scale(0.015625)"/>
       </defs>
       <use xlink:href="#TimesNewRomanPSMT-2212"/>
       <use x="56.396484" xlink:href="#TimesNewRomanPSMT-30"/>
       <use x="106.396484" xlink:href="#TimesNewRomanPSMT-2e"/>
       <use x="131.396484" xlink:href="#TimesNewRomanPSMT-30"/>
       <use x="181.396484" xlink:href="#TimesNewRomanPSMT-36"/>
      </g>
     </g>
    </g>
    <g id="ytick_2">
     <g id="line2d_15">
      <path clip-path="url(#p30e1311fe7)" d="M 63.336875 256.272874 
L 398.136875 256.272874 
" style="fill:none;stroke:#000000;stroke-dasharray:0.5,0.825;stroke-dashoffset:0;stroke-width:0.5;"/>
     </g>
     <g id="line2d_16">
      <g>
       <use style="stroke:#000000;stroke-width:0.8;" x="63.336875" xlink:href="#mebf4db6984" y="256.272874"/>
      </g>
     </g>
     <g id="text_9">
      <!-- −0.04 -->
      <g transform="translate(23.942188 261.133499)scale(0.14 -0.14)">
       <use xlink:href="#TimesNewRomanPSMT-2212"/>
       <use x="56.396484" xlink:href="#TimesNewRomanPSMT-30"/>
       <use x="106.396484" xlink:href="#TimesNewRomanPSMT-2e"/>
       <use x="131.396484" xlink:href="#TimesNewRomanPSMT-30"/>
       <use x="181.396484" xlink:href="#TimesNewRomanPSMT-34"/>
      </g>
     </g>
    </g>
    <g id="ytick_3">
     <g id="line2d_17">
      <path clip-path="url(#p30e1311fe7)" d="M 63.336875 205.98487 
L 398.136875 205.98487 
" style="fill:none;stroke:#000000;stroke-dasharray:0.5,0.825;stroke-dashoffset:0;stroke-width:0.5;"/>
     </g>
     <g id="line2d_18">
      <g>
       <use style="stroke:#000000;stroke-width:0.8;" x="63.336875" xlink:href="#mebf4db6984" y="205.98487"/>
      </g>
     </g>
     <g id="text_10">
      <!-- −0.02 -->
      <g transform="translate(23.942188 210.845495)scale(0.14 -0.14)">
       <use xlink:href="#TimesNewRomanPSMT-2212"/>
       <use x="56.396484" xlink:href="#TimesNewRomanPSMT-30"/>
       <use x="106.396484" xlink:href="#TimesNewRomanPSMT-2e"/>
       <use x="131.396484" xlink:href="#TimesNewRomanPSMT-30"/>
       <use x="181.396484" xlink:href="#TimesNewRomanPSMT-32"/>
      </g>
     </g>
    </g>
    <g id="ytick_4">
     <g id="line2d_19">
      <path clip-path="url(#p30e1311fe7)" d="M 63.336875 155.696865 
L 398.136875 155.696865 
" style="fill:none;stroke:#000000;stroke-dasharray:0.5,0.825;stroke-dashoffset:0;stroke-width:0.5;"/>
     </g>
     <g id="line2d_20">
      <g>
       <use style="stroke:#000000;stroke-width:0.8;" x="63.336875" xlink:href="#mebf4db6984" y="155.696865"/>
      </g>
     </g>
     <g id="text_11">
      <!-- 0.00 -->
      <g transform="translate(31.836875 160.55749)scale(0.14 -0.14)">
       <use xlink:href="#TimesNewRomanPSMT-30"/>
       <use x="50" xlink:href="#TimesNewRomanPSMT-2e"/>
       <use x="75" xlink:href="#TimesNewRomanPSMT-30"/>
       <use x="125" xlink:href="#TimesNewRomanPSMT-30"/>
      </g>
     </g>
    </g>
    <g id="ytick_5">
     <g id="line2d_21">
      <path clip-path="url(#p30e1311fe7)" d="M 63.336875 105.408861 
L 398.136875 105.408861 
" style="fill:none;stroke:#000000;stroke-dasharray:0.5,0.825;stroke-dashoffset:0;stroke-width:0.5;"/>
     </g>
     <g id="line2d_22">
      <g>
       <use style="stroke:#000000;stroke-width:0.8;" x="63.336875" xlink:href="#mebf4db6984" y="105.408861"/>
      </g>
     </g>
     <g id="text_12">
      <!-- 0.02 -->
      <g transform="translate(31.836875 110.269486)scale(0.14 -0.14)">
       <use xlink:href="#TimesNewRomanPSMT-30"/>
       <use x="50" xlink:href="#TimesNewRomanPSMT-2e"/>
       <use x="75" xlink:href="#TimesNewRomanPSMT-30"/>
       <use x="125" xlink:href="#TimesNewRomanPSMT-32"/>
      </g>
     </g>
    </g>
    <g id="ytick_6">
     <g id="line2d_23">
      <path clip-path="url(#p30e1311fe7)" d="M 63.336875 55.120856 
L 398.136875 55.120856 
" style="fill:none;stroke:#000000;stroke-dasharray:0.5,0.825;stroke-dashoffset:0;stroke-width:0.5;"/>
     </g>
     <g id="line2d_24">
      <g>
       <use style="stroke:#000000;stroke-width:0.8;" x="63.336875" xlink:href="#mebf4db6984" y="55.120856"/>
      </g>
     </g>
     <g id="text_13">
      <!-- 0.04 -->
      <g transform="translate(31.836875 59.981481)scale(0.14 -0.14)">
       <use xlink:href="#TimesNewRomanPSMT-30"/>
       <use x="50" xlink:href="#TimesNewRomanPSMT-2e"/>
       <use x="75" xlink:href="#TimesNewRomanPSMT-30"/>
       <use x="125" xlink:href="#TimesNewRomanPSMT-34"/>
      </g>
     </g>
    </g>
    <g id="text_14">
     <!-- Volatage (V) -->
     <g transform="translate(16.92125 209.352344)rotate(-90)scale(0.14 -0.14)">
      <defs>
       <path d="M 4544 4238 
L 4544 4122 
Q 4319 4081 4203 3978 
Q 4038 3825 3909 3509 
L 2431 -97 
L 2316 -97 
L 728 3556 
Q 606 3838 556 3900 
Q 478 3997 364 4051 
Q 250 4106 56 4122 
L 56 4238 
L 1788 4238 
L 1788 4122 
Q 1494 4094 1406 4022 
Q 1319 3950 1319 3838 
Q 1319 3681 1463 3350 
L 2541 866 
L 3541 3319 
Q 3688 3681 3688 3822 
Q 3688 3913 3597 3995 
Q 3506 4078 3291 4113 
Q 3275 4116 3238 4122 
L 3238 4238 
L 4544 4238 
z
" id="TimesNewRomanPSMT-56" transform="scale(0.015625)"/>
       <path d="M 1600 2947 
Q 2250 2947 2644 2453 
Q 2978 2031 2978 1484 
Q 2978 1100 2793 706 
Q 2609 313 2286 112 
Q 1963 -88 1566 -88 
Q 919 -88 538 428 
Q 216 863 216 1403 
Q 216 1797 411 2186 
Q 606 2575 925 2761 
Q 1244 2947 1600 2947 
z
M 1503 2744 
Q 1338 2744 1170 2645 
Q 1003 2547 900 2300 
Q 797 2053 797 1666 
Q 797 1041 1045 587 
Q 1294 134 1700 134 
Q 2003 134 2200 384 
Q 2397 634 2397 1244 
Q 2397 2006 2069 2444 
Q 1847 2744 1503 2744 
z
" id="TimesNewRomanPSMT-6f" transform="scale(0.015625)"/>
       <path d="M 1184 4444 
L 1184 647 
Q 1184 378 1223 290 
Q 1263 203 1344 158 
Q 1425 113 1647 113 
L 1647 0 
L 244 0 
L 244 113 
Q 441 113 512 153 
Q 584 194 625 287 
Q 666 381 666 647 
L 666 3247 
Q 666 3731 644 3842 
Q 622 3953 573 3993 
Q 525 4034 450 4034 
Q 369 4034 244 3984 
L 191 4094 
L 1044 4444 
L 1184 4444 
z
" id="TimesNewRomanPSMT-6c" transform="scale(0.015625)"/>
       <path d="M 1822 413 
Q 1381 72 1269 19 
Q 1100 -59 909 -59 
Q 613 -59 420 144 
Q 228 347 228 678 
Q 228 888 322 1041 
Q 450 1253 767 1440 
Q 1084 1628 1822 1897 
L 1822 2009 
Q 1822 2438 1686 2597 
Q 1550 2756 1291 2756 
Q 1094 2756 978 2650 
Q 859 2544 859 2406 
L 866 2225 
Q 866 2081 792 2003 
Q 719 1925 600 1925 
Q 484 1925 411 2006 
Q 338 2088 338 2228 
Q 338 2497 613 2722 
Q 888 2947 1384 2947 
Q 1766 2947 2009 2819 
Q 2194 2722 2281 2516 
Q 2338 2381 2338 1966 
L 2338 994 
Q 2338 584 2353 492 
Q 2369 400 2405 369 
Q 2441 338 2488 338 
Q 2538 338 2575 359 
Q 2641 400 2828 588 
L 2828 413 
Q 2478 -56 2159 -56 
Q 2006 -56 1915 50 
Q 1825 156 1822 413 
z
M 1822 616 
L 1822 1706 
Q 1350 1519 1213 1441 
Q 966 1303 859 1153 
Q 753 1003 753 825 
Q 753 600 887 451 
Q 1022 303 1197 303 
Q 1434 303 1822 616 
z
" id="TimesNewRomanPSMT-61" transform="scale(0.015625)"/>
       <path d="M 1031 3803 
L 1031 2863 
L 1700 2863 
L 1700 2644 
L 1031 2644 
L 1031 788 
Q 1031 509 1111 412 
Q 1191 316 1316 316 
Q 1419 316 1516 380 
Q 1613 444 1666 569 
L 1788 569 
Q 1678 263 1478 108 
Q 1278 -47 1066 -47 
Q 922 -47 784 33 
Q 647 113 581 261 
Q 516 409 516 719 
L 516 2644 
L 63 2644 
L 63 2747 
Q 234 2816 414 2980 
Q 594 3144 734 3369 
Q 806 3488 934 3803 
L 1031 3803 
z
" id="TimesNewRomanPSMT-74" transform="scale(0.015625)"/>
       <path d="M 966 1044 
Q 703 1172 562 1401 
Q 422 1631 422 1909 
Q 422 2334 742 2640 
Q 1063 2947 1563 2947 
Q 1972 2947 2272 2747 
L 2878 2747 
Q 3013 2747 3034 2739 
Q 3056 2731 3066 2713 
Q 3084 2684 3084 2613 
Q 3084 2531 3069 2500 
Q 3059 2484 3036 2475 
Q 3013 2466 2878 2466 
L 2506 2466 
Q 2681 2241 2681 1891 
Q 2681 1491 2375 1206 
Q 2069 922 1553 922 
Q 1341 922 1119 984 
Q 981 866 932 777 
Q 884 688 884 625 
Q 884 572 936 522 
Q 988 472 1138 450 
Q 1225 438 1575 428 
Q 2219 413 2409 384 
Q 2700 344 2873 169 
Q 3047 -6 3047 -263 
Q 3047 -616 2716 -925 
Q 2228 -1381 1444 -1381 
Q 841 -1381 425 -1109 
Q 191 -953 191 -784 
Q 191 -709 225 -634 
Q 278 -519 444 -313 
Q 466 -284 763 25 
Q 600 122 533 198 
Q 466 275 466 372 
Q 466 481 555 628 
Q 644 775 966 1044 
z
M 1509 2797 
Q 1278 2797 1122 2612 
Q 966 2428 966 2047 
Q 966 1553 1178 1281 
Q 1341 1075 1591 1075 
Q 1828 1075 1981 1253 
Q 2134 1431 2134 1813 
Q 2134 2309 1919 2591 
Q 1759 2797 1509 2797 
z
M 934 0 
Q 788 -159 713 -296 
Q 638 -434 638 -550 
Q 638 -700 819 -813 
Q 1131 -1006 1722 -1006 
Q 2284 -1006 2551 -807 
Q 2819 -609 2819 -384 
Q 2819 -222 2659 -153 
Q 2497 -84 2016 -72 
Q 1313 -53 934 0 
z
" id="TimesNewRomanPSMT-67" transform="scale(0.015625)"/>
      </defs>
      <use xlink:href="#TimesNewRomanPSMT-56"/>
      <use x="59.341797" xlink:href="#TimesNewRomanPSMT-6f"/>
      <use x="109.341797" xlink:href="#TimesNewRomanPSMT-6c"/>
      <use x="137.125" xlink:href="#TimesNewRomanPSMT-61"/>
      <use x="181.509766" xlink:href="#TimesNewRomanPSMT-74"/>
      <use x="209.292969" xlink:href="#TimesNewRomanPSMT-61"/>
      <use x="253.677734" xlink:href="#TimesNewRomanPSMT-67"/>
      <use x="303.677734" xlink:href="#TimesNewRomanPSMT-65"/>
      <use x="348.0625" xlink:href="#TimesNewRomanPSMT-20"/>
      <use x="373.0625" xlink:href="#TimesNewRomanPSMT-28"/>
      <use x="406.363281" xlink:href="#TimesNewRomanPSMT-56"/>
      <use x="478.580078" xlink:href="#TimesNewRomanPSMT-29"/>
     </g>
    </g>
   </g>
   <g id="LineCollection_1">
    <path clip-path="url(#p30e1311fe7)" d="M 78.555057 155.696865 
L 382.918693 155.696865 
" style="fill:none;stroke:#1f77b4;stroke-width:1.5;"/>
   </g>
   <g id="line2d_25">
    <path clip-path="url(#p30e1311fe7)" d="M 78.555057 155.720878 
L 78.737675 155.658018 
L 78.920293 155.689448 
L 105.582548 155.595158 
L 105.73473 155.595158 
L 105.856475 155.626588 
L 105.886911 155.595158 
L 106.039093 155.595158 
L 106.160839 155.595158 
L 106.282584 155.563728 
L 106.31302 155.595158 
L 106.40433 155.595158 
L 106.434766 155.563728 
L 111.42633 155.626588 
L 111.548075 155.689448 
L 111.66982 155.658018 
L 113.252511 155.752308 
L 113.465566 155.815168 
L 113.648184 155.783738 
L 114.591711 155.878028 
L 114.77433 155.940888 
L 114.926511 155.909458 
L 115.078693 156.003748 
L 115.230875 156.003748 
L 115.991784 156.098038 
L 116.11353 156.129468 
L 116.78313 156.223758 
L 116.996184 156.286618 
L 117.087493 156.255188 
L 117.11793 156.286618 
L 117.300548 156.318048 
L 117.970148 156.380908 
L 118.12233 156.443768 
L 118.274511 156.443768 
L 118.487566 156.538058 
L 118.670184 156.506628 
L 118.852802 156.600918 
L 118.944111 156.538058 
L 118.974548 156.569488 
L 119.613711 156.632348 
L 119.765893 156.695208 
L 119.887639 156.663778 
L 120.831166 156.758068 
L 121.013784 156.789498 
L 121.165966 156.789498 
L 121.835566 156.883788 
L 122.079057 157.009508 
L 122.200802 157.009508 
L 122.413857 157.103798 
L 122.535602 157.103798 
L 122.839966 157.260948 
L 123.022584 157.323808 
L 123.14433 157.418098 
L 123.174766 157.386668 
L 123.540002 157.638108 
L 123.631311 157.638108 
L 123.844366 157.826688 
L 124.026984 157.920978 
L 124.666148 158.455288 
L 124.696584 158.423858 
L 124.757457 158.518148 
L 124.879202 158.581008 
L 125.15313 158.895308 
L 125.761857 159.649628 
L 126.035784 160.152508 
L 126.340148 160.623958 
L 126.674948 161.315418 
L 126.857566 161.661148 
L 127.557602 163.358368 
L 130.327311 172.28449 
L 132.244802 179.764829 
L 132.457857 180.456289 
L 133.036148 182.37352 
L 133.797057 184.38504 
L 133.918802 184.66791 
L 134.466657 186.05083 
L 134.892766 187.02516 
L 135.86673 188.816671 
L 135.958039 188.910961 
L 136.171093 189.099541 
L 136.44502 189.193831 
L 136.566766 189.225261 
L 136.718948 189.162401 
L 136.840693 189.193831 
L 136.87113 189.162401 
L 137.145057 189.068111 
L 137.358111 188.848101 
L 137.44942 188.753811 
L 138.027711 187.99949 
L 139.153857 185.51652 
L 139.397348 184.69934 
L 139.853893 182.97069 
L 141.436584 174.233149 
L 143.56713 158.078128 
L 147.91953 112.001746 
L 151.693639 70.356995 
L 154.28073 49.864633 
L 155.406875 44.615823 
L 156.167784 42.541435 
L 156.228657 42.447148 
L 157.050439 41.755685 
L 157.172184 41.78712 
L 157.29393 41.818548 
L 157.476548 41.912833 
L 157.902657 42.478575 
L 158.724439 45.33871 
L 159.728839 51.090401 
L 160.763675 59.325059 
L 162.22462 75.542943 
L 162.833348 83.714741 
L 163.716002 97.041065 
L 166.485711 147.580507 
L 171.568584 250.293758 
L 172.968657 274.274848 
L 173.820875 286.563977 
L 175.647057 307.873524 
L 176.255784 313.028036 
L 177.04713 318.654014 
L 177.990657 322.959927 
L 178.38633 324.185695 
L 179.025493 324.72 
L 179.208111 324.688565 
L 179.573348 324.594277 
L 179.908148 324.091407 
L 180.242948 323.1485 
L 181.003857 320.445522 
L 181.73433 316.108174 
L 182.769166 307.842089 
L 184.869275 282.792379 
L 186.75633 253.939634 
L 188.247711 227.538434 
L 193.817566 120.424985 
L 195.004584 101.472695 
L 197.409057 68.282607 
L 198.352584 58.759319 
L 200.117893 45.087265 
L 201.000548 40.278475 
L 201.213602 39.30415 
L 201.761457 37.04119 
L 202.339748 35.595405 
L 202.49193 35.281107 
L 202.887602 34.401062 
L 203.983311 33.395304 
L 204.105057 33.363877 
L 204.318111 33.269592 
L 205.444257 34.589644 
L 206.113857 36.224005 
L 207.42262 40.624205 
L 208.42702 45.244415 
L 212.718548 72.494233 
L 213.54033 78.371641 
L 214.20993 83.211864 
L 216.583966 101.158395 
L 217.344875 106.532921 
L 218.775384 116.119077 
L 219.262366 119.199214 
L 220.14502 124.793755 
L 220.90593 129.288245 
L 221.392911 132.022655 
L 224.740911 148.774847 
L 224.953966 149.780607 
L 227.145384 159.303898 
L 227.875857 163.138359 
L 230.097711 175.17605 
L 230.584693 178.28762 
L 232.19782 188.942391 
L 233.323966 198.371389 
L 234.419675 208.3347 
L 237.706802 237.847472 
L 239.167748 249.005128 
L 241.024366 259.817047 
L 242.302693 263.431497 
L 242.637493 263.90295 
L 242.66793 263.871515 
L 242.698366 263.96581 
L 243.154911 264.311542 
L 243.185348 264.280107 
L 243.24622 264.374395 
L 243.459275 264.625837 
L 243.489711 264.594402 
L 243.550584 264.657265 
L 243.794075 264.75156 
L 244.098439 264.657265 
L 244.950657 263.62008 
L 245.650693 261.105674 
L 246.837711 254.442514 
L 248.085602 244.636355 
L 249.881348 226.909834 
L 250.885748 215.437885 
L 256.516475 147.014767 
L 257.39913 138.182937 
L 259.894911 118.476324 
L 261.112366 111.624584 
L 261.781966 108.733021 
L 263.09073 105.024283 
L 263.821202 103.767081 
L 265.069093 102.6356 
L 265.221275 102.572745 
L 265.34302 102.447023 
L 265.373457 102.478453 
L 266.195239 102.572745 
L 266.530039 102.792753 
L 266.621348 102.792753 
L 266.651784 102.824186 
L 267.808366 104.144243 
L 268.051857 104.552831 
L 269.36062 107.004376 
L 269.482366 107.255816 
L 269.78673 107.852986 
L 270.486766 109.518771 
L 270.760693 110.398811 
L 271.065057 111.247424 
L 271.79553 113.824684 
L 271.947711 114.390424 
L 272.404257 116.181932 
L 273.04342 118.507754 
L 273.834766 121.336455 
L 274.04782 122.027915 
L 275.965311 127.622455 
L 276.087057 127.905325 
L 276.634911 129.256815 
L 277.274075 130.828315 
L 277.791493 132.116946 
L 277.943675 132.399817 
L 278.49153 133.751306 
L 280.195966 137.020026 
L 280.561202 137.522906 
L 280.83513 138.025786 
L 281.07862 138.402946 
L 281.382984 139.031546 
L 281.687348 139.502996 
L 281.930839 139.911587 
L 282.904802 141.671666 
L 283.361348 142.300266 
L 283.909202 143.180306 
L 284.487493 143.934626 
L 284.791857 144.311787 
L 285.918002 145.317546 
L 286.161493 145.411837 
L 286.404984 145.506127 
L 286.557166 145.506127 
L 287.19633 145.411837 
L 287.561566 145.191826 
L 287.713748 145.097537 
L 287.926802 144.908956 
L 288.748584 143.903197 
L 289.266002 143.086017 
L 289.53993 142.677427 
L 289.935602 141.765957 
L 290.057348 141.483087 
L 291.000875 139.314416 
L 291.396548 138.151506 
L 291.913966 136.862876 
L 292.035711 136.580005 
L 295.962002 124.730895 
L 296.083748 124.479455 
L 296.357675 123.787995 
L 297.636002 121.367885 
L 297.727311 121.273595 
L 298.092548 120.770715 
L 298.214293 120.676425 
L 298.366475 120.582135 
L 299.401311 120.676425 
L 299.82742 121.273595 
L 301.075311 124.102295 
L 302.658002 131.079755 
L 303.479784 136.234276 
L 304.027639 140.288746 
L 306.249493 159.555338 
L 312.123711 219.115191 
L 313.919457 233.038684 
L 314.55862 236.87315 
L 316.263057 243.442013 
L 317.115275 244.95065 
L 317.754439 245.484966 
L 318.850148 244.196338 
L 319.306693 243.001995 
L 319.945857 240.676173 
L 320.980693 235.930242 
L 322.01553 230.052834 
L 323.993893 214.997863 
L 326.824475 189.696711 
L 327.250584 185.83082 
L 330.263784 158.863878 
L 331.024693 152.577877 
L 332.089966 143.683187 
L 332.455202 140.728767 
L 333.276984 134.128466 
L 334.190075 127.465305 
L 337.142402 109.833071 
L 339.729493 99.58689 
L 339.972984 98.832573 
L 340.277348 97.826813 
L 340.916511 95.658145 
L 342.133966 92.232272 
L 342.77313 90.660774 
L 343.290548 89.403572 
L 343.44273 89.089269 
L 344.842802 86.417722 
L 344.903675 86.323429 
L 345.45153 85.443394 
L 346.334184 84.689071 
L 347.12553 84.783361 
L 347.308148 84.909079 
L 348.921275 86.732022 
L 350.38222 90.000742 
L 351.873602 94.966682 
L 352.756257 98.141115 
L 353.243239 99.995483 
L 353.760657 102.10129 
L 354.125893 103.578503 
L 355.221602 108.575874 
L 358.234802 124.668035 
L 358.75222 127.622455 
L 360.334911 136.737155 
L 360.669711 138.591527 
L 361.76542 144.688946 
L 362.161093 146.794757 
L 368.278802 178.947649 
L 368.917966 182.27923 
L 369.100584 183.15927 
L 374.700875 211.540563 
L 374.944366 212.640613 
L 375.705275 216.003625 
L 377.866257 224.458294 
L 379.388075 228.858494 
L 379.540257 229.172794 
L 380.240293 230.398567 
L 380.331602 230.492854 
L 381.092511 231.152884 
L 381.122948 231.090024 
L 381.18382 231.152884 
L 381.366439 231.247177 
L 381.51862 231.184314 
L 381.670802 231.184314 
L 381.94473 231.058594 
L 382.066475 230.995732 
L 382.27953 230.775724 
L 382.370839 230.744292 
L 382.553457 230.492854 
L 382.85782 230.021404 
L 382.918693 229.927112 
L 382.918693 229.927112 
" style="fill:none;stroke:#0000ff;stroke-linecap:square;stroke-width:1.5;"/>
   </g>
   <g id="line2d_26">
    <path clip-path="url(#p30e1311fe7)" d="M 78.555057 155.661789 
L 78.798548 155.677504 
L 79.042039 155.661789 
L 100.195311 155.771794 
L 100.438802 155.787509 
L 100.925784 155.897514 
L 101.656257 156.164669 
L 101.838875 156.274674 
L 102.447602 156.683264 
L 102.812839 157.044709 
L 103.604184 158.019039 
L 104.425966 159.480535 
L 104.578148 159.794835 
L 104.943384 160.56487 
L 105.765166 162.749255 
L 106.465202 164.855065 
L 107.865275 169.538136 
L 108.778366 172.854001 
L 109.630584 175.855566 
L 110.452366 178.417111 
L 111.456766 181.182951 
L 111.852439 182.000132 
L 112.887275 183.885932 
L 113.648184 184.514532 
L 114.317784 184.750257 
L 114.591711 184.640252 
L 114.956948 184.341667 
L 115.839602 183.304477 
L 117.36142 179.07714 
L 118.70062 173.372595 
L 119.248475 170.638186 
L 119.948511 166.866585 
L 121.348584 158.286194 
L 122.322548 151.560174 
L 124.696584 134.022232 
L 126.614075 121.843106 
L 127.222802 118.511526 
L 128.775057 110.32401 
L 129.870766 105.750945 
L 130.540366 103.72371 
L 132.701348 98.443469 
L 134.344911 96.101934 
L 134.740584 95.787631 
L 135.288439 95.064744 
L 135.592802 94.797586 
L 135.988475 94.703301 
L 136.292839 94.624721 
L 136.566766 94.388999 
L 136.749384 94.278996 
L 136.932002 94.168991 
L 137.358111 94.278996 
L 137.54073 94.404711 
L 137.632039 94.436144 
L 137.936402 94.593296 
L 138.240766 94.844736 
L 138.727748 95.771919 
L 139.397348 97.799154 
L 139.914766 99.433514 
L 140.371311 101.209309 
L 141.923566 108.076765 
L 143.323639 116.641438 
L 147.097748 146.735668 
L 149.228293 167.542331 
L 150.019639 175.289826 
L 152.971966 203.183953 
L 154.52422 215.127354 
L 155.680802 222.18339 
L 156.62433 226.52073 
L 158.085275 230.685208 
L 158.54182 231.219516 
L 158.694002 231.298091 
L 158.907057 231.439526 
L 159.607093 231.706683 
L 160.276693 231.250948 
L 160.915857 230.433768 
L 161.55502 228.862263 
L 162.711602 224.94923 
L 163.65513 220.061865 
L 164.385602 215.284502 
L 166.607457 197.227968 
L 168.494511 179.690026 
L 170.564184 161.460624 
L 173.181711 143.309798 
L 174.27742 137.715258 
L 175.03833 134.367963 
L 175.525311 133.000758 
L 176.742766 130.737797 
L 176.925384 130.674937 
L 177.108002 130.659222 
L 177.442802 130.596362 
L 177.747166 130.674937 
L 178.477639 132.010713 
L 181.003857 138.831023 
L 181.64302 141.534003 
L 184.717093 157.987609 
L 185.904111 164.11646 
L 188.521639 174.456931 
L 190.01302 178.715696 
L 190.34782 179.281436 
L 190.652184 179.564307 
L 191.291348 179.784316 
L 193.056657 179.690026 
L 193.78713 178.794273 
L 194.334984 177.914231 
L 194.730657 177.097052 
L 195.856802 174.472645 
L 196.100293 173.891191 
L 196.587275 172.366836 
L 197.196002 170.323885 
L 198.04822 166.835155 
L 199.204802 160.942029 
L 199.600475 158.33334 
L 200.970111 148.417173 
L 202.370184 137.762402 
L 204.378984 121.340226 
L 205.626875 111.942655 
L 206.479093 106.960997 
L 207.787857 99.543519 
L 208.914002 93.760399 
L 210.374948 88.181573 
L 211.348911 85.934326 
L 212.079384 85.321443 
L 212.231566 85.290013 
L 212.596802 85.211438 
L 213.175093 85.305731 
L 213.479457 85.572883 
L 214.514293 86.782936 
L 215.396948 88.825888 
L 217.46662 96.714817 
L 219.323239 105.860947 
L 228.758511 153.995999 
L 231.254293 165.075075 
L 231.710839 167.118025 
L 234.054439 179.800031 
L 235.63713 189.417612 
L 236.367602 193.582088 
L 237.21982 198.060865 
L 238.254657 202.838221 
L 239.076439 205.776929 
L 240.080839 208.542769 
L 242.24182 212.754389 
L 242.759239 213.351559 
L 243.00273 213.587282 
L 243.24622 213.854439 
L 244.25062 215.033062 
L 244.494111 215.315934 
L 244.707166 215.535942 
L 245.315893 216.274547 
L 245.620257 216.541705 
L 246.198548 216.981725 
L 247.26382 217.43746 
L 247.416002 217.46889 
L 247.963857 217.578895 
L 248.298657 217.657467 
L 248.481275 217.673187 
L 249.27262 217.578895 
L 249.424802 217.547465 
L 249.668293 217.563182 
L 251.190111 217.673187 
L 251.464039 217.798902 
L 251.890148 217.908907 
L 252.498875 218.113205 
L 252.95542 218.22321 
L 254.416366 219.087537 
L 254.751166 219.41755 
L 255.05553 219.684702 
L 256.516475 221.05191 
L 256.63822 221.161915 
L 259.012257 223.456305 
L 259.347057 223.519168 
L 259.894911 223.424875 
L 260.138402 223.31487 
L 260.290584 223.22058 
L 261.173239 222.15196 
L 262.08633 220.01472 
L 262.725493 217.673187 
L 263.455966 214.184452 
L 264.00382 211.120029 
L 264.856039 205.666924 
L 265.495202 200.685271 
L 266.560475 190.360512 
L 268.051857 173.011151 
L 269.634548 151.198729 
L 276.178366 54.850055 
L 277.243639 43.000947 
L 278.034984 35.913476 
L 279.039384 28.998881 
L 279.769857 25.462998 
L 280.287275 23.75007 
L 280.956875 22.587153 
L 281.535166 22.367145 
L 282.08302 23.074325 
L 282.691748 24.551535 
L 283.452657 27.710251 
L 283.970075 30.617521 
L 285.217966 39.747934 
L 286.222366 48.956927 
L 287.044148 57.568753 
L 289.174693 84.189963 
L 294.074948 148.480034 
L 295.688075 166.31656 
L 298.57953 195.075013 
L 301.349239 217.044585 
L 303.327602 228.642256 
L 303.93633 230.952361 
L 304.545057 232.476716 
L 304.758111 232.853876 
L 305.823384 234.315371 
L 306.036439 234.425376 
L 306.675602 234.865399 
L 306.94953 235.006834 
L 307.375639 234.928254 
L 307.61913 234.755389 
L 308.166984 234.346801 
L 308.349602 234.158224 
L 310.145348 231.172368 
L 310.63233 230.009463 
L 311.241057 228.500821 
L 313.067239 221.523358 
L 314.284693 214.655907 
L 315.806511 204.535444 
L 317.66313 191.366272 
L 318.697966 183.728782 
L 321.224184 166.2537 
L 322.624257 158.270479 
L 323.902584 152.251634 
L 325.789639 144.912729 
L 326.94622 141.675439 
L 328.102802 139.538198 
L 328.95502 138.422433 
L 329.28982 138.139563 
L 329.685493 137.888122 
L 330.507275 137.558107 
L 330.689893 137.542392 
L 330.96382 137.510963 
L 331.207311 137.526678 
L 331.72473 137.636683 
L 333.003057 138.186708 
L 333.30742 138.296713 
L 333.520475 138.375287 
L 333.855275 138.469578 
L 334.129202 138.595297 
L 335.255348 139.066747 
L 335.437966 139.082463 
L 335.833639 139.176753 
L 336.442366 139.082463 
L 336.99022 138.673873 
L 337.203275 138.469578 
L 337.629384 138.013843 
L 337.75113 137.856693 
L 339.820802 134.462252 
L 340.368657 133.330772 
L 340.916511 132.277868 
L 342.529639 128.694847 
L 343.868839 125.536132 
L 345.147166 123.744621 
L 345.177602 123.776051 
L 345.238475 123.713191 
L 345.45153 123.587471 
L 345.78633 123.398891 
L 346.395057 123.178881 
L 346.608111 123.178881 
L 348.221239 123.288886 
L 349.621311 124.891817 
L 350.260475 126.086157 
L 351.082257 128.019102 
L 352.604075 133.095048 
L 354.643311 141.989738 
L 358.75222 163.786445 
L 359.543566 167.683766 
L 361.065384 173.51403 
L 362.039348 176.892756 
L 362.800257 179.234291 
L 363.77422 181.905842 
L 365.569966 185.363142 
L 366.330875 186.353187 
L 366.970039 186.588912 
L 367.335275 186.510337 
L 367.487457 186.478907 
L 368.704911 185.740302 
L 369.344075 184.923122 
L 370.044111 183.225902 
L 371.352875 178.809985 
L 374.061711 168.642381 
L 374.853057 165.12222 
L 375.187857 163.755015 
L 382.27953 131.303537 
L 382.918693 128.804852 
L 382.918693 128.804852 
" style="fill:none;stroke:#ff0000;stroke-linecap:square;stroke-width:1.5;"/>
   </g>
   <g id="line2d_27">
    <path clip-path="url(#p30e1311fe7)" d="M 127.892402 164.238409 
" style="fill:none;stroke:#ffffff;stroke-linecap:square;stroke-width:1.5;"/>
    <defs>
     <path d="M 0 -5 
L -1.12257 -1.545085 
L -4.755283 -1.545085 
L -1.816356 0.59017 
L -2.938926 4.045085 
L -0 1.90983 
L 2.938926 4.045085 
L 1.816356 0.59017 
L 4.755283 -1.545085 
L 1.12257 -1.545085 
z
" id="m485b8f7328" style="stroke:#ffffff;stroke-linejoin:bevel;"/>
    </defs>
    <g clip-path="url(#p30e1311fe7)">
     <use style="fill:#0000ff;stroke:#ffffff;stroke-linejoin:bevel;" x="127.892402" xlink:href="#m485b8f7328" y="164.238409"/>
    </g>
   </g>
   <g id="line2d_28">
    <path clip-path="url(#p30e1311fe7)" d="M 105.64342 162.38781 
" style="fill:none;stroke:#ffffff;stroke-linecap:square;stroke-width:1.5;"/>
    <defs>
     <path d="M 0 -5 
L -1.12257 -1.545085 
L -4.755283 -1.545085 
L -1.816356 0.59017 
L -2.938926 4.045085 
L -0 1.90983 
L 2.938926 4.045085 
L 1.816356 0.59017 
L 4.755283 -1.545085 
L 1.12257 -1.545085 
z
" id="ma32158ed1b" style="stroke:#ffffff;stroke-linejoin:bevel;"/>
    </defs>
    <g clip-path="url(#p30e1311fe7)">
     <use style="fill:#ff0000;stroke:#ffffff;stroke-linejoin:bevel;" x="105.64342" xlink:href="#ma32158ed1b" y="162.38781"/>
    </g>
   </g>
   <g id="patch_3">
    <path d="M 63.336875 339.84 
L 63.336875 7.2 
" style="fill:none;stroke:#000000;stroke-linecap:square;stroke-linejoin:miter;stroke-width:0.8;"/>
   </g>
   <g id="patch_4">
    <path d="M 398.136875 339.84 
L 398.136875 7.2 
" style="fill:none;stroke:#000000;stroke-linecap:square;stroke-linejoin:miter;stroke-width:0.8;"/>
   </g>
   <g id="patch_5">
    <path d="M 63.336875 339.84 
L 398.136875 339.84 
" style="fill:none;stroke:#000000;stroke-linecap:square;stroke-linejoin:miter;stroke-width:0.8;"/>
   </g>
   <g id="patch_6">
    <path d="M 63.336875 7.2 
L 398.136875 7.2 
" style="fill:none;stroke:#000000;stroke-linecap:square;stroke-linejoin:miter;stroke-width:0.8;"/>
   </g>
   <g id="text_15">
    <g id="patch_7">
     <path d="M 75.036875 331.242688 
L 166.79375 331.242688 
L 166.79375 293.760312 
L 75.036875 293.760312 
z
" style="fill:#ffffff;stroke:#000000;stroke-linejoin:miter;stroke-width:0.75;"/>
    </g>
    <!-- Auto_00059 -->
    <g transform="translate(80.076875 308.521563)scale(0.14 -0.14)">
     <defs>
      <path d="M 2928 1419 
L 1288 1419 
L 1000 750 
Q 894 503 894 381 
Q 894 284 986 211 
Q 1078 138 1384 116 
L 1384 0 
L 50 0 
L 50 116 
Q 316 163 394 238 
Q 553 388 747 847 
L 2238 4334 
L 2347 4334 
L 3822 809 
Q 4000 384 4145 257 
Q 4291 131 4550 116 
L 4550 0 
L 2878 0 
L 2878 116 
Q 3131 128 3220 200 
Q 3309 272 3309 375 
Q 3309 513 3184 809 
L 2928 1419 
z
M 2841 1650 
L 2122 3363 
L 1384 1650 
L 2841 1650 
z
" id="TimesNewRomanPSMT-41" transform="scale(0.015625)"/>
      <path d="M 2709 2863 
L 2709 1128 
Q 2709 631 2732 520 
Q 2756 409 2807 365 
Q 2859 322 2928 322 
Q 3025 322 3147 375 
L 3191 266 
L 2334 -88 
L 2194 -88 
L 2194 519 
Q 1825 119 1631 15 
Q 1438 -88 1222 -88 
Q 981 -88 804 51 
Q 628 191 559 409 
Q 491 628 491 1028 
L 491 2306 
Q 491 2509 447 2587 
Q 403 2666 317 2708 
Q 231 2750 6 2747 
L 6 2863 
L 1009 2863 
L 1009 947 
Q 1009 547 1148 422 
Q 1288 297 1484 297 
Q 1619 297 1789 381 
Q 1959 466 2194 703 
L 2194 2325 
Q 2194 2569 2105 2655 
Q 2016 2741 1734 2747 
L 1734 2863 
L 2709 2863 
z
" id="TimesNewRomanPSMT-75" transform="scale(0.015625)"/>
      <path d="M 3256 -1381 
L -53 -1381 
L -53 -1119 
L 3256 -1119 
L 3256 -1381 
z
" id="TimesNewRomanPSMT-5f" transform="scale(0.015625)"/>
      <path d="M 338 -88 
L 338 28 
Q 744 34 1094 217 
Q 1444 400 1770 856 
Q 2097 1313 2225 1859 
Q 1734 1544 1338 1544 
Q 891 1544 572 1889 
Q 253 2234 253 2806 
Q 253 3363 572 3797 
Q 956 4325 1575 4325 
Q 2097 4325 2469 3894 
Q 2925 3359 2925 2575 
Q 2925 1869 2578 1258 
Q 2231 647 1613 244 
Q 1109 -88 516 -88 
L 338 -88 
z
M 2275 2091 
Q 2331 2497 2331 2741 
Q 2331 3044 2228 3395 
Q 2125 3747 1936 3934 
Q 1747 4122 1506 4122 
Q 1228 4122 1018 3872 
Q 809 3622 809 3128 
Q 809 2469 1088 2097 
Q 1291 1828 1588 1828 
Q 1731 1828 1928 1897 
Q 2125 1966 2275 2091 
z
" id="TimesNewRomanPSMT-39" transform="scale(0.015625)"/>
     </defs>
     <use xlink:href="#TimesNewRomanPSMT-41"/>
     <use x="72.216797" xlink:href="#TimesNewRomanPSMT-75"/>
     <use x="122.216797" xlink:href="#TimesNewRomanPSMT-74"/>
     <use x="150" xlink:href="#TimesNewRomanPSMT-6f"/>
     <use x="200" xlink:href="#TimesNewRomanPSMT-5f"/>
     <use x="250" xlink:href="#TimesNewRomanPSMT-30"/>
     <use x="300" xlink:href="#TimesNewRomanPSMT-30"/>
     <use x="350" xlink:href="#TimesNewRomanPSMT-30"/>
     <use x="400" xlink:href="#TimesNewRomanPSMT-35"/>
     <use x="450" xlink:href="#TimesNewRomanPSMT-39"/>
    </g>
    <!-- Vs: 273.46m/s -->
    <g transform="translate(80.076875 323.208)scale(0.14 -0.14)">
     <defs>
      <path d="M 903 2950 
Q 1047 2950 1148 2848 
Q 1250 2747 1250 2603 
Q 1250 2459 1148 2357 
Q 1047 2256 903 2256 
Q 759 2256 657 2357 
Q 556 2459 556 2603 
Q 556 2747 657 2848 
Q 759 2950 903 2950 
z
M 897 609 
Q 1044 609 1145 506 
Q 1247 403 1247 259 
Q 1247 116 1144 14 
Q 1041 -88 897 -88 
Q 753 -88 651 14 
Q 550 116 550 259 
Q 550 403 651 506 
Q 753 609 897 609 
z
" id="TimesNewRomanPSMT-3a" transform="scale(0.015625)"/>
      <path d="M 644 4238 
L 2916 4238 
L 2916 4119 
L 1503 -88 
L 1153 -88 
L 2419 3728 
L 1253 3728 
Q 900 3728 750 3644 
Q 488 3500 328 3200 
L 238 3234 
L 644 4238 
z
" id="TimesNewRomanPSMT-37" transform="scale(0.015625)"/>
      <path d="M 1794 4444 
L 259 -88 
L 9 -88 
L 1544 4444 
L 1794 4444 
z
" id="TimesNewRomanPSMT-2f" transform="scale(0.015625)"/>
     </defs>
     <use xlink:href="#TimesNewRomanPSMT-56"/>
     <use x="72.216797" xlink:href="#TimesNewRomanPSMT-73"/>
     <use x="111.132812" xlink:href="#TimesNewRomanPSMT-3a"/>
     <use x="138.916016" xlink:href="#TimesNewRomanPSMT-20"/>
     <use x="163.916016" xlink:href="#TimesNewRomanPSMT-32"/>
     <use x="213.916016" xlink:href="#TimesNewRomanPSMT-37"/>
     <use x="263.916016" xlink:href="#TimesNewRomanPSMT-33"/>
     <use x="313.916016" xlink:href="#TimesNewRomanPSMT-2e"/>
     <use x="338.916016" xlink:href="#TimesNewRomanPSMT-34"/>
     <use x="388.916016" xlink:href="#TimesNewRomanPSMT-36"/>
     <use x="438.916016" xlink:href="#TimesNewRomanPSMT-6d"/>
     <use x="516.699219" xlink:href="#TimesNewRomanPSMT-2f"/>
     <use x="544.482422" xlink:href="#TimesNewRomanPSMT-73"/>
    </g>
   </g>
  </g>
 </g>
 <defs>
  <clipPath id="p30e1311fe7">
   <rect height="332.64" width="334.8" x="63.336875" y="7.2"/>
  </clipPath>
 </defs>
</svg>
