<?xml version="1.0" encoding="utf-8" standalone="no"?>
<!DOCTYPE svg PUBLIC "-//W3C//DTD SVG 1.1//EN"
  "http://www.w3.org/Graphics/SVG/1.1/DTD/svg11.dtd">
<svg height="383.471875pt" version="1.1" viewBox="0 0 421.086875 383.471875" width="421.086875pt" xmlns="http://www.w3.org/2000/svg" xmlns:xlink="http://www.w3.org/1999/xlink">
 <metadata>
  <rdf:RDF xmlns:cc="http://creativecommons.org/ns#" xmlns:dc="http://purl.org/dc/elements/1.1/" xmlns:rdf="http://www.w3.org/1999/02/22-rdf-syntax-ns#">
   <cc:Work>
    <dc:type rdf:resource="http://purl.org/dc/dcmitype/StillImage"/>
    <dc:date>2021-06-11T14:39:38.951625</dc:date>
    <dc:format>image/svg+xml</dc:format>
    <dc:creator>
     <cc:Agent>
      <dc:title>Matplotlib v3.4.2, https://matplotlib.org/</dc:title>
     </cc:Agent>
    </dc:creator>
   </cc:Work>
  </rdf:RDF>
 </metadata>
 <defs>
  <style type="text/css">*{stroke-linecap:butt;stroke-linejoin:round;}</style>
 </defs>
 <g id="figure_1">
  <g id="patch_1">
   <path d="M 0 383.471875 
L 421.086875 383.471875 
L 421.086875 0 
L 0 0 
z
" style="fill:#ffffff;"/>
  </g>
  <g id="axes_1">
   <g id="patch_2">
    <path d="M 63.336875 339.84 
L 398.136875 339.84 
L 398.136875 7.2 
L 63.336875 7.2 
z
" style="fill:#ffffff;"/>
   </g>
   <g id="matplotlib.axis_1">
    <g id="xtick_1">
     <g id="line2d_1">
      <path clip-path="url(#pc3ee56e342)" d="M 93.773239 339.84 
L 93.773239 7.2 
" style="fill:none;stroke:#000000;stroke-dasharray:0.5,0.825;stroke-dashoffset:0;stroke-width:0.5;"/>
     </g>
     <g id="line2d_2">
      <defs>
       <path d="M 0 0 
L 0 3.5 
" id="md4a28693f1" style="stroke:#000000;stroke-width:0.8;"/>
      </defs>
      <g>
       <use style="stroke:#000000;stroke-width:0.8;" x="93.773239" xlink:href="#md4a28693f1" y="339.84"/>
      </g>
     </g>
     <g id="text_1">
      <!-- 0.000 -->
      <g transform="translate(78.023239 356.56125)scale(0.14 -0.14)">
       <defs>
        <path d="M 231 2094 
Q 231 2819 450 3342 
Q 669 3866 1031 4122 
Q 1313 4325 1613 4325 
Q 2100 4325 2488 3828 
Q 2972 3213 2972 2159 
Q 2972 1422 2759 906 
Q 2547 391 2217 158 
Q 1888 -75 1581 -75 
Q 975 -75 572 641 
Q 231 1244 231 2094 
z
M 844 2016 
Q 844 1141 1059 588 
Q 1238 122 1591 122 
Q 1759 122 1940 273 
Q 2122 425 2216 781 
Q 2359 1319 2359 2297 
Q 2359 3022 2209 3506 
Q 2097 3866 1919 4016 
Q 1791 4119 1609 4119 
Q 1397 4119 1231 3928 
Q 1006 3669 925 3112 
Q 844 2556 844 2016 
z
" id="TimesNewRomanPSMT-30" transform="scale(0.015625)"/>
        <path d="M 800 606 
Q 947 606 1047 504 
Q 1147 403 1147 259 
Q 1147 116 1045 14 
Q 944 -88 800 -88 
Q 656 -88 554 14 
Q 453 116 453 259 
Q 453 406 554 506 
Q 656 606 800 606 
z
" id="TimesNewRomanPSMT-2e" transform="scale(0.015625)"/>
       </defs>
       <use xlink:href="#TimesNewRomanPSMT-30"/>
       <use x="50" xlink:href="#TimesNewRomanPSMT-2e"/>
       <use x="75" xlink:href="#TimesNewRomanPSMT-30"/>
       <use x="125" xlink:href="#TimesNewRomanPSMT-30"/>
       <use x="175" xlink:href="#TimesNewRomanPSMT-30"/>
      </g>
     </g>
    </g>
    <g id="xtick_2">
     <g id="line2d_3">
      <path clip-path="url(#pc3ee56e342)" d="M 154.645966 339.84 
L 154.645966 7.2 
" style="fill:none;stroke:#000000;stroke-dasharray:0.5,0.825;stroke-dashoffset:0;stroke-width:0.5;"/>
     </g>
     <g id="line2d_4">
      <g>
       <use style="stroke:#000000;stroke-width:0.8;" x="154.645966" xlink:href="#md4a28693f1" y="339.84"/>
      </g>
     </g>
     <g id="text_2">
      <!-- 0.001 -->
      <g transform="translate(138.895966 356.56125)scale(0.14 -0.14)">
       <defs>
        <path d="M 750 3822 
L 1781 4325 
L 1884 4325 
L 1884 747 
Q 1884 391 1914 303 
Q 1944 216 2037 169 
Q 2131 122 2419 116 
L 2419 0 
L 825 0 
L 825 116 
Q 1125 122 1212 167 
Q 1300 213 1334 289 
Q 1369 366 1369 747 
L 1369 3034 
Q 1369 3497 1338 3628 
Q 1316 3728 1258 3775 
Q 1200 3822 1119 3822 
Q 1003 3822 797 3725 
L 750 3822 
z
" id="TimesNewRomanPSMT-31" transform="scale(0.015625)"/>
       </defs>
       <use xlink:href="#TimesNewRomanPSMT-30"/>
       <use x="50" xlink:href="#TimesNewRomanPSMT-2e"/>
       <use x="75" xlink:href="#TimesNewRomanPSMT-30"/>
       <use x="125" xlink:href="#TimesNewRomanPSMT-30"/>
       <use x="175" xlink:href="#TimesNewRomanPSMT-31"/>
      </g>
     </g>
    </g>
    <g id="xtick_3">
     <g id="line2d_5">
      <path clip-path="url(#pc3ee56e342)" d="M 215.518693 339.84 
L 215.518693 7.2 
" style="fill:none;stroke:#000000;stroke-dasharray:0.5,0.825;stroke-dashoffset:0;stroke-width:0.5;"/>
     </g>
     <g id="line2d_6">
      <g>
       <use style="stroke:#000000;stroke-width:0.8;" x="215.518693" xlink:href="#md4a28693f1" y="339.84"/>
      </g>
     </g>
     <g id="text_3">
      <!-- 0.002 -->
      <g transform="translate(199.768693 356.56125)scale(0.14 -0.14)">
       <defs>
        <path d="M 2934 816 
L 2638 0 
L 138 0 
L 138 116 
Q 1241 1122 1691 1759 
Q 2141 2397 2141 2925 
Q 2141 3328 1894 3587 
Q 1647 3847 1303 3847 
Q 991 3847 742 3664 
Q 494 3481 375 3128 
L 259 3128 
Q 338 3706 661 4015 
Q 984 4325 1469 4325 
Q 1984 4325 2329 3994 
Q 2675 3663 2675 3213 
Q 2675 2891 2525 2569 
Q 2294 2063 1775 1497 
Q 997 647 803 472 
L 1909 472 
Q 2247 472 2383 497 
Q 2519 522 2628 598 
Q 2738 675 2819 816 
L 2934 816 
z
" id="TimesNewRomanPSMT-32" transform="scale(0.015625)"/>
       </defs>
       <use xlink:href="#TimesNewRomanPSMT-30"/>
       <use x="50" xlink:href="#TimesNewRomanPSMT-2e"/>
       <use x="75" xlink:href="#TimesNewRomanPSMT-30"/>
       <use x="125" xlink:href="#TimesNewRomanPSMT-30"/>
       <use x="175" xlink:href="#TimesNewRomanPSMT-32"/>
      </g>
     </g>
    </g>
    <g id="xtick_4">
     <g id="line2d_7">
      <path clip-path="url(#pc3ee56e342)" d="M 276.39142 339.84 
L 276.39142 7.2 
" style="fill:none;stroke:#000000;stroke-dasharray:0.5,0.825;stroke-dashoffset:0;stroke-width:0.5;"/>
     </g>
     <g id="line2d_8">
      <g>
       <use style="stroke:#000000;stroke-width:0.8;" x="276.39142" xlink:href="#md4a28693f1" y="339.84"/>
      </g>
     </g>
     <g id="text_4">
      <!-- 0.003 -->
      <g transform="translate(260.64142 356.56125)scale(0.14 -0.14)">
       <defs>
        <path d="M 325 3431 
Q 506 3859 782 4092 
Q 1059 4325 1472 4325 
Q 1981 4325 2253 3994 
Q 2459 3747 2459 3466 
Q 2459 3003 1878 2509 
Q 2269 2356 2469 2072 
Q 2669 1788 2669 1403 
Q 2669 853 2319 450 
Q 1863 -75 997 -75 
Q 569 -75 414 31 
Q 259 138 259 259 
Q 259 350 332 419 
Q 406 488 509 488 
Q 588 488 669 463 
Q 722 447 909 348 
Q 1097 250 1169 231 
Q 1284 197 1416 197 
Q 1734 197 1970 444 
Q 2206 691 2206 1028 
Q 2206 1275 2097 1509 
Q 2016 1684 1919 1775 
Q 1784 1900 1550 2001 
Q 1316 2103 1072 2103 
L 972 2103 
L 972 2197 
Q 1219 2228 1467 2375 
Q 1716 2522 1828 2728 
Q 1941 2934 1941 3181 
Q 1941 3503 1739 3701 
Q 1538 3900 1238 3900 
Q 753 3900 428 3381 
L 325 3431 
z
" id="TimesNewRomanPSMT-33" transform="scale(0.015625)"/>
       </defs>
       <use xlink:href="#TimesNewRomanPSMT-30"/>
       <use x="50" xlink:href="#TimesNewRomanPSMT-2e"/>
       <use x="75" xlink:href="#TimesNewRomanPSMT-30"/>
       <use x="125" xlink:href="#TimesNewRomanPSMT-30"/>
       <use x="175" xlink:href="#TimesNewRomanPSMT-33"/>
      </g>
     </g>
    </g>
    <g id="xtick_5">
     <g id="line2d_9">
      <path clip-path="url(#pc3ee56e342)" d="M 337.264148 339.84 
L 337.264148 7.2 
" style="fill:none;stroke:#000000;stroke-dasharray:0.5,0.825;stroke-dashoffset:0;stroke-width:0.5;"/>
     </g>
     <g id="line2d_10">
      <g>
       <use style="stroke:#000000;stroke-width:0.8;" x="337.264148" xlink:href="#md4a28693f1" y="339.84"/>
      </g>
     </g>
     <g id="text_5">
      <!-- 0.004 -->
      <g transform="translate(321.514148 356.56125)scale(0.14 -0.14)">
       <defs>
        <path d="M 2978 1563 
L 2978 1119 
L 2409 1119 
L 2409 0 
L 1894 0 
L 1894 1119 
L 100 1119 
L 100 1519 
L 2066 4325 
L 2409 4325 
L 2409 1563 
L 2978 1563 
z
M 1894 1563 
L 1894 3666 
L 406 1563 
L 1894 1563 
z
" id="TimesNewRomanPSMT-34" transform="scale(0.015625)"/>
       </defs>
       <use xlink:href="#TimesNewRomanPSMT-30"/>
       <use x="50" xlink:href="#TimesNewRomanPSMT-2e"/>
       <use x="75" xlink:href="#TimesNewRomanPSMT-30"/>
       <use x="125" xlink:href="#TimesNewRomanPSMT-30"/>
       <use x="175" xlink:href="#TimesNewRomanPSMT-34"/>
      </g>
     </g>
    </g>
    <g id="xtick_6">
     <g id="line2d_11">
      <path clip-path="url(#pc3ee56e342)" d="M 398.136875 339.84 
L 398.136875 7.2 
" style="fill:none;stroke:#000000;stroke-dasharray:0.5,0.825;stroke-dashoffset:0;stroke-width:0.5;"/>
     </g>
     <g id="line2d_12">
      <g>
       <use style="stroke:#000000;stroke-width:0.8;" x="398.136875" xlink:href="#md4a28693f1" y="339.84"/>
      </g>
     </g>
     <g id="text_6">
      <!-- 0.005 -->
      <g transform="translate(382.386875 356.56125)scale(0.14 -0.14)">
       <defs>
        <path d="M 2778 4238 
L 2534 3706 
L 1259 3706 
L 981 3138 
Q 1809 3016 2294 2522 
Q 2709 2097 2709 1522 
Q 2709 1188 2573 903 
Q 2438 619 2231 419 
Q 2025 219 1772 97 
Q 1413 -75 1034 -75 
Q 653 -75 479 54 
Q 306 184 306 341 
Q 306 428 378 495 
Q 450 563 559 563 
Q 641 563 702 538 
Q 763 513 909 409 
Q 1144 247 1384 247 
Q 1750 247 2026 523 
Q 2303 800 2303 1197 
Q 2303 1581 2056 1914 
Q 1809 2247 1375 2428 
Q 1034 2569 447 2591 
L 1259 4238 
L 2778 4238 
z
" id="TimesNewRomanPSMT-35" transform="scale(0.015625)"/>
       </defs>
       <use xlink:href="#TimesNewRomanPSMT-30"/>
       <use x="50" xlink:href="#TimesNewRomanPSMT-2e"/>
       <use x="75" xlink:href="#TimesNewRomanPSMT-30"/>
       <use x="125" xlink:href="#TimesNewRomanPSMT-30"/>
       <use x="175" xlink:href="#TimesNewRomanPSMT-35"/>
      </g>
     </g>
    </g>
    <g id="text_7">
     <!-- Time (sec) -->
     <g transform="translate(200.858906 373.277188)scale(0.14 -0.14)">
      <defs>
       <path d="M 3703 4238 
L 3750 3244 
L 3631 3244 
Q 3597 3506 3538 3619 
Q 3441 3800 3280 3886 
Q 3119 3972 2856 3972 
L 2259 3972 
L 2259 734 
Q 2259 344 2344 247 
Q 2463 116 2709 116 
L 2856 116 
L 2856 0 
L 1059 0 
L 1059 116 
L 1209 116 
Q 1478 116 1591 278 
Q 1659 378 1659 734 
L 1659 3972 
L 1150 3972 
Q 853 3972 728 3928 
Q 566 3869 450 3700 
Q 334 3531 313 3244 
L 194 3244 
L 244 4238 
L 3703 4238 
z
" id="TimesNewRomanPSMT-54" transform="scale(0.015625)"/>
       <path d="M 928 4444 
Q 1059 4444 1151 4351 
Q 1244 4259 1244 4128 
Q 1244 3997 1151 3903 
Q 1059 3809 928 3809 
Q 797 3809 703 3903 
Q 609 3997 609 4128 
Q 609 4259 701 4351 
Q 794 4444 928 4444 
z
M 1188 2947 
L 1188 647 
Q 1188 378 1227 289 
Q 1266 200 1342 156 
Q 1419 113 1622 113 
L 1622 0 
L 231 0 
L 231 113 
Q 441 113 512 153 
Q 584 194 626 287 
Q 669 381 669 647 
L 669 1750 
Q 669 2216 641 2353 
Q 619 2453 572 2492 
Q 525 2531 444 2531 
Q 356 2531 231 2484 
L 188 2597 
L 1050 2947 
L 1188 2947 
z
" id="TimesNewRomanPSMT-69" transform="scale(0.015625)"/>
       <path d="M 1050 2338 
Q 1363 2650 1419 2697 
Q 1559 2816 1721 2881 
Q 1884 2947 2044 2947 
Q 2313 2947 2506 2790 
Q 2700 2634 2766 2338 
Q 3088 2713 3309 2830 
Q 3531 2947 3766 2947 
Q 3994 2947 4170 2830 
Q 4347 2713 4450 2447 
Q 4519 2266 4519 1878 
L 4519 647 
Q 4519 378 4559 278 
Q 4591 209 4675 161 
Q 4759 113 4950 113 
L 4950 0 
L 3538 0 
L 3538 113 
L 3597 113 
Q 3781 113 3884 184 
Q 3956 234 3988 344 
Q 4000 397 4000 647 
L 4000 1878 
Q 4000 2228 3916 2372 
Q 3794 2572 3525 2572 
Q 3359 2572 3192 2489 
Q 3025 2406 2788 2181 
L 2781 2147 
L 2788 2013 
L 2788 647 
Q 2788 353 2820 281 
Q 2853 209 2943 161 
Q 3034 113 3253 113 
L 3253 0 
L 1806 0 
L 1806 113 
Q 2044 113 2133 169 
Q 2222 225 2256 338 
Q 2272 391 2272 647 
L 2272 1878 
Q 2272 2228 2169 2381 
Q 2031 2581 1784 2581 
Q 1616 2581 1450 2491 
Q 1191 2353 1050 2181 
L 1050 647 
Q 1050 366 1089 281 
Q 1128 197 1204 155 
Q 1281 113 1516 113 
L 1516 0 
L 100 0 
L 100 113 
Q 297 113 375 155 
Q 453 197 493 289 
Q 534 381 534 647 
L 534 1741 
Q 534 2213 506 2350 
Q 484 2453 437 2492 
Q 391 2531 309 2531 
Q 222 2531 100 2484 
L 53 2597 
L 916 2947 
L 1050 2947 
L 1050 2338 
z
" id="TimesNewRomanPSMT-6d" transform="scale(0.015625)"/>
       <path d="M 681 1784 
Q 678 1147 991 784 
Q 1303 422 1725 422 
Q 2006 422 2214 576 
Q 2422 731 2563 1106 
L 2659 1044 
Q 2594 616 2278 264 
Q 1963 -88 1488 -88 
Q 972 -88 605 314 
Q 238 716 238 1394 
Q 238 2128 614 2539 
Q 991 2950 1559 2950 
Q 2041 2950 2350 2633 
Q 2659 2316 2659 1784 
L 681 1784 
z
M 681 1966 
L 2006 1966 
Q 1991 2241 1941 2353 
Q 1863 2528 1708 2628 
Q 1553 2728 1384 2728 
Q 1125 2728 920 2526 
Q 716 2325 681 1966 
z
" id="TimesNewRomanPSMT-65" transform="scale(0.015625)"/>
       <path id="TimesNewRomanPSMT-20" transform="scale(0.015625)"/>
       <path d="M 1988 -1253 
L 1988 -1369 
Q 1516 -1131 1200 -813 
Q 750 -359 506 256 
Q 263 872 263 1534 
Q 263 2503 741 3301 
Q 1219 4100 1988 4444 
L 1988 4313 
Q 1603 4100 1356 3731 
Q 1109 3363 987 2797 
Q 866 2231 866 1616 
Q 866 947 969 400 
Q 1050 -31 1165 -292 
Q 1281 -553 1476 -793 
Q 1672 -1034 1988 -1253 
z
" id="TimesNewRomanPSMT-28" transform="scale(0.015625)"/>
       <path d="M 2050 2947 
L 2050 1972 
L 1947 1972 
Q 1828 2431 1642 2597 
Q 1456 2763 1169 2763 
Q 950 2763 815 2647 
Q 681 2531 681 2391 
Q 681 2216 781 2091 
Q 878 1963 1175 1819 
L 1631 1597 
Q 2266 1288 2266 781 
Q 2266 391 1970 151 
Q 1675 -88 1309 -88 
Q 1047 -88 709 6 
Q 606 38 541 38 
Q 469 38 428 -44 
L 325 -44 
L 325 978 
L 428 978 
Q 516 541 762 319 
Q 1009 97 1316 97 
Q 1531 97 1667 223 
Q 1803 350 1803 528 
Q 1803 744 1651 891 
Q 1500 1038 1047 1263 
Q 594 1488 453 1669 
Q 313 1847 313 2119 
Q 313 2472 555 2709 
Q 797 2947 1181 2947 
Q 1350 2947 1591 2875 
Q 1750 2828 1803 2828 
Q 1853 2828 1881 2850 
Q 1909 2872 1947 2947 
L 2050 2947 
z
" id="TimesNewRomanPSMT-73" transform="scale(0.015625)"/>
       <path d="M 2631 1088 
Q 2516 522 2178 217 
Q 1841 -88 1431 -88 
Q 944 -88 581 321 
Q 219 731 219 1428 
Q 219 2103 620 2525 
Q 1022 2947 1584 2947 
Q 2006 2947 2278 2723 
Q 2550 2500 2550 2259 
Q 2550 2141 2473 2067 
Q 2397 1994 2259 1994 
Q 2075 1994 1981 2113 
Q 1928 2178 1911 2362 
Q 1894 2547 1784 2644 
Q 1675 2738 1481 2738 
Q 1169 2738 978 2506 
Q 725 2200 725 1697 
Q 725 1184 976 792 
Q 1228 400 1656 400 
Q 1963 400 2206 609 
Q 2378 753 2541 1131 
L 2631 1088 
z
" id="TimesNewRomanPSMT-63" transform="scale(0.015625)"/>
       <path d="M 144 4313 
L 144 4444 
Q 619 4209 934 3891 
Q 1381 3434 1625 2820 
Q 1869 2206 1869 1541 
Q 1869 572 1392 -226 
Q 916 -1025 144 -1369 
L 144 -1253 
Q 528 -1038 776 -670 
Q 1025 -303 1145 264 
Q 1266 831 1266 1447 
Q 1266 2113 1163 2663 
Q 1084 3094 967 3353 
Q 850 3613 656 3853 
Q 463 4094 144 4313 
z
" id="TimesNewRomanPSMT-29" transform="scale(0.015625)"/>
      </defs>
      <use xlink:href="#TimesNewRomanPSMT-54"/>
      <use x="57.583984" xlink:href="#TimesNewRomanPSMT-69"/>
      <use x="85.367188" xlink:href="#TimesNewRomanPSMT-6d"/>
      <use x="163.150391" xlink:href="#TimesNewRomanPSMT-65"/>
      <use x="207.535156" xlink:href="#TimesNewRomanPSMT-20"/>
      <use x="232.535156" xlink:href="#TimesNewRomanPSMT-28"/>
      <use x="265.835938" xlink:href="#TimesNewRomanPSMT-73"/>
      <use x="304.751953" xlink:href="#TimesNewRomanPSMT-65"/>
      <use x="349.136719" xlink:href="#TimesNewRomanPSMT-63"/>
      <use x="393.521484" xlink:href="#TimesNewRomanPSMT-29"/>
     </g>
    </g>
   </g>
   <g id="matplotlib.axis_2">
    <g id="ytick_1">
     <g id="line2d_13">
      <path clip-path="url(#pc3ee56e342)" d="M 63.336875 315.552029 
L 398.136875 315.552029 
" style="fill:none;stroke:#000000;stroke-dasharray:0.5,0.825;stroke-dashoffset:0;stroke-width:0.5;"/>
     </g>
     <g id="line2d_14">
      <defs>
       <path d="M 0 0 
L -3.5 0 
" id="md8a5cc7814" style="stroke:#000000;stroke-width:0.8;"/>
      </defs>
      <g>
       <use style="stroke:#000000;stroke-width:0.8;" x="63.336875" xlink:href="#md8a5cc7814" y="315.552029"/>
      </g>
     </g>
     <g id="text_8">
      <!-- −0.06 -->
      <g transform="translate(23.942188 320.412654)scale(0.14 -0.14)">
       <defs>
        <path d="M 3484 2000 
L 116 2000 
L 116 2256 
L 3484 2256 
L 3484 2000 
z
" id="TimesNewRomanPSMT-2212" transform="scale(0.015625)"/>
        <path d="M 2869 4325 
L 2869 4209 
Q 2456 4169 2195 4045 
Q 1934 3922 1679 3669 
Q 1425 3416 1258 3105 
Q 1091 2794 978 2366 
Q 1428 2675 1881 2675 
Q 2316 2675 2634 2325 
Q 2953 1975 2953 1425 
Q 2953 894 2631 456 
Q 2244 -75 1606 -75 
Q 1172 -75 869 213 
Q 275 772 275 1663 
Q 275 2231 503 2743 
Q 731 3256 1154 3653 
Q 1578 4050 1965 4187 
Q 2353 4325 2688 4325 
L 2869 4325 
z
M 925 2138 
Q 869 1716 869 1456 
Q 869 1156 980 804 
Q 1091 453 1309 247 
Q 1469 100 1697 100 
Q 1969 100 2183 356 
Q 2397 613 2397 1088 
Q 2397 1622 2184 2012 
Q 1972 2403 1581 2403 
Q 1463 2403 1327 2353 
Q 1191 2303 925 2138 
z
" id="TimesNewRomanPSMT-36" transform="scale(0.015625)"/>
       </defs>
       <use xlink:href="#TimesNewRomanPSMT-2212"/>
       <use x="56.396484" xlink:href="#TimesNewRomanPSMT-30"/>
       <use x="106.396484" xlink:href="#TimesNewRomanPSMT-2e"/>
       <use x="131.396484" xlink:href="#TimesNewRomanPSMT-30"/>
       <use x="181.396484" xlink:href="#TimesNewRomanPSMT-36"/>
      </g>
     </g>
    </g>
    <g id="ytick_2">
     <g id="line2d_15">
      <path clip-path="url(#pc3ee56e342)" d="M 63.336875 263.139632 
L 398.136875 263.139632 
" style="fill:none;stroke:#000000;stroke-dasharray:0.5,0.825;stroke-dashoffset:0;stroke-width:0.5;"/>
     </g>
     <g id="line2d_16">
      <g>
       <use style="stroke:#000000;stroke-width:0.8;" x="63.336875" xlink:href="#md8a5cc7814" y="263.139632"/>
      </g>
     </g>
     <g id="text_9">
      <!-- −0.04 -->
      <g transform="translate(23.942188 268.000257)scale(0.14 -0.14)">
       <use xlink:href="#TimesNewRomanPSMT-2212"/>
       <use x="56.396484" xlink:href="#TimesNewRomanPSMT-30"/>
       <use x="106.396484" xlink:href="#TimesNewRomanPSMT-2e"/>
       <use x="131.396484" xlink:href="#TimesNewRomanPSMT-30"/>
       <use x="181.396484" xlink:href="#TimesNewRomanPSMT-34"/>
      </g>
     </g>
    </g>
    <g id="ytick_3">
     <g id="line2d_17">
      <path clip-path="url(#pc3ee56e342)" d="M 63.336875 210.727235 
L 398.136875 210.727235 
" style="fill:none;stroke:#000000;stroke-dasharray:0.5,0.825;stroke-dashoffset:0;stroke-width:0.5;"/>
     </g>
     <g id="line2d_18">
      <g>
       <use style="stroke:#000000;stroke-width:0.8;" x="63.336875" xlink:href="#md8a5cc7814" y="210.727235"/>
      </g>
     </g>
     <g id="text_10">
      <!-- −0.02 -->
      <g transform="translate(23.942188 215.58786)scale(0.14 -0.14)">
       <use xlink:href="#TimesNewRomanPSMT-2212"/>
       <use x="56.396484" xlink:href="#TimesNewRomanPSMT-30"/>
       <use x="106.396484" xlink:href="#TimesNewRomanPSMT-2e"/>
       <use x="131.396484" xlink:href="#TimesNewRomanPSMT-30"/>
       <use x="181.396484" xlink:href="#TimesNewRomanPSMT-32"/>
      </g>
     </g>
    </g>
    <g id="ytick_4">
     <g id="line2d_19">
      <path clip-path="url(#pc3ee56e342)" d="M 63.336875 158.314839 
L 398.136875 158.314839 
" style="fill:none;stroke:#000000;stroke-dasharray:0.5,0.825;stroke-dashoffset:0;stroke-width:0.5;"/>
     </g>
     <g id="line2d_20">
      <g>
       <use style="stroke:#000000;stroke-width:0.8;" x="63.336875" xlink:href="#md8a5cc7814" y="158.314839"/>
      </g>
     </g>
     <g id="text_11">
      <!-- 0.00 -->
      <g transform="translate(31.836875 163.175464)scale(0.14 -0.14)">
       <use xlink:href="#TimesNewRomanPSMT-30"/>
       <use x="50" xlink:href="#TimesNewRomanPSMT-2e"/>
       <use x="75" xlink:href="#TimesNewRomanPSMT-30"/>
       <use x="125" xlink:href="#TimesNewRomanPSMT-30"/>
      </g>
     </g>
    </g>
    <g id="ytick_5">
     <g id="line2d_21">
      <path clip-path="url(#pc3ee56e342)" d="M 63.336875 105.902442 
L 398.136875 105.902442 
" style="fill:none;stroke:#000000;stroke-dasharray:0.5,0.825;stroke-dashoffset:0;stroke-width:0.5;"/>
     </g>
     <g id="line2d_22">
      <g>
       <use style="stroke:#000000;stroke-width:0.8;" x="63.336875" xlink:href="#md8a5cc7814" y="105.902442"/>
      </g>
     </g>
     <g id="text_12">
      <!-- 0.02 -->
      <g transform="translate(31.836875 110.763067)scale(0.14 -0.14)">
       <use xlink:href="#TimesNewRomanPSMT-30"/>
       <use x="50" xlink:href="#TimesNewRomanPSMT-2e"/>
       <use x="75" xlink:href="#TimesNewRomanPSMT-30"/>
       <use x="125" xlink:href="#TimesNewRomanPSMT-32"/>
      </g>
     </g>
    </g>
    <g id="ytick_6">
     <g id="line2d_23">
      <path clip-path="url(#pc3ee56e342)" d="M 63.336875 53.490045 
L 398.136875 53.490045 
" style="fill:none;stroke:#000000;stroke-dasharray:0.5,0.825;stroke-dashoffset:0;stroke-width:0.5;"/>
     </g>
     <g id="line2d_24">
      <g>
       <use style="stroke:#000000;stroke-width:0.8;" x="63.336875" xlink:href="#md8a5cc7814" y="53.490045"/>
      </g>
     </g>
     <g id="text_13">
      <!-- 0.04 -->
      <g transform="translate(31.836875 58.35067)scale(0.14 -0.14)">
       <use xlink:href="#TimesNewRomanPSMT-30"/>
       <use x="50" xlink:href="#TimesNewRomanPSMT-2e"/>
       <use x="75" xlink:href="#TimesNewRomanPSMT-30"/>
       <use x="125" xlink:href="#TimesNewRomanPSMT-34"/>
      </g>
     </g>
    </g>
    <g id="text_14">
     <!-- Volatage (V) -->
     <g transform="translate(16.92125 209.352344)rotate(-90)scale(0.14 -0.14)">
      <defs>
       <path d="M 4544 4238 
L 4544 4122 
Q 4319 4081 4203 3978 
Q 4038 3825 3909 3509 
L 2431 -97 
L 2316 -97 
L 728 3556 
Q 606 3838 556 3900 
Q 478 3997 364 4051 
Q 250 4106 56 4122 
L 56 4238 
L 1788 4238 
L 1788 4122 
Q 1494 4094 1406 4022 
Q 1319 3950 1319 3838 
Q 1319 3681 1463 3350 
L 2541 866 
L 3541 3319 
Q 3688 3681 3688 3822 
Q 3688 3913 3597 3995 
Q 3506 4078 3291 4113 
Q 3275 4116 3238 4122 
L 3238 4238 
L 4544 4238 
z
" id="TimesNewRomanPSMT-56" transform="scale(0.015625)"/>
       <path d="M 1600 2947 
Q 2250 2947 2644 2453 
Q 2978 2031 2978 1484 
Q 2978 1100 2793 706 
Q 2609 313 2286 112 
Q 1963 -88 1566 -88 
Q 919 -88 538 428 
Q 216 863 216 1403 
Q 216 1797 411 2186 
Q 606 2575 925 2761 
Q 1244 2947 1600 2947 
z
M 1503 2744 
Q 1338 2744 1170 2645 
Q 1003 2547 900 2300 
Q 797 2053 797 1666 
Q 797 1041 1045 587 
Q 1294 134 1700 134 
Q 2003 134 2200 384 
Q 2397 634 2397 1244 
Q 2397 2006 2069 2444 
Q 1847 2744 1503 2744 
z
" id="TimesNewRomanPSMT-6f" transform="scale(0.015625)"/>
       <path d="M 1184 4444 
L 1184 647 
Q 1184 378 1223 290 
Q 1263 203 1344 158 
Q 1425 113 1647 113 
L 1647 0 
L 244 0 
L 244 113 
Q 441 113 512 153 
Q 584 194 625 287 
Q 666 381 666 647 
L 666 3247 
Q 666 3731 644 3842 
Q 622 3953 573 3993 
Q 525 4034 450 4034 
Q 369 4034 244 3984 
L 191 4094 
L 1044 4444 
L 1184 4444 
z
" id="TimesNewRomanPSMT-6c" transform="scale(0.015625)"/>
       <path d="M 1822 413 
Q 1381 72 1269 19 
Q 1100 -59 909 -59 
Q 613 -59 420 144 
Q 228 347 228 678 
Q 228 888 322 1041 
Q 450 1253 767 1440 
Q 1084 1628 1822 1897 
L 1822 2009 
Q 1822 2438 1686 2597 
Q 1550 2756 1291 2756 
Q 1094 2756 978 2650 
Q 859 2544 859 2406 
L 866 2225 
Q 866 2081 792 2003 
Q 719 1925 600 1925 
Q 484 1925 411 2006 
Q 338 2088 338 2228 
Q 338 2497 613 2722 
Q 888 2947 1384 2947 
Q 1766 2947 2009 2819 
Q 2194 2722 2281 2516 
Q 2338 2381 2338 1966 
L 2338 994 
Q 2338 584 2353 492 
Q 2369 400 2405 369 
Q 2441 338 2488 338 
Q 2538 338 2575 359 
Q 2641 400 2828 588 
L 2828 413 
Q 2478 -56 2159 -56 
Q 2006 -56 1915 50 
Q 1825 156 1822 413 
z
M 1822 616 
L 1822 1706 
Q 1350 1519 1213 1441 
Q 966 1303 859 1153 
Q 753 1003 753 825 
Q 753 600 887 451 
Q 1022 303 1197 303 
Q 1434 303 1822 616 
z
" id="TimesNewRomanPSMT-61" transform="scale(0.015625)"/>
       <path d="M 1031 3803 
L 1031 2863 
L 1700 2863 
L 1700 2644 
L 1031 2644 
L 1031 788 
Q 1031 509 1111 412 
Q 1191 316 1316 316 
Q 1419 316 1516 380 
Q 1613 444 1666 569 
L 1788 569 
Q 1678 263 1478 108 
Q 1278 -47 1066 -47 
Q 922 -47 784 33 
Q 647 113 581 261 
Q 516 409 516 719 
L 516 2644 
L 63 2644 
L 63 2747 
Q 234 2816 414 2980 
Q 594 3144 734 3369 
Q 806 3488 934 3803 
L 1031 3803 
z
" id="TimesNewRomanPSMT-74" transform="scale(0.015625)"/>
       <path d="M 966 1044 
Q 703 1172 562 1401 
Q 422 1631 422 1909 
Q 422 2334 742 2640 
Q 1063 2947 1563 2947 
Q 1972 2947 2272 2747 
L 2878 2747 
Q 3013 2747 3034 2739 
Q 3056 2731 3066 2713 
Q 3084 2684 3084 2613 
Q 3084 2531 3069 2500 
Q 3059 2484 3036 2475 
Q 3013 2466 2878 2466 
L 2506 2466 
Q 2681 2241 2681 1891 
Q 2681 1491 2375 1206 
Q 2069 922 1553 922 
Q 1341 922 1119 984 
Q 981 866 932 777 
Q 884 688 884 625 
Q 884 572 936 522 
Q 988 472 1138 450 
Q 1225 438 1575 428 
Q 2219 413 2409 384 
Q 2700 344 2873 169 
Q 3047 -6 3047 -263 
Q 3047 -616 2716 -925 
Q 2228 -1381 1444 -1381 
Q 841 -1381 425 -1109 
Q 191 -953 191 -784 
Q 191 -709 225 -634 
Q 278 -519 444 -313 
Q 466 -284 763 25 
Q 600 122 533 198 
Q 466 275 466 372 
Q 466 481 555 628 
Q 644 775 966 1044 
z
M 1509 2797 
Q 1278 2797 1122 2612 
Q 966 2428 966 2047 
Q 966 1553 1178 1281 
Q 1341 1075 1591 1075 
Q 1828 1075 1981 1253 
Q 2134 1431 2134 1813 
Q 2134 2309 1919 2591 
Q 1759 2797 1509 2797 
z
M 934 0 
Q 788 -159 713 -296 
Q 638 -434 638 -550 
Q 638 -700 819 -813 
Q 1131 -1006 1722 -1006 
Q 2284 -1006 2551 -807 
Q 2819 -609 2819 -384 
Q 2819 -222 2659 -153 
Q 2497 -84 2016 -72 
Q 1313 -53 934 0 
z
" id="TimesNewRomanPSMT-67" transform="scale(0.015625)"/>
      </defs>
      <use xlink:href="#TimesNewRomanPSMT-56"/>
      <use x="59.341797" xlink:href="#TimesNewRomanPSMT-6f"/>
      <use x="109.341797" xlink:href="#TimesNewRomanPSMT-6c"/>
      <use x="137.125" xlink:href="#TimesNewRomanPSMT-61"/>
      <use x="181.509766" xlink:href="#TimesNewRomanPSMT-74"/>
      <use x="209.292969" xlink:href="#TimesNewRomanPSMT-61"/>
      <use x="253.677734" xlink:href="#TimesNewRomanPSMT-67"/>
      <use x="303.677734" xlink:href="#TimesNewRomanPSMT-65"/>
      <use x="348.0625" xlink:href="#TimesNewRomanPSMT-20"/>
      <use x="373.0625" xlink:href="#TimesNewRomanPSMT-28"/>
      <use x="406.363281" xlink:href="#TimesNewRomanPSMT-56"/>
      <use x="478.580078" xlink:href="#TimesNewRomanPSMT-29"/>
     </g>
    </g>
   </g>
   <g id="LineCollection_1">
    <path clip-path="url(#pc3ee56e342)" d="M 78.555057 158.314839 
L 382.918693 158.314839 
" style="fill:none;stroke:#1f77b4;stroke-width:1.5;"/>
   </g>
   <g id="line2d_25">
    <path clip-path="url(#pc3ee56e342)" d="M 78.555057 158.343404 
L 78.737675 158.277888 
L 78.768111 158.343404 
L 78.85942 158.277888 
L 79.011602 158.310646 
L 90.24262 158.408919 
L 90.364366 158.408919 
L 108.839239 158.507192 
L 108.900111 158.441677 
L 108.930548 158.507192 
L 108.960984 158.441677 
L 109.052293 158.507192 
L 111.061093 158.605466 
L 111.121966 158.670981 
L 111.182839 158.605466 
L 112.491602 158.703739 
L 112.613348 158.703739 
L 113.648184 158.802012 
L 113.76993 158.83477 
L 113.800366 158.802012 
L 113.861239 158.867528 
L 114.987384 158.965801 
L 115.139566 158.998558 
L 115.596111 159.096832 
L 115.717857 159.096832 
L 116.052657 159.195105 
L 116.204839 159.227863 
L 116.904875 159.293378 
L 116.996184 159.358894 
L 117.02662 159.326136 
L 117.209239 159.391651 
L 117.36142 159.457167 
L 117.483166 159.457167 
L 118.213639 159.55544 
L 118.426693 159.653713 
L 118.518002 159.620956 
L 118.548439 159.653713 
L 119.157166 159.751987 
L 119.278911 159.751987 
L 119.826766 159.85026 
L 119.978948 159.883018 
L 120.892039 159.981291 
L 121.074657 160.079564 
L 121.165966 160.014049 
L 121.196402 160.079564 
L 121.318148 160.079564 
L 121.683384 160.177837 
L 121.866002 160.308868 
L 121.896439 160.276111 
L 122.170366 160.374384 
L 122.47473 160.57093 
L 122.626911 160.636446 
L 122.779093 160.767477 
L 122.80953 160.734719 
L 122.870402 160.800235 
L 123.083457 160.996781 
L 123.113893 160.964023 
L 123.14433 161.062297 
L 123.296511 161.16057 
L 123.540002 161.422632 
L 123.570439 161.389874 
L 123.600875 161.45539 
L 124.757457 162.798457 
L 124.970511 163.126035 
L 127.040184 167.84315 
L 128.927239 174.296427 
L 130.144693 179.079058 
L 130.631675 181.011765 
L 131.057784 182.715167 
L 131.483893 184.451328 
L 132.214366 187.137464 
L 133.218766 190.020146 
L 133.888366 191.232182 
L 133.949239 191.330456 
L 134.10142 191.625275 
L 134.557966 192.345946 
L 135.653675 193.459709 
L 135.684111 193.426952 
L 136.171093 193.328678 
L 136.840693 192.509735 
L 137.145057 191.887337 
L 137.692911 190.445996 
L 138.940802 186.056458 
L 139.640839 182.584136 
L 141.162657 172.036142 
L 141.984439 165.025984 
L 143.323639 152.57804 
L 144.328039 141.997288 
L 145.81942 124.766712 
L 147.15862 108.879204 
L 150.384875 71.993977 
L 152.637166 53.518608 
L 154.219857 45.55848 
L 154.767711 44.117134 
L 154.919893 43.822314 
L 155.19382 43.494742 
L 155.406875 43.363708 
L 155.52862 43.363708 
L 155.893857 43.461979 
L 156.076475 43.593013 
L 156.472148 44.117134 
L 157.750475 48.604948 
L 158.054839 50.373869 
L 158.846184 56.171985 
L 161.341966 84.147107 
L 162.589857 103.146601 
L 164.598657 139.638729 
L 166.881384 185.990943 
L 170.59462 259.728631 
L 172.26862 286.655505 
L 173.120839 297.891412 
L 174.003493 307.096334 
L 175.28182 317.152963 
L 175.768802 320.035645 
L 176.225348 321.935597 
L 176.529711 322.852811 
L 177.077566 324.261392 
L 177.38193 324.687255 
L 177.868911 324.588966 
L 178.081966 324.392425 
L 178.112402 324.425188 
L 178.142839 324.359662 
L 178.447202 323.901056 
L 178.782002 322.918326 
L 180.029893 317.152963 
L 180.547311 313.615126 
L 181.186475 308.766985 
L 182.708293 292.944992 
L 183.590948 281.184961 
L 184.869275 261.825132 
L 189.00862 188.64432 
L 193.087093 116.053151 
L 194.03062 102.524201 
L 194.730657 93.81064 
L 195.430693 85.52293 
L 197.500366 64.394188 
L 198.47433 57.875388 
L 199.996148 50.275588 
L 200.696184 47.720489 
L 201.183166 46.410176 
L 201.639711 45.26366 
L 201.700584 45.165382 
L 202.187566 44.739539 
L 202.218002 44.772291 
L 202.248439 44.739539 
L 202.431057 44.542987 
L 202.461493 44.575742 
L 202.522366 44.510224 
L 202.613675 44.444719 
L 202.82673 44.215405 
L 203.40502 44.313686 
L 203.587639 44.379201 
L 203.800693 44.477472 
L 203.892002 44.510224 
L 203.922439 44.477472 
L 204.135493 44.575742 
L 204.683348 45.26366 
L 205.018148 45.984323 
L 205.931239 48.21186 
L 207.361748 53.15827 
L 207.909602 55.582346 
L 207.940039 55.615109 
L 208.244402 57.089207 
L 208.731384 59.644306 
L 211.44022 74.778389 
L 211.835893 77.005913 
L 212.322875 79.561017 
L 213.601202 87.095299 
L 213.905566 88.86422 
L 217.192693 109.403328 
L 217.405748 110.451573 
L 217.80142 112.646348 
L 218.044911 114.120446 
L 218.89713 118.935833 
L 219.079748 119.820292 
L 220.023275 125.192563 
L 223.766948 145.895459 
L 224.071311 147.598862 
L 224.558293 150.153967 
L 225.714875 156.902063 
L 226.293166 160.931266 
L 229.123748 183.075503 
L 231.132548 201.288808 
L 234.937093 241.056714 
L 237.128511 261.202729 
L 237.828548 265.657791 
L 238.772075 271.062817 
L 239.867784 275.354082 
L 240.354766 276.140262 
L 240.446075 276.238541 
L 240.963493 276.664384 
L 241.085239 276.598879 
L 241.115675 276.631631 
L 241.176548 276.566116 
L 241.602657 275.976476 
L 242.637493 273.486882 
L 243.154911 271.48866 
L 243.520148 270.080079 
L 243.794075 268.868045 
L 245.041966 261.563067 
L 245.772439 255.240827 
L 247.172511 240.598109 
L 251.646657 181.404857 
L 253.655457 154.805567 
L 255.846875 130.17174 
L 256.668657 122.47367 
L 258.007857 113.170469 
L 258.160039 112.351528 
L 259.40793 106.193069 
L 259.560111 105.603429 
L 260.32102 102.786263 
L 260.899311 101.279407 
L 261.234111 100.525981 
L 261.477602 100.132885 
L 261.690657 99.805308 
L 261.934148 99.543246 
L 262.055893 99.44497 
L 262.390693 99.215669 
L 262.42113 99.248426 
L 262.482002 99.182908 
L 262.66462 99.117398 
L 263.364657 99.215669 
L 263.577711 99.313942 
L 263.76033 99.37946 
L 263.942948 99.510488 
L 264.09513 99.608762 
L 264.490802 99.936339 
L 264.551675 99.903581 
L 264.734293 100.132885 
L 265.00822 100.460463 
L 265.76913 101.37768 
L 266.043057 101.901804 
L 266.10393 102.00008 
L 266.864839 103.375903 
L 267.047457 103.703483 
L 267.504002 104.817243 
L 267.625748 105.079305 
L 268.35622 106.880984 
L 268.660584 107.732686 
L 269.208439 109.174027 
L 269.482366 109.96021 
L 269.573675 110.156754 
L 269.847602 110.910187 
L 270.304148 112.122219 
L 270.821566 113.923897 
L 271.03462 114.644568 
L 271.765093 117.363458 
L 273.439093 124.111557 
L 273.621711 124.733954 
L 274.078257 126.240811 
L 276.39142 133.349242 
L 276.48273 133.578546 
L 277.791493 137.44396 
L 278.06542 138.295661 
L 279.039384 141.08007 
L 279.769857 142.914505 
L 280.256839 144.159299 
L 280.317711 144.257572 
L 281.261239 146.550614 
L 281.778657 147.860924 
L 281.900402 148.122987 
L 284.09182 152.610798 
L 284.18313 152.709071 
L 285.370148 153.855592 
L 286.465857 153.757319 
L 287.470257 152.545282 
L 287.744184 152.021158 
L 288.992075 149.105719 
L 289.266002 148.35229 
L 289.722548 147.107497 
L 290.148657 145.731671 
L 290.513893 144.716181 
L 290.87913 143.602417 
L 291.974839 140.424915 
L 292.066148 140.195612 
L 292.522693 138.950817 
L 292.948802 137.935327 
L 293.009675 137.837054 
L 293.161857 137.542234 
L 294.196693 135.576768 
L 295.079348 134.725067 
L 295.109784 134.757825 
L 295.14022 134.659553 
L 295.80982 134.757825 
L 296.175057 135.019886 
L 296.296802 135.085403 
L 296.540293 135.347465 
L 297.027275 136.002619 
L 297.422948 136.952595 
L 297.544693 137.214656 
L 297.81862 137.935327 
L 298.731711 141.178344 
L 299.066511 142.652442 
L 299.188257 143.176566 
L 299.49262 144.519634 
L 299.91873 146.976464 
L 300.223093 148.745383 
L 300.953566 153.233195 
L 303.358039 172.134416 
L 305.366839 190.54427 
L 305.884257 195.261385 
L 308.53222 217.143558 
L 309.384439 223.367536 
L 310.084475 227.822587 
L 311.514984 234.931021 
L 311.97153 236.470632 
L 313.006366 238.436095 
L 313.736839 239.12401 
L 313.949893 239.025734 
L 313.98033 239.058492 
L 314.010766 239.025734 
L 314.254257 238.763672 
L 314.680366 238.174033 
L 315.136911 237.060272 
L 315.349966 236.339604 
L 317.32833 227.396736 
L 319.032766 215.66946 
L 324.115639 170.987894 
L 324.967857 162.995004 
L 327.189711 144.781696 
L 327.95062 139.147363 
L 329.38113 129.189008 
L 333.459602 107.830954 
L 333.611784 107.241314 
L 336.229311 99.117398 
L 336.32062 98.888088 
L 337.538075 96.529536 
L 337.629384 96.43126 
L 337.99462 95.907139 
L 338.116366 95.808863 
L 338.298984 95.579559 
L 338.451166 95.514043 
L 338.572911 95.383015 
L 338.603348 95.415767 
L 338.633784 95.317497 
L 338.66422 95.350257 
L 338.846839 95.251981 
L 338.99902 95.153705 
L 339.303384 95.055437 
L 339.42513 94.989919 
L 339.455566 95.022677 
L 340.186039 94.924404 
L 340.399093 94.826128 
L 340.520839 94.858885 
L 340.703457 94.793375 
L 341.373057 94.891646 
L 341.555675 94.989919 
L 341.67742 94.957161 
L 341.829602 95.055437 
L 341.920911 95.055437 
L 342.286148 95.317497 
L 342.407893 95.383015 
L 342.620948 95.579559 
L 342.712257 95.677834 
L 344.11233 97.315719 
L 344.842802 98.626026 
L 344.903675 98.724302 
L 346.02982 101.41044 
L 347.03422 105.01379 
L 347.612511 107.536134 
L 347.856002 108.617145 
L 348.221239 110.320545 
L 348.495166 111.565337 
L 349.316948 115.561787 
L 349.925675 118.804802 
L 350.108293 119.722019 
L 354.521566 142.914505 
L 354.765057 144.061025 
L 355.06942 145.60064 
L 355.83033 149.302265 
L 356.286875 151.595307 
L 356.49993 152.610798 
L 357.991311 160.046806 
L 358.873966 164.272556 
L 359.300075 166.303536 
L 360.456657 171.937869 
L 360.76102 173.280937 
L 361.491493 176.654985 
L 361.948039 178.489418 
L 363.53073 184.844423 
L 364.352511 187.858134 
L 365.174293 190.937363 
L 365.356911 191.592518 
L 366.483057 195.588963 
L 367.091784 197.783732 
L 367.335275 198.569918 
L 370.074548 207.054172 
L 370.652839 208.561031 
L 371.048511 209.511006 
L 371.200693 209.805826 
L 373.48342 214.457428 
L 373.666039 214.785001 
L 374.061711 215.37464 
L 374.792184 216.29186 
L 375.005239 216.488409 
L 375.096548 216.586679 
L 375.309602 216.684953 
L 375.49222 216.750471 
L 375.674839 216.881499 
L 375.857457 216.979772 
L 376.100948 217.110801 
L 376.892293 217.04529 
L 377.044475 216.947015 
L 377.531457 216.848739 
L 377.744511 216.652195 
L 377.896693 216.553919 
L 379.205457 215.01431 
L 380.666402 211.607499 
L 381.001202 210.624769 
L 381.214257 209.936854 
L 381.94473 207.250724 
L 382.340402 205.612831 
L 382.918693 203.024972 
L 382.918693 203.024972 
" style="fill:none;stroke:#0000ff;stroke-linecap:square;stroke-width:1.5;"/>
   </g>
   <g id="line2d_26">
    <path clip-path="url(#pc3ee56e342)" d="M 78.555057 158.281033 
L 86.31633 158.379306 
L 86.55982 158.395685 
L 86.712002 158.379306 
L 86.89462 158.395685 
L 87.016366 158.395685 
L 90.060002 158.493958 
L 90.273057 158.510337 
L 90.486111 158.510337 
L 100.012693 158.60861 
L 100.256184 158.624989 
L 100.651857 158.723262 
L 101.351893 159.001703 
L 101.443202 159.034461 
L 101.71713 159.19825 
L 101.869311 159.296523 
L 102.29542 159.640479 
L 103.360693 160.901653 
L 103.695493 161.491292 
L 104.212911 162.523161 
L 106.252148 168.304904 
L 110.208875 182.783828 
L 111.974184 187.255261 
L 112.187239 187.631975 
L 112.76553 188.647465 
L 113.039457 188.909527 
L 113.34382 189.089695 
L 113.861239 189.269862 
L 114.074293 189.269862 
L 114.378657 189.171589 
L 114.713457 188.876769 
L 116.083093 186.485454 
L 117.45273 181.7192 
L 119.37022 171.891877 
L 122.109493 153.482023 
L 123.357384 143.982275 
L 125.122693 130.633494 
L 126.15753 124.147459 
L 127.74022 115.433901 
L 129.444657 107.703067 
L 130.266439 105.377267 
L 130.479493 104.836767 
L 131.483893 102.936815 
L 132.031748 101.855812 
L 132.336111 101.102384 
L 132.975275 100.267061 
L 134.19273 99.08778 
L 134.375348 99.071403 
L 134.740584 98.97313 
L 135.10582 98.661932 
L 135.501493 98.367112 
L 135.958039 98.449006 
L 136.140657 98.49814 
L 136.597202 98.399872 
L 136.932002 98.317973 
L 137.44942 98.694692 
L 137.753784 99.005888 
L 138.027711 99.251574 
L 138.636439 100.414471 
L 139.914766 104.902285 
L 140.55393 107.719449 
L 142.501857 117.661425 
L 143.658439 125.850862 
L 144.693275 133.827375 
L 145.697675 141.525445 
L 147.24993 154.939742 
L 150.445748 185.191523 
L 152.119748 200.325605 
L 153.550257 211.70892 
L 154.372039 217.097572 
L 155.559057 223.468951 
L 156.380839 226.564561 
L 157.324366 228.792085 
L 158.085275 229.84033 
L 158.785311 229.742062 
L 159.759275 229.103281 
L 160.033202 228.661052 
L 160.581057 227.580048 
L 161.22022 225.942161 
L 162.255057 222.240538 
L 163.046402 218.375121 
L 164.416039 209.6288 
L 167.67273 182.439871 
L 168.555384 175.364198 
L 170.716366 159.886162 
L 172.390366 151.467421 
L 173.36433 148.208026 
L 174.673093 145.652921 
L 175.03833 145.259828 
L 175.555748 145.358101 
L 175.799239 145.554648 
L 176.28622 145.898604 
L 177.564548 148.895938 
L 179.664657 158.412064 
L 182.160439 171.023796 
L 184.473602 184.06138 
L 185.538875 188.680223 
L 186.482402 191.382737 
L 187.33462 192.955109 
L 187.66942 193.299065 
L 187.821602 193.397339 
L 188.67382 193.774053 
L 188.826002 193.757674 
L 189.495602 193.299065 
L 190.34782 191.759451 
L 191.01742 189.237105 
L 191.626148 186.53459 
L 192.721857 181.227835 
L 193.300148 178.263259 
L 194.182802 172.907367 
L 197.287311 152.138955 
L 198.47433 143.081438 
L 200.026584 129.66714 
L 202.73542 105.885015 
L 204.774657 90.325085 
L 205.83993 84.674371 
L 207.544366 79.498649 
L 207.879166 78.777981 
L 208.396584 77.664218 
L 208.914002 77.254746 
L 209.340111 77.15647 
L 209.583602 77.025436 
L 210.131457 77.123712 
L 210.344511 77.33664 
L 210.709748 77.877138 
L 211.074984 78.401267 
L 212.383748 82.217542 
L 213.966439 88.605306 
L 215.001275 93.535344 
L 216.340475 101.348064 
L 219.718911 124.212975 
L 221.727711 136.464372 
L 224.132184 150.042459 
L 226.962766 164.685173 
L 227.480184 167.060109 
L 230.61513 180.081314 
L 232.563057 187.8449 
L 235.180584 199.588553 
L 235.850184 202.585887 
L 236.763275 206.041827 
L 238.437275 211.086522 
L 239.137311 212.331319 
L 239.837348 213.232155 
L 240.202584 213.625251 
L 240.476511 213.887312 
L 240.780875 214.182132 
L 241.085239 214.46057 
L 241.32873 214.673496 
L 241.511348 214.771772 
L 242.180948 215.017452 
L 242.637493 215.115725 
L 242.91142 215.148483 
L 243.33753 215.230378 
L 243.611457 215.377787 
L 244.92022 216.196731 
L 245.498511 216.704476 
L 245.58982 216.737234 
L 245.894184 216.917404 
L 249.759602 219.112171 
L 250.429202 219.685434 
L 250.672693 219.931114 
L 251.068366 220.520754 
L 253.351093 224.009457 
L 253.442402 224.107727 
L 253.898948 224.746506 
L 254.233748 225.33614 
L 254.751166 226.187847 
L 255.481639 227.170577 
L 256.242548 227.842108 
L 257.490439 228.415371 
L 257.825239 228.349856 
L 257.946984 228.333479 
L 258.190475 228.218822 
L 258.677457 227.842108 
L 259.07313 227.26885 
L 259.468802 226.433527 
L 260.351457 223.747389 
L 261.447166 218.571665 
L 262.32982 212.740791 
L 263.547275 202.012624 
L 265.43433 180.539923 
L 266.225675 169.435045 
L 268.234475 137.51262 
L 271.186802 88.572545 
L 272.739057 65.29816 
L 274.108693 47.690878 
L 275.295711 36.094633 
L 275.904439 31.475788 
L 276.847966 26.07076 
L 277.48713 23.794099 
L 278.217602 22.483786 
L 278.40022 22.369134 
L 278.643711 22.352753 
L 278.978511 22.647572 
L 279.343748 23.319111 
L 279.617675 23.957885 
L 279.952475 24.940615 
L 280.378584 26.644028 
L 281.687348 34.292952 
L 283.239602 47.674497 
L 284.791857 64.675768 
L 286.131057 81.021882 
L 292.88793 166.863563 
L 294.22713 180.752847 
L 296.327239 198.966156 
L 298.275166 213.821794 
L 301.136184 230.151532 
L 303.053675 236.981525 
L 303.540657 237.784084 
L 304.027639 238.160804 
L 304.788548 237.636674 
L 305.062475 237.292721 
L 305.488584 236.686705 
L 305.914693 235.802246 
L 307.101711 233.001456 
L 308.19742 229.103281 
L 310.419275 219.063034 
L 311.697602 212.364072 
L 314.041202 196.525703 
L 318.210984 165.929967 
L 320.219784 154.694059 
L 321.650293 148.306298 
L 323.141675 143.851245 
L 323.567784 142.966786 
L 324.328693 141.574582 
L 324.846111 140.87029 
L 326.094002 139.052235 
L 326.428802 138.757415 
L 326.885348 138.413459 
L 327.007093 138.364322 
L 327.28102 138.298806 
L 327.433202 138.233291 
L 327.70713 138.135018 
L 329.259384 137.414348 
L 329.563748 137.316073 
L 329.807239 137.201421 
L 330.96382 136.464372 
L 331.450802 136.087659 
L 331.572548 135.989386 
L 333.368293 133.909268 
L 334.190075 132.402413 
L 334.950984 130.97745 
L 336.594548 127.19393 
L 338.055493 122.820771 
L 338.359857 121.903554 
L 340.33822 116.891618 
L 340.520839 116.564041 
L 341.129566 115.515793 
L 341.464366 115.008048 
L 341.951348 114.402032 
L 342.194839 114.156346 
L 343.047057 113.386539 
L 343.229675 113.288269 
L 343.412293 113.239129 
L 343.68622 113.206369 
L 344.538439 113.779632 
L 344.873239 114.28738 
L 345.755893 116.433012 
L 348.160366 124.556931 
L 349.438693 130.502463 
L 353.030184 152.417396 
L 357.07822 179.983042 
L 359.17833 191.759451 
L 360.243602 195.886927 
L 361.126257 198.392895 
L 361.795857 200.096301 
L 362.43502 201.504884 
L 363.043748 202.553129 
L 363.652475 203.339315 
L 364.86993 203.879818 
L 365.082984 203.879818 
L 365.478657 203.781545 
L 366.270002 203.241044 
L 367.091784 201.734185 
L 368.613602 197.344647 
L 369.648439 193.020624 
L 370.348475 189.106074 
L 372.083348 178.181365 
L 374.366075 162.719708 
L 375.49222 155.070773 
L 379.327202 129.011985 
L 381.305566 117.956245 
L 382.918693 111.060737 
L 382.918693 111.060737 
" style="fill:none;stroke:#ff0000;stroke-linecap:square;stroke-width:1.5;"/>
   </g>
   <g id="line2d_27">
    <path clip-path="url(#pc3ee56e342)" d="M 126.614075 166.663872 
" style="fill:none;stroke:#ffffff;stroke-linecap:square;stroke-width:1.5;"/>
    <defs>
     <path d="M 0 -5 
L -1.12257 -1.545085 
L -4.755283 -1.545085 
L -1.816356 0.59017 
L -2.938926 4.045085 
L -0 1.90983 
L 2.938926 4.045085 
L 1.816356 0.59017 
L 4.755283 -1.545085 
L 1.12257 -1.545085 
z
" id="m9060d73434" style="stroke:#ffffff;stroke-linejoin:bevel;"/>
    </defs>
    <g clip-path="url(#pc3ee56e342)">
     <use style="fill:#0000ff;stroke:#ffffff;stroke-linejoin:bevel;" x="126.614075" xlink:href="#m9060d73434" y="166.663872"/>
    </g>
   </g>
   <g id="line2d_28">
    <path clip-path="url(#pc3ee56e342)" d="M 105.278184 165.209296 
" style="fill:none;stroke:#ffffff;stroke-linecap:square;stroke-width:1.5;"/>
    <defs>
     <path d="M 0 -5 
L -1.12257 -1.545085 
L -4.755283 -1.545085 
L -1.816356 0.59017 
L -2.938926 4.045085 
L -0 1.90983 
L 2.938926 4.045085 
L 1.816356 0.59017 
L 4.755283 -1.545085 
L 1.12257 -1.545085 
z
" id="md3f6878d74" style="stroke:#ffffff;stroke-linejoin:bevel;"/>
    </defs>
    <g clip-path="url(#pc3ee56e342)">
     <use style="fill:#ff0000;stroke:#ffffff;stroke-linejoin:bevel;" x="105.278184" xlink:href="#md3f6878d74" y="165.209296"/>
    </g>
   </g>
   <g id="patch_3">
    <path d="M 63.336875 339.84 
L 63.336875 7.2 
" style="fill:none;stroke:#000000;stroke-linecap:square;stroke-linejoin:miter;stroke-width:0.8;"/>
   </g>
   <g id="patch_4">
    <path d="M 398.136875 339.84 
L 398.136875 7.2 
" style="fill:none;stroke:#000000;stroke-linecap:square;stroke-linejoin:miter;stroke-width:0.8;"/>
   </g>
   <g id="patch_5">
    <path d="M 63.336875 339.84 
L 398.136875 339.84 
" style="fill:none;stroke:#000000;stroke-linecap:square;stroke-linejoin:miter;stroke-width:0.8;"/>
   </g>
   <g id="patch_6">
    <path d="M 63.336875 7.2 
L 398.136875 7.2 
" style="fill:none;stroke:#000000;stroke-linecap:square;stroke-linejoin:miter;stroke-width:0.8;"/>
   </g>
   <g id="text_15">
    <g id="patch_7">
     <path d="M 75.036875 331.242688 
L 166.79375 331.242688 
L 166.79375 293.760312 
L 75.036875 293.760312 
z
" style="fill:#ffffff;stroke:#000000;stroke-linejoin:miter;stroke-width:0.75;"/>
    </g>
    <!-- Auto_00076 -->
    <g transform="translate(80.076875 308.521562)scale(0.14 -0.14)">
     <defs>
      <path d="M 2928 1419 
L 1288 1419 
L 1000 750 
Q 894 503 894 381 
Q 894 284 986 211 
Q 1078 138 1384 116 
L 1384 0 
L 50 0 
L 50 116 
Q 316 163 394 238 
Q 553 388 747 847 
L 2238 4334 
L 2347 4334 
L 3822 809 
Q 4000 384 4145 257 
Q 4291 131 4550 116 
L 4550 0 
L 2878 0 
L 2878 116 
Q 3131 128 3220 200 
Q 3309 272 3309 375 
Q 3309 513 3184 809 
L 2928 1419 
z
M 2841 1650 
L 2122 3363 
L 1384 1650 
L 2841 1650 
z
" id="TimesNewRomanPSMT-41" transform="scale(0.015625)"/>
      <path d="M 2709 2863 
L 2709 1128 
Q 2709 631 2732 520 
Q 2756 409 2807 365 
Q 2859 322 2928 322 
Q 3025 322 3147 375 
L 3191 266 
L 2334 -88 
L 2194 -88 
L 2194 519 
Q 1825 119 1631 15 
Q 1438 -88 1222 -88 
Q 981 -88 804 51 
Q 628 191 559 409 
Q 491 628 491 1028 
L 491 2306 
Q 491 2509 447 2587 
Q 403 2666 317 2708 
Q 231 2750 6 2747 
L 6 2863 
L 1009 2863 
L 1009 947 
Q 1009 547 1148 422 
Q 1288 297 1484 297 
Q 1619 297 1789 381 
Q 1959 466 2194 703 
L 2194 2325 
Q 2194 2569 2105 2655 
Q 2016 2741 1734 2747 
L 1734 2863 
L 2709 2863 
z
" id="TimesNewRomanPSMT-75" transform="scale(0.015625)"/>
      <path d="M 3256 -1381 
L -53 -1381 
L -53 -1119 
L 3256 -1119 
L 3256 -1381 
z
" id="TimesNewRomanPSMT-5f" transform="scale(0.015625)"/>
      <path d="M 644 4238 
L 2916 4238 
L 2916 4119 
L 1503 -88 
L 1153 -88 
L 2419 3728 
L 1253 3728 
Q 900 3728 750 3644 
Q 488 3500 328 3200 
L 238 3234 
L 644 4238 
z
" id="TimesNewRomanPSMT-37" transform="scale(0.015625)"/>
     </defs>
     <use xlink:href="#TimesNewRomanPSMT-41"/>
     <use x="72.216797" xlink:href="#TimesNewRomanPSMT-75"/>
     <use x="122.216797" xlink:href="#TimesNewRomanPSMT-74"/>
     <use x="150" xlink:href="#TimesNewRomanPSMT-6f"/>
     <use x="200" xlink:href="#TimesNewRomanPSMT-5f"/>
     <use x="250" xlink:href="#TimesNewRomanPSMT-30"/>
     <use x="300" xlink:href="#TimesNewRomanPSMT-30"/>
     <use x="350" xlink:href="#TimesNewRomanPSMT-30"/>
     <use x="400" xlink:href="#TimesNewRomanPSMT-37"/>
     <use x="450" xlink:href="#TimesNewRomanPSMT-36"/>
    </g>
    <!-- Vs: 285.16m/s -->
    <g transform="translate(80.076875 323.208)scale(0.14 -0.14)">
     <defs>
      <path d="M 903 2950 
Q 1047 2950 1148 2848 
Q 1250 2747 1250 2603 
Q 1250 2459 1148 2357 
Q 1047 2256 903 2256 
Q 759 2256 657 2357 
Q 556 2459 556 2603 
Q 556 2747 657 2848 
Q 759 2950 903 2950 
z
M 897 609 
Q 1044 609 1145 506 
Q 1247 403 1247 259 
Q 1247 116 1144 14 
Q 1041 -88 897 -88 
Q 753 -88 651 14 
Q 550 116 550 259 
Q 550 403 651 506 
Q 753 609 897 609 
z
" id="TimesNewRomanPSMT-3a" transform="scale(0.015625)"/>
      <path d="M 1228 2134 
Q 725 2547 579 2797 
Q 434 3047 434 3316 
Q 434 3728 753 4026 
Q 1072 4325 1600 4325 
Q 2113 4325 2425 4047 
Q 2738 3769 2738 3413 
Q 2738 3175 2569 2928 
Q 2400 2681 1866 2347 
Q 2416 1922 2594 1678 
Q 2831 1359 2831 1006 
Q 2831 559 2490 242 
Q 2150 -75 1597 -75 
Q 994 -75 656 303 
Q 388 606 388 966 
Q 388 1247 577 1523 
Q 766 1800 1228 2134 
z
M 1719 2469 
Q 2094 2806 2194 3001 
Q 2294 3197 2294 3444 
Q 2294 3772 2109 3958 
Q 1925 4144 1606 4144 
Q 1288 4144 1088 3959 
Q 888 3775 888 3528 
Q 888 3366 970 3203 
Q 1053 3041 1206 2894 
L 1719 2469 
z
M 1375 2016 
Q 1116 1797 991 1539 
Q 866 1281 866 981 
Q 866 578 1086 336 
Q 1306 94 1647 94 
Q 1984 94 2187 284 
Q 2391 475 2391 747 
Q 2391 972 2272 1150 
Q 2050 1481 1375 2016 
z
" id="TimesNewRomanPSMT-38" transform="scale(0.015625)"/>
      <path d="M 1794 4444 
L 259 -88 
L 9 -88 
L 1544 4444 
L 1794 4444 
z
" id="TimesNewRomanPSMT-2f" transform="scale(0.015625)"/>
     </defs>
     <use xlink:href="#TimesNewRomanPSMT-56"/>
     <use x="72.216797" xlink:href="#TimesNewRomanPSMT-73"/>
     <use x="111.132812" xlink:href="#TimesNewRomanPSMT-3a"/>
     <use x="138.916016" xlink:href="#TimesNewRomanPSMT-20"/>
     <use x="163.916016" xlink:href="#TimesNewRomanPSMT-32"/>
     <use x="213.916016" xlink:href="#TimesNewRomanPSMT-38"/>
     <use x="263.916016" xlink:href="#TimesNewRomanPSMT-35"/>
     <use x="313.916016" xlink:href="#TimesNewRomanPSMT-2e"/>
     <use x="338.916016" xlink:href="#TimesNewRomanPSMT-31"/>
     <use x="388.916016" xlink:href="#TimesNewRomanPSMT-36"/>
     <use x="438.916016" xlink:href="#TimesNewRomanPSMT-6d"/>
     <use x="516.699219" xlink:href="#TimesNewRomanPSMT-2f"/>
     <use x="544.482422" xlink:href="#TimesNewRomanPSMT-73"/>
    </g>
   </g>
  </g>
 </g>
 <defs>
  <clipPath id="pc3ee56e342">
   <rect height="332.64" width="334.8" x="63.336875" y="7.2"/>
  </clipPath>
 </defs>
</svg>
