<?xml version="1.0" encoding="utf-8" standalone="no"?>
<!DOCTYPE svg PUBLIC "-//W3C//DTD SVG 1.1//EN"
  "http://www.w3.org/Graphics/SVG/1.1/DTD/svg11.dtd">
<svg height="383.471875pt" version="1.1" viewBox="0 0 421.086875 383.471875" width="421.086875pt" xmlns="http://www.w3.org/2000/svg" xmlns:xlink="http://www.w3.org/1999/xlink">
 <metadata>
  <rdf:RDF xmlns:cc="http://creativecommons.org/ns#" xmlns:dc="http://purl.org/dc/elements/1.1/" xmlns:rdf="http://www.w3.org/1999/02/22-rdf-syntax-ns#">
   <cc:Work>
    <dc:type rdf:resource="http://purl.org/dc/dcmitype/StillImage"/>
    <dc:date>2021-06-11T14:39:37.505631</dc:date>
    <dc:format>image/svg+xml</dc:format>
    <dc:creator>
     <cc:Agent>
      <dc:title>Matplotlib v3.4.2, https://matplotlib.org/</dc:title>
     </cc:Agent>
    </dc:creator>
   </cc:Work>
  </rdf:RDF>
 </metadata>
 <defs>
  <style type="text/css">*{stroke-linecap:butt;stroke-linejoin:round;}</style>
 </defs>
 <g id="figure_1">
  <g id="patch_1">
   <path d="M 0 383.471875 
L 421.086875 383.471875 
L 421.086875 0 
L 0 0 
z
" style="fill:#ffffff;"/>
  </g>
  <g id="axes_1">
   <g id="patch_2">
    <path d="M 63.336875 339.84 
L 398.136875 339.84 
L 398.136875 7.2 
L 63.336875 7.2 
z
" style="fill:#ffffff;"/>
   </g>
   <g id="matplotlib.axis_1">
    <g id="xtick_1">
     <g id="line2d_1">
      <path clip-path="url(#p0677ecf3b1)" d="M 93.773239 339.84 
L 93.773239 7.2 
" style="fill:none;stroke:#000000;stroke-dasharray:0.5,0.825;stroke-dashoffset:0;stroke-width:0.5;"/>
     </g>
     <g id="line2d_2">
      <defs>
       <path d="M 0 0 
L 0 3.5 
" id="m7fbc6d87ac" style="stroke:#000000;stroke-width:0.8;"/>
      </defs>
      <g>
       <use style="stroke:#000000;stroke-width:0.8;" x="93.773239" xlink:href="#m7fbc6d87ac" y="339.84"/>
      </g>
     </g>
     <g id="text_1">
      <!-- 0.000 -->
      <g transform="translate(78.023239 356.56125)scale(0.14 -0.14)">
       <defs>
        <path d="M 231 2094 
Q 231 2819 450 3342 
Q 669 3866 1031 4122 
Q 1313 4325 1613 4325 
Q 2100 4325 2488 3828 
Q 2972 3213 2972 2159 
Q 2972 1422 2759 906 
Q 2547 391 2217 158 
Q 1888 -75 1581 -75 
Q 975 -75 572 641 
Q 231 1244 231 2094 
z
M 844 2016 
Q 844 1141 1059 588 
Q 1238 122 1591 122 
Q 1759 122 1940 273 
Q 2122 425 2216 781 
Q 2359 1319 2359 2297 
Q 2359 3022 2209 3506 
Q 2097 3866 1919 4016 
Q 1791 4119 1609 4119 
Q 1397 4119 1231 3928 
Q 1006 3669 925 3112 
Q 844 2556 844 2016 
z
" id="TimesNewRomanPSMT-30" transform="scale(0.015625)"/>
        <path d="M 800 606 
Q 947 606 1047 504 
Q 1147 403 1147 259 
Q 1147 116 1045 14 
Q 944 -88 800 -88 
Q 656 -88 554 14 
Q 453 116 453 259 
Q 453 406 554 506 
Q 656 606 800 606 
z
" id="TimesNewRomanPSMT-2e" transform="scale(0.015625)"/>
       </defs>
       <use xlink:href="#TimesNewRomanPSMT-30"/>
       <use x="50" xlink:href="#TimesNewRomanPSMT-2e"/>
       <use x="75" xlink:href="#TimesNewRomanPSMT-30"/>
       <use x="125" xlink:href="#TimesNewRomanPSMT-30"/>
       <use x="175" xlink:href="#TimesNewRomanPSMT-30"/>
      </g>
     </g>
    </g>
    <g id="xtick_2">
     <g id="line2d_3">
      <path clip-path="url(#p0677ecf3b1)" d="M 154.645966 339.84 
L 154.645966 7.2 
" style="fill:none;stroke:#000000;stroke-dasharray:0.5,0.825;stroke-dashoffset:0;stroke-width:0.5;"/>
     </g>
     <g id="line2d_4">
      <g>
       <use style="stroke:#000000;stroke-width:0.8;" x="154.645966" xlink:href="#m7fbc6d87ac" y="339.84"/>
      </g>
     </g>
     <g id="text_2">
      <!-- 0.001 -->
      <g transform="translate(138.895966 356.56125)scale(0.14 -0.14)">
       <defs>
        <path d="M 750 3822 
L 1781 4325 
L 1884 4325 
L 1884 747 
Q 1884 391 1914 303 
Q 1944 216 2037 169 
Q 2131 122 2419 116 
L 2419 0 
L 825 0 
L 825 116 
Q 1125 122 1212 167 
Q 1300 213 1334 289 
Q 1369 366 1369 747 
L 1369 3034 
Q 1369 3497 1338 3628 
Q 1316 3728 1258 3775 
Q 1200 3822 1119 3822 
Q 1003 3822 797 3725 
L 750 3822 
z
" id="TimesNewRomanPSMT-31" transform="scale(0.015625)"/>
       </defs>
       <use xlink:href="#TimesNewRomanPSMT-30"/>
       <use x="50" xlink:href="#TimesNewRomanPSMT-2e"/>
       <use x="75" xlink:href="#TimesNewRomanPSMT-30"/>
       <use x="125" xlink:href="#TimesNewRomanPSMT-30"/>
       <use x="175" xlink:href="#TimesNewRomanPSMT-31"/>
      </g>
     </g>
    </g>
    <g id="xtick_3">
     <g id="line2d_5">
      <path clip-path="url(#p0677ecf3b1)" d="M 215.518693 339.84 
L 215.518693 7.2 
" style="fill:none;stroke:#000000;stroke-dasharray:0.5,0.825;stroke-dashoffset:0;stroke-width:0.5;"/>
     </g>
     <g id="line2d_6">
      <g>
       <use style="stroke:#000000;stroke-width:0.8;" x="215.518693" xlink:href="#m7fbc6d87ac" y="339.84"/>
      </g>
     </g>
     <g id="text_3">
      <!-- 0.002 -->
      <g transform="translate(199.768693 356.56125)scale(0.14 -0.14)">
       <defs>
        <path d="M 2934 816 
L 2638 0 
L 138 0 
L 138 116 
Q 1241 1122 1691 1759 
Q 2141 2397 2141 2925 
Q 2141 3328 1894 3587 
Q 1647 3847 1303 3847 
Q 991 3847 742 3664 
Q 494 3481 375 3128 
L 259 3128 
Q 338 3706 661 4015 
Q 984 4325 1469 4325 
Q 1984 4325 2329 3994 
Q 2675 3663 2675 3213 
Q 2675 2891 2525 2569 
Q 2294 2063 1775 1497 
Q 997 647 803 472 
L 1909 472 
Q 2247 472 2383 497 
Q 2519 522 2628 598 
Q 2738 675 2819 816 
L 2934 816 
z
" id="TimesNewRomanPSMT-32" transform="scale(0.015625)"/>
       </defs>
       <use xlink:href="#TimesNewRomanPSMT-30"/>
       <use x="50" xlink:href="#TimesNewRomanPSMT-2e"/>
       <use x="75" xlink:href="#TimesNewRomanPSMT-30"/>
       <use x="125" xlink:href="#TimesNewRomanPSMT-30"/>
       <use x="175" xlink:href="#TimesNewRomanPSMT-32"/>
      </g>
     </g>
    </g>
    <g id="xtick_4">
     <g id="line2d_7">
      <path clip-path="url(#p0677ecf3b1)" d="M 276.39142 339.84 
L 276.39142 7.2 
" style="fill:none;stroke:#000000;stroke-dasharray:0.5,0.825;stroke-dashoffset:0;stroke-width:0.5;"/>
     </g>
     <g id="line2d_8">
      <g>
       <use style="stroke:#000000;stroke-width:0.8;" x="276.39142" xlink:href="#m7fbc6d87ac" y="339.84"/>
      </g>
     </g>
     <g id="text_4">
      <!-- 0.003 -->
      <g transform="translate(260.64142 356.56125)scale(0.14 -0.14)">
       <defs>
        <path d="M 325 3431 
Q 506 3859 782 4092 
Q 1059 4325 1472 4325 
Q 1981 4325 2253 3994 
Q 2459 3747 2459 3466 
Q 2459 3003 1878 2509 
Q 2269 2356 2469 2072 
Q 2669 1788 2669 1403 
Q 2669 853 2319 450 
Q 1863 -75 997 -75 
Q 569 -75 414 31 
Q 259 138 259 259 
Q 259 350 332 419 
Q 406 488 509 488 
Q 588 488 669 463 
Q 722 447 909 348 
Q 1097 250 1169 231 
Q 1284 197 1416 197 
Q 1734 197 1970 444 
Q 2206 691 2206 1028 
Q 2206 1275 2097 1509 
Q 2016 1684 1919 1775 
Q 1784 1900 1550 2001 
Q 1316 2103 1072 2103 
L 972 2103 
L 972 2197 
Q 1219 2228 1467 2375 
Q 1716 2522 1828 2728 
Q 1941 2934 1941 3181 
Q 1941 3503 1739 3701 
Q 1538 3900 1238 3900 
Q 753 3900 428 3381 
L 325 3431 
z
" id="TimesNewRomanPSMT-33" transform="scale(0.015625)"/>
       </defs>
       <use xlink:href="#TimesNewRomanPSMT-30"/>
       <use x="50" xlink:href="#TimesNewRomanPSMT-2e"/>
       <use x="75" xlink:href="#TimesNewRomanPSMT-30"/>
       <use x="125" xlink:href="#TimesNewRomanPSMT-30"/>
       <use x="175" xlink:href="#TimesNewRomanPSMT-33"/>
      </g>
     </g>
    </g>
    <g id="xtick_5">
     <g id="line2d_9">
      <path clip-path="url(#p0677ecf3b1)" d="M 337.264148 339.84 
L 337.264148 7.2 
" style="fill:none;stroke:#000000;stroke-dasharray:0.5,0.825;stroke-dashoffset:0;stroke-width:0.5;"/>
     </g>
     <g id="line2d_10">
      <g>
       <use style="stroke:#000000;stroke-width:0.8;" x="337.264148" xlink:href="#m7fbc6d87ac" y="339.84"/>
      </g>
     </g>
     <g id="text_5">
      <!-- 0.004 -->
      <g transform="translate(321.514148 356.56125)scale(0.14 -0.14)">
       <defs>
        <path d="M 2978 1563 
L 2978 1119 
L 2409 1119 
L 2409 0 
L 1894 0 
L 1894 1119 
L 100 1119 
L 100 1519 
L 2066 4325 
L 2409 4325 
L 2409 1563 
L 2978 1563 
z
M 1894 1563 
L 1894 3666 
L 406 1563 
L 1894 1563 
z
" id="TimesNewRomanPSMT-34" transform="scale(0.015625)"/>
       </defs>
       <use xlink:href="#TimesNewRomanPSMT-30"/>
       <use x="50" xlink:href="#TimesNewRomanPSMT-2e"/>
       <use x="75" xlink:href="#TimesNewRomanPSMT-30"/>
       <use x="125" xlink:href="#TimesNewRomanPSMT-30"/>
       <use x="175" xlink:href="#TimesNewRomanPSMT-34"/>
      </g>
     </g>
    </g>
    <g id="xtick_6">
     <g id="line2d_11">
      <path clip-path="url(#p0677ecf3b1)" d="M 398.136875 339.84 
L 398.136875 7.2 
" style="fill:none;stroke:#000000;stroke-dasharray:0.5,0.825;stroke-dashoffset:0;stroke-width:0.5;"/>
     </g>
     <g id="line2d_12">
      <g>
       <use style="stroke:#000000;stroke-width:0.8;" x="398.136875" xlink:href="#m7fbc6d87ac" y="339.84"/>
      </g>
     </g>
     <g id="text_6">
      <!-- 0.005 -->
      <g transform="translate(382.386875 356.56125)scale(0.14 -0.14)">
       <defs>
        <path d="M 2778 4238 
L 2534 3706 
L 1259 3706 
L 981 3138 
Q 1809 3016 2294 2522 
Q 2709 2097 2709 1522 
Q 2709 1188 2573 903 
Q 2438 619 2231 419 
Q 2025 219 1772 97 
Q 1413 -75 1034 -75 
Q 653 -75 479 54 
Q 306 184 306 341 
Q 306 428 378 495 
Q 450 563 559 563 
Q 641 563 702 538 
Q 763 513 909 409 
Q 1144 247 1384 247 
Q 1750 247 2026 523 
Q 2303 800 2303 1197 
Q 2303 1581 2056 1914 
Q 1809 2247 1375 2428 
Q 1034 2569 447 2591 
L 1259 4238 
L 2778 4238 
z
" id="TimesNewRomanPSMT-35" transform="scale(0.015625)"/>
       </defs>
       <use xlink:href="#TimesNewRomanPSMT-30"/>
       <use x="50" xlink:href="#TimesNewRomanPSMT-2e"/>
       <use x="75" xlink:href="#TimesNewRomanPSMT-30"/>
       <use x="125" xlink:href="#TimesNewRomanPSMT-30"/>
       <use x="175" xlink:href="#TimesNewRomanPSMT-35"/>
      </g>
     </g>
    </g>
    <g id="text_7">
     <!-- Time (sec) -->
     <g transform="translate(200.858906 373.277188)scale(0.14 -0.14)">
      <defs>
       <path d="M 3703 4238 
L 3750 3244 
L 3631 3244 
Q 3597 3506 3538 3619 
Q 3441 3800 3280 3886 
Q 3119 3972 2856 3972 
L 2259 3972 
L 2259 734 
Q 2259 344 2344 247 
Q 2463 116 2709 116 
L 2856 116 
L 2856 0 
L 1059 0 
L 1059 116 
L 1209 116 
Q 1478 116 1591 278 
Q 1659 378 1659 734 
L 1659 3972 
L 1150 3972 
Q 853 3972 728 3928 
Q 566 3869 450 3700 
Q 334 3531 313 3244 
L 194 3244 
L 244 4238 
L 3703 4238 
z
" id="TimesNewRomanPSMT-54" transform="scale(0.015625)"/>
       <path d="M 928 4444 
Q 1059 4444 1151 4351 
Q 1244 4259 1244 4128 
Q 1244 3997 1151 3903 
Q 1059 3809 928 3809 
Q 797 3809 703 3903 
Q 609 3997 609 4128 
Q 609 4259 701 4351 
Q 794 4444 928 4444 
z
M 1188 2947 
L 1188 647 
Q 1188 378 1227 289 
Q 1266 200 1342 156 
Q 1419 113 1622 113 
L 1622 0 
L 231 0 
L 231 113 
Q 441 113 512 153 
Q 584 194 626 287 
Q 669 381 669 647 
L 669 1750 
Q 669 2216 641 2353 
Q 619 2453 572 2492 
Q 525 2531 444 2531 
Q 356 2531 231 2484 
L 188 2597 
L 1050 2947 
L 1188 2947 
z
" id="TimesNewRomanPSMT-69" transform="scale(0.015625)"/>
       <path d="M 1050 2338 
Q 1363 2650 1419 2697 
Q 1559 2816 1721 2881 
Q 1884 2947 2044 2947 
Q 2313 2947 2506 2790 
Q 2700 2634 2766 2338 
Q 3088 2713 3309 2830 
Q 3531 2947 3766 2947 
Q 3994 2947 4170 2830 
Q 4347 2713 4450 2447 
Q 4519 2266 4519 1878 
L 4519 647 
Q 4519 378 4559 278 
Q 4591 209 4675 161 
Q 4759 113 4950 113 
L 4950 0 
L 3538 0 
L 3538 113 
L 3597 113 
Q 3781 113 3884 184 
Q 3956 234 3988 344 
Q 4000 397 4000 647 
L 4000 1878 
Q 4000 2228 3916 2372 
Q 3794 2572 3525 2572 
Q 3359 2572 3192 2489 
Q 3025 2406 2788 2181 
L 2781 2147 
L 2788 2013 
L 2788 647 
Q 2788 353 2820 281 
Q 2853 209 2943 161 
Q 3034 113 3253 113 
L 3253 0 
L 1806 0 
L 1806 113 
Q 2044 113 2133 169 
Q 2222 225 2256 338 
Q 2272 391 2272 647 
L 2272 1878 
Q 2272 2228 2169 2381 
Q 2031 2581 1784 2581 
Q 1616 2581 1450 2491 
Q 1191 2353 1050 2181 
L 1050 647 
Q 1050 366 1089 281 
Q 1128 197 1204 155 
Q 1281 113 1516 113 
L 1516 0 
L 100 0 
L 100 113 
Q 297 113 375 155 
Q 453 197 493 289 
Q 534 381 534 647 
L 534 1741 
Q 534 2213 506 2350 
Q 484 2453 437 2492 
Q 391 2531 309 2531 
Q 222 2531 100 2484 
L 53 2597 
L 916 2947 
L 1050 2947 
L 1050 2338 
z
" id="TimesNewRomanPSMT-6d" transform="scale(0.015625)"/>
       <path d="M 681 1784 
Q 678 1147 991 784 
Q 1303 422 1725 422 
Q 2006 422 2214 576 
Q 2422 731 2563 1106 
L 2659 1044 
Q 2594 616 2278 264 
Q 1963 -88 1488 -88 
Q 972 -88 605 314 
Q 238 716 238 1394 
Q 238 2128 614 2539 
Q 991 2950 1559 2950 
Q 2041 2950 2350 2633 
Q 2659 2316 2659 1784 
L 681 1784 
z
M 681 1966 
L 2006 1966 
Q 1991 2241 1941 2353 
Q 1863 2528 1708 2628 
Q 1553 2728 1384 2728 
Q 1125 2728 920 2526 
Q 716 2325 681 1966 
z
" id="TimesNewRomanPSMT-65" transform="scale(0.015625)"/>
       <path id="TimesNewRomanPSMT-20" transform="scale(0.015625)"/>
       <path d="M 1988 -1253 
L 1988 -1369 
Q 1516 -1131 1200 -813 
Q 750 -359 506 256 
Q 263 872 263 1534 
Q 263 2503 741 3301 
Q 1219 4100 1988 4444 
L 1988 4313 
Q 1603 4100 1356 3731 
Q 1109 3363 987 2797 
Q 866 2231 866 1616 
Q 866 947 969 400 
Q 1050 -31 1165 -292 
Q 1281 -553 1476 -793 
Q 1672 -1034 1988 -1253 
z
" id="TimesNewRomanPSMT-28" transform="scale(0.015625)"/>
       <path d="M 2050 2947 
L 2050 1972 
L 1947 1972 
Q 1828 2431 1642 2597 
Q 1456 2763 1169 2763 
Q 950 2763 815 2647 
Q 681 2531 681 2391 
Q 681 2216 781 2091 
Q 878 1963 1175 1819 
L 1631 1597 
Q 2266 1288 2266 781 
Q 2266 391 1970 151 
Q 1675 -88 1309 -88 
Q 1047 -88 709 6 
Q 606 38 541 38 
Q 469 38 428 -44 
L 325 -44 
L 325 978 
L 428 978 
Q 516 541 762 319 
Q 1009 97 1316 97 
Q 1531 97 1667 223 
Q 1803 350 1803 528 
Q 1803 744 1651 891 
Q 1500 1038 1047 1263 
Q 594 1488 453 1669 
Q 313 1847 313 2119 
Q 313 2472 555 2709 
Q 797 2947 1181 2947 
Q 1350 2947 1591 2875 
Q 1750 2828 1803 2828 
Q 1853 2828 1881 2850 
Q 1909 2872 1947 2947 
L 2050 2947 
z
" id="TimesNewRomanPSMT-73" transform="scale(0.015625)"/>
       <path d="M 2631 1088 
Q 2516 522 2178 217 
Q 1841 -88 1431 -88 
Q 944 -88 581 321 
Q 219 731 219 1428 
Q 219 2103 620 2525 
Q 1022 2947 1584 2947 
Q 2006 2947 2278 2723 
Q 2550 2500 2550 2259 
Q 2550 2141 2473 2067 
Q 2397 1994 2259 1994 
Q 2075 1994 1981 2113 
Q 1928 2178 1911 2362 
Q 1894 2547 1784 2644 
Q 1675 2738 1481 2738 
Q 1169 2738 978 2506 
Q 725 2200 725 1697 
Q 725 1184 976 792 
Q 1228 400 1656 400 
Q 1963 400 2206 609 
Q 2378 753 2541 1131 
L 2631 1088 
z
" id="TimesNewRomanPSMT-63" transform="scale(0.015625)"/>
       <path d="M 144 4313 
L 144 4444 
Q 619 4209 934 3891 
Q 1381 3434 1625 2820 
Q 1869 2206 1869 1541 
Q 1869 572 1392 -226 
Q 916 -1025 144 -1369 
L 144 -1253 
Q 528 -1038 776 -670 
Q 1025 -303 1145 264 
Q 1266 831 1266 1447 
Q 1266 2113 1163 2663 
Q 1084 3094 967 3353 
Q 850 3613 656 3853 
Q 463 4094 144 4313 
z
" id="TimesNewRomanPSMT-29" transform="scale(0.015625)"/>
      </defs>
      <use xlink:href="#TimesNewRomanPSMT-54"/>
      <use x="57.583984" xlink:href="#TimesNewRomanPSMT-69"/>
      <use x="85.367188" xlink:href="#TimesNewRomanPSMT-6d"/>
      <use x="163.150391" xlink:href="#TimesNewRomanPSMT-65"/>
      <use x="207.535156" xlink:href="#TimesNewRomanPSMT-20"/>
      <use x="232.535156" xlink:href="#TimesNewRomanPSMT-28"/>
      <use x="265.835938" xlink:href="#TimesNewRomanPSMT-73"/>
      <use x="304.751953" xlink:href="#TimesNewRomanPSMT-65"/>
      <use x="349.136719" xlink:href="#TimesNewRomanPSMT-63"/>
      <use x="393.521484" xlink:href="#TimesNewRomanPSMT-29"/>
     </g>
    </g>
   </g>
   <g id="matplotlib.axis_2">
    <g id="ytick_1">
     <g id="line2d_13">
      <path clip-path="url(#p0677ecf3b1)" d="M 63.336875 295.573904 
L 398.136875 295.573904 
" style="fill:none;stroke:#000000;stroke-dasharray:0.5,0.825;stroke-dashoffset:0;stroke-width:0.5;"/>
     </g>
     <g id="line2d_14">
      <defs>
       <path d="M 0 0 
L -3.5 0 
" id="m92337f9d8d" style="stroke:#000000;stroke-width:0.8;"/>
      </defs>
      <g>
       <use style="stroke:#000000;stroke-width:0.8;" x="63.336875" xlink:href="#m92337f9d8d" y="295.573904"/>
      </g>
     </g>
     <g id="text_8">
      <!-- −0.06 -->
      <g transform="translate(23.942188 300.434529)scale(0.14 -0.14)">
       <defs>
        <path d="M 3484 2000 
L 116 2000 
L 116 2256 
L 3484 2256 
L 3484 2000 
z
" id="TimesNewRomanPSMT-2212" transform="scale(0.015625)"/>
        <path d="M 2869 4325 
L 2869 4209 
Q 2456 4169 2195 4045 
Q 1934 3922 1679 3669 
Q 1425 3416 1258 3105 
Q 1091 2794 978 2366 
Q 1428 2675 1881 2675 
Q 2316 2675 2634 2325 
Q 2953 1975 2953 1425 
Q 2953 894 2631 456 
Q 2244 -75 1606 -75 
Q 1172 -75 869 213 
Q 275 772 275 1663 
Q 275 2231 503 2743 
Q 731 3256 1154 3653 
Q 1578 4050 1965 4187 
Q 2353 4325 2688 4325 
L 2869 4325 
z
M 925 2138 
Q 869 1716 869 1456 
Q 869 1156 980 804 
Q 1091 453 1309 247 
Q 1469 100 1697 100 
Q 1969 100 2183 356 
Q 2397 613 2397 1088 
Q 2397 1622 2184 2012 
Q 1972 2403 1581 2403 
Q 1463 2403 1327 2353 
Q 1191 2303 925 2138 
z
" id="TimesNewRomanPSMT-36" transform="scale(0.015625)"/>
       </defs>
       <use xlink:href="#TimesNewRomanPSMT-2212"/>
       <use x="56.396484" xlink:href="#TimesNewRomanPSMT-30"/>
       <use x="106.396484" xlink:href="#TimesNewRomanPSMT-2e"/>
       <use x="131.396484" xlink:href="#TimesNewRomanPSMT-30"/>
       <use x="181.396484" xlink:href="#TimesNewRomanPSMT-36"/>
      </g>
     </g>
    </g>
    <g id="ytick_2">
     <g id="line2d_15">
      <path clip-path="url(#p0677ecf3b1)" d="M 63.336875 248.731034 
L 398.136875 248.731034 
" style="fill:none;stroke:#000000;stroke-dasharray:0.5,0.825;stroke-dashoffset:0;stroke-width:0.5;"/>
     </g>
     <g id="line2d_16">
      <g>
       <use style="stroke:#000000;stroke-width:0.8;" x="63.336875" xlink:href="#m92337f9d8d" y="248.731034"/>
      </g>
     </g>
     <g id="text_9">
      <!-- −0.04 -->
      <g transform="translate(23.942188 253.591659)scale(0.14 -0.14)">
       <use xlink:href="#TimesNewRomanPSMT-2212"/>
       <use x="56.396484" xlink:href="#TimesNewRomanPSMT-30"/>
       <use x="106.396484" xlink:href="#TimesNewRomanPSMT-2e"/>
       <use x="131.396484" xlink:href="#TimesNewRomanPSMT-30"/>
       <use x="181.396484" xlink:href="#TimesNewRomanPSMT-34"/>
      </g>
     </g>
    </g>
    <g id="ytick_3">
     <g id="line2d_17">
      <path clip-path="url(#p0677ecf3b1)" d="M 63.336875 201.888163 
L 398.136875 201.888163 
" style="fill:none;stroke:#000000;stroke-dasharray:0.5,0.825;stroke-dashoffset:0;stroke-width:0.5;"/>
     </g>
     <g id="line2d_18">
      <g>
       <use style="stroke:#000000;stroke-width:0.8;" x="63.336875" xlink:href="#m92337f9d8d" y="201.888163"/>
      </g>
     </g>
     <g id="text_10">
      <!-- −0.02 -->
      <g transform="translate(23.942188 206.748788)scale(0.14 -0.14)">
       <use xlink:href="#TimesNewRomanPSMT-2212"/>
       <use x="56.396484" xlink:href="#TimesNewRomanPSMT-30"/>
       <use x="106.396484" xlink:href="#TimesNewRomanPSMT-2e"/>
       <use x="131.396484" xlink:href="#TimesNewRomanPSMT-30"/>
       <use x="181.396484" xlink:href="#TimesNewRomanPSMT-32"/>
      </g>
     </g>
    </g>
    <g id="ytick_4">
     <g id="line2d_19">
      <path clip-path="url(#p0677ecf3b1)" d="M 63.336875 155.045292 
L 398.136875 155.045292 
" style="fill:none;stroke:#000000;stroke-dasharray:0.5,0.825;stroke-dashoffset:0;stroke-width:0.5;"/>
     </g>
     <g id="line2d_20">
      <g>
       <use style="stroke:#000000;stroke-width:0.8;" x="63.336875" xlink:href="#m92337f9d8d" y="155.045292"/>
      </g>
     </g>
     <g id="text_11">
      <!-- 0.00 -->
      <g transform="translate(31.836875 159.905917)scale(0.14 -0.14)">
       <use xlink:href="#TimesNewRomanPSMT-30"/>
       <use x="50" xlink:href="#TimesNewRomanPSMT-2e"/>
       <use x="75" xlink:href="#TimesNewRomanPSMT-30"/>
       <use x="125" xlink:href="#TimesNewRomanPSMT-30"/>
      </g>
     </g>
    </g>
    <g id="ytick_5">
     <g id="line2d_21">
      <path clip-path="url(#p0677ecf3b1)" d="M 63.336875 108.202422 
L 398.136875 108.202422 
" style="fill:none;stroke:#000000;stroke-dasharray:0.5,0.825;stroke-dashoffset:0;stroke-width:0.5;"/>
     </g>
     <g id="line2d_22">
      <g>
       <use style="stroke:#000000;stroke-width:0.8;" x="63.336875" xlink:href="#m92337f9d8d" y="108.202422"/>
      </g>
     </g>
     <g id="text_12">
      <!-- 0.02 -->
      <g transform="translate(31.836875 113.063047)scale(0.14 -0.14)">
       <use xlink:href="#TimesNewRomanPSMT-30"/>
       <use x="50" xlink:href="#TimesNewRomanPSMT-2e"/>
       <use x="75" xlink:href="#TimesNewRomanPSMT-30"/>
       <use x="125" xlink:href="#TimesNewRomanPSMT-32"/>
      </g>
     </g>
    </g>
    <g id="ytick_6">
     <g id="line2d_23">
      <path clip-path="url(#p0677ecf3b1)" d="M 63.336875 61.359551 
L 398.136875 61.359551 
" style="fill:none;stroke:#000000;stroke-dasharray:0.5,0.825;stroke-dashoffset:0;stroke-width:0.5;"/>
     </g>
     <g id="line2d_24">
      <g>
       <use style="stroke:#000000;stroke-width:0.8;" x="63.336875" xlink:href="#m92337f9d8d" y="61.359551"/>
      </g>
     </g>
     <g id="text_13">
      <!-- 0.04 -->
      <g transform="translate(31.836875 66.220176)scale(0.14 -0.14)">
       <use xlink:href="#TimesNewRomanPSMT-30"/>
       <use x="50" xlink:href="#TimesNewRomanPSMT-2e"/>
       <use x="75" xlink:href="#TimesNewRomanPSMT-30"/>
       <use x="125" xlink:href="#TimesNewRomanPSMT-34"/>
      </g>
     </g>
    </g>
    <g id="ytick_7">
     <g id="line2d_25">
      <path clip-path="url(#p0677ecf3b1)" d="M 63.336875 14.51668 
L 398.136875 14.51668 
" style="fill:none;stroke:#000000;stroke-dasharray:0.5,0.825;stroke-dashoffset:0;stroke-width:0.5;"/>
     </g>
     <g id="line2d_26">
      <g>
       <use style="stroke:#000000;stroke-width:0.8;" x="63.336875" xlink:href="#m92337f9d8d" y="14.51668"/>
      </g>
     </g>
     <g id="text_14">
      <!-- 0.06 -->
      <g transform="translate(31.836875 19.377305)scale(0.14 -0.14)">
       <use xlink:href="#TimesNewRomanPSMT-30"/>
       <use x="50" xlink:href="#TimesNewRomanPSMT-2e"/>
       <use x="75" xlink:href="#TimesNewRomanPSMT-30"/>
       <use x="125" xlink:href="#TimesNewRomanPSMT-36"/>
      </g>
     </g>
    </g>
    <g id="text_15">
     <!-- Volatage (V) -->
     <g transform="translate(16.92125 209.352344)rotate(-90)scale(0.14 -0.14)">
      <defs>
       <path d="M 4544 4238 
L 4544 4122 
Q 4319 4081 4203 3978 
Q 4038 3825 3909 3509 
L 2431 -97 
L 2316 -97 
L 728 3556 
Q 606 3838 556 3900 
Q 478 3997 364 4051 
Q 250 4106 56 4122 
L 56 4238 
L 1788 4238 
L 1788 4122 
Q 1494 4094 1406 4022 
Q 1319 3950 1319 3838 
Q 1319 3681 1463 3350 
L 2541 866 
L 3541 3319 
Q 3688 3681 3688 3822 
Q 3688 3913 3597 3995 
Q 3506 4078 3291 4113 
Q 3275 4116 3238 4122 
L 3238 4238 
L 4544 4238 
z
" id="TimesNewRomanPSMT-56" transform="scale(0.015625)"/>
       <path d="M 1600 2947 
Q 2250 2947 2644 2453 
Q 2978 2031 2978 1484 
Q 2978 1100 2793 706 
Q 2609 313 2286 112 
Q 1963 -88 1566 -88 
Q 919 -88 538 428 
Q 216 863 216 1403 
Q 216 1797 411 2186 
Q 606 2575 925 2761 
Q 1244 2947 1600 2947 
z
M 1503 2744 
Q 1338 2744 1170 2645 
Q 1003 2547 900 2300 
Q 797 2053 797 1666 
Q 797 1041 1045 587 
Q 1294 134 1700 134 
Q 2003 134 2200 384 
Q 2397 634 2397 1244 
Q 2397 2006 2069 2444 
Q 1847 2744 1503 2744 
z
" id="TimesNewRomanPSMT-6f" transform="scale(0.015625)"/>
       <path d="M 1184 4444 
L 1184 647 
Q 1184 378 1223 290 
Q 1263 203 1344 158 
Q 1425 113 1647 113 
L 1647 0 
L 244 0 
L 244 113 
Q 441 113 512 153 
Q 584 194 625 287 
Q 666 381 666 647 
L 666 3247 
Q 666 3731 644 3842 
Q 622 3953 573 3993 
Q 525 4034 450 4034 
Q 369 4034 244 3984 
L 191 4094 
L 1044 4444 
L 1184 4444 
z
" id="TimesNewRomanPSMT-6c" transform="scale(0.015625)"/>
       <path d="M 1822 413 
Q 1381 72 1269 19 
Q 1100 -59 909 -59 
Q 613 -59 420 144 
Q 228 347 228 678 
Q 228 888 322 1041 
Q 450 1253 767 1440 
Q 1084 1628 1822 1897 
L 1822 2009 
Q 1822 2438 1686 2597 
Q 1550 2756 1291 2756 
Q 1094 2756 978 2650 
Q 859 2544 859 2406 
L 866 2225 
Q 866 2081 792 2003 
Q 719 1925 600 1925 
Q 484 1925 411 2006 
Q 338 2088 338 2228 
Q 338 2497 613 2722 
Q 888 2947 1384 2947 
Q 1766 2947 2009 2819 
Q 2194 2722 2281 2516 
Q 2338 2381 2338 1966 
L 2338 994 
Q 2338 584 2353 492 
Q 2369 400 2405 369 
Q 2441 338 2488 338 
Q 2538 338 2575 359 
Q 2641 400 2828 588 
L 2828 413 
Q 2478 -56 2159 -56 
Q 2006 -56 1915 50 
Q 1825 156 1822 413 
z
M 1822 616 
L 1822 1706 
Q 1350 1519 1213 1441 
Q 966 1303 859 1153 
Q 753 1003 753 825 
Q 753 600 887 451 
Q 1022 303 1197 303 
Q 1434 303 1822 616 
z
" id="TimesNewRomanPSMT-61" transform="scale(0.015625)"/>
       <path d="M 1031 3803 
L 1031 2863 
L 1700 2863 
L 1700 2644 
L 1031 2644 
L 1031 788 
Q 1031 509 1111 412 
Q 1191 316 1316 316 
Q 1419 316 1516 380 
Q 1613 444 1666 569 
L 1788 569 
Q 1678 263 1478 108 
Q 1278 -47 1066 -47 
Q 922 -47 784 33 
Q 647 113 581 261 
Q 516 409 516 719 
L 516 2644 
L 63 2644 
L 63 2747 
Q 234 2816 414 2980 
Q 594 3144 734 3369 
Q 806 3488 934 3803 
L 1031 3803 
z
" id="TimesNewRomanPSMT-74" transform="scale(0.015625)"/>
       <path d="M 966 1044 
Q 703 1172 562 1401 
Q 422 1631 422 1909 
Q 422 2334 742 2640 
Q 1063 2947 1563 2947 
Q 1972 2947 2272 2747 
L 2878 2747 
Q 3013 2747 3034 2739 
Q 3056 2731 3066 2713 
Q 3084 2684 3084 2613 
Q 3084 2531 3069 2500 
Q 3059 2484 3036 2475 
Q 3013 2466 2878 2466 
L 2506 2466 
Q 2681 2241 2681 1891 
Q 2681 1491 2375 1206 
Q 2069 922 1553 922 
Q 1341 922 1119 984 
Q 981 866 932 777 
Q 884 688 884 625 
Q 884 572 936 522 
Q 988 472 1138 450 
Q 1225 438 1575 428 
Q 2219 413 2409 384 
Q 2700 344 2873 169 
Q 3047 -6 3047 -263 
Q 3047 -616 2716 -925 
Q 2228 -1381 1444 -1381 
Q 841 -1381 425 -1109 
Q 191 -953 191 -784 
Q 191 -709 225 -634 
Q 278 -519 444 -313 
Q 466 -284 763 25 
Q 600 122 533 198 
Q 466 275 466 372 
Q 466 481 555 628 
Q 644 775 966 1044 
z
M 1509 2797 
Q 1278 2797 1122 2612 
Q 966 2428 966 2047 
Q 966 1553 1178 1281 
Q 1341 1075 1591 1075 
Q 1828 1075 1981 1253 
Q 2134 1431 2134 1813 
Q 2134 2309 1919 2591 
Q 1759 2797 1509 2797 
z
M 934 0 
Q 788 -159 713 -296 
Q 638 -434 638 -550 
Q 638 -700 819 -813 
Q 1131 -1006 1722 -1006 
Q 2284 -1006 2551 -807 
Q 2819 -609 2819 -384 
Q 2819 -222 2659 -153 
Q 2497 -84 2016 -72 
Q 1313 -53 934 0 
z
" id="TimesNewRomanPSMT-67" transform="scale(0.015625)"/>
      </defs>
      <use xlink:href="#TimesNewRomanPSMT-56"/>
      <use x="59.341797" xlink:href="#TimesNewRomanPSMT-6f"/>
      <use x="109.341797" xlink:href="#TimesNewRomanPSMT-6c"/>
      <use x="137.125" xlink:href="#TimesNewRomanPSMT-61"/>
      <use x="181.509766" xlink:href="#TimesNewRomanPSMT-74"/>
      <use x="209.292969" xlink:href="#TimesNewRomanPSMT-61"/>
      <use x="253.677734" xlink:href="#TimesNewRomanPSMT-67"/>
      <use x="303.677734" xlink:href="#TimesNewRomanPSMT-65"/>
      <use x="348.0625" xlink:href="#TimesNewRomanPSMT-20"/>
      <use x="373.0625" xlink:href="#TimesNewRomanPSMT-28"/>
      <use x="406.363281" xlink:href="#TimesNewRomanPSMT-56"/>
      <use x="478.580078" xlink:href="#TimesNewRomanPSMT-29"/>
     </g>
    </g>
   </g>
   <g id="LineCollection_1">
    <path clip-path="url(#p0677ecf3b1)" d="M 78.555057 155.045292 
L 382.918693 155.045292 
" style="fill:none;stroke:#1f77b4;stroke-width:1.5;"/>
   </g>
   <g id="line2d_27">
    <path clip-path="url(#p0677ecf3b1)" d="M 78.555057 155.060985 
L 85.31193 154.973154 
L 85.464111 154.973154 
L 104.760766 155.031708 
L 104.791202 155.090262 
L 104.882511 155.031708 
L 105.034693 155.031708 
L 109.387093 154.973154 
L 109.478402 154.914601 
L 109.508839 154.973154 
L 109.691457 154.943878 
L 114.256911 155.002431 
L 114.378657 155.031708 
L 114.804766 155.090262 
L 114.926511 155.119538 
L 115.322184 155.178092 
L 115.474366 155.236646 
L 116.052657 155.324476 
L 116.265711 155.383029 
L 116.417893 155.353753 
L 116.600511 155.383029 
L 117.330984 155.47086 
L 117.513602 155.529413 
L 117.665784 155.529413 
L 118.426693 155.617244 
L 118.639748 155.675797 
L 118.79193 155.675797 
L 119.431093 155.763628 
L 119.613711 155.792905 
L 121.37902 155.851458 
L 121.531202 155.910012 
L 121.652948 155.910012 
L 121.866002 155.968565 
L 122.687784 156.056396 
L 122.900839 156.144226 
L 123.05302 156.144226 
L 123.357384 156.20278 
L 123.509566 156.261333 
L 123.905239 156.349164 
L 124.14873 156.466271 
L 124.179166 156.407717 
L 124.240039 156.466271 
L 124.513966 156.583378 
L 124.757457 156.671208 
L 125.092257 156.846869 
L 125.183566 156.846869 
L 125.39662 157.02253 
L 127.101057 158.779138 
L 127.344548 159.21829 
L 127.374984 159.21829 
L 127.588039 159.657441 
L 127.770657 159.950209 
L 128.105457 160.594299 
L 128.83593 162.204523 
L 129.17073 163.082826 
L 129.292475 163.317041 
L 129.657711 164.283175 
L 131.08822 168.733248 
L 131.544766 170.431301 
L 131.666511 170.841177 
L 132.09262 172.36357 
L 132.701348 174.442223 
L 133.370948 176.579429 
L 136.292839 184.6891 
L 136.77982 185.42102 
L 136.87113 185.508851 
L 137.662475 186.123663 
L 137.936402 186.211494 
L 138.11902 186.270047 
L 138.240766 186.299324 
L 138.727748 186.211494 
L 139.701711 185.128252 
L 140.249566 183.86935 
L 140.827857 182.083466 
L 141.193093 180.736733 
L 141.680075 178.570252 
L 142.167057 176.257383 
L 142.958402 171.924418 
L 144.023675 165.161479 
L 145.849857 150.259591 
L 148.771748 121.099904 
L 153.398075 73.290901 
L 154.95033 60.818987 
L 156.076475 53.968215 
L 157.172184 49.225372 
L 157.720039 47.527322 
L 158.20702 46.824677 
L 158.328766 46.766123 
L 158.450511 46.678295 
L 158.480948 46.707567 
L 158.694002 46.649014 
L 158.998366 46.707567 
L 160.185384 49.196097 
L 160.854984 51.889564 
L 161.159348 53.499786 
L 162.011566 59.003821 
L 164.081239 79.936729 
L 165.176948 94.985003 
L 167.00313 124.78878 
L 174.520911 267.396044 
L 175.555748 282.824917 
L 176.316657 292.866857 
L 177.473239 305.982866 
L 178.508075 314.912286 
L 179.329857 319.713675 
L 179.847275 322.11437 
L 180.090766 322.817025 
L 180.669057 324.163753 
L 181.06473 324.690735 
L 181.39953 324.602909 
L 181.703893 324.251581 
L 182.008257 323.812426 
L 182.769166 321.294622 
L 183.499639 317.254417 
L 183.956184 314.033977 
L 185.569311 299.132084 
L 186.512839 287.919079 
L 187.486802 274.363926 
L 188.612948 256.56363 
L 189.860839 234.37182 
L 191.382657 204.538767 
L 195.856802 116.357063 
L 197.774293 83.30356 
L 199.38742 61.580179 
L 200.574439 48.112851 
L 202.370184 33.503733 
L 203.16153 28.878 
L 204.013748 25.306231 
L 204.865966 23.139746 
L 205.83993 22.349272 
L 207.057384 23.666728 
L 208.335711 27.677653 
L 210.983675 43.604227 
L 213.631639 64.82991 
L 215.336075 80.551548 
L 216.675275 93.550443 
L 218.653639 111.584948 
L 219.079748 115.156714 
L 219.779784 121.421948 
L 221.362475 134.186631 
L 224.649602 155.617244 
L 225.014839 157.461682 
L 225.471384 159.511058 
L 225.745311 160.623576 
L 226.445348 163.756193 
L 226.871457 165.278586 
L 228.210657 169.99215 
L 228.454148 170.694793 
L 232.745675 183.371645 
L 233.20222 185.362467 
L 235.850184 198.566301 
L 236.245857 200.79134 
L 236.763275 203.77757 
L 237.250257 206.734524 
L 237.950293 210.540512 
L 238.376402 213.292528 
L 239.593857 220.963048 
L 240.415639 225.822994 
L 240.65913 227.199006 
L 241.267857 230.565842 
L 243.550584 241.017655 
L 244.950657 245.965433 
L 245.34633 246.785181 
L 245.468075 246.873009 
L 245.985493 247.224335 
L 246.107239 247.25361 
L 246.320293 247.341435 
L 247.172511 246.375308 
L 247.994293 244.560142 
L 249.637857 237.797205 
L 250.337893 233.932664 
L 251.981457 222.134123 
L 254.29462 201.142659 
L 255.846875 185.186806 
L 256.97302 173.417535 
L 259.834039 146.922036 
L 262.055893 130.673415 
L 262.695057 127.101646 
L 264.247311 120.133769 
L 264.642984 118.66993 
L 264.977784 117.557409 
L 266.469166 113.575767 
L 267.382257 111.994821 
L 267.44313 111.994821 
L 267.473566 111.936265 
L 268.325784 111.204347 
L 268.35622 111.262901 
L 268.386657 111.17507 
L 268.538839 111.087242 
L 268.69102 111.087242 
L 268.904075 110.99941 
L 269.056257 110.99941 
L 270.151966 111.057965 
L 270.36502 111.233624 
L 271.03462 112.024097 
L 271.247675 112.346144 
L 271.491166 112.72674 
L 272.03902 114.014919 
L 272.160766 114.278411 
L 272.46513 115.039607 
L 272.860802 116.035016 
L 273.226039 117.059704 
L 273.317348 117.293923 
L 274.47393 120.30943 
L 274.565239 120.543644 
L 274.900039 121.421948 
L 276.360984 125.315762 
L 276.695784 126.194066 
L 278.461093 130.99546 
L 278.521966 131.141844 
L 278.82633 131.932317 
L 278.948075 132.195809 
L 279.648111 133.747478 
L 279.922039 134.391567 
L 283.148293 140.364034 
L 283.452657 140.77391 
L 283.635275 141.066677 
L 284.122257 141.76932 
L 284.18313 141.857151 
L 284.944039 142.735454 
L 285.18753 142.969669 
L 285.85713 143.496651 
L 285.948439 143.525928 
L 286.252802 143.672312 
L 286.496293 143.760142 
L 286.678911 143.789419 
L 287.561566 143.701588 
L 287.77462 143.643035 
L 287.957239 143.555204 
L 288.261602 143.408821 
L 288.44422 143.32099 
L 288.626839 143.14533 
L 288.657275 143.174606 
L 288.687711 143.086776 
L 289.235566 142.676901 
L 289.326875 142.647625 
L 290.057348 141.798597 
L 290.392148 141.388722 
L 290.940002 140.715356 
L 291.670475 139.544284 
L 291.944402 139.134409 
L 293.374911 136.148176 
L 296.388111 127.130923 
L 297.90993 121.714716 
L 298.731711 119.021251 
L 299.462184 116.620554 
L 299.91873 115.508034 
L 300.83182 113.195167 
L 301.653602 111.848439 
L 301.897093 111.467838 
L 302.17102 111.116514 
L 302.292766 111.087242 
L 302.475384 111.028686 
L 302.688439 111.087242 
L 302.810184 111.028686 
L 303.023239 111.087242 
L 303.144984 111.116514 
L 303.997202 112.082651 
L 305.123348 114.483346 
L 306.797348 121.304841 
L 307.253893 123.676261 
L 307.740875 126.545387 
L 308.988766 135.679746 
L 309.810548 142.852561 
L 311.332366 157.871557 
L 311.54542 160.03804 
L 312.64113 171.631651 
L 314.89342 196.634035 
L 315.836948 206.295375 
L 318.271857 228.721399 
L 318.637093 231.414862 
L 319.00233 233.932664 
L 319.732802 238.119252 
L 320.432839 241.544637 
L 320.737202 242.715702 
L 321.163311 244.238095 
L 321.68073 245.78977 
L 322.045966 246.550962 
L 322.411202 247.0194 
L 322.59382 247.224335 
L 322.989493 247.487826 
L 323.141675 247.429273 
L 323.324293 247.370717 
L 323.537348 247.077944 
L 323.59822 247.077944 
L 323.780839 246.785181 
L 323.993893 246.463134 
L 324.328693 245.78977 
L 324.450439 245.526279 
L 325.69833 241.603193 
L 326.459239 238.470569 
L 326.672293 237.533714 
L 327.098402 235.484338 
L 329.015893 223.802898 
L 330.415966 213.878064 
L 331.207311 207.817766 
L 332.363893 198.068595 
L 335.529275 169.728658 
L 336.290184 162.848612 
L 339.120766 139.310069 
L 341.829602 119.314021 
L 344.508002 101.982157 
L 344.994984 99.142308 
L 345.634148 95.541262 
L 347.247275 88.280617 
L 347.673384 86.728947 
L 348.03862 85.470045 
L 349.986548 80.170948 
L 350.747457 78.941318 
L 350.838766 78.882764 
L 351.204002 78.414335 
L 352.451893 77.360371 
L 352.573639 77.272543 
L 352.878002 77.126161 
L 353.030184 77.126161 
L 353.943275 77.184717 
L 354.125893 77.301817 
L 354.247639 77.331099 
L 355.434657 78.619273 
L 356.74342 81.342022 
L 357.16953 82.571642 
L 357.382584 83.215732 
L 358.08262 85.528599 
L 358.50873 87.050992 
L 359.939239 92.994181 
L 363.226366 109.272081 
L 363.622039 111.467838 
L 364.352511 115.508034 
L 366.54393 128.770424 
L 367.21353 133.074113 
L 368.857093 143.408821 
L 370.196293 151.781984 
L 370.744148 155.207369 
L 371.261566 158.222879 
L 372.418148 165.307863 
L 372.844257 167.884221 
L 374.274766 176.784365 
L 375.58353 184.864761 
L 376.892293 193.032989 
L 377.622766 197.834381 
L 378.566293 203.923952 
L 380.240293 214.463598 
L 382.370839 226.115762 
L 382.918693 228.633566 
L 382.918693 228.633566 
" style="fill:none;stroke:#0000ff;stroke-linecap:square;stroke-width:1.5;"/>
   </g>
   <g id="line2d_28">
    <path clip-path="url(#p0677ecf3b1)" d="M 78.555057 155.020466 
L 92.555784 155.093658 
L 92.707966 155.122934 
L 92.951457 155.108296 
L 93.225384 155.137573 
L 93.377566 155.122934 
L 93.651493 155.137573 
L 101.230148 155.240042 
L 102.843275 156.118346 
L 103.330257 156.630689 
L 103.817239 157.245502 
L 104.821639 158.885003 
L 107.013057 164.432955 
L 108.382693 168.722005 
L 110.269748 174.70911 
L 111.152402 177.109807 
L 111.730693 178.441901 
L 112.582911 180.213147 
L 113.161202 181.091451 
L 113.617748 181.55988 
L 114.256911 182.028308 
L 114.622148 182.086862 
L 114.865639 181.984393 
L 115.139566 181.881924 
L 115.504802 181.676987 
L 115.656984 181.574518 
L 115.870039 181.354942 
L 116.143966 180.945067 
L 117.848402 176.597463 
L 118.45713 174.416342 
L 118.852802 172.937864 
L 119.248475 171.283725 
L 119.79633 168.765921 
L 121.196402 161.505276 
L 122.779093 151.770742 
L 123.661748 145.812914 
L 126.40102 128.100453 
L 128.470693 116.799613 
L 130.022948 109.875649 
L 131.453457 105.440217 
L 131.970875 103.917824 
L 132.731784 101.736703 
L 133.644875 99.804432 
L 135.227566 97.345184 
L 135.53193 96.862114 
L 137.266802 95.339721 
L 138.332075 95.412913 
L 138.971239 96.51079 
L 140.280002 99.936177 
L 141.101784 102.658917 
L 141.710511 105.074257 
L 143.14102 112.481284 
L 145.636802 130.032722 
L 147.523857 146.354535 
L 151.784948 188.410649 
L 153.458948 204.190839 
L 154.463348 212.359067 
L 155.437311 219.429413 
L 156.076475 223.235396 
L 157.050439 228.241726 
L 158.359202 232.911381 
L 158.480948 233.160232 
L 159.698402 235.282792 
L 160.154948 235.575567 
L 160.520184 235.648752 
L 161.341966 235.136411 
L 161.55502 234.799734 
L 162.620293 232.530781 
L 163.959493 226.938911 
L 164.689966 222.518112 
L 166.090039 212.402982 
L 173.60782 144.671119 
L 175.981857 128.320029 
L 176.864511 123.84068 
L 177.777602 120.327465 
L 178.477639 118.90754 
L 179.664657 117.385144 
L 180.121202 117.092376 
L 180.97342 116.799613 
L 181.30822 117.07774 
L 182.160439 118.497665 
L 183.377893 122.347563 
L 184.260548 125.699756 
L 186.269348 134.819477 
L 187.517239 140.704113 
L 189.039057 148.535656 
L 189.830402 152.780791 
L 190.713057 156.908819 
L 191.260911 159.119217 
L 193.878439 169.966269 
L 194.913275 173.508761 
L 195.887239 176.656018 
L 196.282911 177.768535 
L 197.348184 180.081401 
L 197.652548 180.505915 
L 197.896039 180.754768 
L 198.352584 181.047536 
L 198.443893 181.091451 
L 198.687384 181.179281 
L 199.083057 181.091451 
L 199.448293 180.593745 
L 200.878802 176.90487 
L 201.639711 174.094296 
L 202.522366 170.259037 
L 203.648511 164.315848 
L 205.931239 149.692089 
L 207.209566 141.670247 
L 211.714148 112.071406 
L 212.87073 106.508818 
L 214.909966 99.072512 
L 215.944802 96.832837 
L 216.675275 96.276578 
L 217.55793 95.954531 
L 218.014475 96.057005 
L 218.257966 96.144833 
L 218.623202 96.364409 
L 218.744948 96.452241 
L 219.292802 97.125605 
L 219.81022 97.886802 
L 220.23633 98.42842 
L 222.184257 102.395426 
L 223.188657 104.957148 
L 223.675639 106.406349 
L 225.684439 113.549887 
L 229.245493 127.690578 
L 229.793348 130.032722 
L 230.889057 134.673093 
L 233.62833 149.721366 
L 235.271893 161.534552 
L 238.22422 183.404318 
L 239.22862 189.859851 
L 241.23742 200.824013 
L 243.124475 208.509169 
L 244.189748 212.168768 
L 245.224584 215.272108 
L 245.833311 216.706669 
L 246.959457 218.638939 
L 247.476875 219.209837 
L 247.811675 219.487969 
L 248.329093 219.839288 
L 248.846511 219.971034 
L 249.790039 219.868565 
L 251.95102 218.712131 
L 252.316257 218.375448 
L 252.529311 218.15587 
L 253.138039 217.423952 
L 253.95982 216.413905 
L 254.233748 216.16505 
L 256.272984 214.057121 
L 256.668657 213.676525 
L 257.06433 213.442311 
L 258.525275 212.856773 
L 258.951384 212.754306 
L 259.255748 212.607917 
L 261.142802 211.58323 
L 261.41673 211.378294 
L 262.116766 210.558544 
L 263.699457 207.279543 
L 265.373457 202.112191 
L 266.01262 199.213786 
L 267.838802 188.04469 
L 269.817166 172.001006 
L 271.552039 155.152211 
L 273.012984 138.522992 
L 275.326148 109.421859 
L 276.604475 93.143959 
L 278.552402 69.254097 
L 279.952475 54.337573 
L 280.956875 45.291043 
L 281.961275 37.94257 
L 282.874366 32.906955 
L 283.543966 30.462347 
L 284.152693 29.027782 
L 284.51793 28.544713 
L 284.791857 28.412972 
L 285.18753 28.51544 
L 285.491893 28.74965 
L 286.43542 30.784392 
L 287.19633 33.72671 
L 287.86593 37.488773 
L 288.44422 41.441143 
L 289.266002 48.145524 
L 290.574766 60.441784 
L 291.944402 75.402224 
L 298.609966 154.215354 
L 300.344839 172.96714 
L 302.353639 192.128802 
L 303.60153 201.995082 
L 304.575493 207.806526 
L 306.401675 216.047941 
L 307.649566 220.410188 
L 308.653966 222.986546 
L 310.571457 226.441205 
L 311.63673 227.319511 
L 312.184584 227.217042 
L 312.945493 226.748609 
L 313.432475 225.870308 
L 315.197784 220.454101 
L 316.56742 214.745126 
L 319.398002 199.213786 
L 321.58942 185.20484 
L 322.654693 178.412624 
L 326.854911 152.853983 
L 327.889748 147.525607 
L 329.502875 140.308876 
L 330.62902 136.415063 
L 331.72473 133.589853 
L 332.05953 132.931125 
L 332.424766 132.330951 
L 333.216111 131.379454 
L 333.490039 131.130602 
L 333.946584 130.837834 
L 334.40313 130.720727 
L 334.585748 130.750003 
L 334.950984 130.837834 
L 335.255348 130.984218 
L 335.772766 131.350177 
L 337.598948 132.975041 
L 337.720693 133.077509 
L 339.151202 134.599902 
L 339.912111 135.507483 
L 340.09473 135.683144 
L 340.307784 135.946635 
L 340.946948 136.707831 
L 341.190439 136.956683 
L 342.133966 137.717881 
L 343.10793 138.069202 
L 344.11233 138.157032 
L 344.294948 138.186309 
L 344.44713 138.171671 
L 344.994984 138.274139 
L 345.603711 138.4498 
L 346.821166 138.347332 
L 347.12553 138.200947 
L 347.70382 137.820349 
L 348.008184 137.571497 
L 348.586475 137.161621 
L 348.738657 137.059153 
L 349.13433 136.766384 
L 349.408257 136.546809 
L 350.38222 135.961272 
L 350.838766 135.668505 
L 351.417057 135.492844 
L 351.660548 135.492844 
L 352.695384 135.595312 
L 354.338948 136.502893 
L 355.008548 137.278728 
L 356.07382 139.093889 
L 357.07822 140.73339 
L 360.51753 147.13037 
L 360.821893 147.569521 
L 361.887166 149.296853 
L 362.374148 150.189795 
L 362.617639 150.570393 
L 363.926402 152.853983 
L 364.20033 153.263858 
L 365.235166 154.932635 
L 365.600402 155.53281 
L 365.87433 155.942685 
L 366.574366 156.762435 
L 366.909166 156.967372 
L 367.061348 157.011288 
L 367.426584 157.113756 
L 368.096184 157.318694 
L 368.339675 157.318694 
L 368.644039 157.347971 
L 369.283202 157.26014 
L 370.074548 156.367198 
L 372.357275 152.195255 
L 372.448584 152.048871 
L 372.935566 151.155929 
L 374.183457 148.535656 
L 374.670439 147.437776 
L 374.853057 147.115731 
L 375.370475 146.149597 
L 375.766148 145.417677 
L 376.16182 144.612566 
L 376.49662 143.939199 
L 377.105348 142.533913 
L 379.205457 137.747157 
L 379.50982 137.132345 
L 380.84902 134.190026 
L 382.918693 130.179106 
L 382.918693 130.179106 
" style="fill:none;stroke:#ff0000;stroke-linecap:square;stroke-width:1.5;"/>
   </g>
   <g id="line2d_29">
    <path clip-path="url(#p0677ecf3b1)" d="M 129.383784 163.551255 
" style="fill:none;stroke:#ffffff;stroke-linecap:square;stroke-width:1.5;"/>
    <defs>
     <path d="M 0 -5 
L -1.12257 -1.545085 
L -4.755283 -1.545085 
L -1.816356 0.59017 
L -2.938926 4.045085 
L -0 1.90983 
L 2.938926 4.045085 
L 1.816356 0.59017 
L 4.755283 -1.545085 
L 1.12257 -1.545085 
z
" id="m6c0bc0d3bf" style="stroke:#ffffff;stroke-linejoin:bevel;"/>
    </defs>
    <g clip-path="url(#p0677ecf3b1)">
     <use style="fill:#0000ff;stroke:#ffffff;stroke-linejoin:bevel;" x="129.383784" xlink:href="#m6c0bc0d3bf" y="163.551255"/>
    </g>
   </g>
   <g id="line2d_30">
    <path clip-path="url(#p0677ecf3b1)" d="M 105.947784 161.475999 
" style="fill:none;stroke:#ffffff;stroke-linecap:square;stroke-width:1.5;"/>
    <defs>
     <path d="M 0 -5 
L -1.12257 -1.545085 
L -4.755283 -1.545085 
L -1.816356 0.59017 
L -2.938926 4.045085 
L -0 1.90983 
L 2.938926 4.045085 
L 1.816356 0.59017 
L 4.755283 -1.545085 
L 1.12257 -1.545085 
z
" id="m19228bad4e" style="stroke:#ffffff;stroke-linejoin:bevel;"/>
    </defs>
    <g clip-path="url(#p0677ecf3b1)">
     <use style="fill:#ff0000;stroke:#ffffff;stroke-linejoin:bevel;" x="105.947784" xlink:href="#m19228bad4e" y="161.475999"/>
    </g>
   </g>
   <g id="patch_3">
    <path d="M 63.336875 339.84 
L 63.336875 7.2 
" style="fill:none;stroke:#000000;stroke-linecap:square;stroke-linejoin:miter;stroke-width:0.8;"/>
   </g>
   <g id="patch_4">
    <path d="M 398.136875 339.84 
L 398.136875 7.2 
" style="fill:none;stroke:#000000;stroke-linecap:square;stroke-linejoin:miter;stroke-width:0.8;"/>
   </g>
   <g id="patch_5">
    <path d="M 63.336875 339.84 
L 398.136875 339.84 
" style="fill:none;stroke:#000000;stroke-linecap:square;stroke-linejoin:miter;stroke-width:0.8;"/>
   </g>
   <g id="patch_6">
    <path d="M 63.336875 7.2 
L 398.136875 7.2 
" style="fill:none;stroke:#000000;stroke-linecap:square;stroke-linejoin:miter;stroke-width:0.8;"/>
   </g>
   <g id="text_16">
    <g id="patch_7">
     <path d="M 75.036875 331.242688 
L 166.79375 331.242688 
L 166.79375 293.760312 
L 75.036875 293.760312 
z
" style="fill:#ffffff;stroke:#000000;stroke-linejoin:miter;stroke-width:0.75;"/>
    </g>
    <!-- Auto_00037 -->
    <g transform="translate(80.076875 308.521562)scale(0.14 -0.14)">
     <defs>
      <path d="M 2928 1419 
L 1288 1419 
L 1000 750 
Q 894 503 894 381 
Q 894 284 986 211 
Q 1078 138 1384 116 
L 1384 0 
L 50 0 
L 50 116 
Q 316 163 394 238 
Q 553 388 747 847 
L 2238 4334 
L 2347 4334 
L 3822 809 
Q 4000 384 4145 257 
Q 4291 131 4550 116 
L 4550 0 
L 2878 0 
L 2878 116 
Q 3131 128 3220 200 
Q 3309 272 3309 375 
Q 3309 513 3184 809 
L 2928 1419 
z
M 2841 1650 
L 2122 3363 
L 1384 1650 
L 2841 1650 
z
" id="TimesNewRomanPSMT-41" transform="scale(0.015625)"/>
      <path d="M 2709 2863 
L 2709 1128 
Q 2709 631 2732 520 
Q 2756 409 2807 365 
Q 2859 322 2928 322 
Q 3025 322 3147 375 
L 3191 266 
L 2334 -88 
L 2194 -88 
L 2194 519 
Q 1825 119 1631 15 
Q 1438 -88 1222 -88 
Q 981 -88 804 51 
Q 628 191 559 409 
Q 491 628 491 1028 
L 491 2306 
Q 491 2509 447 2587 
Q 403 2666 317 2708 
Q 231 2750 6 2747 
L 6 2863 
L 1009 2863 
L 1009 947 
Q 1009 547 1148 422 
Q 1288 297 1484 297 
Q 1619 297 1789 381 
Q 1959 466 2194 703 
L 2194 2325 
Q 2194 2569 2105 2655 
Q 2016 2741 1734 2747 
L 1734 2863 
L 2709 2863 
z
" id="TimesNewRomanPSMT-75" transform="scale(0.015625)"/>
      <path d="M 3256 -1381 
L -53 -1381 
L -53 -1119 
L 3256 -1119 
L 3256 -1381 
z
" id="TimesNewRomanPSMT-5f" transform="scale(0.015625)"/>
      <path d="M 644 4238 
L 2916 4238 
L 2916 4119 
L 1503 -88 
L 1153 -88 
L 2419 3728 
L 1253 3728 
Q 900 3728 750 3644 
Q 488 3500 328 3200 
L 238 3234 
L 644 4238 
z
" id="TimesNewRomanPSMT-37" transform="scale(0.015625)"/>
     </defs>
     <use xlink:href="#TimesNewRomanPSMT-41"/>
     <use x="72.216797" xlink:href="#TimesNewRomanPSMT-75"/>
     <use x="122.216797" xlink:href="#TimesNewRomanPSMT-74"/>
     <use x="150" xlink:href="#TimesNewRomanPSMT-6f"/>
     <use x="200" xlink:href="#TimesNewRomanPSMT-5f"/>
     <use x="250" xlink:href="#TimesNewRomanPSMT-30"/>
     <use x="300" xlink:href="#TimesNewRomanPSMT-30"/>
     <use x="350" xlink:href="#TimesNewRomanPSMT-30"/>
     <use x="400" xlink:href="#TimesNewRomanPSMT-33"/>
     <use x="450" xlink:href="#TimesNewRomanPSMT-37"/>
    </g>
    <!-- Vs: 259.61m/s -->
    <g transform="translate(80.076875 323.208)scale(0.14 -0.14)">
     <defs>
      <path d="M 903 2950 
Q 1047 2950 1148 2848 
Q 1250 2747 1250 2603 
Q 1250 2459 1148 2357 
Q 1047 2256 903 2256 
Q 759 2256 657 2357 
Q 556 2459 556 2603 
Q 556 2747 657 2848 
Q 759 2950 903 2950 
z
M 897 609 
Q 1044 609 1145 506 
Q 1247 403 1247 259 
Q 1247 116 1144 14 
Q 1041 -88 897 -88 
Q 753 -88 651 14 
Q 550 116 550 259 
Q 550 403 651 506 
Q 753 609 897 609 
z
" id="TimesNewRomanPSMT-3a" transform="scale(0.015625)"/>
      <path d="M 338 -88 
L 338 28 
Q 744 34 1094 217 
Q 1444 400 1770 856 
Q 2097 1313 2225 1859 
Q 1734 1544 1338 1544 
Q 891 1544 572 1889 
Q 253 2234 253 2806 
Q 253 3363 572 3797 
Q 956 4325 1575 4325 
Q 2097 4325 2469 3894 
Q 2925 3359 2925 2575 
Q 2925 1869 2578 1258 
Q 2231 647 1613 244 
Q 1109 -88 516 -88 
L 338 -88 
z
M 2275 2091 
Q 2331 2497 2331 2741 
Q 2331 3044 2228 3395 
Q 2125 3747 1936 3934 
Q 1747 4122 1506 4122 
Q 1228 4122 1018 3872 
Q 809 3622 809 3128 
Q 809 2469 1088 2097 
Q 1291 1828 1588 1828 
Q 1731 1828 1928 1897 
Q 2125 1966 2275 2091 
z
" id="TimesNewRomanPSMT-39" transform="scale(0.015625)"/>
      <path d="M 1794 4444 
L 259 -88 
L 9 -88 
L 1544 4444 
L 1794 4444 
z
" id="TimesNewRomanPSMT-2f" transform="scale(0.015625)"/>
     </defs>
     <use xlink:href="#TimesNewRomanPSMT-56"/>
     <use x="72.216797" xlink:href="#TimesNewRomanPSMT-73"/>
     <use x="111.132812" xlink:href="#TimesNewRomanPSMT-3a"/>
     <use x="138.916016" xlink:href="#TimesNewRomanPSMT-20"/>
     <use x="163.916016" xlink:href="#TimesNewRomanPSMT-32"/>
     <use x="213.916016" xlink:href="#TimesNewRomanPSMT-35"/>
     <use x="263.916016" xlink:href="#TimesNewRomanPSMT-39"/>
     <use x="313.916016" xlink:href="#TimesNewRomanPSMT-2e"/>
     <use x="338.916016" xlink:href="#TimesNewRomanPSMT-36"/>
     <use x="388.916016" xlink:href="#TimesNewRomanPSMT-31"/>
     <use x="438.916016" xlink:href="#TimesNewRomanPSMT-6d"/>
     <use x="516.699219" xlink:href="#TimesNewRomanPSMT-2f"/>
     <use x="544.482422" xlink:href="#TimesNewRomanPSMT-73"/>
    </g>
   </g>
  </g>
 </g>
 <defs>
  <clipPath id="p0677ecf3b1">
   <rect height="332.64" width="334.8" x="63.336875" y="7.2"/>
  </clipPath>
 </defs>
</svg>
