<?xml version="1.0" encoding="utf-8" standalone="no"?>
<!DOCTYPE svg PUBLIC "-//W3C//DTD SVG 1.1//EN"
  "http://www.w3.org/Graphics/SVG/1.1/DTD/svg11.dtd">
<svg height="383.471875pt" version="1.1" viewBox="0 0 421.086875 383.471875" width="421.086875pt" xmlns="http://www.w3.org/2000/svg" xmlns:xlink="http://www.w3.org/1999/xlink">
 <metadata>
  <rdf:RDF xmlns:cc="http://creativecommons.org/ns#" xmlns:dc="http://purl.org/dc/elements/1.1/" xmlns:rdf="http://www.w3.org/1999/02/22-rdf-syntax-ns#">
   <cc:Work>
    <dc:type rdf:resource="http://purl.org/dc/dcmitype/StillImage"/>
    <dc:date>2021-06-11T14:39:38.963397</dc:date>
    <dc:format>image/svg+xml</dc:format>
    <dc:creator>
     <cc:Agent>
      <dc:title>Matplotlib v3.4.2, https://matplotlib.org/</dc:title>
     </cc:Agent>
    </dc:creator>
   </cc:Work>
  </rdf:RDF>
 </metadata>
 <defs>
  <style type="text/css">*{stroke-linecap:butt;stroke-linejoin:round;}</style>
 </defs>
 <g id="figure_1">
  <g id="patch_1">
   <path d="M 0 383.471875 
L 421.086875 383.471875 
L 421.086875 0 
L 0 0 
z
" style="fill:#ffffff;"/>
  </g>
  <g id="axes_1">
   <g id="patch_2">
    <path d="M 63.336875 339.84 
L 398.136875 339.84 
L 398.136875 7.2 
L 63.336875 7.2 
z
" style="fill:#ffffff;"/>
   </g>
   <g id="matplotlib.axis_1">
    <g id="xtick_1">
     <g id="line2d_1">
      <path clip-path="url(#pa8e124a852)" d="M 93.773239 339.84 
L 93.773239 7.2 
" style="fill:none;stroke:#000000;stroke-dasharray:0.5,0.825;stroke-dashoffset:0;stroke-width:0.5;"/>
     </g>
     <g id="line2d_2">
      <defs>
       <path d="M 0 0 
L 0 3.5 
" id="m1e3fdaac3d" style="stroke:#000000;stroke-width:0.8;"/>
      </defs>
      <g>
       <use style="stroke:#000000;stroke-width:0.8;" x="93.773239" xlink:href="#m1e3fdaac3d" y="339.84"/>
      </g>
     </g>
     <g id="text_1">
      <!-- 0.000 -->
      <g transform="translate(78.023239 356.56125)scale(0.14 -0.14)">
       <defs>
        <path d="M 231 2094 
Q 231 2819 450 3342 
Q 669 3866 1031 4122 
Q 1313 4325 1613 4325 
Q 2100 4325 2488 3828 
Q 2972 3213 2972 2159 
Q 2972 1422 2759 906 
Q 2547 391 2217 158 
Q 1888 -75 1581 -75 
Q 975 -75 572 641 
Q 231 1244 231 2094 
z
M 844 2016 
Q 844 1141 1059 588 
Q 1238 122 1591 122 
Q 1759 122 1940 273 
Q 2122 425 2216 781 
Q 2359 1319 2359 2297 
Q 2359 3022 2209 3506 
Q 2097 3866 1919 4016 
Q 1791 4119 1609 4119 
Q 1397 4119 1231 3928 
Q 1006 3669 925 3112 
Q 844 2556 844 2016 
z
" id="TimesNewRomanPSMT-30" transform="scale(0.015625)"/>
        <path d="M 800 606 
Q 947 606 1047 504 
Q 1147 403 1147 259 
Q 1147 116 1045 14 
Q 944 -88 800 -88 
Q 656 -88 554 14 
Q 453 116 453 259 
Q 453 406 554 506 
Q 656 606 800 606 
z
" id="TimesNewRomanPSMT-2e" transform="scale(0.015625)"/>
       </defs>
       <use xlink:href="#TimesNewRomanPSMT-30"/>
       <use x="50" xlink:href="#TimesNewRomanPSMT-2e"/>
       <use x="75" xlink:href="#TimesNewRomanPSMT-30"/>
       <use x="125" xlink:href="#TimesNewRomanPSMT-30"/>
       <use x="175" xlink:href="#TimesNewRomanPSMT-30"/>
      </g>
     </g>
    </g>
    <g id="xtick_2">
     <g id="line2d_3">
      <path clip-path="url(#pa8e124a852)" d="M 154.645966 339.84 
L 154.645966 7.2 
" style="fill:none;stroke:#000000;stroke-dasharray:0.5,0.825;stroke-dashoffset:0;stroke-width:0.5;"/>
     </g>
     <g id="line2d_4">
      <g>
       <use style="stroke:#000000;stroke-width:0.8;" x="154.645966" xlink:href="#m1e3fdaac3d" y="339.84"/>
      </g>
     </g>
     <g id="text_2">
      <!-- 0.001 -->
      <g transform="translate(138.895966 356.56125)scale(0.14 -0.14)">
       <defs>
        <path d="M 750 3822 
L 1781 4325 
L 1884 4325 
L 1884 747 
Q 1884 391 1914 303 
Q 1944 216 2037 169 
Q 2131 122 2419 116 
L 2419 0 
L 825 0 
L 825 116 
Q 1125 122 1212 167 
Q 1300 213 1334 289 
Q 1369 366 1369 747 
L 1369 3034 
Q 1369 3497 1338 3628 
Q 1316 3728 1258 3775 
Q 1200 3822 1119 3822 
Q 1003 3822 797 3725 
L 750 3822 
z
" id="TimesNewRomanPSMT-31" transform="scale(0.015625)"/>
       </defs>
       <use xlink:href="#TimesNewRomanPSMT-30"/>
       <use x="50" xlink:href="#TimesNewRomanPSMT-2e"/>
       <use x="75" xlink:href="#TimesNewRomanPSMT-30"/>
       <use x="125" xlink:href="#TimesNewRomanPSMT-30"/>
       <use x="175" xlink:href="#TimesNewRomanPSMT-31"/>
      </g>
     </g>
    </g>
    <g id="xtick_3">
     <g id="line2d_5">
      <path clip-path="url(#pa8e124a852)" d="M 215.518693 339.84 
L 215.518693 7.2 
" style="fill:none;stroke:#000000;stroke-dasharray:0.5,0.825;stroke-dashoffset:0;stroke-width:0.5;"/>
     </g>
     <g id="line2d_6">
      <g>
       <use style="stroke:#000000;stroke-width:0.8;" x="215.518693" xlink:href="#m1e3fdaac3d" y="339.84"/>
      </g>
     </g>
     <g id="text_3">
      <!-- 0.002 -->
      <g transform="translate(199.768693 356.56125)scale(0.14 -0.14)">
       <defs>
        <path d="M 2934 816 
L 2638 0 
L 138 0 
L 138 116 
Q 1241 1122 1691 1759 
Q 2141 2397 2141 2925 
Q 2141 3328 1894 3587 
Q 1647 3847 1303 3847 
Q 991 3847 742 3664 
Q 494 3481 375 3128 
L 259 3128 
Q 338 3706 661 4015 
Q 984 4325 1469 4325 
Q 1984 4325 2329 3994 
Q 2675 3663 2675 3213 
Q 2675 2891 2525 2569 
Q 2294 2063 1775 1497 
Q 997 647 803 472 
L 1909 472 
Q 2247 472 2383 497 
Q 2519 522 2628 598 
Q 2738 675 2819 816 
L 2934 816 
z
" id="TimesNewRomanPSMT-32" transform="scale(0.015625)"/>
       </defs>
       <use xlink:href="#TimesNewRomanPSMT-30"/>
       <use x="50" xlink:href="#TimesNewRomanPSMT-2e"/>
       <use x="75" xlink:href="#TimesNewRomanPSMT-30"/>
       <use x="125" xlink:href="#TimesNewRomanPSMT-30"/>
       <use x="175" xlink:href="#TimesNewRomanPSMT-32"/>
      </g>
     </g>
    </g>
    <g id="xtick_4">
     <g id="line2d_7">
      <path clip-path="url(#pa8e124a852)" d="M 276.39142 339.84 
L 276.39142 7.2 
" style="fill:none;stroke:#000000;stroke-dasharray:0.5,0.825;stroke-dashoffset:0;stroke-width:0.5;"/>
     </g>
     <g id="line2d_8">
      <g>
       <use style="stroke:#000000;stroke-width:0.8;" x="276.39142" xlink:href="#m1e3fdaac3d" y="339.84"/>
      </g>
     </g>
     <g id="text_4">
      <!-- 0.003 -->
      <g transform="translate(260.64142 356.56125)scale(0.14 -0.14)">
       <defs>
        <path d="M 325 3431 
Q 506 3859 782 4092 
Q 1059 4325 1472 4325 
Q 1981 4325 2253 3994 
Q 2459 3747 2459 3466 
Q 2459 3003 1878 2509 
Q 2269 2356 2469 2072 
Q 2669 1788 2669 1403 
Q 2669 853 2319 450 
Q 1863 -75 997 -75 
Q 569 -75 414 31 
Q 259 138 259 259 
Q 259 350 332 419 
Q 406 488 509 488 
Q 588 488 669 463 
Q 722 447 909 348 
Q 1097 250 1169 231 
Q 1284 197 1416 197 
Q 1734 197 1970 444 
Q 2206 691 2206 1028 
Q 2206 1275 2097 1509 
Q 2016 1684 1919 1775 
Q 1784 1900 1550 2001 
Q 1316 2103 1072 2103 
L 972 2103 
L 972 2197 
Q 1219 2228 1467 2375 
Q 1716 2522 1828 2728 
Q 1941 2934 1941 3181 
Q 1941 3503 1739 3701 
Q 1538 3900 1238 3900 
Q 753 3900 428 3381 
L 325 3431 
z
" id="TimesNewRomanPSMT-33" transform="scale(0.015625)"/>
       </defs>
       <use xlink:href="#TimesNewRomanPSMT-30"/>
       <use x="50" xlink:href="#TimesNewRomanPSMT-2e"/>
       <use x="75" xlink:href="#TimesNewRomanPSMT-30"/>
       <use x="125" xlink:href="#TimesNewRomanPSMT-30"/>
       <use x="175" xlink:href="#TimesNewRomanPSMT-33"/>
      </g>
     </g>
    </g>
    <g id="xtick_5">
     <g id="line2d_9">
      <path clip-path="url(#pa8e124a852)" d="M 337.264148 339.84 
L 337.264148 7.2 
" style="fill:none;stroke:#000000;stroke-dasharray:0.5,0.825;stroke-dashoffset:0;stroke-width:0.5;"/>
     </g>
     <g id="line2d_10">
      <g>
       <use style="stroke:#000000;stroke-width:0.8;" x="337.264148" xlink:href="#m1e3fdaac3d" y="339.84"/>
      </g>
     </g>
     <g id="text_5">
      <!-- 0.004 -->
      <g transform="translate(321.514148 356.56125)scale(0.14 -0.14)">
       <defs>
        <path d="M 2978 1563 
L 2978 1119 
L 2409 1119 
L 2409 0 
L 1894 0 
L 1894 1119 
L 100 1119 
L 100 1519 
L 2066 4325 
L 2409 4325 
L 2409 1563 
L 2978 1563 
z
M 1894 1563 
L 1894 3666 
L 406 1563 
L 1894 1563 
z
" id="TimesNewRomanPSMT-34" transform="scale(0.015625)"/>
       </defs>
       <use xlink:href="#TimesNewRomanPSMT-30"/>
       <use x="50" xlink:href="#TimesNewRomanPSMT-2e"/>
       <use x="75" xlink:href="#TimesNewRomanPSMT-30"/>
       <use x="125" xlink:href="#TimesNewRomanPSMT-30"/>
       <use x="175" xlink:href="#TimesNewRomanPSMT-34"/>
      </g>
     </g>
    </g>
    <g id="xtick_6">
     <g id="line2d_11">
      <path clip-path="url(#pa8e124a852)" d="M 398.136875 339.84 
L 398.136875 7.2 
" style="fill:none;stroke:#000000;stroke-dasharray:0.5,0.825;stroke-dashoffset:0;stroke-width:0.5;"/>
     </g>
     <g id="line2d_12">
      <g>
       <use style="stroke:#000000;stroke-width:0.8;" x="398.136875" xlink:href="#m1e3fdaac3d" y="339.84"/>
      </g>
     </g>
     <g id="text_6">
      <!-- 0.005 -->
      <g transform="translate(382.386875 356.56125)scale(0.14 -0.14)">
       <defs>
        <path d="M 2778 4238 
L 2534 3706 
L 1259 3706 
L 981 3138 
Q 1809 3016 2294 2522 
Q 2709 2097 2709 1522 
Q 2709 1188 2573 903 
Q 2438 619 2231 419 
Q 2025 219 1772 97 
Q 1413 -75 1034 -75 
Q 653 -75 479 54 
Q 306 184 306 341 
Q 306 428 378 495 
Q 450 563 559 563 
Q 641 563 702 538 
Q 763 513 909 409 
Q 1144 247 1384 247 
Q 1750 247 2026 523 
Q 2303 800 2303 1197 
Q 2303 1581 2056 1914 
Q 1809 2247 1375 2428 
Q 1034 2569 447 2591 
L 1259 4238 
L 2778 4238 
z
" id="TimesNewRomanPSMT-35" transform="scale(0.015625)"/>
       </defs>
       <use xlink:href="#TimesNewRomanPSMT-30"/>
       <use x="50" xlink:href="#TimesNewRomanPSMT-2e"/>
       <use x="75" xlink:href="#TimesNewRomanPSMT-30"/>
       <use x="125" xlink:href="#TimesNewRomanPSMT-30"/>
       <use x="175" xlink:href="#TimesNewRomanPSMT-35"/>
      </g>
     </g>
    </g>
    <g id="text_7">
     <!-- Time (sec) -->
     <g transform="translate(200.858906 373.277188)scale(0.14 -0.14)">
      <defs>
       <path d="M 3703 4238 
L 3750 3244 
L 3631 3244 
Q 3597 3506 3538 3619 
Q 3441 3800 3280 3886 
Q 3119 3972 2856 3972 
L 2259 3972 
L 2259 734 
Q 2259 344 2344 247 
Q 2463 116 2709 116 
L 2856 116 
L 2856 0 
L 1059 0 
L 1059 116 
L 1209 116 
Q 1478 116 1591 278 
Q 1659 378 1659 734 
L 1659 3972 
L 1150 3972 
Q 853 3972 728 3928 
Q 566 3869 450 3700 
Q 334 3531 313 3244 
L 194 3244 
L 244 4238 
L 3703 4238 
z
" id="TimesNewRomanPSMT-54" transform="scale(0.015625)"/>
       <path d="M 928 4444 
Q 1059 4444 1151 4351 
Q 1244 4259 1244 4128 
Q 1244 3997 1151 3903 
Q 1059 3809 928 3809 
Q 797 3809 703 3903 
Q 609 3997 609 4128 
Q 609 4259 701 4351 
Q 794 4444 928 4444 
z
M 1188 2947 
L 1188 647 
Q 1188 378 1227 289 
Q 1266 200 1342 156 
Q 1419 113 1622 113 
L 1622 0 
L 231 0 
L 231 113 
Q 441 113 512 153 
Q 584 194 626 287 
Q 669 381 669 647 
L 669 1750 
Q 669 2216 641 2353 
Q 619 2453 572 2492 
Q 525 2531 444 2531 
Q 356 2531 231 2484 
L 188 2597 
L 1050 2947 
L 1188 2947 
z
" id="TimesNewRomanPSMT-69" transform="scale(0.015625)"/>
       <path d="M 1050 2338 
Q 1363 2650 1419 2697 
Q 1559 2816 1721 2881 
Q 1884 2947 2044 2947 
Q 2313 2947 2506 2790 
Q 2700 2634 2766 2338 
Q 3088 2713 3309 2830 
Q 3531 2947 3766 2947 
Q 3994 2947 4170 2830 
Q 4347 2713 4450 2447 
Q 4519 2266 4519 1878 
L 4519 647 
Q 4519 378 4559 278 
Q 4591 209 4675 161 
Q 4759 113 4950 113 
L 4950 0 
L 3538 0 
L 3538 113 
L 3597 113 
Q 3781 113 3884 184 
Q 3956 234 3988 344 
Q 4000 397 4000 647 
L 4000 1878 
Q 4000 2228 3916 2372 
Q 3794 2572 3525 2572 
Q 3359 2572 3192 2489 
Q 3025 2406 2788 2181 
L 2781 2147 
L 2788 2013 
L 2788 647 
Q 2788 353 2820 281 
Q 2853 209 2943 161 
Q 3034 113 3253 113 
L 3253 0 
L 1806 0 
L 1806 113 
Q 2044 113 2133 169 
Q 2222 225 2256 338 
Q 2272 391 2272 647 
L 2272 1878 
Q 2272 2228 2169 2381 
Q 2031 2581 1784 2581 
Q 1616 2581 1450 2491 
Q 1191 2353 1050 2181 
L 1050 647 
Q 1050 366 1089 281 
Q 1128 197 1204 155 
Q 1281 113 1516 113 
L 1516 0 
L 100 0 
L 100 113 
Q 297 113 375 155 
Q 453 197 493 289 
Q 534 381 534 647 
L 534 1741 
Q 534 2213 506 2350 
Q 484 2453 437 2492 
Q 391 2531 309 2531 
Q 222 2531 100 2484 
L 53 2597 
L 916 2947 
L 1050 2947 
L 1050 2338 
z
" id="TimesNewRomanPSMT-6d" transform="scale(0.015625)"/>
       <path d="M 681 1784 
Q 678 1147 991 784 
Q 1303 422 1725 422 
Q 2006 422 2214 576 
Q 2422 731 2563 1106 
L 2659 1044 
Q 2594 616 2278 264 
Q 1963 -88 1488 -88 
Q 972 -88 605 314 
Q 238 716 238 1394 
Q 238 2128 614 2539 
Q 991 2950 1559 2950 
Q 2041 2950 2350 2633 
Q 2659 2316 2659 1784 
L 681 1784 
z
M 681 1966 
L 2006 1966 
Q 1991 2241 1941 2353 
Q 1863 2528 1708 2628 
Q 1553 2728 1384 2728 
Q 1125 2728 920 2526 
Q 716 2325 681 1966 
z
" id="TimesNewRomanPSMT-65" transform="scale(0.015625)"/>
       <path id="TimesNewRomanPSMT-20" transform="scale(0.015625)"/>
       <path d="M 1988 -1253 
L 1988 -1369 
Q 1516 -1131 1200 -813 
Q 750 -359 506 256 
Q 263 872 263 1534 
Q 263 2503 741 3301 
Q 1219 4100 1988 4444 
L 1988 4313 
Q 1603 4100 1356 3731 
Q 1109 3363 987 2797 
Q 866 2231 866 1616 
Q 866 947 969 400 
Q 1050 -31 1165 -292 
Q 1281 -553 1476 -793 
Q 1672 -1034 1988 -1253 
z
" id="TimesNewRomanPSMT-28" transform="scale(0.015625)"/>
       <path d="M 2050 2947 
L 2050 1972 
L 1947 1972 
Q 1828 2431 1642 2597 
Q 1456 2763 1169 2763 
Q 950 2763 815 2647 
Q 681 2531 681 2391 
Q 681 2216 781 2091 
Q 878 1963 1175 1819 
L 1631 1597 
Q 2266 1288 2266 781 
Q 2266 391 1970 151 
Q 1675 -88 1309 -88 
Q 1047 -88 709 6 
Q 606 38 541 38 
Q 469 38 428 -44 
L 325 -44 
L 325 978 
L 428 978 
Q 516 541 762 319 
Q 1009 97 1316 97 
Q 1531 97 1667 223 
Q 1803 350 1803 528 
Q 1803 744 1651 891 
Q 1500 1038 1047 1263 
Q 594 1488 453 1669 
Q 313 1847 313 2119 
Q 313 2472 555 2709 
Q 797 2947 1181 2947 
Q 1350 2947 1591 2875 
Q 1750 2828 1803 2828 
Q 1853 2828 1881 2850 
Q 1909 2872 1947 2947 
L 2050 2947 
z
" id="TimesNewRomanPSMT-73" transform="scale(0.015625)"/>
       <path d="M 2631 1088 
Q 2516 522 2178 217 
Q 1841 -88 1431 -88 
Q 944 -88 581 321 
Q 219 731 219 1428 
Q 219 2103 620 2525 
Q 1022 2947 1584 2947 
Q 2006 2947 2278 2723 
Q 2550 2500 2550 2259 
Q 2550 2141 2473 2067 
Q 2397 1994 2259 1994 
Q 2075 1994 1981 2113 
Q 1928 2178 1911 2362 
Q 1894 2547 1784 2644 
Q 1675 2738 1481 2738 
Q 1169 2738 978 2506 
Q 725 2200 725 1697 
Q 725 1184 976 792 
Q 1228 400 1656 400 
Q 1963 400 2206 609 
Q 2378 753 2541 1131 
L 2631 1088 
z
" id="TimesNewRomanPSMT-63" transform="scale(0.015625)"/>
       <path d="M 144 4313 
L 144 4444 
Q 619 4209 934 3891 
Q 1381 3434 1625 2820 
Q 1869 2206 1869 1541 
Q 1869 572 1392 -226 
Q 916 -1025 144 -1369 
L 144 -1253 
Q 528 -1038 776 -670 
Q 1025 -303 1145 264 
Q 1266 831 1266 1447 
Q 1266 2113 1163 2663 
Q 1084 3094 967 3353 
Q 850 3613 656 3853 
Q 463 4094 144 4313 
z
" id="TimesNewRomanPSMT-29" transform="scale(0.015625)"/>
      </defs>
      <use xlink:href="#TimesNewRomanPSMT-54"/>
      <use x="57.583984" xlink:href="#TimesNewRomanPSMT-69"/>
      <use x="85.367188" xlink:href="#TimesNewRomanPSMT-6d"/>
      <use x="163.150391" xlink:href="#TimesNewRomanPSMT-65"/>
      <use x="207.535156" xlink:href="#TimesNewRomanPSMT-20"/>
      <use x="232.535156" xlink:href="#TimesNewRomanPSMT-28"/>
      <use x="265.835938" xlink:href="#TimesNewRomanPSMT-73"/>
      <use x="304.751953" xlink:href="#TimesNewRomanPSMT-65"/>
      <use x="349.136719" xlink:href="#TimesNewRomanPSMT-63"/>
      <use x="393.521484" xlink:href="#TimesNewRomanPSMT-29"/>
     </g>
    </g>
   </g>
   <g id="matplotlib.axis_2">
    <g id="ytick_1">
     <g id="line2d_13">
      <path clip-path="url(#pa8e124a852)" d="M 63.336875 322.629594 
L 398.136875 322.629594 
" style="fill:none;stroke:#000000;stroke-dasharray:0.5,0.825;stroke-dashoffset:0;stroke-width:0.5;"/>
     </g>
     <g id="line2d_14">
      <defs>
       <path d="M 0 0 
L -3.5 0 
" id="m58b59fb48b" style="stroke:#000000;stroke-width:0.8;"/>
      </defs>
      <g>
       <use style="stroke:#000000;stroke-width:0.8;" x="63.336875" xlink:href="#m58b59fb48b" y="322.629594"/>
      </g>
     </g>
     <g id="text_8">
      <!-- −0.06 -->
      <g transform="translate(23.942188 327.490219)scale(0.14 -0.14)">
       <defs>
        <path d="M 3484 2000 
L 116 2000 
L 116 2256 
L 3484 2256 
L 3484 2000 
z
" id="TimesNewRomanPSMT-2212" transform="scale(0.015625)"/>
        <path d="M 2869 4325 
L 2869 4209 
Q 2456 4169 2195 4045 
Q 1934 3922 1679 3669 
Q 1425 3416 1258 3105 
Q 1091 2794 978 2366 
Q 1428 2675 1881 2675 
Q 2316 2675 2634 2325 
Q 2953 1975 2953 1425 
Q 2953 894 2631 456 
Q 2244 -75 1606 -75 
Q 1172 -75 869 213 
Q 275 772 275 1663 
Q 275 2231 503 2743 
Q 731 3256 1154 3653 
Q 1578 4050 1965 4187 
Q 2353 4325 2688 4325 
L 2869 4325 
z
M 925 2138 
Q 869 1716 869 1456 
Q 869 1156 980 804 
Q 1091 453 1309 247 
Q 1469 100 1697 100 
Q 1969 100 2183 356 
Q 2397 613 2397 1088 
Q 2397 1622 2184 2012 
Q 1972 2403 1581 2403 
Q 1463 2403 1327 2353 
Q 1191 2303 925 2138 
z
" id="TimesNewRomanPSMT-36" transform="scale(0.015625)"/>
       </defs>
       <use xlink:href="#TimesNewRomanPSMT-2212"/>
       <use x="56.396484" xlink:href="#TimesNewRomanPSMT-30"/>
       <use x="106.396484" xlink:href="#TimesNewRomanPSMT-2e"/>
       <use x="131.396484" xlink:href="#TimesNewRomanPSMT-30"/>
       <use x="181.396484" xlink:href="#TimesNewRomanPSMT-36"/>
      </g>
     </g>
    </g>
    <g id="ytick_2">
     <g id="line2d_15">
      <path clip-path="url(#pa8e124a852)" d="M 63.336875 267.777613 
L 398.136875 267.777613 
" style="fill:none;stroke:#000000;stroke-dasharray:0.5,0.825;stroke-dashoffset:0;stroke-width:0.5;"/>
     </g>
     <g id="line2d_16">
      <g>
       <use style="stroke:#000000;stroke-width:0.8;" x="63.336875" xlink:href="#m58b59fb48b" y="267.777613"/>
      </g>
     </g>
     <g id="text_9">
      <!-- −0.04 -->
      <g transform="translate(23.942188 272.638238)scale(0.14 -0.14)">
       <use xlink:href="#TimesNewRomanPSMT-2212"/>
       <use x="56.396484" xlink:href="#TimesNewRomanPSMT-30"/>
       <use x="106.396484" xlink:href="#TimesNewRomanPSMT-2e"/>
       <use x="131.396484" xlink:href="#TimesNewRomanPSMT-30"/>
       <use x="181.396484" xlink:href="#TimesNewRomanPSMT-34"/>
      </g>
     </g>
    </g>
    <g id="ytick_3">
     <g id="line2d_17">
      <path clip-path="url(#pa8e124a852)" d="M 63.336875 212.925632 
L 398.136875 212.925632 
" style="fill:none;stroke:#000000;stroke-dasharray:0.5,0.825;stroke-dashoffset:0;stroke-width:0.5;"/>
     </g>
     <g id="line2d_18">
      <g>
       <use style="stroke:#000000;stroke-width:0.8;" x="63.336875" xlink:href="#m58b59fb48b" y="212.925632"/>
      </g>
     </g>
     <g id="text_10">
      <!-- −0.02 -->
      <g transform="translate(23.942188 217.786257)scale(0.14 -0.14)">
       <use xlink:href="#TimesNewRomanPSMT-2212"/>
       <use x="56.396484" xlink:href="#TimesNewRomanPSMT-30"/>
       <use x="106.396484" xlink:href="#TimesNewRomanPSMT-2e"/>
       <use x="131.396484" xlink:href="#TimesNewRomanPSMT-30"/>
       <use x="181.396484" xlink:href="#TimesNewRomanPSMT-32"/>
      </g>
     </g>
    </g>
    <g id="ytick_4">
     <g id="line2d_19">
      <path clip-path="url(#pa8e124a852)" d="M 63.336875 158.073651 
L 398.136875 158.073651 
" style="fill:none;stroke:#000000;stroke-dasharray:0.5,0.825;stroke-dashoffset:0;stroke-width:0.5;"/>
     </g>
     <g id="line2d_20">
      <g>
       <use style="stroke:#000000;stroke-width:0.8;" x="63.336875" xlink:href="#m58b59fb48b" y="158.073651"/>
      </g>
     </g>
     <g id="text_11">
      <!-- 0.00 -->
      <g transform="translate(31.836875 162.934276)scale(0.14 -0.14)">
       <use xlink:href="#TimesNewRomanPSMT-30"/>
       <use x="50" xlink:href="#TimesNewRomanPSMT-2e"/>
       <use x="75" xlink:href="#TimesNewRomanPSMT-30"/>
       <use x="125" xlink:href="#TimesNewRomanPSMT-30"/>
      </g>
     </g>
    </g>
    <g id="ytick_5">
     <g id="line2d_21">
      <path clip-path="url(#pa8e124a852)" d="M 63.336875 103.22167 
L 398.136875 103.22167 
" style="fill:none;stroke:#000000;stroke-dasharray:0.5,0.825;stroke-dashoffset:0;stroke-width:0.5;"/>
     </g>
     <g id="line2d_22">
      <g>
       <use style="stroke:#000000;stroke-width:0.8;" x="63.336875" xlink:href="#m58b59fb48b" y="103.22167"/>
      </g>
     </g>
     <g id="text_12">
      <!-- 0.02 -->
      <g transform="translate(31.836875 108.082295)scale(0.14 -0.14)">
       <use xlink:href="#TimesNewRomanPSMT-30"/>
       <use x="50" xlink:href="#TimesNewRomanPSMT-2e"/>
       <use x="75" xlink:href="#TimesNewRomanPSMT-30"/>
       <use x="125" xlink:href="#TimesNewRomanPSMT-32"/>
      </g>
     </g>
    </g>
    <g id="ytick_6">
     <g id="line2d_23">
      <path clip-path="url(#pa8e124a852)" d="M 63.336875 48.369688 
L 398.136875 48.369688 
" style="fill:none;stroke:#000000;stroke-dasharray:0.5,0.825;stroke-dashoffset:0;stroke-width:0.5;"/>
     </g>
     <g id="line2d_24">
      <g>
       <use style="stroke:#000000;stroke-width:0.8;" x="63.336875" xlink:href="#m58b59fb48b" y="48.369688"/>
      </g>
     </g>
     <g id="text_13">
      <!-- 0.04 -->
      <g transform="translate(31.836875 53.230313)scale(0.14 -0.14)">
       <use xlink:href="#TimesNewRomanPSMT-30"/>
       <use x="50" xlink:href="#TimesNewRomanPSMT-2e"/>
       <use x="75" xlink:href="#TimesNewRomanPSMT-30"/>
       <use x="125" xlink:href="#TimesNewRomanPSMT-34"/>
      </g>
     </g>
    </g>
    <g id="text_14">
     <!-- Volatage (V) -->
     <g transform="translate(16.92125 209.352344)rotate(-90)scale(0.14 -0.14)">
      <defs>
       <path d="M 4544 4238 
L 4544 4122 
Q 4319 4081 4203 3978 
Q 4038 3825 3909 3509 
L 2431 -97 
L 2316 -97 
L 728 3556 
Q 606 3838 556 3900 
Q 478 3997 364 4051 
Q 250 4106 56 4122 
L 56 4238 
L 1788 4238 
L 1788 4122 
Q 1494 4094 1406 4022 
Q 1319 3950 1319 3838 
Q 1319 3681 1463 3350 
L 2541 866 
L 3541 3319 
Q 3688 3681 3688 3822 
Q 3688 3913 3597 3995 
Q 3506 4078 3291 4113 
Q 3275 4116 3238 4122 
L 3238 4238 
L 4544 4238 
z
" id="TimesNewRomanPSMT-56" transform="scale(0.015625)"/>
       <path d="M 1600 2947 
Q 2250 2947 2644 2453 
Q 2978 2031 2978 1484 
Q 2978 1100 2793 706 
Q 2609 313 2286 112 
Q 1963 -88 1566 -88 
Q 919 -88 538 428 
Q 216 863 216 1403 
Q 216 1797 411 2186 
Q 606 2575 925 2761 
Q 1244 2947 1600 2947 
z
M 1503 2744 
Q 1338 2744 1170 2645 
Q 1003 2547 900 2300 
Q 797 2053 797 1666 
Q 797 1041 1045 587 
Q 1294 134 1700 134 
Q 2003 134 2200 384 
Q 2397 634 2397 1244 
Q 2397 2006 2069 2444 
Q 1847 2744 1503 2744 
z
" id="TimesNewRomanPSMT-6f" transform="scale(0.015625)"/>
       <path d="M 1184 4444 
L 1184 647 
Q 1184 378 1223 290 
Q 1263 203 1344 158 
Q 1425 113 1647 113 
L 1647 0 
L 244 0 
L 244 113 
Q 441 113 512 153 
Q 584 194 625 287 
Q 666 381 666 647 
L 666 3247 
Q 666 3731 644 3842 
Q 622 3953 573 3993 
Q 525 4034 450 4034 
Q 369 4034 244 3984 
L 191 4094 
L 1044 4444 
L 1184 4444 
z
" id="TimesNewRomanPSMT-6c" transform="scale(0.015625)"/>
       <path d="M 1822 413 
Q 1381 72 1269 19 
Q 1100 -59 909 -59 
Q 613 -59 420 144 
Q 228 347 228 678 
Q 228 888 322 1041 
Q 450 1253 767 1440 
Q 1084 1628 1822 1897 
L 1822 2009 
Q 1822 2438 1686 2597 
Q 1550 2756 1291 2756 
Q 1094 2756 978 2650 
Q 859 2544 859 2406 
L 866 2225 
Q 866 2081 792 2003 
Q 719 1925 600 1925 
Q 484 1925 411 2006 
Q 338 2088 338 2228 
Q 338 2497 613 2722 
Q 888 2947 1384 2947 
Q 1766 2947 2009 2819 
Q 2194 2722 2281 2516 
Q 2338 2381 2338 1966 
L 2338 994 
Q 2338 584 2353 492 
Q 2369 400 2405 369 
Q 2441 338 2488 338 
Q 2538 338 2575 359 
Q 2641 400 2828 588 
L 2828 413 
Q 2478 -56 2159 -56 
Q 2006 -56 1915 50 
Q 1825 156 1822 413 
z
M 1822 616 
L 1822 1706 
Q 1350 1519 1213 1441 
Q 966 1303 859 1153 
Q 753 1003 753 825 
Q 753 600 887 451 
Q 1022 303 1197 303 
Q 1434 303 1822 616 
z
" id="TimesNewRomanPSMT-61" transform="scale(0.015625)"/>
       <path d="M 1031 3803 
L 1031 2863 
L 1700 2863 
L 1700 2644 
L 1031 2644 
L 1031 788 
Q 1031 509 1111 412 
Q 1191 316 1316 316 
Q 1419 316 1516 380 
Q 1613 444 1666 569 
L 1788 569 
Q 1678 263 1478 108 
Q 1278 -47 1066 -47 
Q 922 -47 784 33 
Q 647 113 581 261 
Q 516 409 516 719 
L 516 2644 
L 63 2644 
L 63 2747 
Q 234 2816 414 2980 
Q 594 3144 734 3369 
Q 806 3488 934 3803 
L 1031 3803 
z
" id="TimesNewRomanPSMT-74" transform="scale(0.015625)"/>
       <path d="M 966 1044 
Q 703 1172 562 1401 
Q 422 1631 422 1909 
Q 422 2334 742 2640 
Q 1063 2947 1563 2947 
Q 1972 2947 2272 2747 
L 2878 2747 
Q 3013 2747 3034 2739 
Q 3056 2731 3066 2713 
Q 3084 2684 3084 2613 
Q 3084 2531 3069 2500 
Q 3059 2484 3036 2475 
Q 3013 2466 2878 2466 
L 2506 2466 
Q 2681 2241 2681 1891 
Q 2681 1491 2375 1206 
Q 2069 922 1553 922 
Q 1341 922 1119 984 
Q 981 866 932 777 
Q 884 688 884 625 
Q 884 572 936 522 
Q 988 472 1138 450 
Q 1225 438 1575 428 
Q 2219 413 2409 384 
Q 2700 344 2873 169 
Q 3047 -6 3047 -263 
Q 3047 -616 2716 -925 
Q 2228 -1381 1444 -1381 
Q 841 -1381 425 -1109 
Q 191 -953 191 -784 
Q 191 -709 225 -634 
Q 278 -519 444 -313 
Q 466 -284 763 25 
Q 600 122 533 198 
Q 466 275 466 372 
Q 466 481 555 628 
Q 644 775 966 1044 
z
M 1509 2797 
Q 1278 2797 1122 2612 
Q 966 2428 966 2047 
Q 966 1553 1178 1281 
Q 1341 1075 1591 1075 
Q 1828 1075 1981 1253 
Q 2134 1431 2134 1813 
Q 2134 2309 1919 2591 
Q 1759 2797 1509 2797 
z
M 934 0 
Q 788 -159 713 -296 
Q 638 -434 638 -550 
Q 638 -700 819 -813 
Q 1131 -1006 1722 -1006 
Q 2284 -1006 2551 -807 
Q 2819 -609 2819 -384 
Q 2819 -222 2659 -153 
Q 2497 -84 2016 -72 
Q 1313 -53 934 0 
z
" id="TimesNewRomanPSMT-67" transform="scale(0.015625)"/>
      </defs>
      <use xlink:href="#TimesNewRomanPSMT-56"/>
      <use x="59.341797" xlink:href="#TimesNewRomanPSMT-6f"/>
      <use x="109.341797" xlink:href="#TimesNewRomanPSMT-6c"/>
      <use x="137.125" xlink:href="#TimesNewRomanPSMT-61"/>
      <use x="181.509766" xlink:href="#TimesNewRomanPSMT-74"/>
      <use x="209.292969" xlink:href="#TimesNewRomanPSMT-61"/>
      <use x="253.677734" xlink:href="#TimesNewRomanPSMT-67"/>
      <use x="303.677734" xlink:href="#TimesNewRomanPSMT-65"/>
      <use x="348.0625" xlink:href="#TimesNewRomanPSMT-20"/>
      <use x="373.0625" xlink:href="#TimesNewRomanPSMT-28"/>
      <use x="406.363281" xlink:href="#TimesNewRomanPSMT-56"/>
      <use x="478.580078" xlink:href="#TimesNewRomanPSMT-29"/>
     </g>
    </g>
   </g>
   <g id="LineCollection_1">
    <path clip-path="url(#pa8e124a852)" d="M 78.555057 158.073651 
L 382.918693 158.073651 
" style="fill:none;stroke:#1f77b4;stroke-width:1.5;"/>
   </g>
   <g id="line2d_25">
    <path clip-path="url(#pa8e124a852)" d="M 78.555057 158.175675 
L 78.707239 158.141393 
L 80.594293 158.072828 
L 80.685602 158.004263 
L 80.776911 158.072828 
L 80.807348 158.038545 
L 89.694766 157.96998 
L 89.725202 157.901415 
L 89.786075 157.96998 
L 91.399202 157.901415 
L 91.520948 157.867133 
L 103.452002 157.798568 
L 103.543311 157.730003 
L 103.573748 157.764285 
L 103.72593 157.798568 
L 103.847675 157.764285 
L 103.938984 157.798568 
L 103.96942 157.764285 
L 106.586948 157.69572 
L 106.617384 157.627156 
L 106.678257 157.661438 
L 106.860875 157.730003 
L 106.952184 157.661438 
L 106.98262 157.69572 
L 107.104366 157.661438 
L 107.226111 157.661438 
L 112.826402 157.764285 
L 112.948148 157.764285 
L 113.648184 157.867133 
L 113.800366 157.901415 
L 114.561275 158.004263 
L 114.68302 158.072828 
L 114.713457 158.038545 
L 115.078693 158.141393 
L 115.230875 158.175675 
L 115.77873 158.278523 
L 115.961348 158.347088 
L 116.44833 158.415653 
L 116.570075 158.449935 
L 117.270111 158.552783 
L 117.422293 158.621348 
L 117.544039 158.621348 
L 117.69622 158.65563 
L 118.335384 158.758478 
L 118.426693 158.79276 
L 118.45713 158.758478 
L 119.157166 158.861325 
L 119.278911 158.92989 
L 119.309348 158.895608 
L 119.79633 158.998455 
L 119.948511 159.06702 
L 120.100693 159.032737 
L 120.222439 159.06702 
L 120.313748 159.06702 
L 120.46593 159.101302 
L 120.861602 159.20415 
L 121.04422 159.272715 
L 121.318148 159.306997 
L 121.348584 159.409845 
L 121.439893 159.375562 
L 121.592075 159.47841 
L 121.744257 159.61554 
L 121.774693 159.581257 
L 121.80513 159.546975 
L 121.866002 159.61554 
L 122.04862 159.786952 
L 122.261675 159.8898 
L 122.444293 160.061212 
L 122.566039 160.16406 
L 122.748657 160.369755 
L 122.870402 160.472602 
L 123.083457 160.712579 
L 123.935675 161.809619 
L 124.39222 162.598116 
L 124.48353 162.700964 
L 124.635711 162.975224 
L 124.879202 163.455178 
L 125.031384 163.729438 
L 125.39662 164.586501 
L 126.15753 166.540603 
L 128.440257 174.63127 
L 128.866366 176.413958 
L 130.144693 181.727745 
L 130.236002 182.104853 
L 130.631675 183.750413 
L 131.301275 186.390163 
L 131.666511 187.830028 
L 132.731784 191.052581 
L 133.43182 192.389598 
L 133.462257 192.389598 
L 133.584002 192.595293 
L 133.614439 192.561011 
L 133.644875 192.629576 
L 134.588402 193.555203 
L 134.77102 193.623768 
L 134.923202 193.726616 
L 135.744984 193.658051 
L 135.927602 193.418073 
L 136.231966 192.938118 
L 136.53633 192.252469 
L 136.627639 192.012491 
L 137.023311 190.915451 
L 137.601602 188.789937 
L 138.058148 186.904401 
L 140.036511 175.17979 
L 141.284402 164.483653 
L 143.932366 136.509144 
L 145.180257 121.253436 
L 146.641202 102.980867 
L 147.858657 88.067987 
L 148.771748 77.200438 
L 151.26753 53.031284 
L 151.693639 50.151558 
L 152.60673 44.66636 
L 152.880657 43.363622 
L 153.61113 40.552461 
L 154.311166 39.215439 
L 154.493784 39.112594 
L 154.645966 38.975461 
L 154.798148 39.009749 
L 155.072075 39.112594 
L 155.406875 39.626834 
L 155.559057 39.935376 
L 156.776511 44.357817 
L 158.328766 55.533903 
L 160.276693 78.674585 
L 161.859384 103.392259 
L 165.511748 175.454049 
L 169.042366 248.681441 
L 170.503311 274.530435 
L 171.568584 290.814622 
L 173.729566 313.989587 
L 174.855711 320.846079 
L 176.04273 324.514311 
L 176.073166 324.445746 
L 176.103602 324.54859 
L 176.134039 324.54859 
L 176.468839 324.651432 
L 176.62102 324.68572 
L 177.04713 324.651432 
L 177.229748 324.377178 
L 177.38193 324.102915 
L 178.660257 319.40622 
L 179.29942 315.189471 
L 179.786402 311.864067 
L 181.429966 296.162687 
L 184.108366 258.520524 
L 185.721493 231.334505 
L 187.76073 195.02935 
L 191.321784 132.806634 
L 193.939311 96.055804 
L 196.70902 69.109774 
L 197.835166 61.087669 
L 198.71782 56.733796 
L 199.022184 55.328214 
L 199.47873 53.751214 
L 200.81793 49.603038 
L 201.000548 49.294496 
L 201.335348 48.540278 
L 201.700584 47.888905 
L 201.73102 47.923193 
L 201.761457 47.854628 
L 202.004948 47.717496 
L 202.522366 47.614651 
L 202.765857 47.477518 
L 203.252839 47.580374 
L 203.678948 47.923193 
L 203.709384 47.888905 
L 203.73982 47.923193 
L 203.861566 48.026038 
L 203.983311 48.026038 
L 204.16593 48.094603 
L 204.287675 48.197448 
L 204.805093 49.123075 
L 204.987711 49.465905 
L 205.200766 49.94586 
L 205.931239 51.831392 
L 208.061784 59.407821 
L 208.822693 63.076056 
L 209.918402 68.492689 
L 210.86193 73.22367 
L 211.166293 74.594972 
L 212.018511 78.777435 
L 212.87073 83.028464 
L 213.20553 84.811153 
L 213.631639 86.936668 
L 214.149057 89.713544 
L 214.78822 93.278928 
L 214.87953 93.724598 
L 216.583966 103.872211 
L 216.949202 106.169141 
L 220.540693 127.012894 
L 221.118984 130.715402 
L 224.771348 156.153008 
L 228.484584 190.504062 
L 229.093311 197.291994 
L 233.719639 248.167209 
L 235.789311 268.016765 
L 236.64153 273.879073 
L 237.280693 277.444449 
L 238.55902 281.421226 
L 239.56342 282.415407 
L 239.89822 282.312565 
L 240.111275 282.004023 
L 240.354766 281.386938 
L 240.872184 280.015633 
L 241.085239 279.295706 
L 241.420039 277.821559 
L 242.820111 269.319502 
L 245.041966 250.944094 
L 245.802875 242.099204 
L 246.715966 230.614575 
L 251.859711 156.907223 
L 253.351093 138.188985 
L 254.781602 123.310385 
L 255.63382 115.80252 
L 256.39473 109.905929 
L 257.125202 105.689183 
L 257.368693 104.489296 
L 258.129602 101.541005 
L 258.373093 100.821075 
L 258.616584 99.99829 
L 258.920948 99.072663 
L 259.31662 98.078476 
L 259.499239 97.735649 
L 260.351457 96.021527 
L 260.41233 95.918677 
L 261.08193 95.301592 
L 261.264548 95.198745 
L 261.386293 95.0959 
L 261.41673 95.130177 
L 261.447166 95.061617 
L 261.599348 95.027332 
L 261.75153 95.0959 
L 261.781966 95.027332 
L 261.842839 95.061617 
L 262.025457 95.130177 
L 262.055893 95.0959 
L 262.116766 95.164459 
L 262.32982 95.26731 
L 262.603748 95.473002 
L 262.634184 95.438719 
L 262.66462 95.541569 
L 262.816802 95.644417 
L 264.399493 97.564233 
L 264.795166 98.215604 
L 265.038657 98.626993 
L 265.373457 99.175513 
L 265.43433 99.244078 
L 266.408293 101.232462 
L 266.43873 101.232462 
L 266.621348 101.643852 
L 266.77353 101.952395 
L 267.10833 102.706607 
L 267.504002 103.837934 
L 268.44753 106.683378 
L 268.508402 106.854793 
L 269.756293 110.728712 
L 269.847602 110.968689 
L 271.247675 116.07678 
L 271.765093 118.407989 
L 272.008584 119.607876 
L 274.352184 129.72121 
L 274.47393 130.166882 
L 274.80873 131.435335 
L 277.39582 140.554477 
L 277.82193 142.028623 
L 278.004548 142.645708 
L 278.461093 144.256986 
L 278.674148 144.976917 
L 279.648111 147.890928 
L 279.708984 148.062341 
L 280.348148 149.845031 
L 280.469893 150.085008 
L 280.896002 151.147765 
L 283.17873 156.084444 
L 283.239602 156.153008 
L 283.483093 156.495833 
L 283.543966 156.564398 
L 283.817893 156.941506 
L 284.244002 157.284331 
L 284.51793 157.387178 
L 284.670111 157.490025 
L 284.700548 157.455743 
L 284.913602 157.558591 
L 285.09622 157.627156 
L 285.217966 157.592873 
L 285.339711 157.592873 
L 285.43102 157.524308 
L 285.583202 157.387178 
L 285.613639 157.42146 
L 285.644075 157.318613 
L 285.826693 157.215766 
L 286.739784 156.050161 
L 287.013711 155.433076 
L 287.044148 155.467359 
L 287.257202 154.987404 
L 288.261602 152.484782 
L 289.144257 149.879313 
L 289.600802 148.610861 
L 290.45302 146.108239 
L 291.700911 143.537053 
L 292.766184 142.474295 
L 292.88793 142.474295 
L 293.009675 142.40573 
L 293.161857 142.440013 
L 293.983639 142.508578 
L 294.196693 142.748556 
L 294.622802 143.36564 
L 295.90113 146.451065 
L 296.357675 148.028059 
L 297.088148 150.873505 
L 297.879493 154.747426 
L 298.092548 155.775901 
L 299.127384 162.015314 
L 299.796984 166.403472 
L 301.988402 181.93344 
L 302.84062 188.618525 
L 305.366839 207.679591 
L 306.888657 217.244402 
L 307.101711 218.341442 
L 307.436511 219.918436 
L 307.710439 221.221174 
L 308.95833 226.363547 
L 309.87142 229.071864 
L 310.084475 229.414683 
L 310.29753 229.826076 
L 310.388839 229.928923 
L 310.693202 230.374593 
L 310.96713 230.546008 
L 311.271493 230.477443 
L 311.454111 230.306033 
L 312.032402 229.551816 
L 312.458511 228.489061 
L 312.88462 227.289174 
L 313.158548 226.363547 
L 313.88902 223.518098 
L 314.528184 220.158414 
L 316.810911 203.977079 
L 317.57182 198.080491 
L 318.058802 194.035158 
L 321.072002 167.877619 
L 321.772039 162.392421 
L 322.68513 155.158816 
L 323.01993 152.690477 
L 323.567784 148.233754 
L 324.328693 142.371449 
L 324.815675 138.566092 
L 325.36353 134.623605 
L 327.007093 124.270294 
L 329.076766 113.162771 
L 329.198511 112.682811 
L 329.62462 110.900124 
L 330.355093 108.088963 
L 330.598584 107.300463 
L 332.30302 101.918112 
L 332.63782 100.92392 
L 333.155239 99.552621 
L 333.855275 98.181318 
L 333.946584 98.078476 
L 334.190075 97.735649 
L 334.250948 97.667084 
L 334.464002 97.358541 
L 334.494439 97.392824 
L 334.524875 97.358541 
L 334.677057 97.221414 
L 334.859675 97.118564 
L 335.194475 96.878589 
L 335.31622 96.810021 
L 335.468402 96.707174 
L 335.74233 96.467197 
L 335.772766 96.501479 
L 335.803202 96.535762 
L 335.833639 96.467197 
L 335.955384 96.398632 
L 335.98582 96.432914 
L 336.259748 96.330064 
L 336.41193 96.295787 
L 336.533675 96.295787 
L 337.08153 96.398632 
L 337.294584 96.535762 
L 337.385893 96.535762 
L 337.538075 96.672889 
L 338.66422 98.009909 
L 338.846839 98.387019 
L 340.703457 102.363782 
L 340.76433 102.466632 
L 341.220875 103.666519 
L 341.312184 103.906494 
L 342.073093 106.100576 
L 342.377457 107.026203 
L 344.44713 114.396941 
L 345.299348 117.756622 
L 345.45153 118.339424 
L 346.79073 124.853097 
L 347.186402 127.115741 
L 347.886439 131.126792 
L 348.282111 133.355155 
L 348.890839 136.74912 
L 349.286511 138.943199 
L 349.682184 141.240127 
L 352.269275 155.193099 
L 352.634511 156.804376 
L 353.121493 158.92989 
L 353.973711 162.323856 
L 354.095457 162.769529 
L 354.460693 164.209393 
L 355.16073 166.951993 
L 355.952075 170.037416 
L 356.07382 170.483089 
L 356.469493 172.094366 
L 357.443457 176.002569 
L 358.17393 178.848015 
L 358.904402 181.693462 
L 359.056584 182.2077 
L 359.391384 183.47615 
L 360.121857 186.287316 
L 362.161093 192.800988 
L 364.474257 197.771949 
L 364.53513 197.840514 
L 364.809057 198.389034 
L 364.991675 198.731859 
L 365.509093 199.657486 
L 365.722148 200.000311 
L 365.935202 200.343136 
L 366.270002 200.857373 
L 366.756984 201.543023 
L 366.970039 201.92013 
L 369.13102 204.251339 
L 369.161457 204.217057 
L 369.191893 204.285622 
L 369.831057 204.868424 
L 369.983239 204.971269 
L 370.196293 205.074119 
L 370.439784 205.176967 
L 370.683275 205.348379 
L 370.713711 205.314094 
L 370.774584 205.382661 
L 370.926766 205.416944 
L 371.47462 205.519794 
L 371.657239 205.588354 
L 371.778984 205.588354 
L 372.418148 205.691204 
L 372.57033 205.725486 
L 373.331239 205.794051 
L 373.452984 205.828337 
L 373.939966 205.725486 
L 374.15302 205.622636 
L 374.274766 205.554077 
L 374.396511 205.485509 
L 374.640002 205.382661 
L 374.974802 205.142684 
L 375.096548 205.074119 
L 375.340039 204.765577 
L 376.49662 203.325712 
L 377.074911 202.262955 
L 377.318402 201.851565 
L 379.296766 197.189147 
L 379.631566 196.160672 
L 379.875057 195.372175 
L 381.092511 190.881169 
L 381.488184 189.201327 
L 381.60993 188.721372 
L 382.918693 182.550525 
L 382.918693 182.550525 
" style="fill:none;stroke:#0000ff;stroke-linecap:square;stroke-width:1.5;"/>
   </g>
   <g id="line2d_26">
    <path clip-path="url(#pa8e124a852)" d="M 78.555057 158.26721 
L 78.707239 158.215786 
L 78.95073 158.232927 
L 79.224657 158.198645 
L 79.437711 158.198645 
L 80.989966 158.095797 
L 81.20302 158.078656 
L 81.355202 158.078656 
L 81.476948 158.078656 
L 85.007566 157.99295 
L 85.159748 157.958667 
L 85.31193 157.975808 
L 87.168548 157.872961 
L 87.381602 157.872961 
L 90.060002 157.770113 
L 90.33393 157.735831 
L 90.546984 157.735831 
L 93.712366 157.632984 
L 93.92542 157.632984 
L 96.634257 157.530136 
L 96.847311 157.512995 
L 97.02993 157.530136 
L 97.212548 157.478712 
L 97.456039 157.495854 
L 100.469239 157.598701 
L 100.95622 157.752972 
L 101.199711 157.85582 
L 102.143239 158.490046 
L 102.356293 158.712882 
L 103.178075 159.79278 
L 103.878111 161.112656 
L 104.030293 161.421198 
L 104.97382 163.803831 
L 105.765166 166.357877 
L 106.98262 170.848883 
L 110.208875 183.156296 
L 110.66542 184.441888 
L 111.66982 186.961652 
L 113.039457 189.087166 
L 113.587311 189.27572 
L 114.287348 189.172873 
L 114.591711 188.881471 
L 114.926511 188.367234 
L 115.139566 187.990127 
L 116.235275 185.298952 
L 117.665784 179.248093 
L 119.887639 166.100758 
L 122.931275 143.028644 
L 124.879202 127.464394 
L 127.709784 110.614548 
L 128.896802 105.146494 
L 129.84033 101.855375 
L 130.205566 101.032598 
L 131.08822 99.267047 
L 131.301275 99.044211 
L 132.792657 96.730141 
L 133.127457 96.490166 
L 133.249202 96.438742 
L 133.584002 96.147341 
L 133.827493 95.941646 
L 135.10582 95.838796 
L 135.288439 95.71881 
L 135.897166 95.821657 
L 136.20153 96.010214 
L 137.084184 96.113056 
L 138.179893 97.484358 
L 138.758184 99.009926 
L 139.519093 101.975364 
L 139.823457 103.140969 
L 142.654039 118.03671 
L 143.719311 125.973106 
L 147.219493 154.444712 
L 150.354439 183.687674 
L 151.906693 197.486376 
L 153.458948 209.690942 
L 154.493784 215.930352 
L 155.376439 220.301369 
L 156.563457 223.952457 
L 157.080875 224.860943 
L 158.054839 225.820852 
L 158.87662 225.23805 
L 159.850584 224.003881 
L 160.185384 223.215386 
L 160.30713 222.941126 
L 161.524584 219.187194 
L 162.802911 213.719134 
L 163.685566 208.679608 
L 164.507348 202.937289 
L 168.67713 170.917448 
L 169.803275 164.043809 
L 170.868548 158.661458 
L 171.964257 154.770396 
L 172.69473 153.347673 
L 172.846911 153.141977 
L 173.668693 152.370622 
L 173.881748 152.370622 
L 174.399166 152.473469 
L 175.068766 152.953424 
L 175.494875 153.879051 
L 175.981857 155.164644 
L 176.438402 156.433096 
L 177.777602 162.158272 
L 178.416766 165.963628 
L 180.30382 177.002589 
L 180.72993 179.110962 
L 181.703893 184.613301 
L 183.256148 193.54389 
L 184.199675 197.760636 
L 185.173639 201.206026 
L 185.41713 201.788828 
L 185.721493 202.457337 
L 186.451966 203.160128 
L 186.75633 203.108704 
L 187.09113 203.005857 
L 187.42593 202.697314 
L 188.978184 198.943382 
L 189.586911 196.509325 
L 190.317384 192.772534 
L 191.565275 183.601969 
L 192.600111 175.271323 
L 193.208839 170.403211 
L 194.548039 158.147221 
L 199.661348 111.094506 
L 201.335348 95.221711 
L 202.73542 84.31988 
L 203.952875 76.212074 
L 205.109457 70.298345 
L 205.626875 68.704212 
L 206.113857 68.087124 
L 206.692148 67.658596 
L 206.874766 67.504319 
L 207.51393 67.607172 
L 208.579202 68.327102 
L 210.070584 71.943902 
L 210.43582 73.280927 
L 212.383748 82.554334 
L 216.188293 106.774912 
L 218.592766 124.858925 
L 220.510257 138.126248 
L 221.849457 146.285479 
L 222.48862 150.176542 
L 225.440948 166.169323 
L 227.206257 174.551392 
L 229.154184 182.659199 
L 229.61073 184.424747 
L 234.20662 200.314681 
L 234.693602 202.234501 
L 235.241457 204.462862 
L 236.245857 207.993959 
L 238.041602 212.742083 
L 239.046002 214.233369 
L 239.715602 214.730465 
L 239.98953 214.884736 
L 241.389602 215.55325 
L 243.520148 215.656095 
L 244.859348 216.530298 
L 246.046366 217.713041 
L 246.289857 217.970163 
L 246.624657 218.364409 
L 246.746402 218.467259 
L 248.146475 220.181383 
L 248.450839 220.644197 
L 248.633457 220.867033 
L 249.090002 221.432697 
L 249.516111 222.049781 
L 249.94222 222.75257 
L 250.459639 223.489643 
L 251.737966 226.129395 
L 251.920584 226.47222 
L 252.529311 227.603542 
L 252.894548 228.152059 
L 253.198911 228.58059 
L 255.085966 230.551833 
L 255.39033 230.654683 
L 255.664257 230.688966 
L 255.846875 230.637545 
L 255.999057 230.551833 
L 257.368693 228.889132 
L 258.951384 224.141013 
L 259.74273 220.078538 
L 260.442766 215.536106 
L 261.41673 207.633992 
L 262.968984 190.78415 
L 264.277748 173.197233 
L 265.373457 156.947334 
L 266.956148 130.241275 
L 269.086693 93.83327 
L 270.547639 70.949709 
L 272.13033 50.208804 
L 273.165166 39.272696 
L 274.108693 31.284879 
L 274.71742 27.616644 
L 275.47833 24.308387 
L 276.026184 23.057073 
L 276.81753 22.32 
L 277.304511 22.69711 
L 277.73062 23.622737 
L 278.095857 24.668353 
L 278.978511 28.593695 
L 280.287275 37.387151 
L 281.322111 46.403451 
L 282.570002 59.37937 
L 284.457057 81.885829 
L 286.313675 105.12935 
L 289.661675 147.073977 
L 291.609602 168.843357 
L 294.105384 193.046794 
L 295.840257 205.868444 
L 296.966402 213.530578 
L 298.001239 219.769996 
L 298.731711 223.609632 
L 299.523057 227.449271 
L 300.49702 231.357474 
L 302.444948 236.516991 
L 303.205857 237.21978 
L 303.358039 237.202636 
L 303.905893 236.791251 
L 304.423311 235.71135 
L 305.488584 232.40309 
L 308.045239 220.404219 
L 309.62793 210.856546 
L 312.458511 192.635404 
L 313.88902 182.213527 
L 316.536984 163.615278 
L 317.99793 155.23321 
L 319.184948 149.782293 
L 320.828511 143.748576 
L 321.467675 141.948745 
L 321.650293 141.588779 
L 322.198148 140.457457 
L 322.715566 139.548971 
L 324.206948 138.0234 
L 324.328693 137.937695 
L 324.69393 137.680575 
L 324.998293 137.389174 
L 325.576584 136.617817 
L 326.885348 135.280801 
L 327.03753 135.177954 
L 327.646257 134.71514 
L 328.802839 133.258136 
L 330.72033 129.812744 
L 333.003057 124.430394 
L 333.763966 122.236314 
L 335.285784 118.276687 
L 338.542475 111.197351 
L 339.09033 110.477421 
L 339.820802 109.80891 
L 339.972984 109.723204 
L 340.216475 109.603218 
L 340.886075 109.706065 
L 341.738293 110.288867 
L 342.43833 111.265918 
L 342.77313 111.780153 
L 344.173202 115.174122 
L 344.934111 118.105275 
L 346.882039 128.544292 
L 347.734257 133.549536 
L 349.530002 145.32557 
L 350.260475 150.55365 
L 351.569239 159.998475 
L 356.682548 196.663596 
L 358.265239 204.959961 
L 359.604439 210.49658 
L 360.395784 212.416397 
L 360.639275 212.844933 
L 360.943639 213.273465 
L 361.278439 213.684849 
L 361.369748 213.753417 
L 362.252402 214.593338 
L 363.408984 214.49049 
L 363.713348 214.21623 
L 365.417784 211.130806 
L 366.087384 209.365261 
L 366.635239 207.49686 
L 367.365711 204.171458 
L 369.070148 194.966613 
L 370.378911 185.367516 
L 372.752948 165.775074 
L 376.16182 137.920554 
L 378.93153 118.4481 
L 379.93593 112.91148 
L 381.731675 105.317904 
L 382.644766 102.609587 
L 382.918693 101.906799 
L 382.918693 101.906799 
" style="fill:none;stroke:#ff0000;stroke-linecap:square;stroke-width:1.5;"/>
   </g>
   <g id="line2d_27">
    <path clip-path="url(#pa8e124a852)" d="M 126.127093 166.437755 
" style="fill:none;stroke:#ffffff;stroke-linecap:square;stroke-width:1.5;"/>
    <defs>
     <path d="M 0 -5 
L -1.12257 -1.545085 
L -4.755283 -1.545085 
L -1.816356 0.59017 
L -2.938926 4.045085 
L -0 1.90983 
L 2.938926 4.045085 
L 1.816356 0.59017 
L 4.755283 -1.545085 
L 1.12257 -1.545085 
z
" id="m5ea69730e3" style="stroke:#ffffff;stroke-linejoin:bevel;"/>
    </defs>
    <g clip-path="url(#pa8e124a852)">
     <use style="fill:#0000ff;stroke:#ffffff;stroke-linejoin:bevel;" x="126.127093" xlink:href="#m5ea69730e3" y="166.437755"/>
    </g>
   </g>
   <g id="line2d_28">
    <path clip-path="url(#pa8e124a852)" d="M 105.339057 164.935154 
" style="fill:none;stroke:#ffffff;stroke-linecap:square;stroke-width:1.5;"/>
    <defs>
     <path d="M 0 -5 
L -1.12257 -1.545085 
L -4.755283 -1.545085 
L -1.816356 0.59017 
L -2.938926 4.045085 
L -0 1.90983 
L 2.938926 4.045085 
L 1.816356 0.59017 
L 4.755283 -1.545085 
L 1.12257 -1.545085 
z
" id="mf515a825e9" style="stroke:#ffffff;stroke-linejoin:bevel;"/>
    </defs>
    <g clip-path="url(#pa8e124a852)">
     <use style="fill:#ff0000;stroke:#ffffff;stroke-linejoin:bevel;" x="105.339057" xlink:href="#mf515a825e9" y="164.935154"/>
    </g>
   </g>
   <g id="patch_3">
    <path d="M 63.336875 339.84 
L 63.336875 7.2 
" style="fill:none;stroke:#000000;stroke-linecap:square;stroke-linejoin:miter;stroke-width:0.8;"/>
   </g>
   <g id="patch_4">
    <path d="M 398.136875 339.84 
L 398.136875 7.2 
" style="fill:none;stroke:#000000;stroke-linecap:square;stroke-linejoin:miter;stroke-width:0.8;"/>
   </g>
   <g id="patch_5">
    <path d="M 63.336875 339.84 
L 398.136875 339.84 
" style="fill:none;stroke:#000000;stroke-linecap:square;stroke-linejoin:miter;stroke-width:0.8;"/>
   </g>
   <g id="patch_6">
    <path d="M 63.336875 7.2 
L 398.136875 7.2 
" style="fill:none;stroke:#000000;stroke-linecap:square;stroke-linejoin:miter;stroke-width:0.8;"/>
   </g>
   <g id="text_15">
    <g id="patch_7">
     <path d="M 75.036875 331.242688 
L 166.79375 331.242688 
L 166.79375 293.760312 
L 75.036875 293.760312 
z
" style="fill:#ffffff;stroke:#000000;stroke-linejoin:miter;stroke-width:0.75;"/>
    </g>
    <!-- Auto_00089 -->
    <g transform="translate(80.076875 308.521562)scale(0.14 -0.14)">
     <defs>
      <path d="M 2928 1419 
L 1288 1419 
L 1000 750 
Q 894 503 894 381 
Q 894 284 986 211 
Q 1078 138 1384 116 
L 1384 0 
L 50 0 
L 50 116 
Q 316 163 394 238 
Q 553 388 747 847 
L 2238 4334 
L 2347 4334 
L 3822 809 
Q 4000 384 4145 257 
Q 4291 131 4550 116 
L 4550 0 
L 2878 0 
L 2878 116 
Q 3131 128 3220 200 
Q 3309 272 3309 375 
Q 3309 513 3184 809 
L 2928 1419 
z
M 2841 1650 
L 2122 3363 
L 1384 1650 
L 2841 1650 
z
" id="TimesNewRomanPSMT-41" transform="scale(0.015625)"/>
      <path d="M 2709 2863 
L 2709 1128 
Q 2709 631 2732 520 
Q 2756 409 2807 365 
Q 2859 322 2928 322 
Q 3025 322 3147 375 
L 3191 266 
L 2334 -88 
L 2194 -88 
L 2194 519 
Q 1825 119 1631 15 
Q 1438 -88 1222 -88 
Q 981 -88 804 51 
Q 628 191 559 409 
Q 491 628 491 1028 
L 491 2306 
Q 491 2509 447 2587 
Q 403 2666 317 2708 
Q 231 2750 6 2747 
L 6 2863 
L 1009 2863 
L 1009 947 
Q 1009 547 1148 422 
Q 1288 297 1484 297 
Q 1619 297 1789 381 
Q 1959 466 2194 703 
L 2194 2325 
Q 2194 2569 2105 2655 
Q 2016 2741 1734 2747 
L 1734 2863 
L 2709 2863 
z
" id="TimesNewRomanPSMT-75" transform="scale(0.015625)"/>
      <path d="M 3256 -1381 
L -53 -1381 
L -53 -1119 
L 3256 -1119 
L 3256 -1381 
z
" id="TimesNewRomanPSMT-5f" transform="scale(0.015625)"/>
      <path d="M 1228 2134 
Q 725 2547 579 2797 
Q 434 3047 434 3316 
Q 434 3728 753 4026 
Q 1072 4325 1600 4325 
Q 2113 4325 2425 4047 
Q 2738 3769 2738 3413 
Q 2738 3175 2569 2928 
Q 2400 2681 1866 2347 
Q 2416 1922 2594 1678 
Q 2831 1359 2831 1006 
Q 2831 559 2490 242 
Q 2150 -75 1597 -75 
Q 994 -75 656 303 
Q 388 606 388 966 
Q 388 1247 577 1523 
Q 766 1800 1228 2134 
z
M 1719 2469 
Q 2094 2806 2194 3001 
Q 2294 3197 2294 3444 
Q 2294 3772 2109 3958 
Q 1925 4144 1606 4144 
Q 1288 4144 1088 3959 
Q 888 3775 888 3528 
Q 888 3366 970 3203 
Q 1053 3041 1206 2894 
L 1719 2469 
z
M 1375 2016 
Q 1116 1797 991 1539 
Q 866 1281 866 981 
Q 866 578 1086 336 
Q 1306 94 1647 94 
Q 1984 94 2187 284 
Q 2391 475 2391 747 
Q 2391 972 2272 1150 
Q 2050 1481 1375 2016 
z
" id="TimesNewRomanPSMT-38" transform="scale(0.015625)"/>
      <path d="M 338 -88 
L 338 28 
Q 744 34 1094 217 
Q 1444 400 1770 856 
Q 2097 1313 2225 1859 
Q 1734 1544 1338 1544 
Q 891 1544 572 1889 
Q 253 2234 253 2806 
Q 253 3363 572 3797 
Q 956 4325 1575 4325 
Q 2097 4325 2469 3894 
Q 2925 3359 2925 2575 
Q 2925 1869 2578 1258 
Q 2231 647 1613 244 
Q 1109 -88 516 -88 
L 338 -88 
z
M 2275 2091 
Q 2331 2497 2331 2741 
Q 2331 3044 2228 3395 
Q 2125 3747 1936 3934 
Q 1747 4122 1506 4122 
Q 1228 4122 1018 3872 
Q 809 3622 809 3128 
Q 809 2469 1088 2097 
Q 1291 1828 1588 1828 
Q 1731 1828 1928 1897 
Q 2125 1966 2275 2091 
z
" id="TimesNewRomanPSMT-39" transform="scale(0.015625)"/>
     </defs>
     <use xlink:href="#TimesNewRomanPSMT-41"/>
     <use x="72.216797" xlink:href="#TimesNewRomanPSMT-75"/>
     <use x="122.216797" xlink:href="#TimesNewRomanPSMT-74"/>
     <use x="150" xlink:href="#TimesNewRomanPSMT-6f"/>
     <use x="200" xlink:href="#TimesNewRomanPSMT-5f"/>
     <use x="250" xlink:href="#TimesNewRomanPSMT-30"/>
     <use x="300" xlink:href="#TimesNewRomanPSMT-30"/>
     <use x="350" xlink:href="#TimesNewRomanPSMT-30"/>
     <use x="400" xlink:href="#TimesNewRomanPSMT-38"/>
     <use x="450" xlink:href="#TimesNewRomanPSMT-39"/>
    </g>
    <!-- Vs: 292.67m/s -->
    <g transform="translate(80.076875 323.208)scale(0.14 -0.14)">
     <defs>
      <path d="M 903 2950 
Q 1047 2950 1148 2848 
Q 1250 2747 1250 2603 
Q 1250 2459 1148 2357 
Q 1047 2256 903 2256 
Q 759 2256 657 2357 
Q 556 2459 556 2603 
Q 556 2747 657 2848 
Q 759 2950 903 2950 
z
M 897 609 
Q 1044 609 1145 506 
Q 1247 403 1247 259 
Q 1247 116 1144 14 
Q 1041 -88 897 -88 
Q 753 -88 651 14 
Q 550 116 550 259 
Q 550 403 651 506 
Q 753 609 897 609 
z
" id="TimesNewRomanPSMT-3a" transform="scale(0.015625)"/>
      <path d="M 644 4238 
L 2916 4238 
L 2916 4119 
L 1503 -88 
L 1153 -88 
L 2419 3728 
L 1253 3728 
Q 900 3728 750 3644 
Q 488 3500 328 3200 
L 238 3234 
L 644 4238 
z
" id="TimesNewRomanPSMT-37" transform="scale(0.015625)"/>
      <path d="M 1794 4444 
L 259 -88 
L 9 -88 
L 1544 4444 
L 1794 4444 
z
" id="TimesNewRomanPSMT-2f" transform="scale(0.015625)"/>
     </defs>
     <use xlink:href="#TimesNewRomanPSMT-56"/>
     <use x="72.216797" xlink:href="#TimesNewRomanPSMT-73"/>
     <use x="111.132812" xlink:href="#TimesNewRomanPSMT-3a"/>
     <use x="138.916016" xlink:href="#TimesNewRomanPSMT-20"/>
     <use x="163.916016" xlink:href="#TimesNewRomanPSMT-32"/>
     <use x="213.916016" xlink:href="#TimesNewRomanPSMT-39"/>
     <use x="263.916016" xlink:href="#TimesNewRomanPSMT-32"/>
     <use x="313.916016" xlink:href="#TimesNewRomanPSMT-2e"/>
     <use x="338.916016" xlink:href="#TimesNewRomanPSMT-36"/>
     <use x="388.916016" xlink:href="#TimesNewRomanPSMT-37"/>
     <use x="438.916016" xlink:href="#TimesNewRomanPSMT-6d"/>
     <use x="516.699219" xlink:href="#TimesNewRomanPSMT-2f"/>
     <use x="544.482422" xlink:href="#TimesNewRomanPSMT-73"/>
    </g>
   </g>
  </g>
 </g>
 <defs>
  <clipPath id="pa8e124a852">
   <rect height="332.64" width="334.8" x="63.336875" y="7.2"/>
  </clipPath>
 </defs>
</svg>
