<?xml version="1.0" encoding="utf-8" standalone="no"?>
<!DOCTYPE svg PUBLIC "-//W3C//DTD SVG 1.1//EN"
  "http://www.w3.org/Graphics/SVG/1.1/DTD/svg11.dtd">
<svg height="388.297463pt" version="1.1" viewBox="0 0 421.086875 388.297463" width="421.086875pt" xmlns="http://www.w3.org/2000/svg" xmlns:xlink="http://www.w3.org/1999/xlink">
 <metadata>
  <rdf:RDF xmlns:cc="http://creativecommons.org/ns#" xmlns:dc="http://purl.org/dc/elements/1.1/" xmlns:rdf="http://www.w3.org/1999/02/22-rdf-syntax-ns#">
   <cc:Work>
    <dc:type rdf:resource="http://purl.org/dc/dcmitype/StillImage"/>
    <dc:date>2021-06-11T14:39:37.902801</dc:date>
    <dc:format>image/svg+xml</dc:format>
    <dc:creator>
     <cc:Agent>
      <dc:title>Matplotlib v3.4.2, https://matplotlib.org/</dc:title>
     </cc:Agent>
    </dc:creator>
   </cc:Work>
  </rdf:RDF>
 </metadata>
 <defs>
  <style type="text/css">*{stroke-linecap:butt;stroke-linejoin:round;}</style>
 </defs>
 <g id="figure_1">
  <g id="patch_1">
   <path d="M 0 388.297463 
L 421.086875 388.297463 
L 421.086875 0 
L 0 0 
z
" style="fill:#ffffff;"/>
  </g>
  <g id="axes_1">
   <g id="patch_2">
    <path d="M 63.336875 344.665588 
L 398.136875 344.665588 
L 398.136875 12.025588 
L 63.336875 12.025588 
z
" style="fill:#ffffff;"/>
   </g>
   <g id="matplotlib.axis_1">
    <g id="xtick_1">
     <g id="line2d_1">
      <path clip-path="url(#p3a67faac36)" d="M 93.773239 344.665588 
L 93.773239 12.025588 
" style="fill:none;stroke:#000000;stroke-dasharray:0.5,0.825;stroke-dashoffset:0;stroke-width:0.5;"/>
     </g>
     <g id="line2d_2">
      <defs>
       <path d="M 0 0 
L 0 3.5 
" id="mb8bd1a780e" style="stroke:#000000;stroke-width:0.8;"/>
      </defs>
      <g>
       <use style="stroke:#000000;stroke-width:0.8;" x="93.773239" xlink:href="#mb8bd1a780e" y="344.665588"/>
      </g>
     </g>
     <g id="text_1">
      <!-- 0.000 -->
      <g transform="translate(78.023239 361.386838)scale(0.14 -0.14)">
       <defs>
        <path d="M 231 2094 
Q 231 2819 450 3342 
Q 669 3866 1031 4122 
Q 1313 4325 1613 4325 
Q 2100 4325 2488 3828 
Q 2972 3213 2972 2159 
Q 2972 1422 2759 906 
Q 2547 391 2217 158 
Q 1888 -75 1581 -75 
Q 975 -75 572 641 
Q 231 1244 231 2094 
z
M 844 2016 
Q 844 1141 1059 588 
Q 1238 122 1591 122 
Q 1759 122 1940 273 
Q 2122 425 2216 781 
Q 2359 1319 2359 2297 
Q 2359 3022 2209 3506 
Q 2097 3866 1919 4016 
Q 1791 4119 1609 4119 
Q 1397 4119 1231 3928 
Q 1006 3669 925 3112 
Q 844 2556 844 2016 
z
" id="TimesNewRomanPSMT-30" transform="scale(0.015625)"/>
        <path d="M 800 606 
Q 947 606 1047 504 
Q 1147 403 1147 259 
Q 1147 116 1045 14 
Q 944 -88 800 -88 
Q 656 -88 554 14 
Q 453 116 453 259 
Q 453 406 554 506 
Q 656 606 800 606 
z
" id="TimesNewRomanPSMT-2e" transform="scale(0.015625)"/>
       </defs>
       <use xlink:href="#TimesNewRomanPSMT-30"/>
       <use x="50" xlink:href="#TimesNewRomanPSMT-2e"/>
       <use x="75" xlink:href="#TimesNewRomanPSMT-30"/>
       <use x="125" xlink:href="#TimesNewRomanPSMT-30"/>
       <use x="175" xlink:href="#TimesNewRomanPSMT-30"/>
      </g>
     </g>
    </g>
    <g id="xtick_2">
     <g id="line2d_3">
      <path clip-path="url(#p3a67faac36)" d="M 154.645966 344.665588 
L 154.645966 12.025588 
" style="fill:none;stroke:#000000;stroke-dasharray:0.5,0.825;stroke-dashoffset:0;stroke-width:0.5;"/>
     </g>
     <g id="line2d_4">
      <g>
       <use style="stroke:#000000;stroke-width:0.8;" x="154.645966" xlink:href="#mb8bd1a780e" y="344.665588"/>
      </g>
     </g>
     <g id="text_2">
      <!-- 0.001 -->
      <g transform="translate(138.895966 361.386838)scale(0.14 -0.14)">
       <defs>
        <path d="M 750 3822 
L 1781 4325 
L 1884 4325 
L 1884 747 
Q 1884 391 1914 303 
Q 1944 216 2037 169 
Q 2131 122 2419 116 
L 2419 0 
L 825 0 
L 825 116 
Q 1125 122 1212 167 
Q 1300 213 1334 289 
Q 1369 366 1369 747 
L 1369 3034 
Q 1369 3497 1338 3628 
Q 1316 3728 1258 3775 
Q 1200 3822 1119 3822 
Q 1003 3822 797 3725 
L 750 3822 
z
" id="TimesNewRomanPSMT-31" transform="scale(0.015625)"/>
       </defs>
       <use xlink:href="#TimesNewRomanPSMT-30"/>
       <use x="50" xlink:href="#TimesNewRomanPSMT-2e"/>
       <use x="75" xlink:href="#TimesNewRomanPSMT-30"/>
       <use x="125" xlink:href="#TimesNewRomanPSMT-30"/>
       <use x="175" xlink:href="#TimesNewRomanPSMT-31"/>
      </g>
     </g>
    </g>
    <g id="xtick_3">
     <g id="line2d_5">
      <path clip-path="url(#p3a67faac36)" d="M 215.518693 344.665588 
L 215.518693 12.025588 
" style="fill:none;stroke:#000000;stroke-dasharray:0.5,0.825;stroke-dashoffset:0;stroke-width:0.5;"/>
     </g>
     <g id="line2d_6">
      <g>
       <use style="stroke:#000000;stroke-width:0.8;" x="215.518693" xlink:href="#mb8bd1a780e" y="344.665588"/>
      </g>
     </g>
     <g id="text_3">
      <!-- 0.002 -->
      <g transform="translate(199.768693 361.386838)scale(0.14 -0.14)">
       <defs>
        <path d="M 2934 816 
L 2638 0 
L 138 0 
L 138 116 
Q 1241 1122 1691 1759 
Q 2141 2397 2141 2925 
Q 2141 3328 1894 3587 
Q 1647 3847 1303 3847 
Q 991 3847 742 3664 
Q 494 3481 375 3128 
L 259 3128 
Q 338 3706 661 4015 
Q 984 4325 1469 4325 
Q 1984 4325 2329 3994 
Q 2675 3663 2675 3213 
Q 2675 2891 2525 2569 
Q 2294 2063 1775 1497 
Q 997 647 803 472 
L 1909 472 
Q 2247 472 2383 497 
Q 2519 522 2628 598 
Q 2738 675 2819 816 
L 2934 816 
z
" id="TimesNewRomanPSMT-32" transform="scale(0.015625)"/>
       </defs>
       <use xlink:href="#TimesNewRomanPSMT-30"/>
       <use x="50" xlink:href="#TimesNewRomanPSMT-2e"/>
       <use x="75" xlink:href="#TimesNewRomanPSMT-30"/>
       <use x="125" xlink:href="#TimesNewRomanPSMT-30"/>
       <use x="175" xlink:href="#TimesNewRomanPSMT-32"/>
      </g>
     </g>
    </g>
    <g id="xtick_4">
     <g id="line2d_7">
      <path clip-path="url(#p3a67faac36)" d="M 276.39142 344.665588 
L 276.39142 12.025588 
" style="fill:none;stroke:#000000;stroke-dasharray:0.5,0.825;stroke-dashoffset:0;stroke-width:0.5;"/>
     </g>
     <g id="line2d_8">
      <g>
       <use style="stroke:#000000;stroke-width:0.8;" x="276.39142" xlink:href="#mb8bd1a780e" y="344.665588"/>
      </g>
     </g>
     <g id="text_4">
      <!-- 0.003 -->
      <g transform="translate(260.64142 361.386838)scale(0.14 -0.14)">
       <defs>
        <path d="M 325 3431 
Q 506 3859 782 4092 
Q 1059 4325 1472 4325 
Q 1981 4325 2253 3994 
Q 2459 3747 2459 3466 
Q 2459 3003 1878 2509 
Q 2269 2356 2469 2072 
Q 2669 1788 2669 1403 
Q 2669 853 2319 450 
Q 1863 -75 997 -75 
Q 569 -75 414 31 
Q 259 138 259 259 
Q 259 350 332 419 
Q 406 488 509 488 
Q 588 488 669 463 
Q 722 447 909 348 
Q 1097 250 1169 231 
Q 1284 197 1416 197 
Q 1734 197 1970 444 
Q 2206 691 2206 1028 
Q 2206 1275 2097 1509 
Q 2016 1684 1919 1775 
Q 1784 1900 1550 2001 
Q 1316 2103 1072 2103 
L 972 2103 
L 972 2197 
Q 1219 2228 1467 2375 
Q 1716 2522 1828 2728 
Q 1941 2934 1941 3181 
Q 1941 3503 1739 3701 
Q 1538 3900 1238 3900 
Q 753 3900 428 3381 
L 325 3431 
z
" id="TimesNewRomanPSMT-33" transform="scale(0.015625)"/>
       </defs>
       <use xlink:href="#TimesNewRomanPSMT-30"/>
       <use x="50" xlink:href="#TimesNewRomanPSMT-2e"/>
       <use x="75" xlink:href="#TimesNewRomanPSMT-30"/>
       <use x="125" xlink:href="#TimesNewRomanPSMT-30"/>
       <use x="175" xlink:href="#TimesNewRomanPSMT-33"/>
      </g>
     </g>
    </g>
    <g id="xtick_5">
     <g id="line2d_9">
      <path clip-path="url(#p3a67faac36)" d="M 337.264148 344.665588 
L 337.264148 12.025588 
" style="fill:none;stroke:#000000;stroke-dasharray:0.5,0.825;stroke-dashoffset:0;stroke-width:0.5;"/>
     </g>
     <g id="line2d_10">
      <g>
       <use style="stroke:#000000;stroke-width:0.8;" x="337.264148" xlink:href="#mb8bd1a780e" y="344.665588"/>
      </g>
     </g>
     <g id="text_5">
      <!-- 0.004 -->
      <g transform="translate(321.514148 361.386838)scale(0.14 -0.14)">
       <defs>
        <path d="M 2978 1563 
L 2978 1119 
L 2409 1119 
L 2409 0 
L 1894 0 
L 1894 1119 
L 100 1119 
L 100 1519 
L 2066 4325 
L 2409 4325 
L 2409 1563 
L 2978 1563 
z
M 1894 1563 
L 1894 3666 
L 406 1563 
L 1894 1563 
z
" id="TimesNewRomanPSMT-34" transform="scale(0.015625)"/>
       </defs>
       <use xlink:href="#TimesNewRomanPSMT-30"/>
       <use x="50" xlink:href="#TimesNewRomanPSMT-2e"/>
       <use x="75" xlink:href="#TimesNewRomanPSMT-30"/>
       <use x="125" xlink:href="#TimesNewRomanPSMT-30"/>
       <use x="175" xlink:href="#TimesNewRomanPSMT-34"/>
      </g>
     </g>
    </g>
    <g id="xtick_6">
     <g id="line2d_11">
      <path clip-path="url(#p3a67faac36)" d="M 398.136875 344.665588 
L 398.136875 12.025588 
" style="fill:none;stroke:#000000;stroke-dasharray:0.5,0.825;stroke-dashoffset:0;stroke-width:0.5;"/>
     </g>
     <g id="line2d_12">
      <g>
       <use style="stroke:#000000;stroke-width:0.8;" x="398.136875" xlink:href="#mb8bd1a780e" y="344.665588"/>
      </g>
     </g>
     <g id="text_6">
      <!-- 0.005 -->
      <g transform="translate(382.386875 361.386838)scale(0.14 -0.14)">
       <defs>
        <path d="M 2778 4238 
L 2534 3706 
L 1259 3706 
L 981 3138 
Q 1809 3016 2294 2522 
Q 2709 2097 2709 1522 
Q 2709 1188 2573 903 
Q 2438 619 2231 419 
Q 2025 219 1772 97 
Q 1413 -75 1034 -75 
Q 653 -75 479 54 
Q 306 184 306 341 
Q 306 428 378 495 
Q 450 563 559 563 
Q 641 563 702 538 
Q 763 513 909 409 
Q 1144 247 1384 247 
Q 1750 247 2026 523 
Q 2303 800 2303 1197 
Q 2303 1581 2056 1914 
Q 1809 2247 1375 2428 
Q 1034 2569 447 2591 
L 1259 4238 
L 2778 4238 
z
" id="TimesNewRomanPSMT-35" transform="scale(0.015625)"/>
       </defs>
       <use xlink:href="#TimesNewRomanPSMT-30"/>
       <use x="50" xlink:href="#TimesNewRomanPSMT-2e"/>
       <use x="75" xlink:href="#TimesNewRomanPSMT-30"/>
       <use x="125" xlink:href="#TimesNewRomanPSMT-30"/>
       <use x="175" xlink:href="#TimesNewRomanPSMT-35"/>
      </g>
     </g>
    </g>
    <g id="text_7">
     <!-- Time (sec) -->
     <g transform="translate(200.858906 378.102776)scale(0.14 -0.14)">
      <defs>
       <path d="M 3703 4238 
L 3750 3244 
L 3631 3244 
Q 3597 3506 3538 3619 
Q 3441 3800 3280 3886 
Q 3119 3972 2856 3972 
L 2259 3972 
L 2259 734 
Q 2259 344 2344 247 
Q 2463 116 2709 116 
L 2856 116 
L 2856 0 
L 1059 0 
L 1059 116 
L 1209 116 
Q 1478 116 1591 278 
Q 1659 378 1659 734 
L 1659 3972 
L 1150 3972 
Q 853 3972 728 3928 
Q 566 3869 450 3700 
Q 334 3531 313 3244 
L 194 3244 
L 244 4238 
L 3703 4238 
z
" id="TimesNewRomanPSMT-54" transform="scale(0.015625)"/>
       <path d="M 928 4444 
Q 1059 4444 1151 4351 
Q 1244 4259 1244 4128 
Q 1244 3997 1151 3903 
Q 1059 3809 928 3809 
Q 797 3809 703 3903 
Q 609 3997 609 4128 
Q 609 4259 701 4351 
Q 794 4444 928 4444 
z
M 1188 2947 
L 1188 647 
Q 1188 378 1227 289 
Q 1266 200 1342 156 
Q 1419 113 1622 113 
L 1622 0 
L 231 0 
L 231 113 
Q 441 113 512 153 
Q 584 194 626 287 
Q 669 381 669 647 
L 669 1750 
Q 669 2216 641 2353 
Q 619 2453 572 2492 
Q 525 2531 444 2531 
Q 356 2531 231 2484 
L 188 2597 
L 1050 2947 
L 1188 2947 
z
" id="TimesNewRomanPSMT-69" transform="scale(0.015625)"/>
       <path d="M 1050 2338 
Q 1363 2650 1419 2697 
Q 1559 2816 1721 2881 
Q 1884 2947 2044 2947 
Q 2313 2947 2506 2790 
Q 2700 2634 2766 2338 
Q 3088 2713 3309 2830 
Q 3531 2947 3766 2947 
Q 3994 2947 4170 2830 
Q 4347 2713 4450 2447 
Q 4519 2266 4519 1878 
L 4519 647 
Q 4519 378 4559 278 
Q 4591 209 4675 161 
Q 4759 113 4950 113 
L 4950 0 
L 3538 0 
L 3538 113 
L 3597 113 
Q 3781 113 3884 184 
Q 3956 234 3988 344 
Q 4000 397 4000 647 
L 4000 1878 
Q 4000 2228 3916 2372 
Q 3794 2572 3525 2572 
Q 3359 2572 3192 2489 
Q 3025 2406 2788 2181 
L 2781 2147 
L 2788 2013 
L 2788 647 
Q 2788 353 2820 281 
Q 2853 209 2943 161 
Q 3034 113 3253 113 
L 3253 0 
L 1806 0 
L 1806 113 
Q 2044 113 2133 169 
Q 2222 225 2256 338 
Q 2272 391 2272 647 
L 2272 1878 
Q 2272 2228 2169 2381 
Q 2031 2581 1784 2581 
Q 1616 2581 1450 2491 
Q 1191 2353 1050 2181 
L 1050 647 
Q 1050 366 1089 281 
Q 1128 197 1204 155 
Q 1281 113 1516 113 
L 1516 0 
L 100 0 
L 100 113 
Q 297 113 375 155 
Q 453 197 493 289 
Q 534 381 534 647 
L 534 1741 
Q 534 2213 506 2350 
Q 484 2453 437 2492 
Q 391 2531 309 2531 
Q 222 2531 100 2484 
L 53 2597 
L 916 2947 
L 1050 2947 
L 1050 2338 
z
" id="TimesNewRomanPSMT-6d" transform="scale(0.015625)"/>
       <path d="M 681 1784 
Q 678 1147 991 784 
Q 1303 422 1725 422 
Q 2006 422 2214 576 
Q 2422 731 2563 1106 
L 2659 1044 
Q 2594 616 2278 264 
Q 1963 -88 1488 -88 
Q 972 -88 605 314 
Q 238 716 238 1394 
Q 238 2128 614 2539 
Q 991 2950 1559 2950 
Q 2041 2950 2350 2633 
Q 2659 2316 2659 1784 
L 681 1784 
z
M 681 1966 
L 2006 1966 
Q 1991 2241 1941 2353 
Q 1863 2528 1708 2628 
Q 1553 2728 1384 2728 
Q 1125 2728 920 2526 
Q 716 2325 681 1966 
z
" id="TimesNewRomanPSMT-65" transform="scale(0.015625)"/>
       <path id="TimesNewRomanPSMT-20" transform="scale(0.015625)"/>
       <path d="M 1988 -1253 
L 1988 -1369 
Q 1516 -1131 1200 -813 
Q 750 -359 506 256 
Q 263 872 263 1534 
Q 263 2503 741 3301 
Q 1219 4100 1988 4444 
L 1988 4313 
Q 1603 4100 1356 3731 
Q 1109 3363 987 2797 
Q 866 2231 866 1616 
Q 866 947 969 400 
Q 1050 -31 1165 -292 
Q 1281 -553 1476 -793 
Q 1672 -1034 1988 -1253 
z
" id="TimesNewRomanPSMT-28" transform="scale(0.015625)"/>
       <path d="M 2050 2947 
L 2050 1972 
L 1947 1972 
Q 1828 2431 1642 2597 
Q 1456 2763 1169 2763 
Q 950 2763 815 2647 
Q 681 2531 681 2391 
Q 681 2216 781 2091 
Q 878 1963 1175 1819 
L 1631 1597 
Q 2266 1288 2266 781 
Q 2266 391 1970 151 
Q 1675 -88 1309 -88 
Q 1047 -88 709 6 
Q 606 38 541 38 
Q 469 38 428 -44 
L 325 -44 
L 325 978 
L 428 978 
Q 516 541 762 319 
Q 1009 97 1316 97 
Q 1531 97 1667 223 
Q 1803 350 1803 528 
Q 1803 744 1651 891 
Q 1500 1038 1047 1263 
Q 594 1488 453 1669 
Q 313 1847 313 2119 
Q 313 2472 555 2709 
Q 797 2947 1181 2947 
Q 1350 2947 1591 2875 
Q 1750 2828 1803 2828 
Q 1853 2828 1881 2850 
Q 1909 2872 1947 2947 
L 2050 2947 
z
" id="TimesNewRomanPSMT-73" transform="scale(0.015625)"/>
       <path d="M 2631 1088 
Q 2516 522 2178 217 
Q 1841 -88 1431 -88 
Q 944 -88 581 321 
Q 219 731 219 1428 
Q 219 2103 620 2525 
Q 1022 2947 1584 2947 
Q 2006 2947 2278 2723 
Q 2550 2500 2550 2259 
Q 2550 2141 2473 2067 
Q 2397 1994 2259 1994 
Q 2075 1994 1981 2113 
Q 1928 2178 1911 2362 
Q 1894 2547 1784 2644 
Q 1675 2738 1481 2738 
Q 1169 2738 978 2506 
Q 725 2200 725 1697 
Q 725 1184 976 792 
Q 1228 400 1656 400 
Q 1963 400 2206 609 
Q 2378 753 2541 1131 
L 2631 1088 
z
" id="TimesNewRomanPSMT-63" transform="scale(0.015625)"/>
       <path d="M 144 4313 
L 144 4444 
Q 619 4209 934 3891 
Q 1381 3434 1625 2820 
Q 1869 2206 1869 1541 
Q 1869 572 1392 -226 
Q 916 -1025 144 -1369 
L 144 -1253 
Q 528 -1038 776 -670 
Q 1025 -303 1145 264 
Q 1266 831 1266 1447 
Q 1266 2113 1163 2663 
Q 1084 3094 967 3353 
Q 850 3613 656 3853 
Q 463 4094 144 4313 
z
" id="TimesNewRomanPSMT-29" transform="scale(0.015625)"/>
      </defs>
      <use xlink:href="#TimesNewRomanPSMT-54"/>
      <use x="57.583984" xlink:href="#TimesNewRomanPSMT-69"/>
      <use x="85.367188" xlink:href="#TimesNewRomanPSMT-6d"/>
      <use x="163.150391" xlink:href="#TimesNewRomanPSMT-65"/>
      <use x="207.535156" xlink:href="#TimesNewRomanPSMT-20"/>
      <use x="232.535156" xlink:href="#TimesNewRomanPSMT-28"/>
      <use x="265.835938" xlink:href="#TimesNewRomanPSMT-73"/>
      <use x="304.751953" xlink:href="#TimesNewRomanPSMT-65"/>
      <use x="349.136719" xlink:href="#TimesNewRomanPSMT-63"/>
      <use x="393.521484" xlink:href="#TimesNewRomanPSMT-29"/>
     </g>
    </g>
   </g>
   <g id="matplotlib.axis_2">
    <g id="ytick_1">
     <g id="line2d_13">
      <path clip-path="url(#p3a67faac36)" d="M 63.336875 306.818303 
L 398.136875 306.818303 
" style="fill:none;stroke:#000000;stroke-dasharray:0.5,0.825;stroke-dashoffset:0;stroke-width:0.5;"/>
     </g>
     <g id="line2d_14">
      <defs>
       <path d="M 0 0 
L -3.5 0 
" id="mdb94d3167f" style="stroke:#000000;stroke-width:0.8;"/>
      </defs>
      <g>
       <use style="stroke:#000000;stroke-width:0.8;" x="63.336875" xlink:href="#mdb94d3167f" y="306.818303"/>
      </g>
     </g>
     <g id="text_8">
      <!-- −0.06 -->
      <g transform="translate(23.942188 311.678928)scale(0.14 -0.14)">
       <defs>
        <path d="M 3484 2000 
L 116 2000 
L 116 2256 
L 3484 2256 
L 3484 2000 
z
" id="TimesNewRomanPSMT-2212" transform="scale(0.015625)"/>
        <path d="M 2869 4325 
L 2869 4209 
Q 2456 4169 2195 4045 
Q 1934 3922 1679 3669 
Q 1425 3416 1258 3105 
Q 1091 2794 978 2366 
Q 1428 2675 1881 2675 
Q 2316 2675 2634 2325 
Q 2953 1975 2953 1425 
Q 2953 894 2631 456 
Q 2244 -75 1606 -75 
Q 1172 -75 869 213 
Q 275 772 275 1663 
Q 275 2231 503 2743 
Q 731 3256 1154 3653 
Q 1578 4050 1965 4187 
Q 2353 4325 2688 4325 
L 2869 4325 
z
M 925 2138 
Q 869 1716 869 1456 
Q 869 1156 980 804 
Q 1091 453 1309 247 
Q 1469 100 1697 100 
Q 1969 100 2183 356 
Q 2397 613 2397 1088 
Q 2397 1622 2184 2012 
Q 1972 2403 1581 2403 
Q 1463 2403 1327 2353 
Q 1191 2303 925 2138 
z
" id="TimesNewRomanPSMT-36" transform="scale(0.015625)"/>
       </defs>
       <use xlink:href="#TimesNewRomanPSMT-2212"/>
       <use x="56.396484" xlink:href="#TimesNewRomanPSMT-30"/>
       <use x="106.396484" xlink:href="#TimesNewRomanPSMT-2e"/>
       <use x="131.396484" xlink:href="#TimesNewRomanPSMT-30"/>
       <use x="181.396484" xlink:href="#TimesNewRomanPSMT-36"/>
      </g>
     </g>
    </g>
    <g id="ytick_2">
     <g id="line2d_15">
      <path clip-path="url(#p3a67faac36)" d="M 63.336875 257.692023 
L 398.136875 257.692023 
" style="fill:none;stroke:#000000;stroke-dasharray:0.5,0.825;stroke-dashoffset:0;stroke-width:0.5;"/>
     </g>
     <g id="line2d_16">
      <g>
       <use style="stroke:#000000;stroke-width:0.8;" x="63.336875" xlink:href="#mdb94d3167f" y="257.692023"/>
      </g>
     </g>
     <g id="text_9">
      <!-- −0.04 -->
      <g transform="translate(23.942188 262.552648)scale(0.14 -0.14)">
       <use xlink:href="#TimesNewRomanPSMT-2212"/>
       <use x="56.396484" xlink:href="#TimesNewRomanPSMT-30"/>
       <use x="106.396484" xlink:href="#TimesNewRomanPSMT-2e"/>
       <use x="131.396484" xlink:href="#TimesNewRomanPSMT-30"/>
       <use x="181.396484" xlink:href="#TimesNewRomanPSMT-34"/>
      </g>
     </g>
    </g>
    <g id="ytick_3">
     <g id="line2d_17">
      <path clip-path="url(#p3a67faac36)" d="M 63.336875 208.565743 
L 398.136875 208.565743 
" style="fill:none;stroke:#000000;stroke-dasharray:0.5,0.825;stroke-dashoffset:0;stroke-width:0.5;"/>
     </g>
     <g id="line2d_18">
      <g>
       <use style="stroke:#000000;stroke-width:0.8;" x="63.336875" xlink:href="#mdb94d3167f" y="208.565743"/>
      </g>
     </g>
     <g id="text_10">
      <!-- −0.02 -->
      <g transform="translate(23.942188 213.426368)scale(0.14 -0.14)">
       <use xlink:href="#TimesNewRomanPSMT-2212"/>
       <use x="56.396484" xlink:href="#TimesNewRomanPSMT-30"/>
       <use x="106.396484" xlink:href="#TimesNewRomanPSMT-2e"/>
       <use x="131.396484" xlink:href="#TimesNewRomanPSMT-30"/>
       <use x="181.396484" xlink:href="#TimesNewRomanPSMT-32"/>
      </g>
     </g>
    </g>
    <g id="ytick_4">
     <g id="line2d_19">
      <path clip-path="url(#p3a67faac36)" d="M 63.336875 159.439464 
L 398.136875 159.439464 
" style="fill:none;stroke:#000000;stroke-dasharray:0.5,0.825;stroke-dashoffset:0;stroke-width:0.5;"/>
     </g>
     <g id="line2d_20">
      <g>
       <use style="stroke:#000000;stroke-width:0.8;" x="63.336875" xlink:href="#mdb94d3167f" y="159.439464"/>
      </g>
     </g>
     <g id="text_11">
      <!-- 0.00 -->
      <g transform="translate(31.836875 164.300089)scale(0.14 -0.14)">
       <use xlink:href="#TimesNewRomanPSMT-30"/>
       <use x="50" xlink:href="#TimesNewRomanPSMT-2e"/>
       <use x="75" xlink:href="#TimesNewRomanPSMT-30"/>
       <use x="125" xlink:href="#TimesNewRomanPSMT-30"/>
      </g>
     </g>
    </g>
    <g id="ytick_5">
     <g id="line2d_21">
      <path clip-path="url(#p3a67faac36)" d="M 63.336875 110.313184 
L 398.136875 110.313184 
" style="fill:none;stroke:#000000;stroke-dasharray:0.5,0.825;stroke-dashoffset:0;stroke-width:0.5;"/>
     </g>
     <g id="line2d_22">
      <g>
       <use style="stroke:#000000;stroke-width:0.8;" x="63.336875" xlink:href="#mdb94d3167f" y="110.313184"/>
      </g>
     </g>
     <g id="text_12">
      <!-- 0.02 -->
      <g transform="translate(31.836875 115.173809)scale(0.14 -0.14)">
       <use xlink:href="#TimesNewRomanPSMT-30"/>
       <use x="50" xlink:href="#TimesNewRomanPSMT-2e"/>
       <use x="75" xlink:href="#TimesNewRomanPSMT-30"/>
       <use x="125" xlink:href="#TimesNewRomanPSMT-32"/>
      </g>
     </g>
    </g>
    <g id="ytick_6">
     <g id="line2d_23">
      <path clip-path="url(#p3a67faac36)" d="M 63.336875 61.186905 
L 398.136875 61.186905 
" style="fill:none;stroke:#000000;stroke-dasharray:0.5,0.825;stroke-dashoffset:0;stroke-width:0.5;"/>
     </g>
     <g id="line2d_24">
      <g>
       <use style="stroke:#000000;stroke-width:0.8;" x="63.336875" xlink:href="#mdb94d3167f" y="61.186905"/>
      </g>
     </g>
     <g id="text_13">
      <!-- 0.04 -->
      <g transform="translate(31.836875 66.04753)scale(0.14 -0.14)">
       <use xlink:href="#TimesNewRomanPSMT-30"/>
       <use x="50" xlink:href="#TimesNewRomanPSMT-2e"/>
       <use x="75" xlink:href="#TimesNewRomanPSMT-30"/>
       <use x="125" xlink:href="#TimesNewRomanPSMT-34"/>
      </g>
     </g>
    </g>
    <g id="ytick_7">
     <g id="line2d_25">
      <path clip-path="url(#p3a67faac36)" d="M 63.336875 12.060625 
L 398.136875 12.060625 
" style="fill:none;stroke:#000000;stroke-dasharray:0.5,0.825;stroke-dashoffset:0;stroke-width:0.5;"/>
     </g>
     <g id="line2d_26">
      <g>
       <use style="stroke:#000000;stroke-width:0.8;" x="63.336875" xlink:href="#mdb94d3167f" y="12.060625"/>
      </g>
     </g>
     <g id="text_14">
      <!-- 0.06 -->
      <g transform="translate(31.836875 16.92125)scale(0.14 -0.14)">
       <use xlink:href="#TimesNewRomanPSMT-30"/>
       <use x="50" xlink:href="#TimesNewRomanPSMT-2e"/>
       <use x="75" xlink:href="#TimesNewRomanPSMT-30"/>
       <use x="125" xlink:href="#TimesNewRomanPSMT-36"/>
      </g>
     </g>
    </g>
    <g id="text_15">
     <!-- Volatage (V) -->
     <g transform="translate(16.92125 214.177932)rotate(-90)scale(0.14 -0.14)">
      <defs>
       <path d="M 4544 4238 
L 4544 4122 
Q 4319 4081 4203 3978 
Q 4038 3825 3909 3509 
L 2431 -97 
L 2316 -97 
L 728 3556 
Q 606 3838 556 3900 
Q 478 3997 364 4051 
Q 250 4106 56 4122 
L 56 4238 
L 1788 4238 
L 1788 4122 
Q 1494 4094 1406 4022 
Q 1319 3950 1319 3838 
Q 1319 3681 1463 3350 
L 2541 866 
L 3541 3319 
Q 3688 3681 3688 3822 
Q 3688 3913 3597 3995 
Q 3506 4078 3291 4113 
Q 3275 4116 3238 4122 
L 3238 4238 
L 4544 4238 
z
" id="TimesNewRomanPSMT-56" transform="scale(0.015625)"/>
       <path d="M 1600 2947 
Q 2250 2947 2644 2453 
Q 2978 2031 2978 1484 
Q 2978 1100 2793 706 
Q 2609 313 2286 112 
Q 1963 -88 1566 -88 
Q 919 -88 538 428 
Q 216 863 216 1403 
Q 216 1797 411 2186 
Q 606 2575 925 2761 
Q 1244 2947 1600 2947 
z
M 1503 2744 
Q 1338 2744 1170 2645 
Q 1003 2547 900 2300 
Q 797 2053 797 1666 
Q 797 1041 1045 587 
Q 1294 134 1700 134 
Q 2003 134 2200 384 
Q 2397 634 2397 1244 
Q 2397 2006 2069 2444 
Q 1847 2744 1503 2744 
z
" id="TimesNewRomanPSMT-6f" transform="scale(0.015625)"/>
       <path d="M 1184 4444 
L 1184 647 
Q 1184 378 1223 290 
Q 1263 203 1344 158 
Q 1425 113 1647 113 
L 1647 0 
L 244 0 
L 244 113 
Q 441 113 512 153 
Q 584 194 625 287 
Q 666 381 666 647 
L 666 3247 
Q 666 3731 644 3842 
Q 622 3953 573 3993 
Q 525 4034 450 4034 
Q 369 4034 244 3984 
L 191 4094 
L 1044 4444 
L 1184 4444 
z
" id="TimesNewRomanPSMT-6c" transform="scale(0.015625)"/>
       <path d="M 1822 413 
Q 1381 72 1269 19 
Q 1100 -59 909 -59 
Q 613 -59 420 144 
Q 228 347 228 678 
Q 228 888 322 1041 
Q 450 1253 767 1440 
Q 1084 1628 1822 1897 
L 1822 2009 
Q 1822 2438 1686 2597 
Q 1550 2756 1291 2756 
Q 1094 2756 978 2650 
Q 859 2544 859 2406 
L 866 2225 
Q 866 2081 792 2003 
Q 719 1925 600 1925 
Q 484 1925 411 2006 
Q 338 2088 338 2228 
Q 338 2497 613 2722 
Q 888 2947 1384 2947 
Q 1766 2947 2009 2819 
Q 2194 2722 2281 2516 
Q 2338 2381 2338 1966 
L 2338 994 
Q 2338 584 2353 492 
Q 2369 400 2405 369 
Q 2441 338 2488 338 
Q 2538 338 2575 359 
Q 2641 400 2828 588 
L 2828 413 
Q 2478 -56 2159 -56 
Q 2006 -56 1915 50 
Q 1825 156 1822 413 
z
M 1822 616 
L 1822 1706 
Q 1350 1519 1213 1441 
Q 966 1303 859 1153 
Q 753 1003 753 825 
Q 753 600 887 451 
Q 1022 303 1197 303 
Q 1434 303 1822 616 
z
" id="TimesNewRomanPSMT-61" transform="scale(0.015625)"/>
       <path d="M 1031 3803 
L 1031 2863 
L 1700 2863 
L 1700 2644 
L 1031 2644 
L 1031 788 
Q 1031 509 1111 412 
Q 1191 316 1316 316 
Q 1419 316 1516 380 
Q 1613 444 1666 569 
L 1788 569 
Q 1678 263 1478 108 
Q 1278 -47 1066 -47 
Q 922 -47 784 33 
Q 647 113 581 261 
Q 516 409 516 719 
L 516 2644 
L 63 2644 
L 63 2747 
Q 234 2816 414 2980 
Q 594 3144 734 3369 
Q 806 3488 934 3803 
L 1031 3803 
z
" id="TimesNewRomanPSMT-74" transform="scale(0.015625)"/>
       <path d="M 966 1044 
Q 703 1172 562 1401 
Q 422 1631 422 1909 
Q 422 2334 742 2640 
Q 1063 2947 1563 2947 
Q 1972 2947 2272 2747 
L 2878 2747 
Q 3013 2747 3034 2739 
Q 3056 2731 3066 2713 
Q 3084 2684 3084 2613 
Q 3084 2531 3069 2500 
Q 3059 2484 3036 2475 
Q 3013 2466 2878 2466 
L 2506 2466 
Q 2681 2241 2681 1891 
Q 2681 1491 2375 1206 
Q 2069 922 1553 922 
Q 1341 922 1119 984 
Q 981 866 932 777 
Q 884 688 884 625 
Q 884 572 936 522 
Q 988 472 1138 450 
Q 1225 438 1575 428 
Q 2219 413 2409 384 
Q 2700 344 2873 169 
Q 3047 -6 3047 -263 
Q 3047 -616 2716 -925 
Q 2228 -1381 1444 -1381 
Q 841 -1381 425 -1109 
Q 191 -953 191 -784 
Q 191 -709 225 -634 
Q 278 -519 444 -313 
Q 466 -284 763 25 
Q 600 122 533 198 
Q 466 275 466 372 
Q 466 481 555 628 
Q 644 775 966 1044 
z
M 1509 2797 
Q 1278 2797 1122 2612 
Q 966 2428 966 2047 
Q 966 1553 1178 1281 
Q 1341 1075 1591 1075 
Q 1828 1075 1981 1253 
Q 2134 1431 2134 1813 
Q 2134 2309 1919 2591 
Q 1759 2797 1509 2797 
z
M 934 0 
Q 788 -159 713 -296 
Q 638 -434 638 -550 
Q 638 -700 819 -813 
Q 1131 -1006 1722 -1006 
Q 2284 -1006 2551 -807 
Q 2819 -609 2819 -384 
Q 2819 -222 2659 -153 
Q 2497 -84 2016 -72 
Q 1313 -53 934 0 
z
" id="TimesNewRomanPSMT-67" transform="scale(0.015625)"/>
      </defs>
      <use xlink:href="#TimesNewRomanPSMT-56"/>
      <use x="59.341797" xlink:href="#TimesNewRomanPSMT-6f"/>
      <use x="109.341797" xlink:href="#TimesNewRomanPSMT-6c"/>
      <use x="137.125" xlink:href="#TimesNewRomanPSMT-61"/>
      <use x="181.509766" xlink:href="#TimesNewRomanPSMT-74"/>
      <use x="209.292969" xlink:href="#TimesNewRomanPSMT-61"/>
      <use x="253.677734" xlink:href="#TimesNewRomanPSMT-67"/>
      <use x="303.677734" xlink:href="#TimesNewRomanPSMT-65"/>
      <use x="348.0625" xlink:href="#TimesNewRomanPSMT-20"/>
      <use x="373.0625" xlink:href="#TimesNewRomanPSMT-28"/>
      <use x="406.363281" xlink:href="#TimesNewRomanPSMT-56"/>
      <use x="478.580078" xlink:href="#TimesNewRomanPSMT-29"/>
     </g>
    </g>
   </g>
   <g id="LineCollection_1">
    <path clip-path="url(#p3a67faac36)" d="M 78.555057 159.439464 
L 382.918693 159.439464 
" style="fill:none;stroke:#1f77b4;stroke-width:1.5;"/>
   </g>
   <g id="line2d_27">
    <path clip-path="url(#p3a67faac36)" d="M 78.555057 159.507258 
L 84.003166 159.415146 
L 84.155348 159.384442 
L 84.337966 159.415146 
L 84.490148 159.353738 
L 84.611893 159.384442 
L 87.89902 159.323035 
L 87.929457 159.261627 
L 88.020766 159.323035 
L 106.860875 159.415146 
L 106.98262 159.415146 
L 107.134802 159.415146 
L 112.43073 159.507258 
L 112.613348 159.537962 
L 113.617748 159.630074 
L 113.76993 159.691482 
L 113.891675 159.660778 
L 114.713457 159.75289 
L 114.835202 159.783593 
L 115.413493 159.875705 
L 115.596111 159.906409 
L 115.748293 159.906409 
L 116.235275 159.998521 
L 116.44833 160.059929 
L 117.209239 160.152041 
L 117.422293 160.244152 
L 117.574475 160.213448 
L 117.757093 160.274856 
L 117.878839 160.274856 
L 118.061457 160.30556 
L 118.213639 160.30556 
L 118.426693 160.366968 
L 119.065857 160.428376 
L 119.187602 160.520488 
L 119.218039 160.489784 
L 119.309348 160.489784 
L 119.339784 160.520488 
L 120.313748 160.612599 
L 120.435493 160.643303 
L 120.46593 160.612599 
L 121.348584 160.704711 
L 121.500766 160.766119 
L 121.531202 160.735415 
L 121.622511 160.735415 
L 121.774693 160.796823 
L 121.896439 160.827527 
L 122.352984 160.919639 
L 122.596475 161.01175 
L 122.900839 161.103862 
L 123.14433 161.195974 
L 123.448693 161.288086 
L 123.692184 161.410901 
L 123.81393 161.441605 
L 124.179166 161.656533 
L 124.39222 161.748645 
L 124.544402 161.902164 
L 124.574839 161.87146 
L 124.879202 162.086388 
L 124.909639 162.055684 
L 124.970511 162.147796 
L 126.309711 163.621584 
L 126.583639 164.112847 
L 126.857566 164.542702 
L 128.07502 167.18324 
L 128.288075 167.766614 
L 128.622875 168.687732 
L 130.41862 174.460069 
L 132.244802 181.368453 
L 135.288439 190.241887 
L 136.262402 191.961307 
L 136.658075 192.268346 
L 136.688511 192.237642 
L 136.77982 192.329754 
L 136.992875 192.391162 
L 137.44942 192.29905 
L 137.78422 192.114826 
L 137.905966 192.053418 
L 138.11902 191.869195 
L 138.819057 191.009485 
L 139.54953 189.290065 
L 140.249566 186.833751 
L 141.071348 183.057167 
L 141.80182 178.820027 
L 142.927966 171.328269 
L 145.14982 152.506763 
L 146.336839 140.532232 
L 147.006439 133.47033 
L 152.332802 75.593432 
L 153.27633 67.149852 
L 154.52422 57.969384 
L 156.19822 50.078473 
L 156.563457 49.034542 
L 157.233057 47.9292 
L 157.750475 47.530047 
L 158.359202 48.297643 
L 159.515784 52.135631 
L 161.068039 62.114406 
L 161.64633 67.30337 
L 162.802911 80.076207 
L 163.685566 92.050735 
L 164.750839 108.661556 
L 166.029166 131.04472 
L 168.738002 185.083626 
L 170.168511 214.405876 
L 172.512111 259.448536 
L 173.394766 274.278531 
L 175.068766 297.95126 
L 176.012293 308.912558 
L 177.108002 318.860625 
L 178.112402 325.185639 
L 178.538511 327.119978 
L 179.116802 328.563063 
L 179.29942 328.900809 
L 179.542911 329.299969 
L 179.72553 329.514897 
L 179.755966 329.484188 
L 179.938584 329.514897 
L 180.090766 329.42277 
L 180.699493 328.685881 
L 181.64302 325.492675 
L 182.98222 316.742049 
L 183.74313 309.710856 
L 184.65622 299.394337 
L 185.964984 282.230848 
L 186.75633 270.409834 
L 187.912911 251.281289 
L 189.495602 222.235376 
L 191.900075 174.030214 
L 193.45233 143.418401 
L 195.582875 106.727214 
L 197.37862 79.523537 
L 199.022184 60.916956 
L 200.544002 48.082718 
L 201.000548 45.227255 
L 201.639711 41.450667 
L 202.218002 39.086465 
L 202.40062 38.472387 
L 203.039784 36.353811 
L 204.044184 34.542282 
L 204.135493 34.450173 
L 204.318111 34.204536 
L 204.957275 34.265947 
L 205.139893 34.419474 
L 205.292075 34.480872 
L 205.535566 34.726508 
L 205.596439 34.787916 
L 206.75302 37.367045 
L 207.483493 39.884762 
L 208.153093 42.709526 
L 208.548766 44.735982 
L 211.166293 61.254699 
L 211.988075 66.996335 
L 212.596802 71.325584 
L 218.379711 117.105138 
L 221.453784 138.075918 
L 222.123384 141.975317 
L 222.762548 145.782603 
L 223.097348 147.594136 
L 225.075711 157.02024 
L 230.18902 178.113837 
L 230.554257 179.956072 
L 232.715239 191.408636 
L 234.96753 208.050163 
L 236.245857 218.64302 
L 239.350366 242.83771 
L 239.837348 246.430069 
L 240.293893 249.224124 
L 241.32873 254.842942 
L 242.728802 260.031905 
L 243.550584 262.18118 
L 244.34193 263.532158 
L 244.889784 263.931301 
L 245.133275 263.839192 
L 245.468075 263.347932 
L 246.837711 258.895865 
L 248.998693 245.140502 
L 250.36833 233.19668 
L 252.468439 210.936332 
L 253.351093 200.773335 
L 255.238148 178.6051 
L 256.212111 167.213943 
L 259.042693 139.764635 
L 261.690657 121.833545 
L 262.542875 118.056962 
L 264.399493 112.775885 
L 264.612548 112.40744 
L 265.221275 111.424912 
L 265.586511 110.933649 
L 265.738693 110.718722 
L 265.76913 110.749426 
L 265.830002 110.688018 
L 266.043057 110.503797 
L 266.134366 110.503797 
L 266.164802 110.47309 
L 266.34742 110.380978 
L 266.560475 110.288864 
L 266.590911 110.319568 
L 266.651784 110.258165 
L 266.895275 110.135347 
L 267.01702 110.135347 
L 267.047457 110.073939 
L 267.138766 110.135347 
L 267.412693 110.196755 
L 267.625748 110.380978 
L 268.082293 110.688018 
L 268.173602 110.749426 
L 268.386657 110.933649 
L 269.086693 111.793359 
L 269.45193 112.284622 
L 269.78673 112.775885 
L 271.247675 115.938391 
L 271.734657 117.442881 
L 272.678184 120.636089 
L 273.530402 123.61437 
L 276.48273 132.211469 
L 276.908839 133.31681 
L 277.639311 135.18975 
L 278.187166 136.510019 
L 278.49153 137.277616 
L 280.195966 140.470826 
L 280.530766 140.962088 
L 281.07862 141.852502 
L 281.139493 141.944613 
L 281.778657 142.988547 
L 282.143893 143.510513 
L 282.84393 144.677263 
L 283.42222 145.414157 
L 283.84833 146.058939 
L 283.909202 146.151051 
L 285.065784 147.440616 
L 285.248402 147.655543 
L 285.400584 147.747654 
L 285.583202 147.901174 
L 285.796257 147.962582 
L 285.948439 148.054694 
L 286.131057 148.146805 
L 286.344111 148.208214 
L 287.43982 148.116102 
L 287.622439 148.054694 
L 287.652875 148.085398 
L 287.713748 147.993287 
L 288.018111 147.839767 
L 288.170293 147.778359 
L 288.383348 147.563431 
L 288.505093 147.471319 
L 289.661675 146.151051 
L 290.605202 144.493039 
L 290.78782 144.186 
L 291.335675 142.865731 
L 292.370511 140.532232 
L 293.253166 138.198734 
L 293.496657 137.461841 
L 294.13582 135.343269 
L 294.379311 134.637079 
L 295.079348 132.272877 
L 298.396911 122.509029 
L 298.457784 122.416919 
L 299.188257 121.18876 
L 299.949166 120.574679 
L 300.344839 120.482572 
L 300.49702 120.421162 
L 300.527457 120.482572 
L 300.557893 120.390458 
L 300.58833 120.421162 
L 300.740511 120.390458 
L 300.984002 120.636089 
L 301.59273 121.372981 
L 301.775348 121.649316 
L 301.83622 121.710727 
L 302.444948 123.184515 
L 302.779748 124.32056 
L 303.17542 125.825053 
L 304.84942 134.821303 
L 305.975566 143.01925 
L 306.645166 148.515253 
L 307.710439 157.972062 
L 310.084475 182.995761 
L 311.362802 197.211678 
L 312.032402 204.273583 
L 313.371602 217.906121 
L 315.289093 234.363424 
L 317.419639 246.583589 
L 318.119675 248.947788 
L 318.606657 250.083839 
L 318.971893 250.575101 
L 319.124075 250.728619 
L 319.33713 250.790029 
L 319.854548 250.69791 
L 320.737202 249.653976 
L 321.58942 247.68893 
L 323.26342 240.473508 
L 324.633057 231.507962 
L 326.124439 220.239624 
L 327.159275 211.857452 
L 327.70713 207.251864 
L 333.703093 153.827032 
L 336.716293 130.399937 
L 339.607748 113.54348 
L 340.186039 110.749426 
L 341.555675 104.393713 
L 344.142766 94.414938 
L 346.334184 88.120631 
L 346.882039 87.260926 
L 348.008184 86.278395 
L 348.251675 86.186288 
L 348.525602 86.06347 
L 348.829966 85.971356 
L 349.012584 85.940657 
L 349.408257 86.032766 
L 349.71262 86.186288 
L 349.864802 86.278395 
L 350.04742 86.43192 
L 350.199602 86.524027 
L 350.564839 87.045993 
L 350.595275 87.045993 
L 350.777893 87.383739 
L 351.05182 87.813596 
L 353.39542 92.78763 
L 355.252039 98.744191 
L 355.860766 101.261913 
L 356.134693 102.428664 
L 359.665311 120.789611 
L 361.85673 133.378218 
L 362.648075 137.891696 
L 363.135057 140.624343 
L 363.43942 142.251653 
L 363.987275 145.352749 
L 365.965639 156.651793 
L 366.817857 161.503013 
L 367.365711 164.60411 
L 368.21793 169.455329 
L 369.80062 178.390172 
L 370.13542 180.201704 
L 371.383311 187.048679 
L 372.874693 195.400146 
L 373.666039 199.944329 
L 375.340039 209.431842 
L 375.705275 211.366185 
L 376.861857 217.691196 
L 379.905493 232.490485 
L 380.696839 235.25384 
L 380.94033 235.990732 
L 381.731675 238.047898 
L 382.52302 239.429577 
L 382.644766 239.521684 
L 382.888257 239.82873 
L 382.918693 239.798019 
" style="fill:none;stroke:#0000ff;stroke-linecap:square;stroke-width:1.5;"/>
   </g>
   <g id="line2d_28">
    <path clip-path="url(#p3a67faac36)" d="M 78.555057 159.510206 
L 78.707239 159.54091 
L 78.981166 159.525558 
L 79.224657 159.525558 
L 82.268293 159.433446 
L 82.390039 159.433446 
L 82.63353 159.433446 
L 82.87702 159.418094 
L 83.120511 159.418094 
L 94.990693 159.525558 
L 95.26462 159.54091 
L 95.508111 159.54091 
L 95.782039 159.556262 
L 100.743166 159.663725 
L 101.199711 159.786541 
L 101.351893 159.832597 
L 101.686693 159.940061 
L 102.021493 160.139636 
L 102.204111 160.2471 
L 102.782402 160.661603 
L 103.29982 161.244977 
L 103.695493 161.797648 
L 104.608584 163.3789 
L 105.39993 165.221136 
L 106.434766 168.122657 
L 107.895711 172.897116 
L 110.361057 181.233233 
L 110.695857 182.154351 
L 112.43073 186.237971 
L 113.039457 187.220498 
L 113.252511 187.435425 
L 113.556875 187.696409 
L 114.01342 188.0188 
L 114.896075 187.926688 
L 116.052657 186.621771 
L 116.630948 185.224743 
L 118.000584 180.741969 
L 120.405057 169.335461 
L 122.535602 155.764327 
L 124.787893 139.568007 
L 125.944475 132.183713 
L 126.918439 126.518839 
L 129.109857 114.974163 
L 130.357748 110.383924 
L 131.42302 107.513112 
L 131.879566 106.361709 
L 132.701348 104.227792 
L 133.76662 102.324148 
L 134.314475 101.694718 
L 135.166693 100.681483 
L 135.501493 100.251631 
L 135.836293 100.052055 
L 135.988475 100.021351 
L 136.53633 99.637552 
L 136.749384 99.422625 
L 137.297239 99.269108 
L 137.662475 99.376571 
L 138.45382 99.898538 
L 139.032111 101.310914 
L 139.853893 103.675121 
L 141.375711 109.447454 
L 142.380111 114.498252 
L 143.293202 120.178478 
L 144.388911 128.084739 
L 147.432548 153.476885 
L 148.741311 166.172957 
L 151.815384 196.677307 
L 152.576293 203.923433 
L 154.098111 216.742321 
L 155.772111 227.795734 
L 156.441711 231.188518 
L 157.29393 234.550598 
L 158.328766 237.375361 
L 159.820148 238.741679 
L 160.154948 238.649569 
L 160.733239 238.189013 
L 160.824548 238.112253 
L 161.433275 237.006912 
L 162.498548 234.059335 
L 163.502948 229.56121 
L 164.23342 225.308716 
L 165.450875 216.634858 
L 167.733602 196.109284 
L 172.116439 157.299523 
L 173.577384 147.075117 
L 174.764402 140.028564 
L 175.677493 135.990999 
L 176.742766 132.598216 
L 177.503675 131.308651 
L 177.96022 130.98626 
L 178.203711 131.078371 
L 179.847275 132.874551 
L 180.212511 133.534685 
L 180.516875 133.995244 
L 181.277784 135.76072 
L 183.256148 144.204299 
L 184.290984 149.393262 
L 186.08673 158.742608 
L 186.908511 162.51919 
L 189.556475 174.048514 
L 190.652184 177.53341 
L 192.02182 180.051132 
L 192.265311 180.450283 
L 192.813166 181.540271 
L 193.574075 182.507445 
L 194.578475 182.891244 
L 194.913275 182.783781 
L 195.522002 182.599556 
L 196.100293 182.492093 
L 197.013384 181.417456 
L 197.80473 180.03578 
L 198.352584 178.500583 
L 199.14393 175.813989 
L 201.609275 161.521313 
L 203.465893 148.625665 
L 205.07902 135.730016 
L 206.113857 128.714169 
L 208.09222 116.06415 
L 209.157493 109.7852 
L 211.288039 99.606848 
L 212.353311 96.736029 
L 213.296839 95.078022 
L 214.301239 94.218312 
L 214.696911 94.141547 
L 214.970839 94.249016 
L 215.640439 94.770983 
L 215.79262 94.955204 
L 216.310039 95.937727 
L 217.831857 100.052055 
L 219.81022 107.436347 
L 222.306002 117.952443 
L 223.188657 121.851839 
L 223.91913 125.259978 
L 224.984402 130.60246 
L 227.023639 140.320252 
L 232.410875 165.267192 
L 234.145748 175.506951 
L 235.941493 187.404721 
L 237.676366 198.043631 
L 238.55902 202.741334 
L 239.746039 207.623258 
L 240.506948 210.248439 
L 240.963493 211.676176 
L 241.602657 213.533761 
L 242.089639 214.669806 
L 243.824511 217.924422 
L 246.01593 221.05622 
L 246.411602 221.378616 
L 246.655093 221.578187 
L 246.776839 221.624245 
L 247.720366 221.977341 
L 248.35953 222.084804 
L 248.60302 222.084804 
L 249.27262 221.869877 
L 249.668293 221.762413 
L 250.824875 221.301857 
L 251.859711 221.209742 
L 252.072766 221.132985 
L 252.438002 221.025521 
L 253.29022 220.718482 
L 253.564148 220.626368 
L 253.746766 220.595664 
L 253.990257 220.580314 
L 254.507675 220.718482 
L 255.177275 220.825943 
L 255.938184 221.086924 
L 256.455602 221.194388 
L 257.338257 221.762413 
L 257.886111 222.161562 
L 258.038293 222.269025 
L 258.494839 222.606771 
L 258.768766 222.821696 
L 259.560111 223.098031 
L 260.594948 223.005925 
L 261.051493 222.698883 
L 261.355857 222.422547 
L 262.360257 220.718482 
L 263.729893 216.220355 
L 264.76473 211.614766 
L 266.195239 202.311474 
L 267.35182 192.08707 
L 268.02142 185.439669 
L 269.938911 162.933693 
L 271.247675 145.785552 
L 274.200002 102.523719 
L 276.360984 72.510635 
L 277.791493 55.178267 
L 278.856766 44.554711 
L 280.195966 34.575936 
L 281.07862 30.292741 
L 281.535166 28.711484 
L 281.900402 27.943886 
L 282.265639 27.437271 
L 282.935239 27.222343 
L 283.209166 27.46798 
L 283.635275 28.296986 
L 284.244002 30.123869 
L 284.609239 31.582301 
L 285.674511 37.523508 
L 286.618039 44.447248 
L 287.805057 55.546719 
L 288.809457 66.753644 
L 291.54873 101.234156 
L 294.166257 135.407625 
L 299.644802 194.988591 
L 301.410111 210.018162 
L 303.17542 222.560715 
L 304.453748 228.455869 
L 305.792948 232.186396 
L 306.219057 233.030753 
L 307.28433 234.949751 
L 308.045239 235.579182 
L 308.227857 235.655939 
L 308.410475 235.732699 
L 308.927893 235.625235 
L 309.384439 235.517771 
L 309.932293 235.410308 
L 310.388839 235.057215 
L 311.393239 233.890463 
L 312.275893 231.864002 
L 313.402039 228.133477 
L 314.710802 221.685656 
L 315.65433 216.235707 
L 317.693566 203.232595 
L 319.063202 193.714378 
L 320.67633 182.399982 
L 322.35033 171.36192 
L 323.293857 165.896622 
L 326.641857 149.577486 
L 327.95062 145.355696 
L 328.802839 143.129662 
L 329.350693 142.024321 
L 329.594184 141.62517 
L 330.446402 140.535181 
L 330.781202 140.243493 
L 331.176875 139.98251 
L 331.481239 139.875047 
L 331.816039 139.82899 
L 332.455202 139.936453 
L 334.433566 141.057147 
L 336.807602 143.313885 
L 337.08153 143.42135 
L 337.32502 143.513461 
L 338.99902 143.436701 
L 339.120766 143.390645 
L 339.42513 143.283182 
L 340.00342 142.884031 
L 340.277348 142.653751 
L 340.76433 142.285305 
L 341.890475 140.995738 
L 342.34702 140.3049 
L 342.560075 139.936453 
L 343.077493 138.953927 
L 343.564475 138.002105 
L 345.421093 135.392273 
L 345.69502 135.131289 
L 348.069057 132.889903 
L 349.103893 132.490752 
L 349.743057 132.598216 
L 350.899639 133.304406 
L 352.512766 135.929591 
L 353.091057 137.326619 
L 353.638911 138.662242 
L 354.978111 143.068254 
L 355.708584 146.046535 
L 356.926039 151.066626 
L 360.730584 165.95803 
L 361.85673 169.535037 
L 364.048148 175.813989 
L 364.961239 177.886505 
L 365.356911 178.746215 
L 365.843893 179.682684 
L 366.391748 180.557746 
L 367.061348 181.079714 
L 367.426584 181.171825 
L 367.700511 181.29464 
L 367.822257 181.309992 
L 368.79622 181.217881 
L 369.039711 181.110416 
L 369.22233 181.018305 
L 370.378911 179.083958 
L 370.987639 177.594817 
L 373.666039 170.57897 
L 374.335639 168.337584 
L 374.792184 166.8945 
L 376.953166 160.032172 
L 377.683639 157.207411 
L 380.057675 148.426089 
L 381.092511 144.695562 
L 382.52302 140.013214 
L 382.918693 138.80041 
L 382.918693 138.80041 
" style="fill:none;stroke:#ff0000;stroke-linecap:square;stroke-width:1.5;"/>
   </g>
   <g id="line2d_29">
    <path clip-path="url(#p3a67faac36)" d="M 128.348948 167.950837 
" style="fill:none;stroke:#ffffff;stroke-linecap:square;stroke-width:1.5;"/>
    <defs>
     <path d="M 0 -5 
L -1.12257 -1.545085 
L -4.755283 -1.545085 
L -1.816356 0.59017 
L -2.938926 4.045085 
L -0 1.90983 
L 2.938926 4.045085 
L 1.816356 0.59017 
L 4.755283 -1.545085 
L 1.12257 -1.545085 
z
" id="m55bc99f8b5" style="stroke:#ffffff;stroke-linejoin:bevel;"/>
    </defs>
    <g clip-path="url(#p3a67faac36)">
     <use style="fill:#0000ff;stroke:#ffffff;stroke-linejoin:bevel;" x="128.348948" xlink:href="#m55bc99f8b5" y="167.950837"/>
    </g>
   </g>
   <g id="line2d_30">
    <path clip-path="url(#p3a67faac36)" d="M 105.73473 166.111549 
" style="fill:none;stroke:#ffffff;stroke-linecap:square;stroke-width:1.5;"/>
    <defs>
     <path d="M 0 -5 
L -1.12257 -1.545085 
L -4.755283 -1.545085 
L -1.816356 0.59017 
L -2.938926 4.045085 
L -0 1.90983 
L 2.938926 4.045085 
L 1.816356 0.59017 
L 4.755283 -1.545085 
L 1.12257 -1.545085 
z
" id="mea76d8d9ee" style="stroke:#ffffff;stroke-linejoin:bevel;"/>
    </defs>
    <g clip-path="url(#p3a67faac36)">
     <use style="fill:#ff0000;stroke:#ffffff;stroke-linejoin:bevel;" x="105.73473" xlink:href="#mea76d8d9ee" y="166.111549"/>
    </g>
   </g>
   <g id="patch_3">
    <path d="M 63.336875 344.665588 
L 63.336875 12.025588 
" style="fill:none;stroke:#000000;stroke-linecap:square;stroke-linejoin:miter;stroke-width:0.8;"/>
   </g>
   <g id="patch_4">
    <path d="M 398.136875 344.665588 
L 398.136875 12.025588 
" style="fill:none;stroke:#000000;stroke-linecap:square;stroke-linejoin:miter;stroke-width:0.8;"/>
   </g>
   <g id="patch_5">
    <path d="M 63.336875 344.665588 
L 398.136875 344.665588 
" style="fill:none;stroke:#000000;stroke-linecap:square;stroke-linejoin:miter;stroke-width:0.8;"/>
   </g>
   <g id="patch_6">
    <path d="M 63.336875 12.025588 
L 398.136875 12.025588 
" style="fill:none;stroke:#000000;stroke-linecap:square;stroke-linejoin:miter;stroke-width:0.8;"/>
   </g>
   <g id="text_16">
    <g id="patch_7">
     <path d="M 75.036875 336.068276 
L 166.79375 336.068276 
L 166.79375 298.585901 
L 75.036875 298.585901 
z
" style="fill:#ffffff;stroke:#000000;stroke-linejoin:miter;stroke-width:0.75;"/>
    </g>
    <!-- Auto_00052 -->
    <g transform="translate(80.076875 313.347151)scale(0.14 -0.14)">
     <defs>
      <path d="M 2928 1419 
L 1288 1419 
L 1000 750 
Q 894 503 894 381 
Q 894 284 986 211 
Q 1078 138 1384 116 
L 1384 0 
L 50 0 
L 50 116 
Q 316 163 394 238 
Q 553 388 747 847 
L 2238 4334 
L 2347 4334 
L 3822 809 
Q 4000 384 4145 257 
Q 4291 131 4550 116 
L 4550 0 
L 2878 0 
L 2878 116 
Q 3131 128 3220 200 
Q 3309 272 3309 375 
Q 3309 513 3184 809 
L 2928 1419 
z
M 2841 1650 
L 2122 3363 
L 1384 1650 
L 2841 1650 
z
" id="TimesNewRomanPSMT-41" transform="scale(0.015625)"/>
      <path d="M 2709 2863 
L 2709 1128 
Q 2709 631 2732 520 
Q 2756 409 2807 365 
Q 2859 322 2928 322 
Q 3025 322 3147 375 
L 3191 266 
L 2334 -88 
L 2194 -88 
L 2194 519 
Q 1825 119 1631 15 
Q 1438 -88 1222 -88 
Q 981 -88 804 51 
Q 628 191 559 409 
Q 491 628 491 1028 
L 491 2306 
Q 491 2509 447 2587 
Q 403 2666 317 2708 
Q 231 2750 6 2747 
L 6 2863 
L 1009 2863 
L 1009 947 
Q 1009 547 1148 422 
Q 1288 297 1484 297 
Q 1619 297 1789 381 
Q 1959 466 2194 703 
L 2194 2325 
Q 2194 2569 2105 2655 
Q 2016 2741 1734 2747 
L 1734 2863 
L 2709 2863 
z
" id="TimesNewRomanPSMT-75" transform="scale(0.015625)"/>
      <path d="M 3256 -1381 
L -53 -1381 
L -53 -1119 
L 3256 -1119 
L 3256 -1381 
z
" id="TimesNewRomanPSMT-5f" transform="scale(0.015625)"/>
     </defs>
     <use xlink:href="#TimesNewRomanPSMT-41"/>
     <use x="72.216797" xlink:href="#TimesNewRomanPSMT-75"/>
     <use x="122.216797" xlink:href="#TimesNewRomanPSMT-74"/>
     <use x="150" xlink:href="#TimesNewRomanPSMT-6f"/>
     <use x="200" xlink:href="#TimesNewRomanPSMT-5f"/>
     <use x="250" xlink:href="#TimesNewRomanPSMT-30"/>
     <use x="300" xlink:href="#TimesNewRomanPSMT-30"/>
     <use x="350" xlink:href="#TimesNewRomanPSMT-30"/>
     <use x="400" xlink:href="#TimesNewRomanPSMT-35"/>
     <use x="450" xlink:href="#TimesNewRomanPSMT-32"/>
    </g>
    <!-- Vs: 269.04m/s -->
    <g transform="translate(80.076875 328.033588)scale(0.14 -0.14)">
     <defs>
      <path d="M 903 2950 
Q 1047 2950 1148 2848 
Q 1250 2747 1250 2603 
Q 1250 2459 1148 2357 
Q 1047 2256 903 2256 
Q 759 2256 657 2357 
Q 556 2459 556 2603 
Q 556 2747 657 2848 
Q 759 2950 903 2950 
z
M 897 609 
Q 1044 609 1145 506 
Q 1247 403 1247 259 
Q 1247 116 1144 14 
Q 1041 -88 897 -88 
Q 753 -88 651 14 
Q 550 116 550 259 
Q 550 403 651 506 
Q 753 609 897 609 
z
" id="TimesNewRomanPSMT-3a" transform="scale(0.015625)"/>
      <path d="M 338 -88 
L 338 28 
Q 744 34 1094 217 
Q 1444 400 1770 856 
Q 2097 1313 2225 1859 
Q 1734 1544 1338 1544 
Q 891 1544 572 1889 
Q 253 2234 253 2806 
Q 253 3363 572 3797 
Q 956 4325 1575 4325 
Q 2097 4325 2469 3894 
Q 2925 3359 2925 2575 
Q 2925 1869 2578 1258 
Q 2231 647 1613 244 
Q 1109 -88 516 -88 
L 338 -88 
z
M 2275 2091 
Q 2331 2497 2331 2741 
Q 2331 3044 2228 3395 
Q 2125 3747 1936 3934 
Q 1747 4122 1506 4122 
Q 1228 4122 1018 3872 
Q 809 3622 809 3128 
Q 809 2469 1088 2097 
Q 1291 1828 1588 1828 
Q 1731 1828 1928 1897 
Q 2125 1966 2275 2091 
z
" id="TimesNewRomanPSMT-39" transform="scale(0.015625)"/>
      <path d="M 1794 4444 
L 259 -88 
L 9 -88 
L 1544 4444 
L 1794 4444 
z
" id="TimesNewRomanPSMT-2f" transform="scale(0.015625)"/>
     </defs>
     <use xlink:href="#TimesNewRomanPSMT-56"/>
     <use x="72.216797" xlink:href="#TimesNewRomanPSMT-73"/>
     <use x="111.132812" xlink:href="#TimesNewRomanPSMT-3a"/>
     <use x="138.916016" xlink:href="#TimesNewRomanPSMT-20"/>
     <use x="163.916016" xlink:href="#TimesNewRomanPSMT-32"/>
     <use x="213.916016" xlink:href="#TimesNewRomanPSMT-36"/>
     <use x="263.916016" xlink:href="#TimesNewRomanPSMT-39"/>
     <use x="313.916016" xlink:href="#TimesNewRomanPSMT-2e"/>
     <use x="338.916016" xlink:href="#TimesNewRomanPSMT-30"/>
     <use x="388.916016" xlink:href="#TimesNewRomanPSMT-34"/>
     <use x="438.916016" xlink:href="#TimesNewRomanPSMT-6d"/>
     <use x="516.699219" xlink:href="#TimesNewRomanPSMT-2f"/>
     <use x="544.482422" xlink:href="#TimesNewRomanPSMT-73"/>
    </g>
   </g>
  </g>
 </g>
 <defs>
  <clipPath id="p3a67faac36">
   <rect height="332.64" width="334.8" x="63.336875" y="12.025588"/>
  </clipPath>
 </defs>
</svg>
