<?xml version="1.0" encoding="utf-8" standalone="no"?>
<!DOCTYPE svg PUBLIC "-//W3C//DTD SVG 1.1//EN"
  "http://www.w3.org/Graphics/SVG/1.1/DTD/svg11.dtd">
<svg height="383.471875pt" version="1.1" viewBox="0 0 421.086875 383.471875" width="421.086875pt" xmlns="http://www.w3.org/2000/svg" xmlns:xlink="http://www.w3.org/1999/xlink">
 <metadata>
  <rdf:RDF xmlns:cc="http://creativecommons.org/ns#" xmlns:dc="http://purl.org/dc/elements/1.1/" xmlns:rdf="http://www.w3.org/1999/02/22-rdf-syntax-ns#">
   <cc:Work>
    <dc:type rdf:resource="http://purl.org/dc/dcmitype/StillImage"/>
    <dc:date>2021-06-11T14:39:38.780072</dc:date>
    <dc:format>image/svg+xml</dc:format>
    <dc:creator>
     <cc:Agent>
      <dc:title>Matplotlib v3.4.2, https://matplotlib.org/</dc:title>
     </cc:Agent>
    </dc:creator>
   </cc:Work>
  </rdf:RDF>
 </metadata>
 <defs>
  <style type="text/css">*{stroke-linecap:butt;stroke-linejoin:round;}</style>
 </defs>
 <g id="figure_1">
  <g id="patch_1">
   <path d="M 0 383.471875 
L 421.086875 383.471875 
L 421.086875 0 
L 0 0 
z
" style="fill:#ffffff;"/>
  </g>
  <g id="axes_1">
   <g id="patch_2">
    <path d="M 63.336875 339.84 
L 398.136875 339.84 
L 398.136875 7.2 
L 63.336875 7.2 
z
" style="fill:#ffffff;"/>
   </g>
   <g id="matplotlib.axis_1">
    <g id="xtick_1">
     <g id="line2d_1">
      <path clip-path="url(#pffc7ff2045)" d="M 93.773239 339.84 
L 93.773239 7.2 
" style="fill:none;stroke:#000000;stroke-dasharray:0.5,0.825;stroke-dashoffset:0;stroke-width:0.5;"/>
     </g>
     <g id="line2d_2">
      <defs>
       <path d="M 0 0 
L 0 3.5 
" id="m9528045d62" style="stroke:#000000;stroke-width:0.8;"/>
      </defs>
      <g>
       <use style="stroke:#000000;stroke-width:0.8;" x="93.773239" xlink:href="#m9528045d62" y="339.84"/>
      </g>
     </g>
     <g id="text_1">
      <!-- 0.000 -->
      <g transform="translate(78.023239 356.56125)scale(0.14 -0.14)">
       <defs>
        <path d="M 231 2094 
Q 231 2819 450 3342 
Q 669 3866 1031 4122 
Q 1313 4325 1613 4325 
Q 2100 4325 2488 3828 
Q 2972 3213 2972 2159 
Q 2972 1422 2759 906 
Q 2547 391 2217 158 
Q 1888 -75 1581 -75 
Q 975 -75 572 641 
Q 231 1244 231 2094 
z
M 844 2016 
Q 844 1141 1059 588 
Q 1238 122 1591 122 
Q 1759 122 1940 273 
Q 2122 425 2216 781 
Q 2359 1319 2359 2297 
Q 2359 3022 2209 3506 
Q 2097 3866 1919 4016 
Q 1791 4119 1609 4119 
Q 1397 4119 1231 3928 
Q 1006 3669 925 3112 
Q 844 2556 844 2016 
z
" id="TimesNewRomanPSMT-30" transform="scale(0.015625)"/>
        <path d="M 800 606 
Q 947 606 1047 504 
Q 1147 403 1147 259 
Q 1147 116 1045 14 
Q 944 -88 800 -88 
Q 656 -88 554 14 
Q 453 116 453 259 
Q 453 406 554 506 
Q 656 606 800 606 
z
" id="TimesNewRomanPSMT-2e" transform="scale(0.015625)"/>
       </defs>
       <use xlink:href="#TimesNewRomanPSMT-30"/>
       <use x="50" xlink:href="#TimesNewRomanPSMT-2e"/>
       <use x="75" xlink:href="#TimesNewRomanPSMT-30"/>
       <use x="125" xlink:href="#TimesNewRomanPSMT-30"/>
       <use x="175" xlink:href="#TimesNewRomanPSMT-30"/>
      </g>
     </g>
    </g>
    <g id="xtick_2">
     <g id="line2d_3">
      <path clip-path="url(#pffc7ff2045)" d="M 154.645966 339.84 
L 154.645966 7.2 
" style="fill:none;stroke:#000000;stroke-dasharray:0.5,0.825;stroke-dashoffset:0;stroke-width:0.5;"/>
     </g>
     <g id="line2d_4">
      <g>
       <use style="stroke:#000000;stroke-width:0.8;" x="154.645966" xlink:href="#m9528045d62" y="339.84"/>
      </g>
     </g>
     <g id="text_2">
      <!-- 0.001 -->
      <g transform="translate(138.895966 356.56125)scale(0.14 -0.14)">
       <defs>
        <path d="M 750 3822 
L 1781 4325 
L 1884 4325 
L 1884 747 
Q 1884 391 1914 303 
Q 1944 216 2037 169 
Q 2131 122 2419 116 
L 2419 0 
L 825 0 
L 825 116 
Q 1125 122 1212 167 
Q 1300 213 1334 289 
Q 1369 366 1369 747 
L 1369 3034 
Q 1369 3497 1338 3628 
Q 1316 3728 1258 3775 
Q 1200 3822 1119 3822 
Q 1003 3822 797 3725 
L 750 3822 
z
" id="TimesNewRomanPSMT-31" transform="scale(0.015625)"/>
       </defs>
       <use xlink:href="#TimesNewRomanPSMT-30"/>
       <use x="50" xlink:href="#TimesNewRomanPSMT-2e"/>
       <use x="75" xlink:href="#TimesNewRomanPSMT-30"/>
       <use x="125" xlink:href="#TimesNewRomanPSMT-30"/>
       <use x="175" xlink:href="#TimesNewRomanPSMT-31"/>
      </g>
     </g>
    </g>
    <g id="xtick_3">
     <g id="line2d_5">
      <path clip-path="url(#pffc7ff2045)" d="M 215.518693 339.84 
L 215.518693 7.2 
" style="fill:none;stroke:#000000;stroke-dasharray:0.5,0.825;stroke-dashoffset:0;stroke-width:0.5;"/>
     </g>
     <g id="line2d_6">
      <g>
       <use style="stroke:#000000;stroke-width:0.8;" x="215.518693" xlink:href="#m9528045d62" y="339.84"/>
      </g>
     </g>
     <g id="text_3">
      <!-- 0.002 -->
      <g transform="translate(199.768693 356.56125)scale(0.14 -0.14)">
       <defs>
        <path d="M 2934 816 
L 2638 0 
L 138 0 
L 138 116 
Q 1241 1122 1691 1759 
Q 2141 2397 2141 2925 
Q 2141 3328 1894 3587 
Q 1647 3847 1303 3847 
Q 991 3847 742 3664 
Q 494 3481 375 3128 
L 259 3128 
Q 338 3706 661 4015 
Q 984 4325 1469 4325 
Q 1984 4325 2329 3994 
Q 2675 3663 2675 3213 
Q 2675 2891 2525 2569 
Q 2294 2063 1775 1497 
Q 997 647 803 472 
L 1909 472 
Q 2247 472 2383 497 
Q 2519 522 2628 598 
Q 2738 675 2819 816 
L 2934 816 
z
" id="TimesNewRomanPSMT-32" transform="scale(0.015625)"/>
       </defs>
       <use xlink:href="#TimesNewRomanPSMT-30"/>
       <use x="50" xlink:href="#TimesNewRomanPSMT-2e"/>
       <use x="75" xlink:href="#TimesNewRomanPSMT-30"/>
       <use x="125" xlink:href="#TimesNewRomanPSMT-30"/>
       <use x="175" xlink:href="#TimesNewRomanPSMT-32"/>
      </g>
     </g>
    </g>
    <g id="xtick_4">
     <g id="line2d_7">
      <path clip-path="url(#pffc7ff2045)" d="M 276.39142 339.84 
L 276.39142 7.2 
" style="fill:none;stroke:#000000;stroke-dasharray:0.5,0.825;stroke-dashoffset:0;stroke-width:0.5;"/>
     </g>
     <g id="line2d_8">
      <g>
       <use style="stroke:#000000;stroke-width:0.8;" x="276.39142" xlink:href="#m9528045d62" y="339.84"/>
      </g>
     </g>
     <g id="text_4">
      <!-- 0.003 -->
      <g transform="translate(260.64142 356.56125)scale(0.14 -0.14)">
       <defs>
        <path d="M 325 3431 
Q 506 3859 782 4092 
Q 1059 4325 1472 4325 
Q 1981 4325 2253 3994 
Q 2459 3747 2459 3466 
Q 2459 3003 1878 2509 
Q 2269 2356 2469 2072 
Q 2669 1788 2669 1403 
Q 2669 853 2319 450 
Q 1863 -75 997 -75 
Q 569 -75 414 31 
Q 259 138 259 259 
Q 259 350 332 419 
Q 406 488 509 488 
Q 588 488 669 463 
Q 722 447 909 348 
Q 1097 250 1169 231 
Q 1284 197 1416 197 
Q 1734 197 1970 444 
Q 2206 691 2206 1028 
Q 2206 1275 2097 1509 
Q 2016 1684 1919 1775 
Q 1784 1900 1550 2001 
Q 1316 2103 1072 2103 
L 972 2103 
L 972 2197 
Q 1219 2228 1467 2375 
Q 1716 2522 1828 2728 
Q 1941 2934 1941 3181 
Q 1941 3503 1739 3701 
Q 1538 3900 1238 3900 
Q 753 3900 428 3381 
L 325 3431 
z
" id="TimesNewRomanPSMT-33" transform="scale(0.015625)"/>
       </defs>
       <use xlink:href="#TimesNewRomanPSMT-30"/>
       <use x="50" xlink:href="#TimesNewRomanPSMT-2e"/>
       <use x="75" xlink:href="#TimesNewRomanPSMT-30"/>
       <use x="125" xlink:href="#TimesNewRomanPSMT-30"/>
       <use x="175" xlink:href="#TimesNewRomanPSMT-33"/>
      </g>
     </g>
    </g>
    <g id="xtick_5">
     <g id="line2d_9">
      <path clip-path="url(#pffc7ff2045)" d="M 337.264148 339.84 
L 337.264148 7.2 
" style="fill:none;stroke:#000000;stroke-dasharray:0.5,0.825;stroke-dashoffset:0;stroke-width:0.5;"/>
     </g>
     <g id="line2d_10">
      <g>
       <use style="stroke:#000000;stroke-width:0.8;" x="337.264148" xlink:href="#m9528045d62" y="339.84"/>
      </g>
     </g>
     <g id="text_5">
      <!-- 0.004 -->
      <g transform="translate(321.514148 356.56125)scale(0.14 -0.14)">
       <defs>
        <path d="M 2978 1563 
L 2978 1119 
L 2409 1119 
L 2409 0 
L 1894 0 
L 1894 1119 
L 100 1119 
L 100 1519 
L 2066 4325 
L 2409 4325 
L 2409 1563 
L 2978 1563 
z
M 1894 1563 
L 1894 3666 
L 406 1563 
L 1894 1563 
z
" id="TimesNewRomanPSMT-34" transform="scale(0.015625)"/>
       </defs>
       <use xlink:href="#TimesNewRomanPSMT-30"/>
       <use x="50" xlink:href="#TimesNewRomanPSMT-2e"/>
       <use x="75" xlink:href="#TimesNewRomanPSMT-30"/>
       <use x="125" xlink:href="#TimesNewRomanPSMT-30"/>
       <use x="175" xlink:href="#TimesNewRomanPSMT-34"/>
      </g>
     </g>
    </g>
    <g id="xtick_6">
     <g id="line2d_11">
      <path clip-path="url(#pffc7ff2045)" d="M 398.136875 339.84 
L 398.136875 7.2 
" style="fill:none;stroke:#000000;stroke-dasharray:0.5,0.825;stroke-dashoffset:0;stroke-width:0.5;"/>
     </g>
     <g id="line2d_12">
      <g>
       <use style="stroke:#000000;stroke-width:0.8;" x="398.136875" xlink:href="#m9528045d62" y="339.84"/>
      </g>
     </g>
     <g id="text_6">
      <!-- 0.005 -->
      <g transform="translate(382.386875 356.56125)scale(0.14 -0.14)">
       <defs>
        <path d="M 2778 4238 
L 2534 3706 
L 1259 3706 
L 981 3138 
Q 1809 3016 2294 2522 
Q 2709 2097 2709 1522 
Q 2709 1188 2573 903 
Q 2438 619 2231 419 
Q 2025 219 1772 97 
Q 1413 -75 1034 -75 
Q 653 -75 479 54 
Q 306 184 306 341 
Q 306 428 378 495 
Q 450 563 559 563 
Q 641 563 702 538 
Q 763 513 909 409 
Q 1144 247 1384 247 
Q 1750 247 2026 523 
Q 2303 800 2303 1197 
Q 2303 1581 2056 1914 
Q 1809 2247 1375 2428 
Q 1034 2569 447 2591 
L 1259 4238 
L 2778 4238 
z
" id="TimesNewRomanPSMT-35" transform="scale(0.015625)"/>
       </defs>
       <use xlink:href="#TimesNewRomanPSMT-30"/>
       <use x="50" xlink:href="#TimesNewRomanPSMT-2e"/>
       <use x="75" xlink:href="#TimesNewRomanPSMT-30"/>
       <use x="125" xlink:href="#TimesNewRomanPSMT-30"/>
       <use x="175" xlink:href="#TimesNewRomanPSMT-35"/>
      </g>
     </g>
    </g>
    <g id="text_7">
     <!-- Time (sec) -->
     <g transform="translate(200.858906 373.277188)scale(0.14 -0.14)">
      <defs>
       <path d="M 3703 4238 
L 3750 3244 
L 3631 3244 
Q 3597 3506 3538 3619 
Q 3441 3800 3280 3886 
Q 3119 3972 2856 3972 
L 2259 3972 
L 2259 734 
Q 2259 344 2344 247 
Q 2463 116 2709 116 
L 2856 116 
L 2856 0 
L 1059 0 
L 1059 116 
L 1209 116 
Q 1478 116 1591 278 
Q 1659 378 1659 734 
L 1659 3972 
L 1150 3972 
Q 853 3972 728 3928 
Q 566 3869 450 3700 
Q 334 3531 313 3244 
L 194 3244 
L 244 4238 
L 3703 4238 
z
" id="TimesNewRomanPSMT-54" transform="scale(0.015625)"/>
       <path d="M 928 4444 
Q 1059 4444 1151 4351 
Q 1244 4259 1244 4128 
Q 1244 3997 1151 3903 
Q 1059 3809 928 3809 
Q 797 3809 703 3903 
Q 609 3997 609 4128 
Q 609 4259 701 4351 
Q 794 4444 928 4444 
z
M 1188 2947 
L 1188 647 
Q 1188 378 1227 289 
Q 1266 200 1342 156 
Q 1419 113 1622 113 
L 1622 0 
L 231 0 
L 231 113 
Q 441 113 512 153 
Q 584 194 626 287 
Q 669 381 669 647 
L 669 1750 
Q 669 2216 641 2353 
Q 619 2453 572 2492 
Q 525 2531 444 2531 
Q 356 2531 231 2484 
L 188 2597 
L 1050 2947 
L 1188 2947 
z
" id="TimesNewRomanPSMT-69" transform="scale(0.015625)"/>
       <path d="M 1050 2338 
Q 1363 2650 1419 2697 
Q 1559 2816 1721 2881 
Q 1884 2947 2044 2947 
Q 2313 2947 2506 2790 
Q 2700 2634 2766 2338 
Q 3088 2713 3309 2830 
Q 3531 2947 3766 2947 
Q 3994 2947 4170 2830 
Q 4347 2713 4450 2447 
Q 4519 2266 4519 1878 
L 4519 647 
Q 4519 378 4559 278 
Q 4591 209 4675 161 
Q 4759 113 4950 113 
L 4950 0 
L 3538 0 
L 3538 113 
L 3597 113 
Q 3781 113 3884 184 
Q 3956 234 3988 344 
Q 4000 397 4000 647 
L 4000 1878 
Q 4000 2228 3916 2372 
Q 3794 2572 3525 2572 
Q 3359 2572 3192 2489 
Q 3025 2406 2788 2181 
L 2781 2147 
L 2788 2013 
L 2788 647 
Q 2788 353 2820 281 
Q 2853 209 2943 161 
Q 3034 113 3253 113 
L 3253 0 
L 1806 0 
L 1806 113 
Q 2044 113 2133 169 
Q 2222 225 2256 338 
Q 2272 391 2272 647 
L 2272 1878 
Q 2272 2228 2169 2381 
Q 2031 2581 1784 2581 
Q 1616 2581 1450 2491 
Q 1191 2353 1050 2181 
L 1050 647 
Q 1050 366 1089 281 
Q 1128 197 1204 155 
Q 1281 113 1516 113 
L 1516 0 
L 100 0 
L 100 113 
Q 297 113 375 155 
Q 453 197 493 289 
Q 534 381 534 647 
L 534 1741 
Q 534 2213 506 2350 
Q 484 2453 437 2492 
Q 391 2531 309 2531 
Q 222 2531 100 2484 
L 53 2597 
L 916 2947 
L 1050 2947 
L 1050 2338 
z
" id="TimesNewRomanPSMT-6d" transform="scale(0.015625)"/>
       <path d="M 681 1784 
Q 678 1147 991 784 
Q 1303 422 1725 422 
Q 2006 422 2214 576 
Q 2422 731 2563 1106 
L 2659 1044 
Q 2594 616 2278 264 
Q 1963 -88 1488 -88 
Q 972 -88 605 314 
Q 238 716 238 1394 
Q 238 2128 614 2539 
Q 991 2950 1559 2950 
Q 2041 2950 2350 2633 
Q 2659 2316 2659 1784 
L 681 1784 
z
M 681 1966 
L 2006 1966 
Q 1991 2241 1941 2353 
Q 1863 2528 1708 2628 
Q 1553 2728 1384 2728 
Q 1125 2728 920 2526 
Q 716 2325 681 1966 
z
" id="TimesNewRomanPSMT-65" transform="scale(0.015625)"/>
       <path id="TimesNewRomanPSMT-20" transform="scale(0.015625)"/>
       <path d="M 1988 -1253 
L 1988 -1369 
Q 1516 -1131 1200 -813 
Q 750 -359 506 256 
Q 263 872 263 1534 
Q 263 2503 741 3301 
Q 1219 4100 1988 4444 
L 1988 4313 
Q 1603 4100 1356 3731 
Q 1109 3363 987 2797 
Q 866 2231 866 1616 
Q 866 947 969 400 
Q 1050 -31 1165 -292 
Q 1281 -553 1476 -793 
Q 1672 -1034 1988 -1253 
z
" id="TimesNewRomanPSMT-28" transform="scale(0.015625)"/>
       <path d="M 2050 2947 
L 2050 1972 
L 1947 1972 
Q 1828 2431 1642 2597 
Q 1456 2763 1169 2763 
Q 950 2763 815 2647 
Q 681 2531 681 2391 
Q 681 2216 781 2091 
Q 878 1963 1175 1819 
L 1631 1597 
Q 2266 1288 2266 781 
Q 2266 391 1970 151 
Q 1675 -88 1309 -88 
Q 1047 -88 709 6 
Q 606 38 541 38 
Q 469 38 428 -44 
L 325 -44 
L 325 978 
L 428 978 
Q 516 541 762 319 
Q 1009 97 1316 97 
Q 1531 97 1667 223 
Q 1803 350 1803 528 
Q 1803 744 1651 891 
Q 1500 1038 1047 1263 
Q 594 1488 453 1669 
Q 313 1847 313 2119 
Q 313 2472 555 2709 
Q 797 2947 1181 2947 
Q 1350 2947 1591 2875 
Q 1750 2828 1803 2828 
Q 1853 2828 1881 2850 
Q 1909 2872 1947 2947 
L 2050 2947 
z
" id="TimesNewRomanPSMT-73" transform="scale(0.015625)"/>
       <path d="M 2631 1088 
Q 2516 522 2178 217 
Q 1841 -88 1431 -88 
Q 944 -88 581 321 
Q 219 731 219 1428 
Q 219 2103 620 2525 
Q 1022 2947 1584 2947 
Q 2006 2947 2278 2723 
Q 2550 2500 2550 2259 
Q 2550 2141 2473 2067 
Q 2397 1994 2259 1994 
Q 2075 1994 1981 2113 
Q 1928 2178 1911 2362 
Q 1894 2547 1784 2644 
Q 1675 2738 1481 2738 
Q 1169 2738 978 2506 
Q 725 2200 725 1697 
Q 725 1184 976 792 
Q 1228 400 1656 400 
Q 1963 400 2206 609 
Q 2378 753 2541 1131 
L 2631 1088 
z
" id="TimesNewRomanPSMT-63" transform="scale(0.015625)"/>
       <path d="M 144 4313 
L 144 4444 
Q 619 4209 934 3891 
Q 1381 3434 1625 2820 
Q 1869 2206 1869 1541 
Q 1869 572 1392 -226 
Q 916 -1025 144 -1369 
L 144 -1253 
Q 528 -1038 776 -670 
Q 1025 -303 1145 264 
Q 1266 831 1266 1447 
Q 1266 2113 1163 2663 
Q 1084 3094 967 3353 
Q 850 3613 656 3853 
Q 463 4094 144 4313 
z
" id="TimesNewRomanPSMT-29" transform="scale(0.015625)"/>
      </defs>
      <use xlink:href="#TimesNewRomanPSMT-54"/>
      <use x="57.583984" xlink:href="#TimesNewRomanPSMT-69"/>
      <use x="85.367188" xlink:href="#TimesNewRomanPSMT-6d"/>
      <use x="163.150391" xlink:href="#TimesNewRomanPSMT-65"/>
      <use x="207.535156" xlink:href="#TimesNewRomanPSMT-20"/>
      <use x="232.535156" xlink:href="#TimesNewRomanPSMT-28"/>
      <use x="265.835938" xlink:href="#TimesNewRomanPSMT-73"/>
      <use x="304.751953" xlink:href="#TimesNewRomanPSMT-65"/>
      <use x="349.136719" xlink:href="#TimesNewRomanPSMT-63"/>
      <use x="393.521484" xlink:href="#TimesNewRomanPSMT-29"/>
     </g>
    </g>
   </g>
   <g id="matplotlib.axis_2">
    <g id="ytick_1">
     <g id="line2d_13">
      <path clip-path="url(#pffc7ff2045)" d="M 63.336875 331.306478 
L 398.136875 331.306478 
" style="fill:none;stroke:#000000;stroke-dasharray:0.5,0.825;stroke-dashoffset:0;stroke-width:0.5;"/>
     </g>
     <g id="line2d_14">
      <defs>
       <path d="M 0 0 
L -3.5 0 
" id="mcee62367dd" style="stroke:#000000;stroke-width:0.8;"/>
      </defs>
      <g>
       <use style="stroke:#000000;stroke-width:0.8;" x="63.336875" xlink:href="#mcee62367dd" y="331.306478"/>
      </g>
     </g>
     <g id="text_8">
      <!-- −0.06 -->
      <g transform="translate(23.942188 336.167103)scale(0.14 -0.14)">
       <defs>
        <path d="M 3484 2000 
L 116 2000 
L 116 2256 
L 3484 2256 
L 3484 2000 
z
" id="TimesNewRomanPSMT-2212" transform="scale(0.015625)"/>
        <path d="M 2869 4325 
L 2869 4209 
Q 2456 4169 2195 4045 
Q 1934 3922 1679 3669 
Q 1425 3416 1258 3105 
Q 1091 2794 978 2366 
Q 1428 2675 1881 2675 
Q 2316 2675 2634 2325 
Q 2953 1975 2953 1425 
Q 2953 894 2631 456 
Q 2244 -75 1606 -75 
Q 1172 -75 869 213 
Q 275 772 275 1663 
Q 275 2231 503 2743 
Q 731 3256 1154 3653 
Q 1578 4050 1965 4187 
Q 2353 4325 2688 4325 
L 2869 4325 
z
M 925 2138 
Q 869 1716 869 1456 
Q 869 1156 980 804 
Q 1091 453 1309 247 
Q 1469 100 1697 100 
Q 1969 100 2183 356 
Q 2397 613 2397 1088 
Q 2397 1622 2184 2012 
Q 1972 2403 1581 2403 
Q 1463 2403 1327 2353 
Q 1191 2303 925 2138 
z
" id="TimesNewRomanPSMT-36" transform="scale(0.015625)"/>
       </defs>
       <use xlink:href="#TimesNewRomanPSMT-2212"/>
       <use x="56.396484" xlink:href="#TimesNewRomanPSMT-30"/>
       <use x="106.396484" xlink:href="#TimesNewRomanPSMT-2e"/>
       <use x="131.396484" xlink:href="#TimesNewRomanPSMT-30"/>
       <use x="181.396484" xlink:href="#TimesNewRomanPSMT-36"/>
      </g>
     </g>
    </g>
    <g id="ytick_2">
     <g id="line2d_15">
      <path clip-path="url(#pffc7ff2045)" d="M 63.336875 271.994189 
L 398.136875 271.994189 
" style="fill:none;stroke:#000000;stroke-dasharray:0.5,0.825;stroke-dashoffset:0;stroke-width:0.5;"/>
     </g>
     <g id="line2d_16">
      <g>
       <use style="stroke:#000000;stroke-width:0.8;" x="63.336875" xlink:href="#mcee62367dd" y="271.994189"/>
      </g>
     </g>
     <g id="text_9">
      <!-- −0.04 -->
      <g transform="translate(23.942188 276.854814)scale(0.14 -0.14)">
       <use xlink:href="#TimesNewRomanPSMT-2212"/>
       <use x="56.396484" xlink:href="#TimesNewRomanPSMT-30"/>
       <use x="106.396484" xlink:href="#TimesNewRomanPSMT-2e"/>
       <use x="131.396484" xlink:href="#TimesNewRomanPSMT-30"/>
       <use x="181.396484" xlink:href="#TimesNewRomanPSMT-34"/>
      </g>
     </g>
    </g>
    <g id="ytick_3">
     <g id="line2d_17">
      <path clip-path="url(#pffc7ff2045)" d="M 63.336875 212.6819 
L 398.136875 212.6819 
" style="fill:none;stroke:#000000;stroke-dasharray:0.5,0.825;stroke-dashoffset:0;stroke-width:0.5;"/>
     </g>
     <g id="line2d_18">
      <g>
       <use style="stroke:#000000;stroke-width:0.8;" x="63.336875" xlink:href="#mcee62367dd" y="212.6819"/>
      </g>
     </g>
     <g id="text_10">
      <!-- −0.02 -->
      <g transform="translate(23.942188 217.542525)scale(0.14 -0.14)">
       <use xlink:href="#TimesNewRomanPSMT-2212"/>
       <use x="56.396484" xlink:href="#TimesNewRomanPSMT-30"/>
       <use x="106.396484" xlink:href="#TimesNewRomanPSMT-2e"/>
       <use x="131.396484" xlink:href="#TimesNewRomanPSMT-30"/>
       <use x="181.396484" xlink:href="#TimesNewRomanPSMT-32"/>
      </g>
     </g>
    </g>
    <g id="ytick_4">
     <g id="line2d_19">
      <path clip-path="url(#pffc7ff2045)" d="M 63.336875 153.369611 
L 398.136875 153.369611 
" style="fill:none;stroke:#000000;stroke-dasharray:0.5,0.825;stroke-dashoffset:0;stroke-width:0.5;"/>
     </g>
     <g id="line2d_20">
      <g>
       <use style="stroke:#000000;stroke-width:0.8;" x="63.336875" xlink:href="#mcee62367dd" y="153.369611"/>
      </g>
     </g>
     <g id="text_11">
      <!-- 0.00 -->
      <g transform="translate(31.836875 158.230236)scale(0.14 -0.14)">
       <use xlink:href="#TimesNewRomanPSMT-30"/>
       <use x="50" xlink:href="#TimesNewRomanPSMT-2e"/>
       <use x="75" xlink:href="#TimesNewRomanPSMT-30"/>
       <use x="125" xlink:href="#TimesNewRomanPSMT-30"/>
      </g>
     </g>
    </g>
    <g id="ytick_5">
     <g id="line2d_21">
      <path clip-path="url(#pffc7ff2045)" d="M 63.336875 94.057321 
L 398.136875 94.057321 
" style="fill:none;stroke:#000000;stroke-dasharray:0.5,0.825;stroke-dashoffset:0;stroke-width:0.5;"/>
     </g>
     <g id="line2d_22">
      <g>
       <use style="stroke:#000000;stroke-width:0.8;" x="63.336875" xlink:href="#mcee62367dd" y="94.057321"/>
      </g>
     </g>
     <g id="text_12">
      <!-- 0.02 -->
      <g transform="translate(31.836875 98.917946)scale(0.14 -0.14)">
       <use xlink:href="#TimesNewRomanPSMT-30"/>
       <use x="50" xlink:href="#TimesNewRomanPSMT-2e"/>
       <use x="75" xlink:href="#TimesNewRomanPSMT-30"/>
       <use x="125" xlink:href="#TimesNewRomanPSMT-32"/>
      </g>
     </g>
    </g>
    <g id="ytick_6">
     <g id="line2d_23">
      <path clip-path="url(#pffc7ff2045)" d="M 63.336875 34.745032 
L 398.136875 34.745032 
" style="fill:none;stroke:#000000;stroke-dasharray:0.5,0.825;stroke-dashoffset:0;stroke-width:0.5;"/>
     </g>
     <g id="line2d_24">
      <g>
       <use style="stroke:#000000;stroke-width:0.8;" x="63.336875" xlink:href="#mcee62367dd" y="34.745032"/>
      </g>
     </g>
     <g id="text_13">
      <!-- 0.04 -->
      <g transform="translate(31.836875 39.605657)scale(0.14 -0.14)">
       <use xlink:href="#TimesNewRomanPSMT-30"/>
       <use x="50" xlink:href="#TimesNewRomanPSMT-2e"/>
       <use x="75" xlink:href="#TimesNewRomanPSMT-30"/>
       <use x="125" xlink:href="#TimesNewRomanPSMT-34"/>
      </g>
     </g>
    </g>
    <g id="text_14">
     <!-- Volatage (V) -->
     <g transform="translate(16.92125 209.352344)rotate(-90)scale(0.14 -0.14)">
      <defs>
       <path d="M 4544 4238 
L 4544 4122 
Q 4319 4081 4203 3978 
Q 4038 3825 3909 3509 
L 2431 -97 
L 2316 -97 
L 728 3556 
Q 606 3838 556 3900 
Q 478 3997 364 4051 
Q 250 4106 56 4122 
L 56 4238 
L 1788 4238 
L 1788 4122 
Q 1494 4094 1406 4022 
Q 1319 3950 1319 3838 
Q 1319 3681 1463 3350 
L 2541 866 
L 3541 3319 
Q 3688 3681 3688 3822 
Q 3688 3913 3597 3995 
Q 3506 4078 3291 4113 
Q 3275 4116 3238 4122 
L 3238 4238 
L 4544 4238 
z
" id="TimesNewRomanPSMT-56" transform="scale(0.015625)"/>
       <path d="M 1600 2947 
Q 2250 2947 2644 2453 
Q 2978 2031 2978 1484 
Q 2978 1100 2793 706 
Q 2609 313 2286 112 
Q 1963 -88 1566 -88 
Q 919 -88 538 428 
Q 216 863 216 1403 
Q 216 1797 411 2186 
Q 606 2575 925 2761 
Q 1244 2947 1600 2947 
z
M 1503 2744 
Q 1338 2744 1170 2645 
Q 1003 2547 900 2300 
Q 797 2053 797 1666 
Q 797 1041 1045 587 
Q 1294 134 1700 134 
Q 2003 134 2200 384 
Q 2397 634 2397 1244 
Q 2397 2006 2069 2444 
Q 1847 2744 1503 2744 
z
" id="TimesNewRomanPSMT-6f" transform="scale(0.015625)"/>
       <path d="M 1184 4444 
L 1184 647 
Q 1184 378 1223 290 
Q 1263 203 1344 158 
Q 1425 113 1647 113 
L 1647 0 
L 244 0 
L 244 113 
Q 441 113 512 153 
Q 584 194 625 287 
Q 666 381 666 647 
L 666 3247 
Q 666 3731 644 3842 
Q 622 3953 573 3993 
Q 525 4034 450 4034 
Q 369 4034 244 3984 
L 191 4094 
L 1044 4444 
L 1184 4444 
z
" id="TimesNewRomanPSMT-6c" transform="scale(0.015625)"/>
       <path d="M 1822 413 
Q 1381 72 1269 19 
Q 1100 -59 909 -59 
Q 613 -59 420 144 
Q 228 347 228 678 
Q 228 888 322 1041 
Q 450 1253 767 1440 
Q 1084 1628 1822 1897 
L 1822 2009 
Q 1822 2438 1686 2597 
Q 1550 2756 1291 2756 
Q 1094 2756 978 2650 
Q 859 2544 859 2406 
L 866 2225 
Q 866 2081 792 2003 
Q 719 1925 600 1925 
Q 484 1925 411 2006 
Q 338 2088 338 2228 
Q 338 2497 613 2722 
Q 888 2947 1384 2947 
Q 1766 2947 2009 2819 
Q 2194 2722 2281 2516 
Q 2338 2381 2338 1966 
L 2338 994 
Q 2338 584 2353 492 
Q 2369 400 2405 369 
Q 2441 338 2488 338 
Q 2538 338 2575 359 
Q 2641 400 2828 588 
L 2828 413 
Q 2478 -56 2159 -56 
Q 2006 -56 1915 50 
Q 1825 156 1822 413 
z
M 1822 616 
L 1822 1706 
Q 1350 1519 1213 1441 
Q 966 1303 859 1153 
Q 753 1003 753 825 
Q 753 600 887 451 
Q 1022 303 1197 303 
Q 1434 303 1822 616 
z
" id="TimesNewRomanPSMT-61" transform="scale(0.015625)"/>
       <path d="M 1031 3803 
L 1031 2863 
L 1700 2863 
L 1700 2644 
L 1031 2644 
L 1031 788 
Q 1031 509 1111 412 
Q 1191 316 1316 316 
Q 1419 316 1516 380 
Q 1613 444 1666 569 
L 1788 569 
Q 1678 263 1478 108 
Q 1278 -47 1066 -47 
Q 922 -47 784 33 
Q 647 113 581 261 
Q 516 409 516 719 
L 516 2644 
L 63 2644 
L 63 2747 
Q 234 2816 414 2980 
Q 594 3144 734 3369 
Q 806 3488 934 3803 
L 1031 3803 
z
" id="TimesNewRomanPSMT-74" transform="scale(0.015625)"/>
       <path d="M 966 1044 
Q 703 1172 562 1401 
Q 422 1631 422 1909 
Q 422 2334 742 2640 
Q 1063 2947 1563 2947 
Q 1972 2947 2272 2747 
L 2878 2747 
Q 3013 2747 3034 2739 
Q 3056 2731 3066 2713 
Q 3084 2684 3084 2613 
Q 3084 2531 3069 2500 
Q 3059 2484 3036 2475 
Q 3013 2466 2878 2466 
L 2506 2466 
Q 2681 2241 2681 1891 
Q 2681 1491 2375 1206 
Q 2069 922 1553 922 
Q 1341 922 1119 984 
Q 981 866 932 777 
Q 884 688 884 625 
Q 884 572 936 522 
Q 988 472 1138 450 
Q 1225 438 1575 428 
Q 2219 413 2409 384 
Q 2700 344 2873 169 
Q 3047 -6 3047 -263 
Q 3047 -616 2716 -925 
Q 2228 -1381 1444 -1381 
Q 841 -1381 425 -1109 
Q 191 -953 191 -784 
Q 191 -709 225 -634 
Q 278 -519 444 -313 
Q 466 -284 763 25 
Q 600 122 533 198 
Q 466 275 466 372 
Q 466 481 555 628 
Q 644 775 966 1044 
z
M 1509 2797 
Q 1278 2797 1122 2612 
Q 966 2428 966 2047 
Q 966 1553 1178 1281 
Q 1341 1075 1591 1075 
Q 1828 1075 1981 1253 
Q 2134 1431 2134 1813 
Q 2134 2309 1919 2591 
Q 1759 2797 1509 2797 
z
M 934 0 
Q 788 -159 713 -296 
Q 638 -434 638 -550 
Q 638 -700 819 -813 
Q 1131 -1006 1722 -1006 
Q 2284 -1006 2551 -807 
Q 2819 -609 2819 -384 
Q 2819 -222 2659 -153 
Q 2497 -84 2016 -72 
Q 1313 -53 934 0 
z
" id="TimesNewRomanPSMT-67" transform="scale(0.015625)"/>
      </defs>
      <use xlink:href="#TimesNewRomanPSMT-56"/>
      <use x="59.341797" xlink:href="#TimesNewRomanPSMT-6f"/>
      <use x="109.341797" xlink:href="#TimesNewRomanPSMT-6c"/>
      <use x="137.125" xlink:href="#TimesNewRomanPSMT-61"/>
      <use x="181.509766" xlink:href="#TimesNewRomanPSMT-74"/>
      <use x="209.292969" xlink:href="#TimesNewRomanPSMT-61"/>
      <use x="253.677734" xlink:href="#TimesNewRomanPSMT-67"/>
      <use x="303.677734" xlink:href="#TimesNewRomanPSMT-65"/>
      <use x="348.0625" xlink:href="#TimesNewRomanPSMT-20"/>
      <use x="373.0625" xlink:href="#TimesNewRomanPSMT-28"/>
      <use x="406.363281" xlink:href="#TimesNewRomanPSMT-56"/>
      <use x="478.580078" xlink:href="#TimesNewRomanPSMT-29"/>
     </g>
    </g>
   </g>
   <g id="LineCollection_1">
    <path clip-path="url(#pffc7ff2045)" d="M 78.555057 153.369611 
L 382.918693 153.369611 
" style="fill:none;stroke:#1f77b4;stroke-width:1.5;"/>
   </g>
   <g id="line2d_25">
    <path clip-path="url(#pffc7ff2045)" d="M 78.555057 153.418691 
L 82.055239 153.381621 
L 82.176984 153.344551 
L 82.29873 153.381621 
L 85.068439 153.344551 
L 85.098875 153.270411 
L 85.129311 153.381621 
L 85.159748 153.344551 
L 95.538548 153.418691 
L 95.69073 153.455762 
L 95.842911 153.418691 
L 101.808439 153.492832 
L 101.899748 153.492832 
L 102.082366 153.418691 
L 102.234548 153.492832 
L 102.356293 153.455762 
L 112.187239 153.492832 
L 112.217675 153.566972 
L 112.278548 153.492832 
L 112.887275 153.566972 
L 113.00902 153.604042 
L 113.556875 153.641113 
L 113.587311 153.752323 
L 113.67862 153.678183 
L 114.043857 153.715253 
L 114.165602 153.789393 
L 114.561275 153.863534 
L 114.713457 153.900604 
L 114.987384 153.974744 
L 115.170002 154.048885 
L 115.565675 154.123025 
L 115.717857 154.160095 
L 115.991784 154.234235 
L 116.174402 154.308376 
L 116.417893 154.308376 
L 116.44833 154.419586 
L 116.539639 154.382516 
L 116.996184 154.456657 
L 117.11793 154.530797 
L 117.239675 154.530797 
L 117.330984 154.530797 
L 117.45273 154.530797 
L 117.574475 154.604937 
L 118.091893 154.679078 
L 118.244075 154.753218 
L 118.396257 154.716148 
L 118.548439 154.790288 
L 118.670184 154.753218 
L 118.79193 154.790288 
L 118.883239 154.864429 
L 118.913675 154.827358 
L 119.03542 154.827358 
L 119.218039 154.901499 
L 119.583275 154.975639 
L 119.735457 155.012709 
L 120.070257 155.08685 
L 120.252875 155.16099 
L 120.344184 155.08685 
L 120.37462 155.16099 
L 120.587675 155.23513 
L 120.739857 155.346341 
L 120.952911 155.420481 
L 121.196402 155.568762 
L 121.318148 155.605832 
L 121.500766 155.791183 
L 121.531202 155.754113 
L 121.592075 155.828253 
L 121.683384 155.902394 
L 123.14433 157.792973 
L 123.38782 158.274885 
L 123.448693 158.349026 
L 124.300911 160.165464 
L 124.422657 160.462026 
L 125.244439 162.686237 
L 125.548802 163.650061 
L 125.82273 164.502676 
L 126.096657 165.50357 
L 126.309711 166.282044 
L 127.40542 170.693396 
L 128.562002 175.80908 
L 129.018548 177.885011 
L 129.41422 179.62731 
L 129.992511 182.11101 
L 130.357748 183.667959 
L 130.905602 185.81803 
L 132.244802 190.303521 
L 132.792657 191.378557 
L 133.401384 192.04582 
L 133.43182 191.97168 
L 133.492693 192.00875 
L 133.675311 192.08289 
L 134.43622 192.00875 
L 134.588402 191.934609 
L 134.618839 191.97168 
L 134.649275 191.934609 
L 134.740584 191.860469 
L 134.77102 191.897539 
L 135.714548 190.600083 
L 136.231966 189.080205 
L 136.77982 186.893065 
L 136.901566 186.337012 
L 137.266802 184.594713 
L 137.87553 181.147186 
L 138.727748 175.73494 
L 139.153857 172.472764 
L 140.584366 159.34992 
L 141.46702 149.711673 
L 142.410548 138.479409 
L 142.80622 133.660285 
L 143.56713 124.059108 
L 144.114984 116.867493 
L 148.467384 60.0389 
L 149.958766 44.765994 
L 150.293566 42.059862 
L 151.450148 34.386344 
L 152.393675 30.308621 
L 152.880657 28.899954 
L 153.124148 28.455115 
L 153.398075 28.04734 
L 153.580693 27.899056 
L 153.61113 27.936135 
L 153.94593 27.9732 
L 154.098111 28.121483 
L 154.128548 28.121483 
L 154.341602 28.529255 
L 154.52422 28.899954 
L 155.041639 30.419829 
L 156.167784 36.388134 
L 157.141748 44.284079 
L 158.237457 56.035332 
L 159.120111 68.120205 
L 160.276693 86.618223 
L 162.498548 129.174794 
L 164.56822 174.289204 
L 166.850948 224.556371 
L 169.194548 270.819948 
L 170.533748 291.83875 
L 171.903384 308.742752 
L 173.27302 319.567239 
L 174.03393 322.755274 
L 174.825275 324.423433 
L 174.94702 324.497573 
L 175.099202 324.608792 
L 175.251384 324.682921 
L 175.37313 324.682921 
L 175.677493 324.608792 
L 176.012293 324.089801 
L 177.534111 318.232712 
L 177.990657 315.230028 
L 178.142839 314.266206 
L 178.568948 311.078173 
L 179.329857 303.923623 
L 180.30382 293.395691 
L 182.008257 271.33894 
L 183.225711 251.951235 
L 184.290984 233.342001 
L 185.386693 214.065507 
L 186.33022 197.458066 
L 187.456366 177.588449 
L 189.43473 144.521848 
L 190.68262 125.097073 
L 192.600111 98.628967 
L 194.334984 80.761134 
L 196.830766 60.372535 
L 197.13513 58.407818 
L 197.80473 54.330095 
L 198.687384 50.734288 
L 198.991748 49.473904 
L 199.570039 47.805743 
L 199.904839 46.656565 
L 200.117893 45.915173 
L 200.39182 45.06255 
L 200.81793 44.284079 
L 201.06142 43.83924 
L 201.578839 42.838345 
L 201.883202 42.615921 
L 202.704984 42.541778 
L 202.887602 42.467637 
L 203.039784 42.504713 
L 203.16153 42.578854 
L 203.587639 42.986629 
L 203.648511 42.949553 
L 203.678948 43.023693 
L 203.861566 43.097836 
L 204.044184 43.134901 
L 204.196366 43.32026 
L 204.318111 43.394389 
L 204.622475 43.91338 
L 205.383384 45.507398 
L 205.41382 45.507398 
L 205.83993 46.656565 
L 206.17473 47.731603 
L 206.661711 49.103206 
L 207.148693 50.54894 
L 208.792257 56.962084 
L 209.18793 58.74145 
L 209.85753 61.595854 
L 210.892366 66.118416 
L 211.561966 68.972817 
L 212.170693 71.419452 
L 212.353311 72.123785 
L 212.992475 75.348891 
L 214.636039 83.875032 
L 216.46222 95.62628 
L 217.070948 99.889353 
L 218.13622 107.043895 
L 220.632002 126.097969 
L 222.671239 144.373567 
L 224.101748 158.868008 
L 225.440948 172.991747 
L 226.871457 189.784539 
L 227.723675 200.646102 
L 229.488984 222.81407 
L 230.432511 234.305826 
L 231.102111 241.794003 
L 231.467348 245.797585 
L 233.354402 265.296491 
L 234.815348 276.82532 
L 235.332766 279.865084 
L 235.911057 282.719485 
L 236.21542 283.72038 
L 237.067639 285.536813 
L 237.250257 285.610953 
L 237.463311 285.536813 
L 237.706802 285.166114 
L 237.737239 285.203178 
L 237.88942 284.94369 
L 238.132911 284.610058 
L 238.437275 284.128155 
L 238.680766 283.423816 
L 238.924257 282.571201 
L 239.441675 280.569412 
L 239.624293 279.902148 
L 240.172148 276.714113 
L 241.480911 266.408606 
L 245.376766 222.554579 
L 246.472475 206.391977 
L 247.994293 182.629993 
L 248.755202 170.693396 
L 251.70753 129.137723 
L 252.468439 120.31502 
L 253.04673 114.457931 
L 253.807639 107.266316 
L 254.112002 104.819687 
L 254.598984 101.149737 
L 255.572948 94.847806 
L 256.364293 90.695946 
L 256.790402 89.139001 
L 257.246948 87.878615 
L 257.886111 86.581152 
L 259.31662 84.987135 
L 259.347057 85.024208 
L 259.40793 84.950065 
L 259.560111 84.87593 
L 259.955784 84.468155 
L 259.98622 84.505225 
L 260.047093 84.468155 
L 260.168839 84.356942 
L 260.290584 84.356942 
L 260.442766 84.282807 
L 260.594948 84.319871 
L 261.355857 84.394015 
L 261.629784 84.616433 
L 261.66022 84.579369 
L 261.690657 84.616433 
L 261.873275 84.838857 
L 261.964584 84.87593 
L 262.177639 85.172489 
L 262.268948 85.209562 
L 262.542875 85.617328 
L 262.99942 86.284591 
L 263.242911 86.803577 
L 263.33422 86.87772 
L 263.851639 87.915679 
L 263.912511 87.989822 
L 264.582111 89.361419 
L 264.734293 89.695051 
L 265.09953 90.621805 
L 265.282148 90.992507 
L 266.10393 93.253788 
L 266.895275 95.737487 
L 267.138766 96.553034 
L 267.68662 98.740175 
L 267.869239 99.444508 
L 268.569275 102.335982 
L 269.086693 104.634334 
L 271.70422 117.905458 
L 272.434693 122.502161 
L 272.647748 123.688406 
L 273.926075 130.88002 
L 273.986948 131.102442 
L 276.087057 140.851901 
L 276.239239 141.482093 
L 277.608875 146.857269 
L 277.913239 148.043515 
L 278.15673 148.896129 
L 278.521966 150.156515 
L 279.282875 152.566077 
L 279.40462 152.788498 
L 279.678548 153.604042 
L 281.261239 157.19985 
L 281.41342 157.496411 
L 281.656911 157.978324 
L 282.143893 158.719727 
L 282.448257 159.20164 
L 283.148293 159.905973 
L 283.391784 159.980113 
L 283.665711 160.165464 
L 283.726584 160.128395 
L 283.75702 160.165464 
L 283.939639 160.239605 
L 284.396184 160.165464 
L 284.578802 160.054254 
L 284.609239 160.091324 
L 284.670111 160.017184 
L 284.791857 159.980113 
L 284.913602 159.943043 
L 284.974475 159.905973 
L 285.09622 159.831833 
L 285.157093 159.794763 
L 285.309275 159.683552 
L 285.918002 158.793868 
L 286.283239 158.163675 
L 286.465857 157.867113 
L 286.648475 157.385201 
L 286.709348 157.348131 
L 287.013711 156.606727 
L 287.19633 156.236025 
L 287.561566 155.309271 
L 287.652875 155.049779 
L 289.387748 151.08327 
L 289.44862 151.0462 
L 289.905166 150.193586 
L 290.78782 149.266831 
L 290.909566 149.192691 
L 291.12262 149.081481 
L 291.244366 149.00734 
L 291.366111 149.00734 
L 291.609602 149.192691 
L 291.640039 149.155621 
L 291.670475 149.266831 
L 291.79222 149.340971 
L 292.55313 150.416007 
L 292.827057 151.00913 
L 292.979239 151.305691 
L 293.22273 151.972954 
L 293.648839 153.12213 
L 294.074948 154.419586 
L 295.170657 158.830938 
L 297.179457 169.136448 
L 299.310002 181.480817 
L 299.523057 182.667064 
L 301.044875 191.267346 
L 304.545057 207.800647 
L 305.458148 210.729191 
L 306.340802 212.65684 
L 306.401675 212.730981 
L 306.706039 213.21289 
L 307.101711 213.583592 
L 307.223457 213.546522 
L 307.375639 213.620665 
L 307.497384 213.546522 
L 308.319166 213.472387 
L 309.414875 211.989577 
L 309.780111 211.062823 
L 310.20622 209.765366 
L 311.30193 205.354018 
L 311.941093 201.72114 
L 312.97593 194.789013 
L 313.55422 190.785434 
L 314.923857 179.960942 
L 318.180548 153.12213 
L 318.606657 149.897024 
L 319.58062 142.520058 
L 320.493711 136.292269 
L 321.315493 131.028303 
L 321.528548 129.879128 
L 322.106839 126.468669 
L 322.776439 122.687512 
L 324.967857 109.97244 
L 325.211348 108.712053 
L 325.667893 106.599053 
L 326.520111 102.966175 
L 326.733166 102.187705 
L 328.072366 97.702207 
L 328.650657 96.034055 
L 328.95502 95.292648 
L 329.198511 94.847806 
L 329.502875 94.365896 
L 330.202911 93.66156 
L 330.29422 93.62449 
L 330.38553 93.550349 
L 330.415966 93.58742 
L 330.659457 93.439136 
L 330.781202 93.439136 
L 331.146439 93.365002 
L 331.29862 93.327928 
L 331.663857 93.253788 
L 331.785602 93.253788 
L 332.181275 93.327928 
L 332.363893 93.402072 
L 332.576948 93.402072 
L 332.698693 93.513279 
L 332.911748 93.58742 
L 333.97702 95.03316 
L 334.250948 95.663353 
L 334.433566 95.996984 
L 334.859675 97.146157 
L 336.046693 100.222985 
L 336.259748 100.890248 
L 338.66422 110.08365 
L 347.399457 153.12213 
L 347.79513 155.19806 
L 349.80393 164.502676 
L 349.986548 165.207009 
L 350.38222 166.949308 
L 352.512766 174.326273 
L 352.634511 174.622835 
L 353.82153 177.254817 
L 354.004148 177.62552 
L 354.217202 178.070361 
L 354.247639 178.070361 
L 354.521566 178.663486 
L 355.282475 180.257503 
L 355.49553 180.665273 
L 356.591239 183.074837 
L 356.74342 183.408469 
L 357.83913 185.81803 
L 358.113057 186.299942 
L 358.721784 187.523258 
L 358.965275 187.9681 
L 359.300075 188.524153 
L 359.634875 189.080205 
L 360.030548 189.784539 
L 361.552366 191.489767 
L 361.674111 191.563908 
L 361.795857 191.563908 
L 362.221966 191.600978 
L 362.343711 191.675118 
L 362.617639 191.749258 
L 362.648075 191.786329 
L 362.678511 191.749258 
L 362.800257 191.712188 
L 363.043748 191.638048 
L 363.19593 191.600978 
L 363.317675 191.600978 
L 363.469857 191.415627 
L 363.500293 191.489767 
L 363.561166 191.452697 
L 363.804657 191.304416 
L 363.956839 191.230276 
L 364.291639 190.970785 
L 364.44382 190.896644 
L 364.717748 190.711293 
L 364.86993 190.674223 
L 365.052548 190.488872 
L 365.326475 190.414732 
L 365.600402 190.229381 
L 365.78302 190.155241 
L 366.148257 189.858679 
L 366.270002 189.821609 
L 366.422184 189.710398 
L 366.696111 189.487977 
L 366.726548 189.562118 
L 366.78742 189.487977 
L 367.000475 189.413837 
L 367.274402 189.228486 
L 367.365711 189.154346 
L 367.670075 188.931925 
L 367.852693 188.857784 
L 368.004875 188.746574 
L 368.096184 188.783644 
L 368.21793 188.709504 
L 368.430984 188.635363 
L 368.583166 188.524153 
L 368.735348 188.450012 
L 369.070148 188.190521 
L 369.161457 188.190521 
L 369.344075 188.116381 
L 369.648439 188.04224 
L 369.89193 187.856889 
L 369.983239 187.856889 
L 370.13542 187.745679 
L 370.22673 187.671539 
L 370.47022 187.486188 
L 370.500657 187.523258 
L 370.56153 187.449117 
L 370.683275 187.374977 
L 371.13982 186.967205 
L 371.200693 186.893065 
L 371.626802 186.522363 
L 371.657239 186.559433 
L 371.718111 186.485293 
L 372.083348 186.188731 
L 372.205093 186.151661 
L 372.387711 185.96631 
L 372.81382 185.595608 
L 372.966002 185.521468 
L 373.361675 185.187836 
L 373.48342 185.113696 
L 373.696475 184.854205 
L 373.726911 184.891275 
L 373.757348 184.817135 
L 374.974802 183.186047 
L 375.644402 181.814449 
L 375.857457 181.406679 
L 376.100948 180.924766 
L 376.131384 180.924766 
L 376.435748 180.183361 
L 376.527057 179.960942 
L 376.983602 178.700554 
L 378.201057 175.475449 
L 378.748911 173.881432 
L 379.114148 172.732256 
L 381.488184 163.650061 
L 382.918693 157.088639 
L 382.918693 157.088639 
" style="fill:none;stroke:#0000ff;stroke-linecap:square;stroke-width:1.5;"/>
   </g>
   <g id="line2d_26">
    <path clip-path="url(#pffc7ff2045)" d="M 78.555057 153.288946 
L 78.85942 153.344551 
L 85.951093 153.418692 
L 86.103275 153.455762 
L 86.285893 153.437227 
L 86.438075 153.474297 
L 86.681566 153.455762 
L 86.925057 153.474297 
L 87.138111 153.455762 
L 87.412039 153.492832 
L 87.625093 153.474297 
L 87.838148 153.492832 
L 88.112075 153.455762 
L 95.203748 153.548437 
L 95.386366 153.529902 
L 95.59942 153.511367 
L 95.842911 153.529902 
L 100.104002 153.622578 
L 100.62142 153.807928 
L 100.834475 153.900604 
L 101.899748 154.679078 
L 102.234548 155.068315 
L 102.934584 156.087745 
L 103.72593 157.737368 
L 105.947784 164.836307 
L 106.73913 168.154088 
L 107.439166 171.119703 
L 108.017457 173.69608 
L 110.269748 182.852415 
L 110.817602 184.464968 
L 111.608948 186.522363 
L 111.913311 187.059881 
L 112.33942 187.838354 
L 112.461166 188.023705 
L 112.856839 188.524153 
L 113.039457 188.616828 
L 113.34382 188.672433 
L 113.891675 188.579758 
L 114.165602 188.412942 
L 114.469966 188.097846 
L 115.413493 186.040451 
L 115.504802 185.8551 
L 115.961348 184.520574 
L 118.183202 173.158563 
L 119.37022 165.281149 
L 123.174766 134.309014 
L 124.757457 120.852538 
L 126.918439 107.099504 
L 129.262039 96.2194 
L 129.74902 94.847809 
L 131.027348 92.697735 
L 131.149093 92.623592 
L 131.392584 92.475314 
L 131.544766 92.382642 
L 132.18393 91.437349 
L 132.549166 90.992504 
L 132.76222 90.881296 
L 133.310075 90.788624 
L 133.85793 90.584738 
L 134.131857 90.658872 
L 134.557966 91.011042 
L 135.653675 91.085185 
L 136.262402 91.659767 
L 136.627639 91.752449 
L 137.20593 92.215826 
L 138.54513 94.847809 
L 140.280002 102.706687 
L 140.949602 106.172743 
L 141.253966 107.692623 
L 142.197493 113.457037 
L 144.449784 130.73174 
L 146.306402 145.633954 
L 146.91513 150.842314 
L 149.410911 174.085317 
L 152.241493 198.959409 
L 153.915493 210.414095 
L 154.95033 215.492706 
L 155.589493 217.753987 
L 156.685202 220.163552 
L 156.776511 220.256225 
L 157.111311 220.497184 
L 157.780911 220.77521 
L 157.993966 220.70107 
L 158.846184 219.514827 
L 159.150548 219.032912 
L 159.30273 218.81049 
L 159.607093 218.272973 
L 161.007166 214.584493 
L 163.259457 204.501404 
L 164.23342 198.551637 
L 166.698766 181.351072 
L 167.459675 176.050037 
L 168.068402 172.380089 
L 169.742402 164.725097 
L 170.92942 161.462921 
L 171.903384 160.443491 
L 172.146875 160.406421 
L 172.725166 160.888333 
L 173.60782 162.130184 
L 175.007893 165.781597 
L 176.438402 172.343019 
L 177.71673 179.960942 
L 179.695093 193.621303 
L 180.760366 199.478391 
L 181.034293 200.849988 
L 182.769166 209.765363 
L 183.560511 212.656843 
L 184.564911 214.825443 
L 184.99102 215.196145 
L 185.447566 215.103472 
L 185.721493 214.825443 
L 186.299784 213.546525 
L 186.938948 211.248174 
L 187.66942 207.670898 
L 188.886875 199.626672 
L 190.134766 188.876319 
L 191.200039 176.735836 
L 197.074257 106.543445 
L 198.504766 92.04901 
L 201.030984 68.45384 
L 202.278875 60.131584 
L 203.252839 55.36806 
L 204.652911 50.66015 
L 205.261639 50.067027 
L 205.474693 50.178235 
L 205.566002 50.252375 
L 206.966075 53.940864 
L 208.579202 60.242792 
L 209.674911 66.099881 
L 211.683711 78.981768 
L 213.996875 96.441824 
L 214.970839 103.670512 
L 217.040511 120.370625 
L 219.201493 136.959531 
L 219.90153 142.001076 
L 221.605966 152.677288 
L 223.614766 164.243184 
L 224.49742 169.062308 
L 225.532257 174.696976 
L 226.445348 179.126863 
L 226.93233 181.314002 
L 229.032439 189.784539 
L 230.097711 193.287671 
L 230.85862 195.400671 
L 231.132548 196.12354 
L 232.167384 198.922338 
L 232.836984 200.979733 
L 233.445711 202.722032 
L 234.602293 206.558796 
L 234.906657 207.578226 
L 235.911057 210.840402 
L 237.432875 214.269393 
L 238.163348 215.381499 
L 238.772075 215.956089 
L 239.076439 216.048765 
L 239.441675 216.141437 
L 241.024366 216.234113 
L 241.267857 216.271183 
L 241.450475 216.289715 
L 242.363566 216.197043 
L 242.607057 216.15997 
L 242.759239 216.178508 
L 243.276657 216.271183 
L 243.946257 216.808701 
L 244.981093 218.235903 
L 248.176911 224.296877 
L 248.816075 225.575801 
L 249.090002 226.057711 
L 249.69873 227.281024 
L 250.03353 227.855615 
L 251.70753 230.691483 
L 252.468439 231.451422 
L 252.864111 231.562636 
L 253.198911 231.469954 
L 253.533711 231.229004 
L 253.655457 231.154861 
L 254.081566 230.802697 
L 254.355493 230.50613 
L 254.781602 229.838866 
L 255.877311 226.89179 
L 256.577348 223.944713 
L 258.251348 214.19525 
L 259.255748 206.058348 
L 260.32102 195.307996 
L 261.386293 182.444642 
L 262.512439 166.634211 
L 264.795166 130.231292 
L 268.264911 72.957864 
L 270.151966 48.065238 
L 271.765093 33.403978 
L 272.46513 28.733135 
L 273.012984 26.027015 
L 273.986948 22.857518 
L 274.38262 22.357064 
L 274.626111 22.338526 
L 275.234839 22.83898 
L 275.539202 23.3765 
L 275.965311 24.673951 
L 276.908839 28.529246 
L 277.48713 31.884104 
L 279.039384 44.006053 
L 280.378584 57.240104 
L 281.83953 73.47685 
L 283.330911 91.140788 
L 287.561566 141.315277 
L 288.596402 153.1592 
L 289.692111 165.188474 
L 292.857493 194.955829 
L 293.740148 202.036237 
L 294.714111 208.356699 
L 296.053311 215.844876 
L 298.275166 226.168924 
L 300.040475 231.210466 
L 300.83182 232.433785 
L 301.288366 232.841554 
L 301.59273 232.934226 
L 301.897093 232.989835 
L 302.536257 232.897162 
L 303.084111 232.063083 
L 303.388475 231.284606 
L 304.058075 228.89358 
L 304.636366 225.983567 
L 307.406075 208.449375 
L 310.784511 184.557642 
L 313.249857 168.876957 
L 315.197784 156.551122 
L 316.56742 149.656068 
L 317.297893 146.579243 
L 318.515348 141.852794 
L 319.184948 139.943681 
L 320.037166 137.700935 
L 320.554584 136.533225 
L 321.224184 134.846531 
L 322.472075 132.789135 
L 323.93302 130.842952 
L 324.541748 129.953267 
L 324.998293 129.2304 
L 326.885348 124.911722 
L 327.494075 123.577196 
L 328.589784 120.648652 
L 329.04633 119.36973 
L 329.71593 117.460616 
L 331.755166 111.603528 
L 333.703093 107.136568 
L 334.677057 105.579623 
L 335.042293 105.227456 
L 335.40753 104.94943 
L 335.894511 104.782614 
L 336.381493 104.689939 
L 336.594548 104.597263 
L 337.75113 104.689939 
L 338.451166 105.227456 
L 340.307784 108.841799 
L 341.464366 112.715633 
L 343.68622 122.650441 
L 345.421093 133.882706 
L 346.425493 141.500629 
L 351.234439 178.700555 
L 355.008548 205.465228 
L 356.07382 211.859835 
L 356.83473 215.418572 
L 357.74782 218.847564 
L 357.960875 219.440684 
L 358.904402 221.998526 
L 359.726184 222.851137 
L 360.152293 222.758465 
L 361.339311 221.145915 
L 361.795857 220.311836 
L 362.313275 219.144122 
L 363.591602 214.918124 
L 364.53513 210.414095 
L 365.478657 205.298413 
L 367.000475 195.345066 
L 367.822257 188.857784 
L 368.644039 182.055407 
L 370.774584 161.574131 
L 372.57033 144.132611 
L 374.061711 130.639066 
L 376.405311 112.956589 
L 377.531457 105.524018 
L 378.688039 99.129412 
L 380.301166 92.734805 
L 380.970766 90.825688 
L 381.396875 89.880402 
L 381.822984 89.120466 
L 382.309966 88.453203 
L 382.888257 87.915682 
L 382.918693 87.897144 
L 382.918693 87.897144 
" style="fill:none;stroke:#ff0000;stroke-linecap:square;stroke-width:1.5;"/>
   </g>
   <g id="line2d_27">
    <path clip-path="url(#pffc7ff2045)" d="M 125.000948 161.981903 
" style="fill:none;stroke:#ffffff;stroke-linecap:square;stroke-width:1.5;"/>
    <defs>
     <path d="M 0 -5 
L -1.12257 -1.545085 
L -4.755283 -1.545085 
L -1.816356 0.59017 
L -2.938926 4.045085 
L -0 1.90983 
L 2.938926 4.045085 
L 1.816356 0.59017 
L 4.755283 -1.545085 
L 1.12257 -1.545085 
z
" id="mfd3c1019c2" style="stroke:#ffffff;stroke-linejoin:bevel;"/>
    </defs>
    <g clip-path="url(#pffc7ff2045)">
     <use style="fill:#0000ff;stroke:#ffffff;stroke-linejoin:bevel;" x="125.000948" xlink:href="#mfd3c1019c2" y="161.981903"/>
    </g>
   </g>
   <g id="line2d_28">
    <path clip-path="url(#pffc7ff2045)" d="M 104.547711 159.924508 
" style="fill:none;stroke:#ffffff;stroke-linecap:square;stroke-width:1.5;"/>
    <defs>
     <path d="M 0 -5 
L -1.12257 -1.545085 
L -4.755283 -1.545085 
L -1.816356 0.59017 
L -2.938926 4.045085 
L -0 1.90983 
L 2.938926 4.045085 
L 1.816356 0.59017 
L 4.755283 -1.545085 
L 1.12257 -1.545085 
z
" id="m6abd8504a5" style="stroke:#ffffff;stroke-linejoin:bevel;"/>
    </defs>
    <g clip-path="url(#pffc7ff2045)">
     <use style="fill:#ff0000;stroke:#ffffff;stroke-linejoin:bevel;" x="104.547711" xlink:href="#m6abd8504a5" y="159.924508"/>
    </g>
   </g>
   <g id="patch_3">
    <path d="M 63.336875 339.84 
L 63.336875 7.2 
" style="fill:none;stroke:#000000;stroke-linecap:square;stroke-linejoin:miter;stroke-width:0.8;"/>
   </g>
   <g id="patch_4">
    <path d="M 398.136875 339.84 
L 398.136875 7.2 
" style="fill:none;stroke:#000000;stroke-linecap:square;stroke-linejoin:miter;stroke-width:0.8;"/>
   </g>
   <g id="patch_5">
    <path d="M 63.336875 339.84 
L 398.136875 339.84 
" style="fill:none;stroke:#000000;stroke-linecap:square;stroke-linejoin:miter;stroke-width:0.8;"/>
   </g>
   <g id="patch_6">
    <path d="M 63.336875 7.2 
L 398.136875 7.2 
" style="fill:none;stroke:#000000;stroke-linecap:square;stroke-linejoin:miter;stroke-width:0.8;"/>
   </g>
   <g id="text_15">
    <g id="patch_7">
     <path d="M 75.036875 331.242688 
L 166.79375 331.242688 
L 166.79375 293.760312 
L 75.036875 293.760312 
z
" style="fill:#ffffff;stroke:#000000;stroke-linejoin:miter;stroke-width:0.75;"/>
    </g>
    <!-- Auto_00107 -->
    <g transform="translate(80.076875 308.521563)scale(0.14 -0.14)">
     <defs>
      <path d="M 2928 1419 
L 1288 1419 
L 1000 750 
Q 894 503 894 381 
Q 894 284 986 211 
Q 1078 138 1384 116 
L 1384 0 
L 50 0 
L 50 116 
Q 316 163 394 238 
Q 553 388 747 847 
L 2238 4334 
L 2347 4334 
L 3822 809 
Q 4000 384 4145 257 
Q 4291 131 4550 116 
L 4550 0 
L 2878 0 
L 2878 116 
Q 3131 128 3220 200 
Q 3309 272 3309 375 
Q 3309 513 3184 809 
L 2928 1419 
z
M 2841 1650 
L 2122 3363 
L 1384 1650 
L 2841 1650 
z
" id="TimesNewRomanPSMT-41" transform="scale(0.015625)"/>
      <path d="M 2709 2863 
L 2709 1128 
Q 2709 631 2732 520 
Q 2756 409 2807 365 
Q 2859 322 2928 322 
Q 3025 322 3147 375 
L 3191 266 
L 2334 -88 
L 2194 -88 
L 2194 519 
Q 1825 119 1631 15 
Q 1438 -88 1222 -88 
Q 981 -88 804 51 
Q 628 191 559 409 
Q 491 628 491 1028 
L 491 2306 
Q 491 2509 447 2587 
Q 403 2666 317 2708 
Q 231 2750 6 2747 
L 6 2863 
L 1009 2863 
L 1009 947 
Q 1009 547 1148 422 
Q 1288 297 1484 297 
Q 1619 297 1789 381 
Q 1959 466 2194 703 
L 2194 2325 
Q 2194 2569 2105 2655 
Q 2016 2741 1734 2747 
L 1734 2863 
L 2709 2863 
z
" id="TimesNewRomanPSMT-75" transform="scale(0.015625)"/>
      <path d="M 3256 -1381 
L -53 -1381 
L -53 -1119 
L 3256 -1119 
L 3256 -1381 
z
" id="TimesNewRomanPSMT-5f" transform="scale(0.015625)"/>
      <path d="M 644 4238 
L 2916 4238 
L 2916 4119 
L 1503 -88 
L 1153 -88 
L 2419 3728 
L 1253 3728 
Q 900 3728 750 3644 
Q 488 3500 328 3200 
L 238 3234 
L 644 4238 
z
" id="TimesNewRomanPSMT-37" transform="scale(0.015625)"/>
     </defs>
     <use xlink:href="#TimesNewRomanPSMT-41"/>
     <use x="72.216797" xlink:href="#TimesNewRomanPSMT-75"/>
     <use x="122.216797" xlink:href="#TimesNewRomanPSMT-74"/>
     <use x="150" xlink:href="#TimesNewRomanPSMT-6f"/>
     <use x="200" xlink:href="#TimesNewRomanPSMT-5f"/>
     <use x="250" xlink:href="#TimesNewRomanPSMT-30"/>
     <use x="300" xlink:href="#TimesNewRomanPSMT-30"/>
     <use x="350" xlink:href="#TimesNewRomanPSMT-31"/>
     <use x="400" xlink:href="#TimesNewRomanPSMT-30"/>
     <use x="450" xlink:href="#TimesNewRomanPSMT-37"/>
    </g>
    <!-- Vs: 297.46m/s -->
    <g transform="translate(80.076875 323.208)scale(0.14 -0.14)">
     <defs>
      <path d="M 903 2950 
Q 1047 2950 1148 2848 
Q 1250 2747 1250 2603 
Q 1250 2459 1148 2357 
Q 1047 2256 903 2256 
Q 759 2256 657 2357 
Q 556 2459 556 2603 
Q 556 2747 657 2848 
Q 759 2950 903 2950 
z
M 897 609 
Q 1044 609 1145 506 
Q 1247 403 1247 259 
Q 1247 116 1144 14 
Q 1041 -88 897 -88 
Q 753 -88 651 14 
Q 550 116 550 259 
Q 550 403 651 506 
Q 753 609 897 609 
z
" id="TimesNewRomanPSMT-3a" transform="scale(0.015625)"/>
      <path d="M 338 -88 
L 338 28 
Q 744 34 1094 217 
Q 1444 400 1770 856 
Q 2097 1313 2225 1859 
Q 1734 1544 1338 1544 
Q 891 1544 572 1889 
Q 253 2234 253 2806 
Q 253 3363 572 3797 
Q 956 4325 1575 4325 
Q 2097 4325 2469 3894 
Q 2925 3359 2925 2575 
Q 2925 1869 2578 1258 
Q 2231 647 1613 244 
Q 1109 -88 516 -88 
L 338 -88 
z
M 2275 2091 
Q 2331 2497 2331 2741 
Q 2331 3044 2228 3395 
Q 2125 3747 1936 3934 
Q 1747 4122 1506 4122 
Q 1228 4122 1018 3872 
Q 809 3622 809 3128 
Q 809 2469 1088 2097 
Q 1291 1828 1588 1828 
Q 1731 1828 1928 1897 
Q 2125 1966 2275 2091 
z
" id="TimesNewRomanPSMT-39" transform="scale(0.015625)"/>
      <path d="M 1794 4444 
L 259 -88 
L 9 -88 
L 1544 4444 
L 1794 4444 
z
" id="TimesNewRomanPSMT-2f" transform="scale(0.015625)"/>
     </defs>
     <use xlink:href="#TimesNewRomanPSMT-56"/>
     <use x="72.216797" xlink:href="#TimesNewRomanPSMT-73"/>
     <use x="111.132812" xlink:href="#TimesNewRomanPSMT-3a"/>
     <use x="138.916016" xlink:href="#TimesNewRomanPSMT-20"/>
     <use x="163.916016" xlink:href="#TimesNewRomanPSMT-32"/>
     <use x="213.916016" xlink:href="#TimesNewRomanPSMT-39"/>
     <use x="263.916016" xlink:href="#TimesNewRomanPSMT-37"/>
     <use x="313.916016" xlink:href="#TimesNewRomanPSMT-2e"/>
     <use x="338.916016" xlink:href="#TimesNewRomanPSMT-34"/>
     <use x="388.916016" xlink:href="#TimesNewRomanPSMT-36"/>
     <use x="438.916016" xlink:href="#TimesNewRomanPSMT-6d"/>
     <use x="516.699219" xlink:href="#TimesNewRomanPSMT-2f"/>
     <use x="544.482422" xlink:href="#TimesNewRomanPSMT-73"/>
    </g>
   </g>
  </g>
 </g>
 <defs>
  <clipPath id="pffc7ff2045">
   <rect height="332.64" width="334.8" x="63.336875" y="7.2"/>
  </clipPath>
 </defs>
</svg>
