<?xml version="1.0" encoding="utf-8" standalone="no"?>
<!DOCTYPE svg PUBLIC "-//W3C//DTD SVG 1.1//EN"
  "http://www.w3.org/Graphics/SVG/1.1/DTD/svg11.dtd">
<svg height="383.471875pt" version="1.1" viewBox="0 0 421.086875 383.471875" width="421.086875pt" xmlns="http://www.w3.org/2000/svg" xmlns:xlink="http://www.w3.org/1999/xlink">
 <metadata>
  <rdf:RDF xmlns:cc="http://creativecommons.org/ns#" xmlns:dc="http://purl.org/dc/elements/1.1/" xmlns:rdf="http://www.w3.org/1999/02/22-rdf-syntax-ns#">
   <cc:Work>
    <dc:type rdf:resource="http://purl.org/dc/dcmitype/StillImage"/>
    <dc:date>2021-06-11T14:39:38.306335</dc:date>
    <dc:format>image/svg+xml</dc:format>
    <dc:creator>
     <cc:Agent>
      <dc:title>Matplotlib v3.4.2, https://matplotlib.org/</dc:title>
     </cc:Agent>
    </dc:creator>
   </cc:Work>
  </rdf:RDF>
 </metadata>
 <defs>
  <style type="text/css">*{stroke-linecap:butt;stroke-linejoin:round;}</style>
 </defs>
 <g id="figure_1">
  <g id="patch_1">
   <path d="M 0 383.471875 
L 421.086875 383.471875 
L 421.086875 0 
L 0 0 
z
" style="fill:#ffffff;"/>
  </g>
  <g id="axes_1">
   <g id="patch_2">
    <path d="M 63.336875 339.84 
L 398.136875 339.84 
L 398.136875 7.2 
L 63.336875 7.2 
z
" style="fill:#ffffff;"/>
   </g>
   <g id="matplotlib.axis_1">
    <g id="xtick_1">
     <g id="line2d_1">
      <path clip-path="url(#p237cd8b322)" d="M 93.773239 339.84 
L 93.773239 7.2 
" style="fill:none;stroke:#000000;stroke-dasharray:0.5,0.825;stroke-dashoffset:0;stroke-width:0.5;"/>
     </g>
     <g id="line2d_2">
      <defs>
       <path d="M 0 0 
L 0 3.5 
" id="mdf3484ca9b" style="stroke:#000000;stroke-width:0.8;"/>
      </defs>
      <g>
       <use style="stroke:#000000;stroke-width:0.8;" x="93.773239" xlink:href="#mdf3484ca9b" y="339.84"/>
      </g>
     </g>
     <g id="text_1">
      <!-- 0.000 -->
      <g transform="translate(78.023239 356.56125)scale(0.14 -0.14)">
       <defs>
        <path d="M 231 2094 
Q 231 2819 450 3342 
Q 669 3866 1031 4122 
Q 1313 4325 1613 4325 
Q 2100 4325 2488 3828 
Q 2972 3213 2972 2159 
Q 2972 1422 2759 906 
Q 2547 391 2217 158 
Q 1888 -75 1581 -75 
Q 975 -75 572 641 
Q 231 1244 231 2094 
z
M 844 2016 
Q 844 1141 1059 588 
Q 1238 122 1591 122 
Q 1759 122 1940 273 
Q 2122 425 2216 781 
Q 2359 1319 2359 2297 
Q 2359 3022 2209 3506 
Q 2097 3866 1919 4016 
Q 1791 4119 1609 4119 
Q 1397 4119 1231 3928 
Q 1006 3669 925 3112 
Q 844 2556 844 2016 
z
" id="TimesNewRomanPSMT-30" transform="scale(0.015625)"/>
        <path d="M 800 606 
Q 947 606 1047 504 
Q 1147 403 1147 259 
Q 1147 116 1045 14 
Q 944 -88 800 -88 
Q 656 -88 554 14 
Q 453 116 453 259 
Q 453 406 554 506 
Q 656 606 800 606 
z
" id="TimesNewRomanPSMT-2e" transform="scale(0.015625)"/>
       </defs>
       <use xlink:href="#TimesNewRomanPSMT-30"/>
       <use x="50" xlink:href="#TimesNewRomanPSMT-2e"/>
       <use x="75" xlink:href="#TimesNewRomanPSMT-30"/>
       <use x="125" xlink:href="#TimesNewRomanPSMT-30"/>
       <use x="175" xlink:href="#TimesNewRomanPSMT-30"/>
      </g>
     </g>
    </g>
    <g id="xtick_2">
     <g id="line2d_3">
      <path clip-path="url(#p237cd8b322)" d="M 154.645966 339.84 
L 154.645966 7.2 
" style="fill:none;stroke:#000000;stroke-dasharray:0.5,0.825;stroke-dashoffset:0;stroke-width:0.5;"/>
     </g>
     <g id="line2d_4">
      <g>
       <use style="stroke:#000000;stroke-width:0.8;" x="154.645966" xlink:href="#mdf3484ca9b" y="339.84"/>
      </g>
     </g>
     <g id="text_2">
      <!-- 0.001 -->
      <g transform="translate(138.895966 356.56125)scale(0.14 -0.14)">
       <defs>
        <path d="M 750 3822 
L 1781 4325 
L 1884 4325 
L 1884 747 
Q 1884 391 1914 303 
Q 1944 216 2037 169 
Q 2131 122 2419 116 
L 2419 0 
L 825 0 
L 825 116 
Q 1125 122 1212 167 
Q 1300 213 1334 289 
Q 1369 366 1369 747 
L 1369 3034 
Q 1369 3497 1338 3628 
Q 1316 3728 1258 3775 
Q 1200 3822 1119 3822 
Q 1003 3822 797 3725 
L 750 3822 
z
" id="TimesNewRomanPSMT-31" transform="scale(0.015625)"/>
       </defs>
       <use xlink:href="#TimesNewRomanPSMT-30"/>
       <use x="50" xlink:href="#TimesNewRomanPSMT-2e"/>
       <use x="75" xlink:href="#TimesNewRomanPSMT-30"/>
       <use x="125" xlink:href="#TimesNewRomanPSMT-30"/>
       <use x="175" xlink:href="#TimesNewRomanPSMT-31"/>
      </g>
     </g>
    </g>
    <g id="xtick_3">
     <g id="line2d_5">
      <path clip-path="url(#p237cd8b322)" d="M 215.518693 339.84 
L 215.518693 7.2 
" style="fill:none;stroke:#000000;stroke-dasharray:0.5,0.825;stroke-dashoffset:0;stroke-width:0.5;"/>
     </g>
     <g id="line2d_6">
      <g>
       <use style="stroke:#000000;stroke-width:0.8;" x="215.518693" xlink:href="#mdf3484ca9b" y="339.84"/>
      </g>
     </g>
     <g id="text_3">
      <!-- 0.002 -->
      <g transform="translate(199.768693 356.56125)scale(0.14 -0.14)">
       <defs>
        <path d="M 2934 816 
L 2638 0 
L 138 0 
L 138 116 
Q 1241 1122 1691 1759 
Q 2141 2397 2141 2925 
Q 2141 3328 1894 3587 
Q 1647 3847 1303 3847 
Q 991 3847 742 3664 
Q 494 3481 375 3128 
L 259 3128 
Q 338 3706 661 4015 
Q 984 4325 1469 4325 
Q 1984 4325 2329 3994 
Q 2675 3663 2675 3213 
Q 2675 2891 2525 2569 
Q 2294 2063 1775 1497 
Q 997 647 803 472 
L 1909 472 
Q 2247 472 2383 497 
Q 2519 522 2628 598 
Q 2738 675 2819 816 
L 2934 816 
z
" id="TimesNewRomanPSMT-32" transform="scale(0.015625)"/>
       </defs>
       <use xlink:href="#TimesNewRomanPSMT-30"/>
       <use x="50" xlink:href="#TimesNewRomanPSMT-2e"/>
       <use x="75" xlink:href="#TimesNewRomanPSMT-30"/>
       <use x="125" xlink:href="#TimesNewRomanPSMT-30"/>
       <use x="175" xlink:href="#TimesNewRomanPSMT-32"/>
      </g>
     </g>
    </g>
    <g id="xtick_4">
     <g id="line2d_7">
      <path clip-path="url(#p237cd8b322)" d="M 276.39142 339.84 
L 276.39142 7.2 
" style="fill:none;stroke:#000000;stroke-dasharray:0.5,0.825;stroke-dashoffset:0;stroke-width:0.5;"/>
     </g>
     <g id="line2d_8">
      <g>
       <use style="stroke:#000000;stroke-width:0.8;" x="276.39142" xlink:href="#mdf3484ca9b" y="339.84"/>
      </g>
     </g>
     <g id="text_4">
      <!-- 0.003 -->
      <g transform="translate(260.64142 356.56125)scale(0.14 -0.14)">
       <defs>
        <path d="M 325 3431 
Q 506 3859 782 4092 
Q 1059 4325 1472 4325 
Q 1981 4325 2253 3994 
Q 2459 3747 2459 3466 
Q 2459 3003 1878 2509 
Q 2269 2356 2469 2072 
Q 2669 1788 2669 1403 
Q 2669 853 2319 450 
Q 1863 -75 997 -75 
Q 569 -75 414 31 
Q 259 138 259 259 
Q 259 350 332 419 
Q 406 488 509 488 
Q 588 488 669 463 
Q 722 447 909 348 
Q 1097 250 1169 231 
Q 1284 197 1416 197 
Q 1734 197 1970 444 
Q 2206 691 2206 1028 
Q 2206 1275 2097 1509 
Q 2016 1684 1919 1775 
Q 1784 1900 1550 2001 
Q 1316 2103 1072 2103 
L 972 2103 
L 972 2197 
Q 1219 2228 1467 2375 
Q 1716 2522 1828 2728 
Q 1941 2934 1941 3181 
Q 1941 3503 1739 3701 
Q 1538 3900 1238 3900 
Q 753 3900 428 3381 
L 325 3431 
z
" id="TimesNewRomanPSMT-33" transform="scale(0.015625)"/>
       </defs>
       <use xlink:href="#TimesNewRomanPSMT-30"/>
       <use x="50" xlink:href="#TimesNewRomanPSMT-2e"/>
       <use x="75" xlink:href="#TimesNewRomanPSMT-30"/>
       <use x="125" xlink:href="#TimesNewRomanPSMT-30"/>
       <use x="175" xlink:href="#TimesNewRomanPSMT-33"/>
      </g>
     </g>
    </g>
    <g id="xtick_5">
     <g id="line2d_9">
      <path clip-path="url(#p237cd8b322)" d="M 337.264148 339.84 
L 337.264148 7.2 
" style="fill:none;stroke:#000000;stroke-dasharray:0.5,0.825;stroke-dashoffset:0;stroke-width:0.5;"/>
     </g>
     <g id="line2d_10">
      <g>
       <use style="stroke:#000000;stroke-width:0.8;" x="337.264148" xlink:href="#mdf3484ca9b" y="339.84"/>
      </g>
     </g>
     <g id="text_5">
      <!-- 0.004 -->
      <g transform="translate(321.514148 356.56125)scale(0.14 -0.14)">
       <defs>
        <path d="M 2978 1563 
L 2978 1119 
L 2409 1119 
L 2409 0 
L 1894 0 
L 1894 1119 
L 100 1119 
L 100 1519 
L 2066 4325 
L 2409 4325 
L 2409 1563 
L 2978 1563 
z
M 1894 1563 
L 1894 3666 
L 406 1563 
L 1894 1563 
z
" id="TimesNewRomanPSMT-34" transform="scale(0.015625)"/>
       </defs>
       <use xlink:href="#TimesNewRomanPSMT-30"/>
       <use x="50" xlink:href="#TimesNewRomanPSMT-2e"/>
       <use x="75" xlink:href="#TimesNewRomanPSMT-30"/>
       <use x="125" xlink:href="#TimesNewRomanPSMT-30"/>
       <use x="175" xlink:href="#TimesNewRomanPSMT-34"/>
      </g>
     </g>
    </g>
    <g id="xtick_6">
     <g id="line2d_11">
      <path clip-path="url(#p237cd8b322)" d="M 398.136875 339.84 
L 398.136875 7.2 
" style="fill:none;stroke:#000000;stroke-dasharray:0.5,0.825;stroke-dashoffset:0;stroke-width:0.5;"/>
     </g>
     <g id="line2d_12">
      <g>
       <use style="stroke:#000000;stroke-width:0.8;" x="398.136875" xlink:href="#mdf3484ca9b" y="339.84"/>
      </g>
     </g>
     <g id="text_6">
      <!-- 0.005 -->
      <g transform="translate(382.386875 356.56125)scale(0.14 -0.14)">
       <defs>
        <path d="M 2778 4238 
L 2534 3706 
L 1259 3706 
L 981 3138 
Q 1809 3016 2294 2522 
Q 2709 2097 2709 1522 
Q 2709 1188 2573 903 
Q 2438 619 2231 419 
Q 2025 219 1772 97 
Q 1413 -75 1034 -75 
Q 653 -75 479 54 
Q 306 184 306 341 
Q 306 428 378 495 
Q 450 563 559 563 
Q 641 563 702 538 
Q 763 513 909 409 
Q 1144 247 1384 247 
Q 1750 247 2026 523 
Q 2303 800 2303 1197 
Q 2303 1581 2056 1914 
Q 1809 2247 1375 2428 
Q 1034 2569 447 2591 
L 1259 4238 
L 2778 4238 
z
" id="TimesNewRomanPSMT-35" transform="scale(0.015625)"/>
       </defs>
       <use xlink:href="#TimesNewRomanPSMT-30"/>
       <use x="50" xlink:href="#TimesNewRomanPSMT-2e"/>
       <use x="75" xlink:href="#TimesNewRomanPSMT-30"/>
       <use x="125" xlink:href="#TimesNewRomanPSMT-30"/>
       <use x="175" xlink:href="#TimesNewRomanPSMT-35"/>
      </g>
     </g>
    </g>
    <g id="text_7">
     <!-- Time (sec) -->
     <g transform="translate(200.858906 373.277188)scale(0.14 -0.14)">
      <defs>
       <path d="M 3703 4238 
L 3750 3244 
L 3631 3244 
Q 3597 3506 3538 3619 
Q 3441 3800 3280 3886 
Q 3119 3972 2856 3972 
L 2259 3972 
L 2259 734 
Q 2259 344 2344 247 
Q 2463 116 2709 116 
L 2856 116 
L 2856 0 
L 1059 0 
L 1059 116 
L 1209 116 
Q 1478 116 1591 278 
Q 1659 378 1659 734 
L 1659 3972 
L 1150 3972 
Q 853 3972 728 3928 
Q 566 3869 450 3700 
Q 334 3531 313 3244 
L 194 3244 
L 244 4238 
L 3703 4238 
z
" id="TimesNewRomanPSMT-54" transform="scale(0.015625)"/>
       <path d="M 928 4444 
Q 1059 4444 1151 4351 
Q 1244 4259 1244 4128 
Q 1244 3997 1151 3903 
Q 1059 3809 928 3809 
Q 797 3809 703 3903 
Q 609 3997 609 4128 
Q 609 4259 701 4351 
Q 794 4444 928 4444 
z
M 1188 2947 
L 1188 647 
Q 1188 378 1227 289 
Q 1266 200 1342 156 
Q 1419 113 1622 113 
L 1622 0 
L 231 0 
L 231 113 
Q 441 113 512 153 
Q 584 194 626 287 
Q 669 381 669 647 
L 669 1750 
Q 669 2216 641 2353 
Q 619 2453 572 2492 
Q 525 2531 444 2531 
Q 356 2531 231 2484 
L 188 2597 
L 1050 2947 
L 1188 2947 
z
" id="TimesNewRomanPSMT-69" transform="scale(0.015625)"/>
       <path d="M 1050 2338 
Q 1363 2650 1419 2697 
Q 1559 2816 1721 2881 
Q 1884 2947 2044 2947 
Q 2313 2947 2506 2790 
Q 2700 2634 2766 2338 
Q 3088 2713 3309 2830 
Q 3531 2947 3766 2947 
Q 3994 2947 4170 2830 
Q 4347 2713 4450 2447 
Q 4519 2266 4519 1878 
L 4519 647 
Q 4519 378 4559 278 
Q 4591 209 4675 161 
Q 4759 113 4950 113 
L 4950 0 
L 3538 0 
L 3538 113 
L 3597 113 
Q 3781 113 3884 184 
Q 3956 234 3988 344 
Q 4000 397 4000 647 
L 4000 1878 
Q 4000 2228 3916 2372 
Q 3794 2572 3525 2572 
Q 3359 2572 3192 2489 
Q 3025 2406 2788 2181 
L 2781 2147 
L 2788 2013 
L 2788 647 
Q 2788 353 2820 281 
Q 2853 209 2943 161 
Q 3034 113 3253 113 
L 3253 0 
L 1806 0 
L 1806 113 
Q 2044 113 2133 169 
Q 2222 225 2256 338 
Q 2272 391 2272 647 
L 2272 1878 
Q 2272 2228 2169 2381 
Q 2031 2581 1784 2581 
Q 1616 2581 1450 2491 
Q 1191 2353 1050 2181 
L 1050 647 
Q 1050 366 1089 281 
Q 1128 197 1204 155 
Q 1281 113 1516 113 
L 1516 0 
L 100 0 
L 100 113 
Q 297 113 375 155 
Q 453 197 493 289 
Q 534 381 534 647 
L 534 1741 
Q 534 2213 506 2350 
Q 484 2453 437 2492 
Q 391 2531 309 2531 
Q 222 2531 100 2484 
L 53 2597 
L 916 2947 
L 1050 2947 
L 1050 2338 
z
" id="TimesNewRomanPSMT-6d" transform="scale(0.015625)"/>
       <path d="M 681 1784 
Q 678 1147 991 784 
Q 1303 422 1725 422 
Q 2006 422 2214 576 
Q 2422 731 2563 1106 
L 2659 1044 
Q 2594 616 2278 264 
Q 1963 -88 1488 -88 
Q 972 -88 605 314 
Q 238 716 238 1394 
Q 238 2128 614 2539 
Q 991 2950 1559 2950 
Q 2041 2950 2350 2633 
Q 2659 2316 2659 1784 
L 681 1784 
z
M 681 1966 
L 2006 1966 
Q 1991 2241 1941 2353 
Q 1863 2528 1708 2628 
Q 1553 2728 1384 2728 
Q 1125 2728 920 2526 
Q 716 2325 681 1966 
z
" id="TimesNewRomanPSMT-65" transform="scale(0.015625)"/>
       <path id="TimesNewRomanPSMT-20" transform="scale(0.015625)"/>
       <path d="M 1988 -1253 
L 1988 -1369 
Q 1516 -1131 1200 -813 
Q 750 -359 506 256 
Q 263 872 263 1534 
Q 263 2503 741 3301 
Q 1219 4100 1988 4444 
L 1988 4313 
Q 1603 4100 1356 3731 
Q 1109 3363 987 2797 
Q 866 2231 866 1616 
Q 866 947 969 400 
Q 1050 -31 1165 -292 
Q 1281 -553 1476 -793 
Q 1672 -1034 1988 -1253 
z
" id="TimesNewRomanPSMT-28" transform="scale(0.015625)"/>
       <path d="M 2050 2947 
L 2050 1972 
L 1947 1972 
Q 1828 2431 1642 2597 
Q 1456 2763 1169 2763 
Q 950 2763 815 2647 
Q 681 2531 681 2391 
Q 681 2216 781 2091 
Q 878 1963 1175 1819 
L 1631 1597 
Q 2266 1288 2266 781 
Q 2266 391 1970 151 
Q 1675 -88 1309 -88 
Q 1047 -88 709 6 
Q 606 38 541 38 
Q 469 38 428 -44 
L 325 -44 
L 325 978 
L 428 978 
Q 516 541 762 319 
Q 1009 97 1316 97 
Q 1531 97 1667 223 
Q 1803 350 1803 528 
Q 1803 744 1651 891 
Q 1500 1038 1047 1263 
Q 594 1488 453 1669 
Q 313 1847 313 2119 
Q 313 2472 555 2709 
Q 797 2947 1181 2947 
Q 1350 2947 1591 2875 
Q 1750 2828 1803 2828 
Q 1853 2828 1881 2850 
Q 1909 2872 1947 2947 
L 2050 2947 
z
" id="TimesNewRomanPSMT-73" transform="scale(0.015625)"/>
       <path d="M 2631 1088 
Q 2516 522 2178 217 
Q 1841 -88 1431 -88 
Q 944 -88 581 321 
Q 219 731 219 1428 
Q 219 2103 620 2525 
Q 1022 2947 1584 2947 
Q 2006 2947 2278 2723 
Q 2550 2500 2550 2259 
Q 2550 2141 2473 2067 
Q 2397 1994 2259 1994 
Q 2075 1994 1981 2113 
Q 1928 2178 1911 2362 
Q 1894 2547 1784 2644 
Q 1675 2738 1481 2738 
Q 1169 2738 978 2506 
Q 725 2200 725 1697 
Q 725 1184 976 792 
Q 1228 400 1656 400 
Q 1963 400 2206 609 
Q 2378 753 2541 1131 
L 2631 1088 
z
" id="TimesNewRomanPSMT-63" transform="scale(0.015625)"/>
       <path d="M 144 4313 
L 144 4444 
Q 619 4209 934 3891 
Q 1381 3434 1625 2820 
Q 1869 2206 1869 1541 
Q 1869 572 1392 -226 
Q 916 -1025 144 -1369 
L 144 -1253 
Q 528 -1038 776 -670 
Q 1025 -303 1145 264 
Q 1266 831 1266 1447 
Q 1266 2113 1163 2663 
Q 1084 3094 967 3353 
Q 850 3613 656 3853 
Q 463 4094 144 4313 
z
" id="TimesNewRomanPSMT-29" transform="scale(0.015625)"/>
      </defs>
      <use xlink:href="#TimesNewRomanPSMT-54"/>
      <use x="57.583984" xlink:href="#TimesNewRomanPSMT-69"/>
      <use x="85.367188" xlink:href="#TimesNewRomanPSMT-6d"/>
      <use x="163.150391" xlink:href="#TimesNewRomanPSMT-65"/>
      <use x="207.535156" xlink:href="#TimesNewRomanPSMT-20"/>
      <use x="232.535156" xlink:href="#TimesNewRomanPSMT-28"/>
      <use x="265.835938" xlink:href="#TimesNewRomanPSMT-73"/>
      <use x="304.751953" xlink:href="#TimesNewRomanPSMT-65"/>
      <use x="349.136719" xlink:href="#TimesNewRomanPSMT-63"/>
      <use x="393.521484" xlink:href="#TimesNewRomanPSMT-29"/>
     </g>
    </g>
   </g>
   <g id="matplotlib.axis_2">
    <g id="ytick_1">
     <g id="line2d_13">
      <path clip-path="url(#p237cd8b322)" d="M 63.336875 333.064036 
L 398.136875 333.064036 
" style="fill:none;stroke:#000000;stroke-dasharray:0.5,0.825;stroke-dashoffset:0;stroke-width:0.5;"/>
     </g>
     <g id="line2d_14">
      <defs>
       <path d="M 0 0 
L -3.5 0 
" id="ma1d63405f6" style="stroke:#000000;stroke-width:0.8;"/>
      </defs>
      <g>
       <use style="stroke:#000000;stroke-width:0.8;" x="63.336875" xlink:href="#ma1d63405f6" y="333.064036"/>
      </g>
     </g>
     <g id="text_8">
      <!-- −0.06 -->
      <g transform="translate(23.942188 337.924661)scale(0.14 -0.14)">
       <defs>
        <path d="M 3484 2000 
L 116 2000 
L 116 2256 
L 3484 2256 
L 3484 2000 
z
" id="TimesNewRomanPSMT-2212" transform="scale(0.015625)"/>
        <path d="M 2869 4325 
L 2869 4209 
Q 2456 4169 2195 4045 
Q 1934 3922 1679 3669 
Q 1425 3416 1258 3105 
Q 1091 2794 978 2366 
Q 1428 2675 1881 2675 
Q 2316 2675 2634 2325 
Q 2953 1975 2953 1425 
Q 2953 894 2631 456 
Q 2244 -75 1606 -75 
Q 1172 -75 869 213 
Q 275 772 275 1663 
Q 275 2231 503 2743 
Q 731 3256 1154 3653 
Q 1578 4050 1965 4187 
Q 2353 4325 2688 4325 
L 2869 4325 
z
M 925 2138 
Q 869 1716 869 1456 
Q 869 1156 980 804 
Q 1091 453 1309 247 
Q 1469 100 1697 100 
Q 1969 100 2183 356 
Q 2397 613 2397 1088 
Q 2397 1622 2184 2012 
Q 1972 2403 1581 2403 
Q 1463 2403 1327 2353 
Q 1191 2303 925 2138 
z
" id="TimesNewRomanPSMT-36" transform="scale(0.015625)"/>
       </defs>
       <use xlink:href="#TimesNewRomanPSMT-2212"/>
       <use x="56.396484" xlink:href="#TimesNewRomanPSMT-30"/>
       <use x="106.396484" xlink:href="#TimesNewRomanPSMT-2e"/>
       <use x="131.396484" xlink:href="#TimesNewRomanPSMT-30"/>
       <use x="181.396484" xlink:href="#TimesNewRomanPSMT-36"/>
      </g>
     </g>
    </g>
    <g id="ytick_2">
     <g id="line2d_15">
      <path clip-path="url(#p237cd8b322)" d="M 63.336875 273.445699 
L 398.136875 273.445699 
" style="fill:none;stroke:#000000;stroke-dasharray:0.5,0.825;stroke-dashoffset:0;stroke-width:0.5;"/>
     </g>
     <g id="line2d_16">
      <g>
       <use style="stroke:#000000;stroke-width:0.8;" x="63.336875" xlink:href="#ma1d63405f6" y="273.445699"/>
      </g>
     </g>
     <g id="text_9">
      <!-- −0.04 -->
      <g transform="translate(23.942188 278.306324)scale(0.14 -0.14)">
       <use xlink:href="#TimesNewRomanPSMT-2212"/>
       <use x="56.396484" xlink:href="#TimesNewRomanPSMT-30"/>
       <use x="106.396484" xlink:href="#TimesNewRomanPSMT-2e"/>
       <use x="131.396484" xlink:href="#TimesNewRomanPSMT-30"/>
       <use x="181.396484" xlink:href="#TimesNewRomanPSMT-34"/>
      </g>
     </g>
    </g>
    <g id="ytick_3">
     <g id="line2d_17">
      <path clip-path="url(#p237cd8b322)" d="M 63.336875 213.827362 
L 398.136875 213.827362 
" style="fill:none;stroke:#000000;stroke-dasharray:0.5,0.825;stroke-dashoffset:0;stroke-width:0.5;"/>
     </g>
     <g id="line2d_18">
      <g>
       <use style="stroke:#000000;stroke-width:0.8;" x="63.336875" xlink:href="#ma1d63405f6" y="213.827362"/>
      </g>
     </g>
     <g id="text_10">
      <!-- −0.02 -->
      <g transform="translate(23.942188 218.687987)scale(0.14 -0.14)">
       <use xlink:href="#TimesNewRomanPSMT-2212"/>
       <use x="56.396484" xlink:href="#TimesNewRomanPSMT-30"/>
       <use x="106.396484" xlink:href="#TimesNewRomanPSMT-2e"/>
       <use x="131.396484" xlink:href="#TimesNewRomanPSMT-30"/>
       <use x="181.396484" xlink:href="#TimesNewRomanPSMT-32"/>
      </g>
     </g>
    </g>
    <g id="ytick_4">
     <g id="line2d_19">
      <path clip-path="url(#p237cd8b322)" d="M 63.336875 154.209024 
L 398.136875 154.209024 
" style="fill:none;stroke:#000000;stroke-dasharray:0.5,0.825;stroke-dashoffset:0;stroke-width:0.5;"/>
     </g>
     <g id="line2d_20">
      <g>
       <use style="stroke:#000000;stroke-width:0.8;" x="63.336875" xlink:href="#ma1d63405f6" y="154.209024"/>
      </g>
     </g>
     <g id="text_11">
      <!-- 0.00 -->
      <g transform="translate(31.836875 159.069649)scale(0.14 -0.14)">
       <use xlink:href="#TimesNewRomanPSMT-30"/>
       <use x="50" xlink:href="#TimesNewRomanPSMT-2e"/>
       <use x="75" xlink:href="#TimesNewRomanPSMT-30"/>
       <use x="125" xlink:href="#TimesNewRomanPSMT-30"/>
      </g>
     </g>
    </g>
    <g id="ytick_5">
     <g id="line2d_21">
      <path clip-path="url(#p237cd8b322)" d="M 63.336875 94.590687 
L 398.136875 94.590687 
" style="fill:none;stroke:#000000;stroke-dasharray:0.5,0.825;stroke-dashoffset:0;stroke-width:0.5;"/>
     </g>
     <g id="line2d_22">
      <g>
       <use style="stroke:#000000;stroke-width:0.8;" x="63.336875" xlink:href="#ma1d63405f6" y="94.590687"/>
      </g>
     </g>
     <g id="text_12">
      <!-- 0.02 -->
      <g transform="translate(31.836875 99.451312)scale(0.14 -0.14)">
       <use xlink:href="#TimesNewRomanPSMT-30"/>
       <use x="50" xlink:href="#TimesNewRomanPSMT-2e"/>
       <use x="75" xlink:href="#TimesNewRomanPSMT-30"/>
       <use x="125" xlink:href="#TimesNewRomanPSMT-32"/>
      </g>
     </g>
    </g>
    <g id="ytick_6">
     <g id="line2d_23">
      <path clip-path="url(#p237cd8b322)" d="M 63.336875 34.97235 
L 398.136875 34.97235 
" style="fill:none;stroke:#000000;stroke-dasharray:0.5,0.825;stroke-dashoffset:0;stroke-width:0.5;"/>
     </g>
     <g id="line2d_24">
      <g>
       <use style="stroke:#000000;stroke-width:0.8;" x="63.336875" xlink:href="#ma1d63405f6" y="34.97235"/>
      </g>
     </g>
     <g id="text_13">
      <!-- 0.04 -->
      <g transform="translate(31.836875 39.832975)scale(0.14 -0.14)">
       <use xlink:href="#TimesNewRomanPSMT-30"/>
       <use x="50" xlink:href="#TimesNewRomanPSMT-2e"/>
       <use x="75" xlink:href="#TimesNewRomanPSMT-30"/>
       <use x="125" xlink:href="#TimesNewRomanPSMT-34"/>
      </g>
     </g>
    </g>
    <g id="text_14">
     <!-- Volatage (V) -->
     <g transform="translate(16.92125 209.352344)rotate(-90)scale(0.14 -0.14)">
      <defs>
       <path d="M 4544 4238 
L 4544 4122 
Q 4319 4081 4203 3978 
Q 4038 3825 3909 3509 
L 2431 -97 
L 2316 -97 
L 728 3556 
Q 606 3838 556 3900 
Q 478 3997 364 4051 
Q 250 4106 56 4122 
L 56 4238 
L 1788 4238 
L 1788 4122 
Q 1494 4094 1406 4022 
Q 1319 3950 1319 3838 
Q 1319 3681 1463 3350 
L 2541 866 
L 3541 3319 
Q 3688 3681 3688 3822 
Q 3688 3913 3597 3995 
Q 3506 4078 3291 4113 
Q 3275 4116 3238 4122 
L 3238 4238 
L 4544 4238 
z
" id="TimesNewRomanPSMT-56" transform="scale(0.015625)"/>
       <path d="M 1600 2947 
Q 2250 2947 2644 2453 
Q 2978 2031 2978 1484 
Q 2978 1100 2793 706 
Q 2609 313 2286 112 
Q 1963 -88 1566 -88 
Q 919 -88 538 428 
Q 216 863 216 1403 
Q 216 1797 411 2186 
Q 606 2575 925 2761 
Q 1244 2947 1600 2947 
z
M 1503 2744 
Q 1338 2744 1170 2645 
Q 1003 2547 900 2300 
Q 797 2053 797 1666 
Q 797 1041 1045 587 
Q 1294 134 1700 134 
Q 2003 134 2200 384 
Q 2397 634 2397 1244 
Q 2397 2006 2069 2444 
Q 1847 2744 1503 2744 
z
" id="TimesNewRomanPSMT-6f" transform="scale(0.015625)"/>
       <path d="M 1184 4444 
L 1184 647 
Q 1184 378 1223 290 
Q 1263 203 1344 158 
Q 1425 113 1647 113 
L 1647 0 
L 244 0 
L 244 113 
Q 441 113 512 153 
Q 584 194 625 287 
Q 666 381 666 647 
L 666 3247 
Q 666 3731 644 3842 
Q 622 3953 573 3993 
Q 525 4034 450 4034 
Q 369 4034 244 3984 
L 191 4094 
L 1044 4444 
L 1184 4444 
z
" id="TimesNewRomanPSMT-6c" transform="scale(0.015625)"/>
       <path d="M 1822 413 
Q 1381 72 1269 19 
Q 1100 -59 909 -59 
Q 613 -59 420 144 
Q 228 347 228 678 
Q 228 888 322 1041 
Q 450 1253 767 1440 
Q 1084 1628 1822 1897 
L 1822 2009 
Q 1822 2438 1686 2597 
Q 1550 2756 1291 2756 
Q 1094 2756 978 2650 
Q 859 2544 859 2406 
L 866 2225 
Q 866 2081 792 2003 
Q 719 1925 600 1925 
Q 484 1925 411 2006 
Q 338 2088 338 2228 
Q 338 2497 613 2722 
Q 888 2947 1384 2947 
Q 1766 2947 2009 2819 
Q 2194 2722 2281 2516 
Q 2338 2381 2338 1966 
L 2338 994 
Q 2338 584 2353 492 
Q 2369 400 2405 369 
Q 2441 338 2488 338 
Q 2538 338 2575 359 
Q 2641 400 2828 588 
L 2828 413 
Q 2478 -56 2159 -56 
Q 2006 -56 1915 50 
Q 1825 156 1822 413 
z
M 1822 616 
L 1822 1706 
Q 1350 1519 1213 1441 
Q 966 1303 859 1153 
Q 753 1003 753 825 
Q 753 600 887 451 
Q 1022 303 1197 303 
Q 1434 303 1822 616 
z
" id="TimesNewRomanPSMT-61" transform="scale(0.015625)"/>
       <path d="M 1031 3803 
L 1031 2863 
L 1700 2863 
L 1700 2644 
L 1031 2644 
L 1031 788 
Q 1031 509 1111 412 
Q 1191 316 1316 316 
Q 1419 316 1516 380 
Q 1613 444 1666 569 
L 1788 569 
Q 1678 263 1478 108 
Q 1278 -47 1066 -47 
Q 922 -47 784 33 
Q 647 113 581 261 
Q 516 409 516 719 
L 516 2644 
L 63 2644 
L 63 2747 
Q 234 2816 414 2980 
Q 594 3144 734 3369 
Q 806 3488 934 3803 
L 1031 3803 
z
" id="TimesNewRomanPSMT-74" transform="scale(0.015625)"/>
       <path d="M 966 1044 
Q 703 1172 562 1401 
Q 422 1631 422 1909 
Q 422 2334 742 2640 
Q 1063 2947 1563 2947 
Q 1972 2947 2272 2747 
L 2878 2747 
Q 3013 2747 3034 2739 
Q 3056 2731 3066 2713 
Q 3084 2684 3084 2613 
Q 3084 2531 3069 2500 
Q 3059 2484 3036 2475 
Q 3013 2466 2878 2466 
L 2506 2466 
Q 2681 2241 2681 1891 
Q 2681 1491 2375 1206 
Q 2069 922 1553 922 
Q 1341 922 1119 984 
Q 981 866 932 777 
Q 884 688 884 625 
Q 884 572 936 522 
Q 988 472 1138 450 
Q 1225 438 1575 428 
Q 2219 413 2409 384 
Q 2700 344 2873 169 
Q 3047 -6 3047 -263 
Q 3047 -616 2716 -925 
Q 2228 -1381 1444 -1381 
Q 841 -1381 425 -1109 
Q 191 -953 191 -784 
Q 191 -709 225 -634 
Q 278 -519 444 -313 
Q 466 -284 763 25 
Q 600 122 533 198 
Q 466 275 466 372 
Q 466 481 555 628 
Q 644 775 966 1044 
z
M 1509 2797 
Q 1278 2797 1122 2612 
Q 966 2428 966 2047 
Q 966 1553 1178 1281 
Q 1341 1075 1591 1075 
Q 1828 1075 1981 1253 
Q 2134 1431 2134 1813 
Q 2134 2309 1919 2591 
Q 1759 2797 1509 2797 
z
M 934 0 
Q 788 -159 713 -296 
Q 638 -434 638 -550 
Q 638 -700 819 -813 
Q 1131 -1006 1722 -1006 
Q 2284 -1006 2551 -807 
Q 2819 -609 2819 -384 
Q 2819 -222 2659 -153 
Q 2497 -84 2016 -72 
Q 1313 -53 934 0 
z
" id="TimesNewRomanPSMT-67" transform="scale(0.015625)"/>
      </defs>
      <use xlink:href="#TimesNewRomanPSMT-56"/>
      <use x="59.341797" xlink:href="#TimesNewRomanPSMT-6f"/>
      <use x="109.341797" xlink:href="#TimesNewRomanPSMT-6c"/>
      <use x="137.125" xlink:href="#TimesNewRomanPSMT-61"/>
      <use x="181.509766" xlink:href="#TimesNewRomanPSMT-74"/>
      <use x="209.292969" xlink:href="#TimesNewRomanPSMT-61"/>
      <use x="253.677734" xlink:href="#TimesNewRomanPSMT-67"/>
      <use x="303.677734" xlink:href="#TimesNewRomanPSMT-65"/>
      <use x="348.0625" xlink:href="#TimesNewRomanPSMT-20"/>
      <use x="373.0625" xlink:href="#TimesNewRomanPSMT-28"/>
      <use x="406.363281" xlink:href="#TimesNewRomanPSMT-56"/>
      <use x="478.580078" xlink:href="#TimesNewRomanPSMT-29"/>
     </g>
    </g>
   </g>
   <g id="LineCollection_1">
    <path clip-path="url(#p237cd8b322)" d="M 78.555057 154.209024 
L 382.918693 154.209024 
" style="fill:none;stroke:#1f77b4;stroke-width:1.5;"/>
   </g>
   <g id="line2d_25">
    <path clip-path="url(#p237cd8b322)" d="M 78.555057 154.211558 
L 78.61593 154.137035 
L 78.676802 154.174297 
L 81.933493 154.211558 
L 82.024802 154.286081 
L 82.055239 154.24882 
L 101.686693 154.286081 
L 101.71713 154.360604 
L 101.778002 154.323343 
L 101.930184 154.286081 
L 102.05193 154.323343 
L 102.173675 154.286081 
L 104.943384 154.211558 
L 105.06513 154.174297 
L 105.186875 154.211558 
L 105.278184 154.24882 
L 105.30862 154.211558 
L 110.75673 154.286081 
L 110.908911 154.323343 
L 111.00022 154.286081 
L 111.030657 154.323343 
L 111.882875 154.360604 
L 112.00462 154.397865 
L 112.156802 154.435127 
L 112.948148 154.50965 
L 113.10033 154.546911 
L 113.130766 154.472388 
L 113.191639 154.546911 
L 113.648184 154.621434 
L 113.800366 154.658696 
L 114.34822 154.658696 
L 114.469966 154.77048 
L 114.896075 154.845003 
L 115.048257 154.882264 
L 115.413493 154.956787 
L 115.565675 154.994049 
L 115.930911 155.068572 
L 116.11353 155.143095 
L 116.509202 155.217618 
L 116.661384 155.254879 
L 117.239675 155.329402 
L 117.422293 155.403925 
L 117.544039 155.366663 
L 117.726657 155.441186 
L 117.878839 155.366663 
L 118.000584 155.441186 
L 118.548439 155.515709 
L 118.670184 155.590232 
L 118.70062 155.552971 
L 119.248475 155.627494 
L 119.400657 155.664755 
L 119.79633 155.739278 
L 119.918075 155.776539 
L 120.009384 155.776539 
L 120.070257 155.888324 
L 120.13113 155.813801 
L 120.283311 155.925585 
L 120.313748 155.888324 
L 120.344184 155.851062 
L 120.405057 155.925585 
L 120.587675 156.000108 
L 120.739857 156.074631 
L 120.952911 156.186416 
L 121.13553 156.260939 
L 121.500766 156.55903 
L 121.531202 156.521769 
L 121.592075 156.596292 
L 123.174766 158.682933 
L 123.600875 159.465424 
L 123.783493 159.800777 
L 124.026984 160.322438 
L 124.14873 160.620529 
L 125.305311 163.675969 
L 125.609675 164.71929 
L 125.670548 164.868336 
L 126.035784 166.135225 
L 127.40542 171.575398 
L 127.83153 173.512995 
L 128.40982 176.046774 
L 128.866366 178.170677 
L 129.41422 180.592672 
L 130.296875 184.467866 
L 130.357748 184.691433 
L 132.244802 191.212189 
L 132.457857 191.622065 
L 132.883966 192.404555 
L 133.370948 192.888954 
L 133.52313 192.851693 
L 134.223166 192.814432 
L 134.344911 192.739909 
L 134.52753 192.702647 
L 134.710148 192.51634 
L 134.801457 192.441817 
L 135.623239 191.286712 
L 136.231966 189.572684 
L 138.149457 179.661136 
L 138.940802 174.183702 
L 140.645239 158.682933 
L 144.967202 104.467508 
L 146.336839 85.874039 
L 146.976002 77.639256 
L 148.284766 61.467779 
L 149.958766 44.178458 
L 150.324002 41.27207 
L 150.993602 36.428077 
L 152.363239 30.242681 
L 152.819784 28.938524 
L 153.032839 28.528648 
L 153.306766 28.081513 
L 153.428511 28.006987 
L 153.61113 27.932464 
L 153.885057 27.932464 
L 154.037239 28.156036 
L 154.128548 28.230562 
L 154.311166 28.603171 
L 154.95033 30.354462 
L 155.315566 31.919447 
L 155.95473 35.533808 
L 157.96353 53.568349 
L 159.607093 77.080337 
L 162.89422 139.418758 
L 168.372766 257.72389 
L 169.498911 277.733295 
L 171.507711 305.642129 
L 172.116439 311.827538 
L 173.120839 319.577918 
L 173.820875 322.484318 
L 174.399166 324.19834 
L 174.61222 324.496437 
L 174.733966 324.570963 
L 174.94702 324.682742 
L 175.03833 324.682742 
L 175.160075 324.72 
L 175.28182 324.645474 
L 175.312257 324.682742 
L 175.403566 324.72 
L 175.434002 324.682742 
L 175.525311 324.645474 
L 175.70793 324.45917 
L 175.95142 324.012035 
L 176.316657 322.856927 
L 177.321057 318.795431 
L 178.416766 311.417661 
L 178.903748 307.020812 
L 179.603784 300.090174 
L 181.095166 282.540032 
L 182.06913 268.79055 
L 182.556111 261.487301 
L 184.047493 236.037726 
L 186.725893 188.864717 
L 189.921711 135.990703 
L 192.478366 99.996133 
L 194.182802 82.371465 
L 196.617711 62.436577 
L 197.622111 55.804043 
L 197.71342 55.356897 
L 198.535202 51.854328 
L 198.687384 51.220877 
L 199.204802 49.208758 
L 199.783093 47.494734 
L 199.996148 46.712247 
L 200.574439 44.960958 
L 200.81793 44.513811 
L 201.548402 42.986095 
L 201.639711 42.911569 
L 201.82233 42.725264 
L 202.004948 42.650741 
L 202.49193 42.576215 
L 202.704984 42.389911 
L 202.73542 42.464437 
L 202.796293 42.427179 
L 202.978911 42.352656 
L 203.100657 42.389911 
L 203.252839 42.464437 
L 203.587639 42.725264 
L 203.73982 42.762532 
L 203.892002 42.874313 
L 204.013748 42.874313 
L 204.16593 42.986095 
L 204.196366 42.948839 
L 204.318111 43.023362 
L 204.652911 43.582278 
L 204.683348 43.582278 
L 204.957275 44.252984 
L 204.987711 44.252984 
L 205.231202 44.737383 
L 206.905202 49.096977 
L 209.492293 59.008526 
L 210.679311 64.336918 
L 210.922802 65.193928 
L 211.501093 67.727707 
L 212.170693 70.485056 
L 212.657675 72.683482 
L 213.388148 76.521409 
L 213.753384 78.272701 
L 216.310039 94.593218 
L 216.979639 99.437214 
L 217.953602 106.069748 
L 218.927566 113.484781 
L 219.323239 116.577483 
L 220.175457 123.619899 
L 220.662439 127.793182 
L 222.306002 142.809551 
L 224.040875 160.88136 
L 227.145384 196.279747 
L 229.245493 223.107996 
L 230.462948 237.714492 
L 231.376039 247.588779 
L 234.145748 273.634543 
L 234.997966 279.111975 
L 236.184984 284.403105 
L 236.763275 285.558214 
L 237.189384 285.930822 
L 237.341566 285.893567 
L 237.706802 285.260116 
L 237.950293 284.812981 
L 238.924257 282.167412 
L 239.289493 280.565169 
L 239.806911 278.292223 
L 241.511348 264.952614 
L 242.089639 259.177096 
L 242.941857 249.824473 
L 243.550584 243.117401 
L 245.92462 212.712052 
L 248.207348 177.611756 
L 249.120439 163.825015 
L 251.433602 131.444806 
L 253.655457 108.156393 
L 254.690293 100.219701 
L 254.994657 98.244844 
L 255.603384 94.593218 
L 256.820839 89.153047 
L 257.946984 86.619271 
L 258.038293 86.544745 
L 259.468802 84.942505 
L 259.499239 84.979767 
L 259.560111 84.905241 
L 259.681857 84.830718 
L 260.138402 84.420839 
L 260.290584 84.346322 
L 260.41233 84.309061 
L 260.503639 84.309061 
L 260.65582 84.271796 
L 261.41673 84.346322 
L 261.75153 84.607152 
L 261.873275 84.644414 
L 262.08633 84.905241 
L 262.147202 84.979767 
L 263.303784 86.507484 
L 263.547275 86.99188 
L 263.912511 87.662586 
L 263.942948 87.662586 
L 264.186439 88.184249 
L 264.42993 88.631384 
L 266.195239 93.214544 
L 266.530039 94.332391 
L 268.295348 101.188499 
L 268.78233 103.49871 
L 269.269311 105.697133 
L 271.065057 114.97524 
L 271.70422 118.850432 
L 274.686984 136.437842 
L 275.021784 138.077346 
L 276.48273 144.709886 
L 276.634911 145.306069 
L 277.304511 148.063417 
L 279.648111 156.260939 
L 281.565602 160.695052 
L 282.08302 161.477543 
L 282.41782 162.036465 
L 283.117857 162.818955 
L 283.148293 162.781694 
L 283.270039 162.818955 
L 283.42222 162.93074 
L 283.665711 163.079786 
L 283.84833 163.117047 
L 283.970075 163.19157 
L 284.42662 163.117047 
L 284.609239 163.042524 
L 284.76142 162.968002 
L 284.944039 162.893478 
L 285.065784 162.818955 
L 286.19193 161.328497 
L 286.43542 160.844098 
L 289.174693 154.360604 
L 289.235566 154.323343 
L 289.44862 153.950728 
L 289.509493 153.876205 
L 289.966039 153.019191 
L 289.996475 153.019191 
L 290.20953 152.646577 
L 290.331275 152.572054 
L 290.513893 152.385747 
L 290.78782 152.348485 
L 290.940002 152.236701 
L 291.153057 152.162178 
L 291.305239 152.087655 
L 291.45742 152.199439 
L 291.487857 152.162178 
L 291.54873 152.236701 
L 292.705311 153.801682 
L 293.953202 157.117952 
L 295.353275 162.66991 
L 297.392511 173.14038 
L 297.81862 175.450591 
L 299.005639 182.045868 
L 300.010039 187.448781 
L 300.375275 189.349116 
L 302.901493 201.19826 
L 303.814584 204.961668 
L 304.240693 206.563911 
L 304.575493 207.644496 
L 304.971166 208.687811 
L 306.158184 211.333375 
L 306.249493 211.407901 
L 306.94953 212.115868 
L 307.071275 212.078607 
L 307.162584 212.115868 
L 307.19302 212.078607 
L 307.375639 212.004081 
L 307.52782 211.855038 
L 307.771311 211.780515 
L 307.95393 211.705992 
L 307.984366 211.743254 
L 308.045239 211.668728 
L 308.166984 211.594211 
L 308.62353 210.88624 
L 309.019202 210.178272 
L 309.080075 210.103749 
L 309.29313 209.69387 
L 309.901857 207.979849 
L 310.267093 206.712953 
L 311.088875 203.322164 
L 313.097675 190.355175 
L 315.136911 174.556316 
L 317.389202 156.186416 
L 320.798075 131.966467 
L 322.25902 123.694422 
L 322.472075 122.539316 
L 323.628657 116.130345 
L 324.511311 111.286355 
L 325.27222 107.26212 
L 325.850511 104.728335 
L 326.459239 102.269082 
L 327.585384 98.542936 
L 327.70713 98.244844 
L 327.981057 97.425095 
L 328.407166 96.269987 
L 329.137639 94.705005 
L 329.168075 94.705005 
L 329.350693 94.406913 
L 329.868111 93.922511 
L 329.898548 93.922511 
L 330.020293 93.736207 
L 330.05073 93.810733 
L 330.111602 93.773469 
L 330.355093 93.624423 
L 330.476839 93.661684 
L 330.598584 93.624423 
L 330.750766 93.661684 
L 331.176875 93.736207 
L 331.329057 93.773469 
L 331.450802 93.773469 
L 331.63342 93.847995 
L 331.816039 93.922511 
L 331.846475 93.88525 
L 331.907348 93.959776 
L 332.029093 94.034299 
L 332.333457 94.257865 
L 332.455202 94.332391 
L 332.63782 94.518701 
L 332.759566 94.593218 
L 333.550911 95.711065 
L 333.794402 96.195461 
L 334.98142 99.362688 
L 335.559711 101.076718 
L 335.98582 102.380869 
L 338.146802 110.690172 
L 338.451166 112.217892 
L 338.572911 112.776814 
L 338.938148 114.528102 
L 339.546875 117.583542 
L 339.851239 119.074001 
L 340.368657 121.645041 
L 340.490402 122.203963 
L 340.855639 123.955252 
L 349.71262 166.805932 
L 352.117093 175.227022 
L 352.938875 176.97831 
L 353.091057 177.276403 
L 353.334548 177.798062 
L 353.39542 177.835324 
L 353.608475 178.2452 
L 353.973711 178.841384 
L 354.278075 179.363045 
L 354.308511 179.363045 
L 354.552002 179.847444 
L 355.008548 180.55541 
L 355.40422 181.263378 
L 355.73902 181.822302 
L 356.16513 182.642054 
L 356.195566 182.642054 
L 356.439057 183.163715 
L 356.712984 183.648113 
L 357.230402 184.65417 
L 357.443457 185.064048 
L 357.930439 185.995584 
L 358.326111 186.591768 
L 358.539166 187.001644 
L 358.600039 187.076167 
L 358.965275 187.67235 
L 359.269639 188.156749 
L 359.969675 189.162808 
L 360.18273 189.535423 
L 360.243602 189.609946 
L 360.700148 190.057083 
L 360.730584 190.019822 
L 360.791457 190.094345 
L 360.85233 190.094345 
L 361.004511 190.243391 
L 361.339311 190.504221 
L 361.582802 190.541482 
L 361.613239 190.653267 
L 361.704548 190.578744 
L 361.85673 190.616005 
L 362.708948 190.541482 
L 362.891566 190.429698 
L 362.982875 190.46696 
L 363.013311 190.429698 
L 363.348111 190.131606 
L 363.43942 190.131606 
L 363.77422 189.870776 
L 363.895966 189.796253 
L 364.048148 189.647207 
L 364.10902 189.572684 
L 364.596002 189.125547 
L 364.748184 189.051024 
L 364.930802 188.827455 
L 365.022111 188.827455 
L 365.174293 188.715671 
L 365.509093 188.454841 
L 365.630839 188.380318 
L 365.965639 188.119488 
L 365.996075 188.119488 
L 366.148257 187.93318 
L 366.239566 187.858657 
L 366.635239 187.523304 
L 366.665675 187.560566 
L 366.696111 187.486043 
L 366.970039 187.299735 
L 367.091784 187.225212 
L 367.45702 186.927121 
L 367.517893 186.889859 
L 367.670075 186.740813 
L 367.822257 186.666291 
L 368.004875 186.517245 
L 368.035311 186.591768 
L 368.096184 186.517245 
L 368.309239 186.442722 
L 368.644039 186.181892 
L 368.79622 186.107369 
L 369.100584 185.8838 
L 369.161457 185.846538 
L 369.283202 185.809277 
L 369.496257 185.697493 
L 369.526693 185.734754 
L 369.587566 185.660231 
L 369.709311 185.62297 
L 369.89193 185.436662 
L 369.983239 185.436662 
L 370.378911 185.064048 
L 370.409348 185.10131 
L 370.439784 185.026786 
L 370.744148 184.765957 
L 370.80502 184.803219 
L 370.835457 184.728695 
L 370.926766 184.691433 
L 371.13982 184.393341 
L 371.23113 184.318817 
L 371.718111 183.87168 
L 371.80942 183.797159 
L 372.113784 183.573589 
L 372.174657 183.536327 
L 372.357275 183.31276 
L 372.448584 183.238236 
L 372.90513 182.828361 
L 373.026875 182.753837 
L 373.544293 182.269438 
L 373.57473 182.269438 
L 373.757348 182.008609 
L 374.761748 180.629934 
L 374.944366 180.369105 
L 375.15742 179.99649 
L 375.370475 179.474829 
L 375.58353 179.064954 
L 376.192257 177.835324 
L 376.314002 177.574494 
L 376.679239 176.642958 
L 376.770548 176.382128 
L 377.135784 175.41333 
L 377.227093 175.227022 
L 377.440148 174.705361 
L 378.17062 172.655981 
L 378.414111 171.948014 
L 378.992402 170.271247 
L 379.357639 169.004358 
L 379.60113 168.147344 
L 381.549057 160.620529 
L 381.94473 158.869241 
L 382.918693 154.435127 
L 382.918693 154.435127 
" style="fill:none;stroke:#0000ff;stroke-linecap:square;stroke-width:1.5;"/>
   </g>
   <g id="line2d_26">
    <path clip-path="url(#p237cd8b322)" d="M 78.555057 154.206938 
L 78.737675 154.206938 
L 93.134075 154.113784 
L 93.316693 154.095153 
L 93.468875 154.095153 
L 93.68193 154.076523 
L 100.469239 154.169676 
L 101.04753 154.411876 
L 101.230148 154.505029 
L 101.62582 154.821752 
L 101.747566 154.914905 
L 103.117202 156.759348 
L 105.004257 161.640599 
L 106.800002 168.645754 
L 107.256548 170.60198 
L 107.560911 171.8875 
L 110.33062 183.270878 
L 111.517639 186.549886 
L 111.974184 187.406899 
L 112.33942 188.021713 
L 112.613348 188.431589 
L 113.039457 188.785573 
L 113.374257 188.878727 
L 113.648184 188.822835 
L 113.891675 188.729681 
L 114.409093 188.301174 
L 114.743893 187.723622 
L 115.139566 186.792085 
L 116.417893 182.562909 
L 117.878839 174.868417 
L 120.37462 157.3369 
L 122.322548 140.960489 
L 124.422657 122.702373 
L 126.431457 108.766586 
L 127.527166 102.860648 
L 128.379384 98.761884 
L 129.50553 94.420924 
L 129.962075 93.377603 
L 131.057784 91.58905 
L 131.301275 91.440007 
L 131.483893 91.346856 
L 131.75782 91.067392 
L 132.18393 90.378058 
L 132.457857 89.986807 
L 132.883966 89.837764 
L 133.370948 89.763241 
L 133.584002 89.651454 
L 134.223166 89.744613 
L 134.984075 90.098594 
L 135.684111 90.191748 
L 135.958039 90.471209 
L 136.353711 90.806562 
L 136.718948 90.899716 
L 137.20593 91.309592 
L 138.54513 93.936522 
L 140.401748 102.376246 
L 142.684475 115.566803 
L 144.388911 128.906405 
L 145.728111 139.432768 
L 147.128184 151.412328 
L 149.350039 172.129701 
L 150.202257 179.78693 
L 151.328402 189.735741 
L 151.815384 193.759978 
L 153.337202 205.012943 
L 154.128548 209.633364 
L 155.346002 215.092162 
L 156.076475 216.973869 
L 156.62433 218.035817 
L 157.080875 218.427065 
L 157.689602 218.687896 
L 158.054839 218.613373 
L 158.87662 217.439637 
L 160.21582 214.775442 
L 161.64633 210.061868 
L 163.137711 203.187128 
L 164.355166 195.865251 
L 168.403202 169.335091 
L 169.133675 165.907036 
L 169.803275 163.522303 
L 170.746802 160.988524 
L 171.112039 160.541386 
L 171.507711 160.206033 
L 171.751202 159.982464 
L 171.994693 159.833418 
L 172.299057 159.926572 
L 173.455639 161.491554 
L 174.794839 165.031392 
L 175.586184 168.347663 
L 177.016693 175.893109 
L 178.355893 184.724074 
L 179.268984 191.114415 
L 180.364693 197.765585 
L 181.795202 205.03157 
L 183.682257 212.651536 
L 184.290984 213.862537 
L 184.930148 214.477351 
L 185.630184 213.937059 
L 185.904111 213.471291 
L 186.75633 210.546267 
L 187.852039 204.677589 
L 189.130366 195.32496 
L 189.952148 187.947191 
L 191.078293 175.110617 
L 197.317748 100.028774 
L 200.909239 65.897275 
L 201.82233 59.506935 
L 203.131093 52.874392 
L 204.439857 48.440275 
L 204.865966 47.862728 
L 205.322511 47.695055 
L 205.626875 47.974507 
L 206.448657 50.26609 
L 208.548766 58.389094 
L 210.588002 70.238239 
L 212.322875 82.664933 
L 214.362111 98.016652 
L 216.249166 112.69767 
L 217.284002 121.211914 
L 221.271166 149.698301 
L 223.706075 163.95081 
L 224.527857 168.515339 
L 225.59313 174.365388 
L 227.571493 183.513076 
L 229.093311 189.549433 
L 230.128148 192.977488 
L 230.402075 193.704086 
L 231.345602 196.237866 
L 231.680402 197.076248 
L 232.19782 198.566707 
L 236.702402 211.999463 
L 238.406839 214.905857 
L 238.802511 215.222583 
L 239.198184 215.352998 
L 241.146111 215.446149 
L 241.298293 215.464779 
L 241.511348 215.483413 
L 243.398402 215.576564 
L 243.91582 216.005071 
L 244.220184 216.359057 
L 244.433239 216.601251 
L 244.92022 217.365111 
L 247.720366 222.730764 
L 248.572584 224.537945 
L 250.490075 227.835587 
L 250.916184 228.524921 
L 251.70753 229.75455 
L 252.28582 230.294841 
L 252.62062 230.406628 
L 252.803239 230.406628 
L 253.138039 230.313469 
L 253.898948 229.549609 
L 254.081566 229.326043 
L 254.62942 228.48766 
L 255.025093 227.53749 
L 256.120802 223.885872 
L 258.251348 211.552326 
L 259.468802 201.025963 
L 260.960184 184.351459 
L 262.512439 162.982012 
L 263.882075 141.277211 
L 268.477966 67.108273 
L 269.604111 52.110538 
L 270.69982 40.596747 
L 271.643348 32.939513 
L 272.434693 27.927847 
L 272.982548 25.468593 
L 274.04782 22.562194 
L 274.352184 22.32 
L 274.991348 22.804402 
L 275.326148 23.344681 
L 275.691384 24.220326 
L 276.574039 27.853324 
L 277.426257 32.529634 
L 278.461093 40.224126 
L 279.252439 47.378326 
L 282.326511 80.503771 
L 286.344111 128.328854 
L 291.12262 179.805561 
L 293.405348 199.777704 
L 294.622802 207.956598 
L 295.201093 211.310123 
L 295.931566 215.110795 
L 296.509857 218.073079 
L 297.757748 223.680934 
L 297.970802 224.463419 
L 298.549093 226.45691 
L 299.431748 228.823013 
L 300.58833 230.741981 
L 301.440548 231.151851 
L 301.714475 231.077334 
L 301.866657 231.077334 
L 302.718875 230.462517 
L 303.26673 229.25152 
L 303.905893 226.997204 
L 305.762511 216.154119 
L 306.61473 210.266809 
L 307.923493 200.709241 
L 311.180184 177.607135 
L 313.402039 163.373257 
L 313.98033 159.62848 
L 315.22822 151.952619 
L 316.415239 146.028047 
L 318.33273 138.296294 
L 318.850148 136.805835 
L 319.976293 133.694503 
L 320.463275 132.595291 
L 321.193748 130.694955 
L 322.563384 128.403375 
L 324.02433 126.447148 
L 325.667893 123.205402 
L 326.124439 122.162081 
L 328.894148 115.101035 
L 330.842075 109.474554 
L 331.05513 108.897001 
L 331.420366 107.946837 
L 332.759566 104.947286 
L 334.372693 102.208569 
L 335.65102 101.537863 
L 336.168439 101.631013 
L 336.381493 101.649647 
L 336.929348 101.742801 
L 338.08593 102.543922 
L 338.512039 103.102841 
L 338.633784 103.25189 
L 339.151202 104.239316 
L 339.607748 105.264009 
L 339.942548 106.121022 
L 340.186039 106.791729 
L 340.551275 107.946837 
L 341.951348 113.480161 
L 344.35582 125.795073 
L 345.208039 131.663754 
L 348.37342 155.734658 
L 352.330148 186.363578 
L 355.556402 207.341781 
L 356.712984 213.098677 
L 357.16953 214.79407 
L 357.83913 216.862087 
L 359.117457 219.712583 
L 359.787057 220.010675 
L 359.908802 219.936158 
L 360.243602 219.693955 
L 360.51753 219.414494 
L 360.913202 218.725157 
L 361.126257 218.296653 
L 362.617639 214.365566 
L 364.596002 205.404185 
L 366.909166 190.574123 
L 368.978839 173.228913 
L 374.183457 123.298556 
L 376.009639 109.642231 
L 377.805384 98.296116 
L 378.535857 94.476816 
L 379.114148 91.980298 
L 379.479384 90.545735 
L 381.18382 85.664477 
L 381.51862 85.086928 
L 382.005602 84.397588 
L 382.309966 84.099499 
L 382.52302 83.93182 
L 382.796948 83.745515 
L 382.918693 83.708254 
L 382.918693 83.708254 
" style="fill:none;stroke:#ff0000;stroke-linecap:square;stroke-width:1.5;"/>
   </g>
   <g id="line2d_27">
    <path clip-path="url(#p237cd8b322)" d="M 125.000948 162.781694 
" style="fill:none;stroke:#ffffff;stroke-linecap:square;stroke-width:1.5;"/>
    <defs>
     <path d="M 0 -5 
L -1.12257 -1.545085 
L -4.755283 -1.545085 
L -1.816356 0.59017 
L -2.938926 4.045085 
L -0 1.90983 
L 2.938926 4.045085 
L 1.816356 0.59017 
L 4.755283 -1.545085 
L 1.12257 -1.545085 
z
" id="m9febfdb12a" style="stroke:#ffffff;stroke-linejoin:bevel;"/>
    </defs>
    <g clip-path="url(#p237cd8b322)">
     <use style="fill:#0000ff;stroke:#ffffff;stroke-linejoin:bevel;" x="125.000948" xlink:href="#m9febfdb12a" y="162.781694"/>
    </g>
   </g>
   <g id="line2d_28">
    <path clip-path="url(#p237cd8b322)" d="M 104.760766 160.839477 
" style="fill:none;stroke:#ffffff;stroke-linecap:square;stroke-width:1.5;"/>
    <defs>
     <path d="M 0 -5 
L -1.12257 -1.545085 
L -4.755283 -1.545085 
L -1.816356 0.59017 
L -2.938926 4.045085 
L -0 1.90983 
L 2.938926 4.045085 
L 1.816356 0.59017 
L 4.755283 -1.545085 
L 1.12257 -1.545085 
z
" id="m5f1ed98e55" style="stroke:#ffffff;stroke-linejoin:bevel;"/>
    </defs>
    <g clip-path="url(#p237cd8b322)">
     <use style="fill:#ff0000;stroke:#ffffff;stroke-linejoin:bevel;" x="104.760766" xlink:href="#m5f1ed98e55" y="160.839477"/>
    </g>
   </g>
   <g id="patch_3">
    <path d="M 63.336875 339.84 
L 63.336875 7.2 
" style="fill:none;stroke:#000000;stroke-linecap:square;stroke-linejoin:miter;stroke-width:0.8;"/>
   </g>
   <g id="patch_4">
    <path d="M 398.136875 339.84 
L 398.136875 7.2 
" style="fill:none;stroke:#000000;stroke-linecap:square;stroke-linejoin:miter;stroke-width:0.8;"/>
   </g>
   <g id="patch_5">
    <path d="M 63.336875 339.84 
L 398.136875 339.84 
" style="fill:none;stroke:#000000;stroke-linecap:square;stroke-linejoin:miter;stroke-width:0.8;"/>
   </g>
   <g id="patch_6">
    <path d="M 63.336875 7.2 
L 398.136875 7.2 
" style="fill:none;stroke:#000000;stroke-linecap:square;stroke-linejoin:miter;stroke-width:0.8;"/>
   </g>
   <g id="text_15">
    <g id="patch_7">
     <path d="M 75.036875 331.242688 
L 166.79375 331.242688 
L 166.79375 293.760312 
L 75.036875 293.760312 
z
" style="fill:#ffffff;stroke:#000000;stroke-linejoin:miter;stroke-width:0.75;"/>
    </g>
    <!-- Auto_00109 -->
    <g transform="translate(80.076875 308.521562)scale(0.14 -0.14)">
     <defs>
      <path d="M 2928 1419 
L 1288 1419 
L 1000 750 
Q 894 503 894 381 
Q 894 284 986 211 
Q 1078 138 1384 116 
L 1384 0 
L 50 0 
L 50 116 
Q 316 163 394 238 
Q 553 388 747 847 
L 2238 4334 
L 2347 4334 
L 3822 809 
Q 4000 384 4145 257 
Q 4291 131 4550 116 
L 4550 0 
L 2878 0 
L 2878 116 
Q 3131 128 3220 200 
Q 3309 272 3309 375 
Q 3309 513 3184 809 
L 2928 1419 
z
M 2841 1650 
L 2122 3363 
L 1384 1650 
L 2841 1650 
z
" id="TimesNewRomanPSMT-41" transform="scale(0.015625)"/>
      <path d="M 2709 2863 
L 2709 1128 
Q 2709 631 2732 520 
Q 2756 409 2807 365 
Q 2859 322 2928 322 
Q 3025 322 3147 375 
L 3191 266 
L 2334 -88 
L 2194 -88 
L 2194 519 
Q 1825 119 1631 15 
Q 1438 -88 1222 -88 
Q 981 -88 804 51 
Q 628 191 559 409 
Q 491 628 491 1028 
L 491 2306 
Q 491 2509 447 2587 
Q 403 2666 317 2708 
Q 231 2750 6 2747 
L 6 2863 
L 1009 2863 
L 1009 947 
Q 1009 547 1148 422 
Q 1288 297 1484 297 
Q 1619 297 1789 381 
Q 1959 466 2194 703 
L 2194 2325 
Q 2194 2569 2105 2655 
Q 2016 2741 1734 2747 
L 1734 2863 
L 2709 2863 
z
" id="TimesNewRomanPSMT-75" transform="scale(0.015625)"/>
      <path d="M 3256 -1381 
L -53 -1381 
L -53 -1119 
L 3256 -1119 
L 3256 -1381 
z
" id="TimesNewRomanPSMT-5f" transform="scale(0.015625)"/>
      <path d="M 338 -88 
L 338 28 
Q 744 34 1094 217 
Q 1444 400 1770 856 
Q 2097 1313 2225 1859 
Q 1734 1544 1338 1544 
Q 891 1544 572 1889 
Q 253 2234 253 2806 
Q 253 3363 572 3797 
Q 956 4325 1575 4325 
Q 2097 4325 2469 3894 
Q 2925 3359 2925 2575 
Q 2925 1869 2578 1258 
Q 2231 647 1613 244 
Q 1109 -88 516 -88 
L 338 -88 
z
M 2275 2091 
Q 2331 2497 2331 2741 
Q 2331 3044 2228 3395 
Q 2125 3747 1936 3934 
Q 1747 4122 1506 4122 
Q 1228 4122 1018 3872 
Q 809 3622 809 3128 
Q 809 2469 1088 2097 
Q 1291 1828 1588 1828 
Q 1731 1828 1928 1897 
Q 2125 1966 2275 2091 
z
" id="TimesNewRomanPSMT-39" transform="scale(0.015625)"/>
     </defs>
     <use xlink:href="#TimesNewRomanPSMT-41"/>
     <use x="72.216797" xlink:href="#TimesNewRomanPSMT-75"/>
     <use x="122.216797" xlink:href="#TimesNewRomanPSMT-74"/>
     <use x="150" xlink:href="#TimesNewRomanPSMT-6f"/>
     <use x="200" xlink:href="#TimesNewRomanPSMT-5f"/>
     <use x="250" xlink:href="#TimesNewRomanPSMT-30"/>
     <use x="300" xlink:href="#TimesNewRomanPSMT-30"/>
     <use x="350" xlink:href="#TimesNewRomanPSMT-31"/>
     <use x="400" xlink:href="#TimesNewRomanPSMT-30"/>
     <use x="450" xlink:href="#TimesNewRomanPSMT-39"/>
    </g>
    <!-- Vs: 300.59m/s -->
    <g transform="translate(80.076875 323.208)scale(0.14 -0.14)">
     <defs>
      <path d="M 903 2950 
Q 1047 2950 1148 2848 
Q 1250 2747 1250 2603 
Q 1250 2459 1148 2357 
Q 1047 2256 903 2256 
Q 759 2256 657 2357 
Q 556 2459 556 2603 
Q 556 2747 657 2848 
Q 759 2950 903 2950 
z
M 897 609 
Q 1044 609 1145 506 
Q 1247 403 1247 259 
Q 1247 116 1144 14 
Q 1041 -88 897 -88 
Q 753 -88 651 14 
Q 550 116 550 259 
Q 550 403 651 506 
Q 753 609 897 609 
z
" id="TimesNewRomanPSMT-3a" transform="scale(0.015625)"/>
      <path d="M 1794 4444 
L 259 -88 
L 9 -88 
L 1544 4444 
L 1794 4444 
z
" id="TimesNewRomanPSMT-2f" transform="scale(0.015625)"/>
     </defs>
     <use xlink:href="#TimesNewRomanPSMT-56"/>
     <use x="72.216797" xlink:href="#TimesNewRomanPSMT-73"/>
     <use x="111.132812" xlink:href="#TimesNewRomanPSMT-3a"/>
     <use x="138.916016" xlink:href="#TimesNewRomanPSMT-20"/>
     <use x="163.916016" xlink:href="#TimesNewRomanPSMT-33"/>
     <use x="213.916016" xlink:href="#TimesNewRomanPSMT-30"/>
     <use x="263.916016" xlink:href="#TimesNewRomanPSMT-30"/>
     <use x="313.916016" xlink:href="#TimesNewRomanPSMT-2e"/>
     <use x="338.916016" xlink:href="#TimesNewRomanPSMT-35"/>
     <use x="388.916016" xlink:href="#TimesNewRomanPSMT-39"/>
     <use x="438.916016" xlink:href="#TimesNewRomanPSMT-6d"/>
     <use x="516.699219" xlink:href="#TimesNewRomanPSMT-2f"/>
     <use x="544.482422" xlink:href="#TimesNewRomanPSMT-73"/>
    </g>
   </g>
  </g>
 </g>
 <defs>
  <clipPath id="p237cd8b322">
   <rect height="332.64" width="334.8" x="63.336875" y="7.2"/>
  </clipPath>
 </defs>
</svg>
