<?xml version="1.0" encoding="utf-8" standalone="no"?>
<!DOCTYPE svg PUBLIC "-//W3C//DTD SVG 1.1//EN"
  "http://www.w3.org/Graphics/SVG/1.1/DTD/svg11.dtd">
<svg height="384.89847pt" version="1.1" viewBox="0 0 421.086875 384.89847" width="421.086875pt" xmlns="http://www.w3.org/2000/svg" xmlns:xlink="http://www.w3.org/1999/xlink">
 <metadata>
  <rdf:RDF xmlns:cc="http://creativecommons.org/ns#" xmlns:dc="http://purl.org/dc/elements/1.1/" xmlns:rdf="http://www.w3.org/1999/02/22-rdf-syntax-ns#">
   <cc:Work>
    <dc:type rdf:resource="http://purl.org/dc/dcmitype/StillImage"/>
    <dc:date>2021-06-11T14:39:39.625120</dc:date>
    <dc:format>image/svg+xml</dc:format>
    <dc:creator>
     <cc:Agent>
      <dc:title>Matplotlib v3.4.2, https://matplotlib.org/</dc:title>
     </cc:Agent>
    </dc:creator>
   </cc:Work>
  </rdf:RDF>
 </metadata>
 <defs>
  <style type="text/css">*{stroke-linecap:butt;stroke-linejoin:round;}</style>
 </defs>
 <g id="figure_1">
  <g id="patch_1">
   <path d="M 0 384.89847 
L 421.086875 384.89847 
L 421.086875 0 
L 0 0 
z
" style="fill:#ffffff;"/>
  </g>
  <g id="axes_1">
   <g id="patch_2">
    <path d="M 63.336875 341.266595 
L 398.136875 341.266595 
L 398.136875 8.626595 
L 63.336875 8.626595 
z
" style="fill:#ffffff;"/>
   </g>
   <g id="matplotlib.axis_1">
    <g id="xtick_1">
     <g id="line2d_1">
      <path clip-path="url(#p6cb83f4dd4)" d="M 93.773239 341.266595 
L 93.773239 8.626595 
" style="fill:none;stroke:#000000;stroke-dasharray:0.5,0.825;stroke-dashoffset:0;stroke-width:0.5;"/>
     </g>
     <g id="line2d_2">
      <defs>
       <path d="M 0 0 
L 0 3.5 
" id="m2e208158cc" style="stroke:#000000;stroke-width:0.8;"/>
      </defs>
      <g>
       <use style="stroke:#000000;stroke-width:0.8;" x="93.773239" xlink:href="#m2e208158cc" y="341.266595"/>
      </g>
     </g>
     <g id="text_1">
      <!-- 0.000 -->
      <g transform="translate(78.023239 357.987845)scale(0.14 -0.14)">
       <defs>
        <path d="M 231 2094 
Q 231 2819 450 3342 
Q 669 3866 1031 4122 
Q 1313 4325 1613 4325 
Q 2100 4325 2488 3828 
Q 2972 3213 2972 2159 
Q 2972 1422 2759 906 
Q 2547 391 2217 158 
Q 1888 -75 1581 -75 
Q 975 -75 572 641 
Q 231 1244 231 2094 
z
M 844 2016 
Q 844 1141 1059 588 
Q 1238 122 1591 122 
Q 1759 122 1940 273 
Q 2122 425 2216 781 
Q 2359 1319 2359 2297 
Q 2359 3022 2209 3506 
Q 2097 3866 1919 4016 
Q 1791 4119 1609 4119 
Q 1397 4119 1231 3928 
Q 1006 3669 925 3112 
Q 844 2556 844 2016 
z
" id="TimesNewRomanPSMT-30" transform="scale(0.015625)"/>
        <path d="M 800 606 
Q 947 606 1047 504 
Q 1147 403 1147 259 
Q 1147 116 1045 14 
Q 944 -88 800 -88 
Q 656 -88 554 14 
Q 453 116 453 259 
Q 453 406 554 506 
Q 656 606 800 606 
z
" id="TimesNewRomanPSMT-2e" transform="scale(0.015625)"/>
       </defs>
       <use xlink:href="#TimesNewRomanPSMT-30"/>
       <use x="50" xlink:href="#TimesNewRomanPSMT-2e"/>
       <use x="75" xlink:href="#TimesNewRomanPSMT-30"/>
       <use x="125" xlink:href="#TimesNewRomanPSMT-30"/>
       <use x="175" xlink:href="#TimesNewRomanPSMT-30"/>
      </g>
     </g>
    </g>
    <g id="xtick_2">
     <g id="line2d_3">
      <path clip-path="url(#p6cb83f4dd4)" d="M 154.645966 341.266595 
L 154.645966 8.626595 
" style="fill:none;stroke:#000000;stroke-dasharray:0.5,0.825;stroke-dashoffset:0;stroke-width:0.5;"/>
     </g>
     <g id="line2d_4">
      <g>
       <use style="stroke:#000000;stroke-width:0.8;" x="154.645966" xlink:href="#m2e208158cc" y="341.266595"/>
      </g>
     </g>
     <g id="text_2">
      <!-- 0.001 -->
      <g transform="translate(138.895966 357.987845)scale(0.14 -0.14)">
       <defs>
        <path d="M 750 3822 
L 1781 4325 
L 1884 4325 
L 1884 747 
Q 1884 391 1914 303 
Q 1944 216 2037 169 
Q 2131 122 2419 116 
L 2419 0 
L 825 0 
L 825 116 
Q 1125 122 1212 167 
Q 1300 213 1334 289 
Q 1369 366 1369 747 
L 1369 3034 
Q 1369 3497 1338 3628 
Q 1316 3728 1258 3775 
Q 1200 3822 1119 3822 
Q 1003 3822 797 3725 
L 750 3822 
z
" id="TimesNewRomanPSMT-31" transform="scale(0.015625)"/>
       </defs>
       <use xlink:href="#TimesNewRomanPSMT-30"/>
       <use x="50" xlink:href="#TimesNewRomanPSMT-2e"/>
       <use x="75" xlink:href="#TimesNewRomanPSMT-30"/>
       <use x="125" xlink:href="#TimesNewRomanPSMT-30"/>
       <use x="175" xlink:href="#TimesNewRomanPSMT-31"/>
      </g>
     </g>
    </g>
    <g id="xtick_3">
     <g id="line2d_5">
      <path clip-path="url(#p6cb83f4dd4)" d="M 215.518693 341.266595 
L 215.518693 8.626595 
" style="fill:none;stroke:#000000;stroke-dasharray:0.5,0.825;stroke-dashoffset:0;stroke-width:0.5;"/>
     </g>
     <g id="line2d_6">
      <g>
       <use style="stroke:#000000;stroke-width:0.8;" x="215.518693" xlink:href="#m2e208158cc" y="341.266595"/>
      </g>
     </g>
     <g id="text_3">
      <!-- 0.002 -->
      <g transform="translate(199.768693 357.987845)scale(0.14 -0.14)">
       <defs>
        <path d="M 2934 816 
L 2638 0 
L 138 0 
L 138 116 
Q 1241 1122 1691 1759 
Q 2141 2397 2141 2925 
Q 2141 3328 1894 3587 
Q 1647 3847 1303 3847 
Q 991 3847 742 3664 
Q 494 3481 375 3128 
L 259 3128 
Q 338 3706 661 4015 
Q 984 4325 1469 4325 
Q 1984 4325 2329 3994 
Q 2675 3663 2675 3213 
Q 2675 2891 2525 2569 
Q 2294 2063 1775 1497 
Q 997 647 803 472 
L 1909 472 
Q 2247 472 2383 497 
Q 2519 522 2628 598 
Q 2738 675 2819 816 
L 2934 816 
z
" id="TimesNewRomanPSMT-32" transform="scale(0.015625)"/>
       </defs>
       <use xlink:href="#TimesNewRomanPSMT-30"/>
       <use x="50" xlink:href="#TimesNewRomanPSMT-2e"/>
       <use x="75" xlink:href="#TimesNewRomanPSMT-30"/>
       <use x="125" xlink:href="#TimesNewRomanPSMT-30"/>
       <use x="175" xlink:href="#TimesNewRomanPSMT-32"/>
      </g>
     </g>
    </g>
    <g id="xtick_4">
     <g id="line2d_7">
      <path clip-path="url(#p6cb83f4dd4)" d="M 276.39142 341.266595 
L 276.39142 8.626595 
" style="fill:none;stroke:#000000;stroke-dasharray:0.5,0.825;stroke-dashoffset:0;stroke-width:0.5;"/>
     </g>
     <g id="line2d_8">
      <g>
       <use style="stroke:#000000;stroke-width:0.8;" x="276.39142" xlink:href="#m2e208158cc" y="341.266595"/>
      </g>
     </g>
     <g id="text_4">
      <!-- 0.003 -->
      <g transform="translate(260.64142 357.987845)scale(0.14 -0.14)">
       <defs>
        <path d="M 325 3431 
Q 506 3859 782 4092 
Q 1059 4325 1472 4325 
Q 1981 4325 2253 3994 
Q 2459 3747 2459 3466 
Q 2459 3003 1878 2509 
Q 2269 2356 2469 2072 
Q 2669 1788 2669 1403 
Q 2669 853 2319 450 
Q 1863 -75 997 -75 
Q 569 -75 414 31 
Q 259 138 259 259 
Q 259 350 332 419 
Q 406 488 509 488 
Q 588 488 669 463 
Q 722 447 909 348 
Q 1097 250 1169 231 
Q 1284 197 1416 197 
Q 1734 197 1970 444 
Q 2206 691 2206 1028 
Q 2206 1275 2097 1509 
Q 2016 1684 1919 1775 
Q 1784 1900 1550 2001 
Q 1316 2103 1072 2103 
L 972 2103 
L 972 2197 
Q 1219 2228 1467 2375 
Q 1716 2522 1828 2728 
Q 1941 2934 1941 3181 
Q 1941 3503 1739 3701 
Q 1538 3900 1238 3900 
Q 753 3900 428 3381 
L 325 3431 
z
" id="TimesNewRomanPSMT-33" transform="scale(0.015625)"/>
       </defs>
       <use xlink:href="#TimesNewRomanPSMT-30"/>
       <use x="50" xlink:href="#TimesNewRomanPSMT-2e"/>
       <use x="75" xlink:href="#TimesNewRomanPSMT-30"/>
       <use x="125" xlink:href="#TimesNewRomanPSMT-30"/>
       <use x="175" xlink:href="#TimesNewRomanPSMT-33"/>
      </g>
     </g>
    </g>
    <g id="xtick_5">
     <g id="line2d_9">
      <path clip-path="url(#p6cb83f4dd4)" d="M 337.264148 341.266595 
L 337.264148 8.626595 
" style="fill:none;stroke:#000000;stroke-dasharray:0.5,0.825;stroke-dashoffset:0;stroke-width:0.5;"/>
     </g>
     <g id="line2d_10">
      <g>
       <use style="stroke:#000000;stroke-width:0.8;" x="337.264148" xlink:href="#m2e208158cc" y="341.266595"/>
      </g>
     </g>
     <g id="text_5">
      <!-- 0.004 -->
      <g transform="translate(321.514148 357.987845)scale(0.14 -0.14)">
       <defs>
        <path d="M 2978 1563 
L 2978 1119 
L 2409 1119 
L 2409 0 
L 1894 0 
L 1894 1119 
L 100 1119 
L 100 1519 
L 2066 4325 
L 2409 4325 
L 2409 1563 
L 2978 1563 
z
M 1894 1563 
L 1894 3666 
L 406 1563 
L 1894 1563 
z
" id="TimesNewRomanPSMT-34" transform="scale(0.015625)"/>
       </defs>
       <use xlink:href="#TimesNewRomanPSMT-30"/>
       <use x="50" xlink:href="#TimesNewRomanPSMT-2e"/>
       <use x="75" xlink:href="#TimesNewRomanPSMT-30"/>
       <use x="125" xlink:href="#TimesNewRomanPSMT-30"/>
       <use x="175" xlink:href="#TimesNewRomanPSMT-34"/>
      </g>
     </g>
    </g>
    <g id="xtick_6">
     <g id="line2d_11">
      <path clip-path="url(#p6cb83f4dd4)" d="M 398.136875 341.266595 
L 398.136875 8.626595 
" style="fill:none;stroke:#000000;stroke-dasharray:0.5,0.825;stroke-dashoffset:0;stroke-width:0.5;"/>
     </g>
     <g id="line2d_12">
      <g>
       <use style="stroke:#000000;stroke-width:0.8;" x="398.136875" xlink:href="#m2e208158cc" y="341.266595"/>
      </g>
     </g>
     <g id="text_6">
      <!-- 0.005 -->
      <g transform="translate(382.386875 357.987845)scale(0.14 -0.14)">
       <defs>
        <path d="M 2778 4238 
L 2534 3706 
L 1259 3706 
L 981 3138 
Q 1809 3016 2294 2522 
Q 2709 2097 2709 1522 
Q 2709 1188 2573 903 
Q 2438 619 2231 419 
Q 2025 219 1772 97 
Q 1413 -75 1034 -75 
Q 653 -75 479 54 
Q 306 184 306 341 
Q 306 428 378 495 
Q 450 563 559 563 
Q 641 563 702 538 
Q 763 513 909 409 
Q 1144 247 1384 247 
Q 1750 247 2026 523 
Q 2303 800 2303 1197 
Q 2303 1581 2056 1914 
Q 1809 2247 1375 2428 
Q 1034 2569 447 2591 
L 1259 4238 
L 2778 4238 
z
" id="TimesNewRomanPSMT-35" transform="scale(0.015625)"/>
       </defs>
       <use xlink:href="#TimesNewRomanPSMT-30"/>
       <use x="50" xlink:href="#TimesNewRomanPSMT-2e"/>
       <use x="75" xlink:href="#TimesNewRomanPSMT-30"/>
       <use x="125" xlink:href="#TimesNewRomanPSMT-30"/>
       <use x="175" xlink:href="#TimesNewRomanPSMT-35"/>
      </g>
     </g>
    </g>
    <g id="text_7">
     <!-- Time (sec) -->
     <g transform="translate(200.858906 374.703782)scale(0.14 -0.14)">
      <defs>
       <path d="M 3703 4238 
L 3750 3244 
L 3631 3244 
Q 3597 3506 3538 3619 
Q 3441 3800 3280 3886 
Q 3119 3972 2856 3972 
L 2259 3972 
L 2259 734 
Q 2259 344 2344 247 
Q 2463 116 2709 116 
L 2856 116 
L 2856 0 
L 1059 0 
L 1059 116 
L 1209 116 
Q 1478 116 1591 278 
Q 1659 378 1659 734 
L 1659 3972 
L 1150 3972 
Q 853 3972 728 3928 
Q 566 3869 450 3700 
Q 334 3531 313 3244 
L 194 3244 
L 244 4238 
L 3703 4238 
z
" id="TimesNewRomanPSMT-54" transform="scale(0.015625)"/>
       <path d="M 928 4444 
Q 1059 4444 1151 4351 
Q 1244 4259 1244 4128 
Q 1244 3997 1151 3903 
Q 1059 3809 928 3809 
Q 797 3809 703 3903 
Q 609 3997 609 4128 
Q 609 4259 701 4351 
Q 794 4444 928 4444 
z
M 1188 2947 
L 1188 647 
Q 1188 378 1227 289 
Q 1266 200 1342 156 
Q 1419 113 1622 113 
L 1622 0 
L 231 0 
L 231 113 
Q 441 113 512 153 
Q 584 194 626 287 
Q 669 381 669 647 
L 669 1750 
Q 669 2216 641 2353 
Q 619 2453 572 2492 
Q 525 2531 444 2531 
Q 356 2531 231 2484 
L 188 2597 
L 1050 2947 
L 1188 2947 
z
" id="TimesNewRomanPSMT-69" transform="scale(0.015625)"/>
       <path d="M 1050 2338 
Q 1363 2650 1419 2697 
Q 1559 2816 1721 2881 
Q 1884 2947 2044 2947 
Q 2313 2947 2506 2790 
Q 2700 2634 2766 2338 
Q 3088 2713 3309 2830 
Q 3531 2947 3766 2947 
Q 3994 2947 4170 2830 
Q 4347 2713 4450 2447 
Q 4519 2266 4519 1878 
L 4519 647 
Q 4519 378 4559 278 
Q 4591 209 4675 161 
Q 4759 113 4950 113 
L 4950 0 
L 3538 0 
L 3538 113 
L 3597 113 
Q 3781 113 3884 184 
Q 3956 234 3988 344 
Q 4000 397 4000 647 
L 4000 1878 
Q 4000 2228 3916 2372 
Q 3794 2572 3525 2572 
Q 3359 2572 3192 2489 
Q 3025 2406 2788 2181 
L 2781 2147 
L 2788 2013 
L 2788 647 
Q 2788 353 2820 281 
Q 2853 209 2943 161 
Q 3034 113 3253 113 
L 3253 0 
L 1806 0 
L 1806 113 
Q 2044 113 2133 169 
Q 2222 225 2256 338 
Q 2272 391 2272 647 
L 2272 1878 
Q 2272 2228 2169 2381 
Q 2031 2581 1784 2581 
Q 1616 2581 1450 2491 
Q 1191 2353 1050 2181 
L 1050 647 
Q 1050 366 1089 281 
Q 1128 197 1204 155 
Q 1281 113 1516 113 
L 1516 0 
L 100 0 
L 100 113 
Q 297 113 375 155 
Q 453 197 493 289 
Q 534 381 534 647 
L 534 1741 
Q 534 2213 506 2350 
Q 484 2453 437 2492 
Q 391 2531 309 2531 
Q 222 2531 100 2484 
L 53 2597 
L 916 2947 
L 1050 2947 
L 1050 2338 
z
" id="TimesNewRomanPSMT-6d" transform="scale(0.015625)"/>
       <path d="M 681 1784 
Q 678 1147 991 784 
Q 1303 422 1725 422 
Q 2006 422 2214 576 
Q 2422 731 2563 1106 
L 2659 1044 
Q 2594 616 2278 264 
Q 1963 -88 1488 -88 
Q 972 -88 605 314 
Q 238 716 238 1394 
Q 238 2128 614 2539 
Q 991 2950 1559 2950 
Q 2041 2950 2350 2633 
Q 2659 2316 2659 1784 
L 681 1784 
z
M 681 1966 
L 2006 1966 
Q 1991 2241 1941 2353 
Q 1863 2528 1708 2628 
Q 1553 2728 1384 2728 
Q 1125 2728 920 2526 
Q 716 2325 681 1966 
z
" id="TimesNewRomanPSMT-65" transform="scale(0.015625)"/>
       <path id="TimesNewRomanPSMT-20" transform="scale(0.015625)"/>
       <path d="M 1988 -1253 
L 1988 -1369 
Q 1516 -1131 1200 -813 
Q 750 -359 506 256 
Q 263 872 263 1534 
Q 263 2503 741 3301 
Q 1219 4100 1988 4444 
L 1988 4313 
Q 1603 4100 1356 3731 
Q 1109 3363 987 2797 
Q 866 2231 866 1616 
Q 866 947 969 400 
Q 1050 -31 1165 -292 
Q 1281 -553 1476 -793 
Q 1672 -1034 1988 -1253 
z
" id="TimesNewRomanPSMT-28" transform="scale(0.015625)"/>
       <path d="M 2050 2947 
L 2050 1972 
L 1947 1972 
Q 1828 2431 1642 2597 
Q 1456 2763 1169 2763 
Q 950 2763 815 2647 
Q 681 2531 681 2391 
Q 681 2216 781 2091 
Q 878 1963 1175 1819 
L 1631 1597 
Q 2266 1288 2266 781 
Q 2266 391 1970 151 
Q 1675 -88 1309 -88 
Q 1047 -88 709 6 
Q 606 38 541 38 
Q 469 38 428 -44 
L 325 -44 
L 325 978 
L 428 978 
Q 516 541 762 319 
Q 1009 97 1316 97 
Q 1531 97 1667 223 
Q 1803 350 1803 528 
Q 1803 744 1651 891 
Q 1500 1038 1047 1263 
Q 594 1488 453 1669 
Q 313 1847 313 2119 
Q 313 2472 555 2709 
Q 797 2947 1181 2947 
Q 1350 2947 1591 2875 
Q 1750 2828 1803 2828 
Q 1853 2828 1881 2850 
Q 1909 2872 1947 2947 
L 2050 2947 
z
" id="TimesNewRomanPSMT-73" transform="scale(0.015625)"/>
       <path d="M 2631 1088 
Q 2516 522 2178 217 
Q 1841 -88 1431 -88 
Q 944 -88 581 321 
Q 219 731 219 1428 
Q 219 2103 620 2525 
Q 1022 2947 1584 2947 
Q 2006 2947 2278 2723 
Q 2550 2500 2550 2259 
Q 2550 2141 2473 2067 
Q 2397 1994 2259 1994 
Q 2075 1994 1981 2113 
Q 1928 2178 1911 2362 
Q 1894 2547 1784 2644 
Q 1675 2738 1481 2738 
Q 1169 2738 978 2506 
Q 725 2200 725 1697 
Q 725 1184 976 792 
Q 1228 400 1656 400 
Q 1963 400 2206 609 
Q 2378 753 2541 1131 
L 2631 1088 
z
" id="TimesNewRomanPSMT-63" transform="scale(0.015625)"/>
       <path d="M 144 4313 
L 144 4444 
Q 619 4209 934 3891 
Q 1381 3434 1625 2820 
Q 1869 2206 1869 1541 
Q 1869 572 1392 -226 
Q 916 -1025 144 -1369 
L 144 -1253 
Q 528 -1038 776 -670 
Q 1025 -303 1145 264 
Q 1266 831 1266 1447 
Q 1266 2113 1163 2663 
Q 1084 3094 967 3353 
Q 850 3613 656 3853 
Q 463 4094 144 4313 
z
" id="TimesNewRomanPSMT-29" transform="scale(0.015625)"/>
      </defs>
      <use xlink:href="#TimesNewRomanPSMT-54"/>
      <use x="57.583984" xlink:href="#TimesNewRomanPSMT-69"/>
      <use x="85.367188" xlink:href="#TimesNewRomanPSMT-6d"/>
      <use x="163.150391" xlink:href="#TimesNewRomanPSMT-65"/>
      <use x="207.535156" xlink:href="#TimesNewRomanPSMT-20"/>
      <use x="232.535156" xlink:href="#TimesNewRomanPSMT-28"/>
      <use x="265.835938" xlink:href="#TimesNewRomanPSMT-73"/>
      <use x="304.751953" xlink:href="#TimesNewRomanPSMT-65"/>
      <use x="349.136719" xlink:href="#TimesNewRomanPSMT-63"/>
      <use x="393.521484" xlink:href="#TimesNewRomanPSMT-29"/>
     </g>
    </g>
   </g>
   <g id="matplotlib.axis_2">
    <g id="ytick_1">
     <g id="line2d_13">
      <path clip-path="url(#p6cb83f4dd4)" d="M 63.336875 321.520169 
L 398.136875 321.520169 
" style="fill:none;stroke:#000000;stroke-dasharray:0.5,0.825;stroke-dashoffset:0;stroke-width:0.5;"/>
     </g>
     <g id="line2d_14">
      <defs>
       <path d="M 0 0 
L -3.5 0 
" id="m9c7a5b66fe" style="stroke:#000000;stroke-width:0.8;"/>
      </defs>
      <g>
       <use style="stroke:#000000;stroke-width:0.8;" x="63.336875" xlink:href="#m9c7a5b66fe" y="321.520169"/>
      </g>
     </g>
     <g id="text_8">
      <!-- −0.08 -->
      <g transform="translate(23.942188 326.380794)scale(0.14 -0.14)">
       <defs>
        <path d="M 3484 2000 
L 116 2000 
L 116 2256 
L 3484 2256 
L 3484 2000 
z
" id="TimesNewRomanPSMT-2212" transform="scale(0.015625)"/>
        <path d="M 1228 2134 
Q 725 2547 579 2797 
Q 434 3047 434 3316 
Q 434 3728 753 4026 
Q 1072 4325 1600 4325 
Q 2113 4325 2425 4047 
Q 2738 3769 2738 3413 
Q 2738 3175 2569 2928 
Q 2400 2681 1866 2347 
Q 2416 1922 2594 1678 
Q 2831 1359 2831 1006 
Q 2831 559 2490 242 
Q 2150 -75 1597 -75 
Q 994 -75 656 303 
Q 388 606 388 966 
Q 388 1247 577 1523 
Q 766 1800 1228 2134 
z
M 1719 2469 
Q 2094 2806 2194 3001 
Q 2294 3197 2294 3444 
Q 2294 3772 2109 3958 
Q 1925 4144 1606 4144 
Q 1288 4144 1088 3959 
Q 888 3775 888 3528 
Q 888 3366 970 3203 
Q 1053 3041 1206 2894 
L 1719 2469 
z
M 1375 2016 
Q 1116 1797 991 1539 
Q 866 1281 866 981 
Q 866 578 1086 336 
Q 1306 94 1647 94 
Q 1984 94 2187 284 
Q 2391 475 2391 747 
Q 2391 972 2272 1150 
Q 2050 1481 1375 2016 
z
" id="TimesNewRomanPSMT-38" transform="scale(0.015625)"/>
       </defs>
       <use xlink:href="#TimesNewRomanPSMT-2212"/>
       <use x="56.396484" xlink:href="#TimesNewRomanPSMT-30"/>
       <use x="106.396484" xlink:href="#TimesNewRomanPSMT-2e"/>
       <use x="131.396484" xlink:href="#TimesNewRomanPSMT-30"/>
       <use x="181.396484" xlink:href="#TimesNewRomanPSMT-38"/>
      </g>
     </g>
    </g>
    <g id="ytick_2">
     <g id="line2d_15">
      <path clip-path="url(#p6cb83f4dd4)" d="M 63.336875 282.837726 
L 398.136875 282.837726 
" style="fill:none;stroke:#000000;stroke-dasharray:0.5,0.825;stroke-dashoffset:0;stroke-width:0.5;"/>
     </g>
     <g id="line2d_16">
      <g>
       <use style="stroke:#000000;stroke-width:0.8;" x="63.336875" xlink:href="#m9c7a5b66fe" y="282.837726"/>
      </g>
     </g>
     <g id="text_9">
      <!-- −0.06 -->
      <g transform="translate(23.942188 287.698351)scale(0.14 -0.14)">
       <defs>
        <path d="M 2869 4325 
L 2869 4209 
Q 2456 4169 2195 4045 
Q 1934 3922 1679 3669 
Q 1425 3416 1258 3105 
Q 1091 2794 978 2366 
Q 1428 2675 1881 2675 
Q 2316 2675 2634 2325 
Q 2953 1975 2953 1425 
Q 2953 894 2631 456 
Q 2244 -75 1606 -75 
Q 1172 -75 869 213 
Q 275 772 275 1663 
Q 275 2231 503 2743 
Q 731 3256 1154 3653 
Q 1578 4050 1965 4187 
Q 2353 4325 2688 4325 
L 2869 4325 
z
M 925 2138 
Q 869 1716 869 1456 
Q 869 1156 980 804 
Q 1091 453 1309 247 
Q 1469 100 1697 100 
Q 1969 100 2183 356 
Q 2397 613 2397 1088 
Q 2397 1622 2184 2012 
Q 1972 2403 1581 2403 
Q 1463 2403 1327 2353 
Q 1191 2303 925 2138 
z
" id="TimesNewRomanPSMT-36" transform="scale(0.015625)"/>
       </defs>
       <use xlink:href="#TimesNewRomanPSMT-2212"/>
       <use x="56.396484" xlink:href="#TimesNewRomanPSMT-30"/>
       <use x="106.396484" xlink:href="#TimesNewRomanPSMT-2e"/>
       <use x="131.396484" xlink:href="#TimesNewRomanPSMT-30"/>
       <use x="181.396484" xlink:href="#TimesNewRomanPSMT-36"/>
      </g>
     </g>
    </g>
    <g id="ytick_3">
     <g id="line2d_17">
      <path clip-path="url(#p6cb83f4dd4)" d="M 63.336875 244.155283 
L 398.136875 244.155283 
" style="fill:none;stroke:#000000;stroke-dasharray:0.5,0.825;stroke-dashoffset:0;stroke-width:0.5;"/>
     </g>
     <g id="line2d_18">
      <g>
       <use style="stroke:#000000;stroke-width:0.8;" x="63.336875" xlink:href="#m9c7a5b66fe" y="244.155283"/>
      </g>
     </g>
     <g id="text_10">
      <!-- −0.04 -->
      <g transform="translate(23.942188 249.015908)scale(0.14 -0.14)">
       <use xlink:href="#TimesNewRomanPSMT-2212"/>
       <use x="56.396484" xlink:href="#TimesNewRomanPSMT-30"/>
       <use x="106.396484" xlink:href="#TimesNewRomanPSMT-2e"/>
       <use x="131.396484" xlink:href="#TimesNewRomanPSMT-30"/>
       <use x="181.396484" xlink:href="#TimesNewRomanPSMT-34"/>
      </g>
     </g>
    </g>
    <g id="ytick_4">
     <g id="line2d_19">
      <path clip-path="url(#p6cb83f4dd4)" d="M 63.336875 205.47284 
L 398.136875 205.47284 
" style="fill:none;stroke:#000000;stroke-dasharray:0.5,0.825;stroke-dashoffset:0;stroke-width:0.5;"/>
     </g>
     <g id="line2d_20">
      <g>
       <use style="stroke:#000000;stroke-width:0.8;" x="63.336875" xlink:href="#m9c7a5b66fe" y="205.47284"/>
      </g>
     </g>
     <g id="text_11">
      <!-- −0.02 -->
      <g transform="translate(23.942188 210.333465)scale(0.14 -0.14)">
       <use xlink:href="#TimesNewRomanPSMT-2212"/>
       <use x="56.396484" xlink:href="#TimesNewRomanPSMT-30"/>
       <use x="106.396484" xlink:href="#TimesNewRomanPSMT-2e"/>
       <use x="131.396484" xlink:href="#TimesNewRomanPSMT-30"/>
       <use x="181.396484" xlink:href="#TimesNewRomanPSMT-32"/>
      </g>
     </g>
    </g>
    <g id="ytick_5">
     <g id="line2d_21">
      <path clip-path="url(#p6cb83f4dd4)" d="M 63.336875 166.790397 
L 398.136875 166.790397 
" style="fill:none;stroke:#000000;stroke-dasharray:0.5,0.825;stroke-dashoffset:0;stroke-width:0.5;"/>
     </g>
     <g id="line2d_22">
      <g>
       <use style="stroke:#000000;stroke-width:0.8;" x="63.336875" xlink:href="#m9c7a5b66fe" y="166.790397"/>
      </g>
     </g>
     <g id="text_12">
      <!-- 0.00 -->
      <g transform="translate(31.836875 171.651022)scale(0.14 -0.14)">
       <use xlink:href="#TimesNewRomanPSMT-30"/>
       <use x="50" xlink:href="#TimesNewRomanPSMT-2e"/>
       <use x="75" xlink:href="#TimesNewRomanPSMT-30"/>
       <use x="125" xlink:href="#TimesNewRomanPSMT-30"/>
      </g>
     </g>
    </g>
    <g id="ytick_6">
     <g id="line2d_23">
      <path clip-path="url(#p6cb83f4dd4)" d="M 63.336875 128.107954 
L 398.136875 128.107954 
" style="fill:none;stroke:#000000;stroke-dasharray:0.5,0.825;stroke-dashoffset:0;stroke-width:0.5;"/>
     </g>
     <g id="line2d_24">
      <g>
       <use style="stroke:#000000;stroke-width:0.8;" x="63.336875" xlink:href="#m9c7a5b66fe" y="128.107954"/>
      </g>
     </g>
     <g id="text_13">
      <!-- 0.02 -->
      <g transform="translate(31.836875 132.968579)scale(0.14 -0.14)">
       <use xlink:href="#TimesNewRomanPSMT-30"/>
       <use x="50" xlink:href="#TimesNewRomanPSMT-2e"/>
       <use x="75" xlink:href="#TimesNewRomanPSMT-30"/>
       <use x="125" xlink:href="#TimesNewRomanPSMT-32"/>
      </g>
     </g>
    </g>
    <g id="ytick_7">
     <g id="line2d_25">
      <path clip-path="url(#p6cb83f4dd4)" d="M 63.336875 89.425511 
L 398.136875 89.425511 
" style="fill:none;stroke:#000000;stroke-dasharray:0.5,0.825;stroke-dashoffset:0;stroke-width:0.5;"/>
     </g>
     <g id="line2d_26">
      <g>
       <use style="stroke:#000000;stroke-width:0.8;" x="63.336875" xlink:href="#m9c7a5b66fe" y="89.425511"/>
      </g>
     </g>
     <g id="text_14">
      <!-- 0.04 -->
      <g transform="translate(31.836875 94.286136)scale(0.14 -0.14)">
       <use xlink:href="#TimesNewRomanPSMT-30"/>
       <use x="50" xlink:href="#TimesNewRomanPSMT-2e"/>
       <use x="75" xlink:href="#TimesNewRomanPSMT-30"/>
       <use x="125" xlink:href="#TimesNewRomanPSMT-34"/>
      </g>
     </g>
    </g>
    <g id="ytick_8">
     <g id="line2d_27">
      <path clip-path="url(#p6cb83f4dd4)" d="M 63.336875 50.743068 
L 398.136875 50.743068 
" style="fill:none;stroke:#000000;stroke-dasharray:0.5,0.825;stroke-dashoffset:0;stroke-width:0.5;"/>
     </g>
     <g id="line2d_28">
      <g>
       <use style="stroke:#000000;stroke-width:0.8;" x="63.336875" xlink:href="#m9c7a5b66fe" y="50.743068"/>
      </g>
     </g>
     <g id="text_15">
      <!-- 0.06 -->
      <g transform="translate(31.836875 55.603693)scale(0.14 -0.14)">
       <use xlink:href="#TimesNewRomanPSMT-30"/>
       <use x="50" xlink:href="#TimesNewRomanPSMT-2e"/>
       <use x="75" xlink:href="#TimesNewRomanPSMT-30"/>
       <use x="125" xlink:href="#TimesNewRomanPSMT-36"/>
      </g>
     </g>
    </g>
    <g id="ytick_9">
     <g id="line2d_29">
      <path clip-path="url(#p6cb83f4dd4)" d="M 63.336875 12.060625 
L 398.136875 12.060625 
" style="fill:none;stroke:#000000;stroke-dasharray:0.5,0.825;stroke-dashoffset:0;stroke-width:0.5;"/>
     </g>
     <g id="line2d_30">
      <g>
       <use style="stroke:#000000;stroke-width:0.8;" x="63.336875" xlink:href="#m9c7a5b66fe" y="12.060625"/>
      </g>
     </g>
     <g id="text_16">
      <!-- 0.08 -->
      <g transform="translate(31.836875 16.92125)scale(0.14 -0.14)">
       <use xlink:href="#TimesNewRomanPSMT-30"/>
       <use x="50" xlink:href="#TimesNewRomanPSMT-2e"/>
       <use x="75" xlink:href="#TimesNewRomanPSMT-30"/>
       <use x="125" xlink:href="#TimesNewRomanPSMT-38"/>
      </g>
     </g>
    </g>
    <g id="text_17">
     <!-- Volatage (V) -->
     <g transform="translate(16.92125 210.778939)rotate(-90)scale(0.14 -0.14)">
      <defs>
       <path d="M 4544 4238 
L 4544 4122 
Q 4319 4081 4203 3978 
Q 4038 3825 3909 3509 
L 2431 -97 
L 2316 -97 
L 728 3556 
Q 606 3838 556 3900 
Q 478 3997 364 4051 
Q 250 4106 56 4122 
L 56 4238 
L 1788 4238 
L 1788 4122 
Q 1494 4094 1406 4022 
Q 1319 3950 1319 3838 
Q 1319 3681 1463 3350 
L 2541 866 
L 3541 3319 
Q 3688 3681 3688 3822 
Q 3688 3913 3597 3995 
Q 3506 4078 3291 4113 
Q 3275 4116 3238 4122 
L 3238 4238 
L 4544 4238 
z
" id="TimesNewRomanPSMT-56" transform="scale(0.015625)"/>
       <path d="M 1600 2947 
Q 2250 2947 2644 2453 
Q 2978 2031 2978 1484 
Q 2978 1100 2793 706 
Q 2609 313 2286 112 
Q 1963 -88 1566 -88 
Q 919 -88 538 428 
Q 216 863 216 1403 
Q 216 1797 411 2186 
Q 606 2575 925 2761 
Q 1244 2947 1600 2947 
z
M 1503 2744 
Q 1338 2744 1170 2645 
Q 1003 2547 900 2300 
Q 797 2053 797 1666 
Q 797 1041 1045 587 
Q 1294 134 1700 134 
Q 2003 134 2200 384 
Q 2397 634 2397 1244 
Q 2397 2006 2069 2444 
Q 1847 2744 1503 2744 
z
" id="TimesNewRomanPSMT-6f" transform="scale(0.015625)"/>
       <path d="M 1184 4444 
L 1184 647 
Q 1184 378 1223 290 
Q 1263 203 1344 158 
Q 1425 113 1647 113 
L 1647 0 
L 244 0 
L 244 113 
Q 441 113 512 153 
Q 584 194 625 287 
Q 666 381 666 647 
L 666 3247 
Q 666 3731 644 3842 
Q 622 3953 573 3993 
Q 525 4034 450 4034 
Q 369 4034 244 3984 
L 191 4094 
L 1044 4444 
L 1184 4444 
z
" id="TimesNewRomanPSMT-6c" transform="scale(0.015625)"/>
       <path d="M 1822 413 
Q 1381 72 1269 19 
Q 1100 -59 909 -59 
Q 613 -59 420 144 
Q 228 347 228 678 
Q 228 888 322 1041 
Q 450 1253 767 1440 
Q 1084 1628 1822 1897 
L 1822 2009 
Q 1822 2438 1686 2597 
Q 1550 2756 1291 2756 
Q 1094 2756 978 2650 
Q 859 2544 859 2406 
L 866 2225 
Q 866 2081 792 2003 
Q 719 1925 600 1925 
Q 484 1925 411 2006 
Q 338 2088 338 2228 
Q 338 2497 613 2722 
Q 888 2947 1384 2947 
Q 1766 2947 2009 2819 
Q 2194 2722 2281 2516 
Q 2338 2381 2338 1966 
L 2338 994 
Q 2338 584 2353 492 
Q 2369 400 2405 369 
Q 2441 338 2488 338 
Q 2538 338 2575 359 
Q 2641 400 2828 588 
L 2828 413 
Q 2478 -56 2159 -56 
Q 2006 -56 1915 50 
Q 1825 156 1822 413 
z
M 1822 616 
L 1822 1706 
Q 1350 1519 1213 1441 
Q 966 1303 859 1153 
Q 753 1003 753 825 
Q 753 600 887 451 
Q 1022 303 1197 303 
Q 1434 303 1822 616 
z
" id="TimesNewRomanPSMT-61" transform="scale(0.015625)"/>
       <path d="M 1031 3803 
L 1031 2863 
L 1700 2863 
L 1700 2644 
L 1031 2644 
L 1031 788 
Q 1031 509 1111 412 
Q 1191 316 1316 316 
Q 1419 316 1516 380 
Q 1613 444 1666 569 
L 1788 569 
Q 1678 263 1478 108 
Q 1278 -47 1066 -47 
Q 922 -47 784 33 
Q 647 113 581 261 
Q 516 409 516 719 
L 516 2644 
L 63 2644 
L 63 2747 
Q 234 2816 414 2980 
Q 594 3144 734 3369 
Q 806 3488 934 3803 
L 1031 3803 
z
" id="TimesNewRomanPSMT-74" transform="scale(0.015625)"/>
       <path d="M 966 1044 
Q 703 1172 562 1401 
Q 422 1631 422 1909 
Q 422 2334 742 2640 
Q 1063 2947 1563 2947 
Q 1972 2947 2272 2747 
L 2878 2747 
Q 3013 2747 3034 2739 
Q 3056 2731 3066 2713 
Q 3084 2684 3084 2613 
Q 3084 2531 3069 2500 
Q 3059 2484 3036 2475 
Q 3013 2466 2878 2466 
L 2506 2466 
Q 2681 2241 2681 1891 
Q 2681 1491 2375 1206 
Q 2069 922 1553 922 
Q 1341 922 1119 984 
Q 981 866 932 777 
Q 884 688 884 625 
Q 884 572 936 522 
Q 988 472 1138 450 
Q 1225 438 1575 428 
Q 2219 413 2409 384 
Q 2700 344 2873 169 
Q 3047 -6 3047 -263 
Q 3047 -616 2716 -925 
Q 2228 -1381 1444 -1381 
Q 841 -1381 425 -1109 
Q 191 -953 191 -784 
Q 191 -709 225 -634 
Q 278 -519 444 -313 
Q 466 -284 763 25 
Q 600 122 533 198 
Q 466 275 466 372 
Q 466 481 555 628 
Q 644 775 966 1044 
z
M 1509 2797 
Q 1278 2797 1122 2612 
Q 966 2428 966 2047 
Q 966 1553 1178 1281 
Q 1341 1075 1591 1075 
Q 1828 1075 1981 1253 
Q 2134 1431 2134 1813 
Q 2134 2309 1919 2591 
Q 1759 2797 1509 2797 
z
M 934 0 
Q 788 -159 713 -296 
Q 638 -434 638 -550 
Q 638 -700 819 -813 
Q 1131 -1006 1722 -1006 
Q 2284 -1006 2551 -807 
Q 2819 -609 2819 -384 
Q 2819 -222 2659 -153 
Q 2497 -84 2016 -72 
Q 1313 -53 934 0 
z
" id="TimesNewRomanPSMT-67" transform="scale(0.015625)"/>
      </defs>
      <use xlink:href="#TimesNewRomanPSMT-56"/>
      <use x="59.341797" xlink:href="#TimesNewRomanPSMT-6f"/>
      <use x="109.341797" xlink:href="#TimesNewRomanPSMT-6c"/>
      <use x="137.125" xlink:href="#TimesNewRomanPSMT-61"/>
      <use x="181.509766" xlink:href="#TimesNewRomanPSMT-74"/>
      <use x="209.292969" xlink:href="#TimesNewRomanPSMT-61"/>
      <use x="253.677734" xlink:href="#TimesNewRomanPSMT-67"/>
      <use x="303.677734" xlink:href="#TimesNewRomanPSMT-65"/>
      <use x="348.0625" xlink:href="#TimesNewRomanPSMT-20"/>
      <use x="373.0625" xlink:href="#TimesNewRomanPSMT-28"/>
      <use x="406.363281" xlink:href="#TimesNewRomanPSMT-56"/>
      <use x="478.580078" xlink:href="#TimesNewRomanPSMT-29"/>
     </g>
    </g>
   </g>
   <g id="LineCollection_1">
    <path clip-path="url(#p6cb83f4dd4)" d="M 78.555057 166.790397 
L 382.918693 166.790397 
" style="fill:none;stroke:#1f77b4;stroke-width:1.5;"/>
   </g>
   <g id="line2d_31">
    <path clip-path="url(#p6cb83f4dd4)" d="M 78.555057 166.799101 
L 78.707239 166.799101 
L 89.99913 166.726571 
L 90.090439 166.702394 
L 90.120875 166.726571 
L 114.591711 166.799101 
L 114.713457 166.847454 
L 114.865639 166.823277 
L 115.01782 166.87163 
L 115.139566 166.87163 
L 115.291748 166.87163 
L 115.474366 166.895807 
L 116.904875 166.968336 
L 117.02662 166.992513 
L 118.274511 167.089219 
L 118.487566 167.137572 
L 118.609311 167.113395 
L 118.761493 167.161748 
L 119.735457 167.258455 
L 119.918075 167.282631 
L 121.561639 167.379337 
L 121.744257 167.403514 
L 122.566039 167.50022 
L 122.748657 167.524396 
L 123.935675 167.621102 
L 124.05742 167.669455 
L 124.179166 167.645279 
L 127.07062 167.717809 
L 127.192366 167.741985 
L 127.49673 167.838691 
L 127.861966 168.007927 
L 128.227202 168.104633 
L 128.40982 168.225516 
L 128.531566 168.249692 
L 128.775057 168.443104 
L 128.927239 168.53981 
L 130.327311 169.748637 
L 130.570802 170.062932 
L 132.549166 173.399292 
L 133.310075 174.94659 
L 133.827493 175.962004 
L 135.044948 179.129129 
L 136.323275 182.852314 
L 136.566766 183.432552 
L 137.20593 185.100731 
L 139.488657 190.298685 
L 139.640839 190.54045 
L 139.945202 191.02398 
L 140.249566 191.362452 
L 140.46262 191.604217 
L 140.55393 191.65257 
L 140.736548 191.821806 
L 140.980039 192.039395 
L 141.22353 192.136101 
L 141.406148 192.160277 
L 142.380111 192.063571 
L 143.080148 191.628394 
L 143.201893 191.531687 
L 143.719311 190.878921 
L 143.81062 190.782215 
L 144.358475 189.718448 
L 145.14982 187.566737 
L 146.215093 183.843552 
L 146.702075 181.740194 
L 147.24993 179.129129 
L 148.741311 170.232167 
L 149.684839 163.535269 
L 153.27633 134.136611 
L 157.659166 96.808055 
L 158.663566 89.651805 
L 161.281093 75.62942 
L 161.372402 75.315123 
L 162.498548 72.099645 
L 162.55942 72.027117 
L 162.89422 71.495232 
L 163.168148 71.180935 
L 163.198584 71.22929 
L 163.259457 71.156762 
L 163.472511 71.108409 
L 163.776875 71.205115 
L 164.020366 71.398524 
L 164.294293 71.736995 
L 164.720402 72.583177 
L 165.207384 74.082118 
L 165.450875 74.855773 
L 167.24662 85.44509 
L 168.037966 92.552986 
L 170.168511 117.478986 
L 172.846911 159.521966 
L 179.695093 277.310005 
L 180.72993 291.308218 
L 182.282184 308.497726 
L 182.98222 314.179202 
L 184.199675 321.238752 
L 184.808402 323.608056 
L 185.234511 324.865229 
L 185.691057 325.687237 
L 186.391093 326.122415 
L 186.573711 326.049887 
L 187.395493 324.575119 
L 188.186839 321.698112 
L 189.373857 314.517672 
L 190.378257 305.693245 
L 191.930511 287.246557 
L 193.78713 259.225961 
L 198.504766 171.005816 
L 200.665748 130.244192 
L 203.16153 88.563861 
L 204.774657 65.862103 
L 205.718184 54.571665 
L 206.84433 43.232866 
L 207.940039 34.601855 
L 208.85313 29.50061 
L 209.309675 27.566484 
L 209.887966 25.704886 
L 210.374948 24.737823 
L 210.709748 24.205953 
L 211.44022 23.746595 
L 211.744584 23.843301 
L 212.383748 24.471881 
L 212.718548 25.197181 
L 213.144657 26.454368 
L 214.362111 31.724847 
L 215.975239 42.652633 
L 217.192693 53.169424 
L 218.866693 70.189699 
L 220.57113 90.377099 
L 226.293166 161.72203 
L 228.728075 185.753498 
L 229.793348 194.118576 
L 231.010802 202.048475 
L 232.53262 209.930023 
L 233.019602 212.299324 
L 233.902257 215.974156 
L 234.845784 219.310515 
L 234.906657 219.479751 
L 235.393639 220.906168 
L 236.093675 222.76776 
L 236.97633 224.605174 
L 237.676366 225.548061 
L 237.798111 225.620592 
L 238.254657 226.152474 
L 239.837348 227.312949 
L 239.959093 227.288771 
L 240.080839 227.337126 
L 240.385202 227.192065 
L 240.506948 227.167886 
L 241.024366 227.071182 
L 242.180948 226.273359 
L 242.33313 226.17665 
L 242.546184 225.934885 
L 242.637493 225.88653 
L 242.850548 225.644769 
L 243.67233 225.112883 
L 243.824511 225.016175 
L 245.34633 223.68647 
L 245.92462 222.574348 
L 246.442039 221.607285 
L 246.746402 220.930346 
L 248.389966 216.771982 
L 248.69433 215.998333 
L 249.27262 214.523565 
L 249.911784 212.734502 
L 255.177275 195.641697 
L 257.825239 185.560086 
L 258.586148 182.828137 
L 258.98182 181.20831 
L 262.725493 166.774924 
L 264.977784 159.98132 
L 267.412693 154.444895 
L 268.417093 153.042657 
L 269.086693 152.38989 
L 269.36062 152.123949 
L 269.482366 152.027243 
L 269.725857 151.833831 
L 269.878039 151.737125 
L 270.395457 151.447005 
L 271.338984 151.543711 
L 272.221639 152.341538 
L 272.46513 152.655832 
L 272.79993 153.01848 
L 273.104293 153.477834 
L 274.595675 155.653722 
L 274.71742 155.847134 
L 274.991348 156.233959 
L 276.239239 158.409846 
L 276.81753 159.521966 
L 276.939275 159.739555 
L 277.608875 161.069264 
L 277.700184 161.214323 
L 278.034984 161.915442 
L 278.674148 163.172621 
L 282.630875 169.265106 
L 282.904802 169.603578 
L 283.239602 169.942049 
L 284.670111 170.957463 
L 284.822293 171.005816 
L 284.974475 171.102522 
L 285.248402 171.199229 
L 286.496293 171.126699 
L 286.678911 171.029993 
L 288.10942 169.79699 
L 288.352911 169.482695 
L 290.331275 166.146334 
L 291.000875 164.792449 
L 291.092184 164.599037 
L 291.366111 163.970447 
L 291.731348 163.148445 
L 291.853093 162.979209 
L 292.248766 162.084678 
L 292.492257 161.528617 
L 292.79662 160.754969 
L 293.770584 158.192257 
L 294.196693 156.935077 
L 294.744548 155.38778 
L 295.23153 153.864658 
L 295.718511 152.438244 
L 296.205493 150.915122 
L 296.540293 149.851355 
L 300.223093 138.512564 
L 300.649202 137.231208 
L 300.984002 136.312498 
L 301.227493 135.75644 
L 301.897093 133.991554 
L 302.992802 131.622252 
L 303.114548 131.404663 
L 306.432111 126.303416 
L 306.52342 126.206712 
L 306.85822 125.819889 
L 307.497384 124.997884 
L 309.140948 123.813236 
L 309.62793 123.740704 
L 309.810548 123.644 
L 310.96713 123.740704 
L 311.149748 123.764883 
L 311.271493 123.789059 
L 311.606293 123.885767 
L 312.154148 124.20006 
L 312.21502 124.20006 
L 312.245457 124.248413 
L 312.428075 124.345121 
L 312.64113 124.514357 
L 312.762875 124.586883 
L 312.97593 124.82865 
L 314.64993 127.657304 
L 315.045602 128.576013 
L 315.410839 129.34966 
L 316.202184 131.477195 
L 316.90222 133.822318 
L 317.358766 135.611383 
L 317.845748 137.714739 
L 318.150111 139.020271 
L 320.524148 150.86677 
L 327.402766 195.254873 
L 328.04193 199.46159 
L 328.894148 204.804599 
L 330.994257 217.473101 
L 333.337857 228.110773 
L 334.433566 232.027372 
L 335.772766 235.968144 
L 335.864075 236.13738 
L 336.229311 236.95938 
L 338.268548 240.005624 
L 339.486002 240.851806 
L 340.307784 240.803451 
L 340.42953 240.65839 
L 340.459966 240.682563 
L 340.642584 240.489154 
L 341.038257 240.078152 
L 341.251311 239.812208 
L 341.464366 239.546272 
L 341.890475 238.796799 
L 342.316584 237.926443 
L 343.290548 235.33955 
L 344.294948 231.785603 
L 344.69062 230.189954 
L 346.729857 219.939105 
L 348.647348 208.672845 
L 353.091057 176.107063 
L 354.886802 161.359382 
L 355.708584 154.710837 
L 356.804293 146.103994 
L 361.917602 110.346908 
L 363.469857 101.184005 
L 366.087384 89.216628 
L 367.578766 84.816498 
L 367.944002 84.042849 
L 368.400548 83.220847 
L 369.283202 82.012023 
L 369.89193 81.649373 
L 370.044111 81.576845 
L 370.196293 81.504312 
L 371.13982 81.576845 
L 371.322439 81.673553 
L 371.413748 81.721901 
L 371.56593 81.818607 
L 371.931166 82.205431 
L 372.14422 82.471375 
L 372.47902 83.003258 
L 372.935566 83.897788 
L 373.48342 85.275856 
L 373.970402 86.678089 
L 374.640002 88.926504 
L 374.853057 89.700158 
L 376.192257 95.45417 
L 378.414111 108.38861 
L 381.60993 132.009076 
L 382.918693 142.622574 
L 382.918693 142.622574 
" style="fill:none;stroke:#0000ff;stroke-linecap:square;stroke-width:1.5;"/>
   </g>
   <g id="line2d_32">
    <path clip-path="url(#p6cb83f4dd4)" d="M 78.555057 166.821681 
L 87.99033 166.712887 
L 88.294693 166.700799 
L 93.073202 166.592004 
L 93.34713 166.592004 
L 102.417166 166.676622 
L 102.599784 166.749152 
L 102.72153 166.785417 
L 103.025893 166.906299 
L 103.269384 167.015094 
L 104.912948 168.453597 
L 105.64342 169.469011 
L 106.008657 170.061336 
L 106.73913 171.42731 
L 107.560911 173.107578 
L 108.260948 174.739494 
L 112.67422 184.990342 
L 112.826402 185.244196 
L 113.313384 185.98158 
L 114.713457 187.492612 
L 115.809166 187.843171 
L 116.052657 187.770642 
L 116.235275 187.686024 
L 116.752693 187.238758 
L 117.330984 186.646433 
L 118.304948 184.893636 
L 119.248475 182.77819 
L 119.918075 180.904509 
L 120.678984 178.474767 
L 121.774693 174.159257 
L 123.235639 167.281035 
L 124.179166 162.264406 
L 126.40102 150.514614 
L 128.105457 141.871506 
L 129.201166 136.395522 
L 130.17513 132.285513 
L 131.362148 128.018358 
L 133.09702 122.203899 
L 133.553566 120.850016 
L 134.223166 119.085129 
L 136.049348 115.011384 
L 136.566766 113.983882 
L 137.145057 112.87176 
L 137.753784 112.110199 
L 138.423384 111.445347 
L 138.697311 111.445347 
L 138.910366 111.554141 
L 139.245166 111.795906 
L 140.12782 112.605822 
L 140.79742 113.705852 
L 141.193093 114.346528 
L 141.588766 115.18062 
L 142.319239 117.19936 
L 143.201893 120.354399 
L 145.14982 130.157978 
L 146.428148 137.858202 
L 147.91953 149.28161 
L 151.60233 182.427629 
L 154.889457 212.720818 
L 156.806948 227.105853 
L 158.63313 237.320434 
L 159.54622 241.140325 
L 160.398439 243.775564 
L 161.098475 245.395394 
L 161.676766 246.120688 
L 162.528984 246.664663 
L 163.472511 245.782216 
L 164.050802 244.682182 
L 164.872584 242.071123 
L 165.755239 238.541348 
L 167.216184 230.454298 
L 169.651093 213.264789 
L 172.055566 193.294978 
L 175.738366 160.668755 
L 179.96902 127.93374 
L 181.551711 117.404862 
L 182.830039 110.913465 
L 184.808402 103.503358 
L 186.269348 100.29997 
L 186.969384 99.393352 
L 187.517239 99.079055 
L 188.278148 99.175763 
L 189.282548 100.541733 
L 189.952148 102.113207 
L 190.865239 104.555038 
L 191.808766 107.903485 
L 192.417493 110.744225 
L 193.604511 117.94883 
L 194.578475 124.839142 
L 196.13073 138.01535 
L 198.930875 165.770002 
L 200.848366 183.721074 
L 202.40062 196.909367 
L 203.952875 207.800894 
L 205.018148 213.518641 
L 206.874766 221.146337 
L 207.544366 222.681545 
L 207.970475 223.165077 
L 208.487893 223.273872 
L 208.670511 223.261785 
L 209.370548 222.874957 
L 209.674911 222.343075 
L 210.009711 221.605691 
L 210.618439 220.155102 
L 211.622839 216.601148 
L 212.596802 212.29773 
L 213.692511 206.072271 
L 216.005675 189.716852 
L 218.775384 167.994243 
L 220.388511 154.866389 
L 223.24953 133.022897 
L 225.16702 120.813749 
L 227.51062 108.399102 
L 230.28033 97.833958 
L 231.406475 95.00531 
L 232.136948 94.050337 
L 232.410875 93.893186 
L 233.232657 93.989894 
L 233.96313 95.00531 
L 235.028402 97.797695 
L 236.002366 101.69012 
L 236.88502 106.005626 
L 238.863384 118.456539 
L 240.780875 132.938279 
L 244.098439 162.892996 
L 249.211748 210.593283 
L 251.829275 229.511416 
L 252.803239 235.023664 
L 254.355493 241.901889 
L 255.451202 245.419574 
L 256.333857 247.256984 
L 257.125202 248.308665 
L 257.916548 248.804288 
L 258.31222 248.876814 
L 258.525275 248.840551 
L 258.799202 248.755933 
L 259.194875 248.453726 
L 259.590548 248.006459 
L 260.107966 247.220721 
L 260.594948 246.253658 
L 261.629784 243.521711 
L 263.029857 238.130345 
L 265.921311 223.84202 
L 268.35622 208.671251 
L 271.917275 185.377165 
L 273.956511 171.717428 
L 275.113093 164.246881 
L 279.891602 134.582281 
L 281.200366 126.700733 
L 282.874366 116.776269 
L 284.944039 105.884745 
L 285.978875 101.121972 
L 286.77022 97.858138 
L 287.926802 94.122865 
L 288.900766 92.079949 
L 289.692111 91.016185 
L 290.726948 90.315064 
L 291.700911 90.411764 
L 292.248766 90.895297 
L 292.735748 91.415092 
L 293.314039 92.273365 
L 294.166257 93.820659 
L 295.962002 98.377934 
L 296.388111 99.888965 
L 297.24033 103.334124 
L 299.188257 113.149794 
L 301.044875 124.863319 
L 305.366839 153.294915 
L 307.19302 164.18644 
L 308.562657 171.838311 
L 310.084475 180.251742 
L 312.88462 194.141157 
L 313.615093 196.836839 
L 314.619493 200.016051 
L 316.050002 203.666708 
L 317.632693 206.567893 
L 318.150111 207.099775 
L 318.424039 207.401982 
L 319.276257 208.24816 
L 319.519748 208.356955 
L 320.858948 208.780046 
L 321.315493 208.683338 
L 321.498111 208.695428 
L 321.741602 208.695428 
L 321.92422 208.659161 
L 323.628657 207.885512 
L 324.237384 207.32945 
L 324.876548 206.688774 
L 326.063566 204.597503 
L 327.981057 200.547936 
L 329.442002 196.800575 
L 330.324657 194.358745 
L 331.602984 190.478413 
L 332.668257 187.081611 
L 333.30742 185.00243 
L 334.098766 182.306747 
L 335.529275 177.604413 
L 336.99022 172.61196 
L 338.146802 168.465685 
L 339.790366 163.00179 
L 341.068693 159.290693 
L 343.625348 153.476239 
L 344.629748 152.086088 
L 345.481966 151.542116 
L 345.78633 151.433322 
L 346.608111 151.215733 
L 348.37342 151.324527 
L 348.79953 151.602558 
L 349.13433 151.844323 
L 349.37782 152.025647 
L 349.80393 152.49709 
L 349.925675 152.63006 
L 350.412657 153.198208 
L 351.295311 154.419123 
L 353.030184 158.106043 
L 354.217202 161.200639 
L 358.660911 174.957082 
L 359.695748 177.519794 
L 360.42622 178.72862 
L 361.034948 179.50227 
L 361.552366 180.046242 
L 362.43502 180.928685 
L 362.982875 181.255068 
L 363.469857 181.508921 
L 364.44382 181.412215 
L 364.748184 181.291333 
L 365.022111 181.194626 
L 365.661275 180.81989 
L 365.965639 180.602302 
L 366.270002 180.324271 
L 366.635239 179.901182 
L 367.517893 178.293444 
L 369.46582 173.37352 
L 370.591966 168.937127 
L 371.596366 164.319411 
L 373.452984 155.712567 
L 374.761748 148.94314 
L 375.796584 143.805628 
L 380.453348 122.131371 
L 382.005602 116.413623 
L 382.401275 115.192706 
L 382.918693 113.645412 
L 382.918693 113.645412 
" style="fill:none;stroke:#ff0000;stroke-linecap:square;stroke-width:1.5;"/>
   </g>
   <g id="line2d_33">
    <path clip-path="url(#p6cb83f4dd4)" d="M 133.249202 174.825707 
" style="fill:none;stroke:#ffffff;stroke-linecap:square;stroke-width:1.5;"/>
    <defs>
     <path d="M 0 -5 
L -1.12257 -1.545085 
L -4.755283 -1.545085 
L -1.816356 0.59017 
L -2.938926 4.045085 
L -0 1.90983 
L 2.938926 4.045085 
L 1.816356 0.59017 
L 4.755283 -1.545085 
L 1.12257 -1.545085 
z
" id="mb623446fb0" style="stroke:#ffffff;stroke-linejoin:bevel;"/>
    </defs>
    <g clip-path="url(#p6cb83f4dd4)">
     <use style="fill:#0000ff;stroke:#ffffff;stroke-linejoin:bevel;" x="133.249202" xlink:href="#mb623446fb0" y="174.825707"/>
    </g>
   </g>
   <g id="line2d_34">
    <path clip-path="url(#p6cb83f4dd4)" d="M 106.465202 170.895426 
" style="fill:none;stroke:#ffffff;stroke-linecap:square;stroke-width:1.5;"/>
    <defs>
     <path d="M 0 -5 
L -1.12257 -1.545085 
L -4.755283 -1.545085 
L -1.816356 0.59017 
L -2.938926 4.045085 
L -0 1.90983 
L 2.938926 4.045085 
L 1.816356 0.59017 
L 4.755283 -1.545085 
L 1.12257 -1.545085 
z
" id="mc923feadf5" style="stroke:#ffffff;stroke-linejoin:bevel;"/>
    </defs>
    <g clip-path="url(#p6cb83f4dd4)">
     <use style="fill:#ff0000;stroke:#ffffff;stroke-linejoin:bevel;" x="106.465202" xlink:href="#mc923feadf5" y="170.895426"/>
    </g>
   </g>
   <g id="patch_3">
    <path d="M 63.336875 341.266595 
L 63.336875 8.626595 
" style="fill:none;stroke:#000000;stroke-linecap:square;stroke-linejoin:miter;stroke-width:0.8;"/>
   </g>
   <g id="patch_4">
    <path d="M 398.136875 341.266595 
L 398.136875 8.626595 
" style="fill:none;stroke:#000000;stroke-linecap:square;stroke-linejoin:miter;stroke-width:0.8;"/>
   </g>
   <g id="patch_5">
    <path d="M 63.336875 341.266595 
L 398.136875 341.266595 
" style="fill:none;stroke:#000000;stroke-linecap:square;stroke-linejoin:miter;stroke-width:0.8;"/>
   </g>
   <g id="patch_6">
    <path d="M 63.336875 8.626595 
L 398.136875 8.626595 
" style="fill:none;stroke:#000000;stroke-linecap:square;stroke-linejoin:miter;stroke-width:0.8;"/>
   </g>
   <g id="text_18">
    <g id="patch_7">
     <path d="M 75.036875 332.669282 
L 166.79375 332.669282 
L 166.79375 295.186907 
L 75.036875 295.186907 
z
" style="fill:#ffffff;stroke:#000000;stroke-linejoin:miter;stroke-width:0.75;"/>
    </g>
    <!-- Auto_00001 -->
    <g transform="translate(80.076875 309.948157)scale(0.14 -0.14)">
     <defs>
      <path d="M 2928 1419 
L 1288 1419 
L 1000 750 
Q 894 503 894 381 
Q 894 284 986 211 
Q 1078 138 1384 116 
L 1384 0 
L 50 0 
L 50 116 
Q 316 163 394 238 
Q 553 388 747 847 
L 2238 4334 
L 2347 4334 
L 3822 809 
Q 4000 384 4145 257 
Q 4291 131 4550 116 
L 4550 0 
L 2878 0 
L 2878 116 
Q 3131 128 3220 200 
Q 3309 272 3309 375 
Q 3309 513 3184 809 
L 2928 1419 
z
M 2841 1650 
L 2122 3363 
L 1384 1650 
L 2841 1650 
z
" id="TimesNewRomanPSMT-41" transform="scale(0.015625)"/>
      <path d="M 2709 2863 
L 2709 1128 
Q 2709 631 2732 520 
Q 2756 409 2807 365 
Q 2859 322 2928 322 
Q 3025 322 3147 375 
L 3191 266 
L 2334 -88 
L 2194 -88 
L 2194 519 
Q 1825 119 1631 15 
Q 1438 -88 1222 -88 
Q 981 -88 804 51 
Q 628 191 559 409 
Q 491 628 491 1028 
L 491 2306 
Q 491 2509 447 2587 
Q 403 2666 317 2708 
Q 231 2750 6 2747 
L 6 2863 
L 1009 2863 
L 1009 947 
Q 1009 547 1148 422 
Q 1288 297 1484 297 
Q 1619 297 1789 381 
Q 1959 466 2194 703 
L 2194 2325 
Q 2194 2569 2105 2655 
Q 2016 2741 1734 2747 
L 1734 2863 
L 2709 2863 
z
" id="TimesNewRomanPSMT-75" transform="scale(0.015625)"/>
      <path d="M 3256 -1381 
L -53 -1381 
L -53 -1119 
L 3256 -1119 
L 3256 -1381 
z
" id="TimesNewRomanPSMT-5f" transform="scale(0.015625)"/>
     </defs>
     <use xlink:href="#TimesNewRomanPSMT-41"/>
     <use x="72.216797" xlink:href="#TimesNewRomanPSMT-75"/>
     <use x="122.216797" xlink:href="#TimesNewRomanPSMT-74"/>
     <use x="150" xlink:href="#TimesNewRomanPSMT-6f"/>
     <use x="200" xlink:href="#TimesNewRomanPSMT-5f"/>
     <use x="250" xlink:href="#TimesNewRomanPSMT-30"/>
     <use x="300" xlink:href="#TimesNewRomanPSMT-30"/>
     <use x="350" xlink:href="#TimesNewRomanPSMT-30"/>
     <use x="400" xlink:href="#TimesNewRomanPSMT-30"/>
     <use x="450" xlink:href="#TimesNewRomanPSMT-31"/>
    </g>
    <!-- Vs: 227.16m/s -->
    <g transform="translate(80.076875 324.634595)scale(0.14 -0.14)">
     <defs>
      <path d="M 903 2950 
Q 1047 2950 1148 2848 
Q 1250 2747 1250 2603 
Q 1250 2459 1148 2357 
Q 1047 2256 903 2256 
Q 759 2256 657 2357 
Q 556 2459 556 2603 
Q 556 2747 657 2848 
Q 759 2950 903 2950 
z
M 897 609 
Q 1044 609 1145 506 
Q 1247 403 1247 259 
Q 1247 116 1144 14 
Q 1041 -88 897 -88 
Q 753 -88 651 14 
Q 550 116 550 259 
Q 550 403 651 506 
Q 753 609 897 609 
z
" id="TimesNewRomanPSMT-3a" transform="scale(0.015625)"/>
      <path d="M 644 4238 
L 2916 4238 
L 2916 4119 
L 1503 -88 
L 1153 -88 
L 2419 3728 
L 1253 3728 
Q 900 3728 750 3644 
Q 488 3500 328 3200 
L 238 3234 
L 644 4238 
z
" id="TimesNewRomanPSMT-37" transform="scale(0.015625)"/>
      <path d="M 1794 4444 
L 259 -88 
L 9 -88 
L 1544 4444 
L 1794 4444 
z
" id="TimesNewRomanPSMT-2f" transform="scale(0.015625)"/>
     </defs>
     <use xlink:href="#TimesNewRomanPSMT-56"/>
     <use x="72.216797" xlink:href="#TimesNewRomanPSMT-73"/>
     <use x="111.132812" xlink:href="#TimesNewRomanPSMT-3a"/>
     <use x="138.916016" xlink:href="#TimesNewRomanPSMT-20"/>
     <use x="163.916016" xlink:href="#TimesNewRomanPSMT-32"/>
     <use x="213.916016" xlink:href="#TimesNewRomanPSMT-32"/>
     <use x="263.916016" xlink:href="#TimesNewRomanPSMT-37"/>
     <use x="313.916016" xlink:href="#TimesNewRomanPSMT-2e"/>
     <use x="338.916016" xlink:href="#TimesNewRomanPSMT-31"/>
     <use x="388.916016" xlink:href="#TimesNewRomanPSMT-36"/>
     <use x="438.916016" xlink:href="#TimesNewRomanPSMT-6d"/>
     <use x="516.699219" xlink:href="#TimesNewRomanPSMT-2f"/>
     <use x="544.482422" xlink:href="#TimesNewRomanPSMT-73"/>
    </g>
   </g>
  </g>
 </g>
 <defs>
  <clipPath id="p6cb83f4dd4">
   <rect height="332.64" width="334.8" x="63.336875" y="8.626595"/>
  </clipPath>
 </defs>
</svg>
