<?xml version="1.0" encoding="utf-8" standalone="no"?>
<!DOCTYPE svg PUBLIC "-//W3C//DTD SVG 1.1//EN"
  "http://www.w3.org/Graphics/SVG/1.1/DTD/svg11.dtd">
<svg height="383.471875pt" version="1.1" viewBox="0 0 421.086875 383.471875" width="421.086875pt" xmlns="http://www.w3.org/2000/svg" xmlns:xlink="http://www.w3.org/1999/xlink">
 <metadata>
  <rdf:RDF xmlns:cc="http://creativecommons.org/ns#" xmlns:dc="http://purl.org/dc/elements/1.1/" xmlns:rdf="http://www.w3.org/1999/02/22-rdf-syntax-ns#">
   <cc:Work>
    <dc:type rdf:resource="http://purl.org/dc/dcmitype/StillImage"/>
    <dc:date>2021-06-11T14:39:37.061957</dc:date>
    <dc:format>image/svg+xml</dc:format>
    <dc:creator>
     <cc:Agent>
      <dc:title>Matplotlib v3.4.2, https://matplotlib.org/</dc:title>
     </cc:Agent>
    </dc:creator>
   </cc:Work>
  </rdf:RDF>
 </metadata>
 <defs>
  <style type="text/css">*{stroke-linecap:butt;stroke-linejoin:round;}</style>
 </defs>
 <g id="figure_1">
  <g id="patch_1">
   <path d="M 0 383.471875 
L 421.086875 383.471875 
L 421.086875 0 
L 0 0 
z
" style="fill:#ffffff;"/>
  </g>
  <g id="axes_1">
   <g id="patch_2">
    <path d="M 63.336875 339.84 
L 398.136875 339.84 
L 398.136875 7.2 
L 63.336875 7.2 
z
" style="fill:#ffffff;"/>
   </g>
   <g id="matplotlib.axis_1">
    <g id="xtick_1">
     <g id="line2d_1">
      <path clip-path="url(#p1b32c1935f)" d="M 93.773239 339.84 
L 93.773239 7.2 
" style="fill:none;stroke:#000000;stroke-dasharray:0.5,0.825;stroke-dashoffset:0;stroke-width:0.5;"/>
     </g>
     <g id="line2d_2">
      <defs>
       <path d="M 0 0 
L 0 3.5 
" id="m5eb5a465b9" style="stroke:#000000;stroke-width:0.8;"/>
      </defs>
      <g>
       <use style="stroke:#000000;stroke-width:0.8;" x="93.773239" xlink:href="#m5eb5a465b9" y="339.84"/>
      </g>
     </g>
     <g id="text_1">
      <!-- 0.000 -->
      <g transform="translate(78.023239 356.56125)scale(0.14 -0.14)">
       <defs>
        <path d="M 231 2094 
Q 231 2819 450 3342 
Q 669 3866 1031 4122 
Q 1313 4325 1613 4325 
Q 2100 4325 2488 3828 
Q 2972 3213 2972 2159 
Q 2972 1422 2759 906 
Q 2547 391 2217 158 
Q 1888 -75 1581 -75 
Q 975 -75 572 641 
Q 231 1244 231 2094 
z
M 844 2016 
Q 844 1141 1059 588 
Q 1238 122 1591 122 
Q 1759 122 1940 273 
Q 2122 425 2216 781 
Q 2359 1319 2359 2297 
Q 2359 3022 2209 3506 
Q 2097 3866 1919 4016 
Q 1791 4119 1609 4119 
Q 1397 4119 1231 3928 
Q 1006 3669 925 3112 
Q 844 2556 844 2016 
z
" id="TimesNewRomanPSMT-30" transform="scale(0.015625)"/>
        <path d="M 800 606 
Q 947 606 1047 504 
Q 1147 403 1147 259 
Q 1147 116 1045 14 
Q 944 -88 800 -88 
Q 656 -88 554 14 
Q 453 116 453 259 
Q 453 406 554 506 
Q 656 606 800 606 
z
" id="TimesNewRomanPSMT-2e" transform="scale(0.015625)"/>
       </defs>
       <use xlink:href="#TimesNewRomanPSMT-30"/>
       <use x="50" xlink:href="#TimesNewRomanPSMT-2e"/>
       <use x="75" xlink:href="#TimesNewRomanPSMT-30"/>
       <use x="125" xlink:href="#TimesNewRomanPSMT-30"/>
       <use x="175" xlink:href="#TimesNewRomanPSMT-30"/>
      </g>
     </g>
    </g>
    <g id="xtick_2">
     <g id="line2d_3">
      <path clip-path="url(#p1b32c1935f)" d="M 154.645966 339.84 
L 154.645966 7.2 
" style="fill:none;stroke:#000000;stroke-dasharray:0.5,0.825;stroke-dashoffset:0;stroke-width:0.5;"/>
     </g>
     <g id="line2d_4">
      <g>
       <use style="stroke:#000000;stroke-width:0.8;" x="154.645966" xlink:href="#m5eb5a465b9" y="339.84"/>
      </g>
     </g>
     <g id="text_2">
      <!-- 0.001 -->
      <g transform="translate(138.895966 356.56125)scale(0.14 -0.14)">
       <defs>
        <path d="M 750 3822 
L 1781 4325 
L 1884 4325 
L 1884 747 
Q 1884 391 1914 303 
Q 1944 216 2037 169 
Q 2131 122 2419 116 
L 2419 0 
L 825 0 
L 825 116 
Q 1125 122 1212 167 
Q 1300 213 1334 289 
Q 1369 366 1369 747 
L 1369 3034 
Q 1369 3497 1338 3628 
Q 1316 3728 1258 3775 
Q 1200 3822 1119 3822 
Q 1003 3822 797 3725 
L 750 3822 
z
" id="TimesNewRomanPSMT-31" transform="scale(0.015625)"/>
       </defs>
       <use xlink:href="#TimesNewRomanPSMT-30"/>
       <use x="50" xlink:href="#TimesNewRomanPSMT-2e"/>
       <use x="75" xlink:href="#TimesNewRomanPSMT-30"/>
       <use x="125" xlink:href="#TimesNewRomanPSMT-30"/>
       <use x="175" xlink:href="#TimesNewRomanPSMT-31"/>
      </g>
     </g>
    </g>
    <g id="xtick_3">
     <g id="line2d_5">
      <path clip-path="url(#p1b32c1935f)" d="M 215.518693 339.84 
L 215.518693 7.2 
" style="fill:none;stroke:#000000;stroke-dasharray:0.5,0.825;stroke-dashoffset:0;stroke-width:0.5;"/>
     </g>
     <g id="line2d_6">
      <g>
       <use style="stroke:#000000;stroke-width:0.8;" x="215.518693" xlink:href="#m5eb5a465b9" y="339.84"/>
      </g>
     </g>
     <g id="text_3">
      <!-- 0.002 -->
      <g transform="translate(199.768693 356.56125)scale(0.14 -0.14)">
       <defs>
        <path d="M 2934 816 
L 2638 0 
L 138 0 
L 138 116 
Q 1241 1122 1691 1759 
Q 2141 2397 2141 2925 
Q 2141 3328 1894 3587 
Q 1647 3847 1303 3847 
Q 991 3847 742 3664 
Q 494 3481 375 3128 
L 259 3128 
Q 338 3706 661 4015 
Q 984 4325 1469 4325 
Q 1984 4325 2329 3994 
Q 2675 3663 2675 3213 
Q 2675 2891 2525 2569 
Q 2294 2063 1775 1497 
Q 997 647 803 472 
L 1909 472 
Q 2247 472 2383 497 
Q 2519 522 2628 598 
Q 2738 675 2819 816 
L 2934 816 
z
" id="TimesNewRomanPSMT-32" transform="scale(0.015625)"/>
       </defs>
       <use xlink:href="#TimesNewRomanPSMT-30"/>
       <use x="50" xlink:href="#TimesNewRomanPSMT-2e"/>
       <use x="75" xlink:href="#TimesNewRomanPSMT-30"/>
       <use x="125" xlink:href="#TimesNewRomanPSMT-30"/>
       <use x="175" xlink:href="#TimesNewRomanPSMT-32"/>
      </g>
     </g>
    </g>
    <g id="xtick_4">
     <g id="line2d_7">
      <path clip-path="url(#p1b32c1935f)" d="M 276.39142 339.84 
L 276.39142 7.2 
" style="fill:none;stroke:#000000;stroke-dasharray:0.5,0.825;stroke-dashoffset:0;stroke-width:0.5;"/>
     </g>
     <g id="line2d_8">
      <g>
       <use style="stroke:#000000;stroke-width:0.8;" x="276.39142" xlink:href="#m5eb5a465b9" y="339.84"/>
      </g>
     </g>
     <g id="text_4">
      <!-- 0.003 -->
      <g transform="translate(260.64142 356.56125)scale(0.14 -0.14)">
       <defs>
        <path d="M 325 3431 
Q 506 3859 782 4092 
Q 1059 4325 1472 4325 
Q 1981 4325 2253 3994 
Q 2459 3747 2459 3466 
Q 2459 3003 1878 2509 
Q 2269 2356 2469 2072 
Q 2669 1788 2669 1403 
Q 2669 853 2319 450 
Q 1863 -75 997 -75 
Q 569 -75 414 31 
Q 259 138 259 259 
Q 259 350 332 419 
Q 406 488 509 488 
Q 588 488 669 463 
Q 722 447 909 348 
Q 1097 250 1169 231 
Q 1284 197 1416 197 
Q 1734 197 1970 444 
Q 2206 691 2206 1028 
Q 2206 1275 2097 1509 
Q 2016 1684 1919 1775 
Q 1784 1900 1550 2001 
Q 1316 2103 1072 2103 
L 972 2103 
L 972 2197 
Q 1219 2228 1467 2375 
Q 1716 2522 1828 2728 
Q 1941 2934 1941 3181 
Q 1941 3503 1739 3701 
Q 1538 3900 1238 3900 
Q 753 3900 428 3381 
L 325 3431 
z
" id="TimesNewRomanPSMT-33" transform="scale(0.015625)"/>
       </defs>
       <use xlink:href="#TimesNewRomanPSMT-30"/>
       <use x="50" xlink:href="#TimesNewRomanPSMT-2e"/>
       <use x="75" xlink:href="#TimesNewRomanPSMT-30"/>
       <use x="125" xlink:href="#TimesNewRomanPSMT-30"/>
       <use x="175" xlink:href="#TimesNewRomanPSMT-33"/>
      </g>
     </g>
    </g>
    <g id="xtick_5">
     <g id="line2d_9">
      <path clip-path="url(#p1b32c1935f)" d="M 337.264148 339.84 
L 337.264148 7.2 
" style="fill:none;stroke:#000000;stroke-dasharray:0.5,0.825;stroke-dashoffset:0;stroke-width:0.5;"/>
     </g>
     <g id="line2d_10">
      <g>
       <use style="stroke:#000000;stroke-width:0.8;" x="337.264148" xlink:href="#m5eb5a465b9" y="339.84"/>
      </g>
     </g>
     <g id="text_5">
      <!-- 0.004 -->
      <g transform="translate(321.514148 356.56125)scale(0.14 -0.14)">
       <defs>
        <path d="M 2978 1563 
L 2978 1119 
L 2409 1119 
L 2409 0 
L 1894 0 
L 1894 1119 
L 100 1119 
L 100 1519 
L 2066 4325 
L 2409 4325 
L 2409 1563 
L 2978 1563 
z
M 1894 1563 
L 1894 3666 
L 406 1563 
L 1894 1563 
z
" id="TimesNewRomanPSMT-34" transform="scale(0.015625)"/>
       </defs>
       <use xlink:href="#TimesNewRomanPSMT-30"/>
       <use x="50" xlink:href="#TimesNewRomanPSMT-2e"/>
       <use x="75" xlink:href="#TimesNewRomanPSMT-30"/>
       <use x="125" xlink:href="#TimesNewRomanPSMT-30"/>
       <use x="175" xlink:href="#TimesNewRomanPSMT-34"/>
      </g>
     </g>
    </g>
    <g id="xtick_6">
     <g id="line2d_11">
      <path clip-path="url(#p1b32c1935f)" d="M 398.136875 339.84 
L 398.136875 7.2 
" style="fill:none;stroke:#000000;stroke-dasharray:0.5,0.825;stroke-dashoffset:0;stroke-width:0.5;"/>
     </g>
     <g id="line2d_12">
      <g>
       <use style="stroke:#000000;stroke-width:0.8;" x="398.136875" xlink:href="#m5eb5a465b9" y="339.84"/>
      </g>
     </g>
     <g id="text_6">
      <!-- 0.005 -->
      <g transform="translate(382.386875 356.56125)scale(0.14 -0.14)">
       <defs>
        <path d="M 2778 4238 
L 2534 3706 
L 1259 3706 
L 981 3138 
Q 1809 3016 2294 2522 
Q 2709 2097 2709 1522 
Q 2709 1188 2573 903 
Q 2438 619 2231 419 
Q 2025 219 1772 97 
Q 1413 -75 1034 -75 
Q 653 -75 479 54 
Q 306 184 306 341 
Q 306 428 378 495 
Q 450 563 559 563 
Q 641 563 702 538 
Q 763 513 909 409 
Q 1144 247 1384 247 
Q 1750 247 2026 523 
Q 2303 800 2303 1197 
Q 2303 1581 2056 1914 
Q 1809 2247 1375 2428 
Q 1034 2569 447 2591 
L 1259 4238 
L 2778 4238 
z
" id="TimesNewRomanPSMT-35" transform="scale(0.015625)"/>
       </defs>
       <use xlink:href="#TimesNewRomanPSMT-30"/>
       <use x="50" xlink:href="#TimesNewRomanPSMT-2e"/>
       <use x="75" xlink:href="#TimesNewRomanPSMT-30"/>
       <use x="125" xlink:href="#TimesNewRomanPSMT-30"/>
       <use x="175" xlink:href="#TimesNewRomanPSMT-35"/>
      </g>
     </g>
    </g>
    <g id="text_7">
     <!-- Time (sec) -->
     <g transform="translate(200.858906 373.277188)scale(0.14 -0.14)">
      <defs>
       <path d="M 3703 4238 
L 3750 3244 
L 3631 3244 
Q 3597 3506 3538 3619 
Q 3441 3800 3280 3886 
Q 3119 3972 2856 3972 
L 2259 3972 
L 2259 734 
Q 2259 344 2344 247 
Q 2463 116 2709 116 
L 2856 116 
L 2856 0 
L 1059 0 
L 1059 116 
L 1209 116 
Q 1478 116 1591 278 
Q 1659 378 1659 734 
L 1659 3972 
L 1150 3972 
Q 853 3972 728 3928 
Q 566 3869 450 3700 
Q 334 3531 313 3244 
L 194 3244 
L 244 4238 
L 3703 4238 
z
" id="TimesNewRomanPSMT-54" transform="scale(0.015625)"/>
       <path d="M 928 4444 
Q 1059 4444 1151 4351 
Q 1244 4259 1244 4128 
Q 1244 3997 1151 3903 
Q 1059 3809 928 3809 
Q 797 3809 703 3903 
Q 609 3997 609 4128 
Q 609 4259 701 4351 
Q 794 4444 928 4444 
z
M 1188 2947 
L 1188 647 
Q 1188 378 1227 289 
Q 1266 200 1342 156 
Q 1419 113 1622 113 
L 1622 0 
L 231 0 
L 231 113 
Q 441 113 512 153 
Q 584 194 626 287 
Q 669 381 669 647 
L 669 1750 
Q 669 2216 641 2353 
Q 619 2453 572 2492 
Q 525 2531 444 2531 
Q 356 2531 231 2484 
L 188 2597 
L 1050 2947 
L 1188 2947 
z
" id="TimesNewRomanPSMT-69" transform="scale(0.015625)"/>
       <path d="M 1050 2338 
Q 1363 2650 1419 2697 
Q 1559 2816 1721 2881 
Q 1884 2947 2044 2947 
Q 2313 2947 2506 2790 
Q 2700 2634 2766 2338 
Q 3088 2713 3309 2830 
Q 3531 2947 3766 2947 
Q 3994 2947 4170 2830 
Q 4347 2713 4450 2447 
Q 4519 2266 4519 1878 
L 4519 647 
Q 4519 378 4559 278 
Q 4591 209 4675 161 
Q 4759 113 4950 113 
L 4950 0 
L 3538 0 
L 3538 113 
L 3597 113 
Q 3781 113 3884 184 
Q 3956 234 3988 344 
Q 4000 397 4000 647 
L 4000 1878 
Q 4000 2228 3916 2372 
Q 3794 2572 3525 2572 
Q 3359 2572 3192 2489 
Q 3025 2406 2788 2181 
L 2781 2147 
L 2788 2013 
L 2788 647 
Q 2788 353 2820 281 
Q 2853 209 2943 161 
Q 3034 113 3253 113 
L 3253 0 
L 1806 0 
L 1806 113 
Q 2044 113 2133 169 
Q 2222 225 2256 338 
Q 2272 391 2272 647 
L 2272 1878 
Q 2272 2228 2169 2381 
Q 2031 2581 1784 2581 
Q 1616 2581 1450 2491 
Q 1191 2353 1050 2181 
L 1050 647 
Q 1050 366 1089 281 
Q 1128 197 1204 155 
Q 1281 113 1516 113 
L 1516 0 
L 100 0 
L 100 113 
Q 297 113 375 155 
Q 453 197 493 289 
Q 534 381 534 647 
L 534 1741 
Q 534 2213 506 2350 
Q 484 2453 437 2492 
Q 391 2531 309 2531 
Q 222 2531 100 2484 
L 53 2597 
L 916 2947 
L 1050 2947 
L 1050 2338 
z
" id="TimesNewRomanPSMT-6d" transform="scale(0.015625)"/>
       <path d="M 681 1784 
Q 678 1147 991 784 
Q 1303 422 1725 422 
Q 2006 422 2214 576 
Q 2422 731 2563 1106 
L 2659 1044 
Q 2594 616 2278 264 
Q 1963 -88 1488 -88 
Q 972 -88 605 314 
Q 238 716 238 1394 
Q 238 2128 614 2539 
Q 991 2950 1559 2950 
Q 2041 2950 2350 2633 
Q 2659 2316 2659 1784 
L 681 1784 
z
M 681 1966 
L 2006 1966 
Q 1991 2241 1941 2353 
Q 1863 2528 1708 2628 
Q 1553 2728 1384 2728 
Q 1125 2728 920 2526 
Q 716 2325 681 1966 
z
" id="TimesNewRomanPSMT-65" transform="scale(0.015625)"/>
       <path id="TimesNewRomanPSMT-20" transform="scale(0.015625)"/>
       <path d="M 1988 -1253 
L 1988 -1369 
Q 1516 -1131 1200 -813 
Q 750 -359 506 256 
Q 263 872 263 1534 
Q 263 2503 741 3301 
Q 1219 4100 1988 4444 
L 1988 4313 
Q 1603 4100 1356 3731 
Q 1109 3363 987 2797 
Q 866 2231 866 1616 
Q 866 947 969 400 
Q 1050 -31 1165 -292 
Q 1281 -553 1476 -793 
Q 1672 -1034 1988 -1253 
z
" id="TimesNewRomanPSMT-28" transform="scale(0.015625)"/>
       <path d="M 2050 2947 
L 2050 1972 
L 1947 1972 
Q 1828 2431 1642 2597 
Q 1456 2763 1169 2763 
Q 950 2763 815 2647 
Q 681 2531 681 2391 
Q 681 2216 781 2091 
Q 878 1963 1175 1819 
L 1631 1597 
Q 2266 1288 2266 781 
Q 2266 391 1970 151 
Q 1675 -88 1309 -88 
Q 1047 -88 709 6 
Q 606 38 541 38 
Q 469 38 428 -44 
L 325 -44 
L 325 978 
L 428 978 
Q 516 541 762 319 
Q 1009 97 1316 97 
Q 1531 97 1667 223 
Q 1803 350 1803 528 
Q 1803 744 1651 891 
Q 1500 1038 1047 1263 
Q 594 1488 453 1669 
Q 313 1847 313 2119 
Q 313 2472 555 2709 
Q 797 2947 1181 2947 
Q 1350 2947 1591 2875 
Q 1750 2828 1803 2828 
Q 1853 2828 1881 2850 
Q 1909 2872 1947 2947 
L 2050 2947 
z
" id="TimesNewRomanPSMT-73" transform="scale(0.015625)"/>
       <path d="M 2631 1088 
Q 2516 522 2178 217 
Q 1841 -88 1431 -88 
Q 944 -88 581 321 
Q 219 731 219 1428 
Q 219 2103 620 2525 
Q 1022 2947 1584 2947 
Q 2006 2947 2278 2723 
Q 2550 2500 2550 2259 
Q 2550 2141 2473 2067 
Q 2397 1994 2259 1994 
Q 2075 1994 1981 2113 
Q 1928 2178 1911 2362 
Q 1894 2547 1784 2644 
Q 1675 2738 1481 2738 
Q 1169 2738 978 2506 
Q 725 2200 725 1697 
Q 725 1184 976 792 
Q 1228 400 1656 400 
Q 1963 400 2206 609 
Q 2378 753 2541 1131 
L 2631 1088 
z
" id="TimesNewRomanPSMT-63" transform="scale(0.015625)"/>
       <path d="M 144 4313 
L 144 4444 
Q 619 4209 934 3891 
Q 1381 3434 1625 2820 
Q 1869 2206 1869 1541 
Q 1869 572 1392 -226 
Q 916 -1025 144 -1369 
L 144 -1253 
Q 528 -1038 776 -670 
Q 1025 -303 1145 264 
Q 1266 831 1266 1447 
Q 1266 2113 1163 2663 
Q 1084 3094 967 3353 
Q 850 3613 656 3853 
Q 463 4094 144 4313 
z
" id="TimesNewRomanPSMT-29" transform="scale(0.015625)"/>
      </defs>
      <use xlink:href="#TimesNewRomanPSMT-54"/>
      <use x="57.583984" xlink:href="#TimesNewRomanPSMT-69"/>
      <use x="85.367188" xlink:href="#TimesNewRomanPSMT-6d"/>
      <use x="163.150391" xlink:href="#TimesNewRomanPSMT-65"/>
      <use x="207.535156" xlink:href="#TimesNewRomanPSMT-20"/>
      <use x="232.535156" xlink:href="#TimesNewRomanPSMT-28"/>
      <use x="265.835938" xlink:href="#TimesNewRomanPSMT-73"/>
      <use x="304.751953" xlink:href="#TimesNewRomanPSMT-65"/>
      <use x="349.136719" xlink:href="#TimesNewRomanPSMT-63"/>
      <use x="393.521484" xlink:href="#TimesNewRomanPSMT-29"/>
     </g>
    </g>
   </g>
   <g id="matplotlib.axis_2">
    <g id="ytick_1">
     <g id="line2d_13">
      <path clip-path="url(#p1b32c1935f)" d="M 63.336875 282.067997 
L 398.136875 282.067997 
" style="fill:none;stroke:#000000;stroke-dasharray:0.5,0.825;stroke-dashoffset:0;stroke-width:0.5;"/>
     </g>
     <g id="line2d_14">
      <defs>
       <path d="M 0 0 
L -3.5 0 
" id="m29a12c746f" style="stroke:#000000;stroke-width:0.8;"/>
      </defs>
      <g>
       <use style="stroke:#000000;stroke-width:0.8;" x="63.336875" xlink:href="#m29a12c746f" y="282.067997"/>
      </g>
     </g>
     <g id="text_8">
      <!-- −0.04 -->
      <g transform="translate(23.942188 286.928622)scale(0.14 -0.14)">
       <defs>
        <path d="M 3484 2000 
L 116 2000 
L 116 2256 
L 3484 2256 
L 3484 2000 
z
" id="TimesNewRomanPSMT-2212" transform="scale(0.015625)"/>
       </defs>
       <use xlink:href="#TimesNewRomanPSMT-2212"/>
       <use x="56.396484" xlink:href="#TimesNewRomanPSMT-30"/>
       <use x="106.396484" xlink:href="#TimesNewRomanPSMT-2e"/>
       <use x="131.396484" xlink:href="#TimesNewRomanPSMT-30"/>
       <use x="181.396484" xlink:href="#TimesNewRomanPSMT-34"/>
      </g>
     </g>
    </g>
    <g id="ytick_2">
     <g id="line2d_15">
      <path clip-path="url(#p1b32c1935f)" d="M 63.336875 217.676195 
L 398.136875 217.676195 
" style="fill:none;stroke:#000000;stroke-dasharray:0.5,0.825;stroke-dashoffset:0;stroke-width:0.5;"/>
     </g>
     <g id="line2d_16">
      <g>
       <use style="stroke:#000000;stroke-width:0.8;" x="63.336875" xlink:href="#m29a12c746f" y="217.676195"/>
      </g>
     </g>
     <g id="text_9">
      <!-- −0.02 -->
      <g transform="translate(23.942188 222.53682)scale(0.14 -0.14)">
       <use xlink:href="#TimesNewRomanPSMT-2212"/>
       <use x="56.396484" xlink:href="#TimesNewRomanPSMT-30"/>
       <use x="106.396484" xlink:href="#TimesNewRomanPSMT-2e"/>
       <use x="131.396484" xlink:href="#TimesNewRomanPSMT-30"/>
       <use x="181.396484" xlink:href="#TimesNewRomanPSMT-32"/>
      </g>
     </g>
    </g>
    <g id="ytick_3">
     <g id="line2d_17">
      <path clip-path="url(#p1b32c1935f)" d="M 63.336875 153.284393 
L 398.136875 153.284393 
" style="fill:none;stroke:#000000;stroke-dasharray:0.5,0.825;stroke-dashoffset:0;stroke-width:0.5;"/>
     </g>
     <g id="line2d_18">
      <g>
       <use style="stroke:#000000;stroke-width:0.8;" x="63.336875" xlink:href="#m29a12c746f" y="153.284393"/>
      </g>
     </g>
     <g id="text_10">
      <!-- 0.00 -->
      <g transform="translate(31.836875 158.145018)scale(0.14 -0.14)">
       <use xlink:href="#TimesNewRomanPSMT-30"/>
       <use x="50" xlink:href="#TimesNewRomanPSMT-2e"/>
       <use x="75" xlink:href="#TimesNewRomanPSMT-30"/>
       <use x="125" xlink:href="#TimesNewRomanPSMT-30"/>
      </g>
     </g>
    </g>
    <g id="ytick_4">
     <g id="line2d_19">
      <path clip-path="url(#p1b32c1935f)" d="M 63.336875 88.892591 
L 398.136875 88.892591 
" style="fill:none;stroke:#000000;stroke-dasharray:0.5,0.825;stroke-dashoffset:0;stroke-width:0.5;"/>
     </g>
     <g id="line2d_20">
      <g>
       <use style="stroke:#000000;stroke-width:0.8;" x="63.336875" xlink:href="#m29a12c746f" y="88.892591"/>
      </g>
     </g>
     <g id="text_11">
      <!-- 0.02 -->
      <g transform="translate(31.836875 93.753216)scale(0.14 -0.14)">
       <use xlink:href="#TimesNewRomanPSMT-30"/>
       <use x="50" xlink:href="#TimesNewRomanPSMT-2e"/>
       <use x="75" xlink:href="#TimesNewRomanPSMT-30"/>
       <use x="125" xlink:href="#TimesNewRomanPSMT-32"/>
      </g>
     </g>
    </g>
    <g id="ytick_5">
     <g id="line2d_21">
      <path clip-path="url(#p1b32c1935f)" d="M 63.336875 24.500789 
L 398.136875 24.500789 
" style="fill:none;stroke:#000000;stroke-dasharray:0.5,0.825;stroke-dashoffset:0;stroke-width:0.5;"/>
     </g>
     <g id="line2d_22">
      <g>
       <use style="stroke:#000000;stroke-width:0.8;" x="63.336875" xlink:href="#m29a12c746f" y="24.500789"/>
      </g>
     </g>
     <g id="text_12">
      <!-- 0.04 -->
      <g transform="translate(31.836875 29.361414)scale(0.14 -0.14)">
       <use xlink:href="#TimesNewRomanPSMT-30"/>
       <use x="50" xlink:href="#TimesNewRomanPSMT-2e"/>
       <use x="75" xlink:href="#TimesNewRomanPSMT-30"/>
       <use x="125" xlink:href="#TimesNewRomanPSMT-34"/>
      </g>
     </g>
    </g>
    <g id="text_13">
     <!-- Volatage (V) -->
     <g transform="translate(16.92125 209.352344)rotate(-90)scale(0.14 -0.14)">
      <defs>
       <path d="M 4544 4238 
L 4544 4122 
Q 4319 4081 4203 3978 
Q 4038 3825 3909 3509 
L 2431 -97 
L 2316 -97 
L 728 3556 
Q 606 3838 556 3900 
Q 478 3997 364 4051 
Q 250 4106 56 4122 
L 56 4238 
L 1788 4238 
L 1788 4122 
Q 1494 4094 1406 4022 
Q 1319 3950 1319 3838 
Q 1319 3681 1463 3350 
L 2541 866 
L 3541 3319 
Q 3688 3681 3688 3822 
Q 3688 3913 3597 3995 
Q 3506 4078 3291 4113 
Q 3275 4116 3238 4122 
L 3238 4238 
L 4544 4238 
z
" id="TimesNewRomanPSMT-56" transform="scale(0.015625)"/>
       <path d="M 1600 2947 
Q 2250 2947 2644 2453 
Q 2978 2031 2978 1484 
Q 2978 1100 2793 706 
Q 2609 313 2286 112 
Q 1963 -88 1566 -88 
Q 919 -88 538 428 
Q 216 863 216 1403 
Q 216 1797 411 2186 
Q 606 2575 925 2761 
Q 1244 2947 1600 2947 
z
M 1503 2744 
Q 1338 2744 1170 2645 
Q 1003 2547 900 2300 
Q 797 2053 797 1666 
Q 797 1041 1045 587 
Q 1294 134 1700 134 
Q 2003 134 2200 384 
Q 2397 634 2397 1244 
Q 2397 2006 2069 2444 
Q 1847 2744 1503 2744 
z
" id="TimesNewRomanPSMT-6f" transform="scale(0.015625)"/>
       <path d="M 1184 4444 
L 1184 647 
Q 1184 378 1223 290 
Q 1263 203 1344 158 
Q 1425 113 1647 113 
L 1647 0 
L 244 0 
L 244 113 
Q 441 113 512 153 
Q 584 194 625 287 
Q 666 381 666 647 
L 666 3247 
Q 666 3731 644 3842 
Q 622 3953 573 3993 
Q 525 4034 450 4034 
Q 369 4034 244 3984 
L 191 4094 
L 1044 4444 
L 1184 4444 
z
" id="TimesNewRomanPSMT-6c" transform="scale(0.015625)"/>
       <path d="M 1822 413 
Q 1381 72 1269 19 
Q 1100 -59 909 -59 
Q 613 -59 420 144 
Q 228 347 228 678 
Q 228 888 322 1041 
Q 450 1253 767 1440 
Q 1084 1628 1822 1897 
L 1822 2009 
Q 1822 2438 1686 2597 
Q 1550 2756 1291 2756 
Q 1094 2756 978 2650 
Q 859 2544 859 2406 
L 866 2225 
Q 866 2081 792 2003 
Q 719 1925 600 1925 
Q 484 1925 411 2006 
Q 338 2088 338 2228 
Q 338 2497 613 2722 
Q 888 2947 1384 2947 
Q 1766 2947 2009 2819 
Q 2194 2722 2281 2516 
Q 2338 2381 2338 1966 
L 2338 994 
Q 2338 584 2353 492 
Q 2369 400 2405 369 
Q 2441 338 2488 338 
Q 2538 338 2575 359 
Q 2641 400 2828 588 
L 2828 413 
Q 2478 -56 2159 -56 
Q 2006 -56 1915 50 
Q 1825 156 1822 413 
z
M 1822 616 
L 1822 1706 
Q 1350 1519 1213 1441 
Q 966 1303 859 1153 
Q 753 1003 753 825 
Q 753 600 887 451 
Q 1022 303 1197 303 
Q 1434 303 1822 616 
z
" id="TimesNewRomanPSMT-61" transform="scale(0.015625)"/>
       <path d="M 1031 3803 
L 1031 2863 
L 1700 2863 
L 1700 2644 
L 1031 2644 
L 1031 788 
Q 1031 509 1111 412 
Q 1191 316 1316 316 
Q 1419 316 1516 380 
Q 1613 444 1666 569 
L 1788 569 
Q 1678 263 1478 108 
Q 1278 -47 1066 -47 
Q 922 -47 784 33 
Q 647 113 581 261 
Q 516 409 516 719 
L 516 2644 
L 63 2644 
L 63 2747 
Q 234 2816 414 2980 
Q 594 3144 734 3369 
Q 806 3488 934 3803 
L 1031 3803 
z
" id="TimesNewRomanPSMT-74" transform="scale(0.015625)"/>
       <path d="M 966 1044 
Q 703 1172 562 1401 
Q 422 1631 422 1909 
Q 422 2334 742 2640 
Q 1063 2947 1563 2947 
Q 1972 2947 2272 2747 
L 2878 2747 
Q 3013 2747 3034 2739 
Q 3056 2731 3066 2713 
Q 3084 2684 3084 2613 
Q 3084 2531 3069 2500 
Q 3059 2484 3036 2475 
Q 3013 2466 2878 2466 
L 2506 2466 
Q 2681 2241 2681 1891 
Q 2681 1491 2375 1206 
Q 2069 922 1553 922 
Q 1341 922 1119 984 
Q 981 866 932 777 
Q 884 688 884 625 
Q 884 572 936 522 
Q 988 472 1138 450 
Q 1225 438 1575 428 
Q 2219 413 2409 384 
Q 2700 344 2873 169 
Q 3047 -6 3047 -263 
Q 3047 -616 2716 -925 
Q 2228 -1381 1444 -1381 
Q 841 -1381 425 -1109 
Q 191 -953 191 -784 
Q 191 -709 225 -634 
Q 278 -519 444 -313 
Q 466 -284 763 25 
Q 600 122 533 198 
Q 466 275 466 372 
Q 466 481 555 628 
Q 644 775 966 1044 
z
M 1509 2797 
Q 1278 2797 1122 2612 
Q 966 2428 966 2047 
Q 966 1553 1178 1281 
Q 1341 1075 1591 1075 
Q 1828 1075 1981 1253 
Q 2134 1431 2134 1813 
Q 2134 2309 1919 2591 
Q 1759 2797 1509 2797 
z
M 934 0 
Q 788 -159 713 -296 
Q 638 -434 638 -550 
Q 638 -700 819 -813 
Q 1131 -1006 1722 -1006 
Q 2284 -1006 2551 -807 
Q 2819 -609 2819 -384 
Q 2819 -222 2659 -153 
Q 2497 -84 2016 -72 
Q 1313 -53 934 0 
z
" id="TimesNewRomanPSMT-67" transform="scale(0.015625)"/>
      </defs>
      <use xlink:href="#TimesNewRomanPSMT-56"/>
      <use x="59.341797" xlink:href="#TimesNewRomanPSMT-6f"/>
      <use x="109.341797" xlink:href="#TimesNewRomanPSMT-6c"/>
      <use x="137.125" xlink:href="#TimesNewRomanPSMT-61"/>
      <use x="181.509766" xlink:href="#TimesNewRomanPSMT-74"/>
      <use x="209.292969" xlink:href="#TimesNewRomanPSMT-61"/>
      <use x="253.677734" xlink:href="#TimesNewRomanPSMT-67"/>
      <use x="303.677734" xlink:href="#TimesNewRomanPSMT-65"/>
      <use x="348.0625" xlink:href="#TimesNewRomanPSMT-20"/>
      <use x="373.0625" xlink:href="#TimesNewRomanPSMT-28"/>
      <use x="406.363281" xlink:href="#TimesNewRomanPSMT-56"/>
      <use x="478.580078" xlink:href="#TimesNewRomanPSMT-29"/>
     </g>
    </g>
   </g>
   <g id="LineCollection_1">
    <path clip-path="url(#p1b32c1935f)" d="M 78.555057 153.284393 
L 382.918693 153.284393 
" style="fill:none;stroke:#1f77b4;stroke-width:1.5;"/>
   </g>
   <g id="line2d_23">
    <path clip-path="url(#p1b32c1935f)" d="M 78.555057 153.236582 
L 78.646366 153.276827 
L 78.676802 153.196338 
L 78.737675 153.276827 
L 86.833748 153.357317 
L 86.925057 153.397562 
L 86.955493 153.357317 
L 89.755639 153.397562 
L 89.786075 153.478052 
L 89.877384 153.437807 
L 89.968693 153.397562 
L 89.99913 153.437807 
L 90.120875 153.437807 
L 91.67313 153.518297 
L 91.794875 153.518297 
L 94.564584 153.437807 
L 94.655893 153.397562 
L 94.68633 153.437807 
L 99.434402 153.518297 
L 99.464839 153.558541 
L 99.525711 153.478052 
L 106.769566 153.558541 
L 106.891311 153.558541 
L 107.043493 153.518297 
L 107.07393 153.598786 
L 107.134802 153.558541 
L 107.256548 153.478052 
L 107.40873 153.598786 
L 107.591348 153.518297 
L 107.773966 153.598786 
L 110.817602 153.679276 
L 110.969784 153.719521 
L 111.09153 153.639031 
L 111.213275 153.719521 
L 111.943748 153.800011 
L 112.065493 153.8805 
L 112.09593 153.800011 
L 112.156802 153.840255 
L 112.308984 153.8805 
L 112.795966 153.96099 
L 112.917711 154.001235 
L 113.00902 153.96099 
L 113.130766 154.04148 
L 113.374257 154.12197 
L 113.465566 154.162215 
L 113.496002 154.12197 
L 113.617748 154.162215 
L 113.648184 154.242704 
L 113.739493 154.202459 
L 114.074293 154.242704 
L 114.196039 154.323194 
L 114.530839 154.403684 
L 114.652584 154.443929 
L 114.68302 154.403684 
L 114.743893 154.484174 
L 115.048257 154.564663 
L 115.230875 154.645153 
L 115.35262 154.645153 
L 115.626548 154.725643 
L 115.77873 154.765888 
L 115.870039 154.765888 
L 116.083093 154.886622 
L 116.11353 154.806133 
L 116.143966 154.926867 
L 116.174402 154.926867 
L 116.265711 154.926867 
L 116.417893 154.967112 
L 117.087493 155.047602 
L 117.209239 155.128092 
L 117.239675 155.087847 
L 117.513602 155.128092 
L 117.604911 155.208581 
L 117.635348 155.087847 
L 117.69622 155.289071 
L 117.757093 155.168336 
L 117.848402 155.248826 
L 118.152766 155.289071 
L 118.274511 155.369561 
L 118.487566 155.450051 
L 118.639748 155.490295 
L 118.761493 155.490295 
L 118.974548 155.61103 
L 119.248475 155.69152 
L 119.46153 155.812254 
L 119.583275 155.892744 
L 119.735457 155.932989 
L 119.887639 156.013479 
L 120.161566 156.214703 
L 120.405057 156.295193 
L 120.831166 156.697642 
L 120.922475 156.778131 
L 122.200802 158.629396 
L 122.839966 160.037966 
L 123.022584 160.440415 
L 123.996548 163.257557 
L 124.270475 164.183189 
L 124.635711 165.43078 
L 126.370584 172.715102 
L 126.766257 174.646856 
L 126.918439 175.331019 
L 128.288075 182.011669 
L 128.40982 182.615343 
L 128.988111 185.351993 
L 129.475093 187.364237 
L 130.966475 192.837541 
L 131.057784 193.119255 
L 132.001311 195.332723 
L 132.366548 195.735172 
L 132.396984 195.694927 
L 132.579602 195.735172 
L 132.701348 195.815661 
L 133.09702 195.775417 
L 133.249202 195.614437 
L 133.52313 195.131499 
L 133.584002 195.091254 
L 134.131857 193.924152 
L 134.314475 193.521703 
L 134.649275 192.636316 
L 134.740584 192.354602 
L 135.19713 190.865542 
L 136.140657 186.680075 
L 136.688511 183.219015 
L 138.849493 165.189311 
L 140.340875 148.326708 
L 142.349675 120.678478 
L 142.836657 113.635624 
L 144.054111 96.008368 
L 144.997639 82.164131 
L 145.636802 73.028547 
L 146.671639 59.506266 
L 149.380475 32.019018 
L 150.080511 27.350606 
L 150.202257 26.74694 
L 150.810984 24.090771 
L 151.450148 22.641953 
L 151.60233 22.561476 
L 151.815384 22.400493 
L 151.84582 22.440731 
L 151.876257 22.400493 
L 151.906693 22.32 
L 151.967566 22.360242 
L 152.089311 22.360242 
L 152.454548 22.440731 
L 152.94153 23.245632 
L 153.641566 25.378617 
L 154.067675 27.471347 
L 155.224257 35.842282 
L 156.19822 45.863249 
L 157.324366 60.552632 
L 158.085275 72.022419 
L 159.54622 99.026734 
L 162.98553 174.083429 
L 165.511748 231.593356 
L 167.277057 266.606399 
L 168.190148 282.623866 
L 169.772839 304.03413 
L 170.92942 315.101471 
L 172.116439 322.265063 
L 172.60342 323.794368 
L 172.69473 324.035844 
L 172.907784 324.478524 
L 173.212148 324.72 
L 174.216548 323.230943 
L 174.673093 321.782127 
L 176.255784 312.847758 
L 176.803639 308.501308 
L 178.568948 291.155767 
L 179.999457 272.884596 
L 180.851675 261.052606 
L 181.73433 247.932776 
L 188.460766 142.893649 
L 189.647784 127.520107 
L 190.378257 118.505254 
L 190.652184 115.00395 
L 192.904475 89.488698 
L 193.848002 80.634826 
L 196.952511 56.890349 
L 197.348184 54.234184 
L 197.80473 51.457294 
L 198.322148 49.28407 
L 198.504766 48.519408 
L 199.113493 45.78276 
L 199.204802 45.541297 
L 199.661348 44.132723 
L 199.691784 44.132723 
L 200.117893 42.442432 
L 201.304911 39.585052 
L 201.457093 39.263086 
L 201.670148 38.860644 
L 201.73102 38.820406 
L 201.883202 38.699661 
L 202.857166 38.619172 
L 203.009348 38.57893 
L 203.191966 38.659423 
L 203.344148 38.820406 
L 203.435457 38.900883 
L 203.73982 39.142355 
L 203.861566 39.18261 
L 203.892002 39.263086 
L 203.983311 39.222848 
L 204.226802 39.303338 
L 204.805093 40.22897 
L 205.231202 41.074106 
L 205.292075 41.154599 
L 205.657311 41.798517 
L 208.122657 48.599901 
L 209.85753 55.884227 
L 210.374948 58.58063 
L 211.318475 62.766104 
L 212.931602 71.821198 
L 213.327275 74.557846 
L 213.722948 77.173766 
L 215.366511 91.098497 
L 216.523093 102.809756 
L 217.405748 112.025829 
L 219.414548 134.442225 
L 222.24513 169.374778 
L 223.614766 187.726441 
L 225.045275 206.03786 
L 227.814984 241.211882 
L 230.493384 268.377176 
L 232.045639 277.955454 
L 232.28913 278.881083 
L 233.476148 283.14704 
L 234.54142 284.475124 
L 234.754475 284.153162 
L 234.815348 284.153162 
L 235.028402 283.750716 
L 235.454511 283.06655 
L 235.698002 282.503122 
L 235.789311 282.261662 
L 236.64153 278.438386 
L 237.372002 274.011459 
L 238.98513 260.368436 
L 241.511348 232.478747 
L 246.137675 169.897961 
L 247.902984 143.618057 
L 251.007493 104.017099 
L 252.559748 90.615555 
L 252.95542 87.999635 
L 253.533711 84.297109 
L 254.020693 81.801927 
L 255.542511 76.167644 
L 255.664257 75.845689 
L 255.999057 74.92005 
L 256.120802 74.638339 
L 256.364293 74.034666 
L 256.39473 74.034666 
L 256.546911 73.71271 
L 256.577348 73.752955 
L 256.607784 73.632217 
L 256.72953 73.551727 
L 256.881711 73.43099 
L 257.094766 73.350506 
L 257.30782 73.229768 
L 257.886111 73.310258 
L 258.31222 73.71271 
L 258.555711 73.793193 
L 258.73833 73.873686 
L 258.860075 73.833438 
L 259.103566 74.034666 
L 259.134002 73.994421 
L 259.194875 74.074914 
L 259.712293 74.598094 
L 259.834039 74.678584 
L 260.138402 74.92005 
L 260.229711 75.000543 
L 260.808002 75.885933 
L 261.021057 76.328621 
L 261.294984 76.851807 
L 261.568911 77.495725 
L 262.208075 79.467721 
L 262.542875 80.715315 
L 262.816802 81.721437 
L 263.76033 85.906901 
L 265.830002 97.416939 
L 267.564875 109.611137 
L 268.143166 113.997828 
L 268.751893 118.706479 
L 269.36062 123.374884 
L 270.517202 131.705574 
L 271.186802 136.897162 
L 271.886839 142.209486 
L 272.312948 145.549811 
L 273.195602 151.667032 
L 274.13913 157.220825 
L 274.595675 159.474538 
L 274.991348 161.366047 
L 275.660948 164.344168 
L 275.752257 164.625883 
L 276.117493 165.994208 
L 277.000148 169.052818 
L 277.121893 169.374778 
L 277.669748 171.105307 
L 279.49593 175.652979 
L 279.891602 176.296897 
L 280.07422 176.618855 
L 280.16553 176.699345 
L 280.40902 177.061549 
L 280.774257 177.383508 
L 280.896002 177.463997 
L 281.048184 177.665222 
L 281.07862 177.624978 
L 281.109057 177.745712 
L 281.200366 177.826201 
L 281.717784 178.349385 
L 281.83953 178.349385 
L 282.143893 178.429874 
L 282.17433 178.55061 
L 282.265639 178.510365 
L 282.478693 178.590855 
L 282.691748 178.711589 
L 282.813493 178.671344 
L 282.874366 178.751834 
L 282.904802 178.711589 
L 283.056984 178.590855 
L 283.209166 178.510365 
L 283.391784 178.429874 
L 283.51353 178.38963 
L 283.635275 178.268895 
L 283.75702 178.268895 
L 284.030948 178.067672 
L 284.122257 178.027426 
L 284.244002 177.826201 
L 284.274439 177.866447 
L 285.217966 176.779835 
L 285.248402 176.779835 
L 285.400584 176.457876 
L 285.43102 176.498121 
L 285.76582 175.894448 
L 286.222366 175.129795 
L 286.557166 174.526123 
L 286.739784 174.123673 
L 287.226766 173.117551 
L 287.500693 172.594367 
L 287.896366 171.829715 
L 287.957239 171.749226 
L 289.235566 170.13943 
L 289.357311 170.21992 
L 289.479057 170.13943 
L 289.935602 170.058941 
L 290.057348 170.018695 
L 290.20953 170.058941 
L 290.392148 170.13943 
L 291.21393 171.065063 
L 291.274802 171.145553 
L 291.609602 171.749226 
L 293.070548 175.894448 
L 293.344475 176.779835 
L 293.770584 178.067672 
L 293.89233 178.38963 
L 294.531493 180.482365 
L 295.201093 182.494606 
L 295.47502 183.379994 
L 297.118584 187.444727 
L 297.331639 187.887421 
L 297.696875 188.571584 
L 299.066511 190.221624 
L 299.614366 190.302113 
L 299.888293 190.543583 
L 299.91873 190.503338 
L 299.949166 190.583828 
L 300.16222 190.704562 
L 300.283966 190.704562 
L 300.405711 190.624072 
L 300.649202 190.422848 
L 300.679639 190.463093 
L 300.740511 190.382603 
L 301.105748 190.302113 
L 301.288366 190.221624 
L 301.470984 190.141134 
L 302.566693 188.853298 
L 302.658002 188.813053 
L 302.779748 188.652073 
L 302.810184 188.692318 
L 304.332002 186.559339 
L 304.60593 185.915422 
L 306.27993 181.247015 
L 306.645166 179.87869 
L 306.919093 178.872568 
L 307.28433 177.182284 
L 310.87582 157.623274 
L 312.397639 146.877892 
L 312.915057 143.054629 
L 315.928257 123.817579 
L 316.050002 123.213905 
L 317.115275 118.14305 
L 318.606657 112.669747 
L 319.093639 111.100197 
L 319.854548 108.524525 
L 321.285057 105.023221 
L 321.863348 104.097589 
L 322.228584 103.413426 
L 322.289457 103.373181 
L 322.59382 102.849994 
L 323.476475 101.521916 
L 323.780839 100.998736 
L 324.906984 99.670649 
L 325.02873 99.63041 
L 325.150475 99.469428 
L 325.27222 99.469428 
L 325.424402 99.429183 
L 325.576584 99.549917 
L 325.69833 99.549917 
L 326.002693 99.791387 
L 326.185311 99.871876 
L 326.428802 100.274328 
L 326.459239 100.193836 
L 326.489675 100.314573 
L 326.794039 100.877998 
L 327.03753 101.401185 
L 327.28102 101.88412 
L 328.833275 106.270812 
L 329.868111 110.778238 
L 330.415966 113.675869 
L 333.39873 130.015289 
L 334.40313 135.931285 
L 334.64662 137.339856 
L 335.468402 142.048506 
L 335.833639 143.899771 
L 336.138002 145.469321 
L 337.872875 154.162215 
L 337.903311 154.202459 
L 338.177239 155.570785 
L 338.633784 157.784253 
L 338.938148 159.313559 
L 339.33382 161.285558 
L 339.486002 161.929476 
L 340.155602 164.947841 
L 340.399093 165.873473 
L 341.555675 170.058941 
L 341.646984 170.30041 
L 342.133966 171.829715 
L 342.225275 172.11143 
L 344.142766 176.90057 
L 344.508002 177.544487 
L 344.751493 177.906691 
L 345.512402 178.751834 
L 345.542839 178.711589 
L 345.573275 178.832324 
L 346.12113 179.395753 
L 346.212439 179.476242 
L 347.399457 180.925057 
L 347.429893 180.884811 
L 347.490766 180.965302 
L 347.612511 181.126282 
L 347.642948 181.086036 
L 347.947311 181.327506 
L 348.069057 181.407994 
L 348.190802 181.488485 
L 348.312548 181.488485 
L 348.495166 181.568977 
L 349.012584 181.488485 
L 349.164766 181.44824 
L 349.864802 181.367752 
L 350.04742 181.287261 
L 350.38222 181.206773 
L 350.534402 181.126282 
L 350.686584 181.166527 
L 350.777893 181.126282 
L 350.80833 181.166527 
L 351.021384 181.126282 
L 351.173566 181.005548 
L 351.38662 180.884811 
L 351.47793 180.804323 
L 351.690984 180.68359 
L 351.782293 180.603098 
L 352.117093 180.321385 
L 352.208402 180.240894 
L 354.886802 176.860324 
L 355.008548 176.779835 
L 355.434657 176.377387 
L 355.465093 176.417631 
L 355.525966 176.337141 
L 355.799893 176.135916 
L 356.012948 176.055427 
L 356.256439 175.894448 
L 356.469493 175.813958 
L 356.682548 175.693223 
L 356.956475 175.612733 
L 357.108657 175.572489 
L 357.443457 175.492 
L 357.595639 175.41151 
L 357.717384 175.41151 
L 357.991311 175.371264 
L 358.143493 175.250529 
L 358.356548 175.129795 
L 358.447857 175.049306 
L 358.630475 174.928571 
L 358.660911 174.968816 
L 358.721784 174.888325 
L 358.934839 174.807835 
L 359.147893 174.687102 
L 359.17833 174.687102 
L 359.300075 174.566367 
L 359.452257 174.485877 
L 359.604439 174.324898 
L 359.75662 174.244408 
L 359.969675 174.043183 
L 360.000111 174.083429 
L 360.18273 174.043183 
L 360.334911 173.882204 
L 360.42622 173.801714 
L 361.369748 172.715102 
L 361.43062 172.674857 
L 361.734984 172.151674 
L 361.795857 172.071184 
L 362.161093 171.387022 
L 362.617639 170.62237 
L 363.013311 169.857716 
L 363.165493 169.495512 
L 363.652475 168.449145 
L 363.682911 168.489391 
L 363.713348 168.408901 
L 364.169893 167.483269 
L 364.44382 166.960085 
L 364.656875 166.517392 
L 366.817857 163.78074 
L 366.939602 163.78074 
L 367.12222 163.579515 
L 367.243966 163.499026 
L 367.822257 162.895353 
L 367.852693 162.935598 
L 367.913566 162.855108 
L 368.12662 162.774618 
L 368.339675 162.653883 
L 368.522293 162.573394 
L 368.674475 162.452659 
L 369.100584 162.050211 
L 369.283202 162.009966 
L 369.374511 161.88923 
L 369.404948 161.969721 
L 369.648439 161.808741 
L 369.831057 161.728251 
L 370.044111 161.446537 
L 370.13542 161.486782 
L 370.318039 161.285558 
L 370.89633 160.681884 
L 370.987639 160.601395 
L 374.092148 156.335438 
L 374.457384 155.651275 
L 374.731311 155.128092 
L 374.91393 154.725643 
L 379.479384 142.370466 
L 379.875057 141.243609 
L 380.027239 140.881405 
L 380.240293 140.197242 
L 380.696839 138.708182 
L 381.214257 137.098387 
L 381.822984 135.206877 
L 382.370839 133.476348 
L 382.918693 131.826309 
L 382.918693 131.826309 
" style="fill:none;stroke:#0000ff;stroke-linecap:square;stroke-width:1.5;"/>
   </g>
   <g id="line2d_24">
    <path clip-path="url(#p1b32c1935f)" d="M 78.555057 153.215897 
L 78.768111 153.236019 
L 84.368402 153.316509 
L 84.490148 153.316509 
L 96.725566 153.396998 
L 96.877748 153.417121 
L 99.312657 153.497611 
L 99.464839 153.517733 
L 99.586584 153.497611 
L 99.738766 153.5781 
L 99.890948 153.598223 
L 100.225748 153.698835 
L 100.560548 153.799447 
L 100.804039 153.940304 
L 100.95622 154.020794 
L 101.260584 154.242141 
L 101.656257 154.624467 
L 102.812839 156.334874 
L 104.760766 161.788055 
L 105.73473 165.772298 
L 106.526075 169.354093 
L 110.269748 186.17645 
L 111.152402 188.732 
L 112.43073 191.025958 
L 112.856839 191.428407 
L 113.496002 191.327794 
L 113.830802 191.066203 
L 114.10473 190.764366 
L 114.500402 190.060081 
L 115.322184 187.585021 
L 116.052657 184.788003 
L 117.391857 177.161597 
L 119.552839 160.641076 
L 121.957311 139.029578 
L 123.905239 120.798649 
L 125.548802 107.618452 
L 127.253239 98.120658 
L 128.714184 91.862586 
L 129.17073 90.353397 
L 129.627275 89.226547 
L 129.779457 89.0052 
L 130.296875 88.502139 
L 131.17953 88.019197 
L 131.575202 88.18018 
L 132.670911 87.556381 
L 132.975275 87.777731 
L 133.492693 87.999078 
L 133.736184 88.079561 
L 134.131857 88.421646 
L 134.284039 88.642993 
L 134.984075 89.387523 
L 135.44062 89.488132 
L 135.714548 89.769852 
L 136.262402 90.614992 
L 136.566766 90.836338 
L 137.053748 91.258906 
L 138.392948 94.116293 
L 139.306039 98.181028 
L 140.55393 104.479351 
L 143.23233 121.040118 
L 146.002039 142.128433 
L 146.58033 146.655982 
L 147.676039 156.194017 
L 148.376075 162.049647 
L 152.667602 195.231547 
L 153.85462 201.650605 
L 155.102511 206.158031 
L 155.498184 207.123905 
L 156.776511 208.633094 
L 157.659166 208.532476 
L 158.20702 208.049544 
L 158.572257 207.3855 
L 159.454911 205.856191 
L 159.54622 205.715334 
L 160.246257 204.16591 
L 161.037602 202.375013 
L 162.22462 198.833464 
L 162.498548 198.048689 
L 162.802911 196.962077 
L 164.629093 189.275306 
L 166.516148 181.065352 
L 167.824911 176.316455 
L 168.646693 174.907885 
L 168.859748 174.666416 
L 169.133675 174.364579 
L 169.377166 174.304212 
L 169.468475 174.263966 
L 169.498911 174.284089 
L 169.864148 174.404825 
L 170.046766 174.485314 
L 170.290257 174.62617 
L 170.625057 174.948129 
L 171.416402 176.759149 
L 172.329493 179.475678 
L 173.425202 184.244697 
L 175.647057 196.579751 
L 176.560148 202.415258 
L 178.447202 215.615574 
L 179.116802 220.042514 
L 179.72553 223.402961 
L 180.851675 227.447571 
L 182.038693 230.284831 
L 182.221311 230.506178 
L 182.525675 230.868382 
L 183.164839 231.170222 
L 183.40833 230.888511 
L 184.017057 229.459815 
L 185.234511 224.207861 
L 186.117166 217.647943 
L 187.152002 207.08366 
L 188.67382 187.665511 
L 190.560875 158.60871 
L 192.539239 124.018239 
L 195.36982 80.835487 
L 196.587275 66.930885 
L 197.196002 60.934392 
L 198.352584 51.215255 
L 199.265675 45.138278 
L 200.026584 40.36926 
L 200.939675 36.103303 
L 201.457093 34.453267 
L 201.913639 33.789223 
L 202.461493 33.245924 
L 202.704984 33.165431 
L 203.16153 33.608128 
L 203.252839 33.688617 
L 203.557202 34.070937 
L 203.892002 34.413025 
L 204.287675 35.117307 
L 204.561602 35.902082 
L 205.200766 38.377145 
L 205.718184 41.294889 
L 207.940039 58.056887 
L 208.457457 61.779538 
L 210.009711 74.195085 
L 210.892366 81.398915 
L 212.809857 96.933434 
L 213.44902 101.883554 
L 214.909966 112.608816 
L 215.853493 119.551058 
L 219.384111 146.696227 
L 223.766948 174.948129 
L 226.658402 191.488774 
L 228.362839 198.853586 
L 229.215057 201.791462 
L 229.428111 202.43538 
L 229.94553 203.763461 
L 230.219457 204.306767 
L 231.345602 206.298888 
L 231.984766 207.325136 
L 234.906657 213.361867 
L 235.728439 215.25337 
L 235.850184 215.434472 
L 236.428475 216.339982 
L 238.132911 218.432715 
L 238.254657 218.533334 
L 238.863384 218.815045 
L 239.624293 218.734555 
L 239.806911 218.654065 
L 241.267857 218.754674 
L 241.480911 218.855293 
L 241.633093 218.875412 
L 241.99833 218.996147 
L 242.33313 219.096759 
L 243.063602 219.458963 
L 243.215784 219.539453 
L 244.494111 221.410839 
L 247.324693 226.803653 
L 247.537748 227.045122 
L 247.750802 227.346962 
L 248.02473 227.648792 
L 248.298657 227.950632 
L 248.846511 228.212223 
L 249.090002 228.151853 
L 249.181311 228.131734 
L 249.36393 228.07137 
L 249.637857 227.990877 
L 249.94222 227.76953 
L 250.185711 227.507938 
L 250.642257 226.843901 
L 251.403166 225.656671 
L 251.95102 224.348718 
L 252.864111 220.988271 
L 254.507675 211.711821 
L 255.451202 204.76958 
L 256.97302 190.744244 
L 258.951384 168.690051 
L 262.725493 117.337589 
L 264.67342 90.574743 
L 266.803966 65.18023 
L 268.35622 50.853051 
L 269.573675 42.783959 
L 270.151966 40.228403 
L 270.273711 39.886325 
L 271.156366 37.813717 
L 271.79553 37.491755 
L 272.099893 37.572245 
L 272.221639 37.59237 
L 273.104293 38.94057 
L 274.078257 41.818076 
L 274.656548 44.554727 
L 275.47833 49.484725 
L 275.965311 52.986036 
L 279.06982 80.594014 
L 280.865566 99.549354 
L 282.448257 116.35159 
L 286.131057 154.181774 
L 287.835493 169.776663 
L 289.174693 181.950739 
L 290.635639 193.561385 
L 292.492257 206.258643 
L 293.709711 212.838681 
L 294.166257 214.669819 
L 295.079348 217.305865 
L 296.631602 220.163245 
L 296.783784 220.364473 
L 296.996839 220.646187 
L 297.940366 221.149248 
L 298.122984 221.149248 
L 298.457784 221.048635 
L 298.82302 220.726676 
L 298.944766 220.626067 
L 299.188257 220.384592 
L 300.283966 218.7748 
L 301.653602 214.850921 
L 303.418911 207.405626 
L 304.392875 200.966442 
L 308.471348 169.494949 
L 309.658366 161.667321 
L 311.271493 153.718957 
L 312.275893 149.292021 
L 312.88462 146.977941 
L 313.341166 145.086431 
L 316.080439 134.622764 
L 316.263057 134.059335 
L 316.841348 132.187948 
L 317.206584 131.222071 
L 318.393602 127.680522 
L 322.106839 118.162609 
L 322.502511 117.156487 
L 322.867748 116.331467 
L 323.35473 115.345468 
L 324.085202 113.655183 
L 324.450439 112.810041 
L 325.150475 111.180123 
L 326.002693 108.725186 
L 328.589784 103.83543 
L 329.95942 102.205513 
L 330.781202 101.782945 
L 331.72473 101.883554 
L 332.546511 102.547597 
L 332.881311 102.970165 
L 333.97702 104.600086 
L 334.64662 106.169636 
L 335.437966 108.544084 
L 336.685857 113.05151 
L 337.629384 116.552814 
L 338.785966 121.563301 
L 340.886075 133.254438 
L 341.890475 139.753986 
L 344.629748 158.588588 
L 345.512402 165.812542 
L 347.03422 177.946374 
L 349.256075 193.319916 
L 351.843166 208.049544 
L 353.304111 214.307622 
L 355.40422 219.559575 
L 355.769457 220.183371 
L 355.982511 220.525449 
L 356.378184 220.867533 
L 356.591239 220.887653 
L 357.260839 220.344347 
L 358.904402 216.843043 
L 359.300075 215.514965 
L 359.908802 212.677704 
L 361.552366 202.254278 
L 363.926402 184.204451 
L 369.80062 132.7715 
L 370.774584 123.61579 
L 372.600766 108.84592 
L 374.853057 94.659602 
L 375.461784 92.00344 
L 377.744511 84.819733 
L 378.566293 83.431281 
L 378.961966 83.089196 
L 379.235893 83.008713 
L 379.357639 82.968465 
L 379.753311 83.069077 
L 380.788148 83.853852 
L 382.583893 87.656993 
L 382.918693 88.642993 
L 382.918693 88.642993 
" style="fill:none;stroke:#ff0000;stroke-linecap:square;stroke-width:1.5;"/>
   </g>
   <g id="line2d_25">
    <path clip-path="url(#p1b32c1935f)" d="M 123.570439 161.969721 
" style="fill:none;stroke:#ffffff;stroke-linecap:square;stroke-width:1.5;"/>
    <defs>
     <path d="M 0 -5 
L -1.12257 -1.545085 
L -4.755283 -1.545085 
L -1.816356 0.59017 
L -2.938926 4.045085 
L -0 1.90983 
L 2.938926 4.045085 
L 1.816356 0.59017 
L 4.755283 -1.545085 
L 1.12257 -1.545085 
z
" id="m9cd23a747e" style="stroke:#ffffff;stroke-linejoin:bevel;"/>
    </defs>
    <g clip-path="url(#p1b32c1935f)">
     <use style="fill:#0000ff;stroke:#ffffff;stroke-linejoin:bevel;" x="123.570439" xlink:href="#m9cd23a747e" y="161.969721"/>
    </g>
   </g>
   <g id="line2d_26">
    <path clip-path="url(#p1b32c1935f)" d="M 103.999857 159.312995 
" style="fill:none;stroke:#ffffff;stroke-linecap:square;stroke-width:1.5;"/>
    <defs>
     <path d="M 0 -5 
L -1.12257 -1.545085 
L -4.755283 -1.545085 
L -1.816356 0.59017 
L -2.938926 4.045085 
L -0 1.90983 
L 2.938926 4.045085 
L 1.816356 0.59017 
L 4.755283 -1.545085 
L 1.12257 -1.545085 
z
" id="me9ca48347a" style="stroke:#ffffff;stroke-linejoin:bevel;"/>
    </defs>
    <g clip-path="url(#p1b32c1935f)">
     <use style="fill:#ff0000;stroke:#ffffff;stroke-linejoin:bevel;" x="103.999857" xlink:href="#me9ca48347a" y="159.312995"/>
    </g>
   </g>
   <g id="patch_3">
    <path d="M 63.336875 339.84 
L 63.336875 7.2 
" style="fill:none;stroke:#000000;stroke-linecap:square;stroke-linejoin:miter;stroke-width:0.8;"/>
   </g>
   <g id="patch_4">
    <path d="M 398.136875 339.84 
L 398.136875 7.2 
" style="fill:none;stroke:#000000;stroke-linecap:square;stroke-linejoin:miter;stroke-width:0.8;"/>
   </g>
   <g id="patch_5">
    <path d="M 63.336875 339.84 
L 398.136875 339.84 
" style="fill:none;stroke:#000000;stroke-linecap:square;stroke-linejoin:miter;stroke-width:0.8;"/>
   </g>
   <g id="patch_6">
    <path d="M 63.336875 7.2 
L 398.136875 7.2 
" style="fill:none;stroke:#000000;stroke-linecap:square;stroke-linejoin:miter;stroke-width:0.8;"/>
   </g>
   <g id="text_14">
    <g id="patch_7">
     <path d="M 75.036875 331.242688 
L 166.79375 331.242688 
L 166.79375 293.760312 
L 75.036875 293.760312 
z
" style="fill:#ffffff;stroke:#000000;stroke-linejoin:miter;stroke-width:0.75;"/>
    </g>
    <!-- Auto_00150 -->
    <g transform="translate(80.076875 308.521562)scale(0.14 -0.14)">
     <defs>
      <path d="M 2928 1419 
L 1288 1419 
L 1000 750 
Q 894 503 894 381 
Q 894 284 986 211 
Q 1078 138 1384 116 
L 1384 0 
L 50 0 
L 50 116 
Q 316 163 394 238 
Q 553 388 747 847 
L 2238 4334 
L 2347 4334 
L 3822 809 
Q 4000 384 4145 257 
Q 4291 131 4550 116 
L 4550 0 
L 2878 0 
L 2878 116 
Q 3131 128 3220 200 
Q 3309 272 3309 375 
Q 3309 513 3184 809 
L 2928 1419 
z
M 2841 1650 
L 2122 3363 
L 1384 1650 
L 2841 1650 
z
" id="TimesNewRomanPSMT-41" transform="scale(0.015625)"/>
      <path d="M 2709 2863 
L 2709 1128 
Q 2709 631 2732 520 
Q 2756 409 2807 365 
Q 2859 322 2928 322 
Q 3025 322 3147 375 
L 3191 266 
L 2334 -88 
L 2194 -88 
L 2194 519 
Q 1825 119 1631 15 
Q 1438 -88 1222 -88 
Q 981 -88 804 51 
Q 628 191 559 409 
Q 491 628 491 1028 
L 491 2306 
Q 491 2509 447 2587 
Q 403 2666 317 2708 
Q 231 2750 6 2747 
L 6 2863 
L 1009 2863 
L 1009 947 
Q 1009 547 1148 422 
Q 1288 297 1484 297 
Q 1619 297 1789 381 
Q 1959 466 2194 703 
L 2194 2325 
Q 2194 2569 2105 2655 
Q 2016 2741 1734 2747 
L 1734 2863 
L 2709 2863 
z
" id="TimesNewRomanPSMT-75" transform="scale(0.015625)"/>
      <path d="M 3256 -1381 
L -53 -1381 
L -53 -1119 
L 3256 -1119 
L 3256 -1381 
z
" id="TimesNewRomanPSMT-5f" transform="scale(0.015625)"/>
     </defs>
     <use xlink:href="#TimesNewRomanPSMT-41"/>
     <use x="72.216797" xlink:href="#TimesNewRomanPSMT-75"/>
     <use x="122.216797" xlink:href="#TimesNewRomanPSMT-74"/>
     <use x="150" xlink:href="#TimesNewRomanPSMT-6f"/>
     <use x="200" xlink:href="#TimesNewRomanPSMT-5f"/>
     <use x="250" xlink:href="#TimesNewRomanPSMT-30"/>
     <use x="300" xlink:href="#TimesNewRomanPSMT-30"/>
     <use x="350" xlink:href="#TimesNewRomanPSMT-31"/>
     <use x="400" xlink:href="#TimesNewRomanPSMT-35"/>
     <use x="450" xlink:href="#TimesNewRomanPSMT-30"/>
    </g>
    <!-- Vs: 310.83m/s -->
    <g transform="translate(80.076875 323.208)scale(0.14 -0.14)">
     <defs>
      <path d="M 903 2950 
Q 1047 2950 1148 2848 
Q 1250 2747 1250 2603 
Q 1250 2459 1148 2357 
Q 1047 2256 903 2256 
Q 759 2256 657 2357 
Q 556 2459 556 2603 
Q 556 2747 657 2848 
Q 759 2950 903 2950 
z
M 897 609 
Q 1044 609 1145 506 
Q 1247 403 1247 259 
Q 1247 116 1144 14 
Q 1041 -88 897 -88 
Q 753 -88 651 14 
Q 550 116 550 259 
Q 550 403 651 506 
Q 753 609 897 609 
z
" id="TimesNewRomanPSMT-3a" transform="scale(0.015625)"/>
      <path d="M 1228 2134 
Q 725 2547 579 2797 
Q 434 3047 434 3316 
Q 434 3728 753 4026 
Q 1072 4325 1600 4325 
Q 2113 4325 2425 4047 
Q 2738 3769 2738 3413 
Q 2738 3175 2569 2928 
Q 2400 2681 1866 2347 
Q 2416 1922 2594 1678 
Q 2831 1359 2831 1006 
Q 2831 559 2490 242 
Q 2150 -75 1597 -75 
Q 994 -75 656 303 
Q 388 606 388 966 
Q 388 1247 577 1523 
Q 766 1800 1228 2134 
z
M 1719 2469 
Q 2094 2806 2194 3001 
Q 2294 3197 2294 3444 
Q 2294 3772 2109 3958 
Q 1925 4144 1606 4144 
Q 1288 4144 1088 3959 
Q 888 3775 888 3528 
Q 888 3366 970 3203 
Q 1053 3041 1206 2894 
L 1719 2469 
z
M 1375 2016 
Q 1116 1797 991 1539 
Q 866 1281 866 981 
Q 866 578 1086 336 
Q 1306 94 1647 94 
Q 1984 94 2187 284 
Q 2391 475 2391 747 
Q 2391 972 2272 1150 
Q 2050 1481 1375 2016 
z
" id="TimesNewRomanPSMT-38" transform="scale(0.015625)"/>
      <path d="M 1794 4444 
L 259 -88 
L 9 -88 
L 1544 4444 
L 1794 4444 
z
" id="TimesNewRomanPSMT-2f" transform="scale(0.015625)"/>
     </defs>
     <use xlink:href="#TimesNewRomanPSMT-56"/>
     <use x="72.216797" xlink:href="#TimesNewRomanPSMT-73"/>
     <use x="111.132812" xlink:href="#TimesNewRomanPSMT-3a"/>
     <use x="138.916016" xlink:href="#TimesNewRomanPSMT-20"/>
     <use x="163.916016" xlink:href="#TimesNewRomanPSMT-33"/>
     <use x="213.916016" xlink:href="#TimesNewRomanPSMT-31"/>
     <use x="263.916016" xlink:href="#TimesNewRomanPSMT-30"/>
     <use x="313.916016" xlink:href="#TimesNewRomanPSMT-2e"/>
     <use x="338.916016" xlink:href="#TimesNewRomanPSMT-38"/>
     <use x="388.916016" xlink:href="#TimesNewRomanPSMT-33"/>
     <use x="438.916016" xlink:href="#TimesNewRomanPSMT-6d"/>
     <use x="516.699219" xlink:href="#TimesNewRomanPSMT-2f"/>
     <use x="544.482422" xlink:href="#TimesNewRomanPSMT-73"/>
    </g>
   </g>
  </g>
 </g>
 <defs>
  <clipPath id="p1b32c1935f">
   <rect height="332.64" width="334.8" x="63.336875" y="7.2"/>
  </clipPath>
 </defs>
</svg>
