<?xml version="1.0" encoding="utf-8" standalone="no"?>
<!DOCTYPE svg PUBLIC "-//W3C//DTD SVG 1.1//EN"
  "http://www.w3.org/Graphics/SVG/1.1/DTD/svg11.dtd">
<svg height="383.471875pt" version="1.1" viewBox="0 0 421.086875 383.471875" width="421.086875pt" xmlns="http://www.w3.org/2000/svg" xmlns:xlink="http://www.w3.org/1999/xlink">
 <metadata>
  <rdf:RDF xmlns:cc="http://creativecommons.org/ns#" xmlns:dc="http://purl.org/dc/elements/1.1/" xmlns:rdf="http://www.w3.org/1999/02/22-rdf-syntax-ns#">
   <cc:Work>
    <dc:type rdf:resource="http://purl.org/dc/dcmitype/StillImage"/>
    <dc:date>2021-06-11T14:39:38.798066</dc:date>
    <dc:format>image/svg+xml</dc:format>
    <dc:creator>
     <cc:Agent>
      <dc:title>Matplotlib v3.4.2, https://matplotlib.org/</dc:title>
     </cc:Agent>
    </dc:creator>
   </cc:Work>
  </rdf:RDF>
 </metadata>
 <defs>
  <style type="text/css">*{stroke-linecap:butt;stroke-linejoin:round;}</style>
 </defs>
 <g id="figure_1">
  <g id="patch_1">
   <path d="M 0 383.471875 
L 421.086875 383.471875 
L 421.086875 0 
L 0 0 
z
" style="fill:#ffffff;"/>
  </g>
  <g id="axes_1">
   <g id="patch_2">
    <path d="M 63.336875 339.84 
L 398.136875 339.84 
L 398.136875 7.2 
L 63.336875 7.2 
z
" style="fill:#ffffff;"/>
   </g>
   <g id="matplotlib.axis_1">
    <g id="xtick_1">
     <g id="line2d_1">
      <path clip-path="url(#p505ea8c15e)" d="M 93.773239 339.84 
L 93.773239 7.2 
" style="fill:none;stroke:#000000;stroke-dasharray:0.5,0.825;stroke-dashoffset:0;stroke-width:0.5;"/>
     </g>
     <g id="line2d_2">
      <defs>
       <path d="M 0 0 
L 0 3.5 
" id="m3c47d49407" style="stroke:#000000;stroke-width:0.8;"/>
      </defs>
      <g>
       <use style="stroke:#000000;stroke-width:0.8;" x="93.773239" xlink:href="#m3c47d49407" y="339.84"/>
      </g>
     </g>
     <g id="text_1">
      <!-- 0.000 -->
      <g transform="translate(78.023239 356.56125)scale(0.14 -0.14)">
       <defs>
        <path d="M 231 2094 
Q 231 2819 450 3342 
Q 669 3866 1031 4122 
Q 1313 4325 1613 4325 
Q 2100 4325 2488 3828 
Q 2972 3213 2972 2159 
Q 2972 1422 2759 906 
Q 2547 391 2217 158 
Q 1888 -75 1581 -75 
Q 975 -75 572 641 
Q 231 1244 231 2094 
z
M 844 2016 
Q 844 1141 1059 588 
Q 1238 122 1591 122 
Q 1759 122 1940 273 
Q 2122 425 2216 781 
Q 2359 1319 2359 2297 
Q 2359 3022 2209 3506 
Q 2097 3866 1919 4016 
Q 1791 4119 1609 4119 
Q 1397 4119 1231 3928 
Q 1006 3669 925 3112 
Q 844 2556 844 2016 
z
" id="TimesNewRomanPSMT-30" transform="scale(0.015625)"/>
        <path d="M 800 606 
Q 947 606 1047 504 
Q 1147 403 1147 259 
Q 1147 116 1045 14 
Q 944 -88 800 -88 
Q 656 -88 554 14 
Q 453 116 453 259 
Q 453 406 554 506 
Q 656 606 800 606 
z
" id="TimesNewRomanPSMT-2e" transform="scale(0.015625)"/>
       </defs>
       <use xlink:href="#TimesNewRomanPSMT-30"/>
       <use x="50" xlink:href="#TimesNewRomanPSMT-2e"/>
       <use x="75" xlink:href="#TimesNewRomanPSMT-30"/>
       <use x="125" xlink:href="#TimesNewRomanPSMT-30"/>
       <use x="175" xlink:href="#TimesNewRomanPSMT-30"/>
      </g>
     </g>
    </g>
    <g id="xtick_2">
     <g id="line2d_3">
      <path clip-path="url(#p505ea8c15e)" d="M 154.645966 339.84 
L 154.645966 7.2 
" style="fill:none;stroke:#000000;stroke-dasharray:0.5,0.825;stroke-dashoffset:0;stroke-width:0.5;"/>
     </g>
     <g id="line2d_4">
      <g>
       <use style="stroke:#000000;stroke-width:0.8;" x="154.645966" xlink:href="#m3c47d49407" y="339.84"/>
      </g>
     </g>
     <g id="text_2">
      <!-- 0.001 -->
      <g transform="translate(138.895966 356.56125)scale(0.14 -0.14)">
       <defs>
        <path d="M 750 3822 
L 1781 4325 
L 1884 4325 
L 1884 747 
Q 1884 391 1914 303 
Q 1944 216 2037 169 
Q 2131 122 2419 116 
L 2419 0 
L 825 0 
L 825 116 
Q 1125 122 1212 167 
Q 1300 213 1334 289 
Q 1369 366 1369 747 
L 1369 3034 
Q 1369 3497 1338 3628 
Q 1316 3728 1258 3775 
Q 1200 3822 1119 3822 
Q 1003 3822 797 3725 
L 750 3822 
z
" id="TimesNewRomanPSMT-31" transform="scale(0.015625)"/>
       </defs>
       <use xlink:href="#TimesNewRomanPSMT-30"/>
       <use x="50" xlink:href="#TimesNewRomanPSMT-2e"/>
       <use x="75" xlink:href="#TimesNewRomanPSMT-30"/>
       <use x="125" xlink:href="#TimesNewRomanPSMT-30"/>
       <use x="175" xlink:href="#TimesNewRomanPSMT-31"/>
      </g>
     </g>
    </g>
    <g id="xtick_3">
     <g id="line2d_5">
      <path clip-path="url(#p505ea8c15e)" d="M 215.518693 339.84 
L 215.518693 7.2 
" style="fill:none;stroke:#000000;stroke-dasharray:0.5,0.825;stroke-dashoffset:0;stroke-width:0.5;"/>
     </g>
     <g id="line2d_6">
      <g>
       <use style="stroke:#000000;stroke-width:0.8;" x="215.518693" xlink:href="#m3c47d49407" y="339.84"/>
      </g>
     </g>
     <g id="text_3">
      <!-- 0.002 -->
      <g transform="translate(199.768693 356.56125)scale(0.14 -0.14)">
       <defs>
        <path d="M 2934 816 
L 2638 0 
L 138 0 
L 138 116 
Q 1241 1122 1691 1759 
Q 2141 2397 2141 2925 
Q 2141 3328 1894 3587 
Q 1647 3847 1303 3847 
Q 991 3847 742 3664 
Q 494 3481 375 3128 
L 259 3128 
Q 338 3706 661 4015 
Q 984 4325 1469 4325 
Q 1984 4325 2329 3994 
Q 2675 3663 2675 3213 
Q 2675 2891 2525 2569 
Q 2294 2063 1775 1497 
Q 997 647 803 472 
L 1909 472 
Q 2247 472 2383 497 
Q 2519 522 2628 598 
Q 2738 675 2819 816 
L 2934 816 
z
" id="TimesNewRomanPSMT-32" transform="scale(0.015625)"/>
       </defs>
       <use xlink:href="#TimesNewRomanPSMT-30"/>
       <use x="50" xlink:href="#TimesNewRomanPSMT-2e"/>
       <use x="75" xlink:href="#TimesNewRomanPSMT-30"/>
       <use x="125" xlink:href="#TimesNewRomanPSMT-30"/>
       <use x="175" xlink:href="#TimesNewRomanPSMT-32"/>
      </g>
     </g>
    </g>
    <g id="xtick_4">
     <g id="line2d_7">
      <path clip-path="url(#p505ea8c15e)" d="M 276.39142 339.84 
L 276.39142 7.2 
" style="fill:none;stroke:#000000;stroke-dasharray:0.5,0.825;stroke-dashoffset:0;stroke-width:0.5;"/>
     </g>
     <g id="line2d_8">
      <g>
       <use style="stroke:#000000;stroke-width:0.8;" x="276.39142" xlink:href="#m3c47d49407" y="339.84"/>
      </g>
     </g>
     <g id="text_4">
      <!-- 0.003 -->
      <g transform="translate(260.64142 356.56125)scale(0.14 -0.14)">
       <defs>
        <path d="M 325 3431 
Q 506 3859 782 4092 
Q 1059 4325 1472 4325 
Q 1981 4325 2253 3994 
Q 2459 3747 2459 3466 
Q 2459 3003 1878 2509 
Q 2269 2356 2469 2072 
Q 2669 1788 2669 1403 
Q 2669 853 2319 450 
Q 1863 -75 997 -75 
Q 569 -75 414 31 
Q 259 138 259 259 
Q 259 350 332 419 
Q 406 488 509 488 
Q 588 488 669 463 
Q 722 447 909 348 
Q 1097 250 1169 231 
Q 1284 197 1416 197 
Q 1734 197 1970 444 
Q 2206 691 2206 1028 
Q 2206 1275 2097 1509 
Q 2016 1684 1919 1775 
Q 1784 1900 1550 2001 
Q 1316 2103 1072 2103 
L 972 2103 
L 972 2197 
Q 1219 2228 1467 2375 
Q 1716 2522 1828 2728 
Q 1941 2934 1941 3181 
Q 1941 3503 1739 3701 
Q 1538 3900 1238 3900 
Q 753 3900 428 3381 
L 325 3431 
z
" id="TimesNewRomanPSMT-33" transform="scale(0.015625)"/>
       </defs>
       <use xlink:href="#TimesNewRomanPSMT-30"/>
       <use x="50" xlink:href="#TimesNewRomanPSMT-2e"/>
       <use x="75" xlink:href="#TimesNewRomanPSMT-30"/>
       <use x="125" xlink:href="#TimesNewRomanPSMT-30"/>
       <use x="175" xlink:href="#TimesNewRomanPSMT-33"/>
      </g>
     </g>
    </g>
    <g id="xtick_5">
     <g id="line2d_9">
      <path clip-path="url(#p505ea8c15e)" d="M 337.264148 339.84 
L 337.264148 7.2 
" style="fill:none;stroke:#000000;stroke-dasharray:0.5,0.825;stroke-dashoffset:0;stroke-width:0.5;"/>
     </g>
     <g id="line2d_10">
      <g>
       <use style="stroke:#000000;stroke-width:0.8;" x="337.264148" xlink:href="#m3c47d49407" y="339.84"/>
      </g>
     </g>
     <g id="text_5">
      <!-- 0.004 -->
      <g transform="translate(321.514148 356.56125)scale(0.14 -0.14)">
       <defs>
        <path d="M 2978 1563 
L 2978 1119 
L 2409 1119 
L 2409 0 
L 1894 0 
L 1894 1119 
L 100 1119 
L 100 1519 
L 2066 4325 
L 2409 4325 
L 2409 1563 
L 2978 1563 
z
M 1894 1563 
L 1894 3666 
L 406 1563 
L 1894 1563 
z
" id="TimesNewRomanPSMT-34" transform="scale(0.015625)"/>
       </defs>
       <use xlink:href="#TimesNewRomanPSMT-30"/>
       <use x="50" xlink:href="#TimesNewRomanPSMT-2e"/>
       <use x="75" xlink:href="#TimesNewRomanPSMT-30"/>
       <use x="125" xlink:href="#TimesNewRomanPSMT-30"/>
       <use x="175" xlink:href="#TimesNewRomanPSMT-34"/>
      </g>
     </g>
    </g>
    <g id="xtick_6">
     <g id="line2d_11">
      <path clip-path="url(#p505ea8c15e)" d="M 398.136875 339.84 
L 398.136875 7.2 
" style="fill:none;stroke:#000000;stroke-dasharray:0.5,0.825;stroke-dashoffset:0;stroke-width:0.5;"/>
     </g>
     <g id="line2d_12">
      <g>
       <use style="stroke:#000000;stroke-width:0.8;" x="398.136875" xlink:href="#m3c47d49407" y="339.84"/>
      </g>
     </g>
     <g id="text_6">
      <!-- 0.005 -->
      <g transform="translate(382.386875 356.56125)scale(0.14 -0.14)">
       <defs>
        <path d="M 2778 4238 
L 2534 3706 
L 1259 3706 
L 981 3138 
Q 1809 3016 2294 2522 
Q 2709 2097 2709 1522 
Q 2709 1188 2573 903 
Q 2438 619 2231 419 
Q 2025 219 1772 97 
Q 1413 -75 1034 -75 
Q 653 -75 479 54 
Q 306 184 306 341 
Q 306 428 378 495 
Q 450 563 559 563 
Q 641 563 702 538 
Q 763 513 909 409 
Q 1144 247 1384 247 
Q 1750 247 2026 523 
Q 2303 800 2303 1197 
Q 2303 1581 2056 1914 
Q 1809 2247 1375 2428 
Q 1034 2569 447 2591 
L 1259 4238 
L 2778 4238 
z
" id="TimesNewRomanPSMT-35" transform="scale(0.015625)"/>
       </defs>
       <use xlink:href="#TimesNewRomanPSMT-30"/>
       <use x="50" xlink:href="#TimesNewRomanPSMT-2e"/>
       <use x="75" xlink:href="#TimesNewRomanPSMT-30"/>
       <use x="125" xlink:href="#TimesNewRomanPSMT-30"/>
       <use x="175" xlink:href="#TimesNewRomanPSMT-35"/>
      </g>
     </g>
    </g>
    <g id="text_7">
     <!-- Time (sec) -->
     <g transform="translate(200.858906 373.277188)scale(0.14 -0.14)">
      <defs>
       <path d="M 3703 4238 
L 3750 3244 
L 3631 3244 
Q 3597 3506 3538 3619 
Q 3441 3800 3280 3886 
Q 3119 3972 2856 3972 
L 2259 3972 
L 2259 734 
Q 2259 344 2344 247 
Q 2463 116 2709 116 
L 2856 116 
L 2856 0 
L 1059 0 
L 1059 116 
L 1209 116 
Q 1478 116 1591 278 
Q 1659 378 1659 734 
L 1659 3972 
L 1150 3972 
Q 853 3972 728 3928 
Q 566 3869 450 3700 
Q 334 3531 313 3244 
L 194 3244 
L 244 4238 
L 3703 4238 
z
" id="TimesNewRomanPSMT-54" transform="scale(0.015625)"/>
       <path d="M 928 4444 
Q 1059 4444 1151 4351 
Q 1244 4259 1244 4128 
Q 1244 3997 1151 3903 
Q 1059 3809 928 3809 
Q 797 3809 703 3903 
Q 609 3997 609 4128 
Q 609 4259 701 4351 
Q 794 4444 928 4444 
z
M 1188 2947 
L 1188 647 
Q 1188 378 1227 289 
Q 1266 200 1342 156 
Q 1419 113 1622 113 
L 1622 0 
L 231 0 
L 231 113 
Q 441 113 512 153 
Q 584 194 626 287 
Q 669 381 669 647 
L 669 1750 
Q 669 2216 641 2353 
Q 619 2453 572 2492 
Q 525 2531 444 2531 
Q 356 2531 231 2484 
L 188 2597 
L 1050 2947 
L 1188 2947 
z
" id="TimesNewRomanPSMT-69" transform="scale(0.015625)"/>
       <path d="M 1050 2338 
Q 1363 2650 1419 2697 
Q 1559 2816 1721 2881 
Q 1884 2947 2044 2947 
Q 2313 2947 2506 2790 
Q 2700 2634 2766 2338 
Q 3088 2713 3309 2830 
Q 3531 2947 3766 2947 
Q 3994 2947 4170 2830 
Q 4347 2713 4450 2447 
Q 4519 2266 4519 1878 
L 4519 647 
Q 4519 378 4559 278 
Q 4591 209 4675 161 
Q 4759 113 4950 113 
L 4950 0 
L 3538 0 
L 3538 113 
L 3597 113 
Q 3781 113 3884 184 
Q 3956 234 3988 344 
Q 4000 397 4000 647 
L 4000 1878 
Q 4000 2228 3916 2372 
Q 3794 2572 3525 2572 
Q 3359 2572 3192 2489 
Q 3025 2406 2788 2181 
L 2781 2147 
L 2788 2013 
L 2788 647 
Q 2788 353 2820 281 
Q 2853 209 2943 161 
Q 3034 113 3253 113 
L 3253 0 
L 1806 0 
L 1806 113 
Q 2044 113 2133 169 
Q 2222 225 2256 338 
Q 2272 391 2272 647 
L 2272 1878 
Q 2272 2228 2169 2381 
Q 2031 2581 1784 2581 
Q 1616 2581 1450 2491 
Q 1191 2353 1050 2181 
L 1050 647 
Q 1050 366 1089 281 
Q 1128 197 1204 155 
Q 1281 113 1516 113 
L 1516 0 
L 100 0 
L 100 113 
Q 297 113 375 155 
Q 453 197 493 289 
Q 534 381 534 647 
L 534 1741 
Q 534 2213 506 2350 
Q 484 2453 437 2492 
Q 391 2531 309 2531 
Q 222 2531 100 2484 
L 53 2597 
L 916 2947 
L 1050 2947 
L 1050 2338 
z
" id="TimesNewRomanPSMT-6d" transform="scale(0.015625)"/>
       <path d="M 681 1784 
Q 678 1147 991 784 
Q 1303 422 1725 422 
Q 2006 422 2214 576 
Q 2422 731 2563 1106 
L 2659 1044 
Q 2594 616 2278 264 
Q 1963 -88 1488 -88 
Q 972 -88 605 314 
Q 238 716 238 1394 
Q 238 2128 614 2539 
Q 991 2950 1559 2950 
Q 2041 2950 2350 2633 
Q 2659 2316 2659 1784 
L 681 1784 
z
M 681 1966 
L 2006 1966 
Q 1991 2241 1941 2353 
Q 1863 2528 1708 2628 
Q 1553 2728 1384 2728 
Q 1125 2728 920 2526 
Q 716 2325 681 1966 
z
" id="TimesNewRomanPSMT-65" transform="scale(0.015625)"/>
       <path id="TimesNewRomanPSMT-20" transform="scale(0.015625)"/>
       <path d="M 1988 -1253 
L 1988 -1369 
Q 1516 -1131 1200 -813 
Q 750 -359 506 256 
Q 263 872 263 1534 
Q 263 2503 741 3301 
Q 1219 4100 1988 4444 
L 1988 4313 
Q 1603 4100 1356 3731 
Q 1109 3363 987 2797 
Q 866 2231 866 1616 
Q 866 947 969 400 
Q 1050 -31 1165 -292 
Q 1281 -553 1476 -793 
Q 1672 -1034 1988 -1253 
z
" id="TimesNewRomanPSMT-28" transform="scale(0.015625)"/>
       <path d="M 2050 2947 
L 2050 1972 
L 1947 1972 
Q 1828 2431 1642 2597 
Q 1456 2763 1169 2763 
Q 950 2763 815 2647 
Q 681 2531 681 2391 
Q 681 2216 781 2091 
Q 878 1963 1175 1819 
L 1631 1597 
Q 2266 1288 2266 781 
Q 2266 391 1970 151 
Q 1675 -88 1309 -88 
Q 1047 -88 709 6 
Q 606 38 541 38 
Q 469 38 428 -44 
L 325 -44 
L 325 978 
L 428 978 
Q 516 541 762 319 
Q 1009 97 1316 97 
Q 1531 97 1667 223 
Q 1803 350 1803 528 
Q 1803 744 1651 891 
Q 1500 1038 1047 1263 
Q 594 1488 453 1669 
Q 313 1847 313 2119 
Q 313 2472 555 2709 
Q 797 2947 1181 2947 
Q 1350 2947 1591 2875 
Q 1750 2828 1803 2828 
Q 1853 2828 1881 2850 
Q 1909 2872 1947 2947 
L 2050 2947 
z
" id="TimesNewRomanPSMT-73" transform="scale(0.015625)"/>
       <path d="M 2631 1088 
Q 2516 522 2178 217 
Q 1841 -88 1431 -88 
Q 944 -88 581 321 
Q 219 731 219 1428 
Q 219 2103 620 2525 
Q 1022 2947 1584 2947 
Q 2006 2947 2278 2723 
Q 2550 2500 2550 2259 
Q 2550 2141 2473 2067 
Q 2397 1994 2259 1994 
Q 2075 1994 1981 2113 
Q 1928 2178 1911 2362 
Q 1894 2547 1784 2644 
Q 1675 2738 1481 2738 
Q 1169 2738 978 2506 
Q 725 2200 725 1697 
Q 725 1184 976 792 
Q 1228 400 1656 400 
Q 1963 400 2206 609 
Q 2378 753 2541 1131 
L 2631 1088 
z
" id="TimesNewRomanPSMT-63" transform="scale(0.015625)"/>
       <path d="M 144 4313 
L 144 4444 
Q 619 4209 934 3891 
Q 1381 3434 1625 2820 
Q 1869 2206 1869 1541 
Q 1869 572 1392 -226 
Q 916 -1025 144 -1369 
L 144 -1253 
Q 528 -1038 776 -670 
Q 1025 -303 1145 264 
Q 1266 831 1266 1447 
Q 1266 2113 1163 2663 
Q 1084 3094 967 3353 
Q 850 3613 656 3853 
Q 463 4094 144 4313 
z
" id="TimesNewRomanPSMT-29" transform="scale(0.015625)"/>
      </defs>
      <use xlink:href="#TimesNewRomanPSMT-54"/>
      <use x="57.583984" xlink:href="#TimesNewRomanPSMT-69"/>
      <use x="85.367188" xlink:href="#TimesNewRomanPSMT-6d"/>
      <use x="163.150391" xlink:href="#TimesNewRomanPSMT-65"/>
      <use x="207.535156" xlink:href="#TimesNewRomanPSMT-20"/>
      <use x="232.535156" xlink:href="#TimesNewRomanPSMT-28"/>
      <use x="265.835938" xlink:href="#TimesNewRomanPSMT-73"/>
      <use x="304.751953" xlink:href="#TimesNewRomanPSMT-65"/>
      <use x="349.136719" xlink:href="#TimesNewRomanPSMT-63"/>
      <use x="393.521484" xlink:href="#TimesNewRomanPSMT-29"/>
     </g>
    </g>
   </g>
   <g id="matplotlib.axis_2">
    <g id="ytick_1">
     <g id="line2d_13">
      <path clip-path="url(#p505ea8c15e)" d="M 63.336875 310.616908 
L 398.136875 310.616908 
" style="fill:none;stroke:#000000;stroke-dasharray:0.5,0.825;stroke-dashoffset:0;stroke-width:0.5;"/>
     </g>
     <g id="line2d_14">
      <defs>
       <path d="M 0 0 
L -3.5 0 
" id="m60c2e5e727" style="stroke:#000000;stroke-width:0.8;"/>
      </defs>
      <g>
       <use style="stroke:#000000;stroke-width:0.8;" x="63.336875" xlink:href="#m60c2e5e727" y="310.616908"/>
      </g>
     </g>
     <g id="text_8">
      <!-- −0.06 -->
      <g transform="translate(23.942188 315.477533)scale(0.14 -0.14)">
       <defs>
        <path d="M 3484 2000 
L 116 2000 
L 116 2256 
L 3484 2256 
L 3484 2000 
z
" id="TimesNewRomanPSMT-2212" transform="scale(0.015625)"/>
        <path d="M 2869 4325 
L 2869 4209 
Q 2456 4169 2195 4045 
Q 1934 3922 1679 3669 
Q 1425 3416 1258 3105 
Q 1091 2794 978 2366 
Q 1428 2675 1881 2675 
Q 2316 2675 2634 2325 
Q 2953 1975 2953 1425 
Q 2953 894 2631 456 
Q 2244 -75 1606 -75 
Q 1172 -75 869 213 
Q 275 772 275 1663 
Q 275 2231 503 2743 
Q 731 3256 1154 3653 
Q 1578 4050 1965 4187 
Q 2353 4325 2688 4325 
L 2869 4325 
z
M 925 2138 
Q 869 1716 869 1456 
Q 869 1156 980 804 
Q 1091 453 1309 247 
Q 1469 100 1697 100 
Q 1969 100 2183 356 
Q 2397 613 2397 1088 
Q 2397 1622 2184 2012 
Q 1972 2403 1581 2403 
Q 1463 2403 1327 2353 
Q 1191 2303 925 2138 
z
" id="TimesNewRomanPSMT-36" transform="scale(0.015625)"/>
       </defs>
       <use xlink:href="#TimesNewRomanPSMT-2212"/>
       <use x="56.396484" xlink:href="#TimesNewRomanPSMT-30"/>
       <use x="106.396484" xlink:href="#TimesNewRomanPSMT-2e"/>
       <use x="131.396484" xlink:href="#TimesNewRomanPSMT-30"/>
       <use x="181.396484" xlink:href="#TimesNewRomanPSMT-36"/>
      </g>
     </g>
    </g>
    <g id="ytick_2">
     <g id="line2d_15">
      <path clip-path="url(#p505ea8c15e)" d="M 63.336875 259.667838 
L 398.136875 259.667838 
" style="fill:none;stroke:#000000;stroke-dasharray:0.5,0.825;stroke-dashoffset:0;stroke-width:0.5;"/>
     </g>
     <g id="line2d_16">
      <g>
       <use style="stroke:#000000;stroke-width:0.8;" x="63.336875" xlink:href="#m60c2e5e727" y="259.667838"/>
      </g>
     </g>
     <g id="text_9">
      <!-- −0.04 -->
      <g transform="translate(23.942188 264.528463)scale(0.14 -0.14)">
       <use xlink:href="#TimesNewRomanPSMT-2212"/>
       <use x="56.396484" xlink:href="#TimesNewRomanPSMT-30"/>
       <use x="106.396484" xlink:href="#TimesNewRomanPSMT-2e"/>
       <use x="131.396484" xlink:href="#TimesNewRomanPSMT-30"/>
       <use x="181.396484" xlink:href="#TimesNewRomanPSMT-34"/>
      </g>
     </g>
    </g>
    <g id="ytick_3">
     <g id="line2d_17">
      <path clip-path="url(#p505ea8c15e)" d="M 63.336875 208.718768 
L 398.136875 208.718768 
" style="fill:none;stroke:#000000;stroke-dasharray:0.5,0.825;stroke-dashoffset:0;stroke-width:0.5;"/>
     </g>
     <g id="line2d_18">
      <g>
       <use style="stroke:#000000;stroke-width:0.8;" x="63.336875" xlink:href="#m60c2e5e727" y="208.718768"/>
      </g>
     </g>
     <g id="text_10">
      <!-- −0.02 -->
      <g transform="translate(23.942188 213.579393)scale(0.14 -0.14)">
       <use xlink:href="#TimesNewRomanPSMT-2212"/>
       <use x="56.396484" xlink:href="#TimesNewRomanPSMT-30"/>
       <use x="106.396484" xlink:href="#TimesNewRomanPSMT-2e"/>
       <use x="131.396484" xlink:href="#TimesNewRomanPSMT-30"/>
       <use x="181.396484" xlink:href="#TimesNewRomanPSMT-32"/>
      </g>
     </g>
    </g>
    <g id="ytick_4">
     <g id="line2d_19">
      <path clip-path="url(#p505ea8c15e)" d="M 63.336875 157.769697 
L 398.136875 157.769697 
" style="fill:none;stroke:#000000;stroke-dasharray:0.5,0.825;stroke-dashoffset:0;stroke-width:0.5;"/>
     </g>
     <g id="line2d_20">
      <g>
       <use style="stroke:#000000;stroke-width:0.8;" x="63.336875" xlink:href="#m60c2e5e727" y="157.769697"/>
      </g>
     </g>
     <g id="text_11">
      <!-- 0.00 -->
      <g transform="translate(31.836875 162.630322)scale(0.14 -0.14)">
       <use xlink:href="#TimesNewRomanPSMT-30"/>
       <use x="50" xlink:href="#TimesNewRomanPSMT-2e"/>
       <use x="75" xlink:href="#TimesNewRomanPSMT-30"/>
       <use x="125" xlink:href="#TimesNewRomanPSMT-30"/>
      </g>
     </g>
    </g>
    <g id="ytick_5">
     <g id="line2d_21">
      <path clip-path="url(#p505ea8c15e)" d="M 63.336875 106.820627 
L 398.136875 106.820627 
" style="fill:none;stroke:#000000;stroke-dasharray:0.5,0.825;stroke-dashoffset:0;stroke-width:0.5;"/>
     </g>
     <g id="line2d_22">
      <g>
       <use style="stroke:#000000;stroke-width:0.8;" x="63.336875" xlink:href="#m60c2e5e727" y="106.820627"/>
      </g>
     </g>
     <g id="text_12">
      <!-- 0.02 -->
      <g transform="translate(31.836875 111.681252)scale(0.14 -0.14)">
       <use xlink:href="#TimesNewRomanPSMT-30"/>
       <use x="50" xlink:href="#TimesNewRomanPSMT-2e"/>
       <use x="75" xlink:href="#TimesNewRomanPSMT-30"/>
       <use x="125" xlink:href="#TimesNewRomanPSMT-32"/>
      </g>
     </g>
    </g>
    <g id="ytick_6">
     <g id="line2d_23">
      <path clip-path="url(#p505ea8c15e)" d="M 63.336875 55.871557 
L 398.136875 55.871557 
" style="fill:none;stroke:#000000;stroke-dasharray:0.5,0.825;stroke-dashoffset:0;stroke-width:0.5;"/>
     </g>
     <g id="line2d_24">
      <g>
       <use style="stroke:#000000;stroke-width:0.8;" x="63.336875" xlink:href="#m60c2e5e727" y="55.871557"/>
      </g>
     </g>
     <g id="text_13">
      <!-- 0.04 -->
      <g transform="translate(31.836875 60.732182)scale(0.14 -0.14)">
       <use xlink:href="#TimesNewRomanPSMT-30"/>
       <use x="50" xlink:href="#TimesNewRomanPSMT-2e"/>
       <use x="75" xlink:href="#TimesNewRomanPSMT-30"/>
       <use x="125" xlink:href="#TimesNewRomanPSMT-34"/>
      </g>
     </g>
    </g>
    <g id="text_14">
     <!-- Volatage (V) -->
     <g transform="translate(16.92125 209.352344)rotate(-90)scale(0.14 -0.14)">
      <defs>
       <path d="M 4544 4238 
L 4544 4122 
Q 4319 4081 4203 3978 
Q 4038 3825 3909 3509 
L 2431 -97 
L 2316 -97 
L 728 3556 
Q 606 3838 556 3900 
Q 478 3997 364 4051 
Q 250 4106 56 4122 
L 56 4238 
L 1788 4238 
L 1788 4122 
Q 1494 4094 1406 4022 
Q 1319 3950 1319 3838 
Q 1319 3681 1463 3350 
L 2541 866 
L 3541 3319 
Q 3688 3681 3688 3822 
Q 3688 3913 3597 3995 
Q 3506 4078 3291 4113 
Q 3275 4116 3238 4122 
L 3238 4238 
L 4544 4238 
z
" id="TimesNewRomanPSMT-56" transform="scale(0.015625)"/>
       <path d="M 1600 2947 
Q 2250 2947 2644 2453 
Q 2978 2031 2978 1484 
Q 2978 1100 2793 706 
Q 2609 313 2286 112 
Q 1963 -88 1566 -88 
Q 919 -88 538 428 
Q 216 863 216 1403 
Q 216 1797 411 2186 
Q 606 2575 925 2761 
Q 1244 2947 1600 2947 
z
M 1503 2744 
Q 1338 2744 1170 2645 
Q 1003 2547 900 2300 
Q 797 2053 797 1666 
Q 797 1041 1045 587 
Q 1294 134 1700 134 
Q 2003 134 2200 384 
Q 2397 634 2397 1244 
Q 2397 2006 2069 2444 
Q 1847 2744 1503 2744 
z
" id="TimesNewRomanPSMT-6f" transform="scale(0.015625)"/>
       <path d="M 1184 4444 
L 1184 647 
Q 1184 378 1223 290 
Q 1263 203 1344 158 
Q 1425 113 1647 113 
L 1647 0 
L 244 0 
L 244 113 
Q 441 113 512 153 
Q 584 194 625 287 
Q 666 381 666 647 
L 666 3247 
Q 666 3731 644 3842 
Q 622 3953 573 3993 
Q 525 4034 450 4034 
Q 369 4034 244 3984 
L 191 4094 
L 1044 4444 
L 1184 4444 
z
" id="TimesNewRomanPSMT-6c" transform="scale(0.015625)"/>
       <path d="M 1822 413 
Q 1381 72 1269 19 
Q 1100 -59 909 -59 
Q 613 -59 420 144 
Q 228 347 228 678 
Q 228 888 322 1041 
Q 450 1253 767 1440 
Q 1084 1628 1822 1897 
L 1822 2009 
Q 1822 2438 1686 2597 
Q 1550 2756 1291 2756 
Q 1094 2756 978 2650 
Q 859 2544 859 2406 
L 866 2225 
Q 866 2081 792 2003 
Q 719 1925 600 1925 
Q 484 1925 411 2006 
Q 338 2088 338 2228 
Q 338 2497 613 2722 
Q 888 2947 1384 2947 
Q 1766 2947 2009 2819 
Q 2194 2722 2281 2516 
Q 2338 2381 2338 1966 
L 2338 994 
Q 2338 584 2353 492 
Q 2369 400 2405 369 
Q 2441 338 2488 338 
Q 2538 338 2575 359 
Q 2641 400 2828 588 
L 2828 413 
Q 2478 -56 2159 -56 
Q 2006 -56 1915 50 
Q 1825 156 1822 413 
z
M 1822 616 
L 1822 1706 
Q 1350 1519 1213 1441 
Q 966 1303 859 1153 
Q 753 1003 753 825 
Q 753 600 887 451 
Q 1022 303 1197 303 
Q 1434 303 1822 616 
z
" id="TimesNewRomanPSMT-61" transform="scale(0.015625)"/>
       <path d="M 1031 3803 
L 1031 2863 
L 1700 2863 
L 1700 2644 
L 1031 2644 
L 1031 788 
Q 1031 509 1111 412 
Q 1191 316 1316 316 
Q 1419 316 1516 380 
Q 1613 444 1666 569 
L 1788 569 
Q 1678 263 1478 108 
Q 1278 -47 1066 -47 
Q 922 -47 784 33 
Q 647 113 581 261 
Q 516 409 516 719 
L 516 2644 
L 63 2644 
L 63 2747 
Q 234 2816 414 2980 
Q 594 3144 734 3369 
Q 806 3488 934 3803 
L 1031 3803 
z
" id="TimesNewRomanPSMT-74" transform="scale(0.015625)"/>
       <path d="M 966 1044 
Q 703 1172 562 1401 
Q 422 1631 422 1909 
Q 422 2334 742 2640 
Q 1063 2947 1563 2947 
Q 1972 2947 2272 2747 
L 2878 2747 
Q 3013 2747 3034 2739 
Q 3056 2731 3066 2713 
Q 3084 2684 3084 2613 
Q 3084 2531 3069 2500 
Q 3059 2484 3036 2475 
Q 3013 2466 2878 2466 
L 2506 2466 
Q 2681 2241 2681 1891 
Q 2681 1491 2375 1206 
Q 2069 922 1553 922 
Q 1341 922 1119 984 
Q 981 866 932 777 
Q 884 688 884 625 
Q 884 572 936 522 
Q 988 472 1138 450 
Q 1225 438 1575 428 
Q 2219 413 2409 384 
Q 2700 344 2873 169 
Q 3047 -6 3047 -263 
Q 3047 -616 2716 -925 
Q 2228 -1381 1444 -1381 
Q 841 -1381 425 -1109 
Q 191 -953 191 -784 
Q 191 -709 225 -634 
Q 278 -519 444 -313 
Q 466 -284 763 25 
Q 600 122 533 198 
Q 466 275 466 372 
Q 466 481 555 628 
Q 644 775 966 1044 
z
M 1509 2797 
Q 1278 2797 1122 2612 
Q 966 2428 966 2047 
Q 966 1553 1178 1281 
Q 1341 1075 1591 1075 
Q 1828 1075 1981 1253 
Q 2134 1431 2134 1813 
Q 2134 2309 1919 2591 
Q 1759 2797 1509 2797 
z
M 934 0 
Q 788 -159 713 -296 
Q 638 -434 638 -550 
Q 638 -700 819 -813 
Q 1131 -1006 1722 -1006 
Q 2284 -1006 2551 -807 
Q 2819 -609 2819 -384 
Q 2819 -222 2659 -153 
Q 2497 -84 2016 -72 
Q 1313 -53 934 0 
z
" id="TimesNewRomanPSMT-67" transform="scale(0.015625)"/>
      </defs>
      <use xlink:href="#TimesNewRomanPSMT-56"/>
      <use x="59.341797" xlink:href="#TimesNewRomanPSMT-6f"/>
      <use x="109.341797" xlink:href="#TimesNewRomanPSMT-6c"/>
      <use x="137.125" xlink:href="#TimesNewRomanPSMT-61"/>
      <use x="181.509766" xlink:href="#TimesNewRomanPSMT-74"/>
      <use x="209.292969" xlink:href="#TimesNewRomanPSMT-61"/>
      <use x="253.677734" xlink:href="#TimesNewRomanPSMT-67"/>
      <use x="303.677734" xlink:href="#TimesNewRomanPSMT-65"/>
      <use x="348.0625" xlink:href="#TimesNewRomanPSMT-20"/>
      <use x="373.0625" xlink:href="#TimesNewRomanPSMT-28"/>
      <use x="406.363281" xlink:href="#TimesNewRomanPSMT-56"/>
      <use x="478.580078" xlink:href="#TimesNewRomanPSMT-29"/>
     </g>
    </g>
   </g>
   <g id="LineCollection_1">
    <path clip-path="url(#p505ea8c15e)" d="M 78.555057 157.769697 
L 382.918693 157.769697 
" style="fill:none;stroke:#1f77b4;stroke-width:1.5;"/>
   </g>
   <g id="line2d_25">
    <path clip-path="url(#p505ea8c15e)" d="M 78.555057 157.766258 
L 78.707239 157.766258 
L 91.551384 157.861788 
L 91.703566 157.861788 
L 91.855748 157.861788 
L 100.590984 157.957317 
L 100.62142 157.989161 
L 100.682293 157.925474 
L 100.834475 157.861788 
L 100.864911 157.957317 
L 100.95622 157.893631 
L 101.169275 157.957317 
L 101.351893 157.925474 
L 101.534511 157.957317 
L 106.708693 158.021004 
L 106.73913 158.08469 
L 106.830439 158.021004 
L 111.852439 158.116533 
L 112.035057 158.148376 
L 112.217675 158.08469 
L 112.400293 158.148376 
L 112.552475 158.148376 
L 113.465566 158.243906 
L 113.617748 158.243906 
L 114.561275 158.339435 
L 114.713457 158.403122 
L 115.291748 158.498651 
L 115.413493 158.530494 
L 115.44393 158.498651 
L 115.961348 158.594181 
L 116.204839 158.68971 
L 116.326584 158.657867 
L 116.478766 158.721553 
L 116.661384 158.68971 
L 116.78313 158.753397 
L 116.935311 158.753397 
L 117.148366 158.817083 
L 118.12233 158.880769 
L 118.274511 158.944456 
L 118.36582 158.912612 
L 118.396257 158.944456 
L 118.578875 158.976299 
L 119.583275 159.071828 
L 119.765893 159.135515 
L 119.918075 159.103671 
L 120.13113 159.167358 
L 120.283311 159.135515 
L 120.46593 159.167358 
L 121.257275 159.262887 
L 121.439893 159.294731 
L 121.774693 159.39026 
L 122.04862 159.549476 
L 122.200802 159.549476 
L 122.444293 159.613162 
L 122.626911 159.740535 
L 122.779093 159.836064 
L 123.174766 160.09081 
L 123.357384 160.154496 
L 123.540002 160.313712 
L 123.753057 160.409241 
L 123.935675 160.632144 
L 125.457493 162.383518 
L 127.466293 166.841562 
L 129.535966 173.687843 
L 130.996911 179.355926 
L 131.149093 179.929103 
L 132.396984 184.673736 
L 133.584002 188.049112 
L 133.736184 188.3357 
L 134.131857 189.227309 
L 135.258002 191.328958 
L 136.140657 192.125038 
L 136.262402 192.061351 
L 136.292839 192.093194 
L 136.414584 192.061351 
L 136.566766 191.965822 
L 136.718948 191.870292 
L 136.932002 191.679233 
L 137.418984 191.010527 
L 137.632039 190.564722 
L 138.606002 188.272014 
L 139.275602 185.883776 
L 139.610402 184.482677 
L 140.79742 177.700082 
L 141.588766 172.031998 
L 144.206293 149.200446 
L 146.48902 124.203558 
L 148.193457 104.174203 
L 150.993602 73.222645 
L 152.363239 61.376986 
L 153.27633 54.594394 
L 153.489384 53.288817 
L 153.976366 50.486618 
L 155.224257 45.741986 
L 155.832984 44.691169 
L 155.95473 44.595631 
L 156.319966 44.372732 
L 156.62433 44.468266 
L 156.86782 44.723007 
L 157.20262 45.232497 
L 157.567857 46.028574 
L 157.841784 46.824653 
L 159.21142 54.530708 
L 159.941893 60.644596 
L 161.128911 72.840532 
L 162.102875 85.291206 
L 163.776875 111.434445 
L 165.024766 134.170471 
L 167.094439 175.184471 
L 170.442439 242.914894 
L 171.629457 264.345344 
L 172.69473 281.38144 
L 174.307857 301.824757 
L 175.342693 311.568761 
L 176.499275 319.242975 
L 177.260184 322.71387 
L 178.325457 324.688152 
L 178.508075 324.72 
L 179.025493 324.019448 
L 179.786402 322.172541 
L 180.121202 320.771437 
L 181.30822 314.020685 
L 182.221311 306.53754 
L 183.590948 291.061765 
L 184.199675 282.782542 
L 185.021457 271.096096 
L 187.152002 235.973081 
L 189.586911 190.723938 
L 191.10873 161.173478 
L 194.304548 106.212168 
L 195.248075 93.029096 
L 196.222039 80.323669 
L 198.352584 59.052438 
L 198.596075 57.237369 
L 199.509166 51.346383 
L 199.874402 49.372112 
L 200.330948 46.824653 
L 201.365784 42.971637 
L 201.944075 41.475006 
L 202.004948 41.411317 
L 202.370184 40.901829 
L 203.40502 39.978375 
L 203.557202 39.978375 
L 204.40942 40.073912 
L 204.83553 40.678927 
L 206.113857 43.608501 
L 206.448657 44.786696 
L 206.722584 45.550934 
L 207.057384 46.729126 
L 207.361748 48.034696 
L 208.42702 52.938552 
L 210.801057 67.140597 
L 211.501093 71.375739 
L 215.001275 94.016237 
L 215.88393 100.512238 
L 220.266766 127.324189 
L 225.16702 152.416606 
L 225.440948 153.626647 
L 227.571493 165.344932 
L 227.906293 167.478425 
L 229.671602 179.260397 
L 230.919493 188.781505 
L 231.86302 196.487552 
L 232.471748 201.741672 
L 233.080475 207.760033 
L 235.241457 229.222327 
L 237.767675 252.022033 
L 237.919857 253.041022 
L 238.711202 258.740947 
L 239.31993 262.402911 
L 240.050402 266.319616 
L 240.689566 268.548638 
L 240.963493 269.312879 
L 241.146111 269.790529 
L 242.150511 270.682132 
L 242.546184 270.586608 
L 243.124475 269.822367 
L 243.428839 269.440251 
L 243.763639 268.930763 
L 244.25062 267.657034 
L 244.981093 265.045897 
L 246.533348 254.601332 
L 248.511711 234.922256 
L 250.733566 208.078468 
L 253.38153 173.464941 
L 254.690293 157.129395 
L 256.942584 132.419096 
L 258.616584 119.331554 
L 259.012257 116.688571 
L 260.07753 110.702055 
L 261.629784 104.651855 
L 261.75153 104.39711 
L 262.147202 103.473656 
L 262.360257 103.091538 
L 262.816802 102.390988 
L 262.908111 102.295458 
L 263.182039 101.977027 
L 263.364657 101.8815 
L 263.66902 101.690438 
L 263.699457 101.722281 
L 263.76033 101.658592 
L 264.00382 101.563068 
L 265.09953 101.626749 
L 265.221275 101.690438 
L 265.34302 101.722281 
L 265.495202 101.785968 
L 267.01702 103.505499 
L 267.290948 104.014989 
L 269.11713 108.090913 
L 269.573675 109.173585 
L 270.182402 110.670212 
L 270.608511 111.975784 
L 271.70422 115.765119 
L 273.317348 122.070066 
L 273.499966 122.70693 
L 276.117493 130.572192 
L 276.695784 132.036978 
L 277.39582 133.883882 
L 277.882802 135.157609 
L 278.187166 135.985531 
L 278.82633 137.577688 
L 279.191566 138.405613 
L 279.374184 138.755887 
L 282.722184 146.016129 
L 282.996111 146.589306 
L 283.08742 146.684836 
L 283.42222 147.385385 
L 283.635275 147.767503 
L 284.304875 148.945701 
L 284.396184 149.04123 
L 284.76142 149.582564 
L 284.822293 149.64625 
L 285.157093 150.092055 
L 285.735384 150.537859 
L 285.826693 150.537859 
L 285.85713 150.569702 
L 286.222366 150.665232 
L 286.43542 150.728918 
L 286.648475 150.601545 
L 286.678911 150.633389 
L 286.86153 150.537859 
L 287.378948 150.155741 
L 287.43982 150.060212 
L 288.261602 149.04123 
L 290.057348 145.060834 
L 290.392148 144.105539 
L 290.848693 142.895499 
L 293.100984 136.144748 
L 293.192293 135.89 
L 293.496657 134.998393 
L 294.501057 132.196194 
L 295.962002 129.393995 
L 297.118584 128.34317 
L 297.270766 128.34317 
L 297.636002 128.4387 
L 297.90993 128.566073 
L 298.122984 128.661602 
L 298.640402 129.489525 
L 298.792584 129.807956 
L 299.58393 131.686703 
L 301.379675 139.679339 
L 302.231893 144.710559 
L 303.784148 156.87465 
L 305.153784 169.261643 
L 306.827784 185.629031 
L 311.119311 225.019028 
L 312.21502 232.247428 
L 312.915057 235.941235 
L 314.376002 241.609327 
L 315.076039 242.81936 
L 315.349966 242.946732 
L 316.141311 242.851208 
L 316.780475 242.02328 
L 317.693566 239.857945 
L 318.180548 237.979201 
L 319.032766 233.935116 
L 319.763239 229.349702 
L 320.189348 226.547503 
L 322.411202 209.479567 
L 323.750402 197.37916 
L 325.089602 184.51452 
L 326.185311 174.420235 
L 327.95062 158.817083 
L 328.254984 156.269629 
L 328.863711 151.015506 
L 333.003057 121.465046 
L 336.016257 106.275854 
L 336.472802 104.492637 
L 337.233711 101.785968 
L 338.42073 98.410592 
L 340.00342 95.353648 
L 340.246911 94.939684 
L 341.00782 93.602273 
L 341.494802 92.933564 
L 341.829602 92.487762 
L 341.920911 92.39223 
L 343.229675 91.150349 
L 343.260111 91.182192 
L 343.320984 91.118506 
L 343.68622 90.895604 
L 343.960148 90.800074 
L 344.173202 90.736386 
L 344.35582 90.768231 
L 344.508002 90.704542 
L 345.45153 90.768231 
L 345.634148 90.895604 
L 346.608111 92.073804 
L 346.973348 92.901726 
L 347.12553 93.220153 
L 347.673384 94.621252 
L 349.651748 101.180947 
L 351.082257 107.645111 
L 351.569239 110.001508 
L 353.030184 117.070686 
L 353.73022 120.477908 
L 354.247639 123.025361 
L 354.765057 125.668344 
L 359.75662 152.35292 
L 360.578402 156.810963 
L 362.617639 166.905248 
L 363.895966 172.700705 
L 364.322075 174.674982 
L 365.417784 179.706202 
L 365.843893 181.680479 
L 367.152657 187.571464 
L 367.426584 188.845191 
L 369.313639 197.219945 
L 369.952802 199.990303 
L 371.931166 207.791877 
L 372.47902 209.86168 
L 373.452984 213.459963 
L 375.735711 220.274399 
L 375.766148 220.274399 
L 376.070511 221.070475 
L 377.074911 222.949227 
L 377.135784 223.044752 
L 377.59233 223.745304 
L 378.779348 224.859815 
L 378.901093 224.891658 
L 379.905493 224.796129 
L 381.062075 223.426872 
L 382.127348 220.974951 
L 382.553457 219.669376 
L 382.918693 218.395652 
L 382.918693 218.395652 
" style="fill:none;stroke:#0000ff;stroke-linecap:square;stroke-width:1.5;"/>
   </g>
   <g id="line2d_26">
    <path clip-path="url(#p505ea8c15e)" d="M 78.555057 157.685313 
L 81.781311 157.780843 
L 81.994366 157.780843 
L 91.612257 157.876372 
L 91.825311 157.892294 
L 92.038366 157.892294 
L 95.721166 157.987823 
L 95.964657 158.003745 
L 96.177711 158.003745 
L 96.451639 158.035588 
L 96.664693 158.035588 
L 100.256184 158.131117 
L 100.530111 158.178882 
L 100.651857 158.194804 
L 100.895348 158.290333 
L 101.04753 158.322176 
L 101.351893 158.417706 
L 102.29542 159.022726 
L 102.599784 159.309315 
L 103.452002 160.360139 
L 105.582548 165.057007 
L 106.252148 167.09497 
L 107.347857 170.868384 
L 108.291384 174.355212 
L 108.960984 176.807136 
L 110.42193 181.742828 
L 110.75673 182.698123 
L 111.974184 185.579929 
L 112.156802 185.930204 
L 112.826402 187.092479 
L 113.00902 187.29946 
L 113.526439 187.681578 
L 113.739493 187.777108 
L 114.165602 187.920402 
L 114.34822 187.872637 
L 114.469966 187.840794 
L 114.804766 187.554205 
L 115.565675 186.614832 
L 116.44833 184.545026 
L 118.304948 177.364392 
L 119.065857 173.622819 
L 119.644148 170.374815 
L 120.587675 164.881869 
L 123.266075 145.935184 
L 125.183566 131.764974 
L 128.562002 112.929739 
L 130.08382 107.00691 
L 131.42302 103.790747 
L 131.818693 102.994671 
L 132.396984 101.529882 
L 132.731784 100.940786 
L 133.614439 99.730743 
L 133.736184 99.587449 
L 133.979675 99.316785 
L 134.284039 99.125728 
L 134.43622 99.093885 
L 135.014511 98.679921 
L 135.379748 98.281882 
L 135.86673 98.138587 
L 136.53633 98.043055 
L 136.840693 97.883842 
L 137.297239 97.96345 
L 137.845093 98.377414 
L 138.179893 98.648078 
L 138.666875 99.587449 
L 139.184293 101.227375 
L 141.284402 109.331464 
L 142.258366 114.426366 
L 143.81062 124.855006 
L 146.032475 141.922944 
L 147.523857 155.297075 
L 148.650002 165.932694 
L 149.989202 178.781413 
L 150.963166 188.286598 
L 153.763311 212.232661 
L 154.919893 219.890943 
L 155.86342 224.683343 
L 156.928693 228.663734 
L 158.267893 231.227111 
L 158.724439 231.370406 
L 158.907057 231.386327 
L 159.63753 231.2908 
L 159.911457 231.03605 
L 160.30713 230.478797 
L 161.524584 227.708441 
L 162.955093 222.088119 
L 164.020366 215.958312 
L 165.359566 206.102849 
L 166.059602 200.195943 
L 170.01633 165.99638 
L 171.26422 157.032528 
L 173.36433 145.553066 
L 174.216548 142.464279 
L 174.886148 140.378551 
L 175.799239 139.120745 
L 176.073166 138.866 
L 176.37753 138.690863 
L 176.986257 139.120745 
L 177.62542 139.932747 
L 178.142839 141.27016 
L 181.186475 152.82923 
L 182.251748 158.369941 
L 183.103966 163.401162 
L 183.98662 168.241324 
L 186.08673 178.638119 
L 186.75633 180.962669 
L 187.821602 183.971849 
L 189.221675 186.646675 
L 189.952148 187.267617 
L 190.165202 187.267617 
L 190.34782 187.172087 
L 190.591311 186.933264 
L 191.291348 185.69138 
L 191.382657 185.532164 
L 191.808766 184.545026 
L 192.995784 181.806513 
L 193.969748 178.399293 
L 196.313348 168.113951 
L 197.37862 162.57324 
L 198.900439 153.195426 
L 200.361384 141.684121 
L 202.309311 125.332654 
L 203.374584 116.719074 
L 205.261639 101.848314 
L 206.144293 97.008157 
L 208.061784 88.506029 
L 209.553166 84.175355 
L 210.314075 82.837945 
L 211.379348 82.360297 
L 212.322875 83.506651 
L 213.083784 84.875908 
L 214.666475 89.318032 
L 215.79262 93.839757 
L 216.766584 98.934667 
L 225.349639 147.686558 
L 227.328002 157.446489 
L 229.884657 168.957795 
L 232.806548 181.663219 
L 236.702402 201.453749 
L 237.64593 205.402301 
L 239.289493 210.242466 
L 240.019966 211.579876 
L 240.506948 212.344112 
L 240.872184 212.885446 
L 241.511348 213.697447 
L 242.180948 214.238781 
L 243.702766 215.146311 
L 244.281057 215.592118 
L 244.433239 215.687645 
L 244.859348 216.006077 
L 245.072402 216.228976 
L 247.172511 217.216117 
L 247.68993 217.311644 
L 248.055166 217.407176 
L 248.176911 217.454938 
L 249.60742 217.534551 
L 249.820475 217.598233 
L 250.185711 217.693765 
L 250.36833 217.709689 
L 251.220548 218.235099 
L 251.433602 218.442079 
L 252.346693 219.238158 
L 252.71193 219.540666 
L 253.411966 220.113843 
L 253.685893 220.368593 
L 254.568548 221.578631 
L 254.690293 221.73785 
L 255.359893 222.597615 
L 258.160039 225.38389 
L 258.373093 225.463495 
L 258.616584 225.559027 
L 259.225311 225.463495 
L 260.381893 224.094242 
L 260.716693 223.377768 
L 261.538475 220.973608 
L 262.968984 213.713369 
L 263.821202 207.663166 
L 265.038657 197.234531 
L 265.890875 188.175147 
L 267.35182 169.260304 
L 269.178002 141.954788 
L 273.37822 75.60954 
L 274.960911 54.051715 
L 276.330548 39.531233 
L 277.243639 31.888875 
L 278.887202 23.864394 
L 279.282875 23.05239 
L 279.648111 22.526986 
L 280.16553 22.351848 
L 280.439457 22.590675 
L 281.048184 23.737018 
L 281.869966 26.666593 
L 282.600439 30.599232 
L 283.51353 36.983782 
L 284.85273 49.116032 
L 286.618039 68.747338 
L 288.261602 89.859366 
L 292.644439 147.957225 
L 294.13582 165.29583 
L 296.053311 184.210673 
L 298.975202 209.20756 
L 300.223093 218.139566 
L 301.25793 224.460435 
L 303.418911 234.15668 
L 304.362439 235.876214 
L 305.032039 236.130957 
L 305.18422 236.146884 
L 305.397275 236.146884 
L 305.671202 236.051351 
L 306.097311 235.716998 
L 306.371239 235.478174 
L 306.827784 235.127897 
L 307.223457 234.570644 
L 308.501784 231.64107 
L 308.988766 230.080757 
L 309.62793 228.154246 
L 309.901857 227.326323 
L 310.267093 226.084442 
L 311.575857 220.894003 
L 312.793311 214.63682 
L 313.767275 208.395559 
L 315.106475 198.540099 
L 315.958693 192.282916 
L 316.506548 188.159226 
L 319.884984 164.213163 
L 321.437239 155.153781 
L 322.472075 150.329541 
L 324.176511 144.502242 
L 324.785239 142.941926 
L 325.27222 141.668199 
L 326.124439 139.741688 
L 327.159275 138.308745 
L 327.737566 137.86294 
L 328.346293 137.433058 
L 328.62022 137.289764 
L 328.924584 137.194233 
L 329.38113 137.050938 
L 329.563748 137.050938 
L 329.746366 137.003175 
L 329.898548 137.035019 
L 330.111602 137.035019 
L 333.459602 136.939488 
L 333.763966 136.780272 
L 333.97702 136.700665 
L 334.342257 136.477764 
L 334.555311 136.382232 
L 335.194475 135.95235 
L 335.498839 135.665761 
L 336.472802 134.503487 
L 338.207675 130.634541 
L 338.938148 128.692108 
L 341.646984 121.909513 
L 343.747093 117.769901 
L 344.599311 117.037508 
L 344.873239 117.005665 
L 345.11673 117.101194 
L 345.725457 117.531077 
L 346.882039 118.900333 
L 347.277711 119.489432 
L 347.612511 119.998923 
L 348.982148 123.119553 
L 350.290911 127.577597 
L 351.173566 131.207718 
L 352.664948 138.738628 
L 355.465093 155.488134 
L 356.926039 164.722653 
L 357.352148 167.222342 
L 358.386984 173.017799 
L 358.995711 176.409096 
L 359.665311 179.625257 
L 360.85233 184.131065 
L 362.922002 190.276796 
L 364.413384 193.142682 
L 365.022111 193.906918 
L 365.935202 194.702997 
L 366.391748 194.862213 
L 366.604802 194.798526 
L 367.030911 194.480095 
L 367.517893 193.890996 
L 367.700511 193.684015 
L 368.857093 191.693817 
L 369.831057 188.843854 
L 371.352875 182.013495 
L 372.874693 174.625879 
L 373.331239 172.253563 
L 375.096548 162.429945 
L 381.457748 126.431243 
L 382.918693 119.87155 
L 382.918693 119.87155 
" style="fill:none;stroke:#ff0000;stroke-linecap:square;stroke-width:1.5;"/>
   </g>
   <g id="line2d_27">
    <path clip-path="url(#p505ea8c15e)" d="M 127.222802 166.172855 
" style="fill:none;stroke:#ffffff;stroke-linecap:square;stroke-width:1.5;"/>
    <defs>
     <path d="M 0 -5 
L -1.12257 -1.545085 
L -4.755283 -1.545085 
L -1.816356 0.59017 
L -2.938926 4.045085 
L -0 1.90983 
L 2.938926 4.045085 
L 1.816356 0.59017 
L 4.755283 -1.545085 
L 1.12257 -1.545085 
z
" id="ma271698689" style="stroke:#ffffff;stroke-linejoin:bevel;"/>
    </defs>
    <g clip-path="url(#p505ea8c15e)">
     <use style="fill:#0000ff;stroke:#ffffff;stroke-linejoin:bevel;" x="127.222802" xlink:href="#ma271698689" y="166.172855"/>
    </g>
   </g>
   <g id="line2d_28">
    <path clip-path="url(#p505ea8c15e)" d="M 105.430366 164.611202 
" style="fill:none;stroke:#ffffff;stroke-linecap:square;stroke-width:1.5;"/>
    <defs>
     <path d="M 0 -5 
L -1.12257 -1.545085 
L -4.755283 -1.545085 
L -1.816356 0.59017 
L -2.938926 4.045085 
L -0 1.90983 
L 2.938926 4.045085 
L 1.816356 0.59017 
L 4.755283 -1.545085 
L 1.12257 -1.545085 
z
" id="m41930879c7" style="stroke:#ffffff;stroke-linejoin:bevel;"/>
    </defs>
    <g clip-path="url(#p505ea8c15e)">
     <use style="fill:#ff0000;stroke:#ffffff;stroke-linejoin:bevel;" x="105.430366" xlink:href="#m41930879c7" y="164.611202"/>
    </g>
   </g>
   <g id="patch_3">
    <path d="M 63.336875 339.84 
L 63.336875 7.2 
" style="fill:none;stroke:#000000;stroke-linecap:square;stroke-linejoin:miter;stroke-width:0.8;"/>
   </g>
   <g id="patch_4">
    <path d="M 398.136875 339.84 
L 398.136875 7.2 
" style="fill:none;stroke:#000000;stroke-linecap:square;stroke-linejoin:miter;stroke-width:0.8;"/>
   </g>
   <g id="patch_5">
    <path d="M 63.336875 339.84 
L 398.136875 339.84 
" style="fill:none;stroke:#000000;stroke-linecap:square;stroke-linejoin:miter;stroke-width:0.8;"/>
   </g>
   <g id="patch_6">
    <path d="M 63.336875 7.2 
L 398.136875 7.2 
" style="fill:none;stroke:#000000;stroke-linecap:square;stroke-linejoin:miter;stroke-width:0.8;"/>
   </g>
   <g id="text_15">
    <g id="patch_7">
     <path d="M 75.036875 331.242688 
L 166.79375 331.242688 
L 166.79375 293.760312 
L 75.036875 293.760312 
z
" style="fill:#ffffff;stroke:#000000;stroke-linejoin:miter;stroke-width:0.75;"/>
    </g>
    <!-- Auto_00067 -->
    <g transform="translate(80.076875 308.521563)scale(0.14 -0.14)">
     <defs>
      <path d="M 2928 1419 
L 1288 1419 
L 1000 750 
Q 894 503 894 381 
Q 894 284 986 211 
Q 1078 138 1384 116 
L 1384 0 
L 50 0 
L 50 116 
Q 316 163 394 238 
Q 553 388 747 847 
L 2238 4334 
L 2347 4334 
L 3822 809 
Q 4000 384 4145 257 
Q 4291 131 4550 116 
L 4550 0 
L 2878 0 
L 2878 116 
Q 3131 128 3220 200 
Q 3309 272 3309 375 
Q 3309 513 3184 809 
L 2928 1419 
z
M 2841 1650 
L 2122 3363 
L 1384 1650 
L 2841 1650 
z
" id="TimesNewRomanPSMT-41" transform="scale(0.015625)"/>
      <path d="M 2709 2863 
L 2709 1128 
Q 2709 631 2732 520 
Q 2756 409 2807 365 
Q 2859 322 2928 322 
Q 3025 322 3147 375 
L 3191 266 
L 2334 -88 
L 2194 -88 
L 2194 519 
Q 1825 119 1631 15 
Q 1438 -88 1222 -88 
Q 981 -88 804 51 
Q 628 191 559 409 
Q 491 628 491 1028 
L 491 2306 
Q 491 2509 447 2587 
Q 403 2666 317 2708 
Q 231 2750 6 2747 
L 6 2863 
L 1009 2863 
L 1009 947 
Q 1009 547 1148 422 
Q 1288 297 1484 297 
Q 1619 297 1789 381 
Q 1959 466 2194 703 
L 2194 2325 
Q 2194 2569 2105 2655 
Q 2016 2741 1734 2747 
L 1734 2863 
L 2709 2863 
z
" id="TimesNewRomanPSMT-75" transform="scale(0.015625)"/>
      <path d="M 3256 -1381 
L -53 -1381 
L -53 -1119 
L 3256 -1119 
L 3256 -1381 
z
" id="TimesNewRomanPSMT-5f" transform="scale(0.015625)"/>
      <path d="M 644 4238 
L 2916 4238 
L 2916 4119 
L 1503 -88 
L 1153 -88 
L 2419 3728 
L 1253 3728 
Q 900 3728 750 3644 
Q 488 3500 328 3200 
L 238 3234 
L 644 4238 
z
" id="TimesNewRomanPSMT-37" transform="scale(0.015625)"/>
     </defs>
     <use xlink:href="#TimesNewRomanPSMT-41"/>
     <use x="72.216797" xlink:href="#TimesNewRomanPSMT-75"/>
     <use x="122.216797" xlink:href="#TimesNewRomanPSMT-74"/>
     <use x="150" xlink:href="#TimesNewRomanPSMT-6f"/>
     <use x="200" xlink:href="#TimesNewRomanPSMT-5f"/>
     <use x="250" xlink:href="#TimesNewRomanPSMT-30"/>
     <use x="300" xlink:href="#TimesNewRomanPSMT-30"/>
     <use x="350" xlink:href="#TimesNewRomanPSMT-30"/>
     <use x="400" xlink:href="#TimesNewRomanPSMT-36"/>
     <use x="450" xlink:href="#TimesNewRomanPSMT-37"/>
    </g>
    <!-- Vs: 279.19m/s -->
    <g transform="translate(80.076875 323.208)scale(0.14 -0.14)">
     <defs>
      <path d="M 903 2950 
Q 1047 2950 1148 2848 
Q 1250 2747 1250 2603 
Q 1250 2459 1148 2357 
Q 1047 2256 903 2256 
Q 759 2256 657 2357 
Q 556 2459 556 2603 
Q 556 2747 657 2848 
Q 759 2950 903 2950 
z
M 897 609 
Q 1044 609 1145 506 
Q 1247 403 1247 259 
Q 1247 116 1144 14 
Q 1041 -88 897 -88 
Q 753 -88 651 14 
Q 550 116 550 259 
Q 550 403 651 506 
Q 753 609 897 609 
z
" id="TimesNewRomanPSMT-3a" transform="scale(0.015625)"/>
      <path d="M 338 -88 
L 338 28 
Q 744 34 1094 217 
Q 1444 400 1770 856 
Q 2097 1313 2225 1859 
Q 1734 1544 1338 1544 
Q 891 1544 572 1889 
Q 253 2234 253 2806 
Q 253 3363 572 3797 
Q 956 4325 1575 4325 
Q 2097 4325 2469 3894 
Q 2925 3359 2925 2575 
Q 2925 1869 2578 1258 
Q 2231 647 1613 244 
Q 1109 -88 516 -88 
L 338 -88 
z
M 2275 2091 
Q 2331 2497 2331 2741 
Q 2331 3044 2228 3395 
Q 2125 3747 1936 3934 
Q 1747 4122 1506 4122 
Q 1228 4122 1018 3872 
Q 809 3622 809 3128 
Q 809 2469 1088 2097 
Q 1291 1828 1588 1828 
Q 1731 1828 1928 1897 
Q 2125 1966 2275 2091 
z
" id="TimesNewRomanPSMT-39" transform="scale(0.015625)"/>
      <path d="M 1794 4444 
L 259 -88 
L 9 -88 
L 1544 4444 
L 1794 4444 
z
" id="TimesNewRomanPSMT-2f" transform="scale(0.015625)"/>
     </defs>
     <use xlink:href="#TimesNewRomanPSMT-56"/>
     <use x="72.216797" xlink:href="#TimesNewRomanPSMT-73"/>
     <use x="111.132812" xlink:href="#TimesNewRomanPSMT-3a"/>
     <use x="138.916016" xlink:href="#TimesNewRomanPSMT-20"/>
     <use x="163.916016" xlink:href="#TimesNewRomanPSMT-32"/>
     <use x="213.916016" xlink:href="#TimesNewRomanPSMT-37"/>
     <use x="263.916016" xlink:href="#TimesNewRomanPSMT-39"/>
     <use x="313.916016" xlink:href="#TimesNewRomanPSMT-2e"/>
     <use x="338.916016" xlink:href="#TimesNewRomanPSMT-31"/>
     <use x="388.916016" xlink:href="#TimesNewRomanPSMT-39"/>
     <use x="438.916016" xlink:href="#TimesNewRomanPSMT-6d"/>
     <use x="516.699219" xlink:href="#TimesNewRomanPSMT-2f"/>
     <use x="544.482422" xlink:href="#TimesNewRomanPSMT-73"/>
    </g>
   </g>
  </g>
 </g>
 <defs>
  <clipPath id="p505ea8c15e">
   <rect height="332.64" width="334.8" x="63.336875" y="7.2"/>
  </clipPath>
 </defs>
</svg>
