<?xml version="1.0" encoding="utf-8" standalone="no"?>
<!DOCTYPE svg PUBLIC "-//W3C//DTD SVG 1.1//EN"
  "http://www.w3.org/Graphics/SVG/1.1/DTD/svg11.dtd">
<svg height="383.471875pt" version="1.1" viewBox="0 0 421.086875 383.471875" width="421.086875pt" xmlns="http://www.w3.org/2000/svg" xmlns:xlink="http://www.w3.org/1999/xlink">
 <metadata>
  <rdf:RDF xmlns:cc="http://creativecommons.org/ns#" xmlns:dc="http://purl.org/dc/elements/1.1/" xmlns:rdf="http://www.w3.org/1999/02/22-rdf-syntax-ns#">
   <cc:Work>
    <dc:type rdf:resource="http://purl.org/dc/dcmitype/StillImage"/>
    <dc:date>2021-06-11T14:39:38.673878</dc:date>
    <dc:format>image/svg+xml</dc:format>
    <dc:creator>
     <cc:Agent>
      <dc:title>Matplotlib v3.4.2, https://matplotlib.org/</dc:title>
     </cc:Agent>
    </dc:creator>
   </cc:Work>
  </rdf:RDF>
 </metadata>
 <defs>
  <style type="text/css">*{stroke-linecap:butt;stroke-linejoin:round;}</style>
 </defs>
 <g id="figure_1">
  <g id="patch_1">
   <path d="M 0 383.471875 
L 421.086875 383.471875 
L 421.086875 0 
L 0 0 
z
" style="fill:#ffffff;"/>
  </g>
  <g id="axes_1">
   <g id="patch_2">
    <path d="M 63.336875 339.84 
L 398.136875 339.84 
L 398.136875 7.2 
L 63.336875 7.2 
z
" style="fill:#ffffff;"/>
   </g>
   <g id="matplotlib.axis_1">
    <g id="xtick_1">
     <g id="line2d_1">
      <path clip-path="url(#pc5880d6069)" d="M 93.773239 339.84 
L 93.773239 7.2 
" style="fill:none;stroke:#000000;stroke-dasharray:0.5,0.825;stroke-dashoffset:0;stroke-width:0.5;"/>
     </g>
     <g id="line2d_2">
      <defs>
       <path d="M 0 0 
L 0 3.5 
" id="mdd4ed22ea1" style="stroke:#000000;stroke-width:0.8;"/>
      </defs>
      <g>
       <use style="stroke:#000000;stroke-width:0.8;" x="93.773239" xlink:href="#mdd4ed22ea1" y="339.84"/>
      </g>
     </g>
     <g id="text_1">
      <!-- 0.000 -->
      <g transform="translate(78.023239 356.56125)scale(0.14 -0.14)">
       <defs>
        <path d="M 231 2094 
Q 231 2819 450 3342 
Q 669 3866 1031 4122 
Q 1313 4325 1613 4325 
Q 2100 4325 2488 3828 
Q 2972 3213 2972 2159 
Q 2972 1422 2759 906 
Q 2547 391 2217 158 
Q 1888 -75 1581 -75 
Q 975 -75 572 641 
Q 231 1244 231 2094 
z
M 844 2016 
Q 844 1141 1059 588 
Q 1238 122 1591 122 
Q 1759 122 1940 273 
Q 2122 425 2216 781 
Q 2359 1319 2359 2297 
Q 2359 3022 2209 3506 
Q 2097 3866 1919 4016 
Q 1791 4119 1609 4119 
Q 1397 4119 1231 3928 
Q 1006 3669 925 3112 
Q 844 2556 844 2016 
z
" id="TimesNewRomanPSMT-30" transform="scale(0.015625)"/>
        <path d="M 800 606 
Q 947 606 1047 504 
Q 1147 403 1147 259 
Q 1147 116 1045 14 
Q 944 -88 800 -88 
Q 656 -88 554 14 
Q 453 116 453 259 
Q 453 406 554 506 
Q 656 606 800 606 
z
" id="TimesNewRomanPSMT-2e" transform="scale(0.015625)"/>
       </defs>
       <use xlink:href="#TimesNewRomanPSMT-30"/>
       <use x="50" xlink:href="#TimesNewRomanPSMT-2e"/>
       <use x="75" xlink:href="#TimesNewRomanPSMT-30"/>
       <use x="125" xlink:href="#TimesNewRomanPSMT-30"/>
       <use x="175" xlink:href="#TimesNewRomanPSMT-30"/>
      </g>
     </g>
    </g>
    <g id="xtick_2">
     <g id="line2d_3">
      <path clip-path="url(#pc5880d6069)" d="M 154.645966 339.84 
L 154.645966 7.2 
" style="fill:none;stroke:#000000;stroke-dasharray:0.5,0.825;stroke-dashoffset:0;stroke-width:0.5;"/>
     </g>
     <g id="line2d_4">
      <g>
       <use style="stroke:#000000;stroke-width:0.8;" x="154.645966" xlink:href="#mdd4ed22ea1" y="339.84"/>
      </g>
     </g>
     <g id="text_2">
      <!-- 0.001 -->
      <g transform="translate(138.895966 356.56125)scale(0.14 -0.14)">
       <defs>
        <path d="M 750 3822 
L 1781 4325 
L 1884 4325 
L 1884 747 
Q 1884 391 1914 303 
Q 1944 216 2037 169 
Q 2131 122 2419 116 
L 2419 0 
L 825 0 
L 825 116 
Q 1125 122 1212 167 
Q 1300 213 1334 289 
Q 1369 366 1369 747 
L 1369 3034 
Q 1369 3497 1338 3628 
Q 1316 3728 1258 3775 
Q 1200 3822 1119 3822 
Q 1003 3822 797 3725 
L 750 3822 
z
" id="TimesNewRomanPSMT-31" transform="scale(0.015625)"/>
       </defs>
       <use xlink:href="#TimesNewRomanPSMT-30"/>
       <use x="50" xlink:href="#TimesNewRomanPSMT-2e"/>
       <use x="75" xlink:href="#TimesNewRomanPSMT-30"/>
       <use x="125" xlink:href="#TimesNewRomanPSMT-30"/>
       <use x="175" xlink:href="#TimesNewRomanPSMT-31"/>
      </g>
     </g>
    </g>
    <g id="xtick_3">
     <g id="line2d_5">
      <path clip-path="url(#pc5880d6069)" d="M 215.518693 339.84 
L 215.518693 7.2 
" style="fill:none;stroke:#000000;stroke-dasharray:0.5,0.825;stroke-dashoffset:0;stroke-width:0.5;"/>
     </g>
     <g id="line2d_6">
      <g>
       <use style="stroke:#000000;stroke-width:0.8;" x="215.518693" xlink:href="#mdd4ed22ea1" y="339.84"/>
      </g>
     </g>
     <g id="text_3">
      <!-- 0.002 -->
      <g transform="translate(199.768693 356.56125)scale(0.14 -0.14)">
       <defs>
        <path d="M 2934 816 
L 2638 0 
L 138 0 
L 138 116 
Q 1241 1122 1691 1759 
Q 2141 2397 2141 2925 
Q 2141 3328 1894 3587 
Q 1647 3847 1303 3847 
Q 991 3847 742 3664 
Q 494 3481 375 3128 
L 259 3128 
Q 338 3706 661 4015 
Q 984 4325 1469 4325 
Q 1984 4325 2329 3994 
Q 2675 3663 2675 3213 
Q 2675 2891 2525 2569 
Q 2294 2063 1775 1497 
Q 997 647 803 472 
L 1909 472 
Q 2247 472 2383 497 
Q 2519 522 2628 598 
Q 2738 675 2819 816 
L 2934 816 
z
" id="TimesNewRomanPSMT-32" transform="scale(0.015625)"/>
       </defs>
       <use xlink:href="#TimesNewRomanPSMT-30"/>
       <use x="50" xlink:href="#TimesNewRomanPSMT-2e"/>
       <use x="75" xlink:href="#TimesNewRomanPSMT-30"/>
       <use x="125" xlink:href="#TimesNewRomanPSMT-30"/>
       <use x="175" xlink:href="#TimesNewRomanPSMT-32"/>
      </g>
     </g>
    </g>
    <g id="xtick_4">
     <g id="line2d_7">
      <path clip-path="url(#pc5880d6069)" d="M 276.39142 339.84 
L 276.39142 7.2 
" style="fill:none;stroke:#000000;stroke-dasharray:0.5,0.825;stroke-dashoffset:0;stroke-width:0.5;"/>
     </g>
     <g id="line2d_8">
      <g>
       <use style="stroke:#000000;stroke-width:0.8;" x="276.39142" xlink:href="#mdd4ed22ea1" y="339.84"/>
      </g>
     </g>
     <g id="text_4">
      <!-- 0.003 -->
      <g transform="translate(260.64142 356.56125)scale(0.14 -0.14)">
       <defs>
        <path d="M 325 3431 
Q 506 3859 782 4092 
Q 1059 4325 1472 4325 
Q 1981 4325 2253 3994 
Q 2459 3747 2459 3466 
Q 2459 3003 1878 2509 
Q 2269 2356 2469 2072 
Q 2669 1788 2669 1403 
Q 2669 853 2319 450 
Q 1863 -75 997 -75 
Q 569 -75 414 31 
Q 259 138 259 259 
Q 259 350 332 419 
Q 406 488 509 488 
Q 588 488 669 463 
Q 722 447 909 348 
Q 1097 250 1169 231 
Q 1284 197 1416 197 
Q 1734 197 1970 444 
Q 2206 691 2206 1028 
Q 2206 1275 2097 1509 
Q 2016 1684 1919 1775 
Q 1784 1900 1550 2001 
Q 1316 2103 1072 2103 
L 972 2103 
L 972 2197 
Q 1219 2228 1467 2375 
Q 1716 2522 1828 2728 
Q 1941 2934 1941 3181 
Q 1941 3503 1739 3701 
Q 1538 3900 1238 3900 
Q 753 3900 428 3381 
L 325 3431 
z
" id="TimesNewRomanPSMT-33" transform="scale(0.015625)"/>
       </defs>
       <use xlink:href="#TimesNewRomanPSMT-30"/>
       <use x="50" xlink:href="#TimesNewRomanPSMT-2e"/>
       <use x="75" xlink:href="#TimesNewRomanPSMT-30"/>
       <use x="125" xlink:href="#TimesNewRomanPSMT-30"/>
       <use x="175" xlink:href="#TimesNewRomanPSMT-33"/>
      </g>
     </g>
    </g>
    <g id="xtick_5">
     <g id="line2d_9">
      <path clip-path="url(#pc5880d6069)" d="M 337.264148 339.84 
L 337.264148 7.2 
" style="fill:none;stroke:#000000;stroke-dasharray:0.5,0.825;stroke-dashoffset:0;stroke-width:0.5;"/>
     </g>
     <g id="line2d_10">
      <g>
       <use style="stroke:#000000;stroke-width:0.8;" x="337.264148" xlink:href="#mdd4ed22ea1" y="339.84"/>
      </g>
     </g>
     <g id="text_5">
      <!-- 0.004 -->
      <g transform="translate(321.514148 356.56125)scale(0.14 -0.14)">
       <defs>
        <path d="M 2978 1563 
L 2978 1119 
L 2409 1119 
L 2409 0 
L 1894 0 
L 1894 1119 
L 100 1119 
L 100 1519 
L 2066 4325 
L 2409 4325 
L 2409 1563 
L 2978 1563 
z
M 1894 1563 
L 1894 3666 
L 406 1563 
L 1894 1563 
z
" id="TimesNewRomanPSMT-34" transform="scale(0.015625)"/>
       </defs>
       <use xlink:href="#TimesNewRomanPSMT-30"/>
       <use x="50" xlink:href="#TimesNewRomanPSMT-2e"/>
       <use x="75" xlink:href="#TimesNewRomanPSMT-30"/>
       <use x="125" xlink:href="#TimesNewRomanPSMT-30"/>
       <use x="175" xlink:href="#TimesNewRomanPSMT-34"/>
      </g>
     </g>
    </g>
    <g id="xtick_6">
     <g id="line2d_11">
      <path clip-path="url(#pc5880d6069)" d="M 398.136875 339.84 
L 398.136875 7.2 
" style="fill:none;stroke:#000000;stroke-dasharray:0.5,0.825;stroke-dashoffset:0;stroke-width:0.5;"/>
     </g>
     <g id="line2d_12">
      <g>
       <use style="stroke:#000000;stroke-width:0.8;" x="398.136875" xlink:href="#mdd4ed22ea1" y="339.84"/>
      </g>
     </g>
     <g id="text_6">
      <!-- 0.005 -->
      <g transform="translate(382.386875 356.56125)scale(0.14 -0.14)">
       <defs>
        <path d="M 2778 4238 
L 2534 3706 
L 1259 3706 
L 981 3138 
Q 1809 3016 2294 2522 
Q 2709 2097 2709 1522 
Q 2709 1188 2573 903 
Q 2438 619 2231 419 
Q 2025 219 1772 97 
Q 1413 -75 1034 -75 
Q 653 -75 479 54 
Q 306 184 306 341 
Q 306 428 378 495 
Q 450 563 559 563 
Q 641 563 702 538 
Q 763 513 909 409 
Q 1144 247 1384 247 
Q 1750 247 2026 523 
Q 2303 800 2303 1197 
Q 2303 1581 2056 1914 
Q 1809 2247 1375 2428 
Q 1034 2569 447 2591 
L 1259 4238 
L 2778 4238 
z
" id="TimesNewRomanPSMT-35" transform="scale(0.015625)"/>
       </defs>
       <use xlink:href="#TimesNewRomanPSMT-30"/>
       <use x="50" xlink:href="#TimesNewRomanPSMT-2e"/>
       <use x="75" xlink:href="#TimesNewRomanPSMT-30"/>
       <use x="125" xlink:href="#TimesNewRomanPSMT-30"/>
       <use x="175" xlink:href="#TimesNewRomanPSMT-35"/>
      </g>
     </g>
    </g>
    <g id="text_7">
     <!-- Time (sec) -->
     <g transform="translate(200.858906 373.277188)scale(0.14 -0.14)">
      <defs>
       <path d="M 3703 4238 
L 3750 3244 
L 3631 3244 
Q 3597 3506 3538 3619 
Q 3441 3800 3280 3886 
Q 3119 3972 2856 3972 
L 2259 3972 
L 2259 734 
Q 2259 344 2344 247 
Q 2463 116 2709 116 
L 2856 116 
L 2856 0 
L 1059 0 
L 1059 116 
L 1209 116 
Q 1478 116 1591 278 
Q 1659 378 1659 734 
L 1659 3972 
L 1150 3972 
Q 853 3972 728 3928 
Q 566 3869 450 3700 
Q 334 3531 313 3244 
L 194 3244 
L 244 4238 
L 3703 4238 
z
" id="TimesNewRomanPSMT-54" transform="scale(0.015625)"/>
       <path d="M 928 4444 
Q 1059 4444 1151 4351 
Q 1244 4259 1244 4128 
Q 1244 3997 1151 3903 
Q 1059 3809 928 3809 
Q 797 3809 703 3903 
Q 609 3997 609 4128 
Q 609 4259 701 4351 
Q 794 4444 928 4444 
z
M 1188 2947 
L 1188 647 
Q 1188 378 1227 289 
Q 1266 200 1342 156 
Q 1419 113 1622 113 
L 1622 0 
L 231 0 
L 231 113 
Q 441 113 512 153 
Q 584 194 626 287 
Q 669 381 669 647 
L 669 1750 
Q 669 2216 641 2353 
Q 619 2453 572 2492 
Q 525 2531 444 2531 
Q 356 2531 231 2484 
L 188 2597 
L 1050 2947 
L 1188 2947 
z
" id="TimesNewRomanPSMT-69" transform="scale(0.015625)"/>
       <path d="M 1050 2338 
Q 1363 2650 1419 2697 
Q 1559 2816 1721 2881 
Q 1884 2947 2044 2947 
Q 2313 2947 2506 2790 
Q 2700 2634 2766 2338 
Q 3088 2713 3309 2830 
Q 3531 2947 3766 2947 
Q 3994 2947 4170 2830 
Q 4347 2713 4450 2447 
Q 4519 2266 4519 1878 
L 4519 647 
Q 4519 378 4559 278 
Q 4591 209 4675 161 
Q 4759 113 4950 113 
L 4950 0 
L 3538 0 
L 3538 113 
L 3597 113 
Q 3781 113 3884 184 
Q 3956 234 3988 344 
Q 4000 397 4000 647 
L 4000 1878 
Q 4000 2228 3916 2372 
Q 3794 2572 3525 2572 
Q 3359 2572 3192 2489 
Q 3025 2406 2788 2181 
L 2781 2147 
L 2788 2013 
L 2788 647 
Q 2788 353 2820 281 
Q 2853 209 2943 161 
Q 3034 113 3253 113 
L 3253 0 
L 1806 0 
L 1806 113 
Q 2044 113 2133 169 
Q 2222 225 2256 338 
Q 2272 391 2272 647 
L 2272 1878 
Q 2272 2228 2169 2381 
Q 2031 2581 1784 2581 
Q 1616 2581 1450 2491 
Q 1191 2353 1050 2181 
L 1050 647 
Q 1050 366 1089 281 
Q 1128 197 1204 155 
Q 1281 113 1516 113 
L 1516 0 
L 100 0 
L 100 113 
Q 297 113 375 155 
Q 453 197 493 289 
Q 534 381 534 647 
L 534 1741 
Q 534 2213 506 2350 
Q 484 2453 437 2492 
Q 391 2531 309 2531 
Q 222 2531 100 2484 
L 53 2597 
L 916 2947 
L 1050 2947 
L 1050 2338 
z
" id="TimesNewRomanPSMT-6d" transform="scale(0.015625)"/>
       <path d="M 681 1784 
Q 678 1147 991 784 
Q 1303 422 1725 422 
Q 2006 422 2214 576 
Q 2422 731 2563 1106 
L 2659 1044 
Q 2594 616 2278 264 
Q 1963 -88 1488 -88 
Q 972 -88 605 314 
Q 238 716 238 1394 
Q 238 2128 614 2539 
Q 991 2950 1559 2950 
Q 2041 2950 2350 2633 
Q 2659 2316 2659 1784 
L 681 1784 
z
M 681 1966 
L 2006 1966 
Q 1991 2241 1941 2353 
Q 1863 2528 1708 2628 
Q 1553 2728 1384 2728 
Q 1125 2728 920 2526 
Q 716 2325 681 1966 
z
" id="TimesNewRomanPSMT-65" transform="scale(0.015625)"/>
       <path id="TimesNewRomanPSMT-20" transform="scale(0.015625)"/>
       <path d="M 1988 -1253 
L 1988 -1369 
Q 1516 -1131 1200 -813 
Q 750 -359 506 256 
Q 263 872 263 1534 
Q 263 2503 741 3301 
Q 1219 4100 1988 4444 
L 1988 4313 
Q 1603 4100 1356 3731 
Q 1109 3363 987 2797 
Q 866 2231 866 1616 
Q 866 947 969 400 
Q 1050 -31 1165 -292 
Q 1281 -553 1476 -793 
Q 1672 -1034 1988 -1253 
z
" id="TimesNewRomanPSMT-28" transform="scale(0.015625)"/>
       <path d="M 2050 2947 
L 2050 1972 
L 1947 1972 
Q 1828 2431 1642 2597 
Q 1456 2763 1169 2763 
Q 950 2763 815 2647 
Q 681 2531 681 2391 
Q 681 2216 781 2091 
Q 878 1963 1175 1819 
L 1631 1597 
Q 2266 1288 2266 781 
Q 2266 391 1970 151 
Q 1675 -88 1309 -88 
Q 1047 -88 709 6 
Q 606 38 541 38 
Q 469 38 428 -44 
L 325 -44 
L 325 978 
L 428 978 
Q 516 541 762 319 
Q 1009 97 1316 97 
Q 1531 97 1667 223 
Q 1803 350 1803 528 
Q 1803 744 1651 891 
Q 1500 1038 1047 1263 
Q 594 1488 453 1669 
Q 313 1847 313 2119 
Q 313 2472 555 2709 
Q 797 2947 1181 2947 
Q 1350 2947 1591 2875 
Q 1750 2828 1803 2828 
Q 1853 2828 1881 2850 
Q 1909 2872 1947 2947 
L 2050 2947 
z
" id="TimesNewRomanPSMT-73" transform="scale(0.015625)"/>
       <path d="M 2631 1088 
Q 2516 522 2178 217 
Q 1841 -88 1431 -88 
Q 944 -88 581 321 
Q 219 731 219 1428 
Q 219 2103 620 2525 
Q 1022 2947 1584 2947 
Q 2006 2947 2278 2723 
Q 2550 2500 2550 2259 
Q 2550 2141 2473 2067 
Q 2397 1994 2259 1994 
Q 2075 1994 1981 2113 
Q 1928 2178 1911 2362 
Q 1894 2547 1784 2644 
Q 1675 2738 1481 2738 
Q 1169 2738 978 2506 
Q 725 2200 725 1697 
Q 725 1184 976 792 
Q 1228 400 1656 400 
Q 1963 400 2206 609 
Q 2378 753 2541 1131 
L 2631 1088 
z
" id="TimesNewRomanPSMT-63" transform="scale(0.015625)"/>
       <path d="M 144 4313 
L 144 4444 
Q 619 4209 934 3891 
Q 1381 3434 1625 2820 
Q 1869 2206 1869 1541 
Q 1869 572 1392 -226 
Q 916 -1025 144 -1369 
L 144 -1253 
Q 528 -1038 776 -670 
Q 1025 -303 1145 264 
Q 1266 831 1266 1447 
Q 1266 2113 1163 2663 
Q 1084 3094 967 3353 
Q 850 3613 656 3853 
Q 463 4094 144 4313 
z
" id="TimesNewRomanPSMT-29" transform="scale(0.015625)"/>
      </defs>
      <use xlink:href="#TimesNewRomanPSMT-54"/>
      <use x="57.583984" xlink:href="#TimesNewRomanPSMT-69"/>
      <use x="85.367188" xlink:href="#TimesNewRomanPSMT-6d"/>
      <use x="163.150391" xlink:href="#TimesNewRomanPSMT-65"/>
      <use x="207.535156" xlink:href="#TimesNewRomanPSMT-20"/>
      <use x="232.535156" xlink:href="#TimesNewRomanPSMT-28"/>
      <use x="265.835938" xlink:href="#TimesNewRomanPSMT-73"/>
      <use x="304.751953" xlink:href="#TimesNewRomanPSMT-65"/>
      <use x="349.136719" xlink:href="#TimesNewRomanPSMT-63"/>
      <use x="393.521484" xlink:href="#TimesNewRomanPSMT-29"/>
     </g>
    </g>
   </g>
   <g id="matplotlib.axis_2">
    <g id="ytick_1">
     <g id="line2d_13">
      <path clip-path="url(#pc5880d6069)" d="M 63.336875 310.801354 
L 398.136875 310.801354 
" style="fill:none;stroke:#000000;stroke-dasharray:0.5,0.825;stroke-dashoffset:0;stroke-width:0.5;"/>
     </g>
     <g id="line2d_14">
      <defs>
       <path d="M 0 0 
L -3.5 0 
" id="md238c9bfbf" style="stroke:#000000;stroke-width:0.8;"/>
      </defs>
      <g>
       <use style="stroke:#000000;stroke-width:0.8;" x="63.336875" xlink:href="#md238c9bfbf" y="310.801354"/>
      </g>
     </g>
     <g id="text_8">
      <!-- −0.06 -->
      <g transform="translate(23.942188 315.661979)scale(0.14 -0.14)">
       <defs>
        <path d="M 3484 2000 
L 116 2000 
L 116 2256 
L 3484 2256 
L 3484 2000 
z
" id="TimesNewRomanPSMT-2212" transform="scale(0.015625)"/>
        <path d="M 2869 4325 
L 2869 4209 
Q 2456 4169 2195 4045 
Q 1934 3922 1679 3669 
Q 1425 3416 1258 3105 
Q 1091 2794 978 2366 
Q 1428 2675 1881 2675 
Q 2316 2675 2634 2325 
Q 2953 1975 2953 1425 
Q 2953 894 2631 456 
Q 2244 -75 1606 -75 
Q 1172 -75 869 213 
Q 275 772 275 1663 
Q 275 2231 503 2743 
Q 731 3256 1154 3653 
Q 1578 4050 1965 4187 
Q 2353 4325 2688 4325 
L 2869 4325 
z
M 925 2138 
Q 869 1716 869 1456 
Q 869 1156 980 804 
Q 1091 453 1309 247 
Q 1469 100 1697 100 
Q 1969 100 2183 356 
Q 2397 613 2397 1088 
Q 2397 1622 2184 2012 
Q 1972 2403 1581 2403 
Q 1463 2403 1327 2353 
Q 1191 2303 925 2138 
z
" id="TimesNewRomanPSMT-36" transform="scale(0.015625)"/>
       </defs>
       <use xlink:href="#TimesNewRomanPSMT-2212"/>
       <use x="56.396484" xlink:href="#TimesNewRomanPSMT-30"/>
       <use x="106.396484" xlink:href="#TimesNewRomanPSMT-2e"/>
       <use x="131.396484" xlink:href="#TimesNewRomanPSMT-30"/>
       <use x="181.396484" xlink:href="#TimesNewRomanPSMT-36"/>
      </g>
     </g>
    </g>
    <g id="ytick_2">
     <g id="line2d_15">
      <path clip-path="url(#pc5880d6069)" d="M 63.336875 260.166026 
L 398.136875 260.166026 
" style="fill:none;stroke:#000000;stroke-dasharray:0.5,0.825;stroke-dashoffset:0;stroke-width:0.5;"/>
     </g>
     <g id="line2d_16">
      <g>
       <use style="stroke:#000000;stroke-width:0.8;" x="63.336875" xlink:href="#md238c9bfbf" y="260.166026"/>
      </g>
     </g>
     <g id="text_9">
      <!-- −0.04 -->
      <g transform="translate(23.942188 265.026651)scale(0.14 -0.14)">
       <use xlink:href="#TimesNewRomanPSMT-2212"/>
       <use x="56.396484" xlink:href="#TimesNewRomanPSMT-30"/>
       <use x="106.396484" xlink:href="#TimesNewRomanPSMT-2e"/>
       <use x="131.396484" xlink:href="#TimesNewRomanPSMT-30"/>
       <use x="181.396484" xlink:href="#TimesNewRomanPSMT-34"/>
      </g>
     </g>
    </g>
    <g id="ytick_3">
     <g id="line2d_17">
      <path clip-path="url(#pc5880d6069)" d="M 63.336875 209.530699 
L 398.136875 209.530699 
" style="fill:none;stroke:#000000;stroke-dasharray:0.5,0.825;stroke-dashoffset:0;stroke-width:0.5;"/>
     </g>
     <g id="line2d_18">
      <g>
       <use style="stroke:#000000;stroke-width:0.8;" x="63.336875" xlink:href="#md238c9bfbf" y="209.530699"/>
      </g>
     </g>
     <g id="text_10">
      <!-- −0.02 -->
      <g transform="translate(23.942188 214.391324)scale(0.14 -0.14)">
       <use xlink:href="#TimesNewRomanPSMT-2212"/>
       <use x="56.396484" xlink:href="#TimesNewRomanPSMT-30"/>
       <use x="106.396484" xlink:href="#TimesNewRomanPSMT-2e"/>
       <use x="131.396484" xlink:href="#TimesNewRomanPSMT-30"/>
       <use x="181.396484" xlink:href="#TimesNewRomanPSMT-32"/>
      </g>
     </g>
    </g>
    <g id="ytick_4">
     <g id="line2d_19">
      <path clip-path="url(#pc5880d6069)" d="M 63.336875 158.895372 
L 398.136875 158.895372 
" style="fill:none;stroke:#000000;stroke-dasharray:0.5,0.825;stroke-dashoffset:0;stroke-width:0.5;"/>
     </g>
     <g id="line2d_20">
      <g>
       <use style="stroke:#000000;stroke-width:0.8;" x="63.336875" xlink:href="#md238c9bfbf" y="158.895372"/>
      </g>
     </g>
     <g id="text_11">
      <!-- 0.00 -->
      <g transform="translate(31.836875 163.755997)scale(0.14 -0.14)">
       <use xlink:href="#TimesNewRomanPSMT-30"/>
       <use x="50" xlink:href="#TimesNewRomanPSMT-2e"/>
       <use x="75" xlink:href="#TimesNewRomanPSMT-30"/>
       <use x="125" xlink:href="#TimesNewRomanPSMT-30"/>
      </g>
     </g>
    </g>
    <g id="ytick_5">
     <g id="line2d_21">
      <path clip-path="url(#pc5880d6069)" d="M 63.336875 108.260045 
L 398.136875 108.260045 
" style="fill:none;stroke:#000000;stroke-dasharray:0.5,0.825;stroke-dashoffset:0;stroke-width:0.5;"/>
     </g>
     <g id="line2d_22">
      <g>
       <use style="stroke:#000000;stroke-width:0.8;" x="63.336875" xlink:href="#md238c9bfbf" y="108.260045"/>
      </g>
     </g>
     <g id="text_12">
      <!-- 0.02 -->
      <g transform="translate(31.836875 113.12067)scale(0.14 -0.14)">
       <use xlink:href="#TimesNewRomanPSMT-30"/>
       <use x="50" xlink:href="#TimesNewRomanPSMT-2e"/>
       <use x="75" xlink:href="#TimesNewRomanPSMT-30"/>
       <use x="125" xlink:href="#TimesNewRomanPSMT-32"/>
      </g>
     </g>
    </g>
    <g id="ytick_6">
     <g id="line2d_23">
      <path clip-path="url(#pc5880d6069)" d="M 63.336875 57.624717 
L 398.136875 57.624717 
" style="fill:none;stroke:#000000;stroke-dasharray:0.5,0.825;stroke-dashoffset:0;stroke-width:0.5;"/>
     </g>
     <g id="line2d_24">
      <g>
       <use style="stroke:#000000;stroke-width:0.8;" x="63.336875" xlink:href="#md238c9bfbf" y="57.624717"/>
      </g>
     </g>
     <g id="text_13">
      <!-- 0.04 -->
      <g transform="translate(31.836875 62.485342)scale(0.14 -0.14)">
       <use xlink:href="#TimesNewRomanPSMT-30"/>
       <use x="50" xlink:href="#TimesNewRomanPSMT-2e"/>
       <use x="75" xlink:href="#TimesNewRomanPSMT-30"/>
       <use x="125" xlink:href="#TimesNewRomanPSMT-34"/>
      </g>
     </g>
    </g>
    <g id="text_14">
     <!-- Volatage (V) -->
     <g transform="translate(16.92125 209.352344)rotate(-90)scale(0.14 -0.14)">
      <defs>
       <path d="M 4544 4238 
L 4544 4122 
Q 4319 4081 4203 3978 
Q 4038 3825 3909 3509 
L 2431 -97 
L 2316 -97 
L 728 3556 
Q 606 3838 556 3900 
Q 478 3997 364 4051 
Q 250 4106 56 4122 
L 56 4238 
L 1788 4238 
L 1788 4122 
Q 1494 4094 1406 4022 
Q 1319 3950 1319 3838 
Q 1319 3681 1463 3350 
L 2541 866 
L 3541 3319 
Q 3688 3681 3688 3822 
Q 3688 3913 3597 3995 
Q 3506 4078 3291 4113 
Q 3275 4116 3238 4122 
L 3238 4238 
L 4544 4238 
z
" id="TimesNewRomanPSMT-56" transform="scale(0.015625)"/>
       <path d="M 1600 2947 
Q 2250 2947 2644 2453 
Q 2978 2031 2978 1484 
Q 2978 1100 2793 706 
Q 2609 313 2286 112 
Q 1963 -88 1566 -88 
Q 919 -88 538 428 
Q 216 863 216 1403 
Q 216 1797 411 2186 
Q 606 2575 925 2761 
Q 1244 2947 1600 2947 
z
M 1503 2744 
Q 1338 2744 1170 2645 
Q 1003 2547 900 2300 
Q 797 2053 797 1666 
Q 797 1041 1045 587 
Q 1294 134 1700 134 
Q 2003 134 2200 384 
Q 2397 634 2397 1244 
Q 2397 2006 2069 2444 
Q 1847 2744 1503 2744 
z
" id="TimesNewRomanPSMT-6f" transform="scale(0.015625)"/>
       <path d="M 1184 4444 
L 1184 647 
Q 1184 378 1223 290 
Q 1263 203 1344 158 
Q 1425 113 1647 113 
L 1647 0 
L 244 0 
L 244 113 
Q 441 113 512 153 
Q 584 194 625 287 
Q 666 381 666 647 
L 666 3247 
Q 666 3731 644 3842 
Q 622 3953 573 3993 
Q 525 4034 450 4034 
Q 369 4034 244 3984 
L 191 4094 
L 1044 4444 
L 1184 4444 
z
" id="TimesNewRomanPSMT-6c" transform="scale(0.015625)"/>
       <path d="M 1822 413 
Q 1381 72 1269 19 
Q 1100 -59 909 -59 
Q 613 -59 420 144 
Q 228 347 228 678 
Q 228 888 322 1041 
Q 450 1253 767 1440 
Q 1084 1628 1822 1897 
L 1822 2009 
Q 1822 2438 1686 2597 
Q 1550 2756 1291 2756 
Q 1094 2756 978 2650 
Q 859 2544 859 2406 
L 866 2225 
Q 866 2081 792 2003 
Q 719 1925 600 1925 
Q 484 1925 411 2006 
Q 338 2088 338 2228 
Q 338 2497 613 2722 
Q 888 2947 1384 2947 
Q 1766 2947 2009 2819 
Q 2194 2722 2281 2516 
Q 2338 2381 2338 1966 
L 2338 994 
Q 2338 584 2353 492 
Q 2369 400 2405 369 
Q 2441 338 2488 338 
Q 2538 338 2575 359 
Q 2641 400 2828 588 
L 2828 413 
Q 2478 -56 2159 -56 
Q 2006 -56 1915 50 
Q 1825 156 1822 413 
z
M 1822 616 
L 1822 1706 
Q 1350 1519 1213 1441 
Q 966 1303 859 1153 
Q 753 1003 753 825 
Q 753 600 887 451 
Q 1022 303 1197 303 
Q 1434 303 1822 616 
z
" id="TimesNewRomanPSMT-61" transform="scale(0.015625)"/>
       <path d="M 1031 3803 
L 1031 2863 
L 1700 2863 
L 1700 2644 
L 1031 2644 
L 1031 788 
Q 1031 509 1111 412 
Q 1191 316 1316 316 
Q 1419 316 1516 380 
Q 1613 444 1666 569 
L 1788 569 
Q 1678 263 1478 108 
Q 1278 -47 1066 -47 
Q 922 -47 784 33 
Q 647 113 581 261 
Q 516 409 516 719 
L 516 2644 
L 63 2644 
L 63 2747 
Q 234 2816 414 2980 
Q 594 3144 734 3369 
Q 806 3488 934 3803 
L 1031 3803 
z
" id="TimesNewRomanPSMT-74" transform="scale(0.015625)"/>
       <path d="M 966 1044 
Q 703 1172 562 1401 
Q 422 1631 422 1909 
Q 422 2334 742 2640 
Q 1063 2947 1563 2947 
Q 1972 2947 2272 2747 
L 2878 2747 
Q 3013 2747 3034 2739 
Q 3056 2731 3066 2713 
Q 3084 2684 3084 2613 
Q 3084 2531 3069 2500 
Q 3059 2484 3036 2475 
Q 3013 2466 2878 2466 
L 2506 2466 
Q 2681 2241 2681 1891 
Q 2681 1491 2375 1206 
Q 2069 922 1553 922 
Q 1341 922 1119 984 
Q 981 866 932 777 
Q 884 688 884 625 
Q 884 572 936 522 
Q 988 472 1138 450 
Q 1225 438 1575 428 
Q 2219 413 2409 384 
Q 2700 344 2873 169 
Q 3047 -6 3047 -263 
Q 3047 -616 2716 -925 
Q 2228 -1381 1444 -1381 
Q 841 -1381 425 -1109 
Q 191 -953 191 -784 
Q 191 -709 225 -634 
Q 278 -519 444 -313 
Q 466 -284 763 25 
Q 600 122 533 198 
Q 466 275 466 372 
Q 466 481 555 628 
Q 644 775 966 1044 
z
M 1509 2797 
Q 1278 2797 1122 2612 
Q 966 2428 966 2047 
Q 966 1553 1178 1281 
Q 1341 1075 1591 1075 
Q 1828 1075 1981 1253 
Q 2134 1431 2134 1813 
Q 2134 2309 1919 2591 
Q 1759 2797 1509 2797 
z
M 934 0 
Q 788 -159 713 -296 
Q 638 -434 638 -550 
Q 638 -700 819 -813 
Q 1131 -1006 1722 -1006 
Q 2284 -1006 2551 -807 
Q 2819 -609 2819 -384 
Q 2819 -222 2659 -153 
Q 2497 -84 2016 -72 
Q 1313 -53 934 0 
z
" id="TimesNewRomanPSMT-67" transform="scale(0.015625)"/>
      </defs>
      <use xlink:href="#TimesNewRomanPSMT-56"/>
      <use x="59.341797" xlink:href="#TimesNewRomanPSMT-6f"/>
      <use x="109.341797" xlink:href="#TimesNewRomanPSMT-6c"/>
      <use x="137.125" xlink:href="#TimesNewRomanPSMT-61"/>
      <use x="181.509766" xlink:href="#TimesNewRomanPSMT-74"/>
      <use x="209.292969" xlink:href="#TimesNewRomanPSMT-61"/>
      <use x="253.677734" xlink:href="#TimesNewRomanPSMT-67"/>
      <use x="303.677734" xlink:href="#TimesNewRomanPSMT-65"/>
      <use x="348.0625" xlink:href="#TimesNewRomanPSMT-20"/>
      <use x="373.0625" xlink:href="#TimesNewRomanPSMT-28"/>
      <use x="406.363281" xlink:href="#TimesNewRomanPSMT-56"/>
      <use x="478.580078" xlink:href="#TimesNewRomanPSMT-29"/>
     </g>
    </g>
   </g>
   <g id="LineCollection_1">
    <path clip-path="url(#pc5880d6069)" d="M 78.555057 158.895372 
L 382.918693 158.895372 
" style="fill:none;stroke:#1f77b4;stroke-width:1.5;"/>
   </g>
   <g id="line2d_25">
    <path clip-path="url(#pc5880d6069)" d="M 78.555057 158.889296 
L 78.737675 158.857649 
L 87.107675 158.95259 
L 87.22942 158.95259 
L 87.412039 158.920943 
L 87.625093 158.984237 
L 87.807711 158.95259 
L 98.521311 159.047531 
L 98.643057 159.047531 
L 98.795239 159.047531 
L 104.334657 159.142472 
L 104.486839 159.142472 
L 104.669457 159.110825 
L 111.852439 159.205766 
L 112.00462 159.205766 
L 113.191639 159.269061 
L 113.313384 159.332355 
L 113.404693 159.332355 
L 113.43513 159.395649 
L 113.526439 159.332355 
L 114.317784 159.427296 
L 114.43953 159.427296 
L 114.530839 159.395649 
L 114.561275 159.427296 
L 114.622148 159.49059 
L 114.68302 159.458943 
L 115.170002 159.553884 
L 115.322184 159.553884 
L 115.717857 159.617178 
L 115.839602 159.648826 
L 116.296148 159.743767 
L 116.417893 159.775414 
L 116.44833 159.743767 
L 117.087493 159.838708 
L 117.300548 159.902002 
L 117.422293 159.870355 
L 117.574475 159.933649 
L 117.69622 159.902002 
L 117.726657 159.933649 
L 118.518002 160.02859 
L 118.70062 160.060238 
L 119.674584 160.123532 
L 119.826766 160.186826 
L 119.978948 160.186826 
L 121.348584 160.281767 
L 121.500766 160.345061 
L 121.531202 160.313414 
L 121.835566 160.376708 
L 122.018184 160.503297 
L 122.109493 160.503297 
L 122.13993 160.534944 
L 122.38342 160.629885 
L 122.596475 160.724826 
L 122.687784 160.724826 
L 122.71822 160.756473 
L 122.80953 160.819768 
L 122.992148 160.946356 
L 123.022584 160.914709 
L 123.083457 161.00965 
L 123.266075 161.104591 
L 123.661748 161.357768 
L 123.81393 161.452709 
L 125.609675 163.478122 
L 127.527166 167.718831 
L 129.74902 174.997659 
L 131.696948 182.656252 
L 131.84913 183.2259 
L 132.488293 185.409548 
L 133.553566 188.416021 
L 133.675311 188.669197 
L 134.010111 189.365433 
L 135.410184 192.055435 
L 135.44062 192.023788 
L 135.471057 192.150376 
L 135.562366 192.245317 
L 135.805857 192.498494 
L 136.079784 192.688377 
L 136.11022 192.656729 
L 136.566766 192.561788 
L 137.571166 191.359199 
L 138.666875 188.890727 
L 139.001675 187.688138 
L 139.45822 185.915902 
L 140.158257 182.529664 
L 141.710511 172.212716 
L 142.440984 166.421301 
L 143.993239 152.623174 
L 146.671639 123.634449 
L 148.436948 102.937259 
L 149.471784 91.069604 
L 150.354439 81.3856 
L 151.693639 68.600175 
L 152.393675 62.713823 
L 153.337202 55.783113 
L 154.311166 50.37146 
L 155.19382 47.175102 
L 155.52862 46.447222 
L 156.472148 45.592751 
L 157.354802 46.668752 
L 157.841784 47.902985 
L 158.602693 51.542399 
L 159.63753 58.662995 
L 160.428875 65.751938 
L 161.128911 73.347242 
L 161.768075 81.132424 
L 162.65073 93.443133 
L 164.416039 122.685037 
L 165.937857 151.515526 
L 172.146875 272.059257 
L 174.03393 297.978215 
L 175.068766 308.54834 
L 175.95142 315.763871 
L 177.503675 323.264219 
L 178.264584 324.593412 
L 178.538511 324.72 
L 178.660257 324.625044 
L 179.05593 324.055396 
L 179.877711 322.124924 
L 181.521275 313.010573 
L 182.31262 306.459625 
L 183.043093 298.579505 
L 183.74313 290.193034 
L 185.599748 263.609479 
L 188.369457 215.727448 
L 191.473966 156.547412 
L 194.36542 107.304559 
L 197.074257 72.176295 
L 197.926475 63.694885 
L 199.843966 50.529693 
L 200.939675 45.402866 
L 202.126693 42.048273 
L 202.583239 41.415341 
L 202.948475 40.908978 
L 203.313711 40.687451 
L 203.49633 40.719103 
L 203.678948 40.687451 
L 204.439857 40.782397 
L 204.774657 41.288751 
L 206.08342 44.263568 
L 207.240002 48.187809 
L 208.000911 51.574051 
L 208.487893 54.010874 
L 209.035748 57.238874 
L 209.887966 62.239112 
L 210.648875 66.986179 
L 214.514293 91.797487 
L 216.979639 108.950207 
L 219.962402 126.894098 
L 220.388511 129.141041 
L 224.619166 150.566113 
L 225.623566 155.218234 
L 226.323602 158.95259 
L 226.475784 159.680473 
L 226.810584 161.357768 
L 227.693239 166.516242 
L 230.006402 181.611899 
L 231.041239 189.333786 
L 231.467348 192.688377 
L 233.050039 206.771329 
L 233.719639 213.195682 
L 235.424075 230.158521 
L 236.184984 237.595582 
L 238.832948 258.735832 
L 240.050402 265.698194 
L 240.750439 268.229955 
L 241.115675 269.274314 
L 241.541784 269.907246 
L 242.33313 270.571842 
L 243.307093 269.717371 
L 243.398402 269.622422 
L 243.885384 268.957836 
L 244.34193 267.786899 
L 245.620257 262.027128 
L 247.172511 250.00124 
L 250.003093 219.430159 
L 256.668657 137.622457 
L 257.946984 126.640922 
L 258.73833 121.039388 
L 259.194875 118.09621 
L 261.142802 108.507145 
L 261.32542 107.905848 
L 261.75153 106.60832 
L 262.968984 104.329731 
L 263.76033 103.633495 
L 263.851639 103.633495 
L 264.034257 103.44361 
L 264.064693 103.506906 
L 264.125566 103.475257 
L 264.277748 103.380321 
L 265.190839 103.475257 
L 265.373457 103.538554 
L 265.495202 103.570201 
L 265.67782 103.633495 
L 265.830002 103.79173 
L 267.169202 105.34244 
L 267.44313 105.88044 
L 267.625748 106.228553 
L 267.930111 106.861497 
L 268.11273 107.177968 
L 268.508402 108.095733 
L 268.660584 108.412206 
L 270.060657 111.576912 
L 271.978148 117.90633 
L 273.195602 122.495154 
L 276.208802 131.546219 
L 276.756657 132.93869 
L 277.39582 134.584338 
L 277.48713 134.774221 
L 277.82193 135.691986 
L 278.339348 137.021164 
L 278.613275 137.685752 
L 279.06982 138.761752 
L 279.252439 139.109871 
L 284.18313 149.110348 
L 284.639675 149.74329 
L 285.035348 150.344584 
L 285.126657 150.439525 
L 285.796257 150.977525 
L 286.039748 151.072467 
L 286.19193 151.167408 
L 286.222366 151.135761 
L 286.374548 151.135761 
L 286.496293 151.167408 
L 286.618039 151.104114 
L 286.709348 151.104114 
L 286.739784 151.072467 
L 286.983275 150.977525 
L 288.53553 149.20529 
L 288.809457 148.667288 
L 288.961639 148.382465 
L 289.326875 147.591288 
L 289.509493 147.243171 
L 290.270402 145.217757 
L 290.757384 143.951874 
L 292.340075 139.363048 
L 292.583566 138.603517 
L 292.979239 137.432576 
L 293.100984 137.147752 
L 293.55753 135.691986 
L 293.648839 135.438809 
L 293.861893 134.742573 
L 294.56193 132.907043 
L 296.296802 129.520806 
L 296.388111 129.457512 
L 296.57073 129.204335 
L 296.662039 129.109394 
L 297.179457 128.729629 
L 298.15342 128.82457 
L 298.427348 129.141041 
L 298.701275 129.5841 
L 299.766548 132.020925 
L 300.16222 133.508338 
L 300.740511 135.628693 
L 302.353639 144.553168 
L 303.905893 156.642353 
L 311.54542 227.088755 
L 312.488948 233.164991 
L 313.280293 237.405702 
L 314.010766 240.633697 
L 314.284693 241.456526 
L 314.528184 242.184406 
L 314.619493 242.405936 
L 314.98473 243.197113 
L 315.502148 243.576883 
L 315.836948 243.64018 
L 315.958693 243.735116 
L 315.98913 243.703464 
L 316.141311 243.76676 
L 316.263057 243.735116 
L 316.415239 243.64018 
L 316.90222 242.975583 
L 317.99793 240.507116 
L 318.484911 238.544992 
L 318.789275 237.247465 
L 319.215384 235.032169 
L 321.376366 220.854277 
L 324.450439 194.365672 
L 328.072366 161.516003 
L 330.659457 140.913755 
L 333.155239 123.539508 
L 334.007457 118.602563 
L 334.342257 116.735388 
L 335.011857 113.475734 
L 336.138002 108.190672 
L 336.472802 106.7982 
L 336.898911 105.120905 
L 338.968584 99.013019 
L 339.120766 98.696548 
L 339.455566 98.000315 
L 341.09913 94.835604 
L 341.403493 94.3609 
L 341.829602 93.727956 
L 342.225275 93.189959 
L 342.407893 92.968429 
L 343.868839 91.607605 
L 344.11233 91.512663 
L 344.294948 91.449367 
L 344.386257 91.449367 
L 344.416693 91.417725 
L 344.660184 91.322781 
L 344.78193 91.291134 
L 345.147166 91.19619 
L 345.268911 91.19619 
L 345.45153 91.227837 
L 345.69502 91.322781 
L 346.821166 92.651958 
L 347.947311 95.247019 
L 349.925675 101.734673 
L 350.503966 104.171495 
L 351.417057 108.443848 
L 352.604075 114.045381 
L 353.364984 117.684796 
L 360.121857 153.351056 
L 360.42622 154.996705 
L 363.10462 168.351773 
L 364.139457 173.130481 
L 364.596002 175.282483 
L 364.809057 176.263542 
L 365.965639 181.70684 
L 366.20913 182.78284 
L 367.335275 188.067903 
L 367.609202 189.270492 
L 368.613602 193.922613 
L 368.917966 195.188496 
L 369.831057 199.36591 
L 373.544293 214.334976 
L 373.726911 214.967921 
L 374.396511 217.278157 
L 376.192257 222.531573 
L 377.774948 225.569692 
L 379.235893 226.930517 
L 380.17942 226.835578 
L 380.362039 226.708987 
L 381.214257 225.664636 
L 382.492584 222.753102 
L 382.918693 221.455572 
L 382.918693 221.455572 
" style="fill:none;stroke:#0000ff;stroke-linecap:square;stroke-width:1.5;"/>
   </g>
   <g id="line2d_26">
    <path clip-path="url(#pc5880d6069)" d="M 78.555057 158.877143 
L 93.01233 158.972084 
L 93.164511 158.972084 
L 97.669093 158.877143 
L 97.821275 158.845496 
L 98.064766 158.86132 
L 100.804039 158.956261 
L 101.017093 159.019555 
L 102.478039 159.874026 
L 102.72153 160.127203 
L 103.452002 161.029145 
L 104.334657 162.611499 
L 104.699893 163.371028 
L 106.252148 167.706678 
L 107.621784 172.342975 
L 108.534875 175.681742 
L 109.41753 178.79898 
L 110.361057 181.8371 
L 112.09593 186.061984 
L 113.34382 187.818397 
L 114.135166 188.119045 
L 114.500402 188.00828 
L 114.804766 187.755103 
L 115.504802 186.868985 
L 115.77873 186.441749 
L 116.387457 184.92269 
L 117.574475 180.887687 
L 118.548439 176.409625 
L 118.913675 174.669036 
L 119.583275 171.013798 
L 121.196402 161.155733 
L 125.974911 127.182593 
L 127.131493 120.647471 
L 129.383784 109.523525 
L 129.931639 107.687992 
L 131.483893 103.953639 
L 131.818693 103.24158 
L 132.731784 101.168696 
L 133.85793 99.617987 
L 134.284039 99.333163 
L 134.953639 98.890106 
L 135.379748 98.415395 
L 135.623239 98.30463 
L 135.836293 98.288809 
L 136.079784 98.320456 
L 136.992875 97.956518 
L 137.20593 98.035633 
L 137.358111 98.11475 
L 137.632039 98.33628 
L 138.575566 99.475575 
L 140.188693 104.823931 
L 140.766984 107.244935 
L 141.46702 110.203937 
L 142.89753 118.210646 
L 144.328039 128.606712 
L 145.606366 138.338188 
L 146.48902 145.569547 
L 153.124148 206.632584 
L 154.128548 214.101299 
L 155.650366 222.946653 
L 156.259093 225.557542 
L 156.746075 227.345602 
L 157.476548 229.260248 
L 158.176584 230.462837 
L 158.389639 230.605249 
L 158.724439 230.684367 
L 158.907057 230.700193 
L 159.698402 230.62107 
L 161.250657 228.010188 
L 161.768075 226.36454 
L 162.955093 221.633304 
L 163.65513 217.851478 
L 164.32473 213.405061 
L 165.90742 201.094345 
L 168.281457 179.922452 
L 169.894584 166.472442 
L 170.990293 158.228378 
L 172.93822 146.724665 
L 174.70353 139.857249 
L 175.190511 138.702131 
L 175.525311 138.243248 
L 175.738366 138.037541 
L 176.194911 137.531188 
L 176.803639 137.626128 
L 177.777602 138.781248 
L 178.477639 140.901602 
L 181.460402 152.167963 
L 183.347457 162.564028 
L 185.112766 172.042328 
L 186.42153 177.659685 
L 187.456366 181.014276 
L 188.643384 183.799219 
L 189.221675 184.764454 
L 190.195639 185.618925 
L 190.43913 185.508161 
L 191.10873 184.653689 
L 191.839202 183.324512 
L 192.539239 181.805452 
L 192.995784 180.887687 
L 193.543639 179.162921 
L 194.943711 173.656329 
L 195.856802 169.890326 
L 196.343784 167.722502 
L 198.443893 156.218789 
L 199.174366 151.455903 
L 202.004948 128.51177 
L 205.109457 103.605519 
L 205.809493 99.301516 
L 207.361748 91.816984 
L 208.09222 88.747217 
L 208.822693 86.152154 
L 209.400984 84.712215 
L 209.948839 83.335564 
L 211.19673 82.180448 
L 211.683711 82.275385 
L 212.322875 83.066567 
L 212.748984 83.652035 
L 213.20553 84.538156 
L 213.753384 85.930627 
L 214.483857 87.845271 
L 214.849093 89.079509 
L 215.975239 93.541747 
L 217.253566 100.219281 
L 218.684075 108.241818 
L 224.436548 140.521837 
L 224.984402 143.607428 
L 225.684439 147.278488 
L 226.536657 151.519197 
L 230.067275 167.516796 
L 232.441311 177.865391 
L 233.87182 185.080925 
L 235.819748 195.619402 
L 236.611093 199.385402 
L 237.737239 204.132464 
L 238.467711 206.69588 
L 239.593857 209.322588 
L 241.785275 212.534766 
L 242.302693 212.914529 
L 242.485311 213.009473 
L 242.698366 213.167706 
L 242.91142 213.278475 
L 243.641893 213.753179 
L 243.946257 214.022177 
L 244.554984 214.449412 
L 244.828911 214.702589 
L 244.950657 214.813359 
L 245.315893 215.098182 
L 245.498511 215.240594 
L 246.68553 215.746945 
L 247.324693 215.841884 
L 247.537748 215.90518 
L 248.055166 216.015943 
L 248.389966 216.079239 
L 248.481275 216.063418 
L 248.511711 216.09506 
L 248.69433 216.09506 
L 248.93782 216.079239 
L 249.790039 216.190004 
L 249.972657 216.253298 
L 250.185711 216.253298 
L 251.403166 216.981179 
L 251.677093 217.218534 
L 251.829275 217.329299 
L 252.71193 218.088826 
L 252.864111 218.18377 
L 253.168475 218.452773 
L 253.503275 218.721771 
L 254.142439 219.512948 
L 254.62942 220.177536 
L 255.39033 221.158593 
L 258.433966 224.165071 
L 258.799202 224.275836 
L 259.012257 224.275836 
L 259.925348 223.690362 
L 260.899311 221.965596 
L 261.294984 220.921245 
L 262.390693 216.538122 
L 263.638584 208.768762 
L 264.460366 202.486816 
L 265.464766 193.245872 
L 266.225675 184.653689 
L 267.138766 172.960093 
L 268.904075 147.594959 
L 274.747857 58.176139 
L 275.965311 44.298894 
L 277.182766 33.333181 
L 278.034984 27.921528 
L 278.765457 24.709344 
L 279.191566 23.538407 
L 280.07422 22.335816 
L 280.40902 22.446581 
L 280.652511 22.683936 
L 281.291675 23.870699 
L 281.717784 25.278992 
L 282.17433 27.320239 
L 283.148293 32.953409 
L 283.909202 38.823944 
L 285.43102 53.255013 
L 286.374548 63.619434 
L 288.44422 89.696627 
L 292.79662 147.041135 
L 294.653239 167.944032 
L 297.514257 195.128873 
L 298.91433 206.521819 
L 301.92753 226.158832 
L 302.749311 230.257131 
L 303.753711 233.516778 
L 304.301566 234.418725 
L 304.758111 234.735195 
L 304.879857 234.766837 
L 305.123348 234.861781 
L 305.51902 234.956722 
L 305.792948 234.84596 
L 306.94953 234.149722 
L 307.497384 233.263601 
L 307.984366 232.298365 
L 308.62353 230.716014 
L 309.932293 227.029129 
L 311.88022 219.544595 
L 313.006366 213.769 
L 313.88902 208.104178 
L 315.56302 196.062462 
L 317.632693 180.792745 
L 320.00673 164.304617 
L 321.650293 154.731376 
L 322.654693 150.079255 
L 323.202548 148.038018 
L 324.26782 144.572663 
L 326.27662 139.635719 
L 327.28102 138.259071 
L 327.61582 137.974248 
L 327.95062 137.657776 
L 328.559348 137.183069 
L 328.772402 137.088128 
L 329.015893 136.993188 
L 329.472439 136.8666 
L 329.62462 136.882424 
L 329.837675 136.882424 
L 330.081166 136.898247 
L 330.29422 136.898247 
L 331.450802 137.009012 
L 331.785602 137.072305 
L 332.455202 137.183069 
L 332.759566 137.23054 
L 333.581348 137.1356 
L 333.824839 137.040659 
L 334.159639 136.929893 
L 335.894511 135.917188 
L 336.503239 135.141833 
L 338.66422 130.394772 
L 341.43393 123.495708 
L 343.868839 118.669531 
L 344.751493 117.909996 
L 344.964548 117.894175 
L 346.395057 118.748646 
L 347.36902 119.903765 
L 347.734257 120.425942 
L 348.008184 120.853177 
L 349.073457 123.305826 
L 350.777893 128.970653 
L 352.14753 135.141833 
L 353.425857 141.835191 
L 354.095457 145.490429 
L 355.525966 154.288317 
L 356.83473 162.405793 
L 357.991311 169.004209 
L 359.574002 177.453979 
L 360.913202 182.564983 
L 363.256802 189.511516 
L 363.804657 190.650811 
L 365.417784 192.976871 
L 365.630839 193.198401 
L 366.148257 193.593989 
L 366.970039 193.499048 
L 368.430984 191.821753 
L 369.648439 189.068457 
L 370.865893 184.242277 
L 374.24433 167.928208 
L 375.705275 160.20632 
L 376.466184 156.123847 
L 377.409711 150.633079 
L 379.022839 141.265543 
L 380.696839 132.30942 
L 382.918693 122.103237 
L 382.918693 122.103237 
" style="fill:none;stroke:#ff0000;stroke-linecap:square;stroke-width:1.5;"/>
   </g>
   <g id="line2d_27">
    <path clip-path="url(#pc5880d6069)" d="M 127.344548 167.244124 
" style="fill:none;stroke:#ffffff;stroke-linecap:square;stroke-width:1.5;"/>
    <defs>
     <path d="M 0 -5 
L -1.12257 -1.545085 
L -4.755283 -1.545085 
L -1.816356 0.59017 
L -2.938926 4.045085 
L -0 1.90983 
L 2.938926 4.045085 
L 1.816356 0.59017 
L 4.755283 -1.545085 
L 1.12257 -1.545085 
z
" id="maad72793e0" style="stroke:#ffffff;stroke-linejoin:bevel;"/>
    </defs>
    <g clip-path="url(#pc5880d6069)">
     <use style="fill:#0000ff;stroke:#ffffff;stroke-linejoin:bevel;" x="127.344548" xlink:href="#maad72793e0" y="167.244124"/>
    </g>
   </g>
   <g id="line2d_28">
    <path clip-path="url(#pc5880d6069)" d="M 105.612984 165.776206 
" style="fill:none;stroke:#ffffff;stroke-linecap:square;stroke-width:1.5;"/>
    <defs>
     <path d="M 0 -5 
L -1.12257 -1.545085 
L -4.755283 -1.545085 
L -1.816356 0.59017 
L -2.938926 4.045085 
L -0 1.90983 
L 2.938926 4.045085 
L 1.816356 0.59017 
L 4.755283 -1.545085 
L 1.12257 -1.545085 
z
" id="mdffc860fa8" style="stroke:#ffffff;stroke-linejoin:bevel;"/>
    </defs>
    <g clip-path="url(#pc5880d6069)">
     <use style="fill:#ff0000;stroke:#ffffff;stroke-linejoin:bevel;" x="105.612984" xlink:href="#mdffc860fa8" y="165.776206"/>
    </g>
   </g>
   <g id="patch_3">
    <path d="M 63.336875 339.84 
L 63.336875 7.2 
" style="fill:none;stroke:#000000;stroke-linecap:square;stroke-linejoin:miter;stroke-width:0.8;"/>
   </g>
   <g id="patch_4">
    <path d="M 398.136875 339.84 
L 398.136875 7.2 
" style="fill:none;stroke:#000000;stroke-linecap:square;stroke-linejoin:miter;stroke-width:0.8;"/>
   </g>
   <g id="patch_5">
    <path d="M 63.336875 339.84 
L 398.136875 339.84 
" style="fill:none;stroke:#000000;stroke-linecap:square;stroke-linejoin:miter;stroke-width:0.8;"/>
   </g>
   <g id="patch_6">
    <path d="M 63.336875 7.2 
L 398.136875 7.2 
" style="fill:none;stroke:#000000;stroke-linecap:square;stroke-linejoin:miter;stroke-width:0.8;"/>
   </g>
   <g id="text_15">
    <g id="patch_7">
     <path d="M 75.036875 331.242688 
L 166.79375 331.242688 
L 166.79375 293.760312 
L 75.036875 293.760312 
z
" style="fill:#ffffff;stroke:#000000;stroke-linejoin:miter;stroke-width:0.75;"/>
    </g>
    <!-- Auto_00066 -->
    <g transform="translate(80.076875 308.521563)scale(0.14 -0.14)">
     <defs>
      <path d="M 2928 1419 
L 1288 1419 
L 1000 750 
Q 894 503 894 381 
Q 894 284 986 211 
Q 1078 138 1384 116 
L 1384 0 
L 50 0 
L 50 116 
Q 316 163 394 238 
Q 553 388 747 847 
L 2238 4334 
L 2347 4334 
L 3822 809 
Q 4000 384 4145 257 
Q 4291 131 4550 116 
L 4550 0 
L 2878 0 
L 2878 116 
Q 3131 128 3220 200 
Q 3309 272 3309 375 
Q 3309 513 3184 809 
L 2928 1419 
z
M 2841 1650 
L 2122 3363 
L 1384 1650 
L 2841 1650 
z
" id="TimesNewRomanPSMT-41" transform="scale(0.015625)"/>
      <path d="M 2709 2863 
L 2709 1128 
Q 2709 631 2732 520 
Q 2756 409 2807 365 
Q 2859 322 2928 322 
Q 3025 322 3147 375 
L 3191 266 
L 2334 -88 
L 2194 -88 
L 2194 519 
Q 1825 119 1631 15 
Q 1438 -88 1222 -88 
Q 981 -88 804 51 
Q 628 191 559 409 
Q 491 628 491 1028 
L 491 2306 
Q 491 2509 447 2587 
Q 403 2666 317 2708 
Q 231 2750 6 2747 
L 6 2863 
L 1009 2863 
L 1009 947 
Q 1009 547 1148 422 
Q 1288 297 1484 297 
Q 1619 297 1789 381 
Q 1959 466 2194 703 
L 2194 2325 
Q 2194 2569 2105 2655 
Q 2016 2741 1734 2747 
L 1734 2863 
L 2709 2863 
z
" id="TimesNewRomanPSMT-75" transform="scale(0.015625)"/>
      <path d="M 3256 -1381 
L -53 -1381 
L -53 -1119 
L 3256 -1119 
L 3256 -1381 
z
" id="TimesNewRomanPSMT-5f" transform="scale(0.015625)"/>
     </defs>
     <use xlink:href="#TimesNewRomanPSMT-41"/>
     <use x="72.216797" xlink:href="#TimesNewRomanPSMT-75"/>
     <use x="122.216797" xlink:href="#TimesNewRomanPSMT-74"/>
     <use x="150" xlink:href="#TimesNewRomanPSMT-6f"/>
     <use x="200" xlink:href="#TimesNewRomanPSMT-5f"/>
     <use x="250" xlink:href="#TimesNewRomanPSMT-30"/>
     <use x="300" xlink:href="#TimesNewRomanPSMT-30"/>
     <use x="350" xlink:href="#TimesNewRomanPSMT-30"/>
     <use x="400" xlink:href="#TimesNewRomanPSMT-36"/>
     <use x="450" xlink:href="#TimesNewRomanPSMT-36"/>
    </g>
    <!-- Vs: 279.97m/s -->
    <g transform="translate(80.076875 323.208)scale(0.14 -0.14)">
     <defs>
      <path d="M 903 2950 
Q 1047 2950 1148 2848 
Q 1250 2747 1250 2603 
Q 1250 2459 1148 2357 
Q 1047 2256 903 2256 
Q 759 2256 657 2357 
Q 556 2459 556 2603 
Q 556 2747 657 2848 
Q 759 2950 903 2950 
z
M 897 609 
Q 1044 609 1145 506 
Q 1247 403 1247 259 
Q 1247 116 1144 14 
Q 1041 -88 897 -88 
Q 753 -88 651 14 
Q 550 116 550 259 
Q 550 403 651 506 
Q 753 609 897 609 
z
" id="TimesNewRomanPSMT-3a" transform="scale(0.015625)"/>
      <path d="M 644 4238 
L 2916 4238 
L 2916 4119 
L 1503 -88 
L 1153 -88 
L 2419 3728 
L 1253 3728 
Q 900 3728 750 3644 
Q 488 3500 328 3200 
L 238 3234 
L 644 4238 
z
" id="TimesNewRomanPSMT-37" transform="scale(0.015625)"/>
      <path d="M 338 -88 
L 338 28 
Q 744 34 1094 217 
Q 1444 400 1770 856 
Q 2097 1313 2225 1859 
Q 1734 1544 1338 1544 
Q 891 1544 572 1889 
Q 253 2234 253 2806 
Q 253 3363 572 3797 
Q 956 4325 1575 4325 
Q 2097 4325 2469 3894 
Q 2925 3359 2925 2575 
Q 2925 1869 2578 1258 
Q 2231 647 1613 244 
Q 1109 -88 516 -88 
L 338 -88 
z
M 2275 2091 
Q 2331 2497 2331 2741 
Q 2331 3044 2228 3395 
Q 2125 3747 1936 3934 
Q 1747 4122 1506 4122 
Q 1228 4122 1018 3872 
Q 809 3622 809 3128 
Q 809 2469 1088 2097 
Q 1291 1828 1588 1828 
Q 1731 1828 1928 1897 
Q 2125 1966 2275 2091 
z
" id="TimesNewRomanPSMT-39" transform="scale(0.015625)"/>
      <path d="M 1794 4444 
L 259 -88 
L 9 -88 
L 1544 4444 
L 1794 4444 
z
" id="TimesNewRomanPSMT-2f" transform="scale(0.015625)"/>
     </defs>
     <use xlink:href="#TimesNewRomanPSMT-56"/>
     <use x="72.216797" xlink:href="#TimesNewRomanPSMT-73"/>
     <use x="111.132812" xlink:href="#TimesNewRomanPSMT-3a"/>
     <use x="138.916016" xlink:href="#TimesNewRomanPSMT-20"/>
     <use x="163.916016" xlink:href="#TimesNewRomanPSMT-32"/>
     <use x="213.916016" xlink:href="#TimesNewRomanPSMT-37"/>
     <use x="263.916016" xlink:href="#TimesNewRomanPSMT-39"/>
     <use x="313.916016" xlink:href="#TimesNewRomanPSMT-2e"/>
     <use x="338.916016" xlink:href="#TimesNewRomanPSMT-39"/>
     <use x="388.916016" xlink:href="#TimesNewRomanPSMT-37"/>
     <use x="438.916016" xlink:href="#TimesNewRomanPSMT-6d"/>
     <use x="516.699219" xlink:href="#TimesNewRomanPSMT-2f"/>
     <use x="544.482422" xlink:href="#TimesNewRomanPSMT-73"/>
    </g>
   </g>
  </g>
 </g>
 <defs>
  <clipPath id="pc5880d6069">
   <rect height="332.64" width="334.8" x="63.336875" y="7.2"/>
  </clipPath>
 </defs>
</svg>
