<?xml version="1.0" encoding="utf-8" standalone="no"?>
<!DOCTYPE svg PUBLIC "-//W3C//DTD SVG 1.1//EN"
  "http://www.w3.org/Graphics/SVG/1.1/DTD/svg11.dtd">
<svg height="383.471875pt" version="1.1" viewBox="0 0 421.086875 383.471875" width="421.086875pt" xmlns="http://www.w3.org/2000/svg" xmlns:xlink="http://www.w3.org/1999/xlink">
 <metadata>
  <rdf:RDF xmlns:cc="http://creativecommons.org/ns#" xmlns:dc="http://purl.org/dc/elements/1.1/" xmlns:rdf="http://www.w3.org/1999/02/22-rdf-syntax-ns#">
   <cc:Work>
    <dc:type rdf:resource="http://purl.org/dc/dcmitype/StillImage"/>
    <dc:date>2021-06-11T14:39:38.096432</dc:date>
    <dc:format>image/svg+xml</dc:format>
    <dc:creator>
     <cc:Agent>
      <dc:title>Matplotlib v3.4.2, https://matplotlib.org/</dc:title>
     </cc:Agent>
    </dc:creator>
   </cc:Work>
  </rdf:RDF>
 </metadata>
 <defs>
  <style type="text/css">*{stroke-linecap:butt;stroke-linejoin:round;}</style>
 </defs>
 <g id="figure_1">
  <g id="patch_1">
   <path d="M 0 383.471875 
L 421.086875 383.471875 
L 421.086875 0 
L 0 0 
z
" style="fill:#ffffff;"/>
  </g>
  <g id="axes_1">
   <g id="patch_2">
    <path d="M 63.336875 339.84 
L 398.136875 339.84 
L 398.136875 7.2 
L 63.336875 7.2 
z
" style="fill:#ffffff;"/>
   </g>
   <g id="matplotlib.axis_1">
    <g id="xtick_1">
     <g id="line2d_1">
      <path clip-path="url(#pd3dd3906b1)" d="M 93.773239 339.84 
L 93.773239 7.2 
" style="fill:none;stroke:#000000;stroke-dasharray:0.5,0.825;stroke-dashoffset:0;stroke-width:0.5;"/>
     </g>
     <g id="line2d_2">
      <defs>
       <path d="M 0 0 
L 0 3.5 
" id="m70ddbb4908" style="stroke:#000000;stroke-width:0.8;"/>
      </defs>
      <g>
       <use style="stroke:#000000;stroke-width:0.8;" x="93.773239" xlink:href="#m70ddbb4908" y="339.84"/>
      </g>
     </g>
     <g id="text_1">
      <!-- 0.000 -->
      <g transform="translate(78.023239 356.56125)scale(0.14 -0.14)">
       <defs>
        <path d="M 231 2094 
Q 231 2819 450 3342 
Q 669 3866 1031 4122 
Q 1313 4325 1613 4325 
Q 2100 4325 2488 3828 
Q 2972 3213 2972 2159 
Q 2972 1422 2759 906 
Q 2547 391 2217 158 
Q 1888 -75 1581 -75 
Q 975 -75 572 641 
Q 231 1244 231 2094 
z
M 844 2016 
Q 844 1141 1059 588 
Q 1238 122 1591 122 
Q 1759 122 1940 273 
Q 2122 425 2216 781 
Q 2359 1319 2359 2297 
Q 2359 3022 2209 3506 
Q 2097 3866 1919 4016 
Q 1791 4119 1609 4119 
Q 1397 4119 1231 3928 
Q 1006 3669 925 3112 
Q 844 2556 844 2016 
z
" id="TimesNewRomanPSMT-30" transform="scale(0.015625)"/>
        <path d="M 800 606 
Q 947 606 1047 504 
Q 1147 403 1147 259 
Q 1147 116 1045 14 
Q 944 -88 800 -88 
Q 656 -88 554 14 
Q 453 116 453 259 
Q 453 406 554 506 
Q 656 606 800 606 
z
" id="TimesNewRomanPSMT-2e" transform="scale(0.015625)"/>
       </defs>
       <use xlink:href="#TimesNewRomanPSMT-30"/>
       <use x="50" xlink:href="#TimesNewRomanPSMT-2e"/>
       <use x="75" xlink:href="#TimesNewRomanPSMT-30"/>
       <use x="125" xlink:href="#TimesNewRomanPSMT-30"/>
       <use x="175" xlink:href="#TimesNewRomanPSMT-30"/>
      </g>
     </g>
    </g>
    <g id="xtick_2">
     <g id="line2d_3">
      <path clip-path="url(#pd3dd3906b1)" d="M 154.645966 339.84 
L 154.645966 7.2 
" style="fill:none;stroke:#000000;stroke-dasharray:0.5,0.825;stroke-dashoffset:0;stroke-width:0.5;"/>
     </g>
     <g id="line2d_4">
      <g>
       <use style="stroke:#000000;stroke-width:0.8;" x="154.645966" xlink:href="#m70ddbb4908" y="339.84"/>
      </g>
     </g>
     <g id="text_2">
      <!-- 0.001 -->
      <g transform="translate(138.895966 356.56125)scale(0.14 -0.14)">
       <defs>
        <path d="M 750 3822 
L 1781 4325 
L 1884 4325 
L 1884 747 
Q 1884 391 1914 303 
Q 1944 216 2037 169 
Q 2131 122 2419 116 
L 2419 0 
L 825 0 
L 825 116 
Q 1125 122 1212 167 
Q 1300 213 1334 289 
Q 1369 366 1369 747 
L 1369 3034 
Q 1369 3497 1338 3628 
Q 1316 3728 1258 3775 
Q 1200 3822 1119 3822 
Q 1003 3822 797 3725 
L 750 3822 
z
" id="TimesNewRomanPSMT-31" transform="scale(0.015625)"/>
       </defs>
       <use xlink:href="#TimesNewRomanPSMT-30"/>
       <use x="50" xlink:href="#TimesNewRomanPSMT-2e"/>
       <use x="75" xlink:href="#TimesNewRomanPSMT-30"/>
       <use x="125" xlink:href="#TimesNewRomanPSMT-30"/>
       <use x="175" xlink:href="#TimesNewRomanPSMT-31"/>
      </g>
     </g>
    </g>
    <g id="xtick_3">
     <g id="line2d_5">
      <path clip-path="url(#pd3dd3906b1)" d="M 215.518693 339.84 
L 215.518693 7.2 
" style="fill:none;stroke:#000000;stroke-dasharray:0.5,0.825;stroke-dashoffset:0;stroke-width:0.5;"/>
     </g>
     <g id="line2d_6">
      <g>
       <use style="stroke:#000000;stroke-width:0.8;" x="215.518693" xlink:href="#m70ddbb4908" y="339.84"/>
      </g>
     </g>
     <g id="text_3">
      <!-- 0.002 -->
      <g transform="translate(199.768693 356.56125)scale(0.14 -0.14)">
       <defs>
        <path d="M 2934 816 
L 2638 0 
L 138 0 
L 138 116 
Q 1241 1122 1691 1759 
Q 2141 2397 2141 2925 
Q 2141 3328 1894 3587 
Q 1647 3847 1303 3847 
Q 991 3847 742 3664 
Q 494 3481 375 3128 
L 259 3128 
Q 338 3706 661 4015 
Q 984 4325 1469 4325 
Q 1984 4325 2329 3994 
Q 2675 3663 2675 3213 
Q 2675 2891 2525 2569 
Q 2294 2063 1775 1497 
Q 997 647 803 472 
L 1909 472 
Q 2247 472 2383 497 
Q 2519 522 2628 598 
Q 2738 675 2819 816 
L 2934 816 
z
" id="TimesNewRomanPSMT-32" transform="scale(0.015625)"/>
       </defs>
       <use xlink:href="#TimesNewRomanPSMT-30"/>
       <use x="50" xlink:href="#TimesNewRomanPSMT-2e"/>
       <use x="75" xlink:href="#TimesNewRomanPSMT-30"/>
       <use x="125" xlink:href="#TimesNewRomanPSMT-30"/>
       <use x="175" xlink:href="#TimesNewRomanPSMT-32"/>
      </g>
     </g>
    </g>
    <g id="xtick_4">
     <g id="line2d_7">
      <path clip-path="url(#pd3dd3906b1)" d="M 276.39142 339.84 
L 276.39142 7.2 
" style="fill:none;stroke:#000000;stroke-dasharray:0.5,0.825;stroke-dashoffset:0;stroke-width:0.5;"/>
     </g>
     <g id="line2d_8">
      <g>
       <use style="stroke:#000000;stroke-width:0.8;" x="276.39142" xlink:href="#m70ddbb4908" y="339.84"/>
      </g>
     </g>
     <g id="text_4">
      <!-- 0.003 -->
      <g transform="translate(260.64142 356.56125)scale(0.14 -0.14)">
       <defs>
        <path d="M 325 3431 
Q 506 3859 782 4092 
Q 1059 4325 1472 4325 
Q 1981 4325 2253 3994 
Q 2459 3747 2459 3466 
Q 2459 3003 1878 2509 
Q 2269 2356 2469 2072 
Q 2669 1788 2669 1403 
Q 2669 853 2319 450 
Q 1863 -75 997 -75 
Q 569 -75 414 31 
Q 259 138 259 259 
Q 259 350 332 419 
Q 406 488 509 488 
Q 588 488 669 463 
Q 722 447 909 348 
Q 1097 250 1169 231 
Q 1284 197 1416 197 
Q 1734 197 1970 444 
Q 2206 691 2206 1028 
Q 2206 1275 2097 1509 
Q 2016 1684 1919 1775 
Q 1784 1900 1550 2001 
Q 1316 2103 1072 2103 
L 972 2103 
L 972 2197 
Q 1219 2228 1467 2375 
Q 1716 2522 1828 2728 
Q 1941 2934 1941 3181 
Q 1941 3503 1739 3701 
Q 1538 3900 1238 3900 
Q 753 3900 428 3381 
L 325 3431 
z
" id="TimesNewRomanPSMT-33" transform="scale(0.015625)"/>
       </defs>
       <use xlink:href="#TimesNewRomanPSMT-30"/>
       <use x="50" xlink:href="#TimesNewRomanPSMT-2e"/>
       <use x="75" xlink:href="#TimesNewRomanPSMT-30"/>
       <use x="125" xlink:href="#TimesNewRomanPSMT-30"/>
       <use x="175" xlink:href="#TimesNewRomanPSMT-33"/>
      </g>
     </g>
    </g>
    <g id="xtick_5">
     <g id="line2d_9">
      <path clip-path="url(#pd3dd3906b1)" d="M 337.264148 339.84 
L 337.264148 7.2 
" style="fill:none;stroke:#000000;stroke-dasharray:0.5,0.825;stroke-dashoffset:0;stroke-width:0.5;"/>
     </g>
     <g id="line2d_10">
      <g>
       <use style="stroke:#000000;stroke-width:0.8;" x="337.264148" xlink:href="#m70ddbb4908" y="339.84"/>
      </g>
     </g>
     <g id="text_5">
      <!-- 0.004 -->
      <g transform="translate(321.514148 356.56125)scale(0.14 -0.14)">
       <defs>
        <path d="M 2978 1563 
L 2978 1119 
L 2409 1119 
L 2409 0 
L 1894 0 
L 1894 1119 
L 100 1119 
L 100 1519 
L 2066 4325 
L 2409 4325 
L 2409 1563 
L 2978 1563 
z
M 1894 1563 
L 1894 3666 
L 406 1563 
L 1894 1563 
z
" id="TimesNewRomanPSMT-34" transform="scale(0.015625)"/>
       </defs>
       <use xlink:href="#TimesNewRomanPSMT-30"/>
       <use x="50" xlink:href="#TimesNewRomanPSMT-2e"/>
       <use x="75" xlink:href="#TimesNewRomanPSMT-30"/>
       <use x="125" xlink:href="#TimesNewRomanPSMT-30"/>
       <use x="175" xlink:href="#TimesNewRomanPSMT-34"/>
      </g>
     </g>
    </g>
    <g id="xtick_6">
     <g id="line2d_11">
      <path clip-path="url(#pd3dd3906b1)" d="M 398.136875 339.84 
L 398.136875 7.2 
" style="fill:none;stroke:#000000;stroke-dasharray:0.5,0.825;stroke-dashoffset:0;stroke-width:0.5;"/>
     </g>
     <g id="line2d_12">
      <g>
       <use style="stroke:#000000;stroke-width:0.8;" x="398.136875" xlink:href="#m70ddbb4908" y="339.84"/>
      </g>
     </g>
     <g id="text_6">
      <!-- 0.005 -->
      <g transform="translate(382.386875 356.56125)scale(0.14 -0.14)">
       <defs>
        <path d="M 2778 4238 
L 2534 3706 
L 1259 3706 
L 981 3138 
Q 1809 3016 2294 2522 
Q 2709 2097 2709 1522 
Q 2709 1188 2573 903 
Q 2438 619 2231 419 
Q 2025 219 1772 97 
Q 1413 -75 1034 -75 
Q 653 -75 479 54 
Q 306 184 306 341 
Q 306 428 378 495 
Q 450 563 559 563 
Q 641 563 702 538 
Q 763 513 909 409 
Q 1144 247 1384 247 
Q 1750 247 2026 523 
Q 2303 800 2303 1197 
Q 2303 1581 2056 1914 
Q 1809 2247 1375 2428 
Q 1034 2569 447 2591 
L 1259 4238 
L 2778 4238 
z
" id="TimesNewRomanPSMT-35" transform="scale(0.015625)"/>
       </defs>
       <use xlink:href="#TimesNewRomanPSMT-30"/>
       <use x="50" xlink:href="#TimesNewRomanPSMT-2e"/>
       <use x="75" xlink:href="#TimesNewRomanPSMT-30"/>
       <use x="125" xlink:href="#TimesNewRomanPSMT-30"/>
       <use x="175" xlink:href="#TimesNewRomanPSMT-35"/>
      </g>
     </g>
    </g>
    <g id="text_7">
     <!-- Time (sec) -->
     <g transform="translate(200.858906 373.277188)scale(0.14 -0.14)">
      <defs>
       <path d="M 3703 4238 
L 3750 3244 
L 3631 3244 
Q 3597 3506 3538 3619 
Q 3441 3800 3280 3886 
Q 3119 3972 2856 3972 
L 2259 3972 
L 2259 734 
Q 2259 344 2344 247 
Q 2463 116 2709 116 
L 2856 116 
L 2856 0 
L 1059 0 
L 1059 116 
L 1209 116 
Q 1478 116 1591 278 
Q 1659 378 1659 734 
L 1659 3972 
L 1150 3972 
Q 853 3972 728 3928 
Q 566 3869 450 3700 
Q 334 3531 313 3244 
L 194 3244 
L 244 4238 
L 3703 4238 
z
" id="TimesNewRomanPSMT-54" transform="scale(0.015625)"/>
       <path d="M 928 4444 
Q 1059 4444 1151 4351 
Q 1244 4259 1244 4128 
Q 1244 3997 1151 3903 
Q 1059 3809 928 3809 
Q 797 3809 703 3903 
Q 609 3997 609 4128 
Q 609 4259 701 4351 
Q 794 4444 928 4444 
z
M 1188 2947 
L 1188 647 
Q 1188 378 1227 289 
Q 1266 200 1342 156 
Q 1419 113 1622 113 
L 1622 0 
L 231 0 
L 231 113 
Q 441 113 512 153 
Q 584 194 626 287 
Q 669 381 669 647 
L 669 1750 
Q 669 2216 641 2353 
Q 619 2453 572 2492 
Q 525 2531 444 2531 
Q 356 2531 231 2484 
L 188 2597 
L 1050 2947 
L 1188 2947 
z
" id="TimesNewRomanPSMT-69" transform="scale(0.015625)"/>
       <path d="M 1050 2338 
Q 1363 2650 1419 2697 
Q 1559 2816 1721 2881 
Q 1884 2947 2044 2947 
Q 2313 2947 2506 2790 
Q 2700 2634 2766 2338 
Q 3088 2713 3309 2830 
Q 3531 2947 3766 2947 
Q 3994 2947 4170 2830 
Q 4347 2713 4450 2447 
Q 4519 2266 4519 1878 
L 4519 647 
Q 4519 378 4559 278 
Q 4591 209 4675 161 
Q 4759 113 4950 113 
L 4950 0 
L 3538 0 
L 3538 113 
L 3597 113 
Q 3781 113 3884 184 
Q 3956 234 3988 344 
Q 4000 397 4000 647 
L 4000 1878 
Q 4000 2228 3916 2372 
Q 3794 2572 3525 2572 
Q 3359 2572 3192 2489 
Q 3025 2406 2788 2181 
L 2781 2147 
L 2788 2013 
L 2788 647 
Q 2788 353 2820 281 
Q 2853 209 2943 161 
Q 3034 113 3253 113 
L 3253 0 
L 1806 0 
L 1806 113 
Q 2044 113 2133 169 
Q 2222 225 2256 338 
Q 2272 391 2272 647 
L 2272 1878 
Q 2272 2228 2169 2381 
Q 2031 2581 1784 2581 
Q 1616 2581 1450 2491 
Q 1191 2353 1050 2181 
L 1050 647 
Q 1050 366 1089 281 
Q 1128 197 1204 155 
Q 1281 113 1516 113 
L 1516 0 
L 100 0 
L 100 113 
Q 297 113 375 155 
Q 453 197 493 289 
Q 534 381 534 647 
L 534 1741 
Q 534 2213 506 2350 
Q 484 2453 437 2492 
Q 391 2531 309 2531 
Q 222 2531 100 2484 
L 53 2597 
L 916 2947 
L 1050 2947 
L 1050 2338 
z
" id="TimesNewRomanPSMT-6d" transform="scale(0.015625)"/>
       <path d="M 681 1784 
Q 678 1147 991 784 
Q 1303 422 1725 422 
Q 2006 422 2214 576 
Q 2422 731 2563 1106 
L 2659 1044 
Q 2594 616 2278 264 
Q 1963 -88 1488 -88 
Q 972 -88 605 314 
Q 238 716 238 1394 
Q 238 2128 614 2539 
Q 991 2950 1559 2950 
Q 2041 2950 2350 2633 
Q 2659 2316 2659 1784 
L 681 1784 
z
M 681 1966 
L 2006 1966 
Q 1991 2241 1941 2353 
Q 1863 2528 1708 2628 
Q 1553 2728 1384 2728 
Q 1125 2728 920 2526 
Q 716 2325 681 1966 
z
" id="TimesNewRomanPSMT-65" transform="scale(0.015625)"/>
       <path id="TimesNewRomanPSMT-20" transform="scale(0.015625)"/>
       <path d="M 1988 -1253 
L 1988 -1369 
Q 1516 -1131 1200 -813 
Q 750 -359 506 256 
Q 263 872 263 1534 
Q 263 2503 741 3301 
Q 1219 4100 1988 4444 
L 1988 4313 
Q 1603 4100 1356 3731 
Q 1109 3363 987 2797 
Q 866 2231 866 1616 
Q 866 947 969 400 
Q 1050 -31 1165 -292 
Q 1281 -553 1476 -793 
Q 1672 -1034 1988 -1253 
z
" id="TimesNewRomanPSMT-28" transform="scale(0.015625)"/>
       <path d="M 2050 2947 
L 2050 1972 
L 1947 1972 
Q 1828 2431 1642 2597 
Q 1456 2763 1169 2763 
Q 950 2763 815 2647 
Q 681 2531 681 2391 
Q 681 2216 781 2091 
Q 878 1963 1175 1819 
L 1631 1597 
Q 2266 1288 2266 781 
Q 2266 391 1970 151 
Q 1675 -88 1309 -88 
Q 1047 -88 709 6 
Q 606 38 541 38 
Q 469 38 428 -44 
L 325 -44 
L 325 978 
L 428 978 
Q 516 541 762 319 
Q 1009 97 1316 97 
Q 1531 97 1667 223 
Q 1803 350 1803 528 
Q 1803 744 1651 891 
Q 1500 1038 1047 1263 
Q 594 1488 453 1669 
Q 313 1847 313 2119 
Q 313 2472 555 2709 
Q 797 2947 1181 2947 
Q 1350 2947 1591 2875 
Q 1750 2828 1803 2828 
Q 1853 2828 1881 2850 
Q 1909 2872 1947 2947 
L 2050 2947 
z
" id="TimesNewRomanPSMT-73" transform="scale(0.015625)"/>
       <path d="M 2631 1088 
Q 2516 522 2178 217 
Q 1841 -88 1431 -88 
Q 944 -88 581 321 
Q 219 731 219 1428 
Q 219 2103 620 2525 
Q 1022 2947 1584 2947 
Q 2006 2947 2278 2723 
Q 2550 2500 2550 2259 
Q 2550 2141 2473 2067 
Q 2397 1994 2259 1994 
Q 2075 1994 1981 2113 
Q 1928 2178 1911 2362 
Q 1894 2547 1784 2644 
Q 1675 2738 1481 2738 
Q 1169 2738 978 2506 
Q 725 2200 725 1697 
Q 725 1184 976 792 
Q 1228 400 1656 400 
Q 1963 400 2206 609 
Q 2378 753 2541 1131 
L 2631 1088 
z
" id="TimesNewRomanPSMT-63" transform="scale(0.015625)"/>
       <path d="M 144 4313 
L 144 4444 
Q 619 4209 934 3891 
Q 1381 3434 1625 2820 
Q 1869 2206 1869 1541 
Q 1869 572 1392 -226 
Q 916 -1025 144 -1369 
L 144 -1253 
Q 528 -1038 776 -670 
Q 1025 -303 1145 264 
Q 1266 831 1266 1447 
Q 1266 2113 1163 2663 
Q 1084 3094 967 3353 
Q 850 3613 656 3853 
Q 463 4094 144 4313 
z
" id="TimesNewRomanPSMT-29" transform="scale(0.015625)"/>
      </defs>
      <use xlink:href="#TimesNewRomanPSMT-54"/>
      <use x="57.583984" xlink:href="#TimesNewRomanPSMT-69"/>
      <use x="85.367188" xlink:href="#TimesNewRomanPSMT-6d"/>
      <use x="163.150391" xlink:href="#TimesNewRomanPSMT-65"/>
      <use x="207.535156" xlink:href="#TimesNewRomanPSMT-20"/>
      <use x="232.535156" xlink:href="#TimesNewRomanPSMT-28"/>
      <use x="265.835938" xlink:href="#TimesNewRomanPSMT-73"/>
      <use x="304.751953" xlink:href="#TimesNewRomanPSMT-65"/>
      <use x="349.136719" xlink:href="#TimesNewRomanPSMT-63"/>
      <use x="393.521484" xlink:href="#TimesNewRomanPSMT-29"/>
     </g>
    </g>
   </g>
   <g id="matplotlib.axis_2">
    <g id="ytick_1">
     <g id="line2d_13">
      <path clip-path="url(#pd3dd3906b1)" d="M 63.336875 304.673751 
L 398.136875 304.673751 
" style="fill:none;stroke:#000000;stroke-dasharray:0.5,0.825;stroke-dashoffset:0;stroke-width:0.5;"/>
     </g>
     <g id="line2d_14">
      <defs>
       <path d="M 0 0 
L -3.5 0 
" id="mfb08eb0b29" style="stroke:#000000;stroke-width:0.8;"/>
      </defs>
      <g>
       <use style="stroke:#000000;stroke-width:0.8;" x="63.336875" xlink:href="#mfb08eb0b29" y="304.673751"/>
      </g>
     </g>
     <g id="text_8">
      <!-- −0.06 -->
      <g transform="translate(23.942188 309.534376)scale(0.14 -0.14)">
       <defs>
        <path d="M 3484 2000 
L 116 2000 
L 116 2256 
L 3484 2256 
L 3484 2000 
z
" id="TimesNewRomanPSMT-2212" transform="scale(0.015625)"/>
        <path d="M 2869 4325 
L 2869 4209 
Q 2456 4169 2195 4045 
Q 1934 3922 1679 3669 
Q 1425 3416 1258 3105 
Q 1091 2794 978 2366 
Q 1428 2675 1881 2675 
Q 2316 2675 2634 2325 
Q 2953 1975 2953 1425 
Q 2953 894 2631 456 
Q 2244 -75 1606 -75 
Q 1172 -75 869 213 
Q 275 772 275 1663 
Q 275 2231 503 2743 
Q 731 3256 1154 3653 
Q 1578 4050 1965 4187 
Q 2353 4325 2688 4325 
L 2869 4325 
z
M 925 2138 
Q 869 1716 869 1456 
Q 869 1156 980 804 
Q 1091 453 1309 247 
Q 1469 100 1697 100 
Q 1969 100 2183 356 
Q 2397 613 2397 1088 
Q 2397 1622 2184 2012 
Q 1972 2403 1581 2403 
Q 1463 2403 1327 2353 
Q 1191 2303 925 2138 
z
" id="TimesNewRomanPSMT-36" transform="scale(0.015625)"/>
       </defs>
       <use xlink:href="#TimesNewRomanPSMT-2212"/>
       <use x="56.396484" xlink:href="#TimesNewRomanPSMT-30"/>
       <use x="106.396484" xlink:href="#TimesNewRomanPSMT-2e"/>
       <use x="131.396484" xlink:href="#TimesNewRomanPSMT-30"/>
       <use x="181.396484" xlink:href="#TimesNewRomanPSMT-36"/>
      </g>
     </g>
    </g>
    <g id="ytick_2">
     <g id="line2d_15">
      <path clip-path="url(#pd3dd3906b1)" d="M 63.336875 254.981431 
L 398.136875 254.981431 
" style="fill:none;stroke:#000000;stroke-dasharray:0.5,0.825;stroke-dashoffset:0;stroke-width:0.5;"/>
     </g>
     <g id="line2d_16">
      <g>
       <use style="stroke:#000000;stroke-width:0.8;" x="63.336875" xlink:href="#mfb08eb0b29" y="254.981431"/>
      </g>
     </g>
     <g id="text_9">
      <!-- −0.04 -->
      <g transform="translate(23.942188 259.842056)scale(0.14 -0.14)">
       <use xlink:href="#TimesNewRomanPSMT-2212"/>
       <use x="56.396484" xlink:href="#TimesNewRomanPSMT-30"/>
       <use x="106.396484" xlink:href="#TimesNewRomanPSMT-2e"/>
       <use x="131.396484" xlink:href="#TimesNewRomanPSMT-30"/>
       <use x="181.396484" xlink:href="#TimesNewRomanPSMT-34"/>
      </g>
     </g>
    </g>
    <g id="ytick_3">
     <g id="line2d_17">
      <path clip-path="url(#pd3dd3906b1)" d="M 63.336875 205.289112 
L 398.136875 205.289112 
" style="fill:none;stroke:#000000;stroke-dasharray:0.5,0.825;stroke-dashoffset:0;stroke-width:0.5;"/>
     </g>
     <g id="line2d_18">
      <g>
       <use style="stroke:#000000;stroke-width:0.8;" x="63.336875" xlink:href="#mfb08eb0b29" y="205.289112"/>
      </g>
     </g>
     <g id="text_10">
      <!-- −0.02 -->
      <g transform="translate(23.942188 210.149737)scale(0.14 -0.14)">
       <use xlink:href="#TimesNewRomanPSMT-2212"/>
       <use x="56.396484" xlink:href="#TimesNewRomanPSMT-30"/>
       <use x="106.396484" xlink:href="#TimesNewRomanPSMT-2e"/>
       <use x="131.396484" xlink:href="#TimesNewRomanPSMT-30"/>
       <use x="181.396484" xlink:href="#TimesNewRomanPSMT-32"/>
      </g>
     </g>
    </g>
    <g id="ytick_4">
     <g id="line2d_19">
      <path clip-path="url(#pd3dd3906b1)" d="M 63.336875 155.596793 
L 398.136875 155.596793 
" style="fill:none;stroke:#000000;stroke-dasharray:0.5,0.825;stroke-dashoffset:0;stroke-width:0.5;"/>
     </g>
     <g id="line2d_20">
      <g>
       <use style="stroke:#000000;stroke-width:0.8;" x="63.336875" xlink:href="#mfb08eb0b29" y="155.596793"/>
      </g>
     </g>
     <g id="text_11">
      <!-- 0.00 -->
      <g transform="translate(31.836875 160.457418)scale(0.14 -0.14)">
       <use xlink:href="#TimesNewRomanPSMT-30"/>
       <use x="50" xlink:href="#TimesNewRomanPSMT-2e"/>
       <use x="75" xlink:href="#TimesNewRomanPSMT-30"/>
       <use x="125" xlink:href="#TimesNewRomanPSMT-30"/>
      </g>
     </g>
    </g>
    <g id="ytick_5">
     <g id="line2d_21">
      <path clip-path="url(#pd3dd3906b1)" d="M 63.336875 105.904474 
L 398.136875 105.904474 
" style="fill:none;stroke:#000000;stroke-dasharray:0.5,0.825;stroke-dashoffset:0;stroke-width:0.5;"/>
     </g>
     <g id="line2d_22">
      <g>
       <use style="stroke:#000000;stroke-width:0.8;" x="63.336875" xlink:href="#mfb08eb0b29" y="105.904474"/>
      </g>
     </g>
     <g id="text_12">
      <!-- 0.02 -->
      <g transform="translate(31.836875 110.765099)scale(0.14 -0.14)">
       <use xlink:href="#TimesNewRomanPSMT-30"/>
       <use x="50" xlink:href="#TimesNewRomanPSMT-2e"/>
       <use x="75" xlink:href="#TimesNewRomanPSMT-30"/>
       <use x="125" xlink:href="#TimesNewRomanPSMT-32"/>
      </g>
     </g>
    </g>
    <g id="ytick_6">
     <g id="line2d_23">
      <path clip-path="url(#pd3dd3906b1)" d="M 63.336875 56.212154 
L 398.136875 56.212154 
" style="fill:none;stroke:#000000;stroke-dasharray:0.5,0.825;stroke-dashoffset:0;stroke-width:0.5;"/>
     </g>
     <g id="line2d_24">
      <g>
       <use style="stroke:#000000;stroke-width:0.8;" x="63.336875" xlink:href="#mfb08eb0b29" y="56.212154"/>
      </g>
     </g>
     <g id="text_13">
      <!-- 0.04 -->
      <g transform="translate(31.836875 61.072779)scale(0.14 -0.14)">
       <use xlink:href="#TimesNewRomanPSMT-30"/>
       <use x="50" xlink:href="#TimesNewRomanPSMT-2e"/>
       <use x="75" xlink:href="#TimesNewRomanPSMT-30"/>
       <use x="125" xlink:href="#TimesNewRomanPSMT-34"/>
      </g>
     </g>
    </g>
    <g id="text_14">
     <!-- Volatage (V) -->
     <g transform="translate(16.92125 209.352344)rotate(-90)scale(0.14 -0.14)">
      <defs>
       <path d="M 4544 4238 
L 4544 4122 
Q 4319 4081 4203 3978 
Q 4038 3825 3909 3509 
L 2431 -97 
L 2316 -97 
L 728 3556 
Q 606 3838 556 3900 
Q 478 3997 364 4051 
Q 250 4106 56 4122 
L 56 4238 
L 1788 4238 
L 1788 4122 
Q 1494 4094 1406 4022 
Q 1319 3950 1319 3838 
Q 1319 3681 1463 3350 
L 2541 866 
L 3541 3319 
Q 3688 3681 3688 3822 
Q 3688 3913 3597 3995 
Q 3506 4078 3291 4113 
Q 3275 4116 3238 4122 
L 3238 4238 
L 4544 4238 
z
" id="TimesNewRomanPSMT-56" transform="scale(0.015625)"/>
       <path d="M 1600 2947 
Q 2250 2947 2644 2453 
Q 2978 2031 2978 1484 
Q 2978 1100 2793 706 
Q 2609 313 2286 112 
Q 1963 -88 1566 -88 
Q 919 -88 538 428 
Q 216 863 216 1403 
Q 216 1797 411 2186 
Q 606 2575 925 2761 
Q 1244 2947 1600 2947 
z
M 1503 2744 
Q 1338 2744 1170 2645 
Q 1003 2547 900 2300 
Q 797 2053 797 1666 
Q 797 1041 1045 587 
Q 1294 134 1700 134 
Q 2003 134 2200 384 
Q 2397 634 2397 1244 
Q 2397 2006 2069 2444 
Q 1847 2744 1503 2744 
z
" id="TimesNewRomanPSMT-6f" transform="scale(0.015625)"/>
       <path d="M 1184 4444 
L 1184 647 
Q 1184 378 1223 290 
Q 1263 203 1344 158 
Q 1425 113 1647 113 
L 1647 0 
L 244 0 
L 244 113 
Q 441 113 512 153 
Q 584 194 625 287 
Q 666 381 666 647 
L 666 3247 
Q 666 3731 644 3842 
Q 622 3953 573 3993 
Q 525 4034 450 4034 
Q 369 4034 244 3984 
L 191 4094 
L 1044 4444 
L 1184 4444 
z
" id="TimesNewRomanPSMT-6c" transform="scale(0.015625)"/>
       <path d="M 1822 413 
Q 1381 72 1269 19 
Q 1100 -59 909 -59 
Q 613 -59 420 144 
Q 228 347 228 678 
Q 228 888 322 1041 
Q 450 1253 767 1440 
Q 1084 1628 1822 1897 
L 1822 2009 
Q 1822 2438 1686 2597 
Q 1550 2756 1291 2756 
Q 1094 2756 978 2650 
Q 859 2544 859 2406 
L 866 2225 
Q 866 2081 792 2003 
Q 719 1925 600 1925 
Q 484 1925 411 2006 
Q 338 2088 338 2228 
Q 338 2497 613 2722 
Q 888 2947 1384 2947 
Q 1766 2947 2009 2819 
Q 2194 2722 2281 2516 
Q 2338 2381 2338 1966 
L 2338 994 
Q 2338 584 2353 492 
Q 2369 400 2405 369 
Q 2441 338 2488 338 
Q 2538 338 2575 359 
Q 2641 400 2828 588 
L 2828 413 
Q 2478 -56 2159 -56 
Q 2006 -56 1915 50 
Q 1825 156 1822 413 
z
M 1822 616 
L 1822 1706 
Q 1350 1519 1213 1441 
Q 966 1303 859 1153 
Q 753 1003 753 825 
Q 753 600 887 451 
Q 1022 303 1197 303 
Q 1434 303 1822 616 
z
" id="TimesNewRomanPSMT-61" transform="scale(0.015625)"/>
       <path d="M 1031 3803 
L 1031 2863 
L 1700 2863 
L 1700 2644 
L 1031 2644 
L 1031 788 
Q 1031 509 1111 412 
Q 1191 316 1316 316 
Q 1419 316 1516 380 
Q 1613 444 1666 569 
L 1788 569 
Q 1678 263 1478 108 
Q 1278 -47 1066 -47 
Q 922 -47 784 33 
Q 647 113 581 261 
Q 516 409 516 719 
L 516 2644 
L 63 2644 
L 63 2747 
Q 234 2816 414 2980 
Q 594 3144 734 3369 
Q 806 3488 934 3803 
L 1031 3803 
z
" id="TimesNewRomanPSMT-74" transform="scale(0.015625)"/>
       <path d="M 966 1044 
Q 703 1172 562 1401 
Q 422 1631 422 1909 
Q 422 2334 742 2640 
Q 1063 2947 1563 2947 
Q 1972 2947 2272 2747 
L 2878 2747 
Q 3013 2747 3034 2739 
Q 3056 2731 3066 2713 
Q 3084 2684 3084 2613 
Q 3084 2531 3069 2500 
Q 3059 2484 3036 2475 
Q 3013 2466 2878 2466 
L 2506 2466 
Q 2681 2241 2681 1891 
Q 2681 1491 2375 1206 
Q 2069 922 1553 922 
Q 1341 922 1119 984 
Q 981 866 932 777 
Q 884 688 884 625 
Q 884 572 936 522 
Q 988 472 1138 450 
Q 1225 438 1575 428 
Q 2219 413 2409 384 
Q 2700 344 2873 169 
Q 3047 -6 3047 -263 
Q 3047 -616 2716 -925 
Q 2228 -1381 1444 -1381 
Q 841 -1381 425 -1109 
Q 191 -953 191 -784 
Q 191 -709 225 -634 
Q 278 -519 444 -313 
Q 466 -284 763 25 
Q 600 122 533 198 
Q 466 275 466 372 
Q 466 481 555 628 
Q 644 775 966 1044 
z
M 1509 2797 
Q 1278 2797 1122 2612 
Q 966 2428 966 2047 
Q 966 1553 1178 1281 
Q 1341 1075 1591 1075 
Q 1828 1075 1981 1253 
Q 2134 1431 2134 1813 
Q 2134 2309 1919 2591 
Q 1759 2797 1509 2797 
z
M 934 0 
Q 788 -159 713 -296 
Q 638 -434 638 -550 
Q 638 -700 819 -813 
Q 1131 -1006 1722 -1006 
Q 2284 -1006 2551 -807 
Q 2819 -609 2819 -384 
Q 2819 -222 2659 -153 
Q 2497 -84 2016 -72 
Q 1313 -53 934 0 
z
" id="TimesNewRomanPSMT-67" transform="scale(0.015625)"/>
      </defs>
      <use xlink:href="#TimesNewRomanPSMT-56"/>
      <use x="59.341797" xlink:href="#TimesNewRomanPSMT-6f"/>
      <use x="109.341797" xlink:href="#TimesNewRomanPSMT-6c"/>
      <use x="137.125" xlink:href="#TimesNewRomanPSMT-61"/>
      <use x="181.509766" xlink:href="#TimesNewRomanPSMT-74"/>
      <use x="209.292969" xlink:href="#TimesNewRomanPSMT-61"/>
      <use x="253.677734" xlink:href="#TimesNewRomanPSMT-67"/>
      <use x="303.677734" xlink:href="#TimesNewRomanPSMT-65"/>
      <use x="348.0625" xlink:href="#TimesNewRomanPSMT-20"/>
      <use x="373.0625" xlink:href="#TimesNewRomanPSMT-28"/>
      <use x="406.363281" xlink:href="#TimesNewRomanPSMT-56"/>
      <use x="478.580078" xlink:href="#TimesNewRomanPSMT-29"/>
     </g>
    </g>
   </g>
   <g id="LineCollection_1">
    <path clip-path="url(#pd3dd3906b1)" d="M 78.555057 155.596793 
L 382.918693 155.596793 
" style="fill:none;stroke:#1f77b4;stroke-width:1.5;"/>
   </g>
   <g id="line2d_25">
    <path clip-path="url(#pd3dd3906b1)" d="M 78.555057 155.548716 
L 85.524984 155.641889 
L 85.64673 155.641889 
L 85.829348 155.610831 
L 86.042402 155.672946 
L 86.194584 155.641889 
L 86.346766 155.672946 
L 86.468511 155.641889 
L 88.751239 155.735062 
L 88.90342 155.735062 
L 93.68193 155.828235 
L 93.834111 155.828235 
L 112.522039 155.921408 
L 112.67422 155.983523 
L 112.704657 155.952466 
L 113.526439 156.045639 
L 113.67862 156.076697 
L 113.800366 156.045639 
L 113.830802 156.076697 
L 114.804766 156.16987 
L 114.926511 156.231985 
L 114.956948 156.200927 
L 115.078693 156.200927 
L 115.291748 156.263043 
L 115.44393 156.263043 
L 116.11353 156.356216 
L 116.326584 156.418331 
L 116.478766 156.418331 
L 117.209239 156.511504 
L 117.36142 156.57362 
L 117.544039 156.604677 
L 118.335384 156.697851 
L 118.548439 156.791024 
L 118.70062 156.791024 
L 119.248475 156.884197 
L 119.431093 156.915254 
L 120.37462 157.008427 
L 120.557239 157.070543 
L 120.739857 157.008427 
L 120.922475 157.039485 
L 121.683384 157.132658 
L 121.926875 157.225831 
L 122.231239 157.287947 
L 122.352984 157.350062 
L 122.444293 157.350062 
L 122.596475 157.412178 
L 122.870402 157.536408 
L 123.022584 157.567466 
L 123.174766 157.691697 
L 123.448693 157.78487 
L 123.631311 157.909101 
L 124.05742 158.18862 
L 124.179166 158.281793 
L 124.940075 158.934005 
L 124.970511 158.902947 
L 125.031384 158.99612 
L 125.853166 159.989967 
L 126.096657 160.393717 
L 126.309711 160.735351 
L 126.583639 161.263332 
L 126.644511 161.325448 
L 127.618475 163.561602 
L 127.922839 164.369102 
L 128.318511 165.425064 
L 128.805493 166.977949 
L 128.896802 167.22641 
L 130.022948 171.01545 
L 131.940439 178.407183 
L 132.123057 179.028336 
L 132.488293 180.33276 
L 132.701348 181.01603 
L 134.10142 184.991415 
L 134.19273 185.208819 
L 134.831893 186.823819 
L 136.079784 189.153146 
L 136.262402 189.24632 
L 136.566766 189.401608 
L 137.266802 189.308435 
L 137.479857 189.091031 
L 137.601602 188.997858 
L 137.78422 188.780454 
L 137.87553 188.718339 
L 138.21033 188.283531 
L 138.514693 187.817665 
L 139.184293 186.202665 
L 139.732148 184.432376 
L 140.066948 183.065837 
L 140.645239 180.177472 
L 140.736548 179.773722 
L 142.47142 168.468719 
L 143.628002 159.461986 
L 145.728111 139.15025 
L 151.60233 74.45706 
L 152.667602 64.673889 
L 154.158984 53.399944 
L 155.650366 46.318789 
L 155.893857 45.573399 
L 156.441711 44.206865 
L 156.53302 44.113687 
L 157.080875 43.678882 
L 157.172184 43.709945 
L 157.20262 43.647827 
L 157.659166 43.740997 
L 157.96353 44.206865 
L 158.328766 45.200712 
L 159.515784 50.511578 
L 160.428875 56.785229 
L 161.31153 64.86023 
L 162.346366 76.537928 
L 163.837748 97.688224 
L 166.637893 148.188041 
L 169.224984 201.327767 
L 170.381566 224.589979 
L 171.964257 254.622775 
L 172.877348 270.182682 
L 173.668693 282.015666 
L 174.886148 297.82404 
L 175.799239 307.669325 
L 176.407966 312.793843 
L 177.260184 318.881165 
L 178.173275 322.980776 
L 178.568948 324.129916 
L 178.62982 324.192024 
L 178.903748 324.502596 
L 178.934184 324.471551 
L 178.995057 324.533659 
L 179.238548 324.626829 
L 179.816839 324.533659 
L 180.547311 322.856543 
L 180.821239 322.017993 
L 181.490839 318.819037 
L 181.916948 316.241248 
L 182.495239 312.079519 
L 183.712693 299.904908 
L 185.538875 276.269991 
L 187.699857 241.516425 
L 188.704257 223.347674 
L 190.591311 186.668531 
L 193.178402 136.137653 
L 194.639348 111.291494 
L 196.13073 88.401972 
L 196.861202 78.246099 
L 198.991748 55.542918 
L 200.300511 45.75975 
L 202.004948 37.622633 
L 202.461493 36.44244 
L 202.978911 35.20013 
L 203.40502 34.578973 
L 203.526766 34.485803 
L 204.287675 33.833594 
L 204.470293 33.864649 
L 204.652911 33.957819 
L 204.926839 34.268401 
L 205.566002 35.075897 
L 206.08342 36.34927 
L 206.17473 36.535608 
L 206.570402 37.684751 
L 206.905202 38.585414 
L 208.548766 45.75975 
L 209.340111 50.356285 
L 211.53153 64.456485 
L 215.79262 95.638413 
L 216.401348 100.23495 
L 219.81022 123.807747 
L 222.123384 137.286789 
L 224.953966 151.16958 
L 225.227893 152.349773 
L 227.358439 161.480736 
L 227.93673 164.338045 
L 228.728075 168.002853 
L 229.488984 171.978239 
L 230.61513 178.282952 
L 232.684802 191.575647 
L 233.689202 199.805937 
L 234.176184 204.060845 
L 235.454511 215.396903 
L 236.063239 220.987291 
L 237.55462 233.689888 
L 238.619893 242.075464 
L 239.56342 248.908163 
L 240.933057 256.610472 
L 241.23742 257.883838 
L 241.785275 259.685187 
L 242.059202 260.492682 
L 242.546184 261.641812 
L 242.850548 262.107683 
L 243.185348 262.542488 
L 244.128875 263.381046 
L 244.311493 263.318928 
L 244.34193 263.349993 
L 244.402802 263.287875 
L 245.133275 262.449317 
L 246.715966 255.554511 
L 248.542148 241.733829 
L 249.455239 233.379308 
L 251.220548 214.247765 
L 253.107602 191.824109 
L 254.507675 174.711316 
L 256.759966 148.46756 
L 258.099166 135.889192 
L 258.73833 130.578325 
L 259.40793 125.453805 
L 260.686257 117.099286 
L 262.025457 110.794573 
L 263.33422 107.129762 
L 263.486402 106.819185 
L 264.247311 105.514762 
L 265.616948 104.272456 
L 266.651784 104.334567 
L 266.803966 104.396684 
L 267.047457 104.489858 
L 267.290948 104.738319 
L 267.412693 104.831495 
L 267.747493 105.2663 
L 267.838802 105.359476 
L 268.386657 106.0738 
L 268.630148 106.477553 
L 269.69542 108.403125 
L 269.878039 108.744762 
L 270.212839 109.428034 
L 270.608511 110.452936 
L 270.943311 111.415722 
L 271.03462 111.633131 
L 272.008584 114.925247 
L 272.404257 116.416014 
L 273.012984 118.621111 
L 273.773893 121.261015 
L 276.026184 127.81419 
L 276.14793 128.093709 
L 276.787093 129.70871 
L 276.908839 129.988229 
L 277.48713 131.385825 
L 277.791493 132.162268 
L 278.308911 133.404576 
L 280.104657 136.820923 
L 280.16553 136.914095 
L 280.652511 137.566309 
L 281.626475 139.305539 
L 281.930839 139.771404 
L 282.904802 141.510635 
L 283.270039 142.007558 
L 283.543966 142.504482 
L 284.000511 143.218808 
L 284.122257 143.311982 
L 284.304875 143.591501 
L 284.396184 143.653616 
L 284.730984 144.119482 
L 284.822293 144.212655 
L 285.948439 145.206501 
L 286.070184 145.268617 
L 286.222366 145.330733 
L 286.465857 145.454963 
L 286.618039 145.423905 
L 286.709348 145.423905 
L 286.831093 145.392848 
L 286.983275 145.423905 
L 287.135457 145.330733 
L 287.257202 145.330733 
L 287.561566 145.144386 
L 287.683311 145.113329 
L 287.86593 144.989098 
L 288.992075 143.684675 
L 289.357311 143.156693 
L 289.44862 143.063521 
L 291.335675 138.963904 
L 291.609602 138.280635 
L 292.248766 136.72775 
L 292.644439 135.547556 
L 292.979239 134.646884 
L 293.435784 133.249287 
L 296.935966 122.844958 
L 296.996839 122.751785 
L 297.24033 122.223804 
L 297.514257 121.726881 
L 298.214293 120.546688 
L 298.305602 120.484573 
L 298.518657 120.298227 
L 298.609966 120.298227 
L 298.640402 120.267169 
L 298.91433 120.142938 
L 298.944766 120.173996 
L 299.005639 120.11188 
L 299.279566 119.956592 
L 299.431748 119.956592 
L 299.614366 120.018707 
L 299.91873 120.3914 
L 299.949166 120.360342 
L 300.010039 120.453515 
L 300.314402 120.826208 
L 300.740511 121.416304 
L 302.414511 126.851401 
L 303.60153 133.466692 
L 305.427711 147.225252 
L 306.249493 154.554869 
L 306.61473 157.940158 
L 313.036802 222.446998 
L 313.341166 224.993732 
L 314.041202 230.428829 
L 314.98473 236.391905 
L 315.89782 240.491526 
L 316.65873 243.162488 
L 317.90662 245.491813 
L 318.606657 245.398643 
L 319.154511 244.684308 
L 319.702366 243.317774 
L 320.706766 239.932488 
L 322.867748 228.347963 
L 323.446039 224.124116 
L 324.328693 217.074018 
L 326.154875 201.327767 
L 327.494075 189.525839 
L 328.559348 179.773722 
L 329.71593 169.431507 
L 331.207311 156.728908 
L 331.755166 152.039196 
L 333.155239 140.206213 
L 334.524875 129.926113 
L 335.864075 121.074669 
L 336.32062 118.248416 
L 337.568511 111.291494 
L 338.633784 106.384377 
L 339.029457 104.831495 
L 339.303384 103.806586 
L 340.368657 99.924373 
L 340.946948 97.874568 
L 341.190439 97.03601 
L 341.403493 96.352743 
L 343.412293 90.54495 
L 343.990584 89.147354 
L 344.234075 88.588315 
L 345.908075 85.389375 
L 345.999384 85.358315 
L 346.182002 85.140913 
L 346.668984 84.799276 
L 347.642948 84.892447 
L 347.916875 85.01668 
L 348.069057 85.109856 
L 348.647348 85.544661 
L 348.769093 85.637834 
L 349.316948 86.352161 
L 349.560439 86.755914 
L 350.747457 89.426873 
L 351.14313 90.576011 
L 353.212802 97.253414 
L 355.921639 108.77582 
L 356.317311 110.825631 
L 356.74342 113.030727 
L 358.326111 121.664765 
L 358.873966 124.801593 
L 360.700148 135.299095 
L 361.734984 141.137943 
L 362.800257 146.97679 
L 363.226366 149.181887 
L 364.048148 153.529965 
L 365.996075 163.99641 
L 366.45262 166.481026 
L 368.278802 176.326317 
L 368.674475 178.407183 
L 372.874693 200.364976 
L 373.300802 202.663248 
L 376.49662 218.409499 
L 376.83142 219.776038 
L 379.022839 228.25479 
L 379.905493 230.615173 
L 380.088111 230.95681 
L 380.392475 231.609022 
L 380.483784 231.702192 
L 380.818584 232.199121 
L 381.122948 232.602868 
L 381.214257 232.696041 
L 381.640366 233.006621 
L 381.792548 233.006621 
L 382.52302 232.944503 
L 382.736075 232.758159 
L 382.918693 232.571808 
L 382.918693 232.571808 
" style="fill:none;stroke:#0000ff;stroke-linecap:square;stroke-width:1.5;"/>
   </g>
   <g id="line2d_26">
    <path clip-path="url(#pd3dd3906b1)" d="M 78.555057 155.588594 
L 78.828984 155.557536 
L 79.133348 155.604123 
L 79.407275 155.588594 
L 79.681202 155.604123 
L 98.886548 155.697295 
L 99.008293 155.728353 
L 99.03873 155.697295 
L 99.343093 155.728353 
L 99.556148 155.728353 
L 99.860511 155.759411 
L 100.773602 155.868113 
L 101.29102 156.023401 
L 101.443202 156.069988 
L 101.656257 156.163161 
L 101.991057 156.349507 
L 102.508475 156.7222 
L 102.873711 157.079363 
L 103.086766 157.296767 
L 104.608584 159.82797 
L 105.278184 161.44297 
L 106.31302 164.377922 
L 109.021857 173.648645 
L 110.026257 177.080522 
L 110.634984 178.86634 
L 112.43073 183.152302 
L 113.00902 184.099562 
L 113.282948 184.348023 
L 113.587311 184.612014 
L 113.76993 184.720716 
L 114.378657 184.907062 
L 114.68302 184.79836 
L 115.961348 183.354177 
L 116.539639 181.925522 
L 117.057057 180.48134 
L 117.757093 178.012253 
L 120.283311 165.89975 
L 120.892039 162.219413 
L 121.652948 157.327825 
L 126.06622 126.596231 
L 127.131493 120.586566 
L 128.775057 111.983584 
L 130.388184 105.849688 
L 132.914402 99.684735 
L 133.18833 99.265456 
L 133.888366 98.085263 
L 134.162293 97.821275 
L 134.588402 97.526222 
L 134.710148 97.433054 
L 135.318875 96.656606 
L 135.623239 96.392618 
L 135.805857 96.361561 
L 137.20593 95.771464 
L 137.479857 95.880164 
L 138.301639 96.408145 
L 138.697311 97.200119 
L 139.336475 99.125696 
L 140.310439 102.44887 
L 141.984439 109.747429 
L 142.958402 115.291226 
L 143.719311 120.633153 
L 146.91513 145.929649 
L 153.428511 208.029519 
L 154.585093 216.570387 
L 155.741675 223.527309 
L 157.172184 229.599094 
L 157.415675 230.344476 
L 158.085275 232.068179 
L 158.663566 232.751451 
L 159.30273 233.279429 
L 159.454911 233.326016 
L 159.728839 233.357073 
L 160.30713 232.937794 
L 160.763675 232.440871 
L 161.037602 232.006061 
L 161.281093 231.47808 
L 161.768075 230.142601 
L 162.742039 226.850483 
L 164.23342 218.666784 
L 165.390002 210.265674 
L 167.00313 196.196536 
L 169.25542 175.434463 
L 171.659893 155.510949 
L 173.36433 144.128302 
L 174.186111 139.764696 
L 175.494875 134.251954 
L 176.681893 131.518877 
L 176.864511 131.348059 
L 177.04713 131.239357 
L 177.808039 130.959838 
L 178.264584 131.565463 
L 180.151639 135.66508 
L 181.247348 138.739791 
L 183.225711 148.321092 
L 185.478002 160.340422 
L 187.912911 171.008741 
L 189.952148 177.919081 
L 190.68262 179.161387 
L 191.200039 179.54961 
L 191.595711 179.798071 
L 192.02182 179.906772 
L 193.087093 180.326052 
L 193.36102 180.21735 
L 193.69582 179.922302 
L 194.608911 178.86634 
L 195.12633 177.841435 
L 195.826366 176.661242 
L 196.03942 176.30408 
L 197.409057 172.51504 
L 197.956911 170.49629 
L 199.509166 162.902682 
L 203.678948 132.326377 
L 205.292075 119.297674 
L 205.870366 115.446517 
L 207.08782 108.101371 
L 209.248802 96.594496 
L 210.405384 91.765021 
L 211.86633 88.317614 
L 212.688111 87.634347 
L 213.266402 87.46353 
L 214.575166 88.255504 
L 214.849093 88.674783 
L 216.005675 91.2681 
L 216.705711 93.768243 
L 217.862293 98.287138 
L 221.697275 116.409306 
L 227.662802 146.286813 
L 228.423711 149.84292 
L 229.580293 155.169315 
L 231.52822 163.585951 
L 232.593493 168.989992 
L 233.780511 175.605281 
L 237.21982 195.994661 
L 239.22862 204.706343 
L 240.598257 208.541971 
L 241.602657 210.824712 
L 243.24622 213.154037 
L 243.428839 213.371446 
L 243.824511 213.914953 
L 244.159311 214.36529 
L 244.372366 214.598225 
L 245.194148 215.654187 
L 246.198548 216.523803 
L 247.35513 216.989666 
L 248.02473 217.098368 
L 248.298657 217.113894 
L 249.02913 217.020726 
L 249.211748 216.989666 
L 249.576984 216.92755 
L 250.124839 216.818848 
L 250.581384 216.710146 
L 251.311857 216.818848 
L 251.61622 216.849906 
L 252.498875 216.943082 
L 252.651057 216.974134 
L 252.803239 216.974134 
L 253.777202 217.082841 
L 254.842475 217.750582 
L 255.085966 217.921394 
L 255.846875 218.542551 
L 256.63822 219.070532 
L 258.616584 220.965049 
L 258.64702 220.933991 
L 258.707893 221.027167 
L 258.920948 221.12034 
L 259.103566 221.197984 
L 260.351457 221.089282 
L 261.386293 219.893563 
L 262.208075 217.967983 
L 262.908111 215.498894 
L 264.33862 208.448798 
L 265.525639 200.513559 
L 266.286548 193.85168 
L 267.564875 180.403695 
L 268.812766 165.185423 
L 270.821566 137.062675 
L 276.452293 55.318813 
L 277.761057 41.234142 
L 278.795893 32.67775 
L 280.013348 25.876114 
L 280.591639 23.950532 
L 281.474293 22.382118 
L 281.687348 22.32 
L 281.930839 22.428702 
L 282.17433 22.677169 
L 282.448257 23.111974 
L 282.84393 23.903948 
L 283.787457 27.677456 
L 284.639675 32.569048 
L 285.461457 38.718465 
L 286.587602 48.796696 
L 287.652875 60.163812 
L 290.331275 94.296224 
L 293.314039 133.879262 
L 294.89673 152.684699 
L 297.24033 177.763792 
L 299.766548 201.196825 
L 300.953566 210.529662 
L 302.810184 223.014859 
L 303.905893 228.046204 
L 304.758111 230.313419 
L 305.732075 232.05265 
L 306.097311 232.42534 
L 306.310366 232.642749 
L 306.736475 233.124138 
L 306.85822 233.23284 
L 307.162584 233.388131 
L 307.771311 233.294958 
L 307.984366 233.217314 
L 308.19742 233.108612 
L 308.501784 232.829092 
L 309.019202 232.145821 
L 309.354002 231.711015 
L 309.87142 231.120919 
L 310.114911 230.732698 
L 311.606293 227.440582 
L 312.54982 224.210581 
L 313.493348 219.924621 
L 315.22822 209.582402 
L 318.180548 189.270669 
L 321.467675 166.58302 
L 322.502511 160.418066 
L 324.450439 151.05417 
L 326.246184 144.15936 
L 328.194111 139.485176 
L 328.772402 138.537918 
L 330.172475 137.264551 
L 330.415966 137.15585 
L 330.62902 137.062675 
L 330.750766 137.062675 
L 331.116002 137.000561 
L 331.72473 137.109262 
L 334.798802 138.801907 
L 335.255348 139.112484 
L 335.437966 139.205657 
L 335.803202 139.423061 
L 336.381493 139.609408 
L 336.564111 139.56282 
L 336.898911 139.454119 
L 337.812002 138.864022 
L 339.516439 136.985032 
L 340.155602 135.913542 
L 340.459966 135.447675 
L 341.43393 133.755032 
L 341.920911 132.792242 
L 342.34702 131.938155 
L 343.473166 129.391424 
L 343.960148 128.444164 
L 344.660184 127.248443 
L 345.664584 126.378827 
L 347.064657 125.773202 
L 347.186402 125.726616 
L 347.734257 125.571327 
L 347.947311 125.555798 
L 348.160366 125.571327 
L 349.347384 126.301183 
L 349.80393 126.906808 
L 350.321348 127.714308 
L 350.899639 128.785799 
L 352.269275 132.559309 
L 354.278075 140.137388 
L 355.06942 143.833255 
L 355.921639 148.243447 
L 356.895602 153.119507 
L 357.41302 155.681767 
L 358.265239 159.843499 
L 358.691348 162.048595 
L 359.787057 167.079943 
L 362.708948 177.142637 
L 362.952439 177.888023 
L 364.809057 182.329272 
L 365.78302 184.068504 
L 365.904766 184.239321 
L 366.483057 184.922591 
L 367.12222 185.124466 
L 368.065748 185.015764 
L 369.039711 184.39461 
L 369.435384 183.8511 
L 370.257166 181.941051 
L 373.361675 172.095761 
L 378.322802 151.380276 
L 380.757711 140.696427 
L 381.549057 137.466425 
L 382.918693 132.326377 
L 382.918693 132.326377 
" style="fill:none;stroke:#ff0000;stroke-linecap:square;stroke-width:1.5;"/>
   </g>
   <g id="line2d_27">
    <path clip-path="url(#pd3dd3906b1)" d="M 127.801093 164.058525 
" style="fill:none;stroke:#ffffff;stroke-linecap:square;stroke-width:1.5;"/>
    <defs>
     <path d="M 0 -5 
L -1.12257 -1.545085 
L -4.755283 -1.545085 
L -1.816356 0.59017 
L -2.938926 4.045085 
L -0 1.90983 
L 2.938926 4.045085 
L 1.816356 0.59017 
L 4.755283 -1.545085 
L 1.12257 -1.545085 
z
" id="mfd32fcb407" style="stroke:#ffffff;stroke-linejoin:bevel;"/>
    </defs>
    <g clip-path="url(#pd3dd3906b1)">
     <use style="fill:#0000ff;stroke:#ffffff;stroke-linejoin:bevel;" x="127.801093" xlink:href="#mfd32fcb407" y="164.058525"/>
    </g>
   </g>
   <g id="line2d_28">
    <path clip-path="url(#pd3dd3906b1)" d="M 105.582548 162.265999 
" style="fill:none;stroke:#ffffff;stroke-linecap:square;stroke-width:1.5;"/>
    <defs>
     <path d="M 0 -5 
L -1.12257 -1.545085 
L -4.755283 -1.545085 
L -1.816356 0.59017 
L -2.938926 4.045085 
L -0 1.90983 
L 2.938926 4.045085 
L 1.816356 0.59017 
L 4.755283 -1.545085 
L 1.12257 -1.545085 
z
" id="mb3686b8f7a" style="stroke:#ffffff;stroke-linejoin:bevel;"/>
    </defs>
    <g clip-path="url(#pd3dd3906b1)">
     <use style="fill:#ff0000;stroke:#ffffff;stroke-linejoin:bevel;" x="105.582548" xlink:href="#mb3686b8f7a" y="162.265999"/>
    </g>
   </g>
   <g id="patch_3">
    <path d="M 63.336875 339.84 
L 63.336875 7.2 
" style="fill:none;stroke:#000000;stroke-linecap:square;stroke-linejoin:miter;stroke-width:0.8;"/>
   </g>
   <g id="patch_4">
    <path d="M 398.136875 339.84 
L 398.136875 7.2 
" style="fill:none;stroke:#000000;stroke-linecap:square;stroke-linejoin:miter;stroke-width:0.8;"/>
   </g>
   <g id="patch_5">
    <path d="M 63.336875 339.84 
L 398.136875 339.84 
" style="fill:none;stroke:#000000;stroke-linecap:square;stroke-linejoin:miter;stroke-width:0.8;"/>
   </g>
   <g id="patch_6">
    <path d="M 63.336875 7.2 
L 398.136875 7.2 
" style="fill:none;stroke:#000000;stroke-linecap:square;stroke-linejoin:miter;stroke-width:0.8;"/>
   </g>
   <g id="text_15">
    <g id="patch_7">
     <path d="M 75.036875 331.242688 
L 166.79375 331.242688 
L 166.79375 293.760312 
L 75.036875 293.760312 
z
" style="fill:#ffffff;stroke:#000000;stroke-linejoin:miter;stroke-width:0.75;"/>
    </g>
    <!-- Auto_00057 -->
    <g transform="translate(80.076875 308.521562)scale(0.14 -0.14)">
     <defs>
      <path d="M 2928 1419 
L 1288 1419 
L 1000 750 
Q 894 503 894 381 
Q 894 284 986 211 
Q 1078 138 1384 116 
L 1384 0 
L 50 0 
L 50 116 
Q 316 163 394 238 
Q 553 388 747 847 
L 2238 4334 
L 2347 4334 
L 3822 809 
Q 4000 384 4145 257 
Q 4291 131 4550 116 
L 4550 0 
L 2878 0 
L 2878 116 
Q 3131 128 3220 200 
Q 3309 272 3309 375 
Q 3309 513 3184 809 
L 2928 1419 
z
M 2841 1650 
L 2122 3363 
L 1384 1650 
L 2841 1650 
z
" id="TimesNewRomanPSMT-41" transform="scale(0.015625)"/>
      <path d="M 2709 2863 
L 2709 1128 
Q 2709 631 2732 520 
Q 2756 409 2807 365 
Q 2859 322 2928 322 
Q 3025 322 3147 375 
L 3191 266 
L 2334 -88 
L 2194 -88 
L 2194 519 
Q 1825 119 1631 15 
Q 1438 -88 1222 -88 
Q 981 -88 804 51 
Q 628 191 559 409 
Q 491 628 491 1028 
L 491 2306 
Q 491 2509 447 2587 
Q 403 2666 317 2708 
Q 231 2750 6 2747 
L 6 2863 
L 1009 2863 
L 1009 947 
Q 1009 547 1148 422 
Q 1288 297 1484 297 
Q 1619 297 1789 381 
Q 1959 466 2194 703 
L 2194 2325 
Q 2194 2569 2105 2655 
Q 2016 2741 1734 2747 
L 1734 2863 
L 2709 2863 
z
" id="TimesNewRomanPSMT-75" transform="scale(0.015625)"/>
      <path d="M 3256 -1381 
L -53 -1381 
L -53 -1119 
L 3256 -1119 
L 3256 -1381 
z
" id="TimesNewRomanPSMT-5f" transform="scale(0.015625)"/>
      <path d="M 644 4238 
L 2916 4238 
L 2916 4119 
L 1503 -88 
L 1153 -88 
L 2419 3728 
L 1253 3728 
Q 900 3728 750 3644 
Q 488 3500 328 3200 
L 238 3234 
L 644 4238 
z
" id="TimesNewRomanPSMT-37" transform="scale(0.015625)"/>
     </defs>
     <use xlink:href="#TimesNewRomanPSMT-41"/>
     <use x="72.216797" xlink:href="#TimesNewRomanPSMT-75"/>
     <use x="122.216797" xlink:href="#TimesNewRomanPSMT-74"/>
     <use x="150" xlink:href="#TimesNewRomanPSMT-6f"/>
     <use x="200" xlink:href="#TimesNewRomanPSMT-5f"/>
     <use x="250" xlink:href="#TimesNewRomanPSMT-30"/>
     <use x="300" xlink:href="#TimesNewRomanPSMT-30"/>
     <use x="350" xlink:href="#TimesNewRomanPSMT-30"/>
     <use x="400" xlink:href="#TimesNewRomanPSMT-35"/>
     <use x="450" xlink:href="#TimesNewRomanPSMT-37"/>
    </g>
    <!-- Vs: 273.83m/s -->
    <g transform="translate(80.076875 323.208)scale(0.14 -0.14)">
     <defs>
      <path d="M 903 2950 
Q 1047 2950 1148 2848 
Q 1250 2747 1250 2603 
Q 1250 2459 1148 2357 
Q 1047 2256 903 2256 
Q 759 2256 657 2357 
Q 556 2459 556 2603 
Q 556 2747 657 2848 
Q 759 2950 903 2950 
z
M 897 609 
Q 1044 609 1145 506 
Q 1247 403 1247 259 
Q 1247 116 1144 14 
Q 1041 -88 897 -88 
Q 753 -88 651 14 
Q 550 116 550 259 
Q 550 403 651 506 
Q 753 609 897 609 
z
" id="TimesNewRomanPSMT-3a" transform="scale(0.015625)"/>
      <path d="M 1228 2134 
Q 725 2547 579 2797 
Q 434 3047 434 3316 
Q 434 3728 753 4026 
Q 1072 4325 1600 4325 
Q 2113 4325 2425 4047 
Q 2738 3769 2738 3413 
Q 2738 3175 2569 2928 
Q 2400 2681 1866 2347 
Q 2416 1922 2594 1678 
Q 2831 1359 2831 1006 
Q 2831 559 2490 242 
Q 2150 -75 1597 -75 
Q 994 -75 656 303 
Q 388 606 388 966 
Q 388 1247 577 1523 
Q 766 1800 1228 2134 
z
M 1719 2469 
Q 2094 2806 2194 3001 
Q 2294 3197 2294 3444 
Q 2294 3772 2109 3958 
Q 1925 4144 1606 4144 
Q 1288 4144 1088 3959 
Q 888 3775 888 3528 
Q 888 3366 970 3203 
Q 1053 3041 1206 2894 
L 1719 2469 
z
M 1375 2016 
Q 1116 1797 991 1539 
Q 866 1281 866 981 
Q 866 578 1086 336 
Q 1306 94 1647 94 
Q 1984 94 2187 284 
Q 2391 475 2391 747 
Q 2391 972 2272 1150 
Q 2050 1481 1375 2016 
z
" id="TimesNewRomanPSMT-38" transform="scale(0.015625)"/>
      <path d="M 1794 4444 
L 259 -88 
L 9 -88 
L 1544 4444 
L 1794 4444 
z
" id="TimesNewRomanPSMT-2f" transform="scale(0.015625)"/>
     </defs>
     <use xlink:href="#TimesNewRomanPSMT-56"/>
     <use x="72.216797" xlink:href="#TimesNewRomanPSMT-73"/>
     <use x="111.132812" xlink:href="#TimesNewRomanPSMT-3a"/>
     <use x="138.916016" xlink:href="#TimesNewRomanPSMT-20"/>
     <use x="163.916016" xlink:href="#TimesNewRomanPSMT-32"/>
     <use x="213.916016" xlink:href="#TimesNewRomanPSMT-37"/>
     <use x="263.916016" xlink:href="#TimesNewRomanPSMT-33"/>
     <use x="313.916016" xlink:href="#TimesNewRomanPSMT-2e"/>
     <use x="338.916016" xlink:href="#TimesNewRomanPSMT-38"/>
     <use x="388.916016" xlink:href="#TimesNewRomanPSMT-33"/>
     <use x="438.916016" xlink:href="#TimesNewRomanPSMT-6d"/>
     <use x="516.699219" xlink:href="#TimesNewRomanPSMT-2f"/>
     <use x="544.482422" xlink:href="#TimesNewRomanPSMT-73"/>
    </g>
   </g>
  </g>
 </g>
 <defs>
  <clipPath id="pd3dd3906b1">
   <rect height="332.64" width="334.8" x="63.336875" y="7.2"/>
  </clipPath>
 </defs>
</svg>
