<?xml version="1.0" encoding="utf-8" standalone="no"?>
<!DOCTYPE svg PUBLIC "-//W3C//DTD SVG 1.1//EN"
  "http://www.w3.org/Graphics/SVG/1.1/DTD/svg11.dtd">
<svg height="383.471875pt" version="1.1" viewBox="0 0 421.086875 383.471875" width="421.086875pt" xmlns="http://www.w3.org/2000/svg" xmlns:xlink="http://www.w3.org/1999/xlink">
 <metadata>
  <rdf:RDF xmlns:cc="http://creativecommons.org/ns#" xmlns:dc="http://purl.org/dc/elements/1.1/" xmlns:rdf="http://www.w3.org/1999/02/22-rdf-syntax-ns#">
   <cc:Work>
    <dc:type rdf:resource="http://purl.org/dc/dcmitype/StillImage"/>
    <dc:date>2021-06-11T14:39:39.084045</dc:date>
    <dc:format>image/svg+xml</dc:format>
    <dc:creator>
     <cc:Agent>
      <dc:title>Matplotlib v3.4.2, https://matplotlib.org/</dc:title>
     </cc:Agent>
    </dc:creator>
   </cc:Work>
  </rdf:RDF>
 </metadata>
 <defs>
  <style type="text/css">*{stroke-linecap:butt;stroke-linejoin:round;}</style>
 </defs>
 <g id="figure_1">
  <g id="patch_1">
   <path d="M 0 383.471875 
L 421.086875 383.471875 
L 421.086875 0 
L 0 0 
z
" style="fill:#ffffff;"/>
  </g>
  <g id="axes_1">
   <g id="patch_2">
    <path d="M 63.336875 339.84 
L 398.136875 339.84 
L 398.136875 7.2 
L 63.336875 7.2 
z
" style="fill:#ffffff;"/>
   </g>
   <g id="matplotlib.axis_1">
    <g id="xtick_1">
     <g id="line2d_1">
      <path clip-path="url(#paed991bfbd)" d="M 93.773239 339.84 
L 93.773239 7.2 
" style="fill:none;stroke:#000000;stroke-dasharray:0.5,0.825;stroke-dashoffset:0;stroke-width:0.5;"/>
     </g>
     <g id="line2d_2">
      <defs>
       <path d="M 0 0 
L 0 3.5 
" id="ma7799640c9" style="stroke:#000000;stroke-width:0.8;"/>
      </defs>
      <g>
       <use style="stroke:#000000;stroke-width:0.8;" x="93.773239" xlink:href="#ma7799640c9" y="339.84"/>
      </g>
     </g>
     <g id="text_1">
      <!-- 0.000 -->
      <g transform="translate(78.023239 356.56125)scale(0.14 -0.14)">
       <defs>
        <path d="M 231 2094 
Q 231 2819 450 3342 
Q 669 3866 1031 4122 
Q 1313 4325 1613 4325 
Q 2100 4325 2488 3828 
Q 2972 3213 2972 2159 
Q 2972 1422 2759 906 
Q 2547 391 2217 158 
Q 1888 -75 1581 -75 
Q 975 -75 572 641 
Q 231 1244 231 2094 
z
M 844 2016 
Q 844 1141 1059 588 
Q 1238 122 1591 122 
Q 1759 122 1940 273 
Q 2122 425 2216 781 
Q 2359 1319 2359 2297 
Q 2359 3022 2209 3506 
Q 2097 3866 1919 4016 
Q 1791 4119 1609 4119 
Q 1397 4119 1231 3928 
Q 1006 3669 925 3112 
Q 844 2556 844 2016 
z
" id="TimesNewRomanPSMT-30" transform="scale(0.015625)"/>
        <path d="M 800 606 
Q 947 606 1047 504 
Q 1147 403 1147 259 
Q 1147 116 1045 14 
Q 944 -88 800 -88 
Q 656 -88 554 14 
Q 453 116 453 259 
Q 453 406 554 506 
Q 656 606 800 606 
z
" id="TimesNewRomanPSMT-2e" transform="scale(0.015625)"/>
       </defs>
       <use xlink:href="#TimesNewRomanPSMT-30"/>
       <use x="50" xlink:href="#TimesNewRomanPSMT-2e"/>
       <use x="75" xlink:href="#TimesNewRomanPSMT-30"/>
       <use x="125" xlink:href="#TimesNewRomanPSMT-30"/>
       <use x="175" xlink:href="#TimesNewRomanPSMT-30"/>
      </g>
     </g>
    </g>
    <g id="xtick_2">
     <g id="line2d_3">
      <path clip-path="url(#paed991bfbd)" d="M 154.645966 339.84 
L 154.645966 7.2 
" style="fill:none;stroke:#000000;stroke-dasharray:0.5,0.825;stroke-dashoffset:0;stroke-width:0.5;"/>
     </g>
     <g id="line2d_4">
      <g>
       <use style="stroke:#000000;stroke-width:0.8;" x="154.645966" xlink:href="#ma7799640c9" y="339.84"/>
      </g>
     </g>
     <g id="text_2">
      <!-- 0.001 -->
      <g transform="translate(138.895966 356.56125)scale(0.14 -0.14)">
       <defs>
        <path d="M 750 3822 
L 1781 4325 
L 1884 4325 
L 1884 747 
Q 1884 391 1914 303 
Q 1944 216 2037 169 
Q 2131 122 2419 116 
L 2419 0 
L 825 0 
L 825 116 
Q 1125 122 1212 167 
Q 1300 213 1334 289 
Q 1369 366 1369 747 
L 1369 3034 
Q 1369 3497 1338 3628 
Q 1316 3728 1258 3775 
Q 1200 3822 1119 3822 
Q 1003 3822 797 3725 
L 750 3822 
z
" id="TimesNewRomanPSMT-31" transform="scale(0.015625)"/>
       </defs>
       <use xlink:href="#TimesNewRomanPSMT-30"/>
       <use x="50" xlink:href="#TimesNewRomanPSMT-2e"/>
       <use x="75" xlink:href="#TimesNewRomanPSMT-30"/>
       <use x="125" xlink:href="#TimesNewRomanPSMT-30"/>
       <use x="175" xlink:href="#TimesNewRomanPSMT-31"/>
      </g>
     </g>
    </g>
    <g id="xtick_3">
     <g id="line2d_5">
      <path clip-path="url(#paed991bfbd)" d="M 215.518693 339.84 
L 215.518693 7.2 
" style="fill:none;stroke:#000000;stroke-dasharray:0.5,0.825;stroke-dashoffset:0;stroke-width:0.5;"/>
     </g>
     <g id="line2d_6">
      <g>
       <use style="stroke:#000000;stroke-width:0.8;" x="215.518693" xlink:href="#ma7799640c9" y="339.84"/>
      </g>
     </g>
     <g id="text_3">
      <!-- 0.002 -->
      <g transform="translate(199.768693 356.56125)scale(0.14 -0.14)">
       <defs>
        <path d="M 2934 816 
L 2638 0 
L 138 0 
L 138 116 
Q 1241 1122 1691 1759 
Q 2141 2397 2141 2925 
Q 2141 3328 1894 3587 
Q 1647 3847 1303 3847 
Q 991 3847 742 3664 
Q 494 3481 375 3128 
L 259 3128 
Q 338 3706 661 4015 
Q 984 4325 1469 4325 
Q 1984 4325 2329 3994 
Q 2675 3663 2675 3213 
Q 2675 2891 2525 2569 
Q 2294 2063 1775 1497 
Q 997 647 803 472 
L 1909 472 
Q 2247 472 2383 497 
Q 2519 522 2628 598 
Q 2738 675 2819 816 
L 2934 816 
z
" id="TimesNewRomanPSMT-32" transform="scale(0.015625)"/>
       </defs>
       <use xlink:href="#TimesNewRomanPSMT-30"/>
       <use x="50" xlink:href="#TimesNewRomanPSMT-2e"/>
       <use x="75" xlink:href="#TimesNewRomanPSMT-30"/>
       <use x="125" xlink:href="#TimesNewRomanPSMT-30"/>
       <use x="175" xlink:href="#TimesNewRomanPSMT-32"/>
      </g>
     </g>
    </g>
    <g id="xtick_4">
     <g id="line2d_7">
      <path clip-path="url(#paed991bfbd)" d="M 276.39142 339.84 
L 276.39142 7.2 
" style="fill:none;stroke:#000000;stroke-dasharray:0.5,0.825;stroke-dashoffset:0;stroke-width:0.5;"/>
     </g>
     <g id="line2d_8">
      <g>
       <use style="stroke:#000000;stroke-width:0.8;" x="276.39142" xlink:href="#ma7799640c9" y="339.84"/>
      </g>
     </g>
     <g id="text_4">
      <!-- 0.003 -->
      <g transform="translate(260.64142 356.56125)scale(0.14 -0.14)">
       <defs>
        <path d="M 325 3431 
Q 506 3859 782 4092 
Q 1059 4325 1472 4325 
Q 1981 4325 2253 3994 
Q 2459 3747 2459 3466 
Q 2459 3003 1878 2509 
Q 2269 2356 2469 2072 
Q 2669 1788 2669 1403 
Q 2669 853 2319 450 
Q 1863 -75 997 -75 
Q 569 -75 414 31 
Q 259 138 259 259 
Q 259 350 332 419 
Q 406 488 509 488 
Q 588 488 669 463 
Q 722 447 909 348 
Q 1097 250 1169 231 
Q 1284 197 1416 197 
Q 1734 197 1970 444 
Q 2206 691 2206 1028 
Q 2206 1275 2097 1509 
Q 2016 1684 1919 1775 
Q 1784 1900 1550 2001 
Q 1316 2103 1072 2103 
L 972 2103 
L 972 2197 
Q 1219 2228 1467 2375 
Q 1716 2522 1828 2728 
Q 1941 2934 1941 3181 
Q 1941 3503 1739 3701 
Q 1538 3900 1238 3900 
Q 753 3900 428 3381 
L 325 3431 
z
" id="TimesNewRomanPSMT-33" transform="scale(0.015625)"/>
       </defs>
       <use xlink:href="#TimesNewRomanPSMT-30"/>
       <use x="50" xlink:href="#TimesNewRomanPSMT-2e"/>
       <use x="75" xlink:href="#TimesNewRomanPSMT-30"/>
       <use x="125" xlink:href="#TimesNewRomanPSMT-30"/>
       <use x="175" xlink:href="#TimesNewRomanPSMT-33"/>
      </g>
     </g>
    </g>
    <g id="xtick_5">
     <g id="line2d_9">
      <path clip-path="url(#paed991bfbd)" d="M 337.264148 339.84 
L 337.264148 7.2 
" style="fill:none;stroke:#000000;stroke-dasharray:0.5,0.825;stroke-dashoffset:0;stroke-width:0.5;"/>
     </g>
     <g id="line2d_10">
      <g>
       <use style="stroke:#000000;stroke-width:0.8;" x="337.264148" xlink:href="#ma7799640c9" y="339.84"/>
      </g>
     </g>
     <g id="text_5">
      <!-- 0.004 -->
      <g transform="translate(321.514148 356.56125)scale(0.14 -0.14)">
       <defs>
        <path d="M 2978 1563 
L 2978 1119 
L 2409 1119 
L 2409 0 
L 1894 0 
L 1894 1119 
L 100 1119 
L 100 1519 
L 2066 4325 
L 2409 4325 
L 2409 1563 
L 2978 1563 
z
M 1894 1563 
L 1894 3666 
L 406 1563 
L 1894 1563 
z
" id="TimesNewRomanPSMT-34" transform="scale(0.015625)"/>
       </defs>
       <use xlink:href="#TimesNewRomanPSMT-30"/>
       <use x="50" xlink:href="#TimesNewRomanPSMT-2e"/>
       <use x="75" xlink:href="#TimesNewRomanPSMT-30"/>
       <use x="125" xlink:href="#TimesNewRomanPSMT-30"/>
       <use x="175" xlink:href="#TimesNewRomanPSMT-34"/>
      </g>
     </g>
    </g>
    <g id="xtick_6">
     <g id="line2d_11">
      <path clip-path="url(#paed991bfbd)" d="M 398.136875 339.84 
L 398.136875 7.2 
" style="fill:none;stroke:#000000;stroke-dasharray:0.5,0.825;stroke-dashoffset:0;stroke-width:0.5;"/>
     </g>
     <g id="line2d_12">
      <g>
       <use style="stroke:#000000;stroke-width:0.8;" x="398.136875" xlink:href="#ma7799640c9" y="339.84"/>
      </g>
     </g>
     <g id="text_6">
      <!-- 0.005 -->
      <g transform="translate(382.386875 356.56125)scale(0.14 -0.14)">
       <defs>
        <path d="M 2778 4238 
L 2534 3706 
L 1259 3706 
L 981 3138 
Q 1809 3016 2294 2522 
Q 2709 2097 2709 1522 
Q 2709 1188 2573 903 
Q 2438 619 2231 419 
Q 2025 219 1772 97 
Q 1413 -75 1034 -75 
Q 653 -75 479 54 
Q 306 184 306 341 
Q 306 428 378 495 
Q 450 563 559 563 
Q 641 563 702 538 
Q 763 513 909 409 
Q 1144 247 1384 247 
Q 1750 247 2026 523 
Q 2303 800 2303 1197 
Q 2303 1581 2056 1914 
Q 1809 2247 1375 2428 
Q 1034 2569 447 2591 
L 1259 4238 
L 2778 4238 
z
" id="TimesNewRomanPSMT-35" transform="scale(0.015625)"/>
       </defs>
       <use xlink:href="#TimesNewRomanPSMT-30"/>
       <use x="50" xlink:href="#TimesNewRomanPSMT-2e"/>
       <use x="75" xlink:href="#TimesNewRomanPSMT-30"/>
       <use x="125" xlink:href="#TimesNewRomanPSMT-30"/>
       <use x="175" xlink:href="#TimesNewRomanPSMT-35"/>
      </g>
     </g>
    </g>
    <g id="text_7">
     <!-- Time (sec) -->
     <g transform="translate(200.858906 373.277188)scale(0.14 -0.14)">
      <defs>
       <path d="M 3703 4238 
L 3750 3244 
L 3631 3244 
Q 3597 3506 3538 3619 
Q 3441 3800 3280 3886 
Q 3119 3972 2856 3972 
L 2259 3972 
L 2259 734 
Q 2259 344 2344 247 
Q 2463 116 2709 116 
L 2856 116 
L 2856 0 
L 1059 0 
L 1059 116 
L 1209 116 
Q 1478 116 1591 278 
Q 1659 378 1659 734 
L 1659 3972 
L 1150 3972 
Q 853 3972 728 3928 
Q 566 3869 450 3700 
Q 334 3531 313 3244 
L 194 3244 
L 244 4238 
L 3703 4238 
z
" id="TimesNewRomanPSMT-54" transform="scale(0.015625)"/>
       <path d="M 928 4444 
Q 1059 4444 1151 4351 
Q 1244 4259 1244 4128 
Q 1244 3997 1151 3903 
Q 1059 3809 928 3809 
Q 797 3809 703 3903 
Q 609 3997 609 4128 
Q 609 4259 701 4351 
Q 794 4444 928 4444 
z
M 1188 2947 
L 1188 647 
Q 1188 378 1227 289 
Q 1266 200 1342 156 
Q 1419 113 1622 113 
L 1622 0 
L 231 0 
L 231 113 
Q 441 113 512 153 
Q 584 194 626 287 
Q 669 381 669 647 
L 669 1750 
Q 669 2216 641 2353 
Q 619 2453 572 2492 
Q 525 2531 444 2531 
Q 356 2531 231 2484 
L 188 2597 
L 1050 2947 
L 1188 2947 
z
" id="TimesNewRomanPSMT-69" transform="scale(0.015625)"/>
       <path d="M 1050 2338 
Q 1363 2650 1419 2697 
Q 1559 2816 1721 2881 
Q 1884 2947 2044 2947 
Q 2313 2947 2506 2790 
Q 2700 2634 2766 2338 
Q 3088 2713 3309 2830 
Q 3531 2947 3766 2947 
Q 3994 2947 4170 2830 
Q 4347 2713 4450 2447 
Q 4519 2266 4519 1878 
L 4519 647 
Q 4519 378 4559 278 
Q 4591 209 4675 161 
Q 4759 113 4950 113 
L 4950 0 
L 3538 0 
L 3538 113 
L 3597 113 
Q 3781 113 3884 184 
Q 3956 234 3988 344 
Q 4000 397 4000 647 
L 4000 1878 
Q 4000 2228 3916 2372 
Q 3794 2572 3525 2572 
Q 3359 2572 3192 2489 
Q 3025 2406 2788 2181 
L 2781 2147 
L 2788 2013 
L 2788 647 
Q 2788 353 2820 281 
Q 2853 209 2943 161 
Q 3034 113 3253 113 
L 3253 0 
L 1806 0 
L 1806 113 
Q 2044 113 2133 169 
Q 2222 225 2256 338 
Q 2272 391 2272 647 
L 2272 1878 
Q 2272 2228 2169 2381 
Q 2031 2581 1784 2581 
Q 1616 2581 1450 2491 
Q 1191 2353 1050 2181 
L 1050 647 
Q 1050 366 1089 281 
Q 1128 197 1204 155 
Q 1281 113 1516 113 
L 1516 0 
L 100 0 
L 100 113 
Q 297 113 375 155 
Q 453 197 493 289 
Q 534 381 534 647 
L 534 1741 
Q 534 2213 506 2350 
Q 484 2453 437 2492 
Q 391 2531 309 2531 
Q 222 2531 100 2484 
L 53 2597 
L 916 2947 
L 1050 2947 
L 1050 2338 
z
" id="TimesNewRomanPSMT-6d" transform="scale(0.015625)"/>
       <path d="M 681 1784 
Q 678 1147 991 784 
Q 1303 422 1725 422 
Q 2006 422 2214 576 
Q 2422 731 2563 1106 
L 2659 1044 
Q 2594 616 2278 264 
Q 1963 -88 1488 -88 
Q 972 -88 605 314 
Q 238 716 238 1394 
Q 238 2128 614 2539 
Q 991 2950 1559 2950 
Q 2041 2950 2350 2633 
Q 2659 2316 2659 1784 
L 681 1784 
z
M 681 1966 
L 2006 1966 
Q 1991 2241 1941 2353 
Q 1863 2528 1708 2628 
Q 1553 2728 1384 2728 
Q 1125 2728 920 2526 
Q 716 2325 681 1966 
z
" id="TimesNewRomanPSMT-65" transform="scale(0.015625)"/>
       <path id="TimesNewRomanPSMT-20" transform="scale(0.015625)"/>
       <path d="M 1988 -1253 
L 1988 -1369 
Q 1516 -1131 1200 -813 
Q 750 -359 506 256 
Q 263 872 263 1534 
Q 263 2503 741 3301 
Q 1219 4100 1988 4444 
L 1988 4313 
Q 1603 4100 1356 3731 
Q 1109 3363 987 2797 
Q 866 2231 866 1616 
Q 866 947 969 400 
Q 1050 -31 1165 -292 
Q 1281 -553 1476 -793 
Q 1672 -1034 1988 -1253 
z
" id="TimesNewRomanPSMT-28" transform="scale(0.015625)"/>
       <path d="M 2050 2947 
L 2050 1972 
L 1947 1972 
Q 1828 2431 1642 2597 
Q 1456 2763 1169 2763 
Q 950 2763 815 2647 
Q 681 2531 681 2391 
Q 681 2216 781 2091 
Q 878 1963 1175 1819 
L 1631 1597 
Q 2266 1288 2266 781 
Q 2266 391 1970 151 
Q 1675 -88 1309 -88 
Q 1047 -88 709 6 
Q 606 38 541 38 
Q 469 38 428 -44 
L 325 -44 
L 325 978 
L 428 978 
Q 516 541 762 319 
Q 1009 97 1316 97 
Q 1531 97 1667 223 
Q 1803 350 1803 528 
Q 1803 744 1651 891 
Q 1500 1038 1047 1263 
Q 594 1488 453 1669 
Q 313 1847 313 2119 
Q 313 2472 555 2709 
Q 797 2947 1181 2947 
Q 1350 2947 1591 2875 
Q 1750 2828 1803 2828 
Q 1853 2828 1881 2850 
Q 1909 2872 1947 2947 
L 2050 2947 
z
" id="TimesNewRomanPSMT-73" transform="scale(0.015625)"/>
       <path d="M 2631 1088 
Q 2516 522 2178 217 
Q 1841 -88 1431 -88 
Q 944 -88 581 321 
Q 219 731 219 1428 
Q 219 2103 620 2525 
Q 1022 2947 1584 2947 
Q 2006 2947 2278 2723 
Q 2550 2500 2550 2259 
Q 2550 2141 2473 2067 
Q 2397 1994 2259 1994 
Q 2075 1994 1981 2113 
Q 1928 2178 1911 2362 
Q 1894 2547 1784 2644 
Q 1675 2738 1481 2738 
Q 1169 2738 978 2506 
Q 725 2200 725 1697 
Q 725 1184 976 792 
Q 1228 400 1656 400 
Q 1963 400 2206 609 
Q 2378 753 2541 1131 
L 2631 1088 
z
" id="TimesNewRomanPSMT-63" transform="scale(0.015625)"/>
       <path d="M 144 4313 
L 144 4444 
Q 619 4209 934 3891 
Q 1381 3434 1625 2820 
Q 1869 2206 1869 1541 
Q 1869 572 1392 -226 
Q 916 -1025 144 -1369 
L 144 -1253 
Q 528 -1038 776 -670 
Q 1025 -303 1145 264 
Q 1266 831 1266 1447 
Q 1266 2113 1163 2663 
Q 1084 3094 967 3353 
Q 850 3613 656 3853 
Q 463 4094 144 4313 
z
" id="TimesNewRomanPSMT-29" transform="scale(0.015625)"/>
      </defs>
      <use xlink:href="#TimesNewRomanPSMT-54"/>
      <use x="57.583984" xlink:href="#TimesNewRomanPSMT-69"/>
      <use x="85.367188" xlink:href="#TimesNewRomanPSMT-6d"/>
      <use x="163.150391" xlink:href="#TimesNewRomanPSMT-65"/>
      <use x="207.535156" xlink:href="#TimesNewRomanPSMT-20"/>
      <use x="232.535156" xlink:href="#TimesNewRomanPSMT-28"/>
      <use x="265.835938" xlink:href="#TimesNewRomanPSMT-73"/>
      <use x="304.751953" xlink:href="#TimesNewRomanPSMT-65"/>
      <use x="349.136719" xlink:href="#TimesNewRomanPSMT-63"/>
      <use x="393.521484" xlink:href="#TimesNewRomanPSMT-29"/>
     </g>
    </g>
   </g>
   <g id="matplotlib.axis_2">
    <g id="ytick_1">
     <g id="line2d_13">
      <path clip-path="url(#paed991bfbd)" d="M 63.336875 334.632508 
L 398.136875 334.632508 
" style="fill:none;stroke:#000000;stroke-dasharray:0.5,0.825;stroke-dashoffset:0;stroke-width:0.5;"/>
     </g>
     <g id="line2d_14">
      <defs>
       <path d="M 0 0 
L -3.5 0 
" id="mf20e2669fe" style="stroke:#000000;stroke-width:0.8;"/>
      </defs>
      <g>
       <use style="stroke:#000000;stroke-width:0.8;" x="63.336875" xlink:href="#mf20e2669fe" y="334.632508"/>
      </g>
     </g>
     <g id="text_8">
      <!-- −0.06 -->
      <g transform="translate(23.942188 339.493133)scale(0.14 -0.14)">
       <defs>
        <path d="M 3484 2000 
L 116 2000 
L 116 2256 
L 3484 2256 
L 3484 2000 
z
" id="TimesNewRomanPSMT-2212" transform="scale(0.015625)"/>
        <path d="M 2869 4325 
L 2869 4209 
Q 2456 4169 2195 4045 
Q 1934 3922 1679 3669 
Q 1425 3416 1258 3105 
Q 1091 2794 978 2366 
Q 1428 2675 1881 2675 
Q 2316 2675 2634 2325 
Q 2953 1975 2953 1425 
Q 2953 894 2631 456 
Q 2244 -75 1606 -75 
Q 1172 -75 869 213 
Q 275 772 275 1663 
Q 275 2231 503 2743 
Q 731 3256 1154 3653 
Q 1578 4050 1965 4187 
Q 2353 4325 2688 4325 
L 2869 4325 
z
M 925 2138 
Q 869 1716 869 1456 
Q 869 1156 980 804 
Q 1091 453 1309 247 
Q 1469 100 1697 100 
Q 1969 100 2183 356 
Q 2397 613 2397 1088 
Q 2397 1622 2184 2012 
Q 1972 2403 1581 2403 
Q 1463 2403 1327 2353 
Q 1191 2303 925 2138 
z
" id="TimesNewRomanPSMT-36" transform="scale(0.015625)"/>
       </defs>
       <use xlink:href="#TimesNewRomanPSMT-2212"/>
       <use x="56.396484" xlink:href="#TimesNewRomanPSMT-30"/>
       <use x="106.396484" xlink:href="#TimesNewRomanPSMT-2e"/>
       <use x="131.396484" xlink:href="#TimesNewRomanPSMT-30"/>
       <use x="181.396484" xlink:href="#TimesNewRomanPSMT-36"/>
      </g>
     </g>
    </g>
    <g id="ytick_2">
     <g id="line2d_15">
      <path clip-path="url(#paed991bfbd)" d="M 63.336875 273.663413 
L 398.136875 273.663413 
" style="fill:none;stroke:#000000;stroke-dasharray:0.5,0.825;stroke-dashoffset:0;stroke-width:0.5;"/>
     </g>
     <g id="line2d_16">
      <g>
       <use style="stroke:#000000;stroke-width:0.8;" x="63.336875" xlink:href="#mf20e2669fe" y="273.663413"/>
      </g>
     </g>
     <g id="text_9">
      <!-- −0.04 -->
      <g transform="translate(23.942188 278.524038)scale(0.14 -0.14)">
       <use xlink:href="#TimesNewRomanPSMT-2212"/>
       <use x="56.396484" xlink:href="#TimesNewRomanPSMT-30"/>
       <use x="106.396484" xlink:href="#TimesNewRomanPSMT-2e"/>
       <use x="131.396484" xlink:href="#TimesNewRomanPSMT-30"/>
       <use x="181.396484" xlink:href="#TimesNewRomanPSMT-34"/>
      </g>
     </g>
    </g>
    <g id="ytick_3">
     <g id="line2d_17">
      <path clip-path="url(#paed991bfbd)" d="M 63.336875 212.694318 
L 398.136875 212.694318 
" style="fill:none;stroke:#000000;stroke-dasharray:0.5,0.825;stroke-dashoffset:0;stroke-width:0.5;"/>
     </g>
     <g id="line2d_18">
      <g>
       <use style="stroke:#000000;stroke-width:0.8;" x="63.336875" xlink:href="#mf20e2669fe" y="212.694318"/>
      </g>
     </g>
     <g id="text_10">
      <!-- −0.02 -->
      <g transform="translate(23.942188 217.554943)scale(0.14 -0.14)">
       <use xlink:href="#TimesNewRomanPSMT-2212"/>
       <use x="56.396484" xlink:href="#TimesNewRomanPSMT-30"/>
       <use x="106.396484" xlink:href="#TimesNewRomanPSMT-2e"/>
       <use x="131.396484" xlink:href="#TimesNewRomanPSMT-30"/>
       <use x="181.396484" xlink:href="#TimesNewRomanPSMT-32"/>
      </g>
     </g>
    </g>
    <g id="ytick_4">
     <g id="line2d_19">
      <path clip-path="url(#paed991bfbd)" d="M 63.336875 151.725224 
L 398.136875 151.725224 
" style="fill:none;stroke:#000000;stroke-dasharray:0.5,0.825;stroke-dashoffset:0;stroke-width:0.5;"/>
     </g>
     <g id="line2d_20">
      <g>
       <use style="stroke:#000000;stroke-width:0.8;" x="63.336875" xlink:href="#mf20e2669fe" y="151.725224"/>
      </g>
     </g>
     <g id="text_11">
      <!-- 0.00 -->
      <g transform="translate(31.836875 156.585849)scale(0.14 -0.14)">
       <use xlink:href="#TimesNewRomanPSMT-30"/>
       <use x="50" xlink:href="#TimesNewRomanPSMT-2e"/>
       <use x="75" xlink:href="#TimesNewRomanPSMT-30"/>
       <use x="125" xlink:href="#TimesNewRomanPSMT-30"/>
      </g>
     </g>
    </g>
    <g id="ytick_5">
     <g id="line2d_21">
      <path clip-path="url(#paed991bfbd)" d="M 63.336875 90.756129 
L 398.136875 90.756129 
" style="fill:none;stroke:#000000;stroke-dasharray:0.5,0.825;stroke-dashoffset:0;stroke-width:0.5;"/>
     </g>
     <g id="line2d_22">
      <g>
       <use style="stroke:#000000;stroke-width:0.8;" x="63.336875" xlink:href="#mf20e2669fe" y="90.756129"/>
      </g>
     </g>
     <g id="text_12">
      <!-- 0.02 -->
      <g transform="translate(31.836875 95.616754)scale(0.14 -0.14)">
       <use xlink:href="#TimesNewRomanPSMT-30"/>
       <use x="50" xlink:href="#TimesNewRomanPSMT-2e"/>
       <use x="75" xlink:href="#TimesNewRomanPSMT-30"/>
       <use x="125" xlink:href="#TimesNewRomanPSMT-32"/>
      </g>
     </g>
    </g>
    <g id="ytick_6">
     <g id="line2d_23">
      <path clip-path="url(#paed991bfbd)" d="M 63.336875 29.787034 
L 398.136875 29.787034 
" style="fill:none;stroke:#000000;stroke-dasharray:0.5,0.825;stroke-dashoffset:0;stroke-width:0.5;"/>
     </g>
     <g id="line2d_24">
      <g>
       <use style="stroke:#000000;stroke-width:0.8;" x="63.336875" xlink:href="#mf20e2669fe" y="29.787034"/>
      </g>
     </g>
     <g id="text_13">
      <!-- 0.04 -->
      <g transform="translate(31.836875 34.647659)scale(0.14 -0.14)">
       <use xlink:href="#TimesNewRomanPSMT-30"/>
       <use x="50" xlink:href="#TimesNewRomanPSMT-2e"/>
       <use x="75" xlink:href="#TimesNewRomanPSMT-30"/>
       <use x="125" xlink:href="#TimesNewRomanPSMT-34"/>
      </g>
     </g>
    </g>
    <g id="text_14">
     <!-- Volatage (V) -->
     <g transform="translate(16.92125 209.352344)rotate(-90)scale(0.14 -0.14)">
      <defs>
       <path d="M 4544 4238 
L 4544 4122 
Q 4319 4081 4203 3978 
Q 4038 3825 3909 3509 
L 2431 -97 
L 2316 -97 
L 728 3556 
Q 606 3838 556 3900 
Q 478 3997 364 4051 
Q 250 4106 56 4122 
L 56 4238 
L 1788 4238 
L 1788 4122 
Q 1494 4094 1406 4022 
Q 1319 3950 1319 3838 
Q 1319 3681 1463 3350 
L 2541 866 
L 3541 3319 
Q 3688 3681 3688 3822 
Q 3688 3913 3597 3995 
Q 3506 4078 3291 4113 
Q 3275 4116 3238 4122 
L 3238 4238 
L 4544 4238 
z
" id="TimesNewRomanPSMT-56" transform="scale(0.015625)"/>
       <path d="M 1600 2947 
Q 2250 2947 2644 2453 
Q 2978 2031 2978 1484 
Q 2978 1100 2793 706 
Q 2609 313 2286 112 
Q 1963 -88 1566 -88 
Q 919 -88 538 428 
Q 216 863 216 1403 
Q 216 1797 411 2186 
Q 606 2575 925 2761 
Q 1244 2947 1600 2947 
z
M 1503 2744 
Q 1338 2744 1170 2645 
Q 1003 2547 900 2300 
Q 797 2053 797 1666 
Q 797 1041 1045 587 
Q 1294 134 1700 134 
Q 2003 134 2200 384 
Q 2397 634 2397 1244 
Q 2397 2006 2069 2444 
Q 1847 2744 1503 2744 
z
" id="TimesNewRomanPSMT-6f" transform="scale(0.015625)"/>
       <path d="M 1184 4444 
L 1184 647 
Q 1184 378 1223 290 
Q 1263 203 1344 158 
Q 1425 113 1647 113 
L 1647 0 
L 244 0 
L 244 113 
Q 441 113 512 153 
Q 584 194 625 287 
Q 666 381 666 647 
L 666 3247 
Q 666 3731 644 3842 
Q 622 3953 573 3993 
Q 525 4034 450 4034 
Q 369 4034 244 3984 
L 191 4094 
L 1044 4444 
L 1184 4444 
z
" id="TimesNewRomanPSMT-6c" transform="scale(0.015625)"/>
       <path d="M 1822 413 
Q 1381 72 1269 19 
Q 1100 -59 909 -59 
Q 613 -59 420 144 
Q 228 347 228 678 
Q 228 888 322 1041 
Q 450 1253 767 1440 
Q 1084 1628 1822 1897 
L 1822 2009 
Q 1822 2438 1686 2597 
Q 1550 2756 1291 2756 
Q 1094 2756 978 2650 
Q 859 2544 859 2406 
L 866 2225 
Q 866 2081 792 2003 
Q 719 1925 600 1925 
Q 484 1925 411 2006 
Q 338 2088 338 2228 
Q 338 2497 613 2722 
Q 888 2947 1384 2947 
Q 1766 2947 2009 2819 
Q 2194 2722 2281 2516 
Q 2338 2381 2338 1966 
L 2338 994 
Q 2338 584 2353 492 
Q 2369 400 2405 369 
Q 2441 338 2488 338 
Q 2538 338 2575 359 
Q 2641 400 2828 588 
L 2828 413 
Q 2478 -56 2159 -56 
Q 2006 -56 1915 50 
Q 1825 156 1822 413 
z
M 1822 616 
L 1822 1706 
Q 1350 1519 1213 1441 
Q 966 1303 859 1153 
Q 753 1003 753 825 
Q 753 600 887 451 
Q 1022 303 1197 303 
Q 1434 303 1822 616 
z
" id="TimesNewRomanPSMT-61" transform="scale(0.015625)"/>
       <path d="M 1031 3803 
L 1031 2863 
L 1700 2863 
L 1700 2644 
L 1031 2644 
L 1031 788 
Q 1031 509 1111 412 
Q 1191 316 1316 316 
Q 1419 316 1516 380 
Q 1613 444 1666 569 
L 1788 569 
Q 1678 263 1478 108 
Q 1278 -47 1066 -47 
Q 922 -47 784 33 
Q 647 113 581 261 
Q 516 409 516 719 
L 516 2644 
L 63 2644 
L 63 2747 
Q 234 2816 414 2980 
Q 594 3144 734 3369 
Q 806 3488 934 3803 
L 1031 3803 
z
" id="TimesNewRomanPSMT-74" transform="scale(0.015625)"/>
       <path d="M 966 1044 
Q 703 1172 562 1401 
Q 422 1631 422 1909 
Q 422 2334 742 2640 
Q 1063 2947 1563 2947 
Q 1972 2947 2272 2747 
L 2878 2747 
Q 3013 2747 3034 2739 
Q 3056 2731 3066 2713 
Q 3084 2684 3084 2613 
Q 3084 2531 3069 2500 
Q 3059 2484 3036 2475 
Q 3013 2466 2878 2466 
L 2506 2466 
Q 2681 2241 2681 1891 
Q 2681 1491 2375 1206 
Q 2069 922 1553 922 
Q 1341 922 1119 984 
Q 981 866 932 777 
Q 884 688 884 625 
Q 884 572 936 522 
Q 988 472 1138 450 
Q 1225 438 1575 428 
Q 2219 413 2409 384 
Q 2700 344 2873 169 
Q 3047 -6 3047 -263 
Q 3047 -616 2716 -925 
Q 2228 -1381 1444 -1381 
Q 841 -1381 425 -1109 
Q 191 -953 191 -784 
Q 191 -709 225 -634 
Q 278 -519 444 -313 
Q 466 -284 763 25 
Q 600 122 533 198 
Q 466 275 466 372 
Q 466 481 555 628 
Q 644 775 966 1044 
z
M 1509 2797 
Q 1278 2797 1122 2612 
Q 966 2428 966 2047 
Q 966 1553 1178 1281 
Q 1341 1075 1591 1075 
Q 1828 1075 1981 1253 
Q 2134 1431 2134 1813 
Q 2134 2309 1919 2591 
Q 1759 2797 1509 2797 
z
M 934 0 
Q 788 -159 713 -296 
Q 638 -434 638 -550 
Q 638 -700 819 -813 
Q 1131 -1006 1722 -1006 
Q 2284 -1006 2551 -807 
Q 2819 -609 2819 -384 
Q 2819 -222 2659 -153 
Q 2497 -84 2016 -72 
Q 1313 -53 934 0 
z
" id="TimesNewRomanPSMT-67" transform="scale(0.015625)"/>
      </defs>
      <use xlink:href="#TimesNewRomanPSMT-56"/>
      <use x="59.341797" xlink:href="#TimesNewRomanPSMT-6f"/>
      <use x="109.341797" xlink:href="#TimesNewRomanPSMT-6c"/>
      <use x="137.125" xlink:href="#TimesNewRomanPSMT-61"/>
      <use x="181.509766" xlink:href="#TimesNewRomanPSMT-74"/>
      <use x="209.292969" xlink:href="#TimesNewRomanPSMT-61"/>
      <use x="253.677734" xlink:href="#TimesNewRomanPSMT-67"/>
      <use x="303.677734" xlink:href="#TimesNewRomanPSMT-65"/>
      <use x="348.0625" xlink:href="#TimesNewRomanPSMT-20"/>
      <use x="373.0625" xlink:href="#TimesNewRomanPSMT-28"/>
      <use x="406.363281" xlink:href="#TimesNewRomanPSMT-56"/>
      <use x="478.580078" xlink:href="#TimesNewRomanPSMT-29"/>
     </g>
    </g>
   </g>
   <g id="LineCollection_1">
    <path clip-path="url(#paed991bfbd)" d="M 78.555057 151.725224 
L 382.918693 151.725224 
" style="fill:none;stroke:#1f77b4;stroke-width:1.5;"/>
   </g>
   <g id="line2d_25">
    <path clip-path="url(#paed991bfbd)" d="M 78.555057 151.720194 
L 88.842548 151.643982 
L 88.872984 151.605877 
L 88.933857 151.682088 
L 88.964293 151.720194 
L 89.025166 151.643982 
L 96.542948 151.605877 
L 96.573384 151.529665 
L 96.634257 151.605877 
L 98.156075 151.567771 
L 98.186511 151.49156 
L 98.27782 151.529665 
L 98.430002 151.567771 
L 109.174039 151.643982 
L 109.265348 151.643982 
L 109.387093 151.643982 
L 110.148002 151.720194 
L 110.208875 151.643982 
L 110.239311 151.720194 
L 110.391493 151.682088 
L 110.513239 151.758299 
L 110.634984 151.682088 
L 111.608948 151.720194 
L 111.730693 151.796405 
L 112.67422 151.834511 
L 112.704657 151.948828 
L 112.795966 151.872617 
L 112.917711 151.872617 
L 113.34382 151.948828 
L 113.496002 151.986934 
L 114.165602 152.063145 
L 114.287348 152.139356 
L 114.317784 152.101251 
L 114.652584 152.177462 
L 114.804766 152.215568 
L 115.139566 152.253673 
L 115.230875 152.329885 
L 115.261311 152.291779 
L 115.474366 152.406096 
L 115.596111 152.406096 
L 115.809166 152.482308 
L 115.961348 152.520413 
L 116.235275 152.596625 
L 116.387457 152.63473 
L 116.417893 152.558519 
L 116.478766 152.596625 
L 116.69182 152.710942 
L 117.148366 152.787153 
L 117.330984 152.863364 
L 117.970148 152.939576 
L 118.183202 153.053893 
L 118.274511 152.977681 
L 118.304948 153.053893 
L 118.578875 153.130104 
L 118.670184 153.16821 
L 118.70062 153.130104 
L 119.12673 153.16821 
L 119.218039 153.244421 
L 119.248475 153.206316 
L 119.46153 153.320633 
L 119.583275 153.320633 
L 119.79633 153.43495 
L 120.192002 153.511161 
L 120.37462 153.587372 
L 120.496366 153.663584 
L 120.770293 153.854112 
L 120.983348 153.930324 
L 121.287711 154.197063 
L 121.318148 154.158958 
L 121.348584 154.235169 
L 121.622511 154.501909 
L 121.652948 154.463803 
L 121.71382 154.540014 
L 122.839966 156.102348 
L 123.357384 157.131201 
L 123.570439 157.550364 
L 125.06182 161.55146 
L 127.466293 171.00167 
L 127.892402 173.021272 
L 128.50113 175.726774 
L 129.596839 180.680515 
L 130.357748 183.957603 
L 130.814293 185.710464 
L 131.940439 189.597244 
L 131.970875 189.597244 
L 132.153493 190.054512 
L 132.305675 190.397463 
L 132.51873 190.816626 
L 132.549166 190.77852 
L 132.579602 190.854731 
L 132.823093 191.197683 
L 133.279639 191.616845 
L 133.401384 191.616845 
L 133.675311 191.540634 
L 133.918802 191.388211 
L 134.162293 191.312 
L 134.466657 191.083366 
L 134.557966 191.04526 
L 134.77102 190.740414 
L 134.831893 190.664203 
L 135.288439 189.940195 
L 135.53193 189.406715 
L 135.714548 189.025659 
L 136.079784 187.844382 
L 137.692911 179.232497 
L 138.758184 171.8781 
L 140.371311 156.864461 
L 144.875893 99.096247 
L 146.215093 80.61499 
L 148.984802 47.272513 
L 150.232693 35.840808 
L 151.571893 28.143466 
L 152.484984 25.133117 
L 152.698039 24.752054 
L 152.880657 24.447215 
L 152.971966 24.371 
L 153.124148 24.218575 
L 153.18502 24.180463 
L 153.27633 24.104264 
L 153.306766 24.142363 
L 153.367639 24.028049 
L 153.428511 24.142363 
L 153.702439 24.218575 
L 153.915493 24.599628 
L 153.976366 24.63774 
L 154.311166 25.514168 
L 154.402475 25.704693 
L 154.828584 27.305138 
L 155.254693 29.286634 
L 157.050439 43.576262 
L 158.389639 59.809287 
L 160.88542 102.182801 
L 162.194184 128.818678 
L 164.507348 180.413773 
L 166.455275 224.120994 
L 169.407602 281.088986 
L 170.503311 297.169596 
L 172.238184 315.536527 
L 173.120839 321.3286 
L 173.820875 323.576833 
L 174.003493 323.957886 
L 174.246984 324.491363 
L 174.27742 324.453263 
L 174.307857 324.529475 
L 174.551348 324.72 
L 174.642657 324.6819 
L 174.673093 324.72 
L 174.855711 324.643789 
L 175.312257 324.224623 
L 175.342693 324.262735 
L 175.37313 324.186523 
L 175.738366 323.576833 
L 176.103602 322.395553 
L 177.686293 313.974197 
L 178.690693 305.629052 
L 179.96902 291.796689 
L 182.890911 250.032856 
L 188.826002 147.87152 
L 189.67822 134.610742 
L 190.77393 118.492037 
L 193.756693 82.520271 
L 195.552439 67.735266 
L 195.948111 64.572491 
L 197.622111 52.797835 
L 198.413457 49.406435 
L 199.05262 46.700925 
L 199.691784 44.833753 
L 200.544002 42.052032 
L 200.909239 41.404241 
L 201.15273 40.946964 
L 201.426657 40.337276 
L 201.700584 39.91811 
L 201.913639 39.841911 
L 202.035384 39.803796 
L 202.187566 39.841911 
L 202.49193 39.765697 
L 202.704984 39.651374 
L 202.918039 39.613271 
L 203.009348 39.53706 
L 203.039784 39.575159 
L 203.222402 39.651374 
L 203.313711 39.689485 
L 203.465893 39.841911 
L 203.587639 39.91811 
L 203.770257 39.994325 
L 204.105057 40.070536 
L 204.83553 41.137501 
L 205.109457 41.747192 
L 207.240002 47.348725 
L 209.918402 57.789679 
L 210.374948 59.999812 
L 210.588002 60.800034 
L 212.140257 67.049364 
L 214.331675 78.55728 
L 214.909966 82.063 
L 215.21433 84.12071 
L 215.762184 88.236124 
L 219.353675 116.053273 
L 220.388511 125.312955 
L 221.666839 137.430562 
L 226.475784 192.836227 
L 228.149784 214.365939 
L 231.010802 248.813477 
L 232.015202 258.949589 
L 234.084875 276.135253 
L 234.906657 280.593621 
L 235.515384 283.108593 
L 235.97193 284.404186 
L 236.002366 284.404186 
L 236.154548 284.670923 
L 236.184984 284.632823 
L 236.21542 284.670923 
L 236.398039 284.861451 
L 236.611093 284.975774 
L 237.128511 284.937663 
L 237.372002 284.442286 
L 237.798111 283.108593 
L 238.102475 282.117839 
L 238.406839 281.088986 
L 239.776475 273.734595 
L 240.872184 264.665436 
L 242.454875 247.708409 
L 243.367966 236.619661 
L 244.615857 221.339279 
L 246.502911 193.826975 
L 251.342293 122.645557 
L 253.990257 97.152851 
L 255.72513 86.940531 
L 257.094766 82.17732 
L 257.338257 81.720049 
L 257.703493 81.072252 
L 258.038293 80.805516 
L 258.160039 80.729301 
L 258.31222 80.576881 
L 258.342657 80.61499 
L 258.40353 80.538776 
L 259.042693 79.890979 
L 259.164439 79.852873 
L 259.286184 79.776662 
L 259.529675 79.700448 
L 259.712293 79.624242 
L 259.74273 79.662342 
L 259.773166 79.586137 
L 260.047093 79.395602 
L 260.138402 79.395602 
L 260.168839 79.319391 
L 260.229711 79.357497 
L 260.290584 79.395602 
L 260.32102 79.357497 
L 260.41233 79.319391 
L 260.442766 79.357497 
L 260.594948 79.395602 
L 260.838439 79.471817 
L 261.021057 79.548028 
L 261.051493 79.509922 
L 261.112366 79.586137 
L 261.294984 79.624242 
L 261.447166 79.776662 
L 261.568911 79.814768 
L 261.781966 80.081508 
L 261.842839 80.119613 
L 262.055893 80.424459 
L 262.08633 80.424459 
L 262.268948 80.691195 
L 262.573311 81.186572 
L 262.877675 81.720049 
L 263.577711 83.206174 
L 263.729893 83.549125 
L 265.43433 88.083698 
L 267.656184 96.848009 
L 268.11273 99.058141 
L 268.477966 100.849102 
L 269.11713 104.202403 
L 269.391057 105.650422 
L 270.578075 112.128388 
L 271.278111 116.548647 
L 271.612911 118.720671 
L 272.678184 125.922645 
L 273.04342 128.247091 
L 273.621711 131.752816 
L 274.443493 136.211181 
L 276.14793 144.213374 
L 277.791493 150.805657 
L 278.187166 152.253673 
L 278.49153 153.282527 
L 278.82633 154.425697 
L 280.74382 158.960274 
L 280.956875 159.341331 
L 281.200366 159.836705 
L 281.656911 160.713136 
L 281.717784 160.751241 
L 281.961275 161.094192 
L 282.052584 161.170404 
L 282.326511 161.589566 
L 282.935239 162.237362 
L 283.056984 162.237362 
L 283.239602 162.35168 
L 283.391784 162.313574 
L 283.604839 162.427891 
L 283.635275 162.389785 
L 283.696148 162.465997 
L 284.244002 162.427891 
L 284.396184 162.313574 
L 284.548366 162.237362 
L 284.76142 162.123046 
L 285.004911 162.046834 
L 285.217966 161.780094 
L 285.248402 161.8182 
L 285.278839 161.741988 
L 286.009311 160.67503 
L 286.465857 159.798599 
L 286.648475 159.455648 
L 286.922402 158.845957 
L 287.957239 156.52151 
L 288.10942 156.216665 
L 288.352911 155.683185 
L 288.53553 155.302128 
L 288.77902 154.806754 
L 289.144257 154.158958 
L 289.235566 154.082746 
L 290.331275 152.863364 
L 291.061748 152.939576 
L 291.274802 153.053893 
L 291.305239 152.977681 
L 291.335675 153.091998 
L 291.366111 153.053893 
L 291.822657 153.777901 
L 292.431384 155.073494 
L 292.46182 155.073494 
L 292.674875 155.606974 
L 293.13142 157.016884 
L 293.922766 159.569965 
L 294.13582 160.370184 
L 294.927166 163.837801 
L 295.079348 164.447493 
L 295.627202 167.191101 
L 301.014439 193.636446 
L 301.16662 194.284243 
L 301.623166 196.037105 
L 302.018839 197.294592 
L 303.418911 202.134011 
L 303.966766 203.772555 
L 304.301566 204.648989 
L 304.362439 204.725204 
L 304.60593 205.220574 
L 304.879857 205.639737 
L 305.245093 206.249428 
L 305.51902 206.66859 
L 305.61033 206.744805 
L 305.762511 206.897225 
L 306.127748 206.973436 
L 306.219057 206.973436 
L 306.371239 206.93533 
L 306.888657 206.859116 
L 307.071275 206.66859 
L 307.132148 206.592379 
L 307.436511 206.097008 
L 307.649566 205.677843 
L 308.166984 204.915729 
L 308.53222 203.963087 
L 308.62353 203.734456 
L 308.86702 203.010445 
L 308.988766 202.705602 
L 310.784511 195.541731 
L 311.362802 192.150325 
L 315.56302 159.798599 
L 316.110875 155.416445 
L 318.819711 135.906335 
L 321.376366 120.58785 
L 321.741602 118.834988 
L 322.319893 115.900851 
L 325.485275 100.54426 
L 325.576584 100.27752 
L 326.550548 97.000431 
L 326.70273 96.65748 
L 327.95062 93.799551 
L 328.194111 93.380394 
L 328.407166 92.923123 
L 328.468039 92.846912 
L 329.228948 92.046695 
L 330.111602 92.122901 
L 330.29422 92.313432 
L 330.38553 92.389647 
L 332.181275 94.790299 
L 332.668257 95.742947 
L 332.72913 95.819152 
L 332.97262 96.276423 
L 333.30742 97.19096 
L 333.337857 97.19096 
L 333.611784 98.029288 
L 337.41633 112.738079 
L 337.872875 114.910103 
L 339.75993 124.893792 
L 340.368657 128.018459 
L 345.299348 152.177462 
L 345.45153 152.825259 
L 346.060257 155.530762 
L 347.764693 163.532956 
L 347.916875 164.180753 
L 350.199602 172.335369 
L 350.290911 172.602109 
L 351.021384 174.926555 
L 352.330148 177.936905 
L 352.360584 177.936905 
L 352.543202 178.203643 
L 359.17833 186.358261 
L 359.300075 186.434472 
L 359.665311 186.739318 
L 359.75662 186.815529 
L 360.243602 187.272797 
L 360.274039 187.234691 
L 360.334911 187.310903 
L 360.882766 187.387114 
L 361.004511 187.42522 
L 361.126257 187.42522 
L 361.674111 187.349009 
L 361.917602 187.15848 
L 361.948039 187.196586 
L 362.008911 187.120374 
L 362.130657 187.044163 
L 362.43502 186.815529 
L 362.465457 186.853635 
L 362.495893 186.815529 
L 362.648075 186.701212 
L 364.748184 184.186237 
L 364.77862 184.224342 
L 364.809057 184.148131 
L 365.509093 183.424122 
L 365.569966 183.386019 
L 365.722148 183.157384 
L 365.813457 183.081171 
L 366.696111 182.12853 
L 366.817857 182.052317 
L 367.45702 181.404521 
L 367.578766 181.328311 
L 367.974439 180.98536 
L 368.157057 180.909147 
L 368.278802 180.794831 
L 368.309239 180.832937 
L 368.370111 180.756725 
L 368.46142 180.680515 
L 368.948402 180.223245 
L 369.039711 180.147035 
L 369.252766 180.032719 
L 369.496257 179.956506 
L 369.80062 179.727871 
L 369.89193 179.689767 
L 370.044111 179.537342 
L 370.074548 179.537342 
L 370.22673 179.346816 
L 370.348475 179.270603 
L 370.500657 179.118181 
L 370.56153 179.156287 
L 370.591966 179.080074 
L 370.89633 178.851442 
L 370.987639 178.77523 
L 371.13982 178.584701 
L 371.170257 178.622807 
L 371.23113 178.546595 
L 371.80942 177.975011 
L 371.839857 177.975011 
L 371.992039 177.822588 
L 372.083348 177.746376 
L 372.600766 177.251002 
L 372.631202 177.251002 
L 372.783384 177.060473 
L 373.23993 176.641311 
L 373.361675 176.565099 
L 374.640002 174.812238 
L 375.005239 174.164442 
L 375.24873 173.707173 
L 376.16182 171.687573 
L 376.283566 171.382727 
L 377.318402 168.5248 
L 377.714075 167.457841 
L 378.201057 165.97172 
L 378.657602 164.638021 
L 378.748911 164.371281 
L 382.157784 151.148609 
L 382.918693 147.642886 
L 382.918693 147.642886 
" style="fill:none;stroke:#0000ff;stroke-linecap:square;stroke-width:1.5;"/>
   </g>
   <g id="line2d_26">
    <path clip-path="url(#paed991bfbd)" d="M 78.555057 151.593531 
L 78.707239 151.574478 
L 78.828984 151.593531 
L 79.042039 151.574478 
L 79.255093 151.593531 
L 81.842184 151.669742 
L 81.994366 151.707848 
L 84.185784 151.803112 
L 84.398839 151.822165 
L 86.133711 151.898376 
L 86.255457 151.898376 
L 93.01233 151.974587 
L 93.134075 151.99364 
L 93.316693 151.974587 
L 93.529748 151.99364 
L 93.712366 151.99364 
L 95.508111 152.069852 
L 95.660293 152.088904 
L 95.873348 152.107957 
L 99.860511 152.203222 
L 100.164875 152.279433 
L 100.530111 152.374697 
L 100.743166 152.489014 
L 100.95622 152.565225 
L 101.260584 152.79386 
L 101.412766 152.870071 
L 101.62582 153.060599 
L 101.838875 153.270181 
L 102.05193 153.517868 
L 102.904148 154.756302 
L 103.756366 156.585375 
L 105.64342 162.834707 
L 110.148002 182.097131 
L 111.517639 186.041069 
L 112.643784 187.9273 
L 112.735093 188.022565 
L 113.252511 188.232146 
L 113.67862 188.136882 
L 114.34822 187.622455 
L 115.10913 185.964858 
L 115.900475 183.735675 
L 117.209239 177.524448 
L 118.213639 171.23701 
L 119.248475 164.073142 
L 121.074657 149.554876 
L 123.022584 132.312055 
L 125.335748 112.992472 
L 127.253239 101.675084 
L 128.196766 96.949976 
L 128.562002 95.463858 
L 129.41422 92.224872 
L 129.870766 91.157918 
L 130.296875 90.45296 
L 130.631675 89.862319 
L 130.692548 89.82422 
L 130.936039 89.500318 
L 131.08822 89.424107 
L 131.301275 89.328843 
L 131.84913 88.890627 
L 132.336111 88.204725 
L 132.640475 87.995144 
L 132.883966 88.033249 
L 133.644875 87.937988 
L 133.827493 87.918932 
L 134.040548 88.014193 
L 134.466657 88.39525 
L 134.740584 88.585782 
L 135.623239 88.681046 
L 135.988475 89.138317 
L 137.20593 89.995695 
L 138.54513 92.739298 
L 139.519093 97.064296 
L 140.401748 101.427394 
L 141.071348 104.93312 
L 142.380111 112.935314 
L 143.597566 122.080678 
L 145.058511 133.912492 
L 147.49342 154.622932 
L 150.963166 186.174439 
L 153.032839 202.140721 
L 153.976366 207.875629 
L 155.072075 212.810309 
L 155.893857 215.020442 
L 156.776511 216.468461 
L 157.29393 216.678036 
L 158.054839 216.601831 
L 158.572257 215.782559 
L 160.094075 212.695995 
L 160.97673 210.200076 
L 162.620293 203.626842 
L 163.959493 196.405815 
L 166.394402 180.382374 
L 167.277057 174.780839 
L 167.885784 171.275116 
L 168.524948 168.455296 
L 169.407602 165.082943 
L 170.107639 163.25387 
L 170.898984 161.97733 
L 171.233784 161.882065 
L 171.659893 161.786801 
L 171.872948 161.767749 
L 172.055566 161.84396 
L 172.60342 162.701337 
L 173.546948 164.682834 
L 175.03833 169.693731 
L 176.681893 178.438986 
L 180.212511 201.988301 
L 182.099566 210.905028 
L 183.499639 215.782559 
L 184.017057 216.544666 
L 184.108366 216.63993 
L 184.473602 216.944782 
L 184.930148 216.868568 
L 185.508439 215.973084 
L 186.056293 214.315484 
L 186.512839 212.200621 
L 188.09553 201.6644 
L 189.76953 186.079175 
L 190.956548 171.50375 
L 195.522002 110.153599 
L 197.348184 89.748005 
L 200.026584 64.026665 
L 201.517966 52.785485 
L 202.552802 47.565016 
L 204.287675 42.477904 
L 204.683348 42.154009 
L 204.865966 42.173065 
L 205.018148 42.192108 
L 205.383384 42.535059 
L 205.718184 43.373387 
L 206.205166 45.259613 
L 208.213966 54.557412 
L 209.796657 64.10288 
L 210.740184 70.67611 
L 215.823057 109.696331 
L 217.46662 123.166689 
L 218.318839 129.778027 
L 219.688475 140.028456 
L 220.47982 145.134617 
L 223.15822 161.215216 
L 224.16262 166.797698 
L 225.380075 173.751985 
L 227.358439 183.106932 
L 228.788948 188.879942 
L 229.975966 192.938198 
L 232.502184 199.530481 
L 232.928293 200.730807 
L 233.689202 202.921884 
L 234.145748 204.427059 
L 234.693602 206.065609 
L 235.424075 208.390056 
L 236.154548 210.314387 
L 236.97633 212.086307 
L 237.402439 212.886524 
L 237.98073 213.782007 
L 238.345966 214.239278 
L 239.198184 214.658435 
L 240.90262 214.753705 
L 241.054802 214.772755 
L 241.389602 214.868016 
L 241.541784 214.868016 
L 241.754839 214.906125 
L 241.937457 214.887075 
L 242.150511 214.906125 
L 242.972293 215.001386 
L 243.185348 215.096656 
L 243.67233 215.496763 
L 244.068002 216.030239 
L 244.25062 216.25888 
L 246.25942 220.240921 
L 246.68553 221.212616 
L 246.92902 221.688937 
L 247.68993 223.327481 
L 248.116039 224.318229 
L 249.911784 227.461948 
L 250.124839 227.709635 
L 251.677093 229.481549 
L 252.133639 229.653025 
L 252.651057 229.55776 
L 252.985857 229.252915 
L 254.659857 225.899615 
L 255.359893 223.365587 
L 256.242548 219.002483 
L 257.246948 212.715048 
L 258.129602 205.875078 
L 259.377493 193.967051 
L 260.929748 175.238108 
L 262.268948 156.185266 
L 263.364657 138.84718 
L 266.01262 95.959232 
L 268.051857 64.560148 
L 269.056257 51.68043 
L 270.091093 40.648834 
L 270.943311 33.656438 
L 271.856402 28.112061 
L 272.46513 25.273181 
L 273.012984 23.634637 
L 273.743457 22.472414 
L 273.895639 22.396214 
L 274.04782 22.32 
L 274.80873 23.406012 
L 275.874002 27.083207 
L 277.000148 33.275387 
L 277.639311 37.96238 
L 279.008948 49.965674 
L 280.956875 70.580846 
L 283.726584 103.008783 
L 284.883166 116.783988 
L 286.983275 140.46667 
L 291.031311 182.36387 
L 292.035711 191.318706 
L 292.88793 198.292046 
L 294.318439 208.199524 
L 294.927166 211.629036 
L 296.90553 221.003034 
L 298.336039 225.956773 
L 299.310002 228.109741 
L 299.553493 228.567013 
L 299.82742 228.986178 
L 300.25353 229.348179 
L 300.83182 229.595866 
L 301.318802 229.500605 
L 301.957966 228.986178 
L 302.201457 228.738488 
L 302.414511 228.490801 
L 302.718875 227.938266 
L 303.023239 227.157102 
L 304.51462 220.164706 
L 307.710439 197.396563 
L 309.384439 184.650212 
L 311.028002 174.075885 
L 312.154148 167.102544 
L 314.254257 154.641985 
L 315.867384 146.182523 
L 317.419639 139.85698 
L 317.967493 137.780219 
L 318.606657 135.798724 
L 318.941457 134.960399 
L 319.763239 132.750269 
L 320.554584 131.035514 
L 321.193748 129.396969 
L 322.867748 126.462833 
L 323.050366 126.234198 
L 323.750402 125.148184 
L 324.02433 124.63376 
L 325.241784 122.118784 
L 327.828875 115.355025 
L 329.868111 109.334327 
L 332.333457 103.446996 
L 332.455202 103.27552 
L 333.185675 102.132352 
L 334.31182 100.893918 
L 335.590148 100.989179 
L 336.046693 101.389295 
L 336.533675 101.827507 
L 336.99022 102.208567 
L 337.32502 102.627723 
L 337.477202 102.818255 
L 339.09033 106.076291 
L 340.520839 110.89666 
L 342.255711 118.994118 
L 344.69062 133.302802 
L 346.638548 148.754657 
L 347.70382 157.118855 
L 348.495166 163.330081 
L 350.990948 182.744927 
L 352.421457 193.35736 
L 353.15193 198.425416 
L 354.034584 203.760212 
L 356.256439 215.649183 
L 357.139093 218.545218 
L 357.686948 219.897966 
L 358.113057 220.679133 
L 358.873966 221.879462 
L 359.17833 222.108102 
L 359.391384 222.089046 
L 359.543566 222.012832 
L 359.84793 221.669881 
L 360.000111 221.460306 
L 360.304475 220.90777 
L 360.76102 219.821761 
L 362.343711 214.525065 
L 364.44382 203.455367 
L 365.20473 198.577839 
L 367.700511 179.010569 
L 370.926766 147.668645 
L 372.326839 133.931546 
L 375.218293 109.524855 
L 378.140184 91.900976 
L 378.93153 88.490521 
L 379.753311 85.823117 
L 381.031639 82.908038 
L 381.427311 82.355502 
L 381.51862 82.260241 
L 382.61433 81.68865 
L 382.766511 81.707706 
L 382.888257 81.707706 
L 382.918693 81.726759 
L 382.918693 81.726759 
" style="fill:none;stroke:#ff0000;stroke-linecap:square;stroke-width:1.5;"/>
   </g>
   <g id="line2d_27">
    <path clip-path="url(#paed991bfbd)" d="M 124.696584 160.40829 
" style="fill:none;stroke:#ffffff;stroke-linecap:square;stroke-width:1.5;"/>
    <defs>
     <path d="M 0 -5 
L -1.12257 -1.545085 
L -4.755283 -1.545085 
L -1.816356 0.59017 
L -2.938926 4.045085 
L -0 1.90983 
L 2.938926 4.045085 
L 1.816356 0.59017 
L 4.755283 -1.545085 
L 1.12257 -1.545085 
z
" id="m941a60d52d" style="stroke:#ffffff;stroke-linejoin:bevel;"/>
    </defs>
    <g clip-path="url(#paed991bfbd)">
     <use style="fill:#0000ff;stroke:#ffffff;stroke-linejoin:bevel;" x="124.696584" xlink:href="#m941a60d52d" y="160.40829"/>
    </g>
   </g>
   <g id="line2d_28">
    <path clip-path="url(#paed991bfbd)" d="M 104.334657 158.204867 
" style="fill:none;stroke:#ffffff;stroke-linecap:square;stroke-width:1.5;"/>
    <defs>
     <path d="M 0 -5 
L -1.12257 -1.545085 
L -4.755283 -1.545085 
L -1.816356 0.59017 
L -2.938926 4.045085 
L -0 1.90983 
L 2.938926 4.045085 
L 1.816356 0.59017 
L 4.755283 -1.545085 
L 1.12257 -1.545085 
z
" id="m5a67a9e5ae" style="stroke:#ffffff;stroke-linejoin:bevel;"/>
    </defs>
    <g clip-path="url(#paed991bfbd)">
     <use style="fill:#ff0000;stroke:#ffffff;stroke-linejoin:bevel;" x="104.334657" xlink:href="#m5a67a9e5ae" y="158.204867"/>
    </g>
   </g>
   <g id="patch_3">
    <path d="M 63.336875 339.84 
L 63.336875 7.2 
" style="fill:none;stroke:#000000;stroke-linecap:square;stroke-linejoin:miter;stroke-width:0.8;"/>
   </g>
   <g id="patch_4">
    <path d="M 398.136875 339.84 
L 398.136875 7.2 
" style="fill:none;stroke:#000000;stroke-linecap:square;stroke-linejoin:miter;stroke-width:0.8;"/>
   </g>
   <g id="patch_5">
    <path d="M 63.336875 339.84 
L 398.136875 339.84 
" style="fill:none;stroke:#000000;stroke-linecap:square;stroke-linejoin:miter;stroke-width:0.8;"/>
   </g>
   <g id="patch_6">
    <path d="M 63.336875 7.2 
L 398.136875 7.2 
" style="fill:none;stroke:#000000;stroke-linecap:square;stroke-linejoin:miter;stroke-width:0.8;"/>
   </g>
   <g id="text_15">
    <g id="patch_7">
     <path d="M 75.036875 331.242688 
L 166.79375 331.242688 
L 166.79375 293.760312 
L 75.036875 293.760312 
z
" style="fill:#ffffff;stroke:#000000;stroke-linejoin:miter;stroke-width:0.75;"/>
    </g>
    <!-- Auto_00114 -->
    <g transform="translate(80.076875 308.521562)scale(0.14 -0.14)">
     <defs>
      <path d="M 2928 1419 
L 1288 1419 
L 1000 750 
Q 894 503 894 381 
Q 894 284 986 211 
Q 1078 138 1384 116 
L 1384 0 
L 50 0 
L 50 116 
Q 316 163 394 238 
Q 553 388 747 847 
L 2238 4334 
L 2347 4334 
L 3822 809 
Q 4000 384 4145 257 
Q 4291 131 4550 116 
L 4550 0 
L 2878 0 
L 2878 116 
Q 3131 128 3220 200 
Q 3309 272 3309 375 
Q 3309 513 3184 809 
L 2928 1419 
z
M 2841 1650 
L 2122 3363 
L 1384 1650 
L 2841 1650 
z
" id="TimesNewRomanPSMT-41" transform="scale(0.015625)"/>
      <path d="M 2709 2863 
L 2709 1128 
Q 2709 631 2732 520 
Q 2756 409 2807 365 
Q 2859 322 2928 322 
Q 3025 322 3147 375 
L 3191 266 
L 2334 -88 
L 2194 -88 
L 2194 519 
Q 1825 119 1631 15 
Q 1438 -88 1222 -88 
Q 981 -88 804 51 
Q 628 191 559 409 
Q 491 628 491 1028 
L 491 2306 
Q 491 2509 447 2587 
Q 403 2666 317 2708 
Q 231 2750 6 2747 
L 6 2863 
L 1009 2863 
L 1009 947 
Q 1009 547 1148 422 
Q 1288 297 1484 297 
Q 1619 297 1789 381 
Q 1959 466 2194 703 
L 2194 2325 
Q 2194 2569 2105 2655 
Q 2016 2741 1734 2747 
L 1734 2863 
L 2709 2863 
z
" id="TimesNewRomanPSMT-75" transform="scale(0.015625)"/>
      <path d="M 3256 -1381 
L -53 -1381 
L -53 -1119 
L 3256 -1119 
L 3256 -1381 
z
" id="TimesNewRomanPSMT-5f" transform="scale(0.015625)"/>
     </defs>
     <use xlink:href="#TimesNewRomanPSMT-41"/>
     <use x="72.216797" xlink:href="#TimesNewRomanPSMT-75"/>
     <use x="122.216797" xlink:href="#TimesNewRomanPSMT-74"/>
     <use x="150" xlink:href="#TimesNewRomanPSMT-6f"/>
     <use x="200" xlink:href="#TimesNewRomanPSMT-5f"/>
     <use x="250" xlink:href="#TimesNewRomanPSMT-30"/>
     <use x="300" xlink:href="#TimesNewRomanPSMT-30"/>
     <use x="350" xlink:href="#TimesNewRomanPSMT-31"/>
     <use x="396.25" xlink:href="#TimesNewRomanPSMT-31"/>
     <use x="446.25" xlink:href="#TimesNewRomanPSMT-34"/>
    </g>
    <!-- Vs: 298.78m/s -->
    <g transform="translate(80.076875 323.208)scale(0.14 -0.14)">
     <defs>
      <path d="M 903 2950 
Q 1047 2950 1148 2848 
Q 1250 2747 1250 2603 
Q 1250 2459 1148 2357 
Q 1047 2256 903 2256 
Q 759 2256 657 2357 
Q 556 2459 556 2603 
Q 556 2747 657 2848 
Q 759 2950 903 2950 
z
M 897 609 
Q 1044 609 1145 506 
Q 1247 403 1247 259 
Q 1247 116 1144 14 
Q 1041 -88 897 -88 
Q 753 -88 651 14 
Q 550 116 550 259 
Q 550 403 651 506 
Q 753 609 897 609 
z
" id="TimesNewRomanPSMT-3a" transform="scale(0.015625)"/>
      <path d="M 338 -88 
L 338 28 
Q 744 34 1094 217 
Q 1444 400 1770 856 
Q 2097 1313 2225 1859 
Q 1734 1544 1338 1544 
Q 891 1544 572 1889 
Q 253 2234 253 2806 
Q 253 3363 572 3797 
Q 956 4325 1575 4325 
Q 2097 4325 2469 3894 
Q 2925 3359 2925 2575 
Q 2925 1869 2578 1258 
Q 2231 647 1613 244 
Q 1109 -88 516 -88 
L 338 -88 
z
M 2275 2091 
Q 2331 2497 2331 2741 
Q 2331 3044 2228 3395 
Q 2125 3747 1936 3934 
Q 1747 4122 1506 4122 
Q 1228 4122 1018 3872 
Q 809 3622 809 3128 
Q 809 2469 1088 2097 
Q 1291 1828 1588 1828 
Q 1731 1828 1928 1897 
Q 2125 1966 2275 2091 
z
" id="TimesNewRomanPSMT-39" transform="scale(0.015625)"/>
      <path d="M 1228 2134 
Q 725 2547 579 2797 
Q 434 3047 434 3316 
Q 434 3728 753 4026 
Q 1072 4325 1600 4325 
Q 2113 4325 2425 4047 
Q 2738 3769 2738 3413 
Q 2738 3175 2569 2928 
Q 2400 2681 1866 2347 
Q 2416 1922 2594 1678 
Q 2831 1359 2831 1006 
Q 2831 559 2490 242 
Q 2150 -75 1597 -75 
Q 994 -75 656 303 
Q 388 606 388 966 
Q 388 1247 577 1523 
Q 766 1800 1228 2134 
z
M 1719 2469 
Q 2094 2806 2194 3001 
Q 2294 3197 2294 3444 
Q 2294 3772 2109 3958 
Q 1925 4144 1606 4144 
Q 1288 4144 1088 3959 
Q 888 3775 888 3528 
Q 888 3366 970 3203 
Q 1053 3041 1206 2894 
L 1719 2469 
z
M 1375 2016 
Q 1116 1797 991 1539 
Q 866 1281 866 981 
Q 866 578 1086 336 
Q 1306 94 1647 94 
Q 1984 94 2187 284 
Q 2391 475 2391 747 
Q 2391 972 2272 1150 
Q 2050 1481 1375 2016 
z
" id="TimesNewRomanPSMT-38" transform="scale(0.015625)"/>
      <path d="M 644 4238 
L 2916 4238 
L 2916 4119 
L 1503 -88 
L 1153 -88 
L 2419 3728 
L 1253 3728 
Q 900 3728 750 3644 
Q 488 3500 328 3200 
L 238 3234 
L 644 4238 
z
" id="TimesNewRomanPSMT-37" transform="scale(0.015625)"/>
      <path d="M 1794 4444 
L 259 -88 
L 9 -88 
L 1544 4444 
L 1794 4444 
z
" id="TimesNewRomanPSMT-2f" transform="scale(0.015625)"/>
     </defs>
     <use xlink:href="#TimesNewRomanPSMT-56"/>
     <use x="72.216797" xlink:href="#TimesNewRomanPSMT-73"/>
     <use x="111.132812" xlink:href="#TimesNewRomanPSMT-3a"/>
     <use x="138.916016" xlink:href="#TimesNewRomanPSMT-20"/>
     <use x="163.916016" xlink:href="#TimesNewRomanPSMT-32"/>
     <use x="213.916016" xlink:href="#TimesNewRomanPSMT-39"/>
     <use x="263.916016" xlink:href="#TimesNewRomanPSMT-38"/>
     <use x="313.916016" xlink:href="#TimesNewRomanPSMT-2e"/>
     <use x="338.916016" xlink:href="#TimesNewRomanPSMT-37"/>
     <use x="388.916016" xlink:href="#TimesNewRomanPSMT-38"/>
     <use x="438.916016" xlink:href="#TimesNewRomanPSMT-6d"/>
     <use x="516.699219" xlink:href="#TimesNewRomanPSMT-2f"/>
     <use x="544.482422" xlink:href="#TimesNewRomanPSMT-73"/>
    </g>
   </g>
  </g>
 </g>
 <defs>
  <clipPath id="paed991bfbd">
   <rect height="332.64" width="334.8" x="63.336875" y="7.2"/>
  </clipPath>
 </defs>
</svg>
