<?xml version="1.0" encoding="utf-8" standalone="no"?>
<!DOCTYPE svg PUBLIC "-//W3C//DTD SVG 1.1//EN"
  "http://www.w3.org/Graphics/SVG/1.1/DTD/svg11.dtd">
<svg height="384.147555pt" version="1.1" viewBox="0 0 421.086875 384.147555" width="421.086875pt" xmlns="http://www.w3.org/2000/svg" xmlns:xlink="http://www.w3.org/1999/xlink">
 <metadata>
  <rdf:RDF xmlns:cc="http://creativecommons.org/ns#" xmlns:dc="http://purl.org/dc/elements/1.1/" xmlns:rdf="http://www.w3.org/1999/02/22-rdf-syntax-ns#">
   <cc:Work>
    <dc:type rdf:resource="http://purl.org/dc/dcmitype/StillImage"/>
    <dc:date>2021-06-11T14:39:39.333839</dc:date>
    <dc:format>image/svg+xml</dc:format>
    <dc:creator>
     <cc:Agent>
      <dc:title>Matplotlib v3.4.2, https://matplotlib.org/</dc:title>
     </cc:Agent>
    </dc:creator>
   </cc:Work>
  </rdf:RDF>
 </metadata>
 <defs>
  <style type="text/css">*{stroke-linecap:butt;stroke-linejoin:round;}</style>
 </defs>
 <g id="figure_1">
  <g id="patch_1">
   <path d="M 0 384.147555 
L 421.086875 384.147555 
L 421.086875 0 
L 0 0 
z
" style="fill:#ffffff;"/>
  </g>
  <g id="axes_1">
   <g id="patch_2">
    <path d="M 63.336875 340.51568 
L 398.136875 340.51568 
L 398.136875 7.87568 
L 63.336875 7.87568 
z
" style="fill:#ffffff;"/>
   </g>
   <g id="matplotlib.axis_1">
    <g id="xtick_1">
     <g id="line2d_1">
      <path clip-path="url(#p88df1b130d)" d="M 93.773239 340.51568 
L 93.773239 7.87568 
" style="fill:none;stroke:#000000;stroke-dasharray:0.5,0.825;stroke-dashoffset:0;stroke-width:0.5;"/>
     </g>
     <g id="line2d_2">
      <defs>
       <path d="M 0 0 
L 0 3.5 
" id="m248e57071a" style="stroke:#000000;stroke-width:0.8;"/>
      </defs>
      <g>
       <use style="stroke:#000000;stroke-width:0.8;" x="93.773239" xlink:href="#m248e57071a" y="340.51568"/>
      </g>
     </g>
     <g id="text_1">
      <!-- 0.000 -->
      <g transform="translate(78.023239 357.23693)scale(0.14 -0.14)">
       <defs>
        <path d="M 231 2094 
Q 231 2819 450 3342 
Q 669 3866 1031 4122 
Q 1313 4325 1613 4325 
Q 2100 4325 2488 3828 
Q 2972 3213 2972 2159 
Q 2972 1422 2759 906 
Q 2547 391 2217 158 
Q 1888 -75 1581 -75 
Q 975 -75 572 641 
Q 231 1244 231 2094 
z
M 844 2016 
Q 844 1141 1059 588 
Q 1238 122 1591 122 
Q 1759 122 1940 273 
Q 2122 425 2216 781 
Q 2359 1319 2359 2297 
Q 2359 3022 2209 3506 
Q 2097 3866 1919 4016 
Q 1791 4119 1609 4119 
Q 1397 4119 1231 3928 
Q 1006 3669 925 3112 
Q 844 2556 844 2016 
z
" id="TimesNewRomanPSMT-30" transform="scale(0.015625)"/>
        <path d="M 800 606 
Q 947 606 1047 504 
Q 1147 403 1147 259 
Q 1147 116 1045 14 
Q 944 -88 800 -88 
Q 656 -88 554 14 
Q 453 116 453 259 
Q 453 406 554 506 
Q 656 606 800 606 
z
" id="TimesNewRomanPSMT-2e" transform="scale(0.015625)"/>
       </defs>
       <use xlink:href="#TimesNewRomanPSMT-30"/>
       <use x="50" xlink:href="#TimesNewRomanPSMT-2e"/>
       <use x="75" xlink:href="#TimesNewRomanPSMT-30"/>
       <use x="125" xlink:href="#TimesNewRomanPSMT-30"/>
       <use x="175" xlink:href="#TimesNewRomanPSMT-30"/>
      </g>
     </g>
    </g>
    <g id="xtick_2">
     <g id="line2d_3">
      <path clip-path="url(#p88df1b130d)" d="M 154.645966 340.51568 
L 154.645966 7.87568 
" style="fill:none;stroke:#000000;stroke-dasharray:0.5,0.825;stroke-dashoffset:0;stroke-width:0.5;"/>
     </g>
     <g id="line2d_4">
      <g>
       <use style="stroke:#000000;stroke-width:0.8;" x="154.645966" xlink:href="#m248e57071a" y="340.51568"/>
      </g>
     </g>
     <g id="text_2">
      <!-- 0.001 -->
      <g transform="translate(138.895966 357.23693)scale(0.14 -0.14)">
       <defs>
        <path d="M 750 3822 
L 1781 4325 
L 1884 4325 
L 1884 747 
Q 1884 391 1914 303 
Q 1944 216 2037 169 
Q 2131 122 2419 116 
L 2419 0 
L 825 0 
L 825 116 
Q 1125 122 1212 167 
Q 1300 213 1334 289 
Q 1369 366 1369 747 
L 1369 3034 
Q 1369 3497 1338 3628 
Q 1316 3728 1258 3775 
Q 1200 3822 1119 3822 
Q 1003 3822 797 3725 
L 750 3822 
z
" id="TimesNewRomanPSMT-31" transform="scale(0.015625)"/>
       </defs>
       <use xlink:href="#TimesNewRomanPSMT-30"/>
       <use x="50" xlink:href="#TimesNewRomanPSMT-2e"/>
       <use x="75" xlink:href="#TimesNewRomanPSMT-30"/>
       <use x="125" xlink:href="#TimesNewRomanPSMT-30"/>
       <use x="175" xlink:href="#TimesNewRomanPSMT-31"/>
      </g>
     </g>
    </g>
    <g id="xtick_3">
     <g id="line2d_5">
      <path clip-path="url(#p88df1b130d)" d="M 215.518693 340.51568 
L 215.518693 7.87568 
" style="fill:none;stroke:#000000;stroke-dasharray:0.5,0.825;stroke-dashoffset:0;stroke-width:0.5;"/>
     </g>
     <g id="line2d_6">
      <g>
       <use style="stroke:#000000;stroke-width:0.8;" x="215.518693" xlink:href="#m248e57071a" y="340.51568"/>
      </g>
     </g>
     <g id="text_3">
      <!-- 0.002 -->
      <g transform="translate(199.768693 357.23693)scale(0.14 -0.14)">
       <defs>
        <path d="M 2934 816 
L 2638 0 
L 138 0 
L 138 116 
Q 1241 1122 1691 1759 
Q 2141 2397 2141 2925 
Q 2141 3328 1894 3587 
Q 1647 3847 1303 3847 
Q 991 3847 742 3664 
Q 494 3481 375 3128 
L 259 3128 
Q 338 3706 661 4015 
Q 984 4325 1469 4325 
Q 1984 4325 2329 3994 
Q 2675 3663 2675 3213 
Q 2675 2891 2525 2569 
Q 2294 2063 1775 1497 
Q 997 647 803 472 
L 1909 472 
Q 2247 472 2383 497 
Q 2519 522 2628 598 
Q 2738 675 2819 816 
L 2934 816 
z
" id="TimesNewRomanPSMT-32" transform="scale(0.015625)"/>
       </defs>
       <use xlink:href="#TimesNewRomanPSMT-30"/>
       <use x="50" xlink:href="#TimesNewRomanPSMT-2e"/>
       <use x="75" xlink:href="#TimesNewRomanPSMT-30"/>
       <use x="125" xlink:href="#TimesNewRomanPSMT-30"/>
       <use x="175" xlink:href="#TimesNewRomanPSMT-32"/>
      </g>
     </g>
    </g>
    <g id="xtick_4">
     <g id="line2d_7">
      <path clip-path="url(#p88df1b130d)" d="M 276.39142 340.51568 
L 276.39142 7.87568 
" style="fill:none;stroke:#000000;stroke-dasharray:0.5,0.825;stroke-dashoffset:0;stroke-width:0.5;"/>
     </g>
     <g id="line2d_8">
      <g>
       <use style="stroke:#000000;stroke-width:0.8;" x="276.39142" xlink:href="#m248e57071a" y="340.51568"/>
      </g>
     </g>
     <g id="text_4">
      <!-- 0.003 -->
      <g transform="translate(260.64142 357.23693)scale(0.14 -0.14)">
       <defs>
        <path d="M 325 3431 
Q 506 3859 782 4092 
Q 1059 4325 1472 4325 
Q 1981 4325 2253 3994 
Q 2459 3747 2459 3466 
Q 2459 3003 1878 2509 
Q 2269 2356 2469 2072 
Q 2669 1788 2669 1403 
Q 2669 853 2319 450 
Q 1863 -75 997 -75 
Q 569 -75 414 31 
Q 259 138 259 259 
Q 259 350 332 419 
Q 406 488 509 488 
Q 588 488 669 463 
Q 722 447 909 348 
Q 1097 250 1169 231 
Q 1284 197 1416 197 
Q 1734 197 1970 444 
Q 2206 691 2206 1028 
Q 2206 1275 2097 1509 
Q 2016 1684 1919 1775 
Q 1784 1900 1550 2001 
Q 1316 2103 1072 2103 
L 972 2103 
L 972 2197 
Q 1219 2228 1467 2375 
Q 1716 2522 1828 2728 
Q 1941 2934 1941 3181 
Q 1941 3503 1739 3701 
Q 1538 3900 1238 3900 
Q 753 3900 428 3381 
L 325 3431 
z
" id="TimesNewRomanPSMT-33" transform="scale(0.015625)"/>
       </defs>
       <use xlink:href="#TimesNewRomanPSMT-30"/>
       <use x="50" xlink:href="#TimesNewRomanPSMT-2e"/>
       <use x="75" xlink:href="#TimesNewRomanPSMT-30"/>
       <use x="125" xlink:href="#TimesNewRomanPSMT-30"/>
       <use x="175" xlink:href="#TimesNewRomanPSMT-33"/>
      </g>
     </g>
    </g>
    <g id="xtick_5">
     <g id="line2d_9">
      <path clip-path="url(#p88df1b130d)" d="M 337.264148 340.51568 
L 337.264148 7.87568 
" style="fill:none;stroke:#000000;stroke-dasharray:0.5,0.825;stroke-dashoffset:0;stroke-width:0.5;"/>
     </g>
     <g id="line2d_10">
      <g>
       <use style="stroke:#000000;stroke-width:0.8;" x="337.264148" xlink:href="#m248e57071a" y="340.51568"/>
      </g>
     </g>
     <g id="text_5">
      <!-- 0.004 -->
      <g transform="translate(321.514148 357.23693)scale(0.14 -0.14)">
       <defs>
        <path d="M 2978 1563 
L 2978 1119 
L 2409 1119 
L 2409 0 
L 1894 0 
L 1894 1119 
L 100 1119 
L 100 1519 
L 2066 4325 
L 2409 4325 
L 2409 1563 
L 2978 1563 
z
M 1894 1563 
L 1894 3666 
L 406 1563 
L 1894 1563 
z
" id="TimesNewRomanPSMT-34" transform="scale(0.015625)"/>
       </defs>
       <use xlink:href="#TimesNewRomanPSMT-30"/>
       <use x="50" xlink:href="#TimesNewRomanPSMT-2e"/>
       <use x="75" xlink:href="#TimesNewRomanPSMT-30"/>
       <use x="125" xlink:href="#TimesNewRomanPSMT-30"/>
       <use x="175" xlink:href="#TimesNewRomanPSMT-34"/>
      </g>
     </g>
    </g>
    <g id="xtick_6">
     <g id="line2d_11">
      <path clip-path="url(#p88df1b130d)" d="M 398.136875 340.51568 
L 398.136875 7.87568 
" style="fill:none;stroke:#000000;stroke-dasharray:0.5,0.825;stroke-dashoffset:0;stroke-width:0.5;"/>
     </g>
     <g id="line2d_12">
      <g>
       <use style="stroke:#000000;stroke-width:0.8;" x="398.136875" xlink:href="#m248e57071a" y="340.51568"/>
      </g>
     </g>
     <g id="text_6">
      <!-- 0.005 -->
      <g transform="translate(382.386875 357.23693)scale(0.14 -0.14)">
       <defs>
        <path d="M 2778 4238 
L 2534 3706 
L 1259 3706 
L 981 3138 
Q 1809 3016 2294 2522 
Q 2709 2097 2709 1522 
Q 2709 1188 2573 903 
Q 2438 619 2231 419 
Q 2025 219 1772 97 
Q 1413 -75 1034 -75 
Q 653 -75 479 54 
Q 306 184 306 341 
Q 306 428 378 495 
Q 450 563 559 563 
Q 641 563 702 538 
Q 763 513 909 409 
Q 1144 247 1384 247 
Q 1750 247 2026 523 
Q 2303 800 2303 1197 
Q 2303 1581 2056 1914 
Q 1809 2247 1375 2428 
Q 1034 2569 447 2591 
L 1259 4238 
L 2778 4238 
z
" id="TimesNewRomanPSMT-35" transform="scale(0.015625)"/>
       </defs>
       <use xlink:href="#TimesNewRomanPSMT-30"/>
       <use x="50" xlink:href="#TimesNewRomanPSMT-2e"/>
       <use x="75" xlink:href="#TimesNewRomanPSMT-30"/>
       <use x="125" xlink:href="#TimesNewRomanPSMT-30"/>
       <use x="175" xlink:href="#TimesNewRomanPSMT-35"/>
      </g>
     </g>
    </g>
    <g id="text_7">
     <!-- Time (sec) -->
     <g transform="translate(200.858906 373.952867)scale(0.14 -0.14)">
      <defs>
       <path d="M 3703 4238 
L 3750 3244 
L 3631 3244 
Q 3597 3506 3538 3619 
Q 3441 3800 3280 3886 
Q 3119 3972 2856 3972 
L 2259 3972 
L 2259 734 
Q 2259 344 2344 247 
Q 2463 116 2709 116 
L 2856 116 
L 2856 0 
L 1059 0 
L 1059 116 
L 1209 116 
Q 1478 116 1591 278 
Q 1659 378 1659 734 
L 1659 3972 
L 1150 3972 
Q 853 3972 728 3928 
Q 566 3869 450 3700 
Q 334 3531 313 3244 
L 194 3244 
L 244 4238 
L 3703 4238 
z
" id="TimesNewRomanPSMT-54" transform="scale(0.015625)"/>
       <path d="M 928 4444 
Q 1059 4444 1151 4351 
Q 1244 4259 1244 4128 
Q 1244 3997 1151 3903 
Q 1059 3809 928 3809 
Q 797 3809 703 3903 
Q 609 3997 609 4128 
Q 609 4259 701 4351 
Q 794 4444 928 4444 
z
M 1188 2947 
L 1188 647 
Q 1188 378 1227 289 
Q 1266 200 1342 156 
Q 1419 113 1622 113 
L 1622 0 
L 231 0 
L 231 113 
Q 441 113 512 153 
Q 584 194 626 287 
Q 669 381 669 647 
L 669 1750 
Q 669 2216 641 2353 
Q 619 2453 572 2492 
Q 525 2531 444 2531 
Q 356 2531 231 2484 
L 188 2597 
L 1050 2947 
L 1188 2947 
z
" id="TimesNewRomanPSMT-69" transform="scale(0.015625)"/>
       <path d="M 1050 2338 
Q 1363 2650 1419 2697 
Q 1559 2816 1721 2881 
Q 1884 2947 2044 2947 
Q 2313 2947 2506 2790 
Q 2700 2634 2766 2338 
Q 3088 2713 3309 2830 
Q 3531 2947 3766 2947 
Q 3994 2947 4170 2830 
Q 4347 2713 4450 2447 
Q 4519 2266 4519 1878 
L 4519 647 
Q 4519 378 4559 278 
Q 4591 209 4675 161 
Q 4759 113 4950 113 
L 4950 0 
L 3538 0 
L 3538 113 
L 3597 113 
Q 3781 113 3884 184 
Q 3956 234 3988 344 
Q 4000 397 4000 647 
L 4000 1878 
Q 4000 2228 3916 2372 
Q 3794 2572 3525 2572 
Q 3359 2572 3192 2489 
Q 3025 2406 2788 2181 
L 2781 2147 
L 2788 2013 
L 2788 647 
Q 2788 353 2820 281 
Q 2853 209 2943 161 
Q 3034 113 3253 113 
L 3253 0 
L 1806 0 
L 1806 113 
Q 2044 113 2133 169 
Q 2222 225 2256 338 
Q 2272 391 2272 647 
L 2272 1878 
Q 2272 2228 2169 2381 
Q 2031 2581 1784 2581 
Q 1616 2581 1450 2491 
Q 1191 2353 1050 2181 
L 1050 647 
Q 1050 366 1089 281 
Q 1128 197 1204 155 
Q 1281 113 1516 113 
L 1516 0 
L 100 0 
L 100 113 
Q 297 113 375 155 
Q 453 197 493 289 
Q 534 381 534 647 
L 534 1741 
Q 534 2213 506 2350 
Q 484 2453 437 2492 
Q 391 2531 309 2531 
Q 222 2531 100 2484 
L 53 2597 
L 916 2947 
L 1050 2947 
L 1050 2338 
z
" id="TimesNewRomanPSMT-6d" transform="scale(0.015625)"/>
       <path d="M 681 1784 
Q 678 1147 991 784 
Q 1303 422 1725 422 
Q 2006 422 2214 576 
Q 2422 731 2563 1106 
L 2659 1044 
Q 2594 616 2278 264 
Q 1963 -88 1488 -88 
Q 972 -88 605 314 
Q 238 716 238 1394 
Q 238 2128 614 2539 
Q 991 2950 1559 2950 
Q 2041 2950 2350 2633 
Q 2659 2316 2659 1784 
L 681 1784 
z
M 681 1966 
L 2006 1966 
Q 1991 2241 1941 2353 
Q 1863 2528 1708 2628 
Q 1553 2728 1384 2728 
Q 1125 2728 920 2526 
Q 716 2325 681 1966 
z
" id="TimesNewRomanPSMT-65" transform="scale(0.015625)"/>
       <path id="TimesNewRomanPSMT-20" transform="scale(0.015625)"/>
       <path d="M 1988 -1253 
L 1988 -1369 
Q 1516 -1131 1200 -813 
Q 750 -359 506 256 
Q 263 872 263 1534 
Q 263 2503 741 3301 
Q 1219 4100 1988 4444 
L 1988 4313 
Q 1603 4100 1356 3731 
Q 1109 3363 987 2797 
Q 866 2231 866 1616 
Q 866 947 969 400 
Q 1050 -31 1165 -292 
Q 1281 -553 1476 -793 
Q 1672 -1034 1988 -1253 
z
" id="TimesNewRomanPSMT-28" transform="scale(0.015625)"/>
       <path d="M 2050 2947 
L 2050 1972 
L 1947 1972 
Q 1828 2431 1642 2597 
Q 1456 2763 1169 2763 
Q 950 2763 815 2647 
Q 681 2531 681 2391 
Q 681 2216 781 2091 
Q 878 1963 1175 1819 
L 1631 1597 
Q 2266 1288 2266 781 
Q 2266 391 1970 151 
Q 1675 -88 1309 -88 
Q 1047 -88 709 6 
Q 606 38 541 38 
Q 469 38 428 -44 
L 325 -44 
L 325 978 
L 428 978 
Q 516 541 762 319 
Q 1009 97 1316 97 
Q 1531 97 1667 223 
Q 1803 350 1803 528 
Q 1803 744 1651 891 
Q 1500 1038 1047 1263 
Q 594 1488 453 1669 
Q 313 1847 313 2119 
Q 313 2472 555 2709 
Q 797 2947 1181 2947 
Q 1350 2947 1591 2875 
Q 1750 2828 1803 2828 
Q 1853 2828 1881 2850 
Q 1909 2872 1947 2947 
L 2050 2947 
z
" id="TimesNewRomanPSMT-73" transform="scale(0.015625)"/>
       <path d="M 2631 1088 
Q 2516 522 2178 217 
Q 1841 -88 1431 -88 
Q 944 -88 581 321 
Q 219 731 219 1428 
Q 219 2103 620 2525 
Q 1022 2947 1584 2947 
Q 2006 2947 2278 2723 
Q 2550 2500 2550 2259 
Q 2550 2141 2473 2067 
Q 2397 1994 2259 1994 
Q 2075 1994 1981 2113 
Q 1928 2178 1911 2362 
Q 1894 2547 1784 2644 
Q 1675 2738 1481 2738 
Q 1169 2738 978 2506 
Q 725 2200 725 1697 
Q 725 1184 976 792 
Q 1228 400 1656 400 
Q 1963 400 2206 609 
Q 2378 753 2541 1131 
L 2631 1088 
z
" id="TimesNewRomanPSMT-63" transform="scale(0.015625)"/>
       <path d="M 144 4313 
L 144 4444 
Q 619 4209 934 3891 
Q 1381 3434 1625 2820 
Q 1869 2206 1869 1541 
Q 1869 572 1392 -226 
Q 916 -1025 144 -1369 
L 144 -1253 
Q 528 -1038 776 -670 
Q 1025 -303 1145 264 
Q 1266 831 1266 1447 
Q 1266 2113 1163 2663 
Q 1084 3094 967 3353 
Q 850 3613 656 3853 
Q 463 4094 144 4313 
z
" id="TimesNewRomanPSMT-29" transform="scale(0.015625)"/>
      </defs>
      <use xlink:href="#TimesNewRomanPSMT-54"/>
      <use x="57.583984" xlink:href="#TimesNewRomanPSMT-69"/>
      <use x="85.367188" xlink:href="#TimesNewRomanPSMT-6d"/>
      <use x="163.150391" xlink:href="#TimesNewRomanPSMT-65"/>
      <use x="207.535156" xlink:href="#TimesNewRomanPSMT-20"/>
      <use x="232.535156" xlink:href="#TimesNewRomanPSMT-28"/>
      <use x="265.835938" xlink:href="#TimesNewRomanPSMT-73"/>
      <use x="304.751953" xlink:href="#TimesNewRomanPSMT-65"/>
      <use x="349.136719" xlink:href="#TimesNewRomanPSMT-63"/>
      <use x="393.521484" xlink:href="#TimesNewRomanPSMT-29"/>
     </g>
    </g>
   </g>
   <g id="matplotlib.axis_2">
    <g id="ytick_1">
     <g id="line2d_13">
      <path clip-path="url(#p88df1b130d)" d="M 63.336875 321.619164 
L 398.136875 321.619164 
" style="fill:none;stroke:#000000;stroke-dasharray:0.5,0.825;stroke-dashoffset:0;stroke-width:0.5;"/>
     </g>
     <g id="line2d_14">
      <defs>
       <path d="M 0 0 
L -3.5 0 
" id="m65f5fdb995" style="stroke:#000000;stroke-width:0.8;"/>
      </defs>
      <g>
       <use style="stroke:#000000;stroke-width:0.8;" x="63.336875" xlink:href="#m65f5fdb995" y="321.619164"/>
      </g>
     </g>
     <g id="text_8">
      <!-- −0.08 -->
      <g transform="translate(23.942188 326.479789)scale(0.14 -0.14)">
       <defs>
        <path d="M 3484 2000 
L 116 2000 
L 116 2256 
L 3484 2256 
L 3484 2000 
z
" id="TimesNewRomanPSMT-2212" transform="scale(0.015625)"/>
        <path d="M 1228 2134 
Q 725 2547 579 2797 
Q 434 3047 434 3316 
Q 434 3728 753 4026 
Q 1072 4325 1600 4325 
Q 2113 4325 2425 4047 
Q 2738 3769 2738 3413 
Q 2738 3175 2569 2928 
Q 2400 2681 1866 2347 
Q 2416 1922 2594 1678 
Q 2831 1359 2831 1006 
Q 2831 559 2490 242 
Q 2150 -75 1597 -75 
Q 994 -75 656 303 
Q 388 606 388 966 
Q 388 1247 577 1523 
Q 766 1800 1228 2134 
z
M 1719 2469 
Q 2094 2806 2194 3001 
Q 2294 3197 2294 3444 
Q 2294 3772 2109 3958 
Q 1925 4144 1606 4144 
Q 1288 4144 1088 3959 
Q 888 3775 888 3528 
Q 888 3366 970 3203 
Q 1053 3041 1206 2894 
L 1719 2469 
z
M 1375 2016 
Q 1116 1797 991 1539 
Q 866 1281 866 981 
Q 866 578 1086 336 
Q 1306 94 1647 94 
Q 1984 94 2187 284 
Q 2391 475 2391 747 
Q 2391 972 2272 1150 
Q 2050 1481 1375 2016 
z
" id="TimesNewRomanPSMT-38" transform="scale(0.015625)"/>
       </defs>
       <use xlink:href="#TimesNewRomanPSMT-2212"/>
       <use x="56.396484" xlink:href="#TimesNewRomanPSMT-30"/>
       <use x="106.396484" xlink:href="#TimesNewRomanPSMT-2e"/>
       <use x="131.396484" xlink:href="#TimesNewRomanPSMT-30"/>
       <use x="181.396484" xlink:href="#TimesNewRomanPSMT-38"/>
      </g>
     </g>
    </g>
    <g id="ytick_2">
     <g id="line2d_15">
      <path clip-path="url(#p88df1b130d)" d="M 63.336875 282.924347 
L 398.136875 282.924347 
" style="fill:none;stroke:#000000;stroke-dasharray:0.5,0.825;stroke-dashoffset:0;stroke-width:0.5;"/>
     </g>
     <g id="line2d_16">
      <g>
       <use style="stroke:#000000;stroke-width:0.8;" x="63.336875" xlink:href="#m65f5fdb995" y="282.924347"/>
      </g>
     </g>
     <g id="text_9">
      <!-- −0.06 -->
      <g transform="translate(23.942188 287.784972)scale(0.14 -0.14)">
       <defs>
        <path d="M 2869 4325 
L 2869 4209 
Q 2456 4169 2195 4045 
Q 1934 3922 1679 3669 
Q 1425 3416 1258 3105 
Q 1091 2794 978 2366 
Q 1428 2675 1881 2675 
Q 2316 2675 2634 2325 
Q 2953 1975 2953 1425 
Q 2953 894 2631 456 
Q 2244 -75 1606 -75 
Q 1172 -75 869 213 
Q 275 772 275 1663 
Q 275 2231 503 2743 
Q 731 3256 1154 3653 
Q 1578 4050 1965 4187 
Q 2353 4325 2688 4325 
L 2869 4325 
z
M 925 2138 
Q 869 1716 869 1456 
Q 869 1156 980 804 
Q 1091 453 1309 247 
Q 1469 100 1697 100 
Q 1969 100 2183 356 
Q 2397 613 2397 1088 
Q 2397 1622 2184 2012 
Q 1972 2403 1581 2403 
Q 1463 2403 1327 2353 
Q 1191 2303 925 2138 
z
" id="TimesNewRomanPSMT-36" transform="scale(0.015625)"/>
       </defs>
       <use xlink:href="#TimesNewRomanPSMT-2212"/>
       <use x="56.396484" xlink:href="#TimesNewRomanPSMT-30"/>
       <use x="106.396484" xlink:href="#TimesNewRomanPSMT-2e"/>
       <use x="131.396484" xlink:href="#TimesNewRomanPSMT-30"/>
       <use x="181.396484" xlink:href="#TimesNewRomanPSMT-36"/>
      </g>
     </g>
    </g>
    <g id="ytick_3">
     <g id="line2d_17">
      <path clip-path="url(#p88df1b130d)" d="M 63.336875 244.229529 
L 398.136875 244.229529 
" style="fill:none;stroke:#000000;stroke-dasharray:0.5,0.825;stroke-dashoffset:0;stroke-width:0.5;"/>
     </g>
     <g id="line2d_18">
      <g>
       <use style="stroke:#000000;stroke-width:0.8;" x="63.336875" xlink:href="#m65f5fdb995" y="244.229529"/>
      </g>
     </g>
     <g id="text_10">
      <!-- −0.04 -->
      <g transform="translate(23.942188 249.090154)scale(0.14 -0.14)">
       <use xlink:href="#TimesNewRomanPSMT-2212"/>
       <use x="56.396484" xlink:href="#TimesNewRomanPSMT-30"/>
       <use x="106.396484" xlink:href="#TimesNewRomanPSMT-2e"/>
       <use x="131.396484" xlink:href="#TimesNewRomanPSMT-30"/>
       <use x="181.396484" xlink:href="#TimesNewRomanPSMT-34"/>
      </g>
     </g>
    </g>
    <g id="ytick_4">
     <g id="line2d_19">
      <path clip-path="url(#p88df1b130d)" d="M 63.336875 205.534712 
L 398.136875 205.534712 
" style="fill:none;stroke:#000000;stroke-dasharray:0.5,0.825;stroke-dashoffset:0;stroke-width:0.5;"/>
     </g>
     <g id="line2d_20">
      <g>
       <use style="stroke:#000000;stroke-width:0.8;" x="63.336875" xlink:href="#m65f5fdb995" y="205.534712"/>
      </g>
     </g>
     <g id="text_11">
      <!-- −0.02 -->
      <g transform="translate(23.942188 210.395337)scale(0.14 -0.14)">
       <use xlink:href="#TimesNewRomanPSMT-2212"/>
       <use x="56.396484" xlink:href="#TimesNewRomanPSMT-30"/>
       <use x="106.396484" xlink:href="#TimesNewRomanPSMT-2e"/>
       <use x="131.396484" xlink:href="#TimesNewRomanPSMT-30"/>
       <use x="181.396484" xlink:href="#TimesNewRomanPSMT-32"/>
      </g>
     </g>
    </g>
    <g id="ytick_5">
     <g id="line2d_21">
      <path clip-path="url(#p88df1b130d)" d="M 63.336875 166.839895 
L 398.136875 166.839895 
" style="fill:none;stroke:#000000;stroke-dasharray:0.5,0.825;stroke-dashoffset:0;stroke-width:0.5;"/>
     </g>
     <g id="line2d_22">
      <g>
       <use style="stroke:#000000;stroke-width:0.8;" x="63.336875" xlink:href="#m65f5fdb995" y="166.839895"/>
      </g>
     </g>
     <g id="text_12">
      <!-- 0.00 -->
      <g transform="translate(31.836875 171.70052)scale(0.14 -0.14)">
       <use xlink:href="#TimesNewRomanPSMT-30"/>
       <use x="50" xlink:href="#TimesNewRomanPSMT-2e"/>
       <use x="75" xlink:href="#TimesNewRomanPSMT-30"/>
       <use x="125" xlink:href="#TimesNewRomanPSMT-30"/>
      </g>
     </g>
    </g>
    <g id="ytick_6">
     <g id="line2d_23">
      <path clip-path="url(#p88df1b130d)" d="M 63.336875 128.145077 
L 398.136875 128.145077 
" style="fill:none;stroke:#000000;stroke-dasharray:0.5,0.825;stroke-dashoffset:0;stroke-width:0.5;"/>
     </g>
     <g id="line2d_24">
      <g>
       <use style="stroke:#000000;stroke-width:0.8;" x="63.336875" xlink:href="#m65f5fdb995" y="128.145077"/>
      </g>
     </g>
     <g id="text_13">
      <!-- 0.02 -->
      <g transform="translate(31.836875 133.005702)scale(0.14 -0.14)">
       <use xlink:href="#TimesNewRomanPSMT-30"/>
       <use x="50" xlink:href="#TimesNewRomanPSMT-2e"/>
       <use x="75" xlink:href="#TimesNewRomanPSMT-30"/>
       <use x="125" xlink:href="#TimesNewRomanPSMT-32"/>
      </g>
     </g>
    </g>
    <g id="ytick_7">
     <g id="line2d_25">
      <path clip-path="url(#p88df1b130d)" d="M 63.336875 89.45026 
L 398.136875 89.45026 
" style="fill:none;stroke:#000000;stroke-dasharray:0.5,0.825;stroke-dashoffset:0;stroke-width:0.5;"/>
     </g>
     <g id="line2d_26">
      <g>
       <use style="stroke:#000000;stroke-width:0.8;" x="63.336875" xlink:href="#m65f5fdb995" y="89.45026"/>
      </g>
     </g>
     <g id="text_14">
      <!-- 0.04 -->
      <g transform="translate(31.836875 94.310885)scale(0.14 -0.14)">
       <use xlink:href="#TimesNewRomanPSMT-30"/>
       <use x="50" xlink:href="#TimesNewRomanPSMT-2e"/>
       <use x="75" xlink:href="#TimesNewRomanPSMT-30"/>
       <use x="125" xlink:href="#TimesNewRomanPSMT-34"/>
      </g>
     </g>
    </g>
    <g id="ytick_8">
     <g id="line2d_27">
      <path clip-path="url(#p88df1b130d)" d="M 63.336875 50.755442 
L 398.136875 50.755442 
" style="fill:none;stroke:#000000;stroke-dasharray:0.5,0.825;stroke-dashoffset:0;stroke-width:0.5;"/>
     </g>
     <g id="line2d_28">
      <g>
       <use style="stroke:#000000;stroke-width:0.8;" x="63.336875" xlink:href="#m65f5fdb995" y="50.755442"/>
      </g>
     </g>
     <g id="text_15">
      <!-- 0.06 -->
      <g transform="translate(31.836875 55.616067)scale(0.14 -0.14)">
       <use xlink:href="#TimesNewRomanPSMT-30"/>
       <use x="50" xlink:href="#TimesNewRomanPSMT-2e"/>
       <use x="75" xlink:href="#TimesNewRomanPSMT-30"/>
       <use x="125" xlink:href="#TimesNewRomanPSMT-36"/>
      </g>
     </g>
    </g>
    <g id="ytick_9">
     <g id="line2d_29">
      <path clip-path="url(#p88df1b130d)" d="M 63.336875 12.060625 
L 398.136875 12.060625 
" style="fill:none;stroke:#000000;stroke-dasharray:0.5,0.825;stroke-dashoffset:0;stroke-width:0.5;"/>
     </g>
     <g id="line2d_30">
      <g>
       <use style="stroke:#000000;stroke-width:0.8;" x="63.336875" xlink:href="#m65f5fdb995" y="12.060625"/>
      </g>
     </g>
     <g id="text_16">
      <!-- 0.08 -->
      <g transform="translate(31.836875 16.92125)scale(0.14 -0.14)">
       <use xlink:href="#TimesNewRomanPSMT-30"/>
       <use x="50" xlink:href="#TimesNewRomanPSMT-2e"/>
       <use x="75" xlink:href="#TimesNewRomanPSMT-30"/>
       <use x="125" xlink:href="#TimesNewRomanPSMT-38"/>
      </g>
     </g>
    </g>
    <g id="text_17">
     <!-- Volatage (V) -->
     <g transform="translate(16.92125 210.028024)rotate(-90)scale(0.14 -0.14)">
      <defs>
       <path d="M 4544 4238 
L 4544 4122 
Q 4319 4081 4203 3978 
Q 4038 3825 3909 3509 
L 2431 -97 
L 2316 -97 
L 728 3556 
Q 606 3838 556 3900 
Q 478 3997 364 4051 
Q 250 4106 56 4122 
L 56 4238 
L 1788 4238 
L 1788 4122 
Q 1494 4094 1406 4022 
Q 1319 3950 1319 3838 
Q 1319 3681 1463 3350 
L 2541 866 
L 3541 3319 
Q 3688 3681 3688 3822 
Q 3688 3913 3597 3995 
Q 3506 4078 3291 4113 
Q 3275 4116 3238 4122 
L 3238 4238 
L 4544 4238 
z
" id="TimesNewRomanPSMT-56" transform="scale(0.015625)"/>
       <path d="M 1600 2947 
Q 2250 2947 2644 2453 
Q 2978 2031 2978 1484 
Q 2978 1100 2793 706 
Q 2609 313 2286 112 
Q 1963 -88 1566 -88 
Q 919 -88 538 428 
Q 216 863 216 1403 
Q 216 1797 411 2186 
Q 606 2575 925 2761 
Q 1244 2947 1600 2947 
z
M 1503 2744 
Q 1338 2744 1170 2645 
Q 1003 2547 900 2300 
Q 797 2053 797 1666 
Q 797 1041 1045 587 
Q 1294 134 1700 134 
Q 2003 134 2200 384 
Q 2397 634 2397 1244 
Q 2397 2006 2069 2444 
Q 1847 2744 1503 2744 
z
" id="TimesNewRomanPSMT-6f" transform="scale(0.015625)"/>
       <path d="M 1184 4444 
L 1184 647 
Q 1184 378 1223 290 
Q 1263 203 1344 158 
Q 1425 113 1647 113 
L 1647 0 
L 244 0 
L 244 113 
Q 441 113 512 153 
Q 584 194 625 287 
Q 666 381 666 647 
L 666 3247 
Q 666 3731 644 3842 
Q 622 3953 573 3993 
Q 525 4034 450 4034 
Q 369 4034 244 3984 
L 191 4094 
L 1044 4444 
L 1184 4444 
z
" id="TimesNewRomanPSMT-6c" transform="scale(0.015625)"/>
       <path d="M 1822 413 
Q 1381 72 1269 19 
Q 1100 -59 909 -59 
Q 613 -59 420 144 
Q 228 347 228 678 
Q 228 888 322 1041 
Q 450 1253 767 1440 
Q 1084 1628 1822 1897 
L 1822 2009 
Q 1822 2438 1686 2597 
Q 1550 2756 1291 2756 
Q 1094 2756 978 2650 
Q 859 2544 859 2406 
L 866 2225 
Q 866 2081 792 2003 
Q 719 1925 600 1925 
Q 484 1925 411 2006 
Q 338 2088 338 2228 
Q 338 2497 613 2722 
Q 888 2947 1384 2947 
Q 1766 2947 2009 2819 
Q 2194 2722 2281 2516 
Q 2338 2381 2338 1966 
L 2338 994 
Q 2338 584 2353 492 
Q 2369 400 2405 369 
Q 2441 338 2488 338 
Q 2538 338 2575 359 
Q 2641 400 2828 588 
L 2828 413 
Q 2478 -56 2159 -56 
Q 2006 -56 1915 50 
Q 1825 156 1822 413 
z
M 1822 616 
L 1822 1706 
Q 1350 1519 1213 1441 
Q 966 1303 859 1153 
Q 753 1003 753 825 
Q 753 600 887 451 
Q 1022 303 1197 303 
Q 1434 303 1822 616 
z
" id="TimesNewRomanPSMT-61" transform="scale(0.015625)"/>
       <path d="M 1031 3803 
L 1031 2863 
L 1700 2863 
L 1700 2644 
L 1031 2644 
L 1031 788 
Q 1031 509 1111 412 
Q 1191 316 1316 316 
Q 1419 316 1516 380 
Q 1613 444 1666 569 
L 1788 569 
Q 1678 263 1478 108 
Q 1278 -47 1066 -47 
Q 922 -47 784 33 
Q 647 113 581 261 
Q 516 409 516 719 
L 516 2644 
L 63 2644 
L 63 2747 
Q 234 2816 414 2980 
Q 594 3144 734 3369 
Q 806 3488 934 3803 
L 1031 3803 
z
" id="TimesNewRomanPSMT-74" transform="scale(0.015625)"/>
       <path d="M 966 1044 
Q 703 1172 562 1401 
Q 422 1631 422 1909 
Q 422 2334 742 2640 
Q 1063 2947 1563 2947 
Q 1972 2947 2272 2747 
L 2878 2747 
Q 3013 2747 3034 2739 
Q 3056 2731 3066 2713 
Q 3084 2684 3084 2613 
Q 3084 2531 3069 2500 
Q 3059 2484 3036 2475 
Q 3013 2466 2878 2466 
L 2506 2466 
Q 2681 2241 2681 1891 
Q 2681 1491 2375 1206 
Q 2069 922 1553 922 
Q 1341 922 1119 984 
Q 981 866 932 777 
Q 884 688 884 625 
Q 884 572 936 522 
Q 988 472 1138 450 
Q 1225 438 1575 428 
Q 2219 413 2409 384 
Q 2700 344 2873 169 
Q 3047 -6 3047 -263 
Q 3047 -616 2716 -925 
Q 2228 -1381 1444 -1381 
Q 841 -1381 425 -1109 
Q 191 -953 191 -784 
Q 191 -709 225 -634 
Q 278 -519 444 -313 
Q 466 -284 763 25 
Q 600 122 533 198 
Q 466 275 466 372 
Q 466 481 555 628 
Q 644 775 966 1044 
z
M 1509 2797 
Q 1278 2797 1122 2612 
Q 966 2428 966 2047 
Q 966 1553 1178 1281 
Q 1341 1075 1591 1075 
Q 1828 1075 1981 1253 
Q 2134 1431 2134 1813 
Q 2134 2309 1919 2591 
Q 1759 2797 1509 2797 
z
M 934 0 
Q 788 -159 713 -296 
Q 638 -434 638 -550 
Q 638 -700 819 -813 
Q 1131 -1006 1722 -1006 
Q 2284 -1006 2551 -807 
Q 2819 -609 2819 -384 
Q 2819 -222 2659 -153 
Q 2497 -84 2016 -72 
Q 1313 -53 934 0 
z
" id="TimesNewRomanPSMT-67" transform="scale(0.015625)"/>
      </defs>
      <use xlink:href="#TimesNewRomanPSMT-56"/>
      <use x="59.341797" xlink:href="#TimesNewRomanPSMT-6f"/>
      <use x="109.341797" xlink:href="#TimesNewRomanPSMT-6c"/>
      <use x="137.125" xlink:href="#TimesNewRomanPSMT-61"/>
      <use x="181.509766" xlink:href="#TimesNewRomanPSMT-74"/>
      <use x="209.292969" xlink:href="#TimesNewRomanPSMT-61"/>
      <use x="253.677734" xlink:href="#TimesNewRomanPSMT-67"/>
      <use x="303.677734" xlink:href="#TimesNewRomanPSMT-65"/>
      <use x="348.0625" xlink:href="#TimesNewRomanPSMT-20"/>
      <use x="373.0625" xlink:href="#TimesNewRomanPSMT-28"/>
      <use x="406.363281" xlink:href="#TimesNewRomanPSMT-56"/>
      <use x="478.580078" xlink:href="#TimesNewRomanPSMT-29"/>
     </g>
    </g>
   </g>
   <g id="LineCollection_1">
    <path clip-path="url(#p88df1b130d)" d="M 78.555057 166.839895 
L 382.918693 166.839895 
" style="fill:none;stroke:#1f77b4;stroke-width:1.5;"/>
   </g>
   <g id="line2d_31">
    <path clip-path="url(#p88df1b130d)" d="M 78.555057 166.795299 
L 78.737675 166.843667 
L 78.920293 166.819483 
L 115.991784 166.91622 
L 116.174402 166.940404 
L 117.69622 167.037141 
L 117.817966 167.037141 
L 118.000584 167.012957 
L 118.761493 167.109694 
L 118.913675 167.158063 
L 119.03542 167.133879 
L 119.978948 167.230616 
L 120.192002 167.278984 
L 120.344184 167.278984 
L 121.652948 167.375721 
L 121.866002 167.42409 
L 122.779093 167.496642 
L 122.900839 167.545011 
L 123.05302 167.545011 
L 123.235639 167.569195 
L 126.15753 167.665932 
L 126.248839 167.690117 
L 126.279275 167.665932 
L 126.522766 167.738485 
L 126.705384 167.714301 
L 126.857566 167.762669 
L 127.222802 167.835222 
L 127.374984 167.883591 
L 127.679348 168.028696 
L 127.709784 167.980328 
L 127.770657 168.028696 
L 127.953275 168.125433 
L 128.257639 168.22217 
L 128.470693 168.367276 
L 128.562002 168.367276 
L 128.83593 168.609118 
L 130.17513 169.794147 
L 130.783857 170.592228 
L 130.875166 170.688965 
L 131.240402 171.317756 
L 131.362148 171.51123 
L 131.970875 172.696259 
L 132.062184 172.865549 
L 132.610039 173.905472 
L 132.975275 174.679368 
L 133.279639 175.308158 
L 133.797057 176.323897 
L 134.344911 177.7024 
L 135.044948 179.637141 
L 136.323275 183.337334 
L 139.579966 190.834454 
L 139.732148 191.076297 
L 140.21913 191.656719 
L 141.193093 192.309694 
L 141.954002 192.212957 
L 142.22793 192.11622 
L 142.410548 192.019483 
L 142.593166 191.898562 
L 142.714911 191.801825 
L 143.354075 191.173034 
L 144.328039 189.431767 
L 146.215093 183.095491 
L 146.732511 180.82217 
L 147.767348 175.380711 
L 149.563093 163.288581 
L 153.124148 134.146547 
L 154.585093 121.256334 
L 156.137348 108.075912 
L 156.86782 102.126587 
L 159.576657 83.528891 
L 159.941893 81.666703 
L 160.489748 78.861324 
L 160.854984 77.337716 
L 161.341966 75.523896 
L 162.22462 73.081286 
L 163.046402 71.944632 
L 163.685566 72.041363 
L 163.868184 72.234839 
L 164.142111 72.573418 
L 164.537784 73.371501 
L 165.603057 77.095875 
L 166.363966 81.255566 
L 167.67273 91.316225 
L 170.25982 121.328888 
L 171.02073 132.356909 
L 172.664293 158.838677 
L 179.025493 268.151534 
L 180.486439 288.56305 
L 181.73433 303.049419 
L 182.495239 310.353068 
L 183.438766 317.02792 
L 184.351857 321.502016 
L 185.508439 324.83945 
L 185.843239 325.178029 
L 186.269348 325.39568 
L 186.908511 324.766885 
L 187.791166 322.421012 
L 188.399893 319.567271 
L 188.978184 316.278213 
L 189.526039 312.094334 
L 190.043457 307.620254 
L 190.956548 297.849805 
L 192.174002 282.154225 
L 193.330584 264.693187 
L 194.487166 245.635991 
L 197.196002 194.123514 
L 199.05262 158.06478 
L 201.73102 109.043284 
L 203.587639 79.901248 
L 204.805093 63.141555 
L 205.992111 49.453263 
L 207.148693 38.570348 
L 208.579202 29.114304 
L 209.035748 27.179559 
L 209.492293 25.510843 
L 209.979275 24.30163 
L 210.10102 24.083979 
L 210.77062 23.189158 
L 210.922802 23.092419 
L 211.166293 22.99568 
L 211.501093 23.140795 
L 211.653275 23.237519 
L 212.018511 23.624474 
L 212.20113 23.890501 
L 212.962039 25.94616 
L 214.057748 30.734645 
L 214.970839 36.417952 
L 215.518693 40.577643 
L 218.958002 74.411424 
L 225.714875 158.911229 
L 226.901893 171.753072 
L 227.875857 181.354224 
L 229.51942 194.752304 
L 229.793348 196.54194 
L 230.462948 200.991844 
L 231.86302 208.174569 
L 233.141348 213.736949 
L 233.354402 214.510844 
L 234.20662 217.461327 
L 234.96753 219.516988 
L 236.398039 222.660942 
L 236.580657 222.902784 
L 236.945893 223.507391 
L 237.402439 224.039446 
L 237.493748 224.063631 
L 237.98073 224.329654 
L 238.163348 224.426393 
L 238.437275 224.668235 
L 238.680766 224.76497 
L 238.89382 224.813341 
L 239.076439 224.789156 
L 239.259057 224.885895 
L 239.350366 224.91008 
L 239.532984 225.030999 
L 239.624293 225.055183 
L 239.837348 225.127738 
L 240.050402 225.079368 
L 240.23302 224.982629 
L 240.628693 224.789156 
L 240.99393 224.692421 
L 242.66793 223.241362 
L 242.880984 222.975339 
L 243.641893 222.491652 
L 243.824511 222.419097 
L 244.068002 222.225625 
L 244.220184 222.12889 
L 245.437639 221.088966 
L 245.711566 220.581095 
L 246.076802 219.92812 
L 246.168111 219.831381 
L 246.624657 219.009116 
L 246.989893 218.235222 
L 247.35513 217.437143 
L 248.968257 213.857872 
L 249.303057 213.132343 
L 250.885748 209.117755 
L 251.220548 208.222938 
L 252.346693 205.272458 
L 253.229348 202.829846 
L 253.62502 201.644819 
L 254.081566 200.266314 
L 256.090366 193.518907 
L 256.607784 191.559982 
L 257.703493 187.738869 
L 258.06873 186.481287 
L 258.281784 185.731575 
L 262.451566 169.576489 
L 262.573311 169.213725 
L 263.273348 166.867852 
L 265.556075 159.975337 
L 267.68662 155.138485 
L 267.838802 154.896643 
L 268.234475 154.219484 
L 268.417093 153.953457 
L 269.086693 153.082823 
L 269.36062 152.768428 
L 269.573675 152.526585 
L 269.938911 152.115452 
L 269.969348 152.139637 
L 269.999784 152.091269 
L 270.243275 151.873609 
L 270.334584 151.849426 
L 270.486766 151.752688 
L 270.608511 151.728505 
L 270.852002 151.655951 
L 271.612911 151.752688 
L 272.982548 152.961901 
L 273.46953 153.542324 
L 273.926075 154.001825 
L 274.13913 154.267852 
L 274.443493 154.630616 
L 274.900039 155.186853 
L 274.991348 155.283591 
L 275.265275 155.670538 
L 278.643711 161.208735 
L 278.887202 161.644051 
L 280.713384 164.352689 
L 280.956875 164.667084 
L 282.143893 166.359982 
L 282.356948 166.650193 
L 282.965675 167.42409 
L 283.08742 167.520827 
L 285.065784 168.996067 
L 285.157093 169.020251 
L 285.400584 169.116988 
L 285.552766 169.116988 
L 286.648475 169.044435 
L 286.800657 168.947698 
L 286.891966 168.89933 
L 287.10502 168.826777 
L 287.287639 168.657487 
L 287.318075 168.681671 
L 288.383348 167.714301 
L 289.235566 166.553456 
L 289.509493 166.214877 
L 289.905166 165.537717 
L 290.970439 163.651345 
L 291.640039 162.321211 
L 292.279202 161.111997 
L 294.866293 154.678984 
L 295.292402 153.421403 
L 295.444584 153.058638 
L 295.718511 152.260558 
L 296.266366 150.712765 
L 296.57073 149.793764 
L 298.883893 142.804512 
L 299.24913 141.667852 
L 300.040475 139.491268 
L 300.223093 139.031767 
L 301.075311 136.685894 
L 301.379675 136.008735 
L 303.297166 131.703934 
L 303.449348 131.462096 
L 303.84502 130.76075 
L 303.905893 130.664011 
L 306.827784 126.214109 
L 307.040839 125.9239 
L 307.832184 124.859792 
L 309.171384 123.89242 
L 309.29313 123.868236 
L 309.688802 123.771501 
L 309.993166 123.626391 
L 310.114911 123.626391 
L 310.29753 123.602207 
L 310.419275 123.650577 
L 310.54102 123.674762 
L 310.784511 123.747315 
L 310.936693 123.747315 
L 311.484548 123.84405 
L 311.849784 124.037524 
L 311.941093 124.061708 
L 312.154148 124.206817 
L 312.275893 124.303553 
L 313.097675 125.077451 
L 313.523784 125.827161 
L 314.22382 127.108927 
L 314.589057 127.931192 
L 314.832548 128.511612 
L 316.019566 131.607199 
L 316.932657 134.872076 
L 317.845748 138.93503 
L 319.793675 148.729656 
L 320.402402 152.284742 
L 321.376366 158.282439 
L 323.050366 169.455568 
L 323.35473 171.414493 
L 324.754802 180.628696 
L 326.36793 191.584166 
L 328.011493 202.539638 
L 330.142039 215.381477 
L 331.846475 224.305469 
L 332.150839 225.635606 
L 332.820439 228.295876 
L 333.703093 231.391464 
L 334.007457 232.383016 
L 334.494439 233.882437 
L 335.011857 235.381865 
L 335.498839 236.566888 
L 336.046693 237.630999 
L 336.138002 237.800289 
L 336.503239 238.429083 
L 336.594548 238.525815 
L 337.32502 239.493187 
L 338.785966 240.53311 
L 339.942548 240.460559 
L 340.216475 240.218713 
L 340.612148 239.783396 
L 340.916511 239.275529 
L 340.977384 239.227158 
L 341.34262 238.622554 
L 341.829602 237.655181 
L 342.34702 236.373417 
L 342.894875 234.825629 
L 345.147166 225.442132 
L 348.190802 207.90854 
L 348.677784 204.571114 
L 349.103893 201.620635 
L 352.14753 179.080904 
L 354.186766 162.224473 
L 358.782657 126.576875 
L 363.19593 99.20029 
L 365.296039 89.695875 
L 367.030911 84.520443 
L 367.45702 83.64981 
L 367.730948 83.117754 
L 367.944002 82.827545 
L 368.21793 82.440597 
L 368.79622 81.860173 
L 369.009275 81.690883 
L 369.252766 81.594146 
L 369.374511 81.569964 
L 370.409348 81.666703 
L 370.652839 81.884361 
L 370.80502 81.981092 
L 371.413748 82.561518 
L 371.718111 83.045203 
L 371.870293 83.287042 
L 373.48342 87.374184 
L 375.857457 97.192994 
L 376.648802 101.521981 
L 377.16622 104.520831 
L 381.85342 138.838293 
L 382.918693 147.44789 
L 382.918693 147.44789 
" style="fill:none;stroke:#0000ff;stroke-linecap:square;stroke-width:1.5;"/>
   </g>
   <g id="line2d_32">
    <path clip-path="url(#p88df1b130d)" d="M 78.555057 166.775226 
L 86.407639 166.884055 
L 86.712002 166.896147 
L 90.760039 166.992884 
L 90.942657 167.004976 
L 91.216584 167.004976 
L 94.960257 167.113806 
L 95.26462 167.125898 
L 100.71273 167.234727 
L 101.169275 167.30728 
L 101.38233 167.319372 
L 101.869311 167.428201 
L 102.021493 167.440293 
L 103.756366 168.238374 
L 104.30422 168.734151 
L 104.425966 168.84298 
L 105.521675 170.31822 
L 106.586948 172.216684 
L 108.017457 175.300178 
L 109.265348 178.444132 
L 112.613348 186.158911 
L 114.01342 188.190389 
L 115.078693 188.915917 
L 115.35262 189.012654 
L 115.626548 189.097299 
L 115.930911 189.121483 
L 117.422293 187.803441 
L 117.757093 187.247203 
L 118.426693 185.929161 
L 119.218039 184.115342 
L 120.678984 179.73799 
L 122.626911 171.575802 
L 129.596839 136.157952 
L 130.205566 133.775804 
L 130.875166 131.296915 
L 131.453457 129.434729 
L 131.940439 127.778105 
L 132.792657 124.839718 
L 133.401384 123.134729 
L 133.949239 121.56275 
L 135.805857 117.415149 
L 136.597202 115.952 
L 137.145057 114.924171 
L 138.45382 113.533576 
L 138.87993 113.642405 
L 140.097384 114.742789 
L 140.523493 115.419948 
L 142.106184 118.805744 
L 142.867093 121.248357 
L 145.423748 133.969276 
L 146.82382 142.965821 
L 147.82822 150.922443 
L 150.232693 171.914382 
L 152.911093 197.416683 
L 156.19822 225.180216 
L 156.95913 230.36774 
L 158.937493 240.754882 
L 159.820148 244.164859 
L 160.428875 245.894039 
L 161.068039 247.357185 
L 162.102875 248.421289 
L 162.437675 248.566396 
L 162.742039 248.469657 
L 163.807311 247.054882 
L 164.476911 245.1806 
L 165.846548 239.872153 
L 166.729202 235.144131 
L 167.885784 227.598644 
L 169.468475 216.159487 
L 171.02073 203.63204 
L 178.081966 142.869084 
L 180.456002 126.085207 
L 181.490839 119.482904 
L 182.221311 115.516683 
L 184.047493 108.019566 
L 185.569311 104.113808 
L 186.33022 102.844132 
L 187.060693 102.130693 
L 187.608548 102.021867 
L 188.00422 102.118606 
L 188.491202 102.626474 
L 189.860839 105.564862 
L 191.869639 112.30018 
L 192.752293 117.016107 
L 193.969748 124.936455 
L 195.308948 135.287318 
L 196.435093 145.601906 
L 198.017784 161.079833 
L 200.48313 184.478105 
L 202.309311 199.472349 
L 203.526766 207.864285 
L 204.470293 212.834149 
L 205.292075 216.522253 
L 206.722584 221.782325 
L 207.361748 223.052001 
L 207.970475 223.608239 
L 208.396584 223.511504 
L 208.822693 223.305936 
L 209.127057 223.076185 
L 209.309675 222.822249 
L 210.040148 221.12935 
L 210.709748 219.267164 
L 211.288039 217.066395 
L 212.840293 209.799026 
L 214.54473 198.976567 
L 223.675639 130.897875 
L 226.049675 117.403059 
L 228.393275 106.761984 
L 228.697639 105.613232 
L 229.245493 103.714766 
L 230.736875 99.337416 
L 231.86302 97.330121 
L 232.350002 97.076188 
L 232.654366 97.052 
L 233.323966 97.42686 
L 233.780511 98.140292 
L 234.115311 98.853729 
L 235.21102 102.227432 
L 236.824148 109.772923 
L 237.585057 114.283286 
L 238.498148 120.365629 
L 240.65913 136.593268 
L 242.698366 154.513805 
L 248.876948 212.398832 
L 251.37273 230.416108 
L 252.255384 235.639911 
L 253.472839 241.371581 
L 254.690293 245.773112 
L 255.329457 247.441828 
L 255.96862 248.687316 
L 256.486039 249.304016 
L 257.520875 249.993266 
L 257.794802 250.017454 
L 258.038293 249.956991 
L 258.373093 249.860252 
L 258.586148 249.715152 
L 259.134002 249.14682 
L 260.899311 245.398258 
L 262.299384 240.609772 
L 264.247311 231.601139 
L 266.377857 220.041062 
L 278.73502 142.179833 
L 280.561202 131.405744 
L 283.726584 113.182904 
L 286.983275 98.176566 
L 287.86593 95.419564 
L 288.931202 93.158336 
L 289.87473 91.86448 
L 290.361711 91.453343 
L 291.366111 91.163134 
L 292.066148 91.550082 
L 293.648839 93.605747 
L 294.531493 95.214 
L 295.90113 98.756992 
L 296.662039 101.538182 
L 297.788184 106.447587 
L 299.005639 112.771771 
L 300.953566 125.03319 
L 304.362439 148.612846 
L 305.488584 155.481176 
L 307.52782 167.766781 
L 308.014802 170.608431 
L 312.30633 193.861598 
L 313.797711 199.895571 
L 316.384802 206.763901 
L 316.99353 207.936838 
L 317.66313 209.02513 
L 318.941457 210.379446 
L 319.519748 210.705934 
L 319.793675 210.814763 
L 320.58502 211.020331 
L 321.711166 210.68175 
L 321.985093 210.585015 
L 322.92862 209.968314 
L 323.26342 209.738565 
L 325.241784 207.211308 
L 327.007093 203.269276 
L 327.28102 202.640485 
L 328.346293 199.823016 
L 333.368293 183.498642 
L 339.820802 160.813806 
L 340.216475 159.592501 
L 341.860039 155.336071 
L 344.02102 151.285207 
L 344.44713 150.789429 
L 344.69062 150.583863 
L 344.994984 150.390389 
L 345.603711 150.257377 
L 347.338584 150.366206 
L 348.647348 150.982904 
L 349.13433 151.394036 
L 349.621311 151.913998 
L 350.443093 153.050658 
L 350.534402 153.159487 
L 351.660548 155.142596 
L 354.15633 161.370044 
L 355.130293 164.405168 
L 357.930439 172.954305 
L 360.030548 177.706511 
L 361.278439 179.036646 
L 361.552366 179.242213 
L 362.10022 179.73799 
L 362.282839 179.846819 
L 363.469857 180.221675 
L 365.235166 179.411502 
L 366.239566 178.492501 
L 367.365711 176.497299 
L 368.278802 174.453729 
L 369.009275 172.494804 
L 369.678875 170.306128 
L 370.47022 167.065437 
L 371.200693 163.728009 
L 377.105348 135.045476 
L 378.657602 127.608817 
L 379.722875 123.062174 
L 380.84902 118.624361 
L 382.462148 113.267549 
L 382.918693 111.913228 
L 382.918693 111.913228 
" style="fill:none;stroke:#ff0000;stroke-linecap:square;stroke-width:1.5;"/>
   </g>
   <g id="line2d_33">
    <path clip-path="url(#p88df1b130d)" d="M 133.005711 174.776105 
" style="fill:none;stroke:#ffffff;stroke-linecap:square;stroke-width:1.5;"/>
    <defs>
     <path d="M 0 -5 
L -1.12257 -1.545085 
L -4.755283 -1.545085 
L -1.816356 0.59017 
L -2.938926 4.045085 
L -0 1.90983 
L 2.938926 4.045085 
L 1.816356 0.59017 
L 4.755283 -1.545085 
L 1.12257 -1.545085 
z
" id="me87d81e31a" style="stroke:#ffffff;stroke-linejoin:bevel;"/>
    </defs>
    <g clip-path="url(#p88df1b130d)">
     <use style="fill:#0000ff;stroke:#ffffff;stroke-linejoin:bevel;" x="133.005711" xlink:href="#me87d81e31a" y="174.776105"/>
    </g>
   </g>
   <g id="line2d_34">
    <path clip-path="url(#p88df1b130d)" d="M 105.947784 171.031656 
" style="fill:none;stroke:#ffffff;stroke-linecap:square;stroke-width:1.5;"/>
    <defs>
     <path d="M 0 -5 
L -1.12257 -1.545085 
L -4.755283 -1.545085 
L -1.816356 0.59017 
L -2.938926 4.045085 
L -0 1.90983 
L 2.938926 4.045085 
L 1.816356 0.59017 
L 4.755283 -1.545085 
L 1.12257 -1.545085 
z
" id="me882ac2700" style="stroke:#ffffff;stroke-linejoin:bevel;"/>
    </defs>
    <g clip-path="url(#p88df1b130d)">
     <use style="fill:#ff0000;stroke:#ffffff;stroke-linejoin:bevel;" x="105.947784" xlink:href="#me882ac2700" y="171.031656"/>
    </g>
   </g>
   <g id="patch_3">
    <path d="M 63.336875 340.51568 
L 63.336875 7.87568 
" style="fill:none;stroke:#000000;stroke-linecap:square;stroke-linejoin:miter;stroke-width:0.8;"/>
   </g>
   <g id="patch_4">
    <path d="M 398.136875 340.51568 
L 398.136875 7.87568 
" style="fill:none;stroke:#000000;stroke-linecap:square;stroke-linejoin:miter;stroke-width:0.8;"/>
   </g>
   <g id="patch_5">
    <path d="M 63.336875 340.51568 
L 398.136875 340.51568 
" style="fill:none;stroke:#000000;stroke-linecap:square;stroke-linejoin:miter;stroke-width:0.8;"/>
   </g>
   <g id="patch_6">
    <path d="M 63.336875 7.87568 
L 398.136875 7.87568 
" style="fill:none;stroke:#000000;stroke-linecap:square;stroke-linejoin:miter;stroke-width:0.8;"/>
   </g>
   <g id="text_18">
    <g id="patch_7">
     <path d="M 75.036875 331.918367 
L 166.79375 331.918367 
L 166.79375 294.435992 
L 75.036875 294.435992 
z
" style="fill:#ffffff;stroke:#000000;stroke-linejoin:miter;stroke-width:0.75;"/>
    </g>
    <!-- Auto_00005 -->
    <g transform="translate(80.076875 309.197242)scale(0.14 -0.14)">
     <defs>
      <path d="M 2928 1419 
L 1288 1419 
L 1000 750 
Q 894 503 894 381 
Q 894 284 986 211 
Q 1078 138 1384 116 
L 1384 0 
L 50 0 
L 50 116 
Q 316 163 394 238 
Q 553 388 747 847 
L 2238 4334 
L 2347 4334 
L 3822 809 
Q 4000 384 4145 257 
Q 4291 131 4550 116 
L 4550 0 
L 2878 0 
L 2878 116 
Q 3131 128 3220 200 
Q 3309 272 3309 375 
Q 3309 513 3184 809 
L 2928 1419 
z
M 2841 1650 
L 2122 3363 
L 1384 1650 
L 2841 1650 
z
" id="TimesNewRomanPSMT-41" transform="scale(0.015625)"/>
      <path d="M 2709 2863 
L 2709 1128 
Q 2709 631 2732 520 
Q 2756 409 2807 365 
Q 2859 322 2928 322 
Q 3025 322 3147 375 
L 3191 266 
L 2334 -88 
L 2194 -88 
L 2194 519 
Q 1825 119 1631 15 
Q 1438 -88 1222 -88 
Q 981 -88 804 51 
Q 628 191 559 409 
Q 491 628 491 1028 
L 491 2306 
Q 491 2509 447 2587 
Q 403 2666 317 2708 
Q 231 2750 6 2747 
L 6 2863 
L 1009 2863 
L 1009 947 
Q 1009 547 1148 422 
Q 1288 297 1484 297 
Q 1619 297 1789 381 
Q 1959 466 2194 703 
L 2194 2325 
Q 2194 2569 2105 2655 
Q 2016 2741 1734 2747 
L 1734 2863 
L 2709 2863 
z
" id="TimesNewRomanPSMT-75" transform="scale(0.015625)"/>
      <path d="M 3256 -1381 
L -53 -1381 
L -53 -1119 
L 3256 -1119 
L 3256 -1381 
z
" id="TimesNewRomanPSMT-5f" transform="scale(0.015625)"/>
     </defs>
     <use xlink:href="#TimesNewRomanPSMT-41"/>
     <use x="72.216797" xlink:href="#TimesNewRomanPSMT-75"/>
     <use x="122.216797" xlink:href="#TimesNewRomanPSMT-74"/>
     <use x="150" xlink:href="#TimesNewRomanPSMT-6f"/>
     <use x="200" xlink:href="#TimesNewRomanPSMT-5f"/>
     <use x="250" xlink:href="#TimesNewRomanPSMT-30"/>
     <use x="300" xlink:href="#TimesNewRomanPSMT-30"/>
     <use x="350" xlink:href="#TimesNewRomanPSMT-30"/>
     <use x="400" xlink:href="#TimesNewRomanPSMT-30"/>
     <use x="450" xlink:href="#TimesNewRomanPSMT-35"/>
    </g>
    <!-- Vs: 224.86m/s -->
    <g transform="translate(80.076875 323.88368)scale(0.14 -0.14)">
     <defs>
      <path d="M 903 2950 
Q 1047 2950 1148 2848 
Q 1250 2747 1250 2603 
Q 1250 2459 1148 2357 
Q 1047 2256 903 2256 
Q 759 2256 657 2357 
Q 556 2459 556 2603 
Q 556 2747 657 2848 
Q 759 2950 903 2950 
z
M 897 609 
Q 1044 609 1145 506 
Q 1247 403 1247 259 
Q 1247 116 1144 14 
Q 1041 -88 897 -88 
Q 753 -88 651 14 
Q 550 116 550 259 
Q 550 403 651 506 
Q 753 609 897 609 
z
" id="TimesNewRomanPSMT-3a" transform="scale(0.015625)"/>
      <path d="M 1794 4444 
L 259 -88 
L 9 -88 
L 1544 4444 
L 1794 4444 
z
" id="TimesNewRomanPSMT-2f" transform="scale(0.015625)"/>
     </defs>
     <use xlink:href="#TimesNewRomanPSMT-56"/>
     <use x="72.216797" xlink:href="#TimesNewRomanPSMT-73"/>
     <use x="111.132812" xlink:href="#TimesNewRomanPSMT-3a"/>
     <use x="138.916016" xlink:href="#TimesNewRomanPSMT-20"/>
     <use x="163.916016" xlink:href="#TimesNewRomanPSMT-32"/>
     <use x="213.916016" xlink:href="#TimesNewRomanPSMT-32"/>
     <use x="263.916016" xlink:href="#TimesNewRomanPSMT-34"/>
     <use x="313.916016" xlink:href="#TimesNewRomanPSMT-2e"/>
     <use x="338.916016" xlink:href="#TimesNewRomanPSMT-38"/>
     <use x="388.916016" xlink:href="#TimesNewRomanPSMT-36"/>
     <use x="438.916016" xlink:href="#TimesNewRomanPSMT-6d"/>
     <use x="516.699219" xlink:href="#TimesNewRomanPSMT-2f"/>
     <use x="544.482422" xlink:href="#TimesNewRomanPSMT-73"/>
    </g>
   </g>
  </g>
 </g>
 <defs>
  <clipPath id="p88df1b130d">
   <rect height="332.64" width="334.8" x="63.336875" y="7.87568"/>
  </clipPath>
 </defs>
</svg>
