<?xml version="1.0" encoding="utf-8" standalone="no"?>
<!DOCTYPE svg PUBLIC "-//W3C//DTD SVG 1.1//EN"
  "http://www.w3.org/Graphics/SVG/1.1/DTD/svg11.dtd">
<svg height="383.471875pt" version="1.1" viewBox="0 0 421.086875 383.471875" width="421.086875pt" xmlns="http://www.w3.org/2000/svg" xmlns:xlink="http://www.w3.org/1999/xlink">
 <metadata>
  <rdf:RDF xmlns:cc="http://creativecommons.org/ns#" xmlns:dc="http://purl.org/dc/elements/1.1/" xmlns:rdf="http://www.w3.org/1999/02/22-rdf-syntax-ns#">
   <cc:Work>
    <dc:type rdf:resource="http://purl.org/dc/dcmitype/StillImage"/>
    <dc:date>2021-06-11T14:39:39.339905</dc:date>
    <dc:format>image/svg+xml</dc:format>
    <dc:creator>
     <cc:Agent>
      <dc:title>Matplotlib v3.4.2, https://matplotlib.org/</dc:title>
     </cc:Agent>
    </dc:creator>
   </cc:Work>
  </rdf:RDF>
 </metadata>
 <defs>
  <style type="text/css">*{stroke-linecap:butt;stroke-linejoin:round;}</style>
 </defs>
 <g id="figure_1">
  <g id="patch_1">
   <path d="M 0 383.471875 
L 421.086875 383.471875 
L 421.086875 0 
L 0 0 
z
" style="fill:#ffffff;"/>
  </g>
  <g id="axes_1">
   <g id="patch_2">
    <path d="M 63.336875 339.84 
L 398.136875 339.84 
L 398.136875 7.2 
L 63.336875 7.2 
z
" style="fill:#ffffff;"/>
   </g>
   <g id="matplotlib.axis_1">
    <g id="xtick_1">
     <g id="line2d_1">
      <path clip-path="url(#p621137dde6)" d="M 93.773239 339.84 
L 93.773239 7.2 
" style="fill:none;stroke:#000000;stroke-dasharray:0.5,0.825;stroke-dashoffset:0;stroke-width:0.5;"/>
     </g>
     <g id="line2d_2">
      <defs>
       <path d="M 0 0 
L 0 3.5 
" id="m16dfbd9d86" style="stroke:#000000;stroke-width:0.8;"/>
      </defs>
      <g>
       <use style="stroke:#000000;stroke-width:0.8;" x="93.773239" xlink:href="#m16dfbd9d86" y="339.84"/>
      </g>
     </g>
     <g id="text_1">
      <!-- 0.000 -->
      <g transform="translate(78.023239 356.56125)scale(0.14 -0.14)">
       <defs>
        <path d="M 231 2094 
Q 231 2819 450 3342 
Q 669 3866 1031 4122 
Q 1313 4325 1613 4325 
Q 2100 4325 2488 3828 
Q 2972 3213 2972 2159 
Q 2972 1422 2759 906 
Q 2547 391 2217 158 
Q 1888 -75 1581 -75 
Q 975 -75 572 641 
Q 231 1244 231 2094 
z
M 844 2016 
Q 844 1141 1059 588 
Q 1238 122 1591 122 
Q 1759 122 1940 273 
Q 2122 425 2216 781 
Q 2359 1319 2359 2297 
Q 2359 3022 2209 3506 
Q 2097 3866 1919 4016 
Q 1791 4119 1609 4119 
Q 1397 4119 1231 3928 
Q 1006 3669 925 3112 
Q 844 2556 844 2016 
z
" id="TimesNewRomanPSMT-30" transform="scale(0.015625)"/>
        <path d="M 800 606 
Q 947 606 1047 504 
Q 1147 403 1147 259 
Q 1147 116 1045 14 
Q 944 -88 800 -88 
Q 656 -88 554 14 
Q 453 116 453 259 
Q 453 406 554 506 
Q 656 606 800 606 
z
" id="TimesNewRomanPSMT-2e" transform="scale(0.015625)"/>
       </defs>
       <use xlink:href="#TimesNewRomanPSMT-30"/>
       <use x="50" xlink:href="#TimesNewRomanPSMT-2e"/>
       <use x="75" xlink:href="#TimesNewRomanPSMT-30"/>
       <use x="125" xlink:href="#TimesNewRomanPSMT-30"/>
       <use x="175" xlink:href="#TimesNewRomanPSMT-30"/>
      </g>
     </g>
    </g>
    <g id="xtick_2">
     <g id="line2d_3">
      <path clip-path="url(#p621137dde6)" d="M 154.645966 339.84 
L 154.645966 7.2 
" style="fill:none;stroke:#000000;stroke-dasharray:0.5,0.825;stroke-dashoffset:0;stroke-width:0.5;"/>
     </g>
     <g id="line2d_4">
      <g>
       <use style="stroke:#000000;stroke-width:0.8;" x="154.645966" xlink:href="#m16dfbd9d86" y="339.84"/>
      </g>
     </g>
     <g id="text_2">
      <!-- 0.001 -->
      <g transform="translate(138.895966 356.56125)scale(0.14 -0.14)">
       <defs>
        <path d="M 750 3822 
L 1781 4325 
L 1884 4325 
L 1884 747 
Q 1884 391 1914 303 
Q 1944 216 2037 169 
Q 2131 122 2419 116 
L 2419 0 
L 825 0 
L 825 116 
Q 1125 122 1212 167 
Q 1300 213 1334 289 
Q 1369 366 1369 747 
L 1369 3034 
Q 1369 3497 1338 3628 
Q 1316 3728 1258 3775 
Q 1200 3822 1119 3822 
Q 1003 3822 797 3725 
L 750 3822 
z
" id="TimesNewRomanPSMT-31" transform="scale(0.015625)"/>
       </defs>
       <use xlink:href="#TimesNewRomanPSMT-30"/>
       <use x="50" xlink:href="#TimesNewRomanPSMT-2e"/>
       <use x="75" xlink:href="#TimesNewRomanPSMT-30"/>
       <use x="125" xlink:href="#TimesNewRomanPSMT-30"/>
       <use x="175" xlink:href="#TimesNewRomanPSMT-31"/>
      </g>
     </g>
    </g>
    <g id="xtick_3">
     <g id="line2d_5">
      <path clip-path="url(#p621137dde6)" d="M 215.518693 339.84 
L 215.518693 7.2 
" style="fill:none;stroke:#000000;stroke-dasharray:0.5,0.825;stroke-dashoffset:0;stroke-width:0.5;"/>
     </g>
     <g id="line2d_6">
      <g>
       <use style="stroke:#000000;stroke-width:0.8;" x="215.518693" xlink:href="#m16dfbd9d86" y="339.84"/>
      </g>
     </g>
     <g id="text_3">
      <!-- 0.002 -->
      <g transform="translate(199.768693 356.56125)scale(0.14 -0.14)">
       <defs>
        <path d="M 2934 816 
L 2638 0 
L 138 0 
L 138 116 
Q 1241 1122 1691 1759 
Q 2141 2397 2141 2925 
Q 2141 3328 1894 3587 
Q 1647 3847 1303 3847 
Q 991 3847 742 3664 
Q 494 3481 375 3128 
L 259 3128 
Q 338 3706 661 4015 
Q 984 4325 1469 4325 
Q 1984 4325 2329 3994 
Q 2675 3663 2675 3213 
Q 2675 2891 2525 2569 
Q 2294 2063 1775 1497 
Q 997 647 803 472 
L 1909 472 
Q 2247 472 2383 497 
Q 2519 522 2628 598 
Q 2738 675 2819 816 
L 2934 816 
z
" id="TimesNewRomanPSMT-32" transform="scale(0.015625)"/>
       </defs>
       <use xlink:href="#TimesNewRomanPSMT-30"/>
       <use x="50" xlink:href="#TimesNewRomanPSMT-2e"/>
       <use x="75" xlink:href="#TimesNewRomanPSMT-30"/>
       <use x="125" xlink:href="#TimesNewRomanPSMT-30"/>
       <use x="175" xlink:href="#TimesNewRomanPSMT-32"/>
      </g>
     </g>
    </g>
    <g id="xtick_4">
     <g id="line2d_7">
      <path clip-path="url(#p621137dde6)" d="M 276.39142 339.84 
L 276.39142 7.2 
" style="fill:none;stroke:#000000;stroke-dasharray:0.5,0.825;stroke-dashoffset:0;stroke-width:0.5;"/>
     </g>
     <g id="line2d_8">
      <g>
       <use style="stroke:#000000;stroke-width:0.8;" x="276.39142" xlink:href="#m16dfbd9d86" y="339.84"/>
      </g>
     </g>
     <g id="text_4">
      <!-- 0.003 -->
      <g transform="translate(260.64142 356.56125)scale(0.14 -0.14)">
       <defs>
        <path d="M 325 3431 
Q 506 3859 782 4092 
Q 1059 4325 1472 4325 
Q 1981 4325 2253 3994 
Q 2459 3747 2459 3466 
Q 2459 3003 1878 2509 
Q 2269 2356 2469 2072 
Q 2669 1788 2669 1403 
Q 2669 853 2319 450 
Q 1863 -75 997 -75 
Q 569 -75 414 31 
Q 259 138 259 259 
Q 259 350 332 419 
Q 406 488 509 488 
Q 588 488 669 463 
Q 722 447 909 348 
Q 1097 250 1169 231 
Q 1284 197 1416 197 
Q 1734 197 1970 444 
Q 2206 691 2206 1028 
Q 2206 1275 2097 1509 
Q 2016 1684 1919 1775 
Q 1784 1900 1550 2001 
Q 1316 2103 1072 2103 
L 972 2103 
L 972 2197 
Q 1219 2228 1467 2375 
Q 1716 2522 1828 2728 
Q 1941 2934 1941 3181 
Q 1941 3503 1739 3701 
Q 1538 3900 1238 3900 
Q 753 3900 428 3381 
L 325 3431 
z
" id="TimesNewRomanPSMT-33" transform="scale(0.015625)"/>
       </defs>
       <use xlink:href="#TimesNewRomanPSMT-30"/>
       <use x="50" xlink:href="#TimesNewRomanPSMT-2e"/>
       <use x="75" xlink:href="#TimesNewRomanPSMT-30"/>
       <use x="125" xlink:href="#TimesNewRomanPSMT-30"/>
       <use x="175" xlink:href="#TimesNewRomanPSMT-33"/>
      </g>
     </g>
    </g>
    <g id="xtick_5">
     <g id="line2d_9">
      <path clip-path="url(#p621137dde6)" d="M 337.264148 339.84 
L 337.264148 7.2 
" style="fill:none;stroke:#000000;stroke-dasharray:0.5,0.825;stroke-dashoffset:0;stroke-width:0.5;"/>
     </g>
     <g id="line2d_10">
      <g>
       <use style="stroke:#000000;stroke-width:0.8;" x="337.264148" xlink:href="#m16dfbd9d86" y="339.84"/>
      </g>
     </g>
     <g id="text_5">
      <!-- 0.004 -->
      <g transform="translate(321.514148 356.56125)scale(0.14 -0.14)">
       <defs>
        <path d="M 2978 1563 
L 2978 1119 
L 2409 1119 
L 2409 0 
L 1894 0 
L 1894 1119 
L 100 1119 
L 100 1519 
L 2066 4325 
L 2409 4325 
L 2409 1563 
L 2978 1563 
z
M 1894 1563 
L 1894 3666 
L 406 1563 
L 1894 1563 
z
" id="TimesNewRomanPSMT-34" transform="scale(0.015625)"/>
       </defs>
       <use xlink:href="#TimesNewRomanPSMT-30"/>
       <use x="50" xlink:href="#TimesNewRomanPSMT-2e"/>
       <use x="75" xlink:href="#TimesNewRomanPSMT-30"/>
       <use x="125" xlink:href="#TimesNewRomanPSMT-30"/>
       <use x="175" xlink:href="#TimesNewRomanPSMT-34"/>
      </g>
     </g>
    </g>
    <g id="xtick_6">
     <g id="line2d_11">
      <path clip-path="url(#p621137dde6)" d="M 398.136875 339.84 
L 398.136875 7.2 
" style="fill:none;stroke:#000000;stroke-dasharray:0.5,0.825;stroke-dashoffset:0;stroke-width:0.5;"/>
     </g>
     <g id="line2d_12">
      <g>
       <use style="stroke:#000000;stroke-width:0.8;" x="398.136875" xlink:href="#m16dfbd9d86" y="339.84"/>
      </g>
     </g>
     <g id="text_6">
      <!-- 0.005 -->
      <g transform="translate(382.386875 356.56125)scale(0.14 -0.14)">
       <defs>
        <path d="M 2778 4238 
L 2534 3706 
L 1259 3706 
L 981 3138 
Q 1809 3016 2294 2522 
Q 2709 2097 2709 1522 
Q 2709 1188 2573 903 
Q 2438 619 2231 419 
Q 2025 219 1772 97 
Q 1413 -75 1034 -75 
Q 653 -75 479 54 
Q 306 184 306 341 
Q 306 428 378 495 
Q 450 563 559 563 
Q 641 563 702 538 
Q 763 513 909 409 
Q 1144 247 1384 247 
Q 1750 247 2026 523 
Q 2303 800 2303 1197 
Q 2303 1581 2056 1914 
Q 1809 2247 1375 2428 
Q 1034 2569 447 2591 
L 1259 4238 
L 2778 4238 
z
" id="TimesNewRomanPSMT-35" transform="scale(0.015625)"/>
       </defs>
       <use xlink:href="#TimesNewRomanPSMT-30"/>
       <use x="50" xlink:href="#TimesNewRomanPSMT-2e"/>
       <use x="75" xlink:href="#TimesNewRomanPSMT-30"/>
       <use x="125" xlink:href="#TimesNewRomanPSMT-30"/>
       <use x="175" xlink:href="#TimesNewRomanPSMT-35"/>
      </g>
     </g>
    </g>
    <g id="text_7">
     <!-- Time (sec) -->
     <g transform="translate(200.858906 373.277188)scale(0.14 -0.14)">
      <defs>
       <path d="M 3703 4238 
L 3750 3244 
L 3631 3244 
Q 3597 3506 3538 3619 
Q 3441 3800 3280 3886 
Q 3119 3972 2856 3972 
L 2259 3972 
L 2259 734 
Q 2259 344 2344 247 
Q 2463 116 2709 116 
L 2856 116 
L 2856 0 
L 1059 0 
L 1059 116 
L 1209 116 
Q 1478 116 1591 278 
Q 1659 378 1659 734 
L 1659 3972 
L 1150 3972 
Q 853 3972 728 3928 
Q 566 3869 450 3700 
Q 334 3531 313 3244 
L 194 3244 
L 244 4238 
L 3703 4238 
z
" id="TimesNewRomanPSMT-54" transform="scale(0.015625)"/>
       <path d="M 928 4444 
Q 1059 4444 1151 4351 
Q 1244 4259 1244 4128 
Q 1244 3997 1151 3903 
Q 1059 3809 928 3809 
Q 797 3809 703 3903 
Q 609 3997 609 4128 
Q 609 4259 701 4351 
Q 794 4444 928 4444 
z
M 1188 2947 
L 1188 647 
Q 1188 378 1227 289 
Q 1266 200 1342 156 
Q 1419 113 1622 113 
L 1622 0 
L 231 0 
L 231 113 
Q 441 113 512 153 
Q 584 194 626 287 
Q 669 381 669 647 
L 669 1750 
Q 669 2216 641 2353 
Q 619 2453 572 2492 
Q 525 2531 444 2531 
Q 356 2531 231 2484 
L 188 2597 
L 1050 2947 
L 1188 2947 
z
" id="TimesNewRomanPSMT-69" transform="scale(0.015625)"/>
       <path d="M 1050 2338 
Q 1363 2650 1419 2697 
Q 1559 2816 1721 2881 
Q 1884 2947 2044 2947 
Q 2313 2947 2506 2790 
Q 2700 2634 2766 2338 
Q 3088 2713 3309 2830 
Q 3531 2947 3766 2947 
Q 3994 2947 4170 2830 
Q 4347 2713 4450 2447 
Q 4519 2266 4519 1878 
L 4519 647 
Q 4519 378 4559 278 
Q 4591 209 4675 161 
Q 4759 113 4950 113 
L 4950 0 
L 3538 0 
L 3538 113 
L 3597 113 
Q 3781 113 3884 184 
Q 3956 234 3988 344 
Q 4000 397 4000 647 
L 4000 1878 
Q 4000 2228 3916 2372 
Q 3794 2572 3525 2572 
Q 3359 2572 3192 2489 
Q 3025 2406 2788 2181 
L 2781 2147 
L 2788 2013 
L 2788 647 
Q 2788 353 2820 281 
Q 2853 209 2943 161 
Q 3034 113 3253 113 
L 3253 0 
L 1806 0 
L 1806 113 
Q 2044 113 2133 169 
Q 2222 225 2256 338 
Q 2272 391 2272 647 
L 2272 1878 
Q 2272 2228 2169 2381 
Q 2031 2581 1784 2581 
Q 1616 2581 1450 2491 
Q 1191 2353 1050 2181 
L 1050 647 
Q 1050 366 1089 281 
Q 1128 197 1204 155 
Q 1281 113 1516 113 
L 1516 0 
L 100 0 
L 100 113 
Q 297 113 375 155 
Q 453 197 493 289 
Q 534 381 534 647 
L 534 1741 
Q 534 2213 506 2350 
Q 484 2453 437 2492 
Q 391 2531 309 2531 
Q 222 2531 100 2484 
L 53 2597 
L 916 2947 
L 1050 2947 
L 1050 2338 
z
" id="TimesNewRomanPSMT-6d" transform="scale(0.015625)"/>
       <path d="M 681 1784 
Q 678 1147 991 784 
Q 1303 422 1725 422 
Q 2006 422 2214 576 
Q 2422 731 2563 1106 
L 2659 1044 
Q 2594 616 2278 264 
Q 1963 -88 1488 -88 
Q 972 -88 605 314 
Q 238 716 238 1394 
Q 238 2128 614 2539 
Q 991 2950 1559 2950 
Q 2041 2950 2350 2633 
Q 2659 2316 2659 1784 
L 681 1784 
z
M 681 1966 
L 2006 1966 
Q 1991 2241 1941 2353 
Q 1863 2528 1708 2628 
Q 1553 2728 1384 2728 
Q 1125 2728 920 2526 
Q 716 2325 681 1966 
z
" id="TimesNewRomanPSMT-65" transform="scale(0.015625)"/>
       <path id="TimesNewRomanPSMT-20" transform="scale(0.015625)"/>
       <path d="M 1988 -1253 
L 1988 -1369 
Q 1516 -1131 1200 -813 
Q 750 -359 506 256 
Q 263 872 263 1534 
Q 263 2503 741 3301 
Q 1219 4100 1988 4444 
L 1988 4313 
Q 1603 4100 1356 3731 
Q 1109 3363 987 2797 
Q 866 2231 866 1616 
Q 866 947 969 400 
Q 1050 -31 1165 -292 
Q 1281 -553 1476 -793 
Q 1672 -1034 1988 -1253 
z
" id="TimesNewRomanPSMT-28" transform="scale(0.015625)"/>
       <path d="M 2050 2947 
L 2050 1972 
L 1947 1972 
Q 1828 2431 1642 2597 
Q 1456 2763 1169 2763 
Q 950 2763 815 2647 
Q 681 2531 681 2391 
Q 681 2216 781 2091 
Q 878 1963 1175 1819 
L 1631 1597 
Q 2266 1288 2266 781 
Q 2266 391 1970 151 
Q 1675 -88 1309 -88 
Q 1047 -88 709 6 
Q 606 38 541 38 
Q 469 38 428 -44 
L 325 -44 
L 325 978 
L 428 978 
Q 516 541 762 319 
Q 1009 97 1316 97 
Q 1531 97 1667 223 
Q 1803 350 1803 528 
Q 1803 744 1651 891 
Q 1500 1038 1047 1263 
Q 594 1488 453 1669 
Q 313 1847 313 2119 
Q 313 2472 555 2709 
Q 797 2947 1181 2947 
Q 1350 2947 1591 2875 
Q 1750 2828 1803 2828 
Q 1853 2828 1881 2850 
Q 1909 2872 1947 2947 
L 2050 2947 
z
" id="TimesNewRomanPSMT-73" transform="scale(0.015625)"/>
       <path d="M 2631 1088 
Q 2516 522 2178 217 
Q 1841 -88 1431 -88 
Q 944 -88 581 321 
Q 219 731 219 1428 
Q 219 2103 620 2525 
Q 1022 2947 1584 2947 
Q 2006 2947 2278 2723 
Q 2550 2500 2550 2259 
Q 2550 2141 2473 2067 
Q 2397 1994 2259 1994 
Q 2075 1994 1981 2113 
Q 1928 2178 1911 2362 
Q 1894 2547 1784 2644 
Q 1675 2738 1481 2738 
Q 1169 2738 978 2506 
Q 725 2200 725 1697 
Q 725 1184 976 792 
Q 1228 400 1656 400 
Q 1963 400 2206 609 
Q 2378 753 2541 1131 
L 2631 1088 
z
" id="TimesNewRomanPSMT-63" transform="scale(0.015625)"/>
       <path d="M 144 4313 
L 144 4444 
Q 619 4209 934 3891 
Q 1381 3434 1625 2820 
Q 1869 2206 1869 1541 
Q 1869 572 1392 -226 
Q 916 -1025 144 -1369 
L 144 -1253 
Q 528 -1038 776 -670 
Q 1025 -303 1145 264 
Q 1266 831 1266 1447 
Q 1266 2113 1163 2663 
Q 1084 3094 967 3353 
Q 850 3613 656 3853 
Q 463 4094 144 4313 
z
" id="TimesNewRomanPSMT-29" transform="scale(0.015625)"/>
      </defs>
      <use xlink:href="#TimesNewRomanPSMT-54"/>
      <use x="57.583984" xlink:href="#TimesNewRomanPSMT-69"/>
      <use x="85.367188" xlink:href="#TimesNewRomanPSMT-6d"/>
      <use x="163.150391" xlink:href="#TimesNewRomanPSMT-65"/>
      <use x="207.535156" xlink:href="#TimesNewRomanPSMT-20"/>
      <use x="232.535156" xlink:href="#TimesNewRomanPSMT-28"/>
      <use x="265.835938" xlink:href="#TimesNewRomanPSMT-73"/>
      <use x="304.751953" xlink:href="#TimesNewRomanPSMT-65"/>
      <use x="349.136719" xlink:href="#TimesNewRomanPSMT-63"/>
      <use x="393.521484" xlink:href="#TimesNewRomanPSMT-29"/>
     </g>
    </g>
   </g>
   <g id="matplotlib.axis_2">
    <g id="ytick_1">
     <g id="line2d_13">
      <path clip-path="url(#p621137dde6)" d="M 63.336875 282.34503 
L 398.136875 282.34503 
" style="fill:none;stroke:#000000;stroke-dasharray:0.5,0.825;stroke-dashoffset:0;stroke-width:0.5;"/>
     </g>
     <g id="line2d_14">
      <defs>
       <path d="M 0 0 
L -3.5 0 
" id="m563847cfb1" style="stroke:#000000;stroke-width:0.8;"/>
      </defs>
      <g>
       <use style="stroke:#000000;stroke-width:0.8;" x="63.336875" xlink:href="#m563847cfb1" y="282.34503"/>
      </g>
     </g>
     <g id="text_8">
      <!-- −0.04 -->
      <g transform="translate(23.942188 287.205655)scale(0.14 -0.14)">
       <defs>
        <path d="M 3484 2000 
L 116 2000 
L 116 2256 
L 3484 2256 
L 3484 2000 
z
" id="TimesNewRomanPSMT-2212" transform="scale(0.015625)"/>
       </defs>
       <use xlink:href="#TimesNewRomanPSMT-2212"/>
       <use x="56.396484" xlink:href="#TimesNewRomanPSMT-30"/>
       <use x="106.396484" xlink:href="#TimesNewRomanPSMT-2e"/>
       <use x="131.396484" xlink:href="#TimesNewRomanPSMT-30"/>
       <use x="181.396484" xlink:href="#TimesNewRomanPSMT-34"/>
      </g>
     </g>
    </g>
    <g id="ytick_2">
     <g id="line2d_15">
      <path clip-path="url(#p621137dde6)" d="M 63.336875 217.936086 
L 398.136875 217.936086 
" style="fill:none;stroke:#000000;stroke-dasharray:0.5,0.825;stroke-dashoffset:0;stroke-width:0.5;"/>
     </g>
     <g id="line2d_16">
      <g>
       <use style="stroke:#000000;stroke-width:0.8;" x="63.336875" xlink:href="#m563847cfb1" y="217.936086"/>
      </g>
     </g>
     <g id="text_9">
      <!-- −0.02 -->
      <g transform="translate(23.942188 222.796711)scale(0.14 -0.14)">
       <use xlink:href="#TimesNewRomanPSMT-2212"/>
       <use x="56.396484" xlink:href="#TimesNewRomanPSMT-30"/>
       <use x="106.396484" xlink:href="#TimesNewRomanPSMT-2e"/>
       <use x="131.396484" xlink:href="#TimesNewRomanPSMT-30"/>
       <use x="181.396484" xlink:href="#TimesNewRomanPSMT-32"/>
      </g>
     </g>
    </g>
    <g id="ytick_3">
     <g id="line2d_17">
      <path clip-path="url(#p621137dde6)" d="M 63.336875 153.527142 
L 398.136875 153.527142 
" style="fill:none;stroke:#000000;stroke-dasharray:0.5,0.825;stroke-dashoffset:0;stroke-width:0.5;"/>
     </g>
     <g id="line2d_18">
      <g>
       <use style="stroke:#000000;stroke-width:0.8;" x="63.336875" xlink:href="#m563847cfb1" y="153.527142"/>
      </g>
     </g>
     <g id="text_10">
      <!-- 0.00 -->
      <g transform="translate(31.836875 158.387767)scale(0.14 -0.14)">
       <use xlink:href="#TimesNewRomanPSMT-30"/>
       <use x="50" xlink:href="#TimesNewRomanPSMT-2e"/>
       <use x="75" xlink:href="#TimesNewRomanPSMT-30"/>
       <use x="125" xlink:href="#TimesNewRomanPSMT-30"/>
      </g>
     </g>
    </g>
    <g id="ytick_4">
     <g id="line2d_19">
      <path clip-path="url(#p621137dde6)" d="M 63.336875 89.118197 
L 398.136875 89.118197 
" style="fill:none;stroke:#000000;stroke-dasharray:0.5,0.825;stroke-dashoffset:0;stroke-width:0.5;"/>
     </g>
     <g id="line2d_20">
      <g>
       <use style="stroke:#000000;stroke-width:0.8;" x="63.336875" xlink:href="#m563847cfb1" y="89.118197"/>
      </g>
     </g>
     <g id="text_11">
      <!-- 0.02 -->
      <g transform="translate(31.836875 93.978822)scale(0.14 -0.14)">
       <use xlink:href="#TimesNewRomanPSMT-30"/>
       <use x="50" xlink:href="#TimesNewRomanPSMT-2e"/>
       <use x="75" xlink:href="#TimesNewRomanPSMT-30"/>
       <use x="125" xlink:href="#TimesNewRomanPSMT-32"/>
      </g>
     </g>
    </g>
    <g id="ytick_5">
     <g id="line2d_21">
      <path clip-path="url(#p621137dde6)" d="M 63.336875 24.709253 
L 398.136875 24.709253 
" style="fill:none;stroke:#000000;stroke-dasharray:0.5,0.825;stroke-dashoffset:0;stroke-width:0.5;"/>
     </g>
     <g id="line2d_22">
      <g>
       <use style="stroke:#000000;stroke-width:0.8;" x="63.336875" xlink:href="#m563847cfb1" y="24.709253"/>
      </g>
     </g>
     <g id="text_12">
      <!-- 0.04 -->
      <g transform="translate(31.836875 29.569878)scale(0.14 -0.14)">
       <use xlink:href="#TimesNewRomanPSMT-30"/>
       <use x="50" xlink:href="#TimesNewRomanPSMT-2e"/>
       <use x="75" xlink:href="#TimesNewRomanPSMT-30"/>
       <use x="125" xlink:href="#TimesNewRomanPSMT-34"/>
      </g>
     </g>
    </g>
    <g id="text_13">
     <!-- Volatage (V) -->
     <g transform="translate(16.92125 209.352344)rotate(-90)scale(0.14 -0.14)">
      <defs>
       <path d="M 4544 4238 
L 4544 4122 
Q 4319 4081 4203 3978 
Q 4038 3825 3909 3509 
L 2431 -97 
L 2316 -97 
L 728 3556 
Q 606 3838 556 3900 
Q 478 3997 364 4051 
Q 250 4106 56 4122 
L 56 4238 
L 1788 4238 
L 1788 4122 
Q 1494 4094 1406 4022 
Q 1319 3950 1319 3838 
Q 1319 3681 1463 3350 
L 2541 866 
L 3541 3319 
Q 3688 3681 3688 3822 
Q 3688 3913 3597 3995 
Q 3506 4078 3291 4113 
Q 3275 4116 3238 4122 
L 3238 4238 
L 4544 4238 
z
" id="TimesNewRomanPSMT-56" transform="scale(0.015625)"/>
       <path d="M 1600 2947 
Q 2250 2947 2644 2453 
Q 2978 2031 2978 1484 
Q 2978 1100 2793 706 
Q 2609 313 2286 112 
Q 1963 -88 1566 -88 
Q 919 -88 538 428 
Q 216 863 216 1403 
Q 216 1797 411 2186 
Q 606 2575 925 2761 
Q 1244 2947 1600 2947 
z
M 1503 2744 
Q 1338 2744 1170 2645 
Q 1003 2547 900 2300 
Q 797 2053 797 1666 
Q 797 1041 1045 587 
Q 1294 134 1700 134 
Q 2003 134 2200 384 
Q 2397 634 2397 1244 
Q 2397 2006 2069 2444 
Q 1847 2744 1503 2744 
z
" id="TimesNewRomanPSMT-6f" transform="scale(0.015625)"/>
       <path d="M 1184 4444 
L 1184 647 
Q 1184 378 1223 290 
Q 1263 203 1344 158 
Q 1425 113 1647 113 
L 1647 0 
L 244 0 
L 244 113 
Q 441 113 512 153 
Q 584 194 625 287 
Q 666 381 666 647 
L 666 3247 
Q 666 3731 644 3842 
Q 622 3953 573 3993 
Q 525 4034 450 4034 
Q 369 4034 244 3984 
L 191 4094 
L 1044 4444 
L 1184 4444 
z
" id="TimesNewRomanPSMT-6c" transform="scale(0.015625)"/>
       <path d="M 1822 413 
Q 1381 72 1269 19 
Q 1100 -59 909 -59 
Q 613 -59 420 144 
Q 228 347 228 678 
Q 228 888 322 1041 
Q 450 1253 767 1440 
Q 1084 1628 1822 1897 
L 1822 2009 
Q 1822 2438 1686 2597 
Q 1550 2756 1291 2756 
Q 1094 2756 978 2650 
Q 859 2544 859 2406 
L 866 2225 
Q 866 2081 792 2003 
Q 719 1925 600 1925 
Q 484 1925 411 2006 
Q 338 2088 338 2228 
Q 338 2497 613 2722 
Q 888 2947 1384 2947 
Q 1766 2947 2009 2819 
Q 2194 2722 2281 2516 
Q 2338 2381 2338 1966 
L 2338 994 
Q 2338 584 2353 492 
Q 2369 400 2405 369 
Q 2441 338 2488 338 
Q 2538 338 2575 359 
Q 2641 400 2828 588 
L 2828 413 
Q 2478 -56 2159 -56 
Q 2006 -56 1915 50 
Q 1825 156 1822 413 
z
M 1822 616 
L 1822 1706 
Q 1350 1519 1213 1441 
Q 966 1303 859 1153 
Q 753 1003 753 825 
Q 753 600 887 451 
Q 1022 303 1197 303 
Q 1434 303 1822 616 
z
" id="TimesNewRomanPSMT-61" transform="scale(0.015625)"/>
       <path d="M 1031 3803 
L 1031 2863 
L 1700 2863 
L 1700 2644 
L 1031 2644 
L 1031 788 
Q 1031 509 1111 412 
Q 1191 316 1316 316 
Q 1419 316 1516 380 
Q 1613 444 1666 569 
L 1788 569 
Q 1678 263 1478 108 
Q 1278 -47 1066 -47 
Q 922 -47 784 33 
Q 647 113 581 261 
Q 516 409 516 719 
L 516 2644 
L 63 2644 
L 63 2747 
Q 234 2816 414 2980 
Q 594 3144 734 3369 
Q 806 3488 934 3803 
L 1031 3803 
z
" id="TimesNewRomanPSMT-74" transform="scale(0.015625)"/>
       <path d="M 966 1044 
Q 703 1172 562 1401 
Q 422 1631 422 1909 
Q 422 2334 742 2640 
Q 1063 2947 1563 2947 
Q 1972 2947 2272 2747 
L 2878 2747 
Q 3013 2747 3034 2739 
Q 3056 2731 3066 2713 
Q 3084 2684 3084 2613 
Q 3084 2531 3069 2500 
Q 3059 2484 3036 2475 
Q 3013 2466 2878 2466 
L 2506 2466 
Q 2681 2241 2681 1891 
Q 2681 1491 2375 1206 
Q 2069 922 1553 922 
Q 1341 922 1119 984 
Q 981 866 932 777 
Q 884 688 884 625 
Q 884 572 936 522 
Q 988 472 1138 450 
Q 1225 438 1575 428 
Q 2219 413 2409 384 
Q 2700 344 2873 169 
Q 3047 -6 3047 -263 
Q 3047 -616 2716 -925 
Q 2228 -1381 1444 -1381 
Q 841 -1381 425 -1109 
Q 191 -953 191 -784 
Q 191 -709 225 -634 
Q 278 -519 444 -313 
Q 466 -284 763 25 
Q 600 122 533 198 
Q 466 275 466 372 
Q 466 481 555 628 
Q 644 775 966 1044 
z
M 1509 2797 
Q 1278 2797 1122 2612 
Q 966 2428 966 2047 
Q 966 1553 1178 1281 
Q 1341 1075 1591 1075 
Q 1828 1075 1981 1253 
Q 2134 1431 2134 1813 
Q 2134 2309 1919 2591 
Q 1759 2797 1509 2797 
z
M 934 0 
Q 788 -159 713 -296 
Q 638 -434 638 -550 
Q 638 -700 819 -813 
Q 1131 -1006 1722 -1006 
Q 2284 -1006 2551 -807 
Q 2819 -609 2819 -384 
Q 2819 -222 2659 -153 
Q 2497 -84 2016 -72 
Q 1313 -53 934 0 
z
" id="TimesNewRomanPSMT-67" transform="scale(0.015625)"/>
      </defs>
      <use xlink:href="#TimesNewRomanPSMT-56"/>
      <use x="59.341797" xlink:href="#TimesNewRomanPSMT-6f"/>
      <use x="109.341797" xlink:href="#TimesNewRomanPSMT-6c"/>
      <use x="137.125" xlink:href="#TimesNewRomanPSMT-61"/>
      <use x="181.509766" xlink:href="#TimesNewRomanPSMT-74"/>
      <use x="209.292969" xlink:href="#TimesNewRomanPSMT-61"/>
      <use x="253.677734" xlink:href="#TimesNewRomanPSMT-67"/>
      <use x="303.677734" xlink:href="#TimesNewRomanPSMT-65"/>
      <use x="348.0625" xlink:href="#TimesNewRomanPSMT-20"/>
      <use x="373.0625" xlink:href="#TimesNewRomanPSMT-28"/>
      <use x="406.363281" xlink:href="#TimesNewRomanPSMT-56"/>
      <use x="478.580078" xlink:href="#TimesNewRomanPSMT-29"/>
     </g>
    </g>
   </g>
   <g id="LineCollection_1">
    <path clip-path="url(#p621137dde6)" d="M 78.555057 153.527142 
L 382.918693 153.527142 
" style="fill:none;stroke:#1f77b4;stroke-width:1.5;"/>
   </g>
   <g id="line2d_23">
    <path clip-path="url(#p621137dde6)" d="M 78.555057 153.432461 
L 78.707239 153.512972 
L 78.828984 153.472716 
L 78.981166 153.512972 
L 79.133348 153.472716 
L 82.87702 153.553227 
L 82.998766 153.553227 
L 90.33393 153.472716 
L 90.455675 153.432461 
L 90.607857 153.512972 
L 90.760039 153.472716 
L 92.555784 153.512972 
L 92.58622 153.593483 
L 92.67753 153.553227 
L 101.199711 153.472716 
L 101.321457 153.472716 
L 103.999857 153.553227 
L 104.152039 153.593483 
L 104.30422 153.512972 
L 104.486839 153.593483 
L 105.64342 153.593483 
L 105.673857 153.472716 
L 105.765166 153.512972 
L 105.856475 153.593483 
L 105.886911 153.512972 
L 110.939348 153.593483 
L 111.09153 153.633739 
L 111.213275 153.593483 
L 111.365457 153.673994 
L 111.487202 153.593483 
L 111.548075 153.673994 
L 111.608948 153.633739 
L 111.791566 153.71425 
L 111.822002 153.633739 
L 111.882875 153.71425 
L 112.491602 153.754505 
L 112.522039 153.835016 
L 112.613348 153.794761 
L 112.735093 153.794761 
L 112.856839 153.794761 
L 113.10033 153.875272 
L 113.222075 153.955783 
L 113.252511 153.915528 
L 113.313384 153.875272 
L 113.34382 153.915528 
L 113.496002 153.996039 
L 113.556875 153.915528 
L 113.617748 153.955783 
L 114.135166 154.036294 
L 114.287348 154.07655 
L 114.68302 154.157061 
L 114.865639 154.237572 
L 115.322184 154.318084 
L 115.504802 154.398595 
L 115.870039 154.43885 
L 115.991784 154.519361 
L 116.265711 154.559617 
L 116.35702 154.640128 
L 116.387457 154.599873 
L 116.539639 154.640128 
L 116.904875 154.680384 
L 117.02662 154.760895 
L 117.270111 154.841406 
L 117.422293 154.881662 
L 117.939711 154.921917 
L 117.970148 155.002429 
L 118.03102 154.881662 
L 118.274511 155.042684 
L 118.548439 155.123195 
L 118.670184 155.163451 
L 118.70062 155.123195 
L 118.761493 155.203706 
L 118.852802 155.243962 
L 118.883239 155.203706 
L 119.096293 155.284218 
L 119.278911 155.404984 
L 119.400657 155.364729 
L 119.644148 155.525751 
L 119.79633 155.606262 
L 120.009384 155.727029 
L 120.161566 155.80754 
L 120.435493 156.008818 
L 120.587675 156.089329 
L 120.80073 156.371119 
L 120.892039 156.45163 
L 122.079057 158.102109 
L 122.261675 158.504665 
L 122.505166 159.068243 
L 122.71822 159.470799 
L 123.083457 160.477189 
L 123.235639 160.799233 
L 123.692184 162.167923 
L 124.240039 163.898914 
L 124.544402 164.94556 
L 126.644511 173.721278 
L 128.07502 180.766006 
L 128.135893 180.967284 
L 129.109857 185.556421 
L 130.905602 192.279105 
L 131.057784 192.60115 
L 131.453457 193.728306 
L 131.910002 194.69444 
L 132.001311 194.774952 
L 132.214366 195.056741 
L 132.305675 195.056741 
L 132.549166 195.217763 
L 132.670911 195.217763 
L 132.975275 195.177508 
L 133.127457 195.056741 
L 133.675311 194.171118 
L 134.375348 192.560894 
L 134.405784 192.560894 
L 134.831893 191.312971 
L 135.19713 190.065048 
L 135.562366 188.696358 
L 136.049348 186.321278 
L 136.658075 182.537252 
L 137.510293 176.176869 
L 139.853893 153.512972 
L 143.14102 108.587733 
L 144.510657 88.580708 
L 147.980402 44.13854 
L 148.893493 35.564089 
L 149.106548 33.873364 
L 150.019639 27.472719 
L 150.719675 24.332776 
L 151.145784 23.084863 
L 151.754511 22.440773 
L 151.784948 22.481026 
L 151.815384 22.440773 
L 151.967566 22.32 
L 151.998002 22.400511 
L 152.089311 22.360262 
L 152.211057 22.400511 
L 152.332802 22.400511 
L 153.002402 23.447163 
L 153.550257 25.137891 
L 154.61553 31.296997 
L 155.650366 40.39476 
L 157.598293 64.870165 
L 158.115711 73.122555 
L 158.937493 87.896363 
L 159.698402 102.871436 
L 161.31153 137.008179 
L 167.00313 262.484848 
L 168.524948 288.610732 
L 169.651093 303.424786 
L 170.868548 315.179425 
L 172.086002 322.505936 
L 172.999093 324.679738 
L 173.333893 324.599227 
L 173.881748 323.753863 
L 174.155675 323.109773 
L 174.27742 322.787725 
L 174.581784 321.700821 
L 175.251384 318.601144 
L 176.012293 314.012013 
L 177.534111 301.04971 
L 178.934184 285.06824 
L 181.429966 250.689966 
L 182.464802 234.789008 
L 183.98662 208.944919 
L 184.99102 192.399872 
L 187.395493 155.968563 
L 188.065093 146.709777 
L 190.68262 113.539171 
L 192.44793 93.773676 
L 194.12193 79.241408 
L 194.943711 73.122555 
L 195.400257 69.902108 
L 196.222039 63.743006 
L 196.922075 59.073357 
L 197.835166 53.759613 
L 199.417857 47.922555 
L 199.509166 47.721281 
L 199.783093 46.835654 
L 200.087457 45.748753 
L 200.361384 44.86314 
L 200.604875 44.299552 
L 201.000548 43.695725 
L 201.183166 43.293162 
L 201.335348 42.971124 
L 201.548402 42.528313 
L 201.609275 42.447798 
L 201.791893 42.246524 
L 201.944075 42.286773 
L 203.191966 42.367287 
L 203.678948 42.850351 
L 203.709384 42.810099 
L 203.770257 42.890613 
L 203.892002 42.930862 
L 204.013748 42.930862 
L 204.226802 43.011373 
L 204.926839 44.098278 
L 205.231202 44.661853 
L 205.292075 44.742364 
L 205.596439 45.26569 
L 205.779057 45.62799 
L 206.113857 46.513616 
L 206.813893 48.083581 
L 207.026948 48.526396 
L 207.270439 49.291245 
L 207.361748 49.573035 
L 208.42702 52.672725 
L 210.19233 60.120002 
L 210.740184 62.454823 
L 210.983675 63.380705 
L 211.592402 66.238852 
L 213.235966 75.457386 
L 213.936002 80.127034 
L 214.483857 84.434376 
L 214.940402 88.097638 
L 216.827457 106.574954 
L 219.871093 139.946838 
L 222.427748 171.668243 
L 226.93233 229.837571 
L 227.480184 236.761535 
L 228.119348 244.490609 
L 228.667202 250.488688 
L 229.27593 257.130867 
L 230.036839 264.054826 
L 230.61513 269.006257 
L 230.980366 271.421599 
L 231.589093 275.205627 
L 232.106511 277.902742 
L 232.167384 278.104017 
L 232.684802 280.318084 
L 232.86742 281.042685 
L 233.232657 282.451624 
L 233.658766 283.33725 
L 233.719639 283.417761 
L 234.510984 284.303387 
L 235.515384 282.854186 
L 235.911057 281.727023 
L 236.124111 280.921908 
L 237.524184 272.99156 
L 239.22862 258.620318 
L 241.450475 234.064408 
L 242.059202 226.13406 
L 242.546184 219.854184 
L 246.168111 170.500831 
L 250.003093 116.276551 
L 251.464039 100.174315 
L 252.559748 90.915529 
L 252.681493 90.110414 
L 253.107602 87.131503 
L 254.020693 81.817766 
L 254.690293 78.798593 
L 254.903348 77.993488 
L 255.268584 76.624791 
L 255.755566 75.135341 
L 256.759966 72.719999 
L 256.881711 72.67975 
L 257.033893 72.55898 
L 257.246948 72.438213 
L 257.338257 72.357699 
L 257.490439 72.317449 
L 257.916548 72.397954 
L 258.220911 72.67975 
L 258.251348 72.639494 
L 258.281784 72.760255 
L 258.31222 72.719999 
L 258.525275 72.840769 
L 258.98182 72.92128 
L 259.286184 73.162814 
L 259.40793 73.243325 
L 259.773166 73.56537 
L 260.047093 73.645881 
L 260.260148 73.92767 
L 260.351457 74.008181 
L 260.838439 74.77304 
L 261.051493 75.256101 
L 261.112366 75.29636 
L 262.299384 78.718088 
L 263.638584 84.474631 
L 265.67782 95.826711 
L 267.473566 108.426711 
L 272.46513 147.152588 
L 272.79993 149.487413 
L 274.321748 158.82671 
L 274.778293 161.081023 
L 275.630511 165.026071 
L 277.091457 170.380063 
L 277.669748 172.191566 
L 278.217602 173.922555 
L 278.339348 174.244601 
L 279.282875 176.498913 
L 279.313311 176.498913 
L 279.526366 176.90147 
L 279.769857 177.344281 
L 279.800293 177.304025 
L 279.83073 177.424792 
L 281.565602 179.558339 
L 281.717784 179.63885 
L 281.961275 179.799872 
L 282.08302 179.799872 
L 282.356948 180.00115 
L 282.691748 180.081661 
L 282.722184 180.162172 
L 282.813493 180.121916 
L 282.935239 180.121916 
L 283.117857 180.041405 
L 283.209166 180.041405 
L 283.361348 179.920639 
L 283.574402 179.840128 
L 283.84833 179.63885 
L 284.030948 179.558339 
L 284.791857 178.71297 
L 284.883166 178.63246 
L 285.065784 178.431183 
L 286.10062 176.90147 
L 286.374548 176.378147 
L 286.404984 176.418402 
L 286.43542 176.378147 
L 286.678911 175.854825 
L 286.709348 175.854825 
L 286.922402 175.452268 
L 287.378948 174.52639 
L 287.43982 174.445879 
L 287.683311 173.962811 
L 287.987675 173.439489 
L 289.357311 171.748754 
L 289.387748 171.829265 
L 289.479057 171.78901 
L 289.692111 171.668243 
L 289.905166 171.627987 
L 290.057348 171.507221 
L 290.45302 171.587732 
L 291.000875 172.151309 
L 291.12262 172.231822 
L 291.274802 172.352588 
L 291.670475 173.036932 
L 296.296802 184.992843 
L 296.601166 185.516165 
L 296.783784 185.838209 
L 296.844657 185.878466 
L 297.118584 186.321278 
L 298.092548 187.448433 
L 298.214293 187.488689 
L 298.366475 187.609455 
L 298.762148 187.971757 
L 298.91433 188.052268 
L 299.036075 188.092524 
L 299.127384 188.012012 
L 299.15782 188.052268 
L 299.188257 188.092524 
L 299.24913 188.012012 
L 299.431748 187.931501 
L 300.344839 187.891246 
L 300.557893 187.609455 
L 300.618766 187.609455 
L 300.770948 187.40818 
L 301.075311 187.166645 
L 301.227493 187.086133 
L 303.93633 183.342365 
L 304.301566 182.658018 
L 304.484184 182.255464 
L 304.84942 181.249072 
L 306.097311 177.666325 
L 306.432111 176.418402 
L 306.736475 175.331502 
L 307.558257 171.627987 
L 308.349602 168.004984 
L 308.471348 167.441406 
L 311.028002 153.351949 
L 314.619493 130.325752 
L 315.532584 124.931502 
L 315.89782 122.878468 
L 316.56742 119.899554 
L 318.302293 113.458659 
L 319.00233 111.325113 
L 319.641493 109.231822 
L 319.732802 108.950033 
L 320.737202 106.574954 
L 320.91982 106.172398 
L 321.25462 105.568564 
L 323.567784 102.348117 
L 323.811275 101.945561 
L 323.872148 101.865049 
L 324.054766 101.663771 
L 324.480875 101.261216 
L 324.541748 101.261216 
L 324.69393 101.10019 
L 324.846111 100.898915 
L 324.876548 100.939171 
L 324.906984 100.85866 
L 325.089602 100.73789 
L 325.211348 100.73789 
L 325.515711 100.818404 
L 325.789639 101.019685 
L 325.880948 101.059934 
L 326.03313 101.180704 
L 326.672293 102.146835 
L 326.915784 102.670161 
L 328.863711 108.104666 
L 329.776802 112.170481 
L 332.363893 126.42096 
L 332.942184 129.520639 
L 333.97702 135.558978 
L 335.164039 142.724474 
L 335.498839 144.495719 
L 338.298984 158.746198 
L 338.75553 161.000511 
L 339.790366 165.911694 
L 341.494802 172.272077 
L 341.555675 172.473355 
L 342.01222 173.842044 
L 343.929711 178.63246 
L 344.234075 179.196038 
L 344.508002 179.63885 
L 344.568875 179.719361 
L 344.78193 180.041405 
L 344.842802 180.081661 
L 344.994984 180.323194 
L 345.147166 180.403706 
L 345.329784 180.604984 
L 345.481966 180.685496 
L 345.664584 180.886772 
L 346.02982 181.208819 
L 346.12113 181.289329 
L 346.668984 181.852907 
L 346.760293 181.93342 
L 347.46033 182.73853 
L 347.521202 182.698274 
L 347.551639 182.73853 
L 347.79513 182.899553 
L 348.008184 182.980065 
L 348.160366 183.100831 
L 348.282111 183.060575 
L 348.46473 183.141087 
L 348.586475 183.060575 
L 348.70822 183.060575 
L 348.890839 183.020318 
L 349.012584 182.939809 
L 349.286511 182.859296 
L 349.438693 182.819043 
L 349.80393 182.73853 
L 350.016984 182.617764 
L 350.108293 182.577508 
L 350.260475 182.456742 
L 350.625711 182.37623 
L 350.777893 182.295717 
L 350.899639 182.295717 
L 351.021384 182.255464 
L 351.173566 182.094442 
L 351.295311 182.01393 
L 351.72142 181.611373 
L 351.751857 181.611373 
L 351.934475 181.329585 
L 353.334548 179.357061 
L 353.517166 179.075271 
L 353.851966 178.471438 
L 355.556402 176.337891 
L 355.586839 176.378147 
L 355.647711 176.297636 
L 356.012948 175.935336 
L 356.104257 175.935336 
L 356.40862 175.693801 
L 356.560802 175.61329 
L 356.773857 175.492524 
L 356.865166 175.492524 
L 357.017348 175.331502 
L 357.260839 175.130224 
L 357.352148 175.130224 
L 357.473893 175.049713 
L 357.626075 174.969202 
L 357.83913 174.848434 
L 357.991311 174.767924 
L 358.386984 174.405623 
L 358.50873 174.325112 
L 358.904402 173.962811 
L 358.995711 173.922555 
L 359.147893 173.761533 
L 359.17833 173.761533 
L 359.330511 173.560256 
L 359.787057 173.077189 
L 359.817493 173.117445 
L 359.878366 173.036932 
L 359.969675 172.956421 
L 360.334911 172.634377 
L 360.395784 172.594121 
L 360.639275 172.231822 
L 360.730584 172.151309 
L 360.913202 171.829265 
L 361.674111 170.661853 
L 362.282839 169.333418 
L 362.556766 168.850352 
L 362.800257 168.32703 
L 363.743784 166.112971 
L 363.926402 165.710415 
L 364.169893 165.187093 
L 364.382948 164.744281 
L 364.596002 164.30147 
L 364.991675 163.617125 
L 365.296039 163.053546 
L 365.417784 162.973035 
L 365.661275 162.570479 
L 365.691711 162.570479 
L 365.87433 162.288691 
L 366.11782 161.92639 
L 367.12222 160.758978 
L 367.21353 160.678467 
L 367.852693 159.953866 
L 367.944002 159.953866 
L 368.248366 159.712333 
L 368.278802 159.792844 
L 368.339675 159.712333 
L 368.400548 159.712333 
L 368.55273 159.55131 
L 368.674475 159.470799 
L 369.100584 159.068243 
L 369.344075 158.987732 
L 369.55713 158.866965 
L 369.739748 158.82671 
L 369.89193 158.705943 
L 370.257166 158.383898 
L 370.378911 158.303387 
L 370.622402 158.102109 
L 370.652839 158.142364 
L 370.683275 158.061853 
L 371.170257 157.538531 
L 371.200693 157.578786 
L 371.23113 157.538531 
L 371.413748 157.256741 
L 371.535493 157.17623 
L 372.083348 156.612652 
L 372.23553 156.532141 
L 372.387711 156.330863 
L 372.81382 155.928307 
L 372.90513 155.847796 
L 373.392111 155.364729 
L 373.452984 155.284218 
L 375.035675 153.029905 
L 375.400911 152.34556 
L 375.431348 152.34556 
L 375.705275 151.70147 
L 376.040075 151.057381 
L 376.100948 150.976869 
L 376.557493 150.050991 
L 376.709675 149.688691 
L 377.440148 148.038211 
L 377.774948 147.434378 
L 378.50542 145.783898 
L 378.901093 145.099554 
L 379.114148 144.616486 
L 379.144584 144.616486 
L 379.357639 144.052908 
L 380.84902 140.349393 
L 380.879457 140.349393 
L 381.18382 139.584537 
L 381.336002 139.222237 
L 382.918693 135.27719 
L 382.918693 135.27719 
" style="fill:none;stroke:#0000ff;stroke-linecap:square;stroke-width:1.5;"/>
   </g>
   <g id="line2d_24">
    <path clip-path="url(#p621137dde6)" d="M 78.555057 153.38351 
L 80.411675 153.484149 
L 80.594293 153.484149 
L 83.759675 153.56466 
L 83.911857 153.625043 
L 84.155348 153.584788 
L 84.337966 153.625043 
L 84.459711 153.625043 
L 93.316693 153.705554 
L 93.468875 153.74581 
L 93.621057 153.725682 
L 93.864548 153.765938 
L 94.868948 153.866577 
L 95.051566 153.886705 
L 95.234184 153.886705 
L 95.477675 153.92696 
L 95.660293 153.906832 
L 95.873348 153.92696 
L 99.586584 154.027599 
L 99.890948 154.10811 
L 100.04313 154.128238 
L 100.469239 154.28926 
L 100.682293 154.369772 
L 100.925784 154.530794 
L 101.077966 154.611305 
L 101.595384 155.1145 
L 101.838875 155.396289 
L 102.234548 155.93974 
L 102.356293 156.141018 
L 102.751966 156.84549 
L 103.512875 158.596609 
L 104.334657 161.072327 
L 106.617384 170.572647 
L 107.865275 176.590857 
L 110.148002 186.634627 
L 111.152402 189.613541 
L 111.33502 190.016097 
L 111.639384 190.640058 
L 113.00902 192.27041 
L 113.374257 192.169771 
L 113.648184 191.988621 
L 113.739493 191.887982 
L 114.10473 191.525681 
L 114.865639 189.774563 
L 115.474366 187.862423 
L 116.052657 185.587982 
L 117.422293 177.818653 
L 121.348584 145.795331 
L 125.15313 111.578079 
L 126.674948 102.238786 
L 127.922839 96.220572 
L 129.140293 91.79246 
L 130.08382 90.162108 
L 130.570802 89.699163 
L 131.118657 89.457632 
L 131.42302 89.558268 
L 131.636075 89.598524 
L 132.670911 89.034949 
L 132.823093 89.135588 
L 133.462257 89.437505 
L 133.736184 89.518019 
L 134.86233 90.826319 
L 135.19713 90.926965 
L 135.410184 91.007469 
L 135.836293 91.61131 
L 136.749384 92.637824 
L 136.87113 92.718335 
L 138.423384 95.999166 
L 139.12342 99.219613 
L 140.310439 105.237824 
L 143.080148 122.326322 
L 144.662839 134.986705 
L 148.771748 168.459228 
L 149.563093 175.20204 
L 151.206657 188.385745 
L 152.819784 199.335266 
L 153.824184 204.689259 
L 155.041639 209.077119 
L 155.19382 209.45955 
L 155.467748 210.04325 
L 155.61993 210.264659 
L 156.380839 211.110026 
L 156.502584 211.19054 
L 156.685202 211.271045 
L 157.080875 211.170409 
L 158.146148 210.365294 
L 158.63313 209.358905 
L 158.87662 208.875844 
L 159.272293 208.131109 
L 159.394039 207.929834 
L 159.667966 207.406508 
L 160.124511 206.279358 
L 161.707202 201.790857 
L 163.259457 196.275841 
L 164.32473 191.606193 
L 165.176948 187.681273 
L 165.57262 186.010664 
L 166.363966 182.407791 
L 167.185748 179.308109 
L 167.764039 177.416097 
L 168.58582 176.02728 
L 168.798875 175.765617 
L 169.01193 175.524084 
L 169.103239 175.503956 
L 169.285857 175.38319 
L 169.438039 175.443573 
L 169.559784 175.463701 
L 169.68153 175.463701 
L 169.955457 175.644851 
L 170.138075 175.725362 
L 170.92942 176.93303 
L 172.055566 180.21386 
L 172.481675 182.005234 
L 174.186111 190.398525 
L 176.468839 204.628876 
L 177.442802 211.492451 
L 180.06033 228.077754 
L 180.547311 229.808751 
L 182.038693 233.451879 
L 182.464802 234.055712 
L 183.134402 234.377757 
L 183.256148 234.277118 
L 184.047493 232.485748 
L 184.777966 229.708105 
L 185.264948 226.970729 
L 186.056293 221.053157 
L 187.152002 209.922489 
L 188.612948 191.243892 
L 190.469566 162.622168 
L 191.900075 137.140378 
L 192.904475 120.575204 
L 194.79153 91.208751 
L 195.522002 81.285748 
L 197.04382 64.458914 
L 198.413457 52.764665 
L 199.783093 43.606512 
L 200.544002 39.70172 
L 201.578839 36.018333 
L 202.06582 35.293733 
L 202.583239 34.790538 
L 202.765857 34.77042 
L 203.374584 35.293733 
L 204.40942 36.823448 
L 205.200766 39.782231 
L 205.931239 44.23048 
L 208.944439 66.93463 
L 210.77062 81.708435 
L 211.714148 89.377118 
L 213.844693 106.747408 
L 214.757784 113.510348 
L 220.358075 157.066896 
L 222.15382 169.324723 
L 223.888693 180.072966 
L 226.475784 194.806512 
L 228.088911 201.770729 
L 229.51942 206.118333 
L 230.462948 207.748684 
L 233.810948 212.357946 
L 236.032802 216.524403 
L 236.245857 216.765933 
L 236.55022 217.148365 
L 236.671966 217.249004 
L 237.006766 217.671684 
L 237.737239 218.456674 
L 238.863384 219.08063 
L 239.076439 219.060505 
L 239.259057 219.08063 
L 239.593857 218.979994 
L 241.206984 219.08063 
L 241.633093 219.241655 
L 241.99833 219.342294 
L 242.180948 219.402674 
L 243.611457 220.469451 
L 244.189748 221.415457 
L 245.34633 223.951563 
L 245.863748 225.058588 
L 245.955057 225.219614 
L 247.202948 227.473923 
L 247.294257 227.574559 
L 247.659493 228.077754 
L 247.872548 228.339419 
L 248.176911 228.701719 
L 248.876948 229.043891 
L 249.090002 229.003636 
L 249.27262 229.003636 
L 249.576984 228.923125 
L 249.820475 228.822486 
L 250.063966 228.560824 
L 250.246584 228.339419 
L 250.642257 227.795965 
L 251.494475 226.487658 
L 252.498875 223.549003 
L 253.746766 217.249004 
L 254.477239 212.820892 
L 255.481639 205.474243 
L 256.425166 197.121208 
L 258.464402 175.785745 
L 259.773166 159.844532 
L 261.812402 132.853159 
L 264.886475 91.651559 
L 267.10833 66.47169 
L 268.143166 57.293416 
L 268.843202 52.221212 
L 269.78673 46.706189 
L 270.304148 44.834307 
L 270.912875 43.183832 
L 271.36942 42.519611 
L 271.552039 42.439097 
L 271.765093 42.338467 
L 272.008584 42.298205 
L 272.37382 42.398847 
L 272.70862 42.741017 
L 273.073857 43.405237 
L 274.260875 46.847084 
L 275.14353 51.456359 
L 276.208802 58.460831 
L 278.643711 78.669137 
L 279.313311 85.37169 
L 282.813493 121.239421 
L 284.944039 143.460506 
L 285.85713 152.477759 
L 286.800657 161.293733 
L 288.413784 176.188302 
L 291.092184 198.308748 
L 293.314039 212.297566 
L 294.044511 215.638783 
L 295.80982 220.006511 
L 295.962002 220.207789 
L 296.692475 221.415457 
L 297.209893 221.918652 
L 297.727311 222.140058 
L 298.336039 222.039422 
L 298.883893 221.495972 
L 299.096948 221.234307 
L 300.131784 219.68447 
L 300.740511 218.255393 
L 302.93193 210.64709 
L 303.997202 204.487981 
L 306.827784 182.910985 
L 309.597493 163.527918 
L 310.87582 157.328558 
L 315.776075 138.307791 
L 316.476111 136.154118 
L 317.176148 134.221848 
L 318.150111 131.343574 
L 318.606657 130.176162 
L 318.850148 129.713222 
L 319.367566 128.364661 
L 319.732802 127.418654 
L 320.037166 126.653796 
L 320.58502 125.325364 
L 321.467675 122.789261 
L 322.441639 120.494692 
L 322.59382 120.132392 
L 323.080802 119.14613 
L 325.180911 114.738143 
L 325.94182 112.604597 
L 327.859311 109.021849 
L 327.981057 108.820571 
L 328.681093 107.713543 
L 329.015893 107.290859 
L 329.259384 107.00907 
L 329.655057 106.666897 
L 329.807239 106.566258 
L 330.05073 106.385108 
L 330.172475 106.344853 
L 330.568148 106.18383 
L 330.689893 106.163702 
L 330.96382 106.103319 
L 331.481239 106.203958 
L 332.455202 106.968814 
L 333.763966 108.880955 
L 334.585748 110.75284 
L 337.65982 121.299804 
L 338.968584 126.935588 
L 339.75993 130.981274 
L 340.155602 132.953798 
L 344.264511 158.053158 
L 346.668984 176.248685 
L 348.495166 188.727918 
L 350.47353 201.086384 
L 352.81713 212.901397 
L 354.034584 217.309384 
L 355.982511 222.180317 
L 356.134693 222.381591 
L 356.40862 222.683511 
L 356.74342 222.784147 
L 357.139093 222.683511 
L 357.808693 222.119927 
L 359.330511 218.879355 
L 359.787057 217.00747 
L 360.639275 212.539096 
L 362.404584 201.368173 
L 364.474257 185.527598 
L 365.417784 177.778398 
L 366.422184 169.666895 
L 368.55273 150.948046 
L 369.191893 145.493414 
L 369.922366 138.810987 
L 372.14422 119.266897 
L 373.787784 108.095971 
L 374.305202 104.795012 
L 374.974802 101.051239 
L 377.074911 93.16115 
L 378.50542 89.679038 
L 378.688039 89.437505 
L 379.26633 88.853799 
L 379.662002 88.712904 
L 380.453348 88.813543 
L 381.18382 89.417374 
L 381.701239 90.202364 
L 382.066475 90.866578 
L 382.796948 92.55731 
L 382.918693 92.85923 
L 382.918693 92.85923 
" style="fill:none;stroke:#ff0000;stroke-linecap:square;stroke-width:1.5;"/>
   </g>
   <g id="line2d_25">
    <path clip-path="url(#p621137dde6)" d="M 123.692184 162.167923 
" style="fill:none;stroke:#ffffff;stroke-linecap:square;stroke-width:1.5;"/>
    <defs>
     <path d="M 0 -5 
L -1.12257 -1.545085 
L -4.755283 -1.545085 
L -1.816356 0.59017 
L -2.938926 4.045085 
L -0 1.90983 
L 2.938926 4.045085 
L 1.816356 0.59017 
L 4.755283 -1.545085 
L 1.12257 -1.545085 
z
" id="md0a5ade491" style="stroke:#ffffff;stroke-linejoin:bevel;"/>
    </defs>
    <g clip-path="url(#p621137dde6)">
     <use style="fill:#0000ff;stroke:#ffffff;stroke-linejoin:bevel;" x="123.692184" xlink:href="#md0a5ade491" y="162.167923"/>
    </g>
   </g>
   <g id="line2d_26">
    <path clip-path="url(#p621137dde6)" d="M 103.847675 159.542615 
" style="fill:none;stroke:#ffffff;stroke-linecap:square;stroke-width:1.5;"/>
    <defs>
     <path d="M 0 -5 
L -1.12257 -1.545085 
L -4.755283 -1.545085 
L -1.816356 0.59017 
L -2.938926 4.045085 
L -0 1.90983 
L 2.938926 4.045085 
L 1.816356 0.59017 
L 4.755283 -1.545085 
L 1.12257 -1.545085 
z
" id="m99fa585cb5" style="stroke:#ffffff;stroke-linejoin:bevel;"/>
    </defs>
    <g clip-path="url(#p621137dde6)">
     <use style="fill:#ff0000;stroke:#ffffff;stroke-linejoin:bevel;" x="103.847675" xlink:href="#m99fa585cb5" y="159.542615"/>
    </g>
   </g>
   <g id="patch_3">
    <path d="M 63.336875 339.84 
L 63.336875 7.2 
" style="fill:none;stroke:#000000;stroke-linecap:square;stroke-linejoin:miter;stroke-width:0.8;"/>
   </g>
   <g id="patch_4">
    <path d="M 398.136875 339.84 
L 398.136875 7.2 
" style="fill:none;stroke:#000000;stroke-linecap:square;stroke-linejoin:miter;stroke-width:0.8;"/>
   </g>
   <g id="patch_5">
    <path d="M 63.336875 339.84 
L 398.136875 339.84 
" style="fill:none;stroke:#000000;stroke-linecap:square;stroke-linejoin:miter;stroke-width:0.8;"/>
   </g>
   <g id="patch_6">
    <path d="M 63.336875 7.2 
L 398.136875 7.2 
" style="fill:none;stroke:#000000;stroke-linecap:square;stroke-linejoin:miter;stroke-width:0.8;"/>
   </g>
   <g id="text_14">
    <g id="patch_7">
     <path d="M 75.036875 331.242688 
L 166.79375 331.242688 
L 166.79375 293.760312 
L 75.036875 293.760312 
z
" style="fill:#ffffff;stroke:#000000;stroke-linejoin:miter;stroke-width:0.75;"/>
    </g>
    <!-- Auto_00159 -->
    <g transform="translate(80.076875 308.521563)scale(0.14 -0.14)">
     <defs>
      <path d="M 2928 1419 
L 1288 1419 
L 1000 750 
Q 894 503 894 381 
Q 894 284 986 211 
Q 1078 138 1384 116 
L 1384 0 
L 50 0 
L 50 116 
Q 316 163 394 238 
Q 553 388 747 847 
L 2238 4334 
L 2347 4334 
L 3822 809 
Q 4000 384 4145 257 
Q 4291 131 4550 116 
L 4550 0 
L 2878 0 
L 2878 116 
Q 3131 128 3220 200 
Q 3309 272 3309 375 
Q 3309 513 3184 809 
L 2928 1419 
z
M 2841 1650 
L 2122 3363 
L 1384 1650 
L 2841 1650 
z
" id="TimesNewRomanPSMT-41" transform="scale(0.015625)"/>
      <path d="M 2709 2863 
L 2709 1128 
Q 2709 631 2732 520 
Q 2756 409 2807 365 
Q 2859 322 2928 322 
Q 3025 322 3147 375 
L 3191 266 
L 2334 -88 
L 2194 -88 
L 2194 519 
Q 1825 119 1631 15 
Q 1438 -88 1222 -88 
Q 981 -88 804 51 
Q 628 191 559 409 
Q 491 628 491 1028 
L 491 2306 
Q 491 2509 447 2587 
Q 403 2666 317 2708 
Q 231 2750 6 2747 
L 6 2863 
L 1009 2863 
L 1009 947 
Q 1009 547 1148 422 
Q 1288 297 1484 297 
Q 1619 297 1789 381 
Q 1959 466 2194 703 
L 2194 2325 
Q 2194 2569 2105 2655 
Q 2016 2741 1734 2747 
L 1734 2863 
L 2709 2863 
z
" id="TimesNewRomanPSMT-75" transform="scale(0.015625)"/>
      <path d="M 3256 -1381 
L -53 -1381 
L -53 -1119 
L 3256 -1119 
L 3256 -1381 
z
" id="TimesNewRomanPSMT-5f" transform="scale(0.015625)"/>
      <path d="M 338 -88 
L 338 28 
Q 744 34 1094 217 
Q 1444 400 1770 856 
Q 2097 1313 2225 1859 
Q 1734 1544 1338 1544 
Q 891 1544 572 1889 
Q 253 2234 253 2806 
Q 253 3363 572 3797 
Q 956 4325 1575 4325 
Q 2097 4325 2469 3894 
Q 2925 3359 2925 2575 
Q 2925 1869 2578 1258 
Q 2231 647 1613 244 
Q 1109 -88 516 -88 
L 338 -88 
z
M 2275 2091 
Q 2331 2497 2331 2741 
Q 2331 3044 2228 3395 
Q 2125 3747 1936 3934 
Q 1747 4122 1506 4122 
Q 1228 4122 1018 3872 
Q 809 3622 809 3128 
Q 809 2469 1088 2097 
Q 1291 1828 1588 1828 
Q 1731 1828 1928 1897 
Q 2125 1966 2275 2091 
z
" id="TimesNewRomanPSMT-39" transform="scale(0.015625)"/>
     </defs>
     <use xlink:href="#TimesNewRomanPSMT-41"/>
     <use x="72.216797" xlink:href="#TimesNewRomanPSMT-75"/>
     <use x="122.216797" xlink:href="#TimesNewRomanPSMT-74"/>
     <use x="150" xlink:href="#TimesNewRomanPSMT-6f"/>
     <use x="200" xlink:href="#TimesNewRomanPSMT-5f"/>
     <use x="250" xlink:href="#TimesNewRomanPSMT-30"/>
     <use x="300" xlink:href="#TimesNewRomanPSMT-30"/>
     <use x="350" xlink:href="#TimesNewRomanPSMT-31"/>
     <use x="400" xlink:href="#TimesNewRomanPSMT-35"/>
     <use x="450" xlink:href="#TimesNewRomanPSMT-39"/>
    </g>
    <!-- Vs: 306.53m/s -->
    <g transform="translate(80.076875 323.208)scale(0.14 -0.14)">
     <defs>
      <path d="M 903 2950 
Q 1047 2950 1148 2848 
Q 1250 2747 1250 2603 
Q 1250 2459 1148 2357 
Q 1047 2256 903 2256 
Q 759 2256 657 2357 
Q 556 2459 556 2603 
Q 556 2747 657 2848 
Q 759 2950 903 2950 
z
M 897 609 
Q 1044 609 1145 506 
Q 1247 403 1247 259 
Q 1247 116 1144 14 
Q 1041 -88 897 -88 
Q 753 -88 651 14 
Q 550 116 550 259 
Q 550 403 651 506 
Q 753 609 897 609 
z
" id="TimesNewRomanPSMT-3a" transform="scale(0.015625)"/>
      <path d="M 2869 4325 
L 2869 4209 
Q 2456 4169 2195 4045 
Q 1934 3922 1679 3669 
Q 1425 3416 1258 3105 
Q 1091 2794 978 2366 
Q 1428 2675 1881 2675 
Q 2316 2675 2634 2325 
Q 2953 1975 2953 1425 
Q 2953 894 2631 456 
Q 2244 -75 1606 -75 
Q 1172 -75 869 213 
Q 275 772 275 1663 
Q 275 2231 503 2743 
Q 731 3256 1154 3653 
Q 1578 4050 1965 4187 
Q 2353 4325 2688 4325 
L 2869 4325 
z
M 925 2138 
Q 869 1716 869 1456 
Q 869 1156 980 804 
Q 1091 453 1309 247 
Q 1469 100 1697 100 
Q 1969 100 2183 356 
Q 2397 613 2397 1088 
Q 2397 1622 2184 2012 
Q 1972 2403 1581 2403 
Q 1463 2403 1327 2353 
Q 1191 2303 925 2138 
z
" id="TimesNewRomanPSMT-36" transform="scale(0.015625)"/>
      <path d="M 1794 4444 
L 259 -88 
L 9 -88 
L 1544 4444 
L 1794 4444 
z
" id="TimesNewRomanPSMT-2f" transform="scale(0.015625)"/>
     </defs>
     <use xlink:href="#TimesNewRomanPSMT-56"/>
     <use x="72.216797" xlink:href="#TimesNewRomanPSMT-73"/>
     <use x="111.132812" xlink:href="#TimesNewRomanPSMT-3a"/>
     <use x="138.916016" xlink:href="#TimesNewRomanPSMT-20"/>
     <use x="163.916016" xlink:href="#TimesNewRomanPSMT-33"/>
     <use x="213.916016" xlink:href="#TimesNewRomanPSMT-30"/>
     <use x="263.916016" xlink:href="#TimesNewRomanPSMT-36"/>
     <use x="313.916016" xlink:href="#TimesNewRomanPSMT-2e"/>
     <use x="338.916016" xlink:href="#TimesNewRomanPSMT-35"/>
     <use x="388.916016" xlink:href="#TimesNewRomanPSMT-33"/>
     <use x="438.916016" xlink:href="#TimesNewRomanPSMT-6d"/>
     <use x="516.699219" xlink:href="#TimesNewRomanPSMT-2f"/>
     <use x="544.482422" xlink:href="#TimesNewRomanPSMT-73"/>
    </g>
   </g>
  </g>
 </g>
 <defs>
  <clipPath id="p621137dde6">
   <rect height="332.64" width="334.8" x="63.336875" y="7.2"/>
  </clipPath>
 </defs>
</svg>
