<?xml version="1.0" encoding="utf-8" standalone="no"?>
<!DOCTYPE svg PUBLIC "-//W3C//DTD SVG 1.1//EN"
  "http://www.w3.org/Graphics/SVG/1.1/DTD/svg11.dtd">
<svg height="383.471875pt" version="1.1" viewBox="0 0 421.086875 383.471875" width="421.086875pt" xmlns="http://www.w3.org/2000/svg" xmlns:xlink="http://www.w3.org/1999/xlink">
 <metadata>
  <rdf:RDF xmlns:cc="http://creativecommons.org/ns#" xmlns:dc="http://purl.org/dc/elements/1.1/" xmlns:rdf="http://www.w3.org/1999/02/22-rdf-syntax-ns#">
   <cc:Work>
    <dc:type rdf:resource="http://purl.org/dc/dcmitype/StillImage"/>
    <dc:date>2021-06-11T14:39:37.573367</dc:date>
    <dc:format>image/svg+xml</dc:format>
    <dc:creator>
     <cc:Agent>
      <dc:title>Matplotlib v3.4.2, https://matplotlib.org/</dc:title>
     </cc:Agent>
    </dc:creator>
   </cc:Work>
  </rdf:RDF>
 </metadata>
 <defs>
  <style type="text/css">*{stroke-linecap:butt;stroke-linejoin:round;}</style>
 </defs>
 <g id="figure_1">
  <g id="patch_1">
   <path d="M 0 383.471875 
L 421.086875 383.471875 
L 421.086875 0 
L 0 0 
z
" style="fill:#ffffff;"/>
  </g>
  <g id="axes_1">
   <g id="patch_2">
    <path d="M 63.336875 339.84 
L 398.136875 339.84 
L 398.136875 7.2 
L 63.336875 7.2 
z
" style="fill:#ffffff;"/>
   </g>
   <g id="matplotlib.axis_1">
    <g id="xtick_1">
     <g id="line2d_1">
      <path clip-path="url(#pf53aeef44c)" d="M 93.773239 339.84 
L 93.773239 7.2 
" style="fill:none;stroke:#000000;stroke-dasharray:0.5,0.825;stroke-dashoffset:0;stroke-width:0.5;"/>
     </g>
     <g id="line2d_2">
      <defs>
       <path d="M 0 0 
L 0 3.5 
" id="m9ee04c6b75" style="stroke:#000000;stroke-width:0.8;"/>
      </defs>
      <g>
       <use style="stroke:#000000;stroke-width:0.8;" x="93.773239" xlink:href="#m9ee04c6b75" y="339.84"/>
      </g>
     </g>
     <g id="text_1">
      <!-- 0.000 -->
      <g transform="translate(78.023239 356.56125)scale(0.14 -0.14)">
       <defs>
        <path d="M 231 2094 
Q 231 2819 450 3342 
Q 669 3866 1031 4122 
Q 1313 4325 1613 4325 
Q 2100 4325 2488 3828 
Q 2972 3213 2972 2159 
Q 2972 1422 2759 906 
Q 2547 391 2217 158 
Q 1888 -75 1581 -75 
Q 975 -75 572 641 
Q 231 1244 231 2094 
z
M 844 2016 
Q 844 1141 1059 588 
Q 1238 122 1591 122 
Q 1759 122 1940 273 
Q 2122 425 2216 781 
Q 2359 1319 2359 2297 
Q 2359 3022 2209 3506 
Q 2097 3866 1919 4016 
Q 1791 4119 1609 4119 
Q 1397 4119 1231 3928 
Q 1006 3669 925 3112 
Q 844 2556 844 2016 
z
" id="TimesNewRomanPSMT-30" transform="scale(0.015625)"/>
        <path d="M 800 606 
Q 947 606 1047 504 
Q 1147 403 1147 259 
Q 1147 116 1045 14 
Q 944 -88 800 -88 
Q 656 -88 554 14 
Q 453 116 453 259 
Q 453 406 554 506 
Q 656 606 800 606 
z
" id="TimesNewRomanPSMT-2e" transform="scale(0.015625)"/>
       </defs>
       <use xlink:href="#TimesNewRomanPSMT-30"/>
       <use x="50" xlink:href="#TimesNewRomanPSMT-2e"/>
       <use x="75" xlink:href="#TimesNewRomanPSMT-30"/>
       <use x="125" xlink:href="#TimesNewRomanPSMT-30"/>
       <use x="175" xlink:href="#TimesNewRomanPSMT-30"/>
      </g>
     </g>
    </g>
    <g id="xtick_2">
     <g id="line2d_3">
      <path clip-path="url(#pf53aeef44c)" d="M 154.645966 339.84 
L 154.645966 7.2 
" style="fill:none;stroke:#000000;stroke-dasharray:0.5,0.825;stroke-dashoffset:0;stroke-width:0.5;"/>
     </g>
     <g id="line2d_4">
      <g>
       <use style="stroke:#000000;stroke-width:0.8;" x="154.645966" xlink:href="#m9ee04c6b75" y="339.84"/>
      </g>
     </g>
     <g id="text_2">
      <!-- 0.001 -->
      <g transform="translate(138.895966 356.56125)scale(0.14 -0.14)">
       <defs>
        <path d="M 750 3822 
L 1781 4325 
L 1884 4325 
L 1884 747 
Q 1884 391 1914 303 
Q 1944 216 2037 169 
Q 2131 122 2419 116 
L 2419 0 
L 825 0 
L 825 116 
Q 1125 122 1212 167 
Q 1300 213 1334 289 
Q 1369 366 1369 747 
L 1369 3034 
Q 1369 3497 1338 3628 
Q 1316 3728 1258 3775 
Q 1200 3822 1119 3822 
Q 1003 3822 797 3725 
L 750 3822 
z
" id="TimesNewRomanPSMT-31" transform="scale(0.015625)"/>
       </defs>
       <use xlink:href="#TimesNewRomanPSMT-30"/>
       <use x="50" xlink:href="#TimesNewRomanPSMT-2e"/>
       <use x="75" xlink:href="#TimesNewRomanPSMT-30"/>
       <use x="125" xlink:href="#TimesNewRomanPSMT-30"/>
       <use x="175" xlink:href="#TimesNewRomanPSMT-31"/>
      </g>
     </g>
    </g>
    <g id="xtick_3">
     <g id="line2d_5">
      <path clip-path="url(#pf53aeef44c)" d="M 215.518693 339.84 
L 215.518693 7.2 
" style="fill:none;stroke:#000000;stroke-dasharray:0.5,0.825;stroke-dashoffset:0;stroke-width:0.5;"/>
     </g>
     <g id="line2d_6">
      <g>
       <use style="stroke:#000000;stroke-width:0.8;" x="215.518693" xlink:href="#m9ee04c6b75" y="339.84"/>
      </g>
     </g>
     <g id="text_3">
      <!-- 0.002 -->
      <g transform="translate(199.768693 356.56125)scale(0.14 -0.14)">
       <defs>
        <path d="M 2934 816 
L 2638 0 
L 138 0 
L 138 116 
Q 1241 1122 1691 1759 
Q 2141 2397 2141 2925 
Q 2141 3328 1894 3587 
Q 1647 3847 1303 3847 
Q 991 3847 742 3664 
Q 494 3481 375 3128 
L 259 3128 
Q 338 3706 661 4015 
Q 984 4325 1469 4325 
Q 1984 4325 2329 3994 
Q 2675 3663 2675 3213 
Q 2675 2891 2525 2569 
Q 2294 2063 1775 1497 
Q 997 647 803 472 
L 1909 472 
Q 2247 472 2383 497 
Q 2519 522 2628 598 
Q 2738 675 2819 816 
L 2934 816 
z
" id="TimesNewRomanPSMT-32" transform="scale(0.015625)"/>
       </defs>
       <use xlink:href="#TimesNewRomanPSMT-30"/>
       <use x="50" xlink:href="#TimesNewRomanPSMT-2e"/>
       <use x="75" xlink:href="#TimesNewRomanPSMT-30"/>
       <use x="125" xlink:href="#TimesNewRomanPSMT-30"/>
       <use x="175" xlink:href="#TimesNewRomanPSMT-32"/>
      </g>
     </g>
    </g>
    <g id="xtick_4">
     <g id="line2d_7">
      <path clip-path="url(#pf53aeef44c)" d="M 276.39142 339.84 
L 276.39142 7.2 
" style="fill:none;stroke:#000000;stroke-dasharray:0.5,0.825;stroke-dashoffset:0;stroke-width:0.5;"/>
     </g>
     <g id="line2d_8">
      <g>
       <use style="stroke:#000000;stroke-width:0.8;" x="276.39142" xlink:href="#m9ee04c6b75" y="339.84"/>
      </g>
     </g>
     <g id="text_4">
      <!-- 0.003 -->
      <g transform="translate(260.64142 356.56125)scale(0.14 -0.14)">
       <defs>
        <path d="M 325 3431 
Q 506 3859 782 4092 
Q 1059 4325 1472 4325 
Q 1981 4325 2253 3994 
Q 2459 3747 2459 3466 
Q 2459 3003 1878 2509 
Q 2269 2356 2469 2072 
Q 2669 1788 2669 1403 
Q 2669 853 2319 450 
Q 1863 -75 997 -75 
Q 569 -75 414 31 
Q 259 138 259 259 
Q 259 350 332 419 
Q 406 488 509 488 
Q 588 488 669 463 
Q 722 447 909 348 
Q 1097 250 1169 231 
Q 1284 197 1416 197 
Q 1734 197 1970 444 
Q 2206 691 2206 1028 
Q 2206 1275 2097 1509 
Q 2016 1684 1919 1775 
Q 1784 1900 1550 2001 
Q 1316 2103 1072 2103 
L 972 2103 
L 972 2197 
Q 1219 2228 1467 2375 
Q 1716 2522 1828 2728 
Q 1941 2934 1941 3181 
Q 1941 3503 1739 3701 
Q 1538 3900 1238 3900 
Q 753 3900 428 3381 
L 325 3431 
z
" id="TimesNewRomanPSMT-33" transform="scale(0.015625)"/>
       </defs>
       <use xlink:href="#TimesNewRomanPSMT-30"/>
       <use x="50" xlink:href="#TimesNewRomanPSMT-2e"/>
       <use x="75" xlink:href="#TimesNewRomanPSMT-30"/>
       <use x="125" xlink:href="#TimesNewRomanPSMT-30"/>
       <use x="175" xlink:href="#TimesNewRomanPSMT-33"/>
      </g>
     </g>
    </g>
    <g id="xtick_5">
     <g id="line2d_9">
      <path clip-path="url(#pf53aeef44c)" d="M 337.264148 339.84 
L 337.264148 7.2 
" style="fill:none;stroke:#000000;stroke-dasharray:0.5,0.825;stroke-dashoffset:0;stroke-width:0.5;"/>
     </g>
     <g id="line2d_10">
      <g>
       <use style="stroke:#000000;stroke-width:0.8;" x="337.264148" xlink:href="#m9ee04c6b75" y="339.84"/>
      </g>
     </g>
     <g id="text_5">
      <!-- 0.004 -->
      <g transform="translate(321.514148 356.56125)scale(0.14 -0.14)">
       <defs>
        <path d="M 2978 1563 
L 2978 1119 
L 2409 1119 
L 2409 0 
L 1894 0 
L 1894 1119 
L 100 1119 
L 100 1519 
L 2066 4325 
L 2409 4325 
L 2409 1563 
L 2978 1563 
z
M 1894 1563 
L 1894 3666 
L 406 1563 
L 1894 1563 
z
" id="TimesNewRomanPSMT-34" transform="scale(0.015625)"/>
       </defs>
       <use xlink:href="#TimesNewRomanPSMT-30"/>
       <use x="50" xlink:href="#TimesNewRomanPSMT-2e"/>
       <use x="75" xlink:href="#TimesNewRomanPSMT-30"/>
       <use x="125" xlink:href="#TimesNewRomanPSMT-30"/>
       <use x="175" xlink:href="#TimesNewRomanPSMT-34"/>
      </g>
     </g>
    </g>
    <g id="xtick_6">
     <g id="line2d_11">
      <path clip-path="url(#pf53aeef44c)" d="M 398.136875 339.84 
L 398.136875 7.2 
" style="fill:none;stroke:#000000;stroke-dasharray:0.5,0.825;stroke-dashoffset:0;stroke-width:0.5;"/>
     </g>
     <g id="line2d_12">
      <g>
       <use style="stroke:#000000;stroke-width:0.8;" x="398.136875" xlink:href="#m9ee04c6b75" y="339.84"/>
      </g>
     </g>
     <g id="text_6">
      <!-- 0.005 -->
      <g transform="translate(382.386875 356.56125)scale(0.14 -0.14)">
       <defs>
        <path d="M 2778 4238 
L 2534 3706 
L 1259 3706 
L 981 3138 
Q 1809 3016 2294 2522 
Q 2709 2097 2709 1522 
Q 2709 1188 2573 903 
Q 2438 619 2231 419 
Q 2025 219 1772 97 
Q 1413 -75 1034 -75 
Q 653 -75 479 54 
Q 306 184 306 341 
Q 306 428 378 495 
Q 450 563 559 563 
Q 641 563 702 538 
Q 763 513 909 409 
Q 1144 247 1384 247 
Q 1750 247 2026 523 
Q 2303 800 2303 1197 
Q 2303 1581 2056 1914 
Q 1809 2247 1375 2428 
Q 1034 2569 447 2591 
L 1259 4238 
L 2778 4238 
z
" id="TimesNewRomanPSMT-35" transform="scale(0.015625)"/>
       </defs>
       <use xlink:href="#TimesNewRomanPSMT-30"/>
       <use x="50" xlink:href="#TimesNewRomanPSMT-2e"/>
       <use x="75" xlink:href="#TimesNewRomanPSMT-30"/>
       <use x="125" xlink:href="#TimesNewRomanPSMT-30"/>
       <use x="175" xlink:href="#TimesNewRomanPSMT-35"/>
      </g>
     </g>
    </g>
    <g id="text_7">
     <!-- Time (sec) -->
     <g transform="translate(200.858906 373.277188)scale(0.14 -0.14)">
      <defs>
       <path d="M 3703 4238 
L 3750 3244 
L 3631 3244 
Q 3597 3506 3538 3619 
Q 3441 3800 3280 3886 
Q 3119 3972 2856 3972 
L 2259 3972 
L 2259 734 
Q 2259 344 2344 247 
Q 2463 116 2709 116 
L 2856 116 
L 2856 0 
L 1059 0 
L 1059 116 
L 1209 116 
Q 1478 116 1591 278 
Q 1659 378 1659 734 
L 1659 3972 
L 1150 3972 
Q 853 3972 728 3928 
Q 566 3869 450 3700 
Q 334 3531 313 3244 
L 194 3244 
L 244 4238 
L 3703 4238 
z
" id="TimesNewRomanPSMT-54" transform="scale(0.015625)"/>
       <path d="M 928 4444 
Q 1059 4444 1151 4351 
Q 1244 4259 1244 4128 
Q 1244 3997 1151 3903 
Q 1059 3809 928 3809 
Q 797 3809 703 3903 
Q 609 3997 609 4128 
Q 609 4259 701 4351 
Q 794 4444 928 4444 
z
M 1188 2947 
L 1188 647 
Q 1188 378 1227 289 
Q 1266 200 1342 156 
Q 1419 113 1622 113 
L 1622 0 
L 231 0 
L 231 113 
Q 441 113 512 153 
Q 584 194 626 287 
Q 669 381 669 647 
L 669 1750 
Q 669 2216 641 2353 
Q 619 2453 572 2492 
Q 525 2531 444 2531 
Q 356 2531 231 2484 
L 188 2597 
L 1050 2947 
L 1188 2947 
z
" id="TimesNewRomanPSMT-69" transform="scale(0.015625)"/>
       <path d="M 1050 2338 
Q 1363 2650 1419 2697 
Q 1559 2816 1721 2881 
Q 1884 2947 2044 2947 
Q 2313 2947 2506 2790 
Q 2700 2634 2766 2338 
Q 3088 2713 3309 2830 
Q 3531 2947 3766 2947 
Q 3994 2947 4170 2830 
Q 4347 2713 4450 2447 
Q 4519 2266 4519 1878 
L 4519 647 
Q 4519 378 4559 278 
Q 4591 209 4675 161 
Q 4759 113 4950 113 
L 4950 0 
L 3538 0 
L 3538 113 
L 3597 113 
Q 3781 113 3884 184 
Q 3956 234 3988 344 
Q 4000 397 4000 647 
L 4000 1878 
Q 4000 2228 3916 2372 
Q 3794 2572 3525 2572 
Q 3359 2572 3192 2489 
Q 3025 2406 2788 2181 
L 2781 2147 
L 2788 2013 
L 2788 647 
Q 2788 353 2820 281 
Q 2853 209 2943 161 
Q 3034 113 3253 113 
L 3253 0 
L 1806 0 
L 1806 113 
Q 2044 113 2133 169 
Q 2222 225 2256 338 
Q 2272 391 2272 647 
L 2272 1878 
Q 2272 2228 2169 2381 
Q 2031 2581 1784 2581 
Q 1616 2581 1450 2491 
Q 1191 2353 1050 2181 
L 1050 647 
Q 1050 366 1089 281 
Q 1128 197 1204 155 
Q 1281 113 1516 113 
L 1516 0 
L 100 0 
L 100 113 
Q 297 113 375 155 
Q 453 197 493 289 
Q 534 381 534 647 
L 534 1741 
Q 534 2213 506 2350 
Q 484 2453 437 2492 
Q 391 2531 309 2531 
Q 222 2531 100 2484 
L 53 2597 
L 916 2947 
L 1050 2947 
L 1050 2338 
z
" id="TimesNewRomanPSMT-6d" transform="scale(0.015625)"/>
       <path d="M 681 1784 
Q 678 1147 991 784 
Q 1303 422 1725 422 
Q 2006 422 2214 576 
Q 2422 731 2563 1106 
L 2659 1044 
Q 2594 616 2278 264 
Q 1963 -88 1488 -88 
Q 972 -88 605 314 
Q 238 716 238 1394 
Q 238 2128 614 2539 
Q 991 2950 1559 2950 
Q 2041 2950 2350 2633 
Q 2659 2316 2659 1784 
L 681 1784 
z
M 681 1966 
L 2006 1966 
Q 1991 2241 1941 2353 
Q 1863 2528 1708 2628 
Q 1553 2728 1384 2728 
Q 1125 2728 920 2526 
Q 716 2325 681 1966 
z
" id="TimesNewRomanPSMT-65" transform="scale(0.015625)"/>
       <path id="TimesNewRomanPSMT-20" transform="scale(0.015625)"/>
       <path d="M 1988 -1253 
L 1988 -1369 
Q 1516 -1131 1200 -813 
Q 750 -359 506 256 
Q 263 872 263 1534 
Q 263 2503 741 3301 
Q 1219 4100 1988 4444 
L 1988 4313 
Q 1603 4100 1356 3731 
Q 1109 3363 987 2797 
Q 866 2231 866 1616 
Q 866 947 969 400 
Q 1050 -31 1165 -292 
Q 1281 -553 1476 -793 
Q 1672 -1034 1988 -1253 
z
" id="TimesNewRomanPSMT-28" transform="scale(0.015625)"/>
       <path d="M 2050 2947 
L 2050 1972 
L 1947 1972 
Q 1828 2431 1642 2597 
Q 1456 2763 1169 2763 
Q 950 2763 815 2647 
Q 681 2531 681 2391 
Q 681 2216 781 2091 
Q 878 1963 1175 1819 
L 1631 1597 
Q 2266 1288 2266 781 
Q 2266 391 1970 151 
Q 1675 -88 1309 -88 
Q 1047 -88 709 6 
Q 606 38 541 38 
Q 469 38 428 -44 
L 325 -44 
L 325 978 
L 428 978 
Q 516 541 762 319 
Q 1009 97 1316 97 
Q 1531 97 1667 223 
Q 1803 350 1803 528 
Q 1803 744 1651 891 
Q 1500 1038 1047 1263 
Q 594 1488 453 1669 
Q 313 1847 313 2119 
Q 313 2472 555 2709 
Q 797 2947 1181 2947 
Q 1350 2947 1591 2875 
Q 1750 2828 1803 2828 
Q 1853 2828 1881 2850 
Q 1909 2872 1947 2947 
L 2050 2947 
z
" id="TimesNewRomanPSMT-73" transform="scale(0.015625)"/>
       <path d="M 2631 1088 
Q 2516 522 2178 217 
Q 1841 -88 1431 -88 
Q 944 -88 581 321 
Q 219 731 219 1428 
Q 219 2103 620 2525 
Q 1022 2947 1584 2947 
Q 2006 2947 2278 2723 
Q 2550 2500 2550 2259 
Q 2550 2141 2473 2067 
Q 2397 1994 2259 1994 
Q 2075 1994 1981 2113 
Q 1928 2178 1911 2362 
Q 1894 2547 1784 2644 
Q 1675 2738 1481 2738 
Q 1169 2738 978 2506 
Q 725 2200 725 1697 
Q 725 1184 976 792 
Q 1228 400 1656 400 
Q 1963 400 2206 609 
Q 2378 753 2541 1131 
L 2631 1088 
z
" id="TimesNewRomanPSMT-63" transform="scale(0.015625)"/>
       <path d="M 144 4313 
L 144 4444 
Q 619 4209 934 3891 
Q 1381 3434 1625 2820 
Q 1869 2206 1869 1541 
Q 1869 572 1392 -226 
Q 916 -1025 144 -1369 
L 144 -1253 
Q 528 -1038 776 -670 
Q 1025 -303 1145 264 
Q 1266 831 1266 1447 
Q 1266 2113 1163 2663 
Q 1084 3094 967 3353 
Q 850 3613 656 3853 
Q 463 4094 144 4313 
z
" id="TimesNewRomanPSMT-29" transform="scale(0.015625)"/>
      </defs>
      <use xlink:href="#TimesNewRomanPSMT-54"/>
      <use x="57.583984" xlink:href="#TimesNewRomanPSMT-69"/>
      <use x="85.367188" xlink:href="#TimesNewRomanPSMT-6d"/>
      <use x="163.150391" xlink:href="#TimesNewRomanPSMT-65"/>
      <use x="207.535156" xlink:href="#TimesNewRomanPSMT-20"/>
      <use x="232.535156" xlink:href="#TimesNewRomanPSMT-28"/>
      <use x="265.835938" xlink:href="#TimesNewRomanPSMT-73"/>
      <use x="304.751953" xlink:href="#TimesNewRomanPSMT-65"/>
      <use x="349.136719" xlink:href="#TimesNewRomanPSMT-63"/>
      <use x="393.521484" xlink:href="#TimesNewRomanPSMT-29"/>
     </g>
    </g>
   </g>
   <g id="matplotlib.axis_2">
    <g id="ytick_1">
     <g id="line2d_13">
      <path clip-path="url(#pf53aeef44c)" d="M 63.336875 316.744727 
L 398.136875 316.744727 
" style="fill:none;stroke:#000000;stroke-dasharray:0.5,0.825;stroke-dashoffset:0;stroke-width:0.5;"/>
     </g>
     <g id="line2d_14">
      <defs>
       <path d="M 0 0 
L -3.5 0 
" id="m446ed0f441" style="stroke:#000000;stroke-width:0.8;"/>
      </defs>
      <g>
       <use style="stroke:#000000;stroke-width:0.8;" x="63.336875" xlink:href="#m446ed0f441" y="316.744727"/>
      </g>
     </g>
     <g id="text_8">
      <!-- −0.06 -->
      <g transform="translate(23.942188 321.605352)scale(0.14 -0.14)">
       <defs>
        <path d="M 3484 2000 
L 116 2000 
L 116 2256 
L 3484 2256 
L 3484 2000 
z
" id="TimesNewRomanPSMT-2212" transform="scale(0.015625)"/>
        <path d="M 2869 4325 
L 2869 4209 
Q 2456 4169 2195 4045 
Q 1934 3922 1679 3669 
Q 1425 3416 1258 3105 
Q 1091 2794 978 2366 
Q 1428 2675 1881 2675 
Q 2316 2675 2634 2325 
Q 2953 1975 2953 1425 
Q 2953 894 2631 456 
Q 2244 -75 1606 -75 
Q 1172 -75 869 213 
Q 275 772 275 1663 
Q 275 2231 503 2743 
Q 731 3256 1154 3653 
Q 1578 4050 1965 4187 
Q 2353 4325 2688 4325 
L 2869 4325 
z
M 925 2138 
Q 869 1716 869 1456 
Q 869 1156 980 804 
Q 1091 453 1309 247 
Q 1469 100 1697 100 
Q 1969 100 2183 356 
Q 2397 613 2397 1088 
Q 2397 1622 2184 2012 
Q 1972 2403 1581 2403 
Q 1463 2403 1327 2353 
Q 1191 2303 925 2138 
z
" id="TimesNewRomanPSMT-36" transform="scale(0.015625)"/>
       </defs>
       <use xlink:href="#TimesNewRomanPSMT-2212"/>
       <use x="56.396484" xlink:href="#TimesNewRomanPSMT-30"/>
       <use x="106.396484" xlink:href="#TimesNewRomanPSMT-2e"/>
       <use x="131.396484" xlink:href="#TimesNewRomanPSMT-30"/>
       <use x="181.396484" xlink:href="#TimesNewRomanPSMT-36"/>
      </g>
     </g>
    </g>
    <g id="ytick_2">
     <g id="line2d_15">
      <path clip-path="url(#pf53aeef44c)" d="M 63.336875 263.746661 
L 398.136875 263.746661 
" style="fill:none;stroke:#000000;stroke-dasharray:0.5,0.825;stroke-dashoffset:0;stroke-width:0.5;"/>
     </g>
     <g id="line2d_16">
      <g>
       <use style="stroke:#000000;stroke-width:0.8;" x="63.336875" xlink:href="#m446ed0f441" y="263.746661"/>
      </g>
     </g>
     <g id="text_9">
      <!-- −0.04 -->
      <g transform="translate(23.942188 268.607286)scale(0.14 -0.14)">
       <use xlink:href="#TimesNewRomanPSMT-2212"/>
       <use x="56.396484" xlink:href="#TimesNewRomanPSMT-30"/>
       <use x="106.396484" xlink:href="#TimesNewRomanPSMT-2e"/>
       <use x="131.396484" xlink:href="#TimesNewRomanPSMT-30"/>
       <use x="181.396484" xlink:href="#TimesNewRomanPSMT-34"/>
      </g>
     </g>
    </g>
    <g id="ytick_3">
     <g id="line2d_17">
      <path clip-path="url(#pf53aeef44c)" d="M 63.336875 210.748596 
L 398.136875 210.748596 
" style="fill:none;stroke:#000000;stroke-dasharray:0.5,0.825;stroke-dashoffset:0;stroke-width:0.5;"/>
     </g>
     <g id="line2d_18">
      <g>
       <use style="stroke:#000000;stroke-width:0.8;" x="63.336875" xlink:href="#m446ed0f441" y="210.748596"/>
      </g>
     </g>
     <g id="text_10">
      <!-- −0.02 -->
      <g transform="translate(23.942188 215.609221)scale(0.14 -0.14)">
       <use xlink:href="#TimesNewRomanPSMT-2212"/>
       <use x="56.396484" xlink:href="#TimesNewRomanPSMT-30"/>
       <use x="106.396484" xlink:href="#TimesNewRomanPSMT-2e"/>
       <use x="131.396484" xlink:href="#TimesNewRomanPSMT-30"/>
       <use x="181.396484" xlink:href="#TimesNewRomanPSMT-32"/>
      </g>
     </g>
    </g>
    <g id="ytick_4">
     <g id="line2d_19">
      <path clip-path="url(#pf53aeef44c)" d="M 63.336875 157.75053 
L 398.136875 157.75053 
" style="fill:none;stroke:#000000;stroke-dasharray:0.5,0.825;stroke-dashoffset:0;stroke-width:0.5;"/>
     </g>
     <g id="line2d_20">
      <g>
       <use style="stroke:#000000;stroke-width:0.8;" x="63.336875" xlink:href="#m446ed0f441" y="157.75053"/>
      </g>
     </g>
     <g id="text_11">
      <!-- 0.00 -->
      <g transform="translate(31.836875 162.611155)scale(0.14 -0.14)">
       <use xlink:href="#TimesNewRomanPSMT-30"/>
       <use x="50" xlink:href="#TimesNewRomanPSMT-2e"/>
       <use x="75" xlink:href="#TimesNewRomanPSMT-30"/>
       <use x="125" xlink:href="#TimesNewRomanPSMT-30"/>
      </g>
     </g>
    </g>
    <g id="ytick_5">
     <g id="line2d_21">
      <path clip-path="url(#pf53aeef44c)" d="M 63.336875 104.752465 
L 398.136875 104.752465 
" style="fill:none;stroke:#000000;stroke-dasharray:0.5,0.825;stroke-dashoffset:0;stroke-width:0.5;"/>
     </g>
     <g id="line2d_22">
      <g>
       <use style="stroke:#000000;stroke-width:0.8;" x="63.336875" xlink:href="#m446ed0f441" y="104.752465"/>
      </g>
     </g>
     <g id="text_12">
      <!-- 0.02 -->
      <g transform="translate(31.836875 109.61309)scale(0.14 -0.14)">
       <use xlink:href="#TimesNewRomanPSMT-30"/>
       <use x="50" xlink:href="#TimesNewRomanPSMT-2e"/>
       <use x="75" xlink:href="#TimesNewRomanPSMT-30"/>
       <use x="125" xlink:href="#TimesNewRomanPSMT-32"/>
      </g>
     </g>
    </g>
    <g id="ytick_6">
     <g id="line2d_23">
      <path clip-path="url(#pf53aeef44c)" d="M 63.336875 51.754399 
L 398.136875 51.754399 
" style="fill:none;stroke:#000000;stroke-dasharray:0.5,0.825;stroke-dashoffset:0;stroke-width:0.5;"/>
     </g>
     <g id="line2d_24">
      <g>
       <use style="stroke:#000000;stroke-width:0.8;" x="63.336875" xlink:href="#m446ed0f441" y="51.754399"/>
      </g>
     </g>
     <g id="text_13">
      <!-- 0.04 -->
      <g transform="translate(31.836875 56.615024)scale(0.14 -0.14)">
       <use xlink:href="#TimesNewRomanPSMT-30"/>
       <use x="50" xlink:href="#TimesNewRomanPSMT-2e"/>
       <use x="75" xlink:href="#TimesNewRomanPSMT-30"/>
       <use x="125" xlink:href="#TimesNewRomanPSMT-34"/>
      </g>
     </g>
    </g>
    <g id="text_14">
     <!-- Volatage (V) -->
     <g transform="translate(16.92125 209.352344)rotate(-90)scale(0.14 -0.14)">
      <defs>
       <path d="M 4544 4238 
L 4544 4122 
Q 4319 4081 4203 3978 
Q 4038 3825 3909 3509 
L 2431 -97 
L 2316 -97 
L 728 3556 
Q 606 3838 556 3900 
Q 478 3997 364 4051 
Q 250 4106 56 4122 
L 56 4238 
L 1788 4238 
L 1788 4122 
Q 1494 4094 1406 4022 
Q 1319 3950 1319 3838 
Q 1319 3681 1463 3350 
L 2541 866 
L 3541 3319 
Q 3688 3681 3688 3822 
Q 3688 3913 3597 3995 
Q 3506 4078 3291 4113 
Q 3275 4116 3238 4122 
L 3238 4238 
L 4544 4238 
z
" id="TimesNewRomanPSMT-56" transform="scale(0.015625)"/>
       <path d="M 1600 2947 
Q 2250 2947 2644 2453 
Q 2978 2031 2978 1484 
Q 2978 1100 2793 706 
Q 2609 313 2286 112 
Q 1963 -88 1566 -88 
Q 919 -88 538 428 
Q 216 863 216 1403 
Q 216 1797 411 2186 
Q 606 2575 925 2761 
Q 1244 2947 1600 2947 
z
M 1503 2744 
Q 1338 2744 1170 2645 
Q 1003 2547 900 2300 
Q 797 2053 797 1666 
Q 797 1041 1045 587 
Q 1294 134 1700 134 
Q 2003 134 2200 384 
Q 2397 634 2397 1244 
Q 2397 2006 2069 2444 
Q 1847 2744 1503 2744 
z
" id="TimesNewRomanPSMT-6f" transform="scale(0.015625)"/>
       <path d="M 1184 4444 
L 1184 647 
Q 1184 378 1223 290 
Q 1263 203 1344 158 
Q 1425 113 1647 113 
L 1647 0 
L 244 0 
L 244 113 
Q 441 113 512 153 
Q 584 194 625 287 
Q 666 381 666 647 
L 666 3247 
Q 666 3731 644 3842 
Q 622 3953 573 3993 
Q 525 4034 450 4034 
Q 369 4034 244 3984 
L 191 4094 
L 1044 4444 
L 1184 4444 
z
" id="TimesNewRomanPSMT-6c" transform="scale(0.015625)"/>
       <path d="M 1822 413 
Q 1381 72 1269 19 
Q 1100 -59 909 -59 
Q 613 -59 420 144 
Q 228 347 228 678 
Q 228 888 322 1041 
Q 450 1253 767 1440 
Q 1084 1628 1822 1897 
L 1822 2009 
Q 1822 2438 1686 2597 
Q 1550 2756 1291 2756 
Q 1094 2756 978 2650 
Q 859 2544 859 2406 
L 866 2225 
Q 866 2081 792 2003 
Q 719 1925 600 1925 
Q 484 1925 411 2006 
Q 338 2088 338 2228 
Q 338 2497 613 2722 
Q 888 2947 1384 2947 
Q 1766 2947 2009 2819 
Q 2194 2722 2281 2516 
Q 2338 2381 2338 1966 
L 2338 994 
Q 2338 584 2353 492 
Q 2369 400 2405 369 
Q 2441 338 2488 338 
Q 2538 338 2575 359 
Q 2641 400 2828 588 
L 2828 413 
Q 2478 -56 2159 -56 
Q 2006 -56 1915 50 
Q 1825 156 1822 413 
z
M 1822 616 
L 1822 1706 
Q 1350 1519 1213 1441 
Q 966 1303 859 1153 
Q 753 1003 753 825 
Q 753 600 887 451 
Q 1022 303 1197 303 
Q 1434 303 1822 616 
z
" id="TimesNewRomanPSMT-61" transform="scale(0.015625)"/>
       <path d="M 1031 3803 
L 1031 2863 
L 1700 2863 
L 1700 2644 
L 1031 2644 
L 1031 788 
Q 1031 509 1111 412 
Q 1191 316 1316 316 
Q 1419 316 1516 380 
Q 1613 444 1666 569 
L 1788 569 
Q 1678 263 1478 108 
Q 1278 -47 1066 -47 
Q 922 -47 784 33 
Q 647 113 581 261 
Q 516 409 516 719 
L 516 2644 
L 63 2644 
L 63 2747 
Q 234 2816 414 2980 
Q 594 3144 734 3369 
Q 806 3488 934 3803 
L 1031 3803 
z
" id="TimesNewRomanPSMT-74" transform="scale(0.015625)"/>
       <path d="M 966 1044 
Q 703 1172 562 1401 
Q 422 1631 422 1909 
Q 422 2334 742 2640 
Q 1063 2947 1563 2947 
Q 1972 2947 2272 2747 
L 2878 2747 
Q 3013 2747 3034 2739 
Q 3056 2731 3066 2713 
Q 3084 2684 3084 2613 
Q 3084 2531 3069 2500 
Q 3059 2484 3036 2475 
Q 3013 2466 2878 2466 
L 2506 2466 
Q 2681 2241 2681 1891 
Q 2681 1491 2375 1206 
Q 2069 922 1553 922 
Q 1341 922 1119 984 
Q 981 866 932 777 
Q 884 688 884 625 
Q 884 572 936 522 
Q 988 472 1138 450 
Q 1225 438 1575 428 
Q 2219 413 2409 384 
Q 2700 344 2873 169 
Q 3047 -6 3047 -263 
Q 3047 -616 2716 -925 
Q 2228 -1381 1444 -1381 
Q 841 -1381 425 -1109 
Q 191 -953 191 -784 
Q 191 -709 225 -634 
Q 278 -519 444 -313 
Q 466 -284 763 25 
Q 600 122 533 198 
Q 466 275 466 372 
Q 466 481 555 628 
Q 644 775 966 1044 
z
M 1509 2797 
Q 1278 2797 1122 2612 
Q 966 2428 966 2047 
Q 966 1553 1178 1281 
Q 1341 1075 1591 1075 
Q 1828 1075 1981 1253 
Q 2134 1431 2134 1813 
Q 2134 2309 1919 2591 
Q 1759 2797 1509 2797 
z
M 934 0 
Q 788 -159 713 -296 
Q 638 -434 638 -550 
Q 638 -700 819 -813 
Q 1131 -1006 1722 -1006 
Q 2284 -1006 2551 -807 
Q 2819 -609 2819 -384 
Q 2819 -222 2659 -153 
Q 2497 -84 2016 -72 
Q 1313 -53 934 0 
z
" id="TimesNewRomanPSMT-67" transform="scale(0.015625)"/>
      </defs>
      <use xlink:href="#TimesNewRomanPSMT-56"/>
      <use x="59.341797" xlink:href="#TimesNewRomanPSMT-6f"/>
      <use x="109.341797" xlink:href="#TimesNewRomanPSMT-6c"/>
      <use x="137.125" xlink:href="#TimesNewRomanPSMT-61"/>
      <use x="181.509766" xlink:href="#TimesNewRomanPSMT-74"/>
      <use x="209.292969" xlink:href="#TimesNewRomanPSMT-61"/>
      <use x="253.677734" xlink:href="#TimesNewRomanPSMT-67"/>
      <use x="303.677734" xlink:href="#TimesNewRomanPSMT-65"/>
      <use x="348.0625" xlink:href="#TimesNewRomanPSMT-20"/>
      <use x="373.0625" xlink:href="#TimesNewRomanPSMT-28"/>
      <use x="406.363281" xlink:href="#TimesNewRomanPSMT-56"/>
      <use x="478.580078" xlink:href="#TimesNewRomanPSMT-29"/>
     </g>
    </g>
   </g>
   <g id="LineCollection_1">
    <path clip-path="url(#pf53aeef44c)" d="M 78.555057 157.75053 
L 382.918693 157.75053 
" style="fill:none;stroke:#1f77b4;stroke-width:1.5;"/>
   </g>
   <g id="line2d_25">
    <path clip-path="url(#pf53aeef44c)" d="M 78.555057 157.776102 
L 103.96942 157.875473 
L 104.121602 157.908597 
L 104.243348 157.875473 
L 104.39553 157.908597 
L 104.547711 157.875473 
L 104.669457 157.908597 
L 112.278548 158.007968 
L 112.308984 158.041092 
L 112.369857 157.974845 
L 113.648184 158.074216 
L 113.800366 158.10734 
L 114.622148 158.173587 
L 114.743893 158.239835 
L 114.77433 158.206711 
L 114.835202 158.272959 
L 115.35262 158.37233 
L 115.504802 158.438578 
L 115.626548 158.405454 
L 115.809166 158.471701 
L 116.265711 158.571073 
L 116.387457 158.63732 
L 116.417893 158.571073 
L 116.509202 158.63732 
L 116.630948 158.63732 
L 117.209239 158.736692 
L 117.36142 158.769816 
L 117.391857 158.736692 
L 117.45273 158.802939 
L 118.12233 158.902311 
L 118.274511 158.935435 
L 118.913675 159.001682 
L 118.974548 159.06793 
L 119.03542 159.034806 
L 119.70502 159.134177 
L 119.887639 159.200425 
L 120.03982 159.134177 
L 120.192002 159.233549 
L 120.222439 159.200425 
L 120.313748 159.167301 
L 120.344184 159.200425 
L 120.952911 159.299796 
L 121.105093 159.33292 
L 121.531202 159.399168 
L 121.683384 159.465415 
L 121.957311 159.631034 
L 122.170366 159.730406 
L 122.38342 159.862901 
L 122.413857 159.829777 
L 122.444293 159.929148 
L 122.71822 160.094767 
L 122.870402 160.194139 
L 123.357384 160.591624 
L 123.47913 160.690995 
L 124.72702 162.181566 
L 125.305311 163.17528 
L 125.366184 163.274651 
L 125.518366 163.572765 
L 125.82273 164.202117 
L 126.644511 166.255792 
L 126.948875 167.117011 
L 128.83593 173.642398 
L 129.74902 177.186643 
L 129.901202 177.782872 
L 131.362148 183.678906 
L 131.879566 185.732581 
L 132.305675 187.156904 
L 132.670911 188.216866 
L 133.249202 189.74056 
L 133.43182 190.071798 
L 133.949239 190.933017 
L 134.162293 191.297378 
L 134.588402 191.992978 
L 134.710148 192.092349 
L 134.953639 192.390463 
L 135.075384 192.489835 
L 135.592802 192.920444 
L 136.140657 192.854196 
L 136.384148 192.589206 
L 136.475457 192.489835 
L 137.87553 189.177456 
L 138.332075 187.653761 
L 138.78862 185.831953 
L 140.432184 176.325425 
L 141.89313 164.367737 
L 143.110584 152.840657 
L 146.093348 119.186885 
L 150.354439 69.501199 
L 151.60233 58.371605 
L 152.94153 48.997575 
L 153.550257 45.685191 
L 154.889457 41.677217 
L 155.163384 41.345974 
L 155.376439 41.246606 
L 155.52862 41.279724 
L 155.741675 41.379103 
L 155.95473 41.577838 
L 156.046039 41.644088 
L 156.989566 43.962754 
L 158.054839 49.063825 
L 159.272293 59.13345 
L 160.246257 69.733066 
L 161.31153 83.810677 
L 163.168148 113.688339 
L 167.24662 195.702842 
L 169.285857 237.703809 
L 170.898984 267.183983 
L 172.572984 292.788676 
L 173.577384 304.481372 
L 174.70353 314.451627 
L 175.37313 318.691475 
L 175.890548 321.341384 
L 176.164475 322.268847 
L 176.742766 323.825666 
L 176.773202 323.825666 
L 176.986257 324.322528 
L 177.412366 324.72 
L 177.564548 324.65376 
L 177.655857 324.620642 
L 177.838475 324.388765 
L 177.868911 324.421894 
L 177.899348 324.388765 
L 178.234148 323.925034 
L 178.38633 323.62692 
L 178.72113 322.633209 
L 179.39073 319.552699 
L 179.512475 319.022719 
L 181.095166 307.992494 
L 181.886511 300.142155 
L 182.616984 291.927455 
L 185.143202 254.630066 
L 189.130366 183.281422 
L 190.226075 162.910289 
L 192.539239 122.134903 
L 194.182802 98.716383 
L 195.12633 87.321799 
L 195.582875 82.320106 
L 197.926475 60.359036 
L 198.230839 58.603469 
L 199.022184 54.098636 
L 199.356984 52.641184 
L 200.513566 48.070104 
L 200.970111 46.943895 
L 202.004948 44.923344 
L 202.309311 44.823978 
L 202.674548 44.558982 
L 202.887602 44.459613 
L 203.009348 44.426495 
L 203.344148 44.525863 
L 203.648511 44.724609 
L 203.983311 44.823978 
L 204.226802 44.956473 
L 204.378984 45.055841 
L 204.592039 45.420206 
L 204.74422 45.71832 
L 205.931239 48.533834 
L 206.387784 50.057534 
L 207.483493 53.966139 
L 208.000911 56.185438 
L 208.305275 57.510392 
L 215.153457 95.370877 
L 217.192693 107.95792 
L 217.740548 110.773445 
L 218.653639 116.040123 
L 219.201493 118.888771 
L 220.053711 123.757969 
L 220.57113 126.407872 
L 221.027675 129.090899 
L 221.697275 132.436402 
L 222.701675 138.266188 
L 223.614766 143.797862 
L 224.101748 146.679631 
L 224.527857 148.998297 
L 225.16702 153.0394 
L 226.962766 165.460822 
L 230.371639 196.100328 
L 232.836984 221.340654 
L 234.389239 238.598152 
L 235.911057 253.967588 
L 236.793711 261.519812 
L 237.767675 268.144573 
L 237.950293 269.105166 
L 238.65033 272.980649 
L 239.350366 275.63055 
L 239.806911 277.154239 
L 239.959093 277.452353 
L 240.202584 277.717349 
L 240.506948 277.916094 
L 240.720002 278.015463 
L 240.841748 278.048581 
L 240.933057 278.015463 
L 240.963493 278.048581 
L 240.99393 278.081713 
L 241.054802 278.015463 
L 242.454875 274.703086 
L 243.00273 272.251926 
L 243.124475 271.755064 
L 244.950657 261.254827 
L 246.228984 249.164641 
L 247.659493 232.404 
L 250.36833 195.603471 
L 251.920584 173.609274 
L 252.803239 161.750957 
L 253.564148 151.81382 
L 255.542511 129.455261 
L 256.881711 117.431327 
L 258.281784 108.984761 
L 258.494839 107.95792 
L 259.194875 104.711786 
L 260.868875 99.610725 
L 261.051493 99.279487 
L 261.508039 98.550761 
L 261.599348 98.451392 
L 261.812402 98.252647 
L 261.964584 98.186405 
L 262.08633 98.087031 
L 262.32982 98.020783 
L 262.451566 97.954533 
L 262.542875 98.020783 
L 262.573311 97.987657 
L 262.66462 97.954533 
L 262.695057 97.987657 
L 263.121166 98.087031 
L 263.42553 98.285771 
L 263.608148 98.385145 
L 263.821202 98.583885 
L 263.973384 98.683259 
L 265.556075 100.538194 
L 266.377857 102.061883 
L 266.590911 102.426247 
L 266.864839 102.956225 
L 267.01702 103.254339 
L 267.230075 103.751202 
L 267.930111 105.539881 
L 268.538839 107.196073 
L 268.630148 107.42794 
L 268.904075 108.15666 
L 269.391057 109.448491 
L 269.664984 110.210336 
L 269.756293 110.409081 
L 271.978148 118.027553 
L 273.256475 123.128617 
L 276.634911 133.827601 
L 276.72622 134.059467 
L 277.06102 135.05318 
L 277.48713 136.245637 
L 278.582839 139.491769 
L 278.674148 139.690512 
L 278.948075 140.485483 
L 279.039384 140.684226 
L 279.49593 141.810434 
L 280.896002 145.122814 
L 281.443857 146.547137 
L 283.909202 151.648201 
L 285.217966 152.940028 
L 285.43102 153.0394 
L 285.552766 153.0394 
L 286.161493 152.940028 
L 286.43542 152.77441 
L 286.52673 152.708162 
L 286.739784 152.476295 
L 286.86153 152.376924 
L 287.226766 151.880067 
L 287.378948 151.615077 
L 287.53113 151.350086 
L 287.835493 150.687611 
L 287.987675 150.389497 
L 288.809457 148.335822 
L 289.479057 146.480889 
L 289.570366 146.249022 
L 289.844293 145.387804 
L 291.396548 140.684226 
L 293.922766 135.450667 
L 294.379311 135.05318 
L 294.409748 135.086305 
L 294.440184 135.05318 
L 294.622802 134.920685 
L 294.866293 134.78819 
L 295.444584 134.887563 
L 296.631602 136.311886 
L 297.48382 138.431809 
L 298.518657 142.141673 
L 299.401311 146.348394 
L 299.705675 148.103955 
L 301.988402 163.70526 
L 308.014802 215.212753 
L 309.354002 224.586788 
L 310.20622 229.455983 
L 311.667166 235.385144 
L 311.758475 235.617008 
L 312.458511 236.875715 
L 312.97593 237.306326 
L 313.249857 237.405695 
L 313.432475 237.505067 
L 313.55422 237.438819 
L 313.584657 237.471943 
L 313.767275 237.372569 
L 314.22382 236.743217 
L 315.015166 234.755789 
L 316.628293 227.336063 
L 317.115275 224.421169 
L 317.389202 222.764977 
L 317.90662 219.419477 
L 318.697966 213.490318 
L 319.732802 204.778761 
L 327.189711 140.816721 
L 328.589784 130.945831 
L 329.350693 126.209129 
L 330.172475 121.571798 
L 331.694293 113.887079 
L 331.937784 112.727746 
L 332.333457 110.872814 
L 334.037893 103.883694 
L 334.372693 102.889983 
L 335.042293 101.035048 
L 335.07273 101.035048 
L 335.346657 100.273204 
L 337.41633 96.033356 
L 338.451166 95.039639 
L 338.785966 94.940271 
L 338.938148 94.907147 
L 340.946948 95.006521 
L 341.190439 95.139013 
L 341.281748 95.139013 
L 341.464366 95.271511 
L 341.707857 95.404004 
L 341.860039 95.503375 
L 343.534039 97.457679 
L 344.416693 99.113871 
L 344.599311 99.445103 
L 344.934111 100.17383 
L 345.755893 102.227505 
L 346.151566 103.51933 
L 346.334184 104.148684 
L 348.586475 114.383936 
L 349.073457 116.835099 
L 349.560439 119.385628 
L 350.260475 123.227988 
L 354.217202 144.162224 
L 355.252039 149.130793 
L 355.678148 151.250715 
L 355.952075 152.476295 
L 356.40862 154.728713 
L 357.50433 160.127891 
L 357.717384 161.187852 
L 358.782657 166.288916 
L 359.574002 169.998781 
L 360.578402 174.834854 
L 361.217566 177.716624 
L 363.074184 185.335097 
L 364.10902 189.078084 
L 364.687311 191.131759 
L 364.86993 191.794235 
L 366.635239 197.922136 
L 367.061348 199.346459 
L 367.335275 200.207678 
L 368.735348 204.414397 
L 369.191893 205.673104 
L 369.861493 207.528038 
L 369.983239 207.793026 
L 372.022475 211.966621 
L 372.23553 212.330985 
L 372.844257 213.390949 
L 373.087748 213.788432 
L 373.513857 214.450908 
L 375.035675 215.974605 
L 375.766148 216.073971 
L 375.948766 216.140221 
L 376.557493 216.040847 
L 376.92273 215.775857 
L 377.135784 215.676488 
L 377.348839 215.543993 
L 377.379275 215.577117 
L 377.440148 215.510867 
L 378.718475 213.987178 
L 380.453348 209.94607 
L 381.914293 204.811885 
L 382.918693 200.373297 
L 382.918693 200.373297 
" style="fill:none;stroke:#0000ff;stroke-linecap:square;stroke-width:1.5;"/>
   </g>
   <g id="line2d_26">
    <path clip-path="url(#pf53aeef44c)" d="M 78.555057 157.680374 
L 78.798548 157.696936 
L 79.011602 157.696936 
L 83.97273 157.796307 
L 84.21622 157.812869 
L 94.808075 157.912241 
L 95.02113 157.912241 
L 99.525711 158.011612 
L 99.738766 158.011612 
L 100.62142 158.110983 
L 100.804039 158.160669 
L 102.447602 159.137821 
L 102.691093 159.402811 
L 104.425966 162.433638 
L 105.095566 164.156075 
L 105.97822 166.855664 
L 109.843639 181.148579 
L 111.121966 184.974378 
L 112.704657 188.154262 
L 113.069893 188.551747 
L 113.982984 188.932671 
L 114.378657 188.849861 
L 114.652584 188.601433 
L 115.170002 187.889271 
L 115.961348 186.431825 
L 117.422293 181.314199 
L 118.304948 176.991544 
L 119.309348 171.526118 
L 120.983348 160.860258 
L 125.670548 125.964344 
L 127.770657 114.023215 
L 130.053384 104.566375 
L 130.996911 102.297398 
L 131.483893 101.618355 
L 132.701348 99.233448 
L 132.975275 98.968452 
L 133.310075 98.604096 
L 133.492693 98.388788 
L 134.131857 97.825684 
L 134.801457 97.726313 
L 135.318875 97.295706 
L 135.653675 97.196332 
L 135.77542 97.229456 
L 136.231966 97.378513 
L 136.627639 97.279141 
L 137.236366 97.378513 
L 137.54073 97.660062 
L 137.78422 97.925058 
L 138.088584 98.206608 
L 138.636439 99.29969 
L 139.79302 103.423607 
L 141.680075 112.118597 
L 143.354075 122.767899 
L 145.515057 139.495413 
L 146.732511 149.614731 
L 147.949966 161.174934 
L 150.993602 189.893261 
L 153.61113 211.721839 
L 154.61553 218.048483 
L 155.28513 221.725221 
L 156.319966 225.749764 
L 157.29393 228.101554 
L 158.024402 229.128394 
L 158.754875 229.02902 
L 159.698402 228.399668 
L 161.372402 224.524181 
L 162.802911 218.644711 
L 164.020366 211.423725 
L 164.811711 205.544249 
L 170.168511 162.71519 
L 171.233784 156.471356 
L 172.481675 150.856873 
L 172.755602 149.995655 
L 173.546948 147.759798 
L 174.125239 146.766085 
L 174.551348 146.153295 
L 174.825275 145.805495 
L 175.220948 145.689562 
L 175.61662 146.020799 
L 176.529711 147.147009 
L 177.808039 150.923121 
L 178.325457 153.324595 
L 181.582148 169.803682 
L 183.895311 182.986951 
L 184.473602 185.984653 
L 185.447566 190.207937 
L 185.934548 191.880688 
L 186.604148 193.404383 
L 187.486802 194.663087 
L 188.00422 194.828706 
L 188.856439 194.729334 
L 189.191239 194.381534 
L 189.617348 193.768744 
L 190.073893 192.85784 
L 190.834802 190.025756 
L 192.965348 179.061781 
L 194.274111 170.565529 
L 195.308948 163.079552 
L 199.600475 129.541714 
L 201.639711 110.644591 
L 203.344148 96.732602 
L 205.566002 81.760645 
L 206.113857 79.839468 
L 207.544366 76.228972 
L 207.787857 75.814925 
L 208.640075 74.605904 
L 208.883566 74.58935 
L 209.248802 74.688719 
L 209.492293 74.705283 
L 209.887966 74.788085 
L 210.43582 75.533375 
L 211.714148 78.580761 
L 212.383748 81.131293 
L 214.636039 91.399669 
L 216.066548 99.796552 
L 217.923166 112.648583 
L 219.262366 122.006051 
L 220.632002 130.932913 
L 224.101748 151.055616 
L 224.49742 153.225224 
L 225.684439 159.684363 
L 228.18022 171.3605 
L 229.428111 176.544374 
L 230.219457 179.508952 
L 231.28473 183.351312 
L 233.567457 192.443793 
L 234.237057 195.491181 
L 236.64153 205.478007 
L 237.524184 208.426024 
L 238.711202 211.357477 
L 239.56342 212.566493 
L 239.776475 212.798365 
L 240.141711 213.195848 
L 241.085239 214.073631 
L 242.394002 214.686418 
L 242.57662 214.702983 
L 242.972293 214.802351 
L 243.154911 214.818916 
L 243.459275 214.918282 
L 244.554984 215.630444 
L 245.376766 216.375729 
L 246.046366 216.856027 
L 246.502911 217.203824 
L 247.629057 217.93255 
L 248.389966 218.611587 
L 248.542148 218.710959 
L 248.816075 218.959385 
L 249.36393 219.373437 
L 250.916184 221.19524 
L 251.585784 222.404264 
L 251.829275 222.818312 
L 255.238148 228.200925 
L 255.420766 228.416232 
L 255.694693 228.747465 
L 257.246948 229.49275 
L 257.490439 229.476191 
L 257.764366 229.376819 
L 258.433966 228.896522 
L 258.890511 228.267175 
L 260.229711 224.325441 
L 261.629784 216.922274 
L 262.360257 211.456851 
L 263.516839 200.45975 
L 264.703857 187.044615 
L 265.738693 173.364489 
L 266.895275 155.46108 
L 272.830366 60.296432 
L 274.260875 43.055498 
L 275.14353 35.0561 
L 276.117493 28.447901 
L 277.426257 23.181224 
L 278.004548 22.435933 
L 278.369784 22.336565 
L 278.704584 22.618114 
L 279.587239 24.787728 
L 280.16553 27.007016 
L 281.352548 34.045825 
L 282.143893 40.372471 
L 283.726584 56.006898 
L 287.378948 101.038692 
L 292.066148 160.843696 
L 293.983639 181.512942 
L 296.966402 206.521406 
L 298.396911 216.591036 
L 300.557893 228.896522 
L 302.323202 236.117514 
L 303.023239 238.05525 
L 303.692839 238.949592 
L 303.93633 239.08209 
L 304.301566 238.982716 
L 305.305966 237.740577 
L 305.823384 236.713742 
L 306.736475 234.544128 
L 307.101711 233.500734 
L 308.014802 230.155229 
L 310.327966 219.621863 
L 312.610693 206.587649 
L 313.31073 201.751578 
L 314.832548 190.224499 
L 316.141311 180.436418 
L 319.67193 158.07786 
L 321.25462 150.873435 
L 322.837311 146.053924 
L 322.989493 145.739247 
L 324.906984 142.807791 
L 325.211348 142.360621 
L 325.485275 141.896888 
L 326.763602 140.654746 
L 327.402766 140.406317 
L 327.554948 140.373194 
L 330.38553 138.717003 
L 332.363893 136.4149 
L 333.73353 133.980302 
L 336.351057 128.034581 
L 337.75113 123.82786 
L 338.08593 122.850708 
L 338.938148 120.432671 
L 339.912111 118.080882 
L 341.646984 115.430979 
L 343.381857 114.602884 
L 343.655784 114.685694 
L 344.78193 116.060331 
L 346.151566 120.101433 
L 346.973348 123.148822 
L 348.282111 128.548 
L 351.325748 145.722685 
L 352.177966 151.453102 
L 353.48673 160.595268 
L 354.795493 169.869929 
L 357.352148 187.17711 
L 359.695748 199.316979 
L 361.18713 203.821812 
L 363.10462 207.746981 
L 363.835093 208.392901 
L 364.322075 208.492267 
L 364.565566 208.525393 
L 364.839493 208.492267 
L 364.991675 208.459143 
L 365.296039 208.359774 
L 365.965639 207.879479 
L 366.513493 207.134194 
L 366.87873 206.339226 
L 367.335275 205.080519 
L 368.21793 202.364365 
L 368.978839 199.532284 
L 369.831057 195.358686 
L 371.413748 185.222805 
L 373.939966 168.014997 
L 375.005239 160.214344 
L 379.448948 129.558276 
L 380.51422 123.314441 
L 382.431711 114.453827 
L 382.918693 112.615459 
L 382.918693 112.615459 
" style="fill:none;stroke:#ff0000;stroke-linecap:square;stroke-width:1.5;"/>
   </g>
   <g id="line2d_27">
    <path clip-path="url(#pf53aeef44c)" d="M 126.583639 166.123297 
" style="fill:none;stroke:#ffffff;stroke-linecap:square;stroke-width:1.5;"/>
    <defs>
     <path d="M 0 -5 
L -1.12257 -1.545085 
L -4.755283 -1.545085 
L -1.816356 0.59017 
L -2.938926 4.045085 
L -0 1.90983 
L 2.938926 4.045085 
L 1.816356 0.59017 
L 4.755283 -1.545085 
L 1.12257 -1.545085 
z
" id="m1cb857dbae" style="stroke:#ffffff;stroke-linejoin:bevel;"/>
    </defs>
    <g clip-path="url(#pf53aeef44c)">
     <use style="fill:#0000ff;stroke:#ffffff;stroke-linejoin:bevel;" x="126.583639" xlink:href="#m1cb857dbae" y="166.123297"/>
    </g>
   </g>
   <g id="line2d_28">
    <path clip-path="url(#pf53aeef44c)" d="M 105.247748 164.586685 
" style="fill:none;stroke:#ffffff;stroke-linecap:square;stroke-width:1.5;"/>
    <defs>
     <path d="M 0 -5 
L -1.12257 -1.545085 
L -4.755283 -1.545085 
L -1.816356 0.59017 
L -2.938926 4.045085 
L -0 1.90983 
L 2.938926 4.045085 
L 1.816356 0.59017 
L 4.755283 -1.545085 
L 1.12257 -1.545085 
z
" id="ma20d61a6cb" style="stroke:#ffffff;stroke-linejoin:bevel;"/>
    </defs>
    <g clip-path="url(#pf53aeef44c)">
     <use style="fill:#ff0000;stroke:#ffffff;stroke-linejoin:bevel;" x="105.247748" xlink:href="#ma20d61a6cb" y="164.586685"/>
    </g>
   </g>
   <g id="patch_3">
    <path d="M 63.336875 339.84 
L 63.336875 7.2 
" style="fill:none;stroke:#000000;stroke-linecap:square;stroke-linejoin:miter;stroke-width:0.8;"/>
   </g>
   <g id="patch_4">
    <path d="M 398.136875 339.84 
L 398.136875 7.2 
" style="fill:none;stroke:#000000;stroke-linecap:square;stroke-linejoin:miter;stroke-width:0.8;"/>
   </g>
   <g id="patch_5">
    <path d="M 63.336875 339.84 
L 398.136875 339.84 
" style="fill:none;stroke:#000000;stroke-linecap:square;stroke-linejoin:miter;stroke-width:0.8;"/>
   </g>
   <g id="patch_6">
    <path d="M 63.336875 7.2 
L 398.136875 7.2 
" style="fill:none;stroke:#000000;stroke-linecap:square;stroke-linejoin:miter;stroke-width:0.8;"/>
   </g>
   <g id="text_15">
    <g id="patch_7">
     <path d="M 75.036875 331.242688 
L 166.79375 331.242688 
L 166.79375 293.760312 
L 75.036875 293.760312 
z
" style="fill:#ffffff;stroke:#000000;stroke-linejoin:miter;stroke-width:0.75;"/>
    </g>
    <!-- Auto_00078 -->
    <g transform="translate(80.076875 308.521563)scale(0.14 -0.14)">
     <defs>
      <path d="M 2928 1419 
L 1288 1419 
L 1000 750 
Q 894 503 894 381 
Q 894 284 986 211 
Q 1078 138 1384 116 
L 1384 0 
L 50 0 
L 50 116 
Q 316 163 394 238 
Q 553 388 747 847 
L 2238 4334 
L 2347 4334 
L 3822 809 
Q 4000 384 4145 257 
Q 4291 131 4550 116 
L 4550 0 
L 2878 0 
L 2878 116 
Q 3131 128 3220 200 
Q 3309 272 3309 375 
Q 3309 513 3184 809 
L 2928 1419 
z
M 2841 1650 
L 2122 3363 
L 1384 1650 
L 2841 1650 
z
" id="TimesNewRomanPSMT-41" transform="scale(0.015625)"/>
      <path d="M 2709 2863 
L 2709 1128 
Q 2709 631 2732 520 
Q 2756 409 2807 365 
Q 2859 322 2928 322 
Q 3025 322 3147 375 
L 3191 266 
L 2334 -88 
L 2194 -88 
L 2194 519 
Q 1825 119 1631 15 
Q 1438 -88 1222 -88 
Q 981 -88 804 51 
Q 628 191 559 409 
Q 491 628 491 1028 
L 491 2306 
Q 491 2509 447 2587 
Q 403 2666 317 2708 
Q 231 2750 6 2747 
L 6 2863 
L 1009 2863 
L 1009 947 
Q 1009 547 1148 422 
Q 1288 297 1484 297 
Q 1619 297 1789 381 
Q 1959 466 2194 703 
L 2194 2325 
Q 2194 2569 2105 2655 
Q 2016 2741 1734 2747 
L 1734 2863 
L 2709 2863 
z
" id="TimesNewRomanPSMT-75" transform="scale(0.015625)"/>
      <path d="M 3256 -1381 
L -53 -1381 
L -53 -1119 
L 3256 -1119 
L 3256 -1381 
z
" id="TimesNewRomanPSMT-5f" transform="scale(0.015625)"/>
      <path d="M 644 4238 
L 2916 4238 
L 2916 4119 
L 1503 -88 
L 1153 -88 
L 2419 3728 
L 1253 3728 
Q 900 3728 750 3644 
Q 488 3500 328 3200 
L 238 3234 
L 644 4238 
z
" id="TimesNewRomanPSMT-37" transform="scale(0.015625)"/>
      <path d="M 1228 2134 
Q 725 2547 579 2797 
Q 434 3047 434 3316 
Q 434 3728 753 4026 
Q 1072 4325 1600 4325 
Q 2113 4325 2425 4047 
Q 2738 3769 2738 3413 
Q 2738 3175 2569 2928 
Q 2400 2681 1866 2347 
Q 2416 1922 2594 1678 
Q 2831 1359 2831 1006 
Q 2831 559 2490 242 
Q 2150 -75 1597 -75 
Q 994 -75 656 303 
Q 388 606 388 966 
Q 388 1247 577 1523 
Q 766 1800 1228 2134 
z
M 1719 2469 
Q 2094 2806 2194 3001 
Q 2294 3197 2294 3444 
Q 2294 3772 2109 3958 
Q 1925 4144 1606 4144 
Q 1288 4144 1088 3959 
Q 888 3775 888 3528 
Q 888 3366 970 3203 
Q 1053 3041 1206 2894 
L 1719 2469 
z
M 1375 2016 
Q 1116 1797 991 1539 
Q 866 1281 866 981 
Q 866 578 1086 336 
Q 1306 94 1647 94 
Q 1984 94 2187 284 
Q 2391 475 2391 747 
Q 2391 972 2272 1150 
Q 2050 1481 1375 2016 
z
" id="TimesNewRomanPSMT-38" transform="scale(0.015625)"/>
     </defs>
     <use xlink:href="#TimesNewRomanPSMT-41"/>
     <use x="72.216797" xlink:href="#TimesNewRomanPSMT-75"/>
     <use x="122.216797" xlink:href="#TimesNewRomanPSMT-74"/>
     <use x="150" xlink:href="#TimesNewRomanPSMT-6f"/>
     <use x="200" xlink:href="#TimesNewRomanPSMT-5f"/>
     <use x="250" xlink:href="#TimesNewRomanPSMT-30"/>
     <use x="300" xlink:href="#TimesNewRomanPSMT-30"/>
     <use x="350" xlink:href="#TimesNewRomanPSMT-30"/>
     <use x="400" xlink:href="#TimesNewRomanPSMT-37"/>
     <use x="450" xlink:href="#TimesNewRomanPSMT-38"/>
    </g>
    <!-- Vs: 285.15m/s -->
    <g transform="translate(80.076875 323.208)scale(0.14 -0.14)">
     <defs>
      <path d="M 903 2950 
Q 1047 2950 1148 2848 
Q 1250 2747 1250 2603 
Q 1250 2459 1148 2357 
Q 1047 2256 903 2256 
Q 759 2256 657 2357 
Q 556 2459 556 2603 
Q 556 2747 657 2848 
Q 759 2950 903 2950 
z
M 897 609 
Q 1044 609 1145 506 
Q 1247 403 1247 259 
Q 1247 116 1144 14 
Q 1041 -88 897 -88 
Q 753 -88 651 14 
Q 550 116 550 259 
Q 550 403 651 506 
Q 753 609 897 609 
z
" id="TimesNewRomanPSMT-3a" transform="scale(0.015625)"/>
      <path d="M 1794 4444 
L 259 -88 
L 9 -88 
L 1544 4444 
L 1794 4444 
z
" id="TimesNewRomanPSMT-2f" transform="scale(0.015625)"/>
     </defs>
     <use xlink:href="#TimesNewRomanPSMT-56"/>
     <use x="72.216797" xlink:href="#TimesNewRomanPSMT-73"/>
     <use x="111.132812" xlink:href="#TimesNewRomanPSMT-3a"/>
     <use x="138.916016" xlink:href="#TimesNewRomanPSMT-20"/>
     <use x="163.916016" xlink:href="#TimesNewRomanPSMT-32"/>
     <use x="213.916016" xlink:href="#TimesNewRomanPSMT-38"/>
     <use x="263.916016" xlink:href="#TimesNewRomanPSMT-35"/>
     <use x="313.916016" xlink:href="#TimesNewRomanPSMT-2e"/>
     <use x="338.916016" xlink:href="#TimesNewRomanPSMT-31"/>
     <use x="388.916016" xlink:href="#TimesNewRomanPSMT-35"/>
     <use x="438.916016" xlink:href="#TimesNewRomanPSMT-6d"/>
     <use x="516.699219" xlink:href="#TimesNewRomanPSMT-2f"/>
     <use x="544.482422" xlink:href="#TimesNewRomanPSMT-73"/>
    </g>
   </g>
  </g>
 </g>
 <defs>
  <clipPath id="pf53aeef44c">
   <rect height="332.64" width="334.8" x="63.336875" y="7.2"/>
  </clipPath>
 </defs>
</svg>
