<?xml version="1.0" encoding="utf-8" standalone="no"?>
<!DOCTYPE svg PUBLIC "-//W3C//DTD SVG 1.1//EN"
  "http://www.w3.org/Graphics/SVG/1.1/DTD/svg11.dtd">
<svg height="383.471875pt" version="1.1" viewBox="0 0 421.086875 383.471875" width="421.086875pt" xmlns="http://www.w3.org/2000/svg" xmlns:xlink="http://www.w3.org/1999/xlink">
 <metadata>
  <rdf:RDF xmlns:cc="http://creativecommons.org/ns#" xmlns:dc="http://purl.org/dc/elements/1.1/" xmlns:rdf="http://www.w3.org/1999/02/22-rdf-syntax-ns#">
   <cc:Work>
    <dc:type rdf:resource="http://purl.org/dc/dcmitype/StillImage"/>
    <dc:date>2021-06-11T14:39:37.852917</dc:date>
    <dc:format>image/svg+xml</dc:format>
    <dc:creator>
     <cc:Agent>
      <dc:title>Matplotlib v3.4.2, https://matplotlib.org/</dc:title>
     </cc:Agent>
    </dc:creator>
   </cc:Work>
  </rdf:RDF>
 </metadata>
 <defs>
  <style type="text/css">*{stroke-linecap:butt;stroke-linejoin:round;}</style>
 </defs>
 <g id="figure_1">
  <g id="patch_1">
   <path d="M 0 383.471875 
L 421.086875 383.471875 
L 421.086875 0 
L 0 0 
z
" style="fill:#ffffff;"/>
  </g>
  <g id="axes_1">
   <g id="patch_2">
    <path d="M 63.336875 339.84 
L 398.136875 339.84 
L 398.136875 7.2 
L 63.336875 7.2 
z
" style="fill:#ffffff;"/>
   </g>
   <g id="matplotlib.axis_1">
    <g id="xtick_1">
     <g id="line2d_1">
      <path clip-path="url(#p4dd2eb340f)" d="M 93.773239 339.84 
L 93.773239 7.2 
" style="fill:none;stroke:#000000;stroke-dasharray:0.5,0.825;stroke-dashoffset:0;stroke-width:0.5;"/>
     </g>
     <g id="line2d_2">
      <defs>
       <path d="M 0 0 
L 0 3.5 
" id="med77ed241d" style="stroke:#000000;stroke-width:0.8;"/>
      </defs>
      <g>
       <use style="stroke:#000000;stroke-width:0.8;" x="93.773239" xlink:href="#med77ed241d" y="339.84"/>
      </g>
     </g>
     <g id="text_1">
      <!-- 0.000 -->
      <g transform="translate(78.023239 356.56125)scale(0.14 -0.14)">
       <defs>
        <path d="M 231 2094 
Q 231 2819 450 3342 
Q 669 3866 1031 4122 
Q 1313 4325 1613 4325 
Q 2100 4325 2488 3828 
Q 2972 3213 2972 2159 
Q 2972 1422 2759 906 
Q 2547 391 2217 158 
Q 1888 -75 1581 -75 
Q 975 -75 572 641 
Q 231 1244 231 2094 
z
M 844 2016 
Q 844 1141 1059 588 
Q 1238 122 1591 122 
Q 1759 122 1940 273 
Q 2122 425 2216 781 
Q 2359 1319 2359 2297 
Q 2359 3022 2209 3506 
Q 2097 3866 1919 4016 
Q 1791 4119 1609 4119 
Q 1397 4119 1231 3928 
Q 1006 3669 925 3112 
Q 844 2556 844 2016 
z
" id="TimesNewRomanPSMT-30" transform="scale(0.015625)"/>
        <path d="M 800 606 
Q 947 606 1047 504 
Q 1147 403 1147 259 
Q 1147 116 1045 14 
Q 944 -88 800 -88 
Q 656 -88 554 14 
Q 453 116 453 259 
Q 453 406 554 506 
Q 656 606 800 606 
z
" id="TimesNewRomanPSMT-2e" transform="scale(0.015625)"/>
       </defs>
       <use xlink:href="#TimesNewRomanPSMT-30"/>
       <use x="50" xlink:href="#TimesNewRomanPSMT-2e"/>
       <use x="75" xlink:href="#TimesNewRomanPSMT-30"/>
       <use x="125" xlink:href="#TimesNewRomanPSMT-30"/>
       <use x="175" xlink:href="#TimesNewRomanPSMT-30"/>
      </g>
     </g>
    </g>
    <g id="xtick_2">
     <g id="line2d_3">
      <path clip-path="url(#p4dd2eb340f)" d="M 154.645966 339.84 
L 154.645966 7.2 
" style="fill:none;stroke:#000000;stroke-dasharray:0.5,0.825;stroke-dashoffset:0;stroke-width:0.5;"/>
     </g>
     <g id="line2d_4">
      <g>
       <use style="stroke:#000000;stroke-width:0.8;" x="154.645966" xlink:href="#med77ed241d" y="339.84"/>
      </g>
     </g>
     <g id="text_2">
      <!-- 0.001 -->
      <g transform="translate(138.895966 356.56125)scale(0.14 -0.14)">
       <defs>
        <path d="M 750 3822 
L 1781 4325 
L 1884 4325 
L 1884 747 
Q 1884 391 1914 303 
Q 1944 216 2037 169 
Q 2131 122 2419 116 
L 2419 0 
L 825 0 
L 825 116 
Q 1125 122 1212 167 
Q 1300 213 1334 289 
Q 1369 366 1369 747 
L 1369 3034 
Q 1369 3497 1338 3628 
Q 1316 3728 1258 3775 
Q 1200 3822 1119 3822 
Q 1003 3822 797 3725 
L 750 3822 
z
" id="TimesNewRomanPSMT-31" transform="scale(0.015625)"/>
       </defs>
       <use xlink:href="#TimesNewRomanPSMT-30"/>
       <use x="50" xlink:href="#TimesNewRomanPSMT-2e"/>
       <use x="75" xlink:href="#TimesNewRomanPSMT-30"/>
       <use x="125" xlink:href="#TimesNewRomanPSMT-30"/>
       <use x="175" xlink:href="#TimesNewRomanPSMT-31"/>
      </g>
     </g>
    </g>
    <g id="xtick_3">
     <g id="line2d_5">
      <path clip-path="url(#p4dd2eb340f)" d="M 215.518693 339.84 
L 215.518693 7.2 
" style="fill:none;stroke:#000000;stroke-dasharray:0.5,0.825;stroke-dashoffset:0;stroke-width:0.5;"/>
     </g>
     <g id="line2d_6">
      <g>
       <use style="stroke:#000000;stroke-width:0.8;" x="215.518693" xlink:href="#med77ed241d" y="339.84"/>
      </g>
     </g>
     <g id="text_3">
      <!-- 0.002 -->
      <g transform="translate(199.768693 356.56125)scale(0.14 -0.14)">
       <defs>
        <path d="M 2934 816 
L 2638 0 
L 138 0 
L 138 116 
Q 1241 1122 1691 1759 
Q 2141 2397 2141 2925 
Q 2141 3328 1894 3587 
Q 1647 3847 1303 3847 
Q 991 3847 742 3664 
Q 494 3481 375 3128 
L 259 3128 
Q 338 3706 661 4015 
Q 984 4325 1469 4325 
Q 1984 4325 2329 3994 
Q 2675 3663 2675 3213 
Q 2675 2891 2525 2569 
Q 2294 2063 1775 1497 
Q 997 647 803 472 
L 1909 472 
Q 2247 472 2383 497 
Q 2519 522 2628 598 
Q 2738 675 2819 816 
L 2934 816 
z
" id="TimesNewRomanPSMT-32" transform="scale(0.015625)"/>
       </defs>
       <use xlink:href="#TimesNewRomanPSMT-30"/>
       <use x="50" xlink:href="#TimesNewRomanPSMT-2e"/>
       <use x="75" xlink:href="#TimesNewRomanPSMT-30"/>
       <use x="125" xlink:href="#TimesNewRomanPSMT-30"/>
       <use x="175" xlink:href="#TimesNewRomanPSMT-32"/>
      </g>
     </g>
    </g>
    <g id="xtick_4">
     <g id="line2d_7">
      <path clip-path="url(#p4dd2eb340f)" d="M 276.39142 339.84 
L 276.39142 7.2 
" style="fill:none;stroke:#000000;stroke-dasharray:0.5,0.825;stroke-dashoffset:0;stroke-width:0.5;"/>
     </g>
     <g id="line2d_8">
      <g>
       <use style="stroke:#000000;stroke-width:0.8;" x="276.39142" xlink:href="#med77ed241d" y="339.84"/>
      </g>
     </g>
     <g id="text_4">
      <!-- 0.003 -->
      <g transform="translate(260.64142 356.56125)scale(0.14 -0.14)">
       <defs>
        <path d="M 325 3431 
Q 506 3859 782 4092 
Q 1059 4325 1472 4325 
Q 1981 4325 2253 3994 
Q 2459 3747 2459 3466 
Q 2459 3003 1878 2509 
Q 2269 2356 2469 2072 
Q 2669 1788 2669 1403 
Q 2669 853 2319 450 
Q 1863 -75 997 -75 
Q 569 -75 414 31 
Q 259 138 259 259 
Q 259 350 332 419 
Q 406 488 509 488 
Q 588 488 669 463 
Q 722 447 909 348 
Q 1097 250 1169 231 
Q 1284 197 1416 197 
Q 1734 197 1970 444 
Q 2206 691 2206 1028 
Q 2206 1275 2097 1509 
Q 2016 1684 1919 1775 
Q 1784 1900 1550 2001 
Q 1316 2103 1072 2103 
L 972 2103 
L 972 2197 
Q 1219 2228 1467 2375 
Q 1716 2522 1828 2728 
Q 1941 2934 1941 3181 
Q 1941 3503 1739 3701 
Q 1538 3900 1238 3900 
Q 753 3900 428 3381 
L 325 3431 
z
" id="TimesNewRomanPSMT-33" transform="scale(0.015625)"/>
       </defs>
       <use xlink:href="#TimesNewRomanPSMT-30"/>
       <use x="50" xlink:href="#TimesNewRomanPSMT-2e"/>
       <use x="75" xlink:href="#TimesNewRomanPSMT-30"/>
       <use x="125" xlink:href="#TimesNewRomanPSMT-30"/>
       <use x="175" xlink:href="#TimesNewRomanPSMT-33"/>
      </g>
     </g>
    </g>
    <g id="xtick_5">
     <g id="line2d_9">
      <path clip-path="url(#p4dd2eb340f)" d="M 337.264148 339.84 
L 337.264148 7.2 
" style="fill:none;stroke:#000000;stroke-dasharray:0.5,0.825;stroke-dashoffset:0;stroke-width:0.5;"/>
     </g>
     <g id="line2d_10">
      <g>
       <use style="stroke:#000000;stroke-width:0.8;" x="337.264148" xlink:href="#med77ed241d" y="339.84"/>
      </g>
     </g>
     <g id="text_5">
      <!-- 0.004 -->
      <g transform="translate(321.514148 356.56125)scale(0.14 -0.14)">
       <defs>
        <path d="M 2978 1563 
L 2978 1119 
L 2409 1119 
L 2409 0 
L 1894 0 
L 1894 1119 
L 100 1119 
L 100 1519 
L 2066 4325 
L 2409 4325 
L 2409 1563 
L 2978 1563 
z
M 1894 1563 
L 1894 3666 
L 406 1563 
L 1894 1563 
z
" id="TimesNewRomanPSMT-34" transform="scale(0.015625)"/>
       </defs>
       <use xlink:href="#TimesNewRomanPSMT-30"/>
       <use x="50" xlink:href="#TimesNewRomanPSMT-2e"/>
       <use x="75" xlink:href="#TimesNewRomanPSMT-30"/>
       <use x="125" xlink:href="#TimesNewRomanPSMT-30"/>
       <use x="175" xlink:href="#TimesNewRomanPSMT-34"/>
      </g>
     </g>
    </g>
    <g id="xtick_6">
     <g id="line2d_11">
      <path clip-path="url(#p4dd2eb340f)" d="M 398.136875 339.84 
L 398.136875 7.2 
" style="fill:none;stroke:#000000;stroke-dasharray:0.5,0.825;stroke-dashoffset:0;stroke-width:0.5;"/>
     </g>
     <g id="line2d_12">
      <g>
       <use style="stroke:#000000;stroke-width:0.8;" x="398.136875" xlink:href="#med77ed241d" y="339.84"/>
      </g>
     </g>
     <g id="text_6">
      <!-- 0.005 -->
      <g transform="translate(382.386875 356.56125)scale(0.14 -0.14)">
       <defs>
        <path d="M 2778 4238 
L 2534 3706 
L 1259 3706 
L 981 3138 
Q 1809 3016 2294 2522 
Q 2709 2097 2709 1522 
Q 2709 1188 2573 903 
Q 2438 619 2231 419 
Q 2025 219 1772 97 
Q 1413 -75 1034 -75 
Q 653 -75 479 54 
Q 306 184 306 341 
Q 306 428 378 495 
Q 450 563 559 563 
Q 641 563 702 538 
Q 763 513 909 409 
Q 1144 247 1384 247 
Q 1750 247 2026 523 
Q 2303 800 2303 1197 
Q 2303 1581 2056 1914 
Q 1809 2247 1375 2428 
Q 1034 2569 447 2591 
L 1259 4238 
L 2778 4238 
z
" id="TimesNewRomanPSMT-35" transform="scale(0.015625)"/>
       </defs>
       <use xlink:href="#TimesNewRomanPSMT-30"/>
       <use x="50" xlink:href="#TimesNewRomanPSMT-2e"/>
       <use x="75" xlink:href="#TimesNewRomanPSMT-30"/>
       <use x="125" xlink:href="#TimesNewRomanPSMT-30"/>
       <use x="175" xlink:href="#TimesNewRomanPSMT-35"/>
      </g>
     </g>
    </g>
    <g id="text_7">
     <!-- Time (sec) -->
     <g transform="translate(200.858906 373.277188)scale(0.14 -0.14)">
      <defs>
       <path d="M 3703 4238 
L 3750 3244 
L 3631 3244 
Q 3597 3506 3538 3619 
Q 3441 3800 3280 3886 
Q 3119 3972 2856 3972 
L 2259 3972 
L 2259 734 
Q 2259 344 2344 247 
Q 2463 116 2709 116 
L 2856 116 
L 2856 0 
L 1059 0 
L 1059 116 
L 1209 116 
Q 1478 116 1591 278 
Q 1659 378 1659 734 
L 1659 3972 
L 1150 3972 
Q 853 3972 728 3928 
Q 566 3869 450 3700 
Q 334 3531 313 3244 
L 194 3244 
L 244 4238 
L 3703 4238 
z
" id="TimesNewRomanPSMT-54" transform="scale(0.015625)"/>
       <path d="M 928 4444 
Q 1059 4444 1151 4351 
Q 1244 4259 1244 4128 
Q 1244 3997 1151 3903 
Q 1059 3809 928 3809 
Q 797 3809 703 3903 
Q 609 3997 609 4128 
Q 609 4259 701 4351 
Q 794 4444 928 4444 
z
M 1188 2947 
L 1188 647 
Q 1188 378 1227 289 
Q 1266 200 1342 156 
Q 1419 113 1622 113 
L 1622 0 
L 231 0 
L 231 113 
Q 441 113 512 153 
Q 584 194 626 287 
Q 669 381 669 647 
L 669 1750 
Q 669 2216 641 2353 
Q 619 2453 572 2492 
Q 525 2531 444 2531 
Q 356 2531 231 2484 
L 188 2597 
L 1050 2947 
L 1188 2947 
z
" id="TimesNewRomanPSMT-69" transform="scale(0.015625)"/>
       <path d="M 1050 2338 
Q 1363 2650 1419 2697 
Q 1559 2816 1721 2881 
Q 1884 2947 2044 2947 
Q 2313 2947 2506 2790 
Q 2700 2634 2766 2338 
Q 3088 2713 3309 2830 
Q 3531 2947 3766 2947 
Q 3994 2947 4170 2830 
Q 4347 2713 4450 2447 
Q 4519 2266 4519 1878 
L 4519 647 
Q 4519 378 4559 278 
Q 4591 209 4675 161 
Q 4759 113 4950 113 
L 4950 0 
L 3538 0 
L 3538 113 
L 3597 113 
Q 3781 113 3884 184 
Q 3956 234 3988 344 
Q 4000 397 4000 647 
L 4000 1878 
Q 4000 2228 3916 2372 
Q 3794 2572 3525 2572 
Q 3359 2572 3192 2489 
Q 3025 2406 2788 2181 
L 2781 2147 
L 2788 2013 
L 2788 647 
Q 2788 353 2820 281 
Q 2853 209 2943 161 
Q 3034 113 3253 113 
L 3253 0 
L 1806 0 
L 1806 113 
Q 2044 113 2133 169 
Q 2222 225 2256 338 
Q 2272 391 2272 647 
L 2272 1878 
Q 2272 2228 2169 2381 
Q 2031 2581 1784 2581 
Q 1616 2581 1450 2491 
Q 1191 2353 1050 2181 
L 1050 647 
Q 1050 366 1089 281 
Q 1128 197 1204 155 
Q 1281 113 1516 113 
L 1516 0 
L 100 0 
L 100 113 
Q 297 113 375 155 
Q 453 197 493 289 
Q 534 381 534 647 
L 534 1741 
Q 534 2213 506 2350 
Q 484 2453 437 2492 
Q 391 2531 309 2531 
Q 222 2531 100 2484 
L 53 2597 
L 916 2947 
L 1050 2947 
L 1050 2338 
z
" id="TimesNewRomanPSMT-6d" transform="scale(0.015625)"/>
       <path d="M 681 1784 
Q 678 1147 991 784 
Q 1303 422 1725 422 
Q 2006 422 2214 576 
Q 2422 731 2563 1106 
L 2659 1044 
Q 2594 616 2278 264 
Q 1963 -88 1488 -88 
Q 972 -88 605 314 
Q 238 716 238 1394 
Q 238 2128 614 2539 
Q 991 2950 1559 2950 
Q 2041 2950 2350 2633 
Q 2659 2316 2659 1784 
L 681 1784 
z
M 681 1966 
L 2006 1966 
Q 1991 2241 1941 2353 
Q 1863 2528 1708 2628 
Q 1553 2728 1384 2728 
Q 1125 2728 920 2526 
Q 716 2325 681 1966 
z
" id="TimesNewRomanPSMT-65" transform="scale(0.015625)"/>
       <path id="TimesNewRomanPSMT-20" transform="scale(0.015625)"/>
       <path d="M 1988 -1253 
L 1988 -1369 
Q 1516 -1131 1200 -813 
Q 750 -359 506 256 
Q 263 872 263 1534 
Q 263 2503 741 3301 
Q 1219 4100 1988 4444 
L 1988 4313 
Q 1603 4100 1356 3731 
Q 1109 3363 987 2797 
Q 866 2231 866 1616 
Q 866 947 969 400 
Q 1050 -31 1165 -292 
Q 1281 -553 1476 -793 
Q 1672 -1034 1988 -1253 
z
" id="TimesNewRomanPSMT-28" transform="scale(0.015625)"/>
       <path d="M 2050 2947 
L 2050 1972 
L 1947 1972 
Q 1828 2431 1642 2597 
Q 1456 2763 1169 2763 
Q 950 2763 815 2647 
Q 681 2531 681 2391 
Q 681 2216 781 2091 
Q 878 1963 1175 1819 
L 1631 1597 
Q 2266 1288 2266 781 
Q 2266 391 1970 151 
Q 1675 -88 1309 -88 
Q 1047 -88 709 6 
Q 606 38 541 38 
Q 469 38 428 -44 
L 325 -44 
L 325 978 
L 428 978 
Q 516 541 762 319 
Q 1009 97 1316 97 
Q 1531 97 1667 223 
Q 1803 350 1803 528 
Q 1803 744 1651 891 
Q 1500 1038 1047 1263 
Q 594 1488 453 1669 
Q 313 1847 313 2119 
Q 313 2472 555 2709 
Q 797 2947 1181 2947 
Q 1350 2947 1591 2875 
Q 1750 2828 1803 2828 
Q 1853 2828 1881 2850 
Q 1909 2872 1947 2947 
L 2050 2947 
z
" id="TimesNewRomanPSMT-73" transform="scale(0.015625)"/>
       <path d="M 2631 1088 
Q 2516 522 2178 217 
Q 1841 -88 1431 -88 
Q 944 -88 581 321 
Q 219 731 219 1428 
Q 219 2103 620 2525 
Q 1022 2947 1584 2947 
Q 2006 2947 2278 2723 
Q 2550 2500 2550 2259 
Q 2550 2141 2473 2067 
Q 2397 1994 2259 1994 
Q 2075 1994 1981 2113 
Q 1928 2178 1911 2362 
Q 1894 2547 1784 2644 
Q 1675 2738 1481 2738 
Q 1169 2738 978 2506 
Q 725 2200 725 1697 
Q 725 1184 976 792 
Q 1228 400 1656 400 
Q 1963 400 2206 609 
Q 2378 753 2541 1131 
L 2631 1088 
z
" id="TimesNewRomanPSMT-63" transform="scale(0.015625)"/>
       <path d="M 144 4313 
L 144 4444 
Q 619 4209 934 3891 
Q 1381 3434 1625 2820 
Q 1869 2206 1869 1541 
Q 1869 572 1392 -226 
Q 916 -1025 144 -1369 
L 144 -1253 
Q 528 -1038 776 -670 
Q 1025 -303 1145 264 
Q 1266 831 1266 1447 
Q 1266 2113 1163 2663 
Q 1084 3094 967 3353 
Q 850 3613 656 3853 
Q 463 4094 144 4313 
z
" id="TimesNewRomanPSMT-29" transform="scale(0.015625)"/>
      </defs>
      <use xlink:href="#TimesNewRomanPSMT-54"/>
      <use x="57.583984" xlink:href="#TimesNewRomanPSMT-69"/>
      <use x="85.367188" xlink:href="#TimesNewRomanPSMT-6d"/>
      <use x="163.150391" xlink:href="#TimesNewRomanPSMT-65"/>
      <use x="207.535156" xlink:href="#TimesNewRomanPSMT-20"/>
      <use x="232.535156" xlink:href="#TimesNewRomanPSMT-28"/>
      <use x="265.835938" xlink:href="#TimesNewRomanPSMT-73"/>
      <use x="304.751953" xlink:href="#TimesNewRomanPSMT-65"/>
      <use x="349.136719" xlink:href="#TimesNewRomanPSMT-63"/>
      <use x="393.521484" xlink:href="#TimesNewRomanPSMT-29"/>
     </g>
    </g>
   </g>
   <g id="matplotlib.axis_2">
    <g id="ytick_1">
     <g id="line2d_13">
      <path clip-path="url(#p4dd2eb340f)" d="M 63.336875 280.011819 
L 398.136875 280.011819 
" style="fill:none;stroke:#000000;stroke-dasharray:0.5,0.825;stroke-dashoffset:0;stroke-width:0.5;"/>
     </g>
     <g id="line2d_14">
      <defs>
       <path d="M 0 0 
L -3.5 0 
" id="m1fb78e0032" style="stroke:#000000;stroke-width:0.8;"/>
      </defs>
      <g>
       <use style="stroke:#000000;stroke-width:0.8;" x="63.336875" xlink:href="#m1fb78e0032" y="280.011819"/>
      </g>
     </g>
     <g id="text_8">
      <!-- −0.04 -->
      <g transform="translate(23.942188 284.872444)scale(0.14 -0.14)">
       <defs>
        <path d="M 3484 2000 
L 116 2000 
L 116 2256 
L 3484 2256 
L 3484 2000 
z
" id="TimesNewRomanPSMT-2212" transform="scale(0.015625)"/>
       </defs>
       <use xlink:href="#TimesNewRomanPSMT-2212"/>
       <use x="56.396484" xlink:href="#TimesNewRomanPSMT-30"/>
       <use x="106.396484" xlink:href="#TimesNewRomanPSMT-2e"/>
       <use x="131.396484" xlink:href="#TimesNewRomanPSMT-30"/>
       <use x="181.396484" xlink:href="#TimesNewRomanPSMT-34"/>
      </g>
     </g>
    </g>
    <g id="ytick_2">
     <g id="line2d_15">
      <path clip-path="url(#p4dd2eb340f)" d="M 63.336875 216.465721 
L 398.136875 216.465721 
" style="fill:none;stroke:#000000;stroke-dasharray:0.5,0.825;stroke-dashoffset:0;stroke-width:0.5;"/>
     </g>
     <g id="line2d_16">
      <g>
       <use style="stroke:#000000;stroke-width:0.8;" x="63.336875" xlink:href="#m1fb78e0032" y="216.465721"/>
      </g>
     </g>
     <g id="text_9">
      <!-- −0.02 -->
      <g transform="translate(23.942188 221.326346)scale(0.14 -0.14)">
       <use xlink:href="#TimesNewRomanPSMT-2212"/>
       <use x="56.396484" xlink:href="#TimesNewRomanPSMT-30"/>
       <use x="106.396484" xlink:href="#TimesNewRomanPSMT-2e"/>
       <use x="131.396484" xlink:href="#TimesNewRomanPSMT-30"/>
       <use x="181.396484" xlink:href="#TimesNewRomanPSMT-32"/>
      </g>
     </g>
    </g>
    <g id="ytick_3">
     <g id="line2d_17">
      <path clip-path="url(#p4dd2eb340f)" d="M 63.336875 152.919623 
L 398.136875 152.919623 
" style="fill:none;stroke:#000000;stroke-dasharray:0.5,0.825;stroke-dashoffset:0;stroke-width:0.5;"/>
     </g>
     <g id="line2d_18">
      <g>
       <use style="stroke:#000000;stroke-width:0.8;" x="63.336875" xlink:href="#m1fb78e0032" y="152.919623"/>
      </g>
     </g>
     <g id="text_10">
      <!-- 0.00 -->
      <g transform="translate(31.836875 157.780248)scale(0.14 -0.14)">
       <use xlink:href="#TimesNewRomanPSMT-30"/>
       <use x="50" xlink:href="#TimesNewRomanPSMT-2e"/>
       <use x="75" xlink:href="#TimesNewRomanPSMT-30"/>
       <use x="125" xlink:href="#TimesNewRomanPSMT-30"/>
      </g>
     </g>
    </g>
    <g id="ytick_4">
     <g id="line2d_19">
      <path clip-path="url(#p4dd2eb340f)" d="M 63.336875 89.373525 
L 398.136875 89.373525 
" style="fill:none;stroke:#000000;stroke-dasharray:0.5,0.825;stroke-dashoffset:0;stroke-width:0.5;"/>
     </g>
     <g id="line2d_20">
      <g>
       <use style="stroke:#000000;stroke-width:0.8;" x="63.336875" xlink:href="#m1fb78e0032" y="89.373525"/>
      </g>
     </g>
     <g id="text_11">
      <!-- 0.02 -->
      <g transform="translate(31.836875 94.23415)scale(0.14 -0.14)">
       <use xlink:href="#TimesNewRomanPSMT-30"/>
       <use x="50" xlink:href="#TimesNewRomanPSMT-2e"/>
       <use x="75" xlink:href="#TimesNewRomanPSMT-30"/>
       <use x="125" xlink:href="#TimesNewRomanPSMT-32"/>
      </g>
     </g>
    </g>
    <g id="ytick_5">
     <g id="line2d_21">
      <path clip-path="url(#p4dd2eb340f)" d="M 63.336875 25.827427 
L 398.136875 25.827427 
" style="fill:none;stroke:#000000;stroke-dasharray:0.5,0.825;stroke-dashoffset:0;stroke-width:0.5;"/>
     </g>
     <g id="line2d_22">
      <g>
       <use style="stroke:#000000;stroke-width:0.8;" x="63.336875" xlink:href="#m1fb78e0032" y="25.827427"/>
      </g>
     </g>
     <g id="text_12">
      <!-- 0.04 -->
      <g transform="translate(31.836875 30.688052)scale(0.14 -0.14)">
       <use xlink:href="#TimesNewRomanPSMT-30"/>
       <use x="50" xlink:href="#TimesNewRomanPSMT-2e"/>
       <use x="75" xlink:href="#TimesNewRomanPSMT-30"/>
       <use x="125" xlink:href="#TimesNewRomanPSMT-34"/>
      </g>
     </g>
    </g>
    <g id="text_13">
     <!-- Volatage (V) -->
     <g transform="translate(16.92125 209.352344)rotate(-90)scale(0.14 -0.14)">
      <defs>
       <path d="M 4544 4238 
L 4544 4122 
Q 4319 4081 4203 3978 
Q 4038 3825 3909 3509 
L 2431 -97 
L 2316 -97 
L 728 3556 
Q 606 3838 556 3900 
Q 478 3997 364 4051 
Q 250 4106 56 4122 
L 56 4238 
L 1788 4238 
L 1788 4122 
Q 1494 4094 1406 4022 
Q 1319 3950 1319 3838 
Q 1319 3681 1463 3350 
L 2541 866 
L 3541 3319 
Q 3688 3681 3688 3822 
Q 3688 3913 3597 3995 
Q 3506 4078 3291 4113 
Q 3275 4116 3238 4122 
L 3238 4238 
L 4544 4238 
z
" id="TimesNewRomanPSMT-56" transform="scale(0.015625)"/>
       <path d="M 1600 2947 
Q 2250 2947 2644 2453 
Q 2978 2031 2978 1484 
Q 2978 1100 2793 706 
Q 2609 313 2286 112 
Q 1963 -88 1566 -88 
Q 919 -88 538 428 
Q 216 863 216 1403 
Q 216 1797 411 2186 
Q 606 2575 925 2761 
Q 1244 2947 1600 2947 
z
M 1503 2744 
Q 1338 2744 1170 2645 
Q 1003 2547 900 2300 
Q 797 2053 797 1666 
Q 797 1041 1045 587 
Q 1294 134 1700 134 
Q 2003 134 2200 384 
Q 2397 634 2397 1244 
Q 2397 2006 2069 2444 
Q 1847 2744 1503 2744 
z
" id="TimesNewRomanPSMT-6f" transform="scale(0.015625)"/>
       <path d="M 1184 4444 
L 1184 647 
Q 1184 378 1223 290 
Q 1263 203 1344 158 
Q 1425 113 1647 113 
L 1647 0 
L 244 0 
L 244 113 
Q 441 113 512 153 
Q 584 194 625 287 
Q 666 381 666 647 
L 666 3247 
Q 666 3731 644 3842 
Q 622 3953 573 3993 
Q 525 4034 450 4034 
Q 369 4034 244 3984 
L 191 4094 
L 1044 4444 
L 1184 4444 
z
" id="TimesNewRomanPSMT-6c" transform="scale(0.015625)"/>
       <path d="M 1822 413 
Q 1381 72 1269 19 
Q 1100 -59 909 -59 
Q 613 -59 420 144 
Q 228 347 228 678 
Q 228 888 322 1041 
Q 450 1253 767 1440 
Q 1084 1628 1822 1897 
L 1822 2009 
Q 1822 2438 1686 2597 
Q 1550 2756 1291 2756 
Q 1094 2756 978 2650 
Q 859 2544 859 2406 
L 866 2225 
Q 866 2081 792 2003 
Q 719 1925 600 1925 
Q 484 1925 411 2006 
Q 338 2088 338 2228 
Q 338 2497 613 2722 
Q 888 2947 1384 2947 
Q 1766 2947 2009 2819 
Q 2194 2722 2281 2516 
Q 2338 2381 2338 1966 
L 2338 994 
Q 2338 584 2353 492 
Q 2369 400 2405 369 
Q 2441 338 2488 338 
Q 2538 338 2575 359 
Q 2641 400 2828 588 
L 2828 413 
Q 2478 -56 2159 -56 
Q 2006 -56 1915 50 
Q 1825 156 1822 413 
z
M 1822 616 
L 1822 1706 
Q 1350 1519 1213 1441 
Q 966 1303 859 1153 
Q 753 1003 753 825 
Q 753 600 887 451 
Q 1022 303 1197 303 
Q 1434 303 1822 616 
z
" id="TimesNewRomanPSMT-61" transform="scale(0.015625)"/>
       <path d="M 1031 3803 
L 1031 2863 
L 1700 2863 
L 1700 2644 
L 1031 2644 
L 1031 788 
Q 1031 509 1111 412 
Q 1191 316 1316 316 
Q 1419 316 1516 380 
Q 1613 444 1666 569 
L 1788 569 
Q 1678 263 1478 108 
Q 1278 -47 1066 -47 
Q 922 -47 784 33 
Q 647 113 581 261 
Q 516 409 516 719 
L 516 2644 
L 63 2644 
L 63 2747 
Q 234 2816 414 2980 
Q 594 3144 734 3369 
Q 806 3488 934 3803 
L 1031 3803 
z
" id="TimesNewRomanPSMT-74" transform="scale(0.015625)"/>
       <path d="M 966 1044 
Q 703 1172 562 1401 
Q 422 1631 422 1909 
Q 422 2334 742 2640 
Q 1063 2947 1563 2947 
Q 1972 2947 2272 2747 
L 2878 2747 
Q 3013 2747 3034 2739 
Q 3056 2731 3066 2713 
Q 3084 2684 3084 2613 
Q 3084 2531 3069 2500 
Q 3059 2484 3036 2475 
Q 3013 2466 2878 2466 
L 2506 2466 
Q 2681 2241 2681 1891 
Q 2681 1491 2375 1206 
Q 2069 922 1553 922 
Q 1341 922 1119 984 
Q 981 866 932 777 
Q 884 688 884 625 
Q 884 572 936 522 
Q 988 472 1138 450 
Q 1225 438 1575 428 
Q 2219 413 2409 384 
Q 2700 344 2873 169 
Q 3047 -6 3047 -263 
Q 3047 -616 2716 -925 
Q 2228 -1381 1444 -1381 
Q 841 -1381 425 -1109 
Q 191 -953 191 -784 
Q 191 -709 225 -634 
Q 278 -519 444 -313 
Q 466 -284 763 25 
Q 600 122 533 198 
Q 466 275 466 372 
Q 466 481 555 628 
Q 644 775 966 1044 
z
M 1509 2797 
Q 1278 2797 1122 2612 
Q 966 2428 966 2047 
Q 966 1553 1178 1281 
Q 1341 1075 1591 1075 
Q 1828 1075 1981 1253 
Q 2134 1431 2134 1813 
Q 2134 2309 1919 2591 
Q 1759 2797 1509 2797 
z
M 934 0 
Q 788 -159 713 -296 
Q 638 -434 638 -550 
Q 638 -700 819 -813 
Q 1131 -1006 1722 -1006 
Q 2284 -1006 2551 -807 
Q 2819 -609 2819 -384 
Q 2819 -222 2659 -153 
Q 2497 -84 2016 -72 
Q 1313 -53 934 0 
z
" id="TimesNewRomanPSMT-67" transform="scale(0.015625)"/>
      </defs>
      <use xlink:href="#TimesNewRomanPSMT-56"/>
      <use x="59.341797" xlink:href="#TimesNewRomanPSMT-6f"/>
      <use x="109.341797" xlink:href="#TimesNewRomanPSMT-6c"/>
      <use x="137.125" xlink:href="#TimesNewRomanPSMT-61"/>
      <use x="181.509766" xlink:href="#TimesNewRomanPSMT-74"/>
      <use x="209.292969" xlink:href="#TimesNewRomanPSMT-61"/>
      <use x="253.677734" xlink:href="#TimesNewRomanPSMT-67"/>
      <use x="303.677734" xlink:href="#TimesNewRomanPSMT-65"/>
      <use x="348.0625" xlink:href="#TimesNewRomanPSMT-20"/>
      <use x="373.0625" xlink:href="#TimesNewRomanPSMT-28"/>
      <use x="406.363281" xlink:href="#TimesNewRomanPSMT-56"/>
      <use x="478.580078" xlink:href="#TimesNewRomanPSMT-29"/>
     </g>
    </g>
   </g>
   <g id="LineCollection_1">
    <path clip-path="url(#p4dd2eb340f)" d="M 78.555057 152.919623 
L 382.918693 152.919623 
" style="fill:none;stroke:#1f77b4;stroke-width:1.5;"/>
   </g>
   <g id="line2d_23">
    <path clip-path="url(#p4dd2eb340f)" d="M 78.555057 152.986664 
L 78.676802 152.986664 
L 81.659566 152.946948 
L 81.781311 152.867515 
L 81.87262 152.946948 
L 81.903057 152.907231 
L 82.055239 152.867515 
L 82.20742 152.907231 
L 91.734002 152.946948 
L 91.764439 153.02638 
L 91.825311 152.986664 
L 91.91662 152.986664 
L 92.068802 153.02638 
L 92.190548 152.986664 
L 92.25142 153.066097 
L 92.312293 152.986664 
L 93.042766 153.066097 
L 93.134075 153.066097 
L 93.25582 153.066097 
L 94.199348 153.066097 
L 94.229784 153.185246 
L 94.321093 153.145529 
L 99.03873 153.224962 
L 99.130039 153.224962 
L 99.251784 153.224962 
L 104.273784 153.304394 
L 104.30422 153.344111 
L 104.334657 153.264678 
L 104.456402 153.264678 
L 104.608584 153.304394 
L 110.178439 153.383827 
L 110.269748 153.383827 
L 110.391493 153.383827 
L 111.66982 153.46326 
L 111.700257 153.502976 
L 111.76113 153.423543 
L 112.278548 153.502976 
L 112.400293 153.542692 
L 112.491602 153.502976 
L 112.522039 153.582409 
L 112.613348 153.542692 
L 113.130766 153.622125 
L 113.282948 153.661841 
L 113.617748 153.741274 
L 113.739493 153.741274 
L 114.01342 153.820706 
L 114.135166 153.860423 
L 114.256911 153.860423 
L 114.561275 153.900139 
L 114.652584 153.979572 
L 114.68302 153.939855 
L 114.835202 154.019288 
L 114.865639 153.979572 
L 114.926511 154.059004 
L 115.139566 154.098721 
L 115.200439 154.178153 
L 115.261311 154.138437 
L 115.44393 154.21787 
L 115.565675 154.178153 
L 115.717857 154.297302 
L 115.748293 154.257586 
L 116.143966 154.337019 
L 116.265711 154.416451 
L 116.844002 154.456167 
L 116.874439 154.5356 
L 116.965748 154.495884 
L 117.209239 154.5356 
L 117.330984 154.615033 
L 117.391857 154.5356 
L 117.45273 154.615033 
L 117.574475 154.615033 
L 118.091893 154.654749 
L 118.213639 154.734182 
L 118.304948 154.734182 
L 118.335384 154.813614 
L 118.426693 154.773898 
L 118.852802 154.853331 
L 119.03542 154.932763 
L 119.157166 154.932763 
L 119.278911 155.012196 
L 119.309348 154.932763 
L 119.37022 155.012196 
L 119.552839 155.091628 
L 119.735457 155.171061 
L 119.887639 155.210777 
L 120.03982 155.329926 
L 120.100693 155.29021 
L 120.13113 155.329926 
L 120.344184 155.449075 
L 120.435493 155.488791 
L 120.618111 155.687373 
L 120.70942 155.727089 
L 120.861602 155.885955 
L 120.952911 155.965387 
L 122.413857 158.030635 
L 123.235639 159.897302 
L 123.38782 160.254749 
L 124.270475 162.836309 
L 124.605275 164.027798 
L 124.696584 164.305813 
L 125.000948 165.338437 
L 125.427057 167.006522 
L 126.553202 171.851912 
L 127.953275 178.603684 
L 128.531566 181.304395 
L 128.927239 183.210777 
L 131.483893 192.782408 
L 131.575202 192.980989 
L 131.75782 193.457585 
L 132.001311 193.934181 
L 132.18393 194.251911 
L 132.579602 194.609358 
L 132.823093 194.688791 
L 132.944839 194.768223 
L 132.975275 194.728507 
L 133.218766 194.649074 
L 134.10142 193.338436 
L 134.466657 192.663259 
L 134.618839 192.345528 
L 135.014511 191.233472 
L 135.53193 189.605103 
L 136.262402 186.308649 
L 137.845093 175.307231 
L 140.066948 154.019288 
L 141.406148 137.020707 
L 143.049711 114.144112 
L 144.388911 94.802268 
L 144.81502 88.56681 
L 146.91513 60.010776 
L 147.797784 49.644822 
L 148.741311 39.834887 
L 149.076111 36.975325 
L 149.92833 30.183833 
L 150.658802 26.093046 
L 151.419711 23.511486 
L 151.450148 23.511486 
L 151.693639 22.995184 
L 151.784948 22.915748 
L 151.998002 22.637737 
L 152.302366 22.35971 
L 152.424111 22.35971 
L 152.698039 22.439146 
L 153.428511 23.551209 
L 153.85462 24.901563 
L 154.28073 26.966808 
L 154.52422 28.356873 
L 154.95033 31.137015 
L 155.924293 39.636309 
L 157.020002 52.14695 
L 157.811348 62.870354 
L 158.267893 70.178155 
L 159.759275 97.304399 
L 161.494148 133.366806 
L 165.268257 219.432049 
L 168.037966 274.955453 
L 168.951057 289.610778 
L 170.01633 303.432051 
L 170.503311 308.793756 
L 170.868548 312.288791 
L 171.26422 315.585245 
L 172.055566 320.907228 
L 173.059966 324.441973 
L 173.090402 324.441973 
L 173.27302 324.72 
L 173.577384 324.640564 
L 173.790439 324.481696 
L 173.851311 324.521409 
L 173.881748 324.481696 
L 174.490475 323.568224 
L 175.920984 317.610771 
L 178.203711 298.864675 
L 180.242948 273.644821 
L 182.73873 236.311485 
L 184.65622 203.267514 
L 188.947748 137.775316 
L 191.900075 100.640566 
L 193.908875 80.822126 
L 194.45673 76.810779 
L 194.913275 73.117162 
L 196.769893 59.415035 
L 197.226439 56.476024 
L 197.956911 52.424964 
L 198.38302 50.717163 
L 198.443893 50.518584 
L 198.778693 49.009361 
L 198.991748 48.175325 
L 199.296111 47.142695 
L 199.448293 46.785248 
L 199.843966 45.514326 
L 200.209202 44.163974 
L 200.604875 43.051911 
L 200.878802 42.615041 
L 201.122293 42.138436 
L 201.670148 40.986663 
L 201.82233 40.907227 
L 201.913639 40.907227 
L 201.974511 40.94695 
L 202.004948 40.867517 
L 202.674548 40.788085 
L 202.887602 40.668939 
L 203.191966 40.748372 
L 203.344148 40.867517 
L 203.648511 41.105818 
L 203.73982 41.105818 
L 203.861566 41.185254 
L 203.892002 41.145532 
L 204.257239 41.224964 
L 204.774657 42.059004 
L 205.17033 42.81362 
L 205.596439 43.488791 
L 205.961675 44.521421 
L 206.113857 44.878868 
L 206.448657 45.75263 
L 208.396584 51.114322 
L 210.131457 58.342694 
L 210.709748 60.805106 
L 211.622839 64.77674 
L 211.86633 65.928507 
L 212.048948 66.68312 
L 213.296839 73.752623 
L 214.818657 84.396598 
L 215.640439 91.664679 
L 216.614402 100.680282 
L 218.075348 114.978154 
L 219.018875 124.8278 
L 219.292802 127.806524 
L 223.371275 176.975316 
L 228.028039 236.351201 
L 228.971566 247.352616 
L 229.51942 253.19092 
L 229.94553 257.400843 
L 231.345602 269.236301 
L 231.61953 271.182406 
L 232.136948 274.359717 
L 232.471748 276.027793 
L 232.86742 278.331342 
L 234.115311 282.779575 
L 234.176184 282.858995 
L 234.358802 283.335601 
L 234.724039 283.653325 
L 235.21102 283.613615 
L 235.241457 283.534179 
L 235.332766 283.573889 
L 235.515384 283.494469 
L 235.63713 283.454746 
L 236.64153 280.555459 
L 237.280693 277.616449 
L 238.711202 267.568225 
L 240.780875 247.749779 
L 243.398402 214.983826 
L 244.00713 207.517156 
L 249.911784 124.351202 
L 251.61622 105.565388 
L 252.803239 95.636307 
L 253.107602 93.491633 
L 253.746766 89.321414 
L 254.842475 84.118577 
L 255.05553 83.284541 
L 256.120802 79.551201 
L 256.790402 78.081704 
L 256.881711 78.002268 
L 257.06433 77.803684 
L 257.520875 77.327091 
L 257.581748 77.366811 
L 257.612184 77.327091 
L 257.764366 77.287375 
L 258.099166 77.327091 
L 258.220911 77.406527 
L 258.40353 77.327091 
L 258.433966 77.446237 
L 258.525275 77.366811 
L 258.73833 77.287375 
L 258.860075 77.168226 
L 258.951384 77.247658 
L 258.98182 77.207942 
L 259.377493 77.287375 
L 259.40793 77.366811 
L 259.499239 77.327091 
L 259.65142 77.406527 
L 259.74273 77.327091 
L 259.773166 77.366811 
L 260.351457 77.446237 
L 260.503639 77.565389 
L 260.960184 78.002268 
L 261.051493 78.081704 
L 261.264548 78.359715 
L 261.75153 79.154045 
L 263.395093 83.681704 
L 263.76033 85.071775 
L 264.034257 86.06468 
L 264.551675 88.209363 
L 265.251711 91.386668 
L 265.647384 93.253332 
L 267.01702 100.958296 
L 270.36502 123.51716 
L 272.46513 139.085954 
L 274.443493 151.278863 
L 275.691384 157.276026 
L 275.904439 158.070352 
L 276.330548 159.778153 
L 276.604475 160.771061 
L 276.969711 162.121416 
L 277.243639 163.074607 
L 277.608875 164.424962 
L 277.700184 164.66326 
L 278.430657 167.085954 
L 279.891602 170.620707 
L 280.287275 171.295884 
L 280.561202 171.732763 
L 281.352548 172.924252 
L 281.565602 173.281699 
L 281.596039 173.241983 
L 281.626475 173.281699 
L 281.809093 173.480281 
L 281.869966 173.559713 
L 282.235202 173.877443 
L 282.326511 173.956876 
L 282.478693 174.076025 
L 282.539566 174.155457 
L 282.75262 174.35404 
L 282.783057 174.314322 
L 284.122257 174.23489 
L 284.396184 173.996593 
L 284.487493 173.996593 
L 284.639675 173.877443 
L 284.913602 173.678863 
L 285.065784 173.59943 
L 285.248402 173.400848 
L 286.374548 171.812195 
L 286.587602 171.375316 
L 286.922402 170.819287 
L 287.135457 170.422125 
L 287.500693 169.746948 
L 288.139857 168.754039 
L 288.352911 168.476025 
L 289.144257 167.602266 
L 289.20513 167.522834 
L 289.235566 167.602266 
L 289.44862 167.483118 
L 289.905166 167.443401 
L 289.996475 167.324252 
L 290.026911 167.403684 
L 290.179093 167.363969 
L 290.392148 167.483118 
L 290.483457 167.562551 
L 291.609602 169.151202 
L 291.974839 170.14411 
L 292.918366 172.884536 
L 293.648839 175.307231 
L 294.044511 176.617869 
L 294.409748 177.968224 
L 296.053311 184.005102 
L 296.114184 184.203684 
L 296.662039 185.911485 
L 298.366475 190.081699 
L 298.549093 190.439145 
L 298.82302 191.074606 
L 299.036075 191.392337 
L 299.127384 191.471769 
L 300.344839 192.901557 
L 300.862257 192.980989 
L 301.136184 193.179571 
L 301.744911 193.100138 
L 302.018839 192.86184 
L 302.079711 192.941273 
L 302.140584 192.86184 
L 302.93193 192.782408 
L 303.205857 192.583826 
L 303.358039 192.504394 
L 303.540657 192.345528 
L 303.571093 192.385245 
L 303.662402 192.305812 
L 303.93633 192.10723 
L 303.966766 192.146947 
L 303.997202 192.067514 
L 304.788548 190.876025 
L 305.18422 190.081699 
L 305.245093 190.002266 
L 305.701639 189.088791 
L 305.85382 188.731344 
L 306.432111 186.904394 
L 306.52342 186.666096 
L 308.471348 178.643401 
L 308.95833 176.18099 
L 309.445311 173.837728 
L 310.510584 167.721416 
L 312.336766 155.091628 
L 313.402039 147.624962 
L 316.963093 125.105813 
L 317.90662 121.015033 
L 318.271857 119.346948 
L 318.758839 117.321416 
L 319.00233 116.407941 
L 320.828511 109.656168 
L 320.889384 109.457587 
L 321.25462 108.464679 
L 322.959057 104.254753 
L 323.01993 104.215034 
L 323.446039 102.983825 
L 325.02873 99.131343 
L 325.728766 98.376739 
L 325.789639 98.337023 
L 325.911384 98.257587 
L 326.03313 98.217871 
L 326.154875 98.138438 
L 326.61142 98.178154 
L 326.763602 98.297303 
L 326.854911 98.376739 
L 327.098402 98.535601 
L 327.220148 98.615034 
L 327.585384 98.972481 
L 327.61582 98.932764 
L 327.676693 99.0122 
L 327.859311 99.329927 
L 327.920184 99.409363 
L 328.194111 99.885956 
L 328.28542 99.965388 
L 328.589784 100.481704 
L 328.802839 100.918577 
L 329.685493 103.50014 
L 330.05073 104.890211 
L 330.111602 105.128509 
L 330.324657 105.962551 
L 331.268184 110.093048 
L 332.029093 113.508651 
L 332.759566 116.805104 
L 340.42953 156.322834 
L 340.67302 157.236309 
L 341.00782 158.705813 
L 343.594911 168.396593 
L 343.68622 168.674607 
L 345.603711 173.400848 
L 345.847202 173.877443 
L 346.090693 174.433472 
L 346.334184 174.910068 
L 347.186402 176.895884 
L 347.216839 176.895884 
L 347.46033 177.412195 
L 347.856002 178.166805 
L 349.164766 179.755459 
L 349.195202 179.715742 
L 349.225639 179.795173 
L 349.590875 180.112906 
L 349.71262 180.192337 
L 349.895239 180.390919 
L 350.04742 180.47035 
L 350.321348 180.668932 
L 350.443093 180.748366 
L 350.838766 181.105813 
L 350.960511 181.105813 
L 351.082257 181.224961 
L 351.325748 181.264678 
L 351.38662 181.344109 
L 351.447493 181.304395 
L 352.360584 181.224961 
L 352.634511 181.026379 
L 352.664948 181.066096 
L 352.72582 180.986665 
L 352.908439 180.907231 
L 353.030184 180.827797 
L 353.243239 180.708649 
L 353.273675 180.748366 
L 353.304111 180.629218 
L 353.517166 180.549784 
L 353.669348 180.390919 
L 353.791093 180.311485 
L 354.034584 180.15262 
L 354.186766 180.073189 
L 354.39982 179.954038 
L 354.643311 179.874607 
L 354.856366 179.755459 
L 355.16073 179.715742 
L 355.282475 179.636308 
L 357.047784 179.715742 
L 357.16953 179.715742 
L 357.382584 179.755459 
L 357.41302 179.83489 
L 357.50433 179.795173 
L 357.686948 179.874607 
L 359.269639 179.795173 
L 359.452257 179.715742 
L 359.634875 179.636308 
L 359.787057 179.596592 
L 360.365348 179.51716 
L 360.700148 179.239146 
L 360.791457 179.199429 
L 360.974075 179.000848 
L 361.126257 178.921416 
L 361.308875 178.722834 
L 362.343711 177.213613 
L 362.617639 176.776734 
L 362.678511 176.737019 
L 363.10462 175.902975 
L 363.348111 175.42638 
L 363.743784 174.67177 
L 363.77422 174.67177 
L 364.017711 174.155457 
L 364.322075 173.59943 
L 364.656875 173.003684 
L 365.478657 171.772478 
L 365.691711 171.454749 
L 365.722148 171.494466 
L 365.752584 171.375316 
L 367.54833 169.151202 
L 367.578766 169.190919 
L 367.639639 169.111487 
L 367.79182 168.952621 
L 368.12662 168.63489 
L 368.187493 168.714323 
L 368.248366 168.63489 
L 368.704911 168.198011 
L 368.79622 168.118578 
L 369.252766 167.681699 
L 369.374511 167.641983 
L 369.526693 167.483118 
L 369.709311 167.403684 
L 370.683275 166.291628 
L 370.774584 166.212196 
L 373.361675 162.677444 
L 373.696475 162.0817 
L 373.726911 162.0817 
L 373.939966 161.605104 
L 374.000839 161.525671 
L 374.213893 161.088791 
L 374.366075 160.771061 
L 374.609566 160.254749 
L 377.105348 153.46326 
L 377.470584 152.470352 
L 378.109748 150.524253 
L 378.50542 149.37248 
L 378.59673 149.173898 
L 378.84022 148.459004 
L 379.50982 146.234891 
L 379.540257 146.234891 
L 380.362039 143.454749 
L 380.635966 142.461842 
L 380.94033 141.389501 
L 381.27513 140.277445 
L 381.640366 138.927089 
L 381.883857 138.013615 
L 382.918693 134.359713 
L 382.918693 134.359713 
" style="fill:none;stroke:#0000ff;stroke-linecap:square;stroke-width:1.5;"/>
   </g>
   <g id="line2d_24">
    <path clip-path="url(#p4dd2eb340f)" d="M 78.555057 152.85703 
L 78.768111 152.837172 
L 82.694402 152.936463 
L 82.87702 152.936463 
L 88.933857 153.015895 
L 89.086039 153.035753 
L 89.268657 153.035753 
L 93.499311 153.115186 
L 93.651493 153.154902 
L 99.28222 153.214477 
L 99.434402 153.274051 
L 99.586584 153.274051 
L 99.738766 153.313767 
L 100.164875 153.413058 
L 100.62142 153.591782 
L 100.834475 153.691072 
L 101.656257 154.346392 
L 102.812839 156.034335 
L 104.699893 161.217313 
L 105.491239 164.335044 
L 105.856475 165.903838 
L 110.452366 186.417313 
L 111.974184 190.091072 
L 112.978584 191.242845 
L 113.404693 191.143554 
L 114.226475 190.488235 
L 115.01782 188.720859 
L 115.504802 187.211638 
L 115.68742 186.615895 
L 116.11353 184.868377 
L 116.813566 181.154902 
L 117.970148 173.727951 
L 119.613711 161.177597 
L 124.574839 116.854194 
L 125.853166 107.699584 
L 127.344548 99.577598 
L 128.896802 93.004549 
L 130.022948 90.343556 
L 130.327311 90.025829 
L 130.875166 89.449939 
L 130.996911 89.410223 
L 131.17953 89.410223 
L 131.818693 89.350651 
L 132.123057 88.993205 
L 132.457857 88.735045 
L 132.85353 88.834336 
L 133.370948 89.052776 
L 133.888366 89.132212 
L 134.77102 90.105255 
L 135.318875 90.204552 
L 135.714548 90.581854 
L 136.597202 91.554904 
L 136.77982 91.634339 
L 137.053748 91.95207 
L 137.20593 92.17051 
L 138.45382 94.831499 
L 139.21473 98.247102 
L 142.167057 114.232917 
L 142.958402 119.515187 
L 147.49342 155.855611 
L 148.528257 164.910931 
L 152.150184 194.698164 
L 152.85022 199.344972 
L 154.767711 208.777596 
L 155.376439 210.763408 
L 156.228657 212.193199 
L 156.441711 212.451355 
L 156.776511 212.709511 
L 157.811348 212.630078 
L 158.724439 211.259862 
L 160.520184 207.526532 
L 163.137711 198.61022 
L 164.629093 191.322277 
L 165.085639 189.038589 
L 167.033566 179.447101 
L 167.91622 175.912349 
L 168.859748 173.74781 
L 169.34673 173.032916 
L 169.651093 172.794619 
L 169.955457 172.695328 
L 170.290257 172.596037 
L 170.625057 172.695328 
L 171.203348 173.62866 
L 171.659893 174.522278 
L 172.146875 175.693908 
L 172.877348 178.434334 
L 175.220948 189.634334 
L 178.203711 209.81022 
L 178.96462 215.390365 
L 180.364693 222.996032 
L 181.06473 225.299582 
L 182.160439 228.496745 
L 182.73873 229.708092 
L 183.043093 230.105255 
L 183.164839 230.144972 
L 183.438766 230.045684 
L 183.682257 229.787525 
L 184.74753 227.483975 
L 185.386693 224.544972 
L 185.934548 221.149227 
L 186.604148 215.569088 
L 187.33462 208.440004 
L 188.826002 190.686816 
L 190.195639 171.424405 
L 191.77833 144.913767 
L 193.543639 116.814477 
L 195.735057 85.557741 
L 197.71342 64.825826 
L 198.778693 56.088238 
L 199.570039 50.21023 
L 200.422257 44.888238 
L 201.73102 39.407387 
L 201.974511 38.910933 
L 202.704984 37.719447 
L 202.948475 37.640014 
L 203.131093 37.699585 
L 203.709384 37.798883 
L 203.983311 37.858454 
L 204.105057 37.93789 
L 204.561602 38.712355 
L 204.865966 39.546394 
L 205.231202 40.757741 
L 206.17473 46.218728 
L 210.983675 81.526535 
L 218.988439 143.344973 
L 219.81022 149.421569 
L 220.997239 157.16625 
L 222.092948 164.255612 
L 222.82342 168.723696 
L 226.384475 188.998873 
L 226.901893 191.441426 
L 227.541057 194.241426 
L 227.906293 195.770504 
L 228.362839 197.577596 
L 228.728075 198.82866 
L 229.51942 201.489653 
L 230.462948 203.654192 
L 231.61953 205.679724 
L 231.95433 206.235752 
L 232.19782 206.752064 
L 233.932693 210.386107 
L 235.484948 214.139301 
L 235.728439 214.635752 
L 236.519784 215.94639 
L 238.406839 218.230078 
L 238.65033 218.329369 
L 238.924257 218.408802 
L 239.137311 218.369085 
L 239.289493 218.369085 
L 239.502548 218.329369 
L 239.65473 218.309514 
L 239.89822 218.269794 
L 241.085239 218.369085 
L 241.57222 218.567664 
L 241.937457 218.666961 
L 242.33313 218.805965 
L 242.546184 218.905255 
L 243.489711 219.600294 
L 243.763639 220.017312 
L 244.220184 220.79178 
L 244.67673 221.685397 
L 244.889784 222.142135 
L 245.894184 224.465539 
L 248.207348 228.754901 
L 248.876948 229.449933 
L 249.181311 229.54923 
L 249.637857 229.727953 
L 249.759602 229.747808 
L 249.911784 229.767663 
L 250.094402 229.688237 
L 250.27702 229.608801 
L 250.550948 229.430078 
L 251.585784 228.655613 
L 251.920584 228.059862 
L 252.011893 227.901 
L 252.498875 226.709511 
L 253.351093 223.571922 
L 254.598984 217.396032 
L 256.090366 206.970507 
L 257.460002 194.459866 
L 259.194875 175.217313 
L 260.99062 151.586108 
L 262.908111 123.844265 
L 264.399493 102.218733 
L 267.504002 63.09817 
L 268.630148 52.493918 
L 269.178002 48.204553 
L 270.03022 42.842851 
L 270.912875 39.308093 
L 272.03902 37.302416 
L 272.160766 37.222996 
L 272.37382 37.123699 
L 272.70862 37.222996 
L 273.012984 37.540717 
L 274.169566 40.042848 
L 274.413057 40.976181 
L 274.869602 43.160575 
L 276.39142 52.712345 
L 278.40022 69.274056 
L 281.261239 98.34639 
L 284.487493 132.899583 
L 286.831093 156.213058 
L 289.78342 184.054191 
L 292.948802 207.98327 
L 294.288002 215.211642 
L 294.957602 217.773341 
L 295.322839 219.024408 
L 296.083748 221.149227 
L 296.418548 222.042844 
L 296.935966 223.353479 
L 297.362075 224.088237 
L 297.788184 224.683979 
L 298.275166 225.140716 
L 298.670839 225.27972 
L 298.91433 225.240004 
L 299.58393 225.140716 
L 300.101348 224.683979 
L 300.649202 223.790362 
L 301.562293 221.76483 
L 301.92753 220.732206 
L 302.201457 219.977596 
L 303.084111 216.720855 
L 304.149384 210.604546 
L 304.879857 205.143554 
L 309.20182 172.159157 
L 310.175784 166.499582 
L 312.519384 154.842845 
L 313.31073 151.327952 
L 314.193384 147.296747 
L 315.593457 141.418733 
L 318.393602 132.641427 
L 319.032766 131.152066 
L 322.776439 121.659867 
L 323.050366 121.123697 
L 323.93302 119.15774 
L 324.389566 118.045683 
L 324.906984 116.814477 
L 326.36793 112.425825 
L 326.733166 111.472634 
L 327.433202 109.943556 
L 327.676693 109.447102 
L 328.528911 107.540719 
L 329.015893 106.567669 
L 329.837675 105.197456 
L 330.96382 103.906673 
L 331.542111 103.648523 
L 332.363893 103.747811 
L 333.703093 104.720864 
L 334.220511 105.495329 
L 334.31182 105.674052 
L 334.585748 106.190364 
L 335.042293 107.302421 
L 336.07713 110.301002 
L 338.451166 118.422988 
L 340.33822 127.557741 
L 341.160002 132.422988 
L 342.77313 142.550647 
L 344.751493 156.133626 
L 347.186402 175.872632 
L 350.656148 199.980433 
L 352.999748 213.106677 
L 353.912839 216.760575 
L 354.947675 220.374759 
L 355.16073 221.01022 
L 355.891202 223.015894 
L 356.347748 223.929369 
L 356.439057 224.028656 
L 357.199966 224.405965 
L 357.656511 224.306677 
L 358.265239 223.691071 
L 358.50873 223.41306 
L 359.51313 221.208798 
L 360.42622 217.197454 
L 361.004511 214.040004 
L 364.078584 193.308093 
L 364.991675 185.940718 
L 365.87433 178.831498 
L 368.157057 158.536462 
L 371.413748 127.75632 
L 372.47902 119.018733 
L 374.15302 106.766251 
L 375.24873 100.31235 
L 376.131384 96.241425 
L 376.618366 94.275474 
L 377.92713 89.569085 
L 378.809784 87.563417 
L 379.692439 86.590365 
L 380.118548 86.391786 
L 380.240293 86.371925 
L 380.94033 86.471212 
L 381.457748 86.927956 
L 382.462148 88.417315 
L 382.918693 89.410223 
L 382.918693 89.410223 
" style="fill:none;stroke:#ff0000;stroke-linecap:square;stroke-width:1.5;"/>
   </g>
   <g id="line2d_25">
    <path clip-path="url(#p4dd2eb340f)" d="M 123.844366 161.525671 
" style="fill:none;stroke:#ffffff;stroke-linecap:square;stroke-width:1.5;"/>
    <defs>
     <path d="M 0 -5 
L -1.12257 -1.545085 
L -4.755283 -1.545085 
L -1.816356 0.59017 
L -2.938926 4.045085 
L -0 1.90983 
L 2.938926 4.045085 
L 1.816356 0.59017 
L 4.755283 -1.545085 
L 1.12257 -1.545085 
z
" id="m1401d65ad7" style="stroke:#ffffff;stroke-linejoin:bevel;"/>
    </defs>
    <g clip-path="url(#p4dd2eb340f)">
     <use style="fill:#0000ff;stroke:#ffffff;stroke-linejoin:bevel;" x="123.844366" xlink:href="#m1401d65ad7" y="161.525671"/>
    </g>
   </g>
   <g id="line2d_26">
    <path clip-path="url(#p4dd2eb340f)" d="M 103.938984 158.77476 
" style="fill:none;stroke:#ffffff;stroke-linecap:square;stroke-width:1.5;"/>
    <defs>
     <path d="M 0 -5 
L -1.12257 -1.545085 
L -4.755283 -1.545085 
L -1.816356 0.59017 
L -2.938926 4.045085 
L -0 1.90983 
L 2.938926 4.045085 
L 1.816356 0.59017 
L 4.755283 -1.545085 
L 1.12257 -1.545085 
z
" id="md16098779c" style="stroke:#ffffff;stroke-linejoin:bevel;"/>
    </defs>
    <g clip-path="url(#p4dd2eb340f)">
     <use style="fill:#ff0000;stroke:#ffffff;stroke-linejoin:bevel;" x="103.938984" xlink:href="#md16098779c" y="158.77476"/>
    </g>
   </g>
   <g id="patch_3">
    <path d="M 63.336875 339.84 
L 63.336875 7.2 
" style="fill:none;stroke:#000000;stroke-linecap:square;stroke-linejoin:miter;stroke-width:0.8;"/>
   </g>
   <g id="patch_4">
    <path d="M 398.136875 339.84 
L 398.136875 7.2 
" style="fill:none;stroke:#000000;stroke-linecap:square;stroke-linejoin:miter;stroke-width:0.8;"/>
   </g>
   <g id="patch_5">
    <path d="M 63.336875 339.84 
L 398.136875 339.84 
" style="fill:none;stroke:#000000;stroke-linecap:square;stroke-linejoin:miter;stroke-width:0.8;"/>
   </g>
   <g id="patch_6">
    <path d="M 63.336875 7.2 
L 398.136875 7.2 
" style="fill:none;stroke:#000000;stroke-linecap:square;stroke-linejoin:miter;stroke-width:0.8;"/>
   </g>
   <g id="text_14">
    <g id="patch_7">
     <path d="M 75.036875 331.242688 
L 166.79375 331.242688 
L 166.79375 293.760312 
L 75.036875 293.760312 
z
" style="fill:#ffffff;stroke:#000000;stroke-linejoin:miter;stroke-width:0.75;"/>
    </g>
    <!-- Auto_00133 -->
    <g transform="translate(80.076875 308.521563)scale(0.14 -0.14)">
     <defs>
      <path d="M 2928 1419 
L 1288 1419 
L 1000 750 
Q 894 503 894 381 
Q 894 284 986 211 
Q 1078 138 1384 116 
L 1384 0 
L 50 0 
L 50 116 
Q 316 163 394 238 
Q 553 388 747 847 
L 2238 4334 
L 2347 4334 
L 3822 809 
Q 4000 384 4145 257 
Q 4291 131 4550 116 
L 4550 0 
L 2878 0 
L 2878 116 
Q 3131 128 3220 200 
Q 3309 272 3309 375 
Q 3309 513 3184 809 
L 2928 1419 
z
M 2841 1650 
L 2122 3363 
L 1384 1650 
L 2841 1650 
z
" id="TimesNewRomanPSMT-41" transform="scale(0.015625)"/>
      <path d="M 2709 2863 
L 2709 1128 
Q 2709 631 2732 520 
Q 2756 409 2807 365 
Q 2859 322 2928 322 
Q 3025 322 3147 375 
L 3191 266 
L 2334 -88 
L 2194 -88 
L 2194 519 
Q 1825 119 1631 15 
Q 1438 -88 1222 -88 
Q 981 -88 804 51 
Q 628 191 559 409 
Q 491 628 491 1028 
L 491 2306 
Q 491 2509 447 2587 
Q 403 2666 317 2708 
Q 231 2750 6 2747 
L 6 2863 
L 1009 2863 
L 1009 947 
Q 1009 547 1148 422 
Q 1288 297 1484 297 
Q 1619 297 1789 381 
Q 1959 466 2194 703 
L 2194 2325 
Q 2194 2569 2105 2655 
Q 2016 2741 1734 2747 
L 1734 2863 
L 2709 2863 
z
" id="TimesNewRomanPSMT-75" transform="scale(0.015625)"/>
      <path d="M 3256 -1381 
L -53 -1381 
L -53 -1119 
L 3256 -1119 
L 3256 -1381 
z
" id="TimesNewRomanPSMT-5f" transform="scale(0.015625)"/>
     </defs>
     <use xlink:href="#TimesNewRomanPSMT-41"/>
     <use x="72.216797" xlink:href="#TimesNewRomanPSMT-75"/>
     <use x="122.216797" xlink:href="#TimesNewRomanPSMT-74"/>
     <use x="150" xlink:href="#TimesNewRomanPSMT-6f"/>
     <use x="200" xlink:href="#TimesNewRomanPSMT-5f"/>
     <use x="250" xlink:href="#TimesNewRomanPSMT-30"/>
     <use x="300" xlink:href="#TimesNewRomanPSMT-30"/>
     <use x="350" xlink:href="#TimesNewRomanPSMT-31"/>
     <use x="400" xlink:href="#TimesNewRomanPSMT-33"/>
     <use x="450" xlink:href="#TimesNewRomanPSMT-33"/>
    </g>
    <!-- Vs: 305.62m/s -->
    <g transform="translate(80.076875 323.208)scale(0.14 -0.14)">
     <defs>
      <path d="M 903 2950 
Q 1047 2950 1148 2848 
Q 1250 2747 1250 2603 
Q 1250 2459 1148 2357 
Q 1047 2256 903 2256 
Q 759 2256 657 2357 
Q 556 2459 556 2603 
Q 556 2747 657 2848 
Q 759 2950 903 2950 
z
M 897 609 
Q 1044 609 1145 506 
Q 1247 403 1247 259 
Q 1247 116 1144 14 
Q 1041 -88 897 -88 
Q 753 -88 651 14 
Q 550 116 550 259 
Q 550 403 651 506 
Q 753 609 897 609 
z
" id="TimesNewRomanPSMT-3a" transform="scale(0.015625)"/>
      <path d="M 2869 4325 
L 2869 4209 
Q 2456 4169 2195 4045 
Q 1934 3922 1679 3669 
Q 1425 3416 1258 3105 
Q 1091 2794 978 2366 
Q 1428 2675 1881 2675 
Q 2316 2675 2634 2325 
Q 2953 1975 2953 1425 
Q 2953 894 2631 456 
Q 2244 -75 1606 -75 
Q 1172 -75 869 213 
Q 275 772 275 1663 
Q 275 2231 503 2743 
Q 731 3256 1154 3653 
Q 1578 4050 1965 4187 
Q 2353 4325 2688 4325 
L 2869 4325 
z
M 925 2138 
Q 869 1716 869 1456 
Q 869 1156 980 804 
Q 1091 453 1309 247 
Q 1469 100 1697 100 
Q 1969 100 2183 356 
Q 2397 613 2397 1088 
Q 2397 1622 2184 2012 
Q 1972 2403 1581 2403 
Q 1463 2403 1327 2353 
Q 1191 2303 925 2138 
z
" id="TimesNewRomanPSMT-36" transform="scale(0.015625)"/>
      <path d="M 1794 4444 
L 259 -88 
L 9 -88 
L 1544 4444 
L 1794 4444 
z
" id="TimesNewRomanPSMT-2f" transform="scale(0.015625)"/>
     </defs>
     <use xlink:href="#TimesNewRomanPSMT-56"/>
     <use x="72.216797" xlink:href="#TimesNewRomanPSMT-73"/>
     <use x="111.132812" xlink:href="#TimesNewRomanPSMT-3a"/>
     <use x="138.916016" xlink:href="#TimesNewRomanPSMT-20"/>
     <use x="163.916016" xlink:href="#TimesNewRomanPSMT-33"/>
     <use x="213.916016" xlink:href="#TimesNewRomanPSMT-30"/>
     <use x="263.916016" xlink:href="#TimesNewRomanPSMT-35"/>
     <use x="313.916016" xlink:href="#TimesNewRomanPSMT-2e"/>
     <use x="338.916016" xlink:href="#TimesNewRomanPSMT-36"/>
     <use x="388.916016" xlink:href="#TimesNewRomanPSMT-32"/>
     <use x="438.916016" xlink:href="#TimesNewRomanPSMT-6d"/>
     <use x="516.699219" xlink:href="#TimesNewRomanPSMT-2f"/>
     <use x="544.482422" xlink:href="#TimesNewRomanPSMT-73"/>
    </g>
   </g>
  </g>
 </g>
 <defs>
  <clipPath id="p4dd2eb340f">
   <rect height="332.64" width="334.8" x="63.336875" y="7.2"/>
  </clipPath>
 </defs>
</svg>
