<?xml version="1.0" encoding="utf-8" standalone="no"?>
<!DOCTYPE svg PUBLIC "-//W3C//DTD SVG 1.1//EN"
  "http://www.w3.org/Graphics/SVG/1.1/DTD/svg11.dtd">
<svg height="383.471875pt" version="1.1" viewBox="0 0 421.086875 383.471875" width="421.086875pt" xmlns="http://www.w3.org/2000/svg" xmlns:xlink="http://www.w3.org/1999/xlink">
 <metadata>
  <rdf:RDF xmlns:cc="http://creativecommons.org/ns#" xmlns:dc="http://purl.org/dc/elements/1.1/" xmlns:rdf="http://www.w3.org/1999/02/22-rdf-syntax-ns#">
   <cc:Work>
    <dc:type rdf:resource="http://purl.org/dc/dcmitype/StillImage"/>
    <dc:date>2021-06-11T14:39:37.420032</dc:date>
    <dc:format>image/svg+xml</dc:format>
    <dc:creator>
     <cc:Agent>
      <dc:title>Matplotlib v3.4.2, https://matplotlib.org/</dc:title>
     </cc:Agent>
    </dc:creator>
   </cc:Work>
  </rdf:RDF>
 </metadata>
 <defs>
  <style type="text/css">*{stroke-linecap:butt;stroke-linejoin:round;}</style>
 </defs>
 <g id="figure_1">
  <g id="patch_1">
   <path d="M 0 383.471875 
L 421.086875 383.471875 
L 421.086875 0 
L 0 0 
z
" style="fill:#ffffff;"/>
  </g>
  <g id="axes_1">
   <g id="patch_2">
    <path d="M 63.336875 339.84 
L 398.136875 339.84 
L 398.136875 7.2 
L 63.336875 7.2 
z
" style="fill:#ffffff;"/>
   </g>
   <g id="matplotlib.axis_1">
    <g id="xtick_1">
     <g id="line2d_1">
      <path clip-path="url(#p6f88e293be)" d="M 93.773239 339.84 
L 93.773239 7.2 
" style="fill:none;stroke:#000000;stroke-dasharray:0.5,0.825;stroke-dashoffset:0;stroke-width:0.5;"/>
     </g>
     <g id="line2d_2">
      <defs>
       <path d="M 0 0 
L 0 3.5 
" id="m1139a6034d" style="stroke:#000000;stroke-width:0.8;"/>
      </defs>
      <g>
       <use style="stroke:#000000;stroke-width:0.8;" x="93.773239" xlink:href="#m1139a6034d" y="339.84"/>
      </g>
     </g>
     <g id="text_1">
      <!-- 0.000 -->
      <g transform="translate(78.023239 356.56125)scale(0.14 -0.14)">
       <defs>
        <path d="M 231 2094 
Q 231 2819 450 3342 
Q 669 3866 1031 4122 
Q 1313 4325 1613 4325 
Q 2100 4325 2488 3828 
Q 2972 3213 2972 2159 
Q 2972 1422 2759 906 
Q 2547 391 2217 158 
Q 1888 -75 1581 -75 
Q 975 -75 572 641 
Q 231 1244 231 2094 
z
M 844 2016 
Q 844 1141 1059 588 
Q 1238 122 1591 122 
Q 1759 122 1940 273 
Q 2122 425 2216 781 
Q 2359 1319 2359 2297 
Q 2359 3022 2209 3506 
Q 2097 3866 1919 4016 
Q 1791 4119 1609 4119 
Q 1397 4119 1231 3928 
Q 1006 3669 925 3112 
Q 844 2556 844 2016 
z
" id="TimesNewRomanPSMT-30" transform="scale(0.015625)"/>
        <path d="M 800 606 
Q 947 606 1047 504 
Q 1147 403 1147 259 
Q 1147 116 1045 14 
Q 944 -88 800 -88 
Q 656 -88 554 14 
Q 453 116 453 259 
Q 453 406 554 506 
Q 656 606 800 606 
z
" id="TimesNewRomanPSMT-2e" transform="scale(0.015625)"/>
       </defs>
       <use xlink:href="#TimesNewRomanPSMT-30"/>
       <use x="50" xlink:href="#TimesNewRomanPSMT-2e"/>
       <use x="75" xlink:href="#TimesNewRomanPSMT-30"/>
       <use x="125" xlink:href="#TimesNewRomanPSMT-30"/>
       <use x="175" xlink:href="#TimesNewRomanPSMT-30"/>
      </g>
     </g>
    </g>
    <g id="xtick_2">
     <g id="line2d_3">
      <path clip-path="url(#p6f88e293be)" d="M 154.645966 339.84 
L 154.645966 7.2 
" style="fill:none;stroke:#000000;stroke-dasharray:0.5,0.825;stroke-dashoffset:0;stroke-width:0.5;"/>
     </g>
     <g id="line2d_4">
      <g>
       <use style="stroke:#000000;stroke-width:0.8;" x="154.645966" xlink:href="#m1139a6034d" y="339.84"/>
      </g>
     </g>
     <g id="text_2">
      <!-- 0.001 -->
      <g transform="translate(138.895966 356.56125)scale(0.14 -0.14)">
       <defs>
        <path d="M 750 3822 
L 1781 4325 
L 1884 4325 
L 1884 747 
Q 1884 391 1914 303 
Q 1944 216 2037 169 
Q 2131 122 2419 116 
L 2419 0 
L 825 0 
L 825 116 
Q 1125 122 1212 167 
Q 1300 213 1334 289 
Q 1369 366 1369 747 
L 1369 3034 
Q 1369 3497 1338 3628 
Q 1316 3728 1258 3775 
Q 1200 3822 1119 3822 
Q 1003 3822 797 3725 
L 750 3822 
z
" id="TimesNewRomanPSMT-31" transform="scale(0.015625)"/>
       </defs>
       <use xlink:href="#TimesNewRomanPSMT-30"/>
       <use x="50" xlink:href="#TimesNewRomanPSMT-2e"/>
       <use x="75" xlink:href="#TimesNewRomanPSMT-30"/>
       <use x="125" xlink:href="#TimesNewRomanPSMT-30"/>
       <use x="175" xlink:href="#TimesNewRomanPSMT-31"/>
      </g>
     </g>
    </g>
    <g id="xtick_3">
     <g id="line2d_5">
      <path clip-path="url(#p6f88e293be)" d="M 215.518693 339.84 
L 215.518693 7.2 
" style="fill:none;stroke:#000000;stroke-dasharray:0.5,0.825;stroke-dashoffset:0;stroke-width:0.5;"/>
     </g>
     <g id="line2d_6">
      <g>
       <use style="stroke:#000000;stroke-width:0.8;" x="215.518693" xlink:href="#m1139a6034d" y="339.84"/>
      </g>
     </g>
     <g id="text_3">
      <!-- 0.002 -->
      <g transform="translate(199.768693 356.56125)scale(0.14 -0.14)">
       <defs>
        <path d="M 2934 816 
L 2638 0 
L 138 0 
L 138 116 
Q 1241 1122 1691 1759 
Q 2141 2397 2141 2925 
Q 2141 3328 1894 3587 
Q 1647 3847 1303 3847 
Q 991 3847 742 3664 
Q 494 3481 375 3128 
L 259 3128 
Q 338 3706 661 4015 
Q 984 4325 1469 4325 
Q 1984 4325 2329 3994 
Q 2675 3663 2675 3213 
Q 2675 2891 2525 2569 
Q 2294 2063 1775 1497 
Q 997 647 803 472 
L 1909 472 
Q 2247 472 2383 497 
Q 2519 522 2628 598 
Q 2738 675 2819 816 
L 2934 816 
z
" id="TimesNewRomanPSMT-32" transform="scale(0.015625)"/>
       </defs>
       <use xlink:href="#TimesNewRomanPSMT-30"/>
       <use x="50" xlink:href="#TimesNewRomanPSMT-2e"/>
       <use x="75" xlink:href="#TimesNewRomanPSMT-30"/>
       <use x="125" xlink:href="#TimesNewRomanPSMT-30"/>
       <use x="175" xlink:href="#TimesNewRomanPSMT-32"/>
      </g>
     </g>
    </g>
    <g id="xtick_4">
     <g id="line2d_7">
      <path clip-path="url(#p6f88e293be)" d="M 276.39142 339.84 
L 276.39142 7.2 
" style="fill:none;stroke:#000000;stroke-dasharray:0.5,0.825;stroke-dashoffset:0;stroke-width:0.5;"/>
     </g>
     <g id="line2d_8">
      <g>
       <use style="stroke:#000000;stroke-width:0.8;" x="276.39142" xlink:href="#m1139a6034d" y="339.84"/>
      </g>
     </g>
     <g id="text_4">
      <!-- 0.003 -->
      <g transform="translate(260.64142 356.56125)scale(0.14 -0.14)">
       <defs>
        <path d="M 325 3431 
Q 506 3859 782 4092 
Q 1059 4325 1472 4325 
Q 1981 4325 2253 3994 
Q 2459 3747 2459 3466 
Q 2459 3003 1878 2509 
Q 2269 2356 2469 2072 
Q 2669 1788 2669 1403 
Q 2669 853 2319 450 
Q 1863 -75 997 -75 
Q 569 -75 414 31 
Q 259 138 259 259 
Q 259 350 332 419 
Q 406 488 509 488 
Q 588 488 669 463 
Q 722 447 909 348 
Q 1097 250 1169 231 
Q 1284 197 1416 197 
Q 1734 197 1970 444 
Q 2206 691 2206 1028 
Q 2206 1275 2097 1509 
Q 2016 1684 1919 1775 
Q 1784 1900 1550 2001 
Q 1316 2103 1072 2103 
L 972 2103 
L 972 2197 
Q 1219 2228 1467 2375 
Q 1716 2522 1828 2728 
Q 1941 2934 1941 3181 
Q 1941 3503 1739 3701 
Q 1538 3900 1238 3900 
Q 753 3900 428 3381 
L 325 3431 
z
" id="TimesNewRomanPSMT-33" transform="scale(0.015625)"/>
       </defs>
       <use xlink:href="#TimesNewRomanPSMT-30"/>
       <use x="50" xlink:href="#TimesNewRomanPSMT-2e"/>
       <use x="75" xlink:href="#TimesNewRomanPSMT-30"/>
       <use x="125" xlink:href="#TimesNewRomanPSMT-30"/>
       <use x="175" xlink:href="#TimesNewRomanPSMT-33"/>
      </g>
     </g>
    </g>
    <g id="xtick_5">
     <g id="line2d_9">
      <path clip-path="url(#p6f88e293be)" d="M 337.264148 339.84 
L 337.264148 7.2 
" style="fill:none;stroke:#000000;stroke-dasharray:0.5,0.825;stroke-dashoffset:0;stroke-width:0.5;"/>
     </g>
     <g id="line2d_10">
      <g>
       <use style="stroke:#000000;stroke-width:0.8;" x="337.264148" xlink:href="#m1139a6034d" y="339.84"/>
      </g>
     </g>
     <g id="text_5">
      <!-- 0.004 -->
      <g transform="translate(321.514148 356.56125)scale(0.14 -0.14)">
       <defs>
        <path d="M 2978 1563 
L 2978 1119 
L 2409 1119 
L 2409 0 
L 1894 0 
L 1894 1119 
L 100 1119 
L 100 1519 
L 2066 4325 
L 2409 4325 
L 2409 1563 
L 2978 1563 
z
M 1894 1563 
L 1894 3666 
L 406 1563 
L 1894 1563 
z
" id="TimesNewRomanPSMT-34" transform="scale(0.015625)"/>
       </defs>
       <use xlink:href="#TimesNewRomanPSMT-30"/>
       <use x="50" xlink:href="#TimesNewRomanPSMT-2e"/>
       <use x="75" xlink:href="#TimesNewRomanPSMT-30"/>
       <use x="125" xlink:href="#TimesNewRomanPSMT-30"/>
       <use x="175" xlink:href="#TimesNewRomanPSMT-34"/>
      </g>
     </g>
    </g>
    <g id="xtick_6">
     <g id="line2d_11">
      <path clip-path="url(#p6f88e293be)" d="M 398.136875 339.84 
L 398.136875 7.2 
" style="fill:none;stroke:#000000;stroke-dasharray:0.5,0.825;stroke-dashoffset:0;stroke-width:0.5;"/>
     </g>
     <g id="line2d_12">
      <g>
       <use style="stroke:#000000;stroke-width:0.8;" x="398.136875" xlink:href="#m1139a6034d" y="339.84"/>
      </g>
     </g>
     <g id="text_6">
      <!-- 0.005 -->
      <g transform="translate(382.386875 356.56125)scale(0.14 -0.14)">
       <defs>
        <path d="M 2778 4238 
L 2534 3706 
L 1259 3706 
L 981 3138 
Q 1809 3016 2294 2522 
Q 2709 2097 2709 1522 
Q 2709 1188 2573 903 
Q 2438 619 2231 419 
Q 2025 219 1772 97 
Q 1413 -75 1034 -75 
Q 653 -75 479 54 
Q 306 184 306 341 
Q 306 428 378 495 
Q 450 563 559 563 
Q 641 563 702 538 
Q 763 513 909 409 
Q 1144 247 1384 247 
Q 1750 247 2026 523 
Q 2303 800 2303 1197 
Q 2303 1581 2056 1914 
Q 1809 2247 1375 2428 
Q 1034 2569 447 2591 
L 1259 4238 
L 2778 4238 
z
" id="TimesNewRomanPSMT-35" transform="scale(0.015625)"/>
       </defs>
       <use xlink:href="#TimesNewRomanPSMT-30"/>
       <use x="50" xlink:href="#TimesNewRomanPSMT-2e"/>
       <use x="75" xlink:href="#TimesNewRomanPSMT-30"/>
       <use x="125" xlink:href="#TimesNewRomanPSMT-30"/>
       <use x="175" xlink:href="#TimesNewRomanPSMT-35"/>
      </g>
     </g>
    </g>
    <g id="text_7">
     <!-- Time (sec) -->
     <g transform="translate(200.858906 373.277188)scale(0.14 -0.14)">
      <defs>
       <path d="M 3703 4238 
L 3750 3244 
L 3631 3244 
Q 3597 3506 3538 3619 
Q 3441 3800 3280 3886 
Q 3119 3972 2856 3972 
L 2259 3972 
L 2259 734 
Q 2259 344 2344 247 
Q 2463 116 2709 116 
L 2856 116 
L 2856 0 
L 1059 0 
L 1059 116 
L 1209 116 
Q 1478 116 1591 278 
Q 1659 378 1659 734 
L 1659 3972 
L 1150 3972 
Q 853 3972 728 3928 
Q 566 3869 450 3700 
Q 334 3531 313 3244 
L 194 3244 
L 244 4238 
L 3703 4238 
z
" id="TimesNewRomanPSMT-54" transform="scale(0.015625)"/>
       <path d="M 928 4444 
Q 1059 4444 1151 4351 
Q 1244 4259 1244 4128 
Q 1244 3997 1151 3903 
Q 1059 3809 928 3809 
Q 797 3809 703 3903 
Q 609 3997 609 4128 
Q 609 4259 701 4351 
Q 794 4444 928 4444 
z
M 1188 2947 
L 1188 647 
Q 1188 378 1227 289 
Q 1266 200 1342 156 
Q 1419 113 1622 113 
L 1622 0 
L 231 0 
L 231 113 
Q 441 113 512 153 
Q 584 194 626 287 
Q 669 381 669 647 
L 669 1750 
Q 669 2216 641 2353 
Q 619 2453 572 2492 
Q 525 2531 444 2531 
Q 356 2531 231 2484 
L 188 2597 
L 1050 2947 
L 1188 2947 
z
" id="TimesNewRomanPSMT-69" transform="scale(0.015625)"/>
       <path d="M 1050 2338 
Q 1363 2650 1419 2697 
Q 1559 2816 1721 2881 
Q 1884 2947 2044 2947 
Q 2313 2947 2506 2790 
Q 2700 2634 2766 2338 
Q 3088 2713 3309 2830 
Q 3531 2947 3766 2947 
Q 3994 2947 4170 2830 
Q 4347 2713 4450 2447 
Q 4519 2266 4519 1878 
L 4519 647 
Q 4519 378 4559 278 
Q 4591 209 4675 161 
Q 4759 113 4950 113 
L 4950 0 
L 3538 0 
L 3538 113 
L 3597 113 
Q 3781 113 3884 184 
Q 3956 234 3988 344 
Q 4000 397 4000 647 
L 4000 1878 
Q 4000 2228 3916 2372 
Q 3794 2572 3525 2572 
Q 3359 2572 3192 2489 
Q 3025 2406 2788 2181 
L 2781 2147 
L 2788 2013 
L 2788 647 
Q 2788 353 2820 281 
Q 2853 209 2943 161 
Q 3034 113 3253 113 
L 3253 0 
L 1806 0 
L 1806 113 
Q 2044 113 2133 169 
Q 2222 225 2256 338 
Q 2272 391 2272 647 
L 2272 1878 
Q 2272 2228 2169 2381 
Q 2031 2581 1784 2581 
Q 1616 2581 1450 2491 
Q 1191 2353 1050 2181 
L 1050 647 
Q 1050 366 1089 281 
Q 1128 197 1204 155 
Q 1281 113 1516 113 
L 1516 0 
L 100 0 
L 100 113 
Q 297 113 375 155 
Q 453 197 493 289 
Q 534 381 534 647 
L 534 1741 
Q 534 2213 506 2350 
Q 484 2453 437 2492 
Q 391 2531 309 2531 
Q 222 2531 100 2484 
L 53 2597 
L 916 2947 
L 1050 2947 
L 1050 2338 
z
" id="TimesNewRomanPSMT-6d" transform="scale(0.015625)"/>
       <path d="M 681 1784 
Q 678 1147 991 784 
Q 1303 422 1725 422 
Q 2006 422 2214 576 
Q 2422 731 2563 1106 
L 2659 1044 
Q 2594 616 2278 264 
Q 1963 -88 1488 -88 
Q 972 -88 605 314 
Q 238 716 238 1394 
Q 238 2128 614 2539 
Q 991 2950 1559 2950 
Q 2041 2950 2350 2633 
Q 2659 2316 2659 1784 
L 681 1784 
z
M 681 1966 
L 2006 1966 
Q 1991 2241 1941 2353 
Q 1863 2528 1708 2628 
Q 1553 2728 1384 2728 
Q 1125 2728 920 2526 
Q 716 2325 681 1966 
z
" id="TimesNewRomanPSMT-65" transform="scale(0.015625)"/>
       <path id="TimesNewRomanPSMT-20" transform="scale(0.015625)"/>
       <path d="M 1988 -1253 
L 1988 -1369 
Q 1516 -1131 1200 -813 
Q 750 -359 506 256 
Q 263 872 263 1534 
Q 263 2503 741 3301 
Q 1219 4100 1988 4444 
L 1988 4313 
Q 1603 4100 1356 3731 
Q 1109 3363 987 2797 
Q 866 2231 866 1616 
Q 866 947 969 400 
Q 1050 -31 1165 -292 
Q 1281 -553 1476 -793 
Q 1672 -1034 1988 -1253 
z
" id="TimesNewRomanPSMT-28" transform="scale(0.015625)"/>
       <path d="M 2050 2947 
L 2050 1972 
L 1947 1972 
Q 1828 2431 1642 2597 
Q 1456 2763 1169 2763 
Q 950 2763 815 2647 
Q 681 2531 681 2391 
Q 681 2216 781 2091 
Q 878 1963 1175 1819 
L 1631 1597 
Q 2266 1288 2266 781 
Q 2266 391 1970 151 
Q 1675 -88 1309 -88 
Q 1047 -88 709 6 
Q 606 38 541 38 
Q 469 38 428 -44 
L 325 -44 
L 325 978 
L 428 978 
Q 516 541 762 319 
Q 1009 97 1316 97 
Q 1531 97 1667 223 
Q 1803 350 1803 528 
Q 1803 744 1651 891 
Q 1500 1038 1047 1263 
Q 594 1488 453 1669 
Q 313 1847 313 2119 
Q 313 2472 555 2709 
Q 797 2947 1181 2947 
Q 1350 2947 1591 2875 
Q 1750 2828 1803 2828 
Q 1853 2828 1881 2850 
Q 1909 2872 1947 2947 
L 2050 2947 
z
" id="TimesNewRomanPSMT-73" transform="scale(0.015625)"/>
       <path d="M 2631 1088 
Q 2516 522 2178 217 
Q 1841 -88 1431 -88 
Q 944 -88 581 321 
Q 219 731 219 1428 
Q 219 2103 620 2525 
Q 1022 2947 1584 2947 
Q 2006 2947 2278 2723 
Q 2550 2500 2550 2259 
Q 2550 2141 2473 2067 
Q 2397 1994 2259 1994 
Q 2075 1994 1981 2113 
Q 1928 2178 1911 2362 
Q 1894 2547 1784 2644 
Q 1675 2738 1481 2738 
Q 1169 2738 978 2506 
Q 725 2200 725 1697 
Q 725 1184 976 792 
Q 1228 400 1656 400 
Q 1963 400 2206 609 
Q 2378 753 2541 1131 
L 2631 1088 
z
" id="TimesNewRomanPSMT-63" transform="scale(0.015625)"/>
       <path d="M 144 4313 
L 144 4444 
Q 619 4209 934 3891 
Q 1381 3434 1625 2820 
Q 1869 2206 1869 1541 
Q 1869 572 1392 -226 
Q 916 -1025 144 -1369 
L 144 -1253 
Q 528 -1038 776 -670 
Q 1025 -303 1145 264 
Q 1266 831 1266 1447 
Q 1266 2113 1163 2663 
Q 1084 3094 967 3353 
Q 850 3613 656 3853 
Q 463 4094 144 4313 
z
" id="TimesNewRomanPSMT-29" transform="scale(0.015625)"/>
      </defs>
      <use xlink:href="#TimesNewRomanPSMT-54"/>
      <use x="57.583984" xlink:href="#TimesNewRomanPSMT-69"/>
      <use x="85.367188" xlink:href="#TimesNewRomanPSMT-6d"/>
      <use x="163.150391" xlink:href="#TimesNewRomanPSMT-65"/>
      <use x="207.535156" xlink:href="#TimesNewRomanPSMT-20"/>
      <use x="232.535156" xlink:href="#TimesNewRomanPSMT-28"/>
      <use x="265.835938" xlink:href="#TimesNewRomanPSMT-73"/>
      <use x="304.751953" xlink:href="#TimesNewRomanPSMT-65"/>
      <use x="349.136719" xlink:href="#TimesNewRomanPSMT-63"/>
      <use x="393.521484" xlink:href="#TimesNewRomanPSMT-29"/>
     </g>
    </g>
   </g>
   <g id="matplotlib.axis_2">
    <g id="ytick_1">
     <g id="line2d_13">
      <path clip-path="url(#p6f88e293be)" d="M 63.336875 295.824453 
L 398.136875 295.824453 
" style="fill:none;stroke:#000000;stroke-dasharray:0.5,0.825;stroke-dashoffset:0;stroke-width:0.5;"/>
     </g>
     <g id="line2d_14">
      <defs>
       <path d="M 0 0 
L -3.5 0 
" id="mf61d92ebde" style="stroke:#000000;stroke-width:0.8;"/>
      </defs>
      <g>
       <use style="stroke:#000000;stroke-width:0.8;" x="63.336875" xlink:href="#mf61d92ebde" y="295.824453"/>
      </g>
     </g>
     <g id="text_8">
      <!-- −0.06 -->
      <g transform="translate(23.942188 300.685078)scale(0.14 -0.14)">
       <defs>
        <path d="M 3484 2000 
L 116 2000 
L 116 2256 
L 3484 2256 
L 3484 2000 
z
" id="TimesNewRomanPSMT-2212" transform="scale(0.015625)"/>
        <path d="M 2869 4325 
L 2869 4209 
Q 2456 4169 2195 4045 
Q 1934 3922 1679 3669 
Q 1425 3416 1258 3105 
Q 1091 2794 978 2366 
Q 1428 2675 1881 2675 
Q 2316 2675 2634 2325 
Q 2953 1975 2953 1425 
Q 2953 894 2631 456 
Q 2244 -75 1606 -75 
Q 1172 -75 869 213 
Q 275 772 275 1663 
Q 275 2231 503 2743 
Q 731 3256 1154 3653 
Q 1578 4050 1965 4187 
Q 2353 4325 2688 4325 
L 2869 4325 
z
M 925 2138 
Q 869 1716 869 1456 
Q 869 1156 980 804 
Q 1091 453 1309 247 
Q 1469 100 1697 100 
Q 1969 100 2183 356 
Q 2397 613 2397 1088 
Q 2397 1622 2184 2012 
Q 1972 2403 1581 2403 
Q 1463 2403 1327 2353 
Q 1191 2303 925 2138 
z
" id="TimesNewRomanPSMT-36" transform="scale(0.015625)"/>
       </defs>
       <use xlink:href="#TimesNewRomanPSMT-2212"/>
       <use x="56.396484" xlink:href="#TimesNewRomanPSMT-30"/>
       <use x="106.396484" xlink:href="#TimesNewRomanPSMT-2e"/>
       <use x="131.396484" xlink:href="#TimesNewRomanPSMT-30"/>
       <use x="181.396484" xlink:href="#TimesNewRomanPSMT-36"/>
      </g>
     </g>
    </g>
    <g id="ytick_2">
     <g id="line2d_15">
      <path clip-path="url(#p6f88e293be)" d="M 63.336875 248.999717 
L 398.136875 248.999717 
" style="fill:none;stroke:#000000;stroke-dasharray:0.5,0.825;stroke-dashoffset:0;stroke-width:0.5;"/>
     </g>
     <g id="line2d_16">
      <g>
       <use style="stroke:#000000;stroke-width:0.8;" x="63.336875" xlink:href="#mf61d92ebde" y="248.999717"/>
      </g>
     </g>
     <g id="text_9">
      <!-- −0.04 -->
      <g transform="translate(23.942188 253.860342)scale(0.14 -0.14)">
       <use xlink:href="#TimesNewRomanPSMT-2212"/>
       <use x="56.396484" xlink:href="#TimesNewRomanPSMT-30"/>
       <use x="106.396484" xlink:href="#TimesNewRomanPSMT-2e"/>
       <use x="131.396484" xlink:href="#TimesNewRomanPSMT-30"/>
       <use x="181.396484" xlink:href="#TimesNewRomanPSMT-34"/>
      </g>
     </g>
    </g>
    <g id="ytick_3">
     <g id="line2d_17">
      <path clip-path="url(#p6f88e293be)" d="M 63.336875 202.174981 
L 398.136875 202.174981 
" style="fill:none;stroke:#000000;stroke-dasharray:0.5,0.825;stroke-dashoffset:0;stroke-width:0.5;"/>
     </g>
     <g id="line2d_18">
      <g>
       <use style="stroke:#000000;stroke-width:0.8;" x="63.336875" xlink:href="#mf61d92ebde" y="202.174981"/>
      </g>
     </g>
     <g id="text_10">
      <!-- −0.02 -->
      <g transform="translate(23.942188 207.035606)scale(0.14 -0.14)">
       <use xlink:href="#TimesNewRomanPSMT-2212"/>
       <use x="56.396484" xlink:href="#TimesNewRomanPSMT-30"/>
       <use x="106.396484" xlink:href="#TimesNewRomanPSMT-2e"/>
       <use x="131.396484" xlink:href="#TimesNewRomanPSMT-30"/>
       <use x="181.396484" xlink:href="#TimesNewRomanPSMT-32"/>
      </g>
     </g>
    </g>
    <g id="ytick_4">
     <g id="line2d_19">
      <path clip-path="url(#p6f88e293be)" d="M 63.336875 155.350245 
L 398.136875 155.350245 
" style="fill:none;stroke:#000000;stroke-dasharray:0.5,0.825;stroke-dashoffset:0;stroke-width:0.5;"/>
     </g>
     <g id="line2d_20">
      <g>
       <use style="stroke:#000000;stroke-width:0.8;" x="63.336875" xlink:href="#mf61d92ebde" y="155.350245"/>
      </g>
     </g>
     <g id="text_11">
      <!-- 0.00 -->
      <g transform="translate(31.836875 160.21087)scale(0.14 -0.14)">
       <use xlink:href="#TimesNewRomanPSMT-30"/>
       <use x="50" xlink:href="#TimesNewRomanPSMT-2e"/>
       <use x="75" xlink:href="#TimesNewRomanPSMT-30"/>
       <use x="125" xlink:href="#TimesNewRomanPSMT-30"/>
      </g>
     </g>
    </g>
    <g id="ytick_5">
     <g id="line2d_21">
      <path clip-path="url(#p6f88e293be)" d="M 63.336875 108.525509 
L 398.136875 108.525509 
" style="fill:none;stroke:#000000;stroke-dasharray:0.5,0.825;stroke-dashoffset:0;stroke-width:0.5;"/>
     </g>
     <g id="line2d_22">
      <g>
       <use style="stroke:#000000;stroke-width:0.8;" x="63.336875" xlink:href="#mf61d92ebde" y="108.525509"/>
      </g>
     </g>
     <g id="text_12">
      <!-- 0.02 -->
      <g transform="translate(31.836875 113.386134)scale(0.14 -0.14)">
       <use xlink:href="#TimesNewRomanPSMT-30"/>
       <use x="50" xlink:href="#TimesNewRomanPSMT-2e"/>
       <use x="75" xlink:href="#TimesNewRomanPSMT-30"/>
       <use x="125" xlink:href="#TimesNewRomanPSMT-32"/>
      </g>
     </g>
    </g>
    <g id="ytick_6">
     <g id="line2d_23">
      <path clip-path="url(#p6f88e293be)" d="M 63.336875 61.700774 
L 398.136875 61.700774 
" style="fill:none;stroke:#000000;stroke-dasharray:0.5,0.825;stroke-dashoffset:0;stroke-width:0.5;"/>
     </g>
     <g id="line2d_24">
      <g>
       <use style="stroke:#000000;stroke-width:0.8;" x="63.336875" xlink:href="#mf61d92ebde" y="61.700774"/>
      </g>
     </g>
     <g id="text_13">
      <!-- 0.04 -->
      <g transform="translate(31.836875 66.561399)scale(0.14 -0.14)">
       <use xlink:href="#TimesNewRomanPSMT-30"/>
       <use x="50" xlink:href="#TimesNewRomanPSMT-2e"/>
       <use x="75" xlink:href="#TimesNewRomanPSMT-30"/>
       <use x="125" xlink:href="#TimesNewRomanPSMT-34"/>
      </g>
     </g>
    </g>
    <g id="ytick_7">
     <g id="line2d_25">
      <path clip-path="url(#p6f88e293be)" d="M 63.336875 14.876038 
L 398.136875 14.876038 
" style="fill:none;stroke:#000000;stroke-dasharray:0.5,0.825;stroke-dashoffset:0;stroke-width:0.5;"/>
     </g>
     <g id="line2d_26">
      <g>
       <use style="stroke:#000000;stroke-width:0.8;" x="63.336875" xlink:href="#mf61d92ebde" y="14.876038"/>
      </g>
     </g>
     <g id="text_14">
      <!-- 0.06 -->
      <g transform="translate(31.836875 19.736663)scale(0.14 -0.14)">
       <use xlink:href="#TimesNewRomanPSMT-30"/>
       <use x="50" xlink:href="#TimesNewRomanPSMT-2e"/>
       <use x="75" xlink:href="#TimesNewRomanPSMT-30"/>
       <use x="125" xlink:href="#TimesNewRomanPSMT-36"/>
      </g>
     </g>
    </g>
    <g id="text_15">
     <!-- Volatage (V) -->
     <g transform="translate(16.92125 209.352344)rotate(-90)scale(0.14 -0.14)">
      <defs>
       <path d="M 4544 4238 
L 4544 4122 
Q 4319 4081 4203 3978 
Q 4038 3825 3909 3509 
L 2431 -97 
L 2316 -97 
L 728 3556 
Q 606 3838 556 3900 
Q 478 3997 364 4051 
Q 250 4106 56 4122 
L 56 4238 
L 1788 4238 
L 1788 4122 
Q 1494 4094 1406 4022 
Q 1319 3950 1319 3838 
Q 1319 3681 1463 3350 
L 2541 866 
L 3541 3319 
Q 3688 3681 3688 3822 
Q 3688 3913 3597 3995 
Q 3506 4078 3291 4113 
Q 3275 4116 3238 4122 
L 3238 4238 
L 4544 4238 
z
" id="TimesNewRomanPSMT-56" transform="scale(0.015625)"/>
       <path d="M 1600 2947 
Q 2250 2947 2644 2453 
Q 2978 2031 2978 1484 
Q 2978 1100 2793 706 
Q 2609 313 2286 112 
Q 1963 -88 1566 -88 
Q 919 -88 538 428 
Q 216 863 216 1403 
Q 216 1797 411 2186 
Q 606 2575 925 2761 
Q 1244 2947 1600 2947 
z
M 1503 2744 
Q 1338 2744 1170 2645 
Q 1003 2547 900 2300 
Q 797 2053 797 1666 
Q 797 1041 1045 587 
Q 1294 134 1700 134 
Q 2003 134 2200 384 
Q 2397 634 2397 1244 
Q 2397 2006 2069 2444 
Q 1847 2744 1503 2744 
z
" id="TimesNewRomanPSMT-6f" transform="scale(0.015625)"/>
       <path d="M 1184 4444 
L 1184 647 
Q 1184 378 1223 290 
Q 1263 203 1344 158 
Q 1425 113 1647 113 
L 1647 0 
L 244 0 
L 244 113 
Q 441 113 512 153 
Q 584 194 625 287 
Q 666 381 666 647 
L 666 3247 
Q 666 3731 644 3842 
Q 622 3953 573 3993 
Q 525 4034 450 4034 
Q 369 4034 244 3984 
L 191 4094 
L 1044 4444 
L 1184 4444 
z
" id="TimesNewRomanPSMT-6c" transform="scale(0.015625)"/>
       <path d="M 1822 413 
Q 1381 72 1269 19 
Q 1100 -59 909 -59 
Q 613 -59 420 144 
Q 228 347 228 678 
Q 228 888 322 1041 
Q 450 1253 767 1440 
Q 1084 1628 1822 1897 
L 1822 2009 
Q 1822 2438 1686 2597 
Q 1550 2756 1291 2756 
Q 1094 2756 978 2650 
Q 859 2544 859 2406 
L 866 2225 
Q 866 2081 792 2003 
Q 719 1925 600 1925 
Q 484 1925 411 2006 
Q 338 2088 338 2228 
Q 338 2497 613 2722 
Q 888 2947 1384 2947 
Q 1766 2947 2009 2819 
Q 2194 2722 2281 2516 
Q 2338 2381 2338 1966 
L 2338 994 
Q 2338 584 2353 492 
Q 2369 400 2405 369 
Q 2441 338 2488 338 
Q 2538 338 2575 359 
Q 2641 400 2828 588 
L 2828 413 
Q 2478 -56 2159 -56 
Q 2006 -56 1915 50 
Q 1825 156 1822 413 
z
M 1822 616 
L 1822 1706 
Q 1350 1519 1213 1441 
Q 966 1303 859 1153 
Q 753 1003 753 825 
Q 753 600 887 451 
Q 1022 303 1197 303 
Q 1434 303 1822 616 
z
" id="TimesNewRomanPSMT-61" transform="scale(0.015625)"/>
       <path d="M 1031 3803 
L 1031 2863 
L 1700 2863 
L 1700 2644 
L 1031 2644 
L 1031 788 
Q 1031 509 1111 412 
Q 1191 316 1316 316 
Q 1419 316 1516 380 
Q 1613 444 1666 569 
L 1788 569 
Q 1678 263 1478 108 
Q 1278 -47 1066 -47 
Q 922 -47 784 33 
Q 647 113 581 261 
Q 516 409 516 719 
L 516 2644 
L 63 2644 
L 63 2747 
Q 234 2816 414 2980 
Q 594 3144 734 3369 
Q 806 3488 934 3803 
L 1031 3803 
z
" id="TimesNewRomanPSMT-74" transform="scale(0.015625)"/>
       <path d="M 966 1044 
Q 703 1172 562 1401 
Q 422 1631 422 1909 
Q 422 2334 742 2640 
Q 1063 2947 1563 2947 
Q 1972 2947 2272 2747 
L 2878 2747 
Q 3013 2747 3034 2739 
Q 3056 2731 3066 2713 
Q 3084 2684 3084 2613 
Q 3084 2531 3069 2500 
Q 3059 2484 3036 2475 
Q 3013 2466 2878 2466 
L 2506 2466 
Q 2681 2241 2681 1891 
Q 2681 1491 2375 1206 
Q 2069 922 1553 922 
Q 1341 922 1119 984 
Q 981 866 932 777 
Q 884 688 884 625 
Q 884 572 936 522 
Q 988 472 1138 450 
Q 1225 438 1575 428 
Q 2219 413 2409 384 
Q 2700 344 2873 169 
Q 3047 -6 3047 -263 
Q 3047 -616 2716 -925 
Q 2228 -1381 1444 -1381 
Q 841 -1381 425 -1109 
Q 191 -953 191 -784 
Q 191 -709 225 -634 
Q 278 -519 444 -313 
Q 466 -284 763 25 
Q 600 122 533 198 
Q 466 275 466 372 
Q 466 481 555 628 
Q 644 775 966 1044 
z
M 1509 2797 
Q 1278 2797 1122 2612 
Q 966 2428 966 2047 
Q 966 1553 1178 1281 
Q 1341 1075 1591 1075 
Q 1828 1075 1981 1253 
Q 2134 1431 2134 1813 
Q 2134 2309 1919 2591 
Q 1759 2797 1509 2797 
z
M 934 0 
Q 788 -159 713 -296 
Q 638 -434 638 -550 
Q 638 -700 819 -813 
Q 1131 -1006 1722 -1006 
Q 2284 -1006 2551 -807 
Q 2819 -609 2819 -384 
Q 2819 -222 2659 -153 
Q 2497 -84 2016 -72 
Q 1313 -53 934 0 
z
" id="TimesNewRomanPSMT-67" transform="scale(0.015625)"/>
      </defs>
      <use xlink:href="#TimesNewRomanPSMT-56"/>
      <use x="59.341797" xlink:href="#TimesNewRomanPSMT-6f"/>
      <use x="109.341797" xlink:href="#TimesNewRomanPSMT-6c"/>
      <use x="137.125" xlink:href="#TimesNewRomanPSMT-61"/>
      <use x="181.509766" xlink:href="#TimesNewRomanPSMT-74"/>
      <use x="209.292969" xlink:href="#TimesNewRomanPSMT-61"/>
      <use x="253.677734" xlink:href="#TimesNewRomanPSMT-67"/>
      <use x="303.677734" xlink:href="#TimesNewRomanPSMT-65"/>
      <use x="348.0625" xlink:href="#TimesNewRomanPSMT-20"/>
      <use x="373.0625" xlink:href="#TimesNewRomanPSMT-28"/>
      <use x="406.363281" xlink:href="#TimesNewRomanPSMT-56"/>
      <use x="478.580078" xlink:href="#TimesNewRomanPSMT-29"/>
     </g>
    </g>
   </g>
   <g id="LineCollection_1">
    <path clip-path="url(#p6f88e293be)" d="M 78.555057 155.350245 
L 382.918693 155.350245 
" style="fill:none;stroke:#1f77b4;stroke-width:1.5;"/>
   </g>
   <g id="line2d_27">
    <path clip-path="url(#p6f88e293be)" d="M 78.555057 155.272985 
L 82.024802 155.360781 
L 82.176984 155.390046 
L 82.390039 155.331515 
L 82.511784 155.360781 
L 98.003893 155.419312 
L 98.03433 155.477843 
L 98.125639 155.419312 
L 106.556511 155.477843 
L 106.64782 155.507108 
L 106.678257 155.477843 
L 106.800002 155.536374 
L 106.830439 155.477843 
L 107.865275 155.536374 
L 107.895711 155.594905 
L 107.98702 155.536374 
L 110.269748 155.594905 
L 110.300184 155.653436 
L 110.391493 155.594905 
L 113.76993 155.682701 
L 113.922111 155.711966 
L 114.043857 155.711966 
L 114.074293 155.770497 
L 114.165602 155.711966 
L 114.77433 155.799763 
L 114.987384 155.858294 
L 115.170002 155.829028 
L 115.322184 155.887559 
L 115.504802 155.916825 
L 115.656984 155.916825 
L 115.839602 155.94609 
L 116.235275 156.004621 
L 116.35702 156.063152 
L 116.478766 156.092417 
L 117.209239 156.150948 
L 117.300548 156.209479 
L 117.330984 156.180214 
L 117.726657 156.26801 
L 117.878839 156.26801 
L 118.183202 156.355807 
L 118.36582 156.385072 
L 118.974548 156.472868 
L 119.157166 156.502134 
L 120.009384 156.58993 
L 120.161566 156.58993 
L 121.105093 156.677727 
L 121.257275 156.677727 
L 121.37902 156.706992 
L 122.13993 156.794788 
L 122.292111 156.853319 
L 122.444293 156.853319 
L 122.870402 156.91185 
L 123.022584 156.970381 
L 123.235639 157.028912 
L 123.783493 157.087443 
L 123.905239 157.175239 
L 123.935675 157.145974 
L 124.14873 157.23377 
L 124.39222 157.321567 
L 124.757457 157.409363 
L 125.092257 157.584956 
L 125.214002 157.584956 
L 125.366184 157.702018 
L 125.48793 157.760549 
L 125.670548 157.906876 
L 125.853166 157.994672 
L 126.096657 158.228796 
L 126.187966 158.316592 
L 127.101057 159.340883 
L 129.353348 163.906295 
L 131.270839 169.759387 
L 131.727384 171.456783 
L 132.366548 173.622428 
L 132.731784 174.851577 
L 134.253602 179.563316 
L 134.831893 181.348509 
L 135.075384 182.021615 
L 135.379748 182.95811 
L 135.44062 183.104437 
L 135.805857 184.128728 
L 135.897166 184.304321 
L 136.140657 184.801834 
L 136.414584 185.270081 
L 136.87113 185.943187 
L 136.962439 186.030983 
L 137.236366 186.323638 
L 137.358111 186.411434 
L 137.54073 186.557761 
L 137.571166 186.49923 
L 137.632039 186.557761 
L 137.966839 186.733354 
L 138.301639 186.82115 
L 138.484257 186.850416 
L 138.758184 186.762619 
L 139.79302 185.621267 
L 140.371311 184.275055 
L 141.010475 182.255739 
L 141.345275 180.968058 
L 143.354075 170.783679 
L 144.084548 165.925612 
L 145.971602 150.561246 
L 147.280366 138.299018 
L 153.51982 73.476026 
L 155.102511 60.745549 
L 155.741675 56.677645 
L 156.411275 52.873143 
L 157.993966 47.224904 
L 158.328766 46.81519 
L 158.694002 46.610332 
L 159.150548 46.698126 
L 159.54622 47.224904 
L 160.033202 48.307731 
L 160.337566 49.127161 
L 161.88982 57.116632 
L 163.65513 73.329699 
L 164.385602 82.226394 
L 165.298693 95.015403 
L 167.033566 123.373633 
L 171.59902 213.306392 
L 173.303457 245.586192 
L 176.04273 288.606422 
L 177.564548 306.282753 
L 178.599384 315.179465 
L 179.39073 319.774137 
L 179.908148 322.115379 
L 180.182075 322.934807 
L 180.760366 324.281016 
L 181.095166 324.69073 
L 181.247348 324.69073 
L 181.39953 324.632206 
L 181.64302 324.39808 
L 181.703893 324.339537 
L 182.525675 322.525093 
L 182.73873 321.617852 
L 183.530075 317.286578 
L 183.98662 314.038095 
L 184.960584 305.755975 
L 187.365057 276.753906 
L 189.404293 243.742468 
L 193.239275 167.857132 
L 195.46113 125.217357 
L 197.774293 84.918816 
L 199.417857 62.735598 
L 201.091857 44.649544 
L 201.974511 37.216121 
L 203.252839 29.343715 
L 204.257239 25.041685 
L 204.926839 23.402827 
L 205.17033 23.022373 
L 205.41382 22.64192 
L 205.657311 22.407792 
L 206.326911 22.495595 
L 206.905202 22.905309 
L 206.966075 22.993103 
L 207.17913 23.344293 
L 207.666111 24.514907 
L 207.909602 25.18802 
L 208.457457 27.061005 
L 209.18793 30.660651 
L 209.52273 32.35805 
L 210.892366 40.903572 
L 212.505493 52.492689 
L 215.701311 81.114314 
L 218.927566 111.082142 
L 219.56673 116.847433 
L 221.727711 134.582304 
L 222.458184 140.230538 
L 223.766948 149.478423 
L 224.466984 153.37073 
L 225.532257 158.872636 
L 226.993202 165.369568 
L 227.297566 166.569452 
L 227.906293 169.02775 
L 228.088911 169.61306 
L 229.062875 172.920057 
L 232.684802 183.660481 
L 233.171784 185.85539 
L 233.476148 187.055274 
L 236.30673 201.190491 
L 241.32873 229.548717 
L 241.937457 232.328945 
L 242.91142 236.484631 
L 245.072402 244.386308 
L 245.528948 245.03015 
L 245.68113 245.117944 
L 245.802875 245.205748 
L 245.833311 245.176478 
L 246.198548 245.381333 
L 246.59422 245.293539 
L 246.868148 245.00088 
L 247.111639 244.620436 
L 247.385566 244.152191 
L 248.055166 242.630387 
L 249.911784 235.050631 
L 251.190111 227.06116 
L 253.472839 208.682449 
L 254.446802 199.551623 
L 256.364293 180.060829 
L 257.125202 172.51034 
L 257.581748 168.149787 
L 258.342657 161.272404 
L 259.620984 150.034467 
L 260.899311 139.879353 
L 261.447166 136.074842 
L 262.42113 130.251016 
L 264.308184 121.646971 
L 264.460366 121.120193 
L 265.251711 118.515567 
L 266.316984 115.764616 
L 267.504002 113.716029 
L 267.595311 113.628235 
L 267.869239 113.306315 
L 267.960548 113.247782 
L 268.204039 112.984393 
L 268.234475 113.01366 
L 268.295348 112.925866 
L 268.538839 112.838068 
L 268.843202 112.691738 
L 269.086693 112.603944 
L 269.330184 112.486882 
L 269.512802 112.516148 
L 270.243275 112.574678 
L 270.395457 112.691738 
L 270.45633 112.750271 
L 270.638948 112.955127 
L 270.669384 112.925866 
L 270.730257 112.984393 
L 271.03462 113.33558 
L 271.12593 113.423379 
L 271.430293 113.862359 
L 272.404257 115.940206 
L 272.678184 116.613312 
L 272.769493 116.818168 
L 273.652148 119.042345 
L 273.743457 119.247203 
L 274.443493 120.9446 
L 274.930475 122.115218 
L 275.874002 124.514986 
L 276.330548 125.627074 
L 277.15233 127.704921 
L 277.243639 127.909779 
L 278.278475 130.572936 
L 278.674148 131.567962 
L 279.222002 132.826378 
L 282.935239 139.733025 
L 283.361348 140.289069 
L 283.939639 141.167033 
L 284.700548 142.015732 
L 284.913602 142.308386 
L 285.76582 142.981492 
L 285.918002 143.069288 
L 286.252802 143.24488 
L 286.374548 143.274146 
L 286.587602 143.361943 
L 286.709348 143.332677 
L 286.831093 143.391208 
L 286.983275 143.391208 
L 287.652875 143.303412 
L 287.835493 143.274146 
L 288.048548 143.186349 
L 288.322475 143.069288 
L 288.474657 142.981492 
L 288.961639 142.659572 
L 289.083384 142.571775 
L 290.87913 140.698785 
L 291.518293 139.703759 
L 292.035711 139.059919 
L 293.770584 135.489534 
L 294.80542 132.826378 
L 295.048911 132.124006 
L 296.692475 127.061081 
L 297.088148 125.685605 
L 297.81862 123.256571 
L 298.609966 120.62268 
L 298.853457 119.920309 
L 299.553493 117.666869 
L 300.040475 116.496252 
L 300.436148 115.413428 
L 300.984002 114.155013 
L 302.018839 112.399088 
L 302.536257 111.989369 
L 302.59713 112.0479 
L 302.627566 111.989369 
L 302.84062 111.930836 
L 303.388475 112.018635 
L 303.60153 112.194225 
L 303.662402 112.282024 
L 304.17982 112.896601 
L 304.423311 113.306315 
L 304.636366 113.628235 
L 305.123348 114.711059 
L 305.366839 115.413428 
L 307.375639 123.578491 
L 308.562657 131.041184 
L 310.175784 144.298437 
L 312.88462 171.398253 
L 315.136911 196.127569 
L 317.145711 216.203675 
L 318.393602 227.148954 
L 320.280657 239.118525 
L 321.224184 243.127895 
L 321.893784 245.264269 
L 322.289457 246.083709 
L 322.837311 246.932407 
L 323.01993 247.020201 
L 323.172111 247.107996 
L 323.293857 247.049462 
L 323.415602 247.020201 
L 324.389566 245.937382 
L 324.967857 244.591166 
L 326.307057 240.40621 
L 327.341893 235.987123 
L 329.868111 220.798349 
L 333.155239 194.664291 
L 339.516439 140.581724 
L 342.34702 119.627654 
L 342.986184 115.296364 
L 345.299348 100.429513 
L 345.999384 96.537206 
L 346.760293 92.79123 
L 349.316948 83.367747 
L 349.37782 83.221422 
L 349.71262 82.372728 
L 350.38222 80.763121 
L 350.595275 80.411938 
L 351.356184 79.182786 
L 351.447493 79.094992 
L 351.843166 78.568214 
L 353.304111 77.309799 
L 353.425857 77.280529 
L 353.669348 77.192737 
L 353.791093 77.222008 
L 353.882402 77.163474 
L 353.912839 77.192737 
L 354.460693 77.280529 
L 354.612875 77.368333 
L 354.73462 77.426863 
L 354.886802 77.543918 
L 354.978111 77.631722 
L 355.678148 78.45115 
L 357.139093 81.465497 
L 357.626075 82.899507 
L 357.869566 83.601871 
L 358.691348 86.294295 
L 360.578402 93.991111 
L 363.77422 109.882254 
L 366.87873 128.436558 
L 367.487457 132.299598 
L 368.430984 138.386814 
L 369.070148 142.454713 
L 370.774584 153.224402 
L 371.200693 155.770497 
L 372.448584 163.438048 
L 373.666039 171.105598 
L 375.126984 180.236422 
L 375.58353 182.928844 
L 377.379275 194.283843 
L 378.322802 200.341793 
L 379.083711 205.346187 
L 380.51422 214.242884 
L 382.736075 226.446583 
L 382.918693 227.266018 
L 382.918693 227.266018 
" style="fill:none;stroke:#0000ff;stroke-linecap:square;stroke-width:1.5;"/>
   </g>
   <g id="line2d_28">
    <path clip-path="url(#p6f88e293be)" d="M 78.555057 155.319751 
L 78.828984 155.349016 
L 79.072475 155.349016 
L 91.825311 155.246587 
L 92.038366 155.26122 
L 101.199711 155.363649 
L 101.747566 155.509976 
L 102.021493 155.612405 
L 102.417166 155.861162 
L 102.599784 155.963591 
L 104.06073 157.500028 
L 104.39553 158.041439 
L 104.97382 159.06573 
L 105.673857 160.631432 
L 109.265348 171.327957 
L 109.965384 173.581398 
L 110.66542 175.556816 
L 111.639384 178.04438 
L 113.252511 180.927028 
L 114.287348 181.775727 
L 114.987384 181.673297 
L 115.809166 181.161152 
L 116.44833 180.063697 
L 117.848402 176.449412 
L 120.070257 167.464916 
L 120.770293 163.953061 
L 122.870402 151.193321 
L 124.05742 143.101422 
L 125.031384 136.428896 
L 127.009748 124.766611 
L 128.74462 115.387031 
L 130.570802 107.938973 
L 133.18833 100.710405 
L 134.618839 98.193571 
L 135.258002 97.081485 
L 135.562366 96.61324 
L 135.897166 96.305948 
L 136.231966 96.027929 
L 136.992875 95.106067 
L 137.327675 95.003638 
L 137.601602 94.974372 
L 137.814657 94.974372 
L 138.088584 94.959742 
L 138.54513 95.296292 
L 138.940802 96.057194 
L 139.488657 97.315609 
L 139.701711 97.798492 
L 141.071348 102.071246 
L 142.89753 110.441166 
L 143.841057 116.484483 
L 145.332439 127.12248 
L 145.91073 131.424503 
L 147.462984 145.003676 
L 152.60673 195.808515 
L 154.52422 212.328864 
L 155.741675 220.845113 
L 156.502584 225.234932 
L 157.324366 229.010177 
L 158.389639 232.682989 
L 159.789711 235.170556 
L 160.611493 235.463218 
L 161.372402 234.994961 
L 162.711602 232.214744 
L 163.89862 227.239619 
L 164.720402 222.323021 
L 165.785675 214.977393 
L 166.607457 208.275603 
L 168.67713 189.414012 
L 172.35993 155.070994 
L 173.668693 144.11108 
L 175.190511 132.551222 
L 176.71233 123.698421 
L 177.96022 118.767191 
L 179.603784 115.840645 
L 180.72993 114.904153 
L 181.034293 114.86025 
L 181.429966 115.167542 
L 181.764766 115.621152 
L 182.64742 117.53804 
L 184.504039 124.166669 
L 185.32582 127.76632 
L 189.799966 149.817845 
L 190.560875 153.563823 
L 195.065457 172.586372 
L 197.013384 178.761384 
L 197.774293 180.327086 
L 198.900439 181.278214 
L 199.174366 181.175785 
L 199.570039 180.663639 
L 200.026584 179.844206 
L 200.330948 179.229632 
L 200.848366 177.722461 
L 202.339748 172.337616 
L 203.861566 164.47984 
L 208.061784 137.57025 
L 208.914002 131.483035 
L 211.896766 112.153195 
L 214.11862 101.998085 
L 215.001275 99.027639 
L 216.157857 96.510811 
L 216.492657 96.218157 
L 216.949202 95.881599 
L 217.314439 95.662111 
L 218.440584 95.76454 
L 218.927566 96.086462 
L 219.23193 96.452278 
L 219.627602 96.964424 
L 219.871093 97.271713 
L 220.418948 97.944817 
L 221.179857 99.232497 
L 222.001639 101.01769 
L 222.48862 102.276105 
L 223.675639 105.407509 
L 224.25393 107.207332 
L 224.710475 108.8462 
L 226.810584 116.484483 
L 227.662802 119.732951 
L 229.823784 128.468691 
L 230.28033 130.327048 
L 230.706439 132.126875 
L 232.136948 138.799398 
L 232.776111 142.399051 
L 233.96313 149.861742 
L 239.715602 190.555365 
L 241.57222 200.622683 
L 242.272257 203.739452 
L 243.307093 207.734187 
L 244.707166 212.680052 
L 245.711566 215.679762 
L 246.746402 217.903935 
L 246.959457 218.240487 
L 247.385566 218.855064 
L 247.537748 219.04529 
L 248.785639 220.098846 
L 249.150875 220.15738 
L 250.307457 220.054946 
L 250.916184 219.879355 
L 251.28142 219.791557 
L 251.524911 219.703763 
L 252.133639 219.294044 
L 253.38153 217.947837 
L 253.746766 217.479585 
L 254.233748 216.967442 
L 255.877311 215.240782 
L 256.486039 214.553042 
L 256.851275 214.260387 
L 257.246948 214.011628 
L 257.429566 213.909199 
L 258.707893 213.397056 
L 258.860075 213.367791 
L 260.808002 212.314234 
L 261.112366 212.065475 
L 262.208075 210.865594 
L 263.638584 207.880519 
L 264.612548 205.261256 
L 265.312584 202.905389 
L 266.43873 197.564442 
L 267.382257 192.018635 
L 268.995384 180.444148 
L 270.517202 167.128364 
L 272.252075 149.408128 
L 273.865202 130.341681 
L 276.634911 95.735274 
L 278.521966 72.659459 
L 280.439457 52.671148 
L 281.41342 44.315859 
L 282.570002 36.736112 
L 283.42222 32.814533 
L 284.42662 30.224538 
L 284.791857 29.858722 
L 285.552766 29.961148 
L 285.978875 30.517199 
L 286.52673 31.804875 
L 287.348511 34.921649 
L 288.018111 38.652995 
L 288.87033 44.681677 
L 289.600802 50.724995 
L 290.848693 62.489716 
L 292.948802 85.858182 
L 297.57513 140.496795 
L 298.792584 154.339358 
L 301.988402 186.984978 
L 303.084111 196.481618 
L 304.423311 205.363685 
L 305.85382 212.35813 
L 306.371239 214.47988 
L 306.888657 216.660157 
L 308.410475 221.401159 
L 309.354002 223.449739 
L 310.29753 225.439795 
L 311.484548 226.961599 
L 311.941093 227.064026 
L 312.184584 227.064026 
L 312.702002 226.976229 
L 313.31073 226.273858 
L 314.89342 222.191327 
L 315.502148 220.040315 
L 315.928257 218.489246 
L 317.66313 210.514406 
L 321.315493 188.799437 
L 322.989493 178.278504 
L 327.067966 153.476027 
L 328.95502 144.067182 
L 330.355093 138.492111 
L 332.30302 133.195063 
L 332.97262 132.126875 
L 333.490039 131.483035 
L 333.855275 131.131848 
L 334.616184 130.868459 
L 334.890111 130.883092 
L 335.07273 130.912357 
L 335.40753 131.014786 
L 336.016257 131.424503 
L 336.290184 131.62936 
L 336.929348 132.05371 
L 339.303384 134.482743 
L 339.912111 135.185115 
L 340.09473 135.375339 
L 341.190439 136.765449 
L 342.803566 138.170191 
L 343.44273 138.360416 
L 343.807966 138.462846 
L 344.02102 138.53601 
L 344.44713 138.638439 
L 346.02982 139.282279 
L 347.308148 139.209115 
L 347.521202 139.07742 
L 348.769093 138.375049 
L 349.012584 138.199457 
L 350.595275 137.321492 
L 350.930075 137.131267 
L 351.112693 137.102002 
L 351.538802 137.014205 
L 351.690984 137.014205 
L 352.604075 137.116635 
L 353.638911 137.497086 
L 353.882402 137.599515 
L 354.15633 137.819006 
L 354.39982 138.053129 
L 354.978111 138.69697 
L 355.373784 139.223748 
L 356.043384 140.379733 
L 356.652111 141.316228 
L 357.930439 143.350178 
L 359.969675 147.066891 
L 360.09142 147.213219 
L 360.487093 147.754629 
L 360.913202 148.310673 
L 362.556766 150.871401 
L 362.982875 151.61767 
L 363.165493 151.924957 
L 363.804657 152.919983 
L 364.169893 153.402863 
L 364.44382 153.827212 
L 364.596002 154.017438 
L 366.330875 156.344042 
L 367.700511 156.885453 
L 369.161457 156.783024 
L 369.526693 156.490369 
L 369.861493 156.06602 
L 370.13542 155.597773 
L 374.122584 147.696099 
L 374.518257 146.730338 
L 375.15742 145.471924 
L 375.613966 144.623225 
L 377.227093 141.286963 
L 379.053275 137.160533 
L 379.388075 136.502061 
L 380.148984 134.921726 
L 380.301166 134.62907 
L 382.85782 129.946597 
L 382.918693 129.844168 
L 382.918693 129.844168 
" style="fill:none;stroke:#ff0000;stroke-linecap:square;stroke-width:1.5;"/>
   </g>
   <g id="line2d_29">
    <path clip-path="url(#p6f88e293be)" d="M 129.322911 163.847764 
" style="fill:none;stroke:#ffffff;stroke-linecap:square;stroke-width:1.5;"/>
    <defs>
     <path d="M 0 -5 
L -1.12257 -1.545085 
L -4.755283 -1.545085 
L -1.816356 0.59017 
L -2.938926 4.045085 
L -0 1.90983 
L 2.938926 4.045085 
L 1.816356 0.59017 
L 4.755283 -1.545085 
L 1.12257 -1.545085 
z
" id="m5bbf9b86b7" style="stroke:#ffffff;stroke-linejoin:bevel;"/>
    </defs>
    <g clip-path="url(#p6f88e293be)">
     <use style="fill:#0000ff;stroke:#ffffff;stroke-linejoin:bevel;" x="129.322911" xlink:href="#m5bbf9b86b7" y="163.847764"/>
    </g>
   </g>
   <g id="line2d_30">
    <path clip-path="url(#p6f88e293be)" d="M 106.099966 161.699621 
" style="fill:none;stroke:#ffffff;stroke-linecap:square;stroke-width:1.5;"/>
    <defs>
     <path d="M 0 -5 
L -1.12257 -1.545085 
L -4.755283 -1.545085 
L -1.816356 0.59017 
L -2.938926 4.045085 
L -0 1.90983 
L 2.938926 4.045085 
L 1.816356 0.59017 
L 4.755283 -1.545085 
L 1.12257 -1.545085 
z
" id="mc226e809f2" style="stroke:#ffffff;stroke-linejoin:bevel;"/>
    </defs>
    <g clip-path="url(#p6f88e293be)">
     <use style="fill:#ff0000;stroke:#ffffff;stroke-linejoin:bevel;" x="106.099966" xlink:href="#mc226e809f2" y="161.699621"/>
    </g>
   </g>
   <g id="patch_3">
    <path d="M 63.336875 339.84 
L 63.336875 7.2 
" style="fill:none;stroke:#000000;stroke-linecap:square;stroke-linejoin:miter;stroke-width:0.8;"/>
   </g>
   <g id="patch_4">
    <path d="M 398.136875 339.84 
L 398.136875 7.2 
" style="fill:none;stroke:#000000;stroke-linecap:square;stroke-linejoin:miter;stroke-width:0.8;"/>
   </g>
   <g id="patch_5">
    <path d="M 63.336875 339.84 
L 398.136875 339.84 
" style="fill:none;stroke:#000000;stroke-linecap:square;stroke-linejoin:miter;stroke-width:0.8;"/>
   </g>
   <g id="patch_6">
    <path d="M 63.336875 7.2 
L 398.136875 7.2 
" style="fill:none;stroke:#000000;stroke-linecap:square;stroke-linejoin:miter;stroke-width:0.8;"/>
   </g>
   <g id="text_16">
    <g id="patch_7">
     <path d="M 75.036875 331.242688 
L 166.79375 331.242688 
L 166.79375 293.760312 
L 75.036875 293.760312 
z
" style="fill:#ffffff;stroke:#000000;stroke-linejoin:miter;stroke-width:0.75;"/>
    </g>
    <!-- Auto_00036 -->
    <g transform="translate(80.076875 308.521562)scale(0.14 -0.14)">
     <defs>
      <path d="M 2928 1419 
L 1288 1419 
L 1000 750 
Q 894 503 894 381 
Q 894 284 986 211 
Q 1078 138 1384 116 
L 1384 0 
L 50 0 
L 50 116 
Q 316 163 394 238 
Q 553 388 747 847 
L 2238 4334 
L 2347 4334 
L 3822 809 
Q 4000 384 4145 257 
Q 4291 131 4550 116 
L 4550 0 
L 2878 0 
L 2878 116 
Q 3131 128 3220 200 
Q 3309 272 3309 375 
Q 3309 513 3184 809 
L 2928 1419 
z
M 2841 1650 
L 2122 3363 
L 1384 1650 
L 2841 1650 
z
" id="TimesNewRomanPSMT-41" transform="scale(0.015625)"/>
      <path d="M 2709 2863 
L 2709 1128 
Q 2709 631 2732 520 
Q 2756 409 2807 365 
Q 2859 322 2928 322 
Q 3025 322 3147 375 
L 3191 266 
L 2334 -88 
L 2194 -88 
L 2194 519 
Q 1825 119 1631 15 
Q 1438 -88 1222 -88 
Q 981 -88 804 51 
Q 628 191 559 409 
Q 491 628 491 1028 
L 491 2306 
Q 491 2509 447 2587 
Q 403 2666 317 2708 
Q 231 2750 6 2747 
L 6 2863 
L 1009 2863 
L 1009 947 
Q 1009 547 1148 422 
Q 1288 297 1484 297 
Q 1619 297 1789 381 
Q 1959 466 2194 703 
L 2194 2325 
Q 2194 2569 2105 2655 
Q 2016 2741 1734 2747 
L 1734 2863 
L 2709 2863 
z
" id="TimesNewRomanPSMT-75" transform="scale(0.015625)"/>
      <path d="M 3256 -1381 
L -53 -1381 
L -53 -1119 
L 3256 -1119 
L 3256 -1381 
z
" id="TimesNewRomanPSMT-5f" transform="scale(0.015625)"/>
     </defs>
     <use xlink:href="#TimesNewRomanPSMT-41"/>
     <use x="72.216797" xlink:href="#TimesNewRomanPSMT-75"/>
     <use x="122.216797" xlink:href="#TimesNewRomanPSMT-74"/>
     <use x="150" xlink:href="#TimesNewRomanPSMT-6f"/>
     <use x="200" xlink:href="#TimesNewRomanPSMT-5f"/>
     <use x="250" xlink:href="#TimesNewRomanPSMT-30"/>
     <use x="300" xlink:href="#TimesNewRomanPSMT-30"/>
     <use x="350" xlink:href="#TimesNewRomanPSMT-30"/>
     <use x="400" xlink:href="#TimesNewRomanPSMT-33"/>
     <use x="450" xlink:href="#TimesNewRomanPSMT-36"/>
    </g>
    <!-- Vs: 261.99m/s -->
    <g transform="translate(80.076875 323.208)scale(0.14 -0.14)">
     <defs>
      <path d="M 903 2950 
Q 1047 2950 1148 2848 
Q 1250 2747 1250 2603 
Q 1250 2459 1148 2357 
Q 1047 2256 903 2256 
Q 759 2256 657 2357 
Q 556 2459 556 2603 
Q 556 2747 657 2848 
Q 759 2950 903 2950 
z
M 897 609 
Q 1044 609 1145 506 
Q 1247 403 1247 259 
Q 1247 116 1144 14 
Q 1041 -88 897 -88 
Q 753 -88 651 14 
Q 550 116 550 259 
Q 550 403 651 506 
Q 753 609 897 609 
z
" id="TimesNewRomanPSMT-3a" transform="scale(0.015625)"/>
      <path d="M 338 -88 
L 338 28 
Q 744 34 1094 217 
Q 1444 400 1770 856 
Q 2097 1313 2225 1859 
Q 1734 1544 1338 1544 
Q 891 1544 572 1889 
Q 253 2234 253 2806 
Q 253 3363 572 3797 
Q 956 4325 1575 4325 
Q 2097 4325 2469 3894 
Q 2925 3359 2925 2575 
Q 2925 1869 2578 1258 
Q 2231 647 1613 244 
Q 1109 -88 516 -88 
L 338 -88 
z
M 2275 2091 
Q 2331 2497 2331 2741 
Q 2331 3044 2228 3395 
Q 2125 3747 1936 3934 
Q 1747 4122 1506 4122 
Q 1228 4122 1018 3872 
Q 809 3622 809 3128 
Q 809 2469 1088 2097 
Q 1291 1828 1588 1828 
Q 1731 1828 1928 1897 
Q 2125 1966 2275 2091 
z
" id="TimesNewRomanPSMT-39" transform="scale(0.015625)"/>
      <path d="M 1794 4444 
L 259 -88 
L 9 -88 
L 1544 4444 
L 1794 4444 
z
" id="TimesNewRomanPSMT-2f" transform="scale(0.015625)"/>
     </defs>
     <use xlink:href="#TimesNewRomanPSMT-56"/>
     <use x="72.216797" xlink:href="#TimesNewRomanPSMT-73"/>
     <use x="111.132812" xlink:href="#TimesNewRomanPSMT-3a"/>
     <use x="138.916016" xlink:href="#TimesNewRomanPSMT-20"/>
     <use x="163.916016" xlink:href="#TimesNewRomanPSMT-32"/>
     <use x="213.916016" xlink:href="#TimesNewRomanPSMT-36"/>
     <use x="263.916016" xlink:href="#TimesNewRomanPSMT-31"/>
     <use x="313.916016" xlink:href="#TimesNewRomanPSMT-2e"/>
     <use x="338.916016" xlink:href="#TimesNewRomanPSMT-39"/>
     <use x="388.916016" xlink:href="#TimesNewRomanPSMT-39"/>
     <use x="438.916016" xlink:href="#TimesNewRomanPSMT-6d"/>
     <use x="516.699219" xlink:href="#TimesNewRomanPSMT-2f"/>
     <use x="544.482422" xlink:href="#TimesNewRomanPSMT-73"/>
    </g>
   </g>
  </g>
 </g>
 <defs>
  <clipPath id="p6f88e293be">
   <rect height="332.64" width="334.8" x="63.336875" y="7.2"/>
  </clipPath>
 </defs>
</svg>
