<?xml version="1.0" encoding="utf-8" standalone="no"?>
<!DOCTYPE svg PUBLIC "-//W3C//DTD SVG 1.1//EN"
  "http://www.w3.org/Graphics/SVG/1.1/DTD/svg11.dtd">
<svg height="383.471875pt" version="1.1" viewBox="0 0 421.086875 383.471875" width="421.086875pt" xmlns="http://www.w3.org/2000/svg" xmlns:xlink="http://www.w3.org/1999/xlink">
 <metadata>
  <rdf:RDF xmlns:cc="http://creativecommons.org/ns#" xmlns:dc="http://purl.org/dc/elements/1.1/" xmlns:rdf="http://www.w3.org/1999/02/22-rdf-syntax-ns#">
   <cc:Work>
    <dc:type rdf:resource="http://purl.org/dc/dcmitype/StillImage"/>
    <dc:date>2021-06-11T14:39:37.902597</dc:date>
    <dc:format>image/svg+xml</dc:format>
    <dc:creator>
     <cc:Agent>
      <dc:title>Matplotlib v3.4.2, https://matplotlib.org/</dc:title>
     </cc:Agent>
    </dc:creator>
   </cc:Work>
  </rdf:RDF>
 </metadata>
 <defs>
  <style type="text/css">*{stroke-linecap:butt;stroke-linejoin:round;}</style>
 </defs>
 <g id="figure_1">
  <g id="patch_1">
   <path d="M 0 383.471875 
L 421.086875 383.471875 
L 421.086875 0 
L 0 0 
z
" style="fill:#ffffff;"/>
  </g>
  <g id="axes_1">
   <g id="patch_2">
    <path d="M 63.336875 339.84 
L 398.136875 339.84 
L 398.136875 7.2 
L 63.336875 7.2 
z
" style="fill:#ffffff;"/>
   </g>
   <g id="matplotlib.axis_1">
    <g id="xtick_1">
     <g id="line2d_1">
      <path clip-path="url(#p14e5915fcd)" d="M 93.773239 339.84 
L 93.773239 7.2 
" style="fill:none;stroke:#000000;stroke-dasharray:0.5,0.825;stroke-dashoffset:0;stroke-width:0.5;"/>
     </g>
     <g id="line2d_2">
      <defs>
       <path d="M 0 0 
L 0 3.5 
" id="m27914874b9" style="stroke:#000000;stroke-width:0.8;"/>
      </defs>
      <g>
       <use style="stroke:#000000;stroke-width:0.8;" x="93.773239" xlink:href="#m27914874b9" y="339.84"/>
      </g>
     </g>
     <g id="text_1">
      <!-- 0.000 -->
      <g transform="translate(78.023239 356.56125)scale(0.14 -0.14)">
       <defs>
        <path d="M 231 2094 
Q 231 2819 450 3342 
Q 669 3866 1031 4122 
Q 1313 4325 1613 4325 
Q 2100 4325 2488 3828 
Q 2972 3213 2972 2159 
Q 2972 1422 2759 906 
Q 2547 391 2217 158 
Q 1888 -75 1581 -75 
Q 975 -75 572 641 
Q 231 1244 231 2094 
z
M 844 2016 
Q 844 1141 1059 588 
Q 1238 122 1591 122 
Q 1759 122 1940 273 
Q 2122 425 2216 781 
Q 2359 1319 2359 2297 
Q 2359 3022 2209 3506 
Q 2097 3866 1919 4016 
Q 1791 4119 1609 4119 
Q 1397 4119 1231 3928 
Q 1006 3669 925 3112 
Q 844 2556 844 2016 
z
" id="TimesNewRomanPSMT-30" transform="scale(0.015625)"/>
        <path d="M 800 606 
Q 947 606 1047 504 
Q 1147 403 1147 259 
Q 1147 116 1045 14 
Q 944 -88 800 -88 
Q 656 -88 554 14 
Q 453 116 453 259 
Q 453 406 554 506 
Q 656 606 800 606 
z
" id="TimesNewRomanPSMT-2e" transform="scale(0.015625)"/>
       </defs>
       <use xlink:href="#TimesNewRomanPSMT-30"/>
       <use x="50" xlink:href="#TimesNewRomanPSMT-2e"/>
       <use x="75" xlink:href="#TimesNewRomanPSMT-30"/>
       <use x="125" xlink:href="#TimesNewRomanPSMT-30"/>
       <use x="175" xlink:href="#TimesNewRomanPSMT-30"/>
      </g>
     </g>
    </g>
    <g id="xtick_2">
     <g id="line2d_3">
      <path clip-path="url(#p14e5915fcd)" d="M 154.645966 339.84 
L 154.645966 7.2 
" style="fill:none;stroke:#000000;stroke-dasharray:0.5,0.825;stroke-dashoffset:0;stroke-width:0.5;"/>
     </g>
     <g id="line2d_4">
      <g>
       <use style="stroke:#000000;stroke-width:0.8;" x="154.645966" xlink:href="#m27914874b9" y="339.84"/>
      </g>
     </g>
     <g id="text_2">
      <!-- 0.001 -->
      <g transform="translate(138.895966 356.56125)scale(0.14 -0.14)">
       <defs>
        <path d="M 750 3822 
L 1781 4325 
L 1884 4325 
L 1884 747 
Q 1884 391 1914 303 
Q 1944 216 2037 169 
Q 2131 122 2419 116 
L 2419 0 
L 825 0 
L 825 116 
Q 1125 122 1212 167 
Q 1300 213 1334 289 
Q 1369 366 1369 747 
L 1369 3034 
Q 1369 3497 1338 3628 
Q 1316 3728 1258 3775 
Q 1200 3822 1119 3822 
Q 1003 3822 797 3725 
L 750 3822 
z
" id="TimesNewRomanPSMT-31" transform="scale(0.015625)"/>
       </defs>
       <use xlink:href="#TimesNewRomanPSMT-30"/>
       <use x="50" xlink:href="#TimesNewRomanPSMT-2e"/>
       <use x="75" xlink:href="#TimesNewRomanPSMT-30"/>
       <use x="125" xlink:href="#TimesNewRomanPSMT-30"/>
       <use x="175" xlink:href="#TimesNewRomanPSMT-31"/>
      </g>
     </g>
    </g>
    <g id="xtick_3">
     <g id="line2d_5">
      <path clip-path="url(#p14e5915fcd)" d="M 215.518693 339.84 
L 215.518693 7.2 
" style="fill:none;stroke:#000000;stroke-dasharray:0.5,0.825;stroke-dashoffset:0;stroke-width:0.5;"/>
     </g>
     <g id="line2d_6">
      <g>
       <use style="stroke:#000000;stroke-width:0.8;" x="215.518693" xlink:href="#m27914874b9" y="339.84"/>
      </g>
     </g>
     <g id="text_3">
      <!-- 0.002 -->
      <g transform="translate(199.768693 356.56125)scale(0.14 -0.14)">
       <defs>
        <path d="M 2934 816 
L 2638 0 
L 138 0 
L 138 116 
Q 1241 1122 1691 1759 
Q 2141 2397 2141 2925 
Q 2141 3328 1894 3587 
Q 1647 3847 1303 3847 
Q 991 3847 742 3664 
Q 494 3481 375 3128 
L 259 3128 
Q 338 3706 661 4015 
Q 984 4325 1469 4325 
Q 1984 4325 2329 3994 
Q 2675 3663 2675 3213 
Q 2675 2891 2525 2569 
Q 2294 2063 1775 1497 
Q 997 647 803 472 
L 1909 472 
Q 2247 472 2383 497 
Q 2519 522 2628 598 
Q 2738 675 2819 816 
L 2934 816 
z
" id="TimesNewRomanPSMT-32" transform="scale(0.015625)"/>
       </defs>
       <use xlink:href="#TimesNewRomanPSMT-30"/>
       <use x="50" xlink:href="#TimesNewRomanPSMT-2e"/>
       <use x="75" xlink:href="#TimesNewRomanPSMT-30"/>
       <use x="125" xlink:href="#TimesNewRomanPSMT-30"/>
       <use x="175" xlink:href="#TimesNewRomanPSMT-32"/>
      </g>
     </g>
    </g>
    <g id="xtick_4">
     <g id="line2d_7">
      <path clip-path="url(#p14e5915fcd)" d="M 276.39142 339.84 
L 276.39142 7.2 
" style="fill:none;stroke:#000000;stroke-dasharray:0.5,0.825;stroke-dashoffset:0;stroke-width:0.5;"/>
     </g>
     <g id="line2d_8">
      <g>
       <use style="stroke:#000000;stroke-width:0.8;" x="276.39142" xlink:href="#m27914874b9" y="339.84"/>
      </g>
     </g>
     <g id="text_4">
      <!-- 0.003 -->
      <g transform="translate(260.64142 356.56125)scale(0.14 -0.14)">
       <defs>
        <path d="M 325 3431 
Q 506 3859 782 4092 
Q 1059 4325 1472 4325 
Q 1981 4325 2253 3994 
Q 2459 3747 2459 3466 
Q 2459 3003 1878 2509 
Q 2269 2356 2469 2072 
Q 2669 1788 2669 1403 
Q 2669 853 2319 450 
Q 1863 -75 997 -75 
Q 569 -75 414 31 
Q 259 138 259 259 
Q 259 350 332 419 
Q 406 488 509 488 
Q 588 488 669 463 
Q 722 447 909 348 
Q 1097 250 1169 231 
Q 1284 197 1416 197 
Q 1734 197 1970 444 
Q 2206 691 2206 1028 
Q 2206 1275 2097 1509 
Q 2016 1684 1919 1775 
Q 1784 1900 1550 2001 
Q 1316 2103 1072 2103 
L 972 2103 
L 972 2197 
Q 1219 2228 1467 2375 
Q 1716 2522 1828 2728 
Q 1941 2934 1941 3181 
Q 1941 3503 1739 3701 
Q 1538 3900 1238 3900 
Q 753 3900 428 3381 
L 325 3431 
z
" id="TimesNewRomanPSMT-33" transform="scale(0.015625)"/>
       </defs>
       <use xlink:href="#TimesNewRomanPSMT-30"/>
       <use x="50" xlink:href="#TimesNewRomanPSMT-2e"/>
       <use x="75" xlink:href="#TimesNewRomanPSMT-30"/>
       <use x="125" xlink:href="#TimesNewRomanPSMT-30"/>
       <use x="175" xlink:href="#TimesNewRomanPSMT-33"/>
      </g>
     </g>
    </g>
    <g id="xtick_5">
     <g id="line2d_9">
      <path clip-path="url(#p14e5915fcd)" d="M 337.264148 339.84 
L 337.264148 7.2 
" style="fill:none;stroke:#000000;stroke-dasharray:0.5,0.825;stroke-dashoffset:0;stroke-width:0.5;"/>
     </g>
     <g id="line2d_10">
      <g>
       <use style="stroke:#000000;stroke-width:0.8;" x="337.264148" xlink:href="#m27914874b9" y="339.84"/>
      </g>
     </g>
     <g id="text_5">
      <!-- 0.004 -->
      <g transform="translate(321.514148 356.56125)scale(0.14 -0.14)">
       <defs>
        <path d="M 2978 1563 
L 2978 1119 
L 2409 1119 
L 2409 0 
L 1894 0 
L 1894 1119 
L 100 1119 
L 100 1519 
L 2066 4325 
L 2409 4325 
L 2409 1563 
L 2978 1563 
z
M 1894 1563 
L 1894 3666 
L 406 1563 
L 1894 1563 
z
" id="TimesNewRomanPSMT-34" transform="scale(0.015625)"/>
       </defs>
       <use xlink:href="#TimesNewRomanPSMT-30"/>
       <use x="50" xlink:href="#TimesNewRomanPSMT-2e"/>
       <use x="75" xlink:href="#TimesNewRomanPSMT-30"/>
       <use x="125" xlink:href="#TimesNewRomanPSMT-30"/>
       <use x="175" xlink:href="#TimesNewRomanPSMT-34"/>
      </g>
     </g>
    </g>
    <g id="xtick_6">
     <g id="line2d_11">
      <path clip-path="url(#p14e5915fcd)" d="M 398.136875 339.84 
L 398.136875 7.2 
" style="fill:none;stroke:#000000;stroke-dasharray:0.5,0.825;stroke-dashoffset:0;stroke-width:0.5;"/>
     </g>
     <g id="line2d_12">
      <g>
       <use style="stroke:#000000;stroke-width:0.8;" x="398.136875" xlink:href="#m27914874b9" y="339.84"/>
      </g>
     </g>
     <g id="text_6">
      <!-- 0.005 -->
      <g transform="translate(382.386875 356.56125)scale(0.14 -0.14)">
       <defs>
        <path d="M 2778 4238 
L 2534 3706 
L 1259 3706 
L 981 3138 
Q 1809 3016 2294 2522 
Q 2709 2097 2709 1522 
Q 2709 1188 2573 903 
Q 2438 619 2231 419 
Q 2025 219 1772 97 
Q 1413 -75 1034 -75 
Q 653 -75 479 54 
Q 306 184 306 341 
Q 306 428 378 495 
Q 450 563 559 563 
Q 641 563 702 538 
Q 763 513 909 409 
Q 1144 247 1384 247 
Q 1750 247 2026 523 
Q 2303 800 2303 1197 
Q 2303 1581 2056 1914 
Q 1809 2247 1375 2428 
Q 1034 2569 447 2591 
L 1259 4238 
L 2778 4238 
z
" id="TimesNewRomanPSMT-35" transform="scale(0.015625)"/>
       </defs>
       <use xlink:href="#TimesNewRomanPSMT-30"/>
       <use x="50" xlink:href="#TimesNewRomanPSMT-2e"/>
       <use x="75" xlink:href="#TimesNewRomanPSMT-30"/>
       <use x="125" xlink:href="#TimesNewRomanPSMT-30"/>
       <use x="175" xlink:href="#TimesNewRomanPSMT-35"/>
      </g>
     </g>
    </g>
    <g id="text_7">
     <!-- Time (sec) -->
     <g transform="translate(200.858906 373.277188)scale(0.14 -0.14)">
      <defs>
       <path d="M 3703 4238 
L 3750 3244 
L 3631 3244 
Q 3597 3506 3538 3619 
Q 3441 3800 3280 3886 
Q 3119 3972 2856 3972 
L 2259 3972 
L 2259 734 
Q 2259 344 2344 247 
Q 2463 116 2709 116 
L 2856 116 
L 2856 0 
L 1059 0 
L 1059 116 
L 1209 116 
Q 1478 116 1591 278 
Q 1659 378 1659 734 
L 1659 3972 
L 1150 3972 
Q 853 3972 728 3928 
Q 566 3869 450 3700 
Q 334 3531 313 3244 
L 194 3244 
L 244 4238 
L 3703 4238 
z
" id="TimesNewRomanPSMT-54" transform="scale(0.015625)"/>
       <path d="M 928 4444 
Q 1059 4444 1151 4351 
Q 1244 4259 1244 4128 
Q 1244 3997 1151 3903 
Q 1059 3809 928 3809 
Q 797 3809 703 3903 
Q 609 3997 609 4128 
Q 609 4259 701 4351 
Q 794 4444 928 4444 
z
M 1188 2947 
L 1188 647 
Q 1188 378 1227 289 
Q 1266 200 1342 156 
Q 1419 113 1622 113 
L 1622 0 
L 231 0 
L 231 113 
Q 441 113 512 153 
Q 584 194 626 287 
Q 669 381 669 647 
L 669 1750 
Q 669 2216 641 2353 
Q 619 2453 572 2492 
Q 525 2531 444 2531 
Q 356 2531 231 2484 
L 188 2597 
L 1050 2947 
L 1188 2947 
z
" id="TimesNewRomanPSMT-69" transform="scale(0.015625)"/>
       <path d="M 1050 2338 
Q 1363 2650 1419 2697 
Q 1559 2816 1721 2881 
Q 1884 2947 2044 2947 
Q 2313 2947 2506 2790 
Q 2700 2634 2766 2338 
Q 3088 2713 3309 2830 
Q 3531 2947 3766 2947 
Q 3994 2947 4170 2830 
Q 4347 2713 4450 2447 
Q 4519 2266 4519 1878 
L 4519 647 
Q 4519 378 4559 278 
Q 4591 209 4675 161 
Q 4759 113 4950 113 
L 4950 0 
L 3538 0 
L 3538 113 
L 3597 113 
Q 3781 113 3884 184 
Q 3956 234 3988 344 
Q 4000 397 4000 647 
L 4000 1878 
Q 4000 2228 3916 2372 
Q 3794 2572 3525 2572 
Q 3359 2572 3192 2489 
Q 3025 2406 2788 2181 
L 2781 2147 
L 2788 2013 
L 2788 647 
Q 2788 353 2820 281 
Q 2853 209 2943 161 
Q 3034 113 3253 113 
L 3253 0 
L 1806 0 
L 1806 113 
Q 2044 113 2133 169 
Q 2222 225 2256 338 
Q 2272 391 2272 647 
L 2272 1878 
Q 2272 2228 2169 2381 
Q 2031 2581 1784 2581 
Q 1616 2581 1450 2491 
Q 1191 2353 1050 2181 
L 1050 647 
Q 1050 366 1089 281 
Q 1128 197 1204 155 
Q 1281 113 1516 113 
L 1516 0 
L 100 0 
L 100 113 
Q 297 113 375 155 
Q 453 197 493 289 
Q 534 381 534 647 
L 534 1741 
Q 534 2213 506 2350 
Q 484 2453 437 2492 
Q 391 2531 309 2531 
Q 222 2531 100 2484 
L 53 2597 
L 916 2947 
L 1050 2947 
L 1050 2338 
z
" id="TimesNewRomanPSMT-6d" transform="scale(0.015625)"/>
       <path d="M 681 1784 
Q 678 1147 991 784 
Q 1303 422 1725 422 
Q 2006 422 2214 576 
Q 2422 731 2563 1106 
L 2659 1044 
Q 2594 616 2278 264 
Q 1963 -88 1488 -88 
Q 972 -88 605 314 
Q 238 716 238 1394 
Q 238 2128 614 2539 
Q 991 2950 1559 2950 
Q 2041 2950 2350 2633 
Q 2659 2316 2659 1784 
L 681 1784 
z
M 681 1966 
L 2006 1966 
Q 1991 2241 1941 2353 
Q 1863 2528 1708 2628 
Q 1553 2728 1384 2728 
Q 1125 2728 920 2526 
Q 716 2325 681 1966 
z
" id="TimesNewRomanPSMT-65" transform="scale(0.015625)"/>
       <path id="TimesNewRomanPSMT-20" transform="scale(0.015625)"/>
       <path d="M 1988 -1253 
L 1988 -1369 
Q 1516 -1131 1200 -813 
Q 750 -359 506 256 
Q 263 872 263 1534 
Q 263 2503 741 3301 
Q 1219 4100 1988 4444 
L 1988 4313 
Q 1603 4100 1356 3731 
Q 1109 3363 987 2797 
Q 866 2231 866 1616 
Q 866 947 969 400 
Q 1050 -31 1165 -292 
Q 1281 -553 1476 -793 
Q 1672 -1034 1988 -1253 
z
" id="TimesNewRomanPSMT-28" transform="scale(0.015625)"/>
       <path d="M 2050 2947 
L 2050 1972 
L 1947 1972 
Q 1828 2431 1642 2597 
Q 1456 2763 1169 2763 
Q 950 2763 815 2647 
Q 681 2531 681 2391 
Q 681 2216 781 2091 
Q 878 1963 1175 1819 
L 1631 1597 
Q 2266 1288 2266 781 
Q 2266 391 1970 151 
Q 1675 -88 1309 -88 
Q 1047 -88 709 6 
Q 606 38 541 38 
Q 469 38 428 -44 
L 325 -44 
L 325 978 
L 428 978 
Q 516 541 762 319 
Q 1009 97 1316 97 
Q 1531 97 1667 223 
Q 1803 350 1803 528 
Q 1803 744 1651 891 
Q 1500 1038 1047 1263 
Q 594 1488 453 1669 
Q 313 1847 313 2119 
Q 313 2472 555 2709 
Q 797 2947 1181 2947 
Q 1350 2947 1591 2875 
Q 1750 2828 1803 2828 
Q 1853 2828 1881 2850 
Q 1909 2872 1947 2947 
L 2050 2947 
z
" id="TimesNewRomanPSMT-73" transform="scale(0.015625)"/>
       <path d="M 2631 1088 
Q 2516 522 2178 217 
Q 1841 -88 1431 -88 
Q 944 -88 581 321 
Q 219 731 219 1428 
Q 219 2103 620 2525 
Q 1022 2947 1584 2947 
Q 2006 2947 2278 2723 
Q 2550 2500 2550 2259 
Q 2550 2141 2473 2067 
Q 2397 1994 2259 1994 
Q 2075 1994 1981 2113 
Q 1928 2178 1911 2362 
Q 1894 2547 1784 2644 
Q 1675 2738 1481 2738 
Q 1169 2738 978 2506 
Q 725 2200 725 1697 
Q 725 1184 976 792 
Q 1228 400 1656 400 
Q 1963 400 2206 609 
Q 2378 753 2541 1131 
L 2631 1088 
z
" id="TimesNewRomanPSMT-63" transform="scale(0.015625)"/>
       <path d="M 144 4313 
L 144 4444 
Q 619 4209 934 3891 
Q 1381 3434 1625 2820 
Q 1869 2206 1869 1541 
Q 1869 572 1392 -226 
Q 916 -1025 144 -1369 
L 144 -1253 
Q 528 -1038 776 -670 
Q 1025 -303 1145 264 
Q 1266 831 1266 1447 
Q 1266 2113 1163 2663 
Q 1084 3094 967 3353 
Q 850 3613 656 3853 
Q 463 4094 144 4313 
z
" id="TimesNewRomanPSMT-29" transform="scale(0.015625)"/>
      </defs>
      <use xlink:href="#TimesNewRomanPSMT-54"/>
      <use x="57.583984" xlink:href="#TimesNewRomanPSMT-69"/>
      <use x="85.367188" xlink:href="#TimesNewRomanPSMT-6d"/>
      <use x="163.150391" xlink:href="#TimesNewRomanPSMT-65"/>
      <use x="207.535156" xlink:href="#TimesNewRomanPSMT-20"/>
      <use x="232.535156" xlink:href="#TimesNewRomanPSMT-28"/>
      <use x="265.835938" xlink:href="#TimesNewRomanPSMT-73"/>
      <use x="304.751953" xlink:href="#TimesNewRomanPSMT-65"/>
      <use x="349.136719" xlink:href="#TimesNewRomanPSMT-63"/>
      <use x="393.521484" xlink:href="#TimesNewRomanPSMT-29"/>
     </g>
    </g>
   </g>
   <g id="matplotlib.axis_2">
    <g id="ytick_1">
     <g id="line2d_13">
      <path clip-path="url(#p14e5915fcd)" d="M 63.336875 280.695109 
L 398.136875 280.695109 
" style="fill:none;stroke:#000000;stroke-dasharray:0.5,0.825;stroke-dashoffset:0;stroke-width:0.5;"/>
     </g>
     <g id="line2d_14">
      <defs>
       <path d="M 0 0 
L -3.5 0 
" id="m951c48a734" style="stroke:#000000;stroke-width:0.8;"/>
      </defs>
      <g>
       <use style="stroke:#000000;stroke-width:0.8;" x="63.336875" xlink:href="#m951c48a734" y="280.695109"/>
      </g>
     </g>
     <g id="text_8">
      <!-- −0.04 -->
      <g transform="translate(23.942188 285.555734)scale(0.14 -0.14)">
       <defs>
        <path d="M 3484 2000 
L 116 2000 
L 116 2256 
L 3484 2256 
L 3484 2000 
z
" id="TimesNewRomanPSMT-2212" transform="scale(0.015625)"/>
       </defs>
       <use xlink:href="#TimesNewRomanPSMT-2212"/>
       <use x="56.396484" xlink:href="#TimesNewRomanPSMT-30"/>
       <use x="106.396484" xlink:href="#TimesNewRomanPSMT-2e"/>
       <use x="131.396484" xlink:href="#TimesNewRomanPSMT-30"/>
       <use x="181.396484" xlink:href="#TimesNewRomanPSMT-34"/>
      </g>
     </g>
    </g>
    <g id="ytick_2">
     <g id="line2d_15">
      <path clip-path="url(#p14e5915fcd)" d="M 63.336875 217.107252 
L 398.136875 217.107252 
" style="fill:none;stroke:#000000;stroke-dasharray:0.5,0.825;stroke-dashoffset:0;stroke-width:0.5;"/>
     </g>
     <g id="line2d_16">
      <g>
       <use style="stroke:#000000;stroke-width:0.8;" x="63.336875" xlink:href="#m951c48a734" y="217.107252"/>
      </g>
     </g>
     <g id="text_9">
      <!-- −0.02 -->
      <g transform="translate(23.942188 221.967877)scale(0.14 -0.14)">
       <use xlink:href="#TimesNewRomanPSMT-2212"/>
       <use x="56.396484" xlink:href="#TimesNewRomanPSMT-30"/>
       <use x="106.396484" xlink:href="#TimesNewRomanPSMT-2e"/>
       <use x="131.396484" xlink:href="#TimesNewRomanPSMT-30"/>
       <use x="181.396484" xlink:href="#TimesNewRomanPSMT-32"/>
      </g>
     </g>
    </g>
    <g id="ytick_3">
     <g id="line2d_17">
      <path clip-path="url(#p14e5915fcd)" d="M 63.336875 153.519395 
L 398.136875 153.519395 
" style="fill:none;stroke:#000000;stroke-dasharray:0.5,0.825;stroke-dashoffset:0;stroke-width:0.5;"/>
     </g>
     <g id="line2d_18">
      <g>
       <use style="stroke:#000000;stroke-width:0.8;" x="63.336875" xlink:href="#m951c48a734" y="153.519395"/>
      </g>
     </g>
     <g id="text_10">
      <!-- 0.00 -->
      <g transform="translate(31.836875 158.38002)scale(0.14 -0.14)">
       <use xlink:href="#TimesNewRomanPSMT-30"/>
       <use x="50" xlink:href="#TimesNewRomanPSMT-2e"/>
       <use x="75" xlink:href="#TimesNewRomanPSMT-30"/>
       <use x="125" xlink:href="#TimesNewRomanPSMT-30"/>
      </g>
     </g>
    </g>
    <g id="ytick_4">
     <g id="line2d_19">
      <path clip-path="url(#p14e5915fcd)" d="M 63.336875 89.931538 
L 398.136875 89.931538 
" style="fill:none;stroke:#000000;stroke-dasharray:0.5,0.825;stroke-dashoffset:0;stroke-width:0.5;"/>
     </g>
     <g id="line2d_20">
      <g>
       <use style="stroke:#000000;stroke-width:0.8;" x="63.336875" xlink:href="#m951c48a734" y="89.931538"/>
      </g>
     </g>
     <g id="text_11">
      <!-- 0.02 -->
      <g transform="translate(31.836875 94.792163)scale(0.14 -0.14)">
       <use xlink:href="#TimesNewRomanPSMT-30"/>
       <use x="50" xlink:href="#TimesNewRomanPSMT-2e"/>
       <use x="75" xlink:href="#TimesNewRomanPSMT-30"/>
       <use x="125" xlink:href="#TimesNewRomanPSMT-32"/>
      </g>
     </g>
    </g>
    <g id="ytick_5">
     <g id="line2d_21">
      <path clip-path="url(#p14e5915fcd)" d="M 63.336875 26.343681 
L 398.136875 26.343681 
" style="fill:none;stroke:#000000;stroke-dasharray:0.5,0.825;stroke-dashoffset:0;stroke-width:0.5;"/>
     </g>
     <g id="line2d_22">
      <g>
       <use style="stroke:#000000;stroke-width:0.8;" x="63.336875" xlink:href="#m951c48a734" y="26.343681"/>
      </g>
     </g>
     <g id="text_12">
      <!-- 0.04 -->
      <g transform="translate(31.836875 31.204306)scale(0.14 -0.14)">
       <use xlink:href="#TimesNewRomanPSMT-30"/>
       <use x="50" xlink:href="#TimesNewRomanPSMT-2e"/>
       <use x="75" xlink:href="#TimesNewRomanPSMT-30"/>
       <use x="125" xlink:href="#TimesNewRomanPSMT-34"/>
      </g>
     </g>
    </g>
    <g id="text_13">
     <!-- Volatage (V) -->
     <g transform="translate(16.92125 209.352344)rotate(-90)scale(0.14 -0.14)">
      <defs>
       <path d="M 4544 4238 
L 4544 4122 
Q 4319 4081 4203 3978 
Q 4038 3825 3909 3509 
L 2431 -97 
L 2316 -97 
L 728 3556 
Q 606 3838 556 3900 
Q 478 3997 364 4051 
Q 250 4106 56 4122 
L 56 4238 
L 1788 4238 
L 1788 4122 
Q 1494 4094 1406 4022 
Q 1319 3950 1319 3838 
Q 1319 3681 1463 3350 
L 2541 866 
L 3541 3319 
Q 3688 3681 3688 3822 
Q 3688 3913 3597 3995 
Q 3506 4078 3291 4113 
Q 3275 4116 3238 4122 
L 3238 4238 
L 4544 4238 
z
" id="TimesNewRomanPSMT-56" transform="scale(0.015625)"/>
       <path d="M 1600 2947 
Q 2250 2947 2644 2453 
Q 2978 2031 2978 1484 
Q 2978 1100 2793 706 
Q 2609 313 2286 112 
Q 1963 -88 1566 -88 
Q 919 -88 538 428 
Q 216 863 216 1403 
Q 216 1797 411 2186 
Q 606 2575 925 2761 
Q 1244 2947 1600 2947 
z
M 1503 2744 
Q 1338 2744 1170 2645 
Q 1003 2547 900 2300 
Q 797 2053 797 1666 
Q 797 1041 1045 587 
Q 1294 134 1700 134 
Q 2003 134 2200 384 
Q 2397 634 2397 1244 
Q 2397 2006 2069 2444 
Q 1847 2744 1503 2744 
z
" id="TimesNewRomanPSMT-6f" transform="scale(0.015625)"/>
       <path d="M 1184 4444 
L 1184 647 
Q 1184 378 1223 290 
Q 1263 203 1344 158 
Q 1425 113 1647 113 
L 1647 0 
L 244 0 
L 244 113 
Q 441 113 512 153 
Q 584 194 625 287 
Q 666 381 666 647 
L 666 3247 
Q 666 3731 644 3842 
Q 622 3953 573 3993 
Q 525 4034 450 4034 
Q 369 4034 244 3984 
L 191 4094 
L 1044 4444 
L 1184 4444 
z
" id="TimesNewRomanPSMT-6c" transform="scale(0.015625)"/>
       <path d="M 1822 413 
Q 1381 72 1269 19 
Q 1100 -59 909 -59 
Q 613 -59 420 144 
Q 228 347 228 678 
Q 228 888 322 1041 
Q 450 1253 767 1440 
Q 1084 1628 1822 1897 
L 1822 2009 
Q 1822 2438 1686 2597 
Q 1550 2756 1291 2756 
Q 1094 2756 978 2650 
Q 859 2544 859 2406 
L 866 2225 
Q 866 2081 792 2003 
Q 719 1925 600 1925 
Q 484 1925 411 2006 
Q 338 2088 338 2228 
Q 338 2497 613 2722 
Q 888 2947 1384 2947 
Q 1766 2947 2009 2819 
Q 2194 2722 2281 2516 
Q 2338 2381 2338 1966 
L 2338 994 
Q 2338 584 2353 492 
Q 2369 400 2405 369 
Q 2441 338 2488 338 
Q 2538 338 2575 359 
Q 2641 400 2828 588 
L 2828 413 
Q 2478 -56 2159 -56 
Q 2006 -56 1915 50 
Q 1825 156 1822 413 
z
M 1822 616 
L 1822 1706 
Q 1350 1519 1213 1441 
Q 966 1303 859 1153 
Q 753 1003 753 825 
Q 753 600 887 451 
Q 1022 303 1197 303 
Q 1434 303 1822 616 
z
" id="TimesNewRomanPSMT-61" transform="scale(0.015625)"/>
       <path d="M 1031 3803 
L 1031 2863 
L 1700 2863 
L 1700 2644 
L 1031 2644 
L 1031 788 
Q 1031 509 1111 412 
Q 1191 316 1316 316 
Q 1419 316 1516 380 
Q 1613 444 1666 569 
L 1788 569 
Q 1678 263 1478 108 
Q 1278 -47 1066 -47 
Q 922 -47 784 33 
Q 647 113 581 261 
Q 516 409 516 719 
L 516 2644 
L 63 2644 
L 63 2747 
Q 234 2816 414 2980 
Q 594 3144 734 3369 
Q 806 3488 934 3803 
L 1031 3803 
z
" id="TimesNewRomanPSMT-74" transform="scale(0.015625)"/>
       <path d="M 966 1044 
Q 703 1172 562 1401 
Q 422 1631 422 1909 
Q 422 2334 742 2640 
Q 1063 2947 1563 2947 
Q 1972 2947 2272 2747 
L 2878 2747 
Q 3013 2747 3034 2739 
Q 3056 2731 3066 2713 
Q 3084 2684 3084 2613 
Q 3084 2531 3069 2500 
Q 3059 2484 3036 2475 
Q 3013 2466 2878 2466 
L 2506 2466 
Q 2681 2241 2681 1891 
Q 2681 1491 2375 1206 
Q 2069 922 1553 922 
Q 1341 922 1119 984 
Q 981 866 932 777 
Q 884 688 884 625 
Q 884 572 936 522 
Q 988 472 1138 450 
Q 1225 438 1575 428 
Q 2219 413 2409 384 
Q 2700 344 2873 169 
Q 3047 -6 3047 -263 
Q 3047 -616 2716 -925 
Q 2228 -1381 1444 -1381 
Q 841 -1381 425 -1109 
Q 191 -953 191 -784 
Q 191 -709 225 -634 
Q 278 -519 444 -313 
Q 466 -284 763 25 
Q 600 122 533 198 
Q 466 275 466 372 
Q 466 481 555 628 
Q 644 775 966 1044 
z
M 1509 2797 
Q 1278 2797 1122 2612 
Q 966 2428 966 2047 
Q 966 1553 1178 1281 
Q 1341 1075 1591 1075 
Q 1828 1075 1981 1253 
Q 2134 1431 2134 1813 
Q 2134 2309 1919 2591 
Q 1759 2797 1509 2797 
z
M 934 0 
Q 788 -159 713 -296 
Q 638 -434 638 -550 
Q 638 -700 819 -813 
Q 1131 -1006 1722 -1006 
Q 2284 -1006 2551 -807 
Q 2819 -609 2819 -384 
Q 2819 -222 2659 -153 
Q 2497 -84 2016 -72 
Q 1313 -53 934 0 
z
" id="TimesNewRomanPSMT-67" transform="scale(0.015625)"/>
      </defs>
      <use xlink:href="#TimesNewRomanPSMT-56"/>
      <use x="59.341797" xlink:href="#TimesNewRomanPSMT-6f"/>
      <use x="109.341797" xlink:href="#TimesNewRomanPSMT-6c"/>
      <use x="137.125" xlink:href="#TimesNewRomanPSMT-61"/>
      <use x="181.509766" xlink:href="#TimesNewRomanPSMT-74"/>
      <use x="209.292969" xlink:href="#TimesNewRomanPSMT-61"/>
      <use x="253.677734" xlink:href="#TimesNewRomanPSMT-67"/>
      <use x="303.677734" xlink:href="#TimesNewRomanPSMT-65"/>
      <use x="348.0625" xlink:href="#TimesNewRomanPSMT-20"/>
      <use x="373.0625" xlink:href="#TimesNewRomanPSMT-28"/>
      <use x="406.363281" xlink:href="#TimesNewRomanPSMT-56"/>
      <use x="478.580078" xlink:href="#TimesNewRomanPSMT-29"/>
     </g>
    </g>
   </g>
   <g id="LineCollection_1">
    <path clip-path="url(#p14e5915fcd)" d="M 78.555057 153.519395 
L 382.918693 153.519395 
" style="fill:none;stroke:#1f77b4;stroke-width:1.5;"/>
   </g>
   <g id="line2d_23">
    <path clip-path="url(#p14e5915fcd)" d="M 78.555057 153.54944 
L 82.87702 153.509698 
L 82.907457 153.430213 
L 82.998766 153.469955 
L 83.150948 153.509698 
L 92.068802 153.54944 
L 92.099239 153.628925 
L 92.190548 153.589183 
L 92.34273 153.54944 
L 93.742802 153.628925 
L 93.773239 153.668667 
L 93.834111 153.589183 
L 97.242984 153.668667 
L 97.334293 153.668667 
L 97.425602 153.628925 
L 97.456039 153.70841 
L 97.547348 153.668667 
L 105.582548 153.668667 
L 105.612984 153.787895 
L 105.704293 153.70841 
L 105.795602 153.70841 
L 105.947784 153.668667 
L 106.06953 153.748152 
L 106.099966 153.70841 
L 106.221711 153.70841 
L 111.33502 153.748152 
L 111.42633 153.827637 
L 111.456766 153.787895 
L 111.974184 153.867379 
L 112.065493 153.907122 
L 112.09593 153.867379 
L 112.613348 153.946864 
L 112.76553 153.986607 
L 113.161202 154.066092 
L 113.282948 154.066092 
L 113.800366 154.105834 
L 113.922111 154.185319 
L 114.43953 154.264804 
L 114.561275 154.304546 
L 114.652584 154.304546 
L 114.804766 154.384031 
L 114.926511 154.384031 
L 115.230875 154.463516 
L 115.291748 154.503258 
L 115.322184 154.463516 
L 115.35262 154.423773 
L 115.383057 154.543 
L 115.413493 154.503258 
L 115.68742 154.582743 
L 115.839602 154.622485 
L 116.083093 154.70197 
L 116.235275 154.781455 
L 116.35702 154.781455 
L 116.874439 154.86094 
L 116.996184 154.900682 
L 117.11793 154.900682 
L 117.270111 154.940425 
L 117.391857 155.019909 
L 117.422293 154.940425 
L 117.483166 154.980167 
L 117.635348 155.059652 
L 117.665784 154.980167 
L 117.757093 155.019909 
L 117.909275 155.099394 
L 118.061457 155.059652 
L 118.244075 155.139137 
L 118.36582 155.139137 
L 118.548439 155.218621 
L 118.670184 155.178879 
L 118.79193 155.258364 
L 119.187602 155.337849 
L 119.278911 155.377591 
L 119.309348 155.337849 
L 119.431093 155.377591 
L 119.583275 155.496818 
L 119.79633 155.576303 
L 119.978948 155.655788 
L 120.192002 155.735273 
L 120.46593 155.933985 
L 120.618111 155.973727 
L 120.80073 156.172439 
L 121.257275 156.609606 
L 121.318148 156.649348 
L 121.500766 156.927545 
L 121.592075 157.00703 
L 122.170366 157.921105 
L 122.626911 158.835181 
L 122.870402 159.31209 
L 123.174766 160.067196 
L 123.296511 160.345393 
L 123.661748 161.338953 
L 123.783493 161.656892 
L 124.331348 163.365816 
L 124.787893 164.836285 
L 125.15313 166.187527 
L 126.583639 172.228374 
L 127.861966 178.348705 
L 128.379384 180.772992 
L 128.74462 182.481915 
L 129.627275 186.336929 
L 129.931639 187.608686 
L 131.118657 191.821382 
L 132.214366 194.404638 
L 132.244802 194.404638 
L 132.396984 194.60335 
L 132.670911 194.802063 
L 132.85353 194.881547 
L 132.975275 194.92129 
L 133.127457 194.881547 
L 133.279639 194.802063 
L 133.52313 194.444381 
L 133.614439 194.364896 
L 133.979675 193.729017 
L 134.314475 193.132881 
L 134.557966 192.655972 
L 135.53193 189.834261 
L 136.231966 186.654867 
L 136.901566 182.601141 
L 137.723348 176.520553 
L 138.940802 166.147784 
L 139.88433 156.331409 
L 140.614802 147.548336 
L 142.988839 115.158271 
L 144.297602 96.320366 
L 145.210693 83.006658 
L 145.849857 74.024876 
L 147.889093 48.748706 
L 148.710875 40.283566 
L 149.136984 36.508037 
L 150.415311 27.327547 
L 150.537057 26.771156 
L 151.115348 24.267381 
L 151.693639 23.035363 
L 151.754511 22.955879 
L 152.332802 22.359739 
L 152.728475 22.439224 
L 153.398075 23.432784 
L 154.493784 28.162134 
L 154.919893 30.904364 
L 156.746075 48.510249 
L 158.237457 69.335269 
L 159.820148 98.029289 
L 161.615893 135.307674 
L 165.268257 218.568024 
L 166.485711 244.519818 
L 167.429239 263.039779 
L 168.981493 289.388997 
L 169.711966 299.16563 
L 170.959857 312.558829 
L 172.146875 321.023959 
L 173.120839 324.481555 
L 173.212148 324.521291 
L 173.333893 324.640515 
L 173.790439 324.561027 
L 173.973057 324.481555 
L 174.003493 324.521291 
L 174.03393 324.481555 
L 174.246984 324.203345 
L 174.307857 324.12387 
L 174.490475 323.766189 
L 175.251384 321.222668 
L 175.464439 320.38808 
L 175.920984 318.162505 
L 177.321057 308.306384 
L 178.599384 295.668298 
L 181.825639 252.110619 
L 182.830039 236.094427 
L 187.212875 163.564528 
L 188.67382 142.34208 
L 192.44793 94.492221 
L 193.817566 81.33748 
L 196.922075 57.889458 
L 197.987348 51.649899 
L 200.270075 43.14502 
L 200.939675 41.674557 
L 200.970111 41.674557 
L 201.274475 40.919445 
L 201.639711 40.164342 
L 201.670148 40.204082 
L 201.700584 40.124594 
L 201.913639 40.00537 
L 202.096257 40.084858 
L 202.522366 40.00537 
L 202.73542 39.8464 
L 202.765857 39.886149 
L 202.796293 39.806661 
L 202.948475 39.766925 
L 203.16153 39.886149 
L 203.252839 39.925885 
L 203.40502 40.084858 
L 203.49633 40.164342 
L 203.648511 40.283566 
L 203.861566 40.402803 
L 203.983311 40.402803 
L 204.196366 40.442539 
L 204.378984 40.641248 
L 204.74422 41.277127 
L 205.200766 42.191212 
L 205.261639 42.270684 
L 205.566002 42.827087 
L 208.122657 49.742267 
L 208.487893 51.133245 
L 208.670511 51.888357 
L 210.161893 58.167651 
L 210.496693 59.717608 
L 210.709748 60.552202 
L 211.622839 64.566183 
L 213.570766 75.256894 
L 213.996875 78.158084 
L 214.270802 80.105468 
L 215.731748 92.385873 
L 216.705711 101.447143 
L 217.192693 106.136744 
L 218.440584 118.536376 
L 220.662439 142.898474 
L 221.697275 155.019909 
L 222.306002 162.531225 
L 223.432148 177.037206 
L 224.314802 188.16508 
L 225.806184 206.96324 
L 229.093311 248.454314 
L 229.975966 257.51559 
L 230.61513 263.755142 
L 231.315166 269.160116 
L 233.263093 281.202063 
L 233.506584 282.0764 
L 233.810948 283.109696 
L 233.932693 283.427642 
L 234.145748 284.103256 
L 234.358802 284.739135 
L 234.419675 284.81862 
L 234.815348 285.176301 
L 234.96753 285.136565 
L 235.63713 285.096817 
L 235.88062 284.739135 
L 236.063239 284.341714 
L 236.458911 283.06996 
L 236.793711 281.877678 
L 237.31113 279.413655 
L 238.802511 268.961395 
L 240.841748 249.32865 
L 241.541784 240.943001 
L 242.394002 230.252296 
L 242.789675 224.966555 
L 244.068002 208.672164 
L 245.772439 184.985688 
L 246.807275 169.287435 
L 248.907384 138.089643 
L 251.28142 108.481546 
L 252.316257 98.824141 
L 253.71633 88.729568 
L 254.325057 85.430945 
L 254.477239 84.834812 
L 254.751166 83.563055 
L 255.085966 82.052843 
L 256.181675 78.158084 
L 256.30342 77.840148 
L 256.759966 76.926072 
L 256.790402 76.965818 
L 256.820839 76.846588 
L 257.277384 76.409418 
L 257.39913 76.329933 
L 257.64262 76.131224 
L 257.764366 76.131224 
L 258.099166 76.210709 
L 258.220911 76.210709 
L 258.890511 76.131224 
L 259.012257 76.131224 
L 259.347057 76.210709 
L 259.529675 76.290197 
L 260.138402 76.369675 
L 260.41233 76.568391 
L 260.442766 76.528648 
L 260.473202 76.608136 
L 261.781966 78.476023 
L 263.029857 82.013101 
L 265.09953 90.557719 
L 266.925711 100.652292 
L 268.812766 113.64806 
L 269.269311 116.867195 
L 269.634548 119.331225 
L 270.821566 127.796359 
L 272.921675 143.375383 
L 274.260875 151.40335 
L 275.691384 158.318529 
L 277.548002 165.193967 
L 277.639311 165.472164 
L 278.095857 166.942633 
L 278.582839 168.413101 
L 279.435057 170.36048 
L 279.617675 170.757903 
L 280.013348 171.51301 
L 281.930839 173.857812 
L 282.052584 173.937297 
L 282.356948 174.175751 
L 282.448257 174.255236 
L 282.691748 174.453948 
L 282.813493 174.453948 
L 283.239602 174.374463 
L 283.452657 174.255236 
L 283.878766 174.175751 
L 284.18313 173.937297 
L 284.213566 173.97704 
L 284.274439 173.897554 
L 284.335311 173.818069 
L 284.76142 173.341161 
L 284.791857 173.380903 
L 284.913602 173.301418 
L 285.948439 171.791207 
L 286.222366 171.234813 
L 286.252802 171.274555 
L 286.465857 170.837388 
L 286.952839 169.843829 
L 287.074584 169.565632 
L 287.348511 168.929753 
L 287.835493 167.89645 
L 287.926802 167.816966 
L 288.20073 167.340057 
L 288.261602 167.300315 
L 288.474657 166.90289 
L 289.326875 165.949073 
L 289.509493 165.90933 
L 289.600802 165.829845 
L 289.631239 165.869587 
L 289.905166 165.670875 
L 290.026911 165.670875 
L 290.148657 165.631133 
L 290.300839 165.710618 
L 290.331275 165.670875 
L 290.392148 165.75036 
L 290.513893 165.829845 
L 290.696511 166.028557 
L 291.670475 167.419542 
L 292.066148 168.532329 
L 293.040111 171.354041 
L 293.770584 173.778328 
L 294.105384 174.891115 
L 294.531493 176.560296 
L 296.509857 183.912642 
L 296.601166 184.151098 
L 297.209893 186.098473 
L 299.127384 190.827821 
L 299.766548 191.821382 
L 300.131784 192.536745 
L 300.25353 192.61623 
L 300.466584 192.735457 
L 300.557893 192.814942 
L 300.801384 192.973912 
L 300.862257 193.013654 
L 301.044875 193.212366 
L 301.440548 193.570048 
L 301.531857 193.570048 
L 301.623166 193.60979 
L 301.653602 193.570048 
L 302.323202 193.60979 
L 302.384075 193.689275 
L 302.444948 193.649533 
L 302.658002 193.76876 
L 303.388475 193.689275 
L 303.571093 193.60979 
L 303.966766 193.530305 
L 304.088511 193.450821 
L 304.210257 193.371336 
L 305.032039 192.139321 
L 305.27553 191.741897 
L 305.397275 191.662412 
L 307.132148 186.85358 
L 307.740875 184.190838 
L 307.984366 183.276765 
L 309.110511 177.95128 
L 309.53662 175.844932 
L 310.63233 169.565632 
L 311.454111 164.001694 
L 312.30633 157.762136 
L 312.97593 152.635365 
L 314.862984 139.599855 
L 315.928257 132.128281 
L 316.90222 126.484858 
L 317.32833 124.37851 
L 317.876184 121.795254 
L 318.91102 116.94668 
L 319.093639 116.191574 
L 321.376366 107.646956 
L 321.498111 107.329017 
L 323.415602 102.043276 
L 323.659093 101.248425 
L 323.780839 100.930488 
L 325.089602 97.790838 
L 325.850511 96.956251 
L 325.880948 96.995987 
L 325.911384 96.876763 
L 326.063566 96.797278 
L 326.246184 96.717793 
L 326.672293 96.797278 
L 326.824475 96.83702 
L 326.94622 96.916508 
L 327.159275 97.115217 
L 327.189711 97.035729 
L 327.250584 97.115217 
L 327.402766 97.194702 
L 328.62022 98.903625 
L 328.894148 99.539504 
L 329.04633 99.897186 
L 329.655057 101.844567 
L 329.898548 102.718897 
L 330.355093 104.547048 
L 331.237748 108.441804 
L 332.029093 112.018621 
L 332.576948 114.562135 
L 332.942184 116.231317 
L 337.355457 139.838309 
L 337.964184 143.097186 
L 341.038257 158.596727 
L 344.051457 169.963055 
L 344.142766 170.201511 
L 344.538439 171.314298 
L 345.481966 173.539873 
L 345.542839 173.619358 
L 345.78633 174.175751 
L 345.999384 174.612918 
L 346.942911 176.79875 
L 347.12553 177.156432 
L 347.399457 177.832053 
L 347.70382 178.388447 
L 347.916875 178.825613 
L 349.13433 180.256341 
L 349.225639 180.296084 
L 349.408257 180.494796 
L 349.560439 180.574279 
L 349.895239 180.852475 
L 349.925675 180.812735 
L 349.986548 180.892218 
L 350.230039 180.971704 
L 350.351784 181.130674 
L 350.38222 181.051187 
L 350.443093 181.170417 
L 350.564839 181.2499 
L 350.869202 181.528099 
L 350.930075 181.488356 
L 350.960511 181.567839 
L 351.508366 181.647325 
L 351.538802 181.687068 
L 351.599675 181.607582 
L 352.208402 181.528099 
L 352.451893 181.369129 
L 352.573639 181.289643 
L 352.81713 181.130674 
L 352.938875 181.051187 
L 353.15193 180.892218 
L 353.182366 180.931961 
L 353.212802 180.892218 
L 353.364984 180.733249 
L 353.517166 180.653766 
L 353.699784 180.455053 
L 353.82153 180.375567 
L 354.15633 180.097371 
L 354.278075 180.017885 
L 354.521566 179.858916 
L 354.704184 179.779431 
L 354.73462 179.699946 
L 354.795493 179.73969 
L 354.82593 179.779431 
L 354.856366 179.699946 
L 355.06942 179.540977 
L 355.191166 179.540977 
L 355.434657 179.501234 
L 355.556402 179.421749 
L 355.891202 179.342264 
L 356.012948 179.342264 
L 357.017348 179.302523 
L 357.047784 179.223038 
L 357.108657 179.302523 
L 357.565202 179.302523 
L 357.595639 179.421749 
L 357.686948 179.342264 
L 357.717384 179.421749 
L 357.808693 179.382007 
L 358.234802 179.302523 
L 358.386984 179.26278 
L 358.904402 179.183295 
L 359.117457 179.064067 
L 359.330511 178.984583 
L 359.482693 178.825613 
L 359.75662 178.746129 
L 359.908802 178.706386 
L 360.213166 178.626901 
L 360.304475 178.507674 
L 360.334911 178.547416 
L 360.365348 178.587159 
L 360.395784 178.507674 
L 360.76102 178.189734 
L 360.791457 178.189734 
L 360.913202 177.95128 
L 360.943639 177.991023 
L 361.065384 177.911539 
L 362.374148 176.083386 
L 362.52633 175.844932 
L 362.587202 175.765448 
L 362.922002 175.129569 
L 362.952439 175.169312 
L 362.982875 175.050084 
L 363.43942 174.136009 
L 363.743784 173.579615 
L 363.956839 173.182192 
L 364.352511 172.427085 
L 364.930802 171.51301 
L 365.174293 171.155328 
L 366.726548 169.287435 
L 366.848293 169.20795 
L 367.000475 169.009237 
L 367.12222 169.009237 
L 367.304839 168.770784 
L 367.426584 168.691299 
L 367.852693 168.293875 
L 368.096184 168.214389 
L 368.278802 168.095163 
L 368.400548 168.095163 
L 368.583166 167.89645 
L 368.704911 167.816966 
L 369.009275 167.538768 
L 369.039711 167.578511 
L 369.100584 167.499026 
L 369.252766 167.459284 
L 369.283202 167.379799 
L 369.374511 167.419542 
L 369.526693 167.340057 
L 369.861493 167.06186 
L 369.952802 166.982375 
L 370.409348 166.545209 
L 370.56153 166.505466 
L 370.774584 166.227269 
L 370.835457 166.187527 
L 371.048511 165.90933 
L 371.90073 164.955512 
L 372.022475 164.876027 
L 372.265966 164.518345 
L 374.213893 161.815862 
L 374.57913 161.140241 
L 374.792184 160.742817 
L 375.066111 160.106938 
L 375.218293 159.788999 
L 375.58353 158.795438 
L 375.705275 158.477499 
L 378.048875 152.078971 
L 378.474984 150.846956 
L 378.566293 150.568759 
L 379.26633 148.462411 
L 379.540257 147.548336 
L 380.057675 145.95864 
L 380.392475 144.726625 
L 380.666402 143.772807 
L 380.909893 142.898474 
L 381.214257 141.825429 
L 381.488184 140.871611 
L 381.914293 139.20243 
L 382.218657 138.129384 
L 382.61433 136.619174 
L 382.888257 135.625613 
L 382.918693 135.506385 
L 382.918693 135.506385 
" style="fill:none;stroke:#0000ff;stroke-linecap:square;stroke-width:1.5;"/>
   </g>
   <g id="line2d_24">
    <path clip-path="url(#p14e5915fcd)" d="M 78.555057 153.60349 
L 82.146548 153.504134 
L 82.329166 153.504134 
L 100.317057 153.60349 
L 100.499675 153.663104 
L 100.71273 153.76246 
L 101.808439 154.59705 
L 102.173675 155.073959 
L 102.782402 156.027777 
L 103.512875 157.637344 
L 103.817239 158.452064 
L 105.491239 164.294198 
L 110.148002 185.09935 
L 110.848039 187.205698 
L 111.243711 188.338357 
L 112.43073 190.444705 
L 112.704657 190.742773 
L 112.917711 190.881871 
L 113.10033 190.881871 
L 113.404693 190.782515 
L 114.074293 190.226121 
L 114.530839 189.471016 
L 115.565675 186.470463 
L 116.083093 184.463473 
L 118.304948 170.792083 
L 121.013784 148.695302 
L 125.274875 110.701558 
L 126.796693 101.481318 
L 129.231602 90.870091 
L 129.688148 89.737436 
L 130.022948 89.280398 
L 130.114257 89.181045 
L 130.357748 88.902842 
L 130.936039 88.326583 
L 131.788257 88.227221 
L 132.062184 87.929156 
L 132.336111 87.631088 
L 132.549166 87.531732 
L 132.701348 87.5516 
L 132.944839 87.650962 
L 133.18833 87.790061 
L 133.827493 87.889414 
L 134.19273 88.227221 
L 134.649275 88.882974 
L 134.740584 88.942584 
L 134.892766 89.022072 
L 135.136257 89.061815 
L 135.44062 89.161171 
L 135.714548 89.459239 
L 136.627639 90.472667 
L 137.084184 90.870091 
L 138.45382 93.751423 
L 139.245166 97.288497 
L 140.432184 103.210116 
L 143.080148 119.405145 
L 144.81502 133.195763 
L 147.676039 156.484815 
L 148.558693 164.035873 
L 150.293566 178.899534 
L 152.819784 197.876535 
L 154.737275 207.335229 
L 155.406875 209.521065 
L 156.259093 210.951792 
L 156.472148 211.210111 
L 156.776511 211.428698 
L 157.750475 211.329341 
L 158.724439 209.898615 
L 158.998366 209.381967 
L 160.763675 205.685919 
L 161.524584 203.400731 
L 162.863784 198.671384 
L 164.629093 190.087023 
L 166.66833 179.99245 
L 167.368366 176.813058 
L 167.733602 175.322718 
L 168.159711 174.090703 
L 168.981493 172.242681 
L 169.103239 172.06384 
L 169.34673 171.726029 
L 169.711966 171.42796 
L 169.955457 171.328606 
L 170.320693 171.209378 
L 170.655493 171.308734 
L 171.233784 172.242681 
L 171.629457 172.977916 
L 172.177311 174.269544 
L 173.090402 177.627777 
L 174.003493 181.641761 
L 175.920984 192.233113 
L 178.234148 208.030718 
L 179.208111 214.806806 
L 180.273384 220.410486 
L 182.251748 226.510946 
L 183.134402 228.001283 
L 183.347457 228.021151 
L 184.41273 226.4712 
L 185.264948 223.311675 
L 185.964984 219.118854 
L 186.695457 213.11775 
L 187.730293 202.665496 
L 188.582511 192.630537 
L 190.34782 168.169084 
L 194.548039 101.401833 
L 195.643748 86.538172 
L 198.504766 57.784534 
L 200.087457 46.239361 
L 200.939675 41.370925 
L 201.48753 39.085737 
L 202.522366 36.66145 
L 203.222402 36.323633 
L 204.135493 36.422992 
L 204.348548 36.681314 
L 204.957275 38.112041 
L 205.535566 40.357491 
L 206.905202 49.061079 
L 210.801057 77.834587 
L 220.14502 150.165771 
L 223.097348 168.725477 
L 224.040875 174.20993 
L 225.349639 182.039186 
L 226.293166 186.927503 
L 227.297566 191.597235 
L 228.454148 196.366324 
L 230.128148 201.473224 
L 233.567457 208.448017 
L 234.145748 209.958225 
L 234.602293 211.051145 
L 234.87622 211.726766 
L 235.271893 212.720326 
L 235.667566 213.654273 
L 236.489348 215.025382 
L 238.467711 217.429802 
L 238.89382 217.588774 
L 241.024366 217.688127 
L 241.32873 217.767615 
L 241.602657 217.847094 
L 241.785275 217.926582 
L 241.937457 217.946456 
L 242.24182 218.045809 
L 242.728802 218.244518 
L 242.880984 218.304138 
L 243.063602 218.423362 
L 244.433239 220.390611 
L 245.25502 222.23863 
L 245.894184 223.629614 
L 246.137675 224.126395 
L 246.715966 225.338538 
L 247.93342 227.484628 
L 248.93782 228.617293 
L 249.242184 228.696772 
L 249.394366 228.796134 
L 249.69873 228.895487 
L 249.911784 228.915355 
L 250.246584 228.816002 
L 251.129239 228.358964 
L 251.250984 228.259612 
L 251.585784 227.921798 
L 252.011893 227.186567 
L 252.498875 225.994291 
L 252.924984 224.603307 
L 253.929384 220.231645 
L 255.177275 213.137618 
L 255.755566 209.083895 
L 257.612184 192.451696 
L 259.864475 166.261448 
L 261.781966 139.812874 
L 265.312584 88.445804 
L 267.747493 58.10248 
L 269.147566 45.444522 
L 270.45633 37.595399 
L 271.065057 35.310211 
L 271.643348 34.098067 
L 272.404257 33.263467 
L 272.769493 33.342952 
L 273.743457 34.793556 
L 274.38262 36.721063 
L 275.995748 45.722719 
L 276.969711 52.776994 
L 277.974111 61.480582 
L 280.682948 89.081683 
L 282.143893 104.958782 
L 285.948439 145.953076 
L 289.966039 184.225017 
L 291.640039 197.498983 
L 294.166257 213.296591 
L 295.444584 217.90671 
L 295.840257 218.920139 
L 296.448984 220.549584 
L 297.81862 223.013613 
L 298.701275 223.470648 
L 298.944766 223.411038 
L 299.096948 223.391163 
L 299.553493 223.291807 
L 300.101348 222.834773 
L 300.862257 221.582887 
L 301.105748 221.086106 
L 301.470984 220.152157 
L 303.205857 214.151053 
L 304.088511 208.964665 
L 305.762511 196.147741 
L 307.101711 185.715359 
L 309.506184 167.751787 
L 311.149748 158.730261 
L 311.54542 156.74314 
L 315.776075 137.925108 
L 318.454475 129.559333 
L 322.045966 120.478191 
L 323.628657 117.159699 
L 324.02433 116.245624 
L 324.724366 114.715541 
L 325.059166 113.821337 
L 325.637457 111.993186 
L 327.889748 106.409377 
L 328.072366 106.011953 
L 328.498475 104.998518 
L 328.741966 104.521613 
L 329.198511 103.627408 
L 329.563748 102.971655 
L 330.05073 102.256292 
L 331.237748 100.885182 
L 331.450802 100.785829 
L 331.63342 100.726212 
L 331.937784 100.626856 
L 332.089966 100.626856 
L 332.272584 100.606988 
L 332.790002 100.825565 
L 332.97262 100.924928 
L 333.97702 101.680027 
L 335.590148 105.078006 
L 336.442366 107.601649 
L 336.868475 108.833664 
L 338.572911 114.775155 
L 340.520839 124.154362 
L 341.799166 131.804777 
L 342.316584 135.063655 
L 344.69062 151.278559 
L 345.421093 157.319405 
L 346.608111 167.155652 
L 349.13433 186.09291 
L 352.451893 207.037158 
L 353.243239 211.051145 
L 355.130293 218.006066 
L 356.012948 220.509838 
L 356.591239 221.404043 
L 357.139093 221.662371 
L 357.321711 221.662371 
L 357.686948 221.563009 
L 358.08262 221.185459 
L 359.117457 219.655377 
L 360.000111 216.436241 
L 361.887166 206.003858 
L 362.800257 199.982883 
L 364.413384 187.603122 
L 366.391748 171.22925 
L 367.730948 158.948844 
L 369.22233 145.436425 
L 370.591966 131.924005 
L 371.718111 121.29291 
L 372.57033 114.516829 
L 373.513857 107.422809 
L 374.974802 97.666047 
L 377.440148 86.875979 
L 377.866257 85.465127 
L 378.383675 84.133756 
L 379.235893 82.703029 
L 380.331602 82.106893 
L 380.84902 82.206249 
L 381.549057 82.782514 
L 381.94473 83.319037 
L 382.340402 84.014526 
L 382.918693 85.186933 
L 382.918693 85.186933 
" style="fill:none;stroke:#ff0000;stroke-linecap:square;stroke-width:1.5;"/>
   </g>
   <g id="line2d_25">
    <path clip-path="url(#p14e5915fcd)" d="M 123.935675 162.133801 
" style="fill:none;stroke:#ffffff;stroke-linecap:square;stroke-width:1.5;"/>
    <defs>
     <path d="M 0 -5 
L -1.12257 -1.545085 
L -4.755283 -1.545085 
L -1.816356 0.59017 
L -2.938926 4.045085 
L -0 1.90983 
L 2.938926 4.045085 
L 1.816356 0.59017 
L 4.755283 -1.545085 
L 1.12257 -1.545085 
z
" id="mae23f8f074" style="stroke:#ffffff;stroke-linejoin:bevel;"/>
    </defs>
    <g clip-path="url(#p14e5915fcd)">
     <use style="fill:#0000ff;stroke:#ffffff;stroke-linejoin:bevel;" x="123.935675" xlink:href="#mae23f8f074" y="162.133801"/>
    </g>
   </g>
   <g id="line2d_26">
    <path clip-path="url(#p14e5915fcd)" d="M 104.212911 159.644336 
" style="fill:none;stroke:#ffffff;stroke-linecap:square;stroke-width:1.5;"/>
    <defs>
     <path d="M 0 -5 
L -1.12257 -1.545085 
L -4.755283 -1.545085 
L -1.816356 0.59017 
L -2.938926 4.045085 
L -0 1.90983 
L 2.938926 4.045085 
L 1.816356 0.59017 
L 4.755283 -1.545085 
L 1.12257 -1.545085 
z
" id="m108b828394" style="stroke:#ffffff;stroke-linejoin:bevel;"/>
    </defs>
    <g clip-path="url(#p14e5915fcd)">
     <use style="fill:#ff0000;stroke:#ffffff;stroke-linejoin:bevel;" x="104.212911" xlink:href="#m108b828394" y="159.644336"/>
    </g>
   </g>
   <g id="patch_3">
    <path d="M 63.336875 339.84 
L 63.336875 7.2 
" style="fill:none;stroke:#000000;stroke-linecap:square;stroke-linejoin:miter;stroke-width:0.8;"/>
   </g>
   <g id="patch_4">
    <path d="M 398.136875 339.84 
L 398.136875 7.2 
" style="fill:none;stroke:#000000;stroke-linecap:square;stroke-linejoin:miter;stroke-width:0.8;"/>
   </g>
   <g id="patch_5">
    <path d="M 63.336875 339.84 
L 398.136875 339.84 
" style="fill:none;stroke:#000000;stroke-linecap:square;stroke-linejoin:miter;stroke-width:0.8;"/>
   </g>
   <g id="patch_6">
    <path d="M 63.336875 7.2 
L 398.136875 7.2 
" style="fill:none;stroke:#000000;stroke-linecap:square;stroke-linejoin:miter;stroke-width:0.8;"/>
   </g>
   <g id="text_14">
    <g id="patch_7">
     <path d="M 75.036875 331.242688 
L 166.79375 331.242688 
L 166.79375 293.760312 
L 75.036875 293.760312 
z
" style="fill:#ffffff;stroke:#000000;stroke-linejoin:miter;stroke-width:0.75;"/>
    </g>
    <!-- Auto_00132 -->
    <g transform="translate(80.076875 308.521562)scale(0.14 -0.14)">
     <defs>
      <path d="M 2928 1419 
L 1288 1419 
L 1000 750 
Q 894 503 894 381 
Q 894 284 986 211 
Q 1078 138 1384 116 
L 1384 0 
L 50 0 
L 50 116 
Q 316 163 394 238 
Q 553 388 747 847 
L 2238 4334 
L 2347 4334 
L 3822 809 
Q 4000 384 4145 257 
Q 4291 131 4550 116 
L 4550 0 
L 2878 0 
L 2878 116 
Q 3131 128 3220 200 
Q 3309 272 3309 375 
Q 3309 513 3184 809 
L 2928 1419 
z
M 2841 1650 
L 2122 3363 
L 1384 1650 
L 2841 1650 
z
" id="TimesNewRomanPSMT-41" transform="scale(0.015625)"/>
      <path d="M 2709 2863 
L 2709 1128 
Q 2709 631 2732 520 
Q 2756 409 2807 365 
Q 2859 322 2928 322 
Q 3025 322 3147 375 
L 3191 266 
L 2334 -88 
L 2194 -88 
L 2194 519 
Q 1825 119 1631 15 
Q 1438 -88 1222 -88 
Q 981 -88 804 51 
Q 628 191 559 409 
Q 491 628 491 1028 
L 491 2306 
Q 491 2509 447 2587 
Q 403 2666 317 2708 
Q 231 2750 6 2747 
L 6 2863 
L 1009 2863 
L 1009 947 
Q 1009 547 1148 422 
Q 1288 297 1484 297 
Q 1619 297 1789 381 
Q 1959 466 2194 703 
L 2194 2325 
Q 2194 2569 2105 2655 
Q 2016 2741 1734 2747 
L 1734 2863 
L 2709 2863 
z
" id="TimesNewRomanPSMT-75" transform="scale(0.015625)"/>
      <path d="M 3256 -1381 
L -53 -1381 
L -53 -1119 
L 3256 -1119 
L 3256 -1381 
z
" id="TimesNewRomanPSMT-5f" transform="scale(0.015625)"/>
     </defs>
     <use xlink:href="#TimesNewRomanPSMT-41"/>
     <use x="72.216797" xlink:href="#TimesNewRomanPSMT-75"/>
     <use x="122.216797" xlink:href="#TimesNewRomanPSMT-74"/>
     <use x="150" xlink:href="#TimesNewRomanPSMT-6f"/>
     <use x="200" xlink:href="#TimesNewRomanPSMT-5f"/>
     <use x="250" xlink:href="#TimesNewRomanPSMT-30"/>
     <use x="300" xlink:href="#TimesNewRomanPSMT-30"/>
     <use x="350" xlink:href="#TimesNewRomanPSMT-31"/>
     <use x="400" xlink:href="#TimesNewRomanPSMT-33"/>
     <use x="450" xlink:href="#TimesNewRomanPSMT-32"/>
    </g>
    <!-- Vs: 308.46m/s -->
    <g transform="translate(80.076875 323.208)scale(0.14 -0.14)">
     <defs>
      <path d="M 903 2950 
Q 1047 2950 1148 2848 
Q 1250 2747 1250 2603 
Q 1250 2459 1148 2357 
Q 1047 2256 903 2256 
Q 759 2256 657 2357 
Q 556 2459 556 2603 
Q 556 2747 657 2848 
Q 759 2950 903 2950 
z
M 897 609 
Q 1044 609 1145 506 
Q 1247 403 1247 259 
Q 1247 116 1144 14 
Q 1041 -88 897 -88 
Q 753 -88 651 14 
Q 550 116 550 259 
Q 550 403 651 506 
Q 753 609 897 609 
z
" id="TimesNewRomanPSMT-3a" transform="scale(0.015625)"/>
      <path d="M 1228 2134 
Q 725 2547 579 2797 
Q 434 3047 434 3316 
Q 434 3728 753 4026 
Q 1072 4325 1600 4325 
Q 2113 4325 2425 4047 
Q 2738 3769 2738 3413 
Q 2738 3175 2569 2928 
Q 2400 2681 1866 2347 
Q 2416 1922 2594 1678 
Q 2831 1359 2831 1006 
Q 2831 559 2490 242 
Q 2150 -75 1597 -75 
Q 994 -75 656 303 
Q 388 606 388 966 
Q 388 1247 577 1523 
Q 766 1800 1228 2134 
z
M 1719 2469 
Q 2094 2806 2194 3001 
Q 2294 3197 2294 3444 
Q 2294 3772 2109 3958 
Q 1925 4144 1606 4144 
Q 1288 4144 1088 3959 
Q 888 3775 888 3528 
Q 888 3366 970 3203 
Q 1053 3041 1206 2894 
L 1719 2469 
z
M 1375 2016 
Q 1116 1797 991 1539 
Q 866 1281 866 981 
Q 866 578 1086 336 
Q 1306 94 1647 94 
Q 1984 94 2187 284 
Q 2391 475 2391 747 
Q 2391 972 2272 1150 
Q 2050 1481 1375 2016 
z
" id="TimesNewRomanPSMT-38" transform="scale(0.015625)"/>
      <path d="M 2869 4325 
L 2869 4209 
Q 2456 4169 2195 4045 
Q 1934 3922 1679 3669 
Q 1425 3416 1258 3105 
Q 1091 2794 978 2366 
Q 1428 2675 1881 2675 
Q 2316 2675 2634 2325 
Q 2953 1975 2953 1425 
Q 2953 894 2631 456 
Q 2244 -75 1606 -75 
Q 1172 -75 869 213 
Q 275 772 275 1663 
Q 275 2231 503 2743 
Q 731 3256 1154 3653 
Q 1578 4050 1965 4187 
Q 2353 4325 2688 4325 
L 2869 4325 
z
M 925 2138 
Q 869 1716 869 1456 
Q 869 1156 980 804 
Q 1091 453 1309 247 
Q 1469 100 1697 100 
Q 1969 100 2183 356 
Q 2397 613 2397 1088 
Q 2397 1622 2184 2012 
Q 1972 2403 1581 2403 
Q 1463 2403 1327 2353 
Q 1191 2303 925 2138 
z
" id="TimesNewRomanPSMT-36" transform="scale(0.015625)"/>
      <path d="M 1794 4444 
L 259 -88 
L 9 -88 
L 1544 4444 
L 1794 4444 
z
" id="TimesNewRomanPSMT-2f" transform="scale(0.015625)"/>
     </defs>
     <use xlink:href="#TimesNewRomanPSMT-56"/>
     <use x="72.216797" xlink:href="#TimesNewRomanPSMT-73"/>
     <use x="111.132812" xlink:href="#TimesNewRomanPSMT-3a"/>
     <use x="138.916016" xlink:href="#TimesNewRomanPSMT-20"/>
     <use x="163.916016" xlink:href="#TimesNewRomanPSMT-33"/>
     <use x="213.916016" xlink:href="#TimesNewRomanPSMT-30"/>
     <use x="263.916016" xlink:href="#TimesNewRomanPSMT-38"/>
     <use x="313.916016" xlink:href="#TimesNewRomanPSMT-2e"/>
     <use x="338.916016" xlink:href="#TimesNewRomanPSMT-34"/>
     <use x="388.916016" xlink:href="#TimesNewRomanPSMT-36"/>
     <use x="438.916016" xlink:href="#TimesNewRomanPSMT-6d"/>
     <use x="516.699219" xlink:href="#TimesNewRomanPSMT-2f"/>
     <use x="544.482422" xlink:href="#TimesNewRomanPSMT-73"/>
    </g>
   </g>
  </g>
 </g>
 <defs>
  <clipPath id="p14e5915fcd">
   <rect height="332.64" width="334.8" x="63.336875" y="7.2"/>
  </clipPath>
 </defs>
</svg>
