<?xml version="1.0" encoding="utf-8" standalone="no"?>
<!DOCTYPE svg PUBLIC "-//W3C//DTD SVG 1.1//EN"
  "http://www.w3.org/Graphics/SVG/1.1/DTD/svg11.dtd">
<svg height="383.471875pt" version="1.1" viewBox="0 0 421.086875 383.471875" width="421.086875pt" xmlns="http://www.w3.org/2000/svg" xmlns:xlink="http://www.w3.org/1999/xlink">
 <metadata>
  <rdf:RDF xmlns:cc="http://creativecommons.org/ns#" xmlns:dc="http://purl.org/dc/elements/1.1/" xmlns:rdf="http://www.w3.org/1999/02/22-rdf-syntax-ns#">
   <cc:Work>
    <dc:type rdf:resource="http://purl.org/dc/dcmitype/StillImage"/>
    <dc:date>2021-06-11T14:39:39.061729</dc:date>
    <dc:format>image/svg+xml</dc:format>
    <dc:creator>
     <cc:Agent>
      <dc:title>Matplotlib v3.4.2, https://matplotlib.org/</dc:title>
     </cc:Agent>
    </dc:creator>
   </cc:Work>
  </rdf:RDF>
 </metadata>
 <defs>
  <style type="text/css">*{stroke-linecap:butt;stroke-linejoin:round;}</style>
 </defs>
 <g id="figure_1">
  <g id="patch_1">
   <path d="M 0 383.471875 
L 421.086875 383.471875 
L 421.086875 0 
L 0 0 
z
" style="fill:#ffffff;"/>
  </g>
  <g id="axes_1">
   <g id="patch_2">
    <path d="M 63.336875 339.84 
L 398.136875 339.84 
L 398.136875 7.2 
L 63.336875 7.2 
z
" style="fill:#ffffff;"/>
   </g>
   <g id="matplotlib.axis_1">
    <g id="xtick_1">
     <g id="line2d_1">
      <path clip-path="url(#p3b2d394bba)" d="M 93.773239 339.84 
L 93.773239 7.2 
" style="fill:none;stroke:#000000;stroke-dasharray:0.5,0.825;stroke-dashoffset:0;stroke-width:0.5;"/>
     </g>
     <g id="line2d_2">
      <defs>
       <path d="M 0 0 
L 0 3.5 
" id="ma3613b6469" style="stroke:#000000;stroke-width:0.8;"/>
      </defs>
      <g>
       <use style="stroke:#000000;stroke-width:0.8;" x="93.773239" xlink:href="#ma3613b6469" y="339.84"/>
      </g>
     </g>
     <g id="text_1">
      <!-- 0.000 -->
      <g transform="translate(78.023239 356.56125)scale(0.14 -0.14)">
       <defs>
        <path d="M 231 2094 
Q 231 2819 450 3342 
Q 669 3866 1031 4122 
Q 1313 4325 1613 4325 
Q 2100 4325 2488 3828 
Q 2972 3213 2972 2159 
Q 2972 1422 2759 906 
Q 2547 391 2217 158 
Q 1888 -75 1581 -75 
Q 975 -75 572 641 
Q 231 1244 231 2094 
z
M 844 2016 
Q 844 1141 1059 588 
Q 1238 122 1591 122 
Q 1759 122 1940 273 
Q 2122 425 2216 781 
Q 2359 1319 2359 2297 
Q 2359 3022 2209 3506 
Q 2097 3866 1919 4016 
Q 1791 4119 1609 4119 
Q 1397 4119 1231 3928 
Q 1006 3669 925 3112 
Q 844 2556 844 2016 
z
" id="TimesNewRomanPSMT-30" transform="scale(0.015625)"/>
        <path d="M 800 606 
Q 947 606 1047 504 
Q 1147 403 1147 259 
Q 1147 116 1045 14 
Q 944 -88 800 -88 
Q 656 -88 554 14 
Q 453 116 453 259 
Q 453 406 554 506 
Q 656 606 800 606 
z
" id="TimesNewRomanPSMT-2e" transform="scale(0.015625)"/>
       </defs>
       <use xlink:href="#TimesNewRomanPSMT-30"/>
       <use x="50" xlink:href="#TimesNewRomanPSMT-2e"/>
       <use x="75" xlink:href="#TimesNewRomanPSMT-30"/>
       <use x="125" xlink:href="#TimesNewRomanPSMT-30"/>
       <use x="175" xlink:href="#TimesNewRomanPSMT-30"/>
      </g>
     </g>
    </g>
    <g id="xtick_2">
     <g id="line2d_3">
      <path clip-path="url(#p3b2d394bba)" d="M 154.645966 339.84 
L 154.645966 7.2 
" style="fill:none;stroke:#000000;stroke-dasharray:0.5,0.825;stroke-dashoffset:0;stroke-width:0.5;"/>
     </g>
     <g id="line2d_4">
      <g>
       <use style="stroke:#000000;stroke-width:0.8;" x="154.645966" xlink:href="#ma3613b6469" y="339.84"/>
      </g>
     </g>
     <g id="text_2">
      <!-- 0.001 -->
      <g transform="translate(138.895966 356.56125)scale(0.14 -0.14)">
       <defs>
        <path d="M 750 3822 
L 1781 4325 
L 1884 4325 
L 1884 747 
Q 1884 391 1914 303 
Q 1944 216 2037 169 
Q 2131 122 2419 116 
L 2419 0 
L 825 0 
L 825 116 
Q 1125 122 1212 167 
Q 1300 213 1334 289 
Q 1369 366 1369 747 
L 1369 3034 
Q 1369 3497 1338 3628 
Q 1316 3728 1258 3775 
Q 1200 3822 1119 3822 
Q 1003 3822 797 3725 
L 750 3822 
z
" id="TimesNewRomanPSMT-31" transform="scale(0.015625)"/>
       </defs>
       <use xlink:href="#TimesNewRomanPSMT-30"/>
       <use x="50" xlink:href="#TimesNewRomanPSMT-2e"/>
       <use x="75" xlink:href="#TimesNewRomanPSMT-30"/>
       <use x="125" xlink:href="#TimesNewRomanPSMT-30"/>
       <use x="175" xlink:href="#TimesNewRomanPSMT-31"/>
      </g>
     </g>
    </g>
    <g id="xtick_3">
     <g id="line2d_5">
      <path clip-path="url(#p3b2d394bba)" d="M 215.518693 339.84 
L 215.518693 7.2 
" style="fill:none;stroke:#000000;stroke-dasharray:0.5,0.825;stroke-dashoffset:0;stroke-width:0.5;"/>
     </g>
     <g id="line2d_6">
      <g>
       <use style="stroke:#000000;stroke-width:0.8;" x="215.518693" xlink:href="#ma3613b6469" y="339.84"/>
      </g>
     </g>
     <g id="text_3">
      <!-- 0.002 -->
      <g transform="translate(199.768693 356.56125)scale(0.14 -0.14)">
       <defs>
        <path d="M 2934 816 
L 2638 0 
L 138 0 
L 138 116 
Q 1241 1122 1691 1759 
Q 2141 2397 2141 2925 
Q 2141 3328 1894 3587 
Q 1647 3847 1303 3847 
Q 991 3847 742 3664 
Q 494 3481 375 3128 
L 259 3128 
Q 338 3706 661 4015 
Q 984 4325 1469 4325 
Q 1984 4325 2329 3994 
Q 2675 3663 2675 3213 
Q 2675 2891 2525 2569 
Q 2294 2063 1775 1497 
Q 997 647 803 472 
L 1909 472 
Q 2247 472 2383 497 
Q 2519 522 2628 598 
Q 2738 675 2819 816 
L 2934 816 
z
" id="TimesNewRomanPSMT-32" transform="scale(0.015625)"/>
       </defs>
       <use xlink:href="#TimesNewRomanPSMT-30"/>
       <use x="50" xlink:href="#TimesNewRomanPSMT-2e"/>
       <use x="75" xlink:href="#TimesNewRomanPSMT-30"/>
       <use x="125" xlink:href="#TimesNewRomanPSMT-30"/>
       <use x="175" xlink:href="#TimesNewRomanPSMT-32"/>
      </g>
     </g>
    </g>
    <g id="xtick_4">
     <g id="line2d_7">
      <path clip-path="url(#p3b2d394bba)" d="M 276.39142 339.84 
L 276.39142 7.2 
" style="fill:none;stroke:#000000;stroke-dasharray:0.5,0.825;stroke-dashoffset:0;stroke-width:0.5;"/>
     </g>
     <g id="line2d_8">
      <g>
       <use style="stroke:#000000;stroke-width:0.8;" x="276.39142" xlink:href="#ma3613b6469" y="339.84"/>
      </g>
     </g>
     <g id="text_4">
      <!-- 0.003 -->
      <g transform="translate(260.64142 356.56125)scale(0.14 -0.14)">
       <defs>
        <path d="M 325 3431 
Q 506 3859 782 4092 
Q 1059 4325 1472 4325 
Q 1981 4325 2253 3994 
Q 2459 3747 2459 3466 
Q 2459 3003 1878 2509 
Q 2269 2356 2469 2072 
Q 2669 1788 2669 1403 
Q 2669 853 2319 450 
Q 1863 -75 997 -75 
Q 569 -75 414 31 
Q 259 138 259 259 
Q 259 350 332 419 
Q 406 488 509 488 
Q 588 488 669 463 
Q 722 447 909 348 
Q 1097 250 1169 231 
Q 1284 197 1416 197 
Q 1734 197 1970 444 
Q 2206 691 2206 1028 
Q 2206 1275 2097 1509 
Q 2016 1684 1919 1775 
Q 1784 1900 1550 2001 
Q 1316 2103 1072 2103 
L 972 2103 
L 972 2197 
Q 1219 2228 1467 2375 
Q 1716 2522 1828 2728 
Q 1941 2934 1941 3181 
Q 1941 3503 1739 3701 
Q 1538 3900 1238 3900 
Q 753 3900 428 3381 
L 325 3431 
z
" id="TimesNewRomanPSMT-33" transform="scale(0.015625)"/>
       </defs>
       <use xlink:href="#TimesNewRomanPSMT-30"/>
       <use x="50" xlink:href="#TimesNewRomanPSMT-2e"/>
       <use x="75" xlink:href="#TimesNewRomanPSMT-30"/>
       <use x="125" xlink:href="#TimesNewRomanPSMT-30"/>
       <use x="175" xlink:href="#TimesNewRomanPSMT-33"/>
      </g>
     </g>
    </g>
    <g id="xtick_5">
     <g id="line2d_9">
      <path clip-path="url(#p3b2d394bba)" d="M 337.264148 339.84 
L 337.264148 7.2 
" style="fill:none;stroke:#000000;stroke-dasharray:0.5,0.825;stroke-dashoffset:0;stroke-width:0.5;"/>
     </g>
     <g id="line2d_10">
      <g>
       <use style="stroke:#000000;stroke-width:0.8;" x="337.264148" xlink:href="#ma3613b6469" y="339.84"/>
      </g>
     </g>
     <g id="text_5">
      <!-- 0.004 -->
      <g transform="translate(321.514148 356.56125)scale(0.14 -0.14)">
       <defs>
        <path d="M 2978 1563 
L 2978 1119 
L 2409 1119 
L 2409 0 
L 1894 0 
L 1894 1119 
L 100 1119 
L 100 1519 
L 2066 4325 
L 2409 4325 
L 2409 1563 
L 2978 1563 
z
M 1894 1563 
L 1894 3666 
L 406 1563 
L 1894 1563 
z
" id="TimesNewRomanPSMT-34" transform="scale(0.015625)"/>
       </defs>
       <use xlink:href="#TimesNewRomanPSMT-30"/>
       <use x="50" xlink:href="#TimesNewRomanPSMT-2e"/>
       <use x="75" xlink:href="#TimesNewRomanPSMT-30"/>
       <use x="125" xlink:href="#TimesNewRomanPSMT-30"/>
       <use x="175" xlink:href="#TimesNewRomanPSMT-34"/>
      </g>
     </g>
    </g>
    <g id="xtick_6">
     <g id="line2d_11">
      <path clip-path="url(#p3b2d394bba)" d="M 398.136875 339.84 
L 398.136875 7.2 
" style="fill:none;stroke:#000000;stroke-dasharray:0.5,0.825;stroke-dashoffset:0;stroke-width:0.5;"/>
     </g>
     <g id="line2d_12">
      <g>
       <use style="stroke:#000000;stroke-width:0.8;" x="398.136875" xlink:href="#ma3613b6469" y="339.84"/>
      </g>
     </g>
     <g id="text_6">
      <!-- 0.005 -->
      <g transform="translate(382.386875 356.56125)scale(0.14 -0.14)">
       <defs>
        <path d="M 2778 4238 
L 2534 3706 
L 1259 3706 
L 981 3138 
Q 1809 3016 2294 2522 
Q 2709 2097 2709 1522 
Q 2709 1188 2573 903 
Q 2438 619 2231 419 
Q 2025 219 1772 97 
Q 1413 -75 1034 -75 
Q 653 -75 479 54 
Q 306 184 306 341 
Q 306 428 378 495 
Q 450 563 559 563 
Q 641 563 702 538 
Q 763 513 909 409 
Q 1144 247 1384 247 
Q 1750 247 2026 523 
Q 2303 800 2303 1197 
Q 2303 1581 2056 1914 
Q 1809 2247 1375 2428 
Q 1034 2569 447 2591 
L 1259 4238 
L 2778 4238 
z
" id="TimesNewRomanPSMT-35" transform="scale(0.015625)"/>
       </defs>
       <use xlink:href="#TimesNewRomanPSMT-30"/>
       <use x="50" xlink:href="#TimesNewRomanPSMT-2e"/>
       <use x="75" xlink:href="#TimesNewRomanPSMT-30"/>
       <use x="125" xlink:href="#TimesNewRomanPSMT-30"/>
       <use x="175" xlink:href="#TimesNewRomanPSMT-35"/>
      </g>
     </g>
    </g>
    <g id="text_7">
     <!-- Time (sec) -->
     <g transform="translate(200.858906 373.277188)scale(0.14 -0.14)">
      <defs>
       <path d="M 3703 4238 
L 3750 3244 
L 3631 3244 
Q 3597 3506 3538 3619 
Q 3441 3800 3280 3886 
Q 3119 3972 2856 3972 
L 2259 3972 
L 2259 734 
Q 2259 344 2344 247 
Q 2463 116 2709 116 
L 2856 116 
L 2856 0 
L 1059 0 
L 1059 116 
L 1209 116 
Q 1478 116 1591 278 
Q 1659 378 1659 734 
L 1659 3972 
L 1150 3972 
Q 853 3972 728 3928 
Q 566 3869 450 3700 
Q 334 3531 313 3244 
L 194 3244 
L 244 4238 
L 3703 4238 
z
" id="TimesNewRomanPSMT-54" transform="scale(0.015625)"/>
       <path d="M 928 4444 
Q 1059 4444 1151 4351 
Q 1244 4259 1244 4128 
Q 1244 3997 1151 3903 
Q 1059 3809 928 3809 
Q 797 3809 703 3903 
Q 609 3997 609 4128 
Q 609 4259 701 4351 
Q 794 4444 928 4444 
z
M 1188 2947 
L 1188 647 
Q 1188 378 1227 289 
Q 1266 200 1342 156 
Q 1419 113 1622 113 
L 1622 0 
L 231 0 
L 231 113 
Q 441 113 512 153 
Q 584 194 626 287 
Q 669 381 669 647 
L 669 1750 
Q 669 2216 641 2353 
Q 619 2453 572 2492 
Q 525 2531 444 2531 
Q 356 2531 231 2484 
L 188 2597 
L 1050 2947 
L 1188 2947 
z
" id="TimesNewRomanPSMT-69" transform="scale(0.015625)"/>
       <path d="M 1050 2338 
Q 1363 2650 1419 2697 
Q 1559 2816 1721 2881 
Q 1884 2947 2044 2947 
Q 2313 2947 2506 2790 
Q 2700 2634 2766 2338 
Q 3088 2713 3309 2830 
Q 3531 2947 3766 2947 
Q 3994 2947 4170 2830 
Q 4347 2713 4450 2447 
Q 4519 2266 4519 1878 
L 4519 647 
Q 4519 378 4559 278 
Q 4591 209 4675 161 
Q 4759 113 4950 113 
L 4950 0 
L 3538 0 
L 3538 113 
L 3597 113 
Q 3781 113 3884 184 
Q 3956 234 3988 344 
Q 4000 397 4000 647 
L 4000 1878 
Q 4000 2228 3916 2372 
Q 3794 2572 3525 2572 
Q 3359 2572 3192 2489 
Q 3025 2406 2788 2181 
L 2781 2147 
L 2788 2013 
L 2788 647 
Q 2788 353 2820 281 
Q 2853 209 2943 161 
Q 3034 113 3253 113 
L 3253 0 
L 1806 0 
L 1806 113 
Q 2044 113 2133 169 
Q 2222 225 2256 338 
Q 2272 391 2272 647 
L 2272 1878 
Q 2272 2228 2169 2381 
Q 2031 2581 1784 2581 
Q 1616 2581 1450 2491 
Q 1191 2353 1050 2181 
L 1050 647 
Q 1050 366 1089 281 
Q 1128 197 1204 155 
Q 1281 113 1516 113 
L 1516 0 
L 100 0 
L 100 113 
Q 297 113 375 155 
Q 453 197 493 289 
Q 534 381 534 647 
L 534 1741 
Q 534 2213 506 2350 
Q 484 2453 437 2492 
Q 391 2531 309 2531 
Q 222 2531 100 2484 
L 53 2597 
L 916 2947 
L 1050 2947 
L 1050 2338 
z
" id="TimesNewRomanPSMT-6d" transform="scale(0.015625)"/>
       <path d="M 681 1784 
Q 678 1147 991 784 
Q 1303 422 1725 422 
Q 2006 422 2214 576 
Q 2422 731 2563 1106 
L 2659 1044 
Q 2594 616 2278 264 
Q 1963 -88 1488 -88 
Q 972 -88 605 314 
Q 238 716 238 1394 
Q 238 2128 614 2539 
Q 991 2950 1559 2950 
Q 2041 2950 2350 2633 
Q 2659 2316 2659 1784 
L 681 1784 
z
M 681 1966 
L 2006 1966 
Q 1991 2241 1941 2353 
Q 1863 2528 1708 2628 
Q 1553 2728 1384 2728 
Q 1125 2728 920 2526 
Q 716 2325 681 1966 
z
" id="TimesNewRomanPSMT-65" transform="scale(0.015625)"/>
       <path id="TimesNewRomanPSMT-20" transform="scale(0.015625)"/>
       <path d="M 1988 -1253 
L 1988 -1369 
Q 1516 -1131 1200 -813 
Q 750 -359 506 256 
Q 263 872 263 1534 
Q 263 2503 741 3301 
Q 1219 4100 1988 4444 
L 1988 4313 
Q 1603 4100 1356 3731 
Q 1109 3363 987 2797 
Q 866 2231 866 1616 
Q 866 947 969 400 
Q 1050 -31 1165 -292 
Q 1281 -553 1476 -793 
Q 1672 -1034 1988 -1253 
z
" id="TimesNewRomanPSMT-28" transform="scale(0.015625)"/>
       <path d="M 2050 2947 
L 2050 1972 
L 1947 1972 
Q 1828 2431 1642 2597 
Q 1456 2763 1169 2763 
Q 950 2763 815 2647 
Q 681 2531 681 2391 
Q 681 2216 781 2091 
Q 878 1963 1175 1819 
L 1631 1597 
Q 2266 1288 2266 781 
Q 2266 391 1970 151 
Q 1675 -88 1309 -88 
Q 1047 -88 709 6 
Q 606 38 541 38 
Q 469 38 428 -44 
L 325 -44 
L 325 978 
L 428 978 
Q 516 541 762 319 
Q 1009 97 1316 97 
Q 1531 97 1667 223 
Q 1803 350 1803 528 
Q 1803 744 1651 891 
Q 1500 1038 1047 1263 
Q 594 1488 453 1669 
Q 313 1847 313 2119 
Q 313 2472 555 2709 
Q 797 2947 1181 2947 
Q 1350 2947 1591 2875 
Q 1750 2828 1803 2828 
Q 1853 2828 1881 2850 
Q 1909 2872 1947 2947 
L 2050 2947 
z
" id="TimesNewRomanPSMT-73" transform="scale(0.015625)"/>
       <path d="M 2631 1088 
Q 2516 522 2178 217 
Q 1841 -88 1431 -88 
Q 944 -88 581 321 
Q 219 731 219 1428 
Q 219 2103 620 2525 
Q 1022 2947 1584 2947 
Q 2006 2947 2278 2723 
Q 2550 2500 2550 2259 
Q 2550 2141 2473 2067 
Q 2397 1994 2259 1994 
Q 2075 1994 1981 2113 
Q 1928 2178 1911 2362 
Q 1894 2547 1784 2644 
Q 1675 2738 1481 2738 
Q 1169 2738 978 2506 
Q 725 2200 725 1697 
Q 725 1184 976 792 
Q 1228 400 1656 400 
Q 1963 400 2206 609 
Q 2378 753 2541 1131 
L 2631 1088 
z
" id="TimesNewRomanPSMT-63" transform="scale(0.015625)"/>
       <path d="M 144 4313 
L 144 4444 
Q 619 4209 934 3891 
Q 1381 3434 1625 2820 
Q 1869 2206 1869 1541 
Q 1869 572 1392 -226 
Q 916 -1025 144 -1369 
L 144 -1253 
Q 528 -1038 776 -670 
Q 1025 -303 1145 264 
Q 1266 831 1266 1447 
Q 1266 2113 1163 2663 
Q 1084 3094 967 3353 
Q 850 3613 656 3853 
Q 463 4094 144 4313 
z
" id="TimesNewRomanPSMT-29" transform="scale(0.015625)"/>
      </defs>
      <use xlink:href="#TimesNewRomanPSMT-54"/>
      <use x="57.583984" xlink:href="#TimesNewRomanPSMT-69"/>
      <use x="85.367188" xlink:href="#TimesNewRomanPSMT-6d"/>
      <use x="163.150391" xlink:href="#TimesNewRomanPSMT-65"/>
      <use x="207.535156" xlink:href="#TimesNewRomanPSMT-20"/>
      <use x="232.535156" xlink:href="#TimesNewRomanPSMT-28"/>
      <use x="265.835938" xlink:href="#TimesNewRomanPSMT-73"/>
      <use x="304.751953" xlink:href="#TimesNewRomanPSMT-65"/>
      <use x="349.136719" xlink:href="#TimesNewRomanPSMT-63"/>
      <use x="393.521484" xlink:href="#TimesNewRomanPSMT-29"/>
     </g>
    </g>
   </g>
   <g id="matplotlib.axis_2">
    <g id="ytick_1">
     <g id="line2d_13">
      <path clip-path="url(#p3b2d394bba)" d="M 63.336875 327.664944 
L 398.136875 327.664944 
" style="fill:none;stroke:#000000;stroke-dasharray:0.5,0.825;stroke-dashoffset:0;stroke-width:0.5;"/>
     </g>
     <g id="line2d_14">
      <defs>
       <path d="M 0 0 
L -3.5 0 
" id="m1402c7b90c" style="stroke:#000000;stroke-width:0.8;"/>
      </defs>
      <g>
       <use style="stroke:#000000;stroke-width:0.8;" x="63.336875" xlink:href="#m1402c7b90c" y="327.664944"/>
      </g>
     </g>
     <g id="text_8">
      <!-- −0.06 -->
      <g transform="translate(23.942188 332.525569)scale(0.14 -0.14)">
       <defs>
        <path d="M 3484 2000 
L 116 2000 
L 116 2256 
L 3484 2256 
L 3484 2000 
z
" id="TimesNewRomanPSMT-2212" transform="scale(0.015625)"/>
        <path d="M 2869 4325 
L 2869 4209 
Q 2456 4169 2195 4045 
Q 1934 3922 1679 3669 
Q 1425 3416 1258 3105 
Q 1091 2794 978 2366 
Q 1428 2675 1881 2675 
Q 2316 2675 2634 2325 
Q 2953 1975 2953 1425 
Q 2953 894 2631 456 
Q 2244 -75 1606 -75 
Q 1172 -75 869 213 
Q 275 772 275 1663 
Q 275 2231 503 2743 
Q 731 3256 1154 3653 
Q 1578 4050 1965 4187 
Q 2353 4325 2688 4325 
L 2869 4325 
z
M 925 2138 
Q 869 1716 869 1456 
Q 869 1156 980 804 
Q 1091 453 1309 247 
Q 1469 100 1697 100 
Q 1969 100 2183 356 
Q 2397 613 2397 1088 
Q 2397 1622 2184 2012 
Q 1972 2403 1581 2403 
Q 1463 2403 1327 2353 
Q 1191 2303 925 2138 
z
" id="TimesNewRomanPSMT-36" transform="scale(0.015625)"/>
       </defs>
       <use xlink:href="#TimesNewRomanPSMT-2212"/>
       <use x="56.396484" xlink:href="#TimesNewRomanPSMT-30"/>
       <use x="106.396484" xlink:href="#TimesNewRomanPSMT-2e"/>
       <use x="131.396484" xlink:href="#TimesNewRomanPSMT-30"/>
       <use x="181.396484" xlink:href="#TimesNewRomanPSMT-36"/>
      </g>
     </g>
    </g>
    <g id="ytick_2">
     <g id="line2d_15">
      <path clip-path="url(#p3b2d394bba)" d="M 63.336875 269.906851 
L 398.136875 269.906851 
" style="fill:none;stroke:#000000;stroke-dasharray:0.5,0.825;stroke-dashoffset:0;stroke-width:0.5;"/>
     </g>
     <g id="line2d_16">
      <g>
       <use style="stroke:#000000;stroke-width:0.8;" x="63.336875" xlink:href="#m1402c7b90c" y="269.906851"/>
      </g>
     </g>
     <g id="text_9">
      <!-- −0.04 -->
      <g transform="translate(23.942188 274.767476)scale(0.14 -0.14)">
       <use xlink:href="#TimesNewRomanPSMT-2212"/>
       <use x="56.396484" xlink:href="#TimesNewRomanPSMT-30"/>
       <use x="106.396484" xlink:href="#TimesNewRomanPSMT-2e"/>
       <use x="131.396484" xlink:href="#TimesNewRomanPSMT-30"/>
       <use x="181.396484" xlink:href="#TimesNewRomanPSMT-34"/>
      </g>
     </g>
    </g>
    <g id="ytick_3">
     <g id="line2d_17">
      <path clip-path="url(#p3b2d394bba)" d="M 63.336875 212.148759 
L 398.136875 212.148759 
" style="fill:none;stroke:#000000;stroke-dasharray:0.5,0.825;stroke-dashoffset:0;stroke-width:0.5;"/>
     </g>
     <g id="line2d_18">
      <g>
       <use style="stroke:#000000;stroke-width:0.8;" x="63.336875" xlink:href="#m1402c7b90c" y="212.148759"/>
      </g>
     </g>
     <g id="text_10">
      <!-- −0.02 -->
      <g transform="translate(23.942188 217.009384)scale(0.14 -0.14)">
       <use xlink:href="#TimesNewRomanPSMT-2212"/>
       <use x="56.396484" xlink:href="#TimesNewRomanPSMT-30"/>
       <use x="106.396484" xlink:href="#TimesNewRomanPSMT-2e"/>
       <use x="131.396484" xlink:href="#TimesNewRomanPSMT-30"/>
       <use x="181.396484" xlink:href="#TimesNewRomanPSMT-32"/>
      </g>
     </g>
    </g>
    <g id="ytick_4">
     <g id="line2d_19">
      <path clip-path="url(#p3b2d394bba)" d="M 63.336875 154.390667 
L 398.136875 154.390667 
" style="fill:none;stroke:#000000;stroke-dasharray:0.5,0.825;stroke-dashoffset:0;stroke-width:0.5;"/>
     </g>
     <g id="line2d_20">
      <g>
       <use style="stroke:#000000;stroke-width:0.8;" x="63.336875" xlink:href="#m1402c7b90c" y="154.390667"/>
      </g>
     </g>
     <g id="text_11">
      <!-- 0.00 -->
      <g transform="translate(31.836875 159.251292)scale(0.14 -0.14)">
       <use xlink:href="#TimesNewRomanPSMT-30"/>
       <use x="50" xlink:href="#TimesNewRomanPSMT-2e"/>
       <use x="75" xlink:href="#TimesNewRomanPSMT-30"/>
       <use x="125" xlink:href="#TimesNewRomanPSMT-30"/>
      </g>
     </g>
    </g>
    <g id="ytick_5">
     <g id="line2d_21">
      <path clip-path="url(#p3b2d394bba)" d="M 63.336875 96.632575 
L 398.136875 96.632575 
" style="fill:none;stroke:#000000;stroke-dasharray:0.5,0.825;stroke-dashoffset:0;stroke-width:0.5;"/>
     </g>
     <g id="line2d_22">
      <g>
       <use style="stroke:#000000;stroke-width:0.8;" x="63.336875" xlink:href="#m1402c7b90c" y="96.632575"/>
      </g>
     </g>
     <g id="text_12">
      <!-- 0.02 -->
      <g transform="translate(31.836875 101.4932)scale(0.14 -0.14)">
       <use xlink:href="#TimesNewRomanPSMT-30"/>
       <use x="50" xlink:href="#TimesNewRomanPSMT-2e"/>
       <use x="75" xlink:href="#TimesNewRomanPSMT-30"/>
       <use x="125" xlink:href="#TimesNewRomanPSMT-32"/>
      </g>
     </g>
    </g>
    <g id="ytick_6">
     <g id="line2d_23">
      <path clip-path="url(#p3b2d394bba)" d="M 63.336875 38.874483 
L 398.136875 38.874483 
" style="fill:none;stroke:#000000;stroke-dasharray:0.5,0.825;stroke-dashoffset:0;stroke-width:0.5;"/>
     </g>
     <g id="line2d_24">
      <g>
       <use style="stroke:#000000;stroke-width:0.8;" x="63.336875" xlink:href="#m1402c7b90c" y="38.874483"/>
      </g>
     </g>
     <g id="text_13">
      <!-- 0.04 -->
      <g transform="translate(31.836875 43.735108)scale(0.14 -0.14)">
       <use xlink:href="#TimesNewRomanPSMT-30"/>
       <use x="50" xlink:href="#TimesNewRomanPSMT-2e"/>
       <use x="75" xlink:href="#TimesNewRomanPSMT-30"/>
       <use x="125" xlink:href="#TimesNewRomanPSMT-34"/>
      </g>
     </g>
    </g>
    <g id="text_14">
     <!-- Volatage (V) -->
     <g transform="translate(16.92125 209.352344)rotate(-90)scale(0.14 -0.14)">
      <defs>
       <path d="M 4544 4238 
L 4544 4122 
Q 4319 4081 4203 3978 
Q 4038 3825 3909 3509 
L 2431 -97 
L 2316 -97 
L 728 3556 
Q 606 3838 556 3900 
Q 478 3997 364 4051 
Q 250 4106 56 4122 
L 56 4238 
L 1788 4238 
L 1788 4122 
Q 1494 4094 1406 4022 
Q 1319 3950 1319 3838 
Q 1319 3681 1463 3350 
L 2541 866 
L 3541 3319 
Q 3688 3681 3688 3822 
Q 3688 3913 3597 3995 
Q 3506 4078 3291 4113 
Q 3275 4116 3238 4122 
L 3238 4238 
L 4544 4238 
z
" id="TimesNewRomanPSMT-56" transform="scale(0.015625)"/>
       <path d="M 1600 2947 
Q 2250 2947 2644 2453 
Q 2978 2031 2978 1484 
Q 2978 1100 2793 706 
Q 2609 313 2286 112 
Q 1963 -88 1566 -88 
Q 919 -88 538 428 
Q 216 863 216 1403 
Q 216 1797 411 2186 
Q 606 2575 925 2761 
Q 1244 2947 1600 2947 
z
M 1503 2744 
Q 1338 2744 1170 2645 
Q 1003 2547 900 2300 
Q 797 2053 797 1666 
Q 797 1041 1045 587 
Q 1294 134 1700 134 
Q 2003 134 2200 384 
Q 2397 634 2397 1244 
Q 2397 2006 2069 2444 
Q 1847 2744 1503 2744 
z
" id="TimesNewRomanPSMT-6f" transform="scale(0.015625)"/>
       <path d="M 1184 4444 
L 1184 647 
Q 1184 378 1223 290 
Q 1263 203 1344 158 
Q 1425 113 1647 113 
L 1647 0 
L 244 0 
L 244 113 
Q 441 113 512 153 
Q 584 194 625 287 
Q 666 381 666 647 
L 666 3247 
Q 666 3731 644 3842 
Q 622 3953 573 3993 
Q 525 4034 450 4034 
Q 369 4034 244 3984 
L 191 4094 
L 1044 4444 
L 1184 4444 
z
" id="TimesNewRomanPSMT-6c" transform="scale(0.015625)"/>
       <path d="M 1822 413 
Q 1381 72 1269 19 
Q 1100 -59 909 -59 
Q 613 -59 420 144 
Q 228 347 228 678 
Q 228 888 322 1041 
Q 450 1253 767 1440 
Q 1084 1628 1822 1897 
L 1822 2009 
Q 1822 2438 1686 2597 
Q 1550 2756 1291 2756 
Q 1094 2756 978 2650 
Q 859 2544 859 2406 
L 866 2225 
Q 866 2081 792 2003 
Q 719 1925 600 1925 
Q 484 1925 411 2006 
Q 338 2088 338 2228 
Q 338 2497 613 2722 
Q 888 2947 1384 2947 
Q 1766 2947 2009 2819 
Q 2194 2722 2281 2516 
Q 2338 2381 2338 1966 
L 2338 994 
Q 2338 584 2353 492 
Q 2369 400 2405 369 
Q 2441 338 2488 338 
Q 2538 338 2575 359 
Q 2641 400 2828 588 
L 2828 413 
Q 2478 -56 2159 -56 
Q 2006 -56 1915 50 
Q 1825 156 1822 413 
z
M 1822 616 
L 1822 1706 
Q 1350 1519 1213 1441 
Q 966 1303 859 1153 
Q 753 1003 753 825 
Q 753 600 887 451 
Q 1022 303 1197 303 
Q 1434 303 1822 616 
z
" id="TimesNewRomanPSMT-61" transform="scale(0.015625)"/>
       <path d="M 1031 3803 
L 1031 2863 
L 1700 2863 
L 1700 2644 
L 1031 2644 
L 1031 788 
Q 1031 509 1111 412 
Q 1191 316 1316 316 
Q 1419 316 1516 380 
Q 1613 444 1666 569 
L 1788 569 
Q 1678 263 1478 108 
Q 1278 -47 1066 -47 
Q 922 -47 784 33 
Q 647 113 581 261 
Q 516 409 516 719 
L 516 2644 
L 63 2644 
L 63 2747 
Q 234 2816 414 2980 
Q 594 3144 734 3369 
Q 806 3488 934 3803 
L 1031 3803 
z
" id="TimesNewRomanPSMT-74" transform="scale(0.015625)"/>
       <path d="M 966 1044 
Q 703 1172 562 1401 
Q 422 1631 422 1909 
Q 422 2334 742 2640 
Q 1063 2947 1563 2947 
Q 1972 2947 2272 2747 
L 2878 2747 
Q 3013 2747 3034 2739 
Q 3056 2731 3066 2713 
Q 3084 2684 3084 2613 
Q 3084 2531 3069 2500 
Q 3059 2484 3036 2475 
Q 3013 2466 2878 2466 
L 2506 2466 
Q 2681 2241 2681 1891 
Q 2681 1491 2375 1206 
Q 2069 922 1553 922 
Q 1341 922 1119 984 
Q 981 866 932 777 
Q 884 688 884 625 
Q 884 572 936 522 
Q 988 472 1138 450 
Q 1225 438 1575 428 
Q 2219 413 2409 384 
Q 2700 344 2873 169 
Q 3047 -6 3047 -263 
Q 3047 -616 2716 -925 
Q 2228 -1381 1444 -1381 
Q 841 -1381 425 -1109 
Q 191 -953 191 -784 
Q 191 -709 225 -634 
Q 278 -519 444 -313 
Q 466 -284 763 25 
Q 600 122 533 198 
Q 466 275 466 372 
Q 466 481 555 628 
Q 644 775 966 1044 
z
M 1509 2797 
Q 1278 2797 1122 2612 
Q 966 2428 966 2047 
Q 966 1553 1178 1281 
Q 1341 1075 1591 1075 
Q 1828 1075 1981 1253 
Q 2134 1431 2134 1813 
Q 2134 2309 1919 2591 
Q 1759 2797 1509 2797 
z
M 934 0 
Q 788 -159 713 -296 
Q 638 -434 638 -550 
Q 638 -700 819 -813 
Q 1131 -1006 1722 -1006 
Q 2284 -1006 2551 -807 
Q 2819 -609 2819 -384 
Q 2819 -222 2659 -153 
Q 2497 -84 2016 -72 
Q 1313 -53 934 0 
z
" id="TimesNewRomanPSMT-67" transform="scale(0.015625)"/>
      </defs>
      <use xlink:href="#TimesNewRomanPSMT-56"/>
      <use x="59.341797" xlink:href="#TimesNewRomanPSMT-6f"/>
      <use x="109.341797" xlink:href="#TimesNewRomanPSMT-6c"/>
      <use x="137.125" xlink:href="#TimesNewRomanPSMT-61"/>
      <use x="181.509766" xlink:href="#TimesNewRomanPSMT-74"/>
      <use x="209.292969" xlink:href="#TimesNewRomanPSMT-61"/>
      <use x="253.677734" xlink:href="#TimesNewRomanPSMT-67"/>
      <use x="303.677734" xlink:href="#TimesNewRomanPSMT-65"/>
      <use x="348.0625" xlink:href="#TimesNewRomanPSMT-20"/>
      <use x="373.0625" xlink:href="#TimesNewRomanPSMT-28"/>
      <use x="406.363281" xlink:href="#TimesNewRomanPSMT-56"/>
      <use x="478.580078" xlink:href="#TimesNewRomanPSMT-29"/>
     </g>
    </g>
   </g>
   <g id="LineCollection_1">
    <path clip-path="url(#p3b2d394bba)" d="M 78.555057 154.390667 
L 382.918693 154.390667 
" style="fill:none;stroke:#1f77b4;stroke-width:1.5;"/>
   </g>
   <g id="line2d_25">
    <path clip-path="url(#p3b2d394bba)" d="M 78.555057 154.36973 
L 91.886184 154.478026 
L 92.00793 154.478026 
L 92.129675 154.478026 
L 98.125639 154.36973 
L 98.27782 154.333631 
L 98.430002 154.36973 
L 100.225748 154.261433 
L 100.256184 154.225335 
L 100.28662 154.333631 
L 100.317057 154.297532 
L 109.782766 154.405829 
L 109.874075 154.478026 
L 109.904511 154.405829 
L 111.213275 154.478026 
L 111.33502 154.514125 
L 111.365457 154.441927 
L 111.42633 154.478026 
L 111.517639 154.550224 
L 111.548075 154.478026 
L 111.943748 154.586323 
L 111.974184 154.622422 
L 112.035057 154.550224 
L 112.856839 154.622422 
L 112.978584 154.694619 
L 113.830802 154.802916 
L 113.922111 154.802916 
L 114.043857 154.802916 
L 114.622148 154.911212 
L 114.77433 154.947311 
L 115.200439 155.055607 
L 115.322184 155.091706 
L 115.44393 155.091706 
L 116.052657 155.200002 
L 116.204839 155.308299 
L 116.235275 155.2722 
L 116.874439 155.344398 
L 116.996184 155.416595 
L 117.45273 155.524892 
L 117.574475 155.560991 
L 118.36582 155.669287 
L 118.487566 155.741485 
L 118.518002 155.669287 
L 118.578875 155.741485 
L 119.400657 155.849781 
L 119.522402 155.88588 
L 119.613711 155.88588 
L 119.765893 155.921979 
L 120.37462 156.030275 
L 120.526802 156.138571 
L 120.557239 156.102473 
L 120.861602 156.210769 
L 121.105093 156.355164 
L 121.348584 156.463461 
L 121.652948 156.680054 
L 121.80513 156.78835 
L 122.018184 157.041042 
L 122.170366 157.149338 
L 123.38782 158.737686 
L 123.72262 159.279168 
L 123.996548 159.748452 
L 124.270475 160.326033 
L 124.422657 160.614824 
L 124.696584 161.228503 
L 124.81833 161.517294 
L 125.670548 163.791518 
L 127.953275 172.274738 
L 128.379384 174.151877 
L 128.83593 176.173409 
L 129.992511 181.155044 
L 130.662111 183.934654 
L 131.301275 186.46157 
L 131.51433 187.219645 
L 131.910002 188.663597 
L 131.970875 188.844091 
L 132.42742 190.071451 
L 133.036148 191.29881 
L 133.09702 191.371008 
L 133.340511 191.695897 
L 133.52313 191.804193 
L 133.76662 191.948589 
L 134.10142 192.056885 
L 134.19273 192.129083 
L 134.223166 192.056885 
L 134.284039 192.129083 
L 135.044948 192.056885 
L 135.227566 191.876391 
L 135.379748 191.804193 
L 135.623239 191.479304 
L 135.927602 190.973921 
L 136.597202 188.988486 
L 136.749384 188.374807 
L 137.358111 185.811791 
L 138.301639 180.830155 
L 139.275602 174.404569 
L 140.066948 167.978981 
L 143.688875 128.198095 
L 148.710875 64.122714 
L 149.50222 55.603392 
L 149.958766 51.018847 
L 150.84142 43.654681 
L 151.724075 38.167668 
L 153.002402 32.608455 
L 153.702439 31.200604 
L 153.94593 31.056206 
L 154.341602 31.1645 
L 154.493784 31.308898 
L 154.61553 31.417188 
L 155.437311 33.619216 
L 156.563457 39.395025 
L 158.20702 53.870652 
L 159.394039 69.140448 
L 162.346366 119.931467 
L 164.720402 170.036613 
L 166.24222 203.500207 
L 169.042366 261.041703 
L 170.198948 280.571158 
L 170.898984 291.075914 
L 172.390366 309.125321 
L 173.668693 318.835897 
L 174.27742 321.832101 
L 174.886148 323.600934 
L 175.129639 324.034128 
L 175.434002 324.503416 
L 175.464439 324.467311 
L 175.494875 324.539509 
L 175.647057 324.683907 
L 175.981857 324.575602 
L 176.316657 324.034128 
L 177.351493 321.326721 
L 177.686293 319.738367 
L 178.873311 312.08542 
L 181.003857 290.859316 
L 182.038693 277.286173 
L 182.830039 265.517956 
L 183.621384 252.522391 
L 184.41273 238.660446 
L 189.982584 141.482456 
L 190.804366 128.270291 
L 191.473966 118.198725 
L 194.061057 85.854193 
L 194.943711 77.551467 
L 197.37862 58.238599 
L 199.265675 49.755383 
L 199.356984 49.502691 
L 199.752657 48.311436 
L 200.574439 45.784522 
L 200.970111 45.098636 
L 201.122293 44.773747 
L 201.15273 44.809852 
L 201.335348 44.30446 
L 201.609275 43.835184 
L 201.791893 43.654681 
L 201.913639 43.654681 
L 202.583239 43.546391 
L 202.765857 43.438097 
L 202.857166 43.438097 
L 202.948475 43.438097 
L 203.131093 43.510295 
L 203.16153 43.47419 
L 203.191966 43.510295 
L 203.344148 43.654681 
L 203.49633 43.762986 
L 203.800693 43.97957 
L 204.044184 44.087876 
L 204.348548 44.37666 
L 204.378984 44.30446 
L 204.40942 44.448858 
L 204.50073 44.557163 
L 204.713784 44.954241 
L 205.018148 45.640124 
L 206.205166 48.708514 
L 206.783457 50.369065 
L 207.118257 51.379829 
L 207.666111 53.509656 
L 207.909602 54.339937 
L 208.640075 57.336129 
L 209.218366 60.115749 
L 209.705348 62.245576 
L 211.896766 72.136646 
L 212.475057 74.555269 
L 213.266402 78.634432 
L 213.631639 80.331073 
L 214.45342 84.735133 
L 214.940402 87.406442 
L 216.614402 97.983392 
L 217.405748 102.820636 
L 218.318839 108.849136 
L 218.775384 111.737038 
L 222.032075 135.670547 
L 226.50622 179.169611 
L 232.441311 248.334923 
L 232.776111 252.01701 
L 233.62833 260.825116 
L 234.906657 271.90745 
L 235.63713 277.069574 
L 236.367602 280.787757 
L 237.31113 283.747853 
L 237.493748 283.928347 
L 237.767675 284.03665 
L 237.919857 284.072743 
L 238.254657 284.181036 
L 238.376402 284.217141 
L 238.528584 284.072743 
L 238.619893 284.000545 
L 239.076439 283.170275 
L 239.167748 282.953677 
L 239.441675 282.376099 
L 239.89822 281.076542 
L 240.750439 276.564194 
L 242.24182 265.15697 
L 244.311493 244.472354 
L 245.985493 223.318449 
L 246.898584 209.997989 
L 251.068366 147.366561 
L 252.924984 124.552115 
L 254.264184 111.339951 
L 256.607784 95.384278 
L 256.759966 94.770599 
L 257.186075 93.254449 
L 257.825239 91.377314 
L 257.886111 91.269014 
L 258.31222 90.510936 
L 258.373093 90.438745 
L 258.920948 89.391876 
L 260.199275 88.020122 
L 260.442766 87.911828 
L 260.594948 87.839627 
L 260.74713 87.875729 
L 261.66022 87.98402 
L 262.268948 88.561607 
L 262.390693 88.6699 
L 263.182039 89.752864 
L 263.516839 90.294346 
L 263.790766 90.763634 
L 264.156002 91.377314 
L 264.247311 91.485604 
L 264.460366 91.882694 
L 265.190839 93.362742 
L 265.43433 93.759832 
L 265.67782 94.265218 
L 265.830002 94.590107 
L 266.316984 95.925757 
L 267.169202 98.199985 
L 270.45633 110.256984 
L 271.004184 112.856101 
L 271.947711 117.837737 
L 273.256475 124.9853 
L 273.530402 126.357055 
L 274.108693 129.136664 
L 274.230439 129.642048 
L 275.600075 135.634449 
L 276.543602 139.352626 
L 276.847966 140.507787 
L 277.456693 142.890309 
L 279.708984 150.543256 
L 279.83073 150.832047 
L 280.287275 152.059406 
L 282.052584 155.994176 
L 282.235202 156.355164 
L 282.691748 157.185437 
L 283.51353 158.051808 
L 283.543966 158.015709 
L 283.574402 158.087907 
L 283.878766 158.340599 
L 283.909202 158.3045 
L 283.970075 158.376698 
L 285.278839 158.268401 
L 286.344111 156.860548 
L 286.618039 156.282967 
L 288.961639 150.543256 
L 289.174693 149.929576 
L 289.235566 149.857379 
L 289.509493 149.243699 
L 289.661675 148.954909 
L 289.996475 148.124636 
L 290.179093 147.763648 
L 290.483457 147.258265 
L 290.574766 147.186067 
L 290.78782 146.933376 
L 291.518293 146.211399 
L 291.640039 146.247498 
L 291.944402 146.355794 
L 292.12702 146.50019 
L 292.157457 146.464091 
L 292.46182 146.536289 
L 292.644439 146.716782 
L 292.766184 146.825079 
L 292.948802 147.149968 
L 293.009675 147.222166 
L 293.435784 147.980241 
L 293.679275 148.377328 
L 293.983639 149.063205 
L 294.47062 150.471059 
L 295.779384 155.524892 
L 296.14462 157.329832 
L 297.362075 163.611025 
L 300.131784 180.68576 
L 301.075311 186.605965 
L 305.245093 210.68387 
L 306.036439 213.932762 
L 306.94953 216.820667 
L 307.101711 217.109457 
L 307.345202 217.578745 
L 307.680002 218.120224 
L 308.136548 218.950497 
L 308.28873 219.058793 
L 308.471348 219.239284 
L 308.897457 219.347584 
L 309.019202 219.419781 
L 309.62793 219.311485 
L 310.327966 218.336817 
L 311.21062 215.990397 
L 312.97593 207.110085 
L 313.341166 204.871965 
L 313.493348 204.00559 
L 314.132511 199.565437 
L 314.528184 196.605335 
L 320.858948 144.911843 
L 321.072002 143.46789 
L 321.437239 140.977072 
L 322.319893 135.092966 
L 322.746002 132.349456 
L 322.898184 131.446986 
L 324.298257 122.27789 
L 326.398366 110.437484 
L 326.885348 108.307649 
L 327.920184 103.903597 
L 329.62462 98.236084 
L 330.446402 96.539437 
L 330.537711 96.431144 
L 330.842075 95.961859 
L 330.933384 95.853566 
L 331.207311 95.456476 
L 332.881311 93.579338 
L 332.911748 93.61544 
L 332.97262 93.543239 
L 333.216111 93.398841 
L 333.794402 93.50714 
L 333.97702 93.579338 
L 334.220511 93.687631 
L 335.864075 95.745266 
L 336.046693 96.034057 
L 336.259748 96.395045 
L 336.533675 96.972626 
L 336.777166 97.405814 
L 337.111966 98.199985 
L 337.842439 100.18542 
L 338.146802 101.123989 
L 339.75993 107.260789 
L 340.09473 108.596439 
L 340.642584 110.726271 
L 340.794766 111.267754 
L 341.190439 112.964398 
L 341.76873 115.383018 
L 342.255711 117.621144 
L 342.68182 119.534381 
L 346.608111 138.63065 
L 347.247275 142.384926 
L 348.769093 150.759849 
L 350.625711 160.073341 
L 351.173566 162.672456 
L 351.843166 165.452064 
L 352.360584 167.4014 
L 353.48673 171.01128 
L 354.125893 172.780122 
L 354.673748 174.368469 
L 354.765057 174.585062 
L 355.008548 175.307038 
L 355.130293 175.595829 
L 355.708584 177.256374 
L 356.16513 178.59203 
L 356.439057 179.386202 
L 357.108657 181.371638 
L 357.473893 182.454602 
L 357.778257 183.393171 
L 358.265239 184.728828 
L 358.995711 186.714261 
L 359.360948 187.616732 
L 361.491493 192.417873 
L 363.013311 194.078418 
L 363.317675 194.186715 
L 363.561166 194.33111 
L 363.895966 194.439406 
L 364.017711 194.475505 
L 364.169893 194.511604 
L 364.717748 194.583802 
L 364.839493 194.655999 
L 365.265602 194.728197 
L 365.387348 194.764296 
L 368.674475 194.655999 
L 368.826657 194.511604 
L 368.857093 194.583802 
L 369.55713 194.475505 
L 369.678875 194.475505 
L 369.861493 194.403307 
L 369.952802 194.33111 
L 369.983239 194.367209 
L 370.104984 194.258912 
L 370.287602 194.186715 
L 370.531093 194.078418 
L 370.683275 194.006221 
L 370.713711 194.042319 
L 370.774584 193.970122 
L 371.018075 193.789628 
L 371.048511 193.825727 
L 371.109384 193.753529 
L 371.535493 193.392541 
L 371.56593 193.42864 
L 371.626802 193.356442 
L 371.778984 193.212047 
L 371.80942 193.284244 
L 371.961602 193.175948 
L 372.205093 193.031553 
L 372.418148 192.923256 
L 372.692075 192.706664 
L 372.722511 192.742762 
L 372.783384 192.670565 
L 373.087748 192.453972 
L 373.118184 192.490071 
L 373.179057 192.417873 
L 373.392111 192.237379 
L 373.422548 192.273478 
L 373.544293 192.165181 
L 374.213893 191.515403 
L 374.24433 191.515403 
L 374.396511 191.262711 
L 375.096548 190.288043 
L 375.674839 189.16898 
L 375.91833 188.735795 
L 378.59673 182.129712 
L 379.753311 178.411535 
L 379.996802 177.581264 
L 380.970766 173.71869 
L 382.918693 164.910581 
L 382.918693 164.910581 
" style="fill:none;stroke:#0000ff;stroke-linecap:square;stroke-width:1.5;"/>
   </g>
   <g id="line2d_26">
    <path clip-path="url(#p3b2d394bba)" d="M 78.555057 154.40554 
L 87.594657 154.513836 
L 87.838148 154.531886 
L 88.020766 154.531886 
L 88.264257 154.549935 
L 93.773239 154.640182 
L 93.92542 154.69433 
L 94.168911 154.676281 
L 100.164875 154.784577 
L 100.347493 154.838726 
L 100.71273 154.947022 
L 102.021493 155.849492 
L 103.025893 157.185148 
L 103.695493 158.502754 
L 104.030293 159.278879 
L 104.456402 160.397942 
L 105.673857 164.350761 
L 106.678257 168.30358 
L 107.560911 171.967609 
L 110.361057 183.12214 
L 110.848039 184.548043 
L 111.639384 186.551528 
L 112.156802 187.526196 
L 112.43073 188.01353 
L 112.856839 188.555012 
L 113.43513 188.789654 
L 113.709057 188.753555 
L 114.043857 188.645259 
L 114.43953 188.284271 
L 114.804766 187.70669 
L 116.11353 184.367551 
L 117.513602 178.086357 
L 119.522402 165.523973 
L 123.296511 135.580011 
L 125.518366 118.017942 
L 126.096657 114.335863 
L 127.557602 106.321925 
L 129.262039 98.759231 
L 129.688148 97.459671 
L 130.50993 95.781079 
L 131.17953 94.806411 
L 132.214366 93.416602 
L 132.51873 92.965366 
L 133.218766 92.676576 
L 133.43182 92.568285 
L 133.705748 92.405841 
L 134.010111 92.351687 
L 134.801457 92.712678 
L 135.318875 92.532184 
L 135.684111 92.640477 
L 136.231966 93.127811 
L 136.566766 93.218064 
L 136.749384 93.23611 
L 137.236366 93.633197 
L 137.601602 94.228825 
L 138.575566 96.17816 
L 140.401748 104.228197 
L 142.47142 115.870063 
L 143.354075 122.349799 
L 147.980402 161.67945 
L 151.206657 191.244373 
L 153.428511 208.770344 
L 154.432911 214.600302 
L 155.61993 219.744379 
L 156.53302 222.108851 
L 156.837384 222.560091 
L 157.111311 222.848882 
L 158.024402 223.282062 
L 158.450511 222.903027 
L 158.998366 222.144949 
L 159.576657 221.296633 
L 160.88542 217.939441 
L 162.102875 213.210497 
L 162.833348 209.708913 
L 164.598657 198.572431 
L 165.724802 190.522397 
L 167.00313 180.829868 
L 168.159711 172.725685 
L 169.498911 165.433726 
L 170.838111 160.307695 
L 170.990293 159.964756 
L 172.26862 157.871025 
L 173.181711 157.979322 
L 173.638257 158.376409 
L 174.003493 158.972039 
L 175.03833 161.029671 
L 177.138439 170.216817 
L 178.660257 179.909349 
L 179.816839 187.345702 
L 181.06473 194.096179 
L 181.582148 197.056281 
L 182.860475 203.969203 
L 183.469202 206.622465 
L 183.712693 207.45274 
L 184.504039 209.907457 
L 185.356257 211.207014 
L 185.782366 211.333359 
L 186.238911 210.936273 
L 187.42593 207.885923 
L 188.521639 202.886236 
L 189.34342 197.904603 
L 189.891275 194.042031 
L 190.895675 184.800736 
L 193.147966 161.011622 
L 195.643748 132.710157 
L 196.769893 120.978044 
L 198.38302 104.932124 
L 201.761457 73.88715 
L 203.435457 63.671193 
L 204.713784 58.111968 
L 205.383384 56.794367 
L 205.687748 56.722169 
L 206.022548 57.047059 
L 206.479093 57.750985 
L 207.392184 59.573975 
L 208.974875 64.609756 
L 211.166293 75.529642 
L 212.140257 81.97328 
L 213.570766 92.026797 
L 214.270802 96.936238 
L 216.188293 111.357712 
L 217.405748 121.230736 
L 218.927566 132.836503 
L 219.840657 139.532831 
L 222.366875 155.289961 
L 223.858257 163.46634 
L 224.558293 167.310864 
L 225.288766 171.37198 
L 226.50622 177.292184 
L 229.884657 190.865336 
L 230.341202 192.200991 
L 231.041239 194.294722 
L 231.649966 195.991366 
L 232.86742 199.926136 
L 233.780511 202.976488 
L 236.21542 211.279214 
L 236.458911 211.874842 
L 236.763275 212.687065 
L 237.98073 215.304225 
L 238.65033 216.278893 
L 239.046002 216.585736 
L 239.289493 216.694035 
L 239.685166 216.820381 
L 239.837348 216.838428 
L 240.202584 216.928672 
L 240.689566 217.036971 
L 241.054802 217.127218 
L 243.33753 217.235514 
L 244.159311 217.849194 
L 245.376766 219.455588 
L 246.046366 220.448311 
L 246.198548 220.664901 
L 252.468439 231.620889 
L 253.564148 232.144322 
L 254.62942 232.054078 
L 255.72513 230.592073 
L 256.029493 229.833998 
L 256.486039 228.49834 
L 258.342657 220.321965 
L 259.194875 214.6364 
L 260.594948 202.128163 
L 261.964584 186.352985 
L 263.273348 167.834296 
L 265.799566 127.187039 
L 269.238875 69.952377 
L 270.425893 53.978657 
L 271.643348 40.838694 
L 272.647748 32.319373 
L 273.46953 27.26554 
L 274.017384 24.666422 
L 274.443493 23.348813 
L 275.05222 22.48245 
L 275.47833 22.338052 
L 275.843566 22.680994 
L 276.087057 23.132229 
L 277.000148 25.550852 
L 278.126293 31.39885 
L 279.039384 38.059089 
L 280.317711 49.574603 
L 282.022148 67.840596 
L 286.800657 125.977729 
L 290.513893 168.718717 
L 292.248766 186.064194 
L 294.89673 207.145898 
L 296.47942 216.748181 
L 297.14902 220.448311 
L 298.305602 226.043624 
L 299.58393 230.880864 
L 300.618766 233.660472 
L 300.679639 233.786818 
L 301.197057 234.743436 
L 301.623166 235.284918 
L 302.353639 235.988842 
L 302.50582 236.024944 
L 302.718875 236.024944 
L 302.962366 235.91665 
L 303.93633 234.003413 
L 304.727675 230.79062 
L 305.397275 227.577823 
L 308.106111 210.882124 
L 309.506184 200.900804 
L 310.023602 197.579714 
L 312.184584 182.995795 
L 313.128111 176.732652 
L 314.31513 168.429927 
L 315.015166 163.610736 
L 316.141311 156.986605 
L 317.815311 148.629731 
L 319.215384 143.287107 
L 320.00673 140.850438 
L 320.950257 138.34157 
L 321.376366 137.421051 
L 322.59382 135.435616 
L 322.715566 135.327319 
L 323.01993 135.00243 
L 324.389566 133.540428 
L 324.69393 133.233588 
L 328.315857 126.591409 
L 328.924584 125.093308 
L 329.04633 124.804518 
L 329.95942 122.367848 
L 332.181275 116.122754 
L 333.30742 113.180702 
L 334.098766 111.159168 
L 334.281384 110.780131 
L 335.620584 108.596153 
L 335.894511 108.307363 
L 337.203275 106.917558 
L 338.359857 106.358027 
L 338.816402 106.466323 
L 339.33382 106.899512 
L 340.33822 108.253214 
L 340.794766 109.263984 
L 343.01662 116.194952 
L 344.234075 121.71807 
L 344.812366 124.930863 
L 350.321348 164.928343 
L 354.06502 192.941017 
L 356.012948 206.044884 
L 357.534766 213.571485 
L 358.569602 217.416009 
L 359.543566 219.979024 
L 359.908802 220.41221 
L 360.213166 220.628802 
L 361.126257 220.520503 
L 361.491493 220.249765 
L 361.674111 220.141468 
L 362.708948 218.751664 
L 363.348111 217.397959 
L 363.77422 216.134501 
L 365.143857 210.864072 
L 366.056948 206.604416 
L 366.696111 203.04868 
L 368.339675 191.62341 
L 369.861493 179.042976 
L 370.987639 168.032839 
L 374.548693 135.273172 
L 377.440148 113.83048 
L 378.353239 108.126871 
L 379.753311 101.231993 
L 381.731675 94.571766 
L 382.462148 93.073666 
L 382.583893 92.893175 
L 382.918693 92.387788 
L 382.918693 92.387788 
" style="fill:none;stroke:#ff0000;stroke-linecap:square;stroke-width:1.5;"/>
   </g>
   <g id="line2d_27">
    <path clip-path="url(#p3b2d394bba)" d="M 125.366184 162.925147 
" style="fill:none;stroke:#ffffff;stroke-linecap:square;stroke-width:1.5;"/>
    <defs>
     <path d="M 0 -5 
L -1.12257 -1.545085 
L -4.755283 -1.545085 
L -1.816356 0.59017 
L -2.938926 4.045085 
L -0 1.90983 
L 2.938926 4.045085 
L 1.816356 0.59017 
L 4.755283 -1.545085 
L 1.12257 -1.545085 
z
" id="m837a1e3fa7" style="stroke:#ffffff;stroke-linejoin:bevel;"/>
    </defs>
    <g clip-path="url(#p3b2d394bba)">
     <use style="fill:#0000ff;stroke:#ffffff;stroke-linejoin:bevel;" x="125.366184" xlink:href="#m837a1e3fa7" y="162.925147"/>
    </g>
   </g>
   <g id="line2d_28">
    <path clip-path="url(#p3b2d394bba)" d="M 104.699893 161.06577 
" style="fill:none;stroke:#ffffff;stroke-linecap:square;stroke-width:1.5;"/>
    <defs>
     <path d="M 0 -5 
L -1.12257 -1.545085 
L -4.755283 -1.545085 
L -1.816356 0.59017 
L -2.938926 4.045085 
L -0 1.90983 
L 2.938926 4.045085 
L 1.816356 0.59017 
L 4.755283 -1.545085 
L 1.12257 -1.545085 
z
" id="m2d8837beaf" style="stroke:#ffffff;stroke-linejoin:bevel;"/>
    </defs>
    <g clip-path="url(#p3b2d394bba)">
     <use style="fill:#ff0000;stroke:#ffffff;stroke-linejoin:bevel;" x="104.699893" xlink:href="#m2d8837beaf" y="161.06577"/>
    </g>
   </g>
   <g id="patch_3">
    <path d="M 63.336875 339.84 
L 63.336875 7.2 
" style="fill:none;stroke:#000000;stroke-linecap:square;stroke-linejoin:miter;stroke-width:0.8;"/>
   </g>
   <g id="patch_4">
    <path d="M 398.136875 339.84 
L 398.136875 7.2 
" style="fill:none;stroke:#000000;stroke-linecap:square;stroke-linejoin:miter;stroke-width:0.8;"/>
   </g>
   <g id="patch_5">
    <path d="M 63.336875 339.84 
L 398.136875 339.84 
" style="fill:none;stroke:#000000;stroke-linecap:square;stroke-linejoin:miter;stroke-width:0.8;"/>
   </g>
   <g id="patch_6">
    <path d="M 63.336875 7.2 
L 398.136875 7.2 
" style="fill:none;stroke:#000000;stroke-linecap:square;stroke-linejoin:miter;stroke-width:0.8;"/>
   </g>
   <g id="text_15">
    <g id="patch_7">
     <path d="M 75.036875 331.242688 
L 166.79375 331.242688 
L 166.79375 293.760312 
L 75.036875 293.760312 
z
" style="fill:#ffffff;stroke:#000000;stroke-linejoin:miter;stroke-width:0.75;"/>
    </g>
    <!-- Auto_00100 -->
    <g transform="translate(80.076875 308.521563)scale(0.14 -0.14)">
     <defs>
      <path d="M 2928 1419 
L 1288 1419 
L 1000 750 
Q 894 503 894 381 
Q 894 284 986 211 
Q 1078 138 1384 116 
L 1384 0 
L 50 0 
L 50 116 
Q 316 163 394 238 
Q 553 388 747 847 
L 2238 4334 
L 2347 4334 
L 3822 809 
Q 4000 384 4145 257 
Q 4291 131 4550 116 
L 4550 0 
L 2878 0 
L 2878 116 
Q 3131 128 3220 200 
Q 3309 272 3309 375 
Q 3309 513 3184 809 
L 2928 1419 
z
M 2841 1650 
L 2122 3363 
L 1384 1650 
L 2841 1650 
z
" id="TimesNewRomanPSMT-41" transform="scale(0.015625)"/>
      <path d="M 2709 2863 
L 2709 1128 
Q 2709 631 2732 520 
Q 2756 409 2807 365 
Q 2859 322 2928 322 
Q 3025 322 3147 375 
L 3191 266 
L 2334 -88 
L 2194 -88 
L 2194 519 
Q 1825 119 1631 15 
Q 1438 -88 1222 -88 
Q 981 -88 804 51 
Q 628 191 559 409 
Q 491 628 491 1028 
L 491 2306 
Q 491 2509 447 2587 
Q 403 2666 317 2708 
Q 231 2750 6 2747 
L 6 2863 
L 1009 2863 
L 1009 947 
Q 1009 547 1148 422 
Q 1288 297 1484 297 
Q 1619 297 1789 381 
Q 1959 466 2194 703 
L 2194 2325 
Q 2194 2569 2105 2655 
Q 2016 2741 1734 2747 
L 1734 2863 
L 2709 2863 
z
" id="TimesNewRomanPSMT-75" transform="scale(0.015625)"/>
      <path d="M 3256 -1381 
L -53 -1381 
L -53 -1119 
L 3256 -1119 
L 3256 -1381 
z
" id="TimesNewRomanPSMT-5f" transform="scale(0.015625)"/>
     </defs>
     <use xlink:href="#TimesNewRomanPSMT-41"/>
     <use x="72.216797" xlink:href="#TimesNewRomanPSMT-75"/>
     <use x="122.216797" xlink:href="#TimesNewRomanPSMT-74"/>
     <use x="150" xlink:href="#TimesNewRomanPSMT-6f"/>
     <use x="200" xlink:href="#TimesNewRomanPSMT-5f"/>
     <use x="250" xlink:href="#TimesNewRomanPSMT-30"/>
     <use x="300" xlink:href="#TimesNewRomanPSMT-30"/>
     <use x="350" xlink:href="#TimesNewRomanPSMT-31"/>
     <use x="400" xlink:href="#TimesNewRomanPSMT-30"/>
     <use x="450" xlink:href="#TimesNewRomanPSMT-30"/>
    </g>
    <!-- Vs: 294.39m/s -->
    <g transform="translate(80.076875 323.208)scale(0.14 -0.14)">
     <defs>
      <path d="M 903 2950 
Q 1047 2950 1148 2848 
Q 1250 2747 1250 2603 
Q 1250 2459 1148 2357 
Q 1047 2256 903 2256 
Q 759 2256 657 2357 
Q 556 2459 556 2603 
Q 556 2747 657 2848 
Q 759 2950 903 2950 
z
M 897 609 
Q 1044 609 1145 506 
Q 1247 403 1247 259 
Q 1247 116 1144 14 
Q 1041 -88 897 -88 
Q 753 -88 651 14 
Q 550 116 550 259 
Q 550 403 651 506 
Q 753 609 897 609 
z
" id="TimesNewRomanPSMT-3a" transform="scale(0.015625)"/>
      <path d="M 338 -88 
L 338 28 
Q 744 34 1094 217 
Q 1444 400 1770 856 
Q 2097 1313 2225 1859 
Q 1734 1544 1338 1544 
Q 891 1544 572 1889 
Q 253 2234 253 2806 
Q 253 3363 572 3797 
Q 956 4325 1575 4325 
Q 2097 4325 2469 3894 
Q 2925 3359 2925 2575 
Q 2925 1869 2578 1258 
Q 2231 647 1613 244 
Q 1109 -88 516 -88 
L 338 -88 
z
M 2275 2091 
Q 2331 2497 2331 2741 
Q 2331 3044 2228 3395 
Q 2125 3747 1936 3934 
Q 1747 4122 1506 4122 
Q 1228 4122 1018 3872 
Q 809 3622 809 3128 
Q 809 2469 1088 2097 
Q 1291 1828 1588 1828 
Q 1731 1828 1928 1897 
Q 2125 1966 2275 2091 
z
" id="TimesNewRomanPSMT-39" transform="scale(0.015625)"/>
      <path d="M 1794 4444 
L 259 -88 
L 9 -88 
L 1544 4444 
L 1794 4444 
z
" id="TimesNewRomanPSMT-2f" transform="scale(0.015625)"/>
     </defs>
     <use xlink:href="#TimesNewRomanPSMT-56"/>
     <use x="72.216797" xlink:href="#TimesNewRomanPSMT-73"/>
     <use x="111.132812" xlink:href="#TimesNewRomanPSMT-3a"/>
     <use x="138.916016" xlink:href="#TimesNewRomanPSMT-20"/>
     <use x="163.916016" xlink:href="#TimesNewRomanPSMT-32"/>
     <use x="213.916016" xlink:href="#TimesNewRomanPSMT-39"/>
     <use x="263.916016" xlink:href="#TimesNewRomanPSMT-34"/>
     <use x="313.916016" xlink:href="#TimesNewRomanPSMT-2e"/>
     <use x="338.916016" xlink:href="#TimesNewRomanPSMT-33"/>
     <use x="388.916016" xlink:href="#TimesNewRomanPSMT-39"/>
     <use x="438.916016" xlink:href="#TimesNewRomanPSMT-6d"/>
     <use x="516.699219" xlink:href="#TimesNewRomanPSMT-2f"/>
     <use x="544.482422" xlink:href="#TimesNewRomanPSMT-73"/>
    </g>
   </g>
  </g>
 </g>
 <defs>
  <clipPath id="p3b2d394bba">
   <rect height="332.64" width="334.8" x="63.336875" y="7.2"/>
  </clipPath>
 </defs>
</svg>
