<?xml version="1.0" encoding="utf-8" standalone="no"?>
<!DOCTYPE svg PUBLIC "-//W3C//DTD SVG 1.1//EN"
  "http://www.w3.org/Graphics/SVG/1.1/DTD/svg11.dtd">
<svg height="383.471875pt" version="1.1" viewBox="0 0 421.086875 383.471875" width="421.086875pt" xmlns="http://www.w3.org/2000/svg" xmlns:xlink="http://www.w3.org/1999/xlink">
 <metadata>
  <rdf:RDF xmlns:cc="http://creativecommons.org/ns#" xmlns:dc="http://purl.org/dc/elements/1.1/" xmlns:rdf="http://www.w3.org/1999/02/22-rdf-syntax-ns#">
   <cc:Work>
    <dc:type rdf:resource="http://purl.org/dc/dcmitype/StillImage"/>
    <dc:date>2021-06-11T14:39:37.302614</dc:date>
    <dc:format>image/svg+xml</dc:format>
    <dc:creator>
     <cc:Agent>
      <dc:title>Matplotlib v3.4.2, https://matplotlib.org/</dc:title>
     </cc:Agent>
    </dc:creator>
   </cc:Work>
  </rdf:RDF>
 </metadata>
 <defs>
  <style type="text/css">*{stroke-linecap:butt;stroke-linejoin:round;}</style>
 </defs>
 <g id="figure_1">
  <g id="patch_1">
   <path d="M 0 383.471875 
L 421.086875 383.471875 
L 421.086875 0 
L 0 0 
z
" style="fill:#ffffff;"/>
  </g>
  <g id="axes_1">
   <g id="patch_2">
    <path d="M 63.336875 339.84 
L 398.136875 339.84 
L 398.136875 7.2 
L 63.336875 7.2 
z
" style="fill:#ffffff;"/>
   </g>
   <g id="matplotlib.axis_1">
    <g id="xtick_1">
     <g id="line2d_1">
      <path clip-path="url(#pd8c2d5138a)" d="M 93.773239 339.84 
L 93.773239 7.2 
" style="fill:none;stroke:#000000;stroke-dasharray:0.5,0.825;stroke-dashoffset:0;stroke-width:0.5;"/>
     </g>
     <g id="line2d_2">
      <defs>
       <path d="M 0 0 
L 0 3.5 
" id="m0238d77e5b" style="stroke:#000000;stroke-width:0.8;"/>
      </defs>
      <g>
       <use style="stroke:#000000;stroke-width:0.8;" x="93.773239" xlink:href="#m0238d77e5b" y="339.84"/>
      </g>
     </g>
     <g id="text_1">
      <!-- 0.000 -->
      <g transform="translate(78.023239 356.56125)scale(0.14 -0.14)">
       <defs>
        <path d="M 231 2094 
Q 231 2819 450 3342 
Q 669 3866 1031 4122 
Q 1313 4325 1613 4325 
Q 2100 4325 2488 3828 
Q 2972 3213 2972 2159 
Q 2972 1422 2759 906 
Q 2547 391 2217 158 
Q 1888 -75 1581 -75 
Q 975 -75 572 641 
Q 231 1244 231 2094 
z
M 844 2016 
Q 844 1141 1059 588 
Q 1238 122 1591 122 
Q 1759 122 1940 273 
Q 2122 425 2216 781 
Q 2359 1319 2359 2297 
Q 2359 3022 2209 3506 
Q 2097 3866 1919 4016 
Q 1791 4119 1609 4119 
Q 1397 4119 1231 3928 
Q 1006 3669 925 3112 
Q 844 2556 844 2016 
z
" id="TimesNewRomanPSMT-30" transform="scale(0.015625)"/>
        <path d="M 800 606 
Q 947 606 1047 504 
Q 1147 403 1147 259 
Q 1147 116 1045 14 
Q 944 -88 800 -88 
Q 656 -88 554 14 
Q 453 116 453 259 
Q 453 406 554 506 
Q 656 606 800 606 
z
" id="TimesNewRomanPSMT-2e" transform="scale(0.015625)"/>
       </defs>
       <use xlink:href="#TimesNewRomanPSMT-30"/>
       <use x="50" xlink:href="#TimesNewRomanPSMT-2e"/>
       <use x="75" xlink:href="#TimesNewRomanPSMT-30"/>
       <use x="125" xlink:href="#TimesNewRomanPSMT-30"/>
       <use x="175" xlink:href="#TimesNewRomanPSMT-30"/>
      </g>
     </g>
    </g>
    <g id="xtick_2">
     <g id="line2d_3">
      <path clip-path="url(#pd8c2d5138a)" d="M 154.645966 339.84 
L 154.645966 7.2 
" style="fill:none;stroke:#000000;stroke-dasharray:0.5,0.825;stroke-dashoffset:0;stroke-width:0.5;"/>
     </g>
     <g id="line2d_4">
      <g>
       <use style="stroke:#000000;stroke-width:0.8;" x="154.645966" xlink:href="#m0238d77e5b" y="339.84"/>
      </g>
     </g>
     <g id="text_2">
      <!-- 0.001 -->
      <g transform="translate(138.895966 356.56125)scale(0.14 -0.14)">
       <defs>
        <path d="M 750 3822 
L 1781 4325 
L 1884 4325 
L 1884 747 
Q 1884 391 1914 303 
Q 1944 216 2037 169 
Q 2131 122 2419 116 
L 2419 0 
L 825 0 
L 825 116 
Q 1125 122 1212 167 
Q 1300 213 1334 289 
Q 1369 366 1369 747 
L 1369 3034 
Q 1369 3497 1338 3628 
Q 1316 3728 1258 3775 
Q 1200 3822 1119 3822 
Q 1003 3822 797 3725 
L 750 3822 
z
" id="TimesNewRomanPSMT-31" transform="scale(0.015625)"/>
       </defs>
       <use xlink:href="#TimesNewRomanPSMT-30"/>
       <use x="50" xlink:href="#TimesNewRomanPSMT-2e"/>
       <use x="75" xlink:href="#TimesNewRomanPSMT-30"/>
       <use x="125" xlink:href="#TimesNewRomanPSMT-30"/>
       <use x="175" xlink:href="#TimesNewRomanPSMT-31"/>
      </g>
     </g>
    </g>
    <g id="xtick_3">
     <g id="line2d_5">
      <path clip-path="url(#pd8c2d5138a)" d="M 215.518693 339.84 
L 215.518693 7.2 
" style="fill:none;stroke:#000000;stroke-dasharray:0.5,0.825;stroke-dashoffset:0;stroke-width:0.5;"/>
     </g>
     <g id="line2d_6">
      <g>
       <use style="stroke:#000000;stroke-width:0.8;" x="215.518693" xlink:href="#m0238d77e5b" y="339.84"/>
      </g>
     </g>
     <g id="text_3">
      <!-- 0.002 -->
      <g transform="translate(199.768693 356.56125)scale(0.14 -0.14)">
       <defs>
        <path d="M 2934 816 
L 2638 0 
L 138 0 
L 138 116 
Q 1241 1122 1691 1759 
Q 2141 2397 2141 2925 
Q 2141 3328 1894 3587 
Q 1647 3847 1303 3847 
Q 991 3847 742 3664 
Q 494 3481 375 3128 
L 259 3128 
Q 338 3706 661 4015 
Q 984 4325 1469 4325 
Q 1984 4325 2329 3994 
Q 2675 3663 2675 3213 
Q 2675 2891 2525 2569 
Q 2294 2063 1775 1497 
Q 997 647 803 472 
L 1909 472 
Q 2247 472 2383 497 
Q 2519 522 2628 598 
Q 2738 675 2819 816 
L 2934 816 
z
" id="TimesNewRomanPSMT-32" transform="scale(0.015625)"/>
       </defs>
       <use xlink:href="#TimesNewRomanPSMT-30"/>
       <use x="50" xlink:href="#TimesNewRomanPSMT-2e"/>
       <use x="75" xlink:href="#TimesNewRomanPSMT-30"/>
       <use x="125" xlink:href="#TimesNewRomanPSMT-30"/>
       <use x="175" xlink:href="#TimesNewRomanPSMT-32"/>
      </g>
     </g>
    </g>
    <g id="xtick_4">
     <g id="line2d_7">
      <path clip-path="url(#pd8c2d5138a)" d="M 276.39142 339.84 
L 276.39142 7.2 
" style="fill:none;stroke:#000000;stroke-dasharray:0.5,0.825;stroke-dashoffset:0;stroke-width:0.5;"/>
     </g>
     <g id="line2d_8">
      <g>
       <use style="stroke:#000000;stroke-width:0.8;" x="276.39142" xlink:href="#m0238d77e5b" y="339.84"/>
      </g>
     </g>
     <g id="text_4">
      <!-- 0.003 -->
      <g transform="translate(260.64142 356.56125)scale(0.14 -0.14)">
       <defs>
        <path d="M 325 3431 
Q 506 3859 782 4092 
Q 1059 4325 1472 4325 
Q 1981 4325 2253 3994 
Q 2459 3747 2459 3466 
Q 2459 3003 1878 2509 
Q 2269 2356 2469 2072 
Q 2669 1788 2669 1403 
Q 2669 853 2319 450 
Q 1863 -75 997 -75 
Q 569 -75 414 31 
Q 259 138 259 259 
Q 259 350 332 419 
Q 406 488 509 488 
Q 588 488 669 463 
Q 722 447 909 348 
Q 1097 250 1169 231 
Q 1284 197 1416 197 
Q 1734 197 1970 444 
Q 2206 691 2206 1028 
Q 2206 1275 2097 1509 
Q 2016 1684 1919 1775 
Q 1784 1900 1550 2001 
Q 1316 2103 1072 2103 
L 972 2103 
L 972 2197 
Q 1219 2228 1467 2375 
Q 1716 2522 1828 2728 
Q 1941 2934 1941 3181 
Q 1941 3503 1739 3701 
Q 1538 3900 1238 3900 
Q 753 3900 428 3381 
L 325 3431 
z
" id="TimesNewRomanPSMT-33" transform="scale(0.015625)"/>
       </defs>
       <use xlink:href="#TimesNewRomanPSMT-30"/>
       <use x="50" xlink:href="#TimesNewRomanPSMT-2e"/>
       <use x="75" xlink:href="#TimesNewRomanPSMT-30"/>
       <use x="125" xlink:href="#TimesNewRomanPSMT-30"/>
       <use x="175" xlink:href="#TimesNewRomanPSMT-33"/>
      </g>
     </g>
    </g>
    <g id="xtick_5">
     <g id="line2d_9">
      <path clip-path="url(#pd8c2d5138a)" d="M 337.264148 339.84 
L 337.264148 7.2 
" style="fill:none;stroke:#000000;stroke-dasharray:0.5,0.825;stroke-dashoffset:0;stroke-width:0.5;"/>
     </g>
     <g id="line2d_10">
      <g>
       <use style="stroke:#000000;stroke-width:0.8;" x="337.264148" xlink:href="#m0238d77e5b" y="339.84"/>
      </g>
     </g>
     <g id="text_5">
      <!-- 0.004 -->
      <g transform="translate(321.514148 356.56125)scale(0.14 -0.14)">
       <defs>
        <path d="M 2978 1563 
L 2978 1119 
L 2409 1119 
L 2409 0 
L 1894 0 
L 1894 1119 
L 100 1119 
L 100 1519 
L 2066 4325 
L 2409 4325 
L 2409 1563 
L 2978 1563 
z
M 1894 1563 
L 1894 3666 
L 406 1563 
L 1894 1563 
z
" id="TimesNewRomanPSMT-34" transform="scale(0.015625)"/>
       </defs>
       <use xlink:href="#TimesNewRomanPSMT-30"/>
       <use x="50" xlink:href="#TimesNewRomanPSMT-2e"/>
       <use x="75" xlink:href="#TimesNewRomanPSMT-30"/>
       <use x="125" xlink:href="#TimesNewRomanPSMT-30"/>
       <use x="175" xlink:href="#TimesNewRomanPSMT-34"/>
      </g>
     </g>
    </g>
    <g id="xtick_6">
     <g id="line2d_11">
      <path clip-path="url(#pd8c2d5138a)" d="M 398.136875 339.84 
L 398.136875 7.2 
" style="fill:none;stroke:#000000;stroke-dasharray:0.5,0.825;stroke-dashoffset:0;stroke-width:0.5;"/>
     </g>
     <g id="line2d_12">
      <g>
       <use style="stroke:#000000;stroke-width:0.8;" x="398.136875" xlink:href="#m0238d77e5b" y="339.84"/>
      </g>
     </g>
     <g id="text_6">
      <!-- 0.005 -->
      <g transform="translate(382.386875 356.56125)scale(0.14 -0.14)">
       <defs>
        <path d="M 2778 4238 
L 2534 3706 
L 1259 3706 
L 981 3138 
Q 1809 3016 2294 2522 
Q 2709 2097 2709 1522 
Q 2709 1188 2573 903 
Q 2438 619 2231 419 
Q 2025 219 1772 97 
Q 1413 -75 1034 -75 
Q 653 -75 479 54 
Q 306 184 306 341 
Q 306 428 378 495 
Q 450 563 559 563 
Q 641 563 702 538 
Q 763 513 909 409 
Q 1144 247 1384 247 
Q 1750 247 2026 523 
Q 2303 800 2303 1197 
Q 2303 1581 2056 1914 
Q 1809 2247 1375 2428 
Q 1034 2569 447 2591 
L 1259 4238 
L 2778 4238 
z
" id="TimesNewRomanPSMT-35" transform="scale(0.015625)"/>
       </defs>
       <use xlink:href="#TimesNewRomanPSMT-30"/>
       <use x="50" xlink:href="#TimesNewRomanPSMT-2e"/>
       <use x="75" xlink:href="#TimesNewRomanPSMT-30"/>
       <use x="125" xlink:href="#TimesNewRomanPSMT-30"/>
       <use x="175" xlink:href="#TimesNewRomanPSMT-35"/>
      </g>
     </g>
    </g>
    <g id="text_7">
     <!-- Time (sec) -->
     <g transform="translate(200.858906 373.277188)scale(0.14 -0.14)">
      <defs>
       <path d="M 3703 4238 
L 3750 3244 
L 3631 3244 
Q 3597 3506 3538 3619 
Q 3441 3800 3280 3886 
Q 3119 3972 2856 3972 
L 2259 3972 
L 2259 734 
Q 2259 344 2344 247 
Q 2463 116 2709 116 
L 2856 116 
L 2856 0 
L 1059 0 
L 1059 116 
L 1209 116 
Q 1478 116 1591 278 
Q 1659 378 1659 734 
L 1659 3972 
L 1150 3972 
Q 853 3972 728 3928 
Q 566 3869 450 3700 
Q 334 3531 313 3244 
L 194 3244 
L 244 4238 
L 3703 4238 
z
" id="TimesNewRomanPSMT-54" transform="scale(0.015625)"/>
       <path d="M 928 4444 
Q 1059 4444 1151 4351 
Q 1244 4259 1244 4128 
Q 1244 3997 1151 3903 
Q 1059 3809 928 3809 
Q 797 3809 703 3903 
Q 609 3997 609 4128 
Q 609 4259 701 4351 
Q 794 4444 928 4444 
z
M 1188 2947 
L 1188 647 
Q 1188 378 1227 289 
Q 1266 200 1342 156 
Q 1419 113 1622 113 
L 1622 0 
L 231 0 
L 231 113 
Q 441 113 512 153 
Q 584 194 626 287 
Q 669 381 669 647 
L 669 1750 
Q 669 2216 641 2353 
Q 619 2453 572 2492 
Q 525 2531 444 2531 
Q 356 2531 231 2484 
L 188 2597 
L 1050 2947 
L 1188 2947 
z
" id="TimesNewRomanPSMT-69" transform="scale(0.015625)"/>
       <path d="M 1050 2338 
Q 1363 2650 1419 2697 
Q 1559 2816 1721 2881 
Q 1884 2947 2044 2947 
Q 2313 2947 2506 2790 
Q 2700 2634 2766 2338 
Q 3088 2713 3309 2830 
Q 3531 2947 3766 2947 
Q 3994 2947 4170 2830 
Q 4347 2713 4450 2447 
Q 4519 2266 4519 1878 
L 4519 647 
Q 4519 378 4559 278 
Q 4591 209 4675 161 
Q 4759 113 4950 113 
L 4950 0 
L 3538 0 
L 3538 113 
L 3597 113 
Q 3781 113 3884 184 
Q 3956 234 3988 344 
Q 4000 397 4000 647 
L 4000 1878 
Q 4000 2228 3916 2372 
Q 3794 2572 3525 2572 
Q 3359 2572 3192 2489 
Q 3025 2406 2788 2181 
L 2781 2147 
L 2788 2013 
L 2788 647 
Q 2788 353 2820 281 
Q 2853 209 2943 161 
Q 3034 113 3253 113 
L 3253 0 
L 1806 0 
L 1806 113 
Q 2044 113 2133 169 
Q 2222 225 2256 338 
Q 2272 391 2272 647 
L 2272 1878 
Q 2272 2228 2169 2381 
Q 2031 2581 1784 2581 
Q 1616 2581 1450 2491 
Q 1191 2353 1050 2181 
L 1050 647 
Q 1050 366 1089 281 
Q 1128 197 1204 155 
Q 1281 113 1516 113 
L 1516 0 
L 100 0 
L 100 113 
Q 297 113 375 155 
Q 453 197 493 289 
Q 534 381 534 647 
L 534 1741 
Q 534 2213 506 2350 
Q 484 2453 437 2492 
Q 391 2531 309 2531 
Q 222 2531 100 2484 
L 53 2597 
L 916 2947 
L 1050 2947 
L 1050 2338 
z
" id="TimesNewRomanPSMT-6d" transform="scale(0.015625)"/>
       <path d="M 681 1784 
Q 678 1147 991 784 
Q 1303 422 1725 422 
Q 2006 422 2214 576 
Q 2422 731 2563 1106 
L 2659 1044 
Q 2594 616 2278 264 
Q 1963 -88 1488 -88 
Q 972 -88 605 314 
Q 238 716 238 1394 
Q 238 2128 614 2539 
Q 991 2950 1559 2950 
Q 2041 2950 2350 2633 
Q 2659 2316 2659 1784 
L 681 1784 
z
M 681 1966 
L 2006 1966 
Q 1991 2241 1941 2353 
Q 1863 2528 1708 2628 
Q 1553 2728 1384 2728 
Q 1125 2728 920 2526 
Q 716 2325 681 1966 
z
" id="TimesNewRomanPSMT-65" transform="scale(0.015625)"/>
       <path id="TimesNewRomanPSMT-20" transform="scale(0.015625)"/>
       <path d="M 1988 -1253 
L 1988 -1369 
Q 1516 -1131 1200 -813 
Q 750 -359 506 256 
Q 263 872 263 1534 
Q 263 2503 741 3301 
Q 1219 4100 1988 4444 
L 1988 4313 
Q 1603 4100 1356 3731 
Q 1109 3363 987 2797 
Q 866 2231 866 1616 
Q 866 947 969 400 
Q 1050 -31 1165 -292 
Q 1281 -553 1476 -793 
Q 1672 -1034 1988 -1253 
z
" id="TimesNewRomanPSMT-28" transform="scale(0.015625)"/>
       <path d="M 2050 2947 
L 2050 1972 
L 1947 1972 
Q 1828 2431 1642 2597 
Q 1456 2763 1169 2763 
Q 950 2763 815 2647 
Q 681 2531 681 2391 
Q 681 2216 781 2091 
Q 878 1963 1175 1819 
L 1631 1597 
Q 2266 1288 2266 781 
Q 2266 391 1970 151 
Q 1675 -88 1309 -88 
Q 1047 -88 709 6 
Q 606 38 541 38 
Q 469 38 428 -44 
L 325 -44 
L 325 978 
L 428 978 
Q 516 541 762 319 
Q 1009 97 1316 97 
Q 1531 97 1667 223 
Q 1803 350 1803 528 
Q 1803 744 1651 891 
Q 1500 1038 1047 1263 
Q 594 1488 453 1669 
Q 313 1847 313 2119 
Q 313 2472 555 2709 
Q 797 2947 1181 2947 
Q 1350 2947 1591 2875 
Q 1750 2828 1803 2828 
Q 1853 2828 1881 2850 
Q 1909 2872 1947 2947 
L 2050 2947 
z
" id="TimesNewRomanPSMT-73" transform="scale(0.015625)"/>
       <path d="M 2631 1088 
Q 2516 522 2178 217 
Q 1841 -88 1431 -88 
Q 944 -88 581 321 
Q 219 731 219 1428 
Q 219 2103 620 2525 
Q 1022 2947 1584 2947 
Q 2006 2947 2278 2723 
Q 2550 2500 2550 2259 
Q 2550 2141 2473 2067 
Q 2397 1994 2259 1994 
Q 2075 1994 1981 2113 
Q 1928 2178 1911 2362 
Q 1894 2547 1784 2644 
Q 1675 2738 1481 2738 
Q 1169 2738 978 2506 
Q 725 2200 725 1697 
Q 725 1184 976 792 
Q 1228 400 1656 400 
Q 1963 400 2206 609 
Q 2378 753 2541 1131 
L 2631 1088 
z
" id="TimesNewRomanPSMT-63" transform="scale(0.015625)"/>
       <path d="M 144 4313 
L 144 4444 
Q 619 4209 934 3891 
Q 1381 3434 1625 2820 
Q 1869 2206 1869 1541 
Q 1869 572 1392 -226 
Q 916 -1025 144 -1369 
L 144 -1253 
Q 528 -1038 776 -670 
Q 1025 -303 1145 264 
Q 1266 831 1266 1447 
Q 1266 2113 1163 2663 
Q 1084 3094 967 3353 
Q 850 3613 656 3853 
Q 463 4094 144 4313 
z
" id="TimesNewRomanPSMT-29" transform="scale(0.015625)"/>
      </defs>
      <use xlink:href="#TimesNewRomanPSMT-54"/>
      <use x="57.583984" xlink:href="#TimesNewRomanPSMT-69"/>
      <use x="85.367188" xlink:href="#TimesNewRomanPSMT-6d"/>
      <use x="163.150391" xlink:href="#TimesNewRomanPSMT-65"/>
      <use x="207.535156" xlink:href="#TimesNewRomanPSMT-20"/>
      <use x="232.535156" xlink:href="#TimesNewRomanPSMT-28"/>
      <use x="265.835938" xlink:href="#TimesNewRomanPSMT-73"/>
      <use x="304.751953" xlink:href="#TimesNewRomanPSMT-65"/>
      <use x="349.136719" xlink:href="#TimesNewRomanPSMT-63"/>
      <use x="393.521484" xlink:href="#TimesNewRomanPSMT-29"/>
     </g>
    </g>
   </g>
   <g id="matplotlib.axis_2">
    <g id="ytick_1">
     <g id="line2d_13">
      <path clip-path="url(#pd8c2d5138a)" d="M 63.336875 282.788114 
L 398.136875 282.788114 
" style="fill:none;stroke:#000000;stroke-dasharray:0.5,0.825;stroke-dashoffset:0;stroke-width:0.5;"/>
     </g>
     <g id="line2d_14">
      <defs>
       <path d="M 0 0 
L -3.5 0 
" id="mb0c6063264" style="stroke:#000000;stroke-width:0.8;"/>
      </defs>
      <g>
       <use style="stroke:#000000;stroke-width:0.8;" x="63.336875" xlink:href="#mb0c6063264" y="282.788114"/>
      </g>
     </g>
     <g id="text_8">
      <!-- −0.04 -->
      <g transform="translate(23.942188 287.648739)scale(0.14 -0.14)">
       <defs>
        <path d="M 3484 2000 
L 116 2000 
L 116 2256 
L 3484 2256 
L 3484 2000 
z
" id="TimesNewRomanPSMT-2212" transform="scale(0.015625)"/>
       </defs>
       <use xlink:href="#TimesNewRomanPSMT-2212"/>
       <use x="56.396484" xlink:href="#TimesNewRomanPSMT-30"/>
       <use x="106.396484" xlink:href="#TimesNewRomanPSMT-2e"/>
       <use x="131.396484" xlink:href="#TimesNewRomanPSMT-30"/>
       <use x="181.396484" xlink:href="#TimesNewRomanPSMT-34"/>
      </g>
     </g>
    </g>
    <g id="ytick_2">
     <g id="line2d_15">
      <path clip-path="url(#pd8c2d5138a)" d="M 63.336875 218.490439 
L 398.136875 218.490439 
" style="fill:none;stroke:#000000;stroke-dasharray:0.5,0.825;stroke-dashoffset:0;stroke-width:0.5;"/>
     </g>
     <g id="line2d_16">
      <g>
       <use style="stroke:#000000;stroke-width:0.8;" x="63.336875" xlink:href="#mb0c6063264" y="218.490439"/>
      </g>
     </g>
     <g id="text_9">
      <!-- −0.02 -->
      <g transform="translate(23.942188 223.351064)scale(0.14 -0.14)">
       <use xlink:href="#TimesNewRomanPSMT-2212"/>
       <use x="56.396484" xlink:href="#TimesNewRomanPSMT-30"/>
       <use x="106.396484" xlink:href="#TimesNewRomanPSMT-2e"/>
       <use x="131.396484" xlink:href="#TimesNewRomanPSMT-30"/>
       <use x="181.396484" xlink:href="#TimesNewRomanPSMT-32"/>
      </g>
     </g>
    </g>
    <g id="ytick_3">
     <g id="line2d_17">
      <path clip-path="url(#pd8c2d5138a)" d="M 63.336875 154.192763 
L 398.136875 154.192763 
" style="fill:none;stroke:#000000;stroke-dasharray:0.5,0.825;stroke-dashoffset:0;stroke-width:0.5;"/>
     </g>
     <g id="line2d_18">
      <g>
       <use style="stroke:#000000;stroke-width:0.8;" x="63.336875" xlink:href="#mb0c6063264" y="154.192763"/>
      </g>
     </g>
     <g id="text_10">
      <!-- 0.00 -->
      <g transform="translate(31.836875 159.053388)scale(0.14 -0.14)">
       <use xlink:href="#TimesNewRomanPSMT-30"/>
       <use x="50" xlink:href="#TimesNewRomanPSMT-2e"/>
       <use x="75" xlink:href="#TimesNewRomanPSMT-30"/>
       <use x="125" xlink:href="#TimesNewRomanPSMT-30"/>
      </g>
     </g>
    </g>
    <g id="ytick_4">
     <g id="line2d_19">
      <path clip-path="url(#pd8c2d5138a)" d="M 63.336875 89.895088 
L 398.136875 89.895088 
" style="fill:none;stroke:#000000;stroke-dasharray:0.5,0.825;stroke-dashoffset:0;stroke-width:0.5;"/>
     </g>
     <g id="line2d_20">
      <g>
       <use style="stroke:#000000;stroke-width:0.8;" x="63.336875" xlink:href="#mb0c6063264" y="89.895088"/>
      </g>
     </g>
     <g id="text_11">
      <!-- 0.02 -->
      <g transform="translate(31.836875 94.755713)scale(0.14 -0.14)">
       <use xlink:href="#TimesNewRomanPSMT-30"/>
       <use x="50" xlink:href="#TimesNewRomanPSMT-2e"/>
       <use x="75" xlink:href="#TimesNewRomanPSMT-30"/>
       <use x="125" xlink:href="#TimesNewRomanPSMT-32"/>
      </g>
     </g>
    </g>
    <g id="ytick_5">
     <g id="line2d_21">
      <path clip-path="url(#pd8c2d5138a)" d="M 63.336875 25.597413 
L 398.136875 25.597413 
" style="fill:none;stroke:#000000;stroke-dasharray:0.5,0.825;stroke-dashoffset:0;stroke-width:0.5;"/>
     </g>
     <g id="line2d_22">
      <g>
       <use style="stroke:#000000;stroke-width:0.8;" x="63.336875" xlink:href="#mb0c6063264" y="25.597413"/>
      </g>
     </g>
     <g id="text_12">
      <!-- 0.04 -->
      <g transform="translate(31.836875 30.458038)scale(0.14 -0.14)">
       <use xlink:href="#TimesNewRomanPSMT-30"/>
       <use x="50" xlink:href="#TimesNewRomanPSMT-2e"/>
       <use x="75" xlink:href="#TimesNewRomanPSMT-30"/>
       <use x="125" xlink:href="#TimesNewRomanPSMT-34"/>
      </g>
     </g>
    </g>
    <g id="text_13">
     <!-- Volatage (V) -->
     <g transform="translate(16.92125 209.352344)rotate(-90)scale(0.14 -0.14)">
      <defs>
       <path d="M 4544 4238 
L 4544 4122 
Q 4319 4081 4203 3978 
Q 4038 3825 3909 3509 
L 2431 -97 
L 2316 -97 
L 728 3556 
Q 606 3838 556 3900 
Q 478 3997 364 4051 
Q 250 4106 56 4122 
L 56 4238 
L 1788 4238 
L 1788 4122 
Q 1494 4094 1406 4022 
Q 1319 3950 1319 3838 
Q 1319 3681 1463 3350 
L 2541 866 
L 3541 3319 
Q 3688 3681 3688 3822 
Q 3688 3913 3597 3995 
Q 3506 4078 3291 4113 
Q 3275 4116 3238 4122 
L 3238 4238 
L 4544 4238 
z
" id="TimesNewRomanPSMT-56" transform="scale(0.015625)"/>
       <path d="M 1600 2947 
Q 2250 2947 2644 2453 
Q 2978 2031 2978 1484 
Q 2978 1100 2793 706 
Q 2609 313 2286 112 
Q 1963 -88 1566 -88 
Q 919 -88 538 428 
Q 216 863 216 1403 
Q 216 1797 411 2186 
Q 606 2575 925 2761 
Q 1244 2947 1600 2947 
z
M 1503 2744 
Q 1338 2744 1170 2645 
Q 1003 2547 900 2300 
Q 797 2053 797 1666 
Q 797 1041 1045 587 
Q 1294 134 1700 134 
Q 2003 134 2200 384 
Q 2397 634 2397 1244 
Q 2397 2006 2069 2444 
Q 1847 2744 1503 2744 
z
" id="TimesNewRomanPSMT-6f" transform="scale(0.015625)"/>
       <path d="M 1184 4444 
L 1184 647 
Q 1184 378 1223 290 
Q 1263 203 1344 158 
Q 1425 113 1647 113 
L 1647 0 
L 244 0 
L 244 113 
Q 441 113 512 153 
Q 584 194 625 287 
Q 666 381 666 647 
L 666 3247 
Q 666 3731 644 3842 
Q 622 3953 573 3993 
Q 525 4034 450 4034 
Q 369 4034 244 3984 
L 191 4094 
L 1044 4444 
L 1184 4444 
z
" id="TimesNewRomanPSMT-6c" transform="scale(0.015625)"/>
       <path d="M 1822 413 
Q 1381 72 1269 19 
Q 1100 -59 909 -59 
Q 613 -59 420 144 
Q 228 347 228 678 
Q 228 888 322 1041 
Q 450 1253 767 1440 
Q 1084 1628 1822 1897 
L 1822 2009 
Q 1822 2438 1686 2597 
Q 1550 2756 1291 2756 
Q 1094 2756 978 2650 
Q 859 2544 859 2406 
L 866 2225 
Q 866 2081 792 2003 
Q 719 1925 600 1925 
Q 484 1925 411 2006 
Q 338 2088 338 2228 
Q 338 2497 613 2722 
Q 888 2947 1384 2947 
Q 1766 2947 2009 2819 
Q 2194 2722 2281 2516 
Q 2338 2381 2338 1966 
L 2338 994 
Q 2338 584 2353 492 
Q 2369 400 2405 369 
Q 2441 338 2488 338 
Q 2538 338 2575 359 
Q 2641 400 2828 588 
L 2828 413 
Q 2478 -56 2159 -56 
Q 2006 -56 1915 50 
Q 1825 156 1822 413 
z
M 1822 616 
L 1822 1706 
Q 1350 1519 1213 1441 
Q 966 1303 859 1153 
Q 753 1003 753 825 
Q 753 600 887 451 
Q 1022 303 1197 303 
Q 1434 303 1822 616 
z
" id="TimesNewRomanPSMT-61" transform="scale(0.015625)"/>
       <path d="M 1031 3803 
L 1031 2863 
L 1700 2863 
L 1700 2644 
L 1031 2644 
L 1031 788 
Q 1031 509 1111 412 
Q 1191 316 1316 316 
Q 1419 316 1516 380 
Q 1613 444 1666 569 
L 1788 569 
Q 1678 263 1478 108 
Q 1278 -47 1066 -47 
Q 922 -47 784 33 
Q 647 113 581 261 
Q 516 409 516 719 
L 516 2644 
L 63 2644 
L 63 2747 
Q 234 2816 414 2980 
Q 594 3144 734 3369 
Q 806 3488 934 3803 
L 1031 3803 
z
" id="TimesNewRomanPSMT-74" transform="scale(0.015625)"/>
       <path d="M 966 1044 
Q 703 1172 562 1401 
Q 422 1631 422 1909 
Q 422 2334 742 2640 
Q 1063 2947 1563 2947 
Q 1972 2947 2272 2747 
L 2878 2747 
Q 3013 2747 3034 2739 
Q 3056 2731 3066 2713 
Q 3084 2684 3084 2613 
Q 3084 2531 3069 2500 
Q 3059 2484 3036 2475 
Q 3013 2466 2878 2466 
L 2506 2466 
Q 2681 2241 2681 1891 
Q 2681 1491 2375 1206 
Q 2069 922 1553 922 
Q 1341 922 1119 984 
Q 981 866 932 777 
Q 884 688 884 625 
Q 884 572 936 522 
Q 988 472 1138 450 
Q 1225 438 1575 428 
Q 2219 413 2409 384 
Q 2700 344 2873 169 
Q 3047 -6 3047 -263 
Q 3047 -616 2716 -925 
Q 2228 -1381 1444 -1381 
Q 841 -1381 425 -1109 
Q 191 -953 191 -784 
Q 191 -709 225 -634 
Q 278 -519 444 -313 
Q 466 -284 763 25 
Q 600 122 533 198 
Q 466 275 466 372 
Q 466 481 555 628 
Q 644 775 966 1044 
z
M 1509 2797 
Q 1278 2797 1122 2612 
Q 966 2428 966 2047 
Q 966 1553 1178 1281 
Q 1341 1075 1591 1075 
Q 1828 1075 1981 1253 
Q 2134 1431 2134 1813 
Q 2134 2309 1919 2591 
Q 1759 2797 1509 2797 
z
M 934 0 
Q 788 -159 713 -296 
Q 638 -434 638 -550 
Q 638 -700 819 -813 
Q 1131 -1006 1722 -1006 
Q 2284 -1006 2551 -807 
Q 2819 -609 2819 -384 
Q 2819 -222 2659 -153 
Q 2497 -84 2016 -72 
Q 1313 -53 934 0 
z
" id="TimesNewRomanPSMT-67" transform="scale(0.015625)"/>
      </defs>
      <use xlink:href="#TimesNewRomanPSMT-56"/>
      <use x="59.341797" xlink:href="#TimesNewRomanPSMT-6f"/>
      <use x="109.341797" xlink:href="#TimesNewRomanPSMT-6c"/>
      <use x="137.125" xlink:href="#TimesNewRomanPSMT-61"/>
      <use x="181.509766" xlink:href="#TimesNewRomanPSMT-74"/>
      <use x="209.292969" xlink:href="#TimesNewRomanPSMT-61"/>
      <use x="253.677734" xlink:href="#TimesNewRomanPSMT-67"/>
      <use x="303.677734" xlink:href="#TimesNewRomanPSMT-65"/>
      <use x="348.0625" xlink:href="#TimesNewRomanPSMT-20"/>
      <use x="373.0625" xlink:href="#TimesNewRomanPSMT-28"/>
      <use x="406.363281" xlink:href="#TimesNewRomanPSMT-56"/>
      <use x="478.580078" xlink:href="#TimesNewRomanPSMT-29"/>
     </g>
    </g>
   </g>
   <g id="LineCollection_1">
    <path clip-path="url(#pd8c2d5138a)" d="M 78.555057 154.192763 
L 382.918693 154.192763 
" style="fill:none;stroke:#1f77b4;stroke-width:1.5;"/>
   </g>
   <g id="line2d_23">
    <path clip-path="url(#pd8c2d5138a)" d="M 78.555057 154.210606 
L 78.676802 154.250792 
L 78.828984 154.210606 
L 97.060366 154.130234 
L 97.121239 154.210606 
L 97.182111 154.130234 
L 97.334293 154.17042 
L 99.403966 154.090048 
L 99.525711 154.090048 
L 99.61702 154.17042 
L 99.647457 154.130234 
L 99.799639 154.090048 
L 105.521675 154.17042 
L 105.673857 154.210606 
L 105.795602 154.17042 
L 105.947784 154.210606 
L 105.97822 154.130234 
L 106.039093 154.210606 
L 110.361057 154.250792 
L 110.452366 154.331164 
L 110.482802 154.290978 
L 110.574111 154.331164 
L 110.604548 154.290978 
L 111.608948 154.37135 
L 111.730693 154.37135 
L 111.822002 154.37135 
L 112.00462 154.451722 
L 112.126366 154.411536 
L 112.308984 154.491908 
L 112.43073 154.451722 
L 112.582911 154.491908 
L 113.069893 154.57228 
L 113.191639 154.612467 
L 113.313384 154.57228 
L 113.496002 154.652653 
L 113.617748 154.652653 
L 113.76993 154.692839 
L 114.135166 154.773211 
L 114.226475 154.813397 
L 114.256911 154.773211 
L 114.34822 154.773211 
L 114.378657 154.893769 
L 114.469966 154.853583 
L 114.622148 154.893769 
L 114.896075 154.974141 
L 115.01782 155.054513 
L 115.170002 155.014327 
L 115.383057 155.134885 
L 115.474366 155.094699 
L 115.504802 155.134885 
L 115.626548 155.215257 
L 115.656984 155.175071 
L 116.083093 155.255443 
L 116.265711 155.335815 
L 117.087493 155.416187 
L 117.270111 155.49656 
L 117.422293 155.456374 
L 117.483166 155.576932 
L 117.544039 155.536746 
L 117.604911 155.456374 
L 117.665784 155.536746 
L 118.304948 155.617118 
L 118.518002 155.737676 
L 118.913675 155.777862 
L 118.944111 155.89842 
L 119.03542 155.858234 
L 119.309348 155.938606 
L 119.431093 156.059164 
L 119.491966 156.018978 
L 119.522402 156.059164 
L 119.644148 156.139536 
L 119.79633 156.219908 
L 120.009384 156.340467 
L 120.192002 156.420839 
L 120.46593 156.621769 
L 120.557239 156.661955 
L 120.70942 156.822699 
L 120.861602 156.903071 
L 121.074657 157.184374 
L 121.105093 157.144188 
L 121.13553 157.264746 
L 121.165966 157.22456 
L 121.37902 157.505862 
L 122.079057 158.590885 
L 122.596475 159.675908 
L 122.657348 159.756281 
L 122.961711 160.519816 
L 123.083457 160.801118 
L 123.448693 161.845955 
L 123.600875 162.20763 
L 124.14873 163.93563 
L 124.544402 165.221583 
L 124.879202 166.46735 
L 125.122693 167.351443 
L 125.640111 169.521491 
L 125.82273 170.244838 
L 126.583639 173.741025 
L 126.705384 174.30363 
L 128.105457 181.135258 
L 128.257639 181.818421 
L 129.201166 186.279073 
L 129.41422 187.122979 
L 130.996911 192.949955 
L 132.031748 195.481676 
L 132.062184 195.44149 
L 132.123057 195.521862 
L 132.305675 195.722793 
L 132.579602 195.923723 
L 132.701348 195.923723 
L 133.036148 195.883537 
L 133.18833 195.762979 
L 133.827493 194.758327 
L 134.52753 193.191072 
L 134.679711 192.829397 
L 135.166693 191.262141 
L 136.140657 187.002419 
L 137.632039 176.513863 
L 138.179893 171.892467 
L 139.671275 157.104001 
L 140.432184 147.901397 
L 141.345275 135.805397 
L 146.549893 61.782701 
L 148.49782 39.881306 
L 148.83262 36.947715 
L 150.141384 27.423622 
L 150.84142 24.248924 
L 151.51102 22.762047 
L 151.571893 22.681674 
L 151.876257 22.440552 
L 152.058875 22.360192 
L 152.211057 22.32 
L 152.363239 22.400372 
L 152.393675 22.360192 
L 152.454548 22.440552 
L 152.545857 22.520927 
L 153.093711 23.405023 
L 153.672002 25.213395 
L 154.737275 31.361864 
L 156.502584 48.682047 
L 157.415675 60.81823 
L 160.002766 107.072373 
L 161.433275 137.493211 
L 164.32473 203.639444 
L 167.855348 275.893959 
L 168.433639 285.297485 
L 169.803275 303.622335 
L 169.985893 305.551262 
L 170.68593 312.583814 
L 171.812075 320.701399 
L 172.846911 324.358326 
L 172.93822 324.438701 
L 173.120839 324.67982 
L 173.486075 324.599445 
L 173.729566 324.237771 
L 174.216548 323.43405 
L 174.733966 321.786425 
L 175.494875 318.370605 
L 177.04713 307.440006 
L 178.508075 292.932843 
L 179.116802 285.337677 
L 180.242948 270.66977 
L 181.582148 251.541209 
L 182.951784 230.041677 
L 184.473602 204.282421 
L 185.021457 195.521862 
L 186.573711 171.370048 
L 188.09553 148.98642 
L 189.465166 130.701769 
L 193.330584 86.014884 
L 194.334984 77.696376 
L 194.852402 73.597393 
L 195.278511 70.221768 
L 196.008984 64.716276 
L 196.495966 60.737864 
L 197.196002 56.076279 
L 198.017784 51.374518 
L 200.39182 42.413027 
L 200.939675 41.247628 
L 201.183166 40.765402 
L 201.48753 40.001857 
L 201.913639 39.559811 
L 202.004948 39.600003 
L 202.035384 39.559811 
L 202.704984 39.479439 
L 202.857166 39.399064 
L 203.009348 39.439256 
L 203.039784 39.399064 
L 203.07022 39.439256 
L 203.191966 39.519631 
L 203.344148 39.600003 
L 203.770257 40.001857 
L 204.07462 40.082233 
L 204.287675 40.202788 
L 204.378984 40.24298 
L 204.83553 41.167256 
L 205.07902 41.609303 
L 205.231202 41.930784 
L 205.626875 42.613954 
L 207.787857 48.601675 
L 208.244402 49.968 
L 208.51833 50.972648 
L 208.883566 52.700648 
L 209.066184 53.46419 
L 210.131457 58.125768 
L 210.52713 60.054701 
L 211.409784 63.952748 
L 211.86633 66.243349 
L 212.322875 68.493768 
L 214.514293 83.684094 
L 215.062148 88.345678 
L 215.305639 90.63628 
L 217.55793 113.261024 
L 218.166657 119.851536 
L 223.371275 182.983815 
L 224.375675 195.963909 
L 226.019239 216.780284 
L 226.93233 228.474418 
L 227.480184 235.426607 
L 228.119348 243.142328 
L 229.428111 257.48875 
L 230.097711 263.637218 
L 230.706439 268.94177 
L 232.167384 277.863066 
L 232.897857 281.198511 
L 233.263093 282.605029 
L 233.384839 282.926511 
L 233.658766 283.569488 
L 233.719639 283.64986 
L 234.084875 284.333029 
L 234.115311 284.333029 
L 234.29793 284.654511 
L 234.510984 284.855451 
L 234.54142 284.815259 
L 234.87622 284.533956 
L 234.96753 284.453584 
L 235.119711 284.292837 
L 235.332766 283.971355 
L 235.393639 283.931162 
L 235.728439 283.328378 
L 235.850184 283.047076 
L 236.915457 278.42568 
L 238.193784 269.263265 
L 239.289493 259.739172 
L 241.541784 234.783633 
L 242.546184 221.763348 
L 243.641893 207.457118 
L 245.985493 175.10735 
L 247.872548 146.936932 
L 249.850911 119.771164 
L 251.403166 102.571533 
L 252.559748 92.846512 
L 254.05113 83.643908 
L 254.203311 82.960745 
L 255.694693 77.495439 
L 256.607784 75.285213 
L 256.63822 75.325393 
L 256.668657 75.245027 
L 256.820839 75.124466 
L 256.942584 75.044094 
L 257.06433 74.923539 
L 257.277384 74.883353 
L 257.429566 74.762791 
L 257.581748 74.722605 
L 257.855675 74.762791 
L 258.007857 74.923539 
L 258.160039 75.003904 
L 258.31222 75.164652 
L 258.799202 75.245027 
L 258.951384 75.285213 
L 259.07313 75.365579 
L 259.40793 75.646888 
L 259.529675 75.727253 
L 259.773166 75.888001 
L 259.925348 75.92819 
L 260.07753 76.088928 
L 260.229711 76.169303 
L 261.112366 77.495439 
L 261.32542 77.937489 
L 261.568911 78.419725 
L 262.512439 81.192559 
L 262.877675 82.558884 
L 264.034257 87.541954 
L 264.460366 89.631629 
L 264.795166 91.359629 
L 265.464766 95.056748 
L 266.164802 99.316469 
L 267.990984 112.055443 
L 268.599711 116.676838 
L 269.573675 123.829956 
L 271.095493 135.001676 
L 271.825966 140.507165 
L 272.434693 145.168745 
L 274.230439 156.30028 
L 274.626111 158.309583 
L 275.447893 162.087071 
L 276.969711 167.713118 
L 277.06102 167.99442 
L 277.578439 169.601862 
L 277.852366 170.485955 
L 278.369784 172.133583 
L 278.521966 172.495257 
L 278.82633 173.339164 
L 278.856766 173.339164 
L 279.130693 174.022328 
L 279.465493 174.584931 
L 279.648111 174.946606 
L 279.708984 174.986793 
L 280.013348 175.549396 
L 280.07422 175.62977 
L 280.987311 176.674607 
L 281.048184 176.754979 
L 281.717784 177.478328 
L 281.930839 177.5587 
L 282.143893 177.679257 
L 282.17433 177.639072 
L 282.235202 177.719444 
L 282.478693 177.799816 
L 282.630875 177.920374 
L 282.783057 177.880188 
L 282.874366 177.960559 
L 282.904802 177.920374 
L 283.08742 177.799816 
L 283.117857 177.840002 
L 283.17873 177.759629 
L 283.391784 177.719444 
L 283.543966 177.598885 
L 283.75702 177.518513 
L 283.878766 177.438141 
L 283.909202 177.518513 
L 283.970075 177.397956 
L 284.061384 177.317582 
L 284.578802 176.754979 
L 284.609239 176.795164 
L 284.639675 176.714792 
L 284.791857 176.513863 
L 284.822293 176.594235 
L 284.883166 176.473676 
L 284.974475 176.393304 
L 285.157093 176.192373 
L 285.704948 175.30828 
L 286.009311 174.785862 
L 286.344111 174.183072 
L 286.587602 173.660653 
L 286.86153 173.138234 
L 287.287639 172.294327 
L 287.53113 171.812095 
L 287.86593 171.209305 
L 287.926802 171.128931 
L 288.20073 170.686885 
L 289.235566 169.481304 
L 289.600802 169.400932 
L 289.813857 169.280373 
L 290.45302 169.360745 
L 290.666075 169.642048 
L 291.731348 171.209305 
L 292.12702 172.374699 
L 292.309639 172.77656 
L 292.674875 173.861584 
L 292.735748 173.941956 
L 293.100984 175.147537 
L 293.405348 176.192373 
L 294.13582 178.402606 
L 294.440184 179.48763 
L 294.531493 179.768932 
L 295.14022 181.738048 
L 295.535893 183.064189 
L 296.114184 184.912745 
L 297.514257 188.32856 
L 297.849057 188.931351 
L 298.031675 189.132281 
L 298.701275 190.177118 
L 298.91433 190.45842 
L 299.15782 190.699537 
L 299.188257 190.659351 
L 299.310002 190.739723 
L 299.523057 190.860281 
L 299.553493 190.820095 
L 299.614366 190.900467 
L 300.101348 191.382699 
L 300.618766 191.302327 
L 300.801384 191.221955 
L 301.531857 191.141583 
L 302.079711 190.578979 
L 302.231893 190.498606 
L 302.444948 190.378048 
L 302.688439 190.297676 
L 302.992802 189.976188 
L 303.023239 190.05656 
L 303.053675 189.936002 
L 303.084111 189.936002 
L 303.662402 189.293025 
L 303.692839 189.333211 
L 303.753711 189.252839 
L 303.814584 189.212653 
L 303.997202 188.931351 
L 304.027639 188.971537 
L 304.058075 188.891165 
L 304.484184 188.167816 
L 305.27553 186.359443 
L 305.488584 185.917398 
L 306.371239 183.305303 
L 306.706039 182.099722 
L 307.010402 181.014698 
L 307.61913 178.16149 
L 308.319166 175.026978 
L 308.410475 174.544746 
L 310.63233 162.288002 
L 311.332366 157.62642 
L 312.428075 149.709768 
L 312.97593 145.650978 
L 316.141311 125.477582 
L 317.32833 119.771164 
L 319.702366 110.809675 
L 320.858948 107.51442 
L 321.072002 106.911629 
L 321.315493 106.469582 
L 321.558984 105.947164 
L 321.863348 105.384556 
L 322.380766 104.299539 
L 322.959057 103.375257 
L 323.324293 102.692094 
L 323.506911 102.290233 
L 323.963457 101.365954 
L 324.785239 100.120184 
L 325.02873 99.758509 
L 325.180911 99.678144 
L 325.333093 99.557582 
L 326.002693 99.637958 
L 326.154875 99.718323 
L 326.185311 99.678144 
L 326.215748 99.798698 
L 326.246184 99.758509 
L 327.433202 101.486509 
L 329.228948 106.509768 
L 330.142039 110.568559 
L 334.798802 135.725025 
L 335.529275 139.864187 
L 335.924948 141.873489 
L 336.472802 144.766885 
L 339.059893 157.867536 
L 339.546875 160.198327 
L 339.942548 162.087071 
L 342.10353 170.204653 
L 342.529639 171.611164 
L 342.955748 172.897117 
L 343.047057 173.138234 
L 343.35142 173.941956 
L 343.473166 174.223257 
L 343.68622 174.785862 
L 343.990584 175.549396 
L 344.173202 175.951258 
L 344.629748 176.875536 
L 346.547239 179.568002 
L 346.821166 180.010048 
L 348.282111 181.818421 
L 348.403857 181.818421 
L 348.586475 181.898791 
L 348.70822 181.938978 
L 348.829966 181.898791 
L 349.012584 181.979165 
L 349.560439 182.059535 
L 349.682184 182.139909 
L 349.71262 182.099722 
L 351.47793 182.019351 
L 351.751857 181.818421 
L 351.873602 181.778234 
L 352.025784 181.657677 
L 352.512766 181.175442 
L 352.634511 181.095072 
L 353.212802 180.411908 
L 353.243239 180.492281 
L 353.273675 180.371723 
L 353.304111 180.371723 
L 354.49113 178.965211 
L 354.521566 179.005396 
L 354.552002 178.925025 
L 354.886802 178.643722 
L 354.917239 178.683909 
L 354.947675 178.643722 
L 355.130293 178.402606 
L 355.312911 178.362421 
L 355.465093 178.241862 
L 355.647711 178.121303 
L 355.678148 178.16149 
L 355.73902 178.081118 
L 355.952075 177.960559 
L 356.16513 177.880188 
L 356.347748 177.799816 
L 356.469493 177.799816 
L 356.773857 177.719444 
L 356.926039 177.639072 
L 356.986911 177.679257 
L 357.017348 177.639072 
L 357.199966 177.5587 
L 357.321711 177.5587 
L 357.960875 177.478328 
L 358.113057 177.438141 
L 358.295675 177.357769 
L 358.447857 177.23721 
L 358.478293 177.317582 
L 358.50873 177.197025 
L 358.539166 177.197025 
L 358.813093 177.116653 
L 359.026148 176.996095 
L 359.117457 176.996095 
L 359.42182 176.754979 
L 359.51313 176.674607 
L 359.787057 176.473676 
L 359.908802 176.473676 
L 360.09142 176.393304 
L 360.18273 176.353117 
L 360.334911 176.23256 
L 360.487093 176.152188 
L 361.156693 175.388652 
L 361.18713 175.428839 
L 361.248002 175.348467 
L 361.400184 175.10735 
L 361.43062 175.147537 
L 361.491493 175.067165 
L 361.76542 174.625118 
L 362.10022 174.022328 
L 362.404584 173.499909 
L 362.86113 172.736373 
L 363.408984 171.530793 
L 363.469857 171.450421 
L 363.743784 170.928002 
L 364.078584 170.285025 
L 364.10902 170.285025 
L 364.352511 169.762607 
L 364.717748 169.079444 
L 364.77862 168.999072 
L 366.665675 166.668281 
L 366.696111 166.668281 
L 366.756984 166.507536 
L 366.817857 166.587909 
L 366.848293 166.587909 
L 367.000475 166.427164 
L 367.152657 166.306606 
L 367.609202 165.86456 
L 367.700511 165.86456 
L 367.852693 165.663629 
L 368.035311 165.583257 
L 368.309239 165.502885 
L 368.583166 165.301955 
L 368.644039 165.261769 
L 368.79622 165.14121 
L 368.917966 165.060839 
L 369.22233 164.819723 
L 369.55713 164.73935 
L 369.831057 164.53842 
L 369.922366 164.53842 
L 370.409348 164.056188 
L 370.531093 163.975816 
L 371.626802 162.689862 
L 371.687675 162.689862 
L 371.839857 162.448746 
L 371.931166 162.368374 
L 374.15302 159.274048 
L 374.609566 158.309583 
L 374.670439 158.229211 
L 374.91393 157.746978 
L 378.140184 148.946234 
L 378.535857 147.821025 
L 378.657602 147.499536 
L 379.022839 146.494885 
L 379.60113 144.726699 
L 379.875057 143.842606 
L 379.966366 143.601489 
L 380.818584 140.667909 
L 380.909893 140.386606 
L 381.427311 138.738979 
L 382.157784 136.287628 
L 382.675202 134.640001 
L 382.918693 133.83628 
L 382.918693 133.83628 
" style="fill:none;stroke:#0000ff;stroke-linecap:square;stroke-width:1.5;"/>
   </g>
   <g id="line2d_24">
    <path clip-path="url(#pd8c2d5138a)" d="M 78.555057 154.225716 
L 78.707239 154.245809 
L 78.85942 154.225716 
L 86.042402 154.145344 
L 86.194584 154.125251 
L 86.377202 154.125251 
L 98.308257 154.024786 
L 98.521311 154.004693 
L 98.734366 154.024786 
L 98.916984 154.004693 
L 99.099602 154.044879 
L 99.251784 154.004693 
L 99.464839 154.044879 
L 99.647457 154.044879 
L 99.921384 154.105158 
L 100.317057 154.205623 
L 100.864911 154.466832 
L 100.986657 154.507018 
L 101.321457 154.768228 
L 101.443202 154.868693 
L 102.904148 156.97846 
L 104.699893 162.021809 
L 106.343457 168.953902 
L 107.40873 173.997251 
L 110.178439 186.314275 
L 111.061093 188.946461 
L 111.487202 190.011391 
L 112.09593 190.975856 
L 112.369857 191.397809 
L 112.856839 191.859949 
L 113.130766 191.920228 
L 113.34382 191.819763 
L 114.10473 191.196879 
L 114.500402 190.493623 
L 114.865639 189.529158 
L 116.052657 185.269438 
L 117.422293 177.453251 
L 119.522402 161.419018 
L 121.987748 139.336786 
L 123.05302 129.250087 
L 125.82273 106.384227 
L 128.348948 93.605064 
L 129.292475 90.309805 
L 129.657711 89.485994 
L 129.901202 89.144416 
L 130.327311 88.742556 
L 130.814293 88.280416 
L 131.057784 88.220134 
L 131.42302 88.340692 
L 131.879566 88.24023 
L 132.366548 87.778084 
L 132.579602 87.737905 
L 133.370948 88.139759 
L 133.76662 88.24023 
L 134.19273 88.642091 
L 135.044948 89.586456 
L 135.318875 89.646742 
L 135.471057 89.727107 
L 136.658075 91.133619 
L 136.810257 91.213994 
L 137.44942 92.238739 
L 138.423384 94.408788 
L 138.910366 96.397998 
L 140.432184 103.952971 
L 142.014875 112.874274 
L 143.536693 123.624041 
L 146.032475 142.531577 
L 146.58033 146.851577 
L 147.645602 156.174739 
L 150.963166 183.702183 
L 152.911093 197.064042 
L 154.311166 203.915763 
L 155.650366 207.994647 
L 156.776511 209.300693 
L 156.989566 209.320783 
L 157.598293 209.220321 
L 158.237457 208.697906 
L 158.63313 207.954461 
L 159.363602 206.748883 
L 159.820148 205.965251 
L 160.794111 203.795205 
L 161.950693 200.43967 
L 163.472511 195.034647 
L 164.385602 190.975856 
L 165.207384 187.218461 
L 167.185748 178.598554 
L 168.25102 175.423856 
L 168.372766 175.222926 
L 169.468475 173.936973 
L 170.229384 174.037436 
L 170.746802 174.499576 
L 171.477275 176.167297 
L 171.903384 177.192042 
L 172.299057 178.538275 
L 173.638257 184.264785 
L 175.647057 195.436507 
L 178.660257 216.051949 
L 179.360293 220.351859 
L 180.090766 224.069069 
L 180.72993 226.178833 
L 182.130002 229.574554 
L 183.012657 230.579202 
L 183.256148 230.47874 
L 183.438766 230.257717 
L 184.230111 228.449341 
L 184.930148 225.797066 
L 185.66062 221.376597 
L 186.391093 215.308504 
L 187.273748 206.166182 
L 188.826002 186.434832 
L 190.226075 165.578274 
L 194.12193 100.617533 
L 195.887239 76.505901 
L 197.409057 60.652506 
L 198.80913 49.58125 
L 199.539602 44.578084 
L 200.178766 40.740313 
L 201.183166 36.018459 
L 201.883202 34.471293 
L 202.644111 33.607293 
L 202.765857 33.627389 
L 202.857166 33.667569 
L 203.465893 34.189991 
L 203.678948 34.370834 
L 204.470293 35.596509 
L 204.896402 36.98293 
L 206.144293 44.136034 
L 209.066184 66.137901 
L 209.735784 71.341994 
L 210.679311 78.97734 
L 212.77942 96.056413 
L 215.944802 119.846553 
L 219.688475 148.619763 
L 222.945166 169.436134 
L 223.371275 171.907577 
L 226.59753 190.413251 
L 227.388875 194.009902 
L 229.27593 201.062554 
L 230.493384 203.996135 
L 230.828184 204.619019 
L 231.467348 205.663856 
L 231.589093 205.864786 
L 232.045639 206.648411 
L 234.480548 211.691766 
L 234.87622 212.616042 
L 235.758875 214.645438 
L 236.64153 215.991673 
L 237.128511 216.715016 
L 237.21982 216.815487 
L 237.585057 217.297713 
L 238.132911 217.840225 
L 238.954693 218.262185 
L 239.746039 218.161713 
L 240.050402 218.081348 
L 240.933057 218.18181 
L 241.206984 218.242089 
L 241.450475 218.322461 
L 241.633093 218.38274 
L 242.059202 218.483202 
L 242.24182 218.563577 
L 242.515748 218.664039 
L 243.58102 219.44767 
L 243.854948 219.889713 
L 244.433239 220.7939 
L 244.707166 221.336411 
L 244.92022 221.778461 
L 245.650693 223.405996 
L 245.955057 223.948507 
L 246.25942 224.571391 
L 247.294257 226.379766 
L 247.476875 226.62088 
L 248.60302 227.926926 
L 249.850911 227.846554 
L 250.216148 227.525066 
L 250.307457 227.444694 
L 251.737966 225.375109 
L 252.590184 222.843394 
L 253.442402 219.025713 
L 255.39033 206.809158 
L 256.546911 196.78274 
L 259.347057 166.040414 
L 261.051493 143.275018 
L 262.542875 122.117064 
L 264.916911 89.244878 
L 266.590911 68.609346 
L 267.869239 55.508695 
L 268.751893 48.355575 
L 269.725857 42.046363 
L 270.243275 39.85623 
L 271.065057 37.485256 
L 271.186802 37.304412 
L 271.491166 36.942738 
L 272.03902 36.701615 
L 272.191202 36.681532 
L 272.434693 36.781991 
L 272.739057 37.103485 
L 273.317348 38.329157 
L 273.743457 39.414183 
L 274.413057 41.965987 
L 275.569639 48.636878 
L 277.274075 61.757625 
L 281.687348 106.565064 
L 286.496293 156.194832 
L 287.19633 162.604506 
L 290.148657 188.886181 
L 291.640039 199.816786 
L 292.827057 207.632972 
L 293.922766 213.480042 
L 294.683675 216.051949 
L 295.90113 218.985534 
L 296.205493 219.548135 
L 296.57073 220.251388 
L 296.662039 220.432225 
L 297.57513 221.477069 
L 297.757748 221.577534 
L 298.092548 221.677996 
L 298.609966 221.597624 
L 298.91433 221.376597 
L 299.58393 220.813996 
L 300.314402 219.668697 
L 300.679639 218.844876 
L 301.197057 217.579022 
L 301.775348 215.750554 
L 302.93193 211.571205 
L 303.631966 207.81381 
L 304.118948 204.699391 
L 305.884257 191.076321 
L 308.28873 172.912227 
L 310.236657 160.776042 
L 311.423675 155.089716 
L 312.915057 148.720227 
L 313.31073 147.052507 
L 314.406439 142.49139 
L 314.832548 140.703111 
L 315.89782 136.925623 
L 316.354366 135.418646 
L 316.871784 133.811204 
L 318.089239 130.294926 
L 318.424039 129.39074 
L 319.945857 125.673531 
L 320.524148 124.287109 
L 321.132875 122.398367 
L 321.437239 121.614739 
L 322.289457 119.685809 
L 322.715566 118.640971 
L 323.050366 118.018088 
L 324.26782 115.385902 
L 324.633057 114.562088 
L 324.815675 114.160227 
L 327.341893 107.770646 
L 327.798439 107.007111 
L 328.224548 106.163204 
L 328.559348 105.54032 
L 329.228948 104.455294 
L 329.320257 104.354832 
L 330.263784 103.289905 
L 331.237748 102.767483 
L 331.846475 102.847855 
L 332.029093 102.94832 
L 332.120402 102.988506 
L 332.455202 103.269808 
L 332.546511 103.330084 
L 332.820439 103.631483 
L 334.342257 105.821622 
L 335.772766 109.900506 
L 337.568511 116.209716 
L 339.029457 122.438553 
L 339.912111 127.019762 
L 342.316584 141.968972 
L 344.599311 157.762088 
L 345.45153 164.734367 
L 346.45593 173.032786 
L 350.351784 200.520042 
L 352.117093 210.345531 
L 353.06062 214.745903 
L 354.978111 220.693438 
L 356.378184 223.245255 
L 357.07822 223.164883 
L 357.41302 222.90367 
L 357.686948 222.602272 
L 359.056584 219.6486 
L 359.391384 218.463112 
L 359.75662 216.875763 
L 361.034948 209.54181 
L 361.734984 204.840042 
L 362.495893 199.656042 
L 363.408984 192.764135 
L 364.169893 186.454926 
L 365.478657 175.383669 
L 366.87873 163.448413 
L 368.278802 150.689344 
L 372.174657 115.667204 
L 374.122584 102.325433 
L 374.974802 97.402646 
L 376.100948 92.720968 
L 376.861857 90.149064 
L 377.896693 87.115018 
L 378.322802 86.291207 
L 378.718475 85.728599 
L 379.662002 85.206184 
L 379.966366 85.286549 
L 380.27073 85.387021 
L 380.970766 85.929532 
L 381.18382 86.210832 
L 381.640366 86.97437 
L 382.340402 88.521529 
L 382.705639 89.485994 
L 382.918693 90.068692 
L 382.918693 90.068692 
" style="fill:none;stroke:#ff0000;stroke-linecap:square;stroke-width:1.5;"/>
   </g>
   <g id="line2d_25">
    <path clip-path="url(#pd8c2d5138a)" d="M 123.783493 162.770234 
" style="fill:none;stroke:#ffffff;stroke-linecap:square;stroke-width:1.5;"/>
    <defs>
     <path d="M 0 -5 
L -1.12257 -1.545085 
L -4.755283 -1.545085 
L -1.816356 0.59017 
L -2.938926 4.045085 
L -0 1.90983 
L 2.938926 4.045085 
L 1.816356 0.59017 
L 4.755283 -1.545085 
L 1.12257 -1.545085 
z
" id="md08feb1aaa" style="stroke:#ffffff;stroke-linejoin:bevel;"/>
    </defs>
    <g clip-path="url(#pd8c2d5138a)">
     <use style="fill:#0000ff;stroke:#ffffff;stroke-linejoin:bevel;" x="123.783493" xlink:href="#md08feb1aaa" y="162.770234"/>
    </g>
   </g>
   <g id="line2d_26">
    <path clip-path="url(#pd8c2d5138a)" d="M 104.182475 160.293809 
" style="fill:none;stroke:#ffffff;stroke-linecap:square;stroke-width:1.5;"/>
    <defs>
     <path d="M 0 -5 
L -1.12257 -1.545085 
L -4.755283 -1.545085 
L -1.816356 0.59017 
L -2.938926 4.045085 
L -0 1.90983 
L 2.938926 4.045085 
L 1.816356 0.59017 
L 4.755283 -1.545085 
L 1.12257 -1.545085 
z
" id="m043da94752" style="stroke:#ffffff;stroke-linejoin:bevel;"/>
    </defs>
    <g clip-path="url(#pd8c2d5138a)">
     <use style="fill:#ff0000;stroke:#ffffff;stroke-linejoin:bevel;" x="104.182475" xlink:href="#m043da94752" y="160.293809"/>
    </g>
   </g>
   <g id="patch_3">
    <path d="M 63.336875 339.84 
L 63.336875 7.2 
" style="fill:none;stroke:#000000;stroke-linecap:square;stroke-linejoin:miter;stroke-width:0.8;"/>
   </g>
   <g id="patch_4">
    <path d="M 398.136875 339.84 
L 398.136875 7.2 
" style="fill:none;stroke:#000000;stroke-linecap:square;stroke-linejoin:miter;stroke-width:0.8;"/>
   </g>
   <g id="patch_5">
    <path d="M 63.336875 339.84 
L 398.136875 339.84 
" style="fill:none;stroke:#000000;stroke-linecap:square;stroke-linejoin:miter;stroke-width:0.8;"/>
   </g>
   <g id="patch_6">
    <path d="M 63.336875 7.2 
L 398.136875 7.2 
" style="fill:none;stroke:#000000;stroke-linecap:square;stroke-linejoin:miter;stroke-width:0.8;"/>
   </g>
   <g id="text_14">
    <g id="patch_7">
     <path d="M 75.036875 331.242688 
L 166.79375 331.242688 
L 166.79375 293.760312 
L 75.036875 293.760312 
z
" style="fill:#ffffff;stroke:#000000;stroke-linejoin:miter;stroke-width:0.75;"/>
    </g>
    <!-- Auto_00140 -->
    <g transform="translate(80.076875 308.521562)scale(0.14 -0.14)">
     <defs>
      <path d="M 2928 1419 
L 1288 1419 
L 1000 750 
Q 894 503 894 381 
Q 894 284 986 211 
Q 1078 138 1384 116 
L 1384 0 
L 50 0 
L 50 116 
Q 316 163 394 238 
Q 553 388 747 847 
L 2238 4334 
L 2347 4334 
L 3822 809 
Q 4000 384 4145 257 
Q 4291 131 4550 116 
L 4550 0 
L 2878 0 
L 2878 116 
Q 3131 128 3220 200 
Q 3309 272 3309 375 
Q 3309 513 3184 809 
L 2928 1419 
z
M 2841 1650 
L 2122 3363 
L 1384 1650 
L 2841 1650 
z
" id="TimesNewRomanPSMT-41" transform="scale(0.015625)"/>
      <path d="M 2709 2863 
L 2709 1128 
Q 2709 631 2732 520 
Q 2756 409 2807 365 
Q 2859 322 2928 322 
Q 3025 322 3147 375 
L 3191 266 
L 2334 -88 
L 2194 -88 
L 2194 519 
Q 1825 119 1631 15 
Q 1438 -88 1222 -88 
Q 981 -88 804 51 
Q 628 191 559 409 
Q 491 628 491 1028 
L 491 2306 
Q 491 2509 447 2587 
Q 403 2666 317 2708 
Q 231 2750 6 2747 
L 6 2863 
L 1009 2863 
L 1009 947 
Q 1009 547 1148 422 
Q 1288 297 1484 297 
Q 1619 297 1789 381 
Q 1959 466 2194 703 
L 2194 2325 
Q 2194 2569 2105 2655 
Q 2016 2741 1734 2747 
L 1734 2863 
L 2709 2863 
z
" id="TimesNewRomanPSMT-75" transform="scale(0.015625)"/>
      <path d="M 3256 -1381 
L -53 -1381 
L -53 -1119 
L 3256 -1119 
L 3256 -1381 
z
" id="TimesNewRomanPSMT-5f" transform="scale(0.015625)"/>
     </defs>
     <use xlink:href="#TimesNewRomanPSMT-41"/>
     <use x="72.216797" xlink:href="#TimesNewRomanPSMT-75"/>
     <use x="122.216797" xlink:href="#TimesNewRomanPSMT-74"/>
     <use x="150" xlink:href="#TimesNewRomanPSMT-6f"/>
     <use x="200" xlink:href="#TimesNewRomanPSMT-5f"/>
     <use x="250" xlink:href="#TimesNewRomanPSMT-30"/>
     <use x="300" xlink:href="#TimesNewRomanPSMT-30"/>
     <use x="350" xlink:href="#TimesNewRomanPSMT-31"/>
     <use x="400" xlink:href="#TimesNewRomanPSMT-34"/>
     <use x="450" xlink:href="#TimesNewRomanPSMT-30"/>
    </g>
    <!-- Vs: 310.36m/s -->
    <g transform="translate(80.076875 323.208)scale(0.14 -0.14)">
     <defs>
      <path d="M 903 2950 
Q 1047 2950 1148 2848 
Q 1250 2747 1250 2603 
Q 1250 2459 1148 2357 
Q 1047 2256 903 2256 
Q 759 2256 657 2357 
Q 556 2459 556 2603 
Q 556 2747 657 2848 
Q 759 2950 903 2950 
z
M 897 609 
Q 1044 609 1145 506 
Q 1247 403 1247 259 
Q 1247 116 1144 14 
Q 1041 -88 897 -88 
Q 753 -88 651 14 
Q 550 116 550 259 
Q 550 403 651 506 
Q 753 609 897 609 
z
" id="TimesNewRomanPSMT-3a" transform="scale(0.015625)"/>
      <path d="M 2869 4325 
L 2869 4209 
Q 2456 4169 2195 4045 
Q 1934 3922 1679 3669 
Q 1425 3416 1258 3105 
Q 1091 2794 978 2366 
Q 1428 2675 1881 2675 
Q 2316 2675 2634 2325 
Q 2953 1975 2953 1425 
Q 2953 894 2631 456 
Q 2244 -75 1606 -75 
Q 1172 -75 869 213 
Q 275 772 275 1663 
Q 275 2231 503 2743 
Q 731 3256 1154 3653 
Q 1578 4050 1965 4187 
Q 2353 4325 2688 4325 
L 2869 4325 
z
M 925 2138 
Q 869 1716 869 1456 
Q 869 1156 980 804 
Q 1091 453 1309 247 
Q 1469 100 1697 100 
Q 1969 100 2183 356 
Q 2397 613 2397 1088 
Q 2397 1622 2184 2012 
Q 1972 2403 1581 2403 
Q 1463 2403 1327 2353 
Q 1191 2303 925 2138 
z
" id="TimesNewRomanPSMT-36" transform="scale(0.015625)"/>
      <path d="M 1794 4444 
L 259 -88 
L 9 -88 
L 1544 4444 
L 1794 4444 
z
" id="TimesNewRomanPSMT-2f" transform="scale(0.015625)"/>
     </defs>
     <use xlink:href="#TimesNewRomanPSMT-56"/>
     <use x="72.216797" xlink:href="#TimesNewRomanPSMT-73"/>
     <use x="111.132812" xlink:href="#TimesNewRomanPSMT-3a"/>
     <use x="138.916016" xlink:href="#TimesNewRomanPSMT-20"/>
     <use x="163.916016" xlink:href="#TimesNewRomanPSMT-33"/>
     <use x="213.916016" xlink:href="#TimesNewRomanPSMT-31"/>
     <use x="263.916016" xlink:href="#TimesNewRomanPSMT-30"/>
     <use x="313.916016" xlink:href="#TimesNewRomanPSMT-2e"/>
     <use x="338.916016" xlink:href="#TimesNewRomanPSMT-33"/>
     <use x="388.916016" xlink:href="#TimesNewRomanPSMT-36"/>
     <use x="438.916016" xlink:href="#TimesNewRomanPSMT-6d"/>
     <use x="516.699219" xlink:href="#TimesNewRomanPSMT-2f"/>
     <use x="544.482422" xlink:href="#TimesNewRomanPSMT-73"/>
    </g>
   </g>
  </g>
 </g>
 <defs>
  <clipPath id="pd8c2d5138a">
   <rect height="332.64" width="334.8" x="63.336875" y="7.2"/>
  </clipPath>
 </defs>
</svg>
