<?xml version="1.0" encoding="utf-8" standalone="no"?>
<!DOCTYPE svg PUBLIC "-//W3C//DTD SVG 1.1//EN"
  "http://www.w3.org/Graphics/SVG/1.1/DTD/svg11.dtd">
<svg height="383.471875pt" version="1.1" viewBox="0 0 421.086875 383.471875" width="421.086875pt" xmlns="http://www.w3.org/2000/svg" xmlns:xlink="http://www.w3.org/1999/xlink">
 <metadata>
  <rdf:RDF xmlns:cc="http://creativecommons.org/ns#" xmlns:dc="http://purl.org/dc/elements/1.1/" xmlns:rdf="http://www.w3.org/1999/02/22-rdf-syntax-ns#">
   <cc:Work>
    <dc:type rdf:resource="http://purl.org/dc/dcmitype/StillImage"/>
    <dc:date>2021-06-11T14:39:37.782905</dc:date>
    <dc:format>image/svg+xml</dc:format>
    <dc:creator>
     <cc:Agent>
      <dc:title>Matplotlib v3.4.2, https://matplotlib.org/</dc:title>
     </cc:Agent>
    </dc:creator>
   </cc:Work>
  </rdf:RDF>
 </metadata>
 <defs>
  <style type="text/css">*{stroke-linecap:butt;stroke-linejoin:round;}</style>
 </defs>
 <g id="figure_1">
  <g id="patch_1">
   <path d="M 0 383.471875 
L 421.086875 383.471875 
L 421.086875 0 
L 0 0 
z
" style="fill:#ffffff;"/>
  </g>
  <g id="axes_1">
   <g id="patch_2">
    <path d="M 63.336875 339.84 
L 398.136875 339.84 
L 398.136875 7.2 
L 63.336875 7.2 
z
" style="fill:#ffffff;"/>
   </g>
   <g id="matplotlib.axis_1">
    <g id="xtick_1">
     <g id="line2d_1">
      <path clip-path="url(#p27f027f1b9)" d="M 93.773239 339.84 
L 93.773239 7.2 
" style="fill:none;stroke:#000000;stroke-dasharray:0.5,0.825;stroke-dashoffset:0;stroke-width:0.5;"/>
     </g>
     <g id="line2d_2">
      <defs>
       <path d="M 0 0 
L 0 3.5 
" id="md7ee91769f" style="stroke:#000000;stroke-width:0.8;"/>
      </defs>
      <g>
       <use style="stroke:#000000;stroke-width:0.8;" x="93.773239" xlink:href="#md7ee91769f" y="339.84"/>
      </g>
     </g>
     <g id="text_1">
      <!-- 0.000 -->
      <g transform="translate(78.023239 356.56125)scale(0.14 -0.14)">
       <defs>
        <path d="M 231 2094 
Q 231 2819 450 3342 
Q 669 3866 1031 4122 
Q 1313 4325 1613 4325 
Q 2100 4325 2488 3828 
Q 2972 3213 2972 2159 
Q 2972 1422 2759 906 
Q 2547 391 2217 158 
Q 1888 -75 1581 -75 
Q 975 -75 572 641 
Q 231 1244 231 2094 
z
M 844 2016 
Q 844 1141 1059 588 
Q 1238 122 1591 122 
Q 1759 122 1940 273 
Q 2122 425 2216 781 
Q 2359 1319 2359 2297 
Q 2359 3022 2209 3506 
Q 2097 3866 1919 4016 
Q 1791 4119 1609 4119 
Q 1397 4119 1231 3928 
Q 1006 3669 925 3112 
Q 844 2556 844 2016 
z
" id="TimesNewRomanPSMT-30" transform="scale(0.015625)"/>
        <path d="M 800 606 
Q 947 606 1047 504 
Q 1147 403 1147 259 
Q 1147 116 1045 14 
Q 944 -88 800 -88 
Q 656 -88 554 14 
Q 453 116 453 259 
Q 453 406 554 506 
Q 656 606 800 606 
z
" id="TimesNewRomanPSMT-2e" transform="scale(0.015625)"/>
       </defs>
       <use xlink:href="#TimesNewRomanPSMT-30"/>
       <use x="50" xlink:href="#TimesNewRomanPSMT-2e"/>
       <use x="75" xlink:href="#TimesNewRomanPSMT-30"/>
       <use x="125" xlink:href="#TimesNewRomanPSMT-30"/>
       <use x="175" xlink:href="#TimesNewRomanPSMT-30"/>
      </g>
     </g>
    </g>
    <g id="xtick_2">
     <g id="line2d_3">
      <path clip-path="url(#p27f027f1b9)" d="M 154.645966 339.84 
L 154.645966 7.2 
" style="fill:none;stroke:#000000;stroke-dasharray:0.5,0.825;stroke-dashoffset:0;stroke-width:0.5;"/>
     </g>
     <g id="line2d_4">
      <g>
       <use style="stroke:#000000;stroke-width:0.8;" x="154.645966" xlink:href="#md7ee91769f" y="339.84"/>
      </g>
     </g>
     <g id="text_2">
      <!-- 0.001 -->
      <g transform="translate(138.895966 356.56125)scale(0.14 -0.14)">
       <defs>
        <path d="M 750 3822 
L 1781 4325 
L 1884 4325 
L 1884 747 
Q 1884 391 1914 303 
Q 1944 216 2037 169 
Q 2131 122 2419 116 
L 2419 0 
L 825 0 
L 825 116 
Q 1125 122 1212 167 
Q 1300 213 1334 289 
Q 1369 366 1369 747 
L 1369 3034 
Q 1369 3497 1338 3628 
Q 1316 3728 1258 3775 
Q 1200 3822 1119 3822 
Q 1003 3822 797 3725 
L 750 3822 
z
" id="TimesNewRomanPSMT-31" transform="scale(0.015625)"/>
       </defs>
       <use xlink:href="#TimesNewRomanPSMT-30"/>
       <use x="50" xlink:href="#TimesNewRomanPSMT-2e"/>
       <use x="75" xlink:href="#TimesNewRomanPSMT-30"/>
       <use x="125" xlink:href="#TimesNewRomanPSMT-30"/>
       <use x="175" xlink:href="#TimesNewRomanPSMT-31"/>
      </g>
     </g>
    </g>
    <g id="xtick_3">
     <g id="line2d_5">
      <path clip-path="url(#p27f027f1b9)" d="M 215.518693 339.84 
L 215.518693 7.2 
" style="fill:none;stroke:#000000;stroke-dasharray:0.5,0.825;stroke-dashoffset:0;stroke-width:0.5;"/>
     </g>
     <g id="line2d_6">
      <g>
       <use style="stroke:#000000;stroke-width:0.8;" x="215.518693" xlink:href="#md7ee91769f" y="339.84"/>
      </g>
     </g>
     <g id="text_3">
      <!-- 0.002 -->
      <g transform="translate(199.768693 356.56125)scale(0.14 -0.14)">
       <defs>
        <path d="M 2934 816 
L 2638 0 
L 138 0 
L 138 116 
Q 1241 1122 1691 1759 
Q 2141 2397 2141 2925 
Q 2141 3328 1894 3587 
Q 1647 3847 1303 3847 
Q 991 3847 742 3664 
Q 494 3481 375 3128 
L 259 3128 
Q 338 3706 661 4015 
Q 984 4325 1469 4325 
Q 1984 4325 2329 3994 
Q 2675 3663 2675 3213 
Q 2675 2891 2525 2569 
Q 2294 2063 1775 1497 
Q 997 647 803 472 
L 1909 472 
Q 2247 472 2383 497 
Q 2519 522 2628 598 
Q 2738 675 2819 816 
L 2934 816 
z
" id="TimesNewRomanPSMT-32" transform="scale(0.015625)"/>
       </defs>
       <use xlink:href="#TimesNewRomanPSMT-30"/>
       <use x="50" xlink:href="#TimesNewRomanPSMT-2e"/>
       <use x="75" xlink:href="#TimesNewRomanPSMT-30"/>
       <use x="125" xlink:href="#TimesNewRomanPSMT-30"/>
       <use x="175" xlink:href="#TimesNewRomanPSMT-32"/>
      </g>
     </g>
    </g>
    <g id="xtick_4">
     <g id="line2d_7">
      <path clip-path="url(#p27f027f1b9)" d="M 276.39142 339.84 
L 276.39142 7.2 
" style="fill:none;stroke:#000000;stroke-dasharray:0.5,0.825;stroke-dashoffset:0;stroke-width:0.5;"/>
     </g>
     <g id="line2d_8">
      <g>
       <use style="stroke:#000000;stroke-width:0.8;" x="276.39142" xlink:href="#md7ee91769f" y="339.84"/>
      </g>
     </g>
     <g id="text_4">
      <!-- 0.003 -->
      <g transform="translate(260.64142 356.56125)scale(0.14 -0.14)">
       <defs>
        <path d="M 325 3431 
Q 506 3859 782 4092 
Q 1059 4325 1472 4325 
Q 1981 4325 2253 3994 
Q 2459 3747 2459 3466 
Q 2459 3003 1878 2509 
Q 2269 2356 2469 2072 
Q 2669 1788 2669 1403 
Q 2669 853 2319 450 
Q 1863 -75 997 -75 
Q 569 -75 414 31 
Q 259 138 259 259 
Q 259 350 332 419 
Q 406 488 509 488 
Q 588 488 669 463 
Q 722 447 909 348 
Q 1097 250 1169 231 
Q 1284 197 1416 197 
Q 1734 197 1970 444 
Q 2206 691 2206 1028 
Q 2206 1275 2097 1509 
Q 2016 1684 1919 1775 
Q 1784 1900 1550 2001 
Q 1316 2103 1072 2103 
L 972 2103 
L 972 2197 
Q 1219 2228 1467 2375 
Q 1716 2522 1828 2728 
Q 1941 2934 1941 3181 
Q 1941 3503 1739 3701 
Q 1538 3900 1238 3900 
Q 753 3900 428 3381 
L 325 3431 
z
" id="TimesNewRomanPSMT-33" transform="scale(0.015625)"/>
       </defs>
       <use xlink:href="#TimesNewRomanPSMT-30"/>
       <use x="50" xlink:href="#TimesNewRomanPSMT-2e"/>
       <use x="75" xlink:href="#TimesNewRomanPSMT-30"/>
       <use x="125" xlink:href="#TimesNewRomanPSMT-30"/>
       <use x="175" xlink:href="#TimesNewRomanPSMT-33"/>
      </g>
     </g>
    </g>
    <g id="xtick_5">
     <g id="line2d_9">
      <path clip-path="url(#p27f027f1b9)" d="M 337.264148 339.84 
L 337.264148 7.2 
" style="fill:none;stroke:#000000;stroke-dasharray:0.5,0.825;stroke-dashoffset:0;stroke-width:0.5;"/>
     </g>
     <g id="line2d_10">
      <g>
       <use style="stroke:#000000;stroke-width:0.8;" x="337.264148" xlink:href="#md7ee91769f" y="339.84"/>
      </g>
     </g>
     <g id="text_5">
      <!-- 0.004 -->
      <g transform="translate(321.514148 356.56125)scale(0.14 -0.14)">
       <defs>
        <path d="M 2978 1563 
L 2978 1119 
L 2409 1119 
L 2409 0 
L 1894 0 
L 1894 1119 
L 100 1119 
L 100 1519 
L 2066 4325 
L 2409 4325 
L 2409 1563 
L 2978 1563 
z
M 1894 1563 
L 1894 3666 
L 406 1563 
L 1894 1563 
z
" id="TimesNewRomanPSMT-34" transform="scale(0.015625)"/>
       </defs>
       <use xlink:href="#TimesNewRomanPSMT-30"/>
       <use x="50" xlink:href="#TimesNewRomanPSMT-2e"/>
       <use x="75" xlink:href="#TimesNewRomanPSMT-30"/>
       <use x="125" xlink:href="#TimesNewRomanPSMT-30"/>
       <use x="175" xlink:href="#TimesNewRomanPSMT-34"/>
      </g>
     </g>
    </g>
    <g id="xtick_6">
     <g id="line2d_11">
      <path clip-path="url(#p27f027f1b9)" d="M 398.136875 339.84 
L 398.136875 7.2 
" style="fill:none;stroke:#000000;stroke-dasharray:0.5,0.825;stroke-dashoffset:0;stroke-width:0.5;"/>
     </g>
     <g id="line2d_12">
      <g>
       <use style="stroke:#000000;stroke-width:0.8;" x="398.136875" xlink:href="#md7ee91769f" y="339.84"/>
      </g>
     </g>
     <g id="text_6">
      <!-- 0.005 -->
      <g transform="translate(382.386875 356.56125)scale(0.14 -0.14)">
       <defs>
        <path d="M 2778 4238 
L 2534 3706 
L 1259 3706 
L 981 3138 
Q 1809 3016 2294 2522 
Q 2709 2097 2709 1522 
Q 2709 1188 2573 903 
Q 2438 619 2231 419 
Q 2025 219 1772 97 
Q 1413 -75 1034 -75 
Q 653 -75 479 54 
Q 306 184 306 341 
Q 306 428 378 495 
Q 450 563 559 563 
Q 641 563 702 538 
Q 763 513 909 409 
Q 1144 247 1384 247 
Q 1750 247 2026 523 
Q 2303 800 2303 1197 
Q 2303 1581 2056 1914 
Q 1809 2247 1375 2428 
Q 1034 2569 447 2591 
L 1259 4238 
L 2778 4238 
z
" id="TimesNewRomanPSMT-35" transform="scale(0.015625)"/>
       </defs>
       <use xlink:href="#TimesNewRomanPSMT-30"/>
       <use x="50" xlink:href="#TimesNewRomanPSMT-2e"/>
       <use x="75" xlink:href="#TimesNewRomanPSMT-30"/>
       <use x="125" xlink:href="#TimesNewRomanPSMT-30"/>
       <use x="175" xlink:href="#TimesNewRomanPSMT-35"/>
      </g>
     </g>
    </g>
    <g id="text_7">
     <!-- Time (sec) -->
     <g transform="translate(200.858906 373.277188)scale(0.14 -0.14)">
      <defs>
       <path d="M 3703 4238 
L 3750 3244 
L 3631 3244 
Q 3597 3506 3538 3619 
Q 3441 3800 3280 3886 
Q 3119 3972 2856 3972 
L 2259 3972 
L 2259 734 
Q 2259 344 2344 247 
Q 2463 116 2709 116 
L 2856 116 
L 2856 0 
L 1059 0 
L 1059 116 
L 1209 116 
Q 1478 116 1591 278 
Q 1659 378 1659 734 
L 1659 3972 
L 1150 3972 
Q 853 3972 728 3928 
Q 566 3869 450 3700 
Q 334 3531 313 3244 
L 194 3244 
L 244 4238 
L 3703 4238 
z
" id="TimesNewRomanPSMT-54" transform="scale(0.015625)"/>
       <path d="M 928 4444 
Q 1059 4444 1151 4351 
Q 1244 4259 1244 4128 
Q 1244 3997 1151 3903 
Q 1059 3809 928 3809 
Q 797 3809 703 3903 
Q 609 3997 609 4128 
Q 609 4259 701 4351 
Q 794 4444 928 4444 
z
M 1188 2947 
L 1188 647 
Q 1188 378 1227 289 
Q 1266 200 1342 156 
Q 1419 113 1622 113 
L 1622 0 
L 231 0 
L 231 113 
Q 441 113 512 153 
Q 584 194 626 287 
Q 669 381 669 647 
L 669 1750 
Q 669 2216 641 2353 
Q 619 2453 572 2492 
Q 525 2531 444 2531 
Q 356 2531 231 2484 
L 188 2597 
L 1050 2947 
L 1188 2947 
z
" id="TimesNewRomanPSMT-69" transform="scale(0.015625)"/>
       <path d="M 1050 2338 
Q 1363 2650 1419 2697 
Q 1559 2816 1721 2881 
Q 1884 2947 2044 2947 
Q 2313 2947 2506 2790 
Q 2700 2634 2766 2338 
Q 3088 2713 3309 2830 
Q 3531 2947 3766 2947 
Q 3994 2947 4170 2830 
Q 4347 2713 4450 2447 
Q 4519 2266 4519 1878 
L 4519 647 
Q 4519 378 4559 278 
Q 4591 209 4675 161 
Q 4759 113 4950 113 
L 4950 0 
L 3538 0 
L 3538 113 
L 3597 113 
Q 3781 113 3884 184 
Q 3956 234 3988 344 
Q 4000 397 4000 647 
L 4000 1878 
Q 4000 2228 3916 2372 
Q 3794 2572 3525 2572 
Q 3359 2572 3192 2489 
Q 3025 2406 2788 2181 
L 2781 2147 
L 2788 2013 
L 2788 647 
Q 2788 353 2820 281 
Q 2853 209 2943 161 
Q 3034 113 3253 113 
L 3253 0 
L 1806 0 
L 1806 113 
Q 2044 113 2133 169 
Q 2222 225 2256 338 
Q 2272 391 2272 647 
L 2272 1878 
Q 2272 2228 2169 2381 
Q 2031 2581 1784 2581 
Q 1616 2581 1450 2491 
Q 1191 2353 1050 2181 
L 1050 647 
Q 1050 366 1089 281 
Q 1128 197 1204 155 
Q 1281 113 1516 113 
L 1516 0 
L 100 0 
L 100 113 
Q 297 113 375 155 
Q 453 197 493 289 
Q 534 381 534 647 
L 534 1741 
Q 534 2213 506 2350 
Q 484 2453 437 2492 
Q 391 2531 309 2531 
Q 222 2531 100 2484 
L 53 2597 
L 916 2947 
L 1050 2947 
L 1050 2338 
z
" id="TimesNewRomanPSMT-6d" transform="scale(0.015625)"/>
       <path d="M 681 1784 
Q 678 1147 991 784 
Q 1303 422 1725 422 
Q 2006 422 2214 576 
Q 2422 731 2563 1106 
L 2659 1044 
Q 2594 616 2278 264 
Q 1963 -88 1488 -88 
Q 972 -88 605 314 
Q 238 716 238 1394 
Q 238 2128 614 2539 
Q 991 2950 1559 2950 
Q 2041 2950 2350 2633 
Q 2659 2316 2659 1784 
L 681 1784 
z
M 681 1966 
L 2006 1966 
Q 1991 2241 1941 2353 
Q 1863 2528 1708 2628 
Q 1553 2728 1384 2728 
Q 1125 2728 920 2526 
Q 716 2325 681 1966 
z
" id="TimesNewRomanPSMT-65" transform="scale(0.015625)"/>
       <path id="TimesNewRomanPSMT-20" transform="scale(0.015625)"/>
       <path d="M 1988 -1253 
L 1988 -1369 
Q 1516 -1131 1200 -813 
Q 750 -359 506 256 
Q 263 872 263 1534 
Q 263 2503 741 3301 
Q 1219 4100 1988 4444 
L 1988 4313 
Q 1603 4100 1356 3731 
Q 1109 3363 987 2797 
Q 866 2231 866 1616 
Q 866 947 969 400 
Q 1050 -31 1165 -292 
Q 1281 -553 1476 -793 
Q 1672 -1034 1988 -1253 
z
" id="TimesNewRomanPSMT-28" transform="scale(0.015625)"/>
       <path d="M 2050 2947 
L 2050 1972 
L 1947 1972 
Q 1828 2431 1642 2597 
Q 1456 2763 1169 2763 
Q 950 2763 815 2647 
Q 681 2531 681 2391 
Q 681 2216 781 2091 
Q 878 1963 1175 1819 
L 1631 1597 
Q 2266 1288 2266 781 
Q 2266 391 1970 151 
Q 1675 -88 1309 -88 
Q 1047 -88 709 6 
Q 606 38 541 38 
Q 469 38 428 -44 
L 325 -44 
L 325 978 
L 428 978 
Q 516 541 762 319 
Q 1009 97 1316 97 
Q 1531 97 1667 223 
Q 1803 350 1803 528 
Q 1803 744 1651 891 
Q 1500 1038 1047 1263 
Q 594 1488 453 1669 
Q 313 1847 313 2119 
Q 313 2472 555 2709 
Q 797 2947 1181 2947 
Q 1350 2947 1591 2875 
Q 1750 2828 1803 2828 
Q 1853 2828 1881 2850 
Q 1909 2872 1947 2947 
L 2050 2947 
z
" id="TimesNewRomanPSMT-73" transform="scale(0.015625)"/>
       <path d="M 2631 1088 
Q 2516 522 2178 217 
Q 1841 -88 1431 -88 
Q 944 -88 581 321 
Q 219 731 219 1428 
Q 219 2103 620 2525 
Q 1022 2947 1584 2947 
Q 2006 2947 2278 2723 
Q 2550 2500 2550 2259 
Q 2550 2141 2473 2067 
Q 2397 1994 2259 1994 
Q 2075 1994 1981 2113 
Q 1928 2178 1911 2362 
Q 1894 2547 1784 2644 
Q 1675 2738 1481 2738 
Q 1169 2738 978 2506 
Q 725 2200 725 1697 
Q 725 1184 976 792 
Q 1228 400 1656 400 
Q 1963 400 2206 609 
Q 2378 753 2541 1131 
L 2631 1088 
z
" id="TimesNewRomanPSMT-63" transform="scale(0.015625)"/>
       <path d="M 144 4313 
L 144 4444 
Q 619 4209 934 3891 
Q 1381 3434 1625 2820 
Q 1869 2206 1869 1541 
Q 1869 572 1392 -226 
Q 916 -1025 144 -1369 
L 144 -1253 
Q 528 -1038 776 -670 
Q 1025 -303 1145 264 
Q 1266 831 1266 1447 
Q 1266 2113 1163 2663 
Q 1084 3094 967 3353 
Q 850 3613 656 3853 
Q 463 4094 144 4313 
z
" id="TimesNewRomanPSMT-29" transform="scale(0.015625)"/>
      </defs>
      <use xlink:href="#TimesNewRomanPSMT-54"/>
      <use x="57.583984" xlink:href="#TimesNewRomanPSMT-69"/>
      <use x="85.367188" xlink:href="#TimesNewRomanPSMT-6d"/>
      <use x="163.150391" xlink:href="#TimesNewRomanPSMT-65"/>
      <use x="207.535156" xlink:href="#TimesNewRomanPSMT-20"/>
      <use x="232.535156" xlink:href="#TimesNewRomanPSMT-28"/>
      <use x="265.835938" xlink:href="#TimesNewRomanPSMT-73"/>
      <use x="304.751953" xlink:href="#TimesNewRomanPSMT-65"/>
      <use x="349.136719" xlink:href="#TimesNewRomanPSMT-63"/>
      <use x="393.521484" xlink:href="#TimesNewRomanPSMT-29"/>
     </g>
    </g>
   </g>
   <g id="matplotlib.axis_2">
    <g id="ytick_1">
     <g id="line2d_13">
      <path clip-path="url(#p27f027f1b9)" d="M 63.336875 323.351076 
L 398.136875 323.351076 
" style="fill:none;stroke:#000000;stroke-dasharray:0.5,0.825;stroke-dashoffset:0;stroke-width:0.5;"/>
     </g>
     <g id="line2d_14">
      <defs>
       <path d="M 0 0 
L -3.5 0 
" id="m55e9093470" style="stroke:#000000;stroke-width:0.8;"/>
      </defs>
      <g>
       <use style="stroke:#000000;stroke-width:0.8;" x="63.336875" xlink:href="#m55e9093470" y="323.351076"/>
      </g>
     </g>
     <g id="text_8">
      <!-- −0.06 -->
      <g transform="translate(23.942188 328.211701)scale(0.14 -0.14)">
       <defs>
        <path d="M 3484 2000 
L 116 2000 
L 116 2256 
L 3484 2256 
L 3484 2000 
z
" id="TimesNewRomanPSMT-2212" transform="scale(0.015625)"/>
        <path d="M 2869 4325 
L 2869 4209 
Q 2456 4169 2195 4045 
Q 1934 3922 1679 3669 
Q 1425 3416 1258 3105 
Q 1091 2794 978 2366 
Q 1428 2675 1881 2675 
Q 2316 2675 2634 2325 
Q 2953 1975 2953 1425 
Q 2953 894 2631 456 
Q 2244 -75 1606 -75 
Q 1172 -75 869 213 
Q 275 772 275 1663 
Q 275 2231 503 2743 
Q 731 3256 1154 3653 
Q 1578 4050 1965 4187 
Q 2353 4325 2688 4325 
L 2869 4325 
z
M 925 2138 
Q 869 1716 869 1456 
Q 869 1156 980 804 
Q 1091 453 1309 247 
Q 1469 100 1697 100 
Q 1969 100 2183 356 
Q 2397 613 2397 1088 
Q 2397 1622 2184 2012 
Q 1972 2403 1581 2403 
Q 1463 2403 1327 2353 
Q 1191 2303 925 2138 
z
" id="TimesNewRomanPSMT-36" transform="scale(0.015625)"/>
       </defs>
       <use xlink:href="#TimesNewRomanPSMT-2212"/>
       <use x="56.396484" xlink:href="#TimesNewRomanPSMT-30"/>
       <use x="106.396484" xlink:href="#TimesNewRomanPSMT-2e"/>
       <use x="131.396484" xlink:href="#TimesNewRomanPSMT-30"/>
       <use x="181.396484" xlink:href="#TimesNewRomanPSMT-36"/>
      </g>
     </g>
    </g>
    <g id="ytick_2">
     <g id="line2d_15">
      <path clip-path="url(#p27f027f1b9)" d="M 63.336875 267.788363 
L 398.136875 267.788363 
" style="fill:none;stroke:#000000;stroke-dasharray:0.5,0.825;stroke-dashoffset:0;stroke-width:0.5;"/>
     </g>
     <g id="line2d_16">
      <g>
       <use style="stroke:#000000;stroke-width:0.8;" x="63.336875" xlink:href="#m55e9093470" y="267.788363"/>
      </g>
     </g>
     <g id="text_9">
      <!-- −0.04 -->
      <g transform="translate(23.942188 272.648988)scale(0.14 -0.14)">
       <use xlink:href="#TimesNewRomanPSMT-2212"/>
       <use x="56.396484" xlink:href="#TimesNewRomanPSMT-30"/>
       <use x="106.396484" xlink:href="#TimesNewRomanPSMT-2e"/>
       <use x="131.396484" xlink:href="#TimesNewRomanPSMT-30"/>
       <use x="181.396484" xlink:href="#TimesNewRomanPSMT-34"/>
      </g>
     </g>
    </g>
    <g id="ytick_3">
     <g id="line2d_17">
      <path clip-path="url(#p27f027f1b9)" d="M 63.336875 212.225649 
L 398.136875 212.225649 
" style="fill:none;stroke:#000000;stroke-dasharray:0.5,0.825;stroke-dashoffset:0;stroke-width:0.5;"/>
     </g>
     <g id="line2d_18">
      <g>
       <use style="stroke:#000000;stroke-width:0.8;" x="63.336875" xlink:href="#m55e9093470" y="212.225649"/>
      </g>
     </g>
     <g id="text_10">
      <!-- −0.02 -->
      <g transform="translate(23.942188 217.086274)scale(0.14 -0.14)">
       <use xlink:href="#TimesNewRomanPSMT-2212"/>
       <use x="56.396484" xlink:href="#TimesNewRomanPSMT-30"/>
       <use x="106.396484" xlink:href="#TimesNewRomanPSMT-2e"/>
       <use x="131.396484" xlink:href="#TimesNewRomanPSMT-30"/>
       <use x="181.396484" xlink:href="#TimesNewRomanPSMT-32"/>
      </g>
     </g>
    </g>
    <g id="ytick_4">
     <g id="line2d_19">
      <path clip-path="url(#p27f027f1b9)" d="M 63.336875 156.662935 
L 398.136875 156.662935 
" style="fill:none;stroke:#000000;stroke-dasharray:0.5,0.825;stroke-dashoffset:0;stroke-width:0.5;"/>
     </g>
     <g id="line2d_20">
      <g>
       <use style="stroke:#000000;stroke-width:0.8;" x="63.336875" xlink:href="#m55e9093470" y="156.662935"/>
      </g>
     </g>
     <g id="text_11">
      <!-- 0.00 -->
      <g transform="translate(31.836875 161.52356)scale(0.14 -0.14)">
       <use xlink:href="#TimesNewRomanPSMT-30"/>
       <use x="50" xlink:href="#TimesNewRomanPSMT-2e"/>
       <use x="75" xlink:href="#TimesNewRomanPSMT-30"/>
       <use x="125" xlink:href="#TimesNewRomanPSMT-30"/>
      </g>
     </g>
    </g>
    <g id="ytick_5">
     <g id="line2d_21">
      <path clip-path="url(#p27f027f1b9)" d="M 63.336875 101.100222 
L 398.136875 101.100222 
" style="fill:none;stroke:#000000;stroke-dasharray:0.5,0.825;stroke-dashoffset:0;stroke-width:0.5;"/>
     </g>
     <g id="line2d_22">
      <g>
       <use style="stroke:#000000;stroke-width:0.8;" x="63.336875" xlink:href="#m55e9093470" y="101.100222"/>
      </g>
     </g>
     <g id="text_12">
      <!-- 0.02 -->
      <g transform="translate(31.836875 105.960847)scale(0.14 -0.14)">
       <use xlink:href="#TimesNewRomanPSMT-30"/>
       <use x="50" xlink:href="#TimesNewRomanPSMT-2e"/>
       <use x="75" xlink:href="#TimesNewRomanPSMT-30"/>
       <use x="125" xlink:href="#TimesNewRomanPSMT-32"/>
      </g>
     </g>
    </g>
    <g id="ytick_6">
     <g id="line2d_23">
      <path clip-path="url(#p27f027f1b9)" d="M 63.336875 45.537508 
L 398.136875 45.537508 
" style="fill:none;stroke:#000000;stroke-dasharray:0.5,0.825;stroke-dashoffset:0;stroke-width:0.5;"/>
     </g>
     <g id="line2d_24">
      <g>
       <use style="stroke:#000000;stroke-width:0.8;" x="63.336875" xlink:href="#m55e9093470" y="45.537508"/>
      </g>
     </g>
     <g id="text_13">
      <!-- 0.04 -->
      <g transform="translate(31.836875 50.398133)scale(0.14 -0.14)">
       <use xlink:href="#TimesNewRomanPSMT-30"/>
       <use x="50" xlink:href="#TimesNewRomanPSMT-2e"/>
       <use x="75" xlink:href="#TimesNewRomanPSMT-30"/>
       <use x="125" xlink:href="#TimesNewRomanPSMT-34"/>
      </g>
     </g>
    </g>
    <g id="text_14">
     <!-- Volatage (V) -->
     <g transform="translate(16.92125 209.352344)rotate(-90)scale(0.14 -0.14)">
      <defs>
       <path d="M 4544 4238 
L 4544 4122 
Q 4319 4081 4203 3978 
Q 4038 3825 3909 3509 
L 2431 -97 
L 2316 -97 
L 728 3556 
Q 606 3838 556 3900 
Q 478 3997 364 4051 
Q 250 4106 56 4122 
L 56 4238 
L 1788 4238 
L 1788 4122 
Q 1494 4094 1406 4022 
Q 1319 3950 1319 3838 
Q 1319 3681 1463 3350 
L 2541 866 
L 3541 3319 
Q 3688 3681 3688 3822 
Q 3688 3913 3597 3995 
Q 3506 4078 3291 4113 
Q 3275 4116 3238 4122 
L 3238 4238 
L 4544 4238 
z
" id="TimesNewRomanPSMT-56" transform="scale(0.015625)"/>
       <path d="M 1600 2947 
Q 2250 2947 2644 2453 
Q 2978 2031 2978 1484 
Q 2978 1100 2793 706 
Q 2609 313 2286 112 
Q 1963 -88 1566 -88 
Q 919 -88 538 428 
Q 216 863 216 1403 
Q 216 1797 411 2186 
Q 606 2575 925 2761 
Q 1244 2947 1600 2947 
z
M 1503 2744 
Q 1338 2744 1170 2645 
Q 1003 2547 900 2300 
Q 797 2053 797 1666 
Q 797 1041 1045 587 
Q 1294 134 1700 134 
Q 2003 134 2200 384 
Q 2397 634 2397 1244 
Q 2397 2006 2069 2444 
Q 1847 2744 1503 2744 
z
" id="TimesNewRomanPSMT-6f" transform="scale(0.015625)"/>
       <path d="M 1184 4444 
L 1184 647 
Q 1184 378 1223 290 
Q 1263 203 1344 158 
Q 1425 113 1647 113 
L 1647 0 
L 244 0 
L 244 113 
Q 441 113 512 153 
Q 584 194 625 287 
Q 666 381 666 647 
L 666 3247 
Q 666 3731 644 3842 
Q 622 3953 573 3993 
Q 525 4034 450 4034 
Q 369 4034 244 3984 
L 191 4094 
L 1044 4444 
L 1184 4444 
z
" id="TimesNewRomanPSMT-6c" transform="scale(0.015625)"/>
       <path d="M 1822 413 
Q 1381 72 1269 19 
Q 1100 -59 909 -59 
Q 613 -59 420 144 
Q 228 347 228 678 
Q 228 888 322 1041 
Q 450 1253 767 1440 
Q 1084 1628 1822 1897 
L 1822 2009 
Q 1822 2438 1686 2597 
Q 1550 2756 1291 2756 
Q 1094 2756 978 2650 
Q 859 2544 859 2406 
L 866 2225 
Q 866 2081 792 2003 
Q 719 1925 600 1925 
Q 484 1925 411 2006 
Q 338 2088 338 2228 
Q 338 2497 613 2722 
Q 888 2947 1384 2947 
Q 1766 2947 2009 2819 
Q 2194 2722 2281 2516 
Q 2338 2381 2338 1966 
L 2338 994 
Q 2338 584 2353 492 
Q 2369 400 2405 369 
Q 2441 338 2488 338 
Q 2538 338 2575 359 
Q 2641 400 2828 588 
L 2828 413 
Q 2478 -56 2159 -56 
Q 2006 -56 1915 50 
Q 1825 156 1822 413 
z
M 1822 616 
L 1822 1706 
Q 1350 1519 1213 1441 
Q 966 1303 859 1153 
Q 753 1003 753 825 
Q 753 600 887 451 
Q 1022 303 1197 303 
Q 1434 303 1822 616 
z
" id="TimesNewRomanPSMT-61" transform="scale(0.015625)"/>
       <path d="M 1031 3803 
L 1031 2863 
L 1700 2863 
L 1700 2644 
L 1031 2644 
L 1031 788 
Q 1031 509 1111 412 
Q 1191 316 1316 316 
Q 1419 316 1516 380 
Q 1613 444 1666 569 
L 1788 569 
Q 1678 263 1478 108 
Q 1278 -47 1066 -47 
Q 922 -47 784 33 
Q 647 113 581 261 
Q 516 409 516 719 
L 516 2644 
L 63 2644 
L 63 2747 
Q 234 2816 414 2980 
Q 594 3144 734 3369 
Q 806 3488 934 3803 
L 1031 3803 
z
" id="TimesNewRomanPSMT-74" transform="scale(0.015625)"/>
       <path d="M 966 1044 
Q 703 1172 562 1401 
Q 422 1631 422 1909 
Q 422 2334 742 2640 
Q 1063 2947 1563 2947 
Q 1972 2947 2272 2747 
L 2878 2747 
Q 3013 2747 3034 2739 
Q 3056 2731 3066 2713 
Q 3084 2684 3084 2613 
Q 3084 2531 3069 2500 
Q 3059 2484 3036 2475 
Q 3013 2466 2878 2466 
L 2506 2466 
Q 2681 2241 2681 1891 
Q 2681 1491 2375 1206 
Q 2069 922 1553 922 
Q 1341 922 1119 984 
Q 981 866 932 777 
Q 884 688 884 625 
Q 884 572 936 522 
Q 988 472 1138 450 
Q 1225 438 1575 428 
Q 2219 413 2409 384 
Q 2700 344 2873 169 
Q 3047 -6 3047 -263 
Q 3047 -616 2716 -925 
Q 2228 -1381 1444 -1381 
Q 841 -1381 425 -1109 
Q 191 -953 191 -784 
Q 191 -709 225 -634 
Q 278 -519 444 -313 
Q 466 -284 763 25 
Q 600 122 533 198 
Q 466 275 466 372 
Q 466 481 555 628 
Q 644 775 966 1044 
z
M 1509 2797 
Q 1278 2797 1122 2612 
Q 966 2428 966 2047 
Q 966 1553 1178 1281 
Q 1341 1075 1591 1075 
Q 1828 1075 1981 1253 
Q 2134 1431 2134 1813 
Q 2134 2309 1919 2591 
Q 1759 2797 1509 2797 
z
M 934 0 
Q 788 -159 713 -296 
Q 638 -434 638 -550 
Q 638 -700 819 -813 
Q 1131 -1006 1722 -1006 
Q 2284 -1006 2551 -807 
Q 2819 -609 2819 -384 
Q 2819 -222 2659 -153 
Q 2497 -84 2016 -72 
Q 1313 -53 934 0 
z
" id="TimesNewRomanPSMT-67" transform="scale(0.015625)"/>
      </defs>
      <use xlink:href="#TimesNewRomanPSMT-56"/>
      <use x="59.341797" xlink:href="#TimesNewRomanPSMT-6f"/>
      <use x="109.341797" xlink:href="#TimesNewRomanPSMT-6c"/>
      <use x="137.125" xlink:href="#TimesNewRomanPSMT-61"/>
      <use x="181.509766" xlink:href="#TimesNewRomanPSMT-74"/>
      <use x="209.292969" xlink:href="#TimesNewRomanPSMT-61"/>
      <use x="253.677734" xlink:href="#TimesNewRomanPSMT-67"/>
      <use x="303.677734" xlink:href="#TimesNewRomanPSMT-65"/>
      <use x="348.0625" xlink:href="#TimesNewRomanPSMT-20"/>
      <use x="373.0625" xlink:href="#TimesNewRomanPSMT-28"/>
      <use x="406.363281" xlink:href="#TimesNewRomanPSMT-56"/>
      <use x="478.580078" xlink:href="#TimesNewRomanPSMT-29"/>
     </g>
    </g>
   </g>
   <g id="LineCollection_1">
    <path clip-path="url(#p27f027f1b9)" d="M 78.555057 156.662935 
L 382.918693 156.662935 
" style="fill:none;stroke:#1f77b4;stroke-width:1.5;"/>
   </g>
   <g id="line2d_25">
    <path clip-path="url(#p27f027f1b9)" d="M 78.555057 156.642794 
L 78.707239 156.67752 
L 89.938257 156.746974 
L 90.060002 156.781701 
L 90.181748 156.781701 
L 90.33393 156.816427 
L 90.364366 156.746974 
L 90.425239 156.816427 
L 111.852439 156.920607 
L 111.943748 156.955334 
L 111.974184 156.920607 
L 113.039457 157.024787 
L 113.191639 157.059514 
L 114.01342 157.128968 
L 114.074293 157.198421 
L 114.135166 157.163694 
L 114.68302 157.267874 
L 114.77433 157.337328 
L 114.804766 157.302601 
L 115.10913 157.406781 
L 115.291748 157.476234 
L 115.748293 157.580414 
L 115.930911 157.649868 
L 116.417893 157.719321 
L 116.44833 157.788775 
L 116.509202 157.719321 
L 116.78313 157.788775 
L 116.904875 157.823501 
L 117.391857 157.927682 
L 117.544039 157.962408 
L 118.304948 158.031862 
L 118.426693 158.101315 
L 119.187602 158.170768 
L 119.309348 158.240222 
L 119.339784 158.205495 
L 119.400657 158.274948 
L 120.222439 158.379129 
L 120.37462 158.413855 
L 120.496366 158.379129 
L 120.587675 158.483309 
L 120.618111 158.448582 
L 120.831166 158.552762 
L 120.861602 158.518035 
L 120.922475 158.587489 
L 121.409457 158.691669 
L 121.71382 158.900029 
L 121.926875 159.004209 
L 122.079057 159.212569 
L 122.109493 159.143116 
L 122.170366 159.212569 
L 123.996548 161.435078 
L 124.453093 162.233792 
L 124.605275 162.546332 
L 126.005348 165.984275 
L 128.318511 174.283956 
L 129.535966 179.354053 
L 130.022948 181.402927 
L 131.118657 185.917399 
L 132.85353 191.47367 
L 133.340511 192.376564 
L 133.462257 192.480744 
L 133.644875 192.689104 
L 133.736184 192.793284 
L 134.223166 193.210005 
L 134.375348 193.314185 
L 134.649275 193.487818 
L 135.653675 193.383638 
L 136.11022 192.758558 
L 136.414584 192.09875 
L 136.77982 191.091676 
L 137.053748 190.154055 
L 137.662475 187.723187 
L 138.179893 185.361771 
L 138.423384 184.181064 
L 139.671275 176.43701 
L 140.858293 166.574629 
L 141.13222 164.004853 
L 143.719311 136.327676 
L 149.136984 69.721873 
L 150.202257 58.817694 
L 151.26753 50.03184 
L 153.154584 39.822185 
L 153.367639 39.12766 
L 153.580693 38.502579 
L 153.85462 37.946941 
L 154.098111 37.634401 
L 154.372039 37.391317 
L 154.402475 37.426049 
L 154.432911 37.46077 
L 154.463348 37.391317 
L 154.61553 37.356593 
L 154.85902 37.46077 
L 155.254693 38.051129 
L 155.802548 39.544377 
L 156.472148 42.21833 
L 157.53742 48.920577 
L 158.024402 52.983603 
L 159.333166 67.499368 
L 161.098475 93.127664 
L 163.137711 129.903238 
L 167.459675 220.921905 
L 168.981493 251.55086 
L 170.198948 273.046679 
L 171.294657 289.958583 
L 172.512111 305.168873 
L 173.486075 314.093637 
L 174.551348 320.691706 
L 175.738366 324.407457 
L 176.134039 324.72 
L 176.255784 324.650555 
L 176.28622 324.72 
L 176.347093 324.650555 
L 176.590584 324.476913 
L 176.62102 324.511645 
L 176.681893 324.442192 
L 177.29062 323.608746 
L 177.564548 322.810034 
L 177.929784 321.351508 
L 178.112402 320.691706 
L 178.72113 317.427394 
L 179.877711 308.780449 
L 182.06913 285.131566 
L 182.921348 273.081403 
L 185.721493 226.58236 
L 188.156402 183.035084 
L 189.252111 163.900673 
L 191.960948 119.415776 
L 192.904475 106.115451 
L 193.908875 93.856927 
L 194.36542 89.342457 
L 195.248075 80.487149 
L 196.982948 65.589394 
L 197.37862 62.741808 
L 197.835166 59.824768 
L 197.926475 59.442774 
L 198.261275 57.880073 
L 198.596075 56.386825 
L 199.083057 54.233764 
L 199.38742 53.330876 
L 199.783093 52.011258 
L 200.696184 49.267849 
L 201.578839 47.496785 
L 201.944075 47.218977 
L 202.49193 47.114789 
L 202.73542 46.97589 
L 203.222402 47.010614 
L 203.374584 47.149521 
L 203.557202 47.253698 
L 203.861566 47.462061 
L 203.952875 47.462061 
L 204.16593 47.566239 
L 204.287675 47.670427 
L 204.683348 48.260775 
L 204.957275 48.851132 
L 205.109457 49.163672 
L 206.08342 51.629265 
L 208.457457 60.102576 
L 209.248802 64.026693 
L 209.614039 65.624126 
L 210.131457 68.402256 
L 213.296839 83.300014 
L 213.722948 85.453064 
L 213.966439 86.668504 
L 219.201493 117.15854 
L 221.332039 130.979765 
L 222.062511 135.77205 
L 226.17142 169.387491 
L 226.901893 176.541191 
L 227.26713 180.22222 
L 228.088911 189.181708 
L 229.215057 201.856952 
L 230.52382 216.893614 
L 231.86302 231.791364 
L 234.145748 256.620949 
L 236.002366 272.560508 
L 236.763275 277.074973 
L 236.854584 277.491699 
L 237.31113 279.505842 
L 238.22422 281.832533 
L 238.467711 282.283983 
L 238.680766 282.527067 
L 239.746039 282.422893 
L 240.446075 280.582372 
L 241.815711 273.845393 
L 244.828911 248.911625 
L 245.650693 239.361784 
L 248.998693 192.029297 
L 252.04233 148.48202 
L 253.838075 127.298736 
L 256.05993 108.025422 
L 256.942584 102.746961 
L 257.338257 101.010629 
L 257.886111 98.961749 
L 258.555711 97.19069 
L 259.042693 95.9058 
L 259.620984 94.829275 
L 259.712293 94.725095 
L 260.168839 93.926381 
L 260.260148 93.856927 
L 260.473202 93.61384 
L 260.503639 93.64857 
L 260.534075 93.544387 
L 260.564511 93.579114 
L 260.868875 93.370756 
L 261.173239 93.3013 
L 261.294984 93.162391 
L 261.32542 93.19712 
L 261.41673 93.162391 
L 261.447166 93.19712 
L 261.873275 93.266573 
L 262.025457 93.370756 
L 262.360257 93.61384 
L 262.482002 93.718018 
L 264.156002 95.766896 
L 264.551675 96.426706 
L 264.825602 96.87815 
L 265.312584 97.746314 
L 265.586511 98.197764 
L 267.625748 103.059502 
L 267.930111 103.997122 
L 268.295348 105.038921 
L 268.630148 106.115451 
L 268.873639 106.879435 
L 269.208439 107.955966 
L 269.269311 108.129597 
L 269.604111 109.1714 
L 269.908475 110.109021 
L 270.973748 114.137321 
L 275.021784 132.125747 
L 275.965311 135.737323 
L 276.452293 137.508384 
L 276.604475 138.029285 
L 276.908839 139.175266 
L 280.195966 150.044722 
L 281.16993 152.510317 
L 281.596039 153.621571 
L 281.74822 153.934112 
L 282.904802 156.36498 
L 282.996111 156.46916 
L 284.244002 157.754048 
L 284.457057 157.823501 
L 284.578802 157.927682 
L 284.700548 157.927682 
L 285.52233 157.823501 
L 285.704948 157.649868 
L 286.587602 156.503887 
L 288.474657 152.024143 
L 288.718148 151.260156 
L 289.20513 149.905815 
L 289.752984 148.37784 
L 289.844293 148.16948 
L 290.422584 146.572052 
L 290.574766 146.259511 
L 291.426984 144.523177 
L 291.54873 144.418996 
L 291.731348 144.245364 
L 292.035711 144.037003 
L 292.187893 143.932823 
L 292.492257 143.724462 
L 293.13142 143.828643 
L 293.314039 143.932823 
L 293.344475 143.898096 
L 293.405348 143.967549 
L 293.648839 144.07173 
L 294.379311 145.044077 
L 295.414148 147.613853 
L 295.870693 149.211281 
L 296.601166 152.093597 
L 298.031675 159.108389 
L 299.096948 165.637008 
L 299.82742 170.429292 
L 302.84062 191.820937 
L 304.210257 201.926405 
L 304.84942 206.197792 
L 306.036439 213.594573 
L 306.766911 217.414512 
L 307.253893 219.602297 
L 308.106111 222.90133 
L 308.471348 224.082038 
L 308.988766 225.471103 
L 309.780111 227.068533 
L 309.810548 227.033804 
L 309.87142 227.10326 
L 309.993166 227.20744 
L 310.388839 227.55471 
L 310.510584 227.55471 
L 310.96713 227.450527 
L 311.454111 226.755993 
L 312.275893 224.637665 
L 313.036802 221.651169 
L 313.523784 219.602297 
L 314.102075 216.511618 
L 316.415239 199.946984 
L 317.358766 192.341837 
L 317.937057 187.653733 
L 320.128475 168.65823 
L 320.67633 164.14376 
L 321.193748 159.94183 
L 321.528548 157.406781 
L 322.746002 148.343113 
L 323.385166 143.516102 
L 324.815675 132.959186 
L 326.307057 123.478799 
L 326.854911 120.492303 
L 328.072366 114.172047 
L 329.868111 106.462718 
L 330.811639 103.580402 
L 330.902948 103.337315 
L 331.420366 101.913524 
L 331.998657 100.316093 
L 332.181275 99.968826 
L 332.607384 98.892301 
L 332.698693 98.683938 
L 333.033493 97.919953 
L 333.155239 97.676867 
L 333.368293 97.3296 
L 334.464002 96.21834 
L 334.768366 96.148892 
L 334.798802 96.079439 
L 334.859675 96.148892 
L 335.07273 96.079439 
L 335.194475 96.044709 
L 336.503239 96.148892 
L 336.807602 96.391979 
L 336.868475 96.357249 
L 336.898911 96.426706 
L 337.020657 96.530883 
L 338.025057 97.815771 
L 340.09473 102.781688 
L 340.520839 103.892942 
L 340.642584 104.170756 
L 340.946948 105.073647 
L 343.77753 115.109662 
L 344.203639 116.984907 
L 344.35582 117.575261 
L 346.821166 129.312884 
L 351.660548 156.295527 
L 351.964911 157.719321 
L 353.243239 163.067233 
L 353.425857 163.72704 
L 355.525966 171.29746 
L 356.104257 173.450515 
L 356.286875 174.075595 
L 356.926039 176.506464 
L 358.295675 181.576561 
L 358.782657 183.312897 
L 361.52193 192.307111 
L 363.19593 195.88396 
L 363.43942 196.300681 
L 363.77422 196.821581 
L 363.835093 196.891035 
L 364.139457 197.342482 
L 364.717748 198.106469 
L 364.930802 198.453736 
L 364.991675 198.557916 
L 367.304839 201.058238 
L 367.517893 201.162418 
L 367.639639 201.301325 
L 367.670075 201.266598 
L 368.187493 201.718045 
L 368.309239 201.822225 
L 368.583166 201.995859 
L 368.826657 202.100039 
L 368.978839 202.169492 
L 369.009275 202.134766 
L 369.039711 202.204219 
L 369.313639 202.377852 
L 369.46582 202.447306 
L 369.618002 202.551483 
L 369.80062 202.620939 
L 369.861493 202.690393 
L 369.922366 202.620939 
L 370.044111 202.690393 
L 370.744148 202.759846 
L 370.774584 202.829302 
L 370.835457 202.725119 
L 370.987639 202.759846 
L 371.444184 202.655666 
L 371.535493 202.620939 
L 371.56593 202.655666 
L 372.418148 202.551483 
L 372.57033 202.516762 
L 373.331239 202.412579 
L 373.513857 202.343126 
L 373.757348 202.238946 
L 373.970402 202.100039 
L 374.000839 202.134766 
L 374.061711 202.065312 
L 374.183457 201.961132 
L 374.48782 201.718045 
L 374.518257 201.752772 
L 374.57913 201.683319 
L 375.674839 200.294251 
L 375.979202 199.842804 
L 376.344439 199.287177 
L 377.50102 196.891035 
L 377.683639 196.543768 
L 378.809784 193.730905 
L 381.305566 184.806144 
L 381.792548 182.653089 
L 382.918693 177.374631 
L 382.918693 177.374631 
" style="fill:none;stroke:#0000ff;stroke-linecap:square;stroke-width:1.5;"/>
   </g>
   <g id="line2d_26">
    <path clip-path="url(#p27f027f1b9)" d="M 78.555057 156.764407 
L 78.828984 156.72968 
L 84.124911 156.660227 
L 84.246657 156.642863 
L 84.520584 156.608137 
L 93.225384 156.52132 
L 93.377566 156.503956 
L 93.621057 156.52132 
L 93.742802 156.503956 
L 93.955857 156.52132 
L 94.108039 156.486593 
L 94.229784 156.486593 
L 100.499675 156.590773 
L 101.04753 156.799133 
L 101.169275 156.83386 
L 101.443202 156.99013 
L 101.991057 157.424214 
L 103.086766 158.830645 
L 103.878111 160.393346 
L 104.852075 162.876305 
L 107.07393 170.863446 
L 110.300184 183.312966 
L 110.787166 184.684671 
L 111.33502 186.177918 
L 112.126366 187.723256 
L 112.948148 188.921327 
L 113.526439 189.129687 
L 114.165602 189.060234 
L 114.378657 188.903964 
L 114.926511 188.122613 
L 115.717857 186.559913 
L 116.11353 185.396567 
L 116.935311 182.201711 
L 118.091893 176.419717 
L 118.974548 171.314893 
L 121.774693 151.381769 
L 125.761857 120.422919 
L 126.644511 115.144461 
L 128.988111 103.667288 
L 130.08382 100.298799 
L 131.027348 98.406197 
L 131.940439 97.225489 
L 132.488293 96.201046 
L 133.614439 95.437061 
L 133.888366 95.280791 
L 134.405784 95.367608 
L 134.588402 95.437061 
L 135.075384 95.263425 
L 135.19713 95.211338 
L 135.501493 95.141882 
L 136.597202 95.645422 
L 136.77982 95.645422 
L 137.266802 96.044776 
L 137.87553 96.895583 
L 138.027711 97.086579 
L 138.514693 98.093656 
L 139.427784 101.583687 
L 141.680075 112.314238 
L 144.510657 132.438357 
L 145.697675 141.640931 
L 147.15862 154.159904 
L 150.719675 187.619076 
L 152.18062 200.172777 
L 153.215457 208.0731 
L 154.098111 213.820371 
L 155.589493 220.921978 
L 156.076475 222.415226 
L 156.776511 224.116831 
L 156.928693 224.307828 
L 157.415675 224.932908 
L 157.902657 225.332265 
L 158.115711 225.349631 
L 158.572257 224.967638 
L 159.789711 223.422303 
L 160.124511 222.658312 
L 161.585457 218.161203 
L 163.411639 209.340622 
L 164.23342 204.027443 
L 167.155311 181.541903 
L 167.733602 176.940617 
L 169.407602 166.210068 
L 170.959857 158.778555 
L 172.420802 154.923892 
L 173.181711 154.211994 
L 173.577384 154.107814 
L 173.851311 154.211994 
L 174.673093 154.767622 
L 174.916584 155.062799 
L 175.342693 155.983056 
L 176.529711 159.681449 
L 177.29062 163.171482 
L 178.416766 169.526467 
L 179.482039 176.055087 
L 183.499639 198.332262 
L 184.41273 201.995928 
L 184.930148 203.645446 
L 185.721493 205.190782 
L 186.117166 205.485961 
L 186.33022 205.485961 
L 186.99982 204.982424 
L 187.395493 204.37471 
L 187.76073 203.558632 
L 188.826002 200.207503 
L 190.073893 194.026152 
L 191.078293 186.403643 
L 193.665384 163.345116 
L 195.948111 141.033213 
L 199.235239 110.022274 
L 201.82233 85.9914 
L 202.978911 77.604906 
L 205.048584 66.422904 
L 205.383384 65.381109 
L 205.779057 64.738659 
L 206.266039 64.582395 
L 207.209566 64.669206 
L 207.605239 65.138022 
L 208.548766 66.353451 
L 209.005311 67.655702 
L 210.131457 71.197833 
L 211.835893 79.480147 
L 215.610002 103.858285 
L 216.55353 111.081438 
L 218.592766 126.482728 
L 221.81902 147.822282 
L 225.227893 166.626788 
L 226.871457 174.509749 
L 230.402075 188.15734 
L 231.771711 192.393997 
L 234.267493 201.318758 
L 235.789311 206.944482 
L 236.580657 209.288534 
L 237.21982 211.007506 
L 237.585057 211.875673 
L 239.015566 214.115545 
L 240.780875 215.001076 
L 241.024366 215.105253 
L 241.541784 215.27889 
L 243.550584 215.383072 
L 244.524548 216.06024 
L 247.537748 219.63709 
L 247.902984 220.210083 
L 248.176911 220.678894 
L 251.433602 226.460883 
L 252.164075 227.884683 
L 252.438002 228.336127 
L 252.772802 228.839664 
L 254.112002 230.211369 
L 255.085966 230.645453 
L 255.63382 230.54127 
L 255.999057 230.228729 
L 257.460002 227.520047 
L 258.251348 224.950277 
L 259.103566 221.095608 
L 260.503639 211.667316 
L 261.75153 200.068597 
L 262.847239 187.011359 
L 264.33862 165.984344 
L 265.616948 146.172765 
L 270.151966 70.416477 
L 271.552039 51.959238 
L 272.921675 37.53029 
L 274.04782 28.831258 
L 274.656548 25.68849 
L 275.356584 23.309708 
L 275.81313 22.510997 
L 276.300111 22.32 
L 276.421857 22.32 
L 276.756657 22.424186 
L 277.000148 22.684628 
L 277.39582 23.570161 
L 277.943675 25.445403 
L 278.613275 28.570808 
L 279.374184 33.53672 
L 280.256839 40.343155 
L 282.570002 63.853129 
L 286.891966 116.95025 
L 290.270402 157.979841 
L 293.953202 194.685959 
L 295.292402 204.53098 
L 296.053311 209.514261 
L 298.396911 223.543843 
L 300.223093 231.392077 
L 300.49702 232.242881 
L 300.984002 233.736129 
L 301.379675 234.708476 
L 302.353639 236.670534 
L 302.749311 237.174074 
L 303.51022 237.069891 
L 304.362439 235.403013 
L 304.94073 233.458315 
L 305.305966 232.121337 
L 305.792948 230.089825 
L 306.401675 227.259602 
L 307.466948 221.911689 
L 308.745275 214.011368 
L 309.567057 208.715541 
L 312.580257 189.112324 
L 315.715202 166.661515 
L 318.57622 150.930322 
L 319.215384 148.37791 
L 319.824111 146.103312 
L 320.311093 144.610063 
L 321.25462 141.727748 
L 322.137275 140.008775 
L 322.59382 139.227426 
L 322.776439 139.019065 
L 323.080802 138.706524 
L 323.841711 137.994628 
L 324.237384 137.64736 
L 324.450439 137.49109 
L 324.93742 137.091733 
L 325.515711 136.275657 
L 325.972257 135.702665 
L 328.498475 132.664079 
L 329.71593 130.372118 
L 331.816039 125.336747 
L 332.30302 124.034496 
L 333.003057 122.193981 
L 333.763966 119.971472 
L 334.829239 117.26279 
L 336.168439 114.467294 
L 336.716293 113.338673 
L 337.142402 112.453142 
L 338.542475 110.265358 
L 339.029457 109.84864 
L 339.242511 109.74446 
L 339.820802 109.5361 
L 340.368657 109.640277 
L 340.825202 110.022274 
L 341.160002 110.386901 
L 341.707857 111.168252 
L 342.499202 112.713593 
L 343.077493 114.03321 
L 343.564475 115.370188 
L 344.081893 117.228063 
L 344.994984 121.30845 
L 347.399457 135.650576 
L 351.234439 162.650582 
L 353.304111 178.294958 
L 357.291275 204.843515 
L 358.539166 210.6776 
L 359.330511 213.785642 
L 360.000111 215.400433 
L 360.243602 215.834517 
L 360.76102 216.511684 
L 362.313275 217.275675 
L 362.587202 217.206221 
L 362.76982 217.102038 
L 363.469857 216.581141 
L 364.53513 214.566995 
L 366.330875 209.114904 
L 366.726548 207.395932 
L 367.45702 203.558632 
L 368.370111 198.314899 
L 369.648439 189.633224 
L 371.078948 177.357338 
L 372.174657 167.807496 
L 374.183457 150.478875 
L 377.50102 124.83321 
L 379.814184 110.977261 
L 381.336002 104.535456 
L 382.18822 102.000404 
L 382.918693 100.281438 
L 382.918693 100.281438 
" style="fill:none;stroke:#ff0000;stroke-linecap:square;stroke-width:1.5;"/>
   </g>
   <g id="line2d_27">
    <path clip-path="url(#p27f027f1b9)" d="M 125.700984 165.081381 
" style="fill:none;stroke:#ffffff;stroke-linecap:square;stroke-width:1.5;"/>
    <defs>
     <path d="M 0 -5 
L -1.12257 -1.545085 
L -4.755283 -1.545085 
L -1.816356 0.59017 
L -2.938926 4.045085 
L -0 1.90983 
L 2.938926 4.045085 
L 1.816356 0.59017 
L 4.755283 -1.545085 
L 1.12257 -1.545085 
z
" id="me9492c5d52" style="stroke:#ffffff;stroke-linejoin:bevel;"/>
    </defs>
    <g clip-path="url(#p27f027f1b9)">
     <use style="fill:#0000ff;stroke:#ffffff;stroke-linejoin:bevel;" x="125.700984" xlink:href="#me9492c5d52" y="165.081381"/>
    </g>
   </g>
   <g id="line2d_28">
    <path clip-path="url(#p27f027f1b9)" d="M 105.034693 163.414569 
" style="fill:none;stroke:#ffffff;stroke-linecap:square;stroke-width:1.5;"/>
    <defs>
     <path d="M 0 -5 
L -1.12257 -1.545085 
L -4.755283 -1.545085 
L -1.816356 0.59017 
L -2.938926 4.045085 
L -0 1.90983 
L 2.938926 4.045085 
L 1.816356 0.59017 
L 4.755283 -1.545085 
L 1.12257 -1.545085 
z
" id="m88c2c06092" style="stroke:#ffffff;stroke-linejoin:bevel;"/>
    </defs>
    <g clip-path="url(#p27f027f1b9)">
     <use style="fill:#ff0000;stroke:#ffffff;stroke-linejoin:bevel;" x="105.034693" xlink:href="#m88c2c06092" y="163.414569"/>
    </g>
   </g>
   <g id="patch_3">
    <path d="M 63.336875 339.84 
L 63.336875 7.2 
" style="fill:none;stroke:#000000;stroke-linecap:square;stroke-linejoin:miter;stroke-width:0.8;"/>
   </g>
   <g id="patch_4">
    <path d="M 398.136875 339.84 
L 398.136875 7.2 
" style="fill:none;stroke:#000000;stroke-linecap:square;stroke-linejoin:miter;stroke-width:0.8;"/>
   </g>
   <g id="patch_5">
    <path d="M 63.336875 339.84 
L 398.136875 339.84 
" style="fill:none;stroke:#000000;stroke-linecap:square;stroke-linejoin:miter;stroke-width:0.8;"/>
   </g>
   <g id="patch_6">
    <path d="M 63.336875 7.2 
L 398.136875 7.2 
" style="fill:none;stroke:#000000;stroke-linecap:square;stroke-linejoin:miter;stroke-width:0.8;"/>
   </g>
   <g id="text_15">
    <g id="patch_7">
     <path d="M 75.036875 331.242688 
L 166.79375 331.242688 
L 166.79375 293.760312 
L 75.036875 293.760312 
z
" style="fill:#ffffff;stroke:#000000;stroke-linejoin:miter;stroke-width:0.75;"/>
    </g>
    <!-- Auto_00092 -->
    <g transform="translate(80.076875 308.521562)scale(0.14 -0.14)">
     <defs>
      <path d="M 2928 1419 
L 1288 1419 
L 1000 750 
Q 894 503 894 381 
Q 894 284 986 211 
Q 1078 138 1384 116 
L 1384 0 
L 50 0 
L 50 116 
Q 316 163 394 238 
Q 553 388 747 847 
L 2238 4334 
L 2347 4334 
L 3822 809 
Q 4000 384 4145 257 
Q 4291 131 4550 116 
L 4550 0 
L 2878 0 
L 2878 116 
Q 3131 128 3220 200 
Q 3309 272 3309 375 
Q 3309 513 3184 809 
L 2928 1419 
z
M 2841 1650 
L 2122 3363 
L 1384 1650 
L 2841 1650 
z
" id="TimesNewRomanPSMT-41" transform="scale(0.015625)"/>
      <path d="M 2709 2863 
L 2709 1128 
Q 2709 631 2732 520 
Q 2756 409 2807 365 
Q 2859 322 2928 322 
Q 3025 322 3147 375 
L 3191 266 
L 2334 -88 
L 2194 -88 
L 2194 519 
Q 1825 119 1631 15 
Q 1438 -88 1222 -88 
Q 981 -88 804 51 
Q 628 191 559 409 
Q 491 628 491 1028 
L 491 2306 
Q 491 2509 447 2587 
Q 403 2666 317 2708 
Q 231 2750 6 2747 
L 6 2863 
L 1009 2863 
L 1009 947 
Q 1009 547 1148 422 
Q 1288 297 1484 297 
Q 1619 297 1789 381 
Q 1959 466 2194 703 
L 2194 2325 
Q 2194 2569 2105 2655 
Q 2016 2741 1734 2747 
L 1734 2863 
L 2709 2863 
z
" id="TimesNewRomanPSMT-75" transform="scale(0.015625)"/>
      <path d="M 3256 -1381 
L -53 -1381 
L -53 -1119 
L 3256 -1119 
L 3256 -1381 
z
" id="TimesNewRomanPSMT-5f" transform="scale(0.015625)"/>
      <path d="M 338 -88 
L 338 28 
Q 744 34 1094 217 
Q 1444 400 1770 856 
Q 2097 1313 2225 1859 
Q 1734 1544 1338 1544 
Q 891 1544 572 1889 
Q 253 2234 253 2806 
Q 253 3363 572 3797 
Q 956 4325 1575 4325 
Q 2097 4325 2469 3894 
Q 2925 3359 2925 2575 
Q 2925 1869 2578 1258 
Q 2231 647 1613 244 
Q 1109 -88 516 -88 
L 338 -88 
z
M 2275 2091 
Q 2331 2497 2331 2741 
Q 2331 3044 2228 3395 
Q 2125 3747 1936 3934 
Q 1747 4122 1506 4122 
Q 1228 4122 1018 3872 
Q 809 3622 809 3128 
Q 809 2469 1088 2097 
Q 1291 1828 1588 1828 
Q 1731 1828 1928 1897 
Q 2125 1966 2275 2091 
z
" id="TimesNewRomanPSMT-39" transform="scale(0.015625)"/>
     </defs>
     <use xlink:href="#TimesNewRomanPSMT-41"/>
     <use x="72.216797" xlink:href="#TimesNewRomanPSMT-75"/>
     <use x="122.216797" xlink:href="#TimesNewRomanPSMT-74"/>
     <use x="150" xlink:href="#TimesNewRomanPSMT-6f"/>
     <use x="200" xlink:href="#TimesNewRomanPSMT-5f"/>
     <use x="250" xlink:href="#TimesNewRomanPSMT-30"/>
     <use x="300" xlink:href="#TimesNewRomanPSMT-30"/>
     <use x="350" xlink:href="#TimesNewRomanPSMT-30"/>
     <use x="400" xlink:href="#TimesNewRomanPSMT-39"/>
     <use x="450" xlink:href="#TimesNewRomanPSMT-32"/>
    </g>
    <!-- Vs: 294.40m/s -->
    <g transform="translate(80.076875 323.208)scale(0.14 -0.14)">
     <defs>
      <path d="M 903 2950 
Q 1047 2950 1148 2848 
Q 1250 2747 1250 2603 
Q 1250 2459 1148 2357 
Q 1047 2256 903 2256 
Q 759 2256 657 2357 
Q 556 2459 556 2603 
Q 556 2747 657 2848 
Q 759 2950 903 2950 
z
M 897 609 
Q 1044 609 1145 506 
Q 1247 403 1247 259 
Q 1247 116 1144 14 
Q 1041 -88 897 -88 
Q 753 -88 651 14 
Q 550 116 550 259 
Q 550 403 651 506 
Q 753 609 897 609 
z
" id="TimesNewRomanPSMT-3a" transform="scale(0.015625)"/>
      <path d="M 1794 4444 
L 259 -88 
L 9 -88 
L 1544 4444 
L 1794 4444 
z
" id="TimesNewRomanPSMT-2f" transform="scale(0.015625)"/>
     </defs>
     <use xlink:href="#TimesNewRomanPSMT-56"/>
     <use x="72.216797" xlink:href="#TimesNewRomanPSMT-73"/>
     <use x="111.132812" xlink:href="#TimesNewRomanPSMT-3a"/>
     <use x="138.916016" xlink:href="#TimesNewRomanPSMT-20"/>
     <use x="163.916016" xlink:href="#TimesNewRomanPSMT-32"/>
     <use x="213.916016" xlink:href="#TimesNewRomanPSMT-39"/>
     <use x="263.916016" xlink:href="#TimesNewRomanPSMT-34"/>
     <use x="313.916016" xlink:href="#TimesNewRomanPSMT-2e"/>
     <use x="338.916016" xlink:href="#TimesNewRomanPSMT-34"/>
     <use x="388.916016" xlink:href="#TimesNewRomanPSMT-30"/>
     <use x="438.916016" xlink:href="#TimesNewRomanPSMT-6d"/>
     <use x="516.699219" xlink:href="#TimesNewRomanPSMT-2f"/>
     <use x="544.482422" xlink:href="#TimesNewRomanPSMT-73"/>
    </g>
   </g>
  </g>
 </g>
 <defs>
  <clipPath id="p27f027f1b9">
   <rect height="332.64" width="334.8" x="63.336875" y="7.2"/>
  </clipPath>
 </defs>
</svg>
