<?xml version="1.0" encoding="utf-8" standalone="no"?>
<!DOCTYPE svg PUBLIC "-//W3C//DTD SVG 1.1//EN"
  "http://www.w3.org/Graphics/SVG/1.1/DTD/svg11.dtd">
<svg height="383.471875pt" version="1.1" viewBox="0 0 421.086875 383.471875" width="421.086875pt" xmlns="http://www.w3.org/2000/svg" xmlns:xlink="http://www.w3.org/1999/xlink">
 <metadata>
  <rdf:RDF xmlns:cc="http://creativecommons.org/ns#" xmlns:dc="http://purl.org/dc/elements/1.1/" xmlns:rdf="http://www.w3.org/1999/02/22-rdf-syntax-ns#">
   <cc:Work>
    <dc:type rdf:resource="http://purl.org/dc/dcmitype/StillImage"/>
    <dc:date>2021-06-11T14:39:38.160684</dc:date>
    <dc:format>image/svg+xml</dc:format>
    <dc:creator>
     <cc:Agent>
      <dc:title>Matplotlib v3.4.2, https://matplotlib.org/</dc:title>
     </cc:Agent>
    </dc:creator>
   </cc:Work>
  </rdf:RDF>
 </metadata>
 <defs>
  <style type="text/css">*{stroke-linecap:butt;stroke-linejoin:round;}</style>
 </defs>
 <g id="figure_1">
  <g id="patch_1">
   <path d="M 0 383.471875 
L 421.086875 383.471875 
L 421.086875 0 
L 0 0 
z
" style="fill:#ffffff;"/>
  </g>
  <g id="axes_1">
   <g id="patch_2">
    <path d="M 63.336875 339.84 
L 398.136875 339.84 
L 398.136875 7.2 
L 63.336875 7.2 
z
" style="fill:#ffffff;"/>
   </g>
   <g id="matplotlib.axis_1">
    <g id="xtick_1">
     <g id="line2d_1">
      <path clip-path="url(#p38261e68fd)" d="M 93.773239 339.84 
L 93.773239 7.2 
" style="fill:none;stroke:#000000;stroke-dasharray:0.5,0.825;stroke-dashoffset:0;stroke-width:0.5;"/>
     </g>
     <g id="line2d_2">
      <defs>
       <path d="M 0 0 
L 0 3.5 
" id="m9c00a41fd9" style="stroke:#000000;stroke-width:0.8;"/>
      </defs>
      <g>
       <use style="stroke:#000000;stroke-width:0.8;" x="93.773239" xlink:href="#m9c00a41fd9" y="339.84"/>
      </g>
     </g>
     <g id="text_1">
      <!-- 0.000 -->
      <g transform="translate(78.023239 356.56125)scale(0.14 -0.14)">
       <defs>
        <path d="M 231 2094 
Q 231 2819 450 3342 
Q 669 3866 1031 4122 
Q 1313 4325 1613 4325 
Q 2100 4325 2488 3828 
Q 2972 3213 2972 2159 
Q 2972 1422 2759 906 
Q 2547 391 2217 158 
Q 1888 -75 1581 -75 
Q 975 -75 572 641 
Q 231 1244 231 2094 
z
M 844 2016 
Q 844 1141 1059 588 
Q 1238 122 1591 122 
Q 1759 122 1940 273 
Q 2122 425 2216 781 
Q 2359 1319 2359 2297 
Q 2359 3022 2209 3506 
Q 2097 3866 1919 4016 
Q 1791 4119 1609 4119 
Q 1397 4119 1231 3928 
Q 1006 3669 925 3112 
Q 844 2556 844 2016 
z
" id="TimesNewRomanPSMT-30" transform="scale(0.015625)"/>
        <path d="M 800 606 
Q 947 606 1047 504 
Q 1147 403 1147 259 
Q 1147 116 1045 14 
Q 944 -88 800 -88 
Q 656 -88 554 14 
Q 453 116 453 259 
Q 453 406 554 506 
Q 656 606 800 606 
z
" id="TimesNewRomanPSMT-2e" transform="scale(0.015625)"/>
       </defs>
       <use xlink:href="#TimesNewRomanPSMT-30"/>
       <use x="50" xlink:href="#TimesNewRomanPSMT-2e"/>
       <use x="75" xlink:href="#TimesNewRomanPSMT-30"/>
       <use x="125" xlink:href="#TimesNewRomanPSMT-30"/>
       <use x="175" xlink:href="#TimesNewRomanPSMT-30"/>
      </g>
     </g>
    </g>
    <g id="xtick_2">
     <g id="line2d_3">
      <path clip-path="url(#p38261e68fd)" d="M 154.645966 339.84 
L 154.645966 7.2 
" style="fill:none;stroke:#000000;stroke-dasharray:0.5,0.825;stroke-dashoffset:0;stroke-width:0.5;"/>
     </g>
     <g id="line2d_4">
      <g>
       <use style="stroke:#000000;stroke-width:0.8;" x="154.645966" xlink:href="#m9c00a41fd9" y="339.84"/>
      </g>
     </g>
     <g id="text_2">
      <!-- 0.001 -->
      <g transform="translate(138.895966 356.56125)scale(0.14 -0.14)">
       <defs>
        <path d="M 750 3822 
L 1781 4325 
L 1884 4325 
L 1884 747 
Q 1884 391 1914 303 
Q 1944 216 2037 169 
Q 2131 122 2419 116 
L 2419 0 
L 825 0 
L 825 116 
Q 1125 122 1212 167 
Q 1300 213 1334 289 
Q 1369 366 1369 747 
L 1369 3034 
Q 1369 3497 1338 3628 
Q 1316 3728 1258 3775 
Q 1200 3822 1119 3822 
Q 1003 3822 797 3725 
L 750 3822 
z
" id="TimesNewRomanPSMT-31" transform="scale(0.015625)"/>
       </defs>
       <use xlink:href="#TimesNewRomanPSMT-30"/>
       <use x="50" xlink:href="#TimesNewRomanPSMT-2e"/>
       <use x="75" xlink:href="#TimesNewRomanPSMT-30"/>
       <use x="125" xlink:href="#TimesNewRomanPSMT-30"/>
       <use x="175" xlink:href="#TimesNewRomanPSMT-31"/>
      </g>
     </g>
    </g>
    <g id="xtick_3">
     <g id="line2d_5">
      <path clip-path="url(#p38261e68fd)" d="M 215.518693 339.84 
L 215.518693 7.2 
" style="fill:none;stroke:#000000;stroke-dasharray:0.5,0.825;stroke-dashoffset:0;stroke-width:0.5;"/>
     </g>
     <g id="line2d_6">
      <g>
       <use style="stroke:#000000;stroke-width:0.8;" x="215.518693" xlink:href="#m9c00a41fd9" y="339.84"/>
      </g>
     </g>
     <g id="text_3">
      <!-- 0.002 -->
      <g transform="translate(199.768693 356.56125)scale(0.14 -0.14)">
       <defs>
        <path d="M 2934 816 
L 2638 0 
L 138 0 
L 138 116 
Q 1241 1122 1691 1759 
Q 2141 2397 2141 2925 
Q 2141 3328 1894 3587 
Q 1647 3847 1303 3847 
Q 991 3847 742 3664 
Q 494 3481 375 3128 
L 259 3128 
Q 338 3706 661 4015 
Q 984 4325 1469 4325 
Q 1984 4325 2329 3994 
Q 2675 3663 2675 3213 
Q 2675 2891 2525 2569 
Q 2294 2063 1775 1497 
Q 997 647 803 472 
L 1909 472 
Q 2247 472 2383 497 
Q 2519 522 2628 598 
Q 2738 675 2819 816 
L 2934 816 
z
" id="TimesNewRomanPSMT-32" transform="scale(0.015625)"/>
       </defs>
       <use xlink:href="#TimesNewRomanPSMT-30"/>
       <use x="50" xlink:href="#TimesNewRomanPSMT-2e"/>
       <use x="75" xlink:href="#TimesNewRomanPSMT-30"/>
       <use x="125" xlink:href="#TimesNewRomanPSMT-30"/>
       <use x="175" xlink:href="#TimesNewRomanPSMT-32"/>
      </g>
     </g>
    </g>
    <g id="xtick_4">
     <g id="line2d_7">
      <path clip-path="url(#p38261e68fd)" d="M 276.39142 339.84 
L 276.39142 7.2 
" style="fill:none;stroke:#000000;stroke-dasharray:0.5,0.825;stroke-dashoffset:0;stroke-width:0.5;"/>
     </g>
     <g id="line2d_8">
      <g>
       <use style="stroke:#000000;stroke-width:0.8;" x="276.39142" xlink:href="#m9c00a41fd9" y="339.84"/>
      </g>
     </g>
     <g id="text_4">
      <!-- 0.003 -->
      <g transform="translate(260.64142 356.56125)scale(0.14 -0.14)">
       <defs>
        <path d="M 325 3431 
Q 506 3859 782 4092 
Q 1059 4325 1472 4325 
Q 1981 4325 2253 3994 
Q 2459 3747 2459 3466 
Q 2459 3003 1878 2509 
Q 2269 2356 2469 2072 
Q 2669 1788 2669 1403 
Q 2669 853 2319 450 
Q 1863 -75 997 -75 
Q 569 -75 414 31 
Q 259 138 259 259 
Q 259 350 332 419 
Q 406 488 509 488 
Q 588 488 669 463 
Q 722 447 909 348 
Q 1097 250 1169 231 
Q 1284 197 1416 197 
Q 1734 197 1970 444 
Q 2206 691 2206 1028 
Q 2206 1275 2097 1509 
Q 2016 1684 1919 1775 
Q 1784 1900 1550 2001 
Q 1316 2103 1072 2103 
L 972 2103 
L 972 2197 
Q 1219 2228 1467 2375 
Q 1716 2522 1828 2728 
Q 1941 2934 1941 3181 
Q 1941 3503 1739 3701 
Q 1538 3900 1238 3900 
Q 753 3900 428 3381 
L 325 3431 
z
" id="TimesNewRomanPSMT-33" transform="scale(0.015625)"/>
       </defs>
       <use xlink:href="#TimesNewRomanPSMT-30"/>
       <use x="50" xlink:href="#TimesNewRomanPSMT-2e"/>
       <use x="75" xlink:href="#TimesNewRomanPSMT-30"/>
       <use x="125" xlink:href="#TimesNewRomanPSMT-30"/>
       <use x="175" xlink:href="#TimesNewRomanPSMT-33"/>
      </g>
     </g>
    </g>
    <g id="xtick_5">
     <g id="line2d_9">
      <path clip-path="url(#p38261e68fd)" d="M 337.264148 339.84 
L 337.264148 7.2 
" style="fill:none;stroke:#000000;stroke-dasharray:0.5,0.825;stroke-dashoffset:0;stroke-width:0.5;"/>
     </g>
     <g id="line2d_10">
      <g>
       <use style="stroke:#000000;stroke-width:0.8;" x="337.264148" xlink:href="#m9c00a41fd9" y="339.84"/>
      </g>
     </g>
     <g id="text_5">
      <!-- 0.004 -->
      <g transform="translate(321.514148 356.56125)scale(0.14 -0.14)">
       <defs>
        <path d="M 2978 1563 
L 2978 1119 
L 2409 1119 
L 2409 0 
L 1894 0 
L 1894 1119 
L 100 1119 
L 100 1519 
L 2066 4325 
L 2409 4325 
L 2409 1563 
L 2978 1563 
z
M 1894 1563 
L 1894 3666 
L 406 1563 
L 1894 1563 
z
" id="TimesNewRomanPSMT-34" transform="scale(0.015625)"/>
       </defs>
       <use xlink:href="#TimesNewRomanPSMT-30"/>
       <use x="50" xlink:href="#TimesNewRomanPSMT-2e"/>
       <use x="75" xlink:href="#TimesNewRomanPSMT-30"/>
       <use x="125" xlink:href="#TimesNewRomanPSMT-30"/>
       <use x="175" xlink:href="#TimesNewRomanPSMT-34"/>
      </g>
     </g>
    </g>
    <g id="xtick_6">
     <g id="line2d_11">
      <path clip-path="url(#p38261e68fd)" d="M 398.136875 339.84 
L 398.136875 7.2 
" style="fill:none;stroke:#000000;stroke-dasharray:0.5,0.825;stroke-dashoffset:0;stroke-width:0.5;"/>
     </g>
     <g id="line2d_12">
      <g>
       <use style="stroke:#000000;stroke-width:0.8;" x="398.136875" xlink:href="#m9c00a41fd9" y="339.84"/>
      </g>
     </g>
     <g id="text_6">
      <!-- 0.005 -->
      <g transform="translate(382.386875 356.56125)scale(0.14 -0.14)">
       <defs>
        <path d="M 2778 4238 
L 2534 3706 
L 1259 3706 
L 981 3138 
Q 1809 3016 2294 2522 
Q 2709 2097 2709 1522 
Q 2709 1188 2573 903 
Q 2438 619 2231 419 
Q 2025 219 1772 97 
Q 1413 -75 1034 -75 
Q 653 -75 479 54 
Q 306 184 306 341 
Q 306 428 378 495 
Q 450 563 559 563 
Q 641 563 702 538 
Q 763 513 909 409 
Q 1144 247 1384 247 
Q 1750 247 2026 523 
Q 2303 800 2303 1197 
Q 2303 1581 2056 1914 
Q 1809 2247 1375 2428 
Q 1034 2569 447 2591 
L 1259 4238 
L 2778 4238 
z
" id="TimesNewRomanPSMT-35" transform="scale(0.015625)"/>
       </defs>
       <use xlink:href="#TimesNewRomanPSMT-30"/>
       <use x="50" xlink:href="#TimesNewRomanPSMT-2e"/>
       <use x="75" xlink:href="#TimesNewRomanPSMT-30"/>
       <use x="125" xlink:href="#TimesNewRomanPSMT-30"/>
       <use x="175" xlink:href="#TimesNewRomanPSMT-35"/>
      </g>
     </g>
    </g>
    <g id="text_7">
     <!-- Time (sec) -->
     <g transform="translate(200.858906 373.277188)scale(0.14 -0.14)">
      <defs>
       <path d="M 3703 4238 
L 3750 3244 
L 3631 3244 
Q 3597 3506 3538 3619 
Q 3441 3800 3280 3886 
Q 3119 3972 2856 3972 
L 2259 3972 
L 2259 734 
Q 2259 344 2344 247 
Q 2463 116 2709 116 
L 2856 116 
L 2856 0 
L 1059 0 
L 1059 116 
L 1209 116 
Q 1478 116 1591 278 
Q 1659 378 1659 734 
L 1659 3972 
L 1150 3972 
Q 853 3972 728 3928 
Q 566 3869 450 3700 
Q 334 3531 313 3244 
L 194 3244 
L 244 4238 
L 3703 4238 
z
" id="TimesNewRomanPSMT-54" transform="scale(0.015625)"/>
       <path d="M 928 4444 
Q 1059 4444 1151 4351 
Q 1244 4259 1244 4128 
Q 1244 3997 1151 3903 
Q 1059 3809 928 3809 
Q 797 3809 703 3903 
Q 609 3997 609 4128 
Q 609 4259 701 4351 
Q 794 4444 928 4444 
z
M 1188 2947 
L 1188 647 
Q 1188 378 1227 289 
Q 1266 200 1342 156 
Q 1419 113 1622 113 
L 1622 0 
L 231 0 
L 231 113 
Q 441 113 512 153 
Q 584 194 626 287 
Q 669 381 669 647 
L 669 1750 
Q 669 2216 641 2353 
Q 619 2453 572 2492 
Q 525 2531 444 2531 
Q 356 2531 231 2484 
L 188 2597 
L 1050 2947 
L 1188 2947 
z
" id="TimesNewRomanPSMT-69" transform="scale(0.015625)"/>
       <path d="M 1050 2338 
Q 1363 2650 1419 2697 
Q 1559 2816 1721 2881 
Q 1884 2947 2044 2947 
Q 2313 2947 2506 2790 
Q 2700 2634 2766 2338 
Q 3088 2713 3309 2830 
Q 3531 2947 3766 2947 
Q 3994 2947 4170 2830 
Q 4347 2713 4450 2447 
Q 4519 2266 4519 1878 
L 4519 647 
Q 4519 378 4559 278 
Q 4591 209 4675 161 
Q 4759 113 4950 113 
L 4950 0 
L 3538 0 
L 3538 113 
L 3597 113 
Q 3781 113 3884 184 
Q 3956 234 3988 344 
Q 4000 397 4000 647 
L 4000 1878 
Q 4000 2228 3916 2372 
Q 3794 2572 3525 2572 
Q 3359 2572 3192 2489 
Q 3025 2406 2788 2181 
L 2781 2147 
L 2788 2013 
L 2788 647 
Q 2788 353 2820 281 
Q 2853 209 2943 161 
Q 3034 113 3253 113 
L 3253 0 
L 1806 0 
L 1806 113 
Q 2044 113 2133 169 
Q 2222 225 2256 338 
Q 2272 391 2272 647 
L 2272 1878 
Q 2272 2228 2169 2381 
Q 2031 2581 1784 2581 
Q 1616 2581 1450 2491 
Q 1191 2353 1050 2181 
L 1050 647 
Q 1050 366 1089 281 
Q 1128 197 1204 155 
Q 1281 113 1516 113 
L 1516 0 
L 100 0 
L 100 113 
Q 297 113 375 155 
Q 453 197 493 289 
Q 534 381 534 647 
L 534 1741 
Q 534 2213 506 2350 
Q 484 2453 437 2492 
Q 391 2531 309 2531 
Q 222 2531 100 2484 
L 53 2597 
L 916 2947 
L 1050 2947 
L 1050 2338 
z
" id="TimesNewRomanPSMT-6d" transform="scale(0.015625)"/>
       <path d="M 681 1784 
Q 678 1147 991 784 
Q 1303 422 1725 422 
Q 2006 422 2214 576 
Q 2422 731 2563 1106 
L 2659 1044 
Q 2594 616 2278 264 
Q 1963 -88 1488 -88 
Q 972 -88 605 314 
Q 238 716 238 1394 
Q 238 2128 614 2539 
Q 991 2950 1559 2950 
Q 2041 2950 2350 2633 
Q 2659 2316 2659 1784 
L 681 1784 
z
M 681 1966 
L 2006 1966 
Q 1991 2241 1941 2353 
Q 1863 2528 1708 2628 
Q 1553 2728 1384 2728 
Q 1125 2728 920 2526 
Q 716 2325 681 1966 
z
" id="TimesNewRomanPSMT-65" transform="scale(0.015625)"/>
       <path id="TimesNewRomanPSMT-20" transform="scale(0.015625)"/>
       <path d="M 1988 -1253 
L 1988 -1369 
Q 1516 -1131 1200 -813 
Q 750 -359 506 256 
Q 263 872 263 1534 
Q 263 2503 741 3301 
Q 1219 4100 1988 4444 
L 1988 4313 
Q 1603 4100 1356 3731 
Q 1109 3363 987 2797 
Q 866 2231 866 1616 
Q 866 947 969 400 
Q 1050 -31 1165 -292 
Q 1281 -553 1476 -793 
Q 1672 -1034 1988 -1253 
z
" id="TimesNewRomanPSMT-28" transform="scale(0.015625)"/>
       <path d="M 2050 2947 
L 2050 1972 
L 1947 1972 
Q 1828 2431 1642 2597 
Q 1456 2763 1169 2763 
Q 950 2763 815 2647 
Q 681 2531 681 2391 
Q 681 2216 781 2091 
Q 878 1963 1175 1819 
L 1631 1597 
Q 2266 1288 2266 781 
Q 2266 391 1970 151 
Q 1675 -88 1309 -88 
Q 1047 -88 709 6 
Q 606 38 541 38 
Q 469 38 428 -44 
L 325 -44 
L 325 978 
L 428 978 
Q 516 541 762 319 
Q 1009 97 1316 97 
Q 1531 97 1667 223 
Q 1803 350 1803 528 
Q 1803 744 1651 891 
Q 1500 1038 1047 1263 
Q 594 1488 453 1669 
Q 313 1847 313 2119 
Q 313 2472 555 2709 
Q 797 2947 1181 2947 
Q 1350 2947 1591 2875 
Q 1750 2828 1803 2828 
Q 1853 2828 1881 2850 
Q 1909 2872 1947 2947 
L 2050 2947 
z
" id="TimesNewRomanPSMT-73" transform="scale(0.015625)"/>
       <path d="M 2631 1088 
Q 2516 522 2178 217 
Q 1841 -88 1431 -88 
Q 944 -88 581 321 
Q 219 731 219 1428 
Q 219 2103 620 2525 
Q 1022 2947 1584 2947 
Q 2006 2947 2278 2723 
Q 2550 2500 2550 2259 
Q 2550 2141 2473 2067 
Q 2397 1994 2259 1994 
Q 2075 1994 1981 2113 
Q 1928 2178 1911 2362 
Q 1894 2547 1784 2644 
Q 1675 2738 1481 2738 
Q 1169 2738 978 2506 
Q 725 2200 725 1697 
Q 725 1184 976 792 
Q 1228 400 1656 400 
Q 1963 400 2206 609 
Q 2378 753 2541 1131 
L 2631 1088 
z
" id="TimesNewRomanPSMT-63" transform="scale(0.015625)"/>
       <path d="M 144 4313 
L 144 4444 
Q 619 4209 934 3891 
Q 1381 3434 1625 2820 
Q 1869 2206 1869 1541 
Q 1869 572 1392 -226 
Q 916 -1025 144 -1369 
L 144 -1253 
Q 528 -1038 776 -670 
Q 1025 -303 1145 264 
Q 1266 831 1266 1447 
Q 1266 2113 1163 2663 
Q 1084 3094 967 3353 
Q 850 3613 656 3853 
Q 463 4094 144 4313 
z
" id="TimesNewRomanPSMT-29" transform="scale(0.015625)"/>
      </defs>
      <use xlink:href="#TimesNewRomanPSMT-54"/>
      <use x="57.583984" xlink:href="#TimesNewRomanPSMT-69"/>
      <use x="85.367188" xlink:href="#TimesNewRomanPSMT-6d"/>
      <use x="163.150391" xlink:href="#TimesNewRomanPSMT-65"/>
      <use x="207.535156" xlink:href="#TimesNewRomanPSMT-20"/>
      <use x="232.535156" xlink:href="#TimesNewRomanPSMT-28"/>
      <use x="265.835938" xlink:href="#TimesNewRomanPSMT-73"/>
      <use x="304.751953" xlink:href="#TimesNewRomanPSMT-65"/>
      <use x="349.136719" xlink:href="#TimesNewRomanPSMT-63"/>
      <use x="393.521484" xlink:href="#TimesNewRomanPSMT-29"/>
     </g>
    </g>
   </g>
   <g id="matplotlib.axis_2">
    <g id="ytick_1">
     <g id="line2d_13">
      <path clip-path="url(#p38261e68fd)" d="M 63.336875 317.74028 
L 398.136875 317.74028 
" style="fill:none;stroke:#000000;stroke-dasharray:0.5,0.825;stroke-dashoffset:0;stroke-width:0.5;"/>
     </g>
     <g id="line2d_14">
      <defs>
       <path d="M 0 0 
L -3.5 0 
" id="m17bb72d3ac" style="stroke:#000000;stroke-width:0.8;"/>
      </defs>
      <g>
       <use style="stroke:#000000;stroke-width:0.8;" x="63.336875" xlink:href="#m17bb72d3ac" y="317.74028"/>
      </g>
     </g>
     <g id="text_8">
      <!-- −0.06 -->
      <g transform="translate(23.942188 322.600905)scale(0.14 -0.14)">
       <defs>
        <path d="M 3484 2000 
L 116 2000 
L 116 2256 
L 3484 2256 
L 3484 2000 
z
" id="TimesNewRomanPSMT-2212" transform="scale(0.015625)"/>
        <path d="M 2869 4325 
L 2869 4209 
Q 2456 4169 2195 4045 
Q 1934 3922 1679 3669 
Q 1425 3416 1258 3105 
Q 1091 2794 978 2366 
Q 1428 2675 1881 2675 
Q 2316 2675 2634 2325 
Q 2953 1975 2953 1425 
Q 2953 894 2631 456 
Q 2244 -75 1606 -75 
Q 1172 -75 869 213 
Q 275 772 275 1663 
Q 275 2231 503 2743 
Q 731 3256 1154 3653 
Q 1578 4050 1965 4187 
Q 2353 4325 2688 4325 
L 2869 4325 
z
M 925 2138 
Q 869 1716 869 1456 
Q 869 1156 980 804 
Q 1091 453 1309 247 
Q 1469 100 1697 100 
Q 1969 100 2183 356 
Q 2397 613 2397 1088 
Q 2397 1622 2184 2012 
Q 1972 2403 1581 2403 
Q 1463 2403 1327 2353 
Q 1191 2303 925 2138 
z
" id="TimesNewRomanPSMT-36" transform="scale(0.015625)"/>
       </defs>
       <use xlink:href="#TimesNewRomanPSMT-2212"/>
       <use x="56.396484" xlink:href="#TimesNewRomanPSMT-30"/>
       <use x="106.396484" xlink:href="#TimesNewRomanPSMT-2e"/>
       <use x="131.396484" xlink:href="#TimesNewRomanPSMT-30"/>
       <use x="181.396484" xlink:href="#TimesNewRomanPSMT-36"/>
      </g>
     </g>
    </g>
    <g id="ytick_2">
     <g id="line2d_15">
      <path clip-path="url(#p38261e68fd)" d="M 63.336875 264.332569 
L 398.136875 264.332569 
" style="fill:none;stroke:#000000;stroke-dasharray:0.5,0.825;stroke-dashoffset:0;stroke-width:0.5;"/>
     </g>
     <g id="line2d_16">
      <g>
       <use style="stroke:#000000;stroke-width:0.8;" x="63.336875" xlink:href="#m17bb72d3ac" y="264.332569"/>
      </g>
     </g>
     <g id="text_9">
      <!-- −0.04 -->
      <g transform="translate(23.942188 269.193194)scale(0.14 -0.14)">
       <use xlink:href="#TimesNewRomanPSMT-2212"/>
       <use x="56.396484" xlink:href="#TimesNewRomanPSMT-30"/>
       <use x="106.396484" xlink:href="#TimesNewRomanPSMT-2e"/>
       <use x="131.396484" xlink:href="#TimesNewRomanPSMT-30"/>
       <use x="181.396484" xlink:href="#TimesNewRomanPSMT-34"/>
      </g>
     </g>
    </g>
    <g id="ytick_3">
     <g id="line2d_17">
      <path clip-path="url(#p38261e68fd)" d="M 63.336875 210.924859 
L 398.136875 210.924859 
" style="fill:none;stroke:#000000;stroke-dasharray:0.5,0.825;stroke-dashoffset:0;stroke-width:0.5;"/>
     </g>
     <g id="line2d_18">
      <g>
       <use style="stroke:#000000;stroke-width:0.8;" x="63.336875" xlink:href="#m17bb72d3ac" y="210.924859"/>
      </g>
     </g>
     <g id="text_10">
      <!-- −0.02 -->
      <g transform="translate(23.942188 215.785484)scale(0.14 -0.14)">
       <use xlink:href="#TimesNewRomanPSMT-2212"/>
       <use x="56.396484" xlink:href="#TimesNewRomanPSMT-30"/>
       <use x="106.396484" xlink:href="#TimesNewRomanPSMT-2e"/>
       <use x="131.396484" xlink:href="#TimesNewRomanPSMT-30"/>
       <use x="181.396484" xlink:href="#TimesNewRomanPSMT-32"/>
      </g>
     </g>
    </g>
    <g id="ytick_4">
     <g id="line2d_19">
      <path clip-path="url(#p38261e68fd)" d="M 63.336875 157.517149 
L 398.136875 157.517149 
" style="fill:none;stroke:#000000;stroke-dasharray:0.5,0.825;stroke-dashoffset:0;stroke-width:0.5;"/>
     </g>
     <g id="line2d_20">
      <g>
       <use style="stroke:#000000;stroke-width:0.8;" x="63.336875" xlink:href="#m17bb72d3ac" y="157.517149"/>
      </g>
     </g>
     <g id="text_11">
      <!-- 0.00 -->
      <g transform="translate(31.836875 162.377774)scale(0.14 -0.14)">
       <use xlink:href="#TimesNewRomanPSMT-30"/>
       <use x="50" xlink:href="#TimesNewRomanPSMT-2e"/>
       <use x="75" xlink:href="#TimesNewRomanPSMT-30"/>
       <use x="125" xlink:href="#TimesNewRomanPSMT-30"/>
      </g>
     </g>
    </g>
    <g id="ytick_5">
     <g id="line2d_21">
      <path clip-path="url(#p38261e68fd)" d="M 63.336875 104.109438 
L 398.136875 104.109438 
" style="fill:none;stroke:#000000;stroke-dasharray:0.5,0.825;stroke-dashoffset:0;stroke-width:0.5;"/>
     </g>
     <g id="line2d_22">
      <g>
       <use style="stroke:#000000;stroke-width:0.8;" x="63.336875" xlink:href="#m17bb72d3ac" y="104.109438"/>
      </g>
     </g>
     <g id="text_12">
      <!-- 0.02 -->
      <g transform="translate(31.836875 108.970063)scale(0.14 -0.14)">
       <use xlink:href="#TimesNewRomanPSMT-30"/>
       <use x="50" xlink:href="#TimesNewRomanPSMT-2e"/>
       <use x="75" xlink:href="#TimesNewRomanPSMT-30"/>
       <use x="125" xlink:href="#TimesNewRomanPSMT-32"/>
      </g>
     </g>
    </g>
    <g id="ytick_6">
     <g id="line2d_23">
      <path clip-path="url(#p38261e68fd)" d="M 63.336875 50.701728 
L 398.136875 50.701728 
" style="fill:none;stroke:#000000;stroke-dasharray:0.5,0.825;stroke-dashoffset:0;stroke-width:0.5;"/>
     </g>
     <g id="line2d_24">
      <g>
       <use style="stroke:#000000;stroke-width:0.8;" x="63.336875" xlink:href="#m17bb72d3ac" y="50.701728"/>
      </g>
     </g>
     <g id="text_13">
      <!-- 0.04 -->
      <g transform="translate(31.836875 55.562353)scale(0.14 -0.14)">
       <use xlink:href="#TimesNewRomanPSMT-30"/>
       <use x="50" xlink:href="#TimesNewRomanPSMT-2e"/>
       <use x="75" xlink:href="#TimesNewRomanPSMT-30"/>
       <use x="125" xlink:href="#TimesNewRomanPSMT-34"/>
      </g>
     </g>
    </g>
    <g id="text_14">
     <!-- Volatage (V) -->
     <g transform="translate(16.92125 209.352344)rotate(-90)scale(0.14 -0.14)">
      <defs>
       <path d="M 4544 4238 
L 4544 4122 
Q 4319 4081 4203 3978 
Q 4038 3825 3909 3509 
L 2431 -97 
L 2316 -97 
L 728 3556 
Q 606 3838 556 3900 
Q 478 3997 364 4051 
Q 250 4106 56 4122 
L 56 4238 
L 1788 4238 
L 1788 4122 
Q 1494 4094 1406 4022 
Q 1319 3950 1319 3838 
Q 1319 3681 1463 3350 
L 2541 866 
L 3541 3319 
Q 3688 3681 3688 3822 
Q 3688 3913 3597 3995 
Q 3506 4078 3291 4113 
Q 3275 4116 3238 4122 
L 3238 4238 
L 4544 4238 
z
" id="TimesNewRomanPSMT-56" transform="scale(0.015625)"/>
       <path d="M 1600 2947 
Q 2250 2947 2644 2453 
Q 2978 2031 2978 1484 
Q 2978 1100 2793 706 
Q 2609 313 2286 112 
Q 1963 -88 1566 -88 
Q 919 -88 538 428 
Q 216 863 216 1403 
Q 216 1797 411 2186 
Q 606 2575 925 2761 
Q 1244 2947 1600 2947 
z
M 1503 2744 
Q 1338 2744 1170 2645 
Q 1003 2547 900 2300 
Q 797 2053 797 1666 
Q 797 1041 1045 587 
Q 1294 134 1700 134 
Q 2003 134 2200 384 
Q 2397 634 2397 1244 
Q 2397 2006 2069 2444 
Q 1847 2744 1503 2744 
z
" id="TimesNewRomanPSMT-6f" transform="scale(0.015625)"/>
       <path d="M 1184 4444 
L 1184 647 
Q 1184 378 1223 290 
Q 1263 203 1344 158 
Q 1425 113 1647 113 
L 1647 0 
L 244 0 
L 244 113 
Q 441 113 512 153 
Q 584 194 625 287 
Q 666 381 666 647 
L 666 3247 
Q 666 3731 644 3842 
Q 622 3953 573 3993 
Q 525 4034 450 4034 
Q 369 4034 244 3984 
L 191 4094 
L 1044 4444 
L 1184 4444 
z
" id="TimesNewRomanPSMT-6c" transform="scale(0.015625)"/>
       <path d="M 1822 413 
Q 1381 72 1269 19 
Q 1100 -59 909 -59 
Q 613 -59 420 144 
Q 228 347 228 678 
Q 228 888 322 1041 
Q 450 1253 767 1440 
Q 1084 1628 1822 1897 
L 1822 2009 
Q 1822 2438 1686 2597 
Q 1550 2756 1291 2756 
Q 1094 2756 978 2650 
Q 859 2544 859 2406 
L 866 2225 
Q 866 2081 792 2003 
Q 719 1925 600 1925 
Q 484 1925 411 2006 
Q 338 2088 338 2228 
Q 338 2497 613 2722 
Q 888 2947 1384 2947 
Q 1766 2947 2009 2819 
Q 2194 2722 2281 2516 
Q 2338 2381 2338 1966 
L 2338 994 
Q 2338 584 2353 492 
Q 2369 400 2405 369 
Q 2441 338 2488 338 
Q 2538 338 2575 359 
Q 2641 400 2828 588 
L 2828 413 
Q 2478 -56 2159 -56 
Q 2006 -56 1915 50 
Q 1825 156 1822 413 
z
M 1822 616 
L 1822 1706 
Q 1350 1519 1213 1441 
Q 966 1303 859 1153 
Q 753 1003 753 825 
Q 753 600 887 451 
Q 1022 303 1197 303 
Q 1434 303 1822 616 
z
" id="TimesNewRomanPSMT-61" transform="scale(0.015625)"/>
       <path d="M 1031 3803 
L 1031 2863 
L 1700 2863 
L 1700 2644 
L 1031 2644 
L 1031 788 
Q 1031 509 1111 412 
Q 1191 316 1316 316 
Q 1419 316 1516 380 
Q 1613 444 1666 569 
L 1788 569 
Q 1678 263 1478 108 
Q 1278 -47 1066 -47 
Q 922 -47 784 33 
Q 647 113 581 261 
Q 516 409 516 719 
L 516 2644 
L 63 2644 
L 63 2747 
Q 234 2816 414 2980 
Q 594 3144 734 3369 
Q 806 3488 934 3803 
L 1031 3803 
z
" id="TimesNewRomanPSMT-74" transform="scale(0.015625)"/>
       <path d="M 966 1044 
Q 703 1172 562 1401 
Q 422 1631 422 1909 
Q 422 2334 742 2640 
Q 1063 2947 1563 2947 
Q 1972 2947 2272 2747 
L 2878 2747 
Q 3013 2747 3034 2739 
Q 3056 2731 3066 2713 
Q 3084 2684 3084 2613 
Q 3084 2531 3069 2500 
Q 3059 2484 3036 2475 
Q 3013 2466 2878 2466 
L 2506 2466 
Q 2681 2241 2681 1891 
Q 2681 1491 2375 1206 
Q 2069 922 1553 922 
Q 1341 922 1119 984 
Q 981 866 932 777 
Q 884 688 884 625 
Q 884 572 936 522 
Q 988 472 1138 450 
Q 1225 438 1575 428 
Q 2219 413 2409 384 
Q 2700 344 2873 169 
Q 3047 -6 3047 -263 
Q 3047 -616 2716 -925 
Q 2228 -1381 1444 -1381 
Q 841 -1381 425 -1109 
Q 191 -953 191 -784 
Q 191 -709 225 -634 
Q 278 -519 444 -313 
Q 466 -284 763 25 
Q 600 122 533 198 
Q 466 275 466 372 
Q 466 481 555 628 
Q 644 775 966 1044 
z
M 1509 2797 
Q 1278 2797 1122 2612 
Q 966 2428 966 2047 
Q 966 1553 1178 1281 
Q 1341 1075 1591 1075 
Q 1828 1075 1981 1253 
Q 2134 1431 2134 1813 
Q 2134 2309 1919 2591 
Q 1759 2797 1509 2797 
z
M 934 0 
Q 788 -159 713 -296 
Q 638 -434 638 -550 
Q 638 -700 819 -813 
Q 1131 -1006 1722 -1006 
Q 2284 -1006 2551 -807 
Q 2819 -609 2819 -384 
Q 2819 -222 2659 -153 
Q 2497 -84 2016 -72 
Q 1313 -53 934 0 
z
" id="TimesNewRomanPSMT-67" transform="scale(0.015625)"/>
      </defs>
      <use xlink:href="#TimesNewRomanPSMT-56"/>
      <use x="59.341797" xlink:href="#TimesNewRomanPSMT-6f"/>
      <use x="109.341797" xlink:href="#TimesNewRomanPSMT-6c"/>
      <use x="137.125" xlink:href="#TimesNewRomanPSMT-61"/>
      <use x="181.509766" xlink:href="#TimesNewRomanPSMT-74"/>
      <use x="209.292969" xlink:href="#TimesNewRomanPSMT-61"/>
      <use x="253.677734" xlink:href="#TimesNewRomanPSMT-67"/>
      <use x="303.677734" xlink:href="#TimesNewRomanPSMT-65"/>
      <use x="348.0625" xlink:href="#TimesNewRomanPSMT-20"/>
      <use x="373.0625" xlink:href="#TimesNewRomanPSMT-28"/>
      <use x="406.363281" xlink:href="#TimesNewRomanPSMT-56"/>
      <use x="478.580078" xlink:href="#TimesNewRomanPSMT-29"/>
     </g>
    </g>
   </g>
   <g id="LineCollection_1">
    <path clip-path="url(#p38261e68fd)" d="M 78.555057 157.517149 
L 382.918693 157.517149 
" style="fill:none;stroke:#1f77b4;stroke-width:1.5;"/>
   </g>
   <g id="line2d_25">
    <path clip-path="url(#p38261e68fd)" d="M 78.555057 157.553866 
L 78.646366 157.553866 
L 78.768111 157.587246 
L 78.920293 157.520487 
L 95.69073 157.620626 
L 95.812475 157.620626 
L 100.773602 157.687386 
L 100.895348 157.720766 
L 101.017093 157.687386 
L 101.138839 157.720766 
L 101.169275 157.654006 
L 101.199711 157.754145 
L 101.260584 157.720766 
L 111.852439 157.820905 
L 111.882875 157.854285 
L 111.943748 157.787525 
L 113.191639 157.887665 
L 113.313384 157.921044 
L 113.43513 157.887665 
L 113.587311 157.921044 
L 114.378657 158.021184 
L 114.561275 158.087944 
L 114.68302 158.087944 
L 115.170002 158.154703 
L 115.291748 158.254843 
L 115.44393 158.188083 
L 115.535239 158.254843 
L 115.565675 158.221463 
L 115.870039 158.288222 
L 116.02222 158.354982 
L 116.752693 158.421742 
L 116.904875 158.488501 
L 116.996184 158.488501 
L 117.148366 158.555261 
L 117.239675 158.521881 
L 117.270111 158.555261 
L 117.817966 158.622021 
L 117.848402 158.68878 
L 117.939711 158.622021 
L 118.091893 158.6554 
L 118.45713 158.75554 
L 118.609311 158.78892 
L 119.522402 158.889059 
L 119.644148 158.922439 
L 119.79633 158.889059 
L 119.918075 158.922439 
L 121.013784 159.022578 
L 121.196402 159.089338 
L 121.652948 159.189478 
L 121.80513 159.256237 
L 122.109493 159.456516 
L 122.13993 159.423136 
L 122.200802 159.489896 
L 122.505166 159.690175 
L 122.687784 159.756935 
L 122.931275 160.023973 
L 124.72702 162.126902 
L 125.700984 163.996171 
L 125.82273 164.26321 
L 126.553202 166.13248 
L 128.83593 174.010117 
L 129.231602 175.612349 
L 129.84033 177.948936 
L 130.296875 179.884965 
L 130.84473 182.021273 
L 131.301275 183.923922 
L 131.788257 185.893333 
L 132.244802 187.462184 
L 132.305675 187.629083 
L 132.640475 188.630478 
L 133.18833 190.06581 
L 133.736184 191.000445 
L 133.979675 191.401003 
L 134.375348 192.00184 
L 135.288439 192.869715 
L 135.471057 192.969854 
L 135.623239 193.036614 
L 135.744984 193.003234 
L 135.86673 193.003234 
L 136.049348 192.903095 
L 136.597202 192.168739 
L 136.87113 191.601282 
L 136.992875 191.334243 
L 137.479857 190.03243 
L 137.966839 188.363439 
L 138.179893 187.662463 
L 139.488657 181.487197 
L 140.980039 170.972553 
L 142.988839 152.379995 
L 145.971602 118.466098 
L 146.732511 109.186511 
L 147.736911 96.969495 
L 148.893493 83.18363 
L 151.024039 60.986047 
L 151.906693 54.176567 
L 153.428511 44.863595 
L 154.128548 42.259974 
L 154.554657 41.225197 
L 154.95033 40.624361 
L 155.163384 40.524224 
L 155.28513 40.490839 
L 155.467748 40.557601 
L 155.650366 40.657738 
L 156.19822 41.392094 
L 156.715639 42.794051 
L 157.902657 48.435241 
L 158.511384 53.108415 
L 160.276693 71.567455 
L 161.737639 92.162804 
L 163.594257 124.474466 
L 165.176948 156.051775 
L 170.107639 256.525035 
L 171.416402 278.856129 
L 172.116439 289.304015 
L 173.394766 304.825628 
L 173.912184 309.632324 
L 174.794839 316.47519 
L 176.012293 322.583694 
L 176.438402 323.618461 
L 176.499275 323.718608 
L 176.651457 324.019026 
L 177.016693 324.586478 
L 177.138439 324.686626 
L 177.29062 324.72 
L 177.534111 324.619863 
L 177.929784 324.019026 
L 178.142839 323.685223 
L 179.025493 320.44738 
L 180.182075 313.57114 
L 182.06913 296.046733 
L 182.830039 286.533487 
L 184.74753 257.693323 
L 185.843239 239.334426 
L 189.252111 177.648517 
L 190.165202 160.891848 
L 193.056657 112.057173 
L 195.187202 85.420075 
L 196.739457 69.497901 
L 197.13513 66.159922 
L 197.926475 60.151552 
L 199.47873 52.240535 
L 199.996148 50.170991 
L 200.270075 49.002692 
L 201.06142 47.033286 
L 201.335348 46.265553 
L 201.457093 45.998509 
L 201.82233 45.464432 
L 202.15713 45.230776 
L 202.461493 45.130639 
L 202.644111 44.997117 
L 202.765857 44.89698 
L 202.948475 44.83022 
L 203.374584 44.930357 
L 203.648511 45.097254 
L 204.105057 45.197398 
L 204.74422 45.998509 
L 204.957275 46.465834 
L 205.231202 46.999909 
L 205.383384 47.300327 
L 205.961675 48.835796 
L 206.41822 50.371265 
L 206.783457 51.406042 
L 207.940039 56.012454 
L 208.305275 57.581309 
L 208.85313 60.45197 
L 211.835893 76.207248 
L 212.505493 79.611989 
L 215.031711 94.032071 
L 215.762184 98.838765 
L 216.918766 105.781767 
L 217.497057 108.886093 
L 217.89273 111.055779 
L 218.744948 115.962615 
L 219.171057 118.265819 
L 220.053711 123.372932 
L 220.510257 125.809659 
L 221.332039 130.516213 
L 221.849457 133.219979 
L 224.101748 147.306261 
L 224.862657 152.012817 
L 225.227893 154.516303 
L 226.26273 162.060142 
L 227.723675 174.076877 
L 229.549857 191.000445 
L 230.249893 198.110347 
L 232.106511 217.270363 
L 232.989166 227.084027 
L 234.267493 241.20369 
L 236.702402 264.135631 
L 237.524184 269.643301 
L 238.163348 272.881144 
L 238.55902 274.817165 
L 238.741639 275.451387 
L 239.137311 276.719823 
L 239.441675 277.621078 
L 239.65473 278.221915 
L 239.89822 278.722607 
L 240.019966 278.789366 
L 240.172148 278.889514 
L 240.780875 278.789366 
L 241.267857 278.155155 
L 242.66793 273.248322 
L 243.24622 270.177378 
L 243.763639 267.440236 
L 245.133275 257.693323 
L 246.655093 241.671013 
L 247.629057 229.35386 
L 248.116039 222.811413 
L 250.094402 195.339822 
L 251.646657 173.209002 
L 253.320657 150.911283 
L 254.416366 137.893154 
L 255.96862 122.071119 
L 256.699093 115.929235 
L 257.490439 110.688598 
L 258.525275 105.614868 
L 259.438366 102.043227 
L 259.712293 101.175352 
L 260.381893 99.339462 
L 261.112366 98.004272 
L 261.873275 97.303293 
L 262.968984 97.403435 
L 263.182039 97.603712 
L 263.364657 97.703854 
L 264.09513 98.404825 
L 264.125566 98.371445 
L 264.156002 98.471587 
L 264.308184 98.571729 
L 264.612548 98.972281 
L 265.069093 99.606501 
L 265.403893 100.073821 
L 265.738693 100.574515 
L 266.77353 102.577305 
L 266.956148 102.911103 
L 267.930111 105.28107 
L 268.173602 105.915289 
L 268.660584 107.217097 
L 268.934511 107.984838 
L 269.482366 109.45355 
L 270.12153 111.22268 
L 270.212839 111.456336 
L 270.638948 112.858289 
L 270.69982 113.025191 
L 271.734657 116.763728 
L 272.221639 118.900036 
L 272.37382 119.467493 
L 273.560839 124.207427 
L 273.773893 124.941783 
L 276.665348 134.087854 
L 276.969711 134.98911 
L 277.334948 136.124023 
L 278.917639 140.997476 
L 279.008948 141.231135 
L 279.526366 142.566328 
L 280.135093 144.13518 
L 280.378584 144.769396 
L 281.382984 147.239502 
L 281.778657 148.207517 
L 281.900402 148.474556 
L 282.296075 149.409191 
L 283.635275 152.079576 
L 283.939639 152.513514 
L 284.09182 152.780553 
L 284.213566 152.880692 
L 284.487493 153.21449 
L 284.609239 153.28125 
L 284.822293 153.514909 
L 284.944039 153.615048 
L 285.217966 153.781947 
L 286.10062 153.715187 
L 286.313675 153.514909 
L 286.43542 153.414769 
L 287.19633 152.446754 
L 288.992075 148.240897 
L 289.266002 147.473161 
L 289.722548 146.204727 
L 291.000875 142.366049 
L 291.305239 141.431413 
L 291.731348 140.396639 
L 292.948802 137.993292 
L 293.496657 137.258936 
L 293.831457 136.758238 
L 293.861893 136.791618 
L 293.89233 136.72486 
L 294.22713 136.4912 
L 295.292402 136.591341 
L 296.053311 137.525974 
L 296.266366 137.993292 
L 296.448984 138.327091 
L 297.209893 140.26312 
L 298.214293 143.9349 
L 300.649202 157.887665 
L 303.631966 181.620716 
L 306.919093 209.492865 
L 310.023602 229.186958 
L 310.327966 230.555533 
L 310.784511 232.49156 
L 311.028002 233.292676 
L 311.484548 234.460969 
L 311.514984 234.460969 
L 311.697602 234.861527 
L 312.519384 235.629263 
L 312.64113 235.595881 
L 312.762875 235.629263 
L 312.915057 235.529126 
L 312.945493 235.595881 
L 313.006366 235.529126 
L 313.188984 235.462364 
L 313.432475 235.362225 
L 313.919457 234.694625 
L 314.497748 233.159159 
L 315.076039 231.08961 
L 315.31953 229.954697 
L 317.389202 218.004719 
L 318.302293 211.295375 
L 318.880584 206.68896 
L 326.063566 144.602496 
L 327.463639 134.655311 
L 328.28542 129.14764 
L 329.076766 124.240807 
L 329.472439 121.970979 
L 329.989857 119.233834 
L 330.842075 115.161496 
L 333.64222 103.311663 
L 333.97702 102.310266 
L 334.31182 101.275494 
L 336.716293 96.268521 
L 338.025057 94.966706 
L 338.359857 94.866564 
L 338.481602 94.833184 
L 338.572911 94.866564 
L 338.694657 94.833184 
L 338.785966 94.866564 
L 338.816402 94.833184 
L 339.181639 94.899946 
L 339.33382 94.966706 
L 339.577311 95.100228 
L 339.820802 95.200365 
L 340.125166 95.400641 
L 340.551275 95.500783 
L 340.855639 95.701059 
L 341.00782 95.801201 
L 342.529639 97.603712 
L 342.712257 97.87075 
L 342.955748 98.271311 
L 343.138366 98.638483 
L 345.268911 103.578702 
L 346.547239 108.151734 
L 347.734257 113.826304 
L 353.456293 144.602496 
L 354.978111 151.745778 
L 355.708584 155.150519 
L 355.83033 155.684597 
L 356.652111 159.590035 
L 357.717384 164.697147 
L 358.113057 166.599798 
L 359.908802 174.944752 
L 360.578402 178.049075 
L 360.943639 179.584547 
L 361.52193 182.154794 
L 362.19153 184.725039 
L 362.982875 187.762603 
L 363.043748 187.929502 
L 363.348111 189.031036 
L 367.152657 201.181293 
L 367.822257 202.917043 
L 368.46142 204.652794 
L 371.048511 210.093702 
L 371.109384 210.127081 
L 371.322439 210.46088 
L 371.687675 210.994957 
L 372.052911 211.529031 
L 372.357275 211.962971 
L 372.47902 212.063108 
L 374.183457 213.798864 
L 374.396511 213.899001 
L 374.700875 214.099283 
L 374.731311 214.065903 
L 374.792184 214.132657 
L 374.91393 214.132657 
L 375.644402 214.065903 
L 375.796584 213.965761 
L 376.192257 213.899001 
L 376.374875 213.765484 
L 378.048875 211.829452 
L 378.26193 211.462277 
L 378.566293 210.994957 
L 380.148984 207.256417 
L 381.640366 202.015788 
L 382.18822 199.612438 
L 382.918693 196.140937 
L 382.918693 196.140937 
" style="fill:none;stroke:#0000ff;stroke-linecap:square;stroke-width:1.5;"/>
   </g>
   <g id="line2d_26">
    <path clip-path="url(#p38261e68fd)" d="M 78.555057 157.50827 
L 78.798548 157.49158 
L 79.072475 157.52496 
L 79.315966 157.50827 
L 92.403602 157.608409 
L 92.67753 157.641789 
L 100.347493 157.741928 
L 100.743166 157.842068 
L 101.04753 157.942207 
L 102.29542 158.743323 
L 103.330257 160.028446 
L 104.06073 161.430398 
L 105.034693 163.833745 
L 105.826039 166.303852 
L 109.813202 181.20794 
L 110.056693 182.009057 
L 110.543675 183.444388 
L 111.791566 186.598782 
L 111.882875 186.748991 
L 113.130766 188.601571 
L 113.313384 188.70171 
L 113.861239 188.885299 
L 114.378657 188.78516 
L 115.170002 187.767076 
L 115.961348 186.264984 
L 116.570075 184.278886 
L 117.36142 181.324772 
L 118.244075 176.968705 
L 119.248475 171.461034 
L 122.04862 152.301018 
L 125.853166 123.928172 
L 127.557602 114.298094 
L 129.383784 105.81962 
L 129.901202 104.250768 
L 130.875166 101.897494 
L 131.301275 101.213202 
L 131.696948 100.629058 
L 132.09262 99.77787 
L 132.51873 98.909995 
L 133.85793 97.591492 
L 134.344911 97.441283 
L 134.52753 97.424595 
L 134.831893 97.324456 
L 135.288439 96.957275 
L 135.501493 96.857138 
L 135.897166 96.957275 
L 136.292839 97.057417 
L 136.627639 96.957275 
L 136.901566 96.923901 
L 137.11462 97.024038 
L 137.44942 97.324456 
L 138.362511 98.47606 
L 138.78862 99.677736 
L 139.12342 100.896097 
L 140.614802 107.054676 
L 141.710511 112.328687 
L 142.80622 118.937889 
L 144.388911 131.004693 
L 147.736911 159.444299 
L 152.85022 206.125973 
L 154.737275 218.810307 
L 155.61993 223.066234 
L 156.53302 226.17056 
L 157.53742 228.123279 
L 158.176584 228.690736 
L 158.54182 228.590594 
L 159.607093 227.889615 
L 160.398439 226.387523 
L 161.159348 224.451497 
L 162.772475 217.858982 
L 164.050802 210.231691 
L 164.842148 204.323468 
L 169.620657 165.936674 
L 171.629457 154.487396 
L 172.542548 150.949135 
L 173.668693 148.17861 
L 173.881748 147.944952 
L 174.27742 147.494324 
L 174.916584 146.943557 
L 175.251384 147.043696 
L 176.134039 148.161921 
L 176.62102 149.146625 
L 177.351493 151.466522 
L 177.990657 153.919939 
L 180.39513 166.504131 
L 180.912548 168.924168 
L 182.830039 180.056337 
L 183.347457 183.027141 
L 184.07793 186.715611 
L 185.234511 191.906173 
L 186.238911 194.843597 
L 187.060693 196.011891 
L 187.152002 196.09534 
L 187.486802 196.328999 
L 188.00422 196.24555 
L 188.217275 196.1621 
L 188.460766 196.07865 
L 189.34342 194.960427 
L 190.134766 192.974327 
L 190.591311 191.105057 
L 191.77833 184.696133 
L 194.03062 170.442949 
L 199.05262 131.054763 
L 200.452693 117.836355 
L 201.517966 107.889171 
L 203.07022 95.238217 
L 203.73982 90.131105 
L 204.561602 84.222874 
L 205.779057 78.131063 
L 206.357348 76.595591 
L 207.118257 74.809771 
L 207.818293 73.841756 
L 207.940039 73.67486 
L 208.396584 73.107397 
L 208.974875 73.207534 
L 209.979275 73.858449 
L 210.496693 74.909908 
L 211.835893 78.882103 
L 213.692511 87.494099 
L 216.036111 100.946164 
L 220.449384 131.62222 
L 223.766948 150.965825 
L 224.710475 156.139697 
L 225.349639 159.627888 
L 226.445348 165.035419 
L 230.036839 180.306687 
L 230.432511 181.691948 
L 234.358802 197.196874 
L 236.276293 205.124581 
L 238.041602 210.582182 
L 239.015566 212.451449 
L 240.628693 214.07037 
L 240.963493 214.370789 
L 241.359166 214.65452 
L 242.150511 214.971625 
L 242.637493 215.071767 
L 242.91142 215.105147 
L 243.367966 215.205289 
L 243.641893 215.355493 
L 244.67673 216.039785 
L 245.58982 216.890968 
L 246.168111 217.324905 
L 246.715966 217.775533 
L 246.868148 217.87567 
L 247.537748 218.34299 
L 247.781239 218.576648 
L 247.902984 218.676791 
L 248.876948 219.611426 
L 249.02913 219.711562 
L 249.303057 219.961911 
L 249.820475 220.612817 
L 250.70313 221.731041 
L 251.555348 223.33327 
L 252.224948 224.551639 
L 252.468439 224.968884 
L 254.72073 228.490452 
L 254.903348 228.707424 
L 255.329457 229.208118 
L 255.938184 229.725508 
L 256.364293 229.808955 
L 256.546911 229.875717 
L 256.72953 229.875717 
L 257.003457 229.909097 
L 257.30782 229.85903 
L 257.490439 229.792268 
L 257.703493 229.625366 
L 258.007857 229.358327 
L 259.134002 227.305471 
L 259.712293 225.402819 
L 260.503639 221.948013 
L 261.568911 215.489015 
L 262.390693 208.879814 
L 263.577711 196.813006 
L 264.734293 182.927003 
L 265.525639 172.12863 
L 267.747493 136.362155 
L 270.578075 88.612323 
L 272.312948 62.793033 
L 273.591275 46.73734 
L 274.534802 37.107268 
L 275.600075 29.212933 
L 276.208802 26.192064 
L 276.756657 24.039069 
L 277.39582 22.603726 
L 278.06542 22.336693 
L 278.461093 22.670488 
L 278.704584 23.087733 
L 279.465493 25.474398 
L 280.135093 28.445199 
L 280.896002 33.201826 
L 282.326511 45.018285 
L 283.84833 61.124042 
L 285.035348 75.343848 
L 287.135457 102.014323 
L 288.961639 126.414968 
L 290.026911 140.033934 
L 293.009675 174.698876 
L 294.501057 189.085578 
L 295.931566 200.701755 
L 299.279566 223.81728 
L 300.618766 230.610076 
L 300.801384 231.411189 
L 302.475384 237.402866 
L 303.358039 239.08855 
L 304.058075 239.355586 
L 304.210257 239.255446 
L 304.423311 239.038475 
L 305.579893 236.968926 
L 306.006002 235.767258 
L 306.736475 233.714396 
L 307.010402 232.863208 
L 308.471348 226.838151 
L 309.658366 220.929928 
L 310.327966 217.508497 
L 311.30193 212.18441 
L 313.98033 193.842203 
L 316.90222 172.24546 
L 319.945857 154.554156 
L 320.311093 153.001994 
L 321.528548 148.14523 
L 323.050366 144.273172 
L 324.480875 142.120173 
L 324.724366 141.869824 
L 325.302657 141.085399 
L 325.637457 140.601392 
L 326.428802 139.883725 
L 329.350693 138.164663 
L 329.807239 137.797487 
L 329.928984 137.697348 
L 331.602984 135.711248 
L 333.520475 132.373266 
L 334.31182 130.520686 
L 336.107566 126.314829 
L 336.929348 123.978241 
L 339.486002 117.268898 
L 341.00782 114.93231 
L 341.160002 114.832171 
L 341.403493 114.6152 
L 342.225275 114.281401 
L 343.290548 114.364856 
L 344.325384 115.633284 
L 345.086293 117.552624 
L 346.182002 121.508135 
L 348.738657 133.191071 
L 350.230039 141.986654 
L 351.599675 150.915755 
L 356.986911 188.534811 
L 358.447857 196.679487 
L 359.42182 201.419419 
L 360.030548 203.605797 
L 361.461057 207.227513 
L 361.826293 208.011933 
L 362.19153 208.729605 
L 362.313275 208.913188 
L 363.622039 210.198317 
L 363.895966 210.231691 
L 364.474257 210.164937 
L 364.656875 210.064795 
L 365.509093 209.497338 
L 366.026511 208.846434 
L 366.300439 208.395806 
L 366.665675 207.594685 
L 367.517893 204.940992 
L 369.344075 197.497293 
L 370.318039 191.555685 
L 372.052911 179.422121 
L 374.883493 158.509664 
L 375.522657 153.986699 
L 377.683639 138.248115 
L 379.327202 127.299533 
L 380.818584 118.954579 
L 382.036039 113.480288 
L 382.918693 110.242446 
L 382.918693 110.242446 
" style="fill:none;stroke:#ff0000;stroke-linecap:square;stroke-width:1.5;"/>
   </g>
   <g id="line2d_27">
    <path clip-path="url(#p38261e68fd)" d="M 126.49233 165.965581 
" style="fill:none;stroke:#ffffff;stroke-linecap:square;stroke-width:1.5;"/>
    <defs>
     <path d="M 0 -5 
L -1.12257 -1.545085 
L -4.755283 -1.545085 
L -1.816356 0.59017 
L -2.938926 4.045085 
L -0 1.90983 
L 2.938926 4.045085 
L 1.816356 0.59017 
L 4.755283 -1.545085 
L 1.12257 -1.545085 
z
" id="m7dd6d870b9" style="stroke:#ffffff;stroke-linejoin:bevel;"/>
    </defs>
    <g clip-path="url(#p38261e68fd)">
     <use style="fill:#0000ff;stroke:#ffffff;stroke-linejoin:bevel;" x="126.49233" xlink:href="#m7dd6d870b9" y="165.965581"/>
    </g>
   </g>
   <g id="line2d_28">
    <path clip-path="url(#p38261e68fd)" d="M 105.217311 164.351133 
" style="fill:none;stroke:#ffffff;stroke-linecap:square;stroke-width:1.5;"/>
    <defs>
     <path d="M 0 -5 
L -1.12257 -1.545085 
L -4.755283 -1.545085 
L -1.816356 0.59017 
L -2.938926 4.045085 
L -0 1.90983 
L 2.938926 4.045085 
L 1.816356 0.59017 
L 4.755283 -1.545085 
L 1.12257 -1.545085 
z
" id="md6b46bd5df" style="stroke:#ffffff;stroke-linejoin:bevel;"/>
    </defs>
    <g clip-path="url(#p38261e68fd)">
     <use style="fill:#ff0000;stroke:#ffffff;stroke-linejoin:bevel;" x="105.217311" xlink:href="#md6b46bd5df" y="164.351133"/>
    </g>
   </g>
   <g id="patch_3">
    <path d="M 63.336875 339.84 
L 63.336875 7.2 
" style="fill:none;stroke:#000000;stroke-linecap:square;stroke-linejoin:miter;stroke-width:0.8;"/>
   </g>
   <g id="patch_4">
    <path d="M 398.136875 339.84 
L 398.136875 7.2 
" style="fill:none;stroke:#000000;stroke-linecap:square;stroke-linejoin:miter;stroke-width:0.8;"/>
   </g>
   <g id="patch_5">
    <path d="M 63.336875 339.84 
L 398.136875 339.84 
" style="fill:none;stroke:#000000;stroke-linecap:square;stroke-linejoin:miter;stroke-width:0.8;"/>
   </g>
   <g id="patch_6">
    <path d="M 63.336875 7.2 
L 398.136875 7.2 
" style="fill:none;stroke:#000000;stroke-linecap:square;stroke-linejoin:miter;stroke-width:0.8;"/>
   </g>
   <g id="text_15">
    <g id="patch_7">
     <path d="M 75.036875 331.242688 
L 166.79375 331.242688 
L 166.79375 293.760312 
L 75.036875 293.760312 
z
" style="fill:#ffffff;stroke:#000000;stroke-linejoin:miter;stroke-width:0.75;"/>
    </g>
    <!-- Auto_00080 -->
    <g transform="translate(80.076875 308.521562)scale(0.14 -0.14)">
     <defs>
      <path d="M 2928 1419 
L 1288 1419 
L 1000 750 
Q 894 503 894 381 
Q 894 284 986 211 
Q 1078 138 1384 116 
L 1384 0 
L 50 0 
L 50 116 
Q 316 163 394 238 
Q 553 388 747 847 
L 2238 4334 
L 2347 4334 
L 3822 809 
Q 4000 384 4145 257 
Q 4291 131 4550 116 
L 4550 0 
L 2878 0 
L 2878 116 
Q 3131 128 3220 200 
Q 3309 272 3309 375 
Q 3309 513 3184 809 
L 2928 1419 
z
M 2841 1650 
L 2122 3363 
L 1384 1650 
L 2841 1650 
z
" id="TimesNewRomanPSMT-41" transform="scale(0.015625)"/>
      <path d="M 2709 2863 
L 2709 1128 
Q 2709 631 2732 520 
Q 2756 409 2807 365 
Q 2859 322 2928 322 
Q 3025 322 3147 375 
L 3191 266 
L 2334 -88 
L 2194 -88 
L 2194 519 
Q 1825 119 1631 15 
Q 1438 -88 1222 -88 
Q 981 -88 804 51 
Q 628 191 559 409 
Q 491 628 491 1028 
L 491 2306 
Q 491 2509 447 2587 
Q 403 2666 317 2708 
Q 231 2750 6 2747 
L 6 2863 
L 1009 2863 
L 1009 947 
Q 1009 547 1148 422 
Q 1288 297 1484 297 
Q 1619 297 1789 381 
Q 1959 466 2194 703 
L 2194 2325 
Q 2194 2569 2105 2655 
Q 2016 2741 1734 2747 
L 1734 2863 
L 2709 2863 
z
" id="TimesNewRomanPSMT-75" transform="scale(0.015625)"/>
      <path d="M 3256 -1381 
L -53 -1381 
L -53 -1119 
L 3256 -1119 
L 3256 -1381 
z
" id="TimesNewRomanPSMT-5f" transform="scale(0.015625)"/>
      <path d="M 1228 2134 
Q 725 2547 579 2797 
Q 434 3047 434 3316 
Q 434 3728 753 4026 
Q 1072 4325 1600 4325 
Q 2113 4325 2425 4047 
Q 2738 3769 2738 3413 
Q 2738 3175 2569 2928 
Q 2400 2681 1866 2347 
Q 2416 1922 2594 1678 
Q 2831 1359 2831 1006 
Q 2831 559 2490 242 
Q 2150 -75 1597 -75 
Q 994 -75 656 303 
Q 388 606 388 966 
Q 388 1247 577 1523 
Q 766 1800 1228 2134 
z
M 1719 2469 
Q 2094 2806 2194 3001 
Q 2294 3197 2294 3444 
Q 2294 3772 2109 3958 
Q 1925 4144 1606 4144 
Q 1288 4144 1088 3959 
Q 888 3775 888 3528 
Q 888 3366 970 3203 
Q 1053 3041 1206 2894 
L 1719 2469 
z
M 1375 2016 
Q 1116 1797 991 1539 
Q 866 1281 866 981 
Q 866 578 1086 336 
Q 1306 94 1647 94 
Q 1984 94 2187 284 
Q 2391 475 2391 747 
Q 2391 972 2272 1150 
Q 2050 1481 1375 2016 
z
" id="TimesNewRomanPSMT-38" transform="scale(0.015625)"/>
     </defs>
     <use xlink:href="#TimesNewRomanPSMT-41"/>
     <use x="72.216797" xlink:href="#TimesNewRomanPSMT-75"/>
     <use x="122.216797" xlink:href="#TimesNewRomanPSMT-74"/>
     <use x="150" xlink:href="#TimesNewRomanPSMT-6f"/>
     <use x="200" xlink:href="#TimesNewRomanPSMT-5f"/>
     <use x="250" xlink:href="#TimesNewRomanPSMT-30"/>
     <use x="300" xlink:href="#TimesNewRomanPSMT-30"/>
     <use x="350" xlink:href="#TimesNewRomanPSMT-30"/>
     <use x="400" xlink:href="#TimesNewRomanPSMT-38"/>
     <use x="450" xlink:href="#TimesNewRomanPSMT-30"/>
    </g>
    <!-- Vs: 285.98m/s -->
    <g transform="translate(80.076875 323.208)scale(0.14 -0.14)">
     <defs>
      <path d="M 903 2950 
Q 1047 2950 1148 2848 
Q 1250 2747 1250 2603 
Q 1250 2459 1148 2357 
Q 1047 2256 903 2256 
Q 759 2256 657 2357 
Q 556 2459 556 2603 
Q 556 2747 657 2848 
Q 759 2950 903 2950 
z
M 897 609 
Q 1044 609 1145 506 
Q 1247 403 1247 259 
Q 1247 116 1144 14 
Q 1041 -88 897 -88 
Q 753 -88 651 14 
Q 550 116 550 259 
Q 550 403 651 506 
Q 753 609 897 609 
z
" id="TimesNewRomanPSMT-3a" transform="scale(0.015625)"/>
      <path d="M 338 -88 
L 338 28 
Q 744 34 1094 217 
Q 1444 400 1770 856 
Q 2097 1313 2225 1859 
Q 1734 1544 1338 1544 
Q 891 1544 572 1889 
Q 253 2234 253 2806 
Q 253 3363 572 3797 
Q 956 4325 1575 4325 
Q 2097 4325 2469 3894 
Q 2925 3359 2925 2575 
Q 2925 1869 2578 1258 
Q 2231 647 1613 244 
Q 1109 -88 516 -88 
L 338 -88 
z
M 2275 2091 
Q 2331 2497 2331 2741 
Q 2331 3044 2228 3395 
Q 2125 3747 1936 3934 
Q 1747 4122 1506 4122 
Q 1228 4122 1018 3872 
Q 809 3622 809 3128 
Q 809 2469 1088 2097 
Q 1291 1828 1588 1828 
Q 1731 1828 1928 1897 
Q 2125 1966 2275 2091 
z
" id="TimesNewRomanPSMT-39" transform="scale(0.015625)"/>
      <path d="M 1794 4444 
L 259 -88 
L 9 -88 
L 1544 4444 
L 1794 4444 
z
" id="TimesNewRomanPSMT-2f" transform="scale(0.015625)"/>
     </defs>
     <use xlink:href="#TimesNewRomanPSMT-56"/>
     <use x="72.216797" xlink:href="#TimesNewRomanPSMT-73"/>
     <use x="111.132812" xlink:href="#TimesNewRomanPSMT-3a"/>
     <use x="138.916016" xlink:href="#TimesNewRomanPSMT-20"/>
     <use x="163.916016" xlink:href="#TimesNewRomanPSMT-32"/>
     <use x="213.916016" xlink:href="#TimesNewRomanPSMT-38"/>
     <use x="263.916016" xlink:href="#TimesNewRomanPSMT-35"/>
     <use x="313.916016" xlink:href="#TimesNewRomanPSMT-2e"/>
     <use x="338.916016" xlink:href="#TimesNewRomanPSMT-39"/>
     <use x="388.916016" xlink:href="#TimesNewRomanPSMT-38"/>
     <use x="438.916016" xlink:href="#TimesNewRomanPSMT-6d"/>
     <use x="516.699219" xlink:href="#TimesNewRomanPSMT-2f"/>
     <use x="544.482422" xlink:href="#TimesNewRomanPSMT-73"/>
    </g>
   </g>
  </g>
 </g>
 <defs>
  <clipPath id="p38261e68fd">
   <rect height="332.64" width="334.8" x="63.336875" y="7.2"/>
  </clipPath>
 </defs>
</svg>
