<?xml version="1.0" encoding="utf-8" standalone="no"?>
<!DOCTYPE svg PUBLIC "-//W3C//DTD SVG 1.1//EN"
  "http://www.w3.org/Graphics/SVG/1.1/DTD/svg11.dtd">
<svg height="383.471875pt" version="1.1" viewBox="0 0 421.086875 383.471875" width="421.086875pt" xmlns="http://www.w3.org/2000/svg" xmlns:xlink="http://www.w3.org/1999/xlink">
 <metadata>
  <rdf:RDF xmlns:cc="http://creativecommons.org/ns#" xmlns:dc="http://purl.org/dc/elements/1.1/" xmlns:rdf="http://www.w3.org/1999/02/22-rdf-syntax-ns#">
   <cc:Work>
    <dc:type rdf:resource="http://purl.org/dc/dcmitype/StillImage"/>
    <dc:date>2021-06-11T14:39:37.225447</dc:date>
    <dc:format>image/svg+xml</dc:format>
    <dc:creator>
     <cc:Agent>
      <dc:title>Matplotlib v3.4.2, https://matplotlib.org/</dc:title>
     </cc:Agent>
    </dc:creator>
   </cc:Work>
  </rdf:RDF>
 </metadata>
 <defs>
  <style type="text/css">*{stroke-linecap:butt;stroke-linejoin:round;}</style>
 </defs>
 <g id="figure_1">
  <g id="patch_1">
   <path d="M 0 383.471875 
L 421.086875 383.471875 
L 421.086875 0 
L 0 0 
z
" style="fill:#ffffff;"/>
  </g>
  <g id="axes_1">
   <g id="patch_2">
    <path d="M 63.336875 339.84 
L 398.136875 339.84 
L 398.136875 7.2 
L 63.336875 7.2 
z
" style="fill:#ffffff;"/>
   </g>
   <g id="matplotlib.axis_1">
    <g id="xtick_1">
     <g id="line2d_1">
      <path clip-path="url(#p56f92aea03)" d="M 93.773239 339.84 
L 93.773239 7.2 
" style="fill:none;stroke:#000000;stroke-dasharray:0.5,0.825;stroke-dashoffset:0;stroke-width:0.5;"/>
     </g>
     <g id="line2d_2">
      <defs>
       <path d="M 0 0 
L 0 3.5 
" id="m20eefcb424" style="stroke:#000000;stroke-width:0.8;"/>
      </defs>
      <g>
       <use style="stroke:#000000;stroke-width:0.8;" x="93.773239" xlink:href="#m20eefcb424" y="339.84"/>
      </g>
     </g>
     <g id="text_1">
      <!-- 0.000 -->
      <g transform="translate(78.023239 356.56125)scale(0.14 -0.14)">
       <defs>
        <path d="M 231 2094 
Q 231 2819 450 3342 
Q 669 3866 1031 4122 
Q 1313 4325 1613 4325 
Q 2100 4325 2488 3828 
Q 2972 3213 2972 2159 
Q 2972 1422 2759 906 
Q 2547 391 2217 158 
Q 1888 -75 1581 -75 
Q 975 -75 572 641 
Q 231 1244 231 2094 
z
M 844 2016 
Q 844 1141 1059 588 
Q 1238 122 1591 122 
Q 1759 122 1940 273 
Q 2122 425 2216 781 
Q 2359 1319 2359 2297 
Q 2359 3022 2209 3506 
Q 2097 3866 1919 4016 
Q 1791 4119 1609 4119 
Q 1397 4119 1231 3928 
Q 1006 3669 925 3112 
Q 844 2556 844 2016 
z
" id="TimesNewRomanPSMT-30" transform="scale(0.015625)"/>
        <path d="M 800 606 
Q 947 606 1047 504 
Q 1147 403 1147 259 
Q 1147 116 1045 14 
Q 944 -88 800 -88 
Q 656 -88 554 14 
Q 453 116 453 259 
Q 453 406 554 506 
Q 656 606 800 606 
z
" id="TimesNewRomanPSMT-2e" transform="scale(0.015625)"/>
       </defs>
       <use xlink:href="#TimesNewRomanPSMT-30"/>
       <use x="50" xlink:href="#TimesNewRomanPSMT-2e"/>
       <use x="75" xlink:href="#TimesNewRomanPSMT-30"/>
       <use x="125" xlink:href="#TimesNewRomanPSMT-30"/>
       <use x="175" xlink:href="#TimesNewRomanPSMT-30"/>
      </g>
     </g>
    </g>
    <g id="xtick_2">
     <g id="line2d_3">
      <path clip-path="url(#p56f92aea03)" d="M 154.645966 339.84 
L 154.645966 7.2 
" style="fill:none;stroke:#000000;stroke-dasharray:0.5,0.825;stroke-dashoffset:0;stroke-width:0.5;"/>
     </g>
     <g id="line2d_4">
      <g>
       <use style="stroke:#000000;stroke-width:0.8;" x="154.645966" xlink:href="#m20eefcb424" y="339.84"/>
      </g>
     </g>
     <g id="text_2">
      <!-- 0.001 -->
      <g transform="translate(138.895966 356.56125)scale(0.14 -0.14)">
       <defs>
        <path d="M 750 3822 
L 1781 4325 
L 1884 4325 
L 1884 747 
Q 1884 391 1914 303 
Q 1944 216 2037 169 
Q 2131 122 2419 116 
L 2419 0 
L 825 0 
L 825 116 
Q 1125 122 1212 167 
Q 1300 213 1334 289 
Q 1369 366 1369 747 
L 1369 3034 
Q 1369 3497 1338 3628 
Q 1316 3728 1258 3775 
Q 1200 3822 1119 3822 
Q 1003 3822 797 3725 
L 750 3822 
z
" id="TimesNewRomanPSMT-31" transform="scale(0.015625)"/>
       </defs>
       <use xlink:href="#TimesNewRomanPSMT-30"/>
       <use x="50" xlink:href="#TimesNewRomanPSMT-2e"/>
       <use x="75" xlink:href="#TimesNewRomanPSMT-30"/>
       <use x="125" xlink:href="#TimesNewRomanPSMT-30"/>
       <use x="175" xlink:href="#TimesNewRomanPSMT-31"/>
      </g>
     </g>
    </g>
    <g id="xtick_3">
     <g id="line2d_5">
      <path clip-path="url(#p56f92aea03)" d="M 215.518693 339.84 
L 215.518693 7.2 
" style="fill:none;stroke:#000000;stroke-dasharray:0.5,0.825;stroke-dashoffset:0;stroke-width:0.5;"/>
     </g>
     <g id="line2d_6">
      <g>
       <use style="stroke:#000000;stroke-width:0.8;" x="215.518693" xlink:href="#m20eefcb424" y="339.84"/>
      </g>
     </g>
     <g id="text_3">
      <!-- 0.002 -->
      <g transform="translate(199.768693 356.56125)scale(0.14 -0.14)">
       <defs>
        <path d="M 2934 816 
L 2638 0 
L 138 0 
L 138 116 
Q 1241 1122 1691 1759 
Q 2141 2397 2141 2925 
Q 2141 3328 1894 3587 
Q 1647 3847 1303 3847 
Q 991 3847 742 3664 
Q 494 3481 375 3128 
L 259 3128 
Q 338 3706 661 4015 
Q 984 4325 1469 4325 
Q 1984 4325 2329 3994 
Q 2675 3663 2675 3213 
Q 2675 2891 2525 2569 
Q 2294 2063 1775 1497 
Q 997 647 803 472 
L 1909 472 
Q 2247 472 2383 497 
Q 2519 522 2628 598 
Q 2738 675 2819 816 
L 2934 816 
z
" id="TimesNewRomanPSMT-32" transform="scale(0.015625)"/>
       </defs>
       <use xlink:href="#TimesNewRomanPSMT-30"/>
       <use x="50" xlink:href="#TimesNewRomanPSMT-2e"/>
       <use x="75" xlink:href="#TimesNewRomanPSMT-30"/>
       <use x="125" xlink:href="#TimesNewRomanPSMT-30"/>
       <use x="175" xlink:href="#TimesNewRomanPSMT-32"/>
      </g>
     </g>
    </g>
    <g id="xtick_4">
     <g id="line2d_7">
      <path clip-path="url(#p56f92aea03)" d="M 276.39142 339.84 
L 276.39142 7.2 
" style="fill:none;stroke:#000000;stroke-dasharray:0.5,0.825;stroke-dashoffset:0;stroke-width:0.5;"/>
     </g>
     <g id="line2d_8">
      <g>
       <use style="stroke:#000000;stroke-width:0.8;" x="276.39142" xlink:href="#m20eefcb424" y="339.84"/>
      </g>
     </g>
     <g id="text_4">
      <!-- 0.003 -->
      <g transform="translate(260.64142 356.56125)scale(0.14 -0.14)">
       <defs>
        <path d="M 325 3431 
Q 506 3859 782 4092 
Q 1059 4325 1472 4325 
Q 1981 4325 2253 3994 
Q 2459 3747 2459 3466 
Q 2459 3003 1878 2509 
Q 2269 2356 2469 2072 
Q 2669 1788 2669 1403 
Q 2669 853 2319 450 
Q 1863 -75 997 -75 
Q 569 -75 414 31 
Q 259 138 259 259 
Q 259 350 332 419 
Q 406 488 509 488 
Q 588 488 669 463 
Q 722 447 909 348 
Q 1097 250 1169 231 
Q 1284 197 1416 197 
Q 1734 197 1970 444 
Q 2206 691 2206 1028 
Q 2206 1275 2097 1509 
Q 2016 1684 1919 1775 
Q 1784 1900 1550 2001 
Q 1316 2103 1072 2103 
L 972 2103 
L 972 2197 
Q 1219 2228 1467 2375 
Q 1716 2522 1828 2728 
Q 1941 2934 1941 3181 
Q 1941 3503 1739 3701 
Q 1538 3900 1238 3900 
Q 753 3900 428 3381 
L 325 3431 
z
" id="TimesNewRomanPSMT-33" transform="scale(0.015625)"/>
       </defs>
       <use xlink:href="#TimesNewRomanPSMT-30"/>
       <use x="50" xlink:href="#TimesNewRomanPSMT-2e"/>
       <use x="75" xlink:href="#TimesNewRomanPSMT-30"/>
       <use x="125" xlink:href="#TimesNewRomanPSMT-30"/>
       <use x="175" xlink:href="#TimesNewRomanPSMT-33"/>
      </g>
     </g>
    </g>
    <g id="xtick_5">
     <g id="line2d_9">
      <path clip-path="url(#p56f92aea03)" d="M 337.264148 339.84 
L 337.264148 7.2 
" style="fill:none;stroke:#000000;stroke-dasharray:0.5,0.825;stroke-dashoffset:0;stroke-width:0.5;"/>
     </g>
     <g id="line2d_10">
      <g>
       <use style="stroke:#000000;stroke-width:0.8;" x="337.264148" xlink:href="#m20eefcb424" y="339.84"/>
      </g>
     </g>
     <g id="text_5">
      <!-- 0.004 -->
      <g transform="translate(321.514148 356.56125)scale(0.14 -0.14)">
       <defs>
        <path d="M 2978 1563 
L 2978 1119 
L 2409 1119 
L 2409 0 
L 1894 0 
L 1894 1119 
L 100 1119 
L 100 1519 
L 2066 4325 
L 2409 4325 
L 2409 1563 
L 2978 1563 
z
M 1894 1563 
L 1894 3666 
L 406 1563 
L 1894 1563 
z
" id="TimesNewRomanPSMT-34" transform="scale(0.015625)"/>
       </defs>
       <use xlink:href="#TimesNewRomanPSMT-30"/>
       <use x="50" xlink:href="#TimesNewRomanPSMT-2e"/>
       <use x="75" xlink:href="#TimesNewRomanPSMT-30"/>
       <use x="125" xlink:href="#TimesNewRomanPSMT-30"/>
       <use x="175" xlink:href="#TimesNewRomanPSMT-34"/>
      </g>
     </g>
    </g>
    <g id="xtick_6">
     <g id="line2d_11">
      <path clip-path="url(#p56f92aea03)" d="M 398.136875 339.84 
L 398.136875 7.2 
" style="fill:none;stroke:#000000;stroke-dasharray:0.5,0.825;stroke-dashoffset:0;stroke-width:0.5;"/>
     </g>
     <g id="line2d_12">
      <g>
       <use style="stroke:#000000;stroke-width:0.8;" x="398.136875" xlink:href="#m20eefcb424" y="339.84"/>
      </g>
     </g>
     <g id="text_6">
      <!-- 0.005 -->
      <g transform="translate(382.386875 356.56125)scale(0.14 -0.14)">
       <defs>
        <path d="M 2778 4238 
L 2534 3706 
L 1259 3706 
L 981 3138 
Q 1809 3016 2294 2522 
Q 2709 2097 2709 1522 
Q 2709 1188 2573 903 
Q 2438 619 2231 419 
Q 2025 219 1772 97 
Q 1413 -75 1034 -75 
Q 653 -75 479 54 
Q 306 184 306 341 
Q 306 428 378 495 
Q 450 563 559 563 
Q 641 563 702 538 
Q 763 513 909 409 
Q 1144 247 1384 247 
Q 1750 247 2026 523 
Q 2303 800 2303 1197 
Q 2303 1581 2056 1914 
Q 1809 2247 1375 2428 
Q 1034 2569 447 2591 
L 1259 4238 
L 2778 4238 
z
" id="TimesNewRomanPSMT-35" transform="scale(0.015625)"/>
       </defs>
       <use xlink:href="#TimesNewRomanPSMT-30"/>
       <use x="50" xlink:href="#TimesNewRomanPSMT-2e"/>
       <use x="75" xlink:href="#TimesNewRomanPSMT-30"/>
       <use x="125" xlink:href="#TimesNewRomanPSMT-30"/>
       <use x="175" xlink:href="#TimesNewRomanPSMT-35"/>
      </g>
     </g>
    </g>
    <g id="text_7">
     <!-- Time (sec) -->
     <g transform="translate(200.858906 373.277188)scale(0.14 -0.14)">
      <defs>
       <path d="M 3703 4238 
L 3750 3244 
L 3631 3244 
Q 3597 3506 3538 3619 
Q 3441 3800 3280 3886 
Q 3119 3972 2856 3972 
L 2259 3972 
L 2259 734 
Q 2259 344 2344 247 
Q 2463 116 2709 116 
L 2856 116 
L 2856 0 
L 1059 0 
L 1059 116 
L 1209 116 
Q 1478 116 1591 278 
Q 1659 378 1659 734 
L 1659 3972 
L 1150 3972 
Q 853 3972 728 3928 
Q 566 3869 450 3700 
Q 334 3531 313 3244 
L 194 3244 
L 244 4238 
L 3703 4238 
z
" id="TimesNewRomanPSMT-54" transform="scale(0.015625)"/>
       <path d="M 928 4444 
Q 1059 4444 1151 4351 
Q 1244 4259 1244 4128 
Q 1244 3997 1151 3903 
Q 1059 3809 928 3809 
Q 797 3809 703 3903 
Q 609 3997 609 4128 
Q 609 4259 701 4351 
Q 794 4444 928 4444 
z
M 1188 2947 
L 1188 647 
Q 1188 378 1227 289 
Q 1266 200 1342 156 
Q 1419 113 1622 113 
L 1622 0 
L 231 0 
L 231 113 
Q 441 113 512 153 
Q 584 194 626 287 
Q 669 381 669 647 
L 669 1750 
Q 669 2216 641 2353 
Q 619 2453 572 2492 
Q 525 2531 444 2531 
Q 356 2531 231 2484 
L 188 2597 
L 1050 2947 
L 1188 2947 
z
" id="TimesNewRomanPSMT-69" transform="scale(0.015625)"/>
       <path d="M 1050 2338 
Q 1363 2650 1419 2697 
Q 1559 2816 1721 2881 
Q 1884 2947 2044 2947 
Q 2313 2947 2506 2790 
Q 2700 2634 2766 2338 
Q 3088 2713 3309 2830 
Q 3531 2947 3766 2947 
Q 3994 2947 4170 2830 
Q 4347 2713 4450 2447 
Q 4519 2266 4519 1878 
L 4519 647 
Q 4519 378 4559 278 
Q 4591 209 4675 161 
Q 4759 113 4950 113 
L 4950 0 
L 3538 0 
L 3538 113 
L 3597 113 
Q 3781 113 3884 184 
Q 3956 234 3988 344 
Q 4000 397 4000 647 
L 4000 1878 
Q 4000 2228 3916 2372 
Q 3794 2572 3525 2572 
Q 3359 2572 3192 2489 
Q 3025 2406 2788 2181 
L 2781 2147 
L 2788 2013 
L 2788 647 
Q 2788 353 2820 281 
Q 2853 209 2943 161 
Q 3034 113 3253 113 
L 3253 0 
L 1806 0 
L 1806 113 
Q 2044 113 2133 169 
Q 2222 225 2256 338 
Q 2272 391 2272 647 
L 2272 1878 
Q 2272 2228 2169 2381 
Q 2031 2581 1784 2581 
Q 1616 2581 1450 2491 
Q 1191 2353 1050 2181 
L 1050 647 
Q 1050 366 1089 281 
Q 1128 197 1204 155 
Q 1281 113 1516 113 
L 1516 0 
L 100 0 
L 100 113 
Q 297 113 375 155 
Q 453 197 493 289 
Q 534 381 534 647 
L 534 1741 
Q 534 2213 506 2350 
Q 484 2453 437 2492 
Q 391 2531 309 2531 
Q 222 2531 100 2484 
L 53 2597 
L 916 2947 
L 1050 2947 
L 1050 2338 
z
" id="TimesNewRomanPSMT-6d" transform="scale(0.015625)"/>
       <path d="M 681 1784 
Q 678 1147 991 784 
Q 1303 422 1725 422 
Q 2006 422 2214 576 
Q 2422 731 2563 1106 
L 2659 1044 
Q 2594 616 2278 264 
Q 1963 -88 1488 -88 
Q 972 -88 605 314 
Q 238 716 238 1394 
Q 238 2128 614 2539 
Q 991 2950 1559 2950 
Q 2041 2950 2350 2633 
Q 2659 2316 2659 1784 
L 681 1784 
z
M 681 1966 
L 2006 1966 
Q 1991 2241 1941 2353 
Q 1863 2528 1708 2628 
Q 1553 2728 1384 2728 
Q 1125 2728 920 2526 
Q 716 2325 681 1966 
z
" id="TimesNewRomanPSMT-65" transform="scale(0.015625)"/>
       <path id="TimesNewRomanPSMT-20" transform="scale(0.015625)"/>
       <path d="M 1988 -1253 
L 1988 -1369 
Q 1516 -1131 1200 -813 
Q 750 -359 506 256 
Q 263 872 263 1534 
Q 263 2503 741 3301 
Q 1219 4100 1988 4444 
L 1988 4313 
Q 1603 4100 1356 3731 
Q 1109 3363 987 2797 
Q 866 2231 866 1616 
Q 866 947 969 400 
Q 1050 -31 1165 -292 
Q 1281 -553 1476 -793 
Q 1672 -1034 1988 -1253 
z
" id="TimesNewRomanPSMT-28" transform="scale(0.015625)"/>
       <path d="M 2050 2947 
L 2050 1972 
L 1947 1972 
Q 1828 2431 1642 2597 
Q 1456 2763 1169 2763 
Q 950 2763 815 2647 
Q 681 2531 681 2391 
Q 681 2216 781 2091 
Q 878 1963 1175 1819 
L 1631 1597 
Q 2266 1288 2266 781 
Q 2266 391 1970 151 
Q 1675 -88 1309 -88 
Q 1047 -88 709 6 
Q 606 38 541 38 
Q 469 38 428 -44 
L 325 -44 
L 325 978 
L 428 978 
Q 516 541 762 319 
Q 1009 97 1316 97 
Q 1531 97 1667 223 
Q 1803 350 1803 528 
Q 1803 744 1651 891 
Q 1500 1038 1047 1263 
Q 594 1488 453 1669 
Q 313 1847 313 2119 
Q 313 2472 555 2709 
Q 797 2947 1181 2947 
Q 1350 2947 1591 2875 
Q 1750 2828 1803 2828 
Q 1853 2828 1881 2850 
Q 1909 2872 1947 2947 
L 2050 2947 
z
" id="TimesNewRomanPSMT-73" transform="scale(0.015625)"/>
       <path d="M 2631 1088 
Q 2516 522 2178 217 
Q 1841 -88 1431 -88 
Q 944 -88 581 321 
Q 219 731 219 1428 
Q 219 2103 620 2525 
Q 1022 2947 1584 2947 
Q 2006 2947 2278 2723 
Q 2550 2500 2550 2259 
Q 2550 2141 2473 2067 
Q 2397 1994 2259 1994 
Q 2075 1994 1981 2113 
Q 1928 2178 1911 2362 
Q 1894 2547 1784 2644 
Q 1675 2738 1481 2738 
Q 1169 2738 978 2506 
Q 725 2200 725 1697 
Q 725 1184 976 792 
Q 1228 400 1656 400 
Q 1963 400 2206 609 
Q 2378 753 2541 1131 
L 2631 1088 
z
" id="TimesNewRomanPSMT-63" transform="scale(0.015625)"/>
       <path d="M 144 4313 
L 144 4444 
Q 619 4209 934 3891 
Q 1381 3434 1625 2820 
Q 1869 2206 1869 1541 
Q 1869 572 1392 -226 
Q 916 -1025 144 -1369 
L 144 -1253 
Q 528 -1038 776 -670 
Q 1025 -303 1145 264 
Q 1266 831 1266 1447 
Q 1266 2113 1163 2663 
Q 1084 3094 967 3353 
Q 850 3613 656 3853 
Q 463 4094 144 4313 
z
" id="TimesNewRomanPSMT-29" transform="scale(0.015625)"/>
      </defs>
      <use xlink:href="#TimesNewRomanPSMT-54"/>
      <use x="57.583984" xlink:href="#TimesNewRomanPSMT-69"/>
      <use x="85.367188" xlink:href="#TimesNewRomanPSMT-6d"/>
      <use x="163.150391" xlink:href="#TimesNewRomanPSMT-65"/>
      <use x="207.535156" xlink:href="#TimesNewRomanPSMT-20"/>
      <use x="232.535156" xlink:href="#TimesNewRomanPSMT-28"/>
      <use x="265.835938" xlink:href="#TimesNewRomanPSMT-73"/>
      <use x="304.751953" xlink:href="#TimesNewRomanPSMT-65"/>
      <use x="349.136719" xlink:href="#TimesNewRomanPSMT-63"/>
      <use x="393.521484" xlink:href="#TimesNewRomanPSMT-29"/>
     </g>
    </g>
   </g>
   <g id="matplotlib.axis_2">
    <g id="ytick_1">
     <g id="line2d_13">
      <path clip-path="url(#p56f92aea03)" d="M 63.336875 281.8459 
L 398.136875 281.8459 
" style="fill:none;stroke:#000000;stroke-dasharray:0.5,0.825;stroke-dashoffset:0;stroke-width:0.5;"/>
     </g>
     <g id="line2d_14">
      <defs>
       <path d="M 0 0 
L -3.5 0 
" id="m11bc4b4986" style="stroke:#000000;stroke-width:0.8;"/>
      </defs>
      <g>
       <use style="stroke:#000000;stroke-width:0.8;" x="63.336875" xlink:href="#m11bc4b4986" y="281.8459"/>
      </g>
     </g>
     <g id="text_8">
      <!-- −0.04 -->
      <g transform="translate(23.942188 286.706525)scale(0.14 -0.14)">
       <defs>
        <path d="M 3484 2000 
L 116 2000 
L 116 2256 
L 3484 2256 
L 3484 2000 
z
" id="TimesNewRomanPSMT-2212" transform="scale(0.015625)"/>
       </defs>
       <use xlink:href="#TimesNewRomanPSMT-2212"/>
       <use x="56.396484" xlink:href="#TimesNewRomanPSMT-30"/>
       <use x="106.396484" xlink:href="#TimesNewRomanPSMT-2e"/>
       <use x="131.396484" xlink:href="#TimesNewRomanPSMT-30"/>
       <use x="181.396484" xlink:href="#TimesNewRomanPSMT-34"/>
      </g>
     </g>
    </g>
    <g id="ytick_2">
     <g id="line2d_15">
      <path clip-path="url(#p56f92aea03)" d="M 63.336875 217.479798 
L 398.136875 217.479798 
" style="fill:none;stroke:#000000;stroke-dasharray:0.5,0.825;stroke-dashoffset:0;stroke-width:0.5;"/>
     </g>
     <g id="line2d_16">
      <g>
       <use style="stroke:#000000;stroke-width:0.8;" x="63.336875" xlink:href="#m11bc4b4986" y="217.479798"/>
      </g>
     </g>
     <g id="text_9">
      <!-- −0.02 -->
      <g transform="translate(23.942188 222.340423)scale(0.14 -0.14)">
       <use xlink:href="#TimesNewRomanPSMT-2212"/>
       <use x="56.396484" xlink:href="#TimesNewRomanPSMT-30"/>
       <use x="106.396484" xlink:href="#TimesNewRomanPSMT-2e"/>
       <use x="131.396484" xlink:href="#TimesNewRomanPSMT-30"/>
       <use x="181.396484" xlink:href="#TimesNewRomanPSMT-32"/>
      </g>
     </g>
    </g>
    <g id="ytick_3">
     <g id="line2d_17">
      <path clip-path="url(#p56f92aea03)" d="M 63.336875 153.113696 
L 398.136875 153.113696 
" style="fill:none;stroke:#000000;stroke-dasharray:0.5,0.825;stroke-dashoffset:0;stroke-width:0.5;"/>
     </g>
     <g id="line2d_18">
      <g>
       <use style="stroke:#000000;stroke-width:0.8;" x="63.336875" xlink:href="#m11bc4b4986" y="153.113696"/>
      </g>
     </g>
     <g id="text_10">
      <!-- 0.00 -->
      <g transform="translate(31.836875 157.974321)scale(0.14 -0.14)">
       <use xlink:href="#TimesNewRomanPSMT-30"/>
       <use x="50" xlink:href="#TimesNewRomanPSMT-2e"/>
       <use x="75" xlink:href="#TimesNewRomanPSMT-30"/>
       <use x="125" xlink:href="#TimesNewRomanPSMT-30"/>
      </g>
     </g>
    </g>
    <g id="ytick_4">
     <g id="line2d_19">
      <path clip-path="url(#p56f92aea03)" d="M 63.336875 88.747594 
L 398.136875 88.747594 
" style="fill:none;stroke:#000000;stroke-dasharray:0.5,0.825;stroke-dashoffset:0;stroke-width:0.5;"/>
     </g>
     <g id="line2d_20">
      <g>
       <use style="stroke:#000000;stroke-width:0.8;" x="63.336875" xlink:href="#m11bc4b4986" y="88.747594"/>
      </g>
     </g>
     <g id="text_11">
      <!-- 0.02 -->
      <g transform="translate(31.836875 93.608219)scale(0.14 -0.14)">
       <use xlink:href="#TimesNewRomanPSMT-30"/>
       <use x="50" xlink:href="#TimesNewRomanPSMT-2e"/>
       <use x="75" xlink:href="#TimesNewRomanPSMT-30"/>
       <use x="125" xlink:href="#TimesNewRomanPSMT-32"/>
      </g>
     </g>
    </g>
    <g id="ytick_5">
     <g id="line2d_21">
      <path clip-path="url(#p56f92aea03)" d="M 63.336875 24.381492 
L 398.136875 24.381492 
" style="fill:none;stroke:#000000;stroke-dasharray:0.5,0.825;stroke-dashoffset:0;stroke-width:0.5;"/>
     </g>
     <g id="line2d_22">
      <g>
       <use style="stroke:#000000;stroke-width:0.8;" x="63.336875" xlink:href="#m11bc4b4986" y="24.381492"/>
      </g>
     </g>
     <g id="text_12">
      <!-- 0.04 -->
      <g transform="translate(31.836875 29.242117)scale(0.14 -0.14)">
       <use xlink:href="#TimesNewRomanPSMT-30"/>
       <use x="50" xlink:href="#TimesNewRomanPSMT-2e"/>
       <use x="75" xlink:href="#TimesNewRomanPSMT-30"/>
       <use x="125" xlink:href="#TimesNewRomanPSMT-34"/>
      </g>
     </g>
    </g>
    <g id="text_13">
     <!-- Volatage (V) -->
     <g transform="translate(16.92125 209.352344)rotate(-90)scale(0.14 -0.14)">
      <defs>
       <path d="M 4544 4238 
L 4544 4122 
Q 4319 4081 4203 3978 
Q 4038 3825 3909 3509 
L 2431 -97 
L 2316 -97 
L 728 3556 
Q 606 3838 556 3900 
Q 478 3997 364 4051 
Q 250 4106 56 4122 
L 56 4238 
L 1788 4238 
L 1788 4122 
Q 1494 4094 1406 4022 
Q 1319 3950 1319 3838 
Q 1319 3681 1463 3350 
L 2541 866 
L 3541 3319 
Q 3688 3681 3688 3822 
Q 3688 3913 3597 3995 
Q 3506 4078 3291 4113 
Q 3275 4116 3238 4122 
L 3238 4238 
L 4544 4238 
z
" id="TimesNewRomanPSMT-56" transform="scale(0.015625)"/>
       <path d="M 1600 2947 
Q 2250 2947 2644 2453 
Q 2978 2031 2978 1484 
Q 2978 1100 2793 706 
Q 2609 313 2286 112 
Q 1963 -88 1566 -88 
Q 919 -88 538 428 
Q 216 863 216 1403 
Q 216 1797 411 2186 
Q 606 2575 925 2761 
Q 1244 2947 1600 2947 
z
M 1503 2744 
Q 1338 2744 1170 2645 
Q 1003 2547 900 2300 
Q 797 2053 797 1666 
Q 797 1041 1045 587 
Q 1294 134 1700 134 
Q 2003 134 2200 384 
Q 2397 634 2397 1244 
Q 2397 2006 2069 2444 
Q 1847 2744 1503 2744 
z
" id="TimesNewRomanPSMT-6f" transform="scale(0.015625)"/>
       <path d="M 1184 4444 
L 1184 647 
Q 1184 378 1223 290 
Q 1263 203 1344 158 
Q 1425 113 1647 113 
L 1647 0 
L 244 0 
L 244 113 
Q 441 113 512 153 
Q 584 194 625 287 
Q 666 381 666 647 
L 666 3247 
Q 666 3731 644 3842 
Q 622 3953 573 3993 
Q 525 4034 450 4034 
Q 369 4034 244 3984 
L 191 4094 
L 1044 4444 
L 1184 4444 
z
" id="TimesNewRomanPSMT-6c" transform="scale(0.015625)"/>
       <path d="M 1822 413 
Q 1381 72 1269 19 
Q 1100 -59 909 -59 
Q 613 -59 420 144 
Q 228 347 228 678 
Q 228 888 322 1041 
Q 450 1253 767 1440 
Q 1084 1628 1822 1897 
L 1822 2009 
Q 1822 2438 1686 2597 
Q 1550 2756 1291 2756 
Q 1094 2756 978 2650 
Q 859 2544 859 2406 
L 866 2225 
Q 866 2081 792 2003 
Q 719 1925 600 1925 
Q 484 1925 411 2006 
Q 338 2088 338 2228 
Q 338 2497 613 2722 
Q 888 2947 1384 2947 
Q 1766 2947 2009 2819 
Q 2194 2722 2281 2516 
Q 2338 2381 2338 1966 
L 2338 994 
Q 2338 584 2353 492 
Q 2369 400 2405 369 
Q 2441 338 2488 338 
Q 2538 338 2575 359 
Q 2641 400 2828 588 
L 2828 413 
Q 2478 -56 2159 -56 
Q 2006 -56 1915 50 
Q 1825 156 1822 413 
z
M 1822 616 
L 1822 1706 
Q 1350 1519 1213 1441 
Q 966 1303 859 1153 
Q 753 1003 753 825 
Q 753 600 887 451 
Q 1022 303 1197 303 
Q 1434 303 1822 616 
z
" id="TimesNewRomanPSMT-61" transform="scale(0.015625)"/>
       <path d="M 1031 3803 
L 1031 2863 
L 1700 2863 
L 1700 2644 
L 1031 2644 
L 1031 788 
Q 1031 509 1111 412 
Q 1191 316 1316 316 
Q 1419 316 1516 380 
Q 1613 444 1666 569 
L 1788 569 
Q 1678 263 1478 108 
Q 1278 -47 1066 -47 
Q 922 -47 784 33 
Q 647 113 581 261 
Q 516 409 516 719 
L 516 2644 
L 63 2644 
L 63 2747 
Q 234 2816 414 2980 
Q 594 3144 734 3369 
Q 806 3488 934 3803 
L 1031 3803 
z
" id="TimesNewRomanPSMT-74" transform="scale(0.015625)"/>
       <path d="M 966 1044 
Q 703 1172 562 1401 
Q 422 1631 422 1909 
Q 422 2334 742 2640 
Q 1063 2947 1563 2947 
Q 1972 2947 2272 2747 
L 2878 2747 
Q 3013 2747 3034 2739 
Q 3056 2731 3066 2713 
Q 3084 2684 3084 2613 
Q 3084 2531 3069 2500 
Q 3059 2484 3036 2475 
Q 3013 2466 2878 2466 
L 2506 2466 
Q 2681 2241 2681 1891 
Q 2681 1491 2375 1206 
Q 2069 922 1553 922 
Q 1341 922 1119 984 
Q 981 866 932 777 
Q 884 688 884 625 
Q 884 572 936 522 
Q 988 472 1138 450 
Q 1225 438 1575 428 
Q 2219 413 2409 384 
Q 2700 344 2873 169 
Q 3047 -6 3047 -263 
Q 3047 -616 2716 -925 
Q 2228 -1381 1444 -1381 
Q 841 -1381 425 -1109 
Q 191 -953 191 -784 
Q 191 -709 225 -634 
Q 278 -519 444 -313 
Q 466 -284 763 25 
Q 600 122 533 198 
Q 466 275 466 372 
Q 466 481 555 628 
Q 644 775 966 1044 
z
M 1509 2797 
Q 1278 2797 1122 2612 
Q 966 2428 966 2047 
Q 966 1553 1178 1281 
Q 1341 1075 1591 1075 
Q 1828 1075 1981 1253 
Q 2134 1431 2134 1813 
Q 2134 2309 1919 2591 
Q 1759 2797 1509 2797 
z
M 934 0 
Q 788 -159 713 -296 
Q 638 -434 638 -550 
Q 638 -700 819 -813 
Q 1131 -1006 1722 -1006 
Q 2284 -1006 2551 -807 
Q 2819 -609 2819 -384 
Q 2819 -222 2659 -153 
Q 2497 -84 2016 -72 
Q 1313 -53 934 0 
z
" id="TimesNewRomanPSMT-67" transform="scale(0.015625)"/>
      </defs>
      <use xlink:href="#TimesNewRomanPSMT-56"/>
      <use x="59.341797" xlink:href="#TimesNewRomanPSMT-6f"/>
      <use x="109.341797" xlink:href="#TimesNewRomanPSMT-6c"/>
      <use x="137.125" xlink:href="#TimesNewRomanPSMT-61"/>
      <use x="181.509766" xlink:href="#TimesNewRomanPSMT-74"/>
      <use x="209.292969" xlink:href="#TimesNewRomanPSMT-61"/>
      <use x="253.677734" xlink:href="#TimesNewRomanPSMT-67"/>
      <use x="303.677734" xlink:href="#TimesNewRomanPSMT-65"/>
      <use x="348.0625" xlink:href="#TimesNewRomanPSMT-20"/>
      <use x="373.0625" xlink:href="#TimesNewRomanPSMT-28"/>
      <use x="406.363281" xlink:href="#TimesNewRomanPSMT-56"/>
      <use x="478.580078" xlink:href="#TimesNewRomanPSMT-29"/>
     </g>
    </g>
   </g>
   <g id="LineCollection_1">
    <path clip-path="url(#p56f92aea03)" d="M 78.555057 153.113696 
L 382.918693 153.113696 
" style="fill:none;stroke:#1f77b4;stroke-width:1.5;"/>
   </g>
   <g id="line2d_23">
    <path clip-path="url(#p56f92aea03)" d="M 78.555057 153.264795 
L 78.676802 153.184338 
L 78.707239 153.224567 
L 81.416075 153.144109 
L 81.53782 153.144109 
L 81.659566 153.144109 
L 82.603093 153.144109 
L 82.63353 153.023423 
L 82.724839 153.10388 
L 85.098875 153.063651 
L 85.129311 152.983194 
L 85.22062 153.023423 
L 94.442839 152.942965 
L 94.564584 152.942965 
L 104.182475 152.983194 
L 104.212911 153.063651 
L 104.30422 153.023423 
L 104.334657 152.942965 
L 104.39553 152.983194 
L 104.547711 153.023423 
L 105.947784 153.023423 
L 105.97822 153.144109 
L 106.06953 153.10388 
L 109.113166 153.184338 
L 109.265348 153.224567 
L 109.295784 153.144109 
L 109.356657 153.224567 
L 109.447966 153.224567 
L 109.539275 153.184338 
L 109.569711 153.224567 
L 109.721893 153.264795 
L 109.75233 153.184338 
L 109.813202 153.264795 
L 111.061093 153.345253 
L 111.152402 153.345253 
L 111.274148 153.345253 
L 111.42633 153.385482 
L 112.156802 153.465939 
L 112.308984 153.506168 
L 112.400293 153.506168 
L 112.522039 153.546397 
L 112.643784 153.546397 
L 113.039457 153.626855 
L 113.161202 153.626855 
L 113.43513 153.667084 
L 113.526439 153.747541 
L 113.556875 153.707312 
L 113.709057 153.747541 
L 114.01342 153.78777 
L 114.165602 153.908456 
L 114.196039 153.827999 
L 114.256911 153.868228 
L 114.409093 153.908456 
L 114.743893 153.988914 
L 114.896075 154.029143 
L 114.926511 153.988914 
L 114.956948 154.069372 
L 115.10913 154.109601 
L 115.565675 154.149829 
L 115.717857 154.270516 
L 116.143966 154.310745 
L 116.296148 154.431431 
L 116.874439 154.511889 
L 117.02662 154.592346 
L 117.11793 154.552117 
L 117.148366 154.592346 
L 117.36142 154.632575 
L 117.391857 154.713033 
L 117.483166 154.672804 
L 117.665784 154.753262 
L 117.69622 154.672804 
L 117.757093 154.79349 
L 117.878839 154.753262 
L 118.000584 154.753262 
L 118.213639 154.833719 
L 118.36582 154.873948 
L 118.609311 154.954406 
L 118.761493 154.994634 
L 119.096293 155.075092 
L 119.309348 155.195779 
L 119.400657 155.195779 
L 119.644148 155.356694 
L 119.826766 155.396923 
L 119.948511 155.47738 
L 120.100693 155.557838 
L 120.37462 155.758982 
L 120.405057 155.718753 
L 120.435493 155.758982 
L 120.587675 155.879668 
L 121.226839 156.563558 
L 121.287711 156.644016 
L 121.957311 157.689965 
L 122.352984 158.454312 
L 122.535602 158.856601 
L 124.179166 163.482914 
L 124.513966 164.730007 
L 124.605275 165.011609 
L 124.909639 166.097787 
L 126.370584 172.333253 
L 127.892402 179.815813 
L 128.50113 182.672058 
L 129.322911 186.493797 
L 129.535966 187.338601 
L 130.875166 192.206287 
L 130.996911 192.528118 
L 132.001311 194.901618 
L 132.42742 195.303906 
L 132.549166 195.303906 
L 132.701348 195.384364 
L 132.85353 195.344135 
L 133.09702 195.263677 
L 133.279639 195.062533 
L 133.675311 194.378643 
L 134.223166 193.212008 
L 134.375348 192.849948 
L 135.10582 190.637364 
L 136.079784 186.373108 
L 137.632039 175.430872 
L 139.823457 154.149829 
L 142.988839 110.863626 
L 146.610766 59.813261 
L 149.350039 31.974925 
L 150.019639 27.549752 
L 150.415311 25.658995 
L 150.871857 23.768237 
L 151.024039 23.406178 
L 151.389275 22.722295 
L 151.480584 22.641837 
L 151.632766 22.480918 
L 151.693639 22.521154 
L 151.724075 22.480918 
L 151.906693 22.400461 
L 152.363239 22.400461 
L 152.51542 22.601615 
L 152.911093 23.285498 
L 153.61113 25.417632 
L 154.554657 30.969205 
L 155.163384 35.716201 
L 155.893857 43.11831 
L 156.776511 53.61802 
L 158.511384 80.329956 
L 161.676766 145.259262 
L 166.942257 261.158477 
L 168.494511 287.910629 
L 170.198948 309.030759 
L 170.868548 314.944395 
L 171.69033 320.576429 
L 172.177311 322.628102 
L 173.059966 324.679778 
L 173.333893 324.599317 
L 173.94262 323.674044 
L 174.186111 323.110844 
L 174.307857 322.78902 
L 174.673093 321.541924 
L 175.28182 318.685684 
L 176.073166 314.019136 
L 176.834075 307.944581 
L 177.260184 304.444681 
L 179.208111 282.680893 
L 180.516875 265.261813 
L 181.216911 255.687355 
L 182.130002 241.888872 
L 182.677857 233.199445 
L 183.864875 213.286189 
L 185.75193 182.752517 
L 187.456366 157.448592 
L 188.065093 148.960312 
L 188.734693 140.029516 
L 191.139166 109.69699 
L 194.061057 79.887436 
L 194.36542 77.755309 
L 197.074257 57.158162 
L 198.04822 51.405439 
L 200.452693 42.31373 
L 200.878802 41.428693 
L 200.939675 41.348235 
L 201.122293 40.94595 
L 201.609275 39.899998 
L 201.670148 39.819537 
L 201.82233 39.698854 
L 202.613675 39.618396 
L 202.796293 39.537936 
L 202.918039 39.537936 
L 203.009348 39.497713 
L 203.16153 39.618396 
L 203.191966 39.578174 
L 203.252839 39.658619 
L 203.557202 39.940233 
L 203.587639 39.899998 
L 203.648511 39.980456 
L 203.861566 40.060913 
L 204.013748 40.101139 
L 204.257239 40.181597 
L 204.83553 41.106856 
L 205.200766 41.790752 
L 205.657311 42.555097 
L 206.052984 43.68151 
L 208.18353 49.595142 
L 209.85753 56.675413 
L 210.86193 61.502871 
L 210.922802 61.704018 
L 213.053348 73.531283 
L 214.20993 81.898883 
L 215.305639 91.473341 
L 216.46222 103.179925 
L 219.47542 136.207778 
L 221.088548 156.080812 
L 221.849457 165.29321 
L 222.853857 178.52849 
L 226.871457 230.222516 
L 227.480184 237.78553 
L 228.088911 245.107177 
L 230.219457 266.549135 
L 232.136948 278.577554 
L 232.380439 279.502816 
L 233.445711 283.284315 
L 233.506584 283.324551 
L 233.689202 283.606152 
L 234.389239 284.370493 
L 234.602293 284.290049 
L 234.815348 283.968212 
L 234.845784 283.968212 
L 235.089275 283.445234 
L 235.484948 282.76135 
L 236.063239 280.951054 
L 236.519784 278.698237 
L 237.372002 273.629406 
L 237.828548 269.888127 
L 239.015566 259.589544 
L 240.172148 247.963426 
L 241.937457 226.038723 
L 242.424439 219.763021 
L 246.046366 170.4425 
L 249.850911 116.737032 
L 252.194511 93.122719 
L 252.468439 91.15151 
L 253.138039 86.686109 
L 254.62942 79.324236 
L 254.933784 78.278286 
L 255.238148 77.232337 
L 256.577348 73.973803 
L 256.851275 73.772663 
L 256.942584 73.692202 
L 257.094766 73.651973 
L 257.39913 73.571515 
L 257.490439 73.571515 
L 257.612184 73.571515 
L 257.794802 73.651973 
L 258.281784 74.134722 
L 258.464402 74.215173 
L 258.64702 74.335863 
L 258.768766 74.335863 
L 258.890511 74.376092 
L 258.951384 74.335863 
L 258.98182 74.376092 
L 259.560111 74.979524 
L 259.590548 74.939292 
L 259.620984 74.979524 
L 259.773166 75.10021 
L 260.107966 75.381812 
L 260.138402 75.341583 
L 260.168839 75.422041 
L 260.99062 76.669131 
L 261.203675 77.111651 
L 261.234111 77.111651 
L 261.508039 77.755309 
L 262.208075 79.887436 
L 263.912511 87.088397 
L 265.890875 98.111092 
L 266.621348 103.019007 
L 267.717057 110.944083 
L 268.35622 115.851999 
L 270.151966 129.207964 
L 270.425893 131.179177 
L 272.617311 147.713219 
L 273.04342 150.529236 
L 273.591275 154.069372 
L 273.895639 155.718753 
L 275.234839 162.27605 
L 275.417457 163.040397 
L 275.904439 165.051838 
L 276.847966 168.3506 
L 276.939275 168.632202 
L 277.456693 170.241355 
L 278.06542 172.132108 
L 278.430657 173.137829 
L 278.582839 173.459659 
L 278.887202 174.264236 
L 279.130693 174.746982 
L 279.435057 175.269957 
L 279.952475 176.114761 
L 280.135093 176.436593 
L 280.774257 177.120482 
L 280.83513 177.160712 
L 281.017748 177.361854 
L 281.048184 177.361854 
L 281.200366 177.522771 
L 281.41342 177.844601 
L 281.443857 177.804371 
L 281.50473 177.884829 
L 281.778657 178.166431 
L 281.83953 178.085973 
L 281.869966 178.166431 
L 282.17433 178.246888 
L 282.265639 178.246888 
L 282.356948 178.246888 
L 282.600439 178.407805 
L 283.117857 178.327346 
L 283.330911 178.20666 
L 283.483093 178.126203 
L 283.665711 178.005516 
L 283.696148 178.045745 
L 283.75702 177.965288 
L 283.970075 177.844601 
L 284.09182 177.764143 
L 284.822293 176.959567 
L 284.85273 176.999795 
L 284.883166 176.919337 
L 286.070184 175.189499 
L 286.465857 174.425152 
L 286.739784 173.902176 
L 287.10502 173.218287 
L 287.409384 172.655084 
L 287.77462 171.971194 
L 287.835493 171.890736 
L 288.139857 171.367762 
L 288.170293 171.407991 
L 288.231166 171.327534 
L 289.20513 170.201126 
L 289.326875 170.241355 
L 289.479057 170.201126 
L 289.87473 170.120668 
L 290.026911 170.08044 
L 290.300839 170.120668 
L 290.45302 170.281583 
L 290.513893 170.321813 
L 290.757384 170.683872 
L 290.848693 170.7241 
L 291.092184 171.08616 
L 291.183493 171.166617 
L 291.579166 171.810279 
L 291.913966 172.735542 
L 292.005275 173.017142 
L 293.22273 176.51705 
L 293.648839 177.844601 
L 293.679275 177.844601 
L 294.196693 179.453754 
L 294.744548 181.183594 
L 295.23153 182.672058 
L 295.992439 184.924871 
L 296.23593 185.64899 
L 296.540293 186.413338 
L 296.81422 186.936312 
L 297.270766 187.861575 
L 297.514257 188.344321 
L 297.81862 188.867296 
L 297.879493 188.947753 
L 298.275166 189.350041 
L 298.305602 189.309813 
L 298.336039 189.39027 
L 299.096948 190.235075 
L 299.24913 190.194847 
L 299.614366 190.275304 
L 299.82742 190.395991 
L 299.857857 190.355762 
L 299.91873 190.436219 
L 300.101348 190.597135 
L 300.131784 190.556906 
L 300.283966 190.516677 
L 300.375275 190.516677 
L 300.679639 190.194847 
L 300.710075 190.275304 
L 300.770948 190.154618 
L 301.014439 190.07416 
L 301.16662 189.993702 
L 301.318802 190.033931 
L 302.353639 188.827067 
L 302.444948 188.827067 
L 302.84062 188.465008 
L 302.93193 188.38455 
L 304.332002 186.413338 
L 304.575493 185.850134 
L 304.697239 185.528304 
L 306.127748 181.505423 
L 306.492984 180.137643 
L 306.797348 179.051465 
L 307.832184 174.14355 
L 308.440911 171.287304 
L 308.836584 169.03449 
L 309.20182 167.143737 
L 310.267093 160.948499 
L 313.067239 141.719126 
L 313.584657 138.460592 
L 314.102075 135.161829 
L 315.928257 123.817305 
L 317.115275 118.104812 
L 317.389202 117.139321 
L 317.693566 116.093371 
L 318.880584 111.829117 
L 319.33713 110.340651 
L 319.945857 108.369439 
L 320.067602 108.047609 
L 321.163311 105.392507 
L 321.224184 105.392507 
L 321.437239 104.990216 
L 321.528548 104.909764 
L 321.802475 104.467244 
L 321.832911 104.467244 
L 322.045966 104.064956 
L 322.380766 103.421295 
L 322.472075 103.340837 
L 322.68513 103.059236 
L 323.750402 101.490309 
L 323.993893 101.12825 
L 324.115639 101.047798 
L 324.967857 100.0823 
L 325.02873 100.122532 
L 325.059166 100.0823 
L 325.211348 100.001849 
L 325.333093 100.042072 
L 325.454839 100.042072 
L 325.637457 100.0823 
L 325.789639 100.243219 
L 325.880948 100.243219 
L 326.854911 101.691456 
L 327.463639 103.019007 
L 327.61582 103.381066 
L 328.04193 104.628156 
L 328.741966 106.760287 
L 329.868111 111.627973 
L 330.415966 114.524448 
L 333.429166 131.018262 
L 333.855275 133.552676 
L 334.768366 138.943337 
L 335.529275 143.24782 
L 335.65102 143.851253 
L 337.872875 155.034863 
L 338.451166 157.730194 
L 338.907711 160.063465 
L 339.607748 163.28177 
L 340.186039 165.775956 
L 341.281748 169.718381 
L 341.34262 169.959753 
L 341.890475 171.649364 
L 342.10353 172.373482 
L 342.225275 172.695313 
L 342.712257 174.183778 
L 343.747093 176.637737 
L 343.960148 177.080254 
L 344.173202 177.522771 
L 344.568875 178.166431 
L 344.751493 178.488262 
L 345.512402 179.333067 
L 345.603711 179.413524 
L 345.725457 179.574439 
L 345.755893 179.534211 
L 347.36902 181.545653 
L 347.399457 181.505423 
L 347.429893 181.585879 
L 347.612511 181.787024 
L 347.642948 181.746794 
L 347.70382 181.827253 
L 347.977748 182.028398 
L 348.099493 182.108854 
L 348.312548 182.229542 
L 348.434293 182.229542 
L 348.586475 182.269769 
L 348.860402 182.229542 
L 348.982148 182.149083 
L 349.103893 182.189313 
L 349.256075 182.149083 
L 349.682184 182.108854 
L 349.80393 182.028398 
L 349.925675 182.068627 
L 350.077857 181.947939 
L 350.321348 181.867483 
L 350.47353 181.827253 
L 351.021384 181.746794 
L 351.173566 181.666338 
L 351.204002 181.706568 
L 351.264875 181.626109 
L 351.599675 181.344508 
L 351.72142 181.304279 
L 351.873602 181.143364 
L 351.964911 181.062905 
L 353.182366 179.574439 
L 353.212802 179.614669 
L 353.243239 179.493982 
L 353.334548 179.453754 
L 353.517166 179.131922 
L 353.578039 179.051465 
L 354.82593 177.562999 
L 354.947675 177.482541 
L 355.40422 177.040024 
L 355.49553 176.999795 
L 355.617275 176.879109 
L 355.708584 176.798652 
L 355.891202 176.718195 
L 356.012948 176.677965 
L 356.16513 176.557278 
L 356.469493 176.51705 
L 356.621675 176.396363 
L 356.712984 176.396363 
L 356.895602 176.315905 
L 357.108657 176.275678 
L 357.230402 176.19522 
L 357.74782 176.114761 
L 357.930439 176.034303 
L 357.960875 176.114761 
L 357.991311 175.994076 
L 358.021748 176.034303 
L 358.265239 175.873389 
L 358.295675 175.913618 
L 358.356548 175.833161 
L 358.478293 175.752703 
L 358.691348 175.632016 
L 358.934839 175.551559 
L 359.239202 175.310186 
L 359.300075 175.229727 
L 359.604439 174.988355 
L 359.726184 174.907897 
L 359.939239 174.746982 
L 360.030548 174.746982 
L 360.334911 174.50561 
L 360.487093 174.425152 
L 362.039348 172.212567 
L 362.43502 171.448219 
L 362.495893 171.407991 
L 362.830693 170.804558 
L 363.043748 170.40227 
L 363.317675 169.758609 
L 363.561166 169.316092 
L 363.804657 168.793117 
L 364.169893 168.149456 
L 364.565566 167.385109 
L 366.665675 164.770236 
L 366.696111 164.810465 
L 366.726548 164.730007 
L 366.970039 164.569092 
L 367.152657 164.488635 
L 367.304839 164.327719 
L 367.487457 164.126576 
L 367.852693 163.804745 
L 368.004875 163.764516 
L 368.065748 163.64383 
L 368.12662 163.684059 
L 368.309239 163.603601 
L 368.491857 163.523143 
L 368.79622 163.28177 
L 368.948402 163.201313 
L 369.252766 162.919711 
L 369.313639 162.95994 
L 369.344075 162.919711 
L 369.526693 162.839253 
L 369.587566 162.879482 
L 369.618002 162.839253 
L 369.831057 162.718567 
L 369.861493 162.718567 
L 370.013675 162.477194 
L 370.074548 162.517423 
L 370.104984 162.436965 
L 370.47022 162.115134 
L 370.56153 162.034677 
L 372.387711 159.741635 
L 372.418148 159.781863 
L 372.448584 159.661177 
L 373.970402 157.488821 
L 374.366075 156.724473 
L 374.609566 156.241728 
L 375.218293 154.873948 
L 375.279166 154.79349 
L 377.318402 149.121228 
L 377.622766 148.316651 
L 377.774948 147.954592 
L 378.231493 146.586812 
L 379.722875 142.362787 
L 380.148984 141.115694 
L 380.60553 139.627228 
L 381.18382 137.776701 
L 381.305566 137.454871 
L 381.579493 136.569837 
L 382.036039 135.081372 
L 382.52302 133.592906 
L 382.918693 132.38604 
L 382.918693 132.38604 
" style="fill:none;stroke:#0000ff;stroke-linecap:square;stroke-width:1.5;"/>
   </g>
   <g id="line2d_24">
    <path clip-path="url(#p56f92aea03)" d="M 78.555057 153.207107 
L 82.329166 153.12665 
L 82.511784 153.066306 
L 82.724839 153.086421 
L 82.96833 153.046192 
L 83.150948 153.046192 
L 97.395166 152.94562 
L 97.577784 152.94562 
L 100.225748 153.046192 
L 100.95622 153.428366 
L 101.04753 153.468595 
L 101.62582 153.971455 
L 102.782402 155.661065 
L 104.699893 161.011497 
L 106.31302 167.850396 
L 110.361057 186.074049 
L 111.213275 188.528006 
L 112.248111 190.338302 
L 112.795966 190.92162 
L 112.917711 190.941735 
L 113.10033 190.961849 
L 114.10473 190.177387 
L 114.469966 189.513612 
L 114.835202 188.568235 
L 116.083093 184.062607 
L 116.69182 180.78396 
L 117.239675 177.605883 
L 117.878839 173.180713 
L 120.892039 148.399764 
L 125.183566 109.659416 
L 126.674948 100.507361 
L 128.74462 91.415653 
L 129.901202 88.639864 
L 130.50993 88.116887 
L 130.84473 87.855396 
L 131.057784 87.815167 
L 131.453457 87.976086 
L 131.636075 87.976086 
L 131.84913 87.875517 
L 132.670911 87.453108 
L 132.85353 87.553686 
L 133.18833 87.835285 
L 133.462257 87.935857 
L 134.253602 88.579518 
L 134.52753 89.042146 
L 135.744984 89.967412 
L 136.87113 91.274852 
L 136.962439 91.355303 
L 137.358111 92.05931 
L 137.723348 92.884001 
L 138.392948 94.412696 
L 139.21473 98.093632 
L 142.349675 115.251221 
L 144.967202 135.084027 
L 150.080511 176.519706 
L 151.328402 186.31542 
L 152.880657 196.815142 
L 154.341602 203.97587 
L 155.589493 207.757379 
L 156.715639 209.064815 
L 156.928693 209.105044 
L 157.172184 209.044704 
L 157.324366 209.044704 
L 157.689602 208.903897 
L 157.811348 208.863674 
L 158.176584 208.501615 
L 158.572257 207.797608 
L 159.424475 206.329259 
L 159.54622 206.14823 
L 160.854984 203.312095 
L 162.589857 198.424294 
L 164.598657 190.036586 
L 164.99433 188.306747 
L 167.977093 176.901878 
L 168.281457 176.399019 
L 169.285857 175.252498 
L 169.498911 175.232383 
L 169.833711 175.35307 
L 169.864148 175.31284 
L 169.92502 175.393298 
L 170.138075 175.49387 
L 170.442439 175.715129 
L 170.625057 175.956502 
L 171.203348 177.324281 
L 171.751202 178.752403 
L 172.238184 180.321327 
L 173.394766 185.34993 
L 174.307857 190.076815 
L 176.773202 205.40399 
L 177.594984 211.036024 
L 179.938584 225.840234 
L 180.486439 227.871783 
L 181.97782 231.552719 
L 182.190875 231.794095 
L 182.525675 232.216498 
L 182.890911 232.538328 
L 183.225711 232.437756 
L 183.40833 232.196387 
L 184.534475 228.937849 
L 185.021457 226.604575 
L 185.782366 221.45529 
L 186.512839 214.797418 
L 187.791166 200.134019 
L 189.09993 182.312654 
L 190.804366 154.776031 
L 192.295748 128.305471 
L 193.391457 110.72548 
L 195.308948 82.062453 
L 196.008984 73.835654 
L 197.04382 62.812959 
L 197.926475 55.129259 
L 198.930875 48.02887 
L 200.239639 40.08368 
L 200.970111 36.805038 
L 201.426657 35.397023 
L 202.431057 34.230387 
L 202.887602 34.29074 
L 203.191966 34.652799 
L 204.348548 36.362521 
L 204.805093 37.871098 
L 205.474693 40.948599 
L 206.113857 45.414007 
L 206.996511 52.051758 
L 215.54913 118.992501 
L 217.710111 135.50643 
L 218.47102 141.118348 
L 220.784184 157.149531 
L 222.032075 165.235523 
L 223.371275 173.361743 
L 224.25393 178.611603 
L 226.50622 191.344023 
L 228.332402 199.269099 
L 229.154184 202.085116 
L 230.402075 205.082163 
L 231.28473 206.59074 
L 232.015202 207.737264 
L 232.471748 208.662527 
L 232.806548 209.286074 
L 234.724039 213.308958 
L 235.119711 214.234218 
L 235.789311 215.722687 
L 236.763275 217.191036 
L 237.128511 217.673785 
L 238.072039 218.739845 
L 238.954693 219.202473 
L 239.167748 219.162244 
L 239.350366 219.182362 
L 239.65473 219.081793 
L 239.806911 219.061676 
L 240.080839 219.001332 
L 241.146111 219.081793 
L 241.32873 219.142133 
L 241.724402 219.282934 
L 241.846148 219.303052 
L 242.180948 219.40362 
L 242.485311 219.484081 
L 242.698366 219.604765 
L 242.91142 219.685222 
L 243.154911 219.826023 
L 243.550584 220.2082 
L 244.34193 221.435179 
L 247.35513 227.167782 
L 248.389966 228.354532 
L 248.69433 228.455104 
L 248.876948 228.455104 
L 249.27262 228.354532 
L 249.729166 228.153391 
L 249.850911 228.113162 
L 250.03353 227.8919 
L 250.216148 227.650531 
L 251.28142 226.081604 
L 252.559748 222.400667 
L 253.168475 219.58465 
L 255.025093 207.898177 
L 255.907748 200.717336 
L 257.520875 184.766611 
L 258.829639 169.801492 
L 260.99062 141.299378 
L 265.464766 80.694667 
L 267.35182 59.534314 
L 268.234475 51.870722 
L 269.45193 43.784734 
L 270.12153 40.807798 
L 270.760693 39.077959 
L 271.095493 38.454416 
L 271.765093 38.132582 
L 272.13033 38.233157 
L 272.586875 38.635442 
L 273.317348 40.325056 
L 273.895639 42.115235 
L 274.991348 47.707046 
L 275.874002 53.620679 
L 277.943675 70.919069 
L 278.82633 79.427466 
L 280.591639 98.013175 
L 285.85713 152.523217 
L 287.744184 169.660692 
L 288.992075 180.92476 
L 290.513893 193.053747 
L 291.487857 199.892646 
L 292.55313 206.852231 
L 294.13582 214.676738 
L 295.048911 217.331837 
L 296.57073 220.107622 
L 297.422948 221.053002 
L 297.849057 221.21392 
L 298.031675 221.21392 
L 298.214293 221.21392 
L 298.48822 221.113342 
L 299.005639 220.65071 
L 300.314402 218.739845 
L 300.892693 217.372065 
L 302.992802 210.050424 
L 304.60593 199.832303 
L 305.823384 190.318188 
L 309.901857 161.454014 
L 311.119311 155.600722 
L 311.54542 153.81054 
L 312.702002 148.962967 
L 313.31073 146.589467 
L 314.193384 143.029218 
L 315.684766 137.537985 
L 316.384802 135.385742 
L 317.32833 132.650183 
L 318.089239 130.337026 
L 318.57622 129.110049 
L 320.128475 125.308425 
L 320.58502 124.182017 
L 321.132875 122.452179 
L 322.076402 120.259709 
L 322.563384 119.052844 
L 323.111239 117.906323 
L 324.724366 114.46676 
L 327.03753 108.653696 
L 327.737566 107.547404 
L 328.589784 106.099166 
L 329.837675 104.630815 
L 330.994257 103.967036 
L 331.176875 103.967036 
L 331.38993 103.946925 
L 331.816039 104.107837 
L 332.029093 104.208415 
L 332.242148 104.389445 
L 332.546511 104.711275 
L 333.916148 106.702599 
L 334.555311 108.191065 
L 337.111966 117.021289 
L 337.99462 120.581539 
L 338.725093 123.900416 
L 340.76433 135.224828 
L 341.76873 141.762009 
L 342.194839 144.578027 
L 343.503602 153.287565 
L 344.508002 160.629323 
L 348.738657 193.29512 
L 349.864802 200.677108 
L 351.47793 209.607904 
L 352.573639 214.857768 
L 353.030184 216.748516 
L 353.48673 218.377786 
L 355.16073 222.501239 
L 355.860766 223.687989 
L 355.921639 223.768447 
L 356.378184 224.190846 
L 356.560802 224.190846 
L 356.804293 224.090277 
L 357.230402 223.687989 
L 357.960875 222.541468 
L 358.447857 221.3346 
L 359.300075 218.800191 
L 359.84793 216.185315 
L 361.491493 205.766049 
L 364.017711 186.597023 
L 370.318039 131.523777 
L 371.505057 120.843027 
L 372.81382 111.349027 
L 373.848657 104.610697 
L 375.187857 97.309174 
L 375.887893 94.593726 
L 376.49662 92.602399 
L 378.231493 88.318027 
L 378.901093 87.614026 
L 379.17502 87.513454 
L 379.418511 87.473226 
L 379.84462 87.654255 
L 379.966366 87.674366 
L 380.60553 88.217459 
L 381.001202 88.760548 
L 381.396875 89.464555 
L 382.127348 91.154162 
L 382.918693 93.406979 
L 382.918693 93.406979 
" style="fill:none;stroke:#ff0000;stroke-linecap:square;stroke-width:1.5;"/>
   </g>
   <g id="line2d_25">
    <path clip-path="url(#p56f92aea03)" d="M 123.600875 161.712846 
" style="fill:none;stroke:#ffffff;stroke-linecap:square;stroke-width:1.5;"/>
    <defs>
     <path d="M 0 -5 
L -1.12257 -1.545085 
L -4.755283 -1.545085 
L -1.816356 0.59017 
L -2.938926 4.045085 
L -0 1.90983 
L 2.938926 4.045085 
L 1.816356 0.59017 
L 4.755283 -1.545085 
L 1.12257 -1.545085 
z
" id="m45deecfa10" style="stroke:#ffffff;stroke-linejoin:bevel;"/>
    </defs>
    <g clip-path="url(#p56f92aea03)">
     <use style="fill:#0000ff;stroke:#ffffff;stroke-linejoin:bevel;" x="123.600875" xlink:href="#m45deecfa10" y="161.712846"/>
    </g>
   </g>
   <g id="line2d_26">
    <path clip-path="url(#p56f92aea03)" d="M 104.121602 159.080514 
" style="fill:none;stroke:#ffffff;stroke-linecap:square;stroke-width:1.5;"/>
    <defs>
     <path d="M 0 -5 
L -1.12257 -1.545085 
L -4.755283 -1.545085 
L -1.816356 0.59017 
L -2.938926 4.045085 
L -0 1.90983 
L 2.938926 4.045085 
L 1.816356 0.59017 
L 4.755283 -1.545085 
L 1.12257 -1.545085 
z
" id="m8071bda27d" style="stroke:#ffffff;stroke-linejoin:bevel;"/>
    </defs>
    <g clip-path="url(#p56f92aea03)">
     <use style="fill:#ff0000;stroke:#ffffff;stroke-linejoin:bevel;" x="104.121602" xlink:href="#m8071bda27d" y="159.080514"/>
    </g>
   </g>
   <g id="patch_3">
    <path d="M 63.336875 339.84 
L 63.336875 7.2 
" style="fill:none;stroke:#000000;stroke-linecap:square;stroke-linejoin:miter;stroke-width:0.8;"/>
   </g>
   <g id="patch_4">
    <path d="M 398.136875 339.84 
L 398.136875 7.2 
" style="fill:none;stroke:#000000;stroke-linecap:square;stroke-linejoin:miter;stroke-width:0.8;"/>
   </g>
   <g id="patch_5">
    <path d="M 63.336875 339.84 
L 398.136875 339.84 
" style="fill:none;stroke:#000000;stroke-linecap:square;stroke-linejoin:miter;stroke-width:0.8;"/>
   </g>
   <g id="patch_6">
    <path d="M 63.336875 7.2 
L 398.136875 7.2 
" style="fill:none;stroke:#000000;stroke-linecap:square;stroke-linejoin:miter;stroke-width:0.8;"/>
   </g>
   <g id="text_14">
    <g id="patch_7">
     <path d="M 75.036875 331.242688 
L 166.79375 331.242688 
L 166.79375 293.760312 
L 75.036875 293.760312 
z
" style="fill:#ffffff;stroke:#000000;stroke-linejoin:miter;stroke-width:0.75;"/>
    </g>
    <!-- Auto_00155 -->
    <g transform="translate(80.076875 308.521563)scale(0.14 -0.14)">
     <defs>
      <path d="M 2928 1419 
L 1288 1419 
L 1000 750 
Q 894 503 894 381 
Q 894 284 986 211 
Q 1078 138 1384 116 
L 1384 0 
L 50 0 
L 50 116 
Q 316 163 394 238 
Q 553 388 747 847 
L 2238 4334 
L 2347 4334 
L 3822 809 
Q 4000 384 4145 257 
Q 4291 131 4550 116 
L 4550 0 
L 2878 0 
L 2878 116 
Q 3131 128 3220 200 
Q 3309 272 3309 375 
Q 3309 513 3184 809 
L 2928 1419 
z
M 2841 1650 
L 2122 3363 
L 1384 1650 
L 2841 1650 
z
" id="TimesNewRomanPSMT-41" transform="scale(0.015625)"/>
      <path d="M 2709 2863 
L 2709 1128 
Q 2709 631 2732 520 
Q 2756 409 2807 365 
Q 2859 322 2928 322 
Q 3025 322 3147 375 
L 3191 266 
L 2334 -88 
L 2194 -88 
L 2194 519 
Q 1825 119 1631 15 
Q 1438 -88 1222 -88 
Q 981 -88 804 51 
Q 628 191 559 409 
Q 491 628 491 1028 
L 491 2306 
Q 491 2509 447 2587 
Q 403 2666 317 2708 
Q 231 2750 6 2747 
L 6 2863 
L 1009 2863 
L 1009 947 
Q 1009 547 1148 422 
Q 1288 297 1484 297 
Q 1619 297 1789 381 
Q 1959 466 2194 703 
L 2194 2325 
Q 2194 2569 2105 2655 
Q 2016 2741 1734 2747 
L 1734 2863 
L 2709 2863 
z
" id="TimesNewRomanPSMT-75" transform="scale(0.015625)"/>
      <path d="M 3256 -1381 
L -53 -1381 
L -53 -1119 
L 3256 -1119 
L 3256 -1381 
z
" id="TimesNewRomanPSMT-5f" transform="scale(0.015625)"/>
     </defs>
     <use xlink:href="#TimesNewRomanPSMT-41"/>
     <use x="72.216797" xlink:href="#TimesNewRomanPSMT-75"/>
     <use x="122.216797" xlink:href="#TimesNewRomanPSMT-74"/>
     <use x="150" xlink:href="#TimesNewRomanPSMT-6f"/>
     <use x="200" xlink:href="#TimesNewRomanPSMT-5f"/>
     <use x="250" xlink:href="#TimesNewRomanPSMT-30"/>
     <use x="300" xlink:href="#TimesNewRomanPSMT-30"/>
     <use x="350" xlink:href="#TimesNewRomanPSMT-31"/>
     <use x="400" xlink:href="#TimesNewRomanPSMT-35"/>
     <use x="450" xlink:href="#TimesNewRomanPSMT-35"/>
    </g>
    <!-- Vs: 312.28m/s -->
    <g transform="translate(80.076875 323.208)scale(0.14 -0.14)">
     <defs>
      <path d="M 903 2950 
Q 1047 2950 1148 2848 
Q 1250 2747 1250 2603 
Q 1250 2459 1148 2357 
Q 1047 2256 903 2256 
Q 759 2256 657 2357 
Q 556 2459 556 2603 
Q 556 2747 657 2848 
Q 759 2950 903 2950 
z
M 897 609 
Q 1044 609 1145 506 
Q 1247 403 1247 259 
Q 1247 116 1144 14 
Q 1041 -88 897 -88 
Q 753 -88 651 14 
Q 550 116 550 259 
Q 550 403 651 506 
Q 753 609 897 609 
z
" id="TimesNewRomanPSMT-3a" transform="scale(0.015625)"/>
      <path d="M 1228 2134 
Q 725 2547 579 2797 
Q 434 3047 434 3316 
Q 434 3728 753 4026 
Q 1072 4325 1600 4325 
Q 2113 4325 2425 4047 
Q 2738 3769 2738 3413 
Q 2738 3175 2569 2928 
Q 2400 2681 1866 2347 
Q 2416 1922 2594 1678 
Q 2831 1359 2831 1006 
Q 2831 559 2490 242 
Q 2150 -75 1597 -75 
Q 994 -75 656 303 
Q 388 606 388 966 
Q 388 1247 577 1523 
Q 766 1800 1228 2134 
z
M 1719 2469 
Q 2094 2806 2194 3001 
Q 2294 3197 2294 3444 
Q 2294 3772 2109 3958 
Q 1925 4144 1606 4144 
Q 1288 4144 1088 3959 
Q 888 3775 888 3528 
Q 888 3366 970 3203 
Q 1053 3041 1206 2894 
L 1719 2469 
z
M 1375 2016 
Q 1116 1797 991 1539 
Q 866 1281 866 981 
Q 866 578 1086 336 
Q 1306 94 1647 94 
Q 1984 94 2187 284 
Q 2391 475 2391 747 
Q 2391 972 2272 1150 
Q 2050 1481 1375 2016 
z
" id="TimesNewRomanPSMT-38" transform="scale(0.015625)"/>
      <path d="M 1794 4444 
L 259 -88 
L 9 -88 
L 1544 4444 
L 1794 4444 
z
" id="TimesNewRomanPSMT-2f" transform="scale(0.015625)"/>
     </defs>
     <use xlink:href="#TimesNewRomanPSMT-56"/>
     <use x="72.216797" xlink:href="#TimesNewRomanPSMT-73"/>
     <use x="111.132812" xlink:href="#TimesNewRomanPSMT-3a"/>
     <use x="138.916016" xlink:href="#TimesNewRomanPSMT-20"/>
     <use x="163.916016" xlink:href="#TimesNewRomanPSMT-33"/>
     <use x="213.916016" xlink:href="#TimesNewRomanPSMT-31"/>
     <use x="263.916016" xlink:href="#TimesNewRomanPSMT-32"/>
     <use x="313.916016" xlink:href="#TimesNewRomanPSMT-2e"/>
     <use x="338.916016" xlink:href="#TimesNewRomanPSMT-32"/>
     <use x="388.916016" xlink:href="#TimesNewRomanPSMT-38"/>
     <use x="438.916016" xlink:href="#TimesNewRomanPSMT-6d"/>
     <use x="516.699219" xlink:href="#TimesNewRomanPSMT-2f"/>
     <use x="544.482422" xlink:href="#TimesNewRomanPSMT-73"/>
    </g>
   </g>
  </g>
 </g>
 <defs>
  <clipPath id="p56f92aea03">
   <rect height="332.64" width="334.8" x="63.336875" y="7.2"/>
  </clipPath>
 </defs>
</svg>
