<?xml version="1.0" encoding="utf-8" standalone="no"?>
<!DOCTYPE svg PUBLIC "-//W3C//DTD SVG 1.1//EN"
  "http://www.w3.org/Graphics/SVG/1.1/DTD/svg11.dtd">
<svg height="383.471875pt" version="1.1" viewBox="0 0 421.086875 383.471875" width="421.086875pt" xmlns="http://www.w3.org/2000/svg" xmlns:xlink="http://www.w3.org/1999/xlink">
 <metadata>
  <rdf:RDF xmlns:cc="http://creativecommons.org/ns#" xmlns:dc="http://purl.org/dc/elements/1.1/" xmlns:rdf="http://www.w3.org/1999/02/22-rdf-syntax-ns#">
   <cc:Work>
    <dc:type rdf:resource="http://purl.org/dc/dcmitype/StillImage"/>
    <dc:date>2021-06-11T14:39:38.688128</dc:date>
    <dc:format>image/svg+xml</dc:format>
    <dc:creator>
     <cc:Agent>
      <dc:title>Matplotlib v3.4.2, https://matplotlib.org/</dc:title>
     </cc:Agent>
    </dc:creator>
   </cc:Work>
  </rdf:RDF>
 </metadata>
 <defs>
  <style type="text/css">*{stroke-linecap:butt;stroke-linejoin:round;}</style>
 </defs>
 <g id="figure_1">
  <g id="patch_1">
   <path d="M 0 383.471875 
L 421.086875 383.471875 
L 421.086875 0 
L 0 0 
z
" style="fill:#ffffff;"/>
  </g>
  <g id="axes_1">
   <g id="patch_2">
    <path d="M 63.336875 339.84 
L 398.136875 339.84 
L 398.136875 7.2 
L 63.336875 7.2 
z
" style="fill:#ffffff;"/>
   </g>
   <g id="matplotlib.axis_1">
    <g id="xtick_1">
     <g id="line2d_1">
      <path clip-path="url(#pa000493173)" d="M 93.773239 339.84 
L 93.773239 7.2 
" style="fill:none;stroke:#000000;stroke-dasharray:0.5,0.825;stroke-dashoffset:0;stroke-width:0.5;"/>
     </g>
     <g id="line2d_2">
      <defs>
       <path d="M 0 0 
L 0 3.5 
" id="me0fb2614c5" style="stroke:#000000;stroke-width:0.8;"/>
      </defs>
      <g>
       <use style="stroke:#000000;stroke-width:0.8;" x="93.773239" xlink:href="#me0fb2614c5" y="339.84"/>
      </g>
     </g>
     <g id="text_1">
      <!-- 0.000 -->
      <g transform="translate(78.023239 356.56125)scale(0.14 -0.14)">
       <defs>
        <path d="M 231 2094 
Q 231 2819 450 3342 
Q 669 3866 1031 4122 
Q 1313 4325 1613 4325 
Q 2100 4325 2488 3828 
Q 2972 3213 2972 2159 
Q 2972 1422 2759 906 
Q 2547 391 2217 158 
Q 1888 -75 1581 -75 
Q 975 -75 572 641 
Q 231 1244 231 2094 
z
M 844 2016 
Q 844 1141 1059 588 
Q 1238 122 1591 122 
Q 1759 122 1940 273 
Q 2122 425 2216 781 
Q 2359 1319 2359 2297 
Q 2359 3022 2209 3506 
Q 2097 3866 1919 4016 
Q 1791 4119 1609 4119 
Q 1397 4119 1231 3928 
Q 1006 3669 925 3112 
Q 844 2556 844 2016 
z
" id="TimesNewRomanPSMT-30" transform="scale(0.015625)"/>
        <path d="M 800 606 
Q 947 606 1047 504 
Q 1147 403 1147 259 
Q 1147 116 1045 14 
Q 944 -88 800 -88 
Q 656 -88 554 14 
Q 453 116 453 259 
Q 453 406 554 506 
Q 656 606 800 606 
z
" id="TimesNewRomanPSMT-2e" transform="scale(0.015625)"/>
       </defs>
       <use xlink:href="#TimesNewRomanPSMT-30"/>
       <use x="50" xlink:href="#TimesNewRomanPSMT-2e"/>
       <use x="75" xlink:href="#TimesNewRomanPSMT-30"/>
       <use x="125" xlink:href="#TimesNewRomanPSMT-30"/>
       <use x="175" xlink:href="#TimesNewRomanPSMT-30"/>
      </g>
     </g>
    </g>
    <g id="xtick_2">
     <g id="line2d_3">
      <path clip-path="url(#pa000493173)" d="M 154.645966 339.84 
L 154.645966 7.2 
" style="fill:none;stroke:#000000;stroke-dasharray:0.5,0.825;stroke-dashoffset:0;stroke-width:0.5;"/>
     </g>
     <g id="line2d_4">
      <g>
       <use style="stroke:#000000;stroke-width:0.8;" x="154.645966" xlink:href="#me0fb2614c5" y="339.84"/>
      </g>
     </g>
     <g id="text_2">
      <!-- 0.001 -->
      <g transform="translate(138.895966 356.56125)scale(0.14 -0.14)">
       <defs>
        <path d="M 750 3822 
L 1781 4325 
L 1884 4325 
L 1884 747 
Q 1884 391 1914 303 
Q 1944 216 2037 169 
Q 2131 122 2419 116 
L 2419 0 
L 825 0 
L 825 116 
Q 1125 122 1212 167 
Q 1300 213 1334 289 
Q 1369 366 1369 747 
L 1369 3034 
Q 1369 3497 1338 3628 
Q 1316 3728 1258 3775 
Q 1200 3822 1119 3822 
Q 1003 3822 797 3725 
L 750 3822 
z
" id="TimesNewRomanPSMT-31" transform="scale(0.015625)"/>
       </defs>
       <use xlink:href="#TimesNewRomanPSMT-30"/>
       <use x="50" xlink:href="#TimesNewRomanPSMT-2e"/>
       <use x="75" xlink:href="#TimesNewRomanPSMT-30"/>
       <use x="125" xlink:href="#TimesNewRomanPSMT-30"/>
       <use x="175" xlink:href="#TimesNewRomanPSMT-31"/>
      </g>
     </g>
    </g>
    <g id="xtick_3">
     <g id="line2d_5">
      <path clip-path="url(#pa000493173)" d="M 215.518693 339.84 
L 215.518693 7.2 
" style="fill:none;stroke:#000000;stroke-dasharray:0.5,0.825;stroke-dashoffset:0;stroke-width:0.5;"/>
     </g>
     <g id="line2d_6">
      <g>
       <use style="stroke:#000000;stroke-width:0.8;" x="215.518693" xlink:href="#me0fb2614c5" y="339.84"/>
      </g>
     </g>
     <g id="text_3">
      <!-- 0.002 -->
      <g transform="translate(199.768693 356.56125)scale(0.14 -0.14)">
       <defs>
        <path d="M 2934 816 
L 2638 0 
L 138 0 
L 138 116 
Q 1241 1122 1691 1759 
Q 2141 2397 2141 2925 
Q 2141 3328 1894 3587 
Q 1647 3847 1303 3847 
Q 991 3847 742 3664 
Q 494 3481 375 3128 
L 259 3128 
Q 338 3706 661 4015 
Q 984 4325 1469 4325 
Q 1984 4325 2329 3994 
Q 2675 3663 2675 3213 
Q 2675 2891 2525 2569 
Q 2294 2063 1775 1497 
Q 997 647 803 472 
L 1909 472 
Q 2247 472 2383 497 
Q 2519 522 2628 598 
Q 2738 675 2819 816 
L 2934 816 
z
" id="TimesNewRomanPSMT-32" transform="scale(0.015625)"/>
       </defs>
       <use xlink:href="#TimesNewRomanPSMT-30"/>
       <use x="50" xlink:href="#TimesNewRomanPSMT-2e"/>
       <use x="75" xlink:href="#TimesNewRomanPSMT-30"/>
       <use x="125" xlink:href="#TimesNewRomanPSMT-30"/>
       <use x="175" xlink:href="#TimesNewRomanPSMT-32"/>
      </g>
     </g>
    </g>
    <g id="xtick_4">
     <g id="line2d_7">
      <path clip-path="url(#pa000493173)" d="M 276.39142 339.84 
L 276.39142 7.2 
" style="fill:none;stroke:#000000;stroke-dasharray:0.5,0.825;stroke-dashoffset:0;stroke-width:0.5;"/>
     </g>
     <g id="line2d_8">
      <g>
       <use style="stroke:#000000;stroke-width:0.8;" x="276.39142" xlink:href="#me0fb2614c5" y="339.84"/>
      </g>
     </g>
     <g id="text_4">
      <!-- 0.003 -->
      <g transform="translate(260.64142 356.56125)scale(0.14 -0.14)">
       <defs>
        <path d="M 325 3431 
Q 506 3859 782 4092 
Q 1059 4325 1472 4325 
Q 1981 4325 2253 3994 
Q 2459 3747 2459 3466 
Q 2459 3003 1878 2509 
Q 2269 2356 2469 2072 
Q 2669 1788 2669 1403 
Q 2669 853 2319 450 
Q 1863 -75 997 -75 
Q 569 -75 414 31 
Q 259 138 259 259 
Q 259 350 332 419 
Q 406 488 509 488 
Q 588 488 669 463 
Q 722 447 909 348 
Q 1097 250 1169 231 
Q 1284 197 1416 197 
Q 1734 197 1970 444 
Q 2206 691 2206 1028 
Q 2206 1275 2097 1509 
Q 2016 1684 1919 1775 
Q 1784 1900 1550 2001 
Q 1316 2103 1072 2103 
L 972 2103 
L 972 2197 
Q 1219 2228 1467 2375 
Q 1716 2522 1828 2728 
Q 1941 2934 1941 3181 
Q 1941 3503 1739 3701 
Q 1538 3900 1238 3900 
Q 753 3900 428 3381 
L 325 3431 
z
" id="TimesNewRomanPSMT-33" transform="scale(0.015625)"/>
       </defs>
       <use xlink:href="#TimesNewRomanPSMT-30"/>
       <use x="50" xlink:href="#TimesNewRomanPSMT-2e"/>
       <use x="75" xlink:href="#TimesNewRomanPSMT-30"/>
       <use x="125" xlink:href="#TimesNewRomanPSMT-30"/>
       <use x="175" xlink:href="#TimesNewRomanPSMT-33"/>
      </g>
     </g>
    </g>
    <g id="xtick_5">
     <g id="line2d_9">
      <path clip-path="url(#pa000493173)" d="M 337.264148 339.84 
L 337.264148 7.2 
" style="fill:none;stroke:#000000;stroke-dasharray:0.5,0.825;stroke-dashoffset:0;stroke-width:0.5;"/>
     </g>
     <g id="line2d_10">
      <g>
       <use style="stroke:#000000;stroke-width:0.8;" x="337.264148" xlink:href="#me0fb2614c5" y="339.84"/>
      </g>
     </g>
     <g id="text_5">
      <!-- 0.004 -->
      <g transform="translate(321.514148 356.56125)scale(0.14 -0.14)">
       <defs>
        <path d="M 2978 1563 
L 2978 1119 
L 2409 1119 
L 2409 0 
L 1894 0 
L 1894 1119 
L 100 1119 
L 100 1519 
L 2066 4325 
L 2409 4325 
L 2409 1563 
L 2978 1563 
z
M 1894 1563 
L 1894 3666 
L 406 1563 
L 1894 1563 
z
" id="TimesNewRomanPSMT-34" transform="scale(0.015625)"/>
       </defs>
       <use xlink:href="#TimesNewRomanPSMT-30"/>
       <use x="50" xlink:href="#TimesNewRomanPSMT-2e"/>
       <use x="75" xlink:href="#TimesNewRomanPSMT-30"/>
       <use x="125" xlink:href="#TimesNewRomanPSMT-30"/>
       <use x="175" xlink:href="#TimesNewRomanPSMT-34"/>
      </g>
     </g>
    </g>
    <g id="xtick_6">
     <g id="line2d_11">
      <path clip-path="url(#pa000493173)" d="M 398.136875 339.84 
L 398.136875 7.2 
" style="fill:none;stroke:#000000;stroke-dasharray:0.5,0.825;stroke-dashoffset:0;stroke-width:0.5;"/>
     </g>
     <g id="line2d_12">
      <g>
       <use style="stroke:#000000;stroke-width:0.8;" x="398.136875" xlink:href="#me0fb2614c5" y="339.84"/>
      </g>
     </g>
     <g id="text_6">
      <!-- 0.005 -->
      <g transform="translate(382.386875 356.56125)scale(0.14 -0.14)">
       <defs>
        <path d="M 2778 4238 
L 2534 3706 
L 1259 3706 
L 981 3138 
Q 1809 3016 2294 2522 
Q 2709 2097 2709 1522 
Q 2709 1188 2573 903 
Q 2438 619 2231 419 
Q 2025 219 1772 97 
Q 1413 -75 1034 -75 
Q 653 -75 479 54 
Q 306 184 306 341 
Q 306 428 378 495 
Q 450 563 559 563 
Q 641 563 702 538 
Q 763 513 909 409 
Q 1144 247 1384 247 
Q 1750 247 2026 523 
Q 2303 800 2303 1197 
Q 2303 1581 2056 1914 
Q 1809 2247 1375 2428 
Q 1034 2569 447 2591 
L 1259 4238 
L 2778 4238 
z
" id="TimesNewRomanPSMT-35" transform="scale(0.015625)"/>
       </defs>
       <use xlink:href="#TimesNewRomanPSMT-30"/>
       <use x="50" xlink:href="#TimesNewRomanPSMT-2e"/>
       <use x="75" xlink:href="#TimesNewRomanPSMT-30"/>
       <use x="125" xlink:href="#TimesNewRomanPSMT-30"/>
       <use x="175" xlink:href="#TimesNewRomanPSMT-35"/>
      </g>
     </g>
    </g>
    <g id="text_7">
     <!-- Time (sec) -->
     <g transform="translate(200.858906 373.277188)scale(0.14 -0.14)">
      <defs>
       <path d="M 3703 4238 
L 3750 3244 
L 3631 3244 
Q 3597 3506 3538 3619 
Q 3441 3800 3280 3886 
Q 3119 3972 2856 3972 
L 2259 3972 
L 2259 734 
Q 2259 344 2344 247 
Q 2463 116 2709 116 
L 2856 116 
L 2856 0 
L 1059 0 
L 1059 116 
L 1209 116 
Q 1478 116 1591 278 
Q 1659 378 1659 734 
L 1659 3972 
L 1150 3972 
Q 853 3972 728 3928 
Q 566 3869 450 3700 
Q 334 3531 313 3244 
L 194 3244 
L 244 4238 
L 3703 4238 
z
" id="TimesNewRomanPSMT-54" transform="scale(0.015625)"/>
       <path d="M 928 4444 
Q 1059 4444 1151 4351 
Q 1244 4259 1244 4128 
Q 1244 3997 1151 3903 
Q 1059 3809 928 3809 
Q 797 3809 703 3903 
Q 609 3997 609 4128 
Q 609 4259 701 4351 
Q 794 4444 928 4444 
z
M 1188 2947 
L 1188 647 
Q 1188 378 1227 289 
Q 1266 200 1342 156 
Q 1419 113 1622 113 
L 1622 0 
L 231 0 
L 231 113 
Q 441 113 512 153 
Q 584 194 626 287 
Q 669 381 669 647 
L 669 1750 
Q 669 2216 641 2353 
Q 619 2453 572 2492 
Q 525 2531 444 2531 
Q 356 2531 231 2484 
L 188 2597 
L 1050 2947 
L 1188 2947 
z
" id="TimesNewRomanPSMT-69" transform="scale(0.015625)"/>
       <path d="M 1050 2338 
Q 1363 2650 1419 2697 
Q 1559 2816 1721 2881 
Q 1884 2947 2044 2947 
Q 2313 2947 2506 2790 
Q 2700 2634 2766 2338 
Q 3088 2713 3309 2830 
Q 3531 2947 3766 2947 
Q 3994 2947 4170 2830 
Q 4347 2713 4450 2447 
Q 4519 2266 4519 1878 
L 4519 647 
Q 4519 378 4559 278 
Q 4591 209 4675 161 
Q 4759 113 4950 113 
L 4950 0 
L 3538 0 
L 3538 113 
L 3597 113 
Q 3781 113 3884 184 
Q 3956 234 3988 344 
Q 4000 397 4000 647 
L 4000 1878 
Q 4000 2228 3916 2372 
Q 3794 2572 3525 2572 
Q 3359 2572 3192 2489 
Q 3025 2406 2788 2181 
L 2781 2147 
L 2788 2013 
L 2788 647 
Q 2788 353 2820 281 
Q 2853 209 2943 161 
Q 3034 113 3253 113 
L 3253 0 
L 1806 0 
L 1806 113 
Q 2044 113 2133 169 
Q 2222 225 2256 338 
Q 2272 391 2272 647 
L 2272 1878 
Q 2272 2228 2169 2381 
Q 2031 2581 1784 2581 
Q 1616 2581 1450 2491 
Q 1191 2353 1050 2181 
L 1050 647 
Q 1050 366 1089 281 
Q 1128 197 1204 155 
Q 1281 113 1516 113 
L 1516 0 
L 100 0 
L 100 113 
Q 297 113 375 155 
Q 453 197 493 289 
Q 534 381 534 647 
L 534 1741 
Q 534 2213 506 2350 
Q 484 2453 437 2492 
Q 391 2531 309 2531 
Q 222 2531 100 2484 
L 53 2597 
L 916 2947 
L 1050 2947 
L 1050 2338 
z
" id="TimesNewRomanPSMT-6d" transform="scale(0.015625)"/>
       <path d="M 681 1784 
Q 678 1147 991 784 
Q 1303 422 1725 422 
Q 2006 422 2214 576 
Q 2422 731 2563 1106 
L 2659 1044 
Q 2594 616 2278 264 
Q 1963 -88 1488 -88 
Q 972 -88 605 314 
Q 238 716 238 1394 
Q 238 2128 614 2539 
Q 991 2950 1559 2950 
Q 2041 2950 2350 2633 
Q 2659 2316 2659 1784 
L 681 1784 
z
M 681 1966 
L 2006 1966 
Q 1991 2241 1941 2353 
Q 1863 2528 1708 2628 
Q 1553 2728 1384 2728 
Q 1125 2728 920 2526 
Q 716 2325 681 1966 
z
" id="TimesNewRomanPSMT-65" transform="scale(0.015625)"/>
       <path id="TimesNewRomanPSMT-20" transform="scale(0.015625)"/>
       <path d="M 1988 -1253 
L 1988 -1369 
Q 1516 -1131 1200 -813 
Q 750 -359 506 256 
Q 263 872 263 1534 
Q 263 2503 741 3301 
Q 1219 4100 1988 4444 
L 1988 4313 
Q 1603 4100 1356 3731 
Q 1109 3363 987 2797 
Q 866 2231 866 1616 
Q 866 947 969 400 
Q 1050 -31 1165 -292 
Q 1281 -553 1476 -793 
Q 1672 -1034 1988 -1253 
z
" id="TimesNewRomanPSMT-28" transform="scale(0.015625)"/>
       <path d="M 2050 2947 
L 2050 1972 
L 1947 1972 
Q 1828 2431 1642 2597 
Q 1456 2763 1169 2763 
Q 950 2763 815 2647 
Q 681 2531 681 2391 
Q 681 2216 781 2091 
Q 878 1963 1175 1819 
L 1631 1597 
Q 2266 1288 2266 781 
Q 2266 391 1970 151 
Q 1675 -88 1309 -88 
Q 1047 -88 709 6 
Q 606 38 541 38 
Q 469 38 428 -44 
L 325 -44 
L 325 978 
L 428 978 
Q 516 541 762 319 
Q 1009 97 1316 97 
Q 1531 97 1667 223 
Q 1803 350 1803 528 
Q 1803 744 1651 891 
Q 1500 1038 1047 1263 
Q 594 1488 453 1669 
Q 313 1847 313 2119 
Q 313 2472 555 2709 
Q 797 2947 1181 2947 
Q 1350 2947 1591 2875 
Q 1750 2828 1803 2828 
Q 1853 2828 1881 2850 
Q 1909 2872 1947 2947 
L 2050 2947 
z
" id="TimesNewRomanPSMT-73" transform="scale(0.015625)"/>
       <path d="M 2631 1088 
Q 2516 522 2178 217 
Q 1841 -88 1431 -88 
Q 944 -88 581 321 
Q 219 731 219 1428 
Q 219 2103 620 2525 
Q 1022 2947 1584 2947 
Q 2006 2947 2278 2723 
Q 2550 2500 2550 2259 
Q 2550 2141 2473 2067 
Q 2397 1994 2259 1994 
Q 2075 1994 1981 2113 
Q 1928 2178 1911 2362 
Q 1894 2547 1784 2644 
Q 1675 2738 1481 2738 
Q 1169 2738 978 2506 
Q 725 2200 725 1697 
Q 725 1184 976 792 
Q 1228 400 1656 400 
Q 1963 400 2206 609 
Q 2378 753 2541 1131 
L 2631 1088 
z
" id="TimesNewRomanPSMT-63" transform="scale(0.015625)"/>
       <path d="M 144 4313 
L 144 4444 
Q 619 4209 934 3891 
Q 1381 3434 1625 2820 
Q 1869 2206 1869 1541 
Q 1869 572 1392 -226 
Q 916 -1025 144 -1369 
L 144 -1253 
Q 528 -1038 776 -670 
Q 1025 -303 1145 264 
Q 1266 831 1266 1447 
Q 1266 2113 1163 2663 
Q 1084 3094 967 3353 
Q 850 3613 656 3853 
Q 463 4094 144 4313 
z
" id="TimesNewRomanPSMT-29" transform="scale(0.015625)"/>
      </defs>
      <use xlink:href="#TimesNewRomanPSMT-54"/>
      <use x="57.583984" xlink:href="#TimesNewRomanPSMT-69"/>
      <use x="85.367188" xlink:href="#TimesNewRomanPSMT-6d"/>
      <use x="163.150391" xlink:href="#TimesNewRomanPSMT-65"/>
      <use x="207.535156" xlink:href="#TimesNewRomanPSMT-20"/>
      <use x="232.535156" xlink:href="#TimesNewRomanPSMT-28"/>
      <use x="265.835938" xlink:href="#TimesNewRomanPSMT-73"/>
      <use x="304.751953" xlink:href="#TimesNewRomanPSMT-65"/>
      <use x="349.136719" xlink:href="#TimesNewRomanPSMT-63"/>
      <use x="393.521484" xlink:href="#TimesNewRomanPSMT-29"/>
     </g>
    </g>
   </g>
   <g id="matplotlib.axis_2">
    <g id="ytick_1">
     <g id="line2d_13">
      <path clip-path="url(#pa000493173)" d="M 63.336875 313.519266 
L 398.136875 313.519266 
" style="fill:none;stroke:#000000;stroke-dasharray:0.5,0.825;stroke-dashoffset:0;stroke-width:0.5;"/>
     </g>
     <g id="line2d_14">
      <defs>
       <path d="M 0 0 
L -3.5 0 
" id="m0627d7ee75" style="stroke:#000000;stroke-width:0.8;"/>
      </defs>
      <g>
       <use style="stroke:#000000;stroke-width:0.8;" x="63.336875" xlink:href="#m0627d7ee75" y="313.519266"/>
      </g>
     </g>
     <g id="text_8">
      <!-- −0.06 -->
      <g transform="translate(23.942188 318.379891)scale(0.14 -0.14)">
       <defs>
        <path d="M 3484 2000 
L 116 2000 
L 116 2256 
L 3484 2256 
L 3484 2000 
z
" id="TimesNewRomanPSMT-2212" transform="scale(0.015625)"/>
        <path d="M 2869 4325 
L 2869 4209 
Q 2456 4169 2195 4045 
Q 1934 3922 1679 3669 
Q 1425 3416 1258 3105 
Q 1091 2794 978 2366 
Q 1428 2675 1881 2675 
Q 2316 2675 2634 2325 
Q 2953 1975 2953 1425 
Q 2953 894 2631 456 
Q 2244 -75 1606 -75 
Q 1172 -75 869 213 
Q 275 772 275 1663 
Q 275 2231 503 2743 
Q 731 3256 1154 3653 
Q 1578 4050 1965 4187 
Q 2353 4325 2688 4325 
L 2869 4325 
z
M 925 2138 
Q 869 1716 869 1456 
Q 869 1156 980 804 
Q 1091 453 1309 247 
Q 1469 100 1697 100 
Q 1969 100 2183 356 
Q 2397 613 2397 1088 
Q 2397 1622 2184 2012 
Q 1972 2403 1581 2403 
Q 1463 2403 1327 2353 
Q 1191 2303 925 2138 
z
" id="TimesNewRomanPSMT-36" transform="scale(0.015625)"/>
       </defs>
       <use xlink:href="#TimesNewRomanPSMT-2212"/>
       <use x="56.396484" xlink:href="#TimesNewRomanPSMT-30"/>
       <use x="106.396484" xlink:href="#TimesNewRomanPSMT-2e"/>
       <use x="131.396484" xlink:href="#TimesNewRomanPSMT-30"/>
       <use x="181.396484" xlink:href="#TimesNewRomanPSMT-36"/>
      </g>
     </g>
    </g>
    <g id="ytick_2">
     <g id="line2d_15">
      <path clip-path="url(#pa000493173)" d="M 63.336875 262.007415 
L 398.136875 262.007415 
" style="fill:none;stroke:#000000;stroke-dasharray:0.5,0.825;stroke-dashoffset:0;stroke-width:0.5;"/>
     </g>
     <g id="line2d_16">
      <g>
       <use style="stroke:#000000;stroke-width:0.8;" x="63.336875" xlink:href="#m0627d7ee75" y="262.007415"/>
      </g>
     </g>
     <g id="text_9">
      <!-- −0.04 -->
      <g transform="translate(23.942188 266.86804)scale(0.14 -0.14)">
       <use xlink:href="#TimesNewRomanPSMT-2212"/>
       <use x="56.396484" xlink:href="#TimesNewRomanPSMT-30"/>
       <use x="106.396484" xlink:href="#TimesNewRomanPSMT-2e"/>
       <use x="131.396484" xlink:href="#TimesNewRomanPSMT-30"/>
       <use x="181.396484" xlink:href="#TimesNewRomanPSMT-34"/>
      </g>
     </g>
    </g>
    <g id="ytick_3">
     <g id="line2d_17">
      <path clip-path="url(#pa000493173)" d="M 63.336875 210.495563 
L 398.136875 210.495563 
" style="fill:none;stroke:#000000;stroke-dasharray:0.5,0.825;stroke-dashoffset:0;stroke-width:0.5;"/>
     </g>
     <g id="line2d_18">
      <g>
       <use style="stroke:#000000;stroke-width:0.8;" x="63.336875" xlink:href="#m0627d7ee75" y="210.495563"/>
      </g>
     </g>
     <g id="text_10">
      <!-- −0.02 -->
      <g transform="translate(23.942188 215.356188)scale(0.14 -0.14)">
       <use xlink:href="#TimesNewRomanPSMT-2212"/>
       <use x="56.396484" xlink:href="#TimesNewRomanPSMT-30"/>
       <use x="106.396484" xlink:href="#TimesNewRomanPSMT-2e"/>
       <use x="131.396484" xlink:href="#TimesNewRomanPSMT-30"/>
       <use x="181.396484" xlink:href="#TimesNewRomanPSMT-32"/>
      </g>
     </g>
    </g>
    <g id="ytick_4">
     <g id="line2d_19">
      <path clip-path="url(#pa000493173)" d="M 63.336875 158.983712 
L 398.136875 158.983712 
" style="fill:none;stroke:#000000;stroke-dasharray:0.5,0.825;stroke-dashoffset:0;stroke-width:0.5;"/>
     </g>
     <g id="line2d_20">
      <g>
       <use style="stroke:#000000;stroke-width:0.8;" x="63.336875" xlink:href="#m0627d7ee75" y="158.983712"/>
      </g>
     </g>
     <g id="text_11">
      <!-- 0.00 -->
      <g transform="translate(31.836875 163.844337)scale(0.14 -0.14)">
       <use xlink:href="#TimesNewRomanPSMT-30"/>
       <use x="50" xlink:href="#TimesNewRomanPSMT-2e"/>
       <use x="75" xlink:href="#TimesNewRomanPSMT-30"/>
       <use x="125" xlink:href="#TimesNewRomanPSMT-30"/>
      </g>
     </g>
    </g>
    <g id="ytick_5">
     <g id="line2d_21">
      <path clip-path="url(#pa000493173)" d="M 63.336875 107.471861 
L 398.136875 107.471861 
" style="fill:none;stroke:#000000;stroke-dasharray:0.5,0.825;stroke-dashoffset:0;stroke-width:0.5;"/>
     </g>
     <g id="line2d_22">
      <g>
       <use style="stroke:#000000;stroke-width:0.8;" x="63.336875" xlink:href="#m0627d7ee75" y="107.471861"/>
      </g>
     </g>
     <g id="text_12">
      <!-- 0.02 -->
      <g transform="translate(31.836875 112.332486)scale(0.14 -0.14)">
       <use xlink:href="#TimesNewRomanPSMT-30"/>
       <use x="50" xlink:href="#TimesNewRomanPSMT-2e"/>
       <use x="75" xlink:href="#TimesNewRomanPSMT-30"/>
       <use x="125" xlink:href="#TimesNewRomanPSMT-32"/>
      </g>
     </g>
    </g>
    <g id="ytick_6">
     <g id="line2d_23">
      <path clip-path="url(#pa000493173)" d="M 63.336875 55.96001 
L 398.136875 55.96001 
" style="fill:none;stroke:#000000;stroke-dasharray:0.5,0.825;stroke-dashoffset:0;stroke-width:0.5;"/>
     </g>
     <g id="line2d_24">
      <g>
       <use style="stroke:#000000;stroke-width:0.8;" x="63.336875" xlink:href="#m0627d7ee75" y="55.96001"/>
      </g>
     </g>
     <g id="text_13">
      <!-- 0.04 -->
      <g transform="translate(31.836875 60.820635)scale(0.14 -0.14)">
       <use xlink:href="#TimesNewRomanPSMT-30"/>
       <use x="50" xlink:href="#TimesNewRomanPSMT-2e"/>
       <use x="75" xlink:href="#TimesNewRomanPSMT-30"/>
       <use x="125" xlink:href="#TimesNewRomanPSMT-34"/>
      </g>
     </g>
    </g>
    <g id="text_14">
     <!-- Volatage (V) -->
     <g transform="translate(16.92125 209.352344)rotate(-90)scale(0.14 -0.14)">
      <defs>
       <path d="M 4544 4238 
L 4544 4122 
Q 4319 4081 4203 3978 
Q 4038 3825 3909 3509 
L 2431 -97 
L 2316 -97 
L 728 3556 
Q 606 3838 556 3900 
Q 478 3997 364 4051 
Q 250 4106 56 4122 
L 56 4238 
L 1788 4238 
L 1788 4122 
Q 1494 4094 1406 4022 
Q 1319 3950 1319 3838 
Q 1319 3681 1463 3350 
L 2541 866 
L 3541 3319 
Q 3688 3681 3688 3822 
Q 3688 3913 3597 3995 
Q 3506 4078 3291 4113 
Q 3275 4116 3238 4122 
L 3238 4238 
L 4544 4238 
z
" id="TimesNewRomanPSMT-56" transform="scale(0.015625)"/>
       <path d="M 1600 2947 
Q 2250 2947 2644 2453 
Q 2978 2031 2978 1484 
Q 2978 1100 2793 706 
Q 2609 313 2286 112 
Q 1963 -88 1566 -88 
Q 919 -88 538 428 
Q 216 863 216 1403 
Q 216 1797 411 2186 
Q 606 2575 925 2761 
Q 1244 2947 1600 2947 
z
M 1503 2744 
Q 1338 2744 1170 2645 
Q 1003 2547 900 2300 
Q 797 2053 797 1666 
Q 797 1041 1045 587 
Q 1294 134 1700 134 
Q 2003 134 2200 384 
Q 2397 634 2397 1244 
Q 2397 2006 2069 2444 
Q 1847 2744 1503 2744 
z
" id="TimesNewRomanPSMT-6f" transform="scale(0.015625)"/>
       <path d="M 1184 4444 
L 1184 647 
Q 1184 378 1223 290 
Q 1263 203 1344 158 
Q 1425 113 1647 113 
L 1647 0 
L 244 0 
L 244 113 
Q 441 113 512 153 
Q 584 194 625 287 
Q 666 381 666 647 
L 666 3247 
Q 666 3731 644 3842 
Q 622 3953 573 3993 
Q 525 4034 450 4034 
Q 369 4034 244 3984 
L 191 4094 
L 1044 4444 
L 1184 4444 
z
" id="TimesNewRomanPSMT-6c" transform="scale(0.015625)"/>
       <path d="M 1822 413 
Q 1381 72 1269 19 
Q 1100 -59 909 -59 
Q 613 -59 420 144 
Q 228 347 228 678 
Q 228 888 322 1041 
Q 450 1253 767 1440 
Q 1084 1628 1822 1897 
L 1822 2009 
Q 1822 2438 1686 2597 
Q 1550 2756 1291 2756 
Q 1094 2756 978 2650 
Q 859 2544 859 2406 
L 866 2225 
Q 866 2081 792 2003 
Q 719 1925 600 1925 
Q 484 1925 411 2006 
Q 338 2088 338 2228 
Q 338 2497 613 2722 
Q 888 2947 1384 2947 
Q 1766 2947 2009 2819 
Q 2194 2722 2281 2516 
Q 2338 2381 2338 1966 
L 2338 994 
Q 2338 584 2353 492 
Q 2369 400 2405 369 
Q 2441 338 2488 338 
Q 2538 338 2575 359 
Q 2641 400 2828 588 
L 2828 413 
Q 2478 -56 2159 -56 
Q 2006 -56 1915 50 
Q 1825 156 1822 413 
z
M 1822 616 
L 1822 1706 
Q 1350 1519 1213 1441 
Q 966 1303 859 1153 
Q 753 1003 753 825 
Q 753 600 887 451 
Q 1022 303 1197 303 
Q 1434 303 1822 616 
z
" id="TimesNewRomanPSMT-61" transform="scale(0.015625)"/>
       <path d="M 1031 3803 
L 1031 2863 
L 1700 2863 
L 1700 2644 
L 1031 2644 
L 1031 788 
Q 1031 509 1111 412 
Q 1191 316 1316 316 
Q 1419 316 1516 380 
Q 1613 444 1666 569 
L 1788 569 
Q 1678 263 1478 108 
Q 1278 -47 1066 -47 
Q 922 -47 784 33 
Q 647 113 581 261 
Q 516 409 516 719 
L 516 2644 
L 63 2644 
L 63 2747 
Q 234 2816 414 2980 
Q 594 3144 734 3369 
Q 806 3488 934 3803 
L 1031 3803 
z
" id="TimesNewRomanPSMT-74" transform="scale(0.015625)"/>
       <path d="M 966 1044 
Q 703 1172 562 1401 
Q 422 1631 422 1909 
Q 422 2334 742 2640 
Q 1063 2947 1563 2947 
Q 1972 2947 2272 2747 
L 2878 2747 
Q 3013 2747 3034 2739 
Q 3056 2731 3066 2713 
Q 3084 2684 3084 2613 
Q 3084 2531 3069 2500 
Q 3059 2484 3036 2475 
Q 3013 2466 2878 2466 
L 2506 2466 
Q 2681 2241 2681 1891 
Q 2681 1491 2375 1206 
Q 2069 922 1553 922 
Q 1341 922 1119 984 
Q 981 866 932 777 
Q 884 688 884 625 
Q 884 572 936 522 
Q 988 472 1138 450 
Q 1225 438 1575 428 
Q 2219 413 2409 384 
Q 2700 344 2873 169 
Q 3047 -6 3047 -263 
Q 3047 -616 2716 -925 
Q 2228 -1381 1444 -1381 
Q 841 -1381 425 -1109 
Q 191 -953 191 -784 
Q 191 -709 225 -634 
Q 278 -519 444 -313 
Q 466 -284 763 25 
Q 600 122 533 198 
Q 466 275 466 372 
Q 466 481 555 628 
Q 644 775 966 1044 
z
M 1509 2797 
Q 1278 2797 1122 2612 
Q 966 2428 966 2047 
Q 966 1553 1178 1281 
Q 1341 1075 1591 1075 
Q 1828 1075 1981 1253 
Q 2134 1431 2134 1813 
Q 2134 2309 1919 2591 
Q 1759 2797 1509 2797 
z
M 934 0 
Q 788 -159 713 -296 
Q 638 -434 638 -550 
Q 638 -700 819 -813 
Q 1131 -1006 1722 -1006 
Q 2284 -1006 2551 -807 
Q 2819 -609 2819 -384 
Q 2819 -222 2659 -153 
Q 2497 -84 2016 -72 
Q 1313 -53 934 0 
z
" id="TimesNewRomanPSMT-67" transform="scale(0.015625)"/>
      </defs>
      <use xlink:href="#TimesNewRomanPSMT-56"/>
      <use x="59.341797" xlink:href="#TimesNewRomanPSMT-6f"/>
      <use x="109.341797" xlink:href="#TimesNewRomanPSMT-6c"/>
      <use x="137.125" xlink:href="#TimesNewRomanPSMT-61"/>
      <use x="181.509766" xlink:href="#TimesNewRomanPSMT-74"/>
      <use x="209.292969" xlink:href="#TimesNewRomanPSMT-61"/>
      <use x="253.677734" xlink:href="#TimesNewRomanPSMT-67"/>
      <use x="303.677734" xlink:href="#TimesNewRomanPSMT-65"/>
      <use x="348.0625" xlink:href="#TimesNewRomanPSMT-20"/>
      <use x="373.0625" xlink:href="#TimesNewRomanPSMT-28"/>
      <use x="406.363281" xlink:href="#TimesNewRomanPSMT-56"/>
      <use x="478.580078" xlink:href="#TimesNewRomanPSMT-29"/>
     </g>
    </g>
   </g>
   <g id="LineCollection_1">
    <path clip-path="url(#pa000493173)" d="M 78.555057 158.983712 
L 382.918693 158.983712 
" style="fill:none;stroke:#1f77b4;stroke-width:1.5;"/>
   </g>
   <g id="line2d_25">
    <path clip-path="url(#pa000493173)" d="M 78.555057 159.045011 
L 78.737675 159.077206 
L 78.920293 159.045011 
L 82.846584 158.948427 
L 82.96833 158.948427 
L 83.090075 158.948427 
L 83.21182 158.916232 
L 83.242257 158.948427 
L 112.978584 159.045011 
L 113.130766 159.077206 
L 113.282948 159.077206 
L 114.378657 159.173791 
L 114.591711 159.238181 
L 115.44393 159.334766 
L 115.626548 159.399155 
L 115.748293 159.366961 
L 115.77873 159.399155 
L 115.961348 159.463545 
L 116.11353 159.463545 
L 116.630948 159.56013 
L 116.813566 159.592325 
L 116.904875 159.592325 
L 116.935311 159.62452 
L 117.483166 159.68891 
L 117.635348 159.785494 
L 117.78753 159.753299 
L 117.970148 159.785494 
L 118.639748 159.882079 
L 118.822366 159.946469 
L 119.004984 159.914274 
L 119.157166 159.914274 
L 119.826766 159.978664 
L 119.948511 160.010859 
L 121.226839 160.107443 
L 121.409457 160.139638 
L 121.744257 160.236223 
L 121.957311 160.332808 
L 122.04862 160.332808 
L 122.079057 160.365003 
L 122.352984 160.493782 
L 122.535602 160.590367 
L 122.80953 160.751342 
L 122.839966 160.719147 
L 122.900839 160.815731 
L 123.38782 161.169875 
L 123.509566 161.26646 
L 125.092257 163.10157 
L 125.640111 164.035222 
L 125.700984 164.131806 
L 127.009748 167.158128 
L 129.292475 174.756126 
L 129.657711 176.108312 
L 131.544766 183.64192 
L 131.696948 184.221428 
L 132.396984 186.700437 
L 132.670911 187.505309 
L 133.036148 188.567741 
L 133.462257 189.565783 
L 133.675311 189.952122 
L 134.679711 191.819427 
L 134.740584 191.851622 
L 134.953639 192.205766 
L 135.014511 192.237961 
L 135.19713 192.49552 
L 135.897166 193.107223 
L 136.079784 193.042833 
L 136.20153 193.042833 
L 137.20593 191.819427 
L 138.088584 189.694563 
L 139.12342 186.056538 
L 139.54953 184.02826 
L 140.006075 181.613642 
L 142.745348 160.525977 
L 143.749748 151.125064 
L 146.184657 124.210122 
L 150.750111 72.376319 
L 151.450148 66.130505 
L 152.728475 56.246671 
L 153.428511 51.835974 
L 154.28073 47.908198 
L 154.737275 46.459424 
L 155.467748 45.139426 
L 155.61993 45.107236 
L 155.741675 45.010654 
L 156.350402 45.107236 
L 157.506984 47.811605 
L 158.237457 51.353048 
L 159.759275 63.393945 
L 160.733239 73.631926 
L 163.137711 108.209251 
L 164.111675 125.369139 
L 170.807675 257.722401 
L 173.333893 296.098728 
L 174.977457 312.357158 
L 176.04273 319.472233 
L 176.560148 321.629294 
L 177.199311 323.850748 
L 177.594984 324.462438 
L 177.777602 324.559018 
L 178.05153 324.72 
L 178.234148 324.6878 
L 178.325457 324.6878 
L 178.355893 324.65562 
L 178.660257 324.204892 
L 179.96902 319.729787 
L 180.516875 316.478109 
L 180.790802 314.868366 
L 181.825639 306.401101 
L 182.830039 295.808974 
L 183.804002 283.25296 
L 187.730293 219.217295 
L 190.408693 169.089822 
L 191.869639 141.949516 
L 193.482766 114.873599 
L 194.974148 94.429833 
L 197.530802 65.905143 
L 198.352584 59.852503 
L 198.748257 57.212523 
L 199.235239 54.379372 
L 199.47873 53.252547 
L 200.178766 49.807695 
L 200.574439 48.262331 
L 201.700584 45.010654 
L 203.039784 43.755047 
L 203.435457 43.819437 
L 203.557202 43.883827 
L 203.709384 43.883827 
L 204.16593 43.980409 
L 204.652911 44.62431 
L 204.987711 45.3326 
L 205.231202 45.751134 
L 205.444257 46.266252 
L 205.474693 46.266252 
L 205.83993 47.328689 
L 206.08342 48.10136 
L 206.387784 49.195986 
L 206.570402 49.807695 
L 208.640075 59.01543 
L 209.85753 66.033925 
L 211.683711 76.915804 
L 212.657675 82.614305 
L 213.388148 87.218171 
L 214.027311 91.145955 
L 214.818657 96.200556 
L 215.244766 99.033707 
L 218.80582 120.926242 
L 219.23193 123.21208 
L 219.779784 126.463766 
L 224.436548 150.513361 
L 224.92353 153.024564 
L 225.471384 155.857716 
L 225.654002 156.791368 
L 226.414911 161.39524 
L 228.575893 175.754168 
L 229.245493 181.130717 
L 229.793348 185.316057 
L 232.28913 207.369564 
L 233.567457 220.601674 
L 236.21542 247.484421 
L 237.98073 261.489208 
L 239.380802 269.666709 
L 239.56342 270.600361 
L 239.98953 272.274497 
L 240.506948 273.562295 
L 240.65913 273.884242 
L 241.115675 274.624733 
L 241.693966 274.52814 
L 241.937457 274.399358 
L 241.967893 274.431558 
L 242.028766 274.367168 
L 242.546184 273.658878 
L 243.185348 271.984742 
L 243.307093 271.694988 
L 244.34193 268.056964 
L 245.437639 261.68237 
L 247.050766 247.130277 
L 248.511711 230.517705 
L 249.881348 213.293432 
L 251.646657 189.501393 
L 252.803239 174.015644 
L 254.325057 154.602114 
L 255.481639 141.241228 
L 256.181675 133.739815 
L 258.190475 117.674556 
L 259.347057 111.042403 
L 260.138402 107.436576 
L 260.808002 105.086345 
L 261.538475 103.122456 
L 262.08633 102.188808 
L 262.177639 102.092221 
L 262.938548 101.448323 
L 263.364657 101.351741 
L 263.516839 101.351741 
L 264.33862 101.448323 
L 264.612548 101.577103 
L 264.734293 101.673685 
L 265.373457 102.220998 
L 265.403893 102.188808 
L 265.464766 102.253193 
L 265.67782 102.446368 
L 266.073493 103.025876 
L 266.590911 103.862944 
L 266.712657 103.959523 
L 266.956148 104.410254 
L 267.169202 104.764401 
L 267.595311 105.76244 
L 268.721457 108.402425 
L 269.269311 109.819001 
L 269.391057 110.108755 
L 270.060657 111.782888 
L 271.765093 117.545774 
L 273.195602 123.115495 
L 276.604475 133.57884 
L 277.000148 134.673467 
L 278.034984 137.603203 
L 278.40022 138.63344 
L 278.704584 139.470508 
L 279.648111 141.724151 
L 279.922039 142.400245 
L 280.348148 143.398287 
L 280.50033 143.720235 
L 281.565602 146.231439 
L 281.930839 147.036311 
L 284.244002 151.672378 
L 284.304875 151.736768 
L 284.578802 152.058717 
L 285.674511 153.056759 
L 286.465857 152.960174 
L 286.648475 152.831394 
L 287.744184 151.511403 
L 289.600802 147.35826 
L 289.87473 146.456803 
L 292.066148 139.856846 
L 292.279202 139.212949 
L 292.522693 138.504661 
L 292.857493 137.506619 
L 293.040111 137.152474 
L 293.80102 135.092001 
L 295.018475 132.773967 
L 295.840257 132.065679 
L 296.053311 131.969095 
L 296.23593 131.9369 
L 296.388111 131.9369 
L 296.57073 131.904705 
L 296.753348 132.00129 
L 296.783784 131.9369 
L 296.844657 132.00129 
L 297.788184 133.160306 
L 298.609966 135.124196 
L 299.15782 136.959306 
L 299.644802 138.858804 
L 301.410111 148.774836 
L 302.414511 155.857716 
L 304.971166 178.426345 
L 308.380039 209.81638 
L 310.449711 226.428952 
L 310.906257 229.390883 
L 311.393239 232.19184 
L 313.128111 239.049358 
L 314.162948 240.981044 
L 314.467311 241.142027 
L 314.954293 241.077637 
L 316.56742 237.407412 
L 317.115275 235.314746 
L 317.99793 231.129411 
L 318.545784 227.845528 
L 319.032766 224.690424 
L 320.037166 217.124624 
L 321.102439 208.464196 
L 322.076402 200.222297 
L 322.654693 195.135502 
L 326.459239 159.978664 
L 327.37233 152.412861 
L 329.015893 139.438312 
L 333.003057 114.841404 
L 333.611784 111.815086 
L 334.007457 110.012168 
L 335.40753 104.571229 
L 337.355457 98.743951 
L 338.481602 96.619087 
L 338.572911 96.522505 
L 338.846839 96.168358 
L 338.938148 96.071773 
L 340.00342 95.105929 
L 340.125166 95.009342 
L 341.00782 94.204469 
L 341.038257 94.236666 
L 341.09913 94.172274 
L 341.34262 94.075689 
L 341.494802 94.011297 
L 341.646984 93.946912 
L 341.890475 93.81813 
L 341.981784 93.850325 
L 342.01222 93.753738 
L 342.10353 93.785935 
L 342.255711 93.785935 
L 342.43833 93.721543 
L 342.468766 93.81813 
L 342.560075 93.753738 
L 342.77313 93.81813 
L 343.381857 93.914715 
L 343.68622 94.075689 
L 343.868839 94.172274 
L 344.812366 95.041536 
L 344.842802 95.009342 
L 344.903675 95.105929 
L 345.603711 96.007381 
L 345.908075 96.651282 
L 346.090693 97.005426 
L 348.12993 103.830746 
L 350.04742 112.362399 
L 350.747457 116.097008 
L 351.112693 118.060897 
L 351.538802 120.411123 
L 352.025784 122.922326 
L 352.39102 124.886215 
L 352.999748 127.880342 
L 353.364984 129.779841 
L 355.282475 139.341728 
L 355.83033 142.142685 
L 356.439057 145.297786 
L 360.304475 165.162044 
L 360.51753 166.192281 
L 361.278439 169.830305 
L 361.552366 171.150296 
L 361.887166 172.566872 
L 362.678511 176.204897 
L 363.013311 177.589278 
L 363.53073 179.746337 
L 367.517893 196.133544 
L 367.974439 197.936459 
L 369.009275 201.832043 
L 369.161457 202.411551 
L 369.861493 204.954949 
L 370.13542 205.888604 
L 370.348475 206.596889 
L 372.661639 213.583186 
L 372.752948 213.840746 
L 373.57473 216.126584 
L 373.726911 216.448528 
L 374.15302 217.446573 
L 375.24873 219.507049 
L 375.82702 220.279724 
L 376.16182 220.762648 
L 376.283566 220.827038 
L 376.435748 221.020205 
L 376.466184 220.98801 
L 376.58793 221.052402 
L 376.740111 221.181184 
L 376.861857 221.213379 
L 377.014039 221.309959 
L 377.16622 221.406546 
L 377.348839 221.535323 
L 377.653202 221.6963 
L 377.774948 221.664105 
L 377.805384 221.6963 
L 378.474984 221.631911 
L 378.657602 221.503133 
L 378.809784 221.503133 
L 380.027239 220.086558 
L 380.331602 219.474852 
L 381.305566 217.156818 
L 382.553457 212.842701 
L 382.918693 211.361733 
L 382.918693 211.361733 
" style="fill:none;stroke:#0000ff;stroke-linecap:square;stroke-width:1.5;"/>
   </g>
   <g id="line2d_26">
    <path clip-path="url(#pa000493173)" d="M 78.555057 158.971285 
L 78.768111 158.971285 
L 87.807711 158.8747 
L 88.051202 158.858603 
L 94.077602 158.778116 
L 94.26022 158.745921 
L 96.421202 158.649336 
L 96.69513 158.617141 
L 96.908184 158.617141 
L 100.560548 158.713726 
L 100.925784 158.810311 
L 101.04753 158.842505 
L 102.417166 159.679573 
L 103.360693 160.806395 
L 103.695493 161.402001 
L 104.243348 162.464433 
L 105.126002 164.589296 
L 105.917348 166.955622 
L 106.495639 168.919511 
L 106.860875 170.19121 
L 110.208875 182.167717 
L 112.00462 186.62671 
L 113.252511 188.429625 
L 113.982984 188.703282 
L 114.43953 188.606697 
L 114.804766 188.300845 
L 115.139566 187.850117 
L 116.11353 186.111592 
L 116.844002 183.809656 
L 117.209239 182.554055 
L 118.609311 176.147268 
L 119.431093 171.704371 
L 121.04422 161.675657 
L 122.961711 147.735263 
L 124.970511 132.684144 
L 126.15753 125.279315 
L 127.861966 116.007182 
L 129.566402 108.425279 
L 130.053384 107.024803 
L 131.149093 104.417015 
L 131.51433 103.869702 
L 131.879566 103.113122 
L 132.549166 101.632153 
L 132.975275 101.117037 
L 133.066584 101.052645 
L 133.705748 100.231677 
L 134.162293 99.909728 
L 134.557966 99.829241 
L 135.166693 99.34632 
L 135.77542 99.104856 
L 135.988475 99.169248 
L 136.231966 99.201443 
L 136.810257 98.992173 
L 137.845093 99.652169 
L 138.179893 99.990216 
L 138.423384 100.408749 
L 138.819057 101.503376 
L 139.945202 105.431155 
L 140.614802 108.328696 
L 141.771384 113.689146 
L 144.114984 129.271483 
L 145.362875 138.913859 
L 146.093348 144.676746 
L 149.745711 178.513594 
L 152.576293 204.430496 
L 154.250293 216.825533 
L 155.437311 223.666948 
L 156.685202 228.480089 
L 157.567857 230.508371 
L 157.993966 231.152264 
L 158.328766 231.345436 
L 158.54182 231.361533 
L 158.846184 231.313241 
L 159.424475 231.232756 
L 159.698402 230.991292 
L 159.88102 230.798125 
L 160.946293 228.91472 
L 161.31153 227.900581 
L 162.924657 221.525987 
L 164.446475 212.044587 
L 167.185748 189.427667 
L 168.981493 174.263866 
L 170.625057 162.110289 
L 172.055566 153.723515 
L 172.69473 150.922558 
L 173.912184 146.817708 
L 174.825275 144.708942 
L 175.251384 144.209921 
L 176.438402 144.258212 
L 177.138439 145.481619 
L 177.534111 146.302589 
L 177.868911 147.252339 
L 178.29502 148.926474 
L 179.360293 153.482053 
L 179.847275 155.703502 
L 181.429966 162.882966 
L 182.221311 167.197084 
L 183.012657 171.978028 
L 184.595348 180.574068 
L 186.482402 188.075481 
L 186.66502 188.542307 
L 187.547675 190.570586 
L 188.125966 191.343264 
L 188.612948 191.93887 
L 189.43473 192.260819 
L 189.799966 192.164234 
L 189.891275 192.099844 
L 190.043457 192.00326 
L 190.34782 191.552531 
L 191.44353 188.349138 
L 193.574075 180.058948 
L 196.343784 164.814661 
L 199.630911 141.457256 
L 202.461493 116.989126 
L 205.352948 94.935615 
L 205.992111 91.844904 
L 207.240002 87.015668 
L 208.031348 84.617148 
L 208.51833 83.232767 
L 209.43142 81.977163 
L 210.131457 81.31717 
L 210.161893 81.349364 
L 210.466257 81.445952 
L 211.257602 81.977163 
L 211.86633 83.136182 
L 213.266402 87.14445 
L 214.057748 90.009792 
L 215.031711 94.034158 
L 216.279602 100.489237 
L 218.13622 111.934526 
L 221.940766 135.372419 
L 223.888693 146.061128 
L 224.619166 150.053296 
L 225.83662 156.508375 
L 229.428111 173.072654 
L 231.254293 180.316509 
L 232.167384 184.115508 
L 232.989166 187.882312 
L 233.263093 189.073523 
L 236.915457 205.927557 
L 238.041602 209.694364 
L 239.015566 211.964102 
L 239.350366 212.479218 
L 240.080839 213.445068 
L 241.693966 214.990421 
L 242.424439 215.280175 
L 242.546184 215.296275 
L 242.972293 215.408957 
L 243.154911 215.425052 
L 246.807275 217.244069 
L 247.26382 217.340651 
L 247.68993 217.469434 
L 247.811675 217.517723 
L 248.085602 217.598211 
L 248.329093 217.71089 
L 248.663893 217.791383 
L 248.846511 217.839672 
L 249.02913 217.839672 
L 249.211748 217.871867 
L 250.855311 218.853812 
L 251.737966 219.948439 
L 252.316257 220.672824 
L 253.472839 222.057205 
L 255.116402 224.471826 
L 255.63382 225.180111 
L 256.029493 225.614742 
L 256.486039 225.968889 
L 257.30782 226.677174 
L 258.007857 226.934731 
L 258.768766 226.854246 
L 259.620984 225.791814 
L 260.047093 224.938647 
L 261.41673 220.238193 
L 262.208075 215.988465 
L 263.42553 206.925596 
L 265.403893 187.061341 
L 266.316984 175.181421 
L 267.747493 154.029367 
L 274.078257 55.271495 
L 275.082657 43.858395 
L 276.117493 34.505777 
L 277.213202 27.197531 
L 277.761057 24.863395 
L 278.339348 23.12487 
L 278.674148 22.545372 
L 279.252439 22.3361 
L 279.556802 22.497072 
L 279.648111 22.577562 
L 280.043784 23.14097 
L 280.74382 25.265831 
L 282.022148 31.86579 
L 282.813493 37.564294 
L 284.061384 49.025683 
L 285.978875 70.451388 
L 288.10942 97.720475 
L 290.20953 125.778336 
L 292.400948 153.304981 
L 294.257566 173.636066 
L 295.657639 186.642808 
L 297.027275 198.393949 
L 298.366475 208.825101 
L 300.436148 222.314765 
L 301.410111 227.369362 
L 303.114548 234.130293 
L 303.662402 235.273215 
L 303.966766 235.659556 
L 304.27113 235.836623 
L 304.697239 235.740041 
L 305.001602 235.579064 
L 305.549457 235.19273 
L 307.19302 232.391773 
L 308.19742 229.445934 
L 310.510584 220.463557 
L 312.245457 211.690448 
L 314.254257 198.265169 
L 316.750039 179.35066 
L 319.884984 158.536654 
L 321.132875 151.9206 
L 321.985093 148.395258 
L 323.080802 144.757233 
L 324.237384 142.004569 
L 324.93742 140.781162 
L 325.393966 139.863608 
L 325.880948 139.058736 
L 326.03313 138.865565 
L 327.128839 137.867523 
L 328.650657 137.175333 
L 329.04633 137.094847 
L 329.228948 137.046553 
L 329.989857 136.94997 
L 330.263784 136.917774 
L 330.72033 136.82119 
L 331.207311 136.644118 
L 331.359493 136.644118 
L 331.602984 136.531436 
L 331.755166 136.499241 
L 333.124802 135.694369 
L 333.39873 135.372419 
L 334.494439 134.052427 
L 336.41193 130.816839 
L 337.020657 129.287581 
L 338.025057 126.438332 
L 338.32942 125.552972 
L 339.33382 122.71982 
L 340.855639 119.001308 
L 342.10353 116.618885 
L 343.381857 114.783778 
L 343.77753 114.510119 
L 344.751493 114.606706 
L 346.273311 117.214488 
L 347.155966 119.339355 
L 348.403857 122.945184 
L 349.71262 128.209052 
L 350.625711 132.539266 
L 352.360584 142.310421 
L 353.851966 151.630846 
L 357.321711 174.74679 
L 358.782657 183.069172 
L 359.360948 186.063299 
L 360.700148 191.246679 
L 361.613239 193.951051 
L 362.130657 195.48031 
L 363.956839 199.086139 
L 365.052548 200.084181 
L 365.265602 200.180769 
L 365.813457 200.39003 
L 365.935202 200.357841 
L 366.361311 200.277348 
L 367.183093 199.263211 
L 367.54833 198.603216 
L 368.035311 197.637368 
L 368.704911 195.963233 
L 369.374511 193.886662 
L 369.709311 192.502281 
L 371.078948 185.451596 
L 375.948766 156.492277 
L 377.988002 143.227976 
L 380.301166 129.255386 
L 381.457748 123.154451 
L 382.918693 116.69937 
L 382.918693 116.69937 
" style="fill:none;stroke:#ff0000;stroke-linecap:square;stroke-width:1.5;"/>
   </g>
   <g id="line2d_27">
    <path clip-path="url(#pa000493173)" d="M 127.07062 167.319102 
" style="fill:none;stroke:#ffffff;stroke-linecap:square;stroke-width:1.5;"/>
    <defs>
     <path d="M 0 -5 
L -1.12257 -1.545085 
L -4.755283 -1.545085 
L -1.816356 0.59017 
L -2.938926 4.045085 
L -0 1.90983 
L 2.938926 4.045085 
L 1.816356 0.59017 
L 4.755283 -1.545085 
L 1.12257 -1.545085 
z
" id="mee0479b913" style="stroke:#ffffff;stroke-linejoin:bevel;"/>
    </defs>
    <g clip-path="url(#pa000493173)">
     <use style="fill:#0000ff;stroke:#ffffff;stroke-linejoin:bevel;" x="127.07062" xlink:href="#mee0479b913" y="167.319102"/>
    </g>
   </g>
   <g id="line2d_28">
    <path clip-path="url(#pa000493173)" d="M 105.552111 165.844898 
" style="fill:none;stroke:#ffffff;stroke-linecap:square;stroke-width:1.5;"/>
    <defs>
     <path d="M 0 -5 
L -1.12257 -1.545085 
L -4.755283 -1.545085 
L -1.816356 0.59017 
L -2.938926 4.045085 
L -0 1.90983 
L 2.938926 4.045085 
L 1.816356 0.59017 
L 4.755283 -1.545085 
L 1.12257 -1.545085 
z
" id="m4fdd0f08a9" style="stroke:#ffffff;stroke-linejoin:bevel;"/>
    </defs>
    <g clip-path="url(#pa000493173)">
     <use style="fill:#ff0000;stroke:#ffffff;stroke-linejoin:bevel;" x="105.552111" xlink:href="#m4fdd0f08a9" y="165.844898"/>
    </g>
   </g>
   <g id="patch_3">
    <path d="M 63.336875 339.84 
L 63.336875 7.2 
" style="fill:none;stroke:#000000;stroke-linecap:square;stroke-linejoin:miter;stroke-width:0.8;"/>
   </g>
   <g id="patch_4">
    <path d="M 398.136875 339.84 
L 398.136875 7.2 
" style="fill:none;stroke:#000000;stroke-linecap:square;stroke-linejoin:miter;stroke-width:0.8;"/>
   </g>
   <g id="patch_5">
    <path d="M 63.336875 339.84 
L 398.136875 339.84 
" style="fill:none;stroke:#000000;stroke-linecap:square;stroke-linejoin:miter;stroke-width:0.8;"/>
   </g>
   <g id="patch_6">
    <path d="M 63.336875 7.2 
L 398.136875 7.2 
" style="fill:none;stroke:#000000;stroke-linecap:square;stroke-linejoin:miter;stroke-width:0.8;"/>
   </g>
   <g id="text_15">
    <g id="patch_7">
     <path d="M 75.036875 331.242688 
L 166.79375 331.242688 
L 166.79375 293.760313 
L 75.036875 293.760313 
z
" style="fill:#ffffff;stroke:#000000;stroke-linejoin:miter;stroke-width:0.75;"/>
    </g>
    <!-- Auto_00072 -->
    <g transform="translate(80.076875 308.521563)scale(0.14 -0.14)">
     <defs>
      <path d="M 2928 1419 
L 1288 1419 
L 1000 750 
Q 894 503 894 381 
Q 894 284 986 211 
Q 1078 138 1384 116 
L 1384 0 
L 50 0 
L 50 116 
Q 316 163 394 238 
Q 553 388 747 847 
L 2238 4334 
L 2347 4334 
L 3822 809 
Q 4000 384 4145 257 
Q 4291 131 4550 116 
L 4550 0 
L 2878 0 
L 2878 116 
Q 3131 128 3220 200 
Q 3309 272 3309 375 
Q 3309 513 3184 809 
L 2928 1419 
z
M 2841 1650 
L 2122 3363 
L 1384 1650 
L 2841 1650 
z
" id="TimesNewRomanPSMT-41" transform="scale(0.015625)"/>
      <path d="M 2709 2863 
L 2709 1128 
Q 2709 631 2732 520 
Q 2756 409 2807 365 
Q 2859 322 2928 322 
Q 3025 322 3147 375 
L 3191 266 
L 2334 -88 
L 2194 -88 
L 2194 519 
Q 1825 119 1631 15 
Q 1438 -88 1222 -88 
Q 981 -88 804 51 
Q 628 191 559 409 
Q 491 628 491 1028 
L 491 2306 
Q 491 2509 447 2587 
Q 403 2666 317 2708 
Q 231 2750 6 2747 
L 6 2863 
L 1009 2863 
L 1009 947 
Q 1009 547 1148 422 
Q 1288 297 1484 297 
Q 1619 297 1789 381 
Q 1959 466 2194 703 
L 2194 2325 
Q 2194 2569 2105 2655 
Q 2016 2741 1734 2747 
L 1734 2863 
L 2709 2863 
z
" id="TimesNewRomanPSMT-75" transform="scale(0.015625)"/>
      <path d="M 3256 -1381 
L -53 -1381 
L -53 -1119 
L 3256 -1119 
L 3256 -1381 
z
" id="TimesNewRomanPSMT-5f" transform="scale(0.015625)"/>
      <path d="M 644 4238 
L 2916 4238 
L 2916 4119 
L 1503 -88 
L 1153 -88 
L 2419 3728 
L 1253 3728 
Q 900 3728 750 3644 
Q 488 3500 328 3200 
L 238 3234 
L 644 4238 
z
" id="TimesNewRomanPSMT-37" transform="scale(0.015625)"/>
     </defs>
     <use xlink:href="#TimesNewRomanPSMT-41"/>
     <use x="72.216797" xlink:href="#TimesNewRomanPSMT-75"/>
     <use x="122.216797" xlink:href="#TimesNewRomanPSMT-74"/>
     <use x="150" xlink:href="#TimesNewRomanPSMT-6f"/>
     <use x="200" xlink:href="#TimesNewRomanPSMT-5f"/>
     <use x="250" xlink:href="#TimesNewRomanPSMT-30"/>
     <use x="300" xlink:href="#TimesNewRomanPSMT-30"/>
     <use x="350" xlink:href="#TimesNewRomanPSMT-30"/>
     <use x="400" xlink:href="#TimesNewRomanPSMT-37"/>
     <use x="450" xlink:href="#TimesNewRomanPSMT-32"/>
    </g>
    <!-- Vs: 282.74m/s -->
    <g transform="translate(80.076875 323.208)scale(0.14 -0.14)">
     <defs>
      <path d="M 903 2950 
Q 1047 2950 1148 2848 
Q 1250 2747 1250 2603 
Q 1250 2459 1148 2357 
Q 1047 2256 903 2256 
Q 759 2256 657 2357 
Q 556 2459 556 2603 
Q 556 2747 657 2848 
Q 759 2950 903 2950 
z
M 897 609 
Q 1044 609 1145 506 
Q 1247 403 1247 259 
Q 1247 116 1144 14 
Q 1041 -88 897 -88 
Q 753 -88 651 14 
Q 550 116 550 259 
Q 550 403 651 506 
Q 753 609 897 609 
z
" id="TimesNewRomanPSMT-3a" transform="scale(0.015625)"/>
      <path d="M 1228 2134 
Q 725 2547 579 2797 
Q 434 3047 434 3316 
Q 434 3728 753 4026 
Q 1072 4325 1600 4325 
Q 2113 4325 2425 4047 
Q 2738 3769 2738 3413 
Q 2738 3175 2569 2928 
Q 2400 2681 1866 2347 
Q 2416 1922 2594 1678 
Q 2831 1359 2831 1006 
Q 2831 559 2490 242 
Q 2150 -75 1597 -75 
Q 994 -75 656 303 
Q 388 606 388 966 
Q 388 1247 577 1523 
Q 766 1800 1228 2134 
z
M 1719 2469 
Q 2094 2806 2194 3001 
Q 2294 3197 2294 3444 
Q 2294 3772 2109 3958 
Q 1925 4144 1606 4144 
Q 1288 4144 1088 3959 
Q 888 3775 888 3528 
Q 888 3366 970 3203 
Q 1053 3041 1206 2894 
L 1719 2469 
z
M 1375 2016 
Q 1116 1797 991 1539 
Q 866 1281 866 981 
Q 866 578 1086 336 
Q 1306 94 1647 94 
Q 1984 94 2187 284 
Q 2391 475 2391 747 
Q 2391 972 2272 1150 
Q 2050 1481 1375 2016 
z
" id="TimesNewRomanPSMT-38" transform="scale(0.015625)"/>
      <path d="M 1794 4444 
L 259 -88 
L 9 -88 
L 1544 4444 
L 1794 4444 
z
" id="TimesNewRomanPSMT-2f" transform="scale(0.015625)"/>
     </defs>
     <use xlink:href="#TimesNewRomanPSMT-56"/>
     <use x="72.216797" xlink:href="#TimesNewRomanPSMT-73"/>
     <use x="111.132812" xlink:href="#TimesNewRomanPSMT-3a"/>
     <use x="138.916016" xlink:href="#TimesNewRomanPSMT-20"/>
     <use x="163.916016" xlink:href="#TimesNewRomanPSMT-32"/>
     <use x="213.916016" xlink:href="#TimesNewRomanPSMT-38"/>
     <use x="263.916016" xlink:href="#TimesNewRomanPSMT-32"/>
     <use x="313.916016" xlink:href="#TimesNewRomanPSMT-2e"/>
     <use x="338.916016" xlink:href="#TimesNewRomanPSMT-37"/>
     <use x="388.916016" xlink:href="#TimesNewRomanPSMT-34"/>
     <use x="438.916016" xlink:href="#TimesNewRomanPSMT-6d"/>
     <use x="516.699219" xlink:href="#TimesNewRomanPSMT-2f"/>
     <use x="544.482422" xlink:href="#TimesNewRomanPSMT-73"/>
    </g>
   </g>
  </g>
 </g>
 <defs>
  <clipPath id="pa000493173">
   <rect height="332.64" width="334.8" x="63.336875" y="7.2"/>
  </clipPath>
 </defs>
</svg>
