<?xml version="1.0" encoding="utf-8" standalone="no"?>
<!DOCTYPE svg PUBLIC "-//W3C//DTD SVG 1.1//EN"
  "http://www.w3.org/Graphics/SVG/1.1/DTD/svg11.dtd">
<svg height="383.471875pt" version="1.1" viewBox="0 0 421.086875 383.471875" width="421.086875pt" xmlns="http://www.w3.org/2000/svg" xmlns:xlink="http://www.w3.org/1999/xlink">
 <metadata>
  <rdf:RDF xmlns:cc="http://creativecommons.org/ns#" xmlns:dc="http://purl.org/dc/elements/1.1/" xmlns:rdf="http://www.w3.org/1999/02/22-rdf-syntax-ns#">
   <cc:Work>
    <dc:type rdf:resource="http://purl.org/dc/dcmitype/StillImage"/>
    <dc:date>2021-06-11T14:39:38.080938</dc:date>
    <dc:format>image/svg+xml</dc:format>
    <dc:creator>
     <cc:Agent>
      <dc:title>Matplotlib v3.4.2, https://matplotlib.org/</dc:title>
     </cc:Agent>
    </dc:creator>
   </cc:Work>
  </rdf:RDF>
 </metadata>
 <defs>
  <style type="text/css">*{stroke-linecap:butt;stroke-linejoin:round;}</style>
 </defs>
 <g id="figure_1">
  <g id="patch_1">
   <path d="M 0 383.471875 
L 421.086875 383.471875 
L 421.086875 0 
L 0 0 
z
" style="fill:#ffffff;"/>
  </g>
  <g id="axes_1">
   <g id="patch_2">
    <path d="M 63.336875 339.84 
L 398.136875 339.84 
L 398.136875 7.2 
L 63.336875 7.2 
z
" style="fill:#ffffff;"/>
   </g>
   <g id="matplotlib.axis_1">
    <g id="xtick_1">
     <g id="line2d_1">
      <path clip-path="url(#p3b978b1d60)" d="M 93.773239 339.84 
L 93.773239 7.2 
" style="fill:none;stroke:#000000;stroke-dasharray:0.5,0.825;stroke-dashoffset:0;stroke-width:0.5;"/>
     </g>
     <g id="line2d_2">
      <defs>
       <path d="M 0 0 
L 0 3.5 
" id="me6709e3574" style="stroke:#000000;stroke-width:0.8;"/>
      </defs>
      <g>
       <use style="stroke:#000000;stroke-width:0.8;" x="93.773239" xlink:href="#me6709e3574" y="339.84"/>
      </g>
     </g>
     <g id="text_1">
      <!-- 0.000 -->
      <g transform="translate(78.023239 356.56125)scale(0.14 -0.14)">
       <defs>
        <path d="M 231 2094 
Q 231 2819 450 3342 
Q 669 3866 1031 4122 
Q 1313 4325 1613 4325 
Q 2100 4325 2488 3828 
Q 2972 3213 2972 2159 
Q 2972 1422 2759 906 
Q 2547 391 2217 158 
Q 1888 -75 1581 -75 
Q 975 -75 572 641 
Q 231 1244 231 2094 
z
M 844 2016 
Q 844 1141 1059 588 
Q 1238 122 1591 122 
Q 1759 122 1940 273 
Q 2122 425 2216 781 
Q 2359 1319 2359 2297 
Q 2359 3022 2209 3506 
Q 2097 3866 1919 4016 
Q 1791 4119 1609 4119 
Q 1397 4119 1231 3928 
Q 1006 3669 925 3112 
Q 844 2556 844 2016 
z
" id="TimesNewRomanPSMT-30" transform="scale(0.015625)"/>
        <path d="M 800 606 
Q 947 606 1047 504 
Q 1147 403 1147 259 
Q 1147 116 1045 14 
Q 944 -88 800 -88 
Q 656 -88 554 14 
Q 453 116 453 259 
Q 453 406 554 506 
Q 656 606 800 606 
z
" id="TimesNewRomanPSMT-2e" transform="scale(0.015625)"/>
       </defs>
       <use xlink:href="#TimesNewRomanPSMT-30"/>
       <use x="50" xlink:href="#TimesNewRomanPSMT-2e"/>
       <use x="75" xlink:href="#TimesNewRomanPSMT-30"/>
       <use x="125" xlink:href="#TimesNewRomanPSMT-30"/>
       <use x="175" xlink:href="#TimesNewRomanPSMT-30"/>
      </g>
     </g>
    </g>
    <g id="xtick_2">
     <g id="line2d_3">
      <path clip-path="url(#p3b978b1d60)" d="M 154.645966 339.84 
L 154.645966 7.2 
" style="fill:none;stroke:#000000;stroke-dasharray:0.5,0.825;stroke-dashoffset:0;stroke-width:0.5;"/>
     </g>
     <g id="line2d_4">
      <g>
       <use style="stroke:#000000;stroke-width:0.8;" x="154.645966" xlink:href="#me6709e3574" y="339.84"/>
      </g>
     </g>
     <g id="text_2">
      <!-- 0.001 -->
      <g transform="translate(138.895966 356.56125)scale(0.14 -0.14)">
       <defs>
        <path d="M 750 3822 
L 1781 4325 
L 1884 4325 
L 1884 747 
Q 1884 391 1914 303 
Q 1944 216 2037 169 
Q 2131 122 2419 116 
L 2419 0 
L 825 0 
L 825 116 
Q 1125 122 1212 167 
Q 1300 213 1334 289 
Q 1369 366 1369 747 
L 1369 3034 
Q 1369 3497 1338 3628 
Q 1316 3728 1258 3775 
Q 1200 3822 1119 3822 
Q 1003 3822 797 3725 
L 750 3822 
z
" id="TimesNewRomanPSMT-31" transform="scale(0.015625)"/>
       </defs>
       <use xlink:href="#TimesNewRomanPSMT-30"/>
       <use x="50" xlink:href="#TimesNewRomanPSMT-2e"/>
       <use x="75" xlink:href="#TimesNewRomanPSMT-30"/>
       <use x="125" xlink:href="#TimesNewRomanPSMT-30"/>
       <use x="175" xlink:href="#TimesNewRomanPSMT-31"/>
      </g>
     </g>
    </g>
    <g id="xtick_3">
     <g id="line2d_5">
      <path clip-path="url(#p3b978b1d60)" d="M 215.518693 339.84 
L 215.518693 7.2 
" style="fill:none;stroke:#000000;stroke-dasharray:0.5,0.825;stroke-dashoffset:0;stroke-width:0.5;"/>
     </g>
     <g id="line2d_6">
      <g>
       <use style="stroke:#000000;stroke-width:0.8;" x="215.518693" xlink:href="#me6709e3574" y="339.84"/>
      </g>
     </g>
     <g id="text_3">
      <!-- 0.002 -->
      <g transform="translate(199.768693 356.56125)scale(0.14 -0.14)">
       <defs>
        <path d="M 2934 816 
L 2638 0 
L 138 0 
L 138 116 
Q 1241 1122 1691 1759 
Q 2141 2397 2141 2925 
Q 2141 3328 1894 3587 
Q 1647 3847 1303 3847 
Q 991 3847 742 3664 
Q 494 3481 375 3128 
L 259 3128 
Q 338 3706 661 4015 
Q 984 4325 1469 4325 
Q 1984 4325 2329 3994 
Q 2675 3663 2675 3213 
Q 2675 2891 2525 2569 
Q 2294 2063 1775 1497 
Q 997 647 803 472 
L 1909 472 
Q 2247 472 2383 497 
Q 2519 522 2628 598 
Q 2738 675 2819 816 
L 2934 816 
z
" id="TimesNewRomanPSMT-32" transform="scale(0.015625)"/>
       </defs>
       <use xlink:href="#TimesNewRomanPSMT-30"/>
       <use x="50" xlink:href="#TimesNewRomanPSMT-2e"/>
       <use x="75" xlink:href="#TimesNewRomanPSMT-30"/>
       <use x="125" xlink:href="#TimesNewRomanPSMT-30"/>
       <use x="175" xlink:href="#TimesNewRomanPSMT-32"/>
      </g>
     </g>
    </g>
    <g id="xtick_4">
     <g id="line2d_7">
      <path clip-path="url(#p3b978b1d60)" d="M 276.39142 339.84 
L 276.39142 7.2 
" style="fill:none;stroke:#000000;stroke-dasharray:0.5,0.825;stroke-dashoffset:0;stroke-width:0.5;"/>
     </g>
     <g id="line2d_8">
      <g>
       <use style="stroke:#000000;stroke-width:0.8;" x="276.39142" xlink:href="#me6709e3574" y="339.84"/>
      </g>
     </g>
     <g id="text_4">
      <!-- 0.003 -->
      <g transform="translate(260.64142 356.56125)scale(0.14 -0.14)">
       <defs>
        <path d="M 325 3431 
Q 506 3859 782 4092 
Q 1059 4325 1472 4325 
Q 1981 4325 2253 3994 
Q 2459 3747 2459 3466 
Q 2459 3003 1878 2509 
Q 2269 2356 2469 2072 
Q 2669 1788 2669 1403 
Q 2669 853 2319 450 
Q 1863 -75 997 -75 
Q 569 -75 414 31 
Q 259 138 259 259 
Q 259 350 332 419 
Q 406 488 509 488 
Q 588 488 669 463 
Q 722 447 909 348 
Q 1097 250 1169 231 
Q 1284 197 1416 197 
Q 1734 197 1970 444 
Q 2206 691 2206 1028 
Q 2206 1275 2097 1509 
Q 2016 1684 1919 1775 
Q 1784 1900 1550 2001 
Q 1316 2103 1072 2103 
L 972 2103 
L 972 2197 
Q 1219 2228 1467 2375 
Q 1716 2522 1828 2728 
Q 1941 2934 1941 3181 
Q 1941 3503 1739 3701 
Q 1538 3900 1238 3900 
Q 753 3900 428 3381 
L 325 3431 
z
" id="TimesNewRomanPSMT-33" transform="scale(0.015625)"/>
       </defs>
       <use xlink:href="#TimesNewRomanPSMT-30"/>
       <use x="50" xlink:href="#TimesNewRomanPSMT-2e"/>
       <use x="75" xlink:href="#TimesNewRomanPSMT-30"/>
       <use x="125" xlink:href="#TimesNewRomanPSMT-30"/>
       <use x="175" xlink:href="#TimesNewRomanPSMT-33"/>
      </g>
     </g>
    </g>
    <g id="xtick_5">
     <g id="line2d_9">
      <path clip-path="url(#p3b978b1d60)" d="M 337.264148 339.84 
L 337.264148 7.2 
" style="fill:none;stroke:#000000;stroke-dasharray:0.5,0.825;stroke-dashoffset:0;stroke-width:0.5;"/>
     </g>
     <g id="line2d_10">
      <g>
       <use style="stroke:#000000;stroke-width:0.8;" x="337.264148" xlink:href="#me6709e3574" y="339.84"/>
      </g>
     </g>
     <g id="text_5">
      <!-- 0.004 -->
      <g transform="translate(321.514148 356.56125)scale(0.14 -0.14)">
       <defs>
        <path d="M 2978 1563 
L 2978 1119 
L 2409 1119 
L 2409 0 
L 1894 0 
L 1894 1119 
L 100 1119 
L 100 1519 
L 2066 4325 
L 2409 4325 
L 2409 1563 
L 2978 1563 
z
M 1894 1563 
L 1894 3666 
L 406 1563 
L 1894 1563 
z
" id="TimesNewRomanPSMT-34" transform="scale(0.015625)"/>
       </defs>
       <use xlink:href="#TimesNewRomanPSMT-30"/>
       <use x="50" xlink:href="#TimesNewRomanPSMT-2e"/>
       <use x="75" xlink:href="#TimesNewRomanPSMT-30"/>
       <use x="125" xlink:href="#TimesNewRomanPSMT-30"/>
       <use x="175" xlink:href="#TimesNewRomanPSMT-34"/>
      </g>
     </g>
    </g>
    <g id="xtick_6">
     <g id="line2d_11">
      <path clip-path="url(#p3b978b1d60)" d="M 398.136875 339.84 
L 398.136875 7.2 
" style="fill:none;stroke:#000000;stroke-dasharray:0.5,0.825;stroke-dashoffset:0;stroke-width:0.5;"/>
     </g>
     <g id="line2d_12">
      <g>
       <use style="stroke:#000000;stroke-width:0.8;" x="398.136875" xlink:href="#me6709e3574" y="339.84"/>
      </g>
     </g>
     <g id="text_6">
      <!-- 0.005 -->
      <g transform="translate(382.386875 356.56125)scale(0.14 -0.14)">
       <defs>
        <path d="M 2778 4238 
L 2534 3706 
L 1259 3706 
L 981 3138 
Q 1809 3016 2294 2522 
Q 2709 2097 2709 1522 
Q 2709 1188 2573 903 
Q 2438 619 2231 419 
Q 2025 219 1772 97 
Q 1413 -75 1034 -75 
Q 653 -75 479 54 
Q 306 184 306 341 
Q 306 428 378 495 
Q 450 563 559 563 
Q 641 563 702 538 
Q 763 513 909 409 
Q 1144 247 1384 247 
Q 1750 247 2026 523 
Q 2303 800 2303 1197 
Q 2303 1581 2056 1914 
Q 1809 2247 1375 2428 
Q 1034 2569 447 2591 
L 1259 4238 
L 2778 4238 
z
" id="TimesNewRomanPSMT-35" transform="scale(0.015625)"/>
       </defs>
       <use xlink:href="#TimesNewRomanPSMT-30"/>
       <use x="50" xlink:href="#TimesNewRomanPSMT-2e"/>
       <use x="75" xlink:href="#TimesNewRomanPSMT-30"/>
       <use x="125" xlink:href="#TimesNewRomanPSMT-30"/>
       <use x="175" xlink:href="#TimesNewRomanPSMT-35"/>
      </g>
     </g>
    </g>
    <g id="text_7">
     <!-- Time (sec) -->
     <g transform="translate(200.858906 373.277188)scale(0.14 -0.14)">
      <defs>
       <path d="M 3703 4238 
L 3750 3244 
L 3631 3244 
Q 3597 3506 3538 3619 
Q 3441 3800 3280 3886 
Q 3119 3972 2856 3972 
L 2259 3972 
L 2259 734 
Q 2259 344 2344 247 
Q 2463 116 2709 116 
L 2856 116 
L 2856 0 
L 1059 0 
L 1059 116 
L 1209 116 
Q 1478 116 1591 278 
Q 1659 378 1659 734 
L 1659 3972 
L 1150 3972 
Q 853 3972 728 3928 
Q 566 3869 450 3700 
Q 334 3531 313 3244 
L 194 3244 
L 244 4238 
L 3703 4238 
z
" id="TimesNewRomanPSMT-54" transform="scale(0.015625)"/>
       <path d="M 928 4444 
Q 1059 4444 1151 4351 
Q 1244 4259 1244 4128 
Q 1244 3997 1151 3903 
Q 1059 3809 928 3809 
Q 797 3809 703 3903 
Q 609 3997 609 4128 
Q 609 4259 701 4351 
Q 794 4444 928 4444 
z
M 1188 2947 
L 1188 647 
Q 1188 378 1227 289 
Q 1266 200 1342 156 
Q 1419 113 1622 113 
L 1622 0 
L 231 0 
L 231 113 
Q 441 113 512 153 
Q 584 194 626 287 
Q 669 381 669 647 
L 669 1750 
Q 669 2216 641 2353 
Q 619 2453 572 2492 
Q 525 2531 444 2531 
Q 356 2531 231 2484 
L 188 2597 
L 1050 2947 
L 1188 2947 
z
" id="TimesNewRomanPSMT-69" transform="scale(0.015625)"/>
       <path d="M 1050 2338 
Q 1363 2650 1419 2697 
Q 1559 2816 1721 2881 
Q 1884 2947 2044 2947 
Q 2313 2947 2506 2790 
Q 2700 2634 2766 2338 
Q 3088 2713 3309 2830 
Q 3531 2947 3766 2947 
Q 3994 2947 4170 2830 
Q 4347 2713 4450 2447 
Q 4519 2266 4519 1878 
L 4519 647 
Q 4519 378 4559 278 
Q 4591 209 4675 161 
Q 4759 113 4950 113 
L 4950 0 
L 3538 0 
L 3538 113 
L 3597 113 
Q 3781 113 3884 184 
Q 3956 234 3988 344 
Q 4000 397 4000 647 
L 4000 1878 
Q 4000 2228 3916 2372 
Q 3794 2572 3525 2572 
Q 3359 2572 3192 2489 
Q 3025 2406 2788 2181 
L 2781 2147 
L 2788 2013 
L 2788 647 
Q 2788 353 2820 281 
Q 2853 209 2943 161 
Q 3034 113 3253 113 
L 3253 0 
L 1806 0 
L 1806 113 
Q 2044 113 2133 169 
Q 2222 225 2256 338 
Q 2272 391 2272 647 
L 2272 1878 
Q 2272 2228 2169 2381 
Q 2031 2581 1784 2581 
Q 1616 2581 1450 2491 
Q 1191 2353 1050 2181 
L 1050 647 
Q 1050 366 1089 281 
Q 1128 197 1204 155 
Q 1281 113 1516 113 
L 1516 0 
L 100 0 
L 100 113 
Q 297 113 375 155 
Q 453 197 493 289 
Q 534 381 534 647 
L 534 1741 
Q 534 2213 506 2350 
Q 484 2453 437 2492 
Q 391 2531 309 2531 
Q 222 2531 100 2484 
L 53 2597 
L 916 2947 
L 1050 2947 
L 1050 2338 
z
" id="TimesNewRomanPSMT-6d" transform="scale(0.015625)"/>
       <path d="M 681 1784 
Q 678 1147 991 784 
Q 1303 422 1725 422 
Q 2006 422 2214 576 
Q 2422 731 2563 1106 
L 2659 1044 
Q 2594 616 2278 264 
Q 1963 -88 1488 -88 
Q 972 -88 605 314 
Q 238 716 238 1394 
Q 238 2128 614 2539 
Q 991 2950 1559 2950 
Q 2041 2950 2350 2633 
Q 2659 2316 2659 1784 
L 681 1784 
z
M 681 1966 
L 2006 1966 
Q 1991 2241 1941 2353 
Q 1863 2528 1708 2628 
Q 1553 2728 1384 2728 
Q 1125 2728 920 2526 
Q 716 2325 681 1966 
z
" id="TimesNewRomanPSMT-65" transform="scale(0.015625)"/>
       <path id="TimesNewRomanPSMT-20" transform="scale(0.015625)"/>
       <path d="M 1988 -1253 
L 1988 -1369 
Q 1516 -1131 1200 -813 
Q 750 -359 506 256 
Q 263 872 263 1534 
Q 263 2503 741 3301 
Q 1219 4100 1988 4444 
L 1988 4313 
Q 1603 4100 1356 3731 
Q 1109 3363 987 2797 
Q 866 2231 866 1616 
Q 866 947 969 400 
Q 1050 -31 1165 -292 
Q 1281 -553 1476 -793 
Q 1672 -1034 1988 -1253 
z
" id="TimesNewRomanPSMT-28" transform="scale(0.015625)"/>
       <path d="M 2050 2947 
L 2050 1972 
L 1947 1972 
Q 1828 2431 1642 2597 
Q 1456 2763 1169 2763 
Q 950 2763 815 2647 
Q 681 2531 681 2391 
Q 681 2216 781 2091 
Q 878 1963 1175 1819 
L 1631 1597 
Q 2266 1288 2266 781 
Q 2266 391 1970 151 
Q 1675 -88 1309 -88 
Q 1047 -88 709 6 
Q 606 38 541 38 
Q 469 38 428 -44 
L 325 -44 
L 325 978 
L 428 978 
Q 516 541 762 319 
Q 1009 97 1316 97 
Q 1531 97 1667 223 
Q 1803 350 1803 528 
Q 1803 744 1651 891 
Q 1500 1038 1047 1263 
Q 594 1488 453 1669 
Q 313 1847 313 2119 
Q 313 2472 555 2709 
Q 797 2947 1181 2947 
Q 1350 2947 1591 2875 
Q 1750 2828 1803 2828 
Q 1853 2828 1881 2850 
Q 1909 2872 1947 2947 
L 2050 2947 
z
" id="TimesNewRomanPSMT-73" transform="scale(0.015625)"/>
       <path d="M 2631 1088 
Q 2516 522 2178 217 
Q 1841 -88 1431 -88 
Q 944 -88 581 321 
Q 219 731 219 1428 
Q 219 2103 620 2525 
Q 1022 2947 1584 2947 
Q 2006 2947 2278 2723 
Q 2550 2500 2550 2259 
Q 2550 2141 2473 2067 
Q 2397 1994 2259 1994 
Q 2075 1994 1981 2113 
Q 1928 2178 1911 2362 
Q 1894 2547 1784 2644 
Q 1675 2738 1481 2738 
Q 1169 2738 978 2506 
Q 725 2200 725 1697 
Q 725 1184 976 792 
Q 1228 400 1656 400 
Q 1963 400 2206 609 
Q 2378 753 2541 1131 
L 2631 1088 
z
" id="TimesNewRomanPSMT-63" transform="scale(0.015625)"/>
       <path d="M 144 4313 
L 144 4444 
Q 619 4209 934 3891 
Q 1381 3434 1625 2820 
Q 1869 2206 1869 1541 
Q 1869 572 1392 -226 
Q 916 -1025 144 -1369 
L 144 -1253 
Q 528 -1038 776 -670 
Q 1025 -303 1145 264 
Q 1266 831 1266 1447 
Q 1266 2113 1163 2663 
Q 1084 3094 967 3353 
Q 850 3613 656 3853 
Q 463 4094 144 4313 
z
" id="TimesNewRomanPSMT-29" transform="scale(0.015625)"/>
      </defs>
      <use xlink:href="#TimesNewRomanPSMT-54"/>
      <use x="57.583984" xlink:href="#TimesNewRomanPSMT-69"/>
      <use x="85.367188" xlink:href="#TimesNewRomanPSMT-6d"/>
      <use x="163.150391" xlink:href="#TimesNewRomanPSMT-65"/>
      <use x="207.535156" xlink:href="#TimesNewRomanPSMT-20"/>
      <use x="232.535156" xlink:href="#TimesNewRomanPSMT-28"/>
      <use x="265.835938" xlink:href="#TimesNewRomanPSMT-73"/>
      <use x="304.751953" xlink:href="#TimesNewRomanPSMT-65"/>
      <use x="349.136719" xlink:href="#TimesNewRomanPSMT-63"/>
      <use x="393.521484" xlink:href="#TimesNewRomanPSMT-29"/>
     </g>
    </g>
   </g>
   <g id="matplotlib.axis_2">
    <g id="ytick_1">
     <g id="line2d_13">
      <path clip-path="url(#p3b978b1d60)" d="M 63.336875 277.410259 
L 398.136875 277.410259 
" style="fill:none;stroke:#000000;stroke-dasharray:0.5,0.825;stroke-dashoffset:0;stroke-width:0.5;"/>
     </g>
     <g id="line2d_14">
      <defs>
       <path d="M 0 0 
L -3.5 0 
" id="m7fcf9ab3e4" style="stroke:#000000;stroke-width:0.8;"/>
      </defs>
      <g>
       <use style="stroke:#000000;stroke-width:0.8;" x="63.336875" xlink:href="#m7fcf9ab3e4" y="277.410259"/>
      </g>
     </g>
     <g id="text_8">
      <!-- −0.04 -->
      <g transform="translate(23.942188 282.270884)scale(0.14 -0.14)">
       <defs>
        <path d="M 3484 2000 
L 116 2000 
L 116 2256 
L 3484 2256 
L 3484 2000 
z
" id="TimesNewRomanPSMT-2212" transform="scale(0.015625)"/>
       </defs>
       <use xlink:href="#TimesNewRomanPSMT-2212"/>
       <use x="56.396484" xlink:href="#TimesNewRomanPSMT-30"/>
       <use x="106.396484" xlink:href="#TimesNewRomanPSMT-2e"/>
       <use x="131.396484" xlink:href="#TimesNewRomanPSMT-30"/>
       <use x="181.396484" xlink:href="#TimesNewRomanPSMT-34"/>
      </g>
     </g>
    </g>
    <g id="ytick_2">
     <g id="line2d_15">
      <path clip-path="url(#p3b978b1d60)" d="M 63.336875 214.971236 
L 398.136875 214.971236 
" style="fill:none;stroke:#000000;stroke-dasharray:0.5,0.825;stroke-dashoffset:0;stroke-width:0.5;"/>
     </g>
     <g id="line2d_16">
      <g>
       <use style="stroke:#000000;stroke-width:0.8;" x="63.336875" xlink:href="#m7fcf9ab3e4" y="214.971236"/>
      </g>
     </g>
     <g id="text_9">
      <!-- −0.02 -->
      <g transform="translate(23.942188 219.831861)scale(0.14 -0.14)">
       <use xlink:href="#TimesNewRomanPSMT-2212"/>
       <use x="56.396484" xlink:href="#TimesNewRomanPSMT-30"/>
       <use x="106.396484" xlink:href="#TimesNewRomanPSMT-2e"/>
       <use x="131.396484" xlink:href="#TimesNewRomanPSMT-30"/>
       <use x="181.396484" xlink:href="#TimesNewRomanPSMT-32"/>
      </g>
     </g>
    </g>
    <g id="ytick_3">
     <g id="line2d_17">
      <path clip-path="url(#p3b978b1d60)" d="M 63.336875 152.532214 
L 398.136875 152.532214 
" style="fill:none;stroke:#000000;stroke-dasharray:0.5,0.825;stroke-dashoffset:0;stroke-width:0.5;"/>
     </g>
     <g id="line2d_18">
      <g>
       <use style="stroke:#000000;stroke-width:0.8;" x="63.336875" xlink:href="#m7fcf9ab3e4" y="152.532214"/>
      </g>
     </g>
     <g id="text_10">
      <!-- 0.00 -->
      <g transform="translate(31.836875 157.392839)scale(0.14 -0.14)">
       <use xlink:href="#TimesNewRomanPSMT-30"/>
       <use x="50" xlink:href="#TimesNewRomanPSMT-2e"/>
       <use x="75" xlink:href="#TimesNewRomanPSMT-30"/>
       <use x="125" xlink:href="#TimesNewRomanPSMT-30"/>
      </g>
     </g>
    </g>
    <g id="ytick_4">
     <g id="line2d_19">
      <path clip-path="url(#p3b978b1d60)" d="M 63.336875 90.093191 
L 398.136875 90.093191 
" style="fill:none;stroke:#000000;stroke-dasharray:0.5,0.825;stroke-dashoffset:0;stroke-width:0.5;"/>
     </g>
     <g id="line2d_20">
      <g>
       <use style="stroke:#000000;stroke-width:0.8;" x="63.336875" xlink:href="#m7fcf9ab3e4" y="90.093191"/>
      </g>
     </g>
     <g id="text_11">
      <!-- 0.02 -->
      <g transform="translate(31.836875 94.953816)scale(0.14 -0.14)">
       <use xlink:href="#TimesNewRomanPSMT-30"/>
       <use x="50" xlink:href="#TimesNewRomanPSMT-2e"/>
       <use x="75" xlink:href="#TimesNewRomanPSMT-30"/>
       <use x="125" xlink:href="#TimesNewRomanPSMT-32"/>
      </g>
     </g>
    </g>
    <g id="ytick_5">
     <g id="line2d_21">
      <path clip-path="url(#p3b978b1d60)" d="M 63.336875 27.654169 
L 398.136875 27.654169 
" style="fill:none;stroke:#000000;stroke-dasharray:0.5,0.825;stroke-dashoffset:0;stroke-width:0.5;"/>
     </g>
     <g id="line2d_22">
      <g>
       <use style="stroke:#000000;stroke-width:0.8;" x="63.336875" xlink:href="#m7fcf9ab3e4" y="27.654169"/>
      </g>
     </g>
     <g id="text_12">
      <!-- 0.04 -->
      <g transform="translate(31.836875 32.514794)scale(0.14 -0.14)">
       <use xlink:href="#TimesNewRomanPSMT-30"/>
       <use x="50" xlink:href="#TimesNewRomanPSMT-2e"/>
       <use x="75" xlink:href="#TimesNewRomanPSMT-30"/>
       <use x="125" xlink:href="#TimesNewRomanPSMT-34"/>
      </g>
     </g>
    </g>
    <g id="text_13">
     <!-- Volatage (V) -->
     <g transform="translate(16.92125 209.352344)rotate(-90)scale(0.14 -0.14)">
      <defs>
       <path d="M 4544 4238 
L 4544 4122 
Q 4319 4081 4203 3978 
Q 4038 3825 3909 3509 
L 2431 -97 
L 2316 -97 
L 728 3556 
Q 606 3838 556 3900 
Q 478 3997 364 4051 
Q 250 4106 56 4122 
L 56 4238 
L 1788 4238 
L 1788 4122 
Q 1494 4094 1406 4022 
Q 1319 3950 1319 3838 
Q 1319 3681 1463 3350 
L 2541 866 
L 3541 3319 
Q 3688 3681 3688 3822 
Q 3688 3913 3597 3995 
Q 3506 4078 3291 4113 
Q 3275 4116 3238 4122 
L 3238 4238 
L 4544 4238 
z
" id="TimesNewRomanPSMT-56" transform="scale(0.015625)"/>
       <path d="M 1600 2947 
Q 2250 2947 2644 2453 
Q 2978 2031 2978 1484 
Q 2978 1100 2793 706 
Q 2609 313 2286 112 
Q 1963 -88 1566 -88 
Q 919 -88 538 428 
Q 216 863 216 1403 
Q 216 1797 411 2186 
Q 606 2575 925 2761 
Q 1244 2947 1600 2947 
z
M 1503 2744 
Q 1338 2744 1170 2645 
Q 1003 2547 900 2300 
Q 797 2053 797 1666 
Q 797 1041 1045 587 
Q 1294 134 1700 134 
Q 2003 134 2200 384 
Q 2397 634 2397 1244 
Q 2397 2006 2069 2444 
Q 1847 2744 1503 2744 
z
" id="TimesNewRomanPSMT-6f" transform="scale(0.015625)"/>
       <path d="M 1184 4444 
L 1184 647 
Q 1184 378 1223 290 
Q 1263 203 1344 158 
Q 1425 113 1647 113 
L 1647 0 
L 244 0 
L 244 113 
Q 441 113 512 153 
Q 584 194 625 287 
Q 666 381 666 647 
L 666 3247 
Q 666 3731 644 3842 
Q 622 3953 573 3993 
Q 525 4034 450 4034 
Q 369 4034 244 3984 
L 191 4094 
L 1044 4444 
L 1184 4444 
z
" id="TimesNewRomanPSMT-6c" transform="scale(0.015625)"/>
       <path d="M 1822 413 
Q 1381 72 1269 19 
Q 1100 -59 909 -59 
Q 613 -59 420 144 
Q 228 347 228 678 
Q 228 888 322 1041 
Q 450 1253 767 1440 
Q 1084 1628 1822 1897 
L 1822 2009 
Q 1822 2438 1686 2597 
Q 1550 2756 1291 2756 
Q 1094 2756 978 2650 
Q 859 2544 859 2406 
L 866 2225 
Q 866 2081 792 2003 
Q 719 1925 600 1925 
Q 484 1925 411 2006 
Q 338 2088 338 2228 
Q 338 2497 613 2722 
Q 888 2947 1384 2947 
Q 1766 2947 2009 2819 
Q 2194 2722 2281 2516 
Q 2338 2381 2338 1966 
L 2338 994 
Q 2338 584 2353 492 
Q 2369 400 2405 369 
Q 2441 338 2488 338 
Q 2538 338 2575 359 
Q 2641 400 2828 588 
L 2828 413 
Q 2478 -56 2159 -56 
Q 2006 -56 1915 50 
Q 1825 156 1822 413 
z
M 1822 616 
L 1822 1706 
Q 1350 1519 1213 1441 
Q 966 1303 859 1153 
Q 753 1003 753 825 
Q 753 600 887 451 
Q 1022 303 1197 303 
Q 1434 303 1822 616 
z
" id="TimesNewRomanPSMT-61" transform="scale(0.015625)"/>
       <path d="M 1031 3803 
L 1031 2863 
L 1700 2863 
L 1700 2644 
L 1031 2644 
L 1031 788 
Q 1031 509 1111 412 
Q 1191 316 1316 316 
Q 1419 316 1516 380 
Q 1613 444 1666 569 
L 1788 569 
Q 1678 263 1478 108 
Q 1278 -47 1066 -47 
Q 922 -47 784 33 
Q 647 113 581 261 
Q 516 409 516 719 
L 516 2644 
L 63 2644 
L 63 2747 
Q 234 2816 414 2980 
Q 594 3144 734 3369 
Q 806 3488 934 3803 
L 1031 3803 
z
" id="TimesNewRomanPSMT-74" transform="scale(0.015625)"/>
       <path d="M 966 1044 
Q 703 1172 562 1401 
Q 422 1631 422 1909 
Q 422 2334 742 2640 
Q 1063 2947 1563 2947 
Q 1972 2947 2272 2747 
L 2878 2747 
Q 3013 2747 3034 2739 
Q 3056 2731 3066 2713 
Q 3084 2684 3084 2613 
Q 3084 2531 3069 2500 
Q 3059 2484 3036 2475 
Q 3013 2466 2878 2466 
L 2506 2466 
Q 2681 2241 2681 1891 
Q 2681 1491 2375 1206 
Q 2069 922 1553 922 
Q 1341 922 1119 984 
Q 981 866 932 777 
Q 884 688 884 625 
Q 884 572 936 522 
Q 988 472 1138 450 
Q 1225 438 1575 428 
Q 2219 413 2409 384 
Q 2700 344 2873 169 
Q 3047 -6 3047 -263 
Q 3047 -616 2716 -925 
Q 2228 -1381 1444 -1381 
Q 841 -1381 425 -1109 
Q 191 -953 191 -784 
Q 191 -709 225 -634 
Q 278 -519 444 -313 
Q 466 -284 763 25 
Q 600 122 533 198 
Q 466 275 466 372 
Q 466 481 555 628 
Q 644 775 966 1044 
z
M 1509 2797 
Q 1278 2797 1122 2612 
Q 966 2428 966 2047 
Q 966 1553 1178 1281 
Q 1341 1075 1591 1075 
Q 1828 1075 1981 1253 
Q 2134 1431 2134 1813 
Q 2134 2309 1919 2591 
Q 1759 2797 1509 2797 
z
M 934 0 
Q 788 -159 713 -296 
Q 638 -434 638 -550 
Q 638 -700 819 -813 
Q 1131 -1006 1722 -1006 
Q 2284 -1006 2551 -807 
Q 2819 -609 2819 -384 
Q 2819 -222 2659 -153 
Q 2497 -84 2016 -72 
Q 1313 -53 934 0 
z
" id="TimesNewRomanPSMT-67" transform="scale(0.015625)"/>
      </defs>
      <use xlink:href="#TimesNewRomanPSMT-56"/>
      <use x="59.341797" xlink:href="#TimesNewRomanPSMT-6f"/>
      <use x="109.341797" xlink:href="#TimesNewRomanPSMT-6c"/>
      <use x="137.125" xlink:href="#TimesNewRomanPSMT-61"/>
      <use x="181.509766" xlink:href="#TimesNewRomanPSMT-74"/>
      <use x="209.292969" xlink:href="#TimesNewRomanPSMT-61"/>
      <use x="253.677734" xlink:href="#TimesNewRomanPSMT-67"/>
      <use x="303.677734" xlink:href="#TimesNewRomanPSMT-65"/>
      <use x="348.0625" xlink:href="#TimesNewRomanPSMT-20"/>
      <use x="373.0625" xlink:href="#TimesNewRomanPSMT-28"/>
      <use x="406.363281" xlink:href="#TimesNewRomanPSMT-56"/>
      <use x="478.580078" xlink:href="#TimesNewRomanPSMT-29"/>
     </g>
    </g>
   </g>
   <g id="LineCollection_1">
    <path clip-path="url(#p3b978b1d60)" d="M 78.555057 152.532214 
L 382.918693 152.532214 
" style="fill:none;stroke:#1f77b4;stroke-width:1.5;"/>
   </g>
   <g id="line2d_23">
    <path clip-path="url(#p3b978b1d60)" d="M 78.555057 152.622438 
L 81.416075 152.583414 
L 81.446511 152.505365 
L 81.507384 152.583414 
L 82.29873 152.505365 
L 82.420475 152.505365 
L 86.285893 152.427316 
L 86.407639 152.427316 
L 86.529384 152.427316 
L 88.203384 152.388292 
L 88.23382 152.310243 
L 88.294693 152.388292 
L 89.755639 152.349267 
L 89.786075 152.271219 
L 89.846948 152.310243 
L 89.968693 152.310243 
L 93.225384 152.271219 
L 93.25582 152.19317 
L 93.286257 152.310243 
L 93.316693 152.310243 
L 96.238584 152.232194 
L 96.329893 152.232194 
L 96.36033 152.310243 
L 96.451639 152.271219 
L 100.682293 152.349267 
L 100.773602 152.388292 
L 100.804039 152.271219 
L 100.895348 152.310243 
L 101.04753 152.349267 
L 101.199711 152.310243 
L 101.351893 152.349267 
L 101.534511 152.271219 
L 101.71713 152.349267 
L 101.869311 152.310243 
L 105.126002 152.232194 
L 105.278184 152.19317 
L 110.604548 152.271219 
L 110.726293 152.271219 
L 111.76113 152.310243 
L 111.791566 152.388292 
L 111.882875 152.349267 
L 112.00462 152.388292 
L 112.126366 152.349267 
L 112.248111 152.427316 
L 112.278548 152.388292 
L 112.856839 152.466341 
L 112.948148 152.505365 
L 112.978584 152.466341 
L 113.617748 152.544389 
L 113.76993 152.583414 
L 114.196039 152.622438 
L 114.287348 152.700487 
L 114.317784 152.661462 
L 114.530839 152.739511 
L 114.622148 152.778536 
L 114.652584 152.700487 
L 114.713457 152.778536 
L 114.835202 152.856584 
L 114.926511 152.778536 
L 114.956948 152.81756 
L 115.10913 152.895609 
L 115.139566 152.856584 
L 115.200439 152.934633 
L 115.717857 153.012682 
L 115.870039 153.051706 
L 115.991784 153.051706 
L 116.235275 153.129755 
L 116.387457 153.207804 
L 116.417893 153.129755 
L 116.478766 153.16878 
L 116.661384 153.246828 
L 117.11793 153.324877 
L 117.300548 153.402926 
L 117.36142 153.363902 
L 117.391857 153.402926 
L 117.544039 153.44195 
L 117.878839 153.519999 
L 118.000584 153.559023 
L 118.12233 153.559023 
L 118.45713 153.598048 
L 118.609311 153.715121 
L 118.731057 153.715121 
L 119.12673 153.79317 
L 119.309348 153.871219 
L 119.674584 153.949267 
L 119.826766 154.066341 
L 119.887639 153.988292 
L 119.918075 154.027316 
L 120.13113 154.144389 
L 120.405057 154.222438 
L 120.618111 154.378536 
L 120.648548 154.339511 
L 120.70942 154.41756 
L 120.892039 154.456584 
L 121.074657 154.651706 
L 121.165966 154.690731 
L 121.348584 154.885853 
L 122.596475 156.563901 
L 122.748657 156.876096 
L 122.992148 157.344389 
L 123.266075 157.968779 
L 123.448693 158.359023 
L 123.783493 159.21756 
L 123.905239 159.490731 
L 124.331348 160.700487 
L 124.848766 162.300487 
L 127.283675 172.095609 
L 127.74022 174.319999 
L 128.227202 176.622437 
L 129.353348 181.851705 
L 130.266439 185.754144 
L 130.540366 186.846827 
L 131.605639 190.51512 
L 131.727384 190.827315 
L 132.062184 191.685852 
L 132.975275 192.700486 
L 133.52313 192.622437 
L 134.953639 190.632193 
L 135.897166 187.93951 
L 136.44502 185.402924 
L 138.514693 171.432193 
L 139.45822 162.885852 
L 140.12782 155.939511 
L 141.710511 136.466342 
L 146.762948 66.768782 
L 148.376075 47.451713 
L 149.776148 34.183417 
L 151.206657 25.676097 
L 151.754511 23.998049 
L 151.876257 23.68586 
L 152.363239 22.71025 
L 152.758911 22.359031 
L 153.18502 22.359031 
L 153.337202 22.515119 
L 153.550257 22.866338 
L 153.580693 22.82732 
L 153.61113 22.905372 
L 154.18942 24.66147 
L 154.798148 27.432195 
L 156.654766 42.573658 
L 158.754875 70.905367 
L 162.498548 145.012682 
L 166.607457 237.305365 
L 168.494511 273.871215 
L 170.503311 303.100482 
L 171.142475 309.929757 
L 171.93382 316.993168 
L 172.390366 319.880973 
L 172.93822 322.690732 
L 173.36433 323.900478 
L 174.125239 324.72 
L 174.429602 324.680969 
L 174.70353 324.251698 
L 174.94702 323.82243 
L 175.28182 322.963899 
L 175.434002 322.61268 
L 175.70793 321.71511 
L 175.890548 321.012671 
L 176.803639 315.861457 
L 177.229748 313.12975 
L 177.686293 309.500485 
L 178.903748 297.59805 
L 182.038693 256.076093 
L 189.465166 134.124878 
L 191.626148 105.207805 
L 193.726257 82.183416 
L 194.761093 73.832194 
L 195.217639 70.202928 
L 197.226439 55.568786 
L 198.748257 48.310243 
L 199.570039 45.578536 
L 199.661348 45.344396 
L 199.996148 44.134637 
L 200.300511 43.119996 
L 200.48313 42.53464 
L 200.513566 42.53464 
L 200.696184 42.14439 
L 201.122293 41.324881 
L 201.304911 40.93464 
L 201.670148 40.232201 
L 201.883202 40.154152 
L 201.974511 40.0761 
L 201.944075 40.19317 
L 202.004948 40.115121 
L 202.15713 40.154152 
L 202.583239 40.0761 
L 202.765857 39.959033 
L 202.887602 39.998051 
L 202.978911 39.920003 
L 203.009348 39.959033 
L 203.191966 39.998051 
L 203.344148 40.19317 
L 203.678948 40.505372 
L 203.770257 40.505372 
L 203.922439 40.58342 
L 204.044184 40.58342 
L 204.805093 41.715118 
L 205.292075 42.69074 
L 205.566002 43.198048 
L 205.961675 44.290737 
L 207.392184 48.232191 
L 208.061784 50.378539 
L 208.42702 51.588298 
L 208.76182 53.071215 
L 210.040148 58.378535 
L 210.43582 60.290734 
L 210.740184 61.344392 
L 211.227166 63.295612 
L 212.231566 67.54927 
L 212.840293 70.749267 
L 213.083784 72.11512 
L 214.057748 77.656584 
L 215.275202 86.163907 
L 216.431784 95.568781 
L 217.740548 106.417561 
L 218.349275 112.232195 
L 219.931966 127.373658 
L 221.118984 139.822438 
L 222.458184 154.690731 
L 224.314802 177.090731 
L 225.83662 195.861461 
L 227.693239 220.485854 
L 229.823784 246.437069 
L 232.045639 268.095599 
L 233.476148 278.24195 
L 234.054439 281.246827 
L 234.602293 283.549263 
L 235.241457 284.915123 
L 235.424075 285.305361 
L 235.698002 285.734632 
L 235.88062 285.812681 
L 236.063239 285.734632 
L 236.184984 285.65658 
L 236.793711 284.719992 
L 237.189384 283.627312 
L 237.372002 282.885842 
L 237.737239 281.090727 
L 238.102475 279.139507 
L 238.406839 277.539511 
L 239.715602 268.446819 
L 240.263457 263.451706 
L 244.098439 218.027317 
L 244.798475 208.895604 
L 245.315893 201.71512 
L 246.68553 180.719999 
L 249.911784 132.680976 
L 250.824875 120.89561 
L 251.646657 111.763903 
L 252.37713 104.544391 
L 253.62502 94.320001 
L 253.685893 94.007806 
L 254.29462 90.183416 
L 254.933784 86.788294 
L 255.025093 86.320001 
L 255.694693 83.393175 
L 255.907748 82.57366 
L 256.63822 80.193172 
L 256.912148 79.685852 
L 257.186075 79.25659 
L 257.825239 78.593175 
L 258.190475 78.554151 
L 258.31222 78.476099 
L 258.464402 78.476099 
L 258.616584 78.319998 
L 258.677457 78.241956 
L 258.860075 78.163904 
L 259.012257 78.124879 
L 259.134002 78.046831 
L 259.286184 78.085855 
L 259.438366 78.046831 
L 259.560111 78.085855 
L 259.681857 77.968779 
L 259.834039 78.007803 
L 260.07753 77.968779 
L 260.107966 77.890736 
L 260.199275 77.929761 
L 260.564511 78.007803 
L 260.808002 78.163904 
L 260.929748 78.241956 
L 261.142802 78.359023 
L 261.203675 78.437075 
L 262.299384 79.998053 
L 264.33862 85.500492 
L 264.67342 86.710245 
L 264.947348 87.685855 
L 266.225675 92.993175 
L 266.621348 94.866342 
L 267.077893 97.051708 
L 267.990984 102.280979 
L 272.46513 131.666341 
L 273.317348 137.402927 
L 274.200002 142.437073 
L 274.565239 144.388292 
L 275.934875 150.866341 
L 278.521966 160.388292 
L 280.226402 164.485853 
L 280.896002 165.500486 
L 281.200366 166.046828 
L 281.230802 166.046828 
L 281.443857 166.476096 
L 281.50473 166.554145 
L 282.17433 167.295609 
L 282.204766 167.256584 
L 282.235202 167.295609 
L 282.448257 167.568778 
L 282.50913 167.646829 
L 282.75262 167.802926 
L 283.026548 167.84195 
L 283.056984 167.919998 
L 283.148293 167.880975 
L 284.030948 167.802926 
L 284.213566 167.646829 
L 284.244002 167.724877 
L 284.304875 167.685852 
L 284.457057 167.568778 
L 284.609239 167.49073 
L 284.76142 167.373657 
L 284.85273 167.295609 
L 286.222366 165.422438 
L 286.465857 164.876097 
L 286.52673 164.876097 
L 286.800657 164.212682 
L 287.074584 163.705365 
L 287.77462 162.183413 
L 288.018111 161.715121 
L 288.383348 161.051706 
L 288.413784 161.051706 
L 288.626839 160.583414 
L 288.687711 160.505364 
L 289.44862 159.646828 
L 289.479057 159.685853 
L 289.509493 159.646828 
L 289.661675 159.529755 
L 289.935602 159.334633 
L 290.087784 159.256584 
L 290.270402 159.178535 
L 290.361711 159.178535 
L 290.392148 159.295609 
L 290.483457 159.256584 
L 290.78782 159.490731 
L 290.87913 159.568779 
L 291.183493 159.84195 
L 291.21393 159.802926 
L 291.244366 159.84195 
L 291.54873 160.349267 
L 291.700911 160.661463 
L 292.066148 161.637072 
L 292.21833 161.988292 
L 292.55313 162.885852 
L 292.674875 163.159023 
L 292.979239 164.173657 
L 295.535893 174.398047 
L 295.962002 176.427315 
L 296.722911 179.783413 
L 296.875093 180.407802 
L 297.544693 183.334631 
L 297.757748 184.154145 
L 298.15342 185.637071 
L 298.396911 186.534632 
L 299.58393 190.671217 
L 299.857857 191.646827 
L 300.375275 193.207803 
L 300.58833 193.637071 
L 300.892693 194.378534 
L 301.744911 196.329754 
L 301.805784 196.407803 
L 302.26233 197.149266 
L 302.749311 198.124876 
L 304.362439 200.037071 
L 305.336402 199.959022 
L 305.488584 199.880973 
L 305.61033 199.959022 
L 305.792948 199.724876 
L 305.823384 199.7639 
L 305.85382 199.724876 
L 306.158184 199.217559 
L 306.219057 199.217559 
L 306.462548 198.710242 
L 306.52342 198.710242 
L 306.736475 198.280973 
L 306.979966 197.851705 
L 307.680002 195.58829 
L 307.771311 195.393168 
L 308.014802 194.651705 
L 308.380039 193.441949 
L 308.927893 191.178534 
L 309.140948 190.398047 
L 311.180184 179.471218 
L 311.697602 175.802926 
L 316.506548 139.666341 
L 318.637093 126.710243 
L 321.406802 113.012683 
L 321.619857 112.193171 
L 322.106839 110.241952 
L 325.637457 97.051708 
L 325.789639 96.739513 
L 326.063566 96.115126 
L 326.428802 95.451711 
L 327.433202 94.320001 
L 327.585384 94.241952 
L 327.798439 94.124876 
L 328.133239 94.046833 
L 328.28542 94.007806 
L 328.833275 94.046833 
L 328.924584 94.1639 
L 328.95502 94.124876 
L 329.04633 94.202928 
L 329.746366 95.256586 
L 331.72473 100.602931 
L 332.607384 103.607805 
L 332.698693 103.880976 
L 334.281384 110.398049 
L 336.381493 120.622439 
L 336.74673 122.417561 
L 337.355457 125.656585 
L 337.690257 127.373658 
L 339.029457 134.788292 
L 339.881675 139.549268 
L 342.803566 153.988292 
L 343.655784 157.695609 
L 344.234075 160.115121 
L 346.02982 166.59317 
L 346.334184 167.646829 
L 347.947311 173.461462 
L 348.03862 173.695608 
L 348.495166 175.022438 
L 349.621311 177.676096 
L 349.682184 177.754145 
L 350.199602 178.807804 
L 350.47353 179.315121 
L 350.990948 180.36878 
L 351.021384 180.36878 
L 351.204002 180.680974 
L 352.086657 181.656583 
L 352.177966 181.734633 
L 352.39102 181.851705 
L 352.695384 181.929756 
L 352.878002 182.007803 
L 352.999748 182.007803 
L 353.121493 182.085853 
L 353.273675 182.124875 
L 354.338948 182.202925 
L 354.49113 182.24195 
L 354.612875 182.24195 
L 355.130293 182.319997 
L 355.282475 182.359022 
L 355.586839 182.437072 
L 355.799893 182.554145 
L 355.891202 182.554145 
L 356.104257 182.671217 
L 356.256439 182.749267 
L 356.378184 182.866339 
L 356.49993 182.866339 
L 356.773857 183.061462 
L 356.804293 183.022437 
L 356.865166 183.100487 
L 357.047784 183.139512 
L 357.07822 183.256584 
L 357.16953 183.217559 
L 357.443457 183.412681 
L 357.50433 183.490731 
L 357.686948 183.568778 
L 357.869566 183.646829 
L 358.052184 183.724876 
L 358.386984 183.802926 
L 358.539166 183.841948 
L 358.721784 183.919998 
L 358.813093 183.959023 
L 358.84353 183.880973 
L 358.873966 183.998048 
L 358.904402 183.959023 
L 359.056584 184.03707 
L 359.208766 183.998048 
L 359.787057 184.076095 
L 359.908802 184.076095 
L 360.030548 184.076095 
L 360.121857 184.154145 
L 360.152293 184.11512 
L 360.274039 184.11512 
L 360.42622 184.076095 
L 360.608839 183.998048 
L 360.791457 183.841948 
L 360.821893 183.880973 
L 361.004511 183.802926 
L 361.278439 183.607804 
L 361.461057 183.529753 
L 361.674111 183.256584 
L 363.135057 181.227316 
L 363.43942 180.719999 
L 363.835093 180.056585 
L 364.169893 179.471218 
L 364.565566 178.807804 
L 364.77862 178.495608 
L 364.839493 178.417559 
L 365.082984 178.066339 
L 366.87873 175.919998 
L 366.939602 175.880975 
L 367.12222 175.646827 
L 367.243966 175.568779 
L 367.852693 174.944389 
L 367.88313 174.983413 
L 367.944002 174.905364 
L 368.096184 174.827315 
L 368.278802 174.749267 
L 368.400548 174.671218 
L 368.735348 174.398047 
L 368.826657 174.319999 
L 369.070148 174.124876 
L 369.100584 174.163901 
L 369.161457 174.085853 
L 369.435384 174.007803 
L 369.618002 173.929754 
L 369.739748 173.851705 
L 370.044111 173.578534 
L 370.13542 173.578534 
L 370.56153 173.188291 
L 370.713711 173.110243 
L 371.413748 172.36878 
L 371.505057 172.29073 
L 372.052911 171.744389 
L 372.14422 171.705364 
L 372.326839 171.510243 
L 373.23993 170.495608 
L 373.331239 170.417559 
L 374.15302 169.207803 
L 374.457384 168.661462 
L 374.518257 168.583414 
L 374.761748 168.154146 
L 374.974802 167.724877 
L 375.096548 167.49073 
L 375.309602 166.905364 
L 375.522657 166.476096 
L 375.857457 165.617559 
L 376.070511 165.188291 
L 376.435748 164.212682 
L 376.527057 163.939511 
L 377.348839 161.559024 
L 377.805384 160.232194 
L 378.231493 158.86634 
L 378.748911 157.305365 
L 378.84022 157.071218 
L 379.783748 153.871219 
L 380.057675 152.895609 
L 380.51422 151.100487 
L 382.462148 143.21756 
L 382.827384 141.539511 
L 382.918693 141.188293 
L 382.918693 141.188293 
" style="fill:none;stroke:#0000ff;stroke-linecap:square;stroke-width:1.5;"/>
   </g>
   <g id="line2d_24">
    <path clip-path="url(#p3b978b1d60)" d="M 78.555057 152.524877 
L 78.737675 152.505365 
L 78.920293 152.524877 
L 79.072475 152.544389 
L 79.28553 152.563902 
L 79.468148 152.563902 
L 79.650766 152.563902 
L 89.99913 152.466341 
L 90.24262 152.427316 
L 91.977493 152.329755 
L 92.160111 152.329755 
L 94.138475 152.251706 
L 94.290657 152.232194 
L 95.59942 152.154145 
L 95.751602 152.115121 
L 97.151675 152.037072 
L 97.334293 151.978536 
L 97.547348 151.998048 
L 97.760402 151.978536 
L 99.95182 152.056584 
L 100.134439 152.115121 
L 100.438802 152.212682 
L 100.590984 152.232194 
L 100.834475 152.36878 
L 101.04753 152.466341 
L 101.321457 152.661462 
L 101.443202 152.759023 
L 101.838875 153.129755 
L 102.904148 154.671219 
L 103.72593 156.485853 
L 105.64342 163.002926 
L 110.056693 182.300485 
L 111.395893 186.241949 
L 112.461166 188.056583 
L 112.613348 188.271217 
L 112.917711 188.505364 
L 113.587311 188.407803 
L 114.226475 187.880974 
L 114.987384 186.202925 
L 116.265711 181.754143 
L 117.057057 177.71512 
L 119.065857 164.154145 
L 120.831166 149.715121 
L 122.170366 137.656584 
L 123.174766 128.427317 
L 123.81393 122.651709 
L 125.792293 107.061464 
L 126.979311 100.154144 
L 127.648911 96.641955 
L 128.196766 94.085851 
L 129.596839 89.129757 
L 129.931639 88.544394 
L 131.149093 87.159025 
L 131.666511 87.061465 
L 132.549166 86.085855 
L 133.918802 86.163907 
L 134.557966 86.807806 
L 135.075384 87.041949 
L 135.227566 87.02244 
L 135.379748 87.041949 
L 135.562366 87.139516 
L 135.77542 87.393169 
L 136.171093 87.919998 
L 137.20593 88.700489 
L 137.479857 89.207809 
L 137.87553 89.949266 
L 138.179893 90.51512 
L 138.940802 93.266342 
L 139.488657 95.802925 
L 140.432184 100.524882 
L 142.836657 115.022439 
L 143.719311 122.027317 
L 146.793384 146.534633 
L 151.571893 188.427315 
L 152.667602 196.641949 
L 153.337202 200.934632 
L 154.28073 205.754144 
L 155.224257 209.500485 
L 155.680802 210.632196 
L 156.015602 211.237067 
L 156.62433 212.173659 
L 156.837384 212.271217 
L 157.080875 212.329753 
L 157.263493 212.329753 
L 157.476548 212.349269 
L 157.87222 212.251701 
L 158.146148 211.978534 
L 160.398439 207.412683 
L 162.437675 200.505363 
L 165.176948 185.89073 
L 167.824911 171.198048 
L 169.498911 166.183413 
L 170.655493 164.856584 
L 170.92942 164.954145 
L 171.35553 165.324877 
L 171.59902 165.559024 
L 171.720766 165.61756 
L 171.994693 166.027316 
L 172.238184 166.51512 
L 172.512111 167.276097 
L 172.999093 168.719999 
L 173.973057 172.212681 
L 175.586184 179.919998 
L 178.38633 198.573656 
L 179.116802 203.783412 
L 180.273384 210.49561 
L 180.821239 212.739513 
L 182.98222 220.622439 
L 183.438766 221.285854 
L 183.590948 221.344387 
L 183.74313 221.402921 
L 184.230111 221.305363 
L 184.65622 220.915119 
L 184.960584 220.349262 
L 186.147602 215.41268 
L 187.578111 204.544385 
L 188.643384 194.007803 
L 189.556475 183.510241 
L 190.34782 173.188291 
L 195.856802 93.578537 
L 197.682984 73.754151 
L 198.71782 64.232194 
L 199.600475 56.602929 
L 200.330948 51.002929 
L 201.426657 44.037072 
L 201.944075 41.949271 
L 203.039784 38.807807 
L 203.100657 38.729759 
L 204.287675 37.363911 
L 204.531166 37.500497 
L 204.74422 37.734634 
L 205.444257 39.295612 
L 205.809493 40.837076 
L 207.209566 48.583411 
L 209.948839 66.846831 
L 211.257602 76.856587 
L 212.596802 87.900489 
L 216.857893 121.52 
L 217.740548 128.446829 
L 218.988439 137.929755 
L 219.658039 142.924877 
L 220.966802 151.39317 
L 222.062511 158.339511 
L 222.792984 162.729755 
L 226.110548 181.227316 
L 227.328002 186.905364 
L 229.884657 196.329754 
L 231.102111 199.178534 
L 231.345602 199.666339 
L 232.776111 203.061464 
L 232.95873 203.432193 
L 233.384839 204.427315 
L 235.058839 209.01268 
L 235.728439 210.78829 
L 235.911057 211.198049 
L 236.337166 211.998049 
L 237.372002 213.773656 
L 237.524184 213.968775 
L 237.88942 214.456586 
L 238.132911 214.710238 
L 238.376402 214.94439 
L 238.528584 215.041948 
L 238.924257 215.178534 
L 241.32873 215.276095 
L 241.724402 215.41268 
L 241.90702 215.41268 
L 242.454875 215.510238 
L 243.00273 215.744387 
L 243.185348 215.841948 
L 244.433239 217.598046 
L 245.498511 220.037067 
L 246.228984 221.656582 
L 246.68553 222.749265 
L 247.35513 224.193171 
L 247.568184 224.641948 
L 249.120439 227.393164 
L 249.211748 227.490732 
L 250.003093 228.36878 
L 250.094402 228.388289 
L 250.337893 228.524875 
L 250.581384 228.622433 
L 251.342293 229.01268 
L 251.555348 228.993171 
L 251.677093 228.954143 
L 251.890148 228.876094 
L 252.864111 227.451707 
L 253.198911 226.593168 
L 254.538111 221.92975 
L 255.025093 219.627314 
L 255.938184 214.378534 
L 257.277384 204.173656 
L 258.768766 189.793169 
L 260.503639 168.544389 
L 262.177639 144.583414 
L 265.403893 94.651705 
L 267.35182 66.359029 
L 268.660584 50.92488 
L 270.151966 37.637079 
L 271.156366 31.861466 
L 272.556439 27.705366 
L 272.982548 27.33464 
L 273.71302 27.432195 
L 274.321748 28.388302 
L 275.05222 31.080975 
L 275.904439 35.393177 
L 277.365384 45.461466 
L 278.82633 58.554145 
L 281.535166 87.451708 
L 285.948439 137.129756 
L 290.361711 181.305364 
L 293.161857 203.724876 
L 294.13582 209.81268 
L 295.261966 215.041948 
L 296.90553 220.954143 
L 298.396911 224.524875 
L 298.57953 224.759024 
L 299.188257 225.383411 
L 299.310002 225.480972 
L 300.010039 225.812677 
L 300.223093 225.715116 
L 301.044875 225.090729 
L 302.810184 221.500488 
L 303.662402 217.793165 
L 304.332002 213.81268 
L 306.18862 199.93951 
L 309.719239 173.637071 
L 311.21062 164.778535 
L 313.828148 150.788292 
L 314.680366 146.515122 
L 315.65433 142.066341 
L 317.267457 136.27122 
L 317.632693 135.061464 
L 318.302293 132.89561 
L 320.189348 128.349267 
L 320.615457 127.315121 
L 321.285057 125.539513 
L 321.650293 124.895611 
L 324.906984 118.398049 
L 325.515711 116.54439 
L 326.002693 115.100488 
L 328.346293 108.798049 
L 328.741966 107.705366 
L 329.28982 106.280976 
L 329.442002 105.910244 
L 330.020293 104.583415 
L 330.415966 103.685851 
L 331.694293 101.461464 
L 332.424766 100.700492 
L 333.550911 100.076101 
L 333.703093 100.056586 
L 333.885711 100.037077 
L 334.250948 100.154144 
L 334.40313 100.232196 
L 334.98142 100.798049 
L 335.164039 101.032196 
L 335.711893 101.910245 
L 336.259748 103.041952 
L 336.533675 103.549266 
L 337.142402 104.817562 
L 337.690257 106.105366 
L 339.75993 113.090732 
L 341.251311 120.290732 
L 344.081893 137.227316 
L 346.547239 157.051706 
L 347.612511 165.61756 
L 351.934475 198.007803 
L 353.06062 205.18829 
L 355.586839 217.578531 
L 357.017348 221.793168 
L 357.991311 222.866341 
L 358.41742 222.963899 
L 358.691348 223.041951 
L 358.965275 222.983412 
L 359.117457 222.885851 
L 359.300075 222.671216 
L 359.939239 221.227311 
L 360.882766 217.832192 
L 362.404584 210.49561 
L 363.226366 205.734628 
L 364.504693 196.856583 
L 365.691711 187.880974 
L 366.483057 181.519998 
L 369.831057 150.515121 
L 371.56593 132.778536 
L 373.696475 114.612683 
L 376.100948 98.417562 
L 377.25753 92.388294 
L 378.079311 88.720004 
L 378.901093 85.968782 
L 379.753311 84.076099 
L 381.062075 82.57366 
L 381.366439 82.476099 
L 381.549057 82.476099 
L 381.914293 82.57366 
L 382.705639 83.19805 
L 382.918693 83.471218 
L 382.918693 83.471218 
" style="fill:none;stroke:#ff0000;stroke-linecap:square;stroke-width:1.5;"/>
   </g>
   <g id="line2d_25">
    <path clip-path="url(#p3b978b1d60)" d="M 124.48353 161.207804 
" style="fill:none;stroke:#ffffff;stroke-linecap:square;stroke-width:1.5;"/>
    <defs>
     <path d="M 0 -5 
L -1.12257 -1.545085 
L -4.755283 -1.545085 
L -1.816356 0.59017 
L -2.938926 4.045085 
L -0 1.90983 
L 2.938926 4.045085 
L 1.816356 0.59017 
L 4.755283 -1.545085 
L 1.12257 -1.545085 
z
" id="m11c18dcbd3" style="stroke:#ffffff;stroke-linejoin:bevel;"/>
    </defs>
    <g clip-path="url(#p3b978b1d60)">
     <use style="fill:#0000ff;stroke:#ffffff;stroke-linejoin:bevel;" x="124.48353" xlink:href="#m11c18dcbd3" y="161.207804"/>
    </g>
   </g>
   <g id="line2d_26">
    <path clip-path="url(#p3b978b1d60)" d="M 104.517275 158.827316 
" style="fill:none;stroke:#ffffff;stroke-linecap:square;stroke-width:1.5;"/>
    <defs>
     <path d="M 0 -5 
L -1.12257 -1.545085 
L -4.755283 -1.545085 
L -1.816356 0.59017 
L -2.938926 4.045085 
L -0 1.90983 
L 2.938926 4.045085 
L 1.816356 0.59017 
L 4.755283 -1.545085 
L 1.12257 -1.545085 
z
" id="mef3b127b70" style="stroke:#ffffff;stroke-linejoin:bevel;"/>
    </defs>
    <g clip-path="url(#p3b978b1d60)">
     <use style="fill:#ff0000;stroke:#ffffff;stroke-linejoin:bevel;" x="104.517275" xlink:href="#mef3b127b70" y="158.827316"/>
    </g>
   </g>
   <g id="patch_3">
    <path d="M 63.336875 339.84 
L 63.336875 7.2 
" style="fill:none;stroke:#000000;stroke-linecap:square;stroke-linejoin:miter;stroke-width:0.8;"/>
   </g>
   <g id="patch_4">
    <path d="M 398.136875 339.84 
L 398.136875 7.2 
" style="fill:none;stroke:#000000;stroke-linecap:square;stroke-linejoin:miter;stroke-width:0.8;"/>
   </g>
   <g id="patch_5">
    <path d="M 63.336875 339.84 
L 398.136875 339.84 
" style="fill:none;stroke:#000000;stroke-linecap:square;stroke-linejoin:miter;stroke-width:0.8;"/>
   </g>
   <g id="patch_6">
    <path d="M 63.336875 7.2 
L 398.136875 7.2 
" style="fill:none;stroke:#000000;stroke-linecap:square;stroke-linejoin:miter;stroke-width:0.8;"/>
   </g>
   <g id="text_14">
    <g id="patch_7">
     <path d="M 75.036875 331.242688 
L 166.79375 331.242688 
L 166.79375 293.760312 
L 75.036875 293.760312 
z
" style="fill:#ffffff;stroke:#000000;stroke-linejoin:miter;stroke-width:0.75;"/>
    </g>
    <!-- Auto_00123 -->
    <g transform="translate(80.076875 308.521563)scale(0.14 -0.14)">
     <defs>
      <path d="M 2928 1419 
L 1288 1419 
L 1000 750 
Q 894 503 894 381 
Q 894 284 986 211 
Q 1078 138 1384 116 
L 1384 0 
L 50 0 
L 50 116 
Q 316 163 394 238 
Q 553 388 747 847 
L 2238 4334 
L 2347 4334 
L 3822 809 
Q 4000 384 4145 257 
Q 4291 131 4550 116 
L 4550 0 
L 2878 0 
L 2878 116 
Q 3131 128 3220 200 
Q 3309 272 3309 375 
Q 3309 513 3184 809 
L 2928 1419 
z
M 2841 1650 
L 2122 3363 
L 1384 1650 
L 2841 1650 
z
" id="TimesNewRomanPSMT-41" transform="scale(0.015625)"/>
      <path d="M 2709 2863 
L 2709 1128 
Q 2709 631 2732 520 
Q 2756 409 2807 365 
Q 2859 322 2928 322 
Q 3025 322 3147 375 
L 3191 266 
L 2334 -88 
L 2194 -88 
L 2194 519 
Q 1825 119 1631 15 
Q 1438 -88 1222 -88 
Q 981 -88 804 51 
Q 628 191 559 409 
Q 491 628 491 1028 
L 491 2306 
Q 491 2509 447 2587 
Q 403 2666 317 2708 
Q 231 2750 6 2747 
L 6 2863 
L 1009 2863 
L 1009 947 
Q 1009 547 1148 422 
Q 1288 297 1484 297 
Q 1619 297 1789 381 
Q 1959 466 2194 703 
L 2194 2325 
Q 2194 2569 2105 2655 
Q 2016 2741 1734 2747 
L 1734 2863 
L 2709 2863 
z
" id="TimesNewRomanPSMT-75" transform="scale(0.015625)"/>
      <path d="M 3256 -1381 
L -53 -1381 
L -53 -1119 
L 3256 -1119 
L 3256 -1381 
z
" id="TimesNewRomanPSMT-5f" transform="scale(0.015625)"/>
     </defs>
     <use xlink:href="#TimesNewRomanPSMT-41"/>
     <use x="72.216797" xlink:href="#TimesNewRomanPSMT-75"/>
     <use x="122.216797" xlink:href="#TimesNewRomanPSMT-74"/>
     <use x="150" xlink:href="#TimesNewRomanPSMT-6f"/>
     <use x="200" xlink:href="#TimesNewRomanPSMT-5f"/>
     <use x="250" xlink:href="#TimesNewRomanPSMT-30"/>
     <use x="300" xlink:href="#TimesNewRomanPSMT-30"/>
     <use x="350" xlink:href="#TimesNewRomanPSMT-31"/>
     <use x="400" xlink:href="#TimesNewRomanPSMT-32"/>
     <use x="450" xlink:href="#TimesNewRomanPSMT-33"/>
    </g>
    <!-- Vs: 304.70m/s -->
    <g transform="translate(80.076875 323.208)scale(0.14 -0.14)">
     <defs>
      <path d="M 903 2950 
Q 1047 2950 1148 2848 
Q 1250 2747 1250 2603 
Q 1250 2459 1148 2357 
Q 1047 2256 903 2256 
Q 759 2256 657 2357 
Q 556 2459 556 2603 
Q 556 2747 657 2848 
Q 759 2950 903 2950 
z
M 897 609 
Q 1044 609 1145 506 
Q 1247 403 1247 259 
Q 1247 116 1144 14 
Q 1041 -88 897 -88 
Q 753 -88 651 14 
Q 550 116 550 259 
Q 550 403 651 506 
Q 753 609 897 609 
z
" id="TimesNewRomanPSMT-3a" transform="scale(0.015625)"/>
      <path d="M 644 4238 
L 2916 4238 
L 2916 4119 
L 1503 -88 
L 1153 -88 
L 2419 3728 
L 1253 3728 
Q 900 3728 750 3644 
Q 488 3500 328 3200 
L 238 3234 
L 644 4238 
z
" id="TimesNewRomanPSMT-37" transform="scale(0.015625)"/>
      <path d="M 1794 4444 
L 259 -88 
L 9 -88 
L 1544 4444 
L 1794 4444 
z
" id="TimesNewRomanPSMT-2f" transform="scale(0.015625)"/>
     </defs>
     <use xlink:href="#TimesNewRomanPSMT-56"/>
     <use x="72.216797" xlink:href="#TimesNewRomanPSMT-73"/>
     <use x="111.132812" xlink:href="#TimesNewRomanPSMT-3a"/>
     <use x="138.916016" xlink:href="#TimesNewRomanPSMT-20"/>
     <use x="163.916016" xlink:href="#TimesNewRomanPSMT-33"/>
     <use x="213.916016" xlink:href="#TimesNewRomanPSMT-30"/>
     <use x="263.916016" xlink:href="#TimesNewRomanPSMT-34"/>
     <use x="313.916016" xlink:href="#TimesNewRomanPSMT-2e"/>
     <use x="338.916016" xlink:href="#TimesNewRomanPSMT-37"/>
     <use x="388.916016" xlink:href="#TimesNewRomanPSMT-30"/>
     <use x="438.916016" xlink:href="#TimesNewRomanPSMT-6d"/>
     <use x="516.699219" xlink:href="#TimesNewRomanPSMT-2f"/>
     <use x="544.482422" xlink:href="#TimesNewRomanPSMT-73"/>
    </g>
   </g>
  </g>
 </g>
 <defs>
  <clipPath id="p3b978b1d60">
   <rect height="332.64" width="334.8" x="63.336875" y="7.2"/>
  </clipPath>
 </defs>
</svg>
