<?xml version="1.0" encoding="utf-8" standalone="no"?>
<!DOCTYPE svg PUBLIC "-//W3C//DTD SVG 1.1//EN"
  "http://www.w3.org/Graphics/SVG/1.1/DTD/svg11.dtd">
<svg height="383.471875pt" version="1.1" viewBox="0 0 421.086875 383.471875" width="421.086875pt" xmlns="http://www.w3.org/2000/svg" xmlns:xlink="http://www.w3.org/1999/xlink">
 <metadata>
  <rdf:RDF xmlns:cc="http://creativecommons.org/ns#" xmlns:dc="http://purl.org/dc/elements/1.1/" xmlns:rdf="http://www.w3.org/1999/02/22-rdf-syntax-ns#">
   <cc:Work>
    <dc:type rdf:resource="http://purl.org/dc/dcmitype/StillImage"/>
    <dc:date>2021-06-11T14:39:37.592708</dc:date>
    <dc:format>image/svg+xml</dc:format>
    <dc:creator>
     <cc:Agent>
      <dc:title>Matplotlib v3.4.2, https://matplotlib.org/</dc:title>
     </cc:Agent>
    </dc:creator>
   </cc:Work>
  </rdf:RDF>
 </metadata>
 <defs>
  <style type="text/css">*{stroke-linecap:butt;stroke-linejoin:round;}</style>
 </defs>
 <g id="figure_1">
  <g id="patch_1">
   <path d="M 0 383.471875 
L 421.086875 383.471875 
L 421.086875 0 
L 0 0 
z
" style="fill:#ffffff;"/>
  </g>
  <g id="axes_1">
   <g id="patch_2">
    <path d="M 63.336875 339.84 
L 398.136875 339.84 
L 398.136875 7.2 
L 63.336875 7.2 
z
" style="fill:#ffffff;"/>
   </g>
   <g id="matplotlib.axis_1">
    <g id="xtick_1">
     <g id="line2d_1">
      <path clip-path="url(#p0392dc8110)" d="M 93.773239 339.84 
L 93.773239 7.2 
" style="fill:none;stroke:#000000;stroke-dasharray:0.5,0.825;stroke-dashoffset:0;stroke-width:0.5;"/>
     </g>
     <g id="line2d_2">
      <defs>
       <path d="M 0 0 
L 0 3.5 
" id="m09b9c36b29" style="stroke:#000000;stroke-width:0.8;"/>
      </defs>
      <g>
       <use style="stroke:#000000;stroke-width:0.8;" x="93.773239" xlink:href="#m09b9c36b29" y="339.84"/>
      </g>
     </g>
     <g id="text_1">
      <!-- 0.000 -->
      <g transform="translate(78.023239 356.56125)scale(0.14 -0.14)">
       <defs>
        <path d="M 231 2094 
Q 231 2819 450 3342 
Q 669 3866 1031 4122 
Q 1313 4325 1613 4325 
Q 2100 4325 2488 3828 
Q 2972 3213 2972 2159 
Q 2972 1422 2759 906 
Q 2547 391 2217 158 
Q 1888 -75 1581 -75 
Q 975 -75 572 641 
Q 231 1244 231 2094 
z
M 844 2016 
Q 844 1141 1059 588 
Q 1238 122 1591 122 
Q 1759 122 1940 273 
Q 2122 425 2216 781 
Q 2359 1319 2359 2297 
Q 2359 3022 2209 3506 
Q 2097 3866 1919 4016 
Q 1791 4119 1609 4119 
Q 1397 4119 1231 3928 
Q 1006 3669 925 3112 
Q 844 2556 844 2016 
z
" id="TimesNewRomanPSMT-30" transform="scale(0.015625)"/>
        <path d="M 800 606 
Q 947 606 1047 504 
Q 1147 403 1147 259 
Q 1147 116 1045 14 
Q 944 -88 800 -88 
Q 656 -88 554 14 
Q 453 116 453 259 
Q 453 406 554 506 
Q 656 606 800 606 
z
" id="TimesNewRomanPSMT-2e" transform="scale(0.015625)"/>
       </defs>
       <use xlink:href="#TimesNewRomanPSMT-30"/>
       <use x="50" xlink:href="#TimesNewRomanPSMT-2e"/>
       <use x="75" xlink:href="#TimesNewRomanPSMT-30"/>
       <use x="125" xlink:href="#TimesNewRomanPSMT-30"/>
       <use x="175" xlink:href="#TimesNewRomanPSMT-30"/>
      </g>
     </g>
    </g>
    <g id="xtick_2">
     <g id="line2d_3">
      <path clip-path="url(#p0392dc8110)" d="M 154.645966 339.84 
L 154.645966 7.2 
" style="fill:none;stroke:#000000;stroke-dasharray:0.5,0.825;stroke-dashoffset:0;stroke-width:0.5;"/>
     </g>
     <g id="line2d_4">
      <g>
       <use style="stroke:#000000;stroke-width:0.8;" x="154.645966" xlink:href="#m09b9c36b29" y="339.84"/>
      </g>
     </g>
     <g id="text_2">
      <!-- 0.001 -->
      <g transform="translate(138.895966 356.56125)scale(0.14 -0.14)">
       <defs>
        <path d="M 750 3822 
L 1781 4325 
L 1884 4325 
L 1884 747 
Q 1884 391 1914 303 
Q 1944 216 2037 169 
Q 2131 122 2419 116 
L 2419 0 
L 825 0 
L 825 116 
Q 1125 122 1212 167 
Q 1300 213 1334 289 
Q 1369 366 1369 747 
L 1369 3034 
Q 1369 3497 1338 3628 
Q 1316 3728 1258 3775 
Q 1200 3822 1119 3822 
Q 1003 3822 797 3725 
L 750 3822 
z
" id="TimesNewRomanPSMT-31" transform="scale(0.015625)"/>
       </defs>
       <use xlink:href="#TimesNewRomanPSMT-30"/>
       <use x="50" xlink:href="#TimesNewRomanPSMT-2e"/>
       <use x="75" xlink:href="#TimesNewRomanPSMT-30"/>
       <use x="125" xlink:href="#TimesNewRomanPSMT-30"/>
       <use x="175" xlink:href="#TimesNewRomanPSMT-31"/>
      </g>
     </g>
    </g>
    <g id="xtick_3">
     <g id="line2d_5">
      <path clip-path="url(#p0392dc8110)" d="M 215.518693 339.84 
L 215.518693 7.2 
" style="fill:none;stroke:#000000;stroke-dasharray:0.5,0.825;stroke-dashoffset:0;stroke-width:0.5;"/>
     </g>
     <g id="line2d_6">
      <g>
       <use style="stroke:#000000;stroke-width:0.8;" x="215.518693" xlink:href="#m09b9c36b29" y="339.84"/>
      </g>
     </g>
     <g id="text_3">
      <!-- 0.002 -->
      <g transform="translate(199.768693 356.56125)scale(0.14 -0.14)">
       <defs>
        <path d="M 2934 816 
L 2638 0 
L 138 0 
L 138 116 
Q 1241 1122 1691 1759 
Q 2141 2397 2141 2925 
Q 2141 3328 1894 3587 
Q 1647 3847 1303 3847 
Q 991 3847 742 3664 
Q 494 3481 375 3128 
L 259 3128 
Q 338 3706 661 4015 
Q 984 4325 1469 4325 
Q 1984 4325 2329 3994 
Q 2675 3663 2675 3213 
Q 2675 2891 2525 2569 
Q 2294 2063 1775 1497 
Q 997 647 803 472 
L 1909 472 
Q 2247 472 2383 497 
Q 2519 522 2628 598 
Q 2738 675 2819 816 
L 2934 816 
z
" id="TimesNewRomanPSMT-32" transform="scale(0.015625)"/>
       </defs>
       <use xlink:href="#TimesNewRomanPSMT-30"/>
       <use x="50" xlink:href="#TimesNewRomanPSMT-2e"/>
       <use x="75" xlink:href="#TimesNewRomanPSMT-30"/>
       <use x="125" xlink:href="#TimesNewRomanPSMT-30"/>
       <use x="175" xlink:href="#TimesNewRomanPSMT-32"/>
      </g>
     </g>
    </g>
    <g id="xtick_4">
     <g id="line2d_7">
      <path clip-path="url(#p0392dc8110)" d="M 276.39142 339.84 
L 276.39142 7.2 
" style="fill:none;stroke:#000000;stroke-dasharray:0.5,0.825;stroke-dashoffset:0;stroke-width:0.5;"/>
     </g>
     <g id="line2d_8">
      <g>
       <use style="stroke:#000000;stroke-width:0.8;" x="276.39142" xlink:href="#m09b9c36b29" y="339.84"/>
      </g>
     </g>
     <g id="text_4">
      <!-- 0.003 -->
      <g transform="translate(260.64142 356.56125)scale(0.14 -0.14)">
       <defs>
        <path d="M 325 3431 
Q 506 3859 782 4092 
Q 1059 4325 1472 4325 
Q 1981 4325 2253 3994 
Q 2459 3747 2459 3466 
Q 2459 3003 1878 2509 
Q 2269 2356 2469 2072 
Q 2669 1788 2669 1403 
Q 2669 853 2319 450 
Q 1863 -75 997 -75 
Q 569 -75 414 31 
Q 259 138 259 259 
Q 259 350 332 419 
Q 406 488 509 488 
Q 588 488 669 463 
Q 722 447 909 348 
Q 1097 250 1169 231 
Q 1284 197 1416 197 
Q 1734 197 1970 444 
Q 2206 691 2206 1028 
Q 2206 1275 2097 1509 
Q 2016 1684 1919 1775 
Q 1784 1900 1550 2001 
Q 1316 2103 1072 2103 
L 972 2103 
L 972 2197 
Q 1219 2228 1467 2375 
Q 1716 2522 1828 2728 
Q 1941 2934 1941 3181 
Q 1941 3503 1739 3701 
Q 1538 3900 1238 3900 
Q 753 3900 428 3381 
L 325 3431 
z
" id="TimesNewRomanPSMT-33" transform="scale(0.015625)"/>
       </defs>
       <use xlink:href="#TimesNewRomanPSMT-30"/>
       <use x="50" xlink:href="#TimesNewRomanPSMT-2e"/>
       <use x="75" xlink:href="#TimesNewRomanPSMT-30"/>
       <use x="125" xlink:href="#TimesNewRomanPSMT-30"/>
       <use x="175" xlink:href="#TimesNewRomanPSMT-33"/>
      </g>
     </g>
    </g>
    <g id="xtick_5">
     <g id="line2d_9">
      <path clip-path="url(#p0392dc8110)" d="M 337.264148 339.84 
L 337.264148 7.2 
" style="fill:none;stroke:#000000;stroke-dasharray:0.5,0.825;stroke-dashoffset:0;stroke-width:0.5;"/>
     </g>
     <g id="line2d_10">
      <g>
       <use style="stroke:#000000;stroke-width:0.8;" x="337.264148" xlink:href="#m09b9c36b29" y="339.84"/>
      </g>
     </g>
     <g id="text_5">
      <!-- 0.004 -->
      <g transform="translate(321.514148 356.56125)scale(0.14 -0.14)">
       <defs>
        <path d="M 2978 1563 
L 2978 1119 
L 2409 1119 
L 2409 0 
L 1894 0 
L 1894 1119 
L 100 1119 
L 100 1519 
L 2066 4325 
L 2409 4325 
L 2409 1563 
L 2978 1563 
z
M 1894 1563 
L 1894 3666 
L 406 1563 
L 1894 1563 
z
" id="TimesNewRomanPSMT-34" transform="scale(0.015625)"/>
       </defs>
       <use xlink:href="#TimesNewRomanPSMT-30"/>
       <use x="50" xlink:href="#TimesNewRomanPSMT-2e"/>
       <use x="75" xlink:href="#TimesNewRomanPSMT-30"/>
       <use x="125" xlink:href="#TimesNewRomanPSMT-30"/>
       <use x="175" xlink:href="#TimesNewRomanPSMT-34"/>
      </g>
     </g>
    </g>
    <g id="xtick_6">
     <g id="line2d_11">
      <path clip-path="url(#p0392dc8110)" d="M 398.136875 339.84 
L 398.136875 7.2 
" style="fill:none;stroke:#000000;stroke-dasharray:0.5,0.825;stroke-dashoffset:0;stroke-width:0.5;"/>
     </g>
     <g id="line2d_12">
      <g>
       <use style="stroke:#000000;stroke-width:0.8;" x="398.136875" xlink:href="#m09b9c36b29" y="339.84"/>
      </g>
     </g>
     <g id="text_6">
      <!-- 0.005 -->
      <g transform="translate(382.386875 356.56125)scale(0.14 -0.14)">
       <defs>
        <path d="M 2778 4238 
L 2534 3706 
L 1259 3706 
L 981 3138 
Q 1809 3016 2294 2522 
Q 2709 2097 2709 1522 
Q 2709 1188 2573 903 
Q 2438 619 2231 419 
Q 2025 219 1772 97 
Q 1413 -75 1034 -75 
Q 653 -75 479 54 
Q 306 184 306 341 
Q 306 428 378 495 
Q 450 563 559 563 
Q 641 563 702 538 
Q 763 513 909 409 
Q 1144 247 1384 247 
Q 1750 247 2026 523 
Q 2303 800 2303 1197 
Q 2303 1581 2056 1914 
Q 1809 2247 1375 2428 
Q 1034 2569 447 2591 
L 1259 4238 
L 2778 4238 
z
" id="TimesNewRomanPSMT-35" transform="scale(0.015625)"/>
       </defs>
       <use xlink:href="#TimesNewRomanPSMT-30"/>
       <use x="50" xlink:href="#TimesNewRomanPSMT-2e"/>
       <use x="75" xlink:href="#TimesNewRomanPSMT-30"/>
       <use x="125" xlink:href="#TimesNewRomanPSMT-30"/>
       <use x="175" xlink:href="#TimesNewRomanPSMT-35"/>
      </g>
     </g>
    </g>
    <g id="text_7">
     <!-- Time (sec) -->
     <g transform="translate(200.858906 373.277188)scale(0.14 -0.14)">
      <defs>
       <path d="M 3703 4238 
L 3750 3244 
L 3631 3244 
Q 3597 3506 3538 3619 
Q 3441 3800 3280 3886 
Q 3119 3972 2856 3972 
L 2259 3972 
L 2259 734 
Q 2259 344 2344 247 
Q 2463 116 2709 116 
L 2856 116 
L 2856 0 
L 1059 0 
L 1059 116 
L 1209 116 
Q 1478 116 1591 278 
Q 1659 378 1659 734 
L 1659 3972 
L 1150 3972 
Q 853 3972 728 3928 
Q 566 3869 450 3700 
Q 334 3531 313 3244 
L 194 3244 
L 244 4238 
L 3703 4238 
z
" id="TimesNewRomanPSMT-54" transform="scale(0.015625)"/>
       <path d="M 928 4444 
Q 1059 4444 1151 4351 
Q 1244 4259 1244 4128 
Q 1244 3997 1151 3903 
Q 1059 3809 928 3809 
Q 797 3809 703 3903 
Q 609 3997 609 4128 
Q 609 4259 701 4351 
Q 794 4444 928 4444 
z
M 1188 2947 
L 1188 647 
Q 1188 378 1227 289 
Q 1266 200 1342 156 
Q 1419 113 1622 113 
L 1622 0 
L 231 0 
L 231 113 
Q 441 113 512 153 
Q 584 194 626 287 
Q 669 381 669 647 
L 669 1750 
Q 669 2216 641 2353 
Q 619 2453 572 2492 
Q 525 2531 444 2531 
Q 356 2531 231 2484 
L 188 2597 
L 1050 2947 
L 1188 2947 
z
" id="TimesNewRomanPSMT-69" transform="scale(0.015625)"/>
       <path d="M 1050 2338 
Q 1363 2650 1419 2697 
Q 1559 2816 1721 2881 
Q 1884 2947 2044 2947 
Q 2313 2947 2506 2790 
Q 2700 2634 2766 2338 
Q 3088 2713 3309 2830 
Q 3531 2947 3766 2947 
Q 3994 2947 4170 2830 
Q 4347 2713 4450 2447 
Q 4519 2266 4519 1878 
L 4519 647 
Q 4519 378 4559 278 
Q 4591 209 4675 161 
Q 4759 113 4950 113 
L 4950 0 
L 3538 0 
L 3538 113 
L 3597 113 
Q 3781 113 3884 184 
Q 3956 234 3988 344 
Q 4000 397 4000 647 
L 4000 1878 
Q 4000 2228 3916 2372 
Q 3794 2572 3525 2572 
Q 3359 2572 3192 2489 
Q 3025 2406 2788 2181 
L 2781 2147 
L 2788 2013 
L 2788 647 
Q 2788 353 2820 281 
Q 2853 209 2943 161 
Q 3034 113 3253 113 
L 3253 0 
L 1806 0 
L 1806 113 
Q 2044 113 2133 169 
Q 2222 225 2256 338 
Q 2272 391 2272 647 
L 2272 1878 
Q 2272 2228 2169 2381 
Q 2031 2581 1784 2581 
Q 1616 2581 1450 2491 
Q 1191 2353 1050 2181 
L 1050 647 
Q 1050 366 1089 281 
Q 1128 197 1204 155 
Q 1281 113 1516 113 
L 1516 0 
L 100 0 
L 100 113 
Q 297 113 375 155 
Q 453 197 493 289 
Q 534 381 534 647 
L 534 1741 
Q 534 2213 506 2350 
Q 484 2453 437 2492 
Q 391 2531 309 2531 
Q 222 2531 100 2484 
L 53 2597 
L 916 2947 
L 1050 2947 
L 1050 2338 
z
" id="TimesNewRomanPSMT-6d" transform="scale(0.015625)"/>
       <path d="M 681 1784 
Q 678 1147 991 784 
Q 1303 422 1725 422 
Q 2006 422 2214 576 
Q 2422 731 2563 1106 
L 2659 1044 
Q 2594 616 2278 264 
Q 1963 -88 1488 -88 
Q 972 -88 605 314 
Q 238 716 238 1394 
Q 238 2128 614 2539 
Q 991 2950 1559 2950 
Q 2041 2950 2350 2633 
Q 2659 2316 2659 1784 
L 681 1784 
z
M 681 1966 
L 2006 1966 
Q 1991 2241 1941 2353 
Q 1863 2528 1708 2628 
Q 1553 2728 1384 2728 
Q 1125 2728 920 2526 
Q 716 2325 681 1966 
z
" id="TimesNewRomanPSMT-65" transform="scale(0.015625)"/>
       <path id="TimesNewRomanPSMT-20" transform="scale(0.015625)"/>
       <path d="M 1988 -1253 
L 1988 -1369 
Q 1516 -1131 1200 -813 
Q 750 -359 506 256 
Q 263 872 263 1534 
Q 263 2503 741 3301 
Q 1219 4100 1988 4444 
L 1988 4313 
Q 1603 4100 1356 3731 
Q 1109 3363 987 2797 
Q 866 2231 866 1616 
Q 866 947 969 400 
Q 1050 -31 1165 -292 
Q 1281 -553 1476 -793 
Q 1672 -1034 1988 -1253 
z
" id="TimesNewRomanPSMT-28" transform="scale(0.015625)"/>
       <path d="M 2050 2947 
L 2050 1972 
L 1947 1972 
Q 1828 2431 1642 2597 
Q 1456 2763 1169 2763 
Q 950 2763 815 2647 
Q 681 2531 681 2391 
Q 681 2216 781 2091 
Q 878 1963 1175 1819 
L 1631 1597 
Q 2266 1288 2266 781 
Q 2266 391 1970 151 
Q 1675 -88 1309 -88 
Q 1047 -88 709 6 
Q 606 38 541 38 
Q 469 38 428 -44 
L 325 -44 
L 325 978 
L 428 978 
Q 516 541 762 319 
Q 1009 97 1316 97 
Q 1531 97 1667 223 
Q 1803 350 1803 528 
Q 1803 744 1651 891 
Q 1500 1038 1047 1263 
Q 594 1488 453 1669 
Q 313 1847 313 2119 
Q 313 2472 555 2709 
Q 797 2947 1181 2947 
Q 1350 2947 1591 2875 
Q 1750 2828 1803 2828 
Q 1853 2828 1881 2850 
Q 1909 2872 1947 2947 
L 2050 2947 
z
" id="TimesNewRomanPSMT-73" transform="scale(0.015625)"/>
       <path d="M 2631 1088 
Q 2516 522 2178 217 
Q 1841 -88 1431 -88 
Q 944 -88 581 321 
Q 219 731 219 1428 
Q 219 2103 620 2525 
Q 1022 2947 1584 2947 
Q 2006 2947 2278 2723 
Q 2550 2500 2550 2259 
Q 2550 2141 2473 2067 
Q 2397 1994 2259 1994 
Q 2075 1994 1981 2113 
Q 1928 2178 1911 2362 
Q 1894 2547 1784 2644 
Q 1675 2738 1481 2738 
Q 1169 2738 978 2506 
Q 725 2200 725 1697 
Q 725 1184 976 792 
Q 1228 400 1656 400 
Q 1963 400 2206 609 
Q 2378 753 2541 1131 
L 2631 1088 
z
" id="TimesNewRomanPSMT-63" transform="scale(0.015625)"/>
       <path d="M 144 4313 
L 144 4444 
Q 619 4209 934 3891 
Q 1381 3434 1625 2820 
Q 1869 2206 1869 1541 
Q 1869 572 1392 -226 
Q 916 -1025 144 -1369 
L 144 -1253 
Q 528 -1038 776 -670 
Q 1025 -303 1145 264 
Q 1266 831 1266 1447 
Q 1266 2113 1163 2663 
Q 1084 3094 967 3353 
Q 850 3613 656 3853 
Q 463 4094 144 4313 
z
" id="TimesNewRomanPSMT-29" transform="scale(0.015625)"/>
      </defs>
      <use xlink:href="#TimesNewRomanPSMT-54"/>
      <use x="57.583984" xlink:href="#TimesNewRomanPSMT-69"/>
      <use x="85.367188" xlink:href="#TimesNewRomanPSMT-6d"/>
      <use x="163.150391" xlink:href="#TimesNewRomanPSMT-65"/>
      <use x="207.535156" xlink:href="#TimesNewRomanPSMT-20"/>
      <use x="232.535156" xlink:href="#TimesNewRomanPSMT-28"/>
      <use x="265.835938" xlink:href="#TimesNewRomanPSMT-73"/>
      <use x="304.751953" xlink:href="#TimesNewRomanPSMT-65"/>
      <use x="349.136719" xlink:href="#TimesNewRomanPSMT-63"/>
      <use x="393.521484" xlink:href="#TimesNewRomanPSMT-29"/>
     </g>
    </g>
   </g>
   <g id="matplotlib.axis_2">
    <g id="ytick_1">
     <g id="line2d_13">
      <path clip-path="url(#p0392dc8110)" d="M 63.336875 336.981699 
L 398.136875 336.981699 
" style="fill:none;stroke:#000000;stroke-dasharray:0.5,0.825;stroke-dashoffset:0;stroke-width:0.5;"/>
     </g>
     <g id="line2d_14">
      <defs>
       <path d="M 0 0 
L -3.5 0 
" id="mac29148510" style="stroke:#000000;stroke-width:0.8;"/>
      </defs>
      <g>
       <use style="stroke:#000000;stroke-width:0.8;" x="63.336875" xlink:href="#mac29148510" y="336.981699"/>
      </g>
     </g>
     <g id="text_8">
      <!-- −0.06 -->
      <g transform="translate(23.942188 341.842324)scale(0.14 -0.14)">
       <defs>
        <path d="M 3484 2000 
L 116 2000 
L 116 2256 
L 3484 2256 
L 3484 2000 
z
" id="TimesNewRomanPSMT-2212" transform="scale(0.015625)"/>
        <path d="M 2869 4325 
L 2869 4209 
Q 2456 4169 2195 4045 
Q 1934 3922 1679 3669 
Q 1425 3416 1258 3105 
Q 1091 2794 978 2366 
Q 1428 2675 1881 2675 
Q 2316 2675 2634 2325 
Q 2953 1975 2953 1425 
Q 2953 894 2631 456 
Q 2244 -75 1606 -75 
Q 1172 -75 869 213 
Q 275 772 275 1663 
Q 275 2231 503 2743 
Q 731 3256 1154 3653 
Q 1578 4050 1965 4187 
Q 2353 4325 2688 4325 
L 2869 4325 
z
M 925 2138 
Q 869 1716 869 1456 
Q 869 1156 980 804 
Q 1091 453 1309 247 
Q 1469 100 1697 100 
Q 1969 100 2183 356 
Q 2397 613 2397 1088 
Q 2397 1622 2184 2012 
Q 1972 2403 1581 2403 
Q 1463 2403 1327 2353 
Q 1191 2303 925 2138 
z
" id="TimesNewRomanPSMT-36" transform="scale(0.015625)"/>
       </defs>
       <use xlink:href="#TimesNewRomanPSMT-2212"/>
       <use x="56.396484" xlink:href="#TimesNewRomanPSMT-30"/>
       <use x="106.396484" xlink:href="#TimesNewRomanPSMT-2e"/>
       <use x="131.396484" xlink:href="#TimesNewRomanPSMT-30"/>
       <use x="181.396484" xlink:href="#TimesNewRomanPSMT-36"/>
      </g>
     </g>
    </g>
    <g id="ytick_2">
     <g id="line2d_15">
      <path clip-path="url(#p0392dc8110)" d="M 63.336875 275.038286 
L 398.136875 275.038286 
" style="fill:none;stroke:#000000;stroke-dasharray:0.5,0.825;stroke-dashoffset:0;stroke-width:0.5;"/>
     </g>
     <g id="line2d_16">
      <g>
       <use style="stroke:#000000;stroke-width:0.8;" x="63.336875" xlink:href="#mac29148510" y="275.038286"/>
      </g>
     </g>
     <g id="text_9">
      <!-- −0.04 -->
      <g transform="translate(23.942188 279.898911)scale(0.14 -0.14)">
       <use xlink:href="#TimesNewRomanPSMT-2212"/>
       <use x="56.396484" xlink:href="#TimesNewRomanPSMT-30"/>
       <use x="106.396484" xlink:href="#TimesNewRomanPSMT-2e"/>
       <use x="131.396484" xlink:href="#TimesNewRomanPSMT-30"/>
       <use x="181.396484" xlink:href="#TimesNewRomanPSMT-34"/>
      </g>
     </g>
    </g>
    <g id="ytick_3">
     <g id="line2d_17">
      <path clip-path="url(#p0392dc8110)" d="M 63.336875 213.094872 
L 398.136875 213.094872 
" style="fill:none;stroke:#000000;stroke-dasharray:0.5,0.825;stroke-dashoffset:0;stroke-width:0.5;"/>
     </g>
     <g id="line2d_18">
      <g>
       <use style="stroke:#000000;stroke-width:0.8;" x="63.336875" xlink:href="#mac29148510" y="213.094872"/>
      </g>
     </g>
     <g id="text_10">
      <!-- −0.02 -->
      <g transform="translate(23.942188 217.955497)scale(0.14 -0.14)">
       <use xlink:href="#TimesNewRomanPSMT-2212"/>
       <use x="56.396484" xlink:href="#TimesNewRomanPSMT-30"/>
       <use x="106.396484" xlink:href="#TimesNewRomanPSMT-2e"/>
       <use x="131.396484" xlink:href="#TimesNewRomanPSMT-30"/>
       <use x="181.396484" xlink:href="#TimesNewRomanPSMT-32"/>
      </g>
     </g>
    </g>
    <g id="ytick_4">
     <g id="line2d_19">
      <path clip-path="url(#p0392dc8110)" d="M 63.336875 151.151459 
L 398.136875 151.151459 
" style="fill:none;stroke:#000000;stroke-dasharray:0.5,0.825;stroke-dashoffset:0;stroke-width:0.5;"/>
     </g>
     <g id="line2d_20">
      <g>
       <use style="stroke:#000000;stroke-width:0.8;" x="63.336875" xlink:href="#mac29148510" y="151.151459"/>
      </g>
     </g>
     <g id="text_11">
      <!-- 0.00 -->
      <g transform="translate(31.836875 156.012084)scale(0.14 -0.14)">
       <use xlink:href="#TimesNewRomanPSMT-30"/>
       <use x="50" xlink:href="#TimesNewRomanPSMT-2e"/>
       <use x="75" xlink:href="#TimesNewRomanPSMT-30"/>
       <use x="125" xlink:href="#TimesNewRomanPSMT-30"/>
      </g>
     </g>
    </g>
    <g id="ytick_5">
     <g id="line2d_21">
      <path clip-path="url(#p0392dc8110)" d="M 63.336875 89.208046 
L 398.136875 89.208046 
" style="fill:none;stroke:#000000;stroke-dasharray:0.5,0.825;stroke-dashoffset:0;stroke-width:0.5;"/>
     </g>
     <g id="line2d_22">
      <g>
       <use style="stroke:#000000;stroke-width:0.8;" x="63.336875" xlink:href="#mac29148510" y="89.208046"/>
      </g>
     </g>
     <g id="text_12">
      <!-- 0.02 -->
      <g transform="translate(31.836875 94.068671)scale(0.14 -0.14)">
       <use xlink:href="#TimesNewRomanPSMT-30"/>
       <use x="50" xlink:href="#TimesNewRomanPSMT-2e"/>
       <use x="75" xlink:href="#TimesNewRomanPSMT-30"/>
       <use x="125" xlink:href="#TimesNewRomanPSMT-32"/>
      </g>
     </g>
    </g>
    <g id="ytick_6">
     <g id="line2d_23">
      <path clip-path="url(#p0392dc8110)" d="M 63.336875 27.264633 
L 398.136875 27.264633 
" style="fill:none;stroke:#000000;stroke-dasharray:0.5,0.825;stroke-dashoffset:0;stroke-width:0.5;"/>
     </g>
     <g id="line2d_24">
      <g>
       <use style="stroke:#000000;stroke-width:0.8;" x="63.336875" xlink:href="#mac29148510" y="27.264633"/>
      </g>
     </g>
     <g id="text_13">
      <!-- 0.04 -->
      <g transform="translate(31.836875 32.125258)scale(0.14 -0.14)">
       <use xlink:href="#TimesNewRomanPSMT-30"/>
       <use x="50" xlink:href="#TimesNewRomanPSMT-2e"/>
       <use x="75" xlink:href="#TimesNewRomanPSMT-30"/>
       <use x="125" xlink:href="#TimesNewRomanPSMT-34"/>
      </g>
     </g>
    </g>
    <g id="text_14">
     <!-- Volatage (V) -->
     <g transform="translate(16.92125 209.352344)rotate(-90)scale(0.14 -0.14)">
      <defs>
       <path d="M 4544 4238 
L 4544 4122 
Q 4319 4081 4203 3978 
Q 4038 3825 3909 3509 
L 2431 -97 
L 2316 -97 
L 728 3556 
Q 606 3838 556 3900 
Q 478 3997 364 4051 
Q 250 4106 56 4122 
L 56 4238 
L 1788 4238 
L 1788 4122 
Q 1494 4094 1406 4022 
Q 1319 3950 1319 3838 
Q 1319 3681 1463 3350 
L 2541 866 
L 3541 3319 
Q 3688 3681 3688 3822 
Q 3688 3913 3597 3995 
Q 3506 4078 3291 4113 
Q 3275 4116 3238 4122 
L 3238 4238 
L 4544 4238 
z
" id="TimesNewRomanPSMT-56" transform="scale(0.015625)"/>
       <path d="M 1600 2947 
Q 2250 2947 2644 2453 
Q 2978 2031 2978 1484 
Q 2978 1100 2793 706 
Q 2609 313 2286 112 
Q 1963 -88 1566 -88 
Q 919 -88 538 428 
Q 216 863 216 1403 
Q 216 1797 411 2186 
Q 606 2575 925 2761 
Q 1244 2947 1600 2947 
z
M 1503 2744 
Q 1338 2744 1170 2645 
Q 1003 2547 900 2300 
Q 797 2053 797 1666 
Q 797 1041 1045 587 
Q 1294 134 1700 134 
Q 2003 134 2200 384 
Q 2397 634 2397 1244 
Q 2397 2006 2069 2444 
Q 1847 2744 1503 2744 
z
" id="TimesNewRomanPSMT-6f" transform="scale(0.015625)"/>
       <path d="M 1184 4444 
L 1184 647 
Q 1184 378 1223 290 
Q 1263 203 1344 158 
Q 1425 113 1647 113 
L 1647 0 
L 244 0 
L 244 113 
Q 441 113 512 153 
Q 584 194 625 287 
Q 666 381 666 647 
L 666 3247 
Q 666 3731 644 3842 
Q 622 3953 573 3993 
Q 525 4034 450 4034 
Q 369 4034 244 3984 
L 191 4094 
L 1044 4444 
L 1184 4444 
z
" id="TimesNewRomanPSMT-6c" transform="scale(0.015625)"/>
       <path d="M 1822 413 
Q 1381 72 1269 19 
Q 1100 -59 909 -59 
Q 613 -59 420 144 
Q 228 347 228 678 
Q 228 888 322 1041 
Q 450 1253 767 1440 
Q 1084 1628 1822 1897 
L 1822 2009 
Q 1822 2438 1686 2597 
Q 1550 2756 1291 2756 
Q 1094 2756 978 2650 
Q 859 2544 859 2406 
L 866 2225 
Q 866 2081 792 2003 
Q 719 1925 600 1925 
Q 484 1925 411 2006 
Q 338 2088 338 2228 
Q 338 2497 613 2722 
Q 888 2947 1384 2947 
Q 1766 2947 2009 2819 
Q 2194 2722 2281 2516 
Q 2338 2381 2338 1966 
L 2338 994 
Q 2338 584 2353 492 
Q 2369 400 2405 369 
Q 2441 338 2488 338 
Q 2538 338 2575 359 
Q 2641 400 2828 588 
L 2828 413 
Q 2478 -56 2159 -56 
Q 2006 -56 1915 50 
Q 1825 156 1822 413 
z
M 1822 616 
L 1822 1706 
Q 1350 1519 1213 1441 
Q 966 1303 859 1153 
Q 753 1003 753 825 
Q 753 600 887 451 
Q 1022 303 1197 303 
Q 1434 303 1822 616 
z
" id="TimesNewRomanPSMT-61" transform="scale(0.015625)"/>
       <path d="M 1031 3803 
L 1031 2863 
L 1700 2863 
L 1700 2644 
L 1031 2644 
L 1031 788 
Q 1031 509 1111 412 
Q 1191 316 1316 316 
Q 1419 316 1516 380 
Q 1613 444 1666 569 
L 1788 569 
Q 1678 263 1478 108 
Q 1278 -47 1066 -47 
Q 922 -47 784 33 
Q 647 113 581 261 
Q 516 409 516 719 
L 516 2644 
L 63 2644 
L 63 2747 
Q 234 2816 414 2980 
Q 594 3144 734 3369 
Q 806 3488 934 3803 
L 1031 3803 
z
" id="TimesNewRomanPSMT-74" transform="scale(0.015625)"/>
       <path d="M 966 1044 
Q 703 1172 562 1401 
Q 422 1631 422 1909 
Q 422 2334 742 2640 
Q 1063 2947 1563 2947 
Q 1972 2947 2272 2747 
L 2878 2747 
Q 3013 2747 3034 2739 
Q 3056 2731 3066 2713 
Q 3084 2684 3084 2613 
Q 3084 2531 3069 2500 
Q 3059 2484 3036 2475 
Q 3013 2466 2878 2466 
L 2506 2466 
Q 2681 2241 2681 1891 
Q 2681 1491 2375 1206 
Q 2069 922 1553 922 
Q 1341 922 1119 984 
Q 981 866 932 777 
Q 884 688 884 625 
Q 884 572 936 522 
Q 988 472 1138 450 
Q 1225 438 1575 428 
Q 2219 413 2409 384 
Q 2700 344 2873 169 
Q 3047 -6 3047 -263 
Q 3047 -616 2716 -925 
Q 2228 -1381 1444 -1381 
Q 841 -1381 425 -1109 
Q 191 -953 191 -784 
Q 191 -709 225 -634 
Q 278 -519 444 -313 
Q 466 -284 763 25 
Q 600 122 533 198 
Q 466 275 466 372 
Q 466 481 555 628 
Q 644 775 966 1044 
z
M 1509 2797 
Q 1278 2797 1122 2612 
Q 966 2428 966 2047 
Q 966 1553 1178 1281 
Q 1341 1075 1591 1075 
Q 1828 1075 1981 1253 
Q 2134 1431 2134 1813 
Q 2134 2309 1919 2591 
Q 1759 2797 1509 2797 
z
M 934 0 
Q 788 -159 713 -296 
Q 638 -434 638 -550 
Q 638 -700 819 -813 
Q 1131 -1006 1722 -1006 
Q 2284 -1006 2551 -807 
Q 2819 -609 2819 -384 
Q 2819 -222 2659 -153 
Q 2497 -84 2016 -72 
Q 1313 -53 934 0 
z
" id="TimesNewRomanPSMT-67" transform="scale(0.015625)"/>
      </defs>
      <use xlink:href="#TimesNewRomanPSMT-56"/>
      <use x="59.341797" xlink:href="#TimesNewRomanPSMT-6f"/>
      <use x="109.341797" xlink:href="#TimesNewRomanPSMT-6c"/>
      <use x="137.125" xlink:href="#TimesNewRomanPSMT-61"/>
      <use x="181.509766" xlink:href="#TimesNewRomanPSMT-74"/>
      <use x="209.292969" xlink:href="#TimesNewRomanPSMT-61"/>
      <use x="253.677734" xlink:href="#TimesNewRomanPSMT-67"/>
      <use x="303.677734" xlink:href="#TimesNewRomanPSMT-65"/>
      <use x="348.0625" xlink:href="#TimesNewRomanPSMT-20"/>
      <use x="373.0625" xlink:href="#TimesNewRomanPSMT-28"/>
      <use x="406.363281" xlink:href="#TimesNewRomanPSMT-56"/>
      <use x="478.580078" xlink:href="#TimesNewRomanPSMT-29"/>
     </g>
    </g>
   </g>
   <g id="LineCollection_1">
    <path clip-path="url(#p0392dc8110)" d="M 78.555057 151.151459 
L 382.918693 151.151459 
" style="fill:none;stroke:#1f77b4;stroke-width:1.5;"/>
   </g>
   <g id="line2d_25">
    <path clip-path="url(#p0392dc8110)" d="M 78.555057 151.123585 
L 80.86822 151.162299 
L 80.898657 151.239729 
L 80.929093 151.123585 
L 80.95953 151.162299 
L 85.342366 151.123585 
L 85.372802 151.046155 
L 85.464111 151.08487 
L 90.029566 151.007441 
L 90.060002 150.968726 
L 90.120875 151.046155 
L 91.551384 151.007441 
L 91.58182 150.930011 
L 91.67313 150.968726 
L 95.538548 150.968726 
L 95.568984 151.08487 
L 95.629857 150.968726 
L 97.303857 151.007441 
L 97.425602 151.08487 
L 97.577784 151.007441 
L 97.729966 151.046155 
L 97.882148 151.007441 
L 100.651857 151.046155 
L 100.682293 151.123585 
L 100.743166 151.08487 
L 100.864911 151.08487 
L 104.39553 151.162299 
L 104.517275 151.162299 
L 104.63902 151.123585 
L 104.791202 151.201014 
L 104.943384 151.123585 
L 105.06513 151.201014 
L 105.095566 151.162299 
L 106.160839 151.162299 
L 106.191275 151.278443 
L 106.282584 151.201014 
L 106.373893 151.239729 
L 106.40433 151.201014 
L 109.904511 151.239729 
L 109.934948 151.317158 
L 110.026257 151.278443 
L 110.117566 151.239729 
L 110.148002 151.317158 
L 110.239311 151.278443 
L 110.361057 151.317158 
L 110.482802 151.317158 
L 111.578511 151.355872 
L 111.66982 151.433302 
L 111.700257 151.355872 
L 111.76113 151.472016 
L 111.913311 151.394587 
L 112.035057 151.433302 
L 112.187239 151.394587 
L 112.491602 151.472016 
L 112.582911 151.472016 
L 112.704657 151.472016 
L 112.735093 151.549446 
L 112.826402 151.510731 
L 112.978584 151.472016 
L 113.10033 151.549446 
L 113.800366 151.626875 
L 113.982984 151.704304 
L 114.10473 151.704304 
L 114.500402 151.781733 
L 114.713457 151.897877 
L 115.10913 151.975307 
L 115.291748 152.052736 
L 115.656984 152.130165 
L 115.809166 152.16888 
L 116.052657 152.207594 
L 116.174402 152.285024 
L 116.509202 152.362453 
L 116.630948 152.401168 
L 116.78313 152.362453 
L 116.935311 152.401168 
L 117.057057 152.478597 
L 117.513602 152.556026 
L 117.635348 152.633455 
L 117.757093 152.556026 
L 117.970148 152.67217 
L 118.091893 152.67217 
L 118.244075 152.710885 
L 118.548439 152.788314 
L 118.670184 152.865743 
L 118.70062 152.827029 
L 119.248475 152.904458 
L 119.400657 153.020602 
L 119.644148 153.059316 
L 119.79633 153.17546 
L 120.192002 153.214175 
L 120.313748 153.369033 
L 120.344184 153.291604 
L 120.405057 153.330319 
L 120.496366 153.446463 
L 120.526802 153.407748 
L 120.618111 153.485177 
L 120.892039 153.678751 
L 121.074657 153.75618 
L 121.500766 154.143326 
L 121.592075 154.220755 
L 122.505166 155.537053 
L 122.900839 156.272631 
L 123.14433 156.737207 
L 125.092257 161.963682 
L 127.253239 170.558331 
L 127.527166 171.913343 
L 127.648911 172.416633 
L 128.105457 174.623367 
L 128.257639 175.242801 
L 129.475093 180.895138 
L 130.296875 184.456884 
L 130.722984 186.121613 
L 131.027348 187.166908 
L 131.362148 188.405776 
L 131.453457 188.676779 
L 131.970875 190.225364 
L 132.457857 191.19323 
L 133.157893 191.928808 
L 133.553566 191.851379 
L 133.85793 191.619091 
L 133.949239 191.580376 
L 134.131857 191.348089 
L 134.19273 191.386803 
L 134.223166 191.348089 
L 135.044948 190.147935 
L 136.079784 187.321767 
L 136.475457 185.463464 
L 136.597202 184.882745 
L 136.87113 183.450304 
L 138.636439 171.526196 
L 139.427784 164.634992 
L 141.071348 146.826261 
L 144.054111 107.492193 
L 147.645602 58.750467 
L 149.471784 39.044728 
L 150.445748 31.340506 
L 150.993602 27.933619 
L 152.302366 23.365295 
L 152.667602 22.707153 
L 153.093711 22.32 
L 153.428511 22.397429 
L 153.94593 23.210433 
L 154.402475 24.642881 
L 154.980766 27.236755 
L 156.106911 35.095826 
L 157.141748 45.277777 
L 158.237457 59.060184 
L 160.672366 101.065564 
L 163.168148 154.104611 
L 167.24662 244.967856 
L 168.372766 266.996482 
L 169.711966 289.025105 
L 170.138075 295.064585 
L 170.777239 303.233379 
L 171.842511 314.228337 
L 173.303457 322.861701 
L 173.577384 323.519843 
L 173.790439 323.906996 
L 174.003493 324.294139 
L 174.399166 324.681279 
L 174.551348 324.642571 
L 174.581784 324.681279 
L 174.642657 324.603862 
L 175.434002 323.442414 
L 175.981857 321.777685 
L 176.438402 319.609662 
L 177.077566 316.202774 
L 177.260184 315.080063 
L 177.503675 313.376612 
L 179.238548 297.000329 
L 180.790802 277.991438 
L 182.586548 251.35577 
L 184.32142 220.848642 
L 185.66062 197.387571 
L 187.852039 160.337668 
L 191.260911 109.853786 
L 191.747893 103.775588 
L 192.660984 92.548345 
L 193.330584 85.424852 
L 195.46113 67.383833 
L 195.948111 63.589799 
L 196.739457 57.511602 
L 198.04822 49.807393 
L 198.291711 48.916959 
L 198.991748 45.897212 
L 199.570039 44.155053 
L 200.452693 41.212738 
L 200.604875 40.864306 
L 200.939675 40.283593 
L 201.091857 39.97387 
L 201.39622 39.238298 
L 202.004948 38.618864 
L 202.15713 38.696296 
L 202.278875 38.618864 
L 202.309311 38.657575 
L 202.40062 38.657575 
L 202.583239 38.580143 
L 202.82673 38.502714 
L 203.009348 38.425281 
L 203.100657 38.502714 
L 203.131093 38.464002 
L 203.465893 38.773713 
L 203.49633 38.735004 
L 203.557202 38.812434 
L 203.648511 38.889866 
L 203.800693 38.967295 
L 203.922439 38.967295 
L 204.07462 39.006007 
L 204.226802 39.083436 
L 204.40942 39.277006 
L 204.439857 39.277006 
L 204.652911 39.70287 
L 204.865966 40.128731 
L 205.109457 40.632025 
L 205.474693 41.328888 
L 205.50513 41.328888 
L 205.687748 41.793461 
L 207.209566 45.93592 
L 207.970475 48.413666 
L 208.305275 49.53639 
L 209.735784 55.421011 
L 210.557566 59.060184 
L 212.292439 66.106253 
L 214.179493 76.249484 
L 214.575166 78.843361 
L 215.001275 81.553386 
L 218.105784 106.098466 
L 220.662439 129.791821 
L 221.666839 140.0512 
L 222.792984 152.633455 
L 225.380075 183.48902 
L 230.797748 251.007338 
L 232.19782 264.131596 
L 233.415275 274.003827 
L 234.024002 277.836576 
L 234.96753 282.095189 
L 235.484948 283.682489 
L 235.758875 284.340641 
L 236.154548 284.689072 
L 236.337166 284.611643 
L 236.428475 284.611643 
L 236.64153 284.456781 
L 236.702402 284.49549 
L 236.732839 284.418073 
L 236.854584 284.340641 
L 237.250257 283.682489 
L 238.55902 278.26244 
L 240.141711 267.499772 
L 242.515748 242.219117 
L 245.742002 199.826593 
L 247.629057 170.403473 
L 248.542148 156.079058 
L 250.185711 132.579276 
L 250.520511 128.088379 
L 252.011893 110.47322 
L 254.172875 92.199913 
L 254.690293 89.102742 
L 255.39033 85.347423 
L 256.212111 81.708247 
L 256.577348 80.508091 
L 256.851275 79.88866 
L 257.186075 79.30794 
L 258.007857 78.378792 
L 258.038293 78.417507 
L 258.06873 78.340074 
L 258.251348 78.262645 
L 258.433966 78.185216 
L 258.616584 77.991643 
L 258.73833 77.914213 
L 259.012257 77.720643 
L 259.225311 77.643211 
L 259.377493 77.604496 
L 259.529675 77.643211 
L 259.773166 77.488349 
L 260.047093 77.410926 
L 260.199275 77.333494 
L 260.290584 77.372212 
L 260.32102 77.333494 
L 260.534075 77.372212 
L 260.686257 77.488349 
L 260.838439 77.527067 
L 260.899311 77.488349 
L 260.99062 77.643211 
L 261.112366 77.643211 
L 261.294984 77.759352 
L 261.32542 77.720643 
L 261.355857 77.759352 
L 261.538475 77.952928 
L 261.599348 78.03036 
L 262.482002 79.30794 
L 262.725493 79.811227 
L 264.977784 85.811998 
L 267.230075 94.793796 
L 267.899675 98.35554 
L 268.173602 99.787981 
L 269.208439 105.71132 
L 269.45193 107.066332 
L 270.212839 111.4798 
L 271.947711 123.210334 
L 272.46513 126.888225 
L 272.830366 129.288531 
L 274.565239 139.625339 
L 276.087057 146.826261 
L 279.06982 157.782502 
L 280.40902 160.918387 
L 280.83513 161.615251 
L 281.352548 162.660545 
L 281.382984 162.660545 
L 281.596039 163.086406 
L 281.656911 163.125121 
L 281.869966 163.396124 
L 281.961275 163.434838 
L 282.143893 163.70584 
L 282.874366 164.518847 
L 282.965675 164.518847 
L 283.117857 164.634992 
L 283.239602 164.557562 
L 283.361348 164.634992 
L 283.51353 164.596277 
L 283.726584 164.712421 
L 284.122257 164.634992 
L 284.365748 164.480133 
L 284.51793 164.402704 
L 284.700548 164.28656 
L 284.791857 164.28656 
L 285.217966 163.860699 
L 285.248402 163.899414 
L 285.278839 163.821985 
L 286.039748 162.69926 
L 286.374548 162.079826 
L 286.43542 162.002396 
L 286.922402 161.034531 
L 287.074584 160.686099 
L 287.77462 159.137514 
L 287.805057 159.137514 
L 288.018111 158.711653 
L 288.261602 158.247077 
L 288.505093 157.743787 
L 288.87033 157.085638 
L 290.026911 155.769341 
L 290.179093 155.691911 
L 290.361711 155.614482 
L 290.513893 155.691911 
L 290.605202 155.653197 
L 290.78782 155.84677 
L 290.87913 155.808055 
L 290.909566 155.84677 
L 291.092184 155.962914 
L 291.21393 155.962914 
L 291.731348 156.737207 
L 292.035711 157.511499 
L 292.309639 158.014789 
L 292.522693 158.556794 
L 293.192293 160.686099 
L 293.527093 161.808823 
L 295.14022 168.351597 
L 295.627202 170.790618 
L 296.053311 172.842494 
L 297.879493 181.630714 
L 298.031675 182.25015 
L 299.066511 186.973335 
L 299.310002 187.863772 
L 301.470984 195.722842 
L 301.653602 196.109988 
L 301.988402 196.96171 
L 303.905893 201.568752 
L 304.971166 202.768908 
L 305.092911 202.846332 
L 305.366839 203.039908 
L 305.51902 203.11734 
L 305.701639 203.194763 
L 305.884257 203.11734 
L 306.036439 203.039908 
L 306.462548 202.652761 
L 306.52342 202.614047 
L 306.675602 202.4979 
L 307.162584 201.72361 
L 308.653966 197.658574 
L 310.145348 191.580376 
L 310.693202 188.754208 
L 310.936693 187.399196 
L 312.21502 178.572259 
L 313.036802 172.223059 
L 315.56302 152.091451 
L 316.263057 146.826261 
L 316.90222 142.103075 
L 317.32833 139.276907 
L 317.510948 138.154182 
L 320.280657 121.235888 
L 320.524148 119.91959 
L 321.072002 117.093422 
L 321.193748 116.551417 
L 321.985093 113.0671 
L 322.624257 110.202217 
L 323.841711 104.549881 
L 324.663493 101.026849 
L 324.998293 99.555696 
L 325.789639 96.961813 
L 326.94622 94.290503 
L 327.189711 93.825924 
L 327.463639 93.40007 
L 328.559348 92.161198 
L 328.589784 92.199913 
L 328.650657 92.122481 
L 328.95502 92.045058 
L 329.076766 92.045058 
L 329.28982 92.122481 
L 329.563748 92.354775 
L 329.655057 92.354775 
L 330.476839 93.554925 
L 331.085566 94.832505 
L 331.268184 95.180937 
L 331.511675 95.722945 
L 331.663857 96.032662 
L 331.846475 96.49724 
L 331.998657 96.845666 
L 333.276984 100.329983 
L 333.550911 101.375281 
L 334.007457 103.156154 
L 334.220511 103.93045 
L 335.103166 107.879339 
L 336.046693 111.905661 
L 344.538439 154.607902 
L 344.721057 155.304765 
L 345.177602 157.085638 
L 346.79073 163.667126 
L 347.12553 165.138281 
L 348.890839 171.448767 
L 349.560439 173.384499 
L 349.773493 174.042648 
L 349.834366 174.120077 
L 350.04742 174.739511 
L 350.199602 175.049228 
L 350.564839 176.055808 
L 350.656148 176.288097 
L 350.990948 177.139819 
L 351.234439 177.604394 
L 351.630111 178.4174 
L 351.660548 178.378688 
L 351.690984 178.456116 
L 352.756257 179.694985 
L 352.786693 179.656269 
L 352.847566 179.7337 
L 352.999748 179.849843 
L 353.364984 180.15956 
L 353.578039 180.23699 
L 353.699784 180.353133 
L 353.73022 180.275703 
L 353.760657 180.353133 
L 353.912839 180.469276 
L 354.034584 180.469276 
L 354.186766 180.546707 
L 354.49113 180.778992 
L 354.521566 180.74028 
L 354.582439 180.817708 
L 354.73462 180.895138 
L 355.038984 181.127424 
L 355.191166 181.204855 
L 355.312911 181.282283 
L 355.434657 181.320998 
L 355.586839 181.437144 
L 356.07382 181.901719 
L 356.104257 181.863003 
L 356.134693 181.940434 
L 356.439057 182.25015 
L 356.469493 182.211435 
L 356.530366 182.288866 
L 356.712984 182.482436 
L 356.926039 182.598582 
L 356.986911 182.637298 
L 357.199966 182.908299 
L 357.230402 182.869584 
L 357.291275 182.947014 
L 357.869566 183.527732 
L 357.930439 183.566447 
L 358.08262 183.68259 
L 358.295675 183.798736 
L 358.326111 183.760021 
L 358.356548 183.876164 
L 358.386984 183.837449 
L 358.539166 183.992308 
L 358.569602 183.953594 
L 358.630475 184.031023 
L 358.75222 184.069738 
L 358.904402 184.185881 
L 358.995711 184.263311 
L 359.208766 184.418169 
L 359.269639 184.34074 
L 359.330511 184.418169 
L 359.604439 184.495599 
L 359.84793 184.650457 
L 359.878366 184.611742 
L 359.939239 184.689172 
L 360.121857 184.766601 
L 360.304475 184.882745 
L 360.395784 184.805316 
L 360.42622 184.84403 
L 360.547966 184.84403 
L 360.669711 184.766601 
L 360.791457 184.766601 
L 361.278439 184.689172 
L 361.491493 184.573028 
L 361.643675 184.534313 
L 361.85673 184.263311 
L 362.43502 183.68259 
L 362.52633 183.605163 
L 363.53073 182.211435 
L 363.713348 181.901719 
L 363.77422 181.824288 
L 364.322075 181.011282 
L 364.504693 180.701565 
L 366.696111 178.030256 
L 366.726548 178.068968 
L 366.756984 177.991541 
L 367.274402 177.488251 
L 367.304839 177.526966 
L 367.335275 177.449535 
L 367.517893 177.255962 
L 367.944002 176.868816 
L 368.157057 176.791387 
L 368.339675 176.597813 
L 368.430984 176.636527 
L 368.644039 176.365526 
L 368.735348 176.288097 
L 369.070148 176.017094 
L 369.22233 175.939665 
L 369.404948 175.862236 
L 369.526693 175.784805 
L 369.80062 175.591233 
L 369.861493 175.513804 
L 370.044111 175.281515 
L 370.074548 175.358944 
L 370.104984 175.242801 
L 370.13542 175.281515 
L 370.500657 174.971799 
L 370.622402 174.894369 
L 371.292002 174.197506 
L 371.383311 174.120077 
L 371.778984 173.771645 
L 371.839857 173.694216 
L 372.205093 173.345784 
L 372.23553 173.384499 
L 372.265966 173.30707 
L 372.448584 173.113497 
L 372.90513 172.687636 
L 372.966002 172.610206 
L 374.640002 170.326043 
L 375.096548 169.435606 
L 375.24873 169.087174 
L 377.988002 161.924967 
L 378.231493 161.073245 
L 378.93153 159.02137 
L 382.583893 144.658241 
L 382.918693 143.109656 
L 382.918693 143.109656 
" style="fill:none;stroke:#0000ff;stroke-linecap:square;stroke-width:1.5;"/>
   </g>
   <g id="line2d_26">
    <path clip-path="url(#p0392dc8110)" d="M 78.555057 151.083167 
L 78.707239 151.083167 
L 78.889857 151.083167 
L 83.577057 151.179953 
L 83.790111 151.19931 
L 86.955493 151.296097 
L 87.138111 151.296097 
L 87.290293 151.296097 
L 87.472911 151.296097 
L 99.221348 151.373526 
L 99.37353 151.392884 
L 99.525711 151.412241 
L 100.225748 151.48967 
L 100.408366 151.547742 
L 101.017093 151.818745 
L 101.199711 151.896174 
L 101.656257 152.302678 
L 101.96062 152.612395 
L 102.843275 153.889978 
L 103.452002 155.148203 
L 103.817239 156.077354 
L 104.578148 158.303446 
L 105.369493 161.129614 
L 105.765166 162.755629 
L 106.617384 166.433519 
L 107.530475 170.53727 
L 108.017457 172.802075 
L 109.021857 177.351045 
L 111.00022 184.474538 
L 111.548075 185.868265 
L 112.613348 187.668495 
L 113.282948 187.997569 
L 113.526439 187.958855 
L 113.76993 187.862068 
L 114.074293 187.649138 
L 114.34822 187.358778 
L 115.078693 185.732763 
L 115.870039 183.4486 
L 117.148366 177.273615 
L 118.152766 170.905059 
L 121.500766 144.521037 
L 125.39662 110.781233 
L 126.553202 103.464168 
L 128.74462 92.875712 
L 129.627275 89.894689 
L 130.50993 88.42353 
L 130.631675 88.22996 
L 131.08822 87.804099 
L 131.453457 87.707312 
L 132.51873 86.526516 
L 134.131857 86.623302 
L 134.466657 86.952377 
L 134.801457 87.204025 
L 135.562366 87.281448 
L 136.44502 88.22996 
L 136.77982 88.326746 
L 136.901566 88.42353 
L 137.510293 89.372041 
L 138.484257 91.462631 
L 139.21473 94.675949 
L 141.89313 108.845502 
L 143.14102 117.478865 
L 143.841057 123.111843 
L 145.058511 133.003432 
L 146.123784 141.230292 
L 147.49342 153.464117 
L 152.302366 195.314635 
L 153.793748 204.973936 
L 154.919893 210.142336 
L 155.589493 212.271644 
L 156.776511 214.304166 
L 157.050439 214.400949 
L 157.20262 214.439667 
L 158.054839 214.342874 
L 158.663566 213.394372 
L 159.028802 212.716863 
L 159.150548 212.542647 
L 160.124511 210.471414 
L 160.520184 209.387404 
L 161.768075 205.051368 
L 162.863784 200.483039 
L 165.99873 181.900014 
L 166.881384 176.460608 
L 167.520548 172.685932 
L 167.91622 170.692128 
L 168.890184 166.85938 
L 169.407602 165.27208 
L 170.716366 162.987916 
L 171.35553 163.084703 
L 171.751202 163.220204 
L 171.93382 163.31699 
L 172.116439 163.529921 
L 173.151275 165.872157 
L 173.425202 166.607735 
L 174.27742 169.685548 
L 175.312257 174.040944 
L 177.229748 185.655334 
L 180.212511 205.748232 
L 181.186475 210.142336 
L 182.73873 216.549611 
L 183.195275 217.865909 
L 183.621384 218.446625 
L 183.956184 218.698274 
L 184.382293 218.853135 
L 184.960584 218.369202 
L 185.173639 217.962692 
L 186.147602 214.53645 
L 186.786766 210.742416 
L 187.912911 202.147768 
L 190.286948 176.925183 
L 191.747893 155.96121 
L 193.208839 135.326311 
L 196.03942 97.231112 
L 197.956911 76.538137 
L 199.05262 66.511053 
L 201.426657 47.773171 
L 202.035384 44.888925 
L 203.131093 41.114254 
L 204.439857 38.752665 
L 204.470293 38.772013 
L 204.622475 38.772013 
L 205.139893 39.217234 
L 205.383384 39.662458 
L 205.992111 41.96597 
L 207.118257 47.4441 
L 207.696548 50.754195 
L 208.670511 56.251673 
L 210.222766 66.820767 
L 211.653275 77.583435 
L 214.331675 98.818409 
L 216.79702 118.485445 
L 217.862293 126.983309 
L 218.410148 131.164488 
L 220.388511 145.411473 
L 221.48422 152.322035 
L 223.188657 162.465268 
L 226.293166 179.596495 
L 228.728075 189.933301 
L 229.823784 193.68862 
L 230.584693 195.740496 
L 234.145748 205.090083 
L 235.698002 209.658407 
L 236.824148 212.03936 
L 237.250257 212.852361 
L 238.832948 214.710666 
L 238.954693 214.730021 
L 239.106875 214.749381 
L 241.146111 214.846168 
L 241.480911 214.942954 
L 241.602657 214.981669 
L 242.698366 215.078452 
L 242.850548 215.13653 
L 243.094039 215.233314 
L 243.489711 215.562385 
L 243.702766 215.794679 
L 244.25062 216.60768 
L 244.67673 217.323907 
L 245.468075 219.066066 
L 246.228984 220.711434 
L 247.26382 222.918169 
L 247.994293 224.486114 
L 249.303057 226.75092 
L 249.455239 226.963845 
L 250.459639 228.067218 
L 250.885748 228.454364 
L 251.311857 228.82215 
L 251.768402 228.996366 
L 252.072766 228.899582 
L 252.681493 228.41565 
L 253.807639 226.034697 
L 255.177275 221.311511 
L 257.033893 210.084268 
L 258.768766 194.850059 
L 259.834039 182.887236 
L 261.203675 165.001077 
L 262.725493 142.159444 
L 267.68662 65.00118 
L 268.721457 52.031781 
L 269.69542 41.540106 
L 270.69982 33.564894 
L 271.643348 28.260987 
L 272.70862 24.62182 
L 273.13473 24.041095 
L 273.499966 23.750735 
L 274.078257 23.828164 
L 274.747857 25.318684 
L 275.569639 28.280347 
L 277.274075 38.636511 
L 278.40022 48.04417 
L 281.382984 79.51917 
L 288.565966 160.490823 
L 290.940002 183.545387 
L 291.822657 191.114097 
L 292.918366 199.882962 
L 294.044511 207.645246 
L 295.23153 213.800872 
L 295.962002 216.975475 
L 296.296802 218.388556 
L 296.90553 220.924365 
L 297.696875 223.537603 
L 298.82302 226.112126 
L 299.49262 227.13806 
L 299.766548 227.467138 
L 299.91873 227.563925 
L 300.223093 227.641354 
L 300.466584 227.602639 
L 300.984002 227.52521 
L 302.59713 225.337833 
L 303.479784 222.201945 
L 304.484184 216.530257 
L 306.645166 200.889539 
L 307.771311 192.236822 
L 309.323566 180.274001 
L 312.428075 161.207043 
L 313.462911 155.380491 
L 315.410839 144.869468 
L 315.776075 143.34024 
L 316.90222 138.829985 
L 318.150111 134.493946 
L 318.850148 132.635644 
L 319.215384 131.706493 
L 319.611057 130.622482 
L 321.376366 126.363873 
L 321.437239 126.286445 
L 321.802475 125.647651 
L 322.441639 124.311997 
L 323.293857 122.898915 
L 323.415602 122.705341 
L 324.998293 119.453311 
L 325.69833 117.401436 
L 326.094002 116.317426 
L 326.94622 113.975191 
L 328.437602 109.910154 
L 328.894148 108.574499 
L 331.663857 101.799442 
L 331.785602 101.605865 
L 333.490039 99.612065 
L 333.64222 99.534633 
L 333.824839 99.418489 
L 334.768366 99.457203 
L 334.920548 99.57335 
L 335.468402 100.03792 
L 335.894511 100.638 
L 336.046693 100.831576 
L 336.351057 101.315509 
L 336.533675 101.547793 
L 337.355457 102.883445 
L 337.629384 103.406093 
L 338.268548 104.838537 
L 340.307784 111.67167 
L 340.916511 114.517196 
L 341.34262 116.569071 
L 342.01222 120.053388 
L 343.229675 126.809093 
L 344.173202 132.829218 
L 345.421093 142.33366 
L 349.04302 171.369634 
L 349.864802 177.893051 
L 352.269275 195.411422 
L 354.39982 208.28404 
L 356.195566 216.878689 
L 356.74342 218.543418 
L 357.595639 220.421078 
L 357.960875 220.924365 
L 358.08262 221.001794 
L 358.691348 221.601874 
L 358.904402 221.698658 
L 359.08702 221.698658 
L 359.269639 221.601874 
L 359.482693 221.388941 
L 360.000111 220.343645 
L 360.152293 220.014568 
L 361.461057 215.484962 
L 363.287239 206.87095 
L 364.169893 201.179902 
L 366.483057 184.261607 
L 369.678875 154.857843 
L 371.078948 140.088211 
L 372.631202 125.396008 
L 373.422548 118.504803 
L 375.279166 104.02553 
L 376.953166 94.037155 
L 377.440148 91.365845 
L 378.474984 86.662017 
L 380.027239 82.093693 
L 380.970766 80.525751 
L 381.396875 80.138601 
L 381.579493 80.041818 
L 381.762111 79.964385 
L 382.583893 80.061172 
L 382.918693 80.274102 
L 382.918693 80.274102 
" style="fill:none;stroke:#ff0000;stroke-linecap:square;stroke-width:1.5;"/>
   </g>
   <g id="line2d_27">
    <path clip-path="url(#p0392dc8110)" d="M 124.422657 159.911807 
" style="fill:none;stroke:#ffffff;stroke-linecap:square;stroke-width:1.5;"/>
    <defs>
     <path d="M 0 -5 
L -1.12257 -1.545085 
L -4.755283 -1.545085 
L -1.816356 0.59017 
L -2.938926 4.045085 
L -0 1.90983 
L 2.938926 4.045085 
L 1.816356 0.59017 
L 4.755283 -1.545085 
L 1.12257 -1.545085 
z
" id="m76f4156ec1" style="stroke:#ffffff;stroke-linejoin:bevel;"/>
    </defs>
    <g clip-path="url(#p0392dc8110)">
     <use style="fill:#0000ff;stroke:#ffffff;stroke-linejoin:bevel;" x="124.422657" xlink:href="#m76f4156ec1" y="159.911807"/>
    </g>
   </g>
   <g id="line2d_28">
    <path clip-path="url(#p0392dc8110)" d="M 104.334657 157.567868 
" style="fill:none;stroke:#ffffff;stroke-linecap:square;stroke-width:1.5;"/>
    <defs>
     <path d="M 0 -5 
L -1.12257 -1.545085 
L -4.755283 -1.545085 
L -1.816356 0.59017 
L -2.938926 4.045085 
L -0 1.90983 
L 2.938926 4.045085 
L 1.816356 0.59017 
L 4.755283 -1.545085 
L 1.12257 -1.545085 
z
" id="m6b82cf0fe9" style="stroke:#ffffff;stroke-linejoin:bevel;"/>
    </defs>
    <g clip-path="url(#p0392dc8110)">
     <use style="fill:#ff0000;stroke:#ffffff;stroke-linejoin:bevel;" x="104.334657" xlink:href="#m6b82cf0fe9" y="157.567868"/>
    </g>
   </g>
   <g id="patch_3">
    <path d="M 63.336875 339.84 
L 63.336875 7.2 
" style="fill:none;stroke:#000000;stroke-linecap:square;stroke-linejoin:miter;stroke-width:0.8;"/>
   </g>
   <g id="patch_4">
    <path d="M 398.136875 339.84 
L 398.136875 7.2 
" style="fill:none;stroke:#000000;stroke-linecap:square;stroke-linejoin:miter;stroke-width:0.8;"/>
   </g>
   <g id="patch_5">
    <path d="M 63.336875 339.84 
L 398.136875 339.84 
" style="fill:none;stroke:#000000;stroke-linecap:square;stroke-linejoin:miter;stroke-width:0.8;"/>
   </g>
   <g id="patch_6">
    <path d="M 63.336875 7.2 
L 398.136875 7.2 
" style="fill:none;stroke:#000000;stroke-linecap:square;stroke-linejoin:miter;stroke-width:0.8;"/>
   </g>
   <g id="text_15">
    <g id="patch_7">
     <path d="M 75.036875 331.242688 
L 166.79375 331.242688 
L 166.79375 293.760312 
L 75.036875 293.760312 
z
" style="fill:#ffffff;stroke:#000000;stroke-linejoin:miter;stroke-width:0.75;"/>
    </g>
    <!-- Auto_00118 -->
    <g transform="translate(80.076875 308.521562)scale(0.14 -0.14)">
     <defs>
      <path d="M 2928 1419 
L 1288 1419 
L 1000 750 
Q 894 503 894 381 
Q 894 284 986 211 
Q 1078 138 1384 116 
L 1384 0 
L 50 0 
L 50 116 
Q 316 163 394 238 
Q 553 388 747 847 
L 2238 4334 
L 2347 4334 
L 3822 809 
Q 4000 384 4145 257 
Q 4291 131 4550 116 
L 4550 0 
L 2878 0 
L 2878 116 
Q 3131 128 3220 200 
Q 3309 272 3309 375 
Q 3309 513 3184 809 
L 2928 1419 
z
M 2841 1650 
L 2122 3363 
L 1384 1650 
L 2841 1650 
z
" id="TimesNewRomanPSMT-41" transform="scale(0.015625)"/>
      <path d="M 2709 2863 
L 2709 1128 
Q 2709 631 2732 520 
Q 2756 409 2807 365 
Q 2859 322 2928 322 
Q 3025 322 3147 375 
L 3191 266 
L 2334 -88 
L 2194 -88 
L 2194 519 
Q 1825 119 1631 15 
Q 1438 -88 1222 -88 
Q 981 -88 804 51 
Q 628 191 559 409 
Q 491 628 491 1028 
L 491 2306 
Q 491 2509 447 2587 
Q 403 2666 317 2708 
Q 231 2750 6 2747 
L 6 2863 
L 1009 2863 
L 1009 947 
Q 1009 547 1148 422 
Q 1288 297 1484 297 
Q 1619 297 1789 381 
Q 1959 466 2194 703 
L 2194 2325 
Q 2194 2569 2105 2655 
Q 2016 2741 1734 2747 
L 1734 2863 
L 2709 2863 
z
" id="TimesNewRomanPSMT-75" transform="scale(0.015625)"/>
      <path d="M 3256 -1381 
L -53 -1381 
L -53 -1119 
L 3256 -1119 
L 3256 -1381 
z
" id="TimesNewRomanPSMT-5f" transform="scale(0.015625)"/>
      <path d="M 1228 2134 
Q 725 2547 579 2797 
Q 434 3047 434 3316 
Q 434 3728 753 4026 
Q 1072 4325 1600 4325 
Q 2113 4325 2425 4047 
Q 2738 3769 2738 3413 
Q 2738 3175 2569 2928 
Q 2400 2681 1866 2347 
Q 2416 1922 2594 1678 
Q 2831 1359 2831 1006 
Q 2831 559 2490 242 
Q 2150 -75 1597 -75 
Q 994 -75 656 303 
Q 388 606 388 966 
Q 388 1247 577 1523 
Q 766 1800 1228 2134 
z
M 1719 2469 
Q 2094 2806 2194 3001 
Q 2294 3197 2294 3444 
Q 2294 3772 2109 3958 
Q 1925 4144 1606 4144 
Q 1288 4144 1088 3959 
Q 888 3775 888 3528 
Q 888 3366 970 3203 
Q 1053 3041 1206 2894 
L 1719 2469 
z
M 1375 2016 
Q 1116 1797 991 1539 
Q 866 1281 866 981 
Q 866 578 1086 336 
Q 1306 94 1647 94 
Q 1984 94 2187 284 
Q 2391 475 2391 747 
Q 2391 972 2272 1150 
Q 2050 1481 1375 2016 
z
" id="TimesNewRomanPSMT-38" transform="scale(0.015625)"/>
     </defs>
     <use xlink:href="#TimesNewRomanPSMT-41"/>
     <use x="72.216797" xlink:href="#TimesNewRomanPSMT-75"/>
     <use x="122.216797" xlink:href="#TimesNewRomanPSMT-74"/>
     <use x="150" xlink:href="#TimesNewRomanPSMT-6f"/>
     <use x="200" xlink:href="#TimesNewRomanPSMT-5f"/>
     <use x="250" xlink:href="#TimesNewRomanPSMT-30"/>
     <use x="300" xlink:href="#TimesNewRomanPSMT-30"/>
     <use x="350" xlink:href="#TimesNewRomanPSMT-31"/>
     <use x="396.25" xlink:href="#TimesNewRomanPSMT-31"/>
     <use x="446.25" xlink:href="#TimesNewRomanPSMT-38"/>
    </g>
    <!-- Vs: 302.86m/s -->
    <g transform="translate(80.076875 323.208)scale(0.14 -0.14)">
     <defs>
      <path d="M 903 2950 
Q 1047 2950 1148 2848 
Q 1250 2747 1250 2603 
Q 1250 2459 1148 2357 
Q 1047 2256 903 2256 
Q 759 2256 657 2357 
Q 556 2459 556 2603 
Q 556 2747 657 2848 
Q 759 2950 903 2950 
z
M 897 609 
Q 1044 609 1145 506 
Q 1247 403 1247 259 
Q 1247 116 1144 14 
Q 1041 -88 897 -88 
Q 753 -88 651 14 
Q 550 116 550 259 
Q 550 403 651 506 
Q 753 609 897 609 
z
" id="TimesNewRomanPSMT-3a" transform="scale(0.015625)"/>
      <path d="M 1794 4444 
L 259 -88 
L 9 -88 
L 1544 4444 
L 1794 4444 
z
" id="TimesNewRomanPSMT-2f" transform="scale(0.015625)"/>
     </defs>
     <use xlink:href="#TimesNewRomanPSMT-56"/>
     <use x="72.216797" xlink:href="#TimesNewRomanPSMT-73"/>
     <use x="111.132812" xlink:href="#TimesNewRomanPSMT-3a"/>
     <use x="138.916016" xlink:href="#TimesNewRomanPSMT-20"/>
     <use x="163.916016" xlink:href="#TimesNewRomanPSMT-33"/>
     <use x="213.916016" xlink:href="#TimesNewRomanPSMT-30"/>
     <use x="263.916016" xlink:href="#TimesNewRomanPSMT-32"/>
     <use x="313.916016" xlink:href="#TimesNewRomanPSMT-2e"/>
     <use x="338.916016" xlink:href="#TimesNewRomanPSMT-38"/>
     <use x="388.916016" xlink:href="#TimesNewRomanPSMT-36"/>
     <use x="438.916016" xlink:href="#TimesNewRomanPSMT-6d"/>
     <use x="516.699219" xlink:href="#TimesNewRomanPSMT-2f"/>
     <use x="544.482422" xlink:href="#TimesNewRomanPSMT-73"/>
    </g>
   </g>
  </g>
 </g>
 <defs>
  <clipPath id="p0392dc8110">
   <rect height="332.64" width="334.8" x="63.336875" y="7.2"/>
  </clipPath>
 </defs>
</svg>
