<?xml version="1.0" encoding="utf-8" standalone="no"?>
<!DOCTYPE svg PUBLIC "-//W3C//DTD SVG 1.1//EN"
  "http://www.w3.org/Graphics/SVG/1.1/DTD/svg11.dtd">
<svg height="383.471875pt" version="1.1" viewBox="0 0 421.086875 383.471875" width="421.086875pt" xmlns="http://www.w3.org/2000/svg" xmlns:xlink="http://www.w3.org/1999/xlink">
 <metadata>
  <rdf:RDF xmlns:cc="http://creativecommons.org/ns#" xmlns:dc="http://purl.org/dc/elements/1.1/" xmlns:rdf="http://www.w3.org/1999/02/22-rdf-syntax-ns#">
   <cc:Work>
    <dc:type rdf:resource="http://purl.org/dc/dcmitype/StillImage"/>
    <dc:date>2021-06-11T14:39:38.539726</dc:date>
    <dc:format>image/svg+xml</dc:format>
    <dc:creator>
     <cc:Agent>
      <dc:title>Matplotlib v3.4.2, https://matplotlib.org/</dc:title>
     </cc:Agent>
    </dc:creator>
   </cc:Work>
  </rdf:RDF>
 </metadata>
 <defs>
  <style type="text/css">*{stroke-linecap:butt;stroke-linejoin:round;}</style>
 </defs>
 <g id="figure_1">
  <g id="patch_1">
   <path d="M 0 383.471875 
L 421.086875 383.471875 
L 421.086875 0 
L 0 0 
z
" style="fill:#ffffff;"/>
  </g>
  <g id="axes_1">
   <g id="patch_2">
    <path d="M 63.336875 339.84 
L 398.136875 339.84 
L 398.136875 7.2 
L 63.336875 7.2 
z
" style="fill:#ffffff;"/>
   </g>
   <g id="matplotlib.axis_1">
    <g id="xtick_1">
     <g id="line2d_1">
      <path clip-path="url(#p5ba9b1fbc9)" d="M 93.773239 339.84 
L 93.773239 7.2 
" style="fill:none;stroke:#000000;stroke-dasharray:0.5,0.825;stroke-dashoffset:0;stroke-width:0.5;"/>
     </g>
     <g id="line2d_2">
      <defs>
       <path d="M 0 0 
L 0 3.5 
" id="m6f1f67d633" style="stroke:#000000;stroke-width:0.8;"/>
      </defs>
      <g>
       <use style="stroke:#000000;stroke-width:0.8;" x="93.773239" xlink:href="#m6f1f67d633" y="339.84"/>
      </g>
     </g>
     <g id="text_1">
      <!-- 0.000 -->
      <g transform="translate(78.023239 356.56125)scale(0.14 -0.14)">
       <defs>
        <path d="M 231 2094 
Q 231 2819 450 3342 
Q 669 3866 1031 4122 
Q 1313 4325 1613 4325 
Q 2100 4325 2488 3828 
Q 2972 3213 2972 2159 
Q 2972 1422 2759 906 
Q 2547 391 2217 158 
Q 1888 -75 1581 -75 
Q 975 -75 572 641 
Q 231 1244 231 2094 
z
M 844 2016 
Q 844 1141 1059 588 
Q 1238 122 1591 122 
Q 1759 122 1940 273 
Q 2122 425 2216 781 
Q 2359 1319 2359 2297 
Q 2359 3022 2209 3506 
Q 2097 3866 1919 4016 
Q 1791 4119 1609 4119 
Q 1397 4119 1231 3928 
Q 1006 3669 925 3112 
Q 844 2556 844 2016 
z
" id="TimesNewRomanPSMT-30" transform="scale(0.015625)"/>
        <path d="M 800 606 
Q 947 606 1047 504 
Q 1147 403 1147 259 
Q 1147 116 1045 14 
Q 944 -88 800 -88 
Q 656 -88 554 14 
Q 453 116 453 259 
Q 453 406 554 506 
Q 656 606 800 606 
z
" id="TimesNewRomanPSMT-2e" transform="scale(0.015625)"/>
       </defs>
       <use xlink:href="#TimesNewRomanPSMT-30"/>
       <use x="50" xlink:href="#TimesNewRomanPSMT-2e"/>
       <use x="75" xlink:href="#TimesNewRomanPSMT-30"/>
       <use x="125" xlink:href="#TimesNewRomanPSMT-30"/>
       <use x="175" xlink:href="#TimesNewRomanPSMT-30"/>
      </g>
     </g>
    </g>
    <g id="xtick_2">
     <g id="line2d_3">
      <path clip-path="url(#p5ba9b1fbc9)" d="M 154.645966 339.84 
L 154.645966 7.2 
" style="fill:none;stroke:#000000;stroke-dasharray:0.5,0.825;stroke-dashoffset:0;stroke-width:0.5;"/>
     </g>
     <g id="line2d_4">
      <g>
       <use style="stroke:#000000;stroke-width:0.8;" x="154.645966" xlink:href="#m6f1f67d633" y="339.84"/>
      </g>
     </g>
     <g id="text_2">
      <!-- 0.001 -->
      <g transform="translate(138.895966 356.56125)scale(0.14 -0.14)">
       <defs>
        <path d="M 750 3822 
L 1781 4325 
L 1884 4325 
L 1884 747 
Q 1884 391 1914 303 
Q 1944 216 2037 169 
Q 2131 122 2419 116 
L 2419 0 
L 825 0 
L 825 116 
Q 1125 122 1212 167 
Q 1300 213 1334 289 
Q 1369 366 1369 747 
L 1369 3034 
Q 1369 3497 1338 3628 
Q 1316 3728 1258 3775 
Q 1200 3822 1119 3822 
Q 1003 3822 797 3725 
L 750 3822 
z
" id="TimesNewRomanPSMT-31" transform="scale(0.015625)"/>
       </defs>
       <use xlink:href="#TimesNewRomanPSMT-30"/>
       <use x="50" xlink:href="#TimesNewRomanPSMT-2e"/>
       <use x="75" xlink:href="#TimesNewRomanPSMT-30"/>
       <use x="125" xlink:href="#TimesNewRomanPSMT-30"/>
       <use x="175" xlink:href="#TimesNewRomanPSMT-31"/>
      </g>
     </g>
    </g>
    <g id="xtick_3">
     <g id="line2d_5">
      <path clip-path="url(#p5ba9b1fbc9)" d="M 215.518693 339.84 
L 215.518693 7.2 
" style="fill:none;stroke:#000000;stroke-dasharray:0.5,0.825;stroke-dashoffset:0;stroke-width:0.5;"/>
     </g>
     <g id="line2d_6">
      <g>
       <use style="stroke:#000000;stroke-width:0.8;" x="215.518693" xlink:href="#m6f1f67d633" y="339.84"/>
      </g>
     </g>
     <g id="text_3">
      <!-- 0.002 -->
      <g transform="translate(199.768693 356.56125)scale(0.14 -0.14)">
       <defs>
        <path d="M 2934 816 
L 2638 0 
L 138 0 
L 138 116 
Q 1241 1122 1691 1759 
Q 2141 2397 2141 2925 
Q 2141 3328 1894 3587 
Q 1647 3847 1303 3847 
Q 991 3847 742 3664 
Q 494 3481 375 3128 
L 259 3128 
Q 338 3706 661 4015 
Q 984 4325 1469 4325 
Q 1984 4325 2329 3994 
Q 2675 3663 2675 3213 
Q 2675 2891 2525 2569 
Q 2294 2063 1775 1497 
Q 997 647 803 472 
L 1909 472 
Q 2247 472 2383 497 
Q 2519 522 2628 598 
Q 2738 675 2819 816 
L 2934 816 
z
" id="TimesNewRomanPSMT-32" transform="scale(0.015625)"/>
       </defs>
       <use xlink:href="#TimesNewRomanPSMT-30"/>
       <use x="50" xlink:href="#TimesNewRomanPSMT-2e"/>
       <use x="75" xlink:href="#TimesNewRomanPSMT-30"/>
       <use x="125" xlink:href="#TimesNewRomanPSMT-30"/>
       <use x="175" xlink:href="#TimesNewRomanPSMT-32"/>
      </g>
     </g>
    </g>
    <g id="xtick_4">
     <g id="line2d_7">
      <path clip-path="url(#p5ba9b1fbc9)" d="M 276.39142 339.84 
L 276.39142 7.2 
" style="fill:none;stroke:#000000;stroke-dasharray:0.5,0.825;stroke-dashoffset:0;stroke-width:0.5;"/>
     </g>
     <g id="line2d_8">
      <g>
       <use style="stroke:#000000;stroke-width:0.8;" x="276.39142" xlink:href="#m6f1f67d633" y="339.84"/>
      </g>
     </g>
     <g id="text_4">
      <!-- 0.003 -->
      <g transform="translate(260.64142 356.56125)scale(0.14 -0.14)">
       <defs>
        <path d="M 325 3431 
Q 506 3859 782 4092 
Q 1059 4325 1472 4325 
Q 1981 4325 2253 3994 
Q 2459 3747 2459 3466 
Q 2459 3003 1878 2509 
Q 2269 2356 2469 2072 
Q 2669 1788 2669 1403 
Q 2669 853 2319 450 
Q 1863 -75 997 -75 
Q 569 -75 414 31 
Q 259 138 259 259 
Q 259 350 332 419 
Q 406 488 509 488 
Q 588 488 669 463 
Q 722 447 909 348 
Q 1097 250 1169 231 
Q 1284 197 1416 197 
Q 1734 197 1970 444 
Q 2206 691 2206 1028 
Q 2206 1275 2097 1509 
Q 2016 1684 1919 1775 
Q 1784 1900 1550 2001 
Q 1316 2103 1072 2103 
L 972 2103 
L 972 2197 
Q 1219 2228 1467 2375 
Q 1716 2522 1828 2728 
Q 1941 2934 1941 3181 
Q 1941 3503 1739 3701 
Q 1538 3900 1238 3900 
Q 753 3900 428 3381 
L 325 3431 
z
" id="TimesNewRomanPSMT-33" transform="scale(0.015625)"/>
       </defs>
       <use xlink:href="#TimesNewRomanPSMT-30"/>
       <use x="50" xlink:href="#TimesNewRomanPSMT-2e"/>
       <use x="75" xlink:href="#TimesNewRomanPSMT-30"/>
       <use x="125" xlink:href="#TimesNewRomanPSMT-30"/>
       <use x="175" xlink:href="#TimesNewRomanPSMT-33"/>
      </g>
     </g>
    </g>
    <g id="xtick_5">
     <g id="line2d_9">
      <path clip-path="url(#p5ba9b1fbc9)" d="M 337.264148 339.84 
L 337.264148 7.2 
" style="fill:none;stroke:#000000;stroke-dasharray:0.5,0.825;stroke-dashoffset:0;stroke-width:0.5;"/>
     </g>
     <g id="line2d_10">
      <g>
       <use style="stroke:#000000;stroke-width:0.8;" x="337.264148" xlink:href="#m6f1f67d633" y="339.84"/>
      </g>
     </g>
     <g id="text_5">
      <!-- 0.004 -->
      <g transform="translate(321.514148 356.56125)scale(0.14 -0.14)">
       <defs>
        <path d="M 2978 1563 
L 2978 1119 
L 2409 1119 
L 2409 0 
L 1894 0 
L 1894 1119 
L 100 1119 
L 100 1519 
L 2066 4325 
L 2409 4325 
L 2409 1563 
L 2978 1563 
z
M 1894 1563 
L 1894 3666 
L 406 1563 
L 1894 1563 
z
" id="TimesNewRomanPSMT-34" transform="scale(0.015625)"/>
       </defs>
       <use xlink:href="#TimesNewRomanPSMT-30"/>
       <use x="50" xlink:href="#TimesNewRomanPSMT-2e"/>
       <use x="75" xlink:href="#TimesNewRomanPSMT-30"/>
       <use x="125" xlink:href="#TimesNewRomanPSMT-30"/>
       <use x="175" xlink:href="#TimesNewRomanPSMT-34"/>
      </g>
     </g>
    </g>
    <g id="xtick_6">
     <g id="line2d_11">
      <path clip-path="url(#p5ba9b1fbc9)" d="M 398.136875 339.84 
L 398.136875 7.2 
" style="fill:none;stroke:#000000;stroke-dasharray:0.5,0.825;stroke-dashoffset:0;stroke-width:0.5;"/>
     </g>
     <g id="line2d_12">
      <g>
       <use style="stroke:#000000;stroke-width:0.8;" x="398.136875" xlink:href="#m6f1f67d633" y="339.84"/>
      </g>
     </g>
     <g id="text_6">
      <!-- 0.005 -->
      <g transform="translate(382.386875 356.56125)scale(0.14 -0.14)">
       <defs>
        <path d="M 2778 4238 
L 2534 3706 
L 1259 3706 
L 981 3138 
Q 1809 3016 2294 2522 
Q 2709 2097 2709 1522 
Q 2709 1188 2573 903 
Q 2438 619 2231 419 
Q 2025 219 1772 97 
Q 1413 -75 1034 -75 
Q 653 -75 479 54 
Q 306 184 306 341 
Q 306 428 378 495 
Q 450 563 559 563 
Q 641 563 702 538 
Q 763 513 909 409 
Q 1144 247 1384 247 
Q 1750 247 2026 523 
Q 2303 800 2303 1197 
Q 2303 1581 2056 1914 
Q 1809 2247 1375 2428 
Q 1034 2569 447 2591 
L 1259 4238 
L 2778 4238 
z
" id="TimesNewRomanPSMT-35" transform="scale(0.015625)"/>
       </defs>
       <use xlink:href="#TimesNewRomanPSMT-30"/>
       <use x="50" xlink:href="#TimesNewRomanPSMT-2e"/>
       <use x="75" xlink:href="#TimesNewRomanPSMT-30"/>
       <use x="125" xlink:href="#TimesNewRomanPSMT-30"/>
       <use x="175" xlink:href="#TimesNewRomanPSMT-35"/>
      </g>
     </g>
    </g>
    <g id="text_7">
     <!-- Time (sec) -->
     <g transform="translate(200.858906 373.277188)scale(0.14 -0.14)">
      <defs>
       <path d="M 3703 4238 
L 3750 3244 
L 3631 3244 
Q 3597 3506 3538 3619 
Q 3441 3800 3280 3886 
Q 3119 3972 2856 3972 
L 2259 3972 
L 2259 734 
Q 2259 344 2344 247 
Q 2463 116 2709 116 
L 2856 116 
L 2856 0 
L 1059 0 
L 1059 116 
L 1209 116 
Q 1478 116 1591 278 
Q 1659 378 1659 734 
L 1659 3972 
L 1150 3972 
Q 853 3972 728 3928 
Q 566 3869 450 3700 
Q 334 3531 313 3244 
L 194 3244 
L 244 4238 
L 3703 4238 
z
" id="TimesNewRomanPSMT-54" transform="scale(0.015625)"/>
       <path d="M 928 4444 
Q 1059 4444 1151 4351 
Q 1244 4259 1244 4128 
Q 1244 3997 1151 3903 
Q 1059 3809 928 3809 
Q 797 3809 703 3903 
Q 609 3997 609 4128 
Q 609 4259 701 4351 
Q 794 4444 928 4444 
z
M 1188 2947 
L 1188 647 
Q 1188 378 1227 289 
Q 1266 200 1342 156 
Q 1419 113 1622 113 
L 1622 0 
L 231 0 
L 231 113 
Q 441 113 512 153 
Q 584 194 626 287 
Q 669 381 669 647 
L 669 1750 
Q 669 2216 641 2353 
Q 619 2453 572 2492 
Q 525 2531 444 2531 
Q 356 2531 231 2484 
L 188 2597 
L 1050 2947 
L 1188 2947 
z
" id="TimesNewRomanPSMT-69" transform="scale(0.015625)"/>
       <path d="M 1050 2338 
Q 1363 2650 1419 2697 
Q 1559 2816 1721 2881 
Q 1884 2947 2044 2947 
Q 2313 2947 2506 2790 
Q 2700 2634 2766 2338 
Q 3088 2713 3309 2830 
Q 3531 2947 3766 2947 
Q 3994 2947 4170 2830 
Q 4347 2713 4450 2447 
Q 4519 2266 4519 1878 
L 4519 647 
Q 4519 378 4559 278 
Q 4591 209 4675 161 
Q 4759 113 4950 113 
L 4950 0 
L 3538 0 
L 3538 113 
L 3597 113 
Q 3781 113 3884 184 
Q 3956 234 3988 344 
Q 4000 397 4000 647 
L 4000 1878 
Q 4000 2228 3916 2372 
Q 3794 2572 3525 2572 
Q 3359 2572 3192 2489 
Q 3025 2406 2788 2181 
L 2781 2147 
L 2788 2013 
L 2788 647 
Q 2788 353 2820 281 
Q 2853 209 2943 161 
Q 3034 113 3253 113 
L 3253 0 
L 1806 0 
L 1806 113 
Q 2044 113 2133 169 
Q 2222 225 2256 338 
Q 2272 391 2272 647 
L 2272 1878 
Q 2272 2228 2169 2381 
Q 2031 2581 1784 2581 
Q 1616 2581 1450 2491 
Q 1191 2353 1050 2181 
L 1050 647 
Q 1050 366 1089 281 
Q 1128 197 1204 155 
Q 1281 113 1516 113 
L 1516 0 
L 100 0 
L 100 113 
Q 297 113 375 155 
Q 453 197 493 289 
Q 534 381 534 647 
L 534 1741 
Q 534 2213 506 2350 
Q 484 2453 437 2492 
Q 391 2531 309 2531 
Q 222 2531 100 2484 
L 53 2597 
L 916 2947 
L 1050 2947 
L 1050 2338 
z
" id="TimesNewRomanPSMT-6d" transform="scale(0.015625)"/>
       <path d="M 681 1784 
Q 678 1147 991 784 
Q 1303 422 1725 422 
Q 2006 422 2214 576 
Q 2422 731 2563 1106 
L 2659 1044 
Q 2594 616 2278 264 
Q 1963 -88 1488 -88 
Q 972 -88 605 314 
Q 238 716 238 1394 
Q 238 2128 614 2539 
Q 991 2950 1559 2950 
Q 2041 2950 2350 2633 
Q 2659 2316 2659 1784 
L 681 1784 
z
M 681 1966 
L 2006 1966 
Q 1991 2241 1941 2353 
Q 1863 2528 1708 2628 
Q 1553 2728 1384 2728 
Q 1125 2728 920 2526 
Q 716 2325 681 1966 
z
" id="TimesNewRomanPSMT-65" transform="scale(0.015625)"/>
       <path id="TimesNewRomanPSMT-20" transform="scale(0.015625)"/>
       <path d="M 1988 -1253 
L 1988 -1369 
Q 1516 -1131 1200 -813 
Q 750 -359 506 256 
Q 263 872 263 1534 
Q 263 2503 741 3301 
Q 1219 4100 1988 4444 
L 1988 4313 
Q 1603 4100 1356 3731 
Q 1109 3363 987 2797 
Q 866 2231 866 1616 
Q 866 947 969 400 
Q 1050 -31 1165 -292 
Q 1281 -553 1476 -793 
Q 1672 -1034 1988 -1253 
z
" id="TimesNewRomanPSMT-28" transform="scale(0.015625)"/>
       <path d="M 2050 2947 
L 2050 1972 
L 1947 1972 
Q 1828 2431 1642 2597 
Q 1456 2763 1169 2763 
Q 950 2763 815 2647 
Q 681 2531 681 2391 
Q 681 2216 781 2091 
Q 878 1963 1175 1819 
L 1631 1597 
Q 2266 1288 2266 781 
Q 2266 391 1970 151 
Q 1675 -88 1309 -88 
Q 1047 -88 709 6 
Q 606 38 541 38 
Q 469 38 428 -44 
L 325 -44 
L 325 978 
L 428 978 
Q 516 541 762 319 
Q 1009 97 1316 97 
Q 1531 97 1667 223 
Q 1803 350 1803 528 
Q 1803 744 1651 891 
Q 1500 1038 1047 1263 
Q 594 1488 453 1669 
Q 313 1847 313 2119 
Q 313 2472 555 2709 
Q 797 2947 1181 2947 
Q 1350 2947 1591 2875 
Q 1750 2828 1803 2828 
Q 1853 2828 1881 2850 
Q 1909 2872 1947 2947 
L 2050 2947 
z
" id="TimesNewRomanPSMT-73" transform="scale(0.015625)"/>
       <path d="M 2631 1088 
Q 2516 522 2178 217 
Q 1841 -88 1431 -88 
Q 944 -88 581 321 
Q 219 731 219 1428 
Q 219 2103 620 2525 
Q 1022 2947 1584 2947 
Q 2006 2947 2278 2723 
Q 2550 2500 2550 2259 
Q 2550 2141 2473 2067 
Q 2397 1994 2259 1994 
Q 2075 1994 1981 2113 
Q 1928 2178 1911 2362 
Q 1894 2547 1784 2644 
Q 1675 2738 1481 2738 
Q 1169 2738 978 2506 
Q 725 2200 725 1697 
Q 725 1184 976 792 
Q 1228 400 1656 400 
Q 1963 400 2206 609 
Q 2378 753 2541 1131 
L 2631 1088 
z
" id="TimesNewRomanPSMT-63" transform="scale(0.015625)"/>
       <path d="M 144 4313 
L 144 4444 
Q 619 4209 934 3891 
Q 1381 3434 1625 2820 
Q 1869 2206 1869 1541 
Q 1869 572 1392 -226 
Q 916 -1025 144 -1369 
L 144 -1253 
Q 528 -1038 776 -670 
Q 1025 -303 1145 264 
Q 1266 831 1266 1447 
Q 1266 2113 1163 2663 
Q 1084 3094 967 3353 
Q 850 3613 656 3853 
Q 463 4094 144 4313 
z
" id="TimesNewRomanPSMT-29" transform="scale(0.015625)"/>
      </defs>
      <use xlink:href="#TimesNewRomanPSMT-54"/>
      <use x="57.583984" xlink:href="#TimesNewRomanPSMT-69"/>
      <use x="85.367188" xlink:href="#TimesNewRomanPSMT-6d"/>
      <use x="163.150391" xlink:href="#TimesNewRomanPSMT-65"/>
      <use x="207.535156" xlink:href="#TimesNewRomanPSMT-20"/>
      <use x="232.535156" xlink:href="#TimesNewRomanPSMT-28"/>
      <use x="265.835938" xlink:href="#TimesNewRomanPSMT-73"/>
      <use x="304.751953" xlink:href="#TimesNewRomanPSMT-65"/>
      <use x="349.136719" xlink:href="#TimesNewRomanPSMT-63"/>
      <use x="393.521484" xlink:href="#TimesNewRomanPSMT-29"/>
     </g>
    </g>
   </g>
   <g id="matplotlib.axis_2">
    <g id="ytick_1">
     <g id="line2d_13">
      <path clip-path="url(#p5ba9b1fbc9)" d="M 63.336875 333.068516 
L 398.136875 333.068516 
" style="fill:none;stroke:#000000;stroke-dasharray:0.5,0.825;stroke-dashoffset:0;stroke-width:0.5;"/>
     </g>
     <g id="line2d_14">
      <defs>
       <path d="M 0 0 
L -3.5 0 
" id="m31aa925ca1" style="stroke:#000000;stroke-width:0.8;"/>
      </defs>
      <g>
       <use style="stroke:#000000;stroke-width:0.8;" x="63.336875" xlink:href="#m31aa925ca1" y="333.068516"/>
      </g>
     </g>
     <g id="text_8">
      <!-- −0.06 -->
      <g transform="translate(23.942188 337.929141)scale(0.14 -0.14)">
       <defs>
        <path d="M 3484 2000 
L 116 2000 
L 116 2256 
L 3484 2256 
L 3484 2000 
z
" id="TimesNewRomanPSMT-2212" transform="scale(0.015625)"/>
        <path d="M 2869 4325 
L 2869 4209 
Q 2456 4169 2195 4045 
Q 1934 3922 1679 3669 
Q 1425 3416 1258 3105 
Q 1091 2794 978 2366 
Q 1428 2675 1881 2675 
Q 2316 2675 2634 2325 
Q 2953 1975 2953 1425 
Q 2953 894 2631 456 
Q 2244 -75 1606 -75 
Q 1172 -75 869 213 
Q 275 772 275 1663 
Q 275 2231 503 2743 
Q 731 3256 1154 3653 
Q 1578 4050 1965 4187 
Q 2353 4325 2688 4325 
L 2869 4325 
z
M 925 2138 
Q 869 1716 869 1456 
Q 869 1156 980 804 
Q 1091 453 1309 247 
Q 1469 100 1697 100 
Q 1969 100 2183 356 
Q 2397 613 2397 1088 
Q 2397 1622 2184 2012 
Q 1972 2403 1581 2403 
Q 1463 2403 1327 2353 
Q 1191 2303 925 2138 
z
" id="TimesNewRomanPSMT-36" transform="scale(0.015625)"/>
       </defs>
       <use xlink:href="#TimesNewRomanPSMT-2212"/>
       <use x="56.396484" xlink:href="#TimesNewRomanPSMT-30"/>
       <use x="106.396484" xlink:href="#TimesNewRomanPSMT-2e"/>
       <use x="131.396484" xlink:href="#TimesNewRomanPSMT-30"/>
       <use x="181.396484" xlink:href="#TimesNewRomanPSMT-36"/>
      </g>
     </g>
    </g>
    <g id="ytick_2">
     <g id="line2d_15">
      <path clip-path="url(#p5ba9b1fbc9)" d="M 63.336875 273.239634 
L 398.136875 273.239634 
" style="fill:none;stroke:#000000;stroke-dasharray:0.5,0.825;stroke-dashoffset:0;stroke-width:0.5;"/>
     </g>
     <g id="line2d_16">
      <g>
       <use style="stroke:#000000;stroke-width:0.8;" x="63.336875" xlink:href="#m31aa925ca1" y="273.239634"/>
      </g>
     </g>
     <g id="text_9">
      <!-- −0.04 -->
      <g transform="translate(23.942188 278.100259)scale(0.14 -0.14)">
       <use xlink:href="#TimesNewRomanPSMT-2212"/>
       <use x="56.396484" xlink:href="#TimesNewRomanPSMT-30"/>
       <use x="106.396484" xlink:href="#TimesNewRomanPSMT-2e"/>
       <use x="131.396484" xlink:href="#TimesNewRomanPSMT-30"/>
       <use x="181.396484" xlink:href="#TimesNewRomanPSMT-34"/>
      </g>
     </g>
    </g>
    <g id="ytick_3">
     <g id="line2d_17">
      <path clip-path="url(#p5ba9b1fbc9)" d="M 63.336875 213.410753 
L 398.136875 213.410753 
" style="fill:none;stroke:#000000;stroke-dasharray:0.5,0.825;stroke-dashoffset:0;stroke-width:0.5;"/>
     </g>
     <g id="line2d_18">
      <g>
       <use style="stroke:#000000;stroke-width:0.8;" x="63.336875" xlink:href="#m31aa925ca1" y="213.410753"/>
      </g>
     </g>
     <g id="text_10">
      <!-- −0.02 -->
      <g transform="translate(23.942188 218.271378)scale(0.14 -0.14)">
       <use xlink:href="#TimesNewRomanPSMT-2212"/>
       <use x="56.396484" xlink:href="#TimesNewRomanPSMT-30"/>
       <use x="106.396484" xlink:href="#TimesNewRomanPSMT-2e"/>
       <use x="131.396484" xlink:href="#TimesNewRomanPSMT-30"/>
       <use x="181.396484" xlink:href="#TimesNewRomanPSMT-32"/>
      </g>
     </g>
    </g>
    <g id="ytick_4">
     <g id="line2d_19">
      <path clip-path="url(#p5ba9b1fbc9)" d="M 63.336875 153.581871 
L 398.136875 153.581871 
" style="fill:none;stroke:#000000;stroke-dasharray:0.5,0.825;stroke-dashoffset:0;stroke-width:0.5;"/>
     </g>
     <g id="line2d_20">
      <g>
       <use style="stroke:#000000;stroke-width:0.8;" x="63.336875" xlink:href="#m31aa925ca1" y="153.581871"/>
      </g>
     </g>
     <g id="text_11">
      <!-- 0.00 -->
      <g transform="translate(31.836875 158.442496)scale(0.14 -0.14)">
       <use xlink:href="#TimesNewRomanPSMT-30"/>
       <use x="50" xlink:href="#TimesNewRomanPSMT-2e"/>
       <use x="75" xlink:href="#TimesNewRomanPSMT-30"/>
       <use x="125" xlink:href="#TimesNewRomanPSMT-30"/>
      </g>
     </g>
    </g>
    <g id="ytick_5">
     <g id="line2d_21">
      <path clip-path="url(#p5ba9b1fbc9)" d="M 63.336875 93.752989 
L 398.136875 93.752989 
" style="fill:none;stroke:#000000;stroke-dasharray:0.5,0.825;stroke-dashoffset:0;stroke-width:0.5;"/>
     </g>
     <g id="line2d_22">
      <g>
       <use style="stroke:#000000;stroke-width:0.8;" x="63.336875" xlink:href="#m31aa925ca1" y="93.752989"/>
      </g>
     </g>
     <g id="text_12">
      <!-- 0.02 -->
      <g transform="translate(31.836875 98.613614)scale(0.14 -0.14)">
       <use xlink:href="#TimesNewRomanPSMT-30"/>
       <use x="50" xlink:href="#TimesNewRomanPSMT-2e"/>
       <use x="75" xlink:href="#TimesNewRomanPSMT-30"/>
       <use x="125" xlink:href="#TimesNewRomanPSMT-32"/>
      </g>
     </g>
    </g>
    <g id="ytick_6">
     <g id="line2d_23">
      <path clip-path="url(#p5ba9b1fbc9)" d="M 63.336875 33.924108 
L 398.136875 33.924108 
" style="fill:none;stroke:#000000;stroke-dasharray:0.5,0.825;stroke-dashoffset:0;stroke-width:0.5;"/>
     </g>
     <g id="line2d_24">
      <g>
       <use style="stroke:#000000;stroke-width:0.8;" x="63.336875" xlink:href="#m31aa925ca1" y="33.924108"/>
      </g>
     </g>
     <g id="text_13">
      <!-- 0.04 -->
      <g transform="translate(31.836875 38.784733)scale(0.14 -0.14)">
       <use xlink:href="#TimesNewRomanPSMT-30"/>
       <use x="50" xlink:href="#TimesNewRomanPSMT-2e"/>
       <use x="75" xlink:href="#TimesNewRomanPSMT-30"/>
       <use x="125" xlink:href="#TimesNewRomanPSMT-34"/>
      </g>
     </g>
    </g>
    <g id="text_14">
     <!-- Volatage (V) -->
     <g transform="translate(16.92125 209.352344)rotate(-90)scale(0.14 -0.14)">
      <defs>
       <path d="M 4544 4238 
L 4544 4122 
Q 4319 4081 4203 3978 
Q 4038 3825 3909 3509 
L 2431 -97 
L 2316 -97 
L 728 3556 
Q 606 3838 556 3900 
Q 478 3997 364 4051 
Q 250 4106 56 4122 
L 56 4238 
L 1788 4238 
L 1788 4122 
Q 1494 4094 1406 4022 
Q 1319 3950 1319 3838 
Q 1319 3681 1463 3350 
L 2541 866 
L 3541 3319 
Q 3688 3681 3688 3822 
Q 3688 3913 3597 3995 
Q 3506 4078 3291 4113 
Q 3275 4116 3238 4122 
L 3238 4238 
L 4544 4238 
z
" id="TimesNewRomanPSMT-56" transform="scale(0.015625)"/>
       <path d="M 1600 2947 
Q 2250 2947 2644 2453 
Q 2978 2031 2978 1484 
Q 2978 1100 2793 706 
Q 2609 313 2286 112 
Q 1963 -88 1566 -88 
Q 919 -88 538 428 
Q 216 863 216 1403 
Q 216 1797 411 2186 
Q 606 2575 925 2761 
Q 1244 2947 1600 2947 
z
M 1503 2744 
Q 1338 2744 1170 2645 
Q 1003 2547 900 2300 
Q 797 2053 797 1666 
Q 797 1041 1045 587 
Q 1294 134 1700 134 
Q 2003 134 2200 384 
Q 2397 634 2397 1244 
Q 2397 2006 2069 2444 
Q 1847 2744 1503 2744 
z
" id="TimesNewRomanPSMT-6f" transform="scale(0.015625)"/>
       <path d="M 1184 4444 
L 1184 647 
Q 1184 378 1223 290 
Q 1263 203 1344 158 
Q 1425 113 1647 113 
L 1647 0 
L 244 0 
L 244 113 
Q 441 113 512 153 
Q 584 194 625 287 
Q 666 381 666 647 
L 666 3247 
Q 666 3731 644 3842 
Q 622 3953 573 3993 
Q 525 4034 450 4034 
Q 369 4034 244 3984 
L 191 4094 
L 1044 4444 
L 1184 4444 
z
" id="TimesNewRomanPSMT-6c" transform="scale(0.015625)"/>
       <path d="M 1822 413 
Q 1381 72 1269 19 
Q 1100 -59 909 -59 
Q 613 -59 420 144 
Q 228 347 228 678 
Q 228 888 322 1041 
Q 450 1253 767 1440 
Q 1084 1628 1822 1897 
L 1822 2009 
Q 1822 2438 1686 2597 
Q 1550 2756 1291 2756 
Q 1094 2756 978 2650 
Q 859 2544 859 2406 
L 866 2225 
Q 866 2081 792 2003 
Q 719 1925 600 1925 
Q 484 1925 411 2006 
Q 338 2088 338 2228 
Q 338 2497 613 2722 
Q 888 2947 1384 2947 
Q 1766 2947 2009 2819 
Q 2194 2722 2281 2516 
Q 2338 2381 2338 1966 
L 2338 994 
Q 2338 584 2353 492 
Q 2369 400 2405 369 
Q 2441 338 2488 338 
Q 2538 338 2575 359 
Q 2641 400 2828 588 
L 2828 413 
Q 2478 -56 2159 -56 
Q 2006 -56 1915 50 
Q 1825 156 1822 413 
z
M 1822 616 
L 1822 1706 
Q 1350 1519 1213 1441 
Q 966 1303 859 1153 
Q 753 1003 753 825 
Q 753 600 887 451 
Q 1022 303 1197 303 
Q 1434 303 1822 616 
z
" id="TimesNewRomanPSMT-61" transform="scale(0.015625)"/>
       <path d="M 1031 3803 
L 1031 2863 
L 1700 2863 
L 1700 2644 
L 1031 2644 
L 1031 788 
Q 1031 509 1111 412 
Q 1191 316 1316 316 
Q 1419 316 1516 380 
Q 1613 444 1666 569 
L 1788 569 
Q 1678 263 1478 108 
Q 1278 -47 1066 -47 
Q 922 -47 784 33 
Q 647 113 581 261 
Q 516 409 516 719 
L 516 2644 
L 63 2644 
L 63 2747 
Q 234 2816 414 2980 
Q 594 3144 734 3369 
Q 806 3488 934 3803 
L 1031 3803 
z
" id="TimesNewRomanPSMT-74" transform="scale(0.015625)"/>
       <path d="M 966 1044 
Q 703 1172 562 1401 
Q 422 1631 422 1909 
Q 422 2334 742 2640 
Q 1063 2947 1563 2947 
Q 1972 2947 2272 2747 
L 2878 2747 
Q 3013 2747 3034 2739 
Q 3056 2731 3066 2713 
Q 3084 2684 3084 2613 
Q 3084 2531 3069 2500 
Q 3059 2484 3036 2475 
Q 3013 2466 2878 2466 
L 2506 2466 
Q 2681 2241 2681 1891 
Q 2681 1491 2375 1206 
Q 2069 922 1553 922 
Q 1341 922 1119 984 
Q 981 866 932 777 
Q 884 688 884 625 
Q 884 572 936 522 
Q 988 472 1138 450 
Q 1225 438 1575 428 
Q 2219 413 2409 384 
Q 2700 344 2873 169 
Q 3047 -6 3047 -263 
Q 3047 -616 2716 -925 
Q 2228 -1381 1444 -1381 
Q 841 -1381 425 -1109 
Q 191 -953 191 -784 
Q 191 -709 225 -634 
Q 278 -519 444 -313 
Q 466 -284 763 25 
Q 600 122 533 198 
Q 466 275 466 372 
Q 466 481 555 628 
Q 644 775 966 1044 
z
M 1509 2797 
Q 1278 2797 1122 2612 
Q 966 2428 966 2047 
Q 966 1553 1178 1281 
Q 1341 1075 1591 1075 
Q 1828 1075 1981 1253 
Q 2134 1431 2134 1813 
Q 2134 2309 1919 2591 
Q 1759 2797 1509 2797 
z
M 934 0 
Q 788 -159 713 -296 
Q 638 -434 638 -550 
Q 638 -700 819 -813 
Q 1131 -1006 1722 -1006 
Q 2284 -1006 2551 -807 
Q 2819 -609 2819 -384 
Q 2819 -222 2659 -153 
Q 2497 -84 2016 -72 
Q 1313 -53 934 0 
z
" id="TimesNewRomanPSMT-67" transform="scale(0.015625)"/>
      </defs>
      <use xlink:href="#TimesNewRomanPSMT-56"/>
      <use x="59.341797" xlink:href="#TimesNewRomanPSMT-6f"/>
      <use x="109.341797" xlink:href="#TimesNewRomanPSMT-6c"/>
      <use x="137.125" xlink:href="#TimesNewRomanPSMT-61"/>
      <use x="181.509766" xlink:href="#TimesNewRomanPSMT-74"/>
      <use x="209.292969" xlink:href="#TimesNewRomanPSMT-61"/>
      <use x="253.677734" xlink:href="#TimesNewRomanPSMT-67"/>
      <use x="303.677734" xlink:href="#TimesNewRomanPSMT-65"/>
      <use x="348.0625" xlink:href="#TimesNewRomanPSMT-20"/>
      <use x="373.0625" xlink:href="#TimesNewRomanPSMT-28"/>
      <use x="406.363281" xlink:href="#TimesNewRomanPSMT-56"/>
      <use x="478.580078" xlink:href="#TimesNewRomanPSMT-29"/>
     </g>
    </g>
   </g>
   <g id="LineCollection_1">
    <path clip-path="url(#p5ba9b1fbc9)" d="M 78.555057 153.581871 
L 382.918693 153.581871 
" style="fill:none;stroke:#1f77b4;stroke-width:1.5;"/>
   </g>
   <g id="line2d_25">
    <path clip-path="url(#p5ba9b1fbc9)" d="M 78.555057 153.534606 
L 78.707239 153.571999 
L 78.798548 153.534606 
L 78.828984 153.571999 
L 92.160111 153.646785 
L 92.281857 153.646785 
L 92.373166 153.646785 
L 92.464475 153.684179 
L 92.494911 153.646785 
L 105.947784 153.721572 
L 106.06953 153.721572 
L 107.500039 153.796358 
L 107.530475 153.833751 
L 107.591348 153.758965 
L 110.33062 153.796358 
L 110.391493 153.871144 
L 110.452366 153.833751 
L 111.395893 153.908537 
L 111.548075 153.94593 
L 111.700257 153.871144 
L 111.791566 153.94593 
L 111.822002 153.908537 
L 112.491602 153.983323 
L 112.643784 154.020716 
L 112.76553 154.020716 
L 112.948148 154.095502 
L 113.648184 154.170288 
L 113.830802 154.245074 
L 114.256911 154.31986 
L 114.409093 154.357253 
L 114.804766 154.43204 
L 115.01782 154.544219 
L 115.413493 154.619005 
L 115.535239 154.693791 
L 115.961348 154.731184 
L 116.143966 154.918149 
L 116.296148 154.880756 
L 116.44833 154.918149 
L 116.570075 154.992935 
L 116.630948 154.955542 
L 116.661384 154.992935 
L 116.752693 155.030328 
L 116.78313 154.992935 
L 116.965748 155.067721 
L 117.087493 155.105114 
L 117.209239 155.105114 
L 117.422293 155.142507 
L 117.45273 155.217294 
L 117.544039 155.179901 
L 118.152766 155.254687 
L 118.335384 155.329473 
L 118.45713 155.29208 
L 118.639748 155.366866 
L 119.12673 155.404259 
L 119.218039 155.479045 
L 119.248475 155.441652 
L 119.400657 155.553831 
L 119.431093 155.479045 
L 119.491966 155.516438 
L 119.70502 155.628617 
L 119.826766 155.628617 
L 120.161566 155.703403 
L 120.313748 155.778189 
L 120.344184 155.703403 
L 120.405057 155.740796 
L 120.618111 155.852975 
L 120.770293 155.927762 
L 120.922475 156.039941 
L 121.105093 156.114727 
L 121.348584 156.264299 
L 121.439893 156.301692 
L 121.622511 156.488657 
L 121.71382 156.563443 
L 123.05302 158.35831 
L 123.418257 158.993992 
L 123.631311 159.405315 
L 125.39662 164.00466 
L 127.557602 172.380704 
L 127.953275 174.138178 
L 128.440257 176.344368 
L 129.627275 181.691573 
L 129.688148 181.915932 
L 130.236002 184.34648 
L 130.75342 186.403098 
L 130.966475 187.150959 
L 131.270839 188.347537 
L 132.123057 191.07723 
L 132.305675 191.45116 
L 132.76222 192.3112 
L 133.370948 192.909489 
L 134.284039 192.834703 
L 134.497093 192.722524 
L 134.679711 192.647738 
L 134.923202 192.3112 
L 135.014511 192.236414 
L 135.562366 191.413767 
L 135.86673 190.703299 
L 136.140657 189.805866 
L 137.997275 180.233244 
L 138.392948 177.765303 
L 139.762584 166.846532 
L 141.284402 150.842306 
L 144.48022 110.233453 
L 146.093348 88.059374 
L 147.91953 64.875685 
L 149.076111 51.97508 
L 150.476184 39.298838 
L 151.328402 33.83945 
L 151.724075 32.081976 
L 152.819784 28.41746 
L 153.61113 27.520024 
L 153.763311 27.6322 
L 153.85462 27.6322 
L 154.098111 28.006137 
L 154.158984 28.080923 
L 154.372039 28.49225 
L 155.559057 33.278551 
L 155.985166 35.896065 
L 156.563457 40.121479 
L 157.050439 44.496466 
L 158.146148 56.312671 
L 160.368002 90.639491 
L 161.585457 113.486649 
L 164.842148 183.822976 
L 166.698766 224.656189 
L 169.742402 282.353661 
L 171.294657 303.667706 
L 172.390366 314.62387 
L 172.786039 317.690097 
L 173.151275 319.971074 
L 173.760002 322.439024 
L 174.338293 324.159098 
L 174.581784 324.495636 
L 174.855711 324.682598 
L 175.403566 324.607812 
L 176.012293 323.747775 
L 176.407966 322.326836 
L 177.29062 318.662323 
L 178.355893 311.445458 
L 180.425566 290.01924 
L 181.856075 271.173145 
L 184.443166 228.096353 
L 186.695457 188.609288 
L 188.125966 164.00466 
L 189.00862 149.720515 
L 192.78273 95.687556 
L 194.152366 81.665165 
L 194.821966 75.906632 
L 195.491566 70.409854 
L 196.769893 60.313733 
L 198.200402 52.162045 
L 198.38302 51.45158 
L 199.083057 48.534919 
L 199.570039 47.151379 
L 199.874402 46.216553 
L 200.14833 45.132154 
L 201.15273 42.925964 
L 201.335348 42.552028 
L 201.670148 41.953742 
L 201.761457 41.878953 
L 201.913639 41.841566 
L 202.73542 41.766777 
L 202.887602 41.729378 
L 203.222402 41.804167 
L 203.648511 42.21549 
L 203.678948 42.178103 
L 203.709384 42.252889 
L 203.922439 42.365066 
L 204.135493 42.439855 
L 204.74422 43.337291 
L 205.048584 44.085143 
L 205.322511 44.571256 
L 206.205166 47.001804 
L 206.479093 47.861844 
L 207.209566 49.918468 
L 208.974875 56.83617 
L 209.309675 58.257109 
L 209.887966 60.799834 
L 210.801057 64.763503 
L 211.53153 67.867123 
L 212.140257 70.335068 
L 212.627239 72.503862 
L 213.357711 76.317956 
L 214.422984 82.076483 
L 216.21873 93.743118 
L 216.79702 97.78157 
L 220.418948 125.302853 
L 222.306002 142.466263 
L 224.406111 164.154233 
L 225.562693 177.017443 
L 226.658402 190.329369 
L 231.893457 253.374053 
L 232.715239 261.376169 
L 233.445711 268.293883 
L 235.180584 280.259659 
L 235.454511 281.680586 
L 236.002366 283.886785 
L 236.64153 285.195539 
L 236.671966 285.158149 
L 236.702402 285.195539 
L 236.945893 285.532077 
L 237.037202 285.606863 
L 237.189384 285.64425 
L 237.280693 285.569476 
L 237.737239 284.859002 
L 238.011166 284.260713 
L 238.802511 282.054523 
L 240.263457 274.35156 
L 242.24182 256.44028 
L 244.67673 228.320708 
L 245.620257 215.38271 
L 247.994293 178.774915 
L 250.003093 148.449151 
L 251.37273 129.79002 
L 253.564148 106.718503 
L 255.512075 93.144832 
L 256.72953 87.648047 
L 257.825239 85.217502 
L 257.916548 85.180109 
L 258.06873 85.030534 
L 259.103566 83.908745 
L 259.31662 83.833959 
L 259.560111 83.684384 
L 259.65142 83.609604 
L 260.016657 83.310459 
L 260.199275 83.273066 
L 260.351457 83.160884 
L 260.99062 83.23567 
L 261.08193 83.273066 
L 261.112366 83.23567 
L 261.355857 83.310459 
L 261.690657 83.572208 
L 261.75153 83.609604 
L 261.964584 83.871352 
L 262.025457 83.946141 
L 262.877675 85.142716 
L 263.33422 86.002753 
L 263.486402 86.301898 
L 263.729893 86.78801 
L 266.073493 92.808294 
L 266.43873 94.079655 
L 267.899675 99.875578 
L 271.308548 117.151168 
L 274.626111 136.857306 
L 275.021784 138.689565 
L 275.47833 140.895754 
L 275.600075 141.456651 
L 276.300111 144.448095 
L 276.908839 146.916037 
L 279.313311 155.366866 
L 279.435057 155.66601 
L 280.713384 158.545275 
L 280.956875 158.956599 
L 281.261239 159.70446 
L 281.596039 160.265355 
L 281.778657 160.601893 
L 281.809093 160.601893 
L 281.991711 160.901038 
L 283.209166 162.247187 
L 283.300475 162.209794 
L 283.330911 162.247187 
L 283.635275 162.321973 
L 283.75702 162.396759 
L 283.787457 162.359366 
L 284.304875 162.321973 
L 284.42662 162.247187 
L 284.548366 162.172401 
L 284.791857 162.022829 
L 284.944039 161.948042 
L 286.161493 160.302749 
L 286.800657 158.993992 
L 286.983275 158.620061 
L 289.174693 153.497213 
L 289.722548 152.674566 
L 289.935602 152.22585 
L 289.996475 152.151063 
L 290.270402 151.73974 
L 290.45302 151.664953 
L 290.605202 151.590168 
L 290.696511 151.590168 
L 290.87913 151.515382 
L 291.274802 151.440595 
L 291.396548 151.440595 
L 292.431384 152.861531 
L 293.89233 156.713016 
L 294.379311 158.582668 
L 295.14022 161.798471 
L 297.179457 172.34331 
L 298.214293 178.027054 
L 298.792584 181.392429 
L 299.188257 183.561226 
L 299.462184 184.982161 
L 300.16222 188.945826 
L 300.710075 191.638125 
L 302.84062 201.62207 
L 302.992802 202.257752 
L 305.032039 209.362435 
L 305.975566 211.419046 
L 306.706039 212.16691 
L 306.797348 212.204303 
L 306.919093 212.27909 
L 307.253893 212.204303 
L 307.558257 211.979948 
L 307.740875 211.905159 
L 308.075675 211.643411 
L 308.166984 211.568622 
L 308.684402 210.783364 
L 308.927893 210.222472 
L 308.988766 210.147686 
L 309.901857 207.679744 
L 310.29753 206.221415 
L 310.480148 205.54834 
L 311.819348 198.443661 
L 315.258657 172.268525 
L 316.080439 165.276024 
L 317.419639 154.693791 
L 320.706766 131.285742 
L 322.228584 122.610553 
L 323.35473 116.552879 
L 324.480875 110.308239 
L 326.307057 101.85741 
L 327.341893 98.454645 
L 329.228948 94.079655 
L 329.71593 93.593542 
L 329.807239 93.593542 
L 329.928984 93.481369 
L 329.95942 93.518762 
L 329.989857 93.556149 
L 330.05073 93.481369 
L 330.72033 93.556149 
L 330.902948 93.630939 
L 331.176875 93.705725 
L 331.329057 93.817907 
L 331.572548 93.892687 
L 331.816039 94.042262 
L 331.907348 94.079655 
L 332.089966 94.266617 
L 332.150839 94.341406 
L 332.607384 94.75273 
L 332.698693 94.827519 
L 333.39873 95.837132 
L 334.920548 99.838182 
L 335.65102 102.119158 
L 335.955384 103.091377 
L 336.32062 104.362747 
L 336.594548 105.29757 
L 337.781566 110.083881 
L 348.921275 164.303805 
L 351.995348 175.259969 
L 352.117093 175.559113 
L 352.81713 177.017443 
L 353.06062 177.466159 
L 353.304111 177.952268 
L 353.638911 178.513164 
L 353.943275 178.999275 
L 354.004148 179.074059 
L 354.49113 179.821922 
L 354.856366 180.457603 
L 355.282475 181.130679 
L 355.617275 181.691573 
L 355.921639 182.215076 
L 356.378184 183.075117 
L 356.40862 183.075117 
L 356.652111 183.59862 
L 357.07822 184.271695 
L 357.534766 185.131733 
L 357.565202 185.131733 
L 357.808693 185.617844 
L 357.83913 185.617844 
L 358.052184 186.029168 
L 358.08262 186.029168 
L 358.265239 186.290919 
L 358.721784 187.001387 
L 358.995711 187.412711 
L 360.821893 189.506721 
L 360.913202 189.544114 
L 361.065384 189.656294 
L 361.308875 189.805866 
L 361.339311 189.768473 
L 361.369748 189.843259 
L 361.52193 189.880652 
L 362.161093 189.843259 
L 362.313275 189.73108 
L 362.43502 189.805866 
L 362.617639 189.693687 
L 362.739384 189.73108 
L 363.013311 189.506721 
L 363.043748 189.544114 
L 363.074184 189.469328 
L 363.43942 189.170184 
L 363.561166 189.132791 
L 363.713348 188.983219 
L 363.804657 188.945826 
L 363.987275 188.75886 
L 364.596002 188.123179 
L 364.687311 188.123179 
L 365.082984 187.786641 
L 365.174293 187.711855 
L 365.509093 187.450104 
L 365.569966 187.375318 
L 365.87433 187.150959 
L 365.996075 187.076173 
L 366.45262 186.627456 
L 366.54393 186.627456 
L 366.817857 186.440491 
L 366.970039 186.365705 
L 367.243966 186.17874 
L 367.335275 186.141347 
L 367.517893 185.954382 
L 367.609202 185.879595 
L 367.822257 185.730023 
L 367.852693 185.767416 
L 367.913566 185.69263 
L 368.12662 185.617844 
L 368.339675 185.505665 
L 368.522293 185.430879 
L 368.88753 185.094342 
L 368.917966 185.131733 
L 368.978839 185.056949 
L 369.191893 184.94477 
L 369.283202 184.982161 
L 369.404948 184.869983 
L 369.496257 184.907377 
L 369.526693 184.869983 
L 369.648439 184.795198 
L 369.89193 184.645624 
L 370.013675 184.570839 
L 370.348475 184.309086 
L 370.500657 184.234302 
L 370.865893 183.935157 
L 370.957202 183.86037 
L 371.13982 183.673405 
L 371.56593 183.299476 
L 371.718111 183.224689 
L 371.870293 183.075117 
L 372.022475 183.000329 
L 372.205093 182.775973 
L 372.357275 182.701186 
L 372.509457 182.551614 
L 372.600766 182.476829 
L 372.783384 182.289863 
L 373.087748 182.02811 
L 373.118184 182.065504 
L 373.179057 181.990719 
L 375.035675 179.560169 
L 375.82702 177.877483 
L 375.887893 177.802696 
L 376.16182 177.204407 
L 377.92713 172.642456 
L 378.140184 171.931987 
L 378.779348 170.137121 
L 379.114148 169.01533 
L 379.17502 168.828364 
L 381.60993 159.442708 
L 382.036039 157.49827 
L 382.52302 155.329473 
L 382.918693 153.422427 
L 382.918693 153.422427 
" style="fill:none;stroke:#0000ff;stroke-linecap:square;stroke-width:1.5;"/>
   </g>
   <g id="line2d_26">
    <path clip-path="url(#p5ba9b1fbc9)" d="M 78.555057 153.569606 
L 78.737675 153.532213 
L 78.889857 153.55091 
L 79.072475 153.55091 
L 79.255093 153.55091 
L 79.437711 153.55091 
L 90.33393 153.644392 
L 90.546984 153.663089 
L 99.403966 153.756571 
L 99.61702 153.775268 
L 100.195311 153.868751 
L 100.408366 153.962233 
L 100.530111 153.98093 
L 102.021493 155.009239 
L 102.38673 155.457955 
L 102.538911 155.663617 
L 103.025893 156.430175 
L 103.786802 158.038076 
L 105.826039 164.656646 
L 110.148002 182.754882 
L 111.487202 186.531581 
L 111.76113 187.01769 
L 112.156802 187.709462 
L 113.191639 188.812557 
L 113.861239 188.719074 
L 114.43953 188.251661 
L 116.143966 183.801888 
L 116.661384 181.502216 
L 118.670184 169.79819 
L 120.100693 159.421619 
L 125.244439 116.120466 
L 126.248839 109.520592 
L 127.253239 104.023811 
L 128.348948 98.564428 
L 129.50553 94.077265 
L 129.931639 93.123739 
L 130.296875 92.488057 
L 130.631675 91.927165 
L 130.936039 91.441052 
L 131.75782 90.824064 
L 132.153493 90.169688 
L 132.549166 89.664882 
L 132.883966 89.571402 
L 133.401384 89.496613 
L 133.614439 89.403134 
L 134.19273 89.496613 
L 135.075384 89.926633 
L 135.379748 89.851844 
L 135.562366 89.90794 
L 135.744984 90.076209 
L 136.323275 90.637101 
L 136.627639 90.693188 
L 136.77982 90.749283 
L 136.901566 90.824064 
L 137.632039 91.852375 
L 137.87553 92.263702 
L 138.514693 93.665938 
L 138.727748 94.413796 
L 139.823457 99.256197 
L 140.432184 102.359823 
L 141.071348 105.669105 
L 141.345275 107.071347 
L 143.110584 118.56971 
L 147.310802 152.990014 
L 148.345639 162.637421 
L 151.632766 191.897484 
L 152.819784 201.152267 
L 153.824184 207.733441 
L 154.585093 211.491442 
L 155.315566 214.557675 
L 155.95473 216.18427 
L 156.898257 217.736082 
L 157.080875 217.829564 
L 157.324366 217.96044 
L 157.567857 218.05392 
L 157.811348 218.110015 
L 158.389639 217.642602 
L 158.785311 216.950828 
L 160.21582 214.090256 
L 161.615893 209.434824 
L 163.259457 201.881428 
L 163.959493 197.955158 
L 165.116075 190.233493 
L 165.99873 184.157122 
L 166.759639 178.959487 
L 168.67713 167.853752 
L 169.407602 164.768825 
L 169.803275 163.534854 
L 170.381566 161.814774 
L 170.746802 161.048217 
L 171.02073 160.749072 
L 172.086002 160.16948 
L 173.486075 162.057829 
L 174.61222 165.105362 
L 175.28182 167.517215 
L 176.225348 172.11656 
L 176.651457 174.397536 
L 180.182075 197.525138 
L 181.186475 202.46102 
L 183.256148 212.089731 
L 184.138802 213.996777 
L 184.869275 214.744638 
L 185.204075 214.651158 
L 185.508439 214.352014 
L 186.512839 211.641011 
L 187.42593 207.247331 
L 188.460766 200.217437 
L 189.069493 195.41243 
L 190.500002 181.221769 
L 191.869639 163.946178 
L 193.391457 144.875722 
L 196.222039 109.763647 
L 198.38302 87.084761 
L 201.426657 60.012198 
L 203.131093 51.187432 
L 203.374584 50.327395 
L 204.348548 47.148983 
L 204.774657 46.550694 
L 204.896402 46.475908 
L 205.139893 46.345032 
L 205.626875 46.756356 
L 206.205166 48.457746 
L 208.153093 56.048535 
L 208.822693 59.39521 
L 210.314075 68.257357 
L 212.10982 81.139266 
L 213.053348 88.300039 
L 215.853493 109.782343 
L 216.675275 116.643968 
L 217.46662 122.907304 
L 219.688475 139.771571 
L 220.57113 145.474011 
L 223.766948 164.432287 
L 226.414911 178.473378 
L 229.397675 190.813085 
L 229.732475 191.91618 
L 230.249893 193.430599 
L 230.493384 194.084977 
L 231.315166 196.253774 
L 232.258693 198.833894 
L 232.836984 200.572671 
L 233.567457 202.647986 
L 234.571857 205.957274 
L 234.96753 207.191241 
L 235.424075 208.724357 
L 235.606693 209.266556 
L 236.30673 211.061425 
L 237.128511 212.800199 
L 238.163348 214.501583 
L 238.376402 214.744638 
L 238.802511 215.099869 
L 239.076439 215.193357 
L 239.31993 215.249444 
L 239.532984 215.230744 
L 241.450475 215.324233 
L 241.66353 215.342927 
L 243.307093 215.436406 
L 243.733202 215.791643 
L 243.946257 216.016001 
L 244.220184 216.371232 
L 244.25062 216.352539 
L 244.798475 217.175189 
L 245.34633 218.259585 
L 245.68113 218.839177 
L 246.25942 219.979665 
L 247.507311 222.503696 
L 248.572584 224.840762 
L 250.398766 227.981781 
L 250.794439 228.636156 
L 251.646657 229.982306 
L 251.981457 230.30015 
L 252.28582 230.524505 
L 253.077166 230.431023 
L 254.62942 228.374405 
L 255.512075 225.92516 
L 256.272984 222.709358 
L 256.851275 219.774003 
L 258.31222 210.126593 
L 259.042693 203.938046 
L 260.047093 193.711047 
L 261.66022 173.593585 
L 262.816802 156.467568 
L 264.034257 136.892306 
L 268.264911 68.556508 
L 269.421493 53.057085 
L 270.608511 40.43693 
L 271.521602 33.014416 
L 272.526002 26.956738 
L 273.073857 24.787938 
L 273.80433 22.862199 
L 274.38262 22.32 
L 274.80873 22.693925 
L 275.14353 23.254826 
L 275.234839 23.404398 
L 275.569639 24.18965 
L 277.182766 31.593477 
L 277.913239 36.735018 
L 279.222002 48.065107 
L 282.265639 81.008394 
L 283.665711 97.685691 
L 286.52673 131.507706 
L 287.896366 146.951036 
L 289.570366 165.236238 
L 292.21833 190.214796 
L 294.348875 206.405987 
L 296.875093 219.774003 
L 298.275166 225.326871 
L 299.370875 228.299619 
L 299.675239 229.010087 
L 299.949166 229.514893 
L 301.014439 230.655381 
L 301.349239 230.748861 
L 301.623166 230.692774 
L 302.079711 230.599291 
L 302.323202 230.468419 
L 302.627566 230.169274 
L 302.93193 229.645769 
L 303.540657 227.888298 
L 304.210257 225.046423 
L 306.919093 207.752137 
L 310.936693 178.94079 
L 311.758475 173.780551 
L 313.006366 166.096278 
L 315.715202 150.110749 
L 316.963093 144.501792 
L 319.124075 136.948395 
L 321.711166 130.872024 
L 322.076402 130.255038 
L 322.959057 128.8528 
L 323.172111 128.609744 
L 323.93302 127.525347 
L 324.26782 126.983147 
L 324.389566 126.814878 
L 325.424402 124.702171 
L 326.063566 123.075573 
L 326.489675 122.065961 
L 327.067966 120.626328 
L 327.554948 119.504537 
L 328.315857 117.354436 
L 331.237748 108.735338 
L 333.216111 104.135993 
L 333.459602 103.66858 
L 333.885711 102.883323 
L 334.037893 102.677661 
L 334.768366 101.948499 
L 335.498839 101.611962 
L 336.898911 101.705441 
L 338.177239 102.602881 
L 339.820802 105.856073 
L 341.129566 110.212364 
L 343.35142 120.252398 
L 344.02102 124.06649 
L 345.147166 131.657278 
L 347.490766 149.755515 
L 351.751857 182.904454 
L 354.004148 198.703019 
L 356.256439 211.884069 
L 357.321711 215.978608 
L 357.869566 217.586507 
L 358.995711 220.091847 
L 359.482693 220.521864 
L 359.726184 220.484471 
L 359.817493 220.465778 
L 360.913202 218.951359 
L 361.308875 218.035226 
L 361.643675 217.212576 
L 361.795857 216.857345 
L 362.10022 216.090788 
L 363.013311 212.931075 
L 363.652475 210.201382 
L 365.996075 196.627704 
L 367.974439 181.240463 
L 370.957202 152.728263 
L 373.57473 128.086241 
L 376.405311 106.342183 
L 378.566293 93.703334 
L 379.93593 88.300039 
L 380.970766 85.439467 
L 381.062075 85.271198 
L 381.914293 83.925049 
L 382.27953 83.607205 
L 382.492584 83.438936 
L 382.675202 83.345456 
L 382.918693 83.233274 
L 382.918693 83.233274 
" style="fill:none;stroke:#ff0000;stroke-linecap:square;stroke-width:1.5;"/>
   </g>
   <g id="line2d_27">
    <path clip-path="url(#p5ba9b1fbc9)" d="M 124.787893 162.209794 
" style="fill:none;stroke:#ffffff;stroke-linecap:square;stroke-width:1.5;"/>
    <defs>
     <path d="M 0 -5 
L -1.12257 -1.545085 
L -4.755283 -1.545085 
L -1.816356 0.59017 
L -2.938926 4.045085 
L -0 1.90983 
L 2.938926 4.045085 
L 1.816356 0.59017 
L 4.755283 -1.545085 
L 1.12257 -1.545085 
z
" id="m226269a68b" style="stroke:#ffffff;stroke-linejoin:bevel;"/>
    </defs>
    <g clip-path="url(#p5ba9b1fbc9)">
     <use style="fill:#0000ff;stroke:#ffffff;stroke-linejoin:bevel;" x="124.787893" xlink:href="#m226269a68b" y="162.209794"/>
    </g>
   </g>
   <g id="line2d_28">
    <path clip-path="url(#p5ba9b1fbc9)" d="M 104.578148 160.22557 
" style="fill:none;stroke:#ffffff;stroke-linecap:square;stroke-width:1.5;"/>
    <defs>
     <path d="M 0 -5 
L -1.12257 -1.545085 
L -4.755283 -1.545085 
L -1.816356 0.59017 
L -2.938926 4.045085 
L -0 1.90983 
L 2.938926 4.045085 
L 1.816356 0.59017 
L 4.755283 -1.545085 
L 1.12257 -1.545085 
z
" id="ma8be6c34a2" style="stroke:#ffffff;stroke-linejoin:bevel;"/>
    </defs>
    <g clip-path="url(#p5ba9b1fbc9)">
     <use style="fill:#ff0000;stroke:#ffffff;stroke-linejoin:bevel;" x="104.578148" xlink:href="#ma8be6c34a2" y="160.22557"/>
    </g>
   </g>
   <g id="patch_3">
    <path d="M 63.336875 339.84 
L 63.336875 7.2 
" style="fill:none;stroke:#000000;stroke-linecap:square;stroke-linejoin:miter;stroke-width:0.8;"/>
   </g>
   <g id="patch_4">
    <path d="M 398.136875 339.84 
L 398.136875 7.2 
" style="fill:none;stroke:#000000;stroke-linecap:square;stroke-linejoin:miter;stroke-width:0.8;"/>
   </g>
   <g id="patch_5">
    <path d="M 63.336875 339.84 
L 398.136875 339.84 
" style="fill:none;stroke:#000000;stroke-linecap:square;stroke-linejoin:miter;stroke-width:0.8;"/>
   </g>
   <g id="patch_6">
    <path d="M 63.336875 7.2 
L 398.136875 7.2 
" style="fill:none;stroke:#000000;stroke-linecap:square;stroke-linejoin:miter;stroke-width:0.8;"/>
   </g>
   <g id="text_15">
    <g id="patch_7">
     <path d="M 75.036875 331.242688 
L 166.79375 331.242688 
L 166.79375 293.760312 
L 75.036875 293.760312 
z
" style="fill:#ffffff;stroke:#000000;stroke-linejoin:miter;stroke-width:0.75;"/>
    </g>
    <!-- Auto_00110 -->
    <g transform="translate(80.076875 308.521562)scale(0.14 -0.14)">
     <defs>
      <path d="M 2928 1419 
L 1288 1419 
L 1000 750 
Q 894 503 894 381 
Q 894 284 986 211 
Q 1078 138 1384 116 
L 1384 0 
L 50 0 
L 50 116 
Q 316 163 394 238 
Q 553 388 747 847 
L 2238 4334 
L 2347 4334 
L 3822 809 
Q 4000 384 4145 257 
Q 4291 131 4550 116 
L 4550 0 
L 2878 0 
L 2878 116 
Q 3131 128 3220 200 
Q 3309 272 3309 375 
Q 3309 513 3184 809 
L 2928 1419 
z
M 2841 1650 
L 2122 3363 
L 1384 1650 
L 2841 1650 
z
" id="TimesNewRomanPSMT-41" transform="scale(0.015625)"/>
      <path d="M 2709 2863 
L 2709 1128 
Q 2709 631 2732 520 
Q 2756 409 2807 365 
Q 2859 322 2928 322 
Q 3025 322 3147 375 
L 3191 266 
L 2334 -88 
L 2194 -88 
L 2194 519 
Q 1825 119 1631 15 
Q 1438 -88 1222 -88 
Q 981 -88 804 51 
Q 628 191 559 409 
Q 491 628 491 1028 
L 491 2306 
Q 491 2509 447 2587 
Q 403 2666 317 2708 
Q 231 2750 6 2747 
L 6 2863 
L 1009 2863 
L 1009 947 
Q 1009 547 1148 422 
Q 1288 297 1484 297 
Q 1619 297 1789 381 
Q 1959 466 2194 703 
L 2194 2325 
Q 2194 2569 2105 2655 
Q 2016 2741 1734 2747 
L 1734 2863 
L 2709 2863 
z
" id="TimesNewRomanPSMT-75" transform="scale(0.015625)"/>
      <path d="M 3256 -1381 
L -53 -1381 
L -53 -1119 
L 3256 -1119 
L 3256 -1381 
z
" id="TimesNewRomanPSMT-5f" transform="scale(0.015625)"/>
     </defs>
     <use xlink:href="#TimesNewRomanPSMT-41"/>
     <use x="72.216797" xlink:href="#TimesNewRomanPSMT-75"/>
     <use x="122.216797" xlink:href="#TimesNewRomanPSMT-74"/>
     <use x="150" xlink:href="#TimesNewRomanPSMT-6f"/>
     <use x="200" xlink:href="#TimesNewRomanPSMT-5f"/>
     <use x="250" xlink:href="#TimesNewRomanPSMT-30"/>
     <use x="300" xlink:href="#TimesNewRomanPSMT-30"/>
     <use x="350" xlink:href="#TimesNewRomanPSMT-31"/>
     <use x="396.25" xlink:href="#TimesNewRomanPSMT-31"/>
     <use x="446.25" xlink:href="#TimesNewRomanPSMT-30"/>
    </g>
    <!-- Vs: 301.04m/s -->
    <g transform="translate(80.076875 323.208)scale(0.14 -0.14)">
     <defs>
      <path d="M 903 2950 
Q 1047 2950 1148 2848 
Q 1250 2747 1250 2603 
Q 1250 2459 1148 2357 
Q 1047 2256 903 2256 
Q 759 2256 657 2357 
Q 556 2459 556 2603 
Q 556 2747 657 2848 
Q 759 2950 903 2950 
z
M 897 609 
Q 1044 609 1145 506 
Q 1247 403 1247 259 
Q 1247 116 1144 14 
Q 1041 -88 897 -88 
Q 753 -88 651 14 
Q 550 116 550 259 
Q 550 403 651 506 
Q 753 609 897 609 
z
" id="TimesNewRomanPSMT-3a" transform="scale(0.015625)"/>
      <path d="M 1794 4444 
L 259 -88 
L 9 -88 
L 1544 4444 
L 1794 4444 
z
" id="TimesNewRomanPSMT-2f" transform="scale(0.015625)"/>
     </defs>
     <use xlink:href="#TimesNewRomanPSMT-56"/>
     <use x="72.216797" xlink:href="#TimesNewRomanPSMT-73"/>
     <use x="111.132812" xlink:href="#TimesNewRomanPSMT-3a"/>
     <use x="138.916016" xlink:href="#TimesNewRomanPSMT-20"/>
     <use x="163.916016" xlink:href="#TimesNewRomanPSMT-33"/>
     <use x="213.916016" xlink:href="#TimesNewRomanPSMT-30"/>
     <use x="263.916016" xlink:href="#TimesNewRomanPSMT-31"/>
     <use x="313.916016" xlink:href="#TimesNewRomanPSMT-2e"/>
     <use x="338.916016" xlink:href="#TimesNewRomanPSMT-30"/>
     <use x="388.916016" xlink:href="#TimesNewRomanPSMT-34"/>
     <use x="438.916016" xlink:href="#TimesNewRomanPSMT-6d"/>
     <use x="516.699219" xlink:href="#TimesNewRomanPSMT-2f"/>
     <use x="544.482422" xlink:href="#TimesNewRomanPSMT-73"/>
    </g>
   </g>
  </g>
 </g>
 <defs>
  <clipPath id="p5ba9b1fbc9">
   <rect height="332.64" width="334.8" x="63.336875" y="7.2"/>
  </clipPath>
 </defs>
</svg>
