<?xml version="1.0" encoding="utf-8" standalone="no"?>
<!DOCTYPE svg PUBLIC "-//W3C//DTD SVG 1.1//EN"
  "http://www.w3.org/Graphics/SVG/1.1/DTD/svg11.dtd">
<svg height="383.471875pt" version="1.1" viewBox="0 0 421.086875 383.471875" width="421.086875pt" xmlns="http://www.w3.org/2000/svg" xmlns:xlink="http://www.w3.org/1999/xlink">
 <metadata>
  <rdf:RDF xmlns:cc="http://creativecommons.org/ns#" xmlns:dc="http://purl.org/dc/elements/1.1/" xmlns:rdf="http://www.w3.org/1999/02/22-rdf-syntax-ns#">
   <cc:Work>
    <dc:type rdf:resource="http://purl.org/dc/dcmitype/StillImage"/>
    <dc:date>2021-06-11T14:39:38.134253</dc:date>
    <dc:format>image/svg+xml</dc:format>
    <dc:creator>
     <cc:Agent>
      <dc:title>Matplotlib v3.4.2, https://matplotlib.org/</dc:title>
     </cc:Agent>
    </dc:creator>
   </cc:Work>
  </rdf:RDF>
 </metadata>
 <defs>
  <style type="text/css">*{stroke-linecap:butt;stroke-linejoin:round;}</style>
 </defs>
 <g id="figure_1">
  <g id="patch_1">
   <path d="M 0 383.471875 
L 421.086875 383.471875 
L 421.086875 0 
L 0 0 
z
" style="fill:#ffffff;"/>
  </g>
  <g id="axes_1">
   <g id="patch_2">
    <path d="M 63.336875 339.84 
L 398.136875 339.84 
L 398.136875 7.2 
L 63.336875 7.2 
z
" style="fill:#ffffff;"/>
   </g>
   <g id="matplotlib.axis_1">
    <g id="xtick_1">
     <g id="line2d_1">
      <path clip-path="url(#p3947872cdd)" d="M 93.773239 339.84 
L 93.773239 7.2 
" style="fill:none;stroke:#000000;stroke-dasharray:0.5,0.825;stroke-dashoffset:0;stroke-width:0.5;"/>
     </g>
     <g id="line2d_2">
      <defs>
       <path d="M 0 0 
L 0 3.5 
" id="m60d51e8d58" style="stroke:#000000;stroke-width:0.8;"/>
      </defs>
      <g>
       <use style="stroke:#000000;stroke-width:0.8;" x="93.773239" xlink:href="#m60d51e8d58" y="339.84"/>
      </g>
     </g>
     <g id="text_1">
      <!-- 0.000 -->
      <g transform="translate(78.023239 356.56125)scale(0.14 -0.14)">
       <defs>
        <path d="M 231 2094 
Q 231 2819 450 3342 
Q 669 3866 1031 4122 
Q 1313 4325 1613 4325 
Q 2100 4325 2488 3828 
Q 2972 3213 2972 2159 
Q 2972 1422 2759 906 
Q 2547 391 2217 158 
Q 1888 -75 1581 -75 
Q 975 -75 572 641 
Q 231 1244 231 2094 
z
M 844 2016 
Q 844 1141 1059 588 
Q 1238 122 1591 122 
Q 1759 122 1940 273 
Q 2122 425 2216 781 
Q 2359 1319 2359 2297 
Q 2359 3022 2209 3506 
Q 2097 3866 1919 4016 
Q 1791 4119 1609 4119 
Q 1397 4119 1231 3928 
Q 1006 3669 925 3112 
Q 844 2556 844 2016 
z
" id="TimesNewRomanPSMT-30" transform="scale(0.015625)"/>
        <path d="M 800 606 
Q 947 606 1047 504 
Q 1147 403 1147 259 
Q 1147 116 1045 14 
Q 944 -88 800 -88 
Q 656 -88 554 14 
Q 453 116 453 259 
Q 453 406 554 506 
Q 656 606 800 606 
z
" id="TimesNewRomanPSMT-2e" transform="scale(0.015625)"/>
       </defs>
       <use xlink:href="#TimesNewRomanPSMT-30"/>
       <use x="50" xlink:href="#TimesNewRomanPSMT-2e"/>
       <use x="75" xlink:href="#TimesNewRomanPSMT-30"/>
       <use x="125" xlink:href="#TimesNewRomanPSMT-30"/>
       <use x="175" xlink:href="#TimesNewRomanPSMT-30"/>
      </g>
     </g>
    </g>
    <g id="xtick_2">
     <g id="line2d_3">
      <path clip-path="url(#p3947872cdd)" d="M 154.645966 339.84 
L 154.645966 7.2 
" style="fill:none;stroke:#000000;stroke-dasharray:0.5,0.825;stroke-dashoffset:0;stroke-width:0.5;"/>
     </g>
     <g id="line2d_4">
      <g>
       <use style="stroke:#000000;stroke-width:0.8;" x="154.645966" xlink:href="#m60d51e8d58" y="339.84"/>
      </g>
     </g>
     <g id="text_2">
      <!-- 0.001 -->
      <g transform="translate(138.895966 356.56125)scale(0.14 -0.14)">
       <defs>
        <path d="M 750 3822 
L 1781 4325 
L 1884 4325 
L 1884 747 
Q 1884 391 1914 303 
Q 1944 216 2037 169 
Q 2131 122 2419 116 
L 2419 0 
L 825 0 
L 825 116 
Q 1125 122 1212 167 
Q 1300 213 1334 289 
Q 1369 366 1369 747 
L 1369 3034 
Q 1369 3497 1338 3628 
Q 1316 3728 1258 3775 
Q 1200 3822 1119 3822 
Q 1003 3822 797 3725 
L 750 3822 
z
" id="TimesNewRomanPSMT-31" transform="scale(0.015625)"/>
       </defs>
       <use xlink:href="#TimesNewRomanPSMT-30"/>
       <use x="50" xlink:href="#TimesNewRomanPSMT-2e"/>
       <use x="75" xlink:href="#TimesNewRomanPSMT-30"/>
       <use x="125" xlink:href="#TimesNewRomanPSMT-30"/>
       <use x="175" xlink:href="#TimesNewRomanPSMT-31"/>
      </g>
     </g>
    </g>
    <g id="xtick_3">
     <g id="line2d_5">
      <path clip-path="url(#p3947872cdd)" d="M 215.518693 339.84 
L 215.518693 7.2 
" style="fill:none;stroke:#000000;stroke-dasharray:0.5,0.825;stroke-dashoffset:0;stroke-width:0.5;"/>
     </g>
     <g id="line2d_6">
      <g>
       <use style="stroke:#000000;stroke-width:0.8;" x="215.518693" xlink:href="#m60d51e8d58" y="339.84"/>
      </g>
     </g>
     <g id="text_3">
      <!-- 0.002 -->
      <g transform="translate(199.768693 356.56125)scale(0.14 -0.14)">
       <defs>
        <path d="M 2934 816 
L 2638 0 
L 138 0 
L 138 116 
Q 1241 1122 1691 1759 
Q 2141 2397 2141 2925 
Q 2141 3328 1894 3587 
Q 1647 3847 1303 3847 
Q 991 3847 742 3664 
Q 494 3481 375 3128 
L 259 3128 
Q 338 3706 661 4015 
Q 984 4325 1469 4325 
Q 1984 4325 2329 3994 
Q 2675 3663 2675 3213 
Q 2675 2891 2525 2569 
Q 2294 2063 1775 1497 
Q 997 647 803 472 
L 1909 472 
Q 2247 472 2383 497 
Q 2519 522 2628 598 
Q 2738 675 2819 816 
L 2934 816 
z
" id="TimesNewRomanPSMT-32" transform="scale(0.015625)"/>
       </defs>
       <use xlink:href="#TimesNewRomanPSMT-30"/>
       <use x="50" xlink:href="#TimesNewRomanPSMT-2e"/>
       <use x="75" xlink:href="#TimesNewRomanPSMT-30"/>
       <use x="125" xlink:href="#TimesNewRomanPSMT-30"/>
       <use x="175" xlink:href="#TimesNewRomanPSMT-32"/>
      </g>
     </g>
    </g>
    <g id="xtick_4">
     <g id="line2d_7">
      <path clip-path="url(#p3947872cdd)" d="M 276.39142 339.84 
L 276.39142 7.2 
" style="fill:none;stroke:#000000;stroke-dasharray:0.5,0.825;stroke-dashoffset:0;stroke-width:0.5;"/>
     </g>
     <g id="line2d_8">
      <g>
       <use style="stroke:#000000;stroke-width:0.8;" x="276.39142" xlink:href="#m60d51e8d58" y="339.84"/>
      </g>
     </g>
     <g id="text_4">
      <!-- 0.003 -->
      <g transform="translate(260.64142 356.56125)scale(0.14 -0.14)">
       <defs>
        <path d="M 325 3431 
Q 506 3859 782 4092 
Q 1059 4325 1472 4325 
Q 1981 4325 2253 3994 
Q 2459 3747 2459 3466 
Q 2459 3003 1878 2509 
Q 2269 2356 2469 2072 
Q 2669 1788 2669 1403 
Q 2669 853 2319 450 
Q 1863 -75 997 -75 
Q 569 -75 414 31 
Q 259 138 259 259 
Q 259 350 332 419 
Q 406 488 509 488 
Q 588 488 669 463 
Q 722 447 909 348 
Q 1097 250 1169 231 
Q 1284 197 1416 197 
Q 1734 197 1970 444 
Q 2206 691 2206 1028 
Q 2206 1275 2097 1509 
Q 2016 1684 1919 1775 
Q 1784 1900 1550 2001 
Q 1316 2103 1072 2103 
L 972 2103 
L 972 2197 
Q 1219 2228 1467 2375 
Q 1716 2522 1828 2728 
Q 1941 2934 1941 3181 
Q 1941 3503 1739 3701 
Q 1538 3900 1238 3900 
Q 753 3900 428 3381 
L 325 3431 
z
" id="TimesNewRomanPSMT-33" transform="scale(0.015625)"/>
       </defs>
       <use xlink:href="#TimesNewRomanPSMT-30"/>
       <use x="50" xlink:href="#TimesNewRomanPSMT-2e"/>
       <use x="75" xlink:href="#TimesNewRomanPSMT-30"/>
       <use x="125" xlink:href="#TimesNewRomanPSMT-30"/>
       <use x="175" xlink:href="#TimesNewRomanPSMT-33"/>
      </g>
     </g>
    </g>
    <g id="xtick_5">
     <g id="line2d_9">
      <path clip-path="url(#p3947872cdd)" d="M 337.264148 339.84 
L 337.264148 7.2 
" style="fill:none;stroke:#000000;stroke-dasharray:0.5,0.825;stroke-dashoffset:0;stroke-width:0.5;"/>
     </g>
     <g id="line2d_10">
      <g>
       <use style="stroke:#000000;stroke-width:0.8;" x="337.264148" xlink:href="#m60d51e8d58" y="339.84"/>
      </g>
     </g>
     <g id="text_5">
      <!-- 0.004 -->
      <g transform="translate(321.514148 356.56125)scale(0.14 -0.14)">
       <defs>
        <path d="M 2978 1563 
L 2978 1119 
L 2409 1119 
L 2409 0 
L 1894 0 
L 1894 1119 
L 100 1119 
L 100 1519 
L 2066 4325 
L 2409 4325 
L 2409 1563 
L 2978 1563 
z
M 1894 1563 
L 1894 3666 
L 406 1563 
L 1894 1563 
z
" id="TimesNewRomanPSMT-34" transform="scale(0.015625)"/>
       </defs>
       <use xlink:href="#TimesNewRomanPSMT-30"/>
       <use x="50" xlink:href="#TimesNewRomanPSMT-2e"/>
       <use x="75" xlink:href="#TimesNewRomanPSMT-30"/>
       <use x="125" xlink:href="#TimesNewRomanPSMT-30"/>
       <use x="175" xlink:href="#TimesNewRomanPSMT-34"/>
      </g>
     </g>
    </g>
    <g id="xtick_6">
     <g id="line2d_11">
      <path clip-path="url(#p3947872cdd)" d="M 398.136875 339.84 
L 398.136875 7.2 
" style="fill:none;stroke:#000000;stroke-dasharray:0.5,0.825;stroke-dashoffset:0;stroke-width:0.5;"/>
     </g>
     <g id="line2d_12">
      <g>
       <use style="stroke:#000000;stroke-width:0.8;" x="398.136875" xlink:href="#m60d51e8d58" y="339.84"/>
      </g>
     </g>
     <g id="text_6">
      <!-- 0.005 -->
      <g transform="translate(382.386875 356.56125)scale(0.14 -0.14)">
       <defs>
        <path d="M 2778 4238 
L 2534 3706 
L 1259 3706 
L 981 3138 
Q 1809 3016 2294 2522 
Q 2709 2097 2709 1522 
Q 2709 1188 2573 903 
Q 2438 619 2231 419 
Q 2025 219 1772 97 
Q 1413 -75 1034 -75 
Q 653 -75 479 54 
Q 306 184 306 341 
Q 306 428 378 495 
Q 450 563 559 563 
Q 641 563 702 538 
Q 763 513 909 409 
Q 1144 247 1384 247 
Q 1750 247 2026 523 
Q 2303 800 2303 1197 
Q 2303 1581 2056 1914 
Q 1809 2247 1375 2428 
Q 1034 2569 447 2591 
L 1259 4238 
L 2778 4238 
z
" id="TimesNewRomanPSMT-35" transform="scale(0.015625)"/>
       </defs>
       <use xlink:href="#TimesNewRomanPSMT-30"/>
       <use x="50" xlink:href="#TimesNewRomanPSMT-2e"/>
       <use x="75" xlink:href="#TimesNewRomanPSMT-30"/>
       <use x="125" xlink:href="#TimesNewRomanPSMT-30"/>
       <use x="175" xlink:href="#TimesNewRomanPSMT-35"/>
      </g>
     </g>
    </g>
    <g id="text_7">
     <!-- Time (sec) -->
     <g transform="translate(200.858906 373.277188)scale(0.14 -0.14)">
      <defs>
       <path d="M 3703 4238 
L 3750 3244 
L 3631 3244 
Q 3597 3506 3538 3619 
Q 3441 3800 3280 3886 
Q 3119 3972 2856 3972 
L 2259 3972 
L 2259 734 
Q 2259 344 2344 247 
Q 2463 116 2709 116 
L 2856 116 
L 2856 0 
L 1059 0 
L 1059 116 
L 1209 116 
Q 1478 116 1591 278 
Q 1659 378 1659 734 
L 1659 3972 
L 1150 3972 
Q 853 3972 728 3928 
Q 566 3869 450 3700 
Q 334 3531 313 3244 
L 194 3244 
L 244 4238 
L 3703 4238 
z
" id="TimesNewRomanPSMT-54" transform="scale(0.015625)"/>
       <path d="M 928 4444 
Q 1059 4444 1151 4351 
Q 1244 4259 1244 4128 
Q 1244 3997 1151 3903 
Q 1059 3809 928 3809 
Q 797 3809 703 3903 
Q 609 3997 609 4128 
Q 609 4259 701 4351 
Q 794 4444 928 4444 
z
M 1188 2947 
L 1188 647 
Q 1188 378 1227 289 
Q 1266 200 1342 156 
Q 1419 113 1622 113 
L 1622 0 
L 231 0 
L 231 113 
Q 441 113 512 153 
Q 584 194 626 287 
Q 669 381 669 647 
L 669 1750 
Q 669 2216 641 2353 
Q 619 2453 572 2492 
Q 525 2531 444 2531 
Q 356 2531 231 2484 
L 188 2597 
L 1050 2947 
L 1188 2947 
z
" id="TimesNewRomanPSMT-69" transform="scale(0.015625)"/>
       <path d="M 1050 2338 
Q 1363 2650 1419 2697 
Q 1559 2816 1721 2881 
Q 1884 2947 2044 2947 
Q 2313 2947 2506 2790 
Q 2700 2634 2766 2338 
Q 3088 2713 3309 2830 
Q 3531 2947 3766 2947 
Q 3994 2947 4170 2830 
Q 4347 2713 4450 2447 
Q 4519 2266 4519 1878 
L 4519 647 
Q 4519 378 4559 278 
Q 4591 209 4675 161 
Q 4759 113 4950 113 
L 4950 0 
L 3538 0 
L 3538 113 
L 3597 113 
Q 3781 113 3884 184 
Q 3956 234 3988 344 
Q 4000 397 4000 647 
L 4000 1878 
Q 4000 2228 3916 2372 
Q 3794 2572 3525 2572 
Q 3359 2572 3192 2489 
Q 3025 2406 2788 2181 
L 2781 2147 
L 2788 2013 
L 2788 647 
Q 2788 353 2820 281 
Q 2853 209 2943 161 
Q 3034 113 3253 113 
L 3253 0 
L 1806 0 
L 1806 113 
Q 2044 113 2133 169 
Q 2222 225 2256 338 
Q 2272 391 2272 647 
L 2272 1878 
Q 2272 2228 2169 2381 
Q 2031 2581 1784 2581 
Q 1616 2581 1450 2491 
Q 1191 2353 1050 2181 
L 1050 647 
Q 1050 366 1089 281 
Q 1128 197 1204 155 
Q 1281 113 1516 113 
L 1516 0 
L 100 0 
L 100 113 
Q 297 113 375 155 
Q 453 197 493 289 
Q 534 381 534 647 
L 534 1741 
Q 534 2213 506 2350 
Q 484 2453 437 2492 
Q 391 2531 309 2531 
Q 222 2531 100 2484 
L 53 2597 
L 916 2947 
L 1050 2947 
L 1050 2338 
z
" id="TimesNewRomanPSMT-6d" transform="scale(0.015625)"/>
       <path d="M 681 1784 
Q 678 1147 991 784 
Q 1303 422 1725 422 
Q 2006 422 2214 576 
Q 2422 731 2563 1106 
L 2659 1044 
Q 2594 616 2278 264 
Q 1963 -88 1488 -88 
Q 972 -88 605 314 
Q 238 716 238 1394 
Q 238 2128 614 2539 
Q 991 2950 1559 2950 
Q 2041 2950 2350 2633 
Q 2659 2316 2659 1784 
L 681 1784 
z
M 681 1966 
L 2006 1966 
Q 1991 2241 1941 2353 
Q 1863 2528 1708 2628 
Q 1553 2728 1384 2728 
Q 1125 2728 920 2526 
Q 716 2325 681 1966 
z
" id="TimesNewRomanPSMT-65" transform="scale(0.015625)"/>
       <path id="TimesNewRomanPSMT-20" transform="scale(0.015625)"/>
       <path d="M 1988 -1253 
L 1988 -1369 
Q 1516 -1131 1200 -813 
Q 750 -359 506 256 
Q 263 872 263 1534 
Q 263 2503 741 3301 
Q 1219 4100 1988 4444 
L 1988 4313 
Q 1603 4100 1356 3731 
Q 1109 3363 987 2797 
Q 866 2231 866 1616 
Q 866 947 969 400 
Q 1050 -31 1165 -292 
Q 1281 -553 1476 -793 
Q 1672 -1034 1988 -1253 
z
" id="TimesNewRomanPSMT-28" transform="scale(0.015625)"/>
       <path d="M 2050 2947 
L 2050 1972 
L 1947 1972 
Q 1828 2431 1642 2597 
Q 1456 2763 1169 2763 
Q 950 2763 815 2647 
Q 681 2531 681 2391 
Q 681 2216 781 2091 
Q 878 1963 1175 1819 
L 1631 1597 
Q 2266 1288 2266 781 
Q 2266 391 1970 151 
Q 1675 -88 1309 -88 
Q 1047 -88 709 6 
Q 606 38 541 38 
Q 469 38 428 -44 
L 325 -44 
L 325 978 
L 428 978 
Q 516 541 762 319 
Q 1009 97 1316 97 
Q 1531 97 1667 223 
Q 1803 350 1803 528 
Q 1803 744 1651 891 
Q 1500 1038 1047 1263 
Q 594 1488 453 1669 
Q 313 1847 313 2119 
Q 313 2472 555 2709 
Q 797 2947 1181 2947 
Q 1350 2947 1591 2875 
Q 1750 2828 1803 2828 
Q 1853 2828 1881 2850 
Q 1909 2872 1947 2947 
L 2050 2947 
z
" id="TimesNewRomanPSMT-73" transform="scale(0.015625)"/>
       <path d="M 2631 1088 
Q 2516 522 2178 217 
Q 1841 -88 1431 -88 
Q 944 -88 581 321 
Q 219 731 219 1428 
Q 219 2103 620 2525 
Q 1022 2947 1584 2947 
Q 2006 2947 2278 2723 
Q 2550 2500 2550 2259 
Q 2550 2141 2473 2067 
Q 2397 1994 2259 1994 
Q 2075 1994 1981 2113 
Q 1928 2178 1911 2362 
Q 1894 2547 1784 2644 
Q 1675 2738 1481 2738 
Q 1169 2738 978 2506 
Q 725 2200 725 1697 
Q 725 1184 976 792 
Q 1228 400 1656 400 
Q 1963 400 2206 609 
Q 2378 753 2541 1131 
L 2631 1088 
z
" id="TimesNewRomanPSMT-63" transform="scale(0.015625)"/>
       <path d="M 144 4313 
L 144 4444 
Q 619 4209 934 3891 
Q 1381 3434 1625 2820 
Q 1869 2206 1869 1541 
Q 1869 572 1392 -226 
Q 916 -1025 144 -1369 
L 144 -1253 
Q 528 -1038 776 -670 
Q 1025 -303 1145 264 
Q 1266 831 1266 1447 
Q 1266 2113 1163 2663 
Q 1084 3094 967 3353 
Q 850 3613 656 3853 
Q 463 4094 144 4313 
z
" id="TimesNewRomanPSMT-29" transform="scale(0.015625)"/>
      </defs>
      <use xlink:href="#TimesNewRomanPSMT-54"/>
      <use x="57.583984" xlink:href="#TimesNewRomanPSMT-69"/>
      <use x="85.367188" xlink:href="#TimesNewRomanPSMT-6d"/>
      <use x="163.150391" xlink:href="#TimesNewRomanPSMT-65"/>
      <use x="207.535156" xlink:href="#TimesNewRomanPSMT-20"/>
      <use x="232.535156" xlink:href="#TimesNewRomanPSMT-28"/>
      <use x="265.835938" xlink:href="#TimesNewRomanPSMT-73"/>
      <use x="304.751953" xlink:href="#TimesNewRomanPSMT-65"/>
      <use x="349.136719" xlink:href="#TimesNewRomanPSMT-63"/>
      <use x="393.521484" xlink:href="#TimesNewRomanPSMT-29"/>
     </g>
    </g>
   </g>
   <g id="matplotlib.axis_2">
    <g id="ytick_1">
     <g id="line2d_13">
      <path clip-path="url(#p3947872cdd)" d="M 63.336875 325.106335 
L 398.136875 325.106335 
" style="fill:none;stroke:#000000;stroke-dasharray:0.5,0.825;stroke-dashoffset:0;stroke-width:0.5;"/>
     </g>
     <g id="line2d_14">
      <defs>
       <path d="M 0 0 
L -3.5 0 
" id="md5c6912388" style="stroke:#000000;stroke-width:0.8;"/>
      </defs>
      <g>
       <use style="stroke:#000000;stroke-width:0.8;" x="63.336875" xlink:href="#md5c6912388" y="325.106335"/>
      </g>
     </g>
     <g id="text_8">
      <!-- −0.06 -->
      <g transform="translate(23.942188 329.96696)scale(0.14 -0.14)">
       <defs>
        <path d="M 3484 2000 
L 116 2000 
L 116 2256 
L 3484 2256 
L 3484 2000 
z
" id="TimesNewRomanPSMT-2212" transform="scale(0.015625)"/>
        <path d="M 2869 4325 
L 2869 4209 
Q 2456 4169 2195 4045 
Q 1934 3922 1679 3669 
Q 1425 3416 1258 3105 
Q 1091 2794 978 2366 
Q 1428 2675 1881 2675 
Q 2316 2675 2634 2325 
Q 2953 1975 2953 1425 
Q 2953 894 2631 456 
Q 2244 -75 1606 -75 
Q 1172 -75 869 213 
Q 275 772 275 1663 
Q 275 2231 503 2743 
Q 731 3256 1154 3653 
Q 1578 4050 1965 4187 
Q 2353 4325 2688 4325 
L 2869 4325 
z
M 925 2138 
Q 869 1716 869 1456 
Q 869 1156 980 804 
Q 1091 453 1309 247 
Q 1469 100 1697 100 
Q 1969 100 2183 356 
Q 2397 613 2397 1088 
Q 2397 1622 2184 2012 
Q 1972 2403 1581 2403 
Q 1463 2403 1327 2353 
Q 1191 2303 925 2138 
z
" id="TimesNewRomanPSMT-36" transform="scale(0.015625)"/>
       </defs>
       <use xlink:href="#TimesNewRomanPSMT-2212"/>
       <use x="56.396484" xlink:href="#TimesNewRomanPSMT-30"/>
       <use x="106.396484" xlink:href="#TimesNewRomanPSMT-2e"/>
       <use x="131.396484" xlink:href="#TimesNewRomanPSMT-30"/>
       <use x="181.396484" xlink:href="#TimesNewRomanPSMT-36"/>
      </g>
     </g>
    </g>
    <g id="ytick_2">
     <g id="line2d_15">
      <path clip-path="url(#p3947872cdd)" d="M 63.336875 268.624541 
L 398.136875 268.624541 
" style="fill:none;stroke:#000000;stroke-dasharray:0.5,0.825;stroke-dashoffset:0;stroke-width:0.5;"/>
     </g>
     <g id="line2d_16">
      <g>
       <use style="stroke:#000000;stroke-width:0.8;" x="63.336875" xlink:href="#md5c6912388" y="268.624541"/>
      </g>
     </g>
     <g id="text_9">
      <!-- −0.04 -->
      <g transform="translate(23.942188 273.485166)scale(0.14 -0.14)">
       <use xlink:href="#TimesNewRomanPSMT-2212"/>
       <use x="56.396484" xlink:href="#TimesNewRomanPSMT-30"/>
       <use x="106.396484" xlink:href="#TimesNewRomanPSMT-2e"/>
       <use x="131.396484" xlink:href="#TimesNewRomanPSMT-30"/>
       <use x="181.396484" xlink:href="#TimesNewRomanPSMT-34"/>
      </g>
     </g>
    </g>
    <g id="ytick_3">
     <g id="line2d_17">
      <path clip-path="url(#p3947872cdd)" d="M 63.336875 212.142746 
L 398.136875 212.142746 
" style="fill:none;stroke:#000000;stroke-dasharray:0.5,0.825;stroke-dashoffset:0;stroke-width:0.5;"/>
     </g>
     <g id="line2d_18">
      <g>
       <use style="stroke:#000000;stroke-width:0.8;" x="63.336875" xlink:href="#md5c6912388" y="212.142746"/>
      </g>
     </g>
     <g id="text_10">
      <!-- −0.02 -->
      <g transform="translate(23.942188 217.003371)scale(0.14 -0.14)">
       <use xlink:href="#TimesNewRomanPSMT-2212"/>
       <use x="56.396484" xlink:href="#TimesNewRomanPSMT-30"/>
       <use x="106.396484" xlink:href="#TimesNewRomanPSMT-2e"/>
       <use x="131.396484" xlink:href="#TimesNewRomanPSMT-30"/>
       <use x="181.396484" xlink:href="#TimesNewRomanPSMT-32"/>
      </g>
     </g>
    </g>
    <g id="ytick_4">
     <g id="line2d_19">
      <path clip-path="url(#p3947872cdd)" d="M 63.336875 155.660951 
L 398.136875 155.660951 
" style="fill:none;stroke:#000000;stroke-dasharray:0.5,0.825;stroke-dashoffset:0;stroke-width:0.5;"/>
     </g>
     <g id="line2d_20">
      <g>
       <use style="stroke:#000000;stroke-width:0.8;" x="63.336875" xlink:href="#md5c6912388" y="155.660951"/>
      </g>
     </g>
     <g id="text_11">
      <!-- 0.00 -->
      <g transform="translate(31.836875 160.521576)scale(0.14 -0.14)">
       <use xlink:href="#TimesNewRomanPSMT-30"/>
       <use x="50" xlink:href="#TimesNewRomanPSMT-2e"/>
       <use x="75" xlink:href="#TimesNewRomanPSMT-30"/>
       <use x="125" xlink:href="#TimesNewRomanPSMT-30"/>
      </g>
     </g>
    </g>
    <g id="ytick_5">
     <g id="line2d_21">
      <path clip-path="url(#p3947872cdd)" d="M 63.336875 99.179156 
L 398.136875 99.179156 
" style="fill:none;stroke:#000000;stroke-dasharray:0.5,0.825;stroke-dashoffset:0;stroke-width:0.5;"/>
     </g>
     <g id="line2d_22">
      <g>
       <use style="stroke:#000000;stroke-width:0.8;" x="63.336875" xlink:href="#md5c6912388" y="99.179156"/>
      </g>
     </g>
     <g id="text_12">
      <!-- 0.02 -->
      <g transform="translate(31.836875 104.039781)scale(0.14 -0.14)">
       <use xlink:href="#TimesNewRomanPSMT-30"/>
       <use x="50" xlink:href="#TimesNewRomanPSMT-2e"/>
       <use x="75" xlink:href="#TimesNewRomanPSMT-30"/>
       <use x="125" xlink:href="#TimesNewRomanPSMT-32"/>
      </g>
     </g>
    </g>
    <g id="ytick_6">
     <g id="line2d_23">
      <path clip-path="url(#p3947872cdd)" d="M 63.336875 42.697361 
L 398.136875 42.697361 
" style="fill:none;stroke:#000000;stroke-dasharray:0.5,0.825;stroke-dashoffset:0;stroke-width:0.5;"/>
     </g>
     <g id="line2d_24">
      <g>
       <use style="stroke:#000000;stroke-width:0.8;" x="63.336875" xlink:href="#md5c6912388" y="42.697361"/>
      </g>
     </g>
     <g id="text_13">
      <!-- 0.04 -->
      <g transform="translate(31.836875 47.557986)scale(0.14 -0.14)">
       <use xlink:href="#TimesNewRomanPSMT-30"/>
       <use x="50" xlink:href="#TimesNewRomanPSMT-2e"/>
       <use x="75" xlink:href="#TimesNewRomanPSMT-30"/>
       <use x="125" xlink:href="#TimesNewRomanPSMT-34"/>
      </g>
     </g>
    </g>
    <g id="text_14">
     <!-- Volatage (V) -->
     <g transform="translate(16.92125 209.352344)rotate(-90)scale(0.14 -0.14)">
      <defs>
       <path d="M 4544 4238 
L 4544 4122 
Q 4319 4081 4203 3978 
Q 4038 3825 3909 3509 
L 2431 -97 
L 2316 -97 
L 728 3556 
Q 606 3838 556 3900 
Q 478 3997 364 4051 
Q 250 4106 56 4122 
L 56 4238 
L 1788 4238 
L 1788 4122 
Q 1494 4094 1406 4022 
Q 1319 3950 1319 3838 
Q 1319 3681 1463 3350 
L 2541 866 
L 3541 3319 
Q 3688 3681 3688 3822 
Q 3688 3913 3597 3995 
Q 3506 4078 3291 4113 
Q 3275 4116 3238 4122 
L 3238 4238 
L 4544 4238 
z
" id="TimesNewRomanPSMT-56" transform="scale(0.015625)"/>
       <path d="M 1600 2947 
Q 2250 2947 2644 2453 
Q 2978 2031 2978 1484 
Q 2978 1100 2793 706 
Q 2609 313 2286 112 
Q 1963 -88 1566 -88 
Q 919 -88 538 428 
Q 216 863 216 1403 
Q 216 1797 411 2186 
Q 606 2575 925 2761 
Q 1244 2947 1600 2947 
z
M 1503 2744 
Q 1338 2744 1170 2645 
Q 1003 2547 900 2300 
Q 797 2053 797 1666 
Q 797 1041 1045 587 
Q 1294 134 1700 134 
Q 2003 134 2200 384 
Q 2397 634 2397 1244 
Q 2397 2006 2069 2444 
Q 1847 2744 1503 2744 
z
" id="TimesNewRomanPSMT-6f" transform="scale(0.015625)"/>
       <path d="M 1184 4444 
L 1184 647 
Q 1184 378 1223 290 
Q 1263 203 1344 158 
Q 1425 113 1647 113 
L 1647 0 
L 244 0 
L 244 113 
Q 441 113 512 153 
Q 584 194 625 287 
Q 666 381 666 647 
L 666 3247 
Q 666 3731 644 3842 
Q 622 3953 573 3993 
Q 525 4034 450 4034 
Q 369 4034 244 3984 
L 191 4094 
L 1044 4444 
L 1184 4444 
z
" id="TimesNewRomanPSMT-6c" transform="scale(0.015625)"/>
       <path d="M 1822 413 
Q 1381 72 1269 19 
Q 1100 -59 909 -59 
Q 613 -59 420 144 
Q 228 347 228 678 
Q 228 888 322 1041 
Q 450 1253 767 1440 
Q 1084 1628 1822 1897 
L 1822 2009 
Q 1822 2438 1686 2597 
Q 1550 2756 1291 2756 
Q 1094 2756 978 2650 
Q 859 2544 859 2406 
L 866 2225 
Q 866 2081 792 2003 
Q 719 1925 600 1925 
Q 484 1925 411 2006 
Q 338 2088 338 2228 
Q 338 2497 613 2722 
Q 888 2947 1384 2947 
Q 1766 2947 2009 2819 
Q 2194 2722 2281 2516 
Q 2338 2381 2338 1966 
L 2338 994 
Q 2338 584 2353 492 
Q 2369 400 2405 369 
Q 2441 338 2488 338 
Q 2538 338 2575 359 
Q 2641 400 2828 588 
L 2828 413 
Q 2478 -56 2159 -56 
Q 2006 -56 1915 50 
Q 1825 156 1822 413 
z
M 1822 616 
L 1822 1706 
Q 1350 1519 1213 1441 
Q 966 1303 859 1153 
Q 753 1003 753 825 
Q 753 600 887 451 
Q 1022 303 1197 303 
Q 1434 303 1822 616 
z
" id="TimesNewRomanPSMT-61" transform="scale(0.015625)"/>
       <path d="M 1031 3803 
L 1031 2863 
L 1700 2863 
L 1700 2644 
L 1031 2644 
L 1031 788 
Q 1031 509 1111 412 
Q 1191 316 1316 316 
Q 1419 316 1516 380 
Q 1613 444 1666 569 
L 1788 569 
Q 1678 263 1478 108 
Q 1278 -47 1066 -47 
Q 922 -47 784 33 
Q 647 113 581 261 
Q 516 409 516 719 
L 516 2644 
L 63 2644 
L 63 2747 
Q 234 2816 414 2980 
Q 594 3144 734 3369 
Q 806 3488 934 3803 
L 1031 3803 
z
" id="TimesNewRomanPSMT-74" transform="scale(0.015625)"/>
       <path d="M 966 1044 
Q 703 1172 562 1401 
Q 422 1631 422 1909 
Q 422 2334 742 2640 
Q 1063 2947 1563 2947 
Q 1972 2947 2272 2747 
L 2878 2747 
Q 3013 2747 3034 2739 
Q 3056 2731 3066 2713 
Q 3084 2684 3084 2613 
Q 3084 2531 3069 2500 
Q 3059 2484 3036 2475 
Q 3013 2466 2878 2466 
L 2506 2466 
Q 2681 2241 2681 1891 
Q 2681 1491 2375 1206 
Q 2069 922 1553 922 
Q 1341 922 1119 984 
Q 981 866 932 777 
Q 884 688 884 625 
Q 884 572 936 522 
Q 988 472 1138 450 
Q 1225 438 1575 428 
Q 2219 413 2409 384 
Q 2700 344 2873 169 
Q 3047 -6 3047 -263 
Q 3047 -616 2716 -925 
Q 2228 -1381 1444 -1381 
Q 841 -1381 425 -1109 
Q 191 -953 191 -784 
Q 191 -709 225 -634 
Q 278 -519 444 -313 
Q 466 -284 763 25 
Q 600 122 533 198 
Q 466 275 466 372 
Q 466 481 555 628 
Q 644 775 966 1044 
z
M 1509 2797 
Q 1278 2797 1122 2612 
Q 966 2428 966 2047 
Q 966 1553 1178 1281 
Q 1341 1075 1591 1075 
Q 1828 1075 1981 1253 
Q 2134 1431 2134 1813 
Q 2134 2309 1919 2591 
Q 1759 2797 1509 2797 
z
M 934 0 
Q 788 -159 713 -296 
Q 638 -434 638 -550 
Q 638 -700 819 -813 
Q 1131 -1006 1722 -1006 
Q 2284 -1006 2551 -807 
Q 2819 -609 2819 -384 
Q 2819 -222 2659 -153 
Q 2497 -84 2016 -72 
Q 1313 -53 934 0 
z
" id="TimesNewRomanPSMT-67" transform="scale(0.015625)"/>
      </defs>
      <use xlink:href="#TimesNewRomanPSMT-56"/>
      <use x="59.341797" xlink:href="#TimesNewRomanPSMT-6f"/>
      <use x="109.341797" xlink:href="#TimesNewRomanPSMT-6c"/>
      <use x="137.125" xlink:href="#TimesNewRomanPSMT-61"/>
      <use x="181.509766" xlink:href="#TimesNewRomanPSMT-74"/>
      <use x="209.292969" xlink:href="#TimesNewRomanPSMT-61"/>
      <use x="253.677734" xlink:href="#TimesNewRomanPSMT-67"/>
      <use x="303.677734" xlink:href="#TimesNewRomanPSMT-65"/>
      <use x="348.0625" xlink:href="#TimesNewRomanPSMT-20"/>
      <use x="373.0625" xlink:href="#TimesNewRomanPSMT-28"/>
      <use x="406.363281" xlink:href="#TimesNewRomanPSMT-56"/>
      <use x="478.580078" xlink:href="#TimesNewRomanPSMT-29"/>
     </g>
    </g>
   </g>
   <g id="LineCollection_1">
    <path clip-path="url(#p3947872cdd)" d="M 78.555057 155.660951 
L 382.918693 155.660951 
" style="fill:none;stroke:#1f77b4;stroke-width:1.5;"/>
   </g>
   <g id="line2d_25">
    <path clip-path="url(#p3947872cdd)" d="M 78.555057 155.627626 
L 78.707239 155.662927 
L 87.32073 155.557024 
L 87.442475 155.557024 
L 91.429639 155.486422 
L 91.551384 155.41582 
L 91.734002 155.486422 
L 91.855748 155.451121 
L 92.00793 155.41582 
L 110.08713 155.486422 
L 110.117566 155.557024 
L 110.178439 155.486422 
L 111.882875 155.592325 
L 112.00462 155.592325 
L 113.313384 155.698229 
L 113.34382 155.768831 
L 113.404693 155.73353 
L 113.526439 155.73353 
L 113.648184 155.804132 
L 113.67862 155.768831 
L 114.226475 155.839433 
L 114.256911 155.910035 
L 114.317784 155.874734 
L 114.34822 155.839433 
L 114.378657 155.874734 
L 114.500402 155.910035 
L 114.804766 155.980638 
L 114.956948 156.086541 
L 115.535239 156.192444 
L 115.68742 156.263047 
L 115.77873 156.227745 
L 115.809166 156.263047 
L 116.204839 156.36895 
L 116.35702 156.404251 
L 116.996184 156.474853 
L 117.11793 156.545456 
L 117.209239 156.510154 
L 117.239675 156.616058 
L 117.330984 156.545456 
L 117.513602 156.616058 
L 118.244075 156.721961 
L 118.36582 156.792563 
L 118.396257 156.721961 
L 118.45713 156.757262 
L 118.639748 156.827865 
L 119.552839 156.933768 
L 119.583275 157.00437 
L 119.644148 156.969069 
L 119.735457 156.969069 
L 119.857202 157.039671 
L 119.978948 157.00437 
L 120.13113 157.039671 
L 120.222439 157.039671 
L 120.405057 157.110274 
L 120.526802 157.110274 
L 120.952911 157.216177 
L 121.105093 157.251478 
L 121.409457 157.357381 
L 121.622511 157.463285 
L 121.652948 157.427984 
L 121.71382 157.498586 
L 122.109493 157.851597 
L 122.200802 157.851597 
L 122.38342 158.028103 
L 123.81393 159.82846 
L 124.240039 160.569783 
L 124.48353 160.993397 
L 126.005348 164.770617 
L 128.227202 172.889875 
L 129.41422 177.902635 
L 129.901202 179.950099 
L 130.327311 181.785757 
L 131.17953 185.245267 
L 132.640475 189.975618 
L 132.792657 190.293328 
L 133.066584 190.893447 
L 133.157893 190.99935 
L 133.340511 191.281759 
L 133.85793 191.775975 
L 133.888366 191.740674 
L 133.949239 191.811276 
L 134.314475 192.093685 
L 134.497093 192.199589 
L 134.618839 192.270191 
L 134.649275 192.23489 
L 135.44062 192.164288 
L 135.592802 192.023083 
L 135.714548 191.91718 
L 136.049348 191.422964 
L 136.475457 190.328629 
L 136.840693 189.234294 
L 137.632039 186.021892 
L 137.753784 185.492374 
L 138.636439 180.938531 
L 138.697311 180.620821 
L 140.401748 168.01832 
L 142.014875 152.062213 
L 145.302002 112.701459 
L 146.641202 95.580421 
L 148.954366 67.445424 
L 150.84142 48.912332 
L 151.571893 43.828979 
L 152.819784 37.157064 
L 153.002402 36.486337 
L 153.367639 35.250804 
L 153.489384 34.968389 
L 153.763311 34.368276 
L 154.311166 33.838756 
L 154.463348 33.909358 
L 154.585093 33.909358 
L 154.706839 33.979961 
L 154.919893 34.227068 
L 155.011202 34.332969 
L 155.711239 36.203934 
L 156.319966 38.639703 
L 156.654766 40.475361 
L 157.993966 50.500883 
L 159.21142 64.338925 
L 160.30713 79.730217 
L 161.037602 91.379585 
L 162.98553 127.10432 
L 169.985893 271.026994 
L 171.69033 296.938014 
L 173.120839 312.294005 
L 173.60782 315.824112 
L 174.36873 320.377968 
L 175.61662 324.366992 
L 175.70793 324.472892 
L 176.012293 324.684702 
L 176.225348 324.578793 
L 177.229748 323.272654 
L 177.747166 321.366393 
L 178.173275 319.49544 
L 179.086366 313.564845 
L 181.429966 290.830926 
L 182.921348 270.391573 
L 184.230111 248.999088 
L 186.056293 217.122178 
L 187.030257 199.506921 
L 189.617348 153.54486 
L 191.44353 123.574208 
L 192.02182 114.854831 
L 192.630548 106.170752 
L 194.091493 88.873205 
L 197.074257 62.185557 
L 198.748257 53.07787 
L 200.635311 46.829566 
L 200.72662 46.723666 
L 201.578839 44.993908 
L 201.913639 44.746803 
L 202.613675 44.640902 
L 202.73542 44.5703 
L 202.765857 44.605595 
L 202.796293 44.5703 
L 202.918039 44.499695 
L 203.07022 44.5703 
L 203.131093 44.53499 
L 203.16153 44.5703 
L 203.618075 44.958612 
L 203.770257 45.029215 
L 203.892002 45.09982 
L 204.013748 45.09982 
L 204.713784 46.052939 
L 206.144293 49.583059 
L 206.387784 50.394982 
L 206.479093 50.64209 
L 208.487893 57.984721 
L 209.218366 61.585432 
L 213.905566 83.825142 
L 219.353675 116.019768 
L 219.962402 120.114698 
L 220.266766 121.985657 
L 221.027675 127.280826 
L 223.006039 141.789586 
L 224.101748 151.00318 
L 224.406111 153.333053 
L 227.17582 180.056002 
L 228.088911 190.36393 
L 228.60633 196.118013 
L 229.94553 211.791714 
L 233.750075 254.64727 
L 235.941493 273.95699 
L 236.367602 276.533969 
L 236.611093 277.769511 
L 237.189384 280.522993 
L 237.615493 281.61733 
L 238.22422 282.782273 
L 238.711202 283.276486 
L 238.741639 283.241179 
L 239.046002 283.170574 
L 239.198184 283.064676 
L 239.441675 282.958776 
L 239.89822 282.288049 
L 240.111275 281.61733 
L 240.446075 280.240589 
L 240.598257 279.71107 
L 242.363566 268.83833 
L 242.850548 264.672789 
L 245.25502 241.374049 
L 246.92902 218.604831 
L 251.646657 149.061618 
L 252.072766 143.484041 
L 253.594584 125.480468 
L 255.786002 106.135456 
L 257.429566 97.239571 
L 258.190475 94.980302 
L 258.31222 94.733188 
L 258.73833 93.638856 
L 259.31662 92.544519 
L 259.377493 92.438621 
L 259.98622 91.591389 
L 260.168839 91.344284 
L 260.594948 90.991269 
L 260.808002 90.920673 
L 260.960184 90.814767 
L 261.08193 90.779466 
L 261.112366 90.814767 
L 261.173239 90.744164 
L 261.294984 90.708863 
L 261.41673 90.744164 
L 261.508039 90.708863 
L 261.538475 90.744164 
L 261.781966 90.850068 
L 262.08633 91.061875 
L 262.238511 91.167778 
L 263.547275 92.826928 
L 263.912511 93.427053 
L 264.00382 93.532953 
L 264.399493 94.133072 
L 264.947348 95.156805 
L 265.129966 95.474515 
L 265.373457 95.933427 
L 265.616948 96.357043 
L 267.44313 100.840288 
L 268.751893 105.005818 
L 269.02582 105.853047 
L 269.421493 107.194487 
L 269.69542 108.006416 
L 269.969348 108.959546 
L 270.517202 111.04231 
L 270.638948 111.571826 
L 275.05222 131.552262 
L 276.178366 135.823697 
L 276.452293 136.812129 
L 279.922039 148.4968 
L 281.139493 151.567997 
L 281.535166 152.59173 
L 281.687348 152.90944 
L 282.691748 155.027507 
L 282.75262 155.09811 
L 283.056984 155.557024 
L 284.000511 156.510154 
L 284.304875 156.616058 
L 284.487493 156.68666 
L 284.609239 156.68666 
L 284.791857 156.757262 
L 285.278839 156.651359 
L 285.735384 156.263047 
L 285.826693 156.157143 
L 286.557166 155.168712 
L 288.718148 149.908845 
L 289.235566 148.4968 
L 290.148657 146.131625 
L 290.422584 145.496205 
L 290.513893 145.390301 
L 290.757384 144.931386 
L 291.274802 143.978256 
L 291.731348 143.589944 
L 292.066148 143.484041 
L 292.21833 143.413439 
L 292.309639 143.413439 
L 292.431384 143.342835 
L 292.492257 143.413439 
L 292.55313 143.378137 
L 292.705311 143.342835 
L 293.009675 143.589944 
L 293.040111 143.554643 
L 293.070548 143.625245 
L 294.196693 145.072591 
L 295.109784 147.437766 
L 296.23593 151.744503 
L 296.722911 153.933173 
L 296.996839 155.239314 
L 299.736111 171.760239 
L 305.579893 211.650507 
L 306.52342 216.486758 
L 306.919093 218.251817 
L 307.406075 220.016873 
L 308.471348 223.335175 
L 309.29313 224.994331 
L 309.87142 225.523845 
L 310.754075 225.417944 
L 311.058439 224.95903 
L 311.271493 224.570715 
L 311.88022 222.911565 
L 312.154148 221.958434 
L 314.041202 212.744844 
L 315.65433 200.74246 
L 319.428439 169.218558 
L 320.524148 160.075568 
L 322.289457 146.590539 
L 322.746002 143.342835 
L 323.93302 134.588158 
L 324.511311 130.599132 
L 325.911384 121.597345 
L 326.459239 118.561448 
L 327.463639 113.372184 
L 329.472439 104.546906 
L 330.38553 101.722813 
L 330.446402 101.61691 
L 330.872511 100.487274 
L 330.994257 100.204868 
L 332.850875 96.109935 
L 332.911748 96.004032 
L 333.276984 95.403913 
L 333.39873 95.298006 
L 333.794402 94.980302 
L 333.916148 94.874396 
L 334.190075 94.697887 
L 334.707493 94.591987 
L 334.829239 94.591987 
L 334.950984 94.697887 
L 335.042293 94.662592 
L 335.07273 94.697887 
L 335.772766 94.803793 
L 335.98582 94.9097 
L 336.198875 95.015597 
L 336.65542 95.403913 
L 336.74673 95.509816 
L 337.598948 96.639452 
L 339.516439 101.334501 
L 340.33822 103.80558 
L 340.76433 105.041119 
L 342.986184 113.160377 
L 343.929711 117.0435 
L 344.386257 119.020363 
L 344.842802 121.103129 
L 344.994984 121.703248 
L 346.608111 129.646001 
L 347.277711 133.529124 
L 347.70382 136.000203 
L 350.230039 150.014748 
L 350.80833 153.156548 
L 351.264875 155.592325 
L 351.508366 156.757262 
L 351.873602 158.522318 
L 352.847566 162.546646 
L 352.999748 163.146765 
L 360.974075 190.505135 
L 362.952439 194.847173 
L 363.348111 195.37669 
L 363.500293 195.659099 
L 363.591602 195.6944 
L 363.804657 196.047411 
L 365.752584 198.165478 
L 365.87433 198.200779 
L 366.026511 198.377285 
L 366.178693 198.483188 
L 366.361311 198.659694 
L 366.604802 198.800898 
L 366.756984 198.906802 
L 367.183093 199.259813 
L 367.487457 199.330415 
L 367.639639 199.436319 
L 367.913566 199.612824 
L 367.944002 199.577523 
L 368.004875 199.648125 
L 368.187493 199.754029 
L 368.309239 199.859932 
L 368.400548 199.859932 
L 368.613602 199.965835 
L 368.765784 199.895233 
L 369.009275 200.036438 
L 369.374511 200.142341 
L 369.526693 200.248244 
L 371.109384 200.142341 
L 371.292002 200.071739 
L 371.383311 200.071739 
L 371.535493 200.001137 
L 371.657239 200.001137 
L 372.083348 199.895233 
L 372.265966 199.824631 
L 372.661639 199.754029 
L 372.81382 199.648125 
L 372.90513 199.683426 
L 372.935566 199.648125 
L 373.331239 199.542222 
L 373.635602 199.330415 
L 373.757348 199.330415 
L 374.213893 198.942103 
L 374.305202 198.871501 
L 374.457384 198.730296 
L 375.370475 197.530058 
L 375.735711 196.929939 
L 375.796584 196.859337 
L 376.040075 196.400422 
L 376.070511 196.435723 
L 376.100948 196.32982 
L 376.344439 195.941508 
L 376.618366 195.341388 
L 376.709675 195.200184 
L 376.92273 194.600065 
L 376.983602 194.529463 
L 378.84022 189.975618 
L 381.18382 181.468047 
L 381.640366 179.420584 
L 381.975166 177.867333 
L 382.918693 173.348789 
L 382.918693 173.348789 
" style="fill:none;stroke:#0000ff;stroke-linecap:square;stroke-width:1.5;"/>
   </g>
   <g id="line2d_26">
    <path clip-path="url(#p3947872cdd)" d="M 78.555057 155.564084 
L 78.798548 155.581735 
L 79.011602 155.581735 
L 84.155348 155.687638 
L 84.398839 155.705289 
L 93.194948 155.599385 
L 93.377566 155.599385 
L 93.621057 155.617036 
L 100.530111 155.722939 
L 101.321457 156.0583 
L 101.473639 156.164203 
L 102.112802 156.658419 
L 102.478039 157.082033 
L 102.660657 157.31149 
L 103.208511 158.105765 
L 105.186875 162.959669 
L 106.891311 169.27857 
L 110.300184 182.657697 
L 110.787166 184.052091 
L 111.639384 186.187808 
L 112.917711 188.217622 
L 113.039457 188.270574 
L 113.252511 188.358827 
L 113.556875 188.411778 
L 113.830802 188.376477 
L 114.196039 188.288224 
L 114.500402 187.970514 
L 114.896075 187.352745 
L 116.204839 184.08739 
L 118.426693 173.267597 
L 119.583275 165.924964 
L 123.174766 138.019427 
L 125.670548 118.639111 
L 126.553202 113.25569 
L 127.922839 105.94836 
L 129.962075 98.129156 
L 130.41862 97.140725 
L 131.027348 95.993444 
L 131.940439 94.775553 
L 132.792657 93.504712 
L 133.066584 93.345857 
L 133.249202 93.239957 
L 134.19273 92.81634 
L 134.679711 92.975195 
L 135.014511 92.869292 
L 135.53193 92.692786 
L 136.53633 93.151698 
L 136.962439 93.239957 
L 137.297239 93.610616 
L 137.936402 94.493144 
L 138.849493 96.875969 
L 139.610402 99.911866 
L 140.401748 103.583182 
L 142.47142 114.967794 
L 143.019275 118.727364 
L 144.175857 127.817403 
L 147.402111 154.875713 
L 149.623966 175.703375 
L 153.550257 208.92173 
L 154.341602 213.65208 
L 155.224257 218.170621 
L 156.319966 221.647784 
L 156.472148 221.983145 
L 157.233057 223.09513 
L 157.750475 223.536394 
L 158.024402 223.571696 
L 158.267893 223.465789 
L 158.63313 223.042179 
L 159.759275 221.577182 
L 160.915857 218.647186 
L 161.950693 214.675813 
L 163.22902 208.233358 
L 163.929057 203.997226 
L 165.724802 190.741652 
L 168.129275 172.120311 
L 170.564184 158.635282 
L 171.142475 156.746672 
L 172.146875 154.16969 
L 172.816475 153.55192 
L 172.968657 153.446017 
L 173.486075 153.251861 
L 173.69913 153.357764 
L 173.851311 153.463668 
L 174.429602 153.993184 
L 174.520911 154.063787 
L 175.37313 155.74059 
L 176.255784 158.635282 
L 178.021093 167.319358 
L 180.516875 182.569442 
L 181.156039 186.028953 
L 183.590948 199.513981 
L 184.686657 203.520661 
L 185.234511 204.773848 
L 185.599748 205.35632 
L 186.208475 205.621072 
L 186.482402 205.462217 
L 186.725893 205.215112 
L 187.699857 203.308849 
L 188.491202 200.678918 
L 189.312984 196.901698 
L 190.134766 192.030143 
L 190.834802 186.399614 
L 192.995784 166.630986 
L 201.700584 81.890646 
L 203.191966 71.441511 
L 204.74422 63.092799 
L 205.231202 61.521901 
L 205.809493 60.727621 
L 206.296475 60.815876 
L 206.479093 60.886481 
L 206.813893 60.992379 
L 207.209566 61.327742 
L 208.76182 64.222432 
L 209.218366 65.84628 
L 210.374948 70.241273 
L 212.170693 80.178542 
L 214.970839 98.746929 
L 216.310039 108.843047 
L 217.46662 117.950739 
L 220.449384 139.607977 
L 222.853857 154.275593 
L 223.49302 157.735103 
L 224.193057 161.494673 
L 225.806184 170.1964 
L 226.962766 175.668073 
L 230.219457 188.46473 
L 230.52382 189.40021 
L 230.980366 190.812255 
L 232.258693 194.836582 
L 233.019602 197.466516 
L 233.53702 199.302174 
L 234.693602 203.714817 
L 235.88062 208.074503 
L 236.611093 210.227872 
L 236.793711 210.757386 
L 238.55902 214.605211 
L 238.802511 214.869972 
L 239.289493 215.275932 
L 239.502548 215.381833 
L 239.776475 215.540688 
L 239.928657 215.575989 
L 240.172148 215.699543 
L 240.476511 215.787801 
L 240.689566 215.893699 
L 240.99393 215.999605 
L 241.511348 216.176108 
L 243.367966 216.282014 
L 244.433239 217.02334 
L 246.472475 219.547368 
L 247.02033 220.323995 
L 247.081202 220.394592 
L 249.090002 223.677599 
L 249.36393 224.136511 
L 250.003093 225.354402 
L 250.94662 227.207708 
L 252.011893 229.414031 
L 252.894548 230.755471 
L 253.016293 230.861377 
L 253.564148 231.337942 
L 253.71633 231.443846 
L 254.203311 231.849809 
L 254.446802 231.991016 
L 255.39033 231.88511 
L 255.846875 231.514451 
L 256.97302 229.343429 
L 258.007857 226.025126 
L 259.286184 219.600317 
L 260.199275 213.10491 
L 261.99502 195.454352 
L 262.75593 185.870097 
L 263.76033 171.679046 
L 265.43433 145.820974 
L 266.499602 127.464391 
L 268.204039 97.882051 
L 269.756293 72.730005 
L 271.247675 52.71426 
L 272.343384 40.676581 
L 273.80433 28.903659 
L 274.413057 25.655953 
L 275.295711 22.973076 
L 275.630511 22.443554 
L 276.026184 22.337656 
L 276.787093 22.884818 
L 277.213202 23.784999 
L 278.521966 29.556733 
L 278.948075 32.345521 
L 279.982911 40.305919 
L 281.83953 58.556599 
L 283.574402 78.872397 
L 288.809457 143.967666 
L 290.057348 158.476427 
L 291.092184 169.737484 
L 292.066148 179.798305 
L 293.80102 195.807363 
L 294.622802 201.98506 
L 296.844657 216.687977 
L 298.48822 225.583862 
L 299.82742 231.284991 
L 301.562293 235.980043 
L 302.110148 236.986122 
L 302.627566 237.674494 
L 302.992802 237.798045 
L 303.236293 237.656843 
L 303.388475 237.55094 
L 303.571093 237.339133 
L 304.210257 236.015344 
L 304.788548 234.003177 
L 305.549457 230.967281 
L 306.097311 228.284393 
L 307.28433 222.265551 
L 308.653966 213.669728 
L 310.20622 203.644212 
L 312.671566 187.21154 
L 315.045602 169.91399 
L 315.776075 165.201291 
L 318.150111 152.033972 
L 318.697966 149.75705 
L 319.398002 147.003562 
L 320.798075 142.502669 
L 322.319893 139.237316 
L 322.959057 138.337137 
L 324.115639 137.15455 
L 324.541748 136.783888 
L 325.424402 135.6013 
L 325.789639 135.018831 
L 326.580984 133.959798 
L 326.885348 133.518534 
L 327.250584 133.094921 
L 327.798439 132.300646 
L 328.985457 130.041373 
L 329.411566 129.141195 
L 330.781202 125.699335 
L 331.268184 124.357893 
L 331.481239 123.775424 
L 332.089966 122.098621 
L 334.64662 115.020746 
L 335.042293 114.138218 
L 335.529275 113.061534 
L 336.685857 110.83756 
L 337.294584 109.690279 
L 337.690257 109.072507 
L 338.207675 108.384135 
L 338.785966 107.854615 
L 339.09033 107.748715 
L 339.364257 107.713414 
L 339.607748 107.731061 
L 339.820802 107.731061 
L 340.642584 108.313533 
L 341.160002 109.001902 
L 341.525239 109.584373 
L 343.320984 114.014664 
L 343.838402 115.850322 
L 344.508002 118.762665 
L 345.208039 122.522234 
L 346.12113 128.099812 
L 348.921275 146.668202 
L 350.747457 160.15323 
L 355.708584 196.742843 
L 357.230402 205.744626 
L 359.056584 213.757987 
L 359.574002 215.222977 
L 359.939239 215.946656 
L 360.274039 216.47617 
L 360.51753 216.740931 
L 360.76102 216.988036 
L 360.882766 217.040988 
L 361.248002 217.146891 
L 361.85673 217.393999 
L 362.069784 217.376352 
L 362.252402 217.376352 
L 362.617639 217.11159 
L 363.10462 216.723278 
L 364.230766 214.552262 
L 365.843893 209.55715 
L 366.909166 204.773848 
L 368.735348 193.548091 
L 369.861493 184.934618 
L 371.23113 172.508623 
L 376.344439 128.98234 
L 378.201057 115.815021 
L 378.961966 111.261176 
L 381.457748 100.176627 
L 381.822984 99.064639 
L 382.61433 97.070128 
L 382.766511 96.752418 
L 382.918693 96.434705 
L 382.918693 96.434705 
" style="fill:none;stroke:#ff0000;stroke-linecap:square;stroke-width:1.5;"/>
   </g>
   <g id="line2d_27">
    <path clip-path="url(#p3947872cdd)" d="M 125.792293 164.135197 
" style="fill:none;stroke:#ffffff;stroke-linecap:square;stroke-width:1.5;"/>
    <defs>
     <path d="M 0 -5 
L -1.12257 -1.545085 
L -4.755283 -1.545085 
L -1.816356 0.59017 
L -2.938926 4.045085 
L -0 1.90983 
L 2.938926 4.045085 
L 1.816356 0.59017 
L 4.755283 -1.545085 
L 1.12257 -1.545085 
z
" id="m880f823ece" style="stroke:#ffffff;stroke-linejoin:bevel;"/>
    </defs>
    <g clip-path="url(#p3947872cdd)">
     <use style="fill:#0000ff;stroke:#ffffff;stroke-linejoin:bevel;" x="125.792293" xlink:href="#m880f823ece" y="164.135197"/>
    </g>
   </g>
   <g id="line2d_28">
    <path clip-path="url(#p3947872cdd)" d="M 105.004257 162.377201 
" style="fill:none;stroke:#ffffff;stroke-linecap:square;stroke-width:1.5;"/>
    <defs>
     <path d="M 0 -5 
L -1.12257 -1.545085 
L -4.755283 -1.545085 
L -1.816356 0.59017 
L -2.938926 4.045085 
L -0 1.90983 
L 2.938926 4.045085 
L 1.816356 0.59017 
L 4.755283 -1.545085 
L 1.12257 -1.545085 
z
" id="m37d30c4d40" style="stroke:#ffffff;stroke-linejoin:bevel;"/>
    </defs>
    <g clip-path="url(#p3947872cdd)">
     <use style="fill:#ff0000;stroke:#ffffff;stroke-linejoin:bevel;" x="105.004257" xlink:href="#m37d30c4d40" y="162.377201"/>
    </g>
   </g>
   <g id="patch_3">
    <path d="M 63.336875 339.84 
L 63.336875 7.2 
" style="fill:none;stroke:#000000;stroke-linecap:square;stroke-linejoin:miter;stroke-width:0.8;"/>
   </g>
   <g id="patch_4">
    <path d="M 398.136875 339.84 
L 398.136875 7.2 
" style="fill:none;stroke:#000000;stroke-linecap:square;stroke-linejoin:miter;stroke-width:0.8;"/>
   </g>
   <g id="patch_5">
    <path d="M 63.336875 339.84 
L 398.136875 339.84 
" style="fill:none;stroke:#000000;stroke-linecap:square;stroke-linejoin:miter;stroke-width:0.8;"/>
   </g>
   <g id="patch_6">
    <path d="M 63.336875 7.2 
L 398.136875 7.2 
" style="fill:none;stroke:#000000;stroke-linecap:square;stroke-linejoin:miter;stroke-width:0.8;"/>
   </g>
   <g id="text_15">
    <g id="patch_7">
     <path d="M 75.036875 331.242688 
L 166.79375 331.242688 
L 166.79375 293.760312 
L 75.036875 293.760312 
z
" style="fill:#ffffff;stroke:#000000;stroke-linejoin:miter;stroke-width:0.75;"/>
    </g>
    <!-- Auto_00094 -->
    <g transform="translate(80.076875 308.521562)scale(0.14 -0.14)">
     <defs>
      <path d="M 2928 1419 
L 1288 1419 
L 1000 750 
Q 894 503 894 381 
Q 894 284 986 211 
Q 1078 138 1384 116 
L 1384 0 
L 50 0 
L 50 116 
Q 316 163 394 238 
Q 553 388 747 847 
L 2238 4334 
L 2347 4334 
L 3822 809 
Q 4000 384 4145 257 
Q 4291 131 4550 116 
L 4550 0 
L 2878 0 
L 2878 116 
Q 3131 128 3220 200 
Q 3309 272 3309 375 
Q 3309 513 3184 809 
L 2928 1419 
z
M 2841 1650 
L 2122 3363 
L 1384 1650 
L 2841 1650 
z
" id="TimesNewRomanPSMT-41" transform="scale(0.015625)"/>
      <path d="M 2709 2863 
L 2709 1128 
Q 2709 631 2732 520 
Q 2756 409 2807 365 
Q 2859 322 2928 322 
Q 3025 322 3147 375 
L 3191 266 
L 2334 -88 
L 2194 -88 
L 2194 519 
Q 1825 119 1631 15 
Q 1438 -88 1222 -88 
Q 981 -88 804 51 
Q 628 191 559 409 
Q 491 628 491 1028 
L 491 2306 
Q 491 2509 447 2587 
Q 403 2666 317 2708 
Q 231 2750 6 2747 
L 6 2863 
L 1009 2863 
L 1009 947 
Q 1009 547 1148 422 
Q 1288 297 1484 297 
Q 1619 297 1789 381 
Q 1959 466 2194 703 
L 2194 2325 
Q 2194 2569 2105 2655 
Q 2016 2741 1734 2747 
L 1734 2863 
L 2709 2863 
z
" id="TimesNewRomanPSMT-75" transform="scale(0.015625)"/>
      <path d="M 3256 -1381 
L -53 -1381 
L -53 -1119 
L 3256 -1119 
L 3256 -1381 
z
" id="TimesNewRomanPSMT-5f" transform="scale(0.015625)"/>
      <path d="M 338 -88 
L 338 28 
Q 744 34 1094 217 
Q 1444 400 1770 856 
Q 2097 1313 2225 1859 
Q 1734 1544 1338 1544 
Q 891 1544 572 1889 
Q 253 2234 253 2806 
Q 253 3363 572 3797 
Q 956 4325 1575 4325 
Q 2097 4325 2469 3894 
Q 2925 3359 2925 2575 
Q 2925 1869 2578 1258 
Q 2231 647 1613 244 
Q 1109 -88 516 -88 
L 338 -88 
z
M 2275 2091 
Q 2331 2497 2331 2741 
Q 2331 3044 2228 3395 
Q 2125 3747 1936 3934 
Q 1747 4122 1506 4122 
Q 1228 4122 1018 3872 
Q 809 3622 809 3128 
Q 809 2469 1088 2097 
Q 1291 1828 1588 1828 
Q 1731 1828 1928 1897 
Q 2125 1966 2275 2091 
z
" id="TimesNewRomanPSMT-39" transform="scale(0.015625)"/>
     </defs>
     <use xlink:href="#TimesNewRomanPSMT-41"/>
     <use x="72.216797" xlink:href="#TimesNewRomanPSMT-75"/>
     <use x="122.216797" xlink:href="#TimesNewRomanPSMT-74"/>
     <use x="150" xlink:href="#TimesNewRomanPSMT-6f"/>
     <use x="200" xlink:href="#TimesNewRomanPSMT-5f"/>
     <use x="250" xlink:href="#TimesNewRomanPSMT-30"/>
     <use x="300" xlink:href="#TimesNewRomanPSMT-30"/>
     <use x="350" xlink:href="#TimesNewRomanPSMT-30"/>
     <use x="400" xlink:href="#TimesNewRomanPSMT-39"/>
     <use x="450" xlink:href="#TimesNewRomanPSMT-34"/>
    </g>
    <!-- Vs: 292.67m/s -->
    <g transform="translate(80.076875 323.208)scale(0.14 -0.14)">
     <defs>
      <path d="M 903 2950 
Q 1047 2950 1148 2848 
Q 1250 2747 1250 2603 
Q 1250 2459 1148 2357 
Q 1047 2256 903 2256 
Q 759 2256 657 2357 
Q 556 2459 556 2603 
Q 556 2747 657 2848 
Q 759 2950 903 2950 
z
M 897 609 
Q 1044 609 1145 506 
Q 1247 403 1247 259 
Q 1247 116 1144 14 
Q 1041 -88 897 -88 
Q 753 -88 651 14 
Q 550 116 550 259 
Q 550 403 651 506 
Q 753 609 897 609 
z
" id="TimesNewRomanPSMT-3a" transform="scale(0.015625)"/>
      <path d="M 644 4238 
L 2916 4238 
L 2916 4119 
L 1503 -88 
L 1153 -88 
L 2419 3728 
L 1253 3728 
Q 900 3728 750 3644 
Q 488 3500 328 3200 
L 238 3234 
L 644 4238 
z
" id="TimesNewRomanPSMT-37" transform="scale(0.015625)"/>
      <path d="M 1794 4444 
L 259 -88 
L 9 -88 
L 1544 4444 
L 1794 4444 
z
" id="TimesNewRomanPSMT-2f" transform="scale(0.015625)"/>
     </defs>
     <use xlink:href="#TimesNewRomanPSMT-56"/>
     <use x="72.216797" xlink:href="#TimesNewRomanPSMT-73"/>
     <use x="111.132812" xlink:href="#TimesNewRomanPSMT-3a"/>
     <use x="138.916016" xlink:href="#TimesNewRomanPSMT-20"/>
     <use x="163.916016" xlink:href="#TimesNewRomanPSMT-32"/>
     <use x="213.916016" xlink:href="#TimesNewRomanPSMT-39"/>
     <use x="263.916016" xlink:href="#TimesNewRomanPSMT-32"/>
     <use x="313.916016" xlink:href="#TimesNewRomanPSMT-2e"/>
     <use x="338.916016" xlink:href="#TimesNewRomanPSMT-36"/>
     <use x="388.916016" xlink:href="#TimesNewRomanPSMT-37"/>
     <use x="438.916016" xlink:href="#TimesNewRomanPSMT-6d"/>
     <use x="516.699219" xlink:href="#TimesNewRomanPSMT-2f"/>
     <use x="544.482422" xlink:href="#TimesNewRomanPSMT-73"/>
    </g>
   </g>
  </g>
 </g>
 <defs>
  <clipPath id="p3947872cdd">
   <rect height="332.64" width="334.8" x="63.336875" y="7.2"/>
  </clipPath>
 </defs>
</svg>
