<?xml version="1.0" encoding="utf-8" standalone="no"?>
<!DOCTYPE svg PUBLIC "-//W3C//DTD SVG 1.1//EN"
  "http://www.w3.org/Graphics/SVG/1.1/DTD/svg11.dtd">
<svg height="383.471875pt" version="1.1" viewBox="0 0 421.086875 383.471875" width="421.086875pt" xmlns="http://www.w3.org/2000/svg" xmlns:xlink="http://www.w3.org/1999/xlink">
 <metadata>
  <rdf:RDF xmlns:cc="http://creativecommons.org/ns#" xmlns:dc="http://purl.org/dc/elements/1.1/" xmlns:rdf="http://www.w3.org/1999/02/22-rdf-syntax-ns#">
   <cc:Work>
    <dc:type rdf:resource="http://purl.org/dc/dcmitype/StillImage"/>
    <dc:date>2021-06-11T14:39:38.486831</dc:date>
    <dc:format>image/svg+xml</dc:format>
    <dc:creator>
     <cc:Agent>
      <dc:title>Matplotlib v3.4.2, https://matplotlib.org/</dc:title>
     </cc:Agent>
    </dc:creator>
   </cc:Work>
  </rdf:RDF>
 </metadata>
 <defs>
  <style type="text/css">*{stroke-linecap:butt;stroke-linejoin:round;}</style>
 </defs>
 <g id="figure_1">
  <g id="patch_1">
   <path d="M 0 383.471875 
L 421.086875 383.471875 
L 421.086875 0 
L 0 0 
z
" style="fill:#ffffff;"/>
  </g>
  <g id="axes_1">
   <g id="patch_2">
    <path d="M 63.336875 339.84 
L 398.136875 339.84 
L 398.136875 7.2 
L 63.336875 7.2 
z
" style="fill:#ffffff;"/>
   </g>
   <g id="matplotlib.axis_1">
    <g id="xtick_1">
     <g id="line2d_1">
      <path clip-path="url(#p7b68e32a30)" d="M 93.773239 339.84 
L 93.773239 7.2 
" style="fill:none;stroke:#000000;stroke-dasharray:0.5,0.825;stroke-dashoffset:0;stroke-width:0.5;"/>
     </g>
     <g id="line2d_2">
      <defs>
       <path d="M 0 0 
L 0 3.5 
" id="m3615d1c224" style="stroke:#000000;stroke-width:0.8;"/>
      </defs>
      <g>
       <use style="stroke:#000000;stroke-width:0.8;" x="93.773239" xlink:href="#m3615d1c224" y="339.84"/>
      </g>
     </g>
     <g id="text_1">
      <!-- 0.000 -->
      <g transform="translate(78.023239 356.56125)scale(0.14 -0.14)">
       <defs>
        <path d="M 231 2094 
Q 231 2819 450 3342 
Q 669 3866 1031 4122 
Q 1313 4325 1613 4325 
Q 2100 4325 2488 3828 
Q 2972 3213 2972 2159 
Q 2972 1422 2759 906 
Q 2547 391 2217 158 
Q 1888 -75 1581 -75 
Q 975 -75 572 641 
Q 231 1244 231 2094 
z
M 844 2016 
Q 844 1141 1059 588 
Q 1238 122 1591 122 
Q 1759 122 1940 273 
Q 2122 425 2216 781 
Q 2359 1319 2359 2297 
Q 2359 3022 2209 3506 
Q 2097 3866 1919 4016 
Q 1791 4119 1609 4119 
Q 1397 4119 1231 3928 
Q 1006 3669 925 3112 
Q 844 2556 844 2016 
z
" id="TimesNewRomanPSMT-30" transform="scale(0.015625)"/>
        <path d="M 800 606 
Q 947 606 1047 504 
Q 1147 403 1147 259 
Q 1147 116 1045 14 
Q 944 -88 800 -88 
Q 656 -88 554 14 
Q 453 116 453 259 
Q 453 406 554 506 
Q 656 606 800 606 
z
" id="TimesNewRomanPSMT-2e" transform="scale(0.015625)"/>
       </defs>
       <use xlink:href="#TimesNewRomanPSMT-30"/>
       <use x="50" xlink:href="#TimesNewRomanPSMT-2e"/>
       <use x="75" xlink:href="#TimesNewRomanPSMT-30"/>
       <use x="125" xlink:href="#TimesNewRomanPSMT-30"/>
       <use x="175" xlink:href="#TimesNewRomanPSMT-30"/>
      </g>
     </g>
    </g>
    <g id="xtick_2">
     <g id="line2d_3">
      <path clip-path="url(#p7b68e32a30)" d="M 154.645966 339.84 
L 154.645966 7.2 
" style="fill:none;stroke:#000000;stroke-dasharray:0.5,0.825;stroke-dashoffset:0;stroke-width:0.5;"/>
     </g>
     <g id="line2d_4">
      <g>
       <use style="stroke:#000000;stroke-width:0.8;" x="154.645966" xlink:href="#m3615d1c224" y="339.84"/>
      </g>
     </g>
     <g id="text_2">
      <!-- 0.001 -->
      <g transform="translate(138.895966 356.56125)scale(0.14 -0.14)">
       <defs>
        <path d="M 750 3822 
L 1781 4325 
L 1884 4325 
L 1884 747 
Q 1884 391 1914 303 
Q 1944 216 2037 169 
Q 2131 122 2419 116 
L 2419 0 
L 825 0 
L 825 116 
Q 1125 122 1212 167 
Q 1300 213 1334 289 
Q 1369 366 1369 747 
L 1369 3034 
Q 1369 3497 1338 3628 
Q 1316 3728 1258 3775 
Q 1200 3822 1119 3822 
Q 1003 3822 797 3725 
L 750 3822 
z
" id="TimesNewRomanPSMT-31" transform="scale(0.015625)"/>
       </defs>
       <use xlink:href="#TimesNewRomanPSMT-30"/>
       <use x="50" xlink:href="#TimesNewRomanPSMT-2e"/>
       <use x="75" xlink:href="#TimesNewRomanPSMT-30"/>
       <use x="125" xlink:href="#TimesNewRomanPSMT-30"/>
       <use x="175" xlink:href="#TimesNewRomanPSMT-31"/>
      </g>
     </g>
    </g>
    <g id="xtick_3">
     <g id="line2d_5">
      <path clip-path="url(#p7b68e32a30)" d="M 215.518693 339.84 
L 215.518693 7.2 
" style="fill:none;stroke:#000000;stroke-dasharray:0.5,0.825;stroke-dashoffset:0;stroke-width:0.5;"/>
     </g>
     <g id="line2d_6">
      <g>
       <use style="stroke:#000000;stroke-width:0.8;" x="215.518693" xlink:href="#m3615d1c224" y="339.84"/>
      </g>
     </g>
     <g id="text_3">
      <!-- 0.002 -->
      <g transform="translate(199.768693 356.56125)scale(0.14 -0.14)">
       <defs>
        <path d="M 2934 816 
L 2638 0 
L 138 0 
L 138 116 
Q 1241 1122 1691 1759 
Q 2141 2397 2141 2925 
Q 2141 3328 1894 3587 
Q 1647 3847 1303 3847 
Q 991 3847 742 3664 
Q 494 3481 375 3128 
L 259 3128 
Q 338 3706 661 4015 
Q 984 4325 1469 4325 
Q 1984 4325 2329 3994 
Q 2675 3663 2675 3213 
Q 2675 2891 2525 2569 
Q 2294 2063 1775 1497 
Q 997 647 803 472 
L 1909 472 
Q 2247 472 2383 497 
Q 2519 522 2628 598 
Q 2738 675 2819 816 
L 2934 816 
z
" id="TimesNewRomanPSMT-32" transform="scale(0.015625)"/>
       </defs>
       <use xlink:href="#TimesNewRomanPSMT-30"/>
       <use x="50" xlink:href="#TimesNewRomanPSMT-2e"/>
       <use x="75" xlink:href="#TimesNewRomanPSMT-30"/>
       <use x="125" xlink:href="#TimesNewRomanPSMT-30"/>
       <use x="175" xlink:href="#TimesNewRomanPSMT-32"/>
      </g>
     </g>
    </g>
    <g id="xtick_4">
     <g id="line2d_7">
      <path clip-path="url(#p7b68e32a30)" d="M 276.39142 339.84 
L 276.39142 7.2 
" style="fill:none;stroke:#000000;stroke-dasharray:0.5,0.825;stroke-dashoffset:0;stroke-width:0.5;"/>
     </g>
     <g id="line2d_8">
      <g>
       <use style="stroke:#000000;stroke-width:0.8;" x="276.39142" xlink:href="#m3615d1c224" y="339.84"/>
      </g>
     </g>
     <g id="text_4">
      <!-- 0.003 -->
      <g transform="translate(260.64142 356.56125)scale(0.14 -0.14)">
       <defs>
        <path d="M 325 3431 
Q 506 3859 782 4092 
Q 1059 4325 1472 4325 
Q 1981 4325 2253 3994 
Q 2459 3747 2459 3466 
Q 2459 3003 1878 2509 
Q 2269 2356 2469 2072 
Q 2669 1788 2669 1403 
Q 2669 853 2319 450 
Q 1863 -75 997 -75 
Q 569 -75 414 31 
Q 259 138 259 259 
Q 259 350 332 419 
Q 406 488 509 488 
Q 588 488 669 463 
Q 722 447 909 348 
Q 1097 250 1169 231 
Q 1284 197 1416 197 
Q 1734 197 1970 444 
Q 2206 691 2206 1028 
Q 2206 1275 2097 1509 
Q 2016 1684 1919 1775 
Q 1784 1900 1550 2001 
Q 1316 2103 1072 2103 
L 972 2103 
L 972 2197 
Q 1219 2228 1467 2375 
Q 1716 2522 1828 2728 
Q 1941 2934 1941 3181 
Q 1941 3503 1739 3701 
Q 1538 3900 1238 3900 
Q 753 3900 428 3381 
L 325 3431 
z
" id="TimesNewRomanPSMT-33" transform="scale(0.015625)"/>
       </defs>
       <use xlink:href="#TimesNewRomanPSMT-30"/>
       <use x="50" xlink:href="#TimesNewRomanPSMT-2e"/>
       <use x="75" xlink:href="#TimesNewRomanPSMT-30"/>
       <use x="125" xlink:href="#TimesNewRomanPSMT-30"/>
       <use x="175" xlink:href="#TimesNewRomanPSMT-33"/>
      </g>
     </g>
    </g>
    <g id="xtick_5">
     <g id="line2d_9">
      <path clip-path="url(#p7b68e32a30)" d="M 337.264148 339.84 
L 337.264148 7.2 
" style="fill:none;stroke:#000000;stroke-dasharray:0.5,0.825;stroke-dashoffset:0;stroke-width:0.5;"/>
     </g>
     <g id="line2d_10">
      <g>
       <use style="stroke:#000000;stroke-width:0.8;" x="337.264148" xlink:href="#m3615d1c224" y="339.84"/>
      </g>
     </g>
     <g id="text_5">
      <!-- 0.004 -->
      <g transform="translate(321.514148 356.56125)scale(0.14 -0.14)">
       <defs>
        <path d="M 2978 1563 
L 2978 1119 
L 2409 1119 
L 2409 0 
L 1894 0 
L 1894 1119 
L 100 1119 
L 100 1519 
L 2066 4325 
L 2409 4325 
L 2409 1563 
L 2978 1563 
z
M 1894 1563 
L 1894 3666 
L 406 1563 
L 1894 1563 
z
" id="TimesNewRomanPSMT-34" transform="scale(0.015625)"/>
       </defs>
       <use xlink:href="#TimesNewRomanPSMT-30"/>
       <use x="50" xlink:href="#TimesNewRomanPSMT-2e"/>
       <use x="75" xlink:href="#TimesNewRomanPSMT-30"/>
       <use x="125" xlink:href="#TimesNewRomanPSMT-30"/>
       <use x="175" xlink:href="#TimesNewRomanPSMT-34"/>
      </g>
     </g>
    </g>
    <g id="xtick_6">
     <g id="line2d_11">
      <path clip-path="url(#p7b68e32a30)" d="M 398.136875 339.84 
L 398.136875 7.2 
" style="fill:none;stroke:#000000;stroke-dasharray:0.5,0.825;stroke-dashoffset:0;stroke-width:0.5;"/>
     </g>
     <g id="line2d_12">
      <g>
       <use style="stroke:#000000;stroke-width:0.8;" x="398.136875" xlink:href="#m3615d1c224" y="339.84"/>
      </g>
     </g>
     <g id="text_6">
      <!-- 0.005 -->
      <g transform="translate(382.386875 356.56125)scale(0.14 -0.14)">
       <defs>
        <path d="M 2778 4238 
L 2534 3706 
L 1259 3706 
L 981 3138 
Q 1809 3016 2294 2522 
Q 2709 2097 2709 1522 
Q 2709 1188 2573 903 
Q 2438 619 2231 419 
Q 2025 219 1772 97 
Q 1413 -75 1034 -75 
Q 653 -75 479 54 
Q 306 184 306 341 
Q 306 428 378 495 
Q 450 563 559 563 
Q 641 563 702 538 
Q 763 513 909 409 
Q 1144 247 1384 247 
Q 1750 247 2026 523 
Q 2303 800 2303 1197 
Q 2303 1581 2056 1914 
Q 1809 2247 1375 2428 
Q 1034 2569 447 2591 
L 1259 4238 
L 2778 4238 
z
" id="TimesNewRomanPSMT-35" transform="scale(0.015625)"/>
       </defs>
       <use xlink:href="#TimesNewRomanPSMT-30"/>
       <use x="50" xlink:href="#TimesNewRomanPSMT-2e"/>
       <use x="75" xlink:href="#TimesNewRomanPSMT-30"/>
       <use x="125" xlink:href="#TimesNewRomanPSMT-30"/>
       <use x="175" xlink:href="#TimesNewRomanPSMT-35"/>
      </g>
     </g>
    </g>
    <g id="text_7">
     <!-- Time (sec) -->
     <g transform="translate(200.858906 373.277188)scale(0.14 -0.14)">
      <defs>
       <path d="M 3703 4238 
L 3750 3244 
L 3631 3244 
Q 3597 3506 3538 3619 
Q 3441 3800 3280 3886 
Q 3119 3972 2856 3972 
L 2259 3972 
L 2259 734 
Q 2259 344 2344 247 
Q 2463 116 2709 116 
L 2856 116 
L 2856 0 
L 1059 0 
L 1059 116 
L 1209 116 
Q 1478 116 1591 278 
Q 1659 378 1659 734 
L 1659 3972 
L 1150 3972 
Q 853 3972 728 3928 
Q 566 3869 450 3700 
Q 334 3531 313 3244 
L 194 3244 
L 244 4238 
L 3703 4238 
z
" id="TimesNewRomanPSMT-54" transform="scale(0.015625)"/>
       <path d="M 928 4444 
Q 1059 4444 1151 4351 
Q 1244 4259 1244 4128 
Q 1244 3997 1151 3903 
Q 1059 3809 928 3809 
Q 797 3809 703 3903 
Q 609 3997 609 4128 
Q 609 4259 701 4351 
Q 794 4444 928 4444 
z
M 1188 2947 
L 1188 647 
Q 1188 378 1227 289 
Q 1266 200 1342 156 
Q 1419 113 1622 113 
L 1622 0 
L 231 0 
L 231 113 
Q 441 113 512 153 
Q 584 194 626 287 
Q 669 381 669 647 
L 669 1750 
Q 669 2216 641 2353 
Q 619 2453 572 2492 
Q 525 2531 444 2531 
Q 356 2531 231 2484 
L 188 2597 
L 1050 2947 
L 1188 2947 
z
" id="TimesNewRomanPSMT-69" transform="scale(0.015625)"/>
       <path d="M 1050 2338 
Q 1363 2650 1419 2697 
Q 1559 2816 1721 2881 
Q 1884 2947 2044 2947 
Q 2313 2947 2506 2790 
Q 2700 2634 2766 2338 
Q 3088 2713 3309 2830 
Q 3531 2947 3766 2947 
Q 3994 2947 4170 2830 
Q 4347 2713 4450 2447 
Q 4519 2266 4519 1878 
L 4519 647 
Q 4519 378 4559 278 
Q 4591 209 4675 161 
Q 4759 113 4950 113 
L 4950 0 
L 3538 0 
L 3538 113 
L 3597 113 
Q 3781 113 3884 184 
Q 3956 234 3988 344 
Q 4000 397 4000 647 
L 4000 1878 
Q 4000 2228 3916 2372 
Q 3794 2572 3525 2572 
Q 3359 2572 3192 2489 
Q 3025 2406 2788 2181 
L 2781 2147 
L 2788 2013 
L 2788 647 
Q 2788 353 2820 281 
Q 2853 209 2943 161 
Q 3034 113 3253 113 
L 3253 0 
L 1806 0 
L 1806 113 
Q 2044 113 2133 169 
Q 2222 225 2256 338 
Q 2272 391 2272 647 
L 2272 1878 
Q 2272 2228 2169 2381 
Q 2031 2581 1784 2581 
Q 1616 2581 1450 2491 
Q 1191 2353 1050 2181 
L 1050 647 
Q 1050 366 1089 281 
Q 1128 197 1204 155 
Q 1281 113 1516 113 
L 1516 0 
L 100 0 
L 100 113 
Q 297 113 375 155 
Q 453 197 493 289 
Q 534 381 534 647 
L 534 1741 
Q 534 2213 506 2350 
Q 484 2453 437 2492 
Q 391 2531 309 2531 
Q 222 2531 100 2484 
L 53 2597 
L 916 2947 
L 1050 2947 
L 1050 2338 
z
" id="TimesNewRomanPSMT-6d" transform="scale(0.015625)"/>
       <path d="M 681 1784 
Q 678 1147 991 784 
Q 1303 422 1725 422 
Q 2006 422 2214 576 
Q 2422 731 2563 1106 
L 2659 1044 
Q 2594 616 2278 264 
Q 1963 -88 1488 -88 
Q 972 -88 605 314 
Q 238 716 238 1394 
Q 238 2128 614 2539 
Q 991 2950 1559 2950 
Q 2041 2950 2350 2633 
Q 2659 2316 2659 1784 
L 681 1784 
z
M 681 1966 
L 2006 1966 
Q 1991 2241 1941 2353 
Q 1863 2528 1708 2628 
Q 1553 2728 1384 2728 
Q 1125 2728 920 2526 
Q 716 2325 681 1966 
z
" id="TimesNewRomanPSMT-65" transform="scale(0.015625)"/>
       <path id="TimesNewRomanPSMT-20" transform="scale(0.015625)"/>
       <path d="M 1988 -1253 
L 1988 -1369 
Q 1516 -1131 1200 -813 
Q 750 -359 506 256 
Q 263 872 263 1534 
Q 263 2503 741 3301 
Q 1219 4100 1988 4444 
L 1988 4313 
Q 1603 4100 1356 3731 
Q 1109 3363 987 2797 
Q 866 2231 866 1616 
Q 866 947 969 400 
Q 1050 -31 1165 -292 
Q 1281 -553 1476 -793 
Q 1672 -1034 1988 -1253 
z
" id="TimesNewRomanPSMT-28" transform="scale(0.015625)"/>
       <path d="M 2050 2947 
L 2050 1972 
L 1947 1972 
Q 1828 2431 1642 2597 
Q 1456 2763 1169 2763 
Q 950 2763 815 2647 
Q 681 2531 681 2391 
Q 681 2216 781 2091 
Q 878 1963 1175 1819 
L 1631 1597 
Q 2266 1288 2266 781 
Q 2266 391 1970 151 
Q 1675 -88 1309 -88 
Q 1047 -88 709 6 
Q 606 38 541 38 
Q 469 38 428 -44 
L 325 -44 
L 325 978 
L 428 978 
Q 516 541 762 319 
Q 1009 97 1316 97 
Q 1531 97 1667 223 
Q 1803 350 1803 528 
Q 1803 744 1651 891 
Q 1500 1038 1047 1263 
Q 594 1488 453 1669 
Q 313 1847 313 2119 
Q 313 2472 555 2709 
Q 797 2947 1181 2947 
Q 1350 2947 1591 2875 
Q 1750 2828 1803 2828 
Q 1853 2828 1881 2850 
Q 1909 2872 1947 2947 
L 2050 2947 
z
" id="TimesNewRomanPSMT-73" transform="scale(0.015625)"/>
       <path d="M 2631 1088 
Q 2516 522 2178 217 
Q 1841 -88 1431 -88 
Q 944 -88 581 321 
Q 219 731 219 1428 
Q 219 2103 620 2525 
Q 1022 2947 1584 2947 
Q 2006 2947 2278 2723 
Q 2550 2500 2550 2259 
Q 2550 2141 2473 2067 
Q 2397 1994 2259 1994 
Q 2075 1994 1981 2113 
Q 1928 2178 1911 2362 
Q 1894 2547 1784 2644 
Q 1675 2738 1481 2738 
Q 1169 2738 978 2506 
Q 725 2200 725 1697 
Q 725 1184 976 792 
Q 1228 400 1656 400 
Q 1963 400 2206 609 
Q 2378 753 2541 1131 
L 2631 1088 
z
" id="TimesNewRomanPSMT-63" transform="scale(0.015625)"/>
       <path d="M 144 4313 
L 144 4444 
Q 619 4209 934 3891 
Q 1381 3434 1625 2820 
Q 1869 2206 1869 1541 
Q 1869 572 1392 -226 
Q 916 -1025 144 -1369 
L 144 -1253 
Q 528 -1038 776 -670 
Q 1025 -303 1145 264 
Q 1266 831 1266 1447 
Q 1266 2113 1163 2663 
Q 1084 3094 967 3353 
Q 850 3613 656 3853 
Q 463 4094 144 4313 
z
" id="TimesNewRomanPSMT-29" transform="scale(0.015625)"/>
      </defs>
      <use xlink:href="#TimesNewRomanPSMT-54"/>
      <use x="57.583984" xlink:href="#TimesNewRomanPSMT-69"/>
      <use x="85.367188" xlink:href="#TimesNewRomanPSMT-6d"/>
      <use x="163.150391" xlink:href="#TimesNewRomanPSMT-65"/>
      <use x="207.535156" xlink:href="#TimesNewRomanPSMT-20"/>
      <use x="232.535156" xlink:href="#TimesNewRomanPSMT-28"/>
      <use x="265.835938" xlink:href="#TimesNewRomanPSMT-73"/>
      <use x="304.751953" xlink:href="#TimesNewRomanPSMT-65"/>
      <use x="349.136719" xlink:href="#TimesNewRomanPSMT-63"/>
      <use x="393.521484" xlink:href="#TimesNewRomanPSMT-29"/>
     </g>
    </g>
   </g>
   <g id="matplotlib.axis_2">
    <g id="ytick_1">
     <g id="line2d_13">
      <path clip-path="url(#p7b68e32a30)" d="M 63.336875 326.304902 
L 398.136875 326.304902 
" style="fill:none;stroke:#000000;stroke-dasharray:0.5,0.825;stroke-dashoffset:0;stroke-width:0.5;"/>
     </g>
     <g id="line2d_14">
      <defs>
       <path d="M 0 0 
L -3.5 0 
" id="m4e5000ac12" style="stroke:#000000;stroke-width:0.8;"/>
      </defs>
      <g>
       <use style="stroke:#000000;stroke-width:0.8;" x="63.336875" xlink:href="#m4e5000ac12" y="326.304902"/>
      </g>
     </g>
     <g id="text_8">
      <!-- −0.06 -->
      <g transform="translate(23.942188 331.165527)scale(0.14 -0.14)">
       <defs>
        <path d="M 3484 2000 
L 116 2000 
L 116 2256 
L 3484 2256 
L 3484 2000 
z
" id="TimesNewRomanPSMT-2212" transform="scale(0.015625)"/>
        <path d="M 2869 4325 
L 2869 4209 
Q 2456 4169 2195 4045 
Q 1934 3922 1679 3669 
Q 1425 3416 1258 3105 
Q 1091 2794 978 2366 
Q 1428 2675 1881 2675 
Q 2316 2675 2634 2325 
Q 2953 1975 2953 1425 
Q 2953 894 2631 456 
Q 2244 -75 1606 -75 
Q 1172 -75 869 213 
Q 275 772 275 1663 
Q 275 2231 503 2743 
Q 731 3256 1154 3653 
Q 1578 4050 1965 4187 
Q 2353 4325 2688 4325 
L 2869 4325 
z
M 925 2138 
Q 869 1716 869 1456 
Q 869 1156 980 804 
Q 1091 453 1309 247 
Q 1469 100 1697 100 
Q 1969 100 2183 356 
Q 2397 613 2397 1088 
Q 2397 1622 2184 2012 
Q 1972 2403 1581 2403 
Q 1463 2403 1327 2353 
Q 1191 2303 925 2138 
z
" id="TimesNewRomanPSMT-36" transform="scale(0.015625)"/>
       </defs>
       <use xlink:href="#TimesNewRomanPSMT-2212"/>
       <use x="56.396484" xlink:href="#TimesNewRomanPSMT-30"/>
       <use x="106.396484" xlink:href="#TimesNewRomanPSMT-2e"/>
       <use x="131.396484" xlink:href="#TimesNewRomanPSMT-30"/>
       <use x="181.396484" xlink:href="#TimesNewRomanPSMT-36"/>
      </g>
     </g>
    </g>
    <g id="ytick_2">
     <g id="line2d_15">
      <path clip-path="url(#p7b68e32a30)" d="M 63.336875 269.432341 
L 398.136875 269.432341 
" style="fill:none;stroke:#000000;stroke-dasharray:0.5,0.825;stroke-dashoffset:0;stroke-width:0.5;"/>
     </g>
     <g id="line2d_16">
      <g>
       <use style="stroke:#000000;stroke-width:0.8;" x="63.336875" xlink:href="#m4e5000ac12" y="269.432341"/>
      </g>
     </g>
     <g id="text_9">
      <!-- −0.04 -->
      <g transform="translate(23.942188 274.292966)scale(0.14 -0.14)">
       <use xlink:href="#TimesNewRomanPSMT-2212"/>
       <use x="56.396484" xlink:href="#TimesNewRomanPSMT-30"/>
       <use x="106.396484" xlink:href="#TimesNewRomanPSMT-2e"/>
       <use x="131.396484" xlink:href="#TimesNewRomanPSMT-30"/>
       <use x="181.396484" xlink:href="#TimesNewRomanPSMT-34"/>
      </g>
     </g>
    </g>
    <g id="ytick_3">
     <g id="line2d_17">
      <path clip-path="url(#p7b68e32a30)" d="M 63.336875 212.55978 
L 398.136875 212.55978 
" style="fill:none;stroke:#000000;stroke-dasharray:0.5,0.825;stroke-dashoffset:0;stroke-width:0.5;"/>
     </g>
     <g id="line2d_18">
      <g>
       <use style="stroke:#000000;stroke-width:0.8;" x="63.336875" xlink:href="#m4e5000ac12" y="212.55978"/>
      </g>
     </g>
     <g id="text_10">
      <!-- −0.02 -->
      <g transform="translate(23.942188 217.420405)scale(0.14 -0.14)">
       <use xlink:href="#TimesNewRomanPSMT-2212"/>
       <use x="56.396484" xlink:href="#TimesNewRomanPSMT-30"/>
       <use x="106.396484" xlink:href="#TimesNewRomanPSMT-2e"/>
       <use x="131.396484" xlink:href="#TimesNewRomanPSMT-30"/>
       <use x="181.396484" xlink:href="#TimesNewRomanPSMT-32"/>
      </g>
     </g>
    </g>
    <g id="ytick_4">
     <g id="line2d_19">
      <path clip-path="url(#p7b68e32a30)" d="M 63.336875 155.687219 
L 398.136875 155.687219 
" style="fill:none;stroke:#000000;stroke-dasharray:0.5,0.825;stroke-dashoffset:0;stroke-width:0.5;"/>
     </g>
     <g id="line2d_20">
      <g>
       <use style="stroke:#000000;stroke-width:0.8;" x="63.336875" xlink:href="#m4e5000ac12" y="155.687219"/>
      </g>
     </g>
     <g id="text_11">
      <!-- 0.00 -->
      <g transform="translate(31.836875 160.547844)scale(0.14 -0.14)">
       <use xlink:href="#TimesNewRomanPSMT-30"/>
       <use x="50" xlink:href="#TimesNewRomanPSMT-2e"/>
       <use x="75" xlink:href="#TimesNewRomanPSMT-30"/>
       <use x="125" xlink:href="#TimesNewRomanPSMT-30"/>
      </g>
     </g>
    </g>
    <g id="ytick_5">
     <g id="line2d_21">
      <path clip-path="url(#p7b68e32a30)" d="M 63.336875 98.814658 
L 398.136875 98.814658 
" style="fill:none;stroke:#000000;stroke-dasharray:0.5,0.825;stroke-dashoffset:0;stroke-width:0.5;"/>
     </g>
     <g id="line2d_22">
      <g>
       <use style="stroke:#000000;stroke-width:0.8;" x="63.336875" xlink:href="#m4e5000ac12" y="98.814658"/>
      </g>
     </g>
     <g id="text_12">
      <!-- 0.02 -->
      <g transform="translate(31.836875 103.675283)scale(0.14 -0.14)">
       <use xlink:href="#TimesNewRomanPSMT-30"/>
       <use x="50" xlink:href="#TimesNewRomanPSMT-2e"/>
       <use x="75" xlink:href="#TimesNewRomanPSMT-30"/>
       <use x="125" xlink:href="#TimesNewRomanPSMT-32"/>
      </g>
     </g>
    </g>
    <g id="ytick_6">
     <g id="line2d_23">
      <path clip-path="url(#p7b68e32a30)" d="M 63.336875 41.942097 
L 398.136875 41.942097 
" style="fill:none;stroke:#000000;stroke-dasharray:0.5,0.825;stroke-dashoffset:0;stroke-width:0.5;"/>
     </g>
     <g id="line2d_24">
      <g>
       <use style="stroke:#000000;stroke-width:0.8;" x="63.336875" xlink:href="#m4e5000ac12" y="41.942097"/>
      </g>
     </g>
     <g id="text_13">
      <!-- 0.04 -->
      <g transform="translate(31.836875 46.802722)scale(0.14 -0.14)">
       <use xlink:href="#TimesNewRomanPSMT-30"/>
       <use x="50" xlink:href="#TimesNewRomanPSMT-2e"/>
       <use x="75" xlink:href="#TimesNewRomanPSMT-30"/>
       <use x="125" xlink:href="#TimesNewRomanPSMT-34"/>
      </g>
     </g>
    </g>
    <g id="text_14">
     <!-- Volatage (V) -->
     <g transform="translate(16.92125 209.352344)rotate(-90)scale(0.14 -0.14)">
      <defs>
       <path d="M 4544 4238 
L 4544 4122 
Q 4319 4081 4203 3978 
Q 4038 3825 3909 3509 
L 2431 -97 
L 2316 -97 
L 728 3556 
Q 606 3838 556 3900 
Q 478 3997 364 4051 
Q 250 4106 56 4122 
L 56 4238 
L 1788 4238 
L 1788 4122 
Q 1494 4094 1406 4022 
Q 1319 3950 1319 3838 
Q 1319 3681 1463 3350 
L 2541 866 
L 3541 3319 
Q 3688 3681 3688 3822 
Q 3688 3913 3597 3995 
Q 3506 4078 3291 4113 
Q 3275 4116 3238 4122 
L 3238 4238 
L 4544 4238 
z
" id="TimesNewRomanPSMT-56" transform="scale(0.015625)"/>
       <path d="M 1600 2947 
Q 2250 2947 2644 2453 
Q 2978 2031 2978 1484 
Q 2978 1100 2793 706 
Q 2609 313 2286 112 
Q 1963 -88 1566 -88 
Q 919 -88 538 428 
Q 216 863 216 1403 
Q 216 1797 411 2186 
Q 606 2575 925 2761 
Q 1244 2947 1600 2947 
z
M 1503 2744 
Q 1338 2744 1170 2645 
Q 1003 2547 900 2300 
Q 797 2053 797 1666 
Q 797 1041 1045 587 
Q 1294 134 1700 134 
Q 2003 134 2200 384 
Q 2397 634 2397 1244 
Q 2397 2006 2069 2444 
Q 1847 2744 1503 2744 
z
" id="TimesNewRomanPSMT-6f" transform="scale(0.015625)"/>
       <path d="M 1184 4444 
L 1184 647 
Q 1184 378 1223 290 
Q 1263 203 1344 158 
Q 1425 113 1647 113 
L 1647 0 
L 244 0 
L 244 113 
Q 441 113 512 153 
Q 584 194 625 287 
Q 666 381 666 647 
L 666 3247 
Q 666 3731 644 3842 
Q 622 3953 573 3993 
Q 525 4034 450 4034 
Q 369 4034 244 3984 
L 191 4094 
L 1044 4444 
L 1184 4444 
z
" id="TimesNewRomanPSMT-6c" transform="scale(0.015625)"/>
       <path d="M 1822 413 
Q 1381 72 1269 19 
Q 1100 -59 909 -59 
Q 613 -59 420 144 
Q 228 347 228 678 
Q 228 888 322 1041 
Q 450 1253 767 1440 
Q 1084 1628 1822 1897 
L 1822 2009 
Q 1822 2438 1686 2597 
Q 1550 2756 1291 2756 
Q 1094 2756 978 2650 
Q 859 2544 859 2406 
L 866 2225 
Q 866 2081 792 2003 
Q 719 1925 600 1925 
Q 484 1925 411 2006 
Q 338 2088 338 2228 
Q 338 2497 613 2722 
Q 888 2947 1384 2947 
Q 1766 2947 2009 2819 
Q 2194 2722 2281 2516 
Q 2338 2381 2338 1966 
L 2338 994 
Q 2338 584 2353 492 
Q 2369 400 2405 369 
Q 2441 338 2488 338 
Q 2538 338 2575 359 
Q 2641 400 2828 588 
L 2828 413 
Q 2478 -56 2159 -56 
Q 2006 -56 1915 50 
Q 1825 156 1822 413 
z
M 1822 616 
L 1822 1706 
Q 1350 1519 1213 1441 
Q 966 1303 859 1153 
Q 753 1003 753 825 
Q 753 600 887 451 
Q 1022 303 1197 303 
Q 1434 303 1822 616 
z
" id="TimesNewRomanPSMT-61" transform="scale(0.015625)"/>
       <path d="M 1031 3803 
L 1031 2863 
L 1700 2863 
L 1700 2644 
L 1031 2644 
L 1031 788 
Q 1031 509 1111 412 
Q 1191 316 1316 316 
Q 1419 316 1516 380 
Q 1613 444 1666 569 
L 1788 569 
Q 1678 263 1478 108 
Q 1278 -47 1066 -47 
Q 922 -47 784 33 
Q 647 113 581 261 
Q 516 409 516 719 
L 516 2644 
L 63 2644 
L 63 2747 
Q 234 2816 414 2980 
Q 594 3144 734 3369 
Q 806 3488 934 3803 
L 1031 3803 
z
" id="TimesNewRomanPSMT-74" transform="scale(0.015625)"/>
       <path d="M 966 1044 
Q 703 1172 562 1401 
Q 422 1631 422 1909 
Q 422 2334 742 2640 
Q 1063 2947 1563 2947 
Q 1972 2947 2272 2747 
L 2878 2747 
Q 3013 2747 3034 2739 
Q 3056 2731 3066 2713 
Q 3084 2684 3084 2613 
Q 3084 2531 3069 2500 
Q 3059 2484 3036 2475 
Q 3013 2466 2878 2466 
L 2506 2466 
Q 2681 2241 2681 1891 
Q 2681 1491 2375 1206 
Q 2069 922 1553 922 
Q 1341 922 1119 984 
Q 981 866 932 777 
Q 884 688 884 625 
Q 884 572 936 522 
Q 988 472 1138 450 
Q 1225 438 1575 428 
Q 2219 413 2409 384 
Q 2700 344 2873 169 
Q 3047 -6 3047 -263 
Q 3047 -616 2716 -925 
Q 2228 -1381 1444 -1381 
Q 841 -1381 425 -1109 
Q 191 -953 191 -784 
Q 191 -709 225 -634 
Q 278 -519 444 -313 
Q 466 -284 763 25 
Q 600 122 533 198 
Q 466 275 466 372 
Q 466 481 555 628 
Q 644 775 966 1044 
z
M 1509 2797 
Q 1278 2797 1122 2612 
Q 966 2428 966 2047 
Q 966 1553 1178 1281 
Q 1341 1075 1591 1075 
Q 1828 1075 1981 1253 
Q 2134 1431 2134 1813 
Q 2134 2309 1919 2591 
Q 1759 2797 1509 2797 
z
M 934 0 
Q 788 -159 713 -296 
Q 638 -434 638 -550 
Q 638 -700 819 -813 
Q 1131 -1006 1722 -1006 
Q 2284 -1006 2551 -807 
Q 2819 -609 2819 -384 
Q 2819 -222 2659 -153 
Q 2497 -84 2016 -72 
Q 1313 -53 934 0 
z
" id="TimesNewRomanPSMT-67" transform="scale(0.015625)"/>
      </defs>
      <use xlink:href="#TimesNewRomanPSMT-56"/>
      <use x="59.341797" xlink:href="#TimesNewRomanPSMT-6f"/>
      <use x="109.341797" xlink:href="#TimesNewRomanPSMT-6c"/>
      <use x="137.125" xlink:href="#TimesNewRomanPSMT-61"/>
      <use x="181.509766" xlink:href="#TimesNewRomanPSMT-74"/>
      <use x="209.292969" xlink:href="#TimesNewRomanPSMT-61"/>
      <use x="253.677734" xlink:href="#TimesNewRomanPSMT-67"/>
      <use x="303.677734" xlink:href="#TimesNewRomanPSMT-65"/>
      <use x="348.0625" xlink:href="#TimesNewRomanPSMT-20"/>
      <use x="373.0625" xlink:href="#TimesNewRomanPSMT-28"/>
      <use x="406.363281" xlink:href="#TimesNewRomanPSMT-56"/>
      <use x="478.580078" xlink:href="#TimesNewRomanPSMT-29"/>
     </g>
    </g>
   </g>
   <g id="LineCollection_1">
    <path clip-path="url(#p7b68e32a30)" d="M 78.555057 155.687219 
L 382.918693 155.687219 
" style="fill:none;stroke:#1f77b4;stroke-width:1.5;"/>
   </g>
   <g id="line2d_25">
    <path clip-path="url(#p7b68e32a30)" d="M 78.555057 155.630773 
L 78.676802 155.630773 
L 84.124911 155.701864 
L 84.155348 155.772954 
L 84.21622 155.737409 
L 84.277093 155.701864 
L 84.30753 155.772954 
L 108.41313 155.87959 
L 108.534875 155.87959 
L 111.030657 155.950681 
L 111.152402 155.986226 
L 111.304584 155.950681 
L 111.487202 156.021772 
L 111.608948 156.021772 
L 113.43513 156.128408 
L 113.617748 156.199498 
L 114.34822 156.306135 
L 114.530839 156.377225 
L 114.652584 156.306135 
L 114.77433 156.448316 
L 114.865639 156.448316 
L 115.048257 156.519407 
L 115.078693 156.448316 
L 115.10913 156.554952 
L 115.139566 156.519407 
L 115.291748 156.590497 
L 115.413493 156.590497 
L 115.565675 156.661588 
L 115.68742 156.626043 
L 115.839602 156.732679 
L 115.961348 156.732679 
L 116.11353 156.80377 
L 116.143966 156.768224 
L 116.204839 156.839315 
L 116.844002 156.945951 
L 116.965748 157.017042 
L 116.996184 156.981496 
L 117.391857 157.088132 
L 117.544039 157.159223 
L 117.604911 157.088132 
L 117.665784 157.159223 
L 117.78753 157.159223 
L 117.817966 157.123678 
L 117.878839 157.194768 
L 118.639748 157.301404 
L 118.761493 157.33695 
L 118.852802 157.33695 
L 118.974548 157.372495 
L 119.065857 157.372495 
L 119.218039 157.40804 
L 119.674584 157.479131 
L 119.79633 157.514676 
L 119.948511 157.550222 
L 120.496366 157.621313 
L 120.648548 157.727949 
L 120.739857 157.692403 
L 120.770293 157.727949 
L 121.04422 157.834585 
L 121.287711 157.976766 
L 121.561639 158.083402 
L 122.018184 158.509946 
L 122.04862 158.474401 
L 122.079057 158.509946 
L 122.261675 158.723218 
L 122.38342 158.794309 
L 122.566039 159.007581 
L 122.657348 159.078672 
L 122.900839 159.39858 
L 123.661748 160.429395 
L 124.118293 161.246938 
L 124.300911 161.566846 
L 124.574839 162.135572 
L 124.72702 162.45548 
L 125.792293 165.192472 
L 128.16633 173.901083 
L 129.444657 179.375067 
L 129.931639 181.436698 
L 130.357748 183.320602 
L 131.362148 187.23059 
L 131.84913 189.007857 
L 132.18393 190.003127 
L 132.42742 190.678489 
L 133.218766 192.278029 
L 133.249202 192.242484 
L 133.279639 192.313575 
L 133.736184 192.704574 
L 133.949239 192.81121 
L 134.223166 192.988936 
L 134.253602 192.953391 
L 134.314475 193.024482 
L 134.497093 193.095572 
L 135.166693 192.988936 
L 135.44062 192.81121 
L 135.592802 192.740119 
L 135.86673 192.34912 
L 136.049348 191.993667 
L 136.597202 190.500762 
L 137.145057 188.439132 
L 137.571166 186.555228 
L 139.762584 173.15463 
L 142.13662 149.943517 
L 143.414948 135.334378 
L 148.802184 67.513843 
L 150.658802 49.101357 
L 152.089311 39.859569 
L 153.093711 35.594118 
L 153.154584 35.416394 
L 153.550257 34.385576 
L 154.18942 33.71022 
L 154.219857 33.74576 
L 154.341602 33.74576 
L 154.554657 33.852405 
L 155.072075 34.563312 
L 156.28953 39.184202 
L 157.172184 44.978091 
L 158.237457 54.539799 
L 159.576657 71.388295 
L 161.524584 102.59711 
L 163.716002 145.606983 
L 164.99433 173.190176 
L 169.559784 266.923268 
L 170.898984 288.463742 
L 172.207748 305.276699 
L 173.212148 314.660671 
L 173.729566 318.037477 
L 174.916584 323.120471 
L 175.647057 324.577827 
L 175.890548 324.72 
L 176.073166 324.613367 
L 176.773202 323.653642 
L 177.473239 321.805287 
L 178.538511 316.366845 
L 179.451602 309.22223 
L 181.034293 293.404552 
L 182.190875 278.653231 
L 183.347457 260.951644 
L 185.630184 221.816216 
L 188.247711 174.967443 
L 192.630548 105.12083 
L 193.939311 89.729693 
L 196.648148 65.381128 
L 197.226439 61.400046 
L 197.530802 59.231779 
L 199.356984 51.198533 
L 199.72222 50.132175 
L 200.178766 48.461541 
L 201.457093 45.689001 
L 201.517966 45.582367 
L 201.913639 45.22692 
L 202.06582 45.262459 
L 202.583239 45.155826 
L 202.796293 45.049184 
L 203.222402 45.120275 
L 203.40502 45.297999 
L 203.557202 45.404644 
L 203.770257 45.582367 
L 203.800693 45.546828 
L 204.105057 45.653458 
L 204.226802 45.724552 
L 204.348548 45.831185 
L 204.683348 46.364368 
L 204.865966 46.790909 
L 205.018148 47.110818 
L 206.144293 49.9189 
L 206.387784 50.73644 
L 206.874766 52.122718 
L 208.42702 57.952147 
L 209.09662 61.222322 
L 209.553166 63.17731 
L 210.405384 67.513843 
L 211.10542 70.321931 
L 211.653275 72.916745 
L 212.231566 75.298281 
L 212.992475 79.101633 
L 214.362111 85.997431 
L 218.13622 108.639822 
L 218.623202 111.767813 
L 219.56673 117.917156 
L 220.175457 122.040417 
L 220.418948 123.675503 
L 220.875493 126.945675 
L 221.727711 133.023929 
L 222.427748 138.640096 
L 222.945166 142.905537 
L 224.527857 156.732679 
L 226.354039 174.789716 
L 226.962766 181.187879 
L 228.088911 194.161933 
L 229.549857 211.508064 
L 229.975966 216.484413 
L 233.354402 254.731213 
L 233.902257 260.098561 
L 235.30233 272.183972 
L 236.367602 278.937597 
L 236.702402 280.50159 
L 237.189384 282.349945 
L 237.280693 282.598762 
L 237.585057 283.096394 
L 237.737239 283.203039 
L 237.950293 283.451854 
L 238.437275 283.913946 
L 238.589457 283.878395 
L 238.772075 283.771762 
L 239.015566 283.451854 
L 239.532984 282.740947 
L 240.689566 278.333323 
L 242.759239 263.084368 
L 244.828911 242.716882 
L 245.498511 234.541451 
L 246.837711 215.91569 
L 248.237784 194.801749 
L 249.69873 172.728087 
L 251.494475 147.135434 
L 252.529311 134.161381 
L 253.95982 118.699154 
L 255.177275 108.319914 
L 256.607784 99.07812 
L 257.368693 95.985675 
L 259.255748 91.826869 
L 259.347057 91.755775 
L 259.590548 91.435873 
L 260.503639 90.440603 
L 260.534075 90.511688 
L 260.594948 90.440603 
L 260.716693 90.405055 
L 261.112366 90.333964 
L 261.173239 90.262873 
L 261.234111 90.298419 
L 261.721093 90.405055 
L 262.116766 90.724963 
L 262.147202 90.689417 
L 262.177639 90.760511 
L 263.395093 92.288958 
L 263.577711 92.608866 
L 263.66902 92.7155 
L 264.00382 93.284231 
L 264.064693 93.31977 
L 264.277748 93.675224 
L 264.521239 94.101771 
L 265.160402 95.345858 
L 265.464766 95.84349 
L 265.76913 96.518855 
L 265.921311 96.838763 
L 267.138766 99.931206 
L 268.630148 104.800922 
L 268.69102 105.014194 
L 270.821566 112.834171 
L 271.278111 114.895801 
L 271.612911 116.424251 
L 272.70862 122.182598 
L 275.843566 136.329648 
L 277.669748 143.083264 
L 277.974111 144.256261 
L 278.187166 145.002713 
L 279.617675 149.623608 
L 280.104657 151.009877 
L 280.469893 151.898511 
L 282.356948 156.057317 
L 282.570002 156.412771 
L 282.783057 156.80377 
L 283.970075 158.047857 
L 284.061384 158.047857 
L 284.213566 158.154493 
L 284.244002 158.118947 
L 284.913602 158.225583 
L 285.035348 158.225583 
L 285.248402 158.118947 
L 285.461457 158.012311 
L 285.674511 157.763494 
L 285.796257 157.692403 
L 286.10062 157.230314 
L 286.52673 156.590497 
L 286.800657 156.021772 
L 288.474657 151.862966 
L 288.748584 151.045423 
L 290.818257 146.460072 
L 290.909566 146.388982 
L 291.153057 145.926892 
L 291.579166 145.464802 
L 291.609602 145.535893 
L 292.766184 145.642529 
L 292.948802 145.891347 
L 293.679275 146.851071 
L 293.922766 147.313161 
L 294.105384 147.668614 
L 294.622802 149.090428 
L 294.927166 150.014607 
L 295.931566 153.924596 
L 297.48382 161.673482 
L 298.062111 164.943655 
L 298.427348 167.147466 
L 299.523057 174.043265 
L 300.101348 178.05989 
L 301.83622 189.434401 
L 302.140584 191.35385 
L 302.84062 196.188018 
L 303.753711 202.124091 
L 304.240693 205.216537 
L 305.823384 213.818509 
L 306.736475 217.621864 
L 307.010402 218.510495 
L 307.466948 219.719043 
L 308.653966 222.278302 
L 308.684402 222.242757 
L 308.745275 222.313851 
L 308.988766 222.669304 
L 309.019202 222.633759 
L 309.049639 222.704849 
L 309.262693 222.953667 
L 309.475748 223.131397 
L 309.506184 223.095851 
L 309.96273 222.989212 
L 310.327966 222.704849 
L 310.480148 222.598211 
L 310.723639 222.278302 
L 310.906257 221.958394 
L 311.423675 220.501038 
L 311.484548 220.323314 
L 312.275893 217.195323 
L 312.671566 215.169235 
L 313.432475 211.117065 
L 314.406439 204.789993 
L 321.650293 146.460072 
L 322.198148 142.621175 
L 325.333093 121.436146 
L 325.911384 118.237064 
L 326.824475 113.545078 
L 328.802839 104.800922 
L 329.95942 101.139748 
L 331.359493 98.08285 
L 331.420366 98.011757 
L 331.694293 97.407486 
L 332.05953 96.838763 
L 332.424766 96.234492 
L 333.003057 95.416949 
L 333.216111 95.168134 
L 333.246548 95.203674 
L 333.276984 95.097041 
L 333.581348 94.990405 
L 333.763966 94.919311 
L 333.794402 94.990405 
L 333.855275 94.954859 
L 333.946584 94.883766 
L 333.97702 94.919311 
L 334.129202 94.883766 
L 334.585748 94.990405 
L 334.950984 95.310313 
L 335.011857 95.274768 
L 335.042293 95.310313 
L 335.377093 95.594676 
L 335.40753 95.559128 
L 335.468402 95.630221 
L 335.65102 95.736857 
L 335.803202 95.84349 
L 336.868475 97.229762 
L 337.08153 97.656309 
L 337.142402 97.727394 
L 338.633784 101.459656 
L 342.194839 114.327076 
L 343.77753 121.258419 
L 343.868839 121.684963 
L 346.608111 134.978925 
L 349.499566 151.223149 
L 350.38222 155.8085 
L 350.838766 158.225583 
L 351.47793 161.353574 
L 351.599675 161.886755 
L 352.086657 163.98393 
L 352.695384 166.329923 
L 352.908439 167.076376 
L 353.334548 168.604826 
L 353.608475 169.493459 
L 353.943275 170.559821 
L 354.278075 171.590635 
L 354.643311 172.834722 
L 354.73462 173.08354 
L 356.16513 177.704435 
L 356.439057 178.59307 
L 358.204366 184.386962 
L 358.539166 185.417776 
L 359.391384 188.012587 
L 359.84793 189.29222 
L 360.18273 190.394126 
L 360.274039 190.607398 
L 360.51753 191.28276 
L 361.76542 193.948661 
L 362.252402 194.659568 
L 362.495893 195.121657 
L 362.587202 195.228293 
L 362.800257 195.512656 
L 362.86113 195.619292 
L 363.348111 196.045837 
L 363.500293 196.116927 
L 363.682911 196.330199 
L 363.804657 196.40129 
L 363.956839 196.543471 
L 364.20033 196.650107 
L 364.352511 196.756744 
L 364.565566 196.827834 
L 364.717748 196.970016 
L 364.748184 196.93447 
L 364.809057 197.005561 
L 365.082984 197.218833 
L 365.20473 197.218833 
L 365.478657 197.39656 
L 365.752584 197.467651 
L 365.904766 197.574287 
L 365.996075 197.574287 
L 366.178693 197.645377 
L 366.574366 197.752013 
L 366.756984 197.823104 
L 366.78742 197.787559 
L 366.817857 197.858649 
L 367.030911 197.965285 
L 367.152657 197.965285 
L 368.004875 198.071922 
L 368.187493 198.143012 
L 370.591966 198.036376 
L 370.774584 197.965285 
L 371.048511 197.858649 
L 371.292002 197.716468 
L 371.505057 197.609832 
L 371.687675 197.538741 
L 371.992039 197.432105 
L 372.205093 197.325469 
L 372.326839 197.289924 
L 372.47902 197.147742 
L 372.722511 197.041106 
L 372.935566 196.93447 
L 373.209493 196.827834 
L 373.392111 196.650107 
L 373.48342 196.650107 
L 373.879093 196.330199 
L 373.970402 196.259109 
L 374.183457 196.010291 
L 375.431348 194.41075 
L 375.857457 193.664298 
L 376.16182 193.166663 
L 378.84022 186.661864 
L 379.17502 185.595503 
L 379.388075 184.884597 
L 379.722875 183.818237 
L 380.879457 179.375067 
L 382.918693 170.239913 
L 382.918693 170.239913 
" style="fill:none;stroke:#0000ff;stroke-linecap:square;stroke-width:1.5;"/>
   </g>
   <g id="line2d_26">
    <path clip-path="url(#p7b68e32a30)" d="M 78.555057 155.615062 
L 78.737675 155.597289 
L 82.237857 155.703925 
L 82.450911 155.703925 
L 92.707966 155.792789 
L 92.829711 155.810561 
L 93.073202 155.775016 
L 93.286257 155.792789 
L 93.499311 155.775016 
L 93.742802 155.792789 
L 99.221348 155.881652 
L 99.37353 155.899425 
L 99.647457 155.93497 
L 99.830075 155.93497 
L 100.073566 155.970515 
L 100.225748 155.988288 
L 100.590984 156.077152 
L 100.925784 156.183788 
L 102.021493 156.912467 
L 102.234548 157.179057 
L 102.447602 157.427875 
L 102.995457 158.227645 
L 103.938984 160.076003 
L 105.947784 166.278667 
L 106.800002 169.655475 
L 110.391493 183.873617 
L 111.061093 185.82861 
L 111.639384 187.197106 
L 111.852439 187.588105 
L 112.33942 188.458966 
L 113.282948 189.400918 
L 113.556875 189.454236 
L 113.76993 189.436463 
L 113.952548 189.41869 
L 114.196039 189.276509 
L 114.287348 189.223191 
L 114.896075 188.35233 
L 116.204839 185.028839 
L 116.509202 183.820298 
L 117.574475 179.003902 
L 118.670184 172.67683 
L 120.46593 160.467002 
L 125.518366 120.051939 
L 128.16633 105.247303 
L 128.562002 103.487808 
L 129.383784 100.164315 
L 129.870766 98.795822 
L 130.053384 98.42259 
L 130.814293 96.87637 
L 130.936039 96.69864 
L 131.240402 96.378732 
L 132.062184 95.276829 
L 132.457857 94.601468 
L 134.162293 93.712834 
L 134.43622 93.872788 
L 134.557966 93.926103 
L 134.801457 93.943881 
L 135.044948 93.855018 
L 135.258002 93.730604 
L 135.410184 93.695064 
L 135.684111 93.766149 
L 135.927602 93.997197 
L 136.049348 94.08606 
L 136.292839 94.228241 
L 136.992875 94.334875 
L 137.388548 94.814737 
L 137.905966 95.578962 
L 138.514693 96.823055 
L 139.306039 99.986585 
L 139.853893 102.279266 
L 141.46702 110.312513 
L 143.536693 124.299608 
L 146.123784 144.77373 
L 151.26753 191.800229 
L 152.150184 199.335843 
L 153.398075 208.6665 
L 155.163384 218.31706 
L 155.772111 220.360918 
L 157.050439 223.080137 
L 157.29393 223.328955 
L 157.446111 223.435591 
L 158.024402 223.666638 
L 158.511384 223.275637 
L 159.028802 222.582505 
L 159.63753 221.711641 
L 160.063639 220.769687 
L 161.524584 216.184339 
L 163.624693 205.858418 
L 164.111675 202.712651 
L 166.059602 188.281239 
L 167.794475 174.987278 
L 168.798875 168.713524 
L 171.051166 158.707507 
L 171.842511 156.716968 
L 172.35993 156.023833 
L 172.664293 155.93497 
L 172.877348 155.846107 
L 173.27302 155.739471 
L 173.94262 156.237105 
L 174.460039 156.93024 
L 174.886148 157.570056 
L 175.403566 159.045188 
L 176.590584 163.559448 
L 178.234148 172.74792 
L 179.695093 182.202983 
L 180.577748 187.179333 
L 183.925748 204.187783 
L 184.564911 206.33828 
L 184.869275 207.08473 
L 185.264948 207.742321 
L 185.782366 208.186638 
L 186.025857 208.204408 
L 186.391093 207.86673 
L 187.273748 206.125005 
L 188.521639 201.379701 
L 189.34342 197.078713 
L 190.804366 186.059656 
L 192.843602 165.994305 
L 198.504766 107.646608 
L 199.47873 98.156003 
L 201.457093 79.58356 
L 203.374584 66.929412 
L 204.439857 61.348786 
L 205.535566 58.451849 
L 205.83993 58.380755 
L 206.50953 58.896166 
L 207.331311 59.998072 
L 208.822693 63.748106 
L 210.679311 71.781353 
L 211.86633 78.570512 
L 216.705711 113.262774 
L 220.327639 139.92179 
L 222.458184 152.895843 
L 223.219093 156.948013 
L 225.16702 167.664936 
L 226.567093 174.47187 
L 226.93233 176.106957 
L 227.60193 179.039448 
L 229.85422 187.801377 
L 230.249893 188.992146 
L 231.102111 191.604729 
L 231.61953 193.079861 
L 236.611093 210.177175 
L 238.376402 214.033843 
L 238.772075 214.531481 
L 239.928657 215.082436 
L 240.32433 215.189069 
L 240.750439 215.313475 
L 241.146111 215.420114 
L 241.541784 215.526753 
L 243.459275 215.633384 
L 244.128875 216.148794 
L 246.168111 218.672514 
L 246.411602 219.063513 
L 246.959457 219.845508 
L 247.294257 220.378694 
L 247.659493 220.965186 
L 247.994293 221.605005 
L 248.207348 221.996004 
L 248.542148 222.63582 
L 248.93782 223.257861 
L 249.333493 223.915453 
L 249.576984 224.35977 
L 249.911784 224.999586 
L 251.129239 227.345577 
L 251.981457 229.069526 
L 252.37713 229.691573 
L 252.833675 230.278074 
L 254.507675 231.131159 
L 254.842475 231.024523 
L 255.451202 230.562436 
L 256.516475 228.483031 
L 257.73393 224.590818 
L 258.951384 218.388151 
L 259.834039 212.007761 
L 260.564511 205.645143 
L 261.903711 191.284821 
L 263.151602 174.66737 
L 265.951748 130.484499 
L 269.02582 78.552742 
L 270.334584 59.607073 
L 271.399857 46.792965 
L 272.921675 32.77033 
L 273.926075 26.478806 
L 274.413057 24.452713 
L 275.021784 22.995356 
L 275.47833 22.391091 
L 275.752257 22.35554 
L 276.634911 23.528539 
L 277.213202 25.110307 
L 277.974111 28.664837 
L 278.704584 33.090238 
L 279.617675 40.234851 
L 280.987311 53.191131 
L 282.113457 65.472056 
L 283.604839 83.209183 
L 285.217966 103.381169 
L 289.996475 160.644729 
L 291.761784 179.003902 
L 292.979239 190.627232 
L 294.47062 202.712651 
L 295.079348 206.924775 
L 297.24033 220.12987 
L 297.605566 222.067095 
L 298.701275 227.256716 
L 299.462184 230.313613 
L 300.16222 232.712927 
L 301.044875 234.97006 
L 301.25793 235.361056 
L 301.59273 235.894239 
L 301.744911 236.089733 
L 302.353639 236.942827 
L 302.688439 237.173866 
L 303.114548 237.067233 
L 303.753711 236.160826 
L 304.058075 235.414377 
L 304.60593 233.47715 
L 305.153784 231.148932 
L 305.51902 229.478303 
L 306.797348 222.671366 
L 307.52782 218.245967 
L 310.480148 198.589391 
L 311.241057 193.613042 
L 311.849784 189.436463 
L 312.793311 183.109392 
L 313.341166 179.25272 
L 314.162948 173.423283 
L 316.99353 155.952743 
L 319.032766 146.941996 
L 320.219784 143.138644 
L 320.432839 142.569918 
L 321.406802 140.028426 
L 321.802475 139.406382 
L 322.25902 138.606612 
L 322.380766 138.411112 
L 322.837311 137.806841 
L 323.26342 137.433615 
L 323.567784 137.113707 
L 324.633057 136.029574 
L 324.93742 135.727437 
L 326.27662 133.594717 
L 326.428802 133.381444 
L 327.311457 132.048495 
L 327.737566 131.390905 
L 328.894148 128.956049 
L 329.28982 128.049643 
L 330.142039 125.899149 
L 330.781202 124.139654 
L 332.698693 118.878942 
L 333.39873 116.977266 
L 334.40313 114.382455 
L 335.285784 112.587418 
L 335.590148 112.072007 
L 335.894511 111.627693 
L 336.472802 110.792375 
L 336.838039 110.188104 
L 338.298984 108.641881 
L 338.42073 108.588563 
L 338.877275 108.446379 
L 339.272948 108.553018 
L 340.307784 109.263925 
L 341.525239 111.592145 
L 343.534039 117.777036 
L 344.568875 122.469022 
L 345.36022 127.178781 
L 347.673384 142.623237 
L 348.312548 147.013086 
L 354.430257 192.653317 
L 355.008548 196.687715 
L 356.49993 206.37382 
L 357.808693 212.683122 
L 359.239202 218.086013 
L 359.969675 219.525599 
L 360.639275 220.147646 
L 360.943639 220.200964 
L 361.826293 220.112101 
L 362.069784 219.987692 
L 362.374148 219.703329 
L 362.86113 219.063513 
L 363.287239 218.405921 
L 364.20033 216.006615 
L 365.11342 213.003033 
L 366.665675 206.196096 
L 369.191893 189.258736 
L 370.044111 181.954167 
L 374.640002 140.046199 
L 377.988002 115.431043 
L 379.722875 105.940434 
L 381.396875 99.542268 
L 382.918693 96.094369 
L 382.918693 96.094369 
" style="fill:none;stroke:#ff0000;stroke-linecap:square;stroke-width:1.5;"/>
   </g>
   <g id="line2d_27">
    <path clip-path="url(#p7b68e32a30)" d="M 125.427057 164.161657 
" style="fill:none;stroke:#ffffff;stroke-linecap:square;stroke-width:1.5;"/>
    <defs>
     <path d="M 0 -5 
L -1.12257 -1.545085 
L -4.755283 -1.545085 
L -1.816356 0.59017 
L -2.938926 4.045085 
L -0 1.90983 
L 2.938926 4.045085 
L 1.816356 0.59017 
L 4.755283 -1.545085 
L 1.12257 -1.545085 
z
" id="mb0f54dc5df" style="stroke:#ffffff;stroke-linejoin:bevel;"/>
    </defs>
    <g clip-path="url(#p7b68e32a30)">
     <use style="fill:#0000ff;stroke:#ffffff;stroke-linejoin:bevel;" x="125.427057" xlink:href="#mb0f54dc5df" y="164.161657"/>
    </g>
   </g>
   <g id="line2d_28">
    <path clip-path="url(#p7b68e32a30)" d="M 104.821639 162.404224 
" style="fill:none;stroke:#ffffff;stroke-linecap:square;stroke-width:1.5;"/>
    <defs>
     <path d="M 0 -5 
L -1.12257 -1.545085 
L -4.755283 -1.545085 
L -1.816356 0.59017 
L -2.938926 4.045085 
L -0 1.90983 
L 2.938926 4.045085 
L 1.816356 0.59017 
L 4.755283 -1.545085 
L 1.12257 -1.545085 
z
" id="mdc6557cf02" style="stroke:#ffffff;stroke-linejoin:bevel;"/>
    </defs>
    <g clip-path="url(#p7b68e32a30)">
     <use style="fill:#ff0000;stroke:#ffffff;stroke-linejoin:bevel;" x="104.821639" xlink:href="#mdc6557cf02" y="162.404224"/>
    </g>
   </g>
   <g id="patch_3">
    <path d="M 63.336875 339.84 
L 63.336875 7.2 
" style="fill:none;stroke:#000000;stroke-linecap:square;stroke-linejoin:miter;stroke-width:0.8;"/>
   </g>
   <g id="patch_4">
    <path d="M 398.136875 339.84 
L 398.136875 7.2 
" style="fill:none;stroke:#000000;stroke-linecap:square;stroke-linejoin:miter;stroke-width:0.8;"/>
   </g>
   <g id="patch_5">
    <path d="M 63.336875 339.84 
L 398.136875 339.84 
" style="fill:none;stroke:#000000;stroke-linecap:square;stroke-linejoin:miter;stroke-width:0.8;"/>
   </g>
   <g id="patch_6">
    <path d="M 63.336875 7.2 
L 398.136875 7.2 
" style="fill:none;stroke:#000000;stroke-linecap:square;stroke-linejoin:miter;stroke-width:0.8;"/>
   </g>
   <g id="text_15">
    <g id="patch_7">
     <path d="M 75.036875 331.242688 
L 166.79375 331.242688 
L 166.79375 293.760312 
L 75.036875 293.760312 
z
" style="fill:#ffffff;stroke:#000000;stroke-linejoin:miter;stroke-width:0.75;"/>
    </g>
    <!-- Auto_00097 -->
    <g transform="translate(80.076875 308.521563)scale(0.14 -0.14)">
     <defs>
      <path d="M 2928 1419 
L 1288 1419 
L 1000 750 
Q 894 503 894 381 
Q 894 284 986 211 
Q 1078 138 1384 116 
L 1384 0 
L 50 0 
L 50 116 
Q 316 163 394 238 
Q 553 388 747 847 
L 2238 4334 
L 2347 4334 
L 3822 809 
Q 4000 384 4145 257 
Q 4291 131 4550 116 
L 4550 0 
L 2878 0 
L 2878 116 
Q 3131 128 3220 200 
Q 3309 272 3309 375 
Q 3309 513 3184 809 
L 2928 1419 
z
M 2841 1650 
L 2122 3363 
L 1384 1650 
L 2841 1650 
z
" id="TimesNewRomanPSMT-41" transform="scale(0.015625)"/>
      <path d="M 2709 2863 
L 2709 1128 
Q 2709 631 2732 520 
Q 2756 409 2807 365 
Q 2859 322 2928 322 
Q 3025 322 3147 375 
L 3191 266 
L 2334 -88 
L 2194 -88 
L 2194 519 
Q 1825 119 1631 15 
Q 1438 -88 1222 -88 
Q 981 -88 804 51 
Q 628 191 559 409 
Q 491 628 491 1028 
L 491 2306 
Q 491 2509 447 2587 
Q 403 2666 317 2708 
Q 231 2750 6 2747 
L 6 2863 
L 1009 2863 
L 1009 947 
Q 1009 547 1148 422 
Q 1288 297 1484 297 
Q 1619 297 1789 381 
Q 1959 466 2194 703 
L 2194 2325 
Q 2194 2569 2105 2655 
Q 2016 2741 1734 2747 
L 1734 2863 
L 2709 2863 
z
" id="TimesNewRomanPSMT-75" transform="scale(0.015625)"/>
      <path d="M 3256 -1381 
L -53 -1381 
L -53 -1119 
L 3256 -1119 
L 3256 -1381 
z
" id="TimesNewRomanPSMT-5f" transform="scale(0.015625)"/>
      <path d="M 338 -88 
L 338 28 
Q 744 34 1094 217 
Q 1444 400 1770 856 
Q 2097 1313 2225 1859 
Q 1734 1544 1338 1544 
Q 891 1544 572 1889 
Q 253 2234 253 2806 
Q 253 3363 572 3797 
Q 956 4325 1575 4325 
Q 2097 4325 2469 3894 
Q 2925 3359 2925 2575 
Q 2925 1869 2578 1258 
Q 2231 647 1613 244 
Q 1109 -88 516 -88 
L 338 -88 
z
M 2275 2091 
Q 2331 2497 2331 2741 
Q 2331 3044 2228 3395 
Q 2125 3747 1936 3934 
Q 1747 4122 1506 4122 
Q 1228 4122 1018 3872 
Q 809 3622 809 3128 
Q 809 2469 1088 2097 
Q 1291 1828 1588 1828 
Q 1731 1828 1928 1897 
Q 2125 1966 2275 2091 
z
" id="TimesNewRomanPSMT-39" transform="scale(0.015625)"/>
      <path d="M 644 4238 
L 2916 4238 
L 2916 4119 
L 1503 -88 
L 1153 -88 
L 2419 3728 
L 1253 3728 
Q 900 3728 750 3644 
Q 488 3500 328 3200 
L 238 3234 
L 644 4238 
z
" id="TimesNewRomanPSMT-37" transform="scale(0.015625)"/>
     </defs>
     <use xlink:href="#TimesNewRomanPSMT-41"/>
     <use x="72.216797" xlink:href="#TimesNewRomanPSMT-75"/>
     <use x="122.216797" xlink:href="#TimesNewRomanPSMT-74"/>
     <use x="150" xlink:href="#TimesNewRomanPSMT-6f"/>
     <use x="200" xlink:href="#TimesNewRomanPSMT-5f"/>
     <use x="250" xlink:href="#TimesNewRomanPSMT-30"/>
     <use x="300" xlink:href="#TimesNewRomanPSMT-30"/>
     <use x="350" xlink:href="#TimesNewRomanPSMT-30"/>
     <use x="400" xlink:href="#TimesNewRomanPSMT-39"/>
     <use x="450" xlink:href="#TimesNewRomanPSMT-37"/>
    </g>
    <!-- Vs: 295.26m/s -->
    <g transform="translate(80.076875 323.208)scale(0.14 -0.14)">
     <defs>
      <path d="M 903 2950 
Q 1047 2950 1148 2848 
Q 1250 2747 1250 2603 
Q 1250 2459 1148 2357 
Q 1047 2256 903 2256 
Q 759 2256 657 2357 
Q 556 2459 556 2603 
Q 556 2747 657 2848 
Q 759 2950 903 2950 
z
M 897 609 
Q 1044 609 1145 506 
Q 1247 403 1247 259 
Q 1247 116 1144 14 
Q 1041 -88 897 -88 
Q 753 -88 651 14 
Q 550 116 550 259 
Q 550 403 651 506 
Q 753 609 897 609 
z
" id="TimesNewRomanPSMT-3a" transform="scale(0.015625)"/>
      <path d="M 1794 4444 
L 259 -88 
L 9 -88 
L 1544 4444 
L 1794 4444 
z
" id="TimesNewRomanPSMT-2f" transform="scale(0.015625)"/>
     </defs>
     <use xlink:href="#TimesNewRomanPSMT-56"/>
     <use x="72.216797" xlink:href="#TimesNewRomanPSMT-73"/>
     <use x="111.132812" xlink:href="#TimesNewRomanPSMT-3a"/>
     <use x="138.916016" xlink:href="#TimesNewRomanPSMT-20"/>
     <use x="163.916016" xlink:href="#TimesNewRomanPSMT-32"/>
     <use x="213.916016" xlink:href="#TimesNewRomanPSMT-39"/>
     <use x="263.916016" xlink:href="#TimesNewRomanPSMT-35"/>
     <use x="313.916016" xlink:href="#TimesNewRomanPSMT-2e"/>
     <use x="338.916016" xlink:href="#TimesNewRomanPSMT-32"/>
     <use x="388.916016" xlink:href="#TimesNewRomanPSMT-36"/>
     <use x="438.916016" xlink:href="#TimesNewRomanPSMT-6d"/>
     <use x="516.699219" xlink:href="#TimesNewRomanPSMT-2f"/>
     <use x="544.482422" xlink:href="#TimesNewRomanPSMT-73"/>
    </g>
   </g>
  </g>
 </g>
 <defs>
  <clipPath id="p7b68e32a30">
   <rect height="332.64" width="334.8" x="63.336875" y="7.2"/>
  </clipPath>
 </defs>
</svg>
