<?xml version="1.0" encoding="utf-8" standalone="no"?>
<!DOCTYPE svg PUBLIC "-//W3C//DTD SVG 1.1//EN"
  "http://www.w3.org/Graphics/SVG/1.1/DTD/svg11.dtd">
<svg height="383.471875pt" version="1.1" viewBox="0 0 421.086875 383.471875" width="421.086875pt" xmlns="http://www.w3.org/2000/svg" xmlns:xlink="http://www.w3.org/1999/xlink">
 <metadata>
  <rdf:RDF xmlns:cc="http://creativecommons.org/ns#" xmlns:dc="http://purl.org/dc/elements/1.1/" xmlns:rdf="http://www.w3.org/1999/02/22-rdf-syntax-ns#">
   <cc:Work>
    <dc:type rdf:resource="http://purl.org/dc/dcmitype/StillImage"/>
    <dc:date>2021-06-11T14:39:37.852918</dc:date>
    <dc:format>image/svg+xml</dc:format>
    <dc:creator>
     <cc:Agent>
      <dc:title>Matplotlib v3.4.2, https://matplotlib.org/</dc:title>
     </cc:Agent>
    </dc:creator>
   </cc:Work>
  </rdf:RDF>
 </metadata>
 <defs>
  <style type="text/css">*{stroke-linecap:butt;stroke-linejoin:round;}</style>
 </defs>
 <g id="figure_1">
  <g id="patch_1">
   <path d="M 0 383.471875 
L 421.086875 383.471875 
L 421.086875 0 
L 0 0 
z
" style="fill:#ffffff;"/>
  </g>
  <g id="axes_1">
   <g id="patch_2">
    <path d="M 63.336875 339.84 
L 398.136875 339.84 
L 398.136875 7.2 
L 63.336875 7.2 
z
" style="fill:#ffffff;"/>
   </g>
   <g id="matplotlib.axis_1">
    <g id="xtick_1">
     <g id="line2d_1">
      <path clip-path="url(#p0fce4d687b)" d="M 93.773239 339.84 
L 93.773239 7.2 
" style="fill:none;stroke:#000000;stroke-dasharray:0.5,0.825;stroke-dashoffset:0;stroke-width:0.5;"/>
     </g>
     <g id="line2d_2">
      <defs>
       <path d="M 0 0 
L 0 3.5 
" id="mb6bd80d700" style="stroke:#000000;stroke-width:0.8;"/>
      </defs>
      <g>
       <use style="stroke:#000000;stroke-width:0.8;" x="93.773239" xlink:href="#mb6bd80d700" y="339.84"/>
      </g>
     </g>
     <g id="text_1">
      <!-- 0.000 -->
      <g transform="translate(78.023239 356.56125)scale(0.14 -0.14)">
       <defs>
        <path d="M 231 2094 
Q 231 2819 450 3342 
Q 669 3866 1031 4122 
Q 1313 4325 1613 4325 
Q 2100 4325 2488 3828 
Q 2972 3213 2972 2159 
Q 2972 1422 2759 906 
Q 2547 391 2217 158 
Q 1888 -75 1581 -75 
Q 975 -75 572 641 
Q 231 1244 231 2094 
z
M 844 2016 
Q 844 1141 1059 588 
Q 1238 122 1591 122 
Q 1759 122 1940 273 
Q 2122 425 2216 781 
Q 2359 1319 2359 2297 
Q 2359 3022 2209 3506 
Q 2097 3866 1919 4016 
Q 1791 4119 1609 4119 
Q 1397 4119 1231 3928 
Q 1006 3669 925 3112 
Q 844 2556 844 2016 
z
" id="TimesNewRomanPSMT-30" transform="scale(0.015625)"/>
        <path d="M 800 606 
Q 947 606 1047 504 
Q 1147 403 1147 259 
Q 1147 116 1045 14 
Q 944 -88 800 -88 
Q 656 -88 554 14 
Q 453 116 453 259 
Q 453 406 554 506 
Q 656 606 800 606 
z
" id="TimesNewRomanPSMT-2e" transform="scale(0.015625)"/>
       </defs>
       <use xlink:href="#TimesNewRomanPSMT-30"/>
       <use x="50" xlink:href="#TimesNewRomanPSMT-2e"/>
       <use x="75" xlink:href="#TimesNewRomanPSMT-30"/>
       <use x="125" xlink:href="#TimesNewRomanPSMT-30"/>
       <use x="175" xlink:href="#TimesNewRomanPSMT-30"/>
      </g>
     </g>
    </g>
    <g id="xtick_2">
     <g id="line2d_3">
      <path clip-path="url(#p0fce4d687b)" d="M 154.645966 339.84 
L 154.645966 7.2 
" style="fill:none;stroke:#000000;stroke-dasharray:0.5,0.825;stroke-dashoffset:0;stroke-width:0.5;"/>
     </g>
     <g id="line2d_4">
      <g>
       <use style="stroke:#000000;stroke-width:0.8;" x="154.645966" xlink:href="#mb6bd80d700" y="339.84"/>
      </g>
     </g>
     <g id="text_2">
      <!-- 0.001 -->
      <g transform="translate(138.895966 356.56125)scale(0.14 -0.14)">
       <defs>
        <path d="M 750 3822 
L 1781 4325 
L 1884 4325 
L 1884 747 
Q 1884 391 1914 303 
Q 1944 216 2037 169 
Q 2131 122 2419 116 
L 2419 0 
L 825 0 
L 825 116 
Q 1125 122 1212 167 
Q 1300 213 1334 289 
Q 1369 366 1369 747 
L 1369 3034 
Q 1369 3497 1338 3628 
Q 1316 3728 1258 3775 
Q 1200 3822 1119 3822 
Q 1003 3822 797 3725 
L 750 3822 
z
" id="TimesNewRomanPSMT-31" transform="scale(0.015625)"/>
       </defs>
       <use xlink:href="#TimesNewRomanPSMT-30"/>
       <use x="50" xlink:href="#TimesNewRomanPSMT-2e"/>
       <use x="75" xlink:href="#TimesNewRomanPSMT-30"/>
       <use x="125" xlink:href="#TimesNewRomanPSMT-30"/>
       <use x="175" xlink:href="#TimesNewRomanPSMT-31"/>
      </g>
     </g>
    </g>
    <g id="xtick_3">
     <g id="line2d_5">
      <path clip-path="url(#p0fce4d687b)" d="M 215.518693 339.84 
L 215.518693 7.2 
" style="fill:none;stroke:#000000;stroke-dasharray:0.5,0.825;stroke-dashoffset:0;stroke-width:0.5;"/>
     </g>
     <g id="line2d_6">
      <g>
       <use style="stroke:#000000;stroke-width:0.8;" x="215.518693" xlink:href="#mb6bd80d700" y="339.84"/>
      </g>
     </g>
     <g id="text_3">
      <!-- 0.002 -->
      <g transform="translate(199.768693 356.56125)scale(0.14 -0.14)">
       <defs>
        <path d="M 2934 816 
L 2638 0 
L 138 0 
L 138 116 
Q 1241 1122 1691 1759 
Q 2141 2397 2141 2925 
Q 2141 3328 1894 3587 
Q 1647 3847 1303 3847 
Q 991 3847 742 3664 
Q 494 3481 375 3128 
L 259 3128 
Q 338 3706 661 4015 
Q 984 4325 1469 4325 
Q 1984 4325 2329 3994 
Q 2675 3663 2675 3213 
Q 2675 2891 2525 2569 
Q 2294 2063 1775 1497 
Q 997 647 803 472 
L 1909 472 
Q 2247 472 2383 497 
Q 2519 522 2628 598 
Q 2738 675 2819 816 
L 2934 816 
z
" id="TimesNewRomanPSMT-32" transform="scale(0.015625)"/>
       </defs>
       <use xlink:href="#TimesNewRomanPSMT-30"/>
       <use x="50" xlink:href="#TimesNewRomanPSMT-2e"/>
       <use x="75" xlink:href="#TimesNewRomanPSMT-30"/>
       <use x="125" xlink:href="#TimesNewRomanPSMT-30"/>
       <use x="175" xlink:href="#TimesNewRomanPSMT-32"/>
      </g>
     </g>
    </g>
    <g id="xtick_4">
     <g id="line2d_7">
      <path clip-path="url(#p0fce4d687b)" d="M 276.39142 339.84 
L 276.39142 7.2 
" style="fill:none;stroke:#000000;stroke-dasharray:0.5,0.825;stroke-dashoffset:0;stroke-width:0.5;"/>
     </g>
     <g id="line2d_8">
      <g>
       <use style="stroke:#000000;stroke-width:0.8;" x="276.39142" xlink:href="#mb6bd80d700" y="339.84"/>
      </g>
     </g>
     <g id="text_4">
      <!-- 0.003 -->
      <g transform="translate(260.64142 356.56125)scale(0.14 -0.14)">
       <defs>
        <path d="M 325 3431 
Q 506 3859 782 4092 
Q 1059 4325 1472 4325 
Q 1981 4325 2253 3994 
Q 2459 3747 2459 3466 
Q 2459 3003 1878 2509 
Q 2269 2356 2469 2072 
Q 2669 1788 2669 1403 
Q 2669 853 2319 450 
Q 1863 -75 997 -75 
Q 569 -75 414 31 
Q 259 138 259 259 
Q 259 350 332 419 
Q 406 488 509 488 
Q 588 488 669 463 
Q 722 447 909 348 
Q 1097 250 1169 231 
Q 1284 197 1416 197 
Q 1734 197 1970 444 
Q 2206 691 2206 1028 
Q 2206 1275 2097 1509 
Q 2016 1684 1919 1775 
Q 1784 1900 1550 2001 
Q 1316 2103 1072 2103 
L 972 2103 
L 972 2197 
Q 1219 2228 1467 2375 
Q 1716 2522 1828 2728 
Q 1941 2934 1941 3181 
Q 1941 3503 1739 3701 
Q 1538 3900 1238 3900 
Q 753 3900 428 3381 
L 325 3431 
z
" id="TimesNewRomanPSMT-33" transform="scale(0.015625)"/>
       </defs>
       <use xlink:href="#TimesNewRomanPSMT-30"/>
       <use x="50" xlink:href="#TimesNewRomanPSMT-2e"/>
       <use x="75" xlink:href="#TimesNewRomanPSMT-30"/>
       <use x="125" xlink:href="#TimesNewRomanPSMT-30"/>
       <use x="175" xlink:href="#TimesNewRomanPSMT-33"/>
      </g>
     </g>
    </g>
    <g id="xtick_5">
     <g id="line2d_9">
      <path clip-path="url(#p0fce4d687b)" d="M 337.264148 339.84 
L 337.264148 7.2 
" style="fill:none;stroke:#000000;stroke-dasharray:0.5,0.825;stroke-dashoffset:0;stroke-width:0.5;"/>
     </g>
     <g id="line2d_10">
      <g>
       <use style="stroke:#000000;stroke-width:0.8;" x="337.264148" xlink:href="#mb6bd80d700" y="339.84"/>
      </g>
     </g>
     <g id="text_5">
      <!-- 0.004 -->
      <g transform="translate(321.514148 356.56125)scale(0.14 -0.14)">
       <defs>
        <path d="M 2978 1563 
L 2978 1119 
L 2409 1119 
L 2409 0 
L 1894 0 
L 1894 1119 
L 100 1119 
L 100 1519 
L 2066 4325 
L 2409 4325 
L 2409 1563 
L 2978 1563 
z
M 1894 1563 
L 1894 3666 
L 406 1563 
L 1894 1563 
z
" id="TimesNewRomanPSMT-34" transform="scale(0.015625)"/>
       </defs>
       <use xlink:href="#TimesNewRomanPSMT-30"/>
       <use x="50" xlink:href="#TimesNewRomanPSMT-2e"/>
       <use x="75" xlink:href="#TimesNewRomanPSMT-30"/>
       <use x="125" xlink:href="#TimesNewRomanPSMT-30"/>
       <use x="175" xlink:href="#TimesNewRomanPSMT-34"/>
      </g>
     </g>
    </g>
    <g id="xtick_6">
     <g id="line2d_11">
      <path clip-path="url(#p0fce4d687b)" d="M 398.136875 339.84 
L 398.136875 7.2 
" style="fill:none;stroke:#000000;stroke-dasharray:0.5,0.825;stroke-dashoffset:0;stroke-width:0.5;"/>
     </g>
     <g id="line2d_12">
      <g>
       <use style="stroke:#000000;stroke-width:0.8;" x="398.136875" xlink:href="#mb6bd80d700" y="339.84"/>
      </g>
     </g>
     <g id="text_6">
      <!-- 0.005 -->
      <g transform="translate(382.386875 356.56125)scale(0.14 -0.14)">
       <defs>
        <path d="M 2778 4238 
L 2534 3706 
L 1259 3706 
L 981 3138 
Q 1809 3016 2294 2522 
Q 2709 2097 2709 1522 
Q 2709 1188 2573 903 
Q 2438 619 2231 419 
Q 2025 219 1772 97 
Q 1413 -75 1034 -75 
Q 653 -75 479 54 
Q 306 184 306 341 
Q 306 428 378 495 
Q 450 563 559 563 
Q 641 563 702 538 
Q 763 513 909 409 
Q 1144 247 1384 247 
Q 1750 247 2026 523 
Q 2303 800 2303 1197 
Q 2303 1581 2056 1914 
Q 1809 2247 1375 2428 
Q 1034 2569 447 2591 
L 1259 4238 
L 2778 4238 
z
" id="TimesNewRomanPSMT-35" transform="scale(0.015625)"/>
       </defs>
       <use xlink:href="#TimesNewRomanPSMT-30"/>
       <use x="50" xlink:href="#TimesNewRomanPSMT-2e"/>
       <use x="75" xlink:href="#TimesNewRomanPSMT-30"/>
       <use x="125" xlink:href="#TimesNewRomanPSMT-30"/>
       <use x="175" xlink:href="#TimesNewRomanPSMT-35"/>
      </g>
     </g>
    </g>
    <g id="text_7">
     <!-- Time (sec) -->
     <g transform="translate(200.858906 373.277188)scale(0.14 -0.14)">
      <defs>
       <path d="M 3703 4238 
L 3750 3244 
L 3631 3244 
Q 3597 3506 3538 3619 
Q 3441 3800 3280 3886 
Q 3119 3972 2856 3972 
L 2259 3972 
L 2259 734 
Q 2259 344 2344 247 
Q 2463 116 2709 116 
L 2856 116 
L 2856 0 
L 1059 0 
L 1059 116 
L 1209 116 
Q 1478 116 1591 278 
Q 1659 378 1659 734 
L 1659 3972 
L 1150 3972 
Q 853 3972 728 3928 
Q 566 3869 450 3700 
Q 334 3531 313 3244 
L 194 3244 
L 244 4238 
L 3703 4238 
z
" id="TimesNewRomanPSMT-54" transform="scale(0.015625)"/>
       <path d="M 928 4444 
Q 1059 4444 1151 4351 
Q 1244 4259 1244 4128 
Q 1244 3997 1151 3903 
Q 1059 3809 928 3809 
Q 797 3809 703 3903 
Q 609 3997 609 4128 
Q 609 4259 701 4351 
Q 794 4444 928 4444 
z
M 1188 2947 
L 1188 647 
Q 1188 378 1227 289 
Q 1266 200 1342 156 
Q 1419 113 1622 113 
L 1622 0 
L 231 0 
L 231 113 
Q 441 113 512 153 
Q 584 194 626 287 
Q 669 381 669 647 
L 669 1750 
Q 669 2216 641 2353 
Q 619 2453 572 2492 
Q 525 2531 444 2531 
Q 356 2531 231 2484 
L 188 2597 
L 1050 2947 
L 1188 2947 
z
" id="TimesNewRomanPSMT-69" transform="scale(0.015625)"/>
       <path d="M 1050 2338 
Q 1363 2650 1419 2697 
Q 1559 2816 1721 2881 
Q 1884 2947 2044 2947 
Q 2313 2947 2506 2790 
Q 2700 2634 2766 2338 
Q 3088 2713 3309 2830 
Q 3531 2947 3766 2947 
Q 3994 2947 4170 2830 
Q 4347 2713 4450 2447 
Q 4519 2266 4519 1878 
L 4519 647 
Q 4519 378 4559 278 
Q 4591 209 4675 161 
Q 4759 113 4950 113 
L 4950 0 
L 3538 0 
L 3538 113 
L 3597 113 
Q 3781 113 3884 184 
Q 3956 234 3988 344 
Q 4000 397 4000 647 
L 4000 1878 
Q 4000 2228 3916 2372 
Q 3794 2572 3525 2572 
Q 3359 2572 3192 2489 
Q 3025 2406 2788 2181 
L 2781 2147 
L 2788 2013 
L 2788 647 
Q 2788 353 2820 281 
Q 2853 209 2943 161 
Q 3034 113 3253 113 
L 3253 0 
L 1806 0 
L 1806 113 
Q 2044 113 2133 169 
Q 2222 225 2256 338 
Q 2272 391 2272 647 
L 2272 1878 
Q 2272 2228 2169 2381 
Q 2031 2581 1784 2581 
Q 1616 2581 1450 2491 
Q 1191 2353 1050 2181 
L 1050 647 
Q 1050 366 1089 281 
Q 1128 197 1204 155 
Q 1281 113 1516 113 
L 1516 0 
L 100 0 
L 100 113 
Q 297 113 375 155 
Q 453 197 493 289 
Q 534 381 534 647 
L 534 1741 
Q 534 2213 506 2350 
Q 484 2453 437 2492 
Q 391 2531 309 2531 
Q 222 2531 100 2484 
L 53 2597 
L 916 2947 
L 1050 2947 
L 1050 2338 
z
" id="TimesNewRomanPSMT-6d" transform="scale(0.015625)"/>
       <path d="M 681 1784 
Q 678 1147 991 784 
Q 1303 422 1725 422 
Q 2006 422 2214 576 
Q 2422 731 2563 1106 
L 2659 1044 
Q 2594 616 2278 264 
Q 1963 -88 1488 -88 
Q 972 -88 605 314 
Q 238 716 238 1394 
Q 238 2128 614 2539 
Q 991 2950 1559 2950 
Q 2041 2950 2350 2633 
Q 2659 2316 2659 1784 
L 681 1784 
z
M 681 1966 
L 2006 1966 
Q 1991 2241 1941 2353 
Q 1863 2528 1708 2628 
Q 1553 2728 1384 2728 
Q 1125 2728 920 2526 
Q 716 2325 681 1966 
z
" id="TimesNewRomanPSMT-65" transform="scale(0.015625)"/>
       <path id="TimesNewRomanPSMT-20" transform="scale(0.015625)"/>
       <path d="M 1988 -1253 
L 1988 -1369 
Q 1516 -1131 1200 -813 
Q 750 -359 506 256 
Q 263 872 263 1534 
Q 263 2503 741 3301 
Q 1219 4100 1988 4444 
L 1988 4313 
Q 1603 4100 1356 3731 
Q 1109 3363 987 2797 
Q 866 2231 866 1616 
Q 866 947 969 400 
Q 1050 -31 1165 -292 
Q 1281 -553 1476 -793 
Q 1672 -1034 1988 -1253 
z
" id="TimesNewRomanPSMT-28" transform="scale(0.015625)"/>
       <path d="M 2050 2947 
L 2050 1972 
L 1947 1972 
Q 1828 2431 1642 2597 
Q 1456 2763 1169 2763 
Q 950 2763 815 2647 
Q 681 2531 681 2391 
Q 681 2216 781 2091 
Q 878 1963 1175 1819 
L 1631 1597 
Q 2266 1288 2266 781 
Q 2266 391 1970 151 
Q 1675 -88 1309 -88 
Q 1047 -88 709 6 
Q 606 38 541 38 
Q 469 38 428 -44 
L 325 -44 
L 325 978 
L 428 978 
Q 516 541 762 319 
Q 1009 97 1316 97 
Q 1531 97 1667 223 
Q 1803 350 1803 528 
Q 1803 744 1651 891 
Q 1500 1038 1047 1263 
Q 594 1488 453 1669 
Q 313 1847 313 2119 
Q 313 2472 555 2709 
Q 797 2947 1181 2947 
Q 1350 2947 1591 2875 
Q 1750 2828 1803 2828 
Q 1853 2828 1881 2850 
Q 1909 2872 1947 2947 
L 2050 2947 
z
" id="TimesNewRomanPSMT-73" transform="scale(0.015625)"/>
       <path d="M 2631 1088 
Q 2516 522 2178 217 
Q 1841 -88 1431 -88 
Q 944 -88 581 321 
Q 219 731 219 1428 
Q 219 2103 620 2525 
Q 1022 2947 1584 2947 
Q 2006 2947 2278 2723 
Q 2550 2500 2550 2259 
Q 2550 2141 2473 2067 
Q 2397 1994 2259 1994 
Q 2075 1994 1981 2113 
Q 1928 2178 1911 2362 
Q 1894 2547 1784 2644 
Q 1675 2738 1481 2738 
Q 1169 2738 978 2506 
Q 725 2200 725 1697 
Q 725 1184 976 792 
Q 1228 400 1656 400 
Q 1963 400 2206 609 
Q 2378 753 2541 1131 
L 2631 1088 
z
" id="TimesNewRomanPSMT-63" transform="scale(0.015625)"/>
       <path d="M 144 4313 
L 144 4444 
Q 619 4209 934 3891 
Q 1381 3434 1625 2820 
Q 1869 2206 1869 1541 
Q 1869 572 1392 -226 
Q 916 -1025 144 -1369 
L 144 -1253 
Q 528 -1038 776 -670 
Q 1025 -303 1145 264 
Q 1266 831 1266 1447 
Q 1266 2113 1163 2663 
Q 1084 3094 967 3353 
Q 850 3613 656 3853 
Q 463 4094 144 4313 
z
" id="TimesNewRomanPSMT-29" transform="scale(0.015625)"/>
      </defs>
      <use xlink:href="#TimesNewRomanPSMT-54"/>
      <use x="57.583984" xlink:href="#TimesNewRomanPSMT-69"/>
      <use x="85.367188" xlink:href="#TimesNewRomanPSMT-6d"/>
      <use x="163.150391" xlink:href="#TimesNewRomanPSMT-65"/>
      <use x="207.535156" xlink:href="#TimesNewRomanPSMT-20"/>
      <use x="232.535156" xlink:href="#TimesNewRomanPSMT-28"/>
      <use x="265.835938" xlink:href="#TimesNewRomanPSMT-73"/>
      <use x="304.751953" xlink:href="#TimesNewRomanPSMT-65"/>
      <use x="349.136719" xlink:href="#TimesNewRomanPSMT-63"/>
      <use x="393.521484" xlink:href="#TimesNewRomanPSMT-29"/>
     </g>
    </g>
   </g>
   <g id="matplotlib.axis_2">
    <g id="ytick_1">
     <g id="line2d_13">
      <path clip-path="url(#p0fce4d687b)" d="M 63.336875 299.176494 
L 398.136875 299.176494 
" style="fill:none;stroke:#000000;stroke-dasharray:0.5,0.825;stroke-dashoffset:0;stroke-width:0.5;"/>
     </g>
     <g id="line2d_14">
      <defs>
       <path d="M 0 0 
L -3.5 0 
" id="ma830cd4696" style="stroke:#000000;stroke-width:0.8;"/>
      </defs>
      <g>
       <use style="stroke:#000000;stroke-width:0.8;" x="63.336875" xlink:href="#ma830cd4696" y="299.176494"/>
      </g>
     </g>
     <g id="text_8">
      <!-- −0.06 -->
      <g transform="translate(23.942188 304.037119)scale(0.14 -0.14)">
       <defs>
        <path d="M 3484 2000 
L 116 2000 
L 116 2256 
L 3484 2256 
L 3484 2000 
z
" id="TimesNewRomanPSMT-2212" transform="scale(0.015625)"/>
        <path d="M 2869 4325 
L 2869 4209 
Q 2456 4169 2195 4045 
Q 1934 3922 1679 3669 
Q 1425 3416 1258 3105 
Q 1091 2794 978 2366 
Q 1428 2675 1881 2675 
Q 2316 2675 2634 2325 
Q 2953 1975 2953 1425 
Q 2953 894 2631 456 
Q 2244 -75 1606 -75 
Q 1172 -75 869 213 
Q 275 772 275 1663 
Q 275 2231 503 2743 
Q 731 3256 1154 3653 
Q 1578 4050 1965 4187 
Q 2353 4325 2688 4325 
L 2869 4325 
z
M 925 2138 
Q 869 1716 869 1456 
Q 869 1156 980 804 
Q 1091 453 1309 247 
Q 1469 100 1697 100 
Q 1969 100 2183 356 
Q 2397 613 2397 1088 
Q 2397 1622 2184 2012 
Q 1972 2403 1581 2403 
Q 1463 2403 1327 2353 
Q 1191 2303 925 2138 
z
" id="TimesNewRomanPSMT-36" transform="scale(0.015625)"/>
       </defs>
       <use xlink:href="#TimesNewRomanPSMT-2212"/>
       <use x="56.396484" xlink:href="#TimesNewRomanPSMT-30"/>
       <use x="106.396484" xlink:href="#TimesNewRomanPSMT-2e"/>
       <use x="131.396484" xlink:href="#TimesNewRomanPSMT-30"/>
       <use x="181.396484" xlink:href="#TimesNewRomanPSMT-36"/>
      </g>
     </g>
    </g>
    <g id="ytick_2">
     <g id="line2d_15">
      <path clip-path="url(#p0fce4d687b)" d="M 63.336875 250.328438 
L 398.136875 250.328438 
" style="fill:none;stroke:#000000;stroke-dasharray:0.5,0.825;stroke-dashoffset:0;stroke-width:0.5;"/>
     </g>
     <g id="line2d_16">
      <g>
       <use style="stroke:#000000;stroke-width:0.8;" x="63.336875" xlink:href="#ma830cd4696" y="250.328438"/>
      </g>
     </g>
     <g id="text_9">
      <!-- −0.04 -->
      <g transform="translate(23.942188 255.189063)scale(0.14 -0.14)">
       <use xlink:href="#TimesNewRomanPSMT-2212"/>
       <use x="56.396484" xlink:href="#TimesNewRomanPSMT-30"/>
       <use x="106.396484" xlink:href="#TimesNewRomanPSMT-2e"/>
       <use x="131.396484" xlink:href="#TimesNewRomanPSMT-30"/>
       <use x="181.396484" xlink:href="#TimesNewRomanPSMT-34"/>
      </g>
     </g>
    </g>
    <g id="ytick_3">
     <g id="line2d_17">
      <path clip-path="url(#p0fce4d687b)" d="M 63.336875 201.480382 
L 398.136875 201.480382 
" style="fill:none;stroke:#000000;stroke-dasharray:0.5,0.825;stroke-dashoffset:0;stroke-width:0.5;"/>
     </g>
     <g id="line2d_18">
      <g>
       <use style="stroke:#000000;stroke-width:0.8;" x="63.336875" xlink:href="#ma830cd4696" y="201.480382"/>
      </g>
     </g>
     <g id="text_10">
      <!-- −0.02 -->
      <g transform="translate(23.942188 206.341007)scale(0.14 -0.14)">
       <use xlink:href="#TimesNewRomanPSMT-2212"/>
       <use x="56.396484" xlink:href="#TimesNewRomanPSMT-30"/>
       <use x="106.396484" xlink:href="#TimesNewRomanPSMT-2e"/>
       <use x="131.396484" xlink:href="#TimesNewRomanPSMT-30"/>
       <use x="181.396484" xlink:href="#TimesNewRomanPSMT-32"/>
      </g>
     </g>
    </g>
    <g id="ytick_4">
     <g id="line2d_19">
      <path clip-path="url(#p0fce4d687b)" d="M 63.336875 152.632326 
L 398.136875 152.632326 
" style="fill:none;stroke:#000000;stroke-dasharray:0.5,0.825;stroke-dashoffset:0;stroke-width:0.5;"/>
     </g>
     <g id="line2d_20">
      <g>
       <use style="stroke:#000000;stroke-width:0.8;" x="63.336875" xlink:href="#ma830cd4696" y="152.632326"/>
      </g>
     </g>
     <g id="text_11">
      <!-- 0.00 -->
      <g transform="translate(31.836875 157.492951)scale(0.14 -0.14)">
       <use xlink:href="#TimesNewRomanPSMT-30"/>
       <use x="50" xlink:href="#TimesNewRomanPSMT-2e"/>
       <use x="75" xlink:href="#TimesNewRomanPSMT-30"/>
       <use x="125" xlink:href="#TimesNewRomanPSMT-30"/>
      </g>
     </g>
    </g>
    <g id="ytick_5">
     <g id="line2d_21">
      <path clip-path="url(#p0fce4d687b)" d="M 63.336875 103.78427 
L 398.136875 103.78427 
" style="fill:none;stroke:#000000;stroke-dasharray:0.5,0.825;stroke-dashoffset:0;stroke-width:0.5;"/>
     </g>
     <g id="line2d_22">
      <g>
       <use style="stroke:#000000;stroke-width:0.8;" x="63.336875" xlink:href="#ma830cd4696" y="103.78427"/>
      </g>
     </g>
     <g id="text_12">
      <!-- 0.02 -->
      <g transform="translate(31.836875 108.644895)scale(0.14 -0.14)">
       <use xlink:href="#TimesNewRomanPSMT-30"/>
       <use x="50" xlink:href="#TimesNewRomanPSMT-2e"/>
       <use x="75" xlink:href="#TimesNewRomanPSMT-30"/>
       <use x="125" xlink:href="#TimesNewRomanPSMT-32"/>
      </g>
     </g>
    </g>
    <g id="ytick_6">
     <g id="line2d_23">
      <path clip-path="url(#p0fce4d687b)" d="M 63.336875 54.936213 
L 398.136875 54.936213 
" style="fill:none;stroke:#000000;stroke-dasharray:0.5,0.825;stroke-dashoffset:0;stroke-width:0.5;"/>
     </g>
     <g id="line2d_24">
      <g>
       <use style="stroke:#000000;stroke-width:0.8;" x="63.336875" xlink:href="#ma830cd4696" y="54.936213"/>
      </g>
     </g>
     <g id="text_13">
      <!-- 0.04 -->
      <g transform="translate(31.836875 59.796838)scale(0.14 -0.14)">
       <use xlink:href="#TimesNewRomanPSMT-30"/>
       <use x="50" xlink:href="#TimesNewRomanPSMT-2e"/>
       <use x="75" xlink:href="#TimesNewRomanPSMT-30"/>
       <use x="125" xlink:href="#TimesNewRomanPSMT-34"/>
      </g>
     </g>
    </g>
    <g id="text_14">
     <!-- Volatage (V) -->
     <g transform="translate(16.92125 209.352344)rotate(-90)scale(0.14 -0.14)">
      <defs>
       <path d="M 4544 4238 
L 4544 4122 
Q 4319 4081 4203 3978 
Q 4038 3825 3909 3509 
L 2431 -97 
L 2316 -97 
L 728 3556 
Q 606 3838 556 3900 
Q 478 3997 364 4051 
Q 250 4106 56 4122 
L 56 4238 
L 1788 4238 
L 1788 4122 
Q 1494 4094 1406 4022 
Q 1319 3950 1319 3838 
Q 1319 3681 1463 3350 
L 2541 866 
L 3541 3319 
Q 3688 3681 3688 3822 
Q 3688 3913 3597 3995 
Q 3506 4078 3291 4113 
Q 3275 4116 3238 4122 
L 3238 4238 
L 4544 4238 
z
" id="TimesNewRomanPSMT-56" transform="scale(0.015625)"/>
       <path d="M 1600 2947 
Q 2250 2947 2644 2453 
Q 2978 2031 2978 1484 
Q 2978 1100 2793 706 
Q 2609 313 2286 112 
Q 1963 -88 1566 -88 
Q 919 -88 538 428 
Q 216 863 216 1403 
Q 216 1797 411 2186 
Q 606 2575 925 2761 
Q 1244 2947 1600 2947 
z
M 1503 2744 
Q 1338 2744 1170 2645 
Q 1003 2547 900 2300 
Q 797 2053 797 1666 
Q 797 1041 1045 587 
Q 1294 134 1700 134 
Q 2003 134 2200 384 
Q 2397 634 2397 1244 
Q 2397 2006 2069 2444 
Q 1847 2744 1503 2744 
z
" id="TimesNewRomanPSMT-6f" transform="scale(0.015625)"/>
       <path d="M 1184 4444 
L 1184 647 
Q 1184 378 1223 290 
Q 1263 203 1344 158 
Q 1425 113 1647 113 
L 1647 0 
L 244 0 
L 244 113 
Q 441 113 512 153 
Q 584 194 625 287 
Q 666 381 666 647 
L 666 3247 
Q 666 3731 644 3842 
Q 622 3953 573 3993 
Q 525 4034 450 4034 
Q 369 4034 244 3984 
L 191 4094 
L 1044 4444 
L 1184 4444 
z
" id="TimesNewRomanPSMT-6c" transform="scale(0.015625)"/>
       <path d="M 1822 413 
Q 1381 72 1269 19 
Q 1100 -59 909 -59 
Q 613 -59 420 144 
Q 228 347 228 678 
Q 228 888 322 1041 
Q 450 1253 767 1440 
Q 1084 1628 1822 1897 
L 1822 2009 
Q 1822 2438 1686 2597 
Q 1550 2756 1291 2756 
Q 1094 2756 978 2650 
Q 859 2544 859 2406 
L 866 2225 
Q 866 2081 792 2003 
Q 719 1925 600 1925 
Q 484 1925 411 2006 
Q 338 2088 338 2228 
Q 338 2497 613 2722 
Q 888 2947 1384 2947 
Q 1766 2947 2009 2819 
Q 2194 2722 2281 2516 
Q 2338 2381 2338 1966 
L 2338 994 
Q 2338 584 2353 492 
Q 2369 400 2405 369 
Q 2441 338 2488 338 
Q 2538 338 2575 359 
Q 2641 400 2828 588 
L 2828 413 
Q 2478 -56 2159 -56 
Q 2006 -56 1915 50 
Q 1825 156 1822 413 
z
M 1822 616 
L 1822 1706 
Q 1350 1519 1213 1441 
Q 966 1303 859 1153 
Q 753 1003 753 825 
Q 753 600 887 451 
Q 1022 303 1197 303 
Q 1434 303 1822 616 
z
" id="TimesNewRomanPSMT-61" transform="scale(0.015625)"/>
       <path d="M 1031 3803 
L 1031 2863 
L 1700 2863 
L 1700 2644 
L 1031 2644 
L 1031 788 
Q 1031 509 1111 412 
Q 1191 316 1316 316 
Q 1419 316 1516 380 
Q 1613 444 1666 569 
L 1788 569 
Q 1678 263 1478 108 
Q 1278 -47 1066 -47 
Q 922 -47 784 33 
Q 647 113 581 261 
Q 516 409 516 719 
L 516 2644 
L 63 2644 
L 63 2747 
Q 234 2816 414 2980 
Q 594 3144 734 3369 
Q 806 3488 934 3803 
L 1031 3803 
z
" id="TimesNewRomanPSMT-74" transform="scale(0.015625)"/>
       <path d="M 966 1044 
Q 703 1172 562 1401 
Q 422 1631 422 1909 
Q 422 2334 742 2640 
Q 1063 2947 1563 2947 
Q 1972 2947 2272 2747 
L 2878 2747 
Q 3013 2747 3034 2739 
Q 3056 2731 3066 2713 
Q 3084 2684 3084 2613 
Q 3084 2531 3069 2500 
Q 3059 2484 3036 2475 
Q 3013 2466 2878 2466 
L 2506 2466 
Q 2681 2241 2681 1891 
Q 2681 1491 2375 1206 
Q 2069 922 1553 922 
Q 1341 922 1119 984 
Q 981 866 932 777 
Q 884 688 884 625 
Q 884 572 936 522 
Q 988 472 1138 450 
Q 1225 438 1575 428 
Q 2219 413 2409 384 
Q 2700 344 2873 169 
Q 3047 -6 3047 -263 
Q 3047 -616 2716 -925 
Q 2228 -1381 1444 -1381 
Q 841 -1381 425 -1109 
Q 191 -953 191 -784 
Q 191 -709 225 -634 
Q 278 -519 444 -313 
Q 466 -284 763 25 
Q 600 122 533 198 
Q 466 275 466 372 
Q 466 481 555 628 
Q 644 775 966 1044 
z
M 1509 2797 
Q 1278 2797 1122 2612 
Q 966 2428 966 2047 
Q 966 1553 1178 1281 
Q 1341 1075 1591 1075 
Q 1828 1075 1981 1253 
Q 2134 1431 2134 1813 
Q 2134 2309 1919 2591 
Q 1759 2797 1509 2797 
z
M 934 0 
Q 788 -159 713 -296 
Q 638 -434 638 -550 
Q 638 -700 819 -813 
Q 1131 -1006 1722 -1006 
Q 2284 -1006 2551 -807 
Q 2819 -609 2819 -384 
Q 2819 -222 2659 -153 
Q 2497 -84 2016 -72 
Q 1313 -53 934 0 
z
" id="TimesNewRomanPSMT-67" transform="scale(0.015625)"/>
      </defs>
      <use xlink:href="#TimesNewRomanPSMT-56"/>
      <use x="59.341797" xlink:href="#TimesNewRomanPSMT-6f"/>
      <use x="109.341797" xlink:href="#TimesNewRomanPSMT-6c"/>
      <use x="137.125" xlink:href="#TimesNewRomanPSMT-61"/>
      <use x="181.509766" xlink:href="#TimesNewRomanPSMT-74"/>
      <use x="209.292969" xlink:href="#TimesNewRomanPSMT-61"/>
      <use x="253.677734" xlink:href="#TimesNewRomanPSMT-67"/>
      <use x="303.677734" xlink:href="#TimesNewRomanPSMT-65"/>
      <use x="348.0625" xlink:href="#TimesNewRomanPSMT-20"/>
      <use x="373.0625" xlink:href="#TimesNewRomanPSMT-28"/>
      <use x="406.363281" xlink:href="#TimesNewRomanPSMT-56"/>
      <use x="478.580078" xlink:href="#TimesNewRomanPSMT-29"/>
     </g>
    </g>
   </g>
   <g id="LineCollection_1">
    <path clip-path="url(#p0fce4d687b)" d="M 78.555057 152.632326 
L 382.918693 152.632326 
" style="fill:none;stroke:#1f77b4;stroke-width:1.5;"/>
   </g>
   <g id="line2d_25">
    <path clip-path="url(#p0fce4d687b)" d="M 78.555057 152.68325 
L 78.707239 152.65272 
L 78.889857 152.68325 
L 83.790111 152.59166 
L 83.942293 152.59166 
L 90.516548 152.65272 
L 90.546984 152.71378 
L 90.638293 152.65272 
L 90.790475 152.65272 
L 113.952548 152.71378 
L 114.074293 152.74431 
L 114.865639 152.8359 
L 115.01782 152.8359 
L 115.717857 152.92749 
L 115.77873 152.98855 
L 115.839602 152.95802 
L 116.44833 153.01908 
L 116.539639 153.08014 
L 116.570075 153.04961 
L 117.02662 153.11067 
L 117.057057 153.17173 
L 117.148366 153.11067 
L 117.422293 153.23279 
L 118.000584 153.293851 
L 118.12233 153.324381 
L 118.609311 153.415971 
L 118.79193 153.446501 
L 119.552839 153.538091 
L 119.735457 153.599151 
L 119.79633 153.538091 
L 119.857202 153.568621 
L 121.287711 153.660211 
L 121.409457 153.629681 
L 121.957311 153.721271 
L 122.13993 153.751801 
L 122.261675 153.751801 
L 122.47473 153.812861 
L 122.900839 153.904451 
L 123.113893 153.965511 
L 123.418257 154.026571 
L 123.540002 154.118161 
L 123.600875 154.057101 
L 123.661748 154.118161 
L 123.966111 154.209752 
L 124.331348 154.423462 
L 124.574839 154.484522 
L 124.757457 154.637172 
L 124.940075 154.728762 
L 126.82713 156.774275 
L 128.683748 160.743179 
L 130.936039 167.856677 
L 132.488293 173.657383 
L 132.670911 174.267985 
L 135.836293 183.457525 
L 136.018911 183.762826 
L 136.262402 184.159716 
L 137.236366 184.984027 
L 138.21033 184.892437 
L 138.362511 184.831377 
L 139.12342 183.915476 
L 139.366911 183.396465 
L 139.488657 183.152225 
L 140.706111 179.18332 
L 142.47142 169.78007 
L 143.445384 163.277172 
L 145.362875 147.065723 
L 145.880293 142.089328 
L 146.854257 132.350247 
L 147.889093 121.206784 
L 152.94153 66.680141 
L 153.85462 58.620212 
L 155.011202 50.224452 
L 156.015602 44.851166 
L 156.989566 41.401272 
L 157.506984 40.180068 
L 157.841784 39.722125 
L 158.29833 39.81371 
L 158.87662 40.515901 
L 160.002766 44.210038 
L 160.946293 49.461201 
L 161.859384 56.635759 
L 163.929057 80.601837 
L 165.785675 110.124381 
L 167.733602 147.248904 
L 171.781639 230.199006 
L 173.242584 257.279152 
L 174.307857 274.559152 
L 175.768802 294.892156 
L 176.95582 307.867426 
L 177.71673 314.431381 
L 178.416766 319.224591 
L 179.116802 322.21654 
L 179.96902 324.475755 
L 180.30382 324.65893 
L 180.97342 324.567342 
L 182.282184 320.323673 
L 182.769166 317.392794 
L 184.199675 305.089187 
L 185.904111 285.092017 
L 186.938948 270.162827 
L 188.978184 235.69441 
L 195.248075 112.108833 
L 196.952511 83.31901 
L 198.991748 56.208339 
L 200.270075 43.324667 
L 201.761457 32.181201 
L 203.100657 26.014139 
L 204.226802 22.961128 
L 204.318111 22.869541 
L 204.531166 22.53371 
L 204.561602 22.564235 
L 204.622475 22.503185 
L 204.896402 22.381063 
L 205.687748 22.472648 
L 205.900802 22.777955 
L 207.270439 25.769894 
L 208.731384 32.089614 
L 210.77062 45.003814 
L 211.835893 52.66685 
L 212.383748 56.605232 
L 215.183893 79.960704 
L 216.340475 90.463036 
L 218.22753 106.491309 
L 219.14062 113.726927 
L 219.90153 119.832932 
L 220.510257 124.320847 
L 221.48422 131.251165 
L 222.610366 138.700494 
L 223.066911 141.478727 
L 224.375675 148.714345 
L 224.58873 149.691306 
L 225.562693 154.026571 
L 225.684439 154.515052 
L 225.958366 155.675193 
L 226.627966 158.483956 
L 227.17582 160.468409 
L 227.571493 162.178091 
L 229.397675 169.047349 
L 229.61073 169.71901 
L 230.006402 171.214981 
L 230.61513 173.718444 
L 231.223857 175.886077 
L 232.258693 180.496112 
L 233.110911 185.319857 
L 235.058839 197.715052 
L 237.006766 212.155756 
L 237.828548 217.864875 
L 241.115675 240.21286 
L 241.298293 241.098231 
L 241.754839 243.174274 
L 242.637493 247.051586 
L 243.611457 250.532015 
L 243.794075 251.112081 
L 244.128875 251.997454 
L 244.58542 253.035473 
L 245.102839 253.829259 
L 245.133275 253.798724 
L 245.194148 253.859784 
L 245.315893 253.890321 
L 245.34633 253.859784 
L 245.528948 253.768198 
L 245.772439 253.523953 
L 246.228984 252.91335 
L 246.807275 251.508973 
L 247.35513 249.524519 
L 249.120439 240.151798 
L 250.520511 229.557881 
L 252.590184 209.866006 
L 253.898948 195.639009 
L 255.603384 176.405087 
L 256.39473 167.368197 
L 257.946984 151.431518 
L 260.473202 129.633073 
L 261.873275 120.504593 
L 262.268948 118.45908 
L 263.182039 114.429116 
L 263.821202 112.200421 
L 264.125566 111.192932 
L 264.369057 110.460211 
L 265.038657 108.781059 
L 266.256111 106.582894 
L 267.412693 105.575406 
L 268.599711 105.666998 
L 268.873639 105.850176 
L 268.904075 105.819646 
L 268.995384 105.911236 
L 269.421493 106.186006 
L 269.573675 106.277594 
L 270.486766 107.31562 
L 270.730257 107.834631 
L 271.612911 109.819081 
L 271.886839 110.704452 
L 272.13033 111.437172 
L 277.213202 126.39689 
L 277.548002 127.282261 
L 277.913239 128.289752 
L 278.674148 130.243675 
L 280.926439 134.51788 
L 281.07862 134.823178 
L 281.869966 136.166501 
L 282.17433 136.624451 
L 282.965675 137.967773 
L 283.51353 138.669964 
L 283.970075 139.341625 
L 286.009311 141.234486 
L 286.404984 141.295547 
L 286.52673 141.387137 
L 286.557166 141.326077 
L 286.648475 141.387137 
L 287.409384 141.295547 
L 287.652875 141.142897 
L 287.683311 141.203957 
L 287.744184 141.142897 
L 288.048548 140.990246 
L 288.231166 140.898656 
L 290.026911 138.975264 
L 290.270402 138.547843 
L 290.666075 138.028833 
L 290.970439 137.448763 
L 291.153057 137.112932 
L 291.487857 136.441271 
L 292.979239 133.235617 
L 293.283602 132.411306 
L 293.374911 132.197596 
L 293.89233 130.579504 
L 295.840257 124.381907 
L 296.631602 121.664734 
L 296.783784 121.115194 
L 297.422948 119.008621 
L 297.605566 118.45908 
L 297.970802 117.176819 
L 298.031675 116.993639 
L 298.91433 114.673356 
L 299.24913 113.757458 
L 299.614366 112.963677 
L 300.040475 112.383606 
L 300.557893 111.589825 
L 301.044875 111.192932 
L 301.075311 111.223462 
L 301.744911 111.13187 
L 301.897093 111.13187 
L 302.658002 112.047773 
L 302.992802 112.719431 
L 303.449348 113.879575 
L 305.27553 121.634204 
L 306.827784 131.648055 
L 307.801748 139.250034 
L 308.593093 146.485653 
L 309.506184 155.736253 
L 310.784511 169.627419 
L 312.154148 184.800847 
L 313.280293 197.165511 
L 314.284693 207.942613 
L 315.745639 221.497951 
L 316.780475 229.893706 
L 317.450075 234.564804 
L 317.937057 237.587277 
L 318.971893 242.258375 
L 319.884984 244.670248 
L 320.493711 245.647207 
L 320.645893 245.708269 
L 320.828511 245.830392 
L 321.132875 245.891442 
L 321.25462 245.921977 
L 321.376366 245.891442 
L 321.406802 245.921977 
L 321.619857 245.860917 
L 321.832911 245.647207 
L 321.92422 245.555619 
L 323.050366 243.052151 
L 323.537348 241.250882 
L 325.424402 231.237033 
L 326.763602 222.53597 
L 331.329057 185.075617 
L 331.998657 178.84749 
L 332.63782 172.863603 
L 334.190075 158.361836 
L 335.437966 147.493144 
L 335.955384 142.974699 
L 337.233711 132.441836 
L 340.125166 112.902614 
L 342.499202 99.286216 
L 344.842802 88.081696 
L 345.086293 87.043674 
L 345.664584 84.692862 
L 346.395057 82.189399 
L 346.668984 81.395618 
L 347.186402 80.143889 
L 347.277711 79.930174 
L 347.642948 79.136393 
L 347.856002 78.770035 
L 348.525602 77.670954 
L 348.829966 77.243531 
L 349.04302 76.9077 
L 349.13433 76.846638 
L 349.347384 76.63293 
L 349.438693 76.541342 
L 349.80393 76.297097 
L 349.925675 76.266572 
L 350.199602 76.144449 
L 350.686584 76.236044 
L 350.930075 76.35816 
L 350.960511 76.297097 
L 351.021384 76.35816 
L 351.325748 76.510815 
L 351.47793 76.571867 
L 351.690984 76.75505 
L 351.873602 76.846638 
L 353.48673 78.617382 
L 353.760657 79.105868 
L 353.82153 79.197455 
L 354.004148 79.533286 
L 354.947675 81.670388 
L 355.312911 82.677879 
L 356.40862 86.249893 
L 356.712984 87.410037 
L 357.41302 90.371451 
L 357.656511 91.440002 
L 358.143493 93.699222 
L 358.721784 96.477455 
L 360.669711 106.79661 
L 362.10022 114.734416 
L 362.800257 118.794911 
L 363.378548 122.122685 
L 363.652475 123.679716 
L 379.84462 220.45993 
L 381.51862 228.306144 
L 382.583893 232.122406 
L 382.918693 233.007767 
L 382.918693 233.007767 
" style="fill:none;stroke:#0000ff;stroke-linecap:square;stroke-width:1.5;"/>
   </g>
   <g id="line2d_26">
    <path clip-path="url(#p0fce4d687b)" d="M 78.555057 152.634341 
L 101.321457 152.725931 
L 101.595384 152.848051 
L 101.838875 152.954906 
L 102.660657 153.489182 
L 102.96502 153.763952 
L 103.208511 154.008192 
L 103.543311 154.435613 
L 104.699893 156.359005 
L 105.186875 157.488616 
L 105.673857 158.709818 
L 106.556511 161.213281 
L 108.139202 166.311797 
L 108.960984 169.151089 
L 109.75233 171.868263 
L 110.269748 173.516884 
L 111.274148 176.325647 
L 111.791566 177.531584 
L 113.191639 180.096107 
L 113.617748 180.538793 
L 113.739493 180.630383 
L 114.165602 180.905153 
L 114.530839 180.966213 
L 114.835202 180.813563 
L 115.35262 180.447203 
L 115.656984 180.187697 
L 116.02222 179.668687 
L 116.904875 177.653704 
L 117.574475 175.684517 
L 119.735457 166.571302 
L 121.04422 159.442539 
L 124.026984 139.27745 
L 125.366184 130.042115 
L 126.73582 121.8448 
L 128.227202 113.510101 
L 130.449057 103.984727 
L 131.17953 101.817095 
L 131.727384 100.473773 
L 132.883966 97.34445 
L 134.131857 95.054695 
L 134.375348 94.810454 
L 135.014511 94.016673 
L 135.349311 93.467133 
L 135.927602 93.009185 
L 136.079784 92.963385 
L 136.44502 92.658084 
L 137.11462 92.139074 
L 137.358111 92.139074 
L 137.753784 92.215404 
L 138.21033 92.322256 
L 138.636439 92.90233 
L 139.153857 94.184589 
L 140.858293 99.66473 
L 141.619202 102.732998 
L 142.532293 107.358296 
L 143.293202 112.136249 
L 145.454184 128.088193 
L 146.549893 137.155613 
L 148.102148 152.17639 
L 150.019639 171.471372 
L 151.450148 186.034199 
L 154.219857 211.419926 
L 155.680802 221.586425 
L 157.020002 228.39462 
L 158.054839 232.088755 
L 158.480948 233.035188 
L 159.028802 233.905292 
L 159.454911 234.485367 
L 159.728839 234.699077 
L 159.941893 234.775398 
L 160.55062 234.668543 
L 160.763675 234.515895 
L 160.915857 234.40904 
L 161.128911 234.180062 
L 161.585457 233.294691 
L 162.285493 231.661337 
L 163.259457 227.860347 
L 164.32473 221.983313 
L 166.059602 209.038578 
L 167.490111 195.8954 
L 171.812075 155.748404 
L 174.03393 138.75844 
L 174.520911 135.476461 
L 175.525311 129.614694 
L 177.29062 122.959147 
L 177.929784 121.615825 
L 178.081966 121.524235 
L 178.325457 121.432645 
L 178.599384 121.41738 
L 179.542911 121.50897 
L 180.334257 122.150101 
L 180.72993 122.470666 
L 181.06473 122.959147 
L 181.612584 124.302468 
L 182.586548 127.584447 
L 184.960584 138.788969 
L 186.299784 145.566638 
L 190.043457 163.777804 
L 190.956548 166.998722 
L 193.908875 175.547132 
L 194.334984 176.371443 
L 194.669784 176.936249 
L 195.308948 177.73003 
L 195.887239 178.64593 
L 196.252475 178.997026 
L 197.013384 179.287061 
L 197.13513 179.302326 
L 197.682984 179.210736 
L 198.38302 178.355895 
L 198.71782 177.867415 
L 199.204802 176.676744 
L 200.239639 172.677309 
L 202.278875 161.900207 
L 208.944439 115.876181 
L 210.588002 105.862327 
L 211.988075 99.405222 
L 212.77942 96.688049 
L 214.45342 92.780207 
L 214.970839 92.200136 
L 215.88393 91.833778 
L 217.192693 93.299218 
L 217.80142 94.398299 
L 219.658039 99.344167 
L 220.327639 101.313352 
L 220.81462 102.824591 
L 221.666839 105.786004 
L 222.762548 110.029677 
L 224.680039 118.181196 
L 231.893457 151.245224 
L 233.658766 161.594906 
L 235.515384 174.722821 
L 238.376402 194.033068 
L 239.076439 197.864588 
L 240.476511 204.336955 
L 242.028766 210.122397 
L 243.094039 212.99222 
L 243.33753 213.557028 
L 243.733202 214.579779 
L 243.854948 214.85455 
L 244.828911 217.00692 
L 246.046366 219.220347 
L 247.659493 220.716317 
L 247.781239 220.746847 
L 248.055166 220.868969 
L 248.542148 220.991087 
L 249.090002 220.884232 
L 249.637857 220.731584 
L 249.881348 220.655261 
L 250.094402 220.533139 
L 250.307457 220.426284 
L 250.672693 220.212573 
L 250.855311 220.182043 
L 251.403166 220.029396 
L 251.677093 219.937803 
L 251.859711 219.846213 
L 252.559748 219.403525 
L 252.772802 219.220347 
L 253.168475 218.915047 
L 253.503275 218.609744 
L 253.929384 218.334974 
L 254.842475 217.983881 
L 254.96422 217.938086 
L 255.512075 217.785433 
L 255.694693 217.754908 
L 256.05993 217.663315 
L 256.30342 217.571725 
L 256.63822 217.510663 
L 257.06433 217.617523 
L 257.216511 217.648048 
L 257.703493 217.770171 
L 258.038293 217.861763 
L 258.251348 217.983881 
L 258.494839 218.090736 
L 259.07313 218.273919 
L 259.31662 218.273919 
L 259.560111 218.304444 
L 259.712293 218.289181 
L 260.41233 218.182326 
L 261.447166 217.541193 
L 262.055893 216.777944 
L 263.182039 214.274479 
L 264.399493 210.275045 
L 265.43433 205.695539 
L 266.316984 200.215398 
L 267.504002 191.11745 
L 268.417093 182.950666 
L 270.243275 163.518298 
L 271.095493 153.382327 
L 273.104293 126.851726 
L 276.39142 80.659783 
L 278.582839 53.518582 
L 279.922039 40.573844 
L 280.652511 34.986851 
L 281.535166 29.552502 
L 282.17433 26.896396 
L 283.056984 24.591376 
L 283.391784 24.286071 
L 283.970075 24.392926 
L 284.457057 25.003529 
L 285.248402 27.262752 
L 285.85713 29.796747 
L 287.044148 36.910243 
L 288.048548 45.290737 
L 288.992075 54.770311 
L 291.12262 79.499639 
L 297.788184 161.686496 
L 299.340439 178.34063 
L 301.379675 197.71194 
L 303.571093 214.472927 
L 304.636366 219.754625 
L 305.823384 224.05936 
L 307.28433 228.11985 
L 308.014802 229.402116 
L 308.28873 229.829534 
L 309.049639 230.440135 
L 309.445311 230.760701 
L 309.993166 231.172856 
L 311.21062 231.066001 
L 311.54542 230.791231 
L 312.823748 228.669391 
L 313.158548 227.768757 
L 313.88902 225.219499 
L 314.89342 220.731584 
L 316.750039 210.855118 
L 318.789275 197.91038 
L 320.737202 184.492432 
L 322.92862 169.883811 
L 324.085202 162.907698 
L 324.998293 157.687062 
L 326.36793 150.100348 
L 327.463639 145.169747 
L 328.315857 141.796179 
L 328.802839 140.101762 
L 329.502875 138.040983 
L 330.446402 135.964941 
L 331.755166 134.1942 
L 332.242148 133.858368 
L 332.576948 133.751514 
L 332.942184 133.690455 
L 334.037893 133.782044 
L 334.859675 134.453705 
L 335.103166 134.697945 
L 335.98582 135.735967 
L 336.533675 136.361832 
L 336.685857 136.468687 
L 337.538075 137.170877 
L 338.512039 137.781478 
L 338.725093 137.918864 
L 338.907711 138.025719 
L 340.033857 138.468404 
L 340.520839 138.57526 
L 340.886075 138.651584 
L 341.038257 138.651584 
L 341.494802 138.54473 
L 341.860039 138.437875 
L 342.620948 137.964659 
L 342.864439 137.705153 
L 344.294948 136.117592 
L 344.721057 135.659641 
L 345.421093 135.186425 
L 345.999384 134.759006 
L 346.395057 134.43844 
L 349.408257 131.568616 
L 350.077857 131.339641 
L 350.260475 131.30911 
L 350.686584 131.186991 
L 350.838766 131.202256 
L 351.204002 131.30911 
L 351.964911 131.812858 
L 352.969311 132.972998 
L 353.425857 133.644659 
L 354.186766 134.98798 
L 354.765057 136.392362 
L 358.721784 148.650171 
L 359.42182 151.016249 
L 360.608839 154.267698 
L 360.821893 154.786708 
L 362.982875 160.495825 
L 363.713348 162.358157 
L 363.987275 162.968758 
L 364.839493 164.815825 
L 366.330875 167.578793 
L 367.183093 168.280983 
L 368.096184 168.632079 
L 368.309239 168.632079 
L 368.613602 168.677874 
L 368.765784 168.662609 
L 368.978839 168.647344 
L 369.283202 168.540489 
L 369.983239 167.685648 
L 370.591966 166.571302 
L 370.926766 165.792785 
L 371.961602 163.472503 
L 372.357275 162.693987 
L 377.044475 150.649888 
L 382.462148 134.697945 
L 382.918693 133.507274 
L 382.918693 133.507274 
" style="fill:none;stroke:#ff0000;stroke-linecap:square;stroke-width:1.5;"/>
   </g>
   <g id="line2d_27">
    <path clip-path="url(#p0fce4d687b)" d="M 128.896802 161.35378 
" style="fill:none;stroke:#ffffff;stroke-linecap:square;stroke-width:1.5;"/>
    <defs>
     <path d="M 0 -5 
L -1.12257 -1.545085 
L -4.755283 -1.545085 
L -1.816356 0.59017 
L -2.938926 4.045085 
L -0 1.90983 
L 2.938926 4.045085 
L 1.816356 0.59017 
L 4.755283 -1.545085 
L 1.12257 -1.545085 
z
" id="m852bcc9238" style="stroke:#ffffff;stroke-linejoin:bevel;"/>
    </defs>
    <g clip-path="url(#p0fce4d687b)">
     <use style="fill:#0000ff;stroke:#ffffff;stroke-linejoin:bevel;" x="128.896802" xlink:href="#m852bcc9238" y="161.35378"/>
    </g>
   </g>
   <g id="line2d_28">
    <path clip-path="url(#p0fce4d687b)" d="M 105.826039 159.121973 
" style="fill:none;stroke:#ffffff;stroke-linecap:square;stroke-width:1.5;"/>
    <defs>
     <path d="M 0 -5 
L -1.12257 -1.545085 
L -4.755283 -1.545085 
L -1.816356 0.59017 
L -2.938926 4.045085 
L -0 1.90983 
L 2.938926 4.045085 
L 1.816356 0.59017 
L 4.755283 -1.545085 
L 1.12257 -1.545085 
z
" id="m1fcdfd4c06" style="stroke:#ffffff;stroke-linejoin:bevel;"/>
    </defs>
    <g clip-path="url(#p0fce4d687b)">
     <use style="fill:#ff0000;stroke:#ffffff;stroke-linejoin:bevel;" x="105.826039" xlink:href="#m1fcdfd4c06" y="159.121973"/>
    </g>
   </g>
   <g id="patch_3">
    <path d="M 63.336875 339.84 
L 63.336875 7.2 
" style="fill:none;stroke:#000000;stroke-linecap:square;stroke-linejoin:miter;stroke-width:0.8;"/>
   </g>
   <g id="patch_4">
    <path d="M 398.136875 339.84 
L 398.136875 7.2 
" style="fill:none;stroke:#000000;stroke-linecap:square;stroke-linejoin:miter;stroke-width:0.8;"/>
   </g>
   <g id="patch_5">
    <path d="M 63.336875 339.84 
L 398.136875 339.84 
" style="fill:none;stroke:#000000;stroke-linecap:square;stroke-linejoin:miter;stroke-width:0.8;"/>
   </g>
   <g id="patch_6">
    <path d="M 63.336875 7.2 
L 398.136875 7.2 
" style="fill:none;stroke:#000000;stroke-linecap:square;stroke-linejoin:miter;stroke-width:0.8;"/>
   </g>
   <g id="text_15">
    <g id="patch_7">
     <path d="M 75.036875 331.242688 
L 166.79375 331.242688 
L 166.79375 293.760312 
L 75.036875 293.760312 
z
" style="fill:#ffffff;stroke:#000000;stroke-linejoin:miter;stroke-width:0.75;"/>
    </g>
    <!-- Auto_00047 -->
    <g transform="translate(80.076875 308.521562)scale(0.14 -0.14)">
     <defs>
      <path d="M 2928 1419 
L 1288 1419 
L 1000 750 
Q 894 503 894 381 
Q 894 284 986 211 
Q 1078 138 1384 116 
L 1384 0 
L 50 0 
L 50 116 
Q 316 163 394 238 
Q 553 388 747 847 
L 2238 4334 
L 2347 4334 
L 3822 809 
Q 4000 384 4145 257 
Q 4291 131 4550 116 
L 4550 0 
L 2878 0 
L 2878 116 
Q 3131 128 3220 200 
Q 3309 272 3309 375 
Q 3309 513 3184 809 
L 2928 1419 
z
M 2841 1650 
L 2122 3363 
L 1384 1650 
L 2841 1650 
z
" id="TimesNewRomanPSMT-41" transform="scale(0.015625)"/>
      <path d="M 2709 2863 
L 2709 1128 
Q 2709 631 2732 520 
Q 2756 409 2807 365 
Q 2859 322 2928 322 
Q 3025 322 3147 375 
L 3191 266 
L 2334 -88 
L 2194 -88 
L 2194 519 
Q 1825 119 1631 15 
Q 1438 -88 1222 -88 
Q 981 -88 804 51 
Q 628 191 559 409 
Q 491 628 491 1028 
L 491 2306 
Q 491 2509 447 2587 
Q 403 2666 317 2708 
Q 231 2750 6 2747 
L 6 2863 
L 1009 2863 
L 1009 947 
Q 1009 547 1148 422 
Q 1288 297 1484 297 
Q 1619 297 1789 381 
Q 1959 466 2194 703 
L 2194 2325 
Q 2194 2569 2105 2655 
Q 2016 2741 1734 2747 
L 1734 2863 
L 2709 2863 
z
" id="TimesNewRomanPSMT-75" transform="scale(0.015625)"/>
      <path d="M 3256 -1381 
L -53 -1381 
L -53 -1119 
L 3256 -1119 
L 3256 -1381 
z
" id="TimesNewRomanPSMT-5f" transform="scale(0.015625)"/>
      <path d="M 644 4238 
L 2916 4238 
L 2916 4119 
L 1503 -88 
L 1153 -88 
L 2419 3728 
L 1253 3728 
Q 900 3728 750 3644 
Q 488 3500 328 3200 
L 238 3234 
L 644 4238 
z
" id="TimesNewRomanPSMT-37" transform="scale(0.015625)"/>
     </defs>
     <use xlink:href="#TimesNewRomanPSMT-41"/>
     <use x="72.216797" xlink:href="#TimesNewRomanPSMT-75"/>
     <use x="122.216797" xlink:href="#TimesNewRomanPSMT-74"/>
     <use x="150" xlink:href="#TimesNewRomanPSMT-6f"/>
     <use x="200" xlink:href="#TimesNewRomanPSMT-5f"/>
     <use x="250" xlink:href="#TimesNewRomanPSMT-30"/>
     <use x="300" xlink:href="#TimesNewRomanPSMT-30"/>
     <use x="350" xlink:href="#TimesNewRomanPSMT-30"/>
     <use x="400" xlink:href="#TimesNewRomanPSMT-34"/>
     <use x="450" xlink:href="#TimesNewRomanPSMT-37"/>
    </g>
    <!-- Vs: 263.72m/s -->
    <g transform="translate(80.076875 323.208)scale(0.14 -0.14)">
     <defs>
      <path d="M 903 2950 
Q 1047 2950 1148 2848 
Q 1250 2747 1250 2603 
Q 1250 2459 1148 2357 
Q 1047 2256 903 2256 
Q 759 2256 657 2357 
Q 556 2459 556 2603 
Q 556 2747 657 2848 
Q 759 2950 903 2950 
z
M 897 609 
Q 1044 609 1145 506 
Q 1247 403 1247 259 
Q 1247 116 1144 14 
Q 1041 -88 897 -88 
Q 753 -88 651 14 
Q 550 116 550 259 
Q 550 403 651 506 
Q 753 609 897 609 
z
" id="TimesNewRomanPSMT-3a" transform="scale(0.015625)"/>
      <path d="M 1794 4444 
L 259 -88 
L 9 -88 
L 1544 4444 
L 1794 4444 
z
" id="TimesNewRomanPSMT-2f" transform="scale(0.015625)"/>
     </defs>
     <use xlink:href="#TimesNewRomanPSMT-56"/>
     <use x="72.216797" xlink:href="#TimesNewRomanPSMT-73"/>
     <use x="111.132812" xlink:href="#TimesNewRomanPSMT-3a"/>
     <use x="138.916016" xlink:href="#TimesNewRomanPSMT-20"/>
     <use x="163.916016" xlink:href="#TimesNewRomanPSMT-32"/>
     <use x="213.916016" xlink:href="#TimesNewRomanPSMT-36"/>
     <use x="263.916016" xlink:href="#TimesNewRomanPSMT-33"/>
     <use x="313.916016" xlink:href="#TimesNewRomanPSMT-2e"/>
     <use x="338.916016" xlink:href="#TimesNewRomanPSMT-37"/>
     <use x="388.916016" xlink:href="#TimesNewRomanPSMT-32"/>
     <use x="438.916016" xlink:href="#TimesNewRomanPSMT-6d"/>
     <use x="516.699219" xlink:href="#TimesNewRomanPSMT-2f"/>
     <use x="544.482422" xlink:href="#TimesNewRomanPSMT-73"/>
    </g>
   </g>
  </g>
 </g>
 <defs>
  <clipPath id="p0fce4d687b">
   <rect height="332.64" width="334.8" x="63.336875" y="7.2"/>
  </clipPath>
 </defs>
</svg>
