<?xml version="1.0" encoding="utf-8" standalone="no"?>
<!DOCTYPE svg PUBLIC "-//W3C//DTD SVG 1.1//EN"
  "http://www.w3.org/Graphics/SVG/1.1/DTD/svg11.dtd">
<svg height="383.471875pt" version="1.1" viewBox="0 0 421.086875 383.471875" width="421.086875pt" xmlns="http://www.w3.org/2000/svg" xmlns:xlink="http://www.w3.org/1999/xlink">
 <metadata>
  <rdf:RDF xmlns:cc="http://creativecommons.org/ns#" xmlns:dc="http://purl.org/dc/elements/1.1/" xmlns:rdf="http://www.w3.org/1999/02/22-rdf-syntax-ns#">
   <cc:Work>
    <dc:type rdf:resource="http://purl.org/dc/dcmitype/StillImage"/>
    <dc:date>2021-06-11T14:39:39.535070</dc:date>
    <dc:format>image/svg+xml</dc:format>
    <dc:creator>
     <cc:Agent>
      <dc:title>Matplotlib v3.4.2, https://matplotlib.org/</dc:title>
     </cc:Agent>
    </dc:creator>
   </cc:Work>
  </rdf:RDF>
 </metadata>
 <defs>
  <style type="text/css">*{stroke-linecap:butt;stroke-linejoin:round;}</style>
 </defs>
 <g id="figure_1">
  <g id="patch_1">
   <path d="M 0 383.471875 
L 421.086875 383.471875 
L 421.086875 0 
L 0 0 
z
" style="fill:#ffffff;"/>
  </g>
  <g id="axes_1">
   <g id="patch_2">
    <path d="M 63.336875 339.84 
L 398.136875 339.84 
L 398.136875 7.2 
L 63.336875 7.2 
z
" style="fill:#ffffff;"/>
   </g>
   <g id="matplotlib.axis_1">
    <g id="xtick_1">
     <g id="line2d_1">
      <path clip-path="url(#p9e6f5bc807)" d="M 93.773239 339.84 
L 93.773239 7.2 
" style="fill:none;stroke:#000000;stroke-dasharray:0.5,0.825;stroke-dashoffset:0;stroke-width:0.5;"/>
     </g>
     <g id="line2d_2">
      <defs>
       <path d="M 0 0 
L 0 3.5 
" id="m0a48710549" style="stroke:#000000;stroke-width:0.8;"/>
      </defs>
      <g>
       <use style="stroke:#000000;stroke-width:0.8;" x="93.773239" xlink:href="#m0a48710549" y="339.84"/>
      </g>
     </g>
     <g id="text_1">
      <!-- 0.000 -->
      <g transform="translate(78.023239 356.56125)scale(0.14 -0.14)">
       <defs>
        <path d="M 231 2094 
Q 231 2819 450 3342 
Q 669 3866 1031 4122 
Q 1313 4325 1613 4325 
Q 2100 4325 2488 3828 
Q 2972 3213 2972 2159 
Q 2972 1422 2759 906 
Q 2547 391 2217 158 
Q 1888 -75 1581 -75 
Q 975 -75 572 641 
Q 231 1244 231 2094 
z
M 844 2016 
Q 844 1141 1059 588 
Q 1238 122 1591 122 
Q 1759 122 1940 273 
Q 2122 425 2216 781 
Q 2359 1319 2359 2297 
Q 2359 3022 2209 3506 
Q 2097 3866 1919 4016 
Q 1791 4119 1609 4119 
Q 1397 4119 1231 3928 
Q 1006 3669 925 3112 
Q 844 2556 844 2016 
z
" id="TimesNewRomanPSMT-30" transform="scale(0.015625)"/>
        <path d="M 800 606 
Q 947 606 1047 504 
Q 1147 403 1147 259 
Q 1147 116 1045 14 
Q 944 -88 800 -88 
Q 656 -88 554 14 
Q 453 116 453 259 
Q 453 406 554 506 
Q 656 606 800 606 
z
" id="TimesNewRomanPSMT-2e" transform="scale(0.015625)"/>
       </defs>
       <use xlink:href="#TimesNewRomanPSMT-30"/>
       <use x="50" xlink:href="#TimesNewRomanPSMT-2e"/>
       <use x="75" xlink:href="#TimesNewRomanPSMT-30"/>
       <use x="125" xlink:href="#TimesNewRomanPSMT-30"/>
       <use x="175" xlink:href="#TimesNewRomanPSMT-30"/>
      </g>
     </g>
    </g>
    <g id="xtick_2">
     <g id="line2d_3">
      <path clip-path="url(#p9e6f5bc807)" d="M 154.645966 339.84 
L 154.645966 7.2 
" style="fill:none;stroke:#000000;stroke-dasharray:0.5,0.825;stroke-dashoffset:0;stroke-width:0.5;"/>
     </g>
     <g id="line2d_4">
      <g>
       <use style="stroke:#000000;stroke-width:0.8;" x="154.645966" xlink:href="#m0a48710549" y="339.84"/>
      </g>
     </g>
     <g id="text_2">
      <!-- 0.001 -->
      <g transform="translate(138.895966 356.56125)scale(0.14 -0.14)">
       <defs>
        <path d="M 750 3822 
L 1781 4325 
L 1884 4325 
L 1884 747 
Q 1884 391 1914 303 
Q 1944 216 2037 169 
Q 2131 122 2419 116 
L 2419 0 
L 825 0 
L 825 116 
Q 1125 122 1212 167 
Q 1300 213 1334 289 
Q 1369 366 1369 747 
L 1369 3034 
Q 1369 3497 1338 3628 
Q 1316 3728 1258 3775 
Q 1200 3822 1119 3822 
Q 1003 3822 797 3725 
L 750 3822 
z
" id="TimesNewRomanPSMT-31" transform="scale(0.015625)"/>
       </defs>
       <use xlink:href="#TimesNewRomanPSMT-30"/>
       <use x="50" xlink:href="#TimesNewRomanPSMT-2e"/>
       <use x="75" xlink:href="#TimesNewRomanPSMT-30"/>
       <use x="125" xlink:href="#TimesNewRomanPSMT-30"/>
       <use x="175" xlink:href="#TimesNewRomanPSMT-31"/>
      </g>
     </g>
    </g>
    <g id="xtick_3">
     <g id="line2d_5">
      <path clip-path="url(#p9e6f5bc807)" d="M 215.518693 339.84 
L 215.518693 7.2 
" style="fill:none;stroke:#000000;stroke-dasharray:0.5,0.825;stroke-dashoffset:0;stroke-width:0.5;"/>
     </g>
     <g id="line2d_6">
      <g>
       <use style="stroke:#000000;stroke-width:0.8;" x="215.518693" xlink:href="#m0a48710549" y="339.84"/>
      </g>
     </g>
     <g id="text_3">
      <!-- 0.002 -->
      <g transform="translate(199.768693 356.56125)scale(0.14 -0.14)">
       <defs>
        <path d="M 2934 816 
L 2638 0 
L 138 0 
L 138 116 
Q 1241 1122 1691 1759 
Q 2141 2397 2141 2925 
Q 2141 3328 1894 3587 
Q 1647 3847 1303 3847 
Q 991 3847 742 3664 
Q 494 3481 375 3128 
L 259 3128 
Q 338 3706 661 4015 
Q 984 4325 1469 4325 
Q 1984 4325 2329 3994 
Q 2675 3663 2675 3213 
Q 2675 2891 2525 2569 
Q 2294 2063 1775 1497 
Q 997 647 803 472 
L 1909 472 
Q 2247 472 2383 497 
Q 2519 522 2628 598 
Q 2738 675 2819 816 
L 2934 816 
z
" id="TimesNewRomanPSMT-32" transform="scale(0.015625)"/>
       </defs>
       <use xlink:href="#TimesNewRomanPSMT-30"/>
       <use x="50" xlink:href="#TimesNewRomanPSMT-2e"/>
       <use x="75" xlink:href="#TimesNewRomanPSMT-30"/>
       <use x="125" xlink:href="#TimesNewRomanPSMT-30"/>
       <use x="175" xlink:href="#TimesNewRomanPSMT-32"/>
      </g>
     </g>
    </g>
    <g id="xtick_4">
     <g id="line2d_7">
      <path clip-path="url(#p9e6f5bc807)" d="M 276.39142 339.84 
L 276.39142 7.2 
" style="fill:none;stroke:#000000;stroke-dasharray:0.5,0.825;stroke-dashoffset:0;stroke-width:0.5;"/>
     </g>
     <g id="line2d_8">
      <g>
       <use style="stroke:#000000;stroke-width:0.8;" x="276.39142" xlink:href="#m0a48710549" y="339.84"/>
      </g>
     </g>
     <g id="text_4">
      <!-- 0.003 -->
      <g transform="translate(260.64142 356.56125)scale(0.14 -0.14)">
       <defs>
        <path d="M 325 3431 
Q 506 3859 782 4092 
Q 1059 4325 1472 4325 
Q 1981 4325 2253 3994 
Q 2459 3747 2459 3466 
Q 2459 3003 1878 2509 
Q 2269 2356 2469 2072 
Q 2669 1788 2669 1403 
Q 2669 853 2319 450 
Q 1863 -75 997 -75 
Q 569 -75 414 31 
Q 259 138 259 259 
Q 259 350 332 419 
Q 406 488 509 488 
Q 588 488 669 463 
Q 722 447 909 348 
Q 1097 250 1169 231 
Q 1284 197 1416 197 
Q 1734 197 1970 444 
Q 2206 691 2206 1028 
Q 2206 1275 2097 1509 
Q 2016 1684 1919 1775 
Q 1784 1900 1550 2001 
Q 1316 2103 1072 2103 
L 972 2103 
L 972 2197 
Q 1219 2228 1467 2375 
Q 1716 2522 1828 2728 
Q 1941 2934 1941 3181 
Q 1941 3503 1739 3701 
Q 1538 3900 1238 3900 
Q 753 3900 428 3381 
L 325 3431 
z
" id="TimesNewRomanPSMT-33" transform="scale(0.015625)"/>
       </defs>
       <use xlink:href="#TimesNewRomanPSMT-30"/>
       <use x="50" xlink:href="#TimesNewRomanPSMT-2e"/>
       <use x="75" xlink:href="#TimesNewRomanPSMT-30"/>
       <use x="125" xlink:href="#TimesNewRomanPSMT-30"/>
       <use x="175" xlink:href="#TimesNewRomanPSMT-33"/>
      </g>
     </g>
    </g>
    <g id="xtick_5">
     <g id="line2d_9">
      <path clip-path="url(#p9e6f5bc807)" d="M 337.264148 339.84 
L 337.264148 7.2 
" style="fill:none;stroke:#000000;stroke-dasharray:0.5,0.825;stroke-dashoffset:0;stroke-width:0.5;"/>
     </g>
     <g id="line2d_10">
      <g>
       <use style="stroke:#000000;stroke-width:0.8;" x="337.264148" xlink:href="#m0a48710549" y="339.84"/>
      </g>
     </g>
     <g id="text_5">
      <!-- 0.004 -->
      <g transform="translate(321.514148 356.56125)scale(0.14 -0.14)">
       <defs>
        <path d="M 2978 1563 
L 2978 1119 
L 2409 1119 
L 2409 0 
L 1894 0 
L 1894 1119 
L 100 1119 
L 100 1519 
L 2066 4325 
L 2409 4325 
L 2409 1563 
L 2978 1563 
z
M 1894 1563 
L 1894 3666 
L 406 1563 
L 1894 1563 
z
" id="TimesNewRomanPSMT-34" transform="scale(0.015625)"/>
       </defs>
       <use xlink:href="#TimesNewRomanPSMT-30"/>
       <use x="50" xlink:href="#TimesNewRomanPSMT-2e"/>
       <use x="75" xlink:href="#TimesNewRomanPSMT-30"/>
       <use x="125" xlink:href="#TimesNewRomanPSMT-30"/>
       <use x="175" xlink:href="#TimesNewRomanPSMT-34"/>
      </g>
     </g>
    </g>
    <g id="xtick_6">
     <g id="line2d_11">
      <path clip-path="url(#p9e6f5bc807)" d="M 398.136875 339.84 
L 398.136875 7.2 
" style="fill:none;stroke:#000000;stroke-dasharray:0.5,0.825;stroke-dashoffset:0;stroke-width:0.5;"/>
     </g>
     <g id="line2d_12">
      <g>
       <use style="stroke:#000000;stroke-width:0.8;" x="398.136875" xlink:href="#m0a48710549" y="339.84"/>
      </g>
     </g>
     <g id="text_6">
      <!-- 0.005 -->
      <g transform="translate(382.386875 356.56125)scale(0.14 -0.14)">
       <defs>
        <path d="M 2778 4238 
L 2534 3706 
L 1259 3706 
L 981 3138 
Q 1809 3016 2294 2522 
Q 2709 2097 2709 1522 
Q 2709 1188 2573 903 
Q 2438 619 2231 419 
Q 2025 219 1772 97 
Q 1413 -75 1034 -75 
Q 653 -75 479 54 
Q 306 184 306 341 
Q 306 428 378 495 
Q 450 563 559 563 
Q 641 563 702 538 
Q 763 513 909 409 
Q 1144 247 1384 247 
Q 1750 247 2026 523 
Q 2303 800 2303 1197 
Q 2303 1581 2056 1914 
Q 1809 2247 1375 2428 
Q 1034 2569 447 2591 
L 1259 4238 
L 2778 4238 
z
" id="TimesNewRomanPSMT-35" transform="scale(0.015625)"/>
       </defs>
       <use xlink:href="#TimesNewRomanPSMT-30"/>
       <use x="50" xlink:href="#TimesNewRomanPSMT-2e"/>
       <use x="75" xlink:href="#TimesNewRomanPSMT-30"/>
       <use x="125" xlink:href="#TimesNewRomanPSMT-30"/>
       <use x="175" xlink:href="#TimesNewRomanPSMT-35"/>
      </g>
     </g>
    </g>
    <g id="text_7">
     <!-- Time (sec) -->
     <g transform="translate(200.858906 373.277188)scale(0.14 -0.14)">
      <defs>
       <path d="M 3703 4238 
L 3750 3244 
L 3631 3244 
Q 3597 3506 3538 3619 
Q 3441 3800 3280 3886 
Q 3119 3972 2856 3972 
L 2259 3972 
L 2259 734 
Q 2259 344 2344 247 
Q 2463 116 2709 116 
L 2856 116 
L 2856 0 
L 1059 0 
L 1059 116 
L 1209 116 
Q 1478 116 1591 278 
Q 1659 378 1659 734 
L 1659 3972 
L 1150 3972 
Q 853 3972 728 3928 
Q 566 3869 450 3700 
Q 334 3531 313 3244 
L 194 3244 
L 244 4238 
L 3703 4238 
z
" id="TimesNewRomanPSMT-54" transform="scale(0.015625)"/>
       <path d="M 928 4444 
Q 1059 4444 1151 4351 
Q 1244 4259 1244 4128 
Q 1244 3997 1151 3903 
Q 1059 3809 928 3809 
Q 797 3809 703 3903 
Q 609 3997 609 4128 
Q 609 4259 701 4351 
Q 794 4444 928 4444 
z
M 1188 2947 
L 1188 647 
Q 1188 378 1227 289 
Q 1266 200 1342 156 
Q 1419 113 1622 113 
L 1622 0 
L 231 0 
L 231 113 
Q 441 113 512 153 
Q 584 194 626 287 
Q 669 381 669 647 
L 669 1750 
Q 669 2216 641 2353 
Q 619 2453 572 2492 
Q 525 2531 444 2531 
Q 356 2531 231 2484 
L 188 2597 
L 1050 2947 
L 1188 2947 
z
" id="TimesNewRomanPSMT-69" transform="scale(0.015625)"/>
       <path d="M 1050 2338 
Q 1363 2650 1419 2697 
Q 1559 2816 1721 2881 
Q 1884 2947 2044 2947 
Q 2313 2947 2506 2790 
Q 2700 2634 2766 2338 
Q 3088 2713 3309 2830 
Q 3531 2947 3766 2947 
Q 3994 2947 4170 2830 
Q 4347 2713 4450 2447 
Q 4519 2266 4519 1878 
L 4519 647 
Q 4519 378 4559 278 
Q 4591 209 4675 161 
Q 4759 113 4950 113 
L 4950 0 
L 3538 0 
L 3538 113 
L 3597 113 
Q 3781 113 3884 184 
Q 3956 234 3988 344 
Q 4000 397 4000 647 
L 4000 1878 
Q 4000 2228 3916 2372 
Q 3794 2572 3525 2572 
Q 3359 2572 3192 2489 
Q 3025 2406 2788 2181 
L 2781 2147 
L 2788 2013 
L 2788 647 
Q 2788 353 2820 281 
Q 2853 209 2943 161 
Q 3034 113 3253 113 
L 3253 0 
L 1806 0 
L 1806 113 
Q 2044 113 2133 169 
Q 2222 225 2256 338 
Q 2272 391 2272 647 
L 2272 1878 
Q 2272 2228 2169 2381 
Q 2031 2581 1784 2581 
Q 1616 2581 1450 2491 
Q 1191 2353 1050 2181 
L 1050 647 
Q 1050 366 1089 281 
Q 1128 197 1204 155 
Q 1281 113 1516 113 
L 1516 0 
L 100 0 
L 100 113 
Q 297 113 375 155 
Q 453 197 493 289 
Q 534 381 534 647 
L 534 1741 
Q 534 2213 506 2350 
Q 484 2453 437 2492 
Q 391 2531 309 2531 
Q 222 2531 100 2484 
L 53 2597 
L 916 2947 
L 1050 2947 
L 1050 2338 
z
" id="TimesNewRomanPSMT-6d" transform="scale(0.015625)"/>
       <path d="M 681 1784 
Q 678 1147 991 784 
Q 1303 422 1725 422 
Q 2006 422 2214 576 
Q 2422 731 2563 1106 
L 2659 1044 
Q 2594 616 2278 264 
Q 1963 -88 1488 -88 
Q 972 -88 605 314 
Q 238 716 238 1394 
Q 238 2128 614 2539 
Q 991 2950 1559 2950 
Q 2041 2950 2350 2633 
Q 2659 2316 2659 1784 
L 681 1784 
z
M 681 1966 
L 2006 1966 
Q 1991 2241 1941 2353 
Q 1863 2528 1708 2628 
Q 1553 2728 1384 2728 
Q 1125 2728 920 2526 
Q 716 2325 681 1966 
z
" id="TimesNewRomanPSMT-65" transform="scale(0.015625)"/>
       <path id="TimesNewRomanPSMT-20" transform="scale(0.015625)"/>
       <path d="M 1988 -1253 
L 1988 -1369 
Q 1516 -1131 1200 -813 
Q 750 -359 506 256 
Q 263 872 263 1534 
Q 263 2503 741 3301 
Q 1219 4100 1988 4444 
L 1988 4313 
Q 1603 4100 1356 3731 
Q 1109 3363 987 2797 
Q 866 2231 866 1616 
Q 866 947 969 400 
Q 1050 -31 1165 -292 
Q 1281 -553 1476 -793 
Q 1672 -1034 1988 -1253 
z
" id="TimesNewRomanPSMT-28" transform="scale(0.015625)"/>
       <path d="M 2050 2947 
L 2050 1972 
L 1947 1972 
Q 1828 2431 1642 2597 
Q 1456 2763 1169 2763 
Q 950 2763 815 2647 
Q 681 2531 681 2391 
Q 681 2216 781 2091 
Q 878 1963 1175 1819 
L 1631 1597 
Q 2266 1288 2266 781 
Q 2266 391 1970 151 
Q 1675 -88 1309 -88 
Q 1047 -88 709 6 
Q 606 38 541 38 
Q 469 38 428 -44 
L 325 -44 
L 325 978 
L 428 978 
Q 516 541 762 319 
Q 1009 97 1316 97 
Q 1531 97 1667 223 
Q 1803 350 1803 528 
Q 1803 744 1651 891 
Q 1500 1038 1047 1263 
Q 594 1488 453 1669 
Q 313 1847 313 2119 
Q 313 2472 555 2709 
Q 797 2947 1181 2947 
Q 1350 2947 1591 2875 
Q 1750 2828 1803 2828 
Q 1853 2828 1881 2850 
Q 1909 2872 1947 2947 
L 2050 2947 
z
" id="TimesNewRomanPSMT-73" transform="scale(0.015625)"/>
       <path d="M 2631 1088 
Q 2516 522 2178 217 
Q 1841 -88 1431 -88 
Q 944 -88 581 321 
Q 219 731 219 1428 
Q 219 2103 620 2525 
Q 1022 2947 1584 2947 
Q 2006 2947 2278 2723 
Q 2550 2500 2550 2259 
Q 2550 2141 2473 2067 
Q 2397 1994 2259 1994 
Q 2075 1994 1981 2113 
Q 1928 2178 1911 2362 
Q 1894 2547 1784 2644 
Q 1675 2738 1481 2738 
Q 1169 2738 978 2506 
Q 725 2200 725 1697 
Q 725 1184 976 792 
Q 1228 400 1656 400 
Q 1963 400 2206 609 
Q 2378 753 2541 1131 
L 2631 1088 
z
" id="TimesNewRomanPSMT-63" transform="scale(0.015625)"/>
       <path d="M 144 4313 
L 144 4444 
Q 619 4209 934 3891 
Q 1381 3434 1625 2820 
Q 1869 2206 1869 1541 
Q 1869 572 1392 -226 
Q 916 -1025 144 -1369 
L 144 -1253 
Q 528 -1038 776 -670 
Q 1025 -303 1145 264 
Q 1266 831 1266 1447 
Q 1266 2113 1163 2663 
Q 1084 3094 967 3353 
Q 850 3613 656 3853 
Q 463 4094 144 4313 
z
" id="TimesNewRomanPSMT-29" transform="scale(0.015625)"/>
      </defs>
      <use xlink:href="#TimesNewRomanPSMT-54"/>
      <use x="57.583984" xlink:href="#TimesNewRomanPSMT-69"/>
      <use x="85.367188" xlink:href="#TimesNewRomanPSMT-6d"/>
      <use x="163.150391" xlink:href="#TimesNewRomanPSMT-65"/>
      <use x="207.535156" xlink:href="#TimesNewRomanPSMT-20"/>
      <use x="232.535156" xlink:href="#TimesNewRomanPSMT-28"/>
      <use x="265.835938" xlink:href="#TimesNewRomanPSMT-73"/>
      <use x="304.751953" xlink:href="#TimesNewRomanPSMT-65"/>
      <use x="349.136719" xlink:href="#TimesNewRomanPSMT-63"/>
      <use x="393.521484" xlink:href="#TimesNewRomanPSMT-29"/>
     </g>
    </g>
   </g>
   <g id="matplotlib.axis_2">
    <g id="ytick_1">
     <g id="line2d_13">
      <path clip-path="url(#p9e6f5bc807)" d="M 63.336875 281.425513 
L 398.136875 281.425513 
" style="fill:none;stroke:#000000;stroke-dasharray:0.5,0.825;stroke-dashoffset:0;stroke-width:0.5;"/>
     </g>
     <g id="line2d_14">
      <defs>
       <path d="M 0 0 
L -3.5 0 
" id="mfc696e1f10" style="stroke:#000000;stroke-width:0.8;"/>
      </defs>
      <g>
       <use style="stroke:#000000;stroke-width:0.8;" x="63.336875" xlink:href="#mfc696e1f10" y="281.425513"/>
      </g>
     </g>
     <g id="text_8">
      <!-- −0.04 -->
      <g transform="translate(23.942188 286.286138)scale(0.14 -0.14)">
       <defs>
        <path d="M 3484 2000 
L 116 2000 
L 116 2256 
L 3484 2256 
L 3484 2000 
z
" id="TimesNewRomanPSMT-2212" transform="scale(0.015625)"/>
       </defs>
       <use xlink:href="#TimesNewRomanPSMT-2212"/>
       <use x="56.396484" xlink:href="#TimesNewRomanPSMT-30"/>
       <use x="106.396484" xlink:href="#TimesNewRomanPSMT-2e"/>
       <use x="131.396484" xlink:href="#TimesNewRomanPSMT-30"/>
       <use x="181.396484" xlink:href="#TimesNewRomanPSMT-34"/>
      </g>
     </g>
    </g>
    <g id="ytick_2">
     <g id="line2d_15">
      <path clip-path="url(#p9e6f5bc807)" d="M 63.336875 217.161998 
L 398.136875 217.161998 
" style="fill:none;stroke:#000000;stroke-dasharray:0.5,0.825;stroke-dashoffset:0;stroke-width:0.5;"/>
     </g>
     <g id="line2d_16">
      <g>
       <use style="stroke:#000000;stroke-width:0.8;" x="63.336875" xlink:href="#mfc696e1f10" y="217.161998"/>
      </g>
     </g>
     <g id="text_9">
      <!-- −0.02 -->
      <g transform="translate(23.942188 222.022623)scale(0.14 -0.14)">
       <use xlink:href="#TimesNewRomanPSMT-2212"/>
       <use x="56.396484" xlink:href="#TimesNewRomanPSMT-30"/>
       <use x="106.396484" xlink:href="#TimesNewRomanPSMT-2e"/>
       <use x="131.396484" xlink:href="#TimesNewRomanPSMT-30"/>
       <use x="181.396484" xlink:href="#TimesNewRomanPSMT-32"/>
      </g>
     </g>
    </g>
    <g id="ytick_3">
     <g id="line2d_17">
      <path clip-path="url(#p9e6f5bc807)" d="M 63.336875 152.898484 
L 398.136875 152.898484 
" style="fill:none;stroke:#000000;stroke-dasharray:0.5,0.825;stroke-dashoffset:0;stroke-width:0.5;"/>
     </g>
     <g id="line2d_18">
      <g>
       <use style="stroke:#000000;stroke-width:0.8;" x="63.336875" xlink:href="#mfc696e1f10" y="152.898484"/>
      </g>
     </g>
     <g id="text_10">
      <!-- 0.00 -->
      <g transform="translate(31.836875 157.759109)scale(0.14 -0.14)">
       <use xlink:href="#TimesNewRomanPSMT-30"/>
       <use x="50" xlink:href="#TimesNewRomanPSMT-2e"/>
       <use x="75" xlink:href="#TimesNewRomanPSMT-30"/>
       <use x="125" xlink:href="#TimesNewRomanPSMT-30"/>
      </g>
     </g>
    </g>
    <g id="ytick_4">
     <g id="line2d_19">
      <path clip-path="url(#p9e6f5bc807)" d="M 63.336875 88.63497 
L 398.136875 88.63497 
" style="fill:none;stroke:#000000;stroke-dasharray:0.5,0.825;stroke-dashoffset:0;stroke-width:0.5;"/>
     </g>
     <g id="line2d_20">
      <g>
       <use style="stroke:#000000;stroke-width:0.8;" x="63.336875" xlink:href="#mfc696e1f10" y="88.63497"/>
      </g>
     </g>
     <g id="text_11">
      <!-- 0.02 -->
      <g transform="translate(31.836875 93.495595)scale(0.14 -0.14)">
       <use xlink:href="#TimesNewRomanPSMT-30"/>
       <use x="50" xlink:href="#TimesNewRomanPSMT-2e"/>
       <use x="75" xlink:href="#TimesNewRomanPSMT-30"/>
       <use x="125" xlink:href="#TimesNewRomanPSMT-32"/>
      </g>
     </g>
    </g>
    <g id="ytick_5">
     <g id="line2d_21">
      <path clip-path="url(#p9e6f5bc807)" d="M 63.336875 24.371455 
L 398.136875 24.371455 
" style="fill:none;stroke:#000000;stroke-dasharray:0.5,0.825;stroke-dashoffset:0;stroke-width:0.5;"/>
     </g>
     <g id="line2d_22">
      <g>
       <use style="stroke:#000000;stroke-width:0.8;" x="63.336875" xlink:href="#mfc696e1f10" y="24.371455"/>
      </g>
     </g>
     <g id="text_12">
      <!-- 0.04 -->
      <g transform="translate(31.836875 29.23208)scale(0.14 -0.14)">
       <use xlink:href="#TimesNewRomanPSMT-30"/>
       <use x="50" xlink:href="#TimesNewRomanPSMT-2e"/>
       <use x="75" xlink:href="#TimesNewRomanPSMT-30"/>
       <use x="125" xlink:href="#TimesNewRomanPSMT-34"/>
      </g>
     </g>
    </g>
    <g id="text_13">
     <!-- Volatage (V) -->
     <g transform="translate(16.92125 209.352344)rotate(-90)scale(0.14 -0.14)">
      <defs>
       <path d="M 4544 4238 
L 4544 4122 
Q 4319 4081 4203 3978 
Q 4038 3825 3909 3509 
L 2431 -97 
L 2316 -97 
L 728 3556 
Q 606 3838 556 3900 
Q 478 3997 364 4051 
Q 250 4106 56 4122 
L 56 4238 
L 1788 4238 
L 1788 4122 
Q 1494 4094 1406 4022 
Q 1319 3950 1319 3838 
Q 1319 3681 1463 3350 
L 2541 866 
L 3541 3319 
Q 3688 3681 3688 3822 
Q 3688 3913 3597 3995 
Q 3506 4078 3291 4113 
Q 3275 4116 3238 4122 
L 3238 4238 
L 4544 4238 
z
" id="TimesNewRomanPSMT-56" transform="scale(0.015625)"/>
       <path d="M 1600 2947 
Q 2250 2947 2644 2453 
Q 2978 2031 2978 1484 
Q 2978 1100 2793 706 
Q 2609 313 2286 112 
Q 1963 -88 1566 -88 
Q 919 -88 538 428 
Q 216 863 216 1403 
Q 216 1797 411 2186 
Q 606 2575 925 2761 
Q 1244 2947 1600 2947 
z
M 1503 2744 
Q 1338 2744 1170 2645 
Q 1003 2547 900 2300 
Q 797 2053 797 1666 
Q 797 1041 1045 587 
Q 1294 134 1700 134 
Q 2003 134 2200 384 
Q 2397 634 2397 1244 
Q 2397 2006 2069 2444 
Q 1847 2744 1503 2744 
z
" id="TimesNewRomanPSMT-6f" transform="scale(0.015625)"/>
       <path d="M 1184 4444 
L 1184 647 
Q 1184 378 1223 290 
Q 1263 203 1344 158 
Q 1425 113 1647 113 
L 1647 0 
L 244 0 
L 244 113 
Q 441 113 512 153 
Q 584 194 625 287 
Q 666 381 666 647 
L 666 3247 
Q 666 3731 644 3842 
Q 622 3953 573 3993 
Q 525 4034 450 4034 
Q 369 4034 244 3984 
L 191 4094 
L 1044 4444 
L 1184 4444 
z
" id="TimesNewRomanPSMT-6c" transform="scale(0.015625)"/>
       <path d="M 1822 413 
Q 1381 72 1269 19 
Q 1100 -59 909 -59 
Q 613 -59 420 144 
Q 228 347 228 678 
Q 228 888 322 1041 
Q 450 1253 767 1440 
Q 1084 1628 1822 1897 
L 1822 2009 
Q 1822 2438 1686 2597 
Q 1550 2756 1291 2756 
Q 1094 2756 978 2650 
Q 859 2544 859 2406 
L 866 2225 
Q 866 2081 792 2003 
Q 719 1925 600 1925 
Q 484 1925 411 2006 
Q 338 2088 338 2228 
Q 338 2497 613 2722 
Q 888 2947 1384 2947 
Q 1766 2947 2009 2819 
Q 2194 2722 2281 2516 
Q 2338 2381 2338 1966 
L 2338 994 
Q 2338 584 2353 492 
Q 2369 400 2405 369 
Q 2441 338 2488 338 
Q 2538 338 2575 359 
Q 2641 400 2828 588 
L 2828 413 
Q 2478 -56 2159 -56 
Q 2006 -56 1915 50 
Q 1825 156 1822 413 
z
M 1822 616 
L 1822 1706 
Q 1350 1519 1213 1441 
Q 966 1303 859 1153 
Q 753 1003 753 825 
Q 753 600 887 451 
Q 1022 303 1197 303 
Q 1434 303 1822 616 
z
" id="TimesNewRomanPSMT-61" transform="scale(0.015625)"/>
       <path d="M 1031 3803 
L 1031 2863 
L 1700 2863 
L 1700 2644 
L 1031 2644 
L 1031 788 
Q 1031 509 1111 412 
Q 1191 316 1316 316 
Q 1419 316 1516 380 
Q 1613 444 1666 569 
L 1788 569 
Q 1678 263 1478 108 
Q 1278 -47 1066 -47 
Q 922 -47 784 33 
Q 647 113 581 261 
Q 516 409 516 719 
L 516 2644 
L 63 2644 
L 63 2747 
Q 234 2816 414 2980 
Q 594 3144 734 3369 
Q 806 3488 934 3803 
L 1031 3803 
z
" id="TimesNewRomanPSMT-74" transform="scale(0.015625)"/>
       <path d="M 966 1044 
Q 703 1172 562 1401 
Q 422 1631 422 1909 
Q 422 2334 742 2640 
Q 1063 2947 1563 2947 
Q 1972 2947 2272 2747 
L 2878 2747 
Q 3013 2747 3034 2739 
Q 3056 2731 3066 2713 
Q 3084 2684 3084 2613 
Q 3084 2531 3069 2500 
Q 3059 2484 3036 2475 
Q 3013 2466 2878 2466 
L 2506 2466 
Q 2681 2241 2681 1891 
Q 2681 1491 2375 1206 
Q 2069 922 1553 922 
Q 1341 922 1119 984 
Q 981 866 932 777 
Q 884 688 884 625 
Q 884 572 936 522 
Q 988 472 1138 450 
Q 1225 438 1575 428 
Q 2219 413 2409 384 
Q 2700 344 2873 169 
Q 3047 -6 3047 -263 
Q 3047 -616 2716 -925 
Q 2228 -1381 1444 -1381 
Q 841 -1381 425 -1109 
Q 191 -953 191 -784 
Q 191 -709 225 -634 
Q 278 -519 444 -313 
Q 466 -284 763 25 
Q 600 122 533 198 
Q 466 275 466 372 
Q 466 481 555 628 
Q 644 775 966 1044 
z
M 1509 2797 
Q 1278 2797 1122 2612 
Q 966 2428 966 2047 
Q 966 1553 1178 1281 
Q 1341 1075 1591 1075 
Q 1828 1075 1981 1253 
Q 2134 1431 2134 1813 
Q 2134 2309 1919 2591 
Q 1759 2797 1509 2797 
z
M 934 0 
Q 788 -159 713 -296 
Q 638 -434 638 -550 
Q 638 -700 819 -813 
Q 1131 -1006 1722 -1006 
Q 2284 -1006 2551 -807 
Q 2819 -609 2819 -384 
Q 2819 -222 2659 -153 
Q 2497 -84 2016 -72 
Q 1313 -53 934 0 
z
" id="TimesNewRomanPSMT-67" transform="scale(0.015625)"/>
      </defs>
      <use xlink:href="#TimesNewRomanPSMT-56"/>
      <use x="59.341797" xlink:href="#TimesNewRomanPSMT-6f"/>
      <use x="109.341797" xlink:href="#TimesNewRomanPSMT-6c"/>
      <use x="137.125" xlink:href="#TimesNewRomanPSMT-61"/>
      <use x="181.509766" xlink:href="#TimesNewRomanPSMT-74"/>
      <use x="209.292969" xlink:href="#TimesNewRomanPSMT-61"/>
      <use x="253.677734" xlink:href="#TimesNewRomanPSMT-67"/>
      <use x="303.677734" xlink:href="#TimesNewRomanPSMT-65"/>
      <use x="348.0625" xlink:href="#TimesNewRomanPSMT-20"/>
      <use x="373.0625" xlink:href="#TimesNewRomanPSMT-28"/>
      <use x="406.363281" xlink:href="#TimesNewRomanPSMT-56"/>
      <use x="478.580078" xlink:href="#TimesNewRomanPSMT-29"/>
     </g>
    </g>
   </g>
   <g id="LineCollection_1">
    <path clip-path="url(#p9e6f5bc807)" d="M 78.555057 152.898484 
L 382.918693 152.898484 
" style="fill:none;stroke:#1f77b4;stroke-width:1.5;"/>
   </g>
   <g id="line2d_23">
    <path clip-path="url(#p9e6f5bc807)" d="M 78.555057 152.855267 
L 78.646366 152.935596 
L 78.676802 152.895431 
L 91.825311 152.935596 
L 91.855748 153.015926 
L 91.947057 152.975761 
L 96.26902 153.015926 
L 96.299457 153.096255 
L 96.390766 153.05609 
L 96.542948 153.015926 
L 100.62142 153.096255 
L 100.743166 153.096255 
L 103.269384 153.176584 
L 103.39113 153.176584 
L 106.800002 153.216749 
L 106.830439 153.297079 
L 106.921748 153.256914 
L 108.291384 153.297079 
L 108.352257 153.377408 
L 108.41313 153.337243 
L 108.443566 153.256914 
L 108.504439 153.297079 
L 108.65662 153.337243 
L 111.061093 153.377408 
L 111.09153 153.457737 
L 111.182839 153.417573 
L 111.33502 153.497902 
L 111.487202 153.377408 
L 111.578511 153.497902 
L 111.608948 153.457737 
L 112.065493 153.457737 
L 112.09593 153.578231 
L 112.187239 153.497902 
L 112.278548 153.538067 
L 112.308984 153.497902 
L 112.76553 153.538067 
L 112.795966 153.618396 
L 112.887275 153.578231 
L 113.039457 153.698726 
L 113.069893 153.658561 
L 113.43513 153.698726 
L 113.526439 153.779055 
L 113.556875 153.73889 
L 113.891675 153.779055 
L 114.01342 153.859384 
L 114.135166 153.859384 
L 114.317784 153.939714 
L 114.409093 153.899549 
L 114.43953 153.939714 
L 114.561275 153.979878 
L 114.591711 153.939714 
L 114.652584 154.020043 
L 114.804766 154.060208 
L 115.048257 154.140537 
L 115.200439 154.220867 
L 115.261311 154.140537 
L 115.322184 154.180702 
L 115.474366 154.301196 
L 115.626548 154.341361 
L 115.900475 154.42169 
L 116.083093 154.502019 
L 116.265711 154.582349 
L 116.417893 154.622514 
L 116.44833 154.542184 
L 116.539639 154.582349 
L 116.722257 154.662678 
L 116.874439 154.662678 
L 116.965748 154.783172 
L 116.996184 154.743008 
L 117.239675 154.783172 
L 117.36142 154.863502 
L 117.726657 154.943831 
L 117.817966 154.983996 
L 117.848402 154.943831 
L 118.152766 155.02416 
L 118.335384 155.10449 
L 118.36582 155.064325 
L 118.426693 155.144655 
L 118.731057 155.224984 
L 118.883239 155.305313 
L 118.974548 155.265149 
L 119.096293 155.345478 
L 119.218039 155.345478 
L 119.37022 155.425807 
L 119.522402 155.465972 
L 119.613711 155.546302 
L 119.826766 155.666796 
L 120.100693 155.747125 
L 120.344184 155.907784 
L 120.46593 155.947948 
L 120.618111 156.148772 
L 120.678984 156.108607 
L 120.70942 156.188937 
L 121.196402 156.670913 
L 121.287711 156.751242 
L 121.987748 157.835689 
L 122.170366 158.157007 
L 122.322548 158.518489 
L 124.300911 163.980887 
L 124.605275 165.065335 
L 124.879202 166.069452 
L 126.431457 172.656462 
L 127.83153 179.484461 
L 128.440257 182.336153 
L 129.292475 186.272294 
L 130.966475 192.457658 
L 132.062184 195.068363 
L 132.153493 195.148692 
L 132.396984 195.309351 
L 132.579602 195.349516 
L 132.701348 195.47001 
L 132.883966 195.38968 
L 133.005711 195.38968 
L 133.797057 194.18474 
L 134.405784 192.81914 
L 134.466657 192.73881 
L 134.953639 191.252717 
L 135.288439 190.087941 
L 135.744984 188.240364 
L 136.11022 186.352625 
L 137.571166 176.030297 
L 139.823457 154.220867 
L 141.22353 136.307412 
L 146.397711 62.806017 
L 148.406511 40.153128 
L 150.232693 26.577458 
L 150.384875 25.894664 
L 151.206657 23.083136 
L 151.450148 22.721653 
L 151.724075 22.520833 
L 151.84582 22.440501 
L 151.998002 22.32 
L 152.028439 22.360171 
L 152.363239 22.440501 
L 153.032839 23.444618 
L 153.51982 24.970876 
L 153.580693 25.1717 
L 154.067675 27.501255 
L 155.163384 35.373526 
L 156.989566 55.81736 
L 158.511384 79.514531 
L 160.398439 116.345558 
L 166.942257 260.657309 
L 168.555384 288.451282 
L 169.68153 303.231891 
L 169.955457 306.284411 
L 171.385966 318.53464 
L 171.994693 321.828142 
L 172.35993 323.233913 
L 172.420802 323.314242 
L 173.02953 324.639671 
L 173.181711 324.72 
L 173.36433 324.51918 
L 173.455639 324.43885 
L 173.973057 323.595395 
L 174.733966 321.30601 
L 175.37313 318.33382 
L 176.073166 314.11652 
L 176.834075 308.091822 
L 177.594984 301.263817 
L 180.456002 265.999214 
L 181.582148 249.692353 
L 184.564911 200.731585 
L 185.873675 180.16726 
L 189.282548 132.250778 
L 193.056657 88.712247 
L 194.334984 77.867782 
L 194.882839 73.529991 
L 196.891639 58.508392 
L 198.017784 51.800894 
L 200.513566 42.362193 
L 200.848366 41.75972 
L 201.091857 41.237575 
L 201.700584 39.871976 
L 201.913639 39.791643 
L 202.035384 39.791643 
L 202.49193 39.751485 
L 202.644111 39.630984 
L 202.887602 39.430161 
L 203.039784 39.510493 
L 203.07022 39.430161 
L 203.16153 39.470335 
L 203.344148 39.671155 
L 203.557202 39.791643 
L 203.83113 39.871976 
L 203.983311 39.912134 
L 204.044184 39.831817 
L 204.105057 39.871976 
L 204.135493 39.831817 
L 204.196366 39.912134 
L 205.444257 41.719545 
L 206.387784 43.928613 
L 206.661711 44.450757 
L 208.366148 49.230347 
L 208.974875 51.881226 
L 210.19233 57.142795 
L 210.52713 58.669054 
L 211.379348 62.4847 
L 211.86633 64.974911 
L 212.901166 70.999615 
L 214.240366 80.558813 
L 215.275202 89.636031 
L 216.370911 100.721491 
L 216.979639 107.308501 
L 217.862293 116.506217 
L 218.288402 121.446474 
L 222.184257 168.96131 
L 223.91913 192.537987 
L 225.440948 211.897374 
L 228.028039 244.591434 
L 229.306366 258.528587 
L 230.797748 271.30096 
L 231.52822 275.719067 
L 231.893457 277.767473 
L 233.506584 283.75201 
L 233.53702 283.711851 
L 233.567457 283.792184 
L 233.780511 284.113495 
L 233.810948 284.113495 
L 233.993566 284.434816 
L 234.054439 284.474977 
L 234.20662 284.715969 
L 234.328366 284.796298 
L 234.450111 284.83646 
L 235.454511 283.350369 
L 236.063239 281.462625 
L 236.519784 279.213402 
L 238.193784 267.445143 
L 240.32433 246.760327 
L 240.872184 240.374141 
L 242.272257 222.460689 
L 243.520148 205.912828 
L 244.037566 199.285656 
L 245.955057 172.535968 
L 249.790039 118.434122 
L 251.28142 101.966593 
L 252.438002 92.24674 
L 253.868511 83.531004 
L 253.990257 82.968695 
L 254.507675 80.799798 
L 255.420766 77.586622 
L 255.542511 77.305473 
L 255.938184 76.140693 
L 256.120802 75.739053 
L 256.546911 74.895591 
L 256.851275 74.654606 
L 257.003457 74.574273 
L 257.186075 74.493944 
L 257.30782 74.493944 
L 257.460002 74.413611 
L 257.520875 74.453779 
L 257.551311 74.413611 
L 257.673057 74.413611 
L 257.886111 74.493944 
L 258.281784 74.935756 
L 258.31222 74.855426 
L 258.373093 74.97592 
L 258.464402 74.97592 
L 258.64702 75.056253 
L 258.73833 75.016088 
L 258.768766 75.056253 
L 259.07313 75.136576 
L 259.194875 75.297238 
L 259.225311 75.257073 
L 259.681857 75.698888 
L 259.864475 75.779211 
L 260.07753 75.939873 
L 260.107966 75.899708 
L 260.168839 75.980038 
L 261.021057 77.265305 
L 261.41673 78.028437 
L 261.538475 78.269422 
L 261.75153 78.871896 
L 262.360257 80.759633 
L 264.034257 87.82862 
L 266.134366 99.396059 
L 266.499602 101.805938 
L 267.930111 111.967606 
L 269.634548 124.579321 
L 270.760693 132.732755 
L 272.769493 147.75435 
L 273.13473 150.204397 
L 273.652148 153.457737 
L 275.38702 162.052982 
L 277.030584 168.117851 
L 277.48713 169.563781 
L 277.791493 170.608062 
L 279.526366 174.94585 
L 279.617675 175.026179 
L 279.861166 175.54832 
L 279.922039 175.628649 
L 281.687348 177.797544 
L 281.778657 177.877873 
L 282.022148 178.078697 
L 282.113457 178.078697 
L 282.41782 178.319684 
L 282.570002 178.359848 
L 282.722184 178.480343 
L 282.813493 178.440179 
L 282.84393 178.480343 
L 283.148293 178.440179 
L 283.300475 178.319684 
L 283.483093 178.239355 
L 283.878766 178.159026 
L 284.000511 178.078697 
L 284.030948 178.159026 
L 284.061384 178.038532 
L 284.51793 177.59672 
L 284.670111 177.516391 
L 285.09622 177.114744 
L 285.157093 177.074579 
L 285.370148 176.753262 
L 285.43102 176.713097 
L 285.674511 176.31145 
L 285.735384 176.271285 
L 285.948439 175.869639 
L 285.978875 175.909802 
L 286.009311 175.789309 
L 286.496293 174.986015 
L 286.800657 174.463874 
L 287.10502 173.901568 
L 287.348511 173.379427 
L 287.409384 173.339262 
L 287.77462 172.656462 
L 289.174693 170.969545 
L 289.357311 170.929381 
L 289.387748 170.84905 
L 289.479057 170.889216 
L 289.600802 170.889216 
L 289.813857 170.808887 
L 289.935602 170.728557 
L 289.966039 170.768721 
L 290.331275 170.84905 
L 290.940002 171.531851 
L 290.970439 171.491686 
L 291.031311 171.572015 
L 291.579166 172.455638 
L 291.974839 173.580251 
L 293.22273 177.154908 
L 293.648839 178.400014 
L 293.679275 178.400014 
L 293.922766 179.122979 
L 294.440184 180.769731 
L 294.927166 182.255826 
L 295.018475 182.496812 
L 295.535893 184.1034 
L 297.057711 187.838718 
L 297.301202 188.320694 
L 297.636002 188.963329 
L 297.727311 189.043658 
L 298.336039 189.686294 
L 298.396911 189.766623 
L 298.975202 190.409258 
L 299.096948 190.369093 
L 299.24913 190.409258 
L 299.431748 190.328929 
L 299.58393 190.409258 
L 299.614366 190.369093 
L 299.675239 190.449423 
L 299.91873 190.610082 
L 300.436148 190.529752 
L 300.801384 190.208435 
L 301.105748 190.128105 
L 301.318802 190.007611 
L 301.440548 189.927282 
L 302.59713 188.561682 
L 302.718875 188.481353 
L 304.240693 186.31246 
L 304.51462 185.669823 
L 306.18862 181.01072 
L 306.52342 179.725449 
L 306.61473 179.444296 
L 307.071275 177.556556 
L 307.223457 176.873755 
L 307.649566 174.745026 
L 310.754075 157.795525 
L 312.488948 145.625622 
L 313.31073 139.9624 
L 313.949893 136.066424 
L 314.589057 131.889295 
L 315.258657 127.832662 
L 315.776075 124.539155 
L 315.867384 124.097345 
L 316.23262 122.330098 
L 316.384802 121.687462 
L 316.810911 119.558733 
L 318.66753 112.650406 
L 319.124075 111.204477 
L 319.458875 109.999536 
L 319.945857 108.473277 
L 320.098039 108.111795 
L 321.163311 105.541254 
L 321.193748 105.581419 
L 321.224184 105.50109 
L 321.528548 104.978949 
L 322.01553 104.215819 
L 322.228584 103.774005 
L 323.324293 102.16742 
L 323.750402 101.323961 
L 325.059166 99.757541 
L 325.089602 99.797706 
L 325.150475 99.717373 
L 325.728766 99.797706 
L 325.94182 99.958362 
L 325.972257 99.918197 
L 326.03313 99.998526 
L 326.976657 101.404291 
L 327.402766 102.247752 
L 327.585384 102.649393 
L 328.863711 106.304384 
L 329.989857 111.204477 
L 334.190075 133.937695 
L 335.164039 139.641081 
L 337.842439 153.216749 
L 338.32942 155.586466 
L 339.577311 161.651335 
L 339.699057 162.253806 
L 341.829602 170.24658 
L 342.499202 172.29498 
L 342.894875 173.419591 
L 343.868839 175.749144 
L 343.929711 175.829473 
L 344.173202 176.391779 
L 344.234075 176.472109 
L 344.69062 177.235237 
L 344.934111 177.59672 
L 345.725457 178.520509 
L 345.755893 178.480343 
L 345.78633 178.600838 
L 345.877639 178.641002 
L 346.12113 179.002484 
L 346.212439 179.042649 
L 346.425493 179.323803 
L 347.70382 180.890224 
L 347.734257 180.850061 
L 347.79513 180.930389 
L 348.069057 181.131213 
L 348.190802 181.211544 
L 348.403857 181.332037 
L 348.46473 181.291872 
L 348.495166 181.332037 
L 348.616911 181.372202 
L 348.738657 181.291872 
L 348.769093 181.332037 
L 350.04742 181.251706 
L 350.230039 181.171379 
L 351.204002 181.091048 
L 351.508366 180.850061 
L 351.599675 180.850061 
L 351.782293 180.649237 
L 351.934475 180.568907 
L 352.421457 180.086931 
L 352.512766 180.006602 
L 354.338948 177.717214 
L 354.369384 177.757378 
L 354.430257 177.677049 
L 354.82593 177.315567 
L 354.917239 177.235237 
L 355.282475 176.91392 
L 355.40422 176.833591 
L 355.586839 176.753262 
L 355.73902 176.672933 
L 355.982511 176.512272 
L 356.195566 176.472109 
L 356.286875 176.391779 
L 356.317311 176.431943 
L 356.469493 176.31145 
L 356.49993 176.351614 
L 356.682548 176.31145 
L 356.804293 176.231121 
L 357.07822 176.15079 
L 357.230402 176.110626 
L 357.74782 176.030297 
L 357.900002 175.990132 
L 358.08262 175.949968 
L 358.234802 175.789309 
L 358.356548 175.789309 
L 358.50873 175.628649 
L 358.630475 175.628649 
L 358.813093 175.508156 
L 358.84353 175.54832 
L 358.904402 175.467991 
L 359.056584 175.427827 
L 359.17833 175.267167 
L 359.208766 175.347498 
L 359.269639 175.227003 
L 359.360948 175.186837 
L 359.482693 175.066344 
L 359.634875 174.986015 
L 359.75662 174.905686 
L 359.939239 174.825355 
L 360.121857 174.745026 
L 360.213166 174.704862 
L 360.365348 174.584367 
L 360.395784 174.584367 
L 360.547966 174.383544 
L 362.008911 172.29498 
L 362.343711 171.69251 
L 362.739384 171.00971 
L 363.348111 169.64411 
L 363.408984 169.563781 
L 363.622039 169.121969 
L 364.10902 168.117851 
L 364.352511 167.67604 
L 364.565566 167.274393 
L 364.86993 166.712087 
L 364.961239 166.631757 
L 365.235166 166.189946 
L 365.326475 166.109617 
L 365.53953 165.828464 
L 367.000475 164.061217 
L 367.091784 163.980887 
L 367.730948 163.298088 
L 367.88313 163.217759 
L 368.096184 163.097264 
L 368.309239 163.016935 
L 368.674475 162.695617 
L 368.765784 162.615288 
L 369.100584 162.334136 
L 369.22233 162.253806 
L 369.404948 162.173476 
L 369.55713 162.133312 
L 369.709311 162.012818 
L 370.196293 161.490677 
L 370.22673 161.530841 
L 370.257166 161.490677 
L 370.378911 161.289853 
L 370.409348 161.330018 
L 370.47022 161.249688 
L 370.926766 160.767712 
L 370.957202 160.807877 
L 370.987639 160.687383 
L 373.057311 158.116842 
L 373.118184 158.036513 
L 373.331239 157.715195 
L 373.422548 157.634866 
L 373.970402 156.751242 
L 374.396511 155.907784 
L 374.457384 155.827454 
L 374.670439 155.385643 
L 375.674839 153.015926 
L 375.82702 152.654443 
L 379.753311 142.010799 
L 380.118548 140.966516 
L 380.209857 140.725528 
L 380.818584 138.757458 
L 381.60993 136.387741 
L 382.157784 134.66066 
L 382.918693 132.371272 
L 382.918693 132.371272 
" style="fill:none;stroke:#0000ff;stroke-linecap:square;stroke-width:1.5;"/>
   </g>
   <g id="line2d_24">
    <path clip-path="url(#p9e6f5bc807)" d="M 78.555057 152.901055 
L 78.768111 152.921137 
L 99.860511 153.021549 
L 100.164875 153.101878 
L 100.469239 153.20229 
L 101.778002 154.186325 
L 102.751966 155.632254 
L 103.482439 157.279007 
L 103.63462 157.660571 
L 104.365093 159.889712 
L 105.247748 163.163135 
L 110.239311 185.695529 
L 111.213275 188.52714 
L 111.700257 189.531258 
L 112.917711 190.977187 
L 113.43513 190.876775 
L 113.76993 190.615705 
L 114.074293 190.294387 
L 114.896075 188.466893 
L 115.291748 187.161541 
L 115.474366 186.579152 
L 116.083093 184.189354 
L 116.752693 180.594613 
L 118.913675 165.673428 
L 120.03982 156.294971 
L 121.866002 139.686869 
L 125.122693 110.587547 
L 126.15753 103.880043 
L 127.953275 94.983565 
L 129.109857 90.846595 
L 129.74902 89.440831 
L 130.236002 88.97894 
L 130.357748 88.878528 
L 131.149093 88.436717 
L 131.362148 88.537125 
L 131.84913 88.436717 
L 132.153493 88.115399 
L 132.42742 87.934658 
L 132.579602 87.914579 
L 132.85353 88.09532 
L 133.553566 88.436717 
L 133.797057 88.537125 
L 134.131857 88.858443 
L 134.618839 89.581407 
L 135.258002 89.902731 
L 135.349311 89.94289 
L 135.684111 90.284293 
L 136.718948 91.489237 
L 136.810257 91.549481 
L 138.514693 95.144221 
L 138.87993 96.730727 
L 140.280002 103.699301 
L 143.201893 121.713168 
L 149.045675 168.846439 
L 150.019639 176.839214 
L 152.424111 195.033821 
L 153.94593 203.468408 
L 154.737275 206.460677 
L 155.28513 208.227924 
L 155.680802 208.930803 
L 156.076475 209.473026 
L 156.685202 210.095582 
L 157.659166 210.01525 
L 157.933093 209.81443 
L 158.054839 209.714021 
L 158.511384 208.950889 
L 158.937493 208.127516 
L 159.63753 207.043069 
L 159.97233 206.300015 
L 160.946293 204.131125 
L 161.676766 201.901984 
L 163.624693 195.094068 
L 164.416039 191.539493 
L 165.116075 188.426729 
L 166.698766 181.618812 
L 167.398802 178.927778 
L 167.824911 177.642507 
L 168.068402 177.140449 
L 168.646693 176.236743 
L 169.224984 175.634273 
L 169.955457 175.734685 
L 170.198948 175.87526 
L 170.625057 176.276908 
L 170.898984 176.819132 
L 171.416402 178.144567 
L 172.238184 180.57453 
L 174.855711 193.166163 
L 176.28622 202.303631 
L 179.025493 221.381862 
L 180.39513 228.069284 
L 182.06913 232.186169 
L 182.921348 233.130033 
L 183.438766 232.708307 
L 184.65622 229.193899 
L 184.930148 227.94879 
L 185.873675 221.743344 
L 186.817202 212.746456 
L 187.821602 200.978196 
L 190.286948 165.291863 
L 194.274111 98.799208 
L 195.826366 77.853322 
L 197.013384 65.06086 
L 198.748257 51.06347 
L 199.204802 48.091279 
L 200.270075 41.765346 
L 201.304911 37.507885 
L 201.609275 36.865253 
L 201.974511 36.363181 
L 202.40062 35.981626 
L 202.522366 35.901294 
L 202.552802 35.921379 
L 202.704984 35.881208 
L 202.918039 35.981626 
L 203.709384 36.845167 
L 203.952875 37.126317 
L 204.287675 37.748867 
L 204.805093 39.395616 
L 205.474693 42.48831 
L 205.900802 45.27975 
L 207.970475 60.803402 
L 208.487893 64.518637 
L 217.436184 134.505624 
L 218.257966 140.630739 
L 219.779784 151.816608 
L 222.975602 172.180109 
L 223.797384 177.100285 
L 226.50622 192.523528 
L 227.358439 196.439586 
L 229.336802 203.82989 
L 229.884657 205.275819 
L 230.158584 205.818042 
L 231.406475 208.047183 
L 231.558657 208.268089 
L 232.045639 209.091465 
L 232.593493 210.236159 
L 232.989166 210.918959 
L 233.263093 211.461182 
L 234.024002 213.208346 
L 234.997966 215.477652 
L 236.88502 218.97198 
L 238.285093 220.658898 
L 238.467711 220.759306 
L 238.711202 220.899889 
L 239.015566 220.980212 
L 240.811311 221.08063 
L 241.206984 221.221207 
L 241.511348 221.321615 
L 241.876584 221.442106 
L 242.24182 221.542524 
L 243.58102 222.546638 
L 244.25062 223.611 
L 247.111639 229.033237 
L 248.237784 230.358669 
L 248.329093 230.398837 
L 248.755202 230.559499 
L 249.059566 230.479166 
L 249.455239 230.378757 
L 250.216148 229.756201 
L 251.342293 228.089366 
L 251.829275 226.884429 
L 252.346693 225.217591 
L 252.833675 223.229438 
L 255.268584 208.127516 
L 256.333857 198.849467 
L 258.220911 179.088436 
L 259.529675 163.163135 
L 261.203675 140.791398 
L 264.277748 97.775009 
L 265.830002 78.716863 
L 267.808366 57.750889 
L 268.599711 51.465114 
L 269.512802 45.601061 
L 270.12153 42.97028 
L 270.45633 41.925995 
L 271.095493 40.540323 
L 271.36942 40.239084 
L 271.582475 40.138666 
L 272.343384 40.239084 
L 272.586875 40.500151 
L 273.408657 42.367807 
L 274.017384 44.275636 
L 274.991348 49.296217 
L 275.965311 55.722571 
L 277.000148 63.655096 
L 277.548002 68.394533 
L 282.08302 114.383111 
L 282.965675 123.560744 
L 284.974475 144.546798 
L 286.222366 156.556042 
L 287.622439 169.308333 
L 291.335675 200.235149 
L 292.614002 208.750062 
L 294.22713 216.702675 
L 295.23153 219.65478 
L 296.90553 222.727379 
L 297.209893 223.028618 
L 297.422948 223.209353 
L 297.940366 223.430258 
L 298.518657 223.32985 
L 299.066511 222.847877 
L 299.705675 222.185156 
L 299.82742 222.004415 
L 301.014439 219.413795 
L 301.623166 217.526051 
L 302.049275 216.080122 
L 302.779748 213.328837 
L 303.997202 206.360269 
L 308.319166 173.023568 
L 308.593093 171.035415 
L 309.414875 165.412358 
L 311.484548 155.069948 
L 313.097675 148.141538 
L 314.802111 140.952058 
L 315.441275 138.502011 
L 317.206584 133.059695 
L 317.937057 130.830554 
L 318.606657 129.003061 
L 319.154511 127.697707 
L 319.793675 125.950543 
L 320.463275 124.38412 
L 322.92862 118.13851 
L 323.01993 117.997933 
L 323.446039 117.174557 
L 324.328693 115.186405 
L 324.906984 113.961381 
L 325.211348 113.138005 
L 325.667893 111.772405 
L 326.672293 109.422771 
L 327.585384 107.836265 
L 327.70713 107.675606 
L 328.072366 107.012889 
L 328.802839 105.868195 
L 329.107202 105.466548 
L 329.228948 105.366136 
L 329.502875 105.044822 
L 329.62462 104.964489 
L 330.020293 104.623086 
L 330.689893 104.301769 
L 330.842075 104.281689 
L 331.602984 104.382101 
L 332.424766 105.044822 
L 332.820439 105.587045 
L 333.73353 106.972724 
L 334.464002 108.659641 
L 335.194475 110.888782 
L 336.198875 114.583934 
L 338.938148 125.850132 
L 339.516439 128.942812 
L 342.499202 147.318162 
L 344.69062 162.460253 
L 346.516802 177.180614 
L 347.886439 187.141458 
L 349.499566 198.046173 
L 350.595275 204.552854 
L 351.660548 210.236159 
L 353.39542 217.726872 
L 354.186766 219.976098 
L 354.49113 220.819556 
L 355.191166 222.385976 
L 355.586839 223.088862 
L 356.104257 223.872073 
L 356.530366 224.032735 
L 356.83473 223.932317 
L 357.16953 223.671253 
L 357.473893 223.349935 
L 357.960875 222.526553 
L 358.75222 220.719148 
L 359.300075 218.97198 
L 359.634875 217.505972 
L 360.334911 213.75057 
L 361.461057 206.400434 
L 362.922002 196.037939 
L 363.956839 187.74393 
L 369.831057 136.433529 
L 371.413748 121.833662 
L 372.935566 110.667876 
L 373.970402 103.960372 
L 374.853057 98.839373 
L 376.648802 92.172037 
L 377.50102 89.742069 
L 378.627166 87.753917 
L 378.748911 87.653505 
L 379.388075 87.35227 
L 379.692439 87.432599 
L 379.93593 87.533011 
L 380.818584 88.235893 
L 381.427311 89.219925 
L 382.309966 91.208078 
L 382.918693 92.93516 
L 382.918693 92.93516 
" style="fill:none;stroke:#ff0000;stroke-linecap:square;stroke-width:1.5;"/>
   </g>
   <g id="line2d_25">
    <path clip-path="url(#p9e6f5bc807)" d="M 123.509566 161.490677 
" style="fill:none;stroke:#ffffff;stroke-linecap:square;stroke-width:1.5;"/>
    <defs>
     <path d="M 0 -5 
L -1.12257 -1.545085 
L -4.755283 -1.545085 
L -1.816356 0.59017 
L -2.938926 4.045085 
L -0 1.90983 
L 2.938926 4.045085 
L 1.816356 0.59017 
L 4.755283 -1.545085 
L 1.12257 -1.545085 
z
" id="m35b484ad2e" style="stroke:#ffffff;stroke-linejoin:bevel;"/>
    </defs>
    <g clip-path="url(#p9e6f5bc807)">
     <use style="fill:#0000ff;stroke:#ffffff;stroke-linejoin:bevel;" x="123.509566" xlink:href="#m35b484ad2e" y="161.490677"/>
    </g>
   </g>
   <g id="line2d_26">
    <path clip-path="url(#p9e6f5bc807)" d="M 104.030293 158.805265 
" style="fill:none;stroke:#ffffff;stroke-linecap:square;stroke-width:1.5;"/>
    <defs>
     <path d="M 0 -5 
L -1.12257 -1.545085 
L -4.755283 -1.545085 
L -1.816356 0.59017 
L -2.938926 4.045085 
L -0 1.90983 
L 2.938926 4.045085 
L 1.816356 0.59017 
L 4.755283 -1.545085 
L 1.12257 -1.545085 
z
" id="mc7ee6a07f5" style="stroke:#ffffff;stroke-linejoin:bevel;"/>
    </defs>
    <g clip-path="url(#p9e6f5bc807)">
     <use style="fill:#ff0000;stroke:#ffffff;stroke-linejoin:bevel;" x="104.030293" xlink:href="#mc7ee6a07f5" y="158.805265"/>
    </g>
   </g>
   <g id="patch_3">
    <path d="M 63.336875 339.84 
L 63.336875 7.2 
" style="fill:none;stroke:#000000;stroke-linecap:square;stroke-linejoin:miter;stroke-width:0.8;"/>
   </g>
   <g id="patch_4">
    <path d="M 398.136875 339.84 
L 398.136875 7.2 
" style="fill:none;stroke:#000000;stroke-linecap:square;stroke-linejoin:miter;stroke-width:0.8;"/>
   </g>
   <g id="patch_5">
    <path d="M 63.336875 339.84 
L 398.136875 339.84 
" style="fill:none;stroke:#000000;stroke-linecap:square;stroke-linejoin:miter;stroke-width:0.8;"/>
   </g>
   <g id="patch_6">
    <path d="M 63.336875 7.2 
L 398.136875 7.2 
" style="fill:none;stroke:#000000;stroke-linecap:square;stroke-linejoin:miter;stroke-width:0.8;"/>
   </g>
   <g id="text_14">
    <g id="patch_7">
     <path d="M 75.036875 331.242688 
L 166.79375 331.242688 
L 166.79375 293.760312 
L 75.036875 293.760312 
z
" style="fill:#ffffff;stroke:#000000;stroke-linejoin:miter;stroke-width:0.75;"/>
    </g>
    <!-- Auto_00148 -->
    <g transform="translate(80.076875 308.521562)scale(0.14 -0.14)">
     <defs>
      <path d="M 2928 1419 
L 1288 1419 
L 1000 750 
Q 894 503 894 381 
Q 894 284 986 211 
Q 1078 138 1384 116 
L 1384 0 
L 50 0 
L 50 116 
Q 316 163 394 238 
Q 553 388 747 847 
L 2238 4334 
L 2347 4334 
L 3822 809 
Q 4000 384 4145 257 
Q 4291 131 4550 116 
L 4550 0 
L 2878 0 
L 2878 116 
Q 3131 128 3220 200 
Q 3309 272 3309 375 
Q 3309 513 3184 809 
L 2928 1419 
z
M 2841 1650 
L 2122 3363 
L 1384 1650 
L 2841 1650 
z
" id="TimesNewRomanPSMT-41" transform="scale(0.015625)"/>
      <path d="M 2709 2863 
L 2709 1128 
Q 2709 631 2732 520 
Q 2756 409 2807 365 
Q 2859 322 2928 322 
Q 3025 322 3147 375 
L 3191 266 
L 2334 -88 
L 2194 -88 
L 2194 519 
Q 1825 119 1631 15 
Q 1438 -88 1222 -88 
Q 981 -88 804 51 
Q 628 191 559 409 
Q 491 628 491 1028 
L 491 2306 
Q 491 2509 447 2587 
Q 403 2666 317 2708 
Q 231 2750 6 2747 
L 6 2863 
L 1009 2863 
L 1009 947 
Q 1009 547 1148 422 
Q 1288 297 1484 297 
Q 1619 297 1789 381 
Q 1959 466 2194 703 
L 2194 2325 
Q 2194 2569 2105 2655 
Q 2016 2741 1734 2747 
L 1734 2863 
L 2709 2863 
z
" id="TimesNewRomanPSMT-75" transform="scale(0.015625)"/>
      <path d="M 3256 -1381 
L -53 -1381 
L -53 -1119 
L 3256 -1119 
L 3256 -1381 
z
" id="TimesNewRomanPSMT-5f" transform="scale(0.015625)"/>
      <path d="M 1228 2134 
Q 725 2547 579 2797 
Q 434 3047 434 3316 
Q 434 3728 753 4026 
Q 1072 4325 1600 4325 
Q 2113 4325 2425 4047 
Q 2738 3769 2738 3413 
Q 2738 3175 2569 2928 
Q 2400 2681 1866 2347 
Q 2416 1922 2594 1678 
Q 2831 1359 2831 1006 
Q 2831 559 2490 242 
Q 2150 -75 1597 -75 
Q 994 -75 656 303 
Q 388 606 388 966 
Q 388 1247 577 1523 
Q 766 1800 1228 2134 
z
M 1719 2469 
Q 2094 2806 2194 3001 
Q 2294 3197 2294 3444 
Q 2294 3772 2109 3958 
Q 1925 4144 1606 4144 
Q 1288 4144 1088 3959 
Q 888 3775 888 3528 
Q 888 3366 970 3203 
Q 1053 3041 1206 2894 
L 1719 2469 
z
M 1375 2016 
Q 1116 1797 991 1539 
Q 866 1281 866 981 
Q 866 578 1086 336 
Q 1306 94 1647 94 
Q 1984 94 2187 284 
Q 2391 475 2391 747 
Q 2391 972 2272 1150 
Q 2050 1481 1375 2016 
z
" id="TimesNewRomanPSMT-38" transform="scale(0.015625)"/>
     </defs>
     <use xlink:href="#TimesNewRomanPSMT-41"/>
     <use x="72.216797" xlink:href="#TimesNewRomanPSMT-75"/>
     <use x="122.216797" xlink:href="#TimesNewRomanPSMT-74"/>
     <use x="150" xlink:href="#TimesNewRomanPSMT-6f"/>
     <use x="200" xlink:href="#TimesNewRomanPSMT-5f"/>
     <use x="250" xlink:href="#TimesNewRomanPSMT-30"/>
     <use x="300" xlink:href="#TimesNewRomanPSMT-30"/>
     <use x="350" xlink:href="#TimesNewRomanPSMT-31"/>
     <use x="400" xlink:href="#TimesNewRomanPSMT-34"/>
     <use x="450" xlink:href="#TimesNewRomanPSMT-38"/>
    </g>
    <!-- Vs: 312.30m/s -->
    <g transform="translate(80.076875 323.208)scale(0.14 -0.14)">
     <defs>
      <path d="M 903 2950 
Q 1047 2950 1148 2848 
Q 1250 2747 1250 2603 
Q 1250 2459 1148 2357 
Q 1047 2256 903 2256 
Q 759 2256 657 2357 
Q 556 2459 556 2603 
Q 556 2747 657 2848 
Q 759 2950 903 2950 
z
M 897 609 
Q 1044 609 1145 506 
Q 1247 403 1247 259 
Q 1247 116 1144 14 
Q 1041 -88 897 -88 
Q 753 -88 651 14 
Q 550 116 550 259 
Q 550 403 651 506 
Q 753 609 897 609 
z
" id="TimesNewRomanPSMT-3a" transform="scale(0.015625)"/>
      <path d="M 1794 4444 
L 259 -88 
L 9 -88 
L 1544 4444 
L 1794 4444 
z
" id="TimesNewRomanPSMT-2f" transform="scale(0.015625)"/>
     </defs>
     <use xlink:href="#TimesNewRomanPSMT-56"/>
     <use x="72.216797" xlink:href="#TimesNewRomanPSMT-73"/>
     <use x="111.132812" xlink:href="#TimesNewRomanPSMT-3a"/>
     <use x="138.916016" xlink:href="#TimesNewRomanPSMT-20"/>
     <use x="163.916016" xlink:href="#TimesNewRomanPSMT-33"/>
     <use x="213.916016" xlink:href="#TimesNewRomanPSMT-31"/>
     <use x="263.916016" xlink:href="#TimesNewRomanPSMT-32"/>
     <use x="313.916016" xlink:href="#TimesNewRomanPSMT-2e"/>
     <use x="338.916016" xlink:href="#TimesNewRomanPSMT-33"/>
     <use x="388.916016" xlink:href="#TimesNewRomanPSMT-30"/>
     <use x="438.916016" xlink:href="#TimesNewRomanPSMT-6d"/>
     <use x="516.699219" xlink:href="#TimesNewRomanPSMT-2f"/>
     <use x="544.482422" xlink:href="#TimesNewRomanPSMT-73"/>
    </g>
   </g>
  </g>
 </g>
 <defs>
  <clipPath id="p9e6f5bc807">
   <rect height="332.64" width="334.8" x="63.336875" y="7.2"/>
  </clipPath>
 </defs>
</svg>
