<?xml version="1.0" encoding="utf-8" standalone="no"?>
<!DOCTYPE svg PUBLIC "-//W3C//DTD SVG 1.1//EN"
  "http://www.w3.org/Graphics/SVG/1.1/DTD/svg11.dtd">
<svg height="383.471875pt" version="1.1" viewBox="0 0 421.086875 383.471875" width="421.086875pt" xmlns="http://www.w3.org/2000/svg" xmlns:xlink="http://www.w3.org/1999/xlink">
 <metadata>
  <rdf:RDF xmlns:cc="http://creativecommons.org/ns#" xmlns:dc="http://purl.org/dc/elements/1.1/" xmlns:rdf="http://www.w3.org/1999/02/22-rdf-syntax-ns#">
   <cc:Work>
    <dc:type rdf:resource="http://purl.org/dc/dcmitype/StillImage"/>
    <dc:date>2021-06-11T14:39:36.979603</dc:date>
    <dc:format>image/svg+xml</dc:format>
    <dc:creator>
     <cc:Agent>
      <dc:title>Matplotlib v3.4.2, https://matplotlib.org/</dc:title>
     </cc:Agent>
    </dc:creator>
   </cc:Work>
  </rdf:RDF>
 </metadata>
 <defs>
  <style type="text/css">*{stroke-linecap:butt;stroke-linejoin:round;}</style>
 </defs>
 <g id="figure_1">
  <g id="patch_1">
   <path d="M 0 383.471875 
L 421.086875 383.471875 
L 421.086875 0 
L 0 0 
z
" style="fill:#ffffff;"/>
  </g>
  <g id="axes_1">
   <g id="patch_2">
    <path d="M 63.336875 339.84 
L 398.136875 339.84 
L 398.136875 7.2 
L 63.336875 7.2 
z
" style="fill:#ffffff;"/>
   </g>
   <g id="matplotlib.axis_1">
    <g id="xtick_1">
     <g id="line2d_1">
      <path clip-path="url(#pe6e3dead18)" d="M 93.773239 339.84 
L 93.773239 7.2 
" style="fill:none;stroke:#000000;stroke-dasharray:0.5,0.825;stroke-dashoffset:0;stroke-width:0.5;"/>
     </g>
     <g id="line2d_2">
      <defs>
       <path d="M 0 0 
L 0 3.5 
" id="m031a7beb22" style="stroke:#000000;stroke-width:0.8;"/>
      </defs>
      <g>
       <use style="stroke:#000000;stroke-width:0.8;" x="93.773239" xlink:href="#m031a7beb22" y="339.84"/>
      </g>
     </g>
     <g id="text_1">
      <!-- 0.000 -->
      <g transform="translate(78.023239 356.56125)scale(0.14 -0.14)">
       <defs>
        <path d="M 231 2094 
Q 231 2819 450 3342 
Q 669 3866 1031 4122 
Q 1313 4325 1613 4325 
Q 2100 4325 2488 3828 
Q 2972 3213 2972 2159 
Q 2972 1422 2759 906 
Q 2547 391 2217 158 
Q 1888 -75 1581 -75 
Q 975 -75 572 641 
Q 231 1244 231 2094 
z
M 844 2016 
Q 844 1141 1059 588 
Q 1238 122 1591 122 
Q 1759 122 1940 273 
Q 2122 425 2216 781 
Q 2359 1319 2359 2297 
Q 2359 3022 2209 3506 
Q 2097 3866 1919 4016 
Q 1791 4119 1609 4119 
Q 1397 4119 1231 3928 
Q 1006 3669 925 3112 
Q 844 2556 844 2016 
z
" id="TimesNewRomanPSMT-30" transform="scale(0.015625)"/>
        <path d="M 800 606 
Q 947 606 1047 504 
Q 1147 403 1147 259 
Q 1147 116 1045 14 
Q 944 -88 800 -88 
Q 656 -88 554 14 
Q 453 116 453 259 
Q 453 406 554 506 
Q 656 606 800 606 
z
" id="TimesNewRomanPSMT-2e" transform="scale(0.015625)"/>
       </defs>
       <use xlink:href="#TimesNewRomanPSMT-30"/>
       <use x="50" xlink:href="#TimesNewRomanPSMT-2e"/>
       <use x="75" xlink:href="#TimesNewRomanPSMT-30"/>
       <use x="125" xlink:href="#TimesNewRomanPSMT-30"/>
       <use x="175" xlink:href="#TimesNewRomanPSMT-30"/>
      </g>
     </g>
    </g>
    <g id="xtick_2">
     <g id="line2d_3">
      <path clip-path="url(#pe6e3dead18)" d="M 154.645966 339.84 
L 154.645966 7.2 
" style="fill:none;stroke:#000000;stroke-dasharray:0.5,0.825;stroke-dashoffset:0;stroke-width:0.5;"/>
     </g>
     <g id="line2d_4">
      <g>
       <use style="stroke:#000000;stroke-width:0.8;" x="154.645966" xlink:href="#m031a7beb22" y="339.84"/>
      </g>
     </g>
     <g id="text_2">
      <!-- 0.001 -->
      <g transform="translate(138.895966 356.56125)scale(0.14 -0.14)">
       <defs>
        <path d="M 750 3822 
L 1781 4325 
L 1884 4325 
L 1884 747 
Q 1884 391 1914 303 
Q 1944 216 2037 169 
Q 2131 122 2419 116 
L 2419 0 
L 825 0 
L 825 116 
Q 1125 122 1212 167 
Q 1300 213 1334 289 
Q 1369 366 1369 747 
L 1369 3034 
Q 1369 3497 1338 3628 
Q 1316 3728 1258 3775 
Q 1200 3822 1119 3822 
Q 1003 3822 797 3725 
L 750 3822 
z
" id="TimesNewRomanPSMT-31" transform="scale(0.015625)"/>
       </defs>
       <use xlink:href="#TimesNewRomanPSMT-30"/>
       <use x="50" xlink:href="#TimesNewRomanPSMT-2e"/>
       <use x="75" xlink:href="#TimesNewRomanPSMT-30"/>
       <use x="125" xlink:href="#TimesNewRomanPSMT-30"/>
       <use x="175" xlink:href="#TimesNewRomanPSMT-31"/>
      </g>
     </g>
    </g>
    <g id="xtick_3">
     <g id="line2d_5">
      <path clip-path="url(#pe6e3dead18)" d="M 215.518693 339.84 
L 215.518693 7.2 
" style="fill:none;stroke:#000000;stroke-dasharray:0.5,0.825;stroke-dashoffset:0;stroke-width:0.5;"/>
     </g>
     <g id="line2d_6">
      <g>
       <use style="stroke:#000000;stroke-width:0.8;" x="215.518693" xlink:href="#m031a7beb22" y="339.84"/>
      </g>
     </g>
     <g id="text_3">
      <!-- 0.002 -->
      <g transform="translate(199.768693 356.56125)scale(0.14 -0.14)">
       <defs>
        <path d="M 2934 816 
L 2638 0 
L 138 0 
L 138 116 
Q 1241 1122 1691 1759 
Q 2141 2397 2141 2925 
Q 2141 3328 1894 3587 
Q 1647 3847 1303 3847 
Q 991 3847 742 3664 
Q 494 3481 375 3128 
L 259 3128 
Q 338 3706 661 4015 
Q 984 4325 1469 4325 
Q 1984 4325 2329 3994 
Q 2675 3663 2675 3213 
Q 2675 2891 2525 2569 
Q 2294 2063 1775 1497 
Q 997 647 803 472 
L 1909 472 
Q 2247 472 2383 497 
Q 2519 522 2628 598 
Q 2738 675 2819 816 
L 2934 816 
z
" id="TimesNewRomanPSMT-32" transform="scale(0.015625)"/>
       </defs>
       <use xlink:href="#TimesNewRomanPSMT-30"/>
       <use x="50" xlink:href="#TimesNewRomanPSMT-2e"/>
       <use x="75" xlink:href="#TimesNewRomanPSMT-30"/>
       <use x="125" xlink:href="#TimesNewRomanPSMT-30"/>
       <use x="175" xlink:href="#TimesNewRomanPSMT-32"/>
      </g>
     </g>
    </g>
    <g id="xtick_4">
     <g id="line2d_7">
      <path clip-path="url(#pe6e3dead18)" d="M 276.39142 339.84 
L 276.39142 7.2 
" style="fill:none;stroke:#000000;stroke-dasharray:0.5,0.825;stroke-dashoffset:0;stroke-width:0.5;"/>
     </g>
     <g id="line2d_8">
      <g>
       <use style="stroke:#000000;stroke-width:0.8;" x="276.39142" xlink:href="#m031a7beb22" y="339.84"/>
      </g>
     </g>
     <g id="text_4">
      <!-- 0.003 -->
      <g transform="translate(260.64142 356.56125)scale(0.14 -0.14)">
       <defs>
        <path d="M 325 3431 
Q 506 3859 782 4092 
Q 1059 4325 1472 4325 
Q 1981 4325 2253 3994 
Q 2459 3747 2459 3466 
Q 2459 3003 1878 2509 
Q 2269 2356 2469 2072 
Q 2669 1788 2669 1403 
Q 2669 853 2319 450 
Q 1863 -75 997 -75 
Q 569 -75 414 31 
Q 259 138 259 259 
Q 259 350 332 419 
Q 406 488 509 488 
Q 588 488 669 463 
Q 722 447 909 348 
Q 1097 250 1169 231 
Q 1284 197 1416 197 
Q 1734 197 1970 444 
Q 2206 691 2206 1028 
Q 2206 1275 2097 1509 
Q 2016 1684 1919 1775 
Q 1784 1900 1550 2001 
Q 1316 2103 1072 2103 
L 972 2103 
L 972 2197 
Q 1219 2228 1467 2375 
Q 1716 2522 1828 2728 
Q 1941 2934 1941 3181 
Q 1941 3503 1739 3701 
Q 1538 3900 1238 3900 
Q 753 3900 428 3381 
L 325 3431 
z
" id="TimesNewRomanPSMT-33" transform="scale(0.015625)"/>
       </defs>
       <use xlink:href="#TimesNewRomanPSMT-30"/>
       <use x="50" xlink:href="#TimesNewRomanPSMT-2e"/>
       <use x="75" xlink:href="#TimesNewRomanPSMT-30"/>
       <use x="125" xlink:href="#TimesNewRomanPSMT-30"/>
       <use x="175" xlink:href="#TimesNewRomanPSMT-33"/>
      </g>
     </g>
    </g>
    <g id="xtick_5">
     <g id="line2d_9">
      <path clip-path="url(#pe6e3dead18)" d="M 337.264148 339.84 
L 337.264148 7.2 
" style="fill:none;stroke:#000000;stroke-dasharray:0.5,0.825;stroke-dashoffset:0;stroke-width:0.5;"/>
     </g>
     <g id="line2d_10">
      <g>
       <use style="stroke:#000000;stroke-width:0.8;" x="337.264148" xlink:href="#m031a7beb22" y="339.84"/>
      </g>
     </g>
     <g id="text_5">
      <!-- 0.004 -->
      <g transform="translate(321.514148 356.56125)scale(0.14 -0.14)">
       <defs>
        <path d="M 2978 1563 
L 2978 1119 
L 2409 1119 
L 2409 0 
L 1894 0 
L 1894 1119 
L 100 1119 
L 100 1519 
L 2066 4325 
L 2409 4325 
L 2409 1563 
L 2978 1563 
z
M 1894 1563 
L 1894 3666 
L 406 1563 
L 1894 1563 
z
" id="TimesNewRomanPSMT-34" transform="scale(0.015625)"/>
       </defs>
       <use xlink:href="#TimesNewRomanPSMT-30"/>
       <use x="50" xlink:href="#TimesNewRomanPSMT-2e"/>
       <use x="75" xlink:href="#TimesNewRomanPSMT-30"/>
       <use x="125" xlink:href="#TimesNewRomanPSMT-30"/>
       <use x="175" xlink:href="#TimesNewRomanPSMT-34"/>
      </g>
     </g>
    </g>
    <g id="xtick_6">
     <g id="line2d_11">
      <path clip-path="url(#pe6e3dead18)" d="M 398.136875 339.84 
L 398.136875 7.2 
" style="fill:none;stroke:#000000;stroke-dasharray:0.5,0.825;stroke-dashoffset:0;stroke-width:0.5;"/>
     </g>
     <g id="line2d_12">
      <g>
       <use style="stroke:#000000;stroke-width:0.8;" x="398.136875" xlink:href="#m031a7beb22" y="339.84"/>
      </g>
     </g>
     <g id="text_6">
      <!-- 0.005 -->
      <g transform="translate(382.386875 356.56125)scale(0.14 -0.14)">
       <defs>
        <path d="M 2778 4238 
L 2534 3706 
L 1259 3706 
L 981 3138 
Q 1809 3016 2294 2522 
Q 2709 2097 2709 1522 
Q 2709 1188 2573 903 
Q 2438 619 2231 419 
Q 2025 219 1772 97 
Q 1413 -75 1034 -75 
Q 653 -75 479 54 
Q 306 184 306 341 
Q 306 428 378 495 
Q 450 563 559 563 
Q 641 563 702 538 
Q 763 513 909 409 
Q 1144 247 1384 247 
Q 1750 247 2026 523 
Q 2303 800 2303 1197 
Q 2303 1581 2056 1914 
Q 1809 2247 1375 2428 
Q 1034 2569 447 2591 
L 1259 4238 
L 2778 4238 
z
" id="TimesNewRomanPSMT-35" transform="scale(0.015625)"/>
       </defs>
       <use xlink:href="#TimesNewRomanPSMT-30"/>
       <use x="50" xlink:href="#TimesNewRomanPSMT-2e"/>
       <use x="75" xlink:href="#TimesNewRomanPSMT-30"/>
       <use x="125" xlink:href="#TimesNewRomanPSMT-30"/>
       <use x="175" xlink:href="#TimesNewRomanPSMT-35"/>
      </g>
     </g>
    </g>
    <g id="text_7">
     <!-- Time (sec) -->
     <g transform="translate(200.858906 373.277188)scale(0.14 -0.14)">
      <defs>
       <path d="M 3703 4238 
L 3750 3244 
L 3631 3244 
Q 3597 3506 3538 3619 
Q 3441 3800 3280 3886 
Q 3119 3972 2856 3972 
L 2259 3972 
L 2259 734 
Q 2259 344 2344 247 
Q 2463 116 2709 116 
L 2856 116 
L 2856 0 
L 1059 0 
L 1059 116 
L 1209 116 
Q 1478 116 1591 278 
Q 1659 378 1659 734 
L 1659 3972 
L 1150 3972 
Q 853 3972 728 3928 
Q 566 3869 450 3700 
Q 334 3531 313 3244 
L 194 3244 
L 244 4238 
L 3703 4238 
z
" id="TimesNewRomanPSMT-54" transform="scale(0.015625)"/>
       <path d="M 928 4444 
Q 1059 4444 1151 4351 
Q 1244 4259 1244 4128 
Q 1244 3997 1151 3903 
Q 1059 3809 928 3809 
Q 797 3809 703 3903 
Q 609 3997 609 4128 
Q 609 4259 701 4351 
Q 794 4444 928 4444 
z
M 1188 2947 
L 1188 647 
Q 1188 378 1227 289 
Q 1266 200 1342 156 
Q 1419 113 1622 113 
L 1622 0 
L 231 0 
L 231 113 
Q 441 113 512 153 
Q 584 194 626 287 
Q 669 381 669 647 
L 669 1750 
Q 669 2216 641 2353 
Q 619 2453 572 2492 
Q 525 2531 444 2531 
Q 356 2531 231 2484 
L 188 2597 
L 1050 2947 
L 1188 2947 
z
" id="TimesNewRomanPSMT-69" transform="scale(0.015625)"/>
       <path d="M 1050 2338 
Q 1363 2650 1419 2697 
Q 1559 2816 1721 2881 
Q 1884 2947 2044 2947 
Q 2313 2947 2506 2790 
Q 2700 2634 2766 2338 
Q 3088 2713 3309 2830 
Q 3531 2947 3766 2947 
Q 3994 2947 4170 2830 
Q 4347 2713 4450 2447 
Q 4519 2266 4519 1878 
L 4519 647 
Q 4519 378 4559 278 
Q 4591 209 4675 161 
Q 4759 113 4950 113 
L 4950 0 
L 3538 0 
L 3538 113 
L 3597 113 
Q 3781 113 3884 184 
Q 3956 234 3988 344 
Q 4000 397 4000 647 
L 4000 1878 
Q 4000 2228 3916 2372 
Q 3794 2572 3525 2572 
Q 3359 2572 3192 2489 
Q 3025 2406 2788 2181 
L 2781 2147 
L 2788 2013 
L 2788 647 
Q 2788 353 2820 281 
Q 2853 209 2943 161 
Q 3034 113 3253 113 
L 3253 0 
L 1806 0 
L 1806 113 
Q 2044 113 2133 169 
Q 2222 225 2256 338 
Q 2272 391 2272 647 
L 2272 1878 
Q 2272 2228 2169 2381 
Q 2031 2581 1784 2581 
Q 1616 2581 1450 2491 
Q 1191 2353 1050 2181 
L 1050 647 
Q 1050 366 1089 281 
Q 1128 197 1204 155 
Q 1281 113 1516 113 
L 1516 0 
L 100 0 
L 100 113 
Q 297 113 375 155 
Q 453 197 493 289 
Q 534 381 534 647 
L 534 1741 
Q 534 2213 506 2350 
Q 484 2453 437 2492 
Q 391 2531 309 2531 
Q 222 2531 100 2484 
L 53 2597 
L 916 2947 
L 1050 2947 
L 1050 2338 
z
" id="TimesNewRomanPSMT-6d" transform="scale(0.015625)"/>
       <path d="M 681 1784 
Q 678 1147 991 784 
Q 1303 422 1725 422 
Q 2006 422 2214 576 
Q 2422 731 2563 1106 
L 2659 1044 
Q 2594 616 2278 264 
Q 1963 -88 1488 -88 
Q 972 -88 605 314 
Q 238 716 238 1394 
Q 238 2128 614 2539 
Q 991 2950 1559 2950 
Q 2041 2950 2350 2633 
Q 2659 2316 2659 1784 
L 681 1784 
z
M 681 1966 
L 2006 1966 
Q 1991 2241 1941 2353 
Q 1863 2528 1708 2628 
Q 1553 2728 1384 2728 
Q 1125 2728 920 2526 
Q 716 2325 681 1966 
z
" id="TimesNewRomanPSMT-65" transform="scale(0.015625)"/>
       <path id="TimesNewRomanPSMT-20" transform="scale(0.015625)"/>
       <path d="M 1988 -1253 
L 1988 -1369 
Q 1516 -1131 1200 -813 
Q 750 -359 506 256 
Q 263 872 263 1534 
Q 263 2503 741 3301 
Q 1219 4100 1988 4444 
L 1988 4313 
Q 1603 4100 1356 3731 
Q 1109 3363 987 2797 
Q 866 2231 866 1616 
Q 866 947 969 400 
Q 1050 -31 1165 -292 
Q 1281 -553 1476 -793 
Q 1672 -1034 1988 -1253 
z
" id="TimesNewRomanPSMT-28" transform="scale(0.015625)"/>
       <path d="M 2050 2947 
L 2050 1972 
L 1947 1972 
Q 1828 2431 1642 2597 
Q 1456 2763 1169 2763 
Q 950 2763 815 2647 
Q 681 2531 681 2391 
Q 681 2216 781 2091 
Q 878 1963 1175 1819 
L 1631 1597 
Q 2266 1288 2266 781 
Q 2266 391 1970 151 
Q 1675 -88 1309 -88 
Q 1047 -88 709 6 
Q 606 38 541 38 
Q 469 38 428 -44 
L 325 -44 
L 325 978 
L 428 978 
Q 516 541 762 319 
Q 1009 97 1316 97 
Q 1531 97 1667 223 
Q 1803 350 1803 528 
Q 1803 744 1651 891 
Q 1500 1038 1047 1263 
Q 594 1488 453 1669 
Q 313 1847 313 2119 
Q 313 2472 555 2709 
Q 797 2947 1181 2947 
Q 1350 2947 1591 2875 
Q 1750 2828 1803 2828 
Q 1853 2828 1881 2850 
Q 1909 2872 1947 2947 
L 2050 2947 
z
" id="TimesNewRomanPSMT-73" transform="scale(0.015625)"/>
       <path d="M 2631 1088 
Q 2516 522 2178 217 
Q 1841 -88 1431 -88 
Q 944 -88 581 321 
Q 219 731 219 1428 
Q 219 2103 620 2525 
Q 1022 2947 1584 2947 
Q 2006 2947 2278 2723 
Q 2550 2500 2550 2259 
Q 2550 2141 2473 2067 
Q 2397 1994 2259 1994 
Q 2075 1994 1981 2113 
Q 1928 2178 1911 2362 
Q 1894 2547 1784 2644 
Q 1675 2738 1481 2738 
Q 1169 2738 978 2506 
Q 725 2200 725 1697 
Q 725 1184 976 792 
Q 1228 400 1656 400 
Q 1963 400 2206 609 
Q 2378 753 2541 1131 
L 2631 1088 
z
" id="TimesNewRomanPSMT-63" transform="scale(0.015625)"/>
       <path d="M 144 4313 
L 144 4444 
Q 619 4209 934 3891 
Q 1381 3434 1625 2820 
Q 1869 2206 1869 1541 
Q 1869 572 1392 -226 
Q 916 -1025 144 -1369 
L 144 -1253 
Q 528 -1038 776 -670 
Q 1025 -303 1145 264 
Q 1266 831 1266 1447 
Q 1266 2113 1163 2663 
Q 1084 3094 967 3353 
Q 850 3613 656 3853 
Q 463 4094 144 4313 
z
" id="TimesNewRomanPSMT-29" transform="scale(0.015625)"/>
      </defs>
      <use xlink:href="#TimesNewRomanPSMT-54"/>
      <use x="57.583984" xlink:href="#TimesNewRomanPSMT-69"/>
      <use x="85.367188" xlink:href="#TimesNewRomanPSMT-6d"/>
      <use x="163.150391" xlink:href="#TimesNewRomanPSMT-65"/>
      <use x="207.535156" xlink:href="#TimesNewRomanPSMT-20"/>
      <use x="232.535156" xlink:href="#TimesNewRomanPSMT-28"/>
      <use x="265.835938" xlink:href="#TimesNewRomanPSMT-73"/>
      <use x="304.751953" xlink:href="#TimesNewRomanPSMT-65"/>
      <use x="349.136719" xlink:href="#TimesNewRomanPSMT-63"/>
      <use x="393.521484" xlink:href="#TimesNewRomanPSMT-29"/>
     </g>
    </g>
   </g>
   <g id="matplotlib.axis_2">
    <g id="ytick_1">
     <g id="line2d_13">
      <path clip-path="url(#pe6e3dead18)" d="M 63.336875 339.048249 
L 398.136875 339.048249 
" style="fill:none;stroke:#000000;stroke-dasharray:0.5,0.825;stroke-dashoffset:0;stroke-width:0.5;"/>
     </g>
     <g id="line2d_14">
      <defs>
       <path d="M 0 0 
L -3.5 0 
" id="m8366ba4595" style="stroke:#000000;stroke-width:0.8;"/>
      </defs>
      <g>
       <use style="stroke:#000000;stroke-width:0.8;" x="63.336875" xlink:href="#m8366ba4595" y="339.048249"/>
      </g>
     </g>
     <g id="text_8">
      <!-- −0.08 -->
      <g transform="translate(23.942188 343.908874)scale(0.14 -0.14)">
       <defs>
        <path d="M 3484 2000 
L 116 2000 
L 116 2256 
L 3484 2256 
L 3484 2000 
z
" id="TimesNewRomanPSMT-2212" transform="scale(0.015625)"/>
        <path d="M 1228 2134 
Q 725 2547 579 2797 
Q 434 3047 434 3316 
Q 434 3728 753 4026 
Q 1072 4325 1600 4325 
Q 2113 4325 2425 4047 
Q 2738 3769 2738 3413 
Q 2738 3175 2569 2928 
Q 2400 2681 1866 2347 
Q 2416 1922 2594 1678 
Q 2831 1359 2831 1006 
Q 2831 559 2490 242 
Q 2150 -75 1597 -75 
Q 994 -75 656 303 
Q 388 606 388 966 
Q 388 1247 577 1523 
Q 766 1800 1228 2134 
z
M 1719 2469 
Q 2094 2806 2194 3001 
Q 2294 3197 2294 3444 
Q 2294 3772 2109 3958 
Q 1925 4144 1606 4144 
Q 1288 4144 1088 3959 
Q 888 3775 888 3528 
Q 888 3366 970 3203 
Q 1053 3041 1206 2894 
L 1719 2469 
z
M 1375 2016 
Q 1116 1797 991 1539 
Q 866 1281 866 981 
Q 866 578 1086 336 
Q 1306 94 1647 94 
Q 1984 94 2187 284 
Q 2391 475 2391 747 
Q 2391 972 2272 1150 
Q 2050 1481 1375 2016 
z
" id="TimesNewRomanPSMT-38" transform="scale(0.015625)"/>
       </defs>
       <use xlink:href="#TimesNewRomanPSMT-2212"/>
       <use x="56.396484" xlink:href="#TimesNewRomanPSMT-30"/>
       <use x="106.396484" xlink:href="#TimesNewRomanPSMT-2e"/>
       <use x="131.396484" xlink:href="#TimesNewRomanPSMT-30"/>
       <use x="181.396484" xlink:href="#TimesNewRomanPSMT-38"/>
      </g>
     </g>
    </g>
    <g id="ytick_2">
     <g id="line2d_15">
      <path clip-path="url(#pe6e3dead18)" d="M 63.336875 293.256086 
L 398.136875 293.256086 
" style="fill:none;stroke:#000000;stroke-dasharray:0.5,0.825;stroke-dashoffset:0;stroke-width:0.5;"/>
     </g>
     <g id="line2d_16">
      <g>
       <use style="stroke:#000000;stroke-width:0.8;" x="63.336875" xlink:href="#m8366ba4595" y="293.256086"/>
      </g>
     </g>
     <g id="text_9">
      <!-- −0.06 -->
      <g transform="translate(23.942188 298.116711)scale(0.14 -0.14)">
       <defs>
        <path d="M 2869 4325 
L 2869 4209 
Q 2456 4169 2195 4045 
Q 1934 3922 1679 3669 
Q 1425 3416 1258 3105 
Q 1091 2794 978 2366 
Q 1428 2675 1881 2675 
Q 2316 2675 2634 2325 
Q 2953 1975 2953 1425 
Q 2953 894 2631 456 
Q 2244 -75 1606 -75 
Q 1172 -75 869 213 
Q 275 772 275 1663 
Q 275 2231 503 2743 
Q 731 3256 1154 3653 
Q 1578 4050 1965 4187 
Q 2353 4325 2688 4325 
L 2869 4325 
z
M 925 2138 
Q 869 1716 869 1456 
Q 869 1156 980 804 
Q 1091 453 1309 247 
Q 1469 100 1697 100 
Q 1969 100 2183 356 
Q 2397 613 2397 1088 
Q 2397 1622 2184 2012 
Q 1972 2403 1581 2403 
Q 1463 2403 1327 2353 
Q 1191 2303 925 2138 
z
" id="TimesNewRomanPSMT-36" transform="scale(0.015625)"/>
       </defs>
       <use xlink:href="#TimesNewRomanPSMT-2212"/>
       <use x="56.396484" xlink:href="#TimesNewRomanPSMT-30"/>
       <use x="106.396484" xlink:href="#TimesNewRomanPSMT-2e"/>
       <use x="131.396484" xlink:href="#TimesNewRomanPSMT-30"/>
       <use x="181.396484" xlink:href="#TimesNewRomanPSMT-36"/>
      </g>
     </g>
    </g>
    <g id="ytick_3">
     <g id="line2d_17">
      <path clip-path="url(#pe6e3dead18)" d="M 63.336875 247.463922 
L 398.136875 247.463922 
" style="fill:none;stroke:#000000;stroke-dasharray:0.5,0.825;stroke-dashoffset:0;stroke-width:0.5;"/>
     </g>
     <g id="line2d_18">
      <g>
       <use style="stroke:#000000;stroke-width:0.8;" x="63.336875" xlink:href="#m8366ba4595" y="247.463922"/>
      </g>
     </g>
     <g id="text_10">
      <!-- −0.04 -->
      <g transform="translate(23.942188 252.324547)scale(0.14 -0.14)">
       <use xlink:href="#TimesNewRomanPSMT-2212"/>
       <use x="56.396484" xlink:href="#TimesNewRomanPSMT-30"/>
       <use x="106.396484" xlink:href="#TimesNewRomanPSMT-2e"/>
       <use x="131.396484" xlink:href="#TimesNewRomanPSMT-30"/>
       <use x="181.396484" xlink:href="#TimesNewRomanPSMT-34"/>
      </g>
     </g>
    </g>
    <g id="ytick_4">
     <g id="line2d_19">
      <path clip-path="url(#pe6e3dead18)" d="M 63.336875 201.671759 
L 398.136875 201.671759 
" style="fill:none;stroke:#000000;stroke-dasharray:0.5,0.825;stroke-dashoffset:0;stroke-width:0.5;"/>
     </g>
     <g id="line2d_20">
      <g>
       <use style="stroke:#000000;stroke-width:0.8;" x="63.336875" xlink:href="#m8366ba4595" y="201.671759"/>
      </g>
     </g>
     <g id="text_11">
      <!-- −0.02 -->
      <g transform="translate(23.942188 206.532384)scale(0.14 -0.14)">
       <use xlink:href="#TimesNewRomanPSMT-2212"/>
       <use x="56.396484" xlink:href="#TimesNewRomanPSMT-30"/>
       <use x="106.396484" xlink:href="#TimesNewRomanPSMT-2e"/>
       <use x="131.396484" xlink:href="#TimesNewRomanPSMT-30"/>
       <use x="181.396484" xlink:href="#TimesNewRomanPSMT-32"/>
      </g>
     </g>
    </g>
    <g id="ytick_5">
     <g id="line2d_21">
      <path clip-path="url(#pe6e3dead18)" d="M 63.336875 155.879596 
L 398.136875 155.879596 
" style="fill:none;stroke:#000000;stroke-dasharray:0.5,0.825;stroke-dashoffset:0;stroke-width:0.5;"/>
     </g>
     <g id="line2d_22">
      <g>
       <use style="stroke:#000000;stroke-width:0.8;" x="63.336875" xlink:href="#m8366ba4595" y="155.879596"/>
      </g>
     </g>
     <g id="text_12">
      <!-- 0.00 -->
      <g transform="translate(31.836875 160.740221)scale(0.14 -0.14)">
       <use xlink:href="#TimesNewRomanPSMT-30"/>
       <use x="50" xlink:href="#TimesNewRomanPSMT-2e"/>
       <use x="75" xlink:href="#TimesNewRomanPSMT-30"/>
       <use x="125" xlink:href="#TimesNewRomanPSMT-30"/>
      </g>
     </g>
    </g>
    <g id="ytick_6">
     <g id="line2d_23">
      <path clip-path="url(#pe6e3dead18)" d="M 63.336875 110.087433 
L 398.136875 110.087433 
" style="fill:none;stroke:#000000;stroke-dasharray:0.5,0.825;stroke-dashoffset:0;stroke-width:0.5;"/>
     </g>
     <g id="line2d_24">
      <g>
       <use style="stroke:#000000;stroke-width:0.8;" x="63.336875" xlink:href="#m8366ba4595" y="110.087433"/>
      </g>
     </g>
     <g id="text_13">
      <!-- 0.02 -->
      <g transform="translate(31.836875 114.948058)scale(0.14 -0.14)">
       <use xlink:href="#TimesNewRomanPSMT-30"/>
       <use x="50" xlink:href="#TimesNewRomanPSMT-2e"/>
       <use x="75" xlink:href="#TimesNewRomanPSMT-30"/>
       <use x="125" xlink:href="#TimesNewRomanPSMT-32"/>
      </g>
     </g>
    </g>
    <g id="ytick_7">
     <g id="line2d_25">
      <path clip-path="url(#pe6e3dead18)" d="M 63.336875 64.29527 
L 398.136875 64.29527 
" style="fill:none;stroke:#000000;stroke-dasharray:0.5,0.825;stroke-dashoffset:0;stroke-width:0.5;"/>
     </g>
     <g id="line2d_26">
      <g>
       <use style="stroke:#000000;stroke-width:0.8;" x="63.336875" xlink:href="#m8366ba4595" y="64.29527"/>
      </g>
     </g>
     <g id="text_14">
      <!-- 0.04 -->
      <g transform="translate(31.836875 69.155895)scale(0.14 -0.14)">
       <use xlink:href="#TimesNewRomanPSMT-30"/>
       <use x="50" xlink:href="#TimesNewRomanPSMT-2e"/>
       <use x="75" xlink:href="#TimesNewRomanPSMT-30"/>
       <use x="125" xlink:href="#TimesNewRomanPSMT-34"/>
      </g>
     </g>
    </g>
    <g id="ytick_8">
     <g id="line2d_27">
      <path clip-path="url(#pe6e3dead18)" d="M 63.336875 18.503106 
L 398.136875 18.503106 
" style="fill:none;stroke:#000000;stroke-dasharray:0.5,0.825;stroke-dashoffset:0;stroke-width:0.5;"/>
     </g>
     <g id="line2d_28">
      <g>
       <use style="stroke:#000000;stroke-width:0.8;" x="63.336875" xlink:href="#m8366ba4595" y="18.503106"/>
      </g>
     </g>
     <g id="text_15">
      <!-- 0.06 -->
      <g transform="translate(31.836875 23.363731)scale(0.14 -0.14)">
       <use xlink:href="#TimesNewRomanPSMT-30"/>
       <use x="50" xlink:href="#TimesNewRomanPSMT-2e"/>
       <use x="75" xlink:href="#TimesNewRomanPSMT-30"/>
       <use x="125" xlink:href="#TimesNewRomanPSMT-36"/>
      </g>
     </g>
    </g>
    <g id="text_16">
     <!-- Volatage (V) -->
     <g transform="translate(16.92125 209.352344)rotate(-90)scale(0.14 -0.14)">
      <defs>
       <path d="M 4544 4238 
L 4544 4122 
Q 4319 4081 4203 3978 
Q 4038 3825 3909 3509 
L 2431 -97 
L 2316 -97 
L 728 3556 
Q 606 3838 556 3900 
Q 478 3997 364 4051 
Q 250 4106 56 4122 
L 56 4238 
L 1788 4238 
L 1788 4122 
Q 1494 4094 1406 4022 
Q 1319 3950 1319 3838 
Q 1319 3681 1463 3350 
L 2541 866 
L 3541 3319 
Q 3688 3681 3688 3822 
Q 3688 3913 3597 3995 
Q 3506 4078 3291 4113 
Q 3275 4116 3238 4122 
L 3238 4238 
L 4544 4238 
z
" id="TimesNewRomanPSMT-56" transform="scale(0.015625)"/>
       <path d="M 1600 2947 
Q 2250 2947 2644 2453 
Q 2978 2031 2978 1484 
Q 2978 1100 2793 706 
Q 2609 313 2286 112 
Q 1963 -88 1566 -88 
Q 919 -88 538 428 
Q 216 863 216 1403 
Q 216 1797 411 2186 
Q 606 2575 925 2761 
Q 1244 2947 1600 2947 
z
M 1503 2744 
Q 1338 2744 1170 2645 
Q 1003 2547 900 2300 
Q 797 2053 797 1666 
Q 797 1041 1045 587 
Q 1294 134 1700 134 
Q 2003 134 2200 384 
Q 2397 634 2397 1244 
Q 2397 2006 2069 2444 
Q 1847 2744 1503 2744 
z
" id="TimesNewRomanPSMT-6f" transform="scale(0.015625)"/>
       <path d="M 1184 4444 
L 1184 647 
Q 1184 378 1223 290 
Q 1263 203 1344 158 
Q 1425 113 1647 113 
L 1647 0 
L 244 0 
L 244 113 
Q 441 113 512 153 
Q 584 194 625 287 
Q 666 381 666 647 
L 666 3247 
Q 666 3731 644 3842 
Q 622 3953 573 3993 
Q 525 4034 450 4034 
Q 369 4034 244 3984 
L 191 4094 
L 1044 4444 
L 1184 4444 
z
" id="TimesNewRomanPSMT-6c" transform="scale(0.015625)"/>
       <path d="M 1822 413 
Q 1381 72 1269 19 
Q 1100 -59 909 -59 
Q 613 -59 420 144 
Q 228 347 228 678 
Q 228 888 322 1041 
Q 450 1253 767 1440 
Q 1084 1628 1822 1897 
L 1822 2009 
Q 1822 2438 1686 2597 
Q 1550 2756 1291 2756 
Q 1094 2756 978 2650 
Q 859 2544 859 2406 
L 866 2225 
Q 866 2081 792 2003 
Q 719 1925 600 1925 
Q 484 1925 411 2006 
Q 338 2088 338 2228 
Q 338 2497 613 2722 
Q 888 2947 1384 2947 
Q 1766 2947 2009 2819 
Q 2194 2722 2281 2516 
Q 2338 2381 2338 1966 
L 2338 994 
Q 2338 584 2353 492 
Q 2369 400 2405 369 
Q 2441 338 2488 338 
Q 2538 338 2575 359 
Q 2641 400 2828 588 
L 2828 413 
Q 2478 -56 2159 -56 
Q 2006 -56 1915 50 
Q 1825 156 1822 413 
z
M 1822 616 
L 1822 1706 
Q 1350 1519 1213 1441 
Q 966 1303 859 1153 
Q 753 1003 753 825 
Q 753 600 887 451 
Q 1022 303 1197 303 
Q 1434 303 1822 616 
z
" id="TimesNewRomanPSMT-61" transform="scale(0.015625)"/>
       <path d="M 1031 3803 
L 1031 2863 
L 1700 2863 
L 1700 2644 
L 1031 2644 
L 1031 788 
Q 1031 509 1111 412 
Q 1191 316 1316 316 
Q 1419 316 1516 380 
Q 1613 444 1666 569 
L 1788 569 
Q 1678 263 1478 108 
Q 1278 -47 1066 -47 
Q 922 -47 784 33 
Q 647 113 581 261 
Q 516 409 516 719 
L 516 2644 
L 63 2644 
L 63 2747 
Q 234 2816 414 2980 
Q 594 3144 734 3369 
Q 806 3488 934 3803 
L 1031 3803 
z
" id="TimesNewRomanPSMT-74" transform="scale(0.015625)"/>
       <path d="M 966 1044 
Q 703 1172 562 1401 
Q 422 1631 422 1909 
Q 422 2334 742 2640 
Q 1063 2947 1563 2947 
Q 1972 2947 2272 2747 
L 2878 2747 
Q 3013 2747 3034 2739 
Q 3056 2731 3066 2713 
Q 3084 2684 3084 2613 
Q 3084 2531 3069 2500 
Q 3059 2484 3036 2475 
Q 3013 2466 2878 2466 
L 2506 2466 
Q 2681 2241 2681 1891 
Q 2681 1491 2375 1206 
Q 2069 922 1553 922 
Q 1341 922 1119 984 
Q 981 866 932 777 
Q 884 688 884 625 
Q 884 572 936 522 
Q 988 472 1138 450 
Q 1225 438 1575 428 
Q 2219 413 2409 384 
Q 2700 344 2873 169 
Q 3047 -6 3047 -263 
Q 3047 -616 2716 -925 
Q 2228 -1381 1444 -1381 
Q 841 -1381 425 -1109 
Q 191 -953 191 -784 
Q 191 -709 225 -634 
Q 278 -519 444 -313 
Q 466 -284 763 25 
Q 600 122 533 198 
Q 466 275 466 372 
Q 466 481 555 628 
Q 644 775 966 1044 
z
M 1509 2797 
Q 1278 2797 1122 2612 
Q 966 2428 966 2047 
Q 966 1553 1178 1281 
Q 1341 1075 1591 1075 
Q 1828 1075 1981 1253 
Q 2134 1431 2134 1813 
Q 2134 2309 1919 2591 
Q 1759 2797 1509 2797 
z
M 934 0 
Q 788 -159 713 -296 
Q 638 -434 638 -550 
Q 638 -700 819 -813 
Q 1131 -1006 1722 -1006 
Q 2284 -1006 2551 -807 
Q 2819 -609 2819 -384 
Q 2819 -222 2659 -153 
Q 2497 -84 2016 -72 
Q 1313 -53 934 0 
z
" id="TimesNewRomanPSMT-67" transform="scale(0.015625)"/>
      </defs>
      <use xlink:href="#TimesNewRomanPSMT-56"/>
      <use x="59.341797" xlink:href="#TimesNewRomanPSMT-6f"/>
      <use x="109.341797" xlink:href="#TimesNewRomanPSMT-6c"/>
      <use x="137.125" xlink:href="#TimesNewRomanPSMT-61"/>
      <use x="181.509766" xlink:href="#TimesNewRomanPSMT-74"/>
      <use x="209.292969" xlink:href="#TimesNewRomanPSMT-61"/>
      <use x="253.677734" xlink:href="#TimesNewRomanPSMT-67"/>
      <use x="303.677734" xlink:href="#TimesNewRomanPSMT-65"/>
      <use x="348.0625" xlink:href="#TimesNewRomanPSMT-20"/>
      <use x="373.0625" xlink:href="#TimesNewRomanPSMT-28"/>
      <use x="406.363281" xlink:href="#TimesNewRomanPSMT-56"/>
      <use x="478.580078" xlink:href="#TimesNewRomanPSMT-29"/>
     </g>
    </g>
   </g>
   <g id="LineCollection_1">
    <path clip-path="url(#pe6e3dead18)" d="M 78.555057 155.879596 
L 382.918693 155.879596 
" style="fill:none;stroke:#1f77b4;stroke-width:1.5;"/>
   </g>
   <g id="line2d_29">
    <path clip-path="url(#pe6e3dead18)" d="M 78.555057 155.918634 
L 90.516548 155.975874 
L 90.638293 156.004494 
L 95.234184 156.061734 
L 95.35593 156.090354 
L 107.469602 156.176215 
L 107.621784 156.176215 
L 112.76553 156.262075 
L 112.948148 156.319315 
L 112.978584 156.233455 
L 113.069893 156.290695 
L 113.222075 156.290695 
L 113.374257 156.290695 
L 114.287348 156.376555 
L 114.469966 156.405176 
L 115.565675 156.491036 
L 115.77873 156.548276 
L 115.930911 156.519656 
L 116.143966 156.576896 
L 117.209239 156.662756 
L 117.422293 156.719997 
L 118.152766 156.805857 
L 118.304948 156.834477 
L 118.335384 156.777237 
L 118.396257 156.834477 
L 118.518002 156.891717 
L 118.548439 156.834477 
L 119.400657 156.920337 
L 119.644148 157.006198 
L 119.826766 156.977578 
L 121.013784 157.063438 
L 121.196402 157.092058 
L 121.348584 157.092058 
L 122.109493 157.177918 
L 122.352984 157.263779 
L 122.38342 157.206538 
L 122.47473 157.263779 
L 122.657348 157.292399 
L 122.80953 157.292399 
L 123.05302 157.378259 
L 123.570439 157.464119 
L 123.753057 157.52136 
L 123.905239 157.52136 
L 124.118293 157.60722 
L 124.270475 157.60722 
L 124.544402 157.7217 
L 124.666148 157.75032 
L 125.031384 157.836181 
L 125.183566 157.950661 
L 125.214002 157.893421 
L 125.305311 157.950661 
L 125.609675 158.093762 
L 125.73142 158.151002 
L 125.944475 158.322722 
L 127.466293 159.896828 
L 128.16633 161.013012 
L 128.227202 161.098872 
L 128.40982 161.413693 
L 129.292475 163.30262 
L 129.596839 164.018122 
L 129.627275 164.018122 
L 130.08382 165.306027 
L 131.392584 169.312842 
L 132.42742 172.804494 
L 132.610039 173.348276 
L 132.975275 174.57894 
L 134.43622 179.015056 
L 135.044948 180.903983 
L 135.227566 181.476385 
L 136.414584 184.510116 
L 137.20593 185.7694 
L 138.392948 186.742484 
L 138.758184 186.828344 
L 138.87993 186.799724 
L 139.12342 186.713864 
L 140.12782 185.6263 
L 140.401748 185.025278 
L 141.619202 181.304664 
L 143.90193 170.085585 
L 145.210693 160.784051 
L 147.82822 137.74487 
L 149.106548 124.551002 
L 149.806584 116.995297 
L 150.628366 108.294784 
L 151.815384 96.131238 
L 153.85462 76.125789 
L 156.593893 56.320677 
L 157.902657 50.653903 
L 158.998366 48.82221 
L 159.21142 48.736354 
L 159.333166 48.736354 
L 160.21582 49.680811 
L 161.22022 52.829024 
L 162.102875 57.436867 
L 163.533384 69.028004 
L 164.263857 76.92715 
L 165.694366 95.673317 
L 167.977093 133.852536 
L 173.69913 244.698188 
L 175.312257 271.572471 
L 176.407966 287.37076 
L 177.71673 303.226301 
L 179.116802 315.389849 
L 180.090766 321.08524 
L 180.516875 322.602101 
L 180.882111 323.804157 
L 181.460402 324.662748 
L 181.490839 324.605517 
L 181.582148 324.662748 
L 182.190875 324.576893 
L 182.73873 323.317604 
L 183.590948 319.682862 
L 184.32142 314.931921 
L 185.508439 305.201093 
L 186.908511 289.574508 
L 187.943348 275.579283 
L 190.34782 235.368037 
L 192.265311 197.217441 
L 194.913275 144.728173 
L 197.896039 90.664801 
L 199.630911 66.194612 
L 200.787493 52.399729 
L 201.73102 42.955089 
L 202.40062 37.66037 
L 203.374584 31.134987 
L 204.378984 26.097849 
L 204.774657 24.724086 
L 205.109457 23.894103 
L 205.41382 23.178601 
L 205.900802 22.491716 
L 206.266039 22.405858 
L 206.448657 22.348616 
L 206.570402 22.348616 
L 206.692148 22.348616 
L 206.905202 22.405858 
L 207.026948 22.463098 
L 207.240002 22.806537 
L 207.300875 22.863777 
L 207.696548 23.665147 
L 208.153093 24.752702 
L 208.579202 26.212332 
L 209.157493 28.845383 
L 209.340111 29.646742 
L 211.318475 41.409603 
L 213.905566 61.701263 
L 215.183893 73.464122 
L 221.758148 134.253216 
L 224.649602 155.203131 
L 226.475784 164.876726 
L 227.60193 169.656283 
L 229.154184 175.094102 
L 229.397675 175.780985 
L 231.010802 180.04538 
L 231.132548 180.302961 
L 231.467348 181.161564 
L 231.893457 182.334988 
L 233.080475 185.998361 
L 235.454511 195.357137 
L 239.22862 213.616759 
L 240.99393 222.946913 
L 242.728802 230.58848 
L 243.58102 234.223231 
L 244.372366 237.428687 
L 245.194148 240.147594 
L 245.315893 240.37655 
L 245.58982 240.834481 
L 246.68553 241.750322 
L 247.02033 241.549981 
L 247.050766 241.578599 
L 247.111639 241.492741 
L 247.93342 240.605516 
L 248.633457 238.945547 
L 249.02913 237.972464 
L 250.490075 232.105343 
L 251.28142 227.611992 
L 251.70753 225.093423 
L 252.255384 221.401427 
L 254.233748 205.717614 
L 259.07313 161.213352 
L 260.047093 153.056624 
L 261.173239 144.441973 
L 261.75153 140.549639 
L 262.32982 137.000747 
L 263.608148 130.418123 
L 264.642984 126.067867 
L 265.069093 124.551002 
L 265.890875 121.889333 
L 266.712657 119.857303 
L 266.834402 119.599722 
L 267.199639 118.884222 
L 267.77793 118.025621 
L 268.173602 117.539079 
L 268.35622 117.338734 
L 268.44753 117.252878 
L 269.086693 116.794952 
L 269.238875 116.709094 
L 269.543239 116.537371 
L 269.664984 116.508756 
L 269.878039 116.451513 
L 270.547639 116.537371 
L 271.79553 117.825276 
L 272.191202 118.626641 
L 273.286911 120.916249 
L 273.743457 121.889333 
L 273.865202 122.146913 
L 274.352184 123.205857 
L 275.05222 124.751343 
L 275.691384 126.239588 
L 276.360984 127.727833 
L 277.000148 129.216079 
L 277.39582 130.189162 
L 278.308911 132.45015 
L 278.704584 133.423234 
L 279.222002 134.568038 
L 283.08742 141.608583 
L 283.452657 142.095124 
L 283.970075 142.867867 
L 284.061384 142.953728 
L 284.822293 143.812331 
L 285.09622 144.127152 
L 285.217966 144.213013 
L 285.796257 144.613693 
L 285.826693 144.585074 
L 285.887566 144.670934 
L 286.161493 144.756794 
L 286.404984 144.871274 
L 286.587602 144.842655 
L 286.739784 144.899895 
L 286.891966 144.899895 
L 287.43982 144.842655 
L 287.622439 144.728173 
L 287.926802 144.642314 
L 288.261602 144.470593 
L 288.44422 144.384733 
L 289.296439 143.72647 
L 289.357311 143.66923 
L 289.570366 143.49751 
L 289.661675 143.44027 
L 290.026911 142.982348 
L 290.818257 142.095124 
L 291.396548 141.236522 
L 291.944402 140.578259 
L 294.014075 136.485585 
L 294.318439 135.741463 
L 294.714111 134.768378 
L 296.966402 128.099895 
L 298.092548 124.293421 
L 299.096948 121.14521 
L 299.49262 119.800067 
L 299.736111 119.11318 
L 301.349239 114.877408 
L 301.866657 113.675363 
L 302.110148 113.188822 
L 302.536257 112.61642 
L 302.627566 112.559177 
L 302.901493 112.272976 
L 303.449348 111.900917 
L 304.058075 111.958159 
L 304.210257 112.044015 
L 304.392875 112.129878 
L 305.366839 113.188822 
L 306.310366 115.192229 
L 306.645166 116.251175 
L 306.797348 116.737716 
L 308.075675 121.975193 
L 308.471348 124.121701 
L 309.323566 129.5309 
L 310.145348 135.569742 
L 310.54102 138.832433 
L 314.010766 172.489673 
L 319.063202 223.633793 
L 320.00673 230.674338 
L 321.467675 239.603817 
L 321.893784 241.635839 
L 322.532948 244.154408 
L 323.446039 246.444012 
L 324.450439 247.245382 
L 324.785239 247.159524 
L 326.03313 245.842994 
L 326.94622 243.925443 
L 328.894148 236.169398 
L 329.95942 230.645722 
L 332.820439 211.09819 
L 333.581348 204.944871 
L 334.829239 194.727492 
L 341.34262 140.521019 
L 341.890475 136.228004 
L 343.077493 127.126811 
L 343.838402 121.402791 
L 344.629748 115.65015 
L 347.338584 98.535329 
L 347.70382 96.732263 
L 348.403857 93.383709 
L 348.951711 90.922382 
L 349.37782 89.119313 
L 350.686584 84.625964 
L 352.025784 81.162927 
L 352.117093 80.962589 
L 352.573639 79.989506 
L 353.791093 77.928856 
L 354.947675 76.955775 
L 355.099857 76.955775 
L 355.891202 77.041633 
L 357.230402 78.386778 
L 357.443457 78.816081 
L 357.50433 78.873315 
L 357.900002 79.7033 
L 358.052184 79.989506 
L 358.660911 81.33465 
L 358.904402 81.992913 
L 360.121857 85.713524 
L 360.578402 87.344867 
L 362.374148 94.499895 
L 362.952439 97.132947 
L 364.809057 106.348617 
L 365.630839 111.070934 
L 366.087384 113.732606 
L 368.826657 131.047765 
L 369.46582 135.28354 
L 374.883493 170.228685 
L 375.796584 176.009946 
L 381.975166 215.992228 
L 382.52302 219.083197 
L 382.918693 221.258327 
L 382.918693 221.258327 
" style="fill:none;stroke:#0000ff;stroke-linecap:square;stroke-width:1.5;"/>
   </g>
   <g id="line2d_30">
    <path clip-path="url(#pe6e3dead18)" d="M 78.555057 155.929567 
L 78.798548 155.943877 
L 78.95073 155.943877 
L 79.163784 155.943877 
L 79.376839 155.943877 
L 79.650766 155.929567 
L 85.159748 155.829396 
L 85.433675 155.815086 
L 95.93422 155.714916 
L 96.208148 155.700606 
L 96.482075 155.714916 
L 100.71273 155.815086 
L 101.169275 155.915257 
L 101.321457 155.943877 
L 101.534511 156.001117 
L 101.808439 156.101287 
L 102.995457 156.77386 
L 103.330257 157.074371 
L 103.543311 157.274712 
L 105.095566 159.65018 
L 105.795602 161.195665 
L 106.830439 163.900265 
L 108.534875 169.023264 
L 108.99142 170.482888 
L 110.026257 173.73127 
L 110.695857 175.562957 
L 112.887275 180.442684 
L 113.00902 180.600095 
L 113.709057 181.401457 
L 113.830802 181.501628 
L 114.378657 181.873689 
L 114.68302 181.916619 
L 116.052657 181.158187 
L 116.570075 180.256654 
L 117.970148 176.736382 
L 118.487566 175.004865 
L 119.278911 172.028374 
L 120.739857 165.3742 
L 128.135893 120.827012 
L 130.296875 111.167727 
L 132.549166 104.127182 
L 133.18833 102.653245 
L 134.223166 100.478119 
L 135.166693 98.961254 
L 135.562366 98.302994 
L 135.958039 97.90231 
L 136.079784 97.80214 
L 136.292839 97.587486 
L 136.658075 97.100945 
L 137.145057 96.600095 
L 137.266802 96.571475 
L 137.479857 96.514235 
L 138.058148 96.414065 
L 138.271202 96.428377 
L 139.184293 97.888 
L 139.701711 99.018494 
L 140.340875 100.79294 
L 141.89313 106.273687 
L 142.775784 110.452225 
L 143.90193 117.43553 
L 145.515057 128.76909 
L 147.006439 140.818152 
L 153.824184 207.087999 
L 156.28953 224.803844 
L 156.898257 228.095152 
L 158.420075 234.062445 
L 159.120111 235.708101 
L 159.698402 236.795665 
L 160.124511 237.210656 
L 160.489748 237.410997 
L 160.946293 237.511167 
L 161.189784 237.410997 
L 161.768075 236.724112 
L 162.102875 236.208951 
L 162.498548 235.479145 
L 163.259457 233.003504 
L 164.385602 227.780335 
L 166.424839 213.670625 
L 168.738002 193.178629 
L 171.02073 171.742173 
L 174.581784 140.904013 
L 175.677493 133.019175 
L 176.651457 126.894473 
L 177.929784 120.855632 
L 178.660257 118.809297 
L 179.025493 117.893449 
L 179.908148 116.090387 
L 180.669057 114.888338 
L 181.06473 114.501967 
L 181.612584 114.602137 
L 182.464802 115.517983 
L 183.256148 117.421219 
L 183.621384 118.337063 
L 184.07793 119.682208 
L 184.504039 121.213383 
L 186.178039 127.939107 
L 187.943348 135.881185 
L 188.826002 140.560572 
L 190.073893 147.500946 
L 190.986984 152.022923 
L 192.539239 159.836211 
L 194.061057 167.792599 
L 196.861202 180.442684 
L 198.352584 184.97897 
L 198.961311 186.152394 
L 199.38742 186.409975 
L 199.570039 186.381355 
L 199.843966 186.281185 
L 200.39182 185.923434 
L 200.970111 184.92173 
L 201.883202 182.989873 
L 202.73542 180.285273 
L 204.105057 174.017471 
L 205.200766 167.806909 
L 205.870366 164.129226 
L 207.726984 153.038936 
L 212.018511 123.560231 
L 213.996875 113.028036 
L 215.853493 105.644047 
L 216.88833 103.48323 
L 217.55793 102.424286 
L 217.770984 102.209638 
L 218.684075 101.479823 
L 219.871093 101.579993 
L 220.023275 101.594305 
L 220.388511 101.680163 
L 220.81462 101.937744 
L 221.14942 102.195325 
L 221.697275 102.782035 
L 221.940766 103.139786 
L 222.884293 104.685272 
L 223.340839 105.515257 
L 223.91913 106.817469 
L 224.680039 108.878119 
L 225.319202 110.852904 
L 225.806184 112.269601 
L 229.245493 123.946603 
L 230.341202 128.110828 
L 231.467348 132.775904 
L 232.167384 136.167387 
L 234.937093 153.768749 
L 236.458911 165.27403 
L 238.589457 181.415768 
L 240.172148 191.790555 
L 241.450475 199.503672 
L 243.550584 209.806909 
L 244.281057 212.983738 
L 245.041966 216.031781 
L 245.742002 218.52173 
L 246.168111 219.781014 
L 246.776839 221.412358 
L 248.511711 224.460401 
L 249.27262 225.032805 
L 250.185711 225.347622 
L 251.859711 225.247454 
L 252.103202 225.090041 
L 252.255384 225.004185 
L 252.559748 224.746602 
L 252.833675 224.503331 
L 253.411966 223.830756 
L 253.777202 223.372837 
L 254.325057 222.786125 
L 254.903348 222.099243 
L 256.820839 219.580674 
L 258.890511 217.777607 
L 259.194875 217.520026 
L 261.690657 215.0587 
L 262.025457 214.543538 
L 263.486402 211.567047 
L 264.947348 207.860742 
L 266.499602 201.592942 
L 267.382257 196.913555 
L 269.208439 185.079141 
L 271.825966 163.284933 
L 273.226039 149.075053 
L 275.508766 123.18817 
L 279.800293 74.047453 
L 280.926439 63.043023 
L 282.235202 52.296175 
L 283.543966 44.397029 
L 284.609239 40.361599 
L 285.248402 39.116623 
L 285.704948 38.658701 
L 285.918002 38.587149 
L 286.283239 38.687319 
L 286.800657 39.316961 
L 287.592002 41.449156 
L 288.292039 44.511512 
L 289.083384 49.162274 
L 289.905166 54.871984 
L 291.45742 68.137402 
L 293.314039 87.556143 
L 301.440548 178.038595 
L 303.60153 197.328547 
L 304.51462 203.367388 
L 305.61033 209.377607 
L 306.310366 212.697541 
L 308.501784 221.52684 
L 310.906257 227.994981 
L 311.788911 229.425986 
L 312.093275 229.683567 
L 312.732439 230.141487 
L 313.280293 230.041319 
L 314.102075 229.139788 
L 314.98473 227.250859 
L 315.928257 224.760912 
L 317.358766 219.723774 
L 318.33273 215.244726 
L 319.184948 211.180676 
L 320.858948 201.950693 
L 321.772039 196.655974 
L 324.420002 181.086636 
L 326.124439 170.597369 
L 327.95062 160.122412 
L 328.71153 156.015427 
L 330.081166 149.504354 
L 330.933384 145.998391 
L 332.72913 140.431782 
L 334.464002 137.398051 
L 334.768366 137.15478 
L 335.681457 136.825648 
L 336.07713 136.897199 
L 336.259748 136.92582 
L 336.929348 137.02599 
L 338.390293 137.827351 
L 338.725093 138.113553 
L 339.303384 138.786126 
L 339.638184 139.186808 
L 342.894875 143.594302 
L 343.168802 143.823264 
L 343.594911 144.238255 
L 343.838402 144.467216 
L 344.264511 144.882207 
L 345.299348 145.998391 
L 345.816766 146.542174 
L 346.12113 146.785444 
L 346.395057 147.000095 
L 347.46033 147.386466 
L 348.099493 147.300606 
L 348.282111 147.243365 
L 348.556039 147.257676 
L 348.769093 147.200435 
L 349.103893 147.114575 
L 349.347384 147.014405 
L 349.864802 146.914235 
L 351.38662 146.313212 
L 351.569239 146.298902 
L 351.934475 146.241662 
L 352.14753 146.227353 
L 354.369384 146.327522 
L 355.16073 146.799754 
L 355.556402 147.186125 
L 355.647711 147.271986 
L 358.873966 150.434507 
L 359.239202 150.892429 
L 360.395784 151.836892 
L 361.034948 152.251884 
L 361.308875 152.452224 
L 362.678511 153.854609 
L 362.922002 154.16943 
L 363.074184 154.341151 
L 363.682911 155.013723 
L 365.722148 157.074371 
L 366.11782 157.446432 
L 366.635239 157.804183 
L 368.46142 157.718323 
L 368.674475 157.661083 
L 369.587566 157.131611 
L 370.409348 155.786466 
L 371.626802 153.267897 
L 372.083348 152.437914 
L 372.296402 152.094473 
L 374.183457 148.330929 
L 374.700875 147.171816 
L 375.309602 146.127182 
L 381.092511 135.480504 
L 382.918693 132.904695 
L 382.918693 132.904695 
" style="fill:none;stroke:#ff0000;stroke-linecap:square;stroke-width:1.5;"/>
   </g>
   <g id="line2d_31">
    <path clip-path="url(#pe6e3dead18)" d="M 129.74902 164.390184 
" style="fill:none;stroke:#ffffff;stroke-linecap:square;stroke-width:1.5;"/>
    <defs>
     <path d="M 0 -5 
L -1.12257 -1.545085 
L -4.755283 -1.545085 
L -1.816356 0.59017 
L -2.938926 4.045085 
L -0 1.90983 
L 2.938926 4.045085 
L 1.816356 0.59017 
L 4.755283 -1.545085 
L 1.12257 -1.545085 
z
" id="m08242ed301" style="stroke:#ffffff;stroke-linejoin:bevel;"/>
    </defs>
    <g clip-path="url(#pe6e3dead18)">
     <use style="fill:#0000ff;stroke:#ffffff;stroke-linejoin:bevel;" x="129.74902" xlink:href="#m08242ed301" y="164.390184"/>
    </g>
   </g>
   <g id="line2d_32">
    <path clip-path="url(#pe6e3dead18)" d="M 106.039093 161.768068 
" style="fill:none;stroke:#ffffff;stroke-linecap:square;stroke-width:1.5;"/>
    <defs>
     <path d="M 0 -5 
L -1.12257 -1.545085 
L -4.755283 -1.545085 
L -1.816356 0.59017 
L -2.938926 4.045085 
L -0 1.90983 
L 2.938926 4.045085 
L 1.816356 0.59017 
L 4.755283 -1.545085 
L 1.12257 -1.545085 
z
" id="m4ca111636e" style="stroke:#ffffff;stroke-linejoin:bevel;"/>
    </defs>
    <g clip-path="url(#pe6e3dead18)">
     <use style="fill:#ff0000;stroke:#ffffff;stroke-linejoin:bevel;" x="106.039093" xlink:href="#m4ca111636e" y="161.768068"/>
    </g>
   </g>
   <g id="patch_3">
    <path d="M 63.336875 339.84 
L 63.336875 7.2 
" style="fill:none;stroke:#000000;stroke-linecap:square;stroke-linejoin:miter;stroke-width:0.8;"/>
   </g>
   <g id="patch_4">
    <path d="M 398.136875 339.84 
L 398.136875 7.2 
" style="fill:none;stroke:#000000;stroke-linecap:square;stroke-linejoin:miter;stroke-width:0.8;"/>
   </g>
   <g id="patch_5">
    <path d="M 63.336875 339.84 
L 398.136875 339.84 
" style="fill:none;stroke:#000000;stroke-linecap:square;stroke-linejoin:miter;stroke-width:0.8;"/>
   </g>
   <g id="patch_6">
    <path d="M 63.336875 7.2 
L 398.136875 7.2 
" style="fill:none;stroke:#000000;stroke-linecap:square;stroke-linejoin:miter;stroke-width:0.8;"/>
   </g>
   <g id="text_17">
    <g id="patch_7">
     <path d="M 75.036875 331.242688 
L 166.79375 331.242688 
L 166.79375 293.760312 
L 75.036875 293.760312 
z
" style="fill:#ffffff;stroke:#000000;stroke-linejoin:miter;stroke-width:0.75;"/>
    </g>
    <!-- Auto_00032 -->
    <g transform="translate(80.076875 308.521563)scale(0.14 -0.14)">
     <defs>
      <path d="M 2928 1419 
L 1288 1419 
L 1000 750 
Q 894 503 894 381 
Q 894 284 986 211 
Q 1078 138 1384 116 
L 1384 0 
L 50 0 
L 50 116 
Q 316 163 394 238 
Q 553 388 747 847 
L 2238 4334 
L 2347 4334 
L 3822 809 
Q 4000 384 4145 257 
Q 4291 131 4550 116 
L 4550 0 
L 2878 0 
L 2878 116 
Q 3131 128 3220 200 
Q 3309 272 3309 375 
Q 3309 513 3184 809 
L 2928 1419 
z
M 2841 1650 
L 2122 3363 
L 1384 1650 
L 2841 1650 
z
" id="TimesNewRomanPSMT-41" transform="scale(0.015625)"/>
      <path d="M 2709 2863 
L 2709 1128 
Q 2709 631 2732 520 
Q 2756 409 2807 365 
Q 2859 322 2928 322 
Q 3025 322 3147 375 
L 3191 266 
L 2334 -88 
L 2194 -88 
L 2194 519 
Q 1825 119 1631 15 
Q 1438 -88 1222 -88 
Q 981 -88 804 51 
Q 628 191 559 409 
Q 491 628 491 1028 
L 491 2306 
Q 491 2509 447 2587 
Q 403 2666 317 2708 
Q 231 2750 6 2747 
L 6 2863 
L 1009 2863 
L 1009 947 
Q 1009 547 1148 422 
Q 1288 297 1484 297 
Q 1619 297 1789 381 
Q 1959 466 2194 703 
L 2194 2325 
Q 2194 2569 2105 2655 
Q 2016 2741 1734 2747 
L 1734 2863 
L 2709 2863 
z
" id="TimesNewRomanPSMT-75" transform="scale(0.015625)"/>
      <path d="M 3256 -1381 
L -53 -1381 
L -53 -1119 
L 3256 -1119 
L 3256 -1381 
z
" id="TimesNewRomanPSMT-5f" transform="scale(0.015625)"/>
     </defs>
     <use xlink:href="#TimesNewRomanPSMT-41"/>
     <use x="72.216797" xlink:href="#TimesNewRomanPSMT-75"/>
     <use x="122.216797" xlink:href="#TimesNewRomanPSMT-74"/>
     <use x="150" xlink:href="#TimesNewRomanPSMT-6f"/>
     <use x="200" xlink:href="#TimesNewRomanPSMT-5f"/>
     <use x="250" xlink:href="#TimesNewRomanPSMT-30"/>
     <use x="300" xlink:href="#TimesNewRomanPSMT-30"/>
     <use x="350" xlink:href="#TimesNewRomanPSMT-30"/>
     <use x="400" xlink:href="#TimesNewRomanPSMT-33"/>
     <use x="450" xlink:href="#TimesNewRomanPSMT-32"/>
    </g>
    <!-- Vs: 256.61m/s -->
    <g transform="translate(80.076875 323.208)scale(0.14 -0.14)">
     <defs>
      <path d="M 903 2950 
Q 1047 2950 1148 2848 
Q 1250 2747 1250 2603 
Q 1250 2459 1148 2357 
Q 1047 2256 903 2256 
Q 759 2256 657 2357 
Q 556 2459 556 2603 
Q 556 2747 657 2848 
Q 759 2950 903 2950 
z
M 897 609 
Q 1044 609 1145 506 
Q 1247 403 1247 259 
Q 1247 116 1144 14 
Q 1041 -88 897 -88 
Q 753 -88 651 14 
Q 550 116 550 259 
Q 550 403 651 506 
Q 753 609 897 609 
z
" id="TimesNewRomanPSMT-3a" transform="scale(0.015625)"/>
      <path d="M 1794 4444 
L 259 -88 
L 9 -88 
L 1544 4444 
L 1794 4444 
z
" id="TimesNewRomanPSMT-2f" transform="scale(0.015625)"/>
     </defs>
     <use xlink:href="#TimesNewRomanPSMT-56"/>
     <use x="72.216797" xlink:href="#TimesNewRomanPSMT-73"/>
     <use x="111.132812" xlink:href="#TimesNewRomanPSMT-3a"/>
     <use x="138.916016" xlink:href="#TimesNewRomanPSMT-20"/>
     <use x="163.916016" xlink:href="#TimesNewRomanPSMT-32"/>
     <use x="213.916016" xlink:href="#TimesNewRomanPSMT-35"/>
     <use x="263.916016" xlink:href="#TimesNewRomanPSMT-36"/>
     <use x="313.916016" xlink:href="#TimesNewRomanPSMT-2e"/>
     <use x="338.916016" xlink:href="#TimesNewRomanPSMT-36"/>
     <use x="388.916016" xlink:href="#TimesNewRomanPSMT-31"/>
     <use x="438.916016" xlink:href="#TimesNewRomanPSMT-6d"/>
     <use x="516.699219" xlink:href="#TimesNewRomanPSMT-2f"/>
     <use x="544.482422" xlink:href="#TimesNewRomanPSMT-73"/>
    </g>
   </g>
  </g>
 </g>
 <defs>
  <clipPath id="pe6e3dead18">
   <rect height="332.64" width="334.8" x="63.336875" y="7.2"/>
  </clipPath>
 </defs>
</svg>
