<?xml version="1.0" encoding="utf-8" standalone="no"?>
<!DOCTYPE svg PUBLIC "-//W3C//DTD SVG 1.1//EN"
  "http://www.w3.org/Graphics/SVG/1.1/DTD/svg11.dtd">
<svg height="383.471875pt" version="1.1" viewBox="0 0 421.086875 383.471875" width="421.086875pt" xmlns="http://www.w3.org/2000/svg" xmlns:xlink="http://www.w3.org/1999/xlink">
 <metadata>
  <rdf:RDF xmlns:cc="http://creativecommons.org/ns#" xmlns:dc="http://purl.org/dc/elements/1.1/" xmlns:rdf="http://www.w3.org/1999/02/22-rdf-syntax-ns#">
   <cc:Work>
    <dc:type rdf:resource="http://purl.org/dc/dcmitype/StillImage"/>
    <dc:date>2021-06-11T14:39:39.153995</dc:date>
    <dc:format>image/svg+xml</dc:format>
    <dc:creator>
     <cc:Agent>
      <dc:title>Matplotlib v3.4.2, https://matplotlib.org/</dc:title>
     </cc:Agent>
    </dc:creator>
   </cc:Work>
  </rdf:RDF>
 </metadata>
 <defs>
  <style type="text/css">*{stroke-linecap:butt;stroke-linejoin:round;}</style>
 </defs>
 <g id="figure_1">
  <g id="patch_1">
   <path d="M 0 383.471875 
L 421.086875 383.471875 
L 421.086875 0 
L 0 0 
z
" style="fill:#ffffff;"/>
  </g>
  <g id="axes_1">
   <g id="patch_2">
    <path d="M 63.336875 339.84 
L 398.136875 339.84 
L 398.136875 7.2 
L 63.336875 7.2 
z
" style="fill:#ffffff;"/>
   </g>
   <g id="matplotlib.axis_1">
    <g id="xtick_1">
     <g id="line2d_1">
      <path clip-path="url(#p029e723fb3)" d="M 93.773239 339.84 
L 93.773239 7.2 
" style="fill:none;stroke:#000000;stroke-dasharray:0.5,0.825;stroke-dashoffset:0;stroke-width:0.5;"/>
     </g>
     <g id="line2d_2">
      <defs>
       <path d="M 0 0 
L 0 3.5 
" id="mfe705d6de4" style="stroke:#000000;stroke-width:0.8;"/>
      </defs>
      <g>
       <use style="stroke:#000000;stroke-width:0.8;" x="93.773239" xlink:href="#mfe705d6de4" y="339.84"/>
      </g>
     </g>
     <g id="text_1">
      <!-- 0.000 -->
      <g transform="translate(78.023239 356.56125)scale(0.14 -0.14)">
       <defs>
        <path d="M 231 2094 
Q 231 2819 450 3342 
Q 669 3866 1031 4122 
Q 1313 4325 1613 4325 
Q 2100 4325 2488 3828 
Q 2972 3213 2972 2159 
Q 2972 1422 2759 906 
Q 2547 391 2217 158 
Q 1888 -75 1581 -75 
Q 975 -75 572 641 
Q 231 1244 231 2094 
z
M 844 2016 
Q 844 1141 1059 588 
Q 1238 122 1591 122 
Q 1759 122 1940 273 
Q 2122 425 2216 781 
Q 2359 1319 2359 2297 
Q 2359 3022 2209 3506 
Q 2097 3866 1919 4016 
Q 1791 4119 1609 4119 
Q 1397 4119 1231 3928 
Q 1006 3669 925 3112 
Q 844 2556 844 2016 
z
" id="TimesNewRomanPSMT-30" transform="scale(0.015625)"/>
        <path d="M 800 606 
Q 947 606 1047 504 
Q 1147 403 1147 259 
Q 1147 116 1045 14 
Q 944 -88 800 -88 
Q 656 -88 554 14 
Q 453 116 453 259 
Q 453 406 554 506 
Q 656 606 800 606 
z
" id="TimesNewRomanPSMT-2e" transform="scale(0.015625)"/>
       </defs>
       <use xlink:href="#TimesNewRomanPSMT-30"/>
       <use x="50" xlink:href="#TimesNewRomanPSMT-2e"/>
       <use x="75" xlink:href="#TimesNewRomanPSMT-30"/>
       <use x="125" xlink:href="#TimesNewRomanPSMT-30"/>
       <use x="175" xlink:href="#TimesNewRomanPSMT-30"/>
      </g>
     </g>
    </g>
    <g id="xtick_2">
     <g id="line2d_3">
      <path clip-path="url(#p029e723fb3)" d="M 154.645966 339.84 
L 154.645966 7.2 
" style="fill:none;stroke:#000000;stroke-dasharray:0.5,0.825;stroke-dashoffset:0;stroke-width:0.5;"/>
     </g>
     <g id="line2d_4">
      <g>
       <use style="stroke:#000000;stroke-width:0.8;" x="154.645966" xlink:href="#mfe705d6de4" y="339.84"/>
      </g>
     </g>
     <g id="text_2">
      <!-- 0.001 -->
      <g transform="translate(138.895966 356.56125)scale(0.14 -0.14)">
       <defs>
        <path d="M 750 3822 
L 1781 4325 
L 1884 4325 
L 1884 747 
Q 1884 391 1914 303 
Q 1944 216 2037 169 
Q 2131 122 2419 116 
L 2419 0 
L 825 0 
L 825 116 
Q 1125 122 1212 167 
Q 1300 213 1334 289 
Q 1369 366 1369 747 
L 1369 3034 
Q 1369 3497 1338 3628 
Q 1316 3728 1258 3775 
Q 1200 3822 1119 3822 
Q 1003 3822 797 3725 
L 750 3822 
z
" id="TimesNewRomanPSMT-31" transform="scale(0.015625)"/>
       </defs>
       <use xlink:href="#TimesNewRomanPSMT-30"/>
       <use x="50" xlink:href="#TimesNewRomanPSMT-2e"/>
       <use x="75" xlink:href="#TimesNewRomanPSMT-30"/>
       <use x="125" xlink:href="#TimesNewRomanPSMT-30"/>
       <use x="175" xlink:href="#TimesNewRomanPSMT-31"/>
      </g>
     </g>
    </g>
    <g id="xtick_3">
     <g id="line2d_5">
      <path clip-path="url(#p029e723fb3)" d="M 215.518693 339.84 
L 215.518693 7.2 
" style="fill:none;stroke:#000000;stroke-dasharray:0.5,0.825;stroke-dashoffset:0;stroke-width:0.5;"/>
     </g>
     <g id="line2d_6">
      <g>
       <use style="stroke:#000000;stroke-width:0.8;" x="215.518693" xlink:href="#mfe705d6de4" y="339.84"/>
      </g>
     </g>
     <g id="text_3">
      <!-- 0.002 -->
      <g transform="translate(199.768693 356.56125)scale(0.14 -0.14)">
       <defs>
        <path d="M 2934 816 
L 2638 0 
L 138 0 
L 138 116 
Q 1241 1122 1691 1759 
Q 2141 2397 2141 2925 
Q 2141 3328 1894 3587 
Q 1647 3847 1303 3847 
Q 991 3847 742 3664 
Q 494 3481 375 3128 
L 259 3128 
Q 338 3706 661 4015 
Q 984 4325 1469 4325 
Q 1984 4325 2329 3994 
Q 2675 3663 2675 3213 
Q 2675 2891 2525 2569 
Q 2294 2063 1775 1497 
Q 997 647 803 472 
L 1909 472 
Q 2247 472 2383 497 
Q 2519 522 2628 598 
Q 2738 675 2819 816 
L 2934 816 
z
" id="TimesNewRomanPSMT-32" transform="scale(0.015625)"/>
       </defs>
       <use xlink:href="#TimesNewRomanPSMT-30"/>
       <use x="50" xlink:href="#TimesNewRomanPSMT-2e"/>
       <use x="75" xlink:href="#TimesNewRomanPSMT-30"/>
       <use x="125" xlink:href="#TimesNewRomanPSMT-30"/>
       <use x="175" xlink:href="#TimesNewRomanPSMT-32"/>
      </g>
     </g>
    </g>
    <g id="xtick_4">
     <g id="line2d_7">
      <path clip-path="url(#p029e723fb3)" d="M 276.39142 339.84 
L 276.39142 7.2 
" style="fill:none;stroke:#000000;stroke-dasharray:0.5,0.825;stroke-dashoffset:0;stroke-width:0.5;"/>
     </g>
     <g id="line2d_8">
      <g>
       <use style="stroke:#000000;stroke-width:0.8;" x="276.39142" xlink:href="#mfe705d6de4" y="339.84"/>
      </g>
     </g>
     <g id="text_4">
      <!-- 0.003 -->
      <g transform="translate(260.64142 356.56125)scale(0.14 -0.14)">
       <defs>
        <path d="M 325 3431 
Q 506 3859 782 4092 
Q 1059 4325 1472 4325 
Q 1981 4325 2253 3994 
Q 2459 3747 2459 3466 
Q 2459 3003 1878 2509 
Q 2269 2356 2469 2072 
Q 2669 1788 2669 1403 
Q 2669 853 2319 450 
Q 1863 -75 997 -75 
Q 569 -75 414 31 
Q 259 138 259 259 
Q 259 350 332 419 
Q 406 488 509 488 
Q 588 488 669 463 
Q 722 447 909 348 
Q 1097 250 1169 231 
Q 1284 197 1416 197 
Q 1734 197 1970 444 
Q 2206 691 2206 1028 
Q 2206 1275 2097 1509 
Q 2016 1684 1919 1775 
Q 1784 1900 1550 2001 
Q 1316 2103 1072 2103 
L 972 2103 
L 972 2197 
Q 1219 2228 1467 2375 
Q 1716 2522 1828 2728 
Q 1941 2934 1941 3181 
Q 1941 3503 1739 3701 
Q 1538 3900 1238 3900 
Q 753 3900 428 3381 
L 325 3431 
z
" id="TimesNewRomanPSMT-33" transform="scale(0.015625)"/>
       </defs>
       <use xlink:href="#TimesNewRomanPSMT-30"/>
       <use x="50" xlink:href="#TimesNewRomanPSMT-2e"/>
       <use x="75" xlink:href="#TimesNewRomanPSMT-30"/>
       <use x="125" xlink:href="#TimesNewRomanPSMT-30"/>
       <use x="175" xlink:href="#TimesNewRomanPSMT-33"/>
      </g>
     </g>
    </g>
    <g id="xtick_5">
     <g id="line2d_9">
      <path clip-path="url(#p029e723fb3)" d="M 337.264148 339.84 
L 337.264148 7.2 
" style="fill:none;stroke:#000000;stroke-dasharray:0.5,0.825;stroke-dashoffset:0;stroke-width:0.5;"/>
     </g>
     <g id="line2d_10">
      <g>
       <use style="stroke:#000000;stroke-width:0.8;" x="337.264148" xlink:href="#mfe705d6de4" y="339.84"/>
      </g>
     </g>
     <g id="text_5">
      <!-- 0.004 -->
      <g transform="translate(321.514148 356.56125)scale(0.14 -0.14)">
       <defs>
        <path d="M 2978 1563 
L 2978 1119 
L 2409 1119 
L 2409 0 
L 1894 0 
L 1894 1119 
L 100 1119 
L 100 1519 
L 2066 4325 
L 2409 4325 
L 2409 1563 
L 2978 1563 
z
M 1894 1563 
L 1894 3666 
L 406 1563 
L 1894 1563 
z
" id="TimesNewRomanPSMT-34" transform="scale(0.015625)"/>
       </defs>
       <use xlink:href="#TimesNewRomanPSMT-30"/>
       <use x="50" xlink:href="#TimesNewRomanPSMT-2e"/>
       <use x="75" xlink:href="#TimesNewRomanPSMT-30"/>
       <use x="125" xlink:href="#TimesNewRomanPSMT-30"/>
       <use x="175" xlink:href="#TimesNewRomanPSMT-34"/>
      </g>
     </g>
    </g>
    <g id="xtick_6">
     <g id="line2d_11">
      <path clip-path="url(#p029e723fb3)" d="M 398.136875 339.84 
L 398.136875 7.2 
" style="fill:none;stroke:#000000;stroke-dasharray:0.5,0.825;stroke-dashoffset:0;stroke-width:0.5;"/>
     </g>
     <g id="line2d_12">
      <g>
       <use style="stroke:#000000;stroke-width:0.8;" x="398.136875" xlink:href="#mfe705d6de4" y="339.84"/>
      </g>
     </g>
     <g id="text_6">
      <!-- 0.005 -->
      <g transform="translate(382.386875 356.56125)scale(0.14 -0.14)">
       <defs>
        <path d="M 2778 4238 
L 2534 3706 
L 1259 3706 
L 981 3138 
Q 1809 3016 2294 2522 
Q 2709 2097 2709 1522 
Q 2709 1188 2573 903 
Q 2438 619 2231 419 
Q 2025 219 1772 97 
Q 1413 -75 1034 -75 
Q 653 -75 479 54 
Q 306 184 306 341 
Q 306 428 378 495 
Q 450 563 559 563 
Q 641 563 702 538 
Q 763 513 909 409 
Q 1144 247 1384 247 
Q 1750 247 2026 523 
Q 2303 800 2303 1197 
Q 2303 1581 2056 1914 
Q 1809 2247 1375 2428 
Q 1034 2569 447 2591 
L 1259 4238 
L 2778 4238 
z
" id="TimesNewRomanPSMT-35" transform="scale(0.015625)"/>
       </defs>
       <use xlink:href="#TimesNewRomanPSMT-30"/>
       <use x="50" xlink:href="#TimesNewRomanPSMT-2e"/>
       <use x="75" xlink:href="#TimesNewRomanPSMT-30"/>
       <use x="125" xlink:href="#TimesNewRomanPSMT-30"/>
       <use x="175" xlink:href="#TimesNewRomanPSMT-35"/>
      </g>
     </g>
    </g>
    <g id="text_7">
     <!-- Time (sec) -->
     <g transform="translate(200.858906 373.277188)scale(0.14 -0.14)">
      <defs>
       <path d="M 3703 4238 
L 3750 3244 
L 3631 3244 
Q 3597 3506 3538 3619 
Q 3441 3800 3280 3886 
Q 3119 3972 2856 3972 
L 2259 3972 
L 2259 734 
Q 2259 344 2344 247 
Q 2463 116 2709 116 
L 2856 116 
L 2856 0 
L 1059 0 
L 1059 116 
L 1209 116 
Q 1478 116 1591 278 
Q 1659 378 1659 734 
L 1659 3972 
L 1150 3972 
Q 853 3972 728 3928 
Q 566 3869 450 3700 
Q 334 3531 313 3244 
L 194 3244 
L 244 4238 
L 3703 4238 
z
" id="TimesNewRomanPSMT-54" transform="scale(0.015625)"/>
       <path d="M 928 4444 
Q 1059 4444 1151 4351 
Q 1244 4259 1244 4128 
Q 1244 3997 1151 3903 
Q 1059 3809 928 3809 
Q 797 3809 703 3903 
Q 609 3997 609 4128 
Q 609 4259 701 4351 
Q 794 4444 928 4444 
z
M 1188 2947 
L 1188 647 
Q 1188 378 1227 289 
Q 1266 200 1342 156 
Q 1419 113 1622 113 
L 1622 0 
L 231 0 
L 231 113 
Q 441 113 512 153 
Q 584 194 626 287 
Q 669 381 669 647 
L 669 1750 
Q 669 2216 641 2353 
Q 619 2453 572 2492 
Q 525 2531 444 2531 
Q 356 2531 231 2484 
L 188 2597 
L 1050 2947 
L 1188 2947 
z
" id="TimesNewRomanPSMT-69" transform="scale(0.015625)"/>
       <path d="M 1050 2338 
Q 1363 2650 1419 2697 
Q 1559 2816 1721 2881 
Q 1884 2947 2044 2947 
Q 2313 2947 2506 2790 
Q 2700 2634 2766 2338 
Q 3088 2713 3309 2830 
Q 3531 2947 3766 2947 
Q 3994 2947 4170 2830 
Q 4347 2713 4450 2447 
Q 4519 2266 4519 1878 
L 4519 647 
Q 4519 378 4559 278 
Q 4591 209 4675 161 
Q 4759 113 4950 113 
L 4950 0 
L 3538 0 
L 3538 113 
L 3597 113 
Q 3781 113 3884 184 
Q 3956 234 3988 344 
Q 4000 397 4000 647 
L 4000 1878 
Q 4000 2228 3916 2372 
Q 3794 2572 3525 2572 
Q 3359 2572 3192 2489 
Q 3025 2406 2788 2181 
L 2781 2147 
L 2788 2013 
L 2788 647 
Q 2788 353 2820 281 
Q 2853 209 2943 161 
Q 3034 113 3253 113 
L 3253 0 
L 1806 0 
L 1806 113 
Q 2044 113 2133 169 
Q 2222 225 2256 338 
Q 2272 391 2272 647 
L 2272 1878 
Q 2272 2228 2169 2381 
Q 2031 2581 1784 2581 
Q 1616 2581 1450 2491 
Q 1191 2353 1050 2181 
L 1050 647 
Q 1050 366 1089 281 
Q 1128 197 1204 155 
Q 1281 113 1516 113 
L 1516 0 
L 100 0 
L 100 113 
Q 297 113 375 155 
Q 453 197 493 289 
Q 534 381 534 647 
L 534 1741 
Q 534 2213 506 2350 
Q 484 2453 437 2492 
Q 391 2531 309 2531 
Q 222 2531 100 2484 
L 53 2597 
L 916 2947 
L 1050 2947 
L 1050 2338 
z
" id="TimesNewRomanPSMT-6d" transform="scale(0.015625)"/>
       <path d="M 681 1784 
Q 678 1147 991 784 
Q 1303 422 1725 422 
Q 2006 422 2214 576 
Q 2422 731 2563 1106 
L 2659 1044 
Q 2594 616 2278 264 
Q 1963 -88 1488 -88 
Q 972 -88 605 314 
Q 238 716 238 1394 
Q 238 2128 614 2539 
Q 991 2950 1559 2950 
Q 2041 2950 2350 2633 
Q 2659 2316 2659 1784 
L 681 1784 
z
M 681 1966 
L 2006 1966 
Q 1991 2241 1941 2353 
Q 1863 2528 1708 2628 
Q 1553 2728 1384 2728 
Q 1125 2728 920 2526 
Q 716 2325 681 1966 
z
" id="TimesNewRomanPSMT-65" transform="scale(0.015625)"/>
       <path id="TimesNewRomanPSMT-20" transform="scale(0.015625)"/>
       <path d="M 1988 -1253 
L 1988 -1369 
Q 1516 -1131 1200 -813 
Q 750 -359 506 256 
Q 263 872 263 1534 
Q 263 2503 741 3301 
Q 1219 4100 1988 4444 
L 1988 4313 
Q 1603 4100 1356 3731 
Q 1109 3363 987 2797 
Q 866 2231 866 1616 
Q 866 947 969 400 
Q 1050 -31 1165 -292 
Q 1281 -553 1476 -793 
Q 1672 -1034 1988 -1253 
z
" id="TimesNewRomanPSMT-28" transform="scale(0.015625)"/>
       <path d="M 2050 2947 
L 2050 1972 
L 1947 1972 
Q 1828 2431 1642 2597 
Q 1456 2763 1169 2763 
Q 950 2763 815 2647 
Q 681 2531 681 2391 
Q 681 2216 781 2091 
Q 878 1963 1175 1819 
L 1631 1597 
Q 2266 1288 2266 781 
Q 2266 391 1970 151 
Q 1675 -88 1309 -88 
Q 1047 -88 709 6 
Q 606 38 541 38 
Q 469 38 428 -44 
L 325 -44 
L 325 978 
L 428 978 
Q 516 541 762 319 
Q 1009 97 1316 97 
Q 1531 97 1667 223 
Q 1803 350 1803 528 
Q 1803 744 1651 891 
Q 1500 1038 1047 1263 
Q 594 1488 453 1669 
Q 313 1847 313 2119 
Q 313 2472 555 2709 
Q 797 2947 1181 2947 
Q 1350 2947 1591 2875 
Q 1750 2828 1803 2828 
Q 1853 2828 1881 2850 
Q 1909 2872 1947 2947 
L 2050 2947 
z
" id="TimesNewRomanPSMT-73" transform="scale(0.015625)"/>
       <path d="M 2631 1088 
Q 2516 522 2178 217 
Q 1841 -88 1431 -88 
Q 944 -88 581 321 
Q 219 731 219 1428 
Q 219 2103 620 2525 
Q 1022 2947 1584 2947 
Q 2006 2947 2278 2723 
Q 2550 2500 2550 2259 
Q 2550 2141 2473 2067 
Q 2397 1994 2259 1994 
Q 2075 1994 1981 2113 
Q 1928 2178 1911 2362 
Q 1894 2547 1784 2644 
Q 1675 2738 1481 2738 
Q 1169 2738 978 2506 
Q 725 2200 725 1697 
Q 725 1184 976 792 
Q 1228 400 1656 400 
Q 1963 400 2206 609 
Q 2378 753 2541 1131 
L 2631 1088 
z
" id="TimesNewRomanPSMT-63" transform="scale(0.015625)"/>
       <path d="M 144 4313 
L 144 4444 
Q 619 4209 934 3891 
Q 1381 3434 1625 2820 
Q 1869 2206 1869 1541 
Q 1869 572 1392 -226 
Q 916 -1025 144 -1369 
L 144 -1253 
Q 528 -1038 776 -670 
Q 1025 -303 1145 264 
Q 1266 831 1266 1447 
Q 1266 2113 1163 2663 
Q 1084 3094 967 3353 
Q 850 3613 656 3853 
Q 463 4094 144 4313 
z
" id="TimesNewRomanPSMT-29" transform="scale(0.015625)"/>
      </defs>
      <use xlink:href="#TimesNewRomanPSMT-54"/>
      <use x="57.583984" xlink:href="#TimesNewRomanPSMT-69"/>
      <use x="85.367188" xlink:href="#TimesNewRomanPSMT-6d"/>
      <use x="163.150391" xlink:href="#TimesNewRomanPSMT-65"/>
      <use x="207.535156" xlink:href="#TimesNewRomanPSMT-20"/>
      <use x="232.535156" xlink:href="#TimesNewRomanPSMT-28"/>
      <use x="265.835938" xlink:href="#TimesNewRomanPSMT-73"/>
      <use x="304.751953" xlink:href="#TimesNewRomanPSMT-65"/>
      <use x="349.136719" xlink:href="#TimesNewRomanPSMT-63"/>
      <use x="393.521484" xlink:href="#TimesNewRomanPSMT-29"/>
     </g>
    </g>
   </g>
   <g id="matplotlib.axis_2">
    <g id="ytick_1">
     <g id="line2d_13">
      <path clip-path="url(#p029e723fb3)" d="M 63.336875 307.450653 
L 398.136875 307.450653 
" style="fill:none;stroke:#000000;stroke-dasharray:0.5,0.825;stroke-dashoffset:0;stroke-width:0.5;"/>
     </g>
     <g id="line2d_14">
      <defs>
       <path d="M 0 0 
L -3.5 0 
" id="mf2e0c043a4" style="stroke:#000000;stroke-width:0.8;"/>
      </defs>
      <g>
       <use style="stroke:#000000;stroke-width:0.8;" x="63.336875" xlink:href="#mf2e0c043a4" y="307.450653"/>
      </g>
     </g>
     <g id="text_8">
      <!-- −0.06 -->
      <g transform="translate(23.942188 312.311278)scale(0.14 -0.14)">
       <defs>
        <path d="M 3484 2000 
L 116 2000 
L 116 2256 
L 3484 2256 
L 3484 2000 
z
" id="TimesNewRomanPSMT-2212" transform="scale(0.015625)"/>
        <path d="M 2869 4325 
L 2869 4209 
Q 2456 4169 2195 4045 
Q 1934 3922 1679 3669 
Q 1425 3416 1258 3105 
Q 1091 2794 978 2366 
Q 1428 2675 1881 2675 
Q 2316 2675 2634 2325 
Q 2953 1975 2953 1425 
Q 2953 894 2631 456 
Q 2244 -75 1606 -75 
Q 1172 -75 869 213 
Q 275 772 275 1663 
Q 275 2231 503 2743 
Q 731 3256 1154 3653 
Q 1578 4050 1965 4187 
Q 2353 4325 2688 4325 
L 2869 4325 
z
M 925 2138 
Q 869 1716 869 1456 
Q 869 1156 980 804 
Q 1091 453 1309 247 
Q 1469 100 1697 100 
Q 1969 100 2183 356 
Q 2397 613 2397 1088 
Q 2397 1622 2184 2012 
Q 1972 2403 1581 2403 
Q 1463 2403 1327 2353 
Q 1191 2303 925 2138 
z
" id="TimesNewRomanPSMT-36" transform="scale(0.015625)"/>
       </defs>
       <use xlink:href="#TimesNewRomanPSMT-2212"/>
       <use x="56.396484" xlink:href="#TimesNewRomanPSMT-30"/>
       <use x="106.396484" xlink:href="#TimesNewRomanPSMT-2e"/>
       <use x="131.396484" xlink:href="#TimesNewRomanPSMT-30"/>
       <use x="181.396484" xlink:href="#TimesNewRomanPSMT-36"/>
      </g>
     </g>
    </g>
    <g id="ytick_2">
     <g id="line2d_15">
      <path clip-path="url(#p029e723fb3)" d="M 63.336875 257.190627 
L 398.136875 257.190627 
" style="fill:none;stroke:#000000;stroke-dasharray:0.5,0.825;stroke-dashoffset:0;stroke-width:0.5;"/>
     </g>
     <g id="line2d_16">
      <g>
       <use style="stroke:#000000;stroke-width:0.8;" x="63.336875" xlink:href="#mf2e0c043a4" y="257.190627"/>
      </g>
     </g>
     <g id="text_9">
      <!-- −0.04 -->
      <g transform="translate(23.942188 262.051252)scale(0.14 -0.14)">
       <use xlink:href="#TimesNewRomanPSMT-2212"/>
       <use x="56.396484" xlink:href="#TimesNewRomanPSMT-30"/>
       <use x="106.396484" xlink:href="#TimesNewRomanPSMT-2e"/>
       <use x="131.396484" xlink:href="#TimesNewRomanPSMT-30"/>
       <use x="181.396484" xlink:href="#TimesNewRomanPSMT-34"/>
      </g>
     </g>
    </g>
    <g id="ytick_3">
     <g id="line2d_17">
      <path clip-path="url(#p029e723fb3)" d="M 63.336875 206.930601 
L 398.136875 206.930601 
" style="fill:none;stroke:#000000;stroke-dasharray:0.5,0.825;stroke-dashoffset:0;stroke-width:0.5;"/>
     </g>
     <g id="line2d_18">
      <g>
       <use style="stroke:#000000;stroke-width:0.8;" x="63.336875" xlink:href="#mf2e0c043a4" y="206.930601"/>
      </g>
     </g>
     <g id="text_10">
      <!-- −0.02 -->
      <g transform="translate(23.942188 211.791226)scale(0.14 -0.14)">
       <use xlink:href="#TimesNewRomanPSMT-2212"/>
       <use x="56.396484" xlink:href="#TimesNewRomanPSMT-30"/>
       <use x="106.396484" xlink:href="#TimesNewRomanPSMT-2e"/>
       <use x="131.396484" xlink:href="#TimesNewRomanPSMT-30"/>
       <use x="181.396484" xlink:href="#TimesNewRomanPSMT-32"/>
      </g>
     </g>
    </g>
    <g id="ytick_4">
     <g id="line2d_19">
      <path clip-path="url(#p029e723fb3)" d="M 63.336875 156.670575 
L 398.136875 156.670575 
" style="fill:none;stroke:#000000;stroke-dasharray:0.5,0.825;stroke-dashoffset:0;stroke-width:0.5;"/>
     </g>
     <g id="line2d_20">
      <g>
       <use style="stroke:#000000;stroke-width:0.8;" x="63.336875" xlink:href="#mf2e0c043a4" y="156.670575"/>
      </g>
     </g>
     <g id="text_11">
      <!-- 0.00 -->
      <g transform="translate(31.836875 161.5312)scale(0.14 -0.14)">
       <use xlink:href="#TimesNewRomanPSMT-30"/>
       <use x="50" xlink:href="#TimesNewRomanPSMT-2e"/>
       <use x="75" xlink:href="#TimesNewRomanPSMT-30"/>
       <use x="125" xlink:href="#TimesNewRomanPSMT-30"/>
      </g>
     </g>
    </g>
    <g id="ytick_5">
     <g id="line2d_21">
      <path clip-path="url(#p029e723fb3)" d="M 63.336875 106.410549 
L 398.136875 106.410549 
" style="fill:none;stroke:#000000;stroke-dasharray:0.5,0.825;stroke-dashoffset:0;stroke-width:0.5;"/>
     </g>
     <g id="line2d_22">
      <g>
       <use style="stroke:#000000;stroke-width:0.8;" x="63.336875" xlink:href="#mf2e0c043a4" y="106.410549"/>
      </g>
     </g>
     <g id="text_12">
      <!-- 0.02 -->
      <g transform="translate(31.836875 111.271174)scale(0.14 -0.14)">
       <use xlink:href="#TimesNewRomanPSMT-30"/>
       <use x="50" xlink:href="#TimesNewRomanPSMT-2e"/>
       <use x="75" xlink:href="#TimesNewRomanPSMT-30"/>
       <use x="125" xlink:href="#TimesNewRomanPSMT-32"/>
      </g>
     </g>
    </g>
    <g id="ytick_6">
     <g id="line2d_23">
      <path clip-path="url(#p029e723fb3)" d="M 63.336875 56.150523 
L 398.136875 56.150523 
" style="fill:none;stroke:#000000;stroke-dasharray:0.5,0.825;stroke-dashoffset:0;stroke-width:0.5;"/>
     </g>
     <g id="line2d_24">
      <g>
       <use style="stroke:#000000;stroke-width:0.8;" x="63.336875" xlink:href="#mf2e0c043a4" y="56.150523"/>
      </g>
     </g>
     <g id="text_13">
      <!-- 0.04 -->
      <g transform="translate(31.836875 61.011148)scale(0.14 -0.14)">
       <use xlink:href="#TimesNewRomanPSMT-30"/>
       <use x="50" xlink:href="#TimesNewRomanPSMT-2e"/>
       <use x="75" xlink:href="#TimesNewRomanPSMT-30"/>
       <use x="125" xlink:href="#TimesNewRomanPSMT-34"/>
      </g>
     </g>
    </g>
    <g id="text_14">
     <!-- Volatage (V) -->
     <g transform="translate(16.92125 209.352344)rotate(-90)scale(0.14 -0.14)">
      <defs>
       <path d="M 4544 4238 
L 4544 4122 
Q 4319 4081 4203 3978 
Q 4038 3825 3909 3509 
L 2431 -97 
L 2316 -97 
L 728 3556 
Q 606 3838 556 3900 
Q 478 3997 364 4051 
Q 250 4106 56 4122 
L 56 4238 
L 1788 4238 
L 1788 4122 
Q 1494 4094 1406 4022 
Q 1319 3950 1319 3838 
Q 1319 3681 1463 3350 
L 2541 866 
L 3541 3319 
Q 3688 3681 3688 3822 
Q 3688 3913 3597 3995 
Q 3506 4078 3291 4113 
Q 3275 4116 3238 4122 
L 3238 4238 
L 4544 4238 
z
" id="TimesNewRomanPSMT-56" transform="scale(0.015625)"/>
       <path d="M 1600 2947 
Q 2250 2947 2644 2453 
Q 2978 2031 2978 1484 
Q 2978 1100 2793 706 
Q 2609 313 2286 112 
Q 1963 -88 1566 -88 
Q 919 -88 538 428 
Q 216 863 216 1403 
Q 216 1797 411 2186 
Q 606 2575 925 2761 
Q 1244 2947 1600 2947 
z
M 1503 2744 
Q 1338 2744 1170 2645 
Q 1003 2547 900 2300 
Q 797 2053 797 1666 
Q 797 1041 1045 587 
Q 1294 134 1700 134 
Q 2003 134 2200 384 
Q 2397 634 2397 1244 
Q 2397 2006 2069 2444 
Q 1847 2744 1503 2744 
z
" id="TimesNewRomanPSMT-6f" transform="scale(0.015625)"/>
       <path d="M 1184 4444 
L 1184 647 
Q 1184 378 1223 290 
Q 1263 203 1344 158 
Q 1425 113 1647 113 
L 1647 0 
L 244 0 
L 244 113 
Q 441 113 512 153 
Q 584 194 625 287 
Q 666 381 666 647 
L 666 3247 
Q 666 3731 644 3842 
Q 622 3953 573 3993 
Q 525 4034 450 4034 
Q 369 4034 244 3984 
L 191 4094 
L 1044 4444 
L 1184 4444 
z
" id="TimesNewRomanPSMT-6c" transform="scale(0.015625)"/>
       <path d="M 1822 413 
Q 1381 72 1269 19 
Q 1100 -59 909 -59 
Q 613 -59 420 144 
Q 228 347 228 678 
Q 228 888 322 1041 
Q 450 1253 767 1440 
Q 1084 1628 1822 1897 
L 1822 2009 
Q 1822 2438 1686 2597 
Q 1550 2756 1291 2756 
Q 1094 2756 978 2650 
Q 859 2544 859 2406 
L 866 2225 
Q 866 2081 792 2003 
Q 719 1925 600 1925 
Q 484 1925 411 2006 
Q 338 2088 338 2228 
Q 338 2497 613 2722 
Q 888 2947 1384 2947 
Q 1766 2947 2009 2819 
Q 2194 2722 2281 2516 
Q 2338 2381 2338 1966 
L 2338 994 
Q 2338 584 2353 492 
Q 2369 400 2405 369 
Q 2441 338 2488 338 
Q 2538 338 2575 359 
Q 2641 400 2828 588 
L 2828 413 
Q 2478 -56 2159 -56 
Q 2006 -56 1915 50 
Q 1825 156 1822 413 
z
M 1822 616 
L 1822 1706 
Q 1350 1519 1213 1441 
Q 966 1303 859 1153 
Q 753 1003 753 825 
Q 753 600 887 451 
Q 1022 303 1197 303 
Q 1434 303 1822 616 
z
" id="TimesNewRomanPSMT-61" transform="scale(0.015625)"/>
       <path d="M 1031 3803 
L 1031 2863 
L 1700 2863 
L 1700 2644 
L 1031 2644 
L 1031 788 
Q 1031 509 1111 412 
Q 1191 316 1316 316 
Q 1419 316 1516 380 
Q 1613 444 1666 569 
L 1788 569 
Q 1678 263 1478 108 
Q 1278 -47 1066 -47 
Q 922 -47 784 33 
Q 647 113 581 261 
Q 516 409 516 719 
L 516 2644 
L 63 2644 
L 63 2747 
Q 234 2816 414 2980 
Q 594 3144 734 3369 
Q 806 3488 934 3803 
L 1031 3803 
z
" id="TimesNewRomanPSMT-74" transform="scale(0.015625)"/>
       <path d="M 966 1044 
Q 703 1172 562 1401 
Q 422 1631 422 1909 
Q 422 2334 742 2640 
Q 1063 2947 1563 2947 
Q 1972 2947 2272 2747 
L 2878 2747 
Q 3013 2747 3034 2739 
Q 3056 2731 3066 2713 
Q 3084 2684 3084 2613 
Q 3084 2531 3069 2500 
Q 3059 2484 3036 2475 
Q 3013 2466 2878 2466 
L 2506 2466 
Q 2681 2241 2681 1891 
Q 2681 1491 2375 1206 
Q 2069 922 1553 922 
Q 1341 922 1119 984 
Q 981 866 932 777 
Q 884 688 884 625 
Q 884 572 936 522 
Q 988 472 1138 450 
Q 1225 438 1575 428 
Q 2219 413 2409 384 
Q 2700 344 2873 169 
Q 3047 -6 3047 -263 
Q 3047 -616 2716 -925 
Q 2228 -1381 1444 -1381 
Q 841 -1381 425 -1109 
Q 191 -953 191 -784 
Q 191 -709 225 -634 
Q 278 -519 444 -313 
Q 466 -284 763 25 
Q 600 122 533 198 
Q 466 275 466 372 
Q 466 481 555 628 
Q 644 775 966 1044 
z
M 1509 2797 
Q 1278 2797 1122 2612 
Q 966 2428 966 2047 
Q 966 1553 1178 1281 
Q 1341 1075 1591 1075 
Q 1828 1075 1981 1253 
Q 2134 1431 2134 1813 
Q 2134 2309 1919 2591 
Q 1759 2797 1509 2797 
z
M 934 0 
Q 788 -159 713 -296 
Q 638 -434 638 -550 
Q 638 -700 819 -813 
Q 1131 -1006 1722 -1006 
Q 2284 -1006 2551 -807 
Q 2819 -609 2819 -384 
Q 2819 -222 2659 -153 
Q 2497 -84 2016 -72 
Q 1313 -53 934 0 
z
" id="TimesNewRomanPSMT-67" transform="scale(0.015625)"/>
      </defs>
      <use xlink:href="#TimesNewRomanPSMT-56"/>
      <use x="59.341797" xlink:href="#TimesNewRomanPSMT-6f"/>
      <use x="109.341797" xlink:href="#TimesNewRomanPSMT-6c"/>
      <use x="137.125" xlink:href="#TimesNewRomanPSMT-61"/>
      <use x="181.509766" xlink:href="#TimesNewRomanPSMT-74"/>
      <use x="209.292969" xlink:href="#TimesNewRomanPSMT-61"/>
      <use x="253.677734" xlink:href="#TimesNewRomanPSMT-67"/>
      <use x="303.677734" xlink:href="#TimesNewRomanPSMT-65"/>
      <use x="348.0625" xlink:href="#TimesNewRomanPSMT-20"/>
      <use x="373.0625" xlink:href="#TimesNewRomanPSMT-28"/>
      <use x="406.363281" xlink:href="#TimesNewRomanPSMT-56"/>
      <use x="478.580078" xlink:href="#TimesNewRomanPSMT-29"/>
     </g>
    </g>
   </g>
   <g id="LineCollection_1">
    <path clip-path="url(#p029e723fb3)" d="M 78.555057 156.670575 
L 382.918693 156.670575 
" style="fill:none;stroke:#1f77b4;stroke-width:1.5;"/>
   </g>
   <g id="line2d_25">
    <path clip-path="url(#p029e723fb3)" d="M 78.555057 156.600211 
L 78.737675 156.663036 
L 78.889857 156.600211 
L 78.920293 156.663036 
L 79.011602 156.600211 
L 81.172584 156.694449 
L 81.324766 156.694449 
L 108.32182 156.788686 
L 108.474002 156.788686 
L 109.75233 156.882924 
L 109.874075 156.882924 
L 110.026257 156.851511 
L 110.178439 156.914336 
L 110.208875 156.882924 
L 112.369857 156.977161 
L 112.522039 156.977161 
L 113.34382 157.071399 
L 113.526439 157.102811 
L 113.648184 157.071399 
L 114.409093 157.134224 
L 114.561275 157.197049 
L 115.01782 157.259874 
L 115.170002 157.322699 
L 115.717857 157.416937 
L 115.839602 157.479762 
L 115.991784 157.479762 
L 116.35702 157.573999 
L 116.539639 157.636824 
L 116.69182 157.573999 
L 116.722257 157.605412 
L 116.965748 157.699649 
L 117.087493 157.668237 
L 117.330984 157.762474 
L 117.422293 157.762474 
L 117.544039 157.793887 
L 118.091893 157.856712 
L 118.244075 157.950949 
L 118.974548 158.045187 
L 119.157166 158.076599 
L 119.70502 158.139424 
L 119.857202 158.202249 
L 119.978948 158.170837 
L 120.952911 158.265074 
L 121.105093 158.296487 
L 121.226839 158.296487 
L 121.409457 158.3279 
L 121.896439 158.422137 
L 122.13993 158.516375 
L 122.505166 158.610612 
L 122.779093 158.767675 
L 122.870402 158.767675 
L 122.992148 158.861912 
L 123.022584 158.8305 
L 123.357384 159.018975 
L 123.540002 159.0818 
L 123.72262 159.20745 
L 123.844366 159.301688 
L 124.270475 159.615813 
L 124.300911 159.5844 
L 124.331348 159.647225 
L 124.544402 159.8357 
L 124.635711 159.898525 
L 124.879202 160.149825 
L 125.609675 161.060788 
L 126.15753 161.940339 
L 126.340148 162.285877 
L 127.588039 165.113003 
L 130.022948 172.966132 
L 130.449057 174.630996 
L 130.601239 175.196421 
L 132.305675 181.761636 
L 133.827493 186.159389 
L 133.949239 186.442101 
L 135.988475 190.431491 
L 136.231966 190.494316 
L 136.384148 190.588554 
L 136.597202 190.525729 
L 136.718948 190.557141 
L 136.749384 190.525729 
L 136.962439 190.462903 
L 137.11462 190.305841 
L 137.145057 190.337253 
L 137.753784 189.583353 
L 137.997275 189.17499 
L 138.058148 189.080753 
L 138.301639 188.703803 
L 138.54513 188.16979 
L 139.853893 183.772038 
L 140.401748 181.07056 
L 142.22793 169.07098 
L 143.293202 160.589601 
L 144.358475 150.883133 
L 147.067311 121.795143 
L 151.541457 72.257608 
L 153.032839 59.441299 
L 153.793748 54.038348 
L 154.706839 49.043753 
L 155.589493 45.839679 
L 156.502584 44.206228 
L 156.746075 44.143401 
L 156.837384 44.080576 
L 156.86782 44.111993 
L 157.111311 44.143401 
L 157.233057 44.331881 
L 157.263493 44.269053 
L 157.811348 44.991541 
L 159.272293 51.431107 
L 160.672366 62.299835 
L 162.772475 87.367026 
L 164.081239 107.879399 
L 164.90302 122.297743 
L 167.277057 168.411317 
L 169.498911 214.179351 
L 172.207748 265.161872 
L 173.27302 281.936148 
L 174.886148 302.102988 
L 176.529711 316.364268 
L 177.534111 321.924289 
L 177.686293 322.426879 
L 177.990657 323.432079 
L 178.021093 323.432079 
L 178.325457 324.280225 
L 178.842875 324.72 
L 178.873311 324.688582 
L 179.268984 324.437277 
L 179.421166 324.343042 
L 179.847275 323.746217 
L 180.790802 320.479298 
L 181.247348 318.154779 
L 182.160439 311.840866 
L 182.921348 304.678812 
L 184.504039 285.548587 
L 188.00422 229.728549 
L 190.926111 173.43732 
L 192.02182 152.013984 
L 194.213239 113.313764 
L 197.256875 70.875452 
L 198.778693 56.30005 
L 199.600475 50.394492 
L 199.965711 47.94432 
L 200.878802 42.981143 
L 202.004948 38.740451 
L 202.035384 38.740451 
L 202.248439 38.300678 
L 203.191966 36.604402 
L 203.313711 36.541574 
L 203.49633 36.415922 
L 203.892002 36.164629 
L 204.196366 36.070384 
L 204.318111 36.038977 
L 204.348548 36.070384 
L 204.561602 36.164629 
L 205.07902 36.855697 
L 206.357348 39.745651 
L 206.75302 40.907919 
L 207.331311 43.043968 
L 208.42702 48.007145 
L 213.083784 77.47208 
L 213.509893 80.424859 
L 218.744948 117.491628 
L 219.292802 120.88418 
L 221.453784 133.574837 
L 224.649602 149.532395 
L 224.862657 150.47477 
L 225.227893 152.139634 
L 225.349639 152.642234 
L 225.714875 154.118622 
L 226.323602 157.102811 
L 229.793348 175.573371 
L 231.558657 187.196002 
L 232.836984 197.216594 
L 237.64593 240.848574 
L 240.202584 258.596651 
L 240.446075 259.664677 
L 240.872184 261.612248 
L 241.420039 263.402768 
L 241.876584 264.470794 
L 241.99833 264.753507 
L 242.515748 265.570227 
L 242.850548 265.758705 
L 243.063602 265.85294 
L 243.33753 266.01 
L 243.459275 266.01 
L 243.641893 266.041417 
L 243.91582 265.947185 
L 244.494111 265.224687 
L 244.828911 264.533619 
L 245.133275 263.654064 
L 245.468075 262.271918 
L 246.59422 255.895177 
L 247.872548 245.874579 
L 248.542148 239.529256 
L 249.059566 234.440426 
L 249.455239 230.293974 
L 250.094402 223.194745 
L 251.859711 201.897059 
L 253.71633 178.463322 
L 256.546911 144.757693 
L 257.886111 132.067036 
L 260.594948 113.250936 
L 262.42113 106.183123 
L 262.847239 105.177925 
L 263.029857 104.832384 
L 263.608148 103.890009 
L 263.699457 103.795774 
L 264.034257 103.355996 
L 264.125566 103.261761 
L 264.612548 102.916221 
L 264.76473 102.821983 
L 265.00822 102.696336 
L 265.129966 102.664923 
L 265.403893 102.570683 
L 265.586511 102.539271 
L 265.982184 102.602096 
L 266.195239 102.790571 
L 266.530039 103.010456 
L 266.590911 102.979049 
L 266.651784 103.041869 
L 267.747493 104.329787 
L 268.386657 105.39781 
L 268.538839 105.680522 
L 268.873639 106.371595 
L 270.425893 109.795562 
L 270.852002 111.114888 
L 271.156366 111.994438 
L 272.343384 116.423603 
L 272.982548 118.748129 
L 273.37822 120.25593 
L 276.452293 129.428385 
L 277.06102 130.936185 
L 277.82193 132.946586 
L 278.582839 134.768512 
L 279.008948 135.7423 
L 279.191566 136.087839 
L 279.49593 136.684675 
L 279.678548 137.030214 
L 280.013348 137.721289 
L 280.926439 139.35474 
L 281.07862 139.637452 
L 281.322111 140.202878 
L 281.443857 140.485591 
L 283.239602 143.940968 
L 283.452657 144.317917 
L 284.213566 145.637243 
L 284.639675 146.23408 
L 285.065784 146.862331 
L 286.10062 147.804707 
L 286.131057 147.773294 
L 286.19193 147.836119 
L 286.43542 147.930357 
L 286.587602 147.898944 
L 286.739784 147.961769 
L 287.135457 147.898944 
L 287.287639 147.804707 
L 287.409384 147.741882 
L 287.622439 147.553406 
L 287.77462 147.459169 
L 287.987675 147.207868 
L 288.018111 147.239281 
L 288.078984 147.176457 
L 288.383348 146.799506 
L 288.474657 146.705269 
L 289.052948 145.762893 
L 289.357311 145.291705 
L 289.661675 144.663455 
L 289.813857 144.380742 
L 290.361711 143.030004 
L 291.061748 141.333728 
L 291.944402 138.914964 
L 292.066148 138.632251 
L 292.340075 137.846939 
L 292.79662 136.433375 
L 293.070548 135.648063 
L 293.496657 134.328736 
L 293.679275 133.700487 
L 295.80982 127.449396 
L 295.931566 127.166683 
L 297.392511 124.37097 
L 297.48382 124.276732 
L 297.757748 123.962607 
L 298.336039 123.522832 
L 298.701275 123.585657 
L 298.853457 123.711307 
L 299.096948 123.836957 
L 299.218693 123.836957 
L 299.766548 124.559445 
L 300.16222 125.438995 
L 300.770948 126.915383 
L 302.475384 134.422975 
L 303.692839 142.621642 
L 306.066875 163.102602 
L 311.088875 213.802403 
L 311.606293 218.325803 
L 312.184584 223.163333 
L 313.21942 230.796572 
L 314.102075 236.388007 
L 315.076039 240.879992 
L 315.867384 243.016043 
L 315.98913 243.267346 
L 316.354366 244.115486 
L 316.445675 244.178301 
L 316.597857 244.366781 
L 316.65873 244.429606 
L 316.841348 244.555259 
L 317.145711 244.712319 
L 317.358766 244.806554 
L 317.57182 244.869379 
L 318.180548 244.084069 
L 318.941457 242.293555 
L 320.58502 235.068676 
L 321.132875 231.89601 
L 322.654693 221.781182 
L 323.506911 214.870429 
L 328.894148 165.835491 
L 329.442002 161.123613 
L 330.476839 152.547996 
L 333.216111 130.841948 
L 336.685857 110.046862 
L 339.151202 100.340395 
L 339.394693 99.617909 
L 339.729493 98.675531 
L 340.064293 97.733158 
L 341.09913 94.874617 
L 341.76873 93.241166 
L 342.194839 92.267376 
L 343.838402 89.126129 
L 344.264511 88.560704 
L 344.477566 88.215163 
L 345.11673 87.398438 
L 345.36022 87.147138 
L 345.78633 86.864425 
L 345.908075 86.864425 
L 346.060257 86.770188 
L 346.69942 86.833013 
L 346.882039 86.990073 
L 346.973348 87.084313 
L 347.886439 88.152338 
L 348.12993 88.560704 
L 349.743057 92.141728 
L 351.05182 96.508068 
L 351.508366 98.298579 
L 351.934475 99.963442 
L 352.451893 102.099498 
L 352.604075 102.664923 
L 354.49113 110.895 
L 355.038984 113.596476 
L 355.221602 114.476027 
L 357.656511 127.606459 
L 358.873966 134.485799 
L 359.208766 136.339139 
L 360.152293 141.74209 
L 360.639275 144.47498 
L 360.974075 146.296906 
L 361.826293 150.914546 
L 362.343711 153.521785 
L 362.739384 155.626423 
L 363.256802 158.202249 
L 363.835093 161.123613 
L 364.048148 162.128814 
L 364.565566 164.704641 
L 364.748184 165.584191 
L 365.387348 168.851092 
L 370.013675 192.159179 
L 370.713711 195.520319 
L 371.839857 200.797621 
L 372.083348 201.897059 
L 373.422548 208.242388 
L 373.635602 209.247588 
L 376.83142 221.969657 
L 378.444548 226.618707 
L 378.59673 226.932832 
L 378.992402 227.843798 
L 379.053275 227.938038 
L 379.388075 228.440636 
L 379.783748 229.006061 
L 380.362039 229.445836 
L 380.666402 229.540074 
L 380.84902 229.571486 
L 381.305566 229.540074 
L 381.336002 229.445836 
L 381.427311 229.477249 
L 382.431711 228.28357 
L 382.918693 227.309785 
L 382.918693 227.309785 
" style="fill:none;stroke:#0000ff;stroke-linecap:square;stroke-width:1.5;"/>
   </g>
   <g id="line2d_26">
    <path clip-path="url(#p029e723fb3)" d="M 78.555057 156.577091 
L 83.54662 156.687035 
L 83.759675 156.687035 
L 83.942293 156.687035 
L 84.155348 156.687035 
L 89.481711 156.796979 
L 89.725202 156.828392 
L 89.846948 156.796979 
L 90.060002 156.812685 
L 90.24262 156.812685 
L 90.486111 156.828392 
L 90.760039 156.796979 
L 91.033966 156.828392 
L 96.664693 156.938335 
L 96.908184 156.954042 
L 99.61702 157.063985 
L 99.860511 157.079692 
L 100.04313 157.095398 
L 100.37793 157.158223 
L 100.986657 157.268167 
L 101.230148 157.362404 
L 102.508475 158.132011 
L 103.543311 159.341393 
L 105.582548 163.80197 
L 106.191275 165.60819 
L 106.64782 167.068872 
L 107.256548 169.110685 
L 110.33062 179.822353 
L 110.66542 180.733315 
L 111.182839 182.193998 
L 113.069893 185.853557 
L 113.556875 186.2148 
L 113.861239 186.371863 
L 114.287348 186.497513 
L 114.500402 186.434688 
L 114.896075 186.136269 
L 115.383057 185.570844 
L 115.535239 185.413781 
L 116.722257 182.712305 
L 117.757093 179.146984 
L 118.518002 175.801551 
L 119.218039 172.440412 
L 120.618111 164.634402 
L 121.348584 159.859699 
L 122.352984 152.948946 
L 126.15753 126.248307 
L 128.470693 113.746123 
L 129.809893 108.029048 
L 131.057784 104.52655 
L 131.575202 103.489939 
L 131.818693 102.924514 
L 132.823093 100.615694 
L 133.18833 100.081681 
L 134.19273 98.730943 
L 134.892766 98.259758 
L 135.805857 97.47444 
L 136.018911 97.458736 
L 136.231966 97.458736 
L 136.688511 97.144611 
L 136.992875 97.050371 
L 137.11462 97.034667 
L 137.418984 97.191727 
L 138.179893 97.694332 
L 138.514693 98.196933 
L 138.940802 99.327783 
L 141.527893 109.081367 
L 142.927966 116.840259 
L 145.941166 139.394445 
L 148.345639 161.461738 
L 150.476184 182.27253 
L 151.784948 194.633355 
L 153.550257 209.994073 
L 154.767711 218.56969 
L 155.832984 224.475245 
L 156.563457 227.679319 
L 157.141748 229.595488 
L 158.20702 232.061368 
L 158.754875 232.469733 
L 159.54622 232.768149 
L 160.154948 232.34408 
L 161.31153 230.365092 
L 162.711602 225.668921 
L 163.685566 220.627209 
L 164.720402 213.527983 
L 165.542184 207.308308 
L 167.064002 193.863748 
L 168.798875 177.90619 
L 171.964257 152.681939 
L 173.02953 146.273786 
L 174.490475 139.300207 
L 175.28182 136.504493 
L 175.829675 135.389348 
L 176.438402 134.352736 
L 176.925384 134.195673 
L 177.168875 134.227086 
L 177.351493 134.242793 
L 177.655857 134.33703 
L 178.29502 135.530705 
L 179.816839 139.755689 
L 181.277784 144.593217 
L 186.75633 172.299056 
L 188.704257 178.927098 
L 190.01302 182.005523 
L 190.621748 182.476711 
L 191.139166 182.382473 
L 191.413093 182.256823 
L 191.991384 181.848461 
L 192.569675 181.408686 
L 192.69142 181.361567 
L 193.056657 181.078854 
L 193.756693 179.79094 
L 194.608911 177.78054 
L 195.248075 175.832964 
L 195.674184 174.670701 
L 196.03942 173.6655 
L 197.622111 167.54006 
L 198.687384 162.089988 
L 199.570039 156.467148 
L 200.696184 148.174243 
L 202.948475 130.488997 
L 204.378984 118.567947 
L 205.292075 111.500131 
L 206.296475 105.468928 
L 209.127057 91.427536 
L 210.040148 88.129221 
L 210.496693 87.045487 
L 210.922802 86.197349 
L 211.288039 85.537689 
L 211.77502 85.145027 
L 211.927202 85.160736 
L 212.657675 85.27068 
L 213.266402 85.694749 
L 213.722948 86.323002 
L 214.696911 88.019278 
L 215.670875 90.830695 
L 216.188293 92.746859 
L 217.070948 96.720542 
L 218.744948 105.013446 
L 220.692875 115.442399 
L 224.16262 133.912961 
L 225.197457 139.661452 
L 226.445348 145.975368 
L 228.119348 154.032678 
L 230.310766 163.692026 
L 230.94993 166.409209 
L 232.076075 171.529449 
L 234.145748 182.77513 
L 235.941493 193.219792 
L 238.011166 203.334624 
L 238.924257 206.664346 
L 240.628693 210.779391 
L 241.176548 211.831705 
L 241.724402 212.711258 
L 242.272257 213.355212 
L 242.485311 213.5751 
L 244.494111 215.491268 
L 244.768039 215.742568 
L 245.224584 216.245166 
L 245.742002 216.622114 
L 245.92462 216.732062 
L 246.92902 217.156131 
L 247.081202 217.171835 
L 247.385566 217.218951 
L 248.176911 217.328895 
L 248.420402 217.360308 
L 248.663893 217.328895 
L 248.785639 217.313191 
L 249.303057 217.203248 
L 249.546548 217.171835 
L 249.729166 217.171835 
L 250.03353 217.124719 
L 250.216148 217.10901 
L 251.007493 217.203248 
L 251.250984 217.297488 
L 252.164075 217.674435 
L 252.28582 217.721552 
L 252.559748 217.847204 
L 252.894548 217.957148 
L 254.142439 218.711046 
L 258.40353 222.967447 
L 258.555711 223.061682 
L 258.799202 223.234451 
L 259.98622 223.155919 
L 260.229711 222.983151 
L 260.899311 222.135013 
L 261.447166 221.082691 
L 261.873275 219.95184 
L 262.512439 217.643023 
L 263.66902 211.753176 
L 264.977784 202.989084 
L 265.830002 195.528611 
L 267.230075 179.948003 
L 268.204039 167.634297 
L 270.608511 132.593636 
L 275.265275 62.198187 
L 276.300111 49.727418 
L 277.913239 34.225344 
L 278.917639 27.770067 
L 279.587239 24.880113 
L 280.16553 23.183847 
L 280.561202 22.602713 
L 280.956875 22.351407 
L 281.200366 22.32 
L 281.83953 23.121019 
L 282.265639 24.251872 
L 282.661311 25.57119 
L 283.665711 30.754256 
L 284.51793 36.706932 
L 285.157093 42.125591 
L 286.252802 52.680197 
L 287.500693 66.690174 
L 289.418184 91.788777 
L 294.014075 151.959452 
L 295.992439 173.178606 
L 298.853457 200.161958 
L 300.801384 215.334203 
L 302.50582 226.045868 
L 303.479784 230.522157 
L 304.453748 233.192218 
L 305.001602 233.914704 
L 305.305966 234.30736 
L 305.762511 234.637194 
L 305.914693 234.6529 
L 306.249493 234.715725 
L 306.553857 234.825669 
L 306.766911 234.888494 
L 306.94953 234.888494 
L 307.436511 234.542957 
L 307.923493 233.99324 
L 308.380039 233.364987 
L 310.449711 228.857294 
L 312.001966 223.689932 
L 313.55422 215.962453 
L 315.136911 205.470673 
L 316.963093 192.481597 
L 321.376366 161.398912 
L 323.902584 148.928144 
L 324.815675 145.614123 
L 325.637457 142.708466 
L 326.185311 141.106427 
L 327.889748 137.82382 
L 329.411566 136.394549 
L 329.746366 136.284606 
L 330.081166 136.206076 
L 330.202911 136.190369 
L 331.63342 136.300313 
L 331.846475 136.378843 
L 332.120402 136.488786 
L 333.368293 137.0228 
L 333.520475 137.054213 
L 333.946584 137.164156 
L 334.616184 137.399751 
L 335.164039 137.509694 
L 335.40753 137.541107 
L 335.590148 137.509694 
L 335.74233 137.556813 
L 336.046693 137.509694 
L 336.32062 137.399751 
L 336.716293 137.085625 
L 337.65982 135.97048 
L 338.207675 135.075225 
L 338.451166 134.666862 
L 342.34702 126.389663 
L 342.864439 125.148869 
L 344.568875 121.866261 
L 345.208039 121.363661 
L 345.573275 121.253717 
L 345.999384 121.143773 
L 346.151566 121.175186 
L 346.36462 121.175186 
L 346.942911 121.28513 
L 347.582075 121.505017 
L 347.79513 121.614961 
L 348.251675 121.960499 
L 348.586475 122.400274 
L 349.71262 124.34785 
L 350.564839 126.342545 
L 352.05622 131.305722 
L 353.973711 139.692865 
L 354.82593 144.169148 
L 355.921639 150.404532 
L 356.986911 156.325791 
L 360.274039 172.723125 
L 361.065384 175.518838 
L 363.86553 183.827449 
L 364.839493 185.617963 
L 364.930802 185.743613 
L 365.417784 186.497513 
L 366.756984 187.722601 
L 367.152657 187.612657 
L 368.339675 186.89017 
L 369.13102 185.916382 
L 369.526693 185.115362 
L 370.257166 182.947899 
L 373.026875 172.550355 
L 377.774948 149.980463 
L 381.031639 133.740191 
L 382.918693 125.651469 
L 382.918693 125.651469 
" style="fill:none;stroke:#ff0000;stroke-linecap:square;stroke-width:1.5;"/>
   </g>
   <g id="line2d_27">
    <path clip-path="url(#p029e723fb3)" d="M 127.588039 165.113003 
" style="fill:none;stroke:#ffffff;stroke-linecap:square;stroke-width:1.5;"/>
    <defs>
     <path d="M 0 -5 
L -1.12257 -1.545085 
L -4.755283 -1.545085 
L -1.816356 0.59017 
L -2.938926 4.045085 
L -0 1.90983 
L 2.938926 4.045085 
L 1.816356 0.59017 
L 4.755283 -1.545085 
L 1.12257 -1.545085 
z
" id="m23dd30c326" style="stroke:#ffffff;stroke-linejoin:bevel;"/>
    </defs>
    <g clip-path="url(#p029e723fb3)">
     <use style="fill:#0000ff;stroke:#ffffff;stroke-linejoin:bevel;" x="127.588039" xlink:href="#m23dd30c326" y="165.113003"/>
    </g>
   </g>
   <g id="line2d_28">
    <path clip-path="url(#p029e723fb3)" d="M 105.460802 163.456433 
" style="fill:none;stroke:#ffffff;stroke-linecap:square;stroke-width:1.5;"/>
    <defs>
     <path d="M 0 -5 
L -1.12257 -1.545085 
L -4.755283 -1.545085 
L -1.816356 0.59017 
L -2.938926 4.045085 
L -0 1.90983 
L 2.938926 4.045085 
L 1.816356 0.59017 
L 4.755283 -1.545085 
L 1.12257 -1.545085 
z
" id="mcdb606e2d3" style="stroke:#ffffff;stroke-linejoin:bevel;"/>
    </defs>
    <g clip-path="url(#p029e723fb3)">
     <use style="fill:#ff0000;stroke:#ffffff;stroke-linejoin:bevel;" x="105.460802" xlink:href="#mcdb606e2d3" y="163.456433"/>
    </g>
   </g>
   <g id="patch_3">
    <path d="M 63.336875 339.84 
L 63.336875 7.2 
" style="fill:none;stroke:#000000;stroke-linecap:square;stroke-linejoin:miter;stroke-width:0.8;"/>
   </g>
   <g id="patch_4">
    <path d="M 398.136875 339.84 
L 398.136875 7.2 
" style="fill:none;stroke:#000000;stroke-linecap:square;stroke-linejoin:miter;stroke-width:0.8;"/>
   </g>
   <g id="patch_5">
    <path d="M 63.336875 339.84 
L 398.136875 339.84 
" style="fill:none;stroke:#000000;stroke-linecap:square;stroke-linejoin:miter;stroke-width:0.8;"/>
   </g>
   <g id="patch_6">
    <path d="M 63.336875 7.2 
L 398.136875 7.2 
" style="fill:none;stroke:#000000;stroke-linecap:square;stroke-linejoin:miter;stroke-width:0.8;"/>
   </g>
   <g id="text_15">
    <g id="patch_7">
     <path d="M 75.036875 331.242688 
L 166.79375 331.242688 
L 166.79375 293.760312 
L 75.036875 293.760312 
z
" style="fill:#ffffff;stroke:#000000;stroke-linejoin:miter;stroke-width:0.75;"/>
    </g>
    <!-- Auto_00061 -->
    <g transform="translate(80.076875 308.521562)scale(0.14 -0.14)">
     <defs>
      <path d="M 2928 1419 
L 1288 1419 
L 1000 750 
Q 894 503 894 381 
Q 894 284 986 211 
Q 1078 138 1384 116 
L 1384 0 
L 50 0 
L 50 116 
Q 316 163 394 238 
Q 553 388 747 847 
L 2238 4334 
L 2347 4334 
L 3822 809 
Q 4000 384 4145 257 
Q 4291 131 4550 116 
L 4550 0 
L 2878 0 
L 2878 116 
Q 3131 128 3220 200 
Q 3309 272 3309 375 
Q 3309 513 3184 809 
L 2928 1419 
z
M 2841 1650 
L 2122 3363 
L 1384 1650 
L 2841 1650 
z
" id="TimesNewRomanPSMT-41" transform="scale(0.015625)"/>
      <path d="M 2709 2863 
L 2709 1128 
Q 2709 631 2732 520 
Q 2756 409 2807 365 
Q 2859 322 2928 322 
Q 3025 322 3147 375 
L 3191 266 
L 2334 -88 
L 2194 -88 
L 2194 519 
Q 1825 119 1631 15 
Q 1438 -88 1222 -88 
Q 981 -88 804 51 
Q 628 191 559 409 
Q 491 628 491 1028 
L 491 2306 
Q 491 2509 447 2587 
Q 403 2666 317 2708 
Q 231 2750 6 2747 
L 6 2863 
L 1009 2863 
L 1009 947 
Q 1009 547 1148 422 
Q 1288 297 1484 297 
Q 1619 297 1789 381 
Q 1959 466 2194 703 
L 2194 2325 
Q 2194 2569 2105 2655 
Q 2016 2741 1734 2747 
L 1734 2863 
L 2709 2863 
z
" id="TimesNewRomanPSMT-75" transform="scale(0.015625)"/>
      <path d="M 3256 -1381 
L -53 -1381 
L -53 -1119 
L 3256 -1119 
L 3256 -1381 
z
" id="TimesNewRomanPSMT-5f" transform="scale(0.015625)"/>
     </defs>
     <use xlink:href="#TimesNewRomanPSMT-41"/>
     <use x="72.216797" xlink:href="#TimesNewRomanPSMT-75"/>
     <use x="122.216797" xlink:href="#TimesNewRomanPSMT-74"/>
     <use x="150" xlink:href="#TimesNewRomanPSMT-6f"/>
     <use x="200" xlink:href="#TimesNewRomanPSMT-5f"/>
     <use x="250" xlink:href="#TimesNewRomanPSMT-30"/>
     <use x="300" xlink:href="#TimesNewRomanPSMT-30"/>
     <use x="350" xlink:href="#TimesNewRomanPSMT-30"/>
     <use x="400" xlink:href="#TimesNewRomanPSMT-36"/>
     <use x="450" xlink:href="#TimesNewRomanPSMT-31"/>
    </g>
    <!-- Vs: 274.96m/s -->
    <g transform="translate(80.076875 323.208)scale(0.14 -0.14)">
     <defs>
      <path d="M 903 2950 
Q 1047 2950 1148 2848 
Q 1250 2747 1250 2603 
Q 1250 2459 1148 2357 
Q 1047 2256 903 2256 
Q 759 2256 657 2357 
Q 556 2459 556 2603 
Q 556 2747 657 2848 
Q 759 2950 903 2950 
z
M 897 609 
Q 1044 609 1145 506 
Q 1247 403 1247 259 
Q 1247 116 1144 14 
Q 1041 -88 897 -88 
Q 753 -88 651 14 
Q 550 116 550 259 
Q 550 403 651 506 
Q 753 609 897 609 
z
" id="TimesNewRomanPSMT-3a" transform="scale(0.015625)"/>
      <path d="M 644 4238 
L 2916 4238 
L 2916 4119 
L 1503 -88 
L 1153 -88 
L 2419 3728 
L 1253 3728 
Q 900 3728 750 3644 
Q 488 3500 328 3200 
L 238 3234 
L 644 4238 
z
" id="TimesNewRomanPSMT-37" transform="scale(0.015625)"/>
      <path d="M 338 -88 
L 338 28 
Q 744 34 1094 217 
Q 1444 400 1770 856 
Q 2097 1313 2225 1859 
Q 1734 1544 1338 1544 
Q 891 1544 572 1889 
Q 253 2234 253 2806 
Q 253 3363 572 3797 
Q 956 4325 1575 4325 
Q 2097 4325 2469 3894 
Q 2925 3359 2925 2575 
Q 2925 1869 2578 1258 
Q 2231 647 1613 244 
Q 1109 -88 516 -88 
L 338 -88 
z
M 2275 2091 
Q 2331 2497 2331 2741 
Q 2331 3044 2228 3395 
Q 2125 3747 1936 3934 
Q 1747 4122 1506 4122 
Q 1228 4122 1018 3872 
Q 809 3622 809 3128 
Q 809 2469 1088 2097 
Q 1291 1828 1588 1828 
Q 1731 1828 1928 1897 
Q 2125 1966 2275 2091 
z
" id="TimesNewRomanPSMT-39" transform="scale(0.015625)"/>
      <path d="M 1794 4444 
L 259 -88 
L 9 -88 
L 1544 4444 
L 1794 4444 
z
" id="TimesNewRomanPSMT-2f" transform="scale(0.015625)"/>
     </defs>
     <use xlink:href="#TimesNewRomanPSMT-56"/>
     <use x="72.216797" xlink:href="#TimesNewRomanPSMT-73"/>
     <use x="111.132812" xlink:href="#TimesNewRomanPSMT-3a"/>
     <use x="138.916016" xlink:href="#TimesNewRomanPSMT-20"/>
     <use x="163.916016" xlink:href="#TimesNewRomanPSMT-32"/>
     <use x="213.916016" xlink:href="#TimesNewRomanPSMT-37"/>
     <use x="263.916016" xlink:href="#TimesNewRomanPSMT-34"/>
     <use x="313.916016" xlink:href="#TimesNewRomanPSMT-2e"/>
     <use x="338.916016" xlink:href="#TimesNewRomanPSMT-39"/>
     <use x="388.916016" xlink:href="#TimesNewRomanPSMT-36"/>
     <use x="438.916016" xlink:href="#TimesNewRomanPSMT-6d"/>
     <use x="516.699219" xlink:href="#TimesNewRomanPSMT-2f"/>
     <use x="544.482422" xlink:href="#TimesNewRomanPSMT-73"/>
    </g>
   </g>
  </g>
 </g>
 <defs>
  <clipPath id="p029e723fb3">
   <rect height="332.64" width="334.8" x="63.336875" y="7.2"/>
  </clipPath>
 </defs>
</svg>
