<?xml version="1.0" encoding="utf-8" standalone="no"?>
<!DOCTYPE svg PUBLIC "-//W3C//DTD SVG 1.1//EN"
  "http://www.w3.org/Graphics/SVG/1.1/DTD/svg11.dtd">
<svg height="383.471875pt" version="1.1" viewBox="0 0 421.086875 383.471875" width="421.086875pt" xmlns="http://www.w3.org/2000/svg" xmlns:xlink="http://www.w3.org/1999/xlink">
 <metadata>
  <rdf:RDF xmlns:cc="http://creativecommons.org/ns#" xmlns:dc="http://purl.org/dc/elements/1.1/" xmlns:rdf="http://www.w3.org/1999/02/22-rdf-syntax-ns#">
   <cc:Work>
    <dc:type rdf:resource="http://purl.org/dc/dcmitype/StillImage"/>
    <dc:date>2021-06-11T14:39:39.402853</dc:date>
    <dc:format>image/svg+xml</dc:format>
    <dc:creator>
     <cc:Agent>
      <dc:title>Matplotlib v3.4.2, https://matplotlib.org/</dc:title>
     </cc:Agent>
    </dc:creator>
   </cc:Work>
  </rdf:RDF>
 </metadata>
 <defs>
  <style type="text/css">*{stroke-linecap:butt;stroke-linejoin:round;}</style>
 </defs>
 <g id="figure_1">
  <g id="patch_1">
   <path d="M 0 383.471875 
L 421.086875 383.471875 
L 421.086875 0 
L 0 0 
z
" style="fill:#ffffff;"/>
  </g>
  <g id="axes_1">
   <g id="patch_2">
    <path d="M 63.336875 339.84 
L 398.136875 339.84 
L 398.136875 7.2 
L 63.336875 7.2 
z
" style="fill:#ffffff;"/>
   </g>
   <g id="matplotlib.axis_1">
    <g id="xtick_1">
     <g id="line2d_1">
      <path clip-path="url(#p4a9d1dc0e3)" d="M 93.773239 339.84 
L 93.773239 7.2 
" style="fill:none;stroke:#000000;stroke-dasharray:0.5,0.825;stroke-dashoffset:0;stroke-width:0.5;"/>
     </g>
     <g id="line2d_2">
      <defs>
       <path d="M 0 0 
L 0 3.5 
" id="md22f9b00ad" style="stroke:#000000;stroke-width:0.8;"/>
      </defs>
      <g>
       <use style="stroke:#000000;stroke-width:0.8;" x="93.773239" xlink:href="#md22f9b00ad" y="339.84"/>
      </g>
     </g>
     <g id="text_1">
      <!-- 0.000 -->
      <g transform="translate(78.023239 356.56125)scale(0.14 -0.14)">
       <defs>
        <path d="M 231 2094 
Q 231 2819 450 3342 
Q 669 3866 1031 4122 
Q 1313 4325 1613 4325 
Q 2100 4325 2488 3828 
Q 2972 3213 2972 2159 
Q 2972 1422 2759 906 
Q 2547 391 2217 158 
Q 1888 -75 1581 -75 
Q 975 -75 572 641 
Q 231 1244 231 2094 
z
M 844 2016 
Q 844 1141 1059 588 
Q 1238 122 1591 122 
Q 1759 122 1940 273 
Q 2122 425 2216 781 
Q 2359 1319 2359 2297 
Q 2359 3022 2209 3506 
Q 2097 3866 1919 4016 
Q 1791 4119 1609 4119 
Q 1397 4119 1231 3928 
Q 1006 3669 925 3112 
Q 844 2556 844 2016 
z
" id="TimesNewRomanPSMT-30" transform="scale(0.015625)"/>
        <path d="M 800 606 
Q 947 606 1047 504 
Q 1147 403 1147 259 
Q 1147 116 1045 14 
Q 944 -88 800 -88 
Q 656 -88 554 14 
Q 453 116 453 259 
Q 453 406 554 506 
Q 656 606 800 606 
z
" id="TimesNewRomanPSMT-2e" transform="scale(0.015625)"/>
       </defs>
       <use xlink:href="#TimesNewRomanPSMT-30"/>
       <use x="50" xlink:href="#TimesNewRomanPSMT-2e"/>
       <use x="75" xlink:href="#TimesNewRomanPSMT-30"/>
       <use x="125" xlink:href="#TimesNewRomanPSMT-30"/>
       <use x="175" xlink:href="#TimesNewRomanPSMT-30"/>
      </g>
     </g>
    </g>
    <g id="xtick_2">
     <g id="line2d_3">
      <path clip-path="url(#p4a9d1dc0e3)" d="M 154.645966 339.84 
L 154.645966 7.2 
" style="fill:none;stroke:#000000;stroke-dasharray:0.5,0.825;stroke-dashoffset:0;stroke-width:0.5;"/>
     </g>
     <g id="line2d_4">
      <g>
       <use style="stroke:#000000;stroke-width:0.8;" x="154.645966" xlink:href="#md22f9b00ad" y="339.84"/>
      </g>
     </g>
     <g id="text_2">
      <!-- 0.001 -->
      <g transform="translate(138.895966 356.56125)scale(0.14 -0.14)">
       <defs>
        <path d="M 750 3822 
L 1781 4325 
L 1884 4325 
L 1884 747 
Q 1884 391 1914 303 
Q 1944 216 2037 169 
Q 2131 122 2419 116 
L 2419 0 
L 825 0 
L 825 116 
Q 1125 122 1212 167 
Q 1300 213 1334 289 
Q 1369 366 1369 747 
L 1369 3034 
Q 1369 3497 1338 3628 
Q 1316 3728 1258 3775 
Q 1200 3822 1119 3822 
Q 1003 3822 797 3725 
L 750 3822 
z
" id="TimesNewRomanPSMT-31" transform="scale(0.015625)"/>
       </defs>
       <use xlink:href="#TimesNewRomanPSMT-30"/>
       <use x="50" xlink:href="#TimesNewRomanPSMT-2e"/>
       <use x="75" xlink:href="#TimesNewRomanPSMT-30"/>
       <use x="125" xlink:href="#TimesNewRomanPSMT-30"/>
       <use x="175" xlink:href="#TimesNewRomanPSMT-31"/>
      </g>
     </g>
    </g>
    <g id="xtick_3">
     <g id="line2d_5">
      <path clip-path="url(#p4a9d1dc0e3)" d="M 215.518693 339.84 
L 215.518693 7.2 
" style="fill:none;stroke:#000000;stroke-dasharray:0.5,0.825;stroke-dashoffset:0;stroke-width:0.5;"/>
     </g>
     <g id="line2d_6">
      <g>
       <use style="stroke:#000000;stroke-width:0.8;" x="215.518693" xlink:href="#md22f9b00ad" y="339.84"/>
      </g>
     </g>
     <g id="text_3">
      <!-- 0.002 -->
      <g transform="translate(199.768693 356.56125)scale(0.14 -0.14)">
       <defs>
        <path d="M 2934 816 
L 2638 0 
L 138 0 
L 138 116 
Q 1241 1122 1691 1759 
Q 2141 2397 2141 2925 
Q 2141 3328 1894 3587 
Q 1647 3847 1303 3847 
Q 991 3847 742 3664 
Q 494 3481 375 3128 
L 259 3128 
Q 338 3706 661 4015 
Q 984 4325 1469 4325 
Q 1984 4325 2329 3994 
Q 2675 3663 2675 3213 
Q 2675 2891 2525 2569 
Q 2294 2063 1775 1497 
Q 997 647 803 472 
L 1909 472 
Q 2247 472 2383 497 
Q 2519 522 2628 598 
Q 2738 675 2819 816 
L 2934 816 
z
" id="TimesNewRomanPSMT-32" transform="scale(0.015625)"/>
       </defs>
       <use xlink:href="#TimesNewRomanPSMT-30"/>
       <use x="50" xlink:href="#TimesNewRomanPSMT-2e"/>
       <use x="75" xlink:href="#TimesNewRomanPSMT-30"/>
       <use x="125" xlink:href="#TimesNewRomanPSMT-30"/>
       <use x="175" xlink:href="#TimesNewRomanPSMT-32"/>
      </g>
     </g>
    </g>
    <g id="xtick_4">
     <g id="line2d_7">
      <path clip-path="url(#p4a9d1dc0e3)" d="M 276.39142 339.84 
L 276.39142 7.2 
" style="fill:none;stroke:#000000;stroke-dasharray:0.5,0.825;stroke-dashoffset:0;stroke-width:0.5;"/>
     </g>
     <g id="line2d_8">
      <g>
       <use style="stroke:#000000;stroke-width:0.8;" x="276.39142" xlink:href="#md22f9b00ad" y="339.84"/>
      </g>
     </g>
     <g id="text_4">
      <!-- 0.003 -->
      <g transform="translate(260.64142 356.56125)scale(0.14 -0.14)">
       <defs>
        <path d="M 325 3431 
Q 506 3859 782 4092 
Q 1059 4325 1472 4325 
Q 1981 4325 2253 3994 
Q 2459 3747 2459 3466 
Q 2459 3003 1878 2509 
Q 2269 2356 2469 2072 
Q 2669 1788 2669 1403 
Q 2669 853 2319 450 
Q 1863 -75 997 -75 
Q 569 -75 414 31 
Q 259 138 259 259 
Q 259 350 332 419 
Q 406 488 509 488 
Q 588 488 669 463 
Q 722 447 909 348 
Q 1097 250 1169 231 
Q 1284 197 1416 197 
Q 1734 197 1970 444 
Q 2206 691 2206 1028 
Q 2206 1275 2097 1509 
Q 2016 1684 1919 1775 
Q 1784 1900 1550 2001 
Q 1316 2103 1072 2103 
L 972 2103 
L 972 2197 
Q 1219 2228 1467 2375 
Q 1716 2522 1828 2728 
Q 1941 2934 1941 3181 
Q 1941 3503 1739 3701 
Q 1538 3900 1238 3900 
Q 753 3900 428 3381 
L 325 3431 
z
" id="TimesNewRomanPSMT-33" transform="scale(0.015625)"/>
       </defs>
       <use xlink:href="#TimesNewRomanPSMT-30"/>
       <use x="50" xlink:href="#TimesNewRomanPSMT-2e"/>
       <use x="75" xlink:href="#TimesNewRomanPSMT-30"/>
       <use x="125" xlink:href="#TimesNewRomanPSMT-30"/>
       <use x="175" xlink:href="#TimesNewRomanPSMT-33"/>
      </g>
     </g>
    </g>
    <g id="xtick_5">
     <g id="line2d_9">
      <path clip-path="url(#p4a9d1dc0e3)" d="M 337.264148 339.84 
L 337.264148 7.2 
" style="fill:none;stroke:#000000;stroke-dasharray:0.5,0.825;stroke-dashoffset:0;stroke-width:0.5;"/>
     </g>
     <g id="line2d_10">
      <g>
       <use style="stroke:#000000;stroke-width:0.8;" x="337.264148" xlink:href="#md22f9b00ad" y="339.84"/>
      </g>
     </g>
     <g id="text_5">
      <!-- 0.004 -->
      <g transform="translate(321.514148 356.56125)scale(0.14 -0.14)">
       <defs>
        <path d="M 2978 1563 
L 2978 1119 
L 2409 1119 
L 2409 0 
L 1894 0 
L 1894 1119 
L 100 1119 
L 100 1519 
L 2066 4325 
L 2409 4325 
L 2409 1563 
L 2978 1563 
z
M 1894 1563 
L 1894 3666 
L 406 1563 
L 1894 1563 
z
" id="TimesNewRomanPSMT-34" transform="scale(0.015625)"/>
       </defs>
       <use xlink:href="#TimesNewRomanPSMT-30"/>
       <use x="50" xlink:href="#TimesNewRomanPSMT-2e"/>
       <use x="75" xlink:href="#TimesNewRomanPSMT-30"/>
       <use x="125" xlink:href="#TimesNewRomanPSMT-30"/>
       <use x="175" xlink:href="#TimesNewRomanPSMT-34"/>
      </g>
     </g>
    </g>
    <g id="xtick_6">
     <g id="line2d_11">
      <path clip-path="url(#p4a9d1dc0e3)" d="M 398.136875 339.84 
L 398.136875 7.2 
" style="fill:none;stroke:#000000;stroke-dasharray:0.5,0.825;stroke-dashoffset:0;stroke-width:0.5;"/>
     </g>
     <g id="line2d_12">
      <g>
       <use style="stroke:#000000;stroke-width:0.8;" x="398.136875" xlink:href="#md22f9b00ad" y="339.84"/>
      </g>
     </g>
     <g id="text_6">
      <!-- 0.005 -->
      <g transform="translate(382.386875 356.56125)scale(0.14 -0.14)">
       <defs>
        <path d="M 2778 4238 
L 2534 3706 
L 1259 3706 
L 981 3138 
Q 1809 3016 2294 2522 
Q 2709 2097 2709 1522 
Q 2709 1188 2573 903 
Q 2438 619 2231 419 
Q 2025 219 1772 97 
Q 1413 -75 1034 -75 
Q 653 -75 479 54 
Q 306 184 306 341 
Q 306 428 378 495 
Q 450 563 559 563 
Q 641 563 702 538 
Q 763 513 909 409 
Q 1144 247 1384 247 
Q 1750 247 2026 523 
Q 2303 800 2303 1197 
Q 2303 1581 2056 1914 
Q 1809 2247 1375 2428 
Q 1034 2569 447 2591 
L 1259 4238 
L 2778 4238 
z
" id="TimesNewRomanPSMT-35" transform="scale(0.015625)"/>
       </defs>
       <use xlink:href="#TimesNewRomanPSMT-30"/>
       <use x="50" xlink:href="#TimesNewRomanPSMT-2e"/>
       <use x="75" xlink:href="#TimesNewRomanPSMT-30"/>
       <use x="125" xlink:href="#TimesNewRomanPSMT-30"/>
       <use x="175" xlink:href="#TimesNewRomanPSMT-35"/>
      </g>
     </g>
    </g>
    <g id="text_7">
     <!-- Time (sec) -->
     <g transform="translate(200.858906 373.277188)scale(0.14 -0.14)">
      <defs>
       <path d="M 3703 4238 
L 3750 3244 
L 3631 3244 
Q 3597 3506 3538 3619 
Q 3441 3800 3280 3886 
Q 3119 3972 2856 3972 
L 2259 3972 
L 2259 734 
Q 2259 344 2344 247 
Q 2463 116 2709 116 
L 2856 116 
L 2856 0 
L 1059 0 
L 1059 116 
L 1209 116 
Q 1478 116 1591 278 
Q 1659 378 1659 734 
L 1659 3972 
L 1150 3972 
Q 853 3972 728 3928 
Q 566 3869 450 3700 
Q 334 3531 313 3244 
L 194 3244 
L 244 4238 
L 3703 4238 
z
" id="TimesNewRomanPSMT-54" transform="scale(0.015625)"/>
       <path d="M 928 4444 
Q 1059 4444 1151 4351 
Q 1244 4259 1244 4128 
Q 1244 3997 1151 3903 
Q 1059 3809 928 3809 
Q 797 3809 703 3903 
Q 609 3997 609 4128 
Q 609 4259 701 4351 
Q 794 4444 928 4444 
z
M 1188 2947 
L 1188 647 
Q 1188 378 1227 289 
Q 1266 200 1342 156 
Q 1419 113 1622 113 
L 1622 0 
L 231 0 
L 231 113 
Q 441 113 512 153 
Q 584 194 626 287 
Q 669 381 669 647 
L 669 1750 
Q 669 2216 641 2353 
Q 619 2453 572 2492 
Q 525 2531 444 2531 
Q 356 2531 231 2484 
L 188 2597 
L 1050 2947 
L 1188 2947 
z
" id="TimesNewRomanPSMT-69" transform="scale(0.015625)"/>
       <path d="M 1050 2338 
Q 1363 2650 1419 2697 
Q 1559 2816 1721 2881 
Q 1884 2947 2044 2947 
Q 2313 2947 2506 2790 
Q 2700 2634 2766 2338 
Q 3088 2713 3309 2830 
Q 3531 2947 3766 2947 
Q 3994 2947 4170 2830 
Q 4347 2713 4450 2447 
Q 4519 2266 4519 1878 
L 4519 647 
Q 4519 378 4559 278 
Q 4591 209 4675 161 
Q 4759 113 4950 113 
L 4950 0 
L 3538 0 
L 3538 113 
L 3597 113 
Q 3781 113 3884 184 
Q 3956 234 3988 344 
Q 4000 397 4000 647 
L 4000 1878 
Q 4000 2228 3916 2372 
Q 3794 2572 3525 2572 
Q 3359 2572 3192 2489 
Q 3025 2406 2788 2181 
L 2781 2147 
L 2788 2013 
L 2788 647 
Q 2788 353 2820 281 
Q 2853 209 2943 161 
Q 3034 113 3253 113 
L 3253 0 
L 1806 0 
L 1806 113 
Q 2044 113 2133 169 
Q 2222 225 2256 338 
Q 2272 391 2272 647 
L 2272 1878 
Q 2272 2228 2169 2381 
Q 2031 2581 1784 2581 
Q 1616 2581 1450 2491 
Q 1191 2353 1050 2181 
L 1050 647 
Q 1050 366 1089 281 
Q 1128 197 1204 155 
Q 1281 113 1516 113 
L 1516 0 
L 100 0 
L 100 113 
Q 297 113 375 155 
Q 453 197 493 289 
Q 534 381 534 647 
L 534 1741 
Q 534 2213 506 2350 
Q 484 2453 437 2492 
Q 391 2531 309 2531 
Q 222 2531 100 2484 
L 53 2597 
L 916 2947 
L 1050 2947 
L 1050 2338 
z
" id="TimesNewRomanPSMT-6d" transform="scale(0.015625)"/>
       <path d="M 681 1784 
Q 678 1147 991 784 
Q 1303 422 1725 422 
Q 2006 422 2214 576 
Q 2422 731 2563 1106 
L 2659 1044 
Q 2594 616 2278 264 
Q 1963 -88 1488 -88 
Q 972 -88 605 314 
Q 238 716 238 1394 
Q 238 2128 614 2539 
Q 991 2950 1559 2950 
Q 2041 2950 2350 2633 
Q 2659 2316 2659 1784 
L 681 1784 
z
M 681 1966 
L 2006 1966 
Q 1991 2241 1941 2353 
Q 1863 2528 1708 2628 
Q 1553 2728 1384 2728 
Q 1125 2728 920 2526 
Q 716 2325 681 1966 
z
" id="TimesNewRomanPSMT-65" transform="scale(0.015625)"/>
       <path id="TimesNewRomanPSMT-20" transform="scale(0.015625)"/>
       <path d="M 1988 -1253 
L 1988 -1369 
Q 1516 -1131 1200 -813 
Q 750 -359 506 256 
Q 263 872 263 1534 
Q 263 2503 741 3301 
Q 1219 4100 1988 4444 
L 1988 4313 
Q 1603 4100 1356 3731 
Q 1109 3363 987 2797 
Q 866 2231 866 1616 
Q 866 947 969 400 
Q 1050 -31 1165 -292 
Q 1281 -553 1476 -793 
Q 1672 -1034 1988 -1253 
z
" id="TimesNewRomanPSMT-28" transform="scale(0.015625)"/>
       <path d="M 2050 2947 
L 2050 1972 
L 1947 1972 
Q 1828 2431 1642 2597 
Q 1456 2763 1169 2763 
Q 950 2763 815 2647 
Q 681 2531 681 2391 
Q 681 2216 781 2091 
Q 878 1963 1175 1819 
L 1631 1597 
Q 2266 1288 2266 781 
Q 2266 391 1970 151 
Q 1675 -88 1309 -88 
Q 1047 -88 709 6 
Q 606 38 541 38 
Q 469 38 428 -44 
L 325 -44 
L 325 978 
L 428 978 
Q 516 541 762 319 
Q 1009 97 1316 97 
Q 1531 97 1667 223 
Q 1803 350 1803 528 
Q 1803 744 1651 891 
Q 1500 1038 1047 1263 
Q 594 1488 453 1669 
Q 313 1847 313 2119 
Q 313 2472 555 2709 
Q 797 2947 1181 2947 
Q 1350 2947 1591 2875 
Q 1750 2828 1803 2828 
Q 1853 2828 1881 2850 
Q 1909 2872 1947 2947 
L 2050 2947 
z
" id="TimesNewRomanPSMT-73" transform="scale(0.015625)"/>
       <path d="M 2631 1088 
Q 2516 522 2178 217 
Q 1841 -88 1431 -88 
Q 944 -88 581 321 
Q 219 731 219 1428 
Q 219 2103 620 2525 
Q 1022 2947 1584 2947 
Q 2006 2947 2278 2723 
Q 2550 2500 2550 2259 
Q 2550 2141 2473 2067 
Q 2397 1994 2259 1994 
Q 2075 1994 1981 2113 
Q 1928 2178 1911 2362 
Q 1894 2547 1784 2644 
Q 1675 2738 1481 2738 
Q 1169 2738 978 2506 
Q 725 2200 725 1697 
Q 725 1184 976 792 
Q 1228 400 1656 400 
Q 1963 400 2206 609 
Q 2378 753 2541 1131 
L 2631 1088 
z
" id="TimesNewRomanPSMT-63" transform="scale(0.015625)"/>
       <path d="M 144 4313 
L 144 4444 
Q 619 4209 934 3891 
Q 1381 3434 1625 2820 
Q 1869 2206 1869 1541 
Q 1869 572 1392 -226 
Q 916 -1025 144 -1369 
L 144 -1253 
Q 528 -1038 776 -670 
Q 1025 -303 1145 264 
Q 1266 831 1266 1447 
Q 1266 2113 1163 2663 
Q 1084 3094 967 3353 
Q 850 3613 656 3853 
Q 463 4094 144 4313 
z
" id="TimesNewRomanPSMT-29" transform="scale(0.015625)"/>
      </defs>
      <use xlink:href="#TimesNewRomanPSMT-54"/>
      <use x="57.583984" xlink:href="#TimesNewRomanPSMT-69"/>
      <use x="85.367188" xlink:href="#TimesNewRomanPSMT-6d"/>
      <use x="163.150391" xlink:href="#TimesNewRomanPSMT-65"/>
      <use x="207.535156" xlink:href="#TimesNewRomanPSMT-20"/>
      <use x="232.535156" xlink:href="#TimesNewRomanPSMT-28"/>
      <use x="265.835938" xlink:href="#TimesNewRomanPSMT-73"/>
      <use x="304.751953" xlink:href="#TimesNewRomanPSMT-65"/>
      <use x="349.136719" xlink:href="#TimesNewRomanPSMT-63"/>
      <use x="393.521484" xlink:href="#TimesNewRomanPSMT-29"/>
     </g>
    </g>
   </g>
   <g id="matplotlib.axis_2">
    <g id="ytick_1">
     <g id="line2d_13">
      <path clip-path="url(#p4a9d1dc0e3)" d="M 63.336875 282.995659 
L 398.136875 282.995659 
" style="fill:none;stroke:#000000;stroke-dasharray:0.5,0.825;stroke-dashoffset:0;stroke-width:0.5;"/>
     </g>
     <g id="line2d_14">
      <defs>
       <path d="M 0 0 
L -3.5 0 
" id="mcab0ed050a" style="stroke:#000000;stroke-width:0.8;"/>
      </defs>
      <g>
       <use style="stroke:#000000;stroke-width:0.8;" x="63.336875" xlink:href="#mcab0ed050a" y="282.995659"/>
      </g>
     </g>
     <g id="text_8">
      <!-- −0.04 -->
      <g transform="translate(23.942188 287.856284)scale(0.14 -0.14)">
       <defs>
        <path d="M 3484 2000 
L 116 2000 
L 116 2256 
L 3484 2256 
L 3484 2000 
z
" id="TimesNewRomanPSMT-2212" transform="scale(0.015625)"/>
       </defs>
       <use xlink:href="#TimesNewRomanPSMT-2212"/>
       <use x="56.396484" xlink:href="#TimesNewRomanPSMT-30"/>
       <use x="106.396484" xlink:href="#TimesNewRomanPSMT-2e"/>
       <use x="131.396484" xlink:href="#TimesNewRomanPSMT-30"/>
       <use x="181.396484" xlink:href="#TimesNewRomanPSMT-34"/>
      </g>
     </g>
    </g>
    <g id="ytick_2">
     <g id="line2d_15">
      <path clip-path="url(#p4a9d1dc0e3)" d="M 63.336875 218.406152 
L 398.136875 218.406152 
" style="fill:none;stroke:#000000;stroke-dasharray:0.5,0.825;stroke-dashoffset:0;stroke-width:0.5;"/>
     </g>
     <g id="line2d_16">
      <g>
       <use style="stroke:#000000;stroke-width:0.8;" x="63.336875" xlink:href="#mcab0ed050a" y="218.406152"/>
      </g>
     </g>
     <g id="text_9">
      <!-- −0.02 -->
      <g transform="translate(23.942188 223.266777)scale(0.14 -0.14)">
       <use xlink:href="#TimesNewRomanPSMT-2212"/>
       <use x="56.396484" xlink:href="#TimesNewRomanPSMT-30"/>
       <use x="106.396484" xlink:href="#TimesNewRomanPSMT-2e"/>
       <use x="131.396484" xlink:href="#TimesNewRomanPSMT-30"/>
       <use x="181.396484" xlink:href="#TimesNewRomanPSMT-32"/>
      </g>
     </g>
    </g>
    <g id="ytick_3">
     <g id="line2d_17">
      <path clip-path="url(#p4a9d1dc0e3)" d="M 63.336875 153.816645 
L 398.136875 153.816645 
" style="fill:none;stroke:#000000;stroke-dasharray:0.5,0.825;stroke-dashoffset:0;stroke-width:0.5;"/>
     </g>
     <g id="line2d_18">
      <g>
       <use style="stroke:#000000;stroke-width:0.8;" x="63.336875" xlink:href="#mcab0ed050a" y="153.816645"/>
      </g>
     </g>
     <g id="text_10">
      <!-- 0.00 -->
      <g transform="translate(31.836875 158.67727)scale(0.14 -0.14)">
       <use xlink:href="#TimesNewRomanPSMT-30"/>
       <use x="50" xlink:href="#TimesNewRomanPSMT-2e"/>
       <use x="75" xlink:href="#TimesNewRomanPSMT-30"/>
       <use x="125" xlink:href="#TimesNewRomanPSMT-30"/>
      </g>
     </g>
    </g>
    <g id="ytick_4">
     <g id="line2d_19">
      <path clip-path="url(#p4a9d1dc0e3)" d="M 63.336875 89.227137 
L 398.136875 89.227137 
" style="fill:none;stroke:#000000;stroke-dasharray:0.5,0.825;stroke-dashoffset:0;stroke-width:0.5;"/>
     </g>
     <g id="line2d_20">
      <g>
       <use style="stroke:#000000;stroke-width:0.8;" x="63.336875" xlink:href="#mcab0ed050a" y="89.227137"/>
      </g>
     </g>
     <g id="text_11">
      <!-- 0.02 -->
      <g transform="translate(31.836875 94.087762)scale(0.14 -0.14)">
       <use xlink:href="#TimesNewRomanPSMT-30"/>
       <use x="50" xlink:href="#TimesNewRomanPSMT-2e"/>
       <use x="75" xlink:href="#TimesNewRomanPSMT-30"/>
       <use x="125" xlink:href="#TimesNewRomanPSMT-32"/>
      </g>
     </g>
    </g>
    <g id="ytick_5">
     <g id="line2d_21">
      <path clip-path="url(#p4a9d1dc0e3)" d="M 63.336875 24.63763 
L 398.136875 24.63763 
" style="fill:none;stroke:#000000;stroke-dasharray:0.5,0.825;stroke-dashoffset:0;stroke-width:0.5;"/>
     </g>
     <g id="line2d_22">
      <g>
       <use style="stroke:#000000;stroke-width:0.8;" x="63.336875" xlink:href="#mcab0ed050a" y="24.63763"/>
      </g>
     </g>
     <g id="text_12">
      <!-- 0.04 -->
      <g transform="translate(31.836875 29.498255)scale(0.14 -0.14)">
       <use xlink:href="#TimesNewRomanPSMT-30"/>
       <use x="50" xlink:href="#TimesNewRomanPSMT-2e"/>
       <use x="75" xlink:href="#TimesNewRomanPSMT-30"/>
       <use x="125" xlink:href="#TimesNewRomanPSMT-34"/>
      </g>
     </g>
    </g>
    <g id="text_13">
     <!-- Volatage (V) -->
     <g transform="translate(16.92125 209.352344)rotate(-90)scale(0.14 -0.14)">
      <defs>
       <path d="M 4544 4238 
L 4544 4122 
Q 4319 4081 4203 3978 
Q 4038 3825 3909 3509 
L 2431 -97 
L 2316 -97 
L 728 3556 
Q 606 3838 556 3900 
Q 478 3997 364 4051 
Q 250 4106 56 4122 
L 56 4238 
L 1788 4238 
L 1788 4122 
Q 1494 4094 1406 4022 
Q 1319 3950 1319 3838 
Q 1319 3681 1463 3350 
L 2541 866 
L 3541 3319 
Q 3688 3681 3688 3822 
Q 3688 3913 3597 3995 
Q 3506 4078 3291 4113 
Q 3275 4116 3238 4122 
L 3238 4238 
L 4544 4238 
z
" id="TimesNewRomanPSMT-56" transform="scale(0.015625)"/>
       <path d="M 1600 2947 
Q 2250 2947 2644 2453 
Q 2978 2031 2978 1484 
Q 2978 1100 2793 706 
Q 2609 313 2286 112 
Q 1963 -88 1566 -88 
Q 919 -88 538 428 
Q 216 863 216 1403 
Q 216 1797 411 2186 
Q 606 2575 925 2761 
Q 1244 2947 1600 2947 
z
M 1503 2744 
Q 1338 2744 1170 2645 
Q 1003 2547 900 2300 
Q 797 2053 797 1666 
Q 797 1041 1045 587 
Q 1294 134 1700 134 
Q 2003 134 2200 384 
Q 2397 634 2397 1244 
Q 2397 2006 2069 2444 
Q 1847 2744 1503 2744 
z
" id="TimesNewRomanPSMT-6f" transform="scale(0.015625)"/>
       <path d="M 1184 4444 
L 1184 647 
Q 1184 378 1223 290 
Q 1263 203 1344 158 
Q 1425 113 1647 113 
L 1647 0 
L 244 0 
L 244 113 
Q 441 113 512 153 
Q 584 194 625 287 
Q 666 381 666 647 
L 666 3247 
Q 666 3731 644 3842 
Q 622 3953 573 3993 
Q 525 4034 450 4034 
Q 369 4034 244 3984 
L 191 4094 
L 1044 4444 
L 1184 4444 
z
" id="TimesNewRomanPSMT-6c" transform="scale(0.015625)"/>
       <path d="M 1822 413 
Q 1381 72 1269 19 
Q 1100 -59 909 -59 
Q 613 -59 420 144 
Q 228 347 228 678 
Q 228 888 322 1041 
Q 450 1253 767 1440 
Q 1084 1628 1822 1897 
L 1822 2009 
Q 1822 2438 1686 2597 
Q 1550 2756 1291 2756 
Q 1094 2756 978 2650 
Q 859 2544 859 2406 
L 866 2225 
Q 866 2081 792 2003 
Q 719 1925 600 1925 
Q 484 1925 411 2006 
Q 338 2088 338 2228 
Q 338 2497 613 2722 
Q 888 2947 1384 2947 
Q 1766 2947 2009 2819 
Q 2194 2722 2281 2516 
Q 2338 2381 2338 1966 
L 2338 994 
Q 2338 584 2353 492 
Q 2369 400 2405 369 
Q 2441 338 2488 338 
Q 2538 338 2575 359 
Q 2641 400 2828 588 
L 2828 413 
Q 2478 -56 2159 -56 
Q 2006 -56 1915 50 
Q 1825 156 1822 413 
z
M 1822 616 
L 1822 1706 
Q 1350 1519 1213 1441 
Q 966 1303 859 1153 
Q 753 1003 753 825 
Q 753 600 887 451 
Q 1022 303 1197 303 
Q 1434 303 1822 616 
z
" id="TimesNewRomanPSMT-61" transform="scale(0.015625)"/>
       <path d="M 1031 3803 
L 1031 2863 
L 1700 2863 
L 1700 2644 
L 1031 2644 
L 1031 788 
Q 1031 509 1111 412 
Q 1191 316 1316 316 
Q 1419 316 1516 380 
Q 1613 444 1666 569 
L 1788 569 
Q 1678 263 1478 108 
Q 1278 -47 1066 -47 
Q 922 -47 784 33 
Q 647 113 581 261 
Q 516 409 516 719 
L 516 2644 
L 63 2644 
L 63 2747 
Q 234 2816 414 2980 
Q 594 3144 734 3369 
Q 806 3488 934 3803 
L 1031 3803 
z
" id="TimesNewRomanPSMT-74" transform="scale(0.015625)"/>
       <path d="M 966 1044 
Q 703 1172 562 1401 
Q 422 1631 422 1909 
Q 422 2334 742 2640 
Q 1063 2947 1563 2947 
Q 1972 2947 2272 2747 
L 2878 2747 
Q 3013 2747 3034 2739 
Q 3056 2731 3066 2713 
Q 3084 2684 3084 2613 
Q 3084 2531 3069 2500 
Q 3059 2484 3036 2475 
Q 3013 2466 2878 2466 
L 2506 2466 
Q 2681 2241 2681 1891 
Q 2681 1491 2375 1206 
Q 2069 922 1553 922 
Q 1341 922 1119 984 
Q 981 866 932 777 
Q 884 688 884 625 
Q 884 572 936 522 
Q 988 472 1138 450 
Q 1225 438 1575 428 
Q 2219 413 2409 384 
Q 2700 344 2873 169 
Q 3047 -6 3047 -263 
Q 3047 -616 2716 -925 
Q 2228 -1381 1444 -1381 
Q 841 -1381 425 -1109 
Q 191 -953 191 -784 
Q 191 -709 225 -634 
Q 278 -519 444 -313 
Q 466 -284 763 25 
Q 600 122 533 198 
Q 466 275 466 372 
Q 466 481 555 628 
Q 644 775 966 1044 
z
M 1509 2797 
Q 1278 2797 1122 2612 
Q 966 2428 966 2047 
Q 966 1553 1178 1281 
Q 1341 1075 1591 1075 
Q 1828 1075 1981 1253 
Q 2134 1431 2134 1813 
Q 2134 2309 1919 2591 
Q 1759 2797 1509 2797 
z
M 934 0 
Q 788 -159 713 -296 
Q 638 -434 638 -550 
Q 638 -700 819 -813 
Q 1131 -1006 1722 -1006 
Q 2284 -1006 2551 -807 
Q 2819 -609 2819 -384 
Q 2819 -222 2659 -153 
Q 2497 -84 2016 -72 
Q 1313 -53 934 0 
z
" id="TimesNewRomanPSMT-67" transform="scale(0.015625)"/>
      </defs>
      <use xlink:href="#TimesNewRomanPSMT-56"/>
      <use x="59.341797" xlink:href="#TimesNewRomanPSMT-6f"/>
      <use x="109.341797" xlink:href="#TimesNewRomanPSMT-6c"/>
      <use x="137.125" xlink:href="#TimesNewRomanPSMT-61"/>
      <use x="181.509766" xlink:href="#TimesNewRomanPSMT-74"/>
      <use x="209.292969" xlink:href="#TimesNewRomanPSMT-61"/>
      <use x="253.677734" xlink:href="#TimesNewRomanPSMT-67"/>
      <use x="303.677734" xlink:href="#TimesNewRomanPSMT-65"/>
      <use x="348.0625" xlink:href="#TimesNewRomanPSMT-20"/>
      <use x="373.0625" xlink:href="#TimesNewRomanPSMT-28"/>
      <use x="406.363281" xlink:href="#TimesNewRomanPSMT-56"/>
      <use x="478.580078" xlink:href="#TimesNewRomanPSMT-29"/>
     </g>
    </g>
   </g>
   <g id="LineCollection_1">
    <path clip-path="url(#p4a9d1dc0e3)" d="M 78.555057 153.816645 
L 382.918693 153.816645 
" style="fill:none;stroke:#1f77b4;stroke-width:1.5;"/>
   </g>
   <g id="line2d_23">
    <path clip-path="url(#p4a9d1dc0e3)" d="M 78.555057 153.921118 
L 78.707239 153.88075 
L 82.329166 153.800013 
L 82.450911 153.759644 
L 82.481348 153.88075 
L 82.572657 153.800013 
L 84.733639 153.759644 
L 84.764075 153.678907 
L 84.824948 153.719276 
L 84.946693 153.759644 
L 85.068439 153.759644 
L 89.055602 153.759644 
L 89.086039 153.638539 
L 89.177348 153.678907 
L 110.543675 153.759644 
L 110.634984 153.800013 
L 110.66542 153.759644 
L 111.578511 153.840381 
L 111.700257 153.840381 
L 112.278548 153.921118 
L 112.43073 153.961486 
L 113.222075 154.042223 
L 113.34382 154.042223 
L 113.648184 154.12296 
L 113.800366 154.163329 
L 114.10473 154.244066 
L 114.196039 154.284434 
L 114.226475 154.244066 
L 114.530839 154.324803 
L 114.68302 154.365171 
L 115.01782 154.445908 
L 115.200439 154.526645 
L 115.626548 154.607382 
L 115.809166 154.688119 
L 115.930911 154.64775 
L 116.11353 154.728487 
L 116.174402 154.688119 
L 116.204839 154.728487 
L 116.387457 154.809224 
L 116.44833 154.768855 
L 116.478766 154.809224 
L 116.600511 154.849592 
L 116.69182 154.809224 
L 116.722257 154.849592 
L 117.057057 154.889961 
L 117.178802 154.970698 
L 117.574475 155.011066 
L 117.69622 155.091803 
L 118.152766 155.17254 
L 118.304948 155.253277 
L 118.426693 155.253277 
L 118.79193 155.334014 
L 119.004984 155.455119 
L 119.065857 155.41475 
L 119.096293 155.455119 
L 119.278911 155.535856 
L 119.309348 155.495487 
L 119.37022 155.576224 
L 119.613711 155.656961 
L 119.765893 155.778066 
L 119.79633 155.737698 
L 119.857202 155.818435 
L 120.070257 155.899172 
L 120.222439 156.020277 
L 120.526802 156.262488 
L 120.648548 156.343225 
L 121.287711 157.029488 
L 121.318148 156.98912 
L 121.348584 157.110225 
L 121.561639 157.433173 
L 121.592075 157.392804 
L 121.622511 157.473541 
L 121.957311 158.079068 
L 122.292111 158.684594 
L 124.270475 164.215071 
L 126.705384 174.34755 
L 128.16633 181.533134 
L 128.775057 184.399291 
L 129.140293 186.135136 
L 130.814293 192.351875 
L 132.031748 195.298771 
L 132.123057 195.379508 
L 132.396984 195.58135 
L 132.42742 195.540982 
L 132.488293 195.621719 
L 132.640475 195.662087 
L 133.066584 195.621719 
L 133.249202 195.379508 
L 133.340511 195.298771 
L 133.644875 194.733613 
L 134.284039 193.320718 
L 134.405784 192.99777 
L 135.044948 191.019716 
L 136.11022 186.336978 
L 136.597202 183.228607 
L 138.819057 164.73986 
L 141.680075 129.29637 
L 142.80622 113.108623 
L 146.549893 60.06449 
L 148.284766 40.647269 
L 149.380475 31.443268 
L 150.354439 25.670571 
L 150.50662 24.984314 
L 151.084911 23.086997 
L 151.754511 22.360365 
L 152.393675 22.441102 
L 152.880657 23.248474 
L 153.18502 24.015468 
L 153.51982 25.186153 
L 154.585093 31.362528 
L 155.559057 39.961003 
L 156.746075 53.645914 
L 159.363602 97.041983 
L 160.459311 119.446469 
L 161.494148 142.173901 
L 166.850948 260.534174 
L 168.433639 287.863609 
L 169.59022 303.163249 
L 171.446839 319.391359 
L 171.93382 321.974949 
L 173.059966 324.679625 
L 173.333893 324.598888 
L 173.60782 324.11447 
L 173.668693 324.03373 
L 174.733966 320.925363 
L 176.134039 312.932408 
L 176.590584 309.178147 
L 178.508075 290.406821 
L 181.703893 246.607061 
L 187.547675 155.293645 
L 190.834802 113.148992 
L 193.969748 81.05608 
L 194.821966 74.677866 
L 195.400257 70.318074 
L 196.069857 65.150914 
L 197.04382 58.24791 
L 197.500366 55.260649 
L 197.865602 53.201858 
L 199.843966 45.774058 
L 200.087457 44.845587 
L 200.574439 43.351962 
L 200.909239 42.746428 
L 200.939675 42.746428 
L 201.213602 42.100537 
L 201.639711 41.252803 
L 201.944075 41.010585 
L 202.765857 40.929849 
L 202.918039 40.849112 
L 203.039784 40.849112 
L 203.16153 40.929849 
L 203.465893 41.172062 
L 203.587639 41.252803 
L 203.73982 41.373905 
L 204.16593 41.454642 
L 204.439857 41.696843 
L 204.470293 41.656481 
L 204.50073 41.777583 
L 204.83553 42.383113 
L 205.231202 43.15011 
L 205.657311 43.836376 
L 205.961675 44.603374 
L 206.08342 44.926328 
L 207.08782 47.308062 
L 207.209566 47.631016 
L 207.75742 49.366856 
L 208.487893 51.587117 
L 210.009711 58.08644 
L 210.43582 60.225967 
L 211.348911 64.222436 
L 211.653275 65.877546 
L 211.77502 66.442704 
L 212.931602 73.103494 
L 213.662075 78.068812 
L 213.936002 80.046869 
L 215.001275 88.927926 
L 215.488257 93.651037 
L 216.21873 101.119199 
L 216.979639 109.152516 
L 217.770984 117.34731 
L 218.197093 122.272259 
L 218.927566 130.507422 
L 219.749348 140.357322 
L 221.362475 160.299332 
L 222.062511 168.89781 
L 226.749711 229.611947 
L 229.306366 258.838696 
L 229.94553 264.490275 
L 231.19342 273.532815 
L 231.893457 277.448554 
L 233.29353 282.615705 
L 234.328366 283.86713 
L 234.480548 283.826768 
L 234.571857 283.786393 
L 234.845784 283.301975 
L 234.937093 283.221238 
L 236.124111 279.789917 
L 237.341566 272.765809 
L 238.89382 259.565328 
L 241.480911 230.944106 
L 242.546184 217.01699 
L 243.641893 202.645828 
L 244.58542 190.494927 
L 245.34633 180.160606 
L 246.198548 167.363809 
L 249.576984 119.648311 
L 250.672693 106.891883 
L 251.190111 101.482515 
L 252.37713 91.471138 
L 253.838075 82.509344 
L 253.990257 81.82308 
L 255.39033 76.696285 
L 256.546911 73.870497 
L 256.63822 73.830126 
L 256.790402 73.709027 
L 257.003457 73.587918 
L 257.886111 73.668655 
L 258.06873 73.910866 
L 258.099166 73.870497 
L 258.129602 73.951234 
L 258.31222 74.153073 
L 258.555711 74.31455 
L 258.860075 74.395287 
L 259.194875 74.677866 
L 259.286184 74.758603 
L 259.468802 74.960445 
L 259.955784 75.444867 
L 260.047093 75.444867 
L 260.229711 75.687077 
L 260.32102 75.767814 
L 260.503639 76.090762 
L 260.868875 76.736657 
L 261.112366 77.301818 
L 261.386293 77.826605 
L 262.08633 79.966132 
L 263.729893 86.909507 
L 264.186439 89.210505 
L 265.67782 97.687878 
L 267.595311 111.130569 
L 268.234475 116.055519 
L 268.843202 120.818996 
L 269.421493 125.178788 
L 270.578075 133.575423 
L 271.186802 138.258162 
L 271.917275 143.829008 
L 272.434693 147.744746 
L 272.586875 148.713589 
L 273.012984 151.660485 
L 273.621711 155.455119 
L 274.169566 158.361647 
L 275.204402 163.286597 
L 275.356584 163.932492 
L 275.874002 166.112388 
L 276.178366 167.161967 
L 276.513166 168.37302 
L 277.000148 169.94739 
L 277.639311 172.046549 
L 277.761057 172.369496 
L 278.004548 173.136497 
L 279.313311 176.325604 
L 279.952475 177.334814 
L 280.195966 177.738499 
L 280.256839 177.778867 
L 280.469893 178.061446 
L 280.774257 178.344026 
L 280.804693 178.303658 
L 280.83513 178.424762 
L 280.956875 178.505499 
L 281.717784 179.353237 
L 281.869966 179.433974 
L 282.08302 179.555078 
L 282.113457 179.474341 
L 282.17433 179.595447 
L 282.204766 179.51471 
L 282.356948 179.676184 
L 282.448257 179.676184 
L 282.630875 179.79729 
L 282.722184 179.756921 
L 282.75262 179.837658 
L 282.84393 179.79729 
L 283.056984 179.716553 
L 283.300475 179.555078 
L 283.361348 179.595447 
L 283.391784 179.51471 
L 283.543966 179.474341 
L 283.696148 179.353237 
L 283.84833 179.2725 
L 284.152693 179.030288 
L 284.213566 178.989921 
L 284.396184 178.747711 
L 284.42662 178.788078 
L 284.457057 178.707342 
L 284.944039 178.22292 
L 285.004911 178.142183 
L 285.18753 177.940342 
L 285.217966 177.940342 
L 285.43102 177.536656 
L 285.461457 177.577026 
L 285.491893 177.496289 
L 286.131057 176.487077 
L 286.43542 175.921918 
L 286.496293 175.881551 
L 286.891966 175.074182 
L 286.952839 174.993445 
L 287.318075 174.34755 
L 287.500693 173.984234 
L 287.53113 173.984234 
L 287.744184 173.540181 
L 289.235566 171.723602 
L 289.935602 171.642865 
L 290.057348 171.602496 
L 290.179093 171.642865 
L 290.300839 171.642865 
L 290.392148 171.723602 
L 291.731348 173.620918 
L 292.12702 174.751235 
L 294.288002 180.766132 
L 294.683675 181.89645 
L 294.774984 182.179028 
L 296.753348 187.144346 
L 296.81422 187.184715 
L 297.088148 187.669135 
L 297.179457 187.749874 
L 297.392511 188.153557 
L 298.214293 189.082031 
L 298.366475 189.1224 
L 298.518657 189.283873 
L 298.609966 189.36461 
L 298.82302 189.647189 
L 298.944766 189.647189 
L 299.096948 189.727926 
L 299.310002 189.606821 
L 300.436148 189.526084 
L 300.984002 188.960926 
L 301.105748 188.920557 
L 301.227493 188.839821 
L 301.349239 188.759084 
L 303.753711 185.408504 
L 304.118948 184.72224 
L 304.17982 184.681871 
L 304.484184 183.91487 
L 304.51462 183.91487 
L 304.910293 182.784556 
L 304.971166 182.582713 
L 305.336402 181.533134 
L 305.488584 181.169818 
L 306.006002 179.555078 
L 306.432111 177.819236 
L 306.675602 176.890761 
L 307.497384 173.176865 
L 311.028002 153.921118 
L 311.849784 148.229168 
L 312.184584 145.968535 
L 312.64113 142.698691 
L 314.497748 131.112949 
L 314.771675 129.578948 
L 315.56302 124.855841 
L 315.836948 123.281471 
L 316.597857 119.809785 
L 316.780475 119.042784 
L 317.23702 117.185836 
L 317.32833 116.903257 
L 317.937057 114.925203 
L 318.24142 113.835255 
L 318.515348 112.906781 
L 319.398002 110.282832 
L 319.854548 108.910305 
L 320.432839 107.618515 
L 320.463275 107.618515 
L 320.706766 107.053357 
L 320.858948 106.690041 
L 321.193748 106.084514 
L 321.25462 106.003777 
L 322.746002 104.187197 
L 322.806875 104.106461 
L 323.080802 103.904618 
L 323.141675 103.86425 
L 323.35473 103.581674 
L 324.237384 102.491726 
L 324.26782 102.532095 
L 324.35913 102.451354 
L 324.60262 102.209147 
L 324.633057 102.289877 
L 324.69393 102.209147 
L 324.846111 102.007302 
L 324.967857 102.007302 
L 325.180911 101.886193 
L 325.454839 101.966933 
L 325.60702 102.088038 
L 326.002693 102.451354 
L 326.124439 102.532095 
L 326.36793 102.89541 
L 326.641857 103.420197 
L 327.463639 105.317514 
L 327.585384 105.600093 
L 327.828875 106.407462 
L 327.95062 106.730409 
L 328.407166 108.183673 
L 328.71153 109.233253 
L 329.746366 113.794887 
L 332.30302 127.883474 
L 332.668257 129.942263 
L 332.790002 130.54779 
L 333.459602 134.261686 
L 334.64662 141.124322 
L 335.437966 145.645587 
L 335.894511 147.90622 
L 337.142402 154.001855 
L 337.294584 154.688119 
L 338.238111 159.128647 
L 338.785966 161.752596 
L 339.546875 165.224282 
L 341.220875 171.441022 
L 341.799166 173.257601 
L 342.133966 174.186076 
L 342.225275 174.428286 
L 342.620948 175.598972 
L 342.803566 176.002655 
L 343.473166 177.496289 
L 343.747093 178.021078 
L 344.142766 178.788078 
L 344.234075 178.868815 
L 344.538439 179.393605 
L 344.629748 179.474341 
L 345.208039 180.079869 
L 345.299348 180.120237 
L 345.481966 180.362447 
L 345.634148 180.402816 
L 345.78633 180.56429 
L 345.908075 180.645026 
L 346.303748 181.008344 
L 346.395057 181.089079 
L 346.729857 181.37166 
L 346.79073 181.452396 
L 347.36902 182.057923 
L 347.46033 182.057923 
L 347.582075 182.219397 
L 347.612511 182.179028 
L 347.673384 182.259766 
L 347.916875 182.42124 
L 347.947311 182.340501 
L 348.03862 182.38087 
L 348.251675 182.501975 
L 348.342984 182.501975 
L 348.495166 182.542344 
L 348.677784 182.42124 
L 348.79953 182.42124 
L 349.012584 182.300132 
L 349.347384 182.219397 
L 349.408257 182.179028 
L 349.438693 182.219397 
L 349.46913 182.259766 
L 349.499566 182.138659 
L 349.834366 182.057923 
L 350.016984 181.977185 
L 350.199602 181.89645 
L 350.38222 181.815712 
L 350.412657 181.856081 
L 350.47353 181.775343 
L 350.595275 181.775343 
L 350.80833 181.694607 
L 350.899639 181.654238 
L 350.930075 181.694607 
L 351.082257 181.654238 
L 351.234439 181.533134 
L 351.325748 181.492765 
L 351.508366 181.290922 
L 351.660548 181.210184 
L 352.086657 180.8065 
L 352.14753 180.766132 
L 352.360584 180.483553 
L 355.282475 176.769657 
L 355.343348 176.729288 
L 355.49553 176.608183 
L 355.799893 176.365971 
L 356.012948 176.285235 
L 356.256439 176.123761 
L 356.49993 176.043024 
L 356.652111 175.962288 
L 356.682548 176.002655 
L 356.74342 175.921918 
L 356.895602 175.841182 
L 357.047784 175.800814 
L 357.199966 175.720078 
L 357.352148 175.679708 
L 357.656511 175.598972 
L 357.808693 175.518235 
L 357.930439 175.518235 
L 358.052184 175.437498 
L 358.265239 175.316392 
L 358.386984 175.235656 
L 358.630475 175.033813 
L 358.721784 175.074182 
L 358.75222 175.033813 
L 358.813093 174.993445 
L 358.965275 174.872339 
L 359.056584 174.872339 
L 359.543566 174.387919 
L 359.604439 174.387919 
L 359.75662 174.226444 
L 359.84793 174.145707 
L 360.030548 174.06497 
L 360.121857 174.06497 
L 360.274039 173.903497 
L 360.395784 173.82276 
L 361.948039 171.602496 
L 362.19153 171.077706 
L 362.587202 170.391443 
L 363.013311 169.503337 
L 363.043748 169.503337 
L 363.317675 168.857442 
L 363.835093 167.727125 
L 363.86553 167.727125 
L 364.10902 167.202336 
L 364.53513 166.354598 
L 365.052548 165.506861 
L 365.265602 165.224282 
L 366.848293 163.286597 
L 366.939602 163.246228 
L 367.12222 163.044386 
L 367.152657 163.084755 
L 367.21353 163.004018 
L 367.670075 162.519596 
L 367.700511 162.559965 
L 367.761384 162.479228 
L 367.852693 162.398491 
L 368.004875 162.277386 
L 368.21793 162.237018 
L 368.370111 162.115912 
L 368.55273 162.035175 
L 368.88753 161.752596 
L 368.948402 161.712227 
L 369.100584 161.591122 
L 369.344075 161.429648 
L 369.526693 161.348912 
L 369.770184 161.187438 
L 369.80062 161.227806 
L 369.861493 161.147069 
L 369.952802 161.066332 
L 370.348475 160.703016 
L 370.439784 160.62228 
L 370.591966 160.460806 
L 370.713711 160.380069 
L 372.083348 158.724963 
L 372.14422 158.644226 
L 372.326839 158.361647 
L 372.357275 158.402015 
L 372.387711 158.361647 
L 372.600766 158.038699 
L 372.692075 157.957962 
L 374.305202 155.656961 
L 374.670439 154.970698 
L 374.974802 154.405539 
L 376.009639 151.943064 
L 376.192257 151.53938 
L 382.096911 135.593845 
L 382.462148 134.544266 
L 382.583893 134.221319 
L 382.918693 133.292844 
L 382.918693 133.292844 
" style="fill:none;stroke:#0000ff;stroke-linecap:square;stroke-width:1.5;"/>
   </g>
   <g id="line2d_24">
    <path clip-path="url(#p4a9d1dc0e3)" d="M 78.555057 153.814626 
L 78.768111 153.83481 
L 78.95073 153.83481 
L 99.890948 153.935731 
L 100.073566 154.016468 
L 100.225748 154.036653 
L 100.834475 154.339416 
L 100.925784 154.379784 
L 101.230148 154.601811 
L 101.686693 155.025679 
L 102.691093 156.519312 
L 102.995457 157.145023 
L 104.63902 161.807578 
L 105.339057 164.512264 
L 106.31302 168.811502 
L 107.31742 173.574979 
L 107.865275 176.198927 
L 108.869675 180.942219 
L 110.026257 185.786432 
L 110.695857 187.845224 
L 111.09153 188.975539 
L 111.517639 190.004935 
L 111.822002 190.529724 
L 112.887275 191.781146 
L 113.34382 191.680225 
L 113.982984 191.135251 
L 114.500402 190.267329 
L 116.174402 184.353352 
L 117.391857 177.30906 
L 117.970148 173.191478 
L 120.892039 149.071334 
L 121.80513 140.513225 
L 122.900839 130.118349 
L 125.092257 110.781867 
L 125.792293 106.099128 
L 127.131493 98.772255 
L 128.044584 94.4932 
L 129.688148 89.346224 
L 129.779457 89.245303 
L 130.205566 88.841619 
L 130.357748 88.760882 
L 130.601239 88.518671 
L 130.905602 88.296645 
L 131.331711 88.377385 
L 131.51433 88.478303 
L 131.727384 88.458115 
L 131.879566 88.377385 
L 132.336111 87.933329 
L 132.457857 87.913148 
L 132.640475 87.913148 
L 132.823093 88.014066 
L 133.127457 88.256276 
L 133.370948 88.357194 
L 133.705748 88.458115 
L 133.918802 88.559043 
L 134.314475 89.104017 
L 134.43622 89.285675 
L 134.801457 89.77009 
L 135.10582 89.871017 
L 135.258002 89.891198 
L 135.471057 89.992119 
L 136.749384 91.505933 
L 136.840693 91.52612 
L 137.418984 92.454594 
L 138.027711 93.766569 
L 138.423384 94.77578 
L 139.184293 98.247462 
L 140.46262 104.686232 
L 143.23233 121.822636 
L 144.328039 130.360561 
L 144.936766 135.103854 
L 152.51542 194.5262 
L 152.971966 197.170333 
L 154.219857 203.205415 
L 155.102511 206.273414 
L 156.106911 208.029444 
L 156.593893 208.513869 
L 156.715639 208.554237 
L 156.928693 208.574418 
L 157.385239 208.473497 
L 158.237457 207.807418 
L 159.454911 205.627522 
L 159.576657 205.466048 
L 160.368002 203.649468 
L 160.581057 203.185231 
L 161.128911 201.873257 
L 162.133311 198.906176 
L 162.437675 198.058439 
L 162.833348 196.706096 
L 163.533384 193.981226 
L 164.537784 189.581066 
L 164.963893 187.663566 
L 165.511748 185.483669 
L 166.607457 180.90185 
L 166.972693 179.630246 
L 168.037966 176.481506 
L 168.464075 175.87598 
L 169.133675 175.169532 
L 169.407602 175.088796 
L 169.59022 175.189717 
L 169.711966 175.230084 
L 169.92502 175.331006 
L 170.198948 175.512664 
L 170.35113 175.613585 
L 170.868548 176.481506 
L 171.659893 178.721955 
L 172.116439 180.195403 
L 174.429602 191.458198 
L 175.464439 197.533649 
L 178.264584 216.829764 
L 179.29942 223.611663 
L 180.608184 229.182504 
L 181.034293 230.211903 
L 181.39953 231.180742 
L 181.916948 232.290881 
L 182.099566 232.512907 
L 182.434366 232.936773 
L 182.525675 233.037694 
L 182.860475 233.300089 
L 183.07353 233.32027 
L 183.65182 232.371618 
L 184.047493 231.241301 
L 184.717093 228.637537 
L 185.204075 225.89248 
L 185.99542 219.958319 
L 186.695457 213.014943 
L 188.67382 188.087433 
L 190.378257 161.62592 
L 191.68702 138.091118 
L 192.69142 120.853793 
L 195.339384 80.444986 
L 196.03942 72.230005 
L 197.287311 59.413027 
L 198.596075 49.058516 
L 200.05702 40.07654 
L 200.787493 36.766331 
L 201.39622 34.727725 
L 202.339748 33.637774 
L 202.461493 33.617587 
L 202.674548 33.597399 
L 203.131093 34.001093 
L 203.587639 34.667172 
L 203.861566 34.969939 
L 204.226802 35.636009 
L 204.74422 37.311299 
L 205.17033 39.087517 
L 206.17473 45.687757 
L 207.148693 53.135732 
L 217.80142 137.041538 
L 218.592766 142.995884 
L 220.084148 154.016468 
L 221.179857 161.222236 
L 223.736511 177.450349 
L 226.536657 193.496805 
L 227.358439 197.210701 
L 228.27153 200.944782 
L 228.697639 202.357678 
L 229.306366 204.355916 
L 230.18902 206.394522 
L 230.28033 206.535812 
L 230.52382 206.979864 
L 231.132548 207.948707 
L 231.345602 208.190921 
L 231.741275 208.796444 
L 231.771711 208.776257 
L 231.802148 208.836816 
L 232.86742 210.713945 
L 233.29353 211.42039 
L 233.506584 211.864446 
L 234.693602 214.468207 
L 235.393639 216.04258 
L 235.63713 216.547185 
L 236.337166 217.697683 
L 236.55022 217.960081 
L 237.828548 219.473894 
L 239.015566 220.139977 
L 239.137311 220.139977 
L 239.685166 220.05924 
L 239.837348 220.039059 
L 240.111275 219.9785 
L 241.176548 220.079427 
L 241.541784 220.200529 
L 241.99833 220.301447 
L 242.33313 220.402375 
L 242.637493 220.483105 
L 242.850548 220.584033 
L 243.611457 221.209737 
L 244.311493 222.319872 
L 247.111639 227.648507 
L 248.26822 229.000846 
L 248.420402 229.101774 
L 248.69433 229.162323 
L 249.211748 229.061402 
L 249.394366 228.980665 
L 249.637857 228.879744 
L 250.124839 228.435691 
L 251.159675 226.881506 
L 251.829275 225.347506 
L 253.411966 218.666532 
L 255.72513 202.599889 
L 257.64262 183.768012 
L 259.74273 158.880866 
L 266.01262 77.175139 
L 267.473566 61.936052 
L 269.086693 49.966812 
L 270.151966 44.880388 
L 270.669384 43.548223 
L 271.065057 42.781229 
L 271.399857 42.49865 
L 272.191202 42.599565 
L 272.586875 42.983068 
L 272.891239 43.568411 
L 273.347784 44.718911 
L 274.443493 48.6952 
L 275.47833 54.710098 
L 278.552402 80.061482 
L 282.50913 120.530846 
L 283.84833 134.377221 
L 286.891966 163.543421 
L 290.940002 197.513465 
L 292.157457 205.587153 
L 293.618402 213.640657 
L 294.257566 216.12332 
L 295.627202 219.473894 
L 296.692475 221.068448 
L 296.996839 221.431764 
L 297.788184 221.835451 
L 298.427348 221.73453 
L 298.944766 221.270293 
L 300.375275 219.191318 
L 301.044875 217.637133 
L 303.023239 210.693764 
L 303.388475 208.816625 
L 304.575493 201.065888 
L 306.919093 183.303773 
L 309.53662 164.9765 
L 312.458511 151.937494 
L 312.793311 150.766809 
L 315.56302 140.190278 
L 315.836948 139.423276 
L 317.115275 135.568091 
L 317.967493 133.004695 
L 318.393602 131.733089 
L 322.898184 120.086793 
L 323.172111 119.562003 
L 323.780839 118.250029 
L 324.876548 115.848106 
L 325.728766 113.405816 
L 326.794039 110.882788 
L 327.798439 109.126761 
L 328.224548 108.400129 
L 328.468039 107.956076 
L 329.837675 106.321154 
L 330.568148 105.91747 
L 330.689893 105.897285 
L 331.72473 105.957838 
L 331.907348 106.099128 
L 332.516075 106.623917 
L 333.855275 108.581787 
L 334.524875 110.115788 
L 334.950984 111.367209 
L 335.164039 112.013104 
L 337.051093 118.653713 
L 338.938148 126.586111 
L 340.977384 137.990196 
L 345.299348 167.358239 
L 347.673384 185.382747 
L 348.586475 191.498567 
L 349.560439 197.816228 
L 351.447493 208.412941 
L 352.604075 213.983789 
L 353.851966 218.505055 
L 354.217202 219.473894 
L 355.221602 221.87582 
L 355.312911 222.017109 
L 355.678148 222.683188 
L 355.799893 222.885031 
L 356.195566 223.430005 
L 356.439057 223.591482 
L 356.895602 223.490554 
L 357.534766 222.965768 
L 359.08702 219.655552 
L 359.665311 217.394926 
L 361.034948 209.543261 
L 363.378548 193.274778 
L 366.909166 164.290237 
L 372.783384 114.5765 
L 374.731311 102.385228 
L 375.218293 100.124601 
L 375.948766 97.258442 
L 377.470584 92.555512 
L 377.622766 92.172015 
L 378.018439 91.243544 
L 378.353239 90.658198 
L 379.083711 89.871017 
L 379.327202 89.77009 
L 379.570693 89.729721 
L 380.027239 89.830649 
L 381.122948 90.658198 
L 382.918693 94.412464 
L 382.918693 94.412464 
" style="fill:none;stroke:#ff0000;stroke-linecap:square;stroke-width:1.5;"/>
   </g>
   <g id="line2d_25">
    <path clip-path="url(#p4a9d1dc0e3)" d="M 123.72262 162.398491 
" style="fill:none;stroke:#ffffff;stroke-linecap:square;stroke-width:1.5;"/>
    <defs>
     <path d="M 0 -5 
L -1.12257 -1.545085 
L -4.755283 -1.545085 
L -1.816356 0.59017 
L -2.938926 4.045085 
L -0 1.90983 
L 2.938926 4.045085 
L 1.816356 0.59017 
L 4.755283 -1.545085 
L 1.12257 -1.545085 
z
" id="mc876daf90d" style="stroke:#ffffff;stroke-linejoin:bevel;"/>
    </defs>
    <g clip-path="url(#p4a9d1dc0e3)">
     <use style="fill:#0000ff;stroke:#ffffff;stroke-linejoin:bevel;" x="123.72262" xlink:href="#mc876daf90d" y="162.398491"/>
    </g>
   </g>
   <g id="line2d_26">
    <path clip-path="url(#p4a9d1dc0e3)" d="M 104.06073 159.930445 
" style="fill:none;stroke:#ffffff;stroke-linecap:square;stroke-width:1.5;"/>
    <defs>
     <path d="M 0 -5 
L -1.12257 -1.545085 
L -4.755283 -1.545085 
L -1.816356 0.59017 
L -2.938926 4.045085 
L -0 1.90983 
L 2.938926 4.045085 
L 1.816356 0.59017 
L 4.755283 -1.545085 
L 1.12257 -1.545085 
z
" id="m3304496313" style="stroke:#ffffff;stroke-linejoin:bevel;"/>
    </defs>
    <g clip-path="url(#p4a9d1dc0e3)">
     <use style="fill:#ff0000;stroke:#ffffff;stroke-linejoin:bevel;" x="104.06073" xlink:href="#m3304496313" y="159.930445"/>
    </g>
   </g>
   <g id="patch_3">
    <path d="M 63.336875 339.84 
L 63.336875 7.2 
" style="fill:none;stroke:#000000;stroke-linecap:square;stroke-linejoin:miter;stroke-width:0.8;"/>
   </g>
   <g id="patch_4">
    <path d="M 398.136875 339.84 
L 398.136875 7.2 
" style="fill:none;stroke:#000000;stroke-linecap:square;stroke-linejoin:miter;stroke-width:0.8;"/>
   </g>
   <g id="patch_5">
    <path d="M 63.336875 339.84 
L 398.136875 339.84 
" style="fill:none;stroke:#000000;stroke-linecap:square;stroke-linejoin:miter;stroke-width:0.8;"/>
   </g>
   <g id="patch_6">
    <path d="M 63.336875 7.2 
L 398.136875 7.2 
" style="fill:none;stroke:#000000;stroke-linecap:square;stroke-linejoin:miter;stroke-width:0.8;"/>
   </g>
   <g id="text_14">
    <g id="patch_7">
     <path d="M 75.036875 331.242688 
L 166.79375 331.242688 
L 166.79375 293.760312 
L 75.036875 293.760312 
z
" style="fill:#ffffff;stroke:#000000;stroke-linejoin:miter;stroke-width:0.75;"/>
    </g>
    <!-- Auto_00170 -->
    <g transform="translate(80.076875 308.521563)scale(0.14 -0.14)">
     <defs>
      <path d="M 2928 1419 
L 1288 1419 
L 1000 750 
Q 894 503 894 381 
Q 894 284 986 211 
Q 1078 138 1384 116 
L 1384 0 
L 50 0 
L 50 116 
Q 316 163 394 238 
Q 553 388 747 847 
L 2238 4334 
L 2347 4334 
L 3822 809 
Q 4000 384 4145 257 
Q 4291 131 4550 116 
L 4550 0 
L 2878 0 
L 2878 116 
Q 3131 128 3220 200 
Q 3309 272 3309 375 
Q 3309 513 3184 809 
L 2928 1419 
z
M 2841 1650 
L 2122 3363 
L 1384 1650 
L 2841 1650 
z
" id="TimesNewRomanPSMT-41" transform="scale(0.015625)"/>
      <path d="M 2709 2863 
L 2709 1128 
Q 2709 631 2732 520 
Q 2756 409 2807 365 
Q 2859 322 2928 322 
Q 3025 322 3147 375 
L 3191 266 
L 2334 -88 
L 2194 -88 
L 2194 519 
Q 1825 119 1631 15 
Q 1438 -88 1222 -88 
Q 981 -88 804 51 
Q 628 191 559 409 
Q 491 628 491 1028 
L 491 2306 
Q 491 2509 447 2587 
Q 403 2666 317 2708 
Q 231 2750 6 2747 
L 6 2863 
L 1009 2863 
L 1009 947 
Q 1009 547 1148 422 
Q 1288 297 1484 297 
Q 1619 297 1789 381 
Q 1959 466 2194 703 
L 2194 2325 
Q 2194 2569 2105 2655 
Q 2016 2741 1734 2747 
L 1734 2863 
L 2709 2863 
z
" id="TimesNewRomanPSMT-75" transform="scale(0.015625)"/>
      <path d="M 3256 -1381 
L -53 -1381 
L -53 -1119 
L 3256 -1119 
L 3256 -1381 
z
" id="TimesNewRomanPSMT-5f" transform="scale(0.015625)"/>
      <path d="M 644 4238 
L 2916 4238 
L 2916 4119 
L 1503 -88 
L 1153 -88 
L 2419 3728 
L 1253 3728 
Q 900 3728 750 3644 
Q 488 3500 328 3200 
L 238 3234 
L 644 4238 
z
" id="TimesNewRomanPSMT-37" transform="scale(0.015625)"/>
     </defs>
     <use xlink:href="#TimesNewRomanPSMT-41"/>
     <use x="72.216797" xlink:href="#TimesNewRomanPSMT-75"/>
     <use x="122.216797" xlink:href="#TimesNewRomanPSMT-74"/>
     <use x="150" xlink:href="#TimesNewRomanPSMT-6f"/>
     <use x="200" xlink:href="#TimesNewRomanPSMT-5f"/>
     <use x="250" xlink:href="#TimesNewRomanPSMT-30"/>
     <use x="300" xlink:href="#TimesNewRomanPSMT-30"/>
     <use x="350" xlink:href="#TimesNewRomanPSMT-31"/>
     <use x="400" xlink:href="#TimesNewRomanPSMT-37"/>
     <use x="450" xlink:href="#TimesNewRomanPSMT-30"/>
    </g>
    <!-- Vs: 309.37m/s -->
    <g transform="translate(80.076875 323.208)scale(0.14 -0.14)">
     <defs>
      <path d="M 903 2950 
Q 1047 2950 1148 2848 
Q 1250 2747 1250 2603 
Q 1250 2459 1148 2357 
Q 1047 2256 903 2256 
Q 759 2256 657 2357 
Q 556 2459 556 2603 
Q 556 2747 657 2848 
Q 759 2950 903 2950 
z
M 897 609 
Q 1044 609 1145 506 
Q 1247 403 1247 259 
Q 1247 116 1144 14 
Q 1041 -88 897 -88 
Q 753 -88 651 14 
Q 550 116 550 259 
Q 550 403 651 506 
Q 753 609 897 609 
z
" id="TimesNewRomanPSMT-3a" transform="scale(0.015625)"/>
      <path d="M 338 -88 
L 338 28 
Q 744 34 1094 217 
Q 1444 400 1770 856 
Q 2097 1313 2225 1859 
Q 1734 1544 1338 1544 
Q 891 1544 572 1889 
Q 253 2234 253 2806 
Q 253 3363 572 3797 
Q 956 4325 1575 4325 
Q 2097 4325 2469 3894 
Q 2925 3359 2925 2575 
Q 2925 1869 2578 1258 
Q 2231 647 1613 244 
Q 1109 -88 516 -88 
L 338 -88 
z
M 2275 2091 
Q 2331 2497 2331 2741 
Q 2331 3044 2228 3395 
Q 2125 3747 1936 3934 
Q 1747 4122 1506 4122 
Q 1228 4122 1018 3872 
Q 809 3622 809 3128 
Q 809 2469 1088 2097 
Q 1291 1828 1588 1828 
Q 1731 1828 1928 1897 
Q 2125 1966 2275 2091 
z
" id="TimesNewRomanPSMT-39" transform="scale(0.015625)"/>
      <path d="M 1794 4444 
L 259 -88 
L 9 -88 
L 1544 4444 
L 1794 4444 
z
" id="TimesNewRomanPSMT-2f" transform="scale(0.015625)"/>
     </defs>
     <use xlink:href="#TimesNewRomanPSMT-56"/>
     <use x="72.216797" xlink:href="#TimesNewRomanPSMT-73"/>
     <use x="111.132812" xlink:href="#TimesNewRomanPSMT-3a"/>
     <use x="138.916016" xlink:href="#TimesNewRomanPSMT-20"/>
     <use x="163.916016" xlink:href="#TimesNewRomanPSMT-33"/>
     <use x="213.916016" xlink:href="#TimesNewRomanPSMT-30"/>
     <use x="263.916016" xlink:href="#TimesNewRomanPSMT-39"/>
     <use x="313.916016" xlink:href="#TimesNewRomanPSMT-2e"/>
     <use x="338.916016" xlink:href="#TimesNewRomanPSMT-33"/>
     <use x="388.916016" xlink:href="#TimesNewRomanPSMT-37"/>
     <use x="438.916016" xlink:href="#TimesNewRomanPSMT-6d"/>
     <use x="516.699219" xlink:href="#TimesNewRomanPSMT-2f"/>
     <use x="544.482422" xlink:href="#TimesNewRomanPSMT-73"/>
    </g>
   </g>
  </g>
 </g>
 <defs>
  <clipPath id="p4a9d1dc0e3">
   <rect height="332.64" width="334.8" x="63.336875" y="7.2"/>
  </clipPath>
 </defs>
</svg>
