<?xml version="1.0" encoding="utf-8" standalone="no"?>
<!DOCTYPE svg PUBLIC "-//W3C//DTD SVG 1.1//EN"
  "http://www.w3.org/Graphics/SVG/1.1/DTD/svg11.dtd">
<svg height="383.471875pt" version="1.1" viewBox="0 0 421.086875 383.471875" width="421.086875pt" xmlns="http://www.w3.org/2000/svg" xmlns:xlink="http://www.w3.org/1999/xlink">
 <metadata>
  <rdf:RDF xmlns:cc="http://creativecommons.org/ns#" xmlns:dc="http://purl.org/dc/elements/1.1/" xmlns:rdf="http://www.w3.org/1999/02/22-rdf-syntax-ns#">
   <cc:Work>
    <dc:type rdf:resource="http://purl.org/dc/dcmitype/StillImage"/>
    <dc:date>2021-06-11T14:39:39.071056</dc:date>
    <dc:format>image/svg+xml</dc:format>
    <dc:creator>
     <cc:Agent>
      <dc:title>Matplotlib v3.4.2, https://matplotlib.org/</dc:title>
     </cc:Agent>
    </dc:creator>
   </cc:Work>
  </rdf:RDF>
 </metadata>
 <defs>
  <style type="text/css">*{stroke-linecap:butt;stroke-linejoin:round;}</style>
 </defs>
 <g id="figure_1">
  <g id="patch_1">
   <path d="M 0 383.471875 
L 421.086875 383.471875 
L 421.086875 0 
L 0 0 
z
" style="fill:#ffffff;"/>
  </g>
  <g id="axes_1">
   <g id="patch_2">
    <path d="M 63.336875 339.84 
L 398.136875 339.84 
L 398.136875 7.2 
L 63.336875 7.2 
z
" style="fill:#ffffff;"/>
   </g>
   <g id="matplotlib.axis_1">
    <g id="xtick_1">
     <g id="line2d_1">
      <path clip-path="url(#p0f5e21a8e9)" d="M 93.773239 339.84 
L 93.773239 7.2 
" style="fill:none;stroke:#000000;stroke-dasharray:0.5,0.825;stroke-dashoffset:0;stroke-width:0.5;"/>
     </g>
     <g id="line2d_2">
      <defs>
       <path d="M 0 0 
L 0 3.5 
" id="m074e8f4b9d" style="stroke:#000000;stroke-width:0.8;"/>
      </defs>
      <g>
       <use style="stroke:#000000;stroke-width:0.8;" x="93.773239" xlink:href="#m074e8f4b9d" y="339.84"/>
      </g>
     </g>
     <g id="text_1">
      <!-- 0.000 -->
      <g transform="translate(78.023239 356.56125)scale(0.14 -0.14)">
       <defs>
        <path d="M 231 2094 
Q 231 2819 450 3342 
Q 669 3866 1031 4122 
Q 1313 4325 1613 4325 
Q 2100 4325 2488 3828 
Q 2972 3213 2972 2159 
Q 2972 1422 2759 906 
Q 2547 391 2217 158 
Q 1888 -75 1581 -75 
Q 975 -75 572 641 
Q 231 1244 231 2094 
z
M 844 2016 
Q 844 1141 1059 588 
Q 1238 122 1591 122 
Q 1759 122 1940 273 
Q 2122 425 2216 781 
Q 2359 1319 2359 2297 
Q 2359 3022 2209 3506 
Q 2097 3866 1919 4016 
Q 1791 4119 1609 4119 
Q 1397 4119 1231 3928 
Q 1006 3669 925 3112 
Q 844 2556 844 2016 
z
" id="TimesNewRomanPSMT-30" transform="scale(0.015625)"/>
        <path d="M 800 606 
Q 947 606 1047 504 
Q 1147 403 1147 259 
Q 1147 116 1045 14 
Q 944 -88 800 -88 
Q 656 -88 554 14 
Q 453 116 453 259 
Q 453 406 554 506 
Q 656 606 800 606 
z
" id="TimesNewRomanPSMT-2e" transform="scale(0.015625)"/>
       </defs>
       <use xlink:href="#TimesNewRomanPSMT-30"/>
       <use x="50" xlink:href="#TimesNewRomanPSMT-2e"/>
       <use x="75" xlink:href="#TimesNewRomanPSMT-30"/>
       <use x="125" xlink:href="#TimesNewRomanPSMT-30"/>
       <use x="175" xlink:href="#TimesNewRomanPSMT-30"/>
      </g>
     </g>
    </g>
    <g id="xtick_2">
     <g id="line2d_3">
      <path clip-path="url(#p0f5e21a8e9)" d="M 154.645966 339.84 
L 154.645966 7.2 
" style="fill:none;stroke:#000000;stroke-dasharray:0.5,0.825;stroke-dashoffset:0;stroke-width:0.5;"/>
     </g>
     <g id="line2d_4">
      <g>
       <use style="stroke:#000000;stroke-width:0.8;" x="154.645966" xlink:href="#m074e8f4b9d" y="339.84"/>
      </g>
     </g>
     <g id="text_2">
      <!-- 0.001 -->
      <g transform="translate(138.895966 356.56125)scale(0.14 -0.14)">
       <defs>
        <path d="M 750 3822 
L 1781 4325 
L 1884 4325 
L 1884 747 
Q 1884 391 1914 303 
Q 1944 216 2037 169 
Q 2131 122 2419 116 
L 2419 0 
L 825 0 
L 825 116 
Q 1125 122 1212 167 
Q 1300 213 1334 289 
Q 1369 366 1369 747 
L 1369 3034 
Q 1369 3497 1338 3628 
Q 1316 3728 1258 3775 
Q 1200 3822 1119 3822 
Q 1003 3822 797 3725 
L 750 3822 
z
" id="TimesNewRomanPSMT-31" transform="scale(0.015625)"/>
       </defs>
       <use xlink:href="#TimesNewRomanPSMT-30"/>
       <use x="50" xlink:href="#TimesNewRomanPSMT-2e"/>
       <use x="75" xlink:href="#TimesNewRomanPSMT-30"/>
       <use x="125" xlink:href="#TimesNewRomanPSMT-30"/>
       <use x="175" xlink:href="#TimesNewRomanPSMT-31"/>
      </g>
     </g>
    </g>
    <g id="xtick_3">
     <g id="line2d_5">
      <path clip-path="url(#p0f5e21a8e9)" d="M 215.518693 339.84 
L 215.518693 7.2 
" style="fill:none;stroke:#000000;stroke-dasharray:0.5,0.825;stroke-dashoffset:0;stroke-width:0.5;"/>
     </g>
     <g id="line2d_6">
      <g>
       <use style="stroke:#000000;stroke-width:0.8;" x="215.518693" xlink:href="#m074e8f4b9d" y="339.84"/>
      </g>
     </g>
     <g id="text_3">
      <!-- 0.002 -->
      <g transform="translate(199.768693 356.56125)scale(0.14 -0.14)">
       <defs>
        <path d="M 2934 816 
L 2638 0 
L 138 0 
L 138 116 
Q 1241 1122 1691 1759 
Q 2141 2397 2141 2925 
Q 2141 3328 1894 3587 
Q 1647 3847 1303 3847 
Q 991 3847 742 3664 
Q 494 3481 375 3128 
L 259 3128 
Q 338 3706 661 4015 
Q 984 4325 1469 4325 
Q 1984 4325 2329 3994 
Q 2675 3663 2675 3213 
Q 2675 2891 2525 2569 
Q 2294 2063 1775 1497 
Q 997 647 803 472 
L 1909 472 
Q 2247 472 2383 497 
Q 2519 522 2628 598 
Q 2738 675 2819 816 
L 2934 816 
z
" id="TimesNewRomanPSMT-32" transform="scale(0.015625)"/>
       </defs>
       <use xlink:href="#TimesNewRomanPSMT-30"/>
       <use x="50" xlink:href="#TimesNewRomanPSMT-2e"/>
       <use x="75" xlink:href="#TimesNewRomanPSMT-30"/>
       <use x="125" xlink:href="#TimesNewRomanPSMT-30"/>
       <use x="175" xlink:href="#TimesNewRomanPSMT-32"/>
      </g>
     </g>
    </g>
    <g id="xtick_4">
     <g id="line2d_7">
      <path clip-path="url(#p0f5e21a8e9)" d="M 276.39142 339.84 
L 276.39142 7.2 
" style="fill:none;stroke:#000000;stroke-dasharray:0.5,0.825;stroke-dashoffset:0;stroke-width:0.5;"/>
     </g>
     <g id="line2d_8">
      <g>
       <use style="stroke:#000000;stroke-width:0.8;" x="276.39142" xlink:href="#m074e8f4b9d" y="339.84"/>
      </g>
     </g>
     <g id="text_4">
      <!-- 0.003 -->
      <g transform="translate(260.64142 356.56125)scale(0.14 -0.14)">
       <defs>
        <path d="M 325 3431 
Q 506 3859 782 4092 
Q 1059 4325 1472 4325 
Q 1981 4325 2253 3994 
Q 2459 3747 2459 3466 
Q 2459 3003 1878 2509 
Q 2269 2356 2469 2072 
Q 2669 1788 2669 1403 
Q 2669 853 2319 450 
Q 1863 -75 997 -75 
Q 569 -75 414 31 
Q 259 138 259 259 
Q 259 350 332 419 
Q 406 488 509 488 
Q 588 488 669 463 
Q 722 447 909 348 
Q 1097 250 1169 231 
Q 1284 197 1416 197 
Q 1734 197 1970 444 
Q 2206 691 2206 1028 
Q 2206 1275 2097 1509 
Q 2016 1684 1919 1775 
Q 1784 1900 1550 2001 
Q 1316 2103 1072 2103 
L 972 2103 
L 972 2197 
Q 1219 2228 1467 2375 
Q 1716 2522 1828 2728 
Q 1941 2934 1941 3181 
Q 1941 3503 1739 3701 
Q 1538 3900 1238 3900 
Q 753 3900 428 3381 
L 325 3431 
z
" id="TimesNewRomanPSMT-33" transform="scale(0.015625)"/>
       </defs>
       <use xlink:href="#TimesNewRomanPSMT-30"/>
       <use x="50" xlink:href="#TimesNewRomanPSMT-2e"/>
       <use x="75" xlink:href="#TimesNewRomanPSMT-30"/>
       <use x="125" xlink:href="#TimesNewRomanPSMT-30"/>
       <use x="175" xlink:href="#TimesNewRomanPSMT-33"/>
      </g>
     </g>
    </g>
    <g id="xtick_5">
     <g id="line2d_9">
      <path clip-path="url(#p0f5e21a8e9)" d="M 337.264148 339.84 
L 337.264148 7.2 
" style="fill:none;stroke:#000000;stroke-dasharray:0.5,0.825;stroke-dashoffset:0;stroke-width:0.5;"/>
     </g>
     <g id="line2d_10">
      <g>
       <use style="stroke:#000000;stroke-width:0.8;" x="337.264148" xlink:href="#m074e8f4b9d" y="339.84"/>
      </g>
     </g>
     <g id="text_5">
      <!-- 0.004 -->
      <g transform="translate(321.514148 356.56125)scale(0.14 -0.14)">
       <defs>
        <path d="M 2978 1563 
L 2978 1119 
L 2409 1119 
L 2409 0 
L 1894 0 
L 1894 1119 
L 100 1119 
L 100 1519 
L 2066 4325 
L 2409 4325 
L 2409 1563 
L 2978 1563 
z
M 1894 1563 
L 1894 3666 
L 406 1563 
L 1894 1563 
z
" id="TimesNewRomanPSMT-34" transform="scale(0.015625)"/>
       </defs>
       <use xlink:href="#TimesNewRomanPSMT-30"/>
       <use x="50" xlink:href="#TimesNewRomanPSMT-2e"/>
       <use x="75" xlink:href="#TimesNewRomanPSMT-30"/>
       <use x="125" xlink:href="#TimesNewRomanPSMT-30"/>
       <use x="175" xlink:href="#TimesNewRomanPSMT-34"/>
      </g>
     </g>
    </g>
    <g id="xtick_6">
     <g id="line2d_11">
      <path clip-path="url(#p0f5e21a8e9)" d="M 398.136875 339.84 
L 398.136875 7.2 
" style="fill:none;stroke:#000000;stroke-dasharray:0.5,0.825;stroke-dashoffset:0;stroke-width:0.5;"/>
     </g>
     <g id="line2d_12">
      <g>
       <use style="stroke:#000000;stroke-width:0.8;" x="398.136875" xlink:href="#m074e8f4b9d" y="339.84"/>
      </g>
     </g>
     <g id="text_6">
      <!-- 0.005 -->
      <g transform="translate(382.386875 356.56125)scale(0.14 -0.14)">
       <defs>
        <path d="M 2778 4238 
L 2534 3706 
L 1259 3706 
L 981 3138 
Q 1809 3016 2294 2522 
Q 2709 2097 2709 1522 
Q 2709 1188 2573 903 
Q 2438 619 2231 419 
Q 2025 219 1772 97 
Q 1413 -75 1034 -75 
Q 653 -75 479 54 
Q 306 184 306 341 
Q 306 428 378 495 
Q 450 563 559 563 
Q 641 563 702 538 
Q 763 513 909 409 
Q 1144 247 1384 247 
Q 1750 247 2026 523 
Q 2303 800 2303 1197 
Q 2303 1581 2056 1914 
Q 1809 2247 1375 2428 
Q 1034 2569 447 2591 
L 1259 4238 
L 2778 4238 
z
" id="TimesNewRomanPSMT-35" transform="scale(0.015625)"/>
       </defs>
       <use xlink:href="#TimesNewRomanPSMT-30"/>
       <use x="50" xlink:href="#TimesNewRomanPSMT-2e"/>
       <use x="75" xlink:href="#TimesNewRomanPSMT-30"/>
       <use x="125" xlink:href="#TimesNewRomanPSMT-30"/>
       <use x="175" xlink:href="#TimesNewRomanPSMT-35"/>
      </g>
     </g>
    </g>
    <g id="text_7">
     <!-- Time (sec) -->
     <g transform="translate(200.858906 373.277188)scale(0.14 -0.14)">
      <defs>
       <path d="M 3703 4238 
L 3750 3244 
L 3631 3244 
Q 3597 3506 3538 3619 
Q 3441 3800 3280 3886 
Q 3119 3972 2856 3972 
L 2259 3972 
L 2259 734 
Q 2259 344 2344 247 
Q 2463 116 2709 116 
L 2856 116 
L 2856 0 
L 1059 0 
L 1059 116 
L 1209 116 
Q 1478 116 1591 278 
Q 1659 378 1659 734 
L 1659 3972 
L 1150 3972 
Q 853 3972 728 3928 
Q 566 3869 450 3700 
Q 334 3531 313 3244 
L 194 3244 
L 244 4238 
L 3703 4238 
z
" id="TimesNewRomanPSMT-54" transform="scale(0.015625)"/>
       <path d="M 928 4444 
Q 1059 4444 1151 4351 
Q 1244 4259 1244 4128 
Q 1244 3997 1151 3903 
Q 1059 3809 928 3809 
Q 797 3809 703 3903 
Q 609 3997 609 4128 
Q 609 4259 701 4351 
Q 794 4444 928 4444 
z
M 1188 2947 
L 1188 647 
Q 1188 378 1227 289 
Q 1266 200 1342 156 
Q 1419 113 1622 113 
L 1622 0 
L 231 0 
L 231 113 
Q 441 113 512 153 
Q 584 194 626 287 
Q 669 381 669 647 
L 669 1750 
Q 669 2216 641 2353 
Q 619 2453 572 2492 
Q 525 2531 444 2531 
Q 356 2531 231 2484 
L 188 2597 
L 1050 2947 
L 1188 2947 
z
" id="TimesNewRomanPSMT-69" transform="scale(0.015625)"/>
       <path d="M 1050 2338 
Q 1363 2650 1419 2697 
Q 1559 2816 1721 2881 
Q 1884 2947 2044 2947 
Q 2313 2947 2506 2790 
Q 2700 2634 2766 2338 
Q 3088 2713 3309 2830 
Q 3531 2947 3766 2947 
Q 3994 2947 4170 2830 
Q 4347 2713 4450 2447 
Q 4519 2266 4519 1878 
L 4519 647 
Q 4519 378 4559 278 
Q 4591 209 4675 161 
Q 4759 113 4950 113 
L 4950 0 
L 3538 0 
L 3538 113 
L 3597 113 
Q 3781 113 3884 184 
Q 3956 234 3988 344 
Q 4000 397 4000 647 
L 4000 1878 
Q 4000 2228 3916 2372 
Q 3794 2572 3525 2572 
Q 3359 2572 3192 2489 
Q 3025 2406 2788 2181 
L 2781 2147 
L 2788 2013 
L 2788 647 
Q 2788 353 2820 281 
Q 2853 209 2943 161 
Q 3034 113 3253 113 
L 3253 0 
L 1806 0 
L 1806 113 
Q 2044 113 2133 169 
Q 2222 225 2256 338 
Q 2272 391 2272 647 
L 2272 1878 
Q 2272 2228 2169 2381 
Q 2031 2581 1784 2581 
Q 1616 2581 1450 2491 
Q 1191 2353 1050 2181 
L 1050 647 
Q 1050 366 1089 281 
Q 1128 197 1204 155 
Q 1281 113 1516 113 
L 1516 0 
L 100 0 
L 100 113 
Q 297 113 375 155 
Q 453 197 493 289 
Q 534 381 534 647 
L 534 1741 
Q 534 2213 506 2350 
Q 484 2453 437 2492 
Q 391 2531 309 2531 
Q 222 2531 100 2484 
L 53 2597 
L 916 2947 
L 1050 2947 
L 1050 2338 
z
" id="TimesNewRomanPSMT-6d" transform="scale(0.015625)"/>
       <path d="M 681 1784 
Q 678 1147 991 784 
Q 1303 422 1725 422 
Q 2006 422 2214 576 
Q 2422 731 2563 1106 
L 2659 1044 
Q 2594 616 2278 264 
Q 1963 -88 1488 -88 
Q 972 -88 605 314 
Q 238 716 238 1394 
Q 238 2128 614 2539 
Q 991 2950 1559 2950 
Q 2041 2950 2350 2633 
Q 2659 2316 2659 1784 
L 681 1784 
z
M 681 1966 
L 2006 1966 
Q 1991 2241 1941 2353 
Q 1863 2528 1708 2628 
Q 1553 2728 1384 2728 
Q 1125 2728 920 2526 
Q 716 2325 681 1966 
z
" id="TimesNewRomanPSMT-65" transform="scale(0.015625)"/>
       <path id="TimesNewRomanPSMT-20" transform="scale(0.015625)"/>
       <path d="M 1988 -1253 
L 1988 -1369 
Q 1516 -1131 1200 -813 
Q 750 -359 506 256 
Q 263 872 263 1534 
Q 263 2503 741 3301 
Q 1219 4100 1988 4444 
L 1988 4313 
Q 1603 4100 1356 3731 
Q 1109 3363 987 2797 
Q 866 2231 866 1616 
Q 866 947 969 400 
Q 1050 -31 1165 -292 
Q 1281 -553 1476 -793 
Q 1672 -1034 1988 -1253 
z
" id="TimesNewRomanPSMT-28" transform="scale(0.015625)"/>
       <path d="M 2050 2947 
L 2050 1972 
L 1947 1972 
Q 1828 2431 1642 2597 
Q 1456 2763 1169 2763 
Q 950 2763 815 2647 
Q 681 2531 681 2391 
Q 681 2216 781 2091 
Q 878 1963 1175 1819 
L 1631 1597 
Q 2266 1288 2266 781 
Q 2266 391 1970 151 
Q 1675 -88 1309 -88 
Q 1047 -88 709 6 
Q 606 38 541 38 
Q 469 38 428 -44 
L 325 -44 
L 325 978 
L 428 978 
Q 516 541 762 319 
Q 1009 97 1316 97 
Q 1531 97 1667 223 
Q 1803 350 1803 528 
Q 1803 744 1651 891 
Q 1500 1038 1047 1263 
Q 594 1488 453 1669 
Q 313 1847 313 2119 
Q 313 2472 555 2709 
Q 797 2947 1181 2947 
Q 1350 2947 1591 2875 
Q 1750 2828 1803 2828 
Q 1853 2828 1881 2850 
Q 1909 2872 1947 2947 
L 2050 2947 
z
" id="TimesNewRomanPSMT-73" transform="scale(0.015625)"/>
       <path d="M 2631 1088 
Q 2516 522 2178 217 
Q 1841 -88 1431 -88 
Q 944 -88 581 321 
Q 219 731 219 1428 
Q 219 2103 620 2525 
Q 1022 2947 1584 2947 
Q 2006 2947 2278 2723 
Q 2550 2500 2550 2259 
Q 2550 2141 2473 2067 
Q 2397 1994 2259 1994 
Q 2075 1994 1981 2113 
Q 1928 2178 1911 2362 
Q 1894 2547 1784 2644 
Q 1675 2738 1481 2738 
Q 1169 2738 978 2506 
Q 725 2200 725 1697 
Q 725 1184 976 792 
Q 1228 400 1656 400 
Q 1963 400 2206 609 
Q 2378 753 2541 1131 
L 2631 1088 
z
" id="TimesNewRomanPSMT-63" transform="scale(0.015625)"/>
       <path d="M 144 4313 
L 144 4444 
Q 619 4209 934 3891 
Q 1381 3434 1625 2820 
Q 1869 2206 1869 1541 
Q 1869 572 1392 -226 
Q 916 -1025 144 -1369 
L 144 -1253 
Q 528 -1038 776 -670 
Q 1025 -303 1145 264 
Q 1266 831 1266 1447 
Q 1266 2113 1163 2663 
Q 1084 3094 967 3353 
Q 850 3613 656 3853 
Q 463 4094 144 4313 
z
" id="TimesNewRomanPSMT-29" transform="scale(0.015625)"/>
      </defs>
      <use xlink:href="#TimesNewRomanPSMT-54"/>
      <use x="57.583984" xlink:href="#TimesNewRomanPSMT-69"/>
      <use x="85.367188" xlink:href="#TimesNewRomanPSMT-6d"/>
      <use x="163.150391" xlink:href="#TimesNewRomanPSMT-65"/>
      <use x="207.535156" xlink:href="#TimesNewRomanPSMT-20"/>
      <use x="232.535156" xlink:href="#TimesNewRomanPSMT-28"/>
      <use x="265.835938" xlink:href="#TimesNewRomanPSMT-73"/>
      <use x="304.751953" xlink:href="#TimesNewRomanPSMT-65"/>
      <use x="349.136719" xlink:href="#TimesNewRomanPSMT-63"/>
      <use x="393.521484" xlink:href="#TimesNewRomanPSMT-29"/>
     </g>
    </g>
   </g>
   <g id="matplotlib.axis_2">
    <g id="ytick_1">
     <g id="line2d_13">
      <path clip-path="url(#p0f5e21a8e9)" d="M 63.336875 278.916055 
L 398.136875 278.916055 
" style="fill:none;stroke:#000000;stroke-dasharray:0.5,0.825;stroke-dashoffset:0;stroke-width:0.5;"/>
     </g>
     <g id="line2d_14">
      <defs>
       <path d="M 0 0 
L -3.5 0 
" id="m7c626ec75e" style="stroke:#000000;stroke-width:0.8;"/>
      </defs>
      <g>
       <use style="stroke:#000000;stroke-width:0.8;" x="63.336875" xlink:href="#m7c626ec75e" y="278.916055"/>
      </g>
     </g>
     <g id="text_8">
      <!-- −0.04 -->
      <g transform="translate(23.942188 283.77668)scale(0.14 -0.14)">
       <defs>
        <path d="M 3484 2000 
L 116 2000 
L 116 2256 
L 3484 2256 
L 3484 2000 
z
" id="TimesNewRomanPSMT-2212" transform="scale(0.015625)"/>
       </defs>
       <use xlink:href="#TimesNewRomanPSMT-2212"/>
       <use x="56.396484" xlink:href="#TimesNewRomanPSMT-30"/>
       <use x="106.396484" xlink:href="#TimesNewRomanPSMT-2e"/>
       <use x="131.396484" xlink:href="#TimesNewRomanPSMT-30"/>
       <use x="181.396484" xlink:href="#TimesNewRomanPSMT-34"/>
      </g>
     </g>
    </g>
    <g id="ytick_2">
     <g id="line2d_15">
      <path clip-path="url(#p0f5e21a8e9)" d="M 63.336875 215.586212 
L 398.136875 215.586212 
" style="fill:none;stroke:#000000;stroke-dasharray:0.5,0.825;stroke-dashoffset:0;stroke-width:0.5;"/>
     </g>
     <g id="line2d_16">
      <g>
       <use style="stroke:#000000;stroke-width:0.8;" x="63.336875" xlink:href="#m7c626ec75e" y="215.586212"/>
      </g>
     </g>
     <g id="text_9">
      <!-- −0.02 -->
      <g transform="translate(23.942188 220.446837)scale(0.14 -0.14)">
       <use xlink:href="#TimesNewRomanPSMT-2212"/>
       <use x="56.396484" xlink:href="#TimesNewRomanPSMT-30"/>
       <use x="106.396484" xlink:href="#TimesNewRomanPSMT-2e"/>
       <use x="131.396484" xlink:href="#TimesNewRomanPSMT-30"/>
       <use x="181.396484" xlink:href="#TimesNewRomanPSMT-32"/>
      </g>
     </g>
    </g>
    <g id="ytick_3">
     <g id="line2d_17">
      <path clip-path="url(#p0f5e21a8e9)" d="M 63.336875 152.256369 
L 398.136875 152.256369 
" style="fill:none;stroke:#000000;stroke-dasharray:0.5,0.825;stroke-dashoffset:0;stroke-width:0.5;"/>
     </g>
     <g id="line2d_18">
      <g>
       <use style="stroke:#000000;stroke-width:0.8;" x="63.336875" xlink:href="#m7c626ec75e" y="152.256369"/>
      </g>
     </g>
     <g id="text_10">
      <!-- 0.00 -->
      <g transform="translate(31.836875 157.116994)scale(0.14 -0.14)">
       <use xlink:href="#TimesNewRomanPSMT-30"/>
       <use x="50" xlink:href="#TimesNewRomanPSMT-2e"/>
       <use x="75" xlink:href="#TimesNewRomanPSMT-30"/>
       <use x="125" xlink:href="#TimesNewRomanPSMT-30"/>
      </g>
     </g>
    </g>
    <g id="ytick_4">
     <g id="line2d_19">
      <path clip-path="url(#p0f5e21a8e9)" d="M 63.336875 88.926526 
L 398.136875 88.926526 
" style="fill:none;stroke:#000000;stroke-dasharray:0.5,0.825;stroke-dashoffset:0;stroke-width:0.5;"/>
     </g>
     <g id="line2d_20">
      <g>
       <use style="stroke:#000000;stroke-width:0.8;" x="63.336875" xlink:href="#m7c626ec75e" y="88.926526"/>
      </g>
     </g>
     <g id="text_11">
      <!-- 0.02 -->
      <g transform="translate(31.836875 93.787151)scale(0.14 -0.14)">
       <use xlink:href="#TimesNewRomanPSMT-30"/>
       <use x="50" xlink:href="#TimesNewRomanPSMT-2e"/>
       <use x="75" xlink:href="#TimesNewRomanPSMT-30"/>
       <use x="125" xlink:href="#TimesNewRomanPSMT-32"/>
      </g>
     </g>
    </g>
    <g id="ytick_5">
     <g id="line2d_21">
      <path clip-path="url(#p0f5e21a8e9)" d="M 63.336875 25.596683 
L 398.136875 25.596683 
" style="fill:none;stroke:#000000;stroke-dasharray:0.5,0.825;stroke-dashoffset:0;stroke-width:0.5;"/>
     </g>
     <g id="line2d_22">
      <g>
       <use style="stroke:#000000;stroke-width:0.8;" x="63.336875" xlink:href="#m7c626ec75e" y="25.596683"/>
      </g>
     </g>
     <g id="text_12">
      <!-- 0.04 -->
      <g transform="translate(31.836875 30.457308)scale(0.14 -0.14)">
       <use xlink:href="#TimesNewRomanPSMT-30"/>
       <use x="50" xlink:href="#TimesNewRomanPSMT-2e"/>
       <use x="75" xlink:href="#TimesNewRomanPSMT-30"/>
       <use x="125" xlink:href="#TimesNewRomanPSMT-34"/>
      </g>
     </g>
    </g>
    <g id="text_13">
     <!-- Volatage (V) -->
     <g transform="translate(16.92125 209.352344)rotate(-90)scale(0.14 -0.14)">
      <defs>
       <path d="M 4544 4238 
L 4544 4122 
Q 4319 4081 4203 3978 
Q 4038 3825 3909 3509 
L 2431 -97 
L 2316 -97 
L 728 3556 
Q 606 3838 556 3900 
Q 478 3997 364 4051 
Q 250 4106 56 4122 
L 56 4238 
L 1788 4238 
L 1788 4122 
Q 1494 4094 1406 4022 
Q 1319 3950 1319 3838 
Q 1319 3681 1463 3350 
L 2541 866 
L 3541 3319 
Q 3688 3681 3688 3822 
Q 3688 3913 3597 3995 
Q 3506 4078 3291 4113 
Q 3275 4116 3238 4122 
L 3238 4238 
L 4544 4238 
z
" id="TimesNewRomanPSMT-56" transform="scale(0.015625)"/>
       <path d="M 1600 2947 
Q 2250 2947 2644 2453 
Q 2978 2031 2978 1484 
Q 2978 1100 2793 706 
Q 2609 313 2286 112 
Q 1963 -88 1566 -88 
Q 919 -88 538 428 
Q 216 863 216 1403 
Q 216 1797 411 2186 
Q 606 2575 925 2761 
Q 1244 2947 1600 2947 
z
M 1503 2744 
Q 1338 2744 1170 2645 
Q 1003 2547 900 2300 
Q 797 2053 797 1666 
Q 797 1041 1045 587 
Q 1294 134 1700 134 
Q 2003 134 2200 384 
Q 2397 634 2397 1244 
Q 2397 2006 2069 2444 
Q 1847 2744 1503 2744 
z
" id="TimesNewRomanPSMT-6f" transform="scale(0.015625)"/>
       <path d="M 1184 4444 
L 1184 647 
Q 1184 378 1223 290 
Q 1263 203 1344 158 
Q 1425 113 1647 113 
L 1647 0 
L 244 0 
L 244 113 
Q 441 113 512 153 
Q 584 194 625 287 
Q 666 381 666 647 
L 666 3247 
Q 666 3731 644 3842 
Q 622 3953 573 3993 
Q 525 4034 450 4034 
Q 369 4034 244 3984 
L 191 4094 
L 1044 4444 
L 1184 4444 
z
" id="TimesNewRomanPSMT-6c" transform="scale(0.015625)"/>
       <path d="M 1822 413 
Q 1381 72 1269 19 
Q 1100 -59 909 -59 
Q 613 -59 420 144 
Q 228 347 228 678 
Q 228 888 322 1041 
Q 450 1253 767 1440 
Q 1084 1628 1822 1897 
L 1822 2009 
Q 1822 2438 1686 2597 
Q 1550 2756 1291 2756 
Q 1094 2756 978 2650 
Q 859 2544 859 2406 
L 866 2225 
Q 866 2081 792 2003 
Q 719 1925 600 1925 
Q 484 1925 411 2006 
Q 338 2088 338 2228 
Q 338 2497 613 2722 
Q 888 2947 1384 2947 
Q 1766 2947 2009 2819 
Q 2194 2722 2281 2516 
Q 2338 2381 2338 1966 
L 2338 994 
Q 2338 584 2353 492 
Q 2369 400 2405 369 
Q 2441 338 2488 338 
Q 2538 338 2575 359 
Q 2641 400 2828 588 
L 2828 413 
Q 2478 -56 2159 -56 
Q 2006 -56 1915 50 
Q 1825 156 1822 413 
z
M 1822 616 
L 1822 1706 
Q 1350 1519 1213 1441 
Q 966 1303 859 1153 
Q 753 1003 753 825 
Q 753 600 887 451 
Q 1022 303 1197 303 
Q 1434 303 1822 616 
z
" id="TimesNewRomanPSMT-61" transform="scale(0.015625)"/>
       <path d="M 1031 3803 
L 1031 2863 
L 1700 2863 
L 1700 2644 
L 1031 2644 
L 1031 788 
Q 1031 509 1111 412 
Q 1191 316 1316 316 
Q 1419 316 1516 380 
Q 1613 444 1666 569 
L 1788 569 
Q 1678 263 1478 108 
Q 1278 -47 1066 -47 
Q 922 -47 784 33 
Q 647 113 581 261 
Q 516 409 516 719 
L 516 2644 
L 63 2644 
L 63 2747 
Q 234 2816 414 2980 
Q 594 3144 734 3369 
Q 806 3488 934 3803 
L 1031 3803 
z
" id="TimesNewRomanPSMT-74" transform="scale(0.015625)"/>
       <path d="M 966 1044 
Q 703 1172 562 1401 
Q 422 1631 422 1909 
Q 422 2334 742 2640 
Q 1063 2947 1563 2947 
Q 1972 2947 2272 2747 
L 2878 2747 
Q 3013 2747 3034 2739 
Q 3056 2731 3066 2713 
Q 3084 2684 3084 2613 
Q 3084 2531 3069 2500 
Q 3059 2484 3036 2475 
Q 3013 2466 2878 2466 
L 2506 2466 
Q 2681 2241 2681 1891 
Q 2681 1491 2375 1206 
Q 2069 922 1553 922 
Q 1341 922 1119 984 
Q 981 866 932 777 
Q 884 688 884 625 
Q 884 572 936 522 
Q 988 472 1138 450 
Q 1225 438 1575 428 
Q 2219 413 2409 384 
Q 2700 344 2873 169 
Q 3047 -6 3047 -263 
Q 3047 -616 2716 -925 
Q 2228 -1381 1444 -1381 
Q 841 -1381 425 -1109 
Q 191 -953 191 -784 
Q 191 -709 225 -634 
Q 278 -519 444 -313 
Q 466 -284 763 25 
Q 600 122 533 198 
Q 466 275 466 372 
Q 466 481 555 628 
Q 644 775 966 1044 
z
M 1509 2797 
Q 1278 2797 1122 2612 
Q 966 2428 966 2047 
Q 966 1553 1178 1281 
Q 1341 1075 1591 1075 
Q 1828 1075 1981 1253 
Q 2134 1431 2134 1813 
Q 2134 2309 1919 2591 
Q 1759 2797 1509 2797 
z
M 934 0 
Q 788 -159 713 -296 
Q 638 -434 638 -550 
Q 638 -700 819 -813 
Q 1131 -1006 1722 -1006 
Q 2284 -1006 2551 -807 
Q 2819 -609 2819 -384 
Q 2819 -222 2659 -153 
Q 2497 -84 2016 -72 
Q 1313 -53 934 0 
z
" id="TimesNewRomanPSMT-67" transform="scale(0.015625)"/>
      </defs>
      <use xlink:href="#TimesNewRomanPSMT-56"/>
      <use x="59.341797" xlink:href="#TimesNewRomanPSMT-6f"/>
      <use x="109.341797" xlink:href="#TimesNewRomanPSMT-6c"/>
      <use x="137.125" xlink:href="#TimesNewRomanPSMT-61"/>
      <use x="181.509766" xlink:href="#TimesNewRomanPSMT-74"/>
      <use x="209.292969" xlink:href="#TimesNewRomanPSMT-61"/>
      <use x="253.677734" xlink:href="#TimesNewRomanPSMT-67"/>
      <use x="303.677734" xlink:href="#TimesNewRomanPSMT-65"/>
      <use x="348.0625" xlink:href="#TimesNewRomanPSMT-20"/>
      <use x="373.0625" xlink:href="#TimesNewRomanPSMT-28"/>
      <use x="406.363281" xlink:href="#TimesNewRomanPSMT-56"/>
      <use x="478.580078" xlink:href="#TimesNewRomanPSMT-29"/>
     </g>
    </g>
   </g>
   <g id="LineCollection_1">
    <path clip-path="url(#p0f5e21a8e9)" d="M 78.555057 152.256369 
L 382.918693 152.256369 
" style="fill:none;stroke:#1f77b4;stroke-width:1.5;"/>
   </g>
   <g id="line2d_23">
    <path clip-path="url(#p0f5e21a8e9)" d="M 78.555057 152.146175 
L 78.646366 152.225337 
L 78.676802 152.185756 
L 78.828984 152.225337 
L 85.433675 152.304499 
L 85.55542 152.304499 
L 88.99473 152.383662 
L 89.116475 152.383662 
L 89.268657 152.304499 
L 89.390402 152.383662 
L 89.420839 152.304499 
L 89.512148 152.344081 
L 94.321093 152.264918 
L 94.35153 152.225337 
L 94.412402 152.304499 
L 103.117202 152.383662 
L 103.147639 152.423243 
L 103.208511 152.344081 
L 103.238948 152.304499 
L 103.29982 152.383662 
L 110.452366 152.423243 
L 110.482802 152.502405 
L 110.543675 152.462824 
L 110.66542 152.462824 
L 110.75673 152.541986 
L 110.848039 152.462824 
L 110.878475 152.502405 
L 111.030657 152.541986 
L 111.943748 152.621149 
L 112.09593 152.66073 
L 112.187239 152.621149 
L 112.217675 152.66073 
L 112.33942 152.66073 
L 112.67422 152.739892 
L 112.856839 152.819054 
L 112.978584 152.779473 
L 113.130766 152.819054 
L 113.465566 152.898217 
L 113.617748 152.937798 
L 113.739493 152.898217 
L 113.891675 152.937798 
L 114.226475 153.01696 
L 114.378657 153.056541 
L 114.500402 153.056541 
L 114.68302 153.135704 
L 114.804766 153.135704 
L 115.01782 153.254447 
L 115.322184 153.333609 
L 115.504802 153.412772 
L 115.748293 153.452353 
L 115.77873 153.531515 
L 115.870039 153.491934 
L 116.052657 153.571096 
L 116.265711 153.68984 
L 116.417893 153.650259 
L 116.539639 153.729421 
L 116.996184 153.808583 
L 117.178802 153.887746 
L 117.574475 153.966908 
L 117.757093 154.04607 
L 117.878839 154.04607 
L 118.304948 154.125232 
L 118.426693 154.125232 
L 118.639748 154.204395 
L 118.79193 154.243976 
L 119.03542 154.323138 
L 119.218039 154.4023 
L 119.491966 154.441882 
L 119.644148 154.600206 
L 119.735457 154.560625 
L 119.765893 154.600206 
L 119.948511 154.679369 
L 120.13113 154.758531 
L 120.283311 154.837693 
L 120.557239 155.035599 
L 120.587675 154.996018 
L 120.618111 155.114761 
L 120.648548 155.07518 
L 121.04422 155.43141 
L 121.105093 155.510573 
L 122.566039 157.568793 
L 122.839966 158.202091 
L 122.870402 158.16251 
L 122.900839 158.241672 
L 123.083457 158.716646 
L 123.205202 158.993714 
L 123.47913 159.627013 
L 124.331348 162.120625 
L 125.244439 165.287117 
L 125.305311 165.524604 
L 126.766257 171.659683 
L 127.192366 173.717902 
L 127.618475 175.815703 
L 128.044584 177.913504 
L 128.562002 180.367536 
L 129.444657 184.444396 
L 129.627275 185.156857 
L 129.962075 186.621358 
L 131.270839 191.291934 
L 132.336111 193.785547 
L 132.42742 193.864709 
L 132.76222 194.141777 
L 133.005711 194.220939 
L 133.127457 194.220939 
L 133.310075 194.141777 
L 133.370948 194.102196 
L 133.553566 193.90429 
L 134.314475 192.756437 
L 134.77102 191.84607 
L 134.923202 191.48984 
L 135.349311 190.262824 
L 135.744984 188.956646 
L 137.11462 181.317485 
L 139.21473 164.099683 
L 142.045311 129.703662 
L 146.82382 62.890677 
L 148.893493 39.854444 
L 150.689239 26.713505 
L 151.054475 25.051093 
L 151.480584 23.824084 
L 151.906693 22.992873 
L 151.93713 22.992873 
L 152.119748 22.636643 
L 152.18062 22.597065 
L 152.363239 22.399162 
L 152.94153 22.478328 
L 153.550257 23.428266 
L 154.61553 27.980098 
L 155.589493 35.025547 
L 156.167784 40.52733 
L 156.53302 44.247952 
L 157.841784 60.792876 
L 158.694002 74.56712 
L 159.941893 97.484604 
L 163.198584 167.503662 
L 166.24222 236.216541 
L 168.098839 272.591617 
L 170.077202 301.802507 
L 171.112039 312.647749 
L 172.299057 321.118118 
L 173.27302 324.482507 
L 173.425202 324.60126 
L 173.638257 324.680409 
L 173.790439 324.72 
L 174.125239 324.680409 
L 174.27742 324.482507 
L 174.307857 324.522094 
L 174.338293 324.442932 
L 174.61222 323.967949 
L 175.129639 322.384712 
L 175.494875 321.157693 
L 176.012293 318.703655 
L 176.499275 315.616332 
L 178.355893 300.29842 
L 179.29942 289.33445 
L 180.39513 275.24356 
L 181.582148 258.381986 
L 182.73873 240.253819 
L 183.804002 221.927746 
L 187.821602 155.866803 
L 189.252111 135.245023 
L 192.752293 91.15162 
L 193.939311 79.831414 
L 194.061057 78.960625 
L 194.913275 72.192245 
L 197.196002 55.211934 
L 197.682984 52.12461 
L 198.04822 50.422608 
L 198.261275 49.630995 
L 198.900439 46.820727 
L 199.113493 46.029104 
L 199.356984 45.277065 
L 199.47873 44.960413 
L 199.904839 43.575079 
L 200.300511 42.070992 
L 200.878802 40.804398 
L 200.939675 40.725232 
L 201.609275 39.260736 
L 201.883202 39.062821 
L 202.583239 39.023246 
L 202.73542 38.904506 
L 203.283275 38.983659 
L 203.465893 39.181571 
L 203.557202 39.260736 
L 203.83113 39.458639 
L 203.952875 39.419051 
L 204.16593 39.537801 
L 204.318111 39.616954 
L 204.592039 40.05235 
L 204.774657 40.448168 
L 205.200766 41.318956 
L 205.261639 41.398106 
L 205.474693 41.793924 
L 208.000911 48.641469 
L 210.222766 57.745128 
L 210.77062 60.040831 
L 211.683711 64.038531 
L 213.936002 76.269107 
L 216.523093 97.326276 
L 218.988439 120.758321 
L 221.027675 143.082091 
L 221.81902 151.948269 
L 222.427748 159.429107 
L 223.645202 174.944918 
L 228.27153 233.722929 
L 228.910693 241.480838 
L 229.428111 247.41801 
L 230.128148 254.780105 
L 230.767311 261.033927 
L 232.776111 275.837281 
L 234.024002 281.774447 
L 234.510984 283.318109 
L 234.54142 283.318109 
L 234.724039 283.674339 
L 234.754475 283.634764 
L 234.815348 283.713927 
L 235.089275 283.951407 
L 235.180584 283.951407 
L 235.332766 284.109732 
L 235.454511 284.149323 
L 235.576257 284.26806 
L 235.606693 284.188897 
L 235.698002 284.228472 
L 235.850184 284.149323 
L 237.158948 280.468266 
L 237.463311 278.845439 
L 239.167748 267.129421 
L 239.502548 264.477481 
L 240.141711 258.659051 
L 241.57222 242.70785 
L 242.089639 236.335282 
L 243.307093 220.502824 
L 244.463675 205.739054 
L 247.416002 161.92272 
L 249.211748 135.601253 
L 250.490075 118.858426 
L 251.981457 102.669735 
L 252.651057 96.851309 
L 253.95982 87.510157 
L 255.359893 80.781358 
L 256.425166 77.060733 
L 256.851275 76.189944 
L 256.97302 76.110782 
L 257.612184 75.358737 
L 257.64262 75.437903 
L 257.703493 75.358737 
L 258.586148 75.279581 
L 258.799202 75.160835 
L 258.920948 75.121253 
L 258.951384 75.042088 
L 259.012257 75.121253 
L 259.347057 75.200416 
L 259.468802 75.200416 
L 260.229711 75.279581 
L 260.41233 75.398318 
L 260.473202 75.358737 
L 260.503639 75.437903 
L 260.838439 75.754549 
L 260.868875 75.714967 
L 260.929748 75.794133 
L 260.99062 75.873295 
L 261.873275 77.179473 
L 263.364657 81.29591 
L 263.729893 82.641675 
L 264.00382 83.631204 
L 265.43433 89.647533 
L 267.290948 99.859473 
L 268.02142 104.688374 
L 270.425893 121.03539 
L 272.617311 137.263662 
L 274.565239 149.21717 
L 275.904439 155.629316 
L 277.943675 163.149735 
L 278.521966 164.930887 
L 278.917639 166.07874 
L 279.06982 166.39539 
L 279.343748 167.028688 
L 279.526366 167.4245 
L 280.07422 168.572353 
L 280.135093 168.651516 
L 280.439457 169.16607 
L 280.50033 169.245233 
L 282.143893 171.22429 
L 282.265639 171.303452 
L 282.41782 171.461776 
L 282.539566 171.540939 
L 282.661311 171.659683 
L 282.783057 171.659683 
L 283.909202 171.58052 
L 284.213566 171.343034 
L 284.365748 171.263872 
L 284.822293 170.828479 
L 284.913602 170.749317 
L 285.978875 169.245233 
L 286.19193 168.84942 
L 286.648475 167.939055 
L 286.891966 167.46408 
L 287.622439 165.841254 
L 287.957239 165.247536 
L 288.292039 164.653819 
L 288.322475 164.653819 
L 288.53553 164.218426 
L 288.596402 164.178845 
L 288.900766 163.66429 
L 288.961639 163.585128 
L 289.235566 163.387222 
L 289.418184 163.30806 
L 289.600802 163.228898 
L 289.722548 163.149735 
L 289.966039 162.99141 
L 290.057348 162.99141 
L 290.20953 162.951829 
L 290.422584 163.030991 
L 290.818257 163.466384 
L 290.848693 163.387222 
L 290.909566 163.505965 
L 290.940002 163.466384 
L 290.970439 163.545546 
L 291.183493 163.822615 
L 291.274802 163.862196 
L 291.670475 164.653819 
L 291.700911 164.653819 
L 292.066148 165.72251 
L 292.096584 165.72251 
L 292.46182 166.712039 
L 292.979239 168.295285 
L 293.314039 169.522301 
L 293.679275 170.709735 
L 293.983639 171.778426 
L 294.196693 172.60963 
L 298.031675 187.175494 
L 298.15342 187.492143 
L 298.670839 189.114971 
L 298.792584 189.43162 
L 299.096948 190.183662 
L 299.462184 190.81696 
L 300.283966 192.677274 
L 301.775348 194.458426 
L 301.866657 194.458426 
L 302.079711 194.616751 
L 302.140584 194.57717 
L 302.17102 194.616751 
L 302.627566 195.091725 
L 302.658002 195.052143 
L 302.718875 195.131306 
L 302.871057 195.210468 
L 303.084111 195.368793 
L 303.205857 195.368793 
L 303.479784 195.447955 
L 303.662402 195.527117 
L 303.784148 195.527117 
L 304.423311 195.487536 
L 304.60593 195.250049 
L 304.697239 195.170887 
L 304.879857 194.9334 
L 304.94073 194.893819 
L 305.123348 194.656332 
L 305.153784 194.695913 
L 305.214657 194.616751 
L 306.066875 193.350154 
L 306.371239 192.558531 
L 306.584293 192.123138 
L 306.979966 191.014866 
L 307.253893 190.025337 
L 309.20182 182.029946 
L 309.719239 179.378008 
L 310.814948 173.163767 
L 312.154148 163.545546 
L 312.367202 161.92272 
L 313.036802 156.77717 
L 314.193384 148.54429 
L 315.928257 135.878322 
L 316.506548 132.355599 
L 317.054402 128.951619 
L 317.450075 126.972564 
L 319.884984 114.821149 
L 320.037166 114.18785 
L 320.463275 112.525442 
L 321.711166 108.092353 
L 322.045966 106.984081 
L 322.35033 105.91539 
L 322.472075 105.59874 
L 322.989493 104.015494 
L 323.35473 102.828063 
L 323.68953 101.640625 
L 324.26782 99.819892 
L 325.667893 96.455494 
L 326.398366 95.663871 
L 326.885348 95.62429 
L 326.915784 95.545125 
L 327.007093 95.584706 
L 327.159275 95.62429 
L 327.524511 95.703452 
L 327.828875 95.940936 
L 327.859311 95.901355 
L 327.920184 95.98052 
L 328.346293 96.415913 
L 328.37673 96.376332 
L 328.437602 96.455494 
L 328.681093 96.811725 
L 329.076766 97.484604 
L 329.411566 98.355386 
L 329.533311 98.632461 
L 330.202911 100.809418 
L 330.476839 101.798953 
L 330.96382 103.778007 
L 331.146439 104.490468 
L 331.602984 106.350782 
L 331.663857 106.548688 
L 332.790002 111.338007 
L 333.155239 113.039997 
L 333.581348 115.137798 
L 334.098766 117.789735 
L 338.451166 140.905127 
L 338.725093 142.567536 
L 338.816402 143.002929 
L 339.486002 146.723557 
L 339.577311 147.238112 
L 339.881675 148.821358 
L 340.368657 151.27539 
L 340.520839 151.948269 
L 341.129566 154.71895 
L 341.494802 156.381358 
L 342.43833 160.458216 
L 342.77313 161.92272 
L 342.834002 162.120625 
L 343.260111 163.783033 
L 344.477566 168.097379 
L 346.760293 174.311621 
L 347.03422 175.182406 
L 347.155966 175.459473 
L 347.490766 176.36984 
L 347.673384 176.765651 
L 348.312548 178.190573 
L 348.37342 178.269735 
L 348.647348 178.744709 
L 348.738657 178.823871 
L 348.951711 179.100938 
L 350.38222 180.80293 
L 350.443093 180.882091 
L 351.082257 181.55497 
L 351.204002 181.594552 
L 351.325748 181.713294 
L 351.417057 181.713294 
L 351.599675 181.792458 
L 351.843166 181.83204 
L 351.873602 181.9112 
L 351.934475 181.83204 
L 352.573639 181.752876 
L 352.695384 181.673715 
L 352.878002 181.594552 
L 353.06062 181.515388 
L 353.273675 181.436228 
L 353.517166 181.277903 
L 353.699784 181.198739 
L 353.943275 181.040415 
L 354.06502 181.000833 
L 354.125893 180.921673 
L 354.186766 180.961254 
L 354.430257 180.80293 
L 354.643311 180.723766 
L 354.82593 180.644603 
L 355.06942 180.565442 
L 355.221602 180.52586 
L 355.556402 180.4467 
L 355.678148 180.407118 
L 355.799893 180.4467 
L 355.921639 180.407118 
L 356.043384 180.407118 
L 356.439057 180.4467 
L 356.469493 180.52586 
L 356.560802 180.486279 
L 356.652111 180.486279 
L 356.74342 180.605024 
L 356.773857 180.52586 
L 356.865166 180.52586 
L 356.956475 180.605024 
L 356.986911 180.52586 
L 357.260839 180.565442 
L 357.382584 180.644603 
L 357.686948 180.684185 
L 357.74782 180.763348 
L 357.808693 180.723766 
L 357.960875 180.763348 
L 358.08262 180.763348 
L 358.295675 180.723766 
L 358.41742 180.605024 
L 358.600039 180.684185 
L 358.75222 180.644603 
L 359.269639 180.565442 
L 359.391384 180.4467 
L 359.51313 180.4467 
L 359.695748 180.327954 
L 359.787057 180.367536 
L 359.817493 180.327954 
L 360.304475 180.248794 
L 360.51753 180.130048 
L 360.578402 180.090469 
L 360.76102 179.892563 
L 361.18713 179.496751 
L 361.308875 179.41759 
L 362.313275 177.953086 
L 362.52633 177.636436 
L 362.556766 177.636436 
L 362.739384 177.319787 
L 362.800257 177.240625 
L 363.013311 176.805232 
L 363.43942 175.934447 
L 363.500293 175.894865 
L 363.713348 175.459473 
L 364.017711 174.905337 
L 364.413384 174.153295 
L 365.813457 172.174237 
L 366.026511 171.897169 
L 366.848293 170.986803 
L 366.909166 170.947222 
L 367.030911 170.868059 
L 367.091784 170.788897 
L 367.45702 170.472248 
L 367.517893 170.393086 
L 367.88313 170.076436 
L 367.974439 170.036856 
L 368.096184 169.957694 
L 368.187493 169.957694 
L 368.46142 169.759788 
L 368.55273 169.720206 
L 368.704911 169.561881 
L 368.79622 169.522301 
L 368.948402 169.324395 
L 369.13102 169.245233 
L 369.313639 169.16607 
L 369.496257 169.086908 
L 369.709311 169.007746 
L 369.861493 168.84942 
L 369.89193 168.889002 
L 369.952802 168.80984 
L 370.439784 168.334866 
L 370.622402 168.255703 
L 370.835457 167.978635 
L 370.865893 168.018217 
L 370.926766 167.939055 
L 371.13982 167.661986 
L 371.90073 166.830783 
L 371.992039 166.751619 
L 374.366075 163.545546 
L 374.57913 163.110154 
L 374.853057 162.595599 
L 377.83582 154.560625 
L 378.353239 152.977379 
L 379.022839 150.95874 
L 379.814184 148.306803 
L 380.118548 147.238112 
L 382.918693 136.432457 
L 382.918693 136.432457 
" style="fill:none;stroke:#0000ff;stroke-linecap:square;stroke-width:1.5;"/>
   </g>
   <g id="line2d_24">
    <path clip-path="url(#p0f5e21a8e9)" d="M 78.555057 152.323815 
L 78.737675 152.343606 
L 78.889857 152.323815 
L 82.359602 152.224862 
L 82.54222 152.224862 
L 100.438802 152.323815 
L 101.778002 153.293553 
L 102.143239 153.768527 
L 102.72153 154.698684 
L 103.29982 155.905909 
L 103.695493 156.915229 
L 104.517275 159.349469 
L 105.339057 162.397218 
L 110.148002 183.77104 
L 110.33062 184.364756 
L 112.035057 188.520778 
L 112.978584 189.569679 
L 113.161202 189.589469 
L 113.34382 189.510307 
L 113.556875 189.431145 
L 113.830802 189.233239 
L 113.922111 189.154077 
L 114.622148 188.085386 
L 115.656984 185.097009 
L 117.11793 177.932819 
L 117.970148 172.332087 
L 121.196402 146.30748 
L 125.366184 109.338684 
L 126.06622 104.747271 
L 127.40542 97.563288 
L 127.83153 95.465487 
L 128.805493 91.507375 
L 129.109857 90.41889 
L 129.535966 89.172084 
L 130.114257 88.281508 
L 130.996911 87.291979 
L 131.727384 87.19303 
L 132.001311 86.896168 
L 132.336111 86.480569 
L 132.579602 86.342035 
L 132.914402 86.440985 
L 133.218766 86.559731 
L 133.340511 86.559731 
L 133.949239 86.658684 
L 134.284039 86.995127 
L 134.831893 87.569054 
L 134.984075 87.588841 
L 135.136257 87.588841 
L 135.318875 87.588841 
L 135.684111 87.885703 
L 135.836293 88.103399 
L 136.53633 88.835648 
L 137.084184 89.310624 
L 137.358111 89.785595 
L 137.601602 90.300153 
L 138.45382 92.200045 
L 139.21473 95.604021 
L 140.401748 101.521407 
L 141.862693 109.675124 
L 144.662839 130.494809 
L 147.462984 153.214391 
L 150.050075 175.795438 
L 150.476184 179.61502 
L 151.998002 191.568527 
L 153.367639 200.573239 
L 154.493784 205.877113 
L 155.437311 209.142558 
L 155.86342 209.953969 
L 156.898257 211.141407 
L 157.080875 211.141407 
L 157.659166 211.042457 
L 158.20702 210.587267 
L 158.663566 209.696698 
L 158.998366 209.083187 
L 160.520184 205.896901 
L 162.802911 198.138998 
L 163.776875 193.646538 
L 164.355166 190.499836 
L 165.420439 184.918894 
L 167.855348 172.76748 
L 169.468475 168.868737 
L 169.894584 168.492715 
L 170.533748 168.195858 
L 171.051166 168.65104 
L 171.629457 169.561407 
L 171.781639 169.759313 
L 172.299057 170.966538 
L 173.212148 174.093449 
L 173.69913 176.013135 
L 174.581784 180.050411 
L 175.068766 182.3857 
L 176.803639 193.191354 
L 177.594984 198.5546 
L 177.929784 200.850307 
L 179.847275 213.832925 
L 181.06473 218.859734 
L 181.97782 222.026227 
L 182.434366 223.154286 
L 182.860475 224.183396 
L 183.347457 224.658373 
L 184.138802 224.025068 
L 184.869275 222.382457 
L 185.32582 220.561721 
L 186.178039 215.614077 
L 187.365057 205.481302 
L 188.369457 194.655857 
L 190.286948 169.620778 
L 191.626148 147.950098 
L 194.03062 110.664653 
L 195.339384 91.922977 
L 197.013384 72.587585 
L 198.71782 57.012401 
L 199.265675 52.73764 
L 200.178766 45.929685 
L 201.274475 39.517535 
L 201.73102 37.914493 
L 202.857166 35.282346 
L 204.044184 34.629254 
L 204.287675 34.7678 
L 204.470293 35.005278 
L 204.774657 35.559411 
L 205.41382 37.4791 
L 206.022548 40.744542 
L 207.361748 49.214911 
L 208.153093 54.538579 
L 208.548766 57.131145 
L 210.557566 72.251148 
L 211.288039 77.91125 
L 211.988075 83.690101 
L 212.962039 91.586541 
L 214.605602 104.133763 
L 220.205893 147.00015 
L 221.453784 154.955962 
L 223.188657 165.524129 
L 226.475784 184.127271 
L 228.51502 192.894496 
L 230.310766 198.356695 
L 232.106511 202.097113 
L 232.95873 204.016796 
L 233.719639 205.738579 
L 235.97193 211.299728 
L 236.732839 212.546534 
L 238.376402 214.525598 
L 238.55902 214.624548 
L 238.89382 214.723501 
L 239.106875 214.703713 
L 239.715602 214.624548 
L 239.867784 214.565179 
L 240.019966 214.545386 
L 240.23302 214.525598 
L 240.446075 214.545386 
L 241.146111 214.644335 
L 241.480911 214.743295 
L 241.99833 214.842244 
L 242.363566 214.980778 
L 242.485311 215.02036 
L 242.698366 215.099525 
L 242.941857 215.238059 
L 243.489711 215.71303 
L 244.128875 216.722349 
L 244.554984 217.43481 
L 245.498511 219.591983 
L 246.715966 222.204342 
L 247.142075 223.015752 
L 247.507311 223.668838 
L 247.902984 224.42088 
L 247.994293 224.579208 
L 248.572584 225.469784 
L 249.02913 225.865598 
L 249.242184 226.043713 
L 249.36393 226.122869 
L 249.69873 226.38015 
L 249.94222 226.4791 
L 250.155275 226.498894 
L 250.429202 226.439519 
L 251.311857 226.340569 
L 252.468439 224.678161 
L 253.168475 222.560572 
L 254.355493 217.513975 
L 255.329457 211.913239 
L 256.759966 200.889888 
L 257.794802 191.251878 
L 259.31662 174.291355 
L 261.812402 140.409888 
L 266.651784 69.698157 
L 267.656184 57.447794 
L 268.843202 45.533867 
L 269.78673 37.894711 
L 270.45633 34.193871 
L 271.643348 29.958681 
L 271.947711 29.384754 
L 272.404257 28.711881 
L 272.739057 28.593128 
L 273.499966 29.206645 
L 273.956511 29.958681 
L 274.47393 31.581508 
L 275.660948 37.4791 
L 276.269675 41.674702 
L 278.40022 59.169577 
L 280.287275 78.643504 
L 282.41782 102.313033 
L 283.787457 117.710098 
L 286.587602 147.435543 
L 290.818257 187.610412 
L 293.100984 204.570935 
L 294.105384 210.409152 
L 295.261966 215.178681 
L 295.90113 217.118164 
L 296.418548 218.701407 
L 297.088148 220.502352 
L 298.062111 222.164757 
L 298.518657 222.619941 
L 298.640402 222.639728 
L 298.792584 222.699106 
L 298.91433 222.718894 
L 299.188257 222.778262 
L 299.91873 222.679309 
L 300.283966 222.323079 
L 300.679639 221.768946 
L 300.83182 221.55125 
L 301.197057 220.917951 
L 302.810184 216.465072 
L 303.875457 211.141407 
L 304.971166 203.324129 
L 309.506184 168.789575 
L 310.358402 163.782558 
L 311.058439 159.943187 
L 311.819348 155.965281 
L 312.54982 152.343606 
L 313.097675 149.790621 
L 314.467311 143.22015 
L 314.710802 142.092087 
L 315.441275 138.866223 
L 316.689166 134.433134 
L 318.393602 129.248004 
L 319.154511 127.526224 
L 319.763239 125.903396 
L 320.524148 124.201407 
L 320.980693 122.835858 
L 321.802475 120.995333 
L 322.045966 120.500569 
L 322.806875 118.81837 
L 323.26342 118.046538 
L 323.841711 116.819522 
L 324.02433 116.40392 
L 324.876548 114.523815 
L 326.215748 110.526119 
L 326.550548 109.655333 
L 326.885348 108.764757 
L 327.768002 106.825281 
L 328.072366 106.053449 
L 329.076766 103.718161 
L 329.350693 103.183815 
L 329.655057 102.550517 
L 330.598584 100.927693 
L 330.659457 100.868314 
L 331.05513 100.333969 
L 331.542111 99.878789 
L 332.272584 99.522558 
L 332.455202 99.522558 
L 333.094366 99.601721 
L 333.276984 99.661089 
L 334.31182 100.452716 
L 334.829239 101.30371 
L 335.498839 102.748419 
L 335.864075 103.69837 
L 337.720693 108.824129 
L 338.846839 112.861407 
L 339.66862 116.502873 
L 340.703457 121.727585 
L 341.616548 126.952297 
L 343.473166 138.470412 
L 345.329784 152.541511 
L 347.79513 172.450831 
L 348.434293 177.299522 
L 350.412657 191.904967 
L 351.325748 197.881721 
L 351.934475 201.820045 
L 352.299711 203.997009 
L 353.48673 210.290412 
L 354.856366 216.009888 
L 355.191166 217.177532 
L 355.891202 219.49303 
L 356.591239 221.036691 
L 356.804293 221.293972 
L 357.16953 221.610618 
L 357.352148 221.689784 
L 357.565202 221.788733 
L 357.778257 221.768946 
L 357.991311 221.669996 
L 358.17393 221.531462 
L 358.873966 220.957535 
L 359.604439 219.295121 
L 360.18273 217.058786 
L 361.248002 211.69554 
L 363.378548 198.574391 
L 364.596002 189.074915 
L 366.696111 171.857114 
L 367.730948 162.238894 
L 369.039711 150.265595 
L 372.600766 116.601826 
L 374.82262 100.096485 
L 376.070511 93.446852 
L 377.896693 85.649368 
L 378.748911 83.254705 
L 379.50982 81.968318 
L 379.631566 81.869365 
L 379.996802 81.513134 
L 380.331602 81.255857 
L 380.727275 81.117323 
L 381.18382 81.216273 
L 382.036039 81.889152 
L 382.736075 82.97764 
L 382.918693 83.294286 
L 382.918693 83.294286 
" style="fill:none;stroke:#ff0000;stroke-linecap:square;stroke-width:1.5;"/>
   </g>
   <g id="line2d_25">
    <path clip-path="url(#p0f5e21a8e9)" d="M 123.935675 160.93319 
" style="fill:none;stroke:#ffffff;stroke-linecap:square;stroke-width:1.5;"/>
    <defs>
     <path d="M 0 -5 
L -1.12257 -1.545085 
L -4.755283 -1.545085 
L -1.816356 0.59017 
L -2.938926 4.045085 
L -0 1.90983 
L 2.938926 4.045085 
L 1.816356 0.59017 
L 4.755283 -1.545085 
L 1.12257 -1.545085 
z
" id="m4527cf90d2" style="stroke:#ffffff;stroke-linejoin:bevel;"/>
    </defs>
    <g clip-path="url(#p0f5e21a8e9)">
     <use style="fill:#0000ff;stroke:#ffffff;stroke-linejoin:bevel;" x="123.935675" xlink:href="#m4527cf90d2" y="160.93319"/>
    </g>
   </g>
   <g id="line2d_26">
    <path clip-path="url(#p0f5e21a8e9)" d="M 104.243348 158.498475 
" style="fill:none;stroke:#ffffff;stroke-linecap:square;stroke-width:1.5;"/>
    <defs>
     <path d="M 0 -5 
L -1.12257 -1.545085 
L -4.755283 -1.545085 
L -1.816356 0.59017 
L -2.938926 4.045085 
L -0 1.90983 
L 2.938926 4.045085 
L 1.816356 0.59017 
L 4.755283 -1.545085 
L 1.12257 -1.545085 
z
" id="me4481be0a9" style="stroke:#ffffff;stroke-linejoin:bevel;"/>
    </defs>
    <g clip-path="url(#p0f5e21a8e9)">
     <use style="fill:#ff0000;stroke:#ffffff;stroke-linejoin:bevel;" x="104.243348" xlink:href="#me4481be0a9" y="158.498475"/>
    </g>
   </g>
   <g id="patch_3">
    <path d="M 63.336875 339.84 
L 63.336875 7.2 
" style="fill:none;stroke:#000000;stroke-linecap:square;stroke-linejoin:miter;stroke-width:0.8;"/>
   </g>
   <g id="patch_4">
    <path d="M 398.136875 339.84 
L 398.136875 7.2 
" style="fill:none;stroke:#000000;stroke-linecap:square;stroke-linejoin:miter;stroke-width:0.8;"/>
   </g>
   <g id="patch_5">
    <path d="M 63.336875 339.84 
L 398.136875 339.84 
" style="fill:none;stroke:#000000;stroke-linecap:square;stroke-linejoin:miter;stroke-width:0.8;"/>
   </g>
   <g id="patch_6">
    <path d="M 63.336875 7.2 
L 398.136875 7.2 
" style="fill:none;stroke:#000000;stroke-linecap:square;stroke-linejoin:miter;stroke-width:0.8;"/>
   </g>
   <g id="text_14">
    <g id="patch_7">
     <path d="M 75.036875 331.242688 
L 166.79375 331.242688 
L 166.79375 293.760312 
L 75.036875 293.760312 
z
" style="fill:#ffffff;stroke:#000000;stroke-linejoin:miter;stroke-width:0.75;"/>
    </g>
    <!-- Auto_00129 -->
    <g transform="translate(80.076875 308.521562)scale(0.14 -0.14)">
     <defs>
      <path d="M 2928 1419 
L 1288 1419 
L 1000 750 
Q 894 503 894 381 
Q 894 284 986 211 
Q 1078 138 1384 116 
L 1384 0 
L 50 0 
L 50 116 
Q 316 163 394 238 
Q 553 388 747 847 
L 2238 4334 
L 2347 4334 
L 3822 809 
Q 4000 384 4145 257 
Q 4291 131 4550 116 
L 4550 0 
L 2878 0 
L 2878 116 
Q 3131 128 3220 200 
Q 3309 272 3309 375 
Q 3309 513 3184 809 
L 2928 1419 
z
M 2841 1650 
L 2122 3363 
L 1384 1650 
L 2841 1650 
z
" id="TimesNewRomanPSMT-41" transform="scale(0.015625)"/>
      <path d="M 2709 2863 
L 2709 1128 
Q 2709 631 2732 520 
Q 2756 409 2807 365 
Q 2859 322 2928 322 
Q 3025 322 3147 375 
L 3191 266 
L 2334 -88 
L 2194 -88 
L 2194 519 
Q 1825 119 1631 15 
Q 1438 -88 1222 -88 
Q 981 -88 804 51 
Q 628 191 559 409 
Q 491 628 491 1028 
L 491 2306 
Q 491 2509 447 2587 
Q 403 2666 317 2708 
Q 231 2750 6 2747 
L 6 2863 
L 1009 2863 
L 1009 947 
Q 1009 547 1148 422 
Q 1288 297 1484 297 
Q 1619 297 1789 381 
Q 1959 466 2194 703 
L 2194 2325 
Q 2194 2569 2105 2655 
Q 2016 2741 1734 2747 
L 1734 2863 
L 2709 2863 
z
" id="TimesNewRomanPSMT-75" transform="scale(0.015625)"/>
      <path d="M 3256 -1381 
L -53 -1381 
L -53 -1119 
L 3256 -1119 
L 3256 -1381 
z
" id="TimesNewRomanPSMT-5f" transform="scale(0.015625)"/>
      <path d="M 338 -88 
L 338 28 
Q 744 34 1094 217 
Q 1444 400 1770 856 
Q 2097 1313 2225 1859 
Q 1734 1544 1338 1544 
Q 891 1544 572 1889 
Q 253 2234 253 2806 
Q 253 3363 572 3797 
Q 956 4325 1575 4325 
Q 2097 4325 2469 3894 
Q 2925 3359 2925 2575 
Q 2925 1869 2578 1258 
Q 2231 647 1613 244 
Q 1109 -88 516 -88 
L 338 -88 
z
M 2275 2091 
Q 2331 2497 2331 2741 
Q 2331 3044 2228 3395 
Q 2125 3747 1936 3934 
Q 1747 4122 1506 4122 
Q 1228 4122 1018 3872 
Q 809 3622 809 3128 
Q 809 2469 1088 2097 
Q 1291 1828 1588 1828 
Q 1731 1828 1928 1897 
Q 2125 1966 2275 2091 
z
" id="TimesNewRomanPSMT-39" transform="scale(0.015625)"/>
     </defs>
     <use xlink:href="#TimesNewRomanPSMT-41"/>
     <use x="72.216797" xlink:href="#TimesNewRomanPSMT-75"/>
     <use x="122.216797" xlink:href="#TimesNewRomanPSMT-74"/>
     <use x="150" xlink:href="#TimesNewRomanPSMT-6f"/>
     <use x="200" xlink:href="#TimesNewRomanPSMT-5f"/>
     <use x="250" xlink:href="#TimesNewRomanPSMT-30"/>
     <use x="300" xlink:href="#TimesNewRomanPSMT-30"/>
     <use x="350" xlink:href="#TimesNewRomanPSMT-31"/>
     <use x="400" xlink:href="#TimesNewRomanPSMT-32"/>
     <use x="450" xlink:href="#TimesNewRomanPSMT-39"/>
    </g>
    <!-- Vs: 308.93m/s -->
    <g transform="translate(80.076875 323.208)scale(0.14 -0.14)">
     <defs>
      <path d="M 903 2950 
Q 1047 2950 1148 2848 
Q 1250 2747 1250 2603 
Q 1250 2459 1148 2357 
Q 1047 2256 903 2256 
Q 759 2256 657 2357 
Q 556 2459 556 2603 
Q 556 2747 657 2848 
Q 759 2950 903 2950 
z
M 897 609 
Q 1044 609 1145 506 
Q 1247 403 1247 259 
Q 1247 116 1144 14 
Q 1041 -88 897 -88 
Q 753 -88 651 14 
Q 550 116 550 259 
Q 550 403 651 506 
Q 753 609 897 609 
z
" id="TimesNewRomanPSMT-3a" transform="scale(0.015625)"/>
      <path d="M 1228 2134 
Q 725 2547 579 2797 
Q 434 3047 434 3316 
Q 434 3728 753 4026 
Q 1072 4325 1600 4325 
Q 2113 4325 2425 4047 
Q 2738 3769 2738 3413 
Q 2738 3175 2569 2928 
Q 2400 2681 1866 2347 
Q 2416 1922 2594 1678 
Q 2831 1359 2831 1006 
Q 2831 559 2490 242 
Q 2150 -75 1597 -75 
Q 994 -75 656 303 
Q 388 606 388 966 
Q 388 1247 577 1523 
Q 766 1800 1228 2134 
z
M 1719 2469 
Q 2094 2806 2194 3001 
Q 2294 3197 2294 3444 
Q 2294 3772 2109 3958 
Q 1925 4144 1606 4144 
Q 1288 4144 1088 3959 
Q 888 3775 888 3528 
Q 888 3366 970 3203 
Q 1053 3041 1206 2894 
L 1719 2469 
z
M 1375 2016 
Q 1116 1797 991 1539 
Q 866 1281 866 981 
Q 866 578 1086 336 
Q 1306 94 1647 94 
Q 1984 94 2187 284 
Q 2391 475 2391 747 
Q 2391 972 2272 1150 
Q 2050 1481 1375 2016 
z
" id="TimesNewRomanPSMT-38" transform="scale(0.015625)"/>
      <path d="M 1794 4444 
L 259 -88 
L 9 -88 
L 1544 4444 
L 1794 4444 
z
" id="TimesNewRomanPSMT-2f" transform="scale(0.015625)"/>
     </defs>
     <use xlink:href="#TimesNewRomanPSMT-56"/>
     <use x="72.216797" xlink:href="#TimesNewRomanPSMT-73"/>
     <use x="111.132812" xlink:href="#TimesNewRomanPSMT-3a"/>
     <use x="138.916016" xlink:href="#TimesNewRomanPSMT-20"/>
     <use x="163.916016" xlink:href="#TimesNewRomanPSMT-33"/>
     <use x="213.916016" xlink:href="#TimesNewRomanPSMT-30"/>
     <use x="263.916016" xlink:href="#TimesNewRomanPSMT-38"/>
     <use x="313.916016" xlink:href="#TimesNewRomanPSMT-2e"/>
     <use x="338.916016" xlink:href="#TimesNewRomanPSMT-39"/>
     <use x="388.916016" xlink:href="#TimesNewRomanPSMT-33"/>
     <use x="438.916016" xlink:href="#TimesNewRomanPSMT-6d"/>
     <use x="516.699219" xlink:href="#TimesNewRomanPSMT-2f"/>
     <use x="544.482422" xlink:href="#TimesNewRomanPSMT-73"/>
    </g>
   </g>
  </g>
 </g>
 <defs>
  <clipPath id="p0f5e21a8e9">
   <rect height="332.64" width="334.8" x="63.336875" y="7.2"/>
  </clipPath>
 </defs>
</svg>
