<?xml version="1.0" encoding="utf-8" standalone="no"?>
<!DOCTYPE svg PUBLIC "-//W3C//DTD SVG 1.1//EN"
  "http://www.w3.org/Graphics/SVG/1.1/DTD/svg11.dtd">
<svg height="383.471875pt" version="1.1" viewBox="0 0 421.086875 383.471875" width="421.086875pt" xmlns="http://www.w3.org/2000/svg" xmlns:xlink="http://www.w3.org/1999/xlink">
 <metadata>
  <rdf:RDF xmlns:cc="http://creativecommons.org/ns#" xmlns:dc="http://purl.org/dc/elements/1.1/" xmlns:rdf="http://www.w3.org/1999/02/22-rdf-syntax-ns#">
   <cc:Work>
    <dc:type rdf:resource="http://purl.org/dc/dcmitype/StillImage"/>
    <dc:date>2021-06-11T14:39:37.429726</dc:date>
    <dc:format>image/svg+xml</dc:format>
    <dc:creator>
     <cc:Agent>
      <dc:title>Matplotlib v3.4.2, https://matplotlib.org/</dc:title>
     </cc:Agent>
    </dc:creator>
   </cc:Work>
  </rdf:RDF>
 </metadata>
 <defs>
  <style type="text/css">*{stroke-linecap:butt;stroke-linejoin:round;}</style>
 </defs>
 <g id="figure_1">
  <g id="patch_1">
   <path d="M 0 383.471875 
L 421.086875 383.471875 
L 421.086875 0 
L 0 0 
z
" style="fill:#ffffff;"/>
  </g>
  <g id="axes_1">
   <g id="patch_2">
    <path d="M 63.336875 339.84 
L 398.136875 339.84 
L 398.136875 7.2 
L 63.336875 7.2 
z
" style="fill:#ffffff;"/>
   </g>
   <g id="matplotlib.axis_1">
    <g id="xtick_1">
     <g id="line2d_1">
      <path clip-path="url(#p95cd8c56a6)" d="M 93.773239 339.84 
L 93.773239 7.2 
" style="fill:none;stroke:#000000;stroke-dasharray:0.5,0.825;stroke-dashoffset:0;stroke-width:0.5;"/>
     </g>
     <g id="line2d_2">
      <defs>
       <path d="M 0 0 
L 0 3.5 
" id="m3bde714790" style="stroke:#000000;stroke-width:0.8;"/>
      </defs>
      <g>
       <use style="stroke:#000000;stroke-width:0.8;" x="93.773239" xlink:href="#m3bde714790" y="339.84"/>
      </g>
     </g>
     <g id="text_1">
      <!-- 0.000 -->
      <g transform="translate(78.023239 356.56125)scale(0.14 -0.14)">
       <defs>
        <path d="M 231 2094 
Q 231 2819 450 3342 
Q 669 3866 1031 4122 
Q 1313 4325 1613 4325 
Q 2100 4325 2488 3828 
Q 2972 3213 2972 2159 
Q 2972 1422 2759 906 
Q 2547 391 2217 158 
Q 1888 -75 1581 -75 
Q 975 -75 572 641 
Q 231 1244 231 2094 
z
M 844 2016 
Q 844 1141 1059 588 
Q 1238 122 1591 122 
Q 1759 122 1940 273 
Q 2122 425 2216 781 
Q 2359 1319 2359 2297 
Q 2359 3022 2209 3506 
Q 2097 3866 1919 4016 
Q 1791 4119 1609 4119 
Q 1397 4119 1231 3928 
Q 1006 3669 925 3112 
Q 844 2556 844 2016 
z
" id="TimesNewRomanPSMT-30" transform="scale(0.015625)"/>
        <path d="M 800 606 
Q 947 606 1047 504 
Q 1147 403 1147 259 
Q 1147 116 1045 14 
Q 944 -88 800 -88 
Q 656 -88 554 14 
Q 453 116 453 259 
Q 453 406 554 506 
Q 656 606 800 606 
z
" id="TimesNewRomanPSMT-2e" transform="scale(0.015625)"/>
       </defs>
       <use xlink:href="#TimesNewRomanPSMT-30"/>
       <use x="50" xlink:href="#TimesNewRomanPSMT-2e"/>
       <use x="75" xlink:href="#TimesNewRomanPSMT-30"/>
       <use x="125" xlink:href="#TimesNewRomanPSMT-30"/>
       <use x="175" xlink:href="#TimesNewRomanPSMT-30"/>
      </g>
     </g>
    </g>
    <g id="xtick_2">
     <g id="line2d_3">
      <path clip-path="url(#p95cd8c56a6)" d="M 154.645966 339.84 
L 154.645966 7.2 
" style="fill:none;stroke:#000000;stroke-dasharray:0.5,0.825;stroke-dashoffset:0;stroke-width:0.5;"/>
     </g>
     <g id="line2d_4">
      <g>
       <use style="stroke:#000000;stroke-width:0.8;" x="154.645966" xlink:href="#m3bde714790" y="339.84"/>
      </g>
     </g>
     <g id="text_2">
      <!-- 0.001 -->
      <g transform="translate(138.895966 356.56125)scale(0.14 -0.14)">
       <defs>
        <path d="M 750 3822 
L 1781 4325 
L 1884 4325 
L 1884 747 
Q 1884 391 1914 303 
Q 1944 216 2037 169 
Q 2131 122 2419 116 
L 2419 0 
L 825 0 
L 825 116 
Q 1125 122 1212 167 
Q 1300 213 1334 289 
Q 1369 366 1369 747 
L 1369 3034 
Q 1369 3497 1338 3628 
Q 1316 3728 1258 3775 
Q 1200 3822 1119 3822 
Q 1003 3822 797 3725 
L 750 3822 
z
" id="TimesNewRomanPSMT-31" transform="scale(0.015625)"/>
       </defs>
       <use xlink:href="#TimesNewRomanPSMT-30"/>
       <use x="50" xlink:href="#TimesNewRomanPSMT-2e"/>
       <use x="75" xlink:href="#TimesNewRomanPSMT-30"/>
       <use x="125" xlink:href="#TimesNewRomanPSMT-30"/>
       <use x="175" xlink:href="#TimesNewRomanPSMT-31"/>
      </g>
     </g>
    </g>
    <g id="xtick_3">
     <g id="line2d_5">
      <path clip-path="url(#p95cd8c56a6)" d="M 215.518693 339.84 
L 215.518693 7.2 
" style="fill:none;stroke:#000000;stroke-dasharray:0.5,0.825;stroke-dashoffset:0;stroke-width:0.5;"/>
     </g>
     <g id="line2d_6">
      <g>
       <use style="stroke:#000000;stroke-width:0.8;" x="215.518693" xlink:href="#m3bde714790" y="339.84"/>
      </g>
     </g>
     <g id="text_3">
      <!-- 0.002 -->
      <g transform="translate(199.768693 356.56125)scale(0.14 -0.14)">
       <defs>
        <path d="M 2934 816 
L 2638 0 
L 138 0 
L 138 116 
Q 1241 1122 1691 1759 
Q 2141 2397 2141 2925 
Q 2141 3328 1894 3587 
Q 1647 3847 1303 3847 
Q 991 3847 742 3664 
Q 494 3481 375 3128 
L 259 3128 
Q 338 3706 661 4015 
Q 984 4325 1469 4325 
Q 1984 4325 2329 3994 
Q 2675 3663 2675 3213 
Q 2675 2891 2525 2569 
Q 2294 2063 1775 1497 
Q 997 647 803 472 
L 1909 472 
Q 2247 472 2383 497 
Q 2519 522 2628 598 
Q 2738 675 2819 816 
L 2934 816 
z
" id="TimesNewRomanPSMT-32" transform="scale(0.015625)"/>
       </defs>
       <use xlink:href="#TimesNewRomanPSMT-30"/>
       <use x="50" xlink:href="#TimesNewRomanPSMT-2e"/>
       <use x="75" xlink:href="#TimesNewRomanPSMT-30"/>
       <use x="125" xlink:href="#TimesNewRomanPSMT-30"/>
       <use x="175" xlink:href="#TimesNewRomanPSMT-32"/>
      </g>
     </g>
    </g>
    <g id="xtick_4">
     <g id="line2d_7">
      <path clip-path="url(#p95cd8c56a6)" d="M 276.39142 339.84 
L 276.39142 7.2 
" style="fill:none;stroke:#000000;stroke-dasharray:0.5,0.825;stroke-dashoffset:0;stroke-width:0.5;"/>
     </g>
     <g id="line2d_8">
      <g>
       <use style="stroke:#000000;stroke-width:0.8;" x="276.39142" xlink:href="#m3bde714790" y="339.84"/>
      </g>
     </g>
     <g id="text_4">
      <!-- 0.003 -->
      <g transform="translate(260.64142 356.56125)scale(0.14 -0.14)">
       <defs>
        <path d="M 325 3431 
Q 506 3859 782 4092 
Q 1059 4325 1472 4325 
Q 1981 4325 2253 3994 
Q 2459 3747 2459 3466 
Q 2459 3003 1878 2509 
Q 2269 2356 2469 2072 
Q 2669 1788 2669 1403 
Q 2669 853 2319 450 
Q 1863 -75 997 -75 
Q 569 -75 414 31 
Q 259 138 259 259 
Q 259 350 332 419 
Q 406 488 509 488 
Q 588 488 669 463 
Q 722 447 909 348 
Q 1097 250 1169 231 
Q 1284 197 1416 197 
Q 1734 197 1970 444 
Q 2206 691 2206 1028 
Q 2206 1275 2097 1509 
Q 2016 1684 1919 1775 
Q 1784 1900 1550 2001 
Q 1316 2103 1072 2103 
L 972 2103 
L 972 2197 
Q 1219 2228 1467 2375 
Q 1716 2522 1828 2728 
Q 1941 2934 1941 3181 
Q 1941 3503 1739 3701 
Q 1538 3900 1238 3900 
Q 753 3900 428 3381 
L 325 3431 
z
" id="TimesNewRomanPSMT-33" transform="scale(0.015625)"/>
       </defs>
       <use xlink:href="#TimesNewRomanPSMT-30"/>
       <use x="50" xlink:href="#TimesNewRomanPSMT-2e"/>
       <use x="75" xlink:href="#TimesNewRomanPSMT-30"/>
       <use x="125" xlink:href="#TimesNewRomanPSMT-30"/>
       <use x="175" xlink:href="#TimesNewRomanPSMT-33"/>
      </g>
     </g>
    </g>
    <g id="xtick_5">
     <g id="line2d_9">
      <path clip-path="url(#p95cd8c56a6)" d="M 337.264148 339.84 
L 337.264148 7.2 
" style="fill:none;stroke:#000000;stroke-dasharray:0.5,0.825;stroke-dashoffset:0;stroke-width:0.5;"/>
     </g>
     <g id="line2d_10">
      <g>
       <use style="stroke:#000000;stroke-width:0.8;" x="337.264148" xlink:href="#m3bde714790" y="339.84"/>
      </g>
     </g>
     <g id="text_5">
      <!-- 0.004 -->
      <g transform="translate(321.514148 356.56125)scale(0.14 -0.14)">
       <defs>
        <path d="M 2978 1563 
L 2978 1119 
L 2409 1119 
L 2409 0 
L 1894 0 
L 1894 1119 
L 100 1119 
L 100 1519 
L 2066 4325 
L 2409 4325 
L 2409 1563 
L 2978 1563 
z
M 1894 1563 
L 1894 3666 
L 406 1563 
L 1894 1563 
z
" id="TimesNewRomanPSMT-34" transform="scale(0.015625)"/>
       </defs>
       <use xlink:href="#TimesNewRomanPSMT-30"/>
       <use x="50" xlink:href="#TimesNewRomanPSMT-2e"/>
       <use x="75" xlink:href="#TimesNewRomanPSMT-30"/>
       <use x="125" xlink:href="#TimesNewRomanPSMT-30"/>
       <use x="175" xlink:href="#TimesNewRomanPSMT-34"/>
      </g>
     </g>
    </g>
    <g id="xtick_6">
     <g id="line2d_11">
      <path clip-path="url(#p95cd8c56a6)" d="M 398.136875 339.84 
L 398.136875 7.2 
" style="fill:none;stroke:#000000;stroke-dasharray:0.5,0.825;stroke-dashoffset:0;stroke-width:0.5;"/>
     </g>
     <g id="line2d_12">
      <g>
       <use style="stroke:#000000;stroke-width:0.8;" x="398.136875" xlink:href="#m3bde714790" y="339.84"/>
      </g>
     </g>
     <g id="text_6">
      <!-- 0.005 -->
      <g transform="translate(382.386875 356.56125)scale(0.14 -0.14)">
       <defs>
        <path d="M 2778 4238 
L 2534 3706 
L 1259 3706 
L 981 3138 
Q 1809 3016 2294 2522 
Q 2709 2097 2709 1522 
Q 2709 1188 2573 903 
Q 2438 619 2231 419 
Q 2025 219 1772 97 
Q 1413 -75 1034 -75 
Q 653 -75 479 54 
Q 306 184 306 341 
Q 306 428 378 495 
Q 450 563 559 563 
Q 641 563 702 538 
Q 763 513 909 409 
Q 1144 247 1384 247 
Q 1750 247 2026 523 
Q 2303 800 2303 1197 
Q 2303 1581 2056 1914 
Q 1809 2247 1375 2428 
Q 1034 2569 447 2591 
L 1259 4238 
L 2778 4238 
z
" id="TimesNewRomanPSMT-35" transform="scale(0.015625)"/>
       </defs>
       <use xlink:href="#TimesNewRomanPSMT-30"/>
       <use x="50" xlink:href="#TimesNewRomanPSMT-2e"/>
       <use x="75" xlink:href="#TimesNewRomanPSMT-30"/>
       <use x="125" xlink:href="#TimesNewRomanPSMT-30"/>
       <use x="175" xlink:href="#TimesNewRomanPSMT-35"/>
      </g>
     </g>
    </g>
    <g id="text_7">
     <!-- Time (sec) -->
     <g transform="translate(200.858906 373.277188)scale(0.14 -0.14)">
      <defs>
       <path d="M 3703 4238 
L 3750 3244 
L 3631 3244 
Q 3597 3506 3538 3619 
Q 3441 3800 3280 3886 
Q 3119 3972 2856 3972 
L 2259 3972 
L 2259 734 
Q 2259 344 2344 247 
Q 2463 116 2709 116 
L 2856 116 
L 2856 0 
L 1059 0 
L 1059 116 
L 1209 116 
Q 1478 116 1591 278 
Q 1659 378 1659 734 
L 1659 3972 
L 1150 3972 
Q 853 3972 728 3928 
Q 566 3869 450 3700 
Q 334 3531 313 3244 
L 194 3244 
L 244 4238 
L 3703 4238 
z
" id="TimesNewRomanPSMT-54" transform="scale(0.015625)"/>
       <path d="M 928 4444 
Q 1059 4444 1151 4351 
Q 1244 4259 1244 4128 
Q 1244 3997 1151 3903 
Q 1059 3809 928 3809 
Q 797 3809 703 3903 
Q 609 3997 609 4128 
Q 609 4259 701 4351 
Q 794 4444 928 4444 
z
M 1188 2947 
L 1188 647 
Q 1188 378 1227 289 
Q 1266 200 1342 156 
Q 1419 113 1622 113 
L 1622 0 
L 231 0 
L 231 113 
Q 441 113 512 153 
Q 584 194 626 287 
Q 669 381 669 647 
L 669 1750 
Q 669 2216 641 2353 
Q 619 2453 572 2492 
Q 525 2531 444 2531 
Q 356 2531 231 2484 
L 188 2597 
L 1050 2947 
L 1188 2947 
z
" id="TimesNewRomanPSMT-69" transform="scale(0.015625)"/>
       <path d="M 1050 2338 
Q 1363 2650 1419 2697 
Q 1559 2816 1721 2881 
Q 1884 2947 2044 2947 
Q 2313 2947 2506 2790 
Q 2700 2634 2766 2338 
Q 3088 2713 3309 2830 
Q 3531 2947 3766 2947 
Q 3994 2947 4170 2830 
Q 4347 2713 4450 2447 
Q 4519 2266 4519 1878 
L 4519 647 
Q 4519 378 4559 278 
Q 4591 209 4675 161 
Q 4759 113 4950 113 
L 4950 0 
L 3538 0 
L 3538 113 
L 3597 113 
Q 3781 113 3884 184 
Q 3956 234 3988 344 
Q 4000 397 4000 647 
L 4000 1878 
Q 4000 2228 3916 2372 
Q 3794 2572 3525 2572 
Q 3359 2572 3192 2489 
Q 3025 2406 2788 2181 
L 2781 2147 
L 2788 2013 
L 2788 647 
Q 2788 353 2820 281 
Q 2853 209 2943 161 
Q 3034 113 3253 113 
L 3253 0 
L 1806 0 
L 1806 113 
Q 2044 113 2133 169 
Q 2222 225 2256 338 
Q 2272 391 2272 647 
L 2272 1878 
Q 2272 2228 2169 2381 
Q 2031 2581 1784 2581 
Q 1616 2581 1450 2491 
Q 1191 2353 1050 2181 
L 1050 647 
Q 1050 366 1089 281 
Q 1128 197 1204 155 
Q 1281 113 1516 113 
L 1516 0 
L 100 0 
L 100 113 
Q 297 113 375 155 
Q 453 197 493 289 
Q 534 381 534 647 
L 534 1741 
Q 534 2213 506 2350 
Q 484 2453 437 2492 
Q 391 2531 309 2531 
Q 222 2531 100 2484 
L 53 2597 
L 916 2947 
L 1050 2947 
L 1050 2338 
z
" id="TimesNewRomanPSMT-6d" transform="scale(0.015625)"/>
       <path d="M 681 1784 
Q 678 1147 991 784 
Q 1303 422 1725 422 
Q 2006 422 2214 576 
Q 2422 731 2563 1106 
L 2659 1044 
Q 2594 616 2278 264 
Q 1963 -88 1488 -88 
Q 972 -88 605 314 
Q 238 716 238 1394 
Q 238 2128 614 2539 
Q 991 2950 1559 2950 
Q 2041 2950 2350 2633 
Q 2659 2316 2659 1784 
L 681 1784 
z
M 681 1966 
L 2006 1966 
Q 1991 2241 1941 2353 
Q 1863 2528 1708 2628 
Q 1553 2728 1384 2728 
Q 1125 2728 920 2526 
Q 716 2325 681 1966 
z
" id="TimesNewRomanPSMT-65" transform="scale(0.015625)"/>
       <path id="TimesNewRomanPSMT-20" transform="scale(0.015625)"/>
       <path d="M 1988 -1253 
L 1988 -1369 
Q 1516 -1131 1200 -813 
Q 750 -359 506 256 
Q 263 872 263 1534 
Q 263 2503 741 3301 
Q 1219 4100 1988 4444 
L 1988 4313 
Q 1603 4100 1356 3731 
Q 1109 3363 987 2797 
Q 866 2231 866 1616 
Q 866 947 969 400 
Q 1050 -31 1165 -292 
Q 1281 -553 1476 -793 
Q 1672 -1034 1988 -1253 
z
" id="TimesNewRomanPSMT-28" transform="scale(0.015625)"/>
       <path d="M 2050 2947 
L 2050 1972 
L 1947 1972 
Q 1828 2431 1642 2597 
Q 1456 2763 1169 2763 
Q 950 2763 815 2647 
Q 681 2531 681 2391 
Q 681 2216 781 2091 
Q 878 1963 1175 1819 
L 1631 1597 
Q 2266 1288 2266 781 
Q 2266 391 1970 151 
Q 1675 -88 1309 -88 
Q 1047 -88 709 6 
Q 606 38 541 38 
Q 469 38 428 -44 
L 325 -44 
L 325 978 
L 428 978 
Q 516 541 762 319 
Q 1009 97 1316 97 
Q 1531 97 1667 223 
Q 1803 350 1803 528 
Q 1803 744 1651 891 
Q 1500 1038 1047 1263 
Q 594 1488 453 1669 
Q 313 1847 313 2119 
Q 313 2472 555 2709 
Q 797 2947 1181 2947 
Q 1350 2947 1591 2875 
Q 1750 2828 1803 2828 
Q 1853 2828 1881 2850 
Q 1909 2872 1947 2947 
L 2050 2947 
z
" id="TimesNewRomanPSMT-73" transform="scale(0.015625)"/>
       <path d="M 2631 1088 
Q 2516 522 2178 217 
Q 1841 -88 1431 -88 
Q 944 -88 581 321 
Q 219 731 219 1428 
Q 219 2103 620 2525 
Q 1022 2947 1584 2947 
Q 2006 2947 2278 2723 
Q 2550 2500 2550 2259 
Q 2550 2141 2473 2067 
Q 2397 1994 2259 1994 
Q 2075 1994 1981 2113 
Q 1928 2178 1911 2362 
Q 1894 2547 1784 2644 
Q 1675 2738 1481 2738 
Q 1169 2738 978 2506 
Q 725 2200 725 1697 
Q 725 1184 976 792 
Q 1228 400 1656 400 
Q 1963 400 2206 609 
Q 2378 753 2541 1131 
L 2631 1088 
z
" id="TimesNewRomanPSMT-63" transform="scale(0.015625)"/>
       <path d="M 144 4313 
L 144 4444 
Q 619 4209 934 3891 
Q 1381 3434 1625 2820 
Q 1869 2206 1869 1541 
Q 1869 572 1392 -226 
Q 916 -1025 144 -1369 
L 144 -1253 
Q 528 -1038 776 -670 
Q 1025 -303 1145 264 
Q 1266 831 1266 1447 
Q 1266 2113 1163 2663 
Q 1084 3094 967 3353 
Q 850 3613 656 3853 
Q 463 4094 144 4313 
z
" id="TimesNewRomanPSMT-29" transform="scale(0.015625)"/>
      </defs>
      <use xlink:href="#TimesNewRomanPSMT-54"/>
      <use x="57.583984" xlink:href="#TimesNewRomanPSMT-69"/>
      <use x="85.367188" xlink:href="#TimesNewRomanPSMT-6d"/>
      <use x="163.150391" xlink:href="#TimesNewRomanPSMT-65"/>
      <use x="207.535156" xlink:href="#TimesNewRomanPSMT-20"/>
      <use x="232.535156" xlink:href="#TimesNewRomanPSMT-28"/>
      <use x="265.835938" xlink:href="#TimesNewRomanPSMT-73"/>
      <use x="304.751953" xlink:href="#TimesNewRomanPSMT-65"/>
      <use x="349.136719" xlink:href="#TimesNewRomanPSMT-63"/>
      <use x="393.521484" xlink:href="#TimesNewRomanPSMT-29"/>
     </g>
    </g>
   </g>
   <g id="matplotlib.axis_2">
    <g id="ytick_1">
     <g id="line2d_13">
      <path clip-path="url(#p95cd8c56a6)" d="M 63.336875 283.273346 
L 398.136875 283.273346 
" style="fill:none;stroke:#000000;stroke-dasharray:0.5,0.825;stroke-dashoffset:0;stroke-width:0.5;"/>
     </g>
     <g id="line2d_14">
      <defs>
       <path d="M 0 0 
L -3.5 0 
" id="m03af29574c" style="stroke:#000000;stroke-width:0.8;"/>
      </defs>
      <g>
       <use style="stroke:#000000;stroke-width:0.8;" x="63.336875" xlink:href="#m03af29574c" y="283.273346"/>
      </g>
     </g>
     <g id="text_8">
      <!-- −0.04 -->
      <g transform="translate(23.942188 288.133971)scale(0.14 -0.14)">
       <defs>
        <path d="M 3484 2000 
L 116 2000 
L 116 2256 
L 3484 2256 
L 3484 2000 
z
" id="TimesNewRomanPSMT-2212" transform="scale(0.015625)"/>
       </defs>
       <use xlink:href="#TimesNewRomanPSMT-2212"/>
       <use x="56.396484" xlink:href="#TimesNewRomanPSMT-30"/>
       <use x="106.396484" xlink:href="#TimesNewRomanPSMT-2e"/>
       <use x="131.396484" xlink:href="#TimesNewRomanPSMT-30"/>
       <use x="181.396484" xlink:href="#TimesNewRomanPSMT-34"/>
      </g>
     </g>
    </g>
    <g id="ytick_2">
     <g id="line2d_15">
      <path clip-path="url(#p95cd8c56a6)" d="M 63.336875 218.804325 
L 398.136875 218.804325 
" style="fill:none;stroke:#000000;stroke-dasharray:0.5,0.825;stroke-dashoffset:0;stroke-width:0.5;"/>
     </g>
     <g id="line2d_16">
      <g>
       <use style="stroke:#000000;stroke-width:0.8;" x="63.336875" xlink:href="#m03af29574c" y="218.804325"/>
      </g>
     </g>
     <g id="text_9">
      <!-- −0.02 -->
      <g transform="translate(23.942188 223.66495)scale(0.14 -0.14)">
       <use xlink:href="#TimesNewRomanPSMT-2212"/>
       <use x="56.396484" xlink:href="#TimesNewRomanPSMT-30"/>
       <use x="106.396484" xlink:href="#TimesNewRomanPSMT-2e"/>
       <use x="131.396484" xlink:href="#TimesNewRomanPSMT-30"/>
       <use x="181.396484" xlink:href="#TimesNewRomanPSMT-32"/>
      </g>
     </g>
    </g>
    <g id="ytick_3">
     <g id="line2d_17">
      <path clip-path="url(#p95cd8c56a6)" d="M 63.336875 154.335304 
L 398.136875 154.335304 
" style="fill:none;stroke:#000000;stroke-dasharray:0.5,0.825;stroke-dashoffset:0;stroke-width:0.5;"/>
     </g>
     <g id="line2d_18">
      <g>
       <use style="stroke:#000000;stroke-width:0.8;" x="63.336875" xlink:href="#m03af29574c" y="154.335304"/>
      </g>
     </g>
     <g id="text_10">
      <!-- 0.00 -->
      <g transform="translate(31.836875 159.195929)scale(0.14 -0.14)">
       <use xlink:href="#TimesNewRomanPSMT-30"/>
       <use x="50" xlink:href="#TimesNewRomanPSMT-2e"/>
       <use x="75" xlink:href="#TimesNewRomanPSMT-30"/>
       <use x="125" xlink:href="#TimesNewRomanPSMT-30"/>
      </g>
     </g>
    </g>
    <g id="ytick_4">
     <g id="line2d_19">
      <path clip-path="url(#p95cd8c56a6)" d="M 63.336875 89.866282 
L 398.136875 89.866282 
" style="fill:none;stroke:#000000;stroke-dasharray:0.5,0.825;stroke-dashoffset:0;stroke-width:0.5;"/>
     </g>
     <g id="line2d_20">
      <g>
       <use style="stroke:#000000;stroke-width:0.8;" x="63.336875" xlink:href="#m03af29574c" y="89.866282"/>
      </g>
     </g>
     <g id="text_11">
      <!-- 0.02 -->
      <g transform="translate(31.836875 94.726907)scale(0.14 -0.14)">
       <use xlink:href="#TimesNewRomanPSMT-30"/>
       <use x="50" xlink:href="#TimesNewRomanPSMT-2e"/>
       <use x="75" xlink:href="#TimesNewRomanPSMT-30"/>
       <use x="125" xlink:href="#TimesNewRomanPSMT-32"/>
      </g>
     </g>
    </g>
    <g id="ytick_5">
     <g id="line2d_21">
      <path clip-path="url(#p95cd8c56a6)" d="M 63.336875 25.397261 
L 398.136875 25.397261 
" style="fill:none;stroke:#000000;stroke-dasharray:0.5,0.825;stroke-dashoffset:0;stroke-width:0.5;"/>
     </g>
     <g id="line2d_22">
      <g>
       <use style="stroke:#000000;stroke-width:0.8;" x="63.336875" xlink:href="#m03af29574c" y="25.397261"/>
      </g>
     </g>
     <g id="text_12">
      <!-- 0.04 -->
      <g transform="translate(31.836875 30.257886)scale(0.14 -0.14)">
       <use xlink:href="#TimesNewRomanPSMT-30"/>
       <use x="50" xlink:href="#TimesNewRomanPSMT-2e"/>
       <use x="75" xlink:href="#TimesNewRomanPSMT-30"/>
       <use x="125" xlink:href="#TimesNewRomanPSMT-34"/>
      </g>
     </g>
    </g>
    <g id="text_13">
     <!-- Volatage (V) -->
     <g transform="translate(16.92125 209.352344)rotate(-90)scale(0.14 -0.14)">
      <defs>
       <path d="M 4544 4238 
L 4544 4122 
Q 4319 4081 4203 3978 
Q 4038 3825 3909 3509 
L 2431 -97 
L 2316 -97 
L 728 3556 
Q 606 3838 556 3900 
Q 478 3997 364 4051 
Q 250 4106 56 4122 
L 56 4238 
L 1788 4238 
L 1788 4122 
Q 1494 4094 1406 4022 
Q 1319 3950 1319 3838 
Q 1319 3681 1463 3350 
L 2541 866 
L 3541 3319 
Q 3688 3681 3688 3822 
Q 3688 3913 3597 3995 
Q 3506 4078 3291 4113 
Q 3275 4116 3238 4122 
L 3238 4238 
L 4544 4238 
z
" id="TimesNewRomanPSMT-56" transform="scale(0.015625)"/>
       <path d="M 1600 2947 
Q 2250 2947 2644 2453 
Q 2978 2031 2978 1484 
Q 2978 1100 2793 706 
Q 2609 313 2286 112 
Q 1963 -88 1566 -88 
Q 919 -88 538 428 
Q 216 863 216 1403 
Q 216 1797 411 2186 
Q 606 2575 925 2761 
Q 1244 2947 1600 2947 
z
M 1503 2744 
Q 1338 2744 1170 2645 
Q 1003 2547 900 2300 
Q 797 2053 797 1666 
Q 797 1041 1045 587 
Q 1294 134 1700 134 
Q 2003 134 2200 384 
Q 2397 634 2397 1244 
Q 2397 2006 2069 2444 
Q 1847 2744 1503 2744 
z
" id="TimesNewRomanPSMT-6f" transform="scale(0.015625)"/>
       <path d="M 1184 4444 
L 1184 647 
Q 1184 378 1223 290 
Q 1263 203 1344 158 
Q 1425 113 1647 113 
L 1647 0 
L 244 0 
L 244 113 
Q 441 113 512 153 
Q 584 194 625 287 
Q 666 381 666 647 
L 666 3247 
Q 666 3731 644 3842 
Q 622 3953 573 3993 
Q 525 4034 450 4034 
Q 369 4034 244 3984 
L 191 4094 
L 1044 4444 
L 1184 4444 
z
" id="TimesNewRomanPSMT-6c" transform="scale(0.015625)"/>
       <path d="M 1822 413 
Q 1381 72 1269 19 
Q 1100 -59 909 -59 
Q 613 -59 420 144 
Q 228 347 228 678 
Q 228 888 322 1041 
Q 450 1253 767 1440 
Q 1084 1628 1822 1897 
L 1822 2009 
Q 1822 2438 1686 2597 
Q 1550 2756 1291 2756 
Q 1094 2756 978 2650 
Q 859 2544 859 2406 
L 866 2225 
Q 866 2081 792 2003 
Q 719 1925 600 1925 
Q 484 1925 411 2006 
Q 338 2088 338 2228 
Q 338 2497 613 2722 
Q 888 2947 1384 2947 
Q 1766 2947 2009 2819 
Q 2194 2722 2281 2516 
Q 2338 2381 2338 1966 
L 2338 994 
Q 2338 584 2353 492 
Q 2369 400 2405 369 
Q 2441 338 2488 338 
Q 2538 338 2575 359 
Q 2641 400 2828 588 
L 2828 413 
Q 2478 -56 2159 -56 
Q 2006 -56 1915 50 
Q 1825 156 1822 413 
z
M 1822 616 
L 1822 1706 
Q 1350 1519 1213 1441 
Q 966 1303 859 1153 
Q 753 1003 753 825 
Q 753 600 887 451 
Q 1022 303 1197 303 
Q 1434 303 1822 616 
z
" id="TimesNewRomanPSMT-61" transform="scale(0.015625)"/>
       <path d="M 1031 3803 
L 1031 2863 
L 1700 2863 
L 1700 2644 
L 1031 2644 
L 1031 788 
Q 1031 509 1111 412 
Q 1191 316 1316 316 
Q 1419 316 1516 380 
Q 1613 444 1666 569 
L 1788 569 
Q 1678 263 1478 108 
Q 1278 -47 1066 -47 
Q 922 -47 784 33 
Q 647 113 581 261 
Q 516 409 516 719 
L 516 2644 
L 63 2644 
L 63 2747 
Q 234 2816 414 2980 
Q 594 3144 734 3369 
Q 806 3488 934 3803 
L 1031 3803 
z
" id="TimesNewRomanPSMT-74" transform="scale(0.015625)"/>
       <path d="M 966 1044 
Q 703 1172 562 1401 
Q 422 1631 422 1909 
Q 422 2334 742 2640 
Q 1063 2947 1563 2947 
Q 1972 2947 2272 2747 
L 2878 2747 
Q 3013 2747 3034 2739 
Q 3056 2731 3066 2713 
Q 3084 2684 3084 2613 
Q 3084 2531 3069 2500 
Q 3059 2484 3036 2475 
Q 3013 2466 2878 2466 
L 2506 2466 
Q 2681 2241 2681 1891 
Q 2681 1491 2375 1206 
Q 2069 922 1553 922 
Q 1341 922 1119 984 
Q 981 866 932 777 
Q 884 688 884 625 
Q 884 572 936 522 
Q 988 472 1138 450 
Q 1225 438 1575 428 
Q 2219 413 2409 384 
Q 2700 344 2873 169 
Q 3047 -6 3047 -263 
Q 3047 -616 2716 -925 
Q 2228 -1381 1444 -1381 
Q 841 -1381 425 -1109 
Q 191 -953 191 -784 
Q 191 -709 225 -634 
Q 278 -519 444 -313 
Q 466 -284 763 25 
Q 600 122 533 198 
Q 466 275 466 372 
Q 466 481 555 628 
Q 644 775 966 1044 
z
M 1509 2797 
Q 1278 2797 1122 2612 
Q 966 2428 966 2047 
Q 966 1553 1178 1281 
Q 1341 1075 1591 1075 
Q 1828 1075 1981 1253 
Q 2134 1431 2134 1813 
Q 2134 2309 1919 2591 
Q 1759 2797 1509 2797 
z
M 934 0 
Q 788 -159 713 -296 
Q 638 -434 638 -550 
Q 638 -700 819 -813 
Q 1131 -1006 1722 -1006 
Q 2284 -1006 2551 -807 
Q 2819 -609 2819 -384 
Q 2819 -222 2659 -153 
Q 2497 -84 2016 -72 
Q 1313 -53 934 0 
z
" id="TimesNewRomanPSMT-67" transform="scale(0.015625)"/>
      </defs>
      <use xlink:href="#TimesNewRomanPSMT-56"/>
      <use x="59.341797" xlink:href="#TimesNewRomanPSMT-6f"/>
      <use x="109.341797" xlink:href="#TimesNewRomanPSMT-6c"/>
      <use x="137.125" xlink:href="#TimesNewRomanPSMT-61"/>
      <use x="181.509766" xlink:href="#TimesNewRomanPSMT-74"/>
      <use x="209.292969" xlink:href="#TimesNewRomanPSMT-61"/>
      <use x="253.677734" xlink:href="#TimesNewRomanPSMT-67"/>
      <use x="303.677734" xlink:href="#TimesNewRomanPSMT-65"/>
      <use x="348.0625" xlink:href="#TimesNewRomanPSMT-20"/>
      <use x="373.0625" xlink:href="#TimesNewRomanPSMT-28"/>
      <use x="406.363281" xlink:href="#TimesNewRomanPSMT-56"/>
      <use x="478.580078" xlink:href="#TimesNewRomanPSMT-29"/>
     </g>
    </g>
   </g>
   <g id="LineCollection_1">
    <path clip-path="url(#p95cd8c56a6)" d="M 78.555057 154.335304 
L 382.918693 154.335304 
" style="fill:none;stroke:#1f77b4;stroke-width:1.5;"/>
   </g>
   <g id="line2d_23">
    <path clip-path="url(#p95cd8c56a6)" d="M 78.555057 154.400901 
L 78.707239 154.320315 
L 78.85942 154.360608 
L 78.981166 154.360608 
L 88.32513 154.280022 
L 88.355566 154.239728 
L 88.386002 154.320315 
L 88.507748 154.320315 
L 88.599057 154.280022 
L 88.629493 154.320315 
L 95.995093 154.320315 
L 96.02553 154.199435 
L 96.116839 154.280022 
L 97.94302 154.360608 
L 98.064766 154.400901 
L 98.156075 154.360608 
L 98.186511 154.400901 
L 101.138839 154.360608 
L 101.169275 154.280022 
L 101.230148 154.360608 
L 103.238948 154.280022 
L 103.360693 154.239728 
L 103.512875 154.280022 
L 103.543311 154.199435 
L 103.63462 154.239728 
L 106.373893 154.159142 
L 106.495639 154.159142 
L 110.026257 154.239728 
L 110.117566 154.239728 
L 110.269748 154.199435 
L 110.361057 154.280022 
L 110.391493 154.199435 
L 110.482802 154.239728 
L 111.700257 154.320315 
L 111.852439 154.360608 
L 112.856839 154.441194 
L 112.948148 154.481487 
L 112.978584 154.441194 
L 113.282948 154.481487 
L 113.404693 154.562074 
L 113.739493 154.602367 
L 113.830802 154.682953 
L 113.861239 154.64266 
L 114.196039 154.723246 
L 114.34822 154.763539 
L 114.77433 154.844125 
L 114.987384 154.965005 
L 115.048257 154.924712 
L 115.078693 154.965005 
L 115.261311 155.045591 
L 115.383057 155.045591 
L 115.77873 155.126178 
L 115.991784 155.247057 
L 116.539639 155.327643 
L 116.69182 155.367936 
L 117.239675 155.448523 
L 117.422293 155.529109 
L 118.091893 155.609695 
L 118.274511 155.690281 
L 118.761493 155.770868 
L 118.944111 155.851454 
L 119.065857 155.851454 
L 119.157166 155.93204 
L 119.248475 155.972333 
L 119.278911 155.93204 
L 119.431093 156.012627 
L 119.644148 156.173799 
L 119.735457 156.133506 
L 119.887639 156.294679 
L 120.009384 156.294679 
L 120.192002 156.375265 
L 120.46593 156.617024 
L 120.496366 156.576731 
L 120.526802 156.657317 
L 121.04422 157.181128 
L 121.13553 157.261714 
L 122.04862 158.631681 
L 122.535602 159.679302 
L 122.566039 159.679302 
L 122.839966 160.364285 
L 122.992148 160.726924 
L 123.357384 161.734252 
L 124.087857 163.950375 
L 126.948875 175.756264 
L 128.288075 182.364339 
L 128.348948 182.606099 
L 129.201166 186.554824 
L 129.383784 187.280101 
L 129.84033 189.173879 
L 130.053384 189.979742 
L 130.41862 191.349709 
L 131.057784 193.324073 
L 131.453457 194.492574 
L 131.51433 194.57316 
L 131.788257 195.21785 
L 132.42742 195.902834 
L 132.792657 195.98342 
L 132.823093 196.023713 
L 132.85353 195.98342 
L 132.975275 195.902834 
L 133.005711 195.943127 
L 133.036148 195.902834 
L 133.218766 195.701368 
L 133.310075 195.620782 
L 133.614439 195.056678 
L 133.827493 194.613453 
L 134.010111 194.210522 
L 135.19713 190.825898 
L 135.623239 189.133586 
L 136.049348 186.998051 
L 136.627639 183.411961 
L 137.145057 179.624406 
L 138.636439 166.932067 
L 140.432184 146.745205 
L 142.56273 117.129748 
L 143.780184 99.52165 
L 146.702075 58.583818 
L 148.284766 41.016007 
L 148.954366 35.052628 
L 150.628366 24.697292 
L 151.115348 23.166149 
L 151.815384 22.360287 
L 151.906693 22.400573 
L 152.028439 22.32 
L 152.393675 22.400573 
L 152.576293 22.602049 
L 152.911093 23.206439 
L 153.580693 25.261393 
L 154.067675 27.638688 
L 155.132948 35.374967 
L 156.86782 54.876853 
L 157.993966 71.235863 
L 159.54622 99.843995 
L 162.924657 173.741607 
L 166.820511 259.042178 
L 169.133675 297.159493 
L 169.529348 301.833494 
L 170.898984 315.210813 
L 171.659893 320.368338 
L 172.207748 322.705343 
L 172.999093 324.558824 
L 173.090402 324.599111 
L 173.151275 324.72 
L 173.212148 324.6797 
L 174.064366 323.39032 
L 174.673093 321.536842 
L 176.225348 312.752931 
L 176.834075 307.998344 
L 178.508075 291.478154 
L 180.029893 272.056871 
L 183.195275 224.349792 
L 187.973784 150.170122 
L 188.978184 136.913678 
L 191.230475 108.507016 
L 194.061057 79.697419 
L 194.36542 77.521596 
L 197.104693 56.649744 
L 197.500366 54.03069 
L 197.865602 51.975747 
L 200.452693 42.144221 
L 200.72662 41.660697 
L 200.939675 41.257769 
L 200.970111 41.257769 
L 201.244039 40.613082 
L 201.39622 40.29073 
L 201.609275 39.847506 
L 201.700584 39.766916 
L 201.852766 39.64604 
L 201.944075 39.686339 
L 201.974511 39.64604 
L 202.187566 39.726629 
L 202.339748 39.766916 
L 202.704984 39.726629 
L 202.857166 39.605753 
L 203.16153 39.686339 
L 203.678948 40.210144 
L 204.07462 40.29073 
L 204.378984 40.532492 
L 204.439857 40.572782 
L 204.987711 41.741283 
L 205.41382 42.466559 
L 206.905202 46.213818 
L 206.935639 46.173531 
L 207.17913 46.939098 
L 207.605239 48.349361 
L 208.09222 49.840204 
L 208.42702 51.008705 
L 209.09662 53.9904 
L 209.948839 57.777955 
L 210.43582 60.27613 
L 211.288039 64.063682 
L 211.835893 66.964788 
L 212.901166 73.169934 
L 214.149057 82.115014 
L 216.88833 108.507016 
L 219.47542 136.994265 
L 220.114584 144.690254 
L 222.397311 173.177503 
L 223.006039 181.115252 
L 224.223493 197.232507 
L 225.988802 219.514613 
L 226.627966 227.976168 
L 227.328002 236.478021 
L 228.028039 245.141049 
L 230.249893 267.503734 
L 230.85862 272.137445 
L 231.86302 278.060549 
L 232.350002 280.075203 
L 233.445711 283.983637 
L 234.450111 285.192428 
L 234.602293 285.071552 
L 235.150148 284.1851 
L 235.54582 283.419536 
L 235.667566 283.177774 
L 236.002366 281.968983 
L 236.184984 281.203404 
L 236.64153 278.906698 
L 237.341566 274.675916 
L 238.954693 260.976255 
L 240.23302 248.122744 
L 242.424439 220.763703 
L 243.67233 204.20322 
L 246.076802 170.921088 
L 249.820475 118.016197 
L 251.28142 101.898942 
L 252.468439 91.906243 
L 252.894548 89.085724 
L 253.929384 82.961167 
L 255.512075 77.118665 
L 255.63382 76.79632 
L 256.577348 74.539901 
L 256.759966 74.459315 
L 256.942584 74.298145 
L 256.97302 74.338438 
L 257.125202 74.298145 
L 257.246948 74.177263 
L 257.30782 74.217556 
L 257.338257 74.136969 
L 257.703493 74.177263 
L 257.73393 74.257849 
L 257.825239 74.217556 
L 258.373093 74.78166 
L 258.707893 74.821953 
L 258.829639 74.942832 
L 259.042693 75.023422 
L 259.560111 75.547229 
L 259.74273 75.627816 
L 260.260148 76.151623 
L 260.290584 76.111336 
L 260.32102 76.191916 
L 260.594948 76.635144 
L 260.929748 77.239538 
L 261.142802 77.642472 
L 262.360257 81.147972 
L 263.821202 87.393415 
L 264.277748 89.730414 
L 264.399493 90.294521 
L 265.160402 94.605881 
L 265.921311 99.199298 
L 267.68662 111.609588 
L 269.969348 128.855052 
L 270.912875 135.825765 
L 272.769493 149.686604 
L 274.078257 157.664645 
L 274.504366 159.759888 
L 274.900039 161.653666 
L 275.569639 164.635358 
L 275.660948 164.91741 
L 275.934875 166.005325 
L 276.269675 167.254412 
L 276.360984 167.536464 
L 276.787093 168.946724 
L 277.274075 170.437569 
L 277.852366 172.250762 
L 278.278475 173.499849 
L 279.191566 175.675678 
L 279.252439 175.756264 
L 279.861166 176.723299 
L 280.07422 177.005351 
L 280.774257 177.770922 
L 280.896002 177.851508 
L 281.07862 178.052973 
L 281.16993 178.13356 
L 281.626475 178.576785 
L 281.656911 178.536491 
L 281.687348 178.657371 
L 281.900402 178.697663 
L 282.022148 178.778249 
L 282.326511 178.858835 
L 282.478693 178.979715 
L 282.50913 178.939422 
L 283.148293 178.858835 
L 283.391784 178.697663 
L 283.483093 178.657371 
L 283.604839 178.496197 
L 283.726584 178.536491 
L 283.970075 178.335025 
L 284.000511 178.375319 
L 284.061384 178.294732 
L 284.244002 178.093266 
L 284.913602 177.36799 
L 285.004911 177.287404 
L 285.887566 175.95773 
L 286.161493 175.514506 
L 286.19193 175.514506 
L 286.43542 174.990695 
L 286.77022 174.386298 
L 287.19633 173.540141 
L 287.226766 173.540141 
L 287.470257 173.016331 
L 287.86593 172.250762 
L 289.266002 170.558449 
L 289.387748 170.558449 
L 289.87473 170.477864 
L 290.026911 170.437569 
L 290.361711 170.477864 
L 290.513893 170.598743 
L 291.640039 172.210468 
L 292.005275 173.217797 
L 293.22273 176.723299 
L 293.679275 178.093266 
L 294.379311 180.228803 
L 294.653239 181.115252 
L 295.322839 183.12991 
L 295.56633 183.895477 
L 297.209893 188.005378 
L 297.270766 188.085966 
L 297.514257 188.650067 
L 297.544693 188.650067 
L 297.727311 188.972414 
L 298.609966 189.979742 
L 298.670839 190.060328 
L 299.036075 190.422967 
L 299.15782 190.422967 
L 299.310002 190.46326 
L 299.462184 190.422967 
L 299.644802 190.503553 
L 299.857857 190.624432 
L 300.010039 190.705019 
L 300.223093 190.825898 
L 300.314402 190.745312 
L 300.344839 190.785605 
L 300.710075 190.46326 
L 300.862257 190.382674 
L 301.014439 190.302087 
L 301.16662 190.34238 
L 301.25793 190.261794 
L 301.288366 190.302087 
L 302.323202 189.093293 
L 302.50582 189.012707 
L 302.627566 188.851534 
L 302.658002 188.932121 
L 302.718875 188.851534 
L 302.901493 188.650067 
L 304.392875 186.554824 
L 304.697239 185.789257 
L 306.249493 181.397304 
L 306.61473 179.987045 
L 306.706039 179.745284 
L 307.436511 176.441248 
L 307.893057 174.144539 
L 308.410475 171.726951 
L 308.775711 169.631707 
L 309.140948 167.73793 
L 310.20622 161.532787 
L 316.141311 122.93196 
L 316.628293 120.594958 
L 317.023966 118.70118 
L 317.389202 117.331214 
L 318.758839 112.334865 
L 319.215384 110.844018 
L 319.550184 109.635224 
L 319.976293 108.345844 
L 320.098039 108.063792 
L 320.371966 107.338515 
L 320.402402 107.338515 
L 320.706766 106.532653 
L 320.828511 106.210308 
L 321.072002 105.646204 
L 321.802475 104.517993 
L 322.106839 103.994185 
L 323.506911 102.019818 
L 323.719966 101.616893 
L 323.963457 101.254255 
L 324.572184 100.609558 
L 324.633057 100.569271 
L 324.815675 100.327509 
L 324.967857 100.287213 
L 325.120039 100.126044 
L 325.546148 100.16634 
L 325.69833 100.287213 
L 325.972257 100.528978 
L 326.002693 100.488682 
L 326.03313 100.528978 
L 326.215748 100.730441 
L 326.27662 100.811027 
L 326.550548 101.254255 
L 326.763602 101.65718 
L 327.007093 102.180994 
L 328.772402 107.13705 
L 329.168075 108.668189 
L 329.776802 111.488709 
L 330.324657 114.389815 
L 333.337857 130.910001 
L 334.31182 136.67192 
L 334.555311 138.08218 
L 338.785966 159.921061 
L 339.33382 162.540115 
L 340.064293 165.844152 
L 341.403493 170.719622 
L 342.01222 172.6134 
L 342.255711 173.338677 
L 342.712257 174.708642 
L 343.68622 177.045645 
L 343.747093 177.085937 
L 343.990584 177.650042 
L 344.294948 178.214146 
L 344.568875 178.697663 
L 344.660184 178.778249 
L 344.903675 179.140888 
L 345.481966 179.745284 
L 345.542839 179.745284 
L 345.725457 180.027337 
L 346.242875 180.551147 
L 346.303748 180.591441 
L 346.45593 180.8332 
L 346.486366 180.792907 
L 346.516802 180.8332 
L 346.729857 181.115252 
L 347.612511 182.122579 
L 347.764693 182.203167 
L 348.03862 182.404633 
L 348.221239 182.485218 
L 348.342984 182.565805 
L 348.37342 182.485218 
L 348.434293 182.525512 
L 348.586475 182.565805 
L 349.04302 182.485218 
L 349.164766 182.485218 
L 349.225639 182.485218 
L 349.256075 182.364339 
L 349.347384 182.404633 
L 349.46913 182.444924 
L 349.499566 182.364339 
L 349.560439 182.404633 
L 349.590875 182.444924 
L 349.651748 182.364339 
L 349.986548 182.283752 
L 350.169166 182.203167 
L 350.290911 182.203167 
L 350.321348 182.122579 
L 350.412657 182.162873 
L 351.082257 182.082289 
L 351.356184 181.880822 
L 351.47793 181.800235 
L 351.751857 181.598769 
L 351.843166 181.558476 
L 351.995348 181.397304 
L 352.086657 181.35701 
L 352.269275 181.155544 
L 354.49113 178.375319 
L 354.552002 178.294732 
L 355.008548 177.851508 
L 355.038984 177.851508 
L 355.16073 177.730628 
L 355.282475 177.650042 
L 355.525966 177.48887 
L 355.647711 177.408283 
L 355.891202 177.247111 
L 355.921639 177.287404 
L 355.982511 177.206817 
L 356.256439 177.126231 
L 356.439057 177.005351 
L 356.530366 177.005351 
L 356.652111 176.924765 
L 356.682548 176.965059 
L 356.895602 176.924765 
L 357.017348 176.844179 
L 357.047784 176.884473 
L 357.108657 176.803887 
L 357.50433 176.723299 
L 357.656511 176.642713 
L 357.808693 176.683007 
L 358.021748 176.562127 
L 358.17393 176.481541 
L 358.295675 176.400955 
L 358.326111 176.441248 
L 358.356548 176.400955 
L 358.478293 176.320368 
L 358.660911 176.239782 
L 358.904402 176.07861 
L 359.056584 175.998024 
L 359.239202 175.877144 
L 359.269639 175.917438 
L 359.330511 175.83685 
L 359.634875 175.595091 
L 359.84793 175.514506 
L 360.09142 175.353333 
L 360.274039 175.272747 
L 360.669711 174.910109 
L 360.730584 174.869815 
L 360.943639 174.587764 
L 362.10022 172.895452 
L 362.404584 172.371641 
L 362.86113 171.606071 
L 363.348111 170.598743 
L 363.622039 170.074931 
L 364.017711 169.309362 
L 364.322075 168.785551 
L 364.53513 168.38262 
L 366.726548 165.642687 
L 366.817857 165.562101 
L 367.12222 165.320342 
L 367.243966 165.239755 
L 367.670075 164.836824 
L 367.852693 164.756238 
L 368.096184 164.595065 
L 368.339675 164.514478 
L 368.613602 164.313013 
L 368.704911 164.313013 
L 368.857093 164.15184 
L 369.009275 164.030961 
L 369.283202 163.829496 
L 369.404948 163.829496 
L 369.526693 163.668323 
L 369.55713 163.748909 
L 369.618002 163.708616 
L 369.89193 163.50715 
L 369.983239 163.466857 
L 370.165857 163.265391 
L 370.744148 162.660994 
L 370.835457 162.580408 
L 373.939966 158.309335 
L 374.426948 157.302007 
L 374.609566 156.939369 
L 374.82262 156.536437 
L 378.048875 147.71224 
L 378.474984 146.463152 
L 378.627166 146.140808 
L 378.992402 145.093186 
L 379.114148 144.770841 
L 379.540257 143.441168 
L 379.570693 143.441168 
L 380.057675 141.950322 
L 380.544657 140.378889 
L 381.153384 138.404526 
L 381.731675 136.591334 
L 382.340402 134.61697 
L 382.918693 132.844072 
L 382.918693 132.844072 
" style="fill:none;stroke:#0000ff;stroke-linecap:square;stroke-width:1.5;"/>
   </g>
   <g id="line2d_24">
    <path clip-path="url(#p95cd8c56a6)" d="M 78.555057 154.409927 
L 78.737675 154.409927 
L 81.903057 154.32934 
L 82.024802 154.309194 
L 82.237857 154.32934 
L 88.446875 154.228608 
L 88.65993 154.208461 
L 91.368766 154.148021 
L 91.490511 154.087582 
L 91.67313 154.107728 
L 91.855748 154.107728 
L 96.086402 154.027142 
L 96.238584 154.006995 
L 96.451639 153.986849 
L 96.664693 154.006995 
L 100.073566 154.107728 
L 100.438802 154.228608 
L 100.682293 154.32934 
L 101.686693 155.115057 
L 102.691093 156.626049 
L 103.604184 158.680999 
L 104.425966 161.159027 
L 106.526075 169.902638 
L 107.104366 172.703012 
L 110.148002 186.281799 
L 110.634984 187.772645 
L 111.76113 190.452139 
L 112.917711 191.822106 
L 113.130766 191.781813 
L 113.252511 191.741519 
L 113.496002 191.640787 
L 113.922111 191.258002 
L 114.165602 190.97595 
L 114.835202 189.404517 
L 116.052657 185.012565 
L 116.69182 181.547357 
L 117.909275 173.629753 
L 120.80073 149.816509 
L 122.839966 130.657122 
L 125.853166 105.655229 
L 126.705384 100.699177 
L 127.222802 98.200999 
L 128.592439 92.358494 
L 128.775057 91.754097 
L 129.596839 89.417098 
L 129.84033 89.074603 
L 130.449057 88.550789 
L 130.814293 88.248594 
L 131.057784 88.2083 
L 131.331711 88.309033 
L 131.636075 88.38962 
L 131.818693 88.309033 
L 132.305675 87.845662 
L 132.610039 87.765076 
L 132.85353 87.906099 
L 133.584002 88.26874 
L 133.85793 88.349326 
L 134.131857 88.651528 
L 134.984075 89.61856 
L 135.379748 89.719293 
L 135.714548 90.061788 
L 136.231966 90.847501 
L 136.53633 91.089257 
L 136.749384 91.189996 
L 137.053748 91.512341 
L 138.45382 94.534323 
L 139.184293 97.858507 
L 139.732148 100.457411 
L 140.46262 104.365846 
L 141.375711 109.140586 
L 142.014875 113.089313 
L 143.536693 123.887875 
L 145.606366 139.441026 
L 147.067311 150.884277 
L 150.902293 182.93747 
L 152.758911 195.6701 
L 154.311166 203.325797 
L 155.163384 206.287346 
L 155.650366 207.274524 
L 156.046039 207.838631 
L 156.259093 208.10053 
L 156.53302 208.402732 
L 156.928693 208.563908 
L 157.263493 208.463169 
L 157.689602 208.382589 
L 158.024402 208.10053 
L 158.115711 208.01995 
L 159.241857 206.025437 
L 159.394039 205.803825 
L 161.128911 202.117002 
L 162.437675 198.369741 
L 165.694366 184.992418 
L 166.850948 180.116949 
L 167.124875 179.089474 
L 168.098839 176.228661 
L 168.58582 175.503384 
L 168.798875 175.241479 
L 169.224984 174.858695 
L 169.864148 174.959427 
L 170.01633 175.06016 
L 170.229384 175.140746 
L 170.990293 176.329394 
L 172.329493 180.157242 
L 174.855711 192.38621 
L 175.464439 196.153618 
L 176.468839 202.66096 
L 178.38633 216.078575 
L 179.29942 221.98152 
L 180.63862 227.723292 
L 180.821239 228.146367 
L 181.916948 230.765424 
L 182.099566 230.987036 
L 182.40393 231.369818 
L 182.495239 231.450407 
L 182.890911 231.792902 
L 183.164839 231.692163 
L 183.621384 230.9266 
L 184.930148 226.252592 
L 185.782366 220.57126 
L 186.786766 211.021789 
L 188.156402 194.421013 
L 190.652184 156.464877 
L 193.208839 112.706529 
L 195.308948 81.036122 
L 196.617711 65.966491 
L 197.956911 53.757674 
L 198.961311 46.645931 
L 200.239639 38.889499 
L 200.939675 35.766778 
L 201.426657 34.255788 
L 201.548402 34.054326 
L 201.791893 33.711837 
L 202.218002 33.308899 
L 202.49193 33.127584 
L 202.674548 33.127584 
L 203.16153 33.570798 
L 203.526766 34.074476 
L 203.770257 34.356524 
L 204.257239 35.182527 
L 204.531166 35.968243 
L 205.139893 38.345548 
L 205.870366 42.717347 
L 206.783457 49.647764 
L 208.731384 64.636811 
L 217.314439 131.926356 
L 221.179857 159.285396 
L 221.666839 162.448408 
L 223.49302 173.831219 
L 224.345239 178.908155 
L 225.16702 184.085822 
L 225.83662 187.712206 
L 227.26713 194.703065 
L 229.367239 202.60052 
L 229.884657 203.95034 
L 231.315166 206.569398 
L 231.467348 206.79101 
L 232.684802 208.966833 
L 233.232657 209.853285 
L 233.902257 211.323981 
L 234.96753 213.681133 
L 235.332766 214.507139 
L 236.30673 216.219601 
L 236.489348 216.461357 
L 238.072039 218.375281 
L 238.89382 218.818508 
L 239.106875 218.798362 
L 239.685166 218.697632 
L 239.837348 218.657339 
L 239.98953 218.637189 
L 241.267857 218.737919 
L 241.57222 218.818508 
L 242.120075 218.919238 
L 242.485311 219.06027 
L 242.607057 219.080414 
L 243.641893 219.88628 
L 244.281057 220.873455 
L 244.524548 221.316683 
L 244.615857 221.477859 
L 245.376766 223.190311 
L 247.172511 226.534644 
L 247.35513 226.776403 
L 248.511711 228.126223 
L 249.485675 228.02549 
L 250.216148 227.42109 
L 251.37273 225.708635 
L 251.95102 224.338672 
L 252.833675 221.054774 
L 253.62502 216.884441 
L 254.994657 208.060244 
L 256.364293 196.334937 
L 258.31222 175.886169 
L 261.477602 134.686436 
L 265.464766 80.774213 
L 267.838802 55.228363 
L 269.147566 45.719189 
L 269.756293 42.354709 
L 270.486766 39.896828 
L 271.065057 38.647737 
L 271.765093 38.285099 
L 271.917275 38.305249 
L 272.70862 38.949936 
L 274.078257 42.85837 
L 274.900039 47.189882 
L 275.508766 50.977441 
L 276.239239 56.537894 
L 277.334948 65.321795 
L 278.004548 71.506798 
L 279.374184 85.226605 
L 285.674511 150.783544 
L 289.661675 186.704876 
L 290.605202 193.877056 
L 291.487857 200.041906 
L 293.953202 214.124358 
L 295.018475 217.287372 
L 296.509857 220.007153 
L 297.331639 220.954045 
L 297.453384 220.994338 
L 297.727311 221.095067 
L 298.031675 221.175657 
L 298.427348 221.034631 
L 298.518657 220.994338 
L 299.066511 220.45038 
L 299.127384 220.389941 
L 299.401311 220.087742 
L 300.223093 218.818508 
L 300.649202 217.791037 
L 301.684039 214.748905 
L 302.140584 213.157326 
L 302.50582 211.888089 
L 303.17542 208.785514 
L 303.662402 206.005287 
L 304.879857 197.221386 
L 308.075675 172.723159 
L 310.145348 159.748768 
L 310.814948 156.424584 
L 312.367202 149.735923 
L 313.21942 146.532618 
L 314.132511 142.82565 
L 314.771675 140.347622 
L 315.441275 137.768861 
L 315.867384 136.47948 
L 316.080439 135.854936 
L 316.476111 134.545409 
L 317.23702 132.389726 
L 317.541384 131.563718 
L 318.515348 128.72305 
L 319.276257 126.970299 
L 319.884984 125.318282 
L 320.554584 123.766994 
L 321.437239 121.228527 
L 322.289457 119.314603 
L 322.59382 118.549034 
L 323.141675 117.400679 
L 323.415602 116.856722 
L 324.146075 115.16441 
L 324.785239 113.774297 
L 325.180911 112.766968 
L 326.002693 110.429966 
L 326.672293 108.858534 
L 327.189711 107.790766 
L 327.828875 106.763291 
L 328.194111 106.058161 
L 328.315857 105.856695 
L 328.985457 104.76878 
L 329.928984 103.701012 
L 331.05513 103.076468 
L 331.816039 103.177201 
L 332.089966 103.35852 
L 332.576948 103.801745 
L 334.037893 105.917135 
L 334.64662 107.367688 
L 337.172839 116.111299 
L 338.785966 122.961132 
L 339.820802 128.461146 
L 340.33822 131.382398 
L 341.890475 141.29451 
L 344.416693 158.721293 
L 348.70822 191.922838 
L 349.864802 199.477802 
L 350.71702 204.393565 
L 352.634511 213.963182 
L 353.091057 215.836819 
L 353.517166 217.307516 
L 354.125893 218.959531 
L 354.247639 219.281876 
L 355.130293 221.316683 
L 355.921639 222.666503 
L 356.652111 223.049288 
L 357.199966 222.565773 
L 357.900002 221.457709 
L 359.330511 217.388105 
L 360.304475 212.35146 
L 362.739384 195.508928 
L 363.926402 186.080333 
L 370.257166 130.657122 
L 371.505057 119.375043 
L 372.387711 112.726675 
L 374.731311 97.939093 
L 375.218293 95.682674 
L 376.405311 91.391458 
L 376.679239 90.605745 
L 377.440148 88.470209 
L 378.079311 87.080093 
L 378.50542 86.475695 
L 378.627166 86.374966 
L 379.296766 86.052621 
L 379.692439 86.153354 
L 380.727275 86.95921 
L 381.366439 87.986688 
L 381.94473 89.215629 
L 382.370839 90.303544 
L 382.796948 91.592921 
L 382.918693 91.955559 
L 382.918693 91.955559 
" style="fill:none;stroke:#ff0000;stroke-linecap:square;stroke-width:1.5;"/>
   </g>
   <g id="line2d_25">
    <path clip-path="url(#p95cd8c56a6)" d="M 123.753057 162.86246 
" style="fill:none;stroke:#ffffff;stroke-linecap:square;stroke-width:1.5;"/>
    <defs>
     <path d="M 0 -5 
L -1.12257 -1.545085 
L -4.755283 -1.545085 
L -1.816356 0.59017 
L -2.938926 4.045085 
L -0 1.90983 
L 2.938926 4.045085 
L 1.816356 0.59017 
L 4.755283 -1.545085 
L 1.12257 -1.545085 
z
" id="m79bd8f5b8a" style="stroke:#ffffff;stroke-linejoin:bevel;"/>
    </defs>
    <g clip-path="url(#p95cd8c56a6)">
     <use style="fill:#0000ff;stroke:#ffffff;stroke-linejoin:bevel;" x="123.753057" xlink:href="#m79bd8f5b8a" y="162.86246"/>
    </g>
   </g>
   <g id="line2d_26">
    <path clip-path="url(#p95cd8c56a6)" d="M 104.182475 160.413604 
" style="fill:none;stroke:#ffffff;stroke-linecap:square;stroke-width:1.5;"/>
    <defs>
     <path d="M 0 -5 
L -1.12257 -1.545085 
L -4.755283 -1.545085 
L -1.816356 0.59017 
L -2.938926 4.045085 
L -0 1.90983 
L 2.938926 4.045085 
L 1.816356 0.59017 
L 4.755283 -1.545085 
L 1.12257 -1.545085 
z
" id="m461b0fd1bb" style="stroke:#ffffff;stroke-linejoin:bevel;"/>
    </defs>
    <g clip-path="url(#p95cd8c56a6)">
     <use style="fill:#ff0000;stroke:#ffffff;stroke-linejoin:bevel;" x="104.182475" xlink:href="#m461b0fd1bb" y="160.413604"/>
    </g>
   </g>
   <g id="patch_3">
    <path d="M 63.336875 339.84 
L 63.336875 7.2 
" style="fill:none;stroke:#000000;stroke-linecap:square;stroke-linejoin:miter;stroke-width:0.8;"/>
   </g>
   <g id="patch_4">
    <path d="M 398.136875 339.84 
L 398.136875 7.2 
" style="fill:none;stroke:#000000;stroke-linecap:square;stroke-linejoin:miter;stroke-width:0.8;"/>
   </g>
   <g id="patch_5">
    <path d="M 63.336875 339.84 
L 398.136875 339.84 
" style="fill:none;stroke:#000000;stroke-linecap:square;stroke-linejoin:miter;stroke-width:0.8;"/>
   </g>
   <g id="patch_6">
    <path d="M 63.336875 7.2 
L 398.136875 7.2 
" style="fill:none;stroke:#000000;stroke-linecap:square;stroke-linejoin:miter;stroke-width:0.8;"/>
   </g>
   <g id="text_14">
    <g id="patch_7">
     <path d="M 75.036875 331.242688 
L 166.79375 331.242688 
L 166.79375 293.760312 
L 75.036875 293.760312 
z
" style="fill:#ffffff;stroke:#000000;stroke-linejoin:miter;stroke-width:0.75;"/>
    </g>
    <!-- Auto_00157 -->
    <g transform="translate(80.076875 308.521563)scale(0.14 -0.14)">
     <defs>
      <path d="M 2928 1419 
L 1288 1419 
L 1000 750 
Q 894 503 894 381 
Q 894 284 986 211 
Q 1078 138 1384 116 
L 1384 0 
L 50 0 
L 50 116 
Q 316 163 394 238 
Q 553 388 747 847 
L 2238 4334 
L 2347 4334 
L 3822 809 
Q 4000 384 4145 257 
Q 4291 131 4550 116 
L 4550 0 
L 2878 0 
L 2878 116 
Q 3131 128 3220 200 
Q 3309 272 3309 375 
Q 3309 513 3184 809 
L 2928 1419 
z
M 2841 1650 
L 2122 3363 
L 1384 1650 
L 2841 1650 
z
" id="TimesNewRomanPSMT-41" transform="scale(0.015625)"/>
      <path d="M 2709 2863 
L 2709 1128 
Q 2709 631 2732 520 
Q 2756 409 2807 365 
Q 2859 322 2928 322 
Q 3025 322 3147 375 
L 3191 266 
L 2334 -88 
L 2194 -88 
L 2194 519 
Q 1825 119 1631 15 
Q 1438 -88 1222 -88 
Q 981 -88 804 51 
Q 628 191 559 409 
Q 491 628 491 1028 
L 491 2306 
Q 491 2509 447 2587 
Q 403 2666 317 2708 
Q 231 2750 6 2747 
L 6 2863 
L 1009 2863 
L 1009 947 
Q 1009 547 1148 422 
Q 1288 297 1484 297 
Q 1619 297 1789 381 
Q 1959 466 2194 703 
L 2194 2325 
Q 2194 2569 2105 2655 
Q 2016 2741 1734 2747 
L 1734 2863 
L 2709 2863 
z
" id="TimesNewRomanPSMT-75" transform="scale(0.015625)"/>
      <path d="M 3256 -1381 
L -53 -1381 
L -53 -1119 
L 3256 -1119 
L 3256 -1381 
z
" id="TimesNewRomanPSMT-5f" transform="scale(0.015625)"/>
      <path d="M 644 4238 
L 2916 4238 
L 2916 4119 
L 1503 -88 
L 1153 -88 
L 2419 3728 
L 1253 3728 
Q 900 3728 750 3644 
Q 488 3500 328 3200 
L 238 3234 
L 644 4238 
z
" id="TimesNewRomanPSMT-37" transform="scale(0.015625)"/>
     </defs>
     <use xlink:href="#TimesNewRomanPSMT-41"/>
     <use x="72.216797" xlink:href="#TimesNewRomanPSMT-75"/>
     <use x="122.216797" xlink:href="#TimesNewRomanPSMT-74"/>
     <use x="150" xlink:href="#TimesNewRomanPSMT-6f"/>
     <use x="200" xlink:href="#TimesNewRomanPSMT-5f"/>
     <use x="250" xlink:href="#TimesNewRomanPSMT-30"/>
     <use x="300" xlink:href="#TimesNewRomanPSMT-30"/>
     <use x="350" xlink:href="#TimesNewRomanPSMT-31"/>
     <use x="400" xlink:href="#TimesNewRomanPSMT-35"/>
     <use x="450" xlink:href="#TimesNewRomanPSMT-37"/>
    </g>
    <!-- Vs: 310.82m/s -->
    <g transform="translate(80.076875 323.208)scale(0.14 -0.14)">
     <defs>
      <path d="M 903 2950 
Q 1047 2950 1148 2848 
Q 1250 2747 1250 2603 
Q 1250 2459 1148 2357 
Q 1047 2256 903 2256 
Q 759 2256 657 2357 
Q 556 2459 556 2603 
Q 556 2747 657 2848 
Q 759 2950 903 2950 
z
M 897 609 
Q 1044 609 1145 506 
Q 1247 403 1247 259 
Q 1247 116 1144 14 
Q 1041 -88 897 -88 
Q 753 -88 651 14 
Q 550 116 550 259 
Q 550 403 651 506 
Q 753 609 897 609 
z
" id="TimesNewRomanPSMT-3a" transform="scale(0.015625)"/>
      <path d="M 1228 2134 
Q 725 2547 579 2797 
Q 434 3047 434 3316 
Q 434 3728 753 4026 
Q 1072 4325 1600 4325 
Q 2113 4325 2425 4047 
Q 2738 3769 2738 3413 
Q 2738 3175 2569 2928 
Q 2400 2681 1866 2347 
Q 2416 1922 2594 1678 
Q 2831 1359 2831 1006 
Q 2831 559 2490 242 
Q 2150 -75 1597 -75 
Q 994 -75 656 303 
Q 388 606 388 966 
Q 388 1247 577 1523 
Q 766 1800 1228 2134 
z
M 1719 2469 
Q 2094 2806 2194 3001 
Q 2294 3197 2294 3444 
Q 2294 3772 2109 3958 
Q 1925 4144 1606 4144 
Q 1288 4144 1088 3959 
Q 888 3775 888 3528 
Q 888 3366 970 3203 
Q 1053 3041 1206 2894 
L 1719 2469 
z
M 1375 2016 
Q 1116 1797 991 1539 
Q 866 1281 866 981 
Q 866 578 1086 336 
Q 1306 94 1647 94 
Q 1984 94 2187 284 
Q 2391 475 2391 747 
Q 2391 972 2272 1150 
Q 2050 1481 1375 2016 
z
" id="TimesNewRomanPSMT-38" transform="scale(0.015625)"/>
      <path d="M 1794 4444 
L 259 -88 
L 9 -88 
L 1544 4444 
L 1794 4444 
z
" id="TimesNewRomanPSMT-2f" transform="scale(0.015625)"/>
     </defs>
     <use xlink:href="#TimesNewRomanPSMT-56"/>
     <use x="72.216797" xlink:href="#TimesNewRomanPSMT-73"/>
     <use x="111.132812" xlink:href="#TimesNewRomanPSMT-3a"/>
     <use x="138.916016" xlink:href="#TimesNewRomanPSMT-20"/>
     <use x="163.916016" xlink:href="#TimesNewRomanPSMT-33"/>
     <use x="213.916016" xlink:href="#TimesNewRomanPSMT-31"/>
     <use x="263.916016" xlink:href="#TimesNewRomanPSMT-30"/>
     <use x="313.916016" xlink:href="#TimesNewRomanPSMT-2e"/>
     <use x="338.916016" xlink:href="#TimesNewRomanPSMT-38"/>
     <use x="388.916016" xlink:href="#TimesNewRomanPSMT-32"/>
     <use x="438.916016" xlink:href="#TimesNewRomanPSMT-6d"/>
     <use x="516.699219" xlink:href="#TimesNewRomanPSMT-2f"/>
     <use x="544.482422" xlink:href="#TimesNewRomanPSMT-73"/>
    </g>
   </g>
  </g>
 </g>
 <defs>
  <clipPath id="p95cd8c56a6">
   <rect height="332.64" width="334.8" x="63.336875" y="7.2"/>
  </clipPath>
 </defs>
</svg>
