<?xml version="1.0" encoding="utf-8" standalone="no"?>
<!DOCTYPE svg PUBLIC "-//W3C//DTD SVG 1.1//EN"
  "http://www.w3.org/Graphics/SVG/1.1/DTD/svg11.dtd">
<svg height="386.386587pt" version="1.1" viewBox="0 0 421.086875 386.386587" width="421.086875pt" xmlns="http://www.w3.org/2000/svg" xmlns:xlink="http://www.w3.org/1999/xlink">
 <metadata>
  <rdf:RDF xmlns:cc="http://creativecommons.org/ns#" xmlns:dc="http://purl.org/dc/elements/1.1/" xmlns:rdf="http://www.w3.org/1999/02/22-rdf-syntax-ns#">
   <cc:Work>
    <dc:type rdf:resource="http://purl.org/dc/dcmitype/StillImage"/>
    <dc:date>2021-06-11T14:39:38.365504</dc:date>
    <dc:format>image/svg+xml</dc:format>
    <dc:creator>
     <cc:Agent>
      <dc:title>Matplotlib v3.4.2, https://matplotlib.org/</dc:title>
     </cc:Agent>
    </dc:creator>
   </cc:Work>
  </rdf:RDF>
 </metadata>
 <defs>
  <style type="text/css">*{stroke-linecap:butt;stroke-linejoin:round;}</style>
 </defs>
 <g id="figure_1">
  <g id="patch_1">
   <path d="M 0 386.386587 
L 421.086875 386.386587 
L 421.086875 0 
L 0 0 
z
" style="fill:#ffffff;"/>
  </g>
  <g id="axes_1">
   <g id="patch_2">
    <path d="M 63.336875 342.754712 
L 398.136875 342.754712 
L 398.136875 10.114712 
L 63.336875 10.114712 
z
" style="fill:#ffffff;"/>
   </g>
   <g id="matplotlib.axis_1">
    <g id="xtick_1">
     <g id="line2d_1">
      <path clip-path="url(#p9d15d20369)" d="M 93.773239 342.754712 
L 93.773239 10.114712 
" style="fill:none;stroke:#000000;stroke-dasharray:0.5,0.825;stroke-dashoffset:0;stroke-width:0.5;"/>
     </g>
     <g id="line2d_2">
      <defs>
       <path d="M 0 0 
L 0 3.5 
" id="mc9ba903797" style="stroke:#000000;stroke-width:0.8;"/>
      </defs>
      <g>
       <use style="stroke:#000000;stroke-width:0.8;" x="93.773239" xlink:href="#mc9ba903797" y="342.754712"/>
      </g>
     </g>
     <g id="text_1">
      <!-- 0.000 -->
      <g transform="translate(78.023239 359.475962)scale(0.14 -0.14)">
       <defs>
        <path d="M 231 2094 
Q 231 2819 450 3342 
Q 669 3866 1031 4122 
Q 1313 4325 1613 4325 
Q 2100 4325 2488 3828 
Q 2972 3213 2972 2159 
Q 2972 1422 2759 906 
Q 2547 391 2217 158 
Q 1888 -75 1581 -75 
Q 975 -75 572 641 
Q 231 1244 231 2094 
z
M 844 2016 
Q 844 1141 1059 588 
Q 1238 122 1591 122 
Q 1759 122 1940 273 
Q 2122 425 2216 781 
Q 2359 1319 2359 2297 
Q 2359 3022 2209 3506 
Q 2097 3866 1919 4016 
Q 1791 4119 1609 4119 
Q 1397 4119 1231 3928 
Q 1006 3669 925 3112 
Q 844 2556 844 2016 
z
" id="TimesNewRomanPSMT-30" transform="scale(0.015625)"/>
        <path d="M 800 606 
Q 947 606 1047 504 
Q 1147 403 1147 259 
Q 1147 116 1045 14 
Q 944 -88 800 -88 
Q 656 -88 554 14 
Q 453 116 453 259 
Q 453 406 554 506 
Q 656 606 800 606 
z
" id="TimesNewRomanPSMT-2e" transform="scale(0.015625)"/>
       </defs>
       <use xlink:href="#TimesNewRomanPSMT-30"/>
       <use x="50" xlink:href="#TimesNewRomanPSMT-2e"/>
       <use x="75" xlink:href="#TimesNewRomanPSMT-30"/>
       <use x="125" xlink:href="#TimesNewRomanPSMT-30"/>
       <use x="175" xlink:href="#TimesNewRomanPSMT-30"/>
      </g>
     </g>
    </g>
    <g id="xtick_2">
     <g id="line2d_3">
      <path clip-path="url(#p9d15d20369)" d="M 154.645966 342.754712 
L 154.645966 10.114712 
" style="fill:none;stroke:#000000;stroke-dasharray:0.5,0.825;stroke-dashoffset:0;stroke-width:0.5;"/>
     </g>
     <g id="line2d_4">
      <g>
       <use style="stroke:#000000;stroke-width:0.8;" x="154.645966" xlink:href="#mc9ba903797" y="342.754712"/>
      </g>
     </g>
     <g id="text_2">
      <!-- 0.001 -->
      <g transform="translate(138.895966 359.475962)scale(0.14 -0.14)">
       <defs>
        <path d="M 750 3822 
L 1781 4325 
L 1884 4325 
L 1884 747 
Q 1884 391 1914 303 
Q 1944 216 2037 169 
Q 2131 122 2419 116 
L 2419 0 
L 825 0 
L 825 116 
Q 1125 122 1212 167 
Q 1300 213 1334 289 
Q 1369 366 1369 747 
L 1369 3034 
Q 1369 3497 1338 3628 
Q 1316 3728 1258 3775 
Q 1200 3822 1119 3822 
Q 1003 3822 797 3725 
L 750 3822 
z
" id="TimesNewRomanPSMT-31" transform="scale(0.015625)"/>
       </defs>
       <use xlink:href="#TimesNewRomanPSMT-30"/>
       <use x="50" xlink:href="#TimesNewRomanPSMT-2e"/>
       <use x="75" xlink:href="#TimesNewRomanPSMT-30"/>
       <use x="125" xlink:href="#TimesNewRomanPSMT-30"/>
       <use x="175" xlink:href="#TimesNewRomanPSMT-31"/>
      </g>
     </g>
    </g>
    <g id="xtick_3">
     <g id="line2d_5">
      <path clip-path="url(#p9d15d20369)" d="M 215.518693 342.754712 
L 215.518693 10.114712 
" style="fill:none;stroke:#000000;stroke-dasharray:0.5,0.825;stroke-dashoffset:0;stroke-width:0.5;"/>
     </g>
     <g id="line2d_6">
      <g>
       <use style="stroke:#000000;stroke-width:0.8;" x="215.518693" xlink:href="#mc9ba903797" y="342.754712"/>
      </g>
     </g>
     <g id="text_3">
      <!-- 0.002 -->
      <g transform="translate(199.768693 359.475962)scale(0.14 -0.14)">
       <defs>
        <path d="M 2934 816 
L 2638 0 
L 138 0 
L 138 116 
Q 1241 1122 1691 1759 
Q 2141 2397 2141 2925 
Q 2141 3328 1894 3587 
Q 1647 3847 1303 3847 
Q 991 3847 742 3664 
Q 494 3481 375 3128 
L 259 3128 
Q 338 3706 661 4015 
Q 984 4325 1469 4325 
Q 1984 4325 2329 3994 
Q 2675 3663 2675 3213 
Q 2675 2891 2525 2569 
Q 2294 2063 1775 1497 
Q 997 647 803 472 
L 1909 472 
Q 2247 472 2383 497 
Q 2519 522 2628 598 
Q 2738 675 2819 816 
L 2934 816 
z
" id="TimesNewRomanPSMT-32" transform="scale(0.015625)"/>
       </defs>
       <use xlink:href="#TimesNewRomanPSMT-30"/>
       <use x="50" xlink:href="#TimesNewRomanPSMT-2e"/>
       <use x="75" xlink:href="#TimesNewRomanPSMT-30"/>
       <use x="125" xlink:href="#TimesNewRomanPSMT-30"/>
       <use x="175" xlink:href="#TimesNewRomanPSMT-32"/>
      </g>
     </g>
    </g>
    <g id="xtick_4">
     <g id="line2d_7">
      <path clip-path="url(#p9d15d20369)" d="M 276.39142 342.754712 
L 276.39142 10.114712 
" style="fill:none;stroke:#000000;stroke-dasharray:0.5,0.825;stroke-dashoffset:0;stroke-width:0.5;"/>
     </g>
     <g id="line2d_8">
      <g>
       <use style="stroke:#000000;stroke-width:0.8;" x="276.39142" xlink:href="#mc9ba903797" y="342.754712"/>
      </g>
     </g>
     <g id="text_4">
      <!-- 0.003 -->
      <g transform="translate(260.64142 359.475962)scale(0.14 -0.14)">
       <defs>
        <path d="M 325 3431 
Q 506 3859 782 4092 
Q 1059 4325 1472 4325 
Q 1981 4325 2253 3994 
Q 2459 3747 2459 3466 
Q 2459 3003 1878 2509 
Q 2269 2356 2469 2072 
Q 2669 1788 2669 1403 
Q 2669 853 2319 450 
Q 1863 -75 997 -75 
Q 569 -75 414 31 
Q 259 138 259 259 
Q 259 350 332 419 
Q 406 488 509 488 
Q 588 488 669 463 
Q 722 447 909 348 
Q 1097 250 1169 231 
Q 1284 197 1416 197 
Q 1734 197 1970 444 
Q 2206 691 2206 1028 
Q 2206 1275 2097 1509 
Q 2016 1684 1919 1775 
Q 1784 1900 1550 2001 
Q 1316 2103 1072 2103 
L 972 2103 
L 972 2197 
Q 1219 2228 1467 2375 
Q 1716 2522 1828 2728 
Q 1941 2934 1941 3181 
Q 1941 3503 1739 3701 
Q 1538 3900 1238 3900 
Q 753 3900 428 3381 
L 325 3431 
z
" id="TimesNewRomanPSMT-33" transform="scale(0.015625)"/>
       </defs>
       <use xlink:href="#TimesNewRomanPSMT-30"/>
       <use x="50" xlink:href="#TimesNewRomanPSMT-2e"/>
       <use x="75" xlink:href="#TimesNewRomanPSMT-30"/>
       <use x="125" xlink:href="#TimesNewRomanPSMT-30"/>
       <use x="175" xlink:href="#TimesNewRomanPSMT-33"/>
      </g>
     </g>
    </g>
    <g id="xtick_5">
     <g id="line2d_9">
      <path clip-path="url(#p9d15d20369)" d="M 337.264148 342.754712 
L 337.264148 10.114712 
" style="fill:none;stroke:#000000;stroke-dasharray:0.5,0.825;stroke-dashoffset:0;stroke-width:0.5;"/>
     </g>
     <g id="line2d_10">
      <g>
       <use style="stroke:#000000;stroke-width:0.8;" x="337.264148" xlink:href="#mc9ba903797" y="342.754712"/>
      </g>
     </g>
     <g id="text_5">
      <!-- 0.004 -->
      <g transform="translate(321.514148 359.475962)scale(0.14 -0.14)">
       <defs>
        <path d="M 2978 1563 
L 2978 1119 
L 2409 1119 
L 2409 0 
L 1894 0 
L 1894 1119 
L 100 1119 
L 100 1519 
L 2066 4325 
L 2409 4325 
L 2409 1563 
L 2978 1563 
z
M 1894 1563 
L 1894 3666 
L 406 1563 
L 1894 1563 
z
" id="TimesNewRomanPSMT-34" transform="scale(0.015625)"/>
       </defs>
       <use xlink:href="#TimesNewRomanPSMT-30"/>
       <use x="50" xlink:href="#TimesNewRomanPSMT-2e"/>
       <use x="75" xlink:href="#TimesNewRomanPSMT-30"/>
       <use x="125" xlink:href="#TimesNewRomanPSMT-30"/>
       <use x="175" xlink:href="#TimesNewRomanPSMT-34"/>
      </g>
     </g>
    </g>
    <g id="xtick_6">
     <g id="line2d_11">
      <path clip-path="url(#p9d15d20369)" d="M 398.136875 342.754712 
L 398.136875 10.114712 
" style="fill:none;stroke:#000000;stroke-dasharray:0.5,0.825;stroke-dashoffset:0;stroke-width:0.5;"/>
     </g>
     <g id="line2d_12">
      <g>
       <use style="stroke:#000000;stroke-width:0.8;" x="398.136875" xlink:href="#mc9ba903797" y="342.754712"/>
      </g>
     </g>
     <g id="text_6">
      <!-- 0.005 -->
      <g transform="translate(382.386875 359.475962)scale(0.14 -0.14)">
       <defs>
        <path d="M 2778 4238 
L 2534 3706 
L 1259 3706 
L 981 3138 
Q 1809 3016 2294 2522 
Q 2709 2097 2709 1522 
Q 2709 1188 2573 903 
Q 2438 619 2231 419 
Q 2025 219 1772 97 
Q 1413 -75 1034 -75 
Q 653 -75 479 54 
Q 306 184 306 341 
Q 306 428 378 495 
Q 450 563 559 563 
Q 641 563 702 538 
Q 763 513 909 409 
Q 1144 247 1384 247 
Q 1750 247 2026 523 
Q 2303 800 2303 1197 
Q 2303 1581 2056 1914 
Q 1809 2247 1375 2428 
Q 1034 2569 447 2591 
L 1259 4238 
L 2778 4238 
z
" id="TimesNewRomanPSMT-35" transform="scale(0.015625)"/>
       </defs>
       <use xlink:href="#TimesNewRomanPSMT-30"/>
       <use x="50" xlink:href="#TimesNewRomanPSMT-2e"/>
       <use x="75" xlink:href="#TimesNewRomanPSMT-30"/>
       <use x="125" xlink:href="#TimesNewRomanPSMT-30"/>
       <use x="175" xlink:href="#TimesNewRomanPSMT-35"/>
      </g>
     </g>
    </g>
    <g id="text_7">
     <!-- Time (sec) -->
     <g transform="translate(200.858906 376.191899)scale(0.14 -0.14)">
      <defs>
       <path d="M 3703 4238 
L 3750 3244 
L 3631 3244 
Q 3597 3506 3538 3619 
Q 3441 3800 3280 3886 
Q 3119 3972 2856 3972 
L 2259 3972 
L 2259 734 
Q 2259 344 2344 247 
Q 2463 116 2709 116 
L 2856 116 
L 2856 0 
L 1059 0 
L 1059 116 
L 1209 116 
Q 1478 116 1591 278 
Q 1659 378 1659 734 
L 1659 3972 
L 1150 3972 
Q 853 3972 728 3928 
Q 566 3869 450 3700 
Q 334 3531 313 3244 
L 194 3244 
L 244 4238 
L 3703 4238 
z
" id="TimesNewRomanPSMT-54" transform="scale(0.015625)"/>
       <path d="M 928 4444 
Q 1059 4444 1151 4351 
Q 1244 4259 1244 4128 
Q 1244 3997 1151 3903 
Q 1059 3809 928 3809 
Q 797 3809 703 3903 
Q 609 3997 609 4128 
Q 609 4259 701 4351 
Q 794 4444 928 4444 
z
M 1188 2947 
L 1188 647 
Q 1188 378 1227 289 
Q 1266 200 1342 156 
Q 1419 113 1622 113 
L 1622 0 
L 231 0 
L 231 113 
Q 441 113 512 153 
Q 584 194 626 287 
Q 669 381 669 647 
L 669 1750 
Q 669 2216 641 2353 
Q 619 2453 572 2492 
Q 525 2531 444 2531 
Q 356 2531 231 2484 
L 188 2597 
L 1050 2947 
L 1188 2947 
z
" id="TimesNewRomanPSMT-69" transform="scale(0.015625)"/>
       <path d="M 1050 2338 
Q 1363 2650 1419 2697 
Q 1559 2816 1721 2881 
Q 1884 2947 2044 2947 
Q 2313 2947 2506 2790 
Q 2700 2634 2766 2338 
Q 3088 2713 3309 2830 
Q 3531 2947 3766 2947 
Q 3994 2947 4170 2830 
Q 4347 2713 4450 2447 
Q 4519 2266 4519 1878 
L 4519 647 
Q 4519 378 4559 278 
Q 4591 209 4675 161 
Q 4759 113 4950 113 
L 4950 0 
L 3538 0 
L 3538 113 
L 3597 113 
Q 3781 113 3884 184 
Q 3956 234 3988 344 
Q 4000 397 4000 647 
L 4000 1878 
Q 4000 2228 3916 2372 
Q 3794 2572 3525 2572 
Q 3359 2572 3192 2489 
Q 3025 2406 2788 2181 
L 2781 2147 
L 2788 2013 
L 2788 647 
Q 2788 353 2820 281 
Q 2853 209 2943 161 
Q 3034 113 3253 113 
L 3253 0 
L 1806 0 
L 1806 113 
Q 2044 113 2133 169 
Q 2222 225 2256 338 
Q 2272 391 2272 647 
L 2272 1878 
Q 2272 2228 2169 2381 
Q 2031 2581 1784 2581 
Q 1616 2581 1450 2491 
Q 1191 2353 1050 2181 
L 1050 647 
Q 1050 366 1089 281 
Q 1128 197 1204 155 
Q 1281 113 1516 113 
L 1516 0 
L 100 0 
L 100 113 
Q 297 113 375 155 
Q 453 197 493 289 
Q 534 381 534 647 
L 534 1741 
Q 534 2213 506 2350 
Q 484 2453 437 2492 
Q 391 2531 309 2531 
Q 222 2531 100 2484 
L 53 2597 
L 916 2947 
L 1050 2947 
L 1050 2338 
z
" id="TimesNewRomanPSMT-6d" transform="scale(0.015625)"/>
       <path d="M 681 1784 
Q 678 1147 991 784 
Q 1303 422 1725 422 
Q 2006 422 2214 576 
Q 2422 731 2563 1106 
L 2659 1044 
Q 2594 616 2278 264 
Q 1963 -88 1488 -88 
Q 972 -88 605 314 
Q 238 716 238 1394 
Q 238 2128 614 2539 
Q 991 2950 1559 2950 
Q 2041 2950 2350 2633 
Q 2659 2316 2659 1784 
L 681 1784 
z
M 681 1966 
L 2006 1966 
Q 1991 2241 1941 2353 
Q 1863 2528 1708 2628 
Q 1553 2728 1384 2728 
Q 1125 2728 920 2526 
Q 716 2325 681 1966 
z
" id="TimesNewRomanPSMT-65" transform="scale(0.015625)"/>
       <path id="TimesNewRomanPSMT-20" transform="scale(0.015625)"/>
       <path d="M 1988 -1253 
L 1988 -1369 
Q 1516 -1131 1200 -813 
Q 750 -359 506 256 
Q 263 872 263 1534 
Q 263 2503 741 3301 
Q 1219 4100 1988 4444 
L 1988 4313 
Q 1603 4100 1356 3731 
Q 1109 3363 987 2797 
Q 866 2231 866 1616 
Q 866 947 969 400 
Q 1050 -31 1165 -292 
Q 1281 -553 1476 -793 
Q 1672 -1034 1988 -1253 
z
" id="TimesNewRomanPSMT-28" transform="scale(0.015625)"/>
       <path d="M 2050 2947 
L 2050 1972 
L 1947 1972 
Q 1828 2431 1642 2597 
Q 1456 2763 1169 2763 
Q 950 2763 815 2647 
Q 681 2531 681 2391 
Q 681 2216 781 2091 
Q 878 1963 1175 1819 
L 1631 1597 
Q 2266 1288 2266 781 
Q 2266 391 1970 151 
Q 1675 -88 1309 -88 
Q 1047 -88 709 6 
Q 606 38 541 38 
Q 469 38 428 -44 
L 325 -44 
L 325 978 
L 428 978 
Q 516 541 762 319 
Q 1009 97 1316 97 
Q 1531 97 1667 223 
Q 1803 350 1803 528 
Q 1803 744 1651 891 
Q 1500 1038 1047 1263 
Q 594 1488 453 1669 
Q 313 1847 313 2119 
Q 313 2472 555 2709 
Q 797 2947 1181 2947 
Q 1350 2947 1591 2875 
Q 1750 2828 1803 2828 
Q 1853 2828 1881 2850 
Q 1909 2872 1947 2947 
L 2050 2947 
z
" id="TimesNewRomanPSMT-73" transform="scale(0.015625)"/>
       <path d="M 2631 1088 
Q 2516 522 2178 217 
Q 1841 -88 1431 -88 
Q 944 -88 581 321 
Q 219 731 219 1428 
Q 219 2103 620 2525 
Q 1022 2947 1584 2947 
Q 2006 2947 2278 2723 
Q 2550 2500 2550 2259 
Q 2550 2141 2473 2067 
Q 2397 1994 2259 1994 
Q 2075 1994 1981 2113 
Q 1928 2178 1911 2362 
Q 1894 2547 1784 2644 
Q 1675 2738 1481 2738 
Q 1169 2738 978 2506 
Q 725 2200 725 1697 
Q 725 1184 976 792 
Q 1228 400 1656 400 
Q 1963 400 2206 609 
Q 2378 753 2541 1131 
L 2631 1088 
z
" id="TimesNewRomanPSMT-63" transform="scale(0.015625)"/>
       <path d="M 144 4313 
L 144 4444 
Q 619 4209 934 3891 
Q 1381 3434 1625 2820 
Q 1869 2206 1869 1541 
Q 1869 572 1392 -226 
Q 916 -1025 144 -1369 
L 144 -1253 
Q 528 -1038 776 -670 
Q 1025 -303 1145 264 
Q 1266 831 1266 1447 
Q 1266 2113 1163 2663 
Q 1084 3094 967 3353 
Q 850 3613 656 3853 
Q 463 4094 144 4313 
z
" id="TimesNewRomanPSMT-29" transform="scale(0.015625)"/>
      </defs>
      <use xlink:href="#TimesNewRomanPSMT-54"/>
      <use x="57.583984" xlink:href="#TimesNewRomanPSMT-69"/>
      <use x="85.367188" xlink:href="#TimesNewRomanPSMT-6d"/>
      <use x="163.150391" xlink:href="#TimesNewRomanPSMT-65"/>
      <use x="207.535156" xlink:href="#TimesNewRomanPSMT-20"/>
      <use x="232.535156" xlink:href="#TimesNewRomanPSMT-28"/>
      <use x="265.835938" xlink:href="#TimesNewRomanPSMT-73"/>
      <use x="304.751953" xlink:href="#TimesNewRomanPSMT-65"/>
      <use x="349.136719" xlink:href="#TimesNewRomanPSMT-63"/>
      <use x="393.521484" xlink:href="#TimesNewRomanPSMT-29"/>
     </g>
    </g>
   </g>
   <g id="matplotlib.axis_2">
    <g id="ytick_1">
     <g id="line2d_13">
      <path clip-path="url(#p9d15d20369)" d="M 63.336875 306.691025 
L 398.136875 306.691025 
" style="fill:none;stroke:#000000;stroke-dasharray:0.5,0.825;stroke-dashoffset:0;stroke-width:0.5;"/>
     </g>
     <g id="line2d_14">
      <defs>
       <path d="M 0 0 
L -3.5 0 
" id="me44b5e2832" style="stroke:#000000;stroke-width:0.8;"/>
      </defs>
      <g>
       <use style="stroke:#000000;stroke-width:0.8;" x="63.336875" xlink:href="#me44b5e2832" y="306.691025"/>
      </g>
     </g>
     <g id="text_8">
      <!-- −0.06 -->
      <g transform="translate(23.942188 311.55165)scale(0.14 -0.14)">
       <defs>
        <path d="M 3484 2000 
L 116 2000 
L 116 2256 
L 3484 2256 
L 3484 2000 
z
" id="TimesNewRomanPSMT-2212" transform="scale(0.015625)"/>
        <path d="M 2869 4325 
L 2869 4209 
Q 2456 4169 2195 4045 
Q 1934 3922 1679 3669 
Q 1425 3416 1258 3105 
Q 1091 2794 978 2366 
Q 1428 2675 1881 2675 
Q 2316 2675 2634 2325 
Q 2953 1975 2953 1425 
Q 2953 894 2631 456 
Q 2244 -75 1606 -75 
Q 1172 -75 869 213 
Q 275 772 275 1663 
Q 275 2231 503 2743 
Q 731 3256 1154 3653 
Q 1578 4050 1965 4187 
Q 2353 4325 2688 4325 
L 2869 4325 
z
M 925 2138 
Q 869 1716 869 1456 
Q 869 1156 980 804 
Q 1091 453 1309 247 
Q 1469 100 1697 100 
Q 1969 100 2183 356 
Q 2397 613 2397 1088 
Q 2397 1622 2184 2012 
Q 1972 2403 1581 2403 
Q 1463 2403 1327 2353 
Q 1191 2303 925 2138 
z
" id="TimesNewRomanPSMT-36" transform="scale(0.015625)"/>
       </defs>
       <use xlink:href="#TimesNewRomanPSMT-2212"/>
       <use x="56.396484" xlink:href="#TimesNewRomanPSMT-30"/>
       <use x="106.396484" xlink:href="#TimesNewRomanPSMT-2e"/>
       <use x="131.396484" xlink:href="#TimesNewRomanPSMT-30"/>
       <use x="181.396484" xlink:href="#TimesNewRomanPSMT-36"/>
      </g>
     </g>
    </g>
    <g id="ytick_2">
     <g id="line2d_15">
      <path clip-path="url(#p9d15d20369)" d="M 63.336875 257.585958 
L 398.136875 257.585958 
" style="fill:none;stroke:#000000;stroke-dasharray:0.5,0.825;stroke-dashoffset:0;stroke-width:0.5;"/>
     </g>
     <g id="line2d_16">
      <g>
       <use style="stroke:#000000;stroke-width:0.8;" x="63.336875" xlink:href="#me44b5e2832" y="257.585958"/>
      </g>
     </g>
     <g id="text_9">
      <!-- −0.04 -->
      <g transform="translate(23.942188 262.446583)scale(0.14 -0.14)">
       <use xlink:href="#TimesNewRomanPSMT-2212"/>
       <use x="56.396484" xlink:href="#TimesNewRomanPSMT-30"/>
       <use x="106.396484" xlink:href="#TimesNewRomanPSMT-2e"/>
       <use x="131.396484" xlink:href="#TimesNewRomanPSMT-30"/>
       <use x="181.396484" xlink:href="#TimesNewRomanPSMT-34"/>
      </g>
     </g>
    </g>
    <g id="ytick_3">
     <g id="line2d_17">
      <path clip-path="url(#p9d15d20369)" d="M 63.336875 208.480892 
L 398.136875 208.480892 
" style="fill:none;stroke:#000000;stroke-dasharray:0.5,0.825;stroke-dashoffset:0;stroke-width:0.5;"/>
     </g>
     <g id="line2d_18">
      <g>
       <use style="stroke:#000000;stroke-width:0.8;" x="63.336875" xlink:href="#me44b5e2832" y="208.480892"/>
      </g>
     </g>
     <g id="text_10">
      <!-- −0.02 -->
      <g transform="translate(23.942188 213.341517)scale(0.14 -0.14)">
       <use xlink:href="#TimesNewRomanPSMT-2212"/>
       <use x="56.396484" xlink:href="#TimesNewRomanPSMT-30"/>
       <use x="106.396484" xlink:href="#TimesNewRomanPSMT-2e"/>
       <use x="131.396484" xlink:href="#TimesNewRomanPSMT-30"/>
       <use x="181.396484" xlink:href="#TimesNewRomanPSMT-32"/>
      </g>
     </g>
    </g>
    <g id="ytick_4">
     <g id="line2d_19">
      <path clip-path="url(#p9d15d20369)" d="M 63.336875 159.375825 
L 398.136875 159.375825 
" style="fill:none;stroke:#000000;stroke-dasharray:0.5,0.825;stroke-dashoffset:0;stroke-width:0.5;"/>
     </g>
     <g id="line2d_20">
      <g>
       <use style="stroke:#000000;stroke-width:0.8;" x="63.336875" xlink:href="#me44b5e2832" y="159.375825"/>
      </g>
     </g>
     <g id="text_11">
      <!-- 0.00 -->
      <g transform="translate(31.836875 164.23645)scale(0.14 -0.14)">
       <use xlink:href="#TimesNewRomanPSMT-30"/>
       <use x="50" xlink:href="#TimesNewRomanPSMT-2e"/>
       <use x="75" xlink:href="#TimesNewRomanPSMT-30"/>
       <use x="125" xlink:href="#TimesNewRomanPSMT-30"/>
      </g>
     </g>
    </g>
    <g id="ytick_5">
     <g id="line2d_21">
      <path clip-path="url(#p9d15d20369)" d="M 63.336875 110.270758 
L 398.136875 110.270758 
" style="fill:none;stroke:#000000;stroke-dasharray:0.5,0.825;stroke-dashoffset:0;stroke-width:0.5;"/>
     </g>
     <g id="line2d_22">
      <g>
       <use style="stroke:#000000;stroke-width:0.8;" x="63.336875" xlink:href="#me44b5e2832" y="110.270758"/>
      </g>
     </g>
     <g id="text_12">
      <!-- 0.02 -->
      <g transform="translate(31.836875 115.131383)scale(0.14 -0.14)">
       <use xlink:href="#TimesNewRomanPSMT-30"/>
       <use x="50" xlink:href="#TimesNewRomanPSMT-2e"/>
       <use x="75" xlink:href="#TimesNewRomanPSMT-30"/>
       <use x="125" xlink:href="#TimesNewRomanPSMT-32"/>
      </g>
     </g>
    </g>
    <g id="ytick_6">
     <g id="line2d_23">
      <path clip-path="url(#p9d15d20369)" d="M 63.336875 61.165692 
L 398.136875 61.165692 
" style="fill:none;stroke:#000000;stroke-dasharray:0.5,0.825;stroke-dashoffset:0;stroke-width:0.5;"/>
     </g>
     <g id="line2d_24">
      <g>
       <use style="stroke:#000000;stroke-width:0.8;" x="63.336875" xlink:href="#me44b5e2832" y="61.165692"/>
      </g>
     </g>
     <g id="text_13">
      <!-- 0.04 -->
      <g transform="translate(31.836875 66.026317)scale(0.14 -0.14)">
       <use xlink:href="#TimesNewRomanPSMT-30"/>
       <use x="50" xlink:href="#TimesNewRomanPSMT-2e"/>
       <use x="75" xlink:href="#TimesNewRomanPSMT-30"/>
       <use x="125" xlink:href="#TimesNewRomanPSMT-34"/>
      </g>
     </g>
    </g>
    <g id="ytick_7">
     <g id="line2d_25">
      <path clip-path="url(#p9d15d20369)" d="M 63.336875 12.060625 
L 398.136875 12.060625 
" style="fill:none;stroke:#000000;stroke-dasharray:0.5,0.825;stroke-dashoffset:0;stroke-width:0.5;"/>
     </g>
     <g id="line2d_26">
      <g>
       <use style="stroke:#000000;stroke-width:0.8;" x="63.336875" xlink:href="#me44b5e2832" y="12.060625"/>
      </g>
     </g>
     <g id="text_14">
      <!-- 0.06 -->
      <g transform="translate(31.836875 16.92125)scale(0.14 -0.14)">
       <use xlink:href="#TimesNewRomanPSMT-30"/>
       <use x="50" xlink:href="#TimesNewRomanPSMT-2e"/>
       <use x="75" xlink:href="#TimesNewRomanPSMT-30"/>
       <use x="125" xlink:href="#TimesNewRomanPSMT-36"/>
      </g>
     </g>
    </g>
    <g id="text_15">
     <!-- Volatage (V) -->
     <g transform="translate(16.92125 212.267055)rotate(-90)scale(0.14 -0.14)">
      <defs>
       <path d="M 4544 4238 
L 4544 4122 
Q 4319 4081 4203 3978 
Q 4038 3825 3909 3509 
L 2431 -97 
L 2316 -97 
L 728 3556 
Q 606 3838 556 3900 
Q 478 3997 364 4051 
Q 250 4106 56 4122 
L 56 4238 
L 1788 4238 
L 1788 4122 
Q 1494 4094 1406 4022 
Q 1319 3950 1319 3838 
Q 1319 3681 1463 3350 
L 2541 866 
L 3541 3319 
Q 3688 3681 3688 3822 
Q 3688 3913 3597 3995 
Q 3506 4078 3291 4113 
Q 3275 4116 3238 4122 
L 3238 4238 
L 4544 4238 
z
" id="TimesNewRomanPSMT-56" transform="scale(0.015625)"/>
       <path d="M 1600 2947 
Q 2250 2947 2644 2453 
Q 2978 2031 2978 1484 
Q 2978 1100 2793 706 
Q 2609 313 2286 112 
Q 1963 -88 1566 -88 
Q 919 -88 538 428 
Q 216 863 216 1403 
Q 216 1797 411 2186 
Q 606 2575 925 2761 
Q 1244 2947 1600 2947 
z
M 1503 2744 
Q 1338 2744 1170 2645 
Q 1003 2547 900 2300 
Q 797 2053 797 1666 
Q 797 1041 1045 587 
Q 1294 134 1700 134 
Q 2003 134 2200 384 
Q 2397 634 2397 1244 
Q 2397 2006 2069 2444 
Q 1847 2744 1503 2744 
z
" id="TimesNewRomanPSMT-6f" transform="scale(0.015625)"/>
       <path d="M 1184 4444 
L 1184 647 
Q 1184 378 1223 290 
Q 1263 203 1344 158 
Q 1425 113 1647 113 
L 1647 0 
L 244 0 
L 244 113 
Q 441 113 512 153 
Q 584 194 625 287 
Q 666 381 666 647 
L 666 3247 
Q 666 3731 644 3842 
Q 622 3953 573 3993 
Q 525 4034 450 4034 
Q 369 4034 244 3984 
L 191 4094 
L 1044 4444 
L 1184 4444 
z
" id="TimesNewRomanPSMT-6c" transform="scale(0.015625)"/>
       <path d="M 1822 413 
Q 1381 72 1269 19 
Q 1100 -59 909 -59 
Q 613 -59 420 144 
Q 228 347 228 678 
Q 228 888 322 1041 
Q 450 1253 767 1440 
Q 1084 1628 1822 1897 
L 1822 2009 
Q 1822 2438 1686 2597 
Q 1550 2756 1291 2756 
Q 1094 2756 978 2650 
Q 859 2544 859 2406 
L 866 2225 
Q 866 2081 792 2003 
Q 719 1925 600 1925 
Q 484 1925 411 2006 
Q 338 2088 338 2228 
Q 338 2497 613 2722 
Q 888 2947 1384 2947 
Q 1766 2947 2009 2819 
Q 2194 2722 2281 2516 
Q 2338 2381 2338 1966 
L 2338 994 
Q 2338 584 2353 492 
Q 2369 400 2405 369 
Q 2441 338 2488 338 
Q 2538 338 2575 359 
Q 2641 400 2828 588 
L 2828 413 
Q 2478 -56 2159 -56 
Q 2006 -56 1915 50 
Q 1825 156 1822 413 
z
M 1822 616 
L 1822 1706 
Q 1350 1519 1213 1441 
Q 966 1303 859 1153 
Q 753 1003 753 825 
Q 753 600 887 451 
Q 1022 303 1197 303 
Q 1434 303 1822 616 
z
" id="TimesNewRomanPSMT-61" transform="scale(0.015625)"/>
       <path d="M 1031 3803 
L 1031 2863 
L 1700 2863 
L 1700 2644 
L 1031 2644 
L 1031 788 
Q 1031 509 1111 412 
Q 1191 316 1316 316 
Q 1419 316 1516 380 
Q 1613 444 1666 569 
L 1788 569 
Q 1678 263 1478 108 
Q 1278 -47 1066 -47 
Q 922 -47 784 33 
Q 647 113 581 261 
Q 516 409 516 719 
L 516 2644 
L 63 2644 
L 63 2747 
Q 234 2816 414 2980 
Q 594 3144 734 3369 
Q 806 3488 934 3803 
L 1031 3803 
z
" id="TimesNewRomanPSMT-74" transform="scale(0.015625)"/>
       <path d="M 966 1044 
Q 703 1172 562 1401 
Q 422 1631 422 1909 
Q 422 2334 742 2640 
Q 1063 2947 1563 2947 
Q 1972 2947 2272 2747 
L 2878 2747 
Q 3013 2747 3034 2739 
Q 3056 2731 3066 2713 
Q 3084 2684 3084 2613 
Q 3084 2531 3069 2500 
Q 3059 2484 3036 2475 
Q 3013 2466 2878 2466 
L 2506 2466 
Q 2681 2241 2681 1891 
Q 2681 1491 2375 1206 
Q 2069 922 1553 922 
Q 1341 922 1119 984 
Q 981 866 932 777 
Q 884 688 884 625 
Q 884 572 936 522 
Q 988 472 1138 450 
Q 1225 438 1575 428 
Q 2219 413 2409 384 
Q 2700 344 2873 169 
Q 3047 -6 3047 -263 
Q 3047 -616 2716 -925 
Q 2228 -1381 1444 -1381 
Q 841 -1381 425 -1109 
Q 191 -953 191 -784 
Q 191 -709 225 -634 
Q 278 -519 444 -313 
Q 466 -284 763 25 
Q 600 122 533 198 
Q 466 275 466 372 
Q 466 481 555 628 
Q 644 775 966 1044 
z
M 1509 2797 
Q 1278 2797 1122 2612 
Q 966 2428 966 2047 
Q 966 1553 1178 1281 
Q 1341 1075 1591 1075 
Q 1828 1075 1981 1253 
Q 2134 1431 2134 1813 
Q 2134 2309 1919 2591 
Q 1759 2797 1509 2797 
z
M 934 0 
Q 788 -159 713 -296 
Q 638 -434 638 -550 
Q 638 -700 819 -813 
Q 1131 -1006 1722 -1006 
Q 2284 -1006 2551 -807 
Q 2819 -609 2819 -384 
Q 2819 -222 2659 -153 
Q 2497 -84 2016 -72 
Q 1313 -53 934 0 
z
" id="TimesNewRomanPSMT-67" transform="scale(0.015625)"/>
      </defs>
      <use xlink:href="#TimesNewRomanPSMT-56"/>
      <use x="59.341797" xlink:href="#TimesNewRomanPSMT-6f"/>
      <use x="109.341797" xlink:href="#TimesNewRomanPSMT-6c"/>
      <use x="137.125" xlink:href="#TimesNewRomanPSMT-61"/>
      <use x="181.509766" xlink:href="#TimesNewRomanPSMT-74"/>
      <use x="209.292969" xlink:href="#TimesNewRomanPSMT-61"/>
      <use x="253.677734" xlink:href="#TimesNewRomanPSMT-67"/>
      <use x="303.677734" xlink:href="#TimesNewRomanPSMT-65"/>
      <use x="348.0625" xlink:href="#TimesNewRomanPSMT-20"/>
      <use x="373.0625" xlink:href="#TimesNewRomanPSMT-28"/>
      <use x="406.363281" xlink:href="#TimesNewRomanPSMT-56"/>
      <use x="478.580078" xlink:href="#TimesNewRomanPSMT-29"/>
     </g>
    </g>
   </g>
   <g id="LineCollection_1">
    <path clip-path="url(#p9d15d20369)" d="M 78.555057 159.375825 
L 382.918693 159.375825 
" style="fill:none;stroke:#1f77b4;stroke-width:1.5;"/>
   </g>
   <g id="line2d_27">
    <path clip-path="url(#p9d15d20369)" d="M 78.555057 159.41916 
L 78.737675 159.38847 
L 96.877748 159.327088 
L 96.908184 159.265707 
L 96.999493 159.327088 
L 99.860511 159.235016 
L 100.012693 159.235016 
L 100.195311 159.265707 
L 100.317057 159.204325 
L 100.347493 159.235016 
L 100.499675 159.265707 
L 100.71273 159.204325 
L 110.634984 159.142944 
L 110.695857 159.173635 
L 110.75673 159.112254 
L 114.01342 159.173635 
L 114.135166 159.204325 
L 114.896075 159.296397 
L 115.10913 159.38847 
L 115.261311 159.38847 
L 115.44393 159.41916 
L 115.596111 159.41916 
L 115.77873 159.449851 
L 116.174402 159.511232 
L 116.326584 159.572614 
L 116.44833 159.541923 
L 116.478766 159.633995 
L 116.570075 159.603304 
L 117.391857 159.695376 
L 117.604911 159.756758 
L 117.757093 159.726067 
L 117.909275 159.818139 
L 118.061457 159.787448 
L 118.244075 159.84883 
L 118.36582 159.84883 
L 118.578875 159.910211 
L 119.309348 160.002283 
L 119.522402 160.094355 
L 119.674584 160.032974 
L 119.765893 160.094355 
L 119.79633 160.063664 
L 120.922475 160.155736 
L 121.105093 160.186427 
L 121.835566 160.278499 
L 122.018184 160.30919 
L 122.413857 160.401262 
L 122.566039 160.462643 
L 122.657348 160.431952 
L 122.687784 160.462643 
L 122.961711 160.585406 
L 123.235639 160.677477 
L 123.509566 160.80024 
L 123.631311 160.830931 
L 123.81393 160.953694 
L 123.844366 160.923003 
L 123.905239 160.984384 
L 124.270475 161.199219 
L 124.422657 161.291291 
L 124.940075 161.659579 
L 125.06182 161.751651 
L 126.096657 162.948587 
L 126.370584 163.439638 
L 126.553202 163.777235 
L 127.953275 166.815611 
L 128.288075 167.70564 
L 128.592439 168.534288 
L 129.07942 170.038131 
L 129.322911 170.774707 
L 130.266439 173.966536 
L 130.540366 174.979328 
L 132.336111 181.761966 
L 134.801457 188.943582 
L 134.86233 189.035654 
L 135.349311 190.171208 
L 135.471057 190.416734 
L 135.805857 191.091928 
L 136.140657 191.521598 
L 136.53633 191.797814 
L 136.688511 191.797814 
L 136.840693 191.859195 
L 136.992875 191.920576 
L 137.023311 191.889886 
L 137.388548 191.797814 
L 137.601602 191.61367 
L 138.666875 190.416734 
L 139.12342 189.34256 
L 139.21473 189.127726 
L 140.12782 186.08935 
L 140.432184 184.677579 
L 140.949602 182.160945 
L 142.775784 170.4678 
L 144.936766 152.176163 
L 147.767348 122.528979 
L 148.650002 112.370368 
L 151.876257 77.812682 
L 152.971966 67.838216 
L 154.341602 57.679603 
L 154.585093 56.237139 
L 155.28513 52.615643 
L 155.650366 51.173179 
L 156.259093 49.178286 
L 156.62433 48.380333 
L 157.659166 47.490301 
L 158.176584 48.165489 
L 158.602693 49.239667 
L 159.759275 54.365008 
L 160.733239 60.932813 
L 161.615893 68.94307 
L 162.22462 75.480187 
L 163.107275 86.498136 
L 164.020366 99.817888 
L 166.972693 152.329616 
L 168.768439 188.820819 
L 170.868548 230.959104 
L 172.999093 269.690721 
L 174.825275 295.747104 
L 176.62102 314.499104 
L 177.62542 321.711398 
L 178.599384 326.069483 
L 178.934184 326.775358 
L 179.847275 327.604016 
L 179.877711 327.57332 
L 180.334257 326.990193 
L 180.577748 326.560523 
L 180.760366 326.222926 
L 181.39953 323.951824 
L 181.795202 321.926233 
L 182.40393 318.335432 
L 183.560511 308.176819 
L 186.178039 275.184357 
L 187.76073 249.619032 
L 189.404293 219.572864 
L 192.02182 167.337352 
L 193.330584 141.956171 
L 194.578475 120.135104 
L 197.13513 80.666912 
L 198.870002 60.994195 
L 200.239639 49.577267 
L 200.81793 45.80231 
L 201.426657 42.272883 
L 202.06582 39.572104 
L 203.313711 36.134755 
L 203.374584 36.073373 
L 203.800693 35.459558 
L 204.531166 34.815056 
L 204.561602 34.845744 
L 204.774657 34.937811 
L 205.809493 36.134755 
L 206.144293 37.024786 
L 206.266039 37.301002 
L 207.544366 41.474931 
L 209.614039 52.462182 
L 210.43582 58.10927 
L 214.270802 85.945704 
L 218.531893 119.429222 
L 220.936366 135.633894 
L 222.884293 146.743915 
L 223.24953 148.646736 
L 224.010439 152.605832 
L 224.406111 154.140366 
L 228.910693 172.769601 
L 229.702039 176.206955 
L 230.219457 178.75428 
L 230.584693 180.657102 
L 230.797748 181.608512 
L 232.28913 189.680158 
L 233.019602 194.774808 
L 234.358802 204.933421 
L 234.845784 208.739064 
L 236.337166 221.291544 
L 236.88502 225.895144 
L 237.676366 232.094659 
L 239.350366 244.67783 
L 239.89822 248.698307 
L 240.689566 253.209833 
L 241.146111 255.665091 
L 242.454875 260.514216 
L 242.546184 260.698365 
L 242.789675 261.250797 
L 244.128875 263.736731 
L 244.281057 263.828811 
L 244.646293 264.043643 
L 244.798475 264.012947 
L 244.92022 264.043643 
L 245.194148 263.706045 
L 245.285457 263.613976 
L 245.58982 262.846709 
L 245.863748 262.048749 
L 247.111639 256.585808 
L 249.516111 238.846605 
L 250.246584 232.063968 
L 254.96422 178.539445 
L 256.05993 165.618675 
L 257.094766 154.385891 
L 258.494839 141.373048 
L 260.564511 125.536664 
L 261.812402 118.631264 
L 263.121166 113.782139 
L 263.455966 112.861416 
L 264.00382 111.541718 
L 265.00822 109.730971 
L 265.069093 109.66959 
L 265.464766 109.117158 
L 266.043057 108.687488 
L 266.469166 108.626107 
L 266.621348 108.503347 
L 266.68222 108.534032 
L 266.743093 108.472656 
L 267.290948 108.564723 
L 267.869239 108.994397 
L 267.899675 108.963704 
L 267.960548 109.055774 
L 268.143166 109.147848 
L 268.44753 109.516136 
L 269.086693 110.283403 
L 269.299748 110.651693 
L 269.36062 110.71307 
L 269.847602 111.449651 
L 270.060657 111.817936 
L 270.821566 113.597997 
L 272.556439 119.183696 
L 273.560839 122.774504 
L 273.652148 123.02003 
L 276.72622 131.981704 
L 277.182766 133.14795 
L 277.943675 135.112152 
L 278.582839 136.646686 
L 278.82633 137.199118 
L 280.439457 140.206802 
L 280.774257 140.697854 
L 281.07862 141.280976 
L 281.230802 141.557192 
L 281.535166 142.171006 
L 281.596039 142.263077 
L 281.869966 142.631366 
L 282.08302 143.030344 
L 283.08742 144.841093 
L 283.17873 144.933166 
L 283.817893 145.976648 
L 284.213566 146.52908 
L 284.42662 146.835987 
L 284.974475 147.541872 
L 285.278839 147.910161 
L 285.339711 147.971542 
L 285.552766 148.155686 
L 285.887566 148.431902 
L 285.918002 148.40121 
L 285.948439 148.37052 
L 286.009311 148.462592 
L 286.19193 148.554664 
L 286.465857 148.677427 
L 287.53113 148.585355 
L 287.896366 148.37052 
L 288.10942 148.278448 
L 288.292039 148.124994 
L 288.413784 148.032923 
L 289.479057 146.805296 
L 292.279202 140.912688 
L 292.55313 140.084039 
L 294.988039 132.380683 
L 295.56633 130.508552 
L 295.779384 129.833358 
L 297.90993 123.695224 
L 298.031675 123.419008 
L 298.670839 122.375526 
L 299.127384 121.76171 
L 299.401311 121.393424 
L 299.431748 121.424117 
L 299.49262 121.362734 
L 299.736111 121.270659 
L 300.010039 121.362734 
L 300.192657 121.424117 
L 300.314402 121.393424 
L 300.649202 121.485494 
L 301.075311 122.037928 
L 301.349239 122.528979 
L 302.231893 124.554563 
L 303.631966 130.631315 
L 305.245093 141.03545 
L 306.27993 149.414002 
L 307.253893 158.130152 
L 310.175784 188.667366 
L 311.30193 201.005014 
L 312.21502 210.304288 
L 313.919457 226.416886 
L 315.258657 236.360659 
L 316.110875 241.209784 
L 316.506548 243.235366 
L 317.724002 247.746904 
L 317.876184 248.053805 
L 318.424039 248.974523 
L 318.454475 248.943837 
L 318.484911 249.005219 
L 318.728402 249.281435 
L 318.971893 249.342816 
L 319.093639 249.373504 
L 320.219784 248.084491 
L 320.767639 246.734107 
L 321.072002 245.752008 
L 321.315493 245.015429 
L 321.802475 243.20468 
L 322.472075 240.074235 
L 324.237384 228.718688 
L 325.059166 222.150883 
L 327.768002 199.409099 
L 333.824839 145.454907 
L 335.772766 130.600624 
L 336.533675 125.35252 
L 337.08153 121.823094 
L 338.542475 113.659374 
L 339.272948 110.283403 
L 339.66862 108.534032 
L 342.834002 96.227078 
L 345.390657 88.830624 
L 345.512402 88.554408 
L 346.425493 86.958494 
L 346.486366 86.927803 
L 346.638548 86.712971 
L 346.668984 86.743662 
L 346.729857 86.682278 
L 346.942911 86.498136 
L 347.155966 86.406062 
L 347.36902 86.344685 
L 348.70822 86.436755 
L 349.073457 86.651587 
L 349.195202 86.743662 
L 349.408257 86.927803 
L 350.108293 87.787144 
L 351.660548 91.16312 
L 352.664948 93.863899 
L 352.938875 94.661854 
L 354.338948 99.234763 
L 354.795493 100.984128 
L 356.07382 106.569835 
L 356.439057 108.411272 
L 356.895602 110.682379 
L 357.930439 116.268083 
L 359.056584 122.498288 
L 361.369748 135.818038 
L 361.674111 137.506023 
L 363.074184 145.301453 
L 363.43942 147.204275 
L 364.382948 152.268235 
L 364.717748 154.078984 
L 365.904766 160.585406 
L 366.361311 163.10204 
L 366.696111 164.882099 
L 367.88313 171.38852 
L 369.344075 179.306712 
L 370.287602 184.370671 
L 370.622402 186.150731 
L 371.413748 190.293971 
L 371.778984 192.227483 
L 373.331239 200.606037 
L 374.396511 206.37588 
L 378.688039 227.460368 
L 378.992402 228.687997 
L 379.418511 230.314603 
L 379.570693 230.836344 
L 380.209857 232.953998 
L 380.60553 233.99748 
L 380.909893 234.795438 
L 381.914293 236.575494 
L 382.61433 237.158621 
L 382.675202 237.127926 
L 382.736075 237.18931 
L 382.918693 237.158621 
L 382.918693 237.158621 
" style="fill:none;stroke:#0000ff;stroke-linecap:square;stroke-width:1.5;"/>
   </g>
   <g id="line2d_28">
    <path clip-path="url(#p9d15d20369)" d="M 78.555057 159.414311 
L 78.798548 159.414311 
L 88.751239 159.322239 
L 88.90342 159.322239 
L 101.04753 159.429656 
L 102.782402 160.427103 
L 103.604184 161.409204 
L 104.486839 162.913047 
L 104.760766 163.49617 
L 105.39993 165.015358 
L 105.886911 166.335057 
L 106.465202 168.069079 
L 109.75233 179.271171 
L 111.517639 184.273751 
L 111.913311 185.071708 
L 112.522039 186.31468 
L 113.00902 187.066602 
L 113.830802 187.741796 
L 114.043857 187.849214 
L 114.409093 187.910595 
L 115.230875 187.373508 
L 115.596111 187.00522 
L 115.77873 186.790386 
L 116.204839 185.946392 
L 117.330984 182.815944 
L 117.78753 181.112613 
L 120.37462 168.882382 
L 122.413857 155.869539 
L 126.15753 130.227487 
L 128.866366 115.818219 
L 129.657711 112.39621 
L 130.662111 109.235071 
L 132.944839 103.772132 
L 133.18833 103.388499 
L 133.949239 102.099491 
L 134.284039 101.792584 
L 135.379748 100.53427 
L 135.592802 100.31943 
L 135.897166 100.22736 
L 136.140657 100.135288 
L 136.627639 99.766998 
L 137.023311 99.521473 
L 137.510293 99.659581 
L 137.662475 99.705622 
L 137.966839 99.813036 
L 138.362511 100.104598 
L 139.062548 101.731203 
L 139.610402 103.265739 
L 140.006075 104.539397 
L 141.314839 109.557323 
L 142.349675 114.728703 
L 144.662839 130.595775 
L 147.49342 154.273624 
L 151.297966 191.532094 
L 154.219857 217.066726 
L 155.650366 226.396691 
L 157.476548 234.19212 
L 158.20702 236.064246 
L 158.54182 236.509261 
L 159.515784 237.337911 
L 159.820148 237.383955 
L 160.520184 236.908242 
L 161.128911 236.140978 
L 161.737639 234.698519 
L 162.346366 232.949148 
L 162.772475 231.3072 
L 163.411639 228.268822 
L 163.959493 225.30717 
L 165.481311 214.611473 
L 166.942257 201.951575 
L 171.751202 159.291548 
L 173.303457 148.381016 
L 175.403566 137.317031 
L 176.012293 135.306793 
L 176.95582 133.204482 
L 177.534111 132.529287 
L 177.71673 132.42187 
L 177.96022 132.42187 
L 178.234148 132.667395 
L 178.599384 133.173791 
L 179.177675 133.895022 
L 181.247348 138.314479 
L 182.830039 145.158497 
L 183.499639 148.549816 
L 187.699857 169.189288 
L 188.460766 172.258356 
L 189.039057 174.606191 
L 189.952148 177.828711 
L 190.408693 179.040992 
L 190.713057 179.624116 
L 191.047857 180.115165 
L 191.900075 181.204684 
L 192.11313 181.41952 
L 192.995784 182.570419 
L 193.665384 182.785253 
L 194.274111 182.677836 
L 194.517602 182.570419 
L 194.639348 182.493693 
L 195.03502 182.094715 
L 195.765493 181.496246 
L 195.917675 181.388829 
L 197.104693 179.424625 
L 197.530802 178.48856 
L 198.078657 176.815919 
L 198.839566 174.161176 
L 199.417857 171.414361 
L 201.883202 155.823503 
L 203.009348 147.736513 
L 205.687748 126.989622 
L 206.722584 120.636654 
L 209.674911 103.44988 
L 210.52713 99.705622 
L 211.379348 96.728624 
L 212.10982 95.178746 
L 212.718548 94.196647 
L 213.570766 93.475414 
L 213.936002 93.367999 
L 214.422984 93.245234 
L 214.696911 93.352651 
L 214.940402 93.567483 
L 215.244766 93.935774 
L 215.701311 94.534239 
L 216.401348 96.176192 
L 218.197093 101.961383 
L 221.332039 115.050952 
L 222.91473 122.462748 
L 224.49742 130.135415 
L 225.806184 136.79529 
L 228.788948 150.83627 
L 230.006402 156.406626 
L 231.102111 161.286442 
L 232.28913 167.163704 
L 238.55902 204.452864 
L 241.054802 212.862107 
L 242.059202 215.117871 
L 245.041966 219.429912 
L 246.442039 220.688227 
L 246.776839 220.795644 
L 246.989893 220.872371 
L 247.781239 220.979786 
L 248.02473 220.995134 
L 248.176911 220.979786 
L 248.724766 220.872371 
L 250.94662 219.859579 
L 251.190111 219.859579 
L 251.768402 219.752162 
L 252.224948 219.644744 
L 252.590184 219.53733 
L 253.29022 219.307147 
L 254.598984 219.399222 
L 254.781602 219.445255 
L 255.207711 219.552672 
L 256.090366 219.89027 
L 256.272984 219.92096 
L 256.516475 220.028378 
L 257.094766 220.458047 
L 257.490439 220.764954 
L 257.764366 220.995134 
L 258.281784 221.378767 
L 258.829639 221.777743 
L 259.499239 221.992583 
L 260.473202 221.885161 
L 261.873275 220.35063 
L 262.99942 217.250875 
L 264.490802 210.775144 
L 265.616948 203.946466 
L 266.712657 194.815995 
L 268.295348 178.611322 
L 269.847602 159.322239 
L 271.886839 131.148207 
L 275.81313 73.434408 
L 277.882802 48.713072 
L 278.795893 40.196416 
L 279.769857 33.168249 
L 280.774257 28.211706 
L 281.352548 26.324238 
L 281.930839 25.388172 
L 282.478693 25.234712 
L 282.904802 25.556973 
L 283.300475 26.324238 
L 284.152693 29.255189 
L 284.51793 30.94318 
L 285.18753 34.886929 
L 285.918002 39.966234 
L 286.86153 47.899771 
L 288.10942 60.881928 
L 290.026911 84.360288 
L 293.496657 130.089379 
L 294.866293 146.600958 
L 296.448984 164.41689 
L 297.788184 178.672705 
L 299.796984 197.839026 
L 301.531857 211.787934 
L 303.297166 223.511766 
L 304.423311 228.146057 
L 305.914693 231.614102 
L 307.253893 233.440199 
L 307.984366 233.685722 
L 308.562657 233.593655 
L 308.86702 233.332782 
L 309.019202 233.240707 
L 309.323566 232.979839 
L 309.932293 232.550167 
L 310.358402 231.99774 
L 310.693202 231.445308 
L 311.393239 230.186988 
L 312.275893 227.685699 
L 313.462911 223.097442 
L 314.832548 215.65496 
L 315.684766 210.391511 
L 316.32393 206.263611 
L 322.045966 166.641963 
L 323.719966 157.189238 
L 325.728766 147.61375 
L 327.646257 141.214745 
L 328.163675 139.925738 
L 328.802839 138.606038 
L 329.38113 137.685319 
L 330.659457 136.549765 
L 331.29862 136.334929 
L 331.572548 136.350275 
L 331.72473 136.350275 
L 334.159639 137.700664 
L 336.32062 139.726248 
L 336.685857 139.833665 
L 337.08153 139.910393 
L 338.055493 139.802976 
L 339.577311 138.912945 
L 341.160002 137.163577 
L 342.620948 134.769706 
L 343.381857 133.127755 
L 343.960148 132.053582 
L 344.721057 130.764574 
L 346.36462 129.260731 
L 346.547239 129.153314 
L 346.821166 128.923134 
L 347.308148 128.570191 
L 347.582075 128.340011 
L 348.586475 127.956378 
L 348.738657 127.971723 
L 349.46913 128.07914 
L 349.743057 128.293975 
L 350.230039 128.662263 
L 351.112693 129.705746 
L 351.690984 130.764574 
L 353.82153 136.411657 
L 355.191166 141.629069 
L 356.347748 146.892519 
L 359.726184 161.716111 
L 362.221966 170.140699 
L 362.465457 170.861929 
L 363.926402 174.943788 
L 364.961239 177.276279 
L 365.600402 178.595977 
L 365.813457 178.964266 
L 366.361311 179.838949 
L 366.483057 179.946366 
L 366.78742 180.207237 
L 367.061348 180.314656 
L 367.487457 180.422073 
L 367.639639 180.468109 
L 368.613602 180.376036 
L 368.79622 180.29931 
L 369.344075 179.915677 
L 370.074548 178.611322 
L 370.652839 177.214897 
L 371.870293 173.85427 
L 372.083348 173.332529 
L 373.118184 170.432261 
L 375.613966 162.023018 
L 376.374875 159.368275 
L 377.318402 155.639359 
L 381.792548 138.038262 
L 382.644766 135.107302 
L 382.918693 134.155892 
L 382.918693 134.155892 
" style="fill:none;stroke:#ff0000;stroke-linecap:square;stroke-width:1.5;"/>
   </g>
   <g id="line2d_29">
    <path clip-path="url(#p9d15d20369)" d="M 128.348948 167.828403 
" style="fill:none;stroke:#ffffff;stroke-linecap:square;stroke-width:1.5;"/>
    <defs>
     <path d="M 0 -5 
L -1.12257 -1.545085 
L -4.755283 -1.545085 
L -1.816356 0.59017 
L -2.938926 4.045085 
L -0 1.90983 
L 2.938926 4.045085 
L 1.816356 0.59017 
L 4.755283 -1.545085 
L 1.12257 -1.545085 
z
" id="mac26da32cc" style="stroke:#ffffff;stroke-linejoin:bevel;"/>
    </defs>
    <g clip-path="url(#p9d15d20369)">
     <use style="fill:#0000ff;stroke:#ffffff;stroke-linejoin:bevel;" x="128.348948" xlink:href="#mac26da32cc" y="167.828403"/>
    </g>
   </g>
   <g id="line2d_30">
    <path clip-path="url(#p9d15d20369)" d="M 105.795602 166.089531 
" style="fill:none;stroke:#ffffff;stroke-linecap:square;stroke-width:1.5;"/>
    <defs>
     <path d="M 0 -5 
L -1.12257 -1.545085 
L -4.755283 -1.545085 
L -1.816356 0.59017 
L -2.938926 4.045085 
L -0 1.90983 
L 2.938926 4.045085 
L 1.816356 0.59017 
L 4.755283 -1.545085 
L 1.12257 -1.545085 
z
" id="me7e4fd066a" style="stroke:#ffffff;stroke-linejoin:bevel;"/>
    </defs>
    <g clip-path="url(#p9d15d20369)">
     <use style="fill:#ff0000;stroke:#ffffff;stroke-linejoin:bevel;" x="105.795602" xlink:href="#me7e4fd066a" y="166.089531"/>
    </g>
   </g>
   <g id="patch_3">
    <path d="M 63.336875 342.754712 
L 63.336875 10.114712 
" style="fill:none;stroke:#000000;stroke-linecap:square;stroke-linejoin:miter;stroke-width:0.8;"/>
   </g>
   <g id="patch_4">
    <path d="M 398.136875 342.754712 
L 398.136875 10.114712 
" style="fill:none;stroke:#000000;stroke-linecap:square;stroke-linejoin:miter;stroke-width:0.8;"/>
   </g>
   <g id="patch_5">
    <path d="M 63.336875 342.754712 
L 398.136875 342.754712 
" style="fill:none;stroke:#000000;stroke-linecap:square;stroke-linejoin:miter;stroke-width:0.8;"/>
   </g>
   <g id="patch_6">
    <path d="M 63.336875 10.114712 
L 398.136875 10.114712 
" style="fill:none;stroke:#000000;stroke-linecap:square;stroke-linejoin:miter;stroke-width:0.8;"/>
   </g>
   <g id="text_16">
    <g id="patch_7">
     <path d="M 75.036875 334.157399 
L 166.79375 334.157399 
L 166.79375 296.675024 
L 75.036875 296.675024 
z
" style="fill:#ffffff;stroke:#000000;stroke-linejoin:miter;stroke-width:0.75;"/>
    </g>
    <!-- Auto_00054 -->
    <g transform="translate(80.076875 311.436274)scale(0.14 -0.14)">
     <defs>
      <path d="M 2928 1419 
L 1288 1419 
L 1000 750 
Q 894 503 894 381 
Q 894 284 986 211 
Q 1078 138 1384 116 
L 1384 0 
L 50 0 
L 50 116 
Q 316 163 394 238 
Q 553 388 747 847 
L 2238 4334 
L 2347 4334 
L 3822 809 
Q 4000 384 4145 257 
Q 4291 131 4550 116 
L 4550 0 
L 2878 0 
L 2878 116 
Q 3131 128 3220 200 
Q 3309 272 3309 375 
Q 3309 513 3184 809 
L 2928 1419 
z
M 2841 1650 
L 2122 3363 
L 1384 1650 
L 2841 1650 
z
" id="TimesNewRomanPSMT-41" transform="scale(0.015625)"/>
      <path d="M 2709 2863 
L 2709 1128 
Q 2709 631 2732 520 
Q 2756 409 2807 365 
Q 2859 322 2928 322 
Q 3025 322 3147 375 
L 3191 266 
L 2334 -88 
L 2194 -88 
L 2194 519 
Q 1825 119 1631 15 
Q 1438 -88 1222 -88 
Q 981 -88 804 51 
Q 628 191 559 409 
Q 491 628 491 1028 
L 491 2306 
Q 491 2509 447 2587 
Q 403 2666 317 2708 
Q 231 2750 6 2747 
L 6 2863 
L 1009 2863 
L 1009 947 
Q 1009 547 1148 422 
Q 1288 297 1484 297 
Q 1619 297 1789 381 
Q 1959 466 2194 703 
L 2194 2325 
Q 2194 2569 2105 2655 
Q 2016 2741 1734 2747 
L 1734 2863 
L 2709 2863 
z
" id="TimesNewRomanPSMT-75" transform="scale(0.015625)"/>
      <path d="M 3256 -1381 
L -53 -1381 
L -53 -1119 
L 3256 -1119 
L 3256 -1381 
z
" id="TimesNewRomanPSMT-5f" transform="scale(0.015625)"/>
     </defs>
     <use xlink:href="#TimesNewRomanPSMT-41"/>
     <use x="72.216797" xlink:href="#TimesNewRomanPSMT-75"/>
     <use x="122.216797" xlink:href="#TimesNewRomanPSMT-74"/>
     <use x="150" xlink:href="#TimesNewRomanPSMT-6f"/>
     <use x="200" xlink:href="#TimesNewRomanPSMT-5f"/>
     <use x="250" xlink:href="#TimesNewRomanPSMT-30"/>
     <use x="300" xlink:href="#TimesNewRomanPSMT-30"/>
     <use x="350" xlink:href="#TimesNewRomanPSMT-30"/>
     <use x="400" xlink:href="#TimesNewRomanPSMT-35"/>
     <use x="450" xlink:href="#TimesNewRomanPSMT-34"/>
    </g>
    <!-- Vs: 269.77m/s -->
    <g transform="translate(80.076875 326.122712)scale(0.14 -0.14)">
     <defs>
      <path d="M 903 2950 
Q 1047 2950 1148 2848 
Q 1250 2747 1250 2603 
Q 1250 2459 1148 2357 
Q 1047 2256 903 2256 
Q 759 2256 657 2357 
Q 556 2459 556 2603 
Q 556 2747 657 2848 
Q 759 2950 903 2950 
z
M 897 609 
Q 1044 609 1145 506 
Q 1247 403 1247 259 
Q 1247 116 1144 14 
Q 1041 -88 897 -88 
Q 753 -88 651 14 
Q 550 116 550 259 
Q 550 403 651 506 
Q 753 609 897 609 
z
" id="TimesNewRomanPSMT-3a" transform="scale(0.015625)"/>
      <path d="M 338 -88 
L 338 28 
Q 744 34 1094 217 
Q 1444 400 1770 856 
Q 2097 1313 2225 1859 
Q 1734 1544 1338 1544 
Q 891 1544 572 1889 
Q 253 2234 253 2806 
Q 253 3363 572 3797 
Q 956 4325 1575 4325 
Q 2097 4325 2469 3894 
Q 2925 3359 2925 2575 
Q 2925 1869 2578 1258 
Q 2231 647 1613 244 
Q 1109 -88 516 -88 
L 338 -88 
z
M 2275 2091 
Q 2331 2497 2331 2741 
Q 2331 3044 2228 3395 
Q 2125 3747 1936 3934 
Q 1747 4122 1506 4122 
Q 1228 4122 1018 3872 
Q 809 3622 809 3128 
Q 809 2469 1088 2097 
Q 1291 1828 1588 1828 
Q 1731 1828 1928 1897 
Q 2125 1966 2275 2091 
z
" id="TimesNewRomanPSMT-39" transform="scale(0.015625)"/>
      <path d="M 644 4238 
L 2916 4238 
L 2916 4119 
L 1503 -88 
L 1153 -88 
L 2419 3728 
L 1253 3728 
Q 900 3728 750 3644 
Q 488 3500 328 3200 
L 238 3234 
L 644 4238 
z
" id="TimesNewRomanPSMT-37" transform="scale(0.015625)"/>
      <path d="M 1794 4444 
L 259 -88 
L 9 -88 
L 1544 4444 
L 1794 4444 
z
" id="TimesNewRomanPSMT-2f" transform="scale(0.015625)"/>
     </defs>
     <use xlink:href="#TimesNewRomanPSMT-56"/>
     <use x="72.216797" xlink:href="#TimesNewRomanPSMT-73"/>
     <use x="111.132812" xlink:href="#TimesNewRomanPSMT-3a"/>
     <use x="138.916016" xlink:href="#TimesNewRomanPSMT-20"/>
     <use x="163.916016" xlink:href="#TimesNewRomanPSMT-32"/>
     <use x="213.916016" xlink:href="#TimesNewRomanPSMT-36"/>
     <use x="263.916016" xlink:href="#TimesNewRomanPSMT-39"/>
     <use x="313.916016" xlink:href="#TimesNewRomanPSMT-2e"/>
     <use x="338.916016" xlink:href="#TimesNewRomanPSMT-37"/>
     <use x="388.916016" xlink:href="#TimesNewRomanPSMT-37"/>
     <use x="438.916016" xlink:href="#TimesNewRomanPSMT-6d"/>
     <use x="516.699219" xlink:href="#TimesNewRomanPSMT-2f"/>
     <use x="544.482422" xlink:href="#TimesNewRomanPSMT-73"/>
    </g>
   </g>
  </g>
 </g>
 <defs>
  <clipPath id="p9d15d20369">
   <rect height="332.64" width="334.8" x="63.336875" y="10.114712"/>
  </clipPath>
 </defs>
</svg>
