<?xml version="1.0" encoding="utf-8" standalone="no"?>
<!DOCTYPE svg PUBLIC "-//W3C//DTD SVG 1.1//EN"
  "http://www.w3.org/Graphics/SVG/1.1/DTD/svg11.dtd">
<svg height="383.471875pt" version="1.1" viewBox="0 0 421.086875 383.471875" width="421.086875pt" xmlns="http://www.w3.org/2000/svg" xmlns:xlink="http://www.w3.org/1999/xlink">
 <metadata>
  <rdf:RDF xmlns:cc="http://creativecommons.org/ns#" xmlns:dc="http://purl.org/dc/elements/1.1/" xmlns:rdf="http://www.w3.org/1999/02/22-rdf-syntax-ns#">
   <cc:Work>
    <dc:type rdf:resource="http://purl.org/dc/dcmitype/StillImage"/>
    <dc:date>2021-06-11T14:39:38.950453</dc:date>
    <dc:format>image/svg+xml</dc:format>
    <dc:creator>
     <cc:Agent>
      <dc:title>Matplotlib v3.4.2, https://matplotlib.org/</dc:title>
     </cc:Agent>
    </dc:creator>
   </cc:Work>
  </rdf:RDF>
 </metadata>
 <defs>
  <style type="text/css">*{stroke-linecap:butt;stroke-linejoin:round;}</style>
 </defs>
 <g id="figure_1">
  <g id="patch_1">
   <path d="M 0 383.471875 
L 421.086875 383.471875 
L 421.086875 0 
L 0 0 
z
" style="fill:#ffffff;"/>
  </g>
  <g id="axes_1">
   <g id="patch_2">
    <path d="M 63.336875 339.84 
L 398.136875 339.84 
L 398.136875 7.2 
L 63.336875 7.2 
z
" style="fill:#ffffff;"/>
   </g>
   <g id="matplotlib.axis_1">
    <g id="xtick_1">
     <g id="line2d_1">
      <path clip-path="url(#pae424fbb81)" d="M 93.773239 339.84 
L 93.773239 7.2 
" style="fill:none;stroke:#000000;stroke-dasharray:0.5,0.825;stroke-dashoffset:0;stroke-width:0.5;"/>
     </g>
     <g id="line2d_2">
      <defs>
       <path d="M 0 0 
L 0 3.5 
" id="m4ca4c1794d" style="stroke:#000000;stroke-width:0.8;"/>
      </defs>
      <g>
       <use style="stroke:#000000;stroke-width:0.8;" x="93.773239" xlink:href="#m4ca4c1794d" y="339.84"/>
      </g>
     </g>
     <g id="text_1">
      <!-- 0.000 -->
      <g transform="translate(78.023239 356.56125)scale(0.14 -0.14)">
       <defs>
        <path d="M 231 2094 
Q 231 2819 450 3342 
Q 669 3866 1031 4122 
Q 1313 4325 1613 4325 
Q 2100 4325 2488 3828 
Q 2972 3213 2972 2159 
Q 2972 1422 2759 906 
Q 2547 391 2217 158 
Q 1888 -75 1581 -75 
Q 975 -75 572 641 
Q 231 1244 231 2094 
z
M 844 2016 
Q 844 1141 1059 588 
Q 1238 122 1591 122 
Q 1759 122 1940 273 
Q 2122 425 2216 781 
Q 2359 1319 2359 2297 
Q 2359 3022 2209 3506 
Q 2097 3866 1919 4016 
Q 1791 4119 1609 4119 
Q 1397 4119 1231 3928 
Q 1006 3669 925 3112 
Q 844 2556 844 2016 
z
" id="TimesNewRomanPSMT-30" transform="scale(0.015625)"/>
        <path d="M 800 606 
Q 947 606 1047 504 
Q 1147 403 1147 259 
Q 1147 116 1045 14 
Q 944 -88 800 -88 
Q 656 -88 554 14 
Q 453 116 453 259 
Q 453 406 554 506 
Q 656 606 800 606 
z
" id="TimesNewRomanPSMT-2e" transform="scale(0.015625)"/>
       </defs>
       <use xlink:href="#TimesNewRomanPSMT-30"/>
       <use x="50" xlink:href="#TimesNewRomanPSMT-2e"/>
       <use x="75" xlink:href="#TimesNewRomanPSMT-30"/>
       <use x="125" xlink:href="#TimesNewRomanPSMT-30"/>
       <use x="175" xlink:href="#TimesNewRomanPSMT-30"/>
      </g>
     </g>
    </g>
    <g id="xtick_2">
     <g id="line2d_3">
      <path clip-path="url(#pae424fbb81)" d="M 154.645966 339.84 
L 154.645966 7.2 
" style="fill:none;stroke:#000000;stroke-dasharray:0.5,0.825;stroke-dashoffset:0;stroke-width:0.5;"/>
     </g>
     <g id="line2d_4">
      <g>
       <use style="stroke:#000000;stroke-width:0.8;" x="154.645966" xlink:href="#m4ca4c1794d" y="339.84"/>
      </g>
     </g>
     <g id="text_2">
      <!-- 0.001 -->
      <g transform="translate(138.895966 356.56125)scale(0.14 -0.14)">
       <defs>
        <path d="M 750 3822 
L 1781 4325 
L 1884 4325 
L 1884 747 
Q 1884 391 1914 303 
Q 1944 216 2037 169 
Q 2131 122 2419 116 
L 2419 0 
L 825 0 
L 825 116 
Q 1125 122 1212 167 
Q 1300 213 1334 289 
Q 1369 366 1369 747 
L 1369 3034 
Q 1369 3497 1338 3628 
Q 1316 3728 1258 3775 
Q 1200 3822 1119 3822 
Q 1003 3822 797 3725 
L 750 3822 
z
" id="TimesNewRomanPSMT-31" transform="scale(0.015625)"/>
       </defs>
       <use xlink:href="#TimesNewRomanPSMT-30"/>
       <use x="50" xlink:href="#TimesNewRomanPSMT-2e"/>
       <use x="75" xlink:href="#TimesNewRomanPSMT-30"/>
       <use x="125" xlink:href="#TimesNewRomanPSMT-30"/>
       <use x="175" xlink:href="#TimesNewRomanPSMT-31"/>
      </g>
     </g>
    </g>
    <g id="xtick_3">
     <g id="line2d_5">
      <path clip-path="url(#pae424fbb81)" d="M 215.518693 339.84 
L 215.518693 7.2 
" style="fill:none;stroke:#000000;stroke-dasharray:0.5,0.825;stroke-dashoffset:0;stroke-width:0.5;"/>
     </g>
     <g id="line2d_6">
      <g>
       <use style="stroke:#000000;stroke-width:0.8;" x="215.518693" xlink:href="#m4ca4c1794d" y="339.84"/>
      </g>
     </g>
     <g id="text_3">
      <!-- 0.002 -->
      <g transform="translate(199.768693 356.56125)scale(0.14 -0.14)">
       <defs>
        <path d="M 2934 816 
L 2638 0 
L 138 0 
L 138 116 
Q 1241 1122 1691 1759 
Q 2141 2397 2141 2925 
Q 2141 3328 1894 3587 
Q 1647 3847 1303 3847 
Q 991 3847 742 3664 
Q 494 3481 375 3128 
L 259 3128 
Q 338 3706 661 4015 
Q 984 4325 1469 4325 
Q 1984 4325 2329 3994 
Q 2675 3663 2675 3213 
Q 2675 2891 2525 2569 
Q 2294 2063 1775 1497 
Q 997 647 803 472 
L 1909 472 
Q 2247 472 2383 497 
Q 2519 522 2628 598 
Q 2738 675 2819 816 
L 2934 816 
z
" id="TimesNewRomanPSMT-32" transform="scale(0.015625)"/>
       </defs>
       <use xlink:href="#TimesNewRomanPSMT-30"/>
       <use x="50" xlink:href="#TimesNewRomanPSMT-2e"/>
       <use x="75" xlink:href="#TimesNewRomanPSMT-30"/>
       <use x="125" xlink:href="#TimesNewRomanPSMT-30"/>
       <use x="175" xlink:href="#TimesNewRomanPSMT-32"/>
      </g>
     </g>
    </g>
    <g id="xtick_4">
     <g id="line2d_7">
      <path clip-path="url(#pae424fbb81)" d="M 276.39142 339.84 
L 276.39142 7.2 
" style="fill:none;stroke:#000000;stroke-dasharray:0.5,0.825;stroke-dashoffset:0;stroke-width:0.5;"/>
     </g>
     <g id="line2d_8">
      <g>
       <use style="stroke:#000000;stroke-width:0.8;" x="276.39142" xlink:href="#m4ca4c1794d" y="339.84"/>
      </g>
     </g>
     <g id="text_4">
      <!-- 0.003 -->
      <g transform="translate(260.64142 356.56125)scale(0.14 -0.14)">
       <defs>
        <path d="M 325 3431 
Q 506 3859 782 4092 
Q 1059 4325 1472 4325 
Q 1981 4325 2253 3994 
Q 2459 3747 2459 3466 
Q 2459 3003 1878 2509 
Q 2269 2356 2469 2072 
Q 2669 1788 2669 1403 
Q 2669 853 2319 450 
Q 1863 -75 997 -75 
Q 569 -75 414 31 
Q 259 138 259 259 
Q 259 350 332 419 
Q 406 488 509 488 
Q 588 488 669 463 
Q 722 447 909 348 
Q 1097 250 1169 231 
Q 1284 197 1416 197 
Q 1734 197 1970 444 
Q 2206 691 2206 1028 
Q 2206 1275 2097 1509 
Q 2016 1684 1919 1775 
Q 1784 1900 1550 2001 
Q 1316 2103 1072 2103 
L 972 2103 
L 972 2197 
Q 1219 2228 1467 2375 
Q 1716 2522 1828 2728 
Q 1941 2934 1941 3181 
Q 1941 3503 1739 3701 
Q 1538 3900 1238 3900 
Q 753 3900 428 3381 
L 325 3431 
z
" id="TimesNewRomanPSMT-33" transform="scale(0.015625)"/>
       </defs>
       <use xlink:href="#TimesNewRomanPSMT-30"/>
       <use x="50" xlink:href="#TimesNewRomanPSMT-2e"/>
       <use x="75" xlink:href="#TimesNewRomanPSMT-30"/>
       <use x="125" xlink:href="#TimesNewRomanPSMT-30"/>
       <use x="175" xlink:href="#TimesNewRomanPSMT-33"/>
      </g>
     </g>
    </g>
    <g id="xtick_5">
     <g id="line2d_9">
      <path clip-path="url(#pae424fbb81)" d="M 337.264148 339.84 
L 337.264148 7.2 
" style="fill:none;stroke:#000000;stroke-dasharray:0.5,0.825;stroke-dashoffset:0;stroke-width:0.5;"/>
     </g>
     <g id="line2d_10">
      <g>
       <use style="stroke:#000000;stroke-width:0.8;" x="337.264148" xlink:href="#m4ca4c1794d" y="339.84"/>
      </g>
     </g>
     <g id="text_5">
      <!-- 0.004 -->
      <g transform="translate(321.514148 356.56125)scale(0.14 -0.14)">
       <defs>
        <path d="M 2978 1563 
L 2978 1119 
L 2409 1119 
L 2409 0 
L 1894 0 
L 1894 1119 
L 100 1119 
L 100 1519 
L 2066 4325 
L 2409 4325 
L 2409 1563 
L 2978 1563 
z
M 1894 1563 
L 1894 3666 
L 406 1563 
L 1894 1563 
z
" id="TimesNewRomanPSMT-34" transform="scale(0.015625)"/>
       </defs>
       <use xlink:href="#TimesNewRomanPSMT-30"/>
       <use x="50" xlink:href="#TimesNewRomanPSMT-2e"/>
       <use x="75" xlink:href="#TimesNewRomanPSMT-30"/>
       <use x="125" xlink:href="#TimesNewRomanPSMT-30"/>
       <use x="175" xlink:href="#TimesNewRomanPSMT-34"/>
      </g>
     </g>
    </g>
    <g id="xtick_6">
     <g id="line2d_11">
      <path clip-path="url(#pae424fbb81)" d="M 398.136875 339.84 
L 398.136875 7.2 
" style="fill:none;stroke:#000000;stroke-dasharray:0.5,0.825;stroke-dashoffset:0;stroke-width:0.5;"/>
     </g>
     <g id="line2d_12">
      <g>
       <use style="stroke:#000000;stroke-width:0.8;" x="398.136875" xlink:href="#m4ca4c1794d" y="339.84"/>
      </g>
     </g>
     <g id="text_6">
      <!-- 0.005 -->
      <g transform="translate(382.386875 356.56125)scale(0.14 -0.14)">
       <defs>
        <path d="M 2778 4238 
L 2534 3706 
L 1259 3706 
L 981 3138 
Q 1809 3016 2294 2522 
Q 2709 2097 2709 1522 
Q 2709 1188 2573 903 
Q 2438 619 2231 419 
Q 2025 219 1772 97 
Q 1413 -75 1034 -75 
Q 653 -75 479 54 
Q 306 184 306 341 
Q 306 428 378 495 
Q 450 563 559 563 
Q 641 563 702 538 
Q 763 513 909 409 
Q 1144 247 1384 247 
Q 1750 247 2026 523 
Q 2303 800 2303 1197 
Q 2303 1581 2056 1914 
Q 1809 2247 1375 2428 
Q 1034 2569 447 2591 
L 1259 4238 
L 2778 4238 
z
" id="TimesNewRomanPSMT-35" transform="scale(0.015625)"/>
       </defs>
       <use xlink:href="#TimesNewRomanPSMT-30"/>
       <use x="50" xlink:href="#TimesNewRomanPSMT-2e"/>
       <use x="75" xlink:href="#TimesNewRomanPSMT-30"/>
       <use x="125" xlink:href="#TimesNewRomanPSMT-30"/>
       <use x="175" xlink:href="#TimesNewRomanPSMT-35"/>
      </g>
     </g>
    </g>
    <g id="text_7">
     <!-- Time (sec) -->
     <g transform="translate(200.858906 373.277188)scale(0.14 -0.14)">
      <defs>
       <path d="M 3703 4238 
L 3750 3244 
L 3631 3244 
Q 3597 3506 3538 3619 
Q 3441 3800 3280 3886 
Q 3119 3972 2856 3972 
L 2259 3972 
L 2259 734 
Q 2259 344 2344 247 
Q 2463 116 2709 116 
L 2856 116 
L 2856 0 
L 1059 0 
L 1059 116 
L 1209 116 
Q 1478 116 1591 278 
Q 1659 378 1659 734 
L 1659 3972 
L 1150 3972 
Q 853 3972 728 3928 
Q 566 3869 450 3700 
Q 334 3531 313 3244 
L 194 3244 
L 244 4238 
L 3703 4238 
z
" id="TimesNewRomanPSMT-54" transform="scale(0.015625)"/>
       <path d="M 928 4444 
Q 1059 4444 1151 4351 
Q 1244 4259 1244 4128 
Q 1244 3997 1151 3903 
Q 1059 3809 928 3809 
Q 797 3809 703 3903 
Q 609 3997 609 4128 
Q 609 4259 701 4351 
Q 794 4444 928 4444 
z
M 1188 2947 
L 1188 647 
Q 1188 378 1227 289 
Q 1266 200 1342 156 
Q 1419 113 1622 113 
L 1622 0 
L 231 0 
L 231 113 
Q 441 113 512 153 
Q 584 194 626 287 
Q 669 381 669 647 
L 669 1750 
Q 669 2216 641 2353 
Q 619 2453 572 2492 
Q 525 2531 444 2531 
Q 356 2531 231 2484 
L 188 2597 
L 1050 2947 
L 1188 2947 
z
" id="TimesNewRomanPSMT-69" transform="scale(0.015625)"/>
       <path d="M 1050 2338 
Q 1363 2650 1419 2697 
Q 1559 2816 1721 2881 
Q 1884 2947 2044 2947 
Q 2313 2947 2506 2790 
Q 2700 2634 2766 2338 
Q 3088 2713 3309 2830 
Q 3531 2947 3766 2947 
Q 3994 2947 4170 2830 
Q 4347 2713 4450 2447 
Q 4519 2266 4519 1878 
L 4519 647 
Q 4519 378 4559 278 
Q 4591 209 4675 161 
Q 4759 113 4950 113 
L 4950 0 
L 3538 0 
L 3538 113 
L 3597 113 
Q 3781 113 3884 184 
Q 3956 234 3988 344 
Q 4000 397 4000 647 
L 4000 1878 
Q 4000 2228 3916 2372 
Q 3794 2572 3525 2572 
Q 3359 2572 3192 2489 
Q 3025 2406 2788 2181 
L 2781 2147 
L 2788 2013 
L 2788 647 
Q 2788 353 2820 281 
Q 2853 209 2943 161 
Q 3034 113 3253 113 
L 3253 0 
L 1806 0 
L 1806 113 
Q 2044 113 2133 169 
Q 2222 225 2256 338 
Q 2272 391 2272 647 
L 2272 1878 
Q 2272 2228 2169 2381 
Q 2031 2581 1784 2581 
Q 1616 2581 1450 2491 
Q 1191 2353 1050 2181 
L 1050 647 
Q 1050 366 1089 281 
Q 1128 197 1204 155 
Q 1281 113 1516 113 
L 1516 0 
L 100 0 
L 100 113 
Q 297 113 375 155 
Q 453 197 493 289 
Q 534 381 534 647 
L 534 1741 
Q 534 2213 506 2350 
Q 484 2453 437 2492 
Q 391 2531 309 2531 
Q 222 2531 100 2484 
L 53 2597 
L 916 2947 
L 1050 2947 
L 1050 2338 
z
" id="TimesNewRomanPSMT-6d" transform="scale(0.015625)"/>
       <path d="M 681 1784 
Q 678 1147 991 784 
Q 1303 422 1725 422 
Q 2006 422 2214 576 
Q 2422 731 2563 1106 
L 2659 1044 
Q 2594 616 2278 264 
Q 1963 -88 1488 -88 
Q 972 -88 605 314 
Q 238 716 238 1394 
Q 238 2128 614 2539 
Q 991 2950 1559 2950 
Q 2041 2950 2350 2633 
Q 2659 2316 2659 1784 
L 681 1784 
z
M 681 1966 
L 2006 1966 
Q 1991 2241 1941 2353 
Q 1863 2528 1708 2628 
Q 1553 2728 1384 2728 
Q 1125 2728 920 2526 
Q 716 2325 681 1966 
z
" id="TimesNewRomanPSMT-65" transform="scale(0.015625)"/>
       <path id="TimesNewRomanPSMT-20" transform="scale(0.015625)"/>
       <path d="M 1988 -1253 
L 1988 -1369 
Q 1516 -1131 1200 -813 
Q 750 -359 506 256 
Q 263 872 263 1534 
Q 263 2503 741 3301 
Q 1219 4100 1988 4444 
L 1988 4313 
Q 1603 4100 1356 3731 
Q 1109 3363 987 2797 
Q 866 2231 866 1616 
Q 866 947 969 400 
Q 1050 -31 1165 -292 
Q 1281 -553 1476 -793 
Q 1672 -1034 1988 -1253 
z
" id="TimesNewRomanPSMT-28" transform="scale(0.015625)"/>
       <path d="M 2050 2947 
L 2050 1972 
L 1947 1972 
Q 1828 2431 1642 2597 
Q 1456 2763 1169 2763 
Q 950 2763 815 2647 
Q 681 2531 681 2391 
Q 681 2216 781 2091 
Q 878 1963 1175 1819 
L 1631 1597 
Q 2266 1288 2266 781 
Q 2266 391 1970 151 
Q 1675 -88 1309 -88 
Q 1047 -88 709 6 
Q 606 38 541 38 
Q 469 38 428 -44 
L 325 -44 
L 325 978 
L 428 978 
Q 516 541 762 319 
Q 1009 97 1316 97 
Q 1531 97 1667 223 
Q 1803 350 1803 528 
Q 1803 744 1651 891 
Q 1500 1038 1047 1263 
Q 594 1488 453 1669 
Q 313 1847 313 2119 
Q 313 2472 555 2709 
Q 797 2947 1181 2947 
Q 1350 2947 1591 2875 
Q 1750 2828 1803 2828 
Q 1853 2828 1881 2850 
Q 1909 2872 1947 2947 
L 2050 2947 
z
" id="TimesNewRomanPSMT-73" transform="scale(0.015625)"/>
       <path d="M 2631 1088 
Q 2516 522 2178 217 
Q 1841 -88 1431 -88 
Q 944 -88 581 321 
Q 219 731 219 1428 
Q 219 2103 620 2525 
Q 1022 2947 1584 2947 
Q 2006 2947 2278 2723 
Q 2550 2500 2550 2259 
Q 2550 2141 2473 2067 
Q 2397 1994 2259 1994 
Q 2075 1994 1981 2113 
Q 1928 2178 1911 2362 
Q 1894 2547 1784 2644 
Q 1675 2738 1481 2738 
Q 1169 2738 978 2506 
Q 725 2200 725 1697 
Q 725 1184 976 792 
Q 1228 400 1656 400 
Q 1963 400 2206 609 
Q 2378 753 2541 1131 
L 2631 1088 
z
" id="TimesNewRomanPSMT-63" transform="scale(0.015625)"/>
       <path d="M 144 4313 
L 144 4444 
Q 619 4209 934 3891 
Q 1381 3434 1625 2820 
Q 1869 2206 1869 1541 
Q 1869 572 1392 -226 
Q 916 -1025 144 -1369 
L 144 -1253 
Q 528 -1038 776 -670 
Q 1025 -303 1145 264 
Q 1266 831 1266 1447 
Q 1266 2113 1163 2663 
Q 1084 3094 967 3353 
Q 850 3613 656 3853 
Q 463 4094 144 4313 
z
" id="TimesNewRomanPSMT-29" transform="scale(0.015625)"/>
      </defs>
      <use xlink:href="#TimesNewRomanPSMT-54"/>
      <use x="57.583984" xlink:href="#TimesNewRomanPSMT-69"/>
      <use x="85.367188" xlink:href="#TimesNewRomanPSMT-6d"/>
      <use x="163.150391" xlink:href="#TimesNewRomanPSMT-65"/>
      <use x="207.535156" xlink:href="#TimesNewRomanPSMT-20"/>
      <use x="232.535156" xlink:href="#TimesNewRomanPSMT-28"/>
      <use x="265.835938" xlink:href="#TimesNewRomanPSMT-73"/>
      <use x="304.751953" xlink:href="#TimesNewRomanPSMT-65"/>
      <use x="349.136719" xlink:href="#TimesNewRomanPSMT-63"/>
      <use x="393.521484" xlink:href="#TimesNewRomanPSMT-29"/>
     </g>
    </g>
   </g>
   <g id="matplotlib.axis_2">
    <g id="ytick_1">
     <g id="line2d_13">
      <path clip-path="url(#pae424fbb81)" d="M 63.336875 308.582577 
L 398.136875 308.582577 
" style="fill:none;stroke:#000000;stroke-dasharray:0.5,0.825;stroke-dashoffset:0;stroke-width:0.5;"/>
     </g>
     <g id="line2d_14">
      <defs>
       <path d="M 0 0 
L -3.5 0 
" id="m73920d5cd8" style="stroke:#000000;stroke-width:0.8;"/>
      </defs>
      <g>
       <use style="stroke:#000000;stroke-width:0.8;" x="63.336875" xlink:href="#m73920d5cd8" y="308.582577"/>
      </g>
     </g>
     <g id="text_8">
      <!-- −0.06 -->
      <g transform="translate(23.942188 313.443202)scale(0.14 -0.14)">
       <defs>
        <path d="M 3484 2000 
L 116 2000 
L 116 2256 
L 3484 2256 
L 3484 2000 
z
" id="TimesNewRomanPSMT-2212" transform="scale(0.015625)"/>
        <path d="M 2869 4325 
L 2869 4209 
Q 2456 4169 2195 4045 
Q 1934 3922 1679 3669 
Q 1425 3416 1258 3105 
Q 1091 2794 978 2366 
Q 1428 2675 1881 2675 
Q 2316 2675 2634 2325 
Q 2953 1975 2953 1425 
Q 2953 894 2631 456 
Q 2244 -75 1606 -75 
Q 1172 -75 869 213 
Q 275 772 275 1663 
Q 275 2231 503 2743 
Q 731 3256 1154 3653 
Q 1578 4050 1965 4187 
Q 2353 4325 2688 4325 
L 2869 4325 
z
M 925 2138 
Q 869 1716 869 1456 
Q 869 1156 980 804 
Q 1091 453 1309 247 
Q 1469 100 1697 100 
Q 1969 100 2183 356 
Q 2397 613 2397 1088 
Q 2397 1622 2184 2012 
Q 1972 2403 1581 2403 
Q 1463 2403 1327 2353 
Q 1191 2303 925 2138 
z
" id="TimesNewRomanPSMT-36" transform="scale(0.015625)"/>
       </defs>
       <use xlink:href="#TimesNewRomanPSMT-2212"/>
       <use x="56.396484" xlink:href="#TimesNewRomanPSMT-30"/>
       <use x="106.396484" xlink:href="#TimesNewRomanPSMT-2e"/>
       <use x="131.396484" xlink:href="#TimesNewRomanPSMT-30"/>
       <use x="181.396484" xlink:href="#TimesNewRomanPSMT-36"/>
      </g>
     </g>
    </g>
    <g id="ytick_2">
     <g id="line2d_15">
      <path clip-path="url(#pae424fbb81)" d="M 63.336875 258.250674 
L 398.136875 258.250674 
" style="fill:none;stroke:#000000;stroke-dasharray:0.5,0.825;stroke-dashoffset:0;stroke-width:0.5;"/>
     </g>
     <g id="line2d_16">
      <g>
       <use style="stroke:#000000;stroke-width:0.8;" x="63.336875" xlink:href="#m73920d5cd8" y="258.250674"/>
      </g>
     </g>
     <g id="text_9">
      <!-- −0.04 -->
      <g transform="translate(23.942188 263.111299)scale(0.14 -0.14)">
       <use xlink:href="#TimesNewRomanPSMT-2212"/>
       <use x="56.396484" xlink:href="#TimesNewRomanPSMT-30"/>
       <use x="106.396484" xlink:href="#TimesNewRomanPSMT-2e"/>
       <use x="131.396484" xlink:href="#TimesNewRomanPSMT-30"/>
       <use x="181.396484" xlink:href="#TimesNewRomanPSMT-34"/>
      </g>
     </g>
    </g>
    <g id="ytick_3">
     <g id="line2d_17">
      <path clip-path="url(#pae424fbb81)" d="M 63.336875 207.91877 
L 398.136875 207.91877 
" style="fill:none;stroke:#000000;stroke-dasharray:0.5,0.825;stroke-dashoffset:0;stroke-width:0.5;"/>
     </g>
     <g id="line2d_18">
      <g>
       <use style="stroke:#000000;stroke-width:0.8;" x="63.336875" xlink:href="#m73920d5cd8" y="207.91877"/>
      </g>
     </g>
     <g id="text_10">
      <!-- −0.02 -->
      <g transform="translate(23.942188 212.779395)scale(0.14 -0.14)">
       <use xlink:href="#TimesNewRomanPSMT-2212"/>
       <use x="56.396484" xlink:href="#TimesNewRomanPSMT-30"/>
       <use x="106.396484" xlink:href="#TimesNewRomanPSMT-2e"/>
       <use x="131.396484" xlink:href="#TimesNewRomanPSMT-30"/>
       <use x="181.396484" xlink:href="#TimesNewRomanPSMT-32"/>
      </g>
     </g>
    </g>
    <g id="ytick_4">
     <g id="line2d_19">
      <path clip-path="url(#pae424fbb81)" d="M 63.336875 157.586866 
L 398.136875 157.586866 
" style="fill:none;stroke:#000000;stroke-dasharray:0.5,0.825;stroke-dashoffset:0;stroke-width:0.5;"/>
     </g>
     <g id="line2d_20">
      <g>
       <use style="stroke:#000000;stroke-width:0.8;" x="63.336875" xlink:href="#m73920d5cd8" y="157.586866"/>
      </g>
     </g>
     <g id="text_11">
      <!-- 0.00 -->
      <g transform="translate(31.836875 162.447491)scale(0.14 -0.14)">
       <use xlink:href="#TimesNewRomanPSMT-30"/>
       <use x="50" xlink:href="#TimesNewRomanPSMT-2e"/>
       <use x="75" xlink:href="#TimesNewRomanPSMT-30"/>
       <use x="125" xlink:href="#TimesNewRomanPSMT-30"/>
      </g>
     </g>
    </g>
    <g id="ytick_5">
     <g id="line2d_21">
      <path clip-path="url(#pae424fbb81)" d="M 63.336875 107.254962 
L 398.136875 107.254962 
" style="fill:none;stroke:#000000;stroke-dasharray:0.5,0.825;stroke-dashoffset:0;stroke-width:0.5;"/>
     </g>
     <g id="line2d_22">
      <g>
       <use style="stroke:#000000;stroke-width:0.8;" x="63.336875" xlink:href="#m73920d5cd8" y="107.254962"/>
      </g>
     </g>
     <g id="text_12">
      <!-- 0.02 -->
      <g transform="translate(31.836875 112.115587)scale(0.14 -0.14)">
       <use xlink:href="#TimesNewRomanPSMT-30"/>
       <use x="50" xlink:href="#TimesNewRomanPSMT-2e"/>
       <use x="75" xlink:href="#TimesNewRomanPSMT-30"/>
       <use x="125" xlink:href="#TimesNewRomanPSMT-32"/>
      </g>
     </g>
    </g>
    <g id="ytick_6">
     <g id="line2d_23">
      <path clip-path="url(#pae424fbb81)" d="M 63.336875 56.923058 
L 398.136875 56.923058 
" style="fill:none;stroke:#000000;stroke-dasharray:0.5,0.825;stroke-dashoffset:0;stroke-width:0.5;"/>
     </g>
     <g id="line2d_24">
      <g>
       <use style="stroke:#000000;stroke-width:0.8;" x="63.336875" xlink:href="#m73920d5cd8" y="56.923058"/>
      </g>
     </g>
     <g id="text_13">
      <!-- 0.04 -->
      <g transform="translate(31.836875 61.783683)scale(0.14 -0.14)">
       <use xlink:href="#TimesNewRomanPSMT-30"/>
       <use x="50" xlink:href="#TimesNewRomanPSMT-2e"/>
       <use x="75" xlink:href="#TimesNewRomanPSMT-30"/>
       <use x="125" xlink:href="#TimesNewRomanPSMT-34"/>
      </g>
     </g>
    </g>
    <g id="text_14">
     <!-- Volatage (V) -->
     <g transform="translate(16.92125 209.352344)rotate(-90)scale(0.14 -0.14)">
      <defs>
       <path d="M 4544 4238 
L 4544 4122 
Q 4319 4081 4203 3978 
Q 4038 3825 3909 3509 
L 2431 -97 
L 2316 -97 
L 728 3556 
Q 606 3838 556 3900 
Q 478 3997 364 4051 
Q 250 4106 56 4122 
L 56 4238 
L 1788 4238 
L 1788 4122 
Q 1494 4094 1406 4022 
Q 1319 3950 1319 3838 
Q 1319 3681 1463 3350 
L 2541 866 
L 3541 3319 
Q 3688 3681 3688 3822 
Q 3688 3913 3597 3995 
Q 3506 4078 3291 4113 
Q 3275 4116 3238 4122 
L 3238 4238 
L 4544 4238 
z
" id="TimesNewRomanPSMT-56" transform="scale(0.015625)"/>
       <path d="M 1600 2947 
Q 2250 2947 2644 2453 
Q 2978 2031 2978 1484 
Q 2978 1100 2793 706 
Q 2609 313 2286 112 
Q 1963 -88 1566 -88 
Q 919 -88 538 428 
Q 216 863 216 1403 
Q 216 1797 411 2186 
Q 606 2575 925 2761 
Q 1244 2947 1600 2947 
z
M 1503 2744 
Q 1338 2744 1170 2645 
Q 1003 2547 900 2300 
Q 797 2053 797 1666 
Q 797 1041 1045 587 
Q 1294 134 1700 134 
Q 2003 134 2200 384 
Q 2397 634 2397 1244 
Q 2397 2006 2069 2444 
Q 1847 2744 1503 2744 
z
" id="TimesNewRomanPSMT-6f" transform="scale(0.015625)"/>
       <path d="M 1184 4444 
L 1184 647 
Q 1184 378 1223 290 
Q 1263 203 1344 158 
Q 1425 113 1647 113 
L 1647 0 
L 244 0 
L 244 113 
Q 441 113 512 153 
Q 584 194 625 287 
Q 666 381 666 647 
L 666 3247 
Q 666 3731 644 3842 
Q 622 3953 573 3993 
Q 525 4034 450 4034 
Q 369 4034 244 3984 
L 191 4094 
L 1044 4444 
L 1184 4444 
z
" id="TimesNewRomanPSMT-6c" transform="scale(0.015625)"/>
       <path d="M 1822 413 
Q 1381 72 1269 19 
Q 1100 -59 909 -59 
Q 613 -59 420 144 
Q 228 347 228 678 
Q 228 888 322 1041 
Q 450 1253 767 1440 
Q 1084 1628 1822 1897 
L 1822 2009 
Q 1822 2438 1686 2597 
Q 1550 2756 1291 2756 
Q 1094 2756 978 2650 
Q 859 2544 859 2406 
L 866 2225 
Q 866 2081 792 2003 
Q 719 1925 600 1925 
Q 484 1925 411 2006 
Q 338 2088 338 2228 
Q 338 2497 613 2722 
Q 888 2947 1384 2947 
Q 1766 2947 2009 2819 
Q 2194 2722 2281 2516 
Q 2338 2381 2338 1966 
L 2338 994 
Q 2338 584 2353 492 
Q 2369 400 2405 369 
Q 2441 338 2488 338 
Q 2538 338 2575 359 
Q 2641 400 2828 588 
L 2828 413 
Q 2478 -56 2159 -56 
Q 2006 -56 1915 50 
Q 1825 156 1822 413 
z
M 1822 616 
L 1822 1706 
Q 1350 1519 1213 1441 
Q 966 1303 859 1153 
Q 753 1003 753 825 
Q 753 600 887 451 
Q 1022 303 1197 303 
Q 1434 303 1822 616 
z
" id="TimesNewRomanPSMT-61" transform="scale(0.015625)"/>
       <path d="M 1031 3803 
L 1031 2863 
L 1700 2863 
L 1700 2644 
L 1031 2644 
L 1031 788 
Q 1031 509 1111 412 
Q 1191 316 1316 316 
Q 1419 316 1516 380 
Q 1613 444 1666 569 
L 1788 569 
Q 1678 263 1478 108 
Q 1278 -47 1066 -47 
Q 922 -47 784 33 
Q 647 113 581 261 
Q 516 409 516 719 
L 516 2644 
L 63 2644 
L 63 2747 
Q 234 2816 414 2980 
Q 594 3144 734 3369 
Q 806 3488 934 3803 
L 1031 3803 
z
" id="TimesNewRomanPSMT-74" transform="scale(0.015625)"/>
       <path d="M 966 1044 
Q 703 1172 562 1401 
Q 422 1631 422 1909 
Q 422 2334 742 2640 
Q 1063 2947 1563 2947 
Q 1972 2947 2272 2747 
L 2878 2747 
Q 3013 2747 3034 2739 
Q 3056 2731 3066 2713 
Q 3084 2684 3084 2613 
Q 3084 2531 3069 2500 
Q 3059 2484 3036 2475 
Q 3013 2466 2878 2466 
L 2506 2466 
Q 2681 2241 2681 1891 
Q 2681 1491 2375 1206 
Q 2069 922 1553 922 
Q 1341 922 1119 984 
Q 981 866 932 777 
Q 884 688 884 625 
Q 884 572 936 522 
Q 988 472 1138 450 
Q 1225 438 1575 428 
Q 2219 413 2409 384 
Q 2700 344 2873 169 
Q 3047 -6 3047 -263 
Q 3047 -616 2716 -925 
Q 2228 -1381 1444 -1381 
Q 841 -1381 425 -1109 
Q 191 -953 191 -784 
Q 191 -709 225 -634 
Q 278 -519 444 -313 
Q 466 -284 763 25 
Q 600 122 533 198 
Q 466 275 466 372 
Q 466 481 555 628 
Q 644 775 966 1044 
z
M 1509 2797 
Q 1278 2797 1122 2612 
Q 966 2428 966 2047 
Q 966 1553 1178 1281 
Q 1341 1075 1591 1075 
Q 1828 1075 1981 1253 
Q 2134 1431 2134 1813 
Q 2134 2309 1919 2591 
Q 1759 2797 1509 2797 
z
M 934 0 
Q 788 -159 713 -296 
Q 638 -434 638 -550 
Q 638 -700 819 -813 
Q 1131 -1006 1722 -1006 
Q 2284 -1006 2551 -807 
Q 2819 -609 2819 -384 
Q 2819 -222 2659 -153 
Q 2497 -84 2016 -72 
Q 1313 -53 934 0 
z
" id="TimesNewRomanPSMT-67" transform="scale(0.015625)"/>
      </defs>
      <use xlink:href="#TimesNewRomanPSMT-56"/>
      <use x="59.341797" xlink:href="#TimesNewRomanPSMT-6f"/>
      <use x="109.341797" xlink:href="#TimesNewRomanPSMT-6c"/>
      <use x="137.125" xlink:href="#TimesNewRomanPSMT-61"/>
      <use x="181.509766" xlink:href="#TimesNewRomanPSMT-74"/>
      <use x="209.292969" xlink:href="#TimesNewRomanPSMT-61"/>
      <use x="253.677734" xlink:href="#TimesNewRomanPSMT-67"/>
      <use x="303.677734" xlink:href="#TimesNewRomanPSMT-65"/>
      <use x="348.0625" xlink:href="#TimesNewRomanPSMT-20"/>
      <use x="373.0625" xlink:href="#TimesNewRomanPSMT-28"/>
      <use x="406.363281" xlink:href="#TimesNewRomanPSMT-56"/>
      <use x="478.580078" xlink:href="#TimesNewRomanPSMT-29"/>
     </g>
    </g>
   </g>
   <g id="LineCollection_1">
    <path clip-path="url(#pae424fbb81)" d="M 78.555057 157.586866 
L 382.918693 157.586866 
" style="fill:none;stroke:#1f77b4;stroke-width:1.5;"/>
   </g>
   <g id="line2d_25">
    <path clip-path="url(#pae424fbb81)" d="M 78.555057 157.523699 
L 78.737675 157.492242 
L 78.889857 157.555157 
L 79.011602 157.492242 
L 79.042039 157.523699 
L 79.19422 157.523699 
L 79.315966 157.523699 
L 79.498584 157.555157 
L 79.681202 157.523699 
L 79.802948 157.555157 
L 79.833384 157.523699 
L 81.87262 157.555157 
L 81.903057 157.649529 
L 81.994366 157.618072 
L 90.090439 157.523699 
L 90.212184 157.523699 
L 90.394802 157.586614 
L 90.57742 157.492242 
L 90.607857 157.523699 
L 102.599784 157.586614 
L 102.691093 157.649529 
L 102.72153 157.618072 
L 102.873711 157.618072 
L 111.578511 157.712444 
L 111.76113 157.743901 
L 111.913311 157.712444 
L 112.09593 157.775359 
L 112.278548 157.743901 
L 112.308984 157.806816 
L 112.400293 157.743901 
L 112.582911 157.806816 
L 112.735093 157.775359 
L 112.917711 157.806816 
L 113.67862 157.901189 
L 113.861239 157.932646 
L 114.01342 157.869731 
L 114.165602 157.964103 
L 115.078693 158.058476 
L 115.261311 158.089933 
L 115.930911 158.184306 
L 116.11353 158.215763 
L 117.02662 158.278678 
L 117.178802 158.341593 
L 117.36142 158.37305 
L 117.878839 158.467422 
L 118.03102 158.49888 
L 118.183202 158.49888 
L 118.761493 158.593252 
L 118.944111 158.62471 
L 119.096293 158.62471 
L 119.978948 158.719082 
L 120.009384 158.781997 
L 120.100693 158.719082 
L 121.500766 158.813454 
L 121.71382 158.876369 
L 121.835566 158.907827 
L 122.170366 159.002199 
L 122.38342 159.096571 
L 122.444293 159.065114 
L 122.47473 159.096571 
L 122.626911 159.190944 
L 122.900839 159.285316 
L 123.205202 159.474061 
L 123.296511 159.474061 
L 123.326948 159.505518 
L 123.570439 159.59989 
L 124.118293 160.008837 
L 124.300911 160.103209 
L 124.48353 160.323412 
L 124.605275 160.417784 
L 125.670548 161.676081 
L 126.248839 162.619805 
L 126.431457 162.965836 
L 127.435857 165.293687 
L 130.236002 174.321972 
L 130.662111 175.989217 
L 130.814293 176.555451 
L 132.396984 182.626736 
L 133.827493 186.716204 
L 135.958039 190.868586 
L 136.140657 190.9315 
L 136.262402 191.025873 
L 136.292839 190.994415 
L 136.475457 191.025873 
L 136.688511 190.962958 
L 136.932002 190.900043 
L 137.145057 190.679841 
L 137.175493 190.711298 
L 137.20593 190.616926 
L 137.236366 190.616926 
L 137.753784 189.924862 
L 138.027711 189.421543 
L 138.971239 187.219523 
L 140.614802 179.984311 
L 142.014875 170.609995 
L 143.201893 161.235677 
L 144.267166 151.515328 
L 147.097748 121.127441 
L 151.480584 72.494242 
L 153.94593 52.990629 
L 155.163384 47.202455 
L 155.224257 47.04517 
L 155.589493 46.00707 
L 156.441711 44.497115 
L 157.080875 44.591485 
L 157.811348 45.503753 
L 158.054839 46.227282 
L 159.028802 50.694228 
L 159.911457 56.828434 
L 161.037602 66.989187 
L 163.289893 96.181694 
L 165.481311 134.245193 
L 169.894584 223.175376 
L 172.086002 264.038588 
L 173.181711 281.371635 
L 174.794839 301.630232 
L 176.468839 316.195026 
L 177.168875 320.504698 
L 177.990657 323.4617 
L 178.690693 324.72 
L 178.812439 324.688538 
L 179.025493 324.594168 
L 179.847275 323.618975 
L 180.547311 321.165302 
L 180.699493 320.63053 
L 181.612584 315.40859 
L 183.134402 301.944803 
L 184.443166 285.870057 
L 186.817202 249.94566 
L 188.217275 225.031363 
L 193.087093 131.571311 
L 195.491566 93.570724 
L 196.313348 82.057303 
L 197.074257 72.651529 
L 197.743857 65.101736 
L 199.113493 53.368113 
L 199.509166 50.788608 
L 200.39182 45.157719 
L 201.274475 41.162626 
L 201.883202 39.054976 
L 202.06582 38.708951 
L 203.009348 37.010249 
L 203.465893 36.69567 
L 203.618075 36.69567 
L 203.861566 36.569838 
L 203.892002 36.6013 
L 203.952875 36.538385 
L 204.135493 36.475468 
L 204.257239 36.475468 
L 204.378984 36.506933 
L 204.926839 37.230452 
L 206.17473 40.061621 
L 206.661711 41.603031 
L 206.84433 42.169265 
L 207.300875 43.993799 
L 207.51393 44.968982 
L 209.583602 56.230738 
L 210.740184 63.811983 
L 212.688111 76.583704 
L 217.923166 113.672031 
L 221.332039 134.150821 
L 221.514657 135.000172 
L 222.092948 137.925714 
L 222.48862 140.033362 
L 222.853857 141.920809 
L 223.036475 142.801617 
L 224.25393 148.526871 
L 226.26273 157.27204 
L 226.688839 159.253858 
L 227.449748 162.871464 
L 228.149784 166.551984 
L 228.575893 168.785463 
L 229.215057 172.591813 
L 229.580293 174.699462 
L 231.467348 187.062235 
L 234.237057 210.875515 
L 235.911057 227.044641 
L 236.915457 236.261671 
L 237.798111 243.465423 
L 240.202584 260.169328 
L 240.446075 261.238881 
L 241.115675 264.132968 
L 241.176548 264.353168 
L 242.637493 267.121422 
L 242.850548 267.18434 
L 243.185348 267.247245 
L 243.33753 267.373077 
L 243.489711 267.373077 
L 243.885384 267.278707 
L 244.463675 266.523726 
L 245.102839 265.013771 
L 246.715966 256.111321 
L 247.68993 248.278411 
L 248.420402 241.326317 
L 250.581384 217.859067 
L 252.011893 200.11707 
L 256.820839 141.826436 
L 258.586148 126.412291 
L 259.134002 122.322824 
L 260.138402 115.842594 
L 261.568911 108.984867 
L 262.786366 105.556009 
L 263.486402 104.360626 
L 264.856039 103.102331 
L 265.160402 103.007956 
L 265.34302 102.976498 
L 265.982184 103.070871 
L 266.164802 103.228158 
L 266.286548 103.32253 
L 266.743093 103.668565 
L 266.77353 103.637105 
L 266.834402 103.700022 
L 267.412693 104.454998 
L 268.02142 105.493094 
L 268.082293 105.587468 
L 270.334584 110.494827 
L 271.886839 115.653844 
L 273.37822 121.379101 
L 273.560839 122.00825 
L 276.421857 130.564673 
L 276.543602 130.84779 
L 277.030584 132.07463 
L 277.365384 132.986897 
L 277.852366 134.213737 
L 278.15673 135.000172 
L 278.674148 136.289928 
L 278.795893 136.573045 
L 280.83513 140.536682 
L 280.956875 140.788341 
L 281.352548 141.66915 
L 283.330911 145.506957 
L 283.391784 145.60133 
L 283.635275 146.010276 
L 284.244002 147.016914 
L 284.700548 147.646063 
L 285.065784 148.18084 
L 285.126657 148.275212 
L 285.85713 148.872903 
L 286.070184 148.967275 
L 286.131057 148.935818 
L 286.222366 149.061648 
L 287.135457 148.967275 
L 287.805057 148.432499 
L 287.896366 148.338127 
L 288.505093 147.551691 
L 289.235566 146.293393 
L 289.418184 145.947362 
L 290.148657 144.185744 
L 290.635639 143.021819 
L 291.000875 142.015182 
L 291.426984 140.725426 
L 295.353275 128.897429 
L 296.083748 127.16727 
L 296.296802 126.726866 
L 297.209893 125.091079 
L 298.122984 124.241728 
L 298.15342 124.273185 
L 298.670839 124.367558 
L 299.218693 124.807962 
L 299.24913 124.776504 
L 299.310002 124.870877 
L 299.401311 124.965249 
L 299.675239 125.405653 
L 300.283966 126.91561 
L 301.349239 130.564673 
L 303.084111 140.096277 
L 304.453748 150.791807 
L 305.701639 162.022113 
L 307.801748 182.595278 
L 311.454111 219.243194 
L 312.97593 230.913907 
L 313.919457 236.985193 
L 314.89342 241.452149 
L 315.623893 243.371053 
L 316.506548 244.943922 
L 316.810911 245.101207 
L 316.932657 245.101207 
L 317.115275 245.164124 
L 317.267457 245.101207 
L 317.297893 245.164124 
L 317.389202 245.101207 
L 317.450075 245.132669 
L 317.480511 245.101207 
L 317.66313 244.975385 
L 317.99793 244.472068 
L 318.271857 243.811454 
L 318.758839 242.553164 
L 319.306693 240.539881 
L 321.467675 228.837718 
L 323.446039 213.801059 
L 324.298257 206.125446 
L 325.089602 198.670033 
L 329.563748 158.058476 
L 330.38553 151.326583 
L 332.576948 134.119363 
L 334.585748 120.372463 
L 335.681457 114.17535 
L 336.107566 111.878954 
L 337.385893 105.807668 
L 337.812002 104.140424 
L 338.207675 102.661922 
L 339.972984 97.534361 
L 340.399093 96.401894 
L 341.09913 94.577359 
L 341.220875 94.3257 
L 341.67742 93.25615 
L 343.260111 90.236235 
L 343.473166 89.890201 
L 343.68622 89.544174 
L 344.234075 88.82065 
L 344.508002 88.474621 
L 344.599311 88.380246 
L 344.873239 88.034214 
L 344.964548 87.971297 
L 345.238475 87.656723 
L 345.390657 87.562353 
L 345.725457 87.373606 
L 346.151566 87.279236 
L 346.273311 87.310696 
L 346.486366 87.342153 
L 346.638548 87.467981 
L 346.760293 87.530895 
L 347.064657 87.908387 
L 347.155966 88.002757 
L 347.582075 88.568991 
L 347.825566 89.009398 
L 348.069057 89.418342 
L 349.37782 92.375339 
L 350.777893 97.062497 
L 354.49113 112.88559 
L 358.386984 133.584587 
L 359.42182 139.309842 
L 360.547966 145.695701 
L 361.43062 150.50869 
L 361.917602 152.96237 
L 362.617639 156.611433 
L 364.53513 165.954293 
L 365.11342 168.816921 
L 365.722148 171.899749 
L 368.522293 185.835395 
L 368.735348 186.842033 
L 369.344075 189.83049 
L 370.89633 197.285903 
L 371.90073 201.910147 
L 373.026875 207.163539 
L 373.23993 208.138718 
L 373.635602 209.994712 
L 373.726911 210.372196 
L 374.426948 213.423567 
L 376.25313 220.501497 
L 378.109748 225.943631 
L 378.201057 226.195291 
L 379.418511 228.460226 
L 380.362039 229.27812 
L 380.51422 229.27812 
L 381.214257 229.246662 
L 381.366439 229.089378 
L 382.27953 227.988367 
L 382.583893 227.390673 
L 382.766511 227.044641 
L 382.918693 226.66715 
L 382.918693 226.66715 
" style="fill:none;stroke:#0000ff;stroke-linecap:square;stroke-width:1.5;"/>
   </g>
   <g id="line2d_26">
    <path clip-path="url(#pae424fbb81)" d="M 78.555057 157.524077 
L 78.737675 157.508348 
L 78.889857 157.555534 
L 79.072475 157.508348 
L 79.346402 157.539805 
L 79.589893 157.524077 
L 84.064039 157.634178 
L 84.277093 157.634178 
L 100.560548 157.744279 
L 100.95622 157.838651 
L 101.321457 157.933023 
L 101.595384 158.074582 
L 101.838875 158.184683 
L 102.478039 158.625087 
L 103.573748 159.914842 
L 104.425966 161.440528 
L 105.339057 163.563905 
L 105.826039 164.932304 
L 106.465202 166.866936 
L 109.265348 176.587286 
L 111.487202 183.130433 
L 112.917711 185.851501 
L 113.130766 186.071704 
L 113.617748 186.417735 
L 114.256911 186.637937 
L 114.622148 186.527836 
L 114.896075 186.291906 
L 115.44393 185.647028 
L 115.839602 185.080794 
L 116.174402 184.357273 
L 117.78753 179.025237 
L 119.857202 168.895941 
L 121.287711 160.166502 
L 125.974911 127.057546 
L 128.653311 112.461294 
L 129.50553 108.639215 
L 131.149093 103.904873 
L 131.696948 102.851046 
L 132.792657 100.302994 
L 134.10142 98.478462 
L 134.43622 98.289715 
L 134.86233 97.990872 
L 135.19713 97.55047 
L 135.471057 97.298811 
L 135.653675 97.188704 
L 136.323275 97.078603 
L 136.749384 96.795486 
L 137.479857 96.889861 
L 137.87553 97.141521 
L 138.058148 97.251622 
L 138.301639 97.471821 
L 138.697311 98.289715 
L 139.001675 99.154797 
L 139.45822 100.586111 
L 140.280002 103.480198 
L 141.89313 110.605303 
L 142.927966 116.519304 
L 144.328039 126.648599 
L 147.036875 148.51152 
L 148.193457 159.631725 
L 152.302366 198.906342 
L 154.463348 215.893357 
L 155.589493 222.719624 
L 156.86782 228.161758 
L 157.811348 230.725539 
L 158.176584 231.370414 
L 158.724439 231.779364 
L 159.485348 232.078207 
L 160.185384 231.622074 
L 161.341966 229.624529 
L 161.615893 228.822367 
L 162.681166 225.173301 
L 164.111675 217.261755 
L 166.881384 194.942702 
L 169.742402 169.367803 
L 170.472875 163.280788 
L 171.477275 155.88829 
L 172.999093 146.372414 
L 174.246984 140.505602 
L 175.464439 136.494778 
L 176.681893 134.796076 
L 176.864511 134.811805 
L 177.321057 134.937634 
L 177.442802 134.969092 
L 177.808039 135.252209 
L 178.203711 136.054374 
L 179.208111 138.806901 
L 179.755966 140.521331 
L 181.795202 148.27559 
L 184.838839 164.948033 
L 186.391093 172.387717 
L 187.578111 176.854674 
L 188.308584 179.040966 
L 189.252111 181.620476 
L 190.165202 183.256263 
L 190.408693 183.445007 
L 190.68262 183.476465 
L 190.986984 183.397821 
L 191.139166 183.28772 
L 191.260911 183.240534 
L 191.473966 183.083247 
L 191.565275 183.036061 
L 192.874039 181.82495 
L 192.995784 181.714847 
L 193.300148 181.242987 
L 194.152366 179.22971 
L 194.943711 176.90186 
L 195.70462 174.55828 
L 196.587275 171.459723 
L 198.109093 164.696373 
L 199.235239 158.310513 
L 200.452693 149.408057 
L 203.191966 127.670966 
L 206.17473 105.414828 
L 208.914002 91.825211 
L 209.644475 89.277163 
L 210.466257 87.075138 
L 211.622839 85.470811 
L 211.86633 85.455082 
L 213.20553 86.257244 
L 213.844693 87.326802 
L 214.11862 87.767204 
L 214.605602 88.726656 
L 215.45782 91.22752 
L 216.12742 93.649748 
L 218.684075 106.043976 
L 221.118984 119.27183 
L 221.81902 123.030994 
L 223.675639 132.971544 
L 224.436548 136.998096 
L 225.440948 142.534607 
L 227.84542 154.378333 
L 228.728075 158.499257 
L 230.85862 167.889303 
L 231.467348 170.500271 
L 234.937093 188.997245 
L 236.184984 196.075169 
L 238.680766 207.163914 
L 239.198184 208.642417 
L 240.263457 211.096097 
L 240.933057 212.338666 
L 241.511348 213.282392 
L 242.089639 213.974453 
L 242.424439 214.25757 
L 242.972293 214.682245 
L 243.154911 214.792346 
L 243.550584 215.106921 
L 243.885384 215.437221 
L 244.25062 215.736069 
L 244.494111 215.940545 
L 244.615857 216.019186 
L 244.950657 216.333763 
L 245.68113 216.931455 
L 245.802875 216.978638 
L 246.046366 217.088739 
L 246.837711 217.403314 
L 247.02033 217.419042 
L 249.242184 217.324673 
L 249.424802 217.293215 
L 250.429202 217.19884 
L 250.61182 217.167383 
L 251.524911 217.529141 
L 251.829275 217.639242 
L 252.103202 217.765074 
L 254.112002 218.897542 
L 254.598984 219.448045 
L 258.860075 223.694802 
L 259.255748 223.789174 
L 259.864475 223.679075 
L 260.351457 223.31731 
L 260.808002 222.688166 
L 261.386293 221.587156 
L 262.147202 219.337944 
L 263.182039 214.603602 
L 263.912511 210.262477 
L 264.856039 203.719327 
L 265.738693 196.027983 
L 266.469166 188.242267 
L 267.899675 170.720473 
L 269.178002 152.821189 
L 274.991348 64.378592 
L 276.208802 49.514962 
L 277.517566 36.507308 
L 278.643711 28.611493 
L 279.252439 25.780321 
L 279.891602 23.594024 
L 280.256839 22.807588 
L 280.622075 22.430101 
L 280.74382 22.398649 
L 280.926439 22.32 
L 281.565602 22.760404 
L 281.900402 23.483923 
L 282.478693 25.277004 
L 283.635275 31.159536 
L 284.152693 34.698505 
L 285.004911 41.650599 
L 286.131057 52.487685 
L 287.409384 66.816546 
L 289.418184 93.09924 
L 294.835857 161.707916 
L 296.783784 181.667663 
L 298.48822 197.333464 
L 300.010039 209.743427 
L 301.684039 221.068105 
L 303.297166 229.608803 
L 304.118948 232.219765 
L 305.336402 233.91847 
L 306.036439 234.18586 
L 306.27993 234.170129 
L 306.61473 234.233044 
L 307.101711 234.122943 
L 307.345202 233.902743 
L 308.95833 231.197399 
L 309.597493 229.844729 
L 310.29753 228.146032 
L 311.088875 225.802448 
L 312.275893 221.099563 
L 313.402039 215.35858 
L 314.436875 208.846893 
L 321.041566 161.849475 
L 322.898184 151.908924 
L 323.93302 147.614983 
L 324.69393 144.941101 
L 326.641857 139.247304 
L 327.37233 137.989006 
L 327.859311 137.3284 
L 328.498475 136.541965 
L 329.076766 136.101561 
L 329.837675 135.818443 
L 331.542111 135.928544 
L 332.211711 136.164474 
L 332.485639 136.258848 
L 332.759566 136.384678 
L 333.124802 136.494778 
L 333.276984 136.541965 
L 333.64222 136.620608 
L 333.794402 136.636337 
L 334.129202 136.69925 
L 334.707493 136.809353 
L 335.011857 136.856538 
L 335.164039 136.825082 
L 335.833639 136.714979 
L 336.046693 136.652066 
L 336.533675 136.290304 
L 337.233711 135.425226 
L 337.781566 134.544417 
L 338.42073 133.349035 
L 340.277348 129.259567 
L 341.373057 126.727243 
L 342.377457 124.399393 
L 343.594911 121.536766 
L 345.055857 119.476303 
L 345.603711 119.287559 
L 345.725457 119.27183 
L 345.968948 119.240372 
L 346.273311 119.287559 
L 346.760293 119.39766 
L 348.251675 120.278468 
L 348.70822 120.907617 
L 349.530002 122.370388 
L 350.04742 123.644414 
L 350.290911 124.226377 
L 351.173566 126.805887 
L 352.573639 132.27948 
L 353.608475 137.029554 
L 355.708584 148.464334 
L 357.139093 156.643268 
L 359.300075 168.29825 
L 360.060984 171.648467 
L 361.156693 175.706478 
L 362.556766 180.362178 
L 363.622039 183.303449 
L 365.052548 186.008789 
L 366.11782 187.455831 
L 366.45262 187.723219 
L 366.635239 187.83332 
L 367.152657 187.738948 
L 367.365711 187.644575 
L 367.487457 187.597389 
L 368.278802 187.078342 
L 369.100584 186.087432 
L 370.47022 182.249626 
L 371.018075 180.189161 
L 371.718111 177.452365 
L 374.48782 165.545724 
L 375.553093 160.622635 
L 376.314002 157.005029 
L 381.670802 129.904445 
L 382.918693 124.603866 
L 382.918693 124.603866 
" style="fill:none;stroke:#ff0000;stroke-linecap:square;stroke-width:1.5;"/>
   </g>
   <g id="line2d_27">
    <path clip-path="url(#pae424fbb81)" d="M 127.679348 165.954293 
" style="fill:none;stroke:#ffffff;stroke-linecap:square;stroke-width:1.5;"/>
    <defs>
     <path d="M 0 -5 
L -1.12257 -1.545085 
L -4.755283 -1.545085 
L -1.816356 0.59017 
L -2.938926 4.045085 
L -0 1.90983 
L 2.938926 4.045085 
L 1.816356 0.59017 
L 4.755283 -1.545085 
L 1.12257 -1.545085 
z
" id="m705715ff56" style="stroke:#ffffff;stroke-linejoin:bevel;"/>
    </defs>
    <g clip-path="url(#pae424fbb81)">
     <use style="fill:#0000ff;stroke:#ffffff;stroke-linejoin:bevel;" x="127.679348" xlink:href="#m705715ff56" y="165.954293"/>
    </g>
   </g>
   <g id="line2d_28">
    <path clip-path="url(#pae424fbb81)" d="M 105.64342 164.413256 
" style="fill:none;stroke:#ffffff;stroke-linecap:square;stroke-width:1.5;"/>
    <defs>
     <path d="M 0 -5 
L -1.12257 -1.545085 
L -4.755283 -1.545085 
L -1.816356 0.59017 
L -2.938926 4.045085 
L -0 1.90983 
L 2.938926 4.045085 
L 1.816356 0.59017 
L 4.755283 -1.545085 
L 1.12257 -1.545085 
z
" id="m30450a0c98" style="stroke:#ffffff;stroke-linejoin:bevel;"/>
    </defs>
    <g clip-path="url(#pae424fbb81)">
     <use style="fill:#ff0000;stroke:#ffffff;stroke-linejoin:bevel;" x="105.64342" xlink:href="#m30450a0c98" y="164.413256"/>
    </g>
   </g>
   <g id="patch_3">
    <path d="M 63.336875 339.84 
L 63.336875 7.2 
" style="fill:none;stroke:#000000;stroke-linecap:square;stroke-linejoin:miter;stroke-width:0.8;"/>
   </g>
   <g id="patch_4">
    <path d="M 398.136875 339.84 
L 398.136875 7.2 
" style="fill:none;stroke:#000000;stroke-linecap:square;stroke-linejoin:miter;stroke-width:0.8;"/>
   </g>
   <g id="patch_5">
    <path d="M 63.336875 339.84 
L 398.136875 339.84 
" style="fill:none;stroke:#000000;stroke-linecap:square;stroke-linejoin:miter;stroke-width:0.8;"/>
   </g>
   <g id="patch_6">
    <path d="M 63.336875 7.2 
L 398.136875 7.2 
" style="fill:none;stroke:#000000;stroke-linecap:square;stroke-linejoin:miter;stroke-width:0.8;"/>
   </g>
   <g id="text_15">
    <g id="patch_7">
     <path d="M 75.036875 331.242688 
L 166.79375 331.242688 
L 166.79375 293.760312 
L 75.036875 293.760312 
z
" style="fill:#ffffff;stroke:#000000;stroke-linejoin:miter;stroke-width:0.75;"/>
    </g>
    <!-- Auto_00062 -->
    <g transform="translate(80.076875 308.521562)scale(0.14 -0.14)">
     <defs>
      <path d="M 2928 1419 
L 1288 1419 
L 1000 750 
Q 894 503 894 381 
Q 894 284 986 211 
Q 1078 138 1384 116 
L 1384 0 
L 50 0 
L 50 116 
Q 316 163 394 238 
Q 553 388 747 847 
L 2238 4334 
L 2347 4334 
L 3822 809 
Q 4000 384 4145 257 
Q 4291 131 4550 116 
L 4550 0 
L 2878 0 
L 2878 116 
Q 3131 128 3220 200 
Q 3309 272 3309 375 
Q 3309 513 3184 809 
L 2928 1419 
z
M 2841 1650 
L 2122 3363 
L 1384 1650 
L 2841 1650 
z
" id="TimesNewRomanPSMT-41" transform="scale(0.015625)"/>
      <path d="M 2709 2863 
L 2709 1128 
Q 2709 631 2732 520 
Q 2756 409 2807 365 
Q 2859 322 2928 322 
Q 3025 322 3147 375 
L 3191 266 
L 2334 -88 
L 2194 -88 
L 2194 519 
Q 1825 119 1631 15 
Q 1438 -88 1222 -88 
Q 981 -88 804 51 
Q 628 191 559 409 
Q 491 628 491 1028 
L 491 2306 
Q 491 2509 447 2587 
Q 403 2666 317 2708 
Q 231 2750 6 2747 
L 6 2863 
L 1009 2863 
L 1009 947 
Q 1009 547 1148 422 
Q 1288 297 1484 297 
Q 1619 297 1789 381 
Q 1959 466 2194 703 
L 2194 2325 
Q 2194 2569 2105 2655 
Q 2016 2741 1734 2747 
L 1734 2863 
L 2709 2863 
z
" id="TimesNewRomanPSMT-75" transform="scale(0.015625)"/>
      <path d="M 3256 -1381 
L -53 -1381 
L -53 -1119 
L 3256 -1119 
L 3256 -1381 
z
" id="TimesNewRomanPSMT-5f" transform="scale(0.015625)"/>
     </defs>
     <use xlink:href="#TimesNewRomanPSMT-41"/>
     <use x="72.216797" xlink:href="#TimesNewRomanPSMT-75"/>
     <use x="122.216797" xlink:href="#TimesNewRomanPSMT-74"/>
     <use x="150" xlink:href="#TimesNewRomanPSMT-6f"/>
     <use x="200" xlink:href="#TimesNewRomanPSMT-5f"/>
     <use x="250" xlink:href="#TimesNewRomanPSMT-30"/>
     <use x="300" xlink:href="#TimesNewRomanPSMT-30"/>
     <use x="350" xlink:href="#TimesNewRomanPSMT-30"/>
     <use x="400" xlink:href="#TimesNewRomanPSMT-36"/>
     <use x="450" xlink:href="#TimesNewRomanPSMT-32"/>
    </g>
    <!-- Vs: 276.10m/s -->
    <g transform="translate(80.076875 323.208)scale(0.14 -0.14)">
     <defs>
      <path d="M 903 2950 
Q 1047 2950 1148 2848 
Q 1250 2747 1250 2603 
Q 1250 2459 1148 2357 
Q 1047 2256 903 2256 
Q 759 2256 657 2357 
Q 556 2459 556 2603 
Q 556 2747 657 2848 
Q 759 2950 903 2950 
z
M 897 609 
Q 1044 609 1145 506 
Q 1247 403 1247 259 
Q 1247 116 1144 14 
Q 1041 -88 897 -88 
Q 753 -88 651 14 
Q 550 116 550 259 
Q 550 403 651 506 
Q 753 609 897 609 
z
" id="TimesNewRomanPSMT-3a" transform="scale(0.015625)"/>
      <path d="M 644 4238 
L 2916 4238 
L 2916 4119 
L 1503 -88 
L 1153 -88 
L 2419 3728 
L 1253 3728 
Q 900 3728 750 3644 
Q 488 3500 328 3200 
L 238 3234 
L 644 4238 
z
" id="TimesNewRomanPSMT-37" transform="scale(0.015625)"/>
      <path d="M 1794 4444 
L 259 -88 
L 9 -88 
L 1544 4444 
L 1794 4444 
z
" id="TimesNewRomanPSMT-2f" transform="scale(0.015625)"/>
     </defs>
     <use xlink:href="#TimesNewRomanPSMT-56"/>
     <use x="72.216797" xlink:href="#TimesNewRomanPSMT-73"/>
     <use x="111.132812" xlink:href="#TimesNewRomanPSMT-3a"/>
     <use x="138.916016" xlink:href="#TimesNewRomanPSMT-20"/>
     <use x="163.916016" xlink:href="#TimesNewRomanPSMT-32"/>
     <use x="213.916016" xlink:href="#TimesNewRomanPSMT-37"/>
     <use x="263.916016" xlink:href="#TimesNewRomanPSMT-36"/>
     <use x="313.916016" xlink:href="#TimesNewRomanPSMT-2e"/>
     <use x="338.916016" xlink:href="#TimesNewRomanPSMT-31"/>
     <use x="388.916016" xlink:href="#TimesNewRomanPSMT-30"/>
     <use x="438.916016" xlink:href="#TimesNewRomanPSMT-6d"/>
     <use x="516.699219" xlink:href="#TimesNewRomanPSMT-2f"/>
     <use x="544.482422" xlink:href="#TimesNewRomanPSMT-73"/>
    </g>
   </g>
  </g>
 </g>
 <defs>
  <clipPath id="pae424fbb81">
   <rect height="332.64" width="334.8" x="63.336875" y="7.2"/>
  </clipPath>
 </defs>
</svg>
