<?xml version="1.0" encoding="utf-8" standalone="no"?>
<!DOCTYPE svg PUBLIC "-//W3C//DTD SVG 1.1//EN"
  "http://www.w3.org/Graphics/SVG/1.1/DTD/svg11.dtd">
<svg height="383.471875pt" version="1.1" viewBox="0 0 421.086875 383.471875" width="421.086875pt" xmlns="http://www.w3.org/2000/svg" xmlns:xlink="http://www.w3.org/1999/xlink">
 <metadata>
  <rdf:RDF xmlns:cc="http://creativecommons.org/ns#" xmlns:dc="http://purl.org/dc/elements/1.1/" xmlns:rdf="http://www.w3.org/1999/02/22-rdf-syntax-ns#">
   <cc:Work>
    <dc:type rdf:resource="http://purl.org/dc/dcmitype/StillImage"/>
    <dc:date>2021-06-11T14:39:38.196637</dc:date>
    <dc:format>image/svg+xml</dc:format>
    <dc:creator>
     <cc:Agent>
      <dc:title>Matplotlib v3.4.2, https://matplotlib.org/</dc:title>
     </cc:Agent>
    </dc:creator>
   </cc:Work>
  </rdf:RDF>
 </metadata>
 <defs>
  <style type="text/css">*{stroke-linecap:butt;stroke-linejoin:round;}</style>
 </defs>
 <g id="figure_1">
  <g id="patch_1">
   <path d="M 0 383.471875 
L 421.086875 383.471875 
L 421.086875 0 
L 0 0 
z
" style="fill:#ffffff;"/>
  </g>
  <g id="axes_1">
   <g id="patch_2">
    <path d="M 63.336875 339.84 
L 398.136875 339.84 
L 398.136875 7.2 
L 63.336875 7.2 
z
" style="fill:#ffffff;"/>
   </g>
   <g id="matplotlib.axis_1">
    <g id="xtick_1">
     <g id="line2d_1">
      <path clip-path="url(#pcf74f3348b)" d="M 93.773239 339.84 
L 93.773239 7.2 
" style="fill:none;stroke:#000000;stroke-dasharray:0.5,0.825;stroke-dashoffset:0;stroke-width:0.5;"/>
     </g>
     <g id="line2d_2">
      <defs>
       <path d="M 0 0 
L 0 3.5 
" id="m09a506b438" style="stroke:#000000;stroke-width:0.8;"/>
      </defs>
      <g>
       <use style="stroke:#000000;stroke-width:0.8;" x="93.773239" xlink:href="#m09a506b438" y="339.84"/>
      </g>
     </g>
     <g id="text_1">
      <!-- 0.000 -->
      <g transform="translate(78.023239 356.56125)scale(0.14 -0.14)">
       <defs>
        <path d="M 231 2094 
Q 231 2819 450 3342 
Q 669 3866 1031 4122 
Q 1313 4325 1613 4325 
Q 2100 4325 2488 3828 
Q 2972 3213 2972 2159 
Q 2972 1422 2759 906 
Q 2547 391 2217 158 
Q 1888 -75 1581 -75 
Q 975 -75 572 641 
Q 231 1244 231 2094 
z
M 844 2016 
Q 844 1141 1059 588 
Q 1238 122 1591 122 
Q 1759 122 1940 273 
Q 2122 425 2216 781 
Q 2359 1319 2359 2297 
Q 2359 3022 2209 3506 
Q 2097 3866 1919 4016 
Q 1791 4119 1609 4119 
Q 1397 4119 1231 3928 
Q 1006 3669 925 3112 
Q 844 2556 844 2016 
z
" id="TimesNewRomanPSMT-30" transform="scale(0.015625)"/>
        <path d="M 800 606 
Q 947 606 1047 504 
Q 1147 403 1147 259 
Q 1147 116 1045 14 
Q 944 -88 800 -88 
Q 656 -88 554 14 
Q 453 116 453 259 
Q 453 406 554 506 
Q 656 606 800 606 
z
" id="TimesNewRomanPSMT-2e" transform="scale(0.015625)"/>
       </defs>
       <use xlink:href="#TimesNewRomanPSMT-30"/>
       <use x="50" xlink:href="#TimesNewRomanPSMT-2e"/>
       <use x="75" xlink:href="#TimesNewRomanPSMT-30"/>
       <use x="125" xlink:href="#TimesNewRomanPSMT-30"/>
       <use x="175" xlink:href="#TimesNewRomanPSMT-30"/>
      </g>
     </g>
    </g>
    <g id="xtick_2">
     <g id="line2d_3">
      <path clip-path="url(#pcf74f3348b)" d="M 154.645966 339.84 
L 154.645966 7.2 
" style="fill:none;stroke:#000000;stroke-dasharray:0.5,0.825;stroke-dashoffset:0;stroke-width:0.5;"/>
     </g>
     <g id="line2d_4">
      <g>
       <use style="stroke:#000000;stroke-width:0.8;" x="154.645966" xlink:href="#m09a506b438" y="339.84"/>
      </g>
     </g>
     <g id="text_2">
      <!-- 0.001 -->
      <g transform="translate(138.895966 356.56125)scale(0.14 -0.14)">
       <defs>
        <path d="M 750 3822 
L 1781 4325 
L 1884 4325 
L 1884 747 
Q 1884 391 1914 303 
Q 1944 216 2037 169 
Q 2131 122 2419 116 
L 2419 0 
L 825 0 
L 825 116 
Q 1125 122 1212 167 
Q 1300 213 1334 289 
Q 1369 366 1369 747 
L 1369 3034 
Q 1369 3497 1338 3628 
Q 1316 3728 1258 3775 
Q 1200 3822 1119 3822 
Q 1003 3822 797 3725 
L 750 3822 
z
" id="TimesNewRomanPSMT-31" transform="scale(0.015625)"/>
       </defs>
       <use xlink:href="#TimesNewRomanPSMT-30"/>
       <use x="50" xlink:href="#TimesNewRomanPSMT-2e"/>
       <use x="75" xlink:href="#TimesNewRomanPSMT-30"/>
       <use x="125" xlink:href="#TimesNewRomanPSMT-30"/>
       <use x="175" xlink:href="#TimesNewRomanPSMT-31"/>
      </g>
     </g>
    </g>
    <g id="xtick_3">
     <g id="line2d_5">
      <path clip-path="url(#pcf74f3348b)" d="M 215.518693 339.84 
L 215.518693 7.2 
" style="fill:none;stroke:#000000;stroke-dasharray:0.5,0.825;stroke-dashoffset:0;stroke-width:0.5;"/>
     </g>
     <g id="line2d_6">
      <g>
       <use style="stroke:#000000;stroke-width:0.8;" x="215.518693" xlink:href="#m09a506b438" y="339.84"/>
      </g>
     </g>
     <g id="text_3">
      <!-- 0.002 -->
      <g transform="translate(199.768693 356.56125)scale(0.14 -0.14)">
       <defs>
        <path d="M 2934 816 
L 2638 0 
L 138 0 
L 138 116 
Q 1241 1122 1691 1759 
Q 2141 2397 2141 2925 
Q 2141 3328 1894 3587 
Q 1647 3847 1303 3847 
Q 991 3847 742 3664 
Q 494 3481 375 3128 
L 259 3128 
Q 338 3706 661 4015 
Q 984 4325 1469 4325 
Q 1984 4325 2329 3994 
Q 2675 3663 2675 3213 
Q 2675 2891 2525 2569 
Q 2294 2063 1775 1497 
Q 997 647 803 472 
L 1909 472 
Q 2247 472 2383 497 
Q 2519 522 2628 598 
Q 2738 675 2819 816 
L 2934 816 
z
" id="TimesNewRomanPSMT-32" transform="scale(0.015625)"/>
       </defs>
       <use xlink:href="#TimesNewRomanPSMT-30"/>
       <use x="50" xlink:href="#TimesNewRomanPSMT-2e"/>
       <use x="75" xlink:href="#TimesNewRomanPSMT-30"/>
       <use x="125" xlink:href="#TimesNewRomanPSMT-30"/>
       <use x="175" xlink:href="#TimesNewRomanPSMT-32"/>
      </g>
     </g>
    </g>
    <g id="xtick_4">
     <g id="line2d_7">
      <path clip-path="url(#pcf74f3348b)" d="M 276.39142 339.84 
L 276.39142 7.2 
" style="fill:none;stroke:#000000;stroke-dasharray:0.5,0.825;stroke-dashoffset:0;stroke-width:0.5;"/>
     </g>
     <g id="line2d_8">
      <g>
       <use style="stroke:#000000;stroke-width:0.8;" x="276.39142" xlink:href="#m09a506b438" y="339.84"/>
      </g>
     </g>
     <g id="text_4">
      <!-- 0.003 -->
      <g transform="translate(260.64142 356.56125)scale(0.14 -0.14)">
       <defs>
        <path d="M 325 3431 
Q 506 3859 782 4092 
Q 1059 4325 1472 4325 
Q 1981 4325 2253 3994 
Q 2459 3747 2459 3466 
Q 2459 3003 1878 2509 
Q 2269 2356 2469 2072 
Q 2669 1788 2669 1403 
Q 2669 853 2319 450 
Q 1863 -75 997 -75 
Q 569 -75 414 31 
Q 259 138 259 259 
Q 259 350 332 419 
Q 406 488 509 488 
Q 588 488 669 463 
Q 722 447 909 348 
Q 1097 250 1169 231 
Q 1284 197 1416 197 
Q 1734 197 1970 444 
Q 2206 691 2206 1028 
Q 2206 1275 2097 1509 
Q 2016 1684 1919 1775 
Q 1784 1900 1550 2001 
Q 1316 2103 1072 2103 
L 972 2103 
L 972 2197 
Q 1219 2228 1467 2375 
Q 1716 2522 1828 2728 
Q 1941 2934 1941 3181 
Q 1941 3503 1739 3701 
Q 1538 3900 1238 3900 
Q 753 3900 428 3381 
L 325 3431 
z
" id="TimesNewRomanPSMT-33" transform="scale(0.015625)"/>
       </defs>
       <use xlink:href="#TimesNewRomanPSMT-30"/>
       <use x="50" xlink:href="#TimesNewRomanPSMT-2e"/>
       <use x="75" xlink:href="#TimesNewRomanPSMT-30"/>
       <use x="125" xlink:href="#TimesNewRomanPSMT-30"/>
       <use x="175" xlink:href="#TimesNewRomanPSMT-33"/>
      </g>
     </g>
    </g>
    <g id="xtick_5">
     <g id="line2d_9">
      <path clip-path="url(#pcf74f3348b)" d="M 337.264148 339.84 
L 337.264148 7.2 
" style="fill:none;stroke:#000000;stroke-dasharray:0.5,0.825;stroke-dashoffset:0;stroke-width:0.5;"/>
     </g>
     <g id="line2d_10">
      <g>
       <use style="stroke:#000000;stroke-width:0.8;" x="337.264148" xlink:href="#m09a506b438" y="339.84"/>
      </g>
     </g>
     <g id="text_5">
      <!-- 0.004 -->
      <g transform="translate(321.514148 356.56125)scale(0.14 -0.14)">
       <defs>
        <path d="M 2978 1563 
L 2978 1119 
L 2409 1119 
L 2409 0 
L 1894 0 
L 1894 1119 
L 100 1119 
L 100 1519 
L 2066 4325 
L 2409 4325 
L 2409 1563 
L 2978 1563 
z
M 1894 1563 
L 1894 3666 
L 406 1563 
L 1894 1563 
z
" id="TimesNewRomanPSMT-34" transform="scale(0.015625)"/>
       </defs>
       <use xlink:href="#TimesNewRomanPSMT-30"/>
       <use x="50" xlink:href="#TimesNewRomanPSMT-2e"/>
       <use x="75" xlink:href="#TimesNewRomanPSMT-30"/>
       <use x="125" xlink:href="#TimesNewRomanPSMT-30"/>
       <use x="175" xlink:href="#TimesNewRomanPSMT-34"/>
      </g>
     </g>
    </g>
    <g id="xtick_6">
     <g id="line2d_11">
      <path clip-path="url(#pcf74f3348b)" d="M 398.136875 339.84 
L 398.136875 7.2 
" style="fill:none;stroke:#000000;stroke-dasharray:0.5,0.825;stroke-dashoffset:0;stroke-width:0.5;"/>
     </g>
     <g id="line2d_12">
      <g>
       <use style="stroke:#000000;stroke-width:0.8;" x="398.136875" xlink:href="#m09a506b438" y="339.84"/>
      </g>
     </g>
     <g id="text_6">
      <!-- 0.005 -->
      <g transform="translate(382.386875 356.56125)scale(0.14 -0.14)">
       <defs>
        <path d="M 2778 4238 
L 2534 3706 
L 1259 3706 
L 981 3138 
Q 1809 3016 2294 2522 
Q 2709 2097 2709 1522 
Q 2709 1188 2573 903 
Q 2438 619 2231 419 
Q 2025 219 1772 97 
Q 1413 -75 1034 -75 
Q 653 -75 479 54 
Q 306 184 306 341 
Q 306 428 378 495 
Q 450 563 559 563 
Q 641 563 702 538 
Q 763 513 909 409 
Q 1144 247 1384 247 
Q 1750 247 2026 523 
Q 2303 800 2303 1197 
Q 2303 1581 2056 1914 
Q 1809 2247 1375 2428 
Q 1034 2569 447 2591 
L 1259 4238 
L 2778 4238 
z
" id="TimesNewRomanPSMT-35" transform="scale(0.015625)"/>
       </defs>
       <use xlink:href="#TimesNewRomanPSMT-30"/>
       <use x="50" xlink:href="#TimesNewRomanPSMT-2e"/>
       <use x="75" xlink:href="#TimesNewRomanPSMT-30"/>
       <use x="125" xlink:href="#TimesNewRomanPSMT-30"/>
       <use x="175" xlink:href="#TimesNewRomanPSMT-35"/>
      </g>
     </g>
    </g>
    <g id="text_7">
     <!-- Time (sec) -->
     <g transform="translate(200.858906 373.277188)scale(0.14 -0.14)">
      <defs>
       <path d="M 3703 4238 
L 3750 3244 
L 3631 3244 
Q 3597 3506 3538 3619 
Q 3441 3800 3280 3886 
Q 3119 3972 2856 3972 
L 2259 3972 
L 2259 734 
Q 2259 344 2344 247 
Q 2463 116 2709 116 
L 2856 116 
L 2856 0 
L 1059 0 
L 1059 116 
L 1209 116 
Q 1478 116 1591 278 
Q 1659 378 1659 734 
L 1659 3972 
L 1150 3972 
Q 853 3972 728 3928 
Q 566 3869 450 3700 
Q 334 3531 313 3244 
L 194 3244 
L 244 4238 
L 3703 4238 
z
" id="TimesNewRomanPSMT-54" transform="scale(0.015625)"/>
       <path d="M 928 4444 
Q 1059 4444 1151 4351 
Q 1244 4259 1244 4128 
Q 1244 3997 1151 3903 
Q 1059 3809 928 3809 
Q 797 3809 703 3903 
Q 609 3997 609 4128 
Q 609 4259 701 4351 
Q 794 4444 928 4444 
z
M 1188 2947 
L 1188 647 
Q 1188 378 1227 289 
Q 1266 200 1342 156 
Q 1419 113 1622 113 
L 1622 0 
L 231 0 
L 231 113 
Q 441 113 512 153 
Q 584 194 626 287 
Q 669 381 669 647 
L 669 1750 
Q 669 2216 641 2353 
Q 619 2453 572 2492 
Q 525 2531 444 2531 
Q 356 2531 231 2484 
L 188 2597 
L 1050 2947 
L 1188 2947 
z
" id="TimesNewRomanPSMT-69" transform="scale(0.015625)"/>
       <path d="M 1050 2338 
Q 1363 2650 1419 2697 
Q 1559 2816 1721 2881 
Q 1884 2947 2044 2947 
Q 2313 2947 2506 2790 
Q 2700 2634 2766 2338 
Q 3088 2713 3309 2830 
Q 3531 2947 3766 2947 
Q 3994 2947 4170 2830 
Q 4347 2713 4450 2447 
Q 4519 2266 4519 1878 
L 4519 647 
Q 4519 378 4559 278 
Q 4591 209 4675 161 
Q 4759 113 4950 113 
L 4950 0 
L 3538 0 
L 3538 113 
L 3597 113 
Q 3781 113 3884 184 
Q 3956 234 3988 344 
Q 4000 397 4000 647 
L 4000 1878 
Q 4000 2228 3916 2372 
Q 3794 2572 3525 2572 
Q 3359 2572 3192 2489 
Q 3025 2406 2788 2181 
L 2781 2147 
L 2788 2013 
L 2788 647 
Q 2788 353 2820 281 
Q 2853 209 2943 161 
Q 3034 113 3253 113 
L 3253 0 
L 1806 0 
L 1806 113 
Q 2044 113 2133 169 
Q 2222 225 2256 338 
Q 2272 391 2272 647 
L 2272 1878 
Q 2272 2228 2169 2381 
Q 2031 2581 1784 2581 
Q 1616 2581 1450 2491 
Q 1191 2353 1050 2181 
L 1050 647 
Q 1050 366 1089 281 
Q 1128 197 1204 155 
Q 1281 113 1516 113 
L 1516 0 
L 100 0 
L 100 113 
Q 297 113 375 155 
Q 453 197 493 289 
Q 534 381 534 647 
L 534 1741 
Q 534 2213 506 2350 
Q 484 2453 437 2492 
Q 391 2531 309 2531 
Q 222 2531 100 2484 
L 53 2597 
L 916 2947 
L 1050 2947 
L 1050 2338 
z
" id="TimesNewRomanPSMT-6d" transform="scale(0.015625)"/>
       <path d="M 681 1784 
Q 678 1147 991 784 
Q 1303 422 1725 422 
Q 2006 422 2214 576 
Q 2422 731 2563 1106 
L 2659 1044 
Q 2594 616 2278 264 
Q 1963 -88 1488 -88 
Q 972 -88 605 314 
Q 238 716 238 1394 
Q 238 2128 614 2539 
Q 991 2950 1559 2950 
Q 2041 2950 2350 2633 
Q 2659 2316 2659 1784 
L 681 1784 
z
M 681 1966 
L 2006 1966 
Q 1991 2241 1941 2353 
Q 1863 2528 1708 2628 
Q 1553 2728 1384 2728 
Q 1125 2728 920 2526 
Q 716 2325 681 1966 
z
" id="TimesNewRomanPSMT-65" transform="scale(0.015625)"/>
       <path id="TimesNewRomanPSMT-20" transform="scale(0.015625)"/>
       <path d="M 1988 -1253 
L 1988 -1369 
Q 1516 -1131 1200 -813 
Q 750 -359 506 256 
Q 263 872 263 1534 
Q 263 2503 741 3301 
Q 1219 4100 1988 4444 
L 1988 4313 
Q 1603 4100 1356 3731 
Q 1109 3363 987 2797 
Q 866 2231 866 1616 
Q 866 947 969 400 
Q 1050 -31 1165 -292 
Q 1281 -553 1476 -793 
Q 1672 -1034 1988 -1253 
z
" id="TimesNewRomanPSMT-28" transform="scale(0.015625)"/>
       <path d="M 2050 2947 
L 2050 1972 
L 1947 1972 
Q 1828 2431 1642 2597 
Q 1456 2763 1169 2763 
Q 950 2763 815 2647 
Q 681 2531 681 2391 
Q 681 2216 781 2091 
Q 878 1963 1175 1819 
L 1631 1597 
Q 2266 1288 2266 781 
Q 2266 391 1970 151 
Q 1675 -88 1309 -88 
Q 1047 -88 709 6 
Q 606 38 541 38 
Q 469 38 428 -44 
L 325 -44 
L 325 978 
L 428 978 
Q 516 541 762 319 
Q 1009 97 1316 97 
Q 1531 97 1667 223 
Q 1803 350 1803 528 
Q 1803 744 1651 891 
Q 1500 1038 1047 1263 
Q 594 1488 453 1669 
Q 313 1847 313 2119 
Q 313 2472 555 2709 
Q 797 2947 1181 2947 
Q 1350 2947 1591 2875 
Q 1750 2828 1803 2828 
Q 1853 2828 1881 2850 
Q 1909 2872 1947 2947 
L 2050 2947 
z
" id="TimesNewRomanPSMT-73" transform="scale(0.015625)"/>
       <path d="M 2631 1088 
Q 2516 522 2178 217 
Q 1841 -88 1431 -88 
Q 944 -88 581 321 
Q 219 731 219 1428 
Q 219 2103 620 2525 
Q 1022 2947 1584 2947 
Q 2006 2947 2278 2723 
Q 2550 2500 2550 2259 
Q 2550 2141 2473 2067 
Q 2397 1994 2259 1994 
Q 2075 1994 1981 2113 
Q 1928 2178 1911 2362 
Q 1894 2547 1784 2644 
Q 1675 2738 1481 2738 
Q 1169 2738 978 2506 
Q 725 2200 725 1697 
Q 725 1184 976 792 
Q 1228 400 1656 400 
Q 1963 400 2206 609 
Q 2378 753 2541 1131 
L 2631 1088 
z
" id="TimesNewRomanPSMT-63" transform="scale(0.015625)"/>
       <path d="M 144 4313 
L 144 4444 
Q 619 4209 934 3891 
Q 1381 3434 1625 2820 
Q 1869 2206 1869 1541 
Q 1869 572 1392 -226 
Q 916 -1025 144 -1369 
L 144 -1253 
Q 528 -1038 776 -670 
Q 1025 -303 1145 264 
Q 1266 831 1266 1447 
Q 1266 2113 1163 2663 
Q 1084 3094 967 3353 
Q 850 3613 656 3853 
Q 463 4094 144 4313 
z
" id="TimesNewRomanPSMT-29" transform="scale(0.015625)"/>
      </defs>
      <use xlink:href="#TimesNewRomanPSMT-54"/>
      <use x="57.583984" xlink:href="#TimesNewRomanPSMT-69"/>
      <use x="85.367188" xlink:href="#TimesNewRomanPSMT-6d"/>
      <use x="163.150391" xlink:href="#TimesNewRomanPSMT-65"/>
      <use x="207.535156" xlink:href="#TimesNewRomanPSMT-20"/>
      <use x="232.535156" xlink:href="#TimesNewRomanPSMT-28"/>
      <use x="265.835938" xlink:href="#TimesNewRomanPSMT-73"/>
      <use x="304.751953" xlink:href="#TimesNewRomanPSMT-65"/>
      <use x="349.136719" xlink:href="#TimesNewRomanPSMT-63"/>
      <use x="393.521484" xlink:href="#TimesNewRomanPSMT-29"/>
     </g>
    </g>
   </g>
   <g id="matplotlib.axis_2">
    <g id="ytick_1">
     <g id="line2d_13">
      <path clip-path="url(#pcf74f3348b)" d="M 63.336875 325.420338 
L 398.136875 325.420338 
" style="fill:none;stroke:#000000;stroke-dasharray:0.5,0.825;stroke-dashoffset:0;stroke-width:0.5;"/>
     </g>
     <g id="line2d_14">
      <defs>
       <path d="M 0 0 
L -3.5 0 
" id="m93b8cf0dcd" style="stroke:#000000;stroke-width:0.8;"/>
      </defs>
      <g>
       <use style="stroke:#000000;stroke-width:0.8;" x="63.336875" xlink:href="#m93b8cf0dcd" y="325.420338"/>
      </g>
     </g>
     <g id="text_8">
      <!-- −0.06 -->
      <g transform="translate(23.942188 330.280963)scale(0.14 -0.14)">
       <defs>
        <path d="M 3484 2000 
L 116 2000 
L 116 2256 
L 3484 2256 
L 3484 2000 
z
" id="TimesNewRomanPSMT-2212" transform="scale(0.015625)"/>
        <path d="M 2869 4325 
L 2869 4209 
Q 2456 4169 2195 4045 
Q 1934 3922 1679 3669 
Q 1425 3416 1258 3105 
Q 1091 2794 978 2366 
Q 1428 2675 1881 2675 
Q 2316 2675 2634 2325 
Q 2953 1975 2953 1425 
Q 2953 894 2631 456 
Q 2244 -75 1606 -75 
Q 1172 -75 869 213 
Q 275 772 275 1663 
Q 275 2231 503 2743 
Q 731 3256 1154 3653 
Q 1578 4050 1965 4187 
Q 2353 4325 2688 4325 
L 2869 4325 
z
M 925 2138 
Q 869 1716 869 1456 
Q 869 1156 980 804 
Q 1091 453 1309 247 
Q 1469 100 1697 100 
Q 1969 100 2183 356 
Q 2397 613 2397 1088 
Q 2397 1622 2184 2012 
Q 1972 2403 1581 2403 
Q 1463 2403 1327 2353 
Q 1191 2303 925 2138 
z
" id="TimesNewRomanPSMT-36" transform="scale(0.015625)"/>
       </defs>
       <use xlink:href="#TimesNewRomanPSMT-2212"/>
       <use x="56.396484" xlink:href="#TimesNewRomanPSMT-30"/>
       <use x="106.396484" xlink:href="#TimesNewRomanPSMT-2e"/>
       <use x="131.396484" xlink:href="#TimesNewRomanPSMT-30"/>
       <use x="181.396484" xlink:href="#TimesNewRomanPSMT-36"/>
      </g>
     </g>
    </g>
    <g id="ytick_2">
     <g id="line2d_15">
      <path clip-path="url(#pcf74f3348b)" d="M 63.336875 268.575174 
L 398.136875 268.575174 
" style="fill:none;stroke:#000000;stroke-dasharray:0.5,0.825;stroke-dashoffset:0;stroke-width:0.5;"/>
     </g>
     <g id="line2d_16">
      <g>
       <use style="stroke:#000000;stroke-width:0.8;" x="63.336875" xlink:href="#m93b8cf0dcd" y="268.575174"/>
      </g>
     </g>
     <g id="text_9">
      <!-- −0.04 -->
      <g transform="translate(23.942188 273.435799)scale(0.14 -0.14)">
       <use xlink:href="#TimesNewRomanPSMT-2212"/>
       <use x="56.396484" xlink:href="#TimesNewRomanPSMT-30"/>
       <use x="106.396484" xlink:href="#TimesNewRomanPSMT-2e"/>
       <use x="131.396484" xlink:href="#TimesNewRomanPSMT-30"/>
       <use x="181.396484" xlink:href="#TimesNewRomanPSMT-34"/>
      </g>
     </g>
    </g>
    <g id="ytick_3">
     <g id="line2d_17">
      <path clip-path="url(#pcf74f3348b)" d="M 63.336875 211.730009 
L 398.136875 211.730009 
" style="fill:none;stroke:#000000;stroke-dasharray:0.5,0.825;stroke-dashoffset:0;stroke-width:0.5;"/>
     </g>
     <g id="line2d_18">
      <g>
       <use style="stroke:#000000;stroke-width:0.8;" x="63.336875" xlink:href="#m93b8cf0dcd" y="211.730009"/>
      </g>
     </g>
     <g id="text_10">
      <!-- −0.02 -->
      <g transform="translate(23.942188 216.590634)scale(0.14 -0.14)">
       <use xlink:href="#TimesNewRomanPSMT-2212"/>
       <use x="56.396484" xlink:href="#TimesNewRomanPSMT-30"/>
       <use x="106.396484" xlink:href="#TimesNewRomanPSMT-2e"/>
       <use x="131.396484" xlink:href="#TimesNewRomanPSMT-30"/>
       <use x="181.396484" xlink:href="#TimesNewRomanPSMT-32"/>
      </g>
     </g>
    </g>
    <g id="ytick_4">
     <g id="line2d_19">
      <path clip-path="url(#pcf74f3348b)" d="M 63.336875 154.884845 
L 398.136875 154.884845 
" style="fill:none;stroke:#000000;stroke-dasharray:0.5,0.825;stroke-dashoffset:0;stroke-width:0.5;"/>
     </g>
     <g id="line2d_20">
      <g>
       <use style="stroke:#000000;stroke-width:0.8;" x="63.336875" xlink:href="#m93b8cf0dcd" y="154.884845"/>
      </g>
     </g>
     <g id="text_11">
      <!-- 0.00 -->
      <g transform="translate(31.836875 159.74547)scale(0.14 -0.14)">
       <use xlink:href="#TimesNewRomanPSMT-30"/>
       <use x="50" xlink:href="#TimesNewRomanPSMT-2e"/>
       <use x="75" xlink:href="#TimesNewRomanPSMT-30"/>
       <use x="125" xlink:href="#TimesNewRomanPSMT-30"/>
      </g>
     </g>
    </g>
    <g id="ytick_5">
     <g id="line2d_21">
      <path clip-path="url(#pcf74f3348b)" d="M 63.336875 98.03968 
L 398.136875 98.03968 
" style="fill:none;stroke:#000000;stroke-dasharray:0.5,0.825;stroke-dashoffset:0;stroke-width:0.5;"/>
     </g>
     <g id="line2d_22">
      <g>
       <use style="stroke:#000000;stroke-width:0.8;" x="63.336875" xlink:href="#m93b8cf0dcd" y="98.03968"/>
      </g>
     </g>
     <g id="text_12">
      <!-- 0.02 -->
      <g transform="translate(31.836875 102.900305)scale(0.14 -0.14)">
       <use xlink:href="#TimesNewRomanPSMT-30"/>
       <use x="50" xlink:href="#TimesNewRomanPSMT-2e"/>
       <use x="75" xlink:href="#TimesNewRomanPSMT-30"/>
       <use x="125" xlink:href="#TimesNewRomanPSMT-32"/>
      </g>
     </g>
    </g>
    <g id="ytick_6">
     <g id="line2d_23">
      <path clip-path="url(#pcf74f3348b)" d="M 63.336875 41.194516 
L 398.136875 41.194516 
" style="fill:none;stroke:#000000;stroke-dasharray:0.5,0.825;stroke-dashoffset:0;stroke-width:0.5;"/>
     </g>
     <g id="line2d_24">
      <g>
       <use style="stroke:#000000;stroke-width:0.8;" x="63.336875" xlink:href="#m93b8cf0dcd" y="41.194516"/>
      </g>
     </g>
     <g id="text_13">
      <!-- 0.04 -->
      <g transform="translate(31.836875 46.055141)scale(0.14 -0.14)">
       <use xlink:href="#TimesNewRomanPSMT-30"/>
       <use x="50" xlink:href="#TimesNewRomanPSMT-2e"/>
       <use x="75" xlink:href="#TimesNewRomanPSMT-30"/>
       <use x="125" xlink:href="#TimesNewRomanPSMT-34"/>
      </g>
     </g>
    </g>
    <g id="text_14">
     <!-- Volatage (V) -->
     <g transform="translate(16.92125 209.352344)rotate(-90)scale(0.14 -0.14)">
      <defs>
       <path d="M 4544 4238 
L 4544 4122 
Q 4319 4081 4203 3978 
Q 4038 3825 3909 3509 
L 2431 -97 
L 2316 -97 
L 728 3556 
Q 606 3838 556 3900 
Q 478 3997 364 4051 
Q 250 4106 56 4122 
L 56 4238 
L 1788 4238 
L 1788 4122 
Q 1494 4094 1406 4022 
Q 1319 3950 1319 3838 
Q 1319 3681 1463 3350 
L 2541 866 
L 3541 3319 
Q 3688 3681 3688 3822 
Q 3688 3913 3597 3995 
Q 3506 4078 3291 4113 
Q 3275 4116 3238 4122 
L 3238 4238 
L 4544 4238 
z
" id="TimesNewRomanPSMT-56" transform="scale(0.015625)"/>
       <path d="M 1600 2947 
Q 2250 2947 2644 2453 
Q 2978 2031 2978 1484 
Q 2978 1100 2793 706 
Q 2609 313 2286 112 
Q 1963 -88 1566 -88 
Q 919 -88 538 428 
Q 216 863 216 1403 
Q 216 1797 411 2186 
Q 606 2575 925 2761 
Q 1244 2947 1600 2947 
z
M 1503 2744 
Q 1338 2744 1170 2645 
Q 1003 2547 900 2300 
Q 797 2053 797 1666 
Q 797 1041 1045 587 
Q 1294 134 1700 134 
Q 2003 134 2200 384 
Q 2397 634 2397 1244 
Q 2397 2006 2069 2444 
Q 1847 2744 1503 2744 
z
" id="TimesNewRomanPSMT-6f" transform="scale(0.015625)"/>
       <path d="M 1184 4444 
L 1184 647 
Q 1184 378 1223 290 
Q 1263 203 1344 158 
Q 1425 113 1647 113 
L 1647 0 
L 244 0 
L 244 113 
Q 441 113 512 153 
Q 584 194 625 287 
Q 666 381 666 647 
L 666 3247 
Q 666 3731 644 3842 
Q 622 3953 573 3993 
Q 525 4034 450 4034 
Q 369 4034 244 3984 
L 191 4094 
L 1044 4444 
L 1184 4444 
z
" id="TimesNewRomanPSMT-6c" transform="scale(0.015625)"/>
       <path d="M 1822 413 
Q 1381 72 1269 19 
Q 1100 -59 909 -59 
Q 613 -59 420 144 
Q 228 347 228 678 
Q 228 888 322 1041 
Q 450 1253 767 1440 
Q 1084 1628 1822 1897 
L 1822 2009 
Q 1822 2438 1686 2597 
Q 1550 2756 1291 2756 
Q 1094 2756 978 2650 
Q 859 2544 859 2406 
L 866 2225 
Q 866 2081 792 2003 
Q 719 1925 600 1925 
Q 484 1925 411 2006 
Q 338 2088 338 2228 
Q 338 2497 613 2722 
Q 888 2947 1384 2947 
Q 1766 2947 2009 2819 
Q 2194 2722 2281 2516 
Q 2338 2381 2338 1966 
L 2338 994 
Q 2338 584 2353 492 
Q 2369 400 2405 369 
Q 2441 338 2488 338 
Q 2538 338 2575 359 
Q 2641 400 2828 588 
L 2828 413 
Q 2478 -56 2159 -56 
Q 2006 -56 1915 50 
Q 1825 156 1822 413 
z
M 1822 616 
L 1822 1706 
Q 1350 1519 1213 1441 
Q 966 1303 859 1153 
Q 753 1003 753 825 
Q 753 600 887 451 
Q 1022 303 1197 303 
Q 1434 303 1822 616 
z
" id="TimesNewRomanPSMT-61" transform="scale(0.015625)"/>
       <path d="M 1031 3803 
L 1031 2863 
L 1700 2863 
L 1700 2644 
L 1031 2644 
L 1031 788 
Q 1031 509 1111 412 
Q 1191 316 1316 316 
Q 1419 316 1516 380 
Q 1613 444 1666 569 
L 1788 569 
Q 1678 263 1478 108 
Q 1278 -47 1066 -47 
Q 922 -47 784 33 
Q 647 113 581 261 
Q 516 409 516 719 
L 516 2644 
L 63 2644 
L 63 2747 
Q 234 2816 414 2980 
Q 594 3144 734 3369 
Q 806 3488 934 3803 
L 1031 3803 
z
" id="TimesNewRomanPSMT-74" transform="scale(0.015625)"/>
       <path d="M 966 1044 
Q 703 1172 562 1401 
Q 422 1631 422 1909 
Q 422 2334 742 2640 
Q 1063 2947 1563 2947 
Q 1972 2947 2272 2747 
L 2878 2747 
Q 3013 2747 3034 2739 
Q 3056 2731 3066 2713 
Q 3084 2684 3084 2613 
Q 3084 2531 3069 2500 
Q 3059 2484 3036 2475 
Q 3013 2466 2878 2466 
L 2506 2466 
Q 2681 2241 2681 1891 
Q 2681 1491 2375 1206 
Q 2069 922 1553 922 
Q 1341 922 1119 984 
Q 981 866 932 777 
Q 884 688 884 625 
Q 884 572 936 522 
Q 988 472 1138 450 
Q 1225 438 1575 428 
Q 2219 413 2409 384 
Q 2700 344 2873 169 
Q 3047 -6 3047 -263 
Q 3047 -616 2716 -925 
Q 2228 -1381 1444 -1381 
Q 841 -1381 425 -1109 
Q 191 -953 191 -784 
Q 191 -709 225 -634 
Q 278 -519 444 -313 
Q 466 -284 763 25 
Q 600 122 533 198 
Q 466 275 466 372 
Q 466 481 555 628 
Q 644 775 966 1044 
z
M 1509 2797 
Q 1278 2797 1122 2612 
Q 966 2428 966 2047 
Q 966 1553 1178 1281 
Q 1341 1075 1591 1075 
Q 1828 1075 1981 1253 
Q 2134 1431 2134 1813 
Q 2134 2309 1919 2591 
Q 1759 2797 1509 2797 
z
M 934 0 
Q 788 -159 713 -296 
Q 638 -434 638 -550 
Q 638 -700 819 -813 
Q 1131 -1006 1722 -1006 
Q 2284 -1006 2551 -807 
Q 2819 -609 2819 -384 
Q 2819 -222 2659 -153 
Q 2497 -84 2016 -72 
Q 1313 -53 934 0 
z
" id="TimesNewRomanPSMT-67" transform="scale(0.015625)"/>
      </defs>
      <use xlink:href="#TimesNewRomanPSMT-56"/>
      <use x="59.341797" xlink:href="#TimesNewRomanPSMT-6f"/>
      <use x="109.341797" xlink:href="#TimesNewRomanPSMT-6c"/>
      <use x="137.125" xlink:href="#TimesNewRomanPSMT-61"/>
      <use x="181.509766" xlink:href="#TimesNewRomanPSMT-74"/>
      <use x="209.292969" xlink:href="#TimesNewRomanPSMT-61"/>
      <use x="253.677734" xlink:href="#TimesNewRomanPSMT-67"/>
      <use x="303.677734" xlink:href="#TimesNewRomanPSMT-65"/>
      <use x="348.0625" xlink:href="#TimesNewRomanPSMT-20"/>
      <use x="373.0625" xlink:href="#TimesNewRomanPSMT-28"/>
      <use x="406.363281" xlink:href="#TimesNewRomanPSMT-56"/>
      <use x="478.580078" xlink:href="#TimesNewRomanPSMT-29"/>
     </g>
    </g>
   </g>
   <g id="LineCollection_1">
    <path clip-path="url(#pcf74f3348b)" d="M 78.555057 154.884845 
L 382.918693 154.884845 
" style="fill:none;stroke:#1f77b4;stroke-width:1.5;"/>
   </g>
   <g id="line2d_25">
    <path clip-path="url(#pcf74f3348b)" d="M 78.555057 154.895077 
L 78.676802 154.895077 
L 104.669457 155.001662 
L 104.821639 155.03719 
L 104.943384 154.966133 
L 106.586948 154.966133 
L 106.617384 155.108246 
L 106.708693 155.03719 
L 112.187239 155.143775 
L 112.308984 155.179303 
L 112.43073 155.108246 
L 112.461166 155.143775 
L 112.613348 155.179303 
L 113.830802 155.285887 
L 113.982984 155.321416 
L 114.865639 155.428 
L 114.896075 155.499057 
L 114.956948 155.428 
L 115.230875 155.534585 
L 115.35262 155.605641 
L 115.383057 155.570113 
L 115.839602 155.676698 
L 115.991784 155.712226 
L 116.630948 155.818811 
L 116.722257 155.889867 
L 116.752693 155.854339 
L 117.270111 155.960924 
L 117.422293 156.03198 
L 117.544039 156.03198 
L 118.304948 156.103037 
L 118.396257 156.209621 
L 118.426693 156.138565 
L 118.609311 156.209621 
L 119.339784 156.280678 
L 119.431093 156.351734 
L 119.46153 156.316206 
L 119.644148 156.387263 
L 120.192002 156.493847 
L 120.344184 156.529375 
L 120.435493 156.529375 
L 120.618111 156.600432 
L 121.013784 156.707017 
L 121.257275 156.84913 
L 121.287711 156.813601 
L 121.348584 156.884658 
L 121.622511 156.991242 
L 122.079057 157.382053 
L 122.170366 157.453109 
L 122.38342 157.701807 
L 122.505166 157.808392 
L 123.631311 159.265049 
L 123.844366 159.655859 
L 124.087857 160.082198 
L 124.666148 161.183573 
L 124.787893 161.467799 
L 125.82273 164.132416 
L 128.16633 172.730247 
L 128.470693 174.08032 
L 128.988111 176.28307 
L 129.41422 178.130537 
L 130.631675 183.317659 
L 131.51433 186.799425 
L 131.910002 188.185026 
L 132.305675 189.357458 
L 132.640475 190.210135 
L 132.701348 190.31672 
L 133.249202 191.382567 
L 133.279639 191.347039 
L 133.310075 191.453623 
L 133.462257 191.560208 
L 133.644875 191.737849 
L 133.85793 191.808906 
L 134.040548 191.986547 
L 134.223166 192.093131 
L 134.43622 192.199716 
L 135.349311 192.093131 
L 135.684111 191.808906 
L 135.714548 191.844434 
L 135.77542 191.773377 
L 136.018911 191.275982 
L 136.079784 191.169398 
L 136.627639 189.677212 
L 137.053748 188.149498 
L 137.20593 187.545518 
L 137.632039 185.662522 
L 138.423384 181.68336 
L 138.819057 179.338497 
L 140.310439 168.111578 
L 141.923566 152.017291 
L 143.414948 135.247967 
L 143.993239 128.142322 
L 144.510657 121.605128 
L 146.093348 100.927696 
L 147.280366 85.792674 
L 148.954366 65.719231 
L 150.719675 48.310391 
L 152.150184 39.073054 
L 153.215457 34.596495 
L 153.641566 33.495128 
L 153.732875 33.388535 
L 153.976366 33.033259 
L 154.006802 33.068781 
L 154.067675 32.997725 
L 154.706839 33.104315 
L 154.889457 33.353013 
L 154.95033 33.459594 
L 155.163384 33.850405 
L 155.559057 35.022842 
L 156.19822 37.616397 
L 157.324366 44.828627 
L 158.237457 53.106702 
L 159.667966 71.083988 
L 160.88542 89.665248 
L 162.924657 127.289644 
L 164.689966 164.487699 
L 168.129275 238.315356 
L 169.377166 262.261378 
L 170.533748 281.801907 
L 171.507711 295.906613 
L 172.238184 304.646557 
L 173.303457 314.665517 
L 174.70353 322.268561 
L 175.860111 324.72 
L 176.164475 324.613421 
L 177.016693 323.476518 
L 177.473239 322.161979 
L 177.990657 319.781585 
L 178.29502 318.324928 
L 178.903748 314.132591 
L 179.664657 308.057273 
L 181.003857 294.521015 
L 182.221311 279.101758 
L 184.199675 247.410582 
L 185.782366 219.734095 
L 191.656584 118.762869 
L 193.02622 99.648686 
L 194.061057 87.782252 
L 195.278511 76.093468 
L 195.79593 71.687968 
L 196.495966 65.434999 
L 198.017784 55.522621 
L 198.13953 55.060763 
L 198.626511 52.858007 
L 199.235239 50.513147 
L 200.452693 46.640573 
L 200.696184 46.214225 
L 200.909239 45.823415 
L 201.091857 45.468135 
L 201.609275 44.508873 
L 201.913639 44.295701 
L 202.06582 44.366758 
L 202.187566 44.331235 
L 202.674548 44.260179 
L 202.82673 44.153585 
L 203.222402 44.260179 
L 203.374584 44.437817 
L 203.40502 44.402294 
L 203.435457 44.473339 
L 203.73982 44.722048 
L 203.83113 44.722048 
L 204.07462 44.899687 
L 204.135493 44.864153 
L 204.16593 44.935209 
L 204.318111 45.041802 
L 205.17033 46.818211 
L 205.231202 46.924793 
L 206.022548 49.020955 
L 206.966075 51.969801 
L 207.026948 52.076383 
L 207.392184 53.568571 
L 207.544366 54.172546 
L 208.09222 56.233186 
L 208.51833 58.116187 
L 214.11862 84.762355 
L 214.636039 87.604614 
L 215.183893 90.660038 
L 216.188293 96.913006 
L 219.323239 115.849555 
L 223.066911 142.81548 
L 223.797384 149.317145 
L 225.380075 163.137626 
L 228.697639 199.092192 
L 229.458548 208.222944 
L 233.506584 254.196476 
L 235.758875 274.198863 
L 236.398039 277.929333 
L 236.671966 279.279408 
L 237.128511 281.304514 
L 237.828548 282.725646 
L 237.919857 282.832225 
L 238.22422 283.294095 
L 238.31553 283.400677 
L 238.589457 283.578315 
L 238.832948 283.471733 
L 239.867784 282.121661 
L 240.506948 279.528103 
L 242.059202 269.864419 
L 243.702766 255.546552 
L 245.650693 233.909856 
L 246.898584 216.501024 
L 251.585784 147.043339 
L 252.011893 141.500935 
L 252.590184 134.324234 
L 254.05113 118.514172 
L 256.333857 100.679001 
L 257.612184 95.207654 
L 259.286184 91.512721 
L 259.377493 91.406134 
L 260.047093 90.4824 
L 260.229711 90.304756 
L 260.381893 90.233705 
L 260.564511 90.056061 
L 261.021057 89.949479 
L 261.142802 89.87842 
L 261.173239 89.913951 
L 261.264548 89.913951 
L 261.355857 89.87842 
L 261.386293 89.913951 
L 261.690657 90.02053 
L 261.964584 90.198174 
L 262.08633 90.304756 
L 263.486402 92.081173 
L 263.821202 92.649622 
L 263.882075 92.720681 
L 264.277748 93.395718 
L 264.369057 93.502299 
L 264.612548 93.999697 
L 264.856039 94.426033 
L 265.464766 95.63399 
L 265.525639 95.70505 
L 267.290948 100.075022 
L 267.656184 101.282978 
L 267.990984 102.3133 
L 270.973748 113.149409 
L 272.617311 121.285373 
L 273.012984 123.274954 
L 273.652148 126.401438 
L 274.13913 128.497605 
L 274.534802 130.20296 
L 274.686984 130.806939 
L 275.508766 134.146591 
L 277.456693 141.358823 
L 277.943675 143.135234 
L 279.40462 147.860488 
L 279.982911 149.459258 
L 280.40902 150.560633 
L 280.469893 150.667218 
L 280.622075 150.986972 
L 282.326511 154.717436 
L 282.478693 155.03719 
L 282.84393 155.64117 
L 283.878766 156.707017 
L 284.09182 156.813601 
L 284.274439 156.884658 
L 285.43102 156.778073 
L 285.613639 156.564904 
L 285.704948 156.458319 
L 286.344111 155.570113 
L 286.922402 154.468738 
L 287.074584 154.148984 
L 287.318075 153.509476 
L 287.378948 153.402891 
L 288.261602 151.093557 
L 288.87033 149.352673 
L 290.11822 146.190661 
L 290.392148 145.586681 
L 290.726948 145.089286 
L 290.940002 144.698476 
L 291.153057 144.307665 
L 291.366111 144.02344 
L 291.426984 143.916855 
L 291.579166 143.81027 
L 291.609602 143.845798 
L 292.827057 143.952382 
L 293.953202 145.40904 
L 294.89673 147.860488 
L 295.962002 151.946234 
L 296.47942 154.362154 
L 296.783784 155.818811 
L 297.422948 159.265049 
L 297.970802 162.320477 
L 299.49262 171.842042 
L 300.314402 177.668671 
L 301.014439 182.322868 
L 301.470984 185.591466 
L 302.323202 191.204926 
L 303.114548 196.782857 
L 304.636366 206.695233 
L 305.092911 209.288794 
L 305.671202 212.592916 
L 306.006002 214.156158 
L 307.040839 218.490608 
L 307.558257 219.947262 
L 308.166984 221.723673 
L 308.319166 221.972368 
L 308.501784 222.39871 
L 308.53222 222.363181 
L 308.562657 222.434238 
L 308.897457 222.967161 
L 308.988766 223.073746 
L 309.658366 223.784313 
L 309.688802 223.748785 
L 309.780111 223.713254 
L 309.810548 223.748785 
L 310.145348 223.642198 
L 310.388839 223.500088 
L 310.571457 223.3935 
L 310.936693 222.86058 
L 311.332366 221.865786 
L 311.697602 220.764408 
L 313.828148 210.319115 
L 314.467311 205.984671 
L 319.519748 163.84819 
L 320.037166 159.549275 
L 320.767639 153.687117 
L 321.315493 149.530314 
L 321.832911 145.906435 
L 322.68513 139.831108 
L 322.92862 138.19681 
L 323.446039 134.537402 
L 323.93302 130.984581 
L 325.60702 120.006357 
L 326.063566 117.377268 
L 326.915784 113.007296 
L 327.159275 111.87039 
L 327.433202 110.449264 
L 327.859311 108.566268 
L 329.076766 103.37915 
L 329.320257 102.561997 
L 330.05073 100.394776 
L 332.029093 96.024804 
L 332.272584 95.598462 
L 332.698693 94.852372 
L 332.942184 94.461562 
L 333.124802 94.141807 
L 333.276984 94.03522 
L 333.581348 93.822053 
L 333.794402 93.750994 
L 333.946584 93.644415 
L 334.950984 93.750994 
L 335.103166 93.89311 
L 335.133602 93.857582 
L 335.194475 93.928638 
L 335.468402 94.03522 
L 335.772766 94.248392 
L 335.924948 94.354974 
L 337.142402 95.882693 
L 337.32502 96.273498 
L 337.477202 96.557724 
L 337.75113 97.126181 
L 338.603348 99.364454 
L 340.064293 104.089708 
L 340.307784 104.906863 
L 342.407893 112.652014 
L 342.834002 114.499482 
L 343.473166 117.057514 
L 343.77753 118.407587 
L 344.294948 120.787978 
L 344.69062 122.56439 
L 346.638548 132.157011 
L 349.347384 147.327565 
L 350.169166 151.662009 
L 351.295311 157.595222 
L 351.690984 159.336105 
L 352.14753 161.361214 
L 357.291275 179.018745 
L 357.382584 179.267441 
L 357.869566 181.043854 
L 358.17393 182.003114 
L 359.391384 185.875692 
L 359.75662 186.977067 
L 360.121857 188.185026 
L 360.791457 189.961438 
L 361.034948 190.636474 
L 361.156693 190.9207 
L 361.400184 191.560208 
L 361.52193 191.773377 
L 361.704548 192.164188 
L 362.19153 193.087922 
L 362.221966 193.052394 
L 362.252402 193.158978 
L 362.739384 194.047184 
L 364.322075 195.752539 
L 364.474257 195.823595 
L 364.687311 196.072293 
L 364.839493 196.178878 
L 365.296039 196.605216 
L 365.387348 196.605216 
L 365.78302 196.92497 
L 365.965639 196.996027 
L 366.087384 197.102612 
L 366.148257 197.067083 
L 366.178693 197.102612 
L 366.361311 197.244724 
L 366.391748 197.209196 
L 366.635239 197.315781 
L 366.939602 197.52895 
L 367.335275 197.635535 
L 367.517893 197.706591 
L 367.609202 197.671063 
L 367.639639 197.706591 
L 367.79182 197.777648 
L 367.88313 197.74212 
L 367.913566 197.777648 
L 368.21793 197.990817 
L 369.100584 198.097402 
L 369.252766 198.13293 
L 369.283202 198.097402 
L 369.344075 198.168458 
L 369.496257 198.203987 
L 370.987639 198.097402 
L 371.261566 197.919761 
L 371.687675 197.813176 
L 371.80942 197.74212 
L 372.205093 197.635535 
L 372.387711 197.564479 
L 372.631202 197.457894 
L 372.81382 197.386837 
L 373.209493 197.280253 
L 373.300802 197.209196 
L 373.331239 197.244724 
L 373.605166 197.067083 
L 373.787784 196.960499 
L 373.939966 196.818386 
L 374.122584 196.747329 
L 374.274766 196.53416 
L 374.366075 196.463103 
L 374.518257 196.249934 
L 374.548693 196.285462 
L 374.57913 196.249934 
L 374.792184 196.001236 
L 374.883493 195.894652 
L 375.309602 195.290672 
L 375.553093 194.793277 
L 375.948766 194.189297 
L 376.16182 193.834015 
L 378.84022 187.332349 
L 381.305566 178.308179 
L 382.918693 170.847252 
L 382.918693 170.847252 
" style="fill:none;stroke:#0000ff;stroke-linecap:square;stroke-width:1.5;"/>
   </g>
   <g id="line2d_26">
    <path clip-path="url(#pcf74f3348b)" d="M 78.555057 154.893585 
L 78.828984 154.858057 
L 79.042039 154.858057 
L 99.830075 154.964641 
L 100.012693 155.017933 
L 100.164875 155.017933 
L 100.347493 155.071226 
L 101.230148 155.462036 
L 101.412766 155.568621 
L 101.991057 156.030488 
L 103.117202 157.487145 
L 105.156439 162.51439 
L 105.795602 164.717139 
L 110.269748 182.534546 
L 111.700257 186.371595 
L 111.913311 186.762405 
L 112.369857 187.579554 
L 113.252511 188.485524 
L 113.43513 188.485524 
L 113.709057 188.521052 
L 114.622148 187.86378 
L 114.926511 187.348621 
L 116.204839 184.097788 
L 117.604911 177.93364 
L 119.644148 165.374412 
L 121.561639 151.163121 
L 122.839966 140.646765 
L 124.757457 124.836704 
L 126.522766 113.254502 
L 127.861966 106.095561 
L 129.322911 99.771542 
L 130.205566 97.515494 
L 131.42302 95.579208 
L 131.605639 95.383803 
L 132.123057 94.442308 
L 132.670911 93.660684 
L 132.914402 93.571864 
L 133.157893 93.447515 
L 134.10142 93.003412 
L 134.344911 93.127761 
L 134.557966 93.234348 
L 134.801457 93.25211 
L 135.014511 93.163289 
L 135.258002 93.038943 
L 135.53193 93.003412 
L 135.744984 93.092233 
L 136.20153 93.465276 
L 136.292839 93.465276 
L 136.44502 93.483043 
L 136.688511 93.500807 
L 136.840693 93.518574 
L 137.266802 93.891618 
L 138.11902 95.170634 
L 138.301639 95.525916 
L 138.697311 96.716109 
L 140.280002 103.626352 
L 140.79742 106.237677 
L 142.319239 114.817744 
L 142.988839 119.329829 
L 144.14542 128.478347 
L 146.123784 144.323937 
L 148.345639 164.734904 
L 150.476184 184.772825 
L 152.18062 199.659152 
L 153.458948 209.234012 
L 155.19382 218.73781 
L 155.832984 220.905032 
L 156.685202 223.054487 
L 157.141748 223.658472 
L 157.53742 223.995988 
L 157.750475 224.155865 
L 158.024402 224.226921 
L 159.850584 221.935353 
L 160.185384 221.135968 
L 161.55502 216.801519 
L 163.624693 206.640448 
L 164.811711 198.309079 
L 168.67713 169.81544 
L 169.529348 165.01913 
L 170.868548 159.263557 
L 172.390366 155.977196 
L 172.60342 155.870611 
L 172.877348 155.710734 
L 173.181711 155.621913 
L 173.333893 155.604149 
L 173.60782 155.710734 
L 174.916584 157.362797 
L 175.95142 160.720214 
L 176.681893 163.651293 
L 177.747166 169.140405 
L 178.508075 174.220941 
L 179.664657 181.539754 
L 181.429966 191.381075 
L 182.31262 196.355027 
L 182.769166 198.984115 
L 183.286584 201.630968 
L 184.534475 206.302933 
L 184.74753 206.889146 
L 185.356257 208.043813 
L 185.873675 208.505683 
L 186.208475 208.416857 
L 187.030257 207.297718 
L 187.42593 206.391751 
L 188.065093 204.189001 
L 189.191239 199.143992 
L 189.952148 194.560851 
L 190.500002 190.350756 
L 191.900075 177.116492 
L 195.03502 144.910152 
L 197.287311 122.40302 
L 199.570039 100.055765 
L 201.517966 81.812023 
L 202.978911 71.54436 
L 204.50073 63.301814 
L 204.957275 61.667521 
L 205.626875 60.352971 
L 205.809493 60.299678 
L 206.966075 61.099058 
L 207.361748 61.756336 
L 208.274839 63.568278 
L 208.731384 64.900587 
L 209.979275 69.643602 
L 211.257602 76.127504 
L 211.896766 80.035606 
L 217.010075 116.629683 
L 220.388511 141.463915 
L 222.123384 152.246731 
L 223.006039 157.20292 
L 227.449748 179.976512 
L 229.793348 189.107268 
L 229.975966 189.640192 
L 230.767311 192.038347 
L 231.19342 193.299599 
L 232.045639 195.89316 
L 232.715239 198.18473 
L 236.489348 211.028182 
L 238.498148 215.451449 
L 239.076439 215.966611 
L 239.89822 216.321893 
L 240.23302 216.410711 
L 240.415639 216.464003 
L 240.780875 216.570591 
L 241.23742 216.712698 
L 243.611457 216.819286 
L 243.946257 217.067983 
L 244.098439 217.174568 
L 244.615857 217.600904 
L 244.859348 217.920658 
L 245.711566 219.075328 
L 246.320293 219.928003 
L 246.898584 220.762916 
L 247.202948 221.207019 
L 251.098802 228.223844 
L 251.555348 229.218634 
L 252.164075 230.391072 
L 252.772802 231.26151 
L 253.077166 231.599031 
L 254.751166 232.469467 
L 255.755566 231.758908 
L 256.090366 231.208218 
L 257.338257 228.028444 
L 258.768766 221.739948 
L 259.620984 216.108721 
L 261.051493 203.531726 
L 261.99502 193.08643 
L 262.877675 181.575283 
L 266.10393 130.947559 
L 268.569275 88.331447 
L 270.182402 63.745916 
L 271.491166 47.616104 
L 272.556439 36.993158 
L 273.226039 31.717219 
L 274.108693 26.299167 
L 274.565239 24.469455 
L 275.569639 22.391059 
L 275.843566 22.355534 
L 276.360984 22.78187 
L 277.182766 24.416165 
L 277.82193 27.045257 
L 278.856766 33.049528 
L 279.800293 40.421629 
L 280.652511 48.273368 
L 283.117857 75.34588 
L 290.54433 165.01913 
L 292.827057 187.828252 
L 294.531493 201.773084 
L 297.666439 221.207019 
L 298.792584 226.536253 
L 299.644802 230.018022 
L 300.618766 233.037925 
L 301.25793 234.565638 
L 302.414511 236.395336 
L 302.93193 236.590745 
L 303.418911 236.217698 
L 303.93633 235.240675 
L 304.027639 235.063031 
L 304.666802 232.860281 
L 305.884257 227.442226 
L 306.797348 222.770261 
L 307.61913 217.885135 
L 311.849784 190.013238 
L 315.867384 162.620974 
L 318.728402 148.178749 
L 319.732802 144.537106 
L 320.311093 142.902808 
L 321.467675 139.84738 
L 322.806875 137.715686 
L 323.659093 136.880773 
L 323.963457 136.578783 
L 324.237384 136.276794 
L 324.35913 136.187973 
L 325.485275 134.713552 
L 326.398366 133.310187 
L 326.520111 133.114781 
L 327.067966 132.315395 
L 328.894148 128.904686 
L 330.476839 124.943289 
L 334.281384 114.178236 
L 334.707493 113.218974 
L 335.164039 112.22418 
L 335.74233 111.140569 
L 337.446766 108.36937 
L 338.603348 107.161411 
L 338.907711 107.054823 
L 339.151202 107.037062 
L 339.486002 107.108118 
L 339.881675 107.2147 
L 340.216475 107.445637 
L 340.42953 107.694331 
L 340.855639 108.333839 
L 341.312184 109.150994 
L 341.525239 109.559566 
L 342.620948 112.384057 
L 343.655784 115.723714 
L 345.177602 123.30899 
L 348.46473 145.105558 
L 349.743057 154.644887 
L 355.434657 196.994535 
L 356.621675 204.544286 
L 357.534766 209.216245 
L 358.17393 212.005211 
L 358.84353 214.723123 
L 359.208766 215.966611 
L 360.060984 217.68973 
L 360.700148 218.29371 
L 360.974075 218.382528 
L 361.126257 218.400289 
L 362.313275 218.29371 
L 362.648075 217.973953 
L 363.469857 216.854814 
L 364.474257 214.243492 
L 365.356911 211.330175 
L 366.11782 208.274747 
L 367.061348 203.354087 
L 368.339675 195.253651 
L 369.770184 184.506364 
L 373.513857 150.576905 
L 377.561893 118.406095 
L 378.718475 111.069519 
L 380.362039 103.022372 
L 381.396875 99.220852 
L 382.066475 97.391145 
L 382.553457 96.307537 
L 382.918693 95.614737 
L 382.918693 95.614737 
" style="fill:none;stroke:#ff0000;stroke-linecap:square;stroke-width:1.5;"/>
   </g>
   <g id="line2d_27">
    <path clip-path="url(#pcf74f3348b)" d="M 125.579239 163.45738 
" style="fill:none;stroke:#ffffff;stroke-linecap:square;stroke-width:1.5;"/>
    <defs>
     <path d="M 0 -5 
L -1.12257 -1.545085 
L -4.755283 -1.545085 
L -1.816356 0.59017 
L -2.938926 4.045085 
L -0 1.90983 
L 2.938926 4.045085 
L 1.816356 0.59017 
L 4.755283 -1.545085 
L 1.12257 -1.545085 
z
" id="mcbc1e554c6" style="stroke:#ffffff;stroke-linejoin:bevel;"/>
    </defs>
    <g clip-path="url(#pcf74f3348b)">
     <use style="fill:#0000ff;stroke:#ffffff;stroke-linejoin:bevel;" x="125.579239" xlink:href="#mcbc1e554c6" y="163.45738"/>
    </g>
   </g>
   <g id="line2d_28">
    <path clip-path="url(#pcf74f3348b)" d="M 104.852075 161.537363 
" style="fill:none;stroke:#ffffff;stroke-linecap:square;stroke-width:1.5;"/>
    <defs>
     <path d="M 0 -5 
L -1.12257 -1.545085 
L -4.755283 -1.545085 
L -1.816356 0.59017 
L -2.938926 4.045085 
L -0 1.90983 
L 2.938926 4.045085 
L 1.816356 0.59017 
L 4.755283 -1.545085 
L 1.12257 -1.545085 
z
" id="m44b9d3f4c7" style="stroke:#ffffff;stroke-linejoin:bevel;"/>
    </defs>
    <g clip-path="url(#pcf74f3348b)">
     <use style="fill:#ff0000;stroke:#ffffff;stroke-linejoin:bevel;" x="104.852075" xlink:href="#m44b9d3f4c7" y="161.537363"/>
    </g>
   </g>
   <g id="patch_3">
    <path d="M 63.336875 339.84 
L 63.336875 7.2 
" style="fill:none;stroke:#000000;stroke-linecap:square;stroke-linejoin:miter;stroke-width:0.8;"/>
   </g>
   <g id="patch_4">
    <path d="M 398.136875 339.84 
L 398.136875 7.2 
" style="fill:none;stroke:#000000;stroke-linecap:square;stroke-linejoin:miter;stroke-width:0.8;"/>
   </g>
   <g id="patch_5">
    <path d="M 63.336875 339.84 
L 398.136875 339.84 
" style="fill:none;stroke:#000000;stroke-linecap:square;stroke-linejoin:miter;stroke-width:0.8;"/>
   </g>
   <g id="patch_6">
    <path d="M 63.336875 7.2 
L 398.136875 7.2 
" style="fill:none;stroke:#000000;stroke-linecap:square;stroke-linejoin:miter;stroke-width:0.8;"/>
   </g>
   <g id="text_15">
    <g id="patch_7">
     <path d="M 75.036875 331.242688 
L 166.79375 331.242688 
L 166.79375 293.760312 
L 75.036875 293.760312 
z
" style="fill:#ffffff;stroke:#000000;stroke-linejoin:miter;stroke-width:0.75;"/>
    </g>
    <!-- Auto_00096 -->
    <g transform="translate(80.076875 308.521563)scale(0.14 -0.14)">
     <defs>
      <path d="M 2928 1419 
L 1288 1419 
L 1000 750 
Q 894 503 894 381 
Q 894 284 986 211 
Q 1078 138 1384 116 
L 1384 0 
L 50 0 
L 50 116 
Q 316 163 394 238 
Q 553 388 747 847 
L 2238 4334 
L 2347 4334 
L 3822 809 
Q 4000 384 4145 257 
Q 4291 131 4550 116 
L 4550 0 
L 2878 0 
L 2878 116 
Q 3131 128 3220 200 
Q 3309 272 3309 375 
Q 3309 513 3184 809 
L 2928 1419 
z
M 2841 1650 
L 2122 3363 
L 1384 1650 
L 2841 1650 
z
" id="TimesNewRomanPSMT-41" transform="scale(0.015625)"/>
      <path d="M 2709 2863 
L 2709 1128 
Q 2709 631 2732 520 
Q 2756 409 2807 365 
Q 2859 322 2928 322 
Q 3025 322 3147 375 
L 3191 266 
L 2334 -88 
L 2194 -88 
L 2194 519 
Q 1825 119 1631 15 
Q 1438 -88 1222 -88 
Q 981 -88 804 51 
Q 628 191 559 409 
Q 491 628 491 1028 
L 491 2306 
Q 491 2509 447 2587 
Q 403 2666 317 2708 
Q 231 2750 6 2747 
L 6 2863 
L 1009 2863 
L 1009 947 
Q 1009 547 1148 422 
Q 1288 297 1484 297 
Q 1619 297 1789 381 
Q 1959 466 2194 703 
L 2194 2325 
Q 2194 2569 2105 2655 
Q 2016 2741 1734 2747 
L 1734 2863 
L 2709 2863 
z
" id="TimesNewRomanPSMT-75" transform="scale(0.015625)"/>
      <path d="M 3256 -1381 
L -53 -1381 
L -53 -1119 
L 3256 -1119 
L 3256 -1381 
z
" id="TimesNewRomanPSMT-5f" transform="scale(0.015625)"/>
      <path d="M 338 -88 
L 338 28 
Q 744 34 1094 217 
Q 1444 400 1770 856 
Q 2097 1313 2225 1859 
Q 1734 1544 1338 1544 
Q 891 1544 572 1889 
Q 253 2234 253 2806 
Q 253 3363 572 3797 
Q 956 4325 1575 4325 
Q 2097 4325 2469 3894 
Q 2925 3359 2925 2575 
Q 2925 1869 2578 1258 
Q 2231 647 1613 244 
Q 1109 -88 516 -88 
L 338 -88 
z
M 2275 2091 
Q 2331 2497 2331 2741 
Q 2331 3044 2228 3395 
Q 2125 3747 1936 3934 
Q 1747 4122 1506 4122 
Q 1228 4122 1018 3872 
Q 809 3622 809 3128 
Q 809 2469 1088 2097 
Q 1291 1828 1588 1828 
Q 1731 1828 1928 1897 
Q 2125 1966 2275 2091 
z
" id="TimesNewRomanPSMT-39" transform="scale(0.015625)"/>
     </defs>
     <use xlink:href="#TimesNewRomanPSMT-41"/>
     <use x="72.216797" xlink:href="#TimesNewRomanPSMT-75"/>
     <use x="122.216797" xlink:href="#TimesNewRomanPSMT-74"/>
     <use x="150" xlink:href="#TimesNewRomanPSMT-6f"/>
     <use x="200" xlink:href="#TimesNewRomanPSMT-5f"/>
     <use x="250" xlink:href="#TimesNewRomanPSMT-30"/>
     <use x="300" xlink:href="#TimesNewRomanPSMT-30"/>
     <use x="350" xlink:href="#TimesNewRomanPSMT-30"/>
     <use x="400" xlink:href="#TimesNewRomanPSMT-39"/>
     <use x="450" xlink:href="#TimesNewRomanPSMT-36"/>
    </g>
    <!-- Vs: 293.53m/s -->
    <g transform="translate(80.076875 323.208)scale(0.14 -0.14)">
     <defs>
      <path d="M 903 2950 
Q 1047 2950 1148 2848 
Q 1250 2747 1250 2603 
Q 1250 2459 1148 2357 
Q 1047 2256 903 2256 
Q 759 2256 657 2357 
Q 556 2459 556 2603 
Q 556 2747 657 2848 
Q 759 2950 903 2950 
z
M 897 609 
Q 1044 609 1145 506 
Q 1247 403 1247 259 
Q 1247 116 1144 14 
Q 1041 -88 897 -88 
Q 753 -88 651 14 
Q 550 116 550 259 
Q 550 403 651 506 
Q 753 609 897 609 
z
" id="TimesNewRomanPSMT-3a" transform="scale(0.015625)"/>
      <path d="M 1794 4444 
L 259 -88 
L 9 -88 
L 1544 4444 
L 1794 4444 
z
" id="TimesNewRomanPSMT-2f" transform="scale(0.015625)"/>
     </defs>
     <use xlink:href="#TimesNewRomanPSMT-56"/>
     <use x="72.216797" xlink:href="#TimesNewRomanPSMT-73"/>
     <use x="111.132812" xlink:href="#TimesNewRomanPSMT-3a"/>
     <use x="138.916016" xlink:href="#TimesNewRomanPSMT-20"/>
     <use x="163.916016" xlink:href="#TimesNewRomanPSMT-32"/>
     <use x="213.916016" xlink:href="#TimesNewRomanPSMT-39"/>
     <use x="263.916016" xlink:href="#TimesNewRomanPSMT-33"/>
     <use x="313.916016" xlink:href="#TimesNewRomanPSMT-2e"/>
     <use x="338.916016" xlink:href="#TimesNewRomanPSMT-35"/>
     <use x="388.916016" xlink:href="#TimesNewRomanPSMT-33"/>
     <use x="438.916016" xlink:href="#TimesNewRomanPSMT-6d"/>
     <use x="516.699219" xlink:href="#TimesNewRomanPSMT-2f"/>
     <use x="544.482422" xlink:href="#TimesNewRomanPSMT-73"/>
    </g>
   </g>
  </g>
 </g>
 <defs>
  <clipPath id="pcf74f3348b">
   <rect height="332.64" width="334.8" x="63.336875" y="7.2"/>
  </clipPath>
 </defs>
</svg>
