<?xml version="1.0" encoding="utf-8" standalone="no"?>
<!DOCTYPE svg PUBLIC "-//W3C//DTD SVG 1.1//EN"
  "http://www.w3.org/Graphics/SVG/1.1/DTD/svg11.dtd">
<svg height="385.598893pt" version="1.1" viewBox="0 0 421.086875 385.598893" width="421.086875pt" xmlns="http://www.w3.org/2000/svg" xmlns:xlink="http://www.w3.org/1999/xlink">
 <metadata>
  <rdf:RDF xmlns:cc="http://creativecommons.org/ns#" xmlns:dc="http://purl.org/dc/elements/1.1/" xmlns:rdf="http://www.w3.org/1999/02/22-rdf-syntax-ns#">
   <cc:Work>
    <dc:type rdf:resource="http://purl.org/dc/dcmitype/StillImage"/>
    <dc:date>2021-06-11T14:39:37.703118</dc:date>
    <dc:format>image/svg+xml</dc:format>
    <dc:creator>
     <cc:Agent>
      <dc:title>Matplotlib v3.4.2, https://matplotlib.org/</dc:title>
     </cc:Agent>
    </dc:creator>
   </cc:Work>
  </rdf:RDF>
 </metadata>
 <defs>
  <style type="text/css">*{stroke-linecap:butt;stroke-linejoin:round;}</style>
 </defs>
 <g id="figure_1">
  <g id="patch_1">
   <path d="M 0 385.598893 
L 421.086875 385.598893 
L 421.086875 0 
L 0 0 
z
" style="fill:#ffffff;"/>
  </g>
  <g id="axes_1">
   <g id="patch_2">
    <path d="M 63.336875 341.967018 
L 398.136875 341.967018 
L 398.136875 9.327018 
L 63.336875 9.327018 
z
" style="fill:#ffffff;"/>
   </g>
   <g id="matplotlib.axis_1">
    <g id="xtick_1">
     <g id="line2d_1">
      <path clip-path="url(#pff1d1d78ef)" d="M 93.773239 341.967018 
L 93.773239 9.327018 
" style="fill:none;stroke:#000000;stroke-dasharray:0.5,0.825;stroke-dashoffset:0;stroke-width:0.5;"/>
     </g>
     <g id="line2d_2">
      <defs>
       <path d="M 0 0 
L 0 3.5 
" id="mab124773cb" style="stroke:#000000;stroke-width:0.8;"/>
      </defs>
      <g>
       <use style="stroke:#000000;stroke-width:0.8;" x="93.773239" xlink:href="#mab124773cb" y="341.967018"/>
      </g>
     </g>
     <g id="text_1">
      <!-- 0.000 -->
      <g transform="translate(78.023239 358.688268)scale(0.14 -0.14)">
       <defs>
        <path d="M 231 2094 
Q 231 2819 450 3342 
Q 669 3866 1031 4122 
Q 1313 4325 1613 4325 
Q 2100 4325 2488 3828 
Q 2972 3213 2972 2159 
Q 2972 1422 2759 906 
Q 2547 391 2217 158 
Q 1888 -75 1581 -75 
Q 975 -75 572 641 
Q 231 1244 231 2094 
z
M 844 2016 
Q 844 1141 1059 588 
Q 1238 122 1591 122 
Q 1759 122 1940 273 
Q 2122 425 2216 781 
Q 2359 1319 2359 2297 
Q 2359 3022 2209 3506 
Q 2097 3866 1919 4016 
Q 1791 4119 1609 4119 
Q 1397 4119 1231 3928 
Q 1006 3669 925 3112 
Q 844 2556 844 2016 
z
" id="TimesNewRomanPSMT-30" transform="scale(0.015625)"/>
        <path d="M 800 606 
Q 947 606 1047 504 
Q 1147 403 1147 259 
Q 1147 116 1045 14 
Q 944 -88 800 -88 
Q 656 -88 554 14 
Q 453 116 453 259 
Q 453 406 554 506 
Q 656 606 800 606 
z
" id="TimesNewRomanPSMT-2e" transform="scale(0.015625)"/>
       </defs>
       <use xlink:href="#TimesNewRomanPSMT-30"/>
       <use x="50" xlink:href="#TimesNewRomanPSMT-2e"/>
       <use x="75" xlink:href="#TimesNewRomanPSMT-30"/>
       <use x="125" xlink:href="#TimesNewRomanPSMT-30"/>
       <use x="175" xlink:href="#TimesNewRomanPSMT-30"/>
      </g>
     </g>
    </g>
    <g id="xtick_2">
     <g id="line2d_3">
      <path clip-path="url(#pff1d1d78ef)" d="M 154.645966 341.967018 
L 154.645966 9.327018 
" style="fill:none;stroke:#000000;stroke-dasharray:0.5,0.825;stroke-dashoffset:0;stroke-width:0.5;"/>
     </g>
     <g id="line2d_4">
      <g>
       <use style="stroke:#000000;stroke-width:0.8;" x="154.645966" xlink:href="#mab124773cb" y="341.967018"/>
      </g>
     </g>
     <g id="text_2">
      <!-- 0.001 -->
      <g transform="translate(138.895966 358.688268)scale(0.14 -0.14)">
       <defs>
        <path d="M 750 3822 
L 1781 4325 
L 1884 4325 
L 1884 747 
Q 1884 391 1914 303 
Q 1944 216 2037 169 
Q 2131 122 2419 116 
L 2419 0 
L 825 0 
L 825 116 
Q 1125 122 1212 167 
Q 1300 213 1334 289 
Q 1369 366 1369 747 
L 1369 3034 
Q 1369 3497 1338 3628 
Q 1316 3728 1258 3775 
Q 1200 3822 1119 3822 
Q 1003 3822 797 3725 
L 750 3822 
z
" id="TimesNewRomanPSMT-31" transform="scale(0.015625)"/>
       </defs>
       <use xlink:href="#TimesNewRomanPSMT-30"/>
       <use x="50" xlink:href="#TimesNewRomanPSMT-2e"/>
       <use x="75" xlink:href="#TimesNewRomanPSMT-30"/>
       <use x="125" xlink:href="#TimesNewRomanPSMT-30"/>
       <use x="175" xlink:href="#TimesNewRomanPSMT-31"/>
      </g>
     </g>
    </g>
    <g id="xtick_3">
     <g id="line2d_5">
      <path clip-path="url(#pff1d1d78ef)" d="M 215.518693 341.967018 
L 215.518693 9.327018 
" style="fill:none;stroke:#000000;stroke-dasharray:0.5,0.825;stroke-dashoffset:0;stroke-width:0.5;"/>
     </g>
     <g id="line2d_6">
      <g>
       <use style="stroke:#000000;stroke-width:0.8;" x="215.518693" xlink:href="#mab124773cb" y="341.967018"/>
      </g>
     </g>
     <g id="text_3">
      <!-- 0.002 -->
      <g transform="translate(199.768693 358.688268)scale(0.14 -0.14)">
       <defs>
        <path d="M 2934 816 
L 2638 0 
L 138 0 
L 138 116 
Q 1241 1122 1691 1759 
Q 2141 2397 2141 2925 
Q 2141 3328 1894 3587 
Q 1647 3847 1303 3847 
Q 991 3847 742 3664 
Q 494 3481 375 3128 
L 259 3128 
Q 338 3706 661 4015 
Q 984 4325 1469 4325 
Q 1984 4325 2329 3994 
Q 2675 3663 2675 3213 
Q 2675 2891 2525 2569 
Q 2294 2063 1775 1497 
Q 997 647 803 472 
L 1909 472 
Q 2247 472 2383 497 
Q 2519 522 2628 598 
Q 2738 675 2819 816 
L 2934 816 
z
" id="TimesNewRomanPSMT-32" transform="scale(0.015625)"/>
       </defs>
       <use xlink:href="#TimesNewRomanPSMT-30"/>
       <use x="50" xlink:href="#TimesNewRomanPSMT-2e"/>
       <use x="75" xlink:href="#TimesNewRomanPSMT-30"/>
       <use x="125" xlink:href="#TimesNewRomanPSMT-30"/>
       <use x="175" xlink:href="#TimesNewRomanPSMT-32"/>
      </g>
     </g>
    </g>
    <g id="xtick_4">
     <g id="line2d_7">
      <path clip-path="url(#pff1d1d78ef)" d="M 276.39142 341.967018 
L 276.39142 9.327018 
" style="fill:none;stroke:#000000;stroke-dasharray:0.5,0.825;stroke-dashoffset:0;stroke-width:0.5;"/>
     </g>
     <g id="line2d_8">
      <g>
       <use style="stroke:#000000;stroke-width:0.8;" x="276.39142" xlink:href="#mab124773cb" y="341.967018"/>
      </g>
     </g>
     <g id="text_4">
      <!-- 0.003 -->
      <g transform="translate(260.64142 358.688268)scale(0.14 -0.14)">
       <defs>
        <path d="M 325 3431 
Q 506 3859 782 4092 
Q 1059 4325 1472 4325 
Q 1981 4325 2253 3994 
Q 2459 3747 2459 3466 
Q 2459 3003 1878 2509 
Q 2269 2356 2469 2072 
Q 2669 1788 2669 1403 
Q 2669 853 2319 450 
Q 1863 -75 997 -75 
Q 569 -75 414 31 
Q 259 138 259 259 
Q 259 350 332 419 
Q 406 488 509 488 
Q 588 488 669 463 
Q 722 447 909 348 
Q 1097 250 1169 231 
Q 1284 197 1416 197 
Q 1734 197 1970 444 
Q 2206 691 2206 1028 
Q 2206 1275 2097 1509 
Q 2016 1684 1919 1775 
Q 1784 1900 1550 2001 
Q 1316 2103 1072 2103 
L 972 2103 
L 972 2197 
Q 1219 2228 1467 2375 
Q 1716 2522 1828 2728 
Q 1941 2934 1941 3181 
Q 1941 3503 1739 3701 
Q 1538 3900 1238 3900 
Q 753 3900 428 3381 
L 325 3431 
z
" id="TimesNewRomanPSMT-33" transform="scale(0.015625)"/>
       </defs>
       <use xlink:href="#TimesNewRomanPSMT-30"/>
       <use x="50" xlink:href="#TimesNewRomanPSMT-2e"/>
       <use x="75" xlink:href="#TimesNewRomanPSMT-30"/>
       <use x="125" xlink:href="#TimesNewRomanPSMT-30"/>
       <use x="175" xlink:href="#TimesNewRomanPSMT-33"/>
      </g>
     </g>
    </g>
    <g id="xtick_5">
     <g id="line2d_9">
      <path clip-path="url(#pff1d1d78ef)" d="M 337.264148 341.967018 
L 337.264148 9.327018 
" style="fill:none;stroke:#000000;stroke-dasharray:0.5,0.825;stroke-dashoffset:0;stroke-width:0.5;"/>
     </g>
     <g id="line2d_10">
      <g>
       <use style="stroke:#000000;stroke-width:0.8;" x="337.264148" xlink:href="#mab124773cb" y="341.967018"/>
      </g>
     </g>
     <g id="text_5">
      <!-- 0.004 -->
      <g transform="translate(321.514148 358.688268)scale(0.14 -0.14)">
       <defs>
        <path d="M 2978 1563 
L 2978 1119 
L 2409 1119 
L 2409 0 
L 1894 0 
L 1894 1119 
L 100 1119 
L 100 1519 
L 2066 4325 
L 2409 4325 
L 2409 1563 
L 2978 1563 
z
M 1894 1563 
L 1894 3666 
L 406 1563 
L 1894 1563 
z
" id="TimesNewRomanPSMT-34" transform="scale(0.015625)"/>
       </defs>
       <use xlink:href="#TimesNewRomanPSMT-30"/>
       <use x="50" xlink:href="#TimesNewRomanPSMT-2e"/>
       <use x="75" xlink:href="#TimesNewRomanPSMT-30"/>
       <use x="125" xlink:href="#TimesNewRomanPSMT-30"/>
       <use x="175" xlink:href="#TimesNewRomanPSMT-34"/>
      </g>
     </g>
    </g>
    <g id="xtick_6">
     <g id="line2d_11">
      <path clip-path="url(#pff1d1d78ef)" d="M 398.136875 341.967018 
L 398.136875 9.327018 
" style="fill:none;stroke:#000000;stroke-dasharray:0.5,0.825;stroke-dashoffset:0;stroke-width:0.5;"/>
     </g>
     <g id="line2d_12">
      <g>
       <use style="stroke:#000000;stroke-width:0.8;" x="398.136875" xlink:href="#mab124773cb" y="341.967018"/>
      </g>
     </g>
     <g id="text_6">
      <!-- 0.005 -->
      <g transform="translate(382.386875 358.688268)scale(0.14 -0.14)">
       <defs>
        <path d="M 2778 4238 
L 2534 3706 
L 1259 3706 
L 981 3138 
Q 1809 3016 2294 2522 
Q 2709 2097 2709 1522 
Q 2709 1188 2573 903 
Q 2438 619 2231 419 
Q 2025 219 1772 97 
Q 1413 -75 1034 -75 
Q 653 -75 479 54 
Q 306 184 306 341 
Q 306 428 378 495 
Q 450 563 559 563 
Q 641 563 702 538 
Q 763 513 909 409 
Q 1144 247 1384 247 
Q 1750 247 2026 523 
Q 2303 800 2303 1197 
Q 2303 1581 2056 1914 
Q 1809 2247 1375 2428 
Q 1034 2569 447 2591 
L 1259 4238 
L 2778 4238 
z
" id="TimesNewRomanPSMT-35" transform="scale(0.015625)"/>
       </defs>
       <use xlink:href="#TimesNewRomanPSMT-30"/>
       <use x="50" xlink:href="#TimesNewRomanPSMT-2e"/>
       <use x="75" xlink:href="#TimesNewRomanPSMT-30"/>
       <use x="125" xlink:href="#TimesNewRomanPSMT-30"/>
       <use x="175" xlink:href="#TimesNewRomanPSMT-35"/>
      </g>
     </g>
    </g>
    <g id="text_7">
     <!-- Time (sec) -->
     <g transform="translate(200.858906 375.404206)scale(0.14 -0.14)">
      <defs>
       <path d="M 3703 4238 
L 3750 3244 
L 3631 3244 
Q 3597 3506 3538 3619 
Q 3441 3800 3280 3886 
Q 3119 3972 2856 3972 
L 2259 3972 
L 2259 734 
Q 2259 344 2344 247 
Q 2463 116 2709 116 
L 2856 116 
L 2856 0 
L 1059 0 
L 1059 116 
L 1209 116 
Q 1478 116 1591 278 
Q 1659 378 1659 734 
L 1659 3972 
L 1150 3972 
Q 853 3972 728 3928 
Q 566 3869 450 3700 
Q 334 3531 313 3244 
L 194 3244 
L 244 4238 
L 3703 4238 
z
" id="TimesNewRomanPSMT-54" transform="scale(0.015625)"/>
       <path d="M 928 4444 
Q 1059 4444 1151 4351 
Q 1244 4259 1244 4128 
Q 1244 3997 1151 3903 
Q 1059 3809 928 3809 
Q 797 3809 703 3903 
Q 609 3997 609 4128 
Q 609 4259 701 4351 
Q 794 4444 928 4444 
z
M 1188 2947 
L 1188 647 
Q 1188 378 1227 289 
Q 1266 200 1342 156 
Q 1419 113 1622 113 
L 1622 0 
L 231 0 
L 231 113 
Q 441 113 512 153 
Q 584 194 626 287 
Q 669 381 669 647 
L 669 1750 
Q 669 2216 641 2353 
Q 619 2453 572 2492 
Q 525 2531 444 2531 
Q 356 2531 231 2484 
L 188 2597 
L 1050 2947 
L 1188 2947 
z
" id="TimesNewRomanPSMT-69" transform="scale(0.015625)"/>
       <path d="M 1050 2338 
Q 1363 2650 1419 2697 
Q 1559 2816 1721 2881 
Q 1884 2947 2044 2947 
Q 2313 2947 2506 2790 
Q 2700 2634 2766 2338 
Q 3088 2713 3309 2830 
Q 3531 2947 3766 2947 
Q 3994 2947 4170 2830 
Q 4347 2713 4450 2447 
Q 4519 2266 4519 1878 
L 4519 647 
Q 4519 378 4559 278 
Q 4591 209 4675 161 
Q 4759 113 4950 113 
L 4950 0 
L 3538 0 
L 3538 113 
L 3597 113 
Q 3781 113 3884 184 
Q 3956 234 3988 344 
Q 4000 397 4000 647 
L 4000 1878 
Q 4000 2228 3916 2372 
Q 3794 2572 3525 2572 
Q 3359 2572 3192 2489 
Q 3025 2406 2788 2181 
L 2781 2147 
L 2788 2013 
L 2788 647 
Q 2788 353 2820 281 
Q 2853 209 2943 161 
Q 3034 113 3253 113 
L 3253 0 
L 1806 0 
L 1806 113 
Q 2044 113 2133 169 
Q 2222 225 2256 338 
Q 2272 391 2272 647 
L 2272 1878 
Q 2272 2228 2169 2381 
Q 2031 2581 1784 2581 
Q 1616 2581 1450 2491 
Q 1191 2353 1050 2181 
L 1050 647 
Q 1050 366 1089 281 
Q 1128 197 1204 155 
Q 1281 113 1516 113 
L 1516 0 
L 100 0 
L 100 113 
Q 297 113 375 155 
Q 453 197 493 289 
Q 534 381 534 647 
L 534 1741 
Q 534 2213 506 2350 
Q 484 2453 437 2492 
Q 391 2531 309 2531 
Q 222 2531 100 2484 
L 53 2597 
L 916 2947 
L 1050 2947 
L 1050 2338 
z
" id="TimesNewRomanPSMT-6d" transform="scale(0.015625)"/>
       <path d="M 681 1784 
Q 678 1147 991 784 
Q 1303 422 1725 422 
Q 2006 422 2214 576 
Q 2422 731 2563 1106 
L 2659 1044 
Q 2594 616 2278 264 
Q 1963 -88 1488 -88 
Q 972 -88 605 314 
Q 238 716 238 1394 
Q 238 2128 614 2539 
Q 991 2950 1559 2950 
Q 2041 2950 2350 2633 
Q 2659 2316 2659 1784 
L 681 1784 
z
M 681 1966 
L 2006 1966 
Q 1991 2241 1941 2353 
Q 1863 2528 1708 2628 
Q 1553 2728 1384 2728 
Q 1125 2728 920 2526 
Q 716 2325 681 1966 
z
" id="TimesNewRomanPSMT-65" transform="scale(0.015625)"/>
       <path id="TimesNewRomanPSMT-20" transform="scale(0.015625)"/>
       <path d="M 1988 -1253 
L 1988 -1369 
Q 1516 -1131 1200 -813 
Q 750 -359 506 256 
Q 263 872 263 1534 
Q 263 2503 741 3301 
Q 1219 4100 1988 4444 
L 1988 4313 
Q 1603 4100 1356 3731 
Q 1109 3363 987 2797 
Q 866 2231 866 1616 
Q 866 947 969 400 
Q 1050 -31 1165 -292 
Q 1281 -553 1476 -793 
Q 1672 -1034 1988 -1253 
z
" id="TimesNewRomanPSMT-28" transform="scale(0.015625)"/>
       <path d="M 2050 2947 
L 2050 1972 
L 1947 1972 
Q 1828 2431 1642 2597 
Q 1456 2763 1169 2763 
Q 950 2763 815 2647 
Q 681 2531 681 2391 
Q 681 2216 781 2091 
Q 878 1963 1175 1819 
L 1631 1597 
Q 2266 1288 2266 781 
Q 2266 391 1970 151 
Q 1675 -88 1309 -88 
Q 1047 -88 709 6 
Q 606 38 541 38 
Q 469 38 428 -44 
L 325 -44 
L 325 978 
L 428 978 
Q 516 541 762 319 
Q 1009 97 1316 97 
Q 1531 97 1667 223 
Q 1803 350 1803 528 
Q 1803 744 1651 891 
Q 1500 1038 1047 1263 
Q 594 1488 453 1669 
Q 313 1847 313 2119 
Q 313 2472 555 2709 
Q 797 2947 1181 2947 
Q 1350 2947 1591 2875 
Q 1750 2828 1803 2828 
Q 1853 2828 1881 2850 
Q 1909 2872 1947 2947 
L 2050 2947 
z
" id="TimesNewRomanPSMT-73" transform="scale(0.015625)"/>
       <path d="M 2631 1088 
Q 2516 522 2178 217 
Q 1841 -88 1431 -88 
Q 944 -88 581 321 
Q 219 731 219 1428 
Q 219 2103 620 2525 
Q 1022 2947 1584 2947 
Q 2006 2947 2278 2723 
Q 2550 2500 2550 2259 
Q 2550 2141 2473 2067 
Q 2397 1994 2259 1994 
Q 2075 1994 1981 2113 
Q 1928 2178 1911 2362 
Q 1894 2547 1784 2644 
Q 1675 2738 1481 2738 
Q 1169 2738 978 2506 
Q 725 2200 725 1697 
Q 725 1184 976 792 
Q 1228 400 1656 400 
Q 1963 400 2206 609 
Q 2378 753 2541 1131 
L 2631 1088 
z
" id="TimesNewRomanPSMT-63" transform="scale(0.015625)"/>
       <path d="M 144 4313 
L 144 4444 
Q 619 4209 934 3891 
Q 1381 3434 1625 2820 
Q 1869 2206 1869 1541 
Q 1869 572 1392 -226 
Q 916 -1025 144 -1369 
L 144 -1253 
Q 528 -1038 776 -670 
Q 1025 -303 1145 264 
Q 1266 831 1266 1447 
Q 1266 2113 1163 2663 
Q 1084 3094 967 3353 
Q 850 3613 656 3853 
Q 463 4094 144 4313 
z
" id="TimesNewRomanPSMT-29" transform="scale(0.015625)"/>
      </defs>
      <use xlink:href="#TimesNewRomanPSMT-54"/>
      <use x="57.583984" xlink:href="#TimesNewRomanPSMT-69"/>
      <use x="85.367188" xlink:href="#TimesNewRomanPSMT-6d"/>
      <use x="163.150391" xlink:href="#TimesNewRomanPSMT-65"/>
      <use x="207.535156" xlink:href="#TimesNewRomanPSMT-20"/>
      <use x="232.535156" xlink:href="#TimesNewRomanPSMT-28"/>
      <use x="265.835938" xlink:href="#TimesNewRomanPSMT-73"/>
      <use x="304.751953" xlink:href="#TimesNewRomanPSMT-65"/>
      <use x="349.136719" xlink:href="#TimesNewRomanPSMT-63"/>
      <use x="393.521484" xlink:href="#TimesNewRomanPSMT-29"/>
     </g>
    </g>
   </g>
   <g id="matplotlib.axis_2">
    <g id="ytick_1">
     <g id="line2d_13">
      <path clip-path="url(#pff1d1d78ef)" d="M 63.336875 299.575738 
L 398.136875 299.575738 
" style="fill:none;stroke:#000000;stroke-dasharray:0.5,0.825;stroke-dashoffset:0;stroke-width:0.5;"/>
     </g>
     <g id="line2d_14">
      <defs>
       <path d="M 0 0 
L -3.5 0 
" id="mc9f35d7b81" style="stroke:#000000;stroke-width:0.8;"/>
      </defs>
      <g>
       <use style="stroke:#000000;stroke-width:0.8;" x="63.336875" xlink:href="#mc9f35d7b81" y="299.575738"/>
      </g>
     </g>
     <g id="text_8">
      <!-- −0.06 -->
      <g transform="translate(23.942188 304.436363)scale(0.14 -0.14)">
       <defs>
        <path d="M 3484 2000 
L 116 2000 
L 116 2256 
L 3484 2256 
L 3484 2000 
z
" id="TimesNewRomanPSMT-2212" transform="scale(0.015625)"/>
        <path d="M 2869 4325 
L 2869 4209 
Q 2456 4169 2195 4045 
Q 1934 3922 1679 3669 
Q 1425 3416 1258 3105 
Q 1091 2794 978 2366 
Q 1428 2675 1881 2675 
Q 2316 2675 2634 2325 
Q 2953 1975 2953 1425 
Q 2953 894 2631 456 
Q 2244 -75 1606 -75 
Q 1172 -75 869 213 
Q 275 772 275 1663 
Q 275 2231 503 2743 
Q 731 3256 1154 3653 
Q 1578 4050 1965 4187 
Q 2353 4325 2688 4325 
L 2869 4325 
z
M 925 2138 
Q 869 1716 869 1456 
Q 869 1156 980 804 
Q 1091 453 1309 247 
Q 1469 100 1697 100 
Q 1969 100 2183 356 
Q 2397 613 2397 1088 
Q 2397 1622 2184 2012 
Q 1972 2403 1581 2403 
Q 1463 2403 1327 2353 
Q 1191 2303 925 2138 
z
" id="TimesNewRomanPSMT-36" transform="scale(0.015625)"/>
       </defs>
       <use xlink:href="#TimesNewRomanPSMT-2212"/>
       <use x="56.396484" xlink:href="#TimesNewRomanPSMT-30"/>
       <use x="106.396484" xlink:href="#TimesNewRomanPSMT-2e"/>
       <use x="131.396484" xlink:href="#TimesNewRomanPSMT-30"/>
       <use x="181.396484" xlink:href="#TimesNewRomanPSMT-36"/>
      </g>
     </g>
    </g>
    <g id="ytick_2">
     <g id="line2d_15">
      <path clip-path="url(#pff1d1d78ef)" d="M 63.336875 251.656552 
L 398.136875 251.656552 
" style="fill:none;stroke:#000000;stroke-dasharray:0.5,0.825;stroke-dashoffset:0;stroke-width:0.5;"/>
     </g>
     <g id="line2d_16">
      <g>
       <use style="stroke:#000000;stroke-width:0.8;" x="63.336875" xlink:href="#mc9f35d7b81" y="251.656552"/>
      </g>
     </g>
     <g id="text_9">
      <!-- −0.04 -->
      <g transform="translate(23.942188 256.517177)scale(0.14 -0.14)">
       <use xlink:href="#TimesNewRomanPSMT-2212"/>
       <use x="56.396484" xlink:href="#TimesNewRomanPSMT-30"/>
       <use x="106.396484" xlink:href="#TimesNewRomanPSMT-2e"/>
       <use x="131.396484" xlink:href="#TimesNewRomanPSMT-30"/>
       <use x="181.396484" xlink:href="#TimesNewRomanPSMT-34"/>
      </g>
     </g>
    </g>
    <g id="ytick_3">
     <g id="line2d_17">
      <path clip-path="url(#pff1d1d78ef)" d="M 63.336875 203.737367 
L 398.136875 203.737367 
" style="fill:none;stroke:#000000;stroke-dasharray:0.5,0.825;stroke-dashoffset:0;stroke-width:0.5;"/>
     </g>
     <g id="line2d_18">
      <g>
       <use style="stroke:#000000;stroke-width:0.8;" x="63.336875" xlink:href="#mc9f35d7b81" y="203.737367"/>
      </g>
     </g>
     <g id="text_10">
      <!-- −0.02 -->
      <g transform="translate(23.942188 208.597992)scale(0.14 -0.14)">
       <use xlink:href="#TimesNewRomanPSMT-2212"/>
       <use x="56.396484" xlink:href="#TimesNewRomanPSMT-30"/>
       <use x="106.396484" xlink:href="#TimesNewRomanPSMT-2e"/>
       <use x="131.396484" xlink:href="#TimesNewRomanPSMT-30"/>
       <use x="181.396484" xlink:href="#TimesNewRomanPSMT-32"/>
      </g>
     </g>
    </g>
    <g id="ytick_4">
     <g id="line2d_19">
      <path clip-path="url(#pff1d1d78ef)" d="M 63.336875 155.818181 
L 398.136875 155.818181 
" style="fill:none;stroke:#000000;stroke-dasharray:0.5,0.825;stroke-dashoffset:0;stroke-width:0.5;"/>
     </g>
     <g id="line2d_20">
      <g>
       <use style="stroke:#000000;stroke-width:0.8;" x="63.336875" xlink:href="#mc9f35d7b81" y="155.818181"/>
      </g>
     </g>
     <g id="text_11">
      <!-- 0.00 -->
      <g transform="translate(31.836875 160.678806)scale(0.14 -0.14)">
       <use xlink:href="#TimesNewRomanPSMT-30"/>
       <use x="50" xlink:href="#TimesNewRomanPSMT-2e"/>
       <use x="75" xlink:href="#TimesNewRomanPSMT-30"/>
       <use x="125" xlink:href="#TimesNewRomanPSMT-30"/>
      </g>
     </g>
    </g>
    <g id="ytick_5">
     <g id="line2d_21">
      <path clip-path="url(#pff1d1d78ef)" d="M 63.336875 107.898996 
L 398.136875 107.898996 
" style="fill:none;stroke:#000000;stroke-dasharray:0.5,0.825;stroke-dashoffset:0;stroke-width:0.5;"/>
     </g>
     <g id="line2d_22">
      <g>
       <use style="stroke:#000000;stroke-width:0.8;" x="63.336875" xlink:href="#mc9f35d7b81" y="107.898996"/>
      </g>
     </g>
     <g id="text_12">
      <!-- 0.02 -->
      <g transform="translate(31.836875 112.759621)scale(0.14 -0.14)">
       <use xlink:href="#TimesNewRomanPSMT-30"/>
       <use x="50" xlink:href="#TimesNewRomanPSMT-2e"/>
       <use x="75" xlink:href="#TimesNewRomanPSMT-30"/>
       <use x="125" xlink:href="#TimesNewRomanPSMT-32"/>
      </g>
     </g>
    </g>
    <g id="ytick_6">
     <g id="line2d_23">
      <path clip-path="url(#pff1d1d78ef)" d="M 63.336875 59.97981 
L 398.136875 59.97981 
" style="fill:none;stroke:#000000;stroke-dasharray:0.5,0.825;stroke-dashoffset:0;stroke-width:0.5;"/>
     </g>
     <g id="line2d_24">
      <g>
       <use style="stroke:#000000;stroke-width:0.8;" x="63.336875" xlink:href="#mc9f35d7b81" y="59.97981"/>
      </g>
     </g>
     <g id="text_13">
      <!-- 0.04 -->
      <g transform="translate(31.836875 64.840435)scale(0.14 -0.14)">
       <use xlink:href="#TimesNewRomanPSMT-30"/>
       <use x="50" xlink:href="#TimesNewRomanPSMT-2e"/>
       <use x="75" xlink:href="#TimesNewRomanPSMT-30"/>
       <use x="125" xlink:href="#TimesNewRomanPSMT-34"/>
      </g>
     </g>
    </g>
    <g id="ytick_7">
     <g id="line2d_25">
      <path clip-path="url(#pff1d1d78ef)" d="M 63.336875 12.060625 
L 398.136875 12.060625 
" style="fill:none;stroke:#000000;stroke-dasharray:0.5,0.825;stroke-dashoffset:0;stroke-width:0.5;"/>
     </g>
     <g id="line2d_26">
      <g>
       <use style="stroke:#000000;stroke-width:0.8;" x="63.336875" xlink:href="#mc9f35d7b81" y="12.060625"/>
      </g>
     </g>
     <g id="text_14">
      <!-- 0.06 -->
      <g transform="translate(31.836875 16.92125)scale(0.14 -0.14)">
       <use xlink:href="#TimesNewRomanPSMT-30"/>
       <use x="50" xlink:href="#TimesNewRomanPSMT-2e"/>
       <use x="75" xlink:href="#TimesNewRomanPSMT-30"/>
       <use x="125" xlink:href="#TimesNewRomanPSMT-36"/>
      </g>
     </g>
    </g>
    <g id="text_15">
     <!-- Volatage (V) -->
     <g transform="translate(16.92125 211.479362)rotate(-90)scale(0.14 -0.14)">
      <defs>
       <path d="M 4544 4238 
L 4544 4122 
Q 4319 4081 4203 3978 
Q 4038 3825 3909 3509 
L 2431 -97 
L 2316 -97 
L 728 3556 
Q 606 3838 556 3900 
Q 478 3997 364 4051 
Q 250 4106 56 4122 
L 56 4238 
L 1788 4238 
L 1788 4122 
Q 1494 4094 1406 4022 
Q 1319 3950 1319 3838 
Q 1319 3681 1463 3350 
L 2541 866 
L 3541 3319 
Q 3688 3681 3688 3822 
Q 3688 3913 3597 3995 
Q 3506 4078 3291 4113 
Q 3275 4116 3238 4122 
L 3238 4238 
L 4544 4238 
z
" id="TimesNewRomanPSMT-56" transform="scale(0.015625)"/>
       <path d="M 1600 2947 
Q 2250 2947 2644 2453 
Q 2978 2031 2978 1484 
Q 2978 1100 2793 706 
Q 2609 313 2286 112 
Q 1963 -88 1566 -88 
Q 919 -88 538 428 
Q 216 863 216 1403 
Q 216 1797 411 2186 
Q 606 2575 925 2761 
Q 1244 2947 1600 2947 
z
M 1503 2744 
Q 1338 2744 1170 2645 
Q 1003 2547 900 2300 
Q 797 2053 797 1666 
Q 797 1041 1045 587 
Q 1294 134 1700 134 
Q 2003 134 2200 384 
Q 2397 634 2397 1244 
Q 2397 2006 2069 2444 
Q 1847 2744 1503 2744 
z
" id="TimesNewRomanPSMT-6f" transform="scale(0.015625)"/>
       <path d="M 1184 4444 
L 1184 647 
Q 1184 378 1223 290 
Q 1263 203 1344 158 
Q 1425 113 1647 113 
L 1647 0 
L 244 0 
L 244 113 
Q 441 113 512 153 
Q 584 194 625 287 
Q 666 381 666 647 
L 666 3247 
Q 666 3731 644 3842 
Q 622 3953 573 3993 
Q 525 4034 450 4034 
Q 369 4034 244 3984 
L 191 4094 
L 1044 4444 
L 1184 4444 
z
" id="TimesNewRomanPSMT-6c" transform="scale(0.015625)"/>
       <path d="M 1822 413 
Q 1381 72 1269 19 
Q 1100 -59 909 -59 
Q 613 -59 420 144 
Q 228 347 228 678 
Q 228 888 322 1041 
Q 450 1253 767 1440 
Q 1084 1628 1822 1897 
L 1822 2009 
Q 1822 2438 1686 2597 
Q 1550 2756 1291 2756 
Q 1094 2756 978 2650 
Q 859 2544 859 2406 
L 866 2225 
Q 866 2081 792 2003 
Q 719 1925 600 1925 
Q 484 1925 411 2006 
Q 338 2088 338 2228 
Q 338 2497 613 2722 
Q 888 2947 1384 2947 
Q 1766 2947 2009 2819 
Q 2194 2722 2281 2516 
Q 2338 2381 2338 1966 
L 2338 994 
Q 2338 584 2353 492 
Q 2369 400 2405 369 
Q 2441 338 2488 338 
Q 2538 338 2575 359 
Q 2641 400 2828 588 
L 2828 413 
Q 2478 -56 2159 -56 
Q 2006 -56 1915 50 
Q 1825 156 1822 413 
z
M 1822 616 
L 1822 1706 
Q 1350 1519 1213 1441 
Q 966 1303 859 1153 
Q 753 1003 753 825 
Q 753 600 887 451 
Q 1022 303 1197 303 
Q 1434 303 1822 616 
z
" id="TimesNewRomanPSMT-61" transform="scale(0.015625)"/>
       <path d="M 1031 3803 
L 1031 2863 
L 1700 2863 
L 1700 2644 
L 1031 2644 
L 1031 788 
Q 1031 509 1111 412 
Q 1191 316 1316 316 
Q 1419 316 1516 380 
Q 1613 444 1666 569 
L 1788 569 
Q 1678 263 1478 108 
Q 1278 -47 1066 -47 
Q 922 -47 784 33 
Q 647 113 581 261 
Q 516 409 516 719 
L 516 2644 
L 63 2644 
L 63 2747 
Q 234 2816 414 2980 
Q 594 3144 734 3369 
Q 806 3488 934 3803 
L 1031 3803 
z
" id="TimesNewRomanPSMT-74" transform="scale(0.015625)"/>
       <path d="M 966 1044 
Q 703 1172 562 1401 
Q 422 1631 422 1909 
Q 422 2334 742 2640 
Q 1063 2947 1563 2947 
Q 1972 2947 2272 2747 
L 2878 2747 
Q 3013 2747 3034 2739 
Q 3056 2731 3066 2713 
Q 3084 2684 3084 2613 
Q 3084 2531 3069 2500 
Q 3059 2484 3036 2475 
Q 3013 2466 2878 2466 
L 2506 2466 
Q 2681 2241 2681 1891 
Q 2681 1491 2375 1206 
Q 2069 922 1553 922 
Q 1341 922 1119 984 
Q 981 866 932 777 
Q 884 688 884 625 
Q 884 572 936 522 
Q 988 472 1138 450 
Q 1225 438 1575 428 
Q 2219 413 2409 384 
Q 2700 344 2873 169 
Q 3047 -6 3047 -263 
Q 3047 -616 2716 -925 
Q 2228 -1381 1444 -1381 
Q 841 -1381 425 -1109 
Q 191 -953 191 -784 
Q 191 -709 225 -634 
Q 278 -519 444 -313 
Q 466 -284 763 25 
Q 600 122 533 198 
Q 466 275 466 372 
Q 466 481 555 628 
Q 644 775 966 1044 
z
M 1509 2797 
Q 1278 2797 1122 2612 
Q 966 2428 966 2047 
Q 966 1553 1178 1281 
Q 1341 1075 1591 1075 
Q 1828 1075 1981 1253 
Q 2134 1431 2134 1813 
Q 2134 2309 1919 2591 
Q 1759 2797 1509 2797 
z
M 934 0 
Q 788 -159 713 -296 
Q 638 -434 638 -550 
Q 638 -700 819 -813 
Q 1131 -1006 1722 -1006 
Q 2284 -1006 2551 -807 
Q 2819 -609 2819 -384 
Q 2819 -222 2659 -153 
Q 2497 -84 2016 -72 
Q 1313 -53 934 0 
z
" id="TimesNewRomanPSMT-67" transform="scale(0.015625)"/>
      </defs>
      <use xlink:href="#TimesNewRomanPSMT-56"/>
      <use x="59.341797" xlink:href="#TimesNewRomanPSMT-6f"/>
      <use x="109.341797" xlink:href="#TimesNewRomanPSMT-6c"/>
      <use x="137.125" xlink:href="#TimesNewRomanPSMT-61"/>
      <use x="181.509766" xlink:href="#TimesNewRomanPSMT-74"/>
      <use x="209.292969" xlink:href="#TimesNewRomanPSMT-61"/>
      <use x="253.677734" xlink:href="#TimesNewRomanPSMT-67"/>
      <use x="303.677734" xlink:href="#TimesNewRomanPSMT-65"/>
      <use x="348.0625" xlink:href="#TimesNewRomanPSMT-20"/>
      <use x="373.0625" xlink:href="#TimesNewRomanPSMT-28"/>
      <use x="406.363281" xlink:href="#TimesNewRomanPSMT-56"/>
      <use x="478.580078" xlink:href="#TimesNewRomanPSMT-29"/>
     </g>
    </g>
   </g>
   <g id="LineCollection_1">
    <path clip-path="url(#pff1d1d78ef)" d="M 78.555057 155.818181 
L 382.918693 155.818181 
" style="fill:none;stroke:#1f77b4;stroke-width:1.5;"/>
   </g>
   <g id="line2d_27">
    <path clip-path="url(#pff1d1d78ef)" d="M 78.555057 155.775533 
L 78.707239 155.805483 
L 78.85942 155.805483 
L 111.913311 155.895331 
L 112.00462 155.925281 
L 112.035057 155.895331 
L 112.217675 155.925281 
L 112.308984 155.895331 
L 112.33942 155.925281 
L 113.800366 156.015129 
L 113.982984 156.045079 
L 114.956948 156.134927 
L 115.078693 156.194826 
L 115.230875 156.194826 
L 115.717857 156.284675 
L 115.900475 156.314624 
L 116.35702 156.404473 
L 116.570075 156.464372 
L 117.02662 156.55422 
L 117.209239 156.584169 
L 117.604911 156.674018 
L 117.757093 156.703967 
L 117.878839 156.703967 
L 118.061457 156.733917 
L 118.518002 156.823765 
L 118.70062 156.853715 
L 119.339784 156.943563 
L 119.491966 156.973513 
L 119.644148 156.973513 
L 119.826766 157.003462 
L 121.165966 157.093311 
L 121.318148 157.093311 
L 121.926875 157.183159 
L 122.170366 157.273008 
L 122.292111 157.302957 
L 122.779093 157.392806 
L 123.022584 157.512604 
L 123.14433 157.482654 
L 123.296511 157.572503 
L 123.448693 157.572503 
L 123.692184 157.662351 
L 123.966111 157.72225 
L 124.14873 157.842048 
L 124.240039 157.812099 
L 124.39222 157.931897 
L 124.605275 158.021745 
L 124.909639 158.171492 
L 125.122693 158.261341 
L 125.305311 158.411088 
L 125.366184 158.500937 
L 126.73582 159.998411 
L 127.374984 161.046644 
L 127.40542 161.046644 
L 127.588039 161.495886 
L 127.770657 161.82533 
L 128.622875 163.742098 
L 131.149093 171.528965 
L 131.696948 173.685329 
L 131.84913 174.224419 
L 132.85353 177.75846 
L 133.005711 178.297551 
L 135.836293 186.324014 
L 136.566766 187.521994 
L 136.658075 187.611842 
L 137.297239 188.091034 
L 138.54513 188.001185 
L 138.78862 187.73164 
L 138.910366 187.641792 
L 140.188693 184.916388 
L 141.680075 178.597046 
L 142.532293 173.894975 
L 144.754148 157.842048 
L 148.954366 115.433567 
L 149.92833 104.382207 
L 151.024039 92.522208 
L 152.454548 78.206349 
L 154.767711 58.649337 
L 156.319966 50.143679 
L 157.111311 47.478179 
L 157.689602 46.100495 
L 157.96353 45.801005 
L 158.146148 45.741106 
L 158.359202 45.83095 
L 158.480948 45.860904 
L 159.120111 46.639586 
L 159.515784 47.657869 
L 160.794111 53.138626 
L 162.133311 63.111808 
L 163.442075 77.068266 
L 164.32473 88.748575 
L 165.968293 114.62493 
L 167.946657 151.582605 
L 173.912184 266.88814 
L 175.61662 292.015765 
L 176.834075 306.181877 
L 177.473239 312.441315 
L 178.355893 319.299763 
L 178.842875 321.995201 
L 179.116802 323.133291 
L 179.63422 325.139899 
L 180.090766 326.158192 
L 180.39513 326.517574 
L 180.821239 326.787129 
L 181.095166 326.697283 
L 181.39953 326.248038 
L 182.495239 322.684046 
L 183.499639 316.095153 
L 184.32142 308.787477 
L 185.538875 295.789403 
L 187.121566 274.195825 
L 189.09993 241.341226 
L 190.408693 216.273505 
L 192.78273 167.276138 
L 195.735057 111.27059 
L 196.678584 94.678572 
L 197.987348 74.612413 
L 199.691784 54.156908 
L 201.335348 39.002468 
L 202.40062 32.383628 
L 202.796293 30.37701 
L 203.191966 28.669891 
L 203.861566 26.483583 
L 204.16593 25.64499 
L 204.50073 24.956155 
L 205.048584 24.566809 
L 205.261639 24.476963 
L 205.41382 24.447018 
L 205.74862 24.62671 
L 205.809493 24.686609 
L 206.387784 25.615046 
L 206.41822 25.615046 
L 206.631275 26.034336 
L 207.17913 27.352119 
L 207.696548 29.179038 
L 209.614039 39.152213 
L 211.896766 55.624436 
L 214.057748 73.504284 
L 220.175457 126.694578 
L 221.545093 136.607859 
L 222.427748 142.477959 
L 223.523457 149.276494 
L 224.345239 153.469422 
L 225.075711 156.763866 
L 225.410511 158.141543 
L 225.83662 159.728866 
L 227.906293 167.425886 
L 228.149784 168.114723 
L 228.910693 170.66043 
L 230.28033 175.033056 
L 230.797748 176.62038 
L 231.589093 179.285883 
L 232.897857 184.886438 
L 233.993566 190.756539 
L 234.510984 193.991084 
L 235.058839 197.195679 
L 241.054802 237.747287 
L 243.063602 247.091526 
L 244.402802 251.913401 
L 244.981093 253.321027 
L 245.072402 253.410874 
L 245.25502 253.650474 
L 245.34633 253.680419 
L 245.468075 253.74032 
L 245.742002 253.590573 
L 245.772439 253.650474 
L 245.833311 253.560619 
L 246.01593 253.470773 
L 246.655093 252.692083 
L 247.02033 251.7337 
L 247.93342 248.738755 
L 249.455239 240.712289 
L 250.855311 230.379713 
L 251.737966 222.772544 
L 252.95542 211.032346 
L 258.464402 152.600887 
L 260.868875 132.265183 
L 262.177639 123.999123 
L 262.877675 120.495033 
L 264.734293 113.6366 
L 265.708257 111.090893 
L 266.530039 109.713216 
L 266.834402 109.263974 
L 267.10833 108.964479 
L 267.230075 108.87463 
L 267.595311 108.664984 
L 267.869239 108.575133 
L 268.11273 108.485289 
L 268.934511 108.575133 
L 269.178002 108.664984 
L 269.36062 108.754835 
L 269.78673 109.02438 
L 269.938911 109.084275 
L 270.212839 109.383769 
L 270.638948 109.952812 
L 271.79553 112.468572 
L 278.795893 132.804274 
L 279.952475 135.290081 
L 280.195966 135.799222 
L 280.378584 136.128668 
L 282.113457 139.333263 
L 282.17433 139.393162 
L 283.148293 141.100283 
L 283.209166 141.160182 
L 283.665711 141.84902 
L 283.726584 141.908919 
L 284.213566 142.627707 
L 284.304875 142.657656 
L 284.487493 142.897253 
L 286.19193 144.424676 
L 286.404984 144.514524 
L 286.618039 144.574423 
L 286.77022 144.574423 
L 286.922402 144.574423 
L 287.470257 144.514524 
L 287.622439 144.454626 
L 287.896366 144.334828 
L 287.926802 144.364777 
L 287.987675 144.274929 
L 288.261602 144.18508 
L 288.505093 143.945485 
L 288.657275 143.855636 
L 290.11822 142.268313 
L 290.54433 141.669323 
L 290.605202 141.609424 
L 291.731348 139.632757 
L 291.79222 139.572859 
L 292.88793 137.1769 
L 296.022875 127.593062 
L 297.270766 123.100639 
L 297.331639 122.890992 
L 298.001239 120.614831 
L 298.336039 119.5067 
L 299.796984 115.493468 
L 300.010039 115.134072 
L 300.984002 113.426953 
L 301.075311 113.397004 
L 301.562293 113.067557 
L 301.684039 112.977713 
L 302.018839 112.798011 
L 302.26233 112.857913 
L 302.50582 113.097509 
L 303.023239 113.7564 
L 303.84502 115.583316 
L 304.636366 118.278773 
L 304.788548 118.817859 
L 305.458148 121.902659 
L 306.432111 127.233668 
L 307.223457 132.594627 
L 308.045239 138.973869 
L 309.688802 154.517655 
L 310.906257 167.575632 
L 312.458511 184.616893 
L 315.867384 220.346633 
L 317.632693 234.991932 
L 318.57622 240.742244 
L 319.154511 243.49759 
L 319.945857 246.193044 
L 320.25022 247.031637 
L 320.615457 247.780372 
L 320.889384 248.169708 
L 321.102439 248.46921 
L 321.711166 248.918455 
L 322.076402 248.858553 
L 322.228584 248.738755 
L 322.806875 248.019963 
L 323.324293 246.821981 
L 323.476475 246.342791 
L 323.872148 244.935172 
L 324.876548 240.562544 
L 325.302657 238.34628 
L 325.637457 236.57926 
L 326.27662 232.925424 
L 329.168075 212.260273 
L 330.689893 199.771333 
L 331.663857 191.23573 
L 333.581348 173.445733 
L 337.99462 135.320031 
L 341.616548 111.120845 
L 343.77753 99.02125 
L 345.999384 88.628775 
L 346.486366 86.861757 
L 347.003784 85.274434 
L 347.399457 84.256151 
L 347.70382 83.507409 
L 347.79513 83.327715 
L 348.03862 82.788624 
L 349.347384 80.452568 
L 349.438693 80.362713 
L 349.682184 80.093167 
L 349.80393 80.003324 
L 350.016984 79.763723 
L 350.077857 79.763723 
L 350.108293 79.703822 
L 350.443093 79.524132 
L 350.564839 79.494178 
L 350.71702 79.494178 
L 351.660548 79.584031 
L 351.964911 79.733776 
L 352.14753 79.823622 
L 352.48233 80.003324 
L 352.634511 80.093167 
L 353.973711 81.560695 
L 355.617275 85.004886 
L 356.07382 86.382565 
L 356.286875 87.041452 
L 358.995711 98.152713 
L 361.278439 109.922863 
L 361.76542 112.588367 
L 362.130657 114.475185 
L 374.792184 189.888003 
L 375.705275 195.428659 
L 376.131384 198.064214 
L 378.535857 212.919164 
L 379.418511 218.31007 
L 379.479384 218.669464 
L 380.909893 226.456332 
L 382.309966 232.805624 
L 382.918693 234.991932 
L 382.918693 234.991932 
" style="fill:none;stroke:#0000ff;stroke-linecap:square;stroke-width:1.5;"/>
   </g>
   <g id="line2d_28">
    <path clip-path="url(#pff1d1d78ef)" d="M 78.555057 155.81878 
L 94.442839 155.908629 
L 94.625457 155.938578 
L 100.408366 156.028427 
L 100.590984 156.058376 
L 101.017093 156.148225 
L 101.443202 156.253048 
L 102.751966 157.01676 
L 103.756366 158.139866 
L 104.30422 159.008401 
L 104.425966 159.188098 
L 104.852075 159.98176 
L 105.369493 161.179739 
L 105.826039 162.31782 
L 108.595748 170.83845 
L 109.387093 173.51893 
L 111.730693 180.107817 
L 111.852439 180.362388 
L 113.191639 182.773322 
L 114.10473 183.537034 
L 114.987384 183.46216 
L 115.230875 183.297438 
L 116.174402 182.234231 
L 117.726657 178.13115 
L 119.674584 170.014839 
L 120.526802 165.747037 
L 121.71382 158.723881 
L 123.753057 144.977065 
L 125.39662 133.641182 
L 126.340148 127.935804 
L 128.227202 117.45348 
L 129.901202 109.726516 
L 132.85353 101.340654 
L 134.284039 98.750025 
L 134.923202 97.971339 
L 135.836293 96.803308 
L 136.384148 96.413968 
L 137.175493 95.785026 
L 138.088584 95.889849 
L 138.45382 96.174372 
L 138.849493 96.938081 
L 139.732148 99.199268 
L 140.158257 100.532022 
L 140.766984 102.673409 
L 142.22793 108.872951 
L 143.049711 113.455225 
L 144.449784 123.128911 
L 145.788984 133.117066 
L 147.554293 148.795625 
L 149.83702 171.227794 
L 153.915493 210.266952 
L 155.86342 223.819097 
L 156.806948 228.745791 
L 157.446111 231.336422 
L 158.115711 233.552686 
L 159.333166 235.72402 
L 159.97233 236.203209 
L 160.21582 236.233163 
L 160.398439 236.188242 
L 160.763675 236.083418 
L 161.098475 235.798896 
L 161.64633 234.81056 
L 162.802911 231.695813 
L 164.111675 225.436369 
L 165.603057 215.208623 
L 167.490111 198.526754 
L 168.616257 188.029458 
L 172.60342 151.775599 
L 174.581784 137.070399 
L 175.312257 132.443203 
L 176.95582 124.895931 
L 177.38193 123.563179 
L 177.838475 122.350224 
L 178.325457 121.826108 
L 179.63422 121.301992 
L 179.96902 121.406815 
L 180.456002 121.541588 
L 180.608184 121.571537 
L 181.277784 122.350224 
L 181.886511 123.802775 
L 182.40393 125.360148 
L 182.73873 126.677926 
L 184.230111 132.997269 
L 190.652184 164.05489 
L 190.956548 165.088148 
L 191.930511 168.307718 
L 193.756693 174.237717 
L 194.213239 175.375797 
L 194.70022 176.498904 
L 195.430693 177.771757 
L 196.435093 179.508828 
L 196.891639 179.853247 
L 197.196002 180.107817 
L 197.500366 180.257565 
L 197.896039 180.152742 
L 198.291711 179.853247 
L 198.687384 179.463903 
L 198.991748 179.014661 
L 199.661348 177.097893 
L 200.665748 173.264359 
L 202.674548 162.826961 
L 203.465893 157.990118 
L 206.052984 139.720929 
L 207.026948 133.311737 
L 208.731384 121.541588 
L 209.370548 117.498409 
L 210.588002 109.876261 
L 212.596802 100.546995 
L 213.814257 96.728435 
L 214.970839 94.167753 
L 215.153457 93.958107 
L 216.005675 93.239321 
L 217.13182 93.913185 
L 217.862293 94.781715 
L 218.47102 95.740102 
L 218.89713 96.54874 
L 221.362475 102.883055 
L 224.527857 114.159038 
L 225.59313 118.846134 
L 226.901893 124.446689 
L 231.95433 147.29815 
L 233.171784 154.456078 
L 236.732839 179.748424 
L 238.31553 190.605114 
L 239.046002 194.887891 
L 239.867784 199.08082 
L 240.628693 202.61486 
L 242.57662 209.847662 
L 243.91582 213.456578 
L 244.554984 214.95405 
L 245.407202 216.780969 
L 246.807275 218.652815 
L 247.35513 219.042156 
L 248.298657 219.386575 
L 248.511711 219.386575 
L 248.69433 219.356623 
L 249.02913 219.266779 
L 249.211748 219.176928 
L 250.490075 218.428191 
L 250.885748 218.173618 
L 251.159675 218.068797 
L 251.829275 217.634527 
L 252.164075 217.32006 
L 252.468439 217.050514 
L 254.72073 214.984 
L 254.842475 214.894149 
L 255.329457 214.564709 
L 257.06433 213.830944 
L 258.251348 213.935767 
L 258.890511 214.130441 
L 260.686257 214.025618 
L 261.690657 213.411649 
L 262.208075 212.767735 
L 262.634184 212.004025 
L 263.364657 210.326854 
L 264.916911 205.430112 
L 266.01262 200.084128 
L 266.621348 196.205669 
L 267.990984 186.022842 
L 269.238875 174.686961 
L 272.221639 141.263327 
L 278.73502 56.206776 
L 280.013348 43.538137 
L 280.987311 35.886046 
L 281.717784 31.318751 
L 282.387384 28.29385 
L 283.026548 26.212354 
L 283.361348 25.56844 
L 284.030948 25.044326 
L 284.213566 25.08925 
L 284.365748 25.119204 
L 284.822293 25.703217 
L 285.370148 27.02099 
L 285.76582 28.263896 
L 286.891966 33.714706 
L 287.592002 38.461703 
L 288.687711 47.910765 
L 291.061748 73.592455 
L 298.549093 164.324436 
L 302.59713 203.094052 
L 303.631966 210.386753 
L 304.362439 214.370035 
L 305.823384 220.359933 
L 306.797348 223.579501 
L 307.345202 225.07698 
L 308.136548 226.739175 
L 308.714839 227.652634 
L 309.475748 228.551117 
L 310.023602 229.165086 
L 310.358402 229.359753 
L 310.510584 229.404679 
L 310.845384 229.509503 
L 311.21062 229.569404 
L 311.849784 229.135134 
L 312.488948 228.35645 
L 313.371602 226.394758 
L 314.162948 223.729251 
L 315.106475 219.581246 
L 315.958693 215.568015 
L 317.115275 209.338521 
L 319.00233 197.568368 
L 320.158911 189.856377 
L 323.202548 169.625496 
L 324.146075 163.920118 
L 324.846111 159.861962 
L 326.854911 148.630902 
L 329.04633 139.406459 
L 329.928984 136.75593 
L 330.568148 135.213531 
L 331.146439 134.060476 
L 332.150839 132.772648 
L 333.39873 132.27848 
L 334.159639 132.383302 
L 334.920548 132.982294 
L 335.194475 133.236864 
L 335.803202 133.940678 
L 338.694657 136.636131 
L 339.09033 136.950601 
L 339.790366 137.489692 
L 340.033857 137.57954 
L 340.42953 137.834111 
L 340.612148 137.938934 
L 340.946948 138.118631 
L 342.620948 138.013808 
L 343.10793 137.669389 
L 343.412293 137.414819 
L 343.807966 137.100348 
L 344.660184 136.396535 
L 344.873239 136.291712 
L 345.177602 136.141965 
L 345.421093 136.052117 
L 345.847202 135.782572 
L 345.968948 135.692721 
L 346.547239 135.273431 
L 346.668984 135.183581 
L 349.621311 132.413253 
L 349.895239 132.30843 
L 351.112693 131.814264 
L 351.447493 131.874162 
L 351.599675 131.904112 
L 351.904039 132.053859 
L 352.117093 132.128732 
L 352.360584 132.293455 
L 352.72582 132.59295 
L 354.095457 134.090426 
L 354.643311 135.093733 
L 358.447857 144.722494 
L 359.391384 147.582671 
L 361.278439 151.940321 
L 361.826293 153.258099 
L 364.078584 158.514234 
L 364.44382 159.247997 
L 366.422184 162.901835 
L 366.848293 163.336103 
L 367.030911 163.440926 
L 368.46142 164.024941 
L 369.404948 163.935093 
L 370.074548 163.126456 
L 370.744148 161.958426 
L 371.56593 160.221355 
L 372.14422 159.173123 
L 374.15302 154.980195 
L 374.883493 153.16825 
L 375.857457 151.011887 
L 377.653202 146.324792 
L 378.26193 144.587721 
L 378.566293 143.79406 
L 378.93153 142.790752 
L 380.301166 139.151888 
L 380.818584 137.729288 
L 381.18382 136.770904 
L 382.005602 134.674439 
L 382.249093 134.120373 
L 382.796948 132.802596 
L 382.918693 132.518075 
L 382.918693 132.518075 
" style="fill:none;stroke:#ff0000;stroke-linecap:square;stroke-width:1.5;"/>
   </g>
   <g id="line2d_29">
    <path clip-path="url(#pff1d1d78ef)" d="M 128.866366 164.400987 
" style="fill:none;stroke:#ffffff;stroke-linecap:square;stroke-width:1.5;"/>
    <defs>
     <path d="M 0 -5 
L -1.12257 -1.545085 
L -4.755283 -1.545085 
L -1.816356 0.59017 
L -2.938926 4.045085 
L -0 1.90983 
L 2.938926 4.045085 
L 1.816356 0.59017 
L 4.755283 -1.545085 
L 1.12257 -1.545085 
z
" id="m0efa97bd3e" style="stroke:#ffffff;stroke-linejoin:bevel;"/>
    </defs>
    <g clip-path="url(#pff1d1d78ef)">
     <use style="fill:#0000ff;stroke:#ffffff;stroke-linejoin:bevel;" x="128.866366" xlink:href="#m0efa97bd3e" y="164.400987"/>
    </g>
   </g>
   <g id="line2d_30">
    <path clip-path="url(#pff1d1d78ef)" d="M 105.856475 162.407668 
" style="fill:none;stroke:#ffffff;stroke-linecap:square;stroke-width:1.5;"/>
    <defs>
     <path d="M 0 -5 
L -1.12257 -1.545085 
L -4.755283 -1.545085 
L -1.816356 0.59017 
L -2.938926 4.045085 
L -0 1.90983 
L 2.938926 4.045085 
L 1.816356 0.59017 
L 4.755283 -1.545085 
L 1.12257 -1.545085 
z
" id="m9646ff6a81" style="stroke:#ffffff;stroke-linejoin:bevel;"/>
    </defs>
    <g clip-path="url(#pff1d1d78ef)">
     <use style="fill:#ff0000;stroke:#ffffff;stroke-linejoin:bevel;" x="105.856475" xlink:href="#m9646ff6a81" y="162.407668"/>
    </g>
   </g>
   <g id="patch_3">
    <path d="M 63.336875 341.967018 
L 63.336875 9.327018 
" style="fill:none;stroke:#000000;stroke-linecap:square;stroke-linejoin:miter;stroke-width:0.8;"/>
   </g>
   <g id="patch_4">
    <path d="M 398.136875 341.967018 
L 398.136875 9.327018 
" style="fill:none;stroke:#000000;stroke-linecap:square;stroke-linejoin:miter;stroke-width:0.8;"/>
   </g>
   <g id="patch_5">
    <path d="M 63.336875 341.967018 
L 398.136875 341.967018 
" style="fill:none;stroke:#000000;stroke-linecap:square;stroke-linejoin:miter;stroke-width:0.8;"/>
   </g>
   <g id="patch_6">
    <path d="M 63.336875 9.327018 
L 398.136875 9.327018 
" style="fill:none;stroke:#000000;stroke-linecap:square;stroke-linejoin:miter;stroke-width:0.8;"/>
   </g>
   <g id="text_16">
    <g id="patch_7">
     <path d="M 75.036875 333.369706 
L 166.79375 333.369706 
L 166.79375 295.887331 
L 75.036875 295.887331 
z
" style="fill:#ffffff;stroke:#000000;stroke-linejoin:miter;stroke-width:0.75;"/>
    </g>
    <!-- Auto_00045 -->
    <g transform="translate(80.076875 310.648581)scale(0.14 -0.14)">
     <defs>
      <path d="M 2928 1419 
L 1288 1419 
L 1000 750 
Q 894 503 894 381 
Q 894 284 986 211 
Q 1078 138 1384 116 
L 1384 0 
L 50 0 
L 50 116 
Q 316 163 394 238 
Q 553 388 747 847 
L 2238 4334 
L 2347 4334 
L 3822 809 
Q 4000 384 4145 257 
Q 4291 131 4550 116 
L 4550 0 
L 2878 0 
L 2878 116 
Q 3131 128 3220 200 
Q 3309 272 3309 375 
Q 3309 513 3184 809 
L 2928 1419 
z
M 2841 1650 
L 2122 3363 
L 1384 1650 
L 2841 1650 
z
" id="TimesNewRomanPSMT-41" transform="scale(0.015625)"/>
      <path d="M 2709 2863 
L 2709 1128 
Q 2709 631 2732 520 
Q 2756 409 2807 365 
Q 2859 322 2928 322 
Q 3025 322 3147 375 
L 3191 266 
L 2334 -88 
L 2194 -88 
L 2194 519 
Q 1825 119 1631 15 
Q 1438 -88 1222 -88 
Q 981 -88 804 51 
Q 628 191 559 409 
Q 491 628 491 1028 
L 491 2306 
Q 491 2509 447 2587 
Q 403 2666 317 2708 
Q 231 2750 6 2747 
L 6 2863 
L 1009 2863 
L 1009 947 
Q 1009 547 1148 422 
Q 1288 297 1484 297 
Q 1619 297 1789 381 
Q 1959 466 2194 703 
L 2194 2325 
Q 2194 2569 2105 2655 
Q 2016 2741 1734 2747 
L 1734 2863 
L 2709 2863 
z
" id="TimesNewRomanPSMT-75" transform="scale(0.015625)"/>
      <path d="M 3256 -1381 
L -53 -1381 
L -53 -1119 
L 3256 -1119 
L 3256 -1381 
z
" id="TimesNewRomanPSMT-5f" transform="scale(0.015625)"/>
     </defs>
     <use xlink:href="#TimesNewRomanPSMT-41"/>
     <use x="72.216797" xlink:href="#TimesNewRomanPSMT-75"/>
     <use x="122.216797" xlink:href="#TimesNewRomanPSMT-74"/>
     <use x="150" xlink:href="#TimesNewRomanPSMT-6f"/>
     <use x="200" xlink:href="#TimesNewRomanPSMT-5f"/>
     <use x="250" xlink:href="#TimesNewRomanPSMT-30"/>
     <use x="300" xlink:href="#TimesNewRomanPSMT-30"/>
     <use x="350" xlink:href="#TimesNewRomanPSMT-30"/>
     <use x="400" xlink:href="#TimesNewRomanPSMT-34"/>
     <use x="450" xlink:href="#TimesNewRomanPSMT-35"/>
    </g>
    <!-- Vs: 264.41m/s -->
    <g transform="translate(80.076875 325.335018)scale(0.14 -0.14)">
     <defs>
      <path d="M 903 2950 
Q 1047 2950 1148 2848 
Q 1250 2747 1250 2603 
Q 1250 2459 1148 2357 
Q 1047 2256 903 2256 
Q 759 2256 657 2357 
Q 556 2459 556 2603 
Q 556 2747 657 2848 
Q 759 2950 903 2950 
z
M 897 609 
Q 1044 609 1145 506 
Q 1247 403 1247 259 
Q 1247 116 1144 14 
Q 1041 -88 897 -88 
Q 753 -88 651 14 
Q 550 116 550 259 
Q 550 403 651 506 
Q 753 609 897 609 
z
" id="TimesNewRomanPSMT-3a" transform="scale(0.015625)"/>
      <path d="M 1794 4444 
L 259 -88 
L 9 -88 
L 1544 4444 
L 1794 4444 
z
" id="TimesNewRomanPSMT-2f" transform="scale(0.015625)"/>
     </defs>
     <use xlink:href="#TimesNewRomanPSMT-56"/>
     <use x="72.216797" xlink:href="#TimesNewRomanPSMT-73"/>
     <use x="111.132812" xlink:href="#TimesNewRomanPSMT-3a"/>
     <use x="138.916016" xlink:href="#TimesNewRomanPSMT-20"/>
     <use x="163.916016" xlink:href="#TimesNewRomanPSMT-32"/>
     <use x="213.916016" xlink:href="#TimesNewRomanPSMT-36"/>
     <use x="263.916016" xlink:href="#TimesNewRomanPSMT-34"/>
     <use x="313.916016" xlink:href="#TimesNewRomanPSMT-2e"/>
     <use x="338.916016" xlink:href="#TimesNewRomanPSMT-34"/>
     <use x="388.916016" xlink:href="#TimesNewRomanPSMT-31"/>
     <use x="438.916016" xlink:href="#TimesNewRomanPSMT-6d"/>
     <use x="516.699219" xlink:href="#TimesNewRomanPSMT-2f"/>
     <use x="544.482422" xlink:href="#TimesNewRomanPSMT-73"/>
    </g>
   </g>
  </g>
 </g>
 <defs>
  <clipPath id="pff1d1d78ef">
   <rect height="332.64" width="334.8" x="63.336875" y="9.327018"/>
  </clipPath>
 </defs>
</svg>
