<?xml version="1.0" encoding="utf-8" standalone="no"?>
<!DOCTYPE svg PUBLIC "-//W3C//DTD SVG 1.1//EN"
  "http://www.w3.org/Graphics/SVG/1.1/DTD/svg11.dtd">
<svg height="383.471875pt" version="1.1" viewBox="0 0 421.086875 383.471875" width="421.086875pt" xmlns="http://www.w3.org/2000/svg" xmlns:xlink="http://www.w3.org/1999/xlink">
 <metadata>
  <rdf:RDF xmlns:cc="http://creativecommons.org/ns#" xmlns:dc="http://purl.org/dc/elements/1.1/" xmlns:rdf="http://www.w3.org/1999/02/22-rdf-syntax-ns#">
   <cc:Work>
    <dc:type rdf:resource="http://purl.org/dc/dcmitype/StillImage"/>
    <dc:date>2021-06-11T14:39:39.672862</dc:date>
    <dc:format>image/svg+xml</dc:format>
    <dc:creator>
     <cc:Agent>
      <dc:title>Matplotlib v3.4.2, https://matplotlib.org/</dc:title>
     </cc:Agent>
    </dc:creator>
   </cc:Work>
  </rdf:RDF>
 </metadata>
 <defs>
  <style type="text/css">*{stroke-linecap:butt;stroke-linejoin:round;}</style>
 </defs>
 <g id="figure_1">
  <g id="patch_1">
   <path d="M 0 383.471875 
L 421.086875 383.471875 
L 421.086875 0 
L 0 0 
z
" style="fill:#ffffff;"/>
  </g>
  <g id="axes_1">
   <g id="patch_2">
    <path d="M 63.336875 339.84 
L 398.136875 339.84 
L 398.136875 7.2 
L 63.336875 7.2 
z
" style="fill:#ffffff;"/>
   </g>
   <g id="matplotlib.axis_1">
    <g id="xtick_1">
     <g id="line2d_1">
      <path clip-path="url(#p46a083e78b)" d="M 93.773239 339.84 
L 93.773239 7.2 
" style="fill:none;stroke:#000000;stroke-dasharray:0.5,0.825;stroke-dashoffset:0;stroke-width:0.5;"/>
     </g>
     <g id="line2d_2">
      <defs>
       <path d="M 0 0 
L 0 3.5 
" id="m75bf6fb1c7" style="stroke:#000000;stroke-width:0.8;"/>
      </defs>
      <g>
       <use style="stroke:#000000;stroke-width:0.8;" x="93.773239" xlink:href="#m75bf6fb1c7" y="339.84"/>
      </g>
     </g>
     <g id="text_1">
      <!-- 0.000 -->
      <g transform="translate(78.023239 356.56125)scale(0.14 -0.14)">
       <defs>
        <path d="M 231 2094 
Q 231 2819 450 3342 
Q 669 3866 1031 4122 
Q 1313 4325 1613 4325 
Q 2100 4325 2488 3828 
Q 2972 3213 2972 2159 
Q 2972 1422 2759 906 
Q 2547 391 2217 158 
Q 1888 -75 1581 -75 
Q 975 -75 572 641 
Q 231 1244 231 2094 
z
M 844 2016 
Q 844 1141 1059 588 
Q 1238 122 1591 122 
Q 1759 122 1940 273 
Q 2122 425 2216 781 
Q 2359 1319 2359 2297 
Q 2359 3022 2209 3506 
Q 2097 3866 1919 4016 
Q 1791 4119 1609 4119 
Q 1397 4119 1231 3928 
Q 1006 3669 925 3112 
Q 844 2556 844 2016 
z
" id="TimesNewRomanPSMT-30" transform="scale(0.015625)"/>
        <path d="M 800 606 
Q 947 606 1047 504 
Q 1147 403 1147 259 
Q 1147 116 1045 14 
Q 944 -88 800 -88 
Q 656 -88 554 14 
Q 453 116 453 259 
Q 453 406 554 506 
Q 656 606 800 606 
z
" id="TimesNewRomanPSMT-2e" transform="scale(0.015625)"/>
       </defs>
       <use xlink:href="#TimesNewRomanPSMT-30"/>
       <use x="50" xlink:href="#TimesNewRomanPSMT-2e"/>
       <use x="75" xlink:href="#TimesNewRomanPSMT-30"/>
       <use x="125" xlink:href="#TimesNewRomanPSMT-30"/>
       <use x="175" xlink:href="#TimesNewRomanPSMT-30"/>
      </g>
     </g>
    </g>
    <g id="xtick_2">
     <g id="line2d_3">
      <path clip-path="url(#p46a083e78b)" d="M 154.645966 339.84 
L 154.645966 7.2 
" style="fill:none;stroke:#000000;stroke-dasharray:0.5,0.825;stroke-dashoffset:0;stroke-width:0.5;"/>
     </g>
     <g id="line2d_4">
      <g>
       <use style="stroke:#000000;stroke-width:0.8;" x="154.645966" xlink:href="#m75bf6fb1c7" y="339.84"/>
      </g>
     </g>
     <g id="text_2">
      <!-- 0.001 -->
      <g transform="translate(138.895966 356.56125)scale(0.14 -0.14)">
       <defs>
        <path d="M 750 3822 
L 1781 4325 
L 1884 4325 
L 1884 747 
Q 1884 391 1914 303 
Q 1944 216 2037 169 
Q 2131 122 2419 116 
L 2419 0 
L 825 0 
L 825 116 
Q 1125 122 1212 167 
Q 1300 213 1334 289 
Q 1369 366 1369 747 
L 1369 3034 
Q 1369 3497 1338 3628 
Q 1316 3728 1258 3775 
Q 1200 3822 1119 3822 
Q 1003 3822 797 3725 
L 750 3822 
z
" id="TimesNewRomanPSMT-31" transform="scale(0.015625)"/>
       </defs>
       <use xlink:href="#TimesNewRomanPSMT-30"/>
       <use x="50" xlink:href="#TimesNewRomanPSMT-2e"/>
       <use x="75" xlink:href="#TimesNewRomanPSMT-30"/>
       <use x="125" xlink:href="#TimesNewRomanPSMT-30"/>
       <use x="175" xlink:href="#TimesNewRomanPSMT-31"/>
      </g>
     </g>
    </g>
    <g id="xtick_3">
     <g id="line2d_5">
      <path clip-path="url(#p46a083e78b)" d="M 215.518693 339.84 
L 215.518693 7.2 
" style="fill:none;stroke:#000000;stroke-dasharray:0.5,0.825;stroke-dashoffset:0;stroke-width:0.5;"/>
     </g>
     <g id="line2d_6">
      <g>
       <use style="stroke:#000000;stroke-width:0.8;" x="215.518693" xlink:href="#m75bf6fb1c7" y="339.84"/>
      </g>
     </g>
     <g id="text_3">
      <!-- 0.002 -->
      <g transform="translate(199.768693 356.56125)scale(0.14 -0.14)">
       <defs>
        <path d="M 2934 816 
L 2638 0 
L 138 0 
L 138 116 
Q 1241 1122 1691 1759 
Q 2141 2397 2141 2925 
Q 2141 3328 1894 3587 
Q 1647 3847 1303 3847 
Q 991 3847 742 3664 
Q 494 3481 375 3128 
L 259 3128 
Q 338 3706 661 4015 
Q 984 4325 1469 4325 
Q 1984 4325 2329 3994 
Q 2675 3663 2675 3213 
Q 2675 2891 2525 2569 
Q 2294 2063 1775 1497 
Q 997 647 803 472 
L 1909 472 
Q 2247 472 2383 497 
Q 2519 522 2628 598 
Q 2738 675 2819 816 
L 2934 816 
z
" id="TimesNewRomanPSMT-32" transform="scale(0.015625)"/>
       </defs>
       <use xlink:href="#TimesNewRomanPSMT-30"/>
       <use x="50" xlink:href="#TimesNewRomanPSMT-2e"/>
       <use x="75" xlink:href="#TimesNewRomanPSMT-30"/>
       <use x="125" xlink:href="#TimesNewRomanPSMT-30"/>
       <use x="175" xlink:href="#TimesNewRomanPSMT-32"/>
      </g>
     </g>
    </g>
    <g id="xtick_4">
     <g id="line2d_7">
      <path clip-path="url(#p46a083e78b)" d="M 276.39142 339.84 
L 276.39142 7.2 
" style="fill:none;stroke:#000000;stroke-dasharray:0.5,0.825;stroke-dashoffset:0;stroke-width:0.5;"/>
     </g>
     <g id="line2d_8">
      <g>
       <use style="stroke:#000000;stroke-width:0.8;" x="276.39142" xlink:href="#m75bf6fb1c7" y="339.84"/>
      </g>
     </g>
     <g id="text_4">
      <!-- 0.003 -->
      <g transform="translate(260.64142 356.56125)scale(0.14 -0.14)">
       <defs>
        <path d="M 325 3431 
Q 506 3859 782 4092 
Q 1059 4325 1472 4325 
Q 1981 4325 2253 3994 
Q 2459 3747 2459 3466 
Q 2459 3003 1878 2509 
Q 2269 2356 2469 2072 
Q 2669 1788 2669 1403 
Q 2669 853 2319 450 
Q 1863 -75 997 -75 
Q 569 -75 414 31 
Q 259 138 259 259 
Q 259 350 332 419 
Q 406 488 509 488 
Q 588 488 669 463 
Q 722 447 909 348 
Q 1097 250 1169 231 
Q 1284 197 1416 197 
Q 1734 197 1970 444 
Q 2206 691 2206 1028 
Q 2206 1275 2097 1509 
Q 2016 1684 1919 1775 
Q 1784 1900 1550 2001 
Q 1316 2103 1072 2103 
L 972 2103 
L 972 2197 
Q 1219 2228 1467 2375 
Q 1716 2522 1828 2728 
Q 1941 2934 1941 3181 
Q 1941 3503 1739 3701 
Q 1538 3900 1238 3900 
Q 753 3900 428 3381 
L 325 3431 
z
" id="TimesNewRomanPSMT-33" transform="scale(0.015625)"/>
       </defs>
       <use xlink:href="#TimesNewRomanPSMT-30"/>
       <use x="50" xlink:href="#TimesNewRomanPSMT-2e"/>
       <use x="75" xlink:href="#TimesNewRomanPSMT-30"/>
       <use x="125" xlink:href="#TimesNewRomanPSMT-30"/>
       <use x="175" xlink:href="#TimesNewRomanPSMT-33"/>
      </g>
     </g>
    </g>
    <g id="xtick_5">
     <g id="line2d_9">
      <path clip-path="url(#p46a083e78b)" d="M 337.264148 339.84 
L 337.264148 7.2 
" style="fill:none;stroke:#000000;stroke-dasharray:0.5,0.825;stroke-dashoffset:0;stroke-width:0.5;"/>
     </g>
     <g id="line2d_10">
      <g>
       <use style="stroke:#000000;stroke-width:0.8;" x="337.264148" xlink:href="#m75bf6fb1c7" y="339.84"/>
      </g>
     </g>
     <g id="text_5">
      <!-- 0.004 -->
      <g transform="translate(321.514148 356.56125)scale(0.14 -0.14)">
       <defs>
        <path d="M 2978 1563 
L 2978 1119 
L 2409 1119 
L 2409 0 
L 1894 0 
L 1894 1119 
L 100 1119 
L 100 1519 
L 2066 4325 
L 2409 4325 
L 2409 1563 
L 2978 1563 
z
M 1894 1563 
L 1894 3666 
L 406 1563 
L 1894 1563 
z
" id="TimesNewRomanPSMT-34" transform="scale(0.015625)"/>
       </defs>
       <use xlink:href="#TimesNewRomanPSMT-30"/>
       <use x="50" xlink:href="#TimesNewRomanPSMT-2e"/>
       <use x="75" xlink:href="#TimesNewRomanPSMT-30"/>
       <use x="125" xlink:href="#TimesNewRomanPSMT-30"/>
       <use x="175" xlink:href="#TimesNewRomanPSMT-34"/>
      </g>
     </g>
    </g>
    <g id="xtick_6">
     <g id="line2d_11">
      <path clip-path="url(#p46a083e78b)" d="M 398.136875 339.84 
L 398.136875 7.2 
" style="fill:none;stroke:#000000;stroke-dasharray:0.5,0.825;stroke-dashoffset:0;stroke-width:0.5;"/>
     </g>
     <g id="line2d_12">
      <g>
       <use style="stroke:#000000;stroke-width:0.8;" x="398.136875" xlink:href="#m75bf6fb1c7" y="339.84"/>
      </g>
     </g>
     <g id="text_6">
      <!-- 0.005 -->
      <g transform="translate(382.386875 356.56125)scale(0.14 -0.14)">
       <defs>
        <path d="M 2778 4238 
L 2534 3706 
L 1259 3706 
L 981 3138 
Q 1809 3016 2294 2522 
Q 2709 2097 2709 1522 
Q 2709 1188 2573 903 
Q 2438 619 2231 419 
Q 2025 219 1772 97 
Q 1413 -75 1034 -75 
Q 653 -75 479 54 
Q 306 184 306 341 
Q 306 428 378 495 
Q 450 563 559 563 
Q 641 563 702 538 
Q 763 513 909 409 
Q 1144 247 1384 247 
Q 1750 247 2026 523 
Q 2303 800 2303 1197 
Q 2303 1581 2056 1914 
Q 1809 2247 1375 2428 
Q 1034 2569 447 2591 
L 1259 4238 
L 2778 4238 
z
" id="TimesNewRomanPSMT-35" transform="scale(0.015625)"/>
       </defs>
       <use xlink:href="#TimesNewRomanPSMT-30"/>
       <use x="50" xlink:href="#TimesNewRomanPSMT-2e"/>
       <use x="75" xlink:href="#TimesNewRomanPSMT-30"/>
       <use x="125" xlink:href="#TimesNewRomanPSMT-30"/>
       <use x="175" xlink:href="#TimesNewRomanPSMT-35"/>
      </g>
     </g>
    </g>
    <g id="text_7">
     <!-- Time (sec) -->
     <g transform="translate(200.858906 373.277188)scale(0.14 -0.14)">
      <defs>
       <path d="M 3703 4238 
L 3750 3244 
L 3631 3244 
Q 3597 3506 3538 3619 
Q 3441 3800 3280 3886 
Q 3119 3972 2856 3972 
L 2259 3972 
L 2259 734 
Q 2259 344 2344 247 
Q 2463 116 2709 116 
L 2856 116 
L 2856 0 
L 1059 0 
L 1059 116 
L 1209 116 
Q 1478 116 1591 278 
Q 1659 378 1659 734 
L 1659 3972 
L 1150 3972 
Q 853 3972 728 3928 
Q 566 3869 450 3700 
Q 334 3531 313 3244 
L 194 3244 
L 244 4238 
L 3703 4238 
z
" id="TimesNewRomanPSMT-54" transform="scale(0.015625)"/>
       <path d="M 928 4444 
Q 1059 4444 1151 4351 
Q 1244 4259 1244 4128 
Q 1244 3997 1151 3903 
Q 1059 3809 928 3809 
Q 797 3809 703 3903 
Q 609 3997 609 4128 
Q 609 4259 701 4351 
Q 794 4444 928 4444 
z
M 1188 2947 
L 1188 647 
Q 1188 378 1227 289 
Q 1266 200 1342 156 
Q 1419 113 1622 113 
L 1622 0 
L 231 0 
L 231 113 
Q 441 113 512 153 
Q 584 194 626 287 
Q 669 381 669 647 
L 669 1750 
Q 669 2216 641 2353 
Q 619 2453 572 2492 
Q 525 2531 444 2531 
Q 356 2531 231 2484 
L 188 2597 
L 1050 2947 
L 1188 2947 
z
" id="TimesNewRomanPSMT-69" transform="scale(0.015625)"/>
       <path d="M 1050 2338 
Q 1363 2650 1419 2697 
Q 1559 2816 1721 2881 
Q 1884 2947 2044 2947 
Q 2313 2947 2506 2790 
Q 2700 2634 2766 2338 
Q 3088 2713 3309 2830 
Q 3531 2947 3766 2947 
Q 3994 2947 4170 2830 
Q 4347 2713 4450 2447 
Q 4519 2266 4519 1878 
L 4519 647 
Q 4519 378 4559 278 
Q 4591 209 4675 161 
Q 4759 113 4950 113 
L 4950 0 
L 3538 0 
L 3538 113 
L 3597 113 
Q 3781 113 3884 184 
Q 3956 234 3988 344 
Q 4000 397 4000 647 
L 4000 1878 
Q 4000 2228 3916 2372 
Q 3794 2572 3525 2572 
Q 3359 2572 3192 2489 
Q 3025 2406 2788 2181 
L 2781 2147 
L 2788 2013 
L 2788 647 
Q 2788 353 2820 281 
Q 2853 209 2943 161 
Q 3034 113 3253 113 
L 3253 0 
L 1806 0 
L 1806 113 
Q 2044 113 2133 169 
Q 2222 225 2256 338 
Q 2272 391 2272 647 
L 2272 1878 
Q 2272 2228 2169 2381 
Q 2031 2581 1784 2581 
Q 1616 2581 1450 2491 
Q 1191 2353 1050 2181 
L 1050 647 
Q 1050 366 1089 281 
Q 1128 197 1204 155 
Q 1281 113 1516 113 
L 1516 0 
L 100 0 
L 100 113 
Q 297 113 375 155 
Q 453 197 493 289 
Q 534 381 534 647 
L 534 1741 
Q 534 2213 506 2350 
Q 484 2453 437 2492 
Q 391 2531 309 2531 
Q 222 2531 100 2484 
L 53 2597 
L 916 2947 
L 1050 2947 
L 1050 2338 
z
" id="TimesNewRomanPSMT-6d" transform="scale(0.015625)"/>
       <path d="M 681 1784 
Q 678 1147 991 784 
Q 1303 422 1725 422 
Q 2006 422 2214 576 
Q 2422 731 2563 1106 
L 2659 1044 
Q 2594 616 2278 264 
Q 1963 -88 1488 -88 
Q 972 -88 605 314 
Q 238 716 238 1394 
Q 238 2128 614 2539 
Q 991 2950 1559 2950 
Q 2041 2950 2350 2633 
Q 2659 2316 2659 1784 
L 681 1784 
z
M 681 1966 
L 2006 1966 
Q 1991 2241 1941 2353 
Q 1863 2528 1708 2628 
Q 1553 2728 1384 2728 
Q 1125 2728 920 2526 
Q 716 2325 681 1966 
z
" id="TimesNewRomanPSMT-65" transform="scale(0.015625)"/>
       <path id="TimesNewRomanPSMT-20" transform="scale(0.015625)"/>
       <path d="M 1988 -1253 
L 1988 -1369 
Q 1516 -1131 1200 -813 
Q 750 -359 506 256 
Q 263 872 263 1534 
Q 263 2503 741 3301 
Q 1219 4100 1988 4444 
L 1988 4313 
Q 1603 4100 1356 3731 
Q 1109 3363 987 2797 
Q 866 2231 866 1616 
Q 866 947 969 400 
Q 1050 -31 1165 -292 
Q 1281 -553 1476 -793 
Q 1672 -1034 1988 -1253 
z
" id="TimesNewRomanPSMT-28" transform="scale(0.015625)"/>
       <path d="M 2050 2947 
L 2050 1972 
L 1947 1972 
Q 1828 2431 1642 2597 
Q 1456 2763 1169 2763 
Q 950 2763 815 2647 
Q 681 2531 681 2391 
Q 681 2216 781 2091 
Q 878 1963 1175 1819 
L 1631 1597 
Q 2266 1288 2266 781 
Q 2266 391 1970 151 
Q 1675 -88 1309 -88 
Q 1047 -88 709 6 
Q 606 38 541 38 
Q 469 38 428 -44 
L 325 -44 
L 325 978 
L 428 978 
Q 516 541 762 319 
Q 1009 97 1316 97 
Q 1531 97 1667 223 
Q 1803 350 1803 528 
Q 1803 744 1651 891 
Q 1500 1038 1047 1263 
Q 594 1488 453 1669 
Q 313 1847 313 2119 
Q 313 2472 555 2709 
Q 797 2947 1181 2947 
Q 1350 2947 1591 2875 
Q 1750 2828 1803 2828 
Q 1853 2828 1881 2850 
Q 1909 2872 1947 2947 
L 2050 2947 
z
" id="TimesNewRomanPSMT-73" transform="scale(0.015625)"/>
       <path d="M 2631 1088 
Q 2516 522 2178 217 
Q 1841 -88 1431 -88 
Q 944 -88 581 321 
Q 219 731 219 1428 
Q 219 2103 620 2525 
Q 1022 2947 1584 2947 
Q 2006 2947 2278 2723 
Q 2550 2500 2550 2259 
Q 2550 2141 2473 2067 
Q 2397 1994 2259 1994 
Q 2075 1994 1981 2113 
Q 1928 2178 1911 2362 
Q 1894 2547 1784 2644 
Q 1675 2738 1481 2738 
Q 1169 2738 978 2506 
Q 725 2200 725 1697 
Q 725 1184 976 792 
Q 1228 400 1656 400 
Q 1963 400 2206 609 
Q 2378 753 2541 1131 
L 2631 1088 
z
" id="TimesNewRomanPSMT-63" transform="scale(0.015625)"/>
       <path d="M 144 4313 
L 144 4444 
Q 619 4209 934 3891 
Q 1381 3434 1625 2820 
Q 1869 2206 1869 1541 
Q 1869 572 1392 -226 
Q 916 -1025 144 -1369 
L 144 -1253 
Q 528 -1038 776 -670 
Q 1025 -303 1145 264 
Q 1266 831 1266 1447 
Q 1266 2113 1163 2663 
Q 1084 3094 967 3353 
Q 850 3613 656 3853 
Q 463 4094 144 4313 
z
" id="TimesNewRomanPSMT-29" transform="scale(0.015625)"/>
      </defs>
      <use xlink:href="#TimesNewRomanPSMT-54"/>
      <use x="57.583984" xlink:href="#TimesNewRomanPSMT-69"/>
      <use x="85.367188" xlink:href="#TimesNewRomanPSMT-6d"/>
      <use x="163.150391" xlink:href="#TimesNewRomanPSMT-65"/>
      <use x="207.535156" xlink:href="#TimesNewRomanPSMT-20"/>
      <use x="232.535156" xlink:href="#TimesNewRomanPSMT-28"/>
      <use x="265.835938" xlink:href="#TimesNewRomanPSMT-73"/>
      <use x="304.751953" xlink:href="#TimesNewRomanPSMT-65"/>
      <use x="349.136719" xlink:href="#TimesNewRomanPSMT-63"/>
      <use x="393.521484" xlink:href="#TimesNewRomanPSMT-29"/>
     </g>
    </g>
   </g>
   <g id="matplotlib.axis_2">
    <g id="ytick_1">
     <g id="line2d_13">
      <path clip-path="url(#p46a083e78b)" d="M 63.336875 282.504299 
L 398.136875 282.504299 
" style="fill:none;stroke:#000000;stroke-dasharray:0.5,0.825;stroke-dashoffset:0;stroke-width:0.5;"/>
     </g>
     <g id="line2d_14">
      <defs>
       <path d="M 0 0 
L -3.5 0 
" id="m8b654e9f66" style="stroke:#000000;stroke-width:0.8;"/>
      </defs>
      <g>
       <use style="stroke:#000000;stroke-width:0.8;" x="63.336875" xlink:href="#m8b654e9f66" y="282.504299"/>
      </g>
     </g>
     <g id="text_8">
      <!-- −0.04 -->
      <g transform="translate(23.942188 287.364924)scale(0.14 -0.14)">
       <defs>
        <path d="M 3484 2000 
L 116 2000 
L 116 2256 
L 3484 2256 
L 3484 2000 
z
" id="TimesNewRomanPSMT-2212" transform="scale(0.015625)"/>
       </defs>
       <use xlink:href="#TimesNewRomanPSMT-2212"/>
       <use x="56.396484" xlink:href="#TimesNewRomanPSMT-30"/>
       <use x="106.396484" xlink:href="#TimesNewRomanPSMT-2e"/>
       <use x="131.396484" xlink:href="#TimesNewRomanPSMT-30"/>
       <use x="181.396484" xlink:href="#TimesNewRomanPSMT-34"/>
      </g>
     </g>
    </g>
    <g id="ytick_2">
     <g id="line2d_15">
      <path clip-path="url(#p46a083e78b)" d="M 63.336875 217.828453 
L 398.136875 217.828453 
" style="fill:none;stroke:#000000;stroke-dasharray:0.5,0.825;stroke-dashoffset:0;stroke-width:0.5;"/>
     </g>
     <g id="line2d_16">
      <g>
       <use style="stroke:#000000;stroke-width:0.8;" x="63.336875" xlink:href="#m8b654e9f66" y="217.828453"/>
      </g>
     </g>
     <g id="text_9">
      <!-- −0.02 -->
      <g transform="translate(23.942188 222.689078)scale(0.14 -0.14)">
       <use xlink:href="#TimesNewRomanPSMT-2212"/>
       <use x="56.396484" xlink:href="#TimesNewRomanPSMT-30"/>
       <use x="106.396484" xlink:href="#TimesNewRomanPSMT-2e"/>
       <use x="131.396484" xlink:href="#TimesNewRomanPSMT-30"/>
       <use x="181.396484" xlink:href="#TimesNewRomanPSMT-32"/>
      </g>
     </g>
    </g>
    <g id="ytick_3">
     <g id="line2d_17">
      <path clip-path="url(#p46a083e78b)" d="M 63.336875 153.152606 
L 398.136875 153.152606 
" style="fill:none;stroke:#000000;stroke-dasharray:0.5,0.825;stroke-dashoffset:0;stroke-width:0.5;"/>
     </g>
     <g id="line2d_18">
      <g>
       <use style="stroke:#000000;stroke-width:0.8;" x="63.336875" xlink:href="#m8b654e9f66" y="153.152606"/>
      </g>
     </g>
     <g id="text_10">
      <!-- 0.00 -->
      <g transform="translate(31.836875 158.013231)scale(0.14 -0.14)">
       <use xlink:href="#TimesNewRomanPSMT-30"/>
       <use x="50" xlink:href="#TimesNewRomanPSMT-2e"/>
       <use x="75" xlink:href="#TimesNewRomanPSMT-30"/>
       <use x="125" xlink:href="#TimesNewRomanPSMT-30"/>
      </g>
     </g>
    </g>
    <g id="ytick_4">
     <g id="line2d_19">
      <path clip-path="url(#p46a083e78b)" d="M 63.336875 88.476759 
L 398.136875 88.476759 
" style="fill:none;stroke:#000000;stroke-dasharray:0.5,0.825;stroke-dashoffset:0;stroke-width:0.5;"/>
     </g>
     <g id="line2d_20">
      <g>
       <use style="stroke:#000000;stroke-width:0.8;" x="63.336875" xlink:href="#m8b654e9f66" y="88.476759"/>
      </g>
     </g>
     <g id="text_11">
      <!-- 0.02 -->
      <g transform="translate(31.836875 93.337384)scale(0.14 -0.14)">
       <use xlink:href="#TimesNewRomanPSMT-30"/>
       <use x="50" xlink:href="#TimesNewRomanPSMT-2e"/>
       <use x="75" xlink:href="#TimesNewRomanPSMT-30"/>
       <use x="125" xlink:href="#TimesNewRomanPSMT-32"/>
      </g>
     </g>
    </g>
    <g id="ytick_5">
     <g id="line2d_21">
      <path clip-path="url(#p46a083e78b)" d="M 63.336875 23.800912 
L 398.136875 23.800912 
" style="fill:none;stroke:#000000;stroke-dasharray:0.5,0.825;stroke-dashoffset:0;stroke-width:0.5;"/>
     </g>
     <g id="line2d_22">
      <g>
       <use style="stroke:#000000;stroke-width:0.8;" x="63.336875" xlink:href="#m8b654e9f66" y="23.800912"/>
      </g>
     </g>
     <g id="text_12">
      <!-- 0.04 -->
      <g transform="translate(31.836875 28.661537)scale(0.14 -0.14)">
       <use xlink:href="#TimesNewRomanPSMT-30"/>
       <use x="50" xlink:href="#TimesNewRomanPSMT-2e"/>
       <use x="75" xlink:href="#TimesNewRomanPSMT-30"/>
       <use x="125" xlink:href="#TimesNewRomanPSMT-34"/>
      </g>
     </g>
    </g>
    <g id="text_13">
     <!-- Volatage (V) -->
     <g transform="translate(16.92125 209.352344)rotate(-90)scale(0.14 -0.14)">
      <defs>
       <path d="M 4544 4238 
L 4544 4122 
Q 4319 4081 4203 3978 
Q 4038 3825 3909 3509 
L 2431 -97 
L 2316 -97 
L 728 3556 
Q 606 3838 556 3900 
Q 478 3997 364 4051 
Q 250 4106 56 4122 
L 56 4238 
L 1788 4238 
L 1788 4122 
Q 1494 4094 1406 4022 
Q 1319 3950 1319 3838 
Q 1319 3681 1463 3350 
L 2541 866 
L 3541 3319 
Q 3688 3681 3688 3822 
Q 3688 3913 3597 3995 
Q 3506 4078 3291 4113 
Q 3275 4116 3238 4122 
L 3238 4238 
L 4544 4238 
z
" id="TimesNewRomanPSMT-56" transform="scale(0.015625)"/>
       <path d="M 1600 2947 
Q 2250 2947 2644 2453 
Q 2978 2031 2978 1484 
Q 2978 1100 2793 706 
Q 2609 313 2286 112 
Q 1963 -88 1566 -88 
Q 919 -88 538 428 
Q 216 863 216 1403 
Q 216 1797 411 2186 
Q 606 2575 925 2761 
Q 1244 2947 1600 2947 
z
M 1503 2744 
Q 1338 2744 1170 2645 
Q 1003 2547 900 2300 
Q 797 2053 797 1666 
Q 797 1041 1045 587 
Q 1294 134 1700 134 
Q 2003 134 2200 384 
Q 2397 634 2397 1244 
Q 2397 2006 2069 2444 
Q 1847 2744 1503 2744 
z
" id="TimesNewRomanPSMT-6f" transform="scale(0.015625)"/>
       <path d="M 1184 4444 
L 1184 647 
Q 1184 378 1223 290 
Q 1263 203 1344 158 
Q 1425 113 1647 113 
L 1647 0 
L 244 0 
L 244 113 
Q 441 113 512 153 
Q 584 194 625 287 
Q 666 381 666 647 
L 666 3247 
Q 666 3731 644 3842 
Q 622 3953 573 3993 
Q 525 4034 450 4034 
Q 369 4034 244 3984 
L 191 4094 
L 1044 4444 
L 1184 4444 
z
" id="TimesNewRomanPSMT-6c" transform="scale(0.015625)"/>
       <path d="M 1822 413 
Q 1381 72 1269 19 
Q 1100 -59 909 -59 
Q 613 -59 420 144 
Q 228 347 228 678 
Q 228 888 322 1041 
Q 450 1253 767 1440 
Q 1084 1628 1822 1897 
L 1822 2009 
Q 1822 2438 1686 2597 
Q 1550 2756 1291 2756 
Q 1094 2756 978 2650 
Q 859 2544 859 2406 
L 866 2225 
Q 866 2081 792 2003 
Q 719 1925 600 1925 
Q 484 1925 411 2006 
Q 338 2088 338 2228 
Q 338 2497 613 2722 
Q 888 2947 1384 2947 
Q 1766 2947 2009 2819 
Q 2194 2722 2281 2516 
Q 2338 2381 2338 1966 
L 2338 994 
Q 2338 584 2353 492 
Q 2369 400 2405 369 
Q 2441 338 2488 338 
Q 2538 338 2575 359 
Q 2641 400 2828 588 
L 2828 413 
Q 2478 -56 2159 -56 
Q 2006 -56 1915 50 
Q 1825 156 1822 413 
z
M 1822 616 
L 1822 1706 
Q 1350 1519 1213 1441 
Q 966 1303 859 1153 
Q 753 1003 753 825 
Q 753 600 887 451 
Q 1022 303 1197 303 
Q 1434 303 1822 616 
z
" id="TimesNewRomanPSMT-61" transform="scale(0.015625)"/>
       <path d="M 1031 3803 
L 1031 2863 
L 1700 2863 
L 1700 2644 
L 1031 2644 
L 1031 788 
Q 1031 509 1111 412 
Q 1191 316 1316 316 
Q 1419 316 1516 380 
Q 1613 444 1666 569 
L 1788 569 
Q 1678 263 1478 108 
Q 1278 -47 1066 -47 
Q 922 -47 784 33 
Q 647 113 581 261 
Q 516 409 516 719 
L 516 2644 
L 63 2644 
L 63 2747 
Q 234 2816 414 2980 
Q 594 3144 734 3369 
Q 806 3488 934 3803 
L 1031 3803 
z
" id="TimesNewRomanPSMT-74" transform="scale(0.015625)"/>
       <path d="M 966 1044 
Q 703 1172 562 1401 
Q 422 1631 422 1909 
Q 422 2334 742 2640 
Q 1063 2947 1563 2947 
Q 1972 2947 2272 2747 
L 2878 2747 
Q 3013 2747 3034 2739 
Q 3056 2731 3066 2713 
Q 3084 2684 3084 2613 
Q 3084 2531 3069 2500 
Q 3059 2484 3036 2475 
Q 3013 2466 2878 2466 
L 2506 2466 
Q 2681 2241 2681 1891 
Q 2681 1491 2375 1206 
Q 2069 922 1553 922 
Q 1341 922 1119 984 
Q 981 866 932 777 
Q 884 688 884 625 
Q 884 572 936 522 
Q 988 472 1138 450 
Q 1225 438 1575 428 
Q 2219 413 2409 384 
Q 2700 344 2873 169 
Q 3047 -6 3047 -263 
Q 3047 -616 2716 -925 
Q 2228 -1381 1444 -1381 
Q 841 -1381 425 -1109 
Q 191 -953 191 -784 
Q 191 -709 225 -634 
Q 278 -519 444 -313 
Q 466 -284 763 25 
Q 600 122 533 198 
Q 466 275 466 372 
Q 466 481 555 628 
Q 644 775 966 1044 
z
M 1509 2797 
Q 1278 2797 1122 2612 
Q 966 2428 966 2047 
Q 966 1553 1178 1281 
Q 1341 1075 1591 1075 
Q 1828 1075 1981 1253 
Q 2134 1431 2134 1813 
Q 2134 2309 1919 2591 
Q 1759 2797 1509 2797 
z
M 934 0 
Q 788 -159 713 -296 
Q 638 -434 638 -550 
Q 638 -700 819 -813 
Q 1131 -1006 1722 -1006 
Q 2284 -1006 2551 -807 
Q 2819 -609 2819 -384 
Q 2819 -222 2659 -153 
Q 2497 -84 2016 -72 
Q 1313 -53 934 0 
z
" id="TimesNewRomanPSMT-67" transform="scale(0.015625)"/>
      </defs>
      <use xlink:href="#TimesNewRomanPSMT-56"/>
      <use x="59.341797" xlink:href="#TimesNewRomanPSMT-6f"/>
      <use x="109.341797" xlink:href="#TimesNewRomanPSMT-6c"/>
      <use x="137.125" xlink:href="#TimesNewRomanPSMT-61"/>
      <use x="181.509766" xlink:href="#TimesNewRomanPSMT-74"/>
      <use x="209.292969" xlink:href="#TimesNewRomanPSMT-61"/>
      <use x="253.677734" xlink:href="#TimesNewRomanPSMT-67"/>
      <use x="303.677734" xlink:href="#TimesNewRomanPSMT-65"/>
      <use x="348.0625" xlink:href="#TimesNewRomanPSMT-20"/>
      <use x="373.0625" xlink:href="#TimesNewRomanPSMT-28"/>
      <use x="406.363281" xlink:href="#TimesNewRomanPSMT-56"/>
      <use x="478.580078" xlink:href="#TimesNewRomanPSMT-29"/>
     </g>
    </g>
   </g>
   <g id="LineCollection_1">
    <path clip-path="url(#p46a083e78b)" d="M 78.555057 153.152606 
L 382.918693 153.152606 
" style="fill:none;stroke:#1f77b4;stroke-width:1.5;"/>
   </g>
   <g id="line2d_23">
    <path clip-path="url(#p46a083e78b)" d="M 78.555057 153.086475 
L 78.676802 153.167319 
L 78.707239 153.126897 
L 86.042402 153.167319 
L 86.072839 153.248164 
L 86.133711 153.167319 
L 86.255457 153.126897 
L 86.377202 153.207742 
L 86.407639 153.167319 
L 86.498948 153.126897 
L 86.529384 153.167319 
L 86.55982 153.248164 
L 86.620693 153.126897 
L 86.803311 153.207742 
L 86.925057 153.167319 
L 87.046802 153.207742 
L 87.138111 153.167319 
L 87.168548 153.207742 
L 89.603457 153.248164 
L 89.633893 153.329009 
L 89.725202 153.288587 
L 89.846948 153.288587 
L 90.029566 153.207742 
L 90.181748 153.288587 
L 90.303493 153.248164 
L 90.364366 153.329009 
L 90.425239 153.248164 
L 95.477675 153.329009 
L 95.538548 153.248164 
L 95.568984 153.329009 
L 95.721166 153.288587 
L 102.63022 153.369431 
L 102.782402 153.409854 
L 102.934584 153.369431 
L 103.665057 153.450276 
L 103.695493 153.490699 
L 103.756366 153.409854 
L 107.98702 153.490699 
L 108.07833 153.490699 
L 108.200075 153.450276 
L 108.352257 153.490699 
L 109.934948 153.531121 
L 109.965384 153.611966 
L 110.056693 153.571543 
L 110.178439 153.571543 
L 111.33502 153.611966 
L 111.456766 153.692811 
L 111.487202 153.611966 
L 111.578511 153.652388 
L 112.308984 153.692811 
L 112.461166 153.814078 
L 113.282948 153.894923 
L 113.43513 153.935345 
L 113.739493 154.01619 
L 113.861239 154.056612 
L 113.982984 154.056612 
L 114.135166 154.097035 
L 114.256911 154.097035 
L 114.43953 154.17788 
L 114.469966 154.258724 
L 114.530839 154.137457 
L 114.561275 154.218302 
L 114.713457 154.258724 
L 114.926511 154.299147 
L 114.987384 154.420414 
L 115.048257 154.339569 
L 115.200439 154.420414 
L 115.291748 154.420414 
L 115.413493 154.460836 
L 115.44393 154.420414 
L 115.504802 154.501259 
L 115.900475 154.582104 
L 116.083093 154.662948 
L 116.387457 154.703371 
L 116.509202 154.784216 
L 116.630948 154.784216 
L 117.057057 154.86506 
L 117.209239 154.945905 
L 117.300548 154.945905 
L 117.45273 154.986328 
L 118.03102 155.067172 
L 118.183202 155.148017 
L 118.304948 155.148017 
L 118.578875 155.228862 
L 118.761493 155.309707 
L 119.03542 155.350129 
L 119.187602 155.471396 
L 119.46153 155.552241 
L 119.644148 155.673509 
L 119.70502 155.754353 
L 119.735457 155.673509 
L 119.887639 155.794776 
L 120.13113 155.956465 
L 120.222439 156.03731 
L 120.435493 156.158577 
L 120.46593 156.118155 
L 120.496366 156.199 
L 120.892039 156.603224 
L 120.922475 156.562801 
L 120.952911 156.684069 
L 121.074657 156.764913 
L 122.018184 158.139275 
L 122.261675 158.664767 
L 122.505166 159.109413 
L 122.80953 159.877439 
L 123.935675 163.151653 
L 124.787893 166.102489 
L 125.031384 167.032204 
L 126.370584 172.812607 
L 127.801093 179.846106 
L 128.379384 182.594829 
L 129.231602 186.556226 
L 130.905602 192.781276 
L 132.031748 195.489577 
L 132.09262 195.529999 
L 132.244802 195.691689 
L 132.275239 195.651266 
L 132.336111 195.732111 
L 132.457857 195.812956 
L 132.610039 195.853378 
L 132.640475 195.934223 
L 132.701348 195.853378 
L 133.066584 195.772534 
L 133.76662 194.721551 
L 134.040548 194.03437 
L 134.10142 193.953525 
L 134.284039 193.549301 
L 135.044948 191.285647 
L 135.379748 190.032552 
L 135.562366 189.304949 
L 136.718948 182.635252 
L 138.758184 165.496153 
L 139.610402 156.562801 
L 141.22353 135.987797 
L 142.623602 115.938285 
L 146.519457 60.600014 
L 148.284766 40.793032 
L 149.380475 31.617153 
L 150.050075 27.170685 
L 150.202257 26.483498 
L 150.719675 24.219856 
L 150.810984 23.936886 
L 151.145784 23.047603 
L 151.17622 23.047603 
L 151.358839 22.683802 
L 151.480584 22.643373 
L 151.663202 22.441264 
L 151.693639 22.481693 
L 151.754511 22.400845 
L 152.424111 22.481693 
L 152.94153 23.33056 
L 153.550257 25.189984 
L 154.585093 31.172507 
L 156.411275 49.079625 
L 158.694002 84.004586 
L 161.585457 143.789322 
L 166.850948 260.16543 
L 169.072802 296.707274 
L 170.442439 311.825256 
L 171.051166 316.554681 
L 171.416402 319.060863 
L 171.812075 321.405366 
L 172.02513 322.254233 
L 172.512111 323.749869 
L 172.93822 324.598736 
L 173.090402 324.72 
L 173.120839 324.679581 
L 173.333893 324.639152 
L 173.638257 324.11367 
L 173.668693 324.11367 
L 173.881748 323.628595 
L 173.94262 323.547747 
L 174.155675 323.143529 
L 175.434002 317.646086 
L 175.95142 314.412287 
L 176.560148 309.642446 
L 178.538511 290.320534 
L 181.673457 247.230251 
L 187.973784 148.559165 
L 189.069493 134.128367 
L 193.02622 88.006404 
L 193.300148 85.459792 
L 196.769893 58.700157 
L 197.956911 51.504976 
L 199.661348 45.118236 
L 199.752657 44.835279 
L 200.48313 42.329084 
L 200.848366 41.682328 
L 201.274475 40.833461 
L 201.48753 40.429231 
L 201.700584 40.02501 
L 201.791893 40.065429 
L 201.913639 39.984581 
L 202.218002 40.02501 
L 202.339748 40.105858 
L 202.49193 40.065429 
L 202.522366 40.105858 
L 202.583239 40.02501 
L 202.704984 39.944165 
L 202.73542 39.984581 
L 203.222402 40.065429 
L 203.648511 40.46966 
L 203.73982 40.46966 
L 203.892002 40.550504 
L 203.922439 40.510075 
L 203.952875 40.550504 
L 203.983311 40.631352 
L 204.07462 40.590924 
L 204.287675 40.631352 
L 204.439857 40.873877 
L 204.531166 40.954725 
L 205.018148 41.965282 
L 205.50513 42.773733 
L 206.75302 45.80541 
L 206.966075 46.25006 
L 207.574802 48.109497 
L 207.818293 48.837088 
L 208.487893 50.898637 
L 210.009711 57.366221 
L 210.314075 58.983114 
L 211.348911 63.550852 
L 213.022911 72.928844 
L 213.418584 75.596726 
L 215.518693 93.140046 
L 216.188293 99.93101 
L 216.583966 103.932831 
L 219.505857 136.149487 
L 222.397311 172.004159 
L 223.736511 189.99213 
L 225.775748 215.660356 
L 227.93673 242.90506 
L 230.18902 265.662874 
L 231.19342 272.777217 
L 232.53262 279.366066 
L 232.715239 280.134085 
L 233.384839 282.397743 
L 234.419675 283.610421 
L 234.54142 283.529576 
L 235.150148 282.599864 
L 235.363202 282.155215 
L 235.424075 282.07437 
L 235.667566 281.589291 
L 236.032802 280.376622 
L 237.463311 272.211303 
L 237.950293 268.29033 
L 240.56782 243.066747 
L 241.085239 237.043808 
L 241.541784 231.142141 
L 242.120075 223.583148 
L 242.941857 212.466987 
L 246.320293 166.142912 
L 249.911784 115.251104 
L 251.311857 99.648056 
L 251.464039 98.354539 
L 252.072766 93.018782 
L 253.138039 85.41937 
L 253.929384 80.892061 
L 255.63382 74.505321 
L 255.755566 74.181941 
L 256.546911 72.282088 
L 256.577348 72.362933 
L 256.63822 72.241666 
L 256.912148 72.039554 
L 257.125202 71.958709 
L 257.277384 71.918287 
L 257.368693 71.918287 
L 257.551311 71.837439 
L 257.764366 71.958709 
L 257.916548 72.039554 
L 258.373093 72.52462 
L 258.40353 72.484204 
L 258.464402 72.565042 
L 258.73833 72.605468 
L 258.890511 72.726735 
L 258.920948 72.686313 
L 258.98182 72.767157 
L 259.620984 73.454338 
L 259.74273 73.535186 
L 260.107966 73.858565 
L 260.138402 73.858565 
L 260.32102 74.141519 
L 260.65582 74.788278 
L 260.716693 74.869122 
L 260.99062 75.39461 
L 262.268948 79.073052 
L 263.577711 84.732189 
L 265.495202 95.484549 
L 267.44313 109.147321 
L 267.899675 112.82576 
L 268.508402 117.555181 
L 269.208439 123.052629 
L 271.308548 138.898211 
L 271.947711 143.870166 
L 273.104293 152.197182 
L 274.169566 158.543499 
L 275.265275 163.798411 
L 275.447893 164.526015 
L 275.934875 166.547136 
L 276.239239 167.598118 
L 276.543602 168.689523 
L 276.939275 170.023462 
L 277.48713 171.761625 
L 278.339348 174.308238 
L 278.643711 175.076263 
L 279.252439 176.410202 
L 279.83073 177.339917 
L 280.104657 177.824986 
L 280.16553 177.905831 
L 280.713384 178.471745 
L 280.865566 178.55259 
L 281.07862 178.835547 
L 281.139493 178.916391 
L 281.74822 179.563149 
L 281.809093 179.522727 
L 281.83953 179.563149 
L 281.991711 179.603572 
L 282.143893 179.643995 
L 282.296075 179.765261 
L 282.41782 179.765261 
L 282.539566 179.846106 
L 282.661311 179.886529 
L 282.783057 179.846106 
L 282.813493 179.92695 
L 282.904802 179.886529 
L 282.935239 179.92695 
L 282.996111 179.846106 
L 283.239602 179.765261 
L 283.42222 179.603572 
L 283.452657 179.684417 
L 283.483093 179.563149 
L 283.51353 179.603572 
L 283.75702 179.441883 
L 283.909202 179.40146 
L 284.061384 179.199348 
L 284.213566 179.118502 
L 284.457057 178.754702 
L 284.51793 178.795124 
L 284.548366 178.714279 
L 284.609239 178.633434 
L 286.039748 176.571892 
L 286.374548 175.965555 
L 286.404984 175.965555 
L 286.648475 175.399641 
L 287.013711 174.752884 
L 287.43982 173.904013 
L 287.744184 173.338099 
L 288.078984 172.731763 
L 289.20513 171.397823 
L 289.44862 171.316979 
L 289.600802 171.276557 
L 289.692111 171.276557 
L 289.87473 171.195712 
L 290.392148 171.236134 
L 290.574766 171.438247 
L 291.761784 173.176409 
L 295.353275 182.999054 
L 295.718511 184.009613 
L 296.601166 186.111578 
L 296.631602 186.111578 
L 296.844657 186.515803 
L 297.270766 187.243406 
L 297.544693 187.728475 
L 297.605566 187.80932 
L 298.062111 188.294389 
L 298.122984 188.253966 
L 298.15342 188.334811 
L 298.305602 188.415656 
L 298.82302 188.941147 
L 299.066511 189.021992 
L 299.218693 189.062414 
L 299.431748 188.941147 
L 299.523057 188.98157 
L 299.553493 188.941147 
L 299.91873 189.021992 
L 300.070911 189.143259 
L 300.101348 189.102837 
L 300.25353 189.062414 
L 300.375275 188.98157 
L 300.862257 188.496501 
L 300.953566 188.456078 
L 301.105748 188.334811 
L 301.318802 188.253966 
L 304.058075 184.454261 
L 306.249493 178.3909 
L 306.645166 176.854848 
L 306.85822 176.0464 
L 307.984366 170.629798 
L 308.471348 168.244877 
L 310.571457 156.562801 
L 311.119311 153.086475 
L 315.410839 125.27586 
L 315.623893 123.982345 
L 316.689166 118.848698 
L 316.841348 118.20194 
L 317.267457 116.463776 
L 317.815311 114.766035 
L 318.210984 113.229984 
L 318.697966 111.65351 
L 319.093639 110.481261 
L 319.184948 110.198304 
L 319.702366 108.581408 
L 320.798075 105.953951 
L 321.132875 105.347615 
L 321.406802 104.902969 
L 321.467675 104.902969 
L 321.619857 104.700857 
L 324.26782 101.305378 
L 324.298257 101.345794 
L 324.35913 101.264956 
L 324.480875 101.184108 
L 324.846111 100.820306 
L 324.876548 100.860728 
L 324.93742 100.779883 
L 325.120039 100.739461 
L 325.241784 100.658613 
L 325.302657 100.739461 
L 325.36353 100.699039 
L 325.637457 100.901154 
L 325.728766 100.941576 
L 325.880948 101.103263 
L 325.911384 101.06284 
L 325.94182 101.184108 
L 326.063566 101.264956 
L 326.27662 101.547909 
L 326.337493 101.628757 
L 326.733166 102.396776 
L 326.885348 102.760578 
L 327.646257 104.539164 
L 327.676693 104.539164 
L 327.95062 105.468882 
L 328.528911 107.247468 
L 328.894148 108.62183 
L 329.746366 112.461958 
L 330.233348 115.048992 
L 330.324657 115.453216 
L 330.72033 117.757293 
L 330.994257 119.293345 
L 331.359493 121.354887 
L 333.429166 132.915695 
L 334.40313 138.655676 
L 334.64662 140.030038 
L 335.103166 142.819184 
L 335.437966 144.557347 
L 335.955384 147.265648 
L 337.538075 155.148017 
L 337.690257 155.794776 
L 337.99462 157.330827 
L 338.542475 159.917861 
L 338.968584 162.019826 
L 339.912111 166.223756 
L 340.33822 167.921497 
L 340.76433 169.336281 
L 341.494802 171.84247 
L 341.586111 172.125427 
L 343.716657 177.501607 
L 343.960148 177.946254 
L 344.173202 178.350477 
L 345.268911 179.643995 
L 345.390657 179.72484 
L 345.664584 180.007795 
L 345.69502 179.967373 
L 345.816766 180.048218 
L 346.212439 180.41202 
L 346.36462 180.492865 
L 346.821166 180.937513 
L 346.912475 181.018356 
L 347.399457 181.503424 
L 347.429893 181.463004 
L 347.46033 181.543847 
L 347.70382 181.705536 
L 347.79513 181.705536 
L 347.977748 181.826806 
L 348.099493 181.826806 
L 348.312548 181.948072 
L 348.556039 181.867226 
L 348.677784 181.867226 
L 348.860402 181.786383 
L 349.012584 181.705536 
L 349.13433 181.705536 
L 349.316948 181.624693 
L 349.621311 181.543847 
L 349.834366 181.422581 
L 350.04742 181.341735 
L 350.290911 181.180045 
L 350.443093 181.139622 
L 350.47353 181.058779 
L 350.564839 181.099202 
L 350.747457 181.018356 
L 350.960511 180.977933 
L 351.082257 180.89709 
L 351.14313 180.856666 
L 351.295311 180.7354 
L 351.81273 180.209908 
L 351.873602 180.129063 
L 354.15633 176.976116 
L 354.308511 176.774004 
L 355.312911 175.601754 
L 355.343348 175.642177 
L 355.373784 175.561331 
L 355.769457 175.19753 
L 355.799893 175.237952 
L 355.83033 175.116684 
L 355.860766 175.157107 
L 356.104257 174.995418 
L 356.226002 174.914573 
L 356.469493 174.752884 
L 356.621675 174.712461 
L 356.773857 174.591193 
L 356.956475 174.510349 
L 357.230402 174.308238 
L 357.321711 174.308238 
L 357.473893 174.267814 
L 357.717384 174.18697 
L 357.991311 173.984857 
L 358.17393 173.904013 
L 358.326111 173.742324 
L 358.447857 173.7019 
L 358.600039 173.540211 
L 358.721784 173.540211 
L 359.08702 173.216832 
L 359.147893 173.257254 
L 359.17833 173.216832 
L 359.665311 172.731763 
L 359.695748 172.772186 
L 359.726184 172.731763 
L 359.878366 172.610497 
L 360.18273 172.367961 
L 360.334911 172.327539 
L 360.51753 172.085005 
L 360.608839 172.004159 
L 361.795857 170.265996 
L 362.282839 169.255436 
L 362.313275 169.255436 
L 362.52633 168.81079 
L 362.830693 168.244877 
L 363.43942 166.910937 
L 363.652475 166.506713 
L 363.835093 166.102489 
L 364.048148 165.657843 
L 364.44382 164.889817 
L 364.717748 164.404748 
L 364.900366 164.081369 
L 367.061348 161.373068 
L 367.12222 161.292223 
L 367.578766 160.847576 
L 367.700511 160.766731 
L 368.035311 160.483775 
L 368.339675 160.40293 
L 368.613602 160.200817 
L 368.735348 160.119973 
L 369.009275 159.917861 
L 369.161457 159.837016 
L 369.313639 159.715749 
L 369.46582 159.675327 
L 369.709311 159.594482 
L 370.013675 159.351947 
L 370.104984 159.271102 
L 370.257166 159.109413 
L 370.409348 159.028568 
L 370.591966 158.826456 
L 370.622402 158.866878 
L 370.652839 158.826456 
L 370.835457 158.583922 
L 370.957202 158.503077 
L 371.870293 157.452094 
L 371.961602 157.371249 
L 372.966002 156.199 
L 373.026875 156.118155 
L 374.57913 153.894923 
L 374.91393 153.288587 
L 374.974802 153.207742 
L 375.187857 152.763095 
L 375.431348 152.237604 
L 376.16182 150.580286 
L 376.405311 150.095217 
L 377.866257 146.497622 
L 377.988002 146.174244 
L 378.961966 143.870166 
L 379.144584 143.465942 
L 382.918693 133.198652 
L 382.918693 133.198652 
" style="fill:none;stroke:#0000ff;stroke-linecap:square;stroke-width:1.5;"/>
   </g>
   <g id="line2d_24">
    <path clip-path="url(#p46a083e78b)" d="M 78.555057 153.082351 
L 78.768111 153.102563 
L 82.146548 153.183408 
L 82.29873 153.203619 
L 82.54222 153.163196 
L 99.586584 153.264252 
L 99.921384 153.365308 
L 100.256184 153.425942 
L 100.438802 153.547209 
L 100.651857 153.648265 
L 101.595384 154.39608 
L 101.899748 154.759881 
L 102.660657 155.952342 
L 103.421566 157.690506 
L 103.573748 158.054308 
L 104.06073 159.549936 
L 105.339057 164.158091 
L 105.97822 166.967447 
L 106.282584 168.321598 
L 106.891311 171.292645 
L 110.208875 186.228722 
L 111.913311 190.452864 
L 112.400293 191.180468 
L 113.161202 191.56448 
L 113.465566 191.463424 
L 113.800366 191.200679 
L 114.074293 190.897511 
L 114.500402 190.149696 
L 114.865639 189.179559 
L 116.11353 184.652249 
L 117.422293 177.113471 
L 118.487566 169.311947 
L 120.739857 150.475106 
L 122.04862 138.227118 
L 123.753057 122.361323 
L 125.122693 110.659038 
L 125.82273 105.970039 
L 126.705384 100.836397 
L 127.861966 95.278313 
L 128.531566 92.650857 
L 128.866366 91.478604 
L 129.383784 89.861711 
L 130.022948 88.830937 
L 130.41862 88.487349 
L 131.17953 88.083125 
L 131.575202 88.224604 
L 131.879566 88.123548 
L 132.640475 87.739532 
L 132.823093 87.840594 
L 133.127457 88.103333 
L 133.218766 88.143756 
L 133.797057 88.406505 
L 133.888366 88.467135 
L 134.162293 88.770306 
L 135.044948 89.760655 
L 135.805857 90.366991 
L 136.292839 91.094595 
L 137.084184 91.741353 
L 138.392948 94.55071 
L 140.614802 105.383914 
L 143.14102 121.10823 
L 144.541093 132.244603 
L 146.976002 150.818697 
L 150.963166 184.288447 
L 153.61113 201.185013 
L 154.432911 204.479439 
L 154.828584 205.833589 
L 155.437311 207.470696 
L 156.563457 208.804636 
L 157.446111 208.70358 
L 158.20702 208.077033 
L 158.54182 207.450489 
L 158.87662 206.722885 
L 160.946293 202.357262 
L 162.072439 198.981992 
L 162.407239 198.072487 
L 162.802911 196.718337 
L 164.507348 189.482727 
L 166.363966 181.378036 
L 167.642293 176.729457 
L 168.159711 175.658264 
L 169.194548 174.465804 
L 169.407602 174.445592 
L 169.772839 174.546648 
L 169.985893 174.647705 
L 170.533748 175.112563 
L 171.26422 176.810303 
L 172.177311 179.518604 
L 173.120839 183.722533 
L 174.186111 189.19977 
L 175.464439 196.556647 
L 176.590584 203.974159 
L 178.29502 215.979616 
L 178.903748 220.284599 
L 179.63422 224.407681 
L 180.151639 226.853239 
L 180.63862 228.36908 
L 181.856075 231.319915 
L 182.038693 231.562449 
L 182.708293 232.269842 
L 183.012657 232.35069 
L 183.195275 232.249627 
L 183.98662 230.491256 
L 184.41273 229.036049 
L 185.021457 226.186266 
L 185.508439 223.053537 
L 186.238911 216.969958 
L 187.42593 204.034792 
L 188.978184 183.095987 
L 190.804366 153.547209 
L 192.69142 120.461471 
L 193.78713 102.837306 
L 195.248075 81.271954 
L 196.191602 70.196212 
L 198.71782 47.721348 
L 200.178766 38.727367 
L 201.304911 33.997942 
L 201.578839 33.432032 
L 202.40062 32.522534 
L 202.948475 32.62358 
L 203.191966 32.90655 
L 204.40942 34.705344 
L 204.83553 36.140336 
L 205.231202 37.817866 
L 205.900802 41.940951 
L 208.76182 63.627574 
L 209.644475 70.84297 
L 210.709748 79.432728 
L 212.840293 96.89521 
L 215.092584 114.155576 
L 219.688475 149.888982 
L 221.210293 160.196695 
L 223.949566 177.679385 
L 224.314802 179.841983 
L 225.136584 185.076685 
L 227.297566 195.970522 
L 227.723675 197.769319 
L 228.84982 201.81156 
L 229.732475 204.358171 
L 230.158584 205.186831 
L 230.676002 206.055912 
L 231.19342 206.844149 
L 231.376039 207.066472 
L 231.741275 207.551541 
L 232.28913 208.461049 
L 233.080475 209.794985 
L 233.597893 210.664066 
L 236.519784 216.242355 
L 237.88942 217.879466 
L 238.954693 218.506013 
L 239.137311 218.445382 
L 239.685166 218.34432 
L 239.959093 218.263482 
L 240.111275 218.243267 
L 240.963493 218.303904 
L 241.085239 218.364534 
L 241.23742 218.384742 
L 241.602657 218.506013 
L 242.028766 218.607069 
L 242.302693 218.667706 
L 242.637493 218.768762 
L 243.702766 219.597418 
L 244.494111 220.830301 
L 247.142075 225.862887 
L 248.237784 227.136196 
L 248.420402 227.217041 
L 248.633457 227.318097 
L 248.816075 227.338311 
L 249.181311 227.217041 
L 249.485675 227.136196 
L 249.759602 226.954295 
L 249.911784 226.853239 
L 251.342293 224.771482 
L 251.920584 223.376913 
L 252.833675 219.961219 
L 253.655457 215.636022 
L 254.325057 211.553356 
L 254.72073 208.925903 
L 257.429566 184.611826 
L 259.07313 165.977099 
L 259.98622 154.416291 
L 264.33862 95.258099 
L 265.495202 81.332584 
L 267.625748 58.493925 
L 268.751893 49.722264 
L 269.512802 44.952423 
L 270.12153 42.304753 
L 270.547639 41.03145 
L 271.36942 39.576244 
L 271.491166 39.535815 
L 272.37382 39.636877 
L 272.647748 39.940045 
L 273.46953 41.819687 
L 274.078257 43.739745 
L 274.656548 46.468263 
L 275.204402 49.702049 
L 275.752257 53.178376 
L 276.543602 59.140681 
L 277.274075 64.90088 
L 278.82633 79.250827 
L 284.609239 139.520635 
L 290.057348 189.139136 
L 292.431384 205.712319 
L 294.105384 214.039337 
L 294.531493 215.292428 
L 295.56633 217.737987 
L 296.083748 218.526221 
L 297.362075 220.042067 
L 297.757748 220.183543 
L 298.396911 220.102698 
L 298.792584 219.759104 
L 299.005639 219.516573 
L 299.279566 219.172986 
L 299.370875 219.092138 
L 300.131784 217.89968 
L 301.714475 213.392579 
L 303.449348 206.035704 
L 304.088511 202.054094 
L 304.879857 196.09179 
L 305.51902 191.180468 
L 306.706039 181.883315 
L 307.558257 175.496574 
L 309.53662 161.854013 
L 312.580257 148.231663 
L 313.402039 145.119138 
L 315.623893 136.691067 
L 316.32393 134.528468 
L 317.267457 131.779745 
L 318.089239 129.293766 
L 318.66753 127.757715 
L 319.215384 126.464198 
L 319.611057 125.332372 
L 322.959057 116.74261 
L 323.293857 116.116063 
L 324.237384 113.993887 
L 324.754802 112.902482 
L 324.93742 112.478046 
L 327.007093 107.283767 
L 327.646257 106.252996 
L 327.768002 106.071095 
L 328.589784 104.676522 
L 329.685493 103.383002 
L 329.807239 103.281946 
L 330.811639 102.736244 
L 331.602984 102.817092 
L 331.876911 102.998993 
L 331.998657 103.039415 
L 334.007457 105.889195 
L 335.65102 110.557982 
L 337.111966 115.792684 
L 339.059893 123.998431 
L 341.190439 135.902829 
L 342.925311 146.938146 
L 344.994984 161.409366 
L 347.734257 182.348172 
L 350.47353 199.810651 
L 351.38662 204.580495 
L 352.664948 210.825759 
L 353.06062 212.523497 
L 353.547602 214.302083 
L 355.556402 219.334672 
L 356.560802 220.486707 
L 356.712984 220.486707 
L 357.565202 219.819741 
L 359.117457 216.484896 
L 359.665311 214.322294 
L 361.126257 205.975068 
L 363.287239 190.897511 
L 365.569966 172.141515 
L 367.183093 158.418109 
L 368.88753 143.603298 
L 369.952802 134.245511 
L 372.052911 115.73205 
L 374.944366 97.2388 
L 375.91833 93.236982 
L 377.622766 87.961855 
L 378.26193 86.567285 
L 379.144584 85.576936 
L 379.479384 85.47588 
L 380.057675 85.576936 
L 381.062075 86.36517 
L 381.762111 87.476793 
L 382.736075 89.659602 
L 382.918693 90.144668 
L 382.918693 90.144668 
" style="fill:none;stroke:#ff0000;stroke-linecap:square;stroke-width:1.5;"/>
   </g>
   <g id="line2d_25">
    <path clip-path="url(#p46a083e78b)" d="M 123.47913 161.736869 
" style="fill:none;stroke:#ffffff;stroke-linecap:square;stroke-width:1.5;"/>
    <defs>
     <path d="M 0 -5 
L -1.12257 -1.545085 
L -4.755283 -1.545085 
L -1.816356 0.59017 
L -2.938926 4.045085 
L -0 1.90983 
L 2.938926 4.045085 
L 1.816356 0.59017 
L 4.755283 -1.545085 
L 1.12257 -1.545085 
z
" id="m963fe19b6d" style="stroke:#ffffff;stroke-linejoin:bevel;"/>
    </defs>
    <g clip-path="url(#p46a083e78b)">
     <use style="fill:#0000ff;stroke:#ffffff;stroke-linejoin:bevel;" x="123.47913" xlink:href="#m963fe19b6d" y="161.736869"/>
    </g>
   </g>
   <g id="line2d_26">
    <path clip-path="url(#p46a083e78b)" d="M 103.96942 159.246768 
" style="fill:none;stroke:#ffffff;stroke-linecap:square;stroke-width:1.5;"/>
    <defs>
     <path d="M 0 -5 
L -1.12257 -1.545085 
L -4.755283 -1.545085 
L -1.816356 0.59017 
L -2.938926 4.045085 
L -0 1.90983 
L 2.938926 4.045085 
L 1.816356 0.59017 
L 4.755283 -1.545085 
L 1.12257 -1.545085 
z
" id="mf209f7b31b" style="stroke:#ffffff;stroke-linejoin:bevel;"/>
    </defs>
    <g clip-path="url(#p46a083e78b)">
     <use style="fill:#ff0000;stroke:#ffffff;stroke-linejoin:bevel;" x="103.96942" xlink:href="#mf209f7b31b" y="159.246768"/>
    </g>
   </g>
   <g id="patch_3">
    <path d="M 63.336875 339.84 
L 63.336875 7.2 
" style="fill:none;stroke:#000000;stroke-linecap:square;stroke-linejoin:miter;stroke-width:0.8;"/>
   </g>
   <g id="patch_4">
    <path d="M 398.136875 339.84 
L 398.136875 7.2 
" style="fill:none;stroke:#000000;stroke-linecap:square;stroke-linejoin:miter;stroke-width:0.8;"/>
   </g>
   <g id="patch_5">
    <path d="M 63.336875 339.84 
L 398.136875 339.84 
" style="fill:none;stroke:#000000;stroke-linecap:square;stroke-linejoin:miter;stroke-width:0.8;"/>
   </g>
   <g id="patch_6">
    <path d="M 63.336875 7.2 
L 398.136875 7.2 
" style="fill:none;stroke:#000000;stroke-linecap:square;stroke-linejoin:miter;stroke-width:0.8;"/>
   </g>
   <g id="text_14">
    <g id="patch_7">
     <path d="M 75.036875 331.242688 
L 166.26875 331.242688 
L 166.26875 293.760312 
L 75.036875 293.760312 
z
" style="fill:#ffffff;stroke:#000000;stroke-linejoin:miter;stroke-width:0.75;"/>
    </g>
    <!-- Auto_00163 -->
    <g transform="translate(80.076875 308.521562)scale(0.14 -0.14)">
     <defs>
      <path d="M 2928 1419 
L 1288 1419 
L 1000 750 
Q 894 503 894 381 
Q 894 284 986 211 
Q 1078 138 1384 116 
L 1384 0 
L 50 0 
L 50 116 
Q 316 163 394 238 
Q 553 388 747 847 
L 2238 4334 
L 2347 4334 
L 3822 809 
Q 4000 384 4145 257 
Q 4291 131 4550 116 
L 4550 0 
L 2878 0 
L 2878 116 
Q 3131 128 3220 200 
Q 3309 272 3309 375 
Q 3309 513 3184 809 
L 2928 1419 
z
M 2841 1650 
L 2122 3363 
L 1384 1650 
L 2841 1650 
z
" id="TimesNewRomanPSMT-41" transform="scale(0.015625)"/>
      <path d="M 2709 2863 
L 2709 1128 
Q 2709 631 2732 520 
Q 2756 409 2807 365 
Q 2859 322 2928 322 
Q 3025 322 3147 375 
L 3191 266 
L 2334 -88 
L 2194 -88 
L 2194 519 
Q 1825 119 1631 15 
Q 1438 -88 1222 -88 
Q 981 -88 804 51 
Q 628 191 559 409 
Q 491 628 491 1028 
L 491 2306 
Q 491 2509 447 2587 
Q 403 2666 317 2708 
Q 231 2750 6 2747 
L 6 2863 
L 1009 2863 
L 1009 947 
Q 1009 547 1148 422 
Q 1288 297 1484 297 
Q 1619 297 1789 381 
Q 1959 466 2194 703 
L 2194 2325 
Q 2194 2569 2105 2655 
Q 2016 2741 1734 2747 
L 1734 2863 
L 2709 2863 
z
" id="TimesNewRomanPSMT-75" transform="scale(0.015625)"/>
      <path d="M 3256 -1381 
L -53 -1381 
L -53 -1119 
L 3256 -1119 
L 3256 -1381 
z
" id="TimesNewRomanPSMT-5f" transform="scale(0.015625)"/>
      <path d="M 2869 4325 
L 2869 4209 
Q 2456 4169 2195 4045 
Q 1934 3922 1679 3669 
Q 1425 3416 1258 3105 
Q 1091 2794 978 2366 
Q 1428 2675 1881 2675 
Q 2316 2675 2634 2325 
Q 2953 1975 2953 1425 
Q 2953 894 2631 456 
Q 2244 -75 1606 -75 
Q 1172 -75 869 213 
Q 275 772 275 1663 
Q 275 2231 503 2743 
Q 731 3256 1154 3653 
Q 1578 4050 1965 4187 
Q 2353 4325 2688 4325 
L 2869 4325 
z
M 925 2138 
Q 869 1716 869 1456 
Q 869 1156 980 804 
Q 1091 453 1309 247 
Q 1469 100 1697 100 
Q 1969 100 2183 356 
Q 2397 613 2397 1088 
Q 2397 1622 2184 2012 
Q 1972 2403 1581 2403 
Q 1463 2403 1327 2353 
Q 1191 2303 925 2138 
z
" id="TimesNewRomanPSMT-36" transform="scale(0.015625)"/>
     </defs>
     <use xlink:href="#TimesNewRomanPSMT-41"/>
     <use x="72.216797" xlink:href="#TimesNewRomanPSMT-75"/>
     <use x="122.216797" xlink:href="#TimesNewRomanPSMT-74"/>
     <use x="150" xlink:href="#TimesNewRomanPSMT-6f"/>
     <use x="200" xlink:href="#TimesNewRomanPSMT-5f"/>
     <use x="250" xlink:href="#TimesNewRomanPSMT-30"/>
     <use x="300" xlink:href="#TimesNewRomanPSMT-30"/>
     <use x="350" xlink:href="#TimesNewRomanPSMT-31"/>
     <use x="400" xlink:href="#TimesNewRomanPSMT-36"/>
     <use x="450" xlink:href="#TimesNewRomanPSMT-33"/>
    </g>
    <!-- Vs: 311.79m/s -->
    <g transform="translate(80.076875 323.208)scale(0.14 -0.14)">
     <defs>
      <path d="M 903 2950 
Q 1047 2950 1148 2848 
Q 1250 2747 1250 2603 
Q 1250 2459 1148 2357 
Q 1047 2256 903 2256 
Q 759 2256 657 2357 
Q 556 2459 556 2603 
Q 556 2747 657 2848 
Q 759 2950 903 2950 
z
M 897 609 
Q 1044 609 1145 506 
Q 1247 403 1247 259 
Q 1247 116 1144 14 
Q 1041 -88 897 -88 
Q 753 -88 651 14 
Q 550 116 550 259 
Q 550 403 651 506 
Q 753 609 897 609 
z
" id="TimesNewRomanPSMT-3a" transform="scale(0.015625)"/>
      <path d="M 644 4238 
L 2916 4238 
L 2916 4119 
L 1503 -88 
L 1153 -88 
L 2419 3728 
L 1253 3728 
Q 900 3728 750 3644 
Q 488 3500 328 3200 
L 238 3234 
L 644 4238 
z
" id="TimesNewRomanPSMT-37" transform="scale(0.015625)"/>
      <path d="M 338 -88 
L 338 28 
Q 744 34 1094 217 
Q 1444 400 1770 856 
Q 2097 1313 2225 1859 
Q 1734 1544 1338 1544 
Q 891 1544 572 1889 
Q 253 2234 253 2806 
Q 253 3363 572 3797 
Q 956 4325 1575 4325 
Q 2097 4325 2469 3894 
Q 2925 3359 2925 2575 
Q 2925 1869 2578 1258 
Q 2231 647 1613 244 
Q 1109 -88 516 -88 
L 338 -88 
z
M 2275 2091 
Q 2331 2497 2331 2741 
Q 2331 3044 2228 3395 
Q 2125 3747 1936 3934 
Q 1747 4122 1506 4122 
Q 1228 4122 1018 3872 
Q 809 3622 809 3128 
Q 809 2469 1088 2097 
Q 1291 1828 1588 1828 
Q 1731 1828 1928 1897 
Q 2125 1966 2275 2091 
z
" id="TimesNewRomanPSMT-39" transform="scale(0.015625)"/>
      <path d="M 1794 4444 
L 259 -88 
L 9 -88 
L 1544 4444 
L 1794 4444 
z
" id="TimesNewRomanPSMT-2f" transform="scale(0.015625)"/>
     </defs>
     <use xlink:href="#TimesNewRomanPSMT-56"/>
     <use x="72.216797" xlink:href="#TimesNewRomanPSMT-73"/>
     <use x="111.132812" xlink:href="#TimesNewRomanPSMT-3a"/>
     <use x="138.916016" xlink:href="#TimesNewRomanPSMT-20"/>
     <use x="163.916016" xlink:href="#TimesNewRomanPSMT-33"/>
     <use x="213.916016" xlink:href="#TimesNewRomanPSMT-31"/>
     <use x="260.166016" xlink:href="#TimesNewRomanPSMT-31"/>
     <use x="310.166016" xlink:href="#TimesNewRomanPSMT-2e"/>
     <use x="335.166016" xlink:href="#TimesNewRomanPSMT-37"/>
     <use x="385.166016" xlink:href="#TimesNewRomanPSMT-39"/>
     <use x="435.166016" xlink:href="#TimesNewRomanPSMT-6d"/>
     <use x="512.949219" xlink:href="#TimesNewRomanPSMT-2f"/>
     <use x="540.732422" xlink:href="#TimesNewRomanPSMT-73"/>
    </g>
   </g>
  </g>
 </g>
 <defs>
  <clipPath id="p46a083e78b">
   <rect height="332.64" width="334.8" x="63.336875" y="7.2"/>
  </clipPath>
 </defs>
</svg>
