<?xml version="1.0" encoding="utf-8" standalone="no"?>
<!DOCTYPE svg PUBLIC "-//W3C//DTD SVG 1.1//EN"
  "http://www.w3.org/Graphics/SVG/1.1/DTD/svg11.dtd">
<svg height="383.471875pt" version="1.1" viewBox="0 0 421.086875 383.471875" width="421.086875pt" xmlns="http://www.w3.org/2000/svg" xmlns:xlink="http://www.w3.org/1999/xlink">
 <metadata>
  <rdf:RDF xmlns:cc="http://creativecommons.org/ns#" xmlns:dc="http://purl.org/dc/elements/1.1/" xmlns:rdf="http://www.w3.org/1999/02/22-rdf-syntax-ns#">
   <cc:Work>
    <dc:type rdf:resource="http://purl.org/dc/dcmitype/StillImage"/>
    <dc:date>2021-06-11T14:39:37.424859</dc:date>
    <dc:format>image/svg+xml</dc:format>
    <dc:creator>
     <cc:Agent>
      <dc:title>Matplotlib v3.4.2, https://matplotlib.org/</dc:title>
     </cc:Agent>
    </dc:creator>
   </cc:Work>
  </rdf:RDF>
 </metadata>
 <defs>
  <style type="text/css">*{stroke-linecap:butt;stroke-linejoin:round;}</style>
 </defs>
 <g id="figure_1">
  <g id="patch_1">
   <path d="M 0 383.471875 
L 421.086875 383.471875 
L 421.086875 0 
L 0 0 
z
" style="fill:#ffffff;"/>
  </g>
  <g id="axes_1">
   <g id="patch_2">
    <path d="M 63.336875 339.84 
L 398.136875 339.84 
L 398.136875 7.2 
L 63.336875 7.2 
z
" style="fill:#ffffff;"/>
   </g>
   <g id="matplotlib.axis_1">
    <g id="xtick_1">
     <g id="line2d_1">
      <path clip-path="url(#p2ab39e7624)" d="M 93.773239 339.84 
L 93.773239 7.2 
" style="fill:none;stroke:#000000;stroke-dasharray:0.5,0.825;stroke-dashoffset:0;stroke-width:0.5;"/>
     </g>
     <g id="line2d_2">
      <defs>
       <path d="M 0 0 
L 0 3.5 
" id="mbaa3709dc5" style="stroke:#000000;stroke-width:0.8;"/>
      </defs>
      <g>
       <use style="stroke:#000000;stroke-width:0.8;" x="93.773239" xlink:href="#mbaa3709dc5" y="339.84"/>
      </g>
     </g>
     <g id="text_1">
      <!-- 0.000 -->
      <g transform="translate(78.023239 356.56125)scale(0.14 -0.14)">
       <defs>
        <path d="M 231 2094 
Q 231 2819 450 3342 
Q 669 3866 1031 4122 
Q 1313 4325 1613 4325 
Q 2100 4325 2488 3828 
Q 2972 3213 2972 2159 
Q 2972 1422 2759 906 
Q 2547 391 2217 158 
Q 1888 -75 1581 -75 
Q 975 -75 572 641 
Q 231 1244 231 2094 
z
M 844 2016 
Q 844 1141 1059 588 
Q 1238 122 1591 122 
Q 1759 122 1940 273 
Q 2122 425 2216 781 
Q 2359 1319 2359 2297 
Q 2359 3022 2209 3506 
Q 2097 3866 1919 4016 
Q 1791 4119 1609 4119 
Q 1397 4119 1231 3928 
Q 1006 3669 925 3112 
Q 844 2556 844 2016 
z
" id="TimesNewRomanPSMT-30" transform="scale(0.015625)"/>
        <path d="M 800 606 
Q 947 606 1047 504 
Q 1147 403 1147 259 
Q 1147 116 1045 14 
Q 944 -88 800 -88 
Q 656 -88 554 14 
Q 453 116 453 259 
Q 453 406 554 506 
Q 656 606 800 606 
z
" id="TimesNewRomanPSMT-2e" transform="scale(0.015625)"/>
       </defs>
       <use xlink:href="#TimesNewRomanPSMT-30"/>
       <use x="50" xlink:href="#TimesNewRomanPSMT-2e"/>
       <use x="75" xlink:href="#TimesNewRomanPSMT-30"/>
       <use x="125" xlink:href="#TimesNewRomanPSMT-30"/>
       <use x="175" xlink:href="#TimesNewRomanPSMT-30"/>
      </g>
     </g>
    </g>
    <g id="xtick_2">
     <g id="line2d_3">
      <path clip-path="url(#p2ab39e7624)" d="M 154.645966 339.84 
L 154.645966 7.2 
" style="fill:none;stroke:#000000;stroke-dasharray:0.5,0.825;stroke-dashoffset:0;stroke-width:0.5;"/>
     </g>
     <g id="line2d_4">
      <g>
       <use style="stroke:#000000;stroke-width:0.8;" x="154.645966" xlink:href="#mbaa3709dc5" y="339.84"/>
      </g>
     </g>
     <g id="text_2">
      <!-- 0.001 -->
      <g transform="translate(138.895966 356.56125)scale(0.14 -0.14)">
       <defs>
        <path d="M 750 3822 
L 1781 4325 
L 1884 4325 
L 1884 747 
Q 1884 391 1914 303 
Q 1944 216 2037 169 
Q 2131 122 2419 116 
L 2419 0 
L 825 0 
L 825 116 
Q 1125 122 1212 167 
Q 1300 213 1334 289 
Q 1369 366 1369 747 
L 1369 3034 
Q 1369 3497 1338 3628 
Q 1316 3728 1258 3775 
Q 1200 3822 1119 3822 
Q 1003 3822 797 3725 
L 750 3822 
z
" id="TimesNewRomanPSMT-31" transform="scale(0.015625)"/>
       </defs>
       <use xlink:href="#TimesNewRomanPSMT-30"/>
       <use x="50" xlink:href="#TimesNewRomanPSMT-2e"/>
       <use x="75" xlink:href="#TimesNewRomanPSMT-30"/>
       <use x="125" xlink:href="#TimesNewRomanPSMT-30"/>
       <use x="175" xlink:href="#TimesNewRomanPSMT-31"/>
      </g>
     </g>
    </g>
    <g id="xtick_3">
     <g id="line2d_5">
      <path clip-path="url(#p2ab39e7624)" d="M 215.518693 339.84 
L 215.518693 7.2 
" style="fill:none;stroke:#000000;stroke-dasharray:0.5,0.825;stroke-dashoffset:0;stroke-width:0.5;"/>
     </g>
     <g id="line2d_6">
      <g>
       <use style="stroke:#000000;stroke-width:0.8;" x="215.518693" xlink:href="#mbaa3709dc5" y="339.84"/>
      </g>
     </g>
     <g id="text_3">
      <!-- 0.002 -->
      <g transform="translate(199.768693 356.56125)scale(0.14 -0.14)">
       <defs>
        <path d="M 2934 816 
L 2638 0 
L 138 0 
L 138 116 
Q 1241 1122 1691 1759 
Q 2141 2397 2141 2925 
Q 2141 3328 1894 3587 
Q 1647 3847 1303 3847 
Q 991 3847 742 3664 
Q 494 3481 375 3128 
L 259 3128 
Q 338 3706 661 4015 
Q 984 4325 1469 4325 
Q 1984 4325 2329 3994 
Q 2675 3663 2675 3213 
Q 2675 2891 2525 2569 
Q 2294 2063 1775 1497 
Q 997 647 803 472 
L 1909 472 
Q 2247 472 2383 497 
Q 2519 522 2628 598 
Q 2738 675 2819 816 
L 2934 816 
z
" id="TimesNewRomanPSMT-32" transform="scale(0.015625)"/>
       </defs>
       <use xlink:href="#TimesNewRomanPSMT-30"/>
       <use x="50" xlink:href="#TimesNewRomanPSMT-2e"/>
       <use x="75" xlink:href="#TimesNewRomanPSMT-30"/>
       <use x="125" xlink:href="#TimesNewRomanPSMT-30"/>
       <use x="175" xlink:href="#TimesNewRomanPSMT-32"/>
      </g>
     </g>
    </g>
    <g id="xtick_4">
     <g id="line2d_7">
      <path clip-path="url(#p2ab39e7624)" d="M 276.39142 339.84 
L 276.39142 7.2 
" style="fill:none;stroke:#000000;stroke-dasharray:0.5,0.825;stroke-dashoffset:0;stroke-width:0.5;"/>
     </g>
     <g id="line2d_8">
      <g>
       <use style="stroke:#000000;stroke-width:0.8;" x="276.39142" xlink:href="#mbaa3709dc5" y="339.84"/>
      </g>
     </g>
     <g id="text_4">
      <!-- 0.003 -->
      <g transform="translate(260.64142 356.56125)scale(0.14 -0.14)">
       <defs>
        <path d="M 325 3431 
Q 506 3859 782 4092 
Q 1059 4325 1472 4325 
Q 1981 4325 2253 3994 
Q 2459 3747 2459 3466 
Q 2459 3003 1878 2509 
Q 2269 2356 2469 2072 
Q 2669 1788 2669 1403 
Q 2669 853 2319 450 
Q 1863 -75 997 -75 
Q 569 -75 414 31 
Q 259 138 259 259 
Q 259 350 332 419 
Q 406 488 509 488 
Q 588 488 669 463 
Q 722 447 909 348 
Q 1097 250 1169 231 
Q 1284 197 1416 197 
Q 1734 197 1970 444 
Q 2206 691 2206 1028 
Q 2206 1275 2097 1509 
Q 2016 1684 1919 1775 
Q 1784 1900 1550 2001 
Q 1316 2103 1072 2103 
L 972 2103 
L 972 2197 
Q 1219 2228 1467 2375 
Q 1716 2522 1828 2728 
Q 1941 2934 1941 3181 
Q 1941 3503 1739 3701 
Q 1538 3900 1238 3900 
Q 753 3900 428 3381 
L 325 3431 
z
" id="TimesNewRomanPSMT-33" transform="scale(0.015625)"/>
       </defs>
       <use xlink:href="#TimesNewRomanPSMT-30"/>
       <use x="50" xlink:href="#TimesNewRomanPSMT-2e"/>
       <use x="75" xlink:href="#TimesNewRomanPSMT-30"/>
       <use x="125" xlink:href="#TimesNewRomanPSMT-30"/>
       <use x="175" xlink:href="#TimesNewRomanPSMT-33"/>
      </g>
     </g>
    </g>
    <g id="xtick_5">
     <g id="line2d_9">
      <path clip-path="url(#p2ab39e7624)" d="M 337.264148 339.84 
L 337.264148 7.2 
" style="fill:none;stroke:#000000;stroke-dasharray:0.5,0.825;stroke-dashoffset:0;stroke-width:0.5;"/>
     </g>
     <g id="line2d_10">
      <g>
       <use style="stroke:#000000;stroke-width:0.8;" x="337.264148" xlink:href="#mbaa3709dc5" y="339.84"/>
      </g>
     </g>
     <g id="text_5">
      <!-- 0.004 -->
      <g transform="translate(321.514148 356.56125)scale(0.14 -0.14)">
       <defs>
        <path d="M 2978 1563 
L 2978 1119 
L 2409 1119 
L 2409 0 
L 1894 0 
L 1894 1119 
L 100 1119 
L 100 1519 
L 2066 4325 
L 2409 4325 
L 2409 1563 
L 2978 1563 
z
M 1894 1563 
L 1894 3666 
L 406 1563 
L 1894 1563 
z
" id="TimesNewRomanPSMT-34" transform="scale(0.015625)"/>
       </defs>
       <use xlink:href="#TimesNewRomanPSMT-30"/>
       <use x="50" xlink:href="#TimesNewRomanPSMT-2e"/>
       <use x="75" xlink:href="#TimesNewRomanPSMT-30"/>
       <use x="125" xlink:href="#TimesNewRomanPSMT-30"/>
       <use x="175" xlink:href="#TimesNewRomanPSMT-34"/>
      </g>
     </g>
    </g>
    <g id="xtick_6">
     <g id="line2d_11">
      <path clip-path="url(#p2ab39e7624)" d="M 398.136875 339.84 
L 398.136875 7.2 
" style="fill:none;stroke:#000000;stroke-dasharray:0.5,0.825;stroke-dashoffset:0;stroke-width:0.5;"/>
     </g>
     <g id="line2d_12">
      <g>
       <use style="stroke:#000000;stroke-width:0.8;" x="398.136875" xlink:href="#mbaa3709dc5" y="339.84"/>
      </g>
     </g>
     <g id="text_6">
      <!-- 0.005 -->
      <g transform="translate(382.386875 356.56125)scale(0.14 -0.14)">
       <defs>
        <path d="M 2778 4238 
L 2534 3706 
L 1259 3706 
L 981 3138 
Q 1809 3016 2294 2522 
Q 2709 2097 2709 1522 
Q 2709 1188 2573 903 
Q 2438 619 2231 419 
Q 2025 219 1772 97 
Q 1413 -75 1034 -75 
Q 653 -75 479 54 
Q 306 184 306 341 
Q 306 428 378 495 
Q 450 563 559 563 
Q 641 563 702 538 
Q 763 513 909 409 
Q 1144 247 1384 247 
Q 1750 247 2026 523 
Q 2303 800 2303 1197 
Q 2303 1581 2056 1914 
Q 1809 2247 1375 2428 
Q 1034 2569 447 2591 
L 1259 4238 
L 2778 4238 
z
" id="TimesNewRomanPSMT-35" transform="scale(0.015625)"/>
       </defs>
       <use xlink:href="#TimesNewRomanPSMT-30"/>
       <use x="50" xlink:href="#TimesNewRomanPSMT-2e"/>
       <use x="75" xlink:href="#TimesNewRomanPSMT-30"/>
       <use x="125" xlink:href="#TimesNewRomanPSMT-30"/>
       <use x="175" xlink:href="#TimesNewRomanPSMT-35"/>
      </g>
     </g>
    </g>
    <g id="text_7">
     <!-- Time (sec) -->
     <g transform="translate(200.858906 373.277188)scale(0.14 -0.14)">
      <defs>
       <path d="M 3703 4238 
L 3750 3244 
L 3631 3244 
Q 3597 3506 3538 3619 
Q 3441 3800 3280 3886 
Q 3119 3972 2856 3972 
L 2259 3972 
L 2259 734 
Q 2259 344 2344 247 
Q 2463 116 2709 116 
L 2856 116 
L 2856 0 
L 1059 0 
L 1059 116 
L 1209 116 
Q 1478 116 1591 278 
Q 1659 378 1659 734 
L 1659 3972 
L 1150 3972 
Q 853 3972 728 3928 
Q 566 3869 450 3700 
Q 334 3531 313 3244 
L 194 3244 
L 244 4238 
L 3703 4238 
z
" id="TimesNewRomanPSMT-54" transform="scale(0.015625)"/>
       <path d="M 928 4444 
Q 1059 4444 1151 4351 
Q 1244 4259 1244 4128 
Q 1244 3997 1151 3903 
Q 1059 3809 928 3809 
Q 797 3809 703 3903 
Q 609 3997 609 4128 
Q 609 4259 701 4351 
Q 794 4444 928 4444 
z
M 1188 2947 
L 1188 647 
Q 1188 378 1227 289 
Q 1266 200 1342 156 
Q 1419 113 1622 113 
L 1622 0 
L 231 0 
L 231 113 
Q 441 113 512 153 
Q 584 194 626 287 
Q 669 381 669 647 
L 669 1750 
Q 669 2216 641 2353 
Q 619 2453 572 2492 
Q 525 2531 444 2531 
Q 356 2531 231 2484 
L 188 2597 
L 1050 2947 
L 1188 2947 
z
" id="TimesNewRomanPSMT-69" transform="scale(0.015625)"/>
       <path d="M 1050 2338 
Q 1363 2650 1419 2697 
Q 1559 2816 1721 2881 
Q 1884 2947 2044 2947 
Q 2313 2947 2506 2790 
Q 2700 2634 2766 2338 
Q 3088 2713 3309 2830 
Q 3531 2947 3766 2947 
Q 3994 2947 4170 2830 
Q 4347 2713 4450 2447 
Q 4519 2266 4519 1878 
L 4519 647 
Q 4519 378 4559 278 
Q 4591 209 4675 161 
Q 4759 113 4950 113 
L 4950 0 
L 3538 0 
L 3538 113 
L 3597 113 
Q 3781 113 3884 184 
Q 3956 234 3988 344 
Q 4000 397 4000 647 
L 4000 1878 
Q 4000 2228 3916 2372 
Q 3794 2572 3525 2572 
Q 3359 2572 3192 2489 
Q 3025 2406 2788 2181 
L 2781 2147 
L 2788 2013 
L 2788 647 
Q 2788 353 2820 281 
Q 2853 209 2943 161 
Q 3034 113 3253 113 
L 3253 0 
L 1806 0 
L 1806 113 
Q 2044 113 2133 169 
Q 2222 225 2256 338 
Q 2272 391 2272 647 
L 2272 1878 
Q 2272 2228 2169 2381 
Q 2031 2581 1784 2581 
Q 1616 2581 1450 2491 
Q 1191 2353 1050 2181 
L 1050 647 
Q 1050 366 1089 281 
Q 1128 197 1204 155 
Q 1281 113 1516 113 
L 1516 0 
L 100 0 
L 100 113 
Q 297 113 375 155 
Q 453 197 493 289 
Q 534 381 534 647 
L 534 1741 
Q 534 2213 506 2350 
Q 484 2453 437 2492 
Q 391 2531 309 2531 
Q 222 2531 100 2484 
L 53 2597 
L 916 2947 
L 1050 2947 
L 1050 2338 
z
" id="TimesNewRomanPSMT-6d" transform="scale(0.015625)"/>
       <path d="M 681 1784 
Q 678 1147 991 784 
Q 1303 422 1725 422 
Q 2006 422 2214 576 
Q 2422 731 2563 1106 
L 2659 1044 
Q 2594 616 2278 264 
Q 1963 -88 1488 -88 
Q 972 -88 605 314 
Q 238 716 238 1394 
Q 238 2128 614 2539 
Q 991 2950 1559 2950 
Q 2041 2950 2350 2633 
Q 2659 2316 2659 1784 
L 681 1784 
z
M 681 1966 
L 2006 1966 
Q 1991 2241 1941 2353 
Q 1863 2528 1708 2628 
Q 1553 2728 1384 2728 
Q 1125 2728 920 2526 
Q 716 2325 681 1966 
z
" id="TimesNewRomanPSMT-65" transform="scale(0.015625)"/>
       <path id="TimesNewRomanPSMT-20" transform="scale(0.015625)"/>
       <path d="M 1988 -1253 
L 1988 -1369 
Q 1516 -1131 1200 -813 
Q 750 -359 506 256 
Q 263 872 263 1534 
Q 263 2503 741 3301 
Q 1219 4100 1988 4444 
L 1988 4313 
Q 1603 4100 1356 3731 
Q 1109 3363 987 2797 
Q 866 2231 866 1616 
Q 866 947 969 400 
Q 1050 -31 1165 -292 
Q 1281 -553 1476 -793 
Q 1672 -1034 1988 -1253 
z
" id="TimesNewRomanPSMT-28" transform="scale(0.015625)"/>
       <path d="M 2050 2947 
L 2050 1972 
L 1947 1972 
Q 1828 2431 1642 2597 
Q 1456 2763 1169 2763 
Q 950 2763 815 2647 
Q 681 2531 681 2391 
Q 681 2216 781 2091 
Q 878 1963 1175 1819 
L 1631 1597 
Q 2266 1288 2266 781 
Q 2266 391 1970 151 
Q 1675 -88 1309 -88 
Q 1047 -88 709 6 
Q 606 38 541 38 
Q 469 38 428 -44 
L 325 -44 
L 325 978 
L 428 978 
Q 516 541 762 319 
Q 1009 97 1316 97 
Q 1531 97 1667 223 
Q 1803 350 1803 528 
Q 1803 744 1651 891 
Q 1500 1038 1047 1263 
Q 594 1488 453 1669 
Q 313 1847 313 2119 
Q 313 2472 555 2709 
Q 797 2947 1181 2947 
Q 1350 2947 1591 2875 
Q 1750 2828 1803 2828 
Q 1853 2828 1881 2850 
Q 1909 2872 1947 2947 
L 2050 2947 
z
" id="TimesNewRomanPSMT-73" transform="scale(0.015625)"/>
       <path d="M 2631 1088 
Q 2516 522 2178 217 
Q 1841 -88 1431 -88 
Q 944 -88 581 321 
Q 219 731 219 1428 
Q 219 2103 620 2525 
Q 1022 2947 1584 2947 
Q 2006 2947 2278 2723 
Q 2550 2500 2550 2259 
Q 2550 2141 2473 2067 
Q 2397 1994 2259 1994 
Q 2075 1994 1981 2113 
Q 1928 2178 1911 2362 
Q 1894 2547 1784 2644 
Q 1675 2738 1481 2738 
Q 1169 2738 978 2506 
Q 725 2200 725 1697 
Q 725 1184 976 792 
Q 1228 400 1656 400 
Q 1963 400 2206 609 
Q 2378 753 2541 1131 
L 2631 1088 
z
" id="TimesNewRomanPSMT-63" transform="scale(0.015625)"/>
       <path d="M 144 4313 
L 144 4444 
Q 619 4209 934 3891 
Q 1381 3434 1625 2820 
Q 1869 2206 1869 1541 
Q 1869 572 1392 -226 
Q 916 -1025 144 -1369 
L 144 -1253 
Q 528 -1038 776 -670 
Q 1025 -303 1145 264 
Q 1266 831 1266 1447 
Q 1266 2113 1163 2663 
Q 1084 3094 967 3353 
Q 850 3613 656 3853 
Q 463 4094 144 4313 
z
" id="TimesNewRomanPSMT-29" transform="scale(0.015625)"/>
      </defs>
      <use xlink:href="#TimesNewRomanPSMT-54"/>
      <use x="57.583984" xlink:href="#TimesNewRomanPSMT-69"/>
      <use x="85.367188" xlink:href="#TimesNewRomanPSMT-6d"/>
      <use x="163.150391" xlink:href="#TimesNewRomanPSMT-65"/>
      <use x="207.535156" xlink:href="#TimesNewRomanPSMT-20"/>
      <use x="232.535156" xlink:href="#TimesNewRomanPSMT-28"/>
      <use x="265.835938" xlink:href="#TimesNewRomanPSMT-73"/>
      <use x="304.751953" xlink:href="#TimesNewRomanPSMT-65"/>
      <use x="349.136719" xlink:href="#TimesNewRomanPSMT-63"/>
      <use x="393.521484" xlink:href="#TimesNewRomanPSMT-29"/>
     </g>
    </g>
   </g>
   <g id="matplotlib.axis_2">
    <g id="ytick_1">
     <g id="line2d_13">
      <path clip-path="url(#p2ab39e7624)" d="M 63.336875 281.723012 
L 398.136875 281.723012 
" style="fill:none;stroke:#000000;stroke-dasharray:0.5,0.825;stroke-dashoffset:0;stroke-width:0.5;"/>
     </g>
     <g id="line2d_14">
      <defs>
       <path d="M 0 0 
L -3.5 0 
" id="mbc0c4395a8" style="stroke:#000000;stroke-width:0.8;"/>
      </defs>
      <g>
       <use style="stroke:#000000;stroke-width:0.8;" x="63.336875" xlink:href="#mbc0c4395a8" y="281.723012"/>
      </g>
     </g>
     <g id="text_8">
      <!-- −0.04 -->
      <g transform="translate(23.942188 286.583637)scale(0.14 -0.14)">
       <defs>
        <path d="M 3484 2000 
L 116 2000 
L 116 2256 
L 3484 2256 
L 3484 2000 
z
" id="TimesNewRomanPSMT-2212" transform="scale(0.015625)"/>
       </defs>
       <use xlink:href="#TimesNewRomanPSMT-2212"/>
       <use x="56.396484" xlink:href="#TimesNewRomanPSMT-30"/>
       <use x="106.396484" xlink:href="#TimesNewRomanPSMT-2e"/>
       <use x="131.396484" xlink:href="#TimesNewRomanPSMT-30"/>
       <use x="181.396484" xlink:href="#TimesNewRomanPSMT-34"/>
      </g>
     </g>
    </g>
    <g id="ytick_2">
     <g id="line2d_15">
      <path clip-path="url(#p2ab39e7624)" d="M 63.336875 217.595775 
L 398.136875 217.595775 
" style="fill:none;stroke:#000000;stroke-dasharray:0.5,0.825;stroke-dashoffset:0;stroke-width:0.5;"/>
     </g>
     <g id="line2d_16">
      <g>
       <use style="stroke:#000000;stroke-width:0.8;" x="63.336875" xlink:href="#mbc0c4395a8" y="217.595775"/>
      </g>
     </g>
     <g id="text_9">
      <!-- −0.02 -->
      <g transform="translate(23.942188 222.4564)scale(0.14 -0.14)">
       <use xlink:href="#TimesNewRomanPSMT-2212"/>
       <use x="56.396484" xlink:href="#TimesNewRomanPSMT-30"/>
       <use x="106.396484" xlink:href="#TimesNewRomanPSMT-2e"/>
       <use x="131.396484" xlink:href="#TimesNewRomanPSMT-30"/>
       <use x="181.396484" xlink:href="#TimesNewRomanPSMT-32"/>
      </g>
     </g>
    </g>
    <g id="ytick_3">
     <g id="line2d_17">
      <path clip-path="url(#p2ab39e7624)" d="M 63.336875 153.468539 
L 398.136875 153.468539 
" style="fill:none;stroke:#000000;stroke-dasharray:0.5,0.825;stroke-dashoffset:0;stroke-width:0.5;"/>
     </g>
     <g id="line2d_18">
      <g>
       <use style="stroke:#000000;stroke-width:0.8;" x="63.336875" xlink:href="#mbc0c4395a8" y="153.468539"/>
      </g>
     </g>
     <g id="text_10">
      <!-- 0.00 -->
      <g transform="translate(31.836875 158.329164)scale(0.14 -0.14)">
       <use xlink:href="#TimesNewRomanPSMT-30"/>
       <use x="50" xlink:href="#TimesNewRomanPSMT-2e"/>
       <use x="75" xlink:href="#TimesNewRomanPSMT-30"/>
       <use x="125" xlink:href="#TimesNewRomanPSMT-30"/>
      </g>
     </g>
    </g>
    <g id="ytick_4">
     <g id="line2d_19">
      <path clip-path="url(#p2ab39e7624)" d="M 63.336875 89.341302 
L 398.136875 89.341302 
" style="fill:none;stroke:#000000;stroke-dasharray:0.5,0.825;stroke-dashoffset:0;stroke-width:0.5;"/>
     </g>
     <g id="line2d_20">
      <g>
       <use style="stroke:#000000;stroke-width:0.8;" x="63.336875" xlink:href="#mbc0c4395a8" y="89.341302"/>
      </g>
     </g>
     <g id="text_11">
      <!-- 0.02 -->
      <g transform="translate(31.836875 94.201927)scale(0.14 -0.14)">
       <use xlink:href="#TimesNewRomanPSMT-30"/>
       <use x="50" xlink:href="#TimesNewRomanPSMT-2e"/>
       <use x="75" xlink:href="#TimesNewRomanPSMT-30"/>
       <use x="125" xlink:href="#TimesNewRomanPSMT-32"/>
      </g>
     </g>
    </g>
    <g id="ytick_5">
     <g id="line2d_21">
      <path clip-path="url(#p2ab39e7624)" d="M 63.336875 25.214065 
L 398.136875 25.214065 
" style="fill:none;stroke:#000000;stroke-dasharray:0.5,0.825;stroke-dashoffset:0;stroke-width:0.5;"/>
     </g>
     <g id="line2d_22">
      <g>
       <use style="stroke:#000000;stroke-width:0.8;" x="63.336875" xlink:href="#mbc0c4395a8" y="25.214065"/>
      </g>
     </g>
     <g id="text_12">
      <!-- 0.04 -->
      <g transform="translate(31.836875 30.07469)scale(0.14 -0.14)">
       <use xlink:href="#TimesNewRomanPSMT-30"/>
       <use x="50" xlink:href="#TimesNewRomanPSMT-2e"/>
       <use x="75" xlink:href="#TimesNewRomanPSMT-30"/>
       <use x="125" xlink:href="#TimesNewRomanPSMT-34"/>
      </g>
     </g>
    </g>
    <g id="text_13">
     <!-- Volatage (V) -->
     <g transform="translate(16.92125 209.352344)rotate(-90)scale(0.14 -0.14)">
      <defs>
       <path d="M 4544 4238 
L 4544 4122 
Q 4319 4081 4203 3978 
Q 4038 3825 3909 3509 
L 2431 -97 
L 2316 -97 
L 728 3556 
Q 606 3838 556 3900 
Q 478 3997 364 4051 
Q 250 4106 56 4122 
L 56 4238 
L 1788 4238 
L 1788 4122 
Q 1494 4094 1406 4022 
Q 1319 3950 1319 3838 
Q 1319 3681 1463 3350 
L 2541 866 
L 3541 3319 
Q 3688 3681 3688 3822 
Q 3688 3913 3597 3995 
Q 3506 4078 3291 4113 
Q 3275 4116 3238 4122 
L 3238 4238 
L 4544 4238 
z
" id="TimesNewRomanPSMT-56" transform="scale(0.015625)"/>
       <path d="M 1600 2947 
Q 2250 2947 2644 2453 
Q 2978 2031 2978 1484 
Q 2978 1100 2793 706 
Q 2609 313 2286 112 
Q 1963 -88 1566 -88 
Q 919 -88 538 428 
Q 216 863 216 1403 
Q 216 1797 411 2186 
Q 606 2575 925 2761 
Q 1244 2947 1600 2947 
z
M 1503 2744 
Q 1338 2744 1170 2645 
Q 1003 2547 900 2300 
Q 797 2053 797 1666 
Q 797 1041 1045 587 
Q 1294 134 1700 134 
Q 2003 134 2200 384 
Q 2397 634 2397 1244 
Q 2397 2006 2069 2444 
Q 1847 2744 1503 2744 
z
" id="TimesNewRomanPSMT-6f" transform="scale(0.015625)"/>
       <path d="M 1184 4444 
L 1184 647 
Q 1184 378 1223 290 
Q 1263 203 1344 158 
Q 1425 113 1647 113 
L 1647 0 
L 244 0 
L 244 113 
Q 441 113 512 153 
Q 584 194 625 287 
Q 666 381 666 647 
L 666 3247 
Q 666 3731 644 3842 
Q 622 3953 573 3993 
Q 525 4034 450 4034 
Q 369 4034 244 3984 
L 191 4094 
L 1044 4444 
L 1184 4444 
z
" id="TimesNewRomanPSMT-6c" transform="scale(0.015625)"/>
       <path d="M 1822 413 
Q 1381 72 1269 19 
Q 1100 -59 909 -59 
Q 613 -59 420 144 
Q 228 347 228 678 
Q 228 888 322 1041 
Q 450 1253 767 1440 
Q 1084 1628 1822 1897 
L 1822 2009 
Q 1822 2438 1686 2597 
Q 1550 2756 1291 2756 
Q 1094 2756 978 2650 
Q 859 2544 859 2406 
L 866 2225 
Q 866 2081 792 2003 
Q 719 1925 600 1925 
Q 484 1925 411 2006 
Q 338 2088 338 2228 
Q 338 2497 613 2722 
Q 888 2947 1384 2947 
Q 1766 2947 2009 2819 
Q 2194 2722 2281 2516 
Q 2338 2381 2338 1966 
L 2338 994 
Q 2338 584 2353 492 
Q 2369 400 2405 369 
Q 2441 338 2488 338 
Q 2538 338 2575 359 
Q 2641 400 2828 588 
L 2828 413 
Q 2478 -56 2159 -56 
Q 2006 -56 1915 50 
Q 1825 156 1822 413 
z
M 1822 616 
L 1822 1706 
Q 1350 1519 1213 1441 
Q 966 1303 859 1153 
Q 753 1003 753 825 
Q 753 600 887 451 
Q 1022 303 1197 303 
Q 1434 303 1822 616 
z
" id="TimesNewRomanPSMT-61" transform="scale(0.015625)"/>
       <path d="M 1031 3803 
L 1031 2863 
L 1700 2863 
L 1700 2644 
L 1031 2644 
L 1031 788 
Q 1031 509 1111 412 
Q 1191 316 1316 316 
Q 1419 316 1516 380 
Q 1613 444 1666 569 
L 1788 569 
Q 1678 263 1478 108 
Q 1278 -47 1066 -47 
Q 922 -47 784 33 
Q 647 113 581 261 
Q 516 409 516 719 
L 516 2644 
L 63 2644 
L 63 2747 
Q 234 2816 414 2980 
Q 594 3144 734 3369 
Q 806 3488 934 3803 
L 1031 3803 
z
" id="TimesNewRomanPSMT-74" transform="scale(0.015625)"/>
       <path d="M 966 1044 
Q 703 1172 562 1401 
Q 422 1631 422 1909 
Q 422 2334 742 2640 
Q 1063 2947 1563 2947 
Q 1972 2947 2272 2747 
L 2878 2747 
Q 3013 2747 3034 2739 
Q 3056 2731 3066 2713 
Q 3084 2684 3084 2613 
Q 3084 2531 3069 2500 
Q 3059 2484 3036 2475 
Q 3013 2466 2878 2466 
L 2506 2466 
Q 2681 2241 2681 1891 
Q 2681 1491 2375 1206 
Q 2069 922 1553 922 
Q 1341 922 1119 984 
Q 981 866 932 777 
Q 884 688 884 625 
Q 884 572 936 522 
Q 988 472 1138 450 
Q 1225 438 1575 428 
Q 2219 413 2409 384 
Q 2700 344 2873 169 
Q 3047 -6 3047 -263 
Q 3047 -616 2716 -925 
Q 2228 -1381 1444 -1381 
Q 841 -1381 425 -1109 
Q 191 -953 191 -784 
Q 191 -709 225 -634 
Q 278 -519 444 -313 
Q 466 -284 763 25 
Q 600 122 533 198 
Q 466 275 466 372 
Q 466 481 555 628 
Q 644 775 966 1044 
z
M 1509 2797 
Q 1278 2797 1122 2612 
Q 966 2428 966 2047 
Q 966 1553 1178 1281 
Q 1341 1075 1591 1075 
Q 1828 1075 1981 1253 
Q 2134 1431 2134 1813 
Q 2134 2309 1919 2591 
Q 1759 2797 1509 2797 
z
M 934 0 
Q 788 -159 713 -296 
Q 638 -434 638 -550 
Q 638 -700 819 -813 
Q 1131 -1006 1722 -1006 
Q 2284 -1006 2551 -807 
Q 2819 -609 2819 -384 
Q 2819 -222 2659 -153 
Q 2497 -84 2016 -72 
Q 1313 -53 934 0 
z
" id="TimesNewRomanPSMT-67" transform="scale(0.015625)"/>
      </defs>
      <use xlink:href="#TimesNewRomanPSMT-56"/>
      <use x="59.341797" xlink:href="#TimesNewRomanPSMT-6f"/>
      <use x="109.341797" xlink:href="#TimesNewRomanPSMT-6c"/>
      <use x="137.125" xlink:href="#TimesNewRomanPSMT-61"/>
      <use x="181.509766" xlink:href="#TimesNewRomanPSMT-74"/>
      <use x="209.292969" xlink:href="#TimesNewRomanPSMT-61"/>
      <use x="253.677734" xlink:href="#TimesNewRomanPSMT-67"/>
      <use x="303.677734" xlink:href="#TimesNewRomanPSMT-65"/>
      <use x="348.0625" xlink:href="#TimesNewRomanPSMT-20"/>
      <use x="373.0625" xlink:href="#TimesNewRomanPSMT-28"/>
      <use x="406.363281" xlink:href="#TimesNewRomanPSMT-56"/>
      <use x="478.580078" xlink:href="#TimesNewRomanPSMT-29"/>
     </g>
    </g>
   </g>
   <g id="LineCollection_1">
    <path clip-path="url(#p2ab39e7624)" d="M 78.555057 153.468539 
L 382.918693 153.468539 
" style="fill:none;stroke:#1f77b4;stroke-width:1.5;"/>
   </g>
   <g id="line2d_23">
    <path clip-path="url(#p2ab39e7624)" d="M 78.555057 153.500281 
L 78.676802 153.420123 
L 78.707239 153.500281 
L 78.768111 153.460202 
L 78.889857 153.460202 
L 91.67313 153.380043 
L 91.764439 153.339963 
L 91.794875 153.380043 
L 100.469239 153.460202 
L 100.499675 153.500281 
L 100.560548 153.420123 
L 102.63022 153.500281 
L 102.751966 153.500281 
L 105.30862 153.500281 
L 105.430366 153.380043 
L 105.582548 153.420123 
L 109.447966 153.500281 
L 109.569711 153.500281 
L 110.787166 153.580441 
L 110.908911 153.580441 
L 111.152402 153.62052 
L 111.182839 153.700679 
L 111.243711 153.62052 
L 111.852439 153.6606 
L 112.00462 153.780838 
L 112.156802 153.740759 
L 112.643784 153.820918 
L 112.795966 153.860997 
L 113.282948 153.941156 
L 113.404693 154.021315 
L 113.952548 154.101474 
L 114.10473 154.141554 
L 114.135166 154.101474 
L 114.196039 154.181633 
L 114.34822 154.221713 
L 114.469966 154.221713 
L 114.652584 154.261792 
L 114.77433 154.341952 
L 115.048257 154.341952 
L 115.170002 154.46219 
L 115.656984 154.542349 
L 115.839602 154.622508 
L 116.143966 154.702667 
L 116.326584 154.782826 
L 116.904875 154.862985 
L 117.057057 154.903065 
L 117.330984 154.983224 
L 117.45273 155.063383 
L 117.483166 155.023303 
L 117.817966 155.103462 
L 117.909275 155.103462 
L 118.03102 155.103462 
L 118.335384 155.183621 
L 118.487566 155.223701 
L 118.79193 155.30386 
L 118.883239 155.34394 
L 118.913675 155.30386 
L 119.004984 155.384019 
L 119.187602 155.464178 
L 119.248475 155.384019 
L 119.278911 155.504258 
L 119.583275 155.584417 
L 119.70502 155.664576 
L 119.857202 155.744735 
L 120.070257 155.864973 
L 120.100693 155.824894 
L 120.161566 155.905053 
L 120.283311 155.945132 
L 120.435493 156.065371 
L 120.557239 156.14553 
L 120.70942 156.265769 
L 121.226839 156.786802 
L 121.287711 156.866961 
L 122.261675 158.309824 
L 124.422657 164.281674 
L 124.72702 165.323741 
L 125.000948 166.325729 
L 125.427057 168.009069 
L 126.431457 172.417816 
L 127.74022 178.750381 
L 128.257639 181.235313 
L 129.201166 185.64406 
L 130.996911 192.29726 
L 132.123057 194.982588 
L 132.42742 195.223065 
L 132.579602 195.263144 
L 132.640475 195.383383 
L 132.701348 195.303224 
L 132.823093 195.383383 
L 132.975275 195.343303 
L 133.005711 195.263144 
L 133.09702 195.303224 
L 133.827493 194.180997 
L 134.405784 192.938532 
L 134.52753 192.657975 
L 134.953639 191.41551 
L 135.349311 190.092886 
L 135.836293 188.04883 
L 135.958039 187.447637 
L 136.262402 185.804378 
L 137.571166 176.465848 
L 139.945202 153.580441 
L 141.22353 137.147836 
L 142.684475 116.466802 
L 146.702075 59.794354 
L 147.858657 46.447873 
L 148.58913 39.033161 
L 150.232693 26.929145 
L 151.328402 23.041431 
L 151.541457 22.760875 
L 151.60233 22.720802 
L 151.754511 22.600553 
L 152.058875 22.360086 
L 152.18062 22.360086 
L 152.454548 22.440245 
L 153.093711 23.442233 
L 153.672002 25.245812 
L 154.128548 27.490268 
L 154.61553 30.616464 
L 155.711239 40.115311 
L 156.86782 53.461796 
L 157.598293 63.401514 
L 158.450511 77.309109 
L 160.520184 117.46879 
L 167.064002 261.474516 
L 168.616257 288.167478 
L 170.35113 309.569947 
L 170.959857 314.820364 
L 171.507711 318.868399 
L 171.903384 321.152929 
L 172.329493 322.836259 
L 173.151275 324.72 
L 173.36433 324.599765 
L 173.455639 324.519606 
L 174.246984 323.317223 
L 174.460039 322.675951 
L 174.551348 322.395397 
L 175.464439 318.347362 
L 176.103602 314.419563 
L 176.773202 309.28939 
L 177.686293 301.273482 
L 180.577748 265.763022 
L 182.951784 229.771617 
L 185.75193 183.72024 
L 187.699857 154.622508 
L 191.565275 105.124297 
L 194.061057 79.954354 
L 196.891639 58.471733 
L 198.078657 51.37766 
L 200.48313 42.319692 
L 200.848366 41.638333 
L 201.091857 41.157382 
L 201.639711 39.95499 
L 201.82233 39.874828 
L 201.944075 39.754592 
L 201.974511 39.834755 
L 202.035384 39.754592 
L 202.309311 39.834755 
L 202.339748 39.874828 
L 202.40062 39.794682 
L 202.674548 39.714519 
L 202.887602 39.594274 
L 202.978911 39.63436 
L 203.009348 39.594274 
L 203.222402 39.674433 
L 203.374584 39.834755 
L 203.435457 39.914914 
L 203.678948 40.115311 
L 203.770257 40.115311 
L 203.952875 40.19547 
L 204.257239 40.275629 
L 204.805093 41.117296 
L 205.048584 41.678406 
L 205.474693 42.359765 
L 205.718184 42.880802 
L 208.122657 49.493923 
L 209.979275 57.189188 
L 210.314075 58.952687 
L 211.288039 63.201117 
L 211.77502 65.686047 
L 212.992475 72.619804 
L 213.388148 75.305136 
L 213.78382 77.910301 
L 215.427384 91.777816 
L 219.931966 140.394277 
L 222.427748 171.25551 
L 227.723675 239.551017 
L 230.706439 269.811057 
L 231.162984 272.776942 
L 232.106511 278.348002 
L 232.28913 279.109506 
L 232.95873 282.075394 
L 233.445711 283.598419 
L 233.750075 284.119443 
L 233.932693 284.520245 
L 233.96313 284.480159 
L 233.993566 284.600404 
L 234.480548 285.20159 
L 234.510984 285.161517 
L 234.663166 285.081355 
L 234.693602 285.121428 
L 234.724039 285.041282 
L 234.937093 284.720639 
L 235.058839 284.64048 
L 235.21102 284.359924 
L 235.728439 283.518257 
L 236.915457 278.388075 
L 237.402439 275.261869 
L 237.919857 271.133684 
L 240.628693 245.20223 
L 242.394002 223.078336 
L 243.185348 212.216779 
L 244.524548 195.062747 
L 245.894184 175.624178 
L 247.811675 147.007399 
L 251.159675 104.362787 
L 251.646657 99.8338 
L 252.559748 92.379009 
L 252.924984 89.894079 
L 253.990257 83.601594 
L 255.694693 77.269029 
L 255.846875 76.908313 
L 256.63822 75.104735 
L 256.942584 74.864258 
L 257.125202 74.784099 
L 257.338257 74.663857 
L 257.551311 74.623777 
L 257.581748 74.543625 
L 257.673057 74.583704 
L 257.825239 74.623777 
L 257.946984 74.70394 
L 258.251348 74.984493 
L 258.281784 74.94442 
L 258.31222 75.064655 
L 258.342657 75.024573 
L 258.525275 75.104735 
L 258.920948 75.184894 
L 259.134002 75.305136 
L 259.164439 75.265056 
L 259.225311 75.345209 
L 259.590548 75.665845 
L 259.773166 75.746004 
L 259.925348 75.906325 
L 260.047093 75.866246 
L 260.199275 76.106723 
L 260.229711 76.06664 
L 260.32102 76.106723 
L 260.503639 76.467439 
L 260.564511 76.547598 
L 261.112366 77.429344 
L 261.538475 78.271017 
L 261.690657 78.631733 
L 262.147202 79.994437 
L 262.573311 81.357137 
L 262.968984 82.880162 
L 264.064693 87.649629 
L 266.164802 99.27269 
L 268.143166 113.019963 
L 269.756293 124.883502 
L 270.852002 132.779168 
L 271.399857 136.827201 
L 272.952111 148.209785 
L 274.169566 155.504258 
L 275.356584 161.19555 
L 277.030584 167.367797 
L 277.15233 167.688432 
L 277.365384 168.409865 
L 277.974111 170.37376 
L 279.465493 174.020998 
L 279.952475 174.822588 
L 280.256839 175.343622 
L 280.287275 175.303541 
L 280.317711 175.3837 
L 281.017748 176.145212 
L 281.109057 176.225371 
L 281.778657 176.986882 
L 281.809093 176.946803 
L 281.869966 177.026962 
L 282.022148 177.107121 
L 282.143893 177.18728 
L 282.17433 177.147199 
L 282.296075 177.18728 
L 282.448257 177.307519 
L 282.722184 177.507915 
L 282.813493 177.467837 
L 282.84393 177.507915 
L 283.239602 177.427756 
L 283.483093 177.22736 
L 283.51353 177.307519 
L 283.604839 177.267439 
L 283.696148 177.18728 
L 283.726584 177.22736 
L 283.909202 177.147199 
L 284.061384 177.06704 
L 284.548366 176.586087 
L 284.639675 176.505928 
L 284.974475 176.185291 
L 285.004911 176.225371 
L 285.065784 176.145212 
L 285.278839 175.864655 
L 285.887566 174.942826 
L 286.10062 174.542031 
L 286.131057 174.582111 
L 286.161493 174.461872 
L 286.52673 173.740441 
L 286.587602 173.660282 
L 286.983275 172.898771 
L 287.287639 172.377737 
L 287.470257 171.976942 
L 287.805057 171.375749 
L 287.987675 171.055113 
L 288.018111 171.055113 
L 288.20073 170.694397 
L 288.292039 170.614238 
L 289.20513 169.532091 
L 289.326875 169.532091 
L 289.479057 169.492011 
L 290.057348 169.411852 
L 290.179093 169.411852 
L 290.392148 169.451932 
L 290.605202 169.732489 
L 291.640039 171.215431 
L 292.035711 172.337657 
L 293.161857 175.584098 
L 293.679275 177.18728 
L 294.22713 178.87062 
L 294.501057 179.792448 
L 295.018475 181.435708 
L 295.657639 183.519845 
L 297.727311 188.690103 
L 297.81862 188.770262 
L 298.031675 189.090898 
L 298.122984 189.171057 
L 298.305602 189.411534 
L 298.396911 189.451614 
L 298.609966 189.852409 
L 298.640402 189.852409 
L 298.82302 190.132965 
L 299.036075 190.413522 
L 299.066511 190.333363 
L 299.127384 190.453602 
L 299.58393 190.493681 
L 299.766548 190.694079 
L 299.796984 190.653999 
L 299.857857 190.734158 
L 300.16222 191.014715 
L 300.25353 190.974635 
L 300.283966 191.014715 
L 300.527457 190.934556 
L 300.801384 190.734158 
L 301.50142 190.694079 
L 301.714475 190.413522 
L 301.83622 190.333363 
L 302.049275 190.012727 
L 302.17102 189.972647 
L 302.323202 189.812329 
L 302.353639 189.852409 
L 302.414511 189.77225 
L 302.59713 189.692091 
L 302.779748 189.491693 
L 302.871057 189.491693 
L 303.053675 189.291295 
L 304.636366 187.046843 
L 305.671202 184.60199 
L 305.792948 184.281354 
L 306.797348 180.714279 
L 306.888657 180.433721 
L 307.558257 177.347597 
L 307.923493 175.584098 
L 308.106111 174.862667 
L 310.510584 161.636425 
L 312.458511 148.089546 
L 313.402039 141.516504 
L 316.050002 124.683104 
L 316.110875 124.442626 
L 316.536984 122.358492 
L 317.358766 118.550938 
L 317.450075 118.270381 
L 319.58062 110.294556 
L 321.68073 105.004056 
L 321.741602 104.923903 
L 321.985093 104.402866 
L 322.319893 103.801673 
L 322.563384 103.280639 
L 322.654693 103.200477 
L 323.293857 102.198489 
L 323.902584 100.875868 
L 325.333093 99.152449 
L 325.820075 99.192528 
L 325.94182 99.27269 
L 325.972257 99.232611 
L 326.03313 99.312763 
L 326.185311 99.392926 
L 327.159275 100.795706 
L 327.341893 101.156425 
L 327.402766 101.236584 
L 329.168075 106.126286 
L 329.472439 107.44891 
L 330.142039 110.535033 
L 334.73793 135.304178 
L 335.133602 137.62879 
L 335.498839 139.512528 
L 338.542475 154.983224 
L 338.633784 155.424099 
L 339.09033 157.748711 
L 339.638184 160.35388 
L 340.33822 163.520162 
L 340.642584 164.602309 
L 342.01222 169.61225 
L 342.10353 169.852727 
L 342.712257 171.856702 
L 342.834002 172.17734 
L 343.077493 172.898771 
L 343.473166 174.020998 
L 343.534039 174.101156 
L 344.538439 176.465848 
L 345.02542 177.267439 
L 345.268911 177.628154 
L 345.36022 177.708313 
L 345.603711 178.069029 
L 345.69502 178.109109 
L 345.877639 178.389665 
L 347.095093 180.113085 
L 347.277711 180.433721 
L 348.069057 181.35555 
L 348.099493 181.31547 
L 348.160366 181.39563 
L 348.434293 181.596029 
L 348.738657 181.676186 
L 348.890839 181.716266 
L 349.37782 181.796424 
L 349.530002 181.836504 
L 351.38662 181.756346 
L 351.599675 181.636106 
L 351.782293 181.555949 
L 352.05622 181.35555 
L 352.177966 181.31547 
L 352.360584 181.074992 
L 352.48233 180.994835 
L 352.695384 180.714279 
L 352.756257 180.634119 
L 352.908439 180.473801 
L 352.969311 180.433721 
L 353.182366 180.153164 
L 353.304111 180.073005 
L 354.552002 178.509904 
L 354.582439 178.549984 
L 354.704184 178.469824 
L 355.130293 178.069029 
L 355.282475 177.98887 
L 355.617275 177.708313 
L 355.678148 177.748394 
L 355.708584 177.668234 
L 355.891202 177.547995 
L 355.982511 177.547995 
L 356.104257 177.467837 
L 356.378184 177.387677 
L 356.560802 177.307519 
L 356.591239 177.347597 
L 356.652111 177.267439 
L 356.926039 177.22736 
L 357.047784 177.147199 
L 357.534766 177.06704 
L 357.565202 176.986882 
L 357.656511 177.026962 
L 358.052184 176.946803 
L 358.265239 176.786485 
L 358.356548 176.786485 
L 358.478293 176.666246 
L 358.50873 176.746405 
L 358.660911 176.666246 
L 358.873966 176.546007 
L 358.904402 176.586087 
L 358.965275 176.505928 
L 359.239202 176.30553 
L 359.330511 176.30553 
L 359.482693 176.145212 
L 359.634875 176.065053 
L 359.75662 175.984895 
L 359.878366 175.944814 
L 360.030548 175.824575 
L 360.152293 175.824575 
L 360.42622 175.624178 
L 360.51753 175.584098 
L 360.76102 175.223383 
L 360.882766 175.183304 
L 361.065384 174.902747 
L 362.130657 173.339646 
L 362.404584 172.858691 
L 362.43502 172.858691 
L 362.648075 172.457896 
L 362.678511 172.457896 
L 362.891566 172.017022 
L 363.10462 171.576147 
L 363.622039 170.494 
L 363.926402 169.932886 
L 364.322075 169.171375 
L 364.626439 168.610261 
L 364.930802 168.089228 
L 366.848293 165.724536 
L 367.000475 165.644377 
L 367.426584 165.243582 
L 367.517893 165.163423 
L 367.88313 164.802707 
L 367.913566 164.842787 
L 367.974439 164.762628 
L 368.187493 164.642389 
L 368.370111 164.56223 
L 368.644039 164.361832 
L 368.765784 164.321753 
L 368.948402 164.081276 
L 368.978839 164.121355 
L 369.039711 164.041196 
L 369.191893 163.961037 
L 369.374511 163.840799 
L 369.496257 163.840799 
L 369.648439 163.760639 
L 369.983239 163.480083 
L 370.104984 163.440004 
L 370.287602 163.239605 
L 370.378911 163.159447 
L 370.80502 162.758651 
L 370.89633 162.678492 
L 371.078948 162.438015 
L 371.170257 162.357856 
L 372.14422 161.235629 
L 372.23553 161.15547 
L 374.092148 158.550301 
L 374.548693 157.628472 
L 374.609566 157.548313 
L 374.82262 157.107439 
L 375.857457 154.662588 
L 375.979202 154.341952 
L 378.17062 148.289943 
L 378.50542 147.328035 
L 378.535857 147.328035 
L 378.748911 146.726842 
L 379.50982 144.482389 
L 379.753311 143.760957 
L 380.301166 142.037537 
L 381.001202 139.712926 
L 381.579493 137.909347 
L 382.309966 135.464496 
L 382.401275 135.183939 
L 382.918693 133.540679 
L 382.918693 133.540679 
" style="fill:none;stroke:#0000ff;stroke-linecap:square;stroke-width:1.5;"/>
   </g>
   <g id="line2d_24">
    <path clip-path="url(#p2ab39e7624)" d="M 78.555057 153.429181 
L 85.159748 153.529379 
L 85.31193 153.529379 
L 85.494548 153.529379 
L 89.23822 153.629578 
L 89.451275 153.649618 
L 99.61702 153.729777 
L 99.799639 153.809936 
L 99.95182 153.809936 
L 100.317057 153.950214 
L 100.408366 153.990294 
L 101.778002 155.012322 
L 102.691093 156.395065 
L 103.604184 158.439121 
L 105.582548 165.332799 
L 106.434766 169.120313 
L 107.621784 174.791566 
L 108.07833 177.03602 
L 108.595748 179.520949 
L 108.74793 180.182262 
L 110.117566 185.993793 
L 111.274148 189.460672 
L 111.33502 189.58091 
L 111.639384 190.202143 
L 112.217675 191.103932 
L 112.887275 191.825363 
L 113.465566 191.725165 
L 114.10473 191.184091 
L 114.561275 190.40254 
L 116.204839 184.65113 
L 117.45273 177.516973 
L 121.318148 146.114667 
L 123.357384 127.076894 
L 125.700984 107.958962 
L 126.674948 102.247627 
L 127.892402 96.396019 
L 128.562002 93.81089 
L 129.292475 91.366043 
L 129.657711 90.504333 
L 129.809893 90.283892 
L 130.08382 89.983296 
L 130.205566 89.883097 
L 130.662111 89.462265 
L 130.905602 89.281907 
L 131.08822 89.281907 
L 131.362148 89.36206 
L 131.544766 89.422186 
L 131.696948 89.402139 
L 131.879566 89.321987 
L 132.305675 88.941228 
L 132.579602 88.861066 
L 132.792657 88.981308 
L 132.944839 89.061467 
L 133.218766 89.241825 
L 133.644875 89.342023 
L 134.223166 89.843017 
L 135.014511 90.704727 
L 135.288439 90.784886 
L 135.410184 90.804923 
L 136.658075 92.267832 
L 137.023311 92.608505 
L 138.45382 95.614472 
L 140.432184 105.253594 
L 141.923566 113.690334 
L 142.89753 120.103057 
L 148.893493 168.338763 
L 150.110948 178.539002 
L 152.484984 196.414469 
L 153.489384 202.306159 
L 154.037239 204.911328 
L 154.706839 207.47642 
L 155.589493 210.001424 
L 156.746075 211.344091 
L 156.95913 211.364134 
L 157.506984 211.263929 
L 158.237457 210.682782 
L 159.333166 208.758962 
L 159.789711 207.997451 
L 160.702802 205.893276 
L 161.159348 204.771049 
L 162.407239 201.043654 
L 162.772475 199.781149 
L 164.416039 192.847391 
L 164.933457 190.42258 
L 165.876984 186.254311 
L 167.24662 180.462819 
L 167.946657 178.138206 
L 168.25102 177.516973 
L 168.738002 176.695343 
L 169.072802 176.254468 
L 169.194548 176.154271 
L 169.559784 176.034031 
L 170.138075 176.13423 
L 170.716366 176.635224 
L 170.990293 177.176298 
L 171.446839 178.298524 
L 172.35993 180.983853 
L 173.546948 186.09399 
L 175.677493 197.877371 
L 178.38633 216.414147 
L 179.147239 221.54433 
L 180.456002 227.856851 
L 182.190875 232.125324 
L 183.07353 233.107269 
L 183.286584 233.007073 
L 183.773566 232.225522 
L 184.41273 230.502103 
L 184.717093 229.399913 
L 185.41713 225.652484 
L 186.42153 217.656616 
L 188.582511 192.266238 
L 189.830402 174.370731 
L 191.321784 149.100592 
L 193.087093 119.642143 
L 195.79593 80.203892 
L 197.37862 63.691132 
L 198.504766 54.332563 
L 199.935275 44.773597 
L 201.15273 38.942027 
L 201.517966 37.899956 
L 202.704984 36.477133 
L 203.526766 37.138448 
L 203.73982 37.3188 
L 204.044184 37.639442 
L 204.348548 38.220595 
L 204.896402 39.964045 
L 205.535566 42.909903 
L 206.144293 47.138289 
L 206.966075 53.23037 
L 208.883566 67.859399 
L 209.52273 73.08978 
L 217.770984 137.397371 
L 218.653639 143.930334 
L 221.027675 160.322858 
L 221.545093 163.589339 
L 222.57993 170.282619 
L 223.645202 176.474906 
L 226.59753 193.308306 
L 227.388875 196.895423 
L 229.336802 204.149817 
L 230.432511 206.734946 
L 231.52822 208.678803 
L 231.680402 208.89924 
L 232.015202 209.520473 
L 234.663166 214.991328 
L 235.758875 217.576457 
L 236.184984 218.317925 
L 236.671966 219.059399 
L 236.732839 219.139561 
L 238.132911 220.802855 
L 238.954693 221.223697 
L 239.715602 221.143534 
L 239.89822 221.083418 
L 241.085239 221.183614 
L 241.541784 221.363972 
L 242.028766 221.444134 
L 242.150511 221.524287 
L 242.180948 221.50425 
L 242.363566 221.584412 
L 242.607057 221.684608 
L 242.789675 221.76477 
L 243.00273 221.864966 
L 243.550584 222.305844 
L 243.824511 222.726675 
L 244.463675 223.7487 
L 244.58542 223.949101 
L 247.416002 229.299717 
L 248.511711 230.562222 
L 248.785639 230.662418 
L 248.968257 230.662418 
L 249.69873 230.562222 
L 250.27702 230.081271 
L 250.672693 229.540198 
L 250.855311 229.31976 
L 251.250984 228.778683 
L 251.585784 228.157451 
L 252.498875 225.452083 
L 253.990257 218.077451 
L 255.116402 210.742898 
L 256.029493 203.368266 
L 257.64262 187.496773 
L 259.529675 165.172481 
L 262.208075 128.459637 
L 264.156002 100.604369 
L 266.377857 72.769137 
L 267.899675 56.977809 
L 268.721457 50.424807 
L 269.421493 45.755542 
L 270.273711 41.827755 
L 270.69982 40.565244 
L 271.217239 39.463051 
L 272.03902 39.042219 
L 272.79993 39.663458 
L 273.499966 41.286675 
L 274.108693 43.190456 
L 274.656548 45.795615 
L 276.026184 54.573031 
L 277.274075 64.412563 
L 279.374184 84.792994 
L 281.200366 104.011126 
L 281.930839 111.766516 
L 284.335311 137.437451 
L 288.170293 174.210414 
L 290.026911 190.302341 
L 291.579166 201.704966 
L 292.309639 206.694863 
L 293.283602 212.386159 
L 294.196693 216.614551 
L 295.261966 219.740751 
L 295.748948 220.742739 
L 296.14462 221.424091 
L 296.540293 222.205638 
L 296.631602 222.36596 
L 297.118584 223.107428 
L 298.214293 223.708627 
L 298.57953 223.608422 
L 299.218693 223.087391 
L 299.431748 222.88699 
L 299.736111 222.586397 
L 300.040475 222.085406 
L 300.344839 221.50425 
L 302.201457 216.313952 
L 302.93193 213.528422 
L 304.118948 206.714906 
L 304.879857 200.983534 
L 306.18862 190.703137 
L 307.010402 184.570969 
L 307.680002 179.460831 
L 309.049639 169.521109 
L 309.719239 165.473077 
L 310.510584 161.304807 
L 311.454111 156.896059 
L 312.062839 154.070453 
L 312.458511 152.387113 
L 313.402039 148.559518 
L 316.445675 136.976537 
L 317.419639 134.15093 
L 317.99793 132.327311 
L 318.393602 131.185046 
L 320.219784 126.676098 
L 320.615457 125.654071 
L 321.498111 123.129061 
L 322.228584 121.445721 
L 322.989493 119.722302 
L 323.293857 119.141149 
L 324.420002 116.676258 
L 326.70273 110.964926 
L 328.407166 107.838723 
L 328.863711 107.077212 
L 329.137639 106.636338 
L 329.38113 106.355781 
L 329.71593 105.934946 
L 330.142039 105.534151 
L 330.476839 105.273631 
L 330.659457 105.173435 
L 330.902948 105.033157 
L 331.05513 105.033157 
L 331.237748 104.973041 
L 331.785602 105.073236 
L 332.790002 105.854787 
L 334.220511 107.918882 
L 334.73793 109.181387 
L 335.65102 111.866715 
L 336.685857 115.513952 
L 337.65982 119.101069 
L 338.877275 124.331447 
L 340.946948 135.79419 
L 344.751493 161.565324 
L 346.973348 179.641188 
L 349.986548 200.682938 
L 350.351784 202.887312 
L 351.934475 211.604608 
L 353.638911 218.959204 
L 355.769457 224.309817 
L 355.891202 224.510211 
L 356.49993 225.15149 
L 356.956475 225.051285 
L 357.230402 224.870927 
L 357.595639 224.530254 
L 359.117457 221.283813 
L 359.42182 220.221702 
L 361.18713 210.362139 
L 363.013311 197.636894 
L 365.478657 177.276497 
L 369.374511 142.988465 
L 372.418148 115.894707 
L 375.187857 98.379956 
L 376.131384 94.552361 
L 377.92713 89.021387 
L 378.718475 87.678723 
L 379.662002 87.177729 
L 380.057675 87.277925 
L 381.153384 88.119598 
L 381.640366 88.941228 
L 382.462148 90.784886 
L 382.918693 92.047391 
L 382.918693 92.047391 
" style="fill:none;stroke:#ff0000;stroke-linecap:square;stroke-width:1.5;"/>
   </g>
   <g id="line2d_25">
    <path clip-path="url(#p2ab39e7624)" d="M 123.753057 162.117379 
" style="fill:none;stroke:#ffffff;stroke-linecap:square;stroke-width:1.5;"/>
    <defs>
     <path d="M 0 -5 
L -1.12257 -1.545085 
L -4.755283 -1.545085 
L -1.816356 0.59017 
L -2.938926 4.045085 
L -0 1.90983 
L 2.938926 4.045085 
L 1.816356 0.59017 
L 4.755283 -1.545085 
L 1.12257 -1.545085 
z
" id="m4af429e71a" style="stroke:#ffffff;stroke-linejoin:bevel;"/>
    </defs>
    <g clip-path="url(#p2ab39e7624)">
     <use style="fill:#0000ff;stroke:#ffffff;stroke-linejoin:bevel;" x="123.753057" xlink:href="#m4af429e71a" y="162.117379"/>
    </g>
   </g>
   <g id="line2d_26">
    <path clip-path="url(#p2ab39e7624)" d="M 103.908548 159.32087 
" style="fill:none;stroke:#ffffff;stroke-linecap:square;stroke-width:1.5;"/>
    <defs>
     <path d="M 0 -5 
L -1.12257 -1.545085 
L -4.755283 -1.545085 
L -1.816356 0.59017 
L -2.938926 4.045085 
L -0 1.90983 
L 2.938926 4.045085 
L 1.816356 0.59017 
L 4.755283 -1.545085 
L 1.12257 -1.545085 
z
" id="m7ccefbc44d" style="stroke:#ffffff;stroke-linejoin:bevel;"/>
    </defs>
    <g clip-path="url(#p2ab39e7624)">
     <use style="fill:#ff0000;stroke:#ffffff;stroke-linejoin:bevel;" x="103.908548" xlink:href="#m7ccefbc44d" y="159.32087"/>
    </g>
   </g>
   <g id="patch_3">
    <path d="M 63.336875 339.84 
L 63.336875 7.2 
" style="fill:none;stroke:#000000;stroke-linecap:square;stroke-linejoin:miter;stroke-width:0.8;"/>
   </g>
   <g id="patch_4">
    <path d="M 398.136875 339.84 
L 398.136875 7.2 
" style="fill:none;stroke:#000000;stroke-linecap:square;stroke-linejoin:miter;stroke-width:0.8;"/>
   </g>
   <g id="patch_5">
    <path d="M 63.336875 339.84 
L 398.136875 339.84 
" style="fill:none;stroke:#000000;stroke-linecap:square;stroke-linejoin:miter;stroke-width:0.8;"/>
   </g>
   <g id="patch_6">
    <path d="M 63.336875 7.2 
L 398.136875 7.2 
" style="fill:none;stroke:#000000;stroke-linecap:square;stroke-linejoin:miter;stroke-width:0.8;"/>
   </g>
   <g id="text_14">
    <g id="patch_7">
     <path d="M 75.036875 331.242688 
L 166.79375 331.242688 
L 166.79375 293.760312 
L 75.036875 293.760312 
z
" style="fill:#ffffff;stroke:#000000;stroke-linejoin:miter;stroke-width:0.75;"/>
    </g>
    <!-- Auto_00142 -->
    <g transform="translate(80.076875 308.521563)scale(0.14 -0.14)">
     <defs>
      <path d="M 2928 1419 
L 1288 1419 
L 1000 750 
Q 894 503 894 381 
Q 894 284 986 211 
Q 1078 138 1384 116 
L 1384 0 
L 50 0 
L 50 116 
Q 316 163 394 238 
Q 553 388 747 847 
L 2238 4334 
L 2347 4334 
L 3822 809 
Q 4000 384 4145 257 
Q 4291 131 4550 116 
L 4550 0 
L 2878 0 
L 2878 116 
Q 3131 128 3220 200 
Q 3309 272 3309 375 
Q 3309 513 3184 809 
L 2928 1419 
z
M 2841 1650 
L 2122 3363 
L 1384 1650 
L 2841 1650 
z
" id="TimesNewRomanPSMT-41" transform="scale(0.015625)"/>
      <path d="M 2709 2863 
L 2709 1128 
Q 2709 631 2732 520 
Q 2756 409 2807 365 
Q 2859 322 2928 322 
Q 3025 322 3147 375 
L 3191 266 
L 2334 -88 
L 2194 -88 
L 2194 519 
Q 1825 119 1631 15 
Q 1438 -88 1222 -88 
Q 981 -88 804 51 
Q 628 191 559 409 
Q 491 628 491 1028 
L 491 2306 
Q 491 2509 447 2587 
Q 403 2666 317 2708 
Q 231 2750 6 2747 
L 6 2863 
L 1009 2863 
L 1009 947 
Q 1009 547 1148 422 
Q 1288 297 1484 297 
Q 1619 297 1789 381 
Q 1959 466 2194 703 
L 2194 2325 
Q 2194 2569 2105 2655 
Q 2016 2741 1734 2747 
L 1734 2863 
L 2709 2863 
z
" id="TimesNewRomanPSMT-75" transform="scale(0.015625)"/>
      <path d="M 3256 -1381 
L -53 -1381 
L -53 -1119 
L 3256 -1119 
L 3256 -1381 
z
" id="TimesNewRomanPSMT-5f" transform="scale(0.015625)"/>
     </defs>
     <use xlink:href="#TimesNewRomanPSMT-41"/>
     <use x="72.216797" xlink:href="#TimesNewRomanPSMT-75"/>
     <use x="122.216797" xlink:href="#TimesNewRomanPSMT-74"/>
     <use x="150" xlink:href="#TimesNewRomanPSMT-6f"/>
     <use x="200" xlink:href="#TimesNewRomanPSMT-5f"/>
     <use x="250" xlink:href="#TimesNewRomanPSMT-30"/>
     <use x="300" xlink:href="#TimesNewRomanPSMT-30"/>
     <use x="350" xlink:href="#TimesNewRomanPSMT-31"/>
     <use x="400" xlink:href="#TimesNewRomanPSMT-34"/>
     <use x="450" xlink:href="#TimesNewRomanPSMT-32"/>
    </g>
    <!-- Vs: 306.55m/s -->
    <g transform="translate(80.076875 323.208)scale(0.14 -0.14)">
     <defs>
      <path d="M 903 2950 
Q 1047 2950 1148 2848 
Q 1250 2747 1250 2603 
Q 1250 2459 1148 2357 
Q 1047 2256 903 2256 
Q 759 2256 657 2357 
Q 556 2459 556 2603 
Q 556 2747 657 2848 
Q 759 2950 903 2950 
z
M 897 609 
Q 1044 609 1145 506 
Q 1247 403 1247 259 
Q 1247 116 1144 14 
Q 1041 -88 897 -88 
Q 753 -88 651 14 
Q 550 116 550 259 
Q 550 403 651 506 
Q 753 609 897 609 
z
" id="TimesNewRomanPSMT-3a" transform="scale(0.015625)"/>
      <path d="M 2869 4325 
L 2869 4209 
Q 2456 4169 2195 4045 
Q 1934 3922 1679 3669 
Q 1425 3416 1258 3105 
Q 1091 2794 978 2366 
Q 1428 2675 1881 2675 
Q 2316 2675 2634 2325 
Q 2953 1975 2953 1425 
Q 2953 894 2631 456 
Q 2244 -75 1606 -75 
Q 1172 -75 869 213 
Q 275 772 275 1663 
Q 275 2231 503 2743 
Q 731 3256 1154 3653 
Q 1578 4050 1965 4187 
Q 2353 4325 2688 4325 
L 2869 4325 
z
M 925 2138 
Q 869 1716 869 1456 
Q 869 1156 980 804 
Q 1091 453 1309 247 
Q 1469 100 1697 100 
Q 1969 100 2183 356 
Q 2397 613 2397 1088 
Q 2397 1622 2184 2012 
Q 1972 2403 1581 2403 
Q 1463 2403 1327 2353 
Q 1191 2303 925 2138 
z
" id="TimesNewRomanPSMT-36" transform="scale(0.015625)"/>
      <path d="M 1794 4444 
L 259 -88 
L 9 -88 
L 1544 4444 
L 1794 4444 
z
" id="TimesNewRomanPSMT-2f" transform="scale(0.015625)"/>
     </defs>
     <use xlink:href="#TimesNewRomanPSMT-56"/>
     <use x="72.216797" xlink:href="#TimesNewRomanPSMT-73"/>
     <use x="111.132812" xlink:href="#TimesNewRomanPSMT-3a"/>
     <use x="138.916016" xlink:href="#TimesNewRomanPSMT-20"/>
     <use x="163.916016" xlink:href="#TimesNewRomanPSMT-33"/>
     <use x="213.916016" xlink:href="#TimesNewRomanPSMT-30"/>
     <use x="263.916016" xlink:href="#TimesNewRomanPSMT-36"/>
     <use x="313.916016" xlink:href="#TimesNewRomanPSMT-2e"/>
     <use x="338.916016" xlink:href="#TimesNewRomanPSMT-35"/>
     <use x="388.916016" xlink:href="#TimesNewRomanPSMT-35"/>
     <use x="438.916016" xlink:href="#TimesNewRomanPSMT-6d"/>
     <use x="516.699219" xlink:href="#TimesNewRomanPSMT-2f"/>
     <use x="544.482422" xlink:href="#TimesNewRomanPSMT-73"/>
    </g>
   </g>
  </g>
 </g>
 <defs>
  <clipPath id="p2ab39e7624">
   <rect height="332.64" width="334.8" x="63.336875" y="7.2"/>
  </clipPath>
 </defs>
</svg>
