<?xml version="1.0" encoding="utf-8" standalone="no"?>
<!DOCTYPE svg PUBLIC "-//W3C//DTD SVG 1.1//EN"
  "http://www.w3.org/Graphics/SVG/1.1/DTD/svg11.dtd">
<svg height="383.471875pt" version="1.1" viewBox="0 0 421.086875 383.471875" width="421.086875pt" xmlns="http://www.w3.org/2000/svg" xmlns:xlink="http://www.w3.org/1999/xlink">
 <metadata>
  <rdf:RDF xmlns:cc="http://creativecommons.org/ns#" xmlns:dc="http://purl.org/dc/elements/1.1/" xmlns:rdf="http://www.w3.org/1999/02/22-rdf-syntax-ns#">
   <cc:Work>
    <dc:type rdf:resource="http://purl.org/dc/dcmitype/StillImage"/>
    <dc:date>2021-06-11T14:39:37.525896</dc:date>
    <dc:format>image/svg+xml</dc:format>
    <dc:creator>
     <cc:Agent>
      <dc:title>Matplotlib v3.4.2, https://matplotlib.org/</dc:title>
     </cc:Agent>
    </dc:creator>
   </cc:Work>
  </rdf:RDF>
 </metadata>
 <defs>
  <style type="text/css">*{stroke-linecap:butt;stroke-linejoin:round;}</style>
 </defs>
 <g id="figure_1">
  <g id="patch_1">
   <path d="M 0 383.471875 
L 421.086875 383.471875 
L 421.086875 0 
L 0 0 
z
" style="fill:#ffffff;"/>
  </g>
  <g id="axes_1">
   <g id="patch_2">
    <path d="M 63.336875 339.84 
L 398.136875 339.84 
L 398.136875 7.2 
L 63.336875 7.2 
z
" style="fill:#ffffff;"/>
   </g>
   <g id="matplotlib.axis_1">
    <g id="xtick_1">
     <g id="line2d_1">
      <path clip-path="url(#p303f2a94e6)" d="M 93.773239 339.84 
L 93.773239 7.2 
" style="fill:none;stroke:#000000;stroke-dasharray:0.5,0.825;stroke-dashoffset:0;stroke-width:0.5;"/>
     </g>
     <g id="line2d_2">
      <defs>
       <path d="M 0 0 
L 0 3.5 
" id="mf56dcaac25" style="stroke:#000000;stroke-width:0.8;"/>
      </defs>
      <g>
       <use style="stroke:#000000;stroke-width:0.8;" x="93.773239" xlink:href="#mf56dcaac25" y="339.84"/>
      </g>
     </g>
     <g id="text_1">
      <!-- 0.000 -->
      <g transform="translate(78.023239 356.56125)scale(0.14 -0.14)">
       <defs>
        <path d="M 231 2094 
Q 231 2819 450 3342 
Q 669 3866 1031 4122 
Q 1313 4325 1613 4325 
Q 2100 4325 2488 3828 
Q 2972 3213 2972 2159 
Q 2972 1422 2759 906 
Q 2547 391 2217 158 
Q 1888 -75 1581 -75 
Q 975 -75 572 641 
Q 231 1244 231 2094 
z
M 844 2016 
Q 844 1141 1059 588 
Q 1238 122 1591 122 
Q 1759 122 1940 273 
Q 2122 425 2216 781 
Q 2359 1319 2359 2297 
Q 2359 3022 2209 3506 
Q 2097 3866 1919 4016 
Q 1791 4119 1609 4119 
Q 1397 4119 1231 3928 
Q 1006 3669 925 3112 
Q 844 2556 844 2016 
z
" id="TimesNewRomanPSMT-30" transform="scale(0.015625)"/>
        <path d="M 800 606 
Q 947 606 1047 504 
Q 1147 403 1147 259 
Q 1147 116 1045 14 
Q 944 -88 800 -88 
Q 656 -88 554 14 
Q 453 116 453 259 
Q 453 406 554 506 
Q 656 606 800 606 
z
" id="TimesNewRomanPSMT-2e" transform="scale(0.015625)"/>
       </defs>
       <use xlink:href="#TimesNewRomanPSMT-30"/>
       <use x="50" xlink:href="#TimesNewRomanPSMT-2e"/>
       <use x="75" xlink:href="#TimesNewRomanPSMT-30"/>
       <use x="125" xlink:href="#TimesNewRomanPSMT-30"/>
       <use x="175" xlink:href="#TimesNewRomanPSMT-30"/>
      </g>
     </g>
    </g>
    <g id="xtick_2">
     <g id="line2d_3">
      <path clip-path="url(#p303f2a94e6)" d="M 154.645966 339.84 
L 154.645966 7.2 
" style="fill:none;stroke:#000000;stroke-dasharray:0.5,0.825;stroke-dashoffset:0;stroke-width:0.5;"/>
     </g>
     <g id="line2d_4">
      <g>
       <use style="stroke:#000000;stroke-width:0.8;" x="154.645966" xlink:href="#mf56dcaac25" y="339.84"/>
      </g>
     </g>
     <g id="text_2">
      <!-- 0.001 -->
      <g transform="translate(138.895966 356.56125)scale(0.14 -0.14)">
       <defs>
        <path d="M 750 3822 
L 1781 4325 
L 1884 4325 
L 1884 747 
Q 1884 391 1914 303 
Q 1944 216 2037 169 
Q 2131 122 2419 116 
L 2419 0 
L 825 0 
L 825 116 
Q 1125 122 1212 167 
Q 1300 213 1334 289 
Q 1369 366 1369 747 
L 1369 3034 
Q 1369 3497 1338 3628 
Q 1316 3728 1258 3775 
Q 1200 3822 1119 3822 
Q 1003 3822 797 3725 
L 750 3822 
z
" id="TimesNewRomanPSMT-31" transform="scale(0.015625)"/>
       </defs>
       <use xlink:href="#TimesNewRomanPSMT-30"/>
       <use x="50" xlink:href="#TimesNewRomanPSMT-2e"/>
       <use x="75" xlink:href="#TimesNewRomanPSMT-30"/>
       <use x="125" xlink:href="#TimesNewRomanPSMT-30"/>
       <use x="175" xlink:href="#TimesNewRomanPSMT-31"/>
      </g>
     </g>
    </g>
    <g id="xtick_3">
     <g id="line2d_5">
      <path clip-path="url(#p303f2a94e6)" d="M 215.518693 339.84 
L 215.518693 7.2 
" style="fill:none;stroke:#000000;stroke-dasharray:0.5,0.825;stroke-dashoffset:0;stroke-width:0.5;"/>
     </g>
     <g id="line2d_6">
      <g>
       <use style="stroke:#000000;stroke-width:0.8;" x="215.518693" xlink:href="#mf56dcaac25" y="339.84"/>
      </g>
     </g>
     <g id="text_3">
      <!-- 0.002 -->
      <g transform="translate(199.768693 356.56125)scale(0.14 -0.14)">
       <defs>
        <path d="M 2934 816 
L 2638 0 
L 138 0 
L 138 116 
Q 1241 1122 1691 1759 
Q 2141 2397 2141 2925 
Q 2141 3328 1894 3587 
Q 1647 3847 1303 3847 
Q 991 3847 742 3664 
Q 494 3481 375 3128 
L 259 3128 
Q 338 3706 661 4015 
Q 984 4325 1469 4325 
Q 1984 4325 2329 3994 
Q 2675 3663 2675 3213 
Q 2675 2891 2525 2569 
Q 2294 2063 1775 1497 
Q 997 647 803 472 
L 1909 472 
Q 2247 472 2383 497 
Q 2519 522 2628 598 
Q 2738 675 2819 816 
L 2934 816 
z
" id="TimesNewRomanPSMT-32" transform="scale(0.015625)"/>
       </defs>
       <use xlink:href="#TimesNewRomanPSMT-30"/>
       <use x="50" xlink:href="#TimesNewRomanPSMT-2e"/>
       <use x="75" xlink:href="#TimesNewRomanPSMT-30"/>
       <use x="125" xlink:href="#TimesNewRomanPSMT-30"/>
       <use x="175" xlink:href="#TimesNewRomanPSMT-32"/>
      </g>
     </g>
    </g>
    <g id="xtick_4">
     <g id="line2d_7">
      <path clip-path="url(#p303f2a94e6)" d="M 276.39142 339.84 
L 276.39142 7.2 
" style="fill:none;stroke:#000000;stroke-dasharray:0.5,0.825;stroke-dashoffset:0;stroke-width:0.5;"/>
     </g>
     <g id="line2d_8">
      <g>
       <use style="stroke:#000000;stroke-width:0.8;" x="276.39142" xlink:href="#mf56dcaac25" y="339.84"/>
      </g>
     </g>
     <g id="text_4">
      <!-- 0.003 -->
      <g transform="translate(260.64142 356.56125)scale(0.14 -0.14)">
       <defs>
        <path d="M 325 3431 
Q 506 3859 782 4092 
Q 1059 4325 1472 4325 
Q 1981 4325 2253 3994 
Q 2459 3747 2459 3466 
Q 2459 3003 1878 2509 
Q 2269 2356 2469 2072 
Q 2669 1788 2669 1403 
Q 2669 853 2319 450 
Q 1863 -75 997 -75 
Q 569 -75 414 31 
Q 259 138 259 259 
Q 259 350 332 419 
Q 406 488 509 488 
Q 588 488 669 463 
Q 722 447 909 348 
Q 1097 250 1169 231 
Q 1284 197 1416 197 
Q 1734 197 1970 444 
Q 2206 691 2206 1028 
Q 2206 1275 2097 1509 
Q 2016 1684 1919 1775 
Q 1784 1900 1550 2001 
Q 1316 2103 1072 2103 
L 972 2103 
L 972 2197 
Q 1219 2228 1467 2375 
Q 1716 2522 1828 2728 
Q 1941 2934 1941 3181 
Q 1941 3503 1739 3701 
Q 1538 3900 1238 3900 
Q 753 3900 428 3381 
L 325 3431 
z
" id="TimesNewRomanPSMT-33" transform="scale(0.015625)"/>
       </defs>
       <use xlink:href="#TimesNewRomanPSMT-30"/>
       <use x="50" xlink:href="#TimesNewRomanPSMT-2e"/>
       <use x="75" xlink:href="#TimesNewRomanPSMT-30"/>
       <use x="125" xlink:href="#TimesNewRomanPSMT-30"/>
       <use x="175" xlink:href="#TimesNewRomanPSMT-33"/>
      </g>
     </g>
    </g>
    <g id="xtick_5">
     <g id="line2d_9">
      <path clip-path="url(#p303f2a94e6)" d="M 337.264148 339.84 
L 337.264148 7.2 
" style="fill:none;stroke:#000000;stroke-dasharray:0.5,0.825;stroke-dashoffset:0;stroke-width:0.5;"/>
     </g>
     <g id="line2d_10">
      <g>
       <use style="stroke:#000000;stroke-width:0.8;" x="337.264148" xlink:href="#mf56dcaac25" y="339.84"/>
      </g>
     </g>
     <g id="text_5">
      <!-- 0.004 -->
      <g transform="translate(321.514148 356.56125)scale(0.14 -0.14)">
       <defs>
        <path d="M 2978 1563 
L 2978 1119 
L 2409 1119 
L 2409 0 
L 1894 0 
L 1894 1119 
L 100 1119 
L 100 1519 
L 2066 4325 
L 2409 4325 
L 2409 1563 
L 2978 1563 
z
M 1894 1563 
L 1894 3666 
L 406 1563 
L 1894 1563 
z
" id="TimesNewRomanPSMT-34" transform="scale(0.015625)"/>
       </defs>
       <use xlink:href="#TimesNewRomanPSMT-30"/>
       <use x="50" xlink:href="#TimesNewRomanPSMT-2e"/>
       <use x="75" xlink:href="#TimesNewRomanPSMT-30"/>
       <use x="125" xlink:href="#TimesNewRomanPSMT-30"/>
       <use x="175" xlink:href="#TimesNewRomanPSMT-34"/>
      </g>
     </g>
    </g>
    <g id="xtick_6">
     <g id="line2d_11">
      <path clip-path="url(#p303f2a94e6)" d="M 398.136875 339.84 
L 398.136875 7.2 
" style="fill:none;stroke:#000000;stroke-dasharray:0.5,0.825;stroke-dashoffset:0;stroke-width:0.5;"/>
     </g>
     <g id="line2d_12">
      <g>
       <use style="stroke:#000000;stroke-width:0.8;" x="398.136875" xlink:href="#mf56dcaac25" y="339.84"/>
      </g>
     </g>
     <g id="text_6">
      <!-- 0.005 -->
      <g transform="translate(382.386875 356.56125)scale(0.14 -0.14)">
       <defs>
        <path d="M 2778 4238 
L 2534 3706 
L 1259 3706 
L 981 3138 
Q 1809 3016 2294 2522 
Q 2709 2097 2709 1522 
Q 2709 1188 2573 903 
Q 2438 619 2231 419 
Q 2025 219 1772 97 
Q 1413 -75 1034 -75 
Q 653 -75 479 54 
Q 306 184 306 341 
Q 306 428 378 495 
Q 450 563 559 563 
Q 641 563 702 538 
Q 763 513 909 409 
Q 1144 247 1384 247 
Q 1750 247 2026 523 
Q 2303 800 2303 1197 
Q 2303 1581 2056 1914 
Q 1809 2247 1375 2428 
Q 1034 2569 447 2591 
L 1259 4238 
L 2778 4238 
z
" id="TimesNewRomanPSMT-35" transform="scale(0.015625)"/>
       </defs>
       <use xlink:href="#TimesNewRomanPSMT-30"/>
       <use x="50" xlink:href="#TimesNewRomanPSMT-2e"/>
       <use x="75" xlink:href="#TimesNewRomanPSMT-30"/>
       <use x="125" xlink:href="#TimesNewRomanPSMT-30"/>
       <use x="175" xlink:href="#TimesNewRomanPSMT-35"/>
      </g>
     </g>
    </g>
    <g id="text_7">
     <!-- Time (sec) -->
     <g transform="translate(200.858906 373.277188)scale(0.14 -0.14)">
      <defs>
       <path d="M 3703 4238 
L 3750 3244 
L 3631 3244 
Q 3597 3506 3538 3619 
Q 3441 3800 3280 3886 
Q 3119 3972 2856 3972 
L 2259 3972 
L 2259 734 
Q 2259 344 2344 247 
Q 2463 116 2709 116 
L 2856 116 
L 2856 0 
L 1059 0 
L 1059 116 
L 1209 116 
Q 1478 116 1591 278 
Q 1659 378 1659 734 
L 1659 3972 
L 1150 3972 
Q 853 3972 728 3928 
Q 566 3869 450 3700 
Q 334 3531 313 3244 
L 194 3244 
L 244 4238 
L 3703 4238 
z
" id="TimesNewRomanPSMT-54" transform="scale(0.015625)"/>
       <path d="M 928 4444 
Q 1059 4444 1151 4351 
Q 1244 4259 1244 4128 
Q 1244 3997 1151 3903 
Q 1059 3809 928 3809 
Q 797 3809 703 3903 
Q 609 3997 609 4128 
Q 609 4259 701 4351 
Q 794 4444 928 4444 
z
M 1188 2947 
L 1188 647 
Q 1188 378 1227 289 
Q 1266 200 1342 156 
Q 1419 113 1622 113 
L 1622 0 
L 231 0 
L 231 113 
Q 441 113 512 153 
Q 584 194 626 287 
Q 669 381 669 647 
L 669 1750 
Q 669 2216 641 2353 
Q 619 2453 572 2492 
Q 525 2531 444 2531 
Q 356 2531 231 2484 
L 188 2597 
L 1050 2947 
L 1188 2947 
z
" id="TimesNewRomanPSMT-69" transform="scale(0.015625)"/>
       <path d="M 1050 2338 
Q 1363 2650 1419 2697 
Q 1559 2816 1721 2881 
Q 1884 2947 2044 2947 
Q 2313 2947 2506 2790 
Q 2700 2634 2766 2338 
Q 3088 2713 3309 2830 
Q 3531 2947 3766 2947 
Q 3994 2947 4170 2830 
Q 4347 2713 4450 2447 
Q 4519 2266 4519 1878 
L 4519 647 
Q 4519 378 4559 278 
Q 4591 209 4675 161 
Q 4759 113 4950 113 
L 4950 0 
L 3538 0 
L 3538 113 
L 3597 113 
Q 3781 113 3884 184 
Q 3956 234 3988 344 
Q 4000 397 4000 647 
L 4000 1878 
Q 4000 2228 3916 2372 
Q 3794 2572 3525 2572 
Q 3359 2572 3192 2489 
Q 3025 2406 2788 2181 
L 2781 2147 
L 2788 2013 
L 2788 647 
Q 2788 353 2820 281 
Q 2853 209 2943 161 
Q 3034 113 3253 113 
L 3253 0 
L 1806 0 
L 1806 113 
Q 2044 113 2133 169 
Q 2222 225 2256 338 
Q 2272 391 2272 647 
L 2272 1878 
Q 2272 2228 2169 2381 
Q 2031 2581 1784 2581 
Q 1616 2581 1450 2491 
Q 1191 2353 1050 2181 
L 1050 647 
Q 1050 366 1089 281 
Q 1128 197 1204 155 
Q 1281 113 1516 113 
L 1516 0 
L 100 0 
L 100 113 
Q 297 113 375 155 
Q 453 197 493 289 
Q 534 381 534 647 
L 534 1741 
Q 534 2213 506 2350 
Q 484 2453 437 2492 
Q 391 2531 309 2531 
Q 222 2531 100 2484 
L 53 2597 
L 916 2947 
L 1050 2947 
L 1050 2338 
z
" id="TimesNewRomanPSMT-6d" transform="scale(0.015625)"/>
       <path d="M 681 1784 
Q 678 1147 991 784 
Q 1303 422 1725 422 
Q 2006 422 2214 576 
Q 2422 731 2563 1106 
L 2659 1044 
Q 2594 616 2278 264 
Q 1963 -88 1488 -88 
Q 972 -88 605 314 
Q 238 716 238 1394 
Q 238 2128 614 2539 
Q 991 2950 1559 2950 
Q 2041 2950 2350 2633 
Q 2659 2316 2659 1784 
L 681 1784 
z
M 681 1966 
L 2006 1966 
Q 1991 2241 1941 2353 
Q 1863 2528 1708 2628 
Q 1553 2728 1384 2728 
Q 1125 2728 920 2526 
Q 716 2325 681 1966 
z
" id="TimesNewRomanPSMT-65" transform="scale(0.015625)"/>
       <path id="TimesNewRomanPSMT-20" transform="scale(0.015625)"/>
       <path d="M 1988 -1253 
L 1988 -1369 
Q 1516 -1131 1200 -813 
Q 750 -359 506 256 
Q 263 872 263 1534 
Q 263 2503 741 3301 
Q 1219 4100 1988 4444 
L 1988 4313 
Q 1603 4100 1356 3731 
Q 1109 3363 987 2797 
Q 866 2231 866 1616 
Q 866 947 969 400 
Q 1050 -31 1165 -292 
Q 1281 -553 1476 -793 
Q 1672 -1034 1988 -1253 
z
" id="TimesNewRomanPSMT-28" transform="scale(0.015625)"/>
       <path d="M 2050 2947 
L 2050 1972 
L 1947 1972 
Q 1828 2431 1642 2597 
Q 1456 2763 1169 2763 
Q 950 2763 815 2647 
Q 681 2531 681 2391 
Q 681 2216 781 2091 
Q 878 1963 1175 1819 
L 1631 1597 
Q 2266 1288 2266 781 
Q 2266 391 1970 151 
Q 1675 -88 1309 -88 
Q 1047 -88 709 6 
Q 606 38 541 38 
Q 469 38 428 -44 
L 325 -44 
L 325 978 
L 428 978 
Q 516 541 762 319 
Q 1009 97 1316 97 
Q 1531 97 1667 223 
Q 1803 350 1803 528 
Q 1803 744 1651 891 
Q 1500 1038 1047 1263 
Q 594 1488 453 1669 
Q 313 1847 313 2119 
Q 313 2472 555 2709 
Q 797 2947 1181 2947 
Q 1350 2947 1591 2875 
Q 1750 2828 1803 2828 
Q 1853 2828 1881 2850 
Q 1909 2872 1947 2947 
L 2050 2947 
z
" id="TimesNewRomanPSMT-73" transform="scale(0.015625)"/>
       <path d="M 2631 1088 
Q 2516 522 2178 217 
Q 1841 -88 1431 -88 
Q 944 -88 581 321 
Q 219 731 219 1428 
Q 219 2103 620 2525 
Q 1022 2947 1584 2947 
Q 2006 2947 2278 2723 
Q 2550 2500 2550 2259 
Q 2550 2141 2473 2067 
Q 2397 1994 2259 1994 
Q 2075 1994 1981 2113 
Q 1928 2178 1911 2362 
Q 1894 2547 1784 2644 
Q 1675 2738 1481 2738 
Q 1169 2738 978 2506 
Q 725 2200 725 1697 
Q 725 1184 976 792 
Q 1228 400 1656 400 
Q 1963 400 2206 609 
Q 2378 753 2541 1131 
L 2631 1088 
z
" id="TimesNewRomanPSMT-63" transform="scale(0.015625)"/>
       <path d="M 144 4313 
L 144 4444 
Q 619 4209 934 3891 
Q 1381 3434 1625 2820 
Q 1869 2206 1869 1541 
Q 1869 572 1392 -226 
Q 916 -1025 144 -1369 
L 144 -1253 
Q 528 -1038 776 -670 
Q 1025 -303 1145 264 
Q 1266 831 1266 1447 
Q 1266 2113 1163 2663 
Q 1084 3094 967 3353 
Q 850 3613 656 3853 
Q 463 4094 144 4313 
z
" id="TimesNewRomanPSMT-29" transform="scale(0.015625)"/>
      </defs>
      <use xlink:href="#TimesNewRomanPSMT-54"/>
      <use x="57.583984" xlink:href="#TimesNewRomanPSMT-69"/>
      <use x="85.367188" xlink:href="#TimesNewRomanPSMT-6d"/>
      <use x="163.150391" xlink:href="#TimesNewRomanPSMT-65"/>
      <use x="207.535156" xlink:href="#TimesNewRomanPSMT-20"/>
      <use x="232.535156" xlink:href="#TimesNewRomanPSMT-28"/>
      <use x="265.835938" xlink:href="#TimesNewRomanPSMT-73"/>
      <use x="304.751953" xlink:href="#TimesNewRomanPSMT-65"/>
      <use x="349.136719" xlink:href="#TimesNewRomanPSMT-63"/>
      <use x="393.521484" xlink:href="#TimesNewRomanPSMT-29"/>
     </g>
    </g>
   </g>
   <g id="matplotlib.axis_2">
    <g id="ytick_1">
     <g id="line2d_13">
      <path clip-path="url(#p303f2a94e6)" d="M 63.336875 324.483975 
L 398.136875 324.483975 
" style="fill:none;stroke:#000000;stroke-dasharray:0.5,0.825;stroke-dashoffset:0;stroke-width:0.5;"/>
     </g>
     <g id="line2d_14">
      <defs>
       <path d="M 0 0 
L -3.5 0 
" id="m4a70983fa8" style="stroke:#000000;stroke-width:0.8;"/>
      </defs>
      <g>
       <use style="stroke:#000000;stroke-width:0.8;" x="63.336875" xlink:href="#m4a70983fa8" y="324.483975"/>
      </g>
     </g>
     <g id="text_8">
      <!-- −0.06 -->
      <g transform="translate(23.942188 329.3446)scale(0.14 -0.14)">
       <defs>
        <path d="M 3484 2000 
L 116 2000 
L 116 2256 
L 3484 2256 
L 3484 2000 
z
" id="TimesNewRomanPSMT-2212" transform="scale(0.015625)"/>
        <path d="M 2869 4325 
L 2869 4209 
Q 2456 4169 2195 4045 
Q 1934 3922 1679 3669 
Q 1425 3416 1258 3105 
Q 1091 2794 978 2366 
Q 1428 2675 1881 2675 
Q 2316 2675 2634 2325 
Q 2953 1975 2953 1425 
Q 2953 894 2631 456 
Q 2244 -75 1606 -75 
Q 1172 -75 869 213 
Q 275 772 275 1663 
Q 275 2231 503 2743 
Q 731 3256 1154 3653 
Q 1578 4050 1965 4187 
Q 2353 4325 2688 4325 
L 2869 4325 
z
M 925 2138 
Q 869 1716 869 1456 
Q 869 1156 980 804 
Q 1091 453 1309 247 
Q 1469 100 1697 100 
Q 1969 100 2183 356 
Q 2397 613 2397 1088 
Q 2397 1622 2184 2012 
Q 1972 2403 1581 2403 
Q 1463 2403 1327 2353 
Q 1191 2303 925 2138 
z
" id="TimesNewRomanPSMT-36" transform="scale(0.015625)"/>
       </defs>
       <use xlink:href="#TimesNewRomanPSMT-2212"/>
       <use x="56.396484" xlink:href="#TimesNewRomanPSMT-30"/>
       <use x="106.396484" xlink:href="#TimesNewRomanPSMT-2e"/>
       <use x="131.396484" xlink:href="#TimesNewRomanPSMT-30"/>
       <use x="181.396484" xlink:href="#TimesNewRomanPSMT-36"/>
      </g>
     </g>
    </g>
    <g id="ytick_2">
     <g id="line2d_15">
      <path clip-path="url(#p303f2a94e6)" d="M 63.336875 268.254123 
L 398.136875 268.254123 
" style="fill:none;stroke:#000000;stroke-dasharray:0.5,0.825;stroke-dashoffset:0;stroke-width:0.5;"/>
     </g>
     <g id="line2d_16">
      <g>
       <use style="stroke:#000000;stroke-width:0.8;" x="63.336875" xlink:href="#m4a70983fa8" y="268.254123"/>
      </g>
     </g>
     <g id="text_9">
      <!-- −0.04 -->
      <g transform="translate(23.942188 273.114748)scale(0.14 -0.14)">
       <use xlink:href="#TimesNewRomanPSMT-2212"/>
       <use x="56.396484" xlink:href="#TimesNewRomanPSMT-30"/>
       <use x="106.396484" xlink:href="#TimesNewRomanPSMT-2e"/>
       <use x="131.396484" xlink:href="#TimesNewRomanPSMT-30"/>
       <use x="181.396484" xlink:href="#TimesNewRomanPSMT-34"/>
      </g>
     </g>
    </g>
    <g id="ytick_3">
     <g id="line2d_17">
      <path clip-path="url(#p303f2a94e6)" d="M 63.336875 212.02427 
L 398.136875 212.02427 
" style="fill:none;stroke:#000000;stroke-dasharray:0.5,0.825;stroke-dashoffset:0;stroke-width:0.5;"/>
     </g>
     <g id="line2d_18">
      <g>
       <use style="stroke:#000000;stroke-width:0.8;" x="63.336875" xlink:href="#m4a70983fa8" y="212.02427"/>
      </g>
     </g>
     <g id="text_10">
      <!-- −0.02 -->
      <g transform="translate(23.942188 216.884895)scale(0.14 -0.14)">
       <use xlink:href="#TimesNewRomanPSMT-2212"/>
       <use x="56.396484" xlink:href="#TimesNewRomanPSMT-30"/>
       <use x="106.396484" xlink:href="#TimesNewRomanPSMT-2e"/>
       <use x="131.396484" xlink:href="#TimesNewRomanPSMT-30"/>
       <use x="181.396484" xlink:href="#TimesNewRomanPSMT-32"/>
      </g>
     </g>
    </g>
    <g id="ytick_4">
     <g id="line2d_19">
      <path clip-path="url(#p303f2a94e6)" d="M 63.336875 155.794418 
L 398.136875 155.794418 
" style="fill:none;stroke:#000000;stroke-dasharray:0.5,0.825;stroke-dashoffset:0;stroke-width:0.5;"/>
     </g>
     <g id="line2d_20">
      <g>
       <use style="stroke:#000000;stroke-width:0.8;" x="63.336875" xlink:href="#m4a70983fa8" y="155.794418"/>
      </g>
     </g>
     <g id="text_11">
      <!-- 0.00 -->
      <g transform="translate(31.836875 160.655043)scale(0.14 -0.14)">
       <use xlink:href="#TimesNewRomanPSMT-30"/>
       <use x="50" xlink:href="#TimesNewRomanPSMT-2e"/>
       <use x="75" xlink:href="#TimesNewRomanPSMT-30"/>
       <use x="125" xlink:href="#TimesNewRomanPSMT-30"/>
      </g>
     </g>
    </g>
    <g id="ytick_5">
     <g id="line2d_21">
      <path clip-path="url(#p303f2a94e6)" d="M 63.336875 99.564565 
L 398.136875 99.564565 
" style="fill:none;stroke:#000000;stroke-dasharray:0.5,0.825;stroke-dashoffset:0;stroke-width:0.5;"/>
     </g>
     <g id="line2d_22">
      <g>
       <use style="stroke:#000000;stroke-width:0.8;" x="63.336875" xlink:href="#m4a70983fa8" y="99.564565"/>
      </g>
     </g>
     <g id="text_12">
      <!-- 0.02 -->
      <g transform="translate(31.836875 104.42519)scale(0.14 -0.14)">
       <use xlink:href="#TimesNewRomanPSMT-30"/>
       <use x="50" xlink:href="#TimesNewRomanPSMT-2e"/>
       <use x="75" xlink:href="#TimesNewRomanPSMT-30"/>
       <use x="125" xlink:href="#TimesNewRomanPSMT-32"/>
      </g>
     </g>
    </g>
    <g id="ytick_6">
     <g id="line2d_23">
      <path clip-path="url(#p303f2a94e6)" d="M 63.336875 43.334713 
L 398.136875 43.334713 
" style="fill:none;stroke:#000000;stroke-dasharray:0.5,0.825;stroke-dashoffset:0;stroke-width:0.5;"/>
     </g>
     <g id="line2d_24">
      <g>
       <use style="stroke:#000000;stroke-width:0.8;" x="63.336875" xlink:href="#m4a70983fa8" y="43.334713"/>
      </g>
     </g>
     <g id="text_13">
      <!-- 0.04 -->
      <g transform="translate(31.836875 48.195338)scale(0.14 -0.14)">
       <use xlink:href="#TimesNewRomanPSMT-30"/>
       <use x="50" xlink:href="#TimesNewRomanPSMT-2e"/>
       <use x="75" xlink:href="#TimesNewRomanPSMT-30"/>
       <use x="125" xlink:href="#TimesNewRomanPSMT-34"/>
      </g>
     </g>
    </g>
    <g id="text_14">
     <!-- Volatage (V) -->
     <g transform="translate(16.92125 209.352344)rotate(-90)scale(0.14 -0.14)">
      <defs>
       <path d="M 4544 4238 
L 4544 4122 
Q 4319 4081 4203 3978 
Q 4038 3825 3909 3509 
L 2431 -97 
L 2316 -97 
L 728 3556 
Q 606 3838 556 3900 
Q 478 3997 364 4051 
Q 250 4106 56 4122 
L 56 4238 
L 1788 4238 
L 1788 4122 
Q 1494 4094 1406 4022 
Q 1319 3950 1319 3838 
Q 1319 3681 1463 3350 
L 2541 866 
L 3541 3319 
Q 3688 3681 3688 3822 
Q 3688 3913 3597 3995 
Q 3506 4078 3291 4113 
Q 3275 4116 3238 4122 
L 3238 4238 
L 4544 4238 
z
" id="TimesNewRomanPSMT-56" transform="scale(0.015625)"/>
       <path d="M 1600 2947 
Q 2250 2947 2644 2453 
Q 2978 2031 2978 1484 
Q 2978 1100 2793 706 
Q 2609 313 2286 112 
Q 1963 -88 1566 -88 
Q 919 -88 538 428 
Q 216 863 216 1403 
Q 216 1797 411 2186 
Q 606 2575 925 2761 
Q 1244 2947 1600 2947 
z
M 1503 2744 
Q 1338 2744 1170 2645 
Q 1003 2547 900 2300 
Q 797 2053 797 1666 
Q 797 1041 1045 587 
Q 1294 134 1700 134 
Q 2003 134 2200 384 
Q 2397 634 2397 1244 
Q 2397 2006 2069 2444 
Q 1847 2744 1503 2744 
z
" id="TimesNewRomanPSMT-6f" transform="scale(0.015625)"/>
       <path d="M 1184 4444 
L 1184 647 
Q 1184 378 1223 290 
Q 1263 203 1344 158 
Q 1425 113 1647 113 
L 1647 0 
L 244 0 
L 244 113 
Q 441 113 512 153 
Q 584 194 625 287 
Q 666 381 666 647 
L 666 3247 
Q 666 3731 644 3842 
Q 622 3953 573 3993 
Q 525 4034 450 4034 
Q 369 4034 244 3984 
L 191 4094 
L 1044 4444 
L 1184 4444 
z
" id="TimesNewRomanPSMT-6c" transform="scale(0.015625)"/>
       <path d="M 1822 413 
Q 1381 72 1269 19 
Q 1100 -59 909 -59 
Q 613 -59 420 144 
Q 228 347 228 678 
Q 228 888 322 1041 
Q 450 1253 767 1440 
Q 1084 1628 1822 1897 
L 1822 2009 
Q 1822 2438 1686 2597 
Q 1550 2756 1291 2756 
Q 1094 2756 978 2650 
Q 859 2544 859 2406 
L 866 2225 
Q 866 2081 792 2003 
Q 719 1925 600 1925 
Q 484 1925 411 2006 
Q 338 2088 338 2228 
Q 338 2497 613 2722 
Q 888 2947 1384 2947 
Q 1766 2947 2009 2819 
Q 2194 2722 2281 2516 
Q 2338 2381 2338 1966 
L 2338 994 
Q 2338 584 2353 492 
Q 2369 400 2405 369 
Q 2441 338 2488 338 
Q 2538 338 2575 359 
Q 2641 400 2828 588 
L 2828 413 
Q 2478 -56 2159 -56 
Q 2006 -56 1915 50 
Q 1825 156 1822 413 
z
M 1822 616 
L 1822 1706 
Q 1350 1519 1213 1441 
Q 966 1303 859 1153 
Q 753 1003 753 825 
Q 753 600 887 451 
Q 1022 303 1197 303 
Q 1434 303 1822 616 
z
" id="TimesNewRomanPSMT-61" transform="scale(0.015625)"/>
       <path d="M 1031 3803 
L 1031 2863 
L 1700 2863 
L 1700 2644 
L 1031 2644 
L 1031 788 
Q 1031 509 1111 412 
Q 1191 316 1316 316 
Q 1419 316 1516 380 
Q 1613 444 1666 569 
L 1788 569 
Q 1678 263 1478 108 
Q 1278 -47 1066 -47 
Q 922 -47 784 33 
Q 647 113 581 261 
Q 516 409 516 719 
L 516 2644 
L 63 2644 
L 63 2747 
Q 234 2816 414 2980 
Q 594 3144 734 3369 
Q 806 3488 934 3803 
L 1031 3803 
z
" id="TimesNewRomanPSMT-74" transform="scale(0.015625)"/>
       <path d="M 966 1044 
Q 703 1172 562 1401 
Q 422 1631 422 1909 
Q 422 2334 742 2640 
Q 1063 2947 1563 2947 
Q 1972 2947 2272 2747 
L 2878 2747 
Q 3013 2747 3034 2739 
Q 3056 2731 3066 2713 
Q 3084 2684 3084 2613 
Q 3084 2531 3069 2500 
Q 3059 2484 3036 2475 
Q 3013 2466 2878 2466 
L 2506 2466 
Q 2681 2241 2681 1891 
Q 2681 1491 2375 1206 
Q 2069 922 1553 922 
Q 1341 922 1119 984 
Q 981 866 932 777 
Q 884 688 884 625 
Q 884 572 936 522 
Q 988 472 1138 450 
Q 1225 438 1575 428 
Q 2219 413 2409 384 
Q 2700 344 2873 169 
Q 3047 -6 3047 -263 
Q 3047 -616 2716 -925 
Q 2228 -1381 1444 -1381 
Q 841 -1381 425 -1109 
Q 191 -953 191 -784 
Q 191 -709 225 -634 
Q 278 -519 444 -313 
Q 466 -284 763 25 
Q 600 122 533 198 
Q 466 275 466 372 
Q 466 481 555 628 
Q 644 775 966 1044 
z
M 1509 2797 
Q 1278 2797 1122 2612 
Q 966 2428 966 2047 
Q 966 1553 1178 1281 
Q 1341 1075 1591 1075 
Q 1828 1075 1981 1253 
Q 2134 1431 2134 1813 
Q 2134 2309 1919 2591 
Q 1759 2797 1509 2797 
z
M 934 0 
Q 788 -159 713 -296 
Q 638 -434 638 -550 
Q 638 -700 819 -813 
Q 1131 -1006 1722 -1006 
Q 2284 -1006 2551 -807 
Q 2819 -609 2819 -384 
Q 2819 -222 2659 -153 
Q 2497 -84 2016 -72 
Q 1313 -53 934 0 
z
" id="TimesNewRomanPSMT-67" transform="scale(0.015625)"/>
      </defs>
      <use xlink:href="#TimesNewRomanPSMT-56"/>
      <use x="59.341797" xlink:href="#TimesNewRomanPSMT-6f"/>
      <use x="109.341797" xlink:href="#TimesNewRomanPSMT-6c"/>
      <use x="137.125" xlink:href="#TimesNewRomanPSMT-61"/>
      <use x="181.509766" xlink:href="#TimesNewRomanPSMT-74"/>
      <use x="209.292969" xlink:href="#TimesNewRomanPSMT-61"/>
      <use x="253.677734" xlink:href="#TimesNewRomanPSMT-67"/>
      <use x="303.677734" xlink:href="#TimesNewRomanPSMT-65"/>
      <use x="348.0625" xlink:href="#TimesNewRomanPSMT-20"/>
      <use x="373.0625" xlink:href="#TimesNewRomanPSMT-28"/>
      <use x="406.363281" xlink:href="#TimesNewRomanPSMT-56"/>
      <use x="478.580078" xlink:href="#TimesNewRomanPSMT-29"/>
     </g>
    </g>
   </g>
   <g id="LineCollection_1">
    <path clip-path="url(#p303f2a94e6)" d="M 78.555057 155.794418 
L 382.918693 155.794418 
" style="fill:none;stroke:#1f77b4;stroke-width:1.5;"/>
   </g>
   <g id="line2d_25">
    <path clip-path="url(#p303f2a94e6)" d="M 78.555057 155.784437 
L 78.707239 155.81958 
L 78.828984 155.81958 
L 88.112075 155.71415 
L 88.264257 155.679006 
L 88.386002 155.71415 
L 111.33502 155.784437 
L 111.395893 155.749293 
L 111.456766 155.81958 
L 111.578511 155.784437 
L 111.730693 155.81958 
L 113.282948 155.925011 
L 113.404693 155.925011 
L 113.952548 156.030442 
L 114.074293 156.065586 
L 114.165602 156.065586 
L 114.317784 156.10073 
L 114.835202 156.206161 
L 114.987384 156.241304 
L 115.10913 156.241304 
L 115.291748 156.311592 
L 115.383057 156.276448 
L 115.413493 156.311592 
L 115.900475 156.417023 
L 116.052657 156.48731 
L 116.143966 156.452166 
L 116.174402 156.48731 
L 116.326584 156.522454 
L 116.44833 156.522454 
L 116.600511 156.557597 
L 117.148366 156.663028 
L 117.300548 156.698172 
L 117.939711 156.803603 
L 117.970148 156.838747 
L 118.03102 156.768459 
L 118.426693 156.87389 
L 118.609311 156.944177 
L 118.731057 156.944177 
L 119.522402 157.049608 
L 119.674584 157.084752 
L 120.557239 157.190183 
L 120.739857 157.26047 
L 121.13553 157.365901 
L 121.318148 157.436189 
L 121.592075 157.54162 
L 121.957311 157.822769 
L 122.13993 157.9282 
L 124.026984 160.247681 
L 124.544402 161.19656 
L 124.757457 161.58314 
L 125.944475 164.535207 
L 126.279275 165.624661 
L 126.370584 165.870667 
L 126.644511 166.749258 
L 127.953275 171.634227 
L 128.318511 173.11026 
L 128.83593 175.289167 
L 129.262039 177.151781 
L 129.41422 177.749223 
L 130.75342 183.442497 
L 130.905602 184.004794 
L 131.605639 186.781143 
L 131.788257 187.448872 
L 132.153493 188.643757 
L 133.492693 191.490393 
L 133.584002 191.56068 
L 133.76662 191.771542 
L 133.797057 191.736399 
L 133.827493 191.771542 
L 134.010111 191.947261 
L 134.405784 192.263554 
L 134.618839 192.333841 
L 134.740584 192.404128 
L 134.77102 192.368985 
L 134.831893 192.439272 
L 135.410184 192.368985 
L 135.53193 192.298697 
L 135.653675 192.22841 
L 135.86673 191.982404 
L 136.140657 191.56068 
L 136.566766 190.471227 
L 136.901566 189.487205 
L 139.062548 179.084682 
L 139.732148 174.516007 
L 140.036511 172.161381 
L 142.319239 150.091164 
L 145.271566 114.736644 
L 146.702075 96.426799 
L 149.045675 68.065864 
L 150.202257 55.976449 
L 151.26753 47.085106 
L 153.154584 36.823152 
L 153.763311 35.101119 
L 154.067675 34.644248 
L 154.372039 34.433383 
L 154.463348 34.468533 
L 154.493784 34.433383 
L 154.828584 34.503674 
L 155.072075 34.819967 
L 155.315566 35.241685 
L 156.593893 40.056369 
L 157.476548 45.749644 
L 158.359202 53.72726 
L 159.88102 72.564255 
L 160.611493 83.107352 
L 161.88982 104.720702 
L 162.376802 113.647191 
L 163.807311 142.043266 
L 168.129275 234.435943 
L 169.559784 261.918283 
L 170.01633 269.755319 
L 170.92942 284.585943 
L 171.842511 297.589096 
L 172.816475 308.553915 
L 173.455639 314.036325 
L 174.490475 320.467612 
L 175.099202 322.787102 
L 175.981857 324.72 
L 176.012293 324.684859 
L 176.468839 324.579423 
L 177.29062 323.525116 
L 178.264584 319.76475 
L 179.116802 314.212052 
L 179.938584 307.745613 
L 181.156039 295.515623 
L 182.40393 279.876698 
L 183.438766 264.062047 
L 185.569311 227.828933 
L 189.191239 162.918599 
L 193.147966 100.679178 
L 194.243675 88.132895 
L 195.79593 73.161694 
L 197.865602 57.24162 
L 198.230839 55.589868 
L 199.356984 50.880621 
L 199.661348 49.931742 
L 200.14833 48.174562 
L 200.635311 46.8391 
L 200.909239 46.38223 
L 201.609275 44.976481 
L 201.700584 44.906194 
L 201.852766 44.765627 
L 201.974511 44.765627 
L 202.674548 44.695337 
L 202.82673 44.589901 
L 203.222402 44.660188 
L 203.374584 44.871055 
L 203.40502 44.835903 
L 203.800693 45.152196 
L 204.07462 45.257636 
L 204.713784 46.136227 
L 206.08342 49.545162 
L 206.479093 50.915762 
L 206.874766 52.075505 
L 207.879166 55.941299 
L 213.083784 80.471581 
L 213.78382 83.915659 
L 214.027311 85.145687 
L 214.575166 88.168039 
L 219.444984 116.880408 
L 219.992839 120.465061 
L 220.936366 126.544913 
L 221.545093 130.586433 
L 221.81902 132.343617 
L 223.066911 141.762117 
L 225.83662 165.027219 
L 229.062875 199.714009 
L 233.902257 254.327251 
L 235.119711 265.854376 
L 236.398039 275.378307 
L 236.945893 278.400659 
L 237.341566 280.052414 
L 237.798111 281.247298 
L 238.528584 282.758473 
L 238.55902 282.723323 
L 238.619893 282.793613 
L 238.772075 282.89905 
L 238.924257 282.934191 
L 239.106875 282.828763 
L 239.259057 282.863901 
L 239.441675 282.793613 
L 239.65473 282.688185 
L 239.959093 282.196177 
L 241.146111 277.697786 
L 242.211384 270.915065 
L 242.91142 265.292077 
L 245.437639 240.972663 
L 246.289857 229.867268 
L 251.464039 153.851536 
L 253.898948 124.260576 
L 254.507675 118.461872 
L 255.755566 107.953918 
L 256.912148 100.679178 
L 257.368693 98.711139 
L 257.855675 96.918807 
L 258.677457 94.775044 
L 258.920948 94.10732 
L 259.499239 93.017864 
L 259.803602 92.525855 
L 260.107966 92.033839 
L 260.229711 91.928413 
L 260.442766 91.682402 
L 260.686257 91.506687 
L 260.777566 91.506687 
L 261.021057 91.366109 
L 261.386293 91.295827 
L 261.508039 91.260681 
L 261.66022 91.295827 
L 261.75153 91.295827 
L 261.934148 91.471543 
L 261.964584 91.436399 
L 262.025457 91.506687 
L 262.177639 91.576974 
L 262.32982 91.682402 
L 263.516839 93.193585 
L 263.821202 93.720737 
L 263.851639 93.685593 
L 263.882075 93.755884 
L 264.369057 94.458751 
L 264.582111 94.880478 
L 264.642984 94.985912 
L 264.947348 95.47792 
L 265.190839 95.93479 
L 265.647384 96.743092 
L 265.76913 96.989097 
L 266.134366 97.867686 
L 266.195239 98.043407 
L 266.499602 98.711139 
L 267.382257 100.960328 
L 267.68662 101.944353 
L 267.77793 102.190356 
L 269.11713 106.442744 
L 269.391057 107.286189 
L 269.756293 108.516217 
L 270.03022 109.359662 
L 270.334584 110.484265 
L 271.430293 115.052937 
L 271.734657 116.493827 
L 275.234839 132.167898 
L 275.417457 132.835629 
L 276.026184 135.190253 
L 276.239239 135.893126 
L 276.756657 137.826028 
L 276.81753 137.966602 
L 277.304511 139.758929 
L 277.365384 139.934647 
L 277.852366 141.726974 
L 278.06542 142.46499 
L 279.435057 146.822804 
L 280.07422 148.544843 
L 280.317711 149.212573 
L 280.40902 149.423435 
L 280.74382 150.196595 
L 282.965675 155.081564 
L 284.122257 156.276448 
L 284.365748 156.381879 
L 284.487493 156.452166 
L 284.51793 156.417023 
L 284.913602 156.48731 
L 285.035348 156.522454 
L 285.400584 156.452166 
L 285.552766 156.346735 
L 286.465857 155.151851 
L 286.891966 154.378691 
L 286.922402 154.378691 
L 287.135457 153.886679 
L 288.10942 151.426623 
L 288.383348 150.653462 
L 288.748584 149.564009 
L 289.326875 147.947401 
L 289.44862 147.666252 
L 290.026911 146.049644 
L 291.244366 143.449013 
L 291.305239 143.378725 
L 291.579166 142.992145 
L 291.609602 143.027289 
L 291.640039 142.957002 
L 291.853093 142.851571 
L 292.066148 142.746139 
L 292.21833 142.710996 
L 292.340075 142.605565 
L 292.55313 142.500135 
L 292.674875 142.535278 
L 293.009675 142.640709 
L 293.405348 142.957002 
L 293.55753 143.027289 
L 293.740148 143.203007 
L 293.861893 143.308438 
L 294.105384 143.659875 
L 294.166257 143.765306 
L 294.318439 144.046456 
L 294.592366 144.643898 
L 294.744548 144.96019 
L 295.414148 146.893092 
L 295.596766 147.560821 
L 296.357675 150.583175 
L 297.788184 157.647051 
L 298.518657 161.934577 
L 299.523057 168.365866 
L 302.779748 191.701255 
L 304.027639 200.944037 
L 304.60593 204.88013 
L 305.123348 208.183631 
L 306.066875 213.947191 
L 306.27993 215.07179 
L 307.801748 221.608505 
L 308.745275 224.525432 
L 308.86702 224.771437 
L 309.232257 225.650026 
L 309.658366 226.388045 
L 310.023602 226.669195 
L 310.267093 226.774628 
L 310.480148 226.880054 
L 310.87582 226.774628 
L 311.088875 226.528623 
L 311.332366 226.106896 
L 312.184584 223.892846 
L 312.88462 221.081353 
L 314.132511 214.825779 
L 314.680366 211.205985 
L 314.923857 209.589374 
L 315.715202 203.298665 
L 319.215384 174.129427 
L 320.706766 161.372278 
L 322.776439 145.522488 
L 324.450439 133.151922 
L 325.302657 127.107212 
L 328.011493 112.100867 
L 328.315857 110.65998 
L 328.894148 107.953918 
L 330.933384 101.276621 
L 331.542111 99.624872 
L 331.96822 98.500272 
L 332.120402 98.183979 
L 333.276984 95.759069 
L 334.250948 94.775044 
L 334.524875 94.669616 
L 334.64662 94.599328 
L 334.829239 94.669616 
L 334.859675 94.599328 
L 334.920548 94.634472 
L 335.042293 94.669616 
L 335.194475 94.634472 
L 336.138002 94.739906 
L 336.351057 94.845334 
L 336.594548 94.950765 
L 336.74673 95.091337 
L 336.838039 95.161627 
L 337.020657 95.372486 
L 337.111966 95.442776 
L 337.355457 95.759069 
L 337.812002 96.426799 
L 338.268548 97.2351 
L 338.42073 97.516255 
L 338.785966 98.42999 
L 338.907711 98.675993 
L 339.33382 99.835734 
L 339.364257 99.835734 
L 339.66862 100.749469 
L 340.277348 102.471511 
L 340.855639 104.05297 
L 343.655784 114.104059 
L 344.051457 115.755811 
L 346.942911 129.602413 
L 350.321348 148.5097 
L 350.534402 149.634297 
L 351.082257 152.656651 
L 351.873602 156.592741 
L 352.999748 161.337135 
L 353.15193 161.899433 
L 353.456293 163.129462 
L 353.517166 163.340323 
L 353.699784 163.972909 
L 354.217202 165.870667 
L 354.430257 166.57354 
L 354.947675 168.471298 
L 356.956475 175.816322 
L 357.50433 177.889798 
L 357.686948 178.522384 
L 357.991311 179.64698 
L 361.339311 190.857807 
L 363.10462 194.72361 
L 363.19593 194.829041 
L 363.43942 195.285908 
L 363.53073 195.391339 
L 363.926402 195.988781 
L 364.20033 196.375362 
L 365.356911 197.816252 
L 365.53953 198.097401 
L 365.569966 198.062257 
L 365.600402 198.097401 
L 365.843893 198.413694 
L 365.965639 198.519125 
L 366.939602 199.503147 
L 367.091784 199.608578 
L 367.274402 199.784296 
L 367.517893 199.924871 
L 367.700511 200.030302 
L 368.12662 200.381739 
L 368.278802 200.48717 
L 368.583166 200.698032 
L 368.978839 200.803462 
L 369.252766 200.979181 
L 369.435384 201.084612 
L 369.587566 201.154902 
L 369.618002 201.119758 
L 369.678875 201.19004 
L 370.378911 201.26033 
L 370.500657 201.330617 
L 370.652839 201.295474 
L 371.535493 201.19004 
L 371.657239 201.19004 
L 372.418148 201.084612 
L 372.57033 201.014324 
L 372.600766 201.049468 
L 372.631202 201.014324 
L 372.661639 200.944037 
L 372.722511 201.014324 
L 372.996439 200.908893 
L 373.14862 200.87375 
L 373.270366 200.908893 
L 373.48342 200.803462 
L 373.696475 200.698032 
L 374.000839 200.48717 
L 374.15302 200.381739 
L 374.609566 199.960015 
L 374.640002 199.995158 
L 374.700875 199.924871 
L 374.82262 199.81944 
L 375.58353 198.800274 
L 375.857457 198.37855 
L 375.948766 198.308263 
L 376.283566 197.745964 
L 376.344439 197.640533 
L 377.440148 195.356196 
L 377.59233 195.039903 
L 378.718475 192.22841 
L 379.022839 191.314675 
L 381.214257 183.337064 
L 382.918693 175.464885 
L 382.918693 175.464885 
" style="fill:none;stroke:#0000ff;stroke-linecap:square;stroke-width:1.5;"/>
   </g>
   <g id="line2d_26">
    <path clip-path="url(#p303f2a94e6)" d="M 78.555057 155.795612 
L 78.828984 155.848328 
L 79.072475 155.813184 
L 79.315966 155.830756 
L 90.91222 155.742897 
L 91.064402 155.707753 
L 91.277457 155.707753 
L 94.808075 155.602322 
L 94.990693 155.602322 
L 95.203748 155.619894 
L 95.325493 155.637466 
L 95.568984 155.619894 
L 99.95182 155.725325 
L 100.256184 155.778041 
L 100.71273 155.883472 
L 102.112802 156.814779 
L 103.147639 158.167809 
L 103.96942 159.801989 
L 106.160839 166.44414 
L 110.208875 182.346647 
L 110.634984 183.594245 
L 111.66982 186.265164 
L 111.913311 186.70446 
L 112.948148 188.303496 
L 113.161202 188.408927 
L 113.587311 188.53193 
L 113.800366 188.53193 
L 114.165602 188.426499 
L 114.591711 188.05749 
L 115.656984 186.001586 
L 116.44833 183.400957 
L 117.635348 178.146978 
L 118.822366 171.399397 
L 119.644148 166.004845 
L 123.266075 138.030493 
L 124.39222 128.629565 
L 125.548802 120.177515 
L 127.131493 110.829299 
L 127.770657 107.402796 
L 128.227202 105.171176 
L 129.41422 100.198343 
L 129.931639 98.792599 
L 130.357748 97.878864 
L 131.544766 96.033822 
L 131.879566 95.489098 
L 132.823093 94.048206 
L 133.614439 93.485907 
L 133.827493 93.327761 
L 134.10142 93.275048 
L 134.588402 93.433194 
L 134.984075 93.327761 
L 135.53193 93.116902 
L 136.475457 93.53862 
L 137.053748 93.60891 
L 137.44942 94.083349 
L 138.179893 95.084941 
L 138.514693 95.840529 
L 139.519093 99.706335 
L 140.432184 103.835714 
L 141.101784 107.051359 
L 141.497457 109.089694 
L 142.89753 117.82289 
L 147.523857 156.076762 
L 148.619566 166.303566 
L 150.110948 180.185312 
L 151.51102 192.837028 
L 152.698039 202.800255 
L 154.067675 212.253902 
L 155.559057 219.47592 
L 156.837384 222.832137 
L 157.263493 223.359297 
L 157.567857 223.658016 
L 157.902657 223.88645 
L 158.29833 223.79859 
L 159.759275 221.988692 
L 160.398439 220.459946 
L 160.672366 219.774639 
L 161.068039 218.597332 
L 161.950693 215.153253 
L 163.289893 208.475953 
L 164.263857 202.255525 
L 165.57262 192.57345 
L 167.24662 179.183717 
L 168.34233 171.206106 
L 169.955457 161.664603 
L 170.807675 157.798801 
L 171.751202 154.917021 
L 172.238184 153.827568 
L 173.181711 152.896261 
L 173.455639 152.79083 
L 173.638257 152.79083 
L 174.733966 153.546418 
L 175.099202 154.108717 
L 176.499275 158.484102 
L 178.021093 166.004845 
L 180.577748 181.538342 
L 181.216911 184.999991 
L 183.621384 198.231579 
L 184.382293 201.253934 
L 184.777966 202.589393 
L 185.173639 203.590987 
L 185.99542 204.803446 
L 186.178039 204.856159 
L 186.512839 204.7683 
L 187.517239 203.467984 
L 188.795566 199.444035 
L 189.495602 196.158103 
L 190.286948 191.466425 
L 191.35222 182.662937 
L 193.45233 163.544789 
L 196.191602 136.238167 
L 199.235239 107.104072 
L 201.15273 88.337361 
L 202.431057 78.215988 
L 203.283275 72.645715 
L 204.531166 65.423696 
L 204.987711 63.631375 
L 205.41382 62.331054 
L 205.74862 61.821469 
L 205.961675 61.733618 
L 206.144293 61.733618 
L 206.357348 61.751181 
L 206.50953 61.786331 
L 206.996511 61.891759 
L 207.300875 62.190477 
L 207.879166 62.99879 
L 208.153093 63.367795 
L 208.731384 64.545105 
L 209.370548 66.671293 
L 210.10102 69.096209 
L 211.77502 77.337399 
L 213.175093 86.053026 
L 216.644839 110.864443 
L 218.623202 125.958647 
L 220.418948 138.627935 
L 222.945166 153.985714 
L 223.553893 157.289218 
L 225.562693 168.254039 
L 228.880257 183.084663 
L 231.558657 191.976008 
L 232.28913 194.400921 
L 233.019602 196.89612 
L 234.510984 202.448815 
L 235.911057 207.650077 
L 236.671966 209.899274 
L 237.676366 212.48233 
L 237.858984 212.851344 
L 238.437275 213.940794 
L 239.380802 214.872104 
L 240.415639 215.346543 
L 240.720002 215.451972 
L 240.933057 215.557403 
L 241.267857 215.662836 
L 241.420039 215.715549 
L 243.428839 215.820983 
L 244.524548 216.576571 
L 246.442039 218.931194 
L 246.715966 219.300199 
L 246.868148 219.493492 
L 247.142075 219.862498 
L 247.294257 220.073363 
L 247.750802 220.741095 
L 248.237784 221.602109 
L 248.481275 222.023836 
L 248.816075 222.568562 
L 248.93782 222.744281 
L 250.855311 226.276218 
L 251.403166 227.523821 
L 252.224948 229.175567 
L 252.346693 229.36886 
L 252.803239 230.054164 
L 253.198911 230.546173 
L 253.29022 230.634032 
L 254.112002 231.424764 
L 254.507675 231.758632 
L 254.659857 231.846488 
L 255.63382 231.758632 
L 256.577348 230.511029 
L 257.246948 229.140429 
L 258.220911 226.012644 
L 258.98182 222.515844 
L 260.473202 212.376904 
L 261.32542 204.610153 
L 262.268948 194.29549 
L 263.912511 172.067126 
L 266.043057 138.417074 
L 270.821566 60.275153 
L 271.978148 46.375834 
L 273.012984 36.201745 
L 273.71302 30.70176 
L 274.47393 26.185805 
L 275.021784 24.14747 
L 275.691384 22.530865 
L 276.208802 22.337575 
L 277.030584 22.917448 
L 277.548002 24.358335 
L 278.217602 27.064397 
L 279.06982 32.072371 
L 279.800293 37.379052 
L 280.896002 47.096273 
L 282.387384 62.805499 
L 283.726584 78.690427 
L 285.735384 103.906002 
L 291.45742 171.979267 
L 293.46622 191.694859 
L 295.322839 205.805038 
L 297.027275 216.840146 
L 298.031675 222.533419 
L 299.218693 228.12126 
L 300.649202 233.463099 
L 301.653602 236.046158 
L 301.866657 236.432733 
L 302.475384 237.574904 
L 303.236293 237.908772 
L 304.118948 236.731456 
L 305.032039 233.779392 
L 306.492984 227.418387 
L 308.106111 218.456754 
L 309.658366 208.475953 
L 313.006366 186.511169 
L 315.106475 171.188534 
L 315.836948 166.514428 
L 318.393602 152.369106 
L 320.00673 146.271681 
L 320.432839 145.041653 
L 321.315493 142.370735 
L 321.68073 141.632718 
L 323.141675 139.295665 
L 323.476475 138.979372 
L 324.450439 138.012921 
L 324.876548 137.643913 
L 325.36353 136.94104 
L 325.728766 136.343598 
L 326.794039 134.972996 
L 327.03753 134.656703 
L 328.011493 133.391531 
L 328.528911 132.460224 
L 329.472439 130.615182 
L 330.933384 126.977813 
L 335.164039 115.099257 
L 336.74673 111.707897 
L 338.694657 108.544964 
L 339.120766 108.175959 
L 339.242511 108.140815 
L 339.66862 108.017812 
L 340.399093 108.123241 
L 340.76433 108.439534 
L 341.09913 108.826114 
L 341.281748 109.05455 
L 341.707857 109.704705 
L 342.468766 111.233457 
L 343.473166 113.798939 
L 344.568875 117.981037 
L 345.329784 122.004985 
L 347.155966 133.19824 
L 349.195202 146.833979 
L 356.012948 197.17727 
L 357.991311 207.948801 
L 358.386984 209.688412 
L 359.269639 213.290637 
L 359.969675 214.977529 
L 360.700148 216.031842 
L 361.004511 216.242704 
L 361.217566 216.348135 
L 361.491493 216.506281 
L 362.221966 216.805 
L 363.43942 215.996698 
L 364.169893 214.57338 
L 364.504693 213.782648 
L 365.20473 211.902465 
L 366.056948 209.108541 
L 367.030911 204.733156 
L 368.21793 198.003146 
L 369.587566 188.619789 
L 371.018075 176.161362 
L 373.14862 157.50008 
L 376.25313 131.581633 
L 378.444548 115.942704 
L 380.148984 106.735066 
L 381.883857 100.163199 
L 382.796948 97.86129 
L 382.918693 97.597718 
L 382.918693 97.597718 
" style="fill:none;stroke:#ff0000;stroke-linecap:square;stroke-width:1.5;"/>
   </g>
   <g id="line2d_27">
    <path clip-path="url(#p303f2a94e6)" d="M 125.853166 164.254059 
" style="fill:none;stroke:#ffffff;stroke-linecap:square;stroke-width:1.5;"/>
    <defs>
     <path d="M 0 -5 
L -1.12257 -1.545085 
L -4.755283 -1.545085 
L -1.816356 0.59017 
L -2.938926 4.045085 
L -0 1.90983 
L 2.938926 4.045085 
L 1.816356 0.59017 
L 4.755283 -1.545085 
L 1.12257 -1.545085 
z
" id="md85cab3ffa" style="stroke:#ffffff;stroke-linejoin:bevel;"/>
    </defs>
    <g clip-path="url(#p303f2a94e6)">
     <use style="fill:#0000ff;stroke:#ffffff;stroke-linejoin:bevel;" x="125.853166" xlink:href="#md85cab3ffa" y="164.254059"/>
    </g>
   </g>
   <g id="line2d_28">
    <path clip-path="url(#p303f2a94e6)" d="M 105.004257 162.525623 
" style="fill:none;stroke:#ffffff;stroke-linecap:square;stroke-width:1.5;"/>
    <defs>
     <path d="M 0 -5 
L -1.12257 -1.545085 
L -4.755283 -1.545085 
L -1.816356 0.59017 
L -2.938926 4.045085 
L -0 1.90983 
L 2.938926 4.045085 
L 1.816356 0.59017 
L 4.755283 -1.545085 
L 1.12257 -1.545085 
z
" id="m6a44a1bf18" style="stroke:#ffffff;stroke-linejoin:bevel;"/>
    </defs>
    <g clip-path="url(#p303f2a94e6)">
     <use style="fill:#ff0000;stroke:#ffffff;stroke-linejoin:bevel;" x="105.004257" xlink:href="#m6a44a1bf18" y="162.525623"/>
    </g>
   </g>
   <g id="patch_3">
    <path d="M 63.336875 339.84 
L 63.336875 7.2 
" style="fill:none;stroke:#000000;stroke-linecap:square;stroke-linejoin:miter;stroke-width:0.8;"/>
   </g>
   <g id="patch_4">
    <path d="M 398.136875 339.84 
L 398.136875 7.2 
" style="fill:none;stroke:#000000;stroke-linecap:square;stroke-linejoin:miter;stroke-width:0.8;"/>
   </g>
   <g id="patch_5">
    <path d="M 63.336875 339.84 
L 398.136875 339.84 
" style="fill:none;stroke:#000000;stroke-linecap:square;stroke-linejoin:miter;stroke-width:0.8;"/>
   </g>
   <g id="patch_6">
    <path d="M 63.336875 7.2 
L 398.136875 7.2 
" style="fill:none;stroke:#000000;stroke-linecap:square;stroke-linejoin:miter;stroke-width:0.8;"/>
   </g>
   <g id="text_15">
    <g id="patch_7">
     <path d="M 75.036875 331.242688 
L 166.79375 331.242688 
L 166.79375 293.760312 
L 75.036875 293.760312 
z
" style="fill:#ffffff;stroke:#000000;stroke-linejoin:miter;stroke-width:0.75;"/>
    </g>
    <!-- Auto_00093 -->
    <g transform="translate(80.076875 308.521563)scale(0.14 -0.14)">
     <defs>
      <path d="M 2928 1419 
L 1288 1419 
L 1000 750 
Q 894 503 894 381 
Q 894 284 986 211 
Q 1078 138 1384 116 
L 1384 0 
L 50 0 
L 50 116 
Q 316 163 394 238 
Q 553 388 747 847 
L 2238 4334 
L 2347 4334 
L 3822 809 
Q 4000 384 4145 257 
Q 4291 131 4550 116 
L 4550 0 
L 2878 0 
L 2878 116 
Q 3131 128 3220 200 
Q 3309 272 3309 375 
Q 3309 513 3184 809 
L 2928 1419 
z
M 2841 1650 
L 2122 3363 
L 1384 1650 
L 2841 1650 
z
" id="TimesNewRomanPSMT-41" transform="scale(0.015625)"/>
      <path d="M 2709 2863 
L 2709 1128 
Q 2709 631 2732 520 
Q 2756 409 2807 365 
Q 2859 322 2928 322 
Q 3025 322 3147 375 
L 3191 266 
L 2334 -88 
L 2194 -88 
L 2194 519 
Q 1825 119 1631 15 
Q 1438 -88 1222 -88 
Q 981 -88 804 51 
Q 628 191 559 409 
Q 491 628 491 1028 
L 491 2306 
Q 491 2509 447 2587 
Q 403 2666 317 2708 
Q 231 2750 6 2747 
L 6 2863 
L 1009 2863 
L 1009 947 
Q 1009 547 1148 422 
Q 1288 297 1484 297 
Q 1619 297 1789 381 
Q 1959 466 2194 703 
L 2194 2325 
Q 2194 2569 2105 2655 
Q 2016 2741 1734 2747 
L 1734 2863 
L 2709 2863 
z
" id="TimesNewRomanPSMT-75" transform="scale(0.015625)"/>
      <path d="M 3256 -1381 
L -53 -1381 
L -53 -1119 
L 3256 -1119 
L 3256 -1381 
z
" id="TimesNewRomanPSMT-5f" transform="scale(0.015625)"/>
      <path d="M 338 -88 
L 338 28 
Q 744 34 1094 217 
Q 1444 400 1770 856 
Q 2097 1313 2225 1859 
Q 1734 1544 1338 1544 
Q 891 1544 572 1889 
Q 253 2234 253 2806 
Q 253 3363 572 3797 
Q 956 4325 1575 4325 
Q 2097 4325 2469 3894 
Q 2925 3359 2925 2575 
Q 2925 1869 2578 1258 
Q 2231 647 1613 244 
Q 1109 -88 516 -88 
L 338 -88 
z
M 2275 2091 
Q 2331 2497 2331 2741 
Q 2331 3044 2228 3395 
Q 2125 3747 1936 3934 
Q 1747 4122 1506 4122 
Q 1228 4122 1018 3872 
Q 809 3622 809 3128 
Q 809 2469 1088 2097 
Q 1291 1828 1588 1828 
Q 1731 1828 1928 1897 
Q 2125 1966 2275 2091 
z
" id="TimesNewRomanPSMT-39" transform="scale(0.015625)"/>
     </defs>
     <use xlink:href="#TimesNewRomanPSMT-41"/>
     <use x="72.216797" xlink:href="#TimesNewRomanPSMT-75"/>
     <use x="122.216797" xlink:href="#TimesNewRomanPSMT-74"/>
     <use x="150" xlink:href="#TimesNewRomanPSMT-6f"/>
     <use x="200" xlink:href="#TimesNewRomanPSMT-5f"/>
     <use x="250" xlink:href="#TimesNewRomanPSMT-30"/>
     <use x="300" xlink:href="#TimesNewRomanPSMT-30"/>
     <use x="350" xlink:href="#TimesNewRomanPSMT-30"/>
     <use x="400" xlink:href="#TimesNewRomanPSMT-39"/>
     <use x="450" xlink:href="#TimesNewRomanPSMT-33"/>
    </g>
    <!-- Vs: 291.82m/s -->
    <g transform="translate(80.076875 323.208)scale(0.14 -0.14)">
     <defs>
      <path d="M 903 2950 
Q 1047 2950 1148 2848 
Q 1250 2747 1250 2603 
Q 1250 2459 1148 2357 
Q 1047 2256 903 2256 
Q 759 2256 657 2357 
Q 556 2459 556 2603 
Q 556 2747 657 2848 
Q 759 2950 903 2950 
z
M 897 609 
Q 1044 609 1145 506 
Q 1247 403 1247 259 
Q 1247 116 1144 14 
Q 1041 -88 897 -88 
Q 753 -88 651 14 
Q 550 116 550 259 
Q 550 403 651 506 
Q 753 609 897 609 
z
" id="TimesNewRomanPSMT-3a" transform="scale(0.015625)"/>
      <path d="M 1228 2134 
Q 725 2547 579 2797 
Q 434 3047 434 3316 
Q 434 3728 753 4026 
Q 1072 4325 1600 4325 
Q 2113 4325 2425 4047 
Q 2738 3769 2738 3413 
Q 2738 3175 2569 2928 
Q 2400 2681 1866 2347 
Q 2416 1922 2594 1678 
Q 2831 1359 2831 1006 
Q 2831 559 2490 242 
Q 2150 -75 1597 -75 
Q 994 -75 656 303 
Q 388 606 388 966 
Q 388 1247 577 1523 
Q 766 1800 1228 2134 
z
M 1719 2469 
Q 2094 2806 2194 3001 
Q 2294 3197 2294 3444 
Q 2294 3772 2109 3958 
Q 1925 4144 1606 4144 
Q 1288 4144 1088 3959 
Q 888 3775 888 3528 
Q 888 3366 970 3203 
Q 1053 3041 1206 2894 
L 1719 2469 
z
M 1375 2016 
Q 1116 1797 991 1539 
Q 866 1281 866 981 
Q 866 578 1086 336 
Q 1306 94 1647 94 
Q 1984 94 2187 284 
Q 2391 475 2391 747 
Q 2391 972 2272 1150 
Q 2050 1481 1375 2016 
z
" id="TimesNewRomanPSMT-38" transform="scale(0.015625)"/>
      <path d="M 1794 4444 
L 259 -88 
L 9 -88 
L 1544 4444 
L 1794 4444 
z
" id="TimesNewRomanPSMT-2f" transform="scale(0.015625)"/>
     </defs>
     <use xlink:href="#TimesNewRomanPSMT-56"/>
     <use x="72.216797" xlink:href="#TimesNewRomanPSMT-73"/>
     <use x="111.132812" xlink:href="#TimesNewRomanPSMT-3a"/>
     <use x="138.916016" xlink:href="#TimesNewRomanPSMT-20"/>
     <use x="163.916016" xlink:href="#TimesNewRomanPSMT-32"/>
     <use x="213.916016" xlink:href="#TimesNewRomanPSMT-39"/>
     <use x="263.916016" xlink:href="#TimesNewRomanPSMT-31"/>
     <use x="313.916016" xlink:href="#TimesNewRomanPSMT-2e"/>
     <use x="338.916016" xlink:href="#TimesNewRomanPSMT-38"/>
     <use x="388.916016" xlink:href="#TimesNewRomanPSMT-32"/>
     <use x="438.916016" xlink:href="#TimesNewRomanPSMT-6d"/>
     <use x="516.699219" xlink:href="#TimesNewRomanPSMT-2f"/>
     <use x="544.482422" xlink:href="#TimesNewRomanPSMT-73"/>
    </g>
   </g>
  </g>
 </g>
 <defs>
  <clipPath id="p303f2a94e6">
   <rect height="332.64" width="334.8" x="63.336875" y="7.2"/>
  </clipPath>
 </defs>
</svg>
