<?xml version="1.0" encoding="utf-8" standalone="no"?>
<!DOCTYPE svg PUBLIC "-//W3C//DTD SVG 1.1//EN"
  "http://www.w3.org/Graphics/SVG/1.1/DTD/svg11.dtd">
<svg height="383.471875pt" version="1.1" viewBox="0 0 421.086875 383.471875" width="421.086875pt" xmlns="http://www.w3.org/2000/svg" xmlns:xlink="http://www.w3.org/1999/xlink">
 <metadata>
  <rdf:RDF xmlns:cc="http://creativecommons.org/ns#" xmlns:dc="http://purl.org/dc/elements/1.1/" xmlns:rdf="http://www.w3.org/1999/02/22-rdf-syntax-ns#">
   <cc:Work>
    <dc:type rdf:resource="http://purl.org/dc/dcmitype/StillImage"/>
    <dc:date>2021-06-11T14:39:39.711740</dc:date>
    <dc:format>image/svg+xml</dc:format>
    <dc:creator>
     <cc:Agent>
      <dc:title>Matplotlib v3.4.2, https://matplotlib.org/</dc:title>
     </cc:Agent>
    </dc:creator>
   </cc:Work>
  </rdf:RDF>
 </metadata>
 <defs>
  <style type="text/css">*{stroke-linecap:butt;stroke-linejoin:round;}</style>
 </defs>
 <g id="figure_1">
  <g id="patch_1">
   <path d="M 0 383.471875 
L 421.086875 383.471875 
L 421.086875 0 
L 0 0 
z
" style="fill:#ffffff;"/>
  </g>
  <g id="axes_1">
   <g id="patch_2">
    <path d="M 63.336875 339.84 
L 398.136875 339.84 
L 398.136875 7.2 
L 63.336875 7.2 
z
" style="fill:#ffffff;"/>
   </g>
   <g id="matplotlib.axis_1">
    <g id="xtick_1">
     <g id="line2d_1">
      <path clip-path="url(#pa1979213a3)" d="M 93.773239 339.84 
L 93.773239 7.2 
" style="fill:none;stroke:#000000;stroke-dasharray:0.5,0.825;stroke-dashoffset:0;stroke-width:0.5;"/>
     </g>
     <g id="line2d_2">
      <defs>
       <path d="M 0 0 
L 0 3.5 
" id="mb68ed90540" style="stroke:#000000;stroke-width:0.8;"/>
      </defs>
      <g>
       <use style="stroke:#000000;stroke-width:0.8;" x="93.773239" xlink:href="#mb68ed90540" y="339.84"/>
      </g>
     </g>
     <g id="text_1">
      <!-- 0.000 -->
      <g transform="translate(78.023239 356.56125)scale(0.14 -0.14)">
       <defs>
        <path d="M 231 2094 
Q 231 2819 450 3342 
Q 669 3866 1031 4122 
Q 1313 4325 1613 4325 
Q 2100 4325 2488 3828 
Q 2972 3213 2972 2159 
Q 2972 1422 2759 906 
Q 2547 391 2217 158 
Q 1888 -75 1581 -75 
Q 975 -75 572 641 
Q 231 1244 231 2094 
z
M 844 2016 
Q 844 1141 1059 588 
Q 1238 122 1591 122 
Q 1759 122 1940 273 
Q 2122 425 2216 781 
Q 2359 1319 2359 2297 
Q 2359 3022 2209 3506 
Q 2097 3866 1919 4016 
Q 1791 4119 1609 4119 
Q 1397 4119 1231 3928 
Q 1006 3669 925 3112 
Q 844 2556 844 2016 
z
" id="TimesNewRomanPSMT-30" transform="scale(0.015625)"/>
        <path d="M 800 606 
Q 947 606 1047 504 
Q 1147 403 1147 259 
Q 1147 116 1045 14 
Q 944 -88 800 -88 
Q 656 -88 554 14 
Q 453 116 453 259 
Q 453 406 554 506 
Q 656 606 800 606 
z
" id="TimesNewRomanPSMT-2e" transform="scale(0.015625)"/>
       </defs>
       <use xlink:href="#TimesNewRomanPSMT-30"/>
       <use x="50" xlink:href="#TimesNewRomanPSMT-2e"/>
       <use x="75" xlink:href="#TimesNewRomanPSMT-30"/>
       <use x="125" xlink:href="#TimesNewRomanPSMT-30"/>
       <use x="175" xlink:href="#TimesNewRomanPSMT-30"/>
      </g>
     </g>
    </g>
    <g id="xtick_2">
     <g id="line2d_3">
      <path clip-path="url(#pa1979213a3)" d="M 154.645966 339.84 
L 154.645966 7.2 
" style="fill:none;stroke:#000000;stroke-dasharray:0.5,0.825;stroke-dashoffset:0;stroke-width:0.5;"/>
     </g>
     <g id="line2d_4">
      <g>
       <use style="stroke:#000000;stroke-width:0.8;" x="154.645966" xlink:href="#mb68ed90540" y="339.84"/>
      </g>
     </g>
     <g id="text_2">
      <!-- 0.001 -->
      <g transform="translate(138.895966 356.56125)scale(0.14 -0.14)">
       <defs>
        <path d="M 750 3822 
L 1781 4325 
L 1884 4325 
L 1884 747 
Q 1884 391 1914 303 
Q 1944 216 2037 169 
Q 2131 122 2419 116 
L 2419 0 
L 825 0 
L 825 116 
Q 1125 122 1212 167 
Q 1300 213 1334 289 
Q 1369 366 1369 747 
L 1369 3034 
Q 1369 3497 1338 3628 
Q 1316 3728 1258 3775 
Q 1200 3822 1119 3822 
Q 1003 3822 797 3725 
L 750 3822 
z
" id="TimesNewRomanPSMT-31" transform="scale(0.015625)"/>
       </defs>
       <use xlink:href="#TimesNewRomanPSMT-30"/>
       <use x="50" xlink:href="#TimesNewRomanPSMT-2e"/>
       <use x="75" xlink:href="#TimesNewRomanPSMT-30"/>
       <use x="125" xlink:href="#TimesNewRomanPSMT-30"/>
       <use x="175" xlink:href="#TimesNewRomanPSMT-31"/>
      </g>
     </g>
    </g>
    <g id="xtick_3">
     <g id="line2d_5">
      <path clip-path="url(#pa1979213a3)" d="M 215.518693 339.84 
L 215.518693 7.2 
" style="fill:none;stroke:#000000;stroke-dasharray:0.5,0.825;stroke-dashoffset:0;stroke-width:0.5;"/>
     </g>
     <g id="line2d_6">
      <g>
       <use style="stroke:#000000;stroke-width:0.8;" x="215.518693" xlink:href="#mb68ed90540" y="339.84"/>
      </g>
     </g>
     <g id="text_3">
      <!-- 0.002 -->
      <g transform="translate(199.768693 356.56125)scale(0.14 -0.14)">
       <defs>
        <path d="M 2934 816 
L 2638 0 
L 138 0 
L 138 116 
Q 1241 1122 1691 1759 
Q 2141 2397 2141 2925 
Q 2141 3328 1894 3587 
Q 1647 3847 1303 3847 
Q 991 3847 742 3664 
Q 494 3481 375 3128 
L 259 3128 
Q 338 3706 661 4015 
Q 984 4325 1469 4325 
Q 1984 4325 2329 3994 
Q 2675 3663 2675 3213 
Q 2675 2891 2525 2569 
Q 2294 2063 1775 1497 
Q 997 647 803 472 
L 1909 472 
Q 2247 472 2383 497 
Q 2519 522 2628 598 
Q 2738 675 2819 816 
L 2934 816 
z
" id="TimesNewRomanPSMT-32" transform="scale(0.015625)"/>
       </defs>
       <use xlink:href="#TimesNewRomanPSMT-30"/>
       <use x="50" xlink:href="#TimesNewRomanPSMT-2e"/>
       <use x="75" xlink:href="#TimesNewRomanPSMT-30"/>
       <use x="125" xlink:href="#TimesNewRomanPSMT-30"/>
       <use x="175" xlink:href="#TimesNewRomanPSMT-32"/>
      </g>
     </g>
    </g>
    <g id="xtick_4">
     <g id="line2d_7">
      <path clip-path="url(#pa1979213a3)" d="M 276.39142 339.84 
L 276.39142 7.2 
" style="fill:none;stroke:#000000;stroke-dasharray:0.5,0.825;stroke-dashoffset:0;stroke-width:0.5;"/>
     </g>
     <g id="line2d_8">
      <g>
       <use style="stroke:#000000;stroke-width:0.8;" x="276.39142" xlink:href="#mb68ed90540" y="339.84"/>
      </g>
     </g>
     <g id="text_4">
      <!-- 0.003 -->
      <g transform="translate(260.64142 356.56125)scale(0.14 -0.14)">
       <defs>
        <path d="M 325 3431 
Q 506 3859 782 4092 
Q 1059 4325 1472 4325 
Q 1981 4325 2253 3994 
Q 2459 3747 2459 3466 
Q 2459 3003 1878 2509 
Q 2269 2356 2469 2072 
Q 2669 1788 2669 1403 
Q 2669 853 2319 450 
Q 1863 -75 997 -75 
Q 569 -75 414 31 
Q 259 138 259 259 
Q 259 350 332 419 
Q 406 488 509 488 
Q 588 488 669 463 
Q 722 447 909 348 
Q 1097 250 1169 231 
Q 1284 197 1416 197 
Q 1734 197 1970 444 
Q 2206 691 2206 1028 
Q 2206 1275 2097 1509 
Q 2016 1684 1919 1775 
Q 1784 1900 1550 2001 
Q 1316 2103 1072 2103 
L 972 2103 
L 972 2197 
Q 1219 2228 1467 2375 
Q 1716 2522 1828 2728 
Q 1941 2934 1941 3181 
Q 1941 3503 1739 3701 
Q 1538 3900 1238 3900 
Q 753 3900 428 3381 
L 325 3431 
z
" id="TimesNewRomanPSMT-33" transform="scale(0.015625)"/>
       </defs>
       <use xlink:href="#TimesNewRomanPSMT-30"/>
       <use x="50" xlink:href="#TimesNewRomanPSMT-2e"/>
       <use x="75" xlink:href="#TimesNewRomanPSMT-30"/>
       <use x="125" xlink:href="#TimesNewRomanPSMT-30"/>
       <use x="175" xlink:href="#TimesNewRomanPSMT-33"/>
      </g>
     </g>
    </g>
    <g id="xtick_5">
     <g id="line2d_9">
      <path clip-path="url(#pa1979213a3)" d="M 337.264148 339.84 
L 337.264148 7.2 
" style="fill:none;stroke:#000000;stroke-dasharray:0.5,0.825;stroke-dashoffset:0;stroke-width:0.5;"/>
     </g>
     <g id="line2d_10">
      <g>
       <use style="stroke:#000000;stroke-width:0.8;" x="337.264148" xlink:href="#mb68ed90540" y="339.84"/>
      </g>
     </g>
     <g id="text_5">
      <!-- 0.004 -->
      <g transform="translate(321.514148 356.56125)scale(0.14 -0.14)">
       <defs>
        <path d="M 2978 1563 
L 2978 1119 
L 2409 1119 
L 2409 0 
L 1894 0 
L 1894 1119 
L 100 1119 
L 100 1519 
L 2066 4325 
L 2409 4325 
L 2409 1563 
L 2978 1563 
z
M 1894 1563 
L 1894 3666 
L 406 1563 
L 1894 1563 
z
" id="TimesNewRomanPSMT-34" transform="scale(0.015625)"/>
       </defs>
       <use xlink:href="#TimesNewRomanPSMT-30"/>
       <use x="50" xlink:href="#TimesNewRomanPSMT-2e"/>
       <use x="75" xlink:href="#TimesNewRomanPSMT-30"/>
       <use x="125" xlink:href="#TimesNewRomanPSMT-30"/>
       <use x="175" xlink:href="#TimesNewRomanPSMT-34"/>
      </g>
     </g>
    </g>
    <g id="xtick_6">
     <g id="line2d_11">
      <path clip-path="url(#pa1979213a3)" d="M 398.136875 339.84 
L 398.136875 7.2 
" style="fill:none;stroke:#000000;stroke-dasharray:0.5,0.825;stroke-dashoffset:0;stroke-width:0.5;"/>
     </g>
     <g id="line2d_12">
      <g>
       <use style="stroke:#000000;stroke-width:0.8;" x="398.136875" xlink:href="#mb68ed90540" y="339.84"/>
      </g>
     </g>
     <g id="text_6">
      <!-- 0.005 -->
      <g transform="translate(382.386875 356.56125)scale(0.14 -0.14)">
       <defs>
        <path d="M 2778 4238 
L 2534 3706 
L 1259 3706 
L 981 3138 
Q 1809 3016 2294 2522 
Q 2709 2097 2709 1522 
Q 2709 1188 2573 903 
Q 2438 619 2231 419 
Q 2025 219 1772 97 
Q 1413 -75 1034 -75 
Q 653 -75 479 54 
Q 306 184 306 341 
Q 306 428 378 495 
Q 450 563 559 563 
Q 641 563 702 538 
Q 763 513 909 409 
Q 1144 247 1384 247 
Q 1750 247 2026 523 
Q 2303 800 2303 1197 
Q 2303 1581 2056 1914 
Q 1809 2247 1375 2428 
Q 1034 2569 447 2591 
L 1259 4238 
L 2778 4238 
z
" id="TimesNewRomanPSMT-35" transform="scale(0.015625)"/>
       </defs>
       <use xlink:href="#TimesNewRomanPSMT-30"/>
       <use x="50" xlink:href="#TimesNewRomanPSMT-2e"/>
       <use x="75" xlink:href="#TimesNewRomanPSMT-30"/>
       <use x="125" xlink:href="#TimesNewRomanPSMT-30"/>
       <use x="175" xlink:href="#TimesNewRomanPSMT-35"/>
      </g>
     </g>
    </g>
    <g id="text_7">
     <!-- Time (sec) -->
     <g transform="translate(200.858906 373.277188)scale(0.14 -0.14)">
      <defs>
       <path d="M 3703 4238 
L 3750 3244 
L 3631 3244 
Q 3597 3506 3538 3619 
Q 3441 3800 3280 3886 
Q 3119 3972 2856 3972 
L 2259 3972 
L 2259 734 
Q 2259 344 2344 247 
Q 2463 116 2709 116 
L 2856 116 
L 2856 0 
L 1059 0 
L 1059 116 
L 1209 116 
Q 1478 116 1591 278 
Q 1659 378 1659 734 
L 1659 3972 
L 1150 3972 
Q 853 3972 728 3928 
Q 566 3869 450 3700 
Q 334 3531 313 3244 
L 194 3244 
L 244 4238 
L 3703 4238 
z
" id="TimesNewRomanPSMT-54" transform="scale(0.015625)"/>
       <path d="M 928 4444 
Q 1059 4444 1151 4351 
Q 1244 4259 1244 4128 
Q 1244 3997 1151 3903 
Q 1059 3809 928 3809 
Q 797 3809 703 3903 
Q 609 3997 609 4128 
Q 609 4259 701 4351 
Q 794 4444 928 4444 
z
M 1188 2947 
L 1188 647 
Q 1188 378 1227 289 
Q 1266 200 1342 156 
Q 1419 113 1622 113 
L 1622 0 
L 231 0 
L 231 113 
Q 441 113 512 153 
Q 584 194 626 287 
Q 669 381 669 647 
L 669 1750 
Q 669 2216 641 2353 
Q 619 2453 572 2492 
Q 525 2531 444 2531 
Q 356 2531 231 2484 
L 188 2597 
L 1050 2947 
L 1188 2947 
z
" id="TimesNewRomanPSMT-69" transform="scale(0.015625)"/>
       <path d="M 1050 2338 
Q 1363 2650 1419 2697 
Q 1559 2816 1721 2881 
Q 1884 2947 2044 2947 
Q 2313 2947 2506 2790 
Q 2700 2634 2766 2338 
Q 3088 2713 3309 2830 
Q 3531 2947 3766 2947 
Q 3994 2947 4170 2830 
Q 4347 2713 4450 2447 
Q 4519 2266 4519 1878 
L 4519 647 
Q 4519 378 4559 278 
Q 4591 209 4675 161 
Q 4759 113 4950 113 
L 4950 0 
L 3538 0 
L 3538 113 
L 3597 113 
Q 3781 113 3884 184 
Q 3956 234 3988 344 
Q 4000 397 4000 647 
L 4000 1878 
Q 4000 2228 3916 2372 
Q 3794 2572 3525 2572 
Q 3359 2572 3192 2489 
Q 3025 2406 2788 2181 
L 2781 2147 
L 2788 2013 
L 2788 647 
Q 2788 353 2820 281 
Q 2853 209 2943 161 
Q 3034 113 3253 113 
L 3253 0 
L 1806 0 
L 1806 113 
Q 2044 113 2133 169 
Q 2222 225 2256 338 
Q 2272 391 2272 647 
L 2272 1878 
Q 2272 2228 2169 2381 
Q 2031 2581 1784 2581 
Q 1616 2581 1450 2491 
Q 1191 2353 1050 2181 
L 1050 647 
Q 1050 366 1089 281 
Q 1128 197 1204 155 
Q 1281 113 1516 113 
L 1516 0 
L 100 0 
L 100 113 
Q 297 113 375 155 
Q 453 197 493 289 
Q 534 381 534 647 
L 534 1741 
Q 534 2213 506 2350 
Q 484 2453 437 2492 
Q 391 2531 309 2531 
Q 222 2531 100 2484 
L 53 2597 
L 916 2947 
L 1050 2947 
L 1050 2338 
z
" id="TimesNewRomanPSMT-6d" transform="scale(0.015625)"/>
       <path d="M 681 1784 
Q 678 1147 991 784 
Q 1303 422 1725 422 
Q 2006 422 2214 576 
Q 2422 731 2563 1106 
L 2659 1044 
Q 2594 616 2278 264 
Q 1963 -88 1488 -88 
Q 972 -88 605 314 
Q 238 716 238 1394 
Q 238 2128 614 2539 
Q 991 2950 1559 2950 
Q 2041 2950 2350 2633 
Q 2659 2316 2659 1784 
L 681 1784 
z
M 681 1966 
L 2006 1966 
Q 1991 2241 1941 2353 
Q 1863 2528 1708 2628 
Q 1553 2728 1384 2728 
Q 1125 2728 920 2526 
Q 716 2325 681 1966 
z
" id="TimesNewRomanPSMT-65" transform="scale(0.015625)"/>
       <path id="TimesNewRomanPSMT-20" transform="scale(0.015625)"/>
       <path d="M 1988 -1253 
L 1988 -1369 
Q 1516 -1131 1200 -813 
Q 750 -359 506 256 
Q 263 872 263 1534 
Q 263 2503 741 3301 
Q 1219 4100 1988 4444 
L 1988 4313 
Q 1603 4100 1356 3731 
Q 1109 3363 987 2797 
Q 866 2231 866 1616 
Q 866 947 969 400 
Q 1050 -31 1165 -292 
Q 1281 -553 1476 -793 
Q 1672 -1034 1988 -1253 
z
" id="TimesNewRomanPSMT-28" transform="scale(0.015625)"/>
       <path d="M 2050 2947 
L 2050 1972 
L 1947 1972 
Q 1828 2431 1642 2597 
Q 1456 2763 1169 2763 
Q 950 2763 815 2647 
Q 681 2531 681 2391 
Q 681 2216 781 2091 
Q 878 1963 1175 1819 
L 1631 1597 
Q 2266 1288 2266 781 
Q 2266 391 1970 151 
Q 1675 -88 1309 -88 
Q 1047 -88 709 6 
Q 606 38 541 38 
Q 469 38 428 -44 
L 325 -44 
L 325 978 
L 428 978 
Q 516 541 762 319 
Q 1009 97 1316 97 
Q 1531 97 1667 223 
Q 1803 350 1803 528 
Q 1803 744 1651 891 
Q 1500 1038 1047 1263 
Q 594 1488 453 1669 
Q 313 1847 313 2119 
Q 313 2472 555 2709 
Q 797 2947 1181 2947 
Q 1350 2947 1591 2875 
Q 1750 2828 1803 2828 
Q 1853 2828 1881 2850 
Q 1909 2872 1947 2947 
L 2050 2947 
z
" id="TimesNewRomanPSMT-73" transform="scale(0.015625)"/>
       <path d="M 2631 1088 
Q 2516 522 2178 217 
Q 1841 -88 1431 -88 
Q 944 -88 581 321 
Q 219 731 219 1428 
Q 219 2103 620 2525 
Q 1022 2947 1584 2947 
Q 2006 2947 2278 2723 
Q 2550 2500 2550 2259 
Q 2550 2141 2473 2067 
Q 2397 1994 2259 1994 
Q 2075 1994 1981 2113 
Q 1928 2178 1911 2362 
Q 1894 2547 1784 2644 
Q 1675 2738 1481 2738 
Q 1169 2738 978 2506 
Q 725 2200 725 1697 
Q 725 1184 976 792 
Q 1228 400 1656 400 
Q 1963 400 2206 609 
Q 2378 753 2541 1131 
L 2631 1088 
z
" id="TimesNewRomanPSMT-63" transform="scale(0.015625)"/>
       <path d="M 144 4313 
L 144 4444 
Q 619 4209 934 3891 
Q 1381 3434 1625 2820 
Q 1869 2206 1869 1541 
Q 1869 572 1392 -226 
Q 916 -1025 144 -1369 
L 144 -1253 
Q 528 -1038 776 -670 
Q 1025 -303 1145 264 
Q 1266 831 1266 1447 
Q 1266 2113 1163 2663 
Q 1084 3094 967 3353 
Q 850 3613 656 3853 
Q 463 4094 144 4313 
z
" id="TimesNewRomanPSMT-29" transform="scale(0.015625)"/>
      </defs>
      <use xlink:href="#TimesNewRomanPSMT-54"/>
      <use x="57.583984" xlink:href="#TimesNewRomanPSMT-69"/>
      <use x="85.367188" xlink:href="#TimesNewRomanPSMT-6d"/>
      <use x="163.150391" xlink:href="#TimesNewRomanPSMT-65"/>
      <use x="207.535156" xlink:href="#TimesNewRomanPSMT-20"/>
      <use x="232.535156" xlink:href="#TimesNewRomanPSMT-28"/>
      <use x="265.835938" xlink:href="#TimesNewRomanPSMT-73"/>
      <use x="304.751953" xlink:href="#TimesNewRomanPSMT-65"/>
      <use x="349.136719" xlink:href="#TimesNewRomanPSMT-63"/>
      <use x="393.521484" xlink:href="#TimesNewRomanPSMT-29"/>
     </g>
    </g>
   </g>
   <g id="matplotlib.axis_2">
    <g id="ytick_1">
     <g id="line2d_13">
      <path clip-path="url(#pa1979213a3)" d="M 63.336875 283.370891 
L 398.136875 283.370891 
" style="fill:none;stroke:#000000;stroke-dasharray:0.5,0.825;stroke-dashoffset:0;stroke-width:0.5;"/>
     </g>
     <g id="line2d_14">
      <defs>
       <path d="M 0 0 
L -3.5 0 
" id="m6201fd744d" style="stroke:#000000;stroke-width:0.8;"/>
      </defs>
      <g>
       <use style="stroke:#000000;stroke-width:0.8;" x="63.336875" xlink:href="#m6201fd744d" y="283.370891"/>
      </g>
     </g>
     <g id="text_8">
      <!-- −0.04 -->
      <g transform="translate(23.942188 288.231516)scale(0.14 -0.14)">
       <defs>
        <path d="M 3484 2000 
L 116 2000 
L 116 2256 
L 3484 2256 
L 3484 2000 
z
" id="TimesNewRomanPSMT-2212" transform="scale(0.015625)"/>
       </defs>
       <use xlink:href="#TimesNewRomanPSMT-2212"/>
       <use x="56.396484" xlink:href="#TimesNewRomanPSMT-30"/>
       <use x="106.396484" xlink:href="#TimesNewRomanPSMT-2e"/>
       <use x="131.396484" xlink:href="#TimesNewRomanPSMT-30"/>
       <use x="181.396484" xlink:href="#TimesNewRomanPSMT-34"/>
      </g>
     </g>
    </g>
    <g id="ytick_2">
     <g id="line2d_15">
      <path clip-path="url(#pa1979213a3)" d="M 63.336875 218.677751 
L 398.136875 218.677751 
" style="fill:none;stroke:#000000;stroke-dasharray:0.5,0.825;stroke-dashoffset:0;stroke-width:0.5;"/>
     </g>
     <g id="line2d_16">
      <g>
       <use style="stroke:#000000;stroke-width:0.8;" x="63.336875" xlink:href="#m6201fd744d" y="218.677751"/>
      </g>
     </g>
     <g id="text_9">
      <!-- −0.02 -->
      <g transform="translate(23.942188 223.538376)scale(0.14 -0.14)">
       <use xlink:href="#TimesNewRomanPSMT-2212"/>
       <use x="56.396484" xlink:href="#TimesNewRomanPSMT-30"/>
       <use x="106.396484" xlink:href="#TimesNewRomanPSMT-2e"/>
       <use x="131.396484" xlink:href="#TimesNewRomanPSMT-30"/>
       <use x="181.396484" xlink:href="#TimesNewRomanPSMT-32"/>
      </g>
     </g>
    </g>
    <g id="ytick_3">
     <g id="line2d_17">
      <path clip-path="url(#pa1979213a3)" d="M 63.336875 153.984611 
L 398.136875 153.984611 
" style="fill:none;stroke:#000000;stroke-dasharray:0.5,0.825;stroke-dashoffset:0;stroke-width:0.5;"/>
     </g>
     <g id="line2d_18">
      <g>
       <use style="stroke:#000000;stroke-width:0.8;" x="63.336875" xlink:href="#m6201fd744d" y="153.984611"/>
      </g>
     </g>
     <g id="text_10">
      <!-- 0.00 -->
      <g transform="translate(31.836875 158.845236)scale(0.14 -0.14)">
       <use xlink:href="#TimesNewRomanPSMT-30"/>
       <use x="50" xlink:href="#TimesNewRomanPSMT-2e"/>
       <use x="75" xlink:href="#TimesNewRomanPSMT-30"/>
       <use x="125" xlink:href="#TimesNewRomanPSMT-30"/>
      </g>
     </g>
    </g>
    <g id="ytick_4">
     <g id="line2d_19">
      <path clip-path="url(#pa1979213a3)" d="M 63.336875 89.291471 
L 398.136875 89.291471 
" style="fill:none;stroke:#000000;stroke-dasharray:0.5,0.825;stroke-dashoffset:0;stroke-width:0.5;"/>
     </g>
     <g id="line2d_20">
      <g>
       <use style="stroke:#000000;stroke-width:0.8;" x="63.336875" xlink:href="#m6201fd744d" y="89.291471"/>
      </g>
     </g>
     <g id="text_11">
      <!-- 0.02 -->
      <g transform="translate(31.836875 94.152096)scale(0.14 -0.14)">
       <use xlink:href="#TimesNewRomanPSMT-30"/>
       <use x="50" xlink:href="#TimesNewRomanPSMT-2e"/>
       <use x="75" xlink:href="#TimesNewRomanPSMT-30"/>
       <use x="125" xlink:href="#TimesNewRomanPSMT-32"/>
      </g>
     </g>
    </g>
    <g id="ytick_5">
     <g id="line2d_21">
      <path clip-path="url(#pa1979213a3)" d="M 63.336875 24.598331 
L 398.136875 24.598331 
" style="fill:none;stroke:#000000;stroke-dasharray:0.5,0.825;stroke-dashoffset:0;stroke-width:0.5;"/>
     </g>
     <g id="line2d_22">
      <g>
       <use style="stroke:#000000;stroke-width:0.8;" x="63.336875" xlink:href="#m6201fd744d" y="24.598331"/>
      </g>
     </g>
     <g id="text_12">
      <!-- 0.04 -->
      <g transform="translate(31.836875 29.458956)scale(0.14 -0.14)">
       <use xlink:href="#TimesNewRomanPSMT-30"/>
       <use x="50" xlink:href="#TimesNewRomanPSMT-2e"/>
       <use x="75" xlink:href="#TimesNewRomanPSMT-30"/>
       <use x="125" xlink:href="#TimesNewRomanPSMT-34"/>
      </g>
     </g>
    </g>
    <g id="text_13">
     <!-- Volatage (V) -->
     <g transform="translate(16.92125 209.352344)rotate(-90)scale(0.14 -0.14)">
      <defs>
       <path d="M 4544 4238 
L 4544 4122 
Q 4319 4081 4203 3978 
Q 4038 3825 3909 3509 
L 2431 -97 
L 2316 -97 
L 728 3556 
Q 606 3838 556 3900 
Q 478 3997 364 4051 
Q 250 4106 56 4122 
L 56 4238 
L 1788 4238 
L 1788 4122 
Q 1494 4094 1406 4022 
Q 1319 3950 1319 3838 
Q 1319 3681 1463 3350 
L 2541 866 
L 3541 3319 
Q 3688 3681 3688 3822 
Q 3688 3913 3597 3995 
Q 3506 4078 3291 4113 
Q 3275 4116 3238 4122 
L 3238 4238 
L 4544 4238 
z
" id="TimesNewRomanPSMT-56" transform="scale(0.015625)"/>
       <path d="M 1600 2947 
Q 2250 2947 2644 2453 
Q 2978 2031 2978 1484 
Q 2978 1100 2793 706 
Q 2609 313 2286 112 
Q 1963 -88 1566 -88 
Q 919 -88 538 428 
Q 216 863 216 1403 
Q 216 1797 411 2186 
Q 606 2575 925 2761 
Q 1244 2947 1600 2947 
z
M 1503 2744 
Q 1338 2744 1170 2645 
Q 1003 2547 900 2300 
Q 797 2053 797 1666 
Q 797 1041 1045 587 
Q 1294 134 1700 134 
Q 2003 134 2200 384 
Q 2397 634 2397 1244 
Q 2397 2006 2069 2444 
Q 1847 2744 1503 2744 
z
" id="TimesNewRomanPSMT-6f" transform="scale(0.015625)"/>
       <path d="M 1184 4444 
L 1184 647 
Q 1184 378 1223 290 
Q 1263 203 1344 158 
Q 1425 113 1647 113 
L 1647 0 
L 244 0 
L 244 113 
Q 441 113 512 153 
Q 584 194 625 287 
Q 666 381 666 647 
L 666 3247 
Q 666 3731 644 3842 
Q 622 3953 573 3993 
Q 525 4034 450 4034 
Q 369 4034 244 3984 
L 191 4094 
L 1044 4444 
L 1184 4444 
z
" id="TimesNewRomanPSMT-6c" transform="scale(0.015625)"/>
       <path d="M 1822 413 
Q 1381 72 1269 19 
Q 1100 -59 909 -59 
Q 613 -59 420 144 
Q 228 347 228 678 
Q 228 888 322 1041 
Q 450 1253 767 1440 
Q 1084 1628 1822 1897 
L 1822 2009 
Q 1822 2438 1686 2597 
Q 1550 2756 1291 2756 
Q 1094 2756 978 2650 
Q 859 2544 859 2406 
L 866 2225 
Q 866 2081 792 2003 
Q 719 1925 600 1925 
Q 484 1925 411 2006 
Q 338 2088 338 2228 
Q 338 2497 613 2722 
Q 888 2947 1384 2947 
Q 1766 2947 2009 2819 
Q 2194 2722 2281 2516 
Q 2338 2381 2338 1966 
L 2338 994 
Q 2338 584 2353 492 
Q 2369 400 2405 369 
Q 2441 338 2488 338 
Q 2538 338 2575 359 
Q 2641 400 2828 588 
L 2828 413 
Q 2478 -56 2159 -56 
Q 2006 -56 1915 50 
Q 1825 156 1822 413 
z
M 1822 616 
L 1822 1706 
Q 1350 1519 1213 1441 
Q 966 1303 859 1153 
Q 753 1003 753 825 
Q 753 600 887 451 
Q 1022 303 1197 303 
Q 1434 303 1822 616 
z
" id="TimesNewRomanPSMT-61" transform="scale(0.015625)"/>
       <path d="M 1031 3803 
L 1031 2863 
L 1700 2863 
L 1700 2644 
L 1031 2644 
L 1031 788 
Q 1031 509 1111 412 
Q 1191 316 1316 316 
Q 1419 316 1516 380 
Q 1613 444 1666 569 
L 1788 569 
Q 1678 263 1478 108 
Q 1278 -47 1066 -47 
Q 922 -47 784 33 
Q 647 113 581 261 
Q 516 409 516 719 
L 516 2644 
L 63 2644 
L 63 2747 
Q 234 2816 414 2980 
Q 594 3144 734 3369 
Q 806 3488 934 3803 
L 1031 3803 
z
" id="TimesNewRomanPSMT-74" transform="scale(0.015625)"/>
       <path d="M 966 1044 
Q 703 1172 562 1401 
Q 422 1631 422 1909 
Q 422 2334 742 2640 
Q 1063 2947 1563 2947 
Q 1972 2947 2272 2747 
L 2878 2747 
Q 3013 2747 3034 2739 
Q 3056 2731 3066 2713 
Q 3084 2684 3084 2613 
Q 3084 2531 3069 2500 
Q 3059 2484 3036 2475 
Q 3013 2466 2878 2466 
L 2506 2466 
Q 2681 2241 2681 1891 
Q 2681 1491 2375 1206 
Q 2069 922 1553 922 
Q 1341 922 1119 984 
Q 981 866 932 777 
Q 884 688 884 625 
Q 884 572 936 522 
Q 988 472 1138 450 
Q 1225 438 1575 428 
Q 2219 413 2409 384 
Q 2700 344 2873 169 
Q 3047 -6 3047 -263 
Q 3047 -616 2716 -925 
Q 2228 -1381 1444 -1381 
Q 841 -1381 425 -1109 
Q 191 -953 191 -784 
Q 191 -709 225 -634 
Q 278 -519 444 -313 
Q 466 -284 763 25 
Q 600 122 533 198 
Q 466 275 466 372 
Q 466 481 555 628 
Q 644 775 966 1044 
z
M 1509 2797 
Q 1278 2797 1122 2612 
Q 966 2428 966 2047 
Q 966 1553 1178 1281 
Q 1341 1075 1591 1075 
Q 1828 1075 1981 1253 
Q 2134 1431 2134 1813 
Q 2134 2309 1919 2591 
Q 1759 2797 1509 2797 
z
M 934 0 
Q 788 -159 713 -296 
Q 638 -434 638 -550 
Q 638 -700 819 -813 
Q 1131 -1006 1722 -1006 
Q 2284 -1006 2551 -807 
Q 2819 -609 2819 -384 
Q 2819 -222 2659 -153 
Q 2497 -84 2016 -72 
Q 1313 -53 934 0 
z
" id="TimesNewRomanPSMT-67" transform="scale(0.015625)"/>
      </defs>
      <use xlink:href="#TimesNewRomanPSMT-56"/>
      <use x="59.341797" xlink:href="#TimesNewRomanPSMT-6f"/>
      <use x="109.341797" xlink:href="#TimesNewRomanPSMT-6c"/>
      <use x="137.125" xlink:href="#TimesNewRomanPSMT-61"/>
      <use x="181.509766" xlink:href="#TimesNewRomanPSMT-74"/>
      <use x="209.292969" xlink:href="#TimesNewRomanPSMT-61"/>
      <use x="253.677734" xlink:href="#TimesNewRomanPSMT-67"/>
      <use x="303.677734" xlink:href="#TimesNewRomanPSMT-65"/>
      <use x="348.0625" xlink:href="#TimesNewRomanPSMT-20"/>
      <use x="373.0625" xlink:href="#TimesNewRomanPSMT-28"/>
      <use x="406.363281" xlink:href="#TimesNewRomanPSMT-56"/>
      <use x="478.580078" xlink:href="#TimesNewRomanPSMT-29"/>
     </g>
    </g>
   </g>
   <g id="LineCollection_1">
    <path clip-path="url(#pa1979213a3)" d="M 78.555057 153.984611 
L 382.918693 153.984611 
" style="fill:none;stroke:#1f77b4;stroke-width:1.5;"/>
   </g>
   <g id="line2d_23">
    <path clip-path="url(#pa1979213a3)" d="M 78.555057 153.97054 
L 86.164148 154.010973 
L 86.194584 154.09184 
L 86.285893 154.051406 
L 86.377202 154.09184 
L 86.407639 154.051406 
L 90.303493 154.132273 
L 90.425239 154.132273 
L 95.842911 154.172706 
L 95.873348 154.253573 
L 95.903784 154.132273 
L 95.93422 154.132273 
L 108.443566 154.051406 
L 108.474002 154.010973 
L 108.534875 154.09184 
L 110.604548 154.172706 
L 110.695857 154.172706 
L 110.848039 154.132273 
L 111.913311 154.213139 
L 112.065493 154.253573 
L 112.400293 154.253573 
L 112.43073 154.374872 
L 112.522039 154.294006 
L 112.917711 154.374872 
L 113.069893 154.455739 
L 113.10033 154.374872 
L 113.191639 154.415305 
L 113.34382 154.455739 
L 113.800366 154.496172 
L 113.922111 154.577038 
L 114.43953 154.657905 
L 114.591711 154.698338 
L 114.713457 154.738771 
L 114.835202 154.819638 
L 115.139566 154.900504 
L 115.322184 154.98137 
L 115.413493 154.98137 
L 115.535239 155.021804 
L 115.596111 154.98137 
L 115.626548 155.021804 
L 115.809166 155.10267 
L 115.839602 155.062237 
L 115.900475 155.143103 
L 116.204839 155.183536 
L 116.235275 155.264403 
L 116.326584 155.22397 
L 116.69182 155.264403 
L 116.78313 155.345269 
L 116.813566 155.304836 
L 116.965748 155.345269 
L 117.239675 155.426136 
L 117.391857 155.466569 
L 117.574475 155.507002 
L 117.69622 155.587869 
L 118.183202 155.668735 
L 118.304948 155.749601 
L 118.335384 155.709168 
L 118.36582 155.668735 
L 118.426693 155.749601 
L 118.731057 155.830468 
L 118.852802 155.911334 
L 119.157166 155.951768 
L 119.218039 156.032634 
L 119.248475 155.992201 
L 119.278911 155.951768 
L 119.309348 156.073067 
L 119.339784 156.032634 
L 119.46153 156.1135 
L 119.613711 156.153934 
L 119.765893 156.275233 
L 119.978948 156.396533 
L 120.13113 156.477399 
L 120.37462 156.639132 
L 120.435493 156.679565 
L 120.618111 156.881731 
L 120.739857 156.962598 
L 120.952911 157.24563 
L 121.074657 157.326497 
L 121.287711 157.609529 
L 122.018184 158.701226 
L 122.261675 159.267291 
L 122.505166 159.712056 
L 122.779093 160.399421 
L 122.961711 160.803753 
L 123.326948 161.855017 
L 123.418257 162.097616 
L 123.844366 163.351045 
L 123.905239 163.593645 
L 124.331348 165.008807 
L 126.766257 175.157543 
L 128.135893 181.869455 
L 128.683748 184.497617 
L 129.383784 187.651406 
L 130.84473 193.029023 
L 132.09262 196.061514 
L 132.153493 196.101948 
L 132.305675 196.26368 
L 132.51873 196.344547 
L 132.670911 196.38498 
L 133.005711 196.38498 
L 133.127457 196.182814 
L 133.157893 196.223247 
L 133.218766 196.142381 
L 133.705748 195.333717 
L 135.318875 190.805197 
L 136.87113 182.031191 
L 138.727748 166.383536 
L 139.671275 156.396533 
L 140.401748 147.460793 
L 142.593166 116.893284 
L 143.293202 106.663681 
L 144.358475 91.056461 
L 145.606366 72.901949 
L 147.462984 49.652855 
L 147.767348 46.418191 
L 148.315202 40.595809 
L 148.58913 38.088956 
L 149.410911 31.457903 
L 150.019639 27.455015 
L 150.719675 24.301231 
L 151.115348 23.128667 
L 151.784948 22.400866 
L 152.424111 22.441296 
L 152.60673 22.724326 
L 152.667602 22.805195 
L 152.880657 23.249961 
L 153.641566 25.554651 
L 154.585093 31.134444 
L 155.61993 40.27235 
L 156.228657 46.903387 
L 157.324366 61.257187 
L 158.450511 79.33083 
L 160.459311 118.753212 
L 162.620293 166.990034 
L 165.23782 226.952489 
L 167.155311 265.40448 
L 169.042366 296.093282 
L 170.472875 311.902665 
L 170.92942 315.582097 
L 171.629457 320.272343 
L 172.02513 322.213134 
L 172.512111 323.7496 
L 172.725166 324.194365 
L 172.999093 324.67956 
L 173.333893 324.598694 
L 174.003493 323.587864 
L 174.307857 322.819639 
L 174.642657 321.647073 
L 175.312257 318.533715 
L 176.073166 313.924326 
L 176.651457 309.355373 
L 177.594984 300.945268 
L 178.355893 292.899058 
L 180.06033 271.226853 
L 180.882111 259.824687 
L 181.73433 247.047799 
L 188.065093 147.865125 
L 189.130366 133.915667 
L 191.139166 108.685342 
L 192.69142 91.379927 
L 193.269711 85.961877 
L 193.756693 81.433357 
L 194.304548 77.349599 
L 194.913275 72.61892 
L 195.308948 69.586425 
L 195.765493 66.270905 
L 195.978548 64.61314 
L 197.104693 56.526498 
L 197.987348 51.351043 
L 198.230839 50.421083 
L 199.630911 45.245628 
L 199.72222 44.962596 
L 200.026584 43.870899 
L 200.574439 42.091844 
L 201.030984 41.323607 
L 201.639711 39.989317 
L 201.82233 39.908451 
L 202.004948 39.827581 
L 202.187566 39.948877 
L 202.309311 39.948877 
L 202.674548 39.868011 
L 202.857166 39.787141 
L 203.009348 39.827581 
L 203.16153 39.868011 
L 203.344148 40.110614 
L 203.465893 40.19148 
L 203.618075 40.353216 
L 203.770257 40.434086 
L 203.922439 40.595809 
L 203.952875 40.474512 
L 204.044184 40.514939 
L 204.318111 40.717115 
L 204.40942 40.797985 
L 204.74422 41.404473 
L 205.200766 42.334437 
L 205.261639 42.415303 
L 205.596439 43.062235 
L 205.657311 43.143101 
L 208.335711 50.501949 
L 208.944439 53.170538 
L 210.040148 57.901227 
L 210.344511 59.478126 
L 210.922802 61.984985 
L 211.44022 64.491844 
L 213.083784 73.791476 
L 213.479457 76.460072 
L 214.301239 82.605923 
L 214.78822 86.649241 
L 215.45782 92.875956 
L 216.675275 105.208086 
L 219.597166 137.392923 
L 220.175457 144.266569 
L 222.549493 173.944547 
L 223.797384 190.562597 
L 225.714875 214.579926 
L 227.419311 236.171261 
L 227.906293 242.276676 
L 230.249893 266.010969 
L 230.828184 270.418186 
L 231.893457 276.806633 
L 232.076075 277.574871 
L 232.502184 279.273072 
L 233.476148 282.709886 
L 234.510984 283.922892 
L 234.63273 283.842022 
L 234.663166 283.842022 
L 234.815348 283.59942 
L 234.87622 283.558993 
L 235.180584 282.992918 
L 235.21102 282.992918 
L 235.424075 282.588589 
L 235.667566 282.143824 
L 236.854584 276.968369 
L 237.402439 273.491113 
L 239.137311 258.77343 
L 240.32433 246.76476 
L 242.698366 217.127221 
L 243.367966 208.191478 
L 244.798475 189.794366 
L 245.92462 173.378481 
L 247.750802 146.005197 
L 249.69873 119.117111 
L 251.37273 100.3561 
L 252.529311 90.571263 
L 254.081566 80.988591 
L 255.694693 74.964043 
L 255.786002 74.721443 
L 256.212111 73.468011 
L 256.486039 72.942382 
L 256.699093 72.61892 
L 256.851275 72.53805 
L 257.06433 72.376314 
L 257.155639 72.376314 
L 257.338257 72.295454 
L 257.916548 72.376314 
L 258.40353 72.861516 
L 258.494839 72.821082 
L 258.586148 72.901949 
L 258.616584 72.861516 
L 258.799202 72.942382 
L 258.829639 72.901949 
L 258.890511 72.982819 
L 259.07313 73.063679 
L 259.590548 73.589314 
L 259.620984 73.54888 
L 259.681857 73.629747 
L 259.98622 73.872346 
L 260.138402 73.953212 
L 260.808002 75.004476 
L 261.203675 75.813143 
L 261.264548 75.894003 
L 262.177639 78.603032 
L 263.455966 84.101946 
L 263.882075 86.244906 
L 264.277748 88.266573 
L 265.221275 93.846353 
L 267.473566 109.53444 
L 272.495566 148.673789 
L 274.321748 160.116389 
L 274.80873 162.461515 
L 275.204402 164.361875 
L 275.81313 167.030467 
L 276.939275 171.073789 
L 277.548002 172.97415 
L 278.06542 174.591479 
L 279.252439 177.50267 
L 279.313311 177.583536 
L 279.982911 178.594367 
L 280.135093 178.836966 
L 280.195966 178.917832 
L 280.713384 179.443464 
L 280.83513 179.52433 
L 281.626475 180.454295 
L 281.656911 180.373428 
L 281.717784 180.454295 
L 281.869966 180.535161 
L 281.961275 180.535161 
L 282.113457 180.575593 
L 282.143893 180.535161 
L 282.17433 180.616027 
L 282.356948 180.696894 
L 282.783057 180.737327 
L 282.813493 180.818194 
L 282.874366 180.77776 
L 283.08742 180.616027 
L 283.117857 180.656461 
L 283.148293 180.616027 
L 283.330911 180.413861 
L 283.574402 180.332994 
L 283.878766 180.090395 
L 284.030948 180.009529 
L 285.004911 178.836966 
L 285.035348 178.8774 
L 285.09622 178.796532 
L 285.674511 177.866569 
L 286.009311 177.260071 
L 286.313675 176.734439 
L 286.52673 176.289674 
L 286.709348 175.966207 
L 286.891966 175.521442 
L 287.10502 175.117111 
L 287.318075 174.712778 
L 287.835493 173.621082 
L 287.86593 173.621082 
L 288.078984 173.216749 
L 289.357311 171.680287 
L 289.692111 171.59942 
L 289.87473 171.518554 
L 290.057348 171.478121 
L 290.087784 171.397255 
L 290.179093 171.437688 
L 290.392148 171.518554 
L 290.87913 172.003753 
L 290.970439 172.08462 
L 291.12262 172.286786 
L 291.153057 172.246352 
L 291.21393 172.327218 
L 291.700911 173.135883 
L 292.035711 174.065847 
L 292.187893 174.389312 
L 292.46182 175.036244 
L 295.353275 183.001586 
L 295.718511 184.05285 
L 295.748948 184.05285 
L 296.083748 184.94238 
L 296.266366 185.346713 
L 296.722911 186.276678 
L 297.24033 187.125775 
L 297.514257 187.610972 
L 297.57513 187.69184 
L 297.757748 187.894007 
L 297.788184 187.894007 
L 297.940366 188.055739 
L 298.183857 188.217471 
L 298.336039 188.298338 
L 298.518657 188.540937 
L 298.640402 188.621803 
L 298.975202 188.904836 
L 299.431748 188.823969 
L 299.553493 188.783536 
L 299.705675 188.823969 
L 299.91873 188.904836 
L 300.101348 188.985702 
L 300.375275 188.945269 
L 300.58833 188.621803 
L 300.649202 188.662236 
L 300.770948 188.46007 
L 300.801384 188.500504 
L 300.862257 188.46007 
L 300.892693 188.379204 
L 300.984002 188.419637 
L 301.197057 188.257904 
L 301.318802 188.298338 
L 301.470984 188.09617 
L 301.50142 188.136604 
L 301.562293 188.055739 
L 301.805784 187.651406 
L 301.866657 187.570538 
L 302.718875 186.600143 
L 302.810184 186.519275 
L 302.992802 186.276678 
L 303.023239 186.276678 
L 303.205857 185.993643 
L 303.449348 185.629745 
L 303.479784 185.629745 
L 303.662402 185.265846 
L 303.692839 185.30628 
L 303.723275 185.225415 
L 303.997202 184.780648 
L 304.301566 184.214582 
L 306.310366 178.634799 
L 306.675602 177.260071 
L 306.979966 176.168374 
L 308.045239 171.073789 
L 308.501784 168.809529 
L 310.814948 155.992201 
L 311.484548 151.544547 
L 315.684766 124.37343 
L 316.110875 122.270901 
L 316.476111 120.532273 
L 318.484911 112.930829 
L 318.57622 112.647797 
L 319.24582 110.626136 
L 319.550184 109.53444 
L 321.072002 105.774151 
L 322.228584 104.116389 
L 322.411202 103.833357 
L 323.111239 102.984256 
L 323.141675 103.065125 
L 323.172111 102.984256 
L 323.385166 102.620357 
L 323.415602 102.66079 
L 323.446039 102.579924 
L 324.69393 101.083901 
L 324.785239 101.003032 
L 325.02873 100.841296 
L 325.576584 100.922165 
L 325.789639 101.124335 
L 325.820075 101.083901 
L 325.880948 101.164761 
L 326.824475 102.539497 
L 327.067966 103.145992 
L 327.098402 103.145992 
L 327.37233 103.792923 
L 328.254984 106.380649 
L 328.559348 107.431912 
L 328.650657 107.714945 
L 328.924584 108.685342 
L 329.259384 110.221804 
L 329.807239 112.849963 
L 330.355093 115.761154 
L 332.30302 126.637689 
L 332.668257 128.740215 
L 333.033493 130.640577 
L 334.037893 136.584259 
L 334.920548 141.840577 
L 335.590148 145.560432 
L 335.955384 147.460793 
L 337.842439 156.922165 
L 338.390293 159.550323 
L 339.486002 164.806641 
L 339.638184 165.453572 
L 340.186039 167.839132 
L 340.246911 168.041298 
L 341.09913 170.992922 
L 341.464366 172.20592 
L 341.738293 173.135883 
L 343.807966 178.351767 
L 344.142766 178.958266 
L 344.386257 179.322165 
L 345.299348 180.413861 
L 345.421093 180.413861 
L 345.725457 180.656461 
L 345.877639 180.737327 
L 346.02982 180.939492 
L 346.12113 180.939492 
L 346.303748 181.14166 
L 346.395057 181.222525 
L 346.760293 181.54599 
L 346.912475 181.626858 
L 347.12553 181.909889 
L 347.186402 181.950323 
L 347.338584 182.112056 
L 347.490766 182.192923 
L 347.734257 182.354656 
L 347.856002 182.435521 
L 348.03862 182.516389 
L 348.342984 182.556823 
L 348.46473 182.637687 
L 348.677784 182.556823 
L 348.860402 182.475955 
L 349.073457 182.435521 
L 349.195202 182.354656 
L 349.499566 182.273788 
L 349.530002 182.192923 
L 349.621311 182.233354 
L 349.80393 182.15249 
L 350.077857 181.950323 
L 350.230039 181.869455 
L 350.443093 181.748157 
L 350.777893 181.667292 
L 350.960511 181.586424 
L 351.112693 181.54599 
L 351.295311 181.343824 
L 351.417057 181.262959 
L 351.843166 180.858626 
L 351.934475 180.77776 
L 353.699784 178.311334 
L 353.882402 177.987869 
L 355.40422 176.12794 
L 355.49553 176.087508 
L 355.678148 175.885341 
L 355.921639 175.723608 
L 356.07382 175.642742 
L 356.226002 175.521442 
L 356.347748 175.440576 
L 356.530366 175.319277 
L 356.621675 175.319277 
L 356.83473 175.157543 
L 356.926039 175.157543 
L 357.16953 174.99581 
L 357.473893 174.955378 
L 357.626075 174.793644 
L 357.656511 174.834078 
L 357.717384 174.753212 
L 357.930439 174.712778 
L 358.08262 174.551045 
L 358.234802 174.510613 
L 358.386984 174.268012 
L 358.478293 174.308446 
L 358.630475 174.10628 
L 358.904402 173.904113 
L 358.934839 173.944547 
L 358.965275 173.863681 
L 359.391384 173.459348 
L 359.482693 173.418916 
L 359.665311 173.216749 
L 360.000111 172.933716 
L 360.152293 172.85285 
L 360.304475 172.731551 
L 362.039348 170.265124 
L 362.465457 169.375594 
L 362.495893 169.375594 
L 362.708948 168.930828 
L 362.982875 168.405197 
L 363.591602 167.030467 
L 363.622039 167.030467 
L 363.86553 166.42397 
L 363.926402 166.343103 
L 364.352511 165.453572 
L 364.382948 165.453572 
L 364.596002 165.008807 
L 365.143857 164.15971 
L 365.356911 163.755378 
L 365.44822 163.674511 
L 366.726548 162.138049 
L 366.848293 162.057183 
L 367.274402 161.65285 
L 367.304839 161.693284 
L 367.365711 161.612417 
L 367.88313 161.086786 
L 367.974439 161.005919 
L 368.12662 160.925053 
L 368.21793 160.965486 
L 368.370111 160.844186 
L 368.522293 160.803753 
L 368.674475 160.682453 
L 368.948402 160.439854 
L 368.978839 160.480287 
L 369.009275 160.358988 
L 369.191893 160.278121 
L 369.404948 160.156822 
L 369.648439 160.075955 
L 369.861493 159.954656 
L 369.983239 159.914222 
L 370.13542 159.75249 
L 370.531093 159.388591 
L 370.652839 159.307724 
L 370.835457 159.105558 
L 370.926766 159.065125 
L 371.13982 158.782092 
L 371.23113 158.701226 
L 371.931166 157.932995 
L 372.052911 157.852129 
L 372.996439 156.760432 
L 373.087748 156.719999 
L 373.300802 156.436966 
L 373.392111 156.3561 
L 374.396511 154.860071 
L 374.640002 154.496172 
L 374.974802 153.889674 
L 375.58353 152.514944 
L 375.613966 152.514944 
L 375.887893 151.868013 
L 376.100948 151.423248 
L 377.470584 148.067291 
L 377.683639 147.622526 
L 378.657602 145.317832 
L 378.84022 144.9135 
L 379.114148 144.266569 
L 382.918693 134.0774 
L 382.918693 134.0774 
" style="fill:none;stroke:#0000ff;stroke-linecap:square;stroke-width:1.5;"/>
   </g>
   <g id="line2d_24">
    <path clip-path="url(#pa1979213a3)" d="M 78.555057 154.01348 
L 78.768111 153.993264 
L 78.95073 153.993264 
L 98.734366 153.912397 
L 98.886548 153.892181 
L 99.921384 153.993264 
L 100.164875 154.033697 
L 100.530111 154.13478 
L 101.747566 155.064744 
L 102.660657 156.45969 
L 103.604184 158.562217 
L 105.582548 165.496513 
L 106.252148 168.468354 
L 110.42193 187.330446 
L 111.152402 189.372325 
L 111.66982 190.484238 
L 111.852439 190.726837 
L 112.33942 191.454635 
L 112.522039 191.677018 
L 112.735093 191.879184 
L 113.465566 191.778101 
L 113.830802 191.454635 
L 113.922111 191.393985 
L 115.01782 188.967992 
L 115.535239 187.290015 
L 116.02222 185.369436 
L 116.630948 182.053913 
L 118.000584 173.219256 
L 120.861602 149.525394 
L 122.13993 137.536946 
L 125.183566 110.264744 
L 127.648911 96.193989 
L 128.562002 92.453914 
L 128.896802 91.261138 
L 129.596839 89.32034 
L 130.388184 88.451026 
L 130.50993 88.349943 
L 131.149093 88.046694 
L 131.362148 88.12756 
L 131.544766 88.20843 
L 131.879566 88.10734 
L 132.670911 87.682795 
L 133.584002 88.167994 
L 133.85793 88.269077 
L 135.014511 89.623592 
L 135.44062 89.724672 
L 136.627639 91.139835 
L 136.77982 91.220704 
L 137.479857 92.332614 
L 138.362511 94.293625 
L 139.306039 98.498679 
L 142.319239 115.096513 
L 143.049711 120.130448 
L 144.48022 131.391097 
L 150.537057 180.557883 
L 151.328402 186.48135 
L 153.550257 200.511675 
L 154.158984 203.180267 
L 155.041639 206.253194 
L 155.61993 207.50662 
L 156.593893 208.618531 
L 156.86782 208.679187 
L 157.172184 208.598317 
L 157.476548 208.497237 
L 157.750475 208.315288 
L 157.933093 208.214205 
L 159.241857 205.828642 
L 159.363602 205.646693 
L 160.459311 203.240916 
L 160.88542 202.20987 
L 161.798511 199.480628 
L 163.685566 192.829364 
L 164.416039 189.473408 
L 165.116075 186.319617 
L 165.603057 184.318172 
L 166.790075 179.324672 
L 167.094439 178.232975 
L 167.794475 175.867632 
L 168.555384 174.573769 
L 168.768439 174.310953 
L 169.194548 173.926837 
L 169.833711 174.02792 
L 170.655493 174.674852 
L 171.081602 175.705898 
L 171.446839 176.65608 
L 171.781639 177.565826 
L 172.207748 178.98099 
L 174.61222 190.686404 
L 176.255784 201.178823 
L 178.416766 216.260411 
L 179.086366 220.748494 
L 180.334257 226.833699 
L 180.882111 228.309508 
L 181.034293 228.673407 
L 181.916948 230.715284 
L 182.677857 231.544165 
L 183.043093 231.685682 
L 183.65182 230.695065 
L 184.351857 228.552104 
L 185.021457 225.43875 
L 185.508439 222.305173 
L 186.269348 215.957162 
L 187.456366 203.03875 
L 189.069493 181.305898 
L 190.43913 159.694347 
L 191.77833 135.616369 
L 193.269711 110.851026 
L 195.308948 80.020701 
L 196.617711 64.858246 
L 197.561239 55.983156 
L 198.413457 49.028641 
L 200.209202 37.808427 
L 201.335348 33.037315 
L 202.035384 31.884955 
L 202.522366 31.39976 
L 202.918039 31.48063 
L 203.800693 32.47124 
L 203.892002 32.552106 
L 204.287675 33.239477 
L 204.83553 34.998325 
L 205.261639 36.7976 
L 205.74862 39.587485 
L 209.005311 64.170885 
L 210.740184 78.201203 
L 219.536293 147.422866 
L 225.16702 184.116006 
L 227.449748 195.659689 
L 228.94113 201.178823 
L 230.249893 204.373046 
L 230.889057 205.404093 
L 231.28473 205.949942 
L 232.380439 207.587487 
L 233.080475 208.739833 
L 233.62833 209.649581 
L 234.267493 211.064743 
L 234.54142 211.610591 
L 236.428475 215.128281 
L 236.671966 215.41131 
L 236.97633 215.795432 
L 237.158948 216.017815 
L 237.432875 216.361494 
L 237.55462 216.462574 
L 238.254657 217.048859 
L 238.498148 217.210595 
L 239.685166 217.109512 
L 239.98953 217.028642 
L 241.420039 217.129725 
L 241.785275 217.251028 
L 242.150511 217.352108 
L 242.546184 217.513837 
L 242.66793 217.554274 
L 242.820111 217.63514 
L 243.033166 217.736223 
L 243.489711 218.160775 
L 244.281057 219.393988 
L 247.142075 224.852469 
L 248.35953 226.308064 
L 248.542148 226.409144 
L 248.785639 226.449577 
L 249.394366 226.348497 
L 250.36833 225.580266 
L 251.524911 223.861858 
L 252.438002 221.15283 
L 253.198911 217.695787 
L 254.355493 210.96366 
L 255.542511 202.371602 
L 256.425166 194.487126 
L 258.433966 173.401205 
L 260.473202 147.746332 
L 262.025457 126.680628 
L 264.916911 87.844531 
L 267.838802 56.084236 
L 268.538839 50.544883 
L 269.78673 42.923222 
L 270.547639 40.335503 
L 270.943311 39.365099 
L 271.552039 38.738391 
L 272.404257 38.839477 
L 272.617311 39.10229 
L 272.982548 39.749218 
L 274.200002 43.287121 
L 274.686984 45.672694 
L 276.117493 54.871243 
L 278.308911 73.207705 
L 281.74822 108.566549 
L 283.51353 127.26691 
L 288.292039 173.785321 
L 291.000875 196.245971 
L 292.309639 205.040194 
L 294.196693 214.501563 
L 294.866293 216.361494 
L 296.418548 219.212039 
L 297.179457 220.061133 
L 297.422948 220.162213 
L 297.696875 220.222866 
L 298.275166 220.141999 
L 298.640402 219.838747 
L 298.883893 219.555718 
L 300.192657 217.655354 
L 300.649202 216.50301 
L 301.075311 215.41131 
L 302.810184 209.285682 
L 303.571093 205.242361 
L 304.971166 195.255357 
L 306.27993 184.904455 
L 307.314766 177.30301 
L 308.684402 167.255358 
L 309.87142 160.058245 
L 310.29753 157.935502 
L 311.119311 154.13478 
L 315.65433 136.485682 
L 316.415239 134.180989 
L 316.871784 132.765827 
L 317.267457 131.734781 
L 322.563384 117.967271 
L 324.93742 112.993986 
L 327.03753 107.677019 
L 327.189711 107.454636 
L 327.737566 106.605538 
L 328.28542 105.695791 
L 328.833275 104.826477 
L 328.894148 104.765827 
L 329.228948 104.341275 
L 329.62462 103.957163 
L 329.989857 103.653911 
L 330.902948 103.168719 
L 331.663857 103.249579 
L 331.907348 103.391101 
L 332.546511 103.91673 
L 332.911748 104.401932 
L 333.97702 105.99904 
L 334.342257 106.827921 
L 334.707493 107.778102 
L 337.477202 117.360773 
L 338.968584 123.729005 
L 341.312184 136.768715 
L 343.168802 148.514563 
L 349.651748 195.073408 
L 351.660548 206.414924 
L 352.72582 211.489289 
L 353.882402 215.674129 
L 355.556402 219.838747 
L 356.043384 220.667634 
L 356.317311 221.011313 
L 356.530366 221.112396 
L 356.712984 221.112396 
L 356.956475 221.011313 
L 357.595639 220.465465 
L 358.08262 219.636584 
L 358.934839 217.695787 
L 359.75662 214.582433 
L 360.487093 210.700844 
L 363.591602 189.392541 
L 366.239566 167.47774 
L 367.426584 157.126838 
L 369.100584 142.570881 
L 369.983239 134.686404 
L 371.322439 122.435141 
L 372.387711 114.186766 
L 373.726911 105.210593 
L 374.82262 98.660412 
L 375.948766 93.949946 
L 377.714075 88.451026 
L 378.779348 86.570882 
L 379.631566 86.126116 
L 379.905493 86.186763 
L 380.27073 86.287852 
L 381.122948 86.975217 
L 382.918693 90.755722 
L 382.918693 90.755722 
" style="fill:none;stroke:#ff0000;stroke-linecap:square;stroke-width:1.5;"/>
   </g>
   <g id="line2d_25">
    <path clip-path="url(#pa1979213a3)" d="M 123.570439 162.542381 
" style="fill:none;stroke:#ffffff;stroke-linecap:square;stroke-width:1.5;"/>
    <defs>
     <path d="M 0 -5 
L -1.12257 -1.545085 
L -4.755283 -1.545085 
L -1.816356 0.59017 
L -2.938926 4.045085 
L -0 1.90983 
L 2.938926 4.045085 
L 1.816356 0.59017 
L 4.755283 -1.545085 
L 1.12257 -1.545085 
z
" id="mefbc8a3b59" style="stroke:#ffffff;stroke-linejoin:bevel;"/>
    </defs>
    <g clip-path="url(#pa1979213a3)">
     <use style="fill:#0000ff;stroke:#ffffff;stroke-linejoin:bevel;" x="123.570439" xlink:href="#mefbc8a3b59" y="162.542381"/>
    </g>
   </g>
   <g id="line2d_26">
    <path clip-path="url(#pa1979213a3)" d="M 104.152039 160.179545 
" style="fill:none;stroke:#ffffff;stroke-linecap:square;stroke-width:1.5;"/>
    <defs>
     <path d="M 0 -5 
L -1.12257 -1.545085 
L -4.755283 -1.545085 
L -1.816356 0.59017 
L -2.938926 4.045085 
L -0 1.90983 
L 2.938926 4.045085 
L 1.816356 0.59017 
L 4.755283 -1.545085 
L 1.12257 -1.545085 
z
" id="m983b355e09" style="stroke:#ffffff;stroke-linejoin:bevel;"/>
    </defs>
    <g clip-path="url(#pa1979213a3)">
     <use style="fill:#ff0000;stroke:#ffffff;stroke-linejoin:bevel;" x="104.152039" xlink:href="#m983b355e09" y="160.179545"/>
    </g>
   </g>
   <g id="patch_3">
    <path d="M 63.336875 339.84 
L 63.336875 7.2 
" style="fill:none;stroke:#000000;stroke-linecap:square;stroke-linejoin:miter;stroke-width:0.8;"/>
   </g>
   <g id="patch_4">
    <path d="M 398.136875 339.84 
L 398.136875 7.2 
" style="fill:none;stroke:#000000;stroke-linecap:square;stroke-linejoin:miter;stroke-width:0.8;"/>
   </g>
   <g id="patch_5">
    <path d="M 63.336875 339.84 
L 398.136875 339.84 
" style="fill:none;stroke:#000000;stroke-linecap:square;stroke-linejoin:miter;stroke-width:0.8;"/>
   </g>
   <g id="patch_6">
    <path d="M 63.336875 7.2 
L 398.136875 7.2 
" style="fill:none;stroke:#000000;stroke-linecap:square;stroke-linejoin:miter;stroke-width:0.8;"/>
   </g>
   <g id="text_14">
    <g id="patch_7">
     <path d="M 75.036875 331.242688 
L 166.79375 331.242688 
L 166.79375 293.760312 
L 75.036875 293.760312 
z
" style="fill:#ffffff;stroke:#000000;stroke-linejoin:miter;stroke-width:0.75;"/>
    </g>
    <!-- Auto_00162 -->
    <g transform="translate(80.076875 308.521563)scale(0.14 -0.14)">
     <defs>
      <path d="M 2928 1419 
L 1288 1419 
L 1000 750 
Q 894 503 894 381 
Q 894 284 986 211 
Q 1078 138 1384 116 
L 1384 0 
L 50 0 
L 50 116 
Q 316 163 394 238 
Q 553 388 747 847 
L 2238 4334 
L 2347 4334 
L 3822 809 
Q 4000 384 4145 257 
Q 4291 131 4550 116 
L 4550 0 
L 2878 0 
L 2878 116 
Q 3131 128 3220 200 
Q 3309 272 3309 375 
Q 3309 513 3184 809 
L 2928 1419 
z
M 2841 1650 
L 2122 3363 
L 1384 1650 
L 2841 1650 
z
" id="TimesNewRomanPSMT-41" transform="scale(0.015625)"/>
      <path d="M 2709 2863 
L 2709 1128 
Q 2709 631 2732 520 
Q 2756 409 2807 365 
Q 2859 322 2928 322 
Q 3025 322 3147 375 
L 3191 266 
L 2334 -88 
L 2194 -88 
L 2194 519 
Q 1825 119 1631 15 
Q 1438 -88 1222 -88 
Q 981 -88 804 51 
Q 628 191 559 409 
Q 491 628 491 1028 
L 491 2306 
Q 491 2509 447 2587 
Q 403 2666 317 2708 
Q 231 2750 6 2747 
L 6 2863 
L 1009 2863 
L 1009 947 
Q 1009 547 1148 422 
Q 1288 297 1484 297 
Q 1619 297 1789 381 
Q 1959 466 2194 703 
L 2194 2325 
Q 2194 2569 2105 2655 
Q 2016 2741 1734 2747 
L 1734 2863 
L 2709 2863 
z
" id="TimesNewRomanPSMT-75" transform="scale(0.015625)"/>
      <path d="M 3256 -1381 
L -53 -1381 
L -53 -1119 
L 3256 -1119 
L 3256 -1381 
z
" id="TimesNewRomanPSMT-5f" transform="scale(0.015625)"/>
      <path d="M 2869 4325 
L 2869 4209 
Q 2456 4169 2195 4045 
Q 1934 3922 1679 3669 
Q 1425 3416 1258 3105 
Q 1091 2794 978 2366 
Q 1428 2675 1881 2675 
Q 2316 2675 2634 2325 
Q 2953 1975 2953 1425 
Q 2953 894 2631 456 
Q 2244 -75 1606 -75 
Q 1172 -75 869 213 
Q 275 772 275 1663 
Q 275 2231 503 2743 
Q 731 3256 1154 3653 
Q 1578 4050 1965 4187 
Q 2353 4325 2688 4325 
L 2869 4325 
z
M 925 2138 
Q 869 1716 869 1456 
Q 869 1156 980 804 
Q 1091 453 1309 247 
Q 1469 100 1697 100 
Q 1969 100 2183 356 
Q 2397 613 2397 1088 
Q 2397 1622 2184 2012 
Q 1972 2403 1581 2403 
Q 1463 2403 1327 2353 
Q 1191 2303 925 2138 
z
" id="TimesNewRomanPSMT-36" transform="scale(0.015625)"/>
     </defs>
     <use xlink:href="#TimesNewRomanPSMT-41"/>
     <use x="72.216797" xlink:href="#TimesNewRomanPSMT-75"/>
     <use x="122.216797" xlink:href="#TimesNewRomanPSMT-74"/>
     <use x="150" xlink:href="#TimesNewRomanPSMT-6f"/>
     <use x="200" xlink:href="#TimesNewRomanPSMT-5f"/>
     <use x="250" xlink:href="#TimesNewRomanPSMT-30"/>
     <use x="300" xlink:href="#TimesNewRomanPSMT-30"/>
     <use x="350" xlink:href="#TimesNewRomanPSMT-31"/>
     <use x="400" xlink:href="#TimesNewRomanPSMT-36"/>
     <use x="450" xlink:href="#TimesNewRomanPSMT-32"/>
    </g>
    <!-- Vs: 313.26m/s -->
    <g transform="translate(80.076875 323.208)scale(0.14 -0.14)">
     <defs>
      <path d="M 903 2950 
Q 1047 2950 1148 2848 
Q 1250 2747 1250 2603 
Q 1250 2459 1148 2357 
Q 1047 2256 903 2256 
Q 759 2256 657 2357 
Q 556 2459 556 2603 
Q 556 2747 657 2848 
Q 759 2950 903 2950 
z
M 897 609 
Q 1044 609 1145 506 
Q 1247 403 1247 259 
Q 1247 116 1144 14 
Q 1041 -88 897 -88 
Q 753 -88 651 14 
Q 550 116 550 259 
Q 550 403 651 506 
Q 753 609 897 609 
z
" id="TimesNewRomanPSMT-3a" transform="scale(0.015625)"/>
      <path d="M 1794 4444 
L 259 -88 
L 9 -88 
L 1544 4444 
L 1794 4444 
z
" id="TimesNewRomanPSMT-2f" transform="scale(0.015625)"/>
     </defs>
     <use xlink:href="#TimesNewRomanPSMT-56"/>
     <use x="72.216797" xlink:href="#TimesNewRomanPSMT-73"/>
     <use x="111.132812" xlink:href="#TimesNewRomanPSMT-3a"/>
     <use x="138.916016" xlink:href="#TimesNewRomanPSMT-20"/>
     <use x="163.916016" xlink:href="#TimesNewRomanPSMT-33"/>
     <use x="213.916016" xlink:href="#TimesNewRomanPSMT-31"/>
     <use x="263.916016" xlink:href="#TimesNewRomanPSMT-33"/>
     <use x="313.916016" xlink:href="#TimesNewRomanPSMT-2e"/>
     <use x="338.916016" xlink:href="#TimesNewRomanPSMT-32"/>
     <use x="388.916016" xlink:href="#TimesNewRomanPSMT-36"/>
     <use x="438.916016" xlink:href="#TimesNewRomanPSMT-6d"/>
     <use x="516.699219" xlink:href="#TimesNewRomanPSMT-2f"/>
     <use x="544.482422" xlink:href="#TimesNewRomanPSMT-73"/>
    </g>
   </g>
  </g>
 </g>
 <defs>
  <clipPath id="pa1979213a3">
   <rect height="332.64" width="334.8" x="63.336875" y="7.2"/>
  </clipPath>
 </defs>
</svg>
