<?xml version="1.0" encoding="utf-8" standalone="no"?>
<!DOCTYPE svg PUBLIC "-//W3C//DTD SVG 1.1//EN"
  "http://www.w3.org/Graphics/SVG/1.1/DTD/svg11.dtd">
<svg height="383.471875pt" version="1.1" viewBox="0 0 421.086875 383.471875" width="421.086875pt" xmlns="http://www.w3.org/2000/svg" xmlns:xlink="http://www.w3.org/1999/xlink">
 <metadata>
  <rdf:RDF xmlns:cc="http://creativecommons.org/ns#" xmlns:dc="http://purl.org/dc/elements/1.1/" xmlns:rdf="http://www.w3.org/1999/02/22-rdf-syntax-ns#">
   <cc:Work>
    <dc:type rdf:resource="http://purl.org/dc/dcmitype/StillImage"/>
    <dc:date>2021-06-11T14:39:37.720905</dc:date>
    <dc:format>image/svg+xml</dc:format>
    <dc:creator>
     <cc:Agent>
      <dc:title>Matplotlib v3.4.2, https://matplotlib.org/</dc:title>
     </cc:Agent>
    </dc:creator>
   </cc:Work>
  </rdf:RDF>
 </metadata>
 <defs>
  <style type="text/css">*{stroke-linecap:butt;stroke-linejoin:round;}</style>
 </defs>
 <g id="figure_1">
  <g id="patch_1">
   <path d="M 0 383.471875 
L 421.086875 383.471875 
L 421.086875 0 
L 0 0 
z
" style="fill:#ffffff;"/>
  </g>
  <g id="axes_1">
   <g id="patch_2">
    <path d="M 63.336875 339.84 
L 398.136875 339.84 
L 398.136875 7.2 
L 63.336875 7.2 
z
" style="fill:#ffffff;"/>
   </g>
   <g id="matplotlib.axis_1">
    <g id="xtick_1">
     <g id="line2d_1">
      <path clip-path="url(#pfb28af82ad)" d="M 93.773239 339.84 
L 93.773239 7.2 
" style="fill:none;stroke:#000000;stroke-dasharray:0.5,0.825;stroke-dashoffset:0;stroke-width:0.5;"/>
     </g>
     <g id="line2d_2">
      <defs>
       <path d="M 0 0 
L 0 3.5 
" id="mc69fecc21a" style="stroke:#000000;stroke-width:0.8;"/>
      </defs>
      <g>
       <use style="stroke:#000000;stroke-width:0.8;" x="93.773239" xlink:href="#mc69fecc21a" y="339.84"/>
      </g>
     </g>
     <g id="text_1">
      <!-- 0.000 -->
      <g transform="translate(78.023239 356.56125)scale(0.14 -0.14)">
       <defs>
        <path d="M 231 2094 
Q 231 2819 450 3342 
Q 669 3866 1031 4122 
Q 1313 4325 1613 4325 
Q 2100 4325 2488 3828 
Q 2972 3213 2972 2159 
Q 2972 1422 2759 906 
Q 2547 391 2217 158 
Q 1888 -75 1581 -75 
Q 975 -75 572 641 
Q 231 1244 231 2094 
z
M 844 2016 
Q 844 1141 1059 588 
Q 1238 122 1591 122 
Q 1759 122 1940 273 
Q 2122 425 2216 781 
Q 2359 1319 2359 2297 
Q 2359 3022 2209 3506 
Q 2097 3866 1919 4016 
Q 1791 4119 1609 4119 
Q 1397 4119 1231 3928 
Q 1006 3669 925 3112 
Q 844 2556 844 2016 
z
" id="TimesNewRomanPSMT-30" transform="scale(0.015625)"/>
        <path d="M 800 606 
Q 947 606 1047 504 
Q 1147 403 1147 259 
Q 1147 116 1045 14 
Q 944 -88 800 -88 
Q 656 -88 554 14 
Q 453 116 453 259 
Q 453 406 554 506 
Q 656 606 800 606 
z
" id="TimesNewRomanPSMT-2e" transform="scale(0.015625)"/>
       </defs>
       <use xlink:href="#TimesNewRomanPSMT-30"/>
       <use x="50" xlink:href="#TimesNewRomanPSMT-2e"/>
       <use x="75" xlink:href="#TimesNewRomanPSMT-30"/>
       <use x="125" xlink:href="#TimesNewRomanPSMT-30"/>
       <use x="175" xlink:href="#TimesNewRomanPSMT-30"/>
      </g>
     </g>
    </g>
    <g id="xtick_2">
     <g id="line2d_3">
      <path clip-path="url(#pfb28af82ad)" d="M 154.645966 339.84 
L 154.645966 7.2 
" style="fill:none;stroke:#000000;stroke-dasharray:0.5,0.825;stroke-dashoffset:0;stroke-width:0.5;"/>
     </g>
     <g id="line2d_4">
      <g>
       <use style="stroke:#000000;stroke-width:0.8;" x="154.645966" xlink:href="#mc69fecc21a" y="339.84"/>
      </g>
     </g>
     <g id="text_2">
      <!-- 0.001 -->
      <g transform="translate(138.895966 356.56125)scale(0.14 -0.14)">
       <defs>
        <path d="M 750 3822 
L 1781 4325 
L 1884 4325 
L 1884 747 
Q 1884 391 1914 303 
Q 1944 216 2037 169 
Q 2131 122 2419 116 
L 2419 0 
L 825 0 
L 825 116 
Q 1125 122 1212 167 
Q 1300 213 1334 289 
Q 1369 366 1369 747 
L 1369 3034 
Q 1369 3497 1338 3628 
Q 1316 3728 1258 3775 
Q 1200 3822 1119 3822 
Q 1003 3822 797 3725 
L 750 3822 
z
" id="TimesNewRomanPSMT-31" transform="scale(0.015625)"/>
       </defs>
       <use xlink:href="#TimesNewRomanPSMT-30"/>
       <use x="50" xlink:href="#TimesNewRomanPSMT-2e"/>
       <use x="75" xlink:href="#TimesNewRomanPSMT-30"/>
       <use x="125" xlink:href="#TimesNewRomanPSMT-30"/>
       <use x="175" xlink:href="#TimesNewRomanPSMT-31"/>
      </g>
     </g>
    </g>
    <g id="xtick_3">
     <g id="line2d_5">
      <path clip-path="url(#pfb28af82ad)" d="M 215.518693 339.84 
L 215.518693 7.2 
" style="fill:none;stroke:#000000;stroke-dasharray:0.5,0.825;stroke-dashoffset:0;stroke-width:0.5;"/>
     </g>
     <g id="line2d_6">
      <g>
       <use style="stroke:#000000;stroke-width:0.8;" x="215.518693" xlink:href="#mc69fecc21a" y="339.84"/>
      </g>
     </g>
     <g id="text_3">
      <!-- 0.002 -->
      <g transform="translate(199.768693 356.56125)scale(0.14 -0.14)">
       <defs>
        <path d="M 2934 816 
L 2638 0 
L 138 0 
L 138 116 
Q 1241 1122 1691 1759 
Q 2141 2397 2141 2925 
Q 2141 3328 1894 3587 
Q 1647 3847 1303 3847 
Q 991 3847 742 3664 
Q 494 3481 375 3128 
L 259 3128 
Q 338 3706 661 4015 
Q 984 4325 1469 4325 
Q 1984 4325 2329 3994 
Q 2675 3663 2675 3213 
Q 2675 2891 2525 2569 
Q 2294 2063 1775 1497 
Q 997 647 803 472 
L 1909 472 
Q 2247 472 2383 497 
Q 2519 522 2628 598 
Q 2738 675 2819 816 
L 2934 816 
z
" id="TimesNewRomanPSMT-32" transform="scale(0.015625)"/>
       </defs>
       <use xlink:href="#TimesNewRomanPSMT-30"/>
       <use x="50" xlink:href="#TimesNewRomanPSMT-2e"/>
       <use x="75" xlink:href="#TimesNewRomanPSMT-30"/>
       <use x="125" xlink:href="#TimesNewRomanPSMT-30"/>
       <use x="175" xlink:href="#TimesNewRomanPSMT-32"/>
      </g>
     </g>
    </g>
    <g id="xtick_4">
     <g id="line2d_7">
      <path clip-path="url(#pfb28af82ad)" d="M 276.39142 339.84 
L 276.39142 7.2 
" style="fill:none;stroke:#000000;stroke-dasharray:0.5,0.825;stroke-dashoffset:0;stroke-width:0.5;"/>
     </g>
     <g id="line2d_8">
      <g>
       <use style="stroke:#000000;stroke-width:0.8;" x="276.39142" xlink:href="#mc69fecc21a" y="339.84"/>
      </g>
     </g>
     <g id="text_4">
      <!-- 0.003 -->
      <g transform="translate(260.64142 356.56125)scale(0.14 -0.14)">
       <defs>
        <path d="M 325 3431 
Q 506 3859 782 4092 
Q 1059 4325 1472 4325 
Q 1981 4325 2253 3994 
Q 2459 3747 2459 3466 
Q 2459 3003 1878 2509 
Q 2269 2356 2469 2072 
Q 2669 1788 2669 1403 
Q 2669 853 2319 450 
Q 1863 -75 997 -75 
Q 569 -75 414 31 
Q 259 138 259 259 
Q 259 350 332 419 
Q 406 488 509 488 
Q 588 488 669 463 
Q 722 447 909 348 
Q 1097 250 1169 231 
Q 1284 197 1416 197 
Q 1734 197 1970 444 
Q 2206 691 2206 1028 
Q 2206 1275 2097 1509 
Q 2016 1684 1919 1775 
Q 1784 1900 1550 2001 
Q 1316 2103 1072 2103 
L 972 2103 
L 972 2197 
Q 1219 2228 1467 2375 
Q 1716 2522 1828 2728 
Q 1941 2934 1941 3181 
Q 1941 3503 1739 3701 
Q 1538 3900 1238 3900 
Q 753 3900 428 3381 
L 325 3431 
z
" id="TimesNewRomanPSMT-33" transform="scale(0.015625)"/>
       </defs>
       <use xlink:href="#TimesNewRomanPSMT-30"/>
       <use x="50" xlink:href="#TimesNewRomanPSMT-2e"/>
       <use x="75" xlink:href="#TimesNewRomanPSMT-30"/>
       <use x="125" xlink:href="#TimesNewRomanPSMT-30"/>
       <use x="175" xlink:href="#TimesNewRomanPSMT-33"/>
      </g>
     </g>
    </g>
    <g id="xtick_5">
     <g id="line2d_9">
      <path clip-path="url(#pfb28af82ad)" d="M 337.264148 339.84 
L 337.264148 7.2 
" style="fill:none;stroke:#000000;stroke-dasharray:0.5,0.825;stroke-dashoffset:0;stroke-width:0.5;"/>
     </g>
     <g id="line2d_10">
      <g>
       <use style="stroke:#000000;stroke-width:0.8;" x="337.264148" xlink:href="#mc69fecc21a" y="339.84"/>
      </g>
     </g>
     <g id="text_5">
      <!-- 0.004 -->
      <g transform="translate(321.514148 356.56125)scale(0.14 -0.14)">
       <defs>
        <path d="M 2978 1563 
L 2978 1119 
L 2409 1119 
L 2409 0 
L 1894 0 
L 1894 1119 
L 100 1119 
L 100 1519 
L 2066 4325 
L 2409 4325 
L 2409 1563 
L 2978 1563 
z
M 1894 1563 
L 1894 3666 
L 406 1563 
L 1894 1563 
z
" id="TimesNewRomanPSMT-34" transform="scale(0.015625)"/>
       </defs>
       <use xlink:href="#TimesNewRomanPSMT-30"/>
       <use x="50" xlink:href="#TimesNewRomanPSMT-2e"/>
       <use x="75" xlink:href="#TimesNewRomanPSMT-30"/>
       <use x="125" xlink:href="#TimesNewRomanPSMT-30"/>
       <use x="175" xlink:href="#TimesNewRomanPSMT-34"/>
      </g>
     </g>
    </g>
    <g id="xtick_6">
     <g id="line2d_11">
      <path clip-path="url(#pfb28af82ad)" d="M 398.136875 339.84 
L 398.136875 7.2 
" style="fill:none;stroke:#000000;stroke-dasharray:0.5,0.825;stroke-dashoffset:0;stroke-width:0.5;"/>
     </g>
     <g id="line2d_12">
      <g>
       <use style="stroke:#000000;stroke-width:0.8;" x="398.136875" xlink:href="#mc69fecc21a" y="339.84"/>
      </g>
     </g>
     <g id="text_6">
      <!-- 0.005 -->
      <g transform="translate(382.386875 356.56125)scale(0.14 -0.14)">
       <defs>
        <path d="M 2778 4238 
L 2534 3706 
L 1259 3706 
L 981 3138 
Q 1809 3016 2294 2522 
Q 2709 2097 2709 1522 
Q 2709 1188 2573 903 
Q 2438 619 2231 419 
Q 2025 219 1772 97 
Q 1413 -75 1034 -75 
Q 653 -75 479 54 
Q 306 184 306 341 
Q 306 428 378 495 
Q 450 563 559 563 
Q 641 563 702 538 
Q 763 513 909 409 
Q 1144 247 1384 247 
Q 1750 247 2026 523 
Q 2303 800 2303 1197 
Q 2303 1581 2056 1914 
Q 1809 2247 1375 2428 
Q 1034 2569 447 2591 
L 1259 4238 
L 2778 4238 
z
" id="TimesNewRomanPSMT-35" transform="scale(0.015625)"/>
       </defs>
       <use xlink:href="#TimesNewRomanPSMT-30"/>
       <use x="50" xlink:href="#TimesNewRomanPSMT-2e"/>
       <use x="75" xlink:href="#TimesNewRomanPSMT-30"/>
       <use x="125" xlink:href="#TimesNewRomanPSMT-30"/>
       <use x="175" xlink:href="#TimesNewRomanPSMT-35"/>
      </g>
     </g>
    </g>
    <g id="text_7">
     <!-- Time (sec) -->
     <g transform="translate(200.858906 373.277188)scale(0.14 -0.14)">
      <defs>
       <path d="M 3703 4238 
L 3750 3244 
L 3631 3244 
Q 3597 3506 3538 3619 
Q 3441 3800 3280 3886 
Q 3119 3972 2856 3972 
L 2259 3972 
L 2259 734 
Q 2259 344 2344 247 
Q 2463 116 2709 116 
L 2856 116 
L 2856 0 
L 1059 0 
L 1059 116 
L 1209 116 
Q 1478 116 1591 278 
Q 1659 378 1659 734 
L 1659 3972 
L 1150 3972 
Q 853 3972 728 3928 
Q 566 3869 450 3700 
Q 334 3531 313 3244 
L 194 3244 
L 244 4238 
L 3703 4238 
z
" id="TimesNewRomanPSMT-54" transform="scale(0.015625)"/>
       <path d="M 928 4444 
Q 1059 4444 1151 4351 
Q 1244 4259 1244 4128 
Q 1244 3997 1151 3903 
Q 1059 3809 928 3809 
Q 797 3809 703 3903 
Q 609 3997 609 4128 
Q 609 4259 701 4351 
Q 794 4444 928 4444 
z
M 1188 2947 
L 1188 647 
Q 1188 378 1227 289 
Q 1266 200 1342 156 
Q 1419 113 1622 113 
L 1622 0 
L 231 0 
L 231 113 
Q 441 113 512 153 
Q 584 194 626 287 
Q 669 381 669 647 
L 669 1750 
Q 669 2216 641 2353 
Q 619 2453 572 2492 
Q 525 2531 444 2531 
Q 356 2531 231 2484 
L 188 2597 
L 1050 2947 
L 1188 2947 
z
" id="TimesNewRomanPSMT-69" transform="scale(0.015625)"/>
       <path d="M 1050 2338 
Q 1363 2650 1419 2697 
Q 1559 2816 1721 2881 
Q 1884 2947 2044 2947 
Q 2313 2947 2506 2790 
Q 2700 2634 2766 2338 
Q 3088 2713 3309 2830 
Q 3531 2947 3766 2947 
Q 3994 2947 4170 2830 
Q 4347 2713 4450 2447 
Q 4519 2266 4519 1878 
L 4519 647 
Q 4519 378 4559 278 
Q 4591 209 4675 161 
Q 4759 113 4950 113 
L 4950 0 
L 3538 0 
L 3538 113 
L 3597 113 
Q 3781 113 3884 184 
Q 3956 234 3988 344 
Q 4000 397 4000 647 
L 4000 1878 
Q 4000 2228 3916 2372 
Q 3794 2572 3525 2572 
Q 3359 2572 3192 2489 
Q 3025 2406 2788 2181 
L 2781 2147 
L 2788 2013 
L 2788 647 
Q 2788 353 2820 281 
Q 2853 209 2943 161 
Q 3034 113 3253 113 
L 3253 0 
L 1806 0 
L 1806 113 
Q 2044 113 2133 169 
Q 2222 225 2256 338 
Q 2272 391 2272 647 
L 2272 1878 
Q 2272 2228 2169 2381 
Q 2031 2581 1784 2581 
Q 1616 2581 1450 2491 
Q 1191 2353 1050 2181 
L 1050 647 
Q 1050 366 1089 281 
Q 1128 197 1204 155 
Q 1281 113 1516 113 
L 1516 0 
L 100 0 
L 100 113 
Q 297 113 375 155 
Q 453 197 493 289 
Q 534 381 534 647 
L 534 1741 
Q 534 2213 506 2350 
Q 484 2453 437 2492 
Q 391 2531 309 2531 
Q 222 2531 100 2484 
L 53 2597 
L 916 2947 
L 1050 2947 
L 1050 2338 
z
" id="TimesNewRomanPSMT-6d" transform="scale(0.015625)"/>
       <path d="M 681 1784 
Q 678 1147 991 784 
Q 1303 422 1725 422 
Q 2006 422 2214 576 
Q 2422 731 2563 1106 
L 2659 1044 
Q 2594 616 2278 264 
Q 1963 -88 1488 -88 
Q 972 -88 605 314 
Q 238 716 238 1394 
Q 238 2128 614 2539 
Q 991 2950 1559 2950 
Q 2041 2950 2350 2633 
Q 2659 2316 2659 1784 
L 681 1784 
z
M 681 1966 
L 2006 1966 
Q 1991 2241 1941 2353 
Q 1863 2528 1708 2628 
Q 1553 2728 1384 2728 
Q 1125 2728 920 2526 
Q 716 2325 681 1966 
z
" id="TimesNewRomanPSMT-65" transform="scale(0.015625)"/>
       <path id="TimesNewRomanPSMT-20" transform="scale(0.015625)"/>
       <path d="M 1988 -1253 
L 1988 -1369 
Q 1516 -1131 1200 -813 
Q 750 -359 506 256 
Q 263 872 263 1534 
Q 263 2503 741 3301 
Q 1219 4100 1988 4444 
L 1988 4313 
Q 1603 4100 1356 3731 
Q 1109 3363 987 2797 
Q 866 2231 866 1616 
Q 866 947 969 400 
Q 1050 -31 1165 -292 
Q 1281 -553 1476 -793 
Q 1672 -1034 1988 -1253 
z
" id="TimesNewRomanPSMT-28" transform="scale(0.015625)"/>
       <path d="M 2050 2947 
L 2050 1972 
L 1947 1972 
Q 1828 2431 1642 2597 
Q 1456 2763 1169 2763 
Q 950 2763 815 2647 
Q 681 2531 681 2391 
Q 681 2216 781 2091 
Q 878 1963 1175 1819 
L 1631 1597 
Q 2266 1288 2266 781 
Q 2266 391 1970 151 
Q 1675 -88 1309 -88 
Q 1047 -88 709 6 
Q 606 38 541 38 
Q 469 38 428 -44 
L 325 -44 
L 325 978 
L 428 978 
Q 516 541 762 319 
Q 1009 97 1316 97 
Q 1531 97 1667 223 
Q 1803 350 1803 528 
Q 1803 744 1651 891 
Q 1500 1038 1047 1263 
Q 594 1488 453 1669 
Q 313 1847 313 2119 
Q 313 2472 555 2709 
Q 797 2947 1181 2947 
Q 1350 2947 1591 2875 
Q 1750 2828 1803 2828 
Q 1853 2828 1881 2850 
Q 1909 2872 1947 2947 
L 2050 2947 
z
" id="TimesNewRomanPSMT-73" transform="scale(0.015625)"/>
       <path d="M 2631 1088 
Q 2516 522 2178 217 
Q 1841 -88 1431 -88 
Q 944 -88 581 321 
Q 219 731 219 1428 
Q 219 2103 620 2525 
Q 1022 2947 1584 2947 
Q 2006 2947 2278 2723 
Q 2550 2500 2550 2259 
Q 2550 2141 2473 2067 
Q 2397 1994 2259 1994 
Q 2075 1994 1981 2113 
Q 1928 2178 1911 2362 
Q 1894 2547 1784 2644 
Q 1675 2738 1481 2738 
Q 1169 2738 978 2506 
Q 725 2200 725 1697 
Q 725 1184 976 792 
Q 1228 400 1656 400 
Q 1963 400 2206 609 
Q 2378 753 2541 1131 
L 2631 1088 
z
" id="TimesNewRomanPSMT-63" transform="scale(0.015625)"/>
       <path d="M 144 4313 
L 144 4444 
Q 619 4209 934 3891 
Q 1381 3434 1625 2820 
Q 1869 2206 1869 1541 
Q 1869 572 1392 -226 
Q 916 -1025 144 -1369 
L 144 -1253 
Q 528 -1038 776 -670 
Q 1025 -303 1145 264 
Q 1266 831 1266 1447 
Q 1266 2113 1163 2663 
Q 1084 3094 967 3353 
Q 850 3613 656 3853 
Q 463 4094 144 4313 
z
" id="TimesNewRomanPSMT-29" transform="scale(0.015625)"/>
      </defs>
      <use xlink:href="#TimesNewRomanPSMT-54"/>
      <use x="57.583984" xlink:href="#TimesNewRomanPSMT-69"/>
      <use x="85.367188" xlink:href="#TimesNewRomanPSMT-6d"/>
      <use x="163.150391" xlink:href="#TimesNewRomanPSMT-65"/>
      <use x="207.535156" xlink:href="#TimesNewRomanPSMT-20"/>
      <use x="232.535156" xlink:href="#TimesNewRomanPSMT-28"/>
      <use x="265.835938" xlink:href="#TimesNewRomanPSMT-73"/>
      <use x="304.751953" xlink:href="#TimesNewRomanPSMT-65"/>
      <use x="349.136719" xlink:href="#TimesNewRomanPSMT-63"/>
      <use x="393.521484" xlink:href="#TimesNewRomanPSMT-29"/>
     </g>
    </g>
   </g>
   <g id="matplotlib.axis_2">
    <g id="ytick_1">
     <g id="line2d_13">
      <path clip-path="url(#pfb28af82ad)" d="M 63.336875 337.051472 
L 398.136875 337.051472 
" style="fill:none;stroke:#000000;stroke-dasharray:0.5,0.825;stroke-dashoffset:0;stroke-width:0.5;"/>
     </g>
     <g id="line2d_14">
      <defs>
       <path d="M 0 0 
L -3.5 0 
" id="m00b7114221" style="stroke:#000000;stroke-width:0.8;"/>
      </defs>
      <g>
       <use style="stroke:#000000;stroke-width:0.8;" x="63.336875" xlink:href="#m00b7114221" y="337.051472"/>
      </g>
     </g>
     <g id="text_8">
      <!-- −0.06 -->
      <g transform="translate(23.942188 341.912097)scale(0.14 -0.14)">
       <defs>
        <path d="M 3484 2000 
L 116 2000 
L 116 2256 
L 3484 2256 
L 3484 2000 
z
" id="TimesNewRomanPSMT-2212" transform="scale(0.015625)"/>
        <path d="M 2869 4325 
L 2869 4209 
Q 2456 4169 2195 4045 
Q 1934 3922 1679 3669 
Q 1425 3416 1258 3105 
Q 1091 2794 978 2366 
Q 1428 2675 1881 2675 
Q 2316 2675 2634 2325 
Q 2953 1975 2953 1425 
Q 2953 894 2631 456 
Q 2244 -75 1606 -75 
Q 1172 -75 869 213 
Q 275 772 275 1663 
Q 275 2231 503 2743 
Q 731 3256 1154 3653 
Q 1578 4050 1965 4187 
Q 2353 4325 2688 4325 
L 2869 4325 
z
M 925 2138 
Q 869 1716 869 1456 
Q 869 1156 980 804 
Q 1091 453 1309 247 
Q 1469 100 1697 100 
Q 1969 100 2183 356 
Q 2397 613 2397 1088 
Q 2397 1622 2184 2012 
Q 1972 2403 1581 2403 
Q 1463 2403 1327 2353 
Q 1191 2303 925 2138 
z
" id="TimesNewRomanPSMT-36" transform="scale(0.015625)"/>
       </defs>
       <use xlink:href="#TimesNewRomanPSMT-2212"/>
       <use x="56.396484" xlink:href="#TimesNewRomanPSMT-30"/>
       <use x="106.396484" xlink:href="#TimesNewRomanPSMT-2e"/>
       <use x="131.396484" xlink:href="#TimesNewRomanPSMT-30"/>
       <use x="181.396484" xlink:href="#TimesNewRomanPSMT-36"/>
      </g>
     </g>
    </g>
    <g id="ytick_2">
     <g id="line2d_15">
      <path clip-path="url(#pfb28af82ad)" d="M 63.336875 275.08426 
L 398.136875 275.08426 
" style="fill:none;stroke:#000000;stroke-dasharray:0.5,0.825;stroke-dashoffset:0;stroke-width:0.5;"/>
     </g>
     <g id="line2d_16">
      <g>
       <use style="stroke:#000000;stroke-width:0.8;" x="63.336875" xlink:href="#m00b7114221" y="275.08426"/>
      </g>
     </g>
     <g id="text_9">
      <!-- −0.04 -->
      <g transform="translate(23.942188 279.944885)scale(0.14 -0.14)">
       <use xlink:href="#TimesNewRomanPSMT-2212"/>
       <use x="56.396484" xlink:href="#TimesNewRomanPSMT-30"/>
       <use x="106.396484" xlink:href="#TimesNewRomanPSMT-2e"/>
       <use x="131.396484" xlink:href="#TimesNewRomanPSMT-30"/>
       <use x="181.396484" xlink:href="#TimesNewRomanPSMT-34"/>
      </g>
     </g>
    </g>
    <g id="ytick_3">
     <g id="line2d_17">
      <path clip-path="url(#pfb28af82ad)" d="M 63.336875 213.117048 
L 398.136875 213.117048 
" style="fill:none;stroke:#000000;stroke-dasharray:0.5,0.825;stroke-dashoffset:0;stroke-width:0.5;"/>
     </g>
     <g id="line2d_18">
      <g>
       <use style="stroke:#000000;stroke-width:0.8;" x="63.336875" xlink:href="#m00b7114221" y="213.117048"/>
      </g>
     </g>
     <g id="text_10">
      <!-- −0.02 -->
      <g transform="translate(23.942188 217.977673)scale(0.14 -0.14)">
       <use xlink:href="#TimesNewRomanPSMT-2212"/>
       <use x="56.396484" xlink:href="#TimesNewRomanPSMT-30"/>
       <use x="106.396484" xlink:href="#TimesNewRomanPSMT-2e"/>
       <use x="131.396484" xlink:href="#TimesNewRomanPSMT-30"/>
       <use x="181.396484" xlink:href="#TimesNewRomanPSMT-32"/>
      </g>
     </g>
    </g>
    <g id="ytick_4">
     <g id="line2d_19">
      <path clip-path="url(#pfb28af82ad)" d="M 63.336875 151.149837 
L 398.136875 151.149837 
" style="fill:none;stroke:#000000;stroke-dasharray:0.5,0.825;stroke-dashoffset:0;stroke-width:0.5;"/>
     </g>
     <g id="line2d_20">
      <g>
       <use style="stroke:#000000;stroke-width:0.8;" x="63.336875" xlink:href="#m00b7114221" y="151.149837"/>
      </g>
     </g>
     <g id="text_11">
      <!-- 0.00 -->
      <g transform="translate(31.836875 156.010462)scale(0.14 -0.14)">
       <use xlink:href="#TimesNewRomanPSMT-30"/>
       <use x="50" xlink:href="#TimesNewRomanPSMT-2e"/>
       <use x="75" xlink:href="#TimesNewRomanPSMT-30"/>
       <use x="125" xlink:href="#TimesNewRomanPSMT-30"/>
      </g>
     </g>
    </g>
    <g id="ytick_5">
     <g id="line2d_21">
      <path clip-path="url(#pfb28af82ad)" d="M 63.336875 89.182625 
L 398.136875 89.182625 
" style="fill:none;stroke:#000000;stroke-dasharray:0.5,0.825;stroke-dashoffset:0;stroke-width:0.5;"/>
     </g>
     <g id="line2d_22">
      <g>
       <use style="stroke:#000000;stroke-width:0.8;" x="63.336875" xlink:href="#m00b7114221" y="89.182625"/>
      </g>
     </g>
     <g id="text_12">
      <!-- 0.02 -->
      <g transform="translate(31.836875 94.04325)scale(0.14 -0.14)">
       <use xlink:href="#TimesNewRomanPSMT-30"/>
       <use x="50" xlink:href="#TimesNewRomanPSMT-2e"/>
       <use x="75" xlink:href="#TimesNewRomanPSMT-30"/>
       <use x="125" xlink:href="#TimesNewRomanPSMT-32"/>
      </g>
     </g>
    </g>
    <g id="ytick_6">
     <g id="line2d_23">
      <path clip-path="url(#pfb28af82ad)" d="M 63.336875 27.215413 
L 398.136875 27.215413 
" style="fill:none;stroke:#000000;stroke-dasharray:0.5,0.825;stroke-dashoffset:0;stroke-width:0.5;"/>
     </g>
     <g id="line2d_24">
      <g>
       <use style="stroke:#000000;stroke-width:0.8;" x="63.336875" xlink:href="#m00b7114221" y="27.215413"/>
      </g>
     </g>
     <g id="text_13">
      <!-- 0.04 -->
      <g transform="translate(31.836875 32.076038)scale(0.14 -0.14)">
       <use xlink:href="#TimesNewRomanPSMT-30"/>
       <use x="50" xlink:href="#TimesNewRomanPSMT-2e"/>
       <use x="75" xlink:href="#TimesNewRomanPSMT-30"/>
       <use x="125" xlink:href="#TimesNewRomanPSMT-34"/>
      </g>
     </g>
    </g>
    <g id="text_14">
     <!-- Volatage (V) -->
     <g transform="translate(16.92125 209.352344)rotate(-90)scale(0.14 -0.14)">
      <defs>
       <path d="M 4544 4238 
L 4544 4122 
Q 4319 4081 4203 3978 
Q 4038 3825 3909 3509 
L 2431 -97 
L 2316 -97 
L 728 3556 
Q 606 3838 556 3900 
Q 478 3997 364 4051 
Q 250 4106 56 4122 
L 56 4238 
L 1788 4238 
L 1788 4122 
Q 1494 4094 1406 4022 
Q 1319 3950 1319 3838 
Q 1319 3681 1463 3350 
L 2541 866 
L 3541 3319 
Q 3688 3681 3688 3822 
Q 3688 3913 3597 3995 
Q 3506 4078 3291 4113 
Q 3275 4116 3238 4122 
L 3238 4238 
L 4544 4238 
z
" id="TimesNewRomanPSMT-56" transform="scale(0.015625)"/>
       <path d="M 1600 2947 
Q 2250 2947 2644 2453 
Q 2978 2031 2978 1484 
Q 2978 1100 2793 706 
Q 2609 313 2286 112 
Q 1963 -88 1566 -88 
Q 919 -88 538 428 
Q 216 863 216 1403 
Q 216 1797 411 2186 
Q 606 2575 925 2761 
Q 1244 2947 1600 2947 
z
M 1503 2744 
Q 1338 2744 1170 2645 
Q 1003 2547 900 2300 
Q 797 2053 797 1666 
Q 797 1041 1045 587 
Q 1294 134 1700 134 
Q 2003 134 2200 384 
Q 2397 634 2397 1244 
Q 2397 2006 2069 2444 
Q 1847 2744 1503 2744 
z
" id="TimesNewRomanPSMT-6f" transform="scale(0.015625)"/>
       <path d="M 1184 4444 
L 1184 647 
Q 1184 378 1223 290 
Q 1263 203 1344 158 
Q 1425 113 1647 113 
L 1647 0 
L 244 0 
L 244 113 
Q 441 113 512 153 
Q 584 194 625 287 
Q 666 381 666 647 
L 666 3247 
Q 666 3731 644 3842 
Q 622 3953 573 3993 
Q 525 4034 450 4034 
Q 369 4034 244 3984 
L 191 4094 
L 1044 4444 
L 1184 4444 
z
" id="TimesNewRomanPSMT-6c" transform="scale(0.015625)"/>
       <path d="M 1822 413 
Q 1381 72 1269 19 
Q 1100 -59 909 -59 
Q 613 -59 420 144 
Q 228 347 228 678 
Q 228 888 322 1041 
Q 450 1253 767 1440 
Q 1084 1628 1822 1897 
L 1822 2009 
Q 1822 2438 1686 2597 
Q 1550 2756 1291 2756 
Q 1094 2756 978 2650 
Q 859 2544 859 2406 
L 866 2225 
Q 866 2081 792 2003 
Q 719 1925 600 1925 
Q 484 1925 411 2006 
Q 338 2088 338 2228 
Q 338 2497 613 2722 
Q 888 2947 1384 2947 
Q 1766 2947 2009 2819 
Q 2194 2722 2281 2516 
Q 2338 2381 2338 1966 
L 2338 994 
Q 2338 584 2353 492 
Q 2369 400 2405 369 
Q 2441 338 2488 338 
Q 2538 338 2575 359 
Q 2641 400 2828 588 
L 2828 413 
Q 2478 -56 2159 -56 
Q 2006 -56 1915 50 
Q 1825 156 1822 413 
z
M 1822 616 
L 1822 1706 
Q 1350 1519 1213 1441 
Q 966 1303 859 1153 
Q 753 1003 753 825 
Q 753 600 887 451 
Q 1022 303 1197 303 
Q 1434 303 1822 616 
z
" id="TimesNewRomanPSMT-61" transform="scale(0.015625)"/>
       <path d="M 1031 3803 
L 1031 2863 
L 1700 2863 
L 1700 2644 
L 1031 2644 
L 1031 788 
Q 1031 509 1111 412 
Q 1191 316 1316 316 
Q 1419 316 1516 380 
Q 1613 444 1666 569 
L 1788 569 
Q 1678 263 1478 108 
Q 1278 -47 1066 -47 
Q 922 -47 784 33 
Q 647 113 581 261 
Q 516 409 516 719 
L 516 2644 
L 63 2644 
L 63 2747 
Q 234 2816 414 2980 
Q 594 3144 734 3369 
Q 806 3488 934 3803 
L 1031 3803 
z
" id="TimesNewRomanPSMT-74" transform="scale(0.015625)"/>
       <path d="M 966 1044 
Q 703 1172 562 1401 
Q 422 1631 422 1909 
Q 422 2334 742 2640 
Q 1063 2947 1563 2947 
Q 1972 2947 2272 2747 
L 2878 2747 
Q 3013 2747 3034 2739 
Q 3056 2731 3066 2713 
Q 3084 2684 3084 2613 
Q 3084 2531 3069 2500 
Q 3059 2484 3036 2475 
Q 3013 2466 2878 2466 
L 2506 2466 
Q 2681 2241 2681 1891 
Q 2681 1491 2375 1206 
Q 2069 922 1553 922 
Q 1341 922 1119 984 
Q 981 866 932 777 
Q 884 688 884 625 
Q 884 572 936 522 
Q 988 472 1138 450 
Q 1225 438 1575 428 
Q 2219 413 2409 384 
Q 2700 344 2873 169 
Q 3047 -6 3047 -263 
Q 3047 -616 2716 -925 
Q 2228 -1381 1444 -1381 
Q 841 -1381 425 -1109 
Q 191 -953 191 -784 
Q 191 -709 225 -634 
Q 278 -519 444 -313 
Q 466 -284 763 25 
Q 600 122 533 198 
Q 466 275 466 372 
Q 466 481 555 628 
Q 644 775 966 1044 
z
M 1509 2797 
Q 1278 2797 1122 2612 
Q 966 2428 966 2047 
Q 966 1553 1178 1281 
Q 1341 1075 1591 1075 
Q 1828 1075 1981 1253 
Q 2134 1431 2134 1813 
Q 2134 2309 1919 2591 
Q 1759 2797 1509 2797 
z
M 934 0 
Q 788 -159 713 -296 
Q 638 -434 638 -550 
Q 638 -700 819 -813 
Q 1131 -1006 1722 -1006 
Q 2284 -1006 2551 -807 
Q 2819 -609 2819 -384 
Q 2819 -222 2659 -153 
Q 2497 -84 2016 -72 
Q 1313 -53 934 0 
z
" id="TimesNewRomanPSMT-67" transform="scale(0.015625)"/>
      </defs>
      <use xlink:href="#TimesNewRomanPSMT-56"/>
      <use x="59.341797" xlink:href="#TimesNewRomanPSMT-6f"/>
      <use x="109.341797" xlink:href="#TimesNewRomanPSMT-6c"/>
      <use x="137.125" xlink:href="#TimesNewRomanPSMT-61"/>
      <use x="181.509766" xlink:href="#TimesNewRomanPSMT-74"/>
      <use x="209.292969" xlink:href="#TimesNewRomanPSMT-61"/>
      <use x="253.677734" xlink:href="#TimesNewRomanPSMT-67"/>
      <use x="303.677734" xlink:href="#TimesNewRomanPSMT-65"/>
      <use x="348.0625" xlink:href="#TimesNewRomanPSMT-20"/>
      <use x="373.0625" xlink:href="#TimesNewRomanPSMT-28"/>
      <use x="406.363281" xlink:href="#TimesNewRomanPSMT-56"/>
      <use x="478.580078" xlink:href="#TimesNewRomanPSMT-29"/>
     </g>
    </g>
   </g>
   <g id="LineCollection_1">
    <path clip-path="url(#pfb28af82ad)" d="M 78.555057 151.149837 
L 382.918693 151.149837 
" style="fill:none;stroke:#1f77b4;stroke-width:1.5;"/>
   </g>
   <g id="line2d_25">
    <path clip-path="url(#pfb28af82ad)" d="M 78.555057 151.056886 
L 78.646366 151.018156 
L 78.676802 151.056886 
L 80.381239 151.134345 
L 80.502984 151.134345 
L 80.655166 151.095615 
L 82.572657 151.173074 
L 82.663966 151.211804 
L 82.694402 151.173074 
L 89.207784 151.250533 
L 89.268657 151.289263 
L 89.299093 151.250533 
L 89.451275 151.211804 
L 89.481711 151.289263 
L 89.57302 151.250533 
L 91.00353 151.289263 
L 91.094839 151.366722 
L 91.125275 151.327992 
L 91.764439 151.405451 
L 91.91662 151.444181 
L 94.229784 151.52164 
L 94.35153 151.560369 
L 94.381966 151.48291 
L 94.473275 151.52164 
L 94.503711 151.48291 
L 94.564584 151.560369 
L 95.93422 151.637828 
L 96.02553 151.637828 
L 96.147275 151.637828 
L 99.403966 151.676558 
L 99.434402 151.754017 
L 99.495275 151.676558 
L 100.164875 151.754017 
L 100.195311 151.792746 
L 100.256184 151.715287 
L 102.05193 151.792746 
L 102.082366 151.831476 
L 102.143239 151.754017 
L 112.43073 151.792746 
L 112.491602 151.870205 
L 112.552475 151.831476 
L 113.313384 151.831476 
L 113.34382 151.947664 
L 113.43513 151.908935 
L 113.556875 151.908935 
L 113.67862 151.947664 
L 113.76993 151.908935 
L 113.800366 151.947664 
L 114.196039 152.025123 
L 114.378657 152.102582 
L 114.409093 152.025123 
L 114.500402 152.063853 
L 114.865639 152.141312 
L 115.01782 152.180041 
L 115.474366 152.2575 
L 115.626548 152.334959 
L 115.717857 152.29623 
L 115.748293 152.334959 
L 116.083093 152.373689 
L 116.11353 152.451148 
L 116.174402 152.373689 
L 116.722257 152.451148 
L 116.844002 152.451148 
L 117.178802 152.528607 
L 117.300548 152.567336 
L 117.422293 152.567336 
L 117.544039 152.644796 
L 117.574475 152.606066 
L 117.69622 152.567336 
L 117.78753 152.644796 
L 117.817966 152.606066 
L 117.939711 152.606066 
L 118.396257 152.683525 
L 118.518002 152.760984 
L 118.548439 152.683525 
L 118.639748 152.722255 
L 118.79193 152.838443 
L 118.822366 152.799714 
L 119.218039 152.838443 
L 119.309348 152.915902 
L 119.339784 152.877173 
L 119.522402 152.954632 
L 119.674584 153.07082 
L 120.070257 153.148279 
L 120.252875 153.225738 
L 120.496366 153.264468 
L 120.648548 153.380656 
L 120.952911 153.613033 
L 121.04422 153.651763 
L 121.196402 153.806681 
L 121.348584 153.88414 
L 121.500766 154.039058 
L 121.592075 154.116517 
L 121.80513 154.387623 
L 122.626911 155.588238 
L 123.083457 156.479017 
L 123.113893 156.479017 
L 123.418257 157.214877 
L 124.909639 161.242746 
L 125.122693 161.978607 
L 125.427057 162.985574 
L 125.853166 164.612213 
L 126.06622 165.425532 
L 126.979311 169.337214 
L 128.288075 175.456476 
L 128.775057 177.741515 
L 129.201166 179.794179 
L 130.08382 183.589672 
L 130.631675 185.835983 
L 131.818693 189.941311 
L 132.457857 191.296844 
L 133.18833 192.071434 
L 133.584002 191.993975 
L 133.736184 191.877787 
L 134.223166 191.413032 
L 134.253602 191.451762 
L 134.284039 191.413032 
L 134.466657 191.219385 
L 134.923202 190.522254 
L 135.136257 190.0575 
L 135.166693 190.0575 
L 135.44062 189.437828 
L 135.53193 189.166721 
L 135.988475 187.772459 
L 137.54073 179.368156 
L 139.610402 162.753197 
L 141.010475 147.377583 
L 142.288802 131.03373 
L 143.993239 107.950944 
L 147.615166 58.72574 
L 148.315202 50.476361 
L 149.289166 40.561601 
L 150.080511 33.629022 
L 150.354439 31.731273 
L 150.750111 29.136393 
L 151.297966 26.347869 
L 151.358839 26.154221 
L 152.119748 23.675539 
L 152.241493 23.404432 
L 152.484984 22.862222 
L 152.545857 22.78476 
L 152.971966 22.358736 
L 153.093711 22.397459 
L 153.27633 22.32 
L 153.367639 22.32 
L 153.51982 22.55238 
L 153.61113 22.629842 
L 153.885057 23.09459 
L 155.19382 28.516721 
L 155.711239 32.157298 
L 156.563457 39.438442 
L 158.328766 60.855866 
L 159.63753 82.505658 
L 161.159348 111.591518 
L 164.933457 195.634549 
L 166.33353 226.850535 
L 168.159711 264.030856 
L 169.711966 289.747255 
L 171.02073 306.517135 
L 172.177311 317.16774 
L 172.633857 320.033723 
L 173.120839 322.512421 
L 173.212148 322.783525 
L 173.546948 323.674303 
L 173.577384 323.635568 
L 173.60782 323.713027 
L 173.881748 324.177787 
L 174.064366 324.448893 
L 174.36873 324.72 
L 174.581784 324.603802 
L 174.673093 324.526356 
L 175.129639 323.790486 
L 176.04273 321.234341 
L 176.71233 317.671223 
L 177.351493 313.875738 
L 178.416766 304.929216 
L 179.664657 291.102784 
L 180.547311 279.755036 
L 182.616984 249.274916 
L 187.365057 166.664877 
L 188.09553 154.929836 
L 188.856439 143.272255 
L 192.630548 91.955654 
L 193.330584 84.751966 
L 194.182802 77.160986 
L 194.608911 73.752789 
L 197.591675 51.754426 
L 198.169966 49.159546 
L 198.443893 48.075126 
L 200.178766 41.878404 
L 201.030984 39.980655 
L 201.183166 39.632087 
L 201.639711 38.741311 
L 201.913639 38.547667 
L 202.096257 38.625126 
L 202.187566 38.58639 
L 202.218002 38.625126 
L 202.583239 38.547667 
L 202.82673 38.392746 
L 202.857166 38.470208 
L 202.948475 38.431481 
L 203.07022 38.392746 
L 203.344148 38.625126 
L 203.374584 38.58639 
L 203.435457 38.663852 
L 203.49633 38.741311 
L 203.770257 38.934956 
L 204.07462 39.012418 
L 204.378984 39.244798 
L 204.439857 39.322257 
L 204.713784 39.825744 
L 205.352948 41.18127 
L 205.41382 41.258732 
L 205.687748 41.91714 
L 205.809493 42.188243 
L 206.357348 43.853612 
L 207.361748 46.642137 
L 207.726984 47.95894 
L 210.040148 57.215289 
L 210.740184 60.236188 
L 211.014111 61.165702 
L 211.805457 64.690081 
L 211.957639 65.309759 
L 214.301239 77.780658 
L 215.153457 83.473895 
L 215.366511 85.100532 
L 216.310039 92.536603 
L 218.075348 106.789059 
L 218.56233 111.204223 
L 219.323239 117.865698 
L 223.066911 157.098689 
L 224.527857 174.29459 
L 226.019239 192.613647 
L 230.645566 250.126963 
L 232.015202 262.985159 
L 234.115311 278.167129 
L 234.815348 281.265496 
L 234.906657 281.536599 
L 236.002366 284.054008 
L 236.124111 284.054008 
L 236.337166 283.976561 
L 236.64153 283.744178 
L 236.732839 283.666719 
L 237.189384 282.969588 
L 238.31553 278.244588 
L 240.23302 265.347659 
L 242.394002 242.264873 
L 245.92462 195.944385 
L 247.568184 170.576557 
L 250.124839 133.202582 
L 250.855311 123.597665 
L 251.829275 112.598485 
L 253.107602 100.708529 
L 253.868511 94.821641 
L 254.325057 91.994387 
L 254.659857 89.980453 
L 254.872911 88.81857 
L 255.207711 87.03701 
L 255.786002 84.44213 
L 256.120802 83.009144 
L 256.455602 81.808526 
L 256.577348 81.49869 
L 256.851275 80.879018 
L 257.277384 80.065699 
L 258.007857 79.291105 
L 258.038293 79.329835 
L 258.099166 79.252382 
L 258.31222 79.13619 
L 258.464402 79.058731 
L 258.890511 78.671433 
L 259.012257 78.632704 
L 259.164439 78.516518 
L 259.31662 78.439059 
L 259.40793 78.477789 
L 259.438366 78.439059 
L 259.74273 78.3616 
L 259.925348 78.245415 
L 260.047093 78.245415 
L 260.168839 78.129223 
L 260.199275 78.167953 
L 260.32102 78.167953 
L 260.442766 78.090494 
L 260.534075 78.206685 
L 260.564511 78.167953 
L 260.594948 78.129223 
L 260.65582 78.206685 
L 260.808002 78.322868 
L 261.051493 78.3616 
L 261.142802 78.439059 
L 261.173239 78.40033 
L 261.538475 78.710166 
L 261.629784 78.787625 
L 262.542875 80.104428 
L 262.99942 81.033933 
L 263.029857 81.033933 
L 263.242911 81.576149 
L 263.395093 81.924715 
L 264.734293 85.604018 
L 265.495202 88.08271 
L 265.76913 89.012215 
L 266.408293 91.76201 
L 266.590911 92.459141 
L 269.178002 106.130657 
L 269.604111 108.609346 
L 269.847602 109.964878 
L 270.36502 113.063239 
L 271.917275 123.636395 
L 273.073857 131.614673 
L 274.443493 139.631681 
L 276.239239 148.229632 
L 279.06982 158.647869 
L 279.191566 158.957706 
L 280.439457 161.862418 
L 280.713384 162.365902 
L 281.07862 163.024303 
L 281.322111 163.489057 
L 281.656911 164.070001 
L 281.717784 164.10873 
L 281.961275 164.457296 
L 282.813493 165.386804 
L 282.996111 165.464262 
L 283.17873 165.541721 
L 283.635275 165.61918 
L 283.75702 165.696639 
L 283.787457 165.65791 
L 284.213566 165.580452 
L 284.365748 165.502993 
L 284.487493 165.502993 
L 284.609239 165.386804 
L 284.639675 165.425532 
L 284.670111 165.309345 
L 284.944039 165.231886 
L 285.461457 164.728402 
L 285.491893 164.728402 
L 285.674511 164.418565 
L 285.735384 164.341106 
L 286.009311 163.876353 
L 286.070184 163.798894 
L 286.374548 163.29541 
L 286.587602 162.908115 
L 286.831093 162.404632 
L 287.470257 161.049099 
L 287.652875 160.661804 
L 288.10942 159.771025 
L 288.139857 159.771025 
L 288.352911 159.345001 
L 288.687711 158.764058 
L 289.022511 158.183115 
L 289.083384 158.144386 
L 289.266002 157.950738 
L 289.692111 157.563443 
L 289.813857 157.485984 
L 290.11822 157.253607 
L 290.696511 157.292336 
L 290.818257 157.408525 
L 290.909566 157.408525 
L 291.061748 157.524713 
L 291.21393 157.602172 
L 291.761784 158.454222 
L 293.13142 162.172254 
L 293.46622 163.372869 
L 293.861893 164.650943 
L 294.47062 167.207091 
L 295.23153 170.499099 
L 295.718511 172.900328 
L 296.14462 174.952992 
L 297.270766 180.181475 
L 297.392511 180.762419 
L 298.092548 183.822049 
L 298.275166 184.55791 
L 298.670839 186.378196 
L 299.15782 188.314672 
L 300.618766 193.465696 
L 301.105748 194.976147 
L 301.531857 196.215491 
L 301.59273 196.29295 
L 302.353639 197.958319 
L 302.50582 198.306885 
L 302.810184 199.042745 
L 303.26673 199.933524 
L 303.662402 200.591926 
L 304.058075 201.327789 
L 304.118948 201.405242 
L 304.51462 201.79254 
L 304.636366 201.79254 
L 304.788548 201.869999 
L 304.818984 201.83127 
L 304.879857 201.908729 
L 305.214657 201.947462 
L 305.366839 202.102373 
L 305.488584 202.102373 
L 305.61033 202.102373 
L 305.823384 202.063644 
L 305.975566 201.947462 
L 307.101711 200.398278 
L 307.497384 199.313852 
L 308.471348 196.564057 
L 309.993166 190.328606 
L 311.180184 183.783319 
L 317.206584 138.547255 
L 317.389202 137.462828 
L 319.732802 123.249099 
L 321.650293 113.992747 
L 321.802475 113.334345 
L 322.59382 109.84869 
L 322.806875 109.03537 
L 323.476475 106.053198 
L 324.237384 102.72246 
L 326.03313 96.293365 
L 326.154875 96.022253 
L 326.428802 95.363851 
L 326.672293 94.899103 
L 327.007093 94.318154 
L 327.402766 93.698485 
L 327.585384 93.388649 
L 327.676693 93.311187 
L 327.828875 93.117543 
L 327.920184 93.117543 
L 328.072366 92.885169 
L 328.194111 92.846436 
L 328.37673 92.614056 
L 328.407166 92.652785 
L 328.468039 92.575333 
L 328.62022 92.459141 
L 328.924584 92.381682 
L 329.015893 92.381682 
L 329.228948 92.497871 
L 329.38113 92.575333 
L 330.507275 94.12451 
L 330.781202 94.744182 
L 330.96382 95.092748 
L 331.146439 95.557502 
L 331.329057 95.867338 
L 331.542111 96.44828 
L 331.72473 96.835575 
L 333.155239 100.747259 
L 334.920548 107.912214 
L 335.681457 111.242952 
L 336.259748 113.876559 
L 343.960148 152.528607 
L 346.516802 162.714467 
L 347.12553 165.309345 
L 347.308148 165.967746 
L 347.551639 166.974713 
L 348.677784 170.847664 
L 351.599675 178.012623 
L 352.81713 179.445613 
L 352.847566 179.406886 
L 352.908439 179.484344 
L 353.030184 179.561804 
L 353.273675 179.716721 
L 353.425857 179.755452 
L 353.578039 179.871639 
L 353.760657 179.987827 
L 353.851966 179.987827 
L 354.06502 180.104017 
L 354.278075 180.181475 
L 354.521566 180.336393 
L 354.673748 180.375123 
L 354.795493 180.530041 
L 354.856366 180.452583 
L 354.886802 180.530041 
L 355.06942 180.568771 
L 355.221602 180.723688 
L 355.312911 180.762419 
L 355.465093 180.878606 
L 355.586839 180.956067 
L 355.891202 181.227172 
L 355.921639 181.188442 
L 355.982511 181.265902 
L 356.07382 181.304632 
L 356.226002 181.498277 
L 356.256439 181.45955 
L 356.286875 181.537007 
L 356.469493 181.730655 
L 356.652111 181.808116 
L 356.865166 182.079221 
L 356.956475 182.156681 
L 357.41302 182.582704 
L 357.534766 182.660165 
L 358.021748 183.163648 
L 358.052184 183.086188 
L 358.08262 183.202376 
L 358.326111 183.357296 
L 358.50873 183.434754 
L 358.75222 183.589672 
L 358.873966 183.667132 
L 359.117457 183.860778 
L 359.239202 183.860778 
L 359.42182 183.976967 
L 359.482693 183.899508 
L 359.51313 183.976967 
L 359.817493 184.054426 
L 359.939239 184.209344 
L 359.969675 184.131885 
L 360.030548 184.209344 
L 360.18273 184.286803 
L 360.334911 184.325533 
L 360.943639 184.248074 
L 361.034948 184.209344 
L 361.065384 184.248074 
L 361.18713 184.170615 
L 361.369748 184.093156 
L 361.400184 184.131885 
L 361.461057 184.054426 
L 361.582802 183.976967 
L 361.734984 183.860778 
L 362.404584 183.163648 
L 362.465457 183.086188 
L 364.139457 180.801149 
L 364.413384 180.336393 
L 364.44382 180.336393 
L 364.626439 180.026557 
L 366.87873 177.276762 
L 366.939602 177.315492 
L 366.970039 177.238031 
L 367.061348 177.199304 
L 367.274402 176.928196 
L 367.761384 176.424712 
L 367.79182 176.463443 
L 367.852693 176.385984 
L 368.12662 176.114877 
L 368.157057 176.192336 
L 368.21793 176.153607 
L 368.491857 175.959959 
L 368.613602 175.8825 
L 369.070148 175.456476 
L 369.161457 175.379017 
L 369.313639 175.224098 
L 369.344075 175.301558 
L 369.496257 175.224098 
L 369.770184 175.030451 
L 369.831057 174.991721 
L 369.983239 174.875533 
L 370.044111 174.798073 
L 370.47022 174.410779 
L 370.531093 174.33332 
L 370.926766 173.984754 
L 371.018075 173.946024 
L 371.261566 173.55873 
L 371.383311 173.48127 
L 371.961602 172.900328 
L 372.022475 172.822869 
L 372.81382 171.97082 
L 372.874693 171.93209 
L 373.057311 171.699713 
L 373.14862 171.622254 
L 374.15302 170.189263 
L 374.548693 169.453401 
L 374.609566 169.375943 
L 375.218293 168.05914 
L 375.24873 168.05914 
L 375.58353 167.207091 
L 377.561893 161.901148 
L 378.140184 160.11959 
L 378.718475 158.415492 
L 378.992402 157.563443 
L 382.431711 144.008115 
L 382.766511 142.575124 
L 382.918693 141.839263 
L 382.918693 141.839263 
" style="fill:none;stroke:#0000ff;stroke-linecap:square;stroke-width:1.5;"/>
   </g>
   <g id="line2d_26">
    <path clip-path="url(#pfb28af82ad)" d="M 78.555057 151.138605 
L 78.737675 151.11924 
L 78.95073 151.138605 
L 87.959893 151.061146 
L 88.112075 151.041781 
L 88.294693 151.041781 
L 97.973457 150.944957 
L 98.125639 150.925593 
L 99.830075 151.003052 
L 100.012693 151.061146 
L 100.469239 151.15797 
L 100.895348 151.312888 
L 101.017093 151.409712 
L 101.838875 152.048748 
L 102.873711 153.539834 
L 104.852075 158.826412 
L 105.704293 162.11842 
L 106.64782 166.146288 
L 107.65222 170.697006 
L 110.208875 181.579997 
L 111.42633 185.085018 
L 111.66982 185.549772 
L 112.065493 186.266268 
L 112.613348 187.118317 
L 112.704657 187.195776 
L 112.978584 187.370059 
L 113.191639 187.408789 
L 113.496002 187.33133 
L 113.76993 187.234506 
L 114.256911 186.827846 
L 115.139566 184.910735 
L 116.296148 180.882866 
L 117.726657 173.040141 
L 119.004984 164.229179 
L 122.779093 132.103052 
L 125.366184 110.027233 
L 126.522766 102.707356 
L 127.801093 96.007154 
L 129.292475 89.868524 
L 129.657711 88.880919 
L 130.479493 87.544754 
L 131.149093 86.866984 
L 131.453457 86.789532 
L 131.666511 86.692702 
L 132.670911 85.588914 
L 132.823093 85.588914 
L 133.066584 85.647005 
L 133.218766 85.627643 
L 133.340511 85.627643 
L 133.614439 85.569552 
L 134.10142 85.666373 
L 134.405784 85.976209 
L 134.649275 86.227951 
L 134.892766 86.305413 
L 135.014511 86.344136 
L 135.258002 86.286045 
L 135.86673 86.770164 
L 136.231966 87.234918 
L 137.236366 87.990143 
L 138.514693 90.662479 
L 139.245166 93.877028 
L 141.923566 108.071393 
L 142.714911 113.241782 
L 146.032475 139.422929 
L 147.462984 152.126207 
L 148.223893 159.174977 
L 149.471784 170.406534 
L 151.998002 191.940141 
L 153.367639 201.545059 
L 153.976366 205.030715 
L 155.406875 210.917603 
L 156.776511 213.338194 
L 156.989566 213.435018 
L 157.233057 213.493109 
L 157.385239 213.512477 
L 157.933093 213.435018 
L 158.694002 212.292497 
L 159.089675 211.576004 
L 160.033202 209.562064 
L 162.194184 202.339014 
L 163.624693 195.464526 
L 165.66393 183.167908 
L 166.698766 176.70008 
L 168.190148 168.779895 
L 168.890184 166.126925 
L 170.168511 163.164117 
L 170.59462 162.583174 
L 170.868548 162.486351 
L 171.051166 162.56381 
L 171.294657 162.660634 
L 172.146875 163.299671 
L 172.725166 164.616473 
L 174.764402 171.471596 
L 176.37753 180.24383 
L 177.990657 191.165551 
L 179.116802 199.589219 
L 180.425566 207.238293 
L 181.247348 210.859505 
L 182.586548 216.339734 
L 183.347457 218.431121 
L 183.560511 218.663501 
L 183.773566 218.837784 
L 184.017057 218.973337 
L 184.65622 218.876517 
L 184.869275 218.624772 
L 185.112766 218.179385 
L 186.08673 214.751818 
L 186.725893 210.956326 
L 187.517239 205.224362 
L 189.160802 189.616371 
L 191.01742 165.894547 
L 195.248075 105.612069 
L 196.222039 94.031943 
L 197.926475 75.77098 
L 199.935275 57.645577 
L 201.030984 49.493013 
L 201.609275 46.220369 
L 202.73542 41.708382 
L 203.587639 39.810633 
L 203.678948 39.655712 
L 204.013748 38.958581 
L 204.439857 38.551924 
L 205.17033 39.13287 
L 206.052984 42.269963 
L 208.153093 53.520882 
L 210.314075 67.928258 
L 212.596802 85.918118 
L 213.418584 92.444036 
L 216.827457 119.322315 
L 218.714511 134.020162 
L 220.418948 146.181228 
L 223.432148 164.655203 
L 226.384475 180.940961 
L 228.819384 191.301104 
L 229.062875 192.153153 
L 229.458548 193.624875 
L 234.845784 207.625592 
L 235.758875 210.162374 
L 236.367602 211.421083 
L 237.55462 213.454385 
L 238.55902 214.558173 
L 238.772075 214.654997 
L 239.046002 214.713088 
L 239.806911 214.635635 
L 239.959093 214.596906 
L 241.602657 214.674365 
L 241.754839 214.693727 
L 242.515748 214.79055 
L 242.728802 214.82928 
L 242.850548 214.868009 
L 243.094039 214.964833 
L 243.611457 215.410219 
L 244.098439 216.107351 
L 244.58542 216.901305 
L 245.285457 218.450489 
L 245.650693 219.263812 
L 245.894184 219.74793 
L 246.868148 221.936148 
L 247.994293 224.298644 
L 248.35953 225.092599 
L 248.755202 225.770363 
L 248.998693 226.138296 
L 249.150875 226.351308 
L 250.520511 227.919856 
L 250.885748 228.249054 
L 251.129239 228.481434 
L 251.433602 228.69444 
L 251.768402 228.79127 
L 251.920584 228.752541 
L 252.224948 228.655711 
L 252.590184 228.307152 
L 253.107602 227.474461 
L 253.62502 226.254488 
L 254.446802 223.891982 
L 255.359893 219.999666 
L 256.242548 214.964833 
L 257.764366 203.539632 
L 259.042693 191.184916 
L 260.229711 177.164834 
L 261.234111 163.686965 
L 262.725493 141.30131 
L 264.369057 114.965245 
L 268.143166 58.981742 
L 269.208439 46.840038 
L 269.908475 40.081739 
L 271.12593 31.599977 
L 271.978148 27.804492 
L 272.556439 25.984202 
L 273.13473 25.093426 
L 273.256475 24.996596 
L 273.71302 24.802952 
L 274.291311 25.267703 
L 275.630511 29.876517 
L 276.513166 34.930715 
L 277.578439 42.386145 
L 279.73942 62.583589 
L 283.330911 102.629897 
L 287.013711 143.547622 
L 291.21393 185.220571 
L 293.618402 204.198033 
L 295.322839 213.318826 
L 295.90113 215.720055 
L 296.296802 217.346701 
L 297.14902 220.638706 
L 297.696875 222.304075 
L 298.305602 223.87262 
L 299.127384 225.208791 
L 299.979602 226.138296 
L 300.92313 226.041475 
L 302.566693 223.775796 
L 303.540657 220.309502 
L 304.453748 215.139116 
L 306.736475 198.562887 
L 307.801748 190.332866 
L 309.323566 178.636554 
L 310.693202 169.786863 
L 311.454111 165.371698 
L 312.54982 159.078154 
L 313.097675 156.134711 
L 314.254257 149.686248 
L 315.410839 143.702539 
L 316.750039 138.241679 
L 318.028366 133.787786 
L 318.850148 131.52211 
L 319.184948 130.650696 
L 321.619857 124.725082 
L 321.893784 124.202233 
L 322.563384 122.788606 
L 322.959057 122.110839 
L 324.93742 118.1217 
L 326.520111 113.454794 
L 328.194111 108.904077 
L 328.681093 107.432356 
L 328.924584 106.754589 
L 329.38113 105.437786 
L 330.081166 103.57877 
L 331.207311 101.003258 
L 331.29862 100.828975 
L 332.120402 99.492804 
L 333.003057 98.543937 
L 334.220511 97.885535 
L 334.585748 97.982356 
L 335.31622 98.563299 
L 336.107566 99.744549 
L 336.807602 100.848337 
L 336.929348 101.041987 
L 337.203275 101.564835 
L 337.964184 103.21084 
L 338.32942 104.120983 
L 339.972984 109.698032 
L 341.616548 117.502028 
L 344.416693 134.17508 
L 346.516802 151.061146 
L 348.860402 169.535122 
L 349.773493 176.680715 
L 350.747457 183.845674 
L 353.517166 202.474564 
L 356.256439 215.855615 
L 356.74342 217.307968 
L 357.534766 219.031431 
L 357.930439 219.55428 
L 358.386984 219.960937 
L 358.50873 220.038396 
L 358.691348 220.193317 
L 358.904402 220.29014 
L 359.08702 220.29014 
L 359.482693 219.960937 
L 360.030548 218.857149 
L 360.334911 218.063194 
L 362.465457 209.503973 
L 363.652475 202.900592 
L 364.322075 198.446698 
L 366.513493 182.354589 
L 368.004875 169.109097 
L 369.831057 151.874466 
L 371.870293 130.979896 
L 374.48782 108.632971 
L 376.070511 98.311554 
L 377.866257 88.648545 
L 378.84022 84.81432 
L 379.692439 82.432459 
L 379.905493 81.987073 
L 380.453348 80.883275 
L 381.457748 79.779488 
L 381.670802 79.721393 
L 381.792548 79.643934 
L 381.822984 79.663302 
L 382.462148 79.721393 
L 382.61433 79.818217 
L 382.796948 79.915038 
L 382.918693 80.011862 
L 382.918693 80.011862 
" style="fill:none;stroke:#ff0000;stroke-linecap:square;stroke-width:1.5;"/>
   </g>
   <g id="line2d_27">
    <path clip-path="url(#pfb28af82ad)" d="M 124.453093 159.848484 
" style="fill:none;stroke:#ffffff;stroke-linecap:square;stroke-width:1.5;"/>
    <defs>
     <path d="M 0 -5 
L -1.12257 -1.545085 
L -4.755283 -1.545085 
L -1.816356 0.59017 
L -2.938926 4.045085 
L -0 1.90983 
L 2.938926 4.045085 
L 1.816356 0.59017 
L 4.755283 -1.545085 
L 1.12257 -1.545085 
z
" id="m23964ca765" style="stroke:#ffffff;stroke-linejoin:bevel;"/>
    </defs>
    <g clip-path="url(#pfb28af82ad)">
     <use style="fill:#0000ff;stroke:#ffffff;stroke-linejoin:bevel;" x="124.453093" xlink:href="#m23964ca765" y="159.848484"/>
    </g>
   </g>
   <g id="line2d_28">
    <path clip-path="url(#pfb28af82ad)" d="M 104.425966 157.470879 
" style="fill:none;stroke:#ffffff;stroke-linecap:square;stroke-width:1.5;"/>
    <defs>
     <path d="M 0 -5 
L -1.12257 -1.545085 
L -4.755283 -1.545085 
L -1.816356 0.59017 
L -2.938926 4.045085 
L -0 1.90983 
L 2.938926 4.045085 
L 1.816356 0.59017 
L 4.755283 -1.545085 
L 1.12257 -1.545085 
z
" id="m0ed6eeb27b" style="stroke:#ffffff;stroke-linejoin:bevel;"/>
    </defs>
    <g clip-path="url(#pfb28af82ad)">
     <use style="fill:#ff0000;stroke:#ffffff;stroke-linejoin:bevel;" x="104.425966" xlink:href="#m0ed6eeb27b" y="157.470879"/>
    </g>
   </g>
   <g id="patch_3">
    <path d="M 63.336875 339.84 
L 63.336875 7.2 
" style="fill:none;stroke:#000000;stroke-linecap:square;stroke-linejoin:miter;stroke-width:0.8;"/>
   </g>
   <g id="patch_4">
    <path d="M 398.136875 339.84 
L 398.136875 7.2 
" style="fill:none;stroke:#000000;stroke-linecap:square;stroke-linejoin:miter;stroke-width:0.8;"/>
   </g>
   <g id="patch_5">
    <path d="M 63.336875 339.84 
L 398.136875 339.84 
" style="fill:none;stroke:#000000;stroke-linecap:square;stroke-linejoin:miter;stroke-width:0.8;"/>
   </g>
   <g id="patch_6">
    <path d="M 63.336875 7.2 
L 398.136875 7.2 
" style="fill:none;stroke:#000000;stroke-linecap:square;stroke-linejoin:miter;stroke-width:0.8;"/>
   </g>
   <g id="text_15">
    <g id="patch_7">
     <path d="M 75.036875 331.242688 
L 166.79375 331.242688 
L 166.79375 293.760312 
L 75.036875 293.760312 
z
" style="fill:#ffffff;stroke:#000000;stroke-linejoin:miter;stroke-width:0.75;"/>
    </g>
    <!-- Auto_00119 -->
    <g transform="translate(80.076875 308.521562)scale(0.14 -0.14)">
     <defs>
      <path d="M 2928 1419 
L 1288 1419 
L 1000 750 
Q 894 503 894 381 
Q 894 284 986 211 
Q 1078 138 1384 116 
L 1384 0 
L 50 0 
L 50 116 
Q 316 163 394 238 
Q 553 388 747 847 
L 2238 4334 
L 2347 4334 
L 3822 809 
Q 4000 384 4145 257 
Q 4291 131 4550 116 
L 4550 0 
L 2878 0 
L 2878 116 
Q 3131 128 3220 200 
Q 3309 272 3309 375 
Q 3309 513 3184 809 
L 2928 1419 
z
M 2841 1650 
L 2122 3363 
L 1384 1650 
L 2841 1650 
z
" id="TimesNewRomanPSMT-41" transform="scale(0.015625)"/>
      <path d="M 2709 2863 
L 2709 1128 
Q 2709 631 2732 520 
Q 2756 409 2807 365 
Q 2859 322 2928 322 
Q 3025 322 3147 375 
L 3191 266 
L 2334 -88 
L 2194 -88 
L 2194 519 
Q 1825 119 1631 15 
Q 1438 -88 1222 -88 
Q 981 -88 804 51 
Q 628 191 559 409 
Q 491 628 491 1028 
L 491 2306 
Q 491 2509 447 2587 
Q 403 2666 317 2708 
Q 231 2750 6 2747 
L 6 2863 
L 1009 2863 
L 1009 947 
Q 1009 547 1148 422 
Q 1288 297 1484 297 
Q 1619 297 1789 381 
Q 1959 466 2194 703 
L 2194 2325 
Q 2194 2569 2105 2655 
Q 2016 2741 1734 2747 
L 1734 2863 
L 2709 2863 
z
" id="TimesNewRomanPSMT-75" transform="scale(0.015625)"/>
      <path d="M 3256 -1381 
L -53 -1381 
L -53 -1119 
L 3256 -1119 
L 3256 -1381 
z
" id="TimesNewRomanPSMT-5f" transform="scale(0.015625)"/>
      <path d="M 338 -88 
L 338 28 
Q 744 34 1094 217 
Q 1444 400 1770 856 
Q 2097 1313 2225 1859 
Q 1734 1544 1338 1544 
Q 891 1544 572 1889 
Q 253 2234 253 2806 
Q 253 3363 572 3797 
Q 956 4325 1575 4325 
Q 2097 4325 2469 3894 
Q 2925 3359 2925 2575 
Q 2925 1869 2578 1258 
Q 2231 647 1613 244 
Q 1109 -88 516 -88 
L 338 -88 
z
M 2275 2091 
Q 2331 2497 2331 2741 
Q 2331 3044 2228 3395 
Q 2125 3747 1936 3934 
Q 1747 4122 1506 4122 
Q 1228 4122 1018 3872 
Q 809 3622 809 3128 
Q 809 2469 1088 2097 
Q 1291 1828 1588 1828 
Q 1731 1828 1928 1897 
Q 2125 1966 2275 2091 
z
" id="TimesNewRomanPSMT-39" transform="scale(0.015625)"/>
     </defs>
     <use xlink:href="#TimesNewRomanPSMT-41"/>
     <use x="72.216797" xlink:href="#TimesNewRomanPSMT-75"/>
     <use x="122.216797" xlink:href="#TimesNewRomanPSMT-74"/>
     <use x="150" xlink:href="#TimesNewRomanPSMT-6f"/>
     <use x="200" xlink:href="#TimesNewRomanPSMT-5f"/>
     <use x="250" xlink:href="#TimesNewRomanPSMT-30"/>
     <use x="300" xlink:href="#TimesNewRomanPSMT-30"/>
     <use x="350" xlink:href="#TimesNewRomanPSMT-31"/>
     <use x="396.25" xlink:href="#TimesNewRomanPSMT-31"/>
     <use x="446.25" xlink:href="#TimesNewRomanPSMT-39"/>
    </g>
    <!-- Vs: 303.77m/s -->
    <g transform="translate(80.076875 323.208)scale(0.14 -0.14)">
     <defs>
      <path d="M 903 2950 
Q 1047 2950 1148 2848 
Q 1250 2747 1250 2603 
Q 1250 2459 1148 2357 
Q 1047 2256 903 2256 
Q 759 2256 657 2357 
Q 556 2459 556 2603 
Q 556 2747 657 2848 
Q 759 2950 903 2950 
z
M 897 609 
Q 1044 609 1145 506 
Q 1247 403 1247 259 
Q 1247 116 1144 14 
Q 1041 -88 897 -88 
Q 753 -88 651 14 
Q 550 116 550 259 
Q 550 403 651 506 
Q 753 609 897 609 
z
" id="TimesNewRomanPSMT-3a" transform="scale(0.015625)"/>
      <path d="M 644 4238 
L 2916 4238 
L 2916 4119 
L 1503 -88 
L 1153 -88 
L 2419 3728 
L 1253 3728 
Q 900 3728 750 3644 
Q 488 3500 328 3200 
L 238 3234 
L 644 4238 
z
" id="TimesNewRomanPSMT-37" transform="scale(0.015625)"/>
      <path d="M 1794 4444 
L 259 -88 
L 9 -88 
L 1544 4444 
L 1794 4444 
z
" id="TimesNewRomanPSMT-2f" transform="scale(0.015625)"/>
     </defs>
     <use xlink:href="#TimesNewRomanPSMT-56"/>
     <use x="72.216797" xlink:href="#TimesNewRomanPSMT-73"/>
     <use x="111.132812" xlink:href="#TimesNewRomanPSMT-3a"/>
     <use x="138.916016" xlink:href="#TimesNewRomanPSMT-20"/>
     <use x="163.916016" xlink:href="#TimesNewRomanPSMT-33"/>
     <use x="213.916016" xlink:href="#TimesNewRomanPSMT-30"/>
     <use x="263.916016" xlink:href="#TimesNewRomanPSMT-33"/>
     <use x="313.916016" xlink:href="#TimesNewRomanPSMT-2e"/>
     <use x="338.916016" xlink:href="#TimesNewRomanPSMT-37"/>
     <use x="388.916016" xlink:href="#TimesNewRomanPSMT-37"/>
     <use x="438.916016" xlink:href="#TimesNewRomanPSMT-6d"/>
     <use x="516.699219" xlink:href="#TimesNewRomanPSMT-2f"/>
     <use x="544.482422" xlink:href="#TimesNewRomanPSMT-73"/>
    </g>
   </g>
  </g>
 </g>
 <defs>
  <clipPath id="pfb28af82ad">
   <rect height="332.64" width="334.8" x="63.336875" y="7.2"/>
  </clipPath>
 </defs>
</svg>
