<?xml version="1.0" encoding="utf-8" standalone="no"?>
<!DOCTYPE svg PUBLIC "-//W3C//DTD SVG 1.1//EN"
  "http://www.w3.org/Graphics/SVG/1.1/DTD/svg11.dtd">
<svg height="383.471875pt" version="1.1" viewBox="0 0 421.086875 383.471875" width="421.086875pt" xmlns="http://www.w3.org/2000/svg" xmlns:xlink="http://www.w3.org/1999/xlink">
 <metadata>
  <rdf:RDF xmlns:cc="http://creativecommons.org/ns#" xmlns:dc="http://purl.org/dc/elements/1.1/" xmlns:rdf="http://www.w3.org/1999/02/22-rdf-syntax-ns#">
   <cc:Work>
    <dc:type rdf:resource="http://purl.org/dc/dcmitype/StillImage"/>
    <dc:date>2021-06-11T14:39:38.317922</dc:date>
    <dc:format>image/svg+xml</dc:format>
    <dc:creator>
     <cc:Agent>
      <dc:title>Matplotlib v3.4.2, https://matplotlib.org/</dc:title>
     </cc:Agent>
    </dc:creator>
   </cc:Work>
  </rdf:RDF>
 </metadata>
 <defs>
  <style type="text/css">*{stroke-linecap:butt;stroke-linejoin:round;}</style>
 </defs>
 <g id="figure_1">
  <g id="patch_1">
   <path d="M 0 383.471875 
L 421.086875 383.471875 
L 421.086875 0 
L 0 0 
z
" style="fill:#ffffff;"/>
  </g>
  <g id="axes_1">
   <g id="patch_2">
    <path d="M 63.336875 339.84 
L 398.136875 339.84 
L 398.136875 7.2 
L 63.336875 7.2 
z
" style="fill:#ffffff;"/>
   </g>
   <g id="matplotlib.axis_1">
    <g id="xtick_1">
     <g id="line2d_1">
      <path clip-path="url(#pd6f48d336c)" d="M 93.773239 339.84 
L 93.773239 7.2 
" style="fill:none;stroke:#000000;stroke-dasharray:0.5,0.825;stroke-dashoffset:0;stroke-width:0.5;"/>
     </g>
     <g id="line2d_2">
      <defs>
       <path d="M 0 0 
L 0 3.5 
" id="m871b24961b" style="stroke:#000000;stroke-width:0.8;"/>
      </defs>
      <g>
       <use style="stroke:#000000;stroke-width:0.8;" x="93.773239" xlink:href="#m871b24961b" y="339.84"/>
      </g>
     </g>
     <g id="text_1">
      <!-- 0.000 -->
      <g transform="translate(78.023239 356.56125)scale(0.14 -0.14)">
       <defs>
        <path d="M 231 2094 
Q 231 2819 450 3342 
Q 669 3866 1031 4122 
Q 1313 4325 1613 4325 
Q 2100 4325 2488 3828 
Q 2972 3213 2972 2159 
Q 2972 1422 2759 906 
Q 2547 391 2217 158 
Q 1888 -75 1581 -75 
Q 975 -75 572 641 
Q 231 1244 231 2094 
z
M 844 2016 
Q 844 1141 1059 588 
Q 1238 122 1591 122 
Q 1759 122 1940 273 
Q 2122 425 2216 781 
Q 2359 1319 2359 2297 
Q 2359 3022 2209 3506 
Q 2097 3866 1919 4016 
Q 1791 4119 1609 4119 
Q 1397 4119 1231 3928 
Q 1006 3669 925 3112 
Q 844 2556 844 2016 
z
" id="TimesNewRomanPSMT-30" transform="scale(0.015625)"/>
        <path d="M 800 606 
Q 947 606 1047 504 
Q 1147 403 1147 259 
Q 1147 116 1045 14 
Q 944 -88 800 -88 
Q 656 -88 554 14 
Q 453 116 453 259 
Q 453 406 554 506 
Q 656 606 800 606 
z
" id="TimesNewRomanPSMT-2e" transform="scale(0.015625)"/>
       </defs>
       <use xlink:href="#TimesNewRomanPSMT-30"/>
       <use x="50" xlink:href="#TimesNewRomanPSMT-2e"/>
       <use x="75" xlink:href="#TimesNewRomanPSMT-30"/>
       <use x="125" xlink:href="#TimesNewRomanPSMT-30"/>
       <use x="175" xlink:href="#TimesNewRomanPSMT-30"/>
      </g>
     </g>
    </g>
    <g id="xtick_2">
     <g id="line2d_3">
      <path clip-path="url(#pd6f48d336c)" d="M 154.645966 339.84 
L 154.645966 7.2 
" style="fill:none;stroke:#000000;stroke-dasharray:0.5,0.825;stroke-dashoffset:0;stroke-width:0.5;"/>
     </g>
     <g id="line2d_4">
      <g>
       <use style="stroke:#000000;stroke-width:0.8;" x="154.645966" xlink:href="#m871b24961b" y="339.84"/>
      </g>
     </g>
     <g id="text_2">
      <!-- 0.001 -->
      <g transform="translate(138.895966 356.56125)scale(0.14 -0.14)">
       <defs>
        <path d="M 750 3822 
L 1781 4325 
L 1884 4325 
L 1884 747 
Q 1884 391 1914 303 
Q 1944 216 2037 169 
Q 2131 122 2419 116 
L 2419 0 
L 825 0 
L 825 116 
Q 1125 122 1212 167 
Q 1300 213 1334 289 
Q 1369 366 1369 747 
L 1369 3034 
Q 1369 3497 1338 3628 
Q 1316 3728 1258 3775 
Q 1200 3822 1119 3822 
Q 1003 3822 797 3725 
L 750 3822 
z
" id="TimesNewRomanPSMT-31" transform="scale(0.015625)"/>
       </defs>
       <use xlink:href="#TimesNewRomanPSMT-30"/>
       <use x="50" xlink:href="#TimesNewRomanPSMT-2e"/>
       <use x="75" xlink:href="#TimesNewRomanPSMT-30"/>
       <use x="125" xlink:href="#TimesNewRomanPSMT-30"/>
       <use x="175" xlink:href="#TimesNewRomanPSMT-31"/>
      </g>
     </g>
    </g>
    <g id="xtick_3">
     <g id="line2d_5">
      <path clip-path="url(#pd6f48d336c)" d="M 215.518693 339.84 
L 215.518693 7.2 
" style="fill:none;stroke:#000000;stroke-dasharray:0.5,0.825;stroke-dashoffset:0;stroke-width:0.5;"/>
     </g>
     <g id="line2d_6">
      <g>
       <use style="stroke:#000000;stroke-width:0.8;" x="215.518693" xlink:href="#m871b24961b" y="339.84"/>
      </g>
     </g>
     <g id="text_3">
      <!-- 0.002 -->
      <g transform="translate(199.768693 356.56125)scale(0.14 -0.14)">
       <defs>
        <path d="M 2934 816 
L 2638 0 
L 138 0 
L 138 116 
Q 1241 1122 1691 1759 
Q 2141 2397 2141 2925 
Q 2141 3328 1894 3587 
Q 1647 3847 1303 3847 
Q 991 3847 742 3664 
Q 494 3481 375 3128 
L 259 3128 
Q 338 3706 661 4015 
Q 984 4325 1469 4325 
Q 1984 4325 2329 3994 
Q 2675 3663 2675 3213 
Q 2675 2891 2525 2569 
Q 2294 2063 1775 1497 
Q 997 647 803 472 
L 1909 472 
Q 2247 472 2383 497 
Q 2519 522 2628 598 
Q 2738 675 2819 816 
L 2934 816 
z
" id="TimesNewRomanPSMT-32" transform="scale(0.015625)"/>
       </defs>
       <use xlink:href="#TimesNewRomanPSMT-30"/>
       <use x="50" xlink:href="#TimesNewRomanPSMT-2e"/>
       <use x="75" xlink:href="#TimesNewRomanPSMT-30"/>
       <use x="125" xlink:href="#TimesNewRomanPSMT-30"/>
       <use x="175" xlink:href="#TimesNewRomanPSMT-32"/>
      </g>
     </g>
    </g>
    <g id="xtick_4">
     <g id="line2d_7">
      <path clip-path="url(#pd6f48d336c)" d="M 276.39142 339.84 
L 276.39142 7.2 
" style="fill:none;stroke:#000000;stroke-dasharray:0.5,0.825;stroke-dashoffset:0;stroke-width:0.5;"/>
     </g>
     <g id="line2d_8">
      <g>
       <use style="stroke:#000000;stroke-width:0.8;" x="276.39142" xlink:href="#m871b24961b" y="339.84"/>
      </g>
     </g>
     <g id="text_4">
      <!-- 0.003 -->
      <g transform="translate(260.64142 356.56125)scale(0.14 -0.14)">
       <defs>
        <path d="M 325 3431 
Q 506 3859 782 4092 
Q 1059 4325 1472 4325 
Q 1981 4325 2253 3994 
Q 2459 3747 2459 3466 
Q 2459 3003 1878 2509 
Q 2269 2356 2469 2072 
Q 2669 1788 2669 1403 
Q 2669 853 2319 450 
Q 1863 -75 997 -75 
Q 569 -75 414 31 
Q 259 138 259 259 
Q 259 350 332 419 
Q 406 488 509 488 
Q 588 488 669 463 
Q 722 447 909 348 
Q 1097 250 1169 231 
Q 1284 197 1416 197 
Q 1734 197 1970 444 
Q 2206 691 2206 1028 
Q 2206 1275 2097 1509 
Q 2016 1684 1919 1775 
Q 1784 1900 1550 2001 
Q 1316 2103 1072 2103 
L 972 2103 
L 972 2197 
Q 1219 2228 1467 2375 
Q 1716 2522 1828 2728 
Q 1941 2934 1941 3181 
Q 1941 3503 1739 3701 
Q 1538 3900 1238 3900 
Q 753 3900 428 3381 
L 325 3431 
z
" id="TimesNewRomanPSMT-33" transform="scale(0.015625)"/>
       </defs>
       <use xlink:href="#TimesNewRomanPSMT-30"/>
       <use x="50" xlink:href="#TimesNewRomanPSMT-2e"/>
       <use x="75" xlink:href="#TimesNewRomanPSMT-30"/>
       <use x="125" xlink:href="#TimesNewRomanPSMT-30"/>
       <use x="175" xlink:href="#TimesNewRomanPSMT-33"/>
      </g>
     </g>
    </g>
    <g id="xtick_5">
     <g id="line2d_9">
      <path clip-path="url(#pd6f48d336c)" d="M 337.264148 339.84 
L 337.264148 7.2 
" style="fill:none;stroke:#000000;stroke-dasharray:0.5,0.825;stroke-dashoffset:0;stroke-width:0.5;"/>
     </g>
     <g id="line2d_10">
      <g>
       <use style="stroke:#000000;stroke-width:0.8;" x="337.264148" xlink:href="#m871b24961b" y="339.84"/>
      </g>
     </g>
     <g id="text_5">
      <!-- 0.004 -->
      <g transform="translate(321.514148 356.56125)scale(0.14 -0.14)">
       <defs>
        <path d="M 2978 1563 
L 2978 1119 
L 2409 1119 
L 2409 0 
L 1894 0 
L 1894 1119 
L 100 1119 
L 100 1519 
L 2066 4325 
L 2409 4325 
L 2409 1563 
L 2978 1563 
z
M 1894 1563 
L 1894 3666 
L 406 1563 
L 1894 1563 
z
" id="TimesNewRomanPSMT-34" transform="scale(0.015625)"/>
       </defs>
       <use xlink:href="#TimesNewRomanPSMT-30"/>
       <use x="50" xlink:href="#TimesNewRomanPSMT-2e"/>
       <use x="75" xlink:href="#TimesNewRomanPSMT-30"/>
       <use x="125" xlink:href="#TimesNewRomanPSMT-30"/>
       <use x="175" xlink:href="#TimesNewRomanPSMT-34"/>
      </g>
     </g>
    </g>
    <g id="xtick_6">
     <g id="line2d_11">
      <path clip-path="url(#pd6f48d336c)" d="M 398.136875 339.84 
L 398.136875 7.2 
" style="fill:none;stroke:#000000;stroke-dasharray:0.5,0.825;stroke-dashoffset:0;stroke-width:0.5;"/>
     </g>
     <g id="line2d_12">
      <g>
       <use style="stroke:#000000;stroke-width:0.8;" x="398.136875" xlink:href="#m871b24961b" y="339.84"/>
      </g>
     </g>
     <g id="text_6">
      <!-- 0.005 -->
      <g transform="translate(382.386875 356.56125)scale(0.14 -0.14)">
       <defs>
        <path d="M 2778 4238 
L 2534 3706 
L 1259 3706 
L 981 3138 
Q 1809 3016 2294 2522 
Q 2709 2097 2709 1522 
Q 2709 1188 2573 903 
Q 2438 619 2231 419 
Q 2025 219 1772 97 
Q 1413 -75 1034 -75 
Q 653 -75 479 54 
Q 306 184 306 341 
Q 306 428 378 495 
Q 450 563 559 563 
Q 641 563 702 538 
Q 763 513 909 409 
Q 1144 247 1384 247 
Q 1750 247 2026 523 
Q 2303 800 2303 1197 
Q 2303 1581 2056 1914 
Q 1809 2247 1375 2428 
Q 1034 2569 447 2591 
L 1259 4238 
L 2778 4238 
z
" id="TimesNewRomanPSMT-35" transform="scale(0.015625)"/>
       </defs>
       <use xlink:href="#TimesNewRomanPSMT-30"/>
       <use x="50" xlink:href="#TimesNewRomanPSMT-2e"/>
       <use x="75" xlink:href="#TimesNewRomanPSMT-30"/>
       <use x="125" xlink:href="#TimesNewRomanPSMT-30"/>
       <use x="175" xlink:href="#TimesNewRomanPSMT-35"/>
      </g>
     </g>
    </g>
    <g id="text_7">
     <!-- Time (sec) -->
     <g transform="translate(200.858906 373.277188)scale(0.14 -0.14)">
      <defs>
       <path d="M 3703 4238 
L 3750 3244 
L 3631 3244 
Q 3597 3506 3538 3619 
Q 3441 3800 3280 3886 
Q 3119 3972 2856 3972 
L 2259 3972 
L 2259 734 
Q 2259 344 2344 247 
Q 2463 116 2709 116 
L 2856 116 
L 2856 0 
L 1059 0 
L 1059 116 
L 1209 116 
Q 1478 116 1591 278 
Q 1659 378 1659 734 
L 1659 3972 
L 1150 3972 
Q 853 3972 728 3928 
Q 566 3869 450 3700 
Q 334 3531 313 3244 
L 194 3244 
L 244 4238 
L 3703 4238 
z
" id="TimesNewRomanPSMT-54" transform="scale(0.015625)"/>
       <path d="M 928 4444 
Q 1059 4444 1151 4351 
Q 1244 4259 1244 4128 
Q 1244 3997 1151 3903 
Q 1059 3809 928 3809 
Q 797 3809 703 3903 
Q 609 3997 609 4128 
Q 609 4259 701 4351 
Q 794 4444 928 4444 
z
M 1188 2947 
L 1188 647 
Q 1188 378 1227 289 
Q 1266 200 1342 156 
Q 1419 113 1622 113 
L 1622 0 
L 231 0 
L 231 113 
Q 441 113 512 153 
Q 584 194 626 287 
Q 669 381 669 647 
L 669 1750 
Q 669 2216 641 2353 
Q 619 2453 572 2492 
Q 525 2531 444 2531 
Q 356 2531 231 2484 
L 188 2597 
L 1050 2947 
L 1188 2947 
z
" id="TimesNewRomanPSMT-69" transform="scale(0.015625)"/>
       <path d="M 1050 2338 
Q 1363 2650 1419 2697 
Q 1559 2816 1721 2881 
Q 1884 2947 2044 2947 
Q 2313 2947 2506 2790 
Q 2700 2634 2766 2338 
Q 3088 2713 3309 2830 
Q 3531 2947 3766 2947 
Q 3994 2947 4170 2830 
Q 4347 2713 4450 2447 
Q 4519 2266 4519 1878 
L 4519 647 
Q 4519 378 4559 278 
Q 4591 209 4675 161 
Q 4759 113 4950 113 
L 4950 0 
L 3538 0 
L 3538 113 
L 3597 113 
Q 3781 113 3884 184 
Q 3956 234 3988 344 
Q 4000 397 4000 647 
L 4000 1878 
Q 4000 2228 3916 2372 
Q 3794 2572 3525 2572 
Q 3359 2572 3192 2489 
Q 3025 2406 2788 2181 
L 2781 2147 
L 2788 2013 
L 2788 647 
Q 2788 353 2820 281 
Q 2853 209 2943 161 
Q 3034 113 3253 113 
L 3253 0 
L 1806 0 
L 1806 113 
Q 2044 113 2133 169 
Q 2222 225 2256 338 
Q 2272 391 2272 647 
L 2272 1878 
Q 2272 2228 2169 2381 
Q 2031 2581 1784 2581 
Q 1616 2581 1450 2491 
Q 1191 2353 1050 2181 
L 1050 647 
Q 1050 366 1089 281 
Q 1128 197 1204 155 
Q 1281 113 1516 113 
L 1516 0 
L 100 0 
L 100 113 
Q 297 113 375 155 
Q 453 197 493 289 
Q 534 381 534 647 
L 534 1741 
Q 534 2213 506 2350 
Q 484 2453 437 2492 
Q 391 2531 309 2531 
Q 222 2531 100 2484 
L 53 2597 
L 916 2947 
L 1050 2947 
L 1050 2338 
z
" id="TimesNewRomanPSMT-6d" transform="scale(0.015625)"/>
       <path d="M 681 1784 
Q 678 1147 991 784 
Q 1303 422 1725 422 
Q 2006 422 2214 576 
Q 2422 731 2563 1106 
L 2659 1044 
Q 2594 616 2278 264 
Q 1963 -88 1488 -88 
Q 972 -88 605 314 
Q 238 716 238 1394 
Q 238 2128 614 2539 
Q 991 2950 1559 2950 
Q 2041 2950 2350 2633 
Q 2659 2316 2659 1784 
L 681 1784 
z
M 681 1966 
L 2006 1966 
Q 1991 2241 1941 2353 
Q 1863 2528 1708 2628 
Q 1553 2728 1384 2728 
Q 1125 2728 920 2526 
Q 716 2325 681 1966 
z
" id="TimesNewRomanPSMT-65" transform="scale(0.015625)"/>
       <path id="TimesNewRomanPSMT-20" transform="scale(0.015625)"/>
       <path d="M 1988 -1253 
L 1988 -1369 
Q 1516 -1131 1200 -813 
Q 750 -359 506 256 
Q 263 872 263 1534 
Q 263 2503 741 3301 
Q 1219 4100 1988 4444 
L 1988 4313 
Q 1603 4100 1356 3731 
Q 1109 3363 987 2797 
Q 866 2231 866 1616 
Q 866 947 969 400 
Q 1050 -31 1165 -292 
Q 1281 -553 1476 -793 
Q 1672 -1034 1988 -1253 
z
" id="TimesNewRomanPSMT-28" transform="scale(0.015625)"/>
       <path d="M 2050 2947 
L 2050 1972 
L 1947 1972 
Q 1828 2431 1642 2597 
Q 1456 2763 1169 2763 
Q 950 2763 815 2647 
Q 681 2531 681 2391 
Q 681 2216 781 2091 
Q 878 1963 1175 1819 
L 1631 1597 
Q 2266 1288 2266 781 
Q 2266 391 1970 151 
Q 1675 -88 1309 -88 
Q 1047 -88 709 6 
Q 606 38 541 38 
Q 469 38 428 -44 
L 325 -44 
L 325 978 
L 428 978 
Q 516 541 762 319 
Q 1009 97 1316 97 
Q 1531 97 1667 223 
Q 1803 350 1803 528 
Q 1803 744 1651 891 
Q 1500 1038 1047 1263 
Q 594 1488 453 1669 
Q 313 1847 313 2119 
Q 313 2472 555 2709 
Q 797 2947 1181 2947 
Q 1350 2947 1591 2875 
Q 1750 2828 1803 2828 
Q 1853 2828 1881 2850 
Q 1909 2872 1947 2947 
L 2050 2947 
z
" id="TimesNewRomanPSMT-73" transform="scale(0.015625)"/>
       <path d="M 2631 1088 
Q 2516 522 2178 217 
Q 1841 -88 1431 -88 
Q 944 -88 581 321 
Q 219 731 219 1428 
Q 219 2103 620 2525 
Q 1022 2947 1584 2947 
Q 2006 2947 2278 2723 
Q 2550 2500 2550 2259 
Q 2550 2141 2473 2067 
Q 2397 1994 2259 1994 
Q 2075 1994 1981 2113 
Q 1928 2178 1911 2362 
Q 1894 2547 1784 2644 
Q 1675 2738 1481 2738 
Q 1169 2738 978 2506 
Q 725 2200 725 1697 
Q 725 1184 976 792 
Q 1228 400 1656 400 
Q 1963 400 2206 609 
Q 2378 753 2541 1131 
L 2631 1088 
z
" id="TimesNewRomanPSMT-63" transform="scale(0.015625)"/>
       <path d="M 144 4313 
L 144 4444 
Q 619 4209 934 3891 
Q 1381 3434 1625 2820 
Q 1869 2206 1869 1541 
Q 1869 572 1392 -226 
Q 916 -1025 144 -1369 
L 144 -1253 
Q 528 -1038 776 -670 
Q 1025 -303 1145 264 
Q 1266 831 1266 1447 
Q 1266 2113 1163 2663 
Q 1084 3094 967 3353 
Q 850 3613 656 3853 
Q 463 4094 144 4313 
z
" id="TimesNewRomanPSMT-29" transform="scale(0.015625)"/>
      </defs>
      <use xlink:href="#TimesNewRomanPSMT-54"/>
      <use x="57.583984" xlink:href="#TimesNewRomanPSMT-69"/>
      <use x="85.367188" xlink:href="#TimesNewRomanPSMT-6d"/>
      <use x="163.150391" xlink:href="#TimesNewRomanPSMT-65"/>
      <use x="207.535156" xlink:href="#TimesNewRomanPSMT-20"/>
      <use x="232.535156" xlink:href="#TimesNewRomanPSMT-28"/>
      <use x="265.835938" xlink:href="#TimesNewRomanPSMT-73"/>
      <use x="304.751953" xlink:href="#TimesNewRomanPSMT-65"/>
      <use x="349.136719" xlink:href="#TimesNewRomanPSMT-63"/>
      <use x="393.521484" xlink:href="#TimesNewRomanPSMT-29"/>
     </g>
    </g>
   </g>
   <g id="matplotlib.axis_2">
    <g id="ytick_1">
     <g id="line2d_13">
      <path clip-path="url(#pd6f48d336c)" d="M 63.336875 280.833128 
L 398.136875 280.833128 
" style="fill:none;stroke:#000000;stroke-dasharray:0.5,0.825;stroke-dashoffset:0;stroke-width:0.5;"/>
     </g>
     <g id="line2d_14">
      <defs>
       <path d="M 0 0 
L -3.5 0 
" id="md24f7a6581" style="stroke:#000000;stroke-width:0.8;"/>
      </defs>
      <g>
       <use style="stroke:#000000;stroke-width:0.8;" x="63.336875" xlink:href="#md24f7a6581" y="280.833128"/>
      </g>
     </g>
     <g id="text_8">
      <!-- −0.04 -->
      <g transform="translate(23.942188 285.693753)scale(0.14 -0.14)">
       <defs>
        <path d="M 3484 2000 
L 116 2000 
L 116 2256 
L 3484 2256 
L 3484 2000 
z
" id="TimesNewRomanPSMT-2212" transform="scale(0.015625)"/>
       </defs>
       <use xlink:href="#TimesNewRomanPSMT-2212"/>
       <use x="56.396484" xlink:href="#TimesNewRomanPSMT-30"/>
       <use x="106.396484" xlink:href="#TimesNewRomanPSMT-2e"/>
       <use x="131.396484" xlink:href="#TimesNewRomanPSMT-30"/>
       <use x="181.396484" xlink:href="#TimesNewRomanPSMT-34"/>
      </g>
     </g>
    </g>
    <g id="ytick_2">
     <g id="line2d_15">
      <path clip-path="url(#pd6f48d336c)" d="M 63.336875 217.102885 
L 398.136875 217.102885 
" style="fill:none;stroke:#000000;stroke-dasharray:0.5,0.825;stroke-dashoffset:0;stroke-width:0.5;"/>
     </g>
     <g id="line2d_16">
      <g>
       <use style="stroke:#000000;stroke-width:0.8;" x="63.336875" xlink:href="#md24f7a6581" y="217.102885"/>
      </g>
     </g>
     <g id="text_9">
      <!-- −0.02 -->
      <g transform="translate(23.942188 221.96351)scale(0.14 -0.14)">
       <use xlink:href="#TimesNewRomanPSMT-2212"/>
       <use x="56.396484" xlink:href="#TimesNewRomanPSMT-30"/>
       <use x="106.396484" xlink:href="#TimesNewRomanPSMT-2e"/>
       <use x="131.396484" xlink:href="#TimesNewRomanPSMT-30"/>
       <use x="181.396484" xlink:href="#TimesNewRomanPSMT-32"/>
      </g>
     </g>
    </g>
    <g id="ytick_3">
     <g id="line2d_17">
      <path clip-path="url(#pd6f48d336c)" d="M 63.336875 153.372643 
L 398.136875 153.372643 
" style="fill:none;stroke:#000000;stroke-dasharray:0.5,0.825;stroke-dashoffset:0;stroke-width:0.5;"/>
     </g>
     <g id="line2d_18">
      <g>
       <use style="stroke:#000000;stroke-width:0.8;" x="63.336875" xlink:href="#md24f7a6581" y="153.372643"/>
      </g>
     </g>
     <g id="text_10">
      <!-- 0.00 -->
      <g transform="translate(31.836875 158.233268)scale(0.14 -0.14)">
       <use xlink:href="#TimesNewRomanPSMT-30"/>
       <use x="50" xlink:href="#TimesNewRomanPSMT-2e"/>
       <use x="75" xlink:href="#TimesNewRomanPSMT-30"/>
       <use x="125" xlink:href="#TimesNewRomanPSMT-30"/>
      </g>
     </g>
    </g>
    <g id="ytick_4">
     <g id="line2d_19">
      <path clip-path="url(#pd6f48d336c)" d="M 63.336875 89.642401 
L 398.136875 89.642401 
" style="fill:none;stroke:#000000;stroke-dasharray:0.5,0.825;stroke-dashoffset:0;stroke-width:0.5;"/>
     </g>
     <g id="line2d_20">
      <g>
       <use style="stroke:#000000;stroke-width:0.8;" x="63.336875" xlink:href="#md24f7a6581" y="89.642401"/>
      </g>
     </g>
     <g id="text_11">
      <!-- 0.02 -->
      <g transform="translate(31.836875 94.503026)scale(0.14 -0.14)">
       <use xlink:href="#TimesNewRomanPSMT-30"/>
       <use x="50" xlink:href="#TimesNewRomanPSMT-2e"/>
       <use x="75" xlink:href="#TimesNewRomanPSMT-30"/>
       <use x="125" xlink:href="#TimesNewRomanPSMT-32"/>
      </g>
     </g>
    </g>
    <g id="ytick_5">
     <g id="line2d_21">
      <path clip-path="url(#pd6f48d336c)" d="M 63.336875 25.912158 
L 398.136875 25.912158 
" style="fill:none;stroke:#000000;stroke-dasharray:0.5,0.825;stroke-dashoffset:0;stroke-width:0.5;"/>
     </g>
     <g id="line2d_22">
      <g>
       <use style="stroke:#000000;stroke-width:0.8;" x="63.336875" xlink:href="#md24f7a6581" y="25.912158"/>
      </g>
     </g>
     <g id="text_12">
      <!-- 0.04 -->
      <g transform="translate(31.836875 30.772783)scale(0.14 -0.14)">
       <use xlink:href="#TimesNewRomanPSMT-30"/>
       <use x="50" xlink:href="#TimesNewRomanPSMT-2e"/>
       <use x="75" xlink:href="#TimesNewRomanPSMT-30"/>
       <use x="125" xlink:href="#TimesNewRomanPSMT-34"/>
      </g>
     </g>
    </g>
    <g id="text_13">
     <!-- Volatage (V) -->
     <g transform="translate(16.92125 209.352344)rotate(-90)scale(0.14 -0.14)">
      <defs>
       <path d="M 4544 4238 
L 4544 4122 
Q 4319 4081 4203 3978 
Q 4038 3825 3909 3509 
L 2431 -97 
L 2316 -97 
L 728 3556 
Q 606 3838 556 3900 
Q 478 3997 364 4051 
Q 250 4106 56 4122 
L 56 4238 
L 1788 4238 
L 1788 4122 
Q 1494 4094 1406 4022 
Q 1319 3950 1319 3838 
Q 1319 3681 1463 3350 
L 2541 866 
L 3541 3319 
Q 3688 3681 3688 3822 
Q 3688 3913 3597 3995 
Q 3506 4078 3291 4113 
Q 3275 4116 3238 4122 
L 3238 4238 
L 4544 4238 
z
" id="TimesNewRomanPSMT-56" transform="scale(0.015625)"/>
       <path d="M 1600 2947 
Q 2250 2947 2644 2453 
Q 2978 2031 2978 1484 
Q 2978 1100 2793 706 
Q 2609 313 2286 112 
Q 1963 -88 1566 -88 
Q 919 -88 538 428 
Q 216 863 216 1403 
Q 216 1797 411 2186 
Q 606 2575 925 2761 
Q 1244 2947 1600 2947 
z
M 1503 2744 
Q 1338 2744 1170 2645 
Q 1003 2547 900 2300 
Q 797 2053 797 1666 
Q 797 1041 1045 587 
Q 1294 134 1700 134 
Q 2003 134 2200 384 
Q 2397 634 2397 1244 
Q 2397 2006 2069 2444 
Q 1847 2744 1503 2744 
z
" id="TimesNewRomanPSMT-6f" transform="scale(0.015625)"/>
       <path d="M 1184 4444 
L 1184 647 
Q 1184 378 1223 290 
Q 1263 203 1344 158 
Q 1425 113 1647 113 
L 1647 0 
L 244 0 
L 244 113 
Q 441 113 512 153 
Q 584 194 625 287 
Q 666 381 666 647 
L 666 3247 
Q 666 3731 644 3842 
Q 622 3953 573 3993 
Q 525 4034 450 4034 
Q 369 4034 244 3984 
L 191 4094 
L 1044 4444 
L 1184 4444 
z
" id="TimesNewRomanPSMT-6c" transform="scale(0.015625)"/>
       <path d="M 1822 413 
Q 1381 72 1269 19 
Q 1100 -59 909 -59 
Q 613 -59 420 144 
Q 228 347 228 678 
Q 228 888 322 1041 
Q 450 1253 767 1440 
Q 1084 1628 1822 1897 
L 1822 2009 
Q 1822 2438 1686 2597 
Q 1550 2756 1291 2756 
Q 1094 2756 978 2650 
Q 859 2544 859 2406 
L 866 2225 
Q 866 2081 792 2003 
Q 719 1925 600 1925 
Q 484 1925 411 2006 
Q 338 2088 338 2228 
Q 338 2497 613 2722 
Q 888 2947 1384 2947 
Q 1766 2947 2009 2819 
Q 2194 2722 2281 2516 
Q 2338 2381 2338 1966 
L 2338 994 
Q 2338 584 2353 492 
Q 2369 400 2405 369 
Q 2441 338 2488 338 
Q 2538 338 2575 359 
Q 2641 400 2828 588 
L 2828 413 
Q 2478 -56 2159 -56 
Q 2006 -56 1915 50 
Q 1825 156 1822 413 
z
M 1822 616 
L 1822 1706 
Q 1350 1519 1213 1441 
Q 966 1303 859 1153 
Q 753 1003 753 825 
Q 753 600 887 451 
Q 1022 303 1197 303 
Q 1434 303 1822 616 
z
" id="TimesNewRomanPSMT-61" transform="scale(0.015625)"/>
       <path d="M 1031 3803 
L 1031 2863 
L 1700 2863 
L 1700 2644 
L 1031 2644 
L 1031 788 
Q 1031 509 1111 412 
Q 1191 316 1316 316 
Q 1419 316 1516 380 
Q 1613 444 1666 569 
L 1788 569 
Q 1678 263 1478 108 
Q 1278 -47 1066 -47 
Q 922 -47 784 33 
Q 647 113 581 261 
Q 516 409 516 719 
L 516 2644 
L 63 2644 
L 63 2747 
Q 234 2816 414 2980 
Q 594 3144 734 3369 
Q 806 3488 934 3803 
L 1031 3803 
z
" id="TimesNewRomanPSMT-74" transform="scale(0.015625)"/>
       <path d="M 966 1044 
Q 703 1172 562 1401 
Q 422 1631 422 1909 
Q 422 2334 742 2640 
Q 1063 2947 1563 2947 
Q 1972 2947 2272 2747 
L 2878 2747 
Q 3013 2747 3034 2739 
Q 3056 2731 3066 2713 
Q 3084 2684 3084 2613 
Q 3084 2531 3069 2500 
Q 3059 2484 3036 2475 
Q 3013 2466 2878 2466 
L 2506 2466 
Q 2681 2241 2681 1891 
Q 2681 1491 2375 1206 
Q 2069 922 1553 922 
Q 1341 922 1119 984 
Q 981 866 932 777 
Q 884 688 884 625 
Q 884 572 936 522 
Q 988 472 1138 450 
Q 1225 438 1575 428 
Q 2219 413 2409 384 
Q 2700 344 2873 169 
Q 3047 -6 3047 -263 
Q 3047 -616 2716 -925 
Q 2228 -1381 1444 -1381 
Q 841 -1381 425 -1109 
Q 191 -953 191 -784 
Q 191 -709 225 -634 
Q 278 -519 444 -313 
Q 466 -284 763 25 
Q 600 122 533 198 
Q 466 275 466 372 
Q 466 481 555 628 
Q 644 775 966 1044 
z
M 1509 2797 
Q 1278 2797 1122 2612 
Q 966 2428 966 2047 
Q 966 1553 1178 1281 
Q 1341 1075 1591 1075 
Q 1828 1075 1981 1253 
Q 2134 1431 2134 1813 
Q 2134 2309 1919 2591 
Q 1759 2797 1509 2797 
z
M 934 0 
Q 788 -159 713 -296 
Q 638 -434 638 -550 
Q 638 -700 819 -813 
Q 1131 -1006 1722 -1006 
Q 2284 -1006 2551 -807 
Q 2819 -609 2819 -384 
Q 2819 -222 2659 -153 
Q 2497 -84 2016 -72 
Q 1313 -53 934 0 
z
" id="TimesNewRomanPSMT-67" transform="scale(0.015625)"/>
      </defs>
      <use xlink:href="#TimesNewRomanPSMT-56"/>
      <use x="59.341797" xlink:href="#TimesNewRomanPSMT-6f"/>
      <use x="109.341797" xlink:href="#TimesNewRomanPSMT-6c"/>
      <use x="137.125" xlink:href="#TimesNewRomanPSMT-61"/>
      <use x="181.509766" xlink:href="#TimesNewRomanPSMT-74"/>
      <use x="209.292969" xlink:href="#TimesNewRomanPSMT-61"/>
      <use x="253.677734" xlink:href="#TimesNewRomanPSMT-67"/>
      <use x="303.677734" xlink:href="#TimesNewRomanPSMT-65"/>
      <use x="348.0625" xlink:href="#TimesNewRomanPSMT-20"/>
      <use x="373.0625" xlink:href="#TimesNewRomanPSMT-28"/>
      <use x="406.363281" xlink:href="#TimesNewRomanPSMT-56"/>
      <use x="478.580078" xlink:href="#TimesNewRomanPSMT-29"/>
     </g>
    </g>
   </g>
   <g id="LineCollection_1">
    <path clip-path="url(#pd6f48d336c)" d="M 78.555057 153.372643 
L 382.918693 153.372643 
" style="fill:none;stroke:#1f77b4;stroke-width:1.5;"/>
   </g>
   <g id="line2d_23">
    <path clip-path="url(#pd6f48d336c)" d="M 78.555057 153.444977 
L 81.87262 153.405145 
L 81.903057 153.325483 
L 81.96393 153.405145 
L 84.55102 153.325483 
L 84.703202 153.285651 
L 84.794511 153.325483 
L 84.824948 153.285651 
L 85.464111 153.285651 
L 85.494548 153.166157 
L 85.585857 153.24582 
L 85.64673 153.285651 
L 85.677166 153.205988 
L 99.495275 153.126326 
L 99.61702 153.126326 
L 102.96502 153.046663 
L 103.05633 153.046663 
L 103.178075 153.086494 
L 103.330257 153.046663 
L 110.482802 153.126326 
L 110.634984 153.166157 
L 110.75673 153.166157 
L 111.608948 153.24582 
L 111.639384 153.285651 
L 111.700257 153.205988 
L 112.217675 153.285651 
L 112.33942 153.325483 
L 112.461166 153.325483 
L 112.552475 153.405145 
L 112.582911 153.325483 
L 112.67422 153.365314 
L 112.76553 153.365314 
L 112.917711 153.405145 
L 113.43513 153.484808 
L 113.587311 153.564471 
L 113.617748 153.484808 
L 113.67862 153.52464 
L 113.861239 153.604302 
L 113.891675 153.52464 
L 113.952548 153.564471 
L 114.10473 153.683965 
L 114.196039 153.644134 
L 114.226475 153.683965 
L 114.561275 153.763628 
L 114.713457 153.843291 
L 114.804766 153.803459 
L 114.835202 153.843291 
L 115.139566 153.922954 
L 115.291748 153.962785 
L 115.565675 154.042448 
L 115.748293 154.122111 
L 116.11353 154.201773 
L 116.296148 154.281436 
L 116.44833 154.241605 
L 116.661384 154.361099 
L 116.752693 154.281436 
L 116.78313 154.321268 
L 116.874439 154.361099 
L 116.904875 154.321268 
L 116.965748 154.361099 
L 117.087493 154.440762 
L 117.209239 154.440762 
L 117.544039 154.520425 
L 117.69622 154.560256 
L 118.061457 154.639919 
L 118.213639 154.67975 
L 118.578875 154.719582 
L 118.731057 154.839076 
L 119.187602 154.918739 
L 119.339784 154.95857 
L 119.46153 155.038233 
L 119.644148 155.117896 
L 119.857202 155.197559 
L 120.100693 155.356884 
L 120.192002 155.317053 
L 120.344184 155.436547 
L 120.496366 155.51621 
L 120.861602 155.834861 
L 120.952911 155.874692 
L 121.165966 156.153512 
L 121.287711 156.233175 
L 122.200802 157.587443 
L 122.71822 158.66289 
L 122.931275 159.101036 
L 123.296511 160.096821 
L 123.326948 160.096821 
L 123.753057 161.331594 
L 124.331348 163.084176 
L 124.635711 164.159624 
L 124.696584 164.358781 
L 125.031384 165.593554 
L 125.274875 166.509677 
L 126.522766 171.807254 
L 126.796693 173.12169 
L 127.314111 175.591235 
L 127.801093 178.060783 
L 127.922839 178.618423 
L 128.318511 180.490497 
L 128.440257 181.048138 
L 129.322911 185.110941 
L 131.149093 191.842448 
L 132.123057 194.112838 
L 132.18393 194.192501 
L 132.366548 194.391658 
L 132.488293 194.47132 
L 132.701348 194.590815 
L 133.218766 194.550983 
L 133.43182 194.272163 
L 133.52313 194.192501 
L 133.827493 193.634861 
L 133.85793 193.634861 
L 134.070984 193.196716 
L 134.10142 193.196716 
L 134.344911 192.678907 
L 135.44062 189.532227 
L 136.20153 186.186389 
L 136.749384 182.760887 
L 136.932002 181.605778 
L 139.001675 164.478275 
L 139.79302 156.273006 
L 141.375711 136.357306 
L 142.89753 115.047506 
L 144.206293 96.207253 
L 145.14982 82.425585 
L 146.062911 69.799031 
L 147.676039 50.002824 
L 147.949966 47.015469 
L 149.16742 35.424531 
L 149.867457 29.967626 
L 150.537057 26.303147 
L 151.084911 23.992922 
L 151.26753 23.634439 
L 151.480584 23.156466 
L 151.541457 23.076803 
L 152.18062 22.359838 
L 152.27193 22.359838 
L 152.393675 22.32 
L 152.637166 22.479326 
L 152.789348 22.558992 
L 153.215457 23.275957 
L 153.641566 24.510733 
L 153.85462 25.307361 
L 154.85902 31.12274 
L 155.346002 34.986386 
L 156.441711 45.979859 
L 157.567857 60.518317 
L 158.176584 69.878697 
L 160.794111 119.827274 
L 162.620293 160.375641 
L 167.520548 266.92464 
L 168.220584 279.312206 
L 170.229384 306.676375 
L 171.172911 315.399449 
L 172.35993 322.489442 
L 172.633857 323.485223 
L 172.877348 324.24203 
L 173.120839 324.640337 
L 173.638257 324.600512 
L 173.820875 324.401355 
L 173.912184 324.321692 
L 174.094802 324.082701 
L 174.186111 324.003035 
L 174.399166 323.564889 
L 174.825275 322.210622 
L 175.251384 320.537709 
L 175.829675 317.829164 
L 177.108002 308.827271 
L 179.664657 280.945293 
L 181.39953 256.847295 
L 182.464802 240.596083 
L 183.864875 216.936234 
L 184.717093 202.278275 
L 188.521639 144.204092 
L 191.626148 105.009993 
L 192.995784 90.152877 
L 194.395857 78.322954 
L 194.852402 74.658462 
L 195.430693 70.316842 
L 196.03942 65.656568 
L 196.678584 60.757306 
L 197.196002 57.491128 
L 197.987348 53.030014 
L 198.230839 52.15372 
L 198.900439 49.206206 
L 199.265675 47.971429 
L 200.087457 45.143393 
L 200.178766 44.864573 
L 200.452693 43.988279 
L 200.909239 43.07216 
L 201.15273 42.594187 
L 201.73102 41.35941 
L 201.761457 41.439076 
L 201.82233 41.35941 
L 202.035384 41.239919 
L 202.126693 41.319585 
L 202.15713 41.279747 
L 202.583239 41.200081 
L 202.82673 40.961102 
L 202.857166 41.000927 
L 203.344148 41.080593 
L 203.678948 41.35941 
L 204.105057 41.439076 
L 204.287675 41.518739 
L 204.378984 41.558564 
L 204.683348 42.076375 
L 204.957275 42.554362 
L 205.139893 42.912844 
L 205.17033 42.912844 
L 205.352948 43.231489 
L 205.687748 43.828963 
L 205.961675 44.506091 
L 206.08342 44.824748 
L 206.813893 46.457832 
L 206.996511 46.816315 
L 207.453057 48.170583 
L 207.544366 48.369737 
L 207.787857 49.12654 
L 208.487893 51.197772 
L 209.035748 53.507987 
L 211.135857 62.191236 
L 212.140257 66.891345 
L 212.505493 68.763414 
L 213.11422 72.507572 
L 213.662075 75.93307 
L 214.54473 82.425585 
L 215.610002 91.666473 
L 217.831857 113.016104 
L 219.018875 125.762152 
L 219.505857 131.219055 
L 220.449384 142.132859 
L 221.118984 150.298296 
L 222.975602 173.44034 
L 228.149784 239.719796 
L 229.793348 257.803255 
L 230.736875 266.605995 
L 232.836984 279.63085 
L 233.415275 282.140232 
L 234.510984 284.729273 
L 234.54142 284.689448 
L 234.571857 284.808939 
L 234.87622 284.729273 
L 235.119711 284.569947 
L 235.363202 284.490294 
L 235.941493 283.574162 
L 236.276293 282.419048 
L 237.158948 278.555403 
L 238.467711 269.274689 
L 239.593857 259.55583 
L 240.385202 251.310733 
L 241.389602 239.679961 
L 246.168111 175.750562 
L 248.511711 140.619265 
L 251.03793 108.993133 
L 251.646657 103.098082 
L 252.346693 96.924218 
L 253.472839 88.918106 
L 253.71633 87.524007 
L 254.203311 85.014629 
L 256.151239 77.805142 
L 256.668657 76.729701 
L 257.155639 76.251721 
L 257.338257 76.172058 
L 257.490439 76.052561 
L 258.06873 76.092392 
L 258.220911 76.211889 
L 258.464402 76.251721 
L 258.494839 76.331387 
L 258.586148 76.291552 
L 258.707893 76.251721 
L 258.829639 76.291552 
L 258.98182 76.251721 
L 259.164439 76.331387 
L 259.40793 76.530541 
L 259.438366 76.490709 
L 259.499239 76.570372 
L 259.712293 76.610203 
L 259.834039 76.689869 
L 259.955784 76.689869 
L 260.168839 76.769526 
L 260.899311 77.566157 
L 260.960184 77.64582 
L 261.173239 77.92464 
L 261.599348 78.601773 
L 261.812402 79.159416 
L 262.877675 82.226431 
L 263.212475 83.461201 
L 263.486402 84.456993 
L 263.912511 86.209574 
L 263.973384 86.368897 
L 264.277748 87.68333 
L 264.856039 90.35204 
L 265.312584 92.622427 
L 265.43433 93.18007 
L 266.590911 99.792079 
L 269.756293 121.181542 
L 270.182402 124.129066 
L 270.486766 126.240131 
L 272.404257 140.420109 
L 274.260875 151.891552 
L 274.38262 152.449192 
L 275.447893 157.467948 
L 275.630511 158.224745 
L 276.087057 160.056989 
L 276.330548 160.93328 
L 276.695784 162.287548 
L 277.06102 163.522321 
L 277.852366 166.191025 
L 278.552402 168.30209 
L 278.917639 169.297874 
L 279.49593 170.532648 
L 279.769857 171.050456 
L 280.195966 171.886916 
L 282.022148 174.157306 
L 282.052584 174.117474 
L 282.08302 174.197136 
L 282.356948 174.396294 
L 282.41782 174.475957 
L 282.691748 174.675114 
L 283.696148 174.595451 
L 283.84833 174.515789 
L 283.970075 174.515789 
L 284.213566 174.356463 
L 284.274439 174.276799 
L 284.578802 174.037811 
L 284.730984 173.958149 
L 285.217966 173.480172 
L 285.278839 173.44034 
L 285.552766 173.002195 
L 285.613639 172.922532 
L 286.222366 171.966579 
L 286.557166 171.369108 
L 286.618039 171.289445 
L 286.983275 170.612311 
L 287.318075 170.01484 
L 287.744184 169.178381 
L 287.805057 169.138549 
L 288.078984 168.700404 
L 289.052948 167.505461 
L 289.083384 167.545293 
L 289.235566 167.46563 
L 289.418184 167.385967 
L 289.87473 167.306305 
L 289.905166 167.226642 
L 289.996475 167.266473 
L 290.331275 167.306305 
L 290.513893 167.505461 
L 291.670475 169.178381 
L 292.827057 172.484387 
L 293.618402 175.15309 
L 294.014075 176.427695 
L 294.379311 177.821795 
L 294.683675 178.897243 
L 295.018475 180.092186 
L 295.292402 181.048138 
L 295.688075 182.56173 
L 296.540293 185.469424 
L 298.549093 190.448349 
L 298.82302 190.966157 
L 299.036075 191.32464 
L 299.127384 191.32464 
L 299.310002 191.523797 
L 300.314402 192.718739 
L 300.436148 192.718739 
L 300.557893 192.75857 
L 300.710075 192.718739 
L 300.92313 192.917896 
L 300.953566 192.878064 
L 301.075311 192.957727 
L 301.197057 193.077221 
L 301.288366 192.997559 
L 301.318802 193.03739 
L 301.410111 193.117053 
L 301.440548 193.03739 
L 301.531857 193.077221 
L 301.623166 193.077221 
L 301.775348 192.957727 
L 302.018839 192.798402 
L 302.110148 192.838233 
L 302.140584 192.798402 
L 302.901493 192.718739 
L 303.084111 192.639076 
L 303.205857 192.559413 
L 303.358039 192.439919 
L 303.388475 192.47975 
L 303.479784 192.439919 
L 303.631966 192.320425 
L 303.723275 192.240762 
L 303.966766 192.081436 
L 303.997202 192.121268 
L 304.058075 192.041605 
L 304.727675 191.005988 
L 305.092911 190.328855 
L 305.397275 189.811046 
L 305.61033 189.412732 
L 306.462548 186.903355 
L 308.53222 178.339603 
L 310.784511 166.0317 
L 311.728039 159.49935 
L 312.580257 153.205988 
L 313.462911 147.111784 
L 313.88902 144.323586 
L 316.871784 125.483333 
L 317.754439 121.619687 
L 318.150111 119.747611 
L 318.33273 118.990815 
L 318.789275 117.15857 
L 320.767639 109.829592 
L 322.989493 104.293027 
L 323.141675 103.934545 
L 323.567784 102.699768 
L 323.750402 102.301461 
L 324.02433 101.624327 
L 324.26782 101.146347 
L 324.846111 99.871745 
L 324.906984 99.792079 
L 325.60702 99.035282 
L 325.789639 98.995451 
L 325.94182 98.875954 
L 326.094002 98.836129 
L 326.27662 98.915785 
L 326.428802 98.875954 
L 326.763602 99.15478 
L 326.885348 99.194605 
L 327.03753 99.393765 
L 328.346293 101.265844 
L 329.685493 105.049824 
L 329.95942 106.165103 
L 330.750766 109.670267 
L 331.146439 111.542342 
L 331.785602 114.489866 
L 333.033493 120.504408 
L 333.155239 121.062047 
L 335.103166 131.816526 
L 335.620584 134.525061 
L 335.955384 136.237811 
L 336.442366 138.787021 
L 336.564111 139.384491 
L 336.959784 141.376063 
L 340.551275 159.618844 
L 340.612148 159.857832 
L 343.381857 170.33349 
L 343.503602 170.652143 
L 345.390657 175.352247 
L 345.421093 175.352247 
L 345.664584 175.909888 
L 345.938511 176.427695 
L 346.395057 177.343817 
L 346.577675 177.7023 
L 346.821166 178.25994 
L 347.003784 178.618423 
L 347.247275 179.215894 
L 347.308148 179.295556 
L 347.764693 180.052354 
L 348.008184 180.410837 
L 348.677784 181.207463 
L 348.70822 181.167631 
L 348.79953 181.207463 
L 348.921275 181.326959 
L 348.951711 181.287127 
L 349.012584 181.366788 
L 349.103893 181.446453 
L 349.438693 181.725271 
L 349.621311 181.804935 
L 349.864802 181.964261 
L 350.199602 182.043922 
L 350.47353 182.282912 
L 350.503966 182.20325 
L 350.564839 182.282912 
L 350.71702 182.362576 
L 350.930075 182.482069 
L 351.964911 182.402405 
L 352.14753 182.322744 
L 352.238839 182.243079 
L 352.48233 182.083754 
L 352.573639 182.004093 
L 352.878002 181.725271 
L 352.969311 181.725271 
L 353.15193 181.526114 
L 353.304111 181.446453 
L 353.791093 180.968477 
L 353.882402 180.888812 
L 354.217202 180.609994 
L 354.39982 180.53033 
L 354.704184 180.29134 
L 354.73462 180.331172 
L 354.795493 180.251511 
L 354.978111 180.171847 
L 355.06942 180.132015 
L 355.191166 180.052354 
L 355.343348 180.012522 
L 355.434657 179.932859 
L 355.465093 179.97269 
L 355.678148 179.932859 
L 355.799893 179.853196 
L 356.986911 179.773534 
L 357.108657 179.773534 
L 357.260839 179.813364 
L 357.382584 179.773534 
L 357.534766 179.813364 
L 358.326111 179.773534 
L 358.356548 179.693871 
L 358.447857 179.733701 
L 358.782657 179.654039 
L 358.934839 179.614208 
L 359.117457 179.534544 
L 359.330511 179.415051 
L 359.51313 179.335388 
L 359.695748 179.255726 
L 359.969675 179.215894 
L 360.060984 179.136231 
L 360.09142 179.176063 
L 360.365348 178.976906 
L 360.487093 178.897243 
L 361.156693 178.180277 
L 361.217566 178.100615 
L 362.19153 176.666684 
L 362.495893 176.148876 
L 362.891566 175.511573 
L 363.074184 175.073427 
L 363.135057 174.993765 
L 363.591602 174.077643 
L 363.895966 173.520003 
L 364.139457 173.002195 
L 364.565566 172.165736 
L 365.265602 171.090288 
L 365.509093 170.731805 
L 365.569966 170.691973 
L 365.78302 170.413155 
L 365.843893 170.33349 
L 366.78742 169.258044 
L 366.848293 169.178381 
L 367.152657 168.859729 
L 367.183093 168.939391 
L 367.243966 168.819898 
L 367.79182 168.262258 
L 367.88313 168.262258 
L 368.035311 168.102933 
L 368.157057 168.102933 
L 368.339675 167.983438 
L 368.430984 167.983438 
L 368.88753 167.545293 
L 368.978839 167.46563 
L 369.22233 167.266473 
L 369.344075 167.266473 
L 369.55713 167.186811 
L 369.952802 166.788497 
L 369.983239 166.828328 
L 370.044111 166.748665 
L 370.56153 166.230856 
L 370.652839 166.151194 
L 371.931166 164.637601 
L 372.022475 164.557938 
L 373.879093 162.008728 
L 374.092148 161.610414 
L 374.396511 161.052775 
L 374.883493 160.017158 
L 374.944366 159.937495 
L 377.561893 152.807674 
L 378.079311 151.214418 
L 379.114148 148.227063 
L 379.662002 146.43465 
L 379.692439 146.43465 
L 379.966366 145.518528 
L 380.301166 144.363417 
L 380.666402 143.009149 
L 380.757711 142.73033 
L 382.096911 137.870899 
L 382.157784 137.671742 
L 382.918693 134.883544 
L 382.918693 134.883544 
" style="fill:none;stroke:#0000ff;stroke-linecap:square;stroke-width:1.5;"/>
   </g>
   <g id="line2d_24">
    <path clip-path="url(#pd6f48d336c)" d="M 78.555057 153.334405 
L 78.707239 153.35432 
L 94.229784 153.433983 
L 94.381966 153.453899 
L 100.347493 153.553478 
L 100.530111 153.63314 
L 100.743166 153.732719 
L 101.71713 154.489516 
L 102.082366 154.967492 
L 102.660657 155.90353 
L 103.117202 156.799737 
L 103.665057 158.094257 
L 105.612984 164.84568 
L 106.343457 168.111855 
L 106.891311 170.700895 
L 110.239311 185.538093 
L 111.213275 188.346207 
L 111.730693 189.401739 
L 112.308984 190.297945 
L 112.522039 190.55685 
L 112.856839 190.855585 
L 113.00902 190.875501 
L 113.404693 190.775922 
L 114.10473 190.198367 
L 115.01782 188.186881 
L 115.565675 186.474132 
L 116.083093 184.422812 
L 117.513602 176.356955 
L 119.613711 160.464226 
L 122.109493 138.298051 
L 125.244439 110.575395 
L 126.279275 103.923551 
L 127.222802 99.024289 
L 127.618475 97.032716 
L 128.257639 94.264436 
L 128.866366 91.934299 
L 129.048984 91.356744 
L 129.383784 90.301215 
L 130.08382 89.166014 
L 130.144693 89.146101 
L 130.327311 88.927029 
L 130.601239 88.62829 
L 130.966475 88.329558 
L 131.17953 88.309639 
L 131.84913 88.210063 
L 132.42742 87.612592 
L 132.670911 87.652427 
L 132.85353 87.752002 
L 133.401384 87.990991 
L 133.553566 88.01091 
L 133.888366 88.110485 
L 134.19273 88.429136 
L 134.892766 89.166014 
L 135.136257 89.225767 
L 135.288439 89.24568 
L 135.714548 89.643994 
L 136.658075 90.699529 
L 136.840693 90.799105 
L 137.053748 91.038093 
L 138.423384 93.965701 
L 138.849493 95.698367 
L 142.319239 114.39921 
L 144.419348 130.311854 
L 147.889093 158.432824 
L 151.419711 187.529664 
L 152.667602 196.471813 
L 154.676402 206.449576 
L 155.61993 209.17803 
L 156.19822 210.094155 
L 156.411275 210.353056 
L 156.62433 210.552216 
L 157.050439 210.631873 
L 157.20262 210.651792 
L 157.750475 210.572129 
L 158.785311 209.03862 
L 159.576657 207.724184 
L 159.820148 207.246207 
L 161.798511 201.769389 
L 162.285493 200.295627 
L 162.924657 197.845996 
L 166.150911 182.570654 
L 166.607457 180.519336 
L 167.764039 175.739568 
L 168.646693 173.708166 
L 169.620657 172.572972 
L 169.772839 172.553056 
L 170.59462 172.652634 
L 170.807675 172.911538 
L 171.112039 173.469179 
L 171.659893 174.62429 
L 171.751202 174.783615 
L 172.390366 176.695522 
L 172.816475 178.368441 
L 173.912184 183.108378 
L 175.099202 189.023341 
L 178.325457 210.850945 
L 178.96462 215.411644 
L 180.63862 223.636828 
L 181.247348 225.52882 
L 182.06913 227.839038 
L 182.556111 228.814911 
L 183.195275 229.511963 
L 183.682257 229.073815 
L 184.07793 228.376762 
L 184.869275 226.026713 
L 185.32582 223.81607 
L 185.873675 220.390572 
L 186.360657 216.526926 
L 187.578111 204.35843 
L 188.734693 190.27803 
L 190.134766 170.501739 
L 191.68702 144.412171 
L 192.934911 124.317228 
L 195.79593 82.912487 
L 197.591675 64.131978 
L 199.204802 51.346101 
L 200.087457 45.291735 
L 200.72662 41.806478 
L 201.548402 38.540306 
L 201.883202 37.783503 
L 202.187566 37.20596 
L 202.461493 36.727974 
L 202.522366 36.648311 
L 202.796293 36.469076 
L 202.978911 36.449157 
L 203.435457 36.628402 
L 203.922439 36.727974 
L 204.226802 37.046631 
L 204.774657 38.361061 
L 205.139893 39.595835 
L 205.626875 41.925981 
L 210.709748 79.307745 
L 219.81022 149.92882 
L 221.24073 159.01038 
L 223.066911 170.242835 
L 223.49302 172.692466 
L 224.527857 178.74684 
L 226.323602 188.664858 
L 228.393275 197.646839 
L 230.097711 202.844837 
L 233.87182 210.47255 
L 234.389239 211.786987 
L 235.88062 215.391725 
L 236.702402 216.765912 
L 237.493748 217.980769 
L 237.828548 218.418915 
L 237.919857 218.518493 
L 238.22422 218.837145 
L 238.55902 219.115961 
L 238.680766 219.155796 
L 239.015566 219.255371 
L 239.198184 219.255371 
L 240.780875 219.354956 
L 241.32873 219.593941 
L 241.602657 219.69352 
L 242.028766 219.872761 
L 242.150511 219.872761 
L 242.363566 219.992255 
L 242.57662 220.091834 
L 243.428839 220.768968 
L 244.433239 222.501637 
L 244.67673 222.999529 
L 245.742002 225.488989 
L 245.92462 225.86739 
L 246.289857 226.683934 
L 247.568184 228.954321 
L 248.785639 230.368338 
L 249.181311 230.447995 
L 249.36393 230.507745 
L 249.516111 230.527661 
L 249.759602 230.567492 
L 249.911784 230.507745 
L 250.03353 230.467914 
L 251.220548 229.59162 
L 252.529311 226.783509 
L 253.138039 224.43346 
L 255.116402 213.519652 
L 256.333857 203.980032 
L 257.97742 187.927977 
L 260.503639 156.8794 
L 262.055893 135.131454 
L 265.830002 82.374763 
L 267.321384 64.311219 
L 268.508402 52.999108 
L 269.45193 45.909115 
L 269.878039 43.379818 
L 270.45633 40.930184 
L 271.095493 38.858951 
L 272.282511 37.484777 
L 272.46513 37.484777 
L 272.952111 37.922925 
L 273.37822 38.639878 
L 274.38262 41.54758 
L 275.234839 45.968862 
L 276.969711 58.03778 
L 278.004548 67.039674 
L 279.435057 81.159905 
L 280.926439 96.873393 
L 284.122257 131.188145 
L 286.77022 157.775606 
L 291.000875 195.535775 
L 292.46182 206.150843 
L 293.740148 213.818385 
L 294.348875 216.44726 
L 295.261966 219.593941 
L 296.935966 223.67666 
L 297.544693 224.632613 
L 298.15342 225.25 
L 298.549093 225.409323 
L 298.853457 225.329666 
L 299.218693 225.230081 
L 299.401311 225.150425 
L 299.644802 225.070759 
L 300.83182 223.338093 
L 301.440548 221.904159 
L 302.50582 218.817232 
L 303.358039 215.053161 
L 305.27553 201.789305 
L 309.171384 172.07508 
L 310.175784 166.219863 
L 311.088875 161.479926 
L 315.471711 141.902793 
L 318.424039 132.622076 
L 318.637093 132.164015 
L 322.411202 122.564647 
L 322.563384 122.206165 
L 323.111239 121.07097 
L 323.385166 120.533246 
L 323.993893 119.119231 
L 324.389566 118.203109 
L 327.524511 110.296576 
L 329.928984 105.815543 
L 330.111602 105.59647 
L 330.38553 105.297731 
L 330.781202 104.959168 
L 331.420366 104.640517 
L 331.602984 104.640517 
L 331.816039 104.600685 
L 331.998657 104.660432 
L 332.546511 104.899424 
L 332.63782 104.939249 
L 333.520475 105.636302 
L 334.433566 107.010485 
L 335.103166 108.56391 
L 335.955384 111.093204 
L 338.481602 119.716702 
L 340.307784 128.579189 
L 342.864439 144.292676 
L 344.599311 156.341676 
L 349.682184 195.376449 
L 350.71702 202.028293 
L 352.81713 213.758641 
L 354.947675 221.705005 
L 355.221602 222.461805 
L 355.799893 223.975392 
L 356.226002 224.791942 
L 356.49993 225.090675 
L 356.895602 225.25 
L 357.07822 225.25 
L 357.260839 225.269916 
L 357.443457 225.210169 
L 357.626075 225.110594 
L 357.960875 224.772023 
L 358.326111 224.274131 
L 358.50873 224.035142 
L 358.965275 223.258427 
L 359.543566 221.485933 
L 360.821893 215.15274 
L 361.552366 210.671704 
L 362.648075 203.561802 
L 363.622039 196.491728 
L 365.752584 178.886249 
L 368.339675 155.963277 
L 371.322439 127.782562 
L 372.387711 119.019652 
L 373.209493 112.925448 
L 374.761748 102.509533 
L 376.040075 96.375501 
L 377.805384 89.882979 
L 378.26193 88.707956 
L 378.322802 88.608377 
L 378.59673 88.050741 
L 379.631566 86.875708 
L 380.027239 86.736298 
L 380.788148 86.815964 
L 381.18382 87.154534 
L 381.27513 87.234191 
L 382.218657 88.648209 
L 382.85782 90.022389 
L 382.918693 90.161805 
L 382.918693 90.161805 
" style="fill:none;stroke:#ff0000;stroke-linecap:square;stroke-width:1.5;"/>
   </g>
   <g id="line2d_25">
    <path clip-path="url(#pd6f48d336c)" d="M 123.966111 161.968897 
" style="fill:none;stroke:#ffffff;stroke-linecap:square;stroke-width:1.5;"/>
    <defs>
     <path d="M 0 -5 
L -1.12257 -1.545085 
L -4.755283 -1.545085 
L -1.816356 0.59017 
L -2.938926 4.045085 
L -0 1.90983 
L 2.938926 4.045085 
L 1.816356 0.59017 
L 4.755283 -1.545085 
L 1.12257 -1.545085 
z
" id="md50a42fc92" style="stroke:#ffffff;stroke-linejoin:bevel;"/>
    </defs>
    <g clip-path="url(#pd6f48d336c)">
     <use style="fill:#0000ff;stroke:#ffffff;stroke-linejoin:bevel;" x="123.966111" xlink:href="#md50a42fc92" y="161.968897"/>
    </g>
   </g>
   <g id="line2d_26">
    <path clip-path="url(#pd6f48d336c)" d="M 104.091166 159.289199 
" style="fill:none;stroke:#ffffff;stroke-linecap:square;stroke-width:1.5;"/>
    <defs>
     <path d="M 0 -5 
L -1.12257 -1.545085 
L -4.755283 -1.545085 
L -1.816356 0.59017 
L -2.938926 4.045085 
L -0 1.90983 
L 2.938926 4.045085 
L 1.816356 0.59017 
L 4.755283 -1.545085 
L 1.12257 -1.545085 
z
" id="m0f5a038011" style="stroke:#ffffff;stroke-linejoin:bevel;"/>
    </defs>
    <g clip-path="url(#pd6f48d336c)">
     <use style="fill:#ff0000;stroke:#ffffff;stroke-linejoin:bevel;" x="104.091166" xlink:href="#m0f5a038011" y="159.289199"/>
    </g>
   </g>
   <g id="patch_3">
    <path d="M 63.336875 339.84 
L 63.336875 7.2 
" style="fill:none;stroke:#000000;stroke-linecap:square;stroke-linejoin:miter;stroke-width:0.8;"/>
   </g>
   <g id="patch_4">
    <path d="M 398.136875 339.84 
L 398.136875 7.2 
" style="fill:none;stroke:#000000;stroke-linecap:square;stroke-linejoin:miter;stroke-width:0.8;"/>
   </g>
   <g id="patch_5">
    <path d="M 63.336875 339.84 
L 398.136875 339.84 
" style="fill:none;stroke:#000000;stroke-linecap:square;stroke-linejoin:miter;stroke-width:0.8;"/>
   </g>
   <g id="patch_6">
    <path d="M 63.336875 7.2 
L 398.136875 7.2 
" style="fill:none;stroke:#000000;stroke-linecap:square;stroke-linejoin:miter;stroke-width:0.8;"/>
   </g>
   <g id="text_14">
    <g id="patch_7">
     <path d="M 75.036875 331.242688 
L 166.79375 331.242688 
L 166.79375 293.760312 
L 75.036875 293.760312 
z
" style="fill:#ffffff;stroke:#000000;stroke-linejoin:miter;stroke-width:0.75;"/>
    </g>
    <!-- Auto_00134 -->
    <g transform="translate(80.076875 308.521562)scale(0.14 -0.14)">
     <defs>
      <path d="M 2928 1419 
L 1288 1419 
L 1000 750 
Q 894 503 894 381 
Q 894 284 986 211 
Q 1078 138 1384 116 
L 1384 0 
L 50 0 
L 50 116 
Q 316 163 394 238 
Q 553 388 747 847 
L 2238 4334 
L 2347 4334 
L 3822 809 
Q 4000 384 4145 257 
Q 4291 131 4550 116 
L 4550 0 
L 2878 0 
L 2878 116 
Q 3131 128 3220 200 
Q 3309 272 3309 375 
Q 3309 513 3184 809 
L 2928 1419 
z
M 2841 1650 
L 2122 3363 
L 1384 1650 
L 2841 1650 
z
" id="TimesNewRomanPSMT-41" transform="scale(0.015625)"/>
      <path d="M 2709 2863 
L 2709 1128 
Q 2709 631 2732 520 
Q 2756 409 2807 365 
Q 2859 322 2928 322 
Q 3025 322 3147 375 
L 3191 266 
L 2334 -88 
L 2194 -88 
L 2194 519 
Q 1825 119 1631 15 
Q 1438 -88 1222 -88 
Q 981 -88 804 51 
Q 628 191 559 409 
Q 491 628 491 1028 
L 491 2306 
Q 491 2509 447 2587 
Q 403 2666 317 2708 
Q 231 2750 6 2747 
L 6 2863 
L 1009 2863 
L 1009 947 
Q 1009 547 1148 422 
Q 1288 297 1484 297 
Q 1619 297 1789 381 
Q 1959 466 2194 703 
L 2194 2325 
Q 2194 2569 2105 2655 
Q 2016 2741 1734 2747 
L 1734 2863 
L 2709 2863 
z
" id="TimesNewRomanPSMT-75" transform="scale(0.015625)"/>
      <path d="M 3256 -1381 
L -53 -1381 
L -53 -1119 
L 3256 -1119 
L 3256 -1381 
z
" id="TimesNewRomanPSMT-5f" transform="scale(0.015625)"/>
     </defs>
     <use xlink:href="#TimesNewRomanPSMT-41"/>
     <use x="72.216797" xlink:href="#TimesNewRomanPSMT-75"/>
     <use x="122.216797" xlink:href="#TimesNewRomanPSMT-74"/>
     <use x="150" xlink:href="#TimesNewRomanPSMT-6f"/>
     <use x="200" xlink:href="#TimesNewRomanPSMT-5f"/>
     <use x="250" xlink:href="#TimesNewRomanPSMT-30"/>
     <use x="300" xlink:href="#TimesNewRomanPSMT-30"/>
     <use x="350" xlink:href="#TimesNewRomanPSMT-31"/>
     <use x="400" xlink:href="#TimesNewRomanPSMT-33"/>
     <use x="450" xlink:href="#TimesNewRomanPSMT-34"/>
    </g>
    <!-- Vs: 306.09m/s -->
    <g transform="translate(80.076875 323.208)scale(0.14 -0.14)">
     <defs>
      <path d="M 903 2950 
Q 1047 2950 1148 2848 
Q 1250 2747 1250 2603 
Q 1250 2459 1148 2357 
Q 1047 2256 903 2256 
Q 759 2256 657 2357 
Q 556 2459 556 2603 
Q 556 2747 657 2848 
Q 759 2950 903 2950 
z
M 897 609 
Q 1044 609 1145 506 
Q 1247 403 1247 259 
Q 1247 116 1144 14 
Q 1041 -88 897 -88 
Q 753 -88 651 14 
Q 550 116 550 259 
Q 550 403 651 506 
Q 753 609 897 609 
z
" id="TimesNewRomanPSMT-3a" transform="scale(0.015625)"/>
      <path d="M 2869 4325 
L 2869 4209 
Q 2456 4169 2195 4045 
Q 1934 3922 1679 3669 
Q 1425 3416 1258 3105 
Q 1091 2794 978 2366 
Q 1428 2675 1881 2675 
Q 2316 2675 2634 2325 
Q 2953 1975 2953 1425 
Q 2953 894 2631 456 
Q 2244 -75 1606 -75 
Q 1172 -75 869 213 
Q 275 772 275 1663 
Q 275 2231 503 2743 
Q 731 3256 1154 3653 
Q 1578 4050 1965 4187 
Q 2353 4325 2688 4325 
L 2869 4325 
z
M 925 2138 
Q 869 1716 869 1456 
Q 869 1156 980 804 
Q 1091 453 1309 247 
Q 1469 100 1697 100 
Q 1969 100 2183 356 
Q 2397 613 2397 1088 
Q 2397 1622 2184 2012 
Q 1972 2403 1581 2403 
Q 1463 2403 1327 2353 
Q 1191 2303 925 2138 
z
" id="TimesNewRomanPSMT-36" transform="scale(0.015625)"/>
      <path d="M 338 -88 
L 338 28 
Q 744 34 1094 217 
Q 1444 400 1770 856 
Q 2097 1313 2225 1859 
Q 1734 1544 1338 1544 
Q 891 1544 572 1889 
Q 253 2234 253 2806 
Q 253 3363 572 3797 
Q 956 4325 1575 4325 
Q 2097 4325 2469 3894 
Q 2925 3359 2925 2575 
Q 2925 1869 2578 1258 
Q 2231 647 1613 244 
Q 1109 -88 516 -88 
L 338 -88 
z
M 2275 2091 
Q 2331 2497 2331 2741 
Q 2331 3044 2228 3395 
Q 2125 3747 1936 3934 
Q 1747 4122 1506 4122 
Q 1228 4122 1018 3872 
Q 809 3622 809 3128 
Q 809 2469 1088 2097 
Q 1291 1828 1588 1828 
Q 1731 1828 1928 1897 
Q 2125 1966 2275 2091 
z
" id="TimesNewRomanPSMT-39" transform="scale(0.015625)"/>
      <path d="M 1794 4444 
L 259 -88 
L 9 -88 
L 1544 4444 
L 1794 4444 
z
" id="TimesNewRomanPSMT-2f" transform="scale(0.015625)"/>
     </defs>
     <use xlink:href="#TimesNewRomanPSMT-56"/>
     <use x="72.216797" xlink:href="#TimesNewRomanPSMT-73"/>
     <use x="111.132812" xlink:href="#TimesNewRomanPSMT-3a"/>
     <use x="138.916016" xlink:href="#TimesNewRomanPSMT-20"/>
     <use x="163.916016" xlink:href="#TimesNewRomanPSMT-33"/>
     <use x="213.916016" xlink:href="#TimesNewRomanPSMT-30"/>
     <use x="263.916016" xlink:href="#TimesNewRomanPSMT-36"/>
     <use x="313.916016" xlink:href="#TimesNewRomanPSMT-2e"/>
     <use x="338.916016" xlink:href="#TimesNewRomanPSMT-30"/>
     <use x="388.916016" xlink:href="#TimesNewRomanPSMT-39"/>
     <use x="438.916016" xlink:href="#TimesNewRomanPSMT-6d"/>
     <use x="516.699219" xlink:href="#TimesNewRomanPSMT-2f"/>
     <use x="544.482422" xlink:href="#TimesNewRomanPSMT-73"/>
    </g>
   </g>
  </g>
 </g>
 <defs>
  <clipPath id="pd6f48d336c">
   <rect height="332.64" width="334.8" x="63.336875" y="7.2"/>
  </clipPath>
 </defs>
</svg>
