<?xml version="1.0" encoding="utf-8" standalone="no"?>
<!DOCTYPE svg PUBLIC "-//W3C//DTD SVG 1.1//EN"
  "http://www.w3.org/Graphics/SVG/1.1/DTD/svg11.dtd">
<svg height="383.689115pt" version="1.1" viewBox="0 0 421.086875 383.689115" width="421.086875pt" xmlns="http://www.w3.org/2000/svg" xmlns:xlink="http://www.w3.org/1999/xlink">
 <metadata>
  <rdf:RDF xmlns:cc="http://creativecommons.org/ns#" xmlns:dc="http://purl.org/dc/elements/1.1/" xmlns:rdf="http://www.w3.org/1999/02/22-rdf-syntax-ns#">
   <cc:Work>
    <dc:type rdf:resource="http://purl.org/dc/dcmitype/StillImage"/>
    <dc:date>2021-06-11T14:39:38.019497</dc:date>
    <dc:format>image/svg+xml</dc:format>
    <dc:creator>
     <cc:Agent>
      <dc:title>Matplotlib v3.4.2, https://matplotlib.org/</dc:title>
     </cc:Agent>
    </dc:creator>
   </cc:Work>
  </rdf:RDF>
 </metadata>
 <defs>
  <style type="text/css">*{stroke-linecap:butt;stroke-linejoin:round;}</style>
 </defs>
 <g id="figure_1">
  <g id="patch_1">
   <path d="M 0 383.689115 
L 421.086875 383.689115 
L 421.086875 0 
L 0 0 
z
" style="fill:#ffffff;"/>
  </g>
  <g id="axes_1">
   <g id="patch_2">
    <path d="M 63.336875 340.05724 
L 398.136875 340.05724 
L 398.136875 7.41724 
L 63.336875 7.41724 
z
" style="fill:#ffffff;"/>
   </g>
   <g id="matplotlib.axis_1">
    <g id="xtick_1">
     <g id="line2d_1">
      <path clip-path="url(#pddbf57bb04)" d="M 93.773239 340.05724 
L 93.773239 7.41724 
" style="fill:none;stroke:#000000;stroke-dasharray:0.5,0.825;stroke-dashoffset:0;stroke-width:0.5;"/>
     </g>
     <g id="line2d_2">
      <defs>
       <path d="M 0 0 
L 0 3.5 
" id="mad0eebc81c" style="stroke:#000000;stroke-width:0.8;"/>
      </defs>
      <g>
       <use style="stroke:#000000;stroke-width:0.8;" x="93.773239" xlink:href="#mad0eebc81c" y="340.05724"/>
      </g>
     </g>
     <g id="text_1">
      <!-- 0.000 -->
      <g transform="translate(78.023239 356.77849)scale(0.14 -0.14)">
       <defs>
        <path d="M 231 2094 
Q 231 2819 450 3342 
Q 669 3866 1031 4122 
Q 1313 4325 1613 4325 
Q 2100 4325 2488 3828 
Q 2972 3213 2972 2159 
Q 2972 1422 2759 906 
Q 2547 391 2217 158 
Q 1888 -75 1581 -75 
Q 975 -75 572 641 
Q 231 1244 231 2094 
z
M 844 2016 
Q 844 1141 1059 588 
Q 1238 122 1591 122 
Q 1759 122 1940 273 
Q 2122 425 2216 781 
Q 2359 1319 2359 2297 
Q 2359 3022 2209 3506 
Q 2097 3866 1919 4016 
Q 1791 4119 1609 4119 
Q 1397 4119 1231 3928 
Q 1006 3669 925 3112 
Q 844 2556 844 2016 
z
" id="TimesNewRomanPSMT-30" transform="scale(0.015625)"/>
        <path d="M 800 606 
Q 947 606 1047 504 
Q 1147 403 1147 259 
Q 1147 116 1045 14 
Q 944 -88 800 -88 
Q 656 -88 554 14 
Q 453 116 453 259 
Q 453 406 554 506 
Q 656 606 800 606 
z
" id="TimesNewRomanPSMT-2e" transform="scale(0.015625)"/>
       </defs>
       <use xlink:href="#TimesNewRomanPSMT-30"/>
       <use x="50" xlink:href="#TimesNewRomanPSMT-2e"/>
       <use x="75" xlink:href="#TimesNewRomanPSMT-30"/>
       <use x="125" xlink:href="#TimesNewRomanPSMT-30"/>
       <use x="175" xlink:href="#TimesNewRomanPSMT-30"/>
      </g>
     </g>
    </g>
    <g id="xtick_2">
     <g id="line2d_3">
      <path clip-path="url(#pddbf57bb04)" d="M 154.645966 340.05724 
L 154.645966 7.41724 
" style="fill:none;stroke:#000000;stroke-dasharray:0.5,0.825;stroke-dashoffset:0;stroke-width:0.5;"/>
     </g>
     <g id="line2d_4">
      <g>
       <use style="stroke:#000000;stroke-width:0.8;" x="154.645966" xlink:href="#mad0eebc81c" y="340.05724"/>
      </g>
     </g>
     <g id="text_2">
      <!-- 0.001 -->
      <g transform="translate(138.895966 356.77849)scale(0.14 -0.14)">
       <defs>
        <path d="M 750 3822 
L 1781 4325 
L 1884 4325 
L 1884 747 
Q 1884 391 1914 303 
Q 1944 216 2037 169 
Q 2131 122 2419 116 
L 2419 0 
L 825 0 
L 825 116 
Q 1125 122 1212 167 
Q 1300 213 1334 289 
Q 1369 366 1369 747 
L 1369 3034 
Q 1369 3497 1338 3628 
Q 1316 3728 1258 3775 
Q 1200 3822 1119 3822 
Q 1003 3822 797 3725 
L 750 3822 
z
" id="TimesNewRomanPSMT-31" transform="scale(0.015625)"/>
       </defs>
       <use xlink:href="#TimesNewRomanPSMT-30"/>
       <use x="50" xlink:href="#TimesNewRomanPSMT-2e"/>
       <use x="75" xlink:href="#TimesNewRomanPSMT-30"/>
       <use x="125" xlink:href="#TimesNewRomanPSMT-30"/>
       <use x="175" xlink:href="#TimesNewRomanPSMT-31"/>
      </g>
     </g>
    </g>
    <g id="xtick_3">
     <g id="line2d_5">
      <path clip-path="url(#pddbf57bb04)" d="M 215.518693 340.05724 
L 215.518693 7.41724 
" style="fill:none;stroke:#000000;stroke-dasharray:0.5,0.825;stroke-dashoffset:0;stroke-width:0.5;"/>
     </g>
     <g id="line2d_6">
      <g>
       <use style="stroke:#000000;stroke-width:0.8;" x="215.518693" xlink:href="#mad0eebc81c" y="340.05724"/>
      </g>
     </g>
     <g id="text_3">
      <!-- 0.002 -->
      <g transform="translate(199.768693 356.77849)scale(0.14 -0.14)">
       <defs>
        <path d="M 2934 816 
L 2638 0 
L 138 0 
L 138 116 
Q 1241 1122 1691 1759 
Q 2141 2397 2141 2925 
Q 2141 3328 1894 3587 
Q 1647 3847 1303 3847 
Q 991 3847 742 3664 
Q 494 3481 375 3128 
L 259 3128 
Q 338 3706 661 4015 
Q 984 4325 1469 4325 
Q 1984 4325 2329 3994 
Q 2675 3663 2675 3213 
Q 2675 2891 2525 2569 
Q 2294 2063 1775 1497 
Q 997 647 803 472 
L 1909 472 
Q 2247 472 2383 497 
Q 2519 522 2628 598 
Q 2738 675 2819 816 
L 2934 816 
z
" id="TimesNewRomanPSMT-32" transform="scale(0.015625)"/>
       </defs>
       <use xlink:href="#TimesNewRomanPSMT-30"/>
       <use x="50" xlink:href="#TimesNewRomanPSMT-2e"/>
       <use x="75" xlink:href="#TimesNewRomanPSMT-30"/>
       <use x="125" xlink:href="#TimesNewRomanPSMT-30"/>
       <use x="175" xlink:href="#TimesNewRomanPSMT-32"/>
      </g>
     </g>
    </g>
    <g id="xtick_4">
     <g id="line2d_7">
      <path clip-path="url(#pddbf57bb04)" d="M 276.39142 340.05724 
L 276.39142 7.41724 
" style="fill:none;stroke:#000000;stroke-dasharray:0.5,0.825;stroke-dashoffset:0;stroke-width:0.5;"/>
     </g>
     <g id="line2d_8">
      <g>
       <use style="stroke:#000000;stroke-width:0.8;" x="276.39142" xlink:href="#mad0eebc81c" y="340.05724"/>
      </g>
     </g>
     <g id="text_4">
      <!-- 0.003 -->
      <g transform="translate(260.64142 356.77849)scale(0.14 -0.14)">
       <defs>
        <path d="M 325 3431 
Q 506 3859 782 4092 
Q 1059 4325 1472 4325 
Q 1981 4325 2253 3994 
Q 2459 3747 2459 3466 
Q 2459 3003 1878 2509 
Q 2269 2356 2469 2072 
Q 2669 1788 2669 1403 
Q 2669 853 2319 450 
Q 1863 -75 997 -75 
Q 569 -75 414 31 
Q 259 138 259 259 
Q 259 350 332 419 
Q 406 488 509 488 
Q 588 488 669 463 
Q 722 447 909 348 
Q 1097 250 1169 231 
Q 1284 197 1416 197 
Q 1734 197 1970 444 
Q 2206 691 2206 1028 
Q 2206 1275 2097 1509 
Q 2016 1684 1919 1775 
Q 1784 1900 1550 2001 
Q 1316 2103 1072 2103 
L 972 2103 
L 972 2197 
Q 1219 2228 1467 2375 
Q 1716 2522 1828 2728 
Q 1941 2934 1941 3181 
Q 1941 3503 1739 3701 
Q 1538 3900 1238 3900 
Q 753 3900 428 3381 
L 325 3431 
z
" id="TimesNewRomanPSMT-33" transform="scale(0.015625)"/>
       </defs>
       <use xlink:href="#TimesNewRomanPSMT-30"/>
       <use x="50" xlink:href="#TimesNewRomanPSMT-2e"/>
       <use x="75" xlink:href="#TimesNewRomanPSMT-30"/>
       <use x="125" xlink:href="#TimesNewRomanPSMT-30"/>
       <use x="175" xlink:href="#TimesNewRomanPSMT-33"/>
      </g>
     </g>
    </g>
    <g id="xtick_5">
     <g id="line2d_9">
      <path clip-path="url(#pddbf57bb04)" d="M 337.264148 340.05724 
L 337.264148 7.41724 
" style="fill:none;stroke:#000000;stroke-dasharray:0.5,0.825;stroke-dashoffset:0;stroke-width:0.5;"/>
     </g>
     <g id="line2d_10">
      <g>
       <use style="stroke:#000000;stroke-width:0.8;" x="337.264148" xlink:href="#mad0eebc81c" y="340.05724"/>
      </g>
     </g>
     <g id="text_5">
      <!-- 0.004 -->
      <g transform="translate(321.514148 356.77849)scale(0.14 -0.14)">
       <defs>
        <path d="M 2978 1563 
L 2978 1119 
L 2409 1119 
L 2409 0 
L 1894 0 
L 1894 1119 
L 100 1119 
L 100 1519 
L 2066 4325 
L 2409 4325 
L 2409 1563 
L 2978 1563 
z
M 1894 1563 
L 1894 3666 
L 406 1563 
L 1894 1563 
z
" id="TimesNewRomanPSMT-34" transform="scale(0.015625)"/>
       </defs>
       <use xlink:href="#TimesNewRomanPSMT-30"/>
       <use x="50" xlink:href="#TimesNewRomanPSMT-2e"/>
       <use x="75" xlink:href="#TimesNewRomanPSMT-30"/>
       <use x="125" xlink:href="#TimesNewRomanPSMT-30"/>
       <use x="175" xlink:href="#TimesNewRomanPSMT-34"/>
      </g>
     </g>
    </g>
    <g id="xtick_6">
     <g id="line2d_11">
      <path clip-path="url(#pddbf57bb04)" d="M 398.136875 340.05724 
L 398.136875 7.41724 
" style="fill:none;stroke:#000000;stroke-dasharray:0.5,0.825;stroke-dashoffset:0;stroke-width:0.5;"/>
     </g>
     <g id="line2d_12">
      <g>
       <use style="stroke:#000000;stroke-width:0.8;" x="398.136875" xlink:href="#mad0eebc81c" y="340.05724"/>
      </g>
     </g>
     <g id="text_6">
      <!-- 0.005 -->
      <g transform="translate(382.386875 356.77849)scale(0.14 -0.14)">
       <defs>
        <path d="M 2778 4238 
L 2534 3706 
L 1259 3706 
L 981 3138 
Q 1809 3016 2294 2522 
Q 2709 2097 2709 1522 
Q 2709 1188 2573 903 
Q 2438 619 2231 419 
Q 2025 219 1772 97 
Q 1413 -75 1034 -75 
Q 653 -75 479 54 
Q 306 184 306 341 
Q 306 428 378 495 
Q 450 563 559 563 
Q 641 563 702 538 
Q 763 513 909 409 
Q 1144 247 1384 247 
Q 1750 247 2026 523 
Q 2303 800 2303 1197 
Q 2303 1581 2056 1914 
Q 1809 2247 1375 2428 
Q 1034 2569 447 2591 
L 1259 4238 
L 2778 4238 
z
" id="TimesNewRomanPSMT-35" transform="scale(0.015625)"/>
       </defs>
       <use xlink:href="#TimesNewRomanPSMT-30"/>
       <use x="50" xlink:href="#TimesNewRomanPSMT-2e"/>
       <use x="75" xlink:href="#TimesNewRomanPSMT-30"/>
       <use x="125" xlink:href="#TimesNewRomanPSMT-30"/>
       <use x="175" xlink:href="#TimesNewRomanPSMT-35"/>
      </g>
     </g>
    </g>
    <g id="text_7">
     <!-- Time (sec) -->
     <g transform="translate(200.858906 373.494427)scale(0.14 -0.14)">
      <defs>
       <path d="M 3703 4238 
L 3750 3244 
L 3631 3244 
Q 3597 3506 3538 3619 
Q 3441 3800 3280 3886 
Q 3119 3972 2856 3972 
L 2259 3972 
L 2259 734 
Q 2259 344 2344 247 
Q 2463 116 2709 116 
L 2856 116 
L 2856 0 
L 1059 0 
L 1059 116 
L 1209 116 
Q 1478 116 1591 278 
Q 1659 378 1659 734 
L 1659 3972 
L 1150 3972 
Q 853 3972 728 3928 
Q 566 3869 450 3700 
Q 334 3531 313 3244 
L 194 3244 
L 244 4238 
L 3703 4238 
z
" id="TimesNewRomanPSMT-54" transform="scale(0.015625)"/>
       <path d="M 928 4444 
Q 1059 4444 1151 4351 
Q 1244 4259 1244 4128 
Q 1244 3997 1151 3903 
Q 1059 3809 928 3809 
Q 797 3809 703 3903 
Q 609 3997 609 4128 
Q 609 4259 701 4351 
Q 794 4444 928 4444 
z
M 1188 2947 
L 1188 647 
Q 1188 378 1227 289 
Q 1266 200 1342 156 
Q 1419 113 1622 113 
L 1622 0 
L 231 0 
L 231 113 
Q 441 113 512 153 
Q 584 194 626 287 
Q 669 381 669 647 
L 669 1750 
Q 669 2216 641 2353 
Q 619 2453 572 2492 
Q 525 2531 444 2531 
Q 356 2531 231 2484 
L 188 2597 
L 1050 2947 
L 1188 2947 
z
" id="TimesNewRomanPSMT-69" transform="scale(0.015625)"/>
       <path d="M 1050 2338 
Q 1363 2650 1419 2697 
Q 1559 2816 1721 2881 
Q 1884 2947 2044 2947 
Q 2313 2947 2506 2790 
Q 2700 2634 2766 2338 
Q 3088 2713 3309 2830 
Q 3531 2947 3766 2947 
Q 3994 2947 4170 2830 
Q 4347 2713 4450 2447 
Q 4519 2266 4519 1878 
L 4519 647 
Q 4519 378 4559 278 
Q 4591 209 4675 161 
Q 4759 113 4950 113 
L 4950 0 
L 3538 0 
L 3538 113 
L 3597 113 
Q 3781 113 3884 184 
Q 3956 234 3988 344 
Q 4000 397 4000 647 
L 4000 1878 
Q 4000 2228 3916 2372 
Q 3794 2572 3525 2572 
Q 3359 2572 3192 2489 
Q 3025 2406 2788 2181 
L 2781 2147 
L 2788 2013 
L 2788 647 
Q 2788 353 2820 281 
Q 2853 209 2943 161 
Q 3034 113 3253 113 
L 3253 0 
L 1806 0 
L 1806 113 
Q 2044 113 2133 169 
Q 2222 225 2256 338 
Q 2272 391 2272 647 
L 2272 1878 
Q 2272 2228 2169 2381 
Q 2031 2581 1784 2581 
Q 1616 2581 1450 2491 
Q 1191 2353 1050 2181 
L 1050 647 
Q 1050 366 1089 281 
Q 1128 197 1204 155 
Q 1281 113 1516 113 
L 1516 0 
L 100 0 
L 100 113 
Q 297 113 375 155 
Q 453 197 493 289 
Q 534 381 534 647 
L 534 1741 
Q 534 2213 506 2350 
Q 484 2453 437 2492 
Q 391 2531 309 2531 
Q 222 2531 100 2484 
L 53 2597 
L 916 2947 
L 1050 2947 
L 1050 2338 
z
" id="TimesNewRomanPSMT-6d" transform="scale(0.015625)"/>
       <path d="M 681 1784 
Q 678 1147 991 784 
Q 1303 422 1725 422 
Q 2006 422 2214 576 
Q 2422 731 2563 1106 
L 2659 1044 
Q 2594 616 2278 264 
Q 1963 -88 1488 -88 
Q 972 -88 605 314 
Q 238 716 238 1394 
Q 238 2128 614 2539 
Q 991 2950 1559 2950 
Q 2041 2950 2350 2633 
Q 2659 2316 2659 1784 
L 681 1784 
z
M 681 1966 
L 2006 1966 
Q 1991 2241 1941 2353 
Q 1863 2528 1708 2628 
Q 1553 2728 1384 2728 
Q 1125 2728 920 2526 
Q 716 2325 681 1966 
z
" id="TimesNewRomanPSMT-65" transform="scale(0.015625)"/>
       <path id="TimesNewRomanPSMT-20" transform="scale(0.015625)"/>
       <path d="M 1988 -1253 
L 1988 -1369 
Q 1516 -1131 1200 -813 
Q 750 -359 506 256 
Q 263 872 263 1534 
Q 263 2503 741 3301 
Q 1219 4100 1988 4444 
L 1988 4313 
Q 1603 4100 1356 3731 
Q 1109 3363 987 2797 
Q 866 2231 866 1616 
Q 866 947 969 400 
Q 1050 -31 1165 -292 
Q 1281 -553 1476 -793 
Q 1672 -1034 1988 -1253 
z
" id="TimesNewRomanPSMT-28" transform="scale(0.015625)"/>
       <path d="M 2050 2947 
L 2050 1972 
L 1947 1972 
Q 1828 2431 1642 2597 
Q 1456 2763 1169 2763 
Q 950 2763 815 2647 
Q 681 2531 681 2391 
Q 681 2216 781 2091 
Q 878 1963 1175 1819 
L 1631 1597 
Q 2266 1288 2266 781 
Q 2266 391 1970 151 
Q 1675 -88 1309 -88 
Q 1047 -88 709 6 
Q 606 38 541 38 
Q 469 38 428 -44 
L 325 -44 
L 325 978 
L 428 978 
Q 516 541 762 319 
Q 1009 97 1316 97 
Q 1531 97 1667 223 
Q 1803 350 1803 528 
Q 1803 744 1651 891 
Q 1500 1038 1047 1263 
Q 594 1488 453 1669 
Q 313 1847 313 2119 
Q 313 2472 555 2709 
Q 797 2947 1181 2947 
Q 1350 2947 1591 2875 
Q 1750 2828 1803 2828 
Q 1853 2828 1881 2850 
Q 1909 2872 1947 2947 
L 2050 2947 
z
" id="TimesNewRomanPSMT-73" transform="scale(0.015625)"/>
       <path d="M 2631 1088 
Q 2516 522 2178 217 
Q 1841 -88 1431 -88 
Q 944 -88 581 321 
Q 219 731 219 1428 
Q 219 2103 620 2525 
Q 1022 2947 1584 2947 
Q 2006 2947 2278 2723 
Q 2550 2500 2550 2259 
Q 2550 2141 2473 2067 
Q 2397 1994 2259 1994 
Q 2075 1994 1981 2113 
Q 1928 2178 1911 2362 
Q 1894 2547 1784 2644 
Q 1675 2738 1481 2738 
Q 1169 2738 978 2506 
Q 725 2200 725 1697 
Q 725 1184 976 792 
Q 1228 400 1656 400 
Q 1963 400 2206 609 
Q 2378 753 2541 1131 
L 2631 1088 
z
" id="TimesNewRomanPSMT-63" transform="scale(0.015625)"/>
       <path d="M 144 4313 
L 144 4444 
Q 619 4209 934 3891 
Q 1381 3434 1625 2820 
Q 1869 2206 1869 1541 
Q 1869 572 1392 -226 
Q 916 -1025 144 -1369 
L 144 -1253 
Q 528 -1038 776 -670 
Q 1025 -303 1145 264 
Q 1266 831 1266 1447 
Q 1266 2113 1163 2663 
Q 1084 3094 967 3353 
Q 850 3613 656 3853 
Q 463 4094 144 4313 
z
" id="TimesNewRomanPSMT-29" transform="scale(0.015625)"/>
      </defs>
      <use xlink:href="#TimesNewRomanPSMT-54"/>
      <use x="57.583984" xlink:href="#TimesNewRomanPSMT-69"/>
      <use x="85.367188" xlink:href="#TimesNewRomanPSMT-6d"/>
      <use x="163.150391" xlink:href="#TimesNewRomanPSMT-65"/>
      <use x="207.535156" xlink:href="#TimesNewRomanPSMT-20"/>
      <use x="232.535156" xlink:href="#TimesNewRomanPSMT-28"/>
      <use x="265.835938" xlink:href="#TimesNewRomanPSMT-73"/>
      <use x="304.751953" xlink:href="#TimesNewRomanPSMT-65"/>
      <use x="349.136719" xlink:href="#TimesNewRomanPSMT-63"/>
      <use x="393.521484" xlink:href="#TimesNewRomanPSMT-29"/>
     </g>
    </g>
   </g>
   <g id="matplotlib.axis_2">
    <g id="ytick_1">
     <g id="line2d_13">
      <path clip-path="url(#pddbf57bb04)" d="M 63.336875 297.792917 
L 398.136875 297.792917 
" style="fill:none;stroke:#000000;stroke-dasharray:0.5,0.825;stroke-dashoffset:0;stroke-width:0.5;"/>
     </g>
     <g id="line2d_14">
      <defs>
       <path d="M 0 0 
L -3.5 0 
" id="m30d4449b38" style="stroke:#000000;stroke-width:0.8;"/>
      </defs>
      <g>
       <use style="stroke:#000000;stroke-width:0.8;" x="63.336875" xlink:href="#m30d4449b38" y="297.792917"/>
      </g>
     </g>
     <g id="text_8">
      <!-- −0.06 -->
      <g transform="translate(23.942188 302.653542)scale(0.14 -0.14)">
       <defs>
        <path d="M 3484 2000 
L 116 2000 
L 116 2256 
L 3484 2256 
L 3484 2000 
z
" id="TimesNewRomanPSMT-2212" transform="scale(0.015625)"/>
        <path d="M 2869 4325 
L 2869 4209 
Q 2456 4169 2195 4045 
Q 1934 3922 1679 3669 
Q 1425 3416 1258 3105 
Q 1091 2794 978 2366 
Q 1428 2675 1881 2675 
Q 2316 2675 2634 2325 
Q 2953 1975 2953 1425 
Q 2953 894 2631 456 
Q 2244 -75 1606 -75 
Q 1172 -75 869 213 
Q 275 772 275 1663 
Q 275 2231 503 2743 
Q 731 3256 1154 3653 
Q 1578 4050 1965 4187 
Q 2353 4325 2688 4325 
L 2869 4325 
z
M 925 2138 
Q 869 1716 869 1456 
Q 869 1156 980 804 
Q 1091 453 1309 247 
Q 1469 100 1697 100 
Q 1969 100 2183 356 
Q 2397 613 2397 1088 
Q 2397 1622 2184 2012 
Q 1972 2403 1581 2403 
Q 1463 2403 1327 2353 
Q 1191 2303 925 2138 
z
" id="TimesNewRomanPSMT-36" transform="scale(0.015625)"/>
       </defs>
       <use xlink:href="#TimesNewRomanPSMT-2212"/>
       <use x="56.396484" xlink:href="#TimesNewRomanPSMT-30"/>
       <use x="106.396484" xlink:href="#TimesNewRomanPSMT-2e"/>
       <use x="131.396484" xlink:href="#TimesNewRomanPSMT-30"/>
       <use x="181.396484" xlink:href="#TimesNewRomanPSMT-36"/>
      </g>
     </g>
    </g>
    <g id="ytick_2">
     <g id="line2d_15">
      <path clip-path="url(#pddbf57bb04)" d="M 63.336875 250.170869 
L 398.136875 250.170869 
" style="fill:none;stroke:#000000;stroke-dasharray:0.5,0.825;stroke-dashoffset:0;stroke-width:0.5;"/>
     </g>
     <g id="line2d_16">
      <g>
       <use style="stroke:#000000;stroke-width:0.8;" x="63.336875" xlink:href="#m30d4449b38" y="250.170869"/>
      </g>
     </g>
     <g id="text_9">
      <!-- −0.04 -->
      <g transform="translate(23.942188 255.031494)scale(0.14 -0.14)">
       <use xlink:href="#TimesNewRomanPSMT-2212"/>
       <use x="56.396484" xlink:href="#TimesNewRomanPSMT-30"/>
       <use x="106.396484" xlink:href="#TimesNewRomanPSMT-2e"/>
       <use x="131.396484" xlink:href="#TimesNewRomanPSMT-30"/>
       <use x="181.396484" xlink:href="#TimesNewRomanPSMT-34"/>
      </g>
     </g>
    </g>
    <g id="ytick_3">
     <g id="line2d_17">
      <path clip-path="url(#pddbf57bb04)" d="M 63.336875 202.54882 
L 398.136875 202.54882 
" style="fill:none;stroke:#000000;stroke-dasharray:0.5,0.825;stroke-dashoffset:0;stroke-width:0.5;"/>
     </g>
     <g id="line2d_18">
      <g>
       <use style="stroke:#000000;stroke-width:0.8;" x="63.336875" xlink:href="#m30d4449b38" y="202.54882"/>
      </g>
     </g>
     <g id="text_10">
      <!-- −0.02 -->
      <g transform="translate(23.942188 207.409445)scale(0.14 -0.14)">
       <use xlink:href="#TimesNewRomanPSMT-2212"/>
       <use x="56.396484" xlink:href="#TimesNewRomanPSMT-30"/>
       <use x="106.396484" xlink:href="#TimesNewRomanPSMT-2e"/>
       <use x="131.396484" xlink:href="#TimesNewRomanPSMT-30"/>
       <use x="181.396484" xlink:href="#TimesNewRomanPSMT-32"/>
      </g>
     </g>
    </g>
    <g id="ytick_4">
     <g id="line2d_19">
      <path clip-path="url(#pddbf57bb04)" d="M 63.336875 154.926771 
L 398.136875 154.926771 
" style="fill:none;stroke:#000000;stroke-dasharray:0.5,0.825;stroke-dashoffset:0;stroke-width:0.5;"/>
     </g>
     <g id="line2d_20">
      <g>
       <use style="stroke:#000000;stroke-width:0.8;" x="63.336875" xlink:href="#m30d4449b38" y="154.926771"/>
      </g>
     </g>
     <g id="text_11">
      <!-- 0.00 -->
      <g transform="translate(31.836875 159.787396)scale(0.14 -0.14)">
       <use xlink:href="#TimesNewRomanPSMT-30"/>
       <use x="50" xlink:href="#TimesNewRomanPSMT-2e"/>
       <use x="75" xlink:href="#TimesNewRomanPSMT-30"/>
       <use x="125" xlink:href="#TimesNewRomanPSMT-30"/>
      </g>
     </g>
    </g>
    <g id="ytick_5">
     <g id="line2d_21">
      <path clip-path="url(#pddbf57bb04)" d="M 63.336875 107.304722 
L 398.136875 107.304722 
" style="fill:none;stroke:#000000;stroke-dasharray:0.5,0.825;stroke-dashoffset:0;stroke-width:0.5;"/>
     </g>
     <g id="line2d_22">
      <g>
       <use style="stroke:#000000;stroke-width:0.8;" x="63.336875" xlink:href="#m30d4449b38" y="107.304722"/>
      </g>
     </g>
     <g id="text_12">
      <!-- 0.02 -->
      <g transform="translate(31.836875 112.165347)scale(0.14 -0.14)">
       <use xlink:href="#TimesNewRomanPSMT-30"/>
       <use x="50" xlink:href="#TimesNewRomanPSMT-2e"/>
       <use x="75" xlink:href="#TimesNewRomanPSMT-30"/>
       <use x="125" xlink:href="#TimesNewRomanPSMT-32"/>
      </g>
     </g>
    </g>
    <g id="ytick_6">
     <g id="line2d_23">
      <path clip-path="url(#pddbf57bb04)" d="M 63.336875 59.682674 
L 398.136875 59.682674 
" style="fill:none;stroke:#000000;stroke-dasharray:0.5,0.825;stroke-dashoffset:0;stroke-width:0.5;"/>
     </g>
     <g id="line2d_24">
      <g>
       <use style="stroke:#000000;stroke-width:0.8;" x="63.336875" xlink:href="#m30d4449b38" y="59.682674"/>
      </g>
     </g>
     <g id="text_13">
      <!-- 0.04 -->
      <g transform="translate(31.836875 64.543299)scale(0.14 -0.14)">
       <use xlink:href="#TimesNewRomanPSMT-30"/>
       <use x="50" xlink:href="#TimesNewRomanPSMT-2e"/>
       <use x="75" xlink:href="#TimesNewRomanPSMT-30"/>
       <use x="125" xlink:href="#TimesNewRomanPSMT-34"/>
      </g>
     </g>
    </g>
    <g id="ytick_7">
     <g id="line2d_25">
      <path clip-path="url(#pddbf57bb04)" d="M 63.336875 12.060625 
L 398.136875 12.060625 
" style="fill:none;stroke:#000000;stroke-dasharray:0.5,0.825;stroke-dashoffset:0;stroke-width:0.5;"/>
     </g>
     <g id="line2d_26">
      <g>
       <use style="stroke:#000000;stroke-width:0.8;" x="63.336875" xlink:href="#m30d4449b38" y="12.060625"/>
      </g>
     </g>
     <g id="text_14">
      <!-- 0.06 -->
      <g transform="translate(31.836875 16.92125)scale(0.14 -0.14)">
       <use xlink:href="#TimesNewRomanPSMT-30"/>
       <use x="50" xlink:href="#TimesNewRomanPSMT-2e"/>
       <use x="75" xlink:href="#TimesNewRomanPSMT-30"/>
       <use x="125" xlink:href="#TimesNewRomanPSMT-36"/>
      </g>
     </g>
    </g>
    <g id="text_15">
     <!-- Volatage (V) -->
     <g transform="translate(16.92125 209.569584)rotate(-90)scale(0.14 -0.14)">
      <defs>
       <path d="M 4544 4238 
L 4544 4122 
Q 4319 4081 4203 3978 
Q 4038 3825 3909 3509 
L 2431 -97 
L 2316 -97 
L 728 3556 
Q 606 3838 556 3900 
Q 478 3997 364 4051 
Q 250 4106 56 4122 
L 56 4238 
L 1788 4238 
L 1788 4122 
Q 1494 4094 1406 4022 
Q 1319 3950 1319 3838 
Q 1319 3681 1463 3350 
L 2541 866 
L 3541 3319 
Q 3688 3681 3688 3822 
Q 3688 3913 3597 3995 
Q 3506 4078 3291 4113 
Q 3275 4116 3238 4122 
L 3238 4238 
L 4544 4238 
z
" id="TimesNewRomanPSMT-56" transform="scale(0.015625)"/>
       <path d="M 1600 2947 
Q 2250 2947 2644 2453 
Q 2978 2031 2978 1484 
Q 2978 1100 2793 706 
Q 2609 313 2286 112 
Q 1963 -88 1566 -88 
Q 919 -88 538 428 
Q 216 863 216 1403 
Q 216 1797 411 2186 
Q 606 2575 925 2761 
Q 1244 2947 1600 2947 
z
M 1503 2744 
Q 1338 2744 1170 2645 
Q 1003 2547 900 2300 
Q 797 2053 797 1666 
Q 797 1041 1045 587 
Q 1294 134 1700 134 
Q 2003 134 2200 384 
Q 2397 634 2397 1244 
Q 2397 2006 2069 2444 
Q 1847 2744 1503 2744 
z
" id="TimesNewRomanPSMT-6f" transform="scale(0.015625)"/>
       <path d="M 1184 4444 
L 1184 647 
Q 1184 378 1223 290 
Q 1263 203 1344 158 
Q 1425 113 1647 113 
L 1647 0 
L 244 0 
L 244 113 
Q 441 113 512 153 
Q 584 194 625 287 
Q 666 381 666 647 
L 666 3247 
Q 666 3731 644 3842 
Q 622 3953 573 3993 
Q 525 4034 450 4034 
Q 369 4034 244 3984 
L 191 4094 
L 1044 4444 
L 1184 4444 
z
" id="TimesNewRomanPSMT-6c" transform="scale(0.015625)"/>
       <path d="M 1822 413 
Q 1381 72 1269 19 
Q 1100 -59 909 -59 
Q 613 -59 420 144 
Q 228 347 228 678 
Q 228 888 322 1041 
Q 450 1253 767 1440 
Q 1084 1628 1822 1897 
L 1822 2009 
Q 1822 2438 1686 2597 
Q 1550 2756 1291 2756 
Q 1094 2756 978 2650 
Q 859 2544 859 2406 
L 866 2225 
Q 866 2081 792 2003 
Q 719 1925 600 1925 
Q 484 1925 411 2006 
Q 338 2088 338 2228 
Q 338 2497 613 2722 
Q 888 2947 1384 2947 
Q 1766 2947 2009 2819 
Q 2194 2722 2281 2516 
Q 2338 2381 2338 1966 
L 2338 994 
Q 2338 584 2353 492 
Q 2369 400 2405 369 
Q 2441 338 2488 338 
Q 2538 338 2575 359 
Q 2641 400 2828 588 
L 2828 413 
Q 2478 -56 2159 -56 
Q 2006 -56 1915 50 
Q 1825 156 1822 413 
z
M 1822 616 
L 1822 1706 
Q 1350 1519 1213 1441 
Q 966 1303 859 1153 
Q 753 1003 753 825 
Q 753 600 887 451 
Q 1022 303 1197 303 
Q 1434 303 1822 616 
z
" id="TimesNewRomanPSMT-61" transform="scale(0.015625)"/>
       <path d="M 1031 3803 
L 1031 2863 
L 1700 2863 
L 1700 2644 
L 1031 2644 
L 1031 788 
Q 1031 509 1111 412 
Q 1191 316 1316 316 
Q 1419 316 1516 380 
Q 1613 444 1666 569 
L 1788 569 
Q 1678 263 1478 108 
Q 1278 -47 1066 -47 
Q 922 -47 784 33 
Q 647 113 581 261 
Q 516 409 516 719 
L 516 2644 
L 63 2644 
L 63 2747 
Q 234 2816 414 2980 
Q 594 3144 734 3369 
Q 806 3488 934 3803 
L 1031 3803 
z
" id="TimesNewRomanPSMT-74" transform="scale(0.015625)"/>
       <path d="M 966 1044 
Q 703 1172 562 1401 
Q 422 1631 422 1909 
Q 422 2334 742 2640 
Q 1063 2947 1563 2947 
Q 1972 2947 2272 2747 
L 2878 2747 
Q 3013 2747 3034 2739 
Q 3056 2731 3066 2713 
Q 3084 2684 3084 2613 
Q 3084 2531 3069 2500 
Q 3059 2484 3036 2475 
Q 3013 2466 2878 2466 
L 2506 2466 
Q 2681 2241 2681 1891 
Q 2681 1491 2375 1206 
Q 2069 922 1553 922 
Q 1341 922 1119 984 
Q 981 866 932 777 
Q 884 688 884 625 
Q 884 572 936 522 
Q 988 472 1138 450 
Q 1225 438 1575 428 
Q 2219 413 2409 384 
Q 2700 344 2873 169 
Q 3047 -6 3047 -263 
Q 3047 -616 2716 -925 
Q 2228 -1381 1444 -1381 
Q 841 -1381 425 -1109 
Q 191 -953 191 -784 
Q 191 -709 225 -634 
Q 278 -519 444 -313 
Q 466 -284 763 25 
Q 600 122 533 198 
Q 466 275 466 372 
Q 466 481 555 628 
Q 644 775 966 1044 
z
M 1509 2797 
Q 1278 2797 1122 2612 
Q 966 2428 966 2047 
Q 966 1553 1178 1281 
Q 1341 1075 1591 1075 
Q 1828 1075 1981 1253 
Q 2134 1431 2134 1813 
Q 2134 2309 1919 2591 
Q 1759 2797 1509 2797 
z
M 934 0 
Q 788 -159 713 -296 
Q 638 -434 638 -550 
Q 638 -700 819 -813 
Q 1131 -1006 1722 -1006 
Q 2284 -1006 2551 -807 
Q 2819 -609 2819 -384 
Q 2819 -222 2659 -153 
Q 2497 -84 2016 -72 
Q 1313 -53 934 0 
z
" id="TimesNewRomanPSMT-67" transform="scale(0.015625)"/>
      </defs>
      <use xlink:href="#TimesNewRomanPSMT-56"/>
      <use x="59.341797" xlink:href="#TimesNewRomanPSMT-6f"/>
      <use x="109.341797" xlink:href="#TimesNewRomanPSMT-6c"/>
      <use x="137.125" xlink:href="#TimesNewRomanPSMT-61"/>
      <use x="181.509766" xlink:href="#TimesNewRomanPSMT-74"/>
      <use x="209.292969" xlink:href="#TimesNewRomanPSMT-61"/>
      <use x="253.677734" xlink:href="#TimesNewRomanPSMT-67"/>
      <use x="303.677734" xlink:href="#TimesNewRomanPSMT-65"/>
      <use x="348.0625" xlink:href="#TimesNewRomanPSMT-20"/>
      <use x="373.0625" xlink:href="#TimesNewRomanPSMT-28"/>
      <use x="406.363281" xlink:href="#TimesNewRomanPSMT-56"/>
      <use x="478.580078" xlink:href="#TimesNewRomanPSMT-29"/>
     </g>
    </g>
   </g>
   <g id="LineCollection_1">
    <path clip-path="url(#pddbf57bb04)" d="M 78.555057 154.926771 
L 382.918693 154.926771 
" style="fill:none;stroke:#1f77b4;stroke-width:1.5;"/>
   </g>
   <g id="line2d_27">
    <path clip-path="url(#pddbf57bb04)" d="M 78.555057 154.896769 
L 78.737675 154.956297 
L 78.920293 154.896769 
L 79.072475 154.896769 
L 99.221348 154.986061 
L 99.37353 154.986061 
L 101.930184 155.045588 
L 101.96062 155.105116 
L 102.05193 155.045588 
L 104.425966 155.105116 
L 104.547711 155.13488 
L 111.030657 155.224171 
L 111.182839 155.253935 
L 111.365457 155.224171 
L 111.517639 155.224171 
L 113.313384 155.283698 
L 113.43513 155.313462 
L 114.378657 155.37299 
L 114.500402 155.432517 
L 114.68302 155.402754 
L 114.896075 155.462281 
L 115.01782 155.492045 
L 115.656984 155.581336 
L 115.870039 155.640864 
L 116.387457 155.730155 
L 116.570075 155.759919 
L 117.209239 155.84921 
L 117.45273 155.938502 
L 118.03102 155.998029 
L 118.152766 156.057557 
L 118.304948 156.027793 
L 118.426693 156.087321 
L 118.548439 156.117084 
L 118.761493 156.176612 
L 119.735457 156.236139 
L 119.826766 156.295667 
L 119.857202 156.265903 
L 120.952911 156.325431 
L 121.074657 156.355195 
L 122.018184 156.444486 
L 122.231239 156.504013 
L 122.687784 156.593305 
L 122.839966 156.652832 
L 122.870402 156.593305 
L 122.961711 156.652832 
L 123.205202 156.742124 
L 123.509566 156.801651 
L 123.631311 156.831415 
L 123.966111 156.920706 
L 124.118293 157.009998 
L 124.361784 157.099289 
L 124.635711 157.218344 
L 124.879202 157.307636 
L 125.274875 157.57551 
L 125.335748 157.545746 
L 125.366184 157.635037 
L 125.548802 157.724328 
L 126.705384 159.004171 
L 127.253239 159.837557 
L 127.466293 160.194722 
L 127.83153 160.938817 
L 128.653311 162.724644 
L 128.896802 163.409211 
L 129.262039 164.331888 
L 129.657711 165.462911 
L 129.870766 166.087951 
L 130.50993 168.141651 
L 131.17953 170.433462 
L 132.670911 175.820707 
L 136.079784 185.523699 
L 136.323275 185.910629 
L 136.53633 186.208266 
L 137.44942 186.952361 
L 137.601602 186.922597 
L 137.753784 186.982125 
L 137.936402 187.011888 
L 138.54513 186.922597 
L 138.758184 186.744014 
L 139.245166 186.118975 
L 140.158257 184.124802 
L 141.832257 177.130313 
L 143.90193 164.331888 
L 147.280366 133.615666 
L 148.315202 122.454249 
L 150.293566 100.518342 
L 152.667602 76.171565 
L 153.976366 64.414874 
L 156.015602 51.169992 
L 156.776511 47.985272 
L 157.811348 45.276764 
L 158.237457 45.008889 
L 158.511384 45.098186 
L 159.241857 45.931567 
L 160.246257 49.175816 
L 161.189784 54.324955 
L 161.707202 57.985903 
L 162.55942 65.516139 
L 163.472511 75.457242 
L 164.872584 94.654875 
L 166.059602 113.673936 
L 167.91622 148.259447 
L 172.146875 232.877874 
L 173.181711 251.89693 
L 174.186111 268.534886 
L 176.255784 297.316454 
L 177.808039 312.853145 
L 178.72113 319.163067 
L 179.573348 322.794248 
L 180.182075 324.282434 
L 181.003857 324.93724 
L 181.156039 324.847953 
L 182.06913 322.853785 
L 182.73873 319.788123 
L 183.530075 314.49016 
L 184.017057 310.412518 
L 185.051893 300.322598 
L 185.66062 293.328112 
L 188.00422 259.754568 
L 189.647784 230.586065 
L 193.147966 159.956612 
L 194.852402 127.156926 
L 197.896039 75.487001 
L 200.026584 49.771094 
L 202.004948 33.252196 
L 203.709384 25.454086 
L 204.592039 23.192046 
L 204.865966 22.894403 
L 204.896402 22.924172 
L 204.957275 22.834873 
L 205.109457 22.745584 
L 205.474693 22.53724 
L 205.626875 22.596768 
L 206.357348 23.45992 
L 207.361748 25.632671 
L 208.731384 31.436606 
L 210.344511 41.556293 
L 212.292439 55.634564 
L 213.144657 62.896926 
L 214.240366 72.33204 
L 216.401348 92.333303 
L 217.588366 102.869681 
L 218.47102 110.638025 
L 220.023275 123.347162 
L 220.90593 130.10354 
L 221.514657 134.478817 
L 221.81902 136.443226 
L 222.732111 142.753147 
L 223.15822 145.342595 
L 223.736511 149.003541 
L 225.562693 157.396927 
L 228.149784 167.070156 
L 228.910693 169.629841 
L 229.458548 171.326376 
L 230.676002 175.195668 
L 230.919493 175.880236 
L 231.162984 176.594565 
L 231.589093 178.142281 
L 231.893457 179.332833 
L 232.350002 180.999605 
L 232.897857 183.589054 
L 233.719639 187.785747 
L 233.841384 188.44055 
L 234.358802 191.476456 
L 235.150148 196.149369 
L 235.88062 201.090157 
L 236.55022 205.46543 
L 240.963493 234.93157 
L 241.90702 239.812833 
L 242.424439 242.283229 
L 242.789675 243.771418 
L 244.524548 250.111098 
L 245.072402 251.420709 
L 245.133275 251.480237 
L 245.34633 251.658824 
L 245.559384 251.718342 
L 245.772439 251.658824 
L 245.955057 251.599294 
L 246.107239 251.480237 
L 246.228984 251.450468 
L 247.324693 249.069371 
L 247.994293 246.807321 
L 249.546548 238.711578 
L 250.94662 228.413307 
L 251.646657 222.60937 
L 252.255384 216.984013 
L 253.259784 207.161968 
L 254.62942 192.696771 
L 258.64702 150.670313 
L 260.868875 132.097714 
L 262.208075 123.6448 
L 263.638584 117.186057 
L 264.67342 113.584642 
L 265.67782 110.965429 
L 266.560475 109.417713 
L 266.590911 109.447477 
L 266.621348 109.328419 
L 266.68222 109.268896 
L 267.077893 108.703384 
L 267.199639 108.643855 
L 267.412693 108.465274 
L 267.625748 108.37598 
L 267.930111 108.227164 
L 268.264911 108.13787 
L 268.417093 108.13787 
L 268.934511 108.227164 
L 269.178002 108.316453 
L 269.269311 108.316453 
L 269.421493 108.37598 
L 269.78673 108.584327 
L 269.908475 108.643855 
L 270.151966 108.881965 
L 270.608511 109.447477 
L 270.882439 109.923697 
L 271.856402 112.066689 
L 277.913239 129.508265 
L 278.248039 130.371414 
L 278.643711 131.472674 
L 279.222002 132.841808 
L 282.904802 139.836296 
L 282.996111 139.925588 
L 283.209166 140.223226 
L 283.51353 140.669683 
L 283.970075 141.354249 
L 284.030948 141.443541 
L 285.004911 142.5448 
L 285.18753 142.812674 
L 285.339711 142.901966 
L 285.918002 143.318659 
L 286.009311 143.318659 
L 286.19193 143.437713 
L 286.496293 143.527005 
L 286.739784 143.616297 
L 287.561566 143.527005 
L 287.835493 143.40795 
L 288.048548 143.348423 
L 288.231166 143.199603 
L 288.352911 143.16984 
L 289.296439 142.366218 
L 289.387748 142.336454 
L 289.631239 142.068579 
L 289.722548 141.979289 
L 290.057348 141.532832 
L 290.300839 141.145902 
L 290.331275 141.175667 
L 290.392148 141.086375 
L 290.848693 140.431572 
L 291.031311 140.163698 
L 291.274802 139.657714 
L 293.374911 135.312201 
L 295.596766 128.466532 
L 296.357675 125.906847 
L 296.509857 125.400863 
L 297.727311 121.085115 
L 298.366475 118.882595 
L 298.82302 117.543225 
L 299.096948 116.769367 
L 299.553493 115.429996 
L 299.949166 114.596611 
L 300.131784 114.269207 
L 300.527457 113.435826 
L 301.075311 112.602437 
L 301.197057 112.513146 
L 302.049275 111.828579 
L 302.292766 111.917868 
L 302.414511 111.947632 
L 303.17542 112.78102 
L 303.418911 113.287004 
L 303.571093 113.525112 
L 303.93633 114.507322 
L 304.17982 115.22165 
L 304.971166 117.870629 
L 306.706039 126.889052 
L 307.497384 132.15724 
L 310.267093 157.515982 
L 316.536984 223.799919 
L 318.515348 238.443703 
L 319.854548 244.485751 
L 320.037166 245.051258 
L 320.463275 246.301342 
L 320.58502 246.569216 
L 321.376366 247.878817 
L 321.92422 248.265749 
L 322.25902 248.17646 
L 323.111239 247.194253 
L 323.446039 246.331101 
L 324.115639 244.158349 
L 324.450439 242.848738 
L 325.059166 240.050948 
L 325.850511 236.032837 
L 326.124439 234.51488 
L 326.763602 230.853939 
L 329.198511 213.442126 
L 331.511675 194.482595 
L 333.64222 174.719446 
L 334.250948 169.123856 
L 335.559711 157.396927 
L 336.41193 149.866691 
L 338.025057 136.621807 
L 342.590511 106.113936 
L 344.416693 96.053775 
L 346.36462 87.065111 
L 347.12553 84.535192 
L 347.429893 83.701806 
L 347.79513 82.719602 
L 348.403857 81.320704 
L 348.677784 80.695667 
L 348.79953 80.457552 
L 349.13433 79.802746 
L 349.408257 79.386056 
L 349.590875 79.177709 
L 349.895239 78.761019 
L 349.925675 78.790778 
L 349.956111 78.67173 
L 350.04742 78.612202 
L 350.290911 78.374087 
L 350.47353 78.31456 
L 350.625711 78.225271 
L 350.990948 78.135982 
L 351.14313 78.135982 
L 351.538802 78.076454 
L 351.569239 78.016924 
L 351.660548 78.076454 
L 351.81273 78.076454 
L 352.025784 78.135982 
L 352.360584 78.225271 
L 352.512766 78.284798 
L 352.756257 78.374087 
L 354.430257 80.159919 
L 355.678148 82.838654 
L 357.07822 87.273458 
L 358.84353 94.625112 
L 361.461057 107.95929 
L 361.917602 110.370151 
L 362.739384 114.924012 
L 368.248366 147.902281 
L 368.765784 151.087005 
L 369.861493 157.843384 
L 370.409348 161.057872 
L 374.609566 186.327322 
L 375.126984 189.571574 
L 375.58353 192.309841 
L 376.131384 195.732679 
L 377.50102 204.364175 
L 379.235893 215.168422 
L 379.692439 217.876929 
L 380.331602 221.50811 
L 381.366439 226.925116 
L 382.218657 230.705123 
L 382.583893 232.19331 
L 382.918693 233.413625 
L 382.918693 233.413625 
" style="fill:none;stroke:#0000ff;stroke-linecap:square;stroke-width:1.5;"/>
   </g>
   <g id="line2d_28">
    <path clip-path="url(#pddbf57bb04)" d="M 78.555057 154.934807 
L 78.768111 154.934807 
L 79.042039 154.949689 
L 79.315966 154.919926 
L 79.559457 154.934807 
L 79.711639 154.919926 
L 97.547348 154.815752 
L 97.790839 154.815752 
L 100.986657 154.919926 
L 101.443202 155.038981 
L 101.595384 155.083626 
L 101.899748 155.1878 
L 102.264984 155.396146 
L 102.782402 155.768193 
L 103.786802 156.884335 
L 104.39553 157.836776 
L 104.912948 158.789217 
L 106.830439 163.759768 
L 108.047893 167.55465 
L 108.382693 168.641029 
L 110.33062 174.921186 
L 111.517639 178.061265 
L 113.161202 181.067407 
L 113.374257 181.290635 
L 114.135166 181.885911 
L 114.987384 181.796619 
L 115.504802 181.424572 
L 115.656984 181.320399 
L 115.839602 181.112052 
L 116.083093 180.740005 
L 116.904875 178.894651 
L 117.604911 176.930242 
L 119.826766 167.792761 
L 121.105093 160.991737 
L 122.596475 151.601264 
L 126.461893 125.885358 
L 129.657711 109.292048 
L 131.331711 103.949449 
L 132.062184 101.895751 
L 132.549166 100.437325 
L 132.944839 99.589055 
L 133.310075 98.859845 
L 134.344911 97.059136 
L 134.86233 96.404336 
L 135.897166 95.064963 
L 136.353711 94.722682 
L 137.266802 93.978583 
L 138.11902 94.082756 
L 138.514693 94.395278 
L 138.87993 95.124493 
L 140.158257 98.532443 
L 141.314839 102.610079 
L 141.740948 104.440554 
L 142.623602 108.800948 
L 143.323639 113.131578 
L 145.606366 129.516539 
L 147.067311 141.779217 
L 154.037239 208.851893 
L 155.498184 219.432922 
L 157.263493 228.332292 
L 157.933093 230.7878 
L 158.511384 232.171813 
L 159.941893 234.076702 
L 160.763675 233.972529 
L 161.402839 233.198666 
L 162.376802 231.070558 
L 163.259457 227.677487 
L 164.111675 223.465914 
L 165.603057 213.301581 
L 166.881384 202.452683 
L 173.120839 145.514571 
L 174.855711 132.790556 
L 175.61662 128.325988 
L 176.194911 125.304964 
L 176.773202 122.775043 
L 178.234148 118.81646 
L 178.538511 118.548586 
L 178.903748 118.250948 
L 179.421166 117.878901 
L 179.603784 117.849137 
L 180.364693 117.938428 
L 180.547311 117.968192 
L 181.06473 118.340239 
L 182.038693 120.483232 
L 182.73873 122.879216 
L 185.75193 136.600319 
L 186.391093 139.695752 
L 191.01742 161.780477 
L 191.565275 163.715123 
L 193.391457 170.426855 
L 193.69582 171.260241 
L 194.274111 172.867485 
L 195.308948 175.11465 
L 196.70902 177.62969 
L 197.682984 178.433312 
L 197.896039 178.41843 
L 198.687384 177.912446 
L 199.083057 177.406462 
L 199.752657 175.501579 
L 200.787493 171.617406 
L 201.700584 167.286776 
L 202.339748 163.997879 
L 203.465893 157.345674 
L 210.679311 108.711656 
L 212.140257 101.449294 
L 213.11422 97.639528 
L 213.996875 95.005435 
L 215.031711 92.743391 
L 215.488257 92.148113 
L 215.853493 91.790947 
L 216.21873 91.716538 
L 217.527493 92.475517 
L 218.075348 93.160081 
L 219.018875 94.737561 
L 220.47982 98.026459 
L 220.875493 99.038428 
L 222.884293 105.27394 
L 224.345239 110.631418 
L 225.319202 114.842995 
L 227.084511 122.194649 
L 231.802148 143.445988 
L 234.024002 157.122445 
L 238.528584 189.35662 
L 239.593857 195.428433 
L 240.385202 199.387016 
L 241.146111 202.89914 
L 242.759239 208.762604 
L 244.494111 213.509927 
L 245.742002 216.292841 
L 246.01593 216.709531 
L 246.472475 217.364337 
L 246.92902 217.840557 
L 247.324693 218.153075 
L 247.720366 218.39119 
L 248.511711 218.659064 
L 249.02913 218.554886 
L 251.737966 217.111342 
L 254.72073 214.343313 
L 255.207711 213.986146 
L 255.572948 213.777801 
L 255.755566 213.688508 
L 256.333857 213.271817 
L 257.125202 213.003943 
L 257.338257 212.989064 
L 260.473202 212.88489 
L 260.716693 212.765833 
L 260.838439 212.736069 
L 261.173239 212.542602 
L 261.386293 212.438431 
L 262.268948 211.441347 
L 263.395093 209.030478 
L 264.064693 207.125596 
L 264.916911 204.283153 
L 265.403893 202.244339 
L 266.743093 194.461108 
L 267.68662 187.749375 
L 268.295348 182.838352 
L 269.086693 175.814099 
L 270.943311 156.601579 
L 272.526002 137.567642 
L 274.686984 108.696777 
L 277.669748 69.349052 
L 279.556802 48.499524 
L 280.652511 38.856064 
L 281.626475 32.069924 
L 282.570002 27.575591 
L 283.330911 25.358187 
L 283.909202 24.688504 
L 284.335311 24.584331 
L 285.004911 25.387955 
L 285.248402 25.938588 
L 285.613639 26.891026 
L 286.404984 29.971575 
L 286.983275 32.992604 
L 287.500693 36.341024 
L 288.53553 44.749295 
L 289.966039 59.050789 
L 292.21833 85.600081 
L 295.931566 131.421421 
L 300.92313 186.36536 
L 303.297166 206.307095 
L 304.84942 214.774888 
L 305.884257 218.86741 
L 306.584293 221.233628 
L 307.040839 222.751579 
L 308.349602 225.683316 
L 309.901857 227.766778 
L 310.480148 228.228114 
L 310.571457 228.257878 
L 311.30193 228.495988 
L 311.606293 228.391815 
L 312.702002 227.171503 
L 313.067239 226.442288 
L 313.736839 224.522526 
L 315.745639 216.218431 
L 317.23702 208.39056 
L 319.063202 197.020793 
L 323.293857 168.819611 
L 325.728766 154.056776 
L 327.067966 146.853941 
L 327.828875 143.356697 
L 328.650657 139.889217 
L 329.28982 137.552759 
L 330.172475 134.918664 
L 331.38993 132.225043 
L 332.363893 130.989846 
L 332.881311 130.632681 
L 333.094366 130.543389 
L 333.368293 130.424334 
L 333.855275 130.305279 
L 334.372693 130.409452 
L 334.798802 130.677327 
L 335.224911 131.004728 
L 335.833639 131.704177 
L 339.75993 135.409768 
L 339.912111 135.499059 
L 340.490402 135.915751 
L 340.642584 136.005043 
L 341.00782 136.21339 
L 341.76873 136.466382 
L 342.77313 136.362209 
L 343.899275 135.707405 
L 344.142766 135.543703 
L 344.599311 135.231185 
L 344.964548 135.127012 
L 345.481966 134.993075 
L 345.755893 134.8889 
L 346.090693 134.710319 
L 346.851602 134.219217 
L 349.560439 131.719059 
L 351.173566 131.01961 
L 351.356184 131.049374 
L 351.508366 131.094018 
L 351.873602 131.198193 
L 352.908439 131.80835 
L 353.15193 132.061342 
L 354.278075 133.311422 
L 354.82593 134.308508 
L 355.647711 136.13898 
L 356.49993 138.296854 
L 358.691348 143.922209 
L 359.391384 145.946146 
L 360.85233 149.235043 
L 361.795857 151.318508 
L 362.43502 152.851343 
L 363.165493 154.518115 
L 363.895966 156.021185 
L 365.996075 159.890477 
L 366.78742 160.8578 
L 367.152657 161.066146 
L 368.339675 161.527485 
L 369.344075 161.438193 
L 370.013675 160.634571 
L 370.713711 159.414256 
L 373.970402 152.821579 
L 374.426948 151.631028 
L 375.461784 149.383862 
L 376.283566 147.538508 
L 377.957566 143.163233 
L 379.022839 140.380319 
L 379.479384 139.249295 
L 380.544657 136.466382 
L 382.918693 130.751736 
L 382.918693 130.751736 
" style="fill:none;stroke:#ff0000;stroke-linecap:square;stroke-width:1.5;"/>
   </g>
   <g id="line2d_29">
    <path clip-path="url(#pddbf57bb04)" d="M 128.927239 163.468738 
" style="fill:none;stroke:#ffffff;stroke-linecap:square;stroke-width:1.5;"/>
    <defs>
     <path d="M 0 -5 
L -1.12257 -1.545085 
L -4.755283 -1.545085 
L -1.816356 0.59017 
L -2.938926 4.045085 
L -0 1.90983 
L 2.938926 4.045085 
L 1.816356 0.59017 
L 4.755283 -1.545085 
L 1.12257 -1.545085 
z
" id="m5ee0058f1c" style="stroke:#ffffff;stroke-linejoin:bevel;"/>
    </defs>
    <g clip-path="url(#pddbf57bb04)">
     <use style="fill:#0000ff;stroke:#ffffff;stroke-linejoin:bevel;" x="128.927239" xlink:href="#m5ee0058f1c" y="163.468738"/>
    </g>
   </g>
   <g id="line2d_30">
    <path clip-path="url(#pddbf57bb04)" d="M 106.039093 161.497721 
" style="fill:none;stroke:#ffffff;stroke-linecap:square;stroke-width:1.5;"/>
    <defs>
     <path d="M 0 -5 
L -1.12257 -1.545085 
L -4.755283 -1.545085 
L -1.816356 0.59017 
L -2.938926 4.045085 
L -0 1.90983 
L 2.938926 4.045085 
L 1.816356 0.59017 
L 4.755283 -1.545085 
L 1.12257 -1.545085 
z
" id="m303f553138" style="stroke:#ffffff;stroke-linejoin:bevel;"/>
    </defs>
    <g clip-path="url(#pddbf57bb04)">
     <use style="fill:#ff0000;stroke:#ffffff;stroke-linejoin:bevel;" x="106.039093" xlink:href="#m303f553138" y="161.497721"/>
    </g>
   </g>
   <g id="patch_3">
    <path d="M 63.336875 340.05724 
L 63.336875 7.41724 
" style="fill:none;stroke:#000000;stroke-linecap:square;stroke-linejoin:miter;stroke-width:0.8;"/>
   </g>
   <g id="patch_4">
    <path d="M 398.136875 340.05724 
L 398.136875 7.41724 
" style="fill:none;stroke:#000000;stroke-linecap:square;stroke-linejoin:miter;stroke-width:0.8;"/>
   </g>
   <g id="patch_5">
    <path d="M 63.336875 340.05724 
L 398.136875 340.05724 
" style="fill:none;stroke:#000000;stroke-linecap:square;stroke-linejoin:miter;stroke-width:0.8;"/>
   </g>
   <g id="patch_6">
    <path d="M 63.336875 7.41724 
L 398.136875 7.41724 
" style="fill:none;stroke:#000000;stroke-linecap:square;stroke-linejoin:miter;stroke-width:0.8;"/>
   </g>
   <g id="text_16">
    <g id="patch_7">
     <path d="M 75.036875 331.459927 
L 166.79375 331.459927 
L 166.79375 293.977552 
L 75.036875 293.977552 
z
" style="fill:#ffffff;stroke:#000000;stroke-linejoin:miter;stroke-width:0.75;"/>
    </g>
    <!-- Auto_00042 -->
    <g transform="translate(80.076875 308.738802)scale(0.14 -0.14)">
     <defs>
      <path d="M 2928 1419 
L 1288 1419 
L 1000 750 
Q 894 503 894 381 
Q 894 284 986 211 
Q 1078 138 1384 116 
L 1384 0 
L 50 0 
L 50 116 
Q 316 163 394 238 
Q 553 388 747 847 
L 2238 4334 
L 2347 4334 
L 3822 809 
Q 4000 384 4145 257 
Q 4291 131 4550 116 
L 4550 0 
L 2878 0 
L 2878 116 
Q 3131 128 3220 200 
Q 3309 272 3309 375 
Q 3309 513 3184 809 
L 2928 1419 
z
M 2841 1650 
L 2122 3363 
L 1384 1650 
L 2841 1650 
z
" id="TimesNewRomanPSMT-41" transform="scale(0.015625)"/>
      <path d="M 2709 2863 
L 2709 1128 
Q 2709 631 2732 520 
Q 2756 409 2807 365 
Q 2859 322 2928 322 
Q 3025 322 3147 375 
L 3191 266 
L 2334 -88 
L 2194 -88 
L 2194 519 
Q 1825 119 1631 15 
Q 1438 -88 1222 -88 
Q 981 -88 804 51 
Q 628 191 559 409 
Q 491 628 491 1028 
L 491 2306 
Q 491 2509 447 2587 
Q 403 2666 317 2708 
Q 231 2750 6 2747 
L 6 2863 
L 1009 2863 
L 1009 947 
Q 1009 547 1148 422 
Q 1288 297 1484 297 
Q 1619 297 1789 381 
Q 1959 466 2194 703 
L 2194 2325 
Q 2194 2569 2105 2655 
Q 2016 2741 1734 2747 
L 1734 2863 
L 2709 2863 
z
" id="TimesNewRomanPSMT-75" transform="scale(0.015625)"/>
      <path d="M 3256 -1381 
L -53 -1381 
L -53 -1119 
L 3256 -1119 
L 3256 -1381 
z
" id="TimesNewRomanPSMT-5f" transform="scale(0.015625)"/>
     </defs>
     <use xlink:href="#TimesNewRomanPSMT-41"/>
     <use x="72.216797" xlink:href="#TimesNewRomanPSMT-75"/>
     <use x="122.216797" xlink:href="#TimesNewRomanPSMT-74"/>
     <use x="150" xlink:href="#TimesNewRomanPSMT-6f"/>
     <use x="200" xlink:href="#TimesNewRomanPSMT-5f"/>
     <use x="250" xlink:href="#TimesNewRomanPSMT-30"/>
     <use x="300" xlink:href="#TimesNewRomanPSMT-30"/>
     <use x="350" xlink:href="#TimesNewRomanPSMT-30"/>
     <use x="400" xlink:href="#TimesNewRomanPSMT-34"/>
     <use x="450" xlink:href="#TimesNewRomanPSMT-32"/>
    </g>
    <!-- Vs: 265.82m/s -->
    <g transform="translate(80.076875 323.42524)scale(0.14 -0.14)">
     <defs>
      <path d="M 903 2950 
Q 1047 2950 1148 2848 
Q 1250 2747 1250 2603 
Q 1250 2459 1148 2357 
Q 1047 2256 903 2256 
Q 759 2256 657 2357 
Q 556 2459 556 2603 
Q 556 2747 657 2848 
Q 759 2950 903 2950 
z
M 897 609 
Q 1044 609 1145 506 
Q 1247 403 1247 259 
Q 1247 116 1144 14 
Q 1041 -88 897 -88 
Q 753 -88 651 14 
Q 550 116 550 259 
Q 550 403 651 506 
Q 753 609 897 609 
z
" id="TimesNewRomanPSMT-3a" transform="scale(0.015625)"/>
      <path d="M 1228 2134 
Q 725 2547 579 2797 
Q 434 3047 434 3316 
Q 434 3728 753 4026 
Q 1072 4325 1600 4325 
Q 2113 4325 2425 4047 
Q 2738 3769 2738 3413 
Q 2738 3175 2569 2928 
Q 2400 2681 1866 2347 
Q 2416 1922 2594 1678 
Q 2831 1359 2831 1006 
Q 2831 559 2490 242 
Q 2150 -75 1597 -75 
Q 994 -75 656 303 
Q 388 606 388 966 
Q 388 1247 577 1523 
Q 766 1800 1228 2134 
z
M 1719 2469 
Q 2094 2806 2194 3001 
Q 2294 3197 2294 3444 
Q 2294 3772 2109 3958 
Q 1925 4144 1606 4144 
Q 1288 4144 1088 3959 
Q 888 3775 888 3528 
Q 888 3366 970 3203 
Q 1053 3041 1206 2894 
L 1719 2469 
z
M 1375 2016 
Q 1116 1797 991 1539 
Q 866 1281 866 981 
Q 866 578 1086 336 
Q 1306 94 1647 94 
Q 1984 94 2187 284 
Q 2391 475 2391 747 
Q 2391 972 2272 1150 
Q 2050 1481 1375 2016 
z
" id="TimesNewRomanPSMT-38" transform="scale(0.015625)"/>
      <path d="M 1794 4444 
L 259 -88 
L 9 -88 
L 1544 4444 
L 1794 4444 
z
" id="TimesNewRomanPSMT-2f" transform="scale(0.015625)"/>
     </defs>
     <use xlink:href="#TimesNewRomanPSMT-56"/>
     <use x="72.216797" xlink:href="#TimesNewRomanPSMT-73"/>
     <use x="111.132812" xlink:href="#TimesNewRomanPSMT-3a"/>
     <use x="138.916016" xlink:href="#TimesNewRomanPSMT-20"/>
     <use x="163.916016" xlink:href="#TimesNewRomanPSMT-32"/>
     <use x="213.916016" xlink:href="#TimesNewRomanPSMT-36"/>
     <use x="263.916016" xlink:href="#TimesNewRomanPSMT-35"/>
     <use x="313.916016" xlink:href="#TimesNewRomanPSMT-2e"/>
     <use x="338.916016" xlink:href="#TimesNewRomanPSMT-38"/>
     <use x="388.916016" xlink:href="#TimesNewRomanPSMT-32"/>
     <use x="438.916016" xlink:href="#TimesNewRomanPSMT-6d"/>
     <use x="516.699219" xlink:href="#TimesNewRomanPSMT-2f"/>
     <use x="544.482422" xlink:href="#TimesNewRomanPSMT-73"/>
    </g>
   </g>
  </g>
 </g>
 <defs>
  <clipPath id="pddbf57bb04">
   <rect height="332.64" width="334.8" x="63.336875" y="7.41724"/>
  </clipPath>
 </defs>
</svg>
