<?xml version="1.0" encoding="utf-8" standalone="no"?>
<!DOCTYPE svg PUBLIC "-//W3C//DTD SVG 1.1//EN"
  "http://www.w3.org/Graphics/SVG/1.1/DTD/svg11.dtd">
<svg height="383.471875pt" version="1.1" viewBox="0 0 421.086875 383.471875" width="421.086875pt" xmlns="http://www.w3.org/2000/svg" xmlns:xlink="http://www.w3.org/1999/xlink">
 <metadata>
  <rdf:RDF xmlns:cc="http://creativecommons.org/ns#" xmlns:dc="http://purl.org/dc/elements/1.1/" xmlns:rdf="http://www.w3.org/1999/02/22-rdf-syntax-ns#">
   <cc:Work>
    <dc:type rdf:resource="http://purl.org/dc/dcmitype/StillImage"/>
    <dc:date>2021-06-11T14:39:36.938661</dc:date>
    <dc:format>image/svg+xml</dc:format>
    <dc:creator>
     <cc:Agent>
      <dc:title>Matplotlib v3.4.2, https://matplotlib.org/</dc:title>
     </cc:Agent>
    </dc:creator>
   </cc:Work>
  </rdf:RDF>
 </metadata>
 <defs>
  <style type="text/css">*{stroke-linecap:butt;stroke-linejoin:round;}</style>
 </defs>
 <g id="figure_1">
  <g id="patch_1">
   <path d="M 0 383.471875 
L 421.086875 383.471875 
L 421.086875 0 
L 0 0 
z
" style="fill:#ffffff;"/>
  </g>
  <g id="axes_1">
   <g id="patch_2">
    <path d="M 63.336875 339.84 
L 398.136875 339.84 
L 398.136875 7.2 
L 63.336875 7.2 
z
" style="fill:#ffffff;"/>
   </g>
   <g id="matplotlib.axis_1">
    <g id="xtick_1">
     <g id="line2d_1">
      <path clip-path="url(#pe60477002b)" d="M 93.773239 339.84 
L 93.773239 7.2 
" style="fill:none;stroke:#000000;stroke-dasharray:0.5,0.825;stroke-dashoffset:0;stroke-width:0.5;"/>
     </g>
     <g id="line2d_2">
      <defs>
       <path d="M 0 0 
L 0 3.5 
" id="m60e27546f0" style="stroke:#000000;stroke-width:0.8;"/>
      </defs>
      <g>
       <use style="stroke:#000000;stroke-width:0.8;" x="93.773239" xlink:href="#m60e27546f0" y="339.84"/>
      </g>
     </g>
     <g id="text_1">
      <!-- 0.000 -->
      <g transform="translate(78.023239 356.56125)scale(0.14 -0.14)">
       <defs>
        <path d="M 231 2094 
Q 231 2819 450 3342 
Q 669 3866 1031 4122 
Q 1313 4325 1613 4325 
Q 2100 4325 2488 3828 
Q 2972 3213 2972 2159 
Q 2972 1422 2759 906 
Q 2547 391 2217 158 
Q 1888 -75 1581 -75 
Q 975 -75 572 641 
Q 231 1244 231 2094 
z
M 844 2016 
Q 844 1141 1059 588 
Q 1238 122 1591 122 
Q 1759 122 1940 273 
Q 2122 425 2216 781 
Q 2359 1319 2359 2297 
Q 2359 3022 2209 3506 
Q 2097 3866 1919 4016 
Q 1791 4119 1609 4119 
Q 1397 4119 1231 3928 
Q 1006 3669 925 3112 
Q 844 2556 844 2016 
z
" id="TimesNewRomanPSMT-30" transform="scale(0.015625)"/>
        <path d="M 800 606 
Q 947 606 1047 504 
Q 1147 403 1147 259 
Q 1147 116 1045 14 
Q 944 -88 800 -88 
Q 656 -88 554 14 
Q 453 116 453 259 
Q 453 406 554 506 
Q 656 606 800 606 
z
" id="TimesNewRomanPSMT-2e" transform="scale(0.015625)"/>
       </defs>
       <use xlink:href="#TimesNewRomanPSMT-30"/>
       <use x="50" xlink:href="#TimesNewRomanPSMT-2e"/>
       <use x="75" xlink:href="#TimesNewRomanPSMT-30"/>
       <use x="125" xlink:href="#TimesNewRomanPSMT-30"/>
       <use x="175" xlink:href="#TimesNewRomanPSMT-30"/>
      </g>
     </g>
    </g>
    <g id="xtick_2">
     <g id="line2d_3">
      <path clip-path="url(#pe60477002b)" d="M 154.645966 339.84 
L 154.645966 7.2 
" style="fill:none;stroke:#000000;stroke-dasharray:0.5,0.825;stroke-dashoffset:0;stroke-width:0.5;"/>
     </g>
     <g id="line2d_4">
      <g>
       <use style="stroke:#000000;stroke-width:0.8;" x="154.645966" xlink:href="#m60e27546f0" y="339.84"/>
      </g>
     </g>
     <g id="text_2">
      <!-- 0.001 -->
      <g transform="translate(138.895966 356.56125)scale(0.14 -0.14)">
       <defs>
        <path d="M 750 3822 
L 1781 4325 
L 1884 4325 
L 1884 747 
Q 1884 391 1914 303 
Q 1944 216 2037 169 
Q 2131 122 2419 116 
L 2419 0 
L 825 0 
L 825 116 
Q 1125 122 1212 167 
Q 1300 213 1334 289 
Q 1369 366 1369 747 
L 1369 3034 
Q 1369 3497 1338 3628 
Q 1316 3728 1258 3775 
Q 1200 3822 1119 3822 
Q 1003 3822 797 3725 
L 750 3822 
z
" id="TimesNewRomanPSMT-31" transform="scale(0.015625)"/>
       </defs>
       <use xlink:href="#TimesNewRomanPSMT-30"/>
       <use x="50" xlink:href="#TimesNewRomanPSMT-2e"/>
       <use x="75" xlink:href="#TimesNewRomanPSMT-30"/>
       <use x="125" xlink:href="#TimesNewRomanPSMT-30"/>
       <use x="175" xlink:href="#TimesNewRomanPSMT-31"/>
      </g>
     </g>
    </g>
    <g id="xtick_3">
     <g id="line2d_5">
      <path clip-path="url(#pe60477002b)" d="M 215.518693 339.84 
L 215.518693 7.2 
" style="fill:none;stroke:#000000;stroke-dasharray:0.5,0.825;stroke-dashoffset:0;stroke-width:0.5;"/>
     </g>
     <g id="line2d_6">
      <g>
       <use style="stroke:#000000;stroke-width:0.8;" x="215.518693" xlink:href="#m60e27546f0" y="339.84"/>
      </g>
     </g>
     <g id="text_3">
      <!-- 0.002 -->
      <g transform="translate(199.768693 356.56125)scale(0.14 -0.14)">
       <defs>
        <path d="M 2934 816 
L 2638 0 
L 138 0 
L 138 116 
Q 1241 1122 1691 1759 
Q 2141 2397 2141 2925 
Q 2141 3328 1894 3587 
Q 1647 3847 1303 3847 
Q 991 3847 742 3664 
Q 494 3481 375 3128 
L 259 3128 
Q 338 3706 661 4015 
Q 984 4325 1469 4325 
Q 1984 4325 2329 3994 
Q 2675 3663 2675 3213 
Q 2675 2891 2525 2569 
Q 2294 2063 1775 1497 
Q 997 647 803 472 
L 1909 472 
Q 2247 472 2383 497 
Q 2519 522 2628 598 
Q 2738 675 2819 816 
L 2934 816 
z
" id="TimesNewRomanPSMT-32" transform="scale(0.015625)"/>
       </defs>
       <use xlink:href="#TimesNewRomanPSMT-30"/>
       <use x="50" xlink:href="#TimesNewRomanPSMT-2e"/>
       <use x="75" xlink:href="#TimesNewRomanPSMT-30"/>
       <use x="125" xlink:href="#TimesNewRomanPSMT-30"/>
       <use x="175" xlink:href="#TimesNewRomanPSMT-32"/>
      </g>
     </g>
    </g>
    <g id="xtick_4">
     <g id="line2d_7">
      <path clip-path="url(#pe60477002b)" d="M 276.39142 339.84 
L 276.39142 7.2 
" style="fill:none;stroke:#000000;stroke-dasharray:0.5,0.825;stroke-dashoffset:0;stroke-width:0.5;"/>
     </g>
     <g id="line2d_8">
      <g>
       <use style="stroke:#000000;stroke-width:0.8;" x="276.39142" xlink:href="#m60e27546f0" y="339.84"/>
      </g>
     </g>
     <g id="text_4">
      <!-- 0.003 -->
      <g transform="translate(260.64142 356.56125)scale(0.14 -0.14)">
       <defs>
        <path d="M 325 3431 
Q 506 3859 782 4092 
Q 1059 4325 1472 4325 
Q 1981 4325 2253 3994 
Q 2459 3747 2459 3466 
Q 2459 3003 1878 2509 
Q 2269 2356 2469 2072 
Q 2669 1788 2669 1403 
Q 2669 853 2319 450 
Q 1863 -75 997 -75 
Q 569 -75 414 31 
Q 259 138 259 259 
Q 259 350 332 419 
Q 406 488 509 488 
Q 588 488 669 463 
Q 722 447 909 348 
Q 1097 250 1169 231 
Q 1284 197 1416 197 
Q 1734 197 1970 444 
Q 2206 691 2206 1028 
Q 2206 1275 2097 1509 
Q 2016 1684 1919 1775 
Q 1784 1900 1550 2001 
Q 1316 2103 1072 2103 
L 972 2103 
L 972 2197 
Q 1219 2228 1467 2375 
Q 1716 2522 1828 2728 
Q 1941 2934 1941 3181 
Q 1941 3503 1739 3701 
Q 1538 3900 1238 3900 
Q 753 3900 428 3381 
L 325 3431 
z
" id="TimesNewRomanPSMT-33" transform="scale(0.015625)"/>
       </defs>
       <use xlink:href="#TimesNewRomanPSMT-30"/>
       <use x="50" xlink:href="#TimesNewRomanPSMT-2e"/>
       <use x="75" xlink:href="#TimesNewRomanPSMT-30"/>
       <use x="125" xlink:href="#TimesNewRomanPSMT-30"/>
       <use x="175" xlink:href="#TimesNewRomanPSMT-33"/>
      </g>
     </g>
    </g>
    <g id="xtick_5">
     <g id="line2d_9">
      <path clip-path="url(#pe60477002b)" d="M 337.264148 339.84 
L 337.264148 7.2 
" style="fill:none;stroke:#000000;stroke-dasharray:0.5,0.825;stroke-dashoffset:0;stroke-width:0.5;"/>
     </g>
     <g id="line2d_10">
      <g>
       <use style="stroke:#000000;stroke-width:0.8;" x="337.264148" xlink:href="#m60e27546f0" y="339.84"/>
      </g>
     </g>
     <g id="text_5">
      <!-- 0.004 -->
      <g transform="translate(321.514148 356.56125)scale(0.14 -0.14)">
       <defs>
        <path d="M 2978 1563 
L 2978 1119 
L 2409 1119 
L 2409 0 
L 1894 0 
L 1894 1119 
L 100 1119 
L 100 1519 
L 2066 4325 
L 2409 4325 
L 2409 1563 
L 2978 1563 
z
M 1894 1563 
L 1894 3666 
L 406 1563 
L 1894 1563 
z
" id="TimesNewRomanPSMT-34" transform="scale(0.015625)"/>
       </defs>
       <use xlink:href="#TimesNewRomanPSMT-30"/>
       <use x="50" xlink:href="#TimesNewRomanPSMT-2e"/>
       <use x="75" xlink:href="#TimesNewRomanPSMT-30"/>
       <use x="125" xlink:href="#TimesNewRomanPSMT-30"/>
       <use x="175" xlink:href="#TimesNewRomanPSMT-34"/>
      </g>
     </g>
    </g>
    <g id="xtick_6">
     <g id="line2d_11">
      <path clip-path="url(#pe60477002b)" d="M 398.136875 339.84 
L 398.136875 7.2 
" style="fill:none;stroke:#000000;stroke-dasharray:0.5,0.825;stroke-dashoffset:0;stroke-width:0.5;"/>
     </g>
     <g id="line2d_12">
      <g>
       <use style="stroke:#000000;stroke-width:0.8;" x="398.136875" xlink:href="#m60e27546f0" y="339.84"/>
      </g>
     </g>
     <g id="text_6">
      <!-- 0.005 -->
      <g transform="translate(382.386875 356.56125)scale(0.14 -0.14)">
       <defs>
        <path d="M 2778 4238 
L 2534 3706 
L 1259 3706 
L 981 3138 
Q 1809 3016 2294 2522 
Q 2709 2097 2709 1522 
Q 2709 1188 2573 903 
Q 2438 619 2231 419 
Q 2025 219 1772 97 
Q 1413 -75 1034 -75 
Q 653 -75 479 54 
Q 306 184 306 341 
Q 306 428 378 495 
Q 450 563 559 563 
Q 641 563 702 538 
Q 763 513 909 409 
Q 1144 247 1384 247 
Q 1750 247 2026 523 
Q 2303 800 2303 1197 
Q 2303 1581 2056 1914 
Q 1809 2247 1375 2428 
Q 1034 2569 447 2591 
L 1259 4238 
L 2778 4238 
z
" id="TimesNewRomanPSMT-35" transform="scale(0.015625)"/>
       </defs>
       <use xlink:href="#TimesNewRomanPSMT-30"/>
       <use x="50" xlink:href="#TimesNewRomanPSMT-2e"/>
       <use x="75" xlink:href="#TimesNewRomanPSMT-30"/>
       <use x="125" xlink:href="#TimesNewRomanPSMT-30"/>
       <use x="175" xlink:href="#TimesNewRomanPSMT-35"/>
      </g>
     </g>
    </g>
    <g id="text_7">
     <!-- Time (sec) -->
     <g transform="translate(200.858906 373.277188)scale(0.14 -0.14)">
      <defs>
       <path d="M 3703 4238 
L 3750 3244 
L 3631 3244 
Q 3597 3506 3538 3619 
Q 3441 3800 3280 3886 
Q 3119 3972 2856 3972 
L 2259 3972 
L 2259 734 
Q 2259 344 2344 247 
Q 2463 116 2709 116 
L 2856 116 
L 2856 0 
L 1059 0 
L 1059 116 
L 1209 116 
Q 1478 116 1591 278 
Q 1659 378 1659 734 
L 1659 3972 
L 1150 3972 
Q 853 3972 728 3928 
Q 566 3869 450 3700 
Q 334 3531 313 3244 
L 194 3244 
L 244 4238 
L 3703 4238 
z
" id="TimesNewRomanPSMT-54" transform="scale(0.015625)"/>
       <path d="M 928 4444 
Q 1059 4444 1151 4351 
Q 1244 4259 1244 4128 
Q 1244 3997 1151 3903 
Q 1059 3809 928 3809 
Q 797 3809 703 3903 
Q 609 3997 609 4128 
Q 609 4259 701 4351 
Q 794 4444 928 4444 
z
M 1188 2947 
L 1188 647 
Q 1188 378 1227 289 
Q 1266 200 1342 156 
Q 1419 113 1622 113 
L 1622 0 
L 231 0 
L 231 113 
Q 441 113 512 153 
Q 584 194 626 287 
Q 669 381 669 647 
L 669 1750 
Q 669 2216 641 2353 
Q 619 2453 572 2492 
Q 525 2531 444 2531 
Q 356 2531 231 2484 
L 188 2597 
L 1050 2947 
L 1188 2947 
z
" id="TimesNewRomanPSMT-69" transform="scale(0.015625)"/>
       <path d="M 1050 2338 
Q 1363 2650 1419 2697 
Q 1559 2816 1721 2881 
Q 1884 2947 2044 2947 
Q 2313 2947 2506 2790 
Q 2700 2634 2766 2338 
Q 3088 2713 3309 2830 
Q 3531 2947 3766 2947 
Q 3994 2947 4170 2830 
Q 4347 2713 4450 2447 
Q 4519 2266 4519 1878 
L 4519 647 
Q 4519 378 4559 278 
Q 4591 209 4675 161 
Q 4759 113 4950 113 
L 4950 0 
L 3538 0 
L 3538 113 
L 3597 113 
Q 3781 113 3884 184 
Q 3956 234 3988 344 
Q 4000 397 4000 647 
L 4000 1878 
Q 4000 2228 3916 2372 
Q 3794 2572 3525 2572 
Q 3359 2572 3192 2489 
Q 3025 2406 2788 2181 
L 2781 2147 
L 2788 2013 
L 2788 647 
Q 2788 353 2820 281 
Q 2853 209 2943 161 
Q 3034 113 3253 113 
L 3253 0 
L 1806 0 
L 1806 113 
Q 2044 113 2133 169 
Q 2222 225 2256 338 
Q 2272 391 2272 647 
L 2272 1878 
Q 2272 2228 2169 2381 
Q 2031 2581 1784 2581 
Q 1616 2581 1450 2491 
Q 1191 2353 1050 2181 
L 1050 647 
Q 1050 366 1089 281 
Q 1128 197 1204 155 
Q 1281 113 1516 113 
L 1516 0 
L 100 0 
L 100 113 
Q 297 113 375 155 
Q 453 197 493 289 
Q 534 381 534 647 
L 534 1741 
Q 534 2213 506 2350 
Q 484 2453 437 2492 
Q 391 2531 309 2531 
Q 222 2531 100 2484 
L 53 2597 
L 916 2947 
L 1050 2947 
L 1050 2338 
z
" id="TimesNewRomanPSMT-6d" transform="scale(0.015625)"/>
       <path d="M 681 1784 
Q 678 1147 991 784 
Q 1303 422 1725 422 
Q 2006 422 2214 576 
Q 2422 731 2563 1106 
L 2659 1044 
Q 2594 616 2278 264 
Q 1963 -88 1488 -88 
Q 972 -88 605 314 
Q 238 716 238 1394 
Q 238 2128 614 2539 
Q 991 2950 1559 2950 
Q 2041 2950 2350 2633 
Q 2659 2316 2659 1784 
L 681 1784 
z
M 681 1966 
L 2006 1966 
Q 1991 2241 1941 2353 
Q 1863 2528 1708 2628 
Q 1553 2728 1384 2728 
Q 1125 2728 920 2526 
Q 716 2325 681 1966 
z
" id="TimesNewRomanPSMT-65" transform="scale(0.015625)"/>
       <path id="TimesNewRomanPSMT-20" transform="scale(0.015625)"/>
       <path d="M 1988 -1253 
L 1988 -1369 
Q 1516 -1131 1200 -813 
Q 750 -359 506 256 
Q 263 872 263 1534 
Q 263 2503 741 3301 
Q 1219 4100 1988 4444 
L 1988 4313 
Q 1603 4100 1356 3731 
Q 1109 3363 987 2797 
Q 866 2231 866 1616 
Q 866 947 969 400 
Q 1050 -31 1165 -292 
Q 1281 -553 1476 -793 
Q 1672 -1034 1988 -1253 
z
" id="TimesNewRomanPSMT-28" transform="scale(0.015625)"/>
       <path d="M 2050 2947 
L 2050 1972 
L 1947 1972 
Q 1828 2431 1642 2597 
Q 1456 2763 1169 2763 
Q 950 2763 815 2647 
Q 681 2531 681 2391 
Q 681 2216 781 2091 
Q 878 1963 1175 1819 
L 1631 1597 
Q 2266 1288 2266 781 
Q 2266 391 1970 151 
Q 1675 -88 1309 -88 
Q 1047 -88 709 6 
Q 606 38 541 38 
Q 469 38 428 -44 
L 325 -44 
L 325 978 
L 428 978 
Q 516 541 762 319 
Q 1009 97 1316 97 
Q 1531 97 1667 223 
Q 1803 350 1803 528 
Q 1803 744 1651 891 
Q 1500 1038 1047 1263 
Q 594 1488 453 1669 
Q 313 1847 313 2119 
Q 313 2472 555 2709 
Q 797 2947 1181 2947 
Q 1350 2947 1591 2875 
Q 1750 2828 1803 2828 
Q 1853 2828 1881 2850 
Q 1909 2872 1947 2947 
L 2050 2947 
z
" id="TimesNewRomanPSMT-73" transform="scale(0.015625)"/>
       <path d="M 2631 1088 
Q 2516 522 2178 217 
Q 1841 -88 1431 -88 
Q 944 -88 581 321 
Q 219 731 219 1428 
Q 219 2103 620 2525 
Q 1022 2947 1584 2947 
Q 2006 2947 2278 2723 
Q 2550 2500 2550 2259 
Q 2550 2141 2473 2067 
Q 2397 1994 2259 1994 
Q 2075 1994 1981 2113 
Q 1928 2178 1911 2362 
Q 1894 2547 1784 2644 
Q 1675 2738 1481 2738 
Q 1169 2738 978 2506 
Q 725 2200 725 1697 
Q 725 1184 976 792 
Q 1228 400 1656 400 
Q 1963 400 2206 609 
Q 2378 753 2541 1131 
L 2631 1088 
z
" id="TimesNewRomanPSMT-63" transform="scale(0.015625)"/>
       <path d="M 144 4313 
L 144 4444 
Q 619 4209 934 3891 
Q 1381 3434 1625 2820 
Q 1869 2206 1869 1541 
Q 1869 572 1392 -226 
Q 916 -1025 144 -1369 
L 144 -1253 
Q 528 -1038 776 -670 
Q 1025 -303 1145 264 
Q 1266 831 1266 1447 
Q 1266 2113 1163 2663 
Q 1084 3094 967 3353 
Q 850 3613 656 3853 
Q 463 4094 144 4313 
z
" id="TimesNewRomanPSMT-29" transform="scale(0.015625)"/>
      </defs>
      <use xlink:href="#TimesNewRomanPSMT-54"/>
      <use x="57.583984" xlink:href="#TimesNewRomanPSMT-69"/>
      <use x="85.367188" xlink:href="#TimesNewRomanPSMT-6d"/>
      <use x="163.150391" xlink:href="#TimesNewRomanPSMT-65"/>
      <use x="207.535156" xlink:href="#TimesNewRomanPSMT-20"/>
      <use x="232.535156" xlink:href="#TimesNewRomanPSMT-28"/>
      <use x="265.835938" xlink:href="#TimesNewRomanPSMT-73"/>
      <use x="304.751953" xlink:href="#TimesNewRomanPSMT-65"/>
      <use x="349.136719" xlink:href="#TimesNewRomanPSMT-63"/>
      <use x="393.521484" xlink:href="#TimesNewRomanPSMT-29"/>
     </g>
    </g>
   </g>
   <g id="matplotlib.axis_2">
    <g id="ytick_1">
     <g id="line2d_13">
      <path clip-path="url(#pe60477002b)" d="M 63.336875 282.243777 
L 398.136875 282.243777 
" style="fill:none;stroke:#000000;stroke-dasharray:0.5,0.825;stroke-dashoffset:0;stroke-width:0.5;"/>
     </g>
     <g id="line2d_14">
      <defs>
       <path d="M 0 0 
L -3.5 0 
" id="md288a20f14" style="stroke:#000000;stroke-width:0.8;"/>
      </defs>
      <g>
       <use style="stroke:#000000;stroke-width:0.8;" x="63.336875" xlink:href="#md288a20f14" y="282.243777"/>
      </g>
     </g>
     <g id="text_8">
      <!-- −0.04 -->
      <g transform="translate(23.942188 287.104402)scale(0.14 -0.14)">
       <defs>
        <path d="M 3484 2000 
L 116 2000 
L 116 2256 
L 3484 2256 
L 3484 2000 
z
" id="TimesNewRomanPSMT-2212" transform="scale(0.015625)"/>
       </defs>
       <use xlink:href="#TimesNewRomanPSMT-2212"/>
       <use x="56.396484" xlink:href="#TimesNewRomanPSMT-30"/>
       <use x="106.396484" xlink:href="#TimesNewRomanPSMT-2e"/>
       <use x="131.396484" xlink:href="#TimesNewRomanPSMT-30"/>
       <use x="181.396484" xlink:href="#TimesNewRomanPSMT-34"/>
      </g>
     </g>
    </g>
    <g id="ytick_2">
     <g id="line2d_15">
      <path clip-path="url(#pe60477002b)" d="M 63.336875 217.920457 
L 398.136875 217.920457 
" style="fill:none;stroke:#000000;stroke-dasharray:0.5,0.825;stroke-dashoffset:0;stroke-width:0.5;"/>
     </g>
     <g id="line2d_16">
      <g>
       <use style="stroke:#000000;stroke-width:0.8;" x="63.336875" xlink:href="#md288a20f14" y="217.920457"/>
      </g>
     </g>
     <g id="text_9">
      <!-- −0.02 -->
      <g transform="translate(23.942188 222.781082)scale(0.14 -0.14)">
       <use xlink:href="#TimesNewRomanPSMT-2212"/>
       <use x="56.396484" xlink:href="#TimesNewRomanPSMT-30"/>
       <use x="106.396484" xlink:href="#TimesNewRomanPSMT-2e"/>
       <use x="131.396484" xlink:href="#TimesNewRomanPSMT-30"/>
       <use x="181.396484" xlink:href="#TimesNewRomanPSMT-32"/>
      </g>
     </g>
    </g>
    <g id="ytick_3">
     <g id="line2d_17">
      <path clip-path="url(#pe60477002b)" d="M 63.336875 153.597136 
L 398.136875 153.597136 
" style="fill:none;stroke:#000000;stroke-dasharray:0.5,0.825;stroke-dashoffset:0;stroke-width:0.5;"/>
     </g>
     <g id="line2d_18">
      <g>
       <use style="stroke:#000000;stroke-width:0.8;" x="63.336875" xlink:href="#md288a20f14" y="153.597136"/>
      </g>
     </g>
     <g id="text_10">
      <!-- 0.00 -->
      <g transform="translate(31.836875 158.457761)scale(0.14 -0.14)">
       <use xlink:href="#TimesNewRomanPSMT-30"/>
       <use x="50" xlink:href="#TimesNewRomanPSMT-2e"/>
       <use x="75" xlink:href="#TimesNewRomanPSMT-30"/>
       <use x="125" xlink:href="#TimesNewRomanPSMT-30"/>
      </g>
     </g>
    </g>
    <g id="ytick_4">
     <g id="line2d_19">
      <path clip-path="url(#pe60477002b)" d="M 63.336875 89.273816 
L 398.136875 89.273816 
" style="fill:none;stroke:#000000;stroke-dasharray:0.5,0.825;stroke-dashoffset:0;stroke-width:0.5;"/>
     </g>
     <g id="line2d_20">
      <g>
       <use style="stroke:#000000;stroke-width:0.8;" x="63.336875" xlink:href="#md288a20f14" y="89.273816"/>
      </g>
     </g>
     <g id="text_11">
      <!-- 0.02 -->
      <g transform="translate(31.836875 94.134441)scale(0.14 -0.14)">
       <use xlink:href="#TimesNewRomanPSMT-30"/>
       <use x="50" xlink:href="#TimesNewRomanPSMT-2e"/>
       <use x="75" xlink:href="#TimesNewRomanPSMT-30"/>
       <use x="125" xlink:href="#TimesNewRomanPSMT-32"/>
      </g>
     </g>
    </g>
    <g id="ytick_5">
     <g id="line2d_21">
      <path clip-path="url(#pe60477002b)" d="M 63.336875 24.950496 
L 398.136875 24.950496 
" style="fill:none;stroke:#000000;stroke-dasharray:0.5,0.825;stroke-dashoffset:0;stroke-width:0.5;"/>
     </g>
     <g id="line2d_22">
      <g>
       <use style="stroke:#000000;stroke-width:0.8;" x="63.336875" xlink:href="#md288a20f14" y="24.950496"/>
      </g>
     </g>
     <g id="text_12">
      <!-- 0.04 -->
      <g transform="translate(31.836875 29.811121)scale(0.14 -0.14)">
       <use xlink:href="#TimesNewRomanPSMT-30"/>
       <use x="50" xlink:href="#TimesNewRomanPSMT-2e"/>
       <use x="75" xlink:href="#TimesNewRomanPSMT-30"/>
       <use x="125" xlink:href="#TimesNewRomanPSMT-34"/>
      </g>
     </g>
    </g>
    <g id="text_13">
     <!-- Volatage (V) -->
     <g transform="translate(16.92125 209.352344)rotate(-90)scale(0.14 -0.14)">
      <defs>
       <path d="M 4544 4238 
L 4544 4122 
Q 4319 4081 4203 3978 
Q 4038 3825 3909 3509 
L 2431 -97 
L 2316 -97 
L 728 3556 
Q 606 3838 556 3900 
Q 478 3997 364 4051 
Q 250 4106 56 4122 
L 56 4238 
L 1788 4238 
L 1788 4122 
Q 1494 4094 1406 4022 
Q 1319 3950 1319 3838 
Q 1319 3681 1463 3350 
L 2541 866 
L 3541 3319 
Q 3688 3681 3688 3822 
Q 3688 3913 3597 3995 
Q 3506 4078 3291 4113 
Q 3275 4116 3238 4122 
L 3238 4238 
L 4544 4238 
z
" id="TimesNewRomanPSMT-56" transform="scale(0.015625)"/>
       <path d="M 1600 2947 
Q 2250 2947 2644 2453 
Q 2978 2031 2978 1484 
Q 2978 1100 2793 706 
Q 2609 313 2286 112 
Q 1963 -88 1566 -88 
Q 919 -88 538 428 
Q 216 863 216 1403 
Q 216 1797 411 2186 
Q 606 2575 925 2761 
Q 1244 2947 1600 2947 
z
M 1503 2744 
Q 1338 2744 1170 2645 
Q 1003 2547 900 2300 
Q 797 2053 797 1666 
Q 797 1041 1045 587 
Q 1294 134 1700 134 
Q 2003 134 2200 384 
Q 2397 634 2397 1244 
Q 2397 2006 2069 2444 
Q 1847 2744 1503 2744 
z
" id="TimesNewRomanPSMT-6f" transform="scale(0.015625)"/>
       <path d="M 1184 4444 
L 1184 647 
Q 1184 378 1223 290 
Q 1263 203 1344 158 
Q 1425 113 1647 113 
L 1647 0 
L 244 0 
L 244 113 
Q 441 113 512 153 
Q 584 194 625 287 
Q 666 381 666 647 
L 666 3247 
Q 666 3731 644 3842 
Q 622 3953 573 3993 
Q 525 4034 450 4034 
Q 369 4034 244 3984 
L 191 4094 
L 1044 4444 
L 1184 4444 
z
" id="TimesNewRomanPSMT-6c" transform="scale(0.015625)"/>
       <path d="M 1822 413 
Q 1381 72 1269 19 
Q 1100 -59 909 -59 
Q 613 -59 420 144 
Q 228 347 228 678 
Q 228 888 322 1041 
Q 450 1253 767 1440 
Q 1084 1628 1822 1897 
L 1822 2009 
Q 1822 2438 1686 2597 
Q 1550 2756 1291 2756 
Q 1094 2756 978 2650 
Q 859 2544 859 2406 
L 866 2225 
Q 866 2081 792 2003 
Q 719 1925 600 1925 
Q 484 1925 411 2006 
Q 338 2088 338 2228 
Q 338 2497 613 2722 
Q 888 2947 1384 2947 
Q 1766 2947 2009 2819 
Q 2194 2722 2281 2516 
Q 2338 2381 2338 1966 
L 2338 994 
Q 2338 584 2353 492 
Q 2369 400 2405 369 
Q 2441 338 2488 338 
Q 2538 338 2575 359 
Q 2641 400 2828 588 
L 2828 413 
Q 2478 -56 2159 -56 
Q 2006 -56 1915 50 
Q 1825 156 1822 413 
z
M 1822 616 
L 1822 1706 
Q 1350 1519 1213 1441 
Q 966 1303 859 1153 
Q 753 1003 753 825 
Q 753 600 887 451 
Q 1022 303 1197 303 
Q 1434 303 1822 616 
z
" id="TimesNewRomanPSMT-61" transform="scale(0.015625)"/>
       <path d="M 1031 3803 
L 1031 2863 
L 1700 2863 
L 1700 2644 
L 1031 2644 
L 1031 788 
Q 1031 509 1111 412 
Q 1191 316 1316 316 
Q 1419 316 1516 380 
Q 1613 444 1666 569 
L 1788 569 
Q 1678 263 1478 108 
Q 1278 -47 1066 -47 
Q 922 -47 784 33 
Q 647 113 581 261 
Q 516 409 516 719 
L 516 2644 
L 63 2644 
L 63 2747 
Q 234 2816 414 2980 
Q 594 3144 734 3369 
Q 806 3488 934 3803 
L 1031 3803 
z
" id="TimesNewRomanPSMT-74" transform="scale(0.015625)"/>
       <path d="M 966 1044 
Q 703 1172 562 1401 
Q 422 1631 422 1909 
Q 422 2334 742 2640 
Q 1063 2947 1563 2947 
Q 1972 2947 2272 2747 
L 2878 2747 
Q 3013 2747 3034 2739 
Q 3056 2731 3066 2713 
Q 3084 2684 3084 2613 
Q 3084 2531 3069 2500 
Q 3059 2484 3036 2475 
Q 3013 2466 2878 2466 
L 2506 2466 
Q 2681 2241 2681 1891 
Q 2681 1491 2375 1206 
Q 2069 922 1553 922 
Q 1341 922 1119 984 
Q 981 866 932 777 
Q 884 688 884 625 
Q 884 572 936 522 
Q 988 472 1138 450 
Q 1225 438 1575 428 
Q 2219 413 2409 384 
Q 2700 344 2873 169 
Q 3047 -6 3047 -263 
Q 3047 -616 2716 -925 
Q 2228 -1381 1444 -1381 
Q 841 -1381 425 -1109 
Q 191 -953 191 -784 
Q 191 -709 225 -634 
Q 278 -519 444 -313 
Q 466 -284 763 25 
Q 600 122 533 198 
Q 466 275 466 372 
Q 466 481 555 628 
Q 644 775 966 1044 
z
M 1509 2797 
Q 1278 2797 1122 2612 
Q 966 2428 966 2047 
Q 966 1553 1178 1281 
Q 1341 1075 1591 1075 
Q 1828 1075 1981 1253 
Q 2134 1431 2134 1813 
Q 2134 2309 1919 2591 
Q 1759 2797 1509 2797 
z
M 934 0 
Q 788 -159 713 -296 
Q 638 -434 638 -550 
Q 638 -700 819 -813 
Q 1131 -1006 1722 -1006 
Q 2284 -1006 2551 -807 
Q 2819 -609 2819 -384 
Q 2819 -222 2659 -153 
Q 2497 -84 2016 -72 
Q 1313 -53 934 0 
z
" id="TimesNewRomanPSMT-67" transform="scale(0.015625)"/>
      </defs>
      <use xlink:href="#TimesNewRomanPSMT-56"/>
      <use x="59.341797" xlink:href="#TimesNewRomanPSMT-6f"/>
      <use x="109.341797" xlink:href="#TimesNewRomanPSMT-6c"/>
      <use x="137.125" xlink:href="#TimesNewRomanPSMT-61"/>
      <use x="181.509766" xlink:href="#TimesNewRomanPSMT-74"/>
      <use x="209.292969" xlink:href="#TimesNewRomanPSMT-61"/>
      <use x="253.677734" xlink:href="#TimesNewRomanPSMT-67"/>
      <use x="303.677734" xlink:href="#TimesNewRomanPSMT-65"/>
      <use x="348.0625" xlink:href="#TimesNewRomanPSMT-20"/>
      <use x="373.0625" xlink:href="#TimesNewRomanPSMT-28"/>
      <use x="406.363281" xlink:href="#TimesNewRomanPSMT-56"/>
      <use x="478.580078" xlink:href="#TimesNewRomanPSMT-29"/>
     </g>
    </g>
   </g>
   <g id="LineCollection_1">
    <path clip-path="url(#pe60477002b)" d="M 78.555057 153.597136 
L 382.918693 153.597136 
" style="fill:none;stroke:#1f77b4;stroke-width:1.5;"/>
   </g>
   <g id="line2d_23">
    <path clip-path="url(#pe60477002b)" d="M 78.555057 153.619971 
L 84.520584 153.579769 
L 84.55102 153.499365 
L 84.611893 153.619971 
L 84.64233 153.539567 
L 84.794511 153.579769 
L 84.916257 153.499365 
L 85.038002 153.579769 
L 85.22062 153.499365 
L 85.342366 153.579769 
L 85.372802 153.539567 
L 85.464111 153.499365 
L 85.494548 153.539567 
L 85.585857 153.579769 
L 85.616293 153.539567 
L 88.112075 153.619971 
L 88.23382 153.660173 
L 88.386002 153.619971 
L 90.060002 153.539567 
L 90.212184 153.499365 
L 92.34273 153.539567 
L 92.373166 153.619971 
L 92.464475 153.579769 
L 96.329893 153.660173 
L 96.451639 153.660173 
L 98.156075 153.660173 
L 98.186511 153.539567 
L 98.27782 153.619971 
L 101.199711 153.539567 
L 101.321457 153.499365 
L 101.473639 153.579769 
L 101.62582 153.499365 
L 101.808439 153.579769 
L 101.991057 153.499365 
L 102.082366 153.539567 
L 102.112802 153.499365 
L 104.273784 153.418961 
L 104.425966 153.378759 
L 111.152402 153.418961 
L 111.182839 153.499365 
L 111.243711 153.459163 
L 111.365457 153.418961 
L 111.456766 153.539567 
L 111.487202 153.499365 
L 111.578511 153.459163 
L 111.608948 153.499365 
L 112.491602 153.539567 
L 112.552475 153.619971 
L 112.613348 153.579769 
L 113.161202 153.660173 
L 113.313384 153.700375 
L 113.556875 153.78078 
L 113.709057 153.861184 
L 113.739493 153.78078 
L 113.830802 153.820982 
L 114.287348 153.901386 
L 114.500402 154.021992 
L 114.622148 153.98179 
L 114.804766 154.102396 
L 114.926511 154.102396 
L 115.10913 154.1828 
L 115.474366 154.263204 
L 115.596111 154.343609 
L 115.626548 154.303406 
L 115.870039 154.383811 
L 116.02222 154.424013 
L 116.052657 154.383811 
L 116.11353 154.464215 
L 116.478766 154.544619 
L 116.600511 154.584821 
L 116.722257 154.584821 
L 116.844002 154.625023 
L 116.904875 154.584821 
L 116.935311 154.625023 
L 117.087493 154.665225 
L 117.391857 154.745629 
L 117.513602 154.785831 
L 117.604911 154.745629 
L 117.635348 154.785831 
L 117.78753 154.826033 
L 118.274511 154.906438 
L 118.426693 154.986842 
L 118.548439 154.986842 
L 118.761493 155.14765 
L 118.883239 155.107448 
L 119.065857 155.228054 
L 119.187602 155.228054 
L 119.278911 155.308458 
L 119.431093 155.34866 
L 119.583275 155.429065 
L 119.79633 155.549671 
L 120.03982 155.630075 
L 120.192002 155.750681 
L 120.46593 155.951692 
L 120.557239 156.032096 
L 120.983348 156.474319 
L 121.013784 156.434116 
L 121.04422 156.514521 
L 122.018184 157.961795 
L 122.322548 158.524624 
L 122.352984 158.524624 
L 122.657348 159.288464 
L 124.118293 163.429277 
L 124.422657 164.474532 
L 126.644511 173.680807 
L 127.07062 175.771314 
L 127.49673 177.861823 
L 127.922839 179.992532 
L 128.50113 182.726274 
L 129.262039 186.183651 
L 130.905602 192.294368 
L 130.996911 192.53558 
L 131.42302 193.822046 
L 131.575202 194.143663 
L 131.818693 194.706492 
L 132.457857 195.430129 
L 132.549166 195.430129 
L 132.670911 195.510534 
L 132.701348 195.470331 
L 133.005711 195.389927 
L 133.797057 194.183865 
L 135.349311 189.801839 
L 136.049348 186.585673 
L 136.597202 183.128296 
L 137.510293 176.374345 
L 139.823457 154.021992 
L 141.193093 136.453686 
L 142.532293 117.357699 
L 143.719311 100.271817 
L 146.702075 58.542063 
L 148.345639 40.290324 
L 150.17182 26.661811 
L 151.206657 22.96323 
L 151.663202 22.521007 
L 151.754511 22.4406 
L 151.93713 22.360196 
L 152.028439 22.360196 
L 152.119748 22.360196 
L 152.302366 22.4406 
L 152.393675 22.480799 
L 152.60673 22.76221 
L 152.667602 22.802418 
L 152.911093 23.325049 
L 152.94153 23.325049 
L 153.306766 24.370296 
L 153.398075 24.651711 
L 153.61113 25.455752 
L 154.585093 31.124251 
L 155.61993 40.169712 
L 156.746075 53.195187 
L 157.96353 70.683087 
L 159.485348 98.623536 
L 162.89422 172.997372 
L 165.420439 230.486339 
L 167.24662 266.788816 
L 168.494511 287.814492 
L 169.34673 299.674107 
L 170.990293 315.87555 
L 172.086002 322.388286 
L 173.02953 324.72 
L 173.059966 324.639593 
L 173.120839 324.679801 
L 173.242584 324.679801 
L 174.125239 323.353129 
L 174.673093 321.62444 
L 176.255784 312.699586 
L 177.655857 300.719368 
L 179.05593 284.759144 
L 181.703893 248.336057 
L 188.09553 148.75552 
L 189.252111 133.518934 
L 193.239275 87.407153 
L 193.939311 81.095428 
L 194.639348 75.748552 
L 197.04382 57.537015 
L 197.196002 56.531956 
L 198.017784 51.747913 
L 198.322148 50.662457 
L 198.687384 48.933767 
L 199.81353 44.873355 
L 199.874402 44.712543 
L 200.270075 43.10447 
L 200.300511 43.10447 
L 200.544002 42.380832 
L 200.848366 41.818006 
L 201.517966 40.330523 
L 201.913639 39.968701 
L 202.73542 39.928506 
L 202.857166 39.807893 
L 202.918039 39.727486 
L 203.009348 39.848102 
L 203.100657 39.807893 
L 203.252839 39.928506 
L 203.678948 40.330523 
L 203.861566 40.410927 
L 204.013748 40.451123 
L 204.226802 40.53153 
L 204.40942 40.73255 
L 204.74422 41.335572 
L 204.987711 41.858202 
L 205.41382 42.581839 
L 206.84433 46.119622 
L 206.874766 46.119622 
L 207.270439 47.245277 
L 207.726984 48.73276 
L 208.153093 49.979015 
L 208.457457 51.064471 
L 209.85753 57.054587 
L 210.344511 59.587317 
L 211.227166 63.527124 
L 212.87073 72.693194 
L 213.296839 75.668144 
L 213.722948 78.482289 
L 215.336075 92.110796 
L 216.12742 100.231615 
L 216.949202 108.794657 
L 217.740548 116.915477 
L 219.292802 134.483784 
L 222.15382 169.781206 
L 226.810584 229.883311 
L 227.449748 237.803117 
L 228.088911 245.521912 
L 228.667202 251.87384 
L 229.245493 258.145363 
L 230.736875 271.010028 
L 231.436911 275.271448 
L 232.045639 278.568027 
L 232.441311 280.135905 
L 232.654366 280.980145 
L 233.080475 282.708831 
L 233.689202 284.035506 
L 233.750075 284.11591 
L 234.389239 284.839548 
L 234.663166 284.638528 
L 234.724039 284.598332 
L 235.028402 284.075702 
L 235.393639 283.432469 
L 236.124111 281.221361 
L 237.402439 273.90458 
L 237.858984 270.205986 
L 240.415639 245.602319 
L 242.394002 220.918245 
L 242.941857 213.279854 
L 244.311493 195.711544 
L 245.894184 173.439595 
L 246.746402 160.695536 
L 248.35953 136.855706 
L 250.642257 108.151424 
L 251.859711 96.412418 
L 252.438002 91.909789 
L 252.864111 88.975034 
L 253.868511 83.065332 
L 255.63382 76.472189 
L 255.664257 76.472189 
L 256.05993 75.346528 
L 256.486039 74.381681 
L 256.516475 74.462085 
L 256.577348 74.341479 
L 256.912148 74.060064 
L 257.155639 73.97966 
L 257.368693 73.859057 
L 257.460002 73.859057 
L 257.581748 73.859057 
L 257.673057 73.899253 
L 257.703493 73.859057 
L 257.794802 73.899253 
L 257.97742 74.100266 
L 258.038293 74.100266 
L 258.190475 74.261072 
L 258.31222 74.381681 
L 258.342657 74.341479 
L 258.373093 74.421883 
L 258.464402 74.50229 
L 258.494839 74.462085 
L 258.707893 74.582688 
L 259.012257 74.663095 
L 259.134002 74.823904 
L 259.164439 74.783702 
L 259.255748 74.864109 
L 259.681857 75.26613 
L 259.834039 75.346528 
L 260.07753 75.547541 
L 260.107966 75.507339 
L 260.138402 75.587746 
L 260.960184 76.834008 
L 261.538475 78.080275 
L 261.568911 78.080275 
L 261.812402 78.803912 
L 262.208075 80.130578 
L 263.882075 87.165941 
L 264.308184 89.336853 
L 264.399493 89.819275 
L 265.129966 93.919889 
L 265.373457 95.28676 
L 267.990984 113.29729 
L 268.660584 118.483357 
L 270.12153 129.217311 
L 270.395457 131.187213 
L 272.769493 149.117339 
L 274.078257 157.07735 
L 274.47393 159.087453 
L 274.900039 161.177961 
L 277.274075 170.143024 
L 277.852366 171.952117 
L 278.278475 173.198381 
L 278.308911 173.198381 
L 278.521966 173.801412 
L 279.252439 175.449698 
L 279.952475 176.535155 
L 280.16553 176.856771 
L 280.226402 176.937175 
L 280.804693 177.580408 
L 280.83513 177.540206 
L 280.896002 177.62061 
L 280.987311 177.701014 
L 281.200366 177.982428 
L 281.717784 178.505055 
L 281.961275 178.585459 
L 282.143893 178.706066 
L 282.17433 178.665863 
L 282.235202 178.746269 
L 282.41782 178.826673 
L 282.630875 178.907077 
L 282.661311 178.987481 
L 282.75262 178.947278 
L 282.996111 178.866874 
L 283.17873 178.78647 
L 283.361348 178.706066 
L 283.604839 178.545258 
L 283.75702 178.505055 
L 283.939639 178.304046 
L 284.061384 178.223641 
L 284.700548 177.540206 
L 284.791857 177.500004 
L 285.004911 177.21859 
L 285.065784 177.138185 
L 285.826693 175.972325 
L 286.161493 175.369294 
L 286.465857 174.806465 
L 286.831093 174.12303 
L 287.10502 173.600403 
L 287.318075 173.198381 
L 287.77462 172.273734 
L 289.235566 170.504843 
L 289.752984 170.424439 
L 289.935602 170.344035 
L 290.057348 170.344035 
L 290.361711 170.424439 
L 291.244366 171.42949 
L 291.305239 171.469693 
L 291.487857 171.791309 
L 291.640039 172.153128 
L 293.314039 176.856771 
L 293.709711 177.982428 
L 294.379311 179.992532 
L 294.683675 181.037785 
L 295.47502 183.409709 
L 295.718511 184.133347 
L 296.14462 185.379611 
L 296.90553 187.1083 
L 297.179457 187.630926 
L 297.605566 188.47517 
L 298.975202 190.163658 
L 299.096948 190.163658 
L 299.644802 190.244062 
L 299.91873 190.445072 
L 300.557893 190.364668 
L 300.83182 190.163658 
L 301.16662 190.083253 
L 301.349239 190.002849 
L 301.440548 190.002849 
L 301.59273 189.801839 
L 302.475384 188.796787 
L 302.627566 188.716383 
L 302.749311 188.595777 
L 302.779748 188.635979 
L 302.810184 188.515372 
L 304.51462 186.103249 
L 304.818984 185.339409 
L 306.158184 181.560412 
L 306.52342 180.193543 
L 306.797348 179.188492 
L 307.558257 175.731113 
L 310.814948 157.961795 
L 311.758475 151.368655 
L 316.202184 122.744777 
L 316.780475 120.011036 
L 317.115275 118.483357 
L 317.419639 117.397901 
L 318.637093 113.015875 
L 319.124075 111.447994 
L 319.428439 110.362538 
L 321.406802 105.377478 
L 321.528548 105.29708 
L 321.832911 104.77445 
L 322.228584 104.131217 
L 322.411202 103.8096 
L 323.567784 102.121116 
L 323.872148 101.598486 
L 324.541748 100.874849 
L 324.60262 100.834643 
L 324.785239 100.553232 
L 324.815675 100.593434 
L 324.876548 100.51303 
L 325.120039 100.312019 
L 325.241784 100.312019 
L 325.333093 100.312019 
L 325.36353 100.392427 
L 325.454839 100.352225 
L 325.60702 100.432622 
L 325.850511 100.633636 
L 325.94182 100.633636 
L 326.094002 100.794441 
L 326.154875 100.874849 
L 326.824475 101.920102 
L 327.067966 102.482935 
L 327.28102 102.925151 
L 328.741966 107.065968 
L 329.837675 111.850015 
L 333.368293 131.066606 
L 333.855275 134.041561 
L 334.920548 140.23268 
L 335.31622 142.483996 
L 335.833639 145.177535 
L 336.198875 147.067033 
L 336.472802 148.433903 
L 336.898911 150.524411 
L 337.355457 152.81593 
L 338.785966 159.811091 
L 339.272948 162.183014 
L 340.033857 165.640391 
L 341.312184 170.26363 
L 341.738293 171.670704 
L 342.225275 173.15818 
L 344.081893 177.781418 
L 344.35582 178.304046 
L 344.629748 178.78647 
L 344.660184 178.78647 
L 344.842802 179.067885 
L 345.78633 180.153341 
L 345.908075 180.233745 
L 347.216839 181.801626 
L 347.277711 181.841829 
L 347.46033 182.042839 
L 347.825566 182.404658 
L 347.886439 182.364456 
L 347.916875 182.404658 
L 348.069057 182.565466 
L 348.190802 182.565466 
L 348.37342 182.645869 
L 348.46473 182.605666 
L 348.495166 182.645869 
L 349.04302 182.605666 
L 349.13433 182.525264 
L 349.164766 182.605666 
L 349.256075 182.565466 
L 349.37782 182.565466 
L 349.773493 182.525264 
L 349.80393 182.444858 
L 349.895239 182.485061 
L 350.108293 182.364456 
L 350.199602 182.364456 
L 350.260475 182.28405 
L 350.321348 182.324253 
L 350.351784 182.364456 
L 350.412657 182.28405 
L 351.112693 182.203648 
L 351.38662 181.962434 
L 351.447493 182.002637 
L 351.47793 181.922231 
L 351.630111 181.841829 
L 351.934475 181.600615 
L 352.05622 181.520213 
L 354.582439 178.304046 
L 354.612875 178.38445 
L 354.673748 178.304046 
L 355.191166 177.781418 
L 355.343348 177.701014 
L 355.617275 177.500004 
L 355.769457 177.459802 
L 355.921639 177.339195 
L 356.07382 177.258791 
L 356.104257 177.298993 
L 356.16513 177.21859 
L 356.378184 177.097983 
L 356.652111 177.017579 
L 356.865166 176.856771 
L 356.956475 176.937175 
L 357.108657 176.816568 
L 357.230402 176.816568 
L 357.443457 176.736164 
L 357.595639 176.695963 
L 357.930439 176.615559 
L 358.021748 176.535155 
L 358.052184 176.575356 
L 358.295675 176.374345 
L 358.41742 176.374345 
L 358.539166 176.293941 
L 358.660911 176.213537 
L 358.75222 176.133133 
L 358.782657 176.173336 
L 359.026148 176.012526 
L 359.147893 175.932122 
L 359.51313 175.610506 
L 359.665311 175.530102 
L 359.84793 175.409496 
L 359.878366 175.449698 
L 359.939239 175.369294 
L 360.09142 175.329091 
L 360.213166 175.248688 
L 360.334911 175.168283 
L 360.51753 174.967273 
L 360.608839 174.886869 
L 360.821893 174.605454 
L 362.039348 172.876766 
L 362.252402 172.474744 
L 362.556766 171.952117 
L 362.800257 171.469693 
L 363.317675 170.344035 
L 363.378548 170.26363 
L 363.591602 169.821407 
L 364.048148 168.89676 
L 364.322075 168.374133 
L 364.687311 167.690697 
L 366.817857 165.037361 
L 366.970039 164.956956 
L 367.304839 164.63534 
L 367.335275 164.675542 
L 367.396148 164.595138 
L 367.517893 164.43433 
L 367.54833 164.474532 
L 367.944002 164.112713 
L 368.187493 164.032309 
L 368.339675 163.951905 
L 368.370111 163.992107 
L 368.430984 163.911702 
L 368.644039 163.791096 
L 368.674475 163.791096 
L 368.79622 163.590086 
L 368.826657 163.630288 
L 369.161457 163.348873 
L 369.404948 163.268469 
L 369.526693 163.188065 
L 369.55713 163.228267 
L 369.618002 163.147863 
L 369.831057 163.067459 
L 370.044111 162.786044 
L 370.165857 162.70564 
L 370.683275 162.183014 
L 370.774584 162.142811 
L 370.987639 161.821195 
L 371.018075 161.861397 
L 371.048511 161.780992 
L 371.292002 161.419174 
L 371.352875 161.378972 
L 371.56593 161.097557 
L 371.626802 161.017153 
L 374.15302 157.519573 
L 374.548693 156.755733 
L 374.761748 156.31351 
L 375.005239 155.750681 
L 375.187857 155.34866 
L 378.231493 147.067033 
L 378.444548 146.464002 
L 380.027239 142.041773 
L 380.27073 141.277934 
L 380.635966 140.071872 
L 380.909893 139.147224 
L 381.549057 137.217524 
L 381.822984 136.292876 
L 382.401275 134.483784 
L 382.918693 132.8757 
L 382.918693 132.8757 
" style="fill:none;stroke:#0000ff;stroke-linecap:square;stroke-width:1.5;"/>
   </g>
   <g id="line2d_24">
    <path clip-path="url(#pe60477002b)" d="M 78.555057 153.6457 
L 84.703202 153.545195 
L 84.916257 153.525094 
L 85.159748 153.565296 
L 85.372802 153.545195 
L 91.855748 153.44469 
L 92.068802 153.424589 
L 92.281857 153.44469 
L 100.104002 153.545195 
L 100.347493 153.605498 
L 100.499675 153.625599 
L 100.71273 153.746206 
L 100.834475 153.786408 
L 101.808439 154.550247 
L 102.691093 155.897017 
L 103.29982 157.203584 
L 103.695493 158.208636 
L 105.491239 164.500261 
L 106.160839 167.455113 
L 106.769566 170.30946 
L 107.834839 175.35482 
L 110.117566 185.38524 
L 110.66542 187.113929 
L 110.939348 187.897869 
L 111.42633 189.124032 
L 112.09593 190.209488 
L 112.856839 191.03363 
L 113.374257 190.933125 
L 113.922111 190.4507 
L 114.500402 189.505952 
L 114.804766 188.681809 
L 116.052657 184.219378 
L 117.36142 176.721692 
L 119.491966 160.459952 
L 124.757457 112.780291 
L 126.248839 102.729772 
L 127.922839 94.468249 
L 128.562002 92.015922 
L 129.596839 88.980666 
L 129.962075 88.498238 
L 130.327311 88.176621 
L 130.449057 88.076116 
L 130.814293 87.754502 
L 131.362148 87.855004 
L 131.605639 87.915308 
L 131.788257 87.8349 
L 131.879566 87.7746 
L 132.640475 87.392684 
L 133.644875 87.935412 
L 133.827493 88.01581 
L 134.892766 89.241973 
L 135.014511 89.282175 
L 135.410184 89.362582 
L 136.627639 90.789759 
L 137.023311 91.171676 
L 138.392948 94.10643 
L 138.849493 95.975824 
L 142.501857 115.815548 
L 144.662839 132.298399 
L 145.393311 137.625174 
L 147.006439 150.107918 
L 148.619566 163.997735 
L 149.319602 169.867237 
L 150.26313 177.565935 
L 153.154584 197.827781 
L 154.889457 205.325468 
L 155.741675 207.275269 
L 156.137348 207.817997 
L 156.62433 208.300425 
L 157.62873 208.220018 
L 157.87222 208.079314 
L 158.176584 207.757697 
L 159.120111 206.129513 
L 159.728839 205.184761 
L 160.063639 204.461124 
L 161.037602 202.290212 
L 162.437675 198.290105 
L 163.168148 195.496061 
L 164.598657 189.385345 
L 166.059602 183.154023 
L 166.57702 181.063516 
L 167.764039 176.781994 
L 168.190148 175.937752 
L 169.34673 174.57088 
L 169.894584 174.671386 
L 170.655493 175.294518 
L 171.233784 176.681489 
L 171.812075 178.209168 
L 172.02513 178.852402 
L 172.572984 181.043414 
L 173.151275 183.535943 
L 173.69913 186.128976 
L 175.525311 196.340304 
L 175.981857 199.375561 
L 176.834075 205.084256 
L 179.086366 220.642462 
L 179.72553 224.119935 
L 180.30382 226.632571 
L 180.547311 227.356209 
L 181.947384 230.79348 
L 182.06913 230.974389 
L 182.40393 231.416615 
L 182.616984 231.677928 
L 182.890911 231.858838 
L 183.07353 231.858838 
L 183.31702 231.597524 
L 183.956184 230.130149 
L 185.173639 224.903882 
L 185.812802 220.461553 
L 186.512839 214.109625 
L 188.308584 192.722118 
L 189.556475 174.791992 
L 190.500002 159.555406 
L 193.178402 113.704939 
L 195.735057 76.457719 
L 197.317748 59.934663 
L 198.656948 49.321319 
L 199.174366 46.004651 
L 200.270075 39.491911 
L 201.609275 34.627457 
L 201.974511 34.145035 
L 202.461493 33.662601 
L 202.918039 33.763112 
L 203.191966 34.064628 
L 204.318111 35.712913 
L 205.139893 38.788378 
L 205.870366 43.190505 
L 208.640075 64.115676 
L 212.048948 92.015922 
L 213.388148 102.589068 
L 216.644839 127.052027 
L 218.744948 142.811241 
L 220.966802 158.148333 
L 221.48422 161.465004 
L 222.549493 168.399862 
L 226.445348 190.913024 
L 228.393275 199.415763 
L 229.915093 204.059103 
L 230.219457 204.621932 
L 230.493384 205.16466 
L 231.376039 206.692339 
L 231.497784 206.873248 
L 232.928293 209.466282 
L 233.354402 210.210024 
L 234.084875 211.898507 
L 234.845784 213.607099 
L 235.54582 215.235277 
L 235.941493 215.999119 
L 238.345966 218.994171 
L 238.863384 219.215285 
L 239.015566 219.195187 
L 239.65473 219.11478 
L 239.837348 219.05448 
L 241.23742 219.154982 
L 241.57222 219.275592 
L 241.693966 219.295689 
L 241.937457 219.355989 
L 242.089639 219.376097 
L 242.454875 219.476599 
L 243.611457 220.340943 
L 244.098439 221.084678 
L 244.220184 221.285692 
L 247.294257 227.135094 
L 248.329093 228.321055 
L 248.755202 228.501965 
L 248.998693 228.461762 
L 249.150875 228.441665 
L 249.546548 228.300951 
L 249.668293 228.260755 
L 249.850911 228.160244 
L 251.494475 225.828527 
L 252.438002 223.054583 
L 253.168475 219.737915 
L 254.325057 213.044267 
L 255.451202 204.903346 
L 256.851275 191.978379 
L 259.834039 157.263887 
L 262.390693 122.046869 
L 264.612548 91.372683 
L 266.712657 66.3871 
L 267.68662 56.698396 
L 269.269311 44.979494 
L 270.182402 40.69797 
L 271.12593 38.486859 
L 271.247675 38.386351 
L 271.491166 38.225539 
L 271.673784 38.225539 
L 271.856402 38.225539 
L 272.221639 38.326048 
L 272.982548 39.512003 
L 273.956511 42.366356 
L 274.565239 45.220697 
L 274.960911 47.552424 
L 275.904439 53.823945 
L 277.15233 63.653355 
L 279.343748 84.920253 
L 280.987311 102.16694 
L 281.83953 111.051602 
L 286.10062 154.912066 
L 287.43982 167.073194 
L 291.153057 198.008691 
L 292.035711 203.918396 
L 293.070548 210.029114 
L 293.770584 213.546793 
L 294.318439 215.5569 
L 295.109784 217.808213 
L 296.540293 220.401243 
L 297.301202 221.24549 
L 297.544693 221.345995 
L 297.696875 221.426399 
L 298.427348 221.325897 
L 298.883893 220.903769 
L 300.223093 218.953968 
L 300.92313 217.325791 
L 302.93193 210.310526 
L 304.058075 203.777688 
L 305.792948 190.370296 
L 306.888657 181.907759 
L 308.714839 168.319458 
L 309.62793 162.470056 
L 313.036802 147.213368 
L 313.493348 145.323871 
L 315.836948 136.479415 
L 316.415239 134.650221 
L 317.23702 132.3185 
L 322.776439 117.98646 
L 324.815675 113.704939 
L 326.94622 108.358063 
L 327.402766 107.574122 
L 328.254984 106.126848 
L 329.989857 103.996138 
L 330.142039 103.895636 
L 330.872511 103.533817 
L 331.755166 103.634319 
L 332.576948 104.29765 
L 333.885711 106.187151 
L 335.620584 111.071703 
L 336.198875 113.262716 
L 336.533675 114.428576 
L 338.938148 124.378589 
L 340.703457 134.248199 
L 341.616548 140.0775 
L 344.35582 158.892071 
L 345.390657 167.213901 
L 346.395057 175.495529 
L 347.977748 187.17423 
L 350.960511 206.169715 
L 351.843166 210.772849 
L 352.634511 214.370932 
L 353.364984 217.245383 
L 354.125893 219.376097 
L 354.49113 220.320845 
L 354.765057 220.984176 
L 355.282475 222.049535 
L 356.469493 223.496809 
L 356.652111 223.436503 
L 356.83473 223.356096 
L 357.41302 222.773172 
L 357.565202 222.552057 
L 357.900002 221.949023 
L 359.360948 217.828317 
L 360.243602 213.24528 
L 361.369748 205.888294 
L 362.76982 195.938284 
L 365.174293 176.018155 
L 366.361311 166.068142 
L 369.770184 135.856283 
L 372.052911 115.755245 
L 373.544293 105.704726 
L 375.218293 96.377844 
L 376.466184 91.875209 
L 378.231493 87.493186 
L 378.809784 86.890158 
L 378.961966 86.789646 
L 379.296766 86.689144 
L 379.60113 86.769548 
L 379.814184 86.849956 
L 379.966366 86.950458 
L 380.057675 87.010761 
L 380.209857 87.091165 
L 380.575093 87.392684 
L 380.788148 87.653991 
L 381.336002 88.53844 
L 382.918693 92.598846 
L 382.918693 92.598846 
" style="fill:none;stroke:#ff0000;stroke-linecap:square;stroke-width:1.5;"/>
   </g>
   <g id="line2d_25">
    <path clip-path="url(#pe60477002b)" d="M 123.72262 162.183014 
" style="fill:none;stroke:#ffffff;stroke-linecap:square;stroke-width:1.5;"/>
    <defs>
     <path d="M 0 -5 
L -1.12257 -1.545085 
L -4.755283 -1.545085 
L -1.816356 0.59017 
L -2.938926 4.045085 
L -0 1.90983 
L 2.938926 4.045085 
L 1.816356 0.59017 
L 4.755283 -1.545085 
L 1.12257 -1.545085 
z
" id="ma202c0e66d" style="stroke:#ffffff;stroke-linejoin:bevel;"/>
    </defs>
    <g clip-path="url(#pe60477002b)">
     <use style="fill:#0000ff;stroke:#ffffff;stroke-linejoin:bevel;" x="123.72262" xlink:href="#ma202c0e66d" y="162.183014"/>
    </g>
   </g>
   <g id="line2d_26">
    <path clip-path="url(#pe60477002b)" d="M 104.182475 159.676012 
" style="fill:none;stroke:#ffffff;stroke-linecap:square;stroke-width:1.5;"/>
    <defs>
     <path d="M 0 -5 
L -1.12257 -1.545085 
L -4.755283 -1.545085 
L -1.816356 0.59017 
L -2.938926 4.045085 
L -0 1.90983 
L 2.938926 4.045085 
L 1.816356 0.59017 
L 4.755283 -1.545085 
L 1.12257 -1.545085 
z
" id="md989a999d0" style="stroke:#ffffff;stroke-linejoin:bevel;"/>
    </defs>
    <g clip-path="url(#pe60477002b)">
     <use style="fill:#ff0000;stroke:#ffffff;stroke-linejoin:bevel;" x="104.182475" xlink:href="#md989a999d0" y="159.676012"/>
    </g>
   </g>
   <g id="patch_3">
    <path d="M 63.336875 339.84 
L 63.336875 7.2 
" style="fill:none;stroke:#000000;stroke-linecap:square;stroke-linejoin:miter;stroke-width:0.8;"/>
   </g>
   <g id="patch_4">
    <path d="M 398.136875 339.84 
L 398.136875 7.2 
" style="fill:none;stroke:#000000;stroke-linecap:square;stroke-linejoin:miter;stroke-width:0.8;"/>
   </g>
   <g id="patch_5">
    <path d="M 63.336875 339.84 
L 398.136875 339.84 
" style="fill:none;stroke:#000000;stroke-linecap:square;stroke-linejoin:miter;stroke-width:0.8;"/>
   </g>
   <g id="patch_6">
    <path d="M 63.336875 7.2 
L 398.136875 7.2 
" style="fill:none;stroke:#000000;stroke-linecap:square;stroke-linejoin:miter;stroke-width:0.8;"/>
   </g>
   <g id="text_14">
    <g id="patch_7">
     <path d="M 75.036875 331.242688 
L 166.26875 331.242688 
L 166.26875 293.760312 
L 75.036875 293.760312 
z
" style="fill:#ffffff;stroke:#000000;stroke-linejoin:miter;stroke-width:0.75;"/>
    </g>
    <!-- Auto_00153 -->
    <g transform="translate(80.076875 308.521562)scale(0.14 -0.14)">
     <defs>
      <path d="M 2928 1419 
L 1288 1419 
L 1000 750 
Q 894 503 894 381 
Q 894 284 986 211 
Q 1078 138 1384 116 
L 1384 0 
L 50 0 
L 50 116 
Q 316 163 394 238 
Q 553 388 747 847 
L 2238 4334 
L 2347 4334 
L 3822 809 
Q 4000 384 4145 257 
Q 4291 131 4550 116 
L 4550 0 
L 2878 0 
L 2878 116 
Q 3131 128 3220 200 
Q 3309 272 3309 375 
Q 3309 513 3184 809 
L 2928 1419 
z
M 2841 1650 
L 2122 3363 
L 1384 1650 
L 2841 1650 
z
" id="TimesNewRomanPSMT-41" transform="scale(0.015625)"/>
      <path d="M 2709 2863 
L 2709 1128 
Q 2709 631 2732 520 
Q 2756 409 2807 365 
Q 2859 322 2928 322 
Q 3025 322 3147 375 
L 3191 266 
L 2334 -88 
L 2194 -88 
L 2194 519 
Q 1825 119 1631 15 
Q 1438 -88 1222 -88 
Q 981 -88 804 51 
Q 628 191 559 409 
Q 491 628 491 1028 
L 491 2306 
Q 491 2509 447 2587 
Q 403 2666 317 2708 
Q 231 2750 6 2747 
L 6 2863 
L 1009 2863 
L 1009 947 
Q 1009 547 1148 422 
Q 1288 297 1484 297 
Q 1619 297 1789 381 
Q 1959 466 2194 703 
L 2194 2325 
Q 2194 2569 2105 2655 
Q 2016 2741 1734 2747 
L 1734 2863 
L 2709 2863 
z
" id="TimesNewRomanPSMT-75" transform="scale(0.015625)"/>
      <path d="M 3256 -1381 
L -53 -1381 
L -53 -1119 
L 3256 -1119 
L 3256 -1381 
z
" id="TimesNewRomanPSMT-5f" transform="scale(0.015625)"/>
     </defs>
     <use xlink:href="#TimesNewRomanPSMT-41"/>
     <use x="72.216797" xlink:href="#TimesNewRomanPSMT-75"/>
     <use x="122.216797" xlink:href="#TimesNewRomanPSMT-74"/>
     <use x="150" xlink:href="#TimesNewRomanPSMT-6f"/>
     <use x="200" xlink:href="#TimesNewRomanPSMT-5f"/>
     <use x="250" xlink:href="#TimesNewRomanPSMT-30"/>
     <use x="300" xlink:href="#TimesNewRomanPSMT-30"/>
     <use x="350" xlink:href="#TimesNewRomanPSMT-31"/>
     <use x="400" xlink:href="#TimesNewRomanPSMT-35"/>
     <use x="450" xlink:href="#TimesNewRomanPSMT-33"/>
    </g>
    <!-- Vs: 311.31m/s -->
    <g transform="translate(80.076875 323.208)scale(0.14 -0.14)">
     <defs>
      <path d="M 903 2950 
Q 1047 2950 1148 2848 
Q 1250 2747 1250 2603 
Q 1250 2459 1148 2357 
Q 1047 2256 903 2256 
Q 759 2256 657 2357 
Q 556 2459 556 2603 
Q 556 2747 657 2848 
Q 759 2950 903 2950 
z
M 897 609 
Q 1044 609 1145 506 
Q 1247 403 1247 259 
Q 1247 116 1144 14 
Q 1041 -88 897 -88 
Q 753 -88 651 14 
Q 550 116 550 259 
Q 550 403 651 506 
Q 753 609 897 609 
z
" id="TimesNewRomanPSMT-3a" transform="scale(0.015625)"/>
      <path d="M 1794 4444 
L 259 -88 
L 9 -88 
L 1544 4444 
L 1794 4444 
z
" id="TimesNewRomanPSMT-2f" transform="scale(0.015625)"/>
     </defs>
     <use xlink:href="#TimesNewRomanPSMT-56"/>
     <use x="72.216797" xlink:href="#TimesNewRomanPSMT-73"/>
     <use x="111.132812" xlink:href="#TimesNewRomanPSMT-3a"/>
     <use x="138.916016" xlink:href="#TimesNewRomanPSMT-20"/>
     <use x="163.916016" xlink:href="#TimesNewRomanPSMT-33"/>
     <use x="213.916016" xlink:href="#TimesNewRomanPSMT-31"/>
     <use x="260.166016" xlink:href="#TimesNewRomanPSMT-31"/>
     <use x="310.166016" xlink:href="#TimesNewRomanPSMT-2e"/>
     <use x="335.166016" xlink:href="#TimesNewRomanPSMT-33"/>
     <use x="385.166016" xlink:href="#TimesNewRomanPSMT-31"/>
     <use x="435.166016" xlink:href="#TimesNewRomanPSMT-6d"/>
     <use x="512.949219" xlink:href="#TimesNewRomanPSMT-2f"/>
     <use x="540.732422" xlink:href="#TimesNewRomanPSMT-73"/>
    </g>
   </g>
  </g>
 </g>
 <defs>
  <clipPath id="pe60477002b">
   <rect height="332.64" width="334.8" x="63.336875" y="7.2"/>
  </clipPath>
 </defs>
</svg>
