<?xml version="1.0" encoding="utf-8" standalone="no"?>
<!DOCTYPE svg PUBLIC "-//W3C//DTD SVG 1.1//EN"
  "http://www.w3.org/Graphics/SVG/1.1/DTD/svg11.dtd">
<svg height="383.471875pt" version="1.1" viewBox="0 0 421.086875 383.471875" width="421.086875pt" xmlns="http://www.w3.org/2000/svg" xmlns:xlink="http://www.w3.org/1999/xlink">
 <metadata>
  <rdf:RDF xmlns:cc="http://creativecommons.org/ns#" xmlns:dc="http://purl.org/dc/elements/1.1/" xmlns:rdf="http://www.w3.org/1999/02/22-rdf-syntax-ns#">
   <cc:Work>
    <dc:type rdf:resource="http://purl.org/dc/dcmitype/StillImage"/>
    <dc:date>2021-06-11T14:39:37.186691</dc:date>
    <dc:format>image/svg+xml</dc:format>
    <dc:creator>
     <cc:Agent>
      <dc:title>Matplotlib v3.4.2, https://matplotlib.org/</dc:title>
     </cc:Agent>
    </dc:creator>
   </cc:Work>
  </rdf:RDF>
 </metadata>
 <defs>
  <style type="text/css">*{stroke-linecap:butt;stroke-linejoin:round;}</style>
 </defs>
 <g id="figure_1">
  <g id="patch_1">
   <path d="M 0 383.471875 
L 421.086875 383.471875 
L 421.086875 0 
L 0 0 
z
" style="fill:#ffffff;"/>
  </g>
  <g id="axes_1">
   <g id="patch_2">
    <path d="M 63.336875 339.84 
L 398.136875 339.84 
L 398.136875 7.2 
L 63.336875 7.2 
z
" style="fill:#ffffff;"/>
   </g>
   <g id="matplotlib.axis_1">
    <g id="xtick_1">
     <g id="line2d_1">
      <path clip-path="url(#p1ee67b21d0)" d="M 93.773239 339.84 
L 93.773239 7.2 
" style="fill:none;stroke:#000000;stroke-dasharray:0.5,0.825;stroke-dashoffset:0;stroke-width:0.5;"/>
     </g>
     <g id="line2d_2">
      <defs>
       <path d="M 0 0 
L 0 3.5 
" id="m7427bead52" style="stroke:#000000;stroke-width:0.8;"/>
      </defs>
      <g>
       <use style="stroke:#000000;stroke-width:0.8;" x="93.773239" xlink:href="#m7427bead52" y="339.84"/>
      </g>
     </g>
     <g id="text_1">
      <!-- 0.000 -->
      <g transform="translate(78.023239 356.56125)scale(0.14 -0.14)">
       <defs>
        <path d="M 231 2094 
Q 231 2819 450 3342 
Q 669 3866 1031 4122 
Q 1313 4325 1613 4325 
Q 2100 4325 2488 3828 
Q 2972 3213 2972 2159 
Q 2972 1422 2759 906 
Q 2547 391 2217 158 
Q 1888 -75 1581 -75 
Q 975 -75 572 641 
Q 231 1244 231 2094 
z
M 844 2016 
Q 844 1141 1059 588 
Q 1238 122 1591 122 
Q 1759 122 1940 273 
Q 2122 425 2216 781 
Q 2359 1319 2359 2297 
Q 2359 3022 2209 3506 
Q 2097 3866 1919 4016 
Q 1791 4119 1609 4119 
Q 1397 4119 1231 3928 
Q 1006 3669 925 3112 
Q 844 2556 844 2016 
z
" id="TimesNewRomanPSMT-30" transform="scale(0.015625)"/>
        <path d="M 800 606 
Q 947 606 1047 504 
Q 1147 403 1147 259 
Q 1147 116 1045 14 
Q 944 -88 800 -88 
Q 656 -88 554 14 
Q 453 116 453 259 
Q 453 406 554 506 
Q 656 606 800 606 
z
" id="TimesNewRomanPSMT-2e" transform="scale(0.015625)"/>
       </defs>
       <use xlink:href="#TimesNewRomanPSMT-30"/>
       <use x="50" xlink:href="#TimesNewRomanPSMT-2e"/>
       <use x="75" xlink:href="#TimesNewRomanPSMT-30"/>
       <use x="125" xlink:href="#TimesNewRomanPSMT-30"/>
       <use x="175" xlink:href="#TimesNewRomanPSMT-30"/>
      </g>
     </g>
    </g>
    <g id="xtick_2">
     <g id="line2d_3">
      <path clip-path="url(#p1ee67b21d0)" d="M 154.645966 339.84 
L 154.645966 7.2 
" style="fill:none;stroke:#000000;stroke-dasharray:0.5,0.825;stroke-dashoffset:0;stroke-width:0.5;"/>
     </g>
     <g id="line2d_4">
      <g>
       <use style="stroke:#000000;stroke-width:0.8;" x="154.645966" xlink:href="#m7427bead52" y="339.84"/>
      </g>
     </g>
     <g id="text_2">
      <!-- 0.001 -->
      <g transform="translate(138.895966 356.56125)scale(0.14 -0.14)">
       <defs>
        <path d="M 750 3822 
L 1781 4325 
L 1884 4325 
L 1884 747 
Q 1884 391 1914 303 
Q 1944 216 2037 169 
Q 2131 122 2419 116 
L 2419 0 
L 825 0 
L 825 116 
Q 1125 122 1212 167 
Q 1300 213 1334 289 
Q 1369 366 1369 747 
L 1369 3034 
Q 1369 3497 1338 3628 
Q 1316 3728 1258 3775 
Q 1200 3822 1119 3822 
Q 1003 3822 797 3725 
L 750 3822 
z
" id="TimesNewRomanPSMT-31" transform="scale(0.015625)"/>
       </defs>
       <use xlink:href="#TimesNewRomanPSMT-30"/>
       <use x="50" xlink:href="#TimesNewRomanPSMT-2e"/>
       <use x="75" xlink:href="#TimesNewRomanPSMT-30"/>
       <use x="125" xlink:href="#TimesNewRomanPSMT-30"/>
       <use x="175" xlink:href="#TimesNewRomanPSMT-31"/>
      </g>
     </g>
    </g>
    <g id="xtick_3">
     <g id="line2d_5">
      <path clip-path="url(#p1ee67b21d0)" d="M 215.518693 339.84 
L 215.518693 7.2 
" style="fill:none;stroke:#000000;stroke-dasharray:0.5,0.825;stroke-dashoffset:0;stroke-width:0.5;"/>
     </g>
     <g id="line2d_6">
      <g>
       <use style="stroke:#000000;stroke-width:0.8;" x="215.518693" xlink:href="#m7427bead52" y="339.84"/>
      </g>
     </g>
     <g id="text_3">
      <!-- 0.002 -->
      <g transform="translate(199.768693 356.56125)scale(0.14 -0.14)">
       <defs>
        <path d="M 2934 816 
L 2638 0 
L 138 0 
L 138 116 
Q 1241 1122 1691 1759 
Q 2141 2397 2141 2925 
Q 2141 3328 1894 3587 
Q 1647 3847 1303 3847 
Q 991 3847 742 3664 
Q 494 3481 375 3128 
L 259 3128 
Q 338 3706 661 4015 
Q 984 4325 1469 4325 
Q 1984 4325 2329 3994 
Q 2675 3663 2675 3213 
Q 2675 2891 2525 2569 
Q 2294 2063 1775 1497 
Q 997 647 803 472 
L 1909 472 
Q 2247 472 2383 497 
Q 2519 522 2628 598 
Q 2738 675 2819 816 
L 2934 816 
z
" id="TimesNewRomanPSMT-32" transform="scale(0.015625)"/>
       </defs>
       <use xlink:href="#TimesNewRomanPSMT-30"/>
       <use x="50" xlink:href="#TimesNewRomanPSMT-2e"/>
       <use x="75" xlink:href="#TimesNewRomanPSMT-30"/>
       <use x="125" xlink:href="#TimesNewRomanPSMT-30"/>
       <use x="175" xlink:href="#TimesNewRomanPSMT-32"/>
      </g>
     </g>
    </g>
    <g id="xtick_4">
     <g id="line2d_7">
      <path clip-path="url(#p1ee67b21d0)" d="M 276.39142 339.84 
L 276.39142 7.2 
" style="fill:none;stroke:#000000;stroke-dasharray:0.5,0.825;stroke-dashoffset:0;stroke-width:0.5;"/>
     </g>
     <g id="line2d_8">
      <g>
       <use style="stroke:#000000;stroke-width:0.8;" x="276.39142" xlink:href="#m7427bead52" y="339.84"/>
      </g>
     </g>
     <g id="text_4">
      <!-- 0.003 -->
      <g transform="translate(260.64142 356.56125)scale(0.14 -0.14)">
       <defs>
        <path d="M 325 3431 
Q 506 3859 782 4092 
Q 1059 4325 1472 4325 
Q 1981 4325 2253 3994 
Q 2459 3747 2459 3466 
Q 2459 3003 1878 2509 
Q 2269 2356 2469 2072 
Q 2669 1788 2669 1403 
Q 2669 853 2319 450 
Q 1863 -75 997 -75 
Q 569 -75 414 31 
Q 259 138 259 259 
Q 259 350 332 419 
Q 406 488 509 488 
Q 588 488 669 463 
Q 722 447 909 348 
Q 1097 250 1169 231 
Q 1284 197 1416 197 
Q 1734 197 1970 444 
Q 2206 691 2206 1028 
Q 2206 1275 2097 1509 
Q 2016 1684 1919 1775 
Q 1784 1900 1550 2001 
Q 1316 2103 1072 2103 
L 972 2103 
L 972 2197 
Q 1219 2228 1467 2375 
Q 1716 2522 1828 2728 
Q 1941 2934 1941 3181 
Q 1941 3503 1739 3701 
Q 1538 3900 1238 3900 
Q 753 3900 428 3381 
L 325 3431 
z
" id="TimesNewRomanPSMT-33" transform="scale(0.015625)"/>
       </defs>
       <use xlink:href="#TimesNewRomanPSMT-30"/>
       <use x="50" xlink:href="#TimesNewRomanPSMT-2e"/>
       <use x="75" xlink:href="#TimesNewRomanPSMT-30"/>
       <use x="125" xlink:href="#TimesNewRomanPSMT-30"/>
       <use x="175" xlink:href="#TimesNewRomanPSMT-33"/>
      </g>
     </g>
    </g>
    <g id="xtick_5">
     <g id="line2d_9">
      <path clip-path="url(#p1ee67b21d0)" d="M 337.264148 339.84 
L 337.264148 7.2 
" style="fill:none;stroke:#000000;stroke-dasharray:0.5,0.825;stroke-dashoffset:0;stroke-width:0.5;"/>
     </g>
     <g id="line2d_10">
      <g>
       <use style="stroke:#000000;stroke-width:0.8;" x="337.264148" xlink:href="#m7427bead52" y="339.84"/>
      </g>
     </g>
     <g id="text_5">
      <!-- 0.004 -->
      <g transform="translate(321.514148 356.56125)scale(0.14 -0.14)">
       <defs>
        <path d="M 2978 1563 
L 2978 1119 
L 2409 1119 
L 2409 0 
L 1894 0 
L 1894 1119 
L 100 1119 
L 100 1519 
L 2066 4325 
L 2409 4325 
L 2409 1563 
L 2978 1563 
z
M 1894 1563 
L 1894 3666 
L 406 1563 
L 1894 1563 
z
" id="TimesNewRomanPSMT-34" transform="scale(0.015625)"/>
       </defs>
       <use xlink:href="#TimesNewRomanPSMT-30"/>
       <use x="50" xlink:href="#TimesNewRomanPSMT-2e"/>
       <use x="75" xlink:href="#TimesNewRomanPSMT-30"/>
       <use x="125" xlink:href="#TimesNewRomanPSMT-30"/>
       <use x="175" xlink:href="#TimesNewRomanPSMT-34"/>
      </g>
     </g>
    </g>
    <g id="xtick_6">
     <g id="line2d_11">
      <path clip-path="url(#p1ee67b21d0)" d="M 398.136875 339.84 
L 398.136875 7.2 
" style="fill:none;stroke:#000000;stroke-dasharray:0.5,0.825;stroke-dashoffset:0;stroke-width:0.5;"/>
     </g>
     <g id="line2d_12">
      <g>
       <use style="stroke:#000000;stroke-width:0.8;" x="398.136875" xlink:href="#m7427bead52" y="339.84"/>
      </g>
     </g>
     <g id="text_6">
      <!-- 0.005 -->
      <g transform="translate(382.386875 356.56125)scale(0.14 -0.14)">
       <defs>
        <path d="M 2778 4238 
L 2534 3706 
L 1259 3706 
L 981 3138 
Q 1809 3016 2294 2522 
Q 2709 2097 2709 1522 
Q 2709 1188 2573 903 
Q 2438 619 2231 419 
Q 2025 219 1772 97 
Q 1413 -75 1034 -75 
Q 653 -75 479 54 
Q 306 184 306 341 
Q 306 428 378 495 
Q 450 563 559 563 
Q 641 563 702 538 
Q 763 513 909 409 
Q 1144 247 1384 247 
Q 1750 247 2026 523 
Q 2303 800 2303 1197 
Q 2303 1581 2056 1914 
Q 1809 2247 1375 2428 
Q 1034 2569 447 2591 
L 1259 4238 
L 2778 4238 
z
" id="TimesNewRomanPSMT-35" transform="scale(0.015625)"/>
       </defs>
       <use xlink:href="#TimesNewRomanPSMT-30"/>
       <use x="50" xlink:href="#TimesNewRomanPSMT-2e"/>
       <use x="75" xlink:href="#TimesNewRomanPSMT-30"/>
       <use x="125" xlink:href="#TimesNewRomanPSMT-30"/>
       <use x="175" xlink:href="#TimesNewRomanPSMT-35"/>
      </g>
     </g>
    </g>
    <g id="text_7">
     <!-- Time (sec) -->
     <g transform="translate(200.858906 373.277188)scale(0.14 -0.14)">
      <defs>
       <path d="M 3703 4238 
L 3750 3244 
L 3631 3244 
Q 3597 3506 3538 3619 
Q 3441 3800 3280 3886 
Q 3119 3972 2856 3972 
L 2259 3972 
L 2259 734 
Q 2259 344 2344 247 
Q 2463 116 2709 116 
L 2856 116 
L 2856 0 
L 1059 0 
L 1059 116 
L 1209 116 
Q 1478 116 1591 278 
Q 1659 378 1659 734 
L 1659 3972 
L 1150 3972 
Q 853 3972 728 3928 
Q 566 3869 450 3700 
Q 334 3531 313 3244 
L 194 3244 
L 244 4238 
L 3703 4238 
z
" id="TimesNewRomanPSMT-54" transform="scale(0.015625)"/>
       <path d="M 928 4444 
Q 1059 4444 1151 4351 
Q 1244 4259 1244 4128 
Q 1244 3997 1151 3903 
Q 1059 3809 928 3809 
Q 797 3809 703 3903 
Q 609 3997 609 4128 
Q 609 4259 701 4351 
Q 794 4444 928 4444 
z
M 1188 2947 
L 1188 647 
Q 1188 378 1227 289 
Q 1266 200 1342 156 
Q 1419 113 1622 113 
L 1622 0 
L 231 0 
L 231 113 
Q 441 113 512 153 
Q 584 194 626 287 
Q 669 381 669 647 
L 669 1750 
Q 669 2216 641 2353 
Q 619 2453 572 2492 
Q 525 2531 444 2531 
Q 356 2531 231 2484 
L 188 2597 
L 1050 2947 
L 1188 2947 
z
" id="TimesNewRomanPSMT-69" transform="scale(0.015625)"/>
       <path d="M 1050 2338 
Q 1363 2650 1419 2697 
Q 1559 2816 1721 2881 
Q 1884 2947 2044 2947 
Q 2313 2947 2506 2790 
Q 2700 2634 2766 2338 
Q 3088 2713 3309 2830 
Q 3531 2947 3766 2947 
Q 3994 2947 4170 2830 
Q 4347 2713 4450 2447 
Q 4519 2266 4519 1878 
L 4519 647 
Q 4519 378 4559 278 
Q 4591 209 4675 161 
Q 4759 113 4950 113 
L 4950 0 
L 3538 0 
L 3538 113 
L 3597 113 
Q 3781 113 3884 184 
Q 3956 234 3988 344 
Q 4000 397 4000 647 
L 4000 1878 
Q 4000 2228 3916 2372 
Q 3794 2572 3525 2572 
Q 3359 2572 3192 2489 
Q 3025 2406 2788 2181 
L 2781 2147 
L 2788 2013 
L 2788 647 
Q 2788 353 2820 281 
Q 2853 209 2943 161 
Q 3034 113 3253 113 
L 3253 0 
L 1806 0 
L 1806 113 
Q 2044 113 2133 169 
Q 2222 225 2256 338 
Q 2272 391 2272 647 
L 2272 1878 
Q 2272 2228 2169 2381 
Q 2031 2581 1784 2581 
Q 1616 2581 1450 2491 
Q 1191 2353 1050 2181 
L 1050 647 
Q 1050 366 1089 281 
Q 1128 197 1204 155 
Q 1281 113 1516 113 
L 1516 0 
L 100 0 
L 100 113 
Q 297 113 375 155 
Q 453 197 493 289 
Q 534 381 534 647 
L 534 1741 
Q 534 2213 506 2350 
Q 484 2453 437 2492 
Q 391 2531 309 2531 
Q 222 2531 100 2484 
L 53 2597 
L 916 2947 
L 1050 2947 
L 1050 2338 
z
" id="TimesNewRomanPSMT-6d" transform="scale(0.015625)"/>
       <path d="M 681 1784 
Q 678 1147 991 784 
Q 1303 422 1725 422 
Q 2006 422 2214 576 
Q 2422 731 2563 1106 
L 2659 1044 
Q 2594 616 2278 264 
Q 1963 -88 1488 -88 
Q 972 -88 605 314 
Q 238 716 238 1394 
Q 238 2128 614 2539 
Q 991 2950 1559 2950 
Q 2041 2950 2350 2633 
Q 2659 2316 2659 1784 
L 681 1784 
z
M 681 1966 
L 2006 1966 
Q 1991 2241 1941 2353 
Q 1863 2528 1708 2628 
Q 1553 2728 1384 2728 
Q 1125 2728 920 2526 
Q 716 2325 681 1966 
z
" id="TimesNewRomanPSMT-65" transform="scale(0.015625)"/>
       <path id="TimesNewRomanPSMT-20" transform="scale(0.015625)"/>
       <path d="M 1988 -1253 
L 1988 -1369 
Q 1516 -1131 1200 -813 
Q 750 -359 506 256 
Q 263 872 263 1534 
Q 263 2503 741 3301 
Q 1219 4100 1988 4444 
L 1988 4313 
Q 1603 4100 1356 3731 
Q 1109 3363 987 2797 
Q 866 2231 866 1616 
Q 866 947 969 400 
Q 1050 -31 1165 -292 
Q 1281 -553 1476 -793 
Q 1672 -1034 1988 -1253 
z
" id="TimesNewRomanPSMT-28" transform="scale(0.015625)"/>
       <path d="M 2050 2947 
L 2050 1972 
L 1947 1972 
Q 1828 2431 1642 2597 
Q 1456 2763 1169 2763 
Q 950 2763 815 2647 
Q 681 2531 681 2391 
Q 681 2216 781 2091 
Q 878 1963 1175 1819 
L 1631 1597 
Q 2266 1288 2266 781 
Q 2266 391 1970 151 
Q 1675 -88 1309 -88 
Q 1047 -88 709 6 
Q 606 38 541 38 
Q 469 38 428 -44 
L 325 -44 
L 325 978 
L 428 978 
Q 516 541 762 319 
Q 1009 97 1316 97 
Q 1531 97 1667 223 
Q 1803 350 1803 528 
Q 1803 744 1651 891 
Q 1500 1038 1047 1263 
Q 594 1488 453 1669 
Q 313 1847 313 2119 
Q 313 2472 555 2709 
Q 797 2947 1181 2947 
Q 1350 2947 1591 2875 
Q 1750 2828 1803 2828 
Q 1853 2828 1881 2850 
Q 1909 2872 1947 2947 
L 2050 2947 
z
" id="TimesNewRomanPSMT-73" transform="scale(0.015625)"/>
       <path d="M 2631 1088 
Q 2516 522 2178 217 
Q 1841 -88 1431 -88 
Q 944 -88 581 321 
Q 219 731 219 1428 
Q 219 2103 620 2525 
Q 1022 2947 1584 2947 
Q 2006 2947 2278 2723 
Q 2550 2500 2550 2259 
Q 2550 2141 2473 2067 
Q 2397 1994 2259 1994 
Q 2075 1994 1981 2113 
Q 1928 2178 1911 2362 
Q 1894 2547 1784 2644 
Q 1675 2738 1481 2738 
Q 1169 2738 978 2506 
Q 725 2200 725 1697 
Q 725 1184 976 792 
Q 1228 400 1656 400 
Q 1963 400 2206 609 
Q 2378 753 2541 1131 
L 2631 1088 
z
" id="TimesNewRomanPSMT-63" transform="scale(0.015625)"/>
       <path d="M 144 4313 
L 144 4444 
Q 619 4209 934 3891 
Q 1381 3434 1625 2820 
Q 1869 2206 1869 1541 
Q 1869 572 1392 -226 
Q 916 -1025 144 -1369 
L 144 -1253 
Q 528 -1038 776 -670 
Q 1025 -303 1145 264 
Q 1266 831 1266 1447 
Q 1266 2113 1163 2663 
Q 1084 3094 967 3353 
Q 850 3613 656 3853 
Q 463 4094 144 4313 
z
" id="TimesNewRomanPSMT-29" transform="scale(0.015625)"/>
      </defs>
      <use xlink:href="#TimesNewRomanPSMT-54"/>
      <use x="57.583984" xlink:href="#TimesNewRomanPSMT-69"/>
      <use x="85.367188" xlink:href="#TimesNewRomanPSMT-6d"/>
      <use x="163.150391" xlink:href="#TimesNewRomanPSMT-65"/>
      <use x="207.535156" xlink:href="#TimesNewRomanPSMT-20"/>
      <use x="232.535156" xlink:href="#TimesNewRomanPSMT-28"/>
      <use x="265.835938" xlink:href="#TimesNewRomanPSMT-73"/>
      <use x="304.751953" xlink:href="#TimesNewRomanPSMT-65"/>
      <use x="349.136719" xlink:href="#TimesNewRomanPSMT-63"/>
      <use x="393.521484" xlink:href="#TimesNewRomanPSMT-29"/>
     </g>
    </g>
   </g>
   <g id="matplotlib.axis_2">
    <g id="ytick_1">
     <g id="line2d_13">
      <path clip-path="url(#p1ee67b21d0)" d="M 63.336875 295.381532 
L 398.136875 295.381532 
" style="fill:none;stroke:#000000;stroke-dasharray:0.5,0.825;stroke-dashoffset:0;stroke-width:0.5;"/>
     </g>
     <g id="line2d_14">
      <defs>
       <path d="M 0 0 
L -3.5 0 
" id="mf51a6db3f8" style="stroke:#000000;stroke-width:0.8;"/>
      </defs>
      <g>
       <use style="stroke:#000000;stroke-width:0.8;" x="63.336875" xlink:href="#mf51a6db3f8" y="295.381532"/>
      </g>
     </g>
     <g id="text_8">
      <!-- −0.06 -->
      <g transform="translate(23.942188 300.242157)scale(0.14 -0.14)">
       <defs>
        <path d="M 3484 2000 
L 116 2000 
L 116 2256 
L 3484 2256 
L 3484 2000 
z
" id="TimesNewRomanPSMT-2212" transform="scale(0.015625)"/>
        <path d="M 2869 4325 
L 2869 4209 
Q 2456 4169 2195 4045 
Q 1934 3922 1679 3669 
Q 1425 3416 1258 3105 
Q 1091 2794 978 2366 
Q 1428 2675 1881 2675 
Q 2316 2675 2634 2325 
Q 2953 1975 2953 1425 
Q 2953 894 2631 456 
Q 2244 -75 1606 -75 
Q 1172 -75 869 213 
Q 275 772 275 1663 
Q 275 2231 503 2743 
Q 731 3256 1154 3653 
Q 1578 4050 1965 4187 
Q 2353 4325 2688 4325 
L 2869 4325 
z
M 925 2138 
Q 869 1716 869 1456 
Q 869 1156 980 804 
Q 1091 453 1309 247 
Q 1469 100 1697 100 
Q 1969 100 2183 356 
Q 2397 613 2397 1088 
Q 2397 1622 2184 2012 
Q 1972 2403 1581 2403 
Q 1463 2403 1327 2353 
Q 1191 2303 925 2138 
z
" id="TimesNewRomanPSMT-36" transform="scale(0.015625)"/>
       </defs>
       <use xlink:href="#TimesNewRomanPSMT-2212"/>
       <use x="56.396484" xlink:href="#TimesNewRomanPSMT-30"/>
       <use x="106.396484" xlink:href="#TimesNewRomanPSMT-2e"/>
       <use x="131.396484" xlink:href="#TimesNewRomanPSMT-30"/>
       <use x="181.396484" xlink:href="#TimesNewRomanPSMT-36"/>
      </g>
     </g>
    </g>
    <g id="ytick_2">
     <g id="line2d_15">
      <path clip-path="url(#p1ee67b21d0)" d="M 63.336875 248.898681 
L 398.136875 248.898681 
" style="fill:none;stroke:#000000;stroke-dasharray:0.5,0.825;stroke-dashoffset:0;stroke-width:0.5;"/>
     </g>
     <g id="line2d_16">
      <g>
       <use style="stroke:#000000;stroke-width:0.8;" x="63.336875" xlink:href="#mf51a6db3f8" y="248.898681"/>
      </g>
     </g>
     <g id="text_9">
      <!-- −0.04 -->
      <g transform="translate(23.942188 253.759306)scale(0.14 -0.14)">
       <use xlink:href="#TimesNewRomanPSMT-2212"/>
       <use x="56.396484" xlink:href="#TimesNewRomanPSMT-30"/>
       <use x="106.396484" xlink:href="#TimesNewRomanPSMT-2e"/>
       <use x="131.396484" xlink:href="#TimesNewRomanPSMT-30"/>
       <use x="181.396484" xlink:href="#TimesNewRomanPSMT-34"/>
      </g>
     </g>
    </g>
    <g id="ytick_3">
     <g id="line2d_17">
      <path clip-path="url(#p1ee67b21d0)" d="M 63.336875 202.415829 
L 398.136875 202.415829 
" style="fill:none;stroke:#000000;stroke-dasharray:0.5,0.825;stroke-dashoffset:0;stroke-width:0.5;"/>
     </g>
     <g id="line2d_18">
      <g>
       <use style="stroke:#000000;stroke-width:0.8;" x="63.336875" xlink:href="#mf51a6db3f8" y="202.415829"/>
      </g>
     </g>
     <g id="text_10">
      <!-- −0.02 -->
      <g transform="translate(23.942188 207.276454)scale(0.14 -0.14)">
       <use xlink:href="#TimesNewRomanPSMT-2212"/>
       <use x="56.396484" xlink:href="#TimesNewRomanPSMT-30"/>
       <use x="106.396484" xlink:href="#TimesNewRomanPSMT-2e"/>
       <use x="131.396484" xlink:href="#TimesNewRomanPSMT-30"/>
       <use x="181.396484" xlink:href="#TimesNewRomanPSMT-32"/>
      </g>
     </g>
    </g>
    <g id="ytick_4">
     <g id="line2d_19">
      <path clip-path="url(#p1ee67b21d0)" d="M 63.336875 155.932977 
L 398.136875 155.932977 
" style="fill:none;stroke:#000000;stroke-dasharray:0.5,0.825;stroke-dashoffset:0;stroke-width:0.5;"/>
     </g>
     <g id="line2d_20">
      <g>
       <use style="stroke:#000000;stroke-width:0.8;" x="63.336875" xlink:href="#mf51a6db3f8" y="155.932977"/>
      </g>
     </g>
     <g id="text_11">
      <!-- 0.00 -->
      <g transform="translate(31.836875 160.793602)scale(0.14 -0.14)">
       <use xlink:href="#TimesNewRomanPSMT-30"/>
       <use x="50" xlink:href="#TimesNewRomanPSMT-2e"/>
       <use x="75" xlink:href="#TimesNewRomanPSMT-30"/>
       <use x="125" xlink:href="#TimesNewRomanPSMT-30"/>
      </g>
     </g>
    </g>
    <g id="ytick_5">
     <g id="line2d_21">
      <path clip-path="url(#p1ee67b21d0)" d="M 63.336875 109.450125 
L 398.136875 109.450125 
" style="fill:none;stroke:#000000;stroke-dasharray:0.5,0.825;stroke-dashoffset:0;stroke-width:0.5;"/>
     </g>
     <g id="line2d_22">
      <g>
       <use style="stroke:#000000;stroke-width:0.8;" x="63.336875" xlink:href="#mf51a6db3f8" y="109.450125"/>
      </g>
     </g>
     <g id="text_12">
      <!-- 0.02 -->
      <g transform="translate(31.836875 114.31075)scale(0.14 -0.14)">
       <use xlink:href="#TimesNewRomanPSMT-30"/>
       <use x="50" xlink:href="#TimesNewRomanPSMT-2e"/>
       <use x="75" xlink:href="#TimesNewRomanPSMT-30"/>
       <use x="125" xlink:href="#TimesNewRomanPSMT-32"/>
      </g>
     </g>
    </g>
    <g id="ytick_6">
     <g id="line2d_23">
      <path clip-path="url(#p1ee67b21d0)" d="M 63.336875 62.967274 
L 398.136875 62.967274 
" style="fill:none;stroke:#000000;stroke-dasharray:0.5,0.825;stroke-dashoffset:0;stroke-width:0.5;"/>
     </g>
     <g id="line2d_24">
      <g>
       <use style="stroke:#000000;stroke-width:0.8;" x="63.336875" xlink:href="#mf51a6db3f8" y="62.967274"/>
      </g>
     </g>
     <g id="text_13">
      <!-- 0.04 -->
      <g transform="translate(31.836875 67.827899)scale(0.14 -0.14)">
       <use xlink:href="#TimesNewRomanPSMT-30"/>
       <use x="50" xlink:href="#TimesNewRomanPSMT-2e"/>
       <use x="75" xlink:href="#TimesNewRomanPSMT-30"/>
       <use x="125" xlink:href="#TimesNewRomanPSMT-34"/>
      </g>
     </g>
    </g>
    <g id="ytick_7">
     <g id="line2d_25">
      <path clip-path="url(#p1ee67b21d0)" d="M 63.336875 16.484422 
L 398.136875 16.484422 
" style="fill:none;stroke:#000000;stroke-dasharray:0.5,0.825;stroke-dashoffset:0;stroke-width:0.5;"/>
     </g>
     <g id="line2d_26">
      <g>
       <use style="stroke:#000000;stroke-width:0.8;" x="63.336875" xlink:href="#mf51a6db3f8" y="16.484422"/>
      </g>
     </g>
     <g id="text_14">
      <!-- 0.06 -->
      <g transform="translate(31.836875 21.345047)scale(0.14 -0.14)">
       <use xlink:href="#TimesNewRomanPSMT-30"/>
       <use x="50" xlink:href="#TimesNewRomanPSMT-2e"/>
       <use x="75" xlink:href="#TimesNewRomanPSMT-30"/>
       <use x="125" xlink:href="#TimesNewRomanPSMT-36"/>
      </g>
     </g>
    </g>
    <g id="text_15">
     <!-- Volatage (V) -->
     <g transform="translate(16.92125 209.352344)rotate(-90)scale(0.14 -0.14)">
      <defs>
       <path d="M 4544 4238 
L 4544 4122 
Q 4319 4081 4203 3978 
Q 4038 3825 3909 3509 
L 2431 -97 
L 2316 -97 
L 728 3556 
Q 606 3838 556 3900 
Q 478 3997 364 4051 
Q 250 4106 56 4122 
L 56 4238 
L 1788 4238 
L 1788 4122 
Q 1494 4094 1406 4022 
Q 1319 3950 1319 3838 
Q 1319 3681 1463 3350 
L 2541 866 
L 3541 3319 
Q 3688 3681 3688 3822 
Q 3688 3913 3597 3995 
Q 3506 4078 3291 4113 
Q 3275 4116 3238 4122 
L 3238 4238 
L 4544 4238 
z
" id="TimesNewRomanPSMT-56" transform="scale(0.015625)"/>
       <path d="M 1600 2947 
Q 2250 2947 2644 2453 
Q 2978 2031 2978 1484 
Q 2978 1100 2793 706 
Q 2609 313 2286 112 
Q 1963 -88 1566 -88 
Q 919 -88 538 428 
Q 216 863 216 1403 
Q 216 1797 411 2186 
Q 606 2575 925 2761 
Q 1244 2947 1600 2947 
z
M 1503 2744 
Q 1338 2744 1170 2645 
Q 1003 2547 900 2300 
Q 797 2053 797 1666 
Q 797 1041 1045 587 
Q 1294 134 1700 134 
Q 2003 134 2200 384 
Q 2397 634 2397 1244 
Q 2397 2006 2069 2444 
Q 1847 2744 1503 2744 
z
" id="TimesNewRomanPSMT-6f" transform="scale(0.015625)"/>
       <path d="M 1184 4444 
L 1184 647 
Q 1184 378 1223 290 
Q 1263 203 1344 158 
Q 1425 113 1647 113 
L 1647 0 
L 244 0 
L 244 113 
Q 441 113 512 153 
Q 584 194 625 287 
Q 666 381 666 647 
L 666 3247 
Q 666 3731 644 3842 
Q 622 3953 573 3993 
Q 525 4034 450 4034 
Q 369 4034 244 3984 
L 191 4094 
L 1044 4444 
L 1184 4444 
z
" id="TimesNewRomanPSMT-6c" transform="scale(0.015625)"/>
       <path d="M 1822 413 
Q 1381 72 1269 19 
Q 1100 -59 909 -59 
Q 613 -59 420 144 
Q 228 347 228 678 
Q 228 888 322 1041 
Q 450 1253 767 1440 
Q 1084 1628 1822 1897 
L 1822 2009 
Q 1822 2438 1686 2597 
Q 1550 2756 1291 2756 
Q 1094 2756 978 2650 
Q 859 2544 859 2406 
L 866 2225 
Q 866 2081 792 2003 
Q 719 1925 600 1925 
Q 484 1925 411 2006 
Q 338 2088 338 2228 
Q 338 2497 613 2722 
Q 888 2947 1384 2947 
Q 1766 2947 2009 2819 
Q 2194 2722 2281 2516 
Q 2338 2381 2338 1966 
L 2338 994 
Q 2338 584 2353 492 
Q 2369 400 2405 369 
Q 2441 338 2488 338 
Q 2538 338 2575 359 
Q 2641 400 2828 588 
L 2828 413 
Q 2478 -56 2159 -56 
Q 2006 -56 1915 50 
Q 1825 156 1822 413 
z
M 1822 616 
L 1822 1706 
Q 1350 1519 1213 1441 
Q 966 1303 859 1153 
Q 753 1003 753 825 
Q 753 600 887 451 
Q 1022 303 1197 303 
Q 1434 303 1822 616 
z
" id="TimesNewRomanPSMT-61" transform="scale(0.015625)"/>
       <path d="M 1031 3803 
L 1031 2863 
L 1700 2863 
L 1700 2644 
L 1031 2644 
L 1031 788 
Q 1031 509 1111 412 
Q 1191 316 1316 316 
Q 1419 316 1516 380 
Q 1613 444 1666 569 
L 1788 569 
Q 1678 263 1478 108 
Q 1278 -47 1066 -47 
Q 922 -47 784 33 
Q 647 113 581 261 
Q 516 409 516 719 
L 516 2644 
L 63 2644 
L 63 2747 
Q 234 2816 414 2980 
Q 594 3144 734 3369 
Q 806 3488 934 3803 
L 1031 3803 
z
" id="TimesNewRomanPSMT-74" transform="scale(0.015625)"/>
       <path d="M 966 1044 
Q 703 1172 562 1401 
Q 422 1631 422 1909 
Q 422 2334 742 2640 
Q 1063 2947 1563 2947 
Q 1972 2947 2272 2747 
L 2878 2747 
Q 3013 2747 3034 2739 
Q 3056 2731 3066 2713 
Q 3084 2684 3084 2613 
Q 3084 2531 3069 2500 
Q 3059 2484 3036 2475 
Q 3013 2466 2878 2466 
L 2506 2466 
Q 2681 2241 2681 1891 
Q 2681 1491 2375 1206 
Q 2069 922 1553 922 
Q 1341 922 1119 984 
Q 981 866 932 777 
Q 884 688 884 625 
Q 884 572 936 522 
Q 988 472 1138 450 
Q 1225 438 1575 428 
Q 2219 413 2409 384 
Q 2700 344 2873 169 
Q 3047 -6 3047 -263 
Q 3047 -616 2716 -925 
Q 2228 -1381 1444 -1381 
Q 841 -1381 425 -1109 
Q 191 -953 191 -784 
Q 191 -709 225 -634 
Q 278 -519 444 -313 
Q 466 -284 763 25 
Q 600 122 533 198 
Q 466 275 466 372 
Q 466 481 555 628 
Q 644 775 966 1044 
z
M 1509 2797 
Q 1278 2797 1122 2612 
Q 966 2428 966 2047 
Q 966 1553 1178 1281 
Q 1341 1075 1591 1075 
Q 1828 1075 1981 1253 
Q 2134 1431 2134 1813 
Q 2134 2309 1919 2591 
Q 1759 2797 1509 2797 
z
M 934 0 
Q 788 -159 713 -296 
Q 638 -434 638 -550 
Q 638 -700 819 -813 
Q 1131 -1006 1722 -1006 
Q 2284 -1006 2551 -807 
Q 2819 -609 2819 -384 
Q 2819 -222 2659 -153 
Q 2497 -84 2016 -72 
Q 1313 -53 934 0 
z
" id="TimesNewRomanPSMT-67" transform="scale(0.015625)"/>
      </defs>
      <use xlink:href="#TimesNewRomanPSMT-56"/>
      <use x="59.341797" xlink:href="#TimesNewRomanPSMT-6f"/>
      <use x="109.341797" xlink:href="#TimesNewRomanPSMT-6c"/>
      <use x="137.125" xlink:href="#TimesNewRomanPSMT-61"/>
      <use x="181.509766" xlink:href="#TimesNewRomanPSMT-74"/>
      <use x="209.292969" xlink:href="#TimesNewRomanPSMT-61"/>
      <use x="253.677734" xlink:href="#TimesNewRomanPSMT-67"/>
      <use x="303.677734" xlink:href="#TimesNewRomanPSMT-65"/>
      <use x="348.0625" xlink:href="#TimesNewRomanPSMT-20"/>
      <use x="373.0625" xlink:href="#TimesNewRomanPSMT-28"/>
      <use x="406.363281" xlink:href="#TimesNewRomanPSMT-56"/>
      <use x="478.580078" xlink:href="#TimesNewRomanPSMT-29"/>
     </g>
    </g>
   </g>
   <g id="LineCollection_1">
    <path clip-path="url(#p1ee67b21d0)" d="M 78.555057 155.932977 
L 382.918693 155.932977 
" style="fill:none;stroke:#1f77b4;stroke-width:1.5;"/>
   </g>
   <g id="line2d_27">
    <path clip-path="url(#p1ee67b21d0)" d="M 78.555057 155.900091 
L 87.503348 155.987246 
L 87.65553 155.987246 
L 91.00353 156.074401 
L 91.155711 156.074401 
L 91.277457 156.045349 
L 91.399202 156.074401 
L 94.990693 156.161557 
L 95.112439 156.190608 
L 95.234184 156.161557 
L 98.095202 156.21966 
L 98.125639 156.277764 
L 98.216948 156.21966 
L 98.36913 156.21966 
L 105.582548 156.277764 
L 105.673857 156.306815 
L 105.704293 156.277764 
L 105.856475 156.306815 
L 106.039093 156.277764 
L 106.191275 156.277764 
L 113.800366 156.335867 
L 113.922111 156.364919 
L 114.77433 156.452074 
L 114.926511 156.452074 
L 115.809166 156.53923 
L 115.991784 156.568282 
L 116.570075 156.655437 
L 116.722257 156.655437 
L 117.36142 156.742592 
L 117.544039 156.800696 
L 117.665784 156.800696 
L 117.848402 156.829748 
L 118.36582 156.916903 
L 118.578875 156.975006 
L 119.248475 157.062162 
L 119.400657 157.062162 
L 120.313748 157.149317 
L 120.526802 157.207421 
L 121.896439 157.294576 
L 122.018184 157.323628 
L 122.04862 157.265524 
L 122.13993 157.323628 
L 122.71822 157.410783 
L 122.931275 157.468887 
L 123.296511 157.52699 
L 123.448693 157.585094 
L 123.783493 157.643197 
L 123.935675 157.701301 
L 124.118293 157.730353 
L 124.331348 157.817508 
L 124.574839 157.904663 
L 124.909639 157.991819 
L 125.305311 158.224233 
L 125.427057 158.253285 
L 125.974911 158.630958 
L 126.096657 158.718113 
L 127.16193 159.851133 
L 127.344548 160.170702 
L 127.588039 160.548376 
L 129.201166 163.860279 
L 131.42302 170.542189 
L 132.610039 174.63849 
L 134.10142 179.199619 
L 134.43622 180.274536 
L 134.679711 180.971779 
L 135.227566 182.656782 
L 135.44062 183.237818 
L 135.714548 184.022216 
L 136.262402 185.271442 
L 136.505893 185.620064 
L 136.77982 186.113944 
L 136.87113 186.2011 
L 137.175493 186.549721 
L 137.845093 187.043601 
L 137.966839 187.130757 
L 138.21033 187.246964 
L 138.332075 187.276015 
L 138.849493 187.18886 
L 139.88433 186.055841 
L 141.436584 181.291348 
L 142.167057 178.0666 
L 144.419348 164.557522 
L 145.91073 152.326721 
L 147.310802 139.340575 
L 148.619566 125.802444 
L 150.567493 104.739902 
L 153.27633 77.431224 
L 155.28513 61.104122 
L 156.411275 54.306003 
L 157.354802 50.296859 
L 158.20702 48.117978 
L 158.29833 48.030825 
L 158.815748 47.682197 
L 159.241857 47.769359 
L 159.576657 48.205129 
L 159.97233 49.018586 
L 160.063639 49.192889 
L 160.459311 50.26781 
L 160.794111 51.517037 
L 161.768075 56.688256 
L 162.22462 59.883955 
L 163.594257 72.550529 
L 164.872584 88.441854 
L 167.24662 126.325376 
L 169.285857 165.312868 
L 171.568584 210.982268 
L 172.877348 236.199215 
L 174.70353 267.429885 
L 175.494875 279.457318 
L 176.438402 292.181997 
L 177.686293 306.359274 
L 178.690693 314.958592 
L 179.603784 320.362237 
L 180.608184 323.790343 
L 181.186475 324.72 
L 181.338657 324.690944 
L 181.490839 324.690944 
L 181.673457 324.545694 
L 181.764766 324.487581 
L 182.038693 324.168011 
L 182.06913 324.168011 
L 182.31262 323.674136 
L 182.525675 323.034994 
L 183.134402 320.304122 
L 184.108366 314.116106 
L 184.930148 307.288928 
L 185.356257 303.250738 
L 187.243311 280.445079 
L 189.556475 243.433113 
L 192.813166 179.141517 
L 194.548039 145.005672 
L 197.317748 94.194105 
L 198.687384 73.712603 
L 200.300511 53.637814 
L 201.700584 40.041583 
L 202.887602 31.790876 
L 203.131093 30.42544 
L 204.439857 24.702242 
L 204.774657 23.85974 
L 205.626875 22.465257 
L 205.809493 22.378094 
L 205.83993 22.32 
L 205.931239 22.378094 
L 206.022548 22.349047 
L 206.052984 22.407153 
L 206.357348 22.494304 
L 206.631275 22.610513 
L 206.692148 22.668619 
L 206.905202 22.871979 
L 206.996511 22.959132 
L 207.42262 23.85974 
L 207.787857 24.789395 
L 208.42702 26.910182 
L 209.827093 34.115014 
L 212.475057 52.47575 
L 213.418584 60.464981 
L 214.179493 67.117844 
L 215.12302 75.862428 
L 220.14502 122.752007 
L 222.366875 140.56075 
L 223.066911 145.673863 
L 223.523457 148.927663 
L 224.466984 154.563708 
L 224.740911 156.045349 
L 225.25833 158.805269 
L 226.84102 165.835801 
L 228.94113 173.418315 
L 230.919493 178.792894 
L 231.041239 179.05436 
L 231.406475 180.042122 
L 231.589093 180.623157 
L 232.806548 184.428941 
L 233.445711 186.985498 
L 233.750075 188.147569 
L 236.702402 202.760613 
L 237.31113 206.13062 
L 238.22422 211.011322 
L 241.57222 229.546359 
L 243.124475 236.431631 
L 243.307093 237.245079 
L 243.794075 239.394913 
L 244.281057 241.196126 
L 245.041966 243.694579 
L 245.58982 244.56613 
L 245.68113 244.595177 
L 245.92462 244.827596 
L 246.076802 244.914749 
L 246.198548 245.030959 
L 246.228984 245.001909 
L 246.68553 244.943806 
L 246.92902 244.68234 
L 246.989893 244.624234 
L 247.202948 244.304664 
L 247.294257 244.217511 
L 247.59862 243.781732 
L 249.27262 238.668618 
L 249.820475 236.141109 
L 251.585784 225.421006 
L 253.472839 210.168822 
L 254.29462 202.644408 
L 254.751166 198.315693 
L 257.033893 175.510043 
L 259.31662 154.767071 
L 260.99062 141.316096 
L 262.634184 131.031765 
L 264.42993 122.955369 
L 265.038657 120.892693 
L 265.647384 118.975275 
L 266.134366 117.813206 
L 266.43873 117.086907 
L 266.560475 116.854493 
L 266.956148 116.011996 
L 267.138766 115.721476 
L 267.35182 115.401906 
L 267.44313 115.314748 
L 267.747493 114.966129 
L 267.838802 114.878974 
L 268.11273 114.588456 
L 268.69102 114.181731 
L 268.78233 114.152679 
L 269.056257 114.03647 
L 269.330184 113.949317 
L 269.482366 113.862161 
L 269.512802 113.920265 
L 270.36502 113.978371 
L 270.578075 114.152679 
L 271.399857 115.082334 
L 272.678184 117.7551 
L 273.46953 119.701567 
L 274.13913 121.183211 
L 274.47393 122.025712 
L 275.173966 123.710716 
L 275.539202 124.640373 
L 276.300111 126.528739 
L 276.421857 126.761153 
L 277.274075 128.881933 
L 277.608875 129.753486 
L 278.613275 132.310043 
L 279.617675 134.459875 
L 280.043784 135.389532 
L 280.226402 135.680051 
L 280.50033 136.173931 
L 280.652511 136.435397 
L 280.987311 137.074536 
L 281.109057 137.30695 
L 281.474293 138.033244 
L 283.026548 140.764112 
L 283.08742 140.822216 
L 283.574402 141.519459 
L 283.909202 141.955235 
L 284.122257 142.274805 
L 284.18313 142.303857 
L 284.365748 142.536271 
L 286.009311 143.959808 
L 286.283239 144.046963 
L 286.43542 144.134119 
L 286.922402 144.221274 
L 287.044148 144.221274 
L 287.19633 144.192222 
L 287.348511 144.221274 
L 287.53113 144.16317 
L 287.652875 144.134119 
L 287.957239 144.046963 
L 288.20073 143.959808 
L 288.413784 143.872653 
L 288.626839 143.698342 
L 289.235566 143.262566 
L 289.387748 143.17541 
L 290.20953 142.245752 
L 290.483457 141.955235 
L 290.940002 141.403252 
L 291.21393 140.938423 
L 291.54873 140.502646 
L 291.761784 140.183077 
L 291.822657 140.095921 
L 292.157457 139.631092 
L 293.770584 136.31919 
L 297.14902 126.325376 
L 298.336039 122.229075 
L 299.279566 119.236741 
L 299.58393 118.307087 
L 299.949166 117.319326 
L 300.25353 116.505874 
L 301.044875 114.559402 
L 302.26233 112.467678 
L 302.475384 112.380521 
L 302.779748 112.235259 
L 303.023239 112.148106 
L 303.17542 112.148106 
L 303.388475 112.206212 
L 303.60153 112.293365 
L 303.84502 112.525777 
L 304.51462 113.310178 
L 305.488584 115.401906 
L 306.006002 116.970702 
L 306.18862 117.522686 
L 307.162584 121.648039 
L 307.345202 122.461489 
L 307.984366 126.034858 
L 308.410475 128.765726 
L 309.384439 135.999619 
L 310.358402 144.279378 
L 312.97593 170.309775 
L 318.24142 224.491351 
L 319.854548 235.995852 
L 321.01113 241.980526 
L 322.198148 246.10587 
L 323.141675 247.703723 
L 323.26342 247.732772 
L 323.385166 247.761829 
L 323.567784 247.703723 
L 323.68953 247.703723 
L 323.841711 247.616572 
L 323.993893 247.52941 
L 324.60262 246.861221 
L 324.846111 246.309239 
L 324.998293 246.018717 
L 325.60702 244.595177 
L 325.850511 243.926989 
L 326.185311 242.823019 
L 326.733166 240.93466 
L 328.772402 230.679376 
L 330.020293 222.893501 
L 333.459602 195.788188 
L 340.064293 140.008765 
L 343.35142 115.721476 
L 343.960148 111.625174 
L 344.721057 106.657317 
L 345.999384 98.813338 
L 346.242875 97.506008 
L 346.69942 95.152814 
L 346.882039 94.339361 
L 347.916875 89.865389 
L 347.977748 89.691081 
L 348.586475 87.308832 
L 349.073457 85.59478 
L 349.651748 83.822621 
L 349.956111 83.009166 
L 350.534402 81.64374 
L 350.564839 81.64374 
L 350.80833 81.120807 
L 351.021384 80.772179 
L 351.325748 80.2202 
L 351.599675 79.813475 
L 352.177966 78.941917 
L 352.786693 78.215622 
L 353.030184 77.983213 
L 353.547602 77.634587 
L 353.699784 77.547434 
L 353.943275 77.460281 
L 354.765057 77.547434 
L 355.06942 77.721747 
L 355.099857 77.69269 
L 355.16073 77.77985 
L 356.012948 78.738554 
L 357.473893 81.75994 
L 359.026148 86.524434 
L 360.974075 94.397467 
L 361.552366 97.070231 
L 363.956839 109.068617 
L 366.726548 125.540978 
L 367.396148 129.840642 
L 367.761384 132.106681 
L 368.613602 137.626519 
L 369.313639 142.158598 
L 369.618002 144.105066 
L 371.261566 154.41845 
L 371.444184 155.522417 
L 372.722511 163.482606 
L 374.91393 177.398409 
L 376.16182 185.184287 
L 379.540257 207.031227 
L 380.909893 215.51435 
L 381.731675 220.27884 
L 382.918693 226.495924 
L 382.918693 226.495924 
" style="fill:none;stroke:#0000ff;stroke-linecap:square;stroke-width:1.5;"/>
   </g>
   <g id="line2d_28">
    <path clip-path="url(#p1ee67b21d0)" d="M 78.555057 155.996601 
L 83.668366 155.894919 
L 83.911857 155.880393 
L 84.155348 155.880393 
L 91.490511 155.778712 
L 91.764439 155.764186 
L 97.760402 155.662505 
L 98.03433 155.647979 
L 101.108402 155.74966 
L 101.656257 155.894919 
L 101.899748 155.996601 
L 102.904148 156.592162 
L 103.847675 157.6235 
L 104.425966 158.495054 
L 104.912948 159.381133 
L 105.64342 161.008033 
L 106.678257 163.7389 
L 107.560911 166.309983 
L 108.626184 169.694516 
L 110.300184 174.923838 
L 111.213275 177.364188 
L 111.608948 178.322895 
L 113.252511 181.242599 
L 114.287348 182.085101 
L 114.622148 182.128679 
L 114.865639 182.026998 
L 114.987384 181.997946 
L 115.35262 181.794583 
L 115.535239 181.692902 
L 116.174402 180.966607 
L 117.970148 176.420004 
L 120.13113 167.748046 
L 121.196402 162.126527 
L 122.079057 156.940784 
L 123.235639 149.445423 
L 124.300911 142.1389 
L 125.183566 136.226862 
L 129.17073 114.031301 
L 130.296875 109.673534 
L 131.483893 106.071113 
L 131.910002 104.778311 
L 132.76222 102.265329 
L 133.036148 101.698822 
L 134.040548 99.563511 
L 136.231966 96.61476 
L 136.414584 96.411393 
L 137.023311 95.728676 
L 137.510293 95.612471 
L 138.392948 95.6851 
L 138.971239 96.687389 
L 140.371311 100.304334 
L 141.101784 102.657528 
L 141.740948 105.17051 
L 142.745348 109.949523 
L 143.871493 117.038163 
L 146.610766 137.432512 
L 147.462984 145.21839 
L 152.911093 198.717246 
L 154.554657 212.647576 
L 155.772111 221.101647 
L 157.720039 230.76136 
L 158.20702 232.373734 
L 158.785311 233.710121 
L 159.089675 234.305677 
L 159.424475 234.930291 
L 159.97233 235.540383 
L 160.64193 235.758264 
L 161.372402 235.293438 
L 162.163748 233.986106 
L 162.833348 232.155853 
L 164.355166 225.139842 
L 166.363966 210.991624 
L 168.707566 189.914556 
L 172.512111 154.660219 
L 173.912184 142.966876 
L 175.768802 129.617582 
L 176.590584 124.824038 
L 177.777602 119.667347 
L 178.264584 118.37454 
L 178.62982 117.662776 
L 179.329857 116.268288 
L 180.06033 115.411261 
L 181.003857 114.655914 
L 181.247348 114.743072 
L 181.947384 115.556517 
L 182.160439 115.905141 
L 182.616984 117.009109 
L 184.838839 124.809512 
L 187.273748 135.747508 
L 191.139166 155.473668 
L 192.630548 162.358941 
L 193.36102 165.93231 
L 195.03502 172.657798 
L 195.278511 173.514825 
L 196.739457 178.671516 
L 198.13953 181.73648 
L 198.748257 182.448248 
L 199.356984 182.346567 
L 199.783093 181.794583 
L 200.848366 179.54307 
L 201.944075 176.071383 
L 203.039784 171.452148 
L 203.861566 166.9927 
L 205.109457 159.206822 
L 206.08342 153.425518 
L 207.270439 145.988262 
L 209.705348 128.992969 
L 210.618439 122.848517 
L 213.327275 107.974004 
L 214.331675 103.703392 
L 215.153457 100.987051 
L 216.005675 98.880799 
L 216.401348 98.357867 
L 217.588366 97.370106 
L 217.984039 97.297472 
L 218.836257 97.399153 
L 220.875493 99.490884 
L 221.666839 100.812742 
L 222.336439 102.323435 
L 224.132184 106.884562 
L 224.83222 109.223231 
L 225.897493 112.854704 
L 226.475784 114.844753 
L 227.145384 117.256046 
L 227.967166 120.379115 
L 229.549857 126.72693 
L 229.884657 128.019734 
L 230.676002 131.28806 
L 231.071675 132.958538 
L 233.658766 147.121281 
L 235.180584 158.030225 
L 238.802511 184.84502 
L 240.202584 193.458872 
L 241.90702 202.595659 
L 242.941857 206.997002 
L 244.068002 211.369298 
L 245.985493 217.412068 
L 246.868148 219.256854 
L 248.237784 221.029018 
L 248.724766 221.348585 
L 249.211748 221.464792 
L 250.337893 221.363113 
L 251.03793 221.145222 
L 251.37273 221.043541 
L 251.981457 220.636819 
L 253.077166 219.460221 
L 253.472839 218.937289 
L 254.477239 217.847843 
L 254.781602 217.499224 
L 255.451202 216.729349 
L 255.63382 216.525989 
L 256.181675 215.857798 
L 256.516475 215.451071 
L 256.881711 215.116978 
L 257.30782 214.797406 
L 257.825239 214.448787 
L 260.016657 213.286713 
L 260.716693 212.763781 
L 261.08193 212.473263 
L 262.055893 211.412875 
L 263.729893 207.984767 
L 265.556075 202.450403 
L 266.499602 197.932848 
L 267.534439 191.919129 
L 268.630148 184.42377 
L 270.12153 172.207496 
L 272.03902 153.817717 
L 273.104293 142.022693 
L 275.14353 117.415834 
L 277.791493 84.703527 
L 280.287275 57.365795 
L 281.535166 46.471379 
L 282.783057 38.278776 
L 283.787457 34.022692 
L 284.365748 32.439368 
L 284.548366 32.119798 
L 285.004911 31.65497 
L 285.248402 31.553289 
L 286.039748 32.047174 
L 286.43542 32.787996 
L 287.287639 35.518857 
L 288.231166 40.530289 
L 289.387748 48.98436 
L 291.21393 65.631032 
L 292.431384 78.936748 
L 294.440184 102.192702 
L 298.883893 153.904872 
L 301.318802 179.426863 
L 303.144984 195.826596 
L 304.240693 203.365534 
L 305.51902 210.047439 
L 307.558257 218.356251 
L 309.688802 224.137554 
L 311.332366 227.042734 
L 312.367202 227.42041 
L 312.854184 227.318724 
L 313.128111 227.071786 
L 313.797711 225.924241 
L 314.406439 224.558807 
L 316.476111 217.266812 
L 317.845748 210.918995 
L 319.854548 199.806688 
L 327.189711 154.979788 
L 329.350693 144.187051 
L 331.38993 136.836949 
L 332.881311 133.554098 
L 334.06833 132.043406 
L 334.40313 131.840044 
L 334.555311 131.810992 
L 334.890111 131.767414 
L 335.194475 131.796466 
L 335.529275 131.883621 
L 335.955384 132.145087 
L 336.107566 132.246768 
L 337.233711 132.900433 
L 337.507639 133.118323 
L 337.872875 133.394313 
L 338.207675 133.684831 
L 339.120766 134.701644 
L 339.972984 135.732982 
L 340.399093 136.284967 
L 340.642584 136.66264 
L 341.67742 137.969969 
L 341.860039 138.173332 
L 342.864439 138.986782 
L 345.177602 140.206957 
L 345.45153 140.410319 
L 345.755893 140.555578 
L 346.45593 140.773466 
L 347.36902 140.671785 
L 350.230039 139.204671 
L 350.47353 139.044885 
L 350.80833 138.856048 
L 351.112693 138.768894 
L 351.325748 138.696264 
L 353.06062 138.783419 
L 353.273675 138.841524 
L 353.791093 138.928678 
L 354.186766 139.161093 
L 354.308511 139.248248 
L 354.704184 139.625921 
L 355.434657 140.468423 
L 356.104257 141.514287 
L 358.84353 145.610589 
L 359.269639 146.365935 
L 359.665311 146.888867 
L 360.030548 147.353695 
L 360.213166 147.557058 
L 360.547966 147.963783 
L 361.369748 148.878914 
L 362.10022 150.040985 
L 366.20913 155.735134 
L 366.848293 156.199963 
L 367.000475 156.243541 
L 367.54833 156.345222 
L 367.944002 156.417851 
L 368.21793 156.403325 
L 368.978839 156.301644 
L 369.526693 155.923971 
L 370.56153 154.268019 
L 371.383311 152.583016 
L 377.287966 141.078511 
L 378.566293 138.304065 
L 378.901093 137.635874 
L 379.479384 136.51738 
L 379.905493 135.718456 
L 380.60553 134.309445 
L 381.122948 133.379787 
L 382.157784 131.636681 
L 382.27953 131.46237 
L 382.918693 130.47461 
L 382.918693 130.47461 
" style="fill:none;stroke:#ff0000;stroke-linecap:square;stroke-width:1.5;"/>
   </g>
   <g id="line2d_29">
    <path clip-path="url(#p1ee67b21d0)" d="M 129.41422 164.412263 
" style="fill:none;stroke:#ffffff;stroke-linecap:square;stroke-width:1.5;"/>
    <defs>
     <path d="M 0 -5 
L -1.12257 -1.545085 
L -4.755283 -1.545085 
L -1.816356 0.59017 
L -2.938926 4.045085 
L -0 1.90983 
L 2.938926 4.045085 
L 1.816356 0.59017 
L 4.755283 -1.545085 
L 1.12257 -1.545085 
z
" id="m576e4fee2a" style="stroke:#ffffff;stroke-linejoin:bevel;"/>
    </defs>
    <g clip-path="url(#p1ee67b21d0)">
     <use style="fill:#0000ff;stroke:#ffffff;stroke-linejoin:bevel;" x="129.41422" xlink:href="#m576e4fee2a" y="164.412263"/>
    </g>
   </g>
   <g id="line2d_30">
    <path clip-path="url(#p1ee67b21d0)" d="M 106.130402 162.213682 
" style="fill:none;stroke:#ffffff;stroke-linecap:square;stroke-width:1.5;"/>
    <defs>
     <path d="M 0 -5 
L -1.12257 -1.545085 
L -4.755283 -1.545085 
L -1.816356 0.59017 
L -2.938926 4.045085 
L -0 1.90983 
L 2.938926 4.045085 
L 1.816356 0.59017 
L 4.755283 -1.545085 
L 1.12257 -1.545085 
z
" id="m63ef9d9c2d" style="stroke:#ffffff;stroke-linejoin:bevel;"/>
    </defs>
    <g clip-path="url(#p1ee67b21d0)">
     <use style="fill:#ff0000;stroke:#ffffff;stroke-linejoin:bevel;" x="106.130402" xlink:href="#m63ef9d9c2d" y="162.213682"/>
    </g>
   </g>
   <g id="patch_3">
    <path d="M 63.336875 339.84 
L 63.336875 7.2 
" style="fill:none;stroke:#000000;stroke-linecap:square;stroke-linejoin:miter;stroke-width:0.8;"/>
   </g>
   <g id="patch_4">
    <path d="M 398.136875 339.84 
L 398.136875 7.2 
" style="fill:none;stroke:#000000;stroke-linecap:square;stroke-linejoin:miter;stroke-width:0.8;"/>
   </g>
   <g id="patch_5">
    <path d="M 63.336875 339.84 
L 398.136875 339.84 
" style="fill:none;stroke:#000000;stroke-linecap:square;stroke-linejoin:miter;stroke-width:0.8;"/>
   </g>
   <g id="patch_6">
    <path d="M 63.336875 7.2 
L 398.136875 7.2 
" style="fill:none;stroke:#000000;stroke-linecap:square;stroke-linejoin:miter;stroke-width:0.8;"/>
   </g>
   <g id="text_16">
    <g id="patch_7">
     <path d="M 75.036875 331.242688 
L 166.79375 331.242688 
L 166.79375 293.760312 
L 75.036875 293.760312 
z
" style="fill:#ffffff;stroke:#000000;stroke-linejoin:miter;stroke-width:0.75;"/>
    </g>
    <!-- Auto_00035 -->
    <g transform="translate(80.076875 308.521562)scale(0.14 -0.14)">
     <defs>
      <path d="M 2928 1419 
L 1288 1419 
L 1000 750 
Q 894 503 894 381 
Q 894 284 986 211 
Q 1078 138 1384 116 
L 1384 0 
L 50 0 
L 50 116 
Q 316 163 394 238 
Q 553 388 747 847 
L 2238 4334 
L 2347 4334 
L 3822 809 
Q 4000 384 4145 257 
Q 4291 131 4550 116 
L 4550 0 
L 2878 0 
L 2878 116 
Q 3131 128 3220 200 
Q 3309 272 3309 375 
Q 3309 513 3184 809 
L 2928 1419 
z
M 2841 1650 
L 2122 3363 
L 1384 1650 
L 2841 1650 
z
" id="TimesNewRomanPSMT-41" transform="scale(0.015625)"/>
      <path d="M 2709 2863 
L 2709 1128 
Q 2709 631 2732 520 
Q 2756 409 2807 365 
Q 2859 322 2928 322 
Q 3025 322 3147 375 
L 3191 266 
L 2334 -88 
L 2194 -88 
L 2194 519 
Q 1825 119 1631 15 
Q 1438 -88 1222 -88 
Q 981 -88 804 51 
Q 628 191 559 409 
Q 491 628 491 1028 
L 491 2306 
Q 491 2509 447 2587 
Q 403 2666 317 2708 
Q 231 2750 6 2747 
L 6 2863 
L 1009 2863 
L 1009 947 
Q 1009 547 1148 422 
Q 1288 297 1484 297 
Q 1619 297 1789 381 
Q 1959 466 2194 703 
L 2194 2325 
Q 2194 2569 2105 2655 
Q 2016 2741 1734 2747 
L 1734 2863 
L 2709 2863 
z
" id="TimesNewRomanPSMT-75" transform="scale(0.015625)"/>
      <path d="M 3256 -1381 
L -53 -1381 
L -53 -1119 
L 3256 -1119 
L 3256 -1381 
z
" id="TimesNewRomanPSMT-5f" transform="scale(0.015625)"/>
     </defs>
     <use xlink:href="#TimesNewRomanPSMT-41"/>
     <use x="72.216797" xlink:href="#TimesNewRomanPSMT-75"/>
     <use x="122.216797" xlink:href="#TimesNewRomanPSMT-74"/>
     <use x="150" xlink:href="#TimesNewRomanPSMT-6f"/>
     <use x="200" xlink:href="#TimesNewRomanPSMT-5f"/>
     <use x="250" xlink:href="#TimesNewRomanPSMT-30"/>
     <use x="300" xlink:href="#TimesNewRomanPSMT-30"/>
     <use x="350" xlink:href="#TimesNewRomanPSMT-30"/>
     <use x="400" xlink:href="#TimesNewRomanPSMT-33"/>
     <use x="450" xlink:href="#TimesNewRomanPSMT-35"/>
    </g>
    <!-- Vs: 261.30m/s -->
    <g transform="translate(80.076875 323.208)scale(0.14 -0.14)">
     <defs>
      <path d="M 903 2950 
Q 1047 2950 1148 2848 
Q 1250 2747 1250 2603 
Q 1250 2459 1148 2357 
Q 1047 2256 903 2256 
Q 759 2256 657 2357 
Q 556 2459 556 2603 
Q 556 2747 657 2848 
Q 759 2950 903 2950 
z
M 897 609 
Q 1044 609 1145 506 
Q 1247 403 1247 259 
Q 1247 116 1144 14 
Q 1041 -88 897 -88 
Q 753 -88 651 14 
Q 550 116 550 259 
Q 550 403 651 506 
Q 753 609 897 609 
z
" id="TimesNewRomanPSMT-3a" transform="scale(0.015625)"/>
      <path d="M 1794 4444 
L 259 -88 
L 9 -88 
L 1544 4444 
L 1794 4444 
z
" id="TimesNewRomanPSMT-2f" transform="scale(0.015625)"/>
     </defs>
     <use xlink:href="#TimesNewRomanPSMT-56"/>
     <use x="72.216797" xlink:href="#TimesNewRomanPSMT-73"/>
     <use x="111.132812" xlink:href="#TimesNewRomanPSMT-3a"/>
     <use x="138.916016" xlink:href="#TimesNewRomanPSMT-20"/>
     <use x="163.916016" xlink:href="#TimesNewRomanPSMT-32"/>
     <use x="213.916016" xlink:href="#TimesNewRomanPSMT-36"/>
     <use x="263.916016" xlink:href="#TimesNewRomanPSMT-31"/>
     <use x="313.916016" xlink:href="#TimesNewRomanPSMT-2e"/>
     <use x="338.916016" xlink:href="#TimesNewRomanPSMT-33"/>
     <use x="388.916016" xlink:href="#TimesNewRomanPSMT-30"/>
     <use x="438.916016" xlink:href="#TimesNewRomanPSMT-6d"/>
     <use x="516.699219" xlink:href="#TimesNewRomanPSMT-2f"/>
     <use x="544.482422" xlink:href="#TimesNewRomanPSMT-73"/>
    </g>
   </g>
  </g>
 </g>
 <defs>
  <clipPath id="p1ee67b21d0">
   <rect height="332.64" width="334.8" x="63.336875" y="7.2"/>
  </clipPath>
 </defs>
</svg>
